<svg viewBox="0 0 240 120" fill="none" xmlns="http://www.w3.org/2000/svg">
<path d="M176.188 60C176.188 91.6174 150.557 117.248 118.94 117.248C87.3223 117.248 61.6914 91.6174 61.6914 60C61.6914 28.3826 87.3223 2.75171 118.94 2.75171C150.557 2.75171 176.188 28.3826 176.188 60Z" fill="url(#paint0_radial_7181_844)"/>
<path d="M120 13.5623L121.525 50.3679L134.35 15.8351L124.427 51.3108L147.295 22.431L126.895 53.1041L157.568 32.7045L128.689 55.5725L164.164 45.6498L129.632 58.4742L166.437 59.9998L129.632 61.5253L164.164 74.3497L128.689 64.427L157.568 87.295L126.895 66.8954L147.295 97.5685L124.427 68.6887L134.35 104.164L121.525 69.6316L120 106.437L118.474 69.6316L105.65 104.164L115.572 68.6887L92.7045 97.5685L113.104 66.8954L82.431 87.295L111.311 64.427L75.8351 74.3497L110.368 61.5253L73.5623 59.9998L110.368 58.4742L75.8351 45.6498L111.311 55.5725L82.431 32.7045L113.104 53.1041L92.7045 22.431L115.572 51.3108L105.65 15.8351L118.474 50.3679L120 13.5623Z" fill="url(#paint1_radial_7181_844)"/>
<path d="M141.187 59.998C141.187 71.9256 131.518 81.5947 119.59 81.5947C107.663 81.5947 97.9937 71.9256 97.9937 59.998C97.9937 48.0705 107.663 38.4014 119.59 38.4014C131.518 38.4014 141.187 48.0705 141.187 59.998Z" fill="url(#paint2_radial_7181_844)"/>
<path d="M141.187 59.998C141.187 71.9256 131.518 81.5947 119.59 81.5947C107.663 81.5947 97.9937 71.9256 97.9937 59.998C97.9937 48.0705 107.663 38.4014 119.59 38.4014C131.518 38.4014 141.187 48.0705 141.187 59.998Z" fill="url(#paint3_radial_7181_844)"/>
<path d="M44.7259 95.9992C33.8607 95.9992 9.16964 110.333 2.01929 120H237.981C231.481 111 216.53 92.9987 208.729 92.9987C198.979 92.9987 199.232 100.249 187.532 100.249C175.831 100.249 179.569 92.9987 167.868 92.9987C156.168 92.9987 151.557 84.7488 140.831 83.7487C130.106 82.7487 120.038 92.9993 102.487 102C84.9364 111.001 55.591 95.9992 44.7259 95.9992Z" fill="url(#paint4_linear_7181_844)"/>
<path d="M44.7259 95.9992C33.8607 95.9992 9.16964 110.333 2.01929 120H237.981C231.481 111 216.53 92.9987 208.729 92.9987C198.979 92.9987 199.232 100.249 187.532 100.249C175.831 100.249 179.569 92.9987 167.868 92.9987C156.168 92.9987 151.557 84.7488 140.831 83.7487C130.106 82.7487 120.038 92.9993 102.487 102C84.9364 111.001 55.591 95.9992 44.7259 95.9992Z" fill="url(#paint5_radial_7181_844)"/>
<path d="M44.7259 95.9992C33.8607 95.9992 9.16964 110.333 2.01929 120H237.981C231.481 111 216.53 92.9987 208.729 92.9987C198.979 92.9987 199.232 100.249 187.532 100.249C175.831 100.249 179.569 92.9987 167.868 92.9987C156.168 92.9987 151.557 84.7488 140.831 83.7487C130.106 82.7487 120.038 92.9993 102.487 102C84.9364 111.001 55.591 95.9992 44.7259 95.9992Z" fill="url(#paint6_radial_7181_844)"/>
<path d="M44.7259 95.9992C33.8607 95.9992 9.16964 110.333 2.01929 120H237.981C231.481 111 216.53 92.9987 208.729 92.9987C198.979 92.9987 199.232 100.249 187.532 100.249C175.831 100.249 179.569 92.9987 167.868 92.9987C156.168 92.9987 151.557 84.7488 140.831 83.7487C130.106 82.7487 120.038 92.9993 102.487 102C84.9364 111.001 55.591 95.9992 44.7259 95.9992Z" fill="url(#paint7_radial_7181_844)"/>
<defs>
<radialGradient id="paint0_radial_7181_844" cx="0" cy="0" r="1" gradientUnits="userSpaceOnUse" gradientTransform="translate(118.94 60) rotate(90) scale(57.2483)">
<stop offset="0.768578" stop-color="#FFAD72" stop-opacity="0"/>
<stop offset="0.820981" stop-color="#FFAD72"/>
<stop offset="0.873384" stop-color="#FFDF6D"/>
<stop offset="0.91487" stop-color="#91F8FF"/>
<stop offset="0.967274" stop-color="#BF56FF" stop-opacity="0"/>
</radialGradient>
<radialGradient id="paint1_radial_7181_844" cx="0" cy="0" r="1" gradientUnits="userSpaceOnUse" gradientTransform="translate(120 59.9998) rotate(90) scale(46.4375)">
<stop offset="0.506122" stop-color="#FFBB00"/>
<stop offset="1" stop-color="#FFEAA1" stop-opacity="0"/>
</radialGradient>
<radialGradient id="paint2_radial_7181_844" cx="0" cy="0" r="1" gradientUnits="userSpaceOnUse" gradientTransform="translate(116.015 55.938) rotate(67.751) scale(38.6024)">
<stop offset="0.177434" stop-color="#FFE074"/>
<stop offset="0.82146" stop-color="#FF9900"/>
</radialGradient>
<radialGradient id="paint3_radial_7181_844" cx="0" cy="0" r="1" gradientUnits="userSpaceOnUse" gradientTransform="translate(118 57.748) rotate(86.1834) scale(23.8997)">
<stop offset="0.869792" stop-color="#FF7A00" stop-opacity="0"/>
<stop offset="1" stop-color="#FF7A00"/>
</radialGradient>
<linearGradient id="paint4_linear_7181_844" x1="110.844" y1="63.7483" x2="116.691" y2="124.983" gradientUnits="userSpaceOnUse">
<stop stop-color="#E1BC73"/>
<stop offset="1" stop-color="#4C6984"/>
</linearGradient>
<radialGradient id="paint5_radial_7181_844" cx="0" cy="0" r="1" gradientUnits="userSpaceOnUse" gradientTransform="translate(111.827 89.2495) rotate(66.7266) scale(20.6839 39.0802)">
<stop stop-color="#FEBC90"/>
<stop offset="1" stop-color="#FEBC90" stop-opacity="0"/>
</radialGradient>
<radialGradient id="paint6_radial_7181_844" cx="0" cy="0" r="1" gradientUnits="userSpaceOnUse" gradientTransform="translate(197.855 92.9997) rotate(78.6548) scale(12.4947 20.7449)">
<stop stop-color="#FEBC90"/>
<stop offset="1" stop-color="#FEBC90" stop-opacity="0"/>
</radialGradient>
<radialGradient id="paint7_radial_7181_844" cx="0" cy="0" r="1" gradientUnits="userSpaceOnUse" gradientTransform="translate(56.0324 85.7494) rotate(27.0862) scale(49.4169 25.6455)">
<stop stop-color="#FEBC90"/>
<stop offset="1" stop-color="#FEBC90" stop-opacity="0"/>
</radialGradient>
</defs>
</svg>
