<svg viewBox="0 0 240 120" fill="none" xmlns="http://www.w3.org/2000/svg">
<path d="M115.28 31.6838C86.5435 -4.86027 24.6308 15.4238 24.6308 63.0179V111.817H126.124V107.986H216.435V62.9323C216.435 9.1773 144.967 -11.6963 115.28 31.6838Z" fill="url(#paint0_radial_10115_1331)"/>
<path d="M115.28 31.6838C86.5435 -4.86027 24.6308 15.4238 24.6308 63.0179V111.817H126.124V107.986H216.435V62.9323C216.435 9.1773 144.967 -11.6963 115.28 31.6838Z" fill="url(#paint1_radial_10115_1331)"/>
<path d="M115.28 31.6838C86.5435 -4.86027 24.6308 15.4238 24.6308 63.0179V111.817H126.124V107.986H216.435V62.9323C216.435 9.1773 144.967 -11.6963 115.28 31.6838Z" fill="url(#paint2_radial_10115_1331)"/>
<path d="M42.3835 107.589L42.3835 11.9186L110.442 11.9186L110.442 107.589L42.3835 107.589Z" fill="url(#paint3_linear_10115_1331)"/>
<path d="M110.522 107.236L71.6579 69.7148C66.019 64.2708 66.019 55.2359 71.6579 49.792L110.522 12.271L110.522 107.236Z" fill="url(#paint4_linear_10115_1331)"/>
<path d="M110.522 107.236L71.6579 69.7148C66.019 64.2708 66.019 55.2359 71.6579 49.792L110.522 12.271L110.522 107.236Z" fill="url(#paint5_linear_10115_1331)"/>
<path d="M110.522 107.236L71.6579 69.7148C66.019 64.2708 66.019 55.2359 71.6579 49.792L110.522 12.271L110.522 107.236Z" fill="url(#paint6_radial_10115_1331)"/>
<path d="M59.4659 11.9193L85.175 36.7405L71.6579 49.7934C66.0194 55.2372 66.0195 64.2714 71.6579 69.7153L85.175 82.7726L59.4659 107.589L42.3835 107.589L42.3835 11.9193L59.4659 11.9193Z" fill="url(#paint7_linear_10115_1331)"/>
<path d="M59.4659 11.9193L85.175 36.7405L71.6579 49.7934C66.0194 55.2372 66.0195 64.2714 71.6579 69.7153L85.175 82.7726L59.4659 107.589L42.3835 107.589L42.3835 11.9193L59.4659 11.9193Z" fill="url(#paint8_linear_10115_1331)"/>
<path d="M42.3835 12.2706L81.2481 49.7916C86.887 55.2355 86.887 64.2704 81.2481 69.7143L42.3835 107.235L42.3835 12.2706Z" fill="url(#paint9_linear_10115_1331)"/>
<path d="M42.3835 12.2706L81.2481 49.7916C86.887 55.2355 86.887 64.2704 81.2481 69.7143L42.3835 107.235L42.3835 12.2706Z" fill="url(#paint10_linear_10115_1331)"/>
<path d="M79.7196 21.5951C79.7196 21.1251 80.0727 20.7302 80.5398 20.6778L143.663 13.5996C145.031 13.4462 146.228 14.5166 146.228 15.8929V100.295L79.7199 108.271L79.7196 21.5951Z" fill="url(#paint11_linear_10115_1331)"/>
<path d="M79.7202 21.2876L146.883 24.0802C148.12 24.1316 149.095 25.1487 149.095 26.3859V112.788C149.095 114.1 148.003 115.148 146.692 115.094L81.932 112.401C80.6959 112.349 79.7202 111.332 79.7202 110.095V21.2876Z" fill="#FEF3DD"/>
<path d="M79.7202 21.2876L146.883 24.0802C148.12 24.1316 149.095 25.1487 149.095 26.3859V112.788C149.095 114.1 148.003 115.148 146.692 115.094L81.932 112.401C80.6959 112.349 79.7202 111.332 79.7202 110.095V21.2876Z" fill="url(#paint12_linear_10115_1331)"/>
<path d="M79.7202 21.2876L146.883 24.0802C148.12 24.1316 149.095 25.1487 149.095 26.3859V112.788C149.095 114.1 148.003 115.148 146.692 115.094L81.932 112.401C80.6959 112.349 79.7202 111.332 79.7202 110.095V21.2876Z" fill="url(#paint13_linear_10115_1331)"/>
<path d="M97.1206 60.588C96.7873 55.2544 110.288 51.9209 112.621 31.9199H114.621C115.954 52.2543 130.621 56.0878 130.288 61.5881C129.955 67.0883 124.843 68.5884 123.454 67.0883C124.288 73.0886 133.621 78.6889 132.288 82.4224C130.955 86.1559 127.177 86.2004 125.454 85.7559C128.732 87.0893 135.555 90.6562 136.621 94.2563C137.955 98.7566 131.788 107.757 125.454 102.257C123.454 106.09 111.454 108.257 104.788 101.423C102.899 103.812 96.299 105.124 93.288 101.423C88.6225 95.689 97.7879 89.145 102.954 86.5893C100.454 87.4227 95.0213 87.9894 93.288 83.5891C91.5546 79.1889 102.954 72.5886 104.788 67.0883C102.343 66.6994 97.3873 64.8549 97.1206 60.588Z" fill="url(#paint14_linear_10115_1331)"/>
<path d="M97.1206 60.588C96.7873 55.2544 110.288 51.9209 112.621 31.9199H114.621C115.954 52.2543 130.621 56.0878 130.288 61.5881C129.955 67.0883 124.843 68.5884 123.454 67.0883C124.288 73.0886 133.621 78.6889 132.288 82.4224C130.955 86.1559 127.177 86.2004 125.454 85.7559C128.732 87.0893 135.555 90.6562 136.621 94.2563C137.955 98.7566 131.788 107.757 125.454 102.257C123.454 106.09 111.454 108.257 104.788 101.423C102.899 103.812 96.299 105.124 93.288 101.423C88.6225 95.689 97.7879 89.145 102.954 86.5893C100.454 87.4227 95.0213 87.9894 93.288 83.5891C91.5546 79.1889 102.954 72.5886 104.788 67.0883C102.343 66.6994 97.3873 64.8549 97.1206 60.588Z" fill="url(#paint15_linear_10115_1331)"/>
<path d="M97.1206 60.588C96.7873 55.2544 110.288 51.9209 112.621 31.9199H114.621C115.954 52.2543 130.621 56.0878 130.288 61.5881C129.955 67.0883 124.843 68.5884 123.454 67.0883C124.288 73.0886 133.621 78.6889 132.288 82.4224C130.955 86.1559 127.177 86.2004 125.454 85.7559C128.732 87.0893 135.555 90.6562 136.621 94.2563C137.955 98.7566 131.788 107.757 125.454 102.257C123.454 106.09 111.454 108.257 104.788 101.423C102.899 103.812 96.299 105.124 93.288 101.423C88.6225 95.689 97.7879 89.145 102.954 86.5893C100.454 87.4227 95.0213 87.9894 93.288 83.5891C91.5546 79.1889 102.954 72.5886 104.788 67.0883C102.343 66.6994 97.3873 64.8549 97.1206 60.588Z" fill="url(#paint16_linear_10115_1331)"/>
<path d="M120.811 65.4873C121.434 66.2833 122.411 66.8573 123.51 67.293C124.393 72.4421 131.37 77.2875 132.315 80.8892C128.957 83.2244 122.507 86.2966 114.053 86.2973C104.982 86.2973 97.4474 82.7796 93.825 80.4065C96.122 76.3438 103.361 71.378 104.793 67.0874C104.664 67.0669 104.532 67.0267 104.39 66.998C105.686 66.9973 107.084 66.6123 108.413 65.4873C111.406 70.0031 119.221 68.8013 120.811 65.4873Z" fill="url(#paint17_radial_10115_1331)"/>
<path d="M123.061 84.5713C123.626 85.6266 124.83 86.0326 126.252 86.0909C129.727 87.6219 135.643 90.9209 136.63 94.2523C137.282 96.4542 136.126 99.7195 134.047 101.85C132.435 102.525 130.519 103.2 128.326 103.79C127.396 103.558 126.429 103.089 125.465 102.253C124.783 103.56 122.931 104.654 120.531 105.283C118.547 105.507 116.439 105.65 114.22 105.65C113.933 105.65 113.647 105.627 113.362 105.623C110.294 105.154 107.199 103.881 104.798 101.421C103.823 102.654 101.591 103.583 99.2471 103.701C97.3052 103.204 95.533 102.67 93.9731 102.11C93.7338 101.901 93.5015 101.677 93.2937 101.421C89.6051 96.8878 94.5725 91.858 99.3633 88.6833C102.002 87.3486 104.727 85.8326 106.103 84.5713C110.079 90.6608 121.097 87.6524 123.061 84.5713Z" fill="url(#paint18_radial_10115_1331)"/>
<path d="M100.541 62.0882C103.652 59.0325 110.324 48.8875 113.791 36.0869C115.207 46.1707 121.207 55.7546 127.458 61.2548C121.374 64.5883 117.624 54.6989 115.957 50.0876C116.569 55.0323 116.991 64.955 113.791 65.0884C110.591 65.2217 111.541 55.8379 112.041 51.171C110.096 55.3934 104.807 64.2216 100.541 62.0882Z" fill="url(#paint19_linear_10115_1331)"/>
<path d="M110.205 75.7601C108.261 79.9825 100.472 84.8105 96.2053 82.6771C98.632 80.2937 104.442 75.0372 109.039 66.5107H118.789C121.289 73.3444 125.122 78.178 130.206 81.3437C124.122 84.6772 119.039 79.4547 117.372 74.8434C117.983 79.7881 117.239 87.2107 114.039 87.344C110.839 87.4773 109.705 80.427 110.205 75.7601Z" fill="url(#paint20_linear_10115_1331)"/>
<path d="M110.451 93.3902C108.206 97.2917 99.0387 102.178 94.3719 97.511C98.7053 95.6776 102.148 92.7222 107.455 84.8438H122.039C124.925 91.1581 128.671 93.5859 134.539 96.511C127.206 101.428 120.456 97.511 118.724 92.5431C119.429 97.112 118.316 102.471 114.622 102.595C110.928 102.718 109.873 97.7024 110.451 93.3902Z" fill="url(#paint21_linear_10115_1331)"/>
<path d="M163.682 25.3804C163.682 27.7042 161.735 29.5879 159.333 29.5879C156.932 29.5879 154.985 27.7042 154.985 25.3804C154.985 23.0566 156.932 21.1729 159.333 21.1729C161.735 21.1729 163.682 23.0566 163.682 25.3804Z" fill="url(#paint22_radial_10115_1331)"/>
<path d="M164.36 76.4285C164.36 78.1073 162.953 79.4683 161.218 79.4683C159.483 79.4683 158.077 78.1073 158.077 76.4285C158.077 74.7496 159.483 73.3887 161.218 73.3887C162.953 73.3887 164.36 74.7496 164.36 76.4285Z" fill="url(#paint23_radial_10115_1331)"/>
<path d="M216.436 82.0923C216.436 84.4161 214.489 86.2998 212.088 86.2998C209.686 86.2998 207.74 84.4161 207.74 82.0923C207.74 79.7685 209.686 77.8848 212.088 77.8848C214.489 77.8848 216.436 79.7685 216.436 82.0923Z" fill="url(#paint24_radial_10115_1331)"/>
<path d="M202.212 75.357C202.212 76.8387 200.97 78.0398 199.439 78.0398C197.908 78.0398 196.667 76.8387 196.667 75.357C196.667 73.8754 197.908 72.6743 199.439 72.6743C200.97 72.6743 202.212 73.8754 202.212 75.357Z" fill="url(#paint25_radial_10115_1331)"/>
<path d="M27.4039 69.9913C27.4039 71.473 26.1626 72.6741 24.6314 72.6741C23.1002 72.6741 21.8589 71.473 21.8589 69.9913C21.8589 68.5097 23.1002 67.3086 24.6314 67.3086C26.1626 67.3086 27.4039 68.5097 27.4039 69.9913Z" fill="url(#paint26_radial_10115_1331)"/>
<path d="M38.1615 51.4352C38.1615 52.9168 36.9202 54.1179 35.389 54.1179C33.8577 54.1179 32.6165 52.9168 32.6165 51.4352C32.6165 49.9535 33.8577 48.7524 35.389 48.7524C36.9202 48.7524 38.1615 49.9535 38.1615 51.4352Z" fill="url(#paint27_radial_10115_1331)"/>
<path d="M35.8744 87.3462C35.8744 89.6096 33.9782 91.4444 31.6391 91.4444C29.3 91.4444 27.4038 89.6096 27.4038 87.3462C27.4038 85.0829 29.3 83.248 31.6391 83.248C33.9782 83.248 35.8744 85.0829 35.8744 87.3462Z" fill="url(#paint28_radial_10115_1331)"/>
<path d="M178.846 50.7729C178.846 54.7478 175.516 57.9701 171.408 57.9701C167.3 57.9701 163.97 54.7478 163.97 50.7729C163.97 46.798 167.3 43.5757 171.408 43.5757C175.516 43.5757 178.846 46.798 178.846 50.7729Z" fill="url(#paint29_radial_10115_1331)"/>
<path d="M196.666 26.9762C196.666 30.0421 194.098 32.5275 190.929 32.5275C187.761 32.5275 185.192 30.0421 185.192 26.9762C185.192 23.9102 187.761 21.4248 190.929 21.4248C194.098 21.4248 196.666 23.9102 196.666 26.9762Z" fill="url(#paint30_radial_10115_1331)"/>
<path d="M112.386 26.9649C112.641 26.1797 113.752 26.1797 114.007 26.9649L115.348 31.0913C115.462 31.4424 115.789 31.6802 116.158 31.6802L120.497 31.6802C121.323 31.6802 121.666 32.7367 120.998 33.222L117.488 35.7722C117.189 35.9893 117.064 36.374 117.178 36.7251L118.519 40.8515C118.774 41.6367 117.875 42.2897 117.207 41.8044L113.697 39.2541C113.399 39.0371 112.994 39.0371 112.695 39.2542L109.185 41.8044C108.517 42.2897 107.619 41.6367 107.874 40.8515L109.214 36.7251C109.329 36.374 109.204 35.9893 108.905 35.7722L105.395 33.222C104.727 32.7367 105.07 31.6802 105.896 31.6802L110.234 31.6802C110.604 31.6802 110.931 31.4424 111.045 31.0913L112.386 26.9649Z" fill="url(#paint31_linear_10115_1331)"/>
<path d="M125.721 107.272C150.682 96.9119 213.634 75.6015 233.031 119.999H16.5345C16.8971 117.631 24.6939 104.312 43.1886 102.24C61.6832 100.168 100.76 117.632 125.721 107.272Z" fill="url(#paint32_radial_10115_1331)"/>
<path d="M125.721 107.272C150.682 96.9119 213.634 75.6015 233.031 119.999H16.5345C16.8971 117.631 24.6939 104.312 43.1886 102.24C61.6832 100.168 100.76 117.632 125.721 107.272Z" fill="url(#paint33_radial_10115_1331)"/>
<path d="M125.721 107.272C150.682 96.9119 213.634 75.6015 233.031 119.999H16.5345C16.8971 117.631 24.6939 104.312 43.1886 102.24C61.6832 100.168 100.76 117.632 125.721 107.272Z" fill="url(#paint34_radial_10115_1331)"/>
<path d="M125.721 107.272C150.682 96.9119 213.634 75.6015 233.031 119.999H16.5345C16.8971 117.631 24.6939 104.312 43.1886 102.24C61.6832 100.168 100.76 117.632 125.721 107.272Z" fill="url(#paint35_radial_10115_1331)"/>
<path d="M125.721 107.272C150.682 96.9119 213.634 75.6015 233.031 119.999H16.5345C16.8971 117.631 24.6939 104.312 43.1886 102.24C61.6832 100.168 100.76 117.632 125.721 107.272Z" fill="url(#paint36_radial_10115_1331)"/>
<path d="M200.705 61.1754L215.906 41.3321C216.376 40.7188 216.257 39.8403 215.644 39.3706L213.766 37.9321L215.955 35.0752L217.832 36.5137C220.023 38.1916 220.438 41.3279 218.76 43.5183L203.558 63.3616C202.147 65.2039 199.294 63.0167 200.705 61.1754Z" fill="#E59324"/>
<path d="M214.43 37.2447C214.43 37.2447 197.851 61.1459 187.672 74.4326C177.493 87.7191 165.64 98.2627 165.64 98.2627L163.014 96.2466L160.384 94.2367C160.384 94.2367 167.479 80.0471 177.657 66.7606C187.836 53.4739 206.498 31.1678 206.498 31.1678L214.43 37.2447Z" fill="url(#paint37_linear_10115_1331)"/>
<path d="M214.43 37.2447C214.43 37.2447 197.851 61.1459 187.672 74.4326C177.493 87.7191 165.64 98.2627 165.64 98.2627L163.014 96.2466L160.384 94.2367C160.384 94.2367 167.479 80.0471 177.657 66.7606C187.836 53.4739 206.498 31.1678 206.498 31.1678L214.43 37.2447Z" fill="url(#paint38_radial_10115_1331)"/>
<path d="M210.232 26.5066C214.057 21.5134 221.8 27.4454 217.975 32.4386L214.86 36.504L207.117 30.572L210.232 26.5066Z" fill="url(#paint39_linear_10115_1331)"/>
<path d="M210.232 26.5066C214.057 21.5134 221.8 27.4454 217.975 32.4386L214.86 36.504L207.117 30.572L210.232 26.5066Z" fill="url(#paint40_radial_10115_1331)"/>
<path d="M213.883 38.0614C213.505 37.3201 212.279 36.0901 210.146 34.4554C208.012 32.8206 206.606 32.0795 205.867 31.9203L207.987 29.1523C208.237 28.8268 210.304 30.051 212.331 31.6035C214.357 33.1559 216.276 34.9377 216.004 35.2935L213.883 38.0614Z" fill="url(#paint41_linear_10115_1331)"/>
<path d="M159.724 103.825C159.724 103.825 159.087 103.987 157.783 102.988C156.479 101.989 156.469 101.331 156.469 101.331L160.891 93.1121C160.891 93.1121 161.833 92.7159 164.24 94.5597C166.647 96.4036 166.509 97.4166 166.509 97.4166L159.724 103.825Z" fill="url(#paint42_linear_10115_1331)"/>
<path d="M155.851 107.352C155.851 107.352 155.496 107.451 154.783 106.904C154.07 106.358 154.072 105.989 154.072 105.989L156.623 101.321C156.623 101.321 157.152 101.088 158.467 102.096C159.783 103.103 159.695 103.674 159.695 103.674L155.851 107.352Z" fill="#313546"/>
<path d="M155.851 107.352C155.851 107.352 155.496 107.451 154.783 106.904C154.07 106.358 154.072 105.989 154.072 105.989L156.623 101.321C156.623 101.321 157.152 101.088 158.467 102.096C159.783 103.103 159.695 103.674 159.695 103.674L155.851 107.352Z" fill="url(#paint43_radial_10115_1331)"/>
<defs>
<radialGradient id="paint0_radial_10115_1331" cx="0" cy="0" r="1" gradientTransform="matrix(-190.504 -10.9609 6.48463 -117.425 128.718 110.905)" gradientUnits="userSpaceOnUse">
<stop stop-color="#78DFDF"/>
<stop offset="0.613439" stop-color="#62A3E3"/>
<stop offset="0.97" stop-color="#6671B0"/>
</radialGradient>
<radialGradient id="paint1_radial_10115_1331" cx="0" cy="0" r="1" gradientTransform="matrix(-62.7722 26.6235 -26.0834 -64.0719 206.582 89.1255)" gradientUnits="userSpaceOnUse">
<stop stop-color="#CCEEEE"/>
<stop offset="1" stop-color="#CCEEEE" stop-opacity="0"/>
</radialGradient>
<radialGradient id="paint2_radial_10115_1331" cx="0" cy="0" r="1" gradientTransform="matrix(59.046 29.8417 -29.2364 60.2686 54.6671 109.313)" gradientUnits="userSpaceOnUse">
<stop stop-color="#CCEEEE"/>
<stop offset="1" stop-color="#CCEEEE" stop-opacity="0"/>
</radialGradient>
<linearGradient id="paint3_linear_10115_1331" x1="37.3355" y1="110.436" x2="118.705" y2="3.18228" gradientUnits="userSpaceOnUse">
<stop stop-color="#EE5348"/>
<stop offset="1" stop-color="#B72A2F"/>
</linearGradient>
<linearGradient id="paint4_linear_10115_1331" x1="102.239" y1="74.9848" x2="86.1134" y2="91.222" gradientUnits="userSpaceOnUse">
<stop stop-color="#AA232B" stop-opacity="0"/>
<stop offset="1" stop-color="#8F0D15"/>
</linearGradient>
<linearGradient id="paint5_linear_10115_1331" x1="100.22" y1="42.3811" x2="83.2318" y2="30.3568" gradientUnits="userSpaceOnUse">
<stop stop-color="#AA232B" stop-opacity="0"/>
<stop offset="1" stop-color="#8E0D15"/>
</linearGradient>
<radialGradient id="paint6_radial_10115_1331" cx="0" cy="0" r="1" gradientUnits="userSpaceOnUse" gradientTransform="translate(73.9701 59.7534) scale(20.3365 22.218)">
<stop offset="0.489362" stop-color="#AA232B"/>
<stop offset="1" stop-color="#AA232B" stop-opacity="0"/>
</radialGradient>
<linearGradient id="paint7_linear_10115_1331" x1="76.6259" y1="86.9482" x2="69.2853" y2="79.0579" gradientUnits="userSpaceOnUse">
<stop stop-color="#D6292B" stop-opacity="0"/>
<stop offset="0.932692" stop-color="#AA232B"/>
<stop offset="1" stop-color="#AA232B" stop-opacity="0"/>
</linearGradient>
<linearGradient id="paint8_linear_10115_1331" x1="65.4995" y1="23.9064" x2="58.6509" y2="30.9533" gradientUnits="userSpaceOnUse">
<stop stop-color="#D6292B" stop-opacity="0"/>
<stop offset="0.758786" stop-color="#AA232B"/>
<stop offset="1" stop-color="#AA232B" stop-opacity="0"/>
</linearGradient>
<linearGradient id="paint9_linear_10115_1331" x1="42.3835" y1="59.753" x2="91.5662" y2="59.753" gradientUnits="userSpaceOnUse">
<stop stop-color="#E96157"/>
<stop offset="1" stop-color="#DC352F"/>
</linearGradient>
<linearGradient id="paint10_linear_10115_1331" x1="40.5085" y1="59.753" x2="52.7682" y2="59.753" gradientUnits="userSpaceOnUse">
<stop stop-color="#F48D89"/>
<stop offset="1" stop-color="#F48D89" stop-opacity="0"/>
</linearGradient>
<linearGradient id="paint11_linear_10115_1331" x1="138.749" y1="28.5582" x2="67.7879" y2="36.9236" gradientUnits="userSpaceOnUse">
<stop stop-color="#D1B585"/>
<stop offset="0.584677" stop-color="#B29A71"/>
<stop offset="0.782796" stop-color="#6B5D44"/>
</linearGradient>
<linearGradient id="paint12_linear_10115_1331" x1="142.316" y1="60.3189" x2="153.278" y2="60.3189" gradientUnits="userSpaceOnUse">
<stop offset="0.5" stop-color="#E7DAC7" stop-opacity="0"/>
<stop offset="0.710527" stop-color="#CCBEAB"/>
</linearGradient>
<linearGradient id="paint13_linear_10115_1331" x1="142.316" y1="107.338" x2="141.923" y2="118.847" gradientUnits="userSpaceOnUse">
<stop offset="0.407071" stop-color="#E7DAC7" stop-opacity="0"/>
<stop offset="0.710527" stop-color="#CCBEAB"/>
</linearGradient>
<linearGradient id="paint14_linear_10115_1331" x1="136.804" y1="45.0359" x2="85.9368" y2="84.8679" gradientUnits="userSpaceOnUse">
<stop stop-color="#309C61"/>
<stop offset="1" stop-color="#20AC9D"/>
</linearGradient>
<linearGradient id="paint15_linear_10115_1331" x1="114.403" y1="71.1424" x2="139.453" y2="71.1424" gradientUnits="userSpaceOnUse">
<stop stop-color="#052D31" stop-opacity="0"/>
<stop offset="1" stop-color="#052D31"/>
</linearGradient>
<linearGradient id="paint16_linear_10115_1331" x1="118.455" y1="64.04" x2="90.0469" y2="59.0996" gradientUnits="userSpaceOnUse">
<stop stop-color="#FFD394" stop-opacity="0"/>
<stop offset="1" stop-color="#FFD638"/>
</linearGradient>
<radialGradient id="paint17_radial_10115_1331" cx="0" cy="0" r="1" gradientUnits="userSpaceOnUse" gradientTransform="translate(113.324 62.8352) rotate(90) scale(17.8948 24.5227)">
<stop stop-color="#052D31"/>
<stop offset="1" stop-color="#052D31" stop-opacity="0"/>
</radialGradient>
<radialGradient id="paint18_radial_10115_1331" cx="0" cy="0" r="1" gradientUnits="userSpaceOnUse" gradientTransform="translate(113.324 81.6044) rotate(90) scale(18.34 30.1823)">
<stop stop-color="#052D31"/>
<stop offset="1" stop-color="#052D31" stop-opacity="0"/>
</radialGradient>
<linearGradient id="paint19_linear_10115_1331" x1="113.999" y1="48.3044" x2="113.999" y2="75.8729" gradientUnits="userSpaceOnUse">
<stop stop-color="#052D31" stop-opacity="0"/>
<stop offset="1" stop-color="#052D31"/>
</linearGradient>
<linearGradient id="paint20_linear_10115_1331" x1="113.205" y1="69.0715" x2="113.205" y2="95.0923" gradientUnits="userSpaceOnUse">
<stop stop-color="#052D31" stop-opacity="0"/>
<stop offset="1" stop-color="#052D31"/>
</linearGradient>
<linearGradient id="paint21_linear_10115_1331" x1="114.455" y1="86.258" x2="114.455" y2="109.197" gradientUnits="userSpaceOnUse">
<stop stop-color="#052D31" stop-opacity="0"/>
<stop offset="1" stop-color="#052D31"/>
</linearGradient>
<radialGradient id="paint22_radial_10115_1331" cx="0" cy="0" r="1" gradientUnits="userSpaceOnUse" gradientTransform="translate(159.333 25.3804) rotate(90) scale(4.20754 4.34833)">
<stop offset="0.19" stop-color="white"/>
<stop offset="1" stop-color="white" stop-opacity="0"/>
</radialGradient>
<radialGradient id="paint23_radial_10115_1331" cx="0" cy="0" r="1" gradientUnits="userSpaceOnUse" gradientTransform="translate(161.218 76.4285) rotate(90) scale(3.03981 3.14153)">
<stop offset="0.19" stop-color="white"/>
<stop offset="1" stop-color="white" stop-opacity="0"/>
</radialGradient>
<radialGradient id="paint24_radial_10115_1331" cx="0" cy="0" r="1" gradientUnits="userSpaceOnUse" gradientTransform="translate(212.088 82.0923) rotate(90) scale(4.20754 4.34833)">
<stop offset="0.19" stop-color="white"/>
<stop offset="1" stop-color="white" stop-opacity="0"/>
</radialGradient>
<radialGradient id="paint25_radial_10115_1331" cx="0" cy="0" r="1" gradientUnits="userSpaceOnUse" gradientTransform="translate(199.439 75.357) rotate(90) scale(2.68273 2.7725)">
<stop offset="0.19" stop-color="white"/>
<stop offset="1" stop-color="white" stop-opacity="0"/>
</radialGradient>
<radialGradient id="paint26_radial_10115_1331" cx="0" cy="0" r="1" gradientUnits="userSpaceOnUse" gradientTransform="translate(24.6314 69.9913) rotate(90) scale(2.68273 2.7725)">
<stop offset="0.19" stop-color="white"/>
<stop offset="1" stop-color="white" stop-opacity="0"/>
</radialGradient>
<radialGradient id="paint27_radial_10115_1331" cx="0" cy="0" r="1" gradientUnits="userSpaceOnUse" gradientTransform="translate(35.389 51.4352) rotate(90) scale(2.68273 2.7725)">
<stop offset="0.19" stop-color="white"/>
<stop offset="1" stop-color="white" stop-opacity="0"/>
</radialGradient>
<radialGradient id="paint28_radial_10115_1331" cx="0" cy="0" r="1" gradientUnits="userSpaceOnUse" gradientTransform="translate(31.6391 87.3462) rotate(90) scale(4.09818 4.23531)">
<stop offset="0.19" stop-color="white"/>
<stop offset="1" stop-color="white" stop-opacity="0"/>
</radialGradient>
<radialGradient id="paint29_radial_10115_1331" cx="0" cy="0" r="1" gradientUnits="userSpaceOnUse" gradientTransform="translate(171.408 50.7729) rotate(90) scale(7.1972 7.43803)">
<stop offset="0.19" stop-color="white"/>
<stop offset="1" stop-color="white" stop-opacity="0"/>
</radialGradient>
<radialGradient id="paint30_radial_10115_1331" cx="0" cy="0" r="1" gradientUnits="userSpaceOnUse" gradientTransform="translate(190.929 26.9762) rotate(90) scale(5.55136 5.73712)">
<stop offset="0.19" stop-color="white"/>
<stop offset="1" stop-color="white" stop-opacity="0"/>
</radialGradient>
<linearGradient id="paint31_linear_10115_1331" x1="125.684" y1="38.9913" x2="104.217" y2="25.461" gradientUnits="userSpaceOnUse">
<stop stop-color="#E49122"/>
<stop offset="1" stop-color="#FEDF91"/>
</linearGradient>
<radialGradient id="paint32_radial_10115_1331" cx="0" cy="0" r="1" gradientTransform="matrix(-186.097 4.95277 17.7442 31.5793 160.524 94.562)" gradientUnits="userSpaceOnUse">
<stop stop-color="white"/>
<stop offset="0.47" stop-color="#DDB1FF"/>
<stop offset="1" stop-color="#7CB7EE"/>
</radialGradient>
<radialGradient id="paint33_radial_10115_1331" cx="0" cy="0" r="1" gradientTransform="matrix(-118.576 -10.1186 -1.4873 24.5542 137.557 100.055)" gradientUnits="userSpaceOnUse">
<stop stop-color="#FFC25E"/>
<stop offset="1" stop-color="#AB83A8" stop-opacity="0"/>
</radialGradient>
<radialGradient id="paint34_radial_10115_1331" cx="0" cy="0" r="1" gradientTransform="matrix(-68.4323 -91.8463 -92.3495 96.9365 68.8611 169.721)" gradientUnits="userSpaceOnUse">
<stop stop-color="#FFC25E"/>
<stop offset="1" stop-color="#AB83A8" stop-opacity="0"/>
</radialGradient>
<radialGradient id="paint35_radial_10115_1331" cx="0" cy="0" r="1" gradientTransform="matrix(-147.475 -6.56276 -0.971802 19.3222 118.764 103.579)" gradientUnits="userSpaceOnUse">
<stop offset="0.0137087" stop-color="white"/>
<stop offset="1" stop-color="#B9F8FF" stop-opacity="0"/>
</radialGradient>
<radialGradient id="paint36_radial_10115_1331" cx="0" cy="0" r="1" gradientTransform="matrix(-121.61 13.5583 5.30109 52.6917 124.783 82.9643)" gradientUnits="userSpaceOnUse">
<stop offset="0.48634" stop-color="white"/>
<stop offset="1" stop-color="#B9F8FF" stop-opacity="0"/>
</radialGradient>
<linearGradient id="paint37_linear_10115_1331" x1="195.128" y1="43.9552" x2="205.143" y2="51.6272" gradientUnits="userSpaceOnUse">
<stop stop-color="#E26539"/>
<stop offset="0.475248" stop-color="#C84520"/>
<stop offset="1" stop-color="#962B1D"/>
</linearGradient>
<radialGradient id="paint38_radial_10115_1331" cx="0" cy="0" r="1" gradientUnits="userSpaceOnUse" gradientTransform="translate(197.086 47.9724) rotate(127.455) scale(59.0458 5.74571)">
<stop stop-color="#F16A3C"/>
<stop offset="1" stop-color="#F16A3C" stop-opacity="0"/>
</radialGradient>
<linearGradient id="paint39_linear_10115_1331" x1="210.543" y1="26.0998" x2="218.286" y2="32.0318" gradientUnits="userSpaceOnUse">
<stop stop-color="#E26539"/>
<stop offset="0.475248" stop-color="#C84520"/>
<stop offset="1" stop-color="#962B1D"/>
</linearGradient>
<radialGradient id="paint40_radial_10115_1331" cx="0" cy="0" r="1" gradientUnits="userSpaceOnUse" gradientTransform="translate(212.884 28.1257) rotate(127.455) scale(5.44931 4.44254)">
<stop stop-color="#F16A3C"/>
<stop offset="1" stop-color="#F16A3C" stop-opacity="0"/>
</radialGradient>
<linearGradient id="paint41_linear_10115_1331" x1="207.138" y1="30.2602" x2="215.155" y2="36.4015" gradientUnits="userSpaceOnUse">
<stop stop-color="#FEDF91"/>
<stop offset="1" stop-color="#E49122"/>
</linearGradient>
<linearGradient id="paint42_linear_10115_1331" x1="158.202" y1="96.6216" x2="163.821" y2="100.926" gradientUnits="userSpaceOnUse">
<stop stop-color="#FEDF91"/>
<stop offset="1" stop-color="#E49122"/>
</linearGradient>
<radialGradient id="paint43_radial_10115_1331" cx="0" cy="0" r="1" gradientUnits="userSpaceOnUse" gradientTransform="translate(154.783 106.905) rotate(-52.5447) scale(4.84013 7.1415)">
<stop offset="0.144231" stop-color="#CEBAB2" stop-opacity="0"/>
<stop offset="0.25" stop-color="#CEBAB2"/>
</radialGradient>
</defs>
</svg>
