<svg viewBox="0 0 240 120" fill="none" xmlns="http://www.w3.org/2000/svg">
<path d="M208.032 92.6617C208.032 95.6527 210.457 98.0773 213.448 98.0773C216.439 98.0773 218.863 95.6527 218.863 92.6617C218.863 89.6707 216.439 87.2461 213.448 87.2461C210.457 87.2461 208.032 89.6707 208.032 92.6617Z" fill="url(#paint0_radial_8814_30238)"/>
<path d="M209.625 90.644C209.625 91.7583 210.528 92.6616 211.642 92.6616C212.756 92.6616 213.66 91.7583 213.66 90.644C213.66 89.5298 212.756 88.6265 211.642 88.6265C210.528 88.6265 209.625 89.5298 209.625 90.644Z" fill="url(#paint1_linear_8814_30238)"/>
<path d="M205.281 18.0584C205.281 21.0494 207.705 23.4741 210.696 23.4741C213.687 23.4741 216.112 21.0494 216.112 18.0584C216.112 15.0675 213.687 12.6428 210.696 12.6428C207.705 12.6428 205.281 15.0675 205.281 18.0584Z" fill="url(#paint2_radial_8814_30238)"/>
<path d="M206.873 16.0405C206.873 17.1548 207.776 18.0581 208.891 18.0581C210.005 18.0581 210.908 17.1548 210.908 16.0405C210.908 14.9263 210.005 14.0229 208.891 14.0229C207.776 14.0229 206.873 14.9263 206.873 16.0405Z" fill="url(#paint3_linear_8814_30238)"/>
<path d="M56.1863 10.752C56.1863 13.743 58.611 16.1677 61.602 16.1677C64.5929 16.1677 67.0176 13.743 67.0176 10.752C67.0176 7.76108 64.5929 5.33643 61.602 5.33643C58.611 5.33643 56.1863 7.76108 56.1863 10.752Z" fill="url(#paint4_radial_8814_30238)"/>
<path d="M57.7788 8.73438C57.7788 9.84866 58.6821 10.752 59.7964 10.752C60.9107 10.752 61.814 9.84866 61.814 8.73438C61.814 7.6201 60.9107 6.7168 59.7964 6.7168C58.6821 6.7168 57.7788 7.6201 57.7788 8.73438Z" fill="url(#paint5_linear_8814_30238)"/>
<path d="M54.3973 105.379C54.3973 108.37 56.8219 110.794 59.8129 110.794C62.8039 110.794 65.2285 108.37 65.2285 105.379C65.2285 102.388 62.8039 99.9631 59.8129 99.9631C56.8219 99.9631 54.3973 102.388 54.3973 105.379Z" fill="url(#paint6_radial_8814_30238)"/>
<path d="M55.9897 103.361C55.9897 104.475 56.893 105.379 58.0073 105.379C59.1216 105.379 60.0249 104.475 60.0249 103.361C60.0249 102.247 59.1216 101.344 58.0073 101.344C56.893 101.344 55.9897 102.247 55.9897 103.361Z" fill="url(#paint7_linear_8814_30238)"/>
<path d="M50.2691 28.1042L57.6313 25.9925C66.9887 23.3086 76.9802 24.0351 85.8449 28.0274C95.1942 32.2437 102.226 40.373 105.057 50.2423L106.703 55.9803C106.703 55.9803 106.251 55.5368 105.428 54.7984C105.779 55.4237 105.956 55.7742 105.956 55.7742L106.067 56.1626L99.1464 58.1477C95.4741 59.201 91.705 59.384 88.0688 58.7646C87.6474 58.6944 87.4955 58.1647 87.8156 57.8818L91.1354 54.9997C91.3446 54.8633 91.1879 54.5834 90.9584 54.6492L82.9605 56.9432C82.5898 57.0495 82.1961 57.0096 81.8478 56.8611C78.9224 55.5219 76.236 53.6173 73.973 51.19C73.1395 50.2826 71.5913 48.6821 70.7502 47.8151C70.3992 47.4572 70.27 46.9401 70.3956 46.4455L71.6624 41.802C71.7529 41.4512 71.4347 41.1412 71.0992 41.2375L66.4029 42.5845C65.9439 42.7161 65.4316 42.5956 65.0907 42.273C60.4491 37.9484 55.298 33.7126 50.0772 30.4331C49.7768 30.2517 49.557 29.9517 49.4607 29.6163C49.2557 28.9681 49.6335 28.2865 50.2691 28.1042Z" fill="#9077FB"/>
<path d="M50.2691 28.1042L57.6313 25.9925C66.9887 23.3086 76.9802 24.0351 85.8449 28.0274C95.1942 32.2437 102.226 40.373 105.057 50.2423L106.703 55.9803C106.703 55.9803 106.251 55.5368 105.428 54.7984C105.779 55.4237 105.956 55.7742 105.956 55.7742L106.067 56.1626L99.1464 58.1477C95.4741 59.201 91.705 59.384 88.0688 58.7646C87.6474 58.6944 87.4955 58.1647 87.8156 57.8818L91.1354 54.9997C91.3446 54.8633 91.1879 54.5834 90.9584 54.6492L82.9605 56.9432C82.5898 57.0495 82.1961 57.0096 81.8478 56.8611C78.9224 55.5219 76.236 53.6173 73.973 51.19C73.1395 50.2826 71.5913 48.6821 70.7502 47.8151C70.3992 47.4572 70.27 46.9401 70.3956 46.4455L71.6624 41.802C71.7529 41.4512 71.4347 41.1412 71.0992 41.2375L66.4029 42.5845C65.9439 42.7161 65.4316 42.5956 65.0907 42.273C60.4491 37.9484 55.298 33.7126 50.0772 30.4331C49.7768 30.2517 49.557 29.9517 49.4607 29.6163C49.2557 28.9681 49.6335 28.2865 50.2691 28.1042Z" fill="url(#paint8_radial_8814_30238)"/>
<path d="M50.2691 28.1042L57.6313 25.9925C66.9887 23.3086 76.9802 24.0351 85.8449 28.0274C95.1942 32.2437 102.226 40.373 105.057 50.2423L106.703 55.9803C106.703 55.9803 106.251 55.5368 105.428 54.7984C105.779 55.4237 105.956 55.7742 105.956 55.7742L106.067 56.1626L99.1464 58.1477C95.4741 59.201 91.705 59.384 88.0688 58.7646C87.6474 58.6944 87.4955 58.1647 87.8156 57.8818L91.1354 54.9997C91.3446 54.8633 91.1879 54.5834 90.9584 54.6492L82.9605 56.9432C82.5898 57.0495 82.1961 57.0096 81.8478 56.8611C78.9224 55.5219 76.236 53.6173 73.973 51.19C73.1395 50.2826 71.5913 48.6821 70.7502 47.8151C70.3992 47.4572 70.27 46.9401 70.3956 46.4455L71.6624 41.802C71.7529 41.4512 71.4347 41.1412 71.0992 41.2375L66.4029 42.5845C65.9439 42.7161 65.4316 42.5956 65.0907 42.273C60.4491 37.9484 55.298 33.7126 50.0772 30.4331C49.7768 30.2517 49.557 29.9517 49.4607 29.6163C49.2557 28.9681 49.6335 28.2865 50.2691 28.1042Z" fill="url(#paint9_radial_8814_30238)"/>
<path d="M50.2691 28.1042L57.6313 25.9925C66.9887 23.3086 76.9802 24.0351 85.8449 28.0274C95.1942 32.2437 102.226 40.373 105.057 50.2423L106.703 55.9803C106.703 55.9803 106.251 55.5368 105.428 54.7984C105.779 55.4237 105.956 55.7742 105.956 55.7742L106.067 56.1626L99.1464 58.1477C95.4741 59.201 91.705 59.384 88.0688 58.7646C87.6474 58.6944 87.4955 58.1647 87.8156 57.8818L91.1354 54.9997C91.3446 54.8633 91.1879 54.5834 90.9584 54.6492L82.9605 56.9432C82.5898 57.0495 82.1961 57.0096 81.8478 56.8611C78.9224 55.5219 76.236 53.6173 73.973 51.19C73.1395 50.2826 71.5913 48.6821 70.7502 47.8151C70.3992 47.4572 70.27 46.9401 70.3956 46.4455L71.6624 41.802C71.7529 41.4512 71.4347 41.1412 71.0992 41.2375L66.4029 42.5845C65.9439 42.7161 65.4316 42.5956 65.0907 42.273C60.4491 37.9484 55.298 33.7126 50.0772 30.4331C49.7768 30.2517 49.557 29.9517 49.4607 29.6163C49.2557 28.9681 49.6335 28.2865 50.2691 28.1042Z" fill="url(#paint10_linear_8814_30238)"/>
<path d="M50.2691 28.1042L57.6313 25.9925C66.9887 23.3086 76.9802 24.0351 85.8449 28.0274C95.1942 32.2437 102.226 40.373 105.057 50.2423L106.703 55.9803C106.703 55.9803 106.251 55.5368 105.428 54.7984C105.779 55.4237 105.956 55.7742 105.956 55.7742L106.067 56.1626L99.1464 58.1477C95.4741 59.201 91.705 59.384 88.0688 58.7646C87.6474 58.6944 87.4955 58.1647 87.8156 57.8818L91.1354 54.9997C91.3446 54.8633 91.1879 54.5834 90.9584 54.6492L82.9605 56.9432C82.5898 57.0495 82.1961 57.0096 81.8478 56.8611C78.9224 55.5219 76.236 53.6173 73.973 51.19C73.1395 50.2826 71.5913 48.6821 70.7502 47.8151C70.3992 47.4572 70.27 46.9401 70.3956 46.4455L71.6624 41.802C71.7529 41.4512 71.4347 41.1412 71.0992 41.2375L66.4029 42.5845C65.9439 42.7161 65.4316 42.5956 65.0907 42.273C60.4491 37.9484 55.298 33.7126 50.0772 30.4331C49.7768 30.2517 49.557 29.9517 49.4607 29.6163C49.2557 28.9681 49.6335 28.2865 50.2691 28.1042Z" fill="url(#paint11_linear_8814_30238)"/>
<path d="M57.3566 35.6231L71.1101 31.6783L69.0238 24.4043C72.407 24.4084 75.7957 24.8313 79.0966 25.6807L82.611 37.9335L66.3857 42.5872C65.9267 42.7189 65.4144 42.5983 65.0735 42.2757C62.6188 39.9799 60.023 37.7245 57.3566 35.6231Z" fill="url(#paint12_linear_8814_30238)"/>
<path d="M103.825 55.2579C101.058 52.2782 97.6573 49.0956 93.726 46.059C85.5561 39.7485 75.1911 34.1438 63.5875 32.2584C62.8267 32.1348 62.3102 31.4179 62.4338 30.6571C62.5574 29.8963 63.2744 29.3798 64.0351 29.5034C76.2285 31.4846 87.0169 37.35 95.4322 43.8501C100.31 47.6175 104.422 51.6233 107.576 55.2579L103.825 55.2579Z" fill="url(#paint13_linear_8814_30238)"/>
<path d="M103.825 55.2579C101.058 52.2782 97.6573 49.0956 93.726 46.059C85.5561 39.7485 75.1911 34.1438 63.5875 32.2584C62.8267 32.1348 62.3102 31.4179 62.4338 30.6571C62.5574 29.8963 63.2744 29.3798 64.0351 29.5034C76.2285 31.4846 87.0169 37.35 95.4322 43.8501C100.31 47.6175 104.422 51.6233 107.576 55.2579L103.825 55.2579Z" fill="url(#paint14_radial_8814_30238)"/>
<path d="M105.153 55.2578C98.346 47.4211 87.2375 37.9844 69.9866 32.8425C69.7322 32.7667 69.5874 32.4989 69.6632 32.2445C69.7391 31.99 70.0068 31.8452 70.2613 31.921C88.1946 37.2664 99.5778 47.2005 106.42 55.2578L105.153 55.2578Z" fill="url(#paint15_linear_8814_30238)"/>
<path d="M16.7644 77.3479L21.2634 70.7643C26.9815 62.3967 35.4735 56.3416 45.2317 53.653C55.5272 50.8222 66.5647 52.6672 75.3902 58.6982L80.5212 62.2046C80.5212 62.2046 79.8642 62.1493 78.7138 62.1043C79.4108 62.3722 79.7855 62.5356 79.7855 62.5356L80.1328 62.773L75.9036 68.9619C73.6595 72.2457 70.7597 74.8963 67.4333 76.8152C67.0489 77.0389 66.5753 76.7152 66.644 76.2758L67.3906 71.7601C67.4677 71.5117 67.1561 71.3915 67.0159 71.5967L62.1285 78.7487C61.9019 79.0802 61.5598 79.3096 61.182 79.422C57.9472 80.2919 54.5286 80.5497 51.102 80.1073C49.8311 79.9336 47.5268 79.6791 46.2766 79.5427C45.7575 79.4891 45.3104 79.1604 45.0825 78.6804L43.0133 74.1166C42.8528 73.7753 42.3918 73.7382 42.1868 74.0381L39.317 78.2377C39.0365 78.6482 38.5457 78.8919 38.0581 78.8597C31.4645 78.4765 24.5214 78.5029 18.1577 79.3422C17.7964 79.3964 17.4209 79.3019 17.1209 79.0969C16.526 78.7135 16.376 77.9162 16.7644 77.3479Z" fill="#7D5BFC"/>
<path d="M16.7644 77.3479L21.2634 70.7643C26.9815 62.3967 35.4735 56.3416 45.2317 53.653C55.5272 50.8222 66.5647 52.6672 75.3902 58.6982L80.5212 62.2046C80.5212 62.2046 79.8642 62.1493 78.7138 62.1043C79.4108 62.3722 79.7855 62.5356 79.7855 62.5356L80.1328 62.773L75.9036 68.9619C73.6595 72.2457 70.7597 74.8963 67.4333 76.8152C67.0489 77.0389 66.5753 76.7152 66.644 76.2758L67.3906 71.7601C67.4677 71.5117 67.1561 71.3915 67.0159 71.5967L62.1285 78.7487C61.9019 79.0802 61.5598 79.3096 61.182 79.422C57.9472 80.2919 54.5286 80.5497 51.102 80.1073C49.8311 79.9336 47.5268 79.6791 46.2766 79.5427C45.7575 79.4891 45.3104 79.1604 45.0825 78.6804L43.0133 74.1166C42.8528 73.7753 42.3918 73.7382 42.1868 74.0381L39.317 78.2377C39.0365 78.6482 38.5457 78.8919 38.0581 78.8597C31.4645 78.4765 24.5214 78.5029 18.1577 79.3422C17.7964 79.3964 17.4209 79.3019 17.1209 79.0969C16.526 78.7135 16.376 77.9162 16.7644 77.3479Z" fill="url(#paint16_radial_8814_30238)"/>
<path d="M16.7644 77.3479L21.2634 70.7643C26.9815 62.3967 35.4735 56.3416 45.2317 53.653C55.5272 50.8222 66.5647 52.6672 75.3902 58.6982L80.5212 62.2046C80.5212 62.2046 79.8642 62.1493 78.7138 62.1043C79.4108 62.3722 79.7855 62.5356 79.7855 62.5356L80.1328 62.773L75.9036 68.9619C73.6595 72.2457 70.7597 74.8963 67.4333 76.8152C67.0489 77.0389 66.5753 76.7152 66.644 76.2758L67.3906 71.7601C67.4677 71.5117 67.1561 71.3915 67.0159 71.5967L62.1285 78.7487C61.9019 79.0802 61.5598 79.3096 61.182 79.422C57.9472 80.2919 54.5286 80.5497 51.102 80.1073C49.8311 79.9336 47.5268 79.6791 46.2766 79.5427C45.7575 79.4891 45.3104 79.1604 45.0825 78.6804L43.0133 74.1166C42.8528 73.7753 42.3918 73.7382 42.1868 74.0381L39.317 78.2377C39.0365 78.6482 38.5457 78.8919 38.0581 78.8597C31.4645 78.4765 24.5214 78.5029 18.1577 79.3422C17.7964 79.3964 17.4209 79.3019 17.1209 79.0969C16.526 78.7135 16.376 77.9162 16.7644 77.3479Z" fill="url(#paint17_radial_8814_30238)"/>
<path d="M16.7644 77.3479L21.2634 70.7643C26.9815 62.3967 35.4735 56.3416 45.2317 53.653C55.5272 50.8222 66.5647 52.6672 75.3902 58.6982L80.5212 62.2046C80.5212 62.2046 79.8642 62.1493 78.7138 62.1043C79.4108 62.3722 79.7855 62.5356 79.7855 62.5356L80.1328 62.773L75.9036 68.9619C73.6595 72.2457 70.7597 74.8963 67.4333 76.8152C67.0489 77.0389 66.5753 76.7152 66.644 76.2758L67.3906 71.7601C67.4677 71.5117 67.1561 71.3915 67.0159 71.5967L62.1285 78.7487C61.9019 79.0802 61.5598 79.3096 61.182 79.422C57.9472 80.2919 54.5286 80.5497 51.102 80.1073C49.8311 79.9336 47.5268 79.6791 46.2766 79.5427C45.7575 79.4891 45.3104 79.1604 45.0825 78.6804L43.0133 74.1166C42.8528 73.7753 42.3918 73.7382 42.1868 74.0381L39.317 78.2377C39.0365 78.6482 38.5457 78.8919 38.0581 78.8597C31.4645 78.4765 24.5214 78.5029 18.1577 79.3422C17.7964 79.3964 17.4209 79.3019 17.1209 79.0969C16.526 78.7135 16.376 77.9162 16.7644 77.3479Z" fill="url(#paint18_linear_8814_30238)"/>
<path d="M16.7644 77.3479L21.2634 70.7643C26.9815 62.3967 35.4735 56.3416 45.2317 53.653C55.5272 50.8222 66.5647 52.6672 75.3902 58.6982L80.5212 62.2046C80.5212 62.2046 79.8642 62.1493 78.7138 62.1043C79.4108 62.3722 79.7855 62.5356 79.7855 62.5356L80.1328 62.773L75.9036 68.9619C73.6595 72.2457 70.7597 74.8963 67.4333 76.8152C67.0489 77.0389 66.5753 76.7152 66.644 76.2758L67.3906 71.7601C67.4677 71.5117 67.1561 71.3915 67.0159 71.5967L62.1285 78.7487C61.9019 79.0802 61.5598 79.3096 61.182 79.422C57.9472 80.2919 54.5286 80.5497 51.102 80.1073C49.8311 79.9336 47.5268 79.6791 46.2766 79.5427C45.7575 79.4891 45.3104 79.1604 45.0825 78.6804L43.0133 74.1166C42.8528 73.7753 42.3918 73.7382 42.1868 74.0381L39.317 78.2377C39.0365 78.6482 38.5457 78.8919 38.0581 78.8597C31.4645 78.4765 24.5214 78.5029 18.1577 79.3422C17.7964 79.3964 17.4209 79.3019 17.1209 79.0969C16.526 78.7135 16.376 77.9162 16.7644 77.3479Z" fill="url(#paint19_linear_8814_30238)"/>
<path d="M27.4396 78.6669L35.8442 66.3681L29.3396 61.9231C32.0544 59.6789 35.0518 57.7667 38.2621 56.2548L49.2189 63.7423L39.3039 78.2514C39.0234 78.6619 38.5327 78.9056 38.0451 78.8734C34.5522 78.6637 30.973 78.5802 27.4396 78.6669Z" fill="url(#paint20_linear_8814_30238)"/>
<path fill-rule="evenodd" clip-rule="evenodd" d="M28.2598 71.2832C28.65 71.9478 29.5052 72.1703 30.1698 71.78C40.7346 65.5768 52.7768 63.1827 63.5244 62.8138C74.2836 62.4446 83.6225 64.1087 88.7105 65.905C89.4373 66.1616 90.2344 65.7805 90.491 65.0537C90.7476 64.3269 90.3665 63.5297 89.6397 63.2731C84.1693 61.3418 74.4746 59.6452 63.4287 60.0243C52.3711 60.4039 39.8365 62.8674 28.7566 69.3731C28.0919 69.7634 27.8695 70.6185 28.2598 71.2832Z" fill="url(#paint21_linear_8814_30238)"/>
<path fill-rule="evenodd" clip-rule="evenodd" d="M28.2598 71.2832C28.65 71.9478 29.5052 72.1703 30.1698 71.78C40.7346 65.5768 52.7768 63.1827 63.5244 62.8138C74.2836 62.4446 83.6225 64.1087 88.7105 65.905C89.4373 66.1616 90.2344 65.7805 90.491 65.0537C90.7476 64.3269 90.3665 63.5297 89.6397 63.2731C84.1693 61.3418 74.4746 59.6452 63.4287 60.0243C52.3711 60.4039 39.8365 62.8674 28.7566 69.3731C28.0919 69.7634 27.8695 70.6185 28.2598 71.2832Z" fill="url(#paint22_radial_8814_30238)"/>
<path fill-rule="evenodd" clip-rule="evenodd" d="M35.0799 67.7743C35.1838 68.0186 35.4662 68.1324 35.7105 68.0284C59.6508 57.8411 79.6012 62.1501 89.0345 65.0478C89.2884 65.1258 89.5573 64.9832 89.6353 64.7294C89.7133 64.4756 89.5707 64.2066 89.3169 64.1286C79.7672 61.1952 59.5627 56.8336 35.334 67.1437C35.0897 67.2476 34.9759 67.53 35.0799 67.7743Z" fill="url(#paint23_linear_8814_30238)"/>
<path d="M14.9698 52.0274L21.7807 46.1089C30.4372 38.5865 41.468 34.3903 52.9206 34.2421C65.0022 34.0921 76.5566 39.2734 84.4906 48.4036L89.1034 53.7118C89.1034 53.7118 88.3999 53.4631 87.1534 53.0843C87.8397 53.5772 88.2031 53.8635 88.2031 53.8635L88.5154 54.2228L82.1128 59.7865C78.7156 62.7387 74.7819 64.8096 70.5908 65.9576C70.1059 66.0923 69.6801 65.6023 69.8811 65.141L71.9919 60.4114C72.1475 60.1616 71.8408 59.9407 71.6285 60.1252L64.2296 66.5547C63.8867 66.8527 63.4465 67.0059 63.0006 67.0207C59.2103 67.0464 55.394 66.3494 51.7696 64.8836C50.428 64.3294 47.9783 63.3908 46.6488 62.8835C46.0958 62.676 45.7006 62.1882 45.5886 61.5975L44.6306 56.0086C44.5527 55.589 44.0586 55.4163 43.7483 55.686L39.4037 59.4614C38.9791 59.8304 38.372 59.9566 37.8475 59.7817C30.739 57.4735 23.1307 55.5137 15.9238 54.6097C15.5127 54.5656 15.1287 54.3546 14.8591 54.0443C14.3176 53.4542 14.3818 52.5384 14.9698 52.0274Z" fill="#FFD600"/>
<path d="M14.9698 52.0274L21.7807 46.1089C30.4372 38.5865 41.468 34.3903 52.9206 34.2421C65.0022 34.0921 76.5566 39.2734 84.4906 48.4036L89.1034 53.7118C89.1034 53.7118 88.3999 53.4631 87.1534 53.0843C87.8397 53.5772 88.2031 53.8635 88.2031 53.8635L88.5154 54.2228L82.1128 59.7865C78.7156 62.7387 74.7819 64.8096 70.5908 65.9576C70.1059 66.0923 69.6801 65.6023 69.8811 65.141L71.9919 60.4114C72.1475 60.1616 71.8408 59.9407 71.6285 60.1252L64.2296 66.5547C63.8867 66.8527 63.4465 67.0059 63.0006 67.0207C59.2103 67.0464 55.394 66.3494 51.7696 64.8836C50.428 64.3294 47.9783 63.3908 46.6488 62.8835C46.0958 62.676 45.7006 62.1882 45.5886 61.5975L44.6306 56.0086C44.5527 55.589 44.0586 55.4163 43.7483 55.686L39.4037 59.4614C38.9791 59.8304 38.372 59.9566 37.8475 59.7817C30.739 57.4735 23.1307 55.5137 15.9238 54.6097C15.5127 54.5656 15.1287 54.3546 14.8591 54.0443C14.3176 53.4542 14.3818 52.5384 14.9698 52.0274Z" fill="url(#paint24_radial_8814_30238)"/>
<path d="M14.9698 52.0274L21.7807 46.1089C30.4372 38.5865 41.468 34.3903 52.9206 34.2421C65.0022 34.0921 76.5566 39.2734 84.4906 48.4036L89.1034 53.7118C89.1034 53.7118 88.3999 53.4631 87.1534 53.0843C87.8397 53.5772 88.2031 53.8635 88.2031 53.8635L88.5154 54.2228L82.1128 59.7865C78.7156 62.7387 74.7819 64.8096 70.5908 65.9576C70.1059 66.0923 69.6801 65.6023 69.8811 65.141L71.9919 60.4114C72.1475 60.1616 71.8408 59.9407 71.6285 60.1252L64.2296 66.5547C63.8867 66.8527 63.4465 67.0059 63.0006 67.0207C59.2103 67.0464 55.394 66.3494 51.7696 64.8836C50.428 64.3294 47.9783 63.3908 46.6488 62.8835C46.0958 62.676 45.7006 62.1882 45.5886 61.5975L44.6306 56.0086C44.5527 55.589 44.0586 55.4163 43.7483 55.686L39.4037 59.4614C38.9791 59.8304 38.372 59.9566 37.8475 59.7817C30.739 57.4735 23.1307 55.5137 15.9238 54.6097C15.5127 54.5656 15.1287 54.3546 14.8591 54.0443C14.3176 53.4542 14.3818 52.5384 14.9698 52.0274Z" fill="url(#paint25_radial_8814_30238)"/>
<path d="M14.9698 52.0274L21.7807 46.1089C30.4372 38.5865 41.468 34.3903 52.9206 34.2421C65.0022 34.0921 76.5566 39.2734 84.4906 48.4036L89.1034 53.7118C89.1034 53.7118 88.3999 53.4631 87.1534 53.0843C87.8397 53.5772 88.2031 53.8635 88.2031 53.8635L88.5154 54.2228L82.1128 59.7865C78.7156 62.7387 74.7819 64.8096 70.5908 65.9576C70.1059 66.0923 69.6801 65.6023 69.8811 65.141L71.9919 60.4114C72.1475 60.1616 71.8408 59.9407 71.6285 60.1252L64.2296 66.5547C63.8867 66.8527 63.4465 67.0059 63.0006 67.0207C59.2103 67.0464 55.394 66.3494 51.7696 64.8836C50.428 64.3294 47.9783 63.3908 46.6488 62.8835C46.0958 62.676 45.7006 62.1882 45.5886 61.5975L44.6306 56.0086C44.5527 55.589 44.0586 55.4163 43.7483 55.686L39.4037 59.4614C38.9791 59.8304 38.372 59.9566 37.8475 59.7817C30.739 57.4735 23.1307 55.5137 15.9238 54.6097C15.5127 54.5656 15.1287 54.3546 14.8591 54.0443C14.3176 53.4542 14.3818 52.5384 14.9698 52.0274Z" fill="url(#paint26_linear_8814_30238)"/>
<path d="M14.9698 52.0274L21.7807 46.1089C30.4372 38.5865 41.468 34.3903 52.9206 34.2421C65.0022 34.0921 76.5566 39.2734 84.4906 48.4036L89.1034 53.7118C89.1034 53.7118 88.3999 53.4631 87.1534 53.0843C87.8397 53.5772 88.2031 53.8635 88.2031 53.8635L88.5154 54.2228L82.1128 59.7865C78.7156 62.7387 74.7819 64.8096 70.5908 65.9576C70.1059 66.0923 69.6801 65.6023 69.8811 65.141L71.9919 60.4114C72.1475 60.1616 71.8408 59.9407 71.6285 60.1252L64.2296 66.5547C63.8867 66.8527 63.4465 67.0059 63.0006 67.0207C59.2103 67.0464 55.394 66.3494 51.7696 64.8836C50.428 64.3294 47.9783 63.3908 46.6488 62.8835C46.0958 62.676 45.7006 62.1882 45.5886 61.5975L44.6306 56.0086C44.5527 55.589 44.0586 55.4163 43.7483 55.686L39.4037 59.4614C38.9791 59.8304 38.372 59.9566 37.8475 59.7817C30.739 57.4735 23.1307 55.5137 15.9238 54.6097C15.5127 54.5656 15.1287 54.3546 14.8591 54.0443C14.3176 53.4542 14.3818 52.5384 14.9698 52.0274Z" fill="url(#paint27_linear_8814_30238)"/>
<path d="M26.2796 56.5326L39.003 45.4762L33.1555 38.747C36.7703 37.0678 40.5993 35.8331 44.5467 35.0975L54.3968 46.4326L39.3867 59.4761C38.962 59.8451 38.355 59.9713 37.8304 59.7964C34.0668 58.5663 30.1725 57.4497 26.2796 56.5326Z" fill="url(#paint28_linear_8814_30238)"/>
<path fill-rule="evenodd" clip-rule="evenodd" d="M29.1621 48.7165C29.4192 49.6277 30.3664 50.158 31.2777 49.9009C44.5921 46.144 58.4369 46.9697 70.2935 49.641C82.1641 52.3155 91.8946 56.8064 96.9337 60.2192C97.7177 60.7502 98.7837 60.545 99.3146 59.7611C99.8456 58.9771 99.6405 57.9111 98.8565 57.3802C93.4049 53.688 83.2615 49.0479 71.0471 46.296C58.8187 43.5409 44.3674 42.6447 30.3466 46.6009C29.4353 46.858 28.905 47.8052 29.1621 48.7165Z" fill="url(#paint29_linear_8814_30238)"/>
<path fill-rule="evenodd" clip-rule="evenodd" d="M29.1621 48.7165C29.4192 49.6277 30.3664 50.158 31.2777 49.9009C44.5921 46.144 58.4369 46.9697 70.2935 49.641C82.1641 52.3155 91.8946 56.8064 96.9337 60.2192C97.7177 60.7502 98.7837 60.545 99.3146 59.7611C99.8456 58.9771 99.6405 57.9111 98.8565 57.3802C93.4049 53.688 83.2615 49.0479 71.0471 46.296C58.8187 43.5409 44.3674 42.6447 30.3466 46.6009C29.4353 46.858 28.905 47.8052 29.1621 48.7165Z" fill="url(#paint30_radial_8814_30238)"/>
<path fill-rule="evenodd" clip-rule="evenodd" d="M37.715 46.8012C37.7626 47.1239 38.0628 47.3469 38.3855 47.2994C67.4965 43.0066 88.0912 53.4326 97.583 59.3037C97.8604 59.4753 98.2244 59.3895 98.396 59.1121C98.5676 58.8346 98.4818 58.4706 98.2044 58.2991C88.5854 52.3494 67.7051 41.7818 38.2132 46.1307C37.8905 46.1783 37.6674 46.4785 37.715 46.8012Z" fill="url(#paint31_linear_8814_30238)"/>
<path fill-rule="evenodd" clip-rule="evenodd" d="M170.691 22.9224C176.999 22.49 183.525 22.0428 192.886 18.7544C201.015 53.9219 192.05 80.8837 172.905 87.6092C153.831 94.3098 148.753 80.0818 136.544 84.252C124.339 88.61 129.319 102.921 110.216 109.632C91.0704 116.357 67.2131 100.925 51.5625 68.4001C60.9235 65.1117 66.2951 61.3796 71.4882 57.7716C83.6137 49.3469 97.1319 44.1894 112.078 44.6526C115.569 44.7608 118.512 44.8521 122.188 43.5898C125.889 42.2752 128.14 40.353 130.814 38.0706C142.187 28.3617 155.96 23.9319 170.691 22.9224ZM138.303 68.6948C138.128 42.1333 164.554 44.5957 175.95 39.0264C173.487 73.5157 156.717 67.2765 138.303 68.6948ZM125.385 73.2327C108.91 52.3974 89.8303 70.8453 77.4549 73.6266C100.946 98.9987 110.13 83.6422 125.385 73.2327Z" fill="url(#paint32_radial_8814_30238)"/>
<path fill-rule="evenodd" clip-rule="evenodd" d="M170.691 22.9224C176.999 22.49 183.525 22.0428 192.886 18.7544C201.015 53.9219 192.05 80.8837 172.905 87.6092C153.831 94.3098 148.753 80.0818 136.544 84.252C124.339 88.61 129.319 102.921 110.216 109.632C91.0704 116.357 67.2131 100.925 51.5625 68.4001C60.9235 65.1117 66.2951 61.3796 71.4882 57.7716C83.6137 49.3469 97.1319 44.1894 112.078 44.6526C115.569 44.7608 118.512 44.8521 122.188 43.5898C125.889 42.2752 128.14 40.353 130.814 38.0706C142.187 28.3617 155.96 23.9319 170.691 22.9224ZM138.303 68.6948C138.128 42.1333 164.554 44.5957 175.95 39.0264C173.487 73.5157 156.717 67.2765 138.303 68.6948ZM125.385 73.2327C108.91 52.3974 89.8303 70.8453 77.4549 73.6266C100.946 98.9987 110.13 83.6422 125.385 73.2327Z" fill="url(#paint33_radial_8814_30238)"/>
<path fill-rule="evenodd" clip-rule="evenodd" d="M170.691 22.9224C176.999 22.49 183.525 22.0428 192.886 18.7544C201.015 53.9219 192.05 80.8837 172.905 87.6092C153.831 94.3098 148.753 80.0818 136.544 84.252C124.339 88.61 129.319 102.921 110.216 109.632C91.0704 116.357 67.2131 100.925 51.5625 68.4001C60.9235 65.1117 66.2951 61.3796 71.4882 57.7716C83.6137 49.3469 97.1319 44.1894 112.078 44.6526C115.569 44.7608 118.512 44.8521 122.188 43.5898C125.889 42.2752 128.14 40.353 130.814 38.0706C142.187 28.3617 155.96 23.9319 170.691 22.9224ZM138.303 68.6948C138.128 42.1333 164.554 44.5957 175.95 39.0264C173.487 73.5157 156.717 67.2765 138.303 68.6948ZM125.385 73.2327C108.91 52.3974 89.8303 70.8453 77.4549 73.6266C100.946 98.9987 110.13 83.6422 125.385 73.2327Z" fill="url(#paint34_radial_8814_30238)"/>
<path fill-rule="evenodd" clip-rule="evenodd" d="M170.691 22.9224C176.999 22.49 183.525 22.0428 192.886 18.7544C201.015 53.9219 192.05 80.8837 172.905 87.6092C153.831 94.3098 148.753 80.0818 136.544 84.252C124.339 88.61 129.319 102.921 110.216 109.632C91.0704 116.357 67.2131 100.925 51.5625 68.4001C60.9235 65.1117 66.2951 61.3796 71.4882 57.7716C83.6137 49.3469 97.1319 44.1894 112.078 44.6526C115.569 44.7608 118.512 44.8521 122.188 43.5898C125.889 42.2752 128.14 40.353 130.814 38.0706C142.187 28.3617 155.96 23.9319 170.691 22.9224ZM138.303 68.6948C138.128 42.1333 164.554 44.5957 175.95 39.0264C173.487 73.5157 156.717 67.2765 138.303 68.6948ZM125.385 73.2327C108.91 52.3974 89.8303 70.8453 77.4549 73.6266C100.946 98.9987 110.13 83.6422 125.385 73.2327Z" fill="url(#paint35_radial_8814_30238)"/>
<path fill-rule="evenodd" clip-rule="evenodd" d="M170.691 22.9224C176.999 22.49 183.525 22.0428 192.886 18.7544C201.015 53.9219 192.05 80.8837 172.905 87.6092C153.831 94.3098 148.753 80.0818 136.544 84.252C124.339 88.61 129.319 102.921 110.216 109.632C91.0704 116.357 67.2131 100.925 51.5625 68.4001C60.9235 65.1117 66.2951 61.3796 71.4882 57.7716C83.6137 49.3469 97.1319 44.1894 112.078 44.6526C115.569 44.7608 118.512 44.8521 122.188 43.5898C125.889 42.2752 128.14 40.353 130.814 38.0706C142.187 28.3617 155.96 23.9319 170.691 22.9224ZM138.303 68.6948C138.128 42.1333 164.554 44.5957 175.95 39.0264C173.487 73.5157 156.717 67.2765 138.303 68.6948ZM125.385 73.2327C108.91 52.3974 89.8303 70.8453 77.4549 73.6266C100.946 98.9987 110.13 83.6422 125.385 73.2327Z" fill="url(#paint36_radial_8814_30238)"/>
<path d="M186.282 90.1495C186.282 93.5128 189.008 96.2393 192.372 96.2393C195.735 96.2393 198.461 93.5128 198.461 90.1495C198.461 86.7861 195.735 84.0596 192.372 84.0596C189.008 84.0596 186.282 86.7861 186.282 90.1495Z" fill="url(#paint37_radial_8814_30238)"/>
<path d="M188.071 87.8799C188.071 89.1329 189.087 90.1486 190.34 90.1486C191.593 90.1486 192.609 89.1329 192.609 87.8799C192.609 86.6269 191.593 85.6111 190.34 85.6111C189.087 85.6111 188.071 86.6269 188.071 87.8799Z" fill="url(#paint38_linear_8814_30238)"/>
<path d="M200.322 43.4163C200.322 46.7796 203.048 49.5062 206.412 49.5062C209.775 49.5062 212.501 46.7796 212.501 43.4163C212.501 40.0529 209.775 37.3264 206.412 37.3264C203.048 37.3264 200.322 40.0529 200.322 43.4163Z" fill="url(#paint39_radial_8814_30238)"/>
<path d="M202.114 41.147C202.114 42.4 203.13 43.4157 204.383 43.4157C205.636 43.4157 206.651 42.4 206.651 41.147C206.651 39.8939 205.636 38.8782 204.383 38.8782C203.13 38.8782 202.114 39.8939 202.114 41.147Z" fill="url(#paint40_linear_8814_30238)"/>
<path d="M28.9867 21.3579C28.9867 24.7213 31.7133 27.4478 35.0766 27.4478C38.44 27.4478 41.1665 24.7213 41.1665 21.3579C41.1665 17.9946 38.44 15.2681 35.0766 15.2681C31.7133 15.2681 28.9867 17.9946 28.9867 21.3579Z" fill="url(#paint41_radial_8814_30238)"/>
<path d="M30.7764 19.0896C30.7764 20.3426 31.7922 21.3584 33.0452 21.3584C34.2982 21.3584 35.314 20.3426 35.314 19.0896C35.314 17.8366 34.2982 16.8208 33.0452 16.8208C31.7922 16.8208 30.7764 17.8366 30.7764 19.0896Z" fill="url(#paint42_linear_8814_30238)"/>
<path d="M109.394 21.8508C109.394 25.4864 112.342 28.4336 115.977 28.4336C119.613 28.4336 122.56 25.4864 122.56 21.8508C122.56 18.2153 119.613 15.2681 115.977 15.2681C112.342 15.2681 109.394 18.2153 109.394 21.8508Z" fill="url(#paint43_radial_8814_30238)"/>
<path d="M111.332 19.3994C111.332 20.7539 112.429 21.8518 113.784 21.8518C115.138 21.8518 116.236 20.7539 116.236 19.3994C116.236 18.045 115.138 16.947 113.784 16.947C112.429 16.947 111.332 18.045 111.332 19.3994Z" fill="url(#paint44_linear_8814_30238)"/>
<path d="M40.8251 92.3377C40.8251 95.701 43.5517 98.4276 46.915 98.4276C50.2783 98.4276 53.0049 95.701 53.0049 92.3377C53.0049 88.9743 50.2783 86.2478 46.915 86.2478C43.5517 86.2478 40.8251 88.9743 40.8251 92.3377Z" fill="url(#paint45_radial_8814_30238)"/>
<path d="M42.6167 90.0693C42.6167 91.3223 43.6325 92.3381 44.8855 92.3381C46.1385 92.3381 47.1543 91.3223 47.1543 90.0693C47.1543 88.8163 46.1385 87.8005 44.8855 87.8005C43.6325 87.8005 42.6167 88.8163 42.6167 90.0693Z" fill="url(#paint46_linear_8814_30238)"/>
<path d="M140.462 15.2688C140.462 18.3694 142.976 20.883 146.076 20.883C149.177 20.883 151.69 18.3694 151.69 15.2688C151.69 12.1681 149.177 9.65454 146.076 9.65454C142.976 9.65454 140.462 12.1681 140.462 15.2688Z" fill="url(#paint47_radial_8814_30238)"/>
<path d="M142.112 13.1792C142.112 14.3344 143.048 15.2708 144.203 15.2708C145.358 15.2708 146.295 14.3344 146.295 13.1792C146.295 12.0241 145.358 11.0876 144.203 11.0876C143.048 11.0876 142.112 12.0241 142.112 13.1792Z" fill="url(#paint48_linear_8814_30238)"/>
<path d="M22.7784 94.7151C22.7784 97.8157 25.292 100.329 28.3926 100.329C31.4933 100.329 34.0068 97.8157 34.0068 94.7151C34.0068 91.6144 31.4933 89.1008 28.3926 89.1008C25.292 89.1008 22.7784 91.6144 22.7784 94.7151Z" fill="url(#paint49_radial_8814_30238)"/>
<path d="M24.4287 92.6245C24.4287 93.7797 25.3651 94.7161 26.5202 94.7161C27.6754 94.7161 28.6118 93.7797 28.6118 92.6245C28.6118 91.4694 27.6754 90.533 26.5202 90.533C25.3651 90.533 24.4287 91.4694 24.4287 92.6245Z" fill="url(#paint50_linear_8814_30238)"/>
<path d="M166.838 104.144C166.838 107.245 169.352 109.758 172.452 109.758C175.553 109.758 178.066 107.245 178.066 104.144C178.066 101.043 175.553 98.5298 172.452 98.5298C169.352 98.5298 166.838 101.043 166.838 104.144Z" fill="url(#paint51_radial_8814_30238)"/>
<path d="M168.49 102.055C168.49 103.21 169.427 104.146 170.582 104.146C171.737 104.146 172.673 103.21 172.673 102.055C172.673 100.9 171.737 99.9631 170.582 99.9631C169.427 99.9631 168.49 100.9 168.49 102.055Z" fill="url(#paint52_linear_8814_30238)"/>
<defs>
<radialGradient id="paint0_radial_8814_30238" cx="0" cy="0" r="1" gradientUnits="userSpaceOnUse" gradientTransform="translate(211.793 91.1574) rotate(48.9183) scale(7.7834)">
<stop stop-color="#EE86FF"/>
<stop offset="0.661458" stop-color="#934DEB"/>
<stop offset="0.885417" stop-color="#8435D2"/>
<stop offset="1" stop-color="#DA5CEF"/>
</radialGradient>
<linearGradient id="paint1_linear_8814_30238" x1="210.633" y1="89.1043" x2="213.049" y2="91.5201" gradientUnits="userSpaceOnUse">
<stop stop-color="white"/>
<stop offset="1" stop-color="white" stop-opacity="0"/>
</linearGradient>
<radialGradient id="paint2_radial_8814_30238" cx="0" cy="0" r="1" gradientUnits="userSpaceOnUse" gradientTransform="translate(209.041 16.5541) rotate(48.9183) scale(7.7834)">
<stop stop-color="#EE86FF"/>
<stop offset="0.661458" stop-color="#934DEB"/>
<stop offset="0.885417" stop-color="#8435D2"/>
<stop offset="1" stop-color="#DA5CEF"/>
</radialGradient>
<linearGradient id="paint3_linear_8814_30238" x1="207.882" y1="14.5008" x2="210.298" y2="16.9166" gradientUnits="userSpaceOnUse">
<stop stop-color="white"/>
<stop offset="1" stop-color="white" stop-opacity="0"/>
</linearGradient>
<radialGradient id="paint4_radial_8814_30238" cx="0" cy="0" r="1" gradientUnits="userSpaceOnUse" gradientTransform="translate(59.9472 9.2477) rotate(48.9183) scale(7.7834)">
<stop stop-color="#EE86FF"/>
<stop offset="0.661458" stop-color="#934DEB"/>
<stop offset="0.885417" stop-color="#8435D2"/>
<stop offset="1" stop-color="#DA5CEF"/>
</radialGradient>
<linearGradient id="paint5_linear_8814_30238" x1="58.7876" y1="7.19465" x2="61.2034" y2="9.61043" gradientUnits="userSpaceOnUse">
<stop stop-color="white"/>
<stop offset="1" stop-color="white" stop-opacity="0"/>
</linearGradient>
<radialGradient id="paint6_radial_8814_30238" cx="0" cy="0" r="1" gradientUnits="userSpaceOnUse" gradientTransform="translate(58.1581 103.874) rotate(48.9183) scale(7.7834)">
<stop stop-color="#EE86FF"/>
<stop offset="0.661458" stop-color="#934DEB"/>
<stop offset="0.885417" stop-color="#8435D2"/>
<stop offset="1" stop-color="#DA5CEF"/>
</radialGradient>
<linearGradient id="paint7_linear_8814_30238" x1="56.9985" y1="101.821" x2="59.4143" y2="104.237" gradientUnits="userSpaceOnUse">
<stop stop-color="white"/>
<stop offset="1" stop-color="white" stop-opacity="0"/>
</linearGradient>
<radialGradient id="paint8_radial_8814_30238" cx="0" cy="0" r="1" gradientUnits="userSpaceOnUse" gradientTransform="translate(83.7507 62.5635) rotate(-77.6172) scale(22.3077 112.91)">
<stop stop-color="white" stop-opacity="0.5"/>
<stop offset="1" stop-color="white" stop-opacity="0"/>
</radialGradient>
<radialGradient id="paint9_radial_8814_30238" cx="0" cy="0" r="1" gradientUnits="userSpaceOnUse" gradientTransform="translate(74.4572 59.9792) rotate(-52.6254) scale(31.7526 58.2213)">
<stop offset="0.685432" stop-color="#CA04FF" stop-opacity="0"/>
<stop offset="1" stop-color="#CA04FF" stop-opacity="0.2"/>
</radialGradient>
<linearGradient id="paint10_linear_8814_30238" x1="53.6531" y1="23.6703" x2="74.2082" y2="32.4638" gradientUnits="userSpaceOnUse">
<stop stop-color="#DB00F1" stop-opacity="0.5"/>
<stop offset="1" stop-color="#DB00F1" stop-opacity="0"/>
</linearGradient>
<linearGradient id="paint11_linear_8814_30238" x1="85.6597" y1="32.0447" x2="76.3141" y2="43.331" gradientUnits="userSpaceOnUse">
<stop stop-color="#C300D6" stop-opacity="0"/>
<stop offset="0.383809" stop-color="#C300D6" stop-opacity="0.2"/>
<stop offset="0.819646" stop-color="#C300D6" stop-opacity="0"/>
</linearGradient>
<linearGradient id="paint12_linear_8814_30238" x1="81.8149" y1="38.1618" x2="63.2032" y2="33.2296" gradientUnits="userSpaceOnUse">
<stop stop-color="#7800B3"/>
<stop offset="1" stop-color="#C76FFF"/>
</linearGradient>
<linearGradient id="paint13_linear_8814_30238" x1="78.3824" y1="35.2705" x2="116.254" y2="58.2031" gradientUnits="userSpaceOnUse">
<stop offset="0.00558659" stop-color="#530193"/>
<stop offset="1" stop-color="#BF59D9"/>
</linearGradient>
<radialGradient id="paint14_radial_8814_30238" cx="0" cy="0" r="1" gradientUnits="userSpaceOnUse" gradientTransform="translate(62.0716 30.2715) rotate(30.9051) scale(2.66027 2.34084)">
<stop stop-color="white" stop-opacity="0.4"/>
<stop offset="1" stop-color="white" stop-opacity="0"/>
</radialGradient>
<linearGradient id="paint15_linear_8814_30238" x1="107.462" y1="62.2173" x2="72.2551" y2="34.8164" gradientUnits="userSpaceOnUse">
<stop stop-color="#F8D988" stop-opacity="0"/>
<stop offset="0.580647" stop-color="#F8D988" stop-opacity="0.3"/>
<stop offset="1" stop-color="#F8D988" stop-opacity="0"/>
</linearGradient>
<radialGradient id="paint16_radial_8814_30238" cx="0" cy="0" r="1" gradientUnits="userSpaceOnUse" gradientTransform="translate(66.4955 82.7291) rotate(-117.266) scale(23.2247 117.551)">
<stop stop-color="white" stop-opacity="0.5"/>
<stop offset="1" stop-color="white" stop-opacity="0"/>
</radialGradient>
<radialGradient id="paint17_radial_8814_30238" cx="0" cy="0" r="1" gradientUnits="userSpaceOnUse" gradientTransform="translate(57.3289 86.8312) rotate(-92.2741) scale(33.0578 60.6145)">
<stop offset="0.685432" stop-color="#BC00EA" stop-opacity="0"/>
<stop offset="1" stop-color="#BC00EA" stop-opacity="0.2"/>
</radialGradient>
<linearGradient id="paint18_linear_8814_30238" x1="16.5317" y1="71.5455" x2="38.8506" y2="64.9396" gradientUnits="userSpaceOnUse">
<stop stop-color="#C800D8" stop-opacity="0.5"/>
<stop offset="1" stop-color="#C800D8" stop-opacity="0"/>
</linearGradient>
<linearGradient id="paint19_linear_8814_30238" x1="47.752" y1="56.9965" x2="47.758" y2="72.2521" gradientUnits="userSpaceOnUse">
<stop stop-color="#AF00BD" stop-opacity="0"/>
<stop offset="0.383809" stop-color="#AF00BD" stop-opacity="0.2"/>
<stop offset="0.819646" stop-color="#AF00BD" stop-opacity="0"/>
</linearGradient>
<linearGradient id="paint20_linear_8814_30238" x1="48.7324" y1="64.4542" x2="30.5364" y2="72.8643" gradientUnits="userSpaceOnUse">
<stop stop-color="#6A009A"/>
<stop offset="1" stop-color="#C055FF"/>
</linearGradient>
<linearGradient id="paint21_linear_8814_30238" x1="44.0599" y1="64.4156" x2="89.6527" y2="57.6406" gradientUnits="userSpaceOnUse">
<stop offset="0.00558659" stop-color="#3A00B2"/>
<stop offset="1" stop-color="#B163ED"/>
</linearGradient>
<radialGradient id="paint22_radial_8814_30238" cx="0" cy="0" r="1" gradientUnits="userSpaceOnUse" gradientTransform="translate(27.664 71.2436) rotate(-8.7436) scale(2.76962 2.43706)">
<stop stop-color="white" stop-opacity="0.4"/>
<stop offset="1" stop-color="white" stop-opacity="0"/>
</radialGradient>
<linearGradient id="paint23_linear_8814_30238" x1="85.273" y1="66.6982" x2="38.8476" y2="68.1214" gradientUnits="userSpaceOnUse">
<stop stop-color="#FFCEA0" stop-opacity="0"/>
<stop offset="0.580647" stop-color="#FFCE9F" stop-opacity="0.3"/>
<stop offset="1" stop-color="#FFCEA0" stop-opacity="0"/>
</linearGradient>
<radialGradient id="paint24_radial_8814_30238" cx="0" cy="0" r="1" gradientUnits="userSpaceOnUse" gradientTransform="translate(67.8702 72.1631) rotate(-102.603) scale(26.2805 133.018)">
<stop stop-color="white" stop-opacity="0.5"/>
<stop offset="1" stop-color="white" stop-opacity="0"/>
</radialGradient>
<radialGradient id="paint25_radial_8814_30238" cx="0" cy="0" r="1" gradientUnits="userSpaceOnUse" gradientTransform="translate(56.6603 74.0281) rotate(-77.6114) scale(37.4074 68.5898)">
<stop offset="0.685432" stop-color="#CB7A00" stop-opacity="0"/>
<stop offset="1" stop-color="#CB7A00" stop-opacity="0.4"/>
</radialGradient>
<linearGradient id="paint26_linear_8814_30238" x1="16.377" y1="45.6088" x2="42.7022" y2="44.77" gradientUnits="userSpaceOnUse">
<stop stop-color="#FF9900" stop-opacity="0.5"/>
<stop offset="1" stop-color="#FF9900" stop-opacity="0"/>
</linearGradient>
<linearGradient id="paint27_linear_8814_30238" x1="54.7219" y1="38.6241" x2="50.3587" y2="55.3265" gradientUnits="userSpaceOnUse">
<stop stop-color="#CB7A00" stop-opacity="0"/>
<stop offset="0.383809" stop-color="#CB7A00" stop-opacity="0.2"/>
<stop offset="0.819646" stop-color="#CB7A00" stop-opacity="0"/>
</linearGradient>
<linearGradient id="paint28_linear_8814_30238" x1="53.6603" y1="47.0726" x2="31.3317" y2="51.0674" gradientUnits="userSpaceOnUse">
<stop stop-color="#D29801"/>
<stop offset="1" stop-color="#F1AF05"/>
</linearGradient>
<linearGradient id="paint29_linear_8814_30238" x1="48.5562" y1="45.6873" x2="100.408" y2="51.3298" gradientUnits="userSpaceOnUse">
<stop offset="0.00558659" stop-color="#B48306"/>
<stop offset="1" stop-color="#D98E59"/>
</linearGradient>
<radialGradient id="paint30_radial_8814_30238" cx="0" cy="0" r="1" gradientUnits="userSpaceOnUse" gradientTransform="translate(28.6514 48.4657) rotate(5.91907) scale(3.13403 2.75772)">
<stop stop-color="white" stop-opacity="0.4"/>
<stop offset="1" stop-color="white" stop-opacity="0"/>
</radialGradient>
<linearGradient id="paint31_linear_8814_30238" x1="93.017" y1="59.9933" x2="41.7863" y2="48.2536" gradientUnits="userSpaceOnUse">
<stop stop-color="#F8D988" stop-opacity="0"/>
<stop offset="0.580647" stop-color="#F8D988" stop-opacity="0.3"/>
<stop offset="1" stop-color="#F8D988" stop-opacity="0"/>
</linearGradient>
<radialGradient id="paint32_radial_8814_30238" cx="0" cy="0" r="1" gradientUnits="userSpaceOnUse" gradientTransform="translate(98.797 18.7544) rotate(30.4237) scale(105.375 121.639)">
<stop stop-color="#97F203"/>
<stop offset="1" stop-color="#02B94B"/>
</radialGradient>
<radialGradient id="paint33_radial_8814_30238" cx="0" cy="0" r="1" gradientUnits="userSpaceOnUse" gradientTransform="translate(139.326 103.125) rotate(61.5258) scale(29.042 24.3488)">
<stop offset="0.361598" stop-color="#007255" stop-opacity="0.6"/>
<stop offset="1" stop-color="#007255" stop-opacity="0"/>
</radialGradient>
<radialGradient id="paint34_radial_8814_30238" cx="0" cy="0" r="1" gradientUnits="userSpaceOnUse" gradientTransform="translate(156.057 54.6633) rotate(-120.774) scale(14.9402 26.8046)">
<stop offset="0.523445" stop-color="#007255" stop-opacity="0.6"/>
<stop offset="1" stop-color="#007255" stop-opacity="0"/>
</radialGradient>
<radialGradient id="paint35_radial_8814_30238" cx="0" cy="0" r="1" gradientUnits="userSpaceOnUse" gradientTransform="translate(99.3739 73.1249) rotate(-96.7456) scale(13.507 25.7834)">
<stop offset="0.435462" stop-color="#007255" stop-opacity="0.6"/>
<stop offset="1" stop-color="#007255" stop-opacity="0"/>
</radialGradient>
<radialGradient id="paint36_radial_8814_30238" cx="0" cy="0" r="1" gradientUnits="userSpaceOnUse" gradientTransform="translate(109.903 38.9422) rotate(114.954) scale(87.1766 102.097)">
<stop offset="0.757055" stop-color="#007255" stop-opacity="0"/>
<stop offset="1" stop-color="#007255" stop-opacity="0.8"/>
</radialGradient>
<radialGradient id="paint37_radial_8814_30238" cx="0" cy="0" r="1" gradientUnits="userSpaceOnUse" gradientTransform="translate(190.511 88.4578) rotate(48.9183) scale(8.75247)">
<stop stop-color="#F9EB6C"/>
<stop offset="0.661458" stop-color="#DEAA24"/>
<stop offset="0.885417" stop-color="#B8920A"/>
<stop offset="1" stop-color="#D6A90A"/>
</radialGradient>
<linearGradient id="paint38_linear_8814_30238" x1="189.206" y1="86.1484" x2="191.922" y2="88.865" gradientUnits="userSpaceOnUse">
<stop stop-color="white"/>
<stop offset="1" stop-color="white" stop-opacity="0"/>
</linearGradient>
<radialGradient id="paint39_radial_8814_30238" cx="0" cy="0" r="1" gradientUnits="userSpaceOnUse" gradientTransform="translate(204.551 41.7247) rotate(48.9183) scale(8.75247)">
<stop stop-color="#F9EB6C"/>
<stop offset="0.661458" stop-color="#DEAA24"/>
<stop offset="0.885417" stop-color="#B8920A"/>
<stop offset="1" stop-color="#D6A90A"/>
</radialGradient>
<linearGradient id="paint40_linear_8814_30238" x1="203.248" y1="39.4155" x2="205.965" y2="42.1321" gradientUnits="userSpaceOnUse">
<stop stop-color="white"/>
<stop offset="1" stop-color="white" stop-opacity="0"/>
</linearGradient>
<radialGradient id="paint41_radial_8814_30238" cx="0" cy="0" r="1" gradientUnits="userSpaceOnUse" gradientTransform="translate(33.2158 19.6663) rotate(48.9183) scale(8.75247)">
<stop stop-color="#F9EB6C"/>
<stop offset="0.661458" stop-color="#DEAA24"/>
<stop offset="0.885417" stop-color="#B8920A"/>
<stop offset="1" stop-color="#D6A90A"/>
</radialGradient>
<linearGradient id="paint42_linear_8814_30238" x1="31.9108" y1="17.3581" x2="34.6274" y2="20.0747" gradientUnits="userSpaceOnUse">
<stop stop-color="white"/>
<stop offset="1" stop-color="white" stop-opacity="0"/>
</linearGradient>
<radialGradient id="paint43_radial_8814_30238" cx="0" cy="0" r="1" gradientUnits="userSpaceOnUse" gradientTransform="translate(113.966 20.0223) rotate(48.9183) scale(9.46087)">
<stop stop-color="#F9EB6C"/>
<stop offset="0.661458" stop-color="#DEAA24"/>
<stop offset="0.885417" stop-color="#B8920A"/>
<stop offset="1" stop-color="#D6A90A"/>
</radialGradient>
<linearGradient id="paint44_linear_8814_30238" x1="112.558" y1="17.5279" x2="115.494" y2="20.4643" gradientUnits="userSpaceOnUse">
<stop stop-color="white"/>
<stop offset="1" stop-color="white" stop-opacity="0"/>
</linearGradient>
<radialGradient id="paint45_radial_8814_30238" cx="0" cy="0" r="1" gradientUnits="userSpaceOnUse" gradientTransform="translate(45.0542 90.6461) rotate(48.9183) scale(8.75247)">
<stop stop-color="#F9EB6C"/>
<stop offset="0.661458" stop-color="#DEAA24"/>
<stop offset="0.885417" stop-color="#B8920A"/>
<stop offset="1" stop-color="#D6A90A"/>
</radialGradient>
<linearGradient id="paint46_linear_8814_30238" x1="43.7511" y1="88.3379" x2="46.4677" y2="91.0544" gradientUnits="userSpaceOnUse">
<stop stop-color="white"/>
<stop offset="1" stop-color="white" stop-opacity="0"/>
</linearGradient>
<radialGradient id="paint47_radial_8814_30238" cx="0" cy="0" r="1" gradientUnits="userSpaceOnUse" gradientTransform="translate(144.361 13.7093) rotate(48.9183) scale(8.06885)">
<stop stop-color="#4EFF22"/>
<stop offset="0.661458" stop-color="#02BC63"/>
<stop offset="0.885417" stop-color="#00AE31"/>
<stop offset="1" stop-color="#0ADD39"/>
</radialGradient>
<linearGradient id="paint48_linear_8814_30238" x1="143.158" y1="11.583" x2="145.662" y2="14.0874" gradientUnits="userSpaceOnUse">
<stop stop-color="white"/>
<stop offset="1" stop-color="white" stop-opacity="0"/>
</linearGradient>
<radialGradient id="paint49_radial_8814_30238" cx="0" cy="0" r="1" gradientUnits="userSpaceOnUse" gradientTransform="translate(26.6772 93.1555) rotate(48.9183) scale(8.06885)">
<stop stop-color="#4EFF22"/>
<stop offset="0.661458" stop-color="#02BC63"/>
<stop offset="0.885417" stop-color="#00AE31"/>
<stop offset="1" stop-color="#0ADD39"/>
</radialGradient>
<linearGradient id="paint50_linear_8814_30238" x1="25.4745" y1="91.0283" x2="27.9788" y2="93.5327" gradientUnits="userSpaceOnUse">
<stop stop-color="white"/>
<stop offset="1" stop-color="white" stop-opacity="0"/>
</linearGradient>
<radialGradient id="paint51_radial_8814_30238" cx="0" cy="0" r="1" gradientUnits="userSpaceOnUse" gradientTransform="translate(170.737 102.585) rotate(48.9183) scale(8.06885)">
<stop stop-color="#4EFF22"/>
<stop offset="0.661458" stop-color="#02BC63"/>
<stop offset="0.885417" stop-color="#00AE31"/>
<stop offset="1" stop-color="#0ADD39"/>
</radialGradient>
<linearGradient id="paint52_linear_8814_30238" x1="169.536" y1="100.459" x2="172.04" y2="102.963" gradientUnits="userSpaceOnUse">
<stop stop-color="white"/>
<stop offset="1" stop-color="white" stop-opacity="0"/>
</linearGradient>
</defs>
</svg>
