<svg viewBox="0 0 240 120" fill="none" xmlns="http://www.w3.org/2000/svg">
<path d="M18.3191 96.0074H221.31C257.97 34.9039 199.413 4.61548 120.706 4.61548C41.9991 4.61548 -19.2423 30.2886 18.3191 96.0074Z" fill="url(#paint0_radial_10608_34206)"/>
<path d="M18.3191 96.0074H221.31C257.97 34.9039 199.413 4.61548 120.706 4.61548C41.9991 4.61548 -19.2423 30.2886 18.3191 96.0074Z" fill="url(#paint1_radial_10608_34206)"/>
<path d="M78.7727 12.4907C87.8173 12.4917 95.1474 19.8251 95.1474 28.8699C95.1473 29.5089 95.106 30.1386 95.0347 30.7585C95.3255 30.7393 95.618 30.7179 95.9136 30.7179C100.561 30.7179 104.642 33.1191 107.001 36.744C110.211 32.5684 115.255 29.875 120.929 29.875C128.219 29.8756 134.469 34.3204 137.123 40.6473C138.148 40.3052 139.242 40.1155 140.382 40.1154C146.065 40.1154 150.676 44.722 150.676 50.4054C150.676 56.0892 146.066 60.6999 140.382 60.6999C138.128 60.6997 136.051 59.9635 134.356 58.7347C131.135 62.5572 126.318 64.9903 120.929 64.9907C120.59 64.9907 120.253 64.9781 119.919 64.9592C119.92 65.0477 119.928 65.1363 119.928 65.2251C119.928 74.9222 112.065 82.7852 102.368 82.7852C95.3851 82.785 89.3539 78.7091 86.5251 72.8062C83.1538 74.8006 79.2235 75.9523 75.0227 75.9523C71.473 75.9522 68.1149 75.1328 65.1249 73.6761C61.3075 76.6129 56.5305 78.3681 51.3418 78.3681C38.8446 78.3669 28.7117 68.2348 28.7111 55.7374C28.7111 53.528 29.0312 51.3918 29.6215 49.3732C29.323 49.4007 29.0213 49.4228 28.7156 49.4228C23.3178 49.4228 18.9404 45.0487 18.9395 39.6512C18.9395 34.5823 22.7975 30.41 27.7375 29.9201C27.9153 22.2737 34.1695 16.128 41.8586 16.128C48.8768 16.1291 54.6938 21.2512 55.7904 27.9595C57.1212 27.1291 58.6901 26.6434 60.3743 26.6434C61.1123 26.6434 61.8265 26.7448 62.5107 26.9183C63.4749 18.7923 70.3873 12.4907 78.7727 12.4907Z" fill="url(#paint2_radial_10608_34206)"/>
<path d="M188.203 28.1521C192.976 28.1521 196.949 31.5599 197.834 36.0734C199.386 35.5081 201.155 35.7738 202.474 36.7742C203.559 34.2123 206.098 32.4157 209.056 32.4157C213 32.4158 216.197 35.6131 216.198 39.5576C216.198 43.5027 214.554 46.7028 209.056 46.7028C203.558 46.7028 169.315 48.8075 169.315 46.7028C169.315 44.161 171.345 40.4431 174.296 41.3947C175.149 39.9096 176.644 38.8461 178.402 38.5719C178.067 33.0102 182.619 28.1521 188.203 28.1521Z" fill="url(#paint3_radial_10608_34206)"/>
<path d="M216.403 59.0996C219.148 59.0996 221.433 61.0599 221.942 63.6561C222.835 63.3309 223.853 63.4838 224.612 64.0592C225.236 62.5856 226.696 61.5521 228.398 61.5521C230.667 61.5522 232.505 63.3914 232.506 65.6603C232.506 67.9296 231.56 69.7704 228.398 69.7704C225.235 69.7704 205.538 70.981 205.538 69.7704C205.538 68.3083 206.705 66.1697 208.403 66.717C208.893 65.8628 209.753 65.251 210.765 65.0933C210.572 61.8941 213.191 59.0996 216.403 59.0996Z" fill="url(#paint4_radial_10608_34206)"/>
<path d="M210.286 57.7632C206.886 57.7632 204.055 60.1911 203.425 63.4067C202.319 63.0039 201.059 63.1932 200.119 63.9059C193.189 60.7192 183.384 70.9796 195.43 70.9796C199.347 70.9796 223.743 72.479 223.743 70.9796C223.743 69.1686 222.297 66.5198 220.194 67.1978C219.587 66.1398 218.522 65.3821 217.269 65.1868C217.507 61.2243 214.264 57.7632 210.286 57.7632Z" fill="url(#paint5_radial_10608_34206)"/>
<path d="M145.739 72.0073C147.163 72.0073 148.348 73.0239 148.612 74.3704C149.075 74.2017 149.603 74.281 149.996 74.5794C150.32 73.8152 151.077 73.2792 151.96 73.2792C153.136 73.2792 154.09 74.2331 154.09 75.4097C154.09 76.5866 153.6 77.5413 151.96 77.5413C150.319 77.5413 140.104 78.1691 140.104 77.5413C140.104 76.783 140.71 75.6739 141.59 75.9578C141.845 75.5148 142.291 75.1975 142.815 75.1157C142.715 73.4566 144.073 72.0073 145.739 72.0073Z" fill="url(#paint6_radial_10608_34206)"/>
<path d="M142.568 71.3142C140.805 71.3142 139.337 72.5733 139.01 74.241C138.437 74.0321 137.783 74.1303 137.296 74.4999C133.701 72.8472 128.616 78.1683 134.864 78.1683C136.895 78.1683 149.547 78.9459 149.547 78.1683C149.547 77.2292 148.797 75.8555 147.707 76.2071C147.392 75.6584 146.839 75.2654 146.19 75.1641C146.313 73.1092 144.631 71.3142 142.568 71.3142Z" fill="url(#paint7_radial_10608_34206)"/>
<path d="M38.7655 78.9093C44.9468 72.3833 55.1524 79.8955 51.8762 83.9946L52.5822 93.4496C44.2081 94.9657 26.6734 97.3577 23.5282 94.7968C19.5966 91.5957 22.4909 84.5957 26.5209 85.4254C26.0762 84.6364 26.9115 81.7988 29.9245 82.2933C28.8304 77.2357 37.17 75.9963 38.7655 78.9093Z" fill="url(#paint8_linear_10608_34206)"/>
<path d="M38.7655 78.9093C44.9468 72.3833 55.1524 79.8955 51.8762 83.9946L52.5822 93.4496C44.2081 94.9657 26.6734 97.3577 23.5282 94.7968C19.5966 91.5957 22.4909 84.5957 26.5209 85.4254C26.0762 84.6364 26.9115 81.7988 29.9245 82.2933C28.8304 77.2357 37.17 75.9963 38.7655 78.9093Z" fill="url(#paint9_radial_10608_34206)"/>
<path d="M38.7655 78.9093C44.9468 72.3833 55.1524 79.8955 51.8762 83.9946L52.5822 93.4496C44.2081 94.9657 26.6734 97.3577 23.5282 94.7968C19.5966 91.5957 22.4909 84.5957 26.5209 85.4254C26.0762 84.6364 26.9115 81.7988 29.9245 82.2933C28.8304 77.2357 37.17 75.9963 38.7655 78.9093Z" fill="url(#paint10_linear_10608_34206)"/>
<path d="M63.9726 89.0729C61.3339 88.5005 56.5301 91.8779 59.7101 94.6828L106.395 104.529L146.246 94.6828C148.276 92.1641 143.336 87.3556 139.683 90.0461C138.871 84.9514 132.646 85.5811 130.414 87.3556C131.97 85.6383 127.978 81.803 125.745 83.4631C125.948 82.261 123.918 80.5437 121.415 81.803C122.7 81.0589 120.738 78.4257 119.047 79.1698C119.791 77.1663 115.799 75.3918 113.702 77.1663C114.378 73.8462 111.401 70.9268 106.395 71.4992C101.388 72.0716 97.396 75.3917 98.6139 79.1698C96.5841 77.5098 91.848 79.7423 93.5395 81.803C93.0207 82.0893 92.1727 83.0624 92.9305 84.6652C92.299 83.7112 90.143 81.6084 86.5706 80.8299C82.1051 79.8568 79.1958 83.1769 81.4285 84.6652C80.346 84.4363 77.8426 85.9818 78.6545 87.3556C76.9224 87.3556 75.8579 88.5005 75.5422 89.0729C75.3618 87.9281 74.5138 85.9818 72.5652 87.3556C72.1592 83.921 62.1457 85.4094 63.9726 89.0729Z" fill="url(#paint11_linear_10608_34206)"/>
<path d="M63.9726 89.0729C61.3339 88.5005 56.5301 91.8779 59.7101 94.6828L106.395 104.529L146.246 94.6828C148.276 92.1641 143.336 87.3556 139.683 90.0461C138.871 84.9514 132.646 85.5811 130.414 87.3556C131.97 85.6383 127.978 81.803 125.745 83.4631C125.948 82.261 123.918 80.5437 121.415 81.803C122.7 81.0589 120.738 78.4257 119.047 79.1698C119.791 77.1663 115.799 75.3918 113.702 77.1663C114.378 73.8462 111.401 70.9268 106.395 71.4992C101.388 72.0716 97.396 75.3917 98.6139 79.1698C96.5841 77.5098 91.848 79.7423 93.5395 81.803C93.0207 82.0893 92.1727 83.0624 92.9305 84.6652C92.299 83.7112 90.143 81.6084 86.5706 80.8299C82.1051 79.8568 79.1958 83.1769 81.4285 84.6652C80.346 84.4363 77.8426 85.9818 78.6545 87.3556C76.9224 87.3556 75.8579 88.5005 75.5422 89.0729C75.3618 87.9281 74.5138 85.9818 72.5652 87.3556C72.1592 83.921 62.1457 85.4094 63.9726 89.0729Z" fill="url(#paint12_radial_10608_34206)"/>
<path d="M63.9726 89.0729C61.3339 88.5005 56.5301 91.8779 59.7101 94.6828L106.395 104.529L146.246 94.6828C148.276 92.1641 143.336 87.3556 139.683 90.0461C138.871 84.9514 132.646 85.5811 130.414 87.3556C131.97 85.6383 127.978 81.803 125.745 83.4631C125.948 82.261 123.918 80.5437 121.415 81.803C122.7 81.0589 120.738 78.4257 119.047 79.1698C119.791 77.1663 115.799 75.3918 113.702 77.1663C114.378 73.8462 111.401 70.9268 106.395 71.4992C101.388 72.0716 97.396 75.3917 98.6139 79.1698C96.5841 77.5098 91.848 79.7423 93.5395 81.803C93.0207 82.0893 92.1727 83.0624 92.9305 84.6652C92.299 83.7112 90.143 81.6084 86.5706 80.8299C82.1051 79.8568 79.1958 83.1769 81.4285 84.6652C80.346 84.4363 77.8426 85.9818 78.6545 87.3556C76.9224 87.3556 75.8579 88.5005 75.5422 89.0729C75.3618 87.9281 74.5138 85.9818 72.5652 87.3556C72.1592 83.921 62.1457 85.4094 63.9726 89.0729Z" fill="url(#paint13_linear_10608_34206)"/>
<path d="M69.0745 89.2455C72.2942 89.6591 72.8365 94.1969 69.5213 95.2293L19.3227 98.9776C14.6889 95.0724 18.0118 90.5077 20.6394 92.0774C20.166 90.2814 22.7084 86.1674 26.8689 88.2767C25.6528 85.6205 30.1724 83.4517 31.831 84.7667C31.8251 82.8704 37.2665 83.0528 38.1792 86.1894C38.2991 85.0686 40.8522 82.9159 41.9619 85.0568C44.0764 74.3035 56.8096 74.0068 57.1398 78.4295C59.306 73.8203 70.7976 76.8864 68.5354 82.026C71.2531 81.169 74.4906 87.2714 69.0745 89.2455Z" fill="url(#paint14_linear_10608_34206)"/>
<path d="M69.0745 89.2455C72.2942 89.6591 72.8365 94.1969 69.5213 95.2293L19.3227 98.9776C14.6889 95.0724 18.0118 90.5077 20.6394 92.0774C20.166 90.2814 22.7084 86.1674 26.8689 88.2767C25.6528 85.6205 30.1724 83.4517 31.831 84.7667C31.8251 82.8704 37.2665 83.0528 38.1792 86.1894C38.2991 85.0686 40.8522 82.9159 41.9619 85.0568C44.0764 74.3035 56.8096 74.0068 57.1398 78.4295C59.306 73.8203 70.7976 76.8864 68.5354 82.026C71.2531 81.169 74.4906 87.2714 69.0745 89.2455Z" fill="url(#paint15_radial_10608_34206)"/>
<path d="M69.0745 89.2455C72.2942 89.6591 72.8365 94.1969 69.5213 95.2293L19.3227 98.9776C14.6889 95.0724 18.0118 90.5077 20.6394 92.0774C20.166 90.2814 22.7084 86.1674 26.8689 88.2767C25.6528 85.6205 30.1724 83.4517 31.831 84.7667C31.8251 82.8704 37.2665 83.0528 38.1792 86.1894C38.2991 85.0686 40.8522 82.9159 41.9619 85.0568C44.0764 74.3035 56.8096 74.0068 57.1398 78.4295C59.306 73.8203 70.7976 76.8864 68.5354 82.026C71.2531 81.169 74.4906 87.2714 69.0745 89.2455Z" fill="url(#paint16_linear_10608_34206)"/>
<path d="M214.895 86.0735C221.656 84.976 225.594 92.7065 219.027 93.3507L218.409 98.1589L154.414 89.9426C154.422 89.0051 155.069 87.158 157.594 87.2698C156.34 85.9931 157.148 82.8563 159.858 83.8418C160.074 81.7445 162.75 81.8402 164.061 82.1502C164.171 81.2965 164.949 79.7567 167.187 80.4266C165.807 78.5494 166.847 75.7081 168.902 74.4313C170.958 73.1546 177.359 72.7546 182.26 76.1463C182.28 75.4584 185.867 72.2533 189.16 75.0135C188.642 74.3095 188.284 68.1544 196.047 68.1949C202.258 68.2272 203.037 73.9088 202.65 76.7455C204.4 75.5712 208.41 73.7663 210.454 75.9412C212.499 78.1162 209.242 79.5928 207.359 80.0593C208.829 80.1773 211.554 80.8423 210.685 82.5582C211.165 81.9823 216.341 83.2312 214.895 86.0735Z" fill="url(#paint17_linear_10608_34206)"/>
<path d="M214.895 86.0735C221.656 84.976 225.594 92.7065 219.027 93.3507L218.409 98.1589L154.414 89.9426C154.422 89.0051 155.069 87.158 157.594 87.2698C156.34 85.9931 157.148 82.8563 159.858 83.8418C160.074 81.7445 162.75 81.8402 164.061 82.1502C164.171 81.2965 164.949 79.7567 167.187 80.4266C165.807 78.5494 166.847 75.7081 168.902 74.4313C170.958 73.1546 177.359 72.7546 182.26 76.1463C182.28 75.4584 185.867 72.2533 189.16 75.0135C188.642 74.3095 188.284 68.1544 196.047 68.1949C202.258 68.2272 203.037 73.9088 202.65 76.7455C204.4 75.5712 208.41 73.7663 210.454 75.9412C212.499 78.1162 209.242 79.5928 207.359 80.0593C208.829 80.1773 211.554 80.8423 210.685 82.5582C211.165 81.9823 216.341 83.2312 214.895 86.0735Z" fill="url(#paint18_radial_10608_34206)"/>
<path d="M214.895 86.0735C221.656 84.976 225.594 92.7065 219.027 93.3507L218.409 98.1589L154.414 89.9426C154.422 89.0051 155.069 87.158 157.594 87.2698C156.34 85.9931 157.148 82.8563 159.858 83.8418C160.074 81.7445 162.75 81.8402 164.061 82.1502C164.171 81.2965 164.949 79.7567 167.187 80.4266C165.807 78.5494 166.847 75.7081 168.902 74.4313C170.958 73.1546 177.359 72.7546 182.26 76.1463C182.28 75.4584 185.867 72.2533 189.16 75.0135C188.642 74.3095 188.284 68.1544 196.047 68.1949C202.258 68.2272 203.037 73.9088 202.65 76.7455C204.4 75.5712 208.41 73.7663 210.454 75.9412C212.499 78.1162 209.242 79.5928 207.359 80.0593C208.829 80.1773 211.554 80.8423 210.685 82.5582C211.165 81.9823 216.341 83.2312 214.895 86.0735Z" fill="url(#paint19_linear_10608_34206)"/>
<path d="M211.23 89.7332C215.986 89.2617 219.136 96.1593 214.685 97.6801L144.957 88.7278C146 85.6296 148.817 85.9046 150.095 86.4293C149.831 85.6259 149.995 83.6606 152.762 82.2266C155.529 80.7926 157.909 82.1419 158.753 82.9958C159.416 82.4075 161.211 81.45 163.095 82.3267C164.978 83.2033 165.609 85.2227 165.689 86.1228C165.786 85.7504 166.223 84.8206 167.198 84.0801C168.174 83.3396 169.578 84.0248 170.158 84.46C169.326 83.5115 168.163 81.2754 168.819 80.0314C170.565 76.7204 175.338 77.261 177.481 81.1435C177.62 78.3476 182.149 71.6423 188.404 70.9303C194.658 70.2182 199.595 76.9124 196.18 80.6584C197.262 80.7974 200.453 83.9486 197.409 85.9387C199.639 86.3982 199.906 88.3996 199.76 89.3428C200.92 88.3133 203.612 86.6629 205.104 88.2974C205.143 86.2823 211.235 85.6936 211.23 89.7332Z" fill="url(#paint20_linear_10608_34206)"/>
<path d="M211.23 89.7332C215.986 89.2617 219.136 96.1593 214.685 97.6801L144.957 88.7278C146 85.6296 148.817 85.9046 150.095 86.4293C149.831 85.6259 149.995 83.6606 152.762 82.2266C155.529 80.7926 157.909 82.1419 158.753 82.9958C159.416 82.4075 161.211 81.45 163.095 82.3267C164.978 83.2033 165.609 85.2227 165.689 86.1228C165.786 85.7504 166.223 84.8206 167.198 84.0801C168.174 83.3396 169.578 84.0248 170.158 84.46C169.326 83.5115 168.163 81.2754 168.819 80.0314C170.565 76.7204 175.338 77.261 177.481 81.1435C177.62 78.3476 182.149 71.6423 188.404 70.9303C194.658 70.2182 199.595 76.9124 196.18 80.6584C197.262 80.7974 200.453 83.9486 197.409 85.9387C199.639 86.3982 199.906 88.3996 199.76 89.3428C200.92 88.3133 203.612 86.6629 205.104 88.2974C205.143 86.2823 211.235 85.6936 211.23 89.7332Z" fill="url(#paint21_radial_10608_34206)"/>
<path d="M56.0229 89.9257C59.623 90.1239 59.8667 95.4759 56.4795 96.0401C50.7604 96.9928 36.4297 97.2415 35.2878 96.1437C33.8603 94.7715 36.6625 89.5035 40.0729 89.2488C39.7642 86.1587 46.7158 83.2269 48.9309 86.7973C50.4396 84.0385 57.5102 83.744 56.0229 89.9257Z" fill="url(#paint22_radial_10608_34206)"/>
<path d="M88.3302 87.6245C86.9094 86.003 82.1733 89.3812 85.2856 92.1513C87.6538 93.6377 107.64 94.5566 109.372 91.2054C111.537 87.0165 104.298 83.5707 100.78 86.476C100.577 85.0897 97.1599 83.8398 96.2465 85.9355C95.4346 84.2464 89.1423 83.6383 88.3302 87.6245Z" fill="url(#paint23_radial_10608_34206)"/>
<path d="M179.352 90.1924C176.497 87.9737 171.326 90.1924 174.447 94.1178C177.568 98.0432 192.372 94.1178 191.926 88.4857C191.48 82.8536 179.352 81.2323 179.352 90.1924Z" fill="url(#paint24_radial_10608_34206)"/>
<path d="M138.829 9.90796C133.551 9.90928 129.36 14.6664 129.958 19.8764C127.368 19.7048 124.842 20.9682 123.425 23.1485C121.673 20.8684 118.922 19.3932 115.825 19.3932C111.848 19.394 108.44 21.8199 106.991 25.2703C103.455 24.0874 99.5908 26.8145 99.5908 30.6012C99.5927 35.1394 108.504 35.139 108.504 35.139C108.504 35.139 162.414 35.139 165.646 35.139C168.879 35.139 169.173 30.6586 166.145 30.0655C169.091 30.0655 171.481 27.6751 171.481 24.7294C171.481 21.9635 169.376 19.6872 166.681 19.4195C166.584 15.2468 163.172 11.8933 158.976 11.8932C155.143 11.8932 151.977 14.6938 151.382 18.3586C150.335 17.701 148.93 17.4687 147.7 17.7808C147.173 13.347 143.405 9.90796 138.829 9.90796Z" fill="url(#paint25_radial_10608_34206)"/>
<path d="M194.759 88.7592C183.764 87.5302 143.387 82.3429 123.1 94.9288C102.813 107.515 79.9225 100.542 92.1475 106.143C125.697 121.513 203.622 112.698 204.553 109.023C205.485 105.349 200.021 105.746 200.455 104.148C200.889 102.55 221.252 101.505 223.289 96.8347C225.321 92.1753 205.841 89.9979 194.832 88.7674L194.759 88.7592Z" fill="url(#paint26_linear_10608_34206)"/>
<path d="M194.759 88.7592C183.764 87.5302 143.387 82.3429 123.1 94.9288C102.813 107.515 79.9225 100.542 92.1475 106.143C125.697 121.513 203.622 112.698 204.553 109.023C205.485 105.349 200.021 105.746 200.455 104.148C200.889 102.55 221.252 101.505 223.289 96.8347C225.321 92.1753 205.841 89.9979 194.832 88.7674L194.759 88.7592Z" fill="url(#paint27_radial_10608_34206)"/>
<path d="M194.759 88.7592C183.764 87.5302 143.387 82.3429 123.1 94.9288C102.813 107.515 79.9225 100.542 92.1475 106.143C125.697 121.513 203.622 112.698 204.553 109.023C205.485 105.349 200.021 105.746 200.455 104.148C200.889 102.55 221.252 101.505 223.289 96.8347C225.321 92.1753 205.841 89.9979 194.832 88.7674L194.759 88.7592Z" fill="url(#paint28_radial_10608_34206)"/>
<path d="M167.872 85.5646C166.491 86.0737 168.454 88.6918 171.582 88.6918C174.709 88.6918 175.975 87.0774 175.219 86.1464C174.462 85.2155 173.401 85.7585 172.964 86.1464C172.843 85.7343 172.397 84.9102 171.582 84.9102C170.766 84.9102 170.127 85.7343 169.91 86.1464C169.691 85.7828 168.978 85.1573 167.872 85.5646Z" fill="url(#paint29_linear_10608_34206)"/>
<path d="M165.886 98.4483C164.174 99.079 166.607 102.323 170.482 102.323C174.356 102.323 175.925 100.323 174.988 99.1691C174.051 98.0157 172.735 98.6885 172.195 99.1691C172.044 98.6586 171.492 97.6375 170.482 97.6375C169.472 97.6375 168.68 98.6586 168.41 99.1691C168.139 98.7186 167.256 97.9437 165.886 98.4483Z" fill="url(#paint30_linear_10608_34206)"/>
<path d="M156.319 87.014C155.011 87.6824 157.267 90.0431 160.365 89.6718C163.464 89.3005 164.527 87.5507 163.667 86.7182C162.807 85.8857 161.819 86.5497 161.433 86.9859C161.264 86.592 160.724 85.8284 159.917 85.9252C159.109 86.022 158.574 86.9144 158.407 87.3485C158.147 87.0142 157.366 86.4792 156.319 87.014Z" fill="url(#paint31_linear_10608_34206)"/>
<path d="M206.431 91.4956C204.648 92.1524 207.181 95.5298 211.216 95.5298C215.251 95.5298 216.884 93.4471 215.908 92.2462C214.932 91.0452 213.563 91.7458 213 92.2462C212.843 91.7146 212.268 90.6514 211.216 90.6514C210.164 90.6514 209.34 91.7146 209.059 92.2462C208.777 91.7771 207.857 90.9702 206.431 91.4956Z" fill="url(#paint32_linear_10608_34206)"/>
<path d="M184.416 98.7099C178.806 98.5879 181.733 95.1729 184.416 95.0509C187.1 94.9289 190.026 98.8318 184.416 98.7099Z" fill="url(#paint33_linear_10608_34206)"/>
<path d="M144.326 94.7774C137.343 94.6257 140.986 90.375 144.326 90.2232C147.665 90.0714 151.308 94.9292 144.326 94.7774Z" fill="url(#paint34_linear_10608_34206)"/>
<path d="M202.283 99.0486C196.218 98.9168 199.383 95.2247 202.283 95.0929C205.184 94.961 208.349 99.1804 202.283 99.0486Z" fill="url(#paint35_linear_10608_34206)"/>
<path d="M173.366 92.5974C170.063 92.5256 171.787 90.5151 173.366 90.4433C174.946 90.3715 176.669 92.6692 173.366 92.5974Z" fill="url(#paint36_linear_10608_34206)"/>
<path d="M198.735 94.3836C195.432 94.3118 197.155 92.3012 198.735 92.2294C200.315 92.1576 202.038 94.4553 198.735 94.3836Z" fill="url(#paint37_linear_10608_34206)"/>
<path d="M169.315 95.2416C164.794 95.1433 167.153 92.3913 169.315 92.293C171.478 92.1947 173.836 95.3399 169.315 95.2416Z" fill="url(#paint38_linear_10608_34206)"/>
<path d="M175.945 96.32C171.424 96.2217 173.783 93.4697 175.945 93.3714C178.107 93.2731 180.466 96.4182 175.945 96.32Z" fill="url(#paint39_linear_10608_34206)"/>
<path d="M188.243 102.64C187.161 100.822 182.101 102.394 183.822 104.212C182.856 104.212 180.873 104.546 180.677 105.882C180.48 107.218 183.313 107.454 184.754 107.405C183.984 108.125 183.035 109.743 185.393 110.45C187.751 111.158 188.276 109.042 188.243 107.896C188.243 108.076 188.754 108.456 190.796 108.534C193.349 108.633 193.547 105.882 191.288 105.39C192.319 104.212 190.109 101.853 188.243 102.64Z" fill="url(#paint40_linear_10608_34206)"/>
<path d="M156.844 93.0516C157.583 91.8104 161.037 92.8836 159.862 94.1248C160.522 94.1248 161.875 94.3528 162.009 95.2649C162.144 96.1769 160.21 96.338 159.226 96.3046C159.751 96.7965 160.4 97.901 158.79 98.3839C157.18 98.8669 156.822 97.4225 156.844 96.6399C156.844 96.7629 156.495 97.0223 155.101 97.0759C153.358 97.143 153.223 95.2648 154.765 94.9295C154.061 94.1248 155.57 92.5147 156.844 93.0516Z" fill="url(#paint41_linear_10608_34206)"/>
<path d="M181.182 86.4878C181.922 85.2467 185.376 86.3199 184.201 87.5611C184.861 87.5611 186.214 87.7891 186.348 88.7012C186.483 89.6132 184.548 89.7743 183.565 89.7408C184.09 90.2327 184.739 91.3373 183.129 91.8202C181.519 92.3032 181.16 90.8588 181.182 90.0762C181.182 90.1992 180.834 90.4586 179.439 90.5122C177.696 90.5793 177.562 88.7011 179.104 88.3658C178.4 87.5611 179.909 85.951 181.182 86.4878Z" fill="url(#paint42_linear_10608_34206)"/>
<path d="M194.567 102.334C193.635 103.079 191.275 101.246 192.544 100.628C192.034 100.436 191.054 99.8665 191.215 99.1224C191.376 98.3782 192.919 98.8154 193.67 99.127C193.406 98.5941 193.226 97.5518 194.611 97.6459C195.996 97.7401 195.853 98.961 195.609 99.5596C195.645 99.4645 195.989 99.3652 197.083 99.7287C198.45 100.183 198.009 101.674 196.719 101.486C197.03 102.312 195.395 103.119 194.567 102.334Z" fill="url(#paint43_linear_10608_34206)"/>
<path d="M15.2185 99.1767C18.417 103.01 28.9313 100.256 32.2377 102.595C35.5442 104.934 23.5839 103.816 27.0454 108.901C37.5767 124.374 162.174 118.777 184.376 118.645C146.528 98.9368 98.4147 84.3091 49.6157 87.6694C30.7954 88.9654 12.02 95.3435 15.2185 99.1767Z" fill="url(#paint44_linear_10608_34206)"/>
<path d="M15.2185 99.1767C18.417 103.01 28.9313 100.256 32.2377 102.595C35.5442 104.934 23.5839 103.816 27.0454 108.901C37.5767 124.374 162.174 118.777 184.376 118.645C146.528 98.9368 98.4147 84.3091 49.6157 87.6694C30.7954 88.9654 12.02 95.3435 15.2185 99.1767Z" fill="url(#paint45_radial_10608_34206)"/>
<path d="M15.2185 99.1767C18.417 103.01 28.9313 100.256 32.2377 102.595C35.5442 104.934 23.5839 103.816 27.0454 108.901C37.5767 124.374 162.174 118.777 184.376 118.645C146.528 98.9368 98.4147 84.3091 49.6157 87.6694C30.7954 88.9654 12.02 95.3435 15.2185 99.1767Z" fill="url(#paint46_radial_10608_34206)"/>
<path d="M113.956 98.6361C116.733 99.659 112.787 104.92 106.503 104.92C100.218 104.92 97.6744 101.676 99.1942 99.8052C100.714 97.9345 102.848 99.0257 103.725 99.8052C103.968 98.9771 104.865 97.321 106.503 97.321C108.141 97.321 109.425 98.9771 109.863 99.8052C110.301 99.0745 111.735 97.8177 113.956 98.6361Z" fill="url(#paint47_linear_10608_34206)"/>
<path d="M111.143 105.869C108.643 106.79 112.195 111.526 117.851 111.526C123.508 111.526 125.798 108.606 124.43 106.922C123.062 105.238 121.141 106.22 120.352 106.922C120.133 106.176 119.326 104.686 117.851 104.686C116.377 104.686 115.221 106.176 114.827 106.922C114.432 106.264 113.142 105.133 111.143 105.869Z" fill="url(#paint48_linear_10608_34206)"/>
<path d="M141.932 103.543C139.639 104.387 142.897 108.731 148.085 108.731C153.274 108.731 155.374 106.052 154.119 104.508C152.864 102.964 151.103 103.864 150.379 104.508C150.178 103.824 149.438 102.457 148.085 102.457C146.733 102.457 145.673 103.824 145.311 104.508C144.949 103.905 143.766 102.867 141.932 103.543Z" fill="url(#paint49_linear_10608_34206)"/>
<path d="M124.558 100.7C122.595 101.423 125.384 105.143 129.827 105.143C134.27 105.143 136.069 102.849 134.994 101.527C133.92 100.204 132.411 100.976 131.791 101.527C131.619 100.941 130.985 99.7705 129.827 99.7705C128.669 99.7705 127.761 100.941 127.452 101.527C127.141 101.01 126.128 100.122 124.558 100.7Z" fill="url(#paint50_linear_10608_34206)"/>
<path d="M150.026 110.494C147.112 111.568 151.253 117.089 157.848 117.089C164.444 117.089 167.114 113.684 165.519 111.721C163.924 109.758 161.684 110.903 160.764 111.721C160.508 110.852 159.567 109.114 157.848 109.114C156.129 109.114 154.781 110.852 154.322 111.721C153.862 110.954 152.357 109.635 150.026 110.494Z" fill="url(#paint51_linear_10608_34206)"/>
<path d="M137.1 109.667C132.164 109.56 134.739 106.556 137.1 106.448C139.46 106.341 142.035 109.774 137.1 109.667Z" fill="url(#paint52_linear_10608_34206)"/>
<path d="M130.169 114.842C124.042 114.708 127.239 110.979 130.169 110.846C133.1 110.712 136.296 114.975 130.169 114.842Z" fill="url(#paint53_linear_10608_34206)"/>
<path d="M143.221 116.992C133.881 116.789 138.754 111.103 143.221 110.9C147.688 110.697 152.56 117.195 143.221 116.992Z" fill="url(#paint54_linear_10608_34206)"/>
<path d="M72.9745 102.524C75.3146 103.386 71.9897 107.82 66.6933 107.82C61.3969 107.82 59.2531 105.086 60.5339 103.509C61.8148 101.933 63.613 102.852 64.3519 103.509C64.5572 102.811 65.3129 101.416 66.6933 101.416C68.0738 101.416 69.1561 102.811 69.5247 103.509C69.8946 102.894 71.1025 101.834 72.9745 102.524Z" fill="url(#paint55_linear_10608_34206)"/>
<path d="M67.1808 95.1588C69.0894 95.8619 66.3776 99.478 62.0578 99.478C57.7381 99.478 55.9896 97.2482 57.0342 95.9624C58.0789 94.6766 59.5455 95.4266 60.1482 95.9624C60.3156 95.3932 60.9319 94.2549 62.0578 94.2549C63.1838 94.2549 64.0665 95.3932 64.3671 95.9624C64.6688 95.4601 65.654 94.5963 67.1808 95.1588Z" fill="url(#paint56_linear_10608_34206)"/>
<path d="M104.379 112.649C107.429 113.772 103.096 119.551 96.1925 119.551C89.2894 119.551 86.4951 115.988 88.1646 113.933C89.834 111.878 92.1777 113.077 93.1408 113.933C93.4084 113.023 94.3933 111.204 96.1925 111.204C97.9918 111.204 99.4024 113.023 99.8829 113.933C100.365 113.13 101.939 111.75 104.379 112.649Z" fill="url(#paint57_linear_10608_34206)"/>
<path d="M99.2279 94.9425C101.232 95.6807 98.3846 99.4775 93.849 99.4775C89.3134 99.4775 87.4775 97.1362 88.5744 95.7862C89.6713 94.4362 91.2111 95.2237 91.844 95.7862C92.0197 95.1886 92.6668 93.9934 93.849 93.9934C95.0312 93.9934 95.958 95.1886 96.2737 95.7862C96.5904 95.2589 97.6248 94.3519 99.2279 94.9425Z" fill="url(#paint58_linear_10608_34206)"/>
<path d="M65.9712 111.344C68.9458 112.44 64.7193 118.076 57.9865 118.076C51.2538 118.076 48.5286 114.601 50.1568 112.597C51.785 110.593 54.0708 111.762 55.0102 112.597C55.2711 111.71 56.2317 109.936 57.9865 109.936C59.7414 109.936 61.1172 111.71 61.5858 112.597C62.056 111.814 63.5914 110.468 65.9712 111.344Z" fill="url(#paint59_linear_10608_34206)"/>
<path d="M36.2451 92.3689C38.2323 93.101 35.4087 96.8662 30.9109 96.8662C26.413 96.8662 24.5924 94.5444 25.6802 93.2056C26.7679 91.8668 28.295 92.6478 28.9225 93.2056C29.0968 92.613 29.7385 91.4277 30.9109 91.4277C32.0832 91.4277 33.0023 92.613 33.3154 93.2056C33.6295 92.6827 34.6553 91.7832 36.2451 92.3689Z" fill="url(#paint60_linear_10608_34206)"/>
<path d="M93.5073 89.4637C95.2513 90.1062 92.7733 93.4104 88.8261 93.4104C84.8788 93.4104 83.281 91.3729 84.2357 90.1979C85.1903 89.023 86.5304 89.7084 87.0811 90.1979C87.2341 89.6779 87.7973 88.6377 88.8261 88.6377C89.8549 88.6377 90.6615 89.6779 90.9362 90.1979C91.2119 89.739 92.1121 88.9497 93.5073 89.4637Z" fill="url(#paint61_linear_10608_34206)"/>
<path d="M86.4262 104.097C91.4642 103.987 88.8359 100.92 86.4262 100.811C84.0166 100.701 81.3883 104.206 86.4262 104.097Z" fill="url(#paint62_linear_10608_34206)"/>
<path d="M90.9202 107.816C97.1743 107.68 93.9115 103.873 90.9202 103.737C87.929 103.601 84.6662 107.952 90.9202 107.816Z" fill="url(#paint63_linear_10608_34206)"/>
<path d="M50.0667 98.6446C56.3208 98.5087 53.058 94.7016 50.0667 94.5656C47.0755 94.4297 43.8127 98.7805 50.0667 98.6446Z" fill="url(#paint64_linear_10608_34206)"/>
<path d="M80.1786 111.573C89.7122 111.366 84.7384 105.563 80.1786 105.355C75.6188 105.148 70.645 111.781 80.1786 111.573Z" fill="url(#paint65_linear_10608_34206)"/>
<path d="M58.8407 88.6354C62.5226 88.5554 60.6018 86.3141 58.8407 86.234C57.0797 86.154 55.1588 88.7154 58.8407 88.6354Z" fill="url(#paint66_linear_10608_34206)"/>
<path d="M63.3549 91.5825C68.3947 91.473 65.7654 88.4051 63.3549 88.2955C60.9444 88.1859 58.3151 91.6921 63.3549 91.5825Z" fill="url(#paint67_linear_10608_34206)"/>
<path d="M55.9633 92.7859C61.0031 92.6764 58.3738 89.6084 55.9633 89.4989C53.5528 89.3893 50.9235 92.8954 55.9633 92.7859Z" fill="url(#paint68_linear_10608_34206)"/>
<path d="M73.1105 118.072C81.8752 117.882 77.3026 112.546 73.1105 112.356C68.9185 112.165 64.3458 118.263 73.1105 118.072Z" fill="url(#paint69_linear_10608_34206)"/>
<path d="M45.8815 102.316C47.0885 100.289 52.7292 102.041 50.8103 104.068C51.8878 104.068 54.0977 104.44 54.3168 105.93C54.5359 107.419 51.3778 107.682 49.7714 107.627C50.6294 108.431 51.6881 110.234 49.0594 111.023C46.4308 111.811 45.8455 109.453 45.8815 108.175C45.8815 108.376 45.3123 108.799 43.0354 108.887C40.1893 108.996 39.9692 105.93 42.4877 105.382C41.3383 104.068 43.8021 101.439 45.8815 102.316Z" fill="url(#paint70_linear_10608_34206)"/>
<path d="M77.2595 89.1417C76.4354 87.758 72.5844 88.9544 73.8945 90.3381C73.1589 90.3381 71.6501 90.5923 71.5006 91.6091C71.351 92.6258 73.5071 92.8054 74.6038 92.7681C74.018 93.3165 73.2952 94.5478 75.0898 95.0862C76.8845 95.6246 77.284 94.0144 77.2595 93.142C77.2595 93.2791 77.6481 93.5682 79.2025 93.628C81.1456 93.7028 81.2959 91.609 79.5764 91.2352C80.3612 90.3381 78.6791 88.5432 77.2595 89.1417Z" fill="url(#paint71_linear_10608_34206)"/>
<path d="M40.3495 92.5858C41.3885 93.4163 44.0185 91.3727 42.6037 90.6834C43.1725 90.4697 44.2652 89.835 44.0855 89.0054C43.9059 88.1759 42.1867 88.6632 41.3496 89.0106C41.6432 88.4165 41.8444 87.2545 40.3005 87.3595C38.7566 87.4645 38.9153 88.8255 39.1877 89.4928C39.1478 89.3869 38.7634 89.2762 37.5442 89.6814C36.0201 90.1879 36.512 91.8505 37.9501 91.6401C37.6039 92.5616 39.4257 93.4608 40.3495 92.5858Z" fill="url(#paint72_linear_10608_34206)"/>
<path d="M126.197 54.8899H129.609V118.775H126.197V54.8899Z" fill="url(#paint73_linear_10608_34206)"/>
<path d="M170.039 72.6304H173.137V118.775H170.039V72.6304Z" fill="url(#paint74_linear_10608_34206)"/>
<path d="M170.039 72.6304H173.137V118.775H170.039V72.6304Z" fill="url(#paint75_linear_10608_34206)"/>
<path d="M127.782 50.552L117.713 30.0168C117.713 30.0168 112.413 39.1583 114.268 45.6501C117.713 57.7084 127.782 50.552 127.782 50.552Z" fill="url(#paint76_linear_10608_34206)"/>
<path d="M126.569 48.0772C118.055 46.4433 114.729 43.1364 114.391 38.5174C115.425 34.0035 117.677 30.0787 117.712 30.0168L126.569 48.0772Z" fill="url(#paint77_linear_10608_34206)"/>
<path d="M127.896 52.7588L137.965 73.2939C137.965 73.2939 143.265 64.1525 141.41 57.6607C137.965 45.6024 127.896 52.7588 127.896 52.7588Z" fill="url(#paint78_linear_10608_34206)"/>
<path d="M129.111 55.2328C137.627 56.8673 140.953 60.1762 141.29 64.7975C140.256 69.3048 138.009 73.2236 137.968 73.2939L129.111 55.2328Z" fill="url(#paint79_linear_10608_34206)"/>
<path d="M126.24 51.6063L103.422 50.0586C103.422 50.0586 108.689 59.2193 115.238 60.8589C127.403 63.9048 126.24 51.6063 126.24 51.6063Z" fill="url(#paint80_linear_10608_34206)"/>
<path d="M123.493 51.4206C117.821 57.9768 113.293 59.2041 109.124 57.1877C105.74 54.0429 103.47 50.1423 103.423 50.0604L123.493 51.4206Z" fill="url(#paint81_linear_10608_34206)"/>
<path d="M128.39 52.7862L151.208 54.3339C151.208 54.3339 145.942 45.1733 139.392 43.5337C127.227 40.4878 128.39 52.7862 128.39 52.7862Z" fill="url(#paint82_linear_10608_34206)"/>
<path d="M131.138 52.971C136.81 46.4146 141.337 45.1875 145.507 47.2039C148.888 50.3468 151.158 54.2445 151.208 54.3312L131.138 52.971Z" fill="url(#paint83_linear_10608_34206)"/>
<path d="M126.239 52.5604L113.49 71.5479C113.49 71.5479 124.056 71.5671 128.751 66.7149C137.471 57.7025 126.239 52.5604 126.239 52.5604Z" fill="url(#paint84_linear_10608_34206)"/>
<path d="M124.702 54.8458C127.546 63.0401 126.344 67.5764 122.511 70.1793C118.079 71.5411 113.55 71.5468 113.489 71.5467L124.702 54.8458Z" fill="url(#paint85_linear_10608_34206)"/>
<path d="M129.723 50.392L142.472 31.4045C142.472 31.4045 131.905 31.3853 127.211 36.2375C118.49 45.2499 129.723 50.392 129.723 50.392Z" fill="url(#paint86_linear_10608_34206)"/>
<path d="M131.26 48.1066C128.415 39.9113 129.617 35.3759 133.451 32.7731C137.912 31.4025 142.473 31.4057 142.473 31.4057L131.26 48.1066Z" fill="url(#paint87_linear_10608_34206)"/>
<path d="M132.665 51.1589C132.665 53.793 130.53 55.9283 127.895 55.9283C125.261 55.9283 123.126 53.793 123.126 51.1589C123.126 48.5248 125.261 46.3894 127.895 46.3894C130.53 46.3894 132.665 48.5248 132.665 51.1589Z" fill="url(#paint88_radial_10608_34206)"/>
<path d="M171.482 64.4703L162.296 45.7358C162.296 45.7358 157.461 54.0757 159.153 59.9982C162.295 70.9991 171.482 64.4703 171.482 64.4703Z" fill="url(#paint89_linear_10608_34206)"/>
<path d="M170.372 62.2151C162.598 60.723 159.566 57.6999 159.262 53.4796C160.206 49.3702 162.254 45.7991 162.291 45.7358L170.372 62.2151Z" fill="url(#paint90_linear_10608_34206)"/>
<path d="M171.587 66.4824L180.773 85.2168C180.773 85.2168 185.608 76.877 183.916 70.9545C180.773 59.9536 171.587 66.4824 171.587 66.4824Z" fill="url(#paint91_linear_10608_34206)"/>
<path d="M172.694 68.7384C180.463 70.2294 183.496 73.2491 183.804 77.4644C182.853 81.6143 180.771 85.2168 180.771 85.2168L172.694 68.7384Z" fill="url(#paint92_linear_10608_34206)"/>
<path d="M170.076 65.4316L149.259 64.0196C149.259 64.0196 154.064 72.377 160.039 73.8728C171.137 76.6516 170.076 65.4316 170.076 65.4316Z" fill="url(#paint93_linear_10608_34206)"/>
<path d="M167.57 65.2592C162.401 71.2365 158.272 72.3613 154.472 70.531C151.346 67.6298 149.259 64.0188 149.259 64.0188L167.57 65.2592Z" fill="url(#paint94_linear_10608_34206)"/>
<path d="M172.037 66.5069L192.855 67.9189C192.855 67.9189 188.05 59.5615 182.075 58.0657C170.976 55.2869 172.037 66.5069 172.037 66.5069Z" fill="url(#paint95_linear_10608_34206)"/>
<path d="M174.545 66.6742C179.721 60.692 183.853 59.5748 187.657 61.4163C190.776 64.3155 192.855 67.9195 192.855 67.9195L174.545 66.6742Z" fill="url(#paint96_linear_10608_34206)"/>
<path d="M170.076 66.3012L158.444 83.6236C158.444 83.6236 168.084 83.6412 172.367 79.2145C180.323 70.9924 170.076 66.3012 170.076 66.3012Z" fill="url(#paint97_linear_10608_34206)"/>
<path d="M168.676 68.3903C171.269 75.8633 170.171 80.0009 166.675 82.375C162.605 83.6257 158.444 83.6243 158.444 83.6243L168.676 68.3903Z" fill="url(#paint98_linear_10608_34206)"/>
<path d="M173.254 64.3233L184.886 47.0009C184.886 47.0009 175.246 46.9834 170.963 51.41C163.007 59.6321 173.254 64.3233 173.254 64.3233Z" fill="url(#paint99_linear_10608_34206)"/>
<path d="M174.655 62.2381C172.061 54.7636 173.158 50.6246 176.655 48.2499C180.694 47.0083 184.823 47.0002 184.886 47.0003L174.655 62.2381Z" fill="url(#paint100_linear_10608_34206)"/>
<path d="M175.938 65.0229C175.938 67.426 173.99 69.3741 171.587 69.3741C169.183 69.3741 167.235 67.426 167.235 65.0229C167.235 62.6197 169.183 60.6716 171.587 60.6716C173.99 60.6716 175.938 62.6197 175.938 65.0229Z" fill="url(#paint101_radial_10608_34206)"/>
<path d="M65.9653 58.3042H71.5965V119.321H65.9653V58.3042Z" fill="url(#paint102_linear_10608_34206)"/>
<path d="M68.1834 49.222L52.9964 18.2485C52.9964 18.2485 45.0024 32.0367 47.8 41.8283C52.9958 60.016 68.1834 49.222 68.1834 49.222Z" fill="url(#paint103_linear_10608_34206)"/>
<path d="M66.355 45.5036C53.5278 43.0436 48.4985 38.0545 47.9746 31.1031C49.544 24.2264 52.9956 18.2485 52.9956 18.2485L66.355 45.5036Z" fill="url(#paint104_linear_10608_34206)"/>
<path d="M68.3556 52.5497L83.5426 83.5232C83.5426 83.5232 91.5367 69.735 88.7391 59.9434C83.5433 41.7557 68.3556 52.5497 68.3556 52.5497Z" fill="url(#paint105_linear_10608_34206)"/>
<path d="M70.1816 56.2726C83.0154 58.7343 88.0434 63.7243 88.562 70.6821C86.9912 77.5533 83.541 83.5232 83.541 83.5232L70.1816 56.2726Z" fill="url(#paint106_linear_10608_34206)"/>
<path d="M65.8589 50.8115L31.4416 48.4771C31.4416 48.4771 39.3855 62.2942 49.2641 64.7673C67.6129 69.3614 65.8589 50.8115 65.8589 50.8115Z" fill="url(#paint107_linear_10608_34206)"/>
<path d="M61.7255 50.5341C53.1761 60.4185 46.3375 62.2751 40.0523 59.245C34.8871 54.449 31.4422 48.4761 31.4422 48.4761L61.7255 50.5341Z" fill="url(#paint108_linear_10608_34206)"/>
<path d="M69.0962 52.5896L103.513 54.924C103.513 54.924 95.5696 41.1069 85.691 38.6339C67.3421 34.0397 69.0962 52.5896 69.0962 52.5896Z" fill="url(#paint109_linear_10608_34206)"/>
<path d="M73.2291 52.8658C81.7784 42.9815 88.6171 41.1248 94.9023 44.1549C100.053 48.9374 103.493 54.8902 103.512 54.9238L73.2291 52.8658Z" fill="url(#paint110_linear_10608_34206)"/>
<path d="M65.8581 52.2504L46.6278 80.8894C46.6278 80.8894 62.5657 80.9184 69.6467 73.5998C82.7998 60.0063 65.8581 52.2504 65.8581 52.2504Z" fill="url(#paint111_linear_10608_34206)"/>
<path d="M63.5472 55.6939C67.8298 68.0316 66.0276 74.8804 60.2701 78.8098C53.5463 80.8839 46.6606 80.8888 46.6272 80.8887L63.5472 55.6939Z" fill="url(#paint112_linear_10608_34206)"/>
<path d="M71.1117 48.9794L90.342 20.3403C90.342 20.3403 74.404 20.3113 67.323 27.6299C54.17 41.2235 71.1117 48.9794 71.1117 48.9794Z" fill="url(#paint113_linear_10608_34206)"/>
<path d="M73.4186 45.5381C69.135 33.1986 70.941 26.3494 76.6996 22.42C83.4394 20.3411 90.3425 20.341 90.3425 20.341L73.4186 45.5381Z" fill="url(#paint114_linear_10608_34206)"/>
<path d="M68.7827 49.7603L71.1172 15.3429C71.1172 15.3429 57.3 23.2868 54.827 33.1654C50.2329 51.5143 68.7827 49.7603 68.7827 49.7603Z" fill="url(#paint115_linear_10608_34206)"/>
<path d="M69.0602 45.6219C59.1771 37.0733 57.3173 30.2375 60.3471 23.9527C65.143 18.7878 71.1159 15.3425 71.1159 15.3425L69.0602 45.6219Z" fill="url(#paint116_linear_10608_34206)"/>
<path d="M67.2695 52.728L64.9351 87.1453C64.9351 87.1453 78.7523 79.2015 81.2253 69.3229C85.8194 50.974 67.2695 52.728 67.2695 52.728Z" fill="url(#paint117_linear_10608_34206)"/>
<path d="M66.9896 56.8663C76.8735 65.4154 78.7327 72.2505 75.7028 78.5356C70.9069 83.7005 64.9339 87.1457 64.9339 87.1457L66.9896 56.8663Z" fill="url(#paint118_linear_10608_34206)"/>
<path d="M65.975 49.9748L37.3359 30.7445C37.3359 30.7445 37.3069 46.6824 44.6255 53.7634C58.2191 66.9165 65.975 49.9748 65.975 49.9748Z" fill="url(#paint119_linear_10608_34206)"/>
<path d="M62.5339 47.6649C50.1934 51.9485 43.3447 50.1444 39.4158 44.3838C37.3378 37.645 37.3391 30.7449 37.3391 30.7449L62.5339 47.6649Z" fill="url(#paint120_linear_10608_34206)"/>
<path d="M67.8917 53.1346L96.5308 72.3649C96.5308 72.3649 96.5598 56.427 89.2412 49.346C75.6476 36.1929 67.8917 53.1346 67.8917 53.1346Z" fill="url(#paint121_linear_10608_34206)"/>
<path d="M71.3308 55.4467C83.6735 51.1617 90.5236 52.9644 94.4529 58.7255C96.5259 65.4487 96.5296 72.3329 96.5296 72.3645L71.3308 55.4467Z" fill="url(#paint122_linear_10608_34206)"/>
<path d="M65.2577 51.2214L34.2842 66.4083C34.2842 66.4083 48.0724 74.4024 57.864 71.6048C76.0516 66.409 65.2577 51.2214 65.2577 51.2214Z" fill="url(#paint123_linear_10608_34206)"/>
<path d="M61.5348 53.0466C59.0748 65.8735 54.0898 70.9028 47.1387 71.427C40.2625 69.8575 34.2842 66.406 34.2842 66.406L61.5348 53.0466Z" fill="url(#paint124_linear_10608_34206)"/>
<path d="M71.4416 51.0145L102.415 35.8275C102.415 35.8275 88.6269 27.8334 78.8352 30.631C60.6476 35.8268 71.4416 51.0145 71.4416 51.0145Z" fill="url(#paint125_linear_10608_34206)"/>
<path d="M75.1644 49.1883C77.6249 36.3585 82.6116 31.3303 89.565 30.8079C96.3827 32.3647 102.317 35.7677 102.415 35.8244L75.1644 49.1883Z" fill="url(#paint126_linear_10608_34206)"/>
<path d="M75.5508 50.1362C75.5508 54.1093 72.33 57.3301 68.3569 57.3301C64.3839 57.3301 61.1631 54.1093 61.1631 50.1362C61.1631 46.1632 64.3839 42.9424 68.3569 42.9424C72.33 42.9424 75.5508 46.1632 75.5508 50.1362Z" fill="url(#paint127_radial_10608_34206)"/>
<path d="M70.4523 25.1469C78.2508 20.3171 90.3426 20.3377 90.3426 20.3377L90.3381 20.3422H90.3426L83.8252 30.0418C87.4179 30.1097 91.1393 31.0625 94.3 32.1782C94.884 32.3844 95.4487 32.5967 95.9902 32.8092C99.7391 34.2806 102.363 35.793 102.417 35.8245L102.413 35.829L91.3162 41.2692C98.4174 46.0697 103.513 54.9261 103.513 54.9261L92.6729 54.1869C96.5332 61.8932 96.5311 72.2868 96.531 72.3645L96.522 72.36L96.5265 72.3645L89.1437 67.4066C88.1631 75.5379 83.5412 83.5243 83.5412 83.5243L79.016 74.2936C78.5899 74.9711 78.1306 75.6355 77.6368 76.2767C75.9943 78.4094 74.0368 80.3281 72.156 81.9378C71.2147 82.7435 70.2917 83.4708 69.4382 84.1103C66.879 86.0275 64.9355 87.1481 64.9355 87.1481L65.6476 76.5832C57.8808 80.8889 46.7077 80.8877 46.6272 80.8876L52.4685 72.1752C43.7292 71.8498 34.3887 66.4651 34.2864 66.4059L43.373 61.9483C36.4272 57.1208 31.4653 48.5161 31.4424 48.4763L41.3087 49.1433C37.3396 41.4243 37.3377 30.8452 37.3378 30.7449L47.2086 37.3705C47.1546 28.3273 52.9959 18.2464 52.9959 18.2464L57.5121 27.4636C58.1772 26.4876 58.9146 25.5471 59.6981 24.6556C61.4748 22.6346 63.4682 20.8507 65.287 19.4002C66.1963 18.6751 67.0612 18.032 67.8336 17.4847C69.7353 16.1371 71.0747 15.3669 71.1149 15.3438H71.1194L70.4523 25.1469Z" fill="url(#paint128_radial_10608_34206)"/>
<defs>
<radialGradient id="paint0_radial_10608_34206" cx="0" cy="0" r="1" gradientTransform="matrix(198.173 2.3077 1.48856 -88.1244 108.005 66.884)" gradientUnits="userSpaceOnUse">
<stop offset="0.163462" stop-color="#CAECE5"/>
<stop offset="0.427885" stop-color="#ABE7F1"/>
<stop offset="0.807692" stop-color="#99B0E5"/>
</radialGradient>
<radialGradient id="paint1_radial_10608_34206" cx="0" cy="0" r="1" gradientUnits="userSpaceOnUse" gradientTransform="translate(107.428 96.0074) rotate(1.21331) scale(136.761 27.734)">
<stop stop-color="#FFDABB"/>
<stop offset="1" stop-color="#F8B5FF" stop-opacity="0"/>
</radialGradient>
<radialGradient id="paint2_radial_10608_34206" cx="0" cy="0" r="1" gradientTransform="matrix(121.442 -6.92308 3.91088 68.6073 49.7361 28.5189)" gradientUnits="userSpaceOnUse">
<stop offset="0.296012" stop-color="white"/>
<stop offset="1" stop-color="white" stop-opacity="0"/>
</radialGradient>
<radialGradient id="paint3_radial_10608_34206" cx="0" cy="0" r="1" gradientTransform="matrix(38.981 -1.92755 1.25863 21.5316 173.373 32.9701)" gradientUnits="userSpaceOnUse">
<stop offset="0.29078" stop-color="white"/>
<stop offset="1" stop-color="white" stop-opacity="0"/>
</radialGradient>
<radialGradient id="paint4_radial_10608_34206" cx="0" cy="0" r="1" gradientTransform="matrix(22.5433 0 0.111874 12.4576 217.834 70.3085)" gradientUnits="userSpaceOnUse">
<stop offset="0.312195" stop-color="white" stop-opacity="0"/>
<stop offset="0.788462" stop-color="white"/>
</radialGradient>
<radialGradient id="paint5_radial_10608_34206" cx="0" cy="0" r="1" gradientTransform="matrix(-27.9212 0 -0.138563 15.4294 208.513 71.646)" gradientUnits="userSpaceOnUse">
<stop offset="0.312195" stop-color="white" stop-opacity="0"/>
<stop offset="0.788462" stop-color="white"/>
</radialGradient>
<radialGradient id="paint6_radial_10608_34206" cx="0" cy="0" r="1" gradientTransform="matrix(11.6911 0 0.0580188 6.46058 146.481 77.8203)" gradientUnits="userSpaceOnUse">
<stop offset="0.312195" stop-color="white" stop-opacity="0"/>
<stop offset="0.788462" stop-color="white"/>
</radialGradient>
<radialGradient id="paint7_radial_10608_34206" cx="0" cy="0" r="1" gradientTransform="matrix(-14.4801 0 -0.0718596 8.0018 141.649 78.5139)" gradientUnits="userSpaceOnUse">
<stop offset="0.312195" stop-color="white" stop-opacity="0"/>
<stop offset="0.788462" stop-color="white"/>
</radialGradient>
<linearGradient id="paint8_linear_10608_34206" x1="38.9385" y1="79.3958" x2="28.3023" y2="98.3089" gradientUnits="userSpaceOnUse">
<stop stop-color="#474E12"/>
<stop offset="1" stop-color="#195042"/>
</linearGradient>
<radialGradient id="paint9_radial_10608_34206" cx="0" cy="0" r="1" gradientTransform="matrix(-7.01616 23.1678 17.9113 10.2112 44.8956 74.0023)" gradientUnits="userSpaceOnUse">
<stop stop-color="#869700"/>
<stop offset="1" stop-color="#1EB203" stop-opacity="0"/>
</radialGradient>
<linearGradient id="paint10_linear_10608_34206" x1="36.3683" y1="76.935" x2="31.6932" y2="96.367" gradientUnits="userSpaceOnUse">
<stop stop-color="#07130B" stop-opacity="0"/>
<stop offset="1" stop-color="#07130B"/>
</linearGradient>
<linearGradient id="paint11_linear_10608_34206" x1="96.0196" y1="74.7263" x2="104.863" y2="104.609" gradientUnits="userSpaceOnUse">
<stop stop-color="#474E12"/>
<stop offset="1" stop-color="#195042"/>
</linearGradient>
<radialGradient id="paint12_radial_10608_34206" cx="0" cy="0" r="1" gradientTransform="matrix(24.4428 28.163 -47.926 14.3634 78.2457 68.5714)" gradientUnits="userSpaceOnUse">
<stop stop-color="#869700"/>
<stop offset="1" stop-color="#1EB203" stop-opacity="0"/>
</radialGradient>
<linearGradient id="paint13_linear_10608_34206" x1="106.936" y1="77.6243" x2="113.64" y2="99.8599" gradientUnits="userSpaceOnUse">
<stop stop-color="#1E3C14" stop-opacity="0"/>
<stop offset="1" stop-color="#07130B"/>
</linearGradient>
<linearGradient id="paint14_linear_10608_34206" x1="47.8903" y1="79.0224" x2="39.4586" y2="104.362" gradientUnits="userSpaceOnUse">
<stop stop-color="#474E12"/>
<stop offset="1" stop-color="#195042"/>
</linearGradient>
<radialGradient id="paint15_radial_10608_34206" cx="0" cy="0" r="1" gradientTransform="matrix(-13.5083 26.1595 31.1008 10.5049 58.6629 72.7214)" gradientUnits="userSpaceOnUse">
<stop stop-color="#869700"/>
<stop offset="1" stop-color="#1EB203" stop-opacity="0"/>
</radialGradient>
<linearGradient id="paint16_linear_10608_34206" x1="41.0243" y1="83.4038" x2="35.6655" y2="118.007" gradientUnits="userSpaceOnUse">
<stop stop-color="#07130B" stop-opacity="0"/>
<stop offset="1" stop-color="#07130B"/>
</linearGradient>
<linearGradient id="paint17_linear_10608_34206" x1="195.918" y1="71.9607" x2="184.545" y2="97.0623" gradientUnits="userSpaceOnUse">
<stop stop-color="#474E12"/>
<stop offset="1" stop-color="#195042"/>
</linearGradient>
<radialGradient id="paint18_radial_10608_34206" cx="0" cy="0" r="1" gradientTransform="matrix(-38.0714 12.0297 15.1828 26.8227 210.35 66.6243)" gradientUnits="userSpaceOnUse">
<stop stop-color="#869700"/>
<stop offset="1" stop-color="#1EB203" stop-opacity="0"/>
</radialGradient>
<linearGradient id="paint19_linear_10608_34206" x1="191.33" y1="67.5179" x2="181.437" y2="95.4674" gradientUnits="userSpaceOnUse">
<stop stop-color="#07130B" stop-opacity="0"/>
<stop offset="1" stop-color="#07130B"/>
</linearGradient>
<linearGradient id="paint20_linear_10608_34206" x1="188.68" y1="74.0779" x2="174.563" y2="101.402" gradientUnits="userSpaceOnUse">
<stop stop-color="#474E12"/>
<stop offset="1" stop-color="#195042"/>
</linearGradient>
<radialGradient id="paint21_radial_10608_34206" cx="0" cy="0" r="1" gradientTransform="matrix(-23.4573 25.5843 37.0696 19.3436 203.9 69.7826)" gradientUnits="userSpaceOnUse">
<stop stop-color="#869700"/>
<stop offset="1" stop-color="#1EB203" stop-opacity="0"/>
</radialGradient>
<radialGradient id="paint22_radial_10608_34206" cx="0" cy="0" r="1" gradientUnits="userSpaceOnUse" gradientTransform="translate(44.3553 97.1075) rotate(175.73) scale(27.8755 16.2684)">
<stop offset="0.222932" stop-color="#2C5319" stop-opacity="0"/>
<stop offset="0.604806" stop-color="#557B0C" stop-opacity="0.610723"/>
<stop offset="1" stop-color="#869700"/>
</radialGradient>
<radialGradient id="paint23_radial_10608_34206" cx="0" cy="0" r="1" gradientTransform="matrix(15.5248 5.51816 -3.22799 9.05608 89.9234 83.5441)" gradientUnits="userSpaceOnUse">
<stop stop-color="#869700"/>
<stop offset="1" stop-color="#1EB203" stop-opacity="0"/>
</radialGradient>
<radialGradient id="paint24_radial_10608_34206" cx="0" cy="0" r="1" gradientTransform="matrix(5.12329 14.3342 -10.0454 7.31062 177.583 82.4135)" gradientUnits="userSpaceOnUse">
<stop stop-color="#869700"/>
<stop offset="1" stop-color="#1EB203" stop-opacity="0"/>
</radialGradient>
<radialGradient id="paint25_radial_10608_34206" cx="0" cy="0" r="1" gradientUnits="userSpaceOnUse" gradientTransform="translate(135.536 35.139) scale(43.3074 21.8434)">
<stop offset="0.262651" stop-color="white" stop-opacity="0"/>
<stop offset="1" stop-color="white"/>
</radialGradient>
<linearGradient id="paint26_linear_10608_34206" x1="133.354" y1="73.2689" x2="241.677" y2="106.874" gradientUnits="userSpaceOnUse">
<stop stop-color="#20AC9D"/>
<stop offset="1" stop-color="#309C61"/>
</linearGradient>
<radialGradient id="paint27_radial_10608_34206" cx="0" cy="0" r="1" gradientUnits="userSpaceOnUse" gradientTransform="translate(161.911 86.6567) rotate(-170.562) scale(58.7763 23.5283)">
<stop stop-color="#052D31" stop-opacity="0"/>
<stop offset="0.362941" stop-color="#052D31" stop-opacity="0.228222"/>
<stop offset="1" stop-color="#052D31"/>
</radialGradient>
<radialGradient id="paint28_radial_10608_34206" cx="0" cy="0" r="1" gradientUnits="userSpaceOnUse" gradientTransform="translate(169.7 83.3651) rotate(174.928) scale(97.8833 23.5969)">
<stop stop-color="#FFD638" stop-opacity="0.6"/>
<stop offset="1" stop-color="#FFD394" stop-opacity="0"/>
</radialGradient>
<linearGradient id="paint29_linear_10608_34206" x1="171.427" y1="84.9102" x2="173.008" y2="89.7381" gradientUnits="userSpaceOnUse">
<stop stop-color="#FFBB32"/>
<stop offset="1" stop-color="#FE7800"/>
</linearGradient>
<linearGradient id="paint30_linear_10608_34206" x1="170.291" y1="95.7241" x2="172.835" y2="105.556" gradientUnits="userSpaceOnUse">
<stop stop-color="#FFCF30"/>
<stop offset="1" stop-color="#FF8801"/>
</linearGradient>
<linearGradient id="paint31_linear_10608_34206" x1="159.58" y1="84.4135" x2="162.557" y2="92.032" gradientUnits="userSpaceOnUse">
<stop stop-color="#FFCF30"/>
<stop offset="1" stop-color="#FF8801"/>
</linearGradient>
<linearGradient id="paint32_linear_10608_34206" x1="211.017" y1="90.6514" x2="213.056" y2="96.8796" gradientUnits="userSpaceOnUse">
<stop stop-color="#FFBB32"/>
<stop offset="1" stop-color="#FE7800"/>
</linearGradient>
<linearGradient id="paint33_linear_10608_34206" x1="184.416" y1="93.5516" x2="186.759" y2="101.022" gradientUnits="userSpaceOnUse">
<stop stop-color="#FFCF30"/>
<stop offset="1" stop-color="#FF8801"/>
</linearGradient>
<linearGradient id="paint34_linear_10608_34206" x1="144.326" y1="88.3571" x2="147.242" y2="97.6551" gradientUnits="userSpaceOnUse">
<stop stop-color="#FFCF30"/>
<stop offset="1" stop-color="#FF8801"/>
</linearGradient>
<linearGradient id="paint35_linear_10608_34206" x1="202.283" y1="93.472" x2="204.816" y2="101.548" gradientUnits="userSpaceOnUse">
<stop stop-color="#F2A100"/>
<stop offset="1" stop-color="#C35400"/>
</linearGradient>
<linearGradient id="paint36_linear_10608_34206" x1="173.366" y1="90.4417" x2="174.411" y2="93.0764" gradientUnits="userSpaceOnUse">
<stop stop-color="#FFBB32"/>
<stop offset="1" stop-color="#FE7800"/>
</linearGradient>
<linearGradient id="paint37_linear_10608_34206" x1="198.735" y1="92.2278" x2="199.78" y2="94.8625" gradientUnits="userSpaceOnUse">
<stop stop-color="#FFBB32"/>
<stop offset="1" stop-color="#FE7800"/>
</linearGradient>
<linearGradient id="paint38_linear_10608_34206" x1="169.315" y1="92.2908" x2="170.746" y2="95.8972" gradientUnits="userSpaceOnUse">
<stop stop-color="#FFBB32"/>
<stop offset="1" stop-color="#FE7800"/>
</linearGradient>
<linearGradient id="paint39_linear_10608_34206" x1="175.945" y1="93.3691" x2="177.376" y2="96.9755" gradientUnits="userSpaceOnUse">
<stop stop-color="#FFBB32"/>
<stop offset="1" stop-color="#FE7800"/>
</linearGradient>
<linearGradient id="paint40_linear_10608_34206" x1="186.761" y1="101.833" x2="191.703" y2="111.752" gradientUnits="userSpaceOnUse">
<stop stop-color="#FFBB32"/>
<stop offset="1" stop-color="#FE7800"/>
</linearGradient>
<linearGradient id="paint41_linear_10608_34206" x1="157.855" y1="92.5005" x2="154.482" y2="99.2725" gradientUnits="userSpaceOnUse">
<stop stop-color="#FFBB32"/>
<stop offset="1" stop-color="#FE7800"/>
</linearGradient>
<linearGradient id="paint42_linear_10608_34206" x1="182.194" y1="83.4947" x2="177.629" y2="95.0866" gradientUnits="userSpaceOnUse">
<stop stop-color="#FFCF30"/>
<stop offset="1" stop-color="#FF8801"/>
</linearGradient>
<linearGradient id="paint43_linear_10608_34206" x1="193.624" y1="102.466" x2="198.199" y2="98.2101" gradientUnits="userSpaceOnUse">
<stop stop-color="#FFBB32"/>
<stop offset="1" stop-color="#FE7800"/>
</linearGradient>
<linearGradient id="paint44_linear_10608_34206" x1="71.0224" y1="71.7506" x2="205.083" y2="117.137" gradientUnits="userSpaceOnUse">
<stop stop-color="#20AC9D"/>
<stop offset="1" stop-color="#309C61"/>
</linearGradient>
<radialGradient id="paint45_radial_10608_34206" cx="0" cy="0" r="1" gradientTransform="matrix(-78.299 -8.6242 -3.51394 28.6821 112.297 84.6988)" gradientUnits="userSpaceOnUse">
<stop stop-color="#619B74" stop-opacity="0"/>
<stop offset="1" stop-color="#084E55"/>
</radialGradient>
<radialGradient id="paint46_radial_10608_34206" cx="0" cy="0" r="1" gradientTransform="matrix(-136.442 -17.5086 -5.27382 29.2068 118.643 89.3191)" gradientUnits="userSpaceOnUse">
<stop stop-color="#FFD638" stop-opacity="0.5"/>
<stop offset="1" stop-color="#FFD394" stop-opacity="0"/>
</radialGradient>
<linearGradient id="paint47_linear_10608_34206" x1="106.813" y1="97.321" x2="103.637" y2="107.022" gradientUnits="userSpaceOnUse">
<stop stop-color="#FFC8BC"/>
<stop offset="1" stop-color="#FF8889"/>
</linearGradient>
<linearGradient id="paint48_linear_10608_34206" x1="117.573" y1="104.686" x2="120.431" y2="113.418" gradientUnits="userSpaceOnUse">
<stop stop-color="#FFC8BC"/>
<stop offset="1" stop-color="#FF8889"/>
</linearGradient>
<linearGradient id="paint49_linear_10608_34206" x1="147.829" y1="102.457" x2="150.451" y2="110.466" gradientUnits="userSpaceOnUse">
<stop stop-color="#FFC8BC"/>
<stop offset="1" stop-color="#FF8889"/>
</linearGradient>
<linearGradient id="paint50_linear_10608_34206" x1="129.608" y1="97.5766" x2="132.525" y2="108.851" gradientUnits="userSpaceOnUse">
<stop stop-color="#FFE7DE"/>
<stop offset="1" stop-color="#FFB2AE"/>
</linearGradient>
<linearGradient id="paint51_linear_10608_34206" x1="157.523" y1="105.857" x2="161.853" y2="122.593" gradientUnits="userSpaceOnUse">
<stop stop-color="#FFE7DE"/>
<stop offset="1" stop-color="#FFB2AE"/>
</linearGradient>
<linearGradient id="paint52_linear_10608_34206" x1="137.1" y1="106.446" x2="138.662" y2="110.383" gradientUnits="userSpaceOnUse">
<stop stop-color="#FFC8BC"/>
<stop offset="1" stop-color="#FF8889"/>
</linearGradient>
<linearGradient id="paint53_linear_10608_34206" x1="130.169" y1="110.843" x2="132.108" y2="115.73" gradientUnits="userSpaceOnUse">
<stop stop-color="#FFC8BC"/>
<stop offset="1" stop-color="#FF8889"/>
</linearGradient>
<linearGradient id="paint54_linear_10608_34206" x1="143.221" y1="108.404" x2="147.121" y2="120.84" gradientUnits="userSpaceOnUse">
<stop stop-color="#FFE7DE"/>
<stop offset="1" stop-color="#FFB2AE"/>
</linearGradient>
<linearGradient id="paint55_linear_10608_34206" x1="66.9543" y1="101.416" x2="64.2785" y2="109.592" gradientUnits="userSpaceOnUse">
<stop stop-color="#FFC8BC"/>
<stop offset="1" stop-color="#FF8889"/>
</linearGradient>
<linearGradient id="paint56_linear_10608_34206" x1="62.2707" y1="92.1219" x2="59.4348" y2="103.083" gradientUnits="userSpaceOnUse">
<stop stop-color="#FF957D"/>
<stop offset="1" stop-color="#FF4D57"/>
</linearGradient>
<linearGradient id="paint57_linear_10608_34206" x1="96.5328" y1="107.796" x2="92.0007" y2="125.312" gradientUnits="userSpaceOnUse">
<stop stop-color="#FF957D"/>
<stop offset="1" stop-color="#FF4D57"/>
</linearGradient>
<linearGradient id="paint58_linear_10608_34206" x1="94.0725" y1="91.7539" x2="91.0949" y2="103.262" gradientUnits="userSpaceOnUse">
<stop stop-color="#FFE7DE"/>
<stop offset="1" stop-color="#FFB2AE"/>
</linearGradient>
<linearGradient id="paint59_linear_10608_34206" x1="58.3184" y1="106.611" x2="53.8982" y2="123.695" gradientUnits="userSpaceOnUse">
<stop stop-color="#FF957D"/>
<stop offset="1" stop-color="#FF4D57"/>
</linearGradient>
<linearGradient id="paint60_linear_10608_34206" x1="31.1326" y1="91.4277" x2="28.8601" y2="98.3709" gradientUnits="userSpaceOnUse">
<stop stop-color="#FFC8BC"/>
<stop offset="1" stop-color="#FF8889"/>
</linearGradient>
<linearGradient id="paint61_linear_10608_34206" x1="89.0206" y1="88.6377" x2="87.0263" y2="94.7309" gradientUnits="userSpaceOnUse">
<stop stop-color="#FFC8BC"/>
<stop offset="1" stop-color="#FF8889"/>
</linearGradient>
<linearGradient id="paint62_linear_10608_34206" x1="86.4262" y1="100.808" x2="84.8319" y2="104.827" gradientUnits="userSpaceOnUse">
<stop stop-color="#FFC8BC"/>
<stop offset="1" stop-color="#FF8889"/>
</linearGradient>
<linearGradient id="paint63_linear_10608_34206" x1="90.9202" y1="103.734" x2="88.941" y2="108.723" gradientUnits="userSpaceOnUse">
<stop stop-color="#FFC8BC"/>
<stop offset="1" stop-color="#FF8889"/>
</linearGradient>
<linearGradient id="paint64_linear_10608_34206" x1="50.0667" y1="92.8942" x2="47.455" y2="101.222" gradientUnits="userSpaceOnUse">
<stop stop-color="#FF957D"/>
<stop offset="1" stop-color="#FF4D57"/>
</linearGradient>
<linearGradient id="paint65_linear_10608_34206" x1="80.1786" y1="102.808" x2="76.1973" y2="115.502" gradientUnits="userSpaceOnUse">
<stop stop-color="#FF957D"/>
<stop offset="1" stop-color="#FF4D57"/>
</linearGradient>
<linearGradient id="paint66_linear_10608_34206" x1="58.8407" y1="86.2322" x2="57.6755" y2="89.1693" gradientUnits="userSpaceOnUse">
<stop stop-color="#FFC8BC"/>
<stop offset="1" stop-color="#FF8889"/>
</linearGradient>
<linearGradient id="paint67_linear_10608_34206" x1="63.3549" y1="88.293" x2="61.7599" y2="92.3133" gradientUnits="userSpaceOnUse">
<stop stop-color="#FFC8BC"/>
<stop offset="1" stop-color="#FF8889"/>
</linearGradient>
<linearGradient id="paint68_linear_10608_34206" x1="55.9633" y1="89.4963" x2="54.3683" y2="93.5167" gradientUnits="userSpaceOnUse">
<stop stop-color="#FFC8BC"/>
<stop offset="1" stop-color="#FF8889"/>
</linearGradient>
<linearGradient id="paint69_linear_10608_34206" x1="73.1105" y1="112.351" x2="70.3368" y2="119.343" gradientUnits="userSpaceOnUse">
<stop stop-color="#FFC8BC"/>
<stop offset="1" stop-color="#FF8889"/>
</linearGradient>
<linearGradient id="paint70_linear_10608_34206" x1="47.5336" y1="101.416" x2="42.0252" y2="112.474" gradientUnits="userSpaceOnUse">
<stop stop-color="#FFC8BC"/>
<stop offset="1" stop-color="#FF8889"/>
</linearGradient>
<linearGradient id="paint71_linear_10608_34206" x1="76.1316" y1="88.5273" x2="79.8922" y2="96.0768" gradientUnits="userSpaceOnUse">
<stop stop-color="#FFC8BC"/>
<stop offset="1" stop-color="#FF8889"/>
</linearGradient>
<linearGradient id="paint72_linear_10608_34206" x1="41.4" y1="92.7332" x2="36.2997" y2="87.9884" gradientUnits="userSpaceOnUse">
<stop stop-color="#FFC8BC"/>
<stop offset="1" stop-color="#FF8889"/>
</linearGradient>
<linearGradient id="paint73_linear_10608_34206" x1="127.903" y1="54.8899" x2="160.559" y2="130.183" gradientUnits="userSpaceOnUse">
<stop stop-color="#04C8B1"/>
<stop offset="1" stop-color="#026257"/>
</linearGradient>
<linearGradient id="paint74_linear_10608_34206" x1="169.286" y1="95.7028" x2="173.137" y2="95.7028" gradientUnits="userSpaceOnUse">
<stop offset="0.242872" stop-color="#B9C546"/>
<stop offset="0.739175" stop-color="#527717"/>
</linearGradient>
<linearGradient id="paint75_linear_10608_34206" x1="166.684" y1="76.8507" x2="201.248" y2="127.015" gradientUnits="userSpaceOnUse">
<stop stop-color="#04C8B1"/>
<stop offset="1" stop-color="#026257"/>
</linearGradient>
<linearGradient id="paint76_linear_10608_34206" x1="120.828" y1="30.0168" x2="120.828" y2="52.6601" gradientUnits="userSpaceOnUse">
<stop stop-color="#F879C6"/>
<stop offset="1" stop-color="#ED3CE7"/>
</linearGradient>
<linearGradient id="paint77_linear_10608_34206" x1="125.799" y1="37.039" x2="120.674" y2="48.1677" gradientUnits="userSpaceOnUse">
<stop stop-color="#F446E1"/>
<stop offset="1" stop-color="#AC16D8"/>
</linearGradient>
<linearGradient id="paint78_linear_10608_34206" x1="134.85" y1="73.2939" x2="134.85" y2="50.6507" gradientUnits="userSpaceOnUse">
<stop stop-color="#F879C6"/>
<stop offset="1" stop-color="#ED3CE7"/>
</linearGradient>
<linearGradient id="paint79_linear_10608_34206" x1="129.881" y1="66.2715" x2="135.007" y2="55.1423" gradientUnits="userSpaceOnUse">
<stop stop-color="#F446E1"/>
<stop offset="1" stop-color="#AC16D8"/>
</linearGradient>
<linearGradient id="paint80_linear_10608_34206" x1="104.979" y1="47.361" x2="124.589" y2="58.6826" gradientUnits="userSpaceOnUse">
<stop stop-color="#F879C6"/>
<stop offset="1" stop-color="#ED3CE7"/>
</linearGradient>
<linearGradient id="paint81_linear_10608_34206" x1="113.548" y1="46.568" x2="120.623" y2="56.5716" gradientUnits="userSpaceOnUse">
<stop stop-color="#F446E1"/>
<stop offset="1" stop-color="#AC16D8"/>
</linearGradient>
<linearGradient id="paint82_linear_10608_34206" x1="149.651" y1="57.0316" x2="130.041" y2="45.7099" gradientUnits="userSpaceOnUse">
<stop stop-color="#F879C6"/>
<stop offset="1" stop-color="#ED3CE7"/>
</linearGradient>
<linearGradient id="paint83_linear_10608_34206" x1="141.083" y1="57.8236" x2="134.007" y2="47.82" gradientUnits="userSpaceOnUse">
<stop stop-color="#F446E1"/>
<stop offset="1" stop-color="#AC16D8"/>
</linearGradient>
<linearGradient id="paint84_linear_10608_34206" x1="111.932" y1="68.8503" x2="131.542" y2="57.5287" gradientUnits="userSpaceOnUse">
<stop stop-color="#F879C6"/>
<stop offset="1" stop-color="#ED3CE7"/>
</linearGradient>
<linearGradient id="paint85_linear_10608_34206" x1="115.527" y1="61.0322" x2="127.729" y2="59.9048" gradientUnits="userSpaceOnUse">
<stop stop-color="#F446E1"/>
<stop offset="1" stop-color="#AC16D8"/>
</linearGradient>
<linearGradient id="paint86_linear_10608_34206" x1="144.03" y1="34.1021" x2="124.42" y2="45.4237" gradientUnits="userSpaceOnUse">
<stop stop-color="#F879C6"/>
<stop offset="1" stop-color="#ED3CE7"/>
</linearGradient>
<linearGradient id="paint87_linear_10608_34206" x1="140.435" y1="41.9202" x2="128.233" y2="43.0476" gradientUnits="userSpaceOnUse">
<stop stop-color="#F446E1"/>
<stop offset="1" stop-color="#AC16D8"/>
</linearGradient>
<radialGradient id="paint88_radial_10608_34206" cx="0" cy="0" r="1" gradientUnits="userSpaceOnUse" gradientTransform="translate(127.012 49.9223) rotate(81.6341) scale(6.07058)">
<stop offset="0.543269" stop-color="#FFCE5C"/>
<stop offset="1" stop-color="#715419"/>
</radialGradient>
<linearGradient id="paint89_linear_10608_34206" x1="165.138" y1="45.7358" x2="165.138" y2="66.3935" gradientUnits="userSpaceOnUse">
<stop stop-color="#FE9C59"/>
<stop offset="1" stop-color="#F6261A"/>
</linearGradient>
<linearGradient id="paint90_linear_10608_34206" x1="169.669" y1="52.1432" x2="164.992" y2="62.2967" gradientUnits="userSpaceOnUse">
<stop stop-color="#FC3F24"/>
<stop offset="1" stop-color="#CA0A32"/>
</linearGradient>
<linearGradient id="paint91_linear_10608_34206" x1="177.931" y1="85.2168" x2="177.931" y2="64.5592" gradientUnits="userSpaceOnUse">
<stop stop-color="#FE9C59"/>
<stop offset="1" stop-color="#F6261A"/>
</linearGradient>
<linearGradient id="paint92_linear_10608_34206" x1="173.396" y1="78.8098" x2="178.073" y2="68.6563" gradientUnits="userSpaceOnUse">
<stop stop-color="#FC3F24"/>
<stop offset="1" stop-color="#CA0A32"/>
</linearGradient>
<linearGradient id="paint93_linear_10608_34206" x1="150.68" y1="61.5586" x2="168.57" y2="71.8874" gradientUnits="userSpaceOnUse">
<stop stop-color="#FE9C59"/>
<stop offset="1" stop-color="#F6261A"/>
</linearGradient>
<linearGradient id="paint94_linear_10608_34206" x1="158.497" y1="60.8321" x2="164.953" y2="69.9588" gradientUnits="userSpaceOnUse">
<stop stop-color="#FC3F24"/>
<stop offset="1" stop-color="#CA0A32"/>
</linearGradient>
<linearGradient id="paint95_linear_10608_34206" x1="191.434" y1="70.3799" x2="173.544" y2="60.0511" gradientUnits="userSpaceOnUse">
<stop stop-color="#FE9C59"/>
<stop offset="1" stop-color="#F6261A"/>
</linearGradient>
<linearGradient id="paint96_linear_10608_34206" x1="183.619" y1="71.1019" x2="177.165" y2="61.9743" gradientUnits="userSpaceOnUse">
<stop stop-color="#FC3F24"/>
<stop offset="1" stop-color="#CA0A32"/>
</linearGradient>
<linearGradient id="paint97_linear_10608_34206" x1="157.023" y1="81.1626" x2="174.913" y2="70.8338" gradientUnits="userSpaceOnUse">
<stop stop-color="#FE9C59"/>
<stop offset="1" stop-color="#F6261A"/>
</linearGradient>
<linearGradient id="paint98_linear_10608_34206" x1="160.306" y1="74.0343" x2="171.437" y2="73.0078" gradientUnits="userSpaceOnUse">
<stop stop-color="#FC3F24"/>
<stop offset="1" stop-color="#CA0A32"/>
</linearGradient>
<linearGradient id="paint99_linear_10608_34206" x1="186.307" y1="49.4619" x2="168.417" y2="59.7908" gradientUnits="userSpaceOnUse">
<stop stop-color="#FE9C59"/>
<stop offset="1" stop-color="#F6261A"/>
</linearGradient>
<linearGradient id="paint100_linear_10608_34206" x1="183.026" y1="56.5936" x2="171.893" y2="57.6213" gradientUnits="userSpaceOnUse">
<stop stop-color="#FC3F24"/>
<stop offset="1" stop-color="#CA0A32"/>
</linearGradient>
<radialGradient id="paint101_radial_10608_34206" cx="0" cy="0" r="1" gradientUnits="userSpaceOnUse" gradientTransform="translate(170.781 63.8948) rotate(81.6341) scale(5.53825)">
<stop offset="0.543269" stop-color="#FFCE5C"/>
<stop offset="1" stop-color="#715419"/>
</radialGradient>
<linearGradient id="paint102_linear_10608_34206" x1="62.6833" y1="84.5504" x2="122.005" y2="138.738" gradientUnits="userSpaceOnUse">
<stop stop-color="#04C8B1"/>
<stop offset="1" stop-color="#026257"/>
</linearGradient>
<linearGradient id="paint103_linear_10608_34206" x1="57.6947" y1="18.2485" x2="57.6947" y2="52.4016" gradientUnits="userSpaceOnUse">
<stop stop-color="#E8FF44"/>
<stop offset="1" stop-color="#FCC200"/>
</linearGradient>
<linearGradient id="paint104_linear_10608_34206" x1="65.193" y1="28.8457" x2="57.4586" y2="45.6407" gradientUnits="userSpaceOnUse">
<stop stop-color="#FFD80D"/>
<stop offset="1" stop-color="#C06200" stop-opacity="0.4"/>
</linearGradient>
<linearGradient id="paint105_linear_10608_34206" x1="78.8443" y1="83.5232" x2="78.8443" y2="49.3701" gradientUnits="userSpaceOnUse">
<stop stop-color="#E8FF44"/>
<stop offset="1" stop-color="#FCC200"/>
</linearGradient>
<linearGradient id="paint106_linear_10608_34206" x1="71.3437" y1="72.9278" x2="79.0759" y2="56.1346" gradientUnits="userSpaceOnUse">
<stop stop-color="#FFD80D"/>
<stop offset="1" stop-color="#C06200" stop-opacity="0.4"/>
</linearGradient>
<linearGradient id="paint107_linear_10608_34206" x1="33.7907" y1="44.4082" x2="63.3682" y2="61.4848" gradientUnits="userSpaceOnUse">
<stop stop-color="#E8FF44"/>
<stop offset="1" stop-color="#FCC200"/>
</linearGradient>
<linearGradient id="paint108_linear_10608_34206" x1="46.7182" y1="43.2115" x2="57.396" y2="58.3072" gradientUnits="userSpaceOnUse">
<stop stop-color="#FFD80D"/>
<stop offset="1" stop-color="#C06200" stop-opacity="0.4"/>
</linearGradient>
<linearGradient id="paint109_linear_10608_34206" x1="101.164" y1="58.9929" x2="71.5869" y2="41.9164" gradientUnits="userSpaceOnUse">
<stop stop-color="#E8FF44"/>
<stop offset="1" stop-color="#FCC200"/>
</linearGradient>
<linearGradient id="paint110_linear_10608_34206" x1="88.2364" y1="60.1884" x2="77.5586" y2="45.0927" gradientUnits="userSpaceOnUse">
<stop stop-color="#FFD80D"/>
<stop offset="1" stop-color="#C06200" stop-opacity="0.4"/>
</linearGradient>
<linearGradient id="paint111_linear_10608_34206" x1="44.2786" y1="76.8206" x2="73.856" y2="59.744" gradientUnits="userSpaceOnUse">
<stop stop-color="#E8FF44"/>
<stop offset="1" stop-color="#FCC200"/>
</linearGradient>
<linearGradient id="paint112_linear_10608_34206" x1="49.7044" y1="65.0278" x2="68.1139" y2="63.3275" gradientUnits="userSpaceOnUse">
<stop stop-color="#FFD80D"/>
<stop offset="1" stop-color="#C06200" stop-opacity="0.4"/>
</linearGradient>
<linearGradient id="paint113_linear_10608_34206" x1="92.6911" y1="24.4092" x2="63.1137" y2="41.4857" gradientUnits="userSpaceOnUse">
<stop stop-color="#E8FF44"/>
<stop offset="1" stop-color="#FCC200"/>
</linearGradient>
<linearGradient id="paint114_linear_10608_34206" x1="87.2638" y1="36.2028" x2="68.8517" y2="37.9022" gradientUnits="userSpaceOnUse">
<stop stop-color="#FFD80D"/>
<stop offset="1" stop-color="#C06200" stop-opacity="0.4"/>
</linearGradient>
<linearGradient id="paint115_linear_10608_34206" x1="75.186" y1="17.6921" x2="58.1095" y2="47.2695" gradientUnits="userSpaceOnUse">
<stop stop-color="#E8FF44"/>
<stop offset="1" stop-color="#FCC200"/>
</linearGradient>
<linearGradient id="paint116_linear_10608_34206" x1="76.3814" y1="30.6171" x2="61.2885" y2="41.2943" gradientUnits="userSpaceOnUse">
<stop stop-color="#FFD80D"/>
<stop offset="1" stop-color="#C06200" stop-opacity="0.4"/>
</linearGradient>
<linearGradient id="paint117_linear_10608_34206" x1="60.8662" y1="84.7962" x2="77.9428" y2="55.2188" gradientUnits="userSpaceOnUse">
<stop stop-color="#E8FF44"/>
<stop offset="1" stop-color="#FCC200"/>
</linearGradient>
<linearGradient id="paint118_linear_10608_34206" x1="59.6684" y1="71.8712" x2="74.7613" y2="61.1939" gradientUnits="userSpaceOnUse">
<stop stop-color="#FFD80D"/>
<stop offset="1" stop-color="#C06200" stop-opacity="0.4"/>
</linearGradient>
<linearGradient id="paint119_linear_10608_34206" x1="41.4048" y1="28.3953" x2="58.4813" y2="57.9727" gradientUnits="userSpaceOnUse">
<stop stop-color="#E8FF44"/>
<stop offset="1" stop-color="#FCC200"/>
</linearGradient>
<linearGradient id="paint120_linear_10608_34206" x1="53.1999" y1="33.8221" x2="54.9003" y2="52.2316" gradientUnits="userSpaceOnUse">
<stop stop-color="#FFD80D"/>
<stop offset="1" stop-color="#C06200" stop-opacity="0.4"/>
</linearGradient>
<linearGradient id="paint121_linear_10608_34206" x1="92.4619" y1="74.7141" x2="75.3854" y2="45.1366" gradientUnits="userSpaceOnUse">
<stop stop-color="#E8FF44"/>
<stop offset="1" stop-color="#FCC200"/>
</linearGradient>
<linearGradient id="paint122_linear_10608_34206" x1="80.6651" y1="69.2894" x2="78.963" y2="50.8793" gradientUnits="userSpaceOnUse">
<stop stop-color="#FFD80D"/>
<stop offset="1" stop-color="#C06200" stop-opacity="0.4"/>
</linearGradient>
<linearGradient id="paint123_linear_10608_34206" x1="34.2842" y1="61.71" x2="68.4372" y2="61.71" gradientUnits="userSpaceOnUse">
<stop stop-color="#E8FF44"/>
<stop offset="1" stop-color="#FCC200"/>
</linearGradient>
<linearGradient id="paint124_linear_10608_34206" x1="44.8796" y1="54.2086" x2="61.6728" y2="61.9409" gradientUnits="userSpaceOnUse">
<stop stop-color="#FFD80D"/>
<stop offset="1" stop-color="#C06200" stop-opacity="0.4"/>
</linearGradient>
<linearGradient id="paint125_linear_10608_34206" x1="102.415" y1="40.5258" x2="68.262" y2="40.5258" gradientUnits="userSpaceOnUse">
<stop stop-color="#E8FF44"/>
<stop offset="1" stop-color="#FCC200"/>
</linearGradient>
<linearGradient id="paint126_linear_10608_34206" x1="91.8197" y1="48.0262" x2="75.0264" y2="40.294" gradientUnits="userSpaceOnUse">
<stop stop-color="#FFD80D"/>
<stop offset="1" stop-color="#C06200" stop-opacity="0.4"/>
</linearGradient>
<radialGradient id="paint127_radial_10608_34206" cx="0" cy="0" r="1" gradientUnits="userSpaceOnUse" gradientTransform="translate(67.0247 48.2712) rotate(81.6341) scale(9.15634)">
<stop offset="0.0769231" stop-color="#BE8710"/>
<stop offset="1" stop-color="#3A1800"/>
</radialGradient>
<radialGradient id="paint128_radial_10608_34206" cx="0" cy="0" r="1" gradientUnits="userSpaceOnUse" gradientTransform="translate(67.4775 51.2459) rotate(90) scale(46.7916 46.9649)">
<stop offset="0.463661" stop-color="#FFDD54" stop-opacity="0"/>
<stop offset="0.975341" stop-color="#8B6105"/>
</radialGradient>
</defs>
</svg>
