<svg viewBox="0 0 240 120" fill="none" xmlns="http://www.w3.org/2000/svg">
<path d="M91.1922 4.229C154.86 4.229 203.302 36.5367 187.524 56.1521L28.3555 65.6713C1.22765 44.3252 27.5247 4.229 91.1922 4.229Z" fill="url(#paint0_radial_10551_776)"/>
<path d="M91.1922 4.229C154.86 4.229 203.302 36.5367 187.524 56.1521L28.3555 65.6713C1.22765 44.3252 27.5247 4.229 91.1922 4.229Z" fill="url(#paint1_radial_10551_776)"/>
<path d="M91.1922 4.229C154.86 4.229 203.302 36.5367 187.524 56.1521L28.3555 65.6713C1.22765 44.3252 27.5247 4.229 91.1922 4.229Z" fill="url(#paint2_radial_10551_776)"/>
<path d="M64.2706 40.1807C64.2706 45.6801 59.8124 50.1383 54.313 50.1383C48.8136 50.1383 44.3555 45.6801 44.3555 40.1807C44.3555 34.6813 48.8136 30.2231 54.313 30.2231C59.8124 30.2231 64.2706 34.6813 64.2706 40.1807Z" fill="url(#paint3_linear_10551_776)"/>
<path d="M17.3904 43.9072C14.2597 44.7988 8.64913 64.1812 12.2576 67.6499C31.601 65.8469 77.0542 55.1153 81.7766 50.7607C87.6796 45.3175 70.0963 37.8358 65.7575 38.5723C61.4187 39.3087 55.5098 43.3659 52.3195 43.9074C49.1293 44.449 42.981 39.4926 38.7698 40.2074C34.5587 40.9223 32.5046 45.1414 29.9325 45.458C27.3605 45.7745 20.5211 43.0156 17.3904 43.9072Z" fill="url(#paint4_linear_10551_776)"/>
<path d="M17.3904 43.9072C14.2597 44.7988 8.64913 64.1812 12.2576 67.6499C31.601 65.8469 77.0542 55.1153 81.7766 50.7607C87.6796 45.3175 70.0963 37.8358 65.7575 38.5723C61.4187 39.3087 55.5098 43.3659 52.3195 43.9074C49.1293 44.449 42.981 39.4926 38.7698 40.2074C34.5587 40.9223 32.5046 45.1414 29.9325 45.458C27.3605 45.7745 20.5211 43.0156 17.3904 43.9072Z" fill="url(#paint5_radial_10551_776)"/>
<path d="M17.3904 43.9072C14.2597 44.7988 8.64913 64.1812 12.2576 67.6499C31.601 65.8469 77.0542 55.1153 81.7766 50.7607C87.6796 45.3175 70.0963 37.8358 65.7575 38.5723C61.4187 39.3087 55.5098 43.3659 52.3195 43.9074C49.1293 44.449 42.981 39.4926 38.7698 40.2074C34.5587 40.9223 32.5046 45.1414 29.9325 45.458C27.3605 45.7745 20.5211 43.0156 17.3904 43.9072Z" fill="url(#paint6_radial_10551_776)"/>
<path d="M17.3904 43.9072C14.2597 44.7988 8.64913 64.1812 12.2576 67.6499C31.601 65.8469 77.0542 55.1153 81.7766 50.7607C87.6796 45.3175 70.0963 37.8358 65.7575 38.5723C61.4187 39.3087 55.5098 43.3659 52.3195 43.9074C49.1293 44.449 42.981 39.4926 38.7698 40.2074C34.5587 40.9223 32.5046 45.1414 29.9325 45.458C27.3605 45.7745 20.5211 43.0156 17.3904 43.9072Z" fill="url(#paint7_radial_10551_776)"/>
<path d="M192.304 66.248C185.958 62.2096 213.649 60.1904 202.976 53.5557C192.304 46.921 9.1297 28.1114 9.1297 73.171C9.1297 85.5748 23.8413 115.286 86.4374 115.286C149.034 115.286 223.168 108.94 228.36 86.4402C233.552 63.9402 198.649 70.2864 192.304 66.248Z" fill="url(#paint8_linear_10551_776)"/>
<path d="M192.304 66.248C185.958 62.2096 213.649 60.1904 202.976 53.5557C192.304 46.921 9.1297 28.1114 9.1297 73.171C9.1297 85.5748 23.8413 115.286 86.4374 115.286C149.034 115.286 223.168 108.94 228.36 86.4402C233.552 63.9402 198.649 70.2864 192.304 66.248Z" fill="url(#paint9_radial_10551_776)"/>
<path d="M192.304 66.248C185.958 62.2096 213.649 60.1904 202.976 53.5557C192.304 46.921 9.1297 28.1114 9.1297 73.171C9.1297 85.5748 23.8413 115.286 86.4374 115.286C149.034 115.286 223.168 108.94 228.36 86.4402C233.552 63.9402 198.649 70.2864 192.304 66.248Z" fill="url(#paint10_radial_10551_776)"/>
<path d="M192.304 66.248C185.958 62.2096 213.649 60.1904 202.976 53.5557C192.304 46.921 9.1297 28.1114 9.1297 73.171C9.1297 85.5748 23.8413 115.286 86.4374 115.286C149.034 115.286 223.168 108.94 228.36 86.4402C233.552 63.9402 198.649 70.2864 192.304 66.248Z" fill="url(#paint11_radial_10551_776)"/>
<path d="M192.304 66.248C185.958 62.2096 213.649 60.1904 202.976 53.5557C192.304 46.921 9.1297 28.1114 9.1297 73.171C9.1297 85.5748 23.8413 115.286 86.4374 115.286C149.034 115.286 223.168 108.94 228.36 86.4402C233.552 63.9402 198.649 70.2864 192.304 66.248Z" fill="url(#paint12_radial_10551_776)"/>
<path d="M85.3082 72.9711C102.261 72.31 124.059 77.9269 130.921 82.2244C137.783 86.5218 143.837 94.4579 155.945 95.1195C168.054 95.7807 175.322 93.4676 182.587 98.7569C185.206 100.665 192.176 109.353 200.229 119.999H17.7451C20.6505 116.316 23.6718 112.955 25.5696 110.985C23.9552 108.891 21.2137 103.913 23.1493 100.74C25.5711 96.7731 32.0285 94.1255 32.0285 90.8197C32.0314 87.517 40.9099 91.4829 45.7529 89.17C50.5964 86.856 68.3559 73.633 85.3082 72.9711Z" fill="url(#paint13_linear_10551_776)"/>
<path d="M85.3082 72.9711C102.261 72.31 124.059 77.9269 130.921 82.2244C137.783 86.5218 143.837 94.4579 155.945 95.1195C168.054 95.7807 175.322 93.4676 182.587 98.7569C185.206 100.665 192.176 109.353 200.229 119.999H17.7451C20.6505 116.316 23.6718 112.955 25.5696 110.985C23.9552 108.891 21.2137 103.913 23.1493 100.74C25.5711 96.7731 32.0285 94.1255 32.0285 90.8197C32.0314 87.517 40.9099 91.4829 45.7529 89.17C50.5964 86.856 68.3559 73.633 85.3082 72.9711Z" fill="url(#paint14_radial_10551_776)"/>
<path d="M85.3082 72.9711C102.261 72.31 124.059 77.9269 130.921 82.2244C137.783 86.5218 143.837 94.4579 155.945 95.1195C168.054 95.7807 175.322 93.4676 182.587 98.7569C185.206 100.665 192.176 109.353 200.229 119.999H17.7451C20.6505 116.316 23.6718 112.955 25.5696 110.985C23.9552 108.891 21.2137 103.913 23.1493 100.74C25.5711 96.7731 32.0285 94.1255 32.0285 90.8197C32.0314 87.517 40.9099 91.4829 45.7529 89.17C50.5964 86.856 68.3559 73.633 85.3082 72.9711Z" fill="url(#paint15_radial_10551_776)"/>
<path d="M200.134 119.874C200.166 119.916 200.197 119.958 200.229 120H91.5192L62.8037 93.5606L121.141 86.7908L200.134 119.874Z" fill="url(#paint16_radial_10551_776)"/>
<path d="M100.164 25.7273C95.8785 24.2265 88.5672 24.2265 84.2817 25.7273L84.2798 14.2451C89.1007 12.9411 95.3414 12.9411 100.162 14.2451L100.164 25.7273Z" fill="url(#paint17_radial_10551_776)"/>
<path d="M100.164 25.7273C95.8785 24.2265 88.5672 24.2265 84.2817 25.7273L84.2798 14.2451C89.1007 12.9411 95.3414 12.9411 100.162 14.2451L100.164 25.7273Z" fill="url(#paint18_linear_10551_776)"/>
<path d="M89.6074 8.01489C91.0176 7.42597 93.4233 7.42597 94.8335 8.01489L94.8341 4.03973C94.8341 4.03973 94.7545 3.43941 92.3006 3.43941C89.8467 3.43941 89.608 4.03973 89.608 4.03973L89.6074 8.01489Z" fill="url(#paint19_linear_10551_776)"/>
<path d="M89.6074 8.01489C91.0176 7.42597 93.4233 7.42597 94.8335 8.01489L94.8341 4.03973C94.8341 4.03973 94.7545 3.43941 92.3006 3.43941C89.8467 3.43941 89.608 4.03973 89.608 4.03973L89.6074 8.01489Z" fill="url(#paint20_linear_10551_776)"/>
<path d="M89.6074 8.01489C91.0176 7.42597 93.4233 7.42597 94.8335 8.01489L94.8341 4.03973C94.8341 4.03973 94.7545 3.43941 92.3006 3.43941C89.8467 3.43941 89.608 4.03973 89.608 4.03973L89.6074 8.01489Z" fill="url(#paint21_radial_10551_776)"/>
<path d="M81.4902 29.2632C87.2825 26.8128 97.1641 26.8128 102.956 29.2632L102.959 26.5718C102.959 26.5718 102.632 24.0741 92.5525 24.0741C82.473 24.0741 81.4927 26.5718 81.4927 26.5718L81.4902 29.2632Z" fill="url(#paint22_linear_10551_776)"/>
<path d="M81.4902 29.2632C87.2825 26.8128 97.1641 26.8128 102.956 29.2632L102.959 26.5718C102.959 26.5718 102.632 24.0741 92.5525 24.0741C82.473 24.0741 81.4927 26.5718 81.4927 26.5718L81.4902 29.2632Z" fill="url(#paint23_linear_10551_776)"/>
<path d="M81.4902 29.2632C87.2825 26.8128 97.1641 26.8128 102.956 29.2632L102.959 26.5718C102.959 26.5718 102.632 24.0741 92.5525 24.0741C82.473 24.0741 81.4927 26.5718 81.4927 26.5718L81.4902 29.2632Z" fill="url(#paint24_radial_10551_776)"/>
<path d="M83.6807 14.5178C86.0503 13.5282 89.2799 13.8303 92.4853 13.858C95.5162 13.8842 98.5255 13.5821 100.766 14.5178L100.768 12.4031C100.768 12.4031 100.766 6.97363 92.2398 6.97363C83.7137 6.97363 83.6826 12.4031 83.6826 12.4031L83.6807 14.5178Z" fill="url(#paint25_linear_10551_776)"/>
<path d="M83.6807 14.5178C86.0503 13.5282 89.2799 13.8303 92.4853 13.858C95.5162 13.8842 98.5255 13.5821 100.766 14.5178L100.768 12.4031C100.768 12.4031 100.766 6.97363 92.2398 6.97363C83.7137 6.97363 83.6826 12.4031 83.6826 12.4031L83.6807 14.5178Z" fill="url(#paint26_linear_10551_776)"/>
<path d="M83.6807 14.5178C86.0503 13.5282 89.2799 13.8303 92.4853 13.858C95.5162 13.8842 98.5255 13.5821 100.766 14.5178L100.768 12.4031C100.768 12.4031 100.766 6.97363 92.2398 6.97363C83.7137 6.97363 83.6826 12.4031 83.6826 12.4031L83.6807 14.5178Z" fill="url(#paint27_radial_10551_776)"/>
<path d="M87.9592 31.9517C90.2586 30.8325 94.1814 30.8325 96.4808 31.9517L102.955 29.3463C102.955 29.3463 102.512 26.454 92.4284 26.454C82.3452 26.454 81.4902 29.3463 81.4902 29.3463L87.9592 31.9517Z" fill="url(#paint28_linear_10551_776)"/>
<path d="M87.9592 31.9517C90.2586 30.8325 94.1814 30.8325 96.4808 31.9517L102.955 29.3463C102.955 29.3463 102.512 26.454 92.4284 26.454C82.3452 26.454 81.4902 29.3463 81.4902 29.3463L87.9592 31.9517Z" fill="url(#paint29_radial_10551_776)"/>
<path d="M83.6182 42.4004C88.2624 40.4608 96.1854 40.4608 100.83 42.4004L100.832 29.3086C100.832 29.3086 100.569 27.3316 92.4878 27.3316C84.4062 27.3316 83.6201 29.3086 83.6201 29.3086L83.6182 42.4004Z" fill="url(#paint30_linear_10551_776)"/>
<path d="M83.6182 42.4004C88.2624 40.4608 96.1854 40.4608 100.83 42.4004L100.832 29.3086C100.832 29.3086 100.569 27.3316 92.4878 27.3316C84.4062 27.3316 83.6201 29.3086 83.6201 29.3086L83.6182 42.4004Z" fill="url(#paint31_linear_10551_776)"/>
<path d="M83.6182 42.4004C88.2624 40.4608 96.1854 40.4608 100.83 42.4004L100.832 29.3086C100.832 29.3086 100.569 27.3316 92.4878 27.3316C84.4062 27.3316 83.6201 29.3086 83.6201 29.3086L83.6182 42.4004Z" fill="url(#paint32_radial_10551_776)"/>
<path d="M93.7275 30.5635H96.935V36.4719H93.7275V30.5635Z" fill="url(#paint33_linear_10551_776)"/>
<path d="M93.7275 30.5635H96.935V36.4719H93.7275V30.5635Z" fill="url(#paint34_radial_10551_776)"/>
<path d="M93.7275 30.5635H96.935V36.4719H93.7275V30.5635Z" fill="url(#paint35_linear_10551_776)"/>
<path d="M80.0078 41.249C86.5989 38.4964 97.8433 38.4964 104.434 41.249L104.437 38.2257C104.437 38.2257 104.065 35.4198 92.5957 35.4198C81.1262 35.4198 80.0106 38.2257 80.0106 38.2257L80.0078 41.249Z" fill="url(#paint36_linear_10551_776)"/>
<path d="M80.0078 41.249C86.5989 38.4964 97.8433 38.4964 104.434 41.249L104.437 38.2257C104.437 38.2257 104.065 35.4198 92.5957 35.4198C81.1262 35.4198 80.0106 38.2257 80.0106 38.2257L80.0078 41.249Z" fill="url(#paint37_linear_10551_776)"/>
<path d="M80.0078 41.249C86.5989 38.4964 97.8433 38.4964 104.434 41.249L104.437 38.2257C104.437 38.2257 104.065 35.4198 92.5957 35.4198C81.1262 35.4198 80.0106 38.2257 80.0106 38.2257L80.0078 41.249Z" fill="url(#paint38_radial_10551_776)"/>
<path d="M87.3732 47.0835C89.9899 45.8099 94.454 45.8099 97.0707 47.0835L104.438 41.2612C104.438 41.2612 103.836 38.3339 92.3615 38.3339C80.8871 38.3339 80.0117 41.2612 80.0117 41.2612L87.3732 47.0835Z" fill="url(#paint39_linear_10551_776)"/>
<path d="M87.3732 47.0835C89.9899 45.8099 94.454 45.8099 97.0707 47.0835L104.438 41.2612C104.438 41.2612 103.836 38.3339 92.3615 38.3339C80.8871 38.3339 80.0117 41.2612 80.0117 41.2612L87.3732 47.0835Z" fill="url(#paint40_radial_10551_776)"/>
<path d="M81.7605 42.2025C81.7605 42.2025 81.7605 39.5125 92.2198 39.5125C102.679 39.5125 102.679 42.2025 102.679 42.2025L103.527 85.8325H80.9131L81.7605 42.2025Z" fill="url(#paint41_linear_10551_776)"/>
<path d="M81.7605 42.2025C81.7605 42.2025 81.7605 39.5125 92.2198 39.5125C102.679 39.5125 102.679 42.2025 102.679 42.2025L103.527 85.8325H80.9131L81.7605 42.2025Z" fill="url(#paint42_linear_10551_776)"/>
<path d="M81.7605 42.2025C81.7605 42.2025 81.7605 39.5125 92.2198 39.5125C102.679 39.5125 102.679 42.2025 102.679 42.2025L103.527 85.8325H80.9131L81.7605 42.2025Z" fill="url(#paint43_radial_10551_776)"/>
<path d="M100.766 14.5687C100.766 15.2876 96.9406 15.8704 92.2215 15.8704C87.5024 15.8704 83.6768 15.2876 83.6768 14.5687C83.6768 13.8499 87.5024 13.2671 92.2215 13.2671C96.9406 13.2671 100.766 13.8499 100.766 14.5687Z" fill="#262234"/>
<path d="M95.3321 19.4962C95.3321 21.1628 93.9386 22.5138 92.2198 22.5138C90.5009 22.5138 89.1074 21.1628 89.1074 19.4962C89.1074 17.8296 90.5009 16.4785 92.2198 16.4785C93.9386 16.4785 95.3321 17.8296 95.3321 19.4962Z" fill="url(#paint44_radial_10551_776)"/>
<path d="M95.3321 19.4962C95.3321 21.1628 93.9386 22.5138 92.2198 22.5138C90.5009 22.5138 89.1074 21.1628 89.1074 19.4962C89.1074 17.8296 90.5009 16.4785 92.2198 16.4785C93.9386 16.4785 95.3321 17.8296 95.3321 19.4962Z" fill="url(#paint45_radial_10551_776)"/>
<path d="M74.6396 70.4185L72.3286 71.7039V93.4965L74.6396 93.6329V70.4185Z" fill="url(#paint46_linear_10551_776)"/>
<path d="M74.6396 70.4185L72.3286 71.7039V93.4965L74.6396 93.6329V70.4185Z" fill="url(#paint47_linear_10551_776)"/>
<path d="M74.6396 70.4309L135.379 69.5193V92.7222L74.6396 93.6339V70.4309Z" fill="url(#paint48_linear_10551_776)"/>
<path d="M74.6396 70.4309L135.379 69.5193V92.7222L74.6396 93.6339V70.4309Z" fill="url(#paint49_linear_10551_776)"/>
<path d="M74.6396 70.4309L135.379 69.5193V92.7222L74.6396 93.6339V70.4309Z" fill="url(#paint50_radial_10551_776)"/>
<path d="M74.6396 70.4309L135.379 69.5193V92.7222L74.6396 93.6339V70.4309Z" fill="url(#paint51_linear_10551_776)"/>
<path d="M74.6396 70.4309L135.379 69.5193V92.7222L74.6396 93.6339V70.4309Z" fill="url(#paint52_linear_10551_776)"/>
<path d="M74.6396 70.4309L135.379 69.5193V92.7222L74.6396 93.6339V70.4309Z" fill="url(#paint53_linear_10551_776)"/>
<path d="M64.2725 69.2365L73.4095 69.1001V93.4972L64.2725 93.6336V69.2365Z" fill="url(#paint54_linear_10551_776)"/>
<path d="M64.2725 69.2365L73.4095 69.1001V93.4972L64.2725 93.6336V69.2365Z" fill="url(#paint55_linear_10551_776)"/>
<path d="M64.2725 69.2365L73.4095 69.1001V93.4972L64.2725 93.6336V69.2365Z" fill="url(#paint56_linear_10551_776)"/>
<path d="M64.2725 69.2365L73.4095 69.1001V93.4972L64.2725 93.6336V69.2365Z" fill="url(#paint57_linear_10551_776)"/>
<path d="M64.2725 69.2363L61.9614 70.5216V93.497L64.2725 93.6334V69.2363Z" fill="url(#paint58_linear_10551_776)"/>
<path d="M64.2725 69.2363L61.9614 70.5216V93.497L64.2725 93.6334V69.2363Z" fill="url(#paint59_linear_10551_776)"/>
<path d="M83.2207 78.6125H87.2456V86.9357H83.2207V78.6125Z" fill="url(#paint60_linear_10551_776)"/>
<path d="M83.2207 78.6125H87.2456V86.9357H83.2207V78.6125Z" fill="url(#paint61_linear_10551_776)"/>
<path d="M83.2207 78.6125H87.2456V86.9357H83.2207V78.6125Z" fill="url(#paint62_linear_10551_776)"/>
<path d="M114.979 78.6125H119.003V86.9357H114.979V78.6125Z" fill="url(#paint63_linear_10551_776)"/>
<path d="M114.979 78.6125H119.003V86.9357H114.979V78.6125Z" fill="url(#paint64_linear_10551_776)"/>
<path d="M114.979 78.6125H119.003V86.9357H114.979V78.6125Z" fill="url(#paint65_linear_10551_776)"/>
<path d="M101.917 80.8447H108.102V93.6345H101.917V80.8447Z" fill="url(#paint66_linear_10551_776)"/>
<path d="M101.917 80.8447H108.102V93.6345H101.917V80.8447Z" fill="url(#paint67_linear_10551_776)"/>
<path d="M101.917 80.8447H108.102V93.6345H101.917V80.8447Z" fill="url(#paint68_linear_10551_776)"/>
<path d="M92.6055 78.6125H96.6304V86.9357H92.6055V78.6125Z" fill="url(#paint69_linear_10551_776)"/>
<path d="M92.6055 78.6125H96.6304V86.9357H92.6055V78.6125Z" fill="url(#paint70_linear_10551_776)"/>
<path d="M92.6055 78.6125H96.6304V86.9357H92.6055V78.6125Z" fill="url(#paint71_linear_10551_776)"/>
<path d="M124.363 78.6125H128.388V86.9357H124.363V78.6125Z" fill="url(#paint72_linear_10551_776)"/>
<path d="M124.363 78.6125H128.388V86.9357H124.363V78.6125Z" fill="url(#paint73_linear_10551_776)"/>
<path d="M124.363 78.6125H128.388V86.9357H124.363V78.6125Z" fill="url(#paint74_linear_10551_776)"/>
<defs>
<radialGradient id="paint0_radial_10551_776" cx="0" cy="0" r="1" gradientUnits="userSpaceOnUse" gradientTransform="translate(122.308 43.8463) rotate(-90) scale(62.3077 128.804)">
<stop offset="0.413462" stop-color="#66C7DE"/>
<stop offset="1" stop-color="#0061AC"/>
</radialGradient>
<radialGradient id="paint1_radial_10551_776" cx="0" cy="0" r="1" gradientUnits="userSpaceOnUse" gradientTransform="translate(73.2434 40.5333) rotate(2.22067) scale(143.529 36.3316)">
<stop offset="0.170011" stop-color="#E8B8B9"/>
<stop offset="1" stop-color="#9077E9" stop-opacity="0"/>
</radialGradient>
<radialGradient id="paint2_radial_10551_776" cx="0" cy="0" r="1" gradientUnits="userSpaceOnUse" gradientTransform="translate(76.1543 50.7693) rotate(2.04541) scale(129.313 38.0733)">
<stop offset="0.283391" stop-color="#FFE8B6"/>
<stop offset="1" stop-color="#FFBA9C" stop-opacity="0"/>
</radialGradient>
<linearGradient id="paint3_linear_10551_776" x1="54.313" y1="30.2231" x2="54.313" y2="50.1383" gradientUnits="userSpaceOnUse">
<stop stop-color="#FDF28E"/>
<stop offset="1" stop-color="#FDBB66"/>
</linearGradient>
<linearGradient id="paint4_linear_10551_776" x1="51.4526" y1="47.2934" x2="43.9333" y2="26.3664" gradientUnits="userSpaceOnUse">
<stop stop-color="#325490"/>
<stop offset="1" stop-color="#7DDD94"/>
</linearGradient>
<radialGradient id="paint5_radial_10551_776" cx="0" cy="0" r="1" gradientUnits="userSpaceOnUse" gradientTransform="translate(61.6869 30.4885) rotate(-47.3414) scale(15.192 8.62232)">
<stop offset="0.0329412" stop-color="#FFDAC2" stop-opacity="0.8"/>
<stop offset="1" stop-color="#FFC7A3" stop-opacity="0"/>
</radialGradient>
<radialGradient id="paint6_radial_10551_776" cx="0" cy="0" r="1" gradientUnits="userSpaceOnUse" gradientTransform="translate(36.3596 37.6985) rotate(-62.239) scale(10.2199 5.80036)">
<stop offset="0.0329412" stop-color="#FFDAC2" stop-opacity="0.8"/>
<stop offset="1" stop-color="#FFC7A3" stop-opacity="0"/>
</radialGradient>
<radialGradient id="paint7_radial_10551_776" cx="0" cy="0" r="1" gradientUnits="userSpaceOnUse" gradientTransform="translate(15.4058 41.0049) rotate(-62.3616) scale(13.1679 7.47353)">
<stop offset="0.0329412" stop-color="#FFDAC2" stop-opacity="0.8"/>
<stop offset="1" stop-color="#FFC7A3" stop-opacity="0"/>
</radialGradient>
<linearGradient id="paint8_linear_10551_776" x1="97.3943" y1="100.34" x2="99.13" y2="43.9768" gradientUnits="userSpaceOnUse">
<stop stop-color="#003E73"/>
<stop offset="1" stop-color="#57D5F1"/>
</linearGradient>
<radialGradient id="paint9_radial_10551_776" cx="0" cy="0" r="1" gradientUnits="userSpaceOnUse" gradientTransform="translate(154.526 78.5251) rotate(179.564) scale(145.4 47.1817)">
<stop stop-color="#66CFFF"/>
<stop offset="1" stop-color="#CDDED6" stop-opacity="0"/>
</radialGradient>
<radialGradient id="paint10_radial_10551_776" cx="0" cy="0" r="1" gradientUnits="userSpaceOnUse" gradientTransform="translate(174.411 81.8393) rotate(180) scale(51.7016 7.35311)">
<stop offset="0.0726495" stop-color="#FFFBED"/>
<stop offset="1" stop-color="#CDDED6" stop-opacity="0"/>
</radialGradient>
<radialGradient id="paint11_radial_10551_776" cx="0" cy="0" r="1" gradientUnits="userSpaceOnUse" gradientTransform="translate(186.342 71.2338) rotate(-180) scale(46.8407 5.54442)">
<stop stop-color="#FFFBED"/>
<stop offset="1" stop-color="#CDDED6" stop-opacity="0"/>
</radialGradient>
<radialGradient id="paint12_radial_10551_776" cx="0" cy="0" r="1" gradientUnits="userSpaceOnUse" gradientTransform="translate(149.444 62.396) rotate(-180) scale(43.0846 5.09982)">
<stop stop-color="#FFFBED"/>
<stop offset="1" stop-color="#CDDED6" stop-opacity="0"/>
</radialGradient>
<linearGradient id="paint13_linear_10551_776" x1="-21.8282" y1="-47.1224" x2="17.7451" y2="129.212" gradientUnits="userSpaceOnUse">
<stop stop-color="#FFD291"/>
<stop offset="1" stop-color="#886436"/>
</linearGradient>
<radialGradient id="paint14_radial_10551_776" cx="0" cy="0" r="1" gradientUnits="userSpaceOnUse" gradientTransform="translate(130.533 60.3306) rotate(172.171) scale(265.226 105.565)">
<stop offset="0.15085" stop-color="#B48D60" stop-opacity="0"/>
<stop offset="1" stop-color="#B48D60"/>
</radialGradient>
<radialGradient id="paint15_radial_10551_776" cx="0" cy="0" r="1" gradientUnits="userSpaceOnUse" gradientTransform="translate(65.3485 81.9817) rotate(1.75564) scale(173.703 51.0591)">
<stop offset="0.0305578" stop-color="#FACE90"/>
<stop offset="1" stop-color="#AC560B" stop-opacity="0"/>
</radialGradient>
<radialGradient id="paint16_radial_10551_776" cx="0" cy="0" r="1" gradientTransform="matrix(99.8775 35.7464 -12.1251 26.8501 91.4839 86.7908)" gradientUnits="userSpaceOnUse">
<stop offset="0.413022" stop-color="#3E332C" stop-opacity="0.7"/>
<stop offset="1" stop-color="#473C35" stop-opacity="0"/>
</radialGradient>
<radialGradient id="paint17_radial_10551_776" cx="0" cy="0" r="1" gradientUnits="userSpaceOnUse" gradientTransform="translate(92.222 18.387) rotate(-90) scale(5.4034 8.3819)">
<stop stop-color="#FFD056"/>
<stop offset="0.521403" stop-color="#FFDB7D" stop-opacity="0.726513"/>
<stop offset="1" stop-color="#FFF8E4" stop-opacity="0"/>
</radialGradient>
<linearGradient id="paint18_linear_10551_776" x1="84.2798" y1="21.3093" x2="100.164" y2="21.3093" gradientUnits="userSpaceOnUse">
<stop stop-color="#808398"/>
<stop offset="0.149038" stop-color="#A6C5D4"/>
<stop offset="0.379808" stop-color="#A6C5D4" stop-opacity="0"/>
<stop offset="0.682692" stop-color="#A6C5D4" stop-opacity="0"/>
<stop offset="0.846154" stop-color="#A6C5D4"/>
<stop offset="0.966346" stop-color="#808398"/>
</linearGradient>
<linearGradient id="paint19_linear_10551_776" x1="87.3748" y1="8.73684" x2="88.8691" y2="0.358844" gradientUnits="userSpaceOnUse">
<stop stop-color="#CDEAFF"/>
<stop offset="1" stop-color="#E6C0AF"/>
</linearGradient>
<linearGradient id="paint20_linear_10551_776" x1="100.296" y1="5.58572" x2="92.0362" y2="4.24477" gradientUnits="userSpaceOnUse">
<stop offset="0.384741" stop-color="#002B67"/>
<stop offset="1" stop-color="#2D106A" stop-opacity="0"/>
</linearGradient>
<radialGradient id="paint21_radial_10551_776" cx="0" cy="0" r="1" gradientTransform="matrix(0.617543 3.72809 2.48561 -0.0399338 91.1275 3.914)" gradientUnits="userSpaceOnUse">
<stop stop-color="#FFEFD8"/>
<stop offset="1" stop-color="#FFE9DC" stop-opacity="0"/>
</radialGradient>
<linearGradient id="paint22_linear_10551_776" x1="72.3196" y1="46.1147" x2="78.6126" y2="11.2843" gradientUnits="userSpaceOnUse">
<stop stop-color="#CDEAFF"/>
<stop offset="1" stop-color="#E6C0AF"/>
</linearGradient>
<linearGradient id="paint23_linear_10551_776" x1="125.392" y1="33.0038" x2="91.4442" y2="27.5627" gradientUnits="userSpaceOnUse">
<stop offset="0.384741" stop-color="#002B67"/>
<stop offset="1" stop-color="#2D106A" stop-opacity="0"/>
</linearGradient>
<radialGradient id="paint24_radial_10551_776" cx="0" cy="0" r="1" gradientTransform="matrix(2.53656 15.5115 10.2097 -0.166153 87.7341 26.0482)" gradientUnits="userSpaceOnUse">
<stop stop-color="#FFEFD8"/>
<stop offset="1" stop-color="#FFE9DC" stop-opacity="0"/>
</radialGradient>
<linearGradient id="paint25_linear_10551_776" x1="76.3815" y1="27.7588" x2="81.2669" y2="0.368954" gradientUnits="userSpaceOnUse">
<stop stop-color="#CDEAFF"/>
<stop offset="1" stop-color="#E6C0AF"/>
</linearGradient>
<linearGradient id="paint26_linear_10551_776" x1="118.623" y1="17.457" x2="91.6209" y2="13.0731" gradientUnits="userSpaceOnUse">
<stop offset="0.384741" stop-color="#002B67"/>
<stop offset="1" stop-color="#2D106A" stop-opacity="0"/>
</linearGradient>
<radialGradient id="paint27_radial_10551_776" cx="0" cy="0" r="1" gradientTransform="matrix(2.01891 12.1881 8.1261 -0.130554 88.6503 11.9917)" gradientUnits="userSpaceOnUse">
<stop stop-color="#FFEFD8"/>
<stop offset="1" stop-color="#FFE9DC" stop-opacity="0"/>
</radialGradient>
<linearGradient id="paint28_linear_10551_776" x1="82.9071" y1="34.8068" x2="84.7152" y2="23.3001" gradientUnits="userSpaceOnUse">
<stop stop-color="#67577A"/>
<stop offset="1" stop-color="#010410"/>
</linearGradient>
<radialGradient id="paint29_radial_10551_776" cx="0" cy="0" r="1" gradientTransform="matrix(24.8977 -1.72445 -2.54762 -18.8055 78.5922 29.8598)" gradientUnits="userSpaceOnUse">
<stop stop-color="#F7C3A1"/>
<stop offset="0.92438" stop-color="#51DAFF" stop-opacity="0"/>
</radialGradient>
<linearGradient id="paint30_linear_10551_776" x1="76.2652" y1="44.7781" x2="81.1866" y2="17.186" gradientUnits="userSpaceOnUse">
<stop stop-color="#CDEAFF"/>
<stop offset="1" stop-color="#E6C0AF"/>
</linearGradient>
<linearGradient id="paint31_linear_10551_776" x1="118.819" y1="34.4002" x2="91.617" y2="29.9839" gradientUnits="userSpaceOnUse">
<stop offset="0.384741" stop-color="#002B67"/>
<stop offset="1" stop-color="#2D106A" stop-opacity="0"/>
</linearGradient>
<radialGradient id="paint32_radial_10551_776" cx="0" cy="0" r="1" gradientTransform="matrix(2.03381 12.2781 8.18607 -0.131518 88.6245 28.8945)" gradientUnits="userSpaceOnUse">
<stop stop-color="#FFEFD8"/>
<stop offset="1" stop-color="#FFE9DC" stop-opacity="0"/>
</radialGradient>
<linearGradient id="paint33_linear_10551_776" x1="100.137" y1="34.9081" x2="96.1288" y2="28.461" gradientUnits="userSpaceOnUse">
<stop stop-color="#240D54" stop-opacity="0"/>
<stop offset="1" stop-color="#00204D"/>
</linearGradient>
<radialGradient id="paint34_radial_10551_776" cx="0" cy="0" r="1" gradientTransform="matrix(0.91508 -9.03046 4.8874 0.441888 95.4854 36.8979)" gradientUnits="userSpaceOnUse">
<stop offset="0.599565" stop-color="#240D54" stop-opacity="0"/>
<stop offset="1" stop-color="#00204D"/>
</radialGradient>
<linearGradient id="paint35_linear_10551_776" x1="98.2831" y1="33.5177" x2="91.8459" y2="33.5177" gradientUnits="userSpaceOnUse">
<stop offset="0.575472" stop-color="#240D54" stop-opacity="0"/>
<stop offset="1" stop-color="#00204D"/>
</linearGradient>
<linearGradient id="paint36_linear_10551_776" x1="69.5724" y1="60.1794" x2="76.557" y2="21.0207" gradientUnits="userSpaceOnUse">
<stop stop-color="#CDEAFF"/>
<stop offset="1" stop-color="#E6C0AF"/>
</linearGradient>
<linearGradient id="paint37_linear_10551_776" x1="129.965" y1="45.4511" x2="91.3598" y2="39.1835" gradientUnits="userSpaceOnUse">
<stop offset="0.384741" stop-color="#002B67"/>
<stop offset="1" stop-color="#2D106A" stop-opacity="0"/>
</linearGradient>
<radialGradient id="paint38_radial_10551_776" cx="0" cy="0" r="1" gradientTransform="matrix(2.88639 17.4251 11.6177 -0.18665 87.1128 37.6375)" gradientUnits="userSpaceOnUse">
<stop stop-color="#FFEFD8"/>
<stop offset="1" stop-color="#FFE9DC" stop-opacity="0"/>
</radialGradient>
<linearGradient id="paint39_linear_10551_776" x1="81.6241" y1="47.4749" x2="83.6817" y2="34.3806" gradientUnits="userSpaceOnUse">
<stop stop-color="#67577A"/>
<stop offset="1" stop-color="#010410"/>
</linearGradient>
<radialGradient id="paint40_radial_10551_776" cx="0" cy="0" r="1" gradientUnits="userSpaceOnUse" gradientTransform="translate(76.7138 43.7543) rotate(-5.53276) scale(28.4656 30.0695)">
<stop stop-color="#F7C3A1"/>
<stop offset="0.92438" stop-color="#51DAFF" stop-opacity="0"/>
</radialGradient>
<linearGradient id="paint41_linear_10551_776" x1="72.8245" y1="19.3661" x2="122.03" y2="103.766" gradientUnits="userSpaceOnUse">
<stop stop-color="#CDEAFF"/>
<stop offset="1" stop-color="#E6C0AF"/>
</linearGradient>
<linearGradient id="paint42_linear_10551_776" x1="124.538" y1="60.5889" x2="90.693" y2="62.2699" gradientUnits="userSpaceOnUse">
<stop offset="0.384741" stop-color="#002B67"/>
<stop offset="1" stop-color="#2D106A" stop-opacity="0"/>
</linearGradient>
<radialGradient id="paint43_radial_10551_776" cx="0" cy="0" r="1" gradientTransform="matrix(2.47158 -48.7706 9.94813 0.522408 87.8441 82.4582)" gradientUnits="userSpaceOnUse">
<stop stop-color="#FFEFD8"/>
<stop offset="1" stop-color="#FFE9DC" stop-opacity="0"/>
</radialGradient>
<radialGradient id="paint44_radial_10551_776" cx="0" cy="0" r="1" gradientUnits="userSpaceOnUse" gradientTransform="translate(92.2198 19.4962) rotate(90) scale(3.01764 3.11233)">
<stop offset="0.412884" stop-color="#FFF8E4"/>
<stop offset="1" stop-color="#FFD056"/>
</radialGradient>
<radialGradient id="paint45_radial_10551_776" cx="0" cy="0" r="1" gradientTransform="matrix(2.29208 4.77394 -4.92374 2.22235 91.4909 18.2706)" gradientUnits="userSpaceOnUse">
<stop offset="0.501068" stop-color="white" stop-opacity="0"/>
<stop offset="1" stop-color="#FF9416"/>
</radialGradient>
<linearGradient id="paint46_linear_10551_776" x1="74.859" y1="27.6336" x2="68.5059" y2="27.808" gradientUnits="userSpaceOnUse">
<stop stop-color="#CDEAFF"/>
<stop offset="1" stop-color="#E6C0AF"/>
</linearGradient>
<linearGradient id="paint47_linear_10551_776" x1="70.2696" y1="67.4671" x2="81.7418" y2="78.5467" gradientUnits="userSpaceOnUse">
<stop stop-color="#FFEFD8"/>
<stop offset="1" stop-color="#FFE9DC" stop-opacity="0"/>
</linearGradient>
<linearGradient id="paint48_linear_10551_776" x1="68.8754" y1="25.0755" x2="181.6" y2="103.363" gradientUnits="userSpaceOnUse">
<stop stop-color="#CDEAFF"/>
<stop offset="1" stop-color="#E6C0AF"/>
</linearGradient>
<linearGradient id="paint49_linear_10551_776" x1="141" y1="81.3986" x2="132.383" y2="81.3986" gradientUnits="userSpaceOnUse">
<stop stop-color="#002B67"/>
<stop offset="1" stop-color="#2D106A" stop-opacity="0"/>
</linearGradient>
<radialGradient id="paint50_radial_10551_776" cx="0" cy="0" r="1" gradientUnits="userSpaceOnUse" gradientTransform="translate(83.8021 69.5193) rotate(15.3281) scale(37.2186)">
<stop stop-color="#FFEFD8"/>
<stop offset="1" stop-color="#FFE9DC" stop-opacity="0"/>
</radialGradient>
<linearGradient id="paint51_linear_10551_776" x1="56.8947" y1="58.7008" x2="93.9164" y2="112.477" gradientUnits="userSpaceOnUse">
<stop stop-color="#7A4924"/>
<stop offset="1" stop-color="#CFC6CD" stop-opacity="0"/>
</linearGradient>
<linearGradient id="paint52_linear_10551_776" x1="72.5227" y1="73.0573" x2="75.8765" y2="73.0573" gradientUnits="userSpaceOnUse">
<stop offset="0.463458" stop-color="#FFEFD8"/>
<stop offset="1" stop-color="#FFE9DC" stop-opacity="0"/>
</linearGradient>
<linearGradient id="paint53_linear_10551_776" x1="75.7211" y1="67.335" x2="75.8765" y2="73.0573" gradientUnits="userSpaceOnUse">
<stop offset="0.463458" stop-color="#FFEFD8"/>
<stop offset="1" stop-color="#FFE9DC" stop-opacity="0"/>
</linearGradient>
<linearGradient id="paint54_linear_10551_776" x1="42.7929" y1="57.7681" x2="80.3628" y2="103.532" gradientUnits="userSpaceOnUse">
<stop stop-color="#CDEAFF"/>
<stop offset="1" stop-color="#E6C0AF"/>
</linearGradient>
<linearGradient id="paint55_linear_10551_776" x1="53.6547" y1="62.4846" x2="83.9206" y2="83.2924" gradientUnits="userSpaceOnUse">
<stop stop-color="#7A4924"/>
<stop offset="1" stop-color="#CFC6CD" stop-opacity="0"/>
</linearGradient>
<linearGradient id="paint56_linear_10551_776" x1="63.167" y1="72.6996" x2="65.188" y2="72.6996" gradientUnits="userSpaceOnUse">
<stop offset="0.463458" stop-color="#FFEFD8"/>
<stop offset="1" stop-color="#FFE9DC" stop-opacity="0"/>
</linearGradient>
<linearGradient id="paint57_linear_10551_776" x1="65.2094" y1="66.621" x2="65.3744" y2="70.7864" gradientUnits="userSpaceOnUse">
<stop offset="0.463458" stop-color="#FFEFD8"/>
<stop offset="1" stop-color="#FFE9DC" stop-opacity="0"/>
</linearGradient>
<linearGradient id="paint58_linear_10551_776" x1="64.4918" y1="24.2719" x2="58.1382" y2="24.4379" gradientUnits="userSpaceOnUse">
<stop stop-color="#CDEAFF"/>
<stop offset="1" stop-color="#E6C0AF"/>
</linearGradient>
<linearGradient id="paint59_linear_10551_776" x1="59.9024" y1="66.1347" x2="71.9234" y2="77.1815" gradientUnits="userSpaceOnUse">
<stop stop-color="#FFEFD8"/>
<stop offset="1" stop-color="#FFE9DC" stop-opacity="0"/>
</linearGradient>
<linearGradient id="paint60_linear_10551_776" x1="84.7909" y1="77.3843" x2="92.5528" y2="82.1429" gradientUnits="userSpaceOnUse">
<stop stop-color="#446653"/>
<stop offset="1" stop-color="#88CCA6"/>
</linearGradient>
<linearGradient id="paint61_linear_10551_776" x1="85.2332" y1="78.6125" x2="85.2332" y2="86.9357" gradientUnits="userSpaceOnUse">
<stop stop-color="#213A2C"/>
<stop offset="0.119421" stop-color="#213A2C" stop-opacity="0"/>
</linearGradient>
<linearGradient id="paint62_linear_10551_776" x1="83.0073" y1="82.7741" x2="89.1082" y2="82.7741" gradientUnits="userSpaceOnUse">
<stop stop-color="#213A2C"/>
<stop offset="0.15" stop-color="#213A2C" stop-opacity="0"/>
</linearGradient>
<linearGradient id="paint63_linear_10551_776" x1="116.549" y1="77.3843" x2="124.311" y2="82.1429" gradientUnits="userSpaceOnUse">
<stop stop-color="#446653"/>
<stop offset="1" stop-color="#88CCA6"/>
</linearGradient>
<linearGradient id="paint64_linear_10551_776" x1="116.991" y1="78.6125" x2="116.991" y2="86.9357" gradientUnits="userSpaceOnUse">
<stop stop-color="#213A2C"/>
<stop offset="0.119421" stop-color="#213A2C" stop-opacity="0"/>
</linearGradient>
<linearGradient id="paint65_linear_10551_776" x1="114.765" y1="82.7741" x2="120.866" y2="82.7741" gradientUnits="userSpaceOnUse">
<stop stop-color="#213A2C"/>
<stop offset="0.15" stop-color="#213A2C" stop-opacity="0"/>
</linearGradient>
<linearGradient id="paint66_linear_10551_776" x1="104.33" y1="78.9574" x2="116.257" y2="86.2697" gradientUnits="userSpaceOnUse">
<stop stop-color="#C2B3AE"/>
<stop offset="1" stop-color="#E1E0E1"/>
</linearGradient>
<linearGradient id="paint67_linear_10551_776" x1="105.009" y1="80.8447" x2="105.009" y2="93.6345" gradientUnits="userSpaceOnUse">
<stop stop-color="#213A2C"/>
<stop offset="0.119421" stop-color="#213A2C" stop-opacity="0"/>
</linearGradient>
<linearGradient id="paint68_linear_10551_776" x1="101.589" y1="87.2396" x2="110.964" y2="87.2396" gradientUnits="userSpaceOnUse">
<stop stop-color="#213A2C"/>
<stop offset="0.15" stop-color="#213A2C" stop-opacity="0"/>
</linearGradient>
<linearGradient id="paint69_linear_10551_776" x1="94.1757" y1="77.3843" x2="101.938" y2="82.1429" gradientUnits="userSpaceOnUse">
<stop stop-color="#446653"/>
<stop offset="1" stop-color="#88CCA6"/>
</linearGradient>
<linearGradient id="paint70_linear_10551_776" x1="94.6179" y1="78.6125" x2="94.6179" y2="86.9357" gradientUnits="userSpaceOnUse">
<stop stop-color="#213A2C"/>
<stop offset="0.119421" stop-color="#213A2C" stop-opacity="0"/>
</linearGradient>
<linearGradient id="paint71_linear_10551_776" x1="92.3921" y1="82.7741" x2="98.493" y2="82.7741" gradientUnits="userSpaceOnUse">
<stop stop-color="#213A2C"/>
<stop offset="0.15" stop-color="#213A2C" stop-opacity="0"/>
</linearGradient>
<linearGradient id="paint72_linear_10551_776" x1="125.933" y1="77.3843" x2="133.695" y2="82.1429" gradientUnits="userSpaceOnUse">
<stop stop-color="#446653"/>
<stop offset="1" stop-color="#88CCA6"/>
</linearGradient>
<linearGradient id="paint73_linear_10551_776" x1="126.376" y1="78.6125" x2="126.376" y2="86.9357" gradientUnits="userSpaceOnUse">
<stop stop-color="#213A2C"/>
<stop offset="0.119421" stop-color="#213A2C" stop-opacity="0"/>
</linearGradient>
<linearGradient id="paint74_linear_10551_776" x1="124.15" y1="82.7741" x2="130.251" y2="82.7741" gradientUnits="userSpaceOnUse">
<stop stop-color="#213A2C"/>
<stop offset="0.15" stop-color="#213A2C" stop-opacity="0"/>
</linearGradient>
</defs>
</svg>
