<svg viewBox="0 0 240 120" fill="none" xmlns="http://www.w3.org/2000/svg">
<path d="M30.3809 13.8462H122.689V106.154H30.3809V13.8462Z" fill="white"/>
<path d="M123.842 12.6924V107.308H29.2271V12.6924H123.842ZM31.5347 105H121.535V15.0001H31.5347V105Z" fill="black"/>
<path d="M142.794 62.5375C142.794 62.5375 170.415 62.7396 171.931 62.2435L159.736 54.0752C156.25 53.8555 142.08 55.5419 142.08 55.5419L142.794 62.5375Z" fill="url(#paint0_linear_9848_2701)"/>
<path d="M189.354 119.334C182.892 115.854 176.351 115.289 172.991 105.085C170.303 96.9223 182.78 111.183 189.354 119.334Z" fill="url(#paint1_linear_9848_2701)"/>
<path d="M189.744 54.1351C186.77 50.6398 166.237 43.5574 156.58 43.4485L138.423 50.6398C136.382 51.4482 128.52 55.2724 127.722 56.5485C126.924 57.8246 128.779 60.0389 130.815 60.8782C133.361 61.9273 140.144 60.6806 143.317 58.1212C144.726 58.729 155.419 58.3342 156.659 55.5797C157.53 57.7722 164.457 60.1717 167.23 60.5823C151.498 69.5563 166.113 99.2276 171.352 104.135C176.591 109.042 181.404 111.544 188.052 120.001H228.936C225.231 116.539 208.626 101.576 205.229 97.9929C200.982 93.514 194.8 73.0796 193.249 69.1757C191.699 65.2719 192.718 57.6305 189.744 54.1351Z" fill="url(#paint2_linear_9848_2701)"/>
<path d="M189.744 54.1351C186.77 50.6398 166.237 43.5574 156.58 43.4485L138.423 50.6398C136.382 51.4482 128.52 55.2724 127.722 56.5485C126.924 57.8246 128.779 60.0389 130.815 60.8782C133.361 61.9273 140.144 60.6806 143.317 58.1212C144.726 58.729 155.419 58.3342 156.659 55.5797C157.53 57.7722 164.457 60.1717 167.23 60.5823C151.498 69.5563 166.113 99.2276 171.352 104.135C176.591 109.042 181.404 111.544 188.052 120.001H228.936C225.231 116.539 208.626 101.576 205.229 97.9929C200.982 93.514 194.8 73.0796 193.249 69.1757C191.699 65.2719 192.718 57.6305 189.744 54.1351Z" fill="url(#paint3_radial_9848_2701)"/>
<path d="M189.744 54.1351C186.77 50.6398 166.237 43.5574 156.58 43.4485L138.423 50.6398C136.382 51.4482 128.52 55.2724 127.722 56.5485C126.924 57.8246 128.779 60.0389 130.815 60.8782C133.361 61.9273 140.144 60.6806 143.317 58.1212C144.726 58.729 155.419 58.3342 156.659 55.5797C157.53 57.7722 164.457 60.1717 167.23 60.5823C151.498 69.5563 166.113 99.2276 171.352 104.135C176.591 109.042 181.404 111.544 188.052 120.001H228.936C225.231 116.539 208.626 101.576 205.229 97.9929C200.982 93.514 194.8 73.0796 193.249 69.1757C191.699 65.2719 192.718 57.6305 189.744 54.1351Z" fill="url(#paint4_radial_9848_2701)"/>
<path d="M189.744 54.1351C186.77 50.6398 166.237 43.5574 156.58 43.4485L138.423 50.6398C136.382 51.4482 128.52 55.2724 127.722 56.5485C126.924 57.8246 128.779 60.0389 130.815 60.8782C133.361 61.9273 140.144 60.6806 143.317 58.1212C144.726 58.729 155.419 58.3342 156.659 55.5797C157.53 57.7722 164.457 60.1717 167.23 60.5823C151.498 69.5563 166.113 99.2276 171.352 104.135C176.591 109.042 181.404 111.544 188.052 120.001H228.936C225.231 116.539 208.626 101.576 205.229 97.9929C200.982 93.514 194.8 73.0796 193.249 69.1757C191.699 65.2719 192.718 57.6305 189.744 54.1351Z" fill="url(#paint5_radial_9848_2701)"/>
<path d="M189.744 54.1351C186.77 50.6398 166.237 43.5574 156.58 43.4485L138.423 50.6398C136.382 51.4482 128.52 55.2724 127.722 56.5485C126.924 57.8246 128.779 60.0389 130.815 60.8782C133.361 61.9273 140.144 60.6806 143.317 58.1212C144.726 58.729 155.419 58.3342 156.659 55.5797C157.53 57.7722 164.457 60.1717 167.23 60.5823C151.498 69.5563 166.113 99.2276 171.352 104.135C176.591 109.042 181.404 111.544 188.052 120.001H228.936C225.231 116.539 208.626 101.576 205.229 97.9929C200.982 93.514 194.8 73.0796 193.249 69.1757C191.699 65.2719 192.718 57.6305 189.744 54.1351Z" fill="url(#paint6_radial_9848_2701)"/>
<path d="M132.825 75.1439C138.957 73.1516 141.81 69.7493 142.47 68.2972L132.88 64.5472C130.36 66.9658 125.324 72.0211 125.341 72.8936C125.361 73.9841 126.986 77.0414 132.825 75.1439Z" fill="url(#paint7_linear_9848_2701)"/>
<path d="M132.825 75.1439C138.957 73.1516 141.81 69.7493 142.47 68.2972L132.88 64.5472C130.36 66.9658 125.324 72.0211 125.341 72.8936C125.361 73.9841 126.986 77.0414 132.825 75.1439Z" fill="url(#paint8_radial_9848_2701)"/>
<path fill-rule="evenodd" clip-rule="evenodd" d="M162.652 59.3304C164.37 59.9612 166.068 60.4248 167.162 60.5955C168.937 58.5755 173.418 56.0436 176.055 54.5535C176.669 54.2066 177.183 53.9162 177.54 53.7018C176.653 51.4668 169.708 49.0885 165.062 52.1947C161.622 54.4945 161.341 57.5295 162.652 59.3304Z" fill="url(#paint9_radial_9848_2701)"/>
<path d="M156.941 81.236C158.63 80.7858 159.831 79.1741 160.221 78.4245C159.05 76.0504 156.01 71.9639 153.215 74.6109C149.72 77.9196 149.659 82.6134 149.821 84.0599C149.95 85.2172 152.125 87.678 153.197 88.7638C153.481 89.0175 154.614 89.0809 156.876 87.3048C159.138 85.5286 157.862 82.5189 156.941 81.236Z" fill="url(#paint10_linear_9848_2701)"/>
<path d="M156.941 81.236C158.63 80.7858 159.831 79.1741 160.221 78.4245C159.05 76.0504 156.01 71.9639 153.215 74.6109C149.72 77.9196 149.659 82.6134 149.821 84.0599C149.95 85.2172 152.125 87.678 153.197 88.7638C153.481 89.0175 154.614 89.0809 156.876 87.3048C159.138 85.5286 157.862 82.5189 156.941 81.236Z" fill="url(#paint11_radial_9848_2701)"/>
<path fill-rule="evenodd" clip-rule="evenodd" d="M159.675 79.2564C159.64 79.2045 159.601 79.1517 159.559 79.098C157.729 76.7339 154.382 78.1643 154.26 79.4144C155.088 79.3373 156.201 80.3455 156.973 81.2267C158.151 80.9014 159.089 80.0134 159.675 79.2564Z" fill="url(#paint12_radial_9848_2701)"/>
<path d="M140.791 75.1434C140.681 73.7586 143.697 70.4659 145.218 68.9926C148.692 70.1328 155.339 72.8343 154.14 74.5187C152.94 76.2031 150.396 76.507 149.274 76.4484C149.366 77.6024 149.256 80.0744 148.888 82.7475C148.428 86.0888 142.989 87.3529 142.246 85.9995C141.504 84.6461 140.928 76.8744 140.791 75.1434Z" fill="url(#paint13_linear_9848_2701)"/>
<path d="M140.791 75.1434C140.681 73.7586 143.697 70.4659 145.218 68.9926C148.692 70.1328 155.339 72.8343 154.14 74.5187C152.94 76.2031 150.396 76.507 149.274 76.4484C149.366 77.6024 149.256 80.0744 148.888 82.7475C148.428 86.0888 142.989 87.3529 142.246 85.9995C141.504 84.6461 140.928 76.8744 140.791 75.1434Z" fill="url(#paint14_radial_9848_2701)"/>
<path fill-rule="evenodd" clip-rule="evenodd" d="M143.495 58.1998C144.585 58.4892 148.176 58.4745 151.349 57.9439C151.773 57.3003 151.981 56.5971 151.883 55.8421C151.289 51.2982 147.393 49.3139 145.593 50.0277C146.256 52.7047 145.453 55.6956 143.495 58.1998Z" fill="url(#paint15_radial_9848_2701)"/>
<path fill-rule="evenodd" clip-rule="evenodd" d="M156.562 55.7783C156.561 55.7767 156.56 55.775 156.559 55.7734C156.58 55.7411 156.6 55.7085 156.621 55.6756C156.602 55.7102 156.583 55.7444 156.562 55.7783ZM156.663 55.6063C157.088 56.6566 158.895 57.7535 160.967 58.6565C162.626 57.5383 163.725 53.979 163.985 51.7296C164.435 47.843 156.754 43.885 157.423 46.0917C158.812 50.6704 157.844 53.6707 156.663 55.6063Z" fill="url(#paint16_radial_9848_2701)"/>
<path d="M170.94 80.0034C178.595 75.3193 176.207 67.4396 173.629 64.233L166.603 62.2805L156.666 69.3573C161.855 75.8015 165.727 83.1928 170.94 80.0034Z" fill="url(#paint17_radial_9848_2701)"/>
<path fill-rule="evenodd" clip-rule="evenodd" d="M149.302 76.4491C149.474 74.7048 148.773 73.2001 148.224 72.5034C149.715 71.9344 153.42 72.5827 153.951 74.7591C152.701 76.2186 150.382 76.4984 149.302 76.4491Z" fill="url(#paint18_radial_9848_2701)"/>
<path d="M230.751 53.9405C231.169 53.916 231.689 55.0424 231.862 57.9969C232.036 60.9515 231.619 62.1329 231.234 62.1556C230.848 62.1782 221.173 62.7465 221.173 62.7465C219.892 60.5009 219.681 56.9116 220.69 54.5315C220.69 54.5315 230.333 53.965 230.751 53.9405Z" fill="url(#paint19_linear_9848_2701)"/>
<path d="M222.969 54.3977C222.969 54.3977 222.299 55.594 222.473 58.5486C222.646 61.5031 223.452 62.6128 223.452 62.6128L213.391 63.2037C212.111 60.9581 211.9 57.3688 212.909 54.9887L222.969 54.3977Z" fill="url(#paint20_linear_9848_2701)"/>
<path d="M125.222 60.1387L125.704 68.3537L112.842 65.5763L112.804 64.9162L125.222 60.1387Z" fill="url(#paint21_radial_9848_2701)"/>
<path fill-rule="evenodd" clip-rule="evenodd" d="M117.284 66.5354L112.844 65.5765L112.805 64.9164L116.975 63.3119C116.895 63.6583 116.833 64.1571 116.87 64.7874C116.909 65.4507 117.097 66.0746 117.284 66.5354Z" fill="url(#paint22_radial_9848_2701)"/>
<path d="M213.71 54.9407C213.71 54.9407 213.04 56.137 213.213 59.0915C213.387 62.0461 214.193 63.1557 214.193 63.1557L125.413 68.3705C125.072 67.7715 123.088 67.1778 122.901 66.4361C122.738 65.7874 124.792 64.976 124.752 64.2877C124.711 63.5994 122.576 63.0341 122.662 62.3708C122.761 61.6123 124.662 60.7904 124.931 60.1555L213.71 54.9407Z" fill="url(#paint23_linear_9848_2701)"/>
<path d="M230.049 58.1032C229.915 55.8349 230.213 53.9722 230.714 53.9428C231.215 53.9134 231.729 55.7284 231.863 57.9967C231.996 60.2649 231.698 62.1276 231.197 62.157C230.696 62.1865 230.182 60.3715 230.049 58.1032Z" fill="url(#paint24_radial_9848_2701)"/>
<path d="M159.17 64.6951C160.966 66.7297 175.745 76.3315 185.758 73.2026C195.77 70.0736 196.476 87.7677 192.61 95.5217C187.838 105.094 172.189 109.651 164.065 91.5584C162.025 87.0164 152.856 75.4395 150.679 74.1056C148.502 72.7716 147.432 73.8827 143.15 71.049C138.867 68.2154 137.222 63.3743 137.273 62.118C137.324 60.8617 138.965 59.1122 142.429 58.1504C145.893 57.1886 152.166 60.194 153.754 60.3883C155.342 60.5826 156.926 62.1519 159.17 64.6951Z" fill="url(#paint25_linear_9848_2701)"/>
<path d="M159.17 64.6951C160.966 66.7297 175.745 76.3315 185.758 73.2026C195.77 70.0736 196.476 87.7677 192.61 95.5217C187.838 105.094 172.189 109.651 164.065 91.5584C162.025 87.0164 152.856 75.4395 150.679 74.1056C148.502 72.7716 147.432 73.8827 143.15 71.049C138.867 68.2154 137.222 63.3743 137.273 62.118C137.324 60.8617 138.965 59.1122 142.429 58.1504C145.893 57.1886 152.166 60.194 153.754 60.3883C155.342 60.5826 156.926 62.1519 159.17 64.6951Z" fill="url(#paint26_radial_9848_2701)"/>
<path d="M159.17 64.6951C160.966 66.7297 175.745 76.3315 185.758 73.2026C195.77 70.0736 196.476 87.7677 192.61 95.5217C187.838 105.094 172.189 109.651 164.065 91.5584C162.025 87.0164 152.856 75.4395 150.679 74.1056C148.502 72.7716 147.432 73.8827 143.15 71.049C138.867 68.2154 137.222 63.3743 137.273 62.118C137.324 60.8617 138.965 59.1122 142.429 58.1504C145.893 57.1886 152.166 60.194 153.754 60.3883C155.342 60.5826 156.926 62.1519 159.17 64.6951Z" fill="url(#paint27_radial_9848_2701)"/>
<path d="M144.278 65.932C145.116 62.8525 147.744 61.3984 149.272 60.5178C147.134 59.3973 142.454 57.1789 140.842 57.269C138.826 57.3816 136.422 60.6697 137.153 62.1654C137.883 63.6611 143.048 66.7285 144.278 65.932Z" fill="url(#paint28_radial_9848_2701)"/>
<path d="M150.569 85.6002C150.23 84.7457 150.237 83.5514 152.194 83.1188C152.934 83.8322 154.25 85.7012 153.987 85.9097C153.151 86.5717 152.706 87.7855 153.02 88.5766C152.247 87.7841 150.908 86.4546 150.569 85.6002Z" fill="url(#paint29_linear_9848_2701)"/>
<path d="M141.331 81.0104C141.426 80.646 142.632 80.2435 143.059 80.325C143.486 80.4065 144.63 83.7247 143.759 84.1723C142.538 84.7993 142.272 85.0529 142.134 85.8034C141.334 83.786 141.236 81.3748 141.331 81.0104Z" fill="url(#paint30_linear_9848_2701)"/>
<path d="M62.3043 13.5576V105.865H59.9966V13.5576H62.3043Z" fill="black"/>
<path d="M93.0739 13.5576V105.865H90.7662V13.5576H93.0739Z" fill="black"/>
<path d="M122.689 45.4801L30.3809 45.4801L30.3809 43.1724L122.689 43.1724L122.689 45.4801Z" fill="black"/>
<path d="M122.689 76.2508L30.3809 76.2508L30.3809 73.9431L122.689 73.9431L122.689 76.2508Z" fill="black"/>
<path d="M51.6423 38.6097H39.5801V37.122C39.5801 36.5145 39.665 35.9471 39.8347 35.4199C40.0045 34.8838 40.2323 34.3835 40.5183 33.9188C40.8042 33.4453 41.1392 33.003 41.5234 32.592C41.9076 32.172 42.3187 31.77 42.7565 31.3858C43.1943 30.9926 43.641 30.6174 44.0967 30.26C44.5524 29.8936 44.9992 29.5273 45.437 29.1609C45.848 28.8125 46.2233 28.473 46.5628 28.1424C46.9023 27.8028 47.1927 27.4544 47.434 27.097C47.6752 26.7396 47.8628 26.3643 47.9969 25.9711C48.1309 25.5691 48.1979 25.1357 48.1979 24.6711C48.1979 24.1618 48.1175 23.7195 47.9567 23.3443C47.8048 22.96 47.5859 22.6429 47.2999 22.3927C47.0229 22.1336 46.6923 21.9415 46.3081 21.8164C45.9239 21.6823 45.504 21.6153 45.0483 21.6153C44.262 21.6153 43.4623 21.7985 42.6493 22.1648C41.8362 22.5312 41.0544 23.0807 40.3038 23.8133V20.8246C40.697 20.5297 41.0946 20.2751 41.4966 20.0606C41.8987 19.8373 42.3142 19.6541 42.7431 19.5111C43.172 19.3592 43.6232 19.2475 44.0967 19.1761C44.5703 19.1046 45.0751 19.0688 45.6112 19.0688C46.4779 19.0688 47.2642 19.185 47.9701 19.4173C48.6759 19.6407 49.279 19.9758 49.7794 20.4225C50.2798 20.8603 50.664 21.4098 50.932 22.071C51.209 22.7322 51.3475 23.4917 51.3475 24.3494C51.3475 25.1268 51.2492 25.8282 51.0526 26.4536C50.865 27.0702 50.5925 27.6465 50.2351 28.1826C49.8866 28.7187 49.4622 29.228 48.9618 29.7105C48.4615 30.1929 47.903 30.6888 47.2865 31.1981C46.7683 31.6181 46.2501 32.0291 45.7318 32.4312C45.2225 32.8243 44.7624 33.213 44.3514 33.5972C43.9404 33.9725 43.6053 34.3522 43.3462 34.7364C43.096 35.1117 42.9709 35.4914 42.9709 35.8756V35.9426H51.6423V38.6097Z" fill="black"/>
<path d="M101.429 37.7383V34.8165C102.68 35.8083 104.092 36.3042 105.664 36.3042C106.942 36.3042 107.961 36.0138 108.72 35.433C109.489 34.8522 109.873 34.066 109.873 33.0742C109.873 30.894 108.206 29.804 104.874 29.804H103.386V27.3111H104.807C107.764 27.3111 109.243 26.2836 109.243 24.2285C109.243 22.3343 108.09 21.3872 105.785 21.3872C104.498 21.3872 103.288 21.8473 102.153 22.7676V20.0067C103.457 19.2741 104.999 18.9077 106.777 18.9077C108.483 18.9077 109.85 19.3366 110.878 20.1944C111.906 21.0521 112.419 22.1511 112.419 23.4914C112.419 26.02 111.133 27.6462 108.559 28.3699V28.4235C109.944 28.5575 111.039 29.0445 111.843 29.8844C112.647 30.7153 113.049 31.7563 113.049 33.0072C113.049 34.7316 112.401 36.1255 111.106 37.1888C109.81 38.2431 108.104 38.7703 105.986 38.7703C104.083 38.7703 102.564 38.4263 101.429 37.7383Z" fill="black"/>
<path d="M47.9924 51.0576V70.7057H44.883V54.8639C44.3201 55.266 43.7125 55.61 43.0603 55.8959C42.417 56.1729 41.6798 56.4186 40.8489 56.6331V53.9794C41.3671 53.8096 41.8675 53.6309 42.35 53.4433C42.8325 53.2556 43.306 53.0457 43.7706 52.8133C44.2442 52.581 44.7177 52.3219 45.1913 52.036C45.6738 51.7501 46.1697 51.424 46.679 51.0576H47.9924Z" fill="black"/>
<path d="M109.657 81.104V100.752H106.547V84.9103C105.984 85.3124 105.377 85.6564 104.725 85.9423C104.081 86.2193 103.344 86.465 102.513 86.6795V84.0258C103.031 83.856 103.532 83.6773 104.014 83.4897C104.497 83.302 104.97 83.092 105.435 82.8597C105.908 82.6274 106.382 82.3683 106.856 82.0824C107.338 81.7965 107.834 81.4703 108.343 81.104H109.657Z" fill="black"/>
<path d="M112.506 49.7688C116.608 58.4657 97.1398 63.3174 100.508 69.0506C105.363 69.2129 110.46 68.8929 115.359 68.8929C115.996 68.8932 116.512 69.4102 116.513 70.0467C116.513 70.6837 115.996 71.2001 115.359 71.2005C112.069 71.2005 99.5151 72.1426 97.6807 70.6732C95.8463 69.2038 98.4196 65.0532 100.021 63.0921C102.133 60.5077 112.742 55.6753 110.419 50.7513C109.119 47.9933 102.956 52.3649 101.847 51.9953C100.738 51.6257 100.505 51.2477 100.706 50.6432C100.983 50.1227 101.303 49.8777 101.847 49.6335C102.938 49.1436 105.139 48.4398 108.112 47.6413C110.074 47.1148 111.621 47.893 112.506 49.7688Z" fill="#7D7D7D"/>
<defs>
<linearGradient id="paint0_linear_9848_2701" x1="143.864" y1="61.4264" x2="153.558" y2="55.1516" gradientUnits="userSpaceOnUse">
<stop stop-color="#DEAB85"/>
<stop offset="1" stop-color="#7D5D48"/>
</linearGradient>
<linearGradient id="paint1_linear_9848_2701" x1="182.705" y1="103.25" x2="175.318" y2="115.468" gradientUnits="userSpaceOnUse">
<stop stop-color="#DEAB85"/>
<stop offset="1" stop-color="#6C472F"/>
</linearGradient>
<linearGradient id="paint2_linear_9848_2701" x1="176.34" y1="1.23931" x2="180.384" y2="109.911" gradientUnits="userSpaceOnUse">
<stop stop-color="#F1C4A4"/>
<stop offset="1" stop-color="#AF7A57"/>
</linearGradient>
<radialGradient id="paint3_radial_9848_2701" cx="0" cy="0" r="1" gradientUnits="userSpaceOnUse" gradientTransform="translate(156.673 42.7507) rotate(157.357) scale(33.983 8.96658)">
<stop stop-color="#F6C5A2"/>
<stop offset="1" stop-color="#F6C5A2" stop-opacity="0"/>
</radialGradient>
<radialGradient id="paint4_radial_9848_2701" cx="0" cy="0" r="1" gradientUnits="userSpaceOnUse" gradientTransform="translate(206.794 79.4603) rotate(-114.894) scale(42.966 27.0248)">
<stop stop-color="#F6C5A2"/>
<stop offset="1" stop-color="#F6C5A2" stop-opacity="0"/>
</radialGradient>
<radialGradient id="paint5_radial_9848_2701" cx="0" cy="0" r="1" gradientUnits="userSpaceOnUse" gradientTransform="translate(160.905 59.4357) rotate(-162.368) scale(28.2344 17.0829)">
<stop stop-color="#7A543A"/>
<stop offset="0.411458" stop-color="#F6C5A2" stop-opacity="0.6"/>
<stop offset="1" stop-color="#F6C5A2" stop-opacity="0"/>
</radialGradient>
<radialGradient id="paint6_radial_9848_2701" cx="0" cy="0" r="1" gradientUnits="userSpaceOnUse" gradientTransform="translate(167.371 99.4848) rotate(51.2939) scale(40.3619 17.6867)">
<stop stop-color="#5C3A23" stop-opacity="0.67"/>
<stop offset="1" stop-color="#5C3A23" stop-opacity="0"/>
</radialGradient>
<linearGradient id="paint7_linear_9848_2701" x1="140.162" y1="63.7019" x2="140.71" y2="73.9534" gradientUnits="userSpaceOnUse">
<stop stop-color="#F3C39F"/>
<stop offset="1" stop-color="#A57555"/>
</linearGradient>
<radialGradient id="paint8_radial_9848_2701" cx="0" cy="0" r="1" gradientUnits="userSpaceOnUse" gradientTransform="translate(133.116 65.1405) rotate(145.627) scale(15.052 4.96404)">
<stop stop-color="#F6C5A2"/>
<stop offset="1" stop-color="#F6C5A2" stop-opacity="0"/>
</radialGradient>
<radialGradient id="paint9_radial_9848_2701" cx="0" cy="0" r="1" gradientUnits="userSpaceOnUse" gradientTransform="translate(169.034 60.303) rotate(-36.377) scale(11.287 5.43287)">
<stop stop-color="#513320" stop-opacity="0.72"/>
<stop offset="1" stop-color="#513320" stop-opacity="0"/>
</radialGradient>
<linearGradient id="paint10_linear_9848_2701" x1="146.901" y1="89.7202" x2="153.785" y2="75.7631" gradientUnits="userSpaceOnUse">
<stop stop-color="#DEAB85"/>
<stop offset="1" stop-color="#6C472F"/>
</linearGradient>
<radialGradient id="paint11_radial_9848_2701" cx="0" cy="0" r="1" gradientUnits="userSpaceOnUse" gradientTransform="translate(148.878 81.8243) rotate(68.3665) scale(8.494 2.94743)">
<stop stop-color="#F6C5A2"/>
<stop offset="1" stop-color="#F6C5A2" stop-opacity="0"/>
</radialGradient>
<radialGradient id="paint12_radial_9848_2701" cx="0" cy="0" r="1" gradientUnits="userSpaceOnUse" gradientTransform="translate(156.809 81.425) rotate(-146.208) scale(2.86837 3.30115)">
<stop stop-color="#513320"/>
<stop offset="1" stop-color="#513320" stop-opacity="0"/>
</radialGradient>
<linearGradient id="paint13_linear_9848_2701" x1="136.812" y1="85.0924" x2="152.144" y2="74.6629" gradientUnits="userSpaceOnUse">
<stop stop-color="#DEAB85"/>
<stop offset="1" stop-color="#6C472F"/>
</linearGradient>
<radialGradient id="paint14_radial_9848_2701" cx="0" cy="0" r="1" gradientUnits="userSpaceOnUse" gradientTransform="translate(140.264 76.9318) rotate(86.1504) scale(10.6587 2.92023)">
<stop stop-color="#F6C5A2"/>
<stop offset="1" stop-color="#F6C5A2" stop-opacity="0"/>
</radialGradient>
<radialGradient id="paint15_radial_9848_2701" cx="0" cy="0" r="1" gradientUnits="userSpaceOnUse" gradientTransform="translate(143.805 57.2751) rotate(94.4993) scale(5.9573 4.2657)">
<stop stop-color="#513320" stop-opacity="0.58"/>
<stop offset="1" stop-color="#513320" stop-opacity="0"/>
</radialGradient>
<radialGradient id="paint16_radial_9848_2701" cx="0" cy="0" r="1" gradientUnits="userSpaceOnUse" gradientTransform="translate(156.506 55.6402) rotate(-84.483) scale(8.84686 4.634)">
<stop stop-color="#513320" stop-opacity="0.65"/>
<stop offset="1" stop-color="#513320" stop-opacity="0"/>
</radialGradient>
<radialGradient id="paint17_radial_9848_2701" cx="0" cy="0" r="1" gradientUnits="userSpaceOnUse" gradientTransform="translate(163.886 74.7733) rotate(12.2631) scale(12.5903 16.7955)">
<stop stop-color="#513320"/>
<stop offset="1" stop-color="#513320" stop-opacity="0"/>
</radialGradient>
<radialGradient id="paint18_radial_9848_2701" cx="0" cy="0" r="1" gradientUnits="userSpaceOnUse" gradientTransform="translate(149.096 76.5698) rotate(-106.068) scale(3.30294 2.48586)">
<stop stop-color="#513320"/>
<stop offset="1" stop-color="#513320" stop-opacity="0"/>
</radialGradient>
<linearGradient id="paint19_linear_9848_2701" x1="226.835" y1="62.4139" x2="226.38" y2="54.6673" gradientUnits="userSpaceOnUse">
<stop stop-color="#813F4B"/>
<stop offset="0.451163" stop-color="#CF5E6D"/>
<stop offset="1" stop-color="#E89EAD"/>
</linearGradient>
<linearGradient id="paint20_linear_9848_2701" x1="217.992" y1="62.9335" x2="217.51" y2="54.7184" gradientUnits="userSpaceOnUse">
<stop stop-color="#ADB1B4"/>
<stop offset="0.219298" stop-color="#6D7477"/>
<stop offset="0.359649" stop-color="#1C1E1D"/>
<stop offset="0.578947" stop-color="#F3F9F9"/>
<stop offset="0.877193" stop-color="#F3F9F9"/>
<stop offset="1" stop-color="#B0B0B2"/>
</linearGradient>
<radialGradient id="paint21_radial_9848_2701" cx="0" cy="0" r="1" gradientUnits="userSpaceOnUse" gradientTransform="translate(126.675 66.9228) rotate(179.491) scale(17.4067 3.97637)">
<stop stop-color="#A77F4C"/>
<stop offset="1" stop-color="#FAD992"/>
</radialGradient>
<radialGradient id="paint22_radial_9848_2701" cx="0" cy="0" r="1" gradientUnits="userSpaceOnUse" gradientTransform="translate(117.265 66.2108) rotate(176.118) scale(7.95428 1.81785)">
<stop offset="0.324236" stop-color="#09120E"/>
<stop offset="1" stop-color="#8B8D8C"/>
</radialGradient>
<linearGradient id="paint23_linear_9848_2701" x1="195.808" y1="64.2356" x2="195.325" y2="56.0206" gradientUnits="userSpaceOnUse">
<stop offset="0.245614" stop-color="#B95C11"/>
<stop offset="0.337719" stop-color="#FCB449"/>
<stop offset="0.701754" stop-color="#FCB449"/>
<stop offset="0.802632" stop-color="#FFD850"/>
<stop offset="1" stop-color="#FFD850"/>
</linearGradient>
<radialGradient id="paint24_radial_9848_2701" cx="0" cy="0" r="1" gradientUnits="userSpaceOnUse" gradientTransform="translate(231.247 58.0329) rotate(-93.3616) scale(4.83703 1.06818)">
<stop offset="0.567215" stop-color="#943B49"/>
<stop offset="1" stop-color="#943B49" stop-opacity="0"/>
</radialGradient>
<linearGradient id="paint25_linear_9848_2701" x1="132.537" y1="54.221" x2="185.998" y2="81.5305" gradientUnits="userSpaceOnUse">
<stop stop-color="#E6B18B"/>
<stop offset="0.758244" stop-color="#B58261"/>
<stop offset="0.98688" stop-color="#C6855C" stop-opacity="0"/>
</linearGradient>
<radialGradient id="paint26_radial_9848_2701" cx="0" cy="0" r="1" gradientUnits="userSpaceOnUse" gradientTransform="translate(168.286 67.3621) rotate(-153.47) scale(21.3745 11.9628)">
<stop offset="0.182455" stop-color="#F6C5A2" stop-opacity="0.8"/>
<stop offset="1" stop-color="#F6C5A2" stop-opacity="0"/>
</radialGradient>
<radialGradient id="paint27_radial_9848_2701" cx="0" cy="0" r="1" gradientUnits="userSpaceOnUse" gradientTransform="translate(154.647 85.718) rotate(46.6366) scale(30.9866 12.9264)">
<stop stop-color="#5C3A23" stop-opacity="0.88"/>
<stop offset="1" stop-color="#5C3A23" stop-opacity="0"/>
</radialGradient>
<radialGradient id="paint28_radial_9848_2701" cx="0" cy="0" r="1" gradientUnits="userSpaceOnUse" gradientTransform="translate(142.387 59.2654) rotate(-167.717) scale(9.15175 8.05188)">
<stop stop-color="#FFDCC2"/>
<stop offset="1" stop-color="#DBAA8A"/>
</radialGradient>
<linearGradient id="paint29_linear_9848_2701" x1="153.505" y1="86.6844" x2="148.276" y2="79.3852" gradientUnits="userSpaceOnUse">
<stop stop-color="#F0CEB5"/>
<stop offset="1" stop-color="#AD917E"/>
</linearGradient>
<linearGradient id="paint30_linear_9848_2701" x1="143.008" y1="84.4608" x2="138.983" y2="75.422" gradientUnits="userSpaceOnUse">
<stop stop-color="#EFD9C9"/>
<stop offset="1" stop-color="#956E54"/>
</linearGradient>
</defs>
</svg>
