<svg viewBox="0 0 240 120" fill="none" xmlns="http://www.w3.org/2000/svg">
<path d="M78.4615 120H240C240 113.232 229.276 106.19 213.03 103.788C172.727 97.8291 106.932 103.871 78.4615 120Z" fill="url(#paint0_linear_7946_1006)"/>
<path d="M78.4615 120H240C240 113.232 229.276 106.19 213.03 103.788C172.727 97.8291 106.932 103.871 78.4615 120Z" fill="url(#paint1_radial_7946_1006)"/>
<path d="M69.7786 70.9002C76.9009 66.3003 91.6057 57.5278 98.6539 56.5386C102.957 65.1447 102.392 91.4882 101.773 102.431L61.1539 93.8994C61.1539 87.3459 62.6562 75.5 69.7786 70.9002Z" fill="url(#paint2_radial_7946_1006)"/>
<path d="M69.7786 70.9002C76.9009 66.3003 91.6057 57.5278 98.6539 56.5386C102.957 65.1447 102.392 91.4882 101.773 102.431L61.1539 93.8994C61.1539 87.3459 62.6562 75.5 69.7786 70.9002Z" fill="url(#paint3_linear_7946_1006)"/>
<path d="M69.7786 70.9002C76.9009 66.3003 91.6057 57.5278 98.6539 56.5386C102.957 65.1447 102.392 91.4882 101.773 102.431L61.1539 93.8994C61.1539 87.3459 62.6562 75.5 69.7786 70.9002Z" fill="url(#paint4_linear_7946_1006)"/>
<path d="M91.2229 65.0315C91.7924 66.3712 91.6978 68.1094 88.9951 68.8403C86.2924 69.5713 83.6215 68.4834 83.052 67.1437C82.4825 65.804 85.7378 64.4968 86.9326 63.9888C88.1275 63.4809 90.6533 63.6918 91.2229 65.0315Z" fill="url(#paint5_radial_7946_1006)"/>
<path d="M73.2693 83.9078C73.2693 86.3481 72.8318 88.9677 71.2502 88.3229C69.6687 87.678 68.5096 84.2479 68.5096 81.8076C68.5096 79.3672 70.5098 79.4855 71.2502 79.4855C71.9907 79.4855 73.2693 81.4674 73.2693 83.9078Z" fill="url(#paint6_radial_7946_1006)"/>
<path d="M81.3222 87.8786C81.3222 91.1495 80.7359 94.6606 78.6161 93.7963C76.4962 92.9319 74.9428 88.3345 74.9428 85.0637C74.9428 81.7928 77.6236 81.9514 78.6161 81.9514C79.6085 81.9514 81.3222 84.6078 81.3222 87.8786Z" fill="url(#paint7_radial_7946_1006)"/>
<path d="M79.4656 71.6725C81.4336 73.1155 83.0925 75.2831 80.9326 77.1383C78.7727 78.9935 74.8048 78.6042 72.8368 77.1612C70.8688 75.7182 73.0381 72.9598 73.8058 71.9127C74.5736 70.8657 77.4975 70.2295 79.4656 71.6725Z" fill="url(#paint8_radial_7946_1006)"/>
<path d="M89.8239 71.2016C91.792 72.6446 93.4509 74.8122 91.291 76.6674C89.1311 78.5225 85.1632 78.1332 83.1952 76.6902C81.2272 75.2472 83.3965 72.4888 84.1642 71.4418C84.932 70.3947 87.8559 69.7586 89.8239 71.2016Z" fill="url(#paint9_radial_7946_1006)"/>
<path d="M149.905 107.81C136.365 108.923 108.265 104.564 100.29 101.782C90.6498 98.419 95.3842 57.1262 98.8989 50.6827C112.078 26.521 142.001 36.7449 159.921 50.6827C167.934 56.9147 172.163 82.5849 173.276 94.6409C173.276 94.6409 163.445 106.697 149.905 107.81Z" fill="url(#paint10_radial_7946_1006)"/>
<path d="M149.905 107.81C136.365 108.923 108.265 104.564 100.29 101.782C90.6498 98.419 95.3842 57.1262 98.8989 50.6827C112.078 26.521 142.001 36.7449 159.921 50.6827C167.934 56.9147 172.163 82.5849 173.276 94.6409C173.276 94.6409 163.445 106.697 149.905 107.81Z" fill="url(#paint11_radial_7946_1006)"/>
<path d="M149.905 107.81C136.365 108.923 108.265 104.564 100.29 101.782C90.6498 98.419 95.3842 57.1262 98.8989 50.6827C112.078 26.521 142.001 36.7449 159.921 50.6827C167.934 56.9147 172.163 82.5849 173.276 94.6409C173.276 94.6409 163.445 106.697 149.905 107.81Z" fill="url(#paint12_radial_7946_1006)"/>
<path d="M149.905 107.81C136.365 108.923 108.265 104.564 100.29 101.782C90.6498 98.419 95.3842 57.1262 98.8989 50.6827C112.078 26.521 142.001 36.7449 159.921 50.6827C167.934 56.9147 172.163 82.5849 173.276 94.6409C173.276 94.6409 163.445 106.697 149.905 107.81Z" fill="url(#paint13_linear_7946_1006)"/>
<path d="M149.905 107.81C136.365 108.923 108.265 104.564 100.29 101.782C90.6498 98.419 95.3842 57.1262 98.8989 50.6827C112.078 26.521 142.001 36.7449 159.921 50.6827C167.934 56.9147 172.163 82.5849 173.276 94.6409C173.276 94.6409 163.445 106.697 149.905 107.81Z" fill="url(#paint14_radial_7946_1006)"/>
<path d="M149.905 107.81C136.365 108.923 108.265 104.564 100.29 101.782C90.6498 98.419 95.3842 57.1262 98.8989 50.6827C112.078 26.521 142.001 36.7449 159.921 50.6827C167.934 56.9147 172.163 82.5849 173.276 94.6409C173.276 94.6409 163.445 106.697 149.905 107.81Z" fill="url(#paint15_radial_7946_1006)"/>
<path d="M149.905 107.81C136.365 108.923 108.265 104.564 100.29 101.782C90.6498 98.419 95.3842 57.1262 98.8989 50.6827C112.078 26.521 142.001 36.7449 159.921 50.6827C167.934 56.9147 172.163 82.5849 173.276 94.6409C173.276 94.6409 163.445 106.697 149.905 107.81Z" fill="url(#paint16_radial_7946_1006)"/>
<path d="M181.807 105.193C181.529 103.523 177.17 95.2906 173.832 92.7866C168.035 88.4389 156.212 100.771 157.88 107.14C158.901 111.035 163.908 113.725 167.989 115.301C172.07 116.878 188.206 119.196 189.69 119.103C191.174 119.011 192.472 118.64 191.452 113.261C190.636 108.958 184.342 105.873 181.807 105.193Z" fill="url(#paint17_linear_7946_1006)"/>
<path d="M181.807 105.193C181.529 103.523 177.17 95.2906 173.832 92.7866C168.035 88.4389 156.212 100.771 157.88 107.14C158.901 111.035 163.908 113.725 167.989 115.301C172.07 116.878 188.206 119.196 189.69 119.103C191.174 119.011 192.472 118.64 191.452 113.261C190.636 108.958 184.342 105.873 181.807 105.193Z" fill="url(#paint18_linear_7946_1006)"/>
<path d="M181.807 105.193C181.529 103.523 177.17 95.2906 173.832 92.7866C168.035 88.4389 156.212 100.771 157.88 107.14C158.901 111.035 163.908 113.725 167.989 115.301C172.07 116.878 188.206 119.196 189.69 119.103C191.174 119.011 192.472 118.64 191.452 113.261C190.636 108.958 184.342 105.873 181.807 105.193Z" fill="url(#paint19_radial_7946_1006)"/>
<path d="M181.807 105.193C181.529 103.523 177.17 95.2906 173.832 92.7866C168.035 88.4389 156.212 100.771 157.88 107.14C158.901 111.035 163.908 113.725 167.989 115.301C172.07 116.878 188.206 119.196 189.69 119.103C191.174 119.011 192.472 118.64 191.452 113.261C190.636 108.958 184.342 105.873 181.807 105.193Z" fill="url(#paint20_radial_7946_1006)"/>
<path d="M174.342 116.852C176.153 108.543 175.095 106.095 171.328 105.862C167.56 105.629 166.586 108.703 165.044 113.966C166.277 114.622 166.908 114.917 168.105 115.38C169.355 115.863 171.598 116.321 174.342 116.852Z" fill="url(#paint21_linear_7946_1006)"/>
<path d="M183.361 118.343C185.243 110.176 182.213 107.673 177.785 106.792C173.356 105.91 173.588 112.959 173.425 116.654C176.532 117.28 180.254 117.892 183.361 118.343Z" fill="url(#paint22_linear_7946_1006)"/>
<path d="M187.616 108.113C186.503 108.805 186.377 109.938 186.444 111.406C186.501 112.655 186.94 116.229 187.675 118.944C188.707 119.061 189.427 119.12 189.69 119.103C191.174 119.011 192.472 118.64 191.452 113.261C191.067 111.233 189.466 109.476 187.616 108.113Z" fill="url(#paint23_linear_7946_1006)"/>
<path d="M188.368 119.02C188.473 116.539 188.612 113.479 188.206 111.056C186.908 106.79 182.329 107.694 181.459 108.842C180.59 109.99 180.15 114.415 179.303 117.791C182.976 118.395 186.478 118.831 188.368 119.02Z" fill="url(#paint24_linear_7946_1006)"/>
<path d="M175.8 95.1193C176.37 96.4591 176.275 98.1973 173.573 98.9282C170.87 99.6592 168.199 98.5713 167.63 97.2316C167.06 95.8918 170.315 94.5847 171.51 94.0767C172.705 93.5688 175.231 93.7796 175.8 95.1193Z" fill="url(#paint25_radial_7946_1006)"/>
<path d="M172.487 100.641C173.013 101.879 172.769 103.553 169.702 104.47C166.635 105.388 163.75 104.559 163.224 103.32C162.697 102.082 166.425 100.568 167.795 99.9854C169.166 99.4027 171.96 99.4024 172.487 100.641Z" fill="url(#paint26_radial_7946_1006)"/>
<path d="M100.011 94.6413C103.999 87.3149 107.801 88.1496 118.559 87.9641C123.352 87.6798 129.294 89.9625 135.438 93.1575C140.075 95.5687 146.195 98.5982 148.978 100.577C149.905 100.577 152.613 100.762 156.026 101.504C160.292 102.431 164.372 111.149 162.888 113.745C161.405 116.342 154.171 116.342 146.566 116.342C140.483 116.342 115.56 107.006 103.443 102.431C101.712 101.009 98.2797 97.823 100.011 94.6413Z" fill="url(#paint27_linear_7946_1006)"/>
<path d="M100.011 94.6413C103.999 87.3149 107.801 88.1496 118.559 87.9641C123.352 87.6798 129.294 89.9625 135.438 93.1575C140.075 95.5687 146.195 98.5982 148.978 100.577C149.905 100.577 152.613 100.762 156.026 101.504C160.292 102.431 164.372 111.149 162.888 113.745C161.405 116.342 154.171 116.342 146.566 116.342C140.483 116.342 115.56 107.006 103.443 102.431C101.712 101.009 98.2797 97.823 100.011 94.6413Z" fill="url(#paint28_linear_7946_1006)"/>
<path d="M100.011 94.6413C103.999 87.3149 107.801 88.1496 118.559 87.9641C123.352 87.6798 129.294 89.9625 135.438 93.1575C140.075 95.5687 146.195 98.5982 148.978 100.577C149.905 100.577 152.613 100.762 156.026 101.504C160.292 102.431 164.372 111.149 162.888 113.745C161.405 116.342 154.171 116.342 146.566 116.342C140.483 116.342 115.56 107.006 103.443 102.431C101.712 101.009 98.2797 97.823 100.011 94.6413Z" fill="url(#paint29_radial_7946_1006)"/>
<path d="M143.054 115.847C140.63 115.448 136.684 114.324 132.044 112.606C132.748 106.744 135.144 104.092 138.753 104.85C141.725 105.474 143.459 106.744 143.054 115.847Z" fill="url(#paint30_linear_7946_1006)"/>
<path d="M154.842 116.197C152.34 116.343 149.48 116.343 146.566 116.343C145.387 116.343 143.469 115.999 141.055 115.412C141.055 104.924 141.349 103.939 145.917 103.73C150.484 103.522 150.716 105.678 151.829 110.686C152.235 112.512 154.875 114.296 154.842 116.197Z" fill="url(#paint31_linear_7946_1006)"/>
<path d="M157.106 101.901C160.945 103.87 164.246 111.37 162.888 113.746C162.16 115.021 160.045 115.67 157.182 116C156.294 112.61 155.903 107.346 155.933 106.049C155.864 104.41 155.947 102.62 157.106 101.901Z" fill="url(#paint32_linear_7946_1006)"/>
<path d="M161.01 115.16C158.664 116.096 154.644 116.291 150.167 116.331C149.186 107.578 149.487 103.312 154.635 102.988C156.883 102.988 159.41 106.534 161.01 115.16Z" fill="url(#paint33_linear_7946_1006)"/>
<path d="M104.508 95.8622C103.403 97.6123 103.201 100.111 107.046 101.892C110.892 103.672 115.049 102.856 116.153 101.106C117.258 99.3562 112.71 96.6045 111.046 95.5544C109.382 94.5043 105.612 94.1122 104.508 95.8622Z" fill="url(#paint34_radial_7946_1006)"/>
<path d="M115.203 91.9138C114.098 93.6638 113.895 96.1627 117.741 97.9433C121.587 99.7238 125.744 98.9078 126.848 97.1578C127.953 95.4077 123.405 92.656 121.741 91.6059C120.077 90.5558 116.307 90.1637 115.203 91.9138Z" fill="url(#paint35_radial_7946_1006)"/>
<path d="M128.511 95.6921C127.406 97.4421 127.204 99.9411 131.049 101.722C134.895 103.502 139.052 102.686 140.156 100.936C141.261 99.1861 136.713 96.4343 135.049 95.3842C133.385 94.3341 129.615 93.9421 128.511 95.6921Z" fill="url(#paint36_radial_7946_1006)"/>
<path d="M144.248 13.4946C139.796 12.1962 137.524 11.2499 133.341 12.9084C129.807 10.8892 122.486 12.2263 120.043 13.4947C115.22 15.9986 114.293 19.337 110.398 25.1796C105.96 31.8373 102.237 37.7922 102.33 43.913C102.422 50.0337 106.039 58.1948 108.914 60.7915C111.789 63.3881 118.467 64.13 122.362 64.4083C126.257 64.6865 135.716 64.6865 141.28 64.4083C146.844 64.13 155.747 62.4608 157.509 60.7915C159.271 59.1222 163.352 49.7555 163.166 44.7476C162.981 39.7397 159.179 31.3005 155.747 25.7362C152.316 20.1718 148.699 14.7929 144.248 13.4946Z" fill="url(#paint37_radial_7946_1006)"/>
<path d="M155.46 47.2825C154.086 47.1004 152.699 46.237 153.382 43.8705C154.065 41.5041 156.232 39.9907 157.606 40.1728C158.98 40.355 158.509 43.3997 158.359 44.5301C158.209 45.6606 156.834 47.4647 155.46 47.2825Z" fill="url(#paint38_radial_7946_1006)"/>
<path d="M144.705 42.8214C143.742 42.6937 142.742 42.2895 143.125 41.3575C143.508 40.4256 144.956 39.8974 145.92 40.0252C146.883 40.1529 146.675 41.3679 146.615 41.8201C146.555 42.2722 145.669 42.9491 144.705 42.8214Z" fill="url(#paint39_radial_7946_1006)"/>
<path d="M144.705 47.0492C143.742 46.9215 142.742 46.5173 143.125 45.5853C143.508 44.6534 144.956 44.1252 145.92 44.2529C146.883 44.3807 146.675 45.5957 146.615 46.0478C146.555 46.4999 145.669 47.1769 144.705 47.0492Z" fill="url(#paint40_radial_7946_1006)"/>
<path d="M148.279 44.142C147.315 44.0143 146.316 43.61 146.699 42.6781C147.081 41.7462 148.53 41.218 149.493 41.3457C150.457 41.4734 150.248 42.6885 150.189 43.1406C150.129 43.5927 149.243 44.2697 148.279 44.142Z" fill="url(#paint41_radial_7946_1006)"/>
<path d="M151.158 56.8932C149.596 56.3181 148.199 54.9418 149.623 52.3504C151.046 49.7589 153.981 48.5568 155.543 49.132C157.104 49.7071 155.751 53.1487 155.277 54.4331C154.804 55.7176 152.719 57.4684 151.158 56.8932Z" fill="url(#paint42_radial_7946_1006)"/>
<path d="M155.727 38.4094C156.729 37.8342 157.563 36.7975 156.428 35.4337C155.293 34.0698 153.247 33.7674 152.245 34.3426C151.244 34.9178 152.393 36.8069 152.8 37.5166C153.208 38.2262 154.725 38.9846 155.727 38.4094Z" fill="url(#paint43_radial_7946_1006)"/>
<path d="M107.462 47.2825C108.837 47.1004 110.224 46.237 109.54 43.8705C108.857 41.5041 106.691 39.9907 105.317 40.1728C103.942 40.355 104.414 43.3997 104.563 44.5301C104.713 45.6606 106.088 47.4647 107.462 47.2825Z" fill="url(#paint44_radial_7946_1006)"/>
<path d="M118.217 42.8214C119.181 42.6937 120.18 42.2895 119.797 41.3575C119.415 40.4256 117.966 39.8974 117.003 40.0252C116.039 40.1529 116.248 41.3679 116.308 41.8201C116.368 42.2722 117.254 42.9491 118.217 42.8214Z" fill="url(#paint45_radial_7946_1006)"/>
<path d="M118.217 47.0492C119.181 46.9215 120.18 46.5173 119.797 45.5853C119.415 44.6534 117.966 44.1252 117.003 44.2529C116.039 44.3807 116.248 45.5957 116.308 46.0478C116.368 46.4999 117.254 47.1769 118.217 47.0492Z" fill="url(#paint46_radial_7946_1006)"/>
<path d="M114.644 44.142C115.607 44.0143 116.606 43.61 116.224 42.6781C115.841 41.7462 114.393 41.218 113.429 41.3457C112.465 41.4734 112.674 42.6885 112.734 43.1406C112.794 43.5927 113.68 44.2697 114.644 44.142Z" fill="url(#paint47_radial_7946_1006)"/>
<path d="M111.765 56.8932C113.326 56.3181 114.723 54.9418 113.3 52.3504C111.877 49.7589 108.942 48.5568 107.38 49.132C105.818 49.7071 107.172 53.1487 107.645 54.4331C108.118 55.7176 110.203 57.4684 111.765 56.8932Z" fill="url(#paint48_radial_7946_1006)"/>
<path d="M107.196 38.4094C106.194 37.8342 105.359 36.7975 106.495 35.4337C107.63 34.0698 109.675 33.7674 110.677 34.3426C111.679 34.9178 110.53 36.8069 110.122 37.5166C109.715 38.2262 108.197 38.9846 107.196 38.4094Z" fill="url(#paint49_radial_7946_1006)"/>
<path d="M131.172 68.4887C124.309 67.4686 121.991 63.3881 121.341 59.6785C121.712 55.3755 128.544 55.5362 131.914 56.1544C135.407 55.7835 142.449 55.7649 142.671 58.6584C142.95 62.2752 138.034 69.5088 131.172 68.4887Z" fill="url(#paint50_radial_7946_1006)"/>
<path d="M123.289 60.5128C115.591 59.0292 120.257 44.2062 125.913 43.5571C128.796 39.4726 135.539 39.7818 137.596 44.1341C143.903 46.4526 146.288 57.9161 142.393 60.5128C139.277 62.5902 134.263 59.601 132.006 57.8699C130.917 59.3306 129.554 61.7205 123.289 60.5128Z" fill="url(#paint51_radial_7946_1006)"/>
<path d="M123.289 60.5128C115.591 59.0292 120.257 44.2062 125.913 43.5571C128.796 39.4726 135.539 39.7818 137.596 44.1341C143.903 46.4526 146.288 57.9161 142.393 60.5128C139.277 62.5902 134.263 59.601 132.006 57.8699C130.917 59.3306 129.554 61.7205 123.289 60.5128Z" fill="url(#paint52_radial_7946_1006)"/>
<path d="M123.289 60.5128C115.591 59.0292 120.257 44.2062 125.913 43.5571C128.796 39.4726 135.539 39.7818 137.596 44.1341C143.903 46.4526 146.288 57.9161 142.393 60.5128C139.277 62.5902 134.263 59.601 132.006 57.8699C130.917 59.3306 129.554 61.7205 123.289 60.5128Z" fill="url(#paint53_radial_7946_1006)"/>
<path d="M123.289 60.5128C115.591 59.0292 120.257 44.2062 125.913 43.5571C128.796 39.4726 135.539 39.7818 137.596 44.1341C143.903 46.4526 146.288 57.9161 142.393 60.5128C139.277 62.5902 134.263 59.601 132.006 57.8699C130.917 59.3306 129.554 61.7205 123.289 60.5128Z" fill="url(#paint54_radial_7946_1006)"/>
<path d="M132.98 58.413C132.392 57.187 132.608 54.7864 132.608 54.7864H131.403C131.403 55.2592 131.911 56.8827 131.403 58.413C130.895 59.9433 127.238 60.1798 125.479 60.1798C123.057 60.1798 119.98 58.7377 121.093 59.9433C122.206 61.1489 123.438 61.7418 125.479 61.7418C127.519 61.7418 129.062 62.0701 130.546 63.0902C132.029 64.1104 132.609 63.6467 133.907 62.812C135.206 61.9774 138.216 62.02 139.518 62.02C141.396 62.02 143.534 59.8925 143.437 59.4226C143.124 59.4226 140.849 60.1798 139.291 60.1798C138.319 60.1798 133.569 59.639 132.98 58.413Z" fill="url(#paint55_radial_7946_1006)"/>
<path d="M125.515 49.6621C124.68 45.6743 126.13 39.5904 126.952 34.2674C127.469 33.1364 130.549 33.6844 132.377 33.6182C134.268 33.5497 136.746 32.814 137.107 35.473C137.813 40.6722 138.498 48.271 138.498 50.2185C138.498 51.7765 134.186 54.1908 132.146 55.2728C130.136 54.6854 126.182 52.8523 125.515 49.6621Z" fill="url(#paint56_linear_7946_1006)"/>
<path d="M125.515 49.6621C124.68 45.6743 126.13 39.5904 126.952 34.2674C127.469 33.1364 130.549 33.6844 132.377 33.6182C134.268 33.5497 136.746 32.814 137.107 35.473C137.813 40.6722 138.498 48.271 138.498 50.2185C138.498 51.7765 134.186 54.1908 132.146 55.2728C130.136 54.6854 126.182 52.8523 125.515 49.6621Z" fill="url(#paint57_linear_7946_1006)"/>
<path d="M125.515 49.6621C124.68 45.6743 126.13 39.5904 126.952 34.2674C127.469 33.1364 130.549 33.6844 132.377 33.6182C134.268 33.5497 136.746 32.814 137.107 35.473C137.813 40.6722 138.498 48.271 138.498 50.2185C138.498 51.7765 134.186 54.1908 132.146 55.2728C130.136 54.6854 126.182 52.8523 125.515 49.6621Z" fill="url(#paint58_linear_7946_1006)"/>
<path d="M162.668 11.365C157.938 6.44981 149.406 13.4052 146.16 14.4254C147.211 16.1874 150.037 20.3978 151.817 22.7719C153.598 25.146 157.104 30.5929 158.773 33.0659C160.442 31.1184 167.398 16.2801 162.668 11.365Z" fill="url(#paint59_linear_7946_1006)"/>
<path d="M162.668 11.365C157.938 6.44981 149.406 13.4052 146.16 14.4254C147.211 16.1874 150.037 20.3978 151.817 22.7719C153.598 25.146 157.104 30.5929 158.773 33.0659C160.442 31.1184 167.398 16.2801 162.668 11.365Z" fill="url(#paint60_radial_7946_1006)"/>
<path d="M162.668 11.365C157.938 6.44981 149.406 13.4052 146.16 14.4254C147.211 16.1874 150.037 20.3978 151.817 22.7719C153.598 25.146 157.104 30.5929 158.773 33.0659C160.442 31.1184 167.398 16.2801 162.668 11.365Z" fill="url(#paint61_radial_7946_1006)"/>
<path d="M161.555 14.2404C159.701 13.9436 154.293 15.4767 152.407 19.4645C152.407 20.8555 153.178 23.0807 154.6 25.0901C156.006 27.0779 156.899 28.0388 158.085 29.3153L158.124 29.3569C158.667 29.9413 163.874 14.6113 161.555 14.2404Z" fill="url(#paint62_linear_7946_1006)"/>
<path d="M161.555 14.2404C159.701 13.9436 154.293 15.4767 152.407 19.4645C152.407 20.8555 153.178 23.0807 154.6 25.0901C156.006 27.0779 156.899 28.0388 158.085 29.3153L158.124 29.3569C158.667 29.9413 163.874 14.6113 161.555 14.2404Z" fill="url(#paint63_linear_7946_1006)"/>
<path d="M102.271 11.0832C107.001 6.16807 115.533 13.1235 118.779 14.1436C117.728 15.9057 114.902 20.116 113.121 22.4901C111.341 24.8643 107.835 30.3111 106.166 32.7842C104.497 30.8366 97.5414 15.9984 102.271 11.0832Z" fill="url(#paint64_linear_7946_1006)"/>
<path d="M102.271 11.0832C107.001 6.16807 115.533 13.1235 118.779 14.1436C117.728 15.9057 114.902 20.116 113.121 22.4901C111.341 24.8643 107.835 30.3111 106.166 32.7842C104.497 30.8366 97.5414 15.9984 102.271 11.0832Z" fill="url(#paint65_radial_7946_1006)"/>
<path d="M102.271 11.0832C107.001 6.16807 115.533 13.1235 118.779 14.1436C117.728 15.9057 114.902 20.116 113.121 22.4901C111.341 24.8643 107.835 30.3111 106.166 32.7842C104.497 30.8366 97.5414 15.9984 102.271 11.0832Z" fill="url(#paint66_radial_7946_1006)"/>
<path d="M103.384 13.9576C105.239 13.6608 109.381 15.7193 111.267 19.7071C111.267 21.0981 111.762 22.798 110.34 24.8073C108.933 26.7951 108.04 27.756 106.854 29.0326L106.815 29.0741C106.272 29.6586 101.066 14.3286 103.384 13.9576Z" fill="url(#paint67_linear_7946_1006)"/>
<path d="M103.384 13.9576C105.239 13.6608 109.381 15.7193 111.267 19.7071C111.267 21.0981 111.762 22.798 110.34 24.8073C108.933 26.7951 108.04 27.756 106.854 29.0326L106.815 29.0741C106.272 29.6586 101.066 14.3286 103.384 13.9576Z" fill="url(#paint68_linear_7946_1006)"/>
<path d="M132.308 55.3658C134.845 55.3658 138.533 51.2505 138.533 49.9174C135.744 48.8815 133.989 49.1176 132.018 49.361C130.001 49.1177 128.181 48.7317 125.561 49.8245C125.561 51.9693 129.815 55.3658 132.308 55.3658Z" fill="url(#paint69_radial_7946_1006)"/>
<path d="M132.308 55.3658C134.845 55.3658 138.533 51.2505 138.533 49.9174C135.744 48.8815 133.989 49.1176 132.018 49.361C130.001 49.1177 128.181 48.7317 125.561 49.8245C125.561 51.9693 129.815 55.3658 132.308 55.3658Z" fill="url(#paint70_radial_7946_1006)"/>
<path d="M166.941 68.8995C168.106 70.8186 168.436 73.4369 164.803 74.9475C161.169 76.4582 157.096 75.2394 155.931 73.3202C154.767 71.4011 159.029 68.9423 160.586 67.9977C162.143 67.053 165.777 66.9803 166.941 68.8995Z" fill="url(#paint71_radial_7946_1006)"/>
<path d="M158.562 76.4597C159.667 78.2097 160.09 80.5694 157.042 81.8464C153.994 83.1234 150.422 81.9383 149.318 80.1883C148.213 78.4383 151.752 76.3233 153.042 75.509C154.333 74.6946 157.458 74.7096 158.562 76.4597Z" fill="url(#paint72_radial_7946_1006)"/>
<path d="M101.148 65.1318C99.5872 66.7449 98.9024 69.4355 102.898 72.4762C106.893 75.5169 111.712 75.7902 113.273 74.1771C114.834 72.564 110.228 68.2577 108.551 66.6346C106.873 65.0114 102.709 63.5186 101.148 65.1318Z" fill="url(#paint73_radial_7946_1006)"/>
<path d="M111.749 76.4597C110.645 78.2097 110.442 80.7086 114.288 82.4892C118.134 84.2697 122.29 83.4537 123.395 81.7037C124.499 79.9536 119.952 77.2019 118.288 76.1518C116.624 75.1017 112.854 74.7096 111.749 76.4597Z" fill="url(#paint74_radial_7946_1006)"/>
<path d="M168.783 81.9136C169.508 83.6194 169.666 85.7143 167.23 86.2177C164.794 86.721 162.13 85.0226 161.405 83.3168C160.68 81.611 163.553 80.4872 164.604 80.0406C165.655 79.5939 168.058 80.2079 168.783 81.9136Z" fill="url(#paint75_radial_7946_1006)"/>
<path d="M107.393 78.2696C108.805 80.0378 109.888 82.2812 107.951 83.0625C106.014 83.8438 102.884 82.2734 101.472 80.5052C100.06 78.737 102.106 77.2438 102.838 76.6593C103.57 76.0747 105.981 76.5014 107.393 78.2696Z" fill="url(#paint76_radial_7946_1006)"/>
<path d="M145.096 38.0763C140.326 38.0763 139.352 39.2317 138.535 39.9317C137.991 37.6373 138.221 32.5585 140.927 30.5985C143.634 28.6385 147.733 29.3929 149.444 30.0151C149.561 32.5429 148.991 38.0763 145.096 38.0763Z" fill="#2A2336"/>
<circle cx="143.971" cy="32.9296" r="3.81753" fill="url(#paint77_linear_7946_1006)"/>
<circle cx="143.971" cy="32.9295" r="1.68438" fill="#2A2336"/>
<path d="M142.91 31.1824C139.457 31.6491 138.671 37.3658 138.71 40.1658C136.37 40.1658 135.443 35.3824 138.01 31.8824C140.577 28.3823 148.86 25.1157 151.543 26.1657C154.227 27.2157 154.11 32.9324 152.71 33.3991C151.31 33.8658 147.227 30.5991 142.91 31.1824Z" fill="url(#paint78_radial_7946_1006)"/>
<path d="M142.91 31.1824C139.457 31.6491 138.671 37.3658 138.71 40.1658C136.37 40.1658 135.443 35.3824 138.01 31.8824C140.577 28.3823 148.86 25.1157 151.543 26.1657C154.227 27.2157 154.11 32.9324 152.71 33.3991C151.31 33.8658 147.227 30.5991 142.91 31.1824Z" fill="url(#paint79_radial_7946_1006)"/>
<path d="M142.91 31.1824C139.457 31.6491 138.671 37.3658 138.71 40.1658C136.37 40.1658 135.443 35.3824 138.01 31.8824C140.577 28.3823 148.86 25.1157 151.543 26.1657C154.227 27.2157 154.11 32.9324 152.71 33.3991C151.31 33.8658 147.227 30.5991 142.91 31.1824Z" fill="url(#paint80_radial_7946_1006)"/>
<path d="M118.774 37.9321C123.648 37.9321 124.391 39.2317 125.207 39.9317C125.752 37.6373 125.522 32.5585 122.815 30.5985C120.109 28.6385 116.01 29.3929 114.299 30.0151C114.182 32.5429 115.041 37.9321 118.774 37.9321Z" fill="#2A2336"/>
<circle cx="3.81753" cy="3.81753" r="3.81753" transform="matrix(-1 0 0 1 123.589 29.1121)" fill="url(#paint81_linear_7946_1006)"/>
<circle cx="1.68438" cy="1.68438" r="1.68438" transform="matrix(-1 0 0 1 121.456 31.2451)" fill="#2A2336"/>
<path d="M120.833 31.1824C124.286 31.6491 125.072 37.3658 125.033 40.1658C127.067 40.1658 128.3 35.3824 125.733 31.8824C123.166 28.3823 114.883 25.1157 112.2 26.1657C109.516 27.2157 109.633 32.9324 111.033 33.3991C112.433 33.8658 116.516 30.5991 120.833 31.1824Z" fill="url(#paint82_radial_7946_1006)"/>
<path d="M120.833 31.1824C124.286 31.6491 125.072 37.3658 125.033 40.1658C127.067 40.1658 128.3 35.3824 125.733 31.8824C123.166 28.3823 114.883 25.1157 112.2 26.1657C109.516 27.2157 109.633 32.9324 111.033 33.3991C112.433 33.8658 116.516 30.5991 120.833 31.1824Z" fill="url(#paint83_radial_7946_1006)"/>
<path d="M141.87 54.3118C142.319 54.3118 142.683 53.9479 142.683 53.4989C142.683 53.05 142.319 52.686 141.87 52.686C141.535 52.686 141.248 52.8879 141.123 53.1763C141.09 53.2533 141.011 53.3052 140.928 53.3052C140.647 53.3052 140.399 53.4475 140.253 53.664C140.139 53.8329 139.875 53.9738 139.672 53.9738C139.447 53.9738 139.243 54.065 139.096 54.2124C138.948 54.3609 138.708 54.4606 138.498 54.4606C138.284 54.4606 138.09 54.5431 137.945 54.6779C137.782 54.8286 137.522 54.9309 137.3 54.9309C137.128 54.9309 136.968 54.9848 136.836 55.0765C136.669 55.1927 136.45 55.2616 136.246 55.2616C136.125 55.2616 136.01 55.2882 135.907 55.3359C135.637 55.4599 135.225 55.5501 134.929 55.5501C134.48 55.5501 134.116 55.914 134.116 56.363C134.116 56.8119 134.48 57.1759 134.929 57.1759C135.05 57.1759 135.165 57.1493 135.269 57.1016C135.538 56.9776 135.95 56.8874 136.246 56.8874C136.419 56.8874 136.579 56.8336 136.711 56.7418C136.877 56.6256 137.097 56.5567 137.3 56.5567C137.514 56.5567 137.709 56.4743 137.854 56.3394C138.016 56.1887 138.276 56.0864 138.498 56.0864C138.723 56.0864 138.926 55.9952 139.073 55.8478C139.221 55.6993 139.462 55.5996 139.672 55.5996C139.952 55.5996 140.2 55.4572 140.346 55.2407C140.46 55.0719 140.724 54.9309 140.928 54.9309C141.262 54.9309 141.549 54.7291 141.674 54.4406C141.707 54.3637 141.786 54.3118 141.87 54.3118Z" fill="url(#paint84_radial_7946_1006)"/>
<path d="M142.193 58.911C142.61 59.0775 143.083 58.8745 143.25 58.4576C143.416 58.0407 143.213 57.5677 142.796 57.4012C142.486 57.2772 142.144 57.3581 141.921 57.5797C141.862 57.6388 141.769 57.6578 141.692 57.6267C141.431 57.5226 141.148 57.563 140.932 57.7099C140.764 57.8244 140.466 57.8573 140.277 57.7818C140.068 57.6984 139.846 57.7077 139.654 57.79C139.462 57.8729 139.201 57.8763 139.007 57.7985C138.808 57.7193 138.597 57.7237 138.412 57.7951C138.206 57.8749 137.926 57.8732 137.72 57.7911C137.56 57.7271 137.391 57.7177 137.235 57.7541C137.037 57.8002 136.807 57.7827 136.619 57.7073C136.498 57.6589 136.372 57.6417 136.25 57.6519C135.967 57.6755 135.572 57.6097 135.311 57.4963L135.288 57.4865C134.871 57.32 134.398 57.523 134.232 57.9399C134.065 58.3568 134.268 58.8298 134.685 58.9963C134.806 59.0446 134.932 59.0618 135.054 59.0517C135.337 59.0281 135.732 59.0939 135.992 59.2073L136.016 59.2171C136.176 59.2811 136.344 59.2905 136.501 59.2541C136.699 59.208 136.928 59.2256 137.117 59.3009C137.315 59.3802 137.527 59.3757 137.711 59.3043C137.918 59.2245 138.198 59.2262 138.404 59.3083C138.612 59.3917 138.835 59.3824 139.026 59.3001C139.219 59.2172 139.479 59.2138 139.674 59.2916C139.935 59.3957 140.218 59.3553 140.433 59.2085C140.602 59.0939 140.899 59.061 141.089 59.1365C141.399 59.2606 141.741 59.1796 141.964 58.958C142.023 58.899 142.115 58.8799 142.193 58.911Z" fill="url(#paint85_radial_7946_1006)"/>
<path d="M122.403 54.1145C121.954 54.1145 121.59 53.7506 121.59 53.3017C121.59 52.8527 121.954 52.4888 122.403 52.4888C122.737 52.4888 123.024 52.6906 123.149 52.9791C123.182 53.056 123.261 53.1079 123.345 53.1079C123.626 53.1079 123.873 53.2503 124.019 53.4668C124.133 53.6356 124.397 53.7765 124.601 53.7765C124.826 53.7765 125.029 53.8677 125.176 54.0152C125.324 54.1636 125.565 54.2634 125.775 54.2634C125.988 54.2634 126.183 54.3458 126.328 54.4806C126.49 54.6313 126.751 54.7337 126.972 54.7337C127.145 54.7337 127.305 54.7875 127.436 54.8792C127.603 54.9955 127.823 55.0644 128.026 55.0644C128.147 55.0644 128.263 55.0909 128.366 55.1386C128.635 55.2626 129.047 55.3528 129.344 55.3528C129.793 55.3528 130.157 55.7168 130.157 56.1657C130.157 56.6146 129.793 56.9786 129.344 56.9786C129.222 56.9786 129.107 56.952 129.004 56.9043C128.735 56.7804 128.322 56.6901 128.026 56.6901C127.854 56.6901 127.693 56.6363 127.562 56.5446C127.395 56.4284 127.175 56.3594 126.972 56.3594C126.758 56.3594 126.564 56.277 126.419 56.1422C126.257 55.9915 125.996 55.8891 125.775 55.8891C125.55 55.8891 125.346 55.7979 125.199 55.6505C125.051 55.5021 124.811 55.4023 124.601 55.4023C124.32 55.4023 124.073 55.2599 123.927 55.0434C123.813 54.8746 123.549 54.7337 123.345 54.7337C123.011 54.7337 122.723 54.5318 122.599 54.2434C122.565 54.1664 122.487 54.1145 122.403 54.1145Z" fill="url(#paint86_radial_7946_1006)"/>
<path d="M122.079 58.715C121.662 58.8815 121.189 58.6785 121.023 58.2616C120.856 57.8447 121.059 57.3717 121.476 57.2052C121.787 57.0812 122.128 57.1621 122.351 57.3837C122.411 57.4428 122.503 57.4618 122.581 57.4307C122.841 57.3266 123.124 57.3669 123.34 57.5138C123.508 57.6284 123.806 57.6613 123.995 57.5857C124.204 57.5024 124.427 57.5116 124.618 57.594C124.811 57.6768 125.071 57.6803 125.266 57.6025C125.464 57.5232 125.675 57.5277 125.86 57.5991C126.067 57.6789 126.347 57.6772 126.552 57.5951C126.713 57.5311 126.881 57.5217 127.037 57.5581C127.235 57.6041 127.465 57.5866 127.654 57.5112C127.775 57.4629 127.901 57.4457 128.022 57.4558C128.305 57.4795 128.7 57.4136 128.961 57.3002L128.984 57.2905C129.401 57.1239 129.874 57.3269 130.041 57.7438C130.207 58.1608 130.004 58.6337 129.587 58.8002C129.466 58.8486 129.34 58.8658 129.219 58.8557C128.936 58.832 128.541 58.8978 128.28 59.0113L128.257 59.021C128.096 59.0851 127.928 59.0945 127.772 59.0581C127.574 59.012 127.344 59.0295 127.155 59.1049C126.957 59.1841 126.746 59.1797 126.561 59.1083C126.354 59.0285 126.074 59.0302 125.869 59.1123C125.66 59.1956 125.437 59.1864 125.246 59.1041C125.053 59.0212 124.793 59.0178 124.598 59.0955C124.337 59.1997 124.055 59.1593 123.839 59.0124C123.67 58.8979 123.373 58.865 123.184 58.9405C122.873 59.0645 122.532 58.9836 122.309 58.762C122.249 58.7029 122.157 58.6839 122.079 58.715Z" fill="url(#paint87_radial_7946_1006)"/>
<path d="M147.503 30.4378C148.979 29.9049 148.392 25.6223 146.625 23.8723C144.857 22.1224 144.063 25.4541 145.508 27.2145C146.953 28.9748 145.994 30.9825 147.503 30.4378Z" fill="url(#paint88_radial_7946_1006)"/>
<path d="M141.8 30.9415C141.887 29.5917 141.526 28.2093 139.188 25.7709C138.964 24.5064 140.539 23.8289 142.072 24.2091C143.606 24.5894 144.741 26.6518 144.449 29.1374C144.229 31.0118 141.705 32.4333 141.8 30.9415Z" fill="url(#paint89_radial_7946_1006)"/>
<path d="M150.159 30.2153C148.801 27.5025 147.544 23.2141 149.147 23.8126C150.299 24.2423 152.074 26.2128 152.349 27.6174C152.745 29.6362 150.737 31.3718 150.159 30.2153Z" fill="url(#paint90_radial_7946_1006)"/>
<path d="M116.581 30.4378C115.104 29.9049 115.692 25.6223 117.459 23.8723C119.226 22.1224 120.021 25.4541 118.576 27.2145C117.131 28.9748 118.09 30.9825 116.581 30.4378Z" fill="url(#paint91_radial_7946_1006)"/>
<path d="M122.283 30.9415C122.197 29.5917 122.558 28.2093 124.896 25.7709C125.12 24.5064 123.545 23.8289 122.011 24.2091C120.478 24.5894 119.343 26.6518 119.635 29.1374C119.855 31.0118 122.379 32.4333 122.283 30.9415Z" fill="url(#paint92_radial_7946_1006)"/>
<path d="M113.925 30.2153C115.283 27.5025 116.54 23.2141 114.936 23.8126C113.785 24.2423 112.01 26.2128 111.735 27.6174C111.339 29.6362 113.346 31.3718 113.925 30.2153Z" fill="url(#paint93_radial_7946_1006)"/>
<path d="M141.743 14.436C144.505 15.4788 146.201 16.8588 145.123 18.2405C144.045 19.6222 142.33 17.8718 139.567 16.829C136.805 15.7863 134.284 16.0217 135.362 14.64C136.44 13.2583 138.981 13.3933 141.743 14.436Z" fill="url(#paint94_radial_7946_1006)"/>
<path d="M138.801 19.3888C140.992 20.18 142.452 21.4401 141.874 23.0033C141.296 24.5665 139.764 22.9209 137.573 22.1298C135.382 21.3386 133.567 21.8589 134.145 20.2957C134.723 18.7325 136.61 18.5976 138.801 19.3888Z" fill="url(#paint95_radial_7946_1006)"/>
<path d="M137.816 24.9987C139.314 25.2634 140.22 25.8365 139.606 26.726C138.992 27.6154 138.08 26.839 136.583 26.5743C135.086 26.3096 133.7 26.727 134.314 25.8375C134.928 24.9481 136.319 24.7341 137.816 24.9987Z" fill="url(#paint96_radial_7946_1006)"/>
<path d="M123.415 14.436C120.652 15.4788 118.957 16.8588 120.035 18.2405C121.112 19.6222 122.828 17.8718 125.59 16.829C128.352 15.7863 130.873 16.0217 129.795 14.64C128.718 13.2583 126.177 13.3933 123.415 14.436Z" fill="url(#paint97_radial_7946_1006)"/>
<path d="M126.356 19.3888C124.165 20.18 122.706 21.4401 123.284 23.0033C123.862 24.5665 125.393 22.9209 127.584 22.1298C129.775 21.3386 131.591 21.8589 131.013 20.2957C130.435 18.7325 128.547 18.5976 126.356 19.3888Z" fill="url(#paint98_radial_7946_1006)"/>
<path d="M127.341 24.9987C125.844 25.2634 124.937 25.8365 125.552 26.726C126.166 27.6154 127.077 26.839 128.574 26.5743C130.072 26.3096 131.458 26.727 130.844 25.8375C130.229 24.9481 128.838 24.7341 127.341 24.9987Z" fill="url(#paint99_radial_7946_1006)"/>
<path d="M154.375 115.427C137.828 115.427 113.077 103.846 81.325 96.8497C40.3783 87.8276 17.6918 94.8493 0 120H198.462C197.415 118.857 172.209 115.427 154.375 115.427Z" fill="url(#paint100_linear_7946_1006)"/>
<defs>
<linearGradient id="paint0_linear_7946_1006" x1="159.231" y1="101.05" x2="157.095" y2="120.438" gradientUnits="userSpaceOnUse">
<stop stop-color="#DFEDFA"/>
<stop offset="0.43" stop-color="#CFE8F5"/>
<stop offset="1" stop-color="#9DB8C6"/>
</linearGradient>
<radialGradient id="paint1_radial_7946_1006" cx="0" cy="0" r="1" gradientUnits="userSpaceOnUse" gradientTransform="translate(166.612 119.607) rotate(-51.8414) scale(10.109 44.0484)">
<stop stop-color="#3B5785"/>
<stop offset="1" stop-color="#3B5785" stop-opacity="0"/>
</radialGradient>
<radialGradient id="paint2_radial_7946_1006" cx="0" cy="0" r="1" gradientUnits="userSpaceOnUse" gradientTransform="translate(105.205 84.0691) rotate(-159.099) scale(50.4298 77.4802)">
<stop stop-color="#686A76"/>
<stop offset="0.407457" stop-color="#AF998D"/>
<stop offset="0.743506" stop-color="#F1EDE7"/>
</radialGradient>
<linearGradient id="paint3_linear_7946_1006" x1="69.7786" y1="88.5206" x2="78.1251" y2="69.4164" gradientUnits="userSpaceOnUse">
<stop stop-color="#768894"/>
<stop offset="1" stop-color="#8597A3" stop-opacity="0"/>
</linearGradient>
<linearGradient id="paint4_linear_7946_1006" x1="103.846" y1="82.9328" x2="85.8173" y2="73.8463" gradientUnits="userSpaceOnUse">
<stop stop-color="#4D606D"/>
<stop offset="1" stop-color="#8597A3" stop-opacity="0"/>
</linearGradient>
<radialGradient id="paint5_radial_7946_1006" cx="0" cy="0" r="1" gradientUnits="userSpaceOnUse" gradientTransform="translate(87.3931 66.689) rotate(91.8433) scale(2.62609 4.99417)">
<stop offset="0.315648" stop-color="#555C67" stop-opacity="0.55"/>
<stop offset="0.685" stop-color="#555C67" stop-opacity="0"/>
</radialGradient>
<radialGradient id="paint6_radial_7946_1006" cx="0" cy="0" r="1" gradientUnits="userSpaceOnUse" gradientTransform="translate(70.8895 83.9533) rotate(98.9633) scale(4.04329 3.10103)">
<stop offset="0.315648" stop-color="#555C67" stop-opacity="0.55"/>
<stop offset="0.685" stop-color="#555C67" stop-opacity="0"/>
</radialGradient>
<radialGradient id="paint7_radial_7946_1006" cx="0" cy="0" r="1" gradientUnits="userSpaceOnUse" gradientTransform="translate(78.1325 87.9397) rotate(98.9633) scale(5.41929 4.15636)">
<stop offset="0.315648" stop-color="#555C67" stop-opacity="0.55"/>
<stop offset="0.685" stop-color="#555C67" stop-opacity="0"/>
</radialGradient>
<radialGradient id="paint8_radial_7946_1006" cx="0" cy="0" r="1" gradientUnits="userSpaceOnUse" gradientTransform="translate(77.0348 75.0647) rotate(51.71) scale(4.14385 5.30565)">
<stop offset="0.315648" stop-color="#555C67" stop-opacity="0.55"/>
<stop offset="0.685" stop-color="#555C67" stop-opacity="0"/>
</radialGradient>
<radialGradient id="paint9_radial_7946_1006" cx="0" cy="0" r="1" gradientUnits="userSpaceOnUse" gradientTransform="translate(87.3932 74.5938) rotate(51.71) scale(4.14385 5.30565)">
<stop offset="0.315648" stop-color="#555C67" stop-opacity="0.55"/>
<stop offset="0.685" stop-color="#555C67" stop-opacity="0"/>
</radialGradient>
<radialGradient id="paint10_radial_7946_1006" cx="0" cy="0" r="1" gradientUnits="userSpaceOnUse" gradientTransform="translate(166.784 72.0673) rotate(180) scale(74.562 107.817)">
<stop offset="0.256494" stop-color="#F1EDE7"/>
<stop offset="0.80597" stop-color="#AF998D"/>
<stop offset="1" stop-color="#686A76"/>
</radialGradient>
<radialGradient id="paint11_radial_7946_1006" cx="0" cy="0" r="1" gradientUnits="userSpaceOnUse" gradientTransform="translate(135.145 56.5379) rotate(72.582) scale(15.4185 35.8167)">
<stop offset="0.26" stop-color="#44525C"/>
<stop offset="1" stop-color="#44525C" stop-opacity="0"/>
</radialGradient>
<radialGradient id="paint12_radial_7946_1006" cx="0" cy="0" r="1" gradientUnits="userSpaceOnUse" gradientTransform="translate(108.173 47.0187) rotate(99.2299) scale(23.3796 51.6067)">
<stop offset="0.571094" stop-color="#2E3840"/>
<stop offset="1" stop-color="#44525C" stop-opacity="0"/>
</radialGradient>
<linearGradient id="paint13_linear_7946_1006" x1="94.5853" y1="80.73" x2="126.568" y2="76.445" gradientUnits="userSpaceOnUse">
<stop stop-color="#768894"/>
<stop offset="1" stop-color="#8597A3" stop-opacity="0"/>
</linearGradient>
<radialGradient id="paint14_radial_7946_1006" cx="0" cy="0" r="1" gradientUnits="userSpaceOnUse" gradientTransform="translate(163.702 106.298) rotate(-111.595) scale(14.8914 27.9193)">
<stop stop-color="#768894"/>
<stop offset="1" stop-color="#8597A3" stop-opacity="0"/>
</radialGradient>
<radialGradient id="paint15_radial_7946_1006" cx="0" cy="0" r="1" gradientUnits="userSpaceOnUse" gradientTransform="translate(150.289 104.567) rotate(-108.349) scale(30.2393 20.0236)">
<stop stop-color="#6F8492"/>
<stop offset="1" stop-color="#C3BAB0" stop-opacity="0"/>
</radialGradient>
<radialGradient id="paint16_radial_7946_1006" cx="0" cy="0" r="1" gradientUnits="userSpaceOnUse" gradientTransform="translate(156.923 76.1533) rotate(161.565) scale(7.29757 19.8859)">
<stop stop-color="#FFFBFA"/>
<stop offset="1" stop-color="#FFF3ED" stop-opacity="0"/>
</radialGradient>
<linearGradient id="paint17_linear_7946_1006" x1="174.628" y1="119.106" x2="180.88" y2="99.6493" gradientUnits="userSpaceOnUse">
<stop stop-color="#A28F86"/>
<stop offset="1" stop-color="#EAE4DE"/>
</linearGradient>
<linearGradient id="paint18_linear_7946_1006" x1="165.808" y1="110.01" x2="171.058" y2="102.003" gradientUnits="userSpaceOnUse">
<stop stop-color="#8597A3"/>
<stop offset="1" stop-color="#8597A3" stop-opacity="0"/>
</linearGradient>
<radialGradient id="paint19_radial_7946_1006" cx="0" cy="0" r="1" gradientUnits="userSpaceOnUse" gradientTransform="translate(166.227 111.149) rotate(-108.034) scale(8.38761 20.0605)">
<stop stop-color="#8597A3"/>
<stop offset="1" stop-color="#8597A3" stop-opacity="0"/>
</radialGradient>
<radialGradient id="paint20_radial_7946_1006" cx="0" cy="0" r="1" gradientUnits="userSpaceOnUse" gradientTransform="translate(172.212 98.077) rotate(142.696) scale(3.8078 8.6973)">
<stop stop-color="#FFFBFA"/>
<stop offset="1" stop-color="#FFF3ED" stop-opacity="0"/>
</radialGradient>
<linearGradient id="paint21_linear_7946_1006" x1="171.844" y1="107.56" x2="165.147" y2="113.749" gradientUnits="userSpaceOnUse">
<stop stop-color="#E2DAD3"/>
<stop offset="1" stop-color="#8D9DA9"/>
</linearGradient>
<linearGradient id="paint22_linear_7946_1006" x1="180.788" y1="108.232" x2="173.51" y2="114.172" gradientUnits="userSpaceOnUse">
<stop offset="0.20899" stop-color="#E2DAD3"/>
<stop offset="1" stop-color="#8D9DA9"/>
</linearGradient>
<linearGradient id="paint23_linear_7946_1006" x1="190.529" y1="113.61" x2="186.43" y2="115.385" gradientUnits="userSpaceOnUse">
<stop stop-color="#E2DAD3"/>
<stop offset="1" stop-color="#8D9DA9"/>
</linearGradient>
<linearGradient id="paint24_linear_7946_1006" x1="185.795" y1="109.463" x2="179.11" y2="114.643" gradientUnits="userSpaceOnUse">
<stop offset="0.148379" stop-color="#E2DAD3"/>
<stop offset="1" stop-color="#8D9DA9"/>
</linearGradient>
<radialGradient id="paint25_radial_7946_1006" cx="0" cy="0" r="1" gradientUnits="userSpaceOnUse" gradientTransform="translate(171.971 96.7769) rotate(91.8433) scale(2.62609 4.99417)">
<stop offset="0.315648" stop-color="#555C67" stop-opacity="0.55"/>
<stop offset="0.685" stop-color="#555C67" stop-opacity="0"/>
</radialGradient>
<radialGradient id="paint26_radial_7946_1006" cx="0" cy="0" r="1" gradientUnits="userSpaceOnUse" gradientTransform="translate(168.092 102.537) rotate(96.8793) scale(2.54089 5.47312)">
<stop offset="0.315648" stop-color="#555C67" stop-opacity="0.55"/>
<stop offset="0.685" stop-color="#555C67" stop-opacity="0"/>
</radialGradient>
<linearGradient id="paint27_linear_7946_1006" x1="133.583" y1="108.923" x2="138.062" y2="93.4997" gradientUnits="userSpaceOnUse">
<stop stop-color="#A28F86"/>
<stop offset="1" stop-color="#EAE4DE"/>
</linearGradient>
<linearGradient id="paint28_linear_7946_1006" x1="111.057" y1="104.423" x2="120.577" y2="94.0384" gradientUnits="userSpaceOnUse">
<stop stop-color="#8597A3"/>
<stop offset="1" stop-color="#8597A3" stop-opacity="0"/>
</linearGradient>
<radialGradient id="paint29_radial_7946_1006" cx="0" cy="0" r="1" gradientUnits="userSpaceOnUse" gradientTransform="translate(133.397 106.512) rotate(-86.9059) scale(6.8727 21.344)">
<stop stop-color="#8597A3"/>
<stop offset="1" stop-color="#8597A3" stop-opacity="0"/>
</radialGradient>
<linearGradient id="paint30_linear_7946_1006" x1="139.662" y1="106.48" x2="132.81" y2="112.705" gradientUnits="userSpaceOnUse">
<stop stop-color="#E2DAD3"/>
<stop offset="1" stop-color="#8D9DA9"/>
</linearGradient>
<linearGradient id="paint31_linear_7946_1006" x1="150.545" y1="105.711" x2="142.732" y2="113.501" gradientUnits="userSpaceOnUse">
<stop offset="0.141146" stop-color="#E2DAD3"/>
<stop offset="1" stop-color="#8D9DA9"/>
</linearGradient>
<linearGradient id="paint32_linear_7946_1006" x1="160.928" y1="104.129" x2="154.196" y2="107.304" gradientUnits="userSpaceOnUse">
<stop offset="0.127136" stop-color="#E2DAD3"/>
<stop offset="1" stop-color="#8D9DA9"/>
</linearGradient>
<linearGradient id="paint33_linear_7946_1006" x1="157.491" y1="105.095" x2="149.502" y2="111.266" gradientUnits="userSpaceOnUse">
<stop offset="0.142438" stop-color="#E2DAD3"/>
<stop offset="1" stop-color="#8D9DA9"/>
</linearGradient>
<radialGradient id="paint34_radial_7946_1006" cx="0" cy="0" r="1" gradientUnits="userSpaceOnUse" gradientTransform="translate(109.835 99.27) rotate(95.9587) scale(3.7779 7.47823)">
<stop offset="0.315648" stop-color="#555C67" stop-opacity="0.55"/>
<stop offset="0.685" stop-color="#555C67" stop-opacity="0"/>
</radialGradient>
<radialGradient id="paint35_radial_7946_1006" cx="0" cy="0" r="1" gradientUnits="userSpaceOnUse" gradientTransform="translate(120.529 95.3215) rotate(95.9587) scale(3.7779 7.47823)">
<stop offset="0.315648" stop-color="#555C67" stop-opacity="0.55"/>
<stop offset="0.685" stop-color="#555C67" stop-opacity="0"/>
</radialGradient>
<radialGradient id="paint36_radial_7946_1006" cx="0" cy="0" r="1" gradientUnits="userSpaceOnUse" gradientTransform="translate(133.838 99.0998) rotate(95.9587) scale(3.7779 7.47823)">
<stop offset="0.315648" stop-color="#555C67" stop-opacity="0.55"/>
<stop offset="0.685" stop-color="#555C67" stop-opacity="0"/>
</radialGradient>
<radialGradient id="paint37_radial_7946_1006" cx="0" cy="0" r="1" gradientUnits="userSpaceOnUse" gradientTransform="translate(137.292 39.1833) rotate(90) scale(32.0876 31.463)">
<stop offset="0.735" stop-color="#E9DDCF"/>
<stop offset="1" stop-color="#85959E"/>
</radialGradient>
<radialGradient id="paint38_radial_7946_1006" cx="0" cy="0" r="1" gradientUnits="userSpaceOnUse" gradientTransform="translate(155.916 43.6459) rotate(-149.3) scale(2.46763 4.44543)">
<stop offset="0.315648" stop-color="#555C67" stop-opacity="0.8"/>
<stop offset="1" stop-color="#EADED0" stop-opacity="0"/>
</radialGradient>
<radialGradient id="paint39_radial_7946_1006" cx="0" cy="0" r="1" gradientUnits="userSpaceOnUse" gradientTransform="translate(144.88 41.3659) rotate(-158.745) scale(1.63761 1.87857)">
<stop offset="0.315648" stop-color="#555C67" stop-opacity="0.44"/>
<stop offset="1" stop-color="#EADED0" stop-opacity="0"/>
</radialGradient>
<radialGradient id="paint40_radial_7946_1006" cx="0" cy="0" r="1" gradientUnits="userSpaceOnUse" gradientTransform="translate(144.88 45.5937) rotate(-158.745) scale(1.63761 1.87857)">
<stop offset="0.315648" stop-color="#555C67" stop-opacity="0.44"/>
<stop offset="1" stop-color="#EADED0" stop-opacity="0"/>
</radialGradient>
<radialGradient id="paint41_radial_7946_1006" cx="0" cy="0" r="1" gradientUnits="userSpaceOnUse" gradientTransform="translate(148.453 42.6865) rotate(-158.745) scale(1.63761 1.87857)">
<stop offset="0.315648" stop-color="#555C67" stop-opacity="0.44"/>
<stop offset="1" stop-color="#EADED0" stop-opacity="0"/>
</radialGradient>
<radialGradient id="paint42_radial_7946_1006" cx="0" cy="0" r="1" gradientUnits="userSpaceOnUse" gradientTransform="translate(152.649 52.7544) rotate(-136.63) scale(2.96198 5.33599)">
<stop offset="0.315648" stop-color="#555C67" stop-opacity="0.8"/>
<stop offset="1" stop-color="#EADED0" stop-opacity="0"/>
</radialGradient>
<radialGradient id="paint43_radial_7946_1006" cx="0" cy="0" r="1" gradientUnits="userSpaceOnUse" gradientTransform="translate(154.436 36.1178) rotate(-50.0827) scale(2.01456 3.25583)">
<stop offset="0.315648" stop-color="#555C67" stop-opacity="0.55"/>
<stop offset="1" stop-color="#EADED0" stop-opacity="0"/>
</radialGradient>
<radialGradient id="paint44_radial_7946_1006" cx="0" cy="0" r="1" gradientUnits="userSpaceOnUse" gradientTransform="translate(107.007 43.6459) rotate(-30.7) scale(2.46763 4.44543)">
<stop offset="0.315648" stop-color="#555C67" stop-opacity="0.8"/>
<stop offset="0.685" stop-color="#555C67" stop-opacity="0"/>
</radialGradient>
<radialGradient id="paint45_radial_7946_1006" cx="0" cy="0" r="1" gradientUnits="userSpaceOnUse" gradientTransform="translate(118.043 41.3659) rotate(-21.2551) scale(1.63761 1.87857)">
<stop offset="0.315648" stop-color="#555C67" stop-opacity="0.44"/>
<stop offset="1" stop-color="#EADED0" stop-opacity="0"/>
</radialGradient>
<radialGradient id="paint46_radial_7946_1006" cx="0" cy="0" r="1" gradientUnits="userSpaceOnUse" gradientTransform="translate(118.043 45.5937) rotate(-21.2551) scale(1.63761 1.87857)">
<stop offset="0.315648" stop-color="#555C67" stop-opacity="0.44"/>
<stop offset="1" stop-color="#EADED0" stop-opacity="0"/>
</radialGradient>
<radialGradient id="paint47_radial_7946_1006" cx="0" cy="0" r="1" gradientUnits="userSpaceOnUse" gradientTransform="translate(114.469 42.6865) rotate(-21.2551) scale(1.63761 1.87857)">
<stop offset="0.315648" stop-color="#555C67" stop-opacity="0.44"/>
<stop offset="1" stop-color="#EADED0" stop-opacity="0"/>
</radialGradient>
<radialGradient id="paint48_radial_7946_1006" cx="0" cy="0" r="1" gradientUnits="userSpaceOnUse" gradientTransform="translate(110.273 52.7544) rotate(-43.3703) scale(2.96198 5.33599)">
<stop offset="0.315648" stop-color="#555C67" stop-opacity="0.8"/>
<stop offset="0.685" stop-color="#555C67" stop-opacity="0"/>
</radialGradient>
<radialGradient id="paint49_radial_7946_1006" cx="0" cy="0" r="1" gradientUnits="userSpaceOnUse" gradientTransform="translate(108.487 36.1178) rotate(-129.917) scale(2.01456 3.25583)">
<stop offset="0.315648" stop-color="#555C67" stop-opacity="0.8"/>
<stop offset="0.685" stop-color="#555C67" stop-opacity="0"/>
</radialGradient>
<radialGradient id="paint50_radial_7946_1006" cx="0" cy="0" r="1" gradientUnits="userSpaceOnUse" gradientTransform="translate(132.012 68.5863) rotate(-90) scale(12.7567 13.6761)">
<stop offset="0.195918" stop-color="#E5E7F2"/>
<stop offset="0.676309" stop-color="#BDBFC7"/>
</radialGradient>
<radialGradient id="paint51_radial_7946_1006" cx="0" cy="0" r="1" gradientUnits="userSpaceOnUse" gradientTransform="translate(131.976 55.6688) rotate(-90) scale(13.0173 26.5816)">
<stop offset="0.12" stop-color="#F1E7DD"/>
<stop offset="1" stop-color="#B0AFBA"/>
</radialGradient>
<radialGradient id="paint52_radial_7946_1006" cx="0" cy="0" r="1" gradientUnits="userSpaceOnUse" gradientTransform="translate(131.976 55.6688) rotate(-90) scale(13.0173 26.5816)">
<stop offset="0.12" stop-color="#F2F5FF"/>
<stop offset="0.75" stop-color="#B0AFBA"/>
</radialGradient>
<radialGradient id="paint53_radial_7946_1006" cx="0" cy="0" r="1" gradientUnits="userSpaceOnUse" gradientTransform="translate(140.337 54.2302) rotate(170.789) scale(2.70312 5.0484)">
<stop stop-color="#F2F5FF" stop-opacity="0.66"/>
<stop offset="0.867404" stop-color="#F2F5FF" stop-opacity="0"/>
</radialGradient>
<radialGradient id="paint54_radial_7946_1006" cx="0" cy="0" r="1" gradientUnits="userSpaceOnUse" gradientTransform="translate(123.029 54.3745) rotate(2.29061) scale(3.60865 5.19392)">
<stop stop-color="#F2F5FF" stop-opacity="0.66"/>
<stop offset="0.77476" stop-color="#F2F5FF" stop-opacity="0"/>
</radialGradient>
<radialGradient id="paint55_radial_7946_1006" cx="0" cy="0" r="1" gradientUnits="userSpaceOnUse" gradientTransform="translate(131.893 59.2299) rotate(90) scale(4.44355 11.0349)">
<stop/>
<stop offset="0.684416" stop-color="#484155"/>
</radialGradient>
<linearGradient id="paint56_linear_7946_1006" x1="131.896" y1="33.5023" x2="131.896" y2="55.4119" gradientUnits="userSpaceOnUse">
<stop stop-color="#F3EDE5"/>
<stop offset="1" stop-color="#8D8A85"/>
</linearGradient>
<linearGradient id="paint57_linear_7946_1006" x1="121.789" y1="42.1865" x2="142.625" y2="42.1865" gradientUnits="userSpaceOnUse">
<stop stop-color="#767C94"/>
<stop offset="0.5" stop-color="#F3EDE5"/>
<stop offset="1" stop-color="#BEC0C8"/>
</linearGradient>
<linearGradient id="paint58_linear_7946_1006" x1="131.881" y1="33.4739" x2="131.881" y2="36.9943" gradientUnits="userSpaceOnUse">
<stop stop-color="#EADED0"/>
<stop offset="1" stop-color="#EADED0" stop-opacity="0"/>
</linearGradient>
<linearGradient id="paint59_linear_7946_1006" x1="151.387" y1="12.3851" x2="161.589" y2="20.1752" gradientUnits="userSpaceOnUse">
<stop stop-color="#E1D5CB"/>
<stop offset="1" stop-color="#A0AEB8"/>
</linearGradient>
<radialGradient id="paint60_radial_7946_1006" cx="0" cy="0" r="1" gradientUnits="userSpaceOnUse" gradientTransform="translate(146.926 33.0659) rotate(-48.3541) scale(30.169 14.859)">
<stop offset="0.84676" stop-color="#40454D" stop-opacity="0"/>
<stop offset="1" stop-color="#40454D"/>
</radialGradient>
<radialGradient id="paint61_radial_7946_1006" cx="0" cy="0" r="1" gradientUnits="userSpaceOnUse" gradientTransform="translate(153.245 26.1059) rotate(-34.5625) scale(3.9407 22.9338)">
<stop stop-color="#EADED0"/>
<stop offset="1" stop-color="#EADED0" stop-opacity="0"/>
</radialGradient>
<linearGradient id="paint62_linear_7946_1006" x1="153.589" y1="19.9903" x2="161.218" y2="21.7927" gradientUnits="userSpaceOnUse">
<stop stop-color="#363A41"/>
<stop offset="1" stop-color="#697280"/>
</linearGradient>
<linearGradient id="paint63_linear_7946_1006" x1="153.589" y1="19.9903" x2="161.218" y2="21.7927" gradientUnits="userSpaceOnUse">
<stop stop-color="#656D7B"/>
<stop offset="1" stop-color="#818C9C"/>
</linearGradient>
<linearGradient id="paint64_linear_7946_1006" x1="113.551" y1="12.1034" x2="103.35" y2="19.8935" gradientUnits="userSpaceOnUse">
<stop stop-color="#E1D5CB"/>
<stop offset="1" stop-color="#A0AEB8"/>
</linearGradient>
<radialGradient id="paint65_radial_7946_1006" cx="0" cy="0" r="1" gradientUnits="userSpaceOnUse" gradientTransform="translate(118.013 32.7842) rotate(-131.646) scale(30.169 14.859)">
<stop offset="0.84676" stop-color="#40454D" stop-opacity="0"/>
<stop offset="1" stop-color="#40454D"/>
</radialGradient>
<radialGradient id="paint66_radial_7946_1006" cx="0" cy="0" r="1" gradientUnits="userSpaceOnUse" gradientTransform="translate(112.604 24.1584) rotate(-148.392) scale(2.20159 7.73656)">
<stop stop-color="#86969F"/>
<stop offset="1" stop-color="#86969F" stop-opacity="0"/>
</radialGradient>
<linearGradient id="paint67_linear_7946_1006" x1="110.312" y1="19.7122" x2="103.527" y2="21.1214" gradientUnits="userSpaceOnUse">
<stop stop-color="#363A41"/>
<stop offset="1" stop-color="#697280"/>
</linearGradient>
<linearGradient id="paint68_linear_7946_1006" x1="110.312" y1="19.7122" x2="103.527" y2="21.1214" gradientUnits="userSpaceOnUse">
<stop stop-color="#656D7B"/>
<stop offset="1" stop-color="#818C9C"/>
</linearGradient>
<radialGradient id="paint69_radial_7946_1006" cx="0" cy="0" r="1" gradientUnits="userSpaceOnUse" gradientTransform="translate(132.047 48.7352) rotate(90) scale(6.63057 12.1277)">
<stop offset="0.475543" stop-color="#DE7E7C"/>
<stop offset="1" stop-color="#69514F"/>
</radialGradient>
<radialGradient id="paint70_radial_7946_1006" cx="0" cy="0" r="1" gradientUnits="userSpaceOnUse" gradientTransform="translate(136.298 50.6246) rotate(99.4624) scale(2.1933 5.03867)">
<stop stop-color="#FFF3ED" stop-opacity="0.55"/>
<stop offset="1" stop-color="#FFF3ED" stop-opacity="0"/>
</radialGradient>
<radialGradient id="paint71_radial_7946_1006" cx="0" cy="0" r="1" gradientUnits="userSpaceOnUse" gradientTransform="translate(161.959 71.9715) rotate(81.6197) scale(3.98719 7.11452)">
<stop offset="0.315648" stop-color="#555C67" stop-opacity="0.55"/>
<stop offset="0.685" stop-color="#555C67" stop-opacity="0"/>
</radialGradient>
<radialGradient id="paint72_radial_7946_1006" cx="0" cy="0" r="1" gradientUnits="userSpaceOnUse" gradientTransform="translate(154.436 79.1097) rotate(78.7121) scale(3.62709 6.04053)">
<stop offset="0.315648" stop-color="#555C67" stop-opacity="0.55"/>
<stop offset="0.685" stop-color="#555C67" stop-opacity="0"/>
</radialGradient>
<radialGradient id="paint73_radial_7946_1006" cx="0" cy="0" r="1" gradientUnits="userSpaceOnUse" gradientTransform="translate(106.51 70.3787) rotate(105.669) scale(4.17616 8.7057)">
<stop offset="0.315648" stop-color="#555C67" stop-opacity="0.55"/>
<stop offset="0.685" stop-color="#555C67" stop-opacity="0"/>
</radialGradient>
<radialGradient id="paint74_radial_7946_1006" cx="0" cy="0" r="1" gradientUnits="userSpaceOnUse" gradientTransform="translate(117.076 79.8674) rotate(95.9587) scale(3.7779 7.47823)">
<stop offset="0.315648" stop-color="#555C67" stop-opacity="0.55"/>
<stop offset="0.685" stop-color="#555C67" stop-opacity="0"/>
</radialGradient>
<radialGradient id="paint75_radial_7946_1006" cx="0" cy="0" r="1" gradientUnits="userSpaceOnUse" gradientTransform="translate(165.42 83.3811) rotate(84.7242) scale(3.18516 4.61001)">
<stop offset="0.315648" stop-color="#555C67" stop-opacity="0.55"/>
<stop offset="0.685" stop-color="#555C67" stop-opacity="0"/>
</radialGradient>
<radialGradient id="paint76_radial_7946_1006" cx="0" cy="0" r="1" gradientUnits="userSpaceOnUse" gradientTransform="translate(105.066 80.1813) rotate(63.5404) scale(3.78794 3.88291)">
<stop offset="0.315648" stop-color="#555C67" stop-opacity="0.55"/>
<stop offset="0.685" stop-color="#555C67" stop-opacity="0"/>
</radialGradient>
<linearGradient id="paint77_linear_7946_1006" x1="143.971" y1="29.1121" x2="143.971" y2="36.7471" gradientUnits="userSpaceOnUse">
<stop stop-color="#7295A8"/>
<stop offset="1" stop-color="#C0D5D8"/>
</linearGradient>
<radialGradient id="paint78_radial_7946_1006" cx="0" cy="0" r="1" gradientUnits="userSpaceOnUse" gradientTransform="translate(143.943 34.5433) rotate(-113.448) scale(6.52435 10.0508)">
<stop offset="0.302993" stop-color="#687076"/>
<stop offset="0.619059" stop-color="#BCBAB6"/>
<stop offset="0.909468" stop-color="#EFE8DC"/>
</radialGradient>
<radialGradient id="paint79_radial_7946_1006" cx="0" cy="0" r="1" gradientUnits="userSpaceOnUse" gradientTransform="translate(143.943 34.5433) rotate(-113.448) scale(6.52435 11.7401)">
<stop offset="0.46" stop-color="#41494F"/>
<stop offset="0.72" stop-color="#BCBAB6"/>
<stop offset="0.909468" stop-color="#EFE8DC"/>
</radialGradient>
<radialGradient id="paint80_radial_7946_1006" cx="0" cy="0" r="1" gradientUnits="userSpaceOnUse" gradientTransform="translate(151.514 27.6202) rotate(130.601) scale(3.32436 4.02983)">
<stop stop-color="#FFFBFA"/>
<stop offset="1" stop-color="#FFF3ED" stop-opacity="0"/>
</radialGradient>
<linearGradient id="paint81_linear_7946_1006" x1="3.81753" y1="0" x2="3.81753" y2="7.63506" gradientUnits="userSpaceOnUse">
<stop stop-color="#7295A8"/>
<stop offset="1" stop-color="#C0D5D8"/>
</linearGradient>
<radialGradient id="paint82_radial_7946_1006" cx="0" cy="0" r="1" gradientUnits="userSpaceOnUse" gradientTransform="translate(119.748 34.5433) rotate(-66.6628) scale(6.51889 10.0059)">
<stop offset="0.302993" stop-color="#687076"/>
<stop offset="0.619059" stop-color="#BCBAB6"/>
<stop offset="0.909468" stop-color="#EFE8DC"/>
</radialGradient>
<radialGradient id="paint83_radial_7946_1006" cx="0" cy="0" r="1" gradientUnits="userSpaceOnUse" gradientTransform="translate(120 34.6154) rotate(-69.7494) scale(7.91727 15.7108)">
<stop offset="0.256036" stop-color="#41494F"/>
<stop offset="0.72" stop-color="#BCBAB6"/>
<stop offset="0.909468" stop-color="#EFE8DC"/>
</radialGradient>
<radialGradient id="paint84_radial_7946_1006" cx="0" cy="0" r="1" gradientUnits="userSpaceOnUse" gradientTransform="translate(138.399 54.9309) rotate(-10.0398) scale(6.60276 3.37417)">
<stop stop-color="#73767C"/>
<stop offset="1" stop-color="#DAD3D1" stop-opacity="0"/>
</radialGradient>
<radialGradient id="paint85_radial_7946_1006" cx="0" cy="0" r="1" gradientUnits="userSpaceOnUse" gradientTransform="translate(138.741 58.3548) rotate(-4.27963) scale(6.95184 1.54004)">
<stop stop-color="#73767C"/>
<stop offset="1" stop-color="#DAD3D1" stop-opacity="0"/>
</radialGradient>
<radialGradient id="paint86_radial_7946_1006" cx="0" cy="0" r="1" gradientUnits="userSpaceOnUse" gradientTransform="translate(125.873 54.7337) rotate(-169.96) scale(6.60276 3.37417)">
<stop stop-color="#73767C"/>
<stop offset="1" stop-color="#DAD3D1" stop-opacity="0"/>
</radialGradient>
<radialGradient id="paint87_radial_7946_1006" cx="0" cy="0" r="1" gradientUnits="userSpaceOnUse" gradientTransform="translate(125.532 58.1587) rotate(-175.72) scale(6.95184 1.54004)">
<stop stop-color="#73767C"/>
<stop offset="1" stop-color="#DAD3D1" stop-opacity="0"/>
</radialGradient>
<radialGradient id="paint88_radial_7946_1006" cx="0" cy="0" r="1" gradientUnits="userSpaceOnUse" gradientTransform="translate(146.55 26.2926) rotate(79.7546) scale(3.10588 1.86191)">
<stop offset="0.52" stop-color="#73767C"/>
<stop offset="1" stop-color="#EADED0" stop-opacity="0"/>
</radialGradient>
<radialGradient id="paint89_radial_7946_1006" cx="0" cy="0" r="1" gradientUnits="userSpaceOnUse" gradientTransform="translate(142.671 28.4319) rotate(63.7375) scale(2.94098 2.22465)">
<stop offset="0.52" stop-color="#73767C"/>
<stop offset="1" stop-color="#EADED0" stop-opacity="0"/>
</radialGradient>
<radialGradient id="paint90_radial_7946_1006" cx="0" cy="0" r="1" gradientUnits="userSpaceOnUse" gradientTransform="translate(150.432 27.248) rotate(72.9038) scale(3.92893 1.22834)">
<stop offset="0.52" stop-color="#73767C"/>
<stop offset="1" stop-color="#EADED0" stop-opacity="0"/>
</radialGradient>
<radialGradient id="paint91_radial_7946_1006" cx="0" cy="0" r="1" gradientUnits="userSpaceOnUse" gradientTransform="translate(117.534 26.2926) rotate(100.245) scale(3.10588 1.86191)">
<stop offset="0.52" stop-color="#73767C"/>
<stop offset="1" stop-color="#EADED0" stop-opacity="0"/>
</radialGradient>
<radialGradient id="paint92_radial_7946_1006" cx="0" cy="0" r="1" gradientUnits="userSpaceOnUse" gradientTransform="translate(121.413 28.4319) rotate(116.263) scale(2.94098 2.22465)">
<stop offset="0.52" stop-color="#73767C"/>
<stop offset="1" stop-color="#EADED0" stop-opacity="0"/>
</radialGradient>
<radialGradient id="paint93_radial_7946_1006" cx="0" cy="0" r="1" gradientUnits="userSpaceOnUse" gradientTransform="translate(113.652 27.248) rotate(107.096) scale(3.92893 1.22834)">
<stop offset="0.52" stop-color="#73767C"/>
<stop offset="1" stop-color="#EADED0" stop-opacity="0"/>
</radialGradient>
<radialGradient id="paint94_radial_7946_1006" cx="0" cy="0" r="1" gradientUnits="userSpaceOnUse" gradientTransform="translate(140.279 16.1896) rotate(90) scale(2.56094 5.17178)">
<stop offset="0.52" stop-color="#555C67"/>
<stop offset="1" stop-color="#EADED0" stop-opacity="0"/>
</radialGradient>
<radialGradient id="paint95_radial_7946_1006" cx="0" cy="0" r="1" gradientUnits="userSpaceOnUse" gradientTransform="translate(137.997 21.3832) rotate(81.5865) scale(2.70949 3.84109)">
<stop offset="0.52" stop-color="#555C67"/>
<stop offset="1" stop-color="#EADED0" stop-opacity="0"/>
</radialGradient>
<radialGradient id="paint96_radial_7946_1006" cx="0" cy="0" r="1" gradientUnits="userSpaceOnUse" gradientTransform="translate(136.974 26.1069) rotate(82.1792) scale(1.29051 2.79492)">
<stop offset="0.52" stop-color="#555C67"/>
<stop offset="1" stop-color="#EADED0" stop-opacity="0"/>
</radialGradient>
<radialGradient id="paint97_radial_7946_1006" cx="0" cy="0" r="1" gradientUnits="userSpaceOnUse" gradientTransform="translate(124.878 16.1896) rotate(90) scale(2.56094 5.17178)">
<stop offset="0.52" stop-color="#555C67"/>
<stop offset="1" stop-color="#EADED0" stop-opacity="0"/>
</radialGradient>
<radialGradient id="paint98_radial_7946_1006" cx="0" cy="0" r="1" gradientUnits="userSpaceOnUse" gradientTransform="translate(127.16 21.3832) rotate(98.4135) scale(2.70949 3.84109)">
<stop offset="0.52" stop-color="#555C67"/>
<stop offset="1" stop-color="#EADED0" stop-opacity="0"/>
</radialGradient>
<radialGradient id="paint99_radial_7946_1006" cx="0" cy="0" r="1" gradientUnits="userSpaceOnUse" gradientTransform="translate(128.184 26.1069) rotate(97.8208) scale(1.29051 2.79492)">
<stop offset="0.52" stop-color="#555C67"/>
<stop offset="1" stop-color="#EADED0" stop-opacity="0"/>
</radialGradient>
<linearGradient id="paint100_linear_7946_1006" x1="81.1823" y1="91.5914" x2="76.4595" y2="120.283" gradientUnits="userSpaceOnUse">
<stop stop-color="#DFEDFA"/>
<stop offset="0.43" stop-color="#CFE8F5"/>
<stop offset="1" stop-color="#9DB8C6"/>
</linearGradient>
</defs>
</svg>
