<svg viewBox="0 0 240 120" fill="none" xmlns="http://www.w3.org/2000/svg">
<path d="M128.858 108.5C105.726 109.347 94.0427 102.142 80.2373 70.3654C86.317 64.1645 96.7114 63.9092 103.416 69.5026C98.9282 54.2118 108.049 43.3241 123.633 38.5634C139.217 33.8026 157.216 46.8072 161.358 65.3717C165.501 83.9362 152.484 107.636 128.858 108.5Z" fill="url(#paint0_linear_7910_28062)"/>
<path d="M128.858 108.5C105.726 109.347 94.0427 102.142 80.2373 70.3654C86.317 64.1645 96.7114 63.9092 103.416 69.5026C98.9282 54.2118 108.049 43.3241 123.633 38.5634C139.217 33.8026 157.216 46.8072 161.358 65.3717C165.501 83.9362 152.484 107.636 128.858 108.5Z" fill="url(#paint1_radial_7910_28062)"/>
<path d="M128.858 108.5C105.726 109.347 94.0427 102.142 80.2373 70.3654C86.317 64.1645 96.7114 63.9092 103.416 69.5026C98.9282 54.2118 108.049 43.3241 123.633 38.5634C139.217 33.8026 157.216 46.8072 161.358 65.3717C165.501 83.9362 152.484 107.636 128.858 108.5Z" fill="url(#paint2_radial_7910_28062)"/>
<path d="M128.858 108.5C105.726 109.347 94.0427 102.142 80.2373 70.3654C86.317 64.1645 96.7114 63.9092 103.416 69.5026C98.9282 54.2118 108.049 43.3241 123.633 38.5634C139.217 33.8026 157.216 46.8072 161.358 65.3717C165.501 83.9362 152.484 107.636 128.858 108.5Z" fill="url(#paint3_radial_7910_28062)"/>
<path d="M128.858 108.5C105.726 109.347 94.0427 102.142 80.2373 70.3654C86.317 64.1645 96.7114 63.9092 103.416 69.5026C98.9282 54.2118 108.049 43.3241 123.633 38.5634C139.217 33.8026 157.216 46.8072 161.358 65.3717C165.501 83.9362 152.484 107.636 128.858 108.5Z" fill="url(#paint4_radial_7910_28062)"/>
<path d="M128.858 108.5C105.726 109.347 94.0427 102.142 80.2373 70.3654C86.317 64.1645 96.7114 63.9092 103.416 69.5026C98.9282 54.2118 108.049 43.3241 123.633 38.5634C139.217 33.8026 157.216 46.8072 161.358 65.3717C165.501 83.9362 152.484 107.636 128.858 108.5Z" fill="url(#paint5_radial_7910_28062)"/>
<path fill-rule="evenodd" clip-rule="evenodd" d="M148.528 98.5692C153.252 90.2498 138.5 78.6176 134.647 81.9819C126.988 84.2301 108.34 85.8572 103.356 69.4662C103.376 69.4782 103.396 69.4902 103.416 69.5023C98.9279 54.2115 108.048 43.3237 123.632 38.563C139.216 33.8023 157.216 46.8069 161.358 65.3714C164.105 77.6785 158.96 89.9235 148.528 98.5692Z" fill="url(#paint6_radial_7910_28062)"/>
<path fill-rule="evenodd" clip-rule="evenodd" d="M148.528 98.5692C153.252 90.2498 138.5 78.6176 134.647 81.9819C126.988 84.2301 108.34 85.8572 103.356 69.4662C103.376 69.4782 103.396 69.4902 103.416 69.5023C98.9279 54.2115 108.048 43.3237 123.632 38.563C139.216 33.8023 157.216 46.8069 161.358 65.3714C164.105 77.6785 158.96 89.9235 148.528 98.5692Z" fill="url(#paint7_radial_7910_28062)"/>
<path fill-rule="evenodd" clip-rule="evenodd" d="M135.498 80.4267C148.587 74.159 142.039 56.3005 134.44 56.4781C126.841 56.6558 125.111 58.1018 123.433 61.5749C121.272 66.0492 106.53 64.8987 103.234 55.6364C105.794 47.5823 113.29 41.7232 123.633 38.5634C139.217 33.8027 157.216 46.8073 161.359 65.3718C163.968 77.0647 159.454 88.7016 150.05 97.2487C149.81 95.1664 149.141 92.7974 147.719 90.2754C142.961 81.8347 135.498 80.4267 135.498 80.4267Z" fill="url(#paint8_radial_7910_28062)"/>
<path fill-rule="evenodd" clip-rule="evenodd" d="M135.498 80.4267C148.587 74.159 142.039 56.3005 134.44 56.4781C126.841 56.6558 125.111 58.1018 123.433 61.5749C121.272 66.0492 106.53 64.8987 103.234 55.6364C105.794 47.5823 113.29 41.7232 123.633 38.5634C139.217 33.8027 157.216 46.8073 161.359 65.3718C163.968 77.0647 159.454 88.7016 150.05 97.2487C149.81 95.1664 149.141 92.7974 147.719 90.2754C142.961 81.8347 135.498 80.4267 135.498 80.4267Z" fill="url(#paint9_radial_7910_28062)"/>
<path d="M108.149 78.0029C113.644 82.7349 128.714 74.9527 126.788 67.1205L124.557 64.6032C122.381 69.9069 111.223 74.4882 104.02 71.5639C104.649 74.2157 107.035 76.9615 108.149 78.0029Z" fill="url(#paint10_radial_7910_28062)"/>
<path d="M108.149 78.0029C113.644 82.7349 128.714 74.9527 126.788 67.1205L124.557 64.6032C122.381 69.9069 111.223 74.4882 104.02 71.5639C104.649 74.2157 107.035 76.9615 108.149 78.0029Z" fill="url(#paint11_radial_7910_28062)"/>
<path d="M103.835 55.5174C103.649 62.7662 119.494 67.7572 124.338 61.309L126.503 57.8746C121.02 59.5474 111.111 54.6316 108.816 47.2043C107.161 49.3697 103.936 53.9956 103.835 55.5174Z" fill="url(#paint12_radial_7910_28062)"/>
<path d="M103.835 55.5174C103.649 62.7662 119.494 67.7572 124.338 61.309L126.503 57.8746C121.02 59.5474 111.111 54.6316 108.816 47.2043C107.161 49.3697 103.936 53.9956 103.835 55.5174Z" fill="url(#paint13_radial_7910_28062)"/>
<path d="M122.411 39.5217C116.074 42.3757 119.546 56.0914 127.553 57.0416L131.607 57.2374C127.39 53.8398 127.403 43.3504 132.638 38.5727C129.935 38.2329 123.773 38.9687 122.411 39.5217Z" fill="url(#paint14_radial_7910_28062)"/>
<path d="M122.411 39.5217C116.074 42.3757 119.546 56.0914 127.553 57.0416L131.607 57.2374C127.39 53.8398 127.403 43.3504 132.638 38.5727C129.935 38.2329 123.773 38.9687 122.411 39.5217Z" fill="url(#paint15_radial_7910_28062)"/>
<path d="M143.767 41.8373C137.462 39.1473 130.473 50.7788 135.381 57.1754L138.057 60.2263C137.417 54.9509 144.914 47.7297 151.746 48.3592C150.102 46.1872 145.081 42.455 143.767 41.8373Z" fill="url(#paint16_radial_7910_28062)"/>
<path d="M143.767 41.8373C137.462 39.1473 130.473 50.7788 135.381 57.1754L138.057 60.2263C137.417 54.9509 144.914 47.7297 151.746 48.3592C150.102 46.1872 145.081 42.455 143.767 41.8373Z" fill="url(#paint17_radial_7910_28062)"/>
<path d="M159.166 59.3377C156.583 52.9189 142.72 55.7975 141.518 63.7703L141.188 67.8155C144.662 63.7034 156.821 65.1379 161.326 70.5127C161.751 67.8218 159.662 60.7152 159.166 59.3377Z" fill="url(#paint18_radial_7910_28062)"/>
<path d="M159.166 59.3377C156.583 52.9189 142.72 55.7975 141.518 63.7703L141.188 67.8155C144.662 63.7034 156.821 65.1379 161.326 70.5127C161.751 67.8218 159.662 60.7152 159.166 59.3377Z" fill="url(#paint19_radial_7910_28062)"/>
<path d="M160.655 79.9871C162.566 73.2443 147.668 66.4385 141.698 71.8586L138.898 74.7968C144.303 73.9127 154.829 83.5493 155.139 90.7652C157.169 88.9484 160.197 81.3951 160.655 79.9871Z" fill="url(#paint20_radial_7910_28062)"/>
<path d="M160.655 79.9871C162.566 73.2443 147.668 66.4385 141.698 71.8586L138.898 74.7968C144.303 73.9127 154.829 83.5493 155.139 90.7652C157.169 88.9484 160.197 81.3951 160.655 79.9871Z" fill="url(#paint21_radial_7910_28062)"/>
<path d="M148.323 98.4692C152.849 93.0128 141.914 79.3514 134.209 81.7298L130.432 83.2166C135.754 84.8353 140.718 98.0614 138.035 104.967C140.641 103.642 147.324 99.582 148.323 98.4692Z" fill="url(#paint22_radial_7910_28062)"/>
<path fill-rule="evenodd" clip-rule="evenodd" d="M116.178 81.6713C111.262 80.0601 106.896 76.2988 104.783 69.1015L102.034 69.9084C104.41 78.0019 109.464 82.4857 115.286 84.3937C121.031 86.2763 127.399 85.6169 132.511 83.7258C137.76 81.7839 140.777 78.463 142.228 74.7714C143.659 71.1311 143.523 67.2517 142.719 64.1701C141.901 61.0344 140.129 58.2558 137.641 56.5C135.123 54.7226 131.931 54.0424 128.473 55.0572C124.798 56.1358 123.136 59.006 123 61.8194C122.871 64.4814 124.125 67.4028 126.597 68.5022C128.891 69.5224 131.12 69.0149 132.582 67.569C134 66.166 134.59 63.9851 133.961 61.8437C133.739 61.0846 132.943 60.6499 132.184 60.8727C131.424 61.0955 130.99 61.8915 131.213 62.6506C131.555 63.8165 131.21 64.8956 130.567 65.5323C129.966 66.1262 129.006 66.4381 127.761 65.8845C126.694 65.41 125.77 63.839 125.861 61.9579C125.945 60.2281 126.901 58.5044 129.28 57.8061C131.876 57.0441 134.166 57.5539 135.989 58.8407C137.844 60.1491 139.273 62.309 139.947 64.8933C140.636 67.5318 140.722 70.7714 139.562 73.7232C138.422 76.6237 136.033 79.3681 131.517 81.0389C126.863 82.7607 121.173 83.3079 116.178 81.6713Z" fill="url(#paint23_linear_7910_28062)"/>
<path fill-rule="evenodd" clip-rule="evenodd" d="M111.679 106.94C125.741 110.226 133.577 108.362 138.863 106.94C156.277 100.713 165.502 83.9354 161.359 65.371C157.216 46.8066 139.217 33.8021 123.633 38.5628C109.152 42.9867 100.252 52.7014 102.666 66.3234C101.247 53.8724 109.482 44.599 122.985 40.3391C138.256 35.5219 155.926 47.324 160.163 65.5287C166.798 94.0398 136.429 110.855 111.679 106.94ZM80.3692 70.641C80.0321 69.9316 79.7042 69.2105 79.3857 68.4774C85.4423 62.3001 94.1189 63.4414 103.252 68.6404C103.404 69.2995 103.582 69.9664 103.787 70.641C97.9998 66.9814 86.3678 64.4912 80.3692 70.641Z" fill="#8A8275"/>
<path d="M158.879 9.52261C158.334 34.8945 177.749 83.7512 187.524 105.008C197.414 107.736 215.693 99.1426 217.875 87.9572C206.508 65.6772 178.795 18.7983 158.879 9.52261Z" fill="url(#paint24_linear_7910_28062)"/>
<path d="M158.879 9.52261C158.334 34.8945 177.749 83.7512 187.524 105.008C197.414 107.736 215.693 99.1426 217.875 87.9572C206.508 65.6772 178.795 18.7983 158.879 9.52261Z" fill="url(#paint25_radial_7910_28062)"/>
<path d="M158.879 9.52261C158.334 34.8945 177.749 83.7512 187.524 105.008C197.414 107.736 215.693 99.1426 217.875 87.9572C206.508 65.6772 178.795 18.7983 158.879 9.52261Z" fill="url(#paint26_radial_7910_28062)"/>
<path d="M158.879 9.52261C158.334 34.8945 177.749 83.7512 187.524 105.008C197.414 107.736 215.693 99.1426 217.875 87.9572C206.508 65.6772 178.795 18.7983 158.879 9.52261Z" fill="url(#paint27_radial_7910_28062)"/>
<path d="M158.879 9.52261C158.334 34.8945 177.749 83.7512 187.524 105.008C197.414 107.736 215.693 99.1426 217.875 87.9572C206.508 65.6772 178.795 18.7983 158.879 9.52261Z" fill="url(#paint28_radial_7910_28062)"/>
<path fill-rule="evenodd" clip-rule="evenodd" d="M217.741 87.695C215.643 86.0739 214.213 86.5018 212.845 86.9114C211.866 87.2043 210.919 87.4879 209.781 87.0057C208.28 86.37 202.757 88.7513 199.81 90.8946C198.343 90.4367 196.374 92.3453 194.729 93.9403C193.577 95.0568 192.584 96.0197 192.032 95.9093C191.317 98.3887 190.26 99.5352 189.335 100.539C188.344 101.614 187.505 102.525 187.398 104.736C187.44 104.827 187.482 104.918 187.524 105.008C197.414 107.736 215.693 99.1425 217.875 87.957C217.831 87.8701 217.786 87.7827 217.741 87.695Z" fill="url(#paint29_radial_7910_28062)"/>
<path fill-rule="evenodd" clip-rule="evenodd" d="M217.741 87.695C215.643 86.0739 214.213 86.5018 212.845 86.9114C211.866 87.2043 210.919 87.4879 209.781 87.0057C208.28 86.37 202.757 88.7513 199.81 90.8946C198.343 90.4367 196.374 92.3453 194.729 93.9403C193.577 95.0568 192.584 96.0197 192.032 95.9093C191.317 98.3887 190.26 99.5352 189.335 100.539C188.344 101.614 187.505 102.525 187.398 104.736C187.44 104.827 187.482 104.918 187.524 105.008C197.414 107.736 215.693 99.1425 217.875 87.957C217.831 87.8701 217.786 87.7827 217.741 87.695Z" fill="url(#paint30_radial_7910_28062)"/>
<path fill-rule="evenodd" clip-rule="evenodd" d="M201.43 89.8409L204.62 90.5877C206.394 90.2465 209.983 89.7689 210.147 90.5877C210.311 91.4064 209.601 94.3402 209.226 95.7048L211.981 97.3115C214.998 94.6107 217.203 91.4072 217.876 87.957L217.742 87.6951C215.643 86.0739 214.214 86.5018 212.845 86.9114C211.867 87.2043 210.919 87.4879 209.781 87.0057C208.525 86.4737 204.452 88.0547 201.43 89.8409Z" fill="url(#paint31_radial_7910_28062)"/>
<path fill-rule="evenodd" clip-rule="evenodd" d="M194.69 93.9785L192.749 98.4679C193.84 98.8091 196.023 99.6961 196.023 100.515C196.023 101.334 197.524 102.22 198.275 102.562V104.578C203.975 103.06 209.852 99.8083 213.71 95.6074C213.218 93.2354 211.735 90.0081 210.208 87.1547C210.068 87.1165 209.926 87.0674 209.78 87.0058C208.28 86.3701 202.757 88.7514 199.81 90.8948C198.343 90.4368 196.374 92.3454 194.729 93.9404C194.716 93.9531 194.703 93.9658 194.69 93.9785Z" fill="url(#paint32_linear_7910_28062)"/>
<path d="M201.561 95.2388C201.179 94.5513 201.721 92.4697 202.04 91.5148C205.859 88.5357 209.297 92.3106 210.538 94.5704C209.774 95.1115 208.189 96.5948 207.96 98.199C207.731 99.8032 204.872 100.777 203.472 101.064V97.2441C202.994 96.8622 201.944 95.9264 201.561 95.2388Z" fill="url(#paint33_linear_7910_28062)"/>
<path d="M99.2346 10.4617C104.223 15.7219 110.046 31.5191 98.0745 45.8849C75.7632 38.5386 53.7979 59.7083 71.4831 82.8351C71.4831 82.8351 74.3101 89.9547 64.2515 100.532C55.4372 108.978 47.3487 110.279 46.4517 108.139L41.2821 92.0859C38.0173 87.8065 29.0324 87.8843 29.0324 87.8843C29.0324 87.8843 32.4549 77.9678 36.7023 75.0254C36.7023 72.3046 31.3942 64.7973 26.0469 61.9828C26.0469 61.9828 32.3035 54.2733 38.0173 51.5459C38.2894 48.2809 32.6682 45.0172 29.0324 41.4802C32.8621 37.6458 42.1527 36.9576 44.6006 37.9183C44.6006 35.0193 43.73 29.1834 41.2821 24.6099C46.4517 21.617 55.9746 25.9703 57.8791 24.6099C59.7837 23.2495 60.0458 15.7004 61.1441 10.4617C66.2485 10.4617 72.645 13.5682 76.1079 17.8079C77.3776 17.0823 80.2437 13.9988 81.5503 7.46881C87.1825 10.4617 89.44 17.8079 92.1608 17.8079C94.3375 17.8079 97.7836 12.9104 99.2346 10.4617Z" fill="url(#paint34_linear_7910_28062)"/>
<path d="M99.2346 10.4617C104.223 15.7219 110.046 31.5191 98.0745 45.8849C75.7632 38.5386 53.7979 59.7083 71.4831 82.8351C71.4831 82.8351 74.3101 89.9547 64.2515 100.532C55.4372 108.978 47.3487 110.279 46.4517 108.139L41.2821 92.0859C38.0173 87.8065 29.0324 87.8843 29.0324 87.8843C29.0324 87.8843 32.4549 77.9678 36.7023 75.0254C36.7023 72.3046 31.3942 64.7973 26.0469 61.9828C26.0469 61.9828 32.3035 54.2733 38.0173 51.5459C38.2894 48.2809 32.6682 45.0172 29.0324 41.4802C32.8621 37.6458 42.1527 36.9576 44.6006 37.9183C44.6006 35.0193 43.73 29.1834 41.2821 24.6099C46.4517 21.617 55.9746 25.9703 57.8791 24.6099C59.7837 23.2495 60.0458 15.7004 61.1441 10.4617C66.2485 10.4617 72.645 13.5682 76.1079 17.8079C77.3776 17.0823 80.2437 13.9988 81.5503 7.46881C87.1825 10.4617 89.44 17.8079 92.1608 17.8079C94.3375 17.8079 97.7836 12.9104 99.2346 10.4617Z" fill="url(#paint35_radial_7910_28062)"/>
<path d="M99.2346 10.4617C104.223 15.7219 110.046 31.5191 98.0745 45.8849C75.7632 38.5386 53.7979 59.7083 71.4831 82.8351C71.4831 82.8351 74.3101 89.9547 64.2515 100.532C55.4372 108.978 47.3487 110.279 46.4517 108.139L41.2821 92.0859C38.0173 87.8065 29.0324 87.8843 29.0324 87.8843C29.0324 87.8843 32.4549 77.9678 36.7023 75.0254C36.7023 72.3046 31.3942 64.7973 26.0469 61.9828C26.0469 61.9828 32.3035 54.2733 38.0173 51.5459C38.2894 48.2809 32.6682 45.0172 29.0324 41.4802C32.8621 37.6458 42.1527 36.9576 44.6006 37.9183C44.6006 35.0193 43.73 29.1834 41.2821 24.6099C46.4517 21.617 55.9746 25.9703 57.8791 24.6099C59.7837 23.2495 60.0458 15.7004 61.1441 10.4617C66.2485 10.4617 72.645 13.5682 76.1079 17.8079C77.3776 17.0823 80.2437 13.9988 81.5503 7.46881C87.1825 10.4617 89.44 17.8079 92.1608 17.8079C94.3375 17.8079 97.7836 12.9104 99.2346 10.4617Z" fill="url(#paint36_linear_7910_28062)"/>
<path d="M99.2346 10.4617C104.223 15.7219 110.046 31.5191 98.0745 45.8849C75.7632 38.5386 53.7979 59.7083 71.4831 82.8351C71.4831 82.8351 74.3101 89.9547 64.2515 100.532C55.4372 108.978 47.3487 110.279 46.4517 108.139L41.2821 92.0859C38.0173 87.8065 29.0324 87.8843 29.0324 87.8843C29.0324 87.8843 32.4549 77.9678 36.7023 75.0254C36.7023 72.3046 31.3942 64.7973 26.0469 61.9828C26.0469 61.9828 32.3035 54.2733 38.0173 51.5459C38.2894 48.2809 32.6682 45.0172 29.0324 41.4802C32.8621 37.6458 42.1527 36.9576 44.6006 37.9183C44.6006 35.0193 43.73 29.1834 41.2821 24.6099C46.4517 21.617 55.9746 25.9703 57.8791 24.6099C59.7837 23.2495 60.0458 15.7004 61.1441 10.4617C66.2485 10.4617 72.645 13.5682 76.1079 17.8079C77.3776 17.0823 80.2437 13.9988 81.5503 7.46881C87.1825 10.4617 89.44 17.8079 92.1608 17.8079C94.3375 17.8079 97.7836 12.9104 99.2346 10.4617Z" fill="url(#paint37_radial_7910_28062)"/>
<path fill-rule="evenodd" clip-rule="evenodd" d="M71.3505 82.6589C71.3949 82.7177 71.4396 82.7764 71.4845 82.8351C71.4845 82.8351 74.3115 89.9547 64.253 100.532C56.2702 108.181 48.8828 109.97 46.8938 108.649C45.1241 105.199 47.7483 94.8634 48.9046 93.2731C49.1446 92.9429 49.4301 92.4634 49.7589 91.9109C51.1399 89.5909 53.2869 85.9839 56.0599 86.7402C63.3999 80.4558 67.6376 79.7804 71.3505 82.6589Z" fill="url(#paint38_radial_7910_28062)"/>
<path d="M94.1714 40.8908C103.067 30.4346 100.57 15.765 98.6972 9.52261C107.125 13.7362 112.119 46.8211 94.1714 40.8908Z" fill="url(#paint39_radial_7910_28062)"/>
<path d="M82.3285 40.4886C89.5448 26.5755 83.0064 10.8952 79.3227 4.43041C89.7785 6.95791 103.815 42.4856 82.3285 40.4886Z" fill="url(#paint40_radial_7910_28062)"/>
<path d="M70.5567 43.0064C74.4898 27.8348 64.6204 14.0066 59.5883 8.52566C72.1154 6.03862 95.809 38.6571 70.5567 43.0064Z" fill="url(#paint41_radial_7910_28062)"/>
<path d="M60.5594 52.5307C59.4373 36.8978 45.6661 26.9491 39.1462 23.3639C50.2215 17.0036 83.0972 40.3389 60.5594 52.5307Z" fill="url(#paint42_radial_7910_28062)"/>
<path d="M56.5508 60.9575C50.1705 46.6417 33.8339 41.9792 26.4827 40.8294C34.729 31.0768 73.5876 41.8174 56.5508 60.9575Z" fill="url(#paint43_radial_7910_28062)"/>
<path d="M58.7976 70.0648C47.5663 59.133 30.6651 60.8567 23.4112 62.5131C27.456 50.3989 67.528 45.9738 58.7976 70.0648Z" fill="url(#paint44_radial_7910_28062)"/>
<path d="M60.0139 76.1109C44.5739 73.4174 31.5889 84.3725 26.5328 89.8313C23.0411 77.5462 53.6371 51.293 60.0139 76.1109Z" fill="url(#paint45_radial_7910_28062)"/>
<path fill-rule="evenodd" clip-rule="evenodd" d="M98.0746 45.8849C99.3827 44.3153 100.478 42.7286 101.386 41.1404C72.8605 26.4999 44.9357 57.4686 61.8685 82.5584C65.8797 80.3695 68.7429 80.6386 71.3475 82.6565C53.9106 59.5995 75.8205 38.5576 98.0746 45.8849Z" fill="url(#paint46_radial_7910_28062)"/>
<path fill-rule="evenodd" clip-rule="evenodd" d="M98.0746 45.8849C99.3827 44.3153 100.478 42.7286 101.386 41.1404C72.8605 26.4999 44.9357 57.4686 61.8685 82.5584C65.8797 80.3695 68.7429 80.6386 71.3475 82.6565C53.9106 59.5995 75.8205 38.5576 98.0746 45.8849Z" fill="url(#paint47_radial_7910_28062)"/>
<defs>
<linearGradient id="paint0_linear_7910_28062" x1="84.9662" y1="123.623" x2="162.405" y2="19.3456" gradientUnits="userSpaceOnUse">
<stop stop-color="#D1B5F7"/>
<stop offset="0.486768" stop-color="#9FCCF4"/>
<stop offset="0.977873" stop-color="#92E0D8"/>
</linearGradient>
<radialGradient id="paint1_radial_7910_28062" cx="0" cy="0" r="1" gradientUnits="userSpaceOnUse" gradientTransform="translate(108.209 51.0918) rotate(-18.5181) scale(139.353 72.5579)">
<stop offset="0.138757" stop-color="#0E407D" stop-opacity="0"/>
<stop offset="1" stop-color="#0E407D"/>
</radialGradient>
<radialGradient id="paint2_radial_7910_28062" cx="0" cy="0" r="1" gradientUnits="userSpaceOnUse" gradientTransform="translate(133.694 62.6684) rotate(-148.621) scale(35.0837 50.5934)">
<stop stop-color="#ABA5F5"/>
<stop offset="1" stop-color="#ABA5F5" stop-opacity="0"/>
</radialGradient>
<radialGradient id="paint3_radial_7910_28062" cx="0" cy="0" r="1" gradientUnits="userSpaceOnUse" gradientTransform="translate(115.047 51.9067) rotate(-39.3714) scale(80.1494 94.4396)">
<stop offset="0.448066" stop-color="#0E407D" stop-opacity="0"/>
<stop offset="1" stop-color="#0E407D"/>
</radialGradient>
<radialGradient id="paint4_radial_7910_28062" cx="0" cy="0" r="1" gradientUnits="userSpaceOnUse" gradientTransform="translate(117.445 73.5959) rotate(-170.71) scale(55.0189 41.597)">
<stop offset="0.316132" stop-color="#8E9FC1"/>
<stop offset="1" stop-color="#EFAA71" stop-opacity="0"/>
</radialGradient>
<radialGradient id="paint5_radial_7910_28062" cx="0" cy="0" r="1" gradientUnits="userSpaceOnUse" gradientTransform="translate(122.949 75.0541) rotate(-51.9627) scale(36.2785 37.7949)">
<stop offset="0.56" stop-color="#333A4C" stop-opacity="0"/>
<stop offset="1" stop-color="#333A4C" stop-opacity="0.6"/>
</radialGradient>
<radialGradient id="paint6_radial_7910_28062" cx="0" cy="0" r="1" gradientUnits="userSpaceOnUse" gradientTransform="translate(122.899 93.4542) rotate(-75.0081) scale(54.7221 69.9338)">
<stop offset="0.196078" stop-color="#B47019" stop-opacity="0.6"/>
<stop offset="1" stop-color="#EE9763" stop-opacity="0"/>
</radialGradient>
<radialGradient id="paint7_radial_7910_28062" cx="0" cy="0" r="1" gradientUnits="userSpaceOnUse" gradientTransform="translate(132.546 63.3781) rotate(-47.1591) scale(21.6796 21.7653)">
<stop stop-color="#533D0D"/>
<stop offset="1" stop-color="#ED7880" stop-opacity="0"/>
</radialGradient>
<radialGradient id="paint8_radial_7910_28062" cx="0" cy="0" r="1" gradientUnits="userSpaceOnUse" gradientTransform="translate(134.282 60.2477) rotate(-55.47) scale(26.1675 26.6101)">
<stop offset="0.243758" stop-color="#533D0D"/>
<stop offset="1" stop-color="#ED7880" stop-opacity="0"/>
</radialGradient>
<radialGradient id="paint9_radial_7910_28062" cx="0" cy="0" r="1" gradientUnits="userSpaceOnUse" gradientTransform="translate(134.696 68.5353) rotate(-60.7491) scale(27.6372 43.4871)">
<stop offset="0.489693" stop-color="#333A4C" stop-opacity="0"/>
<stop offset="1" stop-color="#333A4C" stop-opacity="0.7"/>
</radialGradient>
<radialGradient id="paint10_radial_7910_28062" cx="0" cy="0" r="1" gradientUnits="userSpaceOnUse" gradientTransform="translate(114.116 69.7204) rotate(-16.0245) scale(30.7979 12.7397)">
<stop offset="0.351172" stop-color="#E2E0EC" stop-opacity="0"/>
<stop offset="1" stop-color="#E2E0EC"/>
</radialGradient>
<radialGradient id="paint11_radial_7910_28062" cx="0" cy="0" r="1" gradientUnits="userSpaceOnUse" gradientTransform="translate(114.523 65.1107) rotate(90.1917) scale(15.079 19.1303)">
<stop offset="0.64287" stop-color="#E2E0EC" stop-opacity="0"/>
<stop offset="0.82" stop-color="#E2E0EC"/>
</radialGradient>
<radialGradient id="paint12_radial_7910_28062" cx="0" cy="0" r="1" gradientUnits="userSpaceOnUse" gradientTransform="translate(115.518 52.3021) rotate(34.7071) scale(30.7979 12.7397)">
<stop offset="0.351172" stop-color="#E2E0EC" stop-opacity="0"/>
<stop offset="1" stop-color="#E2E0EC"/>
</radialGradient>
<radialGradient id="paint13_radial_7910_28062" cx="0" cy="0" r="1" gradientUnits="userSpaceOnUse" gradientTransform="translate(119.696 49.8863) rotate(137.43) scale(17.4486 17.8413)">
<stop offset="0.64287" stop-color="#E2E0EC" stop-opacity="0"/>
<stop offset="0.835" stop-color="#E2E0EC"/>
</radialGradient>
<radialGradient id="paint14_radial_7910_28062" cx="0" cy="0" r="1" gradientUnits="userSpaceOnUse" gradientTransform="translate(130.844 46.7465) rotate(94.9925) scale(26.2165 12.7396)">
<stop offset="0.351172" stop-color="#E2E0EC" stop-opacity="0"/>
<stop offset="1" stop-color="#E2E0EC"/>
</radialGradient>
<radialGradient id="paint15_radial_7910_28062" cx="0" cy="0" r="1" gradientUnits="userSpaceOnUse" gradientTransform="translate(131.406 44.8657) rotate(96.6678) scale(15.5643 12.3515)">
<stop offset="0.64287" stop-color="#E2E0EC" stop-opacity="0"/>
<stop offset="0.787983" stop-color="#E2E0EC"/>
</radialGradient>
<radialGradient id="paint16_radial_7910_28062" cx="0" cy="0" r="1" gradientUnits="userSpaceOnUse" gradientTransform="translate(144.57 52.7731) rotate(140.883) scale(24.6304 12.7395)">
<stop offset="0.351172" stop-color="#E2E0EC" stop-opacity="0"/>
<stop offset="1" stop-color="#E2E0EC"/>
</radialGradient>
<radialGradient id="paint17_radial_7910_28062" cx="0" cy="0" r="1" gradientUnits="userSpaceOnUse" gradientTransform="translate(147.518 55.2518) rotate(-122.227) scale(16.5673 15.2758)">
<stop offset="0.64287" stop-color="#E2E0EC" stop-opacity="0"/>
<stop offset="0.845" stop-color="#E2E0EC"/>
</radialGradient>
<radialGradient id="paint18_radial_7910_28062" cx="0" cy="0" r="1" gradientUnits="userSpaceOnUse" gradientTransform="translate(151.497 67.3688) rotate(-173.148) scale(25.7052 12.7396)">
<stop offset="0.351172" stop-color="#E2E0EC" stop-opacity="0"/>
<stop offset="1" stop-color="#E2E0EC"/>
</radialGradient>
<radialGradient id="paint19_radial_7910_28062" cx="0" cy="0" r="1" gradientUnits="userSpaceOnUse" gradientTransform="translate(151.204 71.716) rotate(-70.2015) scale(17.4693 18.2303)">
<stop offset="0.64287" stop-color="#E2E0EC" stop-opacity="0"/>
<stop offset="0.825" stop-color="#E2E0EC"/>
</radialGradient>
<radialGradient id="paint20_radial_7910_28062" cx="0" cy="0" r="1" gradientUnits="userSpaceOnUse" gradientTransform="translate(147.584 81.3552) rotate(-136.425) scale(32.2727 15.1455)">
<stop offset="0.138757" stop-color="#E2E0EC" stop-opacity="0"/>
<stop offset="1" stop-color="#E2E0EC"/>
</radialGradient>
<radialGradient id="paint21_radial_7910_28062" cx="0" cy="0" r="1" gradientUnits="userSpaceOnUse" gradientTransform="translate(144.49 84.6842) rotate(-31.274) scale(18.6441 19.2645)">
<stop offset="0.64287" stop-color="#E2E0EC" stop-opacity="0"/>
<stop offset="0.826228" stop-color="#E2E0EC"/>
</radialGradient>
<radialGradient id="paint22_radial_7910_28062" cx="0" cy="0" r="1" gradientUnits="userSpaceOnUse" gradientTransform="translate(133.645 94.1898) rotate(-104.663) scale(28.6562 15.5339)">
<stop offset="0.351172" stop-color="#E2E0EC" stop-opacity="0"/>
<stop offset="1" stop-color="#E2E1EC"/>
</radialGradient>
<linearGradient id="paint23_linear_7910_28062" x1="140.633" y1="76.3068" x2="105.202" y2="71.9582" gradientUnits="userSpaceOnUse">
<stop offset="0.520014" stop-color="#C1BFD7"/>
<stop offset="1" stop-color="#F0F0F0" stop-opacity="0"/>
</linearGradient>
<linearGradient id="paint24_linear_7910_28062" x1="278.096" y1="46.6989" x2="90.5542" y2="47.2347" gradientUnits="userSpaceOnUse">
<stop stop-color="#6D9BFF"/>
<stop offset="1" stop-color="#FFBB6E"/>
</linearGradient>
<radialGradient id="paint25_radial_7910_28062" cx="0" cy="0" r="1" gradientUnits="userSpaceOnUse" gradientTransform="translate(201.346 102.627) rotate(-115.23) scale(90.3191 16.5902)">
<stop stop-color="#FFE4BE" stop-opacity="0.5"/>
<stop offset="1" stop-color="#FFE4BE" stop-opacity="0"/>
</radialGradient>
<radialGradient id="paint26_radial_7910_28062" cx="0" cy="0" r="1" gradientUnits="userSpaceOnUse" gradientTransform="translate(182.952 92.7888) rotate(-107.894) scale(100.24 36.1422)">
<stop offset="0.537092" stop-color="#383B3D" stop-opacity="0"/>
<stop offset="1" stop-color="#383B3D" stop-opacity="0.5"/>
</radialGradient>
<radialGradient id="paint27_radial_7910_28062" cx="0" cy="0" r="1" gradientUnits="userSpaceOnUse" gradientTransform="translate(206.803 84.091) rotate(-122.227) scale(102.481 36.9503)">
<stop offset="0.537092" stop-color="#383B3D" stop-opacity="0"/>
<stop offset="1" stop-color="#383B3D" stop-opacity="0.5"/>
</radialGradient>
<radialGradient id="paint28_radial_7910_28062" cx="0" cy="0" r="1" gradientUnits="userSpaceOnUse" gradientTransform="translate(203.976 103.365) rotate(-117.169) scale(98.7881 13.5278)">
<stop stop-color="#C0E5FF" stop-opacity="0.7"/>
<stop offset="1" stop-color="#B3E0FF" stop-opacity="0"/>
</radialGradient>
<radialGradient id="paint29_radial_7910_28062" cx="0" cy="0" r="1" gradientUnits="userSpaceOnUse" gradientTransform="translate(205.773 101.414) rotate(156.409) scale(22.0694 11.8457)">
<stop stop-color="#383B3D" stop-opacity="0"/>
<stop offset="1" stop-color="#383B3D" stop-opacity="0.7"/>
</radialGradient>
<radialGradient id="paint30_radial_7910_28062" cx="0" cy="0" r="1" gradientUnits="userSpaceOnUse" gradientTransform="translate(187.398 112.233) rotate(-23.2228) scale(35.6207 24.5915)">
<stop stop-color="#D1B5C0"/>
<stop offset="0.776375" stop-color="#D1B5C0" stop-opacity="0"/>
</radialGradient>
<radialGradient id="paint31_radial_7910_28062" cx="0" cy="0" r="1" gradientUnits="userSpaceOnUse" gradientTransform="translate(216.799 87.3127) rotate(139.086) scale(12.1884 6.63567)">
<stop offset="0.537092" stop-color="#383B3D" stop-opacity="0"/>
<stop offset="1" stop-color="#383B3D"/>
</radialGradient>
<linearGradient id="paint32_linear_7910_28062" x1="184.663" y1="109.214" x2="215.263" y2="97.7515" gradientUnits="userSpaceOnUse">
<stop stop-color="#D1B5C0"/>
<stop offset="0.776375" stop-color="#D1B5C0" stop-opacity="0"/>
</linearGradient>
<linearGradient id="paint33_linear_7910_28062" x1="197.916" y1="103.856" x2="212.047" y2="100.038" gradientUnits="userSpaceOnUse">
<stop stop-color="#D1B5C0"/>
<stop offset="0.776375" stop-color="#D1B5C0" stop-opacity="0"/>
</linearGradient>
<linearGradient id="paint34_linear_7910_28062" x1="29.166" y1="19.2783" x2="76.0629" y2="108.139" gradientUnits="userSpaceOnUse">
<stop stop-color="#D1B5F7"/>
<stop offset="0.486768" stop-color="#9FCCF4"/>
<stop offset="0.977873" stop-color="#92E0D8"/>
</linearGradient>
<radialGradient id="paint35_radial_7910_28062" cx="0" cy="0" r="1" gradientUnits="userSpaceOnUse" gradientTransform="translate(86.195 60.6494) rotate(-154.189) scale(64.7013 64.7013)">
<stop stop-color="#0E407D"/>
<stop offset="0.758231" stop-color="#0E407D" stop-opacity="0"/>
</radialGradient>
<linearGradient id="paint36_linear_7910_28062" x1="34.2283" y1="30.572" x2="145.385" y2="71.5383" gradientUnits="userSpaceOnUse">
<stop stop-color="#595959" stop-opacity="0"/>
<stop offset="1" stop-color="#595959"/>
</linearGradient>
<radialGradient id="paint37_radial_7910_28062" cx="0" cy="0" r="1" gradientUnits="userSpaceOnUse" gradientTransform="translate(91.1656 52.8691) rotate(114.574) scale(87.1258 68.4428)">
<stop offset="0.49434" stop-color="#FFE4BE" stop-opacity="0"/>
<stop offset="0.734308" stop-color="#FFE4BE" stop-opacity="0.7"/>
<stop offset="0.943242" stop-color="#FFE4BE" stop-opacity="0"/>
</radialGradient>
<radialGradient id="paint38_radial_7910_28062" cx="0" cy="0" r="1" gradientUnits="userSpaceOnUse" gradientTransform="translate(47.2698 89.2736) rotate(-68.5275) scale(42.1965 40.7222)">
<stop stop-color="#2C2F30"/>
<stop offset="1" stop-color="#0E407D" stop-opacity="0"/>
</radialGradient>
<radialGradient id="paint39_radial_7910_28062" cx="0" cy="0" r="1" gradientUnits="userSpaceOnUse" gradientTransform="translate(97.5051 27.8149) rotate(-82.664) scale(21.4849 9.47154)">
<stop stop-color="#2C2F30"/>
<stop offset="0.758231" stop-color="#0E407D" stop-opacity="0"/>
</radialGradient>
<radialGradient id="paint40_radial_7910_28062" cx="0" cy="0" r="1" gradientUnits="userSpaceOnUse" gradientTransform="translate(82.6855 25.0867) rotate(-95.6392) scale(24.5289 10.8135)">
<stop stop-color="#2C2F30"/>
<stop offset="0.758231" stop-color="#0E407D" stop-opacity="0"/>
</radialGradient>
<radialGradient id="paint41_radial_7910_28062" cx="0" cy="0" r="1" gradientUnits="userSpaceOnUse" gradientTransform="translate(68.1186 27.6233) rotate(-107.182) scale(24.6356 12.785)">
<stop stop-color="#2C2F30"/>
<stop offset="0.758231" stop-color="#0E407D" stop-opacity="0"/>
</radialGradient>
<radialGradient id="paint42_radial_7910_28062" cx="0" cy="0" r="1" gradientUnits="userSpaceOnUse" gradientTransform="translate(53.3327 38.7336) rotate(-125.821) scale(24.6356 12.785)">
<stop stop-color="#2C2F30"/>
<stop offset="0.758231" stop-color="#0E407D" stop-opacity="0"/>
</radialGradient>
<radialGradient id="paint43_radial_7910_28062" cx="0" cy="0" r="1" gradientUnits="userSpaceOnUse" gradientTransform="translate(45.0564 50.4473) rotate(-145.737) scale(24.6356 12.785)">
<stop stop-color="#2C2F30"/>
<stop offset="0.758231" stop-color="#0E407D" stop-opacity="0"/>
</radialGradient>
<radialGradient id="paint44_radial_7910_28062" cx="0" cy="0" r="1" gradientUnits="userSpaceOnUse" gradientTransform="translate(44.2267 64.5628) rotate(-167.49) scale(24.6356 12.785)">
<stop stop-color="#2C2F30"/>
<stop offset="0.758231" stop-color="#0E407D" stop-opacity="0"/>
</radialGradient>
<radialGradient id="paint45_radial_7910_28062" cx="0" cy="0" r="1" gradientUnits="userSpaceOnUse" gradientTransform="translate(44.8782 79.7848) rotate(158.18) scale(24.6356 12.785)">
<stop stop-color="#2C2F30"/>
<stop offset="0.758231" stop-color="#0E407D" stop-opacity="0"/>
</radialGradient>
<radialGradient id="paint46_radial_7910_28062" cx="0" cy="0" r="1" gradientUnits="userSpaceOnUse" gradientTransform="translate(83.2023 62.7725) rotate(-120.998) scale(44.0682 42.1574)">
<stop offset="0.403586" stop-color="#2C2F30"/>
<stop offset="0.752197" stop-color="#0E407D" stop-opacity="0"/>
</radialGradient>
<radialGradient id="paint47_radial_7910_28062" cx="0" cy="0" r="1" gradientUnits="userSpaceOnUse" gradientTransform="translate(83.2023 62.7725) rotate(-111.185) scale(45.0474 51.3075)">
<stop offset="0.30439" stop-color="#94F2FF"/>
<stop offset="0.587024" stop-color="#0E407D" stop-opacity="0"/>
</radialGradient>
</defs>
</svg>
