<svg viewBox="0 0 240 120" fill="none" xmlns="http://www.w3.org/2000/svg">
<path d="M168.278 89.4927C168.452 86.4161 166.743 38.5184 155.822 23.4216C147.608 12.0654 131.139 7.09307 113.004 7.00061C97.5543 7.00061 79.2788 10.1369 69.6694 23.4216C58.7484 38.5184 57.0397 86.4161 57.2139 89.4927C58.2427 107.663 167.249 107.663 168.278 89.4927Z" fill="url(#paint0_radial_955_30283)"/>
<path fill-rule="evenodd" clip-rule="evenodd" d="M165.962 120H59.5287C61.1814 114.117 62.9737 108.387 63.5855 106.699C64.7559 103.47 68.9175 97.6589 75.2898 97.2715C80.6494 96.9456 99.9989 94.6886 99.9989 94.6886H125.492C125.492 94.6886 144.841 96.9456 150.201 97.2715C156.573 97.6589 160.735 103.47 161.905 106.699C162.517 108.387 164.309 114.117 165.962 120Z" fill="url(#paint1_linear_955_30283)"/>
<path fill-rule="evenodd" clip-rule="evenodd" d="M165.962 120H59.5287C61.1814 114.117 62.9737 108.387 63.5855 106.699C64.7559 103.47 68.9175 97.6589 75.2898 97.2715C80.6494 96.9456 99.9989 94.6886 99.9989 94.6886H125.492C125.492 94.6886 144.841 96.9456 150.201 97.2715C156.573 97.6589 160.735 103.47 161.905 106.699C162.517 108.387 164.309 114.117 165.962 120Z" fill="url(#paint2_linear_955_30283)"/>
<path fill-rule="evenodd" clip-rule="evenodd" d="M102.22 120H79.0424C77.4254 112.388 74.1681 103.19 68.3206 98.0469L97.6364 83.5827C101.123 87.7335 102.119 106.17 102.22 120ZM146.45 120H123.272C123.373 106.17 124.369 87.7331 127.856 83.5822L157.172 98.0464C151.324 103.19 148.067 112.388 146.45 120Z" fill="url(#paint3_radial_955_30283)"/>
<path fill-rule="evenodd" clip-rule="evenodd" d="M102.219 120H79.0419C78.6337 118.078 78.121 116.056 77.4885 114.023H102.121C102.174 116.07 102.205 118.079 102.219 120ZM146.45 120H123.272C123.286 118.079 123.318 116.07 123.37 114.023H148.003C147.371 116.056 146.858 118.078 146.45 120ZM101.618 103.12C101.767 105.236 101.883 107.407 101.973 109.577H75.9006C74.9746 107.308 73.8799 105.112 72.5941 103.12H101.618ZM100.423 92.2167C100.75 94.1819 101.022 96.3637 101.248 98.6739H69.0004C68.7775 98.4586 68.5507 98.2492 68.3199 98.0462L80.1349 92.2167H100.423ZM123.873 103.12C123.725 105.236 123.609 107.407 123.519 109.577H149.591C150.517 107.308 151.612 105.112 152.898 103.12H123.873ZM125.069 92.2167C124.742 94.1819 124.469 96.3637 124.243 98.6739H156.491C156.714 98.4586 156.941 98.2492 157.172 98.0462L145.357 92.2167H125.069Z" fill="url(#paint4_linear_955_30283)"/>
<path fill-rule="evenodd" clip-rule="evenodd" d="M102.219 120H79.0419C78.6337 118.078 78.121 116.056 77.4885 114.023H102.121C102.174 116.07 102.205 118.079 102.219 120ZM146.45 120H123.272C123.286 118.079 123.318 116.07 123.37 114.023H148.003C147.371 116.056 146.858 118.078 146.45 120ZM101.618 103.12C101.767 105.236 101.883 107.407 101.973 109.577H75.9006C74.9746 107.308 73.8799 105.112 72.5941 103.12H101.618ZM100.423 92.2167C100.75 94.1819 101.022 96.3637 101.248 98.6739H69.0004C68.7775 98.4586 68.5507 98.2492 68.3199 98.0462L80.1349 92.2167H100.423ZM123.873 103.12C123.725 105.236 123.609 107.407 123.519 109.577H149.591C150.517 107.308 151.612 105.112 152.898 103.12H123.873ZM125.069 92.2167C124.742 94.1819 124.469 96.3637 124.243 98.6739H156.491C156.714 98.4586 156.941 98.2492 157.172 98.0462L145.357 92.2167H125.069Z" fill="url(#paint5_radial_955_30283)"/>
<path d="M97.5067 82.9362C98.5577 87.8437 100.344 98.6144 99.0832 102.437C101.71 107.329 106.98 111.735 112.746 111.735C119.667 111.587 124.71 105.499 126.382 102.437C125.099 98.6144 126.916 87.8437 127.985 82.9362H97.5067Z" fill="url(#paint6_radial_955_30283)"/>
<path d="M108.226 117.547C108.226 113.025 106.246 95.8607 105.256 87.8434H120.753L118.17 117.547H108.226Z" fill="url(#paint7_radial_955_30283)"/>
<path d="M110.421 36.4434C110.493 28.6163 109.937 13.6688 107.445 7.14417C103.989 7.33729 100.618 7.72427 97.3822 8.31646C100.84 12.8179 105.197 21.9119 106.676 37.0891L110.421 36.4434Z" fill="url(#paint8_linear_955_30283)"/>
<path d="M110.421 36.4434C110.493 28.6163 109.937 13.6688 107.445 7.14417C103.989 7.33729 100.618 7.72427 97.3822 8.31646C100.84 12.8179 105.197 21.9119 106.676 37.0891L110.421 36.4434Z" fill="url(#paint9_radial_955_30283)"/>
<path d="M110.421 36.4434C110.493 28.6163 109.937 13.6688 107.445 7.14417C103.989 7.33729 100.618 7.72427 97.3822 8.31646C100.84 12.8179 105.197 21.9119 106.676 37.0891L110.421 36.4434Z" fill="url(#paint10_radial_955_30283)"/>
<path d="M99.7019 83.3236C89.467 83.3236 70.0186 89.2311 59.6999 93.8168C58.1002 92.7052 57.2665 91.6304 57.2139 90.6841C57.1802 90.0771 57.2173 87.7503 57.3791 84.2829C72.0236 78.3359 89.2185 77.6222 96.9032 80.2241L99.7019 83.3236Z" fill="url(#paint11_linear_955_30283)"/>
<path d="M99.7019 83.3236C89.467 83.3236 70.0186 89.2311 59.6999 93.8168C58.1002 92.7052 57.2665 91.6304 57.2139 90.6841C57.1802 90.0771 57.2173 87.7503 57.3791 84.2829C72.0236 78.3359 89.2185 77.6222 96.9032 80.2241L99.7019 83.3236Z" fill="url(#paint12_radial_955_30283)"/>
<path d="M99.7019 83.3236C89.467 83.3236 70.0186 89.2311 59.6999 93.8168C58.1002 92.7052 57.2665 91.6304 57.2139 90.6841C57.1802 90.0771 57.2173 87.7503 57.3791 84.2829C72.0236 78.3359 89.2185 77.6222 96.9032 80.2241L99.7019 83.3236Z" fill="url(#paint13_radial_955_30283)"/>
<path d="M92.8776 74.5133C82.7723 66.1718 65.2047 70.4559 57.884 76.0055C58.1813 72.0047 58.5933 67.4639 59.1525 62.7337C73.8332 58.4528 88.0103 66.0788 93.7786 70.796L92.8776 74.5133Z" fill="url(#paint14_linear_955_30283)"/>
<path d="M92.8776 74.5133C82.7723 66.1718 65.2047 70.4559 57.884 76.0055C58.1813 72.0047 58.5933 67.4639 59.1525 62.7337C73.8332 58.4528 88.0103 66.0788 93.7786 70.796L92.8776 74.5133Z" fill="url(#paint15_radial_955_30283)"/>
<path d="M92.8776 74.5133C82.7723 66.1718 65.2047 70.4559 57.884 76.0055C58.1813 72.0047 58.5933 67.4639 59.1525 62.7337C73.8332 58.4528 88.0103 66.0788 93.7786 70.796L92.8776 74.5133Z" fill="url(#paint16_radial_955_30283)"/>
<path d="M89.6286 57.5324C80.3171 53.8432 68.3854 51.6719 60.4093 53.5506C60.9524 50.0993 61.5812 46.6653 62.3077 43.3767C74.4914 40.9525 86.1869 49.7116 90.5157 53.604L89.6286 57.5324Z" fill="url(#paint17_linear_955_30283)"/>
<path d="M89.6286 57.5324C80.3171 53.8432 68.3854 51.6719 60.4093 53.5506C60.9524 50.0993 61.5812 46.6653 62.3077 43.3767C74.4914 40.9525 86.1869 49.7116 90.5157 53.604L89.6286 57.5324Z" fill="url(#paint18_radial_955_30283)"/>
<path d="M89.6286 57.5324C80.3171 53.8432 68.3854 51.6719 60.4093 53.5506C60.9524 50.0993 61.5812 46.6653 62.3077 43.3767C74.4914 40.9525 86.1869 49.7116 90.5157 53.604L89.6286 57.5324Z" fill="url(#paint19_radial_955_30283)"/>
<path d="M92.5464 45.8547C88.1516 35.9857 73.7676 33.1234 64.6755 34.4353C66.0371 30.1746 67.6352 26.4954 69.5075 23.8064C83.7223 25.3099 92.2271 36.8247 94.9802 42.924L92.5464 45.8547Z" fill="url(#paint20_linear_955_30283)"/>
<path d="M92.5464 45.8547C88.1516 35.9857 73.7676 33.1234 64.6755 34.4353C66.0371 30.1746 67.6352 26.4954 69.5075 23.8064C83.7223 25.3099 92.2271 36.8247 94.9802 42.924L92.5464 45.8547Z" fill="url(#paint21_radial_955_30283)"/>
<path d="M92.5464 45.8547C88.1516 35.9857 73.7676 33.1234 64.6755 34.4353C66.0371 30.1746 67.6352 26.4954 69.5075 23.8064C83.7223 25.3099 92.2271 36.8247 94.9802 42.924L92.5464 45.8547Z" fill="url(#paint22_radial_955_30283)"/>
<path d="M101.356 36.8784C98.8394 29.5646 93.4211 15.9026 88.9237 10.4495C85.5469 11.5647 82.4039 12.962 79.5678 14.6584C84.3307 17.71 91.5313 24.8285 98.042 38.7383L101.356 36.8784Z" fill="url(#paint23_linear_955_30283)"/>
<path d="M101.356 36.8784C98.8394 29.5646 93.4211 15.9026 88.9237 10.4495C85.5469 11.5647 82.4039 12.962 79.5678 14.6584C84.3307 17.71 91.5313 24.8285 98.042 38.7383L101.356 36.8784Z" fill="url(#paint24_radial_955_30283)"/>
<path d="M101.356 36.8784C98.8394 29.5646 93.4211 15.9026 88.9237 10.4495C85.5469 11.5647 82.4039 12.962 79.5678 14.6584C84.3307 17.71 91.5313 24.8285 98.042 38.7383L101.356 36.8784Z" fill="url(#paint25_radial_955_30283)"/>
<path d="M115.07 36.4434C114.998 28.6163 115.555 13.6688 118.047 7.14417C121.503 7.33729 124.873 7.72427 128.109 8.31646C124.651 12.8179 120.294 21.9119 118.816 37.0891L115.07 36.4434Z" fill="url(#paint26_linear_955_30283)"/>
<path d="M115.07 36.4434C114.998 28.6163 115.555 13.6688 118.047 7.14417C121.503 7.33729 124.873 7.72427 128.109 8.31646C124.651 12.8179 120.294 21.9119 118.816 37.0891L115.07 36.4434Z" fill="url(#paint27_radial_955_30283)"/>
<path d="M115.07 36.4434C114.998 28.6163 115.555 13.6688 118.047 7.14417C121.503 7.33729 124.873 7.72427 128.109 8.31646C124.651 12.8179 120.294 21.9119 118.816 37.0891L115.07 36.4434Z" fill="url(#paint28_radial_955_30283)"/>
<path d="M125.79 83.3236C136.024 83.3236 155.473 89.2311 165.792 93.8168C167.391 92.7052 168.225 91.6304 168.278 90.6841C168.311 90.0771 168.274 87.7503 168.112 84.2829C153.468 78.3359 136.273 77.6222 128.588 80.2241L125.79 83.3236Z" fill="url(#paint29_linear_955_30283)"/>
<path d="M125.79 83.3236C136.024 83.3236 155.473 89.2311 165.792 93.8168C167.391 92.7052 168.225 91.6304 168.278 90.6841C168.311 90.0771 168.274 87.7503 168.112 84.2829C153.468 78.3359 136.273 77.6222 128.588 80.2241L125.79 83.3236Z" fill="url(#paint30_radial_955_30283)"/>
<path d="M125.79 83.3236C136.024 83.3236 155.473 89.2311 165.792 93.8168C167.391 92.7052 168.225 91.6304 168.278 90.6841C168.311 90.0771 168.274 87.7503 168.112 84.2829C153.468 78.3359 136.273 77.6222 128.588 80.2241L125.79 83.3236Z" fill="url(#paint31_radial_955_30283)"/>
<path d="M132.614 74.5133C142.719 66.1718 160.287 70.4559 167.608 76.0055C167.31 72.0047 166.898 67.4639 166.339 62.7337C151.658 58.4528 137.481 66.0788 131.713 70.796L132.614 74.5133Z" fill="url(#paint32_linear_955_30283)"/>
<path d="M132.614 74.5133C142.719 66.1718 160.287 70.4559 167.608 76.0055C167.31 72.0047 166.898 67.4639 166.339 62.7337C151.658 58.4528 137.481 66.0788 131.713 70.796L132.614 74.5133Z" fill="url(#paint33_radial_955_30283)"/>
<path d="M132.614 74.5133C142.719 66.1718 160.287 70.4559 167.608 76.0055C167.31 72.0047 166.898 67.4639 166.339 62.7337C151.658 58.4528 137.481 66.0788 131.713 70.796L132.614 74.5133Z" fill="url(#paint34_radial_955_30283)"/>
<path d="M135.863 57.5324C145.174 53.8432 157.106 51.6719 165.082 53.5506C164.539 50.0993 163.91 46.6653 163.184 43.3767C151 40.9525 139.305 49.7116 134.976 53.604L135.863 57.5324Z" fill="url(#paint35_linear_955_30283)"/>
<path d="M135.863 57.5324C145.174 53.8432 157.106 51.6719 165.082 53.5506C164.539 50.0993 163.91 46.6653 163.184 43.3767C151 40.9525 139.305 49.7116 134.976 53.604L135.863 57.5324Z" fill="url(#paint36_radial_955_30283)"/>
<path d="M135.863 57.5324C145.174 53.8432 157.106 51.6719 165.082 53.5506C164.539 50.0993 163.91 46.6653 163.184 43.3767C151 40.9525 139.305 49.7116 134.976 53.604L135.863 57.5324Z" fill="url(#paint37_radial_955_30283)"/>
<path d="M132.945 45.8547C137.34 35.9857 151.724 33.1234 160.816 34.4353C159.454 30.1746 157.856 26.4954 155.984 23.8064C141.769 25.3099 133.264 36.8247 130.511 42.924L132.945 45.8547Z" fill="url(#paint38_linear_955_30283)"/>
<path d="M132.945 45.8547C137.34 35.9857 151.724 33.1234 160.816 34.4353C159.454 30.1746 157.856 26.4954 155.984 23.8064C141.769 25.3099 133.264 36.8247 130.511 42.924L132.945 45.8547Z" fill="url(#paint39_radial_955_30283)"/>
<path d="M132.945 45.8547C137.34 35.9857 151.724 33.1234 160.816 34.4353C159.454 30.1746 157.856 26.4954 155.984 23.8064C141.769 25.3099 133.264 36.8247 130.511 42.924L132.945 45.8547Z" fill="url(#paint40_radial_955_30283)"/>
<path d="M124.135 36.8784C126.652 29.5646 132.07 15.9026 136.568 10.4495C139.945 11.5647 143.088 12.962 145.924 14.6584C141.161 17.71 133.96 24.8285 127.449 38.7383L124.135 36.8784Z" fill="url(#paint41_linear_955_30283)"/>
<path d="M124.135 36.8784C126.652 29.5646 132.07 15.9026 136.568 10.4495C139.945 11.5647 143.088 12.962 145.924 14.6584C141.161 17.71 133.96 24.8285 127.449 38.7383L124.135 36.8784Z" fill="url(#paint42_radial_955_30283)"/>
<path d="M124.135 36.8784C126.652 29.5646 132.07 15.9026 136.568 10.4495C139.945 11.5647 143.088 12.962 145.924 14.6584C141.161 17.71 133.96 24.8285 127.449 38.7383L124.135 36.8784Z" fill="url(#paint43_radial_955_30283)"/>
<path d="M145.025 59.303C150.32 44.0639 142.313 39.1564 138.051 45.6136L136.372 66.664C137.491 69.29 140.789 71.4942 145.025 59.303Z" fill="url(#paint44_radial_955_30283)"/>
<path fill-rule="evenodd" clip-rule="evenodd" d="M137.601 51.2511L136.372 66.664C137.317 68.8819 139.817 70.7989 143.122 63.9966C143.577 62.2622 144.019 60.2152 144.378 57.8824C145.669 49.488 144.249 45.6136 141.795 45.7428C139.832 45.8461 138.394 48.2826 137.921 49.488L137.601 51.2511Z" fill="url(#paint45_radial_955_30283)"/>
<path fill-rule="evenodd" clip-rule="evenodd" d="M137.601 51.2511L136.372 66.664C137.317 68.8819 139.817 70.7989 143.122 63.9966C143.577 62.2622 144.019 60.2152 144.378 57.8824C145.669 49.488 144.249 45.6136 141.795 45.7428C139.832 45.8461 138.394 48.2826 137.921 49.488L137.601 51.2511Z" fill="url(#paint46_radial_955_30283)"/>
<path d="M140.511 62.0119C142.492 62.0793 141.595 67.3582 139.415 67.4035C137.236 67.4489 138.531 61.9445 140.511 62.0119Z" fill="url(#paint47_radial_955_30283)"/>
<path d="M110.045 14.6824C114.089 23.7811 113.34 30.7081 114.089 36.699H120.828C122.026 31.3072 121.951 22.9948 125.771 14.6824C128.273 9.23521 120.828 3.00015 117.683 3.00015C114.538 3.00015 108.247 10.6385 110.045 14.6824Z" fill="url(#paint48_radial_955_30283)"/>
<path d="M108.696 20.5235C105.776 25.0166 108.541 34.5892 115.281 35.7125L112.965 37.5975H105.327C97.6885 35.8003 102.406 26.1399 100.384 24.5673C96.7891 22.5454 94.5425 14.907 97.0137 7.7179C101.956 8.39187 111.617 16.0303 108.696 20.5235Z" fill="url(#paint49_radial_955_30283)"/>
<path d="M123.524 12.9977C123.524 16.782 121.059 19.8498 118.019 19.8498C114.978 19.8498 112.514 16.782 112.514 12.9977C112.514 9.21342 114.978 6.14564 118.019 6.14564C121.059 6.14564 123.524 9.21342 123.524 12.9977Z" fill="#35748B"/>
<path d="M104.113 12.6644C105.094 13.4443 105.38 14.7149 104.754 15.5025C104.127 16.2901 102.825 16.2964 101.844 15.5166C100.864 14.7368 100.577 13.4661 101.204 12.6785C101.83 11.8909 103.133 11.8846 104.113 12.6644Z" fill="#15323D"/>
<path fill-rule="evenodd" clip-rule="evenodd" d="M121.266 20.9903C120.356 21.8195 119.233 22.309 118.019 22.309C116.805 22.309 115.682 21.8198 114.772 20.9911C114.692 21.7637 114.648 22.5782 114.648 23.4196C114.648 28.4001 116.158 32.4376 118.019 32.4376C119.881 32.4376 121.39 28.4001 121.39 23.4196C121.39 22.5779 121.347 21.7632 121.266 20.9903Z" fill="#BC2926"/>
<path fill-rule="evenodd" clip-rule="evenodd" d="M96.3825 10.0148C98.475 15.1588 102.443 17.5275 105.889 17.9222C102.312 19.4899 98.5381 16.7431 95.9726 14.1286C95.9629 12.7937 96.0914 11.4078 96.3825 10.0148Z" fill="#15323D"/>
<path d="M80.3307 59.303C75.0358 44.0639 83.0427 39.1564 87.3045 45.6136L88.9835 66.664C87.8642 69.29 84.5666 71.4942 80.3307 59.303Z" fill="url(#paint50_radial_955_30283)"/>
<path fill-rule="evenodd" clip-rule="evenodd" d="M87.7543 51.2535L88.9835 66.664C88.0381 68.882 85.5387 70.7991 82.2325 63.9955C81.778 62.2614 81.3361 60.2147 80.9773 57.8824C79.6858 49.488 81.1064 45.6136 83.5602 45.7428C85.5232 45.8461 86.961 48.2826 87.4345 49.488L87.7543 51.2535Z" fill="url(#paint51_radial_955_30283)"/>
<path fill-rule="evenodd" clip-rule="evenodd" d="M87.7543 51.2535L88.9835 66.664C88.0381 68.882 85.5387 70.7991 82.2325 63.9955C81.778 62.2614 81.3361 60.2147 80.9773 57.8824C79.6858 49.488 81.1064 45.6136 83.5602 45.7428C85.5232 45.8461 86.961 48.2826 87.4345 49.488L87.7543 51.2535Z" fill="url(#paint52_radial_955_30283)"/>
<path d="M84.8442 62.0119C82.8636 62.0793 83.7608 67.3582 85.9398 67.4035C88.1189 67.4489 86.8247 61.9445 84.8442 62.0119Z" fill="url(#paint53_radial_955_30283)"/>
<path d="M87.433 46.5182C87.3039 55.2139 88.2596 73.871 93.1154 78.9334C100.84 86.9871 107.16 90.2735 113.004 90.2735C118.848 90.2735 126.552 85.0043 132.376 78.9334C137.231 73.871 138.187 55.2139 138.058 46.5182C138.058 39.8024 130.826 34.8969 113.004 34.8969C95.1816 34.8969 87.433 38.7693 87.433 46.5182Z" fill="url(#paint54_radial_955_30283)"/>
<path d="M87.433 46.5182C87.3039 55.2139 88.2596 73.871 93.1154 78.9334C100.84 86.9871 107.16 90.2735 113.004 90.2735C118.848 90.2735 126.552 85.0043 132.376 78.9334C137.231 73.871 138.187 55.2139 138.058 46.5182C138.058 39.8024 130.826 34.8969 113.004 34.8969C95.1816 34.8969 87.433 38.7693 87.433 46.5182Z" fill="url(#paint55_radial_955_30283)"/>
<path d="M87.433 46.5182C87.3039 55.2139 88.2596 73.871 93.1154 78.9334C100.84 86.9871 107.16 90.2735 113.004 90.2735C118.848 90.2735 126.552 85.0043 132.376 78.9334C137.231 73.871 138.187 55.2139 138.058 46.5182C138.058 39.8024 130.826 34.8969 113.004 34.8969C95.1816 34.8969 87.433 38.7693 87.433 46.5182Z" fill="url(#paint56_radial_955_30283)"/>
<path d="M87.433 46.5182C87.3039 55.2139 88.2596 73.871 93.1154 78.9334C100.84 86.9871 107.16 90.2735 113.004 90.2735C118.848 90.2735 126.552 85.0043 132.376 78.9334C137.231 73.871 138.187 55.2139 138.058 46.5182C138.058 39.8024 130.826 34.8969 113.004 34.8969C95.1816 34.8969 87.433 38.7693 87.433 46.5182Z" fill="url(#paint57_radial_955_30283)"/>
<path d="M87.433 46.5182C87.3039 55.2139 88.2596 73.871 93.1154 78.9334C100.84 86.9871 107.16 90.2735 113.004 90.2735C118.848 90.2735 126.552 85.0043 132.376 78.9334C137.231 73.871 138.187 55.2139 138.058 46.5182C138.058 39.8024 130.826 34.8969 113.004 34.8969C95.1816 34.8969 87.433 38.7693 87.433 46.5182Z" fill="url(#paint58_radial_955_30283)"/>
<path d="M87.433 46.5182C87.3039 55.2139 88.2596 73.871 93.1154 78.9334C100.84 86.9871 107.16 90.2735 113.004 90.2735C118.848 90.2735 126.552 85.0043 132.376 78.9334C137.231 73.871 138.187 55.2139 138.058 46.5182C138.058 39.8024 130.826 34.8969 113.004 34.8969C95.1816 34.8969 87.433 38.7693 87.433 46.5182Z" fill="url(#paint59_radial_955_30283)"/>
<path d="M106.418 47.1632C112.746 53.4913 110.938 61.6274 110.938 61.6274C110.938 63.3457 107.851 64.5348 106.669 67.1506C106.49 67.5452 106.649 67.996 107.014 68.2298C108.11 68.9328 110.535 70.3079 112.746 70.3079C115.012 70.3079 117.502 68.8646 118.557 68.1794C118.881 67.9691 119.046 67.583 118.929 67.2151C118.048 64.4482 114.554 63.3646 114.554 61.6274C114.554 61.6274 112.746 53.4913 118.558 47.1632C118.558 47.1632 120.366 40.1894 112.488 40.1894C104.61 40.1894 106.418 47.1632 106.418 47.1632Z" fill="url(#paint60_linear_955_30283)"/>
<path d="M106.418 47.1632C112.746 53.4913 110.938 61.6274 110.938 61.6274C110.938 63.3457 107.851 64.5348 106.669 67.1506C106.49 67.5452 106.649 67.996 107.014 68.2298C108.11 68.9328 110.535 70.3079 112.746 70.3079C115.012 70.3079 117.502 68.8646 118.557 68.1794C118.881 67.9691 119.046 67.583 118.929 67.2151C118.048 64.4482 114.554 63.3646 114.554 61.6274C114.554 61.6274 112.746 53.4913 118.558 47.1632C118.558 47.1632 120.366 40.1894 112.488 40.1894C104.61 40.1894 106.418 47.1632 106.418 47.1632Z" fill="url(#paint61_radial_955_30283)"/>
<path d="M112.746 75.0769C111.76 74.6837 110.014 74.0794 109.259 74.1622C108.432 74.2529 106.418 76.089 105.514 76.9957H119.978C119.074 76.089 117.059 74.2529 116.233 74.1622C115.478 74.0794 113.731 74.6837 112.746 75.0769Z" fill="url(#paint62_radial_955_30283)"/>
<path d="M109.065 57.1722C106.483 51.1021 100.09 49.5525 92.2121 55.8162C94.0847 58.2052 99.1859 60.3365 109.065 57.1722Z" fill="white"/>
<path d="M116.427 57.1722C119.01 51.1021 125.402 49.5525 133.28 55.8162C131.408 58.2052 126.306 60.3365 116.427 57.1722Z" fill="white"/>
<path d="M109.065 56.4644C107.515 47.4865 97.0544 45.0939 90.9201 56.2355L109.065 56.4644Z" fill="url(#paint63_radial_955_30283)"/>
<path d="M116.427 56.4644C117.976 47.4865 128.437 45.0939 134.571 56.2355L116.427 56.4644Z" fill="url(#paint64_radial_955_30283)"/>
<path d="M112.487 80.9885C108.226 80.9885 106.578 78.2802 106.288 76.9963H119.203C118.721 79.1292 116.749 80.9885 112.487 80.9885Z" fill="url(#paint65_radial_955_30283)"/>
<path d="M104.464 54.2504C104.464 56.3099 102.794 57.9794 100.735 57.9794C98.6753 57.9794 97.0057 56.3099 97.0057 54.2504C97.0057 52.1909 98.6753 51.0702 100.735 51.0702C102.794 51.0702 104.464 52.1909 104.464 54.2504Z" fill="url(#paint66_radial_955_30283)"/>
<path d="M128.76 54.2504C128.76 56.3099 127.09 57.9794 125.031 57.9794C122.971 57.9794 121.302 56.3099 121.302 54.2504C121.302 52.1909 122.971 51.0702 125.031 51.0702C127.09 51.0702 128.76 52.1909 128.76 54.2504Z" fill="url(#paint67_radial_955_30283)"/>
<path fill-rule="evenodd" clip-rule="evenodd" d="M115.164 57.376C116.436 54.1252 118.625 52.1174 121.302 51.2461C123.942 50.3868 126.936 50.67 129.815 51.7409C131.336 52.3068 132.502 53.2584 133.62 54.1703L133.659 54.202C134.788 55.1233 135.926 56.052 137.503 56.8251L136.593 58.6802C135.569 58.1782 134.708 57.618 133.95 57.0604C131.701 59.0217 128.286 59.6005 125.138 59.6025C121.945 59.6046 118.289 58.9473 115.164 57.376ZM117.849 56.5632C118.904 54.7978 120.332 53.7348 121.941 53.2109C124.017 52.5353 126.517 52.7186 129.094 53.6775C130.239 54.1034 131.15 54.8225 132.287 55.7494C130.607 57.0151 128 57.5344 125.137 57.5362C122.446 57.538 119.745 57.0825 117.849 56.5632Z" fill="url(#paint68_linear_955_30283)"/>
<path fill-rule="evenodd" clip-rule="evenodd" d="M115.164 57.376C116.436 54.1252 118.625 52.1174 121.302 51.2461C123.942 50.3868 126.936 50.67 129.815 51.7409C131.336 52.3068 132.502 53.2584 133.62 54.1703L133.659 54.202C134.788 55.1233 135.926 56.052 137.503 56.8251L136.593 58.6802C135.569 58.1782 134.708 57.618 133.95 57.0604C131.701 59.0217 128.286 59.6005 125.138 59.6025C121.945 59.6046 118.289 58.9473 115.164 57.376ZM117.849 56.5632C118.904 54.7978 120.332 53.7348 121.941 53.2109C124.017 52.5353 126.517 52.7186 129.094 53.6775C130.239 54.1034 131.15 54.8225 132.287 55.7494C130.607 57.0151 128 57.5344 125.137 57.5362C122.446 57.538 119.745 57.0825 117.849 56.5632Z" fill="url(#paint69_radial_955_30283)"/>
<path fill-rule="evenodd" clip-rule="evenodd" d="M110.35 57.376C109.078 54.1252 106.889 52.1174 104.213 51.2461C101.573 50.3868 98.5779 50.67 95.6993 51.7409C94.1783 52.3068 93.0119 53.2584 91.8941 54.1703L91.8552 54.202C90.726 55.1233 89.5878 56.052 88.0117 56.8251L88.9216 58.6802C89.9451 58.1782 90.8064 57.618 91.5646 57.0604C93.8131 59.0217 97.2287 59.6005 100.376 59.6025C103.569 59.6046 107.225 58.9473 110.35 57.376ZM107.665 56.5632C106.61 54.7978 105.183 53.7348 103.573 53.2109C101.497 52.5353 98.9972 52.7186 96.4198 53.6775C95.2751 54.1034 94.3639 54.8225 93.2272 55.7494C94.9069 57.0151 97.514 57.5344 100.378 57.5362C103.068 57.538 105.77 57.0825 107.665 56.5632Z" fill="url(#paint70_linear_955_30283)"/>
<path fill-rule="evenodd" clip-rule="evenodd" d="M110.35 57.376C109.078 54.1252 106.889 52.1174 104.213 51.2461C101.573 50.3868 98.5779 50.67 95.6993 51.7409C94.1783 52.3068 93.0119 53.2584 91.8941 54.1703L91.8552 54.202C90.726 55.1233 89.5878 56.052 88.0117 56.8251L88.9216 58.6802C89.9451 58.1782 90.8064 57.618 91.5646 57.0604C93.8131 59.0217 97.2287 59.6005 100.376 59.6025C103.569 59.6046 107.225 58.9473 110.35 57.376ZM107.665 56.5632C106.61 54.7978 105.183 53.7348 103.573 53.2109C101.497 52.5353 98.9972 52.7186 96.4198 53.6775C95.2751 54.1034 94.3639 54.8225 93.2272 55.7494C94.9069 57.0151 97.514 57.5344 100.378 57.5362C103.068 57.538 105.77 57.0825 107.665 56.5632Z" fill="url(#paint71_radial_955_30283)"/>
<path d="M94.2782 46.0016C96.3445 44.8385 103.06 44.3225 107.064 46.6472C107.064 46.6472 107.194 48.8492 106.03 48.972C103.859 49.201 101.639 46.6472 96.6028 47.8095C93.3751 48.5544 91.9536 52.2005 88.9833 53.7502H87.5627C89.8873 51.5547 92.212 47.1647 94.2782 46.0016Z" fill="url(#paint72_linear_955_30283)"/>
<path d="M94.2782 46.0016C96.3445 44.8385 103.06 44.3225 107.064 46.6472C107.064 46.6472 107.194 48.8492 106.03 48.972C103.859 49.201 101.639 46.6472 96.6028 47.8095C93.3751 48.5544 91.9536 52.2005 88.9833 53.7502H87.5627C89.8873 51.5547 92.212 47.1647 94.2782 46.0016Z" fill="url(#paint73_radial_955_30283)"/>
<path d="M131.218 46.0016C129.151 44.8385 122.436 44.3225 118.432 46.6472C118.432 46.6472 118.302 48.8492 119.466 48.972C121.637 49.201 123.857 46.6472 128.893 47.8095C132.121 48.5544 133.542 52.2005 136.513 53.7502H137.933C135.609 51.5547 133.284 47.1647 131.218 46.0016Z" fill="url(#paint74_linear_955_30283)"/>
<path d="M131.218 46.0016C129.151 44.8385 122.436 44.3225 118.432 46.6472C118.432 46.6472 118.302 48.8492 119.466 48.972C121.637 49.201 123.857 46.6472 128.893 47.8095C132.121 48.5544 133.542 52.2005 136.513 53.7502H137.933C135.609 51.5547 133.284 47.1647 131.218 46.0016Z" fill="url(#paint75_radial_955_30283)"/>
<path fill-rule="evenodd" clip-rule="evenodd" d="M154.375 119.999H144.354C150.448 114.059 158.012 106.628 165.03 99.6174C174.318 90.3399 182.444 82.0012 185.094 78.7278C189.335 73.4888 194.547 71.8108 199.127 70.8947C201.192 70.4817 203.283 70.2104 205.345 69.7847C207.207 69.4004 208.687 68.9406 209.91 68.2366C211.805 67.1454 212.989 64.7699 213.011 61.3586C213.032 57.9695 211.851 54.4483 210.136 52.2655C206.024 47.0312 200.21 45.3528 194.822 47.4129C192.686 48.2295 190.979 50.4054 189.664 53.5761C188.53 56.3085 187.921 59.2029 187.345 62.0926C186.48 66.4178 182.365 69.5 178.929 71.882C177.371 72.9528 175.101 72.5543 174.03 70.9839C172.508 68.7518 174.06 66.8139 175.812 65.4906C176.363 65.074 177.095 64.4943 177.835 63.8321C178.891 62.8864 180.277 61.7286 180.567 60.2648C180.981 58.169 181.713 54.4624 183.194 50.8924C184.756 47.1267 187.468 42.7258 192.32 40.8706C200.908 37.587 209.866 40.5833 215.644 47.9384C218.451 51.5108 220.045 56.6221 220.015 61.4027C219.985 66.1612 218.292 71.4929 213.405 74.3067C211.236 75.5552 208.914 76.2 206.761 76.6443C205.681 76.8672 204.586 77.0502 203.551 77.2226L203.479 77.2346C202.449 77.406 201.472 77.5687 200.501 77.7629C196.603 78.5424 193.285 79.7417 190.538 83.1348C187.598 86.7671 179.145 95.4184 169.98 104.573C164.805 109.743 159.336 115.138 154.375 119.999Z" fill="url(#paint76_linear_955_30283)"/>
<path fill-rule="evenodd" clip-rule="evenodd" d="M209.266 42.2979C206.542 40.6943 203.543 39.7565 200.444 39.5786L198.197 46.6143C201.281 46.3195 204.36 47.1994 207.055 49.2214L209.266 42.2979ZM210.598 52.9047C212.059 55.0989 213.03 58.2837 213.011 61.3598C213.01 61.5194 213.006 61.6767 213 61.8318L219.996 60.3505C219.865 57.28 219.087 54.1307 217.768 51.3863L210.598 52.9047ZM210.596 75.5982L207.866 69.1322C207.111 69.383 206.276 69.5938 205.346 69.7858C204.419 69.9772 203.454 70.1394 202.401 70.3146L202.288 70.3334C201.288 70.4998 200.212 70.6789 199.127 70.8958C198.963 70.9286 198.799 70.9624 198.633 70.9973L201.417 77.5896C202.089 77.4671 202.772 77.3535 203.479 77.2357L203.551 77.2238C204.587 77.0514 205.682 76.8683 206.762 76.6455C208.004 76.389 209.303 76.0658 210.596 75.5982ZM192.904 80.8207L187.842 75.9053C186.894 76.7102 185.974 77.643 185.095 78.7289C184.336 79.6657 183.129 81.0172 181.575 82.6869L186.6 87.5667C188.313 85.7277 189.668 84.2117 190.539 83.136C191.285 82.2142 192.073 81.4543 192.904 80.8207ZM179.403 95.0676L174.378 90.1876C172.367 92.2426 170.181 94.4544 167.89 96.7548L172.915 101.635C175.183 99.358 177.371 97.1444 179.403 95.0676ZM166.005 108.533L160.98 103.652C158.787 105.829 156.579 108.011 154.414 110.144L159.44 115.025C161.606 112.891 163.813 110.709 166.005 108.533ZM180.952 70.4988C183.421 68.5288 186.053 66.3138 186.971 63.3481L181.294 56.8836C180.987 58.1531 180.733 59.4334 180.479 60.7141C180.468 60.7478 180.26 61.2224 179.796 61.8097C179.28 62.4618 178.586 63.161 177.835 63.8332C177.283 64.3276 176.735 64.776 176.263 65.1449L180.952 70.4988ZM183.527 50.1219L188.766 56.0874C189.023 55.2538 189.319 54.4082 189.664 53.5772C190.775 50.9002 192.164 48.9323 193.856 47.8929L189.2 42.5912C186.503 44.5955 184.722 47.4598 183.527 50.1219Z" fill="#048BB8"/>
<path fill-rule="evenodd" clip-rule="evenodd" d="M88.5275 120H83.8555C79.179 111.167 73.5067 100.998 67.4398 91.8014C62.794 84.7593 57.9633 78.3605 53.2205 73.5903C48.4166 68.7586 43.9793 65.8826 40.143 65.3535L40.7077 61.2596C45.9409 61.9815 51.1929 65.6896 56.1511 70.6765C61.1704 75.7248 66.1746 82.379 70.8894 89.5257C77.5013 99.5479 83.6354 110.681 88.5275 120Z" fill="url(#paint77_linear_955_30283)"/>
<path fill-rule="evenodd" clip-rule="evenodd" d="M53.3067 119.999H37.3459L39.5024 61.7026C39.5476 60.4792 41.3063 60.3369 41.5477 61.5371L53.3067 119.999Z" fill="url(#paint78_linear_955_30283)"/>
<path fill-rule="evenodd" clip-rule="evenodd" d="M46.2359 84.8464L47.3156 90.2143L38.4094 91.2522L38.6135 85.7346L46.2359 84.8464Z" fill="#048BB8"/>
<path fill-rule="evenodd" clip-rule="evenodd" d="M49.1655 99.4098L50.2452 104.778L37.8557 106.221L38.0598 100.704L49.1655 99.4098Z" fill="#048BB8"/>
<path fill-rule="evenodd" clip-rule="evenodd" d="M48.0861 94.0426L49.1658 99.4106L38.06 100.705L38.2641 95.1872L48.0861 94.0426Z" fill="#C5480C"/>
<defs>
<radialGradient id="paint0_radial_955_30283" cx="0" cy="0" r="1" gradientUnits="userSpaceOnUse" gradientTransform="translate(112.746 48.0676) rotate(90) scale(57.5172 57.3402)">
<stop offset="0.727484" stop-color="#FDE588"/>
<stop offset="1" stop-color="#A66A2A"/>
</radialGradient>
<linearGradient id="paint1_linear_955_30283" x1="140.382" y1="94.6886" x2="140.382" y2="128.912" gradientUnits="userSpaceOnUse">
<stop stop-color="#D9D9D9"/>
<stop offset="1" stop-color="#2B2929"/>
</linearGradient>
<linearGradient id="paint2_linear_955_30283" x1="80.6207" y1="88.1428" x2="167.178" y2="131.89" gradientUnits="userSpaceOnUse">
<stop stop-color="#0F719C"/>
<stop offset="1" stop-color="#074F6F"/>
</linearGradient>
<radialGradient id="paint3_radial_955_30283" cx="0" cy="0" r="1" gradientUnits="userSpaceOnUse" gradientTransform="translate(112.746 94.8178) rotate(90) scale(40.4222 45.4589)">
<stop stop-color="#FDE588"/>
<stop offset="1" stop-color="#A66A2A"/>
</radialGradient>
<linearGradient id="paint4_linear_955_30283" x1="87.0461" y1="86.8108" x2="157.172" y2="121.144" gradientUnits="userSpaceOnUse">
<stop stop-color="#0F719C"/>
<stop offset="1" stop-color="#074F6F"/>
</linearGradient>
<radialGradient id="paint5_radial_955_30283" cx="0" cy="0" r="1" gradientUnits="userSpaceOnUse" gradientTransform="translate(112.746 93.6554) rotate(90) scale(3.4869 37.3448)">
<stop stop-color="#80B6D2"/>
<stop offset="1" stop-color="#80B6D2" stop-opacity="0"/>
</radialGradient>
<radialGradient id="paint6_radial_955_30283" cx="0" cy="0" r="1" gradientUnits="userSpaceOnUse" gradientTransform="translate(112.746 89.917) rotate(90) scale(22.5568 16.7867)">
<stop offset="0.455357" stop-color="#E0B64B"/>
<stop offset="1" stop-color="#A66A2A"/>
</radialGradient>
<radialGradient id="paint7_radial_955_30283" cx="0" cy="0" r="1" gradientUnits="userSpaceOnUse" gradientTransform="translate(113.004 95.0466) rotate(90) scale(28.0533 10.2879)">
<stop stop-color="#FFE684"/>
<stop offset="1" stop-color="#B37636"/>
</radialGradient>
<linearGradient id="paint8_linear_955_30283" x1="81.3636" y1="13.1978" x2="168.289" y2="95.8503" gradientUnits="userSpaceOnUse">
<stop stop-color="#0F719C"/>
<stop offset="1" stop-color="#074F6F"/>
</linearGradient>
<radialGradient id="paint9_radial_955_30283" cx="0" cy="0" r="1" gradientUnits="userSpaceOnUse" gradientTransform="translate(112.746 12.9395) rotate(90) scale(11.623 50.751)">
<stop stop-color="#80B6D2"/>
<stop offset="1" stop-color="#80B6D2" stop-opacity="0"/>
</radialGradient>
<radialGradient id="paint10_radial_955_30283" cx="0" cy="0" r="1" gradientUnits="userSpaceOnUse" gradientTransform="translate(68.7075 46.1297) rotate(9.30994) scale(7.98297 52.6508)">
<stop stop-color="#80B6D2"/>
<stop offset="1" stop-color="#80B6D2" stop-opacity="0"/>
</radialGradient>
<linearGradient id="paint11_linear_955_30283" x1="81.3636" y1="13.1978" x2="168.289" y2="95.8503" gradientUnits="userSpaceOnUse">
<stop stop-color="#0F719C"/>
<stop offset="1" stop-color="#074F6F"/>
</linearGradient>
<radialGradient id="paint12_radial_955_30283" cx="0" cy="0" r="1" gradientUnits="userSpaceOnUse" gradientTransform="translate(112.746 12.9395) rotate(90) scale(11.623 50.751)">
<stop stop-color="#80B6D2"/>
<stop offset="1" stop-color="#80B6D2" stop-opacity="0"/>
</radialGradient>
<radialGradient id="paint13_radial_955_30283" cx="0" cy="0" r="1" gradientUnits="userSpaceOnUse" gradientTransform="translate(68.7075 46.1297) rotate(9.30994) scale(7.98297 52.6508)">
<stop stop-color="#80B6D2"/>
<stop offset="1" stop-color="#80B6D2" stop-opacity="0"/>
</radialGradient>
<linearGradient id="paint14_linear_955_30283" x1="81.3636" y1="13.1978" x2="168.289" y2="95.8503" gradientUnits="userSpaceOnUse">
<stop stop-color="#0F719C"/>
<stop offset="1" stop-color="#074F6F"/>
</linearGradient>
<radialGradient id="paint15_radial_955_30283" cx="0" cy="0" r="1" gradientUnits="userSpaceOnUse" gradientTransform="translate(112.746 12.9395) rotate(90) scale(11.623 50.751)">
<stop stop-color="#80B6D2"/>
<stop offset="1" stop-color="#80B6D2" stop-opacity="0"/>
</radialGradient>
<radialGradient id="paint16_radial_955_30283" cx="0" cy="0" r="1" gradientUnits="userSpaceOnUse" gradientTransform="translate(68.7075 46.1297) rotate(9.30994) scale(7.98297 52.6508)">
<stop stop-color="#80B6D2"/>
<stop offset="1" stop-color="#80B6D2" stop-opacity="0"/>
</radialGradient>
<linearGradient id="paint17_linear_955_30283" x1="81.3636" y1="13.1978" x2="168.289" y2="95.8503" gradientUnits="userSpaceOnUse">
<stop stop-color="#0F719C"/>
<stop offset="1" stop-color="#074F6F"/>
</linearGradient>
<radialGradient id="paint18_radial_955_30283" cx="0" cy="0" r="1" gradientUnits="userSpaceOnUse" gradientTransform="translate(112.746 12.9395) rotate(90) scale(11.623 50.751)">
<stop stop-color="#80B6D2"/>
<stop offset="1" stop-color="#80B6D2" stop-opacity="0"/>
</radialGradient>
<radialGradient id="paint19_radial_955_30283" cx="0" cy="0" r="1" gradientUnits="userSpaceOnUse" gradientTransform="translate(68.7075 46.1297) rotate(9.30994) scale(7.98297 52.6508)">
<stop stop-color="#80B6D2"/>
<stop offset="1" stop-color="#80B6D2" stop-opacity="0"/>
</radialGradient>
<linearGradient id="paint20_linear_955_30283" x1="81.3636" y1="13.1978" x2="168.289" y2="95.8503" gradientUnits="userSpaceOnUse">
<stop stop-color="#0F719C"/>
<stop offset="1" stop-color="#074F6F"/>
</linearGradient>
<radialGradient id="paint21_radial_955_30283" cx="0" cy="0" r="1" gradientUnits="userSpaceOnUse" gradientTransform="translate(112.746 12.9395) rotate(90) scale(11.623 50.751)">
<stop stop-color="#80B6D2"/>
<stop offset="1" stop-color="#80B6D2" stop-opacity="0"/>
</radialGradient>
<radialGradient id="paint22_radial_955_30283" cx="0" cy="0" r="1" gradientUnits="userSpaceOnUse" gradientTransform="translate(68.7075 46.1297) rotate(9.30994) scale(7.98297 52.6508)">
<stop stop-color="#80B6D2"/>
<stop offset="1" stop-color="#80B6D2" stop-opacity="0"/>
</radialGradient>
<linearGradient id="paint23_linear_955_30283" x1="81.3636" y1="13.1978" x2="168.289" y2="95.8503" gradientUnits="userSpaceOnUse">
<stop stop-color="#0F719C"/>
<stop offset="1" stop-color="#074F6F"/>
</linearGradient>
<radialGradient id="paint24_radial_955_30283" cx="0" cy="0" r="1" gradientUnits="userSpaceOnUse" gradientTransform="translate(112.746 12.9395) rotate(90) scale(11.623 50.751)">
<stop stop-color="#80B6D2"/>
<stop offset="1" stop-color="#80B6D2" stop-opacity="0"/>
</radialGradient>
<radialGradient id="paint25_radial_955_30283" cx="0" cy="0" r="1" gradientUnits="userSpaceOnUse" gradientTransform="translate(68.7075 46.1297) rotate(9.30994) scale(7.98297 52.6508)">
<stop stop-color="#80B6D2"/>
<stop offset="1" stop-color="#80B6D2" stop-opacity="0"/>
</radialGradient>
<linearGradient id="paint26_linear_955_30283" x1="81.3636" y1="13.1978" x2="168.289" y2="95.8503" gradientUnits="userSpaceOnUse">
<stop stop-color="#0F719C"/>
<stop offset="1" stop-color="#074F6F"/>
</linearGradient>
<radialGradient id="paint27_radial_955_30283" cx="0" cy="0" r="1" gradientUnits="userSpaceOnUse" gradientTransform="translate(112.746 12.9395) rotate(90) scale(11.623 50.751)">
<stop stop-color="#80B6D2"/>
<stop offset="1" stop-color="#80B6D2" stop-opacity="0"/>
</radialGradient>
<radialGradient id="paint28_radial_955_30283" cx="0" cy="0" r="1" gradientUnits="userSpaceOnUse" gradientTransform="translate(68.7075 46.1297) rotate(9.30994) scale(7.98297 52.6508)">
<stop stop-color="#80B6D2"/>
<stop offset="1" stop-color="#80B6D2" stop-opacity="0"/>
</radialGradient>
<linearGradient id="paint29_linear_955_30283" x1="81.3636" y1="13.1978" x2="168.289" y2="95.8503" gradientUnits="userSpaceOnUse">
<stop stop-color="#0F719C"/>
<stop offset="1" stop-color="#074F6F"/>
</linearGradient>
<radialGradient id="paint30_radial_955_30283" cx="0" cy="0" r="1" gradientUnits="userSpaceOnUse" gradientTransform="translate(112.746 12.9395) rotate(90) scale(11.623 50.751)">
<stop stop-color="#80B6D2"/>
<stop offset="1" stop-color="#80B6D2" stop-opacity="0"/>
</radialGradient>
<radialGradient id="paint31_radial_955_30283" cx="0" cy="0" r="1" gradientUnits="userSpaceOnUse" gradientTransform="translate(68.7075 46.1297) rotate(9.30994) scale(7.98297 52.6508)">
<stop stop-color="#80B6D2"/>
<stop offset="1" stop-color="#80B6D2" stop-opacity="0"/>
</radialGradient>
<linearGradient id="paint32_linear_955_30283" x1="81.3636" y1="13.1978" x2="168.289" y2="95.8503" gradientUnits="userSpaceOnUse">
<stop stop-color="#0F719C"/>
<stop offset="1" stop-color="#074F6F"/>
</linearGradient>
<radialGradient id="paint33_radial_955_30283" cx="0" cy="0" r="1" gradientUnits="userSpaceOnUse" gradientTransform="translate(112.746 12.9395) rotate(90) scale(11.623 50.751)">
<stop stop-color="#80B6D2"/>
<stop offset="1" stop-color="#80B6D2" stop-opacity="0"/>
</radialGradient>
<radialGradient id="paint34_radial_955_30283" cx="0" cy="0" r="1" gradientUnits="userSpaceOnUse" gradientTransform="translate(68.7075 46.1297) rotate(9.30994) scale(7.98297 52.6508)">
<stop stop-color="#80B6D2"/>
<stop offset="1" stop-color="#80B6D2" stop-opacity="0"/>
</radialGradient>
<linearGradient id="paint35_linear_955_30283" x1="81.3636" y1="13.1978" x2="168.289" y2="95.8503" gradientUnits="userSpaceOnUse">
<stop stop-color="#0F719C"/>
<stop offset="1" stop-color="#074F6F"/>
</linearGradient>
<radialGradient id="paint36_radial_955_30283" cx="0" cy="0" r="1" gradientUnits="userSpaceOnUse" gradientTransform="translate(112.746 12.9395) rotate(90) scale(11.623 50.751)">
<stop stop-color="#80B6D2"/>
<stop offset="1" stop-color="#80B6D2" stop-opacity="0"/>
</radialGradient>
<radialGradient id="paint37_radial_955_30283" cx="0" cy="0" r="1" gradientUnits="userSpaceOnUse" gradientTransform="translate(68.7075 46.1297) rotate(9.30994) scale(7.98297 52.6508)">
<stop stop-color="#80B6D2"/>
<stop offset="1" stop-color="#80B6D2" stop-opacity="0"/>
</radialGradient>
<linearGradient id="paint38_linear_955_30283" x1="81.3636" y1="13.1978" x2="168.289" y2="95.8503" gradientUnits="userSpaceOnUse">
<stop stop-color="#0F719C"/>
<stop offset="1" stop-color="#074F6F"/>
</linearGradient>
<radialGradient id="paint39_radial_955_30283" cx="0" cy="0" r="1" gradientUnits="userSpaceOnUse" gradientTransform="translate(112.746 12.9395) rotate(90) scale(11.623 50.751)">
<stop stop-color="#80B6D2"/>
<stop offset="1" stop-color="#80B6D2" stop-opacity="0"/>
</radialGradient>
<radialGradient id="paint40_radial_955_30283" cx="0" cy="0" r="1" gradientUnits="userSpaceOnUse" gradientTransform="translate(68.7075 46.1297) rotate(9.30994) scale(7.98297 52.6508)">
<stop stop-color="#80B6D2"/>
<stop offset="1" stop-color="#80B6D2" stop-opacity="0"/>
</radialGradient>
<linearGradient id="paint41_linear_955_30283" x1="81.3636" y1="13.1978" x2="168.289" y2="95.8503" gradientUnits="userSpaceOnUse">
<stop stop-color="#0F719C"/>
<stop offset="1" stop-color="#074F6F"/>
</linearGradient>
<radialGradient id="paint42_radial_955_30283" cx="0" cy="0" r="1" gradientUnits="userSpaceOnUse" gradientTransform="translate(112.746 12.9395) rotate(90) scale(11.623 50.751)">
<stop stop-color="#80B6D2"/>
<stop offset="1" stop-color="#80B6D2" stop-opacity="0"/>
</radialGradient>
<radialGradient id="paint43_radial_955_30283" cx="0" cy="0" r="1" gradientUnits="userSpaceOnUse" gradientTransform="translate(68.7075 46.1297) rotate(9.30994) scale(7.98297 52.6508)">
<stop stop-color="#80B6D2"/>
<stop offset="1" stop-color="#80B6D2" stop-opacity="0"/>
</radialGradient>
<radialGradient id="paint44_radial_955_30283" cx="0" cy="0" r="1" gradientUnits="userSpaceOnUse" gradientTransform="translate(140.892 55.7785) rotate(-79.9042) scale(13.9979 6.73279)">
<stop offset="0.647522" stop-color="#FDE588"/>
<stop offset="1" stop-color="#A66A2A"/>
</radialGradient>
<radialGradient id="paint45_radial_955_30283" cx="0" cy="0" r="1" gradientUnits="userSpaceOnUse" gradientTransform="translate(140.618 56.4617) rotate(90.0001) scale(12.8463 4.04499)">
<stop stop-color="#FDE588"/>
<stop offset="1" stop-color="#A66A2A"/>
</radialGradient>
<radialGradient id="paint46_radial_955_30283" cx="0" cy="0" r="1" gradientUnits="userSpaceOnUse" gradientTransform="translate(138.438 63.3063) rotate(106.928) scale(9.31454 4.09552)">
<stop stop-color="#FDE588"/>
<stop offset="1" stop-color="#FDE588" stop-opacity="0"/>
</radialGradient>
<radialGradient id="paint47_radial_955_30283" cx="0" cy="0" r="1" gradientUnits="userSpaceOnUse" gradientTransform="translate(138.259 64.6519) rotate(122.161) scale(3.46354 3.63989)">
<stop stop-color="#7D5121"/>
<stop offset="1" stop-color="#CFA456"/>
</radialGradient>
<radialGradient id="paint48_radial_955_30283" cx="0" cy="0" r="1" gradientUnits="userSpaceOnUse" gradientTransform="translate(118.002 11.1722) rotate(90) scale(26.4061 9.11448)">
<stop offset="0.455357" stop-color="#FDE588"/>
<stop offset="1" stop-color="#A66A2A"/>
</radialGradient>
<radialGradient id="paint49_radial_955_30283" cx="0" cy="0" r="1" gradientUnits="userSpaceOnUse" gradientTransform="translate(104.468 14.9638) rotate(90) scale(23.4134 9.3595)">
<stop offset="0.455357" stop-color="#FDE588"/>
<stop offset="1" stop-color="#A66A2A"/>
</radialGradient>
<radialGradient id="paint50_radial_955_30283" cx="0" cy="0" r="1" gradientUnits="userSpaceOnUse" gradientTransform="translate(84.4634 55.7785) rotate(-100.096) scale(13.9979 6.73279)">
<stop offset="0.647522" stop-color="#FDE588"/>
<stop offset="1" stop-color="#A66A2A"/>
</radialGradient>
<radialGradient id="paint51_radial_955_30283" cx="0" cy="0" r="1" gradientUnits="userSpaceOnUse" gradientTransform="translate(84.7371 56.4617) rotate(89.9999) scale(12.8463 4.04499)">
<stop stop-color="#FDE588"/>
<stop offset="1" stop-color="#A66A2A"/>
</radialGradient>
<radialGradient id="paint52_radial_955_30283" cx="0" cy="0" r="1" gradientUnits="userSpaceOnUse" gradientTransform="translate(86.9174 63.3063) rotate(73.0725) scale(9.31454 4.09552)">
<stop stop-color="#FDE588"/>
<stop offset="1" stop-color="#FDE588" stop-opacity="0"/>
</radialGradient>
<radialGradient id="paint53_radial_955_30283" cx="0" cy="0" r="1" gradientUnits="userSpaceOnUse" gradientTransform="translate(87.0968 64.6519) rotate(57.8394) scale(3.46354 3.63989)">
<stop stop-color="#7D5121"/>
<stop offset="1" stop-color="#CFA456"/>
</radialGradient>
<radialGradient id="paint54_radial_955_30283" cx="0" cy="0" r="1" gradientUnits="userSpaceOnUse" gradientTransform="translate(112.745 48.326) rotate(90) scale(43.3926 27.8952)">
<stop offset="0.455357" stop-color="#FDE588"/>
<stop offset="1" stop-color="#A66A2A"/>
</radialGradient>
<radialGradient id="paint55_radial_955_30283" cx="0" cy="0" r="1" gradientUnits="userSpaceOnUse" gradientTransform="translate(111.712 85.003) rotate(1.81833) scale(8.14021 5.48579)">
<stop stop-color="#FFEB90" stop-opacity="0.7"/>
<stop offset="1" stop-color="#FFEB90" stop-opacity="0"/>
</radialGradient>
<radialGradient id="paint56_radial_955_30283" cx="0" cy="0" r="1" gradientUnits="userSpaceOnUse" gradientTransform="translate(112.745 53.1043) rotate(90) scale(37.1939 28.2827)">
<stop offset="0.864583" stop-color="#6A5528" stop-opacity="0"/>
<stop offset="1" stop-color="#6A5528"/>
</radialGradient>
<radialGradient id="paint57_radial_955_30283" cx="0" cy="0" r="1" gradientUnits="userSpaceOnUse" gradientTransform="translate(112.745 54.654) scale(26.7329 12.1396)">
<stop stop-color="#A7763A"/>
<stop offset="1" stop-color="#A7763A" stop-opacity="0"/>
</radialGradient>
<radialGradient id="paint58_radial_955_30283" cx="0" cy="0" r="1" gradientUnits="userSpaceOnUse" gradientTransform="translate(100.993 64.3399) rotate(143.584) scale(9.78946 6.87273)">
<stop stop-color="#FFEB90"/>
<stop offset="1" stop-color="#FFEB90" stop-opacity="0"/>
</radialGradient>
<radialGradient id="paint59_radial_955_30283" cx="0" cy="0" r="1" gradientUnits="userSpaceOnUse" gradientTransform="translate(121.527 62.5974) rotate(36.4747) scale(15.0968 10.5987)">
<stop stop-color="#FFEB90"/>
<stop offset="1" stop-color="#FFEB90" stop-opacity="0"/>
</radialGradient>
<linearGradient id="paint60_linear_955_30283" x1="115.781" y1="54.5244" x2="107.322" y2="69.3761" gradientUnits="userSpaceOnUse">
<stop offset="0.251024" stop-color="#FDE588"/>
<stop offset="1" stop-color="#BA7E28"/>
</linearGradient>
<radialGradient id="paint61_radial_955_30283" cx="0" cy="0" r="1" gradientUnits="userSpaceOnUse" gradientTransform="translate(112.746 66.664) scale(3.09947)">
<stop stop-color="#FFEB90"/>
<stop offset="1" stop-color="#FFEB90" stop-opacity="0"/>
</radialGradient>
<radialGradient id="paint62_radial_955_30283" cx="0" cy="0" r="1" gradientUnits="userSpaceOnUse" gradientTransform="translate(112.1 71.0551) rotate(84.8056) scale(7.13224 15.9625)">
<stop stop-color="#FDE588"/>
<stop offset="1" stop-color="#A66A2A"/>
</radialGradient>
<radialGradient id="paint63_radial_955_30283" cx="0" cy="0" r="1" gradientUnits="userSpaceOnUse" gradientTransform="translate(99.6212 50.6984) rotate(80.4978) scale(3.81366 8.99734)">
<stop stop-color="#FFF2B1"/>
<stop offset="1" stop-color="#FFF2B1" stop-opacity="0"/>
</radialGradient>
<radialGradient id="paint64_radial_955_30283" cx="0" cy="0" r="1" gradientUnits="userSpaceOnUse" gradientTransform="translate(125.87 50.6984) rotate(99.5022) scale(3.81366 8.99734)">
<stop stop-color="#FFF2B1"/>
<stop offset="1" stop-color="#FFF2B1" stop-opacity="0"/>
</radialGradient>
<radialGradient id="paint65_radial_955_30283" cx="0" cy="0" r="1" gradientUnits="userSpaceOnUse" gradientTransform="translate(112.746 76.9963) rotate(90) scale(4.09453 7.49038)">
<stop offset="0.455357" stop-color="#FDE588"/>
<stop offset="1" stop-color="#A66A2A"/>
</radialGradient>
<radialGradient id="paint66_radial_955_30283" cx="0" cy="0" r="1" gradientUnits="userSpaceOnUse" gradientTransform="translate(100.284 53.4384) rotate(87.3162) scale(1.92678 3.91505)">
<stop stop-color="#5A665A"/>
<stop offset="1" stop-color="#040905"/>
</radialGradient>
<radialGradient id="paint67_radial_955_30283" cx="0" cy="0" r="1" gradientUnits="userSpaceOnUse" gradientTransform="translate(124.579 53.4384) rotate(87.3162) scale(1.92678 3.91505)">
<stop stop-color="#5A665A"/>
<stop offset="1" stop-color="#040905"/>
</radialGradient>
<linearGradient id="paint68_linear_955_30283" x1="126.333" y1="49.3859" x2="126.333" y2="59.6025" gradientUnits="userSpaceOnUse">
<stop stop-color="#065172"/>
<stop offset="1" stop-color="#05354A"/>
</linearGradient>
<radialGradient id="paint69_radial_955_30283" cx="0" cy="0" r="1" gradientUnits="userSpaceOnUse" gradientTransform="translate(120.388 57.5267) rotate(95.7107) scale(0.973415 6.03517)">
<stop stop-color="#6692A9"/>
<stop offset="1" stop-color="#6692A9" stop-opacity="0"/>
</radialGradient>
<linearGradient id="paint70_linear_955_30283" x1="99.1809" y1="49.3859" x2="99.1809" y2="59.6025" gradientUnits="userSpaceOnUse">
<stop stop-color="#065172"/>
<stop offset="1" stop-color="#05354A"/>
</linearGradient>
<radialGradient id="paint71_radial_955_30283" cx="0" cy="0" r="1" gradientUnits="userSpaceOnUse" gradientTransform="translate(105.126 57.5267) rotate(84.2893) scale(0.973415 6.03517)">
<stop stop-color="#6692A9"/>
<stop offset="1" stop-color="#6692A9" stop-opacity="0"/>
</radialGradient>
<linearGradient id="paint72_linear_955_30283" x1="97.3131" y1="44.3229" x2="97.3131" y2="53.7502" gradientUnits="userSpaceOnUse">
<stop stop-color="#065172"/>
<stop offset="1" stop-color="#05354A"/>
</linearGradient>
<radialGradient id="paint73_radial_955_30283" cx="0" cy="0" r="1" gradientUnits="userSpaceOnUse" gradientTransform="translate(100.413 45.9372) rotate(94.9697) scale(1.49077 12.0604)">
<stop stop-color="#6692A9"/>
<stop offset="1" stop-color="#6692A9" stop-opacity="0"/>
</radialGradient>
<linearGradient id="paint74_linear_955_30283" x1="128.183" y1="44.3229" x2="128.183" y2="53.7502" gradientUnits="userSpaceOnUse">
<stop stop-color="#065172"/>
<stop offset="1" stop-color="#05354A"/>
</linearGradient>
<radialGradient id="paint75_radial_955_30283" cx="0" cy="0" r="1" gradientUnits="userSpaceOnUse" gradientTransform="translate(125.083 45.9372) rotate(85.0303) scale(1.49077 12.0604)">
<stop stop-color="#6692A9"/>
<stop offset="1" stop-color="#6692A9" stop-opacity="0"/>
</radialGradient>
<linearGradient id="paint76_linear_955_30283" x1="178.468" y1="30.4346" x2="181.771" y2="122.076" gradientUnits="userSpaceOnUse">
<stop stop-color="#FDE588"/>
<stop offset="1" stop-color="#A66A2A"/>
</linearGradient>
<linearGradient id="paint77_linear_955_30283" x1="73.3396" y1="86.1229" x2="63.2149" y2="93.9137" gradientUnits="userSpaceOnUse">
<stop stop-color="#F3D77D"/>
<stop offset="1" stop-color="#A66A2A"/>
</linearGradient>
<linearGradient id="paint78_linear_955_30283" x1="38.245" y1="63.4347" x2="52.4509" y2="142.471" gradientUnits="userSpaceOnUse">
<stop stop-color="#F3D77D"/>
<stop offset="1" stop-color="#A66A2A"/>
</linearGradient>
</defs>
</svg>
