<svg viewBox="0 0 240 120" fill="none" xmlns="http://www.w3.org/2000/svg">
<path d="M77.2262 98.5373C102.295 105.801 108.176 110.222 111.89 110.538C149.951 123.697 201.509 75.9826 220.832 63.1664C239.402 50.8499 236.176 41.9969 220.832 37.9022C200.715 32.5336 231.974 32.5334 214.333 25.9015C196.691 19.2695 33.5877 22.1116 21.5174 25.9012C9.44713 29.6909 37.3017 35.3756 21.5174 37.9021C5.73318 40.4286 1.70951 51.7973 19.041 57.4819C28.7822 60.6769 52.1572 91.2735 77.2262 98.5373Z" fill="url(#paint0_radial_10665_38172)"/>
<path d="M77.2262 98.5373C102.295 105.801 108.176 110.222 111.89 110.538C149.951 123.697 201.509 75.9826 220.832 63.1664C239.402 50.8499 236.176 41.9969 220.832 37.9022C200.715 32.5336 231.974 32.5334 214.333 25.9015C196.691 19.2695 33.5877 22.1116 21.5174 25.9012C9.44713 29.6909 37.3017 35.3756 21.5174 37.9021C5.73318 40.4286 1.70951 51.7973 19.041 57.4819C28.7822 60.6769 52.1572 91.2735 77.2262 98.5373Z" fill="url(#paint1_radial_10665_38172)"/>
<path d="M77.2262 98.5373C102.295 105.801 108.176 110.222 111.89 110.538C149.951 123.697 201.509 75.9826 220.832 63.1664C239.402 50.8499 236.176 41.9969 220.832 37.9022C200.715 32.5336 231.974 32.5334 214.333 25.9015C196.691 19.2695 33.5877 22.1116 21.5174 25.9012C9.44713 29.6909 37.3017 35.3756 21.5174 37.9021C5.73318 40.4286 1.70951 51.7973 19.041 57.4819C28.7822 60.6769 52.1572 91.2735 77.2262 98.5373Z" fill="url(#paint2_radial_10665_38172)"/>
<path d="M77.2262 98.5373C102.295 105.801 108.176 110.222 111.89 110.538C149.951 123.697 201.509 75.9826 220.832 63.1664C239.402 50.8499 236.176 41.9969 220.832 37.9022C200.715 32.5336 231.974 32.5334 214.333 25.9015C196.691 19.2695 33.5877 22.1116 21.5174 25.9012C9.44713 29.6909 37.3017 35.3756 21.5174 37.9021C5.73318 40.4286 1.70951 51.7973 19.041 57.4819C28.7822 60.6769 52.1572 91.2735 77.2262 98.5373Z" fill="url(#paint3_radial_10665_38172)"/>
<path d="M77.2262 98.5373C102.295 105.801 108.176 110.222 111.89 110.538C149.951 123.697 201.509 75.9826 220.832 63.1664C239.402 50.8499 236.176 41.9969 220.832 37.9022C200.715 32.5336 231.974 32.5334 214.333 25.9015C196.691 19.2695 33.5877 22.1116 21.5174 25.9012C9.44713 29.6909 37.3017 35.3756 21.5174 37.9021C5.73318 40.4286 1.70951 51.7973 19.041 57.4819C28.7822 60.6769 52.1572 91.2735 77.2262 98.5373Z" fill="url(#paint4_radial_10665_38172)"/>
<path d="M77.2262 98.5373C102.295 105.801 108.176 110.222 111.89 110.538C149.951 123.697 201.509 75.9826 220.832 63.1664C239.402 50.8499 236.176 41.9969 220.832 37.9022C200.715 32.5336 231.974 32.5334 214.333 25.9015C196.691 19.2695 33.5877 22.1116 21.5174 25.9012C9.44713 29.6909 37.3017 35.3756 21.5174 37.9021C5.73318 40.4286 1.70951 51.7973 19.041 57.4819C28.7822 60.6769 52.1572 91.2735 77.2262 98.5373Z" fill="url(#paint5_radial_10665_38172)"/>
<path d="M223.93 31.5074C229.11 30.6712 245.808 50.5082 229.611 61.1056C225.702 59.5025 231.458 55.0703 199.305 47.7053C167.153 40.3403 119.101 39.8604 102.436 41.0431C104.626 37.5426 116.727 29.8619 121.474 28.4649C127.407 26.7185 135.288 31.8726 142.207 31.9882C149.127 32.1037 154.716 27.561 159.631 27.8737C164.545 28.1865 171.89 33.374 177.535 34.1603C183.18 34.9466 188.27 30.912 192.666 32.8308C197.062 34.7496 201.097 28.8193 207.668 33.0813C214.238 37.3432 218.75 32.3437 223.93 31.5074Z" fill="url(#paint6_linear_10665_38172)"/>
<path d="M223.93 31.5074C229.11 30.6712 245.808 50.5082 229.611 61.1056C225.702 59.5025 231.458 55.0703 199.305 47.7053C167.153 40.3403 119.101 39.8604 102.436 41.0431C104.626 37.5426 116.727 29.8619 121.474 28.4649C127.407 26.7185 135.288 31.8726 142.207 31.9882C149.127 32.1037 154.716 27.561 159.631 27.8737C164.545 28.1865 171.89 33.374 177.535 34.1603C183.18 34.9466 188.27 30.912 192.666 32.8308C197.062 34.7496 201.097 28.8193 207.668 33.0813C214.238 37.3432 218.75 32.3437 223.93 31.5074Z" fill="url(#paint7_radial_10665_38172)"/>
<path d="M223.93 31.5074C229.11 30.6712 245.808 50.5082 229.611 61.1056C225.702 59.5025 231.458 55.0703 199.305 47.7053C167.153 40.3403 119.101 39.8604 102.436 41.0431C104.626 37.5426 116.727 29.8619 121.474 28.4649C127.407 26.7185 135.288 31.8726 142.207 31.9882C149.127 32.1037 154.716 27.561 159.631 27.8737C164.545 28.1865 171.89 33.374 177.535 34.1603C183.18 34.9466 188.27 30.912 192.666 32.8308C197.062 34.7496 201.097 28.8193 207.668 33.0813C214.238 37.3432 218.75 32.3437 223.93 31.5074Z" fill="url(#paint8_linear_10665_38172)"/>
<path d="M96.7788 71.971C96.3461 74.5672 90.7211 78.0287 86.5384 77.1633C84.8077 72.7883 82.3846 63.6633 86.5384 62.1633C90.6923 60.6633 98.6538 64.3268 102.115 66.346C100.481 67.3556 97.125 69.8941 96.7788 71.971Z" fill="url(#paint9_linear_10665_38172)"/>
<path d="M96.7788 71.971C96.3461 74.5672 90.7211 78.0287 86.5384 77.1633C84.8077 72.7883 82.3846 63.6633 86.5384 62.1633C90.6923 60.6633 98.6538 64.3268 102.115 66.346C100.481 67.3556 97.125 69.8941 96.7788 71.971Z" fill="url(#paint10_linear_10665_38172)"/>
<path d="M134.135 75.2885C131.827 77.1635 127.644 76.5865 121.731 77.8846C122.885 74.0769 132.019 68.3173 136.442 65.9135C136.442 68.4135 135.981 73.7885 134.135 75.2885Z" fill="url(#paint11_linear_10665_38172)"/>
<path d="M134.135 75.2885C131.827 77.1635 127.644 76.5865 121.731 77.8846C122.885 74.0769 132.019 68.3173 136.442 65.9135C136.442 68.4135 135.981 73.7885 134.135 75.2885Z" fill="url(#paint12_linear_10665_38172)"/>
<path d="M48.3171 42.6926C38.0767 44.5676 7.64405 51.7791 13.7017 64.6156L90.4327 82.7884C87.5962 77.1153 83.7981 65.5385 91.2981 64.6156C98.7981 63.6928 103.077 69.2309 104.279 72.1153C102.26 73.4134 104.712 78.3173 103.413 80.3365C102.115 82.3557 105.288 88.2692 107.596 89.1346C109.904 90 117.981 87.4038 119.135 86.3942C120.288 85.3846 121.01 80.3365 124.038 79.6153C127.067 78.8942 129.375 74.2788 131.25 70.8173C133.125 67.3557 141.346 65.9134 140.481 68.3653C139.788 70.3269 137.885 77.1634 137.596 80.3365C137.308 83.5096 142.212 83.6538 144.952 86.3942C147.692 89.1346 144.231 91.875 144.952 93.173C145.529 94.2115 149.904 93.6057 152.019 93.173C175.144 89.9519 222.865 79.9615 228.75 65.7692C236.106 48.0288 214.615 42.6926 197.596 42.6926C180.577 42.6926 165 39.5194 149.135 36.6348C133.269 33.7502 94.0385 41.6829 87.5481 40.2406C81.0577 38.7983 58.5575 40.8176 48.3171 42.6926Z" fill="url(#paint13_linear_10665_38172)"/>
<path d="M48.3171 42.6926C38.0767 44.5676 7.64405 51.7791 13.7017 64.6156L90.4327 82.7884C87.5962 77.1153 83.7981 65.5385 91.2981 64.6156C98.7981 63.6928 103.077 69.2309 104.279 72.1153C102.26 73.4134 104.712 78.3173 103.413 80.3365C102.115 82.3557 105.288 88.2692 107.596 89.1346C109.904 90 117.981 87.4038 119.135 86.3942C120.288 85.3846 121.01 80.3365 124.038 79.6153C127.067 78.8942 129.375 74.2788 131.25 70.8173C133.125 67.3557 141.346 65.9134 140.481 68.3653C139.788 70.3269 137.885 77.1634 137.596 80.3365C137.308 83.5096 142.212 83.6538 144.952 86.3942C147.692 89.1346 144.231 91.875 144.952 93.173C145.529 94.2115 149.904 93.6057 152.019 93.173C175.144 89.9519 222.865 79.9615 228.75 65.7692C236.106 48.0288 214.615 42.6926 197.596 42.6926C180.577 42.6926 165 39.5194 149.135 36.6348C133.269 33.7502 94.0385 41.6829 87.5481 40.2406C81.0577 38.7983 58.5575 40.8176 48.3171 42.6926Z" fill="url(#paint14_radial_10665_38172)"/>
<path d="M48.3171 42.6926C38.0767 44.5676 7.64405 51.7791 13.7017 64.6156L90.4327 82.7884C87.5962 77.1153 83.7981 65.5385 91.2981 64.6156C98.7981 63.6928 103.077 69.2309 104.279 72.1153C102.26 73.4134 104.712 78.3173 103.413 80.3365C102.115 82.3557 105.288 88.2692 107.596 89.1346C109.904 90 117.981 87.4038 119.135 86.3942C120.288 85.3846 121.01 80.3365 124.038 79.6153C127.067 78.8942 129.375 74.2788 131.25 70.8173C133.125 67.3557 141.346 65.9134 140.481 68.3653C139.788 70.3269 137.885 77.1634 137.596 80.3365C137.308 83.5096 142.212 83.6538 144.952 86.3942C147.692 89.1346 144.231 91.875 144.952 93.173C145.529 94.2115 149.904 93.6057 152.019 93.173C175.144 89.9519 222.865 79.9615 228.75 65.7692C236.106 48.0288 214.615 42.6926 197.596 42.6926C180.577 42.6926 165 39.5194 149.135 36.6348C133.269 33.7502 94.0385 41.6829 87.5481 40.2406C81.0577 38.7983 58.5575 40.8176 48.3171 42.6926Z" fill="url(#paint15_radial_10665_38172)"/>
<path d="M48.3171 42.6926C38.0767 44.5676 7.64405 51.7791 13.7017 64.6156L90.4327 82.7884C87.5962 77.1153 83.7981 65.5385 91.2981 64.6156C98.7981 63.6928 103.077 69.2309 104.279 72.1153C102.26 73.4134 104.712 78.3173 103.413 80.3365C102.115 82.3557 105.288 88.2692 107.596 89.1346C109.904 90 117.981 87.4038 119.135 86.3942C120.288 85.3846 121.01 80.3365 124.038 79.6153C127.067 78.8942 129.375 74.2788 131.25 70.8173C133.125 67.3557 141.346 65.9134 140.481 68.3653C139.788 70.3269 137.885 77.1634 137.596 80.3365C137.308 83.5096 142.212 83.6538 144.952 86.3942C147.692 89.1346 144.231 91.875 144.952 93.173C145.529 94.2115 149.904 93.6057 152.019 93.173C175.144 89.9519 222.865 79.9615 228.75 65.7692C236.106 48.0288 214.615 42.6926 197.596 42.6926C180.577 42.6926 165 39.5194 149.135 36.6348C133.269 33.7502 94.0385 41.6829 87.5481 40.2406C81.0577 38.7983 58.5575 40.8176 48.3171 42.6926Z" fill="url(#paint16_radial_10665_38172)"/>
<path d="M106.993 44.2824C109.651 41.957 123.606 40.2943 126.762 41.6231C130.415 43.4507 130.911 50.7592 129.416 56.24C128.652 59.0424 130.474 64.4825 132.594 69.3154C132.026 69.7605 131.553 70.2584 131.251 70.8163C129.376 74.2773 127.067 78.8921 124.039 79.6144C121.012 80.3353 120.289 85.3811 119.135 86.3932C117.982 87.4027 109.906 89.9981 107.597 89.1336C105.289 88.2682 102.116 82.3548 103.414 80.3355C104.711 78.3155 102.261 73.4122 104.28 72.1144C103.95 71.3234 103.385 70.3356 102.59 69.3334C107.121 67.9637 103.994 62.5247 102.508 57.7364C101.014 52.9198 104.336 46.6079 106.993 44.2824Z" fill="url(#paint17_radial_10665_38172)"/>
<path d="M106.993 44.2824C109.651 41.957 123.606 40.2943 126.762 41.6231C130.415 43.4507 130.911 50.7592 129.416 56.24C128.652 59.0424 130.474 64.4825 132.594 69.3154C132.026 69.7605 131.553 70.2584 131.251 70.8163C129.376 74.2773 127.067 78.8921 124.039 79.6144C121.012 80.3353 120.289 85.3811 119.135 86.3932C117.982 87.4027 109.906 89.9981 107.597 89.1336C105.289 88.2682 102.116 82.3548 103.414 80.3355C104.711 78.3155 102.261 73.4122 104.28 72.1144C103.95 71.3234 103.385 70.3356 102.59 69.3334C107.121 67.9637 103.994 62.5247 102.508 57.7364C101.014 52.9198 104.336 46.6079 106.993 44.2824Z" fill="url(#paint18_radial_10665_38172)"/>
<path d="M106.993 44.2824C109.651 41.957 123.606 40.2943 126.762 41.6231C130.415 43.4507 130.911 50.7592 129.416 56.24C128.652 59.0424 130.474 64.4825 132.594 69.3154C132.026 69.7605 131.553 70.2584 131.251 70.8163C129.376 74.2773 127.067 78.8921 124.039 79.6144C121.012 80.3353 120.289 85.3811 119.135 86.3932C117.982 87.4027 109.906 89.9981 107.597 89.1336C105.289 88.2682 102.116 82.3548 103.414 80.3355C104.711 78.3155 102.261 73.4122 104.28 72.1144C103.95 71.3234 103.385 70.3356 102.59 69.3334C107.121 67.9637 103.994 62.5247 102.508 57.7364C101.014 52.9198 104.336 46.6079 106.993 44.2824Z" fill="url(#paint19_radial_10665_38172)"/>
<path d="M87.548 40.2406C94.0388 41.6828 133.269 33.7502 149.135 36.6348C165 39.5194 180.577 42.6925 197.596 42.6925C214.615 42.6925 236.106 48.029 228.75 65.7693C228.386 66.6462 227.858 67.5032 227.19 68.3474C216.432 74.6316 196.674 77.4289 190.385 74.1346C181.298 69.375 191.827 62.452 180.721 59.2789C169.616 56.106 182.883 52.212 178.702 49.7598C174.519 47.3076 161.54 51.9225 163.99 46.8752C166.442 41.8269 153.894 40.0965 144.519 39.3752C135.145 38.654 120.401 44.8412 111.891 43.1117C103.382 41.381 89.4242 48.749 88.2692 45.2886C87.1153 41.8271 66.923 42.6927 69.5192 46.8752C72.1143 51.0571 64.358 51.3314 57.9807 49.7598C46.2784 46.8758 38.8661 53.4259 34.8272 52.7075C30.9624 52.0173 27.8508 55.6721 18.4885 53.0816C26.6788 47.3437 41.7053 43.9031 48.3173 42.6925C58.5577 40.8175 81.0577 38.7983 87.548 40.2406Z" fill="url(#paint20_linear_10665_38172)"/>
<path d="M87.548 40.2406C94.0388 41.6828 133.269 33.7502 149.135 36.6348C165 39.5194 180.577 42.6925 197.596 42.6925C214.615 42.6925 236.106 48.029 228.75 65.7693C228.386 66.6462 227.858 67.5032 227.19 68.3474C216.432 74.6316 196.674 77.4289 190.385 74.1346C181.298 69.375 191.827 62.452 180.721 59.2789C169.616 56.106 182.883 52.212 178.702 49.7598C174.519 47.3076 161.54 51.9225 163.99 46.8752C166.442 41.8269 153.894 40.0965 144.519 39.3752C135.145 38.654 120.401 44.8412 111.891 43.1117C103.382 41.381 89.4242 48.749 88.2692 45.2886C87.1153 41.8271 66.923 42.6927 69.5192 46.8752C72.1143 51.0571 64.358 51.3314 57.9807 49.7598C46.2784 46.8758 38.8661 53.4259 34.8272 52.7075C30.9624 52.0173 27.8508 55.6721 18.4885 53.0816C26.6788 47.3437 41.7053 43.9031 48.3173 42.6925C58.5577 40.8175 81.0577 38.7983 87.548 40.2406Z" fill="url(#paint21_radial_10665_38172)"/>
<path d="M57.2583 46.8755C60.0272 45.4911 65.8155 46.2986 68.3641 46.8755C72.0582 48.5874 80.6742 61.7907 87.0467 72.3683C87.4953 75.9807 89.07 80.0657 90.4316 82.7889L56.5056 74.7526C55.6217 62.7766 55.0879 47.9653 57.2583 46.8755Z" fill="url(#paint22_radial_10665_38172)"/>
<path d="M197.831 42.6968C214.812 42.7456 236.072 48.1101 228.75 65.7692C224.636 75.6908 200.074 83.5482 177.765 88.4855C176.31 78.8713 174.019 62.7185 174.231 59.8557C174.486 56.4142 179.699 46.7824 197.831 42.6968Z" fill="url(#paint23_radial_10665_38172)"/>
<path d="M197.831 42.6968C214.812 42.7456 236.072 48.1101 228.75 65.7692C224.636 75.6908 200.074 83.5482 177.765 88.4855C176.31 78.8713 174.019 62.7185 174.231 59.8557C174.486 56.4142 179.699 46.7824 197.831 42.6968Z" fill="url(#paint24_radial_10665_38172)"/>
<path d="M161.653 38.9062C166.228 39.7143 170.817 40.472 175.463 41.0922C178.072 43.1736 180.409 45.9505 181.723 49.5342C176.309 53.5132 174.385 57.7955 174.232 59.8557C174.081 61.8991 175.206 70.7132 176.391 79.0879C174.53 83.109 172.451 86.8954 170.406 90.0224C163.544 91.3842 157.17 92.455 152.016 93.1729C149.9 93.6055 145.526 94.2109 144.949 93.1729C144.23 91.8744 147.688 89.1337 144.949 86.3941C142.208 83.6548 137.305 83.5088 137.593 80.3364C137.882 77.1637 139.785 70.3277 140.478 68.3653C140.588 68.0516 140.551 67.8027 140.397 67.6126C145.302 58.9677 154.552 45.2144 161.653 38.9062Z" fill="url(#paint25_radial_10665_38172)"/>
<path d="M161.653 38.9062C166.228 39.7143 170.817 40.472 175.463 41.0922C178.072 43.1736 180.409 45.9505 181.723 49.5342C176.309 53.5132 174.385 57.7955 174.232 59.8557C174.081 61.8991 175.206 70.7132 176.391 79.0879C174.53 83.109 172.451 86.8954 170.406 90.0224C163.544 91.3842 157.17 92.455 152.016 93.1729C149.9 93.6055 145.526 94.2109 144.949 93.1729C144.23 91.8744 147.688 89.1337 144.949 86.3941C142.208 83.6548 137.305 83.5088 137.593 80.3364C137.882 77.1637 139.785 70.3277 140.478 68.3653C140.588 68.0516 140.551 67.8027 140.397 67.6126C145.302 58.9677 154.552 45.2144 161.653 38.9062Z" fill="url(#paint26_radial_10665_38172)"/>
<path d="M161.653 38.9062C166.228 39.7143 170.817 40.472 175.463 41.0922C178.072 43.1736 180.409 45.9505 181.723 49.5342C176.309 53.5132 174.385 57.7955 174.232 59.8557C174.081 61.8991 175.206 70.7132 176.391 79.0879C174.53 83.109 172.451 86.8954 170.406 90.0224C163.544 91.3842 157.17 92.455 152.016 93.1729C149.9 93.6055 145.526 94.2109 144.949 93.1729C144.23 91.8744 147.688 89.1337 144.949 86.3941C142.208 83.6548 137.305 83.5088 137.593 80.3364C137.882 77.1637 139.785 70.3277 140.478 68.3653C140.588 68.0516 140.551 67.8027 140.397 67.6126C145.302 58.9677 154.552 45.2144 161.653 38.9062Z" fill="url(#paint27_radial_10665_38172)"/>
<path d="M16.565 61.1548C0.988357 64.8599 12.1146 94.3281 25.3838 105.29C38.6531 116.251 65.1916 119.713 65.1916 119.713H179.422C179.422 119.713 205.673 116.828 220.384 103.703C235.096 90.5781 234.8 64.9614 228.569 61.1538C220.781 56.3942 194.999 70.5301 189.519 73.7032C184.038 76.8762 170.769 77.5974 165.144 78.607C159.519 79.6166 145.672 102.117 141.778 103.703C123.282 111.238 106.272 109.422 97.3551 100.386C88.4386 91.3491 96.0649 86.14 90.3256 78.607C84.5862 71.074 32.1417 57.4497 16.565 61.1548Z" fill="url(#paint28_linear_10665_38172)"/>
<path d="M16.565 61.1548C0.988357 64.8599 12.1146 94.3281 25.3838 105.29C38.6531 116.251 65.1916 119.713 65.1916 119.713H179.422C179.422 119.713 205.673 116.828 220.384 103.703C235.096 90.5781 234.8 64.9614 228.569 61.1538C220.781 56.3942 194.999 70.5301 189.519 73.7032C184.038 76.8762 170.769 77.5974 165.144 78.607C159.519 79.6166 145.672 102.117 141.778 103.703C123.282 111.238 106.272 109.422 97.3551 100.386C88.4386 91.3491 96.0649 86.14 90.3256 78.607C84.5862 71.074 32.1417 57.4497 16.565 61.1548Z" fill="url(#paint29_radial_10665_38172)"/>
<path d="M16.565 61.1548C0.988357 64.8599 12.1146 94.3281 25.3838 105.29C38.6531 116.251 65.1916 119.713 65.1916 119.713H179.422C179.422 119.713 205.673 116.828 220.384 103.703C235.096 90.5781 234.8 64.9614 228.569 61.1538C220.781 56.3942 194.999 70.5301 189.519 73.7032C184.038 76.8762 170.769 77.5974 165.144 78.607C159.519 79.6166 145.672 102.117 141.778 103.703C123.282 111.238 106.272 109.422 97.3551 100.386C88.4386 91.3491 96.0649 86.14 90.3256 78.607C84.5862 71.074 32.1417 57.4497 16.565 61.1548Z" fill="url(#paint30_radial_10665_38172)"/>
<path d="M16.565 61.1548C0.988357 64.8599 12.1146 94.3281 25.3838 105.29C38.6531 116.251 65.1916 119.713 65.1916 119.713H179.422C179.422 119.713 205.673 116.828 220.384 103.703C235.096 90.5781 234.8 64.9614 228.569 61.1538C220.781 56.3942 194.999 70.5301 189.519 73.7032C184.038 76.8762 170.769 77.5974 165.144 78.607C159.519 79.6166 145.672 102.117 141.778 103.703C123.282 111.238 106.272 109.422 97.3551 100.386C88.4386 91.3491 96.0649 86.14 90.3256 78.607C84.5862 71.074 32.1417 57.4497 16.565 61.1548Z" fill="url(#paint31_radial_10665_38172)"/>
<defs>
<radialGradient id="paint0_radial_10665_38172" cx="0" cy="0" r="1" gradientTransform="matrix(128.042 0.670989 -0.32435 64.4445 105.788 58.0742)" gradientUnits="userSpaceOnUse">
<stop stop-color="#9FF9DB"/>
<stop offset="0.955507" stop-color="#0078D4"/>
</radialGradient>
<radialGradient id="paint1_radial_10665_38172" cx="0" cy="0" r="1" gradientTransform="matrix(209.714 10.8475 -5.69283 114.594 103.372 61.5257)" gradientUnits="userSpaceOnUse">
<stop offset="0.350126" stop-color="#25A7B5" stop-opacity="0"/>
<stop offset="0.787142" stop-color="#0C546E" stop-opacity="0.713043"/>
<stop offset="1" stop-color="#023352"/>
</radialGradient>
<radialGradient id="paint2_radial_10665_38172" cx="0" cy="0" r="1" gradientTransform="matrix(62.3077 11.3648 -11.7008 63.6099 101.539 92.6163)" gradientUnits="userSpaceOnUse">
<stop offset="0.171445" stop-color="#DAECFF"/>
<stop offset="1" stop-color="#DAECFF" stop-opacity="0"/>
</radialGradient>
<radialGradient id="paint3_radial_10665_38172" cx="0" cy="0" r="1" gradientTransform="matrix(118.387 7.88907 -3.01807 47.1566 133.332 36.8723)" gradientUnits="userSpaceOnUse">
<stop offset="0.00450072" stop-color="#DAECFF"/>
<stop offset="1" stop-color="#DAECFF" stop-opacity="0"/>
</radialGradient>
<radialGradient id="paint4_radial_10665_38172" cx="0" cy="0" r="1" gradientTransform="matrix(42.2599 -21.6063 15.5441 29.4946 126.346 78.6944)" gradientUnits="userSpaceOnUse">
<stop offset="0.17773" stop-color="#023352"/>
<stop offset="0.908654" stop-color="#25A7B5" stop-opacity="0"/>
</radialGradient>
<radialGradient id="paint5_radial_10665_38172" cx="0" cy="0" r="1" gradientUnits="userSpaceOnUse" gradientTransform="translate(104.423 75.2885) rotate(-1.13218) scale(291.98 92.2703)">
<stop offset="0.531803" stop-color="#25A7B5" stop-opacity="0"/>
<stop offset="0.659497" stop-color="#0C546E" stop-opacity="0.713043"/>
<stop offset="0.71667" stop-color="#023352"/>
</radialGradient>
<linearGradient id="paint6_linear_10665_38172" x1="192.794" y1="-2.03212" x2="147.157" y2="69.4848" gradientUnits="userSpaceOnUse">
<stop stop-color="#88E06C"/>
<stop offset="1" stop-color="#1E794A"/>
</linearGradient>
<radialGradient id="paint7_radial_10665_38172" cx="0" cy="0" r="1" gradientUnits="userSpaceOnUse" gradientTransform="translate(199.263 50.5366) rotate(179.351) scale(123.574 36.9294)">
<stop offset="0.307116" stop-color="#093C41"/>
<stop offset="1" stop-color="#2C764E" stop-opacity="0"/>
</radialGradient>
<linearGradient id="paint8_linear_10665_38172" x1="223.558" y1="29.7115" x2="223.123" y2="54.0678" gradientUnits="userSpaceOnUse">
<stop stop-color="#667291"/>
<stop offset="1" stop-color="#02170A"/>
</linearGradient>
<linearGradient id="paint9_linear_10665_38172" x1="81.3939" y1="64.5263" x2="102.104" y2="63.1337" gradientUnits="userSpaceOnUse">
<stop stop-color="#3E3933"/>
<stop offset="1" stop-color="#A49787"/>
</linearGradient>
<linearGradient id="paint10_linear_10665_38172" x1="93.1801" y1="61.8119" x2="120.577" y2="78.75" gradientUnits="userSpaceOnUse">
<stop stop-color="#3E3933"/>
<stop offset="1" stop-color="#A49787" stop-opacity="0"/>
</linearGradient>
<linearGradient id="paint11_linear_10665_38172" x1="119.384" y1="68.0116" x2="136.423" y2="66.7914" gradientUnits="userSpaceOnUse">
<stop stop-color="#3E3933"/>
<stop offset="1" stop-color="#A49787"/>
</linearGradient>
<linearGradient id="paint12_linear_10665_38172" x1="130.529" y1="74.8558" x2="154.615" y2="52.0673" gradientUnits="userSpaceOnUse">
<stop stop-color="#312C25"/>
<stop offset="1" stop-color="#A49787" stop-opacity="0"/>
</linearGradient>
<linearGradient id="paint13_linear_10665_38172" x1="-21.7597" y1="46.1194" x2="219.633" y2="-6.81667" gradientUnits="userSpaceOnUse">
<stop stop-color="#3E3933"/>
<stop offset="1" stop-color="#A49787"/>
</linearGradient>
<radialGradient id="paint14_radial_10665_38172" cx="0" cy="0" r="1" gradientUnits="userSpaceOnUse" gradientTransform="translate(110.481 93.7464) scale(142.5 62.768)">
<stop offset="0.379775" stop-color="#C8B298" stop-opacity="0"/>
<stop offset="1" stop-color="#F1D8A0" stop-opacity="0.8"/>
</radialGradient>
<radialGradient id="paint15_radial_10665_38172" cx="0" cy="0" r="1" gradientUnits="userSpaceOnUse" gradientTransform="translate(137.887 64.8722) rotate(-68.2738) scale(26.7548 9.62136)">
<stop stop-color="#4E4539"/>
<stop offset="0.845107" stop-color="#4E4539" stop-opacity="0"/>
</radialGradient>
<radialGradient id="paint16_radial_10665_38172" cx="0" cy="0" r="1" gradientUnits="userSpaceOnUse" gradientTransform="translate(94.2484 66.6345) rotate(-95.4486) scale(26.514 14.6548)">
<stop stop-color="#4E4539"/>
<stop offset="0.845107" stop-color="#4E4539" stop-opacity="0"/>
</radialGradient>
<radialGradient id="paint17_radial_10665_38172" cx="0" cy="0" r="1" gradientTransform="matrix(25.9937 -43.0196 16.3246 9.84365 100.13 64.7764)" gradientUnits="userSpaceOnUse">
<stop stop-color="#F1D8A0"/>
<stop offset="1" stop-color="#C8B298" stop-opacity="0"/>
</radialGradient>
<radialGradient id="paint18_radial_10665_38172" cx="0" cy="0" r="1" gradientTransform="matrix(-0.618898 -30.3304 13.1922 -0.269268 122.719 84.2745)" gradientUnits="userSpaceOnUse">
<stop stop-color="#4E4539"/>
<stop offset="0.845107" stop-color="#4E4539" stop-opacity="0"/>
</radialGradient>
<radialGradient id="paint19_radial_10665_38172" cx="0" cy="0" r="1" gradientTransform="matrix(65.7593 -19.6449 4.59356 15.381 109.759 89.3071)" gradientUnits="userSpaceOnUse">
<stop offset="0.264343" stop-color="#26231F"/>
<stop offset="0.935965" stop-color="#4E4539" stop-opacity="0"/>
</radialGradient>
<linearGradient id="paint20_linear_10665_38172" x1="94.1912" y1="7.46317" x2="99.0233" y2="55.7626" gradientUnits="userSpaceOnUse">
<stop stop-color="#B9CA7D"/>
<stop offset="0.485577" stop-color="#329E25"/>
<stop offset="1" stop-color="#1C7E4E"/>
</linearGradient>
<radialGradient id="paint21_radial_10665_38172" cx="0" cy="0" r="1" gradientTransform="matrix(71.9987 -5.31534 0.83828 11.3515 113.52 33.5567)" gradientUnits="userSpaceOnUse">
<stop stop-color="#FFE570"/>
<stop offset="1" stop-color="#A4D757" stop-opacity="0"/>
</radialGradient>
<radialGradient id="paint22_radial_10665_38172" cx="0" cy="0" r="1" gradientTransform="matrix(-29.1324 -37.2114 16.2285 -12.7069 91.7293 73.8467)" gradientUnits="userSpaceOnUse">
<stop stop-color="#F1D8A0"/>
<stop offset="1" stop-color="#C8B298" stop-opacity="0"/>
</radialGradient>
<radialGradient id="paint23_radial_10665_38172" cx="0" cy="0" r="1" gradientUnits="userSpaceOnUse" gradientTransform="translate(174.217 76.8479) rotate(-93.0856) scale(42.4624 13.8536)">
<stop stop-color="#F1D8A0"/>
<stop offset="1" stop-color="#C8B298" stop-opacity="0"/>
</radialGradient>
<radialGradient id="paint24_radial_10665_38172" cx="0" cy="0" r="1" gradientUnits="userSpaceOnUse" gradientTransform="translate(185.859 40.637) rotate(-4.76364) scale(29.8145 21.1572)">
<stop stop-color="#FFE570"/>
<stop offset="1" stop-color="#A4D757" stop-opacity="0"/>
</radialGradient>
<radialGradient id="paint25_radial_10665_38172" cx="0" cy="0" r="1" gradientUnits="userSpaceOnUse" gradientTransform="translate(141.289 60.4447) rotate(-53.6274) scale(64.1917 22.4228)">
<stop stop-color="#F1D8A0"/>
<stop offset="1" stop-color="#C8B298" stop-opacity="0"/>
</radialGradient>
<radialGradient id="paint26_radial_10665_38172" cx="0" cy="0" r="1" gradientUnits="userSpaceOnUse" gradientTransform="translate(169.143 90.7752) rotate(-78.2039) scale(52.988 37.1402)">
<stop stop-color="#4E4539"/>
<stop offset="0.845107" stop-color="#4E4539" stop-opacity="0"/>
</radialGradient>
<radialGradient id="paint27_radial_10665_38172" cx="0" cy="0" r="1" gradientUnits="userSpaceOnUse" gradientTransform="translate(143.65 90.5769) rotate(-5.01985) scale(85.7134 18.195)">
<stop offset="0.186687" stop-color="#26231F"/>
<stop offset="0.935965" stop-color="#4E4539" stop-opacity="0"/>
</radialGradient>
<linearGradient id="paint28_linear_10665_38172" x1="94.3696" y1="48.2977" x2="102.406" y2="124.885" gradientUnits="userSpaceOnUse">
<stop stop-color="#B9CA7D"/>
<stop offset="1" stop-color="#236343"/>
</linearGradient>
<radialGradient id="paint29_radial_10665_38172" cx="0" cy="0" r="1" gradientUnits="userSpaceOnUse" gradientTransform="translate(131.882 73.1813) rotate(-4.30447) scale(90.1318 33.734)">
<stop stop-color="#FFE570"/>
<stop offset="1" stop-color="#A4D757" stop-opacity="0"/>
</radialGradient>
<radialGradient id="paint30_radial_10665_38172" cx="0" cy="0" r="1" gradientUnits="userSpaceOnUse" gradientTransform="translate(62.3077 53.077) rotate(22.9321) scale(65.1489 34.1276)">
<stop offset="0.189774" stop-color="#FFE570"/>
<stop offset="1" stop-color="#A4D757" stop-opacity="0"/>
</radialGradient>
<radialGradient id="paint31_radial_10665_38172" cx="0" cy="0" r="1" gradientUnits="userSpaceOnUse" gradientTransform="translate(177.692 64.6154) rotate(165.964) scale(57.0891 33.7917)">
<stop offset="0.13603" stop-color="#FFE570"/>
<stop offset="1" stop-color="#A4D757" stop-opacity="0"/>
</radialGradient>
</defs>
</svg>
