<svg viewBox="0 0 240 120" fill="none" xmlns="http://www.w3.org/2000/svg">
<path d="M52.2126 102.292C13.2703 92.4273 70.3847 87.6924 127.5 87.6924C246.924 92.0327 232.212 112.551 218.077 116.891C203.943 121.231 54.5197 120.837 27.1167 116.891C5.19422 113.734 33.9439 104.002 52.2126 102.292Z" fill="url(#paint0_linear_8077_27595)"/>
<ellipse cx="140.41" cy="110.607" rx="49.1095" ry="5.75088" fill="url(#paint1_radial_8077_27595)"/>
<path d="M139.11 108.129C139.11 110.312 131.749 112.082 122.668 112.082C113.587 112.082 106.226 110.312 106.226 108.129" stroke="url(#paint2_linear_8077_27595)" stroke-width="1.84615" stroke-linecap="round"/>
<path d="M145.216 110.623C145.216 113.79 134.163 116.357 120.528 116.357C106.894 116.357 95.8413 113.79 95.8413 110.623" stroke="url(#paint3_linear_8077_27595)" stroke-width="1.84615" stroke-linecap="round"/>
<path d="M153.876 95.98C150.329 99.1436 150.502 103.889 143.929 105.471C149.638 107.448 155.173 107.448 160.017 102.406C166.999 95.1394 157.422 92.8165 153.876 95.98Z" fill="url(#paint4_linear_8077_27595)"/>
<path d="M170.129 98.0661C166.582 100.787 166.755 104.869 160.182 106.229C165.89 107.93 170.769 108.869 175.15 104.11C180.415 98.3909 173.675 95.345 170.129 98.0661Z" fill="url(#paint5_linear_8077_27595)"/>
<path d="M160.106 97.1226C158.653 102.37 157.079 105.032 152.495 106.19C156.387 107.54 157.928 107.402 163.551 105.183C169.173 102.965 173.735 97.2464 170.708 92.7126C168.617 89.5817 161.923 90.5635 160.106 97.1226Z" fill="url(#paint6_linear_8077_27595)"/>
<path d="M88.3406 54.306C88.7733 54.1936 98.0759 57.6767 105.431 61.1597C116.832 65.9236 118.402 75.8034 117.762 80.1478C107.595 81.9455 95.0609 66.0191 83.8632 60.721C75.011 59.5029 58.8098 54.5911 61.8386 54.5911C63.4925 54.5911 66.1141 54.7375 68.2998 54.9257C52.2868 52.8911 44.0181 45.615 41.8271 42.0592C44.7694 45.7445 56.394 49.5121 61.8386 50.9353C51.7139 48.2388 47.452 40.8233 46.5866 37.4526C50.2211 44.4636 64.3265 49.3623 70.9249 50.9353C69.9875 50.6357 67.5071 49.3623 65.0841 46.6658C62.6611 43.9693 62.7764 39.4001 63.137 37.4526C63.6779 40.2615 67.6802 47.0029 73.305 50.0365C78.9298 53.0701 87.9079 54.4184 88.3406 54.306Z" fill="url(#paint7_linear_8077_27595)"/>
<path d="M88.3406 54.306C88.7733 54.1936 98.0759 57.6767 105.431 61.1597C116.832 65.9236 118.402 75.8034 117.762 80.1478C107.595 81.9455 95.0609 66.0191 83.8632 60.721C75.011 59.5029 58.8098 54.5911 61.8386 54.5911C63.4925 54.5911 66.1141 54.7375 68.2998 54.9257C52.2868 52.8911 44.0181 45.615 41.8271 42.0592C44.7694 45.7445 56.394 49.5121 61.8386 50.9353C51.7139 48.2388 47.452 40.8233 46.5866 37.4526C50.2211 44.4636 64.3265 49.3623 70.9249 50.9353C69.9875 50.6357 67.5071 49.3623 65.0841 46.6658C62.6611 43.9693 62.7764 39.4001 63.137 37.4526C63.6779 40.2615 67.6802 47.0029 73.305 50.0365C78.9298 53.0701 87.9079 54.4184 88.3406 54.306Z" fill="url(#paint8_radial_8077_27595)"/>
<path d="M76.4235 51.4453C76.4235 51.4453 73.5986 51.6096 75.2511 53.4072C76.9036 55.2048 94.7649 63.9237 98.8321 64.6428C102.899 65.3619 107.161 65.9911 108.784 66.2158L117.762 79.5861C114.56 79.3897 115.03 81.0527 104.68 77.9585C95.9229 73.8961 92.7277 68.4558 86.2087 62.0569C81.1806 58.6996 75.4992 61.1287 68.9735 58.2462C63.7065 55.9197 60.0532 54.306 61.4059 54.306C62.6601 54.306 64.5868 54.4666 66.4537 54.663C51.6484 52.3268 43.9323 45.4757 41.8271 42.0592C44.7694 45.7445 56.394 49.5121 61.8386 50.9353C51.7139 48.2388 47.452 40.8233 46.5866 37.4526C50.2211 44.4636 64.3265 49.3623 70.9249 50.9353C69.9875 50.6357 67.5071 49.3623 65.0841 46.6658C62.6611 43.9693 62.7764 39.4001 63.137 37.4526C63.6779 40.2615 67.6801 47.0029 73.305 50.0365C74.2663 50.5549 75.3256 51.0242 76.4235 51.4453Z" fill="url(#paint9_radial_8077_27595)"/>
<path d="M76.4235 51.4453C76.4235 51.4453 73.5986 51.6096 75.2511 53.4072C76.9036 55.2048 94.7649 63.9237 98.8321 64.6428C102.899 65.3619 107.161 65.9911 108.784 66.2158L117.762 79.5861C114.56 79.3897 115.03 81.0527 104.68 77.9585C95.9229 73.8961 92.7277 68.4558 86.2087 62.0569C81.1806 58.6996 75.4992 61.1287 68.9735 58.2462C63.7065 55.9197 60.0532 54.306 61.4059 54.306C62.6601 54.306 64.5868 54.4666 66.4537 54.663C51.6484 52.3268 43.9323 45.4757 41.8271 42.0592C44.7694 45.7445 56.394 49.5121 61.8386 50.9353C51.7139 48.2388 47.452 40.8233 46.5866 37.4526C50.2211 44.4636 64.3265 49.3623 70.9249 50.9353C69.9875 50.6357 67.5071 49.3623 65.0841 46.6658C62.6611 43.9693 62.7764 39.4001 63.137 37.4526C63.6779 40.2615 67.6801 47.0029 73.305 50.0365C74.2663 50.5549 75.3256 51.0242 76.4235 51.4453Z" fill="url(#paint10_linear_8077_27595)"/>
<path d="M76.4235 51.4453C76.4235 51.4453 73.5986 51.6096 75.2511 53.4072C76.9036 55.2048 94.7649 63.9237 98.8321 64.6428C102.899 65.3619 107.161 65.9911 108.784 66.2158L117.762 79.5861C114.56 79.3897 115.03 81.0527 104.68 77.9585C95.9229 73.8961 92.7277 68.4558 86.2087 62.0569C81.1806 58.6996 75.4992 61.1287 68.9735 58.2462C63.7065 55.9197 60.0532 54.306 61.4059 54.306C62.6601 54.306 64.5868 54.4666 66.4537 54.663C51.6484 52.3268 43.9323 45.4757 41.8271 42.0592C44.7694 45.7445 56.394 49.5121 61.8386 50.9353C51.7139 48.2388 47.452 40.8233 46.5866 37.4526C50.2211 44.4636 64.3265 49.3623 70.9249 50.9353C69.9875 50.6357 67.5071 49.3623 65.0841 46.6658C62.6611 43.9693 62.7764 39.4001 63.137 37.4526C63.6779 40.2615 67.6801 47.0029 73.305 50.0365C74.2663 50.5549 75.3256 51.0242 76.4235 51.4453Z" fill="url(#paint11_radial_8077_27595)"/>
<path d="M118.687 81.9996C116.018 79.8344 116.611 76.0102 116.61 73.486C122.163 63.8946 126.835 74.3389 125.149 77.0196C123.463 79.7003 123.744 81.381 123.744 82.5151C123.744 83.6492 122.62 91.1757 123.744 92.7223C124.868 94.2688 126.273 96.6402 125.149 98.2898C124.25 99.6095 124.774 107.088 125.149 109.837C123.576 110.415 121.309 109.597 120.373 109.116C121.216 105.301 121.356 99.3208 120.373 98.2898C119.39 97.2588 119.53 95.9185 120.373 94.3719C121.047 93.1347 119.53 85.8488 118.687 81.9996Z" fill="#FFC7A3"/>
<path d="M118.687 81.9996C116.018 79.8344 116.611 76.0102 116.61 73.486C122.163 63.8946 126.835 74.3389 125.149 77.0196C123.463 79.7003 123.744 81.381 123.744 82.5151C123.744 83.6492 122.62 91.1757 123.744 92.7223C124.868 94.2688 126.273 96.6402 125.149 98.2898C124.25 99.6095 124.774 107.088 125.149 109.837C123.576 110.415 121.309 109.597 120.373 109.116C121.216 105.301 121.356 99.3208 120.373 98.2898C119.39 97.2588 119.53 95.9185 120.373 94.3719C121.047 93.1347 119.53 85.8488 118.687 81.9996Z" fill="#FA3333" fill-opacity="0.44"/>
<path d="M118.687 81.9996C116.018 79.8344 116.611 76.0102 116.61 73.486C122.163 63.8946 126.835 74.3389 125.149 77.0196C123.463 79.7003 123.744 81.381 123.744 82.5151C123.744 83.6492 122.62 91.1757 123.744 92.7223C124.868 94.2688 126.273 96.6402 125.149 98.2898C124.25 99.6095 124.774 107.088 125.149 109.837C123.576 110.415 121.309 109.597 120.373 109.116C121.216 105.301 121.356 99.3208 120.373 98.2898C119.39 97.2588 119.53 95.9185 120.373 94.3719C121.047 93.1347 119.53 85.8488 118.687 81.9996Z" fill="url(#paint12_radial_8077_27595)"/>
<path d="M118.687 81.9996C116.018 79.8344 116.611 76.0102 116.61 73.486C122.163 63.8946 126.835 74.3389 125.149 77.0196C123.463 79.7003 123.744 81.381 123.744 82.5151C123.744 83.6492 122.62 91.1757 123.744 92.7223C124.868 94.2688 126.273 96.6402 125.149 98.2898C124.25 99.6095 124.774 107.088 125.149 109.837C123.576 110.415 121.309 109.597 120.373 109.116C121.216 105.301 121.356 99.3208 120.373 98.2898C119.39 97.2588 119.53 95.9185 120.373 94.3719C121.047 93.1347 119.53 85.8488 118.687 81.9996Z" fill="url(#paint13_linear_8077_27595)"/>
<path d="M118.687 81.9996C116.018 79.8344 116.611 76.0102 116.61 73.486C122.163 63.8946 126.835 74.3389 125.149 77.0196C123.463 79.7003 123.744 81.381 123.744 82.5151C123.744 83.6492 122.62 91.1757 123.744 92.7223C124.868 94.2688 126.273 96.6402 125.149 98.2898C124.25 99.6095 124.774 107.088 125.149 109.837C123.576 110.415 121.309 109.597 120.373 109.116C121.216 105.301 121.356 99.3208 120.373 98.2898C119.39 97.2588 119.53 95.9185 120.373 94.3719C121.047 93.1347 119.53 85.8488 118.687 81.9996Z" fill="url(#paint14_radial_8077_27595)"/>
<path d="M107.669 26.8262C107.254 26.2228 106.48 26.0347 105.758 26.1566C101.622 26.855 96.0525 24.9916 96.7805 20.336C97.2072 17.6075 101.075 13.4385 106.193 13.4382C110.284 13.4382 112.356 15.0707 113.942 16.5862C119.326 21.7288 118.405 35.6155 113.942 44.8555C112.035 48.8054 107.848 62.7393 117.26 62.3504C129.736 61.8349 146.265 78.3136 140.678 82.1461C131.812 88.2292 120.47 83.3834 115.933 80.4965C111.087 77.7127 105.726 73.3824 102.324 62.3504C99.9049 54.5074 103.583 46.508 106.431 40.3158C107.588 37.7981 108.609 35.5792 109.026 33.791C109.694 30.9254 108.851 28.5437 107.669 26.8262Z" fill="url(#paint15_radial_8077_27595)"/>
<path d="M107.669 26.8262C107.254 26.2228 106.48 26.0347 105.758 26.1566C101.622 26.855 96.0525 24.9916 96.7805 20.336C97.2072 17.6075 101.075 13.4385 106.193 13.4382C110.284 13.4382 112.356 15.0707 113.942 16.5862C119.326 21.7288 118.405 35.6155 113.942 44.8555C112.035 48.8054 107.848 62.7393 117.26 62.3504C129.736 61.8349 146.265 78.3136 140.678 82.1461C131.812 88.2292 120.47 83.3834 115.933 80.4965C111.087 77.7127 105.726 73.3824 102.324 62.3504C99.9049 54.5074 103.583 46.508 106.431 40.3158C107.588 37.7981 108.609 35.5792 109.026 33.791C109.694 30.9254 108.851 28.5437 107.669 26.8262Z" fill="url(#paint16_radial_8077_27595)"/>
<path d="M107.669 26.8262C107.254 26.2228 106.48 26.0347 105.758 26.1566C101.622 26.855 96.0525 24.9916 96.7805 20.336C97.2072 17.6075 101.075 13.4385 106.193 13.4382C110.284 13.4382 112.356 15.0707 113.942 16.5862C119.326 21.7288 118.405 35.6155 113.942 44.8555C112.035 48.8054 107.848 62.7393 117.26 62.3504C129.736 61.8349 146.265 78.3136 140.678 82.1461C131.812 88.2292 120.47 83.3834 115.933 80.4965C111.087 77.7127 105.726 73.3824 102.324 62.3504C99.9049 54.5074 103.583 46.508 106.431 40.3158C107.588 37.7981 108.609 35.5792 109.026 33.791C109.694 30.9254 108.851 28.5437 107.669 26.8262Z" fill="url(#paint17_radial_8077_27595)"/>
<path d="M156.435 82.2632C152.258 81.8666 146.689 80.0319 138.145 79.2519C135.862 78.7118 129.621 71.6413 136.773 72.4317C140.232 72.3948 148.715 74.2947 151.431 76.6458L156.781 81.2771C157.193 81.6337 156.963 82.3132 156.435 82.2632Z" fill="url(#paint18_radial_8077_27595)"/>
<ellipse cx="104.906" cy="18.8972" rx="2.96757" ry="2.15966" transform="rotate(-8.68922 104.906 18.8972)" fill="url(#paint19_radial_8077_27595)" stroke="#0078D4" stroke-opacity="0.22" stroke-width="0.461538"/>
<path d="M88.6478 29.1707C87.0423 20.8555 94.1678 17.9289 98.0158 17.6267C99.4862 18.2045 101.251 19.3991 101.984 20.4434C101.984 21.8584 100.955 25.0298 100.891 25.8305C99.9147 26.6502 97.1704 25.9674 94.6319 29.1707C92.8324 31.4415 92.0454 33.5364 92.6324 36.6193C92.6766 36.8517 92.3034 37.0318 92.1563 36.8466C91.0128 35.4069 89.4676 33.4171 88.6478 29.1707Z" fill="url(#paint20_linear_8077_27595)"/>
<path d="M93.8876 24.9056C94.0201 24.6348 94.1728 24.372 94.3478 24.1239C95.1402 23.0001 96.411 22.1385 98.4741 22.2347C98.7965 22.2498 99.0892 22.0257 99.1293 21.7054C99.1693 21.3852 98.9416 21.0907 98.6194 21.0721C96.0982 20.9269 94.423 21.9892 93.3927 23.4504C93.2791 23.6114 93.1738 23.7767 93.076 23.9452C92.6499 23.5536 92.1861 23.2977 91.6873 23.2397C90.6264 23.1163 89.5432 23.9013 88.6014 24.9681C88.3531 26.1844 88.3404 27.5788 88.6478 29.1707C89.4676 33.417 91.0128 35.4069 92.1563 36.8466C92.3034 37.0318 92.6766 36.8516 92.6324 36.6193C92.0454 33.5363 92.8324 31.4415 94.6319 29.1707C94.9039 28.8274 95.1794 28.5182 95.4557 28.2377C95.0581 27.0616 94.5311 25.8453 93.8876 24.9056Z" fill="#5050C7"/>
<path d="M93.8876 24.9056C94.0201 24.6348 94.1728 24.372 94.3478 24.1239C95.1402 23.0001 96.411 22.1385 98.4741 22.2347C98.7965 22.2498 99.0892 22.0257 99.1293 21.7054C99.1693 21.3852 98.9416 21.0907 98.6194 21.0721C96.0982 20.9269 94.423 21.9892 93.3927 23.4504C93.2791 23.6114 93.1738 23.7767 93.076 23.9452C92.6499 23.5536 92.1861 23.2977 91.6873 23.2397C90.6264 23.1163 89.5432 23.9013 88.6014 24.9681C88.3531 26.1844 88.3404 27.5788 88.6478 29.1707C89.4676 33.417 91.0128 35.4069 92.1563 36.8466C92.3034 37.0318 92.6766 36.8516 92.6324 36.6193C92.0454 33.5363 92.8324 31.4415 94.6319 29.1707C94.9039 28.8274 95.1794 28.5182 95.4557 28.2377C95.0581 27.0616 94.5311 25.8453 93.8876 24.9056Z" fill="url(#paint21_radial_8077_27595)"/>
<path d="M149.717 85.6007C145.696 81.3886 137.594 81.8682 130.744 76.7306C126.421 74.9998 125.992 69.54 129.374 68.7977C133.601 67.8698 138.029 70.6728 140.985 74.9999C143.01 77.0247 146.645 79.0321 149.717 80.7288C150.152 80.9687 150.575 81.2024 150.981 81.4291C153.317 81.4291 155.422 83.1936 155.422 84.4468C155.422 85.7 154.711 86.7874 153.671 87.3281C151.646 91.2984 148.168 98.3261 147.548 100.961C147.046 103.094 148.014 103.22 148.223 103.849C149.192 104.587 153.186 108.412 151.232 110.105C151.232 110.105 144.014 104.854 144.014 103.038C143.953 100.446 144.944 98.5964 146.105 96.2738C146.672 95.1396 149.065 88.6278 149.717 85.6007Z" fill="#FFC7A3"/>
<path d="M149.717 85.6007C145.696 81.3886 137.594 81.8682 130.744 76.7306C126.421 74.9998 125.992 69.54 129.374 68.7977C133.601 67.8698 138.029 70.6728 140.985 74.9999C143.01 77.0247 146.645 79.0321 149.717 80.7288C150.152 80.9687 150.575 81.2024 150.981 81.4291C153.317 81.4291 155.422 83.1936 155.422 84.4468C155.422 85.7 154.711 86.7874 153.671 87.3281C151.646 91.2984 148.168 98.3261 147.548 100.961C147.046 103.094 148.014 103.22 148.223 103.849C149.192 104.587 153.186 108.412 151.232 110.105C151.232 110.105 144.014 104.854 144.014 103.038C143.953 100.446 144.944 98.5964 146.105 96.2738C146.672 95.1396 149.065 88.6278 149.717 85.6007Z" fill="#FA3333" fill-opacity="0.44"/>
<path d="M149.717 85.6007C145.696 81.3886 137.594 81.8682 130.744 76.7306C126.421 74.9998 125.992 69.54 129.374 68.7977C133.601 67.8698 138.029 70.6728 140.985 74.9999C143.01 77.0247 146.645 79.0321 149.717 80.7288C150.152 80.9687 150.575 81.2024 150.981 81.4291C153.317 81.4291 155.422 83.1936 155.422 84.4468C155.422 85.7 154.711 86.7874 153.671 87.3281C151.646 91.2984 148.168 98.3261 147.548 100.961C147.046 103.094 148.014 103.22 148.223 103.849C149.192 104.587 153.186 108.412 151.232 110.105C151.232 110.105 144.014 104.854 144.014 103.038C143.953 100.446 144.944 98.5964 146.105 96.2738C146.672 95.1396 149.065 88.6278 149.717 85.6007Z" fill="url(#paint22_radial_8077_27595)"/>
<path d="M149.717 85.6007C145.696 81.3886 137.594 81.8682 130.744 76.7306C126.421 74.9998 125.992 69.54 129.374 68.7977C133.601 67.8698 138.029 70.6728 140.985 74.9999C143.01 77.0247 146.645 79.0321 149.717 80.7288C150.152 80.9687 150.575 81.2024 150.981 81.4291C153.317 81.4291 155.422 83.1936 155.422 84.4468C155.422 85.7 154.711 86.7874 153.671 87.3281C151.646 91.2984 148.168 98.3261 147.548 100.961C147.046 103.094 148.014 103.22 148.223 103.849C149.192 104.587 153.186 108.412 151.232 110.105C151.232 110.105 144.014 104.854 144.014 103.038C143.953 100.446 144.944 98.5964 146.105 96.2738C146.672 95.1396 149.065 88.6278 149.717 85.6007Z" fill="url(#paint23_radial_8077_27595)"/>
<path d="M149.717 85.6007C145.696 81.3886 137.594 81.8682 130.744 76.7306C126.421 74.9998 125.992 69.54 129.374 68.7977C133.601 67.8698 138.029 70.6728 140.985 74.9999C143.01 77.0247 146.645 79.0321 149.717 80.7288C150.152 80.9687 150.575 81.2024 150.981 81.4291C153.317 81.4291 155.422 83.1936 155.422 84.4468C155.422 85.7 154.711 86.7874 153.671 87.3281C151.646 91.2984 148.168 98.3261 147.548 100.961C147.046 103.094 148.014 103.22 148.223 103.849C149.192 104.587 153.186 108.412 151.232 110.105C151.232 110.105 144.014 104.854 144.014 103.038C143.953 100.446 144.944 98.5964 146.105 96.2738C146.672 95.1396 149.065 88.6278 149.717 85.6007Z" fill="url(#paint24_radial_8077_27595)"/>
<path d="M178.03 10.1827C179.238 14.2488 179.434 20.4201 174.663 27.843C176.713 26.2647 180.25 23.1323 183.223 19.5218C183.239 19.5796 183.254 19.6376 183.27 19.6957C183.155 24.0938 181.641 30.4384 173.769 35.3878C176.677 34.7374 180.68 32.1865 184.471 29.133C184.53 35.4533 177.898 38.4122 172.185 39.5382C174.982 39.9491 179.32 39.1175 183.723 37.7567C182.363 45.1989 179.055 52.9894 173.018 59.6936C156.923 77.5656 136.991 72.9125 134.113 72.0665C134.041 72.0453 133.962 72.0222 133.878 71.9975C130.602 71.0359 118.466 67.4741 119.297 65.7214C120.15 63.9236 121.322 61.8086 126.652 59.6936C143.525 52.9972 148.643 46.1774 152.193 41.4467C153.897 39.1755 155.24 37.3859 157.349 36.3225C163.105 33.4204 172.485 24.2669 177.921 10.0962C177.957 10.1246 177.994 10.1534 178.03 10.1827Z" fill="url(#paint25_linear_8077_27595)"/>
<path d="M178.03 10.1827C179.238 14.2488 179.434 20.4201 174.663 27.843C176.713 26.2647 180.25 23.1323 183.223 19.5218C183.239 19.5796 183.254 19.6376 183.27 19.6957C183.155 24.0938 181.641 30.4384 173.769 35.3878C176.677 34.7374 180.68 32.1865 184.471 29.133C184.53 35.4533 177.898 38.4122 172.185 39.5382C174.982 39.9491 179.32 39.1175 183.723 37.7567C182.363 45.1989 179.055 52.9894 173.018 59.6936C156.923 77.5656 136.991 72.9125 134.113 72.0665C134.041 72.0453 133.962 72.0222 133.878 71.9975C130.602 71.0359 118.466 67.4741 119.297 65.7214C120.15 63.9236 121.322 61.8086 126.652 59.6936C143.525 52.9972 148.643 46.1774 152.193 41.4467C153.897 39.1755 155.24 37.3859 157.349 36.3225C163.105 33.4204 172.485 24.2669 177.921 10.0962C177.957 10.1246 177.994 10.1534 178.03 10.1827Z" fill="url(#paint26_linear_8077_27595)"/>
<path d="M178.03 10.1827C179.238 14.2488 179.434 20.4201 174.663 27.843C176.713 26.2647 180.25 23.1323 183.223 19.5218C183.239 19.5796 183.254 19.6376 183.27 19.6957C183.155 24.0938 181.641 30.4384 173.769 35.3878C176.677 34.7374 180.68 32.1865 184.471 29.133C184.53 35.4533 177.898 38.4122 172.185 39.5382C174.982 39.9491 179.32 39.1175 183.723 37.7567C182.363 45.1989 179.055 52.9894 173.018 59.6936C156.923 77.5656 136.991 72.9125 134.113 72.0665C134.041 72.0453 133.962 72.0222 133.878 71.9975C130.602 71.0359 118.466 67.4741 119.297 65.7214C120.15 63.9236 121.322 61.8086 126.652 59.6936C143.525 52.9972 148.643 46.1774 152.193 41.4467C153.897 39.1755 155.24 37.3859 157.349 36.3225C163.105 33.4204 172.485 24.2669 177.921 10.0962C177.957 10.1246 177.994 10.1534 178.03 10.1827Z" fill="url(#paint27_linear_8077_27595)"/>
<path d="M178.03 10.1827C179.238 14.2488 179.434 20.4201 174.663 27.843C176.713 26.2647 180.25 23.1323 183.223 19.5218C183.239 19.5796 183.254 19.6376 183.27 19.6957C183.155 24.0938 181.641 30.4384 173.769 35.3878C176.677 34.7374 180.68 32.1865 184.471 29.133C184.53 35.4533 177.898 38.4122 172.185 39.5382C174.982 39.9491 179.32 39.1175 183.723 37.7567C182.363 45.1989 179.055 52.9894 173.018 59.6936C156.923 77.5656 136.991 72.9125 134.113 72.0665C134.041 72.0453 133.962 72.0222 133.878 71.9975C130.602 71.0359 118.466 67.4741 119.297 65.7214C120.15 63.9236 121.322 61.8086 126.652 59.6936C143.525 52.9972 148.643 46.1774 152.193 41.4467C153.897 39.1755 155.24 37.3859 157.349 36.3225C163.105 33.4204 172.485 24.2669 177.921 10.0962C177.957 10.1246 177.994 10.1534 178.03 10.1827Z" fill="url(#paint28_radial_8077_27595)"/>
<path d="M178.03 10.1827C179.238 14.2488 179.434 20.4201 174.663 27.843C176.713 26.2647 180.25 23.1323 183.223 19.5218C183.239 19.5796 183.254 19.6376 183.27 19.6957C183.155 24.0938 181.641 30.4384 173.769 35.3878C176.677 34.7374 180.68 32.1865 184.471 29.133C184.53 35.4533 177.898 38.4122 172.185 39.5382C174.982 39.9491 179.32 39.1175 183.723 37.7567C182.363 45.1989 179.055 52.9894 173.018 59.6936C156.923 77.5656 136.991 72.9125 134.113 72.0665C134.041 72.0453 133.962 72.0222 133.878 71.9975C130.602 71.0359 118.466 67.4741 119.297 65.7214C120.15 63.9236 121.322 61.8086 126.652 59.6936C143.525 52.9972 148.643 46.1774 152.193 41.4467C153.897 39.1755 155.24 37.3859 157.349 36.3225C163.105 33.4204 172.485 24.2669 177.921 10.0962C177.957 10.1246 177.994 10.1534 178.03 10.1827Z" fill="url(#paint29_radial_8077_27595)"/>
<path d="M126.652 59.6935C121.322 61.8086 120.15 63.9236 119.297 65.7214C118.466 67.474 130.602 71.0359 133.878 71.9974C133.962 72.0222 134.041 72.0452 134.113 72.0664C135.69 72.5301 142.389 74.1371 150.771 72.5535C147.208 66.3283 144.469 55.8028 155.823 46.3451C162.027 41.1774 161.729 37.468 159.236 35.2273C158.574 35.6579 157.942 36.0234 157.349 36.3225C155.24 37.3858 153.897 39.1755 152.193 41.4466C148.643 46.1774 143.525 52.9972 126.652 59.6935Z" fill="url(#paint30_linear_8077_27595)"/>
<path d="M126.652 59.6935C121.322 61.8086 120.15 63.9236 119.297 65.7214C118.466 67.474 130.602 71.0359 133.878 71.9974C133.962 72.0222 134.041 72.0452 134.113 72.0664C135.69 72.5301 142.389 74.1371 150.771 72.5535C147.208 66.3283 144.469 55.8028 155.823 46.3451C162.027 41.1774 161.729 37.468 159.236 35.2273C158.574 35.6579 157.942 36.0234 157.349 36.3225C155.24 37.3858 153.897 39.1755 152.193 41.4466C148.643 46.1774 143.525 52.9972 126.652 59.6935Z" fill="url(#paint31_radial_8077_27595)"/>
<path d="M126.652 59.6935C121.322 61.8086 120.15 63.9236 119.297 65.7214C118.466 67.474 130.602 71.0359 133.878 71.9974C133.962 72.0222 134.041 72.0452 134.113 72.0664C135.69 72.5301 142.389 74.1371 150.771 72.5535C147.208 66.3283 144.469 55.8028 155.823 46.3451C162.027 41.1774 161.729 37.468 159.236 35.2273C158.574 35.6579 157.942 36.0234 157.349 36.3225C155.24 37.3858 153.897 39.1755 152.193 41.4466C148.643 46.1774 143.525 52.9972 126.652 59.6935Z" fill="url(#paint32_radial_8077_27595)"/>
<path d="M164.973 43.4502C177.797 43.4502 182.195 39.6532 183.686 37.9766C181.972 42.5996 179.486 43.82 176.902 44.3748C174.317 44.9296 164.973 43.4502 164.973 43.4502Z" fill="url(#paint33_radial_8077_27595)"/>
<path d="M163.557 44.8926C170.489 49.071 179.145 46.6487 181.188 45.7055C179.138 49.33 178.578 49.8477 173.024 50.2175C167.47 50.5874 163.557 44.8926 163.557 44.8926Z" fill="url(#paint34_radial_8077_27595)"/>
<path d="M162.37 49.2874C167.726 53.8814 175.682 53.2077 177.622 52.7372C175.231 55.4563 174.657 55.8029 169.748 55.2413C164.84 54.6796 162.37 49.2874 162.37 49.2874Z" fill="url(#paint35_radial_8077_27595)"/>
<path d="M158.345 52.9587C161.681 59.1551 169.349 61.3617 171.33 61.6138C168.114 63.2995 167.453 63.4184 163.075 61.1448C158.698 58.8713 158.345 52.9587 158.345 52.9587Z" fill="url(#paint36_radial_8077_27595)"/>
<defs>
<linearGradient id="paint0_linear_8077_27595" x1="-19.6151" y1="120" x2="288.464" y2="74.8051" gradientUnits="userSpaceOnUse">
<stop stop-color="#0078D4"/>
<stop offset="1" stop-color="#76D3FB"/>
</linearGradient>
<radialGradient id="paint1_radial_8077_27595" cx="0" cy="0" r="1" gradientUnits="userSpaceOnUse" gradientTransform="translate(134.448 108.337) rotate(90) scale(8.68027 74.125)">
<stop offset="0.25" stop-color="#1286DA"/>
<stop offset="1" stop-color="#77D4FB" stop-opacity="0"/>
</radialGradient>
<linearGradient id="paint2_linear_8077_27595" x1="122.668" y1="104.176" x2="122.668" y2="112.082" gradientUnits="userSpaceOnUse">
<stop stop-color="#1286DA"/>
<stop offset="1" stop-color="#77D4FB"/>
</linearGradient>
<linearGradient id="paint3_linear_8077_27595" x1="120.528" y1="104.888" x2="120.528" y2="116.357" gradientUnits="userSpaceOnUse">
<stop stop-color="#1286DA"/>
<stop offset="1" stop-color="#77D4FB"/>
</linearGradient>
<linearGradient id="paint4_linear_8077_27595" x1="160.932" y1="97.4975" x2="150.025" y2="105.049" gradientUnits="userSpaceOnUse">
<stop stop-color="#D9F4FF"/>
<stop offset="1" stop-color="#77D4FB" stop-opacity="0"/>
</linearGradient>
<linearGradient id="paint5_linear_8077_27595" x1="175.66" y1="99.5864" x2="166.011" y2="106.559" gradientUnits="userSpaceOnUse">
<stop stop-color="#D9F4FF"/>
<stop offset="1" stop-color="#77D4FB" stop-opacity="0"/>
</linearGradient>
<linearGradient id="paint6_linear_8077_27595" x1="169.844" y1="96.1056" x2="162.061" y2="106.823" gradientUnits="userSpaceOnUse">
<stop stop-color="#D9F4FF"/>
<stop offset="1" stop-color="#77D4FB" stop-opacity="0"/>
</linearGradient>
<linearGradient id="paint7_linear_8077_27595" x1="65.2617" y1="61.884" x2="71.5018" y2="82.9018" gradientUnits="userSpaceOnUse">
<stop stop-color="#F67097"/>
<stop offset="1" stop-color="#A34848"/>
</linearGradient>
<radialGradient id="paint8_radial_8077_27595" cx="0" cy="0" r="1" gradientUnits="userSpaceOnUse" gradientTransform="translate(86.9714 55.5294) rotate(104.521) scale(3.45144 20.73)">
<stop stop-color="#F5D8C6" stop-opacity="0.75"/>
<stop offset="1" stop-color="#F5D8C6" stop-opacity="0"/>
</radialGradient>
<radialGradient id="paint9_radial_8077_27595" cx="0" cy="0" r="1" gradientUnits="userSpaceOnUse" gradientTransform="translate(112.236 72.7448) rotate(-149.12) scale(68.7623 54.1732)">
<stop offset="0.306132" stop-color="#7477AF"/>
<stop offset="1" stop-color="#9C9CFE"/>
</radialGradient>
<linearGradient id="paint10_linear_8077_27595" x1="45.2329" y1="37.4526" x2="117.329" y2="56.0536" gradientUnits="userSpaceOnUse">
<stop stop-color="#CBB5F1"/>
<stop offset="1" stop-color="#193CCD"/>
</linearGradient>
<radialGradient id="paint11_radial_8077_27595" cx="0" cy="0" r="1" gradientUnits="userSpaceOnUse" gradientTransform="translate(94.9041 58.6558) rotate(112.482) scale(12.0697 52.8956)">
<stop stop-color="#FE769E"/>
<stop offset="1" stop-color="#FE769E" stop-opacity="0"/>
</radialGradient>
<radialGradient id="paint12_radial_8077_27595" cx="0" cy="0" r="1" gradientUnits="userSpaceOnUse" gradientTransform="translate(125.562 99.2313) rotate(180) scale(4.50394 27.7701)">
<stop stop-color="#FFE59F"/>
<stop offset="1" stop-color="#FFE59F" stop-opacity="0"/>
</radialGradient>
<linearGradient id="paint13_linear_8077_27595" x1="124.615" y1="110.77" x2="124.615" y2="97.6448" gradientUnits="userSpaceOnUse">
<stop stop-color="#F5658A"/>
<stop offset="1" stop-color="#FE8773" stop-opacity="0"/>
</linearGradient>
<radialGradient id="paint14_radial_8077_27595" cx="0" cy="0" r="1" gradientUnits="userSpaceOnUse" gradientTransform="translate(117.981 76.0102) rotate(75.9088) scale(12.64 10.7629)">
<stop offset="0.075" stop-color="#F45A8C" stop-opacity="0.9"/>
<stop offset="0.60052" stop-color="#F4BDB9" stop-opacity="0.44"/>
<stop offset="1" stop-color="white" stop-opacity="0"/>
</radialGradient>
<radialGradient id="paint15_radial_8077_27595" cx="0" cy="0" r="1" gradientUnits="userSpaceOnUse" gradientTransform="translate(122.019 73.8459) rotate(-54.2933) scale(11.3677 36.8188)">
<stop stop-color="#F3518A"/>
<stop offset="1" stop-color="#F59C9C"/>
</radialGradient>
<radialGradient id="paint16_radial_8077_27595" cx="0" cy="0" r="1" gradientUnits="userSpaceOnUse" gradientTransform="translate(106.045 19.0698) rotate(-90) scale(5.77622 12.4675)">
<stop offset="0.466466" stop-color="#FFD1B6" stop-opacity="0.66"/>
<stop offset="1" stop-color="#FFB7A3" stop-opacity="0"/>
</radialGradient>
<radialGradient id="paint17_radial_8077_27595" cx="0" cy="0" r="1" gradientUnits="userSpaceOnUse" gradientTransform="translate(124.327 85.0696) rotate(-87.6095) scale(13.8319 76.0466)">
<stop offset="0.236094" stop-color="#B25056"/>
<stop offset="0.816282" stop-color="#B25056" stop-opacity="0"/>
</radialGradient>
<radialGradient id="paint18_radial_8077_27595" cx="0" cy="0" r="1" gradientUnits="userSpaceOnUse" gradientTransform="translate(132.548 72.3701) rotate(17.1028) scale(22.289 23.3035)">
<stop offset="0.06" stop-color="#F58497"/>
<stop offset="0.714919" stop-color="#F45D8D"/>
<stop offset="1" stop-color="#FFB7A3"/>
</radialGradient>
<radialGradient id="paint19_radial_8077_27595" cx="0" cy="0" r="1" gradientUnits="userSpaceOnUse" gradientTransform="translate(104.906 18.2031) rotate(90) scale(2.85383 3.92143)">
<stop offset="0.07" stop-color="#CEB4B4"/>
<stop offset="0.845" stop-color="#2B1515"/>
</radialGradient>
<linearGradient id="paint20_linear_8077_27595" x1="92.3734" y1="23.5632" x2="101.138" y2="18.9067" gradientUnits="userSpaceOnUse">
<stop stop-color="#FF9FBA"/>
<stop offset="0.802393" stop-color="#FFE173"/>
</linearGradient>
<radialGradient id="paint21_radial_8077_27595" cx="0" cy="0" r="1" gradientUnits="userSpaceOnUse" gradientTransform="translate(91.8753 23.5097) rotate(90) scale(10.7452 5.56841)">
<stop stop-color="#BBBBF0"/>
<stop offset="0.677244" stop-color="#998CF8" stop-opacity="0.675"/>
</radialGradient>
<radialGradient id="paint22_radial_8077_27595" cx="0" cy="0" r="1" gradientUnits="userSpaceOnUse" gradientTransform="translate(141.276 93.4613) rotate(-19.1815) scale(15.8031 22.108)">
<stop offset="0.60164" stop-color="#FFE59F" stop-opacity="0"/>
<stop offset="1" stop-color="#FFE59F"/>
</radialGradient>
<radialGradient id="paint23_radial_8077_27595" cx="0" cy="0" r="1" gradientUnits="userSpaceOnUse" gradientTransform="translate(130.385 71.1056) rotate(104.444) scale(9.82994 20.5736)">
<stop offset="0.075" stop-color="#F45A8C" stop-opacity="0.9"/>
<stop offset="1" stop-color="#F4BDB9" stop-opacity="0"/>
</radialGradient>
<radialGradient id="paint24_radial_8077_27595" cx="0" cy="0" r="1" gradientUnits="userSpaceOnUse" gradientTransform="translate(147.75 105.533) rotate(-45) scale(4.10003 17.648)">
<stop offset="0.0947793" stop-color="#F45A8C" stop-opacity="0.9"/>
<stop offset="1" stop-color="#F4BDB9" stop-opacity="0"/>
</radialGradient>
<linearGradient id="paint25_linear_8077_27595" x1="179.436" y1="49.8855" x2="161.067" y2="34.3573" gradientUnits="userSpaceOnUse">
<stop offset="0.712198" stop-color="#4C4E66"/>
<stop offset="0.960525" stop-color="#8989B8"/>
</linearGradient>
<linearGradient id="paint26_linear_8077_27595" x1="179.436" y1="49.8855" x2="161.067" y2="34.3573" gradientUnits="userSpaceOnUse">
<stop offset="0.712198" stop-color="#7477AF"/>
<stop offset="0.960525" stop-color="#C7C7FB"/>
</linearGradient>
<linearGradient id="paint27_linear_8077_27595" x1="193.686" y1="35.6384" x2="154.266" y2="44.4449" gradientUnits="userSpaceOnUse">
<stop stop-color="#CBB5F1"/>
<stop offset="1" stop-color="#193CCD"/>
</linearGradient>
<radialGradient id="paint28_radial_8077_27595" cx="0" cy="0" r="1" gradientUnits="userSpaceOnUse" gradientTransform="translate(138.58 44.2639) rotate(2.35092) scale(46.0743 45.5996)">
<stop offset="0.720315" stop-color="#9C9CFE" stop-opacity="0"/>
<stop offset="1" stop-color="#9C9CFE"/>
</radialGradient>
<radialGradient id="paint29_radial_8077_27595" cx="0" cy="0" r="1" gradientUnits="userSpaceOnUse" gradientTransform="translate(137.308 48.1731) rotate(21.1342) scale(36.8023 110.745)">
<stop stop-color="#FE769E"/>
<stop offset="1" stop-color="#FE769E" stop-opacity="0"/>
</radialGradient>
<linearGradient id="paint30_linear_8077_27595" x1="132.087" y1="56.8382" x2="139.973" y2="74.7848" gradientUnits="userSpaceOnUse">
<stop stop-color="#F67097"/>
<stop offset="0.47" stop-color="#FF779F"/>
<stop offset="1" stop-color="#A34848"/>
</linearGradient>
<radialGradient id="paint31_radial_8077_27595" cx="0" cy="0" r="1" gradientUnits="userSpaceOnUse" gradientTransform="translate(137.843 51.7621) rotate(55.1959) scale(7.46987 70.715)">
<stop stop-color="#F5D8C6"/>
<stop offset="1" stop-color="#F5D8C6" stop-opacity="0"/>
</radialGradient>
<radialGradient id="paint32_radial_8077_27595" cx="0" cy="0" r="1" gradientUnits="userSpaceOnUse" gradientTransform="translate(125.326 69.1556) rotate(-69.038) scale(7.27177 35.6669)">
<stop stop-color="#DC697D"/>
<stop offset="1" stop-color="#F46990" stop-opacity="0"/>
</radialGradient>
<radialGradient id="paint33_radial_8077_27595" cx="0" cy="0" r="1" gradientUnits="userSpaceOnUse" gradientTransform="translate(175.954 41.5126) rotate(62.6638) scale(3.3621 11.9234)">
<stop stop-color="#25255C"/>
<stop offset="0.74201" stop-color="#040871" stop-opacity="0"/>
</radialGradient>
<radialGradient id="paint34_radial_8077_27595" cx="0" cy="0" r="1" gradientUnits="userSpaceOnUse" gradientTransform="translate(173.173 46.2224) rotate(91.5599) scale(2.73874 7.85716)">
<stop stop-color="#25255C"/>
<stop offset="1" stop-color="#040871" stop-opacity="0"/>
</radialGradient>
<radialGradient id="paint35_radial_8077_27595" cx="0" cy="0" r="1" gradientUnits="userSpaceOnUse" gradientTransform="translate(171.757 51.1423) rotate(97.848) scale(4.36804 15.5229)">
<stop stop-color="#25255C"/>
<stop offset="0.878147" stop-color="#040871" stop-opacity="0"/>
</radialGradient>
<radialGradient id="paint36_radial_8077_27595" cx="0" cy="0" r="1" gradientUnits="userSpaceOnUse" gradientTransform="translate(166.715 58.8559) rotate(121.969) scale(2.7915 11.6382)">
<stop stop-color="#25255C"/>
<stop offset="1" stop-color="#040871" stop-opacity="0"/>
</radialGradient>
</defs>
</svg>
