<svg viewBox="0 0 240 120" fill="none" xmlns="http://www.w3.org/2000/svg">
<path d="M185.34 93.1974C201.902 98.7612 195.879 81.0041 211.703 86.6972L186.939 70.88C182.039 76.4865 174.565 89.5777 185.34 93.1974Z" fill="url(#paint0_linear_482_4339)"/>
<path d="M185.898 95.6097C189.272 91.3855 186.865 78.7182 187.588 72.0221L176.418 62.4678L170.687 76.2824C175.023 83.6449 184.135 97.8177 185.898 95.6097Z" fill="url(#paint1_linear_482_4339)"/>
<path d="M143.806 72.167C147.068 70.7594 155.958 71.5787 165.421 86.1172L170.679 45.8243L162.774 41.6104L143.806 72.167Z" fill="url(#paint2_linear_482_4339)"/>
<path d="M131.201 54.6673C125.82 63.5829 128.604 78.19 134.488 77.5173C140.372 76.8447 136.579 55.9645 131.201 54.6673Z" fill="url(#paint3_linear_482_4339)"/>
<path d="M223.216 68.5557C215.055 69.6124 196.773 61.9194 188.932 22.6942C178.481 21.9453 168.923 16.8835 165.45 14.4462C163.676 18.842 157.573 22.575 154.743 23.892C158.026 25.5862 164.455 35.4575 163.911 61.3886C163.23 93.8025 179.468 98.7959 183.641 96.5416C187.815 94.2874 180.313 87.002 175.35 82.4518C170.387 77.9016 174.445 72.174 181.496 70.4907C188.547 68.8074 206.092 83.5602 216.719 85.4159C225.22 86.9004 224.592 74.7943 223.216 68.5557Z" fill="#009930"/>
<path d="M223.216 68.5557C215.055 69.6124 196.773 61.9194 188.932 22.6942C178.481 21.9453 168.923 16.8835 165.45 14.4462C163.676 18.842 157.573 22.575 154.743 23.892C158.026 25.5862 164.455 35.4575 163.911 61.3886C163.23 93.8025 179.468 98.7959 183.641 96.5416C187.815 94.2874 180.313 87.002 175.35 82.4518C170.387 77.9016 174.445 72.174 181.496 70.4907C188.547 68.8074 206.092 83.5602 216.719 85.4159C225.22 86.9004 224.592 74.7943 223.216 68.5557Z" fill="url(#paint4_linear_482_4339)"/>
<path fill-rule="evenodd" clip-rule="evenodd" d="M170.542 73.7799C171.147 75.3907 172.334 77.5297 174.771 78.1773L176.348 72.2446C176.543 72.2966 176.646 72.3737 176.679 72.4036C176.637 72.355 176.488 72.154 176.289 71.623C175.915 70.6264 175.612 69.0958 175.393 67.0265C175.056 63.8374 174.968 59.9568 174.875 55.8237C174.847 54.6002 174.819 53.3545 174.783 52.0982C174.634 46.7823 174.355 41.2058 173.282 37.08C172.75 35.0396 171.927 32.9432 170.491 31.4296C168.861 29.7123 166.637 28.9616 164.13 29.4876L165.39 35.4954C165.799 35.4096 165.865 35.4726 166.038 35.6556C166.405 36.0422 166.9 36.9326 167.341 38.6264C168.211 41.9689 168.494 46.8507 168.647 52.2709C168.68 53.4231 168.706 54.5988 168.733 55.7791C168.827 59.9621 168.922 64.2041 169.289 67.6719C169.524 69.8923 169.89 72.043 170.542 73.7799ZM176.692 72.416C176.692 72.4156 176.688 72.4111 176.679 72.4036C176.687 72.4126 176.691 72.4164 176.692 72.416Z" fill="url(#paint5_linear_482_4339)"/>
<path d="M161.97 42.6477C157.042 54.5745 144.945 78.6688 135.976 79.6311C140.397 71.376 135.264 63.0932 132.042 53.087C124.245 28.8746 132.23 22.4617 144.076 20.0278C153.554 18.0806 159.954 34.2964 161.97 42.6477Z" fill="url(#paint6_linear_482_4339)"/>
<path fill-rule="evenodd" clip-rule="evenodd" d="M180.302 21.1546C180.84 33.1511 180.277 54.1123 172.407 73.8991C172.407 73.8991 178.884 68.8861 181.914 69.7474C182.576 69.9353 183.238 70.1716 183.901 70.4482C187.841 71.0202 193.471 74.1994 199.316 77.4996C205.45 80.9633 211.819 84.5603 216.719 85.4158C225.221 86.9003 224.593 74.7943 223.216 68.5557C215.055 69.6124 196.773 61.9194 188.933 22.6942C185.942 22.48 183.025 21.9126 180.302 21.1546Z" fill="url(#paint7_linear_482_4339)"/>
<path fill-rule="evenodd" clip-rule="evenodd" d="M162.695 41.5943C160.755 30.1019 157.003 25.0589 154.742 23.8924C157.572 22.5753 163.676 18.8423 165.45 14.4464C167.079 15.5901 170.049 17.3119 173.822 18.8946C170.916 26.2669 166.433 36.5093 162.695 41.5943Z" fill="url(#paint8_linear_482_4339)"/>
<path fill-rule="evenodd" clip-rule="evenodd" d="M155.205 31.5299C158.766 38.8434 160.534 50.3108 159.528 64.3583C158.448 79.4237 162.948 89.0078 168.781 94.4071C171.654 97.0672 174.804 98.6594 177.627 99.3531C179.034 99.699 180.423 99.8365 181.695 99.73C182.918 99.6276 184.297 99.2754 185.413 98.386C186.867 97.228 187.826 95.6985 187.985 93.8499C188.132 92.1432 187.554 90.5989 186.903 89.383C185.847 87.4108 184.019 85.3195 182.431 83.5032C182.147 83.1776 181.87 82.8608 181.607 82.5552C179.653 80.287 178.232 78.4203 177.689 76.7948C177.446 76.0658 177.436 75.5363 177.542 75.1113C177.647 74.6936 177.934 74.0945 178.77 73.3403C179.552 72.6354 181.03 72.2927 184.534 73.8076C187.541 75.1075 190.971 77.3175 194.818 79.7961C195.263 80.0827 195.713 80.373 196.169 80.6659C200.406 83.3867 205.089 86.3044 209.609 87.9181C214.142 89.5366 219.211 90.0848 223.633 87.0386C226.287 85.21 227.72 82.7902 228.258 80.222C228.775 77.7506 228.434 75.3038 227.877 73.2848C227.175 70.7414 226.026 68.2179 224.52 66.0409C221.804 62.1157 216.465 64.8885 219.483 69.4471C220.694 70.7575 221.496 73.2406 221.959 74.9175C222.367 76.3964 222.495 77.7888 222.249 78.965C222.023 80.0444 221.461 81.0807 220.15 81.9835C218.104 83.3934 215.416 83.4735 211.673 82.1369C207.916 80.7956 203.801 78.2713 199.486 75.5006C199.031 75.2082 198.572 74.9123 198.111 74.6149C194.369 72.2005 190.477 69.6893 186.97 68.1731C183.181 66.5348 178.379 65.4268 174.659 68.7819C173.107 70.1818 172.045 71.7942 171.587 73.6202C171.132 75.4389 171.348 77.1854 171.867 78.7394C172.849 81.68 175.1 84.4079 176.956 86.5617C177.292 86.9517 177.616 87.3247 177.927 87.6825C179.539 89.5363 180.796 90.9818 181.492 92.2814C181.834 92.9193 181.867 93.2281 181.87 93.3049C181.85 93.3343 181.793 93.4118 181.657 93.5283C181.603 93.5467 181.457 93.5899 181.183 93.6128C180.694 93.6538 179.981 93.6106 179.092 93.3919C177.321 92.9567 175.092 91.8851 172.951 89.9025C168.753 86.0164 164.676 78.3997 165.651 64.797C166.698 50.1764 164.939 37.4976 160.724 28.8423C158.608 24.4972 155.778 20.9763 152.178 18.8588C148.5 16.6954 144.273 16.1513 139.791 17.3633C136.33 18.2993 133.557 19.8943 131.461 22.0918C129.37 24.2834 128.095 26.9252 127.394 29.7442C126.019 35.2696 126.787 41.741 128.128 47.8041C128.477 49.3789 128.873 50.9596 129.294 52.5231C128.535 52.7154 127.849 53.1963 127.415 53.9209C122.196 62.6315 123.825 71.0217 127.372 76.0793C129.065 78.4935 131.478 80.527 134.147 81.01C135.569 81.2673 137.167 81.0853 138.56 80.1033C139.926 79.141 140.707 77.6837 141.086 76.1374C141.523 74.352 141.228 72.1984 140.824 70.2612C140.393 68.1949 139.698 65.7925 138.925 63.2623C138.618 62.2595 138.298 61.2311 137.971 60.1822C136.618 55.8399 135.155 51.1477 134.122 46.4778C132.829 40.6345 132.332 35.3206 133.351 31.2262C133.846 29.2352 134.682 27.6086 135.903 26.3287C137.118 25.0546 138.856 23.9751 141.393 23.289C144.382 22.4807 146.897 22.8743 149.065 24.1498C151.312 25.4712 153.432 27.8905 155.205 31.5299ZM131.381 59.6626C131.639 60.4993 131.894 61.3184 132.143 62.1156C132.461 63.1348 132.768 64.1183 133.054 65.0569C133.825 67.5786 134.446 69.7472 134.815 71.5153C135.211 73.4126 135.202 74.3569 135.123 74.6775C135.1 74.7746 135.076 74.854 135.053 74.9185C134.508 74.729 133.461 74.0706 132.398 72.5544C130.456 69.7864 129.17 65.0899 131.381 59.6626Z" fill="#FFD600"/>
<path fill-rule="evenodd" clip-rule="evenodd" d="M155.205 31.5299C158.766 38.8434 160.534 50.3108 159.528 64.3583C158.448 79.4237 162.948 89.0078 168.781 94.4071C171.654 97.0672 174.804 98.6594 177.627 99.3531C179.034 99.699 180.423 99.8365 181.695 99.73C182.918 99.6276 184.297 99.2754 185.413 98.386C186.867 97.228 187.826 95.6985 187.985 93.8499C188.132 92.1432 187.554 90.5989 186.903 89.383C185.847 87.4108 184.019 85.3195 182.431 83.5032C182.147 83.1776 181.87 82.8608 181.607 82.5552C179.653 80.287 178.232 78.4203 177.689 76.7948C177.446 76.0658 177.436 75.5363 177.542 75.1113C177.647 74.6936 177.934 74.0945 178.77 73.3403C179.552 72.6354 181.03 72.2927 184.534 73.8076C187.541 75.1075 190.971 77.3175 194.818 79.7961C195.263 80.0827 195.713 80.373 196.169 80.6659C200.406 83.3867 205.089 86.3044 209.609 87.9181C214.142 89.5366 219.211 90.0848 223.633 87.0386C226.287 85.21 227.72 82.7902 228.258 80.222C228.775 77.7506 228.434 75.3038 227.877 73.2848C227.175 70.7414 226.026 68.2179 224.52 66.0409C221.804 62.1157 216.465 64.8885 219.483 69.4471C220.694 70.7575 221.496 73.2406 221.959 74.9175C222.367 76.3964 222.495 77.7888 222.249 78.965C222.023 80.0444 221.461 81.0807 220.15 81.9835C218.104 83.3934 215.416 83.4735 211.673 82.1369C207.916 80.7956 203.801 78.2713 199.486 75.5006C199.031 75.2082 198.572 74.9123 198.111 74.6149C194.369 72.2005 190.477 69.6893 186.97 68.1731C183.181 66.5348 178.379 65.4268 174.659 68.7819C173.107 70.1818 172.045 71.7942 171.587 73.6202C171.132 75.4389 171.348 77.1854 171.867 78.7394C172.849 81.68 175.1 84.4079 176.956 86.5617C177.292 86.9517 177.616 87.3247 177.927 87.6825C179.539 89.5363 180.796 90.9818 181.492 92.2814C181.834 92.9193 181.867 93.2281 181.87 93.3049C181.85 93.3343 181.793 93.4118 181.657 93.5283C181.603 93.5467 181.457 93.5899 181.183 93.6128C180.694 93.6538 179.981 93.6106 179.092 93.3919C177.321 92.9567 175.092 91.8851 172.951 89.9025C168.753 86.0164 164.676 78.3997 165.651 64.797C166.698 50.1764 164.939 37.4976 160.724 28.8423C158.608 24.4972 155.778 20.9763 152.178 18.8588C148.5 16.6954 144.273 16.1513 139.791 17.3633C136.33 18.2993 133.557 19.8943 131.461 22.0918C129.37 24.2834 128.095 26.9252 127.394 29.7442C126.019 35.2696 126.787 41.741 128.128 47.8041C128.477 49.3789 128.873 50.9596 129.294 52.5231C128.535 52.7154 127.849 53.1963 127.415 53.9209C122.196 62.6315 123.825 71.0217 127.372 76.0793C129.065 78.4935 131.478 80.527 134.147 81.01C135.569 81.2673 137.167 81.0853 138.56 80.1033C139.926 79.141 140.707 77.6837 141.086 76.1374C141.523 74.352 141.228 72.1984 140.824 70.2612C140.393 68.1949 139.698 65.7925 138.925 63.2623C138.618 62.2595 138.298 61.2311 137.971 60.1822C136.618 55.8399 135.155 51.1477 134.122 46.4778C132.829 40.6345 132.332 35.3206 133.351 31.2262C133.846 29.2352 134.682 27.6086 135.903 26.3287C137.118 25.0546 138.856 23.9751 141.393 23.289C144.382 22.4807 146.897 22.8743 149.065 24.1498C151.312 25.4712 153.432 27.8905 155.205 31.5299ZM131.381 59.6626C131.639 60.4993 131.894 61.3184 132.143 62.1156C132.461 63.1348 132.768 64.1183 133.054 65.0569C133.825 67.5786 134.446 69.7472 134.815 71.5153C135.211 73.4126 135.202 74.3569 135.123 74.6775C135.1 74.7746 135.076 74.854 135.053 74.9185C134.508 74.729 133.461 74.0706 132.398 72.5544C130.456 69.7864 129.17 65.0899 131.381 59.6626Z" fill="url(#paint9_radial_482_4339)"/>
<path fill-rule="evenodd" clip-rule="evenodd" d="M155.205 31.5299C158.766 38.8434 160.534 50.3108 159.528 64.3583C158.448 79.4237 162.948 89.0078 168.781 94.4071C171.654 97.0672 174.804 98.6594 177.627 99.3531C179.034 99.699 180.423 99.8365 181.695 99.73C182.918 99.6276 184.297 99.2754 185.413 98.386C186.867 97.228 187.826 95.6985 187.985 93.8499C188.132 92.1432 187.554 90.5989 186.903 89.383C185.847 87.4108 184.019 85.3195 182.431 83.5032C182.147 83.1776 181.87 82.8608 181.607 82.5552C179.653 80.287 178.232 78.4203 177.689 76.7948C177.446 76.0658 177.436 75.5363 177.542 75.1113C177.647 74.6936 177.934 74.0945 178.77 73.3403C179.552 72.6354 181.03 72.2927 184.534 73.8076C187.541 75.1075 190.971 77.3175 194.818 79.7961C195.263 80.0827 195.713 80.373 196.169 80.6659C200.406 83.3867 205.089 86.3044 209.609 87.9181C214.142 89.5366 219.211 90.0848 223.633 87.0386C226.287 85.21 227.72 82.7902 228.258 80.222C228.775 77.7506 228.434 75.3038 227.877 73.2848C227.175 70.7414 226.026 68.2179 224.52 66.0409C221.804 62.1157 216.465 64.8885 219.483 69.4471C220.694 70.7575 221.496 73.2406 221.959 74.9175C222.367 76.3964 222.495 77.7888 222.249 78.965C222.023 80.0444 221.461 81.0807 220.15 81.9835C218.104 83.3934 215.416 83.4735 211.673 82.1369C207.916 80.7956 203.801 78.2713 199.486 75.5006C199.031 75.2082 198.572 74.9123 198.111 74.6149C194.369 72.2005 190.477 69.6893 186.97 68.1731C183.181 66.5348 178.379 65.4268 174.659 68.7819C173.107 70.1818 172.045 71.7942 171.587 73.6202C171.132 75.4389 171.348 77.1854 171.867 78.7394C172.849 81.68 175.1 84.4079 176.956 86.5617C177.292 86.9517 177.616 87.3247 177.927 87.6825C179.539 89.5363 180.796 90.9818 181.492 92.2814C181.834 92.9193 181.867 93.2281 181.87 93.3049C181.85 93.3343 181.793 93.4118 181.657 93.5283C181.603 93.5467 181.457 93.5899 181.183 93.6128C180.694 93.6538 179.981 93.6106 179.092 93.3919C177.321 92.9567 175.092 91.8851 172.951 89.9025C168.753 86.0164 164.676 78.3997 165.651 64.797C166.698 50.1764 164.939 37.4976 160.724 28.8423C158.608 24.4972 155.778 20.9763 152.178 18.8588C148.5 16.6954 144.273 16.1513 139.791 17.3633C136.33 18.2993 133.557 19.8943 131.461 22.0918C129.37 24.2834 128.095 26.9252 127.394 29.7442C126.019 35.2696 126.787 41.741 128.128 47.8041C128.477 49.3789 128.873 50.9596 129.294 52.5231C128.535 52.7154 127.849 53.1963 127.415 53.9209C122.196 62.6315 123.825 71.0217 127.372 76.0793C129.065 78.4935 131.478 80.527 134.147 81.01C135.569 81.2673 137.167 81.0853 138.56 80.1033C139.926 79.141 140.707 77.6837 141.086 76.1374C141.523 74.352 141.228 72.1984 140.824 70.2612C140.393 68.1949 139.698 65.7925 138.925 63.2623C138.618 62.2595 138.298 61.2311 137.971 60.1822C136.618 55.8399 135.155 51.1477 134.122 46.4778C132.829 40.6345 132.332 35.3206 133.351 31.2262C133.846 29.2352 134.682 27.6086 135.903 26.3287C137.118 25.0546 138.856 23.9751 141.393 23.289C144.382 22.4807 146.897 22.8743 149.065 24.1498C151.312 25.4712 153.432 27.8905 155.205 31.5299ZM131.381 59.6626C131.639 60.4993 131.894 61.3184 132.143 62.1156C132.461 63.1348 132.768 64.1183 133.054 65.0569C133.825 67.5786 134.446 69.7472 134.815 71.5153C135.211 73.4126 135.202 74.3569 135.123 74.6775C135.1 74.7746 135.076 74.854 135.053 74.9185C134.508 74.729 133.461 74.0706 132.398 72.5544C130.456 69.7864 129.17 65.0899 131.381 59.6626Z" fill="url(#paint10_radial_482_4339)"/>
<path fill-rule="evenodd" clip-rule="evenodd" d="M155.205 31.5299C158.766 38.8434 160.534 50.3108 159.528 64.3583C158.448 79.4237 162.948 89.0078 168.781 94.4071C171.654 97.0672 174.804 98.6594 177.627 99.3531C179.034 99.699 180.423 99.8365 181.695 99.73C182.918 99.6276 184.297 99.2754 185.413 98.386C186.867 97.228 187.826 95.6985 187.985 93.8499C188.132 92.1432 187.554 90.5989 186.903 89.383C185.847 87.4108 184.019 85.3195 182.431 83.5032C182.147 83.1776 181.87 82.8608 181.607 82.5552C179.653 80.287 178.232 78.4203 177.689 76.7948C177.446 76.0658 177.436 75.5363 177.542 75.1113C177.647 74.6936 177.934 74.0945 178.77 73.3403C179.552 72.6354 181.03 72.2927 184.534 73.8076C187.541 75.1075 190.971 77.3175 194.818 79.7961C195.263 80.0827 195.713 80.373 196.169 80.6659C200.406 83.3867 205.089 86.3044 209.609 87.9181C214.142 89.5366 219.211 90.0848 223.633 87.0386C226.287 85.21 227.72 82.7902 228.258 80.222C228.775 77.7506 228.434 75.3038 227.877 73.2848C227.175 70.7414 226.026 68.2179 224.52 66.0409C221.804 62.1157 216.465 64.8885 219.483 69.4471C220.694 70.7575 221.496 73.2406 221.959 74.9175C222.367 76.3964 222.495 77.7888 222.249 78.965C222.023 80.0444 221.461 81.0807 220.15 81.9835C218.104 83.3934 215.416 83.4735 211.673 82.1369C207.916 80.7956 203.801 78.2713 199.486 75.5006C199.031 75.2082 198.572 74.9123 198.111 74.6149C194.369 72.2005 190.477 69.6893 186.97 68.1731C183.181 66.5348 178.379 65.4268 174.659 68.7819C173.107 70.1818 172.045 71.7942 171.587 73.6202C171.132 75.4389 171.348 77.1854 171.867 78.7394C172.849 81.68 175.1 84.4079 176.956 86.5617C177.292 86.9517 177.616 87.3247 177.927 87.6825C179.539 89.5363 180.796 90.9818 181.492 92.2814C181.834 92.9193 181.867 93.2281 181.87 93.3049C181.85 93.3343 181.793 93.4118 181.657 93.5283C181.603 93.5467 181.457 93.5899 181.183 93.6128C180.694 93.6538 179.981 93.6106 179.092 93.3919C177.321 92.9567 175.092 91.8851 172.951 89.9025C168.753 86.0164 164.676 78.3997 165.651 64.797C166.698 50.1764 164.939 37.4976 160.724 28.8423C158.608 24.4972 155.778 20.9763 152.178 18.8588C148.5 16.6954 144.273 16.1513 139.791 17.3633C136.33 18.2993 133.557 19.8943 131.461 22.0918C129.37 24.2834 128.095 26.9252 127.394 29.7442C126.019 35.2696 126.787 41.741 128.128 47.8041C128.477 49.3789 128.873 50.9596 129.294 52.5231C128.535 52.7154 127.849 53.1963 127.415 53.9209C122.196 62.6315 123.825 71.0217 127.372 76.0793C129.065 78.4935 131.478 80.527 134.147 81.01C135.569 81.2673 137.167 81.0853 138.56 80.1033C139.926 79.141 140.707 77.6837 141.086 76.1374C141.523 74.352 141.228 72.1984 140.824 70.2612C140.393 68.1949 139.698 65.7925 138.925 63.2623C138.618 62.2595 138.298 61.2311 137.971 60.1822C136.618 55.8399 135.155 51.1477 134.122 46.4778C132.829 40.6345 132.332 35.3206 133.351 31.2262C133.846 29.2352 134.682 27.6086 135.903 26.3287C137.118 25.0546 138.856 23.9751 141.393 23.289C144.382 22.4807 146.897 22.8743 149.065 24.1498C151.312 25.4712 153.432 27.8905 155.205 31.5299ZM131.381 59.6626C131.639 60.4993 131.894 61.3184 132.143 62.1156C132.461 63.1348 132.768 64.1183 133.054 65.0569C133.825 67.5786 134.446 69.7472 134.815 71.5153C135.211 73.4126 135.202 74.3569 135.123 74.6775C135.1 74.7746 135.076 74.854 135.053 74.9185C134.508 74.729 133.461 74.0706 132.398 72.5544C130.456 69.7864 129.17 65.0899 131.381 59.6626Z" fill="url(#paint11_radial_482_4339)"/>
<path fill-rule="evenodd" clip-rule="evenodd" d="M155.205 31.5299C158.766 38.8434 160.534 50.3108 159.528 64.3583C158.448 79.4237 162.948 89.0078 168.781 94.4071C171.654 97.0672 174.804 98.6594 177.627 99.3531C179.034 99.699 180.423 99.8365 181.695 99.73C182.918 99.6276 184.297 99.2754 185.413 98.386C186.867 97.228 187.826 95.6985 187.985 93.8499C188.132 92.1432 187.554 90.5989 186.903 89.383C185.847 87.4108 184.019 85.3195 182.431 83.5032C182.147 83.1776 181.87 82.8608 181.607 82.5552C179.653 80.287 178.232 78.4203 177.689 76.7948C177.446 76.0658 177.436 75.5363 177.542 75.1113C177.647 74.6936 177.934 74.0945 178.77 73.3403C179.552 72.6354 181.03 72.2927 184.534 73.8076C187.541 75.1075 190.971 77.3175 194.818 79.7961C195.263 80.0827 195.713 80.373 196.169 80.6659C200.406 83.3867 205.089 86.3044 209.609 87.9181C214.142 89.5366 219.211 90.0848 223.633 87.0386C226.287 85.21 227.72 82.7902 228.258 80.222C228.775 77.7506 228.434 75.3038 227.877 73.2848C227.175 70.7414 226.026 68.2179 224.52 66.0409C221.804 62.1157 216.465 64.8885 219.483 69.4471C220.694 70.7575 221.496 73.2406 221.959 74.9175C222.367 76.3964 222.495 77.7888 222.249 78.965C222.023 80.0444 221.461 81.0807 220.15 81.9835C218.104 83.3934 215.416 83.4735 211.673 82.1369C207.916 80.7956 203.801 78.2713 199.486 75.5006C199.031 75.2082 198.572 74.9123 198.111 74.6149C194.369 72.2005 190.477 69.6893 186.97 68.1731C183.181 66.5348 178.379 65.4268 174.659 68.7819C173.107 70.1818 172.045 71.7942 171.587 73.6202C171.132 75.4389 171.348 77.1854 171.867 78.7394C172.849 81.68 175.1 84.4079 176.956 86.5617C177.292 86.9517 177.616 87.3247 177.927 87.6825C179.539 89.5363 180.796 90.9818 181.492 92.2814C181.834 92.9193 181.867 93.2281 181.87 93.3049C181.85 93.3343 181.793 93.4118 181.657 93.5283C181.603 93.5467 181.457 93.5899 181.183 93.6128C180.694 93.6538 179.981 93.6106 179.092 93.3919C177.321 92.9567 175.092 91.8851 172.951 89.9025C168.753 86.0164 164.676 78.3997 165.651 64.797C166.698 50.1764 164.939 37.4976 160.724 28.8423C158.608 24.4972 155.778 20.9763 152.178 18.8588C148.5 16.6954 144.273 16.1513 139.791 17.3633C136.33 18.2993 133.557 19.8943 131.461 22.0918C129.37 24.2834 128.095 26.9252 127.394 29.7442C126.019 35.2696 126.787 41.741 128.128 47.8041C128.477 49.3789 128.873 50.9596 129.294 52.5231C128.535 52.7154 127.849 53.1963 127.415 53.9209C122.196 62.6315 123.825 71.0217 127.372 76.0793C129.065 78.4935 131.478 80.527 134.147 81.01C135.569 81.2673 137.167 81.0853 138.56 80.1033C139.926 79.141 140.707 77.6837 141.086 76.1374C141.523 74.352 141.228 72.1984 140.824 70.2612C140.393 68.1949 139.698 65.7925 138.925 63.2623C138.618 62.2595 138.298 61.2311 137.971 60.1822C136.618 55.8399 135.155 51.1477 134.122 46.4778C132.829 40.6345 132.332 35.3206 133.351 31.2262C133.846 29.2352 134.682 27.6086 135.903 26.3287C137.118 25.0546 138.856 23.9751 141.393 23.289C144.382 22.4807 146.897 22.8743 149.065 24.1498C151.312 25.4712 153.432 27.8905 155.205 31.5299ZM131.381 59.6626C131.639 60.4993 131.894 61.3184 132.143 62.1156C132.461 63.1348 132.768 64.1183 133.054 65.0569C133.825 67.5786 134.446 69.7472 134.815 71.5153C135.211 73.4126 135.202 74.3569 135.123 74.6775C135.1 74.7746 135.076 74.854 135.053 74.9185C134.508 74.729 133.461 74.0706 132.398 72.5544C130.456 69.7864 129.17 65.0899 131.381 59.6626Z" fill="url(#paint12_radial_482_4339)"/>
<path fill-rule="evenodd" clip-rule="evenodd" d="M217.715 68.0827C215.814 67.5732 213.734 66.6908 211.573 65.325C211.839 67.1904 211.529 68.6933 210.643 69.9247C210.597 69.919 210.54 69.9105 210.472 69.898C209.748 69.7667 208.615 69.3037 207 68.3824C205.006 67.2444 202.858 65.7684 200.483 64.1372C198.945 63.08 197.311 61.9577 195.563 60.8199C191.406 58.1141 186.662 55.3777 182.194 54.5905C180.822 54.3487 179.405 54.277 177.999 54.4759C177.53 56.9116 176.977 59.3807 176.33 61.8635C176.791 61.3861 177.25 61.0835 177.684 60.8876C178.542 60.5006 179.651 60.3755 181.129 60.6359C184.233 61.1827 188.036 63.2456 192.214 65.9647C193.646 66.8965 195.149 67.9267 196.649 68.9544C199.223 70.7184 201.787 72.475 203.958 73.7141C205.706 74.7111 207.585 75.6128 209.375 75.9378C211.279 76.2834 213.631 76.0328 215.272 73.977C216.741 72.1369 217.48 70.1209 217.715 68.0827Z" fill="url(#paint13_linear_482_4339)"/>
<path d="M99.4566 12.1026C77.3977 6.08951 65.509 19.3096 47.0083 22.2577L105.22 45.823C118.973 46.639 99.2468 20.0287 113.683 23.0211C113.683 23.0211 107.826 14.384 99.4566 12.1026Z" fill="url(#paint14_linear_482_4339)"/>
<path fill-rule="evenodd" clip-rule="evenodd" d="M108.676 17.4526C107.774 16.6443 106.768 15.8316 105.67 15.0789C103.721 15.8247 102.272 16.8212 101.237 18.0602C99.1766 20.5254 99.1128 23.5339 99.288 26.0395C99.3329 26.6805 99.3966 27.3187 99.4573 27.9246L99.4586 27.9377L99.4586 27.9377C99.5196 28.5471 99.5772 29.1223 99.6165 29.6811C99.6968 30.8205 99.6897 31.7662 99.5195 32.5554C99.3576 33.3063 99.0569 33.8764 98.5452 34.3351C98.0111 34.8139 97.1165 35.2876 95.5751 35.5907L96.0938 38.7141C98.0012 38.339 99.503 37.678 100.613 36.6831C101.745 35.6682 102.336 34.4255 102.613 33.1416C102.881 31.896 102.861 30.585 102.775 29.363C102.732 28.7571 102.67 28.1421 102.611 27.5488L102.611 27.5488L102.607 27.5133C102.546 26.9007 102.487 26.3089 102.446 25.7229C102.278 23.3209 102.461 21.4712 103.635 20.0653C104.461 19.0778 105.948 18.1093 108.676 17.4526Z" fill="#48E758"/>
<path fill-rule="evenodd" clip-rule="evenodd" d="M100.065 12.2799C95.912 13.1674 93.9844 14.594 93.0753 16.0167C92.0027 17.6953 92.023 19.8414 92.4476 22.5104C92.551 23.1602 92.6729 23.8146 92.7984 24.4862L92.8053 24.5231C92.9273 25.1757 93.0527 25.8466 93.1581 26.5077C93.3709 27.8416 93.523 29.2497 93.3884 30.5934C93.2509 31.9656 92.808 33.3324 91.7877 34.5025C90.7763 35.6624 89.323 36.4849 87.4227 37.0091L86.6029 33.9448C88.0918 33.534 88.9241 32.9751 89.4077 32.4205C89.8825 31.876 90.1442 31.195 90.2339 30.2991C90.3266 29.3747 90.2287 28.2944 90.0275 27.0326C89.9287 26.4137 89.81 25.7784 89.6854 25.1116L89.6853 25.1113L89.6821 25.0942C89.5577 24.4286 89.4279 23.7328 89.3167 23.034C88.8832 20.3085 88.6418 17.0827 90.4095 14.3162C91.2522 12.9974 92.4813 11.8845 94.1652 10.9851C95.8652 11.2361 97.6257 11.6026 99.4562 12.1016C99.6606 12.1573 99.8635 12.2168 100.065 12.2799Z" fill="#FFD33C"/>
<path d="M105.039 45.7122C104.345 41.9296 103.348 37.3554 99.5383 36.6235C95.7291 35.8917 93.8054 41.0912 93.8054 41.0912L105.039 45.7122Z" fill="url(#paint15_linear_482_4339)"/>
<path d="M102.211 37.6393C102.211 37.6393 70.3728 25.5699 46.1978 22.2559L88.5822 76.5195C99.8293 67.956 89.8988 45.868 102.211 37.6393Z" fill="url(#paint16_linear_482_4339)"/>
<path fill-rule="evenodd" clip-rule="evenodd" d="M96.7688 35.6714C95.7123 35.2999 94.5228 34.8869 93.2189 34.4424C92.2257 35.3506 91.449 36.4709 90.8285 37.6771C89.2102 40.8231 88.4266 45.0195 87.8715 49.0561C87.6741 50.4911 87.5055 51.9032 87.3427 53.2671L87.3427 53.2671C87.0328 55.8629 86.7437 58.2842 86.3167 60.3577C85.9935 61.9271 85.6185 63.1386 85.1741 63.9689C84.7242 64.8097 84.3694 64.966 84.2104 65.0022L84.7746 67.957C86.4202 67.5825 87.4555 66.3771 88.1103 65.1536C88.7707 63.9197 89.2151 62.3643 89.5553 60.7125C90.0062 58.5229 90.322 55.8839 90.6428 53.2034C90.8024 51.8692 90.9634 50.5246 91.1428 49.22C91.7005 45.165 92.4398 41.4382 93.789 38.8155C94.4537 37.5232 95.2073 36.6198 96.0405 36.0636C96.2658 35.9132 96.5073 35.7811 96.7688 35.6714Z" fill="#48E758"/>
<path fill-rule="evenodd" clip-rule="evenodd" d="M76.1383 60.5887L78.0437 63.0282C78.5985 62.5377 79.0248 61.936 79.3513 61.3272C79.9962 60.1249 80.4153 58.6115 80.7272 57.0141C81.1409 54.8958 81.4131 52.3376 81.689 49.7439C81.8261 48.4553 81.9641 47.1579 82.1209 45.9013C82.6101 41.9808 83.2836 38.3994 84.572 35.8967C85.2049 34.6672 85.9269 33.8193 86.7279 33.3026C87.1201 33.0496 87.5691 32.8511 88.0984 32.7339C86.837 32.3222 85.5147 31.8974 84.1416 31.4648C83.0694 32.3684 82.2507 33.5164 81.6119 34.7574C80.0437 37.8036 79.3313 41.874 78.8448 45.7732C78.6712 47.1644 78.5262 48.5314 78.3863 49.8506L78.3862 49.851L78.3862 49.851C78.1204 52.3571 77.8729 54.6906 77.4826 56.6888C77.1872 58.2017 76.8364 59.3569 76.4165 60.1398C76.3183 60.3229 76.2252 60.4701 76.1383 60.5887Z" fill="#FFD33C"/>
<path d="M88.663 76.5652C91.0059 73.2938 93.7047 69.2322 91.0297 66.1455C88.3548 63.0587 79.6779 66.1455 79.6779 66.1455L88.663 76.5652Z" fill="url(#paint17_linear_482_4339)"/>
<path d="M91.16 66.2092C91.16 66.2092 67.9058 43.8065 49.8974 25.2055L54.0052 95.2465C70.222 96.3993 74.2963 64.0967 91.16 66.2092Z" fill="url(#paint18_linear_482_4339)"/>
<path d="M23.2039 91.0472L36.7531 52.8037L36.3078 46.0168L15.5881 84.0173L23.2039 91.0472Z" fill="url(#paint19_linear_482_4339)"/>
<path d="M22.6601 78.8933L36.3365 46.4552L35.8193 38.5737L17.3456 71.364L22.6601 78.8933Z" fill="url(#paint20_linear_482_4339)"/>
<path d="M27.2177 63.8938L36.066 38.4524L39.4151 21.5968L15.9397 52.7353L27.2177 63.8938Z" fill="url(#paint21_linear_482_4339)"/>
<path d="M39.5819 22.0002L22.9695 35.2784L29.3304 42.351L39.5819 22.0002Z" fill="url(#paint22_linear_482_4339)"/>
<path fill-rule="evenodd" clip-rule="evenodd" d="M53.4541 85.8453L53.6031 88.3867C55.1259 88.2703 56.4749 87.6814 57.5964 86.9989C59.0316 86.1254 60.444 84.8864 61.8294 83.4887C63.664 81.6377 65.6032 79.3454 67.5888 76.9981L67.5889 76.9981L67.589 76.9979C68.5854 75.82 69.5935 74.6284 70.6059 73.4717C73.7039 69.9324 76.8718 66.6814 80.1313 64.6399C81.7513 63.6254 83.2863 62.9796 84.7329 62.708C85.639 62.5378 86.547 62.5065 87.4851 62.6501C86.7191 61.9063 85.8485 61.0598 84.8878 60.1239C84.4759 60.1642 84.0663 60.223 83.6596 60.2993C81.4426 60.7157 79.4096 61.6361 77.5565 62.7967C73.87 65.1055 70.472 68.6413 67.38 72.1738C66.2975 73.4105 65.2545 74.644 64.2429 75.8402L64.2428 75.8404L64.2427 75.8404C62.3019 78.1356 60.477 80.2938 58.7109 82.0756C57.3754 83.423 56.1597 84.4626 55.0595 85.1321C54.3711 85.5511 53.8435 85.7556 53.4541 85.8453Z" fill="#48E758"/>
<path fill-rule="evenodd" clip-rule="evenodd" d="M52.8043 74.7767L53.0164 78.3918C53.0595 78.3662 53.1024 78.3404 53.145 78.3145C54.5802 77.4411 55.9924 76.2021 57.3778 74.8043C59.2123 72.9534 61.1514 70.6611 63.1369 68.3138L63.137 68.3137C64.1334 67.1359 65.1414 65.9442 66.1539 64.7875C69.2516 61.2482 72.4194 57.9973 75.6788 55.9558C76.8244 55.2383 77.9276 54.7052 78.9871 54.3585C78.2943 53.679 77.5813 52.9789 76.8508 52.2605C75.5287 52.7361 74.2801 53.376 73.104 54.1126C69.4177 56.4214 66.0199 59.9572 62.9281 63.4896C61.8456 64.7264 60.8026 65.9598 59.7911 67.1561L59.791 67.1562C57.8503 69.4513 56.0255 71.6094 54.2594 73.3913C53.7575 73.8976 53.2726 74.3605 52.8043 74.7767Z" fill="#FFD33C"/>
<path d="M54.0678 95.5177C57.4421 93.0106 61.4492 89.8562 60.3947 86.5201C59.3402 83.1841 53.3647 84.3974 53.3647 84.3974L54.0678 95.5177Z" fill="url(#paint23_linear_482_4339)"/>
<path d="M20.0274 90.4546C24.9483 100.017 55.0492 80.5238 60.5665 87.4726C60.5665 68.3876 53.1175 26.6437 48.4309 21.5895H40.4637C31.7439 25.9018 40.4637 48.7471 20.0274 90.4546Z" fill="url(#paint24_linear_482_4339)"/>
<path fill-rule="evenodd" clip-rule="evenodd" d="M21.8933 86.5268C22.6278 86.4079 23.39 86.2643 24.1723 86.1026C27.073 85.5031 30.4321 84.612 33.8871 83.6955C35.6287 83.2336 37.3946 82.7652 39.1384 82.3243C44.4279 80.9872 49.5615 79.8896 53.6836 79.7853C56.9305 79.7032 59.1004 80.2419 60.3655 81.334C60.2938 80.1149 60.2038 78.848 60.097 77.5422C58.1758 76.7745 55.8859 76.5544 53.5702 76.6129C49.0573 76.7271 43.6165 77.9109 38.3295 79.2474C36.494 79.7114 34.6812 80.1924 32.9191 80.66C29.5233 81.5612 26.3159 82.4123 23.498 82.9948C23.4874 82.997 23.4769 82.9991 23.4663 83.0013C22.9651 84.1602 22.4411 85.3353 21.8933 86.5268Z" fill="#48E758"/>
<path fill-rule="evenodd" clip-rule="evenodd" d="M26.3759 75.8035C28.7205 75.2548 31.2762 74.5769 33.8866 73.8845L33.8867 73.8844C35.6282 73.4225 37.3942 72.9541 39.138 72.5132C44.4275 71.1761 49.5612 70.0784 53.6833 69.9742C56.251 69.9093 58.1451 70.2326 59.4509 70.9107C59.321 69.7456 59.1814 68.5637 59.0328 67.3703C57.3559 66.8936 55.4716 66.7537 53.5699 66.8018C49.057 66.9159 43.6161 68.0998 38.3291 69.4362C36.4936 69.9002 34.6808 70.3813 32.9188 70.8489L32.9186 70.8489C31.1063 71.3298 29.3477 71.7965 27.6733 72.2157C27.265 73.3913 26.833 74.5873 26.3759 75.8035Z" fill="#FFD33C"/>
<path fill-rule="evenodd" clip-rule="evenodd" d="M23.2076 38.0788C24.3118 38.6507 27.718 40.25 26.9258 42.0366C25.4993 45.2537 20.6165 46.8917 17.9957 48.9C16.3457 50.1644 14.6506 51.753 14.8524 53.9822C15.3196 59.1428 25.4382 58.4779 25.3241 63.1318C25.2602 65.7368 18.9301 68.3673 17.3058 70.4102C16.6581 71.2247 16.0754 72.3784 16.4286 73.7377C16.7621 75.0213 17.8119 75.9882 19.1154 76.7651C19.5057 76.9977 21.1747 77.8793 20.9509 78.566C20.3733 80.3385 17.9364 81.3233 16.7434 82.6321C16.1786 83.2517 15.6067 84.049 15.392 85.0292C14.9412 87.0867 16.2687 89.0835 19.0784 90.8616C20.8218 91.9649 22.4914 89.2944 20.748 88.1911C20.13 87.8 18.2794 86.7478 18.4968 85.7557C18.8648 84.076 21.3868 82.8949 22.5073 81.7783C23.0719 81.2156 23.6824 80.4879 23.9741 79.5926C24.2999 78.593 24.1806 77.5325 23.5417 76.5293C23.1012 75.8377 19.3123 73.5238 19.5176 72.8883C20.4019 70.1518 25.1803 68.6421 27.0657 66.4916C27.7994 65.6548 28.4686 64.5718 28.5007 63.262C28.5344 61.891 27.8662 60.6605 26.7416 59.5888C24.9513 57.8826 18.2796 56.6485 18.017 53.7488C17.9335 52.8259 19.3676 51.8792 19.957 51.4275C22.2504 49.6701 24.8626 48.354 27.1141 46.5459C28.2097 45.6661 29.2799 44.6124 29.8351 43.3602C30.4508 41.9717 30.3808 40.4491 29.3953 38.9839C28.4957 37.6462 26.8905 36.4374 24.634 35.2687C22.8029 34.3205 21.3765 37.1305 23.2076 38.0788Z" fill="url(#paint25_linear_482_4339)"/>
<defs>
<linearGradient id="paint0_linear_482_4339" x1="208.192" y1="89.8865" x2="189.246" y2="79.4103" gradientUnits="userSpaceOnUse">
<stop stop-color="#0FB100"/>
<stop offset="1" stop-color="#004D15"/>
</linearGradient>
<linearGradient id="paint1_linear_482_4339" x1="185.619" y1="82.4595" x2="174.988" y2="71.1833" gradientUnits="userSpaceOnUse">
<stop stop-color="#028224"/>
<stop offset="1" stop-color="#0FB300"/>
</linearGradient>
<linearGradient id="paint2_linear_482_4339" x1="165.556" y1="67.9862" x2="148.558" y2="58.6846" gradientUnits="userSpaceOnUse">
<stop stop-color="#00AD33"/>
<stop offset="1" stop-color="#004713"/>
</linearGradient>
<linearGradient id="paint3_linear_482_4339" x1="136.326" y1="68.4269" x2="129.233" y2="62.5715" gradientUnits="userSpaceOnUse">
<stop stop-color="#1BAC0D"/>
<stop offset="1" stop-color="#36E226"/>
</linearGradient>
<linearGradient id="paint4_linear_482_4339" x1="167.919" y1="30.9029" x2="181.16" y2="34.1049" gradientUnits="userSpaceOnUse">
<stop stop-color="#1A7503"/>
<stop offset="1" stop-color="#1A7503" stop-opacity="0"/>
</linearGradient>
<linearGradient id="paint5_linear_482_4339" x1="165.634" y1="32.3169" x2="173.638" y2="56.5846" gradientUnits="userSpaceOnUse">
<stop stop-color="#00B2FF"/>
<stop offset="1" stop-color="#00EFFF"/>
</linearGradient>
<linearGradient id="paint6_linear_482_4339" x1="156.248" y1="56.3288" x2="136.604" y2="35.2248" gradientUnits="userSpaceOnUse">
<stop stop-color="#007E23"/>
<stop offset="1" stop-color="#10BA00"/>
</linearGradient>
<linearGradient id="paint7_linear_482_4339" x1="177.455" y1="45.4465" x2="205.838" y2="46.3859" gradientUnits="userSpaceOnUse">
<stop stop-color="#00701E"/>
<stop offset="1" stop-color="#00B538"/>
</linearGradient>
<linearGradient id="paint8_linear_482_4339" x1="158.978" y1="18.2258" x2="166.678" y2="26.2034" gradientUnits="userSpaceOnUse">
<stop stop-color="#008324"/>
<stop offset="1" stop-color="#0FAE00"/>
</linearGradient>
<radialGradient id="paint9_radial_482_4339" cx="0" cy="0" r="1" gradientUnits="userSpaceOnUse" gradientTransform="translate(147.542 50.5996) rotate(79.1083) scale(34.4619 17.4338)">
<stop offset="0.417752" stop-color="#A75941"/>
<stop offset="1" stop-color="#A75941" stop-opacity="0"/>
</radialGradient>
<radialGradient id="paint10_radial_482_4339" cx="0" cy="0" r="1" gradientUnits="userSpaceOnUse" gradientTransform="translate(192.629 85.6729) rotate(40.9681) scale(24.5576 10.3331)">
<stop offset="0.417752" stop-color="#A75941"/>
<stop offset="1" stop-color="#A75941" stop-opacity="0"/>
</radialGradient>
<radialGradient id="paint11_radial_482_4339" cx="0" cy="0" r="1" gradientUnits="userSpaceOnUse" gradientTransform="translate(157.307 95.0321) rotate(30.7681) scale(27.0744 11.3921)">
<stop offset="0.417752" stop-color="#A75941"/>
<stop offset="1" stop-color="#A75941" stop-opacity="0"/>
</radialGradient>
<radialGradient id="paint12_radial_482_4339" cx="0" cy="0" r="1" gradientUnits="userSpaceOnUse" gradientTransform="translate(125.49 47.8526) rotate(68.0228) scale(19.0371 3.39268)">
<stop stop-color="#A75941"/>
<stop offset="1" stop-color="#A75941" stop-opacity="0"/>
</radialGradient>
<linearGradient id="paint13_linear_482_4339" x1="180.156" y1="57.3824" x2="199.006" y2="62.2828" gradientUnits="userSpaceOnUse">
<stop stop-color="#00B2FF"/>
<stop offset="1" stop-color="#00EFFF"/>
</linearGradient>
<linearGradient id="paint14_linear_482_4339" x1="72.1315" y1="28.0333" x2="73.92" y2="17.206" gradientUnits="userSpaceOnUse">
<stop stop-color="#AE001F"/>
<stop offset="1" stop-color="#FF002D"/>
</linearGradient>
<linearGradient id="paint15_linear_482_4339" x1="96.9921" y1="40.8078" x2="98.8846" y2="47.9235" gradientUnits="userSpaceOnUse">
<stop stop-color="#700014"/>
<stop offset="1" stop-color="#CB0024"/>
</linearGradient>
<linearGradient id="paint16_linear_482_4339" x1="74.3949" y1="44.5005" x2="80.5386" y2="36.8315" gradientUnits="userSpaceOnUse">
<stop stop-color="#AE001F"/>
<stop offset="1" stop-color="#FF002D"/>
</linearGradient>
<linearGradient id="paint17_linear_482_4339" x1="85.6168" y1="67.5514" x2="82.5413" y2="74.4673" gradientUnits="userSpaceOnUse">
<stop stop-color="#700014"/>
<stop offset="1" stop-color="#CB0024"/>
</linearGradient>
<linearGradient id="paint18_linear_482_4339" x1="56.8943" y1="60.1166" x2="67.9079" y2="58.0076" gradientUnits="userSpaceOnUse">
<stop stop-color="#AE001F"/>
<stop offset="1" stop-color="#FF002D"/>
</linearGradient>
<linearGradient id="paint19_linear_482_4339" x1="17.1589" y1="83.9601" x2="23.7772" y2="86.7854" gradientUnits="userSpaceOnUse">
<stop stop-color="#AE001F"/>
<stop offset="1" stop-color="#FF002D"/>
</linearGradient>
<linearGradient id="paint20_linear_482_4339" x1="19.8663" y1="72.8468" x2="25.4881" y2="75.3422" gradientUnits="userSpaceOnUse">
<stop stop-color="#AE001F"/>
<stop offset="1" stop-color="#FF002D"/>
</linearGradient>
<linearGradient id="paint21_linear_482_4339" x1="17.6855" y1="59.0072" x2="23.0812" y2="62.5819" gradientUnits="userSpaceOnUse">
<stop stop-color="#AE001F"/>
<stop offset="1" stop-color="#FF002D"/>
</linearGradient>
<linearGradient id="paint22_linear_482_4339" x1="24.8597" y1="40.7557" x2="28.7645" y2="42.2432" gradientUnits="userSpaceOnUse">
<stop stop-color="#AE001F"/>
<stop offset="1" stop-color="#FF002D"/>
</linearGradient>
<linearGradient id="paint23_linear_482_4339" x1="55.1222" y1="86.7222" x2="49.9072" y2="92.6501" gradientUnits="userSpaceOnUse">
<stop stop-color="#700014"/>
<stop offset="1" stop-color="#CB0024"/>
</linearGradient>
<linearGradient id="paint24_linear_482_4339" x1="32.6535" y1="50.8442" x2="53.9614" y2="48.9267" gradientUnits="userSpaceOnUse">
<stop stop-color="#AE001F"/>
<stop offset="1" stop-color="#FF002D"/>
</linearGradient>
<linearGradient id="paint25_linear_482_4339" x1="21.0042" y1="36.817" x2="23.5698" y2="89.3486" gradientUnits="userSpaceOnUse">
<stop stop-color="#E7BA48"/>
<stop offset="1" stop-color="#A1E748"/>
</linearGradient>
</defs>
</svg>
