<svg viewBox="0 0 240 120" fill="none" xmlns="http://www.w3.org/2000/svg">
<path d="M170.665 110.29H18.6025V120H170.665V110.29Z" fill="url(#paint0_linear_392_13941)"/>
<path d="M170.665 110.29H18.6025V120H170.665V110.29Z" fill="url(#paint1_linear_392_13941)"/>
<path d="M130.665 99.2393H54.6025L18.7206 110.263H170.665L130.665 99.2393Z" fill="url(#paint2_linear_392_13941)"/>
<path d="M130.665 99.2393H54.6025L18.7206 110.263H170.665L130.665 99.2393Z" fill="url(#paint3_linear_392_13941)"/>
<path d="M79.6092 107.051C94.7496 107.017 131.112 107.051 131.112 107.051C114.295 104.755 91.2729 102.539 79.6097 102.539C61.9339 102.539 64.4688 107.086 79.6092 107.051Z" fill="url(#paint4_radial_392_13941)"/>
<path fill-rule="evenodd" clip-rule="evenodd" d="M148.974 81.1741C148.716 71.6198 141.546 66.7129 134.755 65.6355L136.148 56.854C145.676 58.3656 157.453 65.749 157.862 80.9347C158.248 95.2636 147.819 102.04 142.559 105.337L137.837 97.8034C143.09 94.5102 149.215 90.1461 148.974 81.1741Z" fill="#B5B2BC"/>
<path fill-rule="evenodd" clip-rule="evenodd" d="M148.974 81.1741C148.716 71.6198 141.546 66.7129 134.755 65.6355L136.148 56.854C145.676 58.3656 157.453 65.749 157.862 80.9347C158.248 95.2636 147.819 102.04 142.559 105.337L137.837 97.8034C143.09 94.5102 149.215 90.1461 148.974 81.1741Z" fill="url(#paint5_radial_392_13941)"/>
<path fill-rule="evenodd" clip-rule="evenodd" d="M153.37 81.0779C153.052 69.2596 144.029 63.357 136.138 62.1051L136.411 60.3845C144.838 61.7215 154.763 68.1093 155.111 81.031C155.439 93.2062 146.741 99.0127 141.484 102.308L140.558 100.832C145.814 97.5374 153.67 92.2035 153.37 81.0779Z" fill="url(#paint6_radial_392_13941)"/>
<path d="M100.832 77.243C101.846 75.7955 103.841 75.444 105.288 76.4579L138.386 99.6412C139.833 100.655 140.184 102.65 139.171 104.098C138.157 105.545 136.161 105.897 134.714 104.883L101.617 81.6997C100.169 80.6858 99.8177 78.6905 100.832 77.243Z" fill="url(#paint7_linear_392_13941)"/>
<path d="M100.832 77.243C101.846 75.7955 103.841 75.444 105.288 76.4579L138.386 99.6412C139.833 100.655 140.184 102.65 139.171 104.098C138.157 105.545 136.161 105.897 134.714 104.883L101.617 81.6997C100.169 80.6858 99.8177 78.6905 100.832 77.243Z" fill="url(#paint8_radial_392_13941)"/>
<path d="M93.6357 103.924C93.6357 99.764 97.0077 96.392 101.167 96.392H155.928C160.088 96.392 163.46 99.764 163.46 103.924V104.049C163.46 105.713 162.111 107.062 160.447 107.062H96.6484C94.9845 107.062 93.6357 105.713 93.6357 104.049V103.924Z" fill="url(#paint9_linear_392_13941)"/>
<path d="M93.6357 103.924C93.6357 99.764 97.0077 96.392 101.167 96.392H155.928C160.088 96.392 163.46 99.764 163.46 103.924V104.049C163.46 105.713 162.111 107.062 160.447 107.062H96.6484C94.9845 107.062 93.6357 105.713 93.6357 104.049V103.924Z" fill="url(#paint10_radial_392_13941)"/>
<path d="M126.407 57.8614C128.612 56.3138 131.654 56.8463 133.201 59.051C134.749 61.2556 134.216 64.2974 132.012 65.8451L127.405 69.0793C125.2 70.6269 122.158 70.0943 120.611 67.8897C119.063 65.6851 119.595 62.6432 121.8 61.0956L126.407 57.8614Z" fill="url(#paint11_linear_392_13941)"/>
<path d="M126.407 57.8614C128.612 56.3138 131.654 56.8463 133.201 59.051C134.749 61.2556 134.216 64.2974 132.012 65.8451L127.405 69.0793C125.2 70.6269 122.158 70.0943 120.611 67.8897C119.063 65.6851 119.595 62.6432 121.8 61.0956L126.407 57.8614Z" fill="url(#paint12_radial_392_13941)"/>
<path d="M148.962 41.8985C145.586 40.2433 141.435 40.4294 138.141 42.7425L126.782 50.7163C121.965 54.0974 120.802 60.7426 124.183 65.559C127.564 70.3753 134.209 71.5388 139.026 68.1577L150.384 60.1839C153.679 57.8708 155.265 54.0301 154.855 50.2925L148.962 41.8985Z" fill="url(#paint13_linear_392_13941)"/>
<path d="M148.962 41.8985C145.586 40.2433 141.435 40.4294 138.141 42.7425L126.782 50.7163C121.965 54.0974 120.802 60.7426 124.183 65.559C127.564 70.3753 134.209 71.5388 139.026 68.1577L150.384 60.1839C153.679 57.8708 155.265 54.0301 154.855 50.2925L148.962 41.8985Z" fill="url(#paint14_radial_392_13941)"/>
<path d="M148.962 41.8985C145.586 40.2433 141.435 40.4294 138.141 42.7425L126.782 50.7163C121.965 54.0974 120.802 60.7426 124.183 65.559C127.564 70.3753 134.209 71.5388 139.026 68.1577L150.384 60.1839C153.679 57.8708 155.265 54.0301 154.855 50.2925L148.962 41.8985Z" fill="url(#paint15_radial_392_13941)"/>
<path d="M148.962 41.8985C145.586 40.2433 141.435 40.4294 138.141 42.7425L126.782 50.7163C121.965 54.0974 120.802 60.7426 124.183 65.559C127.564 70.3753 134.209 71.5388 139.026 68.1577L150.384 60.1839C153.679 57.8708 155.265 54.0301 154.855 50.2925L148.962 41.8985Z" fill="url(#paint16_linear_392_13941)"/>
<path d="M148.962 41.8985C145.586 40.2433 141.435 40.4294 138.141 42.7425L126.782 50.7163C121.965 54.0974 120.802 60.7426 124.183 65.559C127.564 70.3753 134.209 71.5388 139.026 68.1577L150.384 60.1839C153.679 57.8708 155.265 54.0301 154.855 50.2925L148.962 41.8985Z" fill="url(#paint17_radial_392_13941)"/>
<path d="M148.962 41.8985C145.586 40.2433 141.435 40.4294 138.141 42.7425L126.782 50.7163C121.965 54.0974 120.802 60.7426 124.183 65.559C127.564 70.3753 134.209 71.5388 139.026 68.1577L150.384 60.1839C153.679 57.8708 155.265 54.0301 154.855 50.2925L148.962 41.8985Z" fill="url(#paint18_radial_392_13941)"/>
<path d="M152.446 39.4508C153.58 38.6541 155.146 38.9283 155.943 40.0631L158.96 44.3477C159.756 45.4825 159.482 47.0482 158.347 47.8449L154.848 50.3013L148.946 41.9072L152.446 39.4508Z" fill="url(#paint19_linear_392_13941)"/>
<path d="M152.446 39.4508C153.58 38.6541 155.146 38.9283 155.943 40.0631L158.96 44.3477C159.756 45.4825 159.482 47.0482 158.347 47.8449L154.848 50.3013L148.946 41.9072L152.446 39.4508Z" fill="url(#paint20_linear_392_13941)"/>
<path d="M152.446 39.4508C153.58 38.6541 155.146 38.9283 155.943 40.0631L158.96 44.3477C159.756 45.4825 159.482 47.0482 158.347 47.8449L154.848 50.3013L148.946 41.9072L152.446 39.4508Z" fill="url(#paint21_radial_392_13941)"/>
<path d="M125.098 52.1804C125.597 51.6451 126.159 51.1534 126.782 50.7162L129.637 48.7115L141.881 66.153L139.025 68.1576C138.403 68.5948 137.749 68.956 137.076 69.2432L125.098 52.1804Z" fill="url(#paint22_linear_392_13941)"/>
<path d="M125.098 52.1804C125.597 51.6451 126.159 51.1534 126.782 50.7162L129.637 48.7115L141.881 66.153L139.025 68.1576C138.403 68.5948 137.749 68.956 137.076 69.2432L125.098 52.1804Z" fill="url(#paint23_linear_392_13941)"/>
<path d="M125.098 52.1804C125.597 51.6451 126.159 51.1534 126.782 50.7162L129.637 48.7115L141.881 66.153L139.025 68.1576C138.403 68.5948 137.749 68.956 137.076 69.2432L125.098 52.1804Z" fill="url(#paint24_linear_392_13941)"/>
<path d="M209.069 50.8375C208.105 50.4792 202.216 47.1776 202.216 41.107L194.189 23.8682L185.318 27.0214L186.707 51.7684L191.099 57.0558C191.521 57.5464 193.439 62.2599 191.099 68.9142C191.099 68.9142 205.221 59.1029 209.069 50.8375Z" fill="url(#paint25_linear_392_13941)"/>
<path d="M212.566 56.0329L207.634 52.9941L190.655 69.1884C187.657 77.7131 179.31 84.4525 179.792 89.7486C180.273 95.0447 185.389 100.243 183.945 120H216.579C215.946 114.954 226.133 92.4247 224.021 80.0212C222.331 70.0984 215.721 59.462 212.566 56.0329Z" fill="url(#paint26_linear_392_13941)"/>
<path d="M169.485 37.8812C168.426 36.2924 165.425 33.1147 167.013 24.4643C169.485 11.7126 188.076 21.6949 191.199 27.057C193.315 30.6898 190.562 38.9003 191.901 41.1887C195.079 46.6172 188.86 52.3574 186.433 54.2993C184.005 56.2412 179.283 57.9184 177.738 57.2122C176.194 56.506 176.723 53.9021 176.591 53.5932C176.485 53.346 175.223 53.4902 174.605 53.5932C174.384 53.2254 173.996 52.3574 174.208 51.8278C173.678 51.8984 173.016 51.4747 172.751 51.254L172.398 47.635C171.268 47.8468 169.147 47.5907 168.646 47.0169C168.646 44.1482 170.332 39.1523 169.485 37.8812Z" fill="url(#paint27_linear_392_13941)"/>
<path d="M173.194 47.0618C174.165 46.7087 173.547 45.4288 172.93 44.502C170.494 44.6785 170.09 46.2821 170.193 47.0618C170.87 47.1795 172.418 47.3442 173.194 47.0618Z" fill="url(#paint28_linear_392_13941)"/>
<path d="M170.06 34.7477C172.567 34.6771 174.547 36.0716 175.224 36.7776C174.517 38.0837 171.487 38.381 170.06 38.3664C169.265 37.4838 170.109 34.7465 170.06 34.7477Z" fill="url(#paint29_linear_392_13941)"/>
<path fill-rule="evenodd" clip-rule="evenodd" d="M174.38 38.5461C175.119 38.3032 175.837 37.9194 176.25 37.2897L174.967 36.5566C174.816 36.7869 174.479 37.025 173.881 37.2217C173.296 37.4139 172.555 37.5352 171.738 37.5979C170.108 37.7231 168.308 37.605 167.154 37.4563V38.1655C167.977 38.774 170.092 39.1331 171.862 38.9972C172.746 38.9293 173.627 38.7935 174.38 38.5461Z" fill="#5D5273"/>
<path fill-rule="evenodd" clip-rule="evenodd" d="M172.68 50.5172C173.68 50.2653 174.85 50.5653 176.503 51.564L175.355 52.3587H174.157C174.136 52.1672 174.147 51.9837 174.209 51.829C173.679 51.8996 173.017 51.476 172.752 51.2553L172.68 50.5172Z" fill="url(#paint30_linear_392_13941)"/>
<path fill-rule="evenodd" clip-rule="evenodd" d="M173.948 51.8272C174.823 51.5518 175.919 51.5831 176.459 51.652C176.482 52.3554 176.118 53.0069 175.745 53.4643C175.35 53.4847 174.903 53.5439 174.605 53.5935C174.384 53.2257 173.996 52.3577 174.208 51.8281C174.124 51.8393 174.037 51.838 173.948 51.8272Z" fill="url(#paint31_linear_392_13941)"/>
<path d="M162.937 85.9809C165.786 87.9178 169.774 88.7159 173.192 97.1484L169.301 104.921C167.38 102.672 161.85 102.531 159.319 101.735C156.789 100.938 150.322 97.5172 150.368 95.174L152.665 95.6427C151.821 95.3459 149.759 94.443 148.26 93.2058C146.76 91.9686 147.317 90.6908 147.782 90.2066C148.375 90.544 151.284 91.1907 152.665 91.4719C151.037 90.9095 147.531 89.5692 146.526 88.707C145.269 87.6291 146.187 85.9809 147.782 85.9809C149.058 85.9809 152.644 87.0446 154.277 87.5764C153.176 86.7028 150.837 85.6203 149.703 85.288C148.609 84.9675 147.782 83.3604 149.15 83.3604C151.702 82.9046 156.062 84.234 157.924 84.9557C157.868 83.954 157.493 82.9315 157.924 82.1197C158.354 81.3079 159.319 81.3027 159.319 81.3027C159.319 81.3027 160.658 84.4315 162.937 85.9809Z" fill="url(#paint32_linear_392_13941)"/>
<path d="M173.965 95.3696C171.065 97.6004 167.496 102.508 168.388 108.754C176.851 113.926 215.104 121.929 218.061 115.685C219.111 113.467 220.75 105.432 219.819 95.3696C219.346 90.2639 220.272 82.3259 219.819 75.9831C219.204 67.3738 216.788 64.8148 211.779 64.1727C203.079 63.0575 200.973 71.46 200.973 82.5165C200.973 92.991 203.989 101.865 203.989 101.865L173.965 95.3696Z" fill="url(#paint33_linear_392_13941)"/>
<path d="M173.965 95.3696C171.065 97.6004 167.496 102.508 168.388 108.754C176.851 113.926 215.104 121.929 218.061 115.685C219.111 113.467 220.75 105.432 219.819 95.3696C219.346 90.2639 220.272 82.3259 219.819 75.9831C219.204 67.3738 216.788 64.8148 211.779 64.1727C203.079 63.0575 200.973 71.46 200.973 82.5165C200.973 92.991 203.989 101.865 203.989 101.865L173.965 95.3696Z" fill="url(#paint34_radial_392_13941)"/>
<path d="M173.965 95.3696C171.065 97.6004 167.496 102.508 168.388 108.754C176.851 113.926 215.104 121.929 218.061 115.685C219.111 113.467 220.75 105.432 219.819 95.3696C219.346 90.2639 220.272 82.3259 219.819 75.9831C219.204 67.3738 216.788 64.8148 211.779 64.1727C203.079 63.0575 200.973 71.46 200.973 82.5165C200.973 92.991 203.989 101.865 203.989 101.865L173.965 95.3696Z" fill="url(#paint35_radial_392_13941)"/>
<path d="M186.079 37.6289C185.904 37.0797 184.477 34.2156 180.167 27.1543C184.502 22.3291 195.669 27.1543 191.071 27.9781C187.393 28.6371 187.612 34.0587 188.182 36.6871L186.079 37.6289Z" fill="#6B6180"/>
<path d="M189.743 8.45768C175.179 6.33922 165.049 19.815 168.188 21.6079C170.028 22.6588 179.145 29.8688 190.519 28.7216C200.097 28.7216 195.885 44.1976 202.85 43.002C203.912 42.8196 203.938 40.2951 203.909 39.2947C208.852 40.4951 213.518 49.3387 214.43 55.9C218.822 55.9 220.267 53.6468 220.267 53.6468C223.301 45.7021 216.324 33.7533 204.955 35.3017C203.909 29.8126 204.308 10.5761 189.743 8.45768Z" fill="url(#paint36_linear_392_13941)"/>
<path d="M189.743 8.45768C175.179 6.33922 165.049 19.815 168.188 21.6079C170.028 22.6588 179.145 29.8688 190.519 28.7216C200.097 28.7216 195.885 44.1976 202.85 43.002C203.912 42.8196 203.938 40.2951 203.909 39.2947C208.852 40.4951 213.518 49.3387 214.43 55.9C218.822 55.9 220.267 53.6468 220.267 53.6468C223.301 45.7021 216.324 33.7533 204.955 35.3017C203.909 29.8126 204.308 10.5761 189.743 8.45768Z" fill="url(#paint37_radial_392_13941)"/>
<path d="M196.231 33.9979C196.937 30.6436 191.729 25.2592 188.816 31.6146C187.325 34.8676 190.705 41.0591 191.906 41.0591C193.406 41.0591 195.525 37.3521 196.231 33.9979Z" fill="url(#paint38_linear_392_13941)"/>
<path d="M196.231 33.9979C196.937 30.6436 191.729 25.2592 188.816 31.6146C187.325 34.8676 190.705 41.0591 191.906 41.0591C193.406 41.0591 195.525 37.3521 196.231 33.9979Z" fill="url(#paint39_radial_392_13941)"/>
<path d="M212.665 56.1399C212.631 53.3401 208.263 44.1915 204.738 47.629L206.053 48.8431C209.521 51.2662 191.831 66.326 187.783 71.5884C180.692 80.8071 181.162 84.2866 180.353 86.6816C183.186 84.9612 189.922 79.1468 190.974 77.3657C192.027 75.5846 192.381 73.2076 191.943 71.5884L198.058 73.0141C199.509 71.0239 203.139 66.1932 206.053 62.7929C208.968 59.3926 210.978 56.5448 212.665 56.1399Z" fill="url(#paint40_linear_392_13941)"/>
<path d="M212.665 56.1399C212.631 53.3401 208.263 44.1915 204.738 47.629L206.053 48.8431C209.521 51.2662 191.831 66.326 187.783 71.5884C180.692 80.8071 181.162 84.2866 180.353 86.6816C183.186 84.9612 189.922 79.1468 190.974 77.3657C192.027 75.5846 192.381 73.2076 191.943 71.5884L198.058 73.0141C199.509 71.0239 203.139 66.1932 206.053 62.7929C208.968 59.3926 210.978 56.5448 212.665 56.1399Z" fill="url(#paint41_radial_392_13941)"/>
<path fill-rule="evenodd" clip-rule="evenodd" d="M30.9932 106.194H74.4201L40.6822 103.34L30.9932 106.194Z" fill="url(#paint42_radial_392_13941)"/>
<path fill-rule="evenodd" clip-rule="evenodd" d="M73.0419 51.3955C74.3798 51.3955 75.4645 52.4801 75.4645 53.8181C75.4645 55.1561 74.3798 56.2407 73.0419 56.2407H72.3177V70.8801L89.2423 100.194C90.7819 102.861 88.8574 106.194 85.7782 106.194H46.6086C43.5294 106.194 41.6049 102.861 43.1445 100.194L60.0695 70.8793V56.2407H59.3454C58.0074 56.2407 56.9228 55.1561 56.9228 53.8181C56.9228 52.4801 58.0074 51.3955 59.3454 51.3955H73.0419Z" fill="url(#paint43_linear_392_13941)"/>
<path fill-rule="evenodd" clip-rule="evenodd" d="M73.0419 51.3955C74.3798 51.3955 75.4645 52.4801 75.4645 53.8181C75.4645 55.1561 74.3798 56.2407 73.0419 56.2407H72.3177V70.8801L89.2423 100.194C90.7819 102.861 88.8574 106.194 85.7782 106.194H46.6086C43.5294 106.194 41.6049 102.861 43.1445 100.194L60.0695 70.8793V56.2407H59.3454C58.0074 56.2407 56.9228 55.1561 56.9228 53.8181C56.9228 52.4801 58.0074 51.3955 59.3454 51.3955H73.0419Z" fill="url(#paint44_radial_392_13941)"/>
<path fill-rule="evenodd" clip-rule="evenodd" d="M73.0419 51.3955C74.3798 51.3955 75.4645 52.4801 75.4645 53.8181C75.4645 55.1561 74.3798 56.2407 73.0419 56.2407H72.3177V70.8801L89.2423 100.194C90.7819 102.861 88.8574 106.194 85.7782 106.194H46.6086C43.5294 106.194 41.6049 102.861 43.1445 100.194L60.0695 70.8793V56.2407H59.3454C58.0074 56.2407 56.9228 55.1561 56.9228 53.8181C56.9228 52.4801 58.0074 51.3955 59.3454 51.3955H73.0419Z" fill="url(#paint45_radial_392_13941)"/>
<path fill-rule="evenodd" clip-rule="evenodd" d="M73.0419 51.3955C74.3798 51.3955 75.4645 52.4801 75.4645 53.8181C75.4645 55.1561 74.3798 56.2407 73.0419 56.2407H72.3177V70.8801L89.2423 100.194C90.7819 102.861 88.8574 106.194 85.7782 106.194H46.6086C43.5294 106.194 41.6049 102.861 43.1445 100.194L60.0695 70.8793V56.2407H59.3454C58.0074 56.2407 56.9228 55.1561 56.9228 53.8181C56.9228 52.4801 58.0074 51.3955 59.3454 51.3955H73.0419Z" fill="url(#paint46_linear_392_13941)"/>
<path fill-rule="evenodd" clip-rule="evenodd" d="M73.0419 51.3955C74.3798 51.3955 75.4645 52.4801 75.4645 53.8181C75.4645 55.1561 74.3798 56.2407 73.0419 56.2407H72.3177V70.8801L89.2423 100.194C90.7819 102.861 88.8574 106.194 85.7782 106.194H46.6086C43.5294 106.194 41.6049 102.861 43.1445 100.194L60.0695 70.8793V56.2407H59.3454C58.0074 56.2407 56.9228 55.1561 56.9228 53.8181C56.9228 52.4801 58.0074 51.3955 59.3454 51.3955H73.0419Z" fill="url(#paint47_linear_392_13941)"/>
<path d="M55.4648 84.9934L46.935 100.143C46.1844 101.477 47.1478 103.125 48.6778 103.125H83.665C85.2046 103.125 86.1668 101.458 85.397 100.125L76.6609 84.9933L55.4648 84.9934Z" fill="url(#paint48_linear_392_13941)"/>
<path d="M71.6778 53.8181C71.6778 52.4801 70.5932 51.3955 69.2552 51.3955H66.3579C67.6959 51.3955 68.7805 52.4801 68.7805 53.8181C68.7805 55.1561 67.6959 56.2407 66.3579 56.2407H65.6338C65.6338 56.2407 65.6338 68.7676 65.6338 70.4936C65.6338 72.2197 65.6338 73.5622 66.8698 75.5451C68.1059 77.528 80.2383 99.696 80.2383 99.696C81.8535 102.614 79.7431 106.194 76.4079 106.194H81.3367C84.7069 106.194 86.8134 102.546 85.1282 99.6272C85.1282 99.6272 74.3413 80.8633 72.1263 77.1421C69.9113 73.4209 68.5311 72.4754 68.5311 67.9365C68.5311 63.3977 68.5311 56.2407 68.5311 56.2407H69.2552C70.5932 56.2407 71.6778 55.1561 71.6778 53.8181Z" fill="url(#paint49_linear_392_13941)"/>
<defs>
<linearGradient id="paint0_linear_392_13941" x1="94.6338" y1="110.29" x2="94.6338" y2="120" gradientUnits="userSpaceOnUse">
<stop stop-color="#8694A8"/>
<stop offset="1" stop-color="#696389"/>
</linearGradient>
<linearGradient id="paint1_linear_392_13941" x1="94.6338" y1="110.29" x2="94.6338" y2="113.158" gradientUnits="userSpaceOnUse">
<stop stop-color="#F7E1FF"/>
<stop offset="1" stop-color="#F7E1FF" stop-opacity="0"/>
</linearGradient>
<linearGradient id="paint2_linear_392_13941" x1="50.665" y1="99.2393" x2="50.665" y2="110.263" gradientUnits="userSpaceOnUse">
<stop stop-color="#B6B2BE"/>
<stop offset="0.765625" stop-color="#DDDDEB"/>
</linearGradient>
<linearGradient id="paint3_linear_392_13941" x1="50.665" y1="111.894" x2="50.665" y2="104.751" gradientUnits="userSpaceOnUse">
<stop stop-color="#F7E1FF"/>
<stop offset="1" stop-color="#F3D0FF" stop-opacity="0"/>
</linearGradient>
<radialGradient id="paint4_radial_392_13941" cx="0" cy="0" r="1" gradientUnits="userSpaceOnUse" gradientTransform="translate(111.628 109.061) rotate(-175.351) scale(40.2305 13.2743)">
<stop offset="0.222795" stop-color="#747695"/>
<stop offset="1" stop-color="#747695" stop-opacity="0"/>
</radialGradient>
<radialGradient id="paint5_radial_392_13941" cx="0" cy="0" r="1" gradientUnits="userSpaceOnUse" gradientTransform="translate(138.15 70.4339) rotate(-49.9824) scale(11.3829 19.8636)">
<stop offset="0.338608" stop-color="#765398"/>
<stop offset="1" stop-color="#A892C0" stop-opacity="0"/>
</radialGradient>
<radialGradient id="paint6_radial_392_13941" cx="0" cy="0" r="1" gradientUnits="userSpaceOnUse" gradientTransform="translate(154.022 82.7924) rotate(180) scale(9.14609 16.9856)">
<stop stop-color="#D5CDDD"/>
<stop offset="1" stop-color="#D5CDDD" stop-opacity="0"/>
</radialGradient>
<linearGradient id="paint7_linear_392_13941" x1="101.403" y1="79.0934" x2="134.04" y2="101.374" gradientUnits="userSpaceOnUse">
<stop stop-color="#43B6FF"/>
<stop offset="1" stop-color="#4184D5"/>
</linearGradient>
<radialGradient id="paint8_radial_392_13941" cx="0" cy="0" r="1" gradientUnits="userSpaceOnUse" gradientTransform="translate(104.875 80.4699) rotate(36.1932) scale(22.1264 2.9519)">
<stop stop-color="#6FD9EA"/>
<stop offset="1" stop-color="#6FD9EA" stop-opacity="0"/>
</radialGradient>
<linearGradient id="paint9_linear_392_13941" x1="134.724" y1="97.608" x2="134.724" y2="106.395" gradientUnits="userSpaceOnUse">
<stop stop-color="#C7BCD2"/>
<stop offset="1" stop-color="#9688A5"/>
</linearGradient>
<radialGradient id="paint10_radial_392_13941" cx="0" cy="0" r="1" gradientUnits="userSpaceOnUse" gradientTransform="translate(128.548 101.727) rotate(90) scale(5.33487 34.912)">
<stop stop-color="white" stop-opacity="0.75"/>
<stop offset="1" stop-color="white" stop-opacity="0"/>
</radialGradient>
<linearGradient id="paint11_linear_392_13941" x1="121.082" y1="62.4946" x2="125.655" y2="69.7846" gradientUnits="userSpaceOnUse">
<stop stop-color="#6C6C73"/>
<stop offset="1" stop-color="#444060"/>
</linearGradient>
<radialGradient id="paint12_radial_392_13941" cx="0" cy="0" r="1" gradientUnits="userSpaceOnUse" gradientTransform="translate(125.554 65.3868) rotate(146.614) scale(3.81604 3.74128)">
<stop stop-color="#554170"/>
<stop offset="1" stop-color="#554170" stop-opacity="0"/>
</radialGradient>
<linearGradient id="paint13_linear_392_13941" x1="151.44" y1="45.7658" x2="132.092" y2="58.8063" gradientUnits="userSpaceOnUse">
<stop stop-color="#C4C2C7"/>
<stop offset="1" stop-color="#B3ABBD"/>
</linearGradient>
<radialGradient id="paint14_radial_392_13941" cx="0" cy="0" r="1" gradientUnits="userSpaceOnUse" gradientTransform="translate(131.202 65.3158) rotate(-59.1884) scale(11.9968 10.0625)">
<stop stop-color="#B699D4"/>
<stop offset="1" stop-color="#B699D4" stop-opacity="0"/>
</radialGradient>
<radialGradient id="paint15_radial_392_13941" cx="0" cy="0" r="1" gradientUnits="userSpaceOnUse" gradientTransform="translate(150.285 51.8485) rotate(149.871) scale(9.58305 11.0257)">
<stop offset="0.110507" stop-color="#DED8E5"/>
<stop offset="1" stop-color="#C4C1C7" stop-opacity="0"/>
</radialGradient>
<linearGradient id="paint16_linear_392_13941" x1="152.25" y1="45.1163" x2="150.157" y2="46.7816" gradientUnits="userSpaceOnUse">
<stop stop-color="#C5C3C7"/>
<stop offset="1" stop-color="#C5C3C7" stop-opacity="0"/>
</linearGradient>
<radialGradient id="paint17_radial_392_13941" cx="0" cy="0" r="1" gradientUnits="userSpaceOnUse" gradientTransform="translate(131.34 70.1875) rotate(-73.074) scale(4.74059 11.4915)">
<stop offset="0.0831209" stop-color="#8167AE"/>
<stop offset="1" stop-color="#B29DC8" stop-opacity="0"/>
</radialGradient>
<radialGradient id="paint18_radial_392_13941" cx="0" cy="0" r="1" gradientUnits="userSpaceOnUse" gradientTransform="translate(144.113 45.9923) rotate(56.8468) scale(6.93966 9.14456)">
<stop stop-color="white" stop-opacity="0.5"/>
<stop offset="1" stop-color="white" stop-opacity="0"/>
</radialGradient>
<linearGradient id="paint19_linear_392_13941" x1="153.072" y1="41.9471" x2="157.847" y2="48.0002" gradientUnits="userSpaceOnUse">
<stop stop-color="#6E6B71"/>
<stop offset="1" stop-color="#61596A"/>
</linearGradient>
<linearGradient id="paint20_linear_392_13941" x1="150.735" y1="40.9385" x2="152.461" y2="42.8812" gradientUnits="userSpaceOnUse">
<stop stop-color="#585758"/>
<stop offset="1" stop-color="#585758" stop-opacity="0"/>
</linearGradient>
<radialGradient id="paint21_radial_392_13941" cx="0" cy="0" r="1" gradientUnits="userSpaceOnUse" gradientTransform="translate(157.095 43.8976) rotate(146.071) scale(1.51418 4.3393)">
<stop stop-color="#8C8990"/>
<stop offset="1" stop-color="#8C8990" stop-opacity="0"/>
</radialGradient>
<linearGradient id="paint22_linear_392_13941" x1="129.072" y1="53.2295" x2="138.115" y2="66.1334" gradientUnits="userSpaceOnUse">
<stop stop-color="#E5DCEF"/>
<stop offset="1" stop-color="#F7E0FF"/>
</linearGradient>
<linearGradient id="paint23_linear_392_13941" x1="139.492" y1="69.2533" x2="134.737" y2="62.0795" gradientUnits="userSpaceOnUse">
<stop offset="0.0884956" stop-color="#B5A1CB"/>
<stop offset="1" stop-color="#DFC9F7" stop-opacity="0"/>
</linearGradient>
<linearGradient id="paint24_linear_392_13941" x1="126.746" y1="50.4508" x2="128.556" y2="53.1975" gradientUnits="userSpaceOnUse">
<stop stop-color="#B6B5B7"/>
<stop offset="1" stop-color="#B6B5B7" stop-opacity="0"/>
</linearGradient>
<linearGradient id="paint25_linear_392_13941" x1="199.806" y1="23.8682" x2="202.453" y2="72.8905" gradientUnits="userSpaceOnUse">
<stop stop-color="#998FAD"/>
<stop offset="1" stop-color="#60527D"/>
</linearGradient>
<linearGradient id="paint26_linear_392_13941" x1="199.807" y1="23.8686" x2="199.807" y2="113.216" gradientUnits="userSpaceOnUse">
<stop stop-color="#C3BBD3"/>
<stop offset="1" stop-color="#827898"/>
</linearGradient>
<linearGradient id="paint27_linear_392_13941" x1="179.36" y1="20.0387" x2="179.36" y2="57.3773" gradientUnits="userSpaceOnUse">
<stop stop-color="#958BAB"/>
<stop offset="1" stop-color="#6D6087"/>
</linearGradient>
<linearGradient id="paint28_linear_392_13941" x1="171.939" y1="44.502" x2="173.7" y2="47.625" gradientUnits="userSpaceOnUse">
<stop stop-color="#6F6388"/>
<stop offset="1" stop-color="#554A6F"/>
</linearGradient>
<linearGradient id="paint29_linear_392_13941" x1="172.471" y1="34.7451" x2="172.471" y2="38.3669" gradientUnits="userSpaceOnUse">
<stop stop-color="#8F86A4"/>
<stop offset="1" stop-color="#453A5E"/>
</linearGradient>
<linearGradient id="paint30_linear_392_13941" x1="174.186" y1="50.4326" x2="174.186" y2="52.3587" gradientUnits="userSpaceOnUse">
<stop stop-color="#796F8E"/>
<stop offset="1" stop-color="#22153E"/>
</linearGradient>
<linearGradient id="paint31_linear_392_13941" x1="174.717" y1="51.6045" x2="174.717" y2="54.0454" gradientUnits="userSpaceOnUse">
<stop stop-color="#796F8E"/>
<stop offset="1" stop-color="#22153E"/>
</linearGradient>
<linearGradient id="paint32_linear_392_13941" x1="159.565" y1="81.3027" x2="159.565" y2="104.921" gradientUnits="userSpaceOnUse">
<stop stop-color="#A59ABC"/>
<stop offset="1" stop-color="#6B5F84"/>
</linearGradient>
<linearGradient id="paint33_linear_392_13941" x1="189.953" y1="54.2701" x2="176.816" y2="134.733" gradientUnits="userSpaceOnUse">
<stop stop-color="#988DAD"/>
<stop offset="1" stop-color="#655783"/>
</linearGradient>
<radialGradient id="paint34_radial_392_13941" cx="0" cy="0" r="1" gradientUnits="userSpaceOnUse" gradientTransform="translate(205.06 64.0732) rotate(165.057) scale(28.213 18.2707)">
<stop stop-color="#988EAD"/>
<stop offset="1" stop-color="#746A8A" stop-opacity="0"/>
</radialGradient>
<radialGradient id="paint35_radial_392_13941" cx="0" cy="0" r="1" gradientUnits="userSpaceOnUse" gradientTransform="translate(185.684 99.5922) rotate(-162.738) scale(28.8885 12.1909)">
<stop stop-color="#746A8A"/>
<stop offset="1" stop-color="#746A8A" stop-opacity="0"/>
</radialGradient>
<linearGradient id="paint36_linear_392_13941" x1="194.296" y1="-6.30673" x2="188.458" y2="35.4559" gradientUnits="userSpaceOnUse">
<stop stop-color="#ADA5BD"/>
<stop offset="1" stop-color="#5A4F71"/>
</linearGradient>
<radialGradient id="paint37_radial_392_13941" cx="0" cy="0" r="1" gradientUnits="userSpaceOnUse" gradientTransform="translate(216.905 38.684) rotate(-132.879) scale(19.2723 10.0796)">
<stop stop-color="#9186AA"/>
<stop offset="1" stop-color="#746A8A" stop-opacity="0"/>
</radialGradient>
<linearGradient id="paint38_linear_392_13941" x1="185.326" y1="24.2454" x2="198.144" y2="36.618" gradientUnits="userSpaceOnUse">
<stop stop-color="#A699C1"/>
<stop offset="1" stop-color="#786C94"/>
</linearGradient>
<radialGradient id="paint39_radial_392_13941" cx="0" cy="0" r="1" gradientUnits="userSpaceOnUse" gradientTransform="translate(188.443 33.2032) rotate(66.1799) scale(14.2633 3.52283)">
<stop stop-color="#776C8F"/>
<stop offset="1" stop-color="#776C8F" stop-opacity="0"/>
</radialGradient>
<linearGradient id="paint40_linear_392_13941" x1="190.811" y1="37.1664" x2="207.02" y2="71.5699" gradientUnits="userSpaceOnUse">
<stop stop-color="#CDCAD5"/>
<stop offset="1" stop-color="#766794"/>
</linearGradient>
<radialGradient id="paint41_radial_392_13941" cx="0" cy="0" r="1" gradientUnits="userSpaceOnUse" gradientTransform="translate(196.55 52.2017) rotate(128.374) scale(28.3081 10.8799)">
<stop stop-color="#746A8A"/>
<stop offset="1" stop-color="#746A8A" stop-opacity="0"/>
</radialGradient>
<radialGradient id="paint42_radial_392_13941" cx="0" cy="0" r="1" gradientUnits="userSpaceOnUse" gradientTransform="translate(74.4199 109.569) rotate(-177.115) scale(69.8429 14.3374)">
<stop offset="0.222795" stop-color="#747695"/>
<stop offset="1" stop-color="#747695" stop-opacity="0"/>
</radialGradient>
<linearGradient id="paint43_linear_392_13941" x1="79.7349" y1="51.3955" x2="43.2387" y2="112.356" gradientUnits="userSpaceOnUse">
<stop stop-color="#CDEAF0"/>
<stop offset="1" stop-color="#98B0CC"/>
</linearGradient>
<radialGradient id="paint44_radial_392_13941" cx="0" cy="0" r="1" gradientUnits="userSpaceOnUse" gradientTransform="translate(68.3375 53.1914) scale(7.47958 1.53871)">
<stop stop-color="white"/>
<stop offset="1" stop-color="white" stop-opacity="0"/>
</radialGradient>
<radialGradient id="paint45_radial_392_13941" cx="0" cy="0" r="1" gradientUnits="userSpaceOnUse" gradientTransform="translate(68.8717 67.7994) rotate(-90) scale(13.024 1.60277)">
<stop stop-color="white" stop-opacity="0.6"/>
<stop offset="1" stop-color="white" stop-opacity="0"/>
</radialGradient>
<linearGradient id="paint46_linear_392_13941" x1="55.3372" y1="107.927" x2="55.3372" y2="101.063" gradientUnits="userSpaceOnUse">
<stop stop-color="#636D9F"/>
<stop offset="1" stop-color="#636D9F" stop-opacity="0"/>
</linearGradient>
<linearGradient id="paint47_linear_392_13941" x1="63.5678" y1="55.4426" x2="63.5678" y2="59.687" gradientUnits="userSpaceOnUse">
<stop stop-color="#636D9F" stop-opacity="0"/>
<stop offset="0.211009" stop-color="#636D9F" stop-opacity="0.6"/>
<stop offset="1" stop-color="#636D9F" stop-opacity="0"/>
</linearGradient>
<linearGradient id="paint48_linear_392_13941" x1="59.3366" y1="80.9994" x2="59.3366" y2="105.287" gradientUnits="userSpaceOnUse">
<stop offset="0.09375" stop-color="#8FC465"/>
<stop offset="0.713542" stop-color="#1FA444"/>
<stop offset="1" stop-color="#178034"/>
</linearGradient>
<linearGradient id="paint49_linear_392_13941" x1="75.7897" y1="51.3955" x2="75.7897" y2="106.194" gradientUnits="userSpaceOnUse">
<stop stop-color="#F2FDFF" stop-opacity="0"/>
<stop offset="0.453569" stop-color="#EFF6FF"/>
<stop offset="1" stop-color="#EFF6FF" stop-opacity="0"/>
</linearGradient>
</defs>
</svg>
