<svg viewBox="0 0 240 120" fill="none" xmlns="http://www.w3.org/2000/svg">
<path d="M150.607 74.4035C149.07 75.7448 129.571 84.4753 125.193 87.2139L223.764 112.507C223.268 109.871 215.924 93.5233 214.137 92.5924C211.903 91.4288 210.457 89.3068 209.442 87.2141C208.428 85.1213 202.681 84.5868 200.964 84.3257C199.247 84.0646 196.067 79.801 194.784 77.4019C193.502 75.0028 189.097 76.003 185.719 76.7866C182.341 77.5702 177.983 71.49 176.4 71.3826C174.817 71.2751 173.817 73.2321 171.514 73.0758C169.212 72.9196 167.963 74.2794 166.361 74.4598C164.758 74.6402 160.856 72.497 159.139 72.2359C157.422 71.9748 152.144 73.0622 150.607 74.4035Z" fill="url(#paint0_linear_9562_2270)"/>
<path d="M150.607 74.4035C149.07 75.7448 129.571 84.4753 125.193 87.2139L223.764 112.507C223.268 109.871 215.924 93.5233 214.137 92.5924C211.903 91.4288 210.457 89.3068 209.442 87.2141C208.428 85.1213 202.681 84.5868 200.964 84.3257C199.247 84.0646 196.067 79.801 194.784 77.4019C193.502 75.0028 189.097 76.003 185.719 76.7866C182.341 77.5702 177.983 71.49 176.4 71.3826C174.817 71.2751 173.817 73.2321 171.514 73.0758C169.212 72.9196 167.963 74.2794 166.361 74.4598C164.758 74.6402 160.856 72.497 159.139 72.2359C157.422 71.9748 152.144 73.0622 150.607 74.4035Z" fill="url(#paint1_radial_9562_2270)"/>
<path d="M150.607 74.4035C149.07 75.7448 129.571 84.4753 125.193 87.2139L223.764 112.507C223.268 109.871 215.924 93.5233 214.137 92.5924C211.903 91.4288 210.457 89.3068 209.442 87.2141C208.428 85.1213 202.681 84.5868 200.964 84.3257C199.247 84.0646 196.067 79.801 194.784 77.4019C193.502 75.0028 189.097 76.003 185.719 76.7866C182.341 77.5702 177.983 71.49 176.4 71.3826C174.817 71.2751 173.817 73.2321 171.514 73.0758C169.212 72.9196 167.963 74.2794 166.361 74.4598C164.758 74.6402 160.856 72.497 159.139 72.2359C157.422 71.9748 152.144 73.0622 150.607 74.4035Z" fill="url(#paint2_radial_9562_2270)"/>
<path d="M56.1058 77.335C53.2212 78.6331 45.577 84.4023 39.5193 90.0273L95.0481 94.4984L142.954 84.1681C141.175 83.5912 125.971 79.2677 123.894 80.0753C121.298 81.0849 117.404 80.6523 114.375 80.0753C111.346 79.4984 108.75 81.6619 106.875 81.5177C105 81.3734 99.2308 77.335 97.2116 77.335C95.1924 77.335 92.5962 74.8824 91.2981 75.0266C90.0001 75.1709 80.3366 79.0658 77.5962 79.0658C74.8558 79.0658 71.1058 75.46 69.5193 76.1812C65.7116 77.912 58.9904 77.6716 56.1058 77.335Z" fill="url(#paint3_linear_9562_2270)"/>
<path d="M56.1058 77.335C53.2212 78.6331 45.577 84.4023 39.5193 90.0273L95.0481 94.4984L142.954 84.1681C141.175 83.5912 125.971 79.2677 123.894 80.0753C121.298 81.0849 117.404 80.6523 114.375 80.0753C111.346 79.4984 108.75 81.6619 106.875 81.5177C105 81.3734 99.2308 77.335 97.2116 77.335C95.1924 77.335 92.5962 74.8824 91.2981 75.0266C90.0001 75.1709 80.3366 79.0658 77.5962 79.0658C74.8558 79.0658 71.1058 75.46 69.5193 76.1812C65.7116 77.912 58.9904 77.6716 56.1058 77.335Z" fill="url(#paint4_radial_9562_2270)"/>
<path d="M56.1058 77.335C53.2212 78.6331 45.577 84.4023 39.5193 90.0273L95.0481 94.4984L142.954 84.1681C141.175 83.5912 125.971 79.2677 123.894 80.0753C121.298 81.0849 117.404 80.6523 114.375 80.0753C111.346 79.4984 108.75 81.6619 106.875 81.5177C105 81.3734 99.2308 77.335 97.2116 77.335C95.1924 77.335 92.5962 74.8824 91.2981 75.0266C90.0001 75.1709 80.3366 79.0658 77.5962 79.0658C74.8558 79.0658 71.1058 75.46 69.5193 76.1812C65.7116 77.912 58.9904 77.6716 56.1058 77.335Z" fill="url(#paint5_radial_9562_2270)"/>
<path d="M168.101 79.186C140.814 73.9102 93.8075 92.3645 79.1827 98.6796L229.379 117.898C225.771 106.138 195.389 84.4618 168.101 79.186Z" fill="url(#paint6_linear_9562_2270)"/>
<path d="M168.101 79.186C140.814 73.9102 93.8075 92.3645 79.1827 98.6796L229.379 117.898C225.771 106.138 195.389 84.4618 168.101 79.186Z" fill="url(#paint7_radial_9562_2270)"/>
<path d="M168.101 79.186C140.814 73.9102 93.8075 92.3645 79.1827 98.6796L229.379 117.898C225.771 106.138 195.389 84.4618 168.101 79.186Z" fill="url(#paint8_radial_9562_2270)"/>
<path d="M63.1723 81.5185C51.6338 81.3761 19.1528 98.5376 9.84595 117.898C43.2115 112.915 125.041 104.55 122.041 101.589C118.291 97.8883 74.7107 81.6608 63.1723 81.5185Z" fill="url(#paint9_linear_9562_2270)"/>
<path d="M63.1723 81.5185C51.6338 81.3761 19.1528 98.5376 9.84595 117.898C43.2115 112.915 125.041 104.55 122.041 101.589C118.291 97.8883 74.7107 81.6608 63.1723 81.5185Z" fill="url(#paint10_radial_9562_2270)"/>
<path d="M63.1723 81.5185C51.6338 81.3761 19.1528 98.5376 9.84595 117.898C43.2115 112.915 125.041 104.55 122.041 101.589C118.291 97.8883 74.7107 81.6608 63.1723 81.5185Z" fill="url(#paint11_radial_9562_2270)"/>
<path d="M115.94 95.9404C54.7319 95.9404 16.6138 111.98 5.20581 120H233.519C219.829 111.98 177.148 95.9404 115.94 95.9404Z" fill="url(#paint12_linear_9562_2270)"/>
<path d="M115.94 95.9404C54.7319 95.9404 16.6138 111.98 5.20581 120H233.519C219.829 111.98 177.148 95.9404 115.94 95.9404Z" fill="url(#paint13_radial_9562_2270)"/>
<path d="M212.402 110.823C214.908 111.691 217.241 112.566 219.402 113.415L199.904 115.781L197.916 110.043L212.402 110.823Z" fill="url(#paint14_linear_9562_2270)"/>
<path d="M128.063 96.1523C133.923 96.3574 139.59 96.7112 145.056 97.18L145.664 97.9733L129.379 99.9474L128.063 96.1523Z" fill="url(#paint15_linear_9562_2270)"/>
<path d="M174.283 81.2471L160.706 82.8929L159.472 79.3271L173.392 80.0815L174.283 81.2471Z" fill="url(#paint16_linear_9562_2270)"/>
<path d="M227.43 54.4285C226.646 57.2241 194.99 56.9532 194.364 56.9579L194.33 52.3931C197.012 52.3731 197.528 49.5795 201.554 49.8031C204.774 49.9819 220.147 52.9612 227.43 54.4285Z" fill="url(#paint17_linear_9562_2270)"/>
<path d="M227.43 54.4285C226.646 57.2241 194.99 56.9532 194.364 56.9579L194.33 52.3931C197.012 52.3731 197.528 49.5795 201.554 49.8031C204.774 49.9819 220.147 52.9612 227.43 54.4285Z" fill="url(#paint18_linear_9562_2270)"/>
<path d="M227.43 54.4285C226.646 57.2241 194.99 56.9532 194.364 56.9579L194.33 52.3931C197.012 52.3731 197.528 49.5795 201.554 49.8031C204.774 49.9819 220.147 52.9612 227.43 54.4285Z" fill="url(#paint19_linear_9562_2270)"/>
<path d="M227.43 54.4285C226.646 57.2241 194.99 56.9532 194.364 56.9579L194.33 52.3931C197.012 52.3731 197.528 49.5795 201.554 49.8031C204.774 49.9819 220.147 52.9612 227.43 54.4285Z" fill="url(#paint20_radial_9562_2270)"/>
<path d="M179.707 27.0611C182.52 26.3421 198.114 53.8929 198.431 54.4326L194.495 56.7445C193.136 54.4314 190.459 55.3816 188.64 51.7837C187.185 48.9053 182.078 34.1026 179.707 27.0611Z" fill="url(#paint21_linear_9562_2270)"/>
<path d="M179.707 27.0611C182.52 26.3421 198.114 53.8929 198.431 54.4326L194.495 56.7445C193.136 54.4314 190.459 55.3816 188.64 51.7837C187.185 48.9053 182.078 34.1026 179.707 27.0611Z" fill="url(#paint22_linear_9562_2270)"/>
<path d="M179.707 27.0611C182.52 26.3421 198.114 53.8929 198.431 54.4326L194.495 56.7445C193.136 54.4314 190.459 55.3816 188.64 51.7837C187.185 48.9053 182.078 34.1026 179.707 27.0611Z" fill="url(#paint23_linear_9562_2270)"/>
<path d="M179.707 27.0611C182.52 26.3421 198.114 53.8929 198.431 54.4326L194.495 56.7445C193.136 54.4314 190.459 55.3816 188.64 51.7837C187.185 48.9053 182.078 34.1026 179.707 27.0611Z" fill="url(#paint24_radial_9562_2270)"/>
<path d="M179.958 82.3161C177.928 80.2394 193.991 52.9596 194.3 52.4152L198.27 54.6681C196.947 57.0012 199.108 58.8445 196.902 62.219C195.137 64.9185 184.87 76.7418 179.958 82.3161Z" fill="url(#paint25_linear_9562_2270)"/>
<path d="M179.958 82.3161C177.928 80.2394 193.991 52.9596 194.3 52.4152L198.27 54.6681C196.947 57.0012 199.108 58.8445 196.902 62.219C195.137 64.9185 184.87 76.7418 179.958 82.3161Z" fill="url(#paint26_linear_9562_2270)"/>
<path d="M179.958 82.3161C177.928 80.2394 193.991 52.9596 194.3 52.4152L198.27 54.6681C196.947 57.0012 199.108 58.8445 196.902 62.219C195.137 64.9185 184.87 76.7418 179.958 82.3161Z" fill="url(#paint27_linear_9562_2270)"/>
<path d="M179.958 82.3161C177.928 80.2394 193.991 52.9596 194.3 52.4152L198.27 54.6681C196.947 57.0012 199.108 58.8445 196.902 62.219C195.137 64.9185 184.87 76.7418 179.958 82.3161Z" fill="url(#paint28_radial_9562_2270)"/>
<path d="M197.304 56.2139L200.004 115.781H191.485L194.185 56.2139H197.304Z" fill="url(#paint29_linear_9562_2270)"/>
<path d="M197.304 56.2139L200.004 115.781H191.485L194.185 56.2139H197.304Z" fill="url(#paint30_linear_9562_2270)"/>
<path d="M197.304 56.2139L200.004 115.781H191.485L194.185 56.2139H197.304Z" fill="url(#paint31_linear_9562_2270)"/>
<path d="M198.841 53.3723C199.564 55.0232 198.812 56.9479 197.161 57.6713C195.51 58.3946 193.586 57.6426 192.862 55.9917C192.139 54.3408 192.891 52.4161 194.542 51.6927C196.193 50.9694 198.117 51.7214 198.841 53.3723Z" fill="url(#paint32_linear_9562_2270)"/>
<path d="M198.841 53.3723C199.564 55.0232 198.812 56.9479 197.161 57.6713C195.51 58.3946 193.586 57.6426 192.862 55.9917C192.139 54.3408 192.891 52.4161 194.542 51.6927C196.193 50.9694 198.117 51.7214 198.841 53.3723Z" fill="url(#paint33_radial_9562_2270)"/>
<path d="M198.841 53.3723C199.564 55.0232 198.812 56.9479 197.161 57.6713C195.51 58.3946 193.586 57.6426 192.862 55.9917C192.139 54.3408 192.891 52.4161 194.542 51.6927C196.193 50.9694 198.117 51.7214 198.841 53.3723Z" fill="url(#paint34_radial_9562_2270)"/>
<path d="M134.311 87.0149C132.228 87.1393 124.973 65.5714 124.823 65.1473L127.916 64.0516C128.56 65.8691 130.579 65.563 131.373 68.35C132.008 70.5797 133.596 81.7223 134.311 87.0149Z" fill="url(#paint35_linear_9562_2270)"/>
<path d="M134.311 87.0149C132.228 87.1393 124.973 65.5714 124.823 65.1473L127.916 64.0516C128.56 65.8691 130.579 65.563 131.373 68.35C132.008 70.5797 133.596 81.7223 134.311 87.0149Z" fill="url(#paint36_linear_9562_2270)"/>
<path d="M134.311 87.0149C132.228 87.1393 124.973 65.5714 124.823 65.1473L127.916 64.0516C128.56 65.8691 130.579 65.563 131.373 68.35C132.008 70.5797 133.596 81.7223 134.311 87.0149Z" fill="url(#paint37_linear_9562_2270)"/>
<path d="M134.311 87.0149C132.228 87.1393 124.973 65.5714 124.823 65.1473L127.916 64.0516C128.56 65.8691 130.579 65.563 131.373 68.35C132.008 70.5797 133.596 81.7223 134.311 87.0149Z" fill="url(#paint38_radial_9562_2270)"/>
<path d="M141.688 48.1648C142.837 49.9068 127.786 66.9729 127.494 67.3151L124.999 65.1845C126.251 63.7181 124.976 62.1228 126.993 60.0416C128.606 58.3767 137.462 51.43 141.688 48.1648Z" fill="url(#paint39_linear_9562_2270)"/>
<path d="M141.688 48.1648C142.837 49.9068 127.786 66.9729 127.494 67.3151L124.999 65.1845C126.251 63.7181 124.976 62.1228 126.993 60.0416C128.606 58.3767 137.462 51.43 141.688 48.1648Z" fill="url(#paint40_linear_9562_2270)"/>
<path d="M141.688 48.1648C142.837 49.9068 127.786 66.9729 127.494 67.3151L124.999 65.1845C126.251 63.7181 124.976 62.1228 126.993 60.0416C128.606 58.3767 137.462 51.43 141.688 48.1648Z" fill="url(#paint41_linear_9562_2270)"/>
<path d="M141.688 48.1648C142.837 49.9068 127.786 66.9729 127.494 67.3151L124.999 65.1845C126.251 63.7181 124.976 62.1228 126.993 60.0416C128.606 58.3767 137.462 51.43 141.688 48.1648Z" fill="url(#paint42_radial_9562_2270)"/>
<path d="M104.211 61.3188C105.145 59.4525 127.451 63.9542 127.893 64.0361L127.296 67.2625C125.4 66.9114 124.655 68.8128 121.845 68.1069C119.596 67.5421 109.152 63.3462 104.211 61.3188Z" fill="url(#paint43_linear_9562_2270)"/>
<path d="M104.211 61.3188C105.145 59.4525 127.451 63.9542 127.893 64.0361L127.296 67.2625C125.4 66.9114 124.655 68.8128 121.845 68.1069C119.596 67.5421 109.152 63.3462 104.211 61.3188Z" fill="url(#paint44_linear_9562_2270)"/>
<path d="M104.211 61.3188C105.145 59.4525 127.451 63.9542 127.893 64.0361L127.296 67.2625C125.4 66.9114 124.655 68.8128 121.845 68.1069C119.596 67.5421 109.152 63.3462 104.211 61.3188Z" fill="url(#paint45_linear_9562_2270)"/>
<path d="M104.211 61.3188C105.145 59.4525 127.451 63.9542 127.893 64.0361L127.296 67.2625C125.4 66.9114 124.655 68.8128 121.845 68.1069C119.596 67.5421 109.152 63.3462 104.211 61.3188Z" fill="url(#paint46_radial_9562_2270)"/>
<path d="M128.022 65.1157L129.964 99.9475H123.839L125.782 65.1157H128.022Z" fill="url(#paint47_linear_9562_2270)"/>
<path d="M128.022 65.1157L129.964 99.9475H123.839L125.782 65.1157H128.022Z" fill="url(#paint48_linear_9562_2270)"/>
<path d="M128.022 65.1157L129.964 99.9475H123.839L125.782 65.1157H128.022Z" fill="url(#paint49_linear_9562_2270)"/>
<path d="M128.31 67.3435C127.358 68.2227 125.874 68.1642 124.995 67.2126C124.116 66.2611 124.174 64.777 125.126 63.8977C126.077 63.0184 127.562 63.077 128.441 64.0285C129.32 64.9801 129.261 66.4642 128.31 67.3435Z" fill="url(#paint50_linear_9562_2270)"/>
<path d="M128.31 67.3435C127.358 68.2227 125.874 68.1642 124.995 67.2126C124.116 66.2611 124.174 64.777 125.126 63.8977C126.077 63.0184 127.562 63.077 128.441 64.0285C129.32 64.9801 129.261 66.4642 128.31 67.3435Z" fill="url(#paint51_radial_9562_2270)"/>
<path d="M128.31 67.3435C127.358 68.2227 125.874 68.1642 124.995 67.2126C124.116 66.2611 124.174 64.777 125.126 63.8977C126.077 63.0184 127.562 63.077 128.441 64.0285C129.32 64.9801 129.261 66.4642 128.31 67.3435Z" fill="url(#paint52_radial_9562_2270)"/>
<path d="M170.405 69.1678C169.353 69.9454 158.168 61.0928 157.944 60.9213L159.194 59.2881C160.154 60.023 161.11 59.1719 162.48 60.3649C163.576 61.3193 168.22 66.6312 170.405 69.1678Z" fill="url(#paint53_linear_9562_2270)"/>
<path d="M170.405 69.1678C169.353 69.9454 158.168 61.0928 157.944 60.9213L159.194 59.2881C160.154 60.023 161.11 59.1719 162.48 60.3649C163.576 61.3193 168.22 66.6312 170.405 69.1678Z" fill="url(#paint54_linear_9562_2270)"/>
<path d="M170.405 69.1678C169.353 69.9454 158.168 61.0928 157.944 60.9213L159.194 59.2881C160.154 60.023 161.11 59.1719 162.48 60.3649C163.576 61.3193 168.22 66.6312 170.405 69.1678Z" fill="url(#paint55_linear_9562_2270)"/>
<path d="M170.405 69.1678C169.353 69.9454 158.168 61.0928 157.944 60.9213L159.194 59.2881C160.154 60.023 161.11 59.1719 162.48 60.3649C163.576 61.3193 168.22 66.6312 170.405 69.1678Z" fill="url(#paint56_radial_9562_2270)"/>
<path d="M161.001 46.2324C162.2 46.7547 160.126 60.8681 160.09 61.1477L158.05 60.8814C158.207 59.6828 156.991 59.2803 157.34 57.4973C157.618 56.0709 159.896 49.393 161.001 46.2324Z" fill="url(#paint57_linear_9562_2270)"/>
<path d="M161.001 46.2324C162.2 46.7547 160.126 60.8681 160.09 61.1477L158.05 60.8814C158.207 59.6828 156.991 59.2803 157.34 57.4973C157.618 56.0709 159.896 49.393 161.001 46.2324Z" fill="url(#paint58_linear_9562_2270)"/>
<path d="M161.001 46.2324C162.2 46.7547 160.126 60.8681 160.09 61.1477L158.05 60.8814C158.207 59.6828 156.991 59.2803 157.34 57.4973C157.618 56.0709 159.896 49.393 161.001 46.2324Z" fill="url(#paint59_linear_9562_2270)"/>
<path d="M161.001 46.2324C162.2 46.7547 160.126 60.8681 160.09 61.1477L158.05 60.8814C158.207 59.6828 156.991 59.2803 157.34 57.4973C157.618 56.0709 159.896 49.393 161.001 46.2324Z" fill="url(#paint60_radial_9562_2270)"/>
<path d="M145.804 65.9538C145.657 64.6539 158.916 59.3931 159.177 59.2849L159.966 61.1845C158.85 61.6482 159.109 62.9018 157.391 63.4918C156.016 63.9639 149.094 65.3298 145.804 65.9538Z" fill="url(#paint61_linear_9562_2270)"/>
<path d="M145.804 65.9538C145.657 64.6539 158.916 59.3931 159.177 59.2849L159.966 61.1845C158.85 61.6482 159.109 62.9018 157.391 63.4918C156.016 63.9639 149.094 65.3298 145.804 65.9538Z" fill="url(#paint62_linear_9562_2270)"/>
<path d="M145.804 65.9538C145.657 64.6539 158.916 59.3931 159.177 59.2849L159.966 61.1845C158.85 61.6482 159.109 62.9018 157.391 63.4918C156.016 63.9639 149.094 65.3298 145.804 65.9538Z" fill="url(#paint63_linear_9562_2270)"/>
<path d="M145.804 65.9538C145.657 64.6539 158.916 59.3931 159.177 59.2849L159.966 61.1845C158.85 61.6482 159.109 62.9018 157.391 63.4918C156.016 63.9639 149.094 65.3298 145.804 65.9538Z" fill="url(#paint64_radial_9562_2270)"/>
<path d="M159.793 61.0591L161.009 82.892H157.169L158.386 61.0591H159.793Z" fill="url(#paint65_linear_9562_2270)"/>
<path d="M159.793 61.0591L161.009 82.892H157.169L158.386 61.0591H159.793Z" fill="url(#paint66_linear_9562_2270)"/>
<path d="M159.793 61.0591L161.009 82.892H157.169L158.386 61.0591H159.793Z" fill="url(#paint67_linear_9562_2270)"/>
<path d="M160.529 60.8833C160.33 61.6707 159.53 62.1473 158.742 61.948C157.955 61.7486 157.478 60.9487 157.678 60.1614C157.877 59.3741 158.677 58.8974 159.464 59.0968C160.252 59.2962 160.728 60.096 160.529 60.8833Z" fill="url(#paint68_linear_9562_2270)"/>
<path d="M160.529 60.8833C160.33 61.6707 159.53 62.1473 158.742 61.948C157.955 61.7486 157.478 60.9487 157.678 60.1614C157.877 59.3741 158.677 58.8974 159.464 59.0968C160.252 59.2962 160.728 60.096 160.529 60.8833Z" fill="url(#paint69_radial_9562_2270)"/>
<path d="M160.529 60.8833C160.33 61.6707 159.53 62.1473 158.742 61.948C157.955 61.7486 157.478 60.9487 157.678 60.1614C157.877 59.3741 158.677 58.8974 159.464 59.0968C160.252 59.2962 160.728 60.096 160.529 60.8833Z" fill="url(#paint70_radial_9562_2270)"/>
<path d="M119.947 30.0574C111.477 23.6122 98.1525 31.6717 96.9388 40.8977H174.962C172.016 34.7103 165.816 32.9793 163.177 34.2683C163.799 28.0424 156.877 23.5997 150.621 28.4429C148.403 17.0324 119.947 19.1785 119.947 30.0574Z" fill="url(#paint71_linear_9562_2270)"/>
<path d="M119.947 30.0574C111.477 23.6122 98.1525 31.6717 96.9388 40.8977H174.962C172.016 34.7103 165.816 32.9793 163.177 34.2683C163.799 28.0424 156.877 23.5997 150.621 28.4429C148.403 17.0324 119.947 19.1785 119.947 30.0574Z" fill="url(#paint72_radial_9562_2270)"/>
<path d="M119.947 30.0574C111.477 23.6122 98.1525 31.6717 96.9388 40.8977H174.962C172.016 34.7103 165.816 32.9793 163.177 34.2683C163.799 28.0424 156.877 23.5997 150.621 28.4429C148.403 17.0324 119.947 19.1785 119.947 30.0574Z" fill="url(#paint73_radial_9562_2270)"/>
<path d="M119.947 30.0574C111.477 23.6122 98.1525 31.6717 96.9388 40.8977H174.962C172.016 34.7103 165.816 32.9793 163.177 34.2683C163.799 28.0424 156.877 23.5997 150.621 28.4429C148.403 17.0324 119.947 19.1785 119.947 30.0574Z" fill="url(#paint74_radial_9562_2270)"/>
<path d="M29.8443 23.0273C26.2137 18.4738 18.7922 21.5345 19.5342 26.8219H63.11C61.0862 22.572 56.8279 21.383 55.0149 22.2684C53.5675 11.3565 29.8443 9.47188 29.8443 23.0273Z" fill="url(#paint75_linear_9562_2270)"/>
<path d="M29.8443 23.0273C26.2137 18.4738 18.7922 21.5345 19.5342 26.8219H63.11C61.0862 22.572 56.8279 21.383 55.0149 22.2684C53.5675 11.3565 29.8443 9.47188 29.8443 23.0273Z" fill="url(#paint76_radial_9562_2270)"/>
<path d="M29.8443 23.0273C26.2137 18.4738 18.7922 21.5345 19.5342 26.8219H63.11C61.0862 22.572 56.8279 21.383 55.0149 22.2684C53.5675 11.3565 29.8443 9.47188 29.8443 23.0273Z" fill="url(#paint77_radial_9562_2270)"/>
<path d="M29.8443 23.0273C26.2137 18.4738 18.7922 21.5345 19.5342 26.8219H63.11C61.0862 22.572 56.8279 21.383 55.0149 22.2684C53.5675 11.3565 29.8443 9.47188 29.8443 23.0273Z" fill="url(#paint78_radial_9562_2270)"/>
<path d="M119.628 77.6063C116.681 81.2025 70.4169 60.4646 69.4957 60.0693L72.3796 53.3529C76.3275 55.0471 78.8794 51.2816 84.641 54.196C89.2503 56.5275 109.886 70.7743 119.628 77.6063Z" fill="url(#paint79_linear_9562_2270)"/>
<path d="M119.628 77.6063C116.681 81.2025 70.4169 60.4646 69.4957 60.0693L72.3796 53.3529C76.3275 55.0471 78.8794 51.2816 84.641 54.196C89.2503 56.5275 109.886 70.7743 119.628 77.6063Z" fill="url(#paint80_linear_9562_2270)"/>
<path d="M119.628 77.6063C116.681 81.2025 70.4169 60.4646 69.4957 60.0693L72.3796 53.3529C76.3275 55.0471 78.8794 51.2816 84.641 54.196C89.2503 56.5275 109.886 70.7743 119.628 77.6063Z" fill="url(#paint81_linear_9562_2270)"/>
<path d="M119.628 77.6063C116.681 81.2025 70.4169 60.4646 69.4957 60.0693L72.3796 53.3529C76.3275 55.0471 78.8794 51.2816 84.641 54.196C89.2503 56.5275 109.886 70.7743 119.628 77.6063Z" fill="url(#paint82_radial_9562_2270)"/>
<path d="M67.2114 6.81209C71.8001 7.56525 76.9677 57.989 77.0858 58.9842L69.8257 59.8456C69.3194 55.5805 64.7814 55.2538 64.4253 48.8083C64.1404 43.6519 66.164 18.6623 67.2114 6.81209Z" fill="url(#paint83_linear_9562_2270)"/>
<path d="M67.2114 6.81209C71.8001 7.56525 76.9677 57.989 77.0858 58.9842L69.8257 59.8456C69.3194 55.5805 64.7814 55.2538 64.4253 48.8083C64.1404 43.6519 66.164 18.6623 67.2114 6.81209Z" fill="url(#paint84_linear_9562_2270)"/>
<path d="M67.2114 6.81209C71.8001 7.56525 76.9677 57.989 77.0858 58.9842L69.8257 59.8456C69.3194 55.5805 64.7814 55.2538 64.4253 48.8083C64.1404 43.6519 66.164 18.6623 67.2114 6.81209Z" fill="url(#paint85_linear_9562_2270)"/>
<path d="M67.2114 6.81209C71.8001 7.56525 76.9677 57.989 77.0858 58.9842L69.8257 59.8456C69.3194 55.5805 64.7814 55.2538 64.4253 48.8083C64.1404 43.6519 66.164 18.6623 67.2114 6.81209Z" fill="url(#paint86_radial_9562_2270)"/>
<path d="M32.0649 88.004C30.423 83.6547 71.5199 53.9688 72.3229 53.3689L76.6991 59.2239C73.2576 61.7948 75.2436 65.887 69.8381 69.418C65.5137 72.2429 42.8541 82.9857 32.0649 88.004Z" fill="url(#paint87_linear_9562_2270)"/>
<path d="M32.0649 88.004C30.423 83.6547 71.5199 53.9688 72.3229 53.3689L76.6991 59.2239C73.2576 61.7948 75.2436 65.887 69.8381 69.418C65.5137 72.2429 42.8541 82.9857 32.0649 88.004Z" fill="url(#paint88_linear_9562_2270)"/>
<path d="M32.0649 88.004C30.423 83.6547 71.5199 53.9688 72.3229 53.3689L76.6991 59.2239C73.2576 61.7948 75.2436 65.887 69.8381 69.418C65.5137 72.2429 42.8541 82.9857 32.0649 88.004Z" fill="url(#paint89_linear_9562_2270)"/>
<path d="M32.0649 88.004C30.423 83.6547 71.5199 53.9688 72.3229 53.3689L76.6991 59.2239C73.2576 61.7948 75.2436 65.887 69.8381 69.418C65.5137 72.2429 42.8541 82.9857 32.0649 88.004Z" fill="url(#paint90_radial_9562_2270)"/>
<path d="M75.6417 60.8838L79.9686 120H66.3208L70.6477 60.8838H75.6417Z" fill="url(#paint91_linear_9562_2270)"/>
<path d="M75.6417 60.8838L79.9686 120H66.3208L70.6477 60.8838H75.6417Z" fill="url(#paint92_linear_9562_2270)"/>
<path d="M75.6417 60.8838L79.9686 120H66.3208L70.6477 60.8838H75.6417Z" fill="url(#paint93_linear_9562_2270)"/>
<path d="M78.3679 57.6898C78.3679 60.5757 76.0277 62.9152 73.141 62.9152C70.2542 62.9152 67.9141 60.5757 67.9141 57.6898C67.9141 54.8039 70.2542 52.4644 73.141 52.4644C76.0277 52.4644 78.3679 54.8039 78.3679 57.6898Z" fill="url(#paint94_linear_9562_2270)"/>
<path d="M78.3679 57.6898C78.3679 60.5757 76.0277 62.9152 73.141 62.9152C70.2542 62.9152 67.9141 60.5757 67.9141 57.6898C67.9141 54.8039 70.2542 52.4644 73.141 52.4644C76.0277 52.4644 78.3679 54.8039 78.3679 57.6898Z" fill="url(#paint95_radial_9562_2270)"/>
<path d="M78.3679 57.6898C78.3679 60.5757 76.0277 62.9152 73.141 62.9152C70.2542 62.9152 67.9141 60.5757 67.9141 57.6898C67.9141 54.8039 70.2542 52.4644 73.141 52.4644C76.0277 52.4644 78.3679 54.8039 78.3679 57.6898Z" fill="url(#paint96_radial_9562_2270)"/>
<defs>
<linearGradient id="paint0_linear_9562_2270" x1="222.383" y1="142.598" x2="128.547" y2="89.5376" gradientUnits="userSpaceOnUse">
<stop stop-color="#67C3DC"/>
<stop offset="1" stop-color="#D1D1FF"/>
</linearGradient>
<radialGradient id="paint1_radial_9562_2270" cx="0" cy="0" r="1" gradientUnits="userSpaceOnUse" gradientTransform="translate(159.771 75.39) rotate(-1.02046) scale(59.9525 30.4765)">
<stop stop-color="#BEF3EA"/>
<stop offset="1" stop-color="#FFDAC2" stop-opacity="0"/>
</radialGradient>
<radialGradient id="paint2_radial_9562_2270" cx="0" cy="0" r="1" gradientUnits="userSpaceOnUse" gradientTransform="translate(174.158 91.1247) rotate(12.1847) scale(60.2773 20.6455)">
<stop stop-color="#023352"/>
<stop offset="1" stop-color="#023352" stop-opacity="0"/>
</radialGradient>
<linearGradient id="paint3_linear_9562_2270" x1="140.305" y1="123.309" x2="54.2018" y2="55.7598" gradientUnits="userSpaceOnUse">
<stop stop-color="#67C3DC"/>
<stop offset="1" stop-color="#D1D1FF"/>
</linearGradient>
<radialGradient id="paint4_radial_9562_2270" cx="0" cy="0" r="1" gradientUnits="userSpaceOnUse" gradientTransform="translate(62.3193 78.6628) rotate(-2.99959) scale(69.603 21.7117)">
<stop stop-color="#BEF3EA"/>
<stop offset="1" stop-color="#FFDAC2" stop-opacity="0"/>
</radialGradient>
<radialGradient id="paint5_radial_9562_2270" cx="0" cy="0" r="1" gradientUnits="userSpaceOnUse" gradientTransform="translate(64.3487 109.973) rotate(-17.4309) scale(84.1705 31.5723)">
<stop stop-color="#023352"/>
<stop offset="1" stop-color="#023352" stop-opacity="0"/>
</radialGradient>
<linearGradient id="paint6_linear_9562_2270" x1="229.379" y1="142.833" x2="169.044" y2="20.8912" gradientUnits="userSpaceOnUse">
<stop stop-color="#08494E"/>
<stop offset="1" stop-color="#B0F098"/>
</linearGradient>
<radialGradient id="paint7_radial_9562_2270" cx="0" cy="0" r="1" gradientUnits="userSpaceOnUse" gradientTransform="translate(117.982 61.2688) rotate(-5.35245) scale(111.884 114.411)">
<stop offset="0.0329412" stop-color="#FFDAC2" stop-opacity="0.8"/>
<stop offset="1" stop-color="#FFC7A3" stop-opacity="0"/>
</radialGradient>
<radialGradient id="paint8_radial_9562_2270" cx="0" cy="0" r="1" gradientUnits="userSpaceOnUse" gradientTransform="translate(264.967 161.868) rotate(-170.662) scale(139.761 96.3727)">
<stop stop-color="#093C41"/>
<stop offset="1" stop-color="#093C41" stop-opacity="0"/>
</radialGradient>
<linearGradient id="paint9_linear_9562_2270" x1="115.051" y1="142.297" x2="47.0596" y2="46.9313" gradientUnits="userSpaceOnUse">
<stop stop-color="#08494E"/>
<stop offset="1" stop-color="#B0F098"/>
</linearGradient>
<radialGradient id="paint10_radial_9562_2270" cx="0" cy="0" r="1" gradientUnits="userSpaceOnUse" gradientTransform="translate(40.1063 87.4655) rotate(-34.7922) scale(46.9078 27.5795)">
<stop offset="0.0329412" stop-color="#FFDAC2" stop-opacity="0.8"/>
<stop offset="1" stop-color="#FFC7A3" stop-opacity="0"/>
</radialGradient>
<radialGradient id="paint11_radial_9562_2270" cx="0" cy="0" r="1" gradientUnits="userSpaceOnUse" gradientTransform="translate(102.692 120.946) rotate(161.951) scale(57.7737 54.5475)">
<stop stop-color="#093C41"/>
<stop offset="1" stop-color="#093C41" stop-opacity="0"/>
</radialGradient>
<linearGradient id="paint12_linear_9562_2270" x1="119.362" y1="150.127" x2="107.949" y2="89.5957" gradientUnits="userSpaceOnUse">
<stop stop-color="#08494E"/>
<stop offset="1" stop-color="#B0F098"/>
</linearGradient>
<radialGradient id="paint13_radial_9562_2270" cx="0" cy="0" r="1" gradientUnits="userSpaceOnUse" gradientTransform="translate(63.7688 95.9404) rotate(-4.74393) scale(111.127 29.043)">
<stop offset="0.0329412" stop-color="#FFDAC2" stop-opacity="0.8"/>
<stop offset="1" stop-color="#FFC7A3" stop-opacity="0"/>
</radialGradient>
<linearGradient id="paint14_linear_9562_2270" x1="196.591" y1="112.912" x2="221.749" y2="112.912" gradientUnits="userSpaceOnUse">
<stop stop-color="#10342E"/>
<stop offset="1" stop-color="#10342E" stop-opacity="0"/>
</linearGradient>
<linearGradient id="paint15_linear_9562_2270" x1="126.909" y1="97.81" x2="145.664" y2="97.81" gradientUnits="userSpaceOnUse">
<stop stop-color="#10342E"/>
<stop offset="1" stop-color="#10342E" stop-opacity="0"/>
</linearGradient>
<linearGradient id="paint16_linear_9562_2270" x1="158.649" y1="81.11" x2="174.283" y2="81.11" gradientUnits="userSpaceOnUse">
<stop stop-color="#10342E"/>
<stop offset="1" stop-color="#10342E" stop-opacity="0"/>
</linearGradient>
<linearGradient id="paint17_linear_9562_2270" x1="202.605" y1="23.4199" x2="236.153" y2="80.6913" gradientUnits="userSpaceOnUse">
<stop stop-color="#B3E0FF"/>
<stop offset="1" stop-color="#E0B09C"/>
</linearGradient>
<linearGradient id="paint18_linear_9562_2270" x1="212.642" y1="48.1247" x2="212.082" y2="56.0391" gradientUnits="userSpaceOnUse">
<stop stop-color="#FFE4BE"/>
<stop offset="0.586538" stop-color="#FFE4BE" stop-opacity="0.4"/>
<stop offset="0.701923" stop-color="#FFDAC2" stop-opacity="0"/>
</linearGradient>
<linearGradient id="paint19_linear_9562_2270" x1="215.015" y1="59.3751" x2="214.853" y2="55.4149" gradientUnits="userSpaceOnUse">
<stop stop-color="#00204D"/>
<stop offset="0.894231" stop-color="#1B1252" stop-opacity="0.1"/>
<stop offset="1" stop-color="#240D54" stop-opacity="0"/>
</linearGradient>
<radialGradient id="paint20_radial_9562_2270" cx="0" cy="0" r="1" gradientUnits="userSpaceOnUse" gradientTransform="translate(195.572 54.7187) rotate(-19.4749) scale(7.40427 8.78501)">
<stop stop-color="#00204D"/>
<stop offset="1" stop-color="#C6CDD6" stop-opacity="0"/>
</radialGradient>
<linearGradient id="paint21_linear_9562_2270" x1="165.266" y1="64.0649" x2="198.09" y2="6.37572" gradientUnits="userSpaceOnUse">
<stop stop-color="#B3E0FF"/>
<stop offset="1" stop-color="#E0B09C"/>
</linearGradient>
<linearGradient id="paint22_linear_9562_2270" x1="181.642" y1="43.0197" x2="188.776" y2="39.5477" gradientUnits="userSpaceOnUse">
<stop stop-color="#FFE4BE"/>
<stop offset="0.586538" stop-color="#FFE4BE" stop-opacity="0.4"/>
<stop offset="0.701923" stop-color="#FFDAC2" stop-opacity="0"/>
</linearGradient>
<linearGradient id="paint23_linear_9562_2270" x1="190.199" y1="35.3396" x2="186.85" y2="37.46" gradientUnits="userSpaceOnUse">
<stop stop-color="#00204D"/>
<stop offset="0.894231" stop-color="#1B1252" stop-opacity="0.1"/>
<stop offset="1" stop-color="#240D54" stop-opacity="0"/>
</linearGradient>
<radialGradient id="paint24_radial_9562_2270" cx="0" cy="0" r="1" gradientUnits="userSpaceOnUse" gradientTransform="translate(195.888 54.5056) rotate(-139.475) scale(7.40427 8.78501)">
<stop stop-color="#00204D"/>
<stop offset="1" stop-color="#C6CDD6" stop-opacity="0"/>
</radialGradient>
<linearGradient id="paint25_linear_9562_2270" x1="219.225" y1="76.3209" x2="152.852" y2="76.7386" gradientUnits="userSpaceOnUse">
<stop stop-color="#B3E0FF"/>
<stop offset="1" stop-color="#E0B09C"/>
</linearGradient>
<linearGradient id="paint26_linear_9562_2270" x1="192.811" y1="72.6612" x2="186.237" y2="68.2188" gradientUnits="userSpaceOnUse">
<stop stop-color="#FFE4BE"/>
<stop offset="0.586538" stop-color="#FFE4BE" stop-opacity="0.4"/>
<stop offset="0.701923" stop-color="#FFDAC2" stop-opacity="0"/>
</linearGradient>
<linearGradient id="paint27_linear_9562_2270" x1="181.881" y1="69.091" x2="185.392" y2="70.9308" gradientUnits="userSpaceOnUse">
<stop stop-color="#00204D"/>
<stop offset="0.894231" stop-color="#1B1252" stop-opacity="0.1"/>
<stop offset="1" stop-color="#240D54" stop-opacity="0"/>
</linearGradient>
<radialGradient id="paint28_radial_9562_2270" cx="0" cy="0" r="1" gradientUnits="userSpaceOnUse" gradientTransform="translate(195.635 54.5813) rotate(100.525) scale(7.40427 8.78501)">
<stop stop-color="#00204D"/>
<stop offset="1" stop-color="#C6CDD6" stop-opacity="0"/>
</radialGradient>
<linearGradient id="paint29_linear_9562_2270" x1="183.228" y1="18.7255" x2="257.854" y2="116.259" gradientUnits="userSpaceOnUse">
<stop stop-color="#B3E0FF"/>
<stop offset="1" stop-color="#E0B09C"/>
</linearGradient>
<linearGradient id="paint30_linear_9562_2270" x1="191.485" y1="89.4798" x2="195.749" y2="89.5873" gradientUnits="userSpaceOnUse">
<stop stop-color="#FFE4BE"/>
<stop offset="0.586538" stop-color="#FFE4BE" stop-opacity="0.4"/>
<stop offset="0.701923" stop-color="#FFDAC2" stop-opacity="0"/>
</linearGradient>
<linearGradient id="paint31_linear_9562_2270" x1="203.226" y1="83.1557" x2="196.907" y2="83.2969" gradientUnits="userSpaceOnUse">
<stop stop-color="#00204D" stop-opacity="0.7"/>
<stop offset="0.894231" stop-color="#1B1252" stop-opacity="0.2"/>
<stop offset="1" stop-color="#240D54" stop-opacity="0"/>
</linearGradient>
<linearGradient id="paint32_linear_9562_2270" x1="186.853" y1="46.1499" x2="208.799" y2="66.62" gradientUnits="userSpaceOnUse">
<stop stop-color="#B3E0FF"/>
<stop offset="1" stop-color="#E0B09C"/>
</linearGradient>
<radialGradient id="paint33_radial_9562_2270" cx="0" cy="0" r="1" gradientUnits="userSpaceOnUse" gradientTransform="translate(193.204 53.6905) rotate(37.5092) scale(5.60246 5.32199)">
<stop stop-color="#FFE4BE"/>
<stop offset="0.462373" stop-color="#FFDEC0" stop-opacity="0.444622"/>
<stop offset="0.753569" stop-color="#FFDAC2" stop-opacity="0"/>
</radialGradient>
<radialGradient id="paint34_radial_9562_2270" cx="0" cy="0" r="1" gradientUnits="userSpaceOnUse" gradientTransform="translate(194.842 54.3987) rotate(15.3311) scale(4.86632)">
<stop offset="0.353819" stop-color="#C6CDD6" stop-opacity="0"/>
<stop offset="1" stop-color="#00204D"/>
</radialGradient>
<linearGradient id="paint35_linear_9562_2270" x1="149.542" y1="62.865" x2="118.52" y2="99.111" gradientUnits="userSpaceOnUse">
<stop stop-color="#B3E0FF"/>
<stop offset="1" stop-color="#E0B09C"/>
</linearGradient>
<linearGradient id="paint36_linear_9562_2270" x1="135.118" y1="75.4882" x2="129.61" y2="76.9673" gradientUnits="userSpaceOnUse">
<stop stop-color="#FFE4BE"/>
<stop offset="0.586538" stop-color="#FFE4BE" stop-opacity="0.4"/>
<stop offset="0.701923" stop-color="#FFDAC2" stop-opacity="0"/>
</linearGradient>
<linearGradient id="paint37_linear_9562_2270" x1="128.034" y1="79.7435" x2="130.686" y2="78.703" gradientUnits="userSpaceOnUse">
<stop stop-color="#00204D"/>
<stop offset="0.894231" stop-color="#1B1252" stop-opacity="0.1"/>
<stop offset="1" stop-color="#240D54" stop-opacity="0"/>
</linearGradient>
<radialGradient id="paint38_radial_9562_2270" cx="0" cy="0" r="1" gradientUnits="userSpaceOnUse" gradientTransform="translate(126.628 65.4421) rotate(51.4449) scale(5.32211 6.31457)">
<stop stop-color="#00204D"/>
<stop offset="1" stop-color="#C6CDD6" stop-opacity="0"/>
</radialGradient>
<linearGradient id="paint39_linear_9562_2270" x1="113.158" y1="47.0493" x2="160.059" y2="55.792" gradientUnits="userSpaceOnUse">
<stop stop-color="#B3E0FF"/>
<stop offset="1" stop-color="#E0B09C"/>
</linearGradient>
<linearGradient id="paint40_linear_9562_2270" x1="131.302" y1="53.2288" x2="135.337" y2="57.2593" gradientUnits="userSpaceOnUse">
<stop stop-color="#FFE4BE"/>
<stop offset="0.586538" stop-color="#FFE4BE" stop-opacity="0.4"/>
<stop offset="0.701923" stop-color="#FFDAC2" stop-opacity="0"/>
</linearGradient>
<linearGradient id="paint41_linear_9562_2270" x1="138.53" y1="57.2368" x2="136.302" y2="55.4603" gradientUnits="userSpaceOnUse">
<stop stop-color="#00204D"/>
<stop offset="0.894231" stop-color="#1B1252" stop-opacity="0.1"/>
<stop offset="1" stop-color="#240D54" stop-opacity="0"/>
</linearGradient>
<radialGradient id="paint42_radial_9562_2270" cx="0" cy="0" r="1" gradientUnits="userSpaceOnUse" gradientTransform="translate(126.847 65.6046) rotate(-68.5551) scale(5.32211 6.31457)">
<stop stop-color="#00204D"/>
<stop offset="1" stop-color="#C6CDD6" stop-opacity="0"/>
</radialGradient>
<linearGradient id="paint43_linear_9562_2270" x1="117.51" y1="86.5843" x2="101.631" y2="41.5956" gradientUnits="userSpaceOnUse">
<stop stop-color="#B3E0FF"/>
<stop offset="1" stop-color="#E0B09C"/>
</linearGradient>
<linearGradient id="paint44_linear_9562_2270" x1="113.79" y1="67.7815" x2="115.263" y2="62.272" gradientUnits="userSpaceOnUse">
<stop stop-color="#FFE4BE"/>
<stop offset="0.586538" stop-color="#FFE4BE" stop-opacity="0.4"/>
<stop offset="0.701923" stop-color="#FFDAC2" stop-opacity="0"/>
</linearGradient>
<linearGradient id="paint45_linear_9562_2270" x1="113.647" y1="59.5182" x2="113.222" y2="62.3352" gradientUnits="userSpaceOnUse">
<stop stop-color="#00204D"/>
<stop offset="0.894231" stop-color="#1B1252" stop-opacity="0.1"/>
<stop offset="1" stop-color="#240D54" stop-opacity="0"/>
</linearGradient>
<radialGradient id="paint46_radial_9562_2270" cx="0" cy="0" r="1" gradientUnits="userSpaceOnUse" gradientTransform="translate(126.735 65.4519) rotate(171.445) scale(5.32211 6.31457)">
<stop stop-color="#00204D"/>
<stop offset="1" stop-color="#C6CDD6" stop-opacity="0"/>
</radialGradient>
<linearGradient id="paint47_linear_9562_2270" x1="117.902" y1="43.1946" x2="158.461" y2="108.379" gradientUnits="userSpaceOnUse">
<stop stop-color="#B3E0FF"/>
<stop offset="1" stop-color="#E0B09C"/>
</linearGradient>
<linearGradient id="paint48_linear_9562_2270" x1="123.839" y1="84.5679" x2="126.904" y2="84.6628" gradientUnits="userSpaceOnUse">
<stop stop-color="#FFE4BE"/>
<stop offset="0.586538" stop-color="#FFE4BE" stop-opacity="0.4"/>
<stop offset="0.701923" stop-color="#FFDAC2" stop-opacity="0"/>
</linearGradient>
<linearGradient id="paint49_linear_9562_2270" x1="132.282" y1="80.8699" x2="127.739" y2="80.9947" gradientUnits="userSpaceOnUse">
<stop stop-color="#00204D" stop-opacity="0.7"/>
<stop offset="0.894231" stop-color="#1B1252" stop-opacity="0.2"/>
<stop offset="1" stop-color="#240D54" stop-opacity="0"/>
</linearGradient>
<linearGradient id="paint50_linear_9562_2270" x1="130.399" y1="57.5029" x2="121.651" y2="77.2212" gradientUnits="userSpaceOnUse">
<stop stop-color="#B3E0FF"/>
<stop offset="1" stop-color="#E0B09C"/>
</linearGradient>
<radialGradient id="paint51_radial_9562_2270" cx="0" cy="0" r="1" gradientUnits="userSpaceOnUse" gradientTransform="translate(126.769 63.5894) rotate(108.429) scale(4.02699 3.82539)">
<stop stop-color="#FFE4BE"/>
<stop offset="0.462373" stop-color="#FFDEC0" stop-opacity="0.444622"/>
<stop offset="0.753569" stop-color="#FFDAC2" stop-opacity="0"/>
</radialGradient>
<radialGradient id="paint52_radial_9562_2270" cx="0" cy="0" r="1" gradientUnits="userSpaceOnUse" gradientTransform="translate(126.673 64.8682) rotate(86.251) scale(3.49786)">
<stop offset="0.353819" stop-color="#C6CDD6" stop-opacity="0"/>
<stop offset="1" stop-color="#00204D"/>
</radialGradient>
<linearGradient id="paint53_linear_9562_2270" x1="170.152" y1="51.2709" x2="166.244" y2="80.9224" gradientUnits="userSpaceOnUse">
<stop stop-color="#B3E0FF"/>
<stop offset="1" stop-color="#E0B09C"/>
</linearGradient>
<linearGradient id="paint54_linear_9562_2270" x1="166.889" y1="62.8351" x2="164.5" y2="65.4953" gradientUnits="userSpaceOnUse">
<stop stop-color="#FFE4BE"/>
<stop offset="0.586538" stop-color="#FFE4BE" stop-opacity="0.4"/>
<stop offset="0.701923" stop-color="#FFDAC2" stop-opacity="0"/>
</linearGradient>
<linearGradient id="paint55_linear_9562_2270" x1="164.621" y1="67.4933" x2="165.659" y2="66.0398" gradientUnits="userSpaceOnUse">
<stop stop-color="#00204D"/>
<stop offset="0.894231" stop-color="#1B1252" stop-opacity="0.1"/>
<stop offset="1" stop-color="#240D54" stop-opacity="0"/>
</linearGradient>
<radialGradient id="paint56_radial_9562_2270" cx="0" cy="0" r="1" gradientUnits="userSpaceOnUse" gradientTransform="translate(158.993 60.4591) rotate(18.3937) scale(3.33636 3.95852)">
<stop stop-color="#00204D"/>
<stop offset="1" stop-color="#C6CDD6" stop-opacity="0"/>
</radialGradient>
<linearGradient id="paint57_linear_9562_2270" x1="145.628" y1="55.4005" x2="173.261" y2="43.9591" gradientUnits="userSpaceOnUse">
<stop stop-color="#B3E0FF"/>
<stop offset="1" stop-color="#E0B09C"/>
</linearGradient>
<linearGradient id="paint58_linear_9562_2270" x1="157.275" y1="52.4442" x2="160.773" y2="53.1825" gradientUnits="userSpaceOnUse">
<stop stop-color="#FFE4BE"/>
<stop offset="0.586538" stop-color="#FFE4BE" stop-opacity="0.4"/>
<stop offset="0.701923" stop-color="#FFDAC2" stop-opacity="0"/>
</linearGradient>
<linearGradient id="paint59_linear_9562_2270" x1="162.443" y1="52.0791" x2="160.665" y2="51.9071" gradientUnits="userSpaceOnUse">
<stop stop-color="#00204D"/>
<stop offset="0.894231" stop-color="#1B1252" stop-opacity="0.1"/>
<stop offset="1" stop-color="#240D54" stop-opacity="0"/>
</linearGradient>
<radialGradient id="paint60_radial_9562_2270" cx="0" cy="0" r="1" gradientUnits="userSpaceOnUse" gradientTransform="translate(159.165 60.4702) rotate(-101.606) scale(3.33636 3.95852)">
<stop stop-color="#00204D"/>
<stop offset="1" stop-color="#C6CDD6" stop-opacity="0"/>
</radialGradient>
<linearGradient id="paint61_linear_9562_2270" x1="161.43" y1="74.6826" x2="137.705" y2="56.4724" gradientUnits="userSpaceOnUse">
<stop stop-color="#B3E0FF"/>
<stop offset="1" stop-color="#E0B09C"/>
</linearGradient>
<linearGradient id="paint62_linear_9562_2270" x1="153.047" y1="66.0747" x2="151.937" y2="62.6761" gradientUnits="userSpaceOnUse">
<stop stop-color="#FFE4BE"/>
<stop offset="0.586538" stop-color="#FFE4BE" stop-opacity="0.4"/>
<stop offset="0.701923" stop-color="#FFDAC2" stop-opacity="0"/>
</linearGradient>
<linearGradient id="paint63_linear_9562_2270" x1="150.147" y1="61.7816" x2="150.887" y2="63.4071" gradientUnits="userSpaceOnUse">
<stop stop-color="#00204D"/>
<stop offset="0.894231" stop-color="#1B1252" stop-opacity="0.1"/>
<stop offset="1" stop-color="#240D54" stop-opacity="0"/>
</linearGradient>
<radialGradient id="paint64_radial_9562_2270" cx="0" cy="0" r="1" gradientUnits="userSpaceOnUse" gradientTransform="translate(159.053 60.4247) rotate(138.394) scale(3.33636 3.95852)">
<stop stop-color="#00204D"/>
<stop offset="1" stop-color="#C6CDD6" stop-opacity="0"/>
</radialGradient>
<linearGradient id="paint65_linear_9562_2270" x1="153.447" y1="47.3186" x2="178.868" y2="88.1811" gradientUnits="userSpaceOnUse">
<stop stop-color="#B3E0FF"/>
<stop offset="1" stop-color="#E0B09C"/>
</linearGradient>
<linearGradient id="paint66_linear_9562_2270" x1="157.169" y1="73.2519" x2="159.091" y2="73.3115" gradientUnits="userSpaceOnUse">
<stop stop-color="#FFE4BE"/>
<stop offset="0.586538" stop-color="#FFE4BE" stop-opacity="0.4"/>
<stop offset="0.701923" stop-color="#FFDAC2" stop-opacity="0"/>
</linearGradient>
<linearGradient id="paint67_linear_9562_2270" x1="162.462" y1="70.934" x2="159.614" y2="71.0122" gradientUnits="userSpaceOnUse">
<stop stop-color="#00204D" stop-opacity="0.7"/>
<stop offset="0.894231" stop-color="#1B1252" stop-opacity="0.2"/>
<stop offset="1" stop-color="#240D54" stop-opacity="0"/>
</linearGradient>
<linearGradient id="paint68_linear_9562_2270" x1="158.262" y1="54.9983" x2="160.407" y2="68.3503" gradientUnits="userSpaceOnUse">
<stop stop-color="#B3E0FF"/>
<stop offset="1" stop-color="#E0B09C"/>
</linearGradient>
<radialGradient id="paint69_radial_9562_2270" cx="0" cy="0" r="1" gradientUnits="userSpaceOnUse" gradientTransform="translate(158.436 59.4375) rotate(75.3778) scale(2.52446 2.39809)">
<stop stop-color="#FFE4BE"/>
<stop offset="0.462373" stop-color="#FFDEC0" stop-opacity="0.444622"/>
<stop offset="0.753569" stop-color="#FFDAC2" stop-opacity="0"/>
</radialGradient>
<radialGradient id="paint70_radial_9562_2270" cx="0" cy="0" r="1" gradientUnits="userSpaceOnUse" gradientTransform="translate(158.823 60.1424) rotate(53.1998) scale(2.19276)">
<stop offset="0.353819" stop-color="#C6CDD6" stop-opacity="0"/>
<stop offset="1" stop-color="#00204D"/>
</radialGradient>
<linearGradient id="paint71_linear_9562_2270" x1="131.116" y1="21.3198" x2="132.667" y2="44.295" gradientUnits="userSpaceOnUse">
<stop offset="0.03" stop-color="#8BE7FF" stop-opacity="0.7"/>
<stop offset="1" stop-color="#CF9CFF" stop-opacity="0.5"/>
</linearGradient>
<radialGradient id="paint72_radial_9562_2270" cx="0" cy="0" r="1" gradientUnits="userSpaceOnUse" gradientTransform="translate(123.764 30.0142) rotate(1.49124) scale(57.3317 14.4946)">
<stop offset="0.351867" stop-color="#FFDAC2" stop-opacity="0"/>
<stop offset="1" stop-color="#CBEEFE"/>
</radialGradient>
<radialGradient id="paint73_radial_9562_2270" cx="0" cy="0" r="1" gradientUnits="userSpaceOnUse" gradientTransform="translate(139.843 42.9808) rotate(-98.5691) scale(19.1449 17.4517)">
<stop stop-color="#FFCDB6" stop-opacity="0.6"/>
<stop offset="1" stop-color="#FFF2C2" stop-opacity="0"/>
</radialGradient>
<radialGradient id="paint74_radial_9562_2270" cx="0" cy="0" r="1" gradientUnits="userSpaceOnUse" gradientTransform="translate(103.277 45.5741) rotate(-7.04077) scale(38.1501 12.9746)">
<stop stop-color="#FFCDB6" stop-opacity="0.6"/>
<stop offset="1" stop-color="#FFF2C2" stop-opacity="0"/>
</radialGradient>
<linearGradient id="paint75_linear_9562_2270" x1="38.5929" y1="12.9027" x2="39.9914" y2="29.1916" gradientUnits="userSpaceOnUse">
<stop offset="0.03" stop-color="#93E8FE" stop-opacity="0.7"/>
<stop offset="1" stop-color="#CD99FF" stop-opacity="0.4"/>
</linearGradient>
<radialGradient id="paint76_radial_9562_2270" cx="0" cy="0" r="1" gradientUnits="userSpaceOnUse" gradientTransform="translate(27.943 19.3465) rotate(1.49124) scale(39.3791 9.95579)">
<stop offset="0.351867" stop-color="#FFDAC2" stop-opacity="0"/>
<stop offset="1" stop-color="#CBEEFE"/>
</radialGradient>
<radialGradient id="paint77_radial_9562_2270" cx="0" cy="0" r="1" gradientUnits="userSpaceOnUse" gradientTransform="translate(38.9868 28.2528) rotate(-98.5691) scale(13.15 11.987)">
<stop stop-color="#FFCDB6" stop-opacity="0.6"/>
<stop offset="1" stop-color="#FFF2C2" stop-opacity="0"/>
</radialGradient>
<radialGradient id="paint78_radial_9562_2270" cx="0" cy="0" r="1" gradientUnits="userSpaceOnUse" gradientTransform="translate(13.8711 30.0341) rotate(-7.04077) scale(26.2039 8.9118)">
<stop stop-color="#FFCDB6" stop-opacity="0.5"/>
<stop offset="1" stop-color="#FFF2C2" stop-opacity="0"/>
</radialGradient>
<linearGradient id="paint79_linear_9562_2270" x1="103.14" y1="16.1794" x2="115.537" y2="121.727" gradientUnits="userSpaceOnUse">
<stop stop-color="#B8E2FF"/>
<stop offset="1" stop-color="#E1B4A0"/>
</linearGradient>
<linearGradient id="paint80_linear_9562_2270" x1="101.986" y1="58.8596" x2="96.0804" y2="70.1078" gradientUnits="userSpaceOnUse">
<stop stop-color="#FFE6C3"/>
<stop offset="0.586538" stop-color="#FFE6C3" stop-opacity="0.4"/>
<stop offset="0.701923" stop-color="#FFDDC7" stop-opacity="0"/>
</linearGradient>
<linearGradient id="paint81_linear_9562_2270" x1="98.2364" y1="76.8833" x2="100.543" y2="70.9711" gradientUnits="userSpaceOnUse">
<stop stop-color="#002252"/>
<stop offset="0.894231" stop-color="#1C1356" stop-opacity="0.1"/>
<stop offset="1" stop-color="#260E58" stop-opacity="0"/>
</linearGradient>
<radialGradient id="paint82_radial_9562_2270" cx="0" cy="0" r="1" gradientUnits="userSpaceOnUse" gradientTransform="translate(72.7075 57.5619) rotate(4.18373) scale(11.8585 14.0659)">
<stop stop-color="#002252"/>
<stop offset="1" stop-color="#C9D0D8" stop-opacity="0"/>
</radialGradient>
<linearGradient id="paint83_linear_9562_2270" x1="22.243" y1="51.8004" x2="107.456" y2="-11.7353" gradientUnits="userSpaceOnUse">
<stop stop-color="#B8E2FF"/>
<stop offset="1" stop-color="#E1B4A0"/>
</linearGradient>
<linearGradient id="paint84_linear_9562_2270" x1="59.7926" y1="31.4593" x2="72.4897" y2="30.9512" gradientUnits="userSpaceOnUse">
<stop stop-color="#FFE6C3"/>
<stop offset="0.586538" stop-color="#FFE6C3" stop-opacity="0.4"/>
<stop offset="0.701923" stop-color="#FFDDC7" stop-opacity="0"/>
</linearGradient>
<linearGradient id="paint85_linear_9562_2270" x1="77.281" y1="25.6941" x2="71.006" y2="26.6526" gradientUnits="userSpaceOnUse">
<stop stop-color="#002252"/>
<stop offset="0.894231" stop-color="#1C1356" stop-opacity="0.1"/>
<stop offset="1" stop-color="#260E58" stop-opacity="0"/>
</linearGradient>
<radialGradient id="paint86_radial_9562_2270" cx="0" cy="0" r="1" gradientUnits="userSpaceOnUse" gradientTransform="translate(73.3078 57.4572) rotate(-115.821) scale(11.8558 14.0691)">
<stop stop-color="#002252"/>
<stop offset="1" stop-color="#C9D0D8" stop-opacity="0"/>
</radialGradient>
<linearGradient id="paint87_linear_9562_2270" x1="93.5212" y1="104.443" x2="-4.10433" y2="62.3879" gradientUnits="userSpaceOnUse">
<stop stop-color="#B8E2FF"/>
<stop offset="1" stop-color="#E1B4A0"/>
</linearGradient>
<linearGradient id="paint88_linear_9562_2270" x1="57.1255" y1="82.1035" x2="50.3398" y2="71.3627" gradientUnits="userSpaceOnUse">
<stop stop-color="#FFE6C3"/>
<stop offset="0.586538" stop-color="#FFE6C3" stop-opacity="0.4"/>
<stop offset="0.701923" stop-color="#FFDDC7" stop-opacity="0"/>
</linearGradient>
<linearGradient id="paint89_linear_9562_2270" x1="43.3871" y1="69.8449" x2="47.353" y2="74.7999" gradientUnits="userSpaceOnUse">
<stop stop-color="#002252"/>
<stop offset="0.894231" stop-color="#1C1356" stop-opacity="0.1"/>
<stop offset="1" stop-color="#260E58" stop-opacity="0"/>
</linearGradient>
<radialGradient id="paint90_radial_9562_2270" cx="0" cy="0" r="1" gradientUnits="userSpaceOnUse" gradientTransform="translate(72.8891 57.4033) rotate(124.192) scale(11.8562 14.0686)">
<stop stop-color="#002252"/>
<stop offset="1" stop-color="#C9D0D8" stop-opacity="0"/>
</radialGradient>
<linearGradient id="paint91_linear_9562_2270" x1="53.0921" y1="23.6791" x2="112.486" y2="148.991" gradientUnits="userSpaceOnUse">
<stop stop-color="#B8E2FF"/>
<stop offset="1" stop-color="#E1B4A0"/>
</linearGradient>
<linearGradient id="paint92_linear_9562_2270" x1="66.3208" y1="93.8981" x2="73.1447" y2="94.1757" gradientUnits="userSpaceOnUse">
<stop stop-color="#FFE6C3"/>
<stop offset="0.586538" stop-color="#FFE6C3" stop-opacity="0.4"/>
<stop offset="0.701923" stop-color="#FFDDC7" stop-opacity="0"/>
</linearGradient>
<linearGradient id="paint93_linear_9562_2270" x1="85.1317" y1="87.6218" x2="75.0152" y2="87.9866" gradientUnits="userSpaceOnUse">
<stop stop-color="#002252" stop-opacity="0.7"/>
<stop offset="0.894231" stop-color="#1C1356" stop-opacity="0.2"/>
<stop offset="1" stop-color="#260E58" stop-opacity="0"/>
</linearGradient>
<linearGradient id="paint94_linear_9562_2270" x1="65.4238" y1="39.3949" x2="84.4532" y2="83.5209" gradientUnits="userSpaceOnUse">
<stop stop-color="#B8E2FF"/>
<stop offset="1" stop-color="#E1B4A0"/>
</linearGradient>
<radialGradient id="paint95_radial_9562_2270" cx="0" cy="0" r="1" gradientUnits="userSpaceOnUse" gradientTransform="translate(69.895 54.5348) rotate(61.1621) scale(8.97083 8.52303)">
<stop stop-color="#FFE6C3"/>
<stop offset="0.462373" stop-color="#FFE1C5" stop-opacity="0.444622"/>
<stop offset="0.753569" stop-color="#FFDDC7" stop-opacity="0"/>
</radialGradient>
<radialGradient id="paint96_radial_9562_2270" cx="0" cy="0" r="1" gradientUnits="userSpaceOnUse" gradientTransform="translate(71.8421 56.6256) rotate(38.983) scale(7.79292 7.79246)">
<stop offset="0.353819" stop-color="#C9D0D8" stop-opacity="0"/>
<stop offset="1" stop-color="#002252"/>
</radialGradient>
</defs>
</svg>
