<svg viewBox="0 0 240 120" fill="none" xmlns="http://www.w3.org/2000/svg">
<path d="M18.2296 63.559C12.1463 67.9655 9.10619 87.5493 34.9583 92.935C89.8724 95.8726 207.309 94.1597 214.907 89.9973C235.354 78.7961 217.948 66.0068 214.907 58.6628C211.865 51.3189 224.764 47.8703 221.142 32.9629C217.52 18.0554 195.758 1.36266 159.411 3.74932C123.065 6.13598 97.3921 12.3243 63.3537 8.07624C29.3152 3.8282 18.5193 22.5541 14.971 38.7109C11.4227 54.8677 24.313 59.1525 18.2296 63.559Z" fill="url(#paint0_linear_10466_33881)"/>
<path d="M18.2296 63.559C12.1463 67.9655 9.10619 87.5493 34.9583 92.935C89.8724 95.8726 207.309 94.1597 214.907 89.9973C235.354 78.7961 217.948 66.0068 214.907 58.6628C211.865 51.3189 224.764 47.8703 221.142 32.9629C217.52 18.0554 195.758 1.36266 159.411 3.74932C123.065 6.13598 97.3921 12.3243 63.3537 8.07624C29.3152 3.8282 18.5193 22.5541 14.971 38.7109C11.4227 54.8677 24.313 59.1525 18.2296 63.559Z" fill="url(#paint1_radial_10466_33881)"/>
<path d="M18.2296 63.559C12.1463 67.9655 9.10619 87.5493 34.9583 92.935C89.8724 95.8726 207.309 94.1597 214.907 89.9973C235.354 78.7961 217.948 66.0068 214.907 58.6628C211.865 51.3189 224.764 47.8703 221.142 32.9629C217.52 18.0554 195.758 1.36266 159.411 3.74932C123.065 6.13598 97.3921 12.3243 63.3537 8.07624C29.3152 3.8282 18.5193 22.5541 14.971 38.7109C11.4227 54.8677 24.313 59.1525 18.2296 63.559Z" fill="url(#paint2_radial_10466_33881)"/>
<path d="M33.7462 70.1105C25.226 76.3978 21.9278 77.7076 26.875 96.3075C37.3189 93.9498 57.8219 87.7673 56.2827 81.8992C54.3588 74.5641 74.4225 70.1105 73.0483 64.6092C71.6741 59.1079 68.3759 55.1783 71.1244 50.4629C73.8728 45.7474 87.6151 47.3193 93.9365 40.77C100.258 34.2208 122.795 37.1024 130.216 44.6996C137.637 52.2967 143.684 49.153 156.052 47.3193C168.42 45.4855 161.548 58.322 165.121 66.705C168.694 75.088 174.741 76.6598 168.969 89.2343C180.879 89.409 205.084 89.1296 206.623 86.6147C208.547 83.471 216.243 61.7276 204.699 56.4882C193.156 51.2488 193.431 54.6544 189.033 38.6743C184.635 22.6941 171.718 21.9082 157.975 23.48C144.233 25.0519 140.111 12.4773 125.269 11.1674C110.427 9.8576 102.457 23.218 91.7378 19.2885C81.0188 15.3589 67.2765 17.9786 62.879 29.5053C58.4815 41.0319 48.8619 37.6263 38.4178 49.153C27.9737 60.6796 42.2664 63.8233 33.7462 70.1105Z" fill="url(#paint3_radial_10466_33881)"/>
<path d="M33.7462 70.1105C25.226 76.3978 21.9278 77.7076 26.875 96.3075C37.3189 93.9498 57.8219 87.7673 56.2827 81.8992C54.3588 74.5641 74.4225 70.1105 73.0483 64.6092C71.6741 59.1079 68.3759 55.1783 71.1244 50.4629C73.8728 45.7474 87.6151 47.3193 93.9365 40.77C100.258 34.2208 122.795 37.1024 130.216 44.6996C137.637 52.2967 143.684 49.153 156.052 47.3193C168.42 45.4855 161.548 58.322 165.121 66.705C168.694 75.088 174.741 76.6598 168.969 89.2343C180.879 89.409 205.084 89.1296 206.623 86.6147C208.547 83.471 216.243 61.7276 204.699 56.4882C193.156 51.2488 193.431 54.6544 189.033 38.6743C184.635 22.6941 171.718 21.9082 157.975 23.48C144.233 25.0519 140.111 12.4773 125.269 11.1674C110.427 9.8576 102.457 23.218 91.7378 19.2885C81.0188 15.3589 67.2765 17.9786 62.879 29.5053C58.4815 41.0319 48.8619 37.6263 38.4178 49.153C27.9737 60.6796 42.2664 63.8233 33.7462 70.1105Z" fill="url(#paint4_radial_10466_33881)"/>
<path d="M33.7462 70.1105C25.226 76.3978 21.9278 77.7076 26.875 96.3075C37.3189 93.9498 57.8219 87.7673 56.2827 81.8992C54.3588 74.5641 74.4225 70.1105 73.0483 64.6092C71.6741 59.1079 68.3759 55.1783 71.1244 50.4629C73.8728 45.7474 87.6151 47.3193 93.9365 40.77C100.258 34.2208 122.795 37.1024 130.216 44.6996C137.637 52.2967 143.684 49.153 156.052 47.3193C168.42 45.4855 161.548 58.322 165.121 66.705C168.694 75.088 174.741 76.6598 168.969 89.2343C180.879 89.409 205.084 89.1296 206.623 86.6147C208.547 83.471 216.243 61.7276 204.699 56.4882C193.156 51.2488 193.431 54.6544 189.033 38.6743C184.635 22.6941 171.718 21.9082 157.975 23.48C144.233 25.0519 140.111 12.4773 125.269 11.1674C110.427 9.8576 102.457 23.218 91.7378 19.2885C81.0188 15.3589 67.2765 17.9786 62.879 29.5053C58.4815 41.0319 48.8619 37.6263 38.4178 49.153C27.9737 60.6796 42.2664 63.8233 33.7462 70.1105Z" fill="url(#paint5_radial_10466_33881)"/>
<path d="M33.7462 70.1105C25.226 76.3978 21.9278 77.7076 26.875 96.3075C37.3189 93.9498 57.8219 87.7673 56.2827 81.8992C54.3588 74.5641 74.4225 70.1105 73.0483 64.6092C71.6741 59.1079 68.3759 55.1783 71.1244 50.4629C73.8728 45.7474 87.6151 47.3193 93.9365 40.77C100.258 34.2208 122.795 37.1024 130.216 44.6996C137.637 52.2967 143.684 49.153 156.052 47.3193C168.42 45.4855 161.548 58.322 165.121 66.705C168.694 75.088 174.741 76.6598 168.969 89.2343C180.879 89.409 205.084 89.1296 206.623 86.6147C208.547 83.471 216.243 61.7276 204.699 56.4882C193.156 51.2488 193.431 54.6544 189.033 38.6743C184.635 22.6941 171.718 21.9082 157.975 23.48C144.233 25.0519 140.111 12.4773 125.269 11.1674C110.427 9.8576 102.457 23.218 91.7378 19.2885C81.0188 15.3589 67.2765 17.9786 62.879 29.5053C58.4815 41.0319 48.8619 37.6263 38.4178 49.153C27.9737 60.6796 42.2664 63.8233 33.7462 70.1105Z" fill="url(#paint6_radial_10466_33881)"/>
<path d="M14.6429 91.5392C10.8012 85.8027 25.8466 79.5673 37.6928 78.8191C49.539 78.0708 49.2189 83.8074 55.9418 86.8003C62.6647 89.7933 63.6251 86.8003 70.348 86.8003C77.0709 86.8003 83.4736 91.5392 93.3979 91.5392C103.322 91.5392 108.444 86.8003 115.487 86.8003C122.53 86.8003 125.732 89.5439 131.174 91.5392C136.616 93.5345 136.614 88.0475 142.056 88.0475C147.499 88.0475 151.023 90.2921 155.184 89.5439C159.346 88.7956 169.591 83.8074 176.634 82.5603C183.677 81.3132 186.558 86.5509 192.32 86.8003C198.083 87.0497 200.004 82.5603 203.205 82.5603C206.406 82.5603 223.054 86.3015 224.334 91.5392C225.615 96.7769 208.647 97.2757 212.489 101.266C216.331 105.257 231.697 114.236 120.289 114.236C8.88153 114.236 20.4147 104.259 28.7383 101.266C37.0619 98.2734 18.4845 97.2757 14.6429 91.5392Z" fill="url(#paint7_linear_10466_33881)"/>
<path d="M163.141 97.0746C180.987 94.0582 208.873 90.1908 224.074 93.2119C221.869 96.9383 209.105 97.7495 212.491 101.266C216.333 105.257 231.691 114.234 120.291 114.234C8.88312 114.234 20.4169 104.259 28.7405 101.266C29.6877 100.926 30.2771 100.601 30.5885 100.302C48.8931 97.3114 72.7132 93.0181 90.7372 97.0746C115.085 102.554 141.997 100.649 163.141 97.0746Z" fill="url(#paint8_radial_10466_33881)"/>
<path d="M147.007 105.741C160.565 106.99 177.873 95.4955 191.719 97.2446C198.291 98.0749 207.013 100.715 214.53 103.361C218.081 107.758 214.943 114.237 120.288 114.237C118.595 114.237 116.931 114.228 115.294 114.223L113.834 108.238C129.411 103.24 133.449 104.491 147.007 105.741Z" fill="url(#paint9_radial_10466_33881)"/>
<path d="M18.209 93.745C37.8244 87.4982 58.1609 102.738 82.3917 101.488C103.529 100.398 122.348 107.738 138.213 109.737C154.079 111.735 174.56 109.734 184.656 105.486C192.477 102.197 207.957 103.96 215.39 105.36C215.274 109.485 201.31 114.235 120.288 114.235C8.88113 114.235 20.4143 104.256 28.7378 101.263C35.3657 98.8795 24.9383 97.752 18.4749 94.4977L18.209 93.745Z" fill="url(#paint10_radial_10466_33881)"/>
<path d="M36.8161 46.5451C36.8161 47.3137 36.1722 47.9368 35.3778 47.9368C34.5834 47.9368 33.9395 47.3137 33.9395 46.5451C33.9395 45.7764 34.5834 45.1533 35.3778 45.1533C36.1722 45.1533 36.8161 45.7764 36.8161 46.5451Z" fill="url(#paint11_radial_10466_33881)"/>
<path d="M47.3444 56.1227C47.3444 56.8914 46.7005 57.5145 45.9061 57.5145C45.1117 57.5145 44.4678 56.8914 44.4678 56.1227C44.4678 55.3541 45.1117 54.731 45.9061 54.731C46.7005 54.731 47.3444 55.3541 47.3444 56.1227Z" fill="url(#paint12_radial_10466_33881)"/>
<path d="M52.5368 46.5451C52.5368 47.3137 51.8929 47.9368 51.0985 47.9368C50.3041 47.9368 49.6602 47.3137 49.6602 46.5451C49.6602 45.7764 50.3041 45.1533 51.0985 45.1533C51.8929 45.1533 52.5368 45.7764 52.5368 46.5451Z" fill="url(#paint13_radial_10466_33881)"/>
<path d="M39.6911 22.382C39.6911 23.1506 39.0472 23.7738 38.2528 23.7738C37.4584 23.7738 36.8145 23.1506 36.8145 22.382C36.8145 21.6133 37.4584 20.9902 38.2528 20.9902C39.0472 20.9902 39.6911 21.6133 39.6911 22.382Z" fill="url(#paint14_radial_10466_33881)"/>
<path d="M104.163 34.0016C104.163 34.7703 103.519 35.3934 102.724 35.3934C101.93 35.3934 101.286 34.7703 101.286 34.0016C101.286 33.233 101.93 32.6099 102.724 32.6099C103.519 32.6099 104.163 33.233 104.163 34.0016Z" fill="url(#paint15_radial_10466_33881)"/>
<path d="M93.2458 56.1227C93.2458 56.8914 92.6018 57.5145 91.8075 57.5145C91.0131 57.5145 90.3691 56.8914 90.3691 56.1227C90.3691 55.3541 91.0131 54.731 91.8075 54.731C92.6018 54.731 93.2458 55.3541 93.2458 56.1227Z" fill="url(#paint16_radial_10466_33881)"/>
<path d="M119.676 47.9357C119.676 48.7044 119.033 49.3275 118.238 49.3275C117.444 49.3275 116.8 48.7044 116.8 47.9357C116.8 47.1671 117.444 46.5439 118.238 46.5439C119.033 46.5439 119.676 47.1671 119.676 47.9357Z" fill="url(#paint17_radial_10466_33881)"/>
<path d="M131.936 23.3146C131.936 24.0833 131.292 24.7064 130.498 24.7064C129.704 24.7064 129.06 24.0833 129.06 23.3146C129.06 22.546 129.704 21.9229 130.498 21.9229C131.292 21.9229 131.936 22.546 131.936 23.3146Z" fill="url(#paint18_radial_10466_33881)"/>
<path d="M113.836 17.2843C113.836 18.053 113.192 18.6761 112.397 18.6761C111.603 18.6761 110.959 18.053 110.959 17.2843C110.959 16.5157 111.603 15.8926 112.397 15.8926C113.192 15.8926 113.836 16.5157 113.836 17.2843Z" fill="url(#paint19_radial_10466_33881)"/>
<path d="M190.566 18.3297C190.566 19.0984 189.922 19.7215 189.128 19.7215C188.333 19.7215 187.689 19.0984 187.689 18.3297C187.689 17.5611 188.333 16.938 189.128 16.938C189.922 16.938 190.566 17.5611 190.566 18.3297Z" fill="url(#paint20_radial_10466_33881)"/>
<path d="M187.69 33.1383C187.69 33.907 187.046 34.5301 186.252 34.5301C185.457 34.5301 184.813 33.907 184.813 33.1383C184.813 32.3697 185.457 31.7466 186.252 31.7466C187.046 31.7466 187.69 32.3697 187.69 33.1383Z" fill="url(#paint21_radial_10466_33881)"/>
<path d="M213.797 46.5451C213.797 47.3137 213.153 47.9368 212.358 47.9368C211.564 47.9368 210.92 47.3137 210.92 46.5451C210.92 45.7764 211.564 45.1533 212.358 45.1533C213.153 45.1533 213.797 45.7764 213.797 46.5451Z" fill="url(#paint22_radial_10466_33881)"/>
<path d="M202.547 59.111C202.547 59.8796 201.903 60.5028 201.108 60.5028C200.314 60.5028 199.67 59.8796 199.67 59.111C199.67 58.3424 200.314 57.7192 201.108 57.7192C201.903 57.7192 202.547 58.3424 202.547 59.111Z" fill="url(#paint23_radial_10466_33881)"/>
<path d="M63.0889 31.7466C63.0889 33.7606 61.4016 35.3932 59.3203 35.3932C57.239 35.3932 55.5518 33.7606 55.5518 31.7466C55.5518 29.7327 57.239 28.1001 59.3203 28.1001C61.4016 28.1001 63.0889 29.7327 63.0889 31.7466Z" fill="url(#paint24_radial_10466_33881)"/>
<path d="M28.3291 36.2564C28.3291 38.2703 26.6419 39.9029 24.5606 39.9029C22.4792 39.9029 20.792 38.2703 20.792 36.2564C20.792 34.2425 22.4792 32.6099 24.5606 32.6099C26.6419 32.6099 28.3291 34.2425 28.3291 36.2564Z" fill="url(#paint25_radial_10466_33881)"/>
<path d="M93.2461 41.5049C93.2461 43.5189 91.5589 45.1515 89.4775 45.1515C87.3962 45.1515 85.709 43.5189 85.709 41.5049C85.709 39.491 87.3962 37.8584 89.4775 37.8584C91.5589 37.8584 93.2461 39.491 93.2461 41.5049Z" fill="url(#paint26_radial_10466_33881)"/>
<path d="M116.165 60.5005C116.165 62.5145 114.478 64.1471 112.396 64.1471C110.315 64.1471 108.628 62.5145 108.628 60.5005C108.628 58.4866 110.315 56.854 112.396 56.854C114.478 56.854 116.165 58.4866 116.165 60.5005Z" fill="url(#paint27_radial_10466_33881)"/>
<path d="M170.685 12.0254C170.685 14.0394 168.997 15.672 166.916 15.672C164.835 15.672 163.147 14.0394 163.147 12.0254C163.147 10.0115 164.835 8.37891 166.916 8.37891C168.997 8.37891 170.685 10.0115 170.685 12.0254Z" fill="url(#paint28_radial_10466_33881)"/>
<path d="M204.876 38.1763C204.876 40.1903 203.189 41.8229 201.107 41.8229C199.026 41.8229 197.339 40.1903 197.339 38.1763C197.339 36.1624 199.026 34.5298 201.107 34.5298C203.189 34.5298 204.876 36.1624 204.876 38.1763Z" fill="url(#paint29_radial_10466_33881)"/>
<path d="M77.0337 15.6714L77.5239 19.3675L81.0771 17.9303L78.0141 20.1892L81.0771 22.4481L77.5239 21.0108L77.0337 24.7069L76.5434 21.0108L72.9902 22.4481L76.0532 20.1892L72.9902 17.9303L76.5434 19.3675L77.0337 15.6714Z" fill="url(#paint30_radial_10466_33881)"/>
<path d="M203.983 18.3311L204.473 22.0272L208.026 20.5899L204.963 22.8488L208.026 25.1077L204.473 23.6705L203.983 27.3666L203.493 23.6705L199.939 25.1077L203.002 22.8488L199.939 20.5899L203.493 22.0272L203.983 18.3311Z" fill="url(#paint31_radial_10466_33881)"/>
<path d="M68.8571 48.9619C70.0127 51.6974 71.8909 53.5756 74.6264 54.7311C71.8909 55.8867 70.0127 57.7649 68.8571 60.5004C67.7015 57.7649 65.8234 55.8867 63.0879 54.7311C65.8234 53.5756 67.7015 51.6974 68.8571 48.9619Z" fill="url(#paint32_radial_10466_33881)"/>
<path d="M68.8571 48.9619C70.0127 51.6974 71.8909 53.5756 74.6264 54.7311C71.8909 55.8867 70.0127 57.7649 68.8571 60.5004C67.7015 57.7649 65.8234 55.8867 63.0879 54.7311C65.8234 53.5756 67.7015 51.6974 68.8571 48.9619Z" fill="url(#paint33_radial_10466_33881)"/>
<path d="M121.839 28.1001C122.994 30.8356 124.872 32.7137 127.608 33.8693C124.872 35.0249 122.994 36.9031 121.839 39.6386C120.683 36.9031 118.805 35.0249 116.069 33.8693C118.805 32.7137 120.683 30.8356 121.839 28.1001Z" fill="url(#paint34_radial_10466_33881)"/>
<path d="M121.839 28.1001C122.994 30.8356 124.872 32.7137 127.608 33.8693C124.872 35.0249 122.994 36.9031 121.839 39.6386C120.683 36.9031 118.805 35.0249 116.069 33.8693C118.805 32.7137 120.683 30.8356 121.839 28.1001Z" fill="url(#paint35_radial_10466_33881)"/>
<path d="M138.619 18.6733C143.686 20.3651 142.265 27.7521 145.2 31.4873C147.977 35.0196 151.863 36.1695 152.727 38.8431C152.911 38.3068 153.101 37.7498 153.317 37.18C157.218 26.8737 155.725 22.6534 149.756 19.8362C157.671 22.2375 159.187 24.4625 155.273 35.5799C151.361 46.6973 154.115 54.2592 159.095 60.0405C164.073 65.8218 158.21 74.2697 161.322 79.2503C163.175 82.2148 166.398 86.1666 168.416 91.4964C168.645 91.1605 168.918 90.8321 169.223 90.5093C168.931 86.293 168.442 82.2447 167.614 79.6965C165.303 72.5814 171.791 65.2854 163.878 52.9236C155.963 40.5622 165.387 42.0678 159.077 36.7337C166.276 38.3364 159.604 45.1543 165.568 50.6114C166.632 51.5854 167.489 52.6817 168.182 53.8611C169.574 48.9091 174.178 47.3206 172.951 40.5604C171.528 32.7336 166.991 32.1955 167.79 26.3266C168.235 24.7258 169.569 23.6412 168.948 26.3266C168.192 29.6042 173.419 34.9837 174.479 40.7497C174.645 40.2719 174.814 39.7909 174.961 39.3119C176.034 35.791 172.94 30.8555 176.128 28.2151C175.607 29.4353 174.93 32.5129 176.083 35.5799L176.493 36.576C177.289 38.8768 175.839 41.2329 174.627 43.6027C174.285 48.9223 170.743 54.382 169.967 58.1926C172.075 65.8412 170.323 75.194 172.329 80.4988C172.929 82.0878 173.402 84.1775 173.78 86.4843C174.457 85.8076 174.988 85.1238 175.204 84.411C176.094 81.4763 180.853 78.6948 181.519 72.0477C182.122 66.0157 178.567 60.3918 179.648 54.2578C179.862 53.0481 181.044 51.6464 181.519 51.4092C179.118 58.0793 182.851 62.9748 183.385 71.2455C183.917 79.5153 179.297 80.1434 177.341 85.8353C175.956 89.8623 175.423 90.285 174.442 91.6992C174.575 93.0455 174.685 94.4003 174.771 95.7151C178.316 86.4871 184.258 86.6318 184.259 81.1117C184.26 72.5189 188.441 72.3603 188.829 69.0324C189.217 65.7029 187.434 60.5902 187.743 56.3311C187.954 53.4382 178.29 48.1191 179.04 42.841C179.779 37.6555 180.263 36.6764 180.279 36.6436L181.046 37.4459C177.222 46.7848 189.088 50.9117 189.321 55.326C189.554 59.7403 192.391 65.937 190.61 69.731C188.829 73.5251 186.118 78.0156 187.356 81.887C188.388 85.1308 179.919 90.1703 177.142 98.9107C171.051 100.563 164.783 102.925 158.802 104.423C157.646 97.1345 153.738 98.5501 151.514 94.2863C149.291 90.0176 146.088 91.5239 144.131 85.8353C142.175 80.143 137.55 79.5158 138.083 71.2455C138.617 62.9754 142.348 58.0786 139.949 51.4092C140.425 51.6504 141.606 53.0504 141.819 54.2578C142.9 60.3915 139.346 66.016 139.949 72.0477C140.615 78.6943 145.373 81.4765 146.263 84.411C147.156 87.3449 153.278 89.8195 153.736 93.128C154.119 95.8784 158.844 95.6591 160.732 100.673C160.769 100.572 160.809 100.472 160.849 100.376C158.557 88.9163 147.261 82.5419 148.535 78.5426C149.958 74.0961 146.844 68.9327 144.799 64.5748C142.754 60.2177 146.13 54.792 146.399 49.7235C146.665 44.6534 142.392 43.1373 138.033 38.6899L139.908 32.1995C139.338 34.6528 139.461 37.538 141.328 39.3164C143.197 41.0971 147.847 45.8657 148.089 49.1872C148.444 54.0789 146.4 59.9528 146.845 63.777C147.293 67.5976 152.091 67.7816 152.091 77.6502C152.093 84.4211 159.869 83.7714 163.769 96.7382C163.908 96.6369 164.05 96.5431 164.189 96.4498C163.377 92.8938 161.809 88.3695 159.095 83.0769C151.981 69.2034 160.604 68.7539 156.427 61.6406C152.888 55.6165 149.441 51.9982 151.582 42.7869C150.139 37.6025 141.741 33.9948 142.085 28.3729C142.37 23.7486 139.894 19.9786 138.619 18.6733Z" fill="#020F21"/>
<defs>
<linearGradient id="paint0_linear_10466_33881" x1="101.431" y1="14.1339" x2="117.281" y2="84.4244" gradientUnits="userSpaceOnUse">
<stop stop-color="#010B27"/>
<stop offset="0.460364" stop-color="#1E4C7D"/>
<stop offset="1" stop-color="#9C80B7"/>
</linearGradient>
<radialGradient id="paint1_radial_10466_33881" cx="0" cy="0" r="1" gradientUnits="userSpaceOnUse" gradientTransform="translate(162.873 79.1167) rotate(-0.0331942) scale(136.154 100.751)">
<stop stop-color="#D78D72"/>
<stop offset="1" stop-color="#C5B1D7" stop-opacity="0"/>
</radialGradient>
<radialGradient id="paint2_radial_10466_33881" cx="0" cy="0" r="1" gradientUnits="userSpaceOnUse" gradientTransform="translate(164.027 90.3667) rotate(174.832) scale(44.839 48.0537)">
<stop stop-color="#FFF7DC"/>
<stop offset="1" stop-color="#FF9635" stop-opacity="0"/>
</radialGradient>
<radialGradient id="paint3_radial_10466_33881" cx="0" cy="0" r="1" gradientTransform="matrix(-23.6367 54.4896 -31.3862 -12.369 43.0902 43.3897)" gradientUnits="userSpaceOnUse">
<stop stop-color="#8B74CF" stop-opacity="0.7"/>
<stop offset="1" stop-color="#F49393" stop-opacity="0"/>
</radialGradient>
<radialGradient id="paint4_radial_10466_33881" cx="0" cy="0" r="1" gradientTransform="matrix(-71.4598 -11.7886 6.79028 -37.3948 153.028 19.5505)" gradientUnits="userSpaceOnUse">
<stop stop-color="#FFE4C6" stop-opacity="0.4"/>
<stop offset="1" stop-color="#F49393" stop-opacity="0"/>
</radialGradient>
<radialGradient id="paint5_radial_10466_33881" cx="0" cy="0" r="1" gradientTransform="matrix(-36.6605 -3.64205e-05 -0.027711 -19.198 201.126 53.6921)" gradientUnits="userSpaceOnUse">
<stop stop-color="#FFE4C6" stop-opacity="0.6"/>
<stop offset="1" stop-color="#F49393" stop-opacity="0"/>
</radialGradient>
<radialGradient id="paint6_radial_10466_33881" cx="0" cy="0" r="1" gradientTransform="matrix(53.2967 37.8177 -21.7831 27.8901 95.3535 15.8744)" gradientUnits="userSpaceOnUse">
<stop stop-color="#FFE4C6" stop-opacity="0.4"/>
<stop offset="1" stop-color="#F49393" stop-opacity="0"/>
</radialGradient>
<linearGradient id="paint7_linear_10466_33881" x1="126.815" y1="86.7482" x2="126.599" y2="112.235" gradientUnits="userSpaceOnUse">
<stop stop-color="#4F2332"/>
<stop offset="1" stop-color="#AA5640"/>
</linearGradient>
<radialGradient id="paint8_radial_10466_33881" cx="0" cy="0" r="1" gradientTransform="matrix(144.516 -2.7477 0.373766 14.7415 116.43 96.2446)" gradientUnits="userSpaceOnUse">
<stop stop-color="#E4997F"/>
<stop offset="0.820866" stop-color="#FF875D" stop-opacity="0"/>
</radialGradient>
<radialGradient id="paint9_radial_10466_33881" cx="0" cy="0" r="1" gradientTransform="matrix(57.9811 -6.24571 1.59194 11.085 158.546 100.992)" gradientUnits="userSpaceOnUse">
<stop offset="0.423707" stop-color="#1F121B"/>
<stop offset="1" stop-color="#C05905" stop-opacity="0"/>
</radialGradient>
<radialGradient id="paint10_radial_10466_33881" cx="0" cy="0" r="1" gradientTransform="matrix(138.176 4.47297 -0.874353 20.0436 105.755 97.83)" gradientUnits="userSpaceOnUse">
<stop offset="0.37816" stop-color="#431134"/>
<stop offset="1" stop-color="#854D74" stop-opacity="0"/>
</radialGradient>
<radialGradient id="paint11_radial_10466_33881" cx="0" cy="0" r="1" gradientUnits="userSpaceOnUse" gradientTransform="translate(35.3778 46.5451) rotate(90) scale(1.39176 1.43833)">
<stop offset="0.505208" stop-color="#FFF6E0"/>
<stop offset="1" stop-color="#FFF7E0" stop-opacity="0"/>
</radialGradient>
<radialGradient id="paint12_radial_10466_33881" cx="0" cy="0" r="1" gradientUnits="userSpaceOnUse" gradientTransform="translate(45.9061 56.1227) rotate(90) scale(1.39176 1.43833)">
<stop offset="0.505208" stop-color="#FFF6E0"/>
<stop offset="1" stop-color="#FFF7E0" stop-opacity="0"/>
</radialGradient>
<radialGradient id="paint13_radial_10466_33881" cx="0" cy="0" r="1" gradientUnits="userSpaceOnUse" gradientTransform="translate(51.0985 46.5451) rotate(90) scale(1.39176 1.43833)">
<stop offset="0.505208" stop-color="#FFF6E0"/>
<stop offset="1" stop-color="#FFF7E0" stop-opacity="0"/>
</radialGradient>
<radialGradient id="paint14_radial_10466_33881" cx="0" cy="0" r="1" gradientUnits="userSpaceOnUse" gradientTransform="translate(38.2528 22.382) rotate(90) scale(1.39176 1.43833)">
<stop offset="0.505208" stop-color="#FFF6E0"/>
<stop offset="1" stop-color="#FFF7E0" stop-opacity="0"/>
</radialGradient>
<radialGradient id="paint15_radial_10466_33881" cx="0" cy="0" r="1" gradientUnits="userSpaceOnUse" gradientTransform="translate(102.724 34.0016) rotate(90) scale(1.39176 1.43833)">
<stop offset="0.505208" stop-color="#FFF6E0"/>
<stop offset="1" stop-color="#FFF7E0" stop-opacity="0"/>
</radialGradient>
<radialGradient id="paint16_radial_10466_33881" cx="0" cy="0" r="1" gradientUnits="userSpaceOnUse" gradientTransform="translate(91.8075 56.1227) rotate(90) scale(1.39176 1.43833)">
<stop offset="0.505208" stop-color="#FFF6E0"/>
<stop offset="1" stop-color="#FFF7E0" stop-opacity="0"/>
</radialGradient>
<radialGradient id="paint17_radial_10466_33881" cx="0" cy="0" r="1" gradientUnits="userSpaceOnUse" gradientTransform="translate(118.238 47.9357) rotate(90) scale(1.39176 1.43833)">
<stop offset="0.505208" stop-color="#FFF6E0"/>
<stop offset="1" stop-color="#FFF7E0" stop-opacity="0"/>
</radialGradient>
<radialGradient id="paint18_radial_10466_33881" cx="0" cy="0" r="1" gradientUnits="userSpaceOnUse" gradientTransform="translate(130.498 23.3146) rotate(90) scale(1.39176 1.43833)">
<stop offset="0.505208" stop-color="#FFF6E0"/>
<stop offset="1" stop-color="#FFF7E0" stop-opacity="0"/>
</radialGradient>
<radialGradient id="paint19_radial_10466_33881" cx="0" cy="0" r="1" gradientUnits="userSpaceOnUse" gradientTransform="translate(112.397 17.2843) rotate(90) scale(1.39176 1.43833)">
<stop offset="0.505208" stop-color="#FFF6E0"/>
<stop offset="1" stop-color="#FFF7E0" stop-opacity="0"/>
</radialGradient>
<radialGradient id="paint20_radial_10466_33881" cx="0" cy="0" r="1" gradientUnits="userSpaceOnUse" gradientTransform="translate(189.128 18.3297) rotate(90) scale(1.39176 1.43833)">
<stop offset="0.505208" stop-color="#FFF6E0"/>
<stop offset="1" stop-color="#FFF7E0" stop-opacity="0"/>
</radialGradient>
<radialGradient id="paint21_radial_10466_33881" cx="0" cy="0" r="1" gradientUnits="userSpaceOnUse" gradientTransform="translate(186.252 33.1383) rotate(90) scale(1.39176 1.43833)">
<stop offset="0.505208" stop-color="#FFF6E0"/>
<stop offset="1" stop-color="#FFF7E0" stop-opacity="0"/>
</radialGradient>
<radialGradient id="paint22_radial_10466_33881" cx="0" cy="0" r="1" gradientUnits="userSpaceOnUse" gradientTransform="translate(212.358 46.5451) rotate(90) scale(1.39176 1.43833)">
<stop offset="0.505208" stop-color="#FFF6E0"/>
<stop offset="1" stop-color="#FFF7E0" stop-opacity="0"/>
</radialGradient>
<radialGradient id="paint23_radial_10466_33881" cx="0" cy="0" r="1" gradientUnits="userSpaceOnUse" gradientTransform="translate(201.108 59.111) rotate(90) scale(1.39176 1.43833)">
<stop offset="0.505208" stop-color="#FFF6E0"/>
<stop offset="1" stop-color="#FFF7E0" stop-opacity="0"/>
</radialGradient>
<radialGradient id="paint24_radial_10466_33881" cx="0" cy="0" r="1" gradientUnits="userSpaceOnUse" gradientTransform="translate(59.3203 31.7466) rotate(90) scale(3.64654 3.76856)">
<stop offset="0.336538" stop-color="#FFF6E0"/>
<stop offset="1" stop-color="#FFF7E0" stop-opacity="0"/>
</radialGradient>
<radialGradient id="paint25_radial_10466_33881" cx="0" cy="0" r="1" gradientUnits="userSpaceOnUse" gradientTransform="translate(24.5606 36.2564) rotate(90) scale(3.64654 3.76856)">
<stop offset="0.336538" stop-color="#FFF6E0"/>
<stop offset="1" stop-color="#FFF7E0" stop-opacity="0"/>
</radialGradient>
<radialGradient id="paint26_radial_10466_33881" cx="0" cy="0" r="1" gradientUnits="userSpaceOnUse" gradientTransform="translate(89.4775 41.5049) rotate(90) scale(3.64654 3.76856)">
<stop offset="0.336538" stop-color="#FFF6E0"/>
<stop offset="1" stop-color="#FFF7E0" stop-opacity="0"/>
</radialGradient>
<radialGradient id="paint27_radial_10466_33881" cx="0" cy="0" r="1" gradientUnits="userSpaceOnUse" gradientTransform="translate(112.396 60.5005) rotate(90) scale(3.64654 3.76856)">
<stop offset="0.336538" stop-color="#FFF6E0"/>
<stop offset="1" stop-color="#FFF7E0" stop-opacity="0"/>
</radialGradient>
<radialGradient id="paint28_radial_10466_33881" cx="0" cy="0" r="1" gradientUnits="userSpaceOnUse" gradientTransform="translate(166.916 12.0254) rotate(90) scale(3.64654 3.76856)">
<stop offset="0.336538" stop-color="#FFF6E0"/>
<stop offset="1" stop-color="#FFF7E0" stop-opacity="0"/>
</radialGradient>
<radialGradient id="paint29_radial_10466_33881" cx="0" cy="0" r="1" gradientUnits="userSpaceOnUse" gradientTransform="translate(201.107 38.1763) rotate(90) scale(3.64654 3.76856)">
<stop offset="0.336538" stop-color="#FFF6E0"/>
<stop offset="1" stop-color="#FFF7E0" stop-opacity="0"/>
</radialGradient>
<radialGradient id="paint30_radial_10466_33881" cx="0" cy="0" r="1" gradientUnits="userSpaceOnUse" gradientTransform="translate(77.0337 20.1892) rotate(90) scale(4.51778 4.66895)">
<stop offset="0.395833" stop-color="#FFF6E0"/>
<stop offset="1" stop-color="#FFF7E0" stop-opacity="0"/>
</radialGradient>
<radialGradient id="paint31_radial_10466_33881" cx="0" cy="0" r="1" gradientUnits="userSpaceOnUse" gradientTransform="translate(203.983 22.8488) rotate(90) scale(4.51778 4.66895)">
<stop offset="0.395833" stop-color="#FFF6E0"/>
<stop offset="1" stop-color="#FFF7E0" stop-opacity="0"/>
</radialGradient>
<radialGradient id="paint32_radial_10466_33881" cx="0" cy="0" r="1" gradientUnits="userSpaceOnUse" gradientTransform="translate(68.8571 54.7311) rotate(90) scale(6.79163 3.95462)">
<stop offset="0.0483871" stop-color="#FFF6E0"/>
<stop offset="1" stop-color="#FFF7E0" stop-opacity="0"/>
</radialGradient>
<radialGradient id="paint33_radial_10466_33881" cx="0" cy="0" r="1" gradientUnits="userSpaceOnUse" gradientTransform="translate(68.8571 54.7311) rotate(180) scale(11.7575 2.56953)">
<stop stop-color="#FFF6E0"/>
<stop offset="1" stop-color="#FFF7E0" stop-opacity="0"/>
</radialGradient>
<radialGradient id="paint34_radial_10466_33881" cx="0" cy="0" r="1" gradientUnits="userSpaceOnUse" gradientTransform="translate(121.839 33.8693) rotate(90) scale(6.79163 3.95462)">
<stop offset="0.0483871" stop-color="#FFF6E0"/>
<stop offset="1" stop-color="#FFF7E0" stop-opacity="0"/>
</radialGradient>
<radialGradient id="paint35_radial_10466_33881" cx="0" cy="0" r="1" gradientUnits="userSpaceOnUse" gradientTransform="translate(121.839 33.8693) rotate(180) scale(11.7575 2.56953)">
<stop stop-color="#FFF6E0"/>
<stop offset="1" stop-color="#FFF7E0" stop-opacity="0"/>
</radialGradient>
</defs>
</svg>
