<svg viewBox="0 0 240 120" fill="none" xmlns="http://www.w3.org/2000/svg">
<path d="M238.269 120C220.074 78.4616 160.939 55.3846 122.274 55.3846C83.6094 55.3846 24.4748 76.1539 1.73071 120H238.269Z" fill="url(#paint0_radial_7178_3349)"/>
<path d="M180.137 112.208C179.213 111.292 177.101 107.866 180.281 105.46L172.054 103.839L173.852 108.309L180.137 112.208Z" fill="url(#paint1_radial_7178_3349)"/>
<path d="M186.343 93.7205C183.193 101.245 179.799 101.763 174.553 100.738L169.513 101.828L173.818 106.129C177.473 107.019 184.819 107.268 187.256 99.293C189.939 90.5095 192.225 86.5837 194.786 89.0221C195.118 89.3383 195.681 89.3105 195.907 88.9117C196.014 88.7228 196.018 88.4898 195.909 88.3023C193.622 84.3832 189.835 85.3799 186.343 93.7205Z" fill="url(#paint2_linear_7178_3349)"/>
<path d="M186.343 93.7205C183.193 101.245 179.799 101.763 174.553 100.738L169.513 101.828L173.818 106.129C177.473 107.019 184.819 107.268 187.256 99.293C189.939 90.5095 192.225 86.5837 194.786 89.0221C195.118 89.3383 195.681 89.3105 195.907 88.9117C196.014 88.7228 196.018 88.4898 195.909 88.3023C193.622 84.3832 189.835 85.3799 186.343 93.7205Z" fill="url(#paint3_radial_7178_3349)"/>
<path d="M186.343 93.7205C183.193 101.245 179.799 101.763 174.553 100.738L169.513 101.828L173.818 106.129C177.473 107.019 184.819 107.268 187.256 99.293C189.939 90.5095 192.225 86.5837 194.786 89.0221C195.118 89.3383 195.681 89.3105 195.907 88.9117C196.014 88.7228 196.018 88.4898 195.909 88.3023C193.622 84.3832 189.835 85.3799 186.343 93.7205Z" fill="url(#paint4_radial_7178_3349)"/>
<path d="M153.634 84.657C156.124 88.6489 160.185 92.9169 156.276 96.1607L151.049 94.0865C153.615 92.5171 150.087 86.1549 148.42 82.0276C146.754 77.9002 147.3 73.8887 150.187 72.239C152.718 70.7931 155.766 71.4347 156.752 73.1335C158.027 75.3308 157.769 77.3449 156.065 79.2339C155.762 79.5696 155.245 79.5687 154.911 79.2635C154.626 79.0023 154.548 78.583 154.692 78.2238C155.064 77.2956 155.636 75.5056 155.025 74.4459C154.174 72.9679 151.809 73.5124 150.953 75.253C150.097 76.9936 151.144 80.6652 153.634 84.657Z" fill="url(#paint5_linear_7178_3349)"/>
<path d="M153.634 84.657C156.124 88.6489 160.185 92.9169 156.276 96.1607L151.049 94.0865C153.615 92.5171 150.087 86.1549 148.42 82.0276C146.754 77.9002 147.3 73.8887 150.187 72.239C152.718 70.7931 155.766 71.4347 156.752 73.1335C158.027 75.3308 157.769 77.3449 156.065 79.2339C155.762 79.5696 155.245 79.5687 154.911 79.2635C154.626 79.0023 154.548 78.583 154.692 78.2238C155.064 77.2956 155.636 75.5056 155.025 74.4459C154.174 72.9679 151.809 73.5124 150.953 75.253C150.097 76.9936 151.144 80.6652 153.634 84.657Z" fill="url(#paint6_radial_7178_3349)"/>
<path d="M153.634 84.657C156.124 88.6489 160.185 92.9169 156.276 96.1607L151.049 94.0865C153.615 92.5171 150.087 86.1549 148.42 82.0276C146.754 77.9002 147.3 73.8887 150.187 72.239C152.718 70.7931 155.766 71.4347 156.752 73.1335C158.027 75.3308 157.769 77.3449 156.065 79.2339C155.762 79.5696 155.245 79.5687 154.911 79.2635C154.626 79.0023 154.548 78.583 154.692 78.2238C155.064 77.2956 155.636 75.5056 155.025 74.4459C154.174 72.9679 151.809 73.5124 150.953 75.253C150.097 76.9936 151.144 80.6652 153.634 84.657Z" fill="url(#paint7_radial_7178_3349)"/>
<path d="M184.287 67.8309C187.583 79.969 183.984 98.887 169.359 101.699C163.852 102.757 157.714 97.8402 157.423 92.4187C156.449 74.3353 171.373 67.7413 184.287 67.8309Z" fill="url(#paint8_radial_7178_3349)"/>
<path d="M184.287 67.8309C187.583 79.969 183.984 98.887 169.359 101.699C163.852 102.757 157.714 97.8402 157.423 92.4187C156.449 74.3353 171.373 67.7413 184.287 67.8309Z" fill="url(#paint9_radial_7178_3349)"/>
<path d="M184.287 67.8309C187.583 79.969 183.984 98.887 169.359 101.699C163.852 102.757 157.714 97.8402 157.423 92.4187C156.449 74.3353 171.373 67.7413 184.287 67.8309Z" fill="url(#paint10_radial_7178_3349)"/>
<path d="M184.287 67.8309C187.583 79.969 183.984 98.887 169.359 101.699C163.852 102.757 157.714 97.8402 157.423 92.4187C156.449 74.3353 171.373 67.7413 184.287 67.8309Z" fill="url(#paint11_radial_7178_3349)"/>
<path d="M184.287 67.8309C187.583 79.969 183.984 98.887 169.359 101.699C163.852 102.757 157.714 97.8402 157.423 92.4187C156.449 74.3353 171.373 67.7413 184.287 67.8309Z" fill="url(#paint12_radial_7178_3349)"/>
<path d="M180.665 74.6872C187.434 80.1262 184.238 99.7229 170.806 102.255C165.749 103.208 157.578 97.2587 157.302 92.3349C156.381 75.9114 173.896 69.2482 180.665 74.6872Z" fill="url(#paint13_radial_7178_3349)"/>
<path d="M180.665 74.6872C187.434 80.1262 184.238 99.7229 170.806 102.255C165.749 103.208 157.578 97.2587 157.302 92.3349C156.381 75.9114 173.896 69.2482 180.665 74.6872Z" fill="url(#paint14_radial_7178_3349)"/>
<path d="M180.665 74.6872C187.434 80.1262 184.238 99.7229 170.806 102.255C165.749 103.208 157.578 97.2587 157.302 92.3349C156.381 75.9114 173.896 69.2482 180.665 74.6872Z" fill="url(#paint15_radial_7178_3349)"/>
<path fill-rule="evenodd" clip-rule="evenodd" d="M169.412 119.998L159.61 104.273L144.696 119.998H169.412Z" fill="url(#paint16_radial_7178_3349)"/>
<path d="M138.816 105.588C141.153 106.154 144.701 110.104 141.433 115.912C144.693 115.613 151.497 106.119 154.492 101.409L138.816 105.588Z" fill="url(#paint17_radial_7178_3349)"/>
<path d="M176.637 109.255C174.245 106.824 174.474 103.327 171.476 102.609L168.801 102.244L172.891 110.85C177.956 118.659 187.311 117.705 188.192 111.696C189.073 105.687 190.774 103.195 192.943 104.543C195.112 105.891 195.67 102.252 195.081 99.7578C194.543 97.4794 194.893 95.89 196.707 95.2567C197.034 95.1425 197.294 94.8736 197.341 94.5304C197.396 94.126 197.145 93.7275 196.737 93.7149C194.607 93.649 192.902 96.0687 193.039 97.932C193.191 99.9958 193.216 101.175 190.619 100.698C188.022 100.22 186.672 104.679 185.296 109.321C183.921 113.962 179.03 111.686 176.637 109.255Z" fill="url(#paint18_linear_7178_3349)"/>
<path d="M176.637 109.255C174.245 106.824 174.474 103.327 171.476 102.609L168.801 102.244L172.891 110.85C177.956 118.659 187.311 117.705 188.192 111.696C189.073 105.687 190.774 103.195 192.943 104.543C195.112 105.891 195.67 102.252 195.081 99.7578C194.543 97.4794 194.893 95.89 196.707 95.2567C197.034 95.1425 197.294 94.8736 197.341 94.5304C197.396 94.126 197.145 93.7275 196.737 93.7149C194.607 93.649 192.902 96.0687 193.039 97.932C193.191 99.9958 193.216 101.175 190.619 100.698C188.022 100.22 186.672 104.679 185.296 109.321C183.921 113.962 179.03 111.686 176.637 109.255Z" fill="url(#paint19_radial_7178_3349)"/>
<path d="M176.637 109.255C174.245 106.824 174.474 103.327 171.476 102.609L168.801 102.244L172.891 110.85C177.956 118.659 187.311 117.705 188.192 111.696C189.073 105.687 190.774 103.195 192.943 104.543C195.112 105.891 195.67 102.252 195.081 99.7578C194.543 97.4794 194.893 95.89 196.707 95.2567C197.034 95.1425 197.294 94.8736 197.341 94.5304C197.396 94.126 197.145 93.7275 196.737 93.7149C194.607 93.649 192.902 96.0687 193.039 97.932C193.191 99.9958 193.216 101.175 190.619 100.698C188.022 100.22 186.672 104.679 185.296 109.321C183.921 113.962 179.03 111.686 176.637 109.255Z" fill="url(#paint20_radial_7178_3349)"/>
<path d="M176.637 109.255C174.245 106.824 174.474 103.327 171.476 102.609L168.801 102.244L172.891 110.85C177.956 118.659 187.311 117.705 188.192 111.696C189.073 105.687 190.774 103.195 192.943 104.543C195.112 105.891 195.67 102.252 195.081 99.7578C194.543 97.4794 194.893 95.89 196.707 95.2567C197.034 95.1425 197.294 94.8736 197.341 94.5304C197.396 94.126 197.145 93.7275 196.737 93.7149C194.607 93.649 192.902 96.0687 193.039 97.932C193.191 99.9958 193.216 101.175 190.619 100.698C188.022 100.22 186.672 104.679 185.296 109.321C183.921 113.962 179.03 111.686 176.637 109.255Z" fill="url(#paint21_radial_7178_3349)"/>
<path d="M176.637 109.255C174.245 106.824 174.474 103.327 171.476 102.609L168.801 102.244L172.891 110.85C177.956 118.659 187.311 117.705 188.192 111.696C189.073 105.687 190.774 103.195 192.943 104.543C195.112 105.891 195.67 102.252 195.081 99.7578C194.543 97.4794 194.893 95.89 196.707 95.2567C197.034 95.1425 197.294 94.8736 197.341 94.5304C197.396 94.126 197.145 93.7275 196.737 93.7149C194.607 93.649 192.902 96.0687 193.039 97.932C193.191 99.9958 193.216 101.175 190.619 100.698C188.022 100.22 186.672 104.679 185.296 109.321C183.921 113.962 179.03 111.686 176.637 109.255Z" fill="url(#paint22_radial_7178_3349)"/>
<path d="M176.637 109.255C174.245 106.824 174.474 103.327 171.476 102.609L168.801 102.244L172.891 110.85C177.956 118.659 187.311 117.705 188.192 111.696C189.073 105.687 190.774 103.195 192.943 104.543C195.112 105.891 195.67 102.252 195.081 99.7578C194.543 97.4794 194.893 95.89 196.707 95.2567C197.034 95.1425 197.294 94.8736 197.341 94.5304C197.396 94.126 197.145 93.7275 196.737 93.7149C194.607 93.649 192.902 96.0687 193.039 97.932C193.191 99.9958 193.216 101.175 190.619 100.698C188.022 100.22 186.672 104.679 185.296 109.321C183.921 113.962 179.03 111.686 176.637 109.255Z" fill="url(#paint23_radial_7178_3349)"/>
<path d="M140.899 89.8379C146.547 93.8267 152.63 87.3502 160.306 96.4443C154.952 98.9341 146.089 102.184 137.355 94.4935C129.115 87.2383 138.151 69.3258 130.831 67.276C130.515 67.1875 130.282 66.8905 130.326 66.5654C130.369 66.2474 130.666 66.0183 130.983 66.0688C141.013 67.6643 135.355 85.9224 140.899 89.8379Z" fill="url(#paint24_linear_7178_3349)"/>
<path d="M140.899 89.8379C146.547 93.8267 152.63 87.3502 160.306 96.4443C154.952 98.9341 146.089 102.184 137.355 94.4935C129.115 87.2383 138.151 69.3258 130.831 67.276C130.515 67.1875 130.282 66.8905 130.326 66.5654C130.369 66.2474 130.666 66.0183 130.983 66.0688C141.013 67.6643 135.355 85.9224 140.899 89.8379Z" fill="url(#paint25_radial_7178_3349)"/>
<path d="M140.899 89.8379C146.547 93.8267 152.63 87.3502 160.306 96.4443C154.952 98.9341 146.089 102.184 137.355 94.4935C129.115 87.2383 138.151 69.3258 130.831 67.276C130.515 67.1875 130.282 66.8905 130.326 66.5654C130.369 66.2474 130.666 66.0183 130.983 66.0688C141.013 67.6643 135.355 85.9224 140.899 89.8379Z" fill="url(#paint26_radial_7178_3349)"/>
<path d="M140.899 89.8379C146.547 93.8267 152.63 87.3502 160.306 96.4443C154.952 98.9341 146.089 102.184 137.355 94.4935C129.115 87.2383 138.151 69.3258 130.831 67.276C130.515 67.1875 130.282 66.8905 130.326 66.5654C130.369 66.2474 130.666 66.0183 130.983 66.0688C141.013 67.6643 135.355 85.9224 140.899 89.8379Z" fill="url(#paint27_radial_7178_3349)"/>
<path fill-rule="evenodd" clip-rule="evenodd" d="M208.377 120C208.469 119.881 208.561 119.763 208.653 119.644C212.647 114.49 216.192 109.916 220.607 113.513C221.042 113.868 221.704 113.831 222.036 113.377C222.252 113.082 222.275 112.684 222.062 112.387C219.535 108.87 213.7 107.798 208.042 114.155C207.767 114.464 207.495 114.771 207.226 115.075C205.643 116.862 204.146 118.552 202.595 120H208.377ZM181.651 120C176.832 115.202 172.692 107.613 170.528 103.646C170.331 103.284 170.149 102.952 169.986 102.655C167.255 97.7019 163.435 102.567 163.435 102.567C165.674 110.002 168.204 115.697 170.886 120H181.651Z" fill="url(#paint28_linear_7178_3349)"/>
<path fill-rule="evenodd" clip-rule="evenodd" d="M208.377 120C208.469 119.881 208.561 119.763 208.653 119.644C212.647 114.49 216.192 109.916 220.607 113.513C221.042 113.868 221.704 113.831 222.036 113.377C222.252 113.082 222.275 112.684 222.062 112.387C219.535 108.87 213.7 107.798 208.042 114.155C207.767 114.464 207.495 114.771 207.226 115.075C205.643 116.862 204.146 118.552 202.595 120H208.377ZM181.651 120C176.832 115.202 172.692 107.613 170.528 103.646C170.331 103.284 170.149 102.952 169.986 102.655C167.255 97.7019 163.435 102.567 163.435 102.567C165.674 110.002 168.204 115.697 170.886 120H181.651Z" fill="url(#paint29_radial_7178_3349)"/>
<path fill-rule="evenodd" clip-rule="evenodd" d="M208.377 120C208.469 119.881 208.561 119.763 208.653 119.644C212.647 114.49 216.192 109.916 220.607 113.513C221.042 113.868 221.704 113.831 222.036 113.377C222.252 113.082 222.275 112.684 222.062 112.387C219.535 108.87 213.7 107.798 208.042 114.155C207.767 114.464 207.495 114.771 207.226 115.075C205.643 116.862 204.146 118.552 202.595 120H208.377ZM181.651 120C176.832 115.202 172.692 107.613 170.528 103.646C170.331 103.284 170.149 102.952 169.986 102.655C167.255 97.7019 163.435 102.567 163.435 102.567C165.674 110.002 168.204 115.697 170.886 120H181.651Z" fill="url(#paint30_radial_7178_3349)"/>
<path fill-rule="evenodd" clip-rule="evenodd" d="M208.377 120C208.469 119.881 208.561 119.763 208.653 119.644C212.647 114.49 216.192 109.916 220.607 113.513C221.042 113.868 221.704 113.831 222.036 113.377C222.252 113.082 222.275 112.684 222.062 112.387C219.535 108.87 213.7 107.798 208.042 114.155C207.767 114.464 207.495 114.771 207.226 115.075C205.643 116.862 204.146 118.552 202.595 120H208.377ZM181.651 120C176.832 115.202 172.692 107.613 170.528 103.646C170.331 103.284 170.149 102.952 169.986 102.655C167.255 97.7019 163.435 102.567 163.435 102.567C165.674 110.002 168.204 115.697 170.886 120H181.651Z" fill="url(#paint31_radial_7178_3349)"/>
<path fill-rule="evenodd" clip-rule="evenodd" d="M208.377 120C208.469 119.881 208.561 119.763 208.653 119.644C212.647 114.49 216.192 109.916 220.607 113.513C221.042 113.868 221.704 113.831 222.036 113.377C222.252 113.082 222.275 112.684 222.062 112.387C219.535 108.87 213.7 107.798 208.042 114.155C207.767 114.464 207.495 114.771 207.226 115.075C205.643 116.862 204.146 118.552 202.595 120H208.377ZM181.651 120C176.832 115.202 172.692 107.613 170.528 103.646C170.331 103.284 170.149 102.952 169.986 102.655C167.255 97.7019 163.435 102.567 163.435 102.567C165.674 110.002 168.204 115.697 170.886 120H181.651Z" fill="url(#paint32_radial_7178_3349)"/>
<path d="M139.446 98.6776C148.452 96.1903 157.887 92.8328 160.597 96.1117C163.308 99.3906 159.869 101.46 159.869 101.46C156.702 100.162 149.751 103.92 138.452 105.971C127.152 108.022 117.122 101.468 113.917 95.1992C109.723 86.9961 112.564 71.4349 122.48 68.0197C122.737 67.9311 123.023 68.0008 123.218 68.1904C123.578 68.5397 123.499 69.1385 123.092 69.4316C117.394 73.5347 116.279 84.519 118.9 90.4303C121.647 96.6241 130.439 101.165 139.446 98.6776Z" fill="url(#paint33_linear_7178_3349)"/>
<path d="M139.446 98.6776C148.452 96.1903 157.887 92.8328 160.597 96.1117C163.308 99.3906 159.869 101.46 159.869 101.46C156.702 100.162 149.751 103.92 138.452 105.971C127.152 108.022 117.122 101.468 113.917 95.1992C109.723 86.9961 112.564 71.4349 122.48 68.0197C122.737 67.9311 123.023 68.0008 123.218 68.1904C123.578 68.5397 123.499 69.1385 123.092 69.4316C117.394 73.5347 116.279 84.519 118.9 90.4303C121.647 96.6241 130.439 101.165 139.446 98.6776Z" fill="url(#paint34_radial_7178_3349)"/>
<path d="M139.446 98.6776C148.452 96.1903 157.887 92.8328 160.597 96.1117C163.308 99.3906 159.869 101.46 159.869 101.46C156.702 100.162 149.751 103.92 138.452 105.971C127.152 108.022 117.122 101.468 113.917 95.1992C109.723 86.9961 112.564 71.4349 122.48 68.0197C122.737 67.9311 123.023 68.0008 123.218 68.1904C123.578 68.5397 123.499 69.1385 123.092 69.4316C117.394 73.5347 116.279 84.519 118.9 90.4303C121.647 96.6241 130.439 101.165 139.446 98.6776Z" fill="url(#paint35_radial_7178_3349)"/>
<path d="M139.446 98.6776C148.452 96.1903 157.887 92.8328 160.597 96.1117C163.308 99.3906 159.869 101.46 159.869 101.46C156.702 100.162 149.751 103.92 138.452 105.971C127.152 108.022 117.122 101.468 113.917 95.1992C109.723 86.9961 112.564 71.4349 122.48 68.0197C122.737 67.9311 123.023 68.0008 123.218 68.1904C123.578 68.5397 123.499 69.1385 123.092 69.4316C117.394 73.5347 116.279 84.519 118.9 90.4303C121.647 96.6241 130.439 101.165 139.446 98.6776Z" fill="url(#paint36_radial_7178_3349)"/>
<path d="M162.897 83.4426C162.205 84.6584 162.673 86.2294 163.942 86.9516C165.211 87.6738 166.801 87.2736 167.493 86.0578C168.185 84.842 167.717 83.2709 166.448 82.5488C165.179 81.8266 163.589 82.2267 162.897 83.4426Z" fill="url(#paint37_radial_7178_3349)"/>
<path d="M162.897 83.4426C162.205 84.6584 162.673 86.2294 163.942 86.9516C165.211 87.6738 166.801 87.2736 167.493 86.0578C168.185 84.842 167.717 83.2709 166.448 82.5488C165.179 81.8266 163.589 82.2267 162.897 83.4426Z" fill="url(#paint38_radial_7178_3349)"/>
<path d="M173.394 90.6642C172.702 91.8801 173.17 93.4511 174.439 94.1733C175.708 94.8955 177.298 94.4953 177.99 93.2795C178.682 92.0637 178.214 90.4926 176.945 89.7704C175.676 89.0482 174.086 89.4484 173.394 90.6642Z" fill="url(#paint39_radial_7178_3349)"/>
<path d="M173.394 90.6642C172.702 91.8801 173.17 93.4511 174.439 94.1733C175.708 94.8955 177.298 94.4953 177.99 93.2795C178.682 92.0637 178.214 90.4926 176.945 89.7704C175.676 89.0482 174.086 89.4484 173.394 90.6642Z" fill="url(#paint40_radial_7178_3349)"/>
<path fill-rule="evenodd" clip-rule="evenodd" d="M147.83 119.999C148.4 119.62 148.903 119.231 149.328 118.845C153.826 114.751 160.98 104.213 160.98 104.213C165.129 96.4822 157.79 93.9965 155.1 99.2017C153.286 102.711 142.271 119.741 133.988 116.012C126.897 112.82 126.538 104.349 126.455 99.5084C126.373 94.7678 125.475 82.0768 110.346 79.6165C109.814 79.53 109.315 79.9061 109.242 80.4403L109.226 80.5532C109.159 81.0472 109.489 81.5154 109.968 81.6524C119.983 84.5138 120.174 90.2778 120.435 98.1634C120.578 102.467 120.741 107.402 122.533 112.842C123.581 116.021 125.095 118.348 126.887 119.999H147.83Z" fill="url(#paint41_linear_7178_3349)"/>
<path fill-rule="evenodd" clip-rule="evenodd" d="M147.83 119.999C148.4 119.62 148.903 119.231 149.328 118.845C153.826 114.751 160.98 104.213 160.98 104.213C165.129 96.4822 157.79 93.9965 155.1 99.2017C153.286 102.711 142.271 119.741 133.988 116.012C126.897 112.82 126.538 104.349 126.455 99.5084C126.373 94.7678 125.475 82.0768 110.346 79.6165C109.814 79.53 109.315 79.9061 109.242 80.4403L109.226 80.5532C109.159 81.0472 109.489 81.5154 109.968 81.6524C119.983 84.5138 120.174 90.2778 120.435 98.1634C120.578 102.467 120.741 107.402 122.533 112.842C123.581 116.021 125.095 118.348 126.887 119.999H147.83Z" fill="url(#paint42_radial_7178_3349)"/>
<path fill-rule="evenodd" clip-rule="evenodd" d="M147.83 119.999C148.4 119.62 148.903 119.231 149.328 118.845C153.826 114.751 160.98 104.213 160.98 104.213C165.129 96.4822 157.79 93.9965 155.1 99.2017C153.286 102.711 142.271 119.741 133.988 116.012C126.897 112.82 126.538 104.349 126.455 99.5084C126.373 94.7678 125.475 82.0768 110.346 79.6165C109.814 79.53 109.315 79.9061 109.242 80.4403L109.226 80.5532C109.159 81.0472 109.489 81.5154 109.968 81.6524C119.983 84.5138 120.174 90.2778 120.435 98.1634C120.578 102.467 120.741 107.402 122.533 112.842C123.581 116.021 125.095 118.348 126.887 119.999H147.83Z" fill="url(#paint43_radial_7178_3349)"/>
<path fill-rule="evenodd" clip-rule="evenodd" d="M147.83 119.999C148.4 119.62 148.903 119.231 149.328 118.845C153.826 114.751 160.98 104.213 160.98 104.213C165.129 96.4822 157.79 93.9965 155.1 99.2017C153.286 102.711 142.271 119.741 133.988 116.012C126.897 112.82 126.538 104.349 126.455 99.5084C126.373 94.7678 125.475 82.0768 110.346 79.6165C109.814 79.53 109.315 79.9061 109.242 80.4403L109.226 80.5532C109.159 81.0472 109.489 81.5154 109.968 81.6524C119.983 84.5138 120.174 90.2778 120.435 98.1634C120.578 102.467 120.741 107.402 122.533 112.842C123.581 116.021 125.095 118.348 126.887 119.999H147.83Z" fill="url(#paint44_radial_7178_3349)"/>
<path fill-rule="evenodd" clip-rule="evenodd" d="M200.725 119.999C202.231 117.205 203.237 114.278 203.75 111.712C204.655 107.188 204.433 102.94 204.223 98.9348C203.95 93.7188 203.699 88.9154 205.988 84.4505C206.125 84.1827 206.091 83.8549 205.891 83.63C205.653 83.3618 205.249 83.3112 204.974 83.5418C201.002 86.873 200.311 94.8641 199.727 101.628C199.431 105.052 199.162 108.162 198.509 110.193C197.126 114.491 194.982 117.771 192.328 119.999H200.725ZM166.148 119.999H175.398C172.077 116.324 169.489 110.133 166.616 103.263C166.513 103.018 166.411 102.772 166.307 102.525C164.527 96.9582 158.937 97.1282 159.566 103.835C159.887 107.258 162.116 114.036 166.148 119.999Z" fill="url(#paint45_linear_7178_3349)"/>
<path fill-rule="evenodd" clip-rule="evenodd" d="M200.725 119.999C202.231 117.205 203.237 114.278 203.75 111.712C204.655 107.188 204.433 102.94 204.223 98.9348C203.95 93.7188 203.699 88.9154 205.988 84.4505C206.125 84.1827 206.091 83.8549 205.891 83.63C205.653 83.3618 205.249 83.3112 204.974 83.5418C201.002 86.873 200.311 94.8641 199.727 101.628C199.431 105.052 199.162 108.162 198.509 110.193C197.126 114.491 194.982 117.771 192.328 119.999H200.725ZM166.148 119.999H175.398C172.077 116.324 169.489 110.133 166.616 103.263C166.513 103.018 166.411 102.772 166.307 102.525C164.527 96.9582 158.937 97.1282 159.566 103.835C159.887 107.258 162.116 114.036 166.148 119.999Z" fill="url(#paint46_radial_7178_3349)"/>
<path fill-rule="evenodd" clip-rule="evenodd" d="M200.725 119.999C202.231 117.205 203.237 114.278 203.75 111.712C204.655 107.188 204.433 102.94 204.223 98.9348C203.95 93.7188 203.699 88.9154 205.988 84.4505C206.125 84.1827 206.091 83.8549 205.891 83.63C205.653 83.3618 205.249 83.3112 204.974 83.5418C201.002 86.873 200.311 94.8641 199.727 101.628C199.431 105.052 199.162 108.162 198.509 110.193C197.126 114.491 194.982 117.771 192.328 119.999H200.725ZM166.148 119.999H175.398C172.077 116.324 169.489 110.133 166.616 103.263C166.513 103.018 166.411 102.772 166.307 102.525C164.527 96.9582 158.937 97.1282 159.566 103.835C159.887 107.258 162.116 114.036 166.148 119.999Z" fill="url(#paint47_radial_7178_3349)"/>
<path fill-rule="evenodd" clip-rule="evenodd" d="M200.725 119.999C202.231 117.205 203.237 114.278 203.75 111.712C204.655 107.188 204.433 102.94 204.223 98.9348C203.95 93.7188 203.699 88.9154 205.988 84.4505C206.125 84.1827 206.091 83.8549 205.891 83.63C205.653 83.3618 205.249 83.3112 204.974 83.5418C201.002 86.873 200.311 94.8641 199.727 101.628C199.431 105.052 199.162 108.162 198.509 110.193C197.126 114.491 194.982 117.771 192.328 119.999H200.725ZM166.148 119.999H175.398C172.077 116.324 169.489 110.133 166.616 103.263C166.513 103.018 166.411 102.772 166.307 102.525C164.527 96.9582 158.937 97.1282 159.566 103.835C159.887 107.258 162.116 114.036 166.148 119.999Z" fill="url(#paint48_radial_7178_3349)"/>
<path d="M50.2457 41.716C55.41 43.1215 50.8983 65.8918 78.4614 64.7673C69.2353 72.2168 21.324 80.7908 27.7823 64.7673C20.8627 64.7673 21.7853 50.7116 29.1663 54.085C27.2198 42.4329 39.0814 39.9729 41.9807 50.7116C41.3128 47.6193 45.0814 40.3104 50.2457 41.716Z" fill="url(#paint49_radial_7178_3349)"/>
<path d="M45.1146 39.0072C45.1146 39.0072 49.0329 22.1818 39.9263 24.9749C30.8198 27.7681 45.1146 39.0072 45.1146 39.0072Z" fill="url(#paint50_radial_7178_3349)"/>
<path d="M26.8252 49.5044C26.8252 49.5044 16.7588 32.9343 11.6481 42.3236C6.53742 51.713 26.8252 49.5044 26.8252 49.5044Z" fill="url(#paint51_radial_7178_3349)"/>
<path d="M26.8252 44.4907C26.8252 44.4907 29.5632 30.9514 22.3502 33.3969C15.1371 35.8423 26.8252 44.4907 26.8252 44.4907Z" fill="url(#paint52_radial_7178_3349)"/>
<path d="M103.743 33.9644C101.862 30.4226 99.4974 27.1728 96.6807 24.358C94.9509 22.6386 95.6718 19.5727 97.9789 18.9478L99.1324 18.6355C105.886 16.8509 112.949 17.1548 119.525 19.4265C114.909 21.4876 108.003 26.109 103.743 33.9644Z" fill="url(#paint53_linear_7178_3349)"/>
<path d="M103.743 33.9644C101.862 30.4226 99.4974 27.1728 96.6807 24.358C94.9509 22.6386 95.6718 19.5727 97.9789 18.9478L99.1324 18.6355C105.886 16.8509 112.949 17.1548 119.525 19.4265C114.909 21.4876 108.003 26.109 103.743 33.9644Z" fill="url(#paint54_radial_7178_3349)"/>
<path fill-rule="evenodd" clip-rule="evenodd" d="M154.577 23.2758C147.286 6.10572 127.53 0.353429 97.1735 39.9734C79.1294 63.5241 64.6458 57.6072 62.0228 51.9575L58.6682 58.8907C58.7587 58.9767 58.8487 59.0623 58.9383 59.1476C64.3923 64.336 68.3838 68.1331 89.2992 66.7741C102.34 65.9267 118.306 55.9259 131.665 47.558C139.093 42.9049 145.715 38.7567 150.581 36.9679L162.257 33.8015C165.172 33.0109 166.895 30.0065 166.104 27.091C165.314 24.1756 162.309 22.453 159.394 23.2437L154.894 24.4639C154.83 24.0281 154.727 23.6281 154.577 23.2758Z" fill="url(#paint55_radial_7178_3349)"/>
<path d="M142.989 26.3946C144.704 26.2832 146.004 24.8026 145.892 23.0877C145.781 21.3728 144.3 20.0729 142.585 20.1843C140.87 20.2958 139.571 21.7763 139.682 23.4912C139.793 25.2061 141.274 26.506 142.989 26.3946Z" fill="url(#paint56_radial_7178_3349)"/>
<path d="M142.989 26.3946C144.704 26.2832 146.004 24.8026 145.892 23.0877C145.781 21.3728 144.3 20.0729 142.585 20.1843C140.87 20.2958 139.571 21.7763 139.682 23.4912C139.793 25.2061 141.274 26.506 142.989 26.3946Z" fill="url(#paint57_radial_7178_3349)"/>
<path d="M142.989 26.3946C144.704 26.2832 146.004 24.8026 145.892 23.0877C145.781 21.3728 144.3 20.0729 142.585 20.1843C140.87 20.2958 139.571 21.7763 139.682 23.4912C139.793 25.2061 141.274 26.506 142.989 26.3946Z" fill="url(#paint58_linear_7178_3349)"/>
<path fill-rule="evenodd" clip-rule="evenodd" d="M166.29 28.2895C163.483 30.3815 157.14 31.2285 152.475 30.9536C139.725 37.1267 128.781 44.0504 118.847 50.3352C108.036 57.1744 98.4212 63.257 88.9768 66.7925C89.0844 66.7865 89.1923 66.7799 89.3005 66.7729C102.342 65.9255 118.307 55.9248 131.666 47.5569C139.098 42.9015 145.724 38.7514 150.59 36.9641L162.256 33.8004C164.771 33.1183 166.399 30.7884 166.29 28.2895Z" fill="#A4C0BF"/>
<path d="M66.4545 49.8027C63.117 53.8705 59.8962 58.0203 56.6216 62.1379C53.8559 65.6076 48.7648 66.9115 44.9671 64.8045C44.3499 64.5905 43.33 63.8934 44.1883 62.8166L49.1781 56.5565C51.8199 53.8221 54.503 53.6321 56.2243 53.5102C57.0631 53.4508 57.6735 53.4076 57.9395 53.0939C58.1766 52.7625 58.0832 52.1617 57.9554 51.3392C57.6904 49.6341 57.2774 46.9762 59.3539 43.7912L64.3437 37.531C65.202 36.4543 66.109 37.2931 66.4552 37.847C69.356 41.0792 69.2202 46.333 66.4545 49.8027Z" fill="url(#paint59_radial_7178_3349)"/>
<path d="M66.4545 49.8027C63.117 53.8705 59.8962 58.0203 56.6216 62.1379C53.8559 65.6076 48.7648 66.9115 44.9671 64.8045C44.3499 64.5905 43.33 63.8934 44.1883 62.8166L49.1781 56.5565C51.8199 53.8221 54.503 53.6321 56.2243 53.5102C57.0631 53.4508 57.6735 53.4076 57.9395 53.0939C58.1766 52.7625 58.0832 52.1617 57.9554 51.3392C57.6904 49.6341 57.2774 46.9762 59.3539 43.7912L64.3437 37.531C65.202 36.4543 66.109 37.2931 66.4552 37.847C69.356 41.0792 69.2202 46.333 66.4545 49.8027Z" fill="url(#paint60_radial_7178_3349)"/>
<defs>
<radialGradient id="paint0_radial_7178_3349" cx="0" cy="0" r="1" gradientUnits="userSpaceOnUse" gradientTransform="translate(97.2559 47.5285) rotate(82.3589) scale(85.5251 181.868)">
<stop stop-color="#A9F3F8"/>
<stop offset="0.479167" stop-color="#72D2D8"/>
<stop offset="1" stop-color="#1585E4"/>
</radialGradient>
<radialGradient id="paint1_radial_7178_3349" cx="0" cy="0" r="1" gradientUnits="userSpaceOnUse" gradientTransform="translate(181.654 109.258) rotate(-156.617) scale(7.51633 3.15431)">
<stop stop-color="#67ADFF" stop-opacity="0"/>
<stop offset="1" stop-color="#BF4D62"/>
</radialGradient>
<linearGradient id="paint2_linear_7178_3349" x1="198.438" y1="87.1963" x2="167.751" y2="101.588" gradientUnits="userSpaceOnUse">
<stop stop-color="#67ADFF" stop-opacity="0.6"/>
<stop offset="0.570874" stop-color="#F68258"/>
<stop offset="1" stop-color="#F05D4F"/>
</linearGradient>
<radialGradient id="paint3_radial_7178_3349" cx="0" cy="0" r="1" gradientUnits="userSpaceOnUse" gradientTransform="translate(178.565 84.9219) rotate(90.5974) scale(23.617 20.2014)">
<stop offset="0.750938" stop-color="#A8509F" stop-opacity="0"/>
<stop offset="0.903959" stop-color="#541373" stop-opacity="0.5"/>
</radialGradient>
<radialGradient id="paint4_radial_7178_3349" cx="0" cy="0" r="1" gradientUnits="userSpaceOnUse" gradientTransform="translate(176.873 99.6114) rotate(16.8491) scale(6.21244 3.38389)">
<stop offset="0.270221" stop-color="#FFD79C"/>
<stop offset="1" stop-color="#FFD79C" stop-opacity="0"/>
</radialGradient>
<linearGradient id="paint5_linear_7178_3349" x1="161.022" y1="70.372" x2="142.78" y2="92.5268" gradientUnits="userSpaceOnUse">
<stop offset="0.122246" stop-color="#67ADFF" stop-opacity="0.6"/>
<stop offset="0.570874" stop-color="#F68258"/>
<stop offset="1" stop-color="#F05D4F"/>
</linearGradient>
<radialGradient id="paint6_radial_7178_3349" cx="0" cy="0" r="1" gradientUnits="userSpaceOnUse" gradientTransform="translate(154.868 75.6006) rotate(-9.89042) scale(8.49746 20.6418)">
<stop offset="0.713345" stop-color="#A8509F" stop-opacity="0"/>
<stop offset="1" stop-color="#541373" stop-opacity="0.5"/>
</radialGradient>
<radialGradient id="paint7_radial_7178_3349" cx="0" cy="0" r="1" gradientUnits="userSpaceOnUse" gradientTransform="translate(155.698 85.8667) rotate(156.87) scale(3.58461 4.26421)">
<stop stop-color="#FFD79C"/>
<stop offset="1" stop-color="#FFD79C" stop-opacity="0"/>
</radialGradient>
<radialGradient id="paint8_radial_7178_3349" cx="0" cy="0" r="1" gradientUnits="userSpaceOnUse" gradientTransform="translate(166.634 78.4564) rotate(61.8259) scale(27.6769 36.6638)">
<stop stop-color="#FFBF6B" stop-opacity="0"/>
<stop offset="1" stop-color="#DA8C42"/>
</radialGradient>
<radialGradient id="paint9_radial_7178_3349" cx="0" cy="0" r="1" gradientUnits="userSpaceOnUse" gradientTransform="translate(162.759 76.6655) rotate(55.8321) scale(8.52401 19.5798)">
<stop stop-color="#E1E0FF"/>
<stop offset="1" stop-color="#FFE0FE" stop-opacity="0"/>
</radialGradient>
<radialGradient id="paint10_radial_7178_3349" cx="0" cy="0" r="1" gradientUnits="userSpaceOnUse" gradientTransform="translate(159.033 86.3756) rotate(-9.54225) scale(32.2197 30.9914)">
<stop offset="0.629405" stop-color="#FAC2ED" stop-opacity="0.74"/>
<stop offset="1" stop-color="#9081EC"/>
</radialGradient>
<radialGradient id="paint11_radial_7178_3349" cx="0" cy="0" r="1" gradientUnits="userSpaceOnUse" gradientTransform="translate(159.629 78.2474) rotate(26.8504) scale(27.1902 26.1003)">
<stop offset="0.89832" stop-color="#A8509F" stop-opacity="0"/>
<stop offset="1" stop-color="#A8509F"/>
</radialGradient>
<radialGradient id="paint12_radial_7178_3349" cx="0" cy="0" r="1" gradientUnits="userSpaceOnUse" gradientTransform="translate(173.984 65.1069) rotate(97.7596) scale(40.0423 24.2667)">
<stop offset="0.640327" stop-color="#FF6752" stop-opacity="0"/>
<stop offset="0.972752" stop-color="#FF6752"/>
</radialGradient>
<radialGradient id="paint13_radial_7178_3349" cx="0" cy="0" r="1" gradientUnits="userSpaceOnUse" gradientTransform="translate(166.572 80.5806) rotate(61.5) scale(25.2331 33.5488)">
<stop stop-color="#FFBD67"/>
<stop offset="1" stop-color="#E92C42"/>
</radialGradient>
<radialGradient id="paint14_radial_7178_3349" cx="0" cy="0" r="1" gradientUnits="userSpaceOnUse" gradientTransform="translate(158.432 69.6865) rotate(60.1763) scale(18.0666 41.5497)">
<stop stop-color="#E1E0FF"/>
<stop offset="1" stop-color="#FFE0FE" stop-opacity="0"/>
</radialGradient>
<radialGradient id="paint15_radial_7178_3349" cx="0" cy="0" r="1" gradientUnits="userSpaceOnUse" gradientTransform="translate(159.6 87.7612) rotate(-13.9352) scale(25.9846 24.5854)">
<stop offset="0.898413" stop-color="#A8509F" stop-opacity="0"/>
<stop offset="1" stop-color="#A8509F"/>
</radialGradient>
<radialGradient id="paint16_radial_7178_3349" cx="0" cy="0" r="1" gradientUnits="userSpaceOnUse" gradientTransform="translate(157.888 121.682) rotate(-82.2404) scale(15.8876 18.0659)">
<stop stop-color="#67ADFF" stop-opacity="0"/>
<stop offset="1" stop-color="#BF4D62"/>
</radialGradient>
<radialGradient id="paint17_radial_7178_3349" cx="0" cy="0" r="1" gradientUnits="userSpaceOnUse" gradientTransform="translate(138.869 112.467) rotate(-36.4633) scale(16.0074 5.41269)">
<stop stop-color="#67ADFF" stop-opacity="0"/>
<stop offset="1" stop-color="#BF4D62"/>
</radialGradient>
<linearGradient id="paint18_linear_7178_3349" x1="202.565" y1="95.2678" x2="166.716" y2="105.737" gradientUnits="userSpaceOnUse">
<stop stop-color="#67ADFF" stop-opacity="0.6"/>
<stop offset="0.570874" stop-color="#F68258"/>
<stop offset="1" stop-color="#F05D4F"/>
</linearGradient>
<radialGradient id="paint19_radial_7178_3349" cx="0" cy="0" r="1" gradientUnits="userSpaceOnUse" gradientTransform="translate(182.026 96.06) rotate(-14.1774) scale(17.4916 23.3969)">
<stop offset="0.702238" stop-color="#A8509F" stop-opacity="0"/>
<stop offset="0.96558" stop-color="#541373" stop-opacity="0.5"/>
</radialGradient>
<radialGradient id="paint20_radial_7178_3349" cx="0" cy="0" r="1" gradientUnits="userSpaceOnUse" gradientTransform="translate(189.092 111.448) rotate(111.104) scale(15.5158 4.40357)">
<stop offset="0.286559" stop-color="#541373" stop-opacity="0.5"/>
<stop offset="1" stop-color="#A8509F" stop-opacity="0"/>
</radialGradient>
<radialGradient id="paint21_radial_7178_3349" cx="0" cy="0" r="1" gradientUnits="userSpaceOnUse" gradientTransform="translate(196.059 99.396) rotate(87.1768) scale(6.68035 3.64622)">
<stop offset="0.296279" stop-color="#541373" stop-opacity="0.5"/>
<stop offset="1" stop-color="#A8509F" stop-opacity="0"/>
</radialGradient>
<radialGradient id="paint22_radial_7178_3349" cx="0" cy="0" r="1" gradientUnits="userSpaceOnUse" gradientTransform="translate(177.118 107.092) rotate(48.2737) scale(8.87591 3.97413)">
<stop stop-color="#FFD79C"/>
<stop offset="0.977859" stop-color="#FFD79C" stop-opacity="0"/>
</radialGradient>
<radialGradient id="paint23_radial_7178_3349" cx="0" cy="0" r="1" gradientUnits="userSpaceOnUse" gradientTransform="translate(189.636 100.192) rotate(-174.031) scale(3.92796 1.75865)">
<stop stop-color="#FFD79C"/>
<stop offset="0.977859" stop-color="#FFD79C" stop-opacity="0"/>
</radialGradient>
<linearGradient id="paint24_linear_7178_3349" x1="125.297" y1="62.5772" x2="152.333" y2="101.545" gradientUnits="userSpaceOnUse">
<stop offset="0.122246" stop-color="#67ADFF" stop-opacity="0.6"/>
<stop offset="0.570874" stop-color="#F68258"/>
<stop offset="1" stop-color="#F05D4F"/>
</linearGradient>
<radialGradient id="paint25_radial_7178_3349" cx="0" cy="0" r="1" gradientUnits="userSpaceOnUse" gradientTransform="translate(147.887 73.0843) rotate(-3.6882) scale(23.5337 31.4002)">
<stop offset="0.702238" stop-color="#A8509F" stop-opacity="0"/>
<stop offset="0.853498" stop-color="#541373" stop-opacity="0.5"/>
</radialGradient>
<radialGradient id="paint26_radial_7178_3349" cx="0" cy="0" r="1" gradientUnits="userSpaceOnUse" gradientTransform="translate(122.244 84.077) rotate(-63.7089) scale(23.1615 11.7788)">
<stop offset="0.732115" stop-color="#541373" stop-opacity="0.5"/>
<stop offset="1" stop-color="#A8509F" stop-opacity="0"/>
</radialGradient>
<radialGradient id="paint27_radial_7178_3349" cx="0" cy="0" r="1" gradientUnits="userSpaceOnUse" gradientTransform="translate(150.972 91.3345) rotate(-172.94) scale(10.0612 4.24246)">
<stop stop-color="#FFD79C"/>
<stop offset="1" stop-color="#FFD79C" stop-opacity="0"/>
</radialGradient>
<linearGradient id="paint28_linear_7178_3349" x1="232.994" y1="114.522" x2="157.729" y2="116.941" gradientUnits="userSpaceOnUse">
<stop stop-color="#67ADFF" stop-opacity="0.6"/>
<stop offset="0.570874" stop-color="#F68258"/>
<stop offset="1" stop-color="#F05D4F"/>
</linearGradient>
<radialGradient id="paint29_radial_7178_3349" cx="0" cy="0" r="1" gradientUnits="userSpaceOnUse" gradientTransform="translate(195.86 107.232) rotate(1.18632) scale(30.0106 31.7385)">
<stop offset="0.702238" stop-color="#A8509F" stop-opacity="0"/>
<stop offset="0.96558" stop-color="#541373" stop-opacity="0.5"/>
</radialGradient>
<radialGradient id="paint30_radial_7178_3349" cx="0" cy="0" r="1" gradientUnits="userSpaceOnUse" gradientTransform="translate(207.592 126.537) rotate(121.759) scale(19.6071 5.74863)">
<stop offset="0.286559" stop-color="#541373" stop-opacity="0.5"/>
<stop offset="1" stop-color="#A8509F" stop-opacity="0"/>
</radialGradient>
<radialGradient id="paint31_radial_7178_3349" cx="0" cy="0" r="1" gradientUnits="userSpaceOnUse" gradientTransform="translate(187.889 135.739) rotate(-22.6556) scale(28.5958 8.38372)">
<stop offset="0.286559" stop-color="#541373" stop-opacity="0.5"/>
<stop offset="1" stop-color="#A8509F" stop-opacity="0"/>
</radialGradient>
<radialGradient id="paint32_radial_7178_3349" cx="0" cy="0" r="1" gradientUnits="userSpaceOnUse" gradientTransform="translate(180.637 114.445) rotate(46.9266) scale(21.6607 6.26233)">
<stop stop-color="#FFD79C"/>
<stop offset="1" stop-color="#FFD79C" stop-opacity="0"/>
</radialGradient>
<linearGradient id="paint33_linear_7178_3349" x1="111.52" y1="57.3559" x2="149.369" y2="114.89" gradientUnits="userSpaceOnUse">
<stop offset="0.195744" stop-color="#67ADFF" stop-opacity="0.6"/>
<stop offset="0.570874" stop-color="#F68258"/>
<stop offset="1" stop-color="#F05D4F"/>
</linearGradient>
<radialGradient id="paint34_radial_7178_3349" cx="0" cy="0" r="1" gradientUnits="userSpaceOnUse" gradientTransform="translate(137.272 77.8277) rotate(-37.7404) scale(34.7458 36.9005)">
<stop offset="0.702238" stop-color="#A8509F" stop-opacity="0"/>
<stop offset="0.834891" stop-color="#541373" stop-opacity="0.5"/>
</radialGradient>
<radialGradient id="paint35_radial_7178_3349" cx="0" cy="0" r="1" gradientUnits="userSpaceOnUse" gradientTransform="translate(149.379 83.9348) rotate(178.463) scale(41.7721 34.5088)">
<stop offset="0.810379" stop-color="#A8509F" stop-opacity="0"/>
<stop offset="0.937863" stop-color="#541373" stop-opacity="0.5"/>
</radialGradient>
<radialGradient id="paint36_radial_7178_3349" cx="0" cy="0" r="1" gradientUnits="userSpaceOnUse" gradientTransform="translate(153.651 92.5651) rotate(161.331) scale(23.1543 7.74042)">
<stop offset="0.215964" stop-color="#FFD79C"/>
<stop offset="1" stop-color="#FFD79C" stop-opacity="0"/>
</radialGradient>
<radialGradient id="paint37_radial_7178_3349" cx="0" cy="0" r="1" gradientUnits="userSpaceOnUse" gradientTransform="translate(167.999 83.5443) rotate(145.388) scale(6.19907 6.08795)">
<stop stop-color="#965C9B"/>
<stop offset="1" stop-color="#273081"/>
</radialGradient>
<radialGradient id="paint38_radial_7178_3349" cx="0" cy="0" r="1" gradientUnits="userSpaceOnUse" gradientTransform="translate(165.824 84.8752) rotate(155.651) scale(4.67217 4.34872)">
<stop offset="0.390128" stop-opacity="0"/>
<stop offset="1"/>
</radialGradient>
<radialGradient id="paint39_radial_7178_3349" cx="0" cy="0" r="1" gradientUnits="userSpaceOnUse" gradientTransform="translate(178.496 90.766) rotate(145.388) scale(6.19907 6.08795)">
<stop stop-color="#965C9B"/>
<stop offset="1" stop-color="#273081"/>
</radialGradient>
<radialGradient id="paint40_radial_7178_3349" cx="0" cy="0" r="1" gradientUnits="userSpaceOnUse" gradientTransform="translate(176.322 92.0969) rotate(155.651) scale(4.67217 4.34872)">
<stop offset="0.390128" stop-opacity="0"/>
<stop offset="1"/>
</radialGradient>
<linearGradient id="paint41_linear_7178_3349" x1="96.3128" y1="96.2684" x2="162.621" y2="97.5028" gradientUnits="userSpaceOnUse">
<stop offset="0.195744" stop-color="#67ADFF" stop-opacity="0.6"/>
<stop offset="0.570874" stop-color="#F68258"/>
<stop offset="1" stop-color="#F05D4F"/>
</linearGradient>
<radialGradient id="paint42_radial_7178_3349" cx="0" cy="0" r="1" gradientUnits="userSpaceOnUse" gradientTransform="translate(130.107 89.9771) rotate(-34.5015) scale(39.952 42.5174)">
<stop offset="0.702238" stop-color="#A8509F" stop-opacity="0"/>
<stop offset="0.793142" stop-color="#541373" stop-opacity="0.5"/>
</radialGradient>
<radialGradient id="paint43_radial_7178_3349" cx="0" cy="0" r="1" gradientUnits="userSpaceOnUse" gradientTransform="translate(109.095 106.058) rotate(-82.4917) scale(27.9723 15.132)">
<stop offset="0.732115" stop-color="#541373" stop-opacity="0.5"/>
<stop offset="1" stop-color="#A8509F" stop-opacity="0"/>
</radialGradient>
<radialGradient id="paint44_radial_7178_3349" cx="0" cy="0" r="1" gradientUnits="userSpaceOnUse" gradientTransform="translate(150.558 99.8213) rotate(132.25) scale(19.4994 9.62702)">
<stop stop-color="#FFD79C"/>
<stop offset="1" stop-color="#FFD79C" stop-opacity="0"/>
</radialGradient>
<linearGradient id="paint45_linear_7178_3349" x1="214.848" y1="90.69" x2="156.063" y2="106.826" gradientUnits="userSpaceOnUse">
<stop stop-color="#67ADFF" stop-opacity="0.6"/>
<stop offset="0.570874" stop-color="#F68258"/>
<stop offset="1" stop-color="#F05D4F"/>
</linearGradient>
<radialGradient id="paint46_radial_7178_3349" cx="0" cy="0" r="1" gradientUnits="userSpaceOnUse" gradientTransform="translate(168.869 85.5395) rotate(-30.4542) scale(40.4591 62.8713)">
<stop offset="0.702238" stop-color="#A8509F" stop-opacity="0"/>
<stop offset="0.793142" stop-color="#541373" stop-opacity="0.5"/>
</radialGradient>
<radialGradient id="paint47_radial_7178_3349" cx="0" cy="0" r="1" gradientUnits="userSpaceOnUse" gradientTransform="translate(157.002 120.697) rotate(67.9156) scale(35.7846 13.2663)">
<stop offset="0.637897" stop-color="#541373" stop-opacity="0.5"/>
<stop offset="1" stop-color="#A8509F" stop-opacity="0"/>
</radialGradient>
<radialGradient id="paint48_radial_7178_3349" cx="0" cy="0" r="1" gradientUnits="userSpaceOnUse" gradientTransform="translate(174.298 112.033) rotate(57.5221) scale(16.7141 8.06453)">
<stop stop-color="#FFD79C"/>
<stop offset="1" stop-color="#FFD79C" stop-opacity="0"/>
</radialGradient>
<radialGradient id="paint49_radial_7178_3349" cx="0" cy="0" r="1" gradientUnits="userSpaceOnUse" gradientTransform="translate(74.8357 69.2652) rotate(-154.353) scale(67.5473 52.3164)">
<stop offset="0.171875" stop-color="#ACF4FE"/>
<stop offset="1" stop-color="#009DCF"/>
</radialGradient>
<radialGradient id="paint50_radial_7178_3349" cx="0" cy="0" r="1" gradientUnits="userSpaceOnUse" gradientTransform="translate(41.9426 27.949) rotate(105.052) scale(9.07158)">
<stop stop-color="#ADFAFF"/>
<stop offset="0.901042" stop-color="#3DB4D9"/>
<stop offset="1" stop-color="#37A8CD"/>
</radialGradient>
<radialGradient id="paint51_radial_7178_3349" cx="0" cy="0" r="1" gradientUnits="userSpaceOnUse" gradientTransform="translate(15.6 43.126) rotate(60.6636) scale(10.1809)">
<stop stop-color="#ADFAFF"/>
<stop offset="0.901042" stop-color="#3DB4D9"/>
<stop offset="1" stop-color="#37A8CD"/>
</radialGradient>
<radialGradient id="paint52_radial_7178_3349" cx="0" cy="0" r="1" gradientUnits="userSpaceOnUse" gradientTransform="translate(24.0312 35.7267) rotate(103.375) scale(7.25352)">
<stop stop-color="#ADFAFF"/>
<stop offset="0.901042" stop-color="#3DB4D9"/>
<stop offset="1" stop-color="#37A8CD"/>
</radialGradient>
<linearGradient id="paint53_linear_7178_3349" x1="97.5505" y1="28.0846" x2="106.414" y2="6.44176" gradientUnits="userSpaceOnUse">
<stop stop-color="#95B1B7"/>
<stop offset="1" stop-color="#CCEEEB"/>
</linearGradient>
<radialGradient id="paint54_radial_7178_3349" cx="0" cy="0" r="1" gradientUnits="userSpaceOnUse" gradientTransform="translate(110.558 27.6371) rotate(148.893) scale(21.0117 7.00822)">
<stop stop-color="#73969D"/>
<stop offset="1" stop-color="#73969D" stop-opacity="0"/>
</radialGradient>
<radialGradient id="paint55_radial_7178_3349" cx="0" cy="0" r="1" gradientUnits="userSpaceOnUse" gradientTransform="translate(132.679 20.1287) rotate(139.732) scale(49.1523 20.7855)">
<stop stop-color="#C4E0DD"/>
<stop offset="1" stop-color="#748E94"/>
</radialGradient>
<radialGradient id="paint56_radial_7178_3349" cx="0" cy="0" r="1" gradientUnits="userSpaceOnUse" gradientTransform="translate(143.644 22.2304) rotate(122.12) scale(4.31814 3.84979)">
<stop offset="0.00558659" stop-color="#433437"/>
<stop offset="1" stop-color="#3B2838"/>
</radialGradient>
<radialGradient id="paint57_radial_7178_3349" cx="0" cy="0" r="1" gradientUnits="userSpaceOnUse" gradientTransform="translate(143.897 22.4378) rotate(133.925) scale(2.23704 1.96805)">
<stop stop-color="#736465"/>
<stop offset="1" stop-color="#5C5051" stop-opacity="0"/>
</radialGradient>
<linearGradient id="paint58_linear_7178_3349" x1="142.018" y1="20.8902" x2="139.795" y2="19.6704" gradientUnits="userSpaceOnUse">
<stop stop-color="#5C5051" stop-opacity="0"/>
<stop offset="1" stop-color="#5C5051"/>
</linearGradient>
<radialGradient id="paint59_radial_7178_3349" cx="0" cy="0" r="1" gradientUnits="userSpaceOnUse" gradientTransform="translate(63.8073 37.9562) rotate(94.1152) scale(14.4594 6.09527)">
<stop stop-color="#B1D7D2"/>
<stop offset="1" stop-color="#748E94"/>
</radialGradient>
<radialGradient id="paint60_radial_7178_3349" cx="0" cy="0" r="1" gradientUnits="userSpaceOnUse" gradientTransform="translate(49.6902 57.2552) rotate(-22.7611) scale(11.7937 4.97155)">
<stop stop-color="#B4D9D5"/>
<stop offset="1" stop-color="#B4D9D5" stop-opacity="0"/>
</radialGradient>
</defs>
</svg>
