<svg viewBox="0 0 240 120" fill="none" xmlns="http://www.w3.org/2000/svg">
<path d="M192.837 48.4936C184.76 33.3013 154.933 2.91669 100.241 2.91669C50.2288 2.91669 0.577602 23.0769 6.05818 78.75L192.837 73.0128V48.4936Z" fill="url(#paint0_radial_10552_1155)"/>
<path d="M192.837 48.4936C184.76 33.3013 154.933 2.91669 100.241 2.91669C50.2288 2.91669 0.577602 23.0769 6.05818 78.75L192.837 73.0128V48.4936Z" fill="url(#paint1_radial_10552_1155)"/>
<path d="M192.837 48.4936C184.76 33.3013 154.933 2.91669 100.241 2.91669C50.2288 2.91669 0.577602 23.0769 6.05818 78.75L192.837 73.0128V48.4936Z" fill="url(#paint2_radial_10552_1155)"/>
<path d="M138.524 20.6357C145.093 20.6357 150.562 25.3217 151.78 31.5341C152.501 31.2712 153.279 31.124 154.092 31.124C155.624 31.1242 157.033 31.6388 158.166 32.4987C159.66 28.9725 163.155 26.4996 167.226 26.4996C172.655 26.4997 177.055 30.9006 177.056 36.3298C177.056 41.7599 172.656 46.1644 167.226 46.1645C165.698 46.1645 164.257 45.8039 162.967 45.182C162.716 50.3886 158.432 54.5343 153.163 54.5344C148.415 54.5344 144.452 51.168 143.531 46.6919C141.982 47.3111 140.295 47.6654 138.524 47.6654C136.648 47.6654 134.861 47.2793 133.237 46.5882C131.893 49.0584 129.274 50.7348 126.264 50.7348C124.89 50.7348 123.597 50.3855 122.469 49.7703C121.613 51.5029 119.836 52.6996 117.773 52.7C114.876 52.7 112.526 50.3505 112.526 47.4536C112.526 44.5567 114.876 42.2072 117.773 42.2072C117.971 42.2072 118.166 42.2173 118.359 42.2387C118.619 38.5324 121.419 35.5366 125.034 34.9731C125.017 34.7003 125.011 34.4253 125.011 34.1483C125.011 26.6842 131.06 20.6357 138.524 20.6357Z" fill="url(#paint3_radial_10552_1155)"/>
<path d="M78.2899 19.8013C83.5364 19.8013 87.7911 24.056 87.7911 29.3025C87.791 29.6718 87.7601 30.035 87.719 30.3933C87.8904 30.3818 88.063 30.3707 88.2373 30.3707C90.9349 30.3707 93.3009 31.768 94.6691 33.8728C96.5306 31.4507 99.4506 29.8842 102.742 29.884C106.97 29.884 110.595 32.4621 112.135 36.131C112.729 35.932 113.366 35.8247 114.028 35.8245C117.324 35.8245 119.999 38.4957 120 41.792C120 45.0887 117.324 47.7641 114.028 47.7641C112.719 47.7637 111.514 47.3337 110.53 46.6192C108.662 48.8377 105.869 50.2521 102.742 50.2521C102.545 50.252 102.35 50.2316 102.156 50.2205C102.156 50.276 102.165 50.3315 102.165 50.3873C102.165 56.0117 97.6027 60.5736 91.9783 60.5736C87.9235 60.5734 84.4309 58.1985 82.7926 54.7683C80.8352 55.9282 78.5576 56.6072 76.1174 56.6072C74.0571 56.6069 72.1148 56.1193 70.3797 55.2731C68.164 56.981 65.3979 58.009 62.3839 58.009C55.1346 58.0089 49.2589 52.1333 49.2589 44.884C49.259 43.6016 49.4479 42.364 49.7908 41.1926C49.6155 41.2089 49.4385 41.2241 49.2589 41.2241C46.1279 41.2241 43.589 38.6851 43.5889 35.554C43.5889 32.6128 45.8285 30.1935 48.6955 29.911C48.7984 25.4758 52.4207 21.9107 56.8806 21.9107C60.9535 21.9107 64.3189 24.8861 64.9531 28.7797C65.7274 28.2936 66.6441 28.0135 67.6258 28.0135C68.054 28.0136 68.4684 28.0705 68.8653 28.1712C69.424 23.458 73.4266 19.8022 78.2899 19.8013Z" fill="url(#paint4_radial_10552_1155)"/>
<path d="M23.8083 45.1903C15.03 46.5836 15.3087 66.5089 10.9893 77.0987H97.2393V52.9931C93.4771 55.9192 91.9444 54.5258 89.0183 54.6651C86.0922 54.8045 84.2809 49.649 82.8875 47.4893C81.4941 45.3295 82.7481 43.1001 79.8221 40.8707C79.6827 40.1044 79.2508 38.4463 78.6377 37.9446C78.0246 37.443 77.9642 35.7849 78.0107 35.0185C76.6173 34.7399 75.4329 36.3423 74.5969 36.4119C73.7609 36.4816 71.6708 30.9778 71.4618 30.0721C71.2946 29.3475 69.9523 28.702 69.3021 28.4698C69.1627 27.2159 67.2817 26.3099 65.4703 26.937C63.6589 27.564 60.8025 26.8673 59.4788 25.3346C58.3641 25.3346 55.856 21.9905 56.3437 19.5521L54.4626 16.626C53.9053 16.7654 52.5119 17.0441 51.3972 17.0441C50.7702 16.2778 48.3317 18.2982 47.4957 20.6669C45.545 20.5972 43.2459 22.8266 42.6189 23.1749C42.1173 23.4536 41.899 22.2228 41.8525 21.5726C41.5739 22.4086 40.4824 22.9892 39.9715 23.1749C39.86 24.4011 38.5317 27.2158 37.8814 28.4698C35.8378 28.4234 31.6948 28.9436 31.4719 31.3959C31.249 33.8483 26.27 41.614 23.8083 45.1903Z" fill="url(#paint5_linear_10552_1155)"/>
<path d="M23.8083 45.1903C15.03 46.5836 15.3087 66.5089 10.9893 77.0987H97.2393V52.9931C93.4771 55.9192 91.9444 54.5258 89.0183 54.6651C86.0922 54.8045 84.2809 49.649 82.8875 47.4893C81.4941 45.3295 82.7481 43.1001 79.8221 40.8707C79.6827 40.1044 79.2508 38.4463 78.6377 37.9446C78.0246 37.443 77.9642 35.7849 78.0107 35.0185C76.6173 34.7399 75.4329 36.3423 74.5969 36.4119C73.7609 36.4816 71.6708 30.9778 71.4618 30.0721C71.2946 29.3475 69.9523 28.702 69.3021 28.4698C69.1627 27.2159 67.2817 26.3099 65.4703 26.937C63.6589 27.564 60.8025 26.8673 59.4788 25.3346C58.3641 25.3346 55.856 21.9905 56.3437 19.5521L54.4626 16.626C53.9053 16.7654 52.5119 17.0441 51.3972 17.0441C50.7702 16.2778 48.3317 18.2982 47.4957 20.6669C45.545 20.5972 43.2459 22.8266 42.6189 23.1749C42.1173 23.4536 41.899 22.2228 41.8525 21.5726C41.5739 22.4086 40.4824 22.9892 39.9715 23.1749C39.86 24.4011 38.5317 27.2158 37.8814 28.4698C35.8378 28.4234 31.6948 28.9436 31.4719 31.3959C31.249 33.8483 26.27 41.614 23.8083 45.1903Z" fill="url(#paint6_radial_10552_1155)"/>
<path d="M23.8083 45.1903C15.03 46.5836 15.3087 66.5089 10.9893 77.0987H97.2393V52.9931C93.4771 55.9192 91.9444 54.5258 89.0183 54.6651C86.0922 54.8045 84.2809 49.649 82.8875 47.4893C81.4941 45.3295 82.7481 43.1001 79.8221 40.8707C79.6827 40.1044 79.2508 38.4463 78.6377 37.9446C78.0246 37.443 77.9642 35.7849 78.0107 35.0185C76.6173 34.7399 75.4329 36.3423 74.5969 36.4119C73.7609 36.4816 71.6708 30.9778 71.4618 30.0721C71.2946 29.3475 69.9523 28.702 69.3021 28.4698C69.1627 27.2159 67.2817 26.3099 65.4703 26.937C63.6589 27.564 60.8025 26.8673 59.4788 25.3346C58.3641 25.3346 55.856 21.9905 56.3437 19.5521L54.4626 16.626C53.9053 16.7654 52.5119 17.0441 51.3972 17.0441C50.7702 16.2778 48.3317 18.2982 47.4957 20.6669C45.545 20.5972 43.2459 22.8266 42.6189 23.1749C42.1173 23.4536 41.899 22.2228 41.8525 21.5726C41.5739 22.4086 40.4824 22.9892 39.9715 23.1749C39.86 24.4011 38.5317 27.2158 37.8814 28.4698C35.8378 28.4234 31.6948 28.9436 31.4719 31.3959C31.249 33.8483 26.27 41.614 23.8083 45.1903Z" fill="url(#paint7_radial_10552_1155)"/>
<path d="M20.4816 88.8462C10.3855 96.9231 17.597 105.865 44.7124 111.058C100.386 113.173 214.155 117.404 223.847 117.404C235.963 117.404 237.405 111.058 233.367 106.154C230.136 102.231 183.559 90.4808 160.674 85.0962L105.578 72.6923C80.5781 75.3846 28.5586 82.3846 20.4816 88.8462Z" fill="url(#paint8_linear_10552_1155)"/>
<path d="M20.4816 88.8462C10.3855 96.9231 17.597 105.865 44.7124 111.058C100.386 113.173 214.155 117.404 223.847 117.404C235.963 117.404 237.405 111.058 233.367 106.154C230.136 102.231 183.559 90.4808 160.674 85.0962L105.578 72.6923C80.5781 75.3846 28.5586 82.3846 20.4816 88.8462Z" fill="url(#paint9_linear_10552_1155)"/>
<path d="M96.9229 50.1923C95.0768 49.3846 90.8652 62.3557 88.9902 68.9423V77.0192H155.048V38.3654C146.634 41.4423 129.461 48.1154 128.077 50.1923C126.346 52.7884 122.308 48.75 120.433 48.4615C118.558 48.173 118.269 43.9904 117.981 42.1154C117.692 40.2404 115.384 40.0961 113.509 41.1057C112.009 41.9134 110.577 40.2884 110.048 39.375H108.75L107.596 41.1057L104.423 42.1154C103.221 43.5096 100.586 46.3846 99.6633 46.7307C98.7402 47.0769 97.4518 49.1826 96.9229 50.1923Z" fill="url(#paint10_linear_10552_1155)"/>
<path d="M96.9229 50.1923C95.0768 49.3846 90.8652 62.3557 88.9902 68.9423V77.0192H155.048V38.3654C146.634 41.4423 129.461 48.1154 128.077 50.1923C126.346 52.7884 122.308 48.75 120.433 48.4615C118.558 48.173 118.269 43.9904 117.981 42.1154C117.692 40.2404 115.384 40.0961 113.509 41.1057C112.009 41.9134 110.577 40.2884 110.048 39.375H108.75L107.596 41.1057L104.423 42.1154C103.221 43.5096 100.586 46.3846 99.6633 46.7307C98.7402 47.0769 97.4518 49.1826 96.9229 50.1923Z" fill="url(#paint11_radial_10552_1155)"/>
<path d="M96.9229 50.1923C95.0768 49.3846 90.8652 62.3557 88.9902 68.9423V77.0192H155.048V38.3654C146.634 41.4423 129.461 48.1154 128.077 50.1923C126.346 52.7884 122.308 48.75 120.433 48.4615C118.558 48.173 118.269 43.9904 117.981 42.1154C117.692 40.2404 115.384 40.0961 113.509 41.1057C112.009 41.9134 110.577 40.2884 110.048 39.375H108.75L107.596 41.1057L104.423 42.1154C103.221 43.5096 100.586 46.3846 99.6633 46.7307C98.7402 47.0769 97.4518 49.1826 96.9229 50.1923Z" fill="url(#paint12_radial_10552_1155)"/>
<path d="M96.9229 50.1923C95.0768 49.3846 90.8652 62.3557 88.9902 68.9423V77.0192H155.048V38.3654C146.634 41.4423 129.461 48.1154 128.077 50.1923C126.346 52.7884 122.308 48.75 120.433 48.4615C118.558 48.173 118.269 43.9904 117.981 42.1154C117.692 40.2404 115.384 40.0961 113.509 41.1057C112.009 41.9134 110.577 40.2884 110.048 39.375H108.75L107.596 41.1057L104.423 42.1154C103.221 43.5096 100.586 46.3846 99.6633 46.7307C98.7402 47.0769 97.4518 49.1826 96.9229 50.1923Z" fill="url(#paint13_radial_10552_1155)"/>
<path d="M110.048 39.375C110.388 39.9634 111.105 40.8439 111.972 41.1824C114.995 47.942 115.155 65.7616 115.226 77.0192H103.296C103.455 70.4889 105.584 48.731 107.519 41.1283L107.596 41.1058L108.75 39.375H110.048Z" fill="url(#paint14_radial_10552_1155)"/>
<path d="M110.048 39.375C110.388 39.9634 111.105 40.8439 111.972 41.1824C114.995 47.942 115.155 65.7616 115.226 77.0192H103.296C103.455 70.4889 105.584 48.731 107.519 41.1283L107.596 41.1058L108.75 39.375H110.048Z" fill="url(#paint15_radial_10552_1155)"/>
<path d="M146.683 64.471C145.673 69.5191 136.442 79.0385 136.442 89.7115C136.442 89.7115 152.019 100.962 185.048 100.962C218.077 100.962 235.096 88.4135 235.096 88.4135C233.462 72.6923 229.24 37.9038 227.164 36.6346C224.567 35.0481 219.808 15.7211 214.183 16.0096C208.558 16.2981 196.154 6.34603 195.289 5.48064C194.423 4.61526 169.615 4.32679 168.462 5.48064C167.308 6.63449 160.817 10.0961 157.212 10.3846C153.606 10.6731 151.731 31.4422 149.423 33.4614C147.115 35.4806 147.692 59.4229 146.683 64.471Z" fill="url(#paint16_linear_10552_1155)"/>
<path d="M146.683 64.471C145.673 69.5191 136.442 79.0385 136.442 89.7115C136.442 89.7115 152.019 100.962 185.048 100.962C218.077 100.962 235.096 88.4135 235.096 88.4135C233.462 72.6923 229.24 37.9038 227.164 36.6346C224.567 35.0481 219.808 15.7211 214.183 16.0096C208.558 16.2981 196.154 6.34603 195.289 5.48064C194.423 4.61526 169.615 4.32679 168.462 5.48064C167.308 6.63449 160.817 10.0961 157.212 10.3846C153.606 10.6731 151.731 31.4422 149.423 33.4614C147.115 35.4806 147.692 59.4229 146.683 64.471Z" fill="url(#paint17_radial_10552_1155)"/>
<path d="M146.683 64.471C145.673 69.5191 136.442 79.0385 136.442 89.7115C136.442 89.7115 152.019 100.962 185.048 100.962C218.077 100.962 235.096 88.4135 235.096 88.4135C233.462 72.6923 229.24 37.9038 227.164 36.6346C224.567 35.0481 219.808 15.7211 214.183 16.0096C208.558 16.2981 196.154 6.34603 195.289 5.48064C194.423 4.61526 169.615 4.32679 168.462 5.48064C167.308 6.63449 160.817 10.0961 157.212 10.3846C153.606 10.6731 151.731 31.4422 149.423 33.4614C147.115 35.4806 147.692 59.4229 146.683 64.471Z" fill="url(#paint18_radial_10552_1155)"/>
<path d="M146.683 64.471C145.673 69.5191 136.442 79.0385 136.442 89.7115C136.442 89.7115 152.019 100.962 185.048 100.962C218.077 100.962 235.096 88.4135 235.096 88.4135C233.462 72.6923 229.24 37.9038 227.164 36.6346C224.567 35.0481 219.808 15.7211 214.183 16.0096C208.558 16.2981 196.154 6.34603 195.289 5.48064C194.423 4.61526 169.615 4.32679 168.462 5.48064C167.308 6.63449 160.817 10.0961 157.212 10.3846C153.606 10.6731 151.731 31.4422 149.423 33.4614C147.115 35.4806 147.692 59.4229 146.683 64.471Z" fill="url(#paint19_radial_10552_1155)"/>
<path d="M56.3445 19.5512C56.0314 21.1166 56.9586 23.0511 57.9536 24.2387C59.8767 36.5906 60.5096 62.3351 60.5813 77.0992H39.7715C40.6387 60.749 42.206 31.7923 42.8229 23.0217C43.6555 22.4239 45.725 20.6057 47.4968 20.6689C48.3327 18.3006 50.7681 16.2798 51.3956 17.0451C52.5103 17.0451 53.9076 16.7654 54.465 16.626L56.3445 19.5512Z" fill="url(#paint20_radial_10552_1155)"/>
<path d="M56.3445 19.5512C56.0314 21.1166 56.9586 23.0511 57.9536 24.2387C59.8767 36.5906 60.5096 62.3351 60.5813 77.0992H39.7715C40.6387 60.749 42.206 31.7923 42.8229 23.0217C43.6555 22.4239 45.725 20.6057 47.4968 20.6689C48.3327 18.3006 50.7681 16.2798 51.3956 17.0451C52.5103 17.0451 53.9076 16.7654 54.465 16.626L56.3445 19.5512Z" fill="url(#paint21_radial_10552_1155)"/>
<path d="M65.4717 26.9365C67.2821 26.31 69.1618 27.2161 69.3028 28.4689C69.5442 28.5551 69.8766 28.7096 70.2133 28.8926C71.7685 37.2512 73.4733 61.7861 73.7785 77.1017H62.5105C62.8222 60.0377 62.3152 31.0081 62.4158 26.968C63.4855 27.226 64.5988 27.2386 65.4717 26.9365Z" fill="url(#paint22_radial_10552_1155)"/>
<path d="M37.8876 28.4568C37.9035 35.3217 37.4514 61.7521 37.8245 77.0988H28.1514C28.296 64.9769 29.4713 45.3497 30.7747 33.532C31.1683 32.6458 31.427 31.9065 31.4734 31.3956C31.697 28.9442 35.8392 28.4241 37.8831 28.4704L37.8876 28.4568Z" fill="url(#paint23_radial_10552_1155)"/>
<path d="M144.084 75.1983L133.984 77.0192H126.741C126.445 68.765 126.636 54.8783 129.084 49.354C131.555 47.7367 137.847 45.0424 144.084 42.5616V75.1983Z" fill="url(#paint24_radial_10552_1155)"/>
<path d="M144.084 75.1983L133.984 77.0192H126.741C126.445 68.765 126.636 54.8783 129.084 49.354C131.555 47.7367 137.847 45.0424 144.084 42.5616V75.1983Z" fill="url(#paint25_radial_10552_1155)"/>
<path d="M168.461 5.48227C169.486 4.45712 189.182 4.57589 194.17 5.22086C194.368 22.7578 190.602 98.0275 181.875 100.242C180.937 100.48 179.887 100.666 178.756 100.819C167.967 100.334 159.314 98.6456 152.713 96.7263C154.125 88.1721 156.94 74.1363 160.24 66.6361C164.635 56.6465 166.447 20.9484 167.267 6.34315C167.818 5.99322 168.241 5.70241 168.461 5.48227Z" fill="url(#paint26_radial_10552_1155)"/>
<path d="M168.461 5.48227C169.486 4.45712 189.182 4.57589 194.17 5.22086C194.368 22.7578 190.602 98.0275 181.875 100.242C180.937 100.48 179.887 100.666 178.756 100.819C167.967 100.334 159.314 98.6456 152.713 96.7263C154.125 88.1721 156.94 74.1363 160.24 66.6361C164.635 56.6465 166.447 20.9484 167.267 6.34315C167.818 5.99322 168.241 5.70241 168.461 5.48227Z" fill="url(#paint27_radial_10552_1155)"/>
<path d="M197.564 7.33319C201.597 10.4438 209.876 16.2304 214.183 16.0096C214.638 15.9862 215.082 16.1022 215.526 16.3161C217.147 42.8164 218.104 85.2839 212.619 97.7208C210.463 98.2592 208.156 98.7578 205.695 99.1947C197.237 87.5116 198.631 29.2811 197.564 7.33319Z" fill="url(#paint28_radial_10552_1155)"/>
<path d="M128.224 86.1064C130.531 80.1929 118.27 78.3175 87.8376 75.2887C86.2508 58.846 105.723 74.1348 129.809 65.9136C153.896 57.6925 147.406 83.6535 225.002 91.4423C238.205 92.7676 240.868 108.942 225.002 106.731C142.213 95.1925 117.694 111.202 107.309 102.404C96.9255 93.6064 125.916 92.0199 128.224 86.1064Z" fill="url(#paint29_linear_10552_1155)"/>
<path d="M128.224 86.1064C130.531 80.1929 118.27 78.3175 87.8376 75.2887C86.2508 58.846 105.723 74.1348 129.809 65.9136C153.896 57.6925 147.406 83.6535 225.002 91.4423C238.205 92.7676 240.868 108.942 225.002 106.731C142.213 95.1925 117.694 111.202 107.309 102.404C96.9255 93.6064 125.916 92.0199 128.224 86.1064Z" fill="url(#paint30_radial_10552_1155)"/>
<path d="M128.224 86.1064C130.531 80.1929 118.27 78.3175 87.8376 75.2887C86.2508 58.846 105.723 74.1348 129.809 65.9136C153.896 57.6925 147.406 83.6535 225.002 91.4423C238.205 92.7676 240.868 108.942 225.002 106.731C142.213 95.1925 117.694 111.202 107.309 102.404C96.9255 93.6064 125.916 92.0199 128.224 86.1064Z" fill="url(#paint31_radial_10552_1155)"/>
<path d="M128.224 86.1064C130.531 80.1929 118.27 78.3175 87.8376 75.2887C86.2508 58.846 105.723 74.1348 129.809 65.9136C153.896 57.6925 147.406 83.6535 225.002 91.4423C238.205 92.7676 240.868 108.942 225.002 106.731C142.213 95.1925 117.694 111.202 107.309 102.404C96.9255 93.6064 125.916 92.0199 128.224 86.1064Z" fill="url(#paint32_radial_10552_1155)"/>
<path d="M87.26 110.193C66.9406 105.162 36.0581 95.9137 12.8369 119.423H236.25C201.347 96.923 124.544 119.423 87.26 110.193Z" fill="url(#paint33_linear_10552_1155)"/>
<path d="M87.26 110.193C66.9406 105.162 36.0581 95.9137 12.8369 119.423H236.25C201.347 96.923 124.544 119.423 87.26 110.193Z" fill="url(#paint34_radial_10552_1155)"/>
<path d="M213.496 72.9965C192.43 75.7613 184.835 96.0523 152.081 92.4926C151.601 102.722 228.128 102.706 233.867 97.3444C239.605 91.9827 234.562 70.2318 213.496 72.9965Z" fill="url(#paint35_linear_10552_1155)"/>
<path d="M213.496 72.9965C192.43 75.7613 184.835 96.0523 152.081 92.4926C151.601 102.722 228.128 102.706 233.867 97.3444C239.605 91.9827 234.562 70.2318 213.496 72.9965Z" fill="url(#paint36_radial_10552_1155)"/>
<path d="M213.496 72.9965C192.43 75.7613 184.835 96.0523 152.081 92.4926C151.601 102.722 228.128 102.706 233.867 97.3444C239.605 91.9827 234.562 70.2318 213.496 72.9965Z" fill="url(#paint37_radial_10552_1155)"/>
<path d="M46.8743 58.5578C35.1916 56.9713 19.4705 65.6253 5.76855 78.7503C12.4032 103.125 104.567 86.9714 106.442 84.8079C104.711 77.0194 58.557 60.1443 46.8743 58.5578Z" fill="url(#paint38_linear_10552_1155)"/>
<path d="M46.8743 58.5578C35.1916 56.9713 19.4705 65.6253 5.76855 78.7503C12.4032 103.125 104.567 86.9714 106.442 84.8079C104.711 77.0194 58.557 60.1443 46.8743 58.5578Z" fill="url(#paint39_radial_10552_1155)"/>
<path d="M46.8743 58.5578C35.1916 56.9713 19.4705 65.6253 5.76855 78.7503C12.4032 103.125 104.567 86.9714 106.442 84.8079C104.711 77.0194 58.557 60.1443 46.8743 58.5578Z" fill="url(#paint40_radial_10552_1155)"/>
<path d="M75.7385 81.6518C76.1807 80.0217 76.4379 77.1908 76.3758 75.7296H78.1311C78.2103 77.0824 78.3549 79.8142 78.9209 81.5921C79.1036 82.1658 78.9655 82.8621 78.3978 83.0627C77.6934 83.3116 76.9435 83.3263 76.2441 83.0589C75.7155 82.8568 75.5904 82.198 75.7385 81.6518Z" fill="url(#paint41_linear_10552_1155)"/>
<path d="M75.7385 81.6518C76.1807 80.0217 76.4379 77.1908 76.3758 75.7296H78.1311C78.2103 77.0824 78.3549 79.8142 78.9209 81.5921C79.1036 82.1658 78.9655 82.8621 78.3978 83.0627C77.6934 83.3116 76.9435 83.3263 76.2441 83.0589C75.7155 82.8568 75.5904 82.198 75.7385 81.6518Z" fill="url(#paint42_radial_10552_1155)"/>
<path d="M75.7385 81.6518C76.1807 80.0217 76.4379 77.1908 76.3758 75.7296H78.1311C78.2103 77.0824 78.3549 79.8142 78.9209 81.5921C79.1036 82.1658 78.9655 82.8621 78.3978 83.0627C77.6934 83.3116 76.9435 83.3263 76.2441 83.0589C75.7155 82.8568 75.5904 82.198 75.7385 81.6518Z" fill="url(#paint43_radial_10552_1155)"/>
<path d="M80.9093 76.8149C82.4326 78.313 85.9253 77.7045 84.5583 76.8149C82.6037 75.5429 80.3123 72.6865 78.7214 66.9072C78.6629 66.6948 78.4624 66.5437 78.2328 66.5437L75.2587 66.5436C75.0044 66.5436 74.7905 66.7288 74.7566 66.9698C73.7953 73.8093 70.7438 75.7494 69.1841 76.8149C68.2315 77.4657 73.0369 78.6579 73.6937 76.5019C72.6944 79.7818 77.1542 80.1538 76.9007 76.5019C78.3282 80.3339 80.9093 79.0033 80.9093 76.8149Z" fill="url(#paint44_linear_10552_1155)"/>
<path d="M80.9093 76.8149C82.4326 78.313 85.9253 77.7045 84.5583 76.8149C82.6037 75.5429 80.3123 72.6865 78.7214 66.9072C78.6629 66.6948 78.4624 66.5437 78.2328 66.5437L75.2587 66.5436C75.0044 66.5436 74.7905 66.7288 74.7566 66.9698C73.7953 73.8093 70.7438 75.7494 69.1841 76.8149C68.2315 77.4657 73.0369 78.6579 73.6937 76.5019C72.6944 79.7818 77.1542 80.1538 76.9007 76.5019C78.3282 80.3339 80.9093 79.0033 80.9093 76.8149Z" fill="url(#paint45_radial_10552_1155)"/>
<path d="M75.1926 71.758C73.0935 74.0373 69.676 73.1567 70.7856 72.3976C72.2514 71.3947 73.9506 69.2376 75.2191 65.0255C75.4641 64.2121 76.1985 63.6323 77.0481 63.6323C77.9878 63.6322 78.768 64.3383 78.9486 65.2605C79.8929 70.0809 82.0954 71.5577 83.2649 72.3976C84.612 73.3651 80.3156 74.2445 78.6959 71.758C78.3943 75.2895 75.1926 74.4607 75.1926 71.758Z" fill="url(#paint46_linear_10552_1155)"/>
<path d="M75.1926 71.758C73.0935 74.0373 69.676 73.1567 70.7856 72.3976C72.2514 71.3947 73.9506 69.2376 75.2191 65.0255C75.4641 64.2121 76.1985 63.6323 77.0481 63.6323C77.9878 63.6322 78.768 64.3383 78.9486 65.2605C79.8929 70.0809 82.0954 71.5577 83.2649 72.3976C84.612 73.3651 80.3156 74.2445 78.6959 71.758C78.3943 75.2895 75.1926 74.4607 75.1926 71.758Z" fill="url(#paint47_radial_10552_1155)"/>
<path d="M75.4295 67.1479C73.597 69.1376 70.6137 68.3689 71.5823 67.7062C72.862 66.8307 74.3453 64.9476 75.4526 61.2706C75.6665 60.5605 76.3076 60.0544 77.0493 60.0544C77.8696 60.0544 78.5507 60.6708 78.7084 61.4758C79.5327 65.6838 81.4554 66.973 82.4763 67.7062C83.6523 68.5508 79.9017 69.3185 78.4877 67.1479C78.2245 70.2308 75.4295 69.5072 75.4295 67.1479Z" fill="url(#paint48_linear_10552_1155)"/>
<path d="M75.4295 67.1479C73.597 69.1376 70.6137 68.3689 71.5823 67.7062C72.862 66.8307 74.3453 64.9476 75.4526 61.2706C75.6665 60.5605 76.3076 60.0544 77.0493 60.0544C77.8696 60.0544 78.5507 60.6708 78.7084 61.4758C79.5327 65.6838 81.4554 66.973 82.4763 67.7062C83.6523 68.5508 79.9017 69.3185 78.4877 67.1479C78.2245 70.2308 75.4295 69.5072 75.4295 67.1479Z" fill="url(#paint49_radial_10552_1155)"/>
<path d="M75.7794 62.3626C74.345 63.9202 72.0097 63.3184 72.7679 62.7997C73.8474 62.0611 75.8577 59.7703 76.7763 56.3981C76.8173 56.2477 76.9529 56.1412 77.1088 56.1412C77.2813 56.1412 77.426 56.2714 77.4507 56.4421C78.0267 60.4199 80.4341 62.181 81.2955 62.7997C82.216 63.4608 79.2801 64.0617 78.1733 62.3626C77.9672 64.7758 75.7794 64.2095 75.7794 62.3626Z" fill="url(#paint50_linear_10552_1155)"/>
<path d="M118.058 76.5451C118.394 75.1864 118.586 72.9998 118.537 71.8483H119.98C120.042 72.9147 120.154 75.0237 120.574 76.4833C120.74 77.0619 120.597 77.7687 120.017 77.9312C119.548 78.0626 119.061 78.0681 118.595 77.9273C118.053 77.7636 117.922 77.0945 118.058 76.5451Z" fill="url(#paint51_linear_10552_1155)"/>
<path d="M118.058 76.5451C118.394 75.1864 118.586 72.9998 118.537 71.8483H119.98C120.042 72.9147 120.154 75.0237 120.574 76.4833C120.74 77.0619 120.597 77.7687 120.017 77.9312C119.548 78.0626 119.061 78.0681 118.595 77.9273C118.053 77.7636 117.922 77.0945 118.058 76.5451Z" fill="url(#paint52_radial_10552_1155)"/>
<path d="M118.058 76.5451C118.394 75.1864 118.586 72.9998 118.537 71.8483H119.98C120.042 72.9147 120.154 75.0237 120.574 76.4833C120.74 77.0619 120.597 77.7687 120.017 77.9312C119.548 78.0626 119.061 78.0681 118.595 77.9273C118.053 77.7636 117.922 77.0945 118.058 76.5451Z" fill="url(#paint53_radial_10552_1155)"/>
<path d="M122.263 72.7401C123.515 73.9711 126.385 73.4711 125.261 72.7401C123.655 71.6949 121.773 69.3479 120.465 64.5992C120.417 64.4246 120.253 64.3005 120.064 64.3005L117.62 64.3004C117.411 64.3004 117.235 64.4526 117.208 64.6506C116.418 70.2704 113.91 71.8646 112.629 72.7401C111.846 73.2748 115.794 74.2545 116.334 72.4829C115.513 75.1779 119.178 75.4837 118.969 72.4829C120.142 75.6316 122.263 74.5383 122.263 72.7401Z" fill="url(#paint54_linear_10552_1155)"/>
<path d="M122.263 72.7401C123.515 73.9711 126.385 73.4711 125.261 72.7401C123.655 71.6949 121.773 69.3479 120.465 64.5992C120.417 64.4246 120.253 64.3005 120.064 64.3005L117.62 64.3004C117.411 64.3004 117.235 64.4526 117.208 64.6506C116.418 70.2704 113.91 71.8646 112.629 72.7401C111.846 73.2748 115.794 74.2545 116.334 72.4829C115.513 75.1779 119.178 75.4837 118.969 72.4829C120.142 75.6316 122.263 74.5383 122.263 72.7401Z" fill="url(#paint55_radial_10552_1155)"/>
<path d="M117.565 68.585C115.841 70.4579 113.033 69.7343 113.944 69.1106C115.149 68.2865 116.545 66.514 117.587 63.0531C117.789 62.3847 118.392 61.9083 119.09 61.9083C119.862 61.9082 120.503 62.4884 120.652 63.2462C121.428 67.207 123.237 68.4204 124.198 69.1106C125.305 69.9056 121.775 70.6281 120.444 68.585C120.196 71.4868 117.565 70.8058 117.565 68.585Z" fill="url(#paint56_linear_10552_1155)"/>
<path d="M117.565 68.585C115.841 70.4579 113.033 69.7343 113.944 69.1106C115.149 68.2865 116.545 66.514 117.587 63.0531C117.789 62.3847 118.392 61.9083 119.09 61.9083C119.862 61.9082 120.503 62.4884 120.652 63.2462C121.428 67.207 123.237 68.4204 124.198 69.1106C125.305 69.9056 121.775 70.6281 120.444 68.585C120.196 71.4868 117.565 70.8058 117.565 68.585Z" fill="url(#paint57_radial_10552_1155)"/>
<path d="M117.759 64.797C116.253 66.4319 113.802 65.8003 114.597 65.2557C115.649 64.5363 116.868 62.9891 117.778 59.9678C117.953 59.3843 118.48 58.9684 119.09 58.9684C119.764 58.9684 120.323 59.4748 120.453 60.1363C121.13 63.594 122.71 64.6533 123.549 65.2557C124.515 65.9497 121.433 66.5805 120.272 64.797C120.055 67.3301 117.759 66.7356 117.759 64.797Z" fill="url(#paint58_linear_10552_1155)"/>
<path d="M117.759 64.797C116.253 66.4319 113.802 65.8003 114.597 65.2557C115.649 64.5363 116.868 62.9891 117.778 59.9678C117.953 59.3843 118.48 58.9684 119.09 58.9684C119.764 58.9684 120.323 59.4748 120.453 60.1363C121.13 63.594 122.71 64.6533 123.549 65.2557C124.515 65.9497 121.433 66.5805 120.272 64.797C120.055 67.3301 117.759 66.7356 117.759 64.797Z" fill="url(#paint59_radial_10552_1155)"/>
<path d="M118.048 60.865C116.869 62.1448 114.951 61.6504 115.574 61.2242C116.461 60.6173 118.112 58.735 118.867 55.9641C118.901 55.8405 119.012 55.7531 119.14 55.7531C119.282 55.7531 119.401 55.86 119.421 56.0002C119.895 59.2688 121.873 60.7158 122.581 61.2242C123.337 61.7674 120.925 62.2612 120.015 60.865C119.846 62.8479 118.048 62.3826 118.048 60.865Z" fill="url(#paint60_linear_10552_1155)"/>
<path d="M66.5087 72.1204C66.8453 70.7611 67.0378 68.573 66.9889 67.4208H68.4319C68.4943 68.4878 68.6063 70.5983 69.0262 72.0586C69.1926 72.6372 69.05 73.3439 68.4703 73.5065C68.0007 73.6382 67.5123 73.6437 67.0459 73.5027C66.5042 73.3389 66.3727 72.6698 66.5087 72.1204Z" fill="url(#paint61_linear_10552_1155)"/>
<path d="M66.5087 72.1204C66.8453 70.7611 67.0378 68.573 66.9889 67.4208H68.4319C68.4943 68.4878 68.6063 70.5983 69.0262 72.0586C69.1926 72.6372 69.05 73.3439 68.4703 73.5065C68.0007 73.6382 67.5123 73.6437 67.0459 73.5027C66.5042 73.3389 66.3727 72.6698 66.5087 72.1204Z" fill="url(#paint62_radial_10552_1155)"/>
<path d="M66.5087 72.1204C66.8453 70.7611 67.0378 68.573 66.9889 67.4208H68.4319C68.4943 68.4878 68.6063 70.5983 69.0262 72.0586C69.1926 72.6372 69.05 73.3439 68.4703 73.5065C68.0007 73.6382 67.5123 73.6437 67.0459 73.5027C66.5042 73.3389 66.3727 72.6698 66.5087 72.1204Z" fill="url(#paint63_radial_10552_1155)"/>
<path d="M70.7152 68.3129C71.9674 69.5445 74.8387 69.0442 73.7149 68.3129C72.1081 67.2672 70.2244 64.919 68.9165 60.1679C68.8684 59.9933 68.7036 59.8691 68.5148 59.8691L66.0698 59.869C65.8608 59.869 65.6849 60.0212 65.6571 60.2194C64.8668 65.842 62.3582 67.437 61.076 68.3129C60.2929 68.8479 64.2433 69.828 64.7833 68.0555C63.9618 70.7519 67.6281 71.0578 67.4197 68.0555C68.5932 71.2058 70.7152 70.1119 70.7152 68.3129Z" fill="url(#paint64_linear_10552_1155)"/>
<path d="M70.7152 68.3129C71.9674 69.5445 74.8387 69.0442 73.7149 68.3129C72.1081 67.2672 70.2244 64.919 68.9165 60.1679C68.8684 59.9933 68.7036 59.8691 68.5148 59.8691L66.0698 59.869C65.8608 59.869 65.6849 60.0212 65.6571 60.2194C64.8668 65.842 62.3582 67.437 61.076 68.3129C60.2929 68.8479 64.2433 69.828 64.7833 68.0555C63.9618 70.7519 67.6281 71.0578 67.4197 68.0555C68.5932 71.2058 70.7152 70.1119 70.7152 68.3129Z" fill="url(#paint65_radial_10552_1155)"/>
<path d="M66.0136 64.1558C64.2879 66.0296 61.4785 65.3056 62.3907 64.6816C63.5957 63.8571 64.9926 62.0838 66.0354 58.6211C66.2368 57.9523 66.8406 57.4757 67.539 57.4757C68.3115 57.4757 68.9529 58.0562 69.1014 58.8143C69.8777 62.7771 71.6883 63.9911 72.6497 64.6816C73.7571 65.4769 70.2251 66.1999 68.8936 64.1558C68.6457 67.059 66.0136 66.3776 66.0136 64.1558Z" fill="url(#paint66_linear_10552_1155)"/>
<path d="M66.0136 64.1558C64.2879 66.0296 61.4785 65.3056 62.3907 64.6816C63.5957 63.8571 64.9926 62.0838 66.0354 58.6211C66.2368 57.9523 66.8406 57.4757 67.539 57.4757C68.3115 57.4757 68.9529 58.0562 69.1014 58.8143C69.8777 62.7771 71.6883 63.9911 72.6497 64.6816C73.7571 65.4769 70.2251 66.1999 68.8936 64.1558C68.6457 67.059 66.0136 66.3776 66.0136 64.1558Z" fill="url(#paint67_radial_10552_1155)"/>
<path d="M66.2066 60.3659C64.7001 62.0017 62.2476 61.3697 63.0439 60.8249C64.0958 60.1052 65.3152 58.5571 66.2256 55.5344C66.4014 54.9506 66.9285 54.5345 67.5381 54.5345C68.2126 54.5345 68.7724 55.0412 68.9021 55.703C69.5798 59.1624 71.1604 60.2222 71.9996 60.8249C72.9664 61.5193 69.8831 62.1504 68.7207 60.3659C68.5043 62.9003 66.2066 62.3055 66.2066 60.3659Z" fill="url(#paint68_linear_10552_1155)"/>
<path d="M66.2066 60.3659C64.7001 62.0017 62.2476 61.3697 63.0439 60.8249C64.0958 60.1052 65.3152 58.5571 66.2256 55.5344C66.4014 54.9506 66.9285 54.5345 67.5381 54.5345C68.2126 54.5345 68.7724 55.0412 68.9021 55.703C69.5798 59.1624 71.1604 60.2222 71.9996 60.8249C72.9664 61.5193 69.8831 62.1504 68.7207 60.3659C68.5043 62.9003 66.2066 62.3055 66.2066 60.3659Z" fill="url(#paint69_radial_10552_1155)"/>
<path d="M66.5005 56.4319C65.3213 57.7124 63.4015 57.2177 64.0248 56.7913C64.9122 56.1841 66.5649 54.3008 67.3201 51.5286C67.3538 51.405 67.4652 51.3174 67.5934 51.3174C67.7352 51.3174 67.8541 51.4245 67.8745 51.5648C68.348 54.8349 70.3271 56.2826 71.0352 56.7913C71.792 57.3348 69.3784 57.8288 68.4685 56.4319C68.2991 58.4158 66.5005 57.9502 66.5005 56.4319Z" fill="url(#paint70_linear_10552_1155)"/>
<path d="M57.2317 78.2584C57.6739 76.6283 57.9311 73.7974 57.869 72.3362H59.6243C59.7035 73.689 59.848 76.4208 60.4141 78.1987C60.5968 78.7724 60.4587 79.4687 59.891 79.6693C59.1866 79.9182 58.4366 79.9329 57.7373 79.6655C57.2087 79.4634 57.0835 78.8046 57.2317 78.2584Z" fill="url(#paint71_linear_10552_1155)"/>
<path d="M57.2317 78.2584C57.6739 76.6283 57.9311 73.7974 57.869 72.3362H59.6243C59.7035 73.689 59.848 76.4208 60.4141 78.1987C60.5968 78.7724 60.4587 79.4687 59.891 79.6693C59.1866 79.9182 58.4366 79.9329 57.7373 79.6655C57.2087 79.4634 57.0835 78.8046 57.2317 78.2584Z" fill="url(#paint72_radial_10552_1155)"/>
<path d="M57.2317 78.2584C57.6739 76.6283 57.9311 73.7974 57.869 72.3362H59.6243C59.7035 73.689 59.848 76.4208 60.4141 78.1987C60.5968 78.7724 60.4587 79.4687 59.891 79.6693C59.1866 79.9182 58.4366 79.9329 57.7373 79.6655C57.2087 79.4634 57.0835 78.8046 57.2317 78.2584Z" fill="url(#paint73_radial_10552_1155)"/>
<path d="M62.4025 73.4216C63.9258 74.9196 67.4184 74.3111 66.0515 73.4216C64.0969 72.1495 61.8055 69.2931 60.2146 63.5139C60.1561 63.3014 59.9556 63.1503 59.7259 63.1503L56.7518 63.1503C56.4976 63.1503 56.2837 63.3354 56.2498 63.5765C55.2884 70.4159 52.237 72.3561 50.6772 73.4216C49.7247 74.0723 54.53 75.2645 55.1869 73.1085C54.1876 76.3884 58.6473 76.7605 58.3938 73.1085C59.8213 76.9405 62.4025 75.61 62.4025 73.4216Z" fill="url(#paint74_linear_10552_1155)"/>
<path d="M62.4025 73.4216C63.9258 74.9196 67.4184 74.3111 66.0515 73.4216C64.0969 72.1495 61.8055 69.2931 60.2146 63.5139C60.1561 63.3014 59.9556 63.1503 59.7259 63.1503L56.7518 63.1503C56.4976 63.1503 56.2837 63.3354 56.2498 63.5765C55.2884 70.4159 52.237 72.3561 50.6772 73.4216C49.7247 74.0723 54.53 75.2645 55.1869 73.1085C54.1876 76.3884 58.6473 76.7605 58.3938 73.1085C59.8213 76.9405 62.4025 75.61 62.4025 73.4216Z" fill="url(#paint75_radial_10552_1155)"/>
<path d="M56.6867 68.3646C54.5876 70.6439 51.1702 69.7634 52.2797 69.0042C53.7456 68.0013 55.4447 65.8442 56.7133 61.6321C56.9582 60.8187 57.6927 60.2389 58.5422 60.2389C59.482 60.2389 60.2621 60.945 60.4428 61.8672C61.3871 66.6876 63.5896 68.1643 64.759 69.0042C66.1061 69.9717 61.8097 70.8511 60.19 68.3646C59.8884 71.8962 56.6867 71.0673 56.6867 68.3646Z" fill="url(#paint76_linear_10552_1155)"/>
<path d="M56.6867 68.3646C54.5876 70.6439 51.1702 69.7634 52.2797 69.0042C53.7456 68.0013 55.4447 65.8442 56.7133 61.6321C56.9582 60.8187 57.6927 60.2389 58.5422 60.2389C59.482 60.2389 60.2621 60.945 60.4428 61.8672C61.3871 66.6876 63.5896 68.1643 64.759 69.0042C66.1061 69.9717 61.8097 70.8511 60.19 68.3646C59.8884 71.8962 56.6867 71.0673 56.6867 68.3646Z" fill="url(#paint77_radial_10552_1155)"/>
<path d="M56.9236 63.7545C55.0912 65.7443 52.1079 64.9756 53.0765 64.3128C54.3561 63.4373 55.8394 61.5543 56.9468 57.8773C57.1606 57.1671 57.8018 56.661 58.5434 56.661C59.3638 56.661 60.0448 57.2774 60.2025 58.0824C61.0268 62.2905 62.9496 63.5796 63.9704 64.3128C65.1464 65.1574 61.3958 65.9251 59.9819 63.7545C59.7186 66.8374 56.9236 66.1139 56.9236 63.7545Z" fill="url(#paint78_linear_10552_1155)"/>
<path d="M56.9236 63.7545C55.0912 65.7443 52.1079 64.9756 53.0765 64.3128C54.3561 63.4373 55.8394 61.5543 56.9468 57.8773C57.1606 57.1671 57.8018 56.661 58.5434 56.661C59.3638 56.661 60.0448 57.2774 60.2025 58.0824C61.0268 62.2905 62.9496 63.5796 63.9704 64.3128C65.1464 65.1574 61.3958 65.9251 59.9819 63.7545C59.7186 66.8374 56.9236 66.1139 56.9236 63.7545Z" fill="url(#paint79_radial_10552_1155)"/>
<path d="M57.2735 58.9693C55.8391 60.5268 53.5038 59.9251 54.262 59.4064C55.3415 58.6678 57.3519 56.377 58.2705 53.0048C58.3114 52.8544 58.4471 52.7479 58.603 52.7479C58.7754 52.7479 58.9201 52.8781 58.9448 53.0488C59.5208 57.0266 61.9282 58.7877 62.7896 59.4064C63.7101 60.0675 60.7743 60.6684 59.6674 58.9693C59.4614 61.3825 57.2735 60.8162 57.2735 58.9693Z" fill="url(#paint80_linear_10552_1155)"/>
<path d="M45.5762 69.8079C33.8936 68.4836 13.2686 79.3469 13.2686 89.5673C19.9032 109.913 106.153 98.7982 106.153 92.5962C106.153 86.3943 57.2589 71.1321 45.5762 69.8079Z" fill="url(#paint81_linear_10552_1155)"/>
<path d="M45.5762 69.8079C33.8936 68.4836 13.2686 79.3469 13.2686 89.5673C19.9032 109.913 106.153 98.7982 106.153 92.5962C106.153 86.3943 57.2589 71.1321 45.5762 69.8079Z" fill="url(#paint82_radial_10552_1155)"/>
<path d="M45.5762 69.8079C33.8936 68.4836 13.2686 79.3469 13.2686 89.5673C19.9032 109.913 106.153 98.7982 106.153 92.5962C106.153 86.3943 57.2589 71.1321 45.5762 69.8079Z" fill="url(#paint83_radial_10552_1155)"/>
<path d="M29.9645 86.2527C30.4265 84.5739 30.6959 81.6227 30.6313 80.1039H32.4446C32.5268 81.5099 32.6775 84.3578 33.2712 86.1934C33.4564 86.7663 33.3189 87.4611 32.7531 87.6671C32.0057 87.9393 31.207 87.956 30.4651 87.6634C29.9386 87.4557 29.8143 86.7984 29.9645 86.2527Z" fill="url(#paint84_linear_10552_1155)"/>
<path d="M29.9645 86.2527C30.4265 84.5739 30.6959 81.6227 30.6313 80.1039H32.4446C32.5268 81.5099 32.6775 84.3578 33.2712 86.1934C33.4564 86.7663 33.3189 87.4611 32.7531 87.6671C32.0057 87.9393 31.207 87.956 30.4651 87.6634C29.9386 87.4557 29.8143 86.7984 29.9645 86.2527Z" fill="url(#paint85_radial_10552_1155)"/>
<path d="M29.9645 86.2527C30.4265 84.5739 30.6959 81.6227 30.6313 80.1039H32.4446C32.5268 81.5099 32.6775 84.3578 33.2712 86.1934C33.4564 86.7663 33.3189 87.4611 32.7531 87.6671C32.0057 87.9393 31.207 87.956 30.4651 87.6634C29.9386 87.4557 29.8143 86.7984 29.9645 86.2527Z" fill="url(#paint86_radial_10552_1155)"/>
<path d="M35.3179 81.2253C36.8914 82.7728 40.4993 82.1443 39.0873 81.2253C37.0681 79.9113 34.7012 76.9606 33.0578 70.9907C32.9974 70.7712 32.7903 70.6151 32.553 70.6151L29.4808 70.6151C29.2182 70.615 28.9971 70.8063 28.9622 71.0553C27.9691 78.1205 24.8169 80.1247 23.2058 81.2253C22.2218 81.8976 27.1857 83.1291 27.8642 80.9019C26.8319 84.2901 31.4388 84.6744 31.1769 80.9019C32.6516 84.8604 35.3179 83.4859 35.3179 81.2253Z" fill="url(#paint87_linear_10552_1155)"/>
<path d="M35.3179 81.2253C36.8914 82.7728 40.4993 82.1443 39.0873 81.2253C37.0681 79.9113 34.7012 76.9606 33.0578 70.9907C32.9974 70.7712 32.7903 70.6151 32.553 70.6151L29.4808 70.6151C29.2182 70.615 28.9971 70.8063 28.9622 71.0553C27.9691 78.1205 24.8169 80.1247 23.2058 81.2253C22.2218 81.8976 27.1857 83.1291 27.8642 80.9019C26.8319 84.2901 31.4388 84.6744 31.1769 80.9019C32.6516 84.8604 35.3179 83.4859 35.3179 81.2253Z" fill="url(#paint88_radial_10552_1155)"/>
<path d="M29.4115 76.0016C27.2432 78.3561 23.713 77.4465 24.8591 76.6623C26.3733 75.6262 28.1286 73.398 29.4389 69.0469C29.692 68.2066 30.4507 67.6077 31.3282 67.6077C32.299 67.6076 33.1049 68.337 33.2915 69.2897C34.2669 74.2692 36.5421 75.7947 37.7501 76.6623C39.1417 77.6617 34.7036 78.5701 33.0304 76.0016C32.7189 79.6497 29.4115 78.7935 29.4115 76.0016Z" fill="url(#paint89_linear_10552_1155)"/>
<path d="M29.4115 76.0016C27.2432 78.3561 23.713 77.4465 24.8591 76.6623C26.3733 75.6262 28.1286 73.398 29.4389 69.0469C29.692 68.2066 30.4507 67.6077 31.3282 67.6077C32.299 67.6076 33.1049 68.337 33.2915 69.2897C34.2669 74.2692 36.5421 75.7947 37.7501 76.6623C39.1417 77.6617 34.7036 78.5701 33.0304 76.0016C32.7189 79.6497 29.4115 78.7935 29.4115 76.0016Z" fill="url(#paint90_radial_10552_1155)"/>
<path d="M29.6574 71.239C27.7645 73.2945 24.6827 72.5004 25.6833 71.8158C27.0051 70.9114 28.5374 68.9662 29.6813 65.1678C29.9022 64.4343 30.5645 63.9115 31.3306 63.9114C32.178 63.9114 32.8815 64.5482 33.0444 65.3798C33.896 69.7267 35.8821 71.0584 36.9367 71.8158C38.1514 72.6883 34.2771 73.4813 32.8165 71.239C32.5446 74.4237 29.6574 73.6763 29.6574 71.239Z" fill="url(#paint91_linear_10552_1155)"/>
<path d="M29.6574 71.239C27.7645 73.2945 24.6827 72.5004 25.6833 71.8158C27.0051 70.9114 28.5374 68.9662 29.6813 65.1678C29.9022 64.4343 30.5645 63.9115 31.3306 63.9114C32.178 63.9114 32.8815 64.5482 33.0444 65.3798C33.896 69.7267 35.8821 71.0584 36.9367 71.8158C38.1514 72.6883 34.2771 73.4813 32.8165 71.239C32.5446 74.4237 29.6574 73.6763 29.6574 71.239Z" fill="url(#paint92_radial_10552_1155)"/>
<path d="M30.0184 66.296C28.5366 67.9049 26.1243 67.2833 26.9075 66.7475C28.0226 65.9845 30.0993 63.6181 31.0482 60.1346C31.0905 59.9793 31.2306 59.8693 31.3917 59.8693C31.5698 59.8693 31.7193 60.0037 31.7448 60.18C32.3398 64.2892 34.8266 66.1084 35.7165 66.7475C36.6674 67.4304 33.6346 68.0512 32.4913 66.296C32.2784 68.7888 30.0184 68.2038 30.0184 66.296Z" fill="url(#paint93_linear_10552_1155)"/>
<path d="M39.8882 89.9461C40.4768 87.9682 40.8246 84.2478 40.7445 82.3629H42.9244C43.0265 84.1063 43.216 87.6939 43.9871 89.8882C44.1867 90.4562 44.0514 91.144 43.4962 91.3769C42.4801 91.8032 41.3706 91.8344 40.3621 91.3734C39.8474 91.1381 39.7267 90.4886 39.8882 89.9461Z" fill="url(#paint94_linear_10552_1155)"/>
<path d="M39.8882 89.9461C40.4768 87.9682 40.8246 84.2478 40.7445 82.3629H42.9244C43.0265 84.1063 43.216 87.6939 43.9871 89.8882C44.1867 90.4562 44.0514 91.144 43.4962 91.3769C42.4801 91.8032 41.3706 91.8344 40.3621 91.3734C39.8474 91.1381 39.7267 90.4886 39.8882 89.9461Z" fill="url(#paint95_radial_10552_1155)"/>
<path d="M39.8882 89.9461C40.4768 87.9682 40.8246 84.2478 40.7445 82.3629H42.9244C43.0265 84.1063 43.216 87.6939 43.9871 89.8882C44.1867 90.4562 44.0514 91.144 43.4962 91.3769C42.4801 91.8032 41.3706 91.8344 40.3621 91.3734C39.8474 91.1381 39.7267 90.4886 39.8882 89.9461Z" fill="url(#paint96_radial_10552_1155)"/>
<path d="M46.3745 83.7108C48.2663 85.5712 52.6038 84.8155 50.9062 83.7108C48.4787 82.131 45.6331 78.5836 43.6573 71.4063C43.5847 71.1425 43.3357 70.9548 43.0505 70.9548L39.3569 70.9548C39.0412 70.9548 38.7755 71.1847 38.7334 71.4841C37.5395 79.978 33.7498 82.3875 31.8128 83.7108C30.6298 84.5189 36.5976 85.9995 37.4134 83.3219C36.1724 87.3953 41.7109 87.8574 41.3961 83.3219C43.1689 88.0809 46.3745 86.4285 46.3745 83.7108Z" fill="url(#paint97_linear_10552_1155)"/>
<path d="M46.3745 83.7108C48.2663 85.5712 52.6038 84.8155 50.9062 83.7108C48.4787 82.131 45.6331 78.5836 43.6573 71.4063C43.5847 71.1425 43.3357 70.9548 43.0505 70.9548L39.3569 70.9548C39.0412 70.9548 38.7755 71.1847 38.7334 71.4841C37.5395 79.978 33.7498 82.3875 31.8128 83.7108C30.6298 84.5189 36.5976 85.9995 37.4134 83.3219C36.1724 87.3953 41.7109 87.8574 41.3961 83.3219C43.1689 88.0809 46.3745 86.4285 46.3745 83.7108Z" fill="url(#paint98_radial_10552_1155)"/>
<path d="M39.2749 77.4306C36.6679 80.2613 32.4238 79.1677 33.8017 78.2249C35.6222 76.9793 37.7324 74.3004 39.3078 69.0695C39.612 68.0592 40.5241 67.3392 41.5792 67.3392C42.7463 67.3392 43.7151 68.216 43.9395 69.3613C45.1122 75.3478 47.8475 77.1818 49.2999 78.2249C50.9728 79.4264 45.6371 80.5186 43.6256 77.4306C43.2511 81.8164 39.2749 80.7871 39.2749 77.4306Z" fill="url(#paint99_linear_10552_1155)"/>
<path d="M39.2749 77.4306C36.6679 80.2613 32.4238 79.1677 33.8017 78.2249C35.6222 76.9793 37.7324 74.3004 39.3078 69.0695C39.612 68.0592 40.5241 67.3392 41.5792 67.3392C42.7463 67.3392 43.7151 68.216 43.9395 69.3613C45.1122 75.3478 47.8475 77.1818 49.2999 78.2249C50.9728 79.4264 45.6371 80.5186 43.6256 77.4306C43.2511 81.8164 39.2749 80.7871 39.2749 77.4306Z" fill="url(#paint100_radial_10552_1155)"/>
<path d="M39.5689 71.7051C37.2932 74.1762 33.5882 73.2215 34.7911 72.3985C36.3803 71.3111 38.2224 68.9726 39.5976 64.4061C39.8632 63.5242 40.6595 62.8956 41.5805 62.8956C42.5993 62.8956 43.4451 63.6611 43.6409 64.6609C44.6647 69.8869 47.0526 71.4879 48.3204 72.3985C49.7808 73.4474 45.1229 74.4008 43.3669 71.7051C43.04 75.5337 39.5689 74.6352 39.5689 71.7051Z" fill="url(#paint101_linear_10552_1155)"/>
<path d="M39.5689 71.7051C37.2932 74.1762 33.5882 73.2215 34.7911 72.3985C36.3803 71.3111 38.2224 68.9726 39.5976 64.4061C39.8632 63.5242 40.6595 62.8956 41.5805 62.8956C42.5993 62.8956 43.4451 63.6611 43.6409 64.6609C44.6647 69.8869 47.0526 71.4879 48.3204 72.3985C49.7808 73.4474 45.1229 74.4008 43.3669 71.7051C43.04 75.5337 39.5689 74.6352 39.5689 71.7051Z" fill="url(#paint102_radial_10552_1155)"/>
<path d="M40.0036 65.7624C38.2222 67.6967 35.322 66.9494 36.2636 66.3052C37.6042 65.3879 40.1009 62.5429 41.2417 58.355C41.2926 58.1682 41.461 58.036 41.6546 58.036C41.8688 58.036 42.0485 58.1977 42.0792 58.4096C42.7945 63.3497 45.7843 65.5368 46.8541 66.3052C47.9973 67.1262 44.3512 67.8725 42.9766 65.7624C42.7207 68.7594 40.0036 68.056 40.0036 65.7624Z" fill="url(#paint103_linear_10552_1155)"/>
<path d="M100.156 67.1097C99.357 63.1169 94.4059 62.5313 92.2764 57.1542V63.7557C92.2764 65.4061 93.8202 67.4824 94.672 65.2996C95.609 67.6421 96.837 66.4886 97.3339 65.6191C98.5406 67.4469 100.794 70.304 100.156 67.1097Z" fill="url(#paint104_linear_10552_1155)"/>
<path d="M100.156 67.1097C99.357 63.1169 94.4059 62.5313 92.2764 57.1542V63.7557C92.2764 65.4061 93.8202 67.4824 94.672 65.2996C95.609 67.6421 96.837 66.4886 97.3339 65.6191C98.5406 67.4469 100.794 70.304 100.156 67.1097Z" fill="url(#paint105_radial_10552_1155)"/>
<path d="M101.659 74.606C100.567 69.5315 95.8102 70.3773 92.9248 63.3998C92.3009 63.3998 90.9907 63.8509 90.7412 65.6551C90.5324 67.1645 91.6768 71.6459 93.6264 69.7429C92.2227 72.2097 94.4062 74.9584 95.576 72.9145C95.1861 75.4517 97.5255 77.5661 98.6953 75.6632C98.1494 77.8481 102.751 79.6805 101.659 74.606Z" fill="url(#paint106_linear_10552_1155)"/>
<path d="M101.659 74.606C100.567 69.5315 95.8102 70.3773 92.9248 63.3998C92.3009 63.3998 90.9907 63.8509 90.7412 65.6551C90.5324 67.1645 91.6768 71.6459 93.6264 69.7429C92.2227 72.2097 94.4062 74.9584 95.576 72.9145C95.1861 75.4517 97.5255 77.5661 98.6953 75.6632C98.1494 77.8481 102.751 79.6805 101.659 74.606Z" fill="url(#paint107_radial_10552_1155)"/>
<path d="M89.2646 94.5669C91.3199 87.4227 91.1257 64.6822 90.7718 54.2049H92.6898C92.8122 66.5579 93.4483 91.9245 95.0141 94.5669C92.4696 96.3284 90.1209 95.3008 89.2646 94.5669Z" fill="url(#paint108_radial_10552_1155)"/>
<path d="M85.5982 80.302C83.2945 82.1936 81.1016 83.4245 80.5255 86.3053C79.9492 89.1861 84.1803 87.3495 84.8342 84.5548C84.8342 85.8306 87.9775 86.7517 88.7575 84.084C89.7652 86.6663 91.6705 86.0195 92.2883 84.084C92.906 86.0195 94.3305 86.6663 95.3383 84.084C96.7192 87.5363 98.5292 85.8363 99.2615 84.5548C101.04 87.2487 104.362 91.4595 103.42 86.7517C102.844 83.8709 100.801 82.1936 98.4975 80.302C96.3218 78.5156 93.9134 76.5381 92.2883 73.1754L91.8075 73.1754C90.1823 76.5381 87.774 78.5156 85.5982 80.302Z" fill="url(#paint109_linear_10552_1155)"/>
<path d="M85.5982 80.302C83.2945 82.1936 81.1016 83.4245 80.5255 86.3053C79.9492 89.1861 84.1803 87.3495 84.8342 84.5548C84.8342 85.8306 87.9775 86.7517 88.7575 84.084C89.7652 86.6663 91.6705 86.0195 92.2883 84.084C92.906 86.0195 94.3305 86.6663 95.3383 84.084C96.7192 87.5363 98.5292 85.8363 99.2615 84.5548C101.04 87.2487 104.362 91.4595 103.42 86.7517C102.844 83.8709 100.801 82.1936 98.4975 80.302C96.3218 78.5156 93.9134 76.5381 92.2883 73.1754L91.8075 73.1754C90.1823 76.5381 87.774 78.5156 85.5982 80.302Z" fill="url(#paint110_radial_10552_1155)"/>
<path d="M84.9849 64.2176C85.7303 60.3845 88.9778 61.0234 90.9476 55.7528C91.3735 55.7528 92.268 56.0935 92.4383 57.4564C92.5808 58.5965 91.7996 61.9816 90.4686 60.5442C91.4269 62.4075 89.9363 64.4838 89.1377 62.9399C89.4039 64.8565 87.8068 66.4536 87.0082 65.0162C87.3808 66.6666 84.2396 68.0508 84.9849 64.2176Z" fill="url(#paint111_linear_10552_1155)"/>
<path d="M84.9849 64.2176C85.7303 60.3845 88.9778 61.0234 90.9476 55.7528C91.3735 55.7528 92.268 56.0935 92.4383 57.4564C92.5808 58.5965 91.7996 61.9816 90.4686 60.5442C91.4269 62.4075 89.9363 64.4838 89.1377 62.9399C89.4039 64.8565 87.8068 66.4536 87.0082 65.0162C87.3808 66.6666 84.2396 68.0508 84.9849 64.2176Z" fill="url(#paint112_radial_10552_1155)"/>
<path d="M97.1742 59.3371C96.4821 55.8234 93.3365 56.797 91.6962 53.204L91.3713 55.3975C91.1051 57.6335 92.5425 58.858 93.2879 57.6335C93.0217 58.858 94.2994 60.6681 95.3641 58.858C95.2812 61.0019 97.8663 62.8508 97.1742 59.3371Z" fill="url(#paint113_linear_10552_1155)"/>
<path d="M97.1742 59.3371C96.4821 55.8234 93.3365 56.797 91.6962 53.204L91.3713 55.3975C91.1051 57.6335 92.5425 58.858 93.2879 57.6335C93.0217 58.858 94.2994 60.6681 95.3641 58.858C95.2812 61.0019 97.8663 62.8508 97.1742 59.3371Z" fill="url(#paint114_radial_10552_1155)"/>
<path d="M83.0846 75.0523C84.0636 70.0821 88.5131 71.4593 90.8334 66.3768L91.293 69.4797C91.6695 72.6425 89.6363 74.3746 88.5819 72.6425C88.9585 74.3746 87.1511 76.935 85.645 74.3746C85.7623 77.4073 82.1056 80.0226 83.0846 75.0523Z" fill="url(#paint115_linear_10552_1155)"/>
<path d="M83.0846 75.0523C84.0636 70.0821 88.5131 71.4593 90.8334 66.3768L91.293 69.4797C91.6695 72.6425 89.6363 74.3746 88.5819 72.6425C88.9585 74.3746 87.1511 76.935 85.645 74.3746C85.7623 77.4073 82.1056 80.0226 83.0846 75.0523Z" fill="url(#paint116_radial_10552_1155)"/>
<path d="M94.2077 81.0135C95.7933 80.7377 96.0692 79.0143 96.0692 76.5326C96.0692 76.5326 96.5495 78.1854 97.586 77.9803C98.6224 77.7752 97.2892 72.1895 93.3804 72.1895C89.4715 72.1895 87.8652 76.5326 89.0372 77.1531C89.7035 77.5058 90.0147 77.0205 90.139 76.4793C90.0696 77.53 90.2032 78.9003 91.1054 78.9454C92.2084 79.0005 92.5761 77.3599 92.622 76.5326C92.622 78.1182 92.9392 81.2341 94.2077 81.0135Z" fill="url(#paint117_linear_10552_1155)"/>
<path d="M94.2077 81.0135C95.7933 80.7377 96.0692 79.0143 96.0692 76.5326C96.0692 76.5326 96.5495 78.1854 97.586 77.9803C98.6224 77.7752 97.2892 72.1895 93.3804 72.1895C89.4715 72.1895 87.8652 76.5326 89.0372 77.1531C89.7035 77.5058 90.0147 77.0205 90.139 76.4793C90.0696 77.53 90.2032 78.9003 91.1054 78.9454C92.2084 79.0005 92.5761 77.3599 92.622 76.5326C92.622 78.1182 92.9392 81.2341 94.2077 81.0135Z" fill="url(#paint118_radial_10552_1155)"/>
<path d="M89.6697 70.6237C88.4452 70.4107 88.2321 69.0798 88.2321 67.1632C88.2321 67.1632 87.8612 68.4396 87.0607 68.2812C86.2603 68.1228 87.2899 63.8091 90.3086 63.8091C93.3273 63.8091 94.5678 67.1632 93.6627 67.6424C93.1481 67.9148 92.9078 67.54 92.8119 67.122C92.8654 67.9335 92.7623 68.9917 92.0655 69.0265C91.2137 69.0691 90.9297 67.8021 90.8942 67.1632C90.8942 68.3877 90.6493 70.794 89.6697 70.6237Z" fill="url(#paint119_linear_10552_1155)"/>
<path d="M89.6697 70.6237C88.4452 70.4107 88.2321 69.0798 88.2321 67.1632C88.2321 67.1632 87.8612 68.4396 87.0607 68.2812C86.2603 68.1228 87.2899 63.8091 90.3086 63.8091C93.3273 63.8091 94.5678 67.1632 93.6627 67.6424C93.1481 67.9148 92.9078 67.54 92.8119 67.122C92.8654 67.9335 92.7623 68.9917 92.0655 69.0265C91.2137 69.0691 90.9297 67.8021 90.8942 67.1632C90.8942 68.3877 90.6493 70.794 89.6697 70.6237Z" fill="url(#paint120_radial_10552_1155)"/>
<path d="M86.543 57.2658C87.6365 56.6669 90.136 54.3444 91.3858 49.8453C92.948 55.0005 91.3858 56.7971 90.3703 56.0941C89.9537 57.2918 88.6051 59.2029 86.543 57.2658Z" fill="url(#paint121_linear_10552_1155)"/>
<path d="M86.543 57.2658C87.6365 56.6669 90.136 54.3444 91.3858 49.8453C92.948 55.0005 91.3858 56.7971 90.3703 56.0941C89.9537 57.2918 88.6051 59.2029 86.543 57.2658Z" fill="url(#paint122_radial_10552_1155)"/>
<path d="M94.8633 55.1598C94.0801 54.7309 92.2899 53.0676 91.3949 49.8453C90.276 53.5375 91.3949 54.8242 92.1221 54.3207C92.4205 55.1785 93.3864 56.5472 94.8633 55.1598Z" fill="url(#paint123_linear_10552_1155)"/>
<path d="M94.8633 55.1598C94.0801 54.7309 92.2899 53.0676 91.3949 49.8453C90.276 53.5375 91.3949 54.8242 92.1221 54.3207C92.4205 55.1785 93.3864 56.5472 94.8633 55.1598Z" fill="url(#paint124_radial_10552_1155)"/>
<path d="M125.602 63.8233C126.192 60.8694 129.855 60.4361 131.431 56.4582V61.342C131.431 62.563 130.289 64.099 129.658 62.4842C128.965 64.2172 128.057 63.3638 127.689 62.7205C126.796 64.0727 125.129 66.1865 125.602 63.8233Z" fill="url(#paint125_linear_10552_1155)"/>
<path d="M125.602 63.8233C126.192 60.8694 129.855 60.4361 131.431 56.4582V61.342C131.431 62.563 130.289 64.099 129.658 62.4842C128.965 64.2172 128.057 63.3638 127.689 62.7205C126.796 64.0727 125.129 66.1865 125.602 63.8233Z" fill="url(#paint126_radial_10552_1155)"/>
<path d="M124.493 69.3691C125.3 65.6149 128.82 66.2406 130.954 61.0787C131.416 61.0787 132.385 61.4124 132.57 62.7472C132.724 63.8638 131.877 67.1791 130.435 65.7713C131.474 67.5963 129.858 69.6298 128.993 68.1177C129.281 69.9947 127.551 71.5589 126.685 70.1511C127.089 71.7675 123.685 73.1232 124.493 69.3691Z" fill="url(#paint127_linear_10552_1155)"/>
<path d="M124.493 69.3691C125.3 65.6149 128.82 66.2406 130.954 61.0787C131.416 61.0787 132.385 61.4124 132.57 62.7472C132.724 63.8638 131.877 67.1791 130.435 65.7713C131.474 67.5963 129.858 69.6298 128.993 68.1177C129.281 69.9947 127.551 71.5589 126.685 70.1511C127.089 71.7675 123.685 73.1232 124.493 69.3691Z" fill="url(#paint128_radial_10552_1155)"/>
<path d="M133.657 84.1361C132.137 78.8508 132.28 62.0273 132.542 54.2761H131.123C131.033 63.4149 130.562 82.1813 129.404 84.1361C131.286 85.4393 133.024 84.6791 133.657 84.1361Z" fill="url(#paint129_radial_10552_1155)"/>
<path d="M136.372 73.583C138.077 74.9824 139.699 75.893 140.125 78.0243C140.552 80.1555 137.421 78.7968 136.938 76.7292C136.938 77.6731 134.612 78.3546 134.035 76.3809C133.29 78.2913 131.88 77.8129 131.423 76.3809C130.966 77.8129 129.912 78.2913 129.167 76.3809C128.145 78.935 126.806 77.6773 126.264 76.7292C124.948 78.7222 122.491 81.8374 123.188 78.3546C123.614 76.2233 125.125 74.9824 126.829 73.583C128.439 72.2614 130.221 70.7985 131.423 68.3107L131.779 68.3107C132.981 70.7985 134.763 72.2614 136.372 73.583Z" fill="url(#paint130_linear_10552_1155)"/>
<path d="M136.372 73.583C138.077 74.9824 139.699 75.893 140.125 78.0243C140.552 80.1555 137.421 78.7968 136.938 76.7292C136.938 77.6731 134.612 78.3546 134.035 76.3809C133.29 78.2913 131.88 77.8129 131.423 76.3809C130.966 77.8129 129.912 78.2913 129.167 76.3809C128.145 78.935 126.806 77.6773 126.264 76.7292C124.948 78.7222 122.491 81.8374 123.188 78.3546C123.614 76.2233 125.125 74.9824 126.829 73.583C128.439 72.2614 130.221 70.7985 131.423 68.3107L131.779 68.3107C132.981 70.7985 134.763 72.2614 136.372 73.583Z" fill="url(#paint131_radial_10552_1155)"/>
<path d="M136.826 61.6836C136.275 58.8478 133.872 59.3204 132.415 55.4213C132.1 55.4213 131.438 55.6733 131.312 56.6816C131.207 57.5251 131.785 60.0294 132.769 58.966C132.06 60.3445 133.163 61.8805 133.754 60.7383C133.557 62.1562 134.739 63.3377 135.329 62.2744C135.054 63.4953 137.378 64.5194 136.826 61.6836Z" fill="url(#paint132_linear_10552_1155)"/>
<path d="M136.826 61.6836C136.275 58.8478 133.872 59.3204 132.415 55.4213C132.1 55.4213 131.438 55.6733 131.312 56.6816C131.207 57.5251 131.785 60.0294 132.769 58.966C132.06 60.3445 133.163 61.8805 133.754 60.7383C133.557 62.1562 134.739 63.3377 135.329 62.2744C135.054 63.4953 137.378 64.5194 136.826 61.6836Z" fill="url(#paint133_radial_10552_1155)"/>
<path d="M127.807 58.0731C128.319 55.4737 130.646 56.194 131.86 53.5358L132.1 55.1586C132.297 56.8128 131.234 57.7187 130.682 56.8128C130.879 57.7187 129.934 59.0578 129.146 57.7187C129.207 59.3048 127.295 60.6726 127.807 58.0731Z" fill="url(#paint134_linear_10552_1155)"/>
<path d="M127.807 58.0731C128.319 55.4737 130.646 56.194 131.86 53.5358L132.1 55.1586C132.297 56.8128 131.234 57.7187 130.682 56.8128C130.879 57.7187 129.934 59.0578 129.146 57.7187C129.207 59.3048 127.295 60.6726 127.807 58.0731Z" fill="url(#paint135_radial_10552_1155)"/>
<path d="M138.231 69.6991C137.506 66.0221 134.215 67.041 132.498 63.2809L132.158 65.5764C131.879 67.9163 133.384 69.1977 134.164 67.9163C133.885 69.1977 135.222 71.0919 136.336 69.1977C136.25 71.4413 138.955 73.3761 138.231 69.6991Z" fill="url(#paint136_linear_10552_1155)"/>
<path d="M138.231 69.6991C137.506 66.0221 134.215 67.041 132.498 63.2809L132.158 65.5764C131.879 67.9163 133.384 69.1977 134.164 67.9163C133.885 69.1977 135.222 71.0919 136.336 69.1977C136.25 71.4413 138.955 73.3761 138.231 69.6991Z" fill="url(#paint137_radial_10552_1155)"/>
<path d="M130.006 74.1094C128.833 73.9054 128.629 72.6304 128.629 70.7945C128.629 70.7945 128.274 72.0172 127.507 71.8655C126.74 71.7137 127.726 67.5814 130.618 67.5814C133.51 67.5814 134.698 70.7945 133.831 71.2535C133.338 71.5144 133.108 71.1554 133.016 70.755C133.067 71.5323 132.969 72.5461 132.301 72.5794C131.485 72.6202 131.213 71.4065 131.179 70.7945C131.179 71.9675 130.945 74.2726 130.006 74.1094Z" fill="url(#paint138_linear_10552_1155)"/>
<path d="M130.006 74.1094C128.833 73.9054 128.629 72.6304 128.629 70.7945C128.629 70.7945 128.274 72.0172 127.507 71.8655C126.74 71.7137 127.726 67.5814 130.618 67.5814C133.51 67.5814 134.698 70.7945 133.831 71.2535C133.338 71.5144 133.108 71.1554 133.016 70.755C133.067 71.5323 132.969 72.5461 132.301 72.5794C131.485 72.6202 131.213 71.4065 131.179 70.7945C131.179 71.9675 130.945 74.2726 130.006 74.1094Z" fill="url(#paint139_radial_10552_1155)"/>
<path d="M133.359 66.4229C134.265 66.2653 134.423 65.2807 134.423 63.8628C134.423 63.8628 134.697 64.8071 135.289 64.6899C135.882 64.5728 135.12 61.3815 132.887 61.3815C130.653 61.3815 129.736 63.8628 130.405 64.2173C130.786 64.4188 130.964 64.1416 131.035 63.8324C130.995 64.4327 131.071 65.2155 131.587 65.2413C132.217 65.2728 132.427 64.3355 132.453 63.8628C132.453 64.7687 132.635 66.5489 133.359 66.4229Z" fill="url(#paint140_linear_10552_1155)"/>
<path d="M133.359 66.4229C134.265 66.2653 134.423 65.2807 134.423 63.8628C134.423 63.8628 134.697 64.8071 135.289 64.6899C135.882 64.5728 135.12 61.3815 132.887 61.3815C130.653 61.3815 129.736 63.8628 130.405 64.2173C130.786 64.4188 130.964 64.1416 131.035 63.8324C130.995 64.4327 131.071 65.2155 131.587 65.2413C132.217 65.2728 132.427 64.3355 132.453 63.8628C132.453 64.7687 132.635 66.5489 133.359 66.4229Z" fill="url(#paint141_radial_10552_1155)"/>
<path d="M135.677 56.5406C134.868 56.0976 133.019 54.3794 132.094 51.0509C130.938 54.8648 132.094 56.1939 132.845 55.6738C133.153 56.5599 134.151 57.9737 135.677 56.5406Z" fill="url(#paint142_linear_10552_1155)"/>
<path d="M135.677 56.5406C134.868 56.0976 133.019 54.3794 132.094 51.0509C130.938 54.8648 132.094 56.1939 132.845 55.6738C133.153 56.5599 134.151 57.9737 135.677 56.5406Z" fill="url(#paint143_radial_10552_1155)"/>
<path d="M129.519 54.9826C130.098 54.6653 131.422 53.4348 132.085 51.0509C132.912 53.7824 132.085 54.7343 131.546 54.3618C131.326 54.9964 130.611 56.009 129.519 54.9826Z" fill="url(#paint144_linear_10552_1155)"/>
<path d="M129.519 54.9826C130.098 54.6653 131.422 53.4348 132.085 51.0509C132.912 53.7824 132.085 54.7343 131.546 54.3618C131.326 54.9964 130.611 56.009 129.519 54.9826Z" fill="url(#paint145_radial_10552_1155)"/>
<defs>
<radialGradient id="paint0_radial_10552_1155" cx="0" cy="0" r="1" gradientTransform="matrix(177.88 1.50596 1.04048 -84.6908 115.875 62.4711)" gradientUnits="userSpaceOnUse">
<stop offset="0.270752" stop-color="#ADCBD0"/>
<stop offset="0.71008" stop-color="#CAECE5"/>
</radialGradient>
<radialGradient id="paint1_radial_10552_1155" cx="0" cy="0" r="1" gradientTransform="matrix(175.314 4.85372 -2.21067 86.4123 46.7314 57.1153)" gradientUnits="userSpaceOnUse">
<stop offset="0.00953819" stop-color="#8A77A7"/>
<stop offset="1" stop-color="#D9F1FF" stop-opacity="0"/>
</radialGradient>
<radialGradient id="paint2_radial_10552_1155" cx="0" cy="0" r="1" gradientUnits="userSpaceOnUse" gradientTransform="translate(66.6148 40.8333) rotate(-8.73469) scale(74.0628 35.6633)">
<stop stop-color="#2B6275"/>
<stop offset="1" stop-color="#2B6275" stop-opacity="0"/>
</radialGradient>
<radialGradient id="paint3_radial_10552_1155" cx="0" cy="0" r="1" gradientTransform="matrix(53.6538 -2.88423 1.73238 32.2181 118.111 27.8401)" gradientUnits="userSpaceOnUse">
<stop offset="0.29078" stop-color="white"/>
<stop offset="1" stop-color="white" stop-opacity="0"/>
</radialGradient>
<radialGradient id="paint4_radial_10552_1155" cx="0" cy="0" r="1" gradientTransform="matrix(-39.4558 -7.69302 6.05215 -31.0432 97.6855 30.086)" gradientUnits="userSpaceOnUse">
<stop offset="0.29078" stop-color="white"/>
<stop offset="1" stop-color="white" stop-opacity="0"/>
</radialGradient>
<linearGradient id="paint5_linear_10552_1155" x1="79.6692" y1="94.2583" x2="0.896396" y2="7.87592" gradientUnits="userSpaceOnUse">
<stop stop-color="#C78444"/>
<stop offset="1" stop-color="#F7BC73"/>
</linearGradient>
<radialGradient id="paint6_radial_10552_1155" cx="0" cy="0" r="1" gradientUnits="userSpaceOnUse" gradientTransform="translate(97.2393 29.8806) rotate(-75.5791) scale(112.216 21.3491)">
<stop stop-color="#0D1240"/>
<stop offset="1" stop-color="#CF6149" stop-opacity="0"/>
</radialGradient>
<radialGradient id="paint7_radial_10552_1155" cx="0" cy="0" r="1" gradientUnits="userSpaceOnUse" gradientTransform="translate(20.2482 40.0091) rotate(-75.6374) scale(81.6887 17.1247)">
<stop offset="0.0989246" stop-color="#FFD291"/>
<stop offset="0.90141" stop-color="#FFA23E" stop-opacity="0"/>
</radialGradient>
<linearGradient id="paint8_linear_10552_1155" x1="134.993" y1="0.919934" x2="225.424" y2="165.393" gradientUnits="userSpaceOnUse">
<stop offset="0.0384615" stop-color="#94C7BA"/>
<stop offset="1" stop-color="#68A4B8"/>
</linearGradient>
<linearGradient id="paint9_linear_10552_1155" x1="113.567" y1="72.6923" x2="142.276" y2="141.597" gradientUnits="userSpaceOnUse">
<stop stop-color="#084E95" stop-opacity="0"/>
<stop offset="1" stop-color="#416182"/>
</linearGradient>
<linearGradient id="paint10_linear_10552_1155" x1="141.591" y1="87.9876" x2="92.8538" y2="23.9489" gradientUnits="userSpaceOnUse">
<stop stop-color="#C78444"/>
<stop offset="1" stop-color="#F7BC73"/>
</linearGradient>
<radialGradient id="paint11_radial_10552_1155" cx="0" cy="0" r="1" gradientUnits="userSpaceOnUse" gradientTransform="translate(95.284 50.5269) rotate(-71.1514) scale(50.5066 11.4144)">
<stop offset="0.0989246" stop-color="#FFD291"/>
<stop offset="0.90141" stop-color="#FFA23E" stop-opacity="0"/>
</radialGradient>
<radialGradient id="paint12_radial_10552_1155" cx="0" cy="0" r="1" gradientUnits="userSpaceOnUse" gradientTransform="translate(155.048 23.3822) rotate(-95.1) scale(71.6898 27.8785)">
<stop stop-color="#0D1240"/>
<stop offset="1" stop-color="#CF6149" stop-opacity="0"/>
</radialGradient>
<radialGradient id="paint13_radial_10552_1155" cx="0" cy="0" r="1" gradientUnits="userSpaceOnUse" gradientTransform="translate(129.407 30.1828) rotate(-78.6901) scale(49.1247 14.6232)">
<stop stop-color="#0D1240"/>
<stop offset="1" stop-color="#CF6149" stop-opacity="0"/>
</radialGradient>
<radialGradient id="paint14_radial_10552_1155" cx="0" cy="0" r="1" gradientTransform="matrix(10.1925 -32.7511 2.79165 41.9599 105.913 42.7706)" gradientUnits="userSpaceOnUse">
<stop offset="0.370267" stop-color="#FFD291" stop-opacity="0.5"/>
<stop offset="0.90141" stop-color="#FFA23E" stop-opacity="0"/>
</radialGradient>
<radialGradient id="paint15_radial_10552_1155" cx="0" cy="0" r="1" gradientUnits="userSpaceOnUse" gradientTransform="translate(120.623 35.8499) rotate(-89.1533) scale(57.5277 11.8955)">
<stop stop-color="#0D1240"/>
<stop offset="1" stop-color="#CF6149" stop-opacity="0"/>
</radialGradient>
<linearGradient id="paint16_linear_10552_1155" x1="214.999" y1="128.271" x2="92.5855" y2="31.7928" gradientUnits="userSpaceOnUse">
<stop stop-color="#C78444"/>
<stop offset="1" stop-color="#F7BC73"/>
</linearGradient>
<radialGradient id="paint17_radial_10552_1155" cx="0" cy="0" r="1" gradientUnits="userSpaceOnUse" gradientTransform="translate(145.842 34.9999) rotate(-78.428) scale(121.479 28.0137)">
<stop offset="0.0989246" stop-color="#FFD291"/>
<stop offset="0.90141" stop-color="#FFA23E" stop-opacity="0"/>
</radialGradient>
<radialGradient id="paint18_radial_10552_1155" cx="0" cy="0" r="1" gradientUnits="userSpaceOnUse" gradientTransform="translate(195.429 77.5034) rotate(-90.6662) scale(97.4814 19.5404)">
<stop stop-color="#0D1240" stop-opacity="0.5"/>
<stop offset="1" stop-color="#CF6149" stop-opacity="0"/>
</radialGradient>
<radialGradient id="paint19_radial_10552_1155" cx="0" cy="0" r="1" gradientUnits="userSpaceOnUse" gradientTransform="translate(220.673 19.9038) rotate(-93.9068) scale(59.2724 6.28582)">
<stop stop-color="#0D1240" stop-opacity="0.5"/>
<stop offset="1" stop-color="#CF6149" stop-opacity="0"/>
</radialGradient>
<radialGradient id="paint20_radial_10552_1155" cx="0" cy="0" r="1" gradientTransform="matrix(4.35244 -74.6305 23.8651 1.39235 39.6975 36.9982)" gradientUnits="userSpaceOnUse">
<stop offset="0.370267" stop-color="#FFD291" stop-opacity="0.5"/>
<stop offset="0.90141" stop-color="#FFA23E" stop-opacity="0"/>
</radialGradient>
<radialGradient id="paint21_radial_10552_1155" cx="0" cy="0" r="1" gradientTransform="matrix(0.821084 -90.6103 14.7495 0.133707 62.679 -7.89637)" gradientUnits="userSpaceOnUse">
<stop stop-color="#0D1240"/>
<stop offset="1" stop-color="#CF6149" stop-opacity="0"/>
</radialGradient>
<radialGradient id="paint22_radial_10552_1155" cx="0" cy="0" r="1" gradientTransform="matrix(4.15746 -87.5935 19.8576 1.00533 53.973 29.4452)" gradientUnits="userSpaceOnUse">
<stop stop-color="#0D1240"/>
<stop offset="1" stop-color="#CF6149" stop-opacity="0"/>
</radialGradient>
<radialGradient id="paint23_radial_10552_1155" cx="0" cy="0" r="1" gradientUnits="userSpaceOnUse" gradientTransform="translate(29.5573 33.1658) rotate(-92.2739) scale(53.7958 8.63892)">
<stop offset="0.370267" stop-color="#FFD291" stop-opacity="0.5"/>
<stop offset="0.90141" stop-color="#FFA23E" stop-opacity="0"/>
</radialGradient>
<radialGradient id="paint24_radial_10552_1155" cx="0" cy="0" r="1" gradientUnits="userSpaceOnUse" gradientTransform="translate(130.458 45.1376) rotate(-88.4871) scale(35.3689 9.55827)">
<stop offset="0.370267" stop-color="#FFD291" stop-opacity="0.5"/>
<stop offset="0.90141" stop-color="#FFA23E" stop-opacity="0"/>
</radialGradient>
<radialGradient id="paint25_radial_10552_1155" cx="0" cy="0" r="1" gradientTransform="matrix(2.38489 -48.8725 8.36242 0.296277 147.353 37.0599)" gradientUnits="userSpaceOnUse">
<stop stop-color="#0D1240"/>
<stop offset="1" stop-color="#CF6149" stop-opacity="0"/>
</radialGradient>
<radialGradient id="paint26_radial_10552_1155" cx="0" cy="0" r="1" gradientUnits="userSpaceOnUse" gradientTransform="translate(201.946 -10.6189) rotate(-87.619) scale(136.412 19.8885)">
<stop stop-color="#0D1240"/>
<stop offset="1" stop-color="#CF6149" stop-opacity="0"/>
</radialGradient>
<radialGradient id="paint27_radial_10552_1155" cx="0" cy="0" r="1" gradientTransform="matrix(8.75501 -114.679 48.0051 2.13951 152.163 37.5637)" gradientUnits="userSpaceOnUse">
<stop offset="0.370267" stop-color="#FFD291" stop-opacity="0.5"/>
<stop offset="0.90141" stop-color="#FFA23E" stop-opacity="0"/>
</radialGradient>
<radialGradient id="paint28_radial_10552_1155" cx="0" cy="0" r="1" gradientUnits="userSpaceOnUse" gradientTransform="translate(182.961 15.7316) rotate(-87.1936) scale(144.686 33.8761)">
<stop stop-color="#0D1240"/>
<stop offset="1" stop-color="#CF6149" stop-opacity="0"/>
</radialGradient>
<linearGradient id="paint29_linear_10552_1155" x1="208.222" y1="123.247" x2="167.145" y2="19.2557" gradientUnits="userSpaceOnUse">
<stop stop-color="#C78444"/>
<stop offset="1" stop-color="#F7BC73"/>
</linearGradient>
<radialGradient id="paint30_radial_10552_1155" cx="0" cy="0" r="1" gradientUnits="userSpaceOnUse" gradientTransform="translate(100.963 85.6312) scale(62.5962 22.6035)">
<stop offset="0.496347" stop-color="#FFD291" stop-opacity="0.8"/>
<stop offset="0.90141" stop-color="#FFA23E" stop-opacity="0"/>
</radialGradient>
<radialGradient id="paint31_radial_10552_1155" cx="0" cy="0" r="1" gradientUnits="userSpaceOnUse" gradientTransform="translate(199.617 56.5385) rotate(16.8016) scale(92.808 54.9626)">
<stop stop-color="#0D1240"/>
<stop offset="1" stop-color="#CF6149" stop-opacity="0"/>
</radialGradient>
<radialGradient id="paint32_radial_10552_1155" cx="0" cy="0" r="1" gradientUnits="userSpaceOnUse" gradientTransform="translate(175.098 71.8269) rotate(32.7352) scale(28.8057 20.2412)">
<stop stop-color="#0D1240"/>
<stop offset="1" stop-color="#CF6149" stop-opacity="0"/>
</radialGradient>
<linearGradient id="paint33_linear_10552_1155" x1="190.739" y1="123.695" x2="187.312" y2="84.6048" gradientUnits="userSpaceOnUse">
<stop stop-color="#C78444"/>
<stop offset="1" stop-color="#F7BC73"/>
</linearGradient>
<radialGradient id="paint34_radial_10552_1155" cx="0" cy="0" r="1" gradientUnits="userSpaceOnUse" gradientTransform="translate(128.366 109.615) rotate(1.26474) scale(117.655 10.3004)">
<stop stop-color="#FCCA8F"/>
<stop offset="1" stop-color="#FCCA8F" stop-opacity="0"/>
</radialGradient>
<linearGradient id="paint35_linear_10552_1155" x1="180.577" y1="98.9423" x2="184.615" y2="77.5962" gradientUnits="userSpaceOnUse">
<stop stop-color="#C78444" stop-opacity="0"/>
<stop offset="0.605769" stop-color="#C37D49"/>
</linearGradient>
<radialGradient id="paint36_radial_10552_1155" cx="0" cy="0" r="1" gradientUnits="userSpaceOnUse" gradientTransform="translate(228.173 69.7255) rotate(148.442) scale(45.4348 35.7671)">
<stop stop-color="#2F540A"/>
<stop offset="0.518736" stop-color="#646E0F" stop-opacity="0.621072"/>
<stop offset="0.803979" stop-color="#BA9916" stop-opacity="0"/>
</radialGradient>
<radialGradient id="paint37_radial_10552_1155" cx="0" cy="0" r="1" gradientUnits="userSpaceOnUse" gradientTransform="translate(197.884 69.7255) rotate(160.767) scale(44.9104 27.7279)">
<stop offset="0.370267" stop-color="#FFD291" stop-opacity="0.8"/>
<stop offset="0.90141" stop-color="#FFA23E" stop-opacity="0"/>
</radialGradient>
<linearGradient id="paint38_linear_10552_1155" x1="85.4046" y1="102.308" x2="52.8726" y2="26.8111" gradientUnits="userSpaceOnUse">
<stop stop-color="#C78444"/>
<stop offset="1" stop-color="#F7BC73"/>
</linearGradient>
<radialGradient id="paint39_radial_10552_1155" cx="0" cy="0" r="1" gradientUnits="userSpaceOnUse" gradientTransform="translate(35.4801 50.4811) rotate(11.2357) scale(87.3472 33.027)">
<stop stop-color="#BA9916" stop-opacity="0"/>
<stop offset="1" stop-color="#2F540A"/>
</radialGradient>
<radialGradient id="paint40_radial_10552_1155" cx="0" cy="0" r="1" gradientUnits="userSpaceOnUse" gradientTransform="translate(61.2213 58.385) rotate(22.3599) scale(53.7518 12.7072)">
<stop stop-color="#FCCA8F"/>
<stop offset="1" stop-color="#FCCA8F" stop-opacity="0"/>
</radialGradient>
<linearGradient id="paint41_linear_10552_1155" x1="76.212" y1="76.5173" x2="80.1944" y2="77.4504" gradientUnits="userSpaceOnUse">
<stop stop-color="#A5742B"/>
<stop offset="1" stop-color="#714013"/>
</linearGradient>
<radialGradient id="paint42_radial_10552_1155" cx="0" cy="0" r="1" gradientUnits="userSpaceOnUse" gradientTransform="translate(75.3974 78.0491) rotate(90) scale(5.2054 2.72715)">
<stop stop-color="#FFAB5E"/>
<stop offset="1" stop-color="#FFAB5E" stop-opacity="0"/>
</radialGradient>
<radialGradient id="paint43_radial_10552_1155" cx="0" cy="0" r="1" gradientTransform="matrix(-0.3421 1.95937 -2.64014 -0.551116 77.3686 75.9473)" gradientUnits="userSpaceOnUse">
<stop stop-color="#450C3C"/>
<stop offset="1" stop-color="#450C3C" stop-opacity="0"/>
</radialGradient>
<linearGradient id="paint44_linear_10552_1155" x1="69.0596" y1="75.8915" x2="82.8759" y2="75.8915" gradientUnits="userSpaceOnUse">
<stop offset="0.0664122" stop-color="#7F7064"/>
<stop offset="0.552885" stop-color="#426428"/>
<stop offset="1" stop-color="#0F2E0A"/>
</linearGradient>
<radialGradient id="paint45_radial_10552_1155" cx="0" cy="0" r="1" gradientTransform="matrix(9.0931 1.14282 -0.769057 5.60061 76.9644 72.5076)" gradientUnits="userSpaceOnUse">
<stop offset="0.327605" stop-color="#051E04"/>
<stop offset="1" stop-color="#051E04" stop-opacity="0"/>
</radialGradient>
<linearGradient id="paint46_linear_10552_1155" x1="70.5693" y1="71.4278" x2="81.8893" y2="71.4278" gradientUnits="userSpaceOnUse">
<stop offset="0.0664122" stop-color="#7F7064"/>
<stop offset="0.552885" stop-color="#426428"/>
<stop offset="1" stop-color="#0F2E0A"/>
</linearGradient>
<radialGradient id="paint47_radial_10552_1155" cx="0" cy="0" r="1" gradientUnits="userSpaceOnUse" gradientTransform="translate(77.0459 67.3694) scale(5.47065 4.34404)">
<stop offset="0.158644" stop-color="#051E04"/>
<stop offset="1" stop-color="#051E04" stop-opacity="0"/>
</radialGradient>
<linearGradient id="paint48_linear_10552_1155" x1="71.3936" y1="66.8596" x2="81.2754" y2="66.8596" gradientUnits="userSpaceOnUse">
<stop offset="0.0664122" stop-color="#7F7064"/>
<stop offset="0.552885" stop-color="#426428"/>
<stop offset="1" stop-color="#0F2E0A"/>
</linearGradient>
<radialGradient id="paint49_radial_10552_1155" cx="0" cy="0" r="1" gradientUnits="userSpaceOnUse" gradientTransform="translate(77.0474 63.3168) scale(4.77568 3.79219)">
<stop offset="0.158644" stop-color="#051E04"/>
<stop offset="1" stop-color="#051E04" stop-opacity="0"/>
</radialGradient>
<linearGradient id="paint50_linear_10552_1155" x1="72.6201" y1="61.9659" x2="80.3555" y2="61.9659" gradientUnits="userSpaceOnUse">
<stop offset="0.0664122" stop-color="#7F7064"/>
<stop offset="0.552885" stop-color="#426428"/>
<stop offset="1" stop-color="#0F2E0A"/>
</linearGradient>
<linearGradient id="paint51_linear_10552_1155" x1="118.403" y1="72.4955" x2="121.675" y2="73.2622" gradientUnits="userSpaceOnUse">
<stop stop-color="#A5742B"/>
<stop offset="1" stop-color="#714013"/>
</linearGradient>
<radialGradient id="paint52_radial_10552_1155" cx="0" cy="0" r="1" gradientUnits="userSpaceOnUse" gradientTransform="translate(117.733 73.7542) rotate(90) scale(4.27717 2.24084)">
<stop stop-color="#FFAB5E"/>
<stop offset="1" stop-color="#FFAB5E" stop-opacity="0"/>
</radialGradient>
<radialGradient id="paint53_radial_10552_1155" cx="0" cy="0" r="1" gradientTransform="matrix(-0.281097 1.60997 -2.16935 -0.452841 119.353 72.0272)" gradientUnits="userSpaceOnUse">
<stop stop-color="#450C3C"/>
<stop offset="1" stop-color="#450C3C" stop-opacity="0"/>
</radialGradient>
<linearGradient id="paint54_linear_10552_1155" x1="112.526" y1="71.9814" x2="123.879" y2="71.9814" gradientUnits="userSpaceOnUse">
<stop offset="0.0664122" stop-color="#7F7064"/>
<stop offset="0.552885" stop-color="#426428"/>
<stop offset="1" stop-color="#0F2E0A"/>
</linearGradient>
<radialGradient id="paint55_radial_10552_1155" cx="0" cy="0" r="1" gradientTransform="matrix(7.47162 0.939031 -0.631919 4.60191 119.022 69.2009)" gradientUnits="userSpaceOnUse">
<stop offset="0.327605" stop-color="#051E04"/>
<stop offset="1" stop-color="#051E04" stop-opacity="0"/>
</radialGradient>
<linearGradient id="paint56_linear_10552_1155" x1="113.767" y1="68.3137" x2="123.068" y2="68.3137" gradientUnits="userSpaceOnUse">
<stop offset="0.0664122" stop-color="#7F7064"/>
<stop offset="0.552885" stop-color="#426428"/>
<stop offset="1" stop-color="#0F2E0A"/>
</linearGradient>
<radialGradient id="paint57_radial_10552_1155" cx="0" cy="0" r="1" gradientUnits="userSpaceOnUse" gradientTransform="translate(119.088 64.979) scale(4.49513 3.56941)">
<stop offset="0.158644" stop-color="#051E04"/>
<stop offset="1" stop-color="#051E04" stop-opacity="0"/>
</radialGradient>
<linearGradient id="paint58_linear_10552_1155" x1="114.442" y1="64.5601" x2="122.562" y2="64.5601" gradientUnits="userSpaceOnUse">
<stop offset="0.0664122" stop-color="#7F7064"/>
<stop offset="0.552885" stop-color="#426428"/>
<stop offset="1" stop-color="#0F2E0A"/>
</linearGradient>
<radialGradient id="paint59_radial_10552_1155" cx="0" cy="0" r="1" gradientUnits="userSpaceOnUse" gradientTransform="translate(119.088 61.649) scale(3.92409 3.11597)">
<stop offset="0.158644" stop-color="#051E04"/>
<stop offset="1" stop-color="#051E04" stop-opacity="0"/>
</radialGradient>
<linearGradient id="paint60_linear_10552_1155" x1="115.452" y1="60.5391" x2="121.808" y2="60.5391" gradientUnits="userSpaceOnUse">
<stop offset="0.0664122" stop-color="#7F7064"/>
<stop offset="0.552885" stop-color="#426428"/>
<stop offset="1" stop-color="#0F2E0A"/>
</linearGradient>
<linearGradient id="paint61_linear_10552_1155" x1="66.8542" y1="68.0683" x2="70.128" y2="68.8354" gradientUnits="userSpaceOnUse">
<stop stop-color="#A5742B"/>
<stop offset="1" stop-color="#714013"/>
</linearGradient>
<radialGradient id="paint62_radial_10552_1155" cx="0" cy="0" r="1" gradientUnits="userSpaceOnUse" gradientTransform="translate(66.1846 69.3277) rotate(90) scale(4.27928 2.24195)">
<stop stop-color="#FFAB5E"/>
<stop offset="1" stop-color="#FFAB5E" stop-opacity="0"/>
</radialGradient>
<radialGradient id="paint63_radial_10552_1155" cx="0" cy="0" r="1" gradientTransform="matrix(-0.281236 1.61077 -2.17042 -0.453065 67.805 67.5998)" gradientUnits="userSpaceOnUse">
<stop stop-color="#450C3C"/>
<stop offset="1" stop-color="#450C3C" stop-opacity="0"/>
</radialGradient>
<linearGradient id="paint64_linear_10552_1155" x1="60.9736" y1="67.5538" x2="72.3318" y2="67.5538" gradientUnits="userSpaceOnUse">
<stop offset="0.0664122" stop-color="#7F7064"/>
<stop offset="0.552885" stop-color="#426428"/>
<stop offset="1" stop-color="#0F2E0A"/>
</linearGradient>
<radialGradient id="paint65_radial_10552_1155" cx="0" cy="0" r="1" gradientTransform="matrix(7.4753 0.939494 -0.632231 4.60418 67.4721 64.7719)" gradientUnits="userSpaceOnUse">
<stop offset="0.327605" stop-color="#051E04"/>
<stop offset="1" stop-color="#051E04" stop-opacity="0"/>
</radialGradient>
<linearGradient id="paint66_linear_10552_1155" x1="62.2129" y1="63.8843" x2="71.5188" y2="63.8843" gradientUnits="userSpaceOnUse">
<stop offset="0.0664122" stop-color="#7F7064"/>
<stop offset="0.552885" stop-color="#426428"/>
<stop offset="1" stop-color="#0F2E0A"/>
</linearGradient>
<radialGradient id="paint67_radial_10552_1155" cx="0" cy="0" r="1" gradientUnits="userSpaceOnUse" gradientTransform="translate(67.5372 60.5479) scale(4.49734 3.57117)">
<stop offset="0.158644" stop-color="#051E04"/>
<stop offset="1" stop-color="#051E04" stop-opacity="0"/>
</radialGradient>
<linearGradient id="paint68_linear_10552_1155" x1="62.8887" y1="60.1289" x2="71.0124" y2="60.1289" gradientUnits="userSpaceOnUse">
<stop offset="0.0664122" stop-color="#7F7064"/>
<stop offset="0.552885" stop-color="#426428"/>
<stop offset="1" stop-color="#0F2E0A"/>
</linearGradient>
<radialGradient id="paint69_radial_10552_1155" cx="0" cy="0" r="1" gradientUnits="userSpaceOnUse" gradientTransform="translate(67.5366 57.2164) scale(3.92602 3.11751)">
<stop offset="0.158644" stop-color="#051E04"/>
<stop offset="1" stop-color="#051E04" stop-opacity="0"/>
</radialGradient>
<linearGradient id="paint70_linear_10552_1155" x1="63.9033" y1="56.1059" x2="70.2624" y2="56.1059" gradientUnits="userSpaceOnUse">
<stop offset="0.0664122" stop-color="#7F7064"/>
<stop offset="0.552885" stop-color="#426428"/>
<stop offset="1" stop-color="#0F2E0A"/>
</linearGradient>
<linearGradient id="paint71_linear_10552_1155" x1="57.7051" y1="73.1239" x2="61.6875" y2="74.057" gradientUnits="userSpaceOnUse">
<stop stop-color="#A5742B"/>
<stop offset="1" stop-color="#714013"/>
</linearGradient>
<radialGradient id="paint72_radial_10552_1155" cx="0" cy="0" r="1" gradientUnits="userSpaceOnUse" gradientTransform="translate(56.8906 74.6558) rotate(90) scale(5.2054 2.72715)">
<stop stop-color="#FFAB5E"/>
<stop offset="1" stop-color="#FFAB5E" stop-opacity="0"/>
</radialGradient>
<radialGradient id="paint73_radial_10552_1155" cx="0" cy="0" r="1" gradientTransform="matrix(-0.3421 1.95937 -2.64014 -0.551116 58.8617 72.5539)" gradientUnits="userSpaceOnUse">
<stop stop-color="#450C3C"/>
<stop offset="1" stop-color="#450C3C" stop-opacity="0"/>
</radialGradient>
<linearGradient id="paint74_linear_10552_1155" x1="50.5527" y1="72.4982" x2="64.369" y2="72.4982" gradientUnits="userSpaceOnUse">
<stop offset="0.0664122" stop-color="#7F7064"/>
<stop offset="0.552885" stop-color="#426428"/>
<stop offset="1" stop-color="#0F2E0A"/>
</linearGradient>
<radialGradient id="paint75_radial_10552_1155" cx="0" cy="0" r="1" gradientTransform="matrix(9.0931 1.14282 -0.769057 5.60061 58.4576 69.1142)" gradientUnits="userSpaceOnUse">
<stop offset="0.327605" stop-color="#051E04"/>
<stop offset="1" stop-color="#051E04" stop-opacity="0"/>
</radialGradient>
<linearGradient id="paint76_linear_10552_1155" x1="52.0635" y1="68.0344" x2="63.3834" y2="68.0344" gradientUnits="userSpaceOnUse">
<stop offset="0.0664122" stop-color="#7F7064"/>
<stop offset="0.552885" stop-color="#426428"/>
<stop offset="1" stop-color="#0F2E0A"/>
</linearGradient>
<radialGradient id="paint77_radial_10552_1155" cx="0" cy="0" r="1" gradientUnits="userSpaceOnUse" gradientTransform="translate(58.54 63.976) scale(5.47065 4.34404)">
<stop offset="0.158644" stop-color="#051E04"/>
<stop offset="1" stop-color="#051E04" stop-opacity="0"/>
</radialGradient>
<linearGradient id="paint78_linear_10552_1155" x1="52.8877" y1="63.4662" x2="62.7696" y2="63.4662" gradientUnits="userSpaceOnUse">
<stop offset="0.0664122" stop-color="#7F7064"/>
<stop offset="0.552885" stop-color="#426428"/>
<stop offset="1" stop-color="#0F2E0A"/>
</linearGradient>
<radialGradient id="paint79_radial_10552_1155" cx="0" cy="0" r="1" gradientUnits="userSpaceOnUse" gradientTransform="translate(58.5415 59.9234) scale(4.77568 3.79219)">
<stop offset="0.158644" stop-color="#051E04"/>
<stop offset="1" stop-color="#051E04" stop-opacity="0"/>
</radialGradient>
<linearGradient id="paint80_linear_10552_1155" x1="54.1143" y1="58.5726" x2="61.8496" y2="58.5726" gradientUnits="userSpaceOnUse">
<stop offset="0.0664122" stop-color="#7F7064"/>
<stop offset="0.552885" stop-color="#426428"/>
<stop offset="1" stop-color="#0F2E0A"/>
</linearGradient>
<linearGradient id="paint81_linear_10552_1155" x1="87.2316" y1="110.208" x2="56.71" y2="41.1338" gradientUnits="userSpaceOnUse">
<stop stop-color="#C78444"/>
<stop offset="1" stop-color="#F7BC73"/>
</linearGradient>
<radialGradient id="paint82_radial_10552_1155" cx="0" cy="0" r="1" gradientUnits="userSpaceOnUse" gradientTransform="translate(33.1724 74.7115) rotate(8.44036) scale(90.4022 37.4508)">
<stop stop-color="#BA9916" stop-opacity="0"/>
<stop offset="1" stop-color="#2F540A"/>
</radialGradient>
<radialGradient id="paint83_radial_10552_1155" cx="0" cy="0" r="1" gradientUnits="userSpaceOnUse" gradientTransform="translate(65.4801 69.6978) rotate(22.8706) scale(48.5264 18.8095)">
<stop stop-color="#FCCA8F"/>
<stop offset="1" stop-color="#FCCA8F" stop-opacity="0"/>
</radialGradient>
<linearGradient id="paint84_linear_10552_1155" x1="30.4621" y1="80.9176" x2="34.5759" y2="81.8815" gradientUnits="userSpaceOnUse">
<stop stop-color="#A5742B"/>
<stop offset="1" stop-color="#714013"/>
</linearGradient>
<radialGradient id="paint85_radial_10552_1155" cx="0" cy="0" r="1" gradientUnits="userSpaceOnUse" gradientTransform="translate(29.6207 82.5) rotate(90) scale(5.37719 2.81712)">
<stop stop-color="#FFAB5E"/>
<stop offset="1" stop-color="#FFAB5E" stop-opacity="0"/>
</radialGradient>
<radialGradient id="paint86_radial_10552_1155" cx="0" cy="0" r="1" gradientTransform="matrix(-0.353387 2.02403 -2.72725 -0.569304 31.6568 80.3288)" gradientUnits="userSpaceOnUse">
<stop stop-color="#450C3C"/>
<stop offset="1" stop-color="#450C3C" stop-opacity="0"/>
</radialGradient>
<linearGradient id="paint87_linear_10552_1155" x1="23.0771" y1="80.2714" x2="37.3493" y2="80.2714" gradientUnits="userSpaceOnUse">
<stop offset="0.0664122" stop-color="#7F7064"/>
<stop offset="0.552885" stop-color="#426428"/>
<stop offset="1" stop-color="#0F2E0A"/>
</linearGradient>
<radialGradient id="paint88_radial_10552_1155" cx="0" cy="0" r="1" gradientTransform="matrix(9.39311 1.18053 -0.794431 5.78544 31.2428 76.7759)" gradientUnits="userSpaceOnUse">
<stop offset="0.327605" stop-color="#051E04"/>
<stop offset="1" stop-color="#051E04" stop-opacity="0"/>
</radialGradient>
<linearGradient id="paint89_linear_10552_1155" x1="24.6357" y1="75.6604" x2="36.3291" y2="75.6604" gradientUnits="userSpaceOnUse">
<stop offset="0.0664122" stop-color="#7F7064"/>
<stop offset="0.552885" stop-color="#426428"/>
<stop offset="1" stop-color="#0F2E0A"/>
</linearGradient>
<radialGradient id="paint90_radial_10552_1155" cx="0" cy="0" r="1" gradientUnits="userSpaceOnUse" gradientTransform="translate(31.326 71.4681) scale(5.65114 4.4874)">
<stop offset="0.158644" stop-color="#051E04"/>
<stop offset="1" stop-color="#051E04" stop-opacity="0"/>
</radialGradient>
<linearGradient id="paint91_linear_10552_1155" x1="25.4883" y1="70.9412" x2="35.6962" y2="70.9412" gradientUnits="userSpaceOnUse">
<stop offset="0.0664122" stop-color="#7F7064"/>
<stop offset="0.552885" stop-color="#426428"/>
<stop offset="1" stop-color="#0F2E0A"/>
</linearGradient>
<radialGradient id="paint92_radial_10552_1155" cx="0" cy="0" r="1" gradientUnits="userSpaceOnUse" gradientTransform="translate(31.3286 67.2815) scale(4.93325 3.91734)">
<stop offset="0.158644" stop-color="#051E04"/>
<stop offset="1" stop-color="#051E04" stop-opacity="0"/>
</radialGradient>
<linearGradient id="paint93_linear_10552_1155" x1="26.7549" y1="65.8862" x2="34.7455" y2="65.8862" gradientUnits="userSpaceOnUse">
<stop offset="0.0664122" stop-color="#7F7064"/>
<stop offset="0.552885" stop-color="#426428"/>
<stop offset="1" stop-color="#0F2E0A"/>
</linearGradient>
<linearGradient id="paint94_linear_10552_1155" x1="40.541" y1="83.341" x2="45.4868" y2="84.4999" gradientUnits="userSpaceOnUse">
<stop stop-color="#A5742B"/>
<stop offset="1" stop-color="#714013"/>
</linearGradient>
<radialGradient id="paint95_radial_10552_1155" cx="0" cy="0" r="1" gradientUnits="userSpaceOnUse" gradientTransform="translate(39.5294 85.2435) rotate(90) scale(6.46461 3.38686)">
<stop stop-color="#FFAB5E"/>
<stop offset="1" stop-color="#FFAB5E" stop-opacity="0"/>
</radialGradient>
<radialGradient id="paint96_radial_10552_1155" cx="0" cy="0" r="1" gradientTransform="matrix(-0.424856 2.43335 -3.27881 -0.684434 41.9774 82.6331)" gradientUnits="userSpaceOnUse">
<stop stop-color="#450C3C"/>
<stop offset="1" stop-color="#450C3C" stop-opacity="0"/>
</radialGradient>
<linearGradient id="paint97_linear_10552_1155" x1="31.6582" y1="82.564" x2="48.8168" y2="82.564" gradientUnits="userSpaceOnUse">
<stop offset="0.0664122" stop-color="#7F7064"/>
<stop offset="0.552885" stop-color="#426428"/>
<stop offset="1" stop-color="#0F2E0A"/>
</linearGradient>
<radialGradient id="paint98_radial_10552_1155" cx="0" cy="0" r="1" gradientTransform="matrix(11.2928 1.41927 -0.955096 6.95542 41.4753 78.3615)" gradientUnits="userSpaceOnUse">
<stop offset="0.327605" stop-color="#051E04"/>
<stop offset="1" stop-color="#051E04" stop-opacity="0"/>
</radialGradient>
<linearGradient id="paint99_linear_10552_1155" x1="33.5332" y1="77.0205" x2="47.5915" y2="77.0205" gradientUnits="userSpaceOnUse">
<stop offset="0.0664122" stop-color="#7F7064"/>
<stop offset="0.552885" stop-color="#426428"/>
<stop offset="1" stop-color="#0F2E0A"/>
</linearGradient>
<radialGradient id="paint100_radial_10552_1155" cx="0" cy="0" r="1" gradientUnits="userSpaceOnUse" gradientTransform="translate(41.5765 71.9803) scale(6.79403 5.39488)">
<stop offset="0.158644" stop-color="#051E04"/>
<stop offset="1" stop-color="#051E04" stop-opacity="0"/>
</radialGradient>
<linearGradient id="paint101_linear_10552_1155" x1="34.5566" y1="71.347" x2="46.829" y2="71.347" gradientUnits="userSpaceOnUse">
<stop offset="0.0664122" stop-color="#7F7064"/>
<stop offset="0.552885" stop-color="#426428"/>
<stop offset="1" stop-color="#0F2E0A"/>
</linearGradient>
<radialGradient id="paint102_radial_10552_1155" cx="0" cy="0" r="1" gradientUnits="userSpaceOnUse" gradientTransform="translate(41.5781 66.9472) scale(5.93095 4.70954)">
<stop offset="0.158644" stop-color="#051E04"/>
<stop offset="1" stop-color="#051E04" stop-opacity="0"/>
</radialGradient>
<linearGradient id="paint103_linear_10552_1155" x1="36.0801" y1="65.2697" x2="45.6867" y2="65.2697" gradientUnits="userSpaceOnUse">
<stop offset="0.0664122" stop-color="#7F7064"/>
<stop offset="0.552885" stop-color="#426428"/>
<stop offset="1" stop-color="#0F2E0A"/>
</linearGradient>
<linearGradient id="paint104_linear_10552_1155" x1="96.2719" y1="61.8817" x2="94.6869" y2="66.2368" gradientUnits="userSpaceOnUse">
<stop stop-color="#478C00"/>
<stop offset="1" stop-color="#030604"/>
</linearGradient>
<radialGradient id="paint105_radial_10552_1155" cx="0" cy="0" r="1" gradientUnits="userSpaceOnUse" gradientTransform="translate(94.5164 60.8252) rotate(39.4725) scale(9.04785 3.05708)">
<stop stop-color="#C88C20"/>
<stop offset="1" stop-color="#22492C" stop-opacity="0"/>
</radialGradient>
<linearGradient id="paint106_linear_10552_1155" x1="96.9815" y1="68.69" x2="95.8077" y2="76.7895" gradientUnits="userSpaceOnUse">
<stop stop-color="#478C00"/>
<stop offset="1" stop-color="#030604"/>
</linearGradient>
<radialGradient id="paint107_radial_10552_1155" cx="0" cy="0" r="1" gradientUnits="userSpaceOnUse" gradientTransform="translate(95.8664 69.453) rotate(24.444) scale(7.80091 4.82771)">
<stop stop-color="#C88C20"/>
<stop offset="1" stop-color="#22492C" stop-opacity="0"/>
</radialGradient>
<radialGradient id="paint108_radial_10552_1155" cx="0" cy="0" r="1" gradientUnits="userSpaceOnUse" gradientTransform="translate(91.3981 89.8471) rotate(-90.4547) scale(34.9066 1.80722)">
<stop stop-color="#734918"/>
<stop offset="1" stop-color="#2D1612"/>
</radialGradient>
<linearGradient id="paint109_linear_10552_1155" x1="92.0284" y1="76.3449" x2="95.7054" y2="88.874" gradientUnits="userSpaceOnUse">
<stop stop-color="#478C00"/>
<stop offset="1" stop-color="#030604"/>
</linearGradient>
<radialGradient id="paint110_radial_10552_1155" cx="0" cy="0" r="1" gradientUnits="userSpaceOnUse" gradientTransform="translate(89.637 81.0247) rotate(5.05007) scale(10.3142 6.63066)">
<stop stop-color="#C88C20"/>
<stop offset="1" stop-color="#22492C" stop-opacity="0"/>
</radialGradient>
<linearGradient id="paint111_linear_10552_1155" x1="85.7151" y1="60.0624" x2="89.8235" y2="65.5207" gradientUnits="userSpaceOnUse">
<stop stop-color="#478C00"/>
<stop offset="1" stop-color="#030604"/>
</linearGradient>
<radialGradient id="paint112_radial_10552_1155" cx="0" cy="0" r="1" gradientUnits="userSpaceOnUse" gradientTransform="translate(87.2997 61.2159) rotate(138.979) scale(8.3237 2.80064)">
<stop stop-color="#C88C20"/>
<stop offset="1" stop-color="#22492C" stop-opacity="0"/>
</radialGradient>
<linearGradient id="paint113_linear_10552_1155" x1="94.6721" y1="54.1092" x2="91.9275" y2="58.9798" gradientUnits="userSpaceOnUse">
<stop stop-color="#478C00"/>
<stop offset="1" stop-color="#030604"/>
</linearGradient>
<radialGradient id="paint114_radial_10552_1155" cx="0" cy="0" r="1" gradientTransform="matrix(-0.885053 4.93406 -3.91766 -1.33033 95.2005 55.3427)" gradientUnits="userSpaceOnUse">
<stop stop-color="#C88B20"/>
<stop offset="1" stop-color="#22492C" stop-opacity="0"/>
</radialGradient>
<linearGradient id="paint115_linear_10552_1155" x1="86.2996" y1="70.0985" x2="88.7987" y2="75.5091" gradientUnits="userSpaceOnUse">
<stop stop-color="#478C00"/>
<stop offset="1" stop-color="#030604"/>
</linearGradient>
<radialGradient id="paint116_radial_10552_1155" cx="0" cy="0" r="1" gradientUnits="userSpaceOnUse" gradientTransform="translate(85.5953 71.0963) rotate(-39.4098) scale(7.43384 4.66355)">
<stop stop-color="#C88C20"/>
<stop offset="1" stop-color="#22492C" stop-opacity="0"/>
</radialGradient>
<linearGradient id="paint117_linear_10552_1155" x1="92.7381" y1="73.1769" x2="95.13" y2="79.2313" gradientUnits="userSpaceOnUse">
<stop stop-color="#478C00"/>
<stop offset="1" stop-color="#030604"/>
</linearGradient>
<radialGradient id="paint118_radial_10552_1155" cx="0" cy="0" r="1" gradientTransform="matrix(1.37696 5.38174 6.09508 -1.45104 91.9159 74.5223)" gradientUnits="userSpaceOnUse">
<stop stop-color="#C88B20"/>
<stop offset="1" stop-color="#22492C" stop-opacity="0"/>
</radialGradient>
<linearGradient id="paint119_linear_10552_1155" x1="89.5297" y1="63.8091" x2="91.2905" y2="68.9249" gradientUnits="userSpaceOnUse">
<stop stop-color="#478C00"/>
<stop offset="1" stop-color="#030604"/>
</linearGradient>
<radialGradient id="paint120_radial_10552_1155" cx="0" cy="0" r="1" gradientUnits="userSpaceOnUse" gradientTransform="translate(89.2949 65.2273) rotate(76.6024) scale(4.6666 3.74438)">
<stop stop-color="#C88C20"/>
<stop offset="1" stop-color="#22492C" stop-opacity="0"/>
</radialGradient>
<linearGradient id="paint121_linear_10552_1155" x1="89.6249" y1="50.7671" x2="86.6971" y2="55.4847" gradientUnits="userSpaceOnUse">
<stop stop-color="#478C00"/>
<stop offset="1" stop-color="#030604"/>
</linearGradient>
<radialGradient id="paint122_radial_10552_1155" cx="0" cy="0" r="1" gradientTransform="matrix(-0.818336 5.02444 -3.62233 -1.3547 90.1135 52.0232)" gradientUnits="userSpaceOnUse">
<stop stop-color="#C88B20"/>
<stop offset="1" stop-color="#22492C" stop-opacity="0"/>
</radialGradient>
<linearGradient id="paint123_linear_10552_1155" x1="92.656" y1="50.5055" x2="94.7529" y2="53.8843" gradientUnits="userSpaceOnUse">
<stop stop-color="#478C00"/>
<stop offset="1" stop-color="#030604"/>
</linearGradient>
<radialGradient id="paint124_radial_10552_1155" cx="0" cy="0" r="1" gradientTransform="matrix(0.586093 3.59851 2.59432 -0.970236 92.306 51.4051)" gradientUnits="userSpaceOnUse">
<stop stop-color="#C88B20"/>
<stop offset="1" stop-color="#22492C" stop-opacity="0"/>
</radialGradient>
<linearGradient id="paint125_linear_10552_1155" x1="128.475" y1="59.9556" x2="129.647" y2="63.1775" gradientUnits="userSpaceOnUse">
<stop stop-color="#478C00"/>
<stop offset="1" stop-color="#030604"/>
</linearGradient>
<radialGradient id="paint126_radial_10552_1155" cx="0" cy="0" r="1" gradientUnits="userSpaceOnUse" gradientTransform="translate(129.773 59.174) rotate(140.528) scale(6.69364 2.26164)">
<stop stop-color="#C88C20"/>
<stop offset="1" stop-color="#22492C" stop-opacity="0"/>
</radialGradient>
<linearGradient id="paint127_linear_10552_1155" x1="127.953" y1="64.9924" x2="128.821" y2="70.9844" gradientUnits="userSpaceOnUse">
<stop stop-color="#478C00"/>
<stop offset="1" stop-color="#030604"/>
</linearGradient>
<radialGradient id="paint128_radial_10552_1155" cx="0" cy="0" r="1" gradientUnits="userSpaceOnUse" gradientTransform="translate(128.778 65.5568) rotate(155.556) scale(5.77115 3.57156)">
<stop stop-color="#C88C20"/>
<stop offset="1" stop-color="#22492C" stop-opacity="0"/>
</radialGradient>
<radialGradient id="paint129_radial_10552_1155" cx="0" cy="0" r="1" gradientUnits="userSpaceOnUse" gradientTransform="translate(132.079 80.6444) rotate(-89.5453) scale(25.824 1.33699)">
<stop stop-color="#734918"/>
<stop offset="1" stop-color="#2D1612"/>
</radialGradient>
<linearGradient id="paint130_linear_10552_1155" x1="131.615" y1="70.6555" x2="128.895" y2="79.9246" gradientUnits="userSpaceOnUse">
<stop stop-color="#478C00"/>
<stop offset="1" stop-color="#030604"/>
</linearGradient>
<radialGradient id="paint131_radial_10552_1155" cx="0" cy="0" r="1" gradientUnits="userSpaceOnUse" gradientTransform="translate(133.384 74.1177) rotate(174.95) scale(7.63049 4.9054)">
<stop stop-color="#C88C20"/>
<stop offset="1" stop-color="#22492C" stop-opacity="0"/>
</radialGradient>
<linearGradient id="paint132_linear_10552_1155" x1="136.286" y1="58.6095" x2="133.247" y2="62.6476" gradientUnits="userSpaceOnUse">
<stop stop-color="#478C00"/>
<stop offset="1" stop-color="#030604"/>
</linearGradient>
<radialGradient id="paint133_radial_10552_1155" cx="0" cy="0" r="1" gradientUnits="userSpaceOnUse" gradientTransform="translate(135.114 59.4629) rotate(41.0207) scale(6.15791 2.07192)">
<stop stop-color="#C88C20"/>
<stop offset="1" stop-color="#22492C" stop-opacity="0"/>
</radialGradient>
<linearGradient id="paint134_linear_10552_1155" x1="129.658" y1="54.2055" x2="131.689" y2="57.8088" gradientUnits="userSpaceOnUse">
<stop stop-color="#478C00"/>
<stop offset="1" stop-color="#030604"/>
</linearGradient>
<radialGradient id="paint135_radial_10552_1155" cx="0" cy="0" r="1" gradientTransform="matrix(0.654766 3.65024 2.8983 -0.984184 129.267 55.1181)" gradientUnits="userSpaceOnUse">
<stop stop-color="#C88B20"/>
<stop offset="1" stop-color="#22492C" stop-opacity="0"/>
</radialGradient>
<linearGradient id="paint136_linear_10552_1155" x1="135.852" y1="66.0343" x2="134.003" y2="70.037" gradientUnits="userSpaceOnUse">
<stop stop-color="#478C00"/>
<stop offset="1" stop-color="#030604"/>
</linearGradient>
<radialGradient id="paint137_radial_10552_1155" cx="0" cy="0" r="1" gradientUnits="userSpaceOnUse" gradientTransform="translate(136.373 66.7724) rotate(-140.59) scale(5.49959 3.45011)">
<stop stop-color="#C88C20"/>
<stop offset="1" stop-color="#22492C" stop-opacity="0"/>
</radialGradient>
<linearGradient id="paint138_linear_10552_1155" x1="131.093" y1="68.3119" x2="129.324" y2="72.791" gradientUnits="userSpaceOnUse">
<stop stop-color="#478C00"/>
<stop offset="1" stop-color="#030604"/>
</linearGradient>
<radialGradient id="paint139_radial_10552_1155" cx="0" cy="0" r="1" gradientTransform="matrix(-1.01868 3.98144 -4.50917 -1.07348 131.702 69.3072)" gradientUnits="userSpaceOnUse">
<stop stop-color="#C88B20"/>
<stop offset="1" stop-color="#22492C" stop-opacity="0"/>
</radialGradient>
<linearGradient id="paint140_linear_10552_1155" x1="133.463" y1="61.3815" x2="132.16" y2="65.1661" gradientUnits="userSpaceOnUse">
<stop stop-color="#478C00"/>
<stop offset="1" stop-color="#030604"/>
</linearGradient>
<radialGradient id="paint141_radial_10552_1155" cx="0" cy="0" r="1" gradientUnits="userSpaceOnUse" gradientTransform="translate(133.637 62.4306) rotate(103.398) scale(3.45237 2.77011)">
<stop stop-color="#C88C20"/>
<stop offset="1" stop-color="#22492C" stop-opacity="0"/>
</radialGradient>
<linearGradient id="paint142_linear_10552_1155" x1="133.397" y1="51.7329" x2="135.563" y2="55.223" gradientUnits="userSpaceOnUse">
<stop stop-color="#478C00"/>
<stop offset="1" stop-color="#030604"/>
</linearGradient>
<radialGradient id="paint143_radial_10552_1155" cx="0" cy="0" r="1" gradientTransform="matrix(0.605408 3.7171 2.67982 -1.00221 133.035 52.6621)" gradientUnits="userSpaceOnUse">
<stop stop-color="#C88B20"/>
<stop offset="1" stop-color="#22492C" stop-opacity="0"/>
</radialGradient>
<linearGradient id="paint144_linear_10552_1155" x1="131.152" y1="51.5393" x2="129.6" y2="54.039" gradientUnits="userSpaceOnUse">
<stop stop-color="#478C00"/>
<stop offset="1" stop-color="#030604"/>
</linearGradient>
<radialGradient id="paint145_radial_10552_1155" cx="0" cy="0" r="1" gradientTransform="matrix(-0.433594 2.66219 -1.91929 -0.717785 131.41 52.2049)" gradientUnits="userSpaceOnUse">
<stop stop-color="#C88B20"/>
<stop offset="1" stop-color="#22492C" stop-opacity="0"/>
</radialGradient>
</defs>
</svg>
