<svg viewBox="0 0 240 120" fill="none" xmlns="http://www.w3.org/2000/svg">
<path d="M80.4851 51.6148C80.3784 53.4272 77.9548 56.2785 76.7564 57.4776V101.545H240V68.6327C239.853 67.8969 239.118 66.1899 237.353 65.248C235.147 64.0708 234.117 66.8668 231.764 66.4253C229.411 65.9838 226.175 59.9323 224.998 59.9323C223.822 59.9323 224.263 55.3884 222.351 54.4613C220.439 53.5341 219.557 50.4288 218.821 49.5021L218.77 49.4376C217.993 48.4567 215.948 45.8776 214.211 45.3562C212.435 44.823 212.79 39.3125 211.369 39.1347C209.947 38.957 205.328 46.245 204.085 47.8902C202.841 49.5354 202.308 56.1994 202.131 58.4937C201.953 60.7879 199.11 60.2878 196.446 59.9323C193.781 59.5768 190.476 62.0652 188.633 62.1804C186.791 62.2956 185.755 59.8762 185.179 58.4937C184.603 57.1111 180.573 56.6503 178.155 57.2263C175.737 57.8024 173.089 54.4613 172.283 54.4613C171.638 54.4613 171.323 56.7655 171.247 57.9176C170.632 55.575 169.128 50.7975 168.022 50.4288C166.641 49.968 166.477 49.4406 165.444 47.8902C164.411 46.3398 163.034 48.407 162.173 47.8902C161.312 47.3734 159.246 41.1718 158.041 40.4828C156.836 39.7937 155.287 38.7601 154.426 36.0247C153.737 33.8364 152.417 32.8918 151.843 32.6931C151.614 33.1816 150.948 34.1588 150.122 34.1588C149.295 34.1588 148.631 31.405 148.403 30.0281C146.938 28.6957 143.715 25.498 142.543 23.3661C141.078 20.7011 138.415 16.3037 137.35 16.3037C136.284 16.3037 132.689 21.3673 130.957 24.2987C129.226 27.2302 124.432 28.4291 123.5 30.0281C122.568 31.6271 119.638 32.6931 117.64 31.8937C115.643 31.0944 111.781 34.1588 110.316 33.4925C108.851 32.8263 105.921 31.8937 103.79 32.6931C101.66 33.4924 100.062 32.6932 98.8631 31.8937C97.6645 31.0943 95.5338 31.8936 94.0689 34.1588C92.604 36.4241 89.9406 35.4917 89.2747 36.0247C88.6088 36.5577 87.6766 43.4864 84.081 45.4852C80.4854 47.4839 80.6185 49.3493 80.4851 51.6148Z" fill="url(#paint0_linear_2118_4638)"/>
<path d="M80.4851 51.6148C80.3784 53.4272 77.9548 56.2785 76.7564 57.4776V101.545H240V68.6327C239.853 67.8969 239.118 66.1899 237.353 65.248C235.147 64.0708 234.117 66.8668 231.764 66.4253C229.411 65.9838 226.175 59.9323 224.998 59.9323C223.822 59.9323 224.263 55.3884 222.351 54.4613C220.439 53.5341 219.557 50.4288 218.821 49.5021L218.77 49.4376C217.993 48.4567 215.948 45.8776 214.211 45.3562C212.435 44.823 212.79 39.3125 211.369 39.1347C209.947 38.957 205.328 46.245 204.085 47.8902C202.841 49.5354 202.308 56.1994 202.131 58.4937C201.953 60.7879 199.11 60.2878 196.446 59.9323C193.781 59.5768 190.476 62.0652 188.633 62.1804C186.791 62.2956 185.755 59.8762 185.179 58.4937C184.603 57.1111 180.573 56.6503 178.155 57.2263C175.737 57.8024 173.089 54.4613 172.283 54.4613C171.638 54.4613 171.323 56.7655 171.247 57.9176C170.632 55.575 169.128 50.7975 168.022 50.4288C166.641 49.968 166.477 49.4406 165.444 47.8902C164.411 46.3398 163.034 48.407 162.173 47.8902C161.312 47.3734 159.246 41.1718 158.041 40.4828C156.836 39.7937 155.287 38.7601 154.426 36.0247C153.737 33.8364 152.417 32.8918 151.843 32.6931C151.614 33.1816 150.948 34.1588 150.122 34.1588C149.295 34.1588 148.631 31.405 148.403 30.0281C146.938 28.6957 143.715 25.498 142.543 23.3661C141.078 20.7011 138.415 16.3037 137.35 16.3037C136.284 16.3037 132.689 21.3673 130.957 24.2987C129.226 27.2302 124.432 28.4291 123.5 30.0281C122.568 31.6271 119.638 32.6931 117.64 31.8937C115.643 31.0944 111.781 34.1588 110.316 33.4925C108.851 32.8263 105.921 31.8937 103.79 32.6931C101.66 33.4924 100.062 32.6932 98.8631 31.8937C97.6645 31.0943 95.5338 31.8936 94.0689 34.1588C92.604 36.4241 89.9406 35.4917 89.2747 36.0247C88.6088 36.5577 87.6766 43.4864 84.081 45.4852C80.4854 47.4839 80.6185 49.3493 80.4851 51.6148Z" fill="url(#paint1_radial_2118_4638)"/>
<path d="M80.4851 51.6148C80.3784 53.4272 77.9548 56.2785 76.7564 57.4776V101.545H240V68.6327C239.853 67.8969 239.118 66.1899 237.353 65.248C235.147 64.0708 234.117 66.8668 231.764 66.4253C229.411 65.9838 226.175 59.9323 224.998 59.9323C223.822 59.9323 224.263 55.3884 222.351 54.4613C220.439 53.5341 219.557 50.4288 218.821 49.5021L218.77 49.4376C217.993 48.4567 215.948 45.8776 214.211 45.3562C212.435 44.823 212.79 39.3125 211.369 39.1347C209.947 38.957 205.328 46.245 204.085 47.8902C202.841 49.5354 202.308 56.1994 202.131 58.4937C201.953 60.7879 199.11 60.2878 196.446 59.9323C193.781 59.5768 190.476 62.0652 188.633 62.1804C186.791 62.2956 185.755 59.8762 185.179 58.4937C184.603 57.1111 180.573 56.6503 178.155 57.2263C175.737 57.8024 173.089 54.4613 172.283 54.4613C171.638 54.4613 171.323 56.7655 171.247 57.9176C170.632 55.575 169.128 50.7975 168.022 50.4288C166.641 49.968 166.477 49.4406 165.444 47.8902C164.411 46.3398 163.034 48.407 162.173 47.8902C161.312 47.3734 159.246 41.1718 158.041 40.4828C156.836 39.7937 155.287 38.7601 154.426 36.0247C153.737 33.8364 152.417 32.8918 151.843 32.6931C151.614 33.1816 150.948 34.1588 150.122 34.1588C149.295 34.1588 148.631 31.405 148.403 30.0281C146.938 28.6957 143.715 25.498 142.543 23.3661C141.078 20.7011 138.415 16.3037 137.35 16.3037C136.284 16.3037 132.689 21.3673 130.957 24.2987C129.226 27.2302 124.432 28.4291 123.5 30.0281C122.568 31.6271 119.638 32.6931 117.64 31.8937C115.643 31.0944 111.781 34.1588 110.316 33.4925C108.851 32.8263 105.921 31.8937 103.79 32.6931C101.66 33.4924 100.062 32.6932 98.8631 31.8937C97.6645 31.0943 95.5338 31.8936 94.0689 34.1588C92.604 36.4241 89.9406 35.4917 89.2747 36.0247C88.6088 36.5577 87.6766 43.4864 84.081 45.4852C80.4854 47.4839 80.6185 49.3493 80.4851 51.6148Z" fill="url(#paint2_radial_2118_4638)"/>
<path d="M80.4851 51.6148C80.3784 53.4272 77.9548 56.2785 76.7564 57.4776V101.545H240V68.6327C239.853 67.8969 239.118 66.1899 237.353 65.248C235.147 64.0708 234.117 66.8668 231.764 66.4253C229.411 65.9838 226.175 59.9323 224.998 59.9323C223.822 59.9323 224.263 55.3884 222.351 54.4613C220.439 53.5341 219.557 50.4288 218.821 49.5021L218.77 49.4376C217.993 48.4567 215.948 45.8776 214.211 45.3562C212.435 44.823 212.79 39.3125 211.369 39.1347C209.947 38.957 205.328 46.245 204.085 47.8902C202.841 49.5354 202.308 56.1994 202.131 58.4937C201.953 60.7879 199.11 60.2878 196.446 59.9323C193.781 59.5768 190.476 62.0652 188.633 62.1804C186.791 62.2956 185.755 59.8762 185.179 58.4937C184.603 57.1111 180.573 56.6503 178.155 57.2263C175.737 57.8024 173.089 54.4613 172.283 54.4613C171.638 54.4613 171.323 56.7655 171.247 57.9176C170.632 55.575 169.128 50.7975 168.022 50.4288C166.641 49.968 166.477 49.4406 165.444 47.8902C164.411 46.3398 163.034 48.407 162.173 47.8902C161.312 47.3734 159.246 41.1718 158.041 40.4828C156.836 39.7937 155.287 38.7601 154.426 36.0247C153.737 33.8364 152.417 32.8918 151.843 32.6931C151.614 33.1816 150.948 34.1588 150.122 34.1588C149.295 34.1588 148.631 31.405 148.403 30.0281C146.938 28.6957 143.715 25.498 142.543 23.3661C141.078 20.7011 138.415 16.3037 137.35 16.3037C136.284 16.3037 132.689 21.3673 130.957 24.2987C129.226 27.2302 124.432 28.4291 123.5 30.0281C122.568 31.6271 119.638 32.6931 117.64 31.8937C115.643 31.0944 111.781 34.1588 110.316 33.4925C108.851 32.8263 105.921 31.8937 103.79 32.6931C101.66 33.4924 100.062 32.6932 98.8631 31.8937C97.6645 31.0943 95.5338 31.8936 94.0689 34.1588C92.604 36.4241 89.9406 35.4917 89.2747 36.0247C88.6088 36.5577 87.6766 43.4864 84.081 45.4852C80.4854 47.4839 80.6185 49.3493 80.4851 51.6148Z" fill="url(#paint3_radial_2118_4638)"/>
<path d="M80.4851 51.6148C80.3784 53.4272 77.9548 56.2785 76.7564 57.4776V101.545H240V68.6327C239.853 67.8969 239.118 66.1899 237.353 65.248C235.147 64.0708 234.117 66.8668 231.764 66.4253C229.411 65.9838 226.175 59.9323 224.998 59.9323C223.822 59.9323 224.263 55.3884 222.351 54.4613C220.439 53.5341 219.557 50.4288 218.821 49.5021L218.77 49.4376C217.993 48.4567 215.948 45.8776 214.211 45.3562C212.435 44.823 212.79 39.3125 211.369 39.1347C209.947 38.957 205.328 46.245 204.085 47.8902C202.841 49.5354 202.308 56.1994 202.131 58.4937C201.953 60.7879 199.11 60.2878 196.446 59.9323C193.781 59.5768 190.476 62.0652 188.633 62.1804C186.791 62.2956 185.755 59.8762 185.179 58.4937C184.603 57.1111 180.573 56.6503 178.155 57.2263C175.737 57.8024 173.089 54.4613 172.283 54.4613C171.638 54.4613 171.323 56.7655 171.247 57.9176C170.632 55.575 169.128 50.7975 168.022 50.4288C166.641 49.968 166.477 49.4406 165.444 47.8902C164.411 46.3398 163.034 48.407 162.173 47.8902C161.312 47.3734 159.246 41.1718 158.041 40.4828C156.836 39.7937 155.287 38.7601 154.426 36.0247C153.737 33.8364 152.417 32.8918 151.843 32.6931C151.614 33.1816 150.948 34.1588 150.122 34.1588C149.295 34.1588 148.631 31.405 148.403 30.0281C146.938 28.6957 143.715 25.498 142.543 23.3661C141.078 20.7011 138.415 16.3037 137.35 16.3037C136.284 16.3037 132.689 21.3673 130.957 24.2987C129.226 27.2302 124.432 28.4291 123.5 30.0281C122.568 31.6271 119.638 32.6931 117.64 31.8937C115.643 31.0944 111.781 34.1588 110.316 33.4925C108.851 32.8263 105.921 31.8937 103.79 32.6931C101.66 33.4924 100.062 32.6932 98.8631 31.8937C97.6645 31.0943 95.5338 31.8936 94.0689 34.1588C92.604 36.4241 89.9406 35.4917 89.2747 36.0247C88.6088 36.5577 87.6766 43.4864 84.081 45.4852C80.4854 47.4839 80.6185 49.3493 80.4851 51.6148Z" fill="url(#paint4_radial_2118_4638)"/>
<path d="M80.4851 51.6148C80.3784 53.4272 77.9548 56.2785 76.7564 57.4776V101.545H240V68.6327C239.853 67.8969 239.118 66.1899 237.353 65.248C235.147 64.0708 234.117 66.8668 231.764 66.4253C229.411 65.9838 226.175 59.9323 224.998 59.9323C223.822 59.9323 224.263 55.3884 222.351 54.4613C220.439 53.5341 219.557 50.4288 218.821 49.5021L218.77 49.4376C217.993 48.4567 215.948 45.8776 214.211 45.3562C212.435 44.823 212.79 39.3125 211.369 39.1347C209.947 38.957 205.328 46.245 204.085 47.8902C202.841 49.5354 202.308 56.1994 202.131 58.4937C201.953 60.7879 199.11 60.2878 196.446 59.9323C193.781 59.5768 190.476 62.0652 188.633 62.1804C186.791 62.2956 185.755 59.8762 185.179 58.4937C184.603 57.1111 180.573 56.6503 178.155 57.2263C175.737 57.8024 173.089 54.4613 172.283 54.4613C171.638 54.4613 171.323 56.7655 171.247 57.9176C170.632 55.575 169.128 50.7975 168.022 50.4288C166.641 49.968 166.477 49.4406 165.444 47.8902C164.411 46.3398 163.034 48.407 162.173 47.8902C161.312 47.3734 159.246 41.1718 158.041 40.4828C156.836 39.7937 155.287 38.7601 154.426 36.0247C153.737 33.8364 152.417 32.8918 151.843 32.6931C151.614 33.1816 150.948 34.1588 150.122 34.1588C149.295 34.1588 148.631 31.405 148.403 30.0281C146.938 28.6957 143.715 25.498 142.543 23.3661C141.078 20.7011 138.415 16.3037 137.35 16.3037C136.284 16.3037 132.689 21.3673 130.957 24.2987C129.226 27.2302 124.432 28.4291 123.5 30.0281C122.568 31.6271 119.638 32.6931 117.64 31.8937C115.643 31.0944 111.781 34.1588 110.316 33.4925C108.851 32.8263 105.921 31.8937 103.79 32.6931C101.66 33.4924 100.062 32.6932 98.8631 31.8937C97.6645 31.0943 95.5338 31.8936 94.0689 34.1588C92.604 36.4241 89.9406 35.4917 89.2747 36.0247C88.6088 36.5577 87.6766 43.4864 84.081 45.4852C80.4854 47.4839 80.6185 49.3493 80.4851 51.6148Z" fill="url(#paint5_radial_2118_4638)"/>
<path d="M80.4851 51.6148C80.3784 53.4272 77.9548 56.2785 76.7564 57.4776V101.545H240V68.6327C239.853 67.8969 239.118 66.1899 237.353 65.248C235.147 64.0708 234.117 66.8668 231.764 66.4253C229.411 65.9838 226.175 59.9323 224.998 59.9323C223.822 59.9323 224.263 55.3884 222.351 54.4613C220.439 53.5341 219.557 50.4288 218.821 49.5021L218.77 49.4376C217.993 48.4567 215.948 45.8776 214.211 45.3562C212.435 44.823 212.79 39.3125 211.369 39.1347C209.947 38.957 205.328 46.245 204.085 47.8902C202.841 49.5354 202.308 56.1994 202.131 58.4937C201.953 60.7879 199.11 60.2878 196.446 59.9323C193.781 59.5768 190.476 62.0652 188.633 62.1804C186.791 62.2956 185.755 59.8762 185.179 58.4937C184.603 57.1111 180.573 56.6503 178.155 57.2263C175.737 57.8024 173.089 54.4613 172.283 54.4613C171.638 54.4613 171.323 56.7655 171.247 57.9176C170.632 55.575 169.128 50.7975 168.022 50.4288C166.641 49.968 166.477 49.4406 165.444 47.8902C164.411 46.3398 163.034 48.407 162.173 47.8902C161.312 47.3734 159.246 41.1718 158.041 40.4828C156.836 39.7937 155.287 38.7601 154.426 36.0247C153.737 33.8364 152.417 32.8918 151.843 32.6931C151.614 33.1816 150.948 34.1588 150.122 34.1588C149.295 34.1588 148.631 31.405 148.403 30.0281C146.938 28.6957 143.715 25.498 142.543 23.3661C141.078 20.7011 138.415 16.3037 137.35 16.3037C136.284 16.3037 132.689 21.3673 130.957 24.2987C129.226 27.2302 124.432 28.4291 123.5 30.0281C122.568 31.6271 119.638 32.6931 117.64 31.8937C115.643 31.0944 111.781 34.1588 110.316 33.4925C108.851 32.8263 105.921 31.8937 103.79 32.6931C101.66 33.4924 100.062 32.6932 98.8631 31.8937C97.6645 31.0943 95.5338 31.8936 94.0689 34.1588C92.604 36.4241 89.9406 35.4917 89.2747 36.0247C88.6088 36.5577 87.6766 43.4864 84.081 45.4852C80.4854 47.4839 80.6185 49.3493 80.4851 51.6148Z" fill="url(#paint6_radial_2118_4638)"/>
<path d="M80.4851 51.6148C80.3784 53.4272 77.9548 56.2785 76.7564 57.4776V101.545H240V68.6327C239.853 67.8969 239.118 66.1899 237.353 65.248C235.147 64.0708 234.117 66.8668 231.764 66.4253C229.411 65.9838 226.175 59.9323 224.998 59.9323C223.822 59.9323 224.263 55.3884 222.351 54.4613C220.439 53.5341 219.557 50.4288 218.821 49.5021L218.77 49.4376C217.993 48.4567 215.948 45.8776 214.211 45.3562C212.435 44.823 212.79 39.3125 211.369 39.1347C209.947 38.957 205.328 46.245 204.085 47.8902C202.841 49.5354 202.308 56.1994 202.131 58.4937C201.953 60.7879 199.11 60.2878 196.446 59.9323C193.781 59.5768 190.476 62.0652 188.633 62.1804C186.791 62.2956 185.755 59.8762 185.179 58.4937C184.603 57.1111 180.573 56.6503 178.155 57.2263C175.737 57.8024 173.089 54.4613 172.283 54.4613C171.638 54.4613 171.323 56.7655 171.247 57.9176C170.632 55.575 169.128 50.7975 168.022 50.4288C166.641 49.968 166.477 49.4406 165.444 47.8902C164.411 46.3398 163.034 48.407 162.173 47.8902C161.312 47.3734 159.246 41.1718 158.041 40.4828C156.836 39.7937 155.287 38.7601 154.426 36.0247C153.737 33.8364 152.417 32.8918 151.843 32.6931C151.614 33.1816 150.948 34.1588 150.122 34.1588C149.295 34.1588 148.631 31.405 148.403 30.0281C146.938 28.6957 143.715 25.498 142.543 23.3661C141.078 20.7011 138.415 16.3037 137.35 16.3037C136.284 16.3037 132.689 21.3673 130.957 24.2987C129.226 27.2302 124.432 28.4291 123.5 30.0281C122.568 31.6271 119.638 32.6931 117.64 31.8937C115.643 31.0944 111.781 34.1588 110.316 33.4925C108.851 32.8263 105.921 31.8937 103.79 32.6931C101.66 33.4924 100.062 32.6932 98.8631 31.8937C97.6645 31.0943 95.5338 31.8936 94.0689 34.1588C92.604 36.4241 89.9406 35.4917 89.2747 36.0247C88.6088 36.5577 87.6766 43.4864 84.081 45.4852C80.4854 47.4839 80.6185 49.3493 80.4851 51.6148Z" fill="url(#paint7_radial_2118_4638)"/>
<path d="M80.4851 51.6148C80.3784 53.4272 77.9548 56.2785 76.7564 57.4776V101.545H240V68.6327C239.853 67.8969 239.118 66.1899 237.353 65.248C235.147 64.0708 234.117 66.8668 231.764 66.4253C229.411 65.9838 226.175 59.9323 224.998 59.9323C223.822 59.9323 224.263 55.3884 222.351 54.4613C220.439 53.5341 219.557 50.4288 218.821 49.5021L218.77 49.4376C217.993 48.4567 215.948 45.8776 214.211 45.3562C212.435 44.823 212.79 39.3125 211.369 39.1347C209.947 38.957 205.328 46.245 204.085 47.8902C202.841 49.5354 202.308 56.1994 202.131 58.4937C201.953 60.7879 199.11 60.2878 196.446 59.9323C193.781 59.5768 190.476 62.0652 188.633 62.1804C186.791 62.2956 185.755 59.8762 185.179 58.4937C184.603 57.1111 180.573 56.6503 178.155 57.2263C175.737 57.8024 173.089 54.4613 172.283 54.4613C171.638 54.4613 171.323 56.7655 171.247 57.9176C170.632 55.575 169.128 50.7975 168.022 50.4288C166.641 49.968 166.477 49.4406 165.444 47.8902C164.411 46.3398 163.034 48.407 162.173 47.8902C161.312 47.3734 159.246 41.1718 158.041 40.4828C156.836 39.7937 155.287 38.7601 154.426 36.0247C153.737 33.8364 152.417 32.8918 151.843 32.6931C151.614 33.1816 150.948 34.1588 150.122 34.1588C149.295 34.1588 148.631 31.405 148.403 30.0281C146.938 28.6957 143.715 25.498 142.543 23.3661C141.078 20.7011 138.415 16.3037 137.35 16.3037C136.284 16.3037 132.689 21.3673 130.957 24.2987C129.226 27.2302 124.432 28.4291 123.5 30.0281C122.568 31.6271 119.638 32.6931 117.64 31.8937C115.643 31.0944 111.781 34.1588 110.316 33.4925C108.851 32.8263 105.921 31.8937 103.79 32.6931C101.66 33.4924 100.062 32.6932 98.8631 31.8937C97.6645 31.0943 95.5338 31.8936 94.0689 34.1588C92.604 36.4241 89.9406 35.4917 89.2747 36.0247C88.6088 36.5577 87.6766 43.4864 84.081 45.4852C80.4854 47.4839 80.6185 49.3493 80.4851 51.6148Z" fill="url(#paint8_linear_2118_4638)"/>
<path fill-rule="evenodd" clip-rule="evenodd" d="M97.0039 31.7138C99.4051 33.6915 102.758 36.7155 103.185 38.1418C103.373 38.7688 103.413 39.8221 103.458 41.0113C103.565 43.8449 103.701 47.45 105.941 47.8981C107.699 48.2499 108.225 49.2497 108.811 50.3603C109.284 51.2587 109.796 52.2295 111.028 52.9883C112.271 53.7534 113.039 56.0709 113.839 58.4825C114.813 61.4191 115.833 64.4953 117.811 65.0775C119.876 65.6852 124.72 78.9696 128.237 88.6163C129.631 92.4386 130.817 95.6898 131.538 97.355C133.87 99.2638 155.294 97.3208 154.615 92.7396C154.13 89.4631 147.42 81.5088 141.648 74.6668C137.332 69.5509 133.541 65.0568 133.269 63.605C132.806 61.1321 128.411 58.0897 124.748 55.554C123.385 54.61 122.123 53.7363 121.203 52.9883C117.811 50.2311 115.268 45.9893 115.48 42.8079C115.522 42.1752 115.606 41.3914 115.702 40.4966C115.955 38.136 116.291 35.003 116.159 31.8331C115.331 31.9915 114.406 32.379 113.521 32.7497C112.218 33.2954 111.002 33.8045 110.315 33.4918C108.85 32.8255 105.92 31.893 103.79 32.6923C101.659 33.4916 100.061 32.6925 98.8622 31.893C98.3651 31.5614 97.7077 31.5048 97.0039 31.7138Z" fill="url(#paint9_radial_2118_4638)"/>
<path fill-rule="evenodd" clip-rule="evenodd" d="M149.07 32.6997C150.27 39.7637 152.948 50.0545 157.183 52.5383C157.183 55.42 157.983 56.268 158.762 57.0921C159.439 57.8095 160.099 58.5088 160.199 60.5154C160.293 62.3846 160.912 63.565 161.567 64.8119C162.423 66.4414 163.338 68.1843 163.216 71.7262C163.13 74.2215 163.215 77.8134 163.308 81.7088C163.448 87.5739 163.604 94.127 163.216 98.6613L167.741 100.386C169.494 98.5286 171.691 94.8472 173.766 91.3713C176.026 87.585 178.14 84.0426 179.376 83.3682C180.42 82.7986 181.38 81.5184 182.403 80.1535C183.705 78.4185 185.109 76.5464 186.917 75.8225C190.149 74.5289 192.52 73.4509 193.597 68.9235C194.284 66.0366 197.207 62.5013 199.419 60.2392C198.621 60.2268 197.72 60.1047 196.824 59.9833C196.698 59.9662 196.571 59.9491 196.446 59.9323C194.855 59.7201 193.035 60.5217 191.435 61.2266C190.356 61.7023 189.376 62.134 188.634 62.1804C186.791 62.2956 185.755 59.8762 185.179 58.4937C184.604 57.1111 180.574 56.6503 178.155 57.2263C176.55 57.6089 174.842 56.264 173.641 55.3173C173.033 54.8383 172.554 54.4612 172.283 54.4612C171.638 54.4612 171.324 56.7655 171.247 57.9176C170.633 55.575 169.128 50.7975 168.023 50.4288C166.836 50.0331 166.548 49.5882 165.836 48.4885C165.719 48.3076 165.59 48.1091 165.445 47.8902C164.828 46.965 164.089 47.328 163.41 47.6615C162.952 47.8868 162.521 48.0986 162.173 47.8902C161.781 47.6546 161.138 46.2377 160.441 44.7003C159.608 42.8649 158.697 40.8577 158.041 40.4827C156.836 39.7937 155.287 38.7601 154.426 36.0247C153.737 33.8364 152.417 32.8918 151.843 32.6931C151.614 33.1816 150.948 34.1588 150.122 34.1588C149.723 34.1588 149.362 33.5178 149.07 32.6997Z" fill="url(#paint10_radial_2118_4638)"/>
<path fill-rule="evenodd" clip-rule="evenodd" d="M201.526 59.7496C202.205 63.1494 202.738 67.2944 202 69.1388C204.801 71.5104 209.111 81.2121 208.895 83.1524C208.79 84.101 208.015 85.1526 207.276 86.1561C206.503 87.2053 205.769 88.202 205.879 88.9734C205.942 89.4178 206.454 90.5165 207.112 91.9281C208.448 94.7958 210.385 98.9553 210.388 101.545H240V88.5912C237.529 86.5301 235.453 86.4318 233.243 86.6019C230.442 86.8175 227.856 85.3084 226.348 83.1524C225.757 82.3077 225.497 81.0989 225.153 79.5001C224.619 77.0183 223.882 73.5968 221.392 69.1388C219.608 65.9432 218.068 63.649 216.847 61.8275C215.266 59.4708 214.216 57.9054 213.851 56.2031C213.551 54.8034 212.742 54.0529 211.96 53.3279C211.055 52.4895 210.188 51.6853 210.188 49.9511C210.188 48.8886 210.56 47.9191 210.976 46.8363C211.668 45.0338 212.481 42.9172 211.898 39.534C211.752 39.3056 211.58 39.1613 211.369 39.1348C210.245 38.9943 207.124 43.5185 205.251 46.2332C204.755 46.953 204.346 47.5455 204.085 47.8903C202.842 49.5355 202.309 56.1995 202.131 58.4937C202.086 59.0767 201.869 59.4793 201.526 59.7496Z" fill="url(#paint11_radial_2118_4638)"/>
<path fill-rule="evenodd" clip-rule="evenodd" d="M222.446 54.5114C222.699 61.3233 225.4 67.5605 229.796 68.708C232.605 69.4412 233.06 71.4217 233.477 73.2352C233.795 74.6208 234.091 75.9091 235.398 76.4693C236.757 77.0521 237.329 78.8602 237.902 80.6712C238.413 82.2887 238.925 83.9086 240 84.6599V68.6327C239.853 67.8969 239.117 66.1899 237.353 65.248C236.168 64.6158 235.322 65.1295 234.429 65.6722C233.659 66.1402 232.853 66.6297 231.764 66.4253C230.431 66.1753 228.816 64.1266 227.452 62.3963C226.406 61.0709 225.509 59.9323 224.998 59.9323C224.465 59.9323 224.264 58.9989 224.026 57.8918C223.747 56.5977 223.417 55.0663 222.446 54.5114Z" fill="url(#paint12_radial_2118_4638)"/>
<path fill-rule="evenodd" clip-rule="evenodd" d="M107.562 32.5937C107.562 32.5935 107.562 32.5933 107.562 32.5931C108.644 32.8174 109.637 33.1832 110.316 33.4919C111.003 33.8046 112.219 33.2955 113.522 32.7497C114.995 32.1327 116.58 31.4689 117.64 31.8931C119.638 32.6924 122.568 31.6264 123.5 30.0274C123.897 29.347 124.993 28.7389 126.255 28.039C127.958 27.0942 129.963 25.982 130.957 24.2981C131.616 23.1833 132.544 21.7602 133.5 20.4244C130.25 29.9723 128.971 31.9662 127.109 32.7944C126.201 33.1981 125.524 37.5289 124.782 42.2759L124.782 42.2759C124.074 46.805 123.307 51.7128 122.224 53.9503C121.897 53.5994 121.557 53.2767 121.203 52.9887C117.811 50.2316 115.268 45.9898 115.48 42.8084C115.522 42.1756 115.606 41.3918 115.702 40.497C115.955 38.1365 116.291 35.0035 116.159 31.8336C115.331 31.992 114.406 32.3796 113.521 32.7502L113.521 32.7502C112.218 33.2959 111.003 33.805 110.315 33.4923C109.637 33.1837 108.644 32.818 107.562 32.5937Z" fill="url(#paint13_radial_2118_4638)"/>
<path d="M108.344 98.0769C41.5327 98.0769 14.0225 104.455 5.7695 120H240V98.0769H108.344Z" fill="url(#paint14_radial_2118_4638)"/>
<path d="M23.3634 96.9235C21.2877 98.3081 20.1921 106.443 19.9038 110.481H122.826C122.105 109.712 115.503 79.6736 115.618 77.5964C115.762 75 112.303 71.8275 110.861 70.2409C109.42 68.6544 111.438 66.9236 109.132 65.1929C106.825 63.4621 104.086 58.2695 103.221 56.8272C102.357 55.3849 99.7619 56.8272 97.888 55.5295C96.014 54.2318 88.6625 55.6735 84.7705 56.8272C80.8785 57.9809 73.5269 53.9427 73.2386 56.8272C72.9503 59.7116 66.8961 58.2695 66.8961 56.8272C66.8961 55.3849 58.8238 55.6733 58.5355 58.2695C58.2472 60.8656 51.0398 68.9426 48.7335 69.231C46.4271 69.5195 45.8505 72.1156 45.5622 74.4233C45.2739 76.731 41.8144 77.0195 39.7963 77.5964C38.1818 78.0579 36.0484 81.8273 35.1835 83.6542C31.1474 83.3658 25.9581 95.1927 23.3634 96.9235Z" fill="url(#paint15_linear_2118_4638)"/>
<path d="M23.3634 96.9235C21.2877 98.3081 20.1921 106.443 19.9038 110.481H122.826C122.105 109.712 115.503 79.6736 115.618 77.5964C115.762 75 112.303 71.8275 110.861 70.2409C109.42 68.6544 111.438 66.9236 109.132 65.1929C106.825 63.4621 104.086 58.2695 103.221 56.8272C102.357 55.3849 99.7619 56.8272 97.888 55.5295C96.014 54.2318 88.6625 55.6735 84.7705 56.8272C80.8785 57.9809 73.5269 53.9427 73.2386 56.8272C72.9503 59.7116 66.8961 58.2695 66.8961 56.8272C66.8961 55.3849 58.8238 55.6733 58.5355 58.2695C58.2472 60.8656 51.0398 68.9426 48.7335 69.231C46.4271 69.5195 45.8505 72.1156 45.5622 74.4233C45.2739 76.731 41.8144 77.0195 39.7963 77.5964C38.1818 78.0579 36.0484 81.8273 35.1835 83.6542C31.1474 83.3658 25.9581 95.1927 23.3634 96.9235Z" fill="url(#paint16_linear_2118_4638)"/>
<path d="M23.3634 96.9235C21.2877 98.3081 20.1921 106.443 19.9038 110.481H122.826C122.105 109.712 115.503 79.6736 115.618 77.5964C115.762 75 112.303 71.8275 110.861 70.2409C109.42 68.6544 111.438 66.9236 109.132 65.1929C106.825 63.4621 104.086 58.2695 103.221 56.8272C102.357 55.3849 99.7619 56.8272 97.888 55.5295C96.014 54.2318 88.6625 55.6735 84.7705 56.8272C80.8785 57.9809 73.5269 53.9427 73.2386 56.8272C72.9503 59.7116 66.8961 58.2695 66.8961 56.8272C66.8961 55.3849 58.8238 55.6733 58.5355 58.2695C58.2472 60.8656 51.0398 68.9426 48.7335 69.231C46.4271 69.5195 45.8505 72.1156 45.5622 74.4233C45.2739 76.731 41.8144 77.0195 39.7963 77.5964C38.1818 78.0579 36.0484 81.8273 35.1835 83.6542C31.1474 83.3658 25.9581 95.1927 23.3634 96.9235Z" fill="url(#paint17_radial_2118_4638)"/>
<path fill-rule="evenodd" clip-rule="evenodd" d="M62.2277 56.1103C64.5534 57.6228 65.6408 59.9182 66.0907 62.3202C66.7265 65.7138 68.2102 67.8348 71.3898 69.9557C72.8447 70.9262 73.6339 73.2291 74.4479 75.6043C75.4126 78.4197 76.4123 81.3366 78.5967 82.2569C81.5217 83.4892 88.3947 100.08 92.3329 110.48H19.9038C20.1921 106.442 21.2877 98.3072 23.3634 96.9226C24.3263 96.2803 25.6464 94.2477 27.1324 91.9598C29.6507 88.0824 32.6452 83.472 35.1835 83.6534C36.0484 81.8265 38.1818 78.0571 39.7962 77.5956C40.1674 77.4895 40.5875 77.3931 41.0275 77.2922C42.9798 76.8442 45.3269 76.3057 45.5621 74.4225C45.8504 72.1149 46.427 69.5187 48.7334 69.2302C51.0397 68.9418 58.2471 60.8649 58.5354 58.2687C58.6656 57.0964 60.3831 56.3946 62.2277 56.1103Z" fill="url(#paint18_radial_2118_4638)"/>
<path fill-rule="evenodd" clip-rule="evenodd" d="M62.2284 56.1103C64.5537 57.6228 65.6409 59.918 66.0909 62.3199C66.7266 65.7136 68.2104 67.8346 71.3899 69.9555C71.732 70.1837 72.0373 70.4856 72.3148 70.8447C71.2064 73.242 68.737 75.9024 67.3627 77.1675C68.1632 80.2709 65.091 87.0131 61.8243 94.182C59.2262 99.8837 56.5051 105.855 55.5116 110.481H31.1826L53.1386 65.9533C55.727 63.3202 58.3638 59.8183 58.5359 58.2688C58.6661 57.0964 60.3837 56.3946 62.2284 56.1103Z" fill="url(#paint19_radial_2118_4638)"/>
<path fill-rule="evenodd" clip-rule="evenodd" d="M84.8881 56.7914C67.2931 72.1608 72.8173 89.8293 77.5413 95.5835L91.7673 110.48H96.8903C97.5283 97.7669 98.0949 78.8806 96.614 76.9545C94.4941 74.1973 96.614 68.0467 98.7339 65.0772C99.5984 63.8662 100.005 62.1613 100.398 60.5093C100.805 58.8012 101.198 57.1495 102.071 56.1588C101.709 56.1085 101.299 56.1161 100.866 56.1242C99.8919 56.1423 98.8039 56.1625 97.8881 55.5283C97.7742 55.4495 97.6402 55.3808 97.488 55.3215L91.631 55.3216C89.2505 55.6691 86.7119 56.2576 84.8881 56.7914Z" fill="url(#paint20_radial_2118_4638)"/>
<path fill-rule="evenodd" clip-rule="evenodd" d="M19.9038 110.48C20.1921 106.442 21.2877 98.3072 23.3634 96.9226C24.3263 96.2803 25.6465 94.2476 27.1324 91.9597C29.6507 88.0824 32.6452 83.472 35.1835 83.6534C36.0484 81.8264 38.1818 78.0571 39.7963 77.5956C40.1675 77.4895 40.5875 77.3931 41.0276 77.2921C42.9798 76.8442 45.327 76.3057 45.5622 74.4225C45.8505 72.1148 46.4271 69.5187 48.7335 69.2302C52.0967 68.8096 57.8365 60.5769 58.5373 58.2534C58.5373 58.2534 62.011 63.0467 62.9114 64.229C61.5689 65.9965 58.8839 69.9557 58.8839 71.6524C58.8839 72.4588 58.026 72.3761 56.8927 72.2669C55.045 72.0888 52.4652 71.8401 51.6769 75.258C50.7112 79.4452 39.3569 99.5044 32.9486 110.48H19.9038Z" fill="url(#paint21_radial_2118_4638)"/>
<path d="M110.914 100.24C108.515 100.429 93.9126 109.329 90.2671 111.602C96.2819 115.01 115.942 109.262 129.065 114.375C142.189 119.488 179.117 113.874 191.966 111.602C204.816 109.329 211.783 111.318 222.446 108.193C217.16 105.921 203.454 101.376 200.61 101.376C197.056 101.376 168.454 90.2982 150.409 90.5823C132.364 90.8663 125.791 99.068 110.914 100.24Z" fill="url(#paint22_radial_2118_4638)"/>
<path d="M110.914 100.24C108.515 100.429 93.9126 109.329 90.2671 111.602C96.2819 115.01 115.942 109.262 129.065 114.375C142.189 119.488 179.117 113.874 191.966 111.602C204.816 109.329 211.783 111.318 222.446 108.193C217.16 105.921 203.454 101.376 200.61 101.376C197.056 101.376 168.454 90.2982 150.409 90.5823C132.364 90.8663 125.791 99.068 110.914 100.24Z" fill="url(#paint23_radial_2118_4638)"/>
<defs>
<linearGradient id="paint0_linear_2118_4638" x1="158.378" y1="34.436" x2="149.454" y2="109.936" gradientUnits="userSpaceOnUse">
<stop stop-color="#FFAF95"/>
<stop offset="1" stop-color="#DE956C"/>
</linearGradient>
<radialGradient id="paint1_radial_2118_4638" cx="0" cy="0" r="1" gradientUnits="userSpaceOnUse" gradientTransform="translate(96.0672 36.6346) rotate(57.2295) scale(42.1966 8.79453)">
<stop offset="0.282305" stop-color="#FFD49D"/>
<stop offset="1" stop-color="#FFD49D" stop-opacity="0"/>
</radialGradient>
<radialGradient id="paint2_radial_2118_4638" cx="0" cy="0" r="1" gradientUnits="userSpaceOnUse" gradientTransform="translate(89.2125 33.0006) rotate(52.7659) scale(34.6148 17.8485)">
<stop stop-color="#FFC6B4"/>
<stop offset="1" stop-color="#FFC6B4" stop-opacity="0"/>
</radialGradient>
<radialGradient id="paint3_radial_2118_4638" cx="0" cy="0" r="1" gradientUnits="userSpaceOnUse" gradientTransform="translate(127.659 23.24) rotate(71.124) scale(34.5867 17.8286)">
<stop stop-color="#FFC6B4"/>
<stop offset="1" stop-color="#FFC6B4" stop-opacity="0"/>
</radialGradient>
<radialGradient id="paint4_radial_2118_4638" cx="0" cy="0" r="1" gradientUnits="userSpaceOnUse" gradientTransform="translate(218.036 50.2251) rotate(64.0185) scale(50.1381 7.61516)">
<stop stop-color="#FFC6B4"/>
<stop offset="1" stop-color="#FFC6B4" stop-opacity="0"/>
</radialGradient>
<radialGradient id="paint5_radial_2118_4638" cx="0" cy="0" r="1" gradientUnits="userSpaceOnUse" gradientTransform="translate(138.653 86.0319) rotate(-89.2612) scale(45.5034 23.1976)">
<stop stop-color="#B2726A"/>
<stop offset="1" stop-color="#6D628F" stop-opacity="0"/>
</radialGradient>
<radialGradient id="paint6_radial_2118_4638" cx="0" cy="0" r="1" gradientUnits="userSpaceOnUse" gradientTransform="translate(153.127 28.3114) rotate(47.0786) scale(41.8048 16.6928)">
<stop offset="0.282305" stop-color="#FFD49D" stop-opacity="0.8"/>
<stop offset="1" stop-color="#FFD49D" stop-opacity="0"/>
</radialGradient>
<radialGradient id="paint7_radial_2118_4638" cx="0" cy="0" r="1" gradientUnits="userSpaceOnUse" gradientTransform="translate(215.471 50.1923) rotate(62.4217) scale(46.2122 7.78538)">
<stop stop-color="#FFD49D"/>
<stop offset="1" stop-color="#FFD49D" stop-opacity="0"/>
</radialGradient>
<linearGradient id="paint8_linear_2118_4638" x1="158.378" y1="16.3037" x2="158.378" y2="101.545" gradientUnits="userSpaceOnUse">
<stop offset="0.0583088" stop-color="#A36381" stop-opacity="0"/>
<stop offset="0.0980714" stop-color="#A36381" stop-opacity="0.8"/>
<stop offset="0.115838" stop-color="#A36381" stop-opacity="0.8"/>
<stop offset="0.140372" stop-color="#A36381" stop-opacity="0"/>
<stop offset="0.190287" stop-color="#A36381" stop-opacity="0"/>
<stop offset="0.224127" stop-color="#A36381" stop-opacity="0.6"/>
<stop offset="0.246124" stop-color="#A36381" stop-opacity="0.6"/>
<stop offset="0.274888" stop-color="#A36381" stop-opacity="0"/>
<stop offset="0.336647" stop-color="#A36381" stop-opacity="0"/>
<stop offset="0.382332" stop-color="#B66654" stop-opacity="0.7"/>
<stop offset="0.40602" stop-color="#B66654" stop-opacity="0.7"/>
<stop offset="0.453397" stop-color="#A36381" stop-opacity="0"/>
<stop offset="0.565917" stop-color="#A36381" stop-opacity="0"/>
<stop offset="0.601449" stop-color="#A36381" stop-opacity="0.7"/>
<stop offset="0.629368" stop-color="#A36381" stop-opacity="0.7"/>
<stop offset="0.654748" stop-color="#A36381" stop-opacity="0"/>
<stop offset="0.722429" stop-color="#A36381" stop-opacity="0"/>
<stop offset="0.748655" stop-color="#B66654"/>
<stop offset="0.778266" stop-color="#B66654"/>
<stop offset="0.812106" stop-color="#B66654" stop-opacity="0"/>
</linearGradient>
<radialGradient id="paint9_radial_2118_4638" cx="0" cy="0" r="1" gradientUnits="userSpaceOnUse" gradientTransform="translate(125.818 83.1448) rotate(-114.805) scale(56.7933 19.9651)">
<stop offset="0.130208" stop-color="#251944"/>
<stop offset="1" stop-color="#665C86" stop-opacity="0"/>
</radialGradient>
<radialGradient id="paint10_radial_2118_4638" cx="0" cy="0" r="1" gradientUnits="userSpaceOnUse" gradientTransform="translate(186.543 103.94) rotate(-81.5001) scale(52.472 26.0173)">
<stop offset="0.496868" stop-color="#362B54"/>
<stop offset="1" stop-color="#665C86" stop-opacity="0"/>
</radialGradient>
<radialGradient id="paint11_radial_2118_4638" cx="0" cy="0" r="1" gradientUnits="userSpaceOnUse" gradientTransform="translate(196.62 58.1774) rotate(71.9618) scale(59.3663 22.4049)">
<stop stop-color="#3B3156"/>
<stop offset="1" stop-color="#665C86" stop-opacity="0"/>
</radialGradient>
<radialGradient id="paint12_radial_2118_4638" cx="0" cy="0" r="1" gradientUnits="userSpaceOnUse" gradientTransform="translate(224.194 68.4922) rotate(46.7088) scale(28.5262 15.0818)">
<stop stop-color="#574B76"/>
<stop offset="1" stop-color="#665C86" stop-opacity="0"/>
</radialGradient>
<radialGradient id="paint13_radial_2118_4638" cx="0" cy="0" r="1" gradientUnits="userSpaceOnUse" gradientTransform="translate(129.378 52.6362) rotate(-72.4317) scale(38.8488 20.74)">
<stop offset="0.342925" stop-color="#574B76"/>
<stop offset="1" stop-color="#665C86" stop-opacity="0"/>
</radialGradient>
<radialGradient id="paint14_radial_2118_4638" cx="0" cy="0" r="1" gradientUnits="userSpaceOnUse" gradientTransform="translate(154.507 96.0577) rotate(174.567) scale(137.109 22.0482)">
<stop stop-color="#FFC34A"/>
<stop offset="0.562024" stop-color="#B08530"/>
<stop offset="0.822917" stop-color="#976C16"/>
<stop offset="1" stop-color="#AC7A1A"/>
</radialGradient>
<linearGradient id="paint15_linear_2118_4638" x1="79.6157" y1="68.3659" x2="65.3894" y2="115.835" gradientUnits="userSpaceOnUse">
<stop stop-color="#F5B8A5"/>
<stop offset="1" stop-color="#E79365"/>
</linearGradient>
<linearGradient id="paint16_linear_2118_4638" x1="71.3647" y1="52.9004" x2="71.3647" y2="110.481" gradientUnits="userSpaceOnUse">
<stop offset="0.178414" stop-color="#A36381" stop-opacity="0"/>
<stop offset="0.226006" stop-color="#B66654" stop-opacity="0.7"/>
<stop offset="0.261074" stop-color="#A36381" stop-opacity="0"/>
<stop offset="0.32119" stop-color="#A36381" stop-opacity="0"/>
<stop offset="0.381306" stop-color="#A36381"/>
<stop offset="0.436413" stop-color="#A36381" stop-opacity="0"/>
<stop offset="0.519073" stop-color="#A36381" stop-opacity="0"/>
<stop offset="0.586704" stop-color="#B66654" stop-opacity="0.7"/>
<stop offset="0.659344" stop-color="#A36381" stop-opacity="0"/>
<stop offset="0.742004" stop-color="#A36381" stop-opacity="0"/>
<stop offset="0.804625" stop-color="#A36381" stop-opacity="0.7"/>
<stop offset="0.837188" stop-color="#A36381" stop-opacity="0.7"/>
<stop offset="0.929867" stop-color="#A36381" stop-opacity="0"/>
</linearGradient>
<radialGradient id="paint17_radial_2118_4638" cx="0" cy="0" r="1" gradientUnits="userSpaceOnUse" gradientTransform="translate(118.017 82.7493) rotate(-116.467) scale(46.3573 25.9935)">
<stop stop-color="#FFEBDD" stop-opacity="0.8"/>
<stop offset="1" stop-color="#FFD49D" stop-opacity="0"/>
</radialGradient>
<radialGradient id="paint18_radial_2118_4638" cx="0" cy="0" r="1" gradientUnits="userSpaceOnUse" gradientTransform="translate(70.6385 67.1891) rotate(67.4796) scale(50.0633 26.0185)">
<stop stop-color="#FFC6B4"/>
<stop offset="1" stop-color="#FFC6B4" stop-opacity="0"/>
</radialGradient>
<radialGradient id="paint19_radial_2118_4638" cx="0" cy="0" r="1" gradientUnits="userSpaceOnUse" gradientTransform="translate(72.3148 91.2981) rotate(125.753) scale(36.7718 17.6074)">
<stop offset="0.190175" stop-color="#2D2445"/>
<stop offset="1" stop-color="#665C86" stop-opacity="0"/>
</radialGradient>
<radialGradient id="paint20_radial_2118_4638" cx="0" cy="0" r="1" gradientUnits="userSpaceOnUse" gradientTransform="translate(99.3753 78.8937) rotate(99.4714) scale(37.1686 14.183)">
<stop offset="0.119792" stop-color="#2C1F4D"/>
<stop offset="1" stop-color="#665C86" stop-opacity="0"/>
</radialGradient>
<radialGradient id="paint21_radial_2118_4638" cx="0" cy="0" r="1" gradientUnits="userSpaceOnUse" gradientTransform="translate(41.4075 98.3609) rotate(-55.6694) scale(48.5682 14.2722)">
<stop offset="0.104167" stop-color="#2B2049"/>
<stop offset="1" stop-color="#665C86" stop-opacity="0"/>
</radialGradient>
<radialGradient id="paint22_radial_2118_4638" cx="0" cy="0" r="1" gradientUnits="userSpaceOnUse" gradientTransform="translate(165.865 101.25) rotate(-175.099) scale(42.9547 13.0072)">
<stop stop-color="#E2A466"/>
<stop offset="0.510417" stop-color="#B96B30"/>
<stop offset="0.890625" stop-color="#6C320E"/>
</radialGradient>
<radialGradient id="paint23_radial_2118_4638" cx="0" cy="0" r="1" gradientUnits="userSpaceOnUse" gradientTransform="translate(130.187 112.902) rotate(5.58468) scale(43.4325 22.3617)">
<stop offset="0.21875" stop-color="#76688C"/>
<stop offset="1" stop-color="#5E5371" stop-opacity="0"/>
</radialGradient>
</defs>
</svg>
