<svg viewBox="0 0 240 120" fill="none" xmlns="http://www.w3.org/2000/svg">
<path fill-rule="evenodd" clip-rule="evenodd" d="M104.962 104.545C149.598 104.545 183.656 85.2902 183.656 62.972C183.656 40.6538 149.598 26.8151 104.962 26.8151C60.3256 26.8151 24.1406 40.6538 24.1406 62.972C24.1406 74.7558 41.1557 85.4026 70.9319 87.5295C76.1822 89.9394 77.8835 92.8563 79.4776 95.5893C82.252 100.345 84.7014 104.545 104.962 104.545ZM102.835 86.3677C111.058 86.3677 117.723 83.511 117.723 79.987C117.723 76.4631 111.058 73.6064 102.835 73.6064C94.6127 73.6064 87.947 76.4631 87.947 79.987C87.947 83.511 94.6127 86.3677 102.835 86.3677Z" fill="url(#paint0_linear_8176_415)"/>
<path fill-rule="evenodd" clip-rule="evenodd" d="M104.962 100.831C149.598 100.831 183.656 82.7381 183.656 60.4199C183.656 38.1017 149.598 24.2629 104.962 24.2629C60.3256 24.2629 24.1406 38.1017 24.1406 60.4199C24.1406 72.2037 41.1557 81.6887 70.9319 83.8155C76.182 86.2254 77.8835 89.1423 79.4777 91.8754C82.252 96.6315 84.7013 100.831 104.962 100.831ZM102.835 83.8155C111.058 83.8155 117.723 80.9588 117.723 77.4349C117.723 73.911 111.058 71.0543 102.835 71.0543C94.6126 71.0543 87.947 73.911 87.947 77.4349C87.947 80.9588 94.6126 83.8155 102.835 83.8155Z" fill="url(#paint1_linear_8176_415)"/>
<path fill-rule="evenodd" clip-rule="evenodd" d="M104.962 100.831C149.598 100.831 183.656 82.7381 183.656 60.4199C183.656 38.1017 149.598 24.2629 104.962 24.2629C60.3256 24.2629 24.1406 38.1017 24.1406 60.4199C24.1406 72.2037 41.1557 81.6887 70.9319 83.8155C76.182 86.2254 77.8835 89.1423 79.4777 91.8754C82.252 96.6315 84.7013 100.831 104.962 100.831ZM102.835 83.8155C111.058 83.8155 117.723 80.9588 117.723 77.4349C117.723 73.911 111.058 71.0543 102.835 71.0543C94.6126 71.0543 87.947 73.911 87.947 77.4349C87.947 80.9588 94.6126 83.8155 102.835 83.8155Z" fill="url(#paint2_linear_8176_415)"/>
<path fill-rule="evenodd" clip-rule="evenodd" d="M104.962 100.831C149.598 100.831 183.656 82.7381 183.656 60.4199C183.656 38.1017 149.598 24.2629 104.962 24.2629C60.3256 24.2629 24.1406 38.1017 24.1406 60.4199C24.1406 72.2037 41.1557 81.6887 70.9319 83.8155C76.182 86.2254 77.8835 89.1423 79.4777 91.8754C82.252 96.6315 84.7013 100.831 104.962 100.831ZM102.835 83.8155C111.058 83.8155 117.723 80.9588 117.723 77.4349C117.723 73.911 111.058 71.0543 102.835 71.0543C94.6126 71.0543 87.947 73.911 87.947 77.4349C87.947 80.9588 94.6126 83.8155 102.835 83.8155Z" fill="url(#paint3_linear_8176_415)"/>
<path fill-rule="evenodd" clip-rule="evenodd" d="M104.962 100.831C149.598 100.831 183.656 82.7381 183.656 60.4199C183.656 38.1017 149.598 24.2629 104.962 24.2629C60.3256 24.2629 24.1406 38.1017 24.1406 60.4199C24.1406 72.2037 41.1557 81.6887 70.9319 83.8155C76.182 86.2254 77.8835 89.1423 79.4777 91.8754C82.252 96.6315 84.7013 100.831 104.962 100.831ZM102.835 83.8155C111.058 83.8155 117.723 80.9588 117.723 77.4349C117.723 73.911 111.058 71.0543 102.835 71.0543C94.6126 71.0543 87.947 73.911 87.947 77.4349C87.947 80.9588 94.6126 83.8155 102.835 83.8155Z" fill="url(#paint4_radial_8176_415)"/>
<path d="M117.4 78.7639C117.612 78.3351 117.723 77.8904 117.723 77.4346C117.723 73.9106 111.057 71.054 102.835 71.054C94.6125 71.054 87.9468 73.9106 87.9468 77.4346C87.9468 77.8904 88.0582 78.3351 88.2703 78.7639C89.6972 75.878 95.6762 73.7126 102.835 73.7126C109.994 73.7126 115.973 75.878 117.4 78.7639Z" fill="#8E5922"/>
<path d="M117.4 78.7639C117.612 78.3351 117.723 77.8904 117.723 77.4346C117.723 73.9106 111.057 71.054 102.835 71.054C94.6125 71.054 87.9468 73.9106 87.9468 77.4346C87.9468 77.8904 88.0582 78.3351 88.2703 78.7639C89.6972 75.878 95.6762 73.7126 102.835 73.7126C109.994 73.7126 115.973 75.878 117.4 78.7639Z" fill="url(#paint5_linear_8176_415)"/>
<ellipse cx="52.2329" cy="65.7668" rx="14.938" ry="7.52287" fill="url(#paint6_radial_8176_415)"/>
<ellipse cx="52.2329" cy="65.7668" rx="14.938" ry="7.52287" fill="url(#paint7_radial_8176_415)"/>
<ellipse cx="57.1548" cy="44.4684" rx="14.938" ry="7.52287" fill="url(#paint8_radial_8176_415)"/>
<ellipse cx="57.1548" cy="44.4684" rx="14.938" ry="7.52287" fill="url(#paint9_radial_8176_415)"/>
<ellipse cx="57.1548" cy="44.4684" rx="14.938" ry="7.52287" fill="url(#paint10_radial_8176_415)"/>
<ellipse cx="57.1548" cy="44.4684" rx="14.938" ry="7.52287" fill="url(#paint11_radial_8176_415)"/>
<ellipse cx="93.314" cy="36.1324" rx="14.938" ry="7.52287" fill="url(#paint12_radial_8176_415)"/>
<ellipse cx="93.314" cy="36.1324" rx="14.938" ry="7.52287" fill="url(#paint13_radial_8176_415)"/>
<ellipse cx="93.314" cy="36.1324" rx="14.938" ry="7.52287" fill="url(#paint14_radial_8176_415)"/>
<ellipse cx="93.314" cy="36.1324" rx="14.938" ry="7.52287" fill="url(#paint15_radial_8176_415)"/>
<ellipse cx="130.535" cy="36.9454" rx="14.938" ry="7.52287" fill="url(#paint16_radial_8176_415)"/>
<ellipse cx="130.535" cy="36.9454" rx="14.938" ry="7.52287" fill="url(#paint17_radial_8176_415)"/>
<ellipse cx="130.535" cy="36.9454" rx="14.938" ry="7.52287" fill="url(#paint18_radial_8176_415)"/>
<ellipse cx="162.837" cy="62.5469" rx="14.938" ry="7.52287" fill="url(#paint19_radial_8176_415)"/>
<ellipse cx="162.837" cy="62.5469" rx="14.938" ry="7.52287" fill="url(#paint20_radial_8176_415)"/>
<ellipse cx="162.837" cy="62.5469" rx="14.938" ry="7.52287" fill="url(#paint21_radial_8176_415)"/>
<ellipse cx="162.837" cy="62.5469" rx="14.938" ry="7.52287" fill="url(#paint22_radial_8176_415)"/>
<ellipse cx="141.302" cy="80.8124" rx="14.938" ry="7.52287" fill="url(#paint23_radial_8176_415)"/>
<ellipse cx="141.302" cy="80.8124" rx="14.938" ry="7.52287" fill="url(#paint24_radial_8176_415)"/>
<ellipse cx="141.302" cy="80.8124" rx="14.938" ry="7.52287" fill="url(#paint25_radial_8176_415)"/>
<path d="M183.462 57.5914L175.659 58.6823C175.659 58.6823 169.383 57.2238 160.617 59.1877C154.296 60.6039 148.42 63.9994 148.42 63.9994L112.486 72.5765C113.436 72.9235 114.571 74.6894 114.737 76.2513C117.046 77.7302 117.262 78.5278 117.262 78.5278C117.543 77.8444 118.193 77.3839 118.931 77.3451L128.661 76.8329C133.197 73.7921 142.962 73.5483 148.815 74.4067L180.886 71.2998C183.03 67.3452 184.209 62.0113 183.462 57.5914Z" fill="url(#paint26_linear_8176_415)"/>
<path d="M51.508 104.108C47.4653 107.819 52.6644 114.213 57.8355 111.291L80.7602 97.5601C79.5207 94.5563 77.0463 91.2141 74.6309 89.6276L51.508 104.108Z" fill="url(#paint27_linear_8176_415)"/>
<path d="M51.508 104.108C47.4653 107.819 52.6644 114.213 57.8355 111.291L80.7602 97.5601C79.5207 94.5563 77.0463 91.2141 74.6309 89.6276L51.508 104.108Z" fill="url(#paint28_linear_8176_415)"/>
<path d="M51.508 104.108C47.4653 107.819 52.6644 114.213 57.8355 111.291L80.7602 97.5601C79.5207 94.5563 77.0463 91.2141 74.6309 89.6276L51.508 104.108Z" fill="url(#paint29_radial_8176_415)"/>
<path d="M51.508 104.108C47.4653 107.819 52.6644 114.213 57.8355 111.291L80.7602 97.5601C79.5207 94.5563 77.0463 91.2141 74.6309 89.6276L51.508 104.108Z" fill="url(#paint30_radial_8176_415)"/>
<path d="M167.848 47.0914C167.848 47.0914 167.055 43.3053 164.531 39.5914C162.007 35.8774 157.752 33.8221 157.752 33.8221L88.3799 79.5664C91.454 82.9539 98.9901 84.0415 102.484 84.0415L167.848 47.0914Z" fill="url(#paint31_linear_8176_415)"/>
<path d="M167.848 47.0914C167.848 47.0914 167.055 43.3053 164.531 39.5914C162.007 35.8774 157.752 33.8221 157.752 33.8221L88.3799 79.5664C91.454 82.9539 98.9901 84.0415 102.484 84.0415L167.848 47.0914Z" fill="url(#paint32_linear_8176_415)"/>
<path d="M167.848 47.0914C167.848 47.0914 167.055 43.3053 164.531 39.5914C162.007 35.8774 157.752 33.8221 157.752 33.8221L88.3799 79.5664C91.454 82.9539 98.9901 84.0415 102.484 84.0415L167.848 47.0914Z" fill="url(#paint33_radial_8176_415)"/>
<path d="M167.848 47.0914C167.848 47.0914 167.055 43.3053 164.531 39.5914C162.007 35.8774 157.752 33.8221 157.752 33.8221L88.3799 79.5664C91.454 82.9539 98.9901 84.0415 102.484 84.0415L167.848 47.0914Z" fill="url(#paint34_radial_8176_415)"/>
<path d="M167.848 47.0914C167.848 47.0914 167.055 43.3053 164.531 39.5914C162.007 35.8774 157.752 33.8221 157.752 33.8221L88.3799 79.5664C91.454 82.9539 98.9901 84.0415 102.484 84.0415L167.848 47.0914Z" fill="url(#paint35_radial_8176_415)"/>
<path d="M190.383 37.5283C184.996 39.8923 178.184 39.9512 174.043 31.7278C170.699 25.0883 170.467 20.4198 179.722 16.3587C187.126 13.1097 204.711 15.0272 209.905 15.9908C199.493 20.5596 196.288 34.9367 190.383 37.5283Z" fill="url(#paint36_radial_8176_415)"/>
<path d="M190.383 37.5283C184.996 39.8923 178.184 39.9512 174.043 31.7278C170.699 25.0883 170.467 20.4198 179.722 16.3587C187.126 13.1097 204.711 15.0272 209.905 15.9908C199.493 20.5596 196.288 34.9367 190.383 37.5283Z" fill="url(#paint37_radial_8176_415)"/>
<path d="M190.383 37.5283C184.996 39.8923 178.184 39.9512 174.043 31.7278C170.699 25.0883 170.467 20.4198 179.722 16.3587C187.126 13.1097 204.711 15.0272 209.905 15.9908C199.493 20.5596 196.288 34.9367 190.383 37.5283Z" fill="url(#paint38_radial_8176_415)"/>
<path d="M175.92 35.4542C177.813 36.3295 183.321 37.8044 189.268 35.1946C194.823 32.757 200.696 20.5787 204.354 17.7066L205.095 17.244C204.86 17.3473 204.612 17.5038 204.354 17.7066L175.92 35.4542Z" fill="url(#paint39_radial_8176_415)"/>
<path d="M193.892 27.3935C189.071 32.9061 177.052 37.1455 175.512 33.1134C173.536 27.9448 203.173 18.1817 203.173 18.1817C202.117 19.2933 198.275 22.3821 193.892 27.3935Z" fill="url(#paint40_radial_8176_415)"/>
<path d="M180.431 17.8524C171.325 21.848 170.587 27.5167 172.894 30.2282C175.202 32.9398 204.204 16.4891 204.204 16.4891C200.787 17.9883 189.536 13.8568 180.431 17.8524Z" fill="url(#paint41_radial_8176_415)"/>
<path d="M188.7 19.6638C182.109 20.1403 172.221 26.5035 174.39 30.8138C176.558 35.1241 203.248 18.1505 203.248 18.1505C201.769 18.2864 194.148 19.27 188.7 19.6638Z" fill="url(#paint42_radial_8176_415)"/>
<path d="M156.592 34.4757L172.046 23.6921C172.046 23.6921 176.428 27.0044 179.023 30.9118C181.619 34.8191 182.889 38.7906 182.889 38.7906L166.302 48.0155C165.852 44.0815 161.092 36.3111 156.592 34.4757Z" fill="url(#paint43_linear_8176_415)"/>
<path d="M156.592 34.4757L172.046 23.6921C172.046 23.6921 176.428 27.0044 179.023 30.9118C181.619 34.8191 182.889 38.7906 182.889 38.7906L166.302 48.0155C165.852 44.0815 161.092 36.3111 156.592 34.4757Z" fill="url(#paint44_linear_8176_415)"/>
<path d="M156.592 34.4757L172.046 23.6921C172.046 23.6921 176.428 27.0044 179.023 30.9118C181.619 34.8191 182.889 38.7906 182.889 38.7906L166.302 48.0155C165.852 44.0815 161.092 36.3111 156.592 34.4757Z" fill="url(#paint45_radial_8176_415)"/>
<path d="M156.592 34.4757L172.046 23.6921C172.046 23.6921 176.428 27.0044 179.023 30.9118C181.619 34.8191 182.889 38.7906 182.889 38.7906L166.302 48.0155C165.852 44.0815 161.092 36.3111 156.592 34.4757Z" fill="url(#paint46_radial_8176_415)"/>
<path d="M156.592 34.4757L172.046 23.6921C172.046 23.6921 176.428 27.0044 179.023 30.9118C181.619 34.8191 182.889 38.7906 182.889 38.7906L166.302 48.0155C165.852 44.0815 161.092 36.3111 156.592 34.4757Z" fill="url(#paint47_radial_8176_415)"/>
<path d="M156.592 34.4757L172.046 23.6921C172.046 23.6921 176.428 27.0044 179.023 30.9118C181.619 34.8191 182.889 38.7906 182.889 38.7906L166.302 48.0155C165.852 44.0815 161.092 36.3111 156.592 34.4757Z" fill="url(#paint48_radial_8176_415)"/>
<path d="M156.592 34.4757L172.046 23.6921C172.046 23.6921 176.428 27.0044 179.023 30.9118C181.619 34.8191 182.889 38.7906 182.889 38.7906L166.302 48.0155C165.852 44.0815 161.092 36.3111 156.592 34.4757Z" fill="url(#paint49_radial_8176_415)"/>
<defs>
<linearGradient id="paint0_linear_8176_415" x1="159.945" y1="89.6198" x2="31.2294" y2="72.6444" gradientUnits="userSpaceOnUse">
<stop offset="0.671648" stop-color="#8E5922"/>
<stop offset="1" stop-color="#DAA115"/>
</linearGradient>
<linearGradient id="paint1_linear_8176_415" x1="32.6481" y1="37.5559" x2="183.656" y2="74.2446" gradientUnits="userSpaceOnUse">
<stop stop-color="#B25F16"/>
<stop offset="1" stop-color="#E49F5E"/>
</linearGradient>
<linearGradient id="paint2_linear_8176_415" x1="32.6481" y1="37.5559" x2="183.656" y2="74.2446" gradientUnits="userSpaceOnUse">
<stop stop-color="#EBBA8E"/>
<stop offset="1" stop-color="#E49F5E"/>
</linearGradient>
<linearGradient id="paint3_linear_8176_415" x1="32.6481" y1="37.5559" x2="183.656" y2="74.2446" gradientUnits="userSpaceOnUse">
<stop stop-color="#E0B188"/>
<stop offset="1" stop-color="#CC8E54"/>
</linearGradient>
<radialGradient id="paint4_radial_8176_415" cx="0" cy="0" r="1" gradientUnits="userSpaceOnUse" gradientTransform="translate(108.829 26.9135) rotate(93.8568) scale(23.7152 124.966)">
<stop stop-color="#FFCF4A" stop-opacity="0.45"/>
<stop offset="1" stop-color="#FFCF4A" stop-opacity="0"/>
</radialGradient>
<linearGradient id="paint5_linear_8176_415" x1="113.297" y1="77.378" x2="90.2308" y2="71.7388" gradientUnits="userSpaceOnUse">
<stop stop-color="#DAA115"/>
<stop offset="0.328352" stop-color="#8E5922"/>
</linearGradient>
<radialGradient id="paint6_radial_8176_415" cx="0" cy="0" r="1" gradientUnits="userSpaceOnUse" gradientTransform="translate(54.4481 58.2439) rotate(86.4707) scale(14.5701 29.1674)">
<stop stop-color="#FFF47C"/>
<stop offset="1" stop-color="#FCC213"/>
</radialGradient>
<radialGradient id="paint7_radial_8176_415" cx="0" cy="0" r="1" gradientUnits="userSpaceOnUse" gradientTransform="translate(51.7883 58.2439) rotate(88.3075) scale(15.0523 21.9195)">
<stop offset="0.523071" stop-color="#FFC64A" stop-opacity="0"/>
<stop offset="0.925" stop-color="#B66700" stop-opacity="0.77"/>
</radialGradient>
<radialGradient id="paint8_radial_8176_415" cx="0" cy="0" r="1" gradientUnits="userSpaceOnUse" gradientTransform="translate(57.3874 39.2298) rotate(76.7809) scale(12.5919 25.2073)">
<stop stop-color="#FF4A4A"/>
<stop offset="1" stop-color="#C02121"/>
</radialGradient>
<radialGradient id="paint9_radial_8176_415" cx="0" cy="0" r="1" gradientUnits="userSpaceOnUse" gradientTransform="translate(57.3874 39.2298) rotate(76.7809) scale(12.5919 25.2073)">
<stop offset="0.135" stop-color="#FFB351"/>
<stop offset="0.55" stop-color="#FFA72D"/>
<stop offset="1" stop-color="#C86400"/>
</radialGradient>
<radialGradient id="paint10_radial_8176_415" cx="0" cy="0" r="1" gradientUnits="userSpaceOnUse" gradientTransform="translate(56.9103 51.9913) rotate(-113.173) scale(14.2916 17.5597)">
<stop offset="0.835" stop-color="#FFF8D4" stop-opacity="0"/>
<stop offset="1" stop-color="#FFF8D4" stop-opacity="0.44"/>
</radialGradient>
<radialGradient id="paint11_radial_8176_415" cx="0" cy="0" r="1" gradientUnits="userSpaceOnUse" gradientTransform="translate(56.2656 36.9456) rotate(88.1793) scale(13.9932 22.1762)">
<stop offset="0.54" stop-color="#FF9900" stop-opacity="0"/>
<stop offset="0.925" stop-color="#A56000" stop-opacity="0.66"/>
</radialGradient>
<radialGradient id="paint12_radial_8176_415" cx="0" cy="0" r="1" gradientUnits="userSpaceOnUse" gradientTransform="translate(93.5466 30.8937) rotate(76.7809) scale(12.5919 25.2073)">
<stop offset="0.045" stop-color="#FF8585"/>
<stop offset="0.455" stop-color="#FF5E5E"/>
<stop offset="0.93" stop-color="#C02121"/>
</radialGradient>
<radialGradient id="paint13_radial_8176_415" cx="0" cy="0" r="1" gradientUnits="userSpaceOnUse" gradientTransform="translate(93.0695 43.6552) rotate(-113.173) scale(14.2916 17.5597)">
<stop offset="0.835" stop-color="white" stop-opacity="0"/>
<stop offset="1" stop-color="white" stop-opacity="0.33"/>
</radialGradient>
<radialGradient id="paint14_radial_8176_415" cx="0" cy="0" r="1" gradientUnits="userSpaceOnUse" gradientTransform="translate(92.8694 28.5) rotate(90) scale(14.0957 22.3385)">
<stop offset="0.54" stop-color="#FF4A4A" stop-opacity="0"/>
<stop offset="0.88" stop-color="#A91202" stop-opacity="0.66"/>
</radialGradient>
<radialGradient id="paint15_radial_8176_415" cx="0" cy="0" r="1" gradientUnits="userSpaceOnUse" gradientTransform="translate(91.4991 30) rotate(71.565) scale(9.48683 18.9737)">
<stop stop-color="#FF9B77" stop-opacity="0.55"/>
<stop offset="0.677665" stop-color="#FF9B77" stop-opacity="0"/>
</radialGradient>
<radialGradient id="paint16_radial_8176_415" cx="0" cy="0" r="1" gradientUnits="userSpaceOnUse" gradientTransform="translate(130.219 28.7822) rotate(76.8625) scale(17.9842 36.002)">
<stop stop-color="#A2E9B4"/>
<stop offset="0.664583" stop-color="#1BAC29"/>
</radialGradient>
<radialGradient id="paint17_radial_8176_415" cx="0" cy="0" r="1" gradientUnits="userSpaceOnUse" gradientTransform="translate(129.646 29.4225) rotate(88.1793) scale(13.9932 22.1762)">
<stop offset="0.626846" stop-color="#A4E4B6" stop-opacity="0"/>
<stop offset="0.835" stop-color="#009520" stop-opacity="0.66"/>
<stop offset="1" stop-color="#036217" stop-opacity="0.66"/>
</radialGradient>
<radialGradient id="paint18_radial_8176_415" cx="0" cy="0" r="1" gradientUnits="userSpaceOnUse" gradientTransform="translate(135.536 46.8607) rotate(-112.374) scale(18.8578 23.7722)">
<stop offset="0.622856" stop-color="#77FFA2" stop-opacity="0"/>
<stop offset="1" stop-color="#77FFA2" stop-opacity="0.33"/>
</radialGradient>
<radialGradient id="paint19_radial_8176_415" cx="0" cy="0" r="1" gradientUnits="userSpaceOnUse" gradientTransform="translate(164.782 53.4536) rotate(85.854) scale(16.1552 32.3406)">
<stop stop-color="#6CE4FF"/>
<stop offset="1" stop-color="#4A8FFF"/>
</radialGradient>
<radialGradient id="paint20_radial_8176_415" cx="0" cy="0" r="1" gradientUnits="userSpaceOnUse" gradientTransform="translate(161.948 55.024) rotate(88.1793) scale(13.9932 22.1762)">
<stop offset="0.705" stop-color="#4A92FF" stop-opacity="0"/>
<stop offset="0.925" stop-color="#0244A9" stop-opacity="0.75"/>
</radialGradient>
<radialGradient id="paint21_radial_8176_415" cx="0" cy="0" r="1" gradientUnits="userSpaceOnUse" gradientTransform="translate(161.724 73.1272) rotate(-109.109) scale(17.8666 22.5226)">
<stop offset="0.798837" stop-color="#6CE4FF" stop-opacity="0"/>
<stop offset="1" stop-color="#6CE4FF" stop-opacity="0.33"/>
</radialGradient>
<radialGradient id="paint22_radial_8176_415" cx="0" cy="0" r="1" gradientUnits="userSpaceOnUse" gradientTransform="translate(172.624 58.9037) rotate(159.582) scale(10.4431 18.8245)">
<stop stop-color="#5694F3" stop-opacity="0.66"/>
<stop offset="1" stop-color="#5694F3" stop-opacity="0"/>
</radialGradient>
<radialGradient id="paint23_radial_8176_415" cx="0" cy="0" r="1" gradientUnits="userSpaceOnUse" gradientTransform="translate(143.246 71.7191) rotate(85.854) scale(16.1552 32.3406)">
<stop stop-color="#E9B0FF"/>
<stop offset="1" stop-color="#B74AFF"/>
</radialGradient>
<radialGradient id="paint24_radial_8176_415" cx="0" cy="0" r="1" gradientUnits="userSpaceOnUse" gradientTransform="translate(140.413 73.2896) rotate(88.1793) scale(13.9932 22.1762)">
<stop offset="0.705" stop-color="#ED4AFF" stop-opacity="0"/>
<stop offset="0.925" stop-color="#7F02A9" stop-opacity="0.75"/>
</radialGradient>
<radialGradient id="paint25_radial_8176_415" cx="0" cy="0" r="1" gradientUnits="userSpaceOnUse" gradientTransform="translate(140.189 91.3927) rotate(-109.109) scale(17.8666 22.5226)">
<stop offset="0.798837" stop-color="#F7BDFF" stop-opacity="0"/>
<stop offset="1" stop-color="#F7BAFF" stop-opacity="0.33"/>
</radialGradient>
<linearGradient id="paint26_linear_8176_415" x1="103.92" y1="77.0823" x2="212.656" y2="54.7501" gradientUnits="userSpaceOnUse">
<stop stop-opacity="0.77"/>
<stop offset="0.185" stop-opacity="0.4"/>
<stop offset="1" stop-opacity="0"/>
</linearGradient>
<linearGradient id="paint27_linear_8176_415" x1="54.6951" y1="102.434" x2="59.4204" y2="109.755" gradientUnits="userSpaceOnUse">
<stop stop-color="#C37B3D"/>
<stop offset="0.52" stop-color="#813C12"/>
<stop offset="0.915" stop-color="#5B2605"/>
</linearGradient>
<linearGradient id="paint28_linear_8176_415" x1="54.6951" y1="102.434" x2="59.4204" y2="109.755" gradientUnits="userSpaceOnUse">
<stop stop-color="#C37B3D"/>
<stop offset="0.52" stop-color="#813C12"/>
<stop offset="0.915" stop-color="#A4653E"/>
</linearGradient>
<radialGradient id="paint29_radial_8176_415" cx="0" cy="0" r="1" gradientUnits="userSpaceOnUse" gradientTransform="translate(73.9706 95.5878) rotate(127.163) scale(10.5708 10.8919)">
<stop stop-color="#793B05"/>
<stop offset="1" stop-color="#824006" stop-opacity="0"/>
</radialGradient>
<radialGradient id="paint30_radial_8176_415" cx="0" cy="0" r="1" gradientUnits="userSpaceOnUse" gradientTransform="translate(50.1045 107.791) rotate(-32.3298) scale(29.4255 4.10836)">
<stop stop-color="#FFBF89" stop-opacity="0.66"/>
<stop offset="1" stop-color="#FFBD87" stop-opacity="0"/>
</radialGradient>
<linearGradient id="paint31_linear_8176_415" x1="101.083" y1="70.6225" x2="106.94" y2="79.4706" gradientUnits="userSpaceOnUse">
<stop stop-color="#C37B3D"/>
<stop offset="0.72" stop-color="#813C12"/>
<stop offset="0.915" stop-color="#5B2605"/>
</linearGradient>
<linearGradient id="paint32_linear_8176_415" x1="101.083" y1="70.6225" x2="106.94" y2="79.4706" gradientUnits="userSpaceOnUse">
<stop stop-color="#C37B3D"/>
<stop offset="0.72" stop-color="#813C12"/>
<stop offset="0.915" stop-color="#9A5226"/>
</linearGradient>
<radialGradient id="paint33_radial_8176_415" cx="0" cy="0" r="1" gradientUnits="userSpaceOnUse" gradientTransform="translate(159.979 38.4488) rotate(147.907) scale(110.49 3.37177)">
<stop stop-color="#FFBF89" stop-opacity="0.66"/>
<stop offset="1" stop-color="#FFBD87" stop-opacity="0"/>
</radialGradient>
<radialGradient id="paint34_radial_8176_415" cx="0" cy="0" r="1" gradientUnits="userSpaceOnUse" gradientTransform="translate(87.7227 83.663) rotate(147.263) scale(24.4168 2.11144)">
<stop stop-color="#FFBF89" stop-opacity="0.44"/>
<stop offset="1" stop-color="#FFBD87" stop-opacity="0"/>
</radialGradient>
<radialGradient id="paint35_radial_8176_415" cx="0" cy="0" r="1" gradientUnits="userSpaceOnUse" gradientTransform="translate(69.2575 95.5642) rotate(-33.3794) scale(116.372 100.956)">
<stop offset="0.979645" stop-color="#5D3A0D" stop-opacity="0"/>
<stop offset="1" stop-color="#5D3A0D"/>
</radialGradient>
<radialGradient id="paint36_radial_8176_415" cx="0" cy="0" r="1" gradientUnits="userSpaceOnUse" gradientTransform="translate(201.884 32.8267) rotate(-142.696) scale(35.1972 102.609)">
<stop stop-color="#B44521"/>
<stop offset="0.402717" stop-color="#FCC65D"/>
<stop offset="0.809207" stop-color="#FCC65D"/>
<stop offset="0.97" stop-color="#FFF1AF"/>
</radialGradient>
<radialGradient id="paint37_radial_8176_415" cx="0" cy="0" r="1" gradientUnits="userSpaceOnUse" gradientTransform="translate(184.638 31.4736) rotate(-110.055) scale(10.5144 26.1102)">
<stop stop-color="#EDAE00"/>
<stop offset="1" stop-color="#AE4A12" stop-opacity="0"/>
</radialGradient>
<radialGradient id="paint38_radial_8176_415" cx="0" cy="0" r="1" gradientUnits="userSpaceOnUse" gradientTransform="translate(177.219 15.3282) rotate(73.2694) scale(30.1049 120.421)">
<stop stop-color="#B44521" stop-opacity="0"/>
<stop offset="0.551182" stop-color="#CE5E3A"/>
<stop offset="1" stop-color="#E58667"/>
</radialGradient>
<radialGradient id="paint39_radial_8176_415" cx="0" cy="0" r="1" gradientUnits="userSpaceOnUse" gradientTransform="translate(185.718 29.9928) rotate(59.8586) scale(5.97383 34.4323)">
<stop offset="0.230422" stop-color="#BC7864" stop-opacity="0"/>
<stop offset="0.768093" stop-color="#AA2F09"/>
</radialGradient>
<radialGradient id="paint40_radial_8176_415" cx="0" cy="0" r="1" gradientUnits="userSpaceOnUse" gradientTransform="translate(187.385 21.6605) rotate(58.5704) scale(7.03091 41.0726)">
<stop offset="0.14" stop-color="#FDDD8A"/>
<stop offset="0.558709" stop-color="#EFB863"/>
<stop offset="1" stop-color="#B23E19"/>
</radialGradient>
<radialGradient id="paint41_radial_8176_415" cx="0" cy="0" r="1" gradientUnits="userSpaceOnUse" gradientTransform="translate(189.915 24.767) rotate(-107.896) scale(11.3401 48.5425)">
<stop offset="0.230422" stop-color="#FFF2B1" stop-opacity="0"/>
<stop offset="1" stop-color="#FFF2B1"/>
</radialGradient>
<radialGradient id="paint42_radial_8176_415" cx="0" cy="0" r="1" gradientUnits="userSpaceOnUse" gradientTransform="translate(187.084 25.8953) rotate(-107.313) scale(8.07951 47.1763)">
<stop offset="0.243867" stop-color="#FFF2B1" stop-opacity="0"/>
<stop offset="1" stop-color="#FFF2B1"/>
</radialGradient>
<linearGradient id="paint43_linear_8176_415" x1="167.261" y1="27.0337" x2="177.794" y2="44.2868" gradientUnits="userSpaceOnUse">
<stop offset="0.17" stop-color="#99A7B4"/>
<stop offset="0.645" stop-color="#365169"/>
<stop offset="1" stop-color="#779CBE"/>
</linearGradient>
<linearGradient id="paint44_linear_8176_415" x1="167.261" y1="27.0337" x2="177.794" y2="44.2868" gradientUnits="userSpaceOnUse">
<stop offset="0.17" stop-color="#ADCCE7"/>
<stop offset="0.645" stop-color="#365169"/>
<stop offset="1" stop-color="#9BBEDE"/>
</linearGradient>
<radialGradient id="paint45_radial_8176_415" cx="0" cy="0" r="1" gradientUnits="userSpaceOnUse" gradientTransform="translate(154.495 44.0363) rotate(-28.7055) scale(7.72765 37.9459)">
<stop stop-color="#5DAEF3"/>
<stop offset="0.462233" stop-color="#7AABD5" stop-opacity="0"/>
</radialGradient>
<radialGradient id="paint46_radial_8176_415" cx="0" cy="0" r="1" gradientUnits="userSpaceOnUse" gradientTransform="translate(153.307 47.7045) rotate(-38.6469) scale(29.5739 59.9649)">
<stop offset="0.898189" stop-color="#6B849A" stop-opacity="0"/>
<stop offset="1" stop-color="#0D375D" stop-opacity="0.6"/>
</radialGradient>
<radialGradient id="paint47_radial_8176_415" cx="0" cy="0" r="1" gradientUnits="userSpaceOnUse" gradientTransform="translate(167.871 31.8255) rotate(56.1116) scale(3.98127 26.7136)">
<stop stop-color="#AED5F7"/>
<stop offset="0.719128" stop-color="#9ABDDC" stop-opacity="0"/>
</radialGradient>
<radialGradient id="paint48_radial_8176_415" cx="0" cy="0" r="1" gradientUnits="userSpaceOnUse" gradientTransform="translate(161.762 39.6505) rotate(-38.2857) scale(4.96134 21.9738)">
<stop stop-color="#AED5F7"/>
<stop offset="0.51516" stop-color="#AED5F7" stop-opacity="0"/>
</radialGradient>
<radialGradient id="paint49_radial_8176_415" cx="0" cy="0" r="1" gradientUnits="userSpaceOnUse" gradientTransform="translate(168.749 32.5688) rotate(56.7456) scale(12.1562 13.1425)">
<stop stop-color="#A5F1FE" stop-opacity="0.35"/>
<stop offset="0.785379" stop-color="#A5F1FE" stop-opacity="0"/>
</radialGradient>
</defs>
</svg>
