<svg viewBox="0 0 240 120" fill="none" xmlns="http://www.w3.org/2000/svg">
<path fill-rule="evenodd" clip-rule="evenodd" d="M127.075 120H119.796L200.61 64.6685C201.182 64.2767 201.913 64.1998 202.554 64.4638L239.292 79.591V84.0381L202.016 68.6893L127.075 120Z" fill="url(#paint0_radial_2205_4898)"/>
<path fill-rule="evenodd" clip-rule="evenodd" d="M127.075 120H119.796L200.61 64.6685C201.182 64.2767 201.913 64.1998 202.554 64.4638L239.292 79.591V84.0381L202.016 68.6893L127.075 120Z" fill="#A3A5B7"/>
<path fill-rule="evenodd" clip-rule="evenodd" d="M239.292 85.8991V119.999H125.842L202.607 67.9417L239.171 83.3817L239.292 85.8991Z" fill="url(#paint1_linear_2205_4898)"/>
<path fill-rule="evenodd" clip-rule="evenodd" d="M160.865 120H125.648L138.965 110.973L160.865 120ZM195.949 120H160.974L160.78 119.92L181.909 105.597L203.853 114.642L195.949 120ZM231.408 120H216.485L203.822 114.78L224.951 100.457L239.292 106.369V114.656L231.408 120ZM239.292 83.1009V90.6732L225.109 100.287L203.165 91.242L224.295 76.9189L239.292 83.1009ZM160.221 96.6169L181.35 82.294L203.294 91.3393L182.165 105.662L160.221 96.6169Z" fill="url(#paint2_linear_2205_4898)"/>
<path d="M59.9646 100.278C76.7392 94.0165 87.3135 80.8383 84.2299 72.5768C83.2078 69.8386 79.9954 63.7444 77.6164 61.9206C72.7892 55.6942 59.055 54.692 44.9189 59.9683C30.7828 65.2447 21.0642 75.0008 21.4972 82.8673C20.895 85.8039 22.4616 92.5124 23.4836 95.2506C26.5673 103.512 43.19 106.539 59.9646 100.278Z" fill="url(#paint3_radial_2205_4898)"/>
<path d="M59.9646 100.278C76.7392 94.0165 87.3135 80.8383 84.2299 72.5768C83.2078 69.8386 79.9954 63.7444 77.6164 61.9206C72.7892 55.6942 59.055 54.692 44.9189 59.9683C30.7828 65.2447 21.0642 75.0008 21.4972 82.8673C20.895 85.8039 22.4616 92.5124 23.4836 95.2506C26.5673 103.512 43.19 106.539 59.9646 100.278Z" fill="url(#paint4_radial_2205_4898)"/>
<path d="M78.8811 64.1801C81.9366 72.3661 71.6853 83.753 55.9843 89.6135C40.2832 95.474 25.0781 93.5888 22.0226 85.4028C18.9671 77.2168 29.2184 65.8298 44.9194 59.9693C60.6205 54.1089 75.8256 55.9941 78.8811 64.1801Z" fill="#009FF9"/>
<path d="M78.8811 64.1801C81.9366 72.3661 71.6853 83.753 55.9843 89.6135C40.2832 95.474 25.0781 93.5888 22.0226 85.4028C18.9671 77.2168 29.2184 65.8298 44.9194 59.9693C60.6205 54.1089 75.8256 55.9941 78.8811 64.1801Z" fill="url(#paint5_radial_2205_4898)"/>
<path d="M78.8811 64.1801C81.9366 72.3661 71.6853 83.753 55.9843 89.6135C40.2832 95.474 25.0781 93.5888 22.0226 85.4028C18.9671 77.2168 29.2184 65.8298 44.9194 59.9693C60.6205 54.1089 75.8256 55.9941 78.8811 64.1801Z" fill="url(#paint6_radial_2205_4898)"/>
<path d="M78.8811 64.1801C81.9366 72.3661 71.6853 83.753 55.9843 89.6135C40.2832 95.474 25.0781 93.5888 22.0226 85.4028C18.9671 77.2168 29.2184 65.8298 44.9194 59.9693C60.6205 54.1089 75.8256 55.9941 78.8811 64.1801Z" fill="url(#paint7_radial_2205_4898)"/>
<path d="M70.5822 64.9383C72.5355 70.1714 64.7631 77.9059 53.222 82.2136C41.6809 86.5214 30.7416 85.7712 28.7883 80.5381C28.2437 79.0792 27.9484 77.3881 29.1585 76.229C38.6806 67.1081 34.0632 46.0748 30.5599 36.6891L40.5133 32.9739C44.0166 42.3596 54.3099 61.2744 67.4795 61.9255C68.9219 61.9958 70.1354 63.7412 70.5822 64.9383Z" fill="url(#paint8_radial_2205_4898)"/>
<path d="M70.5822 64.9383C72.5355 70.1714 64.7631 77.9059 53.222 82.2136C41.6809 86.5214 30.7416 85.7712 28.7883 80.5381C28.2437 79.0792 27.9484 77.3881 29.1585 76.229C38.6806 67.1081 34.0632 46.0748 30.5599 36.6891L40.5133 32.9739C44.0166 42.3596 54.3099 61.2744 67.4795 61.9255C68.9219 61.9958 70.1354 63.7412 70.5822 64.9383Z" fill="url(#paint9_radial_2205_4898)"/>
<path d="M70.5822 64.9383C72.5355 70.1714 64.7631 77.9059 53.222 82.2136C41.6809 86.5214 30.7416 85.7712 28.7883 80.5381C28.2437 79.0792 27.9484 77.3881 29.1585 76.229C38.6806 67.1081 34.0632 46.0748 30.5599 36.6891L40.5133 32.9739C44.0166 42.3596 54.3099 61.2744 67.4795 61.9255C68.9219 61.9958 70.1354 63.7412 70.5822 64.9383Z" fill="url(#paint10_radial_2205_4898)"/>
<path d="M70.5822 64.9383C72.5355 70.1714 64.7631 77.9059 53.222 82.2136C41.6809 86.5214 30.7416 85.7712 28.7883 80.5381C28.2437 79.0792 27.9484 77.3881 29.1585 76.229C38.6806 67.1081 34.0632 46.0748 30.5599 36.6891L40.5133 32.9739C44.0166 42.3596 54.3099 61.2744 67.4795 61.9255C68.9219 61.9958 70.1354 63.7412 70.5822 64.9383Z" fill="url(#paint11_radial_2205_4898)"/>
<path d="M44.8154 26.8009C46.5433 31.4302 43.1197 36.9837 37.1685 39.205C31.2173 41.4263 24.9922 39.4742 23.2643 34.845C21.5364 30.2157 24.9601 24.6622 30.9112 22.4409C36.8624 20.2196 43.0875 22.1717 44.8154 26.8009Z" fill="url(#paint12_radial_2205_4898)"/>
<path d="M42.6163 24.502C43.7796 27.6188 40.4256 31.7494 35.1248 33.728C29.8241 35.7065 24.5838 34.7838 23.4205 31.667C22.2571 28.5502 25.6112 24.4196 30.9119 22.441C36.2127 20.4625 41.4529 21.3852 42.6163 24.502Z" fill="url(#paint13_radial_2205_4898)"/>
<path d="M29.66 91.0074C33.7694 93.4876 39.8545 94.2892 48.9038 92.1296C42.7026 97.7663 31.8367 96.839 29.66 91.0074Z" fill="url(#paint14_radial_2205_4898)"/>
<path d="M29.66 91.0074C33.7694 93.4876 39.8545 94.2892 48.9038 92.1296C42.7026 97.7663 31.8367 96.839 29.66 91.0074Z" fill="url(#paint15_radial_2205_4898)"/>
<path d="M39.7078 75.6095C39.8206 76.7139 38.4393 77.7597 36.6224 77.9453C34.8056 78.131 33.2412 77.3862 33.1284 76.2818C33.0155 75.1775 34.3969 74.1317 36.2137 73.9461C38.0306 73.7604 39.5949 74.5052 39.7078 75.6095Z" fill="url(#paint16_radial_2205_4898)"/>
<path d="M31.7945 32.3793C32.0801 33.1443 31.2912 34.1454 30.0326 34.6152C28.774 35.0849 27.5222 34.8456 27.2366 34.0805C26.9511 33.3155 27.7399 32.3145 28.9985 31.8447C30.2572 31.3749 31.509 31.6143 31.7945 32.3793Z" fill="url(#paint17_radial_2205_4898)"/>
<path d="M77.4089 37.6719C74.4079 37.2952 73.3945 33.9404 73.9692 32.2194C77.1032 31.5369 86.774 21.6334 86.0036 17.7711C87.5056 14.9472 95.2827 11.4645 98.9835 10.0761C99.9991 9.1277 98.9643 4.51506 99.7369 4.0741C100.509 3.63314 105.826 6.99021 104.785 13.8528C108.013 16.7086 114.932 23.3031 116.784 26.8348C117.033 27.703 119.677 30.0671 128.256 32.5785C138.979 35.7177 154.338 37.6456 156.655 37.757C158.972 37.8685 162.504 34.5822 161.623 32.4632C160.521 29.8145 163.5 28.9333 165.684 31.5384C167.867 34.1436 166.804 41.1827 165.831 46.0813C164.857 50.9798 165.625 60.5798 165.027 63.9117C164.429 67.2437 159.043 71.5883 158.444 76.3546C157.846 81.121 160.625 83.263 157.469 84.122C147.603 87.0078 142.795 82.4593 144.208 81.2022C145.621 79.9451 146.395 76.6353 146.44 74.8478C146.485 73.0603 139.205 69.636 138.611 65.7959C132.122 66.5355 120.118 65.985 116.193 60.1129C113.257 62.0754 107.313 67.1391 107.029 71.6938C106.672 77.3871 92.5079 71.6643 93.9652 70.054C95.4225 68.4438 102.184 51.7199 103.423 46.1373C104.661 40.5548 99.742 36.889 96.3192 41.3008C92.8964 45.7126 87.1565 50.0129 84.8838 49.5483C82.611 49.0837 77.0101 40.8495 77.4089 37.6719Z" fill="url(#paint18_radial_2205_4898)"/>
<path d="M77.4089 37.6719C74.4079 37.2952 73.3945 33.9404 73.9692 32.2194C77.1032 31.5369 86.774 21.6334 86.0036 17.7711C87.5056 14.9472 95.2827 11.4645 98.9835 10.0761C99.9991 9.1277 98.9643 4.51506 99.7369 4.0741C100.509 3.63314 105.826 6.99021 104.785 13.8528C108.013 16.7086 114.932 23.3031 116.784 26.8348C117.033 27.703 119.677 30.0671 128.256 32.5785C138.979 35.7177 154.338 37.6456 156.655 37.757C158.972 37.8685 162.504 34.5822 161.623 32.4632C160.521 29.8145 163.5 28.9333 165.684 31.5384C167.867 34.1436 166.804 41.1827 165.831 46.0813C164.857 50.9798 165.625 60.5798 165.027 63.9117C164.429 67.2437 159.043 71.5883 158.444 76.3546C157.846 81.121 160.625 83.263 157.469 84.122C147.603 87.0078 142.795 82.4593 144.208 81.2022C145.621 79.9451 146.395 76.6353 146.44 74.8478C146.485 73.0603 139.205 69.636 138.611 65.7959C132.122 66.5355 120.118 65.985 116.193 60.1129C113.257 62.0754 107.313 67.1391 107.029 71.6938C106.672 77.3871 92.5079 71.6643 93.9652 70.054C95.4225 68.4438 102.184 51.7199 103.423 46.1373C104.661 40.5548 99.742 36.889 96.3192 41.3008C92.8964 45.7126 87.1565 50.0129 84.8838 49.5483C82.611 49.0837 77.0101 40.8495 77.4089 37.6719Z" fill="url(#paint19_radial_2205_4898)"/>
<path d="M77.4089 37.6719C74.4079 37.2952 73.3945 33.9404 73.9692 32.2194C77.1032 31.5369 86.774 21.6334 86.0036 17.7711C87.5056 14.9472 95.2827 11.4645 98.9835 10.0761C99.9991 9.1277 98.9643 4.51506 99.7369 4.0741C100.509 3.63314 105.826 6.99021 104.785 13.8528C108.013 16.7086 114.932 23.3031 116.784 26.8348C117.033 27.703 119.677 30.0671 128.256 32.5785C138.979 35.7177 154.338 37.6456 156.655 37.757C158.972 37.8685 162.504 34.5822 161.623 32.4632C160.521 29.8145 163.5 28.9333 165.684 31.5384C167.867 34.1436 166.804 41.1827 165.831 46.0813C164.857 50.9798 165.625 60.5798 165.027 63.9117C164.429 67.2437 159.043 71.5883 158.444 76.3546C157.846 81.121 160.625 83.263 157.469 84.122C147.603 87.0078 142.795 82.4593 144.208 81.2022C145.621 79.9451 146.395 76.6353 146.44 74.8478C146.485 73.0603 139.205 69.636 138.611 65.7959C132.122 66.5355 120.118 65.985 116.193 60.1129C113.257 62.0754 107.313 67.1391 107.029 71.6938C106.672 77.3871 92.5079 71.6643 93.9652 70.054C95.4225 68.4438 102.184 51.7199 103.423 46.1373C104.661 40.5548 99.742 36.889 96.3192 41.3008C92.8964 45.7126 87.1565 50.0129 84.8838 49.5483C82.611 49.0837 77.0101 40.8495 77.4089 37.6719Z" fill="url(#paint20_radial_2205_4898)"/>
<path d="M77.4089 37.6719C74.4079 37.2952 73.3945 33.9404 73.9692 32.2194C77.1032 31.5369 86.774 21.6334 86.0036 17.7711C87.5056 14.9472 95.2827 11.4645 98.9835 10.0761C99.9991 9.1277 98.9643 4.51506 99.7369 4.0741C100.509 3.63314 105.826 6.99021 104.785 13.8528C108.013 16.7086 114.932 23.3031 116.784 26.8348C117.033 27.703 119.677 30.0671 128.256 32.5785C138.979 35.7177 154.338 37.6456 156.655 37.757C158.972 37.8685 162.504 34.5822 161.623 32.4632C160.521 29.8145 163.5 28.9333 165.684 31.5384C167.867 34.1436 166.804 41.1827 165.831 46.0813C164.857 50.9798 165.625 60.5798 165.027 63.9117C164.429 67.2437 159.043 71.5883 158.444 76.3546C157.846 81.121 160.625 83.263 157.469 84.122C147.603 87.0078 142.795 82.4593 144.208 81.2022C145.621 79.9451 146.395 76.6353 146.44 74.8478C146.485 73.0603 139.205 69.636 138.611 65.7959C132.122 66.5355 120.118 65.985 116.193 60.1129C113.257 62.0754 107.313 67.1391 107.029 71.6938C106.672 77.3871 92.5079 71.6643 93.9652 70.054C95.4225 68.4438 102.184 51.7199 103.423 46.1373C104.661 40.5548 99.742 36.889 96.3192 41.3008C92.8964 45.7126 87.1565 50.0129 84.8838 49.5483C82.611 49.0837 77.0101 40.8495 77.4089 37.6719Z" fill="url(#paint21_radial_2205_4898)"/>
<path d="M77.4089 37.6719C74.4079 37.2952 73.3945 33.9404 73.9692 32.2194C77.1032 31.5369 86.774 21.6334 86.0036 17.7711C87.5056 14.9472 95.2827 11.4645 98.9835 10.0761C99.9991 9.1277 98.9643 4.51506 99.7369 4.0741C100.509 3.63314 105.826 6.99021 104.785 13.8528C108.013 16.7086 114.932 23.3031 116.784 26.8348C117.033 27.703 119.677 30.0671 128.256 32.5785C138.979 35.7177 154.338 37.6456 156.655 37.757C158.972 37.8685 162.504 34.5822 161.623 32.4632C160.521 29.8145 163.5 28.9333 165.684 31.5384C167.867 34.1436 166.804 41.1827 165.831 46.0813C164.857 50.9798 165.625 60.5798 165.027 63.9117C164.429 67.2437 159.043 71.5883 158.444 76.3546C157.846 81.121 160.625 83.263 157.469 84.122C147.603 87.0078 142.795 82.4593 144.208 81.2022C145.621 79.9451 146.395 76.6353 146.44 74.8478C146.485 73.0603 139.205 69.636 138.611 65.7959C132.122 66.5355 120.118 65.985 116.193 60.1129C113.257 62.0754 107.313 67.1391 107.029 71.6938C106.672 77.3871 92.5079 71.6643 93.9652 70.054C95.4225 68.4438 102.184 51.7199 103.423 46.1373C104.661 40.5548 99.742 36.889 96.3192 41.3008C92.8964 45.7126 87.1565 50.0129 84.8838 49.5483C82.611 49.0837 77.0101 40.8495 77.4089 37.6719Z" fill="url(#paint22_radial_2205_4898)"/>
<path d="M77.4089 37.6719C74.4079 37.2952 73.3945 33.9404 73.9692 32.2194C77.1032 31.5369 86.774 21.6334 86.0036 17.7711C87.5056 14.9472 95.2827 11.4645 98.9835 10.0761C99.9991 9.1277 98.9643 4.51506 99.7369 4.0741C100.509 3.63314 105.826 6.99021 104.785 13.8528C108.013 16.7086 114.932 23.3031 116.784 26.8348C117.033 27.703 119.677 30.0671 128.256 32.5785C138.979 35.7177 154.338 37.6456 156.655 37.757C158.972 37.8685 162.504 34.5822 161.623 32.4632C160.521 29.8145 163.5 28.9333 165.684 31.5384C167.867 34.1436 166.804 41.1827 165.831 46.0813C164.857 50.9798 165.625 60.5798 165.027 63.9117C164.429 67.2437 159.043 71.5883 158.444 76.3546C157.846 81.121 160.625 83.263 157.469 84.122C147.603 87.0078 142.795 82.4593 144.208 81.2022C145.621 79.9451 146.395 76.6353 146.44 74.8478C146.485 73.0603 139.205 69.636 138.611 65.7959C132.122 66.5355 120.118 65.985 116.193 60.1129C113.257 62.0754 107.313 67.1391 107.029 71.6938C106.672 77.3871 92.5079 71.6643 93.9652 70.054C95.4225 68.4438 102.184 51.7199 103.423 46.1373C104.661 40.5548 99.742 36.889 96.3192 41.3008C92.8964 45.7126 87.1565 50.0129 84.8838 49.5483C82.611 49.0837 77.0101 40.8495 77.4089 37.6719Z" fill="url(#paint23_radial_2205_4898)"/>
<path d="M77.4089 37.6719C74.4079 37.2952 73.3945 33.9404 73.9692 32.2194C77.1032 31.5369 86.774 21.6334 86.0036 17.7711C87.5056 14.9472 95.2827 11.4645 98.9835 10.0761C99.9991 9.1277 98.9643 4.51506 99.7369 4.0741C100.509 3.63314 105.826 6.99021 104.785 13.8528C108.013 16.7086 114.932 23.3031 116.784 26.8348C117.033 27.703 119.677 30.0671 128.256 32.5785C138.979 35.7177 154.338 37.6456 156.655 37.757C158.972 37.8685 162.504 34.5822 161.623 32.4632C160.521 29.8145 163.5 28.9333 165.684 31.5384C167.867 34.1436 166.804 41.1827 165.831 46.0813C164.857 50.9798 165.625 60.5798 165.027 63.9117C164.429 67.2437 159.043 71.5883 158.444 76.3546C157.846 81.121 160.625 83.263 157.469 84.122C147.603 87.0078 142.795 82.4593 144.208 81.2022C145.621 79.9451 146.395 76.6353 146.44 74.8478C146.485 73.0603 139.205 69.636 138.611 65.7959C132.122 66.5355 120.118 65.985 116.193 60.1129C113.257 62.0754 107.313 67.1391 107.029 71.6938C106.672 77.3871 92.5079 71.6643 93.9652 70.054C95.4225 68.4438 102.184 51.7199 103.423 46.1373C104.661 40.5548 99.742 36.889 96.3192 41.3008C92.8964 45.7126 87.1565 50.0129 84.8838 49.5483C82.611 49.0837 77.0101 40.8495 77.4089 37.6719Z" fill="url(#paint24_radial_2205_4898)"/>
<path d="M77.4089 37.6719C74.4079 37.2952 73.3945 33.9404 73.9692 32.2194C77.1032 31.5369 86.774 21.6334 86.0036 17.7711C87.5056 14.9472 95.2827 11.4645 98.9835 10.0761C99.9991 9.1277 98.9643 4.51506 99.7369 4.0741C100.509 3.63314 105.826 6.99021 104.785 13.8528C108.013 16.7086 114.932 23.3031 116.784 26.8348C117.033 27.703 119.677 30.0671 128.256 32.5785C138.979 35.7177 154.338 37.6456 156.655 37.757C158.972 37.8685 162.504 34.5822 161.623 32.4632C160.521 29.8145 163.5 28.9333 165.684 31.5384C167.867 34.1436 166.804 41.1827 165.831 46.0813C164.857 50.9798 165.625 60.5798 165.027 63.9117C164.429 67.2437 159.043 71.5883 158.444 76.3546C157.846 81.121 160.625 83.263 157.469 84.122C147.603 87.0078 142.795 82.4593 144.208 81.2022C145.621 79.9451 146.395 76.6353 146.44 74.8478C146.485 73.0603 139.205 69.636 138.611 65.7959C132.122 66.5355 120.118 65.985 116.193 60.1129C113.257 62.0754 107.313 67.1391 107.029 71.6938C106.672 77.3871 92.5079 71.6643 93.9652 70.054C95.4225 68.4438 102.184 51.7199 103.423 46.1373C104.661 40.5548 99.742 36.889 96.3192 41.3008C92.8964 45.7126 87.1565 50.0129 84.8838 49.5483C82.611 49.0837 77.0101 40.8495 77.4089 37.6719Z" fill="url(#paint25_radial_2205_4898)"/>
<path d="M77.4089 37.6719C74.4079 37.2952 73.3945 33.9404 73.9692 32.2194C77.1032 31.5369 86.774 21.6334 86.0036 17.7711C87.5056 14.9472 95.2827 11.4645 98.9835 10.0761C99.9991 9.1277 98.9643 4.51506 99.7369 4.0741C100.509 3.63314 105.826 6.99021 104.785 13.8528C108.013 16.7086 114.932 23.3031 116.784 26.8348C117.033 27.703 119.677 30.0671 128.256 32.5785C138.979 35.7177 154.338 37.6456 156.655 37.757C158.972 37.8685 162.504 34.5822 161.623 32.4632C160.521 29.8145 163.5 28.9333 165.684 31.5384C167.867 34.1436 166.804 41.1827 165.831 46.0813C164.857 50.9798 165.625 60.5798 165.027 63.9117C164.429 67.2437 159.043 71.5883 158.444 76.3546C157.846 81.121 160.625 83.263 157.469 84.122C147.603 87.0078 142.795 82.4593 144.208 81.2022C145.621 79.9451 146.395 76.6353 146.44 74.8478C146.485 73.0603 139.205 69.636 138.611 65.7959C132.122 66.5355 120.118 65.985 116.193 60.1129C113.257 62.0754 107.313 67.1391 107.029 71.6938C106.672 77.3871 92.5079 71.6643 93.9652 70.054C95.4225 68.4438 102.184 51.7199 103.423 46.1373C104.661 40.5548 99.742 36.889 96.3192 41.3008C92.8964 45.7126 87.1565 50.0129 84.8838 49.5483C82.611 49.0837 77.0101 40.8495 77.4089 37.6719Z" fill="url(#paint26_radial_2205_4898)"/>
<path d="M77.4089 37.6719C74.4079 37.2952 73.3945 33.9404 73.9692 32.2194C77.1032 31.5369 86.774 21.6334 86.0036 17.7711C87.5056 14.9472 95.2827 11.4645 98.9835 10.0761C99.9991 9.1277 98.9643 4.51506 99.7369 4.0741C100.509 3.63314 105.826 6.99021 104.785 13.8528C108.013 16.7086 114.932 23.3031 116.784 26.8348C117.033 27.703 119.677 30.0671 128.256 32.5785C138.979 35.7177 154.338 37.6456 156.655 37.757C158.972 37.8685 162.504 34.5822 161.623 32.4632C160.521 29.8145 163.5 28.9333 165.684 31.5384C167.867 34.1436 166.804 41.1827 165.831 46.0813C164.857 50.9798 165.625 60.5798 165.027 63.9117C164.429 67.2437 159.043 71.5883 158.444 76.3546C157.846 81.121 160.625 83.263 157.469 84.122C147.603 87.0078 142.795 82.4593 144.208 81.2022C145.621 79.9451 146.395 76.6353 146.44 74.8478C146.485 73.0603 139.205 69.636 138.611 65.7959C132.122 66.5355 120.118 65.985 116.193 60.1129C113.257 62.0754 107.313 67.1391 107.029 71.6938C106.672 77.3871 92.5079 71.6643 93.9652 70.054C95.4225 68.4438 102.184 51.7199 103.423 46.1373C104.661 40.5548 99.742 36.889 96.3192 41.3008C92.8964 45.7126 87.1565 50.0129 84.8838 49.5483C82.611 49.0837 77.0101 40.8495 77.4089 37.6719Z" fill="url(#paint27_radial_2205_4898)"/>
<path d="M77.4089 37.6719C74.4079 37.2952 73.3945 33.9404 73.9692 32.2194C77.1032 31.5369 86.774 21.6334 86.0036 17.7711C87.5056 14.9472 95.2827 11.4645 98.9835 10.0761C99.9991 9.1277 98.9643 4.51506 99.7369 4.0741C100.509 3.63314 105.826 6.99021 104.785 13.8528C108.013 16.7086 114.932 23.3031 116.784 26.8348C117.033 27.703 119.677 30.0671 128.256 32.5785C138.979 35.7177 154.338 37.6456 156.655 37.757C158.972 37.8685 162.504 34.5822 161.623 32.4632C160.521 29.8145 163.5 28.9333 165.684 31.5384C167.867 34.1436 166.804 41.1827 165.831 46.0813C164.857 50.9798 165.625 60.5798 165.027 63.9117C164.429 67.2437 159.043 71.5883 158.444 76.3546C157.846 81.121 160.625 83.263 157.469 84.122C147.603 87.0078 142.795 82.4593 144.208 81.2022C145.621 79.9451 146.395 76.6353 146.44 74.8478C146.485 73.0603 139.205 69.636 138.611 65.7959C132.122 66.5355 120.118 65.985 116.193 60.1129C113.257 62.0754 107.313 67.1391 107.029 71.6938C106.672 77.3871 92.5079 71.6643 93.9652 70.054C95.4225 68.4438 102.184 51.7199 103.423 46.1373C104.661 40.5548 99.742 36.889 96.3192 41.3008C92.8964 45.7126 87.1565 50.0129 84.8838 49.5483C82.611 49.0837 77.0101 40.8495 77.4089 37.6719Z" fill="url(#paint28_radial_2205_4898)"/>
<path fill-rule="evenodd" clip-rule="evenodd" d="M95.1036 68.075C94.6079 69.0808 94.2111 69.7825 93.9653 70.0542C92.508 71.6644 106.673 77.3873 107.029 71.6939C107.313 67.1393 113.257 62.0755 116.193 60.113C120.118 65.9851 132.122 66.5356 138.611 65.796C138.953 68.0069 141.511 70.08 143.612 71.7822C145.16 73.0366 146.459 74.0896 146.44 74.8479C146.395 76.6354 145.621 79.9452 144.208 81.2023C142.795 82.4595 147.604 87.0079 157.469 84.1221C159.283 83.6284 159.137 82.711 158.797 81.1152C149.374 83.5447 145.999 80.4637 147.422 79.1977C148.905 77.8786 149.324 73.039 149.371 71.1633C149.391 70.3709 147.874 69.2511 146.067 67.9181C143.598 66.0961 140.589 63.8757 140.229 61.5486C133.421 62.3247 120.824 61.747 116.705 55.5852C113.624 57.6445 106.461 62.8418 106.163 67.6212C105.894 71.9199 98.6026 70.0766 95.1036 68.075Z" fill="url(#paint29_linear_2205_4898)"/>
<path d="M92.8398 26.1604C91.9532 26.5572 89.4056 26.9487 86.3081 25.3405C86.1137 24.2702 86.1775 21.8096 87.9877 20.5306C90.7062 21.1587 92.3551 24.5455 92.8398 26.1604Z" fill="url(#paint30_radial_2205_4898)"/>
<path fill-rule="evenodd" clip-rule="evenodd" d="M114.068 23.1089C115.262 24.4999 116.24 25.799 116.783 26.8347C117.033 27.7029 119.677 30.067 128.256 32.5784C138.979 35.7176 154.337 37.6455 156.654 37.7569C157.336 37.7897 158.122 37.5287 158.87 37.0901C159.551 39.4297 160.043 41.8385 159.345 42.0394C158.66 42.2361 158.099 41.4585 157.515 40.6503C156.987 39.92 156.441 39.1646 155.771 39.0805C155.15 39.0025 155.169 39.9058 155.189 40.9182C155.215 42.2088 155.245 43.6766 153.959 43.5152C152.789 43.3683 152.273 42.0909 151.768 40.8391C151.283 39.6364 150.807 38.4573 149.769 38.3271C148.71 38.1941 148.676 39.8933 148.642 41.5925C148.608 43.2917 148.574 44.9909 147.515 44.858C146.548 44.7366 145.977 43.2445 145.356 41.6229C144.618 39.6927 143.809 37.5789 142.178 37.3742C140.48 37.161 140.773 39.3803 141.028 41.3069C141.224 42.7845 141.396 44.09 140.63 43.9938C139.781 43.8872 139.101 42.432 138.405 40.9431C137.654 39.3375 136.886 37.6927 135.867 37.6578C134.846 37.6229 135.165 39.258 135.463 40.7806C135.738 42.1873 135.995 43.4981 135.157 43.3069C134.424 43.1394 133.957 41.8634 133.426 40.4114C132.693 38.411 131.839 36.0764 129.997 35.8452C128.634 35.6741 127.769 37.0518 126.939 38.3751C125.834 40.135 124.79 41.7985 122.713 39.593C119.119 35.777 118.687 36.031 116.252 37.461C116.222 37.4789 116.191 37.497 116.16 37.5152C113.711 38.9525 111.015 35.6059 114.068 23.1089Z" fill="url(#paint31_radial_2205_4898)"/>
<path fill-rule="evenodd" clip-rule="evenodd" d="M94.8048 11.829C96.3793 11.1044 97.8669 10.4949 98.9835 10.076C99.2449 9.83195 99.3704 9.34519 99.426 8.74931C101.459 11.0186 101.691 14.4371 101.912 17.7038C102.18 21.6569 102.433 25.3877 105.846 26.5905L104.384 28.4753C99.462 27.4558 98.3309 22.9481 97.2099 18.4803C96.6042 16.066 96.0013 13.6633 94.8048 11.829ZM86.5269 17.0258C87.4841 15.913 89.2244 14.7389 91.173 13.6564C95.3894 14.668 96.7305 18.8011 97.9978 22.7065C99.2207 26.4753 100.375 30.0321 103.978 30.3674L103.019 32.5514C97.9969 32.7618 95.8018 28.6654 93.6261 24.6052C91.7997 21.1968 89.9869 17.8139 86.5269 17.0258Z" fill="url(#paint32_radial_2205_4898)"/>
<path fill-rule="evenodd" clip-rule="evenodd" d="M155.011 37.6073C155.774 37.6895 156.338 37.739 156.656 37.7543C158.003 37.8191 159.761 36.7356 160.824 35.4007L161.263 35.8254C158.926 39.1569 159.942 42.9091 161.069 47.071C162.507 52.3798 164.124 58.355 159.194 64.9732L157.717 64.0767C160.787 58.8877 158.759 53.2947 156.873 48.0912L156.873 48.0911L156.873 48.0911C156.023 45.7463 155.202 43.4806 154.889 41.3665C154.74 43.054 154.239 44.6854 153.731 46.3412L153.731 46.3412C152.326 50.9157 150.865 55.6764 156.62 62.3194L154.148 62.0091C147.422 57.9282 147.723 51.7836 148.028 45.5533C148.177 42.5216 148.326 39.4695 147.668 36.625C150.457 37.0515 152.856 37.3648 154.517 37.5527C154.641 37.9621 154.734 38.3657 154.801 38.7643C154.841 38.3712 154.91 37.9853 155.011 37.6073ZM132.466 33.6962C134.212 34.1213 136.013 34.5173 137.808 34.8822C137.075 37.618 135.24 40.1926 133.472 42.673C130.851 46.3503 128.377 49.8207 129.86 53.3033L127.522 53.9285C124.876 49.5365 127.3 44.7576 129.702 40.021C130.782 37.8912 131.858 35.7699 132.466 33.6962ZM114.277 23.35C115.271 27.292 113.503 32.1073 111.713 36.9818C109.581 42.789 107.418 48.6801 109.858 53.2785L111.505 52.7604C110.205 49.1734 112.518 44.2851 114.96 39.1252C115.559 37.8606 116.165 36.5797 116.727 35.2976L116.65 35.623C115.484 40.5483 114.275 45.6494 117.49 49.7872L119.024 48.9935C117.104 45.6454 118.644 41.2935 120.233 36.8003L120.233 36.8003C120.983 34.6816 121.743 32.5316 122.157 30.4405C118.335 28.8077 116.962 27.4459 116.785 26.8321C116.274 25.8571 115.377 24.6487 114.277 23.35ZM123.252 30.8884C124.637 31.4323 126.291 32.0002 128.258 32.5758C128.515 32.6512 128.776 32.726 129.039 32.8C129.039 36.0469 127.755 39.4416 126.519 42.7081C124.748 47.3901 123.077 51.8087 125.429 55.1512L123.205 56.4682C119.45 52.4666 120.753 46.6526 122.044 40.8899C122.826 37.3991 123.605 33.9271 123.252 30.8884ZM138.529 35.0272C141.596 35.6369 144.623 36.1545 147.309 36.5699C147.592 39.821 146.452 43.3056 145.357 46.6559C143.819 51.3597 142.367 55.7989 145.057 58.9562L142.817 60.3751C138.612 56.6474 139.583 50.856 140.546 45.1158C140.873 43.1656 141.199 41.2213 141.32 39.3658C140.696 40.3789 140.024 41.3813 139.36 42.3702C136.607 46.4755 134.012 50.3458 135.639 53.7646L135.306 56.4126C130.516 50.2476 133.477 44.758 136.303 39.5187C137.12 38.004 137.926 36.5103 138.529 35.0272Z" fill="url(#paint33_radial_2205_4898)"/>
<path fill-rule="evenodd" clip-rule="evenodd" d="M155.011 37.6073C155.774 37.6895 156.338 37.739 156.656 37.7543C158.003 37.8191 159.761 36.7356 160.824 35.4007L161.263 35.8254C158.926 39.1569 159.942 42.9091 161.069 47.071C162.507 52.3798 164.124 58.355 159.194 64.9732L157.717 64.0767C160.787 58.8877 158.759 53.2947 156.873 48.0912L156.873 48.0911L156.873 48.0911C156.023 45.7463 155.202 43.4806 154.889 41.3665C154.74 43.054 154.239 44.6854 153.731 46.3412L153.731 46.3412C152.326 50.9157 150.865 55.6764 156.62 62.3194L154.148 62.0091C147.422 57.9282 147.723 51.7836 148.028 45.5533C148.177 42.5216 148.326 39.4695 147.668 36.625C150.457 37.0515 152.856 37.3648 154.517 37.5527C154.641 37.9621 154.734 38.3657 154.801 38.7643C154.841 38.3712 154.91 37.9853 155.011 37.6073ZM132.466 33.6962C134.212 34.1213 136.013 34.5173 137.808 34.8822C137.075 37.618 135.24 40.1926 133.472 42.673C130.851 46.3503 128.377 49.8207 129.86 53.3033L127.522 53.9285C124.876 49.5365 127.3 44.7576 129.702 40.021C130.782 37.8912 131.858 35.7699 132.466 33.6962ZM114.277 23.35C115.271 27.292 113.503 32.1073 111.713 36.9818C109.581 42.789 107.418 48.6801 109.858 53.2785L111.505 52.7604C110.205 49.1734 112.518 44.2851 114.96 39.1252C115.559 37.8606 116.165 36.5797 116.727 35.2976L116.65 35.623C115.484 40.5483 114.275 45.6494 117.49 49.7872L119.024 48.9935C117.104 45.6454 118.644 41.2935 120.233 36.8003L120.233 36.8003C120.983 34.6816 121.743 32.5316 122.157 30.4405C118.335 28.8077 116.962 27.4459 116.785 26.8321C116.274 25.8571 115.377 24.6487 114.277 23.35ZM123.252 30.8884C124.637 31.4323 126.291 32.0002 128.258 32.5758C128.515 32.6512 128.776 32.726 129.039 32.8C129.039 36.0469 127.755 39.4416 126.519 42.7081C124.748 47.3901 123.077 51.8087 125.429 55.1512L123.205 56.4682C119.45 52.4666 120.753 46.6526 122.044 40.8899C122.826 37.3991 123.605 33.9271 123.252 30.8884ZM138.529 35.0272C141.596 35.6369 144.623 36.1545 147.309 36.5699C147.592 39.821 146.452 43.3056 145.357 46.6559C143.819 51.3597 142.367 55.7989 145.057 58.9562L142.817 60.3751C138.612 56.6474 139.583 50.856 140.546 45.1158C140.873 43.1656 141.199 41.2213 141.32 39.3658C140.696 40.3789 140.024 41.3813 139.36 42.3702C136.607 46.4755 134.012 50.3458 135.639 53.7646L135.306 56.4126C130.516 50.2476 133.477 44.758 136.303 39.5187C137.12 38.004 137.926 36.5103 138.529 35.0272Z" fill="url(#paint34_radial_2205_4898)"/>
<path d="M85.5024 47.474C82.48 45.8394 77.495 41.2687 78.1162 34.8914L81.4496 32.6202C80.7856 36.4817 84.0038 43.6996 87.2907 46.0846L85.5024 47.474Z" fill="url(#paint35_radial_2205_4898)"/>
<path fill-rule="evenodd" clip-rule="evenodd" d="M165.246 61.2519C162.405 65.4739 156.33 69.9193 152.131 70.5838L153.325 73.2052C155.193 73.1605 157.785 72.7093 160.375 71.6045C160.96 70.6704 161.612 69.7645 162.24 68.8922C163.554 67.0671 164.762 65.3897 165.027 63.9116C165.146 63.246 165.211 62.3303 165.246 61.2519ZM159.748 72.6696C159.096 73.861 158.602 75.093 158.444 76.3544C158.305 77.4597 158.348 78.4239 158.457 79.2636C154.6 81.0869 150.373 81.2824 147.734 80.9054L146.989 78.1229C150.621 78.1552 156.059 75.6919 159.748 72.6696Z" fill="url(#paint36_radial_2205_4898)"/>
<path fill-rule="evenodd" clip-rule="evenodd" d="M100.796 54.3191C101.834 51.4936 102.717 48.8659 103.206 47.0161C103.324 51.4791 105.404 56.6922 108.449 59.3725L106.038 60.9478C104.036 59.6115 101.978 57.3968 100.796 54.3191ZM97.7558 62.0922C98.642 59.9548 99.5675 57.6111 100.414 55.3473C101.497 60.0065 104.906 65.7177 108.226 68.1346C107.938 68.6378 107.69 69.1462 107.496 69.6548L106.639 70.4448C103.942 69.2311 99.9698 66.3749 97.7558 62.0922Z" fill="url(#paint37_radial_2205_4898)"/>
<path fill-rule="evenodd" clip-rule="evenodd" d="M120.053 63.3868C118.658 62.6586 117.463 61.7532 116.576 60.6378C114.698 55.498 116.435 50.09 118.238 47.5016L120.608 47.967C118.622 51.8167 118.569 60.1525 121.055 63.5126L120.053 63.3868ZM136.878 65.9508C141.571 61.2995 139.431 55.6462 138.217 52.4393L138.073 52.0562L136.953 53.3935C137.835 57.2188 135.2 63.441 130.656 65.9462C132.864 66.0979 135.013 66.0772 136.878 65.9508ZM130.248 65.9162C127.476 65.6996 124.633 65.2065 122.16 64.3064C121.881 60.2026 124.09 56.4379 125.606 54.2614L126.768 54.4071C125.58 56.7097 124.853 60.691 124.992 64.2382C128.156 61.5056 131.322 56.3939 130.97 52.666L133.343 53.1184C134.123 56.512 134.923 61.9528 130.248 65.9162Z" fill="url(#paint38_radial_2205_4898)"/>
<path d="M90.8275 44.1318C87.619 42.9021 81.3171 38.8916 81.1079 32.4876L83.8022 28.8803C83.6434 32.7953 88.2893 41.2346 91.8571 43.1743L90.8275 44.1318Z" fill="url(#paint39_radial_2205_4898)"/>
<path d="M92.2401 38.7855C89.3421 37.6748 84.3432 34.164 84.1543 28.3801L85.5468 25.6933C85.4034 29.2292 89.9475 36.1688 93.17 37.9207L92.2401 38.7855Z" fill="url(#paint40_radial_2205_4898)"/>
<path fill-rule="evenodd" clip-rule="evenodd" d="M85.2981 20.7953C85.3356 20.8935 85.3715 20.9961 85.406 21.1031C87.7438 28.3707 81.3244 34.8747 77.2463 37.6484C74.3713 37.1732 73.4049 33.909 73.969 32.2195C76.4572 31.6776 83.0655 25.3238 85.2981 20.7953Z" fill="url(#paint41_radial_2205_4898)"/>
<path fill-rule="evenodd" clip-rule="evenodd" d="M85.2981 20.7953C85.3356 20.8935 85.3715 20.9961 85.406 21.1031C87.7438 28.3707 81.3244 34.8747 77.2463 37.6484C74.3713 37.1732 73.4049 33.909 73.969 32.2195C76.4572 31.6776 83.0655 25.3238 85.2981 20.7953Z" fill="url(#paint42_radial_2205_4898)"/>
<defs>
<radialGradient id="paint0_radial_2205_4898" cx="0" cy="0" r="1" gradientUnits="userSpaceOnUse" gradientTransform="translate(123.562 102.235) rotate(-19.0147) scale(77.3522 1134.16)">
<stop stop-color="#FAFAFA"/>
<stop offset="1" stop-color="#F4F3F4" stop-opacity="0"/>
</radialGradient>
<linearGradient id="paint1_linear_2205_4898" x1="197.338" y1="71.3665" x2="222.186" y2="120.22" gradientUnits="userSpaceOnUse">
<stop offset="0.0001" stop-color="#6B6D81"/>
<stop offset="1" stop-color="#1C2365"/>
</linearGradient>
<linearGradient id="paint2_linear_2205_4898" x1="173.202" y1="84.561" x2="191.472" y2="150.254" gradientUnits="userSpaceOnUse">
<stop stop-color="#F55F7A"/>
<stop offset="1" stop-color="#F23A45"/>
</linearGradient>
<radialGradient id="paint3_radial_2205_4898" cx="0" cy="0" r="1" gradientUnits="userSpaceOnUse" gradientTransform="translate(51.6801 78.0821) rotate(159.532) scale(36.3103 18.7069)">
<stop offset="0.771429" stop-color="#017FDE"/>
<stop offset="1" stop-color="#05A5FF"/>
</radialGradient>
<radialGradient id="paint4_radial_2205_4898" cx="0" cy="0" r="1" gradientUnits="userSpaceOnUse" gradientTransform="translate(51.1359 76.6242) rotate(69.5317) scale(27.7515 41.6219)">
<stop offset="0.780723" stop-color="#387AAA" stop-opacity="0"/>
<stop offset="1" stop-color="#3879AB"/>
</radialGradient>
<radialGradient id="paint5_radial_2205_4898" cx="0" cy="0" r="1" gradientUnits="userSpaceOnUse" gradientTransform="translate(50.4519 74.7914) rotate(69.5317) scale(15.8209 30.3451)">
<stop offset="0.880208" stop-color="#017FDF" stop-opacity="0"/>
<stop offset="1" stop-color="#017FDF"/>
</radialGradient>
<radialGradient id="paint6_radial_2205_4898" cx="0" cy="0" r="1" gradientUnits="userSpaceOnUse" gradientTransform="translate(46.5128 82.7803) rotate(-15.1944) scale(33.8601 9.67431)">
<stop stop-color="#7BC5F5"/>
<stop offset="0.614583" stop-color="#5CAEE4" stop-opacity="0"/>
</radialGradient>
<radialGradient id="paint7_radial_2205_4898" cx="0" cy="0" r="1" gradientUnits="userSpaceOnUse" gradientTransform="translate(40.8931 65.4993) rotate(71.0798) scale(9.5998 38.6549)">
<stop offset="0.45505" stop-color="#017CC9"/>
<stop offset="1" stop-color="#0093EE" stop-opacity="0"/>
</radialGradient>
<radialGradient id="paint8_radial_2205_4898" cx="0" cy="0" r="1" gradientUnits="userSpaceOnUse" gradientTransform="translate(43.2455 55.4853) rotate(69.5317) scale(28.5295 25.1648)">
<stop offset="0.718182" stop-color="#009FF9"/>
<stop offset="1" stop-color="#009FF9" stop-opacity="0"/>
</radialGradient>
<radialGradient id="paint9_radial_2205_4898" cx="0" cy="0" r="1" gradientUnits="userSpaceOnUse" gradientTransform="translate(47.5382 57.3435) rotate(-123.69) scale(25.9761 10.4787)">
<stop stop-color="#0172CA"/>
<stop offset="1" stop-color="#0079D7" stop-opacity="0"/>
</radialGradient>
<radialGradient id="paint10_radial_2205_4898" cx="0" cy="0" r="1" gradientUnits="userSpaceOnUse" gradientTransform="translate(27.6304 53.7007) rotate(-95.7919) scale(22.521 11.1236)">
<stop offset="0.547067" stop-color="#97D9FF"/>
<stop offset="1" stop-color="#97D9FF" stop-opacity="0"/>
</radialGradient>
<radialGradient id="paint11_radial_2205_4898" cx="0" cy="0" r="1" gradientUnits="userSpaceOnUse" gradientTransform="translate(36.9875 38.7193) rotate(159.532) scale(10.5038 5.40497)">
<stop offset="0.185166" stop-color="#0172CA"/>
<stop offset="1" stop-color="#0079D7" stop-opacity="0"/>
</radialGradient>
<radialGradient id="paint12_radial_2205_4898" cx="0" cy="0" r="1" gradientUnits="userSpaceOnUse" gradientTransform="translate(33.7221 29.9716) rotate(159.532) scale(12.5787 9.71541)">
<stop offset="0.661458" stop-color="#0090E2"/>
<stop offset="0.822917" stop-color="#0099F2"/>
<stop offset="1" stop-color="#22A5F4"/>
</radialGradient>
<radialGradient id="paint13_radial_2205_4898" cx="0" cy="0" r="1" gradientUnits="userSpaceOnUse" gradientTransform="translate(31.5975 30.2113) rotate(-23.4811) scale(12.3366 6.63956)">
<stop stop-color="#61B5EC"/>
<stop offset="1" stop-color="#5CAEE4" stop-opacity="0"/>
</radialGradient>
<radialGradient id="paint14_radial_2205_4898" cx="0" cy="0" r="1" gradientUnits="userSpaceOnUse" gradientTransform="translate(38.5384 91.4308) rotate(2.30326) scale(8.71101 4.89086)">
<stop offset="0.349921" stop-color="#97D9FF"/>
<stop offset="1" stop-color="#97D9FF" stop-opacity="0"/>
</radialGradient>
<radialGradient id="paint15_radial_2205_4898" cx="0" cy="0" r="1" gradientUnits="userSpaceOnUse" gradientTransform="translate(38.3312 91.0728) rotate(4.34695) scale(10.5055 3.39641)">
<stop offset="0.712494" stop-color="#0182E0"/>
<stop offset="1" stop-color="#0182E0" stop-opacity="0"/>
</radialGradient>
<radialGradient id="paint16_radial_2205_4898" cx="0" cy="0" r="1" gradientUnits="userSpaceOnUse" gradientTransform="translate(36.4181 75.9457) rotate(-5.83455) scale(3.30683 2.01004)">
<stop stop-color="#97D9FF"/>
<stop offset="1" stop-color="#97D9FF" stop-opacity="0"/>
</radialGradient>
<radialGradient id="paint17_radial_2205_4898" cx="0" cy="0" r="1" gradientUnits="userSpaceOnUse" gradientTransform="translate(29.5156 33.2299) rotate(-20.4683) scale(2.43251 1.47858)">
<stop stop-color="#97D9FF"/>
<stop offset="1" stop-color="#97D9FF" stop-opacity="0"/>
</radialGradient>
<radialGradient id="paint18_radial_2205_4898" cx="0" cy="0" r="1" gradientUnits="userSpaceOnUse" gradientTransform="translate(128.671 44.987) rotate(7.15459) scale(51.2401 21.3742)">
<stop stop-color="#9D9E9B"/>
<stop offset="1" stop-color="#EAEAE5"/>
</radialGradient>
<radialGradient id="paint19_radial_2205_4898" cx="0" cy="0" r="1" gradientUnits="userSpaceOnUse" gradientTransform="translate(93.5117 7.95475) rotate(24.8307) scale(33.9854 25.4388)">
<stop stop-color="#45504C"/>
<stop offset="1" stop-color="#45504C" stop-opacity="0"/>
</radialGradient>
<radialGradient id="paint20_radial_2205_4898" cx="0" cy="0" r="1" gradientUnits="userSpaceOnUse" gradientTransform="translate(79.7747 28.8239) rotate(-44.6598) scale(20.1455 9.51417)">
<stop stop-color="#45504C"/>
<stop offset="1" stop-color="#45504C" stop-opacity="0"/>
</radialGradient>
<radialGradient id="paint21_radial_2205_4898" cx="0" cy="0" r="1" gradientUnits="userSpaceOnUse" gradientTransform="translate(131.92 30.528) rotate(-164.039) scale(51.1313 24.1479)">
<stop stop-color="#45504C"/>
<stop offset="1" stop-color="#45504C" stop-opacity="0"/>
</radialGradient>
<radialGradient id="paint22_radial_2205_4898" cx="0" cy="0" r="1" gradientUnits="userSpaceOnUse" gradientTransform="translate(127.177 71.1746) rotate(-166.336) scale(53.3632 7.61053)">
<stop stop-color="#45504C"/>
<stop offset="1" stop-color="#45504C" stop-opacity="0"/>
</radialGradient>
<radialGradient id="paint23_radial_2205_4898" cx="0" cy="0" r="1" gradientUnits="userSpaceOnUse" gradientTransform="translate(160.342 34.0956) rotate(-168.21) scale(6.60454 7.76508)">
<stop offset="0.317571" stop-color="#45504C"/>
<stop offset="1" stop-color="#45504C" stop-opacity="0"/>
</radialGradient>
<radialGradient id="paint24_radial_2205_4898" cx="0" cy="0" r="1" gradientUnits="userSpaceOnUse" gradientTransform="translate(92.2841 34.8769) rotate(59.6355) scale(25.1235 15.9006)">
<stop stop-color="white" stop-opacity="0.3"/>
<stop offset="1" stop-color="white" stop-opacity="0"/>
</radialGradient>
<radialGradient id="paint25_radial_2205_4898" cx="0" cy="0" r="1" gradientUnits="userSpaceOnUse" gradientTransform="translate(89.4541 23.8526) rotate(45.4879) scale(9.75303 6.17268)">
<stop offset="0.241847" stop-color="white" stop-opacity="0.6"/>
<stop offset="1" stop-color="white" stop-opacity="0"/>
</radialGradient>
<radialGradient id="paint26_radial_2205_4898" cx="0" cy="0" r="1" gradientUnits="userSpaceOnUse" gradientTransform="translate(132.193 58.3557) rotate(10.4118) scale(21.9192 7.71895)">
<stop stop-color="white"/>
<stop offset="1" stop-color="white" stop-opacity="0"/>
</radialGradient>
<radialGradient id="paint27_radial_2205_4898" cx="0" cy="0" r="1" gradientUnits="userSpaceOnUse" gradientTransform="translate(153.508 62.8244) rotate(-67.914) scale(16.5721 9.55037)">
<stop offset="0.233569" stop-color="white" stop-opacity="0.3"/>
<stop offset="1" stop-color="white" stop-opacity="0"/>
</radialGradient>
<radialGradient id="paint28_radial_2205_4898" cx="0" cy="0" r="1" gradientUnits="userSpaceOnUse" gradientTransform="translate(105.246 20.1864) rotate(33.2299) scale(9.30967 4.37942)">
<stop stop-color="white"/>
<stop offset="1" stop-color="white" stop-opacity="0"/>
</radialGradient>
<linearGradient id="paint29_linear_2205_4898" x1="118.629" y1="86.4191" x2="122.586" y2="56.3233" gradientUnits="userSpaceOnUse">
<stop stop-color="#3C3C37"/>
<stop offset="1" stop-color="#3C3C37" stop-opacity="0"/>
</linearGradient>
<radialGradient id="paint30_radial_2205_4898" cx="0" cy="0" r="1" gradientUnits="userSpaceOnUse" gradientTransform="translate(87.4286 24.9881) rotate(37.38) scale(5.91992 3.64665)">
<stop offset="0.321949" stop-color="#BCBCB6"/>
<stop offset="1" stop-color="#434842"/>
</radialGradient>
<radialGradient id="paint31_radial_2205_4898" cx="0" cy="0" r="1" gradientUnits="userSpaceOnUse" gradientTransform="translate(136.109 36.7919) rotate(10.7238) scale(22.8633 9.11894)">
<stop offset="0.233569" stop-color="#FEFAF7"/>
<stop offset="1" stop-color="#FEFAF7" stop-opacity="0"/>
</radialGradient>
<radialGradient id="paint32_radial_2205_4898" cx="0" cy="0" r="1" gradientUnits="userSpaceOnUse" gradientTransform="translate(96.1062 22.4465) rotate(170.53) scale(13.6811 9.79387)">
<stop stop-color="#3A3A35"/>
<stop offset="1" stop-color="#4E4E4C" stop-opacity="0"/>
</radialGradient>
<radialGradient id="paint33_radial_2205_4898" cx="0" cy="0" r="1" gradientUnits="userSpaceOnUse" gradientTransform="translate(141.537 48.3883) rotate(-165.784) scale(34.1554 11.0123)">
<stop stop-color="#58584F"/>
<stop offset="0.273978" stop-color="#58584F"/>
<stop offset="1" stop-color="#6A6A68" stop-opacity="0"/>
</radialGradient>
<radialGradient id="paint34_radial_2205_4898" cx="0" cy="0" r="1" gradientUnits="userSpaceOnUse" gradientTransform="translate(108.805 43.0182) rotate(-139.555) scale(19.2094 9.57265)">
<stop stop-color="#58584F"/>
<stop offset="0.273978" stop-color="#58584F"/>
<stop offset="1" stop-color="#6A6A68" stop-opacity="0"/>
</radialGradient>
<radialGradient id="paint35_radial_2205_4898" cx="0" cy="0" r="1" gradientUnits="userSpaceOnUse" gradientTransform="translate(83.0358 37.84) rotate(88.5587) scale(7.73735 6.16244)">
<stop stop-color="#3A3A35"/>
<stop offset="1" stop-color="#4E4E4C" stop-opacity="0"/>
</radialGradient>
<radialGradient id="paint36_radial_2205_4898" cx="0" cy="0" r="1" gradientUnits="userSpaceOnUse" gradientTransform="translate(160.986 68.9627) rotate(96.496) scale(15.4798 8.18773)">
<stop stop-color="#3A3A35"/>
<stop offset="1" stop-color="#4E4E4C" stop-opacity="0"/>
</radialGradient>
<radialGradient id="paint37_radial_2205_4898" cx="0" cy="0" r="1" gradientUnits="userSpaceOnUse" gradientTransform="translate(101.957 52.3063) rotate(114.894) scale(16.2969 8.23338)">
<stop stop-color="#3A3A35"/>
<stop offset="1" stop-color="#4E4E4C" stop-opacity="0"/>
</radialGradient>
<radialGradient id="paint38_radial_2205_4898" cx="0" cy="0" r="1" gradientUnits="userSpaceOnUse" gradientTransform="translate(129.267 59.7814) rotate(-169.765) scale(16.5562 8.0136)">
<stop stop-color="#3A3A35"/>
<stop offset="1" stop-color="#4E4E4C" stop-opacity="0"/>
</radialGradient>
<radialGradient id="paint39_radial_2205_4898" cx="0" cy="0" r="1" gradientUnits="userSpaceOnUse" gradientTransform="translate(86.5713 35.5504) rotate(81.1244) scale(7.73735 6.16244)">
<stop stop-color="#3A3A35"/>
<stop offset="1" stop-color="#4E4E4C" stop-opacity="0"/>
</radialGradient>
<radialGradient id="paint40_radial_2205_4898" cx="0" cy="0" r="1" gradientUnits="userSpaceOnUse" gradientTransform="translate(88.396 31.0349) rotate(81.1244) scale(6.98833 5.56588)">
<stop stop-color="#3A3A35"/>
<stop offset="1" stop-color="#4E4E4C" stop-opacity="0"/>
</radialGradient>
<radialGradient id="paint41_radial_2205_4898" cx="0" cy="0" r="1" gradientUnits="userSpaceOnUse" gradientTransform="translate(78.0078 31.4711) rotate(-44.5121) scale(9.75304 3.04862)">
<stop offset="0.4203" stop-color="#666663" stop-opacity="0"/>
<stop offset="1" stop-color="#666663"/>
</radialGradient>
<radialGradient id="paint42_radial_2205_4898" cx="0" cy="0" r="1" gradientUnits="userSpaceOnUse" gradientTransform="translate(77.548 35.1341) rotate(-78.1595) scale(2.72233 3.43683)">
<stop stop-color="white"/>
<stop offset="1" stop-color="white" stop-opacity="0"/>
</radialGradient>
</defs>
</svg>
