<svg viewBox="0 0 240 120" fill="none" xmlns="http://www.w3.org/2000/svg">
<path fill-rule="evenodd" clip-rule="evenodd" d="M99.6364 17.4625C99.6549 17.4498 99.7341 17.3958 99.7973 17.3284L98.7873 16.3812C98.8146 16.3522 98.8408 16.3303 98.8541 16.3199C98.8517 16.3216 98.8487 16.3237 98.8451 16.3262C98.8263 16.3392 98.7948 16.3601 98.7479 16.3903C98.6552 16.4499 98.5194 16.5344 98.3403 16.6441C97.9831 16.8628 97.4664 17.1732 96.8053 17.5667C95.4838 18.3533 93.5933 19.467 91.2647 20.8322C86.608 23.5623 80.204 27.2954 73.1074 31.4227C58.9144 39.6773 41.9533 49.5075 30.6639 56.0416L31.3575 57.24C42.6473 50.7056 59.6093 40.8749 73.8035 32.6196C80.9005 28.4921 87.3061 24.758 91.965 22.0267C94.2942 20.6611 96.188 19.5455 97.5135 18.7565C98.176 18.3622 98.6985 18.0483 99.0633 17.825C99.2451 17.7137 99.391 17.6229 99.4965 17.5551C99.5487 17.5215 99.5955 17.4908 99.6335 17.4644C99.6342 17.4639 99.6352 17.4633 99.6364 17.4625ZM98.8631 16.3132C98.8629 16.3133 98.8596 16.3156 98.8541 16.3199Z" fill="#7A88D3"/>
<path d="M100.794 9.32149C102.664 11.4563 99.7602 12.1686 101.854 16.0408C102.333 16.9259 100.919 18.0124 100.342 18.0028C99.7127 17.9923 97.7016 17.2856 96.3667 15.1477C91.5338 18.2856 78.7313 26.4292 66.185 33.9006C50.502 43.2398 31.1725 50.687 27.4744 51.6892C24.2942 52.551 25.1718 56.2758 29.389 55.2295C33.2973 54.2599 33.3875 57.0709 32.1706 57.729C30.9536 58.3871 24.6204 60.9541 21.7552 59.3578C19.4631 58.0807 20.317 55.4645 21.0305 54.316C19.4177 54.3303 16.0103 54.6574 16.0961 53.1238C16.2034 51.2069 31.6514 48.5723 55.1058 35.8884C78.5602 23.2044 91.5011 14.3472 93.304 12.6573C95.1069 10.9673 98.9249 7.18667 100.794 9.32149Z" fill="url(#paint0_linear_8220_1405)"/>
<path d="M126.286 27.8825C120.923 33.3085 116.382 33.6277 114.783 33.1091L114.299 34.3953C126.474 44.4641 91.9745 59.664 90.6628 42.2876L88.8799 41.4964C85.3621 45.0365 81.4629 44.9463 77.2717 44.8493C52.8487 44.2841 50.829 72.813 58.7982 90.3952C66.7751 107.994 89.627 125.337 105.297 106.532C107.981 103.312 110.478 100.315 115.458 99.9944L116.035 98.131C103.81 85.7131 137.952 69.7259 137.527 85.5192L138.814 86.0014C139.476 84.4553 142.703 81.2455 150.317 80.7748C170.049 79.5553 170.967 59.2722 163.479 42.8338C156.005 26.4262 140.158 13.849 126.286 27.8825Z" fill="url(#paint1_linear_8220_1405)"/>
<path d="M126.286 27.8825C120.923 33.3085 116.382 33.6277 114.783 33.1091L114.299 34.3953C126.474 44.4641 91.9745 59.664 90.6628 42.2876L88.8799 41.4964C85.3621 45.0365 81.4629 44.9463 77.2717 44.8493C52.8487 44.2841 50.829 72.813 58.7982 90.3952C66.7751 107.994 89.627 125.337 105.297 106.532C107.981 103.312 110.478 100.315 115.458 99.9944L116.035 98.131C103.81 85.7131 137.952 69.7259 137.527 85.5192L138.814 86.0014C139.476 84.4553 142.703 81.2455 150.317 80.7748C170.049 79.5553 170.967 59.2722 163.479 42.8338C156.005 26.4262 140.158 13.849 126.286 27.8825Z" fill="url(#paint2_linear_8220_1405)"/>
<path d="M126.286 27.8825C120.923 33.3085 116.382 33.6277 114.783 33.1091L114.299 34.3953C126.474 44.4641 91.9745 59.664 90.6628 42.2876L88.8799 41.4964C85.3621 45.0365 81.4629 44.9463 77.2717 44.8493C52.8487 44.2841 50.829 72.813 58.7982 90.3952C66.7751 107.994 89.627 125.337 105.297 106.532C107.981 103.312 110.478 100.315 115.458 99.9944L116.035 98.131C103.81 85.7131 137.952 69.7259 137.527 85.5192L138.814 86.0014C139.476 84.4553 142.703 81.2455 150.317 80.7748C170.049 79.5553 170.967 59.2722 163.479 42.8338C156.005 26.4262 140.158 13.849 126.286 27.8825Z" fill="url(#paint3_radial_8220_1405)"/>
<path d="M126.286 27.8825C120.923 33.3085 116.382 33.6277 114.783 33.1091L114.299 34.3953C126.474 44.4641 91.9745 59.664 90.6628 42.2876L88.8799 41.4964C85.3621 45.0365 81.4629 44.9463 77.2717 44.8493C52.8487 44.2841 50.829 72.813 58.7982 90.3952C66.7751 107.994 89.627 125.337 105.297 106.532C107.981 103.312 110.478 100.315 115.458 99.9944L116.035 98.131C103.81 85.7131 137.952 69.7259 137.527 85.5192L138.814 86.0014C139.476 84.4553 142.703 81.2455 150.317 80.7748C170.049 79.5553 170.967 59.2722 163.479 42.8338C156.005 26.4262 140.158 13.849 126.286 27.8825Z" fill="url(#paint4_radial_8220_1405)"/>
<path d="M126.286 27.8825C120.923 33.3085 116.382 33.6277 114.783 33.1091L114.299 34.3953C126.474 44.4641 91.9745 59.664 90.6628 42.2876L88.8799 41.4964C85.3621 45.0365 81.4629 44.9463 77.2717 44.8493C52.8487 44.2841 50.829 72.813 58.7982 90.3952C66.7751 107.994 89.627 125.337 105.297 106.532C107.981 103.312 110.478 100.315 115.458 99.9944L116.035 98.131C103.81 85.7131 137.952 69.7259 137.527 85.5192L138.814 86.0014C139.476 84.4553 142.703 81.2455 150.317 80.7748C170.049 79.5553 170.967 59.2722 163.479 42.8338C156.005 26.4262 140.158 13.849 126.286 27.8825Z" fill="url(#paint5_radial_8220_1405)"/>
<path d="M126.286 27.8825C120.923 33.3085 116.382 33.6277 114.783 33.1091L114.299 34.3953C126.474 44.4641 91.9745 59.664 90.6628 42.2876L88.8799 41.4964C85.3621 45.0365 81.4629 44.9463 77.2717 44.8493C52.8487 44.2841 50.829 72.813 58.7982 90.3952C66.7751 107.994 89.627 125.337 105.297 106.532C107.981 103.312 110.478 100.315 115.458 99.9944L116.035 98.131C103.81 85.7131 137.952 69.7259 137.527 85.5192L138.814 86.0014C139.476 84.4553 142.703 81.2455 150.317 80.7748C170.049 79.5553 170.967 59.2722 163.479 42.8338C156.005 26.4262 140.158 13.849 126.286 27.8825Z" fill="url(#paint6_radial_8220_1405)"/>
<path d="M126.286 27.8825C120.923 33.3085 116.382 33.6277 114.783 33.1091L114.299 34.3953C126.474 44.4641 91.9745 59.664 90.6628 42.2876L88.8799 41.4964C85.3621 45.0365 81.4629 44.9463 77.2717 44.8493C52.8487 44.2841 50.829 72.813 58.7982 90.3952C66.7751 107.994 89.627 125.337 105.297 106.532C107.981 103.312 110.478 100.315 115.458 99.9944L116.035 98.131C103.81 85.7131 137.952 69.7259 137.527 85.5192L138.814 86.0014C139.476 84.4553 142.703 81.2455 150.317 80.7748C170.049 79.5553 170.967 59.2722 163.479 42.8338C156.005 26.4262 140.158 13.849 126.286 27.8825Z" fill="url(#paint7_radial_8220_1405)"/>
<path d="M83.0879 54.984C83.5578 58.5782 88.6136 57.9446 97.1683 54.0578C105.561 50.2445 111.415 50.6097 112.805 53.67C114.196 56.7305 111.991 59.4665 110.111 60.3207L110.098 60.326C108.537 61.0351 106.697 60.3446 105.988 58.784C105.279 57.2233 105.969 55.3831 107.53 54.674C109.288 53.875 111.397 54.9297 111.836 56.7899C112.145 56.1745 112.314 55.27 111.644 54.1976C110.374 52.1652 107.18 52.7926 97.4391 57.9826C87.6981 63.1725 83.5791 59.7845 82.3907 57.169C81.3648 54.9109 82.3269 51.5795 84.5019 50.5913C86.0627 49.8822 87.9028 50.5727 88.6119 52.1333C89.321 53.694 88.6306 55.5342 87.0699 56.2433C85.5959 56.913 83.8731 56.3346 83.0886 54.9538L83.0879 54.984Z" fill="url(#paint8_linear_8220_1405)"/>
<path d="M101.447 95.3872C99.0492 92.6691 102.852 89.2778 111.407 85.391C119.8 81.5777 123.375 76.9286 121.984 73.8684C120.594 70.8079 117.083 70.6687 115.203 71.5228L115.19 71.5293C113.629 72.2384 112.939 74.0787 113.648 75.6393C114.357 77.1999 116.197 77.8905 117.758 77.1813C119.517 76.3824 120.109 74.1006 118.997 72.546C119.664 72.7181 120.456 73.186 120.823 74.396C121.518 76.6895 118.945 78.6822 108.629 82.6054C98.3121 86.5285 98.1546 91.8596 99.3429 94.4751C100.369 96.7332 103.511 98.1998 105.686 97.2116C107.247 96.5025 107.937 94.6623 107.228 93.1016C106.519 91.541 104.679 90.8505 103.118 91.5596C101.644 92.2293 100.946 93.9074 101.47 95.4065L101.447 95.3872Z" fill="url(#paint9_linear_8220_1405)"/>
<path d="M102.534 61.361L101.621 66.4016L105.08 74.0153L109.477 76.6436C110.007 71.6857 106.616 64.2235 102.534 61.361Z" fill="url(#paint10_linear_8220_1405)"/>
<path d="M102.534 61.361L101.621 66.4016L105.08 74.0153L109.477 76.6436C110.007 71.6857 106.616 64.2235 102.534 61.361Z" fill="url(#paint11_radial_8220_1405)"/>
<path d="M187.676 21.8459L190.793 28.706L188.418 29.7848L185.301 22.9247L187.676 21.8459Z" fill="url(#paint12_linear_8220_1405)"/>
<path d="M195.138 38.269L192.021 31.4089L189.646 32.4877L192.763 39.3478L195.138 38.269Z" fill="url(#paint13_linear_8220_1405)"/>
<path d="M179.062 25.7593L182.179 32.6194L179.805 33.6982L176.688 26.8381L179.062 25.7593Z" fill="url(#paint14_linear_8220_1405)"/>
<path d="M186.524 42.1824L183.408 35.3223L181.033 36.4011L184.15 43.2612L186.524 42.1824Z" fill="url(#paint15_linear_8220_1405)"/>
<path d="M88.3272 70.04C86.6384 72.2737 77.8973 76.3897 69.6835 80.2575C61.9512 83.8985 54.6861 87.3195 54.2113 88.7431L55.0153 90.5129C47.9148 94.2646 43.9898 95.0615 44.7929 96.8292C45.5961 98.5968 48.8969 96.09 56.2633 93.2597L57.0674 95.0294C58.452 95.6082 65.8076 92.3864 73.6362 88.9573C81.9524 85.3148 90.8023 81.4384 93.5956 81.6356C95.3936 77.2763 92.7934 71.5533 88.3272 70.04Z" fill="url(#paint16_linear_8220_1405)"/>
<path d="M88.3272 70.04C86.6384 72.2737 77.8973 76.3897 69.6835 80.2575C61.9512 83.8985 54.6861 87.3195 54.2113 88.7431L55.0153 90.5129C47.9148 94.2646 43.9898 95.0615 44.7929 96.8292C45.5961 98.5968 48.8969 96.09 56.2633 93.2597L57.0674 95.0294C58.452 95.6082 65.8076 92.3864 73.6362 88.9573C81.9524 85.3148 90.8023 81.4384 93.5956 81.6356C95.3936 77.2763 92.7934 71.5533 88.3272 70.04Z" fill="url(#paint17_radial_8220_1405)"/>
<path d="M88.3272 70.04C86.6384 72.2737 77.8973 76.3897 69.6835 80.2575C61.9512 83.8985 54.6861 87.3195 54.2113 88.7431L55.0153 90.5129C47.9148 94.2646 43.9898 95.0615 44.7929 96.8292C45.5961 98.5968 48.8969 96.09 56.2633 93.2597L57.0674 95.0294C58.452 95.6082 65.8076 92.3864 73.6362 88.9573C81.9524 85.3148 90.8023 81.4384 93.5956 81.6356C95.3936 77.2763 92.7934 71.5533 88.3272 70.04Z" fill="url(#paint18_radial_8220_1405)"/>
<path d="M194.363 26.1586L119.269 57.0744C123.577 58.8327 125.224 62.4575 123.715 66.8588L196.396 30.6337L194.363 26.1586Z" fill="url(#paint19_linear_8220_1405)"/>
<path d="M194.363 26.1586L119.269 57.0744C123.577 58.8327 125.224 62.4575 123.715 66.8588L196.396 30.6337L194.363 26.1586Z" fill="url(#paint20_linear_8220_1405)"/>
<path d="M192.702 24.7354C190.832 17.4941 198.944 16.5816 201.72 20.6384C202.618 21.9511 205.398 27.9757 205.629 29.2427C206.353 33.2036 200.412 38.3131 196.611 33.34C195.35 31.6898 193.366 27.3066 192.702 24.7354Z" fill="url(#paint21_linear_8220_1405)"/>
<path d="M192.702 24.7354C190.832 17.4941 198.944 16.5816 201.72 20.6384C202.618 21.9511 205.398 27.9757 205.629 29.2427C206.353 33.2036 200.412 38.3131 196.611 33.34C195.35 31.6898 193.366 27.3066 192.702 24.7354Z" fill="url(#paint22_radial_8220_1405)"/>
<path d="M192.702 24.7354C190.832 17.4941 198.944 16.5816 201.72 20.6384C202.618 21.9511 205.398 27.9757 205.629 29.2427C206.353 33.2036 200.412 38.3131 196.611 33.34C195.35 31.6898 193.366 27.3066 192.702 24.7354Z" fill="url(#paint23_radial_8220_1405)"/>
<path d="M192.702 24.7354C190.832 17.4941 198.944 16.5816 201.72 20.6384C202.618 21.9511 205.398 27.9757 205.629 29.2427C206.353 33.2036 200.412 38.3131 196.611 33.34C195.35 31.6898 193.366 27.3066 192.702 24.7354Z" fill="url(#paint24_radial_8220_1405)"/>
<path d="M183.752 15.7266C187.313 14.2205 189.833 18.5494 190.205 21.1729L183.631 24.16C182.363 21.9432 180.191 17.2327 183.752 15.7266Z" fill="url(#paint25_linear_8220_1405)"/>
<path d="M197.164 45.2512C200.64 43.5599 199.037 38.8143 197.307 36.8078L190.732 39.7949C191.568 42.2082 193.687 46.9425 197.164 45.2512Z" fill="url(#paint26_linear_8220_1405)"/>
<path d="M175.139 19.64C178.699 18.1339 181.219 22.4628 181.592 25.0863L175.018 28.0734C173.75 25.8566 171.578 21.1461 175.139 19.64Z" fill="url(#paint27_linear_8220_1405)"/>
<path d="M188.55 49.1652C192.027 47.4739 190.424 42.7283 188.693 40.7218L182.119 43.7089C182.954 46.1221 185.074 50.8565 188.55 49.1652Z" fill="url(#paint28_linear_8220_1405)"/>
<path d="M210.548 17.4744C211.229 17.8053 213.679 23.0369 213.371 23.6872C212.919 24.6425 209.19 26.326 206.12 29.018C202.656 32.0553 198.743 36.5233 197.742 36.0611C197.261 35.8386 196.584 31.8259 193.68 29.025C193.213 25.2084 190.923 22.0172 191.087 21.4136C191.5 19.8955 197.45 19.5653 201.902 18.9522C205.952 18.3946 209.547 16.987 210.548 17.4744Z" fill="url(#paint29_linear_8220_1405)"/>
<path d="M210.548 17.4744C211.229 17.8053 213.679 23.0369 213.371 23.6872C212.919 24.6425 209.19 26.326 206.12 29.018C202.656 32.0553 198.743 36.5233 197.742 36.0611C197.261 35.8386 196.584 31.8259 193.68 29.025C193.213 25.2084 190.923 22.0172 191.087 21.4136C191.5 19.8955 197.45 19.5653 201.902 18.9522C205.952 18.3946 209.547 16.987 210.548 17.4744Z" fill="url(#paint30_radial_8220_1405)"/>
<path d="M210.548 17.4744C211.229 17.8053 213.679 23.0369 213.371 23.6872C212.919 24.6425 209.19 26.326 206.12 29.018C202.656 32.0553 198.743 36.5233 197.742 36.0611C197.261 35.8386 196.584 31.8259 193.68 29.025C193.213 25.2084 190.923 22.0172 191.087 21.4136C191.5 19.8955 197.45 19.5653 201.902 18.9522C205.952 18.3946 209.547 16.987 210.548 17.4744Z" fill="url(#paint31_radial_8220_1405)"/>
<path d="M210.548 17.4744C211.229 17.8053 213.679 23.0369 213.371 23.6872C212.919 24.6425 209.19 26.326 206.12 29.018C202.656 32.0553 198.743 36.5233 197.742 36.0611C197.261 35.8386 196.584 31.8259 193.68 29.025C193.213 25.2084 190.923 22.0172 191.087 21.4136C191.5 19.8955 197.45 19.5653 201.902 18.9522C205.952 18.3946 209.547 16.987 210.548 17.4744Z" fill="url(#paint32_radial_8220_1405)"/>
<path d="M210.548 17.4744C211.229 17.8053 213.679 23.0369 213.371 23.6872C212.919 24.6425 209.19 26.326 206.12 29.018C202.656 32.0553 198.743 36.5233 197.742 36.0611C197.261 35.8386 196.584 31.8259 193.68 29.025C193.213 25.2084 190.923 22.0172 191.087 21.4136C191.5 19.8955 197.45 19.5653 201.902 18.9522C205.952 18.3946 209.547 16.987 210.548 17.4744Z" fill="url(#paint33_radial_8220_1405)"/>
<path d="M212.317 19.7512L212.924 21.0877L193.985 29.6927L193.378 28.3562L212.317 19.7512Z" fill="url(#paint34_linear_8220_1405)"/>
<defs>
<linearGradient id="paint0_linear_8220_1405" x1="48.5237" y1="48.8854" x2="40.2758" y2="32.8826" gradientUnits="userSpaceOnUse">
<stop stop-color="#B94B2C"/>
<stop offset="1" stop-color="#D5805C"/>
</linearGradient>
<linearGradient id="paint1_linear_8220_1405" x1="64.2116" y1="102.308" x2="195.1" y2="-1.53431" gradientUnits="userSpaceOnUse">
<stop stop-color="#7B3827"/>
<stop offset="1" stop-color="#FF7751"/>
</linearGradient>
<linearGradient id="paint2_linear_8220_1405" x1="89.2138" y1="36.6534" x2="104.27" y2="69.7916" gradientUnits="userSpaceOnUse">
<stop offset="0.928565" stop-color="#F9D5AF" stop-opacity="0.4"/>
<stop offset="1" stop-color="#FF8B66" stop-opacity="0"/>
</linearGradient>
<radialGradient id="paint3_radial_8220_1405" cx="0" cy="0" r="1" gradientUnits="userSpaceOnUse" gradientTransform="translate(111.161 66.6609) rotate(155.566) scale(52.5963 33.3002)">
<stop stop-color="#FF9729" stop-opacity="0.4"/>
<stop offset="1" stop-color="#FF8B66" stop-opacity="0"/>
</radialGradient>
<radialGradient id="paint4_radial_8220_1405" cx="0" cy="0" r="1" gradientUnits="userSpaceOnUse" gradientTransform="translate(111.161 66.6609) rotate(155.566) scale(57.4895 55.8534)">
<stop offset="0.856643" stop-color="#632F00" stop-opacity="0"/>
<stop offset="1" stop-color="#632F00"/>
</radialGradient>
<radialGradient id="paint5_radial_8220_1405" cx="0" cy="0" r="1" gradientUnits="userSpaceOnUse" gradientTransform="translate(111.161 66.6609) rotate(156.176) scale(63.494 61.687)">
<stop offset="0.84" stop-color="#E4A5FF" stop-opacity="0"/>
<stop offset="0.93" stop-color="#E4A5FF"/>
</radialGradient>
<radialGradient id="paint6_radial_8220_1405" cx="0" cy="0" r="1" gradientUnits="userSpaceOnUse" gradientTransform="translate(91.233 10.529) rotate(155.566) scale(62.5658 44.785)">
<stop offset="0.650676" stop-color="#632F00"/>
<stop offset="0.96" stop-color="#632F00" stop-opacity="0"/>
</radialGradient>
<radialGradient id="paint7_radial_8220_1405" cx="0" cy="0" r="1" gradientUnits="userSpaceOnUse" gradientTransform="translate(134.197 117.362) rotate(155.566) scale(57.4895 41.1513)">
<stop offset="0.650676" stop-color="#632F00"/>
<stop offset="0.96" stop-color="#632F00" stop-opacity="0"/>
</radialGradient>
<linearGradient id="paint8_linear_8220_1405" x1="97.9545" y1="49.742" x2="95.0417" y2="64.9443" gradientUnits="userSpaceOnUse">
<stop/>
<stop offset="1" stop-color="#7A2A14"/>
</linearGradient>
<linearGradient id="paint9_linear_8220_1405" x1="115.175" y1="87.6377" x2="101.808" y2="79.8318" gradientUnits="userSpaceOnUse">
<stop/>
<stop offset="1" stop-color="#7A2A14"/>
</linearGradient>
<linearGradient id="paint10_linear_8220_1405" x1="119.173" y1="57.1315" x2="100.404" y2="71.5473" gradientUnits="userSpaceOnUse">
<stop stop-color="#986206"/>
<stop offset="1" stop-color="#FFE4BE"/>
</linearGradient>
<radialGradient id="paint11_radial_8220_1405" cx="0" cy="0" r="1" gradientUnits="userSpaceOnUse" gradientTransform="translate(99.2915 72.0528) rotate(65.5655) scale(13.2666 8.80802)">
<stop offset="0.850528" stop-color="#986206" stop-opacity="0"/>
<stop offset="0.911165" stop-color="#986206"/>
<stop offset="1" stop-color="#BE8420"/>
</radialGradient>
<linearGradient id="paint12_linear_8220_1405" x1="192.336" y1="36.0054" x2="195.684" y2="34.2381" gradientUnits="userSpaceOnUse">
<stop stop-color="#4D57B2"/>
<stop offset="1" stop-color="#B6CBFF"/>
</linearGradient>
<linearGradient id="paint13_linear_8220_1405" x1="187.538" y1="25.445" x2="191.072" y2="24.0857" gradientUnits="userSpaceOnUse">
<stop stop-color="#4D57B2"/>
<stop offset="1" stop-color="#B6CBFF"/>
</linearGradient>
<linearGradient id="paint14_linear_8220_1405" x1="183.723" y1="39.9188" x2="187.071" y2="38.1515" gradientUnits="userSpaceOnUse">
<stop stop-color="#4D57B2"/>
<stop offset="1" stop-color="#B6CBFF"/>
</linearGradient>
<linearGradient id="paint15_linear_8220_1405" x1="178.925" y1="29.3584" x2="182.458" y2="27.9991" gradientUnits="userSpaceOnUse">
<stop stop-color="#4D57B2"/>
<stop offset="1" stop-color="#B6CBFF"/>
</linearGradient>
<linearGradient id="paint16_linear_8220_1405" x1="71.0021" y1="105.424" x2="102.431" y2="50.8333" gradientUnits="userSpaceOnUse">
<stop stop-color="#463566"/>
<stop offset="1" stop-color="#7097FC"/>
</linearGradient>
<radialGradient id="paint17_radial_8220_1405" cx="0" cy="0" r="1" gradientUnits="userSpaceOnUse" gradientTransform="translate(64.6565 76.1261) rotate(139.63) scale(30.3299 7.24795)">
<stop stop-color="#D1D1FF"/>
<stop offset="1" stop-color="#D1D1FF" stop-opacity="0"/>
</radialGradient>
<radialGradient id="paint18_radial_8220_1405" cx="0" cy="0" r="1" gradientUnits="userSpaceOnUse" gradientTransform="translate(73.3302 72.524) rotate(152.626) scale(36.0827 8.6227)">
<stop offset="0.318028" stop-color="#D1D1FF"/>
<stop offset="1" stop-color="#D1D1FF" stop-opacity="0"/>
</radialGradient>
<linearGradient id="paint19_linear_8220_1405" x1="156.164" y1="63.5268" x2="172.731" y2="-6.72487" gradientUnits="userSpaceOnUse">
<stop stop-color="#463566"/>
<stop offset="1" stop-color="#7097FC"/>
</linearGradient>
<linearGradient id="paint20_linear_8220_1405" x1="137.521" y1="39.5475" x2="142.956" y2="52.2146" gradientUnits="userSpaceOnUse">
<stop offset="0.547501" stop-color="#D1D1FF"/>
<stop offset="0.817358" stop-color="#D1D1FF" stop-opacity="0"/>
</linearGradient>
<linearGradient id="paint21_linear_8220_1405" x1="195.675" y1="32.6701" x2="209.664" y2="24.9509" gradientUnits="userSpaceOnUse">
<stop stop-color="#571505"/>
<stop offset="1" stop-color="#FF6F47"/>
</linearGradient>
<radialGradient id="paint22_radial_8220_1405" cx="0" cy="0" r="1" gradientUnits="userSpaceOnUse" gradientTransform="translate(197.303 21.6723) rotate(155.566) scale(5.53655 11.2092)">
<stop stop-color="#FF921F" stop-opacity="0.8"/>
<stop offset="1" stop-color="#FF835C" stop-opacity="0"/>
</radialGradient>
<radialGradient id="paint23_radial_8220_1405" cx="0" cy="0" r="1" gradientUnits="userSpaceOnUse" gradientTransform="translate(198.044 24.8583) rotate(154.317) scale(7.13014 15.1659)">
<stop offset="0.606299" stop-color="#592A00" stop-opacity="0"/>
<stop offset="1" stop-color="#321800"/>
</radialGradient>
<radialGradient id="paint24_radial_8220_1405" cx="0" cy="0" r="1" gradientUnits="userSpaceOnUse" gradientTransform="translate(199.132 28.0732) rotate(155.566) scale(6.78879 8.47522)">
<stop offset="0.473684" stop-color="#321800"/>
<stop offset="1" stop-color="#592A00" stop-opacity="0"/>
</radialGradient>
<linearGradient id="paint25_linear_8220_1405" x1="189.238" y1="29.7133" x2="198.259" y2="23.601" gradientUnits="userSpaceOnUse">
<stop stop-color="#4D57B2"/>
<stop offset="1" stop-color="#B6CBFF"/>
</linearGradient>
<linearGradient id="paint26_linear_8220_1405" x1="190.238" y1="31.9184" x2="200.775" y2="29.1444" gradientUnits="userSpaceOnUse">
<stop stop-color="#4D57B2"/>
<stop offset="1" stop-color="#B6CBFF"/>
</linearGradient>
<linearGradient id="paint27_linear_8220_1405" x1="180.625" y1="33.6267" x2="189.646" y2="27.5144" gradientUnits="userSpaceOnUse">
<stop stop-color="#4D57B2"/>
<stop offset="1" stop-color="#B6CBFF"/>
</linearGradient>
<linearGradient id="paint28_linear_8220_1405" x1="181.625" y1="35.8324" x2="192.162" y2="33.0583" gradientUnits="userSpaceOnUse">
<stop stop-color="#4D57B2"/>
<stop offset="1" stop-color="#B6CBFF"/>
</linearGradient>
<linearGradient id="paint29_linear_8220_1405" x1="195.509" y1="29.7324" x2="213.969" y2="10.5188" gradientUnits="userSpaceOnUse">
<stop stop-color="#9F2709"/>
<stop offset="1" stop-color="#FFAB94"/>
</linearGradient>
<radialGradient id="paint30_radial_8220_1405" cx="0" cy="0" r="1" gradientUnits="userSpaceOnUse" gradientTransform="translate(202.852 13.7192) rotate(162.708) scale(18.0091 8.06752)">
<stop offset="0.543788" stop-color="#7F3C00"/>
<stop offset="1" stop-color="#A64E00" stop-opacity="0"/>
</radialGradient>
<radialGradient id="paint31_radial_8220_1405" cx="0" cy="0" r="1" gradientUnits="userSpaceOnUse" gradientTransform="translate(198.87 23.7927) rotate(-22.0544) scale(18.333 7.26404)">
<stop stop-color="#FFB76C" stop-opacity="0.5"/>
<stop offset="1" stop-color="#FFBDA9" stop-opacity="0"/>
</radialGradient>
<radialGradient id="paint32_radial_8220_1405" cx="0" cy="0" r="1" gradientUnits="userSpaceOnUse" gradientTransform="translate(209.017 31.7262) rotate(143.969) scale(15.8186 7.08625)">
<stop offset="0.543788" stop-color="#7F3C00"/>
<stop offset="1" stop-color="#A64E00" stop-opacity="0"/>
</radialGradient>
<radialGradient id="paint33_radial_8220_1405" cx="0" cy="0" r="1" gradientUnits="userSpaceOnUse" gradientTransform="translate(191.067 30.4371) rotate(65.5655) scale(16.0331 7.18236)">
<stop offset="0.543788" stop-color="#7F3C00"/>
<stop offset="1" stop-color="#A64E00" stop-opacity="0"/>
</radialGradient>
<linearGradient id="paint34_linear_8220_1405" x1="201.73" y1="24.5611" x2="202.585" y2="26.4427" gradientUnits="userSpaceOnUse">
<stop offset="0.225114" stop-color="#FFBF8C"/>
<stop offset="1" stop-color="#612109"/>
</linearGradient>
</defs>
</svg>
