<svg viewBox="0 0 240 120" fill="none" xmlns="http://www.w3.org/2000/svg">
<path d="M24.6904 76.6738H218.683C218.683 27.1031 174.329 1.2124 122.585 1.2124C67.3945 1.2124 24.6904 24.82 24.6904 76.6738Z" fill="url(#paint0_radial_10414_1805)"/>
<path d="M24.6904 76.6738H218.683C218.683 27.1031 174.329 1.2124 122.585 1.2124C67.3945 1.2124 24.6904 24.82 24.6904 76.6738Z" fill="url(#paint1_radial_10414_1805)"/>
<path d="M93.319 57.0126C87.7981 55.311 79.0212 64.812 87.6565 74.7384H146.971C152.35 60.1322 141.591 52.0496 132.531 52.9004C135.221 33.7566 109.032 36.309 109.032 44.2501C100.255 38.578 89.4968 51.3406 93.319 57.0126Z" fill="url(#paint2_linear_10414_1805)"/>
<path d="M93.319 57.0126C87.7981 55.311 79.0212 64.812 87.6565 74.7384H146.971C152.35 60.1322 141.591 52.0496 132.531 52.9004C135.221 33.7566 109.032 36.309 109.032 44.2501C100.255 38.578 89.4968 51.3406 93.319 57.0126Z" fill="url(#paint3_radial_10414_1805)"/>
<path d="M108.703 108.875C111.011 108.008 116.203 114.077 108.703 120H6.73222C4.13606 103.096 24.1841 96.4501 30.9633 101.507C27.0691 94.1387 41.4922 87.0589 44.8087 91.9713C42.7895 80.1239 54.7606 74.2002 60.5302 74.2002C57.0687 63.3642 72.5014 56.1402 76.6841 59.7521C82.5975 45.1597 101.203 53.2503 98.0302 59.7521C100.338 59.4631 103.655 65.6757 101.203 68.5652C106.828 65.8201 118.511 78.8233 106.251 86.0473C115.194 89.5148 115.049 102.951 108.703 108.875Z" fill="url(#paint4_linear_10414_1805)"/>
<path d="M108.703 108.875C111.011 108.008 116.203 114.077 108.703 120H6.73222C4.13606 103.096 24.1841 96.4501 30.9633 101.507C27.0691 94.1387 41.4922 87.0589 44.8087 91.9713C42.7895 80.1239 54.7606 74.2002 60.5302 74.2002C57.0687 63.3642 72.5014 56.1402 76.6841 59.7521C82.5975 45.1597 101.203 53.2503 98.0302 59.7521C100.338 59.4631 103.655 65.6757 101.203 68.5652C106.828 65.8201 118.511 78.8233 106.251 86.0473C115.194 89.5148 115.049 102.951 108.703 108.875Z" fill="url(#paint5_radial_10414_1805)"/>
<path d="M108.703 108.875C111.011 108.008 116.203 114.077 108.703 120H6.73222C4.13606 103.096 24.1841 96.4501 30.9633 101.507C27.0691 94.1387 41.4922 87.0589 44.8087 91.9713C42.7895 80.1239 54.7606 74.2002 60.5302 74.2002C57.0687 63.3642 72.5014 56.1402 76.6841 59.7521C82.5975 45.1597 101.203 53.2503 98.0302 59.7521C100.338 59.4631 103.655 65.6757 101.203 68.5652C106.828 65.8201 118.511 78.8233 106.251 86.0473C115.194 89.5148 115.049 102.951 108.703 108.875Z" fill="url(#paint6_radial_10414_1805)"/>
<path d="M24.3236 109.308C21.7274 107.718 13.362 114.364 17.8332 119.999H90.9578C93.9867 114.365 89.3713 105.985 81.5828 107.574C83.1694 101.795 76.1021 91.1031 65.5732 93.1261C69.6117 82.7238 59.5155 78.6778 55.4771 81.1341C51.4386 70.8761 38.8905 76.655 40.4771 83.157C32.8328 81.1341 28.6501 88.5026 31.3905 93.1261C27.0636 92.6927 19.5636 101.506 24.3236 109.308Z" fill="url(#paint7_linear_10414_1805)"/>
<path d="M24.3236 109.308C21.7274 107.718 13.362 114.364 17.8332 119.999H90.9578C93.9867 114.365 89.3713 105.985 81.5828 107.574C83.1694 101.795 76.1021 91.1031 65.5732 93.1261C69.6117 82.7238 59.5155 78.6778 55.4771 81.1341C51.4386 70.8761 38.8905 76.655 40.4771 83.157C32.8328 81.1341 28.6501 88.5026 31.3905 93.1261C27.0636 92.6927 19.5636 101.506 24.3236 109.308Z" fill="url(#paint8_radial_10414_1805)"/>
<path d="M133.255 93.056C120.689 95.1831 116.636 115.036 130.417 119.999H231.213C234.861 111.349 229.456 105.393 222.025 105.393C222.16 101.517 220.404 94.5308 212.297 97.5938C213.783 92.9142 205.541 87.951 200.812 91.7797C202.433 79.3008 189.192 76.6065 184.058 80.4353C184.463 75.1884 173.519 72.7777 169.871 77.5991C172.843 70.2252 163.656 61.2914 157.035 65.262C153.117 53.4921 136.363 59.8733 138.93 68.0981C121.095 72.6359 127.445 91.0707 133.255 93.056Z" fill="url(#paint9_linear_10414_1805)"/>
<path d="M133.255 93.056C120.689 95.1831 116.636 115.036 130.417 119.999H231.213C234.861 111.349 229.456 105.393 222.025 105.393C222.16 101.517 220.404 94.5308 212.297 97.5938C213.783 92.9142 205.541 87.951 200.812 91.7797C202.433 79.3008 189.192 76.6065 184.058 80.4353C184.463 75.1884 173.519 72.7777 169.871 77.5991C172.843 70.2252 163.656 61.2914 157.035 65.262C153.117 53.4921 136.363 59.8733 138.93 68.0981C121.095 72.6359 127.445 91.0707 133.255 93.056Z" fill="url(#paint10_radial_10414_1805)"/>
<path d="M133.255 93.056C120.689 95.1831 116.636 115.036 130.417 119.999H231.213C234.861 111.349 229.456 105.393 222.025 105.393C222.16 101.517 220.404 94.5308 212.297 97.5938C213.783 92.9142 205.541 87.951 200.812 91.7797C202.433 79.3008 189.192 76.6065 184.058 80.4353C184.463 75.1884 173.519 72.7777 169.871 77.5991C172.843 70.2252 163.656 61.2914 157.035 65.262C153.117 53.4921 136.363 59.8733 138.93 68.0981C121.095 72.6359 127.445 91.0707 133.255 93.056Z" fill="url(#paint11_radial_10414_1805)"/>
<path d="M153.371 108.467C149.002 106.342 141.639 113.718 149.626 119.844H213.276C218.268 114.468 216.646 106.591 211.279 106.591C214.774 100.09 210.78 94.9646 205.413 94.9646C207.285 90.2139 202.293 85.2131 197.176 86.3383C192.808 78.4621 174.587 82.3377 173.963 91.7142C173.089 88.3387 165.476 88.9638 165.476 95.8398C160.359 91.7141 148.128 98.5902 153.371 108.467Z" fill="url(#paint12_linear_10414_1805)"/>
<path d="M153.371 108.467C149.002 106.342 141.639 113.718 149.626 119.844H213.276C218.268 114.468 216.646 106.591 211.279 106.591C214.774 100.09 210.78 94.9646 205.413 94.9646C207.285 90.2139 202.293 85.2131 197.176 86.3383C192.808 78.4621 174.587 82.3377 173.963 91.7142C173.089 88.3387 165.476 88.9638 165.476 95.8398C160.359 91.7141 148.128 98.5902 153.371 108.467Z" fill="url(#paint13_radial_10414_1805)"/>
<path d="M136.725 102.271C131.204 100.57 122.427 110.071 131.062 119.997H190.376C195.756 105.391 184.997 97.3084 175.937 98.1592C178.627 79.0154 152.438 81.5677 152.438 89.5089C143.661 83.8368 132.903 96.5994 136.725 102.271Z" fill="url(#paint14_linear_10414_1805)"/>
<path d="M136.725 102.271C131.204 100.57 122.427 110.071 131.062 119.997H190.376C195.756 105.391 184.997 97.3084 175.937 98.1592C178.627 79.0154 152.438 81.5677 152.438 89.5089C143.661 83.8368 132.903 96.5994 136.725 102.271Z" fill="url(#paint15_radial_10414_1805)"/>
<path d="M84.4379 8.40137C85.6926 12.9184 88.2032 15.2504 89.3012 15.8518C88.7948 16.3275 88.3304 16.5691 87.913 16.6495C89.896 17.9752 91.9205 18.5565 92.5419 21.7066C93.5121 26.6324 89.8881 24.0406 90.0043 21.0351C88.5121 23.5718 86.7253 21.0388 87.0972 19.3223C86.8751 19.6869 86.6038 19.8839 86.3264 19.9578C86.327 19.9969 86.3303 20.0359 86.3309 20.075C89.5698 26.3158 95.6755 27.3829 96.72 32.6051C97.6156 37.083 94.4589 33.0761 92.7672 30.5137C92.0707 31.7326 90.3488 33.3508 89.0353 30.0675C88.8708 30.4888 88.6784 30.7884 88.4854 31.0005C92.4562 37.0081 97.5189 37.0248 98.8294 43.1113C100.36 50.225 93.9085 47.6571 94.6738 44.5942C94.3196 45.1704 93.8864 45.4708 93.4343 45.5723C93.7105 46.7941 93.608 47.7461 93.1188 47.8439C91.6853 48.1276 91.0092 45.876 90.9914 45.8157C90.9914 46.6329 90.9628 47.3909 90.9012 48.0783C92.0617 49.1811 93.2505 50.1589 94.3943 51.0981C97.6235 53.7496 100.487 56.1015 101.295 60.1396C102.615 66.7386 97.9605 60.8376 95.467 57.0611C94.4402 58.8576 91.904 61.2379 89.9683 56.3986C89.2984 58.1152 88.496 58.803 87.7462 58.7739C88.2082 65.1582 88.7914 69.8712 89.5175 71.0966C85.952 73.5649 82.6602 72.1254 81.4586 71.0966C82.2464 68.3581 82.7862 63.9832 83.1624 58.7739C82.2874 58.7444 81.3846 58.0452 80.742 56.3986C79.6489 60.1377 75.245 58.8492 75.2432 57.0611C74.3259 60.9786 68.3958 63.5513 69.2036 59.5131C70.0116 55.4758 73.0827 53.7491 76.3114 51.0981C77.909 49.7863 79.5893 48.3939 81.1612 46.6946C81.1529 46.6903 81.1425 46.69 81.1341 46.6856C79.886 46.0248 80.8878 42.3548 83.843 40.6279C83.8471 40.2898 83.8485 39.9517 83.852 39.6138C83.0501 41.4412 81.4784 41.9702 80.4986 40.3619C81.0255 42.79 78.4901 46.3756 76.379 42.7868C76.5434 47.0382 71.4189 50.7054 72.7913 43.7378C73.7739 38.7523 77.239 38.3118 80.3273 35.8593C80.0758 35.0354 80.0029 33.9508 80.0028 32.6817C79.9815 32.7534 79.4608 34.4631 78.3622 34.2457C77.7206 34.1181 77.9187 32.0863 78.9977 30.3695C78.739 30.2632 78.4917 30.0417 78.2856 29.6709C78.8068 31.9841 74.4058 33.9214 75.4505 28.5486C76.4627 23.3478 80.7446 24.0137 83.5229 17.3572C83.3454 17.3394 83.1697 17.2772 83.0046 17.1634C82.4205 18.8424 80.5271 21.5194 77.6365 18.804C79.1695 17.9645 82.6724 14.7085 84.4244 8.40137C84.4265 8.40827 84.4268 8.41701 84.4289 8.4239C84.4312 8.41637 84.4356 8.40892 84.4379 8.40137ZM87.5704 36.2964C87.276 36.5838 86.9903 36.7593 86.7231 36.8553C86.7526 37.8163 86.7761 38.7791 86.8087 39.74C86.895 39.735 86.9821 39.7328 87.0701 39.7309C86.8142 38.7345 86.8896 37.4928 87.5704 36.2964ZM83.1398 23.4013C84.4817 26.0128 82.3932 28.9217 81.2739 26.7592C81.3526 27.3264 81.3072 27.8723 81.1882 28.3638C81.7019 28.1276 82.2737 27.9763 82.9145 27.9762C83.2422 27.9762 83.5544 28.014 83.852 28.0663C83.8378 26.6195 83.8067 25.2091 83.7844 23.8476C83.5819 23.7846 83.3659 23.6452 83.1398 23.4013Z" fill="url(#paint16_linear_10414_1805)"/>
<path d="M41.4505 24.3076C42.7052 28.8248 45.2158 31.1568 46.3137 31.758C45.8079 32.2333 45.3427 32.4751 44.9255 32.5558C46.9083 33.8811 48.9333 34.463 49.5544 37.6129C50.5247 42.5386 46.9006 39.9468 47.0169 36.9413C45.5248 39.4777 43.734 36.9451 44.1052 35.2286C43.8837 35.5917 43.6156 35.79 43.339 35.8641C43.3396 35.9061 43.3428 35.9482 43.3435 35.9903C46.5834 42.2244 52.6886 43.2912 53.7326 48.5113C54.6281 52.9889 51.4715 48.9823 49.7798 46.42C49.0833 47.6388 47.3613 49.2565 46.0478 45.9737C45.8836 46.3947 45.6908 46.6947 45.4979 46.9067C49.4687 52.9138 54.5316 52.931 55.842 59.0176C57.3725 66.1313 50.9211 63.5634 51.6863 60.5005C51.3324 61.0761 50.8985 61.3768 50.4469 61.4785C50.7227 62.6992 50.6195 63.6511 50.1313 63.7502C48.7004 64.0333 48.024 61.7898 48.0039 61.7219C48.0039 62.5392 47.9753 63.2972 47.9138 63.9845C49.0743 65.0874 50.2631 66.0652 51.4069 67.0044C54.6362 69.6559 57.4996 72.0076 58.3074 76.0458C59.6271 82.6445 54.9731 76.7439 52.4796 72.9674C51.453 74.764 48.9122 77.1446 46.9763 72.3048C46.3068 74.0205 45.5082 74.7084 44.7588 74.6801C45.2208 81.0644 45.8039 85.7774 46.5301 87.0028C42.9631 89.4723 39.6671 88.0318 38.4667 87.0028C39.2545 84.2644 39.7988 79.8895 40.1749 74.6801C39.2996 74.6513 38.3974 73.9522 37.7546 72.3048C36.6615 76.0439 32.253 74.7554 32.2513 72.9674C31.3334 76.8844 25.4039 79.4573 26.2116 75.4193C27.0195 71.3813 30.0948 69.6559 33.324 67.0044C34.9217 65.6924 36.6017 64.3004 38.1737 62.6008C38.1654 62.5966 38.1551 62.5962 38.1467 62.5918C36.8984 61.931 37.8997 58.2608 40.8555 56.5341C40.8596 56.1961 40.8611 55.858 40.8645 55.52C40.0628 57.3476 38.491 57.8759 37.5112 56.2682C38.0378 58.6963 35.5026 62.2818 33.3916 58.6931C33.556 62.9445 28.4314 66.6117 29.8039 59.6441C30.7866 54.6583 34.2514 54.2186 37.3399 51.7655C37.0882 50.9416 37.0155 49.8573 37.0154 48.5879C36.9956 48.6544 36.4745 50.3686 35.3748 50.1519C34.7327 50.0249 34.9308 47.9929 36.0103 46.2757C35.7513 46.1697 35.5045 45.9481 35.2981 45.5771C35.8189 47.8903 31.4184 49.8275 32.4631 44.4548C33.4754 39.2542 37.7572 39.9203 40.5355 33.2634C40.3568 33.2457 40.1787 33.1846 40.0127 33.0696C39.4282 34.7487 37.5391 37.425 34.6491 34.7102C36.1825 33.87 39.6853 30.6136 41.437 24.3076C41.4391 24.3146 41.4393 24.3231 41.4415 24.3302C41.4437 24.3227 41.4482 24.3151 41.4505 24.3076ZM44.5785 52.2027C44.2834 52.4905 43.9989 52.6659 43.7311 52.7616C43.7607 53.7226 43.7887 54.6853 43.8213 55.6462C43.9076 55.6413 43.9947 55.639 44.0827 55.6372C43.8267 54.641 43.8982 53.3988 44.5785 52.2027ZM40.1479 39.3076C41.4913 41.9197 39.4014 44.8298 38.2819 42.6655C38.3607 43.2331 38.3154 43.7783 38.1963 44.27C38.7109 44.0329 39.2848 43.8824 39.927 43.8824C40.2535 43.8824 40.5635 43.9206 40.86 43.9725C40.8459 42.5258 40.8193 41.1153 40.7969 39.7538C40.5937 39.6909 40.3748 39.5527 40.1479 39.3076Z" fill="url(#paint17_linear_10414_1805)"/>
<path d="M184.438 8.92432C185.534 12.8709 187.728 14.9104 188.688 15.4371C188.246 15.8525 187.84 16.061 187.476 16.1312C189.21 17.2913 190.98 17.801 191.523 20.5572C192.37 24.8613 189.204 22.5937 189.305 19.9668C188.001 22.184 186.439 19.9708 186.763 18.4704C186.57 18.7881 186.334 18.9598 186.092 19.0248C186.092 19.0608 186.096 19.0969 186.096 19.133C188.928 24.5838 194.266 25.5174 195.178 30.0808C195.96 33.9922 193.2 30.4951 191.721 28.2554C191.112 29.3207 189.606 30.7315 188.458 27.8633C188.315 28.2305 188.144 28.4894 187.976 28.6746C191.447 33.9293 195.872 33.9436 197.017 39.2664C198.355 45.4838 192.72 43.2371 193.389 40.5599C193.079 41.0636 192.698 41.3231 192.303 41.4118C192.545 42.4804 192.455 43.3128 192.028 43.3994C190.775 43.6472 190.183 41.6828 190.166 41.6281C190.166 42.3428 190.144 43.0057 190.09 43.6068C191.104 44.5707 192.146 45.4225 193.146 46.2434C195.968 48.5611 198.47 50.6191 199.176 54.149C200.33 59.9161 196.258 54.7591 194.079 51.4582C193.181 53.0281 190.965 55.1071 189.274 50.8813C188.688 52.3812 187.987 52.9803 187.331 52.9546C187.735 58.5349 188.247 62.6555 188.882 63.7266C185.764 65.8852 182.882 64.626 181.832 63.7266C182.521 61.3331 182.996 57.5079 183.324 52.9546C182.56 52.9286 181.772 52.3187 181.21 50.8813C180.255 54.1473 176.404 53.0204 176.401 51.4582C175.598 54.8817 170.417 57.1284 171.123 53.5991C171.83 50.0708 174.517 48.5607 177.339 46.2434C178.735 45.097 180.202 43.8795 181.576 42.3943C181.568 42.3907 181.56 42.3891 181.553 42.3853C180.465 41.8093 181.33 38.6175 183.897 37.103C183.9 36.8144 183.907 36.526 183.91 36.2376C183.205 37.8092 181.845 38.2569 180.994 36.8596C181.456 38.9818 179.243 42.1188 177.397 38.9824C177.541 42.6984 173.061 45.9018 174.26 39.8117C175.119 35.4527 178.15 35.0702 180.85 32.9248C180.63 32.2042 180.566 31.2546 180.566 30.1439C180.566 30.1439 180.109 31.7082 179.128 31.5141C178.568 31.402 178.739 29.6252 179.683 28.1247C179.458 28.0317 179.244 27.8384 179.065 27.5163C179.519 29.5374 175.67 31.2307 176.582 26.5382C177.466 21.9899 181.211 22.5712 183.64 16.7487C183.484 16.7329 183.329 16.682 183.185 16.5819C182.674 18.0492 181.023 20.3904 178.497 18.0197C179.837 17.2856 182.897 14.4368 184.429 8.92432L184.433 8.93784C184.435 8.93335 184.436 8.92881 184.438 8.92432ZM187.178 33.3079C186.921 33.5588 186.668 33.7017 186.434 33.7857C186.46 34.6326 186.487 35.4809 186.515 36.3277C186.59 36.3235 186.665 36.3113 186.741 36.3097C186.517 35.4387 186.583 34.3538 187.178 33.3079ZM183.302 22.0356C184.476 24.3188 182.649 26.8616 181.67 24.9697C181.739 25.465 181.702 25.9422 181.598 26.3715C182.047 26.165 182.548 26.038 183.108 26.0379C183.393 26.0379 183.665 26.0691 183.924 26.1145C183.911 24.8502 183.889 23.6176 183.87 22.4277C183.692 22.3729 183.501 22.2503 183.302 22.0356Z" fill="url(#paint18_linear_10414_1805)"/>
<path d="M212.761 29.7881C213.857 33.7347 216.051 35.7742 217.011 36.3009C216.569 36.7163 216.164 36.9248 215.799 36.995C217.533 38.155 219.303 38.6648 219.846 41.421C220.694 45.725 217.527 43.4575 217.629 40.8306C216.324 43.0478 214.762 40.8346 215.087 39.3342C214.893 39.6518 214.657 39.8235 214.415 39.8886C214.416 39.9246 214.419 39.9606 214.42 39.9968C217.251 45.4476 222.589 46.3812 223.502 50.9446C224.284 54.8559 221.524 51.3589 220.045 49.1192C219.436 50.1845 217.929 51.5953 216.781 48.7271C216.638 49.0943 216.467 49.3532 216.299 49.5384C219.771 54.7931 224.195 54.8074 225.341 60.1302C226.678 66.3476 221.043 64.1009 221.712 61.4237C221.403 61.9273 221.021 62.1868 220.626 62.2756C220.868 63.3442 220.778 64.1766 220.351 64.2632C219.099 64.511 218.506 62.5466 218.49 62.4919C218.49 63.2066 218.467 63.8695 218.413 64.4705C219.427 65.4344 220.469 66.2863 221.469 67.1072C224.292 69.4249 226.794 71.4829 227.5 75.0127C228.653 80.7799 224.581 75.6228 222.402 72.322C221.504 73.8918 219.289 75.9709 217.597 71.7451C217.012 73.245 216.31 73.8441 215.655 73.8183C216.058 79.3987 216.57 83.5193 217.205 84.5904C214.087 86.7489 211.205 85.4898 210.156 84.5904C210.844 82.1968 211.319 78.3716 211.648 73.8183C210.883 73.7923 210.095 73.1824 209.534 71.7451C208.578 75.0111 204.728 73.8842 204.724 72.322C203.922 75.7455 198.741 77.9922 199.447 74.4629C200.153 70.9346 202.84 69.4245 205.662 67.1072C207.058 65.9608 208.525 64.7433 209.899 63.2581C209.892 63.2545 209.883 63.2529 209.876 63.2491C208.788 62.6731 209.653 59.4813 212.22 57.9667C212.224 57.6782 212.231 57.3898 212.234 57.1014C211.528 58.6729 210.168 59.1207 209.317 57.7233C209.779 59.8456 207.566 62.9826 205.721 59.8462C205.864 63.5622 201.384 66.7656 202.584 60.6755C203.443 56.3164 206.473 55.9339 209.173 53.7886C208.953 53.068 208.889 52.1184 208.889 51.0077C208.889 51.0077 208.432 52.5719 207.451 52.3779C206.891 52.2657 207.062 50.489 208.006 48.9885C207.781 48.8954 207.568 48.7022 207.388 48.38C207.842 50.4012 203.993 52.0945 204.905 47.402C205.789 42.8537 209.534 43.435 211.963 37.6125C211.808 37.5967 211.652 37.5458 211.508 37.4457C210.998 38.9129 209.346 41.2542 206.82 38.8835C208.161 38.1494 211.221 35.3006 212.752 29.7881L212.756 29.8016C212.758 29.7971 212.76 29.7926 212.761 29.7881ZM215.501 54.1717C215.244 54.4226 214.991 54.5654 214.758 54.6495C214.784 55.4964 214.81 56.3447 214.839 57.1915C214.913 57.1873 214.988 57.175 215.064 57.1735C214.84 56.3025 214.906 55.2176 215.501 54.1717ZM211.625 42.8994C212.799 45.1826 210.972 47.7254 209.993 45.8335C210.062 46.3288 210.025 46.806 209.921 47.2352C210.37 47.0288 210.871 46.9017 211.431 46.9017C211.717 46.9017 211.988 46.9329 212.247 46.9783C212.235 45.714 212.213 44.4813 212.193 43.2915C212.015 43.2367 211.824 43.114 211.625 42.8994Z" fill="url(#paint19_linear_10414_1805)"/>
<path d="M133.764 19.6606C133.991 19.6618 134.182 19.833 134.215 20.0573C134.974 25.2986 138.144 27.6196 139.281 28.4362C140.218 29.109 138.129 29.7297 136.455 28.95C137.698 32.7352 139.693 34.0878 140.836 34.9086C142.115 35.8278 138.974 36.6692 136.788 35.3278C138.206 39.8385 140.55 41.4249 141.882 42.3816C143.22 43.345 140.318 44.2346 137.897 43.2019C139.564 47.2658 141.898 48.8476 143.288 49.8455C144.384 50.6364 139.629 51.9526 137.965 49.7283C139.74 53.5872 141.769 55.8008 143.581 56.9805C145.383 58.1533 140.78 58.9555 138.772 56.9805C138.772 59.8655 135.367 61.6216 133.485 56.5703C133.818 61.3833 127.941 60.8929 129.257 56.5703C128.389 59.4109 122.056 57.8383 123.312 56.9805C124.835 55.94 127.432 54.2659 129.194 49.805C129.248 49.4888 129.329 49.1493 129.46 48.7908C127.178 51.89 122.298 51.0175 124.006 49.8455C125.671 48.7062 127.524 46.5971 129.171 42.9765C126.73 44.0106 124.299 43.1551 125.426 42.3816C127.055 41.2668 128.891 39.0644 130.433 35.0754C128.109 36.4995 125.382 35.6575 126.476 34.9086C127.863 33.9599 129.415 32.1063 130.74 28.7878C129.025 29.591 127.245 28.9799 128.04 28.4362C129.464 27.4612 132.112 24.4425 133.322 19.9987C133.376 19.8004 133.559 19.6606 133.764 19.6606Z" fill="url(#paint20_linear_10414_1805)"/>
<path d="M162.398 12.9224C162.69 12.923 162.937 13.1424 162.979 13.4317C163.958 20.1891 168.044 23.1827 169.51 24.2354C170.717 25.1026 168.027 25.9025 165.868 24.898C167.47 29.7747 170.042 31.5156 171.516 32.5738C173.166 33.7592 169.114 34.8466 166.296 33.1146C168.123 38.931 171.142 40.9767 172.859 42.2102C174.589 43.4524 170.847 44.6049 167.725 43.2739C169.874 48.509 172.885 50.5425 174.675 51.8285C176.087 52.8422 170.02 54.5363 167.842 51.7339C170.126 56.6764 172.731 59.5172 175.059 61.0322C177.377 62.5434 171.445 63.5764 168.857 61.0322C168.856 64.7508 164.468 67.0116 162.042 60.5004C162.472 66.7055 154.895 66.0734 156.592 60.5004C155.475 64.1632 147.311 62.1381 148.93 61.0322C150.893 59.691 154.236 57.5288 156.507 51.779C156.576 51.3716 156.68 50.9338 156.849 50.4719C153.907 54.4684 147.613 53.3402 149.823 51.8285C151.969 50.36 154.357 47.6462 156.48 42.9809C153.331 44.3146 150.195 43.2077 151.652 42.2102C153.754 40.7722 156.132 37.9348 158.12 32.7856C155.121 34.6329 151.592 33.5406 153.005 32.5738C154.792 31.3503 156.796 28.9639 158.503 24.6862C156.292 25.7236 153.995 24.9366 155.019 24.2354C156.854 22.9795 160.269 19.0883 161.83 13.3596C161.899 13.1039 162.133 12.9224 162.398 12.9224Z" fill="url(#paint21_linear_10414_1805)"/>
<path d="M142.538 27.2642C142.765 27.2642 142.956 27.4358 142.988 27.6608C143.748 32.9043 146.923 35.2239 148.059 36.0397C148.996 36.7127 146.903 37.3347 145.228 36.5535C146.471 40.3392 148.471 41.6912 149.614 42.512C150.891 43.4314 147.747 44.2712 145.562 42.9267C146.979 47.4409 149.323 49.028 150.655 49.985C151.997 50.9486 149.097 51.8373 146.675 50.8053C148.342 54.8683 150.672 56.451 152.061 57.4489C153.164 58.2407 148.392 59.5608 146.734 57.3227C148.511 61.1887 150.545 63.4033 152.359 64.5838C154.161 65.7566 149.553 66.5589 147.545 64.5838C147.545 67.4687 144.145 69.2241 142.263 64.1736C142.596 68.9867 136.719 68.4967 138.035 64.1736C137.168 67.0149 130.834 65.4416 132.09 64.5838C133.612 63.544 136.206 61.8705 137.967 57.4174C138.021 57.0988 138.101 56.7559 138.233 56.3942C135.95 59.4927 131.072 58.6212 132.784 57.4489C134.45 56.3093 136.306 54.2019 137.954 50.5799C135.509 51.6179 133.073 50.7593 134.204 49.985C135.833 48.8703 137.665 46.6672 139.207 42.6788C136.884 44.1007 134.159 43.2605 135.249 42.512C136.636 41.5631 138.188 39.7073 139.513 36.3867C137.799 37.1897 136.019 36.5833 136.813 36.0397C138.237 35.0659 140.889 32.0481 142.1 27.6022C142.154 27.404 142.332 27.2643 142.538 27.2642Z" fill="url(#paint22_linear_10414_1805)"/>
<path d="M213.271 55C214.277 70.3463 225.349 73.2407 225.098 77.3918C224.846 81.5401 220.992 82.6725 219.941 81.5429C219.948 81.593 219.965 81.6416 219.973 81.6917L219.982 81.6962C220.442 84.3774 223.085 86.9572 224.917 89.1871C225.009 89.2983 225.101 89.4067 225.188 89.5162C225.501 89.9102 225.784 90.2911 226.017 90.661C226.044 90.703 226.069 90.7455 226.094 90.7872C226.341 91.1953 226.532 91.5847 226.63 91.9591H226.621C226.728 92.3658 226.737 92.7504 226.608 93.1129C225.602 95.929 222.752 95.9673 221.451 95.6324C221.63 95.7051 221.82 95.7908 222.024 95.8803C222.033 95.8807 222.042 95.8845 222.051 95.8848C222.142 95.9251 222.235 95.9722 222.33 96.0156C222.439 96.0649 222.55 96.1155 222.664 96.1688C222.93 96.2937 223.207 96.4293 223.493 96.5744C223.615 96.6363 223.739 96.6985 223.863 96.7637C224.148 96.9133 224.436 97.0755 224.728 97.2415C224.858 97.3156 224.99 97.3898 225.12 97.4669C225.457 97.6656 225.791 97.8768 226.121 98.0934C226.184 98.1346 226.248 98.1732 226.31 98.2151C226.698 98.4758 227.072 98.7503 227.428 99.0309C227.465 99.0602 227.504 99.087 227.541 99.1165C228.68 100.033 229.584 101.032 229.884 102.042C229.9 102.093 229.899 102.151 229.911 102.204C229.936 102.307 229.959 102.411 229.975 102.519C230.078 103.264 229.966 104.117 229.668 104.967C228.575 108.129 225.05 111.209 221.451 108.086C221.365 108.25 221.251 108.405 221.118 108.559C221.096 108.585 221.073 108.61 221.05 108.636C220.776 108.934 220.421 109.211 219.996 109.461C219.871 109.535 219.739 109.603 219.603 109.672C219.579 109.684 219.556 109.697 219.531 109.708C216.218 111.351 209.804 111.501 205.856 107.459C205.617 107.76 205.274 108.031 204.865 108.271C202.833 109.477 199.064 109.781 197.171 107.455C197.004 107.25 196.864 107.041 196.743 106.833C196.734 106.818 196.729 106.802 196.72 106.788C196.009 105.539 196.095 104.263 196.657 103.029C196.694 102.947 196.733 102.866 196.774 102.785C196.857 102.624 196.943 102.462 197.04 102.303C197.07 102.254 197.104 102.207 197.135 102.159C198.753 99.636 202.143 97.4091 204.468 96.2589C202.582 96.8879 198.48 97.3164 197.171 93.9963C196.632 92.6284 197.784 90.985 199.411 89.2277C199.452 89.1834 199.496 89.1414 199.537 89.097C201.853 86.6252 205.052 83.9409 205.852 81.5429C204.007 81.2494 200.266 79.8549 200.065 76.6346C199.815 72.6099 210.005 70.0934 211.765 55H213.271Z" fill="url(#paint23_linear_10414_1805)"/>
<path d="M155.87 24.0933C156.712 36.9349 165.974 39.3561 165.763 42.8297C165.553 46.3017 162.329 47.2501 161.45 46.3048C161.455 46.3458 161.47 46.3855 161.477 46.4264L161.486 46.431C161.786 48.1822 163.201 49.8822 164.537 51.4294C165.008 51.9722 165.464 52.5002 165.862 53.0025C166.435 53.7264 166.885 54.4023 167.048 55.0217H167.043C167.132 55.3613 167.137 55.6835 167.03 55.9862C166.188 58.3441 163.799 58.3718 162.712 58.0911C162.86 58.1516 163.02 58.2239 163.189 58.2984C163.199 58.2988 163.207 58.3026 163.217 58.3029C163.295 58.3377 163.377 58.378 163.46 58.4156C163.538 58.4513 163.617 58.4901 163.699 58.5283C163.94 58.6414 164.194 58.7646 164.456 58.8979C164.535 58.938 164.615 58.9777 164.695 59.0196C164.945 59.1504 165.199 59.2926 165.457 59.4387C165.56 59.4973 165.664 59.5537 165.768 59.6145C166.046 59.7781 166.32 59.9546 166.592 60.1329C166.674 60.1863 166.755 60.2404 166.836 60.2951C167.092 60.4689 167.34 60.6516 167.579 60.836C167.676 60.9104 167.775 60.9809 167.868 61.0568C167.956 61.1283 168.041 61.2005 168.125 61.2732C168.311 61.4348 168.489 61.5978 168.652 61.7645C169.193 62.3145 169.604 62.8836 169.774 63.4592C169.983 64.1647 169.891 65.0412 169.585 65.9111C169.551 66.0085 169.507 66.1026 169.468 66.1995C169.421 66.3148 169.378 66.4328 169.324 66.5466C169.266 66.6676 169.2 66.7843 169.134 66.9027C169.088 66.9865 169.045 67.073 168.995 67.1551C168.775 67.5148 168.514 67.8487 168.229 68.1557C168.198 68.1883 168.174 68.2275 168.143 68.2593H168.134C166.764 69.664 164.758 70.2869 162.716 68.5162C162.641 68.6595 162.537 68.7921 162.419 68.9264C162.403 68.944 162.39 68.963 162.374 68.9805C162.142 69.2306 161.845 69.4655 161.486 69.6746C161.405 69.7224 161.32 69.7645 161.233 69.8098C161.156 69.8499 161.076 69.889 160.994 69.927C159.012 70.8625 155.804 71.1667 152.936 70.0848C152.91 70.0753 152.884 70.0674 152.859 70.0577C152.233 69.8155 151.626 69.5085 151.052 69.1247C150.945 69.0538 150.84 68.98 150.736 68.9039C150.362 68.6294 149.995 68.3334 149.659 67.9889C149.407 68.3044 149.028 68.5876 148.564 68.8182C146.817 69.6991 143.901 69.8349 142.398 67.9889C141.557 66.9561 141.438 65.884 141.758 64.8384C141.773 64.7877 141.785 64.7357 141.803 64.6851C142.693 62.1223 146.213 59.7499 148.501 58.6184C146.922 59.1445 143.493 59.5024 142.398 56.7254C141.303 53.9469 148.499 49.7781 149.659 46.3048C148.115 46.059 144.987 44.8926 144.818 42.1987C144.608 38.8303 153.134 36.7245 154.608 24.0933H155.87Z" fill="url(#paint24_linear_10414_1805)"/>
<path d="M32.8957 45.4146C34.0593 63.1553 46.8568 66.5006 46.566 71.2994C46.2749 76.0964 41.8164 77.4063 40.603 76.0996C40.6107 76.1553 40.6206 76.2107 40.63 76.2664C40.6375 76.2694 40.645 76.2724 40.6525 76.2754C41.1799 79.35 44.1881 82.3116 46.3046 84.8751C46.4397 85.0384 46.5743 85.1974 46.7012 85.3574C47.2649 86.0701 47.7378 86.7484 48.0444 87.3901C48.0619 87.4268 48.082 87.4619 48.0984 87.4983C48.1971 87.7173 48.2823 87.9288 48.3373 88.1383L48.3283 88.1428C48.451 88.6129 48.4599 89.0581 48.3103 89.477C47.1468 92.734 43.8499 92.7719 42.3473 92.3841C42.5537 92.4681 42.7741 92.569 43.0098 92.6726C43.0219 92.6731 43.0338 92.6766 43.0459 92.6771C43.1515 92.7236 43.2598 92.7756 43.3704 92.8258C43.5102 92.8894 43.652 92.9594 43.7986 93.0287C44.0939 93.168 44.4017 93.3187 44.718 93.4794C44.8469 93.5449 44.9789 93.6089 45.1102 93.6777C45.4877 93.8753 45.8715 94.0906 46.2595 94.3132C46.3537 94.3673 46.4492 94.42 46.5435 94.4755C46.9532 94.7161 47.3594 94.9736 47.7604 95.2372C47.8639 95.3053 47.9692 95.3705 48.0714 95.44C48.239 95.5538 48.4041 95.6698 48.5672 95.7871C48.8563 95.9952 49.1363 96.2095 49.4055 96.4271C50.7162 97.4844 51.7559 98.6349 52.1008 99.7985C52.1944 100.114 52.2333 100.455 52.2451 100.813C52.2484 100.908 52.2472 101.004 52.2451 101.101C52.2221 102.04 51.9574 103.071 51.4879 104.053C49.9258 107.357 46.1769 110.102 42.3518 106.785C42.2573 106.964 42.1339 107.134 41.9912 107.303C41.9423 107.362 41.8878 107.417 41.8334 107.474C41.7791 107.531 41.7262 107.59 41.6667 107.646C41.5496 107.756 41.4245 107.865 41.2881 107.97C41.1013 108.111 40.8948 108.242 40.6751 108.371C40.5501 108.446 40.4179 108.513 40.283 108.583C40.1886 108.631 40.0934 108.681 39.9945 108.727C36.1264 110.563 28.8284 110.678 24.3184 106.059C24.0277 106.423 23.6095 106.751 23.106 107.037C23.0654 107.06 23.026 107.086 22.9843 107.109C22.9355 107.135 22.8858 107.16 22.8356 107.186C20.5393 108.361 16.7539 108.59 14.5964 106.388C14.567 106.359 14.5395 106.328 14.5108 106.298C14.4354 106.217 14.3519 106.142 14.2809 106.054C10.2111 101.052 18.206 95.3398 22.7139 93.1098C20.5323 93.8366 15.7934 94.3332 14.2809 90.4956C12.7688 86.6571 22.7116 80.898 24.3139 76.0996C22.1803 75.7597 17.8579 74.1469 17.6252 70.425C17.3366 65.7723 29.1157 62.863 31.1514 45.4146H32.8957Z" fill="url(#paint25_linear_10414_1805)"/>
<path d="M102.983 24.3076C103.286 24.3082 103.542 24.5352 103.587 24.835C104.603 31.8513 108.845 34.9617 110.366 36.0534C111.618 36.9531 108.828 37.7791 106.588 36.7385C108.252 41.801 110.919 43.6091 112.448 44.7072C114.16 45.9378 109.95 47.0656 107.026 45.2661C108.922 51.3048 112.058 53.4283 113.841 54.7086C115.635 55.9974 111.757 57.1911 108.518 55.8129C110.748 61.2438 113.866 63.3574 115.725 64.6921C117.192 65.7458 110.878 67.5062 108.626 64.5794C110.997 69.718 113.703 72.6689 116.121 74.2428C118.532 75.812 112.372 76.8853 109.685 74.2428C109.685 78.1029 105.131 80.4507 102.613 73.6929C103.059 80.1331 95.1953 79.4774 96.9566 73.6929C95.7966 77.4948 87.3211 75.3906 89.0014 74.2428C91.0335 72.8547 94.4915 70.6214 96.8484 64.6921C96.9192 64.2535 97.0395 63.7817 97.2225 63.2813C94.1683 67.4302 87.6364 66.2612 89.9298 64.6921C92.1579 63.1676 94.64 60.3508 96.8439 55.5064C93.575 56.893 90.3178 55.7442 91.8274 54.7086C94.0091 53.2159 96.4789 50.2694 98.5431 44.9235C95.4296 46.8423 91.7637 45.7108 93.2291 44.7072C95.0872 43.4359 97.1831 40.9575 98.9578 36.5041C96.6568 37.5947 94.2582 36.7832 95.325 36.0534C97.2293 34.7503 100.776 30.7067 102.397 24.7583C102.47 24.4939 102.708 24.3076 102.983 24.3076Z" fill="url(#paint26_linear_10414_1805)"/>
<path d="M76.4666 20.7285C76.9029 20.7293 77.2694 21.0582 77.3319 21.4902C78.7919 31.5699 84.8937 36.0312 87.0766 37.599C88.8748 38.8914 84.8628 40.0816 81.6454 38.5861C84.0345 45.8589 87.8685 48.457 90.0649 50.0344C92.519 51.7995 86.4853 53.4286 82.2854 50.8592C85.0099 59.516 89.5075 62.5613 92.0661 64.3989C94.6427 66.2495 89.0739 67.9703 84.4218 65.9945C87.626 73.7932 92.1062 76.8286 94.7749 78.7454C97.0681 80.3944 86.087 83.2529 83.8494 77.294C86.2564 85.6039 78.6881 86.7555 76.8812 77.9521C73.44 87.6599 65.1863 84.9453 68.1958 76.7171C63.8091 82.6769 54.4264 80.9991 57.7165 78.7454C60.9171 76.5555 64.4845 72.5071 67.6504 65.5482C62.9523 67.542 58.2688 65.8872 60.4434 64.3989C63.5774 62.2546 67.1236 58.0244 70.0888 50.3454C65.6157 53.1015 60.3508 51.4763 62.4581 50.0344C65.127 48.2082 68.1391 44.6488 70.6883 38.2526C67.3823 39.8205 63.9318 38.6476 65.4644 37.599C68.2001 35.727 73.296 29.9225 75.6237 21.3776C75.7278 20.9967 76.0717 20.7285 76.4666 20.7285Z" fill="url(#paint27_linear_10414_1805)"/>
<path d="M173.479 22.4912C173.916 22.4919 174.282 22.8209 174.345 23.2529C175.805 33.3326 181.907 37.7939 184.09 39.3617C185.888 40.6541 181.876 41.8443 178.658 40.3488C181.047 47.6216 184.881 50.2197 187.078 51.7971C189.532 53.5622 183.498 55.1913 179.298 52.6219C182.023 61.2787 186.52 64.324 189.079 66.1616C191.656 68.0122 186.087 69.7329 181.435 67.7572C184.639 75.5559 189.119 78.5913 191.788 80.5081C194.081 82.157 183.1 85.0156 180.862 79.0567C183.269 87.3666 175.701 88.5182 173.894 79.7148C170.453 89.4226 162.199 86.708 165.209 78.4798C160.822 84.4396 151.439 82.7618 154.729 80.5081C157.93 78.3182 161.497 74.2698 164.663 67.3109C159.965 69.3047 155.282 67.6499 157.456 66.1616C160.59 64.0173 164.137 59.7871 167.102 52.1081C162.629 54.8641 157.364 53.239 159.471 51.7971C162.14 49.9709 165.152 46.4115 167.701 40.0153C164.395 41.5832 160.945 40.4103 162.477 39.3617C165.213 37.4897 170.309 31.6852 172.637 23.1402C172.741 22.7594 173.085 22.4912 173.479 22.4912Z" fill="url(#paint28_linear_10414_1805)"/>
<path d="M194.429 26.7437C195.05 26.7437 195.574 27.2103 195.664 27.8254C197.741 42.1706 206.421 48.5224 209.528 50.7535C212.086 52.5918 206.38 54.2958 201.802 52.1733C205.202 62.5095 210.654 66.2006 213.778 68.4443C217.28 70.9592 208.673 73.2793 202.695 69.6072C206.572 81.9408 212.988 86.2727 216.631 88.889C220.299 91.5233 212.368 93.9718 205.746 91.1561C210.306 102.258 216.686 106.574 220.485 109.302C223.752 111.649 208.122 115.721 204.939 107.238C208.367 119.066 197.594 120.706 195.023 108.175C190.127 121.994 178.376 118.129 182.66 106.418C176.417 114.901 163.062 112.51 167.75 109.302C172.3 106.189 177.365 100.437 181.867 90.5521C175.19 93.3734 168.537 91.0043 171.627 88.889C176.084 85.8395 181.128 79.8269 185.347 68.9131C178.984 72.8228 171.497 70.4946 174.493 68.4443C178.29 65.8456 182.576 60.7843 186.203 51.6865C181.5 53.9137 176.595 52.2452 178.775 50.7535C182.668 48.0894 189.917 39.8277 193.23 27.6676C193.377 27.1254 193.866 26.7437 194.429 26.7437Z" fill="url(#paint29_linear_10414_1805)"/>
<path d="M51.5848 32.3618C52.2075 32.3628 52.7305 32.8316 52.8198 33.4481C54.9029 47.832 63.6096 54.2021 66.7245 56.4393C69.2858 58.2822 63.5658 59.9876 58.9766 57.859C62.3861 68.2263 67.8556 71.9296 70.9883 74.1796C74.4961 76.7014 65.8634 79.0267 59.869 75.3424C63.7564 87.7106 70.193 92.0548 73.8459 94.6783C78.7168 98.1767 63.1851 101.355 57.327 92.3661C56.2356 105.134 44.6587 102.138 44.6572 92.3661C37.0672 100.607 24.7112 97.4232 28.7197 94.6783C33.1892 91.6203 38.2459 85.5888 42.4757 74.6438C36.0972 78.5634 28.5908 76.2352 31.5908 74.1796C35.3988 71.5742 39.6992 66.497 43.3366 57.3723C38.6206 59.6066 33.7008 57.9351 35.8862 56.4393C39.7896 53.7686 47.0594 45.4837 50.3814 33.2903C50.5295 32.7464 51.021 32.3618 51.5848 32.3618Z" fill="url(#paint30_linear_10414_1805)"/>
<path d="M67.9978 31.5957C68.5701 31.5957 69.0515 32.0255 69.1336 32.5918C71.0452 45.7931 79.0325 51.6397 81.8935 53.6945C84.2496 55.3867 78.9994 56.9556 74.7857 55.0016C77.9152 64.5168 82.9346 67.9137 85.8103 69.9791C89.0335 72.294 81.1091 74.4324 75.606 71.0518C79.1738 82.4014 85.0803 86.3884 88.4335 88.7966C91.8083 91.2205 84.5163 93.4749 78.423 90.888C82.6201 101.104 88.4894 105.076 91.9851 107.587C94.9907 109.747 80.6042 113.493 77.6748 105.685C80.8296 116.572 70.9144 118.083 68.5477 106.551C64.0405 119.27 53.2236 115.712 57.167 104.932C51.4203 112.741 39.1268 110.54 43.4426 107.587C47.6306 104.721 52.2931 99.4274 56.4368 90.3291C50.2899 92.9263 44.1663 90.7439 47.0123 88.7966C51.1149 85.9893 55.7545 80.4538 59.6369 70.4072C53.7807 74.0055 46.8908 71.8662 49.649 69.9791C53.1446 67.5868 57.0915 62.9278 60.4302 54.5509C56.1002 56.6039 51.5809 55.068 53.5883 53.6945C57.1714 51.2428 63.8443 43.6402 66.8935 32.4476C67.0295 31.9484 67.4805 31.5958 67.9978 31.5957Z" fill="url(#paint31_linear_10414_1805)"/>
<path d="M97.4141 66.6099H98.8588V97.9546H97.4141V66.6099Z" fill="url(#paint32_linear_10414_1805)"/>
<path d="M89.574 68.4688H92.1837V108.267H89.574V68.4688Z" fill="url(#paint33_linear_10414_1805)"/>
<path d="M75.6985 68.6089H79.73V120H75.6985V68.6089Z" fill="url(#paint34_linear_10414_1805)"/>
<path d="M102.719 63.0581H103.681V90.2889H102.719V63.0581Z" fill="url(#paint35_linear_10414_1805)"/>
<path d="M106.58 60.7817H107.227V84.1416H106.58V60.7817Z" fill="url(#paint36_linear_10414_1805)"/>
<path d="M109.437 59.0938H109.813V82.4537H109.437V59.0938Z" fill="url(#paint37_linear_10414_1805)"/>
<path d="M111.488 56.2568H111.864V79.6167H111.488V56.2568Z" fill="url(#paint38_linear_10414_1805)"/>
<path d="M112.867 54.1968H113.243V77.5567H112.867V54.1968Z" fill="url(#paint39_linear_10414_1805)"/>
<path d="M113.942 52.813H114.318V76.1729H113.942V52.813Z" fill="url(#paint40_linear_10414_1805)"/>
<path d="M115.015 51.3774H115.391V74.7373H115.015V51.3774Z" fill="url(#paint41_linear_10414_1805)"/>
<path d="M115.844 49.7686H116.22V73.1285H115.844V49.7686Z" fill="url(#paint42_linear_10414_1805)"/>
<path d="M116.673 47.7695H117.049V71.1294H116.673V47.7695Z" fill="url(#paint43_linear_10414_1805)"/>
<path d="M142.921 66.6099H141.476V97.9546H142.921V66.6099Z" fill="url(#paint44_linear_10414_1805)"/>
<path d="M150.761 68.4688H148.152V108.267H150.761V68.4688Z" fill="url(#paint45_linear_10414_1805)"/>
<path d="M164.637 68.6089H160.605V120H164.637V68.6089Z" fill="url(#paint46_linear_10414_1805)"/>
<path d="M137.616 63.0581H136.654V90.2889H137.616V63.0581Z" fill="url(#paint47_linear_10414_1805)"/>
<path d="M133.756 60.7817H133.109V84.1416H133.756V60.7817Z" fill="url(#paint48_linear_10414_1805)"/>
<path d="M130.898 59.0938H130.522V82.4537H130.898V59.0938Z" fill="url(#paint49_linear_10414_1805)"/>
<path d="M128.847 56.2568H128.471V79.6167H128.847V56.2568Z" fill="url(#paint50_linear_10414_1805)"/>
<path d="M127.468 54.1968H127.092V77.5567H127.468V54.1968Z" fill="url(#paint51_linear_10414_1805)"/>
<path d="M126.393 52.813H126.017V76.1729H126.393V52.813Z" fill="url(#paint52_linear_10414_1805)"/>
<path d="M125.321 51.3774H124.944V74.7373H125.321V51.3774Z" fill="url(#paint53_linear_10414_1805)"/>
<path d="M124.491 49.7686H124.115V73.1285H124.491V49.7686Z" fill="url(#paint54_linear_10414_1805)"/>
<path d="M123.662 47.7695H123.286V71.1294H123.662V47.7695Z" fill="url(#paint55_linear_10414_1805)"/>
<path d="M122.416 50.4175C122.416 67.7846 146.25 105.248 163.985 119.999H76.0544C93.7902 105.248 117.624 67.7846 117.624 50.4175H122.416Z" fill="url(#paint56_linear_10414_1805)"/>
<path d="M8.75757 37.6079C87.3619 88.1903 111.894 62.8071 115.894 43.4175H117.744C114.719 67.2865 85.8121 91.2651 8.75757 47.5771V37.6079Z" fill="url(#paint57_linear_10414_1805)"/>
<path d="M231.578 37.6079C152.974 88.1903 128.442 62.8071 124.442 43.4175H122.591C125.617 67.2865 154.523 91.2651 231.578 47.5771V37.6079Z" fill="url(#paint58_linear_10414_1805)"/>
<path d="M51.5984 57.1626L55.7701 59.1866C57.3543 59.9552 58.3631 61.5582 58.3708 63.319L58.6179 120H52.7022V59.469L51.5984 57.1626Z" fill="url(#paint59_linear_10414_1805)"/>
<path d="M47.8936 58.8623C47.8936 57.8427 48.7201 57.0161 49.7397 57.0161H50.8566C51.8762 57.0161 52.7027 57.8427 52.7027 58.8623V119.999H47.8936V58.8623Z" fill="url(#paint60_linear_10414_1805)"/>
<path d="M188.737 57.1626L184.565 59.1866C182.981 59.9552 181.972 61.5582 181.964 63.319L181.717 120H187.633V59.469L188.737 57.1626Z" fill="url(#paint61_linear_10414_1805)"/>
<path d="M192.442 58.8623C192.442 57.8427 191.615 57.0161 190.596 57.0161H189.479C188.459 57.0161 187.633 57.8427 187.633 58.8623V119.999H192.442V58.8623Z" fill="url(#paint62_linear_10414_1805)"/>
<path d="M152.434 108.268C153.167 109.131 153.901 109.973 154.633 110.792H85.407C86.139 109.973 86.8731 109.131 87.6065 108.268H152.434ZM142.676 95.5529C143.115 96.1837 143.559 96.8099 144.005 97.4324H96.035C96.4807 96.8099 96.9247 96.1837 97.3646 95.5529H142.676ZM136.307 85.7858C136.622 86.3054 136.945 86.8224 137.267 87.3408H102.773C103.095 86.8224 103.418 86.3054 103.733 85.7858H136.307ZM132.007 78.2813C132.246 78.7258 132.492 79.1695 132.737 79.6155H107.303C107.549 79.1695 107.794 78.7258 108.033 78.2813H132.007ZM129.618 73.6479H110.422C110.616 73.2524 110.802 72.8554 110.99 72.4625H129.05C129.238 72.8554 129.424 73.2524 129.618 73.6479ZM127.229 68.4691H112.811C112.962 68.1179 113.107 67.7668 113.252 67.419H126.788C126.933 67.7668 127.078 68.1179 127.229 68.4691ZM125.354 63.7636C125.46 64.0516 125.564 64.3424 125.674 64.6335H114.366C114.476 64.3424 114.58 64.0516 114.686 63.7636H125.354ZM124.331 60.7573H115.709C115.791 60.4977 115.88 60.2429 115.957 59.9866H124.083C124.16 60.2429 124.25 60.4977 124.331 60.7573ZM123.385 57.3949H116.655C116.711 57.1665 116.762 56.9394 116.813 56.7144H123.227C123.278 56.9394 123.329 57.1665 123.385 57.3949Z" fill="#785C2B"/>
<defs>
<radialGradient id="paint0_radial_10414_1805" cx="0" cy="0" r="1" gradientUnits="userSpaceOnUse" gradientTransform="translate(115.893 64.009) rotate(-0.840055) scale(248.685 77.5609)">
<stop offset="0.28992" stop-color="#C5FEF2"/>
<stop offset="0.729248" stop-color="#90DCFF"/>
</radialGradient>
<radialGradient id="paint1_radial_10414_1805" cx="0" cy="0" r="1" gradientUnits="userSpaceOnUse" gradientTransform="translate(124.615 49.2437) rotate(3.52053) scale(120.663 61.9181)">
<stop stop-color="#FFDBA6"/>
<stop offset="1" stop-color="#FFCEA6" stop-opacity="0"/>
</radialGradient>
<linearGradient id="paint2_linear_10414_1805" x1="101.937" y1="21.4559" x2="133.922" y2="80.7817" gradientUnits="userSpaceOnUse">
<stop stop-color="#51973B"/>
<stop offset="1" stop-color="#052D18"/>
</linearGradient>
<radialGradient id="paint3_radial_10414_1805" cx="0" cy="0" r="1" gradientUnits="userSpaceOnUse" gradientTransform="translate(95.2373 23.6092) rotate(69.2712) scale(66.1717 87.2717)">
<stop stop-color="#2C764E" stop-opacity="0"/>
<stop offset="0.584902" stop-color="#093C41"/>
</radialGradient>
<linearGradient id="paint4_linear_10414_1805" x1="36.1921" y1="19.973" x2="100.122" y2="124.69" gradientUnits="userSpaceOnUse">
<stop stop-color="#88E06C"/>
<stop offset="1" stop-color="#1E794A"/>
</linearGradient>
<radialGradient id="paint5_radial_10414_1805" cx="0" cy="0" r="1" gradientTransform="matrix(-8.05574 56.0918 -66.7304 -5.64765 93.4 44.1877)" gradientUnits="userSpaceOnUse">
<stop stop-color="#2C764E" stop-opacity="0"/>
<stop offset="1" stop-color="#093C41"/>
</radialGradient>
<radialGradient id="paint6_radial_10414_1805" cx="0" cy="0" r="1" gradientTransform="matrix(49.0385 -21.3461 19.9998 45.9455 44.0873 111.635)" gradientUnits="userSpaceOnUse">
<stop offset="0.199965" stop-color="#093C41"/>
<stop offset="1" stop-color="#2C764E" stop-opacity="0"/>
</radialGradient>
<linearGradient id="paint7_linear_10414_1805" x1="37.5016" y1="55.0135" x2="77.382" y2="125.996" gradientUnits="userSpaceOnUse">
<stop stop-color="#88E06C"/>
<stop offset="1" stop-color="#1E794A"/>
</linearGradient>
<radialGradient id="paint8_radial_10414_1805" cx="0" cy="0" r="1" gradientTransform="matrix(-15.1437 65.9608 -84.2367 -17.637 72.2163 67.1605)" gradientUnits="userSpaceOnUse">
<stop stop-color="#2C764E" stop-opacity="0"/>
<stop offset="1" stop-color="#093C41"/>
</radialGradient>
<linearGradient id="paint9_linear_10414_1805" x1="152.551" y1="30.551" x2="205.564" y2="131.16" gradientUnits="userSpaceOnUse">
<stop stop-color="#88E06C"/>
<stop offset="1" stop-color="#1E794A"/>
</linearGradient>
<radialGradient id="paint10_radial_10414_1805" cx="0" cy="0" r="1" gradientTransform="matrix(28.9674 65.343 -88.7415 39.5602 152.306 72.7177)" gradientUnits="userSpaceOnUse">
<stop stop-color="#2C764E" stop-opacity="0"/>
<stop offset="0.771159" stop-color="#093C41"/>
</radialGradient>
<radialGradient id="paint11_radial_10414_1805" cx="0" cy="0" r="1" gradientTransform="matrix(54.428 -10.6825 6.44238 41.7986 149.492 91.3276)" gradientUnits="userSpaceOnUse">
<stop offset="0.199965" stop-color="#093C41"/>
<stop offset="1" stop-color="#2C764E" stop-opacity="0"/>
</radialGradient>
<linearGradient id="paint12_linear_10414_1805" x1="165.601" y1="64.6808" x2="197.754" y2="127.494" gradientUnits="userSpaceOnUse">
<stop stop-color="#88E06C"/>
<stop offset="1" stop-color="#1E794A"/>
</linearGradient>
<radialGradient id="paint13_radial_10414_1805" cx="0" cy="0" r="1" gradientTransform="matrix(10.8052 41.3291 -57.4099 13.5302 173.029 89.6532)" gradientUnits="userSpaceOnUse">
<stop offset="0.498233" stop-color="#2C764E" stop-opacity="0"/>
<stop offset="1" stop-color="#093C41"/>
</radialGradient>
<linearGradient id="paint14_linear_10414_1805" x1="145.342" y1="66.7146" x2="177.327" y2="126.04" gradientUnits="userSpaceOnUse">
<stop stop-color="#88E06C"/>
<stop offset="1" stop-color="#1E794A"/>
</linearGradient>
<radialGradient id="paint15_radial_10414_1805" cx="0" cy="0" r="1" gradientUnits="userSpaceOnUse" gradientTransform="translate(152.155 90.8358) rotate(76.0594) scale(41.1318 54.2474)">
<stop stop-color="#2C764E" stop-opacity="0"/>
<stop offset="0.584902" stop-color="#093C41"/>
</radialGradient>
<linearGradient id="paint16_linear_10414_1805" x1="72.6933" y1="11.5345" x2="122.024" y2="39.5176" gradientUnits="userSpaceOnUse">
<stop offset="0.0664122" stop-color="#3C5027"/>
<stop offset="0.552885" stop-color="#061C13"/>
<stop offset="1"/>
</linearGradient>
<linearGradient id="paint17_linear_10414_1805" x1="29.7019" y1="27.4408" x2="79.0365" y2="55.4296" gradientUnits="userSpaceOnUse">
<stop offset="0.0664122" stop-color="#3C5027"/>
<stop offset="0.552885" stop-color="#061C13"/>
<stop offset="1"/>
</linearGradient>
<linearGradient id="paint18_linear_10414_1805" x1="174.174" y1="11.663" x2="217.296" y2="36.1252" gradientUnits="userSpaceOnUse">
<stop offset="0.0664122" stop-color="#3C5027"/>
<stop offset="0.552885" stop-color="#061C13"/>
<stop offset="1"/>
</linearGradient>
<linearGradient id="paint19_linear_10414_1805" x1="202.497" y1="32.5268" x2="245.619" y2="56.9889" gradientUnits="userSpaceOnUse">
<stop offset="0.0664122" stop-color="#516C34"/>
<stop offset="0.552885" stop-color="#0C3D2A"/>
<stop offset="1"/>
</linearGradient>
<linearGradient id="paint20_linear_10414_1805" x1="125.442" y1="21.6336" x2="156.843" y2="39.832" gradientUnits="userSpaceOnUse">
<stop offset="0.0664122" stop-color="#3C5027"/>
<stop offset="0.552885" stop-color="#061C13"/>
<stop offset="1"/>
</linearGradient>
<linearGradient id="paint21_linear_10414_1805" x1="151.675" y1="15.4656" x2="192.154" y2="38.9237" gradientUnits="userSpaceOnUse">
<stop offset="0.0664122" stop-color="#3C5027"/>
<stop offset="0.552885" stop-color="#061C13"/>
<stop offset="1"/>
</linearGradient>
<linearGradient id="paint22_linear_10414_1805" x1="134.219" y1="29.2371" x2="165.621" y2="47.4355" gradientUnits="userSpaceOnUse">
<stop offset="0.0664122" stop-color="#3C5027"/>
<stop offset="0.552885" stop-color="#061C13"/>
<stop offset="1"/>
</linearGradient>
<linearGradient id="paint23_linear_10414_1805" x1="199.931" y1="57.7288" x2="246.469" y2="89.3532" gradientUnits="userSpaceOnUse">
<stop offset="0.0664122" stop-color="#4C6531"/>
<stop offset="0.552885" stop-color="#0B3525"/>
<stop offset="1"/>
</linearGradient>
<linearGradient id="paint24_linear_10414_1805" x1="144.708" y1="26.3764" x2="183.652" y2="52.8505" gradientUnits="userSpaceOnUse">
<stop offset="0.0664122" stop-color="#4C6531"/>
<stop offset="0.552885" stop-color="#0B3525"/>
<stop offset="1"/>
</linearGradient>
<linearGradient id="paint25_linear_10414_1805" x1="17.4621" y1="48.5691" x2="71.269" y2="85.142" gradientUnits="userSpaceOnUse">
<stop offset="0.0664122" stop-color="#4C6531"/>
<stop offset="0.552885" stop-color="#0B3525"/>
<stop offset="1"/>
</linearGradient>
<linearGradient id="paint26_linear_10414_1805" x1="91.8506" y1="26.9475" x2="133.867" y2="51.2973" gradientUnits="userSpaceOnUse">
<stop offset="0.0664122" stop-color="#4C6531"/>
<stop offset="0.552885" stop-color="#0B3525"/>
<stop offset="1"/>
</linearGradient>
<linearGradient id="paint27_linear_10414_1805" x1="61.2187" y1="23.8301" x2="113.93" y2="59.3115" gradientUnits="userSpaceOnUse">
<stop offset="0.0664122" stop-color="#4C6531"/>
<stop offset="0.552885" stop-color="#0B3525"/>
<stop offset="1"/>
</linearGradient>
<linearGradient id="paint28_linear_10414_1805" x1="158.232" y1="25.5928" x2="210.943" y2="61.0742" gradientUnits="userSpaceOnUse">
<stop offset="0.0664122" stop-color="#668742"/>
<stop offset="0.552885" stop-color="#135F42"/>
<stop offset="1" stop-color="#021D1B"/>
</linearGradient>
<linearGradient id="paint29_linear_10414_1805" x1="172.732" y1="31.1574" x2="247.744" y2="81.6509" gradientUnits="userSpaceOnUse">
<stop offset="0.0664122" stop-color="#78A04D"/>
<stop offset="0.552885" stop-color="#197D56"/>
<stop offset="1" stop-color="#053E3A"/>
</linearGradient>
<linearGradient id="paint30_linear_10414_1805" x1="33.0932" y1="35.7119" x2="92.4457" y2="81.2346" gradientUnits="userSpaceOnUse">
<stop offset="0.0664122" stop-color="#6B8E45"/>
<stop offset="0.552885" stop-color="#156848"/>
<stop offset="1" stop-color="#032624"/>
</linearGradient>
<linearGradient id="paint31_linear_10414_1805" x1="48.0283" y1="35.6584" x2="117.075" y2="82.1385" gradientUnits="userSpaceOnUse">
<stop offset="0.0664122" stop-color="#73994A"/>
<stop offset="0.552885" stop-color="#187550"/>
<stop offset="1" stop-color="#043531"/>
</linearGradient>
<linearGradient id="paint32_linear_10414_1805" x1="98.1364" y1="66.6099" x2="98.1364" y2="97.9546" gradientUnits="userSpaceOnUse">
<stop stop-color="#FFC16F"/>
<stop offset="1" stop-color="#E17B2D"/>
</linearGradient>
<linearGradient id="paint33_linear_10414_1805" x1="90.8788" y1="68.4688" x2="90.8788" y2="108.267" gradientUnits="userSpaceOnUse">
<stop stop-color="#FFC16F"/>
<stop offset="1" stop-color="#E17B2D"/>
</linearGradient>
<linearGradient id="paint34_linear_10414_1805" x1="77.7142" y1="68.6089" x2="77.7142" y2="120" gradientUnits="userSpaceOnUse">
<stop stop-color="#FFC16F"/>
<stop offset="1" stop-color="#E17B2D"/>
</linearGradient>
<linearGradient id="paint35_linear_10414_1805" x1="103.2" y1="63.0581" x2="103.2" y2="90.2889" gradientUnits="userSpaceOnUse">
<stop stop-color="#FFC16F"/>
<stop offset="1" stop-color="#E17B2D"/>
</linearGradient>
<linearGradient id="paint36_linear_10414_1805" x1="106.903" y1="60.7817" x2="106.903" y2="84.1416" gradientUnits="userSpaceOnUse">
<stop stop-color="#FFC16F"/>
<stop offset="1" stop-color="#E17B2D"/>
</linearGradient>
<linearGradient id="paint37_linear_10414_1805" x1="109.625" y1="59.0938" x2="109.625" y2="82.4537" gradientUnits="userSpaceOnUse">
<stop stop-color="#FFC16F"/>
<stop offset="1" stop-color="#E17B2D"/>
</linearGradient>
<linearGradient id="paint38_linear_10414_1805" x1="111.676" y1="56.2568" x2="111.676" y2="79.6167" gradientUnits="userSpaceOnUse">
<stop stop-color="#FFC16F"/>
<stop offset="1" stop-color="#E17B2D"/>
</linearGradient>
<linearGradient id="paint39_linear_10414_1805" x1="113.055" y1="54.1968" x2="113.055" y2="77.5567" gradientUnits="userSpaceOnUse">
<stop stop-color="#FFC16F"/>
<stop offset="1" stop-color="#E17B2D"/>
</linearGradient>
<linearGradient id="paint40_linear_10414_1805" x1="114.13" y1="52.813" x2="114.13" y2="76.1729" gradientUnits="userSpaceOnUse">
<stop stop-color="#FFC16F"/>
<stop offset="1" stop-color="#E17B2D"/>
</linearGradient>
<linearGradient id="paint41_linear_10414_1805" x1="115.203" y1="51.3774" x2="115.203" y2="74.7373" gradientUnits="userSpaceOnUse">
<stop stop-color="#FFC16F"/>
<stop offset="1" stop-color="#E17B2D"/>
</linearGradient>
<linearGradient id="paint42_linear_10414_1805" x1="116.032" y1="49.7686" x2="116.032" y2="73.1285" gradientUnits="userSpaceOnUse">
<stop stop-color="#FFC16F"/>
<stop offset="1" stop-color="#E17B2D"/>
</linearGradient>
<linearGradient id="paint43_linear_10414_1805" x1="116.861" y1="47.7695" x2="116.861" y2="71.1294" gradientUnits="userSpaceOnUse">
<stop stop-color="#FFC16F"/>
<stop offset="1" stop-color="#E17B2D"/>
</linearGradient>
<linearGradient id="paint44_linear_10414_1805" x1="142.199" y1="66.6099" x2="142.199" y2="97.9546" gradientUnits="userSpaceOnUse">
<stop stop-color="#FFC16F"/>
<stop offset="1" stop-color="#E17B2D"/>
</linearGradient>
<linearGradient id="paint45_linear_10414_1805" x1="149.457" y1="68.4688" x2="149.457" y2="108.267" gradientUnits="userSpaceOnUse">
<stop stop-color="#FFC16F"/>
<stop offset="1" stop-color="#E17B2D"/>
</linearGradient>
<linearGradient id="paint46_linear_10414_1805" x1="162.621" y1="68.6089" x2="162.621" y2="120" gradientUnits="userSpaceOnUse">
<stop stop-color="#FFC16F"/>
<stop offset="1" stop-color="#E17B2D"/>
</linearGradient>
<linearGradient id="paint47_linear_10414_1805" x1="137.135" y1="63.0581" x2="137.135" y2="90.2889" gradientUnits="userSpaceOnUse">
<stop stop-color="#FFC16F"/>
<stop offset="1" stop-color="#E17B2D"/>
</linearGradient>
<linearGradient id="paint48_linear_10414_1805" x1="133.432" y1="60.7817" x2="133.432" y2="84.1416" gradientUnits="userSpaceOnUse">
<stop stop-color="#FFC16F"/>
<stop offset="1" stop-color="#E17B2D"/>
</linearGradient>
<linearGradient id="paint49_linear_10414_1805" x1="130.71" y1="59.0938" x2="130.71" y2="82.4537" gradientUnits="userSpaceOnUse">
<stop stop-color="#FFC16F"/>
<stop offset="1" stop-color="#E17B2D"/>
</linearGradient>
<linearGradient id="paint50_linear_10414_1805" x1="128.659" y1="56.2568" x2="128.659" y2="79.6167" gradientUnits="userSpaceOnUse">
<stop stop-color="#FFC16F"/>
<stop offset="1" stop-color="#E17B2D"/>
</linearGradient>
<linearGradient id="paint51_linear_10414_1805" x1="127.28" y1="54.1968" x2="127.28" y2="77.5567" gradientUnits="userSpaceOnUse">
<stop stop-color="#FFC16F"/>
<stop offset="1" stop-color="#E17B2D"/>
</linearGradient>
<linearGradient id="paint52_linear_10414_1805" x1="126.205" y1="52.813" x2="126.205" y2="76.1729" gradientUnits="userSpaceOnUse">
<stop stop-color="#FFC16F"/>
<stop offset="1" stop-color="#E17B2D"/>
</linearGradient>
<linearGradient id="paint53_linear_10414_1805" x1="125.132" y1="51.3774" x2="125.132" y2="74.7373" gradientUnits="userSpaceOnUse">
<stop stop-color="#FFC16F"/>
<stop offset="1" stop-color="#E17B2D"/>
</linearGradient>
<linearGradient id="paint54_linear_10414_1805" x1="124.303" y1="49.7686" x2="124.303" y2="73.1285" gradientUnits="userSpaceOnUse">
<stop stop-color="#FFC16F"/>
<stop offset="1" stop-color="#E17B2D"/>
</linearGradient>
<linearGradient id="paint55_linear_10414_1805" x1="123.474" y1="47.7695" x2="123.474" y2="71.1294" gradientUnits="userSpaceOnUse">
<stop stop-color="#FFC16F"/>
<stop offset="1" stop-color="#E17B2D"/>
</linearGradient>
<linearGradient id="paint56_linear_10414_1805" x1="120.02" y1="32.0621" x2="120.02" y2="119.999" gradientUnits="userSpaceOnUse">
<stop stop-color="#B95B14"/>
<stop offset="1" stop-color="#FFBB67"/>
</linearGradient>
<linearGradient id="paint57_linear_10414_1805" x1="8.75757" y1="54.7356" x2="117.744" y2="54.7356" gradientUnits="userSpaceOnUse">
<stop stop-color="#FFC06F" stop-opacity="0"/>
<stop offset="0.240062" stop-color="#FEAD54"/>
<stop offset="1" stop-color="#E17B2D"/>
</linearGradient>
<linearGradient id="paint58_linear_10414_1805" x1="231.578" y1="54.7356" x2="122.591" y2="54.7356" gradientUnits="userSpaceOnUse">
<stop stop-color="#FFC06F" stop-opacity="0"/>
<stop offset="0.240062" stop-color="#FEAD54"/>
<stop offset="1" stop-color="#E17B2D"/>
</linearGradient>
<linearGradient id="paint59_linear_10414_1805" x1="100.262" y1="51.3481" x2="55.1082" y2="120" gradientUnits="userSpaceOnUse">
<stop stop-color="#FFC16F"/>
<stop offset="1" stop-color="#A95211"/>
</linearGradient>
<linearGradient id="paint60_linear_10414_1805" x1="50.2981" y1="57.0161" x2="50.2981" y2="119.999" gradientUnits="userSpaceOnUse">
<stop stop-color="#FFC16F"/>
<stop offset="1" stop-color="#E17B2D"/>
</linearGradient>
<linearGradient id="paint61_linear_10414_1805" x1="140.073" y1="51.3481" x2="185.227" y2="120" gradientUnits="userSpaceOnUse">
<stop stop-color="#FFC16F"/>
<stop offset="1" stop-color="#A95211"/>
</linearGradient>
<linearGradient id="paint62_linear_10414_1805" x1="190.037" y1="57.0161" x2="190.037" y2="119.999" gradientUnits="userSpaceOnUse">
<stop stop-color="#FFC16F"/>
<stop offset="1" stop-color="#E17B2D"/>
</linearGradient>
</defs>
</svg>
