<svg viewBox="0 0 240 120" fill="none" xmlns="http://www.w3.org/2000/svg">
<path d="M175.386 54.5745C175.386 53.9735 175.799 53.448 176.383 53.3059C190.41 49.893 198.457 49.8895 211.62 53.2953C212.195 53.4439 212.597 53.9647 212.597 54.5582V100.632C212.597 101.229 212.189 101.752 211.61 101.897C198.015 105.307 189.968 105.307 176.373 101.897C175.794 101.752 175.386 101.229 175.386 100.632V54.5745Z" fill="url(#paint0_linear_1918_1034)"/>
<path d="M175.386 54.5745C175.386 53.9735 175.799 53.448 176.383 53.3059C190.41 49.893 198.457 49.8895 211.62 53.2953C212.195 53.4439 212.597 53.9647 212.597 54.5582V100.632C212.597 101.229 212.189 101.752 211.61 101.897C198.015 105.307 189.968 105.307 176.373 101.897C175.794 101.752 175.386 101.229 175.386 100.632V54.5745Z" fill="url(#paint1_radial_1918_1034)"/>
<path d="M175.386 54.5745C175.386 53.9735 175.799 53.448 176.383 53.3059C190.41 49.893 198.457 49.8895 211.62 53.2953C212.195 53.4439 212.597 53.9647 212.597 54.5582V100.632C212.597 101.229 212.189 101.752 211.61 101.897C198.015 105.307 189.968 105.307 176.373 101.897C175.794 101.752 175.386 101.229 175.386 100.632V54.5745Z" fill="url(#paint2_radial_1918_1034)"/>
<path d="M177.384 54.3309C176.813 54.5067 176.791 55.2614 177.358 55.4503C186.821 58.6016 204.135 58.0846 210.796 55.4918C211.326 55.2855 211.256 54.5956 210.709 54.4416C199.517 51.2946 187.017 51.3655 177.384 54.3309Z" fill="url(#paint3_radial_1918_1034)"/>
<path fill-rule="evenodd" clip-rule="evenodd" d="M193.67 54.0018V48.6579H194.98V54.0018H193.67Z" fill="black"/>
<path d="M204.217 38.4487C205.038 30.5912 201.827 23.6577 192.467 18.4615C194.257 26.2561 189.204 29.5479 186.886 35.2507C184.519 41.0742 186.691 47.2446 192.467 48.843C198.243 50.4415 203.535 44.972 204.217 38.4487Z" fill="url(#paint4_radial_1918_1034)"/>
<path d="M204.217 38.4487C205.038 30.5912 201.827 23.6577 192.467 18.4615C194.257 26.2561 189.204 29.5479 186.886 35.2507C184.519 41.0742 186.691 47.2446 192.467 48.843C198.243 50.4415 203.535 44.972 204.217 38.4487Z" fill="url(#paint5_radial_1918_1034)"/>
<path fill-rule="evenodd" clip-rule="evenodd" d="M145.038 100.701C145.038 94.5988 148.282 89.0715 152.599 84.7578C161.348 76.0146 166.76 63.9324 166.76 50.5861C166.76 23.9055 145.131 2.27667 118.451 2.27667C91.7701 2.27667 70.1412 23.9055 70.1412 50.5861C70.1412 63.9285 75.5501 76.0075 84.2949 84.7501C88.6123 89.0666 91.857 94.5963 91.857 100.701C91.857 105.86 94.7285 110.59 99.3053 112.971C111.304 119.211 125.591 119.211 137.59 112.971C142.167 110.59 145.038 105.86 145.038 100.701Z" fill="url(#paint6_linear_1918_1034)"/>
<path fill-rule="evenodd" clip-rule="evenodd" d="M145.038 100.701C145.038 94.5988 148.282 89.0715 152.599 84.7578C161.348 76.0146 166.76 63.9324 166.76 50.5861C166.76 23.9055 145.131 2.27667 118.451 2.27667C91.7701 2.27667 70.1412 23.9055 70.1412 50.5861C70.1412 63.9285 75.5501 76.0075 84.2949 84.7501C88.6123 89.0666 91.857 94.5963 91.857 100.701C91.857 105.86 94.7285 110.59 99.3053 112.971C111.304 119.211 125.591 119.211 137.59 112.971C142.167 110.59 145.038 105.86 145.038 100.701Z" fill="url(#paint7_radial_1918_1034)"/>
<path d="M103.349 28.9658C106.504 29.4424 113.996 29.4066 117.273 24.8081L116.95 23.3603C108.888 21.4556 104.523 26.3037 103.349 28.9658Z" fill="url(#paint8_radial_1918_1034)"/>
<path d="M103.349 28.9658C106.504 29.4424 113.996 29.4066 117.273 24.8081L116.95 23.3603C108.888 21.4556 104.523 26.3037 103.349 28.9658Z" fill="url(#paint9_radial_1918_1034)"/>
<path d="M135.265 28.9658C132.11 29.4424 124.618 29.4066 121.341 24.8081L121.664 23.3603C129.726 21.4556 134.091 26.3037 135.265 28.9658Z" fill="url(#paint10_radial_1918_1034)"/>
<path d="M135.265 28.9658C132.11 29.4424 124.618 29.4066 121.341 24.8081L121.664 23.3603C129.726 21.4556 134.091 26.3037 135.265 28.9658Z" fill="url(#paint11_radial_1918_1034)"/>
<path fill-rule="evenodd" clip-rule="evenodd" d="M104.926 93.3934C105.563 93.3934 106.079 93.8595 106.079 94.4345V97.2744C108.551 97.7536 111.068 98.0956 113.615 98.307V95.563C113.615 94.988 114.132 94.5219 114.769 94.5219C115.407 94.5219 115.923 94.988 115.923 95.563V98.4626C118.416 98.5923 120.933 98.6002 123.459 98.4923V95.563C123.459 94.988 123.976 94.5219 124.613 94.5219C125.25 94.5219 125.767 94.988 125.767 95.563V98.3618C128.279 98.1851 130.796 97.896 133.303 97.5001V94.4345C133.303 93.8595 133.82 93.3934 134.457 93.3934C135.094 93.3934 135.611 93.8595 135.611 94.4345V97.1051C137.381 96.7786 139.144 96.3994 140.895 95.9696C141.514 95.8177 142.139 96.1962 142.291 96.8151C142.443 97.4339 142.064 98.0588 141.445 98.2107C139.515 98.6847 137.568 99.0989 135.611 99.4507V102.837C135.611 103.412 135.094 103.879 134.457 103.879C133.82 103.879 133.303 103.412 133.303 102.837V99.8356C130.799 100.221 128.282 100.503 125.767 100.675V103.966C125.767 104.541 125.25 105.007 124.613 105.007C123.976 105.007 123.459 104.541 123.459 103.966V100.802C120.937 100.907 118.42 100.899 115.923 100.773V103.966C115.923 104.541 115.407 105.007 114.769 105.007C114.132 105.007 113.615 104.541 113.615 103.966V100.623C111.073 100.418 108.556 100.087 106.079 99.6237V102.837C106.079 103.412 105.563 103.879 104.926 103.879C104.288 103.879 103.772 103.412 103.772 102.837V99.1505C101.766 98.7027 99.7913 98.1645 97.8545 97.5324C97.2487 97.3347 96.9178 96.6833 97.1155 96.0775C97.3132 95.4717 97.9646 95.1409 98.5704 95.3386C100.274 95.8944 102.009 96.3753 103.772 96.7837V94.4345C103.772 93.8595 104.288 93.3934 104.926 93.3934Z" fill="url(#paint12_radial_1918_1034)"/>
<path fill-rule="evenodd" clip-rule="evenodd" d="M104.926 93.3934C105.563 93.3934 106.079 93.8595 106.079 94.4345V97.2744C108.551 97.7536 111.068 98.0956 113.615 98.307V95.563C113.615 94.988 114.132 94.5219 114.769 94.5219C115.407 94.5219 115.923 94.988 115.923 95.563V98.4626C118.416 98.5923 120.933 98.6002 123.459 98.4923V95.563C123.459 94.988 123.976 94.5219 124.613 94.5219C125.25 94.5219 125.767 94.988 125.767 95.563V98.3618C128.279 98.1851 130.796 97.896 133.303 97.5001V94.4345C133.303 93.8595 133.82 93.3934 134.457 93.3934C135.094 93.3934 135.611 93.8595 135.611 94.4345V97.1051C137.381 96.7786 139.144 96.3994 140.895 95.9696C141.514 95.8177 142.139 96.1962 142.291 96.8151C142.443 97.4339 142.064 98.0588 141.445 98.2107C139.515 98.6847 137.568 99.0989 135.611 99.4507V102.837C135.611 103.412 135.094 103.879 134.457 103.879C133.82 103.879 133.303 103.412 133.303 102.837V99.8356C130.799 100.221 128.282 100.503 125.767 100.675V103.966C125.767 104.541 125.25 105.007 124.613 105.007C123.976 105.007 123.459 104.541 123.459 103.966V100.802C120.937 100.907 118.42 100.899 115.923 100.773V103.966C115.923 104.541 115.407 105.007 114.769 105.007C114.132 105.007 113.615 104.541 113.615 103.966V100.623C111.073 100.418 108.556 100.087 106.079 99.6237V102.837C106.079 103.412 105.563 103.879 104.926 103.879C104.288 103.879 103.772 103.412 103.772 102.837V99.1505C101.766 98.7027 99.7913 98.1645 97.8545 97.5324C97.2487 97.3347 96.9178 96.6833 97.1155 96.0775C97.3132 95.4717 97.9646 95.1409 98.5704 95.3386C100.274 95.8944 102.009 96.3753 103.772 96.7837V94.4345C103.772 93.8595 104.288 93.3934 104.926 93.3934Z" fill="url(#paint13_radial_1918_1034)"/>
<path fill-rule="evenodd" clip-rule="evenodd" d="M119.132 78.5557C116.69 82.6207 113.164 84.963 111.163 83.808C109.118 82.6269 109.442 78.2353 111.887 73.9993C114.01 70.3231 117.033 67.9721 119.132 68.1868C121.231 67.9721 124.253 70.3231 126.376 73.9993C128.822 78.2353 129.146 82.6269 127.1 83.808C125.099 84.963 121.574 82.6207 119.132 78.5557Z" fill="url(#paint14_radial_1918_1034)"/>
<path fill-rule="evenodd" clip-rule="evenodd" d="M119.132 78.5557C116.69 82.6207 113.164 84.963 111.163 83.808C109.118 82.6269 109.442 78.2353 111.887 73.9993C114.01 70.3231 117.033 67.9721 119.132 68.1868C121.231 67.9721 124.253 70.3231 126.376 73.9993C128.822 78.2353 129.146 82.6269 127.1 83.808C125.099 84.963 121.574 82.6207 119.132 78.5557Z" fill="url(#paint15_radial_1918_1034)"/>
<path d="M109.58 35.931C108.393 30.3642 111.946 24.8852 117.513 23.6981C118.073 23.5786 118.622 23.9347 118.739 24.4931C119.926 30.0599 116.373 35.5389 110.806 36.726C110.249 36.8476 109.699 36.4915 109.58 35.931Z" fill="url(#paint16_linear_1918_1034)"/>
<path d="M109.58 35.931C108.393 30.3642 111.946 24.8852 117.513 23.6981C118.073 23.5786 118.622 23.9347 118.739 24.4931C119.926 30.0599 116.373 35.5389 110.806 36.726C110.249 36.8476 109.699 36.4915 109.58 35.931Z" fill="url(#paint17_radial_1918_1034)"/>
<path d="M104.023 17.928C108.951 15.0788 115.259 16.7648 118.109 21.6923C118.395 22.1884 118.226 22.8208 117.731 23.1039C112.804 25.9531 106.495 24.2671 103.646 19.3396C103.358 18.8472 103.527 18.2148 104.023 17.928Z" fill="url(#paint18_linear_1918_1034)"/>
<path d="M104.023 17.928C108.951 15.0788 115.259 16.7648 118.109 21.6923C118.395 22.1884 118.226 22.8208 117.731 23.1039C112.804 25.9531 106.495 24.2671 103.646 19.3396C103.358 18.8472 103.527 18.2148 104.023 17.928Z" fill="url(#paint19_radial_1918_1034)"/>
<path d="M84.9398 80.696C89.8674 77.8468 96.1762 79.5328 99.0254 84.4603C99.3122 84.9564 99.1432 85.5888 98.6482 85.8719C93.7206 88.7211 87.4118 87.0351 84.5626 82.1076C84.2748 81.6152 84.4438 80.9828 84.9398 80.696Z" fill="url(#paint20_linear_1918_1034)"/>
<path d="M84.9398 80.696C89.8674 77.8468 96.1762 79.5328 99.0254 84.4603C99.3122 84.9564 99.1432 85.5888 98.6482 85.8719C93.7206 88.7211 87.4118 87.0351 84.5626 82.1076C84.2748 81.6152 84.4438 80.9828 84.9398 80.696Z" fill="url(#paint21_radial_1918_1034)"/>
<path d="M119.222 6.6015C123.454 10.4074 123.8 16.9284 119.994 21.1609C119.611 21.587 118.957 21.6217 118.535 21.2383C114.303 17.4324 113.957 10.9114 117.762 6.67893C118.142 6.25302 118.795 6.21833 119.222 6.6015Z" fill="url(#paint22_linear_1918_1034)"/>
<path d="M119.222 6.6015C123.454 10.4074 123.8 16.9284 119.994 21.1609C119.611 21.587 118.957 21.6217 118.535 21.2383C114.303 17.4324 113.957 10.9114 117.762 6.67893C118.142 6.25302 118.795 6.21833 119.222 6.6015Z" fill="url(#paint23_radial_1918_1034)"/>
<path d="M128.452 35.5224C122.791 34.9312 118.678 29.859 119.269 24.1978C119.329 23.6278 119.837 23.2155 120.404 23.2775C126.065 23.8688 130.178 28.941 129.587 34.6022C129.53 35.1697 129.022 35.582 128.452 35.5224Z" fill="url(#paint24_linear_1918_1034)"/>
<path d="M128.452 35.5224C122.791 34.9312 118.678 29.859 119.269 24.1978C119.329 23.6278 119.837 23.2155 120.404 23.2775C126.065 23.8688 130.178 28.941 129.587 34.6022C129.53 35.1697 129.022 35.582 128.452 35.5224Z" fill="url(#paint25_radial_1918_1034)"/>
<path d="M134.807 17.6617C132.495 22.8631 126.4 25.2073 121.199 22.8956C120.675 22.6629 120.44 22.0519 120.674 21.5319C122.986 16.3305 129.081 13.9863 134.282 16.298C134.805 16.5271 135.04 17.1381 134.807 17.6617Z" fill="url(#paint26_linear_1918_1034)"/>
<path d="M134.807 17.6617C132.495 22.8631 126.4 25.2073 121.199 22.8956C120.675 22.6629 120.44 22.0519 120.674 21.5319C122.986 16.3305 129.081 13.9863 134.282 16.298C134.805 16.5271 135.04 17.1381 134.807 17.6617Z" fill="url(#paint27_radial_1918_1034)"/>
<path d="M152.221 78.9565C149.909 84.1579 143.814 86.5021 138.613 84.1903C138.089 83.9576 137.854 83.3466 138.088 82.8266C140.4 77.6252 146.495 75.281 151.696 77.5927C152.219 77.8218 152.454 78.4328 152.221 78.9565Z" fill="url(#paint28_linear_1918_1034)"/>
<path d="M152.221 78.9565C149.909 84.1579 143.814 86.5021 138.613 84.1903C138.089 83.9576 137.854 83.3466 138.088 82.8266C140.4 77.6252 146.495 75.281 151.696 77.5927C152.219 77.8218 152.454 78.4328 152.221 78.9565Z" fill="url(#paint29_radial_1918_1034)"/>
<circle cx="4.35735" cy="4.35735" r="4.35735" transform="matrix(0.839027 0.544089 0.544089 -0.839027 113.634 23.7567)" fill="url(#paint30_radial_1918_1034)"/>
<circle cx="4.35735" cy="4.35735" r="4.35735" transform="matrix(0.839027 0.544089 0.544089 -0.839027 113.634 23.7567)" fill="url(#paint31_radial_1918_1034)"/>
<circle cx="4.35735" cy="4.35735" r="4.35735" transform="matrix(0.839027 0.544089 0.544089 -0.839027 113.634 23.7567)" fill="url(#paint32_radial_1918_1034)"/>
<circle cx="100.279" cy="56.5874" r="24.0302" fill="url(#paint33_radial_1918_1034)"/>
<path d="M92.3223 27.8669C86.6092 28.7714 74.7264 35.9896 90.3498 48.6083L101.14 48.6407C112.567 29.4725 98.0353 26.9624 92.3223 27.8669Z" fill="url(#paint34_radial_1918_1034)"/>
<path d="M70.0332 46.3154C68.9955 51.4441 71.8183 65.3177 90.1931 57.2129L91.9841 47.0661C80.448 29.9377 71.0709 41.1867 70.0332 46.3154Z" fill="url(#paint35_radial_1918_1034)"/>
<path d="M80.9567 72.5532C85.4765 76.1627 100.551 78.1437 97.2562 59.2797L91.763 53.8487C69.9022 58.3326 76.4369 68.9437 80.9567 72.5532Z" fill="url(#paint36_radial_1918_1034)"/>
<path d="M110.863 70.9C115.582 67.5548 120.79 53.9838 98.7703 51.5766L95.0279 55.4154C93.2909 77.6636 106.144 74.2452 110.863 70.9Z" fill="url(#paint37_radial_1918_1034)"/>
<path fill-rule="evenodd" clip-rule="evenodd" d="M98.2846 48.8081L101.14 48.6405C104.036 43.7822 105.265 39.994 105.392 37.0602C111.649 33.116 116.642 39.3124 118.095 43.2921C120.078 48.7256 119.65 63.2344 98.6458 55.6958L98.2846 48.8081Z" fill="url(#paint38_radial_1918_1034)"/>
<circle cx="94.5737" cy="52.9045" r="8.20306" transform="rotate(12.3621 94.5737 52.9045)" fill="url(#paint39_radial_1918_1034)"/>
<circle cx="94.5737" cy="52.9045" r="8.20306" transform="rotate(12.3621 94.5737 52.9045)" fill="url(#paint40_radial_1918_1034)"/>
<circle cx="94.5737" cy="52.9045" r="8.20306" transform="rotate(12.3621 94.5737 52.9045)" fill="url(#paint41_radial_1918_1034)"/>
<circle cx="145.466" cy="55.2037" r="24.0302" fill="url(#paint42_radial_1918_1034)"/>
<path d="M141.613 28.3399C136.003 29.228 124.335 36.3159 139.676 48.7066L150.272 48.7385C161.492 29.9165 147.223 27.4518 141.613 28.3399Z" fill="url(#paint43_radial_1918_1034)"/>
<path d="M119.727 46.4557C118.708 51.4917 121.48 65.1147 139.523 57.1563L141.282 47.1928C129.954 30.3739 120.746 41.4196 119.727 46.4557Z" fill="url(#paint44_radial_1918_1034)"/>
<path d="M130.455 72.219C134.893 75.7633 149.696 77.7084 146.46 59.1852L141.066 53.8523C119.6 58.2553 126.017 68.6746 130.455 72.219Z" fill="url(#paint45_radial_1918_1034)"/>
<path d="M159.821 70.5963C164.455 67.3115 169.569 53.9856 147.947 51.6219L144.272 55.3913C142.567 77.2376 155.188 73.881 159.821 70.5963Z" fill="url(#paint46_radial_1918_1034)"/>
<path fill-rule="evenodd" clip-rule="evenodd" d="M147.47 48.9032L150.274 48.7386C153.118 43.9677 154.325 40.2478 154.449 37.367C160.593 33.4944 165.496 39.5788 166.922 43.4865C168.87 48.8218 168.449 63.0685 147.825 55.6661L147.47 48.9032Z" fill="url(#paint47_radial_1918_1034)"/>
<circle cx="143.826" cy="52.9255" r="8.05488" transform="rotate(12.3621 143.826 52.9255)" fill="url(#paint48_radial_1918_1034)"/>
<circle cx="143.826" cy="52.9255" r="8.05488" transform="rotate(12.3621 143.826 52.9255)" fill="url(#paint49_radial_1918_1034)"/>
<circle cx="143.826" cy="52.9255" r="8.05488" transform="rotate(12.3621 143.826 52.9255)" fill="url(#paint50_radial_1918_1034)"/>
<path d="M57.8237 77.3108C53.4296 78.0438 43.5869 81.4946 41.595 89.7182L42.7511 91.6929C54.3246 90.8264 57.6218 81.7438 57.8237 77.3108Z" fill="url(#paint51_radial_1918_1034)"/>
<path d="M57.8237 77.3108C53.4296 78.0438 43.5869 81.4946 41.595 89.7182L42.7511 91.6929C54.3246 90.8264 57.6218 81.7438 57.8237 77.3108Z" fill="url(#paint52_radial_1918_1034)"/>
<path d="M23.2397 80.8044C27.6904 80.5602 38.055 81.7792 41.7965 89.3736L41.0991 91.5544C29.6092 93.2369 24.4054 85.0888 23.2397 80.8044Z" fill="url(#paint53_radial_1918_1034)"/>
<path d="M23.2397 80.8044C27.6904 80.5602 38.055 81.7792 41.7965 89.3736L41.0991 91.5544C29.6092 93.2369 24.4054 85.0888 23.2397 80.8044Z" fill="url(#paint54_radial_1918_1034)"/>
<path d="M55.1967 66.4008C50.6495 67.1595 40.4637 70.7306 38.4025 79.2407L39.5989 81.2842C51.5757 80.3875 54.9878 70.9883 55.1967 66.4008Z" fill="url(#paint55_radial_1918_1034)"/>
<path d="M55.1967 66.4008C50.6495 67.1595 40.4637 70.7306 38.4025 79.2407L39.5989 81.2842C51.5757 80.3875 54.9878 70.9883 55.1967 66.4008Z" fill="url(#paint56_radial_1918_1034)"/>
<path d="M20.083 67.1983C24.6861 66.9457 35.4059 68.2064 39.2757 76.0611L38.5544 78.3166C26.6707 80.0568 21.2886 71.6294 20.083 67.1983Z" fill="url(#paint57_radial_1918_1034)"/>
<path d="M20.083 67.1983C24.6861 66.9457 35.4059 68.2064 39.2757 76.0611L38.5544 78.3166C26.6707 80.0568 21.2886 71.6294 20.083 67.1983Z" fill="url(#paint58_radial_1918_1034)"/>
<path d="M51.9059 57.8534C48.4072 58.114 40.4407 60.1162 38.2902 66.4233L39.0556 68.0548C48.1946 68.2033 51.4304 61.3157 51.9059 57.8534Z" fill="url(#paint59_radial_1918_1034)"/>
<path d="M51.9059 57.8534C48.4072 58.114 40.4407 60.1162 38.2902 66.4233L39.0556 68.0548C48.1946 68.2033 51.4304 61.3157 51.9059 57.8534Z" fill="url(#paint60_radial_1918_1034)"/>
<path d="M23.0317 58.5076C26.5029 57.9979 34.7143 58.2123 38.1902 63.8976L37.7994 65.6569C28.9134 67.7973 24.2518 61.7825 23.0317 58.5076Z" fill="url(#paint61_radial_1918_1034)"/>
<path d="M23.0317 58.5076C26.5029 57.9979 34.7143 58.2123 38.1902 63.8976L37.7994 65.6569C28.9134 67.7973 24.2518 61.7825 23.0317 58.5076Z" fill="url(#paint62_radial_1918_1034)"/>
<path d="M47.3586 103C43.173 96.5752 35.6269 78.9928 38.9272 60.0609" stroke="#C08C70" stroke-width="1.92208" stroke-linecap="round"/>
<path d="M47.3586 103C43.173 96.5752 35.6269 78.9928 38.9272 60.0609" stroke="url(#paint63_radial_1918_1034)" stroke-width="1.92208" stroke-linecap="round"/>
<path d="M24.2969 42.5962C24.8422 43.6485 25.6547 45.7584 25.9928 46.6818L49.8037 51.2181C55.9533 49.5842 55.3312 44.4466 53.7743 44.7578C52.2175 45.069 50.6421 43.1925 49.7483 42.6314C48.8545 42.0703 47.6175 39.0934 46.6941 39.4315C45.7707 39.7696 44.1279 40.4888 43.6045 39.6861C43.0812 38.8835 41.5836 37.3963 40.6575 38.0001C39.7314 38.604 38.094 38.7917 37.2701 37.3931C36.4462 35.9945 33.9285 36.3164 33.5901 37.4168C33.2517 38.5173 31.5687 39.1747 30.7797 38.3694C29.9906 37.5641 28.3184 37.1585 27.8405 37.9101C27.3627 38.6616 26.2889 39.7137 25.3092 39.5606C24.3294 39.4074 23.6152 41.2809 24.2969 42.5962Z" fill="url(#paint64_radial_1918_1034)"/>
<path d="M31.1448 42.7084C30.7281 43.4728 29.8883 44.9647 29.5205 45.6152C29.7441 46.4079 30.2439 48.0471 30.4543 48.2618C30.6647 48.4766 36.1051 50.7659 38.799 51.8838L48.1832 49.8127C47.6766 43.3679 45.3628 43.7327 43.9991 45.1498C42.6353 46.5669 40.2306 43.8234 39.592 42.304C38.9533 40.7847 37.1764 40.6235 35.9416 41.4286C34.7068 42.2337 34.0276 42.6765 33.3996 42.1181C32.7715 41.5598 31.6656 41.7529 31.1448 42.7084Z" fill="url(#paint65_radial_1918_1034)"/>
<path d="M42.1021 46.8266C42.4671 47.1166 43.7662 48.0293 42.848 49.8598L41.927 51.9561L33.1901 50.7016C32.8986 49.8945 32.4373 47.9545 32.9249 46.6511C33.5344 45.0219 34.8255 44.708 35.8428 45.1886C36.86 45.6692 37.7698 46.6597 38.2235 46.2759C38.6772 45.8921 39.3509 45.9808 39.7347 46.4345C40.1185 46.8881 40.3815 47.1566 40.8754 46.8345C41.3694 46.5125 41.7371 46.5367 42.1021 46.8266Z" fill="url(#paint66_radial_1918_1034)"/>
<path d="M55.6581 50.4795C56.3079 48.9121 53.2292 48.1038 50.3998 50.9164L48.695 53.6997C50.3636 54.4595 54.0158 55.9497 55.2764 55.8317C56.852 55.6843 57.091 54.2966 56.3047 53.2255C55.5184 52.1544 55.0084 52.047 55.6581 50.4795Z" fill="url(#paint67_radial_1918_1034)"/>
<path d="M56.0997 61.2788C55.7585 59.46 53.5366 58.6972 52.4684 58.5432L42.8348 59.0171L42.3107 64.2861C42.8098 65.4565 44.0379 67.7178 44.957 67.4001C46.1058 67.003 46.377 66.4742 47.0856 67.1561C47.7941 67.838 49.2838 68.0985 50.3334 67.4142C51.383 66.7298 50.9002 63.965 51.7779 64.0967C52.6556 64.2283 53.5817 63.6245 54.0623 62.6072C54.5429 61.59 56.5263 63.5524 56.0997 61.2788Z" fill="url(#paint68_radial_1918_1034)"/>
<path d="M58.5256 60.1398C59.084 59.5118 58.5317 53.5367 49.4163 53.3209L45.4648 55.8973L45.8027 58.8445C46.2652 59.5988 47.4087 60.9298 48.2827 60.2191C49.3753 59.3308 50.0275 59.5215 50.7978 60.1631C51.5681 60.8047 52.6767 60.3458 52.9291 59.6533C53.1815 58.9608 54.6579 58.5262 55.8952 59.4792C57.1324 60.4322 57.9672 60.7678 58.5256 60.1398Z" fill="url(#paint69_radial_1918_1034)"/>
<path d="M50.1025 52.0798C51.4263 48.5771 47.953 48.3781 46.1195 49.7495C45.9137 49.8837 45.3636 50.1016 44.8096 49.8997C44.1171 49.6473 43.3683 48.9037 42.7642 50.0014C42.1601 51.0992 40.8315 51.0856 40.1069 49.9743C39.3823 48.8629 38.0993 48.3796 37.0899 49.1257C36.0806 49.8718 35.3827 50.1509 34.6554 49.3053C33.9281 48.4597 33.0479 46.5699 32.06 47.214C31.0722 47.8581 30.8388 46.6904 30.3424 45.2543C29.846 43.8182 29.1535 43.5658 26.7053 45.0741C24.7468 46.2806 24.2445 47.8224 24.2382 48.4424L28.1291 57.7838L45.4609 58.1858C46.5669 57.3181 49.0436 54.882 50.1025 52.0798Z" fill="url(#paint70_radial_1918_1034)"/>
<path d="M39.7935 70.6812C42.7057 71.774 44.5527 69.0739 43.7963 65.0798L22.2518 52.8185C21.4304 53.1781 19.8009 54.1877 19.8545 55.3494C19.9214 56.8016 20.7428 56.442 20.9305 58.0794C21.1182 59.7168 21.5689 61.6226 23.1579 62.1704C24.7469 62.7181 26.489 62.2862 27.9703 65.3678C29.4516 68.4494 32.0766 69.6415 34.1676 69.07C36.2587 68.4985 36.8813 69.5884 39.7935 70.6812Z" fill="url(#paint71_radial_1918_1034)"/>
<path d="M21.4152 42.2855C22.0187 42.0992 24.1417 41.5434 25.427 45.2618L22.8227 55.2445C21.9393 54.5778 19.9248 52.9917 18.9342 51.9806C17.696 50.7168 19.3231 49.2416 19.1874 48.3982C19.0517 47.5548 18.2461 46.3193 19.7247 45.2517C21.2033 44.1841 20.8118 42.4718 21.4152 42.2855Z" fill="url(#paint72_radial_1918_1034)"/>
<path d="M43.9391 64.8944C45.4933 64.849 47.0531 62.2482 44.3288 60.7689L32.1265 60.542C30.9878 65.9478 35.0014 68.3313 36.2728 66.9013C37.5442 65.4713 38.7612 65.4548 39.408 66.177C40.0549 66.8991 41.5312 66.4644 41.6011 65.627C41.671 64.7895 42.385 64.9399 43.9391 64.8944Z" fill="url(#paint73_radial_1918_1034)"/>
<path d="M23.0732 56.5073C25.9662 61.4842 42.2965 63.8589 49.0774 58.4699C49.1033 57.5379 48.1757 56.6821 47.7087 56.3707L46.0096 56.5986L41.6341 58.6596L38.3327 57.6446L33.5038 58.0654L26.5789 55.5414L21.7885 48.1943C21.2524 49.3064 20.7589 52.5259 23.0732 56.5073Z" fill="url(#paint74_radial_1918_1034)"/>
<path d="M44.5308 57.0318C46.8153 55.5424 48.8016 55.2151 49.0777 58.2027C47.6394 54.917 44.7724 57.4023 42.2007 58.991C39.6291 60.5797 38.0646 57.6403 36.521 58.6467C34.9775 59.6531 33.5496 59.3523 32.1512 58.1523C30.7529 56.9523 29.0565 56.9146 27.2152 57.0593C24.7588 57.2523 24.8228 54.1968 23.2511 52.8688C22.6633 52.3722 21.5226 51.9721 21.2087 50.6809C20.8948 49.3898 21.5312 47.1271 22.8895 46.2415C23.9762 45.533 25.3931 45.3131 25.9657 45.2917C25.3008 46.3411 24.9787 48.2581 25.4659 50.1929C26.0749 52.6114 26.8827 53.5805 27.5671 54.6301C28.2514 55.6797 30.9273 57.8945 33.2922 56.5285C35.6571 55.1626 37.4286 55.8553 39.1142 56.956C40.7997 58.0567 42.2464 58.5213 44.5308 57.0318Z" fill="url(#paint75_radial_1918_1034)"/>
<path d="M229.941 92.9247C229.022 93.3982 227.378 94.4895 226.671 94.976L207.431 86.1774C203.88 81.908 206.918 78.5655 207.869 79.5734C208.82 80.5813 210.889 80.0415 211.808 80.0936C212.728 80.1457 215.112 78.6517 215.598 79.3588C216.085 80.0659 216.891 81.4076 217.669 81.1006C218.447 80.7937 220.264 80.4916 220.618 81.3892C220.972 82.2868 222.043 83.2475 223.336 82.6682C224.629 82.0889 226.258 83.5898 225.943 84.544C225.628 85.4981 226.494 86.8162 227.462 86.6416C228.431 86.467 229.826 87.023 229.786 87.7993C229.747 88.5756 229.98 89.8668 230.754 90.2527C231.529 90.6386 231.091 92.3328 229.941 92.9247Z" fill="url(#paint76_radial_1918_1034)"/>
<path d="M225.014 89.5437C224.924 90.2983 224.769 91.7844 224.702 92.4331C224.142 92.8844 222.959 93.7987 222.7 93.8452C222.442 93.8918 217.413 92.7732 214.931 92.2081L209.298 85.9938C212.914 81.6625 214.377 83.0909 214.632 84.7884C214.886 86.4859 217.984 85.7479 219.206 84.9891C220.428 84.2303 221.774 85.0131 222.246 86.2098C222.719 87.4066 222.978 88.0649 223.707 87.9847C224.436 87.9044 225.126 88.6005 225.014 89.5437Z" fill="url(#paint77_radial_1918_1034)"/>
<path d="M215.136 86.9415C214.729 86.9635 213.344 86.957 213.073 88.7237L212.669 90.6809L219.521 94.2012C220.137 93.774 221.445 92.6262 221.756 91.4522C222.145 89.9847 221.385 89.1091 220.418 88.9373C219.451 88.7656 218.303 89.011 218.174 88.5087C218.045 88.0064 217.521 87.7292 217.019 87.8582C216.516 87.9873 216.194 88.0455 216.005 87.5668C215.816 87.088 215.542 86.9195 215.136 86.9415Z" fill="url(#paint78_radial_1918_1034)"/>
<path d="M206.784 86.6397C207.611 83.4779 210.183 85.0907 210.796 86.993C210.874 87.1924 211.156 87.6254 211.652 87.7615C212.273 87.9317 213.181 87.7806 213.057 88.8671C212.932 89.9536 213.885 90.6151 214.962 90.1901C216.039 89.7651 217.196 90.0691 217.538 91.11C217.879 92.1509 218.235 92.7021 219.18 92.4676C220.125 92.2331 221.706 91.3326 222.083 92.2901C222.461 93.2475 223.217 92.5343 224.296 91.7629C225.375 90.9915 225.995 91.1616 226.976 93.4717C227.76 95.3198 227.339 96.6709 227.03 97.1154L219.542 101.799L207.003 93.3303C206.654 92.154 206.122 89.1691 206.784 86.6397Z" fill="url(#paint79_radial_1918_1034)"/>
<path d="M196.719 88.1204C196.639 87.3913 200.05 83.4175 206.647 87.8683L208.158 91.698L206.429 93.6251C205.719 93.9284 204.232 94.2981 203.969 93.3508C203.64 92.1666 203.08 91.9728 202.207 92.0404C201.335 92.108 200.778 91.2214 200.948 90.601C201.118 89.9807 200.287 88.9255 198.925 88.9789C197.563 89.0322 196.799 88.8495 196.719 88.1204Z" fill="url(#paint80_radial_1918_1034)"/>
<path d="M197.868 90.1575C199.029 89.0353 200.996 89.6147 201.834 90.0447L208.452 95.2482L206.163 99.2632C205.217 99.8441 203.2 100.833 202.707 100.143C202.09 99.2799 202.164 98.7666 201.315 98.894C200.466 99.0215 199.274 98.4544 198.873 97.4372C198.472 96.4199 200.212 94.6959 199.521 94.3462C198.829 93.9966 198.475 93.099 198.647 92.1322C198.819 91.1654 196.416 91.5603 197.868 90.1575Z" fill="url(#paint81_radial_1918_1034)"/>
<path d="M204.728 105.085C202.103 104.392 202.153 101.537 204.709 99.0767L226.237 101.232C226.64 101.903 227.289 103.445 226.664 104.245C225.883 105.244 225.48 104.573 224.52 105.644C223.559 106.715 222.275 107.844 220.868 107.431C219.46 107.018 218.438 105.831 215.827 107.276C213.216 108.721 210.746 108.243 209.546 106.78C208.347 105.317 207.353 105.779 204.728 105.085Z" fill="url(#paint82_radial_1918_1034)"/>
<path d="M232.152 94.1584C231.816 93.721 230.586 92.2531 227.793 94.2505L224.604 102.671C225.57 102.643 227.805 102.532 229.02 102.312C230.54 102.038 230.127 100.166 230.65 99.6346C231.172 99.1028 232.37 98.6304 231.857 97.1236C231.343 95.6168 232.487 94.5958 232.152 94.1584Z" fill="url(#paint83_radial_1918_1034)"/>
<path d="M204.699 98.8736C203.616 98.0562 203.82 95.4171 206.506 95.7403L215.306 101.743C213.386 106.165 209.325 105.834 209.142 104.174C208.96 102.514 208.102 101.888 207.277 102.075C206.451 102.262 205.62 101.207 205.993 100.576C206.367 99.9446 205.783 99.691 204.699 98.8736Z" fill="url(#paint84_radial_1918_1034)"/>
<path d="M203.639 82.6942C203.969 81.2503 206.568 82.2301 207.161 85.6613L206.969 88.5034C205.398 88.2014 202.045 87.4172 201.208 86.6965C200.161 85.7957 200.691 84.6872 201.792 84.3221C202.893 83.9569 203.31 84.1381 203.639 82.6942Z" fill="url(#paint85_radial_1918_1034)"/>
<path d="M223.79 103.443C219.217 105.524 206.394 98.9651 204.29 91.7042C204.742 91.0278 205.834 90.8872 206.324 90.9014L207.418 91.9219L209.492 95.599L212.354 96.5442L215.579 99.2829L221.782 100.984L228.903 98.1747C228.723 99.237 227.448 101.778 223.79 103.443Z" fill="url(#paint86_radial_1918_1034)"/>
<path d="M208.248 92.9774C207.375 90.7633 206.126 89.527 204.42 91.514C207.104 89.902 207.889 93.119 208.917 95.5488C209.945 97.9786 212.543 96.6767 213.134 98.1727C213.724 99.6687 214.892 100.176 216.494 100.028C218.095 99.8803 219.321 100.71 220.559 101.743C222.21 103.122 223.708 100.914 225.497 100.763C226.166 100.707 227.18 100.998 228.056 100.238C228.932 99.4772 229.622 97.5452 229.102 96.2287C228.687 95.1756 227.789 94.3033 227.392 93.9988C227.336 95.0816 226.597 96.6088 225.272 97.7398C223.617 99.1536 222.553 99.4353 221.536 99.8367C220.518 100.238 217.495 100.463 216.502 98.296C215.508 96.1292 213.898 95.7274 212.142 95.6595C210.386 95.5915 209.122 95.1914 208.248 92.9774Z" fill="url(#paint87_radial_1918_1034)"/>
<defs>
<linearGradient id="paint0_linear_1918_1034" x1="182.054" y1="43.85" x2="204.849" y2="105.634" gradientUnits="userSpaceOnUse">
<stop stop-color="#B9A070"/>
<stop offset="1" stop-color="#EACD94"/>
</linearGradient>
<radialGradient id="paint1_radial_1918_1034" cx="0" cy="0" r="1" gradientUnits="userSpaceOnUse" gradientTransform="translate(185.708 60.4699) rotate(77.4229) scale(51.6935 30.7059)">
<stop offset="0.75206" stop-color="#A8681D" stop-opacity="0"/>
<stop offset="1" stop-color="#A8681D" stop-opacity="0.43"/>
</radialGradient>
<radialGradient id="paint2_radial_1918_1034" cx="0" cy="0" r="1" gradientUnits="userSpaceOnUse" gradientTransform="translate(183.763 60.9229) rotate(59.9951) scale(36.2028 32.621)">
<stop offset="0.417361" stop-color="#EFE0BA"/>
<stop offset="0.932832" stop-color="#FFF5DB" stop-opacity="0"/>
</radialGradient>
<radialGradient id="paint3_radial_1918_1034" cx="0" cy="0" r="1" gradientUnits="userSpaceOnUse" gradientTransform="translate(193.995 51.5193) rotate(90) scale(6.52136 43.5683)">
<stop stop-color="#FFF1D6"/>
<stop offset="1" stop-color="#F7CB77"/>
</radialGradient>
<radialGradient id="paint4_radial_1918_1034" cx="0" cy="0" r="1" gradientUnits="userSpaceOnUse" gradientTransform="translate(189.648 22.2488) rotate(72.5237) scale(33.7791 20.2729)">
<stop stop-color="#FFE603"/>
<stop offset="1" stop-color="#FF5C00"/>
</radialGradient>
<radialGradient id="paint5_radial_1918_1034" cx="0" cy="0" r="1" gradientUnits="userSpaceOnUse" gradientTransform="translate(191.746 30.1162) rotate(79.4689) scale(21.7527 13.0545)">
<stop offset="0.750416" stop-color="#D00000" stop-opacity="0"/>
<stop offset="1" stop-color="#D00000"/>
</radialGradient>
<linearGradient id="paint6_linear_1918_1034" x1="89.6237" y1="-16.8359" x2="131.561" y2="126.674" gradientUnits="userSpaceOnUse">
<stop offset="0.471875" stop-color="#C4AA77"/>
<stop offset="1" stop-color="#F0D195"/>
</linearGradient>
<radialGradient id="paint7_radial_1918_1034" cx="0" cy="0" r="1" gradientUnits="userSpaceOnUse" gradientTransform="translate(109.56 37.8699) rotate(56.0076) scale(63.623 63.0171)">
<stop offset="0.417361" stop-color="#F5E7C3"/>
<stop offset="0.932832" stop-color="#FDEDC4" stop-opacity="0"/>
</radialGradient>
<radialGradient id="paint8_radial_1918_1034" cx="0" cy="0" r="1" gradientUnits="userSpaceOnUse" gradientTransform="translate(109.488 28.2136) rotate(-21.0139) scale(11.0347 3.8147)">
<stop stop-color="#B7B970"/>
<stop offset="1" stop-color="#779954"/>
</radialGradient>
<radialGradient id="paint9_radial_1918_1034" cx="0" cy="0" r="1" gradientUnits="userSpaceOnUse" gradientTransform="translate(107.605 28.8107) rotate(-32.7382) scale(12.5846 5.47434)">
<stop offset="0.515061" stop-color="#3B411A" stop-opacity="0"/>
<stop offset="1" stop-color="#3B411A"/>
</radialGradient>
<radialGradient id="paint10_radial_1918_1034" cx="0" cy="0" r="1" gradientUnits="userSpaceOnUse" gradientTransform="translate(129.126 28.2136) rotate(-158.986) scale(11.0347 3.8147)">
<stop stop-color="#B7B970"/>
<stop offset="1" stop-color="#779954"/>
</radialGradient>
<radialGradient id="paint11_radial_1918_1034" cx="0" cy="0" r="1" gradientUnits="userSpaceOnUse" gradientTransform="translate(131.009 28.8107) rotate(-147.262) scale(12.5846 5.47434)">
<stop offset="0.515061" stop-color="#3B411A" stop-opacity="0"/>
<stop offset="1" stop-color="#3B411A"/>
</radialGradient>
<radialGradient id="paint12_radial_1918_1034" cx="0" cy="0" r="1" gradientUnits="userSpaceOnUse" gradientTransform="translate(108.81 97.8644) rotate(138.297) scale(13.0332 20.4071)">
<stop stop-color="#B7B970"/>
<stop offset="1" stop-color="#779954"/>
</radialGradient>
<radialGradient id="paint13_radial_1918_1034" cx="0" cy="0" r="1" gradientUnits="userSpaceOnUse" gradientTransform="translate(113.407 92.3999) rotate(62.529) scale(15.8165 50.6299)">
<stop stop-color="#3B411A"/>
<stop offset="1" stop-color="#3B411A" stop-opacity="0"/>
</radialGradient>
<radialGradient id="paint14_radial_1918_1034" cx="0" cy="0" r="1" gradientUnits="userSpaceOnUse" gradientTransform="translate(114.654 74.3057) rotate(108.608) scale(12.5486 11.9628)">
<stop stop-color="#B7B970"/>
<stop offset="1" stop-color="#779954"/>
</radialGradient>
<radialGradient id="paint15_radial_1918_1034" cx="0" cy="0" r="1" gradientUnits="userSpaceOnUse" gradientTransform="translate(116.546 66.8106) rotate(81.1342) scale(19.4806 23.2013)">
<stop stop-color="#3B411A"/>
<stop offset="1" stop-color="#3B411A" stop-opacity="0"/>
</radialGradient>
<linearGradient id="paint16_linear_1918_1034" x1="110.029" y1="36.5853" x2="118.292" y2="23.8433" gradientUnits="userSpaceOnUse">
<stop stop-color="#FF6C63"/>
<stop offset="0.436" stop-color="#FF3326"/>
<stop offset="1" stop-color="#731D1D"/>
</linearGradient>
<radialGradient id="paint17_radial_1918_1034" cx="0" cy="0" r="1" gradientUnits="userSpaceOnUse" gradientTransform="translate(111.709 31.8285) rotate(-50.5099) scale(10.3506 5.11023)">
<stop stop-color="#FF785E"/>
<stop offset="1" stop-color="#FF785E" stop-opacity="0"/>
</radialGradient>
<linearGradient id="paint18_linear_1918_1034" x1="103.539" y1="18.557" x2="118.211" y2="22.478" gradientUnits="userSpaceOnUse">
<stop stop-color="#FF6C63"/>
<stop offset="0.436" stop-color="#FF3326"/>
<stop offset="1" stop-color="#731D1D"/>
</linearGradient>
<radialGradient id="paint19_radial_1918_1034" cx="0" cy="0" r="1" gradientUnits="userSpaceOnUse" gradientTransform="translate(108.582 18.6847) rotate(21.4901) scale(10.3506 5.11023)">
<stop stop-color="#FF785E"/>
<stop offset="1" stop-color="#FF785E" stop-opacity="0"/>
</radialGradient>
<linearGradient id="paint20_linear_1918_1034" x1="84.4562" y1="81.325" x2="99.128" y2="85.246" gradientUnits="userSpaceOnUse">
<stop stop-color="#FF6C63"/>
<stop offset="0.436" stop-color="#FF3326"/>
<stop offset="1" stop-color="#731D1D"/>
</linearGradient>
<radialGradient id="paint21_radial_1918_1034" cx="0" cy="0" r="1" gradientUnits="userSpaceOnUse" gradientTransform="translate(89.4994 81.4527) rotate(21.4901) scale(10.3506 5.11023)">
<stop stop-color="#FF785E"/>
<stop offset="1" stop-color="#FF785E" stop-opacity="0"/>
</radialGradient>
<linearGradient id="paint22_linear_1918_1034" x1="118.474" y1="6.33593" x2="119.279" y2="21.5013" gradientUnits="userSpaceOnUse">
<stop stop-color="#FF6C63"/>
<stop offset="0.436" stop-color="#FF3326"/>
<stop offset="1" stop-color="#731D1D"/>
</linearGradient>
<radialGradient id="paint23_radial_1918_1034" cx="0" cy="0" r="1" gradientUnits="userSpaceOnUse" gradientTransform="translate(119.911 11.1717) rotate(93.4901) scale(10.3506 5.11023)">
<stop stop-color="#FF785E"/>
<stop offset="1" stop-color="#FF785E" stop-opacity="0"/>
</radialGradient>
<linearGradient id="paint24_linear_1918_1034" x1="129.213" y1="35.2978" x2="119.648" y2="23.5018" gradientUnits="userSpaceOnUse">
<stop stop-color="#FF6C63"/>
<stop offset="0.436" stop-color="#FF3326"/>
<stop offset="1" stop-color="#731D1D"/>
</linearGradient>
<radialGradient id="paint25_radial_1918_1034" cx="0" cy="0" r="1" gradientUnits="userSpaceOnUse" gradientTransform="translate(125.208 32.2302) rotate(-122.51) scale(10.3506 5.11023)">
<stop stop-color="#FF785E"/>
<stop offset="1" stop-color="#FF785E" stop-opacity="0"/>
</radialGradient>
<linearGradient id="paint26_linear_1918_1034" x1="134.828" y1="16.8686" x2="120.654" y2="22.3203" gradientUnits="userSpaceOnUse">
<stop stop-color="#FF6C63"/>
<stop offset="0.436" stop-color="#FF3326"/>
<stop offset="1" stop-color="#731D1D"/>
</linearGradient>
<radialGradient id="paint27_radial_1918_1034" cx="0" cy="0" r="1" gradientUnits="userSpaceOnUse" gradientTransform="translate(130.673 19.7295) rotate(165.49) scale(10.3506 5.11023)">
<stop stop-color="#FF785E"/>
<stop offset="1" stop-color="#FF785E" stop-opacity="0"/>
</radialGradient>
<linearGradient id="paint28_linear_1918_1034" x1="152.242" y1="78.1633" x2="138.068" y2="83.615" gradientUnits="userSpaceOnUse">
<stop stop-color="#FF6C63"/>
<stop offset="0.436" stop-color="#FF3326"/>
<stop offset="1" stop-color="#731D1D"/>
</linearGradient>
<radialGradient id="paint29_radial_1918_1034" cx="0" cy="0" r="1" gradientUnits="userSpaceOnUse" gradientTransform="translate(148.087 81.0243) rotate(165.49) scale(10.3506 5.11023)">
<stop stop-color="#FF785E"/>
<stop offset="1" stop-color="#FF785E" stop-opacity="0"/>
</radialGradient>
<radialGradient id="paint30_radial_1918_1034" cx="0" cy="0" r="1" gradientUnits="userSpaceOnUse" gradientTransform="translate(3.89049 3.83861) rotate(83.7742) scale(4.30493)">
<stop offset="0.0625" stop-color="#FFDA15"/>
<stop offset="1" stop-color="#E3A400"/>
</radialGradient>
<radialGradient id="paint31_radial_1918_1034" cx="0" cy="0" r="1" gradientUnits="userSpaceOnUse" gradientTransform="translate(3.9683 3.65706) rotate(82.3868) scale(5.28578)">
<stop offset="0.708506" stop-color="#B28000" stop-opacity="0"/>
<stop offset="0.913446" stop-color="#B28000"/>
</radialGradient>
<radialGradient id="paint32_radial_1918_1034" cx="0" cy="0" r="1" gradientUnits="userSpaceOnUse" gradientTransform="translate(4.69452 5.05763) rotate(68.6294) scale(4.4841)">
<stop offset="0.817708" stop-color="#FDD61C" stop-opacity="0"/>
<stop offset="1" stop-color="#FFD922"/>
</radialGradient>
<radialGradient id="paint33_radial_1918_1034" cx="0" cy="0" r="1" gradientUnits="userSpaceOnUse" gradientTransform="translate(100.279 56.5874) rotate(90) scale(24.0302)">
<stop offset="0.520911" stop-color="#938B7B"/>
<stop offset="1" stop-color="#C1B092" stop-opacity="0"/>
</radialGradient>
<radialGradient id="paint34_radial_1918_1034" cx="0" cy="0" r="1" gradientUnits="userSpaceOnUse" gradientTransform="translate(94.4392 44.9463) rotate(83.546) scale(12.0353 10.5997)">
<stop offset="0.34375" stop-color="#0B44A2"/>
<stop offset="1" stop-color="#4DB8F3"/>
</radialGradient>
<radialGradient id="paint35_radial_1918_1034" cx="0" cy="0" r="1" gradientUnits="userSpaceOnUse" gradientTransform="translate(86.7491 50.5144) rotate(20.8173) scale(12.0353 10.5997)">
<stop offset="0.34375" stop-color="#0B44A2"/>
<stop offset="1" stop-color="#4DB8F3"/>
</radialGradient>
<radialGradient id="paint36_radial_1918_1034" cx="0" cy="0" r="1" gradientUnits="userSpaceOnUse" gradientTransform="translate(90.8698 59.6108) rotate(-48.8466) scale(12.0353 10.5997)">
<stop offset="0.34375" stop-color="#0B44A2"/>
<stop offset="1" stop-color="#4DB8F3"/>
</radialGradient>
<radialGradient id="paint37_radial_1918_1034" cx="0" cy="0" r="1" gradientUnits="userSpaceOnUse" gradientTransform="translate(100.318 57.8675) rotate(-122.791) scale(12.0353 10.5997)">
<stop offset="0.34375" stop-color="#0B44A2"/>
<stop offset="1" stop-color="#4DB8F3"/>
</radialGradient>
<radialGradient id="paint38_radial_1918_1034" cx="0" cy="0" r="1" gradientUnits="userSpaceOnUse" gradientTransform="translate(101.739 48.6456) rotate(162.488) scale(12.0353 10.5997)">
<stop offset="0.34375" stop-color="#0B44A2"/>
<stop offset="1" stop-color="#4DB8F3"/>
</radialGradient>
<radialGradient id="paint39_radial_1918_1034" cx="0" cy="0" r="1" gradientUnits="userSpaceOnUse" gradientTransform="translate(93.6948 51.9279) rotate(83.7742) scale(8.10438)">
<stop offset="0.0625" stop-color="#FFDA15"/>
<stop offset="1" stop-color="#E3A400"/>
</radialGradient>
<radialGradient id="paint40_radial_1918_1034" cx="0" cy="0" r="1" gradientUnits="userSpaceOnUse" gradientTransform="translate(93.8412 51.5861) rotate(82.3868) scale(9.95093)">
<stop offset="0.708506" stop-color="#B28000" stop-opacity="0"/>
<stop offset="0.913446" stop-color="#B28000"/>
</radialGradient>
<radialGradient id="paint41_radial_1918_1034" cx="0" cy="0" r="1" gradientUnits="userSpaceOnUse" gradientTransform="translate(95.2084 54.2228) rotate(68.6294) scale(8.4417)">
<stop offset="0.817708" stop-color="#FDD61C" stop-opacity="0"/>
<stop offset="1" stop-color="#FFD922"/>
</radialGradient>
<radialGradient id="paint42_radial_1918_1034" cx="0" cy="0" r="1" gradientUnits="userSpaceOnUse" gradientTransform="translate(145.466 55.2037) rotate(90) scale(24.0302)">
<stop offset="0.520911" stop-color="#938B7B"/>
<stop offset="1" stop-color="#C1B092" stop-opacity="0"/>
</radialGradient>
<radialGradient id="paint43_radial_1918_1034" cx="0" cy="0" r="1" gradientUnits="userSpaceOnUse" gradientTransform="translate(143.692 45.1108) rotate(83.546) scale(11.8179 10.4082)">
<stop offset="0.34375" stop-color="#0B44A2"/>
<stop offset="1" stop-color="#4DB8F3"/>
</radialGradient>
<radialGradient id="paint44_radial_1918_1034" cx="0" cy="0" r="1" gradientUnits="userSpaceOnUse" gradientTransform="translate(136.141 50.5789) rotate(20.8173) scale(11.8179 10.4082)">
<stop offset="0.34375" stop-color="#0B44A2"/>
<stop offset="1" stop-color="#4DB8F3"/>
</radialGradient>
<radialGradient id="paint45_radial_1918_1034" cx="0" cy="0" r="1" gradientUnits="userSpaceOnUse" gradientTransform="translate(140.189 59.5103) rotate(-48.8466) scale(11.8179 10.4082)">
<stop offset="0.34375" stop-color="#0B44A2"/>
<stop offset="1" stop-color="#4DB8F3"/>
</radialGradient>
<radialGradient id="paint46_radial_1918_1034" cx="0" cy="0" r="1" gradientUnits="userSpaceOnUse" gradientTransform="translate(149.467 57.7992) rotate(-122.791) scale(11.8179 10.4082)">
<stop offset="0.34375" stop-color="#0B44A2"/>
<stop offset="1" stop-color="#4DB8F3"/>
</radialGradient>
<radialGradient id="paint47_radial_1918_1034" cx="0" cy="0" r="1" gradientUnits="userSpaceOnUse" gradientTransform="translate(150.862 48.7433) rotate(162.488) scale(11.8179 10.4082)">
<stop offset="0.34375" stop-color="#0B44A2"/>
<stop offset="1" stop-color="#4DB8F3"/>
</radialGradient>
<radialGradient id="paint48_radial_1918_1034" cx="0" cy="0" r="1" gradientUnits="userSpaceOnUse" gradientTransform="translate(142.963 51.9666) rotate(83.7742) scale(7.95798)">
<stop offset="0.0625" stop-color="#FFDA15"/>
<stop offset="1" stop-color="#E3A400"/>
</radialGradient>
<radialGradient id="paint49_radial_1918_1034" cx="0" cy="0" r="1" gradientUnits="userSpaceOnUse" gradientTransform="translate(143.107 51.6309) rotate(82.3868) scale(9.77117)">
<stop offset="0.708506" stop-color="#B28000" stop-opacity="0"/>
<stop offset="0.913446" stop-color="#B28000"/>
</radialGradient>
<radialGradient id="paint50_radial_1918_1034" cx="0" cy="0" r="1" gradientUnits="userSpaceOnUse" gradientTransform="translate(144.449 54.22) rotate(68.6294) scale(8.2892)">
<stop offset="0.817708" stop-color="#FDD61C" stop-opacity="0"/>
<stop offset="1" stop-color="#FFD922"/>
</radialGradient>
<radialGradient id="paint51_radial_1918_1034" cx="0" cy="0" r="1" gradientUnits="userSpaceOnUse" gradientTransform="translate(50.1222 81.1978) rotate(137.835) scale(15.5972 5.82261)">
<stop stop-color="#B7B970"/>
<stop offset="1" stop-color="#779954"/>
</radialGradient>
<radialGradient id="paint52_radial_1918_1034" cx="0" cy="0" r="1" gradientUnits="userSpaceOnUse" gradientTransform="translate(52.299 79.4689) rotate(125.397) scale(18.1226 8.20155)">
<stop offset="0.515061" stop-color="#3B411A" stop-opacity="0"/>
<stop offset="1" stop-color="#3B411A"/>
</radialGradient>
<radialGradient id="paint53_radial_1918_1034" cx="0" cy="0" r="1" gradientUnits="userSpaceOnUse" gradientTransform="translate(31.6089 82.9172) rotate(29.5522) scale(15.606 5.82591)">
<stop stop-color="#B7B970"/>
<stop offset="1" stop-color="#779954"/>
</radialGradient>
<radialGradient id="paint54_radial_1918_1034" cx="0" cy="0" r="1" gradientUnits="userSpaceOnUse" gradientTransform="translate(29.1057 81.7046) rotate(41.99) scale(18.1328 8.2062)">
<stop offset="0.515061" stop-color="#3B411A" stop-opacity="0"/>
<stop offset="1" stop-color="#3B411A"/>
</radialGradient>
<radialGradient id="paint55_radial_1918_1034" cx="0" cy="0" r="1" gradientUnits="userSpaceOnUse" gradientTransform="translate(47.2268 70.4233) rotate(137.835) scale(16.1408 6.02555)">
<stop stop-color="#B7B970"/>
<stop offset="1" stop-color="#779954"/>
</radialGradient>
<radialGradient id="paint56_radial_1918_1034" cx="0" cy="0" r="1" gradientUnits="userSpaceOnUse" gradientTransform="translate(49.4795 68.6342) rotate(125.397) scale(18.7542 8.4874)">
<stop offset="0.515061" stop-color="#3B411A" stop-opacity="0"/>
<stop offset="1" stop-color="#3B411A"/>
</radialGradient>
<radialGradient id="paint57_radial_1918_1034" cx="0" cy="0" r="1" gradientUnits="userSpaceOnUse" gradientTransform="translate(28.7389 69.3834) rotate(29.5522) scale(16.1408 6.02555)">
<stop stop-color="#B7B970"/>
<stop offset="1" stop-color="#779954"/>
</radialGradient>
<radialGradient id="paint58_radial_1918_1034" cx="0" cy="0" r="1" gradientUnits="userSpaceOnUse" gradientTransform="translate(26.15 68.1293) rotate(41.99) scale(18.7542 8.4874)">
<stop offset="0.515061" stop-color="#3B411A" stop-opacity="0"/>
<stop offset="1" stop-color="#3B411A"/>
</radialGradient>
<radialGradient id="paint59_radial_1918_1034" cx="0" cy="0" r="1" gradientUnits="userSpaceOnUse" gradientTransform="translate(45.5875 60.351) rotate(143.047) scale(12.2836 4.5856)">
<stop stop-color="#B7B970"/>
<stop offset="1" stop-color="#779954"/>
</radialGradient>
<radialGradient id="paint60_radial_1918_1034" cx="0" cy="0" r="1" gradientUnits="userSpaceOnUse" gradientTransform="translate(47.4185 59.1507) rotate(130.61) scale(14.2724 6.45913)">
<stop offset="0.515061" stop-color="#3B411A" stop-opacity="0"/>
<stop offset="1" stop-color="#3B411A"/>
</radialGradient>
<radialGradient id="paint61_radial_1918_1034" cx="0" cy="0" r="1" gradientUnits="userSpaceOnUse" gradientTransform="translate(29.7429 59.5652) rotate(24.34) scale(12.2836 4.5856)">
<stop stop-color="#B7B970"/>
<stop offset="1" stop-color="#779954"/>
</radialGradient>
<radialGradient id="paint62_radial_1918_1034" cx="0" cy="0" r="1" gradientUnits="userSpaceOnUse" gradientTransform="translate(27.6941 58.7937) rotate(36.7778) scale(14.2724 6.45913)">
<stop offset="0.515061" stop-color="#3B411A" stop-opacity="0"/>
<stop offset="1" stop-color="#3B411A"/>
</radialGradient>
<radialGradient id="paint63_radial_1918_1034" cx="0" cy="0" r="1" gradientUnits="userSpaceOnUse" gradientTransform="translate(44.6726 69.3681) rotate(74.8244) scale(15.3824 7.20698)">
<stop offset="0.678841" stop-color="white"/>
<stop offset="1" stop-color="white" stop-opacity="0"/>
</radialGradient>
<radialGradient id="paint64_radial_1918_1034" cx="0" cy="0" r="1" gradientUnits="userSpaceOnUse" gradientTransform="translate(37.6809 48.5493) rotate(3.12465) scale(18.4569 12.4471)">
<stop offset="0.163588" stop-color="#D64315"/>
<stop offset="1" stop-color="#FFC49A"/>
</radialGradient>
<radialGradient id="paint65_radial_1918_1034" cx="0" cy="0" r="1" gradientUnits="userSpaceOnUse" gradientTransform="translate(37.26 49.7932) rotate(18.1754) scale(10.9583 7.33301)">
<stop stop-color="#EF693F"/>
<stop offset="1" stop-color="#FFC49A"/>
</radialGradient>
<radialGradient id="paint66_radial_1918_1034" cx="0" cy="0" r="1" gradientUnits="userSpaceOnUse" gradientTransform="translate(37.5587 50.6543) rotate(13.2817) scale(8.85676 5.2888)">
<stop stop-color="#EF693F"/>
<stop offset="1" stop-color="#FFC49A"/>
</radialGradient>
<radialGradient id="paint67_radial_1918_1034" cx="0" cy="0" r="1" gradientUnits="userSpaceOnUse" gradientTransform="translate(47.6845 53.9042) rotate(-16.2125) scale(9.38532 5.60389)">
<stop stop-color="#D64315"/>
<stop offset="0.932427" stop-color="#FFC49A"/>
</radialGradient>
<radialGradient id="paint68_radial_1918_1034" cx="0" cy="0" r="1" gradientUnits="userSpaceOnUse" gradientTransform="translate(41.6393 57.3185) rotate(17.9778) scale(12.7887 13.8127)">
<stop offset="0.23198" stop-color="#D64315"/>
<stop offset="1" stop-color="#FFC49A"/>
</radialGradient>
<radialGradient id="paint69_radial_1918_1034" cx="0" cy="0" r="1" gradientUnits="userSpaceOnUse" gradientTransform="translate(46.6661 55.7155) rotate(4.35597) scale(7.14979 5.29324)">
<stop stop-color="#EF693F"/>
<stop offset="1" stop-color="#FFC49A"/>
</radialGradient>
<radialGradient id="paint70_radial_1918_1034" cx="0" cy="0" r="1" gradientUnits="userSpaceOnUse" gradientTransform="translate(36.7801 48.7854) rotate(8.61871) scale(27.3543 13.8167)">
<stop stop-color="#FFC49A"/>
<stop offset="1" stop-color="#EF693F"/>
</radialGradient>
<radialGradient id="paint71_radial_1918_1034" cx="0" cy="0" r="1" gradientUnits="userSpaceOnUse" gradientTransform="translate(33.2606 57.1748) rotate(33.5001) scale(15.2514 12.7722)">
<stop offset="0.039766" stop-color="#D64315"/>
<stop offset="1" stop-color="#FFC49A"/>
</radialGradient>
<radialGradient id="paint72_radial_1918_1034" cx="0" cy="0" r="1" gradientUnits="userSpaceOnUse" gradientTransform="translate(24.327 47.3178) rotate(-59.761) scale(7.97003 4.64902)">
<stop stop-color="#D64315"/>
<stop offset="1" stop-color="#FFC49A"/>
</radialGradient>
<radialGradient id="paint73_radial_1918_1034" cx="0" cy="0" r="1" gradientUnits="userSpaceOnUse" gradientTransform="translate(40.2312 60.17) rotate(15.3002) scale(7.1491 5.93265)">
<stop stop-color="#EF693F"/>
<stop offset="1" stop-color="#FFC49A"/>
</radialGradient>
<radialGradient id="paint74_radial_1918_1034" cx="0" cy="0" r="1" gradientUnits="userSpaceOnUse" gradientTransform="translate(36.4886 47.394) rotate(37.2628) scale(24.35 15.4614)">
<stop stop-color="#EF693F"/>
<stop offset="1" stop-color="#FFC49A"/>
</radialGradient>
<radialGradient id="paint75_radial_1918_1034" cx="0" cy="0" r="1" gradientUnits="userSpaceOnUse" gradientTransform="translate(36.3729 52.4817) rotate(22.3869) scale(24.3286 15.0273)">
<stop stop-color="#D64315"/>
<stop offset="1" stop-color="#FFB37C"/>
</radialGradient>
<radialGradient id="paint76_radial_1918_1034" cx="0" cy="0" r="1" gradientUnits="userSpaceOnUse" gradientTransform="translate(217.408 90.4012) rotate(-147.762) scale(16.109 12.9139)">
<stop stop-color="#FC6E00"/>
<stop offset="1" stop-color="#FCD100"/>
</radialGradient>
<radialGradient id="paint77_radial_1918_1034" cx="0" cy="0" r="1" gradientUnits="userSpaceOnUse" gradientTransform="translate(217.083 91.4975) rotate(-162.813) scale(9.56427 6.40015)">
<stop stop-color="#FC6E00"/>
<stop offset="1" stop-color="#FCD100"/>
</radialGradient>
<radialGradient id="paint78_radial_1918_1034" cx="0" cy="0" r="1" gradientUnits="userSpaceOnUse" gradientTransform="translate(216.436 91.9609) rotate(-157.919) scale(7.73006 4.616)">
<stop stop-color="#FC6E00"/>
<stop offset="1" stop-color="#FCD100"/>
</radialGradient>
<radialGradient id="paint79_radial_1918_1034" cx="0" cy="0" r="1" gradientUnits="userSpaceOnUse" gradientTransform="translate(217.93 91.0243) rotate(-153.256) scale(23.8745 12.0591)">
<stop stop-color="#FCD100"/>
<stop offset="1" stop-color="#FC6E00"/>
</radialGradient>
<radialGradient id="paint80_radial_1918_1034" cx="0" cy="0" r="1" gradientUnits="userSpaceOnUse" gradientTransform="translate(207.395 90.9618) rotate(-148.993) scale(6.24024 4.61987)">
<stop stop-color="#FC6E00"/>
<stop offset="1" stop-color="#FCD100"/>
</radialGradient>
<radialGradient id="paint81_radial_1918_1034" cx="0" cy="0" r="1" gradientUnits="userSpaceOnUse" gradientTransform="translate(210.161 94.6431) rotate(-162.615) scale(11.1618 12.0556)">
<stop offset="0.23198" stop-color="#FC6E00"/>
<stop offset="1" stop-color="#FCD100"/>
</radialGradient>
<radialGradient id="paint82_radial_1918_1034" cx="0" cy="0" r="1" gradientUnits="userSpaceOnUse" gradientTransform="translate(216.433 99.8445) rotate(-173.656) scale(13.6206 12.2436)">
<stop stop-color="#FC6E00"/>
<stop offset="1" stop-color="#FCD100"/>
</radialGradient>
<radialGradient id="paint83_radial_1918_1034" cx="0" cy="0" r="1" gradientUnits="userSpaceOnUse" gradientTransform="translate(228.599 96.1424) rotate(-171.381) scale(6.07719 4.41194)">
<stop stop-color="#FC6E00"/>
<stop offset="1" stop-color="#FCD100"/>
</radialGradient>
<radialGradient id="paint84_radial_1918_1034" cx="0" cy="0" r="1" gradientUnits="userSpaceOnUse" gradientTransform="translate(209.725 97.3838) rotate(-159.938) scale(6.23964 5.17794)">
<stop stop-color="#FC6E00"/>
<stop offset="1" stop-color="#FCD100"/>
</radialGradient>
<radialGradient id="paint85_radial_1918_1034" cx="0" cy="0" r="1" gradientUnits="userSpaceOnUse" gradientTransform="translate(207.585 89.1594) rotate(-128.425) scale(8.19138 4.891)">
<stop stop-color="#FC6E00"/>
<stop offset="0.932427" stop-color="#FCD100"/>
</radialGradient>
<radialGradient id="paint86_radial_1918_1034" cx="0" cy="0" r="1" gradientUnits="userSpaceOnUse" gradientTransform="translate(218.844 90.1797) rotate(178.1) scale(21.2523 13.4945)">
<stop stop-color="#FC6E00"/>
<stop offset="1" stop-color="#FCD100"/>
</radialGradient>
<radialGradient id="paint87_radial_1918_1034" cx="0" cy="0" r="1" gradientUnits="userSpaceOnUse" gradientTransform="translate(216.353 93.8595) rotate(-167.024) scale(21.2337 13.1156)">
<stop stop-color="#FC6E00"/>
<stop offset="1" stop-color="#FCD100"/>
</radialGradient>
</defs>
</svg>
