<svg viewBox="0 0 240 120" fill="none" xmlns="http://www.w3.org/2000/svg">
<path d="M124.355 2.91602C144.496 2.91651 162.506 9.94289 174.502 20.9854C177.83 20.1829 181.303 19.7506 184.877 19.7505C209.24 19.7505 228.993 39.5 228.994 63.8625C228.994 88.2257 209.241 107.979 184.877 107.979C173.934 107.979 163.931 103.981 156.221 97.3827C146.791 101.45 135.927 103.783 124.355 103.783C111.22 103.783 98.9942 100.783 88.7476 95.6429C80.8172 103.275 70.0464 107.979 58.1707 107.979C33.8076 107.979 14.0586 88.2256 14.0586 63.8625C14.0593 39.5 33.808 19.7506 58.1707 19.7505C63.3249 19.7505 68.2707 20.6409 72.8687 22.2655C84.8403 10.491 103.448 2.91602 124.355 2.91602Z" fill="url(#paint0_linear_10401_2152)"/>
<path d="M41.9489 29.9464C42.6879 30.8839 44.5815 37.995 47.5417 40.1884L48.0994 39.0948C46.4191 37.934 43.716 31.1613 43.0019 29.6989C42.2877 28.2365 41.8391 22.8609 39.722 17.9507C37.6048 13.0404 32.3082 7.84034 31.6061 8.00534C30.9041 8.17035 32.8599 14.6002 34.9482 19.0727C37.0366 23.5453 41.0415 26.0857 41.3715 27.4898L41.718 28.964C40.2841 27.276 36.7466 23.5092 34.0679 21.946C30.7195 19.9921 23.3657 18.0165 23.0435 18.5367C22.7213 19.0569 26.2056 22.5346 31.3376 25.7732C36.4696 29.0118 41.21 29.0088 41.9489 29.9464Z" fill="url(#paint1_radial_10401_2152)"/>
<path d="M191.605 53.7224C192.346 54.4331 194.802 60.2646 197.584 61.7812L197.929 60.7836C196.36 59.9945 193.254 54.5473 192.472 53.3866C191.691 52.2259 190.67 47.701 188.284 43.7704C185.898 39.8398 180.77 36.0399 180.192 36.2637C179.614 36.4876 182.042 41.7315 184.352 45.2927C186.661 48.8539 190.374 50.5421 190.822 51.6987L191.292 52.9131C189.87 51.6457 186.41 48.8576 183.943 47.8443C180.86 46.5776 174.362 45.768 174.15 46.2493C173.937 46.7306 177.317 49.2788 182.072 51.4278C186.827 53.5769 190.864 53.0116 191.605 53.7224Z" fill="url(#paint2_radial_10401_2152)"/>
<path d="M207.379 78.8982C206.552 79.691 203.812 86.1963 200.709 87.8881L200.324 86.7752C202.074 85.895 205.539 79.8185 206.411 78.5236C207.283 77.2288 208.421 72.1812 211.083 67.7965C213.744 63.4119 219.465 59.1729 220.11 59.4226C220.755 59.6723 218.046 65.522 215.47 69.4946C212.893 73.4673 208.752 75.3505 208.252 76.6407L207.728 77.9955C209.314 76.5816 213.173 73.4714 215.925 72.341C219.365 70.928 226.613 70.0249 226.851 70.5618C227.088 71.0987 223.317 73.9413 218.013 76.3386C212.708 78.7359 208.205 78.1053 207.379 78.8982Z" fill="url(#paint3_radial_10401_2152)"/>
<path d="M121.095 94.8813C167.324 95.1019 201.003 99.6881 196.554 102.692C192.084 105.711 208.523 103.935 206.506 108.552C204.34 113.509 140.19 116.281 121.095 116.358V116.367C120.981 116.367 120.865 116.363 120.748 116.363C120.63 116.363 120.514 116.367 120.4 116.367V116.358C101.303 116.28 36.9831 113.112 34.9888 108.552C32.9725 103.935 49.4115 105.711 44.9407 102.692C40.4946 99.6881 74.1726 95.1019 120.4 94.8813H121.095Z" fill="url(#paint4_linear_10401_2152)"/>
<path d="M81.344 49.0345C85.0665 50.6062 83.5775 50.358 84.6529 53.8323H86.1419C85.3147 52.4811 83.9581 49.6298 85.1492 49.0345C93.0077 43.3264 95.9856 29.3463 95.2412 29.1809C94.4967 29.0154 84.4875 39.0251 84.6529 47.9588C84.1059 47.0205 83.3893 44.3339 83.908 43.0786C87.7545 31.7866 82.6676 19.6682 82.0059 19.7509C81.3441 19.8336 77.3735 32.6138 82.6676 43.0786L83.6603 49.0345C83.6603 49.0345 82.5352 45.0472 78.697 40.6795C73.8992 35.2199 70.7141 32.9033 72.3685 37.7839C74.0229 42.6645 77.6216 47.4627 81.344 49.0345Z" fill="url(#paint5_radial_10401_2152)"/>
<path d="M61.2592 84.6624C60.0073 84.7012 54.4895 96.3497 52.5238 98.8375L51.0438 98.266C52.1409 97.4269 60.3218 83.9669 59.54 83.1086C54.9415 75.9986 56.9099 63.6941 57.5673 63.7934C58.2247 63.8926 63.2215 75.1763 60.2815 82.3897C61.021 81.7985 62.4475 79.8386 62.4199 78.6548C62.8377 68.2636 70.7803 60.0058 71.2925 60.2809C71.8047 60.5559 71.0204 72.1964 63.4286 79.0443L60.751 83.5762C60.751 83.5762 62.9181 80.6869 67.4112 78.3402C73.0276 75.4068 76.3454 74.5232 73.4673 77.9728C70.5891 81.4224 64.7801 84.5532 61.2592 84.6624Z" fill="url(#paint6_radial_10401_2152)"/>
<path d="M186.969 34.7698C188.221 34.8086 193.739 46.4571 195.705 48.9449L197.185 48.3734C196.088 47.5343 187.907 34.0743 188.688 33.216C193.287 26.1061 191.319 13.8016 190.661 13.9008C190.004 14.0001 185.007 25.2837 187.947 32.4972C187.207 31.9059 185.781 29.946 185.809 28.7622C185.391 18.371 177.448 10.1132 176.936 10.3883C176.424 10.6634 177.208 22.3038 184.8 29.1517L187.478 33.6836C187.478 33.6836 185.31 30.7944 180.817 28.4476C175.201 25.5143 171.883 24.6306 174.761 28.0802C177.639 31.5298 183.448 34.6606 186.969 34.7698Z" fill="url(#paint7_radial_10401_2152)"/>
<path d="M100.618 59.5417C102.769 59.7071 105.912 58.549 108.063 50.1113L111.041 51.4349C110.048 60.1483 108.063 76.3839 104.754 77.5751C98.9635 81.5458 86.0592 72.2809 82.0885 65.8285C78.1178 59.3762 81.923 55.7364 82.9157 53.5857C83.9084 51.4349 91.8497 48.2914 94.1659 55.7364C95.5998 56.9497 98.8976 59.4093 100.618 59.5417Z" fill="url(#paint8_radial_10401_2152)"/>
<path d="M94.29 55.833C95.7811 57.0767 98.9443 59.4138 100.618 59.5426C102.017 59.6501 103.825 59.188 105.517 56.5362C105.6 56.705 105.68 56.8789 105.747 57.059C107.443 61.583 106.935 72.8253 103.119 78.3024C97.1848 79.8742 86.9999 72.6482 82.8014 66.8716C82.8603 66.1994 83.1296 65.6648 83.6577 65.3301C89.8618 67.3155 93.3361 63.5916 93.2534 60.9444C94.6961 60.6558 94.7134 58.2794 94.29 55.833Z" fill="url(#paint9_radial_10401_2152)"/>
<path d="M89.2021 89.1549C91.2425 85.46 97.0772 78.4341 104.092 79.89C107.07 85.1841 113.489 98.0222 115.342 107.022C112.695 106.691 99.4594 108.346 95.1579 110C90.8563 111.655 84.7351 107.022 81.2607 100.735C77.7864 94.4486 80.2681 85.3497 89.2021 89.1549Z" fill="url(#paint10_radial_10401_2152)"/>
<path d="M89.2118 89.1383C91.2615 85.4388 97.0879 78.4422 104.09 79.8941C107.068 85.1877 113.486 98.0229 115.34 107.023C113.12 106.747 103.495 107.865 97.8927 109.204C100.867 102.96 94.6212 92.7979 89.2118 89.1383Z" fill="url(#paint11_radial_10401_2152)"/>
<path d="M162.99 52.9214C154.056 38.1968 146.446 13.2148 127.916 12.0566C121.574 23.1966 109.121 46.8 110.048 52.0942C111.206 58.7119 105.747 68.9695 103.264 78.0689C100.782 87.1684 100.452 97.9222 113.523 107.187C126.593 116.452 160.509 114.301 169.443 101.397C178.377 88.4919 171.924 67.6459 162.99 52.9214Z" fill="url(#paint12_linear_10401_2152)"/>
<path d="M162.99 52.9214C154.056 38.1968 146.446 13.2148 127.916 12.0566C121.574 23.1966 109.121 46.8 110.048 52.0942C111.206 58.7119 105.747 68.9695 103.264 78.0689C100.782 87.1684 100.452 97.9222 113.523 107.187C126.593 116.452 160.509 114.301 169.443 101.397C178.377 88.4919 171.924 67.6459 162.99 52.9214Z" fill="url(#paint13_radial_10401_2152)"/>
<path d="M162.99 52.9214C154.056 38.1968 146.446 13.2148 127.916 12.0566C121.574 23.1966 109.121 46.8 110.048 52.0942C111.206 58.7119 105.747 68.9695 103.264 78.0689C100.782 87.1684 100.452 97.9222 113.523 107.187C126.593 116.452 160.509 114.301 169.443 101.397C178.377 88.4919 171.924 67.6459 162.99 52.9214Z" fill="url(#paint14_radial_10401_2152)"/>
<path d="M162.99 52.9214C154.056 38.1968 146.446 13.2148 127.916 12.0566C121.574 23.1966 109.121 46.8 110.048 52.0942C111.206 58.7119 105.747 68.9695 103.264 78.0689C100.782 87.1684 100.452 97.9222 113.523 107.187C126.593 116.452 160.509 114.301 169.443 101.397C178.377 88.4919 171.924 67.6459 162.99 52.9214Z" fill="url(#paint15_radial_10401_2152)"/>
<path d="M148.431 8.25123C142.227 2.70886 132.631 7.83737 135.361 16.0271C137.87 17.0197 141.648 19.8321 143.716 23.3064C151.326 21.652 154.635 13.7936 148.431 8.25123Z" fill="url(#paint16_radial_10401_2152)"/>
<path d="M102.009 9.12067C107.366 4.33504 115.651 8.76331 113.295 15.8348C111.128 16.6919 107.866 19.1203 106.081 22.1202C99.5092 20.6917 96.652 13.9063 102.009 9.12067Z" fill="url(#paint17_radial_10401_2152)"/>
<path d="M99.4596 38.0316C97.1433 25.456 111.206 10.5686 123.614 11.3958C136.023 12.223 142.739 17.1872 146.445 27.1139C151.077 39.5222 143.136 53.2541 126.426 55.2394C109.717 57.2248 101.3 48.0219 99.4596 38.0316Z" fill="url(#paint18_linear_10401_2152)"/>
<path d="M156.258 40.3213C157.358 42.4777 158.438 44.607 159.507 46.6539C153.694 54.5267 142.981 66.534 131.72 71.7816C128.802 68.0687 118.129 63.3021 106.935 67.1753C108.831 61.92 110.494 56.9019 110.153 52.9775C133.388 61.9399 150.535 49.2062 156.258 40.3213Z" fill="url(#paint19_radial_10401_2152)"/>
<path d="M106.532 28.1459C108.063 24.1337 113.996 27.4621 111.621 33.1106C109.245 38.7592 109.345 40.3073 109.345 40.3073C107.732 40.9278 103.885 41.7543 102.562 38.1564C101.238 34.5585 105.002 32.1582 106.532 28.1459Z" fill="url(#paint20_radial_10401_2152)"/>
<path d="M124.689 39.8931C120.839 36.0428 119.477 29.9673 122.787 26.9475C126.096 23.9277 127.957 29.395 133.417 34.4741C137.015 37.8221 129.446 44.651 124.689 39.8931Z" fill="url(#paint21_radial_10401_2152)"/>
<path d="M106.367 44.3206C105.085 39.4814 111.082 35.7175 112.282 30.6301C112.778 26.7008 121.463 26.7008 120.057 30.6301C118.651 34.5594 124.111 39.7709 125.434 44.6101C126.758 49.4494 120.967 53.4614 116.252 53.2546C111.537 53.0478 107.649 49.1599 106.367 44.3206Z" fill="url(#paint22_radial_10401_2152)"/>
<path d="M112.116 48.332C112.364 48.0011 112.198 47.5048 112.116 46.0571H113.232C113.219 46.6224 113.241 47.8687 113.439 48.332C114.184 49.821 118.692 49.0765 120.057 47.9597C121.422 46.843 121.215 47.7943 120.967 48.332C119.188 51.2686 113.936 50.9791 112.695 49.4074C111.661 50.4828 109.469 50.276 109.22 48.787C110.089 49.4901 111.868 48.6629 112.116 48.332Z" fill="url(#paint23_linear_10401_2152)"/>
<path d="M127.585 95.1092C131.556 92.9587 147.935 72.7745 160.509 85.1828C163.156 87.7953 167.524 95.8366 163.156 104.704C157.697 115.789 139.828 111.984 136.023 112.977C132.218 113.969 123.284 116.782 117.493 106.524C111.703 96.2667 121.464 89.9799 127.585 95.1092Z" fill="url(#paint24_radial_10401_2152)"/>
<path d="M156.253 40.3081C158.545 44.8013 160.727 49.1885 162.991 52.9192C163.65 54.0064 164.288 55.1332 164.915 56.2815C162.977 76.6103 153.779 80.6719 143.966 87.0025C133.709 93.6201 119.976 97.5902 115.674 89.815C111.373 82.0394 125.765 73.7681 131.887 69.6318C138.008 65.496 136.024 57.1412 140.324 53.0048C145.215 51.3155 152.229 46.3004 156.253 40.3081Z" fill="url(#paint25_radial_10401_2152)"/>
<path d="M193.371 83.669C194.179 81.5339 194.179 63.0902 193.371 57.0005H203.074C202.164 61.9352 202.265 80.3444 203.074 83.669H193.371Z" fill="url(#paint26_radial_10401_2152)"/>
<path d="M193.371 83.669C194.179 81.5339 194.179 63.0902 193.371 57.0005H203.074C202.164 61.9352 202.265 80.3444 203.074 83.669H193.371Z" fill="url(#paint27_radial_10401_2152)"/>
<path d="M193.371 83.669C194.179 81.5339 194.179 63.0902 193.371 57.0005H203.074C202.164 61.9352 202.265 80.3444 203.074 83.669H193.371Z" fill="url(#paint28_radial_10401_2152)"/>
<path d="M193.371 110.338C194.179 108.203 194.179 89.7591 193.371 83.6694H203.074C202.164 88.6042 202.265 107.013 203.074 110.338H193.371Z" fill="url(#paint29_radial_10401_2152)"/>
<path d="M193.371 110.338C194.179 108.203 194.179 89.7591 193.371 83.6694H203.074C202.164 88.6042 202.265 107.013 203.074 110.338H193.371Z" fill="url(#paint30_radial_10401_2152)"/>
<path d="M193.371 110.338C194.179 108.203 194.179 89.7591 193.371 83.6694H203.074C202.164 88.6042 202.265 107.013 203.074 110.338H193.371Z" fill="url(#paint31_radial_10401_2152)"/>
<path d="M193.371 56.9996C194.178 54.8645 194.482 36.1057 193.371 30.3311H203.074C202.164 35.2658 202.265 53.675 203.074 56.9996H193.371Z" fill="url(#paint32_radial_10401_2152)"/>
<path d="M193.371 56.9996C194.178 54.8645 194.482 36.1057 193.371 30.3311H203.074C202.164 35.2658 202.265 53.675 203.074 56.9996H193.371Z" fill="url(#paint33_radial_10401_2152)"/>
<path d="M193.371 56.9996C194.178 54.8645 194.482 36.1057 193.371 30.3311H203.074C202.164 35.2658 202.265 53.675 203.074 56.9996H193.371Z" fill="url(#paint34_radial_10401_2152)"/>
<path d="M193.369 30.3306C194.177 28.1955 194.48 9.43679 193.369 3.66211H203.072C202.162 8.59684 202.263 27.006 203.072 30.3306H193.369Z" fill="url(#paint35_radial_10401_2152)"/>
<path d="M193.369 30.3306C194.177 28.1955 194.48 9.43679 193.369 3.66211H203.072C202.162 8.59684 202.263 27.006 203.072 30.3306H193.369Z" fill="url(#paint36_radial_10401_2152)"/>
<path d="M193.369 30.3306C194.177 28.1955 194.48 9.43679 193.369 3.66211H203.072C202.162 8.59684 202.263 27.006 203.072 30.3306H193.369Z" fill="url(#paint37_radial_10401_2152)"/>
<path fill-rule="evenodd" clip-rule="evenodd" d="M193.259 31.4563V29.8415C196.28 29.1795 200.203 28.8121 203.181 29.8816V31.4162C200.3 30.6163 196.183 30.8787 193.259 31.4563Z" fill="#5F7F5F"/>
<path fill-rule="evenodd" clip-rule="evenodd" d="M193.259 58.1233V56.5085C196.281 55.8465 200.203 55.4791 203.182 56.5486V58.0832C200.3 57.2833 196.184 57.5457 193.259 58.1233Z" fill="#5F7F5F"/>
<path fill-rule="evenodd" clip-rule="evenodd" d="M193.259 84.7946V83.1799C196.281 82.5179 200.203 82.1505 203.182 83.2199V84.7546C200.3 83.9547 196.184 84.2171 193.259 84.7946Z" fill="#5F7F5F"/>
<path d="M127.585 95.1099C131.556 92.9583 147.937 72.777 160.51 85.185C163.158 87.7984 167.523 95.8392 163.156 104.706C157.697 115.79 139.829 111.984 136.023 112.976C135.595 113.088 135.103 113.223 134.558 113.36C135.814 106.51 130.833 99.5822 127.301 94.889C127.395 94.9615 127.492 95.0322 127.585 95.1099Z" fill="url(#paint38_radial_10401_2152)"/>
<path d="M109.675 45.3969C107.648 43.8666 108.227 41.5459 109.675 42.0422C111.123 42.5385 113.175 42.6305 115.094 41.8363C117.493 40.8437 117.121 43.9044 115.301 45.3969C113.48 46.8895 111.702 46.9273 109.675 45.3969Z" fill="url(#paint39_linear_10401_2152)"/>
<path d="M127.503 33.401C127.503 34.6345 126.503 35.6345 125.269 35.6345C124.036 35.6345 123.036 34.6345 123.036 33.401C123.036 32.1675 124.036 31.1675 125.269 31.1675C126.503 31.1675 127.503 32.1675 127.503 33.401Z" fill="#061326"/>
<path d="M109.882 33.4371C109.882 34.6706 108.936 35.6706 107.77 35.6706C106.603 35.6706 105.657 34.6706 105.657 33.4371C105.657 32.2036 106.603 31.2036 107.77 31.2036C108.936 31.2036 109.882 32.2036 109.882 33.4371Z" fill="#061326"/>
<path d="M44.8298 107.632C45.7197 104.76 45.7197 79.9473 44.8301 71.7549H55.5186C54.5158 78.3936 54.6272 103.159 55.5186 107.632H44.8298Z" fill="url(#paint40_radial_10401_2152)"/>
<path d="M44.8298 107.632C45.7197 104.76 45.7197 79.9473 44.8301 71.7549H55.5186C54.5158 78.3936 54.6272 103.159 55.5186 107.632H44.8298Z" fill="url(#paint41_radial_10401_2152)"/>
<path d="M44.8298 107.632C45.7197 104.76 45.7197 79.9473 44.8301 71.7549H55.5186C54.5158 78.3936 54.6272 103.159 55.5186 107.632H44.8298Z" fill="url(#paint42_radial_10401_2152)"/>
<path d="M44.8298 71.7546C45.7197 68.8823 46.0538 43.6461 44.8301 35.8774H55.5186C54.5158 42.5161 54.6272 67.282 55.5186 71.7546H44.8298Z" fill="url(#paint43_radial_10401_2152)"/>
<path d="M44.8298 71.7546C45.7197 68.8823 46.0538 43.6461 44.8301 35.8774H55.5186C54.5158 42.5161 54.6272 67.282 55.5186 71.7546H44.8298Z" fill="url(#paint44_radial_10401_2152)"/>
<path d="M44.8298 71.7546C45.7197 68.8823 46.0538 43.6461 44.8301 35.8774H55.5186C54.5158 42.5161 54.6272 67.282 55.5186 71.7546H44.8298Z" fill="url(#paint45_radial_10401_2152)"/>
<path d="M44.8287 35.8772C45.7186 33.0048 46.0527 7.76868 44.829 0H55.5175C54.5147 6.63869 54.6261 31.4046 55.5175 35.8772H44.8287Z" fill="url(#paint46_radial_10401_2152)"/>
<path d="M44.8287 35.8772C45.7186 33.0048 46.0527 7.76868 44.829 0H55.5175C54.5147 6.63869 54.6261 31.4046 55.5175 35.8772H44.8287Z" fill="url(#paint47_radial_10401_2152)"/>
<path d="M44.8287 35.8772C45.7186 33.0048 46.0527 7.76868 44.829 0H55.5175C54.5147 6.63869 54.6261 31.4046 55.5175 35.8772H44.8287Z" fill="url(#paint48_radial_10401_2152)"/>
<path fill-rule="evenodd" clip-rule="evenodd" d="M44.707 37.3903V35.2173C48.0364 34.3264 52.3589 33.832 55.641 35.2712V37.3364C52.4657 36.26 47.9297 36.6131 44.707 37.3903Z" fill="#5F7F5F"/>
<path fill-rule="evenodd" clip-rule="evenodd" d="M44.707 73.2677V71.0947C48.0364 70.2038 52.3589 69.7094 55.641 71.1486V73.2138C52.4657 72.1374 47.9297 72.4906 44.707 73.2677Z" fill="#5F7F5F"/>
<defs>
<linearGradient id="paint0_linear_10401_2152" x1="121.526" y1="2.91602" x2="121.526" y2="107.979" gradientUnits="userSpaceOnUse">
<stop stop-color="#8BD0D3"/>
<stop offset="0.463707" stop-color="#ECE4BA"/>
<stop offset="1" stop-color="#FFDB95"/>
</linearGradient>
<radialGradient id="paint1_radial_10401_2152" cx="0" cy="0" r="1" gradientUnits="userSpaceOnUse" gradientTransform="translate(32.9221 17.646) rotate(104.562) scale(28.7925 20.4625)">
<stop offset="0.0597404" stop-color="#8CB136"/>
<stop offset="1" stop-color="#63972A"/>
</radialGradient>
<radialGradient id="paint2_radial_10401_2152" cx="0" cy="0" r="1" gradientUnits="userSpaceOnUse" gradientTransform="translate(182.457 44.3181) rotate(96.6274) scale(24.7585 17.5956)">
<stop offset="0.0597404" stop-color="#8CB136"/>
<stop offset="1" stop-color="#63972A"/>
</radialGradient>
<radialGradient id="paint3_radial_10401_2152" cx="0" cy="0" r="1" gradientUnits="userSpaceOnUse" gradientTransform="translate(217.583 68.4075) rotate(83.3726) scale(27.6188 19.6283)">
<stop offset="0.0597404" stop-color="#8CB136"/>
<stop offset="1" stop-color="#63972A"/>
</radialGradient>
<linearGradient id="paint4_linear_10401_2152" x1="135.952" y1="115.502" x2="135.952" y2="93.8672" gradientUnits="userSpaceOnUse">
<stop stop-color="#99B883"/>
<stop offset="1" stop-color="#D8D891"/>
</linearGradient>
<radialGradient id="paint5_radial_10401_2152" cx="0" cy="0" r="1" gradientUnits="userSpaceOnUse" gradientTransform="translate(83.6392 22.6458) rotate(116.932) scale(35.1797 29.8033)">
<stop offset="0.0597404" stop-color="#8CB136"/>
<stop offset="1" stop-color="#63972A"/>
</radialGradient>
<radialGradient id="paint6_radial_10401_2152" cx="0" cy="0" r="1" gradientUnits="userSpaceOnUse" gradientTransform="translate(69.0553 62.1222) rotate(84.1819) scale(30.6689 25.9819)">
<stop offset="0.0597404" stop-color="#8CB136"/>
<stop offset="1" stop-color="#63972A"/>
</radialGradient>
<radialGradient id="paint7_radial_10401_2152" cx="0" cy="0" r="1" gradientUnits="userSpaceOnUse" gradientTransform="translate(179.173 12.2297) rotate(95.8181) scale(30.6689 25.9819)">
<stop offset="0.0597404" stop-color="#8CB136"/>
<stop offset="1" stop-color="#63972A"/>
</radialGradient>
<radialGradient id="paint8_radial_10401_2152" cx="0" cy="0" r="1" gradientUnits="userSpaceOnUse" gradientTransform="translate(90.0295 53.2548) rotate(77.4009) scale(25.9007 27.9996)">
<stop stop-color="#647586"/>
<stop offset="1" stop-color="#141D29"/>
</radialGradient>
<radialGradient id="paint9_radial_10401_2152" cx="0" cy="0" r="1" gradientUnits="userSpaceOnUse" gradientTransform="translate(91.7664 61.4426) rotate(4.69868) scale(12.1182 9.75425)">
<stop offset="0.32041" stop-color="#051225"/>
<stop offset="1" stop-color="#051225" stop-opacity="0"/>
</radialGradient>
<radialGradient id="paint10_radial_10401_2152" cx="0" cy="0" r="1" gradientUnits="userSpaceOnUse" gradientTransform="translate(92.5108 85.3492) rotate(78.6044) scale(25.4917 29.6055)">
<stop stop-color="#647586"/>
<stop offset="1" stop-color="#141D29"/>
</radialGradient>
<radialGradient id="paint11_radial_10401_2152" cx="0" cy="0" r="1" gradientTransform="matrix(5.51075e-08 21.0009 -13.5438 -0.0715871 88.0434 98.7463)" gradientUnits="userSpaceOnUse">
<stop offset="0.239906" stop-color="#051225"/>
<stop offset="1" stop-color="#051225" stop-opacity="0"/>
</radialGradient>
<linearGradient id="paint12_linear_10401_2152" x1="135.196" y1="80.716" x2="107.401" y2="64.8334" gradientUnits="userSpaceOnUse">
<stop stop-color="#EDD6B3"/>
<stop offset="1" stop-color="#F9EDD9"/>
</linearGradient>
<radialGradient id="paint13_radial_10401_2152" cx="0" cy="0" r="1" gradientUnits="userSpaceOnUse" gradientTransform="translate(120.802 38.0314) rotate(54.4623) scale(31.3105 27.3871)">
<stop offset="0.577415" stop-color="#51422C"/>
<stop offset="0.987715" stop-color="#A18D6E" stop-opacity="0"/>
</radialGradient>
<radialGradient id="paint14_radial_10401_2152" cx="0" cy="0" r="1" gradientUnits="userSpaceOnUse" gradientTransform="translate(95.3235 30.2555) rotate(49.4435) scale(114.758 69.5009)">
<stop offset="0.790598" stop-color="#A18D6E" stop-opacity="0"/>
<stop offset="0.937696" stop-color="#51422C"/>
</radialGradient>
<radialGradient id="paint15_radial_10401_2152" cx="0" cy="0" r="1" gradientUnits="userSpaceOnUse" gradientTransform="translate(91.0219 73.2711) rotate(64.9363) scale(36.7111)">
<stop offset="0.533694" stop-color="#FEF8EC"/>
<stop offset="0.802885" stop-color="#FEF8EC" stop-opacity="0"/>
</radialGradient>
<radialGradient id="paint16_radial_10401_2152" cx="0" cy="0" r="1" gradientUnits="userSpaceOnUse" gradientTransform="translate(140.655 5.93604) rotate(70.4513) scale(16.0278 15.4946)">
<stop stop-color="#647586"/>
<stop offset="1" stop-color="#141D29"/>
</radialGradient>
<radialGradient id="paint17_radial_10401_2152" cx="0" cy="0" r="1" gradientUnits="userSpaceOnUse" gradientTransform="translate(100.618 9.57481) rotate(71.834) scale(11.1439 10.7731)">
<stop stop-color="#647586"/>
<stop offset="1" stop-color="#141D29"/>
</radialGradient>
<linearGradient id="paint18_linear_10401_2152" x1="130.729" y1="64.3373" x2="95.3237" y2="16.0275" gradientUnits="userSpaceOnUse">
<stop stop-color="#EDD6B3"/>
<stop offset="1" stop-color="#FEF7EB"/>
</linearGradient>
<radialGradient id="paint19_radial_10401_2152" cx="0" cy="0" r="1" gradientTransform="matrix(26.8031 20.8426 -24.5257 31.5266 103.761 50.939)" gradientUnits="userSpaceOnUse">
<stop stop-color="#647586"/>
<stop offset="1" stop-color="#141D29"/>
</radialGradient>
<radialGradient id="paint20_radial_10401_2152" cx="0" cy="0" r="1" gradientUnits="userSpaceOnUse" gradientTransform="translate(105.416 28.2705) rotate(81.7971) scale(12.7148 8.68824)">
<stop stop-color="#647586"/>
<stop offset="1" stop-color="#141D29"/>
</radialGradient>
<radialGradient id="paint21_radial_10401_2152" cx="0" cy="0" r="1" gradientUnits="userSpaceOnUse" gradientTransform="translate(123.531 32.5715) rotate(65.3705) scale(9.84988 8.57236)">
<stop stop-color="#647586"/>
<stop offset="1" stop-color="#141D29"/>
</radialGradient>
<radialGradient id="paint22_radial_10401_2152" cx="0" cy="0" r="1" gradientUnits="userSpaceOnUse" gradientTransform="translate(103.761 35.3039) rotate(53.9529) scale(22.211 16.8783)">
<stop offset="0.533694" stop-color="#FEF8EC"/>
<stop offset="0.802885" stop-color="#FEF8EC" stop-opacity="0"/>
</radialGradient>
<linearGradient id="paint23_linear_10401_2152" x1="115.184" y1="46.0571" x2="115.184" y2="50.5733" gradientUnits="userSpaceOnUse">
<stop stop-color="#3B4957"/>
<stop offset="1" stop-color="#141D29"/>
</linearGradient>
<radialGradient id="paint24_radial_10401_2152" cx="0" cy="0" r="1" gradientUnits="userSpaceOnUse" gradientTransform="translate(133.541 92.2969) rotate(156.303) scale(39.9301 18.6554)">
<stop stop-color="#647586"/>
<stop offset="1" stop-color="#141D29"/>
</radialGradient>
<radialGradient id="paint25_radial_10401_2152" cx="0" cy="0" r="1" gradientTransform="matrix(15.3865 30.8601 -32.6863 16.3894 126.594 57.6151)" gradientUnits="userSpaceOnUse">
<stop offset="0.426606" stop-color="#647586"/>
<stop offset="1" stop-color="#141D29"/>
</radialGradient>
<radialGradient id="paint26_radial_10401_2152" cx="0" cy="0" r="1" gradientUnits="userSpaceOnUse" gradientTransform="translate(199.839 68.0249) rotate(90) scale(39.095 7.21013)">
<stop offset="0.187031" stop-color="#528F1E"/>
<stop offset="1" stop-color="#9FBB3F"/>
</radialGradient>
<radialGradient id="paint27_radial_10401_2152" cx="0" cy="0" r="1" gradientUnits="userSpaceOnUse" gradientTransform="translate(203.074 70.3348) rotate(-90) scale(17.639 2.55355)">
<stop stop-color="#E3F6B5"/>
<stop offset="1" stop-color="#E3F6B5" stop-opacity="0"/>
</radialGradient>
<radialGradient id="paint28_radial_10401_2152" cx="0" cy="0" r="1" gradientTransform="matrix(20.9232 -4.51475 1.35682 6.78472 195.19 88.7087)" gradientUnits="userSpaceOnUse">
<stop stop-color="#E3F6B5"/>
<stop offset="1" stop-color="#E3F6B5" stop-opacity="0"/>
</radialGradient>
<radialGradient id="paint29_radial_10401_2152" cx="0" cy="0" r="1" gradientUnits="userSpaceOnUse" gradientTransform="translate(199.839 94.6938) rotate(90) scale(39.095 7.21013)">
<stop offset="0.187031" stop-color="#528F1E"/>
<stop offset="1" stop-color="#9FBB3F"/>
</radialGradient>
<radialGradient id="paint30_radial_10401_2152" cx="0" cy="0" r="1" gradientUnits="userSpaceOnUse" gradientTransform="translate(203.074 97.0037) rotate(-90) scale(17.639 2.55355)">
<stop stop-color="#E3F6B5"/>
<stop offset="1" stop-color="#E3F6B5" stop-opacity="0"/>
</radialGradient>
<radialGradient id="paint31_radial_10401_2152" cx="0" cy="0" r="1" gradientTransform="matrix(20.9232 -4.51475 1.35682 6.78472 195.19 115.378)" gradientUnits="userSpaceOnUse">
<stop stop-color="#E3F6B5"/>
<stop offset="1" stop-color="#E3F6B5" stop-opacity="0"/>
</radialGradient>
<radialGradient id="paint32_radial_10401_2152" cx="0" cy="0" r="1" gradientUnits="userSpaceOnUse" gradientTransform="translate(199.839 41.3554) rotate(90) scale(39.095 7.21013)">
<stop offset="0.187031" stop-color="#528F1E"/>
<stop offset="1" stop-color="#9FBB3F"/>
</radialGradient>
<radialGradient id="paint33_radial_10401_2152" cx="0" cy="0" r="1" gradientUnits="userSpaceOnUse" gradientTransform="translate(203.074 43.6653) rotate(-90) scale(17.639 2.55355)">
<stop stop-color="#E3F6B5"/>
<stop offset="1" stop-color="#E3F6B5" stop-opacity="0"/>
</radialGradient>
<radialGradient id="paint34_radial_10401_2152" cx="0" cy="0" r="1" gradientTransform="matrix(20.9232 -4.51475 1.35682 6.78472 195.189 62.0393)" gradientUnits="userSpaceOnUse">
<stop stop-color="#E3F6B5"/>
<stop offset="1" stop-color="#E3F6B5" stop-opacity="0"/>
</radialGradient>
<radialGradient id="paint35_radial_10401_2152" cx="0" cy="0" r="1" gradientUnits="userSpaceOnUse" gradientTransform="translate(199.837 14.6865) rotate(90) scale(39.095 7.21013)">
<stop offset="0.187031" stop-color="#528F1E"/>
<stop offset="1" stop-color="#9FBB3F"/>
</radialGradient>
<radialGradient id="paint36_radial_10401_2152" cx="0" cy="0" r="1" gradientUnits="userSpaceOnUse" gradientTransform="translate(203.072 16.9964) rotate(-90) scale(17.639 2.55355)">
<stop stop-color="#E3F6B5"/>
<stop offset="1" stop-color="#E3F6B5" stop-opacity="0"/>
</radialGradient>
<radialGradient id="paint37_radial_10401_2152" cx="0" cy="0" r="1" gradientTransform="matrix(20.9232 -4.51475 1.35682 6.78472 195.188 35.3704)" gradientUnits="userSpaceOnUse">
<stop stop-color="#E3F6B5"/>
<stop offset="1" stop-color="#E3F6B5" stop-opacity="0"/>
</radialGradient>
<radialGradient id="paint38_radial_10401_2152" cx="0" cy="0" r="1" gradientTransform="matrix(-10.9211 16.2175 -15.5284 -10.4588 123.113 102.559)" gradientUnits="userSpaceOnUse">
<stop offset="0.239906" stop-color="#051225"/>
<stop offset="1" stop-color="#051225" stop-opacity="0"/>
</radialGradient>
<linearGradient id="paint39_linear_10401_2152" x1="112.572" y1="41.6421" x2="112.572" y2="46.5306" gradientUnits="userSpaceOnUse">
<stop stop-color="#3B4957"/>
<stop offset="1" stop-color="#141D29"/>
</linearGradient>
<radialGradient id="paint40_radial_10401_2152" cx="0" cy="0" r="1" gradientUnits="userSpaceOnUse" gradientTransform="translate(51.955 86.586) rotate(90) scale(52.5945 7.94243)">
<stop offset="0.187031" stop-color="#528F1E"/>
<stop offset="1" stop-color="#9FBB3F"/>
</radialGradient>
<radialGradient id="paint41_radial_10401_2152" cx="0" cy="0" r="1" gradientUnits="userSpaceOnUse" gradientTransform="translate(55.5185 89.6935) rotate(-90) scale(23.7298 2.81291)">
<stop stop-color="#E3F6B5"/>
<stop offset="1" stop-color="#E3F6B5" stop-opacity="0"/>
</radialGradient>
<radialGradient id="paint42_radial_10401_2152" cx="0" cy="0" r="1" gradientTransform="matrix(23.0483 -6.07369 1.49463 9.12748 46.8332 114.412)" gradientUnits="userSpaceOnUse">
<stop stop-color="#E3F6B5"/>
<stop offset="1" stop-color="#E3F6B5" stop-opacity="0"/>
</radialGradient>
<radialGradient id="paint43_radial_10401_2152" cx="0" cy="0" r="1" gradientUnits="userSpaceOnUse" gradientTransform="translate(51.955 50.7086) rotate(90) scale(52.5945 7.94243)">
<stop offset="0.187031" stop-color="#528F1E"/>
<stop offset="1" stop-color="#9FBB3F"/>
</radialGradient>
<radialGradient id="paint44_radial_10401_2152" cx="0" cy="0" r="1" gradientUnits="userSpaceOnUse" gradientTransform="translate(55.5185 53.816) rotate(-90) scale(23.7298 2.81291)">
<stop stop-color="#E3F6B5"/>
<stop offset="1" stop-color="#E3F6B5" stop-opacity="0"/>
</radialGradient>
<radialGradient id="paint45_radial_10401_2152" cx="0" cy="0" r="1" gradientTransform="matrix(23.0483 -6.07369 1.49463 9.12748 46.8332 78.5345)" gradientUnits="userSpaceOnUse">
<stop stop-color="#E3F6B5"/>
<stop offset="1" stop-color="#E3F6B5" stop-opacity="0"/>
</radialGradient>
<radialGradient id="paint46_radial_10401_2152" cx="0" cy="0" r="1" gradientUnits="userSpaceOnUse" gradientTransform="translate(51.9539 14.8311) rotate(90) scale(52.5945 7.94243)">
<stop offset="0.187031" stop-color="#528F1E"/>
<stop offset="1" stop-color="#9FBB3F"/>
</radialGradient>
<radialGradient id="paint47_radial_10401_2152" cx="0" cy="0" r="1" gradientUnits="userSpaceOnUse" gradientTransform="translate(55.5174 17.9386) rotate(-90) scale(23.7298 2.81291)">
<stop stop-color="#E3F6B5"/>
<stop offset="1" stop-color="#E3F6B5" stop-opacity="0"/>
</radialGradient>
<radialGradient id="paint48_radial_10401_2152" cx="0" cy="0" r="1" gradientTransform="matrix(23.0483 -6.07369 1.49463 9.12748 46.8321 42.6571)" gradientUnits="userSpaceOnUse">
<stop stop-color="#E3F6B5"/>
<stop offset="1" stop-color="#E3F6B5" stop-opacity="0"/>
</radialGradient>
</defs>
</svg>
