<svg viewBox="0 0 240 120" fill="none" xmlns="http://www.w3.org/2000/svg">
<path d="M63.2654 6.6808C12.9468 13.2993 5.2051 48.4825 16.5194 63.4614L222.261 63.4615C236.553 46.0444 223.452 18.873 192.486 11.5578C161.521 4.24263 113.584 0.0622713 63.2654 6.6808Z" fill="url(#paint0_linear_10706_36139)"/>
<path d="M63.2654 6.6808C12.9468 13.2993 5.2051 48.4825 16.5194 63.4614L222.261 63.4615C236.553 46.0444 223.452 18.873 192.486 11.5578C161.521 4.24263 113.584 0.0622713 63.2654 6.6808Z" fill="url(#paint1_radial_10706_36139)"/>
<path d="M210.73 54.5575C210.73 61.215 205.333 66.612 198.676 66.612C192.018 66.612 186.621 61.215 186.621 54.5575C186.621 47.8999 192.018 42.5029 198.676 42.5029C205.333 42.5029 210.73 47.8999 210.73 54.5575Z" fill="url(#paint2_linear_10706_36139)"/>
<path d="M19.9489 27.8052C20.1663 27.905 20.3975 28.0166 20.6345 28.1641C21.5905 28.5931 22.3756 29.6106 22.4886 31.3107C22.8946 30.1551 23.5244 29.686 24.8886 29.228C25.1292 29.127 25.3793 29.0386 25.6426 28.9742L25.6443 28.9876C25.8797 28.9191 26.1323 28.8487 26.4033 28.774C26.2517 29.1751 25.9976 29.5706 25.6937 29.9581C25.152 30.1269 24.6815 30.1431 24.4264 30.1038C24.6137 30.2115 24.9363 30.3278 25.3334 30.3804C25.103 30.6343 24.8558 30.8811 24.5988 31.1134C24.1737 31.0554 23.8404 30.944 23.656 30.8413C23.7809 30.9915 24.0046 31.1878 24.3078 31.3635C23.9321 31.6834 23.5527 31.9756 23.2032 32.2247C24.6153 31.5093 26.1479 31.5609 26.6588 31.7083C26.8551 31.7655 27.1139 31.9006 27.3988 32.1376C27.6102 32.2384 27.8197 32.3561 28.0174 32.505L27.9046 32.6554C28.3796 33.2491 28.8492 34.1607 29.12 35.528C28.9207 35.3952 28.6807 35.2673 28.4164 35.135C27.5828 34.518 27.217 33.7033 27.1342 33.3202C27.0903 33.6003 27.1075 34.1037 27.3141 34.6422C26.9785 34.5082 26.6248 34.3773 26.2656 34.2517C26.1659 33.6144 26.2527 33.0804 26.3483 32.8149C26.1566 33.0363 25.8947 33.4957 25.7908 34.0888C25.401 33.959 25.0073 33.8444 24.6283 33.7308C25.7825 34.9469 26.3464 37.1902 25.437 38.4625C24.9258 38.2929 24.4944 38.0053 24.1226 37.6557C24.4257 37.3264 24.728 37.1167 24.9243 37.0234C24.6767 37.0421 24.2697 37.1386 23.8518 37.3809C23.6795 37.1867 23.5191 36.9787 23.3783 36.759C23.752 36.2518 24.1783 35.9462 24.4286 35.8274C24.1386 35.8492 23.6314 35.9818 23.1421 36.3254C22.7997 35.6785 22.5754 34.978 22.4339 34.343C19.2842 46.1666 25.9756 48.6691 26.2818 57.2041L22.5834 57.6693C23.6506 49.2752 17.3461 45.1113 20.8036 35.6838C20.7092 35.7924 20.6199 35.9073 20.5227 36.0144C20.1266 35.3041 19.5164 34.9062 19.1766 34.7755C19.4385 35.0126 19.8906 35.6197 20.0646 36.4899C19.8677 36.6946 19.6697 36.8924 19.4759 37.0819C19.3209 36.3502 18.9209 35.8191 18.6618 35.5943C18.8368 35.9239 19.0639 36.7162 18.8809 37.6609C18.5205 37.9955 18.2008 38.2892 17.9513 38.5047C17.8241 38.2135 17.7371 37.9181 17.6773 37.6261L17.5856 37.6195C17.5948 37.5114 17.6143 37.4057 17.6272 37.3008C17.3844 35.379 18.4638 33.5706 19.7945 32.7898C19.6127 32.7674 19.4282 32.7408 19.241 32.7231C18.9958 31.7861 18.3501 31.1945 17.9924 30.995C18.2043 31.2496 18.5287 31.8603 18.6076 32.6711C18.3015 32.6525 17.9942 32.6477 17.6913 32.6455C17.6491 31.8435 17.2843 31.2234 17.0375 30.9515L17.0331 30.9521C17.1503 31.2553 17.2648 31.8933 17.1143 32.6454C16.8299 32.6548 16.5506 32.6802 16.2864 32.7087C16.4808 32.1452 16.481 31.6218 16.4229 31.3378C16.371 31.6461 16.144 32.2343 15.6475 32.7936C15.1548 32.889 14.7346 33.0337 14.4308 33.2328L14.1998 33.1665C14.4073 32.817 14.6168 32.4994 14.8247 32.2111L14.7637 32.1597C15.0134 31.8571 15.2717 31.5973 15.5228 31.3692C17.5916 29.1281 19.6024 29.6544 21.1736 31.258C20.9701 30.8987 20.744 30.5518 20.4992 30.2299C20.8539 29.9375 21.0799 29.6113 21.1884 29.3891L21.1828 29.3807C21.0129 29.5382 20.6951 29.7543 20.2602 29.9192C20.0692 29.6872 19.8694 29.4714 19.6744 29.2706C20.0159 29.1182 20.2782 28.9362 20.4226 28.7904C20.2209 28.8809 19.8513 28.973 19.3935 28.988C19.0314 28.6428 18.6852 28.3628 18.3955 28.1686C18.854 27.9581 19.3711 27.8778 19.8802 27.9455L19.9489 27.8052Z" fill="url(#paint3_linear_10706_36139)"/>
<path d="M43.2527 15.703C43.2678 16.4902 43.1122 17.3428 42.8584 18.2106C42.0407 18.8755 41.2358 19.2242 40.7721 19.3301C41.1686 19.3874 41.8085 19.3674 42.5322 19.1817C42.3094 19.7798 42.0452 20.3752 41.7608 20.954C40.9923 21.1448 40.3382 21.1653 39.9537 21.1145C40.203 21.2504 40.5827 21.3921 41.0453 21.4928C42.3008 20.3062 44.0335 20.1038 47.3652 19.8693C46.986 20.4752 46.4475 21.0487 45.8243 21.5825C44.8693 21.6834 44.0814 21.5531 43.675 21.403C43.9465 21.6419 44.4404 21.9396 45.0768 22.1579C44.8075 22.3564 44.5262 22.5456 44.2432 22.7313C44.5541 22.7323 44.807 22.7543 44.9802 22.7953C45.3255 22.8777 45.8166 23.1192 46.3458 23.6183C46.5544 23.7269 46.7598 23.8527 46.96 23.9982L46.8435 24.1603C47.5682 25.0527 48.303 26.4574 48.7832 28.6077C48.4872 28.4191 48.1356 28.2351 47.7461 28.0547C46.5004 27.1661 45.9154 25.913 45.7711 25.3117C45.7257 25.765 45.784 26.5714 46.1207 27.4115C45.6264 27.2358 45.1057 27.0659 44.5775 26.9063C44.3903 25.8991 44.4835 25.0364 44.6045 24.6009C44.342 24.9762 43.9937 25.7352 43.8825 26.6932C43.4639 26.5743 43.044 26.4596 42.6313 26.3533C45.036 28.5723 46.022 33.5277 43.8993 35.9312C42.9928 35.5225 42.2488 34.918 41.633 34.2048C42.2498 33.6592 42.8456 33.3319 43.223 33.198C42.7662 33.1855 42.0084 33.2937 41.1997 33.6575C40.9186 33.2668 40.6642 32.8553 40.4466 32.4233C41.2282 31.566 42.0667 31.0804 42.5478 30.9103C42.0086 30.8951 41.0491 31.0578 40.0806 31.603C39.8159 30.9492 39.6125 30.274 39.4582 29.6086C39.3975 29.5993 39.3408 29.5775 39.2823 29.563C38.2332 41.4152 45.2121 47.0702 43.8215 56.347L38.9452 55.7129C41.0688 46.6866 35.9745 39.8966 37.6119 29.8957C37.451 30.1412 37.2984 30.3947 37.1291 30.6374C36.251 29.5774 35.0916 29.0724 34.4724 28.942C34.9892 29.2633 35.9356 30.1536 36.4761 31.5343C36.1955 31.9113 35.9169 32.2826 35.6377 32.6343C35.1686 31.4744 34.3253 30.701 33.815 30.3974C34.2077 30.889 34.8124 32.1203 34.7586 33.6971C34.2366 34.3196 33.7743 34.866 33.4085 35.2715C33.1103 34.8325 32.8767 34.3799 32.6929 33.9239L32.6789 33.9267C32.6776 33.9114 32.6769 33.8961 32.6757 33.8808C31.361 30.5558 32.9196 26.9487 35.2493 25.3797C34.9594 25.3034 34.6645 25.2258 34.3649 25.1556C34.1179 23.7356 33.1979 22.7339 32.6691 22.3625C32.9633 22.7823 33.3795 23.7412 33.3837 24.9416C32.9099 24.846 32.4321 24.7686 31.961 24.6975C32.0121 23.5051 31.5278 22.5094 31.1807 22.0644C31.3231 22.5264 31.41 23.4889 31.0649 24.5628C30.6238 24.5131 30.1907 24.4815 29.7779 24.4636C30.159 23.6894 30.2277 22.9325 30.1778 22.5067C30.0531 22.9445 29.6182 23.751 28.7655 24.4547C27.9815 24.4831 27.3024 24.5985 26.7997 24.8217L26.4555 24.6724C26.833 24.204 27.2058 23.7815 27.5749 23.4045L27.551 23.3786C27.665 23.277 27.784 23.1857 27.8973 23.0919C30.642 20.4587 33.1269 20.2799 35.1975 21.4095C35.6056 20.7876 35.8084 20.1812 35.8663 19.7966C35.6817 20.1206 35.274 20.6207 34.6523 21.0932C34.2466 20.8189 33.8376 20.5728 33.44 20.3492C33.9017 19.9536 34.2164 19.5419 34.3741 19.2481C34.101 19.4826 33.5754 19.8002 32.8674 20.0339C32.1438 19.6632 31.4735 19.3874 30.9327 19.2187C31.592 18.6421 32.4259 18.274 33.3144 18.1694L33.3819 17.86C33.8471 17.9548 34.3486 18.057 34.8743 18.2677C36.1866 18.5861 37.461 19.5243 38.3518 21.2698C38.7146 19.2672 40.1843 18.0291 43.2527 15.703ZM42.1653 22.352C42.2537 22.5165 42.3977 22.7141 42.5812 22.9288C42.7149 22.898 42.8456 22.8709 42.9735 22.848C42.6174 22.6753 42.3382 22.5006 42.1653 22.352Z" fill="url(#paint4_linear_10706_36139)"/>
<path d="M17.0326 55.9711C11.6745 57.4383 11.5814 62.8494 9.23096 66.6096L62.0194 61.5409C58.1657 58.2394 49.5551 54.4122 43.9154 53.8618C38.2758 53.3115 35.1739 57.4386 30.2862 58.264C25.3985 59.0894 22.3907 54.5039 17.0326 55.9711Z" fill="url(#paint5_linear_10706_36139)"/>
<path d="M17.0326 55.9711C11.6745 57.4383 11.5814 62.8494 9.23096 66.6096L62.0194 61.5409C58.1657 58.2394 49.5551 54.4122 43.9154 53.8618C38.2758 53.3115 35.1739 57.4386 30.2862 58.264C25.3985 59.0894 22.3907 54.5039 17.0326 55.9711Z" fill="url(#paint6_radial_10706_36139)"/>
<path d="M232.855 63.3281C228.828 58.729 117.855 60.5413 73.241 60.5413C55.9962 60.5413 43.3843 62.9506 43.3843 69.96C43.3843 76.9693 191.52 99.5318 216.347 94.2737C239.903 89.2849 234.446 76.5762 216.347 71.9848C201.87 68.3121 236.882 67.9273 232.855 63.3281Z" fill="url(#paint7_radial_10706_36139)"/>
<path d="M232.855 63.3281C228.828 58.729 117.855 60.5413 73.241 60.5413C55.9962 60.5413 43.3843 62.9506 43.3843 69.96C43.3843 76.9693 191.52 99.5318 216.347 94.2737C239.903 89.2849 234.446 76.5762 216.347 71.9848C201.87 68.3121 236.882 67.9273 232.855 63.3281Z" fill="url(#paint8_radial_10706_36139)"/>
<path d="M232.855 63.3281C228.828 58.729 117.855 60.5413 73.241 60.5413C55.9962 60.5413 43.3843 62.9506 43.3843 69.96C43.3843 76.9693 191.52 99.5318 216.347 94.2737C239.903 89.2849 234.446 76.5762 216.347 71.9848C201.87 68.3121 236.882 67.9273 232.855 63.3281Z" fill="url(#paint9_radial_10706_36139)"/>
<path d="M232.855 63.3281C228.828 58.729 117.855 60.5413 73.241 60.5413C55.9962 60.5413 43.3843 62.9506 43.3843 69.96C43.3843 76.9693 191.52 99.5318 216.347 94.2737C239.903 89.2849 234.446 76.5762 216.347 71.9848C201.87 68.3121 236.882 67.9273 232.855 63.3281Z" fill="url(#paint10_radial_10706_36139)"/>
<path d="M232.855 63.3281C228.828 58.729 117.855 60.5413 73.241 60.5413C55.9962 60.5413 43.3843 62.9506 43.3843 69.96C43.3843 76.9693 191.52 99.5318 216.347 94.2737C239.903 89.2849 234.446 76.5762 216.347 71.9848C201.87 68.3121 236.882 67.9273 232.855 63.3281Z" fill="url(#paint11_radial_10706_36139)"/>
<path d="M6.94486 66.5473C7.49284 59.6254 78.8899 57.7058 79.8657 61.0282C67.3942 61.0282 43.8827 62.7448 49.6087 69.6112C56.7662 78.1942 211.303 78.4712 219.437 95.9143C222.756 103.032 205.772 116.68 123.461 116.68C41.1499 116.68 0.157254 95.9143 31.7153 85.9468C63.2734 75.9793 6.39687 73.4692 6.94486 66.5473Z" fill="url(#paint12_radial_10706_36139)"/>
<path d="M6.94486 66.5473C7.49284 59.6254 78.8899 57.7058 79.8657 61.0282C67.3942 61.0282 43.8827 62.7448 49.6087 69.6112C56.7662 78.1942 211.303 78.4712 219.437 95.9143C222.756 103.032 205.772 116.68 123.461 116.68C41.1499 116.68 0.157254 95.9143 31.7153 85.9468C63.2734 75.9793 6.39687 73.4692 6.94486 66.5473Z" fill="url(#paint13_radial_10706_36139)"/>
<path d="M109.129 116.421C95.1815 115.918 82.6442 114.682 71.6963 112.951L107.74 105.865H113.654L109.129 116.421Z" fill="url(#paint14_radial_10706_36139)"/>
<path fill-rule="evenodd" clip-rule="evenodd" d="M113.517 106.154V22.1946H106.596V106.154H113.517Z" fill="url(#paint15_linear_10706_36139)"/>
<path fill-rule="evenodd" clip-rule="evenodd" d="M113.517 106.154V22.1946H106.596V106.154H113.517Z" fill="url(#paint16_radial_10706_36139)"/>
<path d="M65.0577 29.307L98.8874 15.0668C105.405 12.3235 112.748 12.2966 119.285 14.9922L153.906 29.2682C155.067 29.747 155.916 30.7703 156.171 32.0002L159.574 48.3892H156.664C154.712 48.3892 152.836 47.6361 151.426 46.2868L147.575 42.6018C144.645 39.7986 140.028 39.7986 137.098 42.6018L136.288 43.377C133.359 46.1802 128.742 46.1802 125.812 43.377L125.002 42.6018C122.072 39.7986 117.455 39.7986 114.526 42.6018L113.715 43.3771C110.786 46.1802 106.169 46.1802 103.239 43.3771L102.429 42.6018C99.4993 39.7986 94.8821 39.7986 91.9526 42.6018L91.1424 43.3771C88.2128 46.1802 83.5956 46.1802 80.6661 43.3771L79.8559 42.6018C76.9263 39.7986 72.3092 39.7986 69.3796 42.6018L65.5284 46.2868C64.1183 47.6361 62.2419 48.3892 60.2903 48.3892H58.5669L62.8606 31.8469C63.1572 30.7042 63.9695 29.7651 65.0577 29.307Z" fill="url(#paint17_linear_10706_36139)"/>
<path d="M108.899 13.0023C110.425 13.0343 111.951 13.1936 113.456 13.4891C120.869 16.5542 130.359 21.8494 136.104 25.1898C139.415 27.1144 141.793 30.281 142.82 33.9698L144.7 40.7171C142.267 40.1253 139.597 40.752 137.664 42.6012L136.853 43.3764C133.923 46.1795 129.308 46.1793 126.378 43.3764L125.567 42.6012C124.978 42.0384 124.321 41.5903 123.624 41.2535C123.477 39.1293 123.364 36.9351 123.277 35.0245C123.114 31.4285 121.745 27.9866 119.351 25.298C116.126 21.6749 111.55 16.4895 108.759 13.1646C105.969 16.4896 101.397 21.6755 98.1718 25.298C95.7781 27.9867 94.409 31.4283 94.246 35.0245C94.1594 36.935 94.046 39.1294 93.899 41.2535C93.2023 41.5902 92.5444 42.0386 91.9564 42.6012L91.1451 43.3764C88.2157 46.1794 83.5999 46.1791 80.6703 43.3764L79.859 42.6012C77.9256 40.7512 75.2565 40.1209 72.8232 40.7126L74.7027 33.9698C75.73 30.2808 78.1078 27.1144 81.4185 25.1898C87.1651 21.8491 96.6534 16.5494 104.067 13.4846C105.569 13.1896 107.091 13.0302 108.615 12.9978L108.611 12.9933C108.638 12.9935 108.665 12.9929 108.692 12.9933C108.765 12.9919 108.839 12.9895 108.912 12.9888C108.909 12.9933 108.903 12.9977 108.899 13.0023Z" fill="url(#paint18_linear_10706_36139)"/>
<path d="M108.899 13.0023C110.425 13.0343 111.951 13.1936 113.456 13.4891C120.869 16.5542 130.359 21.8494 136.104 25.1898C139.415 27.1144 141.793 30.281 142.82 33.9698L144.7 40.7171C142.267 40.1253 139.597 40.752 137.664 42.6012L136.853 43.3764C133.923 46.1795 129.308 46.1793 126.378 43.3764L125.567 42.6012C124.978 42.0384 124.321 41.5903 123.624 41.2535C123.477 39.1293 123.364 36.9351 123.277 35.0245C123.114 31.4285 121.745 27.9866 119.351 25.298C116.126 21.6749 111.55 16.4895 108.759 13.1646C105.969 16.4896 101.397 21.6755 98.1718 25.298C95.7781 27.9867 94.409 31.4283 94.246 35.0245C94.1594 36.935 94.046 39.1294 93.899 41.2535C93.2023 41.5902 92.5444 42.0386 91.9564 42.6012L91.1451 43.3764C88.2157 46.1794 83.5999 46.1791 80.6703 43.3764L79.859 42.6012C77.9256 40.7512 75.2565 40.1209 72.8232 40.7126L74.7027 33.9698C75.73 30.2808 78.1078 27.1144 81.4185 25.1898C87.1651 21.8491 96.6534 16.5494 104.067 13.4846C105.569 13.1896 107.091 13.0302 108.615 12.9978L108.611 12.9933C108.638 12.9935 108.665 12.9929 108.692 12.9933C108.765 12.9919 108.839 12.9895 108.912 12.9888C108.909 12.9933 108.903 12.9977 108.899 13.0023Z" fill="url(#paint19_linear_10706_36139)"/>
<path fill-rule="evenodd" clip-rule="evenodd" d="M99.8097 45.3389C98.345 43.9374 96.0364 43.9374 94.5716 45.3389L93.7614 46.1141C89.3671 50.3186 82.4413 50.3186 78.047 46.1141L77.2368 45.3389C75.772 43.9374 73.4634 43.9374 71.9987 45.3389L68.1475 49.0237C66.0323 51.0475 63.2178 52.1771 60.2903 52.1771H58.5669L58.8084 47.0312H60.5318C61.5076 47.0312 62.4458 46.6547 63.1508 45.9801L67.002 42.2952C71.3963 38.0907 78.3221 38.0907 82.7164 42.2952L83.5266 43.0705C84.9914 44.472 87.3 44.472 88.7648 43.0705L89.575 42.2952C93.9693 38.0907 100.895 38.0907 105.289 42.2952L106.1 43.0705C107.564 44.472 109.873 44.472 111.338 43.0705L112.148 42.2952C116.542 38.0907 123.468 38.0907 127.862 42.2952L128.673 43.0705C130.137 44.472 132.446 44.472 133.911 43.0705L134.721 42.2952C139.115 38.0907 146.041 38.0907 150.435 42.2952L154.286 45.9801C154.991 46.6547 155.93 47.0312 156.905 47.0312H159.816L159.574 52.1771H156.664C153.736 52.1771 150.922 51.0475 148.807 49.0237L144.956 45.3389C143.491 43.9374 141.182 43.9374 139.717 45.3389L138.907 46.1141C134.513 50.3186 127.587 50.3186 123.193 46.1141L122.383 45.3389C120.918 43.9374 118.609 43.9374 117.145 45.3389L116.334 46.1141C111.94 50.3186 105.014 50.3186 100.62 46.1141L99.8097 45.3389Z" fill="url(#paint20_linear_10706_36139)"/>
<path d="M113.455 9.00081C113.455 11.4228 111.492 13.3861 109.07 13.3861C106.648 13.3861 104.685 11.4228 104.685 9.00081C104.685 6.57886 106.648 4.61548 109.07 4.61548C111.492 4.61548 113.455 6.57886 113.455 9.00081Z" fill="url(#paint21_linear_10706_36139)"/>
<path d="M113.455 9.00081C113.455 11.4228 111.492 13.3861 109.07 13.3861C106.648 13.3861 104.685 11.4228 104.685 9.00081C104.685 6.57886 106.648 4.61548 109.07 4.61548C111.492 4.61548 113.455 6.57886 113.455 9.00081Z" fill="url(#paint22_radial_10706_36139)"/>
<defs>
<linearGradient id="paint0_linear_10706_36139" x1="102.885" y1="-13.3733" x2="163.27" y2="159.231" gradientUnits="userSpaceOnUse">
<stop offset="0.230769" stop-color="#70C5ED"/>
<stop offset="0.38823" stop-color="#A2D2E9" stop-opacity="0.891269"/>
<stop offset="0.543269" stop-color="#CCD1D4" stop-opacity="0.784211"/>
<stop offset="0.6875" stop-color="#FFC0A5" stop-opacity="0.5"/>
<stop offset="0.912767" stop-color="#FEF1D5" stop-opacity="0"/>
</linearGradient>
<radialGradient id="paint1_radial_10706_36139" cx="0" cy="0" r="1" gradientTransform="matrix(47.0192 -27.1154 20.0951 39.4886 195.29 56.25)" gradientUnits="userSpaceOnUse">
<stop offset="0.0428571" stop-color="#FEF1D5"/>
<stop offset="1" stop-color="#FEF1D5" stop-opacity="0"/>
</radialGradient>
<linearGradient id="paint2_linear_10706_36139" x1="198.676" y1="39.4223" x2="198.676" y2="69.6926" gradientUnits="userSpaceOnUse">
<stop offset="0.07" stop-color="#FFB180"/>
<stop offset="0.52" stop-color="#FFE06B"/>
<stop offset="1" stop-color="#FFF2BE"/>
</linearGradient>
<linearGradient id="paint3_linear_10706_36139" x1="22.2689" y1="27.5133" x2="36.5132" y2="38.8713" gradientUnits="userSpaceOnUse">
<stop stop-color="#9B8A98"/>
<stop offset="1" stop-color="#41187A"/>
</linearGradient>
<linearGradient id="paint4_linear_10706_36139" x1="41.3674" y1="15.4578" x2="55.4585" y2="37.5202" gradientUnits="userSpaceOnUse">
<stop stop-color="#9B8A98"/>
<stop offset="1" stop-color="#41187A"/>
</linearGradient>
<linearGradient id="paint5_linear_10706_36139" x1="31.3175" y1="57.2188" x2="34.5948" y2="69.3187" gradientUnits="userSpaceOnUse">
<stop stop-color="#32906D"/>
<stop offset="0.495192" stop-color="#2A7275"/>
<stop offset="1" stop-color="#0E3554"/>
</linearGradient>
<radialGradient id="paint6_radial_10706_36139" cx="0" cy="0" r="1" gradientTransform="matrix(-25.7632 -3.25742 4.63527 -9.93398 41.3378 52.391)" gradientUnits="userSpaceOnUse">
<stop stop-color="#81C36E"/>
<stop offset="1" stop-color="#81C36E" stop-opacity="0"/>
</radialGradient>
<radialGradient id="paint7_radial_10706_36139" cx="0" cy="0" r="1" gradientTransform="matrix(90.8654 3.10026 -1.44179 30.6049 156.058 60.1892)" gradientUnits="userSpaceOnUse">
<stop stop-color="#96E8A3"/>
<stop offset="0.205522" stop-color="#61E5C5"/>
<stop offset="0.526823" stop-color="#29BFE0"/>
<stop offset="0.977268" stop-color="#0067BF"/>
</radialGradient>
<radialGradient id="paint8_radial_10706_36139" cx="0" cy="0" r="1" gradientTransform="matrix(-17.5962 41.4375 -38.5831 -16.2952 195 57.6933)" gradientUnits="userSpaceOnUse">
<stop stop-color="#FEDBAF"/>
<stop offset="1" stop-color="#FF807A" stop-opacity="0"/>
</radialGradient>
<radialGradient id="paint9_radial_10706_36139" cx="0" cy="0" r="1" gradientTransform="matrix(121.241 9.90525 -1.75476 15.5558 118.909 87.9084)" gradientUnits="userSpaceOnUse">
<stop offset="0.698015" stop-color="#FFEDE5"/>
<stop offset="1" stop-color="#FFEDE5" stop-opacity="0"/>
</radialGradient>
<radialGradient id="paint10_radial_10706_36139" cx="0" cy="0" r="1" gradientTransform="matrix(-71.4514 22.7666 -5.87794 -13.3606 55.8634 60.1892)" gradientUnits="userSpaceOnUse">
<stop offset="0.322916" stop-color="#FFEDE5"/>
<stop offset="1" stop-color="#FFEDE5" stop-opacity="0"/>
</radialGradient>
<radialGradient id="paint11_radial_10706_36139" cx="0" cy="0" r="1" gradientTransform="matrix(32.0077 -0.275146 0.0697998 5.88076 81.7281 65.8967)" gradientUnits="userSpaceOnUse">
<stop offset="0.484434" stop-color="#199CD3"/>
<stop offset="1" stop-color="#23ABD6" stop-opacity="0"/>
</radialGradient>
<radialGradient id="paint12_radial_10706_36139" cx="0" cy="0" r="1" gradientTransform="matrix(-123.667 -15.3086 13.4549 -78.7202 118.484 59.4412)" gradientUnits="userSpaceOnUse">
<stop offset="0.351148" stop-color="#FFAB76"/>
<stop offset="1" stop-color="#AD7179"/>
</radialGradient>
<radialGradient id="paint13_radial_10706_36139" cx="0" cy="0" r="1" gradientUnits="userSpaceOnUse" gradientTransform="translate(105.843 69.5322) rotate(5.89996) scale(92.4241 27.4001)">
<stop offset="0.556979" stop-color="#FFD3B4"/>
<stop offset="1" stop-color="#FFD1B4" stop-opacity="0"/>
</radialGradient>
<radialGradient id="paint14_radial_10706_36139" cx="0" cy="0" r="1" gradientUnits="userSpaceOnUse" gradientTransform="translate(111.923 100.917) rotate(148.739) scale(35.9391 13.7216)">
<stop stop-color="#5A4235"/>
<stop offset="1" stop-color="#5A4235" stop-opacity="0"/>
</radialGradient>
<linearGradient id="paint15_linear_10706_36139" x1="106.651" y1="106.154" x2="116.824" y2="35.7321" gradientUnits="userSpaceOnUse">
<stop stop-color="#A594AD"/>
<stop offset="1" stop-color="#C6A8A5"/>
</linearGradient>
<radialGradient id="paint16_radial_10706_36139" cx="0" cy="0" r="1" gradientTransform="matrix(-1.59368 -57.2443 -4.59373 0.106164 111.65 69.3742)" gradientUnits="userSpaceOnUse">
<stop stop-color="#FFF7E4"/>
<stop offset="1" stop-color="#FFF7E4" stop-opacity="0"/>
</radialGradient>
<linearGradient id="paint17_linear_10706_36139" x1="134.217" y1="-8.80476" x2="134.217" y2="48.388" gradientUnits="userSpaceOnUse">
<stop offset="0.598958" stop-color="#FFA929"/>
<stop offset="0.776313" stop-color="#E56F00"/>
</linearGradient>
<linearGradient id="paint18_linear_10706_36139" x1="126.656" y1="-7.01436" x2="126.656" y2="45.4775" gradientUnits="userSpaceOnUse">
<stop offset="0.598958" stop-color="#5DE4C4"/>
<stop offset="0.776313" stop-color="#00B086"/>
</linearGradient>
<linearGradient id="paint19_linear_10706_36139" x1="108.761" y1="12.9888" x2="108.761" y2="49.7729" gradientUnits="userSpaceOnUse">
<stop offset="0.384476" stop-color="white"/>
<stop offset="0.574459" stop-color="#D6C0BC"/>
</linearGradient>
<linearGradient id="paint20_linear_10706_36139" x1="125.763" y1="36.6685" x2="45.8658" y2="56.7218" gradientUnits="userSpaceOnUse">
<stop stop-color="white"/>
<stop offset="1" stop-color="#D6C0BC"/>
</linearGradient>
<linearGradient id="paint21_linear_10706_36139" x1="112.182" y1="13.3861" x2="106.042" y2="3.68909" gradientUnits="userSpaceOnUse">
<stop stop-color="#BBA5C6"/>
<stop offset="1" stop-color="#C6A8A5"/>
</linearGradient>
<radialGradient id="paint22_radial_10706_36139" cx="0" cy="0" r="1" gradientUnits="userSpaceOnUse" gradientTransform="translate(110.761 7.29978) rotate(-157.588) scale(7.04043)">
<stop stop-color="white"/>
<stop offset="0.650947" stop-color="white" stop-opacity="0.668579"/>
<stop offset="1" stop-color="white" stop-opacity="0"/>
</radialGradient>
</defs>
</svg>
