<svg viewBox="0 0 240 120" fill="none" xmlns="http://www.w3.org/2000/svg">
<path d="M139.788 66.3388C140.891 68.8495 138.364 74.3189 135.835 75.2132C129.468 75.0611 115.465 75.7448 114.779 74.7301C114.093 73.7153 113.138 69.0034 115.423 67.054C116.705 64.4718 118.223 59.0906 117.373 56.0286C116.926 54.416 121.098 50.821 123.91 51.4899C126.609 52.3599 138.996 64.5352 139.788 66.3388Z" fill="url(#paint0_linear_14_726)"/>
<path d="M139.788 66.3388C140.891 68.8495 138.364 74.3189 135.835 75.2132C129.468 75.0611 115.465 75.7448 114.779 74.7301C114.093 73.7153 113.138 69.0034 115.423 67.054C116.705 64.4718 118.223 59.0906 117.373 56.0286C116.926 54.416 121.098 50.821 123.91 51.4899C126.609 52.3599 138.996 64.5352 139.788 66.3388Z" fill="url(#paint1_radial_14_726)"/>
<path d="M139.788 66.3388C140.891 68.8495 138.364 74.3189 135.835 75.2132C129.468 75.0611 115.465 75.7448 114.779 74.7301C114.093 73.7153 113.138 69.0034 115.423 67.054C116.705 64.4718 118.223 59.0906 117.373 56.0286C116.926 54.416 121.098 50.821 123.91 51.4899C126.609 52.3599 138.996 64.5352 139.788 66.3388Z" fill="url(#paint2_radial_14_726)"/>
<path d="M117.425 56.0444L135.706 67.9288L135.106 69.7921L115.116 67.2971C112.46 63.5429 112.773 58.1073 117.425 56.0444Z" fill="url(#paint3_linear_14_726)"/>
<path d="M117.425 56.0444L135.706 67.9288L135.106 69.7921L115.116 67.2971C112.46 63.5429 112.773 58.1073 117.425 56.0444Z" fill="url(#paint4_radial_14_726)"/>
<path d="M117.425 56.0444L135.706 67.9288L135.106 69.7921L115.116 67.2971C112.46 63.5429 112.773 58.1073 117.425 56.0444Z" fill="url(#paint5_radial_14_726)"/>
<path d="M142.566 50.7631L202.996 70.2208C205.563 82.1241 200.622 97.949 191.444 106.096L131.015 86.6386C127.732 72.7399 132.509 59.5639 142.566 50.7631Z" fill="url(#paint6_linear_14_726)"/>
<path fill-rule="evenodd" clip-rule="evenodd" d="M202.713 70.2631C200.287 71.9791 194.719 77.6413 191.846 86.5617C189.023 95.329 190.152 103.06 191.111 105.99L191.332 106.061L191.638 105.922C200.482 97.914 205.318 82.7601 203.16 71.0458L202.713 70.2631Z" fill="url(#paint7_radial_14_726)"/>
<path d="M171.124 76.5557L181.126 85.3758L168.772 86.7687L168.19 95.6383L160.616 87.5868L153.059 91.5316L152.375 84.9331L140.604 84.0996L151.466 77.3694L144.081 65.823L155.731 71.5995L160.852 61.5126L163.716 72.1452L174.866 67.8432L171.124 76.5557Z" fill="url(#paint8_radial_14_726)"/>
<path d="M172.361 75.6261L182.363 84.4461L170.009 85.839L169.427 94.7086L161.853 86.6571L154.296 90.6019L153.612 84.0034L141.841 83.1699L152.703 76.4397L145.318 64.8933L156.969 70.6698L162.089 60.5829L164.953 71.2155L176.103 66.9135L172.361 75.6261Z" fill="url(#paint9_linear_14_726)"/>
<path d="M172.361 75.6261L182.363 84.4461L170.009 85.839L169.427 94.7086L161.853 86.6571L154.296 90.6019L153.612 84.0034L141.841 83.1699L152.703 76.4397L145.318 64.8933L156.969 70.6698L162.089 60.5829L164.953 71.2155L176.103 66.9135L172.361 75.6261Z" fill="url(#paint10_radial_14_726)"/>
<path d="M195.551 94.8448C194.757 93.1981 195.128 91.6315 195.359 91.037L210.237 100.543C211.968 98.9602 216.312 95.6448 216.888 97.9703C217.607 100.877 211.806 106.867 214.025 110.257C210.918 110.728 196.543 96.9033 195.551 94.8448Z" fill="url(#paint11_linear_14_726)"/>
<path d="M195.551 94.8448C194.757 93.1981 195.128 91.6315 195.359 91.037L210.237 100.543C211.968 98.9602 216.312 95.6448 216.888 97.9703C217.607 100.877 211.806 106.867 214.025 110.257C210.918 110.728 196.543 96.9033 195.551 94.8448Z" fill="url(#paint12_radial_14_726)"/>
<path d="M199.326 83.4842C197.72 84.3584 195.965 89.0736 195.805 89.6911L213.787 86.6691C214.269 88.9647 216.303 94.9465 218.984 91.8207C222.581 87.628 217.013 81.421 220.793 79.9627C218.544 77.7673 201.333 82.3915 199.326 83.4842Z" fill="url(#paint13_linear_14_726)"/>
<path d="M199.326 83.4842C197.72 84.3584 195.965 89.0736 195.805 89.6911L213.787 86.6691C214.269 88.9647 216.303 94.9465 218.984 91.8207C222.581 87.628 217.013 81.421 220.793 79.9627C218.544 77.7673 201.333 82.3915 199.326 83.4842Z" fill="url(#paint14_radial_14_726)"/>
<path d="M213.247 86.2268C211.993 85.7159 200.821 88.3797 195.785 89.7011L195.356 91.0349C199.688 94.3471 208.673 100.653 209.85 100.818C211.32 101.024 214.815 86.8653 213.247 86.2268Z" fill="url(#paint15_linear_14_726)"/>
<path d="M215.891 98.8529C215.611 95.6859 212.151 100.19 210.154 100.885C207.855 101.684 210.107 88.3031 212.422 86.4984C215.579 84.037 215.459 95.4499 219.198 90.4193C222.327 86.2097 216.377 85.2303 217.781 80.8678C218.501 78.633 222.067 79.305 224.208 82.9371C226.348 86.5692 218.457 92.7222 220.925 100.474C222.257 104.655 215.845 112.215 212.954 109.812C210.062 107.41 216.172 102.02 215.891 98.8529Z" fill="url(#paint16_radial_14_726)"/>
<path fill-rule="evenodd" clip-rule="evenodd" d="M210.451 90.6504C211.018 88.6767 211.718 87.0491 212.424 86.4987C213.87 85.3708 214.629 87.1558 215.386 88.9372C215.93 90.2169 216.473 91.4946 217.269 91.6896C215.365 91.4551 212.369 91.0395 210.451 90.6504Z" fill="url(#paint17_linear_14_726)"/>
<path fill-rule="evenodd" clip-rule="evenodd" d="M215.346 97.7672C214.712 97.5554 213.626 98.4216 212.516 99.3064C211.682 99.9717 210.835 100.647 210.156 100.883C209.254 101.197 209.053 99.3246 209.282 96.8248L215.363 97.7446L215.346 97.7672Z" fill="url(#paint18_linear_14_726)"/>
<path fill-rule="evenodd" clip-rule="evenodd" d="M24.6737 100.531L21.1756 95.0726C28.7173 90.3064 36.877 86.6165 44.4083 81.8568C50.8078 77.8125 54.3469 70.602 60.7726 66.5412C66.0464 63.2082 72.2419 61.8946 77.479 58.5849C81.7552 55.8824 86.9522 51.0217 88.6279 46.1271L94.7832 48.2248C92.6308 54.5119 86.5036 60.5504 80.9771 64.0431C75.722 67.3642 69.5363 68.6716 64.2707 71.9994C61.392 73.8186 59.1483 76.4678 56.9179 78.9892C54.4666 81.7605 51.641 84.9548 47.9064 87.315C40.3736 92.0756 32.2155 95.7646 24.6737 100.531Z" fill="url(#paint19_linear_14_726)"/>
<path fill-rule="evenodd" clip-rule="evenodd" d="M24.6737 100.531L21.1756 95.0726C28.7173 90.3064 36.877 86.6165 44.4083 81.8568C50.8078 77.8125 54.3469 70.602 60.7726 66.5412C66.0464 63.2082 72.2419 61.8946 77.479 58.5849C81.7552 55.8824 86.9522 51.0217 88.6279 46.1271L94.7832 48.2248C92.6308 54.5119 86.5036 60.5504 80.9771 64.0431C75.722 67.3642 69.5363 68.6716 64.2707 71.9994C61.392 73.8186 59.1483 76.4678 56.9179 78.9892C54.4666 81.7605 51.641 84.9548 47.9064 87.315C40.3736 92.0756 32.2155 95.7646 24.6737 100.531Z" fill="url(#paint20_linear_14_726)"/>
<path fill-rule="evenodd" clip-rule="evenodd" d="M24.6737 100.531L21.1756 95.0726C28.7173 90.3064 36.877 86.6165 44.4083 81.8568C50.8078 77.8125 54.3469 70.602 60.7726 66.5412C66.0464 63.2082 72.2419 61.8946 77.479 58.5849C81.7552 55.8824 86.9522 51.0217 88.6279 46.1271L94.7832 48.2248C92.6308 54.5119 86.5036 60.5504 80.9771 64.0431C75.722 67.3642 69.5363 68.6716 64.2707 71.9994C61.392 73.8186 59.1483 76.4678 56.9179 78.9892C54.4666 81.7605 51.641 84.9548 47.9064 87.315C40.3736 92.0756 32.2155 95.7646 24.6737 100.531Z" fill="url(#paint21_linear_14_726)"/>
<path fill-rule="evenodd" clip-rule="evenodd" d="M24.6737 100.531L21.1756 95.0726C28.7173 90.3064 36.877 86.6165 44.4083 81.8568C50.8078 77.8125 54.3469 70.602 60.7726 66.5412C66.0464 63.2082 72.2419 61.8946 77.479 58.5849C81.7552 55.8824 86.9522 51.0217 88.6279 46.1271L94.7832 48.2248C92.6308 54.5119 86.5036 60.5504 80.9771 64.0431C75.722 67.3642 69.5363 68.6716 64.2707 71.9994C61.392 73.8186 59.1483 76.4678 56.9179 78.9892C54.4666 81.7605 51.641 84.9548 47.9064 87.315C40.3736 92.0756 32.2155 95.7646 24.6737 100.531Z" fill="url(#paint22_linear_14_726)"/>
<path fill-rule="evenodd" clip-rule="evenodd" d="M24.6737 100.531L21.1756 95.0726C28.7173 90.3064 36.877 86.6165 44.4083 81.8568C50.8078 77.8125 54.3469 70.602 60.7726 66.5412C66.0464 63.2082 72.2419 61.8946 77.479 58.5849C81.7552 55.8824 86.9522 51.0217 88.6279 46.1271L94.7832 48.2248C92.6308 54.5119 86.5036 60.5504 80.9771 64.0431C75.722 67.3642 69.5363 68.6716 64.2707 71.9994C61.392 73.8186 59.1483 76.4678 56.9179 78.9892C54.4666 81.7605 51.641 84.9548 47.9064 87.315C40.3736 92.0756 32.2155 95.7646 24.6737 100.531Z" fill="url(#paint23_radial_14_726)"/>
<path fill-rule="evenodd" clip-rule="evenodd" d="M24.6737 100.531L21.1756 95.0726C28.7173 90.3064 36.877 86.6165 44.4083 81.8568C50.8078 77.8125 54.3469 70.602 60.7726 66.5412C66.0464 63.2082 72.2419 61.8946 77.479 58.5849C81.7552 55.8824 86.9522 51.0217 88.6279 46.1271L94.7832 48.2248C92.6308 54.5119 86.5036 60.5504 80.9771 64.0431C75.722 67.3642 69.5363 68.6716 64.2707 71.9994C61.392 73.8186 59.1483 76.4678 56.9179 78.9892C54.4666 81.7605 51.641 84.9548 47.9064 87.315C40.3736 92.0756 32.2155 95.7646 24.6737 100.531Z" fill="url(#paint24_radial_14_726)"/>
<path fill-rule="evenodd" clip-rule="evenodd" d="M49.038 95.2046C45.2286 97.5646 42.1258 99.4869 38.4375 106.835L34.5205 104.931C38.7832 96.4392 43.067 93.7858 47.1327 91.2674C54.2606 86.8521 57.8581 79.4469 64.2779 74.3999C69.7265 70.1163 76.7117 68.5027 82.117 64.2533C86.742 60.6172 89.633 54.8784 93.021 50.1812L96.5875 52.6625C92.9415 57.7174 89.8327 63.684 84.8557 67.5967C79.4328 71.8601 72.4559 73.4671 67.0166 77.7434C64.6396 79.6121 62.7767 81.9833 60.9374 84.3589C57.5235 88.7683 53.7657 92.2757 49.038 95.2046Z" fill="url(#paint25_linear_14_726)"/>
<path fill-rule="evenodd" clip-rule="evenodd" d="M49.038 95.2046C45.2286 97.5646 42.1258 99.4869 38.4375 106.835L34.5205 104.931C38.7832 96.4392 43.067 93.7858 47.1327 91.2674C54.2606 86.8521 57.8581 79.4469 64.2779 74.3999C69.7265 70.1163 76.7117 68.5027 82.117 64.2533C86.742 60.6172 89.633 54.8784 93.021 50.1812L96.5875 52.6625C92.9415 57.7174 89.8327 63.684 84.8557 67.5967C79.4328 71.8601 72.4559 73.4671 67.0166 77.7434C64.6396 79.6121 62.7767 81.9833 60.9374 84.3589C57.5235 88.7683 53.7657 92.2757 49.038 95.2046Z" fill="url(#paint26_linear_14_726)"/>
<path fill-rule="evenodd" clip-rule="evenodd" d="M49.038 95.2046C45.2286 97.5646 42.1258 99.4869 38.4375 106.835L34.5205 104.931C38.7832 96.4392 43.067 93.7858 47.1327 91.2674C54.2606 86.8521 57.8581 79.4469 64.2779 74.3999C69.7265 70.1163 76.7117 68.5027 82.117 64.2533C86.742 60.6172 89.633 54.8784 93.021 50.1812L96.5875 52.6625C92.9415 57.7174 89.8327 63.684 84.8557 67.5967C79.4328 71.8601 72.4559 73.4671 67.0166 77.7434C64.6396 79.6121 62.7767 81.9833 60.9374 84.3589C57.5235 88.7683 53.7657 92.2757 49.038 95.2046Z" fill="url(#paint27_linear_14_726)"/>
<path fill-rule="evenodd" clip-rule="evenodd" d="M49.038 95.2046C45.2286 97.5646 42.1258 99.4869 38.4375 106.835L34.5205 104.931C38.7832 96.4392 43.067 93.7858 47.1327 91.2674C54.2606 86.8521 57.8581 79.4469 64.2779 74.3999C69.7265 70.1163 76.7117 68.5027 82.117 64.2533C86.742 60.6172 89.633 54.8784 93.021 50.1812L96.5875 52.6625C92.9415 57.7174 89.8327 63.684 84.8557 67.5967C79.4328 71.8601 72.4559 73.4671 67.0166 77.7434C64.6396 79.6121 62.7767 81.9833 60.9374 84.3589C57.5235 88.7683 53.7657 92.2757 49.038 95.2046Z" fill="url(#paint28_linear_14_726)"/>
<path fill-rule="evenodd" clip-rule="evenodd" d="M49.038 95.2046C45.2286 97.5646 42.1258 99.4869 38.4375 106.835L34.5205 104.931C38.7832 96.4392 43.067 93.7858 47.1327 91.2674C54.2606 86.8521 57.8581 79.4469 64.2779 74.3999C69.7265 70.1163 76.7117 68.5027 82.117 64.2533C86.742 60.6172 89.633 54.8784 93.021 50.1812L96.5875 52.6625C92.9415 57.7174 89.8327 63.684 84.8557 67.5967C79.4328 71.8601 72.4559 73.4671 67.0166 77.7434C64.6396 79.6121 62.7767 81.9833 60.9374 84.3589C57.5235 88.7683 53.7657 92.2757 49.038 95.2046Z" fill="url(#paint29_radial_14_726)"/>
<path fill-rule="evenodd" clip-rule="evenodd" d="M49.038 95.2046C45.2286 97.5646 42.1258 99.4869 38.4375 106.835L34.5205 104.931C38.7832 96.4392 43.067 93.7858 47.1327 91.2674C54.2606 86.8521 57.8581 79.4469 64.2779 74.3999C69.7265 70.1163 76.7117 68.5027 82.117 64.2533C86.742 60.6172 89.633 54.8784 93.021 50.1812L96.5875 52.6625C92.9415 57.7174 89.8327 63.684 84.8557 67.5967C79.4328 71.8601 72.4559 73.4671 67.0166 77.7434C64.6396 79.6121 62.7767 81.9833 60.9374 84.3589C57.5235 88.7683 53.7657 92.2757 49.038 95.2046Z" fill="url(#paint30_radial_14_726)"/>
<path fill-rule="evenodd" clip-rule="evenodd" d="M10.0045 74.55L7.83594 68.4406C15.4914 65.5424 23.5661 64.0935 31.1977 61.2043C38.2284 58.5426 44.2784 53.8977 51.3109 51.2354C58.11 48.6614 65.3929 47.8157 72.1745 45.2483C77.7281 43.1459 82.6508 39.7354 87.8866 36.9941L90.7696 42.7827C85.2932 45.6499 80.1561 49.1571 74.343 51.3578C67.5555 53.9274 60.2756 54.772 53.4795 57.3448C46.4557 60.0039 40.4025 64.65 33.3662 67.3138C25.7308 70.2044 17.6597 71.6519 10.0045 74.55Z" fill="url(#paint31_linear_14_726)"/>
<path fill-rule="evenodd" clip-rule="evenodd" d="M10.0045 74.55L7.83594 68.4406C15.4914 65.5424 23.5661 64.0935 31.1977 61.2043C38.2284 58.5426 44.2784 53.8977 51.3109 51.2354C58.11 48.6614 65.3929 47.8157 72.1745 45.2483C77.7281 43.1459 82.6508 39.7354 87.8866 36.9941L90.7696 42.7827C85.2932 45.6499 80.1561 49.1571 74.343 51.3578C67.5555 53.9274 60.2756 54.772 53.4795 57.3448C46.4557 60.0039 40.4025 64.65 33.3662 67.3138C25.7308 70.2044 17.6597 71.6519 10.0045 74.55Z" fill="url(#paint32_linear_14_726)"/>
<path fill-rule="evenodd" clip-rule="evenodd" d="M10.0045 74.55L7.83594 68.4406C15.4914 65.5424 23.5661 64.0935 31.1977 61.2043C38.2284 58.5426 44.2784 53.8977 51.3109 51.2354C58.11 48.6614 65.3929 47.8157 72.1745 45.2483C77.7281 43.1459 82.6508 39.7354 87.8866 36.9941L90.7696 42.7827C85.2932 45.6499 80.1561 49.1571 74.343 51.3578C67.5555 53.9274 60.2756 54.772 53.4795 57.3448C46.4557 60.0039 40.4025 64.65 33.3662 67.3138C25.7308 70.2044 17.6597 71.6519 10.0045 74.55Z" fill="url(#paint33_linear_14_726)"/>
<path fill-rule="evenodd" clip-rule="evenodd" d="M10.0045 74.55L7.83594 68.4406C15.4914 65.5424 23.5661 64.0935 31.1977 61.2043C38.2284 58.5426 44.2784 53.8977 51.3109 51.2354C58.11 48.6614 65.3929 47.8157 72.1745 45.2483C77.7281 43.1459 82.6508 39.7354 87.8866 36.9941L90.7696 42.7827C85.2932 45.6499 80.1561 49.1571 74.343 51.3578C67.5555 53.9274 60.2756 54.772 53.4795 57.3448C46.4557 60.0039 40.4025 64.65 33.3662 67.3138C25.7308 70.2044 17.6597 71.6519 10.0045 74.55Z" fill="url(#paint34_linear_14_726)"/>
<path fill-rule="evenodd" clip-rule="evenodd" d="M10.0045 74.55L7.83594 68.4406C15.4914 65.5424 23.5661 64.0935 31.1977 61.2043C38.2284 58.5426 44.2784 53.8977 51.3109 51.2354C58.11 48.6614 65.3929 47.8157 72.1745 45.2483C77.7281 43.1459 82.6508 39.7354 87.8866 36.9941L90.7696 42.7827C85.2932 45.6499 80.1561 49.1571 74.343 51.3578C67.5555 53.9274 60.2756 54.772 53.4795 57.3448C46.4557 60.0039 40.4025 64.65 33.3662 67.3138C25.7308 70.2044 17.6597 71.6519 10.0045 74.55Z" fill="url(#paint35_radial_14_726)"/>
<path fill-rule="evenodd" clip-rule="evenodd" d="M10.0045 74.55L7.83594 68.4406C15.4914 65.5424 23.5661 64.0935 31.1977 61.2043C38.2284 58.5426 44.2784 53.8977 51.3109 51.2354C58.11 48.6614 65.3929 47.8157 72.1745 45.2483C77.7281 43.1459 82.6508 39.7354 87.8866 36.9941L90.7696 42.7827C85.2932 45.6499 80.1561 49.1571 74.343 51.3578C67.5555 53.9274 60.2756 54.772 53.4795 57.3448C46.4557 60.0039 40.4025 64.65 33.3662 67.3138C25.7308 70.2044 17.6597 71.6519 10.0045 74.55Z" fill="url(#paint36_radial_14_726)"/>
<path fill-rule="evenodd" clip-rule="evenodd" d="M15.9219 88.3995L12.7578 82.1295C19.6756 78.5889 26.0679 74.1652 32.9755 70.6299C40.077 66.9954 47.829 64.8654 54.9257 61.2334C61.1773 58.0338 66.2604 53.0749 72.5018 49.8806C77.8325 47.1523 82.9789 44.0546 88.1235 40.9922L91.6903 47.0392C86.4138 50.1802 81.1334 53.3523 75.6659 56.1506C69.4356 59.3393 64.3473 64.3008 58.0898 67.5034C50.9908 71.1366 43.2387 73.2667 36.1396 76.9C29.2337 80.4344 22.8398 84.8589 15.9219 88.3995Z" fill="url(#paint37_linear_14_726)"/>
<path fill-rule="evenodd" clip-rule="evenodd" d="M15.9219 88.3995L12.7578 82.1295C19.6756 78.5889 26.0679 74.1652 32.9755 70.6299C40.077 66.9954 47.829 64.8654 54.9257 61.2334C61.1773 58.0338 66.2604 53.0749 72.5018 49.8806C77.8325 47.1523 82.9789 44.0546 88.1235 40.9922L91.6903 47.0392C86.4138 50.1802 81.1334 53.3523 75.6659 56.1506C69.4356 59.3393 64.3473 64.3008 58.0898 67.5034C50.9908 71.1366 43.2387 73.2667 36.1396 76.9C29.2337 80.4344 22.8398 84.8589 15.9219 88.3995Z" fill="url(#paint38_linear_14_726)"/>
<path fill-rule="evenodd" clip-rule="evenodd" d="M15.9219 88.3995L12.7578 82.1295C19.6756 78.5889 26.0679 74.1652 32.9755 70.6299C40.077 66.9954 47.829 64.8654 54.9257 61.2334C61.1773 58.0338 66.2604 53.0749 72.5018 49.8806C77.8325 47.1523 82.9789 44.0546 88.1235 40.9922L91.6903 47.0392C86.4138 50.1802 81.1334 53.3523 75.6659 56.1506C69.4356 59.3393 64.3473 64.3008 58.0898 67.5034C50.9908 71.1366 43.2387 73.2667 36.1396 76.9C29.2337 80.4344 22.8398 84.8589 15.9219 88.3995Z" fill="url(#paint39_linear_14_726)"/>
<path fill-rule="evenodd" clip-rule="evenodd" d="M15.9219 88.3995L12.7578 82.1295C19.6756 78.5889 26.0679 74.1652 32.9755 70.6299C40.077 66.9954 47.829 64.8654 54.9257 61.2334C61.1773 58.0338 66.2604 53.0749 72.5018 49.8806C77.8325 47.1523 82.9789 44.0546 88.1235 40.9922L91.6903 47.0392C86.4138 50.1802 81.1334 53.3523 75.6659 56.1506C69.4356 59.3393 64.3473 64.3008 58.0898 67.5034C50.9908 71.1366 43.2387 73.2667 36.1396 76.9C29.2337 80.4344 22.8398 84.8589 15.9219 88.3995Z" fill="url(#paint40_linear_14_726)"/>
<path fill-rule="evenodd" clip-rule="evenodd" d="M15.9219 88.3995L12.7578 82.1295C19.6756 78.5889 26.0679 74.1652 32.9755 70.6299C40.077 66.9954 47.829 64.8654 54.9257 61.2334C61.1773 58.0338 66.2604 53.0749 72.5018 49.8806C77.8325 47.1523 82.9789 44.0546 88.1235 40.9922L91.6903 47.0392C86.4138 50.1802 81.1334 53.3523 75.6659 56.1506C69.4356 59.3393 64.3473 64.3008 58.0898 67.5034C50.9908 71.1366 43.2387 73.2667 36.1396 76.9C29.2337 80.4344 22.8398 84.8589 15.9219 88.3995Z" fill="url(#paint41_radial_14_726)"/>
<path fill-rule="evenodd" clip-rule="evenodd" d="M15.9219 88.3995L12.7578 82.1295C19.6756 78.5889 26.0679 74.1652 32.9755 70.6299C40.077 66.9954 47.829 64.8654 54.9257 61.2334C61.1773 58.0338 66.2604 53.0749 72.5018 49.8806C77.8325 47.1523 82.9789 44.0546 88.1235 40.9922L91.6903 47.0392C86.4138 50.1802 81.1334 53.3523 75.6659 56.1506C69.4356 59.3393 64.3473 64.3008 58.0898 67.5034C50.9908 71.1366 43.2387 73.2667 36.1396 76.9C29.2337 80.4344 22.8398 84.8589 15.9219 88.3995Z" fill="url(#paint42_radial_14_726)"/>
<path fill-rule="evenodd" clip-rule="evenodd" d="M13.1022 51.829C21.2564 53.669 31.066 52.1487 36.0092 50.5913C42.4238 48.5704 48.4793 45.3476 55.0679 43.9049C61.1557 42.5719 67.2508 41.2731 73.3386 39.9401C77.8938 38.9427 83.5763 36.398 86.3839 34.6968L88.4859 38.414C85.3307 40.3259 79.1984 43.0781 74.1006 44.1943C68.0128 45.5273 61.9176 46.8262 55.8299 48.1592C49.3812 49.5712 43.4293 52.7662 37.1477 54.7452C29.2439 57.2354 20.6888 56.9345 12.5391 56.1624L13.1022 51.829Z" fill="url(#paint43_linear_14_726)"/>
<path fill-rule="evenodd" clip-rule="evenodd" d="M13.1022 51.829C21.2564 53.669 31.066 52.1487 36.0092 50.5913C42.4238 48.5704 48.4793 45.3476 55.0679 43.9049C61.1557 42.5719 67.2508 41.2731 73.3386 39.9401C77.8938 38.9427 83.5763 36.398 86.3839 34.6968L88.4859 38.414C85.3307 40.3259 79.1984 43.0781 74.1006 44.1943C68.0128 45.5273 61.9176 46.8262 55.8299 48.1592C49.3812 49.5712 43.4293 52.7662 37.1477 54.7452C29.2439 57.2354 20.6888 56.9345 12.5391 56.1624L13.1022 51.829Z" fill="url(#paint44_linear_14_726)"/>
<path fill-rule="evenodd" clip-rule="evenodd" d="M13.1022 51.829C21.2564 53.669 31.066 52.1487 36.0092 50.5913C42.4238 48.5704 48.4793 45.3476 55.0679 43.9049C61.1557 42.5719 67.2508 41.2731 73.3386 39.9401C77.8938 38.9427 83.5763 36.398 86.3839 34.6968L88.4859 38.414C85.3307 40.3259 79.1984 43.0781 74.1006 44.1943C68.0128 45.5273 61.9176 46.8262 55.8299 48.1592C49.3812 49.5712 43.4293 52.7662 37.1477 54.7452C29.2439 57.2354 20.6888 56.9345 12.5391 56.1624L13.1022 51.829Z" fill="url(#paint45_linear_14_726)"/>
<path fill-rule="evenodd" clip-rule="evenodd" d="M13.1022 51.829C21.2564 53.669 31.066 52.1487 36.0092 50.5913C42.4238 48.5704 48.4793 45.3476 55.0679 43.9049C61.1557 42.5719 67.2508 41.2731 73.3386 39.9401C77.8938 38.9427 83.5763 36.398 86.3839 34.6968L88.4859 38.414C85.3307 40.3259 79.1984 43.0781 74.1006 44.1943C68.0128 45.5273 61.9176 46.8262 55.8299 48.1592C49.3812 49.5712 43.4293 52.7662 37.1477 54.7452C29.2439 57.2354 20.6888 56.9345 12.5391 56.1624L13.1022 51.829Z" fill="url(#paint46_linear_14_726)"/>
<path fill-rule="evenodd" clip-rule="evenodd" d="M13.1022 51.829C21.2564 53.669 31.066 52.1487 36.0092 50.5913C42.4238 48.5704 48.4793 45.3476 55.0679 43.9049C61.1557 42.5719 67.2508 41.2731 73.3386 39.9401C77.8938 38.9427 83.5763 36.398 86.3839 34.6968L88.4859 38.414C85.3307 40.3259 79.1984 43.0781 74.1006 44.1943C68.0128 45.5273 61.9176 46.8262 55.8299 48.1592C49.3812 49.5712 43.4293 52.7662 37.1477 54.7452C29.2439 57.2354 20.6888 56.9345 12.5391 56.1624L13.1022 51.829Z" fill="url(#paint47_radial_14_726)"/>
<path fill-rule="evenodd" clip-rule="evenodd" d="M13.1022 51.829C21.2564 53.669 31.066 52.1487 36.0092 50.5913C42.4238 48.5704 48.4793 45.3476 55.0679 43.9049C61.1557 42.5719 67.2508 41.2731 73.3386 39.9401C77.8938 38.9427 83.5763 36.398 86.3839 34.6968L88.4859 38.414C85.3307 40.3259 79.1984 43.0781 74.1006 44.1943C68.0128 45.5273 61.9176 46.8262 55.8299 48.1592C49.3812 49.5712 43.4293 52.7662 37.1477 54.7452C29.2439 57.2354 20.6888 56.9345 12.5391 56.1624L13.1022 51.829Z" fill="url(#paint48_radial_14_726)"/>
<path d="M151.115 16.8162L114.685 41.0992L106.072 25.9562L145.49 6.92627C149.079 10.0186 150.454 12.0937 151.115 16.8162Z" fill="url(#paint49_linear_14_726)"/>
<path d="M151.115 16.8162L114.685 41.0992L106.072 25.9562L145.49 6.92627C149.079 10.0186 150.454 12.0937 151.115 16.8162Z" fill="url(#paint50_radial_14_726)"/>
<path d="M151.115 16.8162L114.685 41.0992L106.072 25.9562L145.49 6.92627C149.079 10.0186 150.454 12.0937 151.115 16.8162Z" fill="url(#paint51_linear_14_726)"/>
<path d="M151.115 16.8162L114.685 41.0992L106.072 25.9562L145.49 6.92627C149.079 10.0186 150.454 12.0937 151.115 16.8162Z" fill="url(#paint52_linear_14_726)"/>
<path d="M151.115 16.8162L114.685 41.0992L106.072 25.9562L145.49 6.92627C149.079 10.0186 150.454 12.0937 151.115 16.8162Z" fill="url(#paint53_radial_14_726)"/>
<path d="M115.498 41.8572L103.876 49.865L93.3633 31.3821L105.855 25.0483C106.356 24.7943 106.964 24.8753 107.369 25.2643C111.772 29.4903 114.827 34.51 116.05 40.5178C116.155 41.0338 115.932 41.5585 115.498 41.8572Z" fill="url(#paint54_linear_14_726)"/>
<path d="M115.498 41.8572L103.876 49.865L93.3633 31.3821L105.855 25.0483C106.356 24.7943 106.964 24.8753 107.369 25.2643C111.772 29.4903 114.827 34.51 116.05 40.5178C116.155 41.0338 115.932 41.5585 115.498 41.8572Z" fill="url(#paint55_radial_14_726)"/>
<path d="M115.498 41.8572L103.876 49.865L93.3633 31.3821L105.855 25.0483C106.356 24.7943 106.964 24.8753 107.369 25.2643C111.772 29.4903 114.827 34.51 116.05 40.5178C116.155 41.0338 115.932 41.5585 115.498 41.8572Z" fill="url(#paint56_linear_14_726)"/>
<path d="M115.498 41.8572L103.876 49.865L93.3633 31.3821L105.855 25.0483C106.356 24.7943 106.964 24.8753 107.369 25.2643C111.772 29.4903 114.827 34.51 116.05 40.5178C116.155 41.0338 115.932 41.5585 115.498 41.8572Z" fill="url(#paint57_linear_14_726)"/>
<path d="M115.498 41.8572L103.876 49.865L93.3633 31.3821L105.855 25.0483C106.356 24.7943 106.964 24.8753 107.369 25.2643C111.772 29.4903 114.827 34.51 116.05 40.5178C116.155 41.0338 115.932 41.5585 115.498 41.8572Z" fill="url(#paint58_radial_14_726)"/>
<path d="M108.071 47.0839L95.912 55.4258C95.912 55.4258 92.1765 52.2289 88.7829 46.2624C85.3892 40.296 84.5508 35.4513 84.5508 35.4513L97.7825 28.9946C102.993 34.0105 106.632 39.9523 108.071 47.0839Z" fill="url(#paint59_linear_14_726)"/>
<path d="M108.071 47.0839L95.912 55.4258C95.912 55.4258 92.1765 52.2289 88.7829 46.2624C85.3892 40.296 84.5508 35.4513 84.5508 35.4513L97.7825 28.9946C102.993 34.0105 106.632 39.9523 108.071 47.0839Z" fill="url(#paint60_linear_14_726)"/>
<path d="M108.071 47.0839L95.912 55.4258C95.912 55.4258 92.1765 52.2289 88.7829 46.2624C85.3892 40.296 84.5508 35.4513 84.5508 35.4513L97.7825 28.9946C102.993 34.0105 106.632 39.9523 108.071 47.0839Z" fill="url(#paint61_linear_14_726)"/>
<path d="M108.071 47.0839L95.912 55.4258C95.912 55.4258 92.1765 52.2289 88.7829 46.2624C85.3892 40.296 84.5508 35.4513 84.5508 35.4513L97.7825 28.9946C102.993 34.0105 106.632 39.9523 108.071 47.0839Z" fill="url(#paint62_linear_14_726)"/>
<path d="M100 93.624L109.523 91.9679L111.179 101.491L101.656 103.147L100 93.624Z" fill="url(#paint63_linear_14_726)"/>
<path d="M100 93.624L109.523 91.9679L111.179 101.491L101.656 103.147L100 93.624Z" fill="url(#paint64_linear_14_726)"/>
<path d="M116.779 79.9678L120.823 88.7476L112.043 92.791L107.999 84.0111L116.779 79.9678Z" fill="url(#paint65_linear_14_726)"/>
<path d="M116.779 79.9678L120.823 88.7476L112.043 92.791L107.999 84.0111L116.779 79.9678Z" fill="url(#paint66_linear_14_726)"/>
<path d="M176.322 40.7803L185.49 44.7689L181.501 53.9362L172.334 49.9476L176.322 40.7803Z" fill="url(#paint67_linear_14_726)"/>
<path d="M176.322 40.7803L185.49 44.7689L181.501 53.9362L172.334 49.9476L176.322 40.7803Z" fill="url(#paint68_linear_14_726)"/>
<path d="M44 14.5786L52.6424 11.968L55.253 20.6104L46.6106 23.221L44 14.5786Z" fill="url(#paint69_linear_14_726)"/>
<path d="M44 14.5786L52.6424 11.968L55.253 20.6104L46.6106 23.221L44 14.5786Z" fill="url(#paint70_linear_14_726)"/>
<path d="M204.207 43.9678L213.898 48.1762L209.689 57.8669L199.999 53.6584L204.207 43.9678Z" fill="url(#paint71_linear_14_726)"/>
<path d="M51.627 99.9678L59.979 103.595L56.3519 111.947L47.9998 108.32L51.627 99.9678Z" fill="url(#paint72_linear_14_726)"/>
<path d="M88 76.0479L97.3163 75.9679L97.3963 85.2842L88.08 85.3641L88 76.0479Z" fill="url(#paint73_linear_14_726)"/>
<path d="M213.883 11.9678L223.667 14.0348L221.785 22.9438L212.001 20.8768L213.883 11.9678Z" fill="url(#paint74_linear_14_726)"/>
<path d="M13.8828 23.9678L22.7918 25.85L20.9096 34.759L12.0006 32.8768L13.8828 23.9678Z" fill="url(#paint75_linear_14_726)"/>
<defs>
<linearGradient id="paint0_linear_14_726" x1="123.934" y1="56.9424" x2="135.721" y2="69.4779" gradientUnits="userSpaceOnUse">
<stop stop-color="#F4CC65"/>
<stop offset="1" stop-color="#AA702E"/>
</linearGradient>
<radialGradient id="paint1_radial_14_726" cx="0" cy="0" r="1" gradientUnits="userSpaceOnUse" gradientTransform="translate(134.633 67.7144) rotate(-72.1518) scale(13.4996 6.3341)">
<stop stop-color="#7E5312"/>
<stop offset="1" stop-color="#7E5312" stop-opacity="0"/>
</radialGradient>
<radialGradient id="paint2_radial_14_726" cx="0" cy="0" r="1" gradientUnits="userSpaceOnUse" gradientTransform="translate(113.877 61.0313) rotate(18.9504) scale(21.8631 8.57848)">
<stop offset="0.382021" stop-color="#7E5312"/>
<stop offset="1" stop-color="#7E5312" stop-opacity="0"/>
</radialGradient>
<linearGradient id="paint3_linear_14_726" x1="120.66" y1="59.7485" x2="125.827" y2="70.5421" gradientUnits="userSpaceOnUse">
<stop stop-color="#F4CC65"/>
<stop offset="1" stop-color="#AA702E"/>
</linearGradient>
<radialGradient id="paint4_radial_14_726" cx="0" cy="0" r="1" gradientUnits="userSpaceOnUse" gradientTransform="translate(133.516 67.2806) rotate(-67.5779) scale(6.81869 6.11874)">
<stop stop-color="#7E5312"/>
<stop offset="1" stop-color="#7E5312" stop-opacity="0"/>
</radialGradient>
<radialGradient id="paint5_radial_14_726" cx="0" cy="0" r="1" gradientUnits="userSpaceOnUse" gradientTransform="translate(125.624 62.5117) rotate(-157.094) scale(12.3355 6.19672)">
<stop stop-color="#FDE095"/>
<stop offset="1" stop-color="#FDE095" stop-opacity="0"/>
</radialGradient>
<linearGradient id="paint6_linear_14_726" x1="159.932" y1="95.9497" x2="171.679" y2="59.4682" gradientUnits="userSpaceOnUse">
<stop stop-color="#A66A2A"/>
<stop offset="0.234375" stop-color="#D5AE62"/>
<stop offset="0.546875" stop-color="#EAC464"/>
<stop offset="0.838542" stop-color="#D6A74D"/>
<stop offset="1" stop-color="#A66A2A"/>
</linearGradient>
<radialGradient id="paint7_radial_14_726" cx="0" cy="0" r="1" gradientUnits="userSpaceOnUse" gradientTransform="translate(200.836 89.3895) rotate(-72.1518) scale(20.1818 20.1836)">
<stop stop-color="#794F23"/>
<stop offset="1" stop-color="#654018" stop-opacity="0"/>
</radialGradient>
<radialGradient id="paint8_radial_14_726" cx="0" cy="0" r="1" gradientUnits="userSpaceOnUse" gradientTransform="translate(161.804 78.0831) rotate(-162.152) scale(20.6273 15.4814)">
<stop stop-color="#69430B"/>
<stop offset="1" stop-color="#69430B" stop-opacity="0"/>
</radialGradient>
<linearGradient id="paint9_linear_14_726" x1="134.378" y1="89.7294" x2="190.099" y2="74.6357" gradientUnits="userSpaceOnUse">
<stop stop-color="#F4E0FD"/>
<stop offset="1" stop-color="#C6A8A5"/>
</linearGradient>
<radialGradient id="paint10_radial_14_726" cx="0" cy="0" r="1" gradientUnits="userSpaceOnUse" gradientTransform="translate(168.911 76.3694) rotate(-28.5433) scale(28.9875 32.4912)">
<stop stop-color="#FFF7E4"/>
<stop offset="1" stop-color="#FFF7E4" stop-opacity="0"/>
</radialGradient>
<linearGradient id="paint11_linear_14_726" x1="214.911" y1="104.064" x2="193.284" y2="97.1006" gradientUnits="userSpaceOnUse">
<stop stop-color="#F4CC65"/>
<stop offset="1" stop-color="#AA702E"/>
</linearGradient>
<radialGradient id="paint12_radial_14_726" cx="0" cy="0" r="1" gradientUnits="userSpaceOnUse" gradientTransform="translate(210.276 96.8434) rotate(-157.2) scale(17.0552 6.49131)">
<stop stop-color="#7E5312"/>
<stop offset="1" stop-color="#7E5312" stop-opacity="0"/>
</radialGradient>
<linearGradient id="paint13_linear_14_726" x1="220.249" y1="88.3125" x2="198.592" y2="81.339" gradientUnits="userSpaceOnUse">
<stop stop-color="#F4CC65"/>
<stop offset="1" stop-color="#AA702E"/>
</linearGradient>
<radialGradient id="paint14_radial_14_726" cx="0" cy="0" r="1" gradientUnits="userSpaceOnUse" gradientTransform="translate(204.522 91.5782) rotate(-11.8027) scale(16.4723 8.25687)">
<stop offset="0.329039" stop-color="#7E5312"/>
<stop offset="1" stop-color="#7E5312" stop-opacity="0"/>
</radialGradient>
<linearGradient id="paint15_linear_14_726" x1="212.617" y1="94.2546" x2="196.038" y2="88.9161" gradientUnits="userSpaceOnUse">
<stop stop-color="#F4CC65"/>
<stop offset="1" stop-color="#AA702E"/>
</linearGradient>
<radialGradient id="paint16_radial_14_726" cx="0" cy="0" r="1" gradientUnits="userSpaceOnUse" gradientTransform="translate(215.374 94.4017) rotate(-162.152) scale(5.85159 17.6957)">
<stop stop-color="#E3A84F"/>
<stop offset="1" stop-color="#8A5C16"/>
</radialGradient>
<linearGradient id="paint17_linear_14_726" x1="213.349" y1="91.1434" x2="213.961" y2="85.0493" gradientUnits="userSpaceOnUse">
<stop stop-color="#633F09"/>
<stop offset="1" stop-color="#8A5C16"/>
</linearGradient>
<linearGradient id="paint18_linear_14_726" x1="211.191" y1="96.936" x2="210.712" y2="100.366" gradientUnits="userSpaceOnUse">
<stop stop-color="#633F09"/>
<stop offset="1" stop-color="#8A5C16"/>
</linearGradient>
<linearGradient id="paint19_linear_14_726" x1="90.3058" y1="45.9263" x2="31.2165" y2="103.19" gradientUnits="userSpaceOnUse">
<stop stop-color="#8279B6"/>
<stop offset="1" stop-color="#C6A8A5"/>
</linearGradient>
<linearGradient id="paint20_linear_14_726" x1="90.7085" y1="46.5545" x2="29.6864" y2="95.5043" gradientUnits="userSpaceOnUse">
<stop stop-color="#E0CAF6" stop-opacity="0"/>
<stop offset="0.143261" stop-color="#E0CAF6" stop-opacity="0"/>
<stop offset="0.23237" stop-color="#E0CAF6"/>
<stop offset="0.3726" stop-color="#E0CAF6" stop-opacity="0"/>
<stop offset="0.603758" stop-color="#E0CAF6" stop-opacity="0"/>
<stop offset="0.724097" stop-color="#E0CAF6"/>
<stop offset="0.873914" stop-color="#E0CAF6" stop-opacity="0"/>
</linearGradient>
<linearGradient id="paint21_linear_14_726" x1="80.2651" y1="62.6879" x2="90.3228" y2="50.3881" gradientUnits="userSpaceOnUse">
<stop offset="0.469376" stop-color="#3F3E5C" stop-opacity="0"/>
<stop offset="1" stop-color="#3F3E5C"/>
</linearGradient>
<linearGradient id="paint22_linear_14_726" x1="64.225" y1="70.0885" x2="52.2634" y2="53.1182" gradientUnits="userSpaceOnUse">
<stop stop-color="#3F3E5C" stop-opacity="0"/>
<stop offset="1" stop-color="#3F3E5C"/>
</linearGradient>
<radialGradient id="paint23_radial_14_726" cx="0" cy="0" r="1" gradientUnits="userSpaceOnUse" gradientTransform="translate(42.9366 74.915) rotate(140.907) scale(24.5067 13.8485)">
<stop offset="0.265887" stop-color="#3F3E5C"/>
<stop offset="0.738734" stop-color="#3F3E5C" stop-opacity="0"/>
</radialGradient>
<radialGradient id="paint24_radial_14_726" cx="0" cy="0" r="1" gradientUnits="userSpaceOnUse" gradientTransform="translate(75.7364 54.714) rotate(146.691) scale(20.9336 11.2257)">
<stop offset="0.265887" stop-color="#3F3E5C"/>
<stop offset="0.738734" stop-color="#3F3E5C" stop-opacity="0"/>
</radialGradient>
<linearGradient id="paint25_linear_14_726" x1="92.2731" y1="48.4817" x2="42.6824" y2="107.655" gradientUnits="userSpaceOnUse">
<stop stop-color="#8279B6"/>
<stop offset="1" stop-color="#C6A8A5"/>
</linearGradient>
<linearGradient id="paint26_linear_14_726" x1="92.7467" y1="49.0598" x2="40.8872" y2="100.942" gradientUnits="userSpaceOnUse">
<stop stop-color="#E0CAF6" stop-opacity="0"/>
<stop offset="0.143261" stop-color="#E0CAF6" stop-opacity="0"/>
<stop offset="0.23237" stop-color="#E0CAF6"/>
<stop offset="0.3726" stop-color="#E0CAF6" stop-opacity="0"/>
<stop offset="0.603758" stop-color="#E0CAF6" stop-opacity="0"/>
<stop offset="0.724097" stop-color="#E0CAF6"/>
<stop offset="0.873914" stop-color="#E0CAF6" stop-opacity="0"/>
</linearGradient>
<linearGradient id="paint27_linear_14_726" x1="84.9516" y1="65.4532" x2="93.2515" y2="53.0294" gradientUnits="userSpaceOnUse">
<stop offset="0.469376" stop-color="#3F3E5C" stop-opacity="0"/>
<stop offset="1" stop-color="#3F3E5C"/>
</linearGradient>
<linearGradient id="paint28_linear_14_726" x1="70.5738" y1="73.8102" x2="56.8564" y2="58.1712" gradientUnits="userSpaceOnUse">
<stop stop-color="#3F3E5C" stop-opacity="0"/>
<stop offset="1" stop-color="#3F3E5C"/>
</linearGradient>
<radialGradient id="paint29_radial_14_726" cx="0" cy="0" r="1" gradientUnits="userSpaceOnUse" gradientTransform="translate(50.0651 82.0193) rotate(138.248) scale(22.7404 12.6474)">
<stop offset="0.265887" stop-color="#3F3E5C"/>
<stop offset="0.738734" stop-color="#3F3E5C" stop-opacity="0"/>
</radialGradient>
<radialGradient id="paint30_radial_14_726" cx="0" cy="0" r="1" gradientUnits="userSpaceOnUse" gradientTransform="translate(80.712 60.0419) rotate(146.538) scale(14.554 12.5324)">
<stop offset="0.265887" stop-color="#3F3E5C"/>
<stop offset="0.738734" stop-color="#3F3E5C" stop-opacity="0"/>
</radialGradient>
<linearGradient id="paint31_linear_14_726" x1="87.0885" y1="35.5487" x2="11.5702" y2="82.572" gradientUnits="userSpaceOnUse">
<stop stop-color="#8279B6"/>
<stop offset="1" stop-color="#C6A8A5"/>
</linearGradient>
<linearGradient id="paint32_linear_14_726" x1="87.3385" y1="36.2531" x2="11.412" y2="73.4563" gradientUnits="userSpaceOnUse">
<stop stop-color="#E0CAF6" stop-opacity="0"/>
<stop offset="0.143261" stop-color="#E0CAF6" stop-opacity="0"/>
<stop offset="0.23237" stop-color="#E0CAF6"/>
<stop offset="0.3726" stop-color="#E0CAF6" stop-opacity="0"/>
<stop offset="0.603758" stop-color="#E0CAF6" stop-opacity="0"/>
<stop offset="0.724097" stop-color="#E0CAF6"/>
<stop offset="0.873914" stop-color="#E0CAF6" stop-opacity="0"/>
</linearGradient>
<linearGradient id="paint33_linear_14_726" x1="72.3857" y1="50.5439" x2="85.7001" y2="39.7353" gradientUnits="userSpaceOnUse">
<stop offset="0.469376" stop-color="#3F3E5C" stop-opacity="0"/>
<stop offset="1" stop-color="#3F3E5C"/>
</linearGradient>
<linearGradient id="paint34_linear_14_726" x1="53.9575" y1="55.0433" x2="45.7048" y2="35.9833" gradientUnits="userSpaceOnUse">
<stop stop-color="#3F3E5C" stop-opacity="0"/>
<stop offset="1" stop-color="#3F3E5C"/>
</linearGradient>
<radialGradient id="paint35_radial_14_726" cx="0" cy="0" r="1" gradientUnits="userSpaceOnUse" gradientTransform="translate(34.5559 54.4471) rotate(155.59) scale(26.1006 13.7508)">
<stop offset="0.265887" stop-color="#3F3E5C"/>
<stop offset="0.738734" stop-color="#3F3E5C" stop-opacity="0"/>
</radialGradient>
<radialGradient id="paint36_radial_14_726" cx="0" cy="0" r="1" gradientUnits="userSpaceOnUse" gradientTransform="translate(70.2459 44.0025) rotate(159.548) scale(20.0292 9.24819)">
<stop offset="0.265887" stop-color="#3F3E5C"/>
<stop offset="0.738734" stop-color="#3F3E5C" stop-opacity="0"/>
</radialGradient>
<linearGradient id="paint37_linear_14_726" x1="88.6148" y1="41.9249" x2="23.5622" y2="100.761" gradientUnits="userSpaceOnUse">
<stop stop-color="#8279B6"/>
<stop offset="1" stop-color="#C6A8A5"/>
</linearGradient>
<linearGradient id="paint38_linear_14_726" x1="88.8835" y1="42.4572" x2="19.8581" y2="90.7608" gradientUnits="userSpaceOnUse">
<stop stop-color="#E0CAF6" stop-opacity="0"/>
<stop offset="0.143261" stop-color="#E0CAF6" stop-opacity="0"/>
<stop offset="0.23237" stop-color="#E0CAF6"/>
<stop offset="0.3726" stop-color="#E0CAF6" stop-opacity="0"/>
<stop offset="0.603758" stop-color="#E0CAF6" stop-opacity="0"/>
<stop offset="0.724097" stop-color="#E0CAF6"/>
<stop offset="0.873914" stop-color="#E0CAF6" stop-opacity="0"/>
</linearGradient>
<linearGradient id="paint39_linear_14_726" x1="74.9119" y1="61.1106" x2="88.3454" y2="46.3497" gradientUnits="userSpaceOnUse">
<stop offset="0.469376" stop-color="#3F3E5C" stop-opacity="0"/>
<stop offset="1" stop-color="#3F3E5C"/>
</linearGradient>
<linearGradient id="paint40_linear_14_726" x1="57.2957" y1="63.7816" x2="49.1916" y2="49.3037" gradientUnits="userSpaceOnUse">
<stop stop-color="#3F3E5C" stop-opacity="0"/>
<stop offset="1" stop-color="#3F3E5C"/>
</linearGradient>
<radialGradient id="paint41_radial_14_726" cx="0" cy="0" r="1" gradientUnits="userSpaceOnUse" gradientTransform="translate(24.269 72.5773) rotate(145.749) scale(29.6414 7.4727)">
<stop offset="0.265887" stop-color="#3F3E5C"/>
<stop offset="0.738734" stop-color="#3F3E5C" stop-opacity="0"/>
</radialGradient>
<radialGradient id="paint42_radial_14_726" cx="0" cy="0" r="1" gradientUnits="userSpaceOnUse" gradientTransform="translate(53.455 54.7751) rotate(151.216) scale(30.2945 13.8823)">
<stop offset="0.265887" stop-color="#3F3E5C"/>
<stop offset="0.738734" stop-color="#3F3E5C" stop-opacity="0"/>
</radialGradient>
<linearGradient id="paint43_linear_14_726" x1="87.3834" y1="36.2694" x2="30.7162" y2="76.8878" gradientUnits="userSpaceOnUse">
<stop stop-color="#8279B6"/>
<stop offset="1" stop-color="#C6A8A5"/>
</linearGradient>
<linearGradient id="paint44_linear_14_726" x1="87.4348" y1="36.5565" x2="23.9099" y2="64.9772" gradientUnits="userSpaceOnUse">
<stop stop-color="#E0CAF6" stop-opacity="0"/>
<stop offset="0.143261" stop-color="#E0CAF6" stop-opacity="0"/>
<stop offset="0.23237" stop-color="#E0CAF6"/>
<stop offset="0.3726" stop-color="#E0CAF6" stop-opacity="0"/>
<stop offset="0.603758" stop-color="#E0CAF6" stop-opacity="0"/>
<stop offset="0.724097" stop-color="#E0CAF6"/>
<stop offset="0.873914" stop-color="#E0CAF6" stop-opacity="0"/>
</linearGradient>
<linearGradient id="paint45_linear_14_726" x1="72.5564" y1="43.0366" x2="80.7757" y2="33.9045" gradientUnits="userSpaceOnUse">
<stop offset="0.469376" stop-color="#3F3E5C" stop-opacity="0"/>
<stop offset="1" stop-color="#3F3E5C"/>
</linearGradient>
<linearGradient id="paint46_linear_14_726" x1="56.9632" y1="45.526" x2="55.0567" y2="37.6447" gradientUnits="userSpaceOnUse">
<stop stop-color="#3F3E5C" stop-opacity="0"/>
<stop offset="1" stop-color="#3F3E5C"/>
</linearGradient>
<radialGradient id="paint47_radial_14_726" cx="0" cy="0" r="1" gradientUnits="userSpaceOnUse" gradientTransform="translate(35.5787 47.3243) rotate(167.609) scale(20.6549 8.58546)">
<stop offset="0.265887" stop-color="#3F3E5C"/>
<stop offset="0.738734" stop-color="#3F3E5C" stop-opacity="0"/>
</radialGradient>
<radialGradient id="paint48_radial_14_726" cx="0" cy="0" r="1" gradientUnits="userSpaceOnUse" gradientTransform="translate(72.2996 38.8995) rotate(171.702) scale(15.2979 5.43316)">
<stop offset="0.265887" stop-color="#3F3E5C"/>
<stop offset="0.738734" stop-color="#3F3E5C" stop-opacity="0"/>
</radialGradient>
<linearGradient id="paint49_linear_14_726" x1="144.469" y1="-2.92187" x2="104.892" y2="36.7799" gradientUnits="userSpaceOnUse">
<stop stop-color="#BBA5C6"/>
<stop offset="1" stop-color="#C6A8A5"/>
</linearGradient>
<radialGradient id="paint50_radial_14_726" cx="0" cy="0" r="1" gradientUnits="userSpaceOnUse" gradientTransform="translate(126.926 24.9959) rotate(117.041) scale(28.5165 31.1315)">
<stop stop-color="#F7EDD7"/>
<stop offset="0.331421" stop-color="#FFF7E4" stop-opacity="0.668579"/>
<stop offset="1" stop-color="#FFF7E4" stop-opacity="0"/>
</radialGradient>
<linearGradient id="paint51_linear_14_726" x1="132.013" y1="33.6895" x2="121.596" y2="14.469" gradientUnits="userSpaceOnUse">
<stop offset="0.64137" stop-color="#B3B2DB" stop-opacity="0"/>
<stop offset="1" stop-color="#8E8CCB"/>
</linearGradient>
<linearGradient id="paint52_linear_14_726" x1="114.238" y1="21.3118" x2="125.741" y2="39.9077" gradientUnits="userSpaceOnUse">
<stop offset="0.64137" stop-color="#B3B2DB" stop-opacity="0"/>
<stop offset="1" stop-color="#8E8CCB"/>
</linearGradient>
<radialGradient id="paint53_radial_14_726" cx="0" cy="0" r="1" gradientUnits="userSpaceOnUse" gradientTransform="translate(111.298 33.0047) rotate(-29.6306) scale(4.35474 12.3291)">
<stop stop-color="#6C6B89"/>
<stop offset="1" stop-color="#6C6B89" stop-opacity="0"/>
</radialGradient>
<linearGradient id="paint54_linear_14_726" x1="104.946" y1="16.2031" x2="87.3106" y2="28.2814" gradientUnits="userSpaceOnUse">
<stop stop-color="#BBA5C6"/>
<stop offset="1" stop-color="#C6A8A5"/>
</linearGradient>
<radialGradient id="paint55_radial_14_726" cx="0" cy="0" r="1" gradientUnits="userSpaceOnUse" gradientTransform="translate(105.043 38.0437) rotate(85.047) scale(21.0456 18.9872)">
<stop stop-color="#FFF7E4"/>
<stop offset="0.331421" stop-color="#FFF7E4" stop-opacity="0.668579"/>
<stop offset="1" stop-color="#FFF7E4" stop-opacity="0"/>
</radialGradient>
<linearGradient id="paint56_linear_14_726" x1="111.161" y1="48.707" x2="99.5897" y2="24.7238" gradientUnits="userSpaceOnUse">
<stop offset="0.64137" stop-color="#B3B2DB" stop-opacity="0"/>
<stop offset="1" stop-color="#8E8CCB"/>
</linearGradient>
<linearGradient id="paint57_linear_14_726" x1="96.3734" y1="29.6696" x2="112.173" y2="50.9578" gradientUnits="userSpaceOnUse">
<stop offset="0.64137" stop-color="#B3B2DB" stop-opacity="0"/>
<stop offset="1" stop-color="#8E8CCB"/>
</linearGradient>
<radialGradient id="paint58_radial_14_726" cx="0" cy="0" r="1" gradientUnits="userSpaceOnUse" gradientTransform="translate(102.899 38.1892) rotate(-29.6306) scale(3.36031 14.213)">
<stop stop-color="#03031B"/>
<stop offset="1" stop-color="#6C6B89" stop-opacity="0"/>
</radialGradient>
<linearGradient id="paint59_linear_14_726" x1="100.749" y1="22.6326" x2="84.8088" y2="50.5292" gradientUnits="userSpaceOnUse">
<stop stop-color="#8279B6"/>
<stop offset="1" stop-color="#C6A8A5"/>
</linearGradient>
<linearGradient id="paint60_linear_14_726" x1="94.3725" y1="29.8643" x2="110.255" y2="54.1341" gradientUnits="userSpaceOnUse">
<stop stop-color="#F2E4FF" stop-opacity="0"/>
<stop offset="0.527919" stop-color="#F8F1FF"/>
<stop offset="0.812183" stop-color="#F2E4FF" stop-opacity="0"/>
</linearGradient>
<linearGradient id="paint61_linear_14_726" x1="102.364" y1="54.982" x2="89.8518" y2="29.0664" gradientUnits="userSpaceOnUse">
<stop offset="0.469376" stop-color="#3F3E5C" stop-opacity="0"/>
<stop offset="1" stop-color="#3F3E5C"/>
</linearGradient>
<linearGradient id="paint62_linear_14_726" x1="86.3698" y1="34.4161" x2="103.434" y2="57.4325" gradientUnits="userSpaceOnUse">
<stop offset="0.621863" stop-color="#3F3E5C" stop-opacity="0"/>
<stop offset="1" stop-color="#3F3E5C"/>
</linearGradient>
<linearGradient id="paint63_linear_14_726" x1="111.386" y1="102.682" x2="99.3041" y2="94.1724" gradientUnits="userSpaceOnUse">
<stop stop-color="#8279B6"/>
<stop offset="1" stop-color="#C6A8A5"/>
</linearGradient>
<linearGradient id="paint64_linear_14_726" x1="101.899" y1="92.5579" x2="112.251" y2="101.305" gradientUnits="userSpaceOnUse">
<stop stop-color="#F0D9D7" stop-opacity="0"/>
<stop offset="0.364583" stop-color="#F0D9D7" stop-opacity="0.7"/>
<stop offset="0.7125" stop-color="#F0D9D7" stop-opacity="0"/>
</linearGradient>
<linearGradient id="paint65_linear_14_726" x1="110.945" y1="93.2964" x2="116.071" y2="79.4358" gradientUnits="userSpaceOnUse">
<stop stop-color="#8279B6"/>
<stop offset="1" stop-color="#C6A8A5"/>
</linearGradient>
<linearGradient id="paint66_linear_14_726" x1="118.297" y1="81.5302" x2="112.498" y2="93.7788" gradientUnits="userSpaceOnUse">
<stop stop-color="#F0D9D7" stop-opacity="0"/>
<stop offset="0.364583" stop-color="#F0D9D7" stop-opacity="0.7"/>
<stop offset="0.7125" stop-color="#F0D9D7" stop-opacity="0"/>
</linearGradient>
<linearGradient id="paint67_linear_14_726" x1="181.002" y1="55.0821" x2="175.409" y2="40.8579" gradientUnits="userSpaceOnUse">
<stop stop-color="#8279B6"/>
<stop offset="1" stop-color="#C6A8A5"/>
</linearGradient>
<linearGradient id="paint68_linear_14_726" x1="178.569" y1="40.9403" x2="182.532" y2="54.3849" gradientUnits="userSpaceOnUse">
<stop stop-color="#F0D9D7" stop-opacity="0"/>
<stop offset="0.364583" stop-color="#F0D9D7" stop-opacity="0.7"/>
<stop offset="0.7125" stop-color="#F0D9D7" stop-opacity="0"/>
</linearGradient>
<linearGradient id="paint69_linear_14_726" x1="55.5794" y1="21.6907" x2="43.4167" y2="15.1656" gradientUnits="userSpaceOnUse">
<stop stop-color="#8279B6"/>
<stop offset="1" stop-color="#C6A8A5"/>
</linearGradient>
<linearGradient id="paint70_linear_14_726" x1="45.6407" y1="13.3757" x2="56.2253" y2="20.3167" gradientUnits="userSpaceOnUse">
<stop stop-color="#F0D9D7" stop-opacity="0"/>
<stop offset="0.364583" stop-color="#F0D9D7" stop-opacity="0.7"/>
<stop offset="0.7125" stop-color="#F0D9D7" stop-opacity="0"/>
</linearGradient>
<linearGradient id="paint71_linear_14_726" x1="209.689" y1="57.8669" x2="202.619" y2="43.2781" gradientUnits="userSpaceOnUse">
<stop stop-color="#A66A2A"/>
<stop offset="0.234375" stop-color="#C59943"/>
<stop offset="0.604167" stop-color="#F4CC65"/>
<stop offset="0.838542" stop-color="#C59943"/>
<stop offset="1" stop-color="#A66A2A"/>
</linearGradient>
<linearGradient id="paint72_linear_14_726" x1="56.3519" y1="111.947" x2="50.2583" y2="99.3734" gradientUnits="userSpaceOnUse">
<stop stop-color="#A66A2A"/>
<stop offset="0.234375" stop-color="#C59943"/>
<stop offset="0.604167" stop-color="#F4CC65"/>
<stop offset="0.838542" stop-color="#C59943"/>
<stop offset="1" stop-color="#A66A2A"/>
</linearGradient>
<linearGradient id="paint73_linear_14_726" x1="97.3963" y1="85.2842" x2="86.4734" y2="76.061" gradientUnits="userSpaceOnUse">
<stop stop-color="#A66A2A"/>
<stop offset="0.234375" stop-color="#C59943"/>
<stop offset="0.604167" stop-color="#F4CC65"/>
<stop offset="0.838542" stop-color="#C59943"/>
<stop offset="1" stop-color="#A66A2A"/>
</linearGradient>
<linearGradient id="paint74_linear_14_726" x1="221.785" y1="22.9438" x2="213.401" y2="10.8514" gradientUnits="userSpaceOnUse">
<stop stop-color="#A66A2A"/>
<stop offset="0.234375" stop-color="#C59943"/>
<stop offset="0.604167" stop-color="#F4CC65"/>
<stop offset="0.838542" stop-color="#C59943"/>
<stop offset="1" stop-color="#A66A2A"/>
</linearGradient>
<linearGradient id="paint75_linear_14_726" x1="20.9096" y1="34.759" x2="12.4229" y2="23.6593" gradientUnits="userSpaceOnUse">
<stop stop-color="#A66A2A"/>
<stop offset="0.234375" stop-color="#C59943"/>
<stop offset="0.604167" stop-color="#F4CC65"/>
<stop offset="0.838542" stop-color="#C59943"/>
<stop offset="1" stop-color="#A66A2A"/>
</linearGradient>
</defs>
</svg>
