<svg viewBox="0 0 240 120" fill="none" xmlns="http://www.w3.org/2000/svg">
<path d="M225.616 86.8253L118.99 68.0769L12.3652 86.8251C11.7493 86.8251 11.25 87.6229 11.25 88.6071C11.25 89.5913 11.7493 90.3891 12.3652 90.3891H32.6177C33.177 90.3891 33.6303 91.1135 33.6303 92.0072C33.6303 92.9008 33.177 93.6253 32.6177 93.6253H23.8209C23.2616 93.6253 22.8083 94.3497 22.8083 95.2434C22.8083 96.137 23.2616 96.8615 23.8209 96.8615H48.4509C48.9593 96.8615 49.3715 97.5201 49.3715 98.3325C49.3715 99.1449 48.9593 99.8035 48.4509 99.8035H42.0216C41.4623 99.8035 41.009 100.528 41.009 101.422C41.009 102.315 41.4623 103.04 42.0216 103.04H56.8134C57.3218 103.04 57.734 103.698 57.734 104.511C57.734 105.323 57.3218 105.982 56.8134 105.982H50.3841C49.8248 105.982 49.3715 106.706 49.3715 107.6C49.3715 108.493 49.8248 109.218 50.3841 109.218H63.3924C63.7991 109.218 64.1288 109.745 64.1288 110.395C64.1288 111.045 63.7991 111.571 63.3924 111.571H58.7466C58.1873 111.571 57.734 112.296 57.734 113.19C57.734 114.083 58.1873 114.808 58.7466 114.808H177.603C178.162 114.808 178.616 114.083 178.616 113.19C178.616 112.296 178.162 111.571 177.603 111.571H169.514C169.107 111.571 168.777 111.045 168.777 110.395C168.777 109.745 169.107 109.218 169.514 109.218H186.703C187.263 109.218 187.716 108.493 187.716 107.6C187.716 106.706 187.263 105.982 186.703 105.982H184.557C184.048 105.982 183.636 105.323 183.636 104.511C183.636 103.698 184.048 103.04 184.557 103.04H200.506C201.065 103.04 201.518 102.315 201.518 101.422C201.518 100.528 201.065 99.8035 200.506 99.8035H198.431C197.923 99.8035 197.511 99.1449 197.511 98.3325C197.511 97.5201 197.923 96.8615 198.431 96.8615H217.332C217.891 96.8615 218.345 96.137 218.345 95.2434C218.345 94.3497 217.891 93.6253 217.332 93.6253H210.503C209.944 93.6253 209.49 92.9008 209.49 92.0072C209.49 91.1135 209.944 90.3891 210.503 90.3891H225.616C226.232 90.3891 226.731 89.5913 226.731 88.6072C226.731 87.6231 226.232 86.8253 225.616 86.8253Z" fill="url(#paint0_radial_7648_2472)"/>
<path d="M157.29 54.5017C149.147 51.5407 141.375 61.5341 145.076 67.086H175.611C175.426 63.3847 172.835 61.3491 168.949 63.0146C171.54 60.0536 166.913 55.9822 164.507 58.203C164.26 55.427 162.472 50.8005 157.29 54.5017Z" fill="url(#paint1_linear_7648_2472)"/>
<path d="M157.29 54.5017C149.147 51.5407 141.375 61.5341 145.076 67.086H175.611C175.426 63.3847 172.835 61.3491 168.949 63.0146C171.54 60.0536 166.913 55.9822 164.507 58.203C164.26 55.427 162.472 50.8005 157.29 54.5017Z" fill="url(#paint2_radial_7648_2472)"/>
<path d="M94.594 54.8954C95.3028 50.6424 88.0373 48.6931 85.3792 57.7307L81.3035 69.9579C88.6871 70.1351 104.128 70.1705 106.821 68.8946C110.188 67.2998 106.998 57.7307 98.6697 59.6799C99.5558 58.2622 97.9609 54.8954 94.594 54.8954Z" fill="url(#paint3_linear_7648_2472)"/>
<path d="M94.594 54.8954C95.3028 50.6424 88.0373 48.6931 85.3792 57.7307L81.3035 69.9579C88.6871 70.1351 104.128 70.1705 106.821 68.8946C110.188 67.2998 106.998 57.7307 98.6697 59.6799C99.5558 58.2622 97.9609 54.8954 94.594 54.8954Z" fill="url(#paint4_radial_7648_2472)"/>
<path d="M79.9833 55.6039C72.1862 52.7686 64.7435 62.3377 68.2877 67.6539H97.5267C97.3495 64.1098 94.8686 62.1606 91.1472 63.7554C93.6281 60.9201 89.198 57.0215 86.8943 59.148C86.658 56.4899 84.945 52.0598 79.9833 55.6039Z" fill="url(#paint5_linear_7648_2472)"/>
<path d="M79.9833 55.6039C72.1862 52.7686 64.7435 62.3377 68.2877 67.6539H97.5267C97.3495 64.1098 94.8686 62.1606 91.1472 63.7554C93.6281 60.9201 89.198 57.0215 86.8943 59.148C86.658 56.4899 84.945 52.0598 79.9833 55.6039Z" fill="url(#paint6_radial_7648_2472)"/>
<path fill-rule="evenodd" clip-rule="evenodd" d="M165.738 43.8652C165.738 38.326 166.676 33.3437 168.167 29.772C168.912 27.9846 169.783 26.5833 170.714 25.6394C171.643 24.698 172.591 24.2496 173.52 24.2496C173.946 24.2496 174.375 24.3437 174.805 24.5362C174.761 24.5791 174.717 24.6227 174.673 24.667C173.577 25.7784 172.621 27.3511 171.833 29.2387C170.257 33.017 169.298 38.1887 169.298 43.8652C169.298 49.5418 170.257 54.7134 171.833 58.4917C172.621 60.3793 173.577 61.9521 174.673 63.0634C174.717 63.1077 174.761 63.1513 174.805 63.1942C174.375 63.3867 173.946 63.4808 173.52 63.4808C172.591 63.4808 171.643 63.0324 170.714 62.091C169.783 61.1471 168.912 59.7458 168.167 57.9585C166.676 54.3867 165.738 49.4044 165.738 43.8652ZM175.992 64.1283C175.227 64.5986 174.398 64.8654 173.52 64.8654C172.109 64.8654 170.827 64.1773 169.729 63.0634C168.632 61.9521 167.676 60.3793 166.889 58.4917C165.312 54.7134 164.353 49.5418 164.353 43.8652C164.353 38.1887 165.312 33.017 166.889 29.2387C167.676 27.3511 168.632 25.7784 169.729 24.667C170.827 23.5531 172.109 22.865 173.52 22.865C174.398 22.865 175.227 23.1318 175.992 23.6021C176.758 23.1318 177.586 22.865 178.465 22.865C179.875 22.865 181.157 23.5531 182.256 24.667C183.353 25.7784 184.308 27.3511 185.096 29.2387C186.672 33.017 187.631 38.1887 187.631 43.8652C187.631 49.5418 186.672 54.7134 185.096 58.4917C184.308 60.3793 183.353 61.9521 182.256 63.0634C181.157 64.1773 179.875 64.8654 178.465 64.8654C177.586 64.8654 176.758 64.5986 175.992 64.1283ZM177.179 24.5362C177.609 24.3437 178.039 24.2496 178.465 24.2496C179.394 24.2496 180.342 24.698 181.27 25.6394C182.202 26.5833 183.072 27.9846 183.818 29.772C185.308 33.3437 186.247 38.326 186.247 43.8652C186.247 49.4044 185.308 54.3867 183.818 57.9585C183.072 59.7458 182.202 61.1471 181.27 62.091C180.342 63.0324 179.394 63.4808 178.465 63.4808C178.039 63.4808 177.609 63.3867 177.179 63.1942C177.224 63.1513 177.268 63.1077 177.311 63.0634C178.408 61.9521 179.363 60.3793 180.151 58.4917C181.728 54.7134 182.687 49.5418 182.687 43.8652C182.687 38.1887 181.728 33.017 180.151 29.2387C179.363 27.3511 178.408 25.7784 177.311 24.667C177.268 24.6227 177.224 24.5791 177.179 24.5362ZM175.992 25.3232C176.104 25.4216 176.215 25.527 176.326 25.6394C177.257 26.5833 178.127 27.9846 178.873 29.772C180.364 33.3437 181.302 38.326 181.302 43.8652C181.302 49.4044 180.364 54.3867 178.873 57.9585C178.127 59.7458 177.257 61.1471 176.326 62.091C176.215 62.2034 176.104 62.3088 175.992 62.4072C175.881 62.3088 175.77 62.2034 175.659 62.091C174.728 61.1471 173.857 59.7458 173.111 57.9585C171.621 54.3867 170.683 49.4044 170.683 43.8652C170.683 38.326 171.621 33.3437 173.111 29.772C173.857 27.9846 174.728 26.5833 175.659 25.6394C175.77 25.527 175.881 25.4216 175.992 25.3232Z" fill="url(#paint7_linear_7648_2472)"/>
<path fill-rule="evenodd" clip-rule="evenodd" d="M165.738 43.8652C165.738 38.326 166.676 33.3437 168.167 29.772C168.912 27.9846 169.783 26.5833 170.714 25.6394C171.643 24.698 172.591 24.2496 173.52 24.2496C173.946 24.2496 174.375 24.3437 174.805 24.5362C174.761 24.5791 174.717 24.6227 174.673 24.667C173.577 25.7784 172.621 27.3511 171.833 29.2387C170.257 33.017 169.298 38.1887 169.298 43.8652C169.298 49.5418 170.257 54.7134 171.833 58.4917C172.621 60.3793 173.577 61.9521 174.673 63.0634C174.717 63.1077 174.761 63.1513 174.805 63.1942C174.375 63.3867 173.946 63.4808 173.52 63.4808C172.591 63.4808 171.643 63.0324 170.714 62.091C169.783 61.1471 168.912 59.7458 168.167 57.9585C166.676 54.3867 165.738 49.4044 165.738 43.8652ZM175.992 64.1283C175.227 64.5986 174.398 64.8654 173.52 64.8654C172.109 64.8654 170.827 64.1773 169.729 63.0634C168.632 61.9521 167.676 60.3793 166.889 58.4917C165.312 54.7134 164.353 49.5418 164.353 43.8652C164.353 38.1887 165.312 33.017 166.889 29.2387C167.676 27.3511 168.632 25.7784 169.729 24.667C170.827 23.5531 172.109 22.865 173.52 22.865C174.398 22.865 175.227 23.1318 175.992 23.6021C176.758 23.1318 177.586 22.865 178.465 22.865C179.875 22.865 181.157 23.5531 182.256 24.667C183.353 25.7784 184.308 27.3511 185.096 29.2387C186.672 33.017 187.631 38.1887 187.631 43.8652C187.631 49.5418 186.672 54.7134 185.096 58.4917C184.308 60.3793 183.353 61.9521 182.256 63.0634C181.157 64.1773 179.875 64.8654 178.465 64.8654C177.586 64.8654 176.758 64.5986 175.992 64.1283ZM177.179 24.5362C177.609 24.3437 178.039 24.2496 178.465 24.2496C179.394 24.2496 180.342 24.698 181.27 25.6394C182.202 26.5833 183.072 27.9846 183.818 29.772C185.308 33.3437 186.247 38.326 186.247 43.8652C186.247 49.4044 185.308 54.3867 183.818 57.9585C183.072 59.7458 182.202 61.1471 181.27 62.091C180.342 63.0324 179.394 63.4808 178.465 63.4808C178.039 63.4808 177.609 63.3867 177.179 63.1942C177.224 63.1513 177.268 63.1077 177.311 63.0634C178.408 61.9521 179.363 60.3793 180.151 58.4917C181.728 54.7134 182.687 49.5418 182.687 43.8652C182.687 38.1887 181.728 33.017 180.151 29.2387C179.363 27.3511 178.408 25.7784 177.311 24.667C177.268 24.6227 177.224 24.5791 177.179 24.5362ZM175.992 25.3232C176.104 25.4216 176.215 25.527 176.326 25.6394C177.257 26.5833 178.127 27.9846 178.873 29.772C180.364 33.3437 181.302 38.326 181.302 43.8652C181.302 49.4044 180.364 54.3867 178.873 57.9585C178.127 59.7458 177.257 61.1471 176.326 62.091C176.215 62.2034 176.104 62.3088 175.992 62.4072C175.881 62.3088 175.77 62.2034 175.659 62.091C174.728 61.1471 173.857 59.7458 173.111 57.9585C171.621 54.3867 170.683 49.4044 170.683 43.8652C170.683 38.326 171.621 33.3437 173.111 29.772C173.857 27.9846 174.728 26.5833 175.659 25.6394C175.77 25.527 175.881 25.4216 175.992 25.3232Z" fill="url(#paint8_linear_7648_2472)"/>
<path d="M178.507 25.3674C178.507 27.4837 176.159 29.1993 173.262 29.1993C170.366 29.1993 168.018 27.4837 168.018 25.3674C168.018 23.251 170.366 21.5354 173.262 21.5354C176.159 21.5354 178.507 23.251 178.507 25.3674Z" fill="url(#paint9_linear_7648_2472)"/>
<path d="M178.507 25.3674C178.507 27.4837 176.159 29.1993 173.262 29.1993C170.366 29.1993 168.018 27.4837 168.018 25.3674C168.018 23.251 170.366 21.5354 173.262 21.5354C176.159 21.5354 178.507 23.251 178.507 25.3674Z" fill="url(#paint10_radial_7648_2472)"/>
<path d="M178.507 25.3674C178.507 27.4837 176.159 29.1993 173.262 29.1993C170.366 29.1993 168.018 27.4837 168.018 25.3674C168.018 23.251 170.366 21.5354 173.262 21.5354C176.159 21.5354 178.507 23.251 178.507 25.3674Z" fill="url(#paint11_radial_7648_2472)"/>
<path d="M188.169 30.4155C188.169 32.6089 185.735 34.3871 182.733 34.3871C179.731 34.3871 177.297 32.6089 177.297 30.4155C177.297 28.222 179.731 26.4438 182.733 26.4438C185.735 26.4438 188.169 28.222 188.169 30.4155Z" fill="url(#paint12_linear_7648_2472)"/>
<path d="M188.169 30.4155C188.169 32.6089 185.735 34.3871 182.733 34.3871C179.731 34.3871 177.297 32.6089 177.297 30.4155C177.297 28.222 179.731 26.4438 182.733 26.4438C185.735 26.4438 188.169 28.222 188.169 30.4155Z" fill="url(#paint13_radial_7648_2472)"/>
<path d="M188.169 30.4155C188.169 32.6089 185.735 34.3871 182.733 34.3871C179.731 34.3871 177.297 32.6089 177.297 30.4155C177.297 28.222 179.731 26.4438 182.733 26.4438C185.735 26.4438 188.169 28.222 188.169 30.4155Z" fill="url(#paint14_radial_7648_2472)"/>
<path d="M190.029 42.799C190.029 44.9925 187.595 46.7707 184.593 46.7707C181.591 46.7707 179.157 44.9925 179.157 42.799C179.157 40.6056 181.591 38.8274 184.593 38.8274C187.595 38.8274 190.029 40.6056 190.029 42.799Z" fill="url(#paint15_linear_7648_2472)"/>
<path d="M190.029 42.799C190.029 44.9925 187.595 46.7707 184.593 46.7707C181.591 46.7707 179.157 44.9925 179.157 42.799C179.157 40.6056 181.591 38.8274 184.593 38.8274C187.595 38.8274 190.029 40.6056 190.029 42.799Z" fill="url(#paint16_radial_7648_2472)"/>
<path d="M190.029 42.799C190.029 44.9925 187.595 46.7707 184.593 46.7707C181.591 46.7707 179.157 44.9925 179.157 42.799C179.157 40.6056 181.591 38.8274 184.593 38.8274C187.595 38.8274 190.029 40.6056 190.029 42.799Z" fill="url(#paint17_radial_7648_2472)"/>
<path d="M189.149 54.2653C189.149 56.4588 186.715 58.237 183.713 58.237C180.711 58.237 178.277 56.4588 178.277 54.2653C178.277 52.0719 180.711 50.2937 183.713 50.2937C186.715 50.2937 189.149 52.0719 189.149 54.2653Z" fill="url(#paint18_linear_7648_2472)"/>
<path d="M189.149 54.2653C189.149 56.4588 186.715 58.237 183.713 58.237C180.711 58.237 178.277 56.4588 178.277 54.2653C178.277 52.0719 180.711 50.2937 183.713 50.2937C186.715 50.2937 189.149 52.0719 189.149 54.2653Z" fill="url(#paint19_radial_7648_2472)"/>
<path d="M189.149 54.2653C189.149 56.4588 186.715 58.237 183.713 58.237C180.711 58.237 178.277 56.4588 178.277 54.2653C178.277 52.0719 180.711 50.2937 183.713 50.2937C186.715 50.2937 189.149 52.0719 189.149 54.2653Z" fill="url(#paint20_radial_7648_2472)"/>
<path d="M172.749 34.9948C172.749 37.1112 170.401 38.8268 167.504 38.8268C164.608 38.8268 162.26 37.1112 162.26 34.9948C162.26 32.8785 164.608 31.1628 167.504 31.1628C170.401 31.1628 172.749 32.8785 172.749 34.9948Z" fill="url(#paint21_linear_7648_2472)"/>
<path d="M172.749 34.9948C172.749 37.1112 170.401 38.8268 167.504 38.8268C164.608 38.8268 162.26 37.1112 162.26 34.9948C162.26 32.8785 164.608 31.1628 167.504 31.1628C170.401 31.1628 172.749 32.8785 172.749 34.9948Z" fill="url(#paint22_radial_7648_2472)"/>
<path d="M172.749 34.9948C172.749 37.1112 170.401 38.8268 167.504 38.8268C164.608 38.8268 162.26 37.1112 162.26 34.9948C162.26 32.8785 164.608 31.1628 167.504 31.1628C170.401 31.1628 172.749 32.8785 172.749 34.9948Z" fill="url(#paint23_radial_7648_2472)"/>
<path d="M172.749 48.9052C172.749 51.0216 170.401 52.7372 167.504 52.7372C164.608 52.7372 162.26 51.0216 162.26 48.9052C162.26 46.7889 164.608 45.0732 167.504 45.0732C170.401 45.0732 172.749 46.7889 172.749 48.9052Z" fill="url(#paint24_linear_7648_2472)"/>
<path d="M172.749 48.9052C172.749 51.0216 170.401 52.7372 167.504 52.7372C164.608 52.7372 162.26 51.0216 162.26 48.9052C162.26 46.7889 164.608 45.0732 167.504 45.0732C170.401 45.0732 172.749 46.7889 172.749 48.9052Z" fill="url(#paint25_radial_7648_2472)"/>
<path d="M172.749 48.9052C172.749 51.0216 170.401 52.7372 167.504 52.7372C164.608 52.7372 162.26 51.0216 162.26 48.9052C162.26 46.7889 164.608 45.0732 167.504 45.0732C170.401 45.0732 172.749 46.7889 172.749 48.9052Z" fill="url(#paint26_radial_7648_2472)"/>
<path d="M178.507 62.0685C178.507 64.1849 176.159 65.9005 173.262 65.9005C170.366 65.9005 168.018 64.1849 168.018 62.0685C168.018 59.9522 170.366 58.2366 173.262 58.2366C176.159 58.2366 178.507 59.9522 178.507 62.0685Z" fill="url(#paint27_linear_7648_2472)"/>
<path d="M178.507 62.0685C178.507 64.1849 176.159 65.9005 173.262 65.9005C170.366 65.9005 168.018 64.1849 168.018 62.0685C168.018 59.9522 170.366 58.2366 173.262 58.2366C176.159 58.2366 178.507 59.9522 178.507 62.0685Z" fill="url(#paint28_radial_7648_2472)"/>
<path d="M178.507 62.0685C178.507 64.1849 176.159 65.9005 173.262 65.9005C170.366 65.9005 168.018 64.1849 168.018 62.0685C168.018 59.9522 170.366 58.2366 173.262 58.2366C176.159 58.2366 178.507 59.9522 178.507 62.0685Z" fill="url(#paint29_radial_7648_2472)"/>
<path d="M174.049 58.0668C173.432 54.3661 179.754 52.67 182.067 60.5339L185.614 71.1732C179.189 71.3274 165.754 71.3583 163.41 70.2481C160.48 68.8603 163.256 60.5339 170.503 62.23C169.732 60.9964 171.119 58.0668 174.049 58.0668Z" fill="url(#paint30_linear_7648_2472)"/>
<path d="M174.049 58.0668C173.432 54.3661 179.754 52.67 182.067 60.5339L185.614 71.1732C179.189 71.3274 165.754 71.3583 163.41 70.2481C160.48 68.8603 163.256 60.5339 170.503 62.23C169.732 60.9964 171.119 58.0668 174.049 58.0668Z" fill="url(#paint31_radial_7648_2472)"/>
<path d="M89.7111 87.7353C89.7111 89.5226 71.8332 90.9715 49.7797 90.9715C27.7263 90.9715 9.84839 89.5226 9.84839 87.7353C9.84839 85.9479 27.7263 84.499 49.7797 84.499C71.8332 84.499 89.7111 85.9479 89.7111 87.7353Z" fill="url(#paint32_radial_7648_2472)"/>
<path d="M239.731 87.7353C239.731 89.5226 221.853 90.9715 199.8 90.9715C177.746 90.9715 159.868 89.5226 159.868 87.7353C159.868 85.9479 177.746 84.499 199.8 84.499C221.853 84.499 239.731 85.9479 239.731 87.7353Z" fill="url(#paint33_radial_7648_2472)"/>
<path d="M188.767 56.1428H230.716V86.94H188.767V56.1428Z" fill="url(#paint34_linear_7648_2472)"/>
<path d="M188.767 56.1428H230.716V86.94H188.767V56.1428Z" fill="url(#paint35_radial_7648_2472)"/>
<path d="M183.499 61.5321L188.768 54.8074V86.9394L183.499 79.6151V61.5321Z" fill="url(#paint36_linear_7648_2472)"/>
<path d="M183.499 61.5321L188.768 54.8074V86.9394L183.499 79.6151V61.5321Z" fill="url(#paint37_radial_7648_2472)"/>
<path d="M232.027 56.571L226.572 46.6636L193.322 46.6636L187.867 56.571L232.027 56.571Z" fill="url(#paint38_linear_7648_2472)"/>
<path d="M187.868 56.5708L193.349 46.6408L188.78 51.4905L182.882 62.3401L187.868 56.5708Z" fill="url(#paint39_linear_7648_2472)"/>
<path d="M192.768 59.095H196.684V64.2191H192.768V59.095Z" fill="url(#paint40_linear_7648_2472)"/>
<path d="M192.768 67.0862H196.684V72.2103H192.768V67.0862Z" fill="url(#paint41_linear_7648_2472)"/>
<path d="M192.768 75.0764H196.684V83.2619H192.768V75.0764Z" fill="url(#paint42_linear_7648_2472)"/>
<path d="M200.276 59.095H204.193V64.2191H200.276V59.095Z" fill="url(#paint43_linear_7648_2472)"/>
<path d="M200.276 67.0862H204.193V72.2103H200.276V67.0862Z" fill="url(#paint44_linear_7648_2472)"/>
<path d="M200.276 75.0764H204.193V83.2619H200.276V75.0764Z" fill="url(#paint45_linear_7648_2472)"/>
<path d="M215.292 59.095H219.209V64.2191H215.292V59.095Z" fill="url(#paint46_linear_7648_2472)"/>
<path d="M215.292 67.0862H219.209V72.2103H215.292V67.0862Z" fill="url(#paint47_linear_7648_2472)"/>
<path d="M215.292 75.0764H219.209V83.2619H215.292V75.0764Z" fill="url(#paint48_linear_7648_2472)"/>
<path d="M207.783 59.095H211.7V64.2191H207.783V59.095Z" fill="url(#paint49_linear_7648_2472)"/>
<path d="M207.783 67.0862H211.7V72.2103H207.783V67.0862Z" fill="url(#paint50_linear_7648_2472)"/>
<path d="M207.783 75.0764H211.7V83.2619H207.783V75.0764Z" fill="url(#paint51_linear_7648_2472)"/>
<path d="M222.799 59.095H226.716V64.2191H222.799V59.095Z" fill="url(#paint52_linear_7648_2472)"/>
<path d="M222.799 67.0862H226.716V72.2103H222.799V67.0862Z" fill="url(#paint53_linear_7648_2472)"/>
<path d="M222.799 75.0764H226.716V83.2619H222.799V75.0764Z" fill="url(#paint54_linear_7648_2472)"/>
<path d="M188.767 75.2207H230.716V78.5741H188.767V75.2207Z" fill="url(#paint55_linear_7648_2472)"/>
<path d="M188.767 74.4995H230.715V75.2207H188.767V74.4995Z" fill="url(#paint56_linear_7648_2472)"/>
<path d="M188.767 57.2922H230.716V60.6456H188.767V57.2922Z" fill="url(#paint57_linear_7648_2472)"/>
<path d="M188.767 56.571H230.715V57.2922H188.767V56.571Z" fill="url(#paint58_linear_7648_2472)"/>
<path d="M196.685 36.4136H200.601V49.6894H196.685V36.4136Z" fill="url(#paint59_linear_7648_2472)"/>
<path d="M196.685 36.4136H200.601V49.6894H196.685V36.4136Z" fill="url(#paint60_radial_7648_2472)"/>
<path d="M218.883 36.4136H222.799V49.6894H218.883V36.4136Z" fill="url(#paint61_linear_7648_2472)"/>
<path d="M218.883 36.4136H222.799V49.6894H218.883V36.4136Z" fill="url(#paint62_radial_7648_2472)"/>
<path d="M14.9221 60.1848H50.9116V86.9396H14.9221V60.1848Z" fill="url(#paint63_linear_7648_2472)"/>
<path d="M14.9221 60.1848H50.9116V86.9396H14.9221V60.1848Z" fill="url(#paint64_linear_7648_2472)"/>
<path d="M14.9221 76.3838H32.1578V78.0424H14.9221V76.3838Z" fill="url(#paint65_linear_7648_2472)"/>
<path d="M14.9221 75.6626H32.1577V76.3838H14.9221V75.6626Z" fill="url(#paint66_linear_7648_2472)"/>
<path d="M14.9221 78.0603H32.1578V81.4137H14.9221V78.0603Z" fill="url(#paint67_linear_7648_2472)"/>
<path d="M14.9221 77.3391H32.1577V78.0603H14.9221V77.3391Z" fill="url(#paint68_linear_7648_2472)"/>
<path d="M14.9221 64.9443H32.1578V66.603H14.9221V64.9443Z" fill="url(#paint69_linear_7648_2472)"/>
<path d="M14.9221 64.2234H32.1577V64.9445H14.9221V64.2234Z" fill="url(#paint70_linear_7648_2472)"/>
<path d="M14.9221 66.6211H32.1578V69.9745H14.9221V66.6211Z" fill="url(#paint71_linear_7648_2472)"/>
<path d="M14.9221 65.8999H32.1577V66.6211H14.9221V65.8999Z" fill="url(#paint72_linear_7648_2472)"/>
<path d="M28.2061 44.3646H30.0811L30.4056 52.0088H43.2421L43.4945 44.2744H45.4416V86.9399H28.2061V44.3646Z" fill="url(#paint73_linear_7648_2472)"/>
<path d="M30.1365 52.0088H43.5126V86.9399H30.1365V52.0088Z" fill="url(#paint74_linear_7648_2472)"/>
<path d="M30.1365 52.0088H43.5126V86.9399H30.1365V52.0088Z" fill="url(#paint75_linear_7648_2472)"/>
<path d="M30.1353 52.0088H43.5114V86.9399H30.1353V52.0088Z" fill="url(#paint76_linear_7648_2472)"/>
<path d="M30.1353 52.0088H43.5114V86.9399H30.1353V52.0088Z" fill="url(#paint77_linear_7648_2472)"/>
<path d="M30.1353 52.0088H43.5114V86.9399H30.1353V52.0088Z" fill="url(#paint78_linear_7648_2472)"/>
<path d="M31.7478 52.0088H32.7905V86.9399H31.7478V52.0088Z" fill="url(#paint79_linear_7648_2472)"/>
<path d="M39.1755 52.0088H40.2183V86.9399H39.1755V52.0088Z" fill="url(#paint80_linear_7648_2472)"/>
<path d="M33.429 52.0088H34.4717V86.9399H33.429V52.0088Z" fill="url(#paint81_linear_7648_2472)"/>
<path d="M40.8579 52.0088H41.9006V86.9399H40.8579V52.0088Z" fill="url(#paint82_linear_7648_2472)"/>
<path d="M28.2061 75.0405H45.4417V76.6992H28.2061V75.0405Z" fill="url(#paint83_linear_7648_2472)"/>
<path d="M28.2061 74.3193H45.4416V75.0405H28.2061V74.3193Z" fill="url(#paint84_linear_7648_2472)"/>
<path d="M28.2061 76.7173H45.4417V80.0707H28.2061V76.7173Z" fill="url(#paint85_linear_7648_2472)"/>
<path d="M28.2061 75.9961H45.4416V76.7172H28.2061V75.9961Z" fill="url(#paint86_linear_7648_2472)"/>
<path d="M28.2061 63.6013H45.4417V65.26H28.2061V63.6013Z" fill="url(#paint87_linear_7648_2472)"/>
<path d="M28.2061 62.8801H45.4416V63.6013H28.2061V62.8801Z" fill="url(#paint88_linear_7648_2472)"/>
<path d="M28.2061 65.2781H45.4417V68.6314H28.2061V65.2781Z" fill="url(#paint89_linear_7648_2472)"/>
<path d="M28.2061 64.5569H45.4416V65.278H28.2061V64.5569Z" fill="url(#paint90_linear_7648_2472)"/>
<path d="M32.9892 44.9075H40.6599C41.5475 49.5226 43.8069 51.4373 43.8069 51.4373V52.3717H29.8423V51.4373C29.8423 51.4373 31.8841 49.4506 32.9892 44.9075Z" fill="url(#paint91_linear_7648_2472)"/>
<path d="M32.9892 44.9075H40.6599C41.5475 49.5226 43.8069 51.4373 43.8069 51.4373V52.3717H29.8423V51.4373C29.8423 51.4373 31.8841 49.4506 32.9892 44.9075Z" fill="url(#paint92_linear_7648_2472)"/>
<path d="M51.9951 32.0237H65.9257V45.3223H51.9951V32.0237Z" fill="url(#paint93_linear_7648_2472)"/>
<path d="M51.9951 32.0237H65.9257V45.3223H51.9951V32.0237Z" fill="url(#paint94_linear_7648_2472)"/>
<path d="M53.5547 32.0237H64.3659V45.3223H53.5547V32.0237Z" fill="url(#paint95_linear_7648_2472)"/>
<path d="M53.5547 32.0237H64.3659V45.3223H53.5547V32.0237Z" fill="url(#paint96_linear_7648_2472)"/>
<path d="M53.5547 32.0237H64.3659V45.3223H53.5547V32.0237Z" fill="url(#paint97_linear_7648_2472)"/>
<path d="M53.5547 32.0237H64.3659V45.3223H53.5547V32.0237Z" fill="url(#paint98_linear_7648_2472)"/>
<path d="M53.5547 32.0237H64.3659V45.3223H53.5547V32.0237Z" fill="url(#paint99_linear_7648_2472)"/>
<path d="M54.8572 32.0237H55.7V45.3223H54.8572V32.0237Z" fill="url(#paint100_linear_7648_2472)"/>
<path d="M60.8608 32.0237H61.7036V45.3223H60.8608V32.0237Z" fill="url(#paint101_linear_7648_2472)"/>
<path d="M56.2161 32.0237H57.0588V45.3223H56.2161V32.0237Z" fill="url(#paint102_linear_7648_2472)"/>
<path d="M62.2209 32.0237H63.0637V45.3223H62.2209V32.0237Z" fill="url(#paint103_linear_7648_2472)"/>
<path d="M55.1311 20.0076H62.6474V27.1829H55.1311V20.0076Z" fill="url(#paint104_linear_7648_2472)"/>
<path d="M55.1311 20.0076H62.6474V27.1829H55.1311V20.0076Z" fill="url(#paint105_linear_7648_2472)"/>
<path d="M55.9717 20.0076H61.8049V27.1829H55.9717V20.0076Z" fill="url(#paint106_linear_7648_2472)"/>
<path d="M55.9717 20.0076H61.8049V27.1829H55.9717V20.0076Z" fill="url(#paint107_linear_7648_2472)"/>
<path d="M55.9717 20.0076H61.8049V27.1829H55.9717V20.0076Z" fill="url(#paint108_linear_7648_2472)"/>
<path d="M55.9717 20.0076H61.8049V27.1829H55.9717V20.0076Z" fill="url(#paint109_linear_7648_2472)"/>
<path d="M55.9717 20.0076H61.8049V27.1829H55.9717V20.0076Z" fill="url(#paint110_linear_7648_2472)"/>
<path d="M56.6748 20.0076H57.1295V27.1829H56.6748V20.0076Z" fill="url(#paint111_linear_7648_2472)"/>
<path d="M59.9143 20.0076H60.369V27.1829H59.9143V20.0076Z" fill="url(#paint112_linear_7648_2472)"/>
<path d="M57.4084 20.0076H57.8632V27.1829H57.4084V20.0076Z" fill="url(#paint113_linear_7648_2472)"/>
<path d="M60.6479 20.0076H61.1027V27.1829H60.6479V20.0076Z" fill="url(#paint114_linear_7648_2472)"/>
<path d="M50.3433 52.0088H67.5788V86.9399H50.3433V52.0088Z" fill="url(#paint115_linear_7648_2472)"/>
<path d="M50.3433 52.0088H67.5788V86.9399H50.3433V52.0088Z" fill="url(#paint116_linear_7648_2472)"/>
<path d="M52.2734 52.0088H65.6496V86.9399H52.2734V52.0088Z" fill="url(#paint117_linear_7648_2472)"/>
<path d="M52.2734 52.0088H65.6496V86.9399H52.2734V52.0088Z" fill="url(#paint118_linear_7648_2472)"/>
<path d="M52.2725 52.0088H65.6486V86.9399H52.2725V52.0088Z" fill="url(#paint119_linear_7648_2472)"/>
<path d="M52.2725 52.0088H65.6486V86.9399H52.2725V52.0088Z" fill="url(#paint120_linear_7648_2472)"/>
<path d="M52.2725 52.0088H65.6486V86.9399H52.2725V52.0088Z" fill="url(#paint121_linear_7648_2472)"/>
<path d="M53.8848 52.0088H54.9275V86.9399H53.8848V52.0088Z" fill="url(#paint122_linear_7648_2472)"/>
<path d="M61.3127 52.0088H62.3555V86.9399H61.3127V52.0088Z" fill="url(#paint123_linear_7648_2472)"/>
<path d="M55.5662 52.0088H56.6089V86.9399H55.5662V52.0088Z" fill="url(#paint124_linear_7648_2472)"/>
<path d="M62.9951 52.0088H64.0378V86.9399H62.9951V52.0088Z" fill="url(#paint125_linear_7648_2472)"/>
<path d="M48.8289 37.1799H69.0933V52.2894H48.8289V37.1799Z" fill="url(#paint126_linear_7648_2472)"/>
<path d="M51.0984 37.1799H66.8252V52.2894H51.0984V37.1799Z" fill="url(#paint127_linear_7648_2472)"/>
<path d="M51.0984 37.1799H66.8252V52.2894H51.0984V37.1799Z" fill="url(#paint128_linear_7648_2472)"/>
<path d="M51.095 37.1799H52.3209V52.2894H51.095V37.1799Z" fill="url(#paint129_linear_7648_2472)"/>
<path d="M63.6216 37.1799H64.8475V52.2894H63.6216V37.1799Z" fill="url(#paint130_linear_7648_2472)"/>
<path d="M53.0725 37.1799H54.2985V52.2894H53.0725V37.1799Z" fill="url(#paint131_linear_7648_2472)"/>
<path d="M65.5979 37.1799H66.8239V52.2894H65.5979V37.1799Z" fill="url(#paint132_linear_7648_2472)"/>
<path d="M64.847 44.7765C64.847 48.0273 62.2117 50.6627 58.9608 50.6627C55.71 50.6627 53.0747 48.0273 53.0747 44.7765C53.0747 41.5257 55.71 38.8904 58.9608 38.8904C62.2117 38.8904 64.847 41.5257 64.847 44.7765Z" fill="url(#paint133_radial_7648_2472)"/>
<path fill-rule="evenodd" clip-rule="evenodd" d="M58.9603 39.867C56.2485 39.867 54.0501 42.0654 54.0501 44.7772C54.0501 47.489 56.2485 49.6874 58.9603 49.6874C61.6721 49.6874 63.8705 47.489 63.8705 44.7772C63.8705 42.0654 61.6721 39.867 58.9603 39.867ZM53.6809 44.7772C53.6809 41.8615 56.0446 39.4978 58.9603 39.4978C61.876 39.4978 64.2397 41.8615 64.2397 44.7772C64.2397 47.6929 61.876 50.0566 58.9603 50.0566C56.0446 50.0566 53.6809 47.6929 53.6809 44.7772Z" fill="black"/>
<path fill-rule="evenodd" clip-rule="evenodd" d="M58.9601 41.0987C56.9285 41.0987 55.2816 42.7457 55.2816 44.7773C55.2816 46.8089 56.9285 48.4558 58.9601 48.4558C60.9918 48.4558 62.6387 46.8089 62.6387 44.7773C62.6387 42.7457 60.9918 41.0987 58.9601 41.0987ZM54.9124 44.7773C54.9124 42.5418 56.7246 40.7295 58.9601 40.7295C61.1957 40.7295 63.0079 42.5418 63.0079 44.7773C63.0079 47.0128 61.1957 48.8251 58.9601 48.8251C56.7246 48.8251 54.9124 47.0128 54.9124 44.7773Z" fill="black"/>
<path fill-rule="evenodd" clip-rule="evenodd" d="M56.8033 42.7328C56.8754 42.6607 56.9923 42.6607 57.0644 42.7328L59.1596 44.8279L60.6612 43.3263C60.7333 43.2542 60.8502 43.2542 60.9223 43.3263C60.9944 43.3984 60.9944 43.5153 60.9223 43.5874L59.1596 45.3501L56.8033 42.9939C56.7312 42.9218 56.7312 42.8049 56.8033 42.7328Z" fill="black"/>
<path d="M50.3433 63.6013H67.579V65.26H50.3433V63.6013Z" fill="url(#paint134_linear_7648_2472)"/>
<path d="M50.3433 62.8801H67.5788V63.6013H50.3433V62.8801Z" fill="url(#paint135_linear_7648_2472)"/>
<path d="M50.3433 65.2781H67.579V68.6314H50.3433V65.2781Z" fill="url(#paint136_linear_7648_2472)"/>
<path d="M50.3433 64.5569H67.5788V65.278H50.3433V64.5569Z" fill="url(#paint137_linear_7648_2472)"/>
<path d="M50.3433 75.0405H67.579V76.6992H50.3433V75.0405Z" fill="url(#paint138_linear_7648_2472)"/>
<path d="M50.3433 74.3193H67.5788V75.0405H50.3433V74.3193Z" fill="url(#paint139_linear_7648_2472)"/>
<path d="M50.3433 76.7173H67.579V80.0707H50.3433V76.7173Z" fill="url(#paint140_linear_7648_2472)"/>
<path d="M50.3433 75.9961H67.5788V76.7172H50.3433V75.9961Z" fill="url(#paint141_linear_7648_2472)"/>
<path d="M55.0542 24.5598H62.7249C63.6125 29.1749 65.8718 31.0897 65.8718 31.0897V32.024H51.9072V31.0897C51.9072 31.0897 53.949 29.1029 55.0542 24.5598Z" fill="url(#paint142_linear_7648_2472)"/>
<path d="M55.0542 24.5598H62.7249C63.6125 29.1749 65.8718 31.0897 65.8718 31.0897V32.024H51.9072V31.0897C51.9072 31.0897 53.949 29.1029 55.0542 24.5598Z" fill="url(#paint143_linear_7648_2472)"/>
<path d="M58.1316 9.79419H59.5559C60.4033 17.0598 62.7929 19.4846 62.7929 19.4846V20.007H54.9856V19.4846C54.9856 19.4846 57.5727 16.8976 58.1316 9.79419Z" fill="url(#paint144_linear_7648_2472)"/>
<path d="M58.1316 9.79419H59.5559C60.4033 17.0598 62.7929 19.4846 62.7929 19.4846V20.007H54.9856V19.4846C54.9856 19.4846 57.5727 16.8976 58.1316 9.79419Z" fill="url(#paint145_linear_7648_2472)"/>
<path d="M67.5789 59.3645L74.2169 63.9351V83.0771L67.5789 86.9399V59.3645Z" fill="url(#paint146_linear_7648_2472)"/>
<path d="M67.5789 59.3645L74.2169 63.9351V83.0771L67.5789 86.9399V59.3645Z" fill="url(#paint147_linear_7648_2472)"/>
<path d="M146.25 75.964L177.925 88.2315C178.935 85.1463 180.551 75.3411 176.243 71.5716C171.935 67.802 150.905 74.3934 146.25 75.964Z" fill="url(#paint148_linear_7648_2472)"/>
<path d="M146.25 75.964L177.925 88.2315C178.935 85.1463 180.551 75.3411 176.243 71.5716C171.935 67.802 150.905 74.3934 146.25 75.964Z" fill="url(#paint149_linear_7648_2472)"/>
<path d="M108.663 75.964L76.9866 88.2315C75.9769 85.1463 74.3613 75.3411 78.6693 71.5716C82.9773 67.802 104.007 74.3934 108.663 75.964Z" fill="url(#paint150_linear_7648_2472)"/>
<path d="M108.663 75.964L76.9866 88.2315C75.9769 85.1463 74.3613 75.3411 78.6693 71.5716C82.9773 67.802 104.007 74.3934 108.663 75.964Z" fill="url(#paint151_linear_7648_2472)"/>
<path d="M109.276 75.964L77.5997 88.2315C76.59 85.1463 74.9743 75.3411 79.2823 71.5716C83.5904 67.802 104.62 74.3934 109.276 75.964Z" fill="url(#paint152_linear_7648_2472)"/>
<path d="M109.276 75.964L77.5997 88.2315C76.59 85.1463 74.9743 75.3411 79.2823 71.5716C83.5904 67.802 104.62 74.3934 109.276 75.964Z" fill="url(#paint153_linear_7648_2472)"/>
<path d="M123.68 88.5312C123.68 89.8788 117.238 90.9712 109.292 90.9712C101.346 90.9712 94.9038 89.8788 94.9038 88.5312C94.9038 87.1835 101.346 86.0911 109.292 86.0911C117.238 86.0911 123.68 87.1835 123.68 88.5312Z" fill="url(#paint154_radial_7648_2472)"/>
<path d="M90.4801 88.5312C90.4801 89.8788 84.0383 90.9712 76.092 90.9712C68.1456 90.9712 61.7039 89.8788 61.7039 88.5312C61.7039 87.1835 68.1456 86.0911 76.092 86.0911C84.0383 86.0911 90.4801 87.1835 90.4801 88.5312Z" fill="url(#paint155_radial_7648_2472)"/>
<path d="M158.514 88.5312C158.514 89.8788 152.072 90.9712 144.126 90.9712C136.18 90.9712 129.738 89.8788 129.738 88.5312C129.738 87.1835 136.18 86.0911 144.126 86.0911C152.072 86.0911 158.514 87.1835 158.514 88.5312Z" fill="url(#paint156_radial_7648_2472)"/>
<path d="M193.349 88.5312C193.349 89.8788 186.907 90.9712 178.961 90.9712C171.015 90.9712 164.573 89.8788 164.573 88.5312C164.573 87.1835 171.015 86.0911 178.961 86.0911C186.907 86.0911 193.349 87.1835 193.349 88.5312Z" fill="url(#paint157_radial_7648_2472)"/>
<path fill-rule="evenodd" clip-rule="evenodd" d="M182.861 66.7271H72.636V84.4527H76.4892C76.4084 84.0025 76.3667 83.5439 76.3667 83.0786C76.3667 76.9984 83.4775 72.0694 92.2491 72.0694C101.021 72.0694 108.131 76.9984 108.131 83.0786C108.131 83.5439 108.09 84.0025 108.009 84.4527H112.259C112.178 84.0025 112.136 83.5439 112.136 83.0786C112.136 76.9984 119.247 72.0694 128.019 72.0694C136.79 72.0694 143.901 76.9984 143.901 83.0786C143.901 83.5439 143.86 84.0025 143.779 84.4527H147.487C147.406 84.0025 147.364 83.5439 147.364 83.0786C147.364 76.9984 154.475 72.0694 163.247 72.0694C172.018 72.0694 179.129 76.9984 179.129 83.0786C179.129 83.5439 179.087 84.0025 179.007 84.4527H182.861V66.7271Z" fill="url(#paint158_linear_7648_2472)"/>
<path fill-rule="evenodd" clip-rule="evenodd" d="M182.861 66.7271H72.636V84.4527H76.4892C76.4084 84.0025 76.3667 83.5439 76.3667 83.0786C76.3667 76.9984 83.4775 72.0694 92.2491 72.0694C101.021 72.0694 108.131 76.9984 108.131 83.0786C108.131 83.5439 108.09 84.0025 108.009 84.4527H112.259C112.178 84.0025 112.136 83.5439 112.136 83.0786C112.136 76.9984 119.247 72.0694 128.019 72.0694C136.79 72.0694 143.901 76.9984 143.901 83.0786C143.901 83.5439 143.86 84.0025 143.779 84.4527H147.487C147.406 84.0025 147.364 83.5439 147.364 83.0786C147.364 76.9984 154.475 72.0694 163.247 72.0694C172.018 72.0694 179.129 76.9984 179.129 83.0786C179.129 83.5439 179.087 84.0025 179.007 84.4527H182.861V66.7271Z" fill="url(#paint159_radial_7648_2472)"/>
<path fill-rule="evenodd" clip-rule="evenodd" d="M182.861 66.7271H72.636V84.4527H76.4892C76.4084 84.0025 76.3667 83.5439 76.3667 83.0786C76.3667 76.9984 83.4775 72.0694 92.2491 72.0694C101.021 72.0694 108.131 76.9984 108.131 83.0786C108.131 83.5439 108.09 84.0025 108.009 84.4527H112.259C112.178 84.0025 112.136 83.5439 112.136 83.0786C112.136 76.9984 119.247 72.0694 128.019 72.0694C136.79 72.0694 143.901 76.9984 143.901 83.0786C143.901 83.5439 143.86 84.0025 143.779 84.4527H147.487C147.406 84.0025 147.364 83.5439 147.364 83.0786C147.364 76.9984 154.475 72.0694 163.247 72.0694C172.018 72.0694 179.129 76.9984 179.129 83.0786C179.129 83.5439 179.087 84.0025 179.007 84.4527H182.861V66.7271Z" fill="url(#paint160_radial_7648_2472)"/>
<path fill-rule="evenodd" clip-rule="evenodd" d="M182.861 66.7271H72.636V84.4527H76.4892C76.4084 84.0025 76.3667 83.5439 76.3667 83.0786C76.3667 76.9984 83.4775 72.0694 92.2491 72.0694C101.021 72.0694 108.131 76.9984 108.131 83.0786C108.131 83.5439 108.09 84.0025 108.009 84.4527H112.259C112.178 84.0025 112.136 83.5439 112.136 83.0786C112.136 76.9984 119.247 72.0694 128.019 72.0694C136.79 72.0694 143.901 76.9984 143.901 83.0786C143.901 83.5439 143.86 84.0025 143.779 84.4527H147.487C147.406 84.0025 147.364 83.5439 147.364 83.0786C147.364 76.9984 154.475 72.0694 163.247 72.0694C172.018 72.0694 179.129 76.9984 179.129 83.0786C179.129 83.5439 179.087 84.0025 179.007 84.4527H182.861V66.7271Z" fill="url(#paint161_radial_7648_2472)"/>
<path d="M106.066 67.0363C106.066 65.2544 107.51 63.8098 109.292 63.8098L-nan -nanL109.292 63.8098C111.074 63.8098 112.519 65.2544 112.519 67.0363V88.6547H106.066V67.0363Z" fill="url(#paint162_linear_7648_2472)"/>
<path d="M106.066 67.0363C106.066 65.2544 107.51 63.8098 109.292 63.8098L-nan -nanL109.292 63.8098C111.074 63.8098 112.519 65.2544 112.519 67.0363V88.6547H106.066V67.0363Z" fill="url(#paint163_radial_7648_2472)"/>
<path d="M106.066 67.0363C106.066 65.2544 107.51 63.8098 109.292 63.8098L-nan -nanL109.292 63.8098C111.074 63.8098 112.519 65.2544 112.519 67.0363V88.6547H106.066V67.0363Z" fill="url(#paint164_linear_7648_2472)"/>
<path d="M142.416 67.0363C142.416 65.2544 143.86 63.8098 145.642 63.8098L-nan -nanL145.642 63.8098C147.424 63.8098 148.869 65.2544 148.869 67.0363V88.6547H142.416V67.0363Z" fill="url(#paint165_linear_7648_2472)"/>
<path d="M142.416 67.0363C142.416 65.2544 143.86 63.8098 145.642 63.8098L-nan -nanL145.642 63.8098C147.424 63.8098 148.869 65.2544 148.869 67.0363V88.6547H142.416V67.0363Z" fill="url(#paint166_radial_7648_2472)"/>
<path d="M142.416 67.0363C142.416 65.2544 143.86 63.8098 145.642 63.8098L-nan -nanL145.642 63.8098C147.424 63.8098 148.869 65.2544 148.869 67.0363V88.6547H142.416V67.0363Z" fill="url(#paint167_linear_7648_2472)"/>
<path d="M177.329 67.0363C177.329 65.2544 178.774 63.8098 180.556 63.8098L-nan -nanL180.556 63.8098C182.338 63.8098 183.782 65.2544 183.782 67.0363V88.6547H177.329V67.0363Z" fill="url(#paint168_linear_7648_2472)"/>
<path d="M177.329 67.0363C177.329 65.2544 178.774 63.8098 180.556 63.8098L-nan -nanL180.556 63.8098C182.338 63.8098 183.782 65.2544 183.782 67.0363V88.6547H177.329V67.0363Z" fill="url(#paint169_radial_7648_2472)"/>
<path d="M177.329 67.0363C177.329 65.2544 178.774 63.8098 180.556 63.8098L-nan -nanL180.556 63.8098C182.338 63.8098 183.782 65.2544 183.782 67.0363V88.6547H177.329V67.0363Z" fill="url(#paint170_linear_7648_2472)"/>
<path d="M71.1721 67.0363C71.1721 65.2544 72.6167 63.8098 74.3986 63.8098L-nan -nanL74.3986 63.8098C76.1806 63.8098 77.6251 65.2544 77.6251 67.0363V88.6547H71.1721V67.0363Z" fill="url(#paint171_linear_7648_2472)"/>
<path d="M71.1721 67.0363C71.1721 65.2544 72.6167 63.8098 74.3986 63.8098L-nan -nanL74.3986 63.8098C76.1806 63.8098 77.6251 65.2544 77.6251 67.0363V88.6547H71.1721V67.0363Z" fill="url(#paint172_radial_7648_2472)"/>
<path d="M71.1721 67.0363C71.1721 65.2544 72.6167 63.8098 74.3986 63.8098L-nan -nanL74.3986 63.8098C76.1806 63.8098 77.6251 65.2544 77.6251 67.0363V88.6547H71.1721V67.0363Z" fill="url(#paint173_linear_7648_2472)"/>
<defs>
<radialGradient id="paint0_radial_7648_2472" cx="0" cy="0" r="1" gradientUnits="userSpaceOnUse" gradientTransform="translate(125.192 81.0577) rotate(0.915606) scale(126.362 48.1076)">
<stop stop-color="#97B5CB"/>
<stop offset="0.570156" stop-color="#459FDF"/>
<stop offset="0.995" stop-color="#136C6C"/>
</radialGradient>
<linearGradient id="paint1_linear_7648_2472" x1="175.611" y1="67.086" x2="165.753" y2="30.2826" gradientUnits="userSpaceOnUse">
<stop stop-color="#0C6F1C"/>
<stop offset="1" stop-color="#FFBA11"/>
</linearGradient>
<radialGradient id="paint2_radial_7648_2472" cx="0" cy="0" r="1" gradientUnits="userSpaceOnUse" gradientTransform="translate(144.127 52.22) rotate(6.7099) scale(41.2562 13.3301)">
<stop stop-color="#FFC580"/>
<stop offset="1" stop-color="#3ABB74" stop-opacity="0"/>
</radialGradient>
<linearGradient id="paint3_linear_7648_2472" x1="108.143" y1="70.0478" x2="89.2141" y2="25.1252" gradientUnits="userSpaceOnUse">
<stop stop-color="#0C6F1C"/>
<stop offset="1" stop-color="#FFBA11"/>
</linearGradient>
<radialGradient id="paint4_radial_7648_2472" cx="0" cy="0" r="1" gradientUnits="userSpaceOnUse" gradientTransform="translate(81.3035 50.1107) rotate(10.4857) scale(35.5228 17.6999)">
<stop stop-color="#FFC580"/>
<stop offset="1" stop-color="#3ABB74" stop-opacity="0"/>
</radialGradient>
<linearGradient id="paint5_linear_7648_2472" x1="97.5267" y1="67.654" x2="88.0876" y2="32.4128" gradientUnits="userSpaceOnUse">
<stop stop-color="#0C6F1C"/>
<stop offset="1" stop-color="#FFBA11"/>
</linearGradient>
<radialGradient id="paint6_radial_7648_2472" cx="0" cy="0" r="1" gradientUnits="userSpaceOnUse" gradientTransform="translate(67.3794 53.419) rotate(6.7099) scale(39.5049 12.7642)">
<stop stop-color="#FFC580"/>
<stop offset="1" stop-color="#3ABB74" stop-opacity="0"/>
</radialGradient>
<linearGradient id="paint7_linear_7648_2472" x1="175.992" y1="22.865" x2="175.992" y2="64.8654" gradientUnits="userSpaceOnUse">
<stop stop-color="#9FF0F9"/>
<stop offset="1" stop-color="#A3A3FF"/>
</linearGradient>
<linearGradient id="paint8_linear_7648_2472" x1="165.819" y1="42.3175" x2="176.16" y2="69.7822" gradientUnits="userSpaceOnUse">
<stop stop-color="#70777D" stop-opacity="0"/>
<stop offset="1" stop-color="#70777D"/>
</linearGradient>
<linearGradient id="paint9_linear_7648_2472" x1="171.627" y1="19.129" x2="174.936" y2="31.612" gradientUnits="userSpaceOnUse">
<stop stop-color="#9FF0F9"/>
<stop offset="1" stop-color="#A3A3FF"/>
</linearGradient>
<radialGradient id="paint10_radial_7648_2472" cx="0" cy="0" r="1" gradientUnits="userSpaceOnUse" gradientTransform="translate(172.229 23.7914) rotate(79.179) scale(5.50589 7.53589)">
<stop stop-color="white"/>
<stop offset="1" stop-color="white" stop-opacity="0"/>
</radialGradient>
<radialGradient id="paint11_radial_7648_2472" cx="0" cy="0" r="1" gradientUnits="userSpaceOnUse" gradientTransform="translate(172.379 24.3929) rotate(81.2142) scale(5.78295 7.91511)">
<stop offset="0.196039" stop-color="#70777D" stop-opacity="0"/>
<stop offset="1" stop-color="#70777D"/>
</radialGradient>
<linearGradient id="paint12_linear_7648_2472" x1="181.038" y1="23.9498" x2="184.467" y2="36.8877" gradientUnits="userSpaceOnUse">
<stop stop-color="#9FF0F9"/>
<stop offset="1" stop-color="#A3A3FF"/>
</linearGradient>
<radialGradient id="paint13_radial_7648_2472" cx="0" cy="0" r="1" gradientUnits="userSpaceOnUse" gradientTransform="translate(181.661 28.782) rotate(79.179) scale(5.70655 7.81055)">
<stop stop-color="white"/>
<stop offset="1" stop-color="white" stop-opacity="0"/>
</radialGradient>
<radialGradient id="paint14_radial_7648_2472" cx="0" cy="0" r="1" gradientUnits="userSpaceOnUse" gradientTransform="translate(181.817 29.4055) rotate(81.2142) scale(5.99371 8.20358)">
<stop offset="0.196039" stop-color="#70777D" stop-opacity="0"/>
<stop offset="1" stop-color="#70777D"/>
</radialGradient>
<linearGradient id="paint15_linear_7648_2472" x1="182.898" y1="36.3333" x2="186.328" y2="49.2713" gradientUnits="userSpaceOnUse">
<stop stop-color="#9FF0F9"/>
<stop offset="1" stop-color="#A3A3FF"/>
</linearGradient>
<radialGradient id="paint16_radial_7648_2472" cx="0" cy="0" r="1" gradientUnits="userSpaceOnUse" gradientTransform="translate(183.522 41.1656) rotate(79.179) scale(5.70655 7.81055)">
<stop stop-color="white"/>
<stop offset="1" stop-color="white" stop-opacity="0"/>
</radialGradient>
<radialGradient id="paint17_radial_7648_2472" cx="0" cy="0" r="1" gradientUnits="userSpaceOnUse" gradientTransform="translate(183.678 41.7891) rotate(81.2142) scale(5.99371 8.20358)">
<stop offset="0.196039" stop-color="#70777D" stop-opacity="0"/>
<stop offset="1" stop-color="#70777D"/>
</radialGradient>
<linearGradient id="paint18_linear_7648_2472" x1="182.018" y1="47.7996" x2="185.448" y2="60.7376" gradientUnits="userSpaceOnUse">
<stop stop-color="#9FF0F9"/>
<stop offset="1" stop-color="#A3A3FF"/>
</linearGradient>
<radialGradient id="paint19_radial_7648_2472" cx="0" cy="0" r="1" gradientUnits="userSpaceOnUse" gradientTransform="translate(182.642 52.6319) rotate(79.179) scale(5.70655 7.81055)">
<stop stop-color="white"/>
<stop offset="1" stop-color="white" stop-opacity="0"/>
</radialGradient>
<radialGradient id="paint20_radial_7648_2472" cx="0" cy="0" r="1" gradientUnits="userSpaceOnUse" gradientTransform="translate(182.798 53.2554) rotate(81.2142) scale(5.99371 8.20358)">
<stop offset="0.196039" stop-color="#70777D" stop-opacity="0"/>
<stop offset="1" stop-color="#70777D"/>
</radialGradient>
<linearGradient id="paint21_linear_7648_2472" x1="165.869" y1="28.7565" x2="169.178" y2="41.2395" gradientUnits="userSpaceOnUse">
<stop stop-color="#9FF0F9"/>
<stop offset="1" stop-color="#A3A3FF"/>
</linearGradient>
<radialGradient id="paint22_radial_7648_2472" cx="0" cy="0" r="1" gradientUnits="userSpaceOnUse" gradientTransform="translate(166.471 33.4188) rotate(79.179) scale(5.50589 7.53589)">
<stop stop-color="white"/>
<stop offset="1" stop-color="white" stop-opacity="0"/>
</radialGradient>
<radialGradient id="paint23_radial_7648_2472" cx="0" cy="0" r="1" gradientUnits="userSpaceOnUse" gradientTransform="translate(166.621 34.0204) rotate(81.2142) scale(5.78295 7.91511)">
<stop offset="0.196039" stop-color="#70777D" stop-opacity="0"/>
<stop offset="1" stop-color="#70777D"/>
</radialGradient>
<linearGradient id="paint24_linear_7648_2472" x1="165.869" y1="42.6669" x2="169.178" y2="55.1499" gradientUnits="userSpaceOnUse">
<stop stop-color="#9FF0F9"/>
<stop offset="1" stop-color="#A3A3FF"/>
</linearGradient>
<radialGradient id="paint25_radial_7648_2472" cx="0" cy="0" r="1" gradientUnits="userSpaceOnUse" gradientTransform="translate(166.471 47.3292) rotate(79.179) scale(5.50589 7.53589)">
<stop stop-color="white"/>
<stop offset="1" stop-color="white" stop-opacity="0"/>
</radialGradient>
<radialGradient id="paint26_radial_7648_2472" cx="0" cy="0" r="1" gradientUnits="userSpaceOnUse" gradientTransform="translate(166.621 47.9308) rotate(81.2142) scale(5.78295 7.91511)">
<stop offset="0.196039" stop-color="#70777D" stop-opacity="0"/>
<stop offset="1" stop-color="#70777D"/>
</radialGradient>
<linearGradient id="paint27_linear_7648_2472" x1="171.627" y1="55.8302" x2="174.936" y2="68.3132" gradientUnits="userSpaceOnUse">
<stop stop-color="#9FF0F9"/>
<stop offset="1" stop-color="#A3A3FF"/>
</linearGradient>
<radialGradient id="paint28_radial_7648_2472" cx="0" cy="0" r="1" gradientUnits="userSpaceOnUse" gradientTransform="translate(172.229 60.4925) rotate(79.179) scale(5.50589 7.53589)">
<stop stop-color="white"/>
<stop offset="1" stop-color="white" stop-opacity="0"/>
</radialGradient>
<radialGradient id="paint29_radial_7648_2472" cx="0" cy="0" r="1" gradientUnits="userSpaceOnUse" gradientTransform="translate(172.379 61.0941) rotate(81.2142) scale(5.78295 7.91511)">
<stop offset="0.196039" stop-color="#70777D" stop-opacity="0"/>
<stop offset="1" stop-color="#70777D"/>
</radialGradient>
<linearGradient id="paint30_linear_7648_2472" x1="162.26" y1="71.2515" x2="178.73" y2="32.1626" gradientUnits="userSpaceOnUse">
<stop stop-color="#0C6F1C"/>
<stop offset="1" stop-color="#FFBA11"/>
</linearGradient>
<radialGradient id="paint31_radial_7648_2472" cx="0" cy="0" r="1" gradientUnits="userSpaceOnUse" gradientTransform="translate(185.614 53.9035) rotate(169.514) scale(30.9097 15.4014)">
<stop stop-color="#FFC580"/>
<stop offset="1" stop-color="#3ABB74" stop-opacity="0"/>
</radialGradient>
<radialGradient id="paint32_radial_7648_2472" cx="0" cy="0" r="1" gradientUnits="userSpaceOnUse" gradientTransform="translate(49.7797 87.7353) scale(39.9314 3.23625)">
<stop stop-color="#2052CB" stop-opacity="0.7"/>
<stop offset="1" stop-color="#2052CB" stop-opacity="0"/>
</radialGradient>
<radialGradient id="paint33_radial_7648_2472" cx="0" cy="0" r="1" gradientUnits="userSpaceOnUse" gradientTransform="translate(199.8 87.7353) scale(39.9314 3.23625)">
<stop stop-color="#2052CB" stop-opacity="0.7"/>
<stop offset="1" stop-color="#2052CB" stop-opacity="0"/>
</radialGradient>
<linearGradient id="paint34_linear_7648_2472" x1="191.587" y1="4.48442" x2="238.626" y2="88.4453" gradientUnits="userSpaceOnUse">
<stop stop-color="#B3E0FF"/>
<stop offset="1" stop-color="#E0B09C"/>
</linearGradient>
<radialGradient id="paint35_radial_7648_2472" cx="0" cy="0" r="1" gradientUnits="userSpaceOnUse" gradientTransform="translate(199.306 88.2918) rotate(-90) scale(39.2002 30.5362)">
<stop stop-color="#FFE4BE"/>
<stop offset="1" stop-color="#FFDAC2" stop-opacity="0"/>
</radialGradient>
<linearGradient id="paint36_linear_7648_2472" x1="181.544" y1="4.48381" x2="214.335" y2="15.2895" gradientUnits="userSpaceOnUse">
<stop stop-color="#B3E0FF"/>
<stop offset="1" stop-color="#E0B09C"/>
</linearGradient>
<radialGradient id="paint37_radial_7648_2472" cx="0" cy="0" r="1" gradientUnits="userSpaceOnUse" gradientTransform="translate(182.969 88.2912) rotate(-90) scale(39.2002 5.6376)">
<stop stop-color="#FFE4BE"/>
<stop offset="1" stop-color="#FFDAC2" stop-opacity="0"/>
</radialGradient>
<linearGradient id="paint38_linear_7648_2472" x1="194.312" y1="62.2766" x2="189.023" y2="29.5201" gradientUnits="userSpaceOnUse">
<stop stop-color="#835F5F"/>
<stop offset="1" stop-color="#FFF3EB"/>
</linearGradient>
<linearGradient id="paint39_linear_7648_2472" x1="150.159" y1="62.2764" x2="144.87" y2="29.52" gradientUnits="userSpaceOnUse">
<stop stop-color="#835F5F"/>
<stop offset="1" stop-color="#FFF3EB"/>
</linearGradient>
<linearGradient id="paint40_linear_7648_2472" x1="191.224" y1="58.1614" x2="196.62" y2="65.1346" gradientUnits="userSpaceOnUse">
<stop stop-color="#220D54"/>
<stop offset="1" stop-color="#5B3B04" stop-opacity="0"/>
</linearGradient>
<linearGradient id="paint41_linear_7648_2472" x1="191.224" y1="66.1526" x2="196.62" y2="73.1258" gradientUnits="userSpaceOnUse">
<stop stop-color="#220D54"/>
<stop offset="1" stop-color="#5B3B04" stop-opacity="0"/>
</linearGradient>
<linearGradient id="paint42_linear_7648_2472" x1="191.224" y1="73.5851" x2="199.932" y2="80.63" gradientUnits="userSpaceOnUse">
<stop stop-color="#220D54"/>
<stop offset="1" stop-color="#5B3B04" stop-opacity="0"/>
</linearGradient>
<linearGradient id="paint43_linear_7648_2472" x1="198.732" y1="58.1614" x2="204.128" y2="65.1346" gradientUnits="userSpaceOnUse">
<stop stop-color="#220D54"/>
<stop offset="1" stop-color="#5B3B04" stop-opacity="0"/>
</linearGradient>
<linearGradient id="paint44_linear_7648_2472" x1="198.732" y1="66.1526" x2="204.128" y2="73.1258" gradientUnits="userSpaceOnUse">
<stop stop-color="#220D54"/>
<stop offset="1" stop-color="#5B3B04" stop-opacity="0"/>
</linearGradient>
<linearGradient id="paint45_linear_7648_2472" x1="198.732" y1="73.5851" x2="207.44" y2="80.63" gradientUnits="userSpaceOnUse">
<stop stop-color="#220D54"/>
<stop offset="1" stop-color="#5B3B04" stop-opacity="0"/>
</linearGradient>
<linearGradient id="paint46_linear_7648_2472" x1="213.749" y1="58.1614" x2="219.145" y2="65.1346" gradientUnits="userSpaceOnUse">
<stop stop-color="#220D54"/>
<stop offset="1" stop-color="#5B3B04" stop-opacity="0"/>
</linearGradient>
<linearGradient id="paint47_linear_7648_2472" x1="213.749" y1="66.1526" x2="219.145" y2="73.1258" gradientUnits="userSpaceOnUse">
<stop stop-color="#220D54"/>
<stop offset="1" stop-color="#5B3B04" stop-opacity="0"/>
</linearGradient>
<linearGradient id="paint48_linear_7648_2472" x1="213.749" y1="73.5851" x2="222.457" y2="80.63" gradientUnits="userSpaceOnUse">
<stop stop-color="#220D54"/>
<stop offset="1" stop-color="#5B3B04" stop-opacity="0"/>
</linearGradient>
<linearGradient id="paint49_linear_7648_2472" x1="206.24" y1="58.1614" x2="211.636" y2="65.1346" gradientUnits="userSpaceOnUse">
<stop stop-color="#220D54"/>
<stop offset="1" stop-color="#5B3B04" stop-opacity="0"/>
</linearGradient>
<linearGradient id="paint50_linear_7648_2472" x1="206.24" y1="66.1526" x2="211.636" y2="73.1258" gradientUnits="userSpaceOnUse">
<stop stop-color="#220D54"/>
<stop offset="1" stop-color="#5B3B04" stop-opacity="0"/>
</linearGradient>
<linearGradient id="paint51_linear_7648_2472" x1="206.24" y1="73.5851" x2="214.948" y2="80.63" gradientUnits="userSpaceOnUse">
<stop stop-color="#220D54"/>
<stop offset="1" stop-color="#5B3B04" stop-opacity="0"/>
</linearGradient>
<linearGradient id="paint52_linear_7648_2472" x1="221.255" y1="58.1614" x2="226.651" y2="65.1346" gradientUnits="userSpaceOnUse">
<stop stop-color="#220D54"/>
<stop offset="1" stop-color="#5B3B04" stop-opacity="0"/>
</linearGradient>
<linearGradient id="paint53_linear_7648_2472" x1="221.255" y1="66.1526" x2="226.651" y2="73.1258" gradientUnits="userSpaceOnUse">
<stop stop-color="#220D54"/>
<stop offset="1" stop-color="#5B3B04" stop-opacity="0"/>
</linearGradient>
<linearGradient id="paint54_linear_7648_2472" x1="221.255" y1="73.5851" x2="229.964" y2="80.63" gradientUnits="userSpaceOnUse">
<stop stop-color="#220D54"/>
<stop offset="1" stop-color="#5B3B04" stop-opacity="0"/>
</linearGradient>
<linearGradient id="paint55_linear_7648_2472" x1="209.741" y1="74.1964" x2="209.741" y2="77.2374" gradientUnits="userSpaceOnUse">
<stop stop-color="#4A0829"/>
<stop offset="1" stop-color="#C09476" stop-opacity="0"/>
</linearGradient>
<linearGradient id="paint56_linear_7648_2472" x1="194.093" y1="79.0788" x2="193.948" y2="74.0307" gradientUnits="userSpaceOnUse">
<stop stop-color="#986206"/>
<stop offset="1" stop-color="#FFF9FA"/>
</linearGradient>
<linearGradient id="paint57_linear_7648_2472" x1="209.741" y1="56.2679" x2="209.741" y2="59.3089" gradientUnits="userSpaceOnUse">
<stop stop-color="#4A0829"/>
<stop offset="1" stop-color="#C09476" stop-opacity="0"/>
</linearGradient>
<linearGradient id="paint58_linear_7648_2472" x1="194.093" y1="61.1504" x2="193.948" y2="56.1022" gradientUnits="userSpaceOnUse">
<stop stop-color="#986206"/>
<stop offset="1" stop-color="#FFF9FA"/>
</linearGradient>
<linearGradient id="paint59_linear_7648_2472" x1="196.948" y1="14.145" x2="212.943" y2="20.329" gradientUnits="userSpaceOnUse">
<stop stop-color="#B3E0FF"/>
<stop offset="1" stop-color="#E0B09C"/>
</linearGradient>
<radialGradient id="paint60_radial_7648_2472" cx="0" cy="0" r="1" gradientUnits="userSpaceOnUse" gradientTransform="translate(197.669 50.2721) rotate(-90) scale(16.8982 2.8513)">
<stop stop-color="#FFE4BE"/>
<stop offset="1" stop-color="#FFDAC2" stop-opacity="0"/>
</radialGradient>
<linearGradient id="paint61_linear_7648_2472" x1="219.146" y1="14.145" x2="235.141" y2="20.329" gradientUnits="userSpaceOnUse">
<stop stop-color="#B3E0FF"/>
<stop offset="1" stop-color="#E0B09C"/>
</linearGradient>
<radialGradient id="paint62_radial_7648_2472" cx="0" cy="0" r="1" gradientUnits="userSpaceOnUse" gradientTransform="translate(219.867 50.2721) rotate(-90) scale(16.8982 2.8513)">
<stop stop-color="#FFE4BE"/>
<stop offset="1" stop-color="#FFDAC2" stop-opacity="0"/>
</radialGradient>
<linearGradient id="paint63_linear_7648_2472" x1="53.6221" y1="106.083" x2="21.3109" y2="43.4503" gradientUnits="userSpaceOnUse">
<stop stop-color="#7A4E05"/>
<stop offset="1" stop-color="#FFD1DA"/>
</linearGradient>
<linearGradient id="paint64_linear_7648_2472" x1="11.5383" y1="32.3077" x2="74.8484" y2="154.35" gradientUnits="userSpaceOnUse">
<stop stop-color="#4A0829"/>
<stop offset="0.561413" stop-color="#C09476" stop-opacity="0"/>
<stop offset="0.931304" stop-color="#C09476" stop-opacity="0"/>
</linearGradient>
<linearGradient id="paint65_linear_7648_2472" x1="23.54" y1="75.8771" x2="23.54" y2="77.3813" gradientUnits="userSpaceOnUse">
<stop offset="0.193008" stop-color="#4A0829"/>
<stop offset="1" stop-color="#C09476" stop-opacity="0"/>
</linearGradient>
<linearGradient id="paint66_linear_7648_2472" x1="17.0495" y1="77.4655" x2="17.0495" y2="75.1938" gradientUnits="userSpaceOnUse">
<stop stop-color="#7A4E05"/>
<stop offset="1" stop-color="#FFD1DA"/>
</linearGradient>
<linearGradient id="paint67_linear_7648_2472" x1="23.54" y1="77.036" x2="23.54" y2="80.077" gradientUnits="userSpaceOnUse">
<stop stop-color="#4A0829"/>
<stop offset="1" stop-color="#C09476" stop-opacity="0"/>
</linearGradient>
<linearGradient id="paint68_linear_7648_2472" x1="17.0495" y1="79.142" x2="17.0495" y2="76.8704" gradientUnits="userSpaceOnUse">
<stop stop-color="#7A4E05"/>
<stop offset="1" stop-color="#FFD1DA"/>
</linearGradient>
<linearGradient id="paint69_linear_7648_2472" x1="23.54" y1="64.4377" x2="23.54" y2="65.9418" gradientUnits="userSpaceOnUse">
<stop offset="0.193008" stop-color="#4A0829"/>
<stop offset="1" stop-color="#C09476" stop-opacity="0"/>
</linearGradient>
<linearGradient id="paint70_linear_7648_2472" x1="17.0495" y1="66.0263" x2="17.0495" y2="63.7546" gradientUnits="userSpaceOnUse">
<stop stop-color="#7A4E05"/>
<stop offset="1" stop-color="#FFD1DA"/>
</linearGradient>
<linearGradient id="paint71_linear_7648_2472" x1="23.54" y1="65.5968" x2="23.54" y2="68.6377" gradientUnits="userSpaceOnUse">
<stop stop-color="#4A0829"/>
<stop offset="1" stop-color="#C09476" stop-opacity="0"/>
</linearGradient>
<linearGradient id="paint72_linear_7648_2472" x1="17.0495" y1="67.7028" x2="17.0495" y2="65.4312" gradientUnits="userSpaceOnUse">
<stop stop-color="#7A4E05"/>
<stop offset="1" stop-color="#FFD1DA"/>
</linearGradient>
<linearGradient id="paint73_linear_7648_2472" x1="46.7397" y1="111.933" x2="-2.15698" y2="77.1665" gradientUnits="userSpaceOnUse">
<stop stop-color="#7A4E05"/>
<stop offset="1" stop-color="#FFD1DA"/>
</linearGradient>
<linearGradient id="paint74_linear_7648_2472" x1="41.1801" y1="133.369" x2="-13.9257" y2="89.7931" gradientUnits="userSpaceOnUse">
<stop stop-color="#7A4E05"/>
<stop offset="1" stop-color="#FFD1DA"/>
</linearGradient>
<linearGradient id="paint75_linear_7648_2472" x1="36.8246" y1="41.3386" x2="36.8246" y2="73.0157" gradientUnits="userSpaceOnUse">
<stop offset="0.163158" stop-color="#4A0829"/>
<stop offset="1" stop-color="#C09476" stop-opacity="0"/>
</linearGradient>
<linearGradient id="paint76_linear_7648_2472" x1="41.1789" y1="133.369" x2="-13.9269" y2="89.7931" gradientUnits="userSpaceOnUse">
<stop stop-color="#7A4E05"/>
<stop offset="1" stop-color="#FFD1DA"/>
</linearGradient>
<linearGradient id="paint77_linear_7648_2472" x1="31.7393" y1="35.5413" x2="59.8425" y2="63.0614" gradientUnits="userSpaceOnUse">
<stop offset="0.163158" stop-color="#4A0829"/>
<stop offset="1" stop-color="#C09476" stop-opacity="0"/>
</linearGradient>
<linearGradient id="paint78_linear_7648_2472" x1="36.8233" y1="41.3386" x2="36.8233" y2="73.0157" gradientUnits="userSpaceOnUse">
<stop offset="0.28504" stop-color="#4A0829"/>
<stop offset="0.561413" stop-color="#C09476" stop-opacity="0"/>
</linearGradient>
<linearGradient id="paint79_linear_7648_2472" x1="32.2692" y1="32.3356" x2="32.2692" y2="92.8556" gradientUnits="userSpaceOnUse">
<stop stop-color="#220D54"/>
<stop offset="1" stop-color="#5B3B04" stop-opacity="0"/>
</linearGradient>
<linearGradient id="paint80_linear_7648_2472" x1="39.6969" y1="32.3356" x2="39.6969" y2="92.8556" gradientUnits="userSpaceOnUse">
<stop stop-color="#220D54"/>
<stop offset="1" stop-color="#5B3B04" stop-opacity="0"/>
</linearGradient>
<linearGradient id="paint81_linear_7648_2472" x1="33.9503" y1="32.3356" x2="33.9503" y2="92.8556" gradientUnits="userSpaceOnUse">
<stop stop-color="#220D54"/>
<stop offset="1" stop-color="#5B3B04" stop-opacity="0"/>
</linearGradient>
<linearGradient id="paint82_linear_7648_2472" x1="41.3793" y1="32.3356" x2="41.3793" y2="92.8556" gradientUnits="userSpaceOnUse">
<stop stop-color="#220D54"/>
<stop offset="1" stop-color="#5B3B04" stop-opacity="0"/>
</linearGradient>
<linearGradient id="paint83_linear_7648_2472" x1="36.8239" y1="74.5339" x2="36.8239" y2="76.038" gradientUnits="userSpaceOnUse">
<stop offset="0.193008" stop-color="#4A0829"/>
<stop offset="1" stop-color="#C09476" stop-opacity="0"/>
</linearGradient>
<linearGradient id="paint84_linear_7648_2472" x1="30.3335" y1="76.1222" x2="30.3335" y2="73.8506" gradientUnits="userSpaceOnUse">
<stop stop-color="#7A4E05"/>
<stop offset="1" stop-color="#FFD1DA"/>
</linearGradient>
<linearGradient id="paint85_linear_7648_2472" x1="36.8239" y1="75.693" x2="36.8239" y2="78.7339" gradientUnits="userSpaceOnUse">
<stop stop-color="#4A0829"/>
<stop offset="1" stop-color="#C09476" stop-opacity="0"/>
</linearGradient>
<linearGradient id="paint86_linear_7648_2472" x1="30.3335" y1="77.799" x2="30.3335" y2="75.5273" gradientUnits="userSpaceOnUse">
<stop stop-color="#7A4E05"/>
<stop offset="1" stop-color="#FFD1DA"/>
</linearGradient>
<linearGradient id="paint87_linear_7648_2472" x1="36.8239" y1="63.0947" x2="36.8239" y2="64.5988" gradientUnits="userSpaceOnUse">
<stop offset="0.193008" stop-color="#4A0829"/>
<stop offset="1" stop-color="#C09476" stop-opacity="0"/>
</linearGradient>
<linearGradient id="paint88_linear_7648_2472" x1="30.3335" y1="64.683" x2="30.3335" y2="62.4114" gradientUnits="userSpaceOnUse">
<stop stop-color="#7A4E05"/>
<stop offset="1" stop-color="#FFD1DA"/>
</linearGradient>
<linearGradient id="paint89_linear_7648_2472" x1="36.8239" y1="64.2537" x2="36.8239" y2="67.2947" gradientUnits="userSpaceOnUse">
<stop stop-color="#4A0829"/>
<stop offset="1" stop-color="#C09476" stop-opacity="0"/>
</linearGradient>
<linearGradient id="paint90_linear_7648_2472" x1="30.3335" y1="66.3598" x2="30.3335" y2="64.0881" gradientUnits="userSpaceOnUse">
<stop stop-color="#7A4E05"/>
<stop offset="1" stop-color="#FFD1DA"/>
</linearGradient>
<linearGradient id="paint91_linear_7648_2472" x1="31.8841" y1="31.7101" x2="37.2206" y2="60.1235" gradientUnits="userSpaceOnUse">
<stop stop-color="#95EEF8"/>
<stop offset="1" stop-color="#767C83"/>
</linearGradient>
<linearGradient id="paint92_linear_7648_2472" x1="36.8246" y1="44.9075" x2="36.8246" y2="52.3717" gradientUnits="userSpaceOnUse">
<stop offset="0.763219" stop-color="#034C7A" stop-opacity="0"/>
<stop offset="0.96611" stop-color="#034C7A"/>
</linearGradient>
<linearGradient id="paint93_linear_7648_2472" x1="66.9748" y1="54.8375" x2="48.8266" y2="27.443" gradientUnits="userSpaceOnUse">
<stop stop-color="#7A4E05"/>
<stop offset="1" stop-color="#FFD1DA"/>
</linearGradient>
<linearGradient id="paint94_linear_7648_2472" x1="58.9604" y1="27.9614" x2="58.9604" y2="40.0212" gradientUnits="userSpaceOnUse">
<stop offset="0.28504" stop-color="#4A0829"/>
<stop offset="0.561413" stop-color="#C09476" stop-opacity="0"/>
</linearGradient>
<linearGradient id="paint95_linear_7648_2472" x1="62.4807" y1="62.9984" x2="43.5222" y2="31.1711" gradientUnits="userSpaceOnUse">
<stop stop-color="#7A4E05"/>
<stop offset="1" stop-color="#FFD1DA"/>
</linearGradient>
<linearGradient id="paint96_linear_7648_2472" x1="58.9603" y1="27.9614" x2="58.9603" y2="40.0212" gradientUnits="userSpaceOnUse">
<stop offset="0.163158" stop-color="#4A0829"/>
<stop offset="1" stop-color="#C09476" stop-opacity="0"/>
</linearGradient>
<linearGradient id="paint97_linear_7648_2472" x1="62.4807" y1="62.9984" x2="43.5222" y2="31.1711" gradientUnits="userSpaceOnUse">
<stop stop-color="#7A4E05"/>
<stop offset="1" stop-color="#FFD1DA"/>
</linearGradient>
<linearGradient id="paint98_linear_7648_2472" x1="54.8511" y1="25.7543" x2="63.2118" y2="43.1358" gradientUnits="userSpaceOnUse">
<stop offset="0.163158" stop-color="#4A0829"/>
<stop offset="1" stop-color="#C09476" stop-opacity="0"/>
</linearGradient>
<linearGradient id="paint99_linear_7648_2472" x1="58.9603" y1="27.9614" x2="58.9603" y2="40.0212" gradientUnits="userSpaceOnUse">
<stop offset="0.28504" stop-color="#4A0829"/>
<stop offset="0.561413" stop-color="#C09476" stop-opacity="0"/>
</linearGradient>
<linearGradient id="paint100_linear_7648_2472" x1="55.2786" y1="24.5339" x2="55.2786" y2="47.5745" gradientUnits="userSpaceOnUse">
<stop stop-color="#220D54"/>
<stop offset="1" stop-color="#5B3B04" stop-opacity="0"/>
</linearGradient>
<linearGradient id="paint101_linear_7648_2472" x1="61.2822" y1="24.5339" x2="61.2822" y2="47.5745" gradientUnits="userSpaceOnUse">
<stop stop-color="#220D54"/>
<stop offset="1" stop-color="#5B3B04" stop-opacity="0"/>
</linearGradient>
<linearGradient id="paint102_linear_7648_2472" x1="56.6375" y1="24.5339" x2="56.6375" y2="47.5745" gradientUnits="userSpaceOnUse">
<stop stop-color="#220D54"/>
<stop offset="1" stop-color="#5B3B04" stop-opacity="0"/>
</linearGradient>
<linearGradient id="paint103_linear_7648_2472" x1="62.6423" y1="24.5339" x2="62.6423" y2="47.5745" gradientUnits="userSpaceOnUse">
<stop stop-color="#220D54"/>
<stop offset="1" stop-color="#5B3B04" stop-opacity="0"/>
</linearGradient>
<linearGradient id="paint104_linear_7648_2472" x1="63.2135" y1="32.3169" x2="53.4215" y2="17.536" gradientUnits="userSpaceOnUse">
<stop stop-color="#7A4E05"/>
<stop offset="1" stop-color="#FFD1DA"/>
</linearGradient>
<linearGradient id="paint105_linear_7648_2472" x1="58.8892" y1="17.8158" x2="58.8892" y2="24.3227" gradientUnits="userSpaceOnUse">
<stop offset="0.28504" stop-color="#4A0829"/>
<stop offset="0.561413" stop-color="#C09476" stop-opacity="0"/>
</linearGradient>
<linearGradient id="paint106_linear_7648_2472" x1="60.7877" y1="36.7201" x2="50.5586" y2="19.5476" gradientUnits="userSpaceOnUse">
<stop stop-color="#7A4E05"/>
<stop offset="1" stop-color="#FFD1DA"/>
</linearGradient>
<linearGradient id="paint107_linear_7648_2472" x1="58.8883" y1="17.8158" x2="58.8883" y2="24.3227" gradientUnits="userSpaceOnUse">
<stop offset="0.163158" stop-color="#4A0829"/>
<stop offset="1" stop-color="#C09476" stop-opacity="0"/>
</linearGradient>
<linearGradient id="paint108_linear_7648_2472" x1="60.7877" y1="36.7201" x2="50.5586" y2="19.5476" gradientUnits="userSpaceOnUse">
<stop stop-color="#7A4E05"/>
<stop offset="1" stop-color="#FFD1DA"/>
</linearGradient>
<linearGradient id="paint109_linear_7648_2472" x1="56.6712" y1="16.6249" x2="61.1822" y2="26.0031" gradientUnits="userSpaceOnUse">
<stop offset="0.163158" stop-color="#4A0829"/>
<stop offset="1" stop-color="#C09476" stop-opacity="0"/>
</linearGradient>
<linearGradient id="paint110_linear_7648_2472" x1="58.8883" y1="17.8158" x2="58.8883" y2="24.3227" gradientUnits="userSpaceOnUse">
<stop offset="0.28504" stop-color="#4A0829"/>
<stop offset="0.561413" stop-color="#C09476" stop-opacity="0"/>
</linearGradient>
<linearGradient id="paint111_linear_7648_2472" x1="56.9022" y1="15.9664" x2="56.9022" y2="28.3981" gradientUnits="userSpaceOnUse">
<stop stop-color="#220D54"/>
<stop offset="1" stop-color="#5B3B04" stop-opacity="0"/>
</linearGradient>
<linearGradient id="paint112_linear_7648_2472" x1="60.1417" y1="15.9664" x2="60.1417" y2="28.3981" gradientUnits="userSpaceOnUse">
<stop stop-color="#220D54"/>
<stop offset="1" stop-color="#5B3B04" stop-opacity="0"/>
</linearGradient>
<linearGradient id="paint113_linear_7648_2472" x1="57.6358" y1="15.9664" x2="57.6358" y2="28.3981" gradientUnits="userSpaceOnUse">
<stop stop-color="#220D54"/>
<stop offset="1" stop-color="#5B3B04" stop-opacity="0"/>
</linearGradient>
<linearGradient id="paint114_linear_7648_2472" x1="60.8753" y1="15.9664" x2="60.8753" y2="28.3981" gradientUnits="userSpaceOnUse">
<stop stop-color="#220D54"/>
<stop offset="1" stop-color="#5B3B04" stop-opacity="0"/>
</linearGradient>
<linearGradient id="paint115_linear_7648_2472" x1="68.8769" y1="111.933" x2="19.9802" y2="77.1666" gradientUnits="userSpaceOnUse">
<stop stop-color="#7A4E05"/>
<stop offset="1" stop-color="#FFD1DA"/>
</linearGradient>
<linearGradient id="paint116_linear_7648_2472" x1="58.9611" y1="41.3386" x2="58.9611" y2="73.0157" gradientUnits="userSpaceOnUse">
<stop offset="0.28504" stop-color="#4A0829"/>
<stop offset="0.561413" stop-color="#C09476" stop-opacity="0"/>
</linearGradient>
<linearGradient id="paint117_linear_7648_2472" x1="63.3171" y1="133.369" x2="8.21124" y2="89.7931" gradientUnits="userSpaceOnUse">
<stop stop-color="#7A4E05"/>
<stop offset="1" stop-color="#FFD1DA"/>
</linearGradient>
<linearGradient id="paint118_linear_7648_2472" x1="58.9615" y1="41.3386" x2="58.9615" y2="73.0157" gradientUnits="userSpaceOnUse">
<stop offset="0.163158" stop-color="#4A0829"/>
<stop offset="1" stop-color="#C09476" stop-opacity="0"/>
</linearGradient>
<linearGradient id="paint119_linear_7648_2472" x1="63.3161" y1="133.369" x2="8.21026" y2="89.7931" gradientUnits="userSpaceOnUse">
<stop stop-color="#7A4E05"/>
<stop offset="1" stop-color="#FFD1DA"/>
</linearGradient>
<linearGradient id="paint120_linear_7648_2472" x1="53.8765" y1="35.5413" x2="81.9797" y2="63.0614" gradientUnits="userSpaceOnUse">
<stop offset="0.163158" stop-color="#4A0829"/>
<stop offset="1" stop-color="#C09476" stop-opacity="0"/>
</linearGradient>
<linearGradient id="paint121_linear_7648_2472" x1="58.9605" y1="41.3386" x2="58.9605" y2="73.0157" gradientUnits="userSpaceOnUse">
<stop offset="0.28504" stop-color="#4A0829"/>
<stop offset="0.561413" stop-color="#C09476" stop-opacity="0"/>
</linearGradient>
<linearGradient id="paint122_linear_7648_2472" x1="54.4061" y1="32.3356" x2="54.4061" y2="92.8556" gradientUnits="userSpaceOnUse">
<stop stop-color="#220D54"/>
<stop offset="1" stop-color="#5B3B04" stop-opacity="0"/>
</linearGradient>
<linearGradient id="paint123_linear_7648_2472" x1="61.8341" y1="32.3356" x2="61.8341" y2="92.8556" gradientUnits="userSpaceOnUse">
<stop stop-color="#220D54"/>
<stop offset="1" stop-color="#5B3B04" stop-opacity="0"/>
</linearGradient>
<linearGradient id="paint124_linear_7648_2472" x1="56.0875" y1="32.3356" x2="56.0875" y2="92.8556" gradientUnits="userSpaceOnUse">
<stop stop-color="#220D54"/>
<stop offset="1" stop-color="#5B3B04" stop-opacity="0"/>
</linearGradient>
<linearGradient id="paint125_linear_7648_2472" x1="63.5165" y1="32.3356" x2="63.5165" y2="92.8556" gradientUnits="userSpaceOnUse">
<stop stop-color="#220D54"/>
<stop offset="1" stop-color="#5B3B04" stop-opacity="0"/>
</linearGradient>
<linearGradient id="paint126_linear_7648_2472" x1="65.5596" y1="72.3722" x2="49.9106" y2="29.0309" gradientUnits="userSpaceOnUse">
<stop stop-color="#7A4E05"/>
<stop offset="1" stop-color="#FFD1DA"/>
</linearGradient>
<linearGradient id="paint127_linear_7648_2472" x1="64.0828" y1="72.3722" x2="45.3455" y2="32.098" gradientUnits="userSpaceOnUse">
<stop stop-color="#7A4E05"/>
<stop offset="1" stop-color="#FFD1DA"/>
</linearGradient>
<linearGradient id="paint128_linear_7648_2472" x1="58.9618" y1="32.5645" x2="58.9618" y2="46.2665" gradientUnits="userSpaceOnUse">
<stop offset="0.163158" stop-color="#4A0829"/>
<stop offset="1" stop-color="#C09476" stop-opacity="0"/>
</linearGradient>
<linearGradient id="paint129_linear_7648_2472" x1="51.708" y1="28.6703" x2="51.708" y2="54.8482" gradientUnits="userSpaceOnUse">
<stop stop-color="#220D54"/>
<stop offset="1" stop-color="#5B3B04" stop-opacity="0"/>
</linearGradient>
<linearGradient id="paint130_linear_7648_2472" x1="64.2346" y1="28.6703" x2="64.2346" y2="54.8482" gradientUnits="userSpaceOnUse">
<stop stop-color="#220D54"/>
<stop offset="1" stop-color="#5B3B04" stop-opacity="0"/>
</linearGradient>
<linearGradient id="paint131_linear_7648_2472" x1="53.6855" y1="28.6703" x2="53.6855" y2="54.8482" gradientUnits="userSpaceOnUse">
<stop stop-color="#220D54"/>
<stop offset="1" stop-color="#5B3B04" stop-opacity="0"/>
</linearGradient>
<linearGradient id="paint132_linear_7648_2472" x1="66.2109" y1="28.6703" x2="66.2109" y2="54.8482" gradientUnits="userSpaceOnUse">
<stop stop-color="#220D54"/>
<stop offset="1" stop-color="#5B3B04" stop-opacity="0"/>
</linearGradient>
<radialGradient id="paint133_radial_7648_2472" cx="0" cy="0" r="1" gradientUnits="userSpaceOnUse" gradientTransform="translate(58.9608 44.7765) rotate(90) scale(5.88614)">
<stop offset="0.489578" stop-color="#FFF2BE"/>
<stop offset="1" stop-color="#FFD638"/>
</radialGradient>
<linearGradient id="paint134_linear_7648_2472" x1="58.9611" y1="63.0947" x2="58.9611" y2="64.5988" gradientUnits="userSpaceOnUse">
<stop offset="0.193008" stop-color="#4A0829"/>
<stop offset="1" stop-color="#C09476" stop-opacity="0"/>
</linearGradient>
<linearGradient id="paint135_linear_7648_2472" x1="52.4707" y1="64.683" x2="52.4707" y2="62.4114" gradientUnits="userSpaceOnUse">
<stop stop-color="#7A4E05"/>
<stop offset="1" stop-color="#FFD1DA"/>
</linearGradient>
<linearGradient id="paint136_linear_7648_2472" x1="58.9611" y1="64.2537" x2="58.9611" y2="67.2947" gradientUnits="userSpaceOnUse">
<stop stop-color="#4A0829"/>
<stop offset="1" stop-color="#C09476" stop-opacity="0"/>
</linearGradient>
<linearGradient id="paint137_linear_7648_2472" x1="52.4707" y1="66.3598" x2="52.4707" y2="64.0881" gradientUnits="userSpaceOnUse">
<stop stop-color="#7A4E05"/>
<stop offset="1" stop-color="#FFD1DA"/>
</linearGradient>
<linearGradient id="paint138_linear_7648_2472" x1="58.9611" y1="74.5339" x2="58.9611" y2="76.038" gradientUnits="userSpaceOnUse">
<stop offset="0.193008" stop-color="#4A0829"/>
<stop offset="1" stop-color="#C09476" stop-opacity="0"/>
</linearGradient>
<linearGradient id="paint139_linear_7648_2472" x1="52.4707" y1="76.1222" x2="52.4707" y2="73.8506" gradientUnits="userSpaceOnUse">
<stop stop-color="#7A4E05"/>
<stop offset="1" stop-color="#FFD1DA"/>
</linearGradient>
<linearGradient id="paint140_linear_7648_2472" x1="58.9611" y1="75.693" x2="58.9611" y2="78.7339" gradientUnits="userSpaceOnUse">
<stop stop-color="#4A0829"/>
<stop offset="1" stop-color="#C09476" stop-opacity="0"/>
</linearGradient>
<linearGradient id="paint141_linear_7648_2472" x1="52.4707" y1="77.799" x2="52.4707" y2="75.5273" gradientUnits="userSpaceOnUse">
<stop stop-color="#7A4E05"/>
<stop offset="1" stop-color="#FFD1DA"/>
</linearGradient>
<linearGradient id="paint142_linear_7648_2472" x1="53.949" y1="11.3624" x2="59.2855" y2="39.7759" gradientUnits="userSpaceOnUse">
<stop stop-color="#95EEF8"/>
<stop offset="1" stop-color="#767C83"/>
</linearGradient>
<linearGradient id="paint143_linear_7648_2472" x1="58.8895" y1="24.5598" x2="58.8895" y2="32.024" gradientUnits="userSpaceOnUse">
<stop offset="0.763219" stop-color="#034C7A" stop-opacity="0"/>
<stop offset="0.96611" stop-color="#034C7A"/>
</linearGradient>
<linearGradient id="paint144_linear_7648_2472" x1="51.497" y1="-4.43057" x2="59.1107" y2="24.3409" gradientUnits="userSpaceOnUse">
<stop stop-color="#95EEF8"/>
<stop offset="1" stop-color="#767C83"/>
</linearGradient>
<linearGradient id="paint145_linear_7648_2472" x1="58.8893" y1="15.8339" x2="58.8893" y2="20.007" gradientUnits="userSpaceOnUse">
<stop offset="0.763219" stop-color="#034C7A" stop-opacity="0"/>
<stop offset="0.96611" stop-color="#034C7A"/>
</linearGradient>
<linearGradient id="paint146_linear_7648_2472" x1="76.2991" y1="111.933" x2="45.1482" y2="101.512" gradientUnits="userSpaceOnUse">
<stop stop-color="#7A4E05"/>
<stop offset="1" stop-color="#FFD1DA"/>
</linearGradient>
<linearGradient id="paint147_linear_7648_2472" x1="71.6336" y1="41.3385" x2="71.6336" y2="73.0157" gradientUnits="userSpaceOnUse">
<stop offset="0.28504" stop-color="#4A0829"/>
<stop offset="0.561413" stop-color="#C09476" stop-opacity="0"/>
</linearGradient>
<linearGradient id="paint148_linear_7648_2472" x1="186.676" y1="89.5778" x2="132.489" y2="39.9347" gradientUnits="userSpaceOnUse">
<stop stop-color="#136C6C"/>
<stop offset="1" stop-color="#B6F6C7"/>
</linearGradient>
<linearGradient id="paint149_linear_7648_2472" x1="160.929" y1="67.028" x2="146.793" y2="92.4386" gradientUnits="userSpaceOnUse">
<stop stop-color="#3B3B3B"/>
<stop offset="1" stop-color="#FFB180" stop-opacity="0"/>
</linearGradient>
<linearGradient id="paint150_linear_7648_2472" x1="68.2361" y1="89.5778" x2="122.423" y2="39.9347" gradientUnits="userSpaceOnUse">
<stop stop-color="#136C6C"/>
<stop offset="1" stop-color="#B6F6C7"/>
</linearGradient>
<linearGradient id="paint151_linear_7648_2472" x1="93.9832" y1="67.028" x2="108.119" y2="92.4386" gradientUnits="userSpaceOnUse">
<stop stop-color="#3B3B3B"/>
<stop offset="1" stop-color="#FFB180" stop-opacity="0"/>
</linearGradient>
<linearGradient id="paint152_linear_7648_2472" x1="68.8491" y1="89.5778" x2="123.036" y2="39.9347" gradientUnits="userSpaceOnUse">
<stop stop-color="#136C6C"/>
<stop offset="1" stop-color="#B6F6C7"/>
</linearGradient>
<linearGradient id="paint153_linear_7648_2472" x1="94.5962" y1="67.028" x2="108.732" y2="92.4386" gradientUnits="userSpaceOnUse">
<stop stop-color="#3B3B3B"/>
<stop offset="1" stop-color="#FFB180" stop-opacity="0"/>
</linearGradient>
<radialGradient id="paint154_radial_7648_2472" cx="0" cy="0" r="1" gradientUnits="userSpaceOnUse" gradientTransform="translate(109.292 88.5312) scale(14.3881 2.44009)">
<stop stop-color="#2052CB" stop-opacity="0.7"/>
<stop offset="1" stop-color="#2052CB" stop-opacity="0"/>
</radialGradient>
<radialGradient id="paint155_radial_7648_2472" cx="0" cy="0" r="1" gradientUnits="userSpaceOnUse" gradientTransform="translate(76.092 88.5312) scale(14.3881 2.44009)">
<stop stop-color="#2052CB" stop-opacity="0.7"/>
<stop offset="1" stop-color="#2052CB" stop-opacity="0"/>
</radialGradient>
<radialGradient id="paint156_radial_7648_2472" cx="0" cy="0" r="1" gradientUnits="userSpaceOnUse" gradientTransform="translate(144.126 88.5312) scale(14.3881 2.44009)">
<stop stop-color="#2052CB" stop-opacity="0.7"/>
<stop offset="1" stop-color="#2052CB" stop-opacity="0"/>
</radialGradient>
<radialGradient id="paint157_radial_7648_2472" cx="0" cy="0" r="1" gradientUnits="userSpaceOnUse" gradientTransform="translate(178.961 88.5312) scale(14.3881 2.44009)">
<stop stop-color="#2052CB" stop-opacity="0.7"/>
<stop offset="1" stop-color="#2052CB" stop-opacity="0"/>
</radialGradient>
<linearGradient id="paint158_linear_7648_2472" x1="123.703" y1="161.418" x2="102.927" y2="47.676" gradientUnits="userSpaceOnUse">
<stop stop-color="#136C6C"/>
<stop offset="1" stop-color="#B6F6C7"/>
</linearGradient>
<radialGradient id="paint159_radial_7648_2472" cx="0" cy="0" r="1" gradientUnits="userSpaceOnUse" gradientTransform="translate(127.748 88.7368) rotate(-90) scale(20.867 23.3822)">
<stop offset="0.429752" stop-color="#052D31"/>
<stop offset="1" stop-color="#052D31" stop-opacity="0"/>
</radialGradient>
<radialGradient id="paint160_radial_7648_2472" cx="0" cy="0" r="1" gradientUnits="userSpaceOnUse" gradientTransform="translate(163.508 86.8857) rotate(-85.9858) scale(19.2313 21.5494)">
<stop offset="0.429752" stop-color="#052D31"/>
<stop offset="1" stop-color="#052D31" stop-opacity="0"/>
</radialGradient>
<radialGradient id="paint161_radial_7648_2472" cx="0" cy="0" r="1" gradientUnits="userSpaceOnUse" gradientTransform="translate(90.8104 88.7368) rotate(-96.0333) scale(20.814 23.3228)">
<stop offset="0.429752" stop-color="#052D31"/>
<stop offset="1" stop-color="#052D31" stop-opacity="0"/>
</radialGradient>
<linearGradient id="paint162_linear_7648_2472" x1="106.5" y1="22.1356" x2="133.645" y2="31.3748" gradientUnits="userSpaceOnUse">
<stop stop-color="#B3E0FF"/>
<stop offset="1" stop-color="#E0B09C"/>
</linearGradient>
<radialGradient id="paint163_radial_7648_2472" cx="0" cy="0" r="1" gradientUnits="userSpaceOnUse" gradientTransform="translate(107.687 89.7452) rotate(-90) scale(31.6238 4.69746)">
<stop stop-color="#FFE4BE"/>
<stop offset="1" stop-color="#FFDAC2" stop-opacity="0"/>
</radialGradient>
<linearGradient id="paint164_linear_7648_2472" x1="120.091" y1="76.2323" x2="107.47" y2="76.2323" gradientUnits="userSpaceOnUse">
<stop stop-color="#00204D"/>
<stop offset="1" stop-color="#240D54" stop-opacity="0"/>
</linearGradient>
<linearGradient id="paint165_linear_7648_2472" x1="142.849" y1="22.1356" x2="169.994" y2="31.3748" gradientUnits="userSpaceOnUse">
<stop stop-color="#B3E0FF"/>
<stop offset="1" stop-color="#E0B09C"/>
</linearGradient>
<radialGradient id="paint166_radial_7648_2472" cx="0" cy="0" r="1" gradientUnits="userSpaceOnUse" gradientTransform="translate(144.037 89.7452) rotate(-90) scale(31.6238 4.69746)">
<stop stop-color="#FFE4BE"/>
<stop offset="1" stop-color="#FFDAC2" stop-opacity="0"/>
</radialGradient>
<linearGradient id="paint167_linear_7648_2472" x1="156.441" y1="76.2323" x2="143.82" y2="76.2323" gradientUnits="userSpaceOnUse">
<stop stop-color="#00204D"/>
<stop offset="1" stop-color="#240D54" stop-opacity="0"/>
</linearGradient>
<linearGradient id="paint168_linear_7648_2472" x1="177.763" y1="22.1356" x2="204.908" y2="31.3748" gradientUnits="userSpaceOnUse">
<stop stop-color="#B3E0FF"/>
<stop offset="1" stop-color="#E0B09C"/>
</linearGradient>
<radialGradient id="paint169_radial_7648_2472" cx="0" cy="0" r="1" gradientUnits="userSpaceOnUse" gradientTransform="translate(178.95 89.7452) rotate(-90) scale(31.6238 4.69746)">
<stop stop-color="#FFE4BE"/>
<stop offset="1" stop-color="#FFDAC2" stop-opacity="0"/>
</radialGradient>
<linearGradient id="paint170_linear_7648_2472" x1="191.355" y1="76.2323" x2="178.733" y2="76.2323" gradientUnits="userSpaceOnUse">
<stop stop-color="#00204D"/>
<stop offset="1" stop-color="#240D54" stop-opacity="0"/>
</linearGradient>
<linearGradient id="paint171_linear_7648_2472" x1="71.6058" y1="22.1356" x2="98.7511" y2="31.3748" gradientUnits="userSpaceOnUse">
<stop stop-color="#B3E0FF"/>
<stop offset="1" stop-color="#E0B09C"/>
</linearGradient>
<radialGradient id="paint172_radial_7648_2472" cx="0" cy="0" r="1" gradientUnits="userSpaceOnUse" gradientTransform="translate(72.7933 89.7452) rotate(-90) scale(31.6238 4.69746)">
<stop stop-color="#FFE4BE"/>
<stop offset="1" stop-color="#FFDAC2" stop-opacity="0"/>
</radialGradient>
<linearGradient id="paint173_linear_7648_2472" x1="85.1974" y1="76.2323" x2="72.5762" y2="76.2323" gradientUnits="userSpaceOnUse">
<stop stop-color="#00204D"/>
<stop offset="1" stop-color="#240D54" stop-opacity="0"/>
</linearGradient>
</defs>
</svg>
