<svg viewBox="0 0 240 120" fill="none" xmlns="http://www.w3.org/2000/svg">
<path d="M34.8252 47.6326C32.1123 35.9726 35.0838 15.065 40.5037 12.6297C46.5227 11.9463 54.637 21.3045 57.952 29.2535C61.2669 37.2026 58.4517 68.0379 52.764 66.9093C47.0763 65.7808 37.5382 59.2926 34.8252 47.6326Z" fill="url(#paint0_radial_3149_80)"/>
<path d="M34.8252 47.6326C32.1123 35.9726 35.0838 15.065 40.5037 12.6297C46.5227 11.9463 54.637 21.3045 57.952 29.2535C61.2669 37.2026 58.4517 68.0379 52.764 66.9093C47.0763 65.7808 37.5382 59.2926 34.8252 47.6326Z" fill="url(#paint1_radial_3149_80)"/>
<path d="M74.1849 55.2049C83.4876 42.924 81.5884 24.2361 76.7009 20.3088C68.0979 19.4453 56.1053 28.5164 51.9665 36.6898C45.6713 49.122 45.9209 61.1314 51.4759 64.3509C60.683 69.6871 62.5566 70.5561 74.1849 55.2049Z" fill="url(#paint2_radial_3149_80)"/>
<path d="M74.1849 55.2049C83.4876 42.924 81.5884 24.2361 76.7009 20.3088C68.0979 19.4453 56.1053 28.5164 51.9665 36.6898C45.6713 49.122 45.9209 61.1314 51.4759 64.3509C60.683 69.6871 62.5566 70.5561 74.1849 55.2049Z" fill="url(#paint3_radial_3149_80)"/>
<path d="M41.5961 27.2726C35.6404 40.4271 38.2449 61.0617 46.2616 65.7896C54.2782 70.5175 58.6045 69.4851 62.8655 64.93C68.1918 59.2361 69.1666 47.5608 67.6463 32.0594C66.43 19.6584 60.5203 15.3022 57.7175 14.6742L54.1981 20.7821L52.8345 15.4424C51.0736 15.0009 46.3606 16.7489 41.5961 27.2726Z" fill="url(#paint4_radial_3149_80)"/>
<path d="M41.5961 27.2726C35.6404 40.4271 38.2449 61.0617 46.2616 65.7896C54.2782 70.5175 58.6045 69.4851 62.8655 64.93C68.1918 59.2361 69.1666 47.5608 67.6463 32.0594C66.43 19.6584 60.5203 15.3022 57.7175 14.6742L54.1981 20.7821L52.8345 15.4424C51.0736 15.0009 46.3606 16.7489 41.5961 27.2726Z" fill="url(#paint5_radial_3149_80)"/>
<path d="M88.1542 33.6984C85.8659 34.052 82.476 35.8877 81.0672 36.7614C79.1862 38.7394 76.1702 42.4576 79.1533 41.5063C82.1365 40.5551 89.962 37.9225 93.5019 36.7251C92.6728 35.5689 90.4425 33.3448 88.1542 33.6984Z" fill="url(#paint6_linear_3149_80)"/>
<path d="M57.9836 55.3841C56.3572 58.7149 52.3661 65.7473 50.5738 68.8472C55.7943 72.6703 61.8893 71.6448 67.7306 69.1815C73.5719 66.7182 81.0302 47.3661 85.1352 42.3429C88.4192 38.3244 92.7097 37.7097 93.4914 36.7676C92.0839 35.2256 87.1667 35.8176 79.6386 36.3942C70.2285 37.1149 60.0165 51.2205 57.9836 55.3841Z" fill="url(#paint7_radial_3149_80)"/>
<path d="M46.1712 40.5176C51.5519 50.2918 50.1183 65.4187 48.0741 69.2384C43.6936 67.9356 33.554 61.451 32.7285 54.7976C31.0043 40.9024 31.8398 31.8278 30.0897 27.788C28.8655 24.9621 22.3749 18.2278 27.6943 19.8098C33.0137 21.3919 40.7906 30.7434 46.1712 40.5176Z" fill="url(#paint8_radial_3149_80)"/>
<path d="M46.1712 40.5176C51.5519 50.2918 50.1183 65.4187 48.0741 69.2384C43.6936 67.9356 33.554 61.451 32.7285 54.7976C31.0043 40.9024 31.8398 31.8278 30.0897 27.788C28.8655 24.9621 22.3749 18.2278 27.6943 19.8098C33.0137 21.3919 40.7906 30.7434 46.1712 40.5176Z" fill="url(#paint9_radial_3149_80)"/>
<path d="M59.5833 71.3376C63.6802 68.0471 68.1336 62.7256 72.1166 54.145C74.3921 49.243 87.1061 35.5399 92.9812 36.3758C86.8155 39.2238 78.6587 44.2365 73.715 54.8869C70.2992 62.2456 66.5136 67.327 62.8408 70.8241C61.7506 71.0839 60.6624 71.2623 59.5833 71.3376Z" fill="url(#paint10_linear_3149_80)"/>
<path d="M31.044 32.1655C34.524 37.9523 37.3476 45.6887 37.6272 48.9853C38.2415 56.2279 39.7764 61.7583 41.6884 65.9711C40.7669 65.3512 39.8406 64.6655 38.9511 63.928C37.4957 59.9611 36.3768 55.0947 35.8713 49.1342C35.3596 43.1014 33.5315 38.1836 31.2204 34.1784C31.1692 33.4645 31.1118 32.7935 31.044 32.1655Z" fill="url(#paint11_linear_3149_80)"/>
<path d="M42.234 120C45.0008 92.8845 36.1986 84.8733 20.1931 74.423C17.8704 72.9066 8.66501 67.1659 8.66501 67.1659C8.66501 67.1659 9.25012 74.423 15.215 79.9125C22.3369 86.4668 26.4857 95.4782 29.0864 120H42.234Z" fill="url(#paint12_radial_3149_80)"/>
<path d="M42.234 120C45.0008 92.8845 36.1986 84.8733 20.1931 74.423C17.8704 72.9066 8.66501 67.1659 8.66501 67.1659C8.66501 67.1659 9.25012 74.423 15.215 79.9125C22.3369 86.4668 26.4857 95.4782 29.0864 120H42.234Z" fill="url(#paint13_radial_3149_80)"/>
<path d="M57.3722 70.8673C54.0342 66.5343 46.0962 66.1514 42.4873 66.5343C42.1912 66.5657 42.2218 66.9366 42.4383 67.0995C44.4431 68.6072 45.7204 70.1071 45.7054 70.6556L43.5743 79.3299C40.3076 90.6613 37.9505 104.688 38.2996 120H43.6595C43.3587 106.444 45.2798 93.9096 48.0974 83.3805L51.331 72.4486C51.4403 72.071 51.8899 71.8183 52.3764 71.8611L56.8707 71.3396C57.2061 71.3691 57.5478 71.0953 57.3722 70.8673Z" fill="#B2BD1C"/>
<path d="M57.3722 70.8673C54.0342 66.5343 46.0962 66.1514 42.4873 66.5343C42.1912 66.5657 42.2218 66.9366 42.4383 67.0995C44.4431 68.6072 45.7204 70.1071 45.7054 70.6556L43.5743 79.3299C40.3076 90.6613 37.9505 104.688 38.2996 120H43.6595C43.3587 106.444 45.2798 93.9096 48.0974 83.3805L51.331 72.4486C51.4403 72.071 51.8899 71.8183 52.3764 71.8611L56.8707 71.3396C57.2061 71.3691 57.5478 71.0953 57.3722 70.8673Z" fill="url(#paint14_radial_3149_80)"/>
<path d="M57.3722 70.8673C54.0342 66.5343 46.0962 66.1514 42.4873 66.5343C42.1912 66.5657 42.2218 66.9366 42.4383 67.0995C44.4431 68.6072 45.7204 70.1071 45.7054 70.6556L43.5743 79.3299C40.3076 90.6613 37.9505 104.688 38.2996 120H43.6595C43.3587 106.444 45.2798 93.9096 48.0974 83.3805L51.331 72.4486C51.4403 72.071 51.8899 71.8183 52.3764 71.8611L56.8707 71.3396C57.2061 71.3691 57.5478 71.0953 57.3722 70.8673Z" fill="url(#paint15_radial_3149_80)"/>
<path d="M35.9947 120C40.094 107.076 47.0086 95.0625 58.2767 87.2449C61.3002 85.2857 73.8499 80.2367 76.4341 80.2367C74.9888 81.0594 72.0993 85.0211 68.9996 89.2711C66.5568 92.6203 63.9835 96.1486 61.8835 98.4607C55.9423 105.002 52.6264 111.735 50.7828 120H35.9947Z" fill="url(#paint16_radial_3149_80)"/>
<path d="M35.9947 120C40.094 107.076 47.0086 95.0625 58.2767 87.2449C61.3002 85.2857 73.8499 80.2367 76.4341 80.2367C74.9888 81.0594 72.0993 85.0211 68.9996 89.2711C66.5568 92.6203 63.9835 96.1486 61.8835 98.4607C55.9423 105.002 52.6264 111.735 50.7828 120H35.9947Z" fill="url(#paint17_radial_3149_80)"/>
<path d="M102.176 21.359C99.5736 32.8741 105.247 56.583 108.95 62.3638C112.652 68.1446 116.077 71.7279 122.455 70.6131C128.834 69.4984 126.38 65.8934 126.152 54.0703C125.923 42.2472 117.056 19.3144 116.054 16.4435C115.157 13.8729 105.705 5.74713 102.176 21.359Z" fill="url(#paint18_radial_3149_80)"/>
<path d="M133.406 20.2445C131.686 11.6829 125.777 10.8268 123.683 10.9046C119.794 11.9164 115.98 12.4613 112.465 34.2543C108.949 56.0473 119.794 72.2364 128.843 70.1349C137.893 68.0334 135.126 28.806 133.406 20.2445Z" fill="url(#paint19_radial_3149_80)"/>
<path d="M149.224 27.1006C149.074 18.2754 147.766 12.6661 145.223 12.1052C143.839 12.1052 138.421 12.6974 138.754 17.7893C140.062 37.833 127.946 70.7404 130.04 70.89C132.134 71.0396 137.669 68.4967 143.054 63.411C148.439 58.3253 149.373 35.9258 149.224 27.1006Z" fill="url(#paint20_radial_3149_80)"/>
<path d="M131.087 14.9409C128.844 14.9409 123.274 18.0485 121.813 24.9275C115.232 55.9153 122.711 71.189 128.395 71.189C134.079 71.189 137.818 68.5455 142.156 63.1116C146.494 57.6777 145.148 32.4175 144.55 27.4242C143.951 22.4309 137.07 14.9409 135.874 14.9409C134.917 14.9409 134.478 16.1158 134.378 16.7033C134.029 16.1158 132.882 14.9409 131.087 14.9409Z" fill="url(#paint21_radial_3149_80)"/>
<path d="M131.087 14.9409C128.844 14.9409 123.274 18.0485 121.813 24.9275C115.232 55.9153 122.711 71.189 128.395 71.189C134.079 71.189 137.818 68.5455 142.156 63.1116C146.494 57.6777 145.148 32.4175 144.55 27.4242C143.951 22.4309 137.07 14.9409 135.874 14.9409C134.917 14.9409 134.478 16.1158 134.378 16.7033C134.029 16.1158 132.882 14.9409 131.087 14.9409Z" fill="url(#paint22_radial_3149_80)"/>
<path d="M143.975 24.3545C143.116 26.2367 142.435 27.7303 143.501 29.7557C144.997 32.5977 144.548 39.0296 143.501 41.5725C142.454 44.1153 142.005 49.5002 143.501 53.6885C144.997 57.8767 136.701 66.4132 132.812 68.0586C131.591 68.3704 127.947 70.2188 127.134 70.4916C126.831 72.9704 132.305 71.0399 133.81 70.4916C136.428 69.348 139.644 66.6303 143.052 63.411C148.437 58.3253 149.372 35.9258 149.222 27.1006C149.084 18.9374 147.954 13.5258 145.773 12.3159C146.594 16.3464 145.658 20.6634 143.975 24.3545Z" fill="url(#paint23_radial_3149_80)"/>
<path d="M118.925 120C117.422 101.73 112.451 78.0042 101.407 72.1345C101.007 77.3 101.105 84.1064 101.237 93.1399C101.316 98.5954 101.407 104.863 101.407 112.072C101.407 115.477 101.813 117.911 102.487 120H118.925Z" fill="url(#paint24_radial_3149_80)"/>
<path d="M118.925 120C117.422 101.73 112.451 78.0042 101.407 72.1345C101.007 77.3 101.105 84.1064 101.237 93.1399C101.316 98.5954 101.407 104.863 101.407 112.072C101.407 115.477 101.813 117.911 102.487 120H118.925Z" fill="url(#paint25_radial_3149_80)"/>
<path d="M129.292 23.0531C127.198 18.7537 119.424 16.4164 115.232 16.6025C107.154 16.961 97.6152 36.9566 104.761 56.6131C111.394 74.859 125.403 73.441 131.236 71.0975C137.07 68.7541 137.668 57.8499 137.967 53.6025C138.267 49.355 134.826 44.4237 136.322 35.6761C137.239 30.3115 132.134 23.0531 129.292 23.0531Z" fill="url(#paint26_radial_3149_80)"/>
<path d="M129.292 23.0531C127.198 18.7537 119.424 16.4164 115.232 16.6025C107.154 16.961 97.6152 36.9566 104.761 56.6131C111.394 74.859 125.403 73.441 131.236 71.0975C137.07 68.7541 137.668 57.8499 137.967 53.6025C138.267 49.355 134.826 44.4237 136.322 35.6761C137.239 30.3115 132.134 23.0531 129.292 23.0531Z" fill="url(#paint27_radial_3149_80)"/>
<path d="M129.292 23.0531C127.198 18.7537 119.424 16.4164 115.232 16.6025C107.154 16.961 97.6152 36.9566 104.761 56.6131C111.394 74.859 125.403 73.441 131.236 71.0975C137.07 68.7541 137.668 57.8499 137.967 53.6025C138.267 49.355 134.826 44.4237 136.322 35.6761C137.239 30.3115 132.134 23.0531 129.292 23.0531Z" fill="url(#paint28_radial_3149_80)"/>
<path d="M123.323 71.4344C119.562 71.095 116.469 70.1052 114.67 69.4067C114.165 69.2105 113.608 69.7002 113.894 70.1106C115.337 72.1784 117.205 74.1613 118.993 75.4278C117.113 85.4055 115.192 100.147 114.857 115.586C114.829 116.868 114.812 118.707 114.807 120H121.424C121.429 118.747 121.445 116.944 121.472 115.694C121.807 100.271 123.761 85.5478 125.624 75.8213C128.415 74.5697 131.995 72.3788 134.026 70.6534C134.426 70.3134 134.011 69.8515 133.487 70.0256C131.262 70.7658 127.31 71.7944 123.323 71.4344Z" fill="#B2BD1C"/>
<path d="M123.323 71.4344C119.562 71.095 116.469 70.1052 114.67 69.4067C114.165 69.2105 113.608 69.7002 113.894 70.1106C115.337 72.1784 117.205 74.1613 118.993 75.4278C117.113 85.4055 115.192 100.147 114.857 115.586C114.829 116.868 114.812 118.707 114.807 120H121.424C121.429 118.747 121.445 116.944 121.472 115.694C121.807 100.271 123.761 85.5478 125.624 75.8213C128.415 74.5697 131.995 72.3788 134.026 70.6534C134.426 70.3134 134.011 69.8515 133.487 70.0256C131.262 70.7658 127.31 71.7944 123.323 71.4344Z" fill="url(#paint29_radial_3149_80)"/>
<path d="M123.323 71.4344C119.562 71.095 116.469 70.1052 114.67 69.4067C114.165 69.2105 113.608 69.7002 113.894 70.1106C115.337 72.1784 117.205 74.1613 118.993 75.4278C117.113 85.4055 115.192 100.147 114.857 115.586C114.829 116.868 114.812 118.707 114.807 120H121.424C121.429 118.747 121.445 116.944 121.472 115.694C121.807 100.271 123.761 85.5478 125.624 75.8213C128.415 74.5697 131.995 72.3788 134.026 70.6534C134.426 70.3134 134.011 69.8515 133.487 70.0256C131.262 70.7658 127.31 71.7944 123.323 71.4344Z" fill="url(#paint30_radial_3149_80)"/>
<path d="M142.731 82.4396C143.736 78.17 144.805 73.6273 146.009 68.8116C141.363 71.8762 131.241 79.9038 127.924 87.4976C124.335 95.7132 120.187 108.702 117.461 120H129.737C130.292 119.178 130.813 118.378 131.289 117.607C136.403 109.329 139.162 97.6065 142.731 82.4396Z" fill="url(#paint31_radial_3149_80)"/>
<path d="M142.731 82.4396C143.736 78.17 144.805 73.6273 146.009 68.8116C141.363 71.8762 131.241 79.9038 127.924 87.4976C124.335 95.7132 120.187 108.702 117.461 120H129.737C130.292 119.178 130.813 118.378 131.289 117.607C136.403 109.329 139.162 97.6065 142.731 82.4396Z" fill="url(#paint32_radial_3149_80)"/>
<path d="M201.196 26.6978C202.856 22.394 208.174 15.8984 210.625 13.1886C213.708 13.7469 211.284 17.8888 211.868 25.0124C212.545 33.2674 202.317 77.9112 192.328 67.5846C182.339 57.258 199.12 32.0776 201.196 26.6978Z" fill="url(#paint33_linear_3149_80)"/>
<path d="M207.646 26.9575C209.47 24.3932 210.06 16.9562 210.127 13.5583C211.306 13.0819 212.234 13.2256 213.842 15.4686C215.45 17.7117 215.066 26.3083 213.822 36.9571C212.578 47.6058 201.448 66.6678 198.624 67.7525C195.8 68.8371 189.943 69.2394 193.856 67.1118C197.769 64.9841 202.706 51.2552 202.968 46.7425C203.231 42.2298 205.365 30.1629 207.646 26.9575Z" fill="url(#paint34_linear_3149_80)"/>
<path d="M184.333 24.6984C186.987 16.8604 195.053 10.1746 197.826 9.2502C199.092 9.05026 201.292 10.4056 203.575 12.5383C207.555 16.2571 208.765 24.6106 208.497 30.6124C208.228 36.6142 201.808 71.4385 189.474 68.0349C177.139 64.6314 181.679 32.5364 184.333 24.6984Z" fill="url(#paint35_radial_3149_80)"/>
<path d="M184.333 24.6984C186.987 16.8604 195.053 10.1746 197.826 9.2502C199.092 9.05026 201.292 10.4056 203.575 12.5383C207.555 16.2571 208.765 24.6106 208.497 30.6124C208.228 36.6142 201.808 71.4385 189.474 68.0349C177.139 64.6314 181.679 32.5364 184.333 24.6984Z" fill="url(#paint36_radial_3149_80)"/>
<path d="M162.818 23.2312C161.584 21.5774 157.711 20.6727 155.929 20.4271C154.917 25.5733 161.282 31.9872 162.918 34.6477C164.554 37.3082 168.727 71.4328 190.81 71.1077C204.5 59.2163 175.321 30.0135 171.949 29.4514C168.576 28.8894 164.36 25.2984 162.818 23.2312Z" fill="url(#paint37_linear_3149_80)"/>
<path d="M155.754 27.0219C155.254 24.4738 155.571 21.4969 155.791 20.3269C156.404 21.1221 158.036 23.4508 159.67 26.4035C161.712 30.0945 170.625 38.7817 172.817 48.0435C174.571 55.453 184.353 67.1812 189.024 72.1192C178.045 74.2178 170.719 62.4829 168.495 56.8745C166.272 51.2662 162.412 38.3759 161.132 35.6592C159.851 32.9424 156.379 30.2071 155.754 27.0219Z" fill="url(#paint38_linear_3149_80)"/>
<path d="M172.639 18.0317C174.382 15.5186 177.581 13.9067 179.183 13.6537L180.223 15.6178C180.111 14.9058 180.611 13.9147 182.225 13.6599C184.242 13.3414 193.27 14.2874 200.258 35.4403C207.247 56.5933 195.219 70.5331 192.608 70.9454C189.998 71.3576 179.843 71.7449 171.143 54.3892C162.443 37.0334 170.459 21.1732 172.639 18.0317Z" fill="url(#paint39_radial_3149_80)"/>
<path d="M172.639 18.0317C174.382 15.5186 177.581 13.9067 179.183 13.6537L180.223 15.6178C180.111 14.9058 180.611 13.9147 182.225 13.6599C184.242 13.3414 193.27 14.2874 200.258 35.4403C207.247 56.5933 195.219 70.5331 192.608 70.9454C189.998 71.3576 179.843 71.7449 171.143 54.3892C162.443 37.0334 170.459 21.1732 172.639 18.0317Z" fill="url(#paint40_radial_3149_80)"/>
<path d="M172.639 18.0317C174.382 15.5186 177.581 13.9067 179.183 13.6537L180.223 15.6178C180.111 14.9058 180.611 13.9147 182.225 13.6599C184.242 13.3414 193.27 14.2874 200.258 35.4403C207.247 56.5933 195.219 70.5331 192.608 70.9454C189.998 71.3576 179.843 71.7449 171.143 54.3892C162.443 37.0334 170.459 21.1732 172.639 18.0317Z" fill="url(#paint41_radial_3149_80)"/>
<path d="M166.303 26.8157C167.747 22.4039 171.214 22.9997 172.767 23.849C173.922 22.6936 175.293 22.9028 176.361 22.7341C177.429 22.5655 182.069 23.8395 188.724 28.6264C196.761 34.4084 200.846 49.9417 200.978 55.3939C201.109 60.8461 197.281 72.0316 187.188 72.0442C177.096 72.0569 171.962 62.6515 169.757 57.1618C167.552 51.6722 164.498 32.3303 166.303 26.8157Z" fill="url(#paint42_radial_3149_80)"/>
<path d="M166.303 26.8157C167.747 22.4039 171.214 22.9997 172.767 23.849C173.922 22.6936 175.293 22.9028 176.361 22.7341C177.429 22.5655 182.069 23.8395 188.724 28.6264C196.761 34.4084 200.846 49.9417 200.978 55.3939C201.109 60.8461 197.281 72.0316 187.188 72.0442C177.096 72.0569 171.962 62.6515 169.757 57.1618C167.552 51.6722 164.498 32.3303 166.303 26.8157Z" fill="url(#paint43_radial_3149_80)"/>
<path d="M166.303 26.8157C167.747 22.4039 171.214 22.9997 172.767 23.849C173.922 22.6936 175.293 22.9028 176.361 22.7341C177.429 22.5655 182.069 23.8395 188.724 28.6264C196.761 34.4084 200.846 49.9417 200.978 55.3939C201.109 60.8461 197.281 72.0316 187.188 72.0442C177.096 72.0569 171.962 62.6515 169.757 57.1618C167.552 51.6722 164.498 32.3303 166.303 26.8157Z" fill="url(#paint44_radial_3149_80)"/>
<path d="M195.232 27.4773C197.065 25.5337 198.741 22.3624 201.742 21.3412C202.691 21.1913 205.915 21.108 207.469 22.5652C209.468 24.4388 211.985 28.0548 213.084 33.4758C214.183 38.8967 212.163 54.6007 209.478 61.4707C206.792 68.3406 195.776 72.5127 191.572 72.0818C187.369 71.6509 185.052 65.2429 183.725 61.2806C181.77 55.4475 184.933 42.3602 186.363 39.0939C187.793 35.8275 192.94 29.9068 195.232 27.4773Z" fill="url(#paint45_radial_3149_80)"/>
<path d="M195.232 27.4773C197.065 25.5337 198.741 22.3624 201.742 21.3412C202.691 21.1913 205.915 21.108 207.469 22.5652C209.468 24.4388 211.985 28.0548 213.084 33.4758C214.183 38.8967 212.163 54.6007 209.478 61.4707C206.792 68.3406 195.776 72.5127 191.572 72.0818C187.369 71.6509 185.052 65.2429 183.725 61.2806C181.77 55.4475 184.933 42.3602 186.363 39.0939C187.793 35.8275 192.94 29.9068 195.232 27.4773Z" fill="url(#paint46_radial_3149_80)"/>
<path d="M195.232 27.4773C197.065 25.5337 198.741 22.3624 201.742 21.3412C202.691 21.1913 205.915 21.108 207.469 22.5652C209.468 24.4388 211.985 28.0548 213.084 33.4758C214.183 38.8967 212.163 54.6007 209.478 61.4707C206.792 68.3406 195.776 72.5127 191.572 72.0818C187.369 71.6509 185.052 65.2429 183.725 61.2806C181.77 55.4475 184.933 42.3602 186.363 39.0939C187.793 35.8275 192.94 29.9068 195.232 27.4773Z" fill="url(#paint47_radial_3149_80)"/>
<path d="M195.232 27.4773C197.065 25.5337 198.741 22.3624 201.742 21.3412C202.691 21.1913 205.915 21.108 207.469 22.5652C209.468 24.4388 211.985 28.0548 213.084 33.4758C214.183 38.8967 212.163 54.6007 209.478 61.4707C206.792 68.3406 195.776 72.5127 191.572 72.0818C187.369 71.6509 185.052 65.2429 183.725 61.2806C181.77 55.4475 184.933 42.3602 186.363 39.0939C187.793 35.8275 192.94 29.9068 195.232 27.4773Z" fill="url(#paint48_radial_3149_80)"/>
<path d="M190.533 120C197.597 97.7883 206.251 80.4806 223.131 70.788C220.386 83.3652 210.56 97.7883 210.56 120H190.533Z" fill="url(#paint49_radial_3149_80)"/>
<path d="M190.533 120C197.597 97.7883 206.251 80.4806 223.131 70.788C220.386 83.3652 210.56 97.7883 210.56 120H190.533Z" fill="url(#paint50_radial_3149_80)"/>
<path d="M186.019 120H193.266C194.798 102.643 194.487 86.8895 194.06 77.5937C193.924 74.6425 195.893 73.0993 197.38 71.9339C198.264 71.2412 198.978 70.682 198.978 70.0399C198.978 70.0399 196.751 68.6937 190.069 68.6937C183.388 68.6937 182.088 71.8349 182.088 71.8349C182.088 71.8349 186.821 73.8542 187.656 77.5937C188.36 80.7452 188.736 96.4134 186.019 120Z" fill="url(#paint51_linear_3149_80)"/>
<path d="M186.019 120H193.266C194.798 102.643 194.487 86.8895 194.06 77.5937C193.924 74.6425 195.893 73.0993 197.38 71.9339C198.264 71.2412 198.978 70.682 198.978 70.0399C198.978 70.0399 196.751 68.6937 190.069 68.6937C183.388 68.6937 182.088 71.8349 182.088 71.8349C182.088 71.8349 186.821 73.8542 187.656 77.5937C188.36 80.7452 188.736 96.4134 186.019 120Z" fill="url(#paint52_radial_3149_80)"/>
<path d="M186.019 120H193.266C194.798 102.643 194.487 86.8895 194.06 77.5937C193.924 74.6425 195.893 73.0993 197.38 71.9339C198.264 71.2412 198.978 70.682 198.978 70.0399C198.978 70.0399 196.751 68.6937 190.069 68.6937C183.388 68.6937 182.088 71.8349 182.088 71.8349C182.088 71.8349 186.821 73.8542 187.656 77.5937C188.36 80.7452 188.736 96.4134 186.019 120Z" fill="url(#paint53_radial_3149_80)"/>
<path d="M184.052 105.426C179.054 96.9542 173.437 87.4327 168.509 76.1567C166.977 83.2451 164.621 100.01 167.454 110.365C168.25 113.275 169.25 116.534 170.399 120H192.251C189.952 115.429 187.119 110.625 184.052 105.426Z" fill="url(#paint54_radial_3149_80)"/>
<path d="M184.052 105.426C179.054 96.9542 173.437 87.4327 168.509 76.1567C166.977 83.2451 164.621 100.01 167.454 110.365C168.25 113.275 169.25 116.534 170.399 120H192.251C189.952 115.429 187.119 110.625 184.052 105.426Z" fill="url(#paint55_radial_3149_80)"/>
<defs>
<radialGradient id="paint0_radial_3149_80" cx="0" cy="0" r="1" gradientUnits="userSpaceOnUse" gradientTransform="translate(52.0278 30.9877) rotate(-142.496) scale(19.5294 15.6889)">
<stop offset="0.084522" stop-color="#9B0C59"/>
<stop offset="0.649404" stop-color="#F062DF"/>
<stop offset="1" stop-color="#FFA2DA"/>
</radialGradient>
<radialGradient id="paint1_radial_3149_80" cx="0" cy="0" r="1" gradientUnits="userSpaceOnUse" gradientTransform="translate(44.0992 29.7155) rotate(-11.3347) scale(3.97221 23.6364)">
<stop offset="0.0690631" stop-color="#A0085A"/>
<stop offset="0.673874" stop-color="#E13190" stop-opacity="0"/>
</radialGradient>
<radialGradient id="paint2_radial_3149_80" cx="0" cy="0" r="1" gradientUnits="userSpaceOnUse" gradientTransform="translate(66.3574 43.6422) rotate(-68.3302) scale(25.4147 26.4548)">
<stop offset="0.084522" stop-color="#9B0C59"/>
<stop offset="0.642156" stop-color="#F062DF"/>
<stop offset="1" stop-color="#FFA2DA"/>
</radialGradient>
<radialGradient id="paint3_radial_3149_80" cx="0" cy="0" r="1" gradientUnits="userSpaceOnUse" gradientTransform="translate(67.8978 42.8977) rotate(23.915) scale(4.30316 32.56)">
<stop offset="0.0690631" stop-color="#A0085A"/>
<stop offset="0.586489" stop-color="#E13190" stop-opacity="0"/>
</radialGradient>
<radialGradient id="paint4_radial_3149_80" cx="0" cy="0" r="1" gradientUnits="userSpaceOnUse" gradientTransform="translate(48.9496 67.4918) rotate(-77.8819) scale(53.2964 23.0587)">
<stop offset="0.228599" stop-color="#A0085A"/>
<stop offset="0.489736" stop-color="#E13190"/>
<stop offset="0.659063" stop-color="#E84CA9"/>
<stop offset="0.849063" stop-color="#FA97EE"/>
<stop offset="1" stop-color="#FEC4F1"/>
</radialGradient>
<radialGradient id="paint5_radial_3149_80" cx="0" cy="0" r="1" gradientUnits="userSpaceOnUse" gradientTransform="translate(52.1168 52.4957) rotate(4.74111) scale(6.0481 71.4052)">
<stop offset="0.0690631" stop-color="#A0085A"/>
<stop offset="0.477854" stop-color="#E13190" stop-opacity="0"/>
</radialGradient>
<linearGradient id="paint6_linear_3149_80" x1="88.5448" y1="36.9743" x2="87.5631" y2="32.6607" gradientUnits="userSpaceOnUse">
<stop offset="0.0696335" stop-color="#9C0D5A"/>
<stop offset="1" stop-color="#FEC1F1"/>
</linearGradient>
<radialGradient id="paint7_radial_3149_80" cx="0" cy="0" r="1" gradientUnits="userSpaceOnUse" gradientTransform="translate(72.6502 65.0663) rotate(-123.186) scale(17.3166 73.0006)">
<stop offset="0.219335" stop-color="#9B0C59"/>
<stop offset="1" stop-color="#F062DF"/>
</radialGradient>
<radialGradient id="paint8_radial_3149_80" cx="0" cy="0" r="1" gradientUnits="userSpaceOnUse" gradientTransform="translate(35.6958 61.8313) rotate(-39.5076) scale(18.2516 74.0236)">
<stop offset="0.219335" stop-color="#9B0C59"/>
<stop offset="1" stop-color="#F28EE6"/>
</radialGradient>
<radialGradient id="paint9_radial_3149_80" cx="0" cy="0" r="1" gradientUnits="userSpaceOnUse" gradientTransform="translate(23.6773 53.9481) rotate(-25.1669) scale(27.3018 99.1927)">
<stop stop-color="#9C0D5A"/>
<stop offset="0.477854" stop-color="#E13190"/>
<stop offset="0.799063" stop-color="#FA97EE"/>
<stop offset="1" stop-color="#FEC4F1"/>
</radialGradient>
<linearGradient id="paint10_linear_3149_80" x1="91.1897" y1="36.5389" x2="62.3402" y2="70.7607" gradientUnits="userSpaceOnUse">
<stop offset="0.0190631" stop-color="#F283C1" stop-opacity="0"/>
<stop offset="0.439063" stop-color="#E43A99" stop-opacity="0.66"/>
<stop offset="1" stop-color="#970B56"/>
</linearGradient>
<linearGradient id="paint11_linear_3149_80" x1="29.4866" y1="23.0754" x2="41.1162" y2="67.9437" gradientUnits="userSpaceOnUse">
<stop offset="0.0190631" stop-color="#F283C1"/>
<stop offset="0.490526" stop-color="#E43A99"/>
<stop offset="1" stop-color="#970B56"/>
</linearGradient>
<radialGradient id="paint12_radial_3149_80" cx="0" cy="0" r="1" gradientUnits="userSpaceOnUse" gradientTransform="translate(27.4056 108.461) rotate(-60.8519) scale(17.175 70.6645)">
<stop stop-color="#1C8444"/>
<stop offset="1" stop-color="#B2BD1C"/>
</radialGradient>
<radialGradient id="paint13_radial_3149_80" cx="0" cy="0" r="1" gradientUnits="userSpaceOnUse" gradientTransform="translate(53.6539 132.404) rotate(-123.136) scale(74.408 122.346)">
<stop offset="0.213896" stop-color="#095821"/>
<stop offset="0.445827" stop-color="#1A7736"/>
<stop offset="1" stop-color="#BFC319" stop-opacity="0"/>
</radialGradient>
<radialGradient id="paint14_radial_3149_80" cx="0" cy="0" r="1" gradientUnits="userSpaceOnUse" gradientTransform="translate(51.9239 100.096) rotate(-168.075) scale(13.9598 132.107)">
<stop stop-color="#095821"/>
<stop offset="0.484063" stop-color="#1A7736"/>
<stop offset="1" stop-color="#BFC319" stop-opacity="0"/>
</radialGradient>
<radialGradient id="paint15_radial_3149_80" cx="0" cy="0" r="1" gradientUnits="userSpaceOnUse" gradientTransform="translate(51.6354 67.356) rotate(135.473) scale(12.3408 116.786)">
<stop offset="0.163639" stop-color="#1A7736"/>
<stop offset="1" stop-color="#BFC319" stop-opacity="0"/>
</radialGradient>
<radialGradient id="paint16_radial_3149_80" cx="0" cy="0" r="1" gradientUnits="userSpaceOnUse" gradientTransform="translate(69.092 107.431) rotate(-146.524) scale(22.7877 72.9273)">
<stop stop-color="#1C8444"/>
<stop offset="1" stop-color="#B2BD1C"/>
</radialGradient>
<radialGradient id="paint17_radial_3149_80" cx="0" cy="0" r="1" gradientUnits="userSpaceOnUse" gradientTransform="translate(67.2122 109.616) rotate(-149.036) scale(21.8661 50.5808)">
<stop offset="0.554299" stop-color="#1A7736"/>
<stop offset="1" stop-color="#BFC319" stop-opacity="0"/>
</radialGradient>
<radialGradient id="paint18_radial_3149_80" cx="0" cy="0" r="1" gradientUnits="userSpaceOnUse" gradientTransform="translate(121.963 62.9621) rotate(-105.965) scale(53.8378 14.1498)">
<stop offset="0.448285" stop-color="#D12436"/>
<stop offset="0.879869" stop-color="#EF5163"/>
<stop offset="1" stop-color="#FFCDDF"/>
</radialGradient>
<radialGradient id="paint19_radial_3149_80" cx="0" cy="0" r="1" gradientUnits="userSpaceOnUse" gradientTransform="translate(122.085 40.6093) rotate(-87.2928) scale(29.7423 13.4536)">
<stop stop-color="#A70717"/>
<stop offset="0.762141" stop-color="#DC3446"/>
<stop offset="1" stop-color="#FFCEE8"/>
</radialGradient>
<radialGradient id="paint20_radial_3149_80" cx="0" cy="0" r="1" gradientUnits="userSpaceOnUse" gradientTransform="translate(138.216 41.5007) rotate(87.6989) scale(29.4192 11.316)">
<stop offset="0.0940631" stop-color="#D12436"/>
<stop offset="0.550348" stop-color="#EF5163"/>
<stop offset="0.784063" stop-color="#FFAFBD"/>
<stop offset="1" stop-color="#FFCFE9"/>
</radialGradient>
<radialGradient id="paint21_radial_3149_80" cx="0" cy="0" r="1" gradientUnits="userSpaceOnUse" gradientTransform="translate(132.235 47.3392) rotate(-88.3264) scale(32.4121 21.2804)">
<stop offset="0.0940631" stop-color="#D12436"/>
<stop offset="0.655601" stop-color="#EF5163"/>
<stop offset="0.893507" stop-color="#FFAFAF"/>
</radialGradient>
<radialGradient id="paint22_radial_3149_80" cx="0" cy="0" r="1" gradientUnits="userSpaceOnUse" gradientTransform="translate(126.45 45.1841) rotate(2.49993) scale(19.7634 125.865)">
<stop offset="0.638144" stop-color="#A10E43" stop-opacity="0"/>
<stop offset="1" stop-color="#A10E43"/>
</radialGradient>
<radialGradient id="paint23_radial_3149_80" cx="0" cy="0" r="1" gradientUnits="userSpaceOnUse" gradientTransform="translate(153.823 47.4061) rotate(-169.174) scale(15.9273 87.3815)">
<stop offset="0.0882621" stop-color="#D12436"/>
<stop offset="0.33722" stop-color="#EF5163"/>
<stop offset="0.798434" stop-color="#FFBBBB"/>
</radialGradient>
<radialGradient id="paint24_radial_3149_80" cx="0" cy="0" r="1" gradientUnits="userSpaceOnUse" gradientTransform="translate(98.4654 96.2764) rotate(-16.5186) scale(18.2301 60.8599)">
<stop stop-color="#1C8444"/>
<stop offset="1" stop-color="#B2BD1C"/>
</radialGradient>
<radialGradient id="paint25_radial_3149_80" cx="0" cy="0" r="1" gradientUnits="userSpaceOnUse" gradientTransform="translate(124.616 110.769) rotate(180) scale(23.0769 70.3375)">
<stop offset="0.210084" stop-color="#095821"/>
<stop offset="0.593837" stop-color="#1A7736"/>
<stop offset="1" stop-color="#BFC319" stop-opacity="0"/>
</radialGradient>
<radialGradient id="paint26_radial_3149_80" cx="0" cy="0" r="1" gradientUnits="userSpaceOnUse" gradientTransform="translate(118.223 43.96) rotate(85.5747) scale(27.4496 20.2463)">
<stop offset="0.0882621" stop-color="#D12436"/>
<stop offset="0.550348" stop-color="#EF5163"/>
<stop offset="1" stop-color="#FFBBBB"/>
</radialGradient>
<radialGradient id="paint27_radial_3149_80" cx="0" cy="0" r="1" gradientUnits="userSpaceOnUse" gradientTransform="translate(122.561 71.3278) rotate(-96.517) scale(56.67 20.3821)">
<stop offset="0.9057" stop-color="#FFD0EA" stop-opacity="0"/>
<stop offset="1" stop-color="#FFD0EA" stop-opacity="0.55"/>
</radialGradient>
<radialGradient id="paint28_radial_3149_80" cx="0" cy="0" r="1" gradientUnits="userSpaceOnUse" gradientTransform="translate(121.251 56.3921) rotate(-3.53067) scale(8.05617 42.0941)">
<stop offset="0.0690631" stop-color="#CE3454"/>
<stop offset="0.477854" stop-color="#CE3454" stop-opacity="0"/>
</radialGradient>
<radialGradient id="paint29_radial_3149_80" cx="0" cy="0" r="1" gradientUnits="userSpaceOnUse" gradientTransform="translate(133.106 96.3726) rotate(180) scale(21.304 208.159)">
<stop stop-color="#095821"/>
<stop offset="0.484063" stop-color="#1A7736"/>
<stop offset="0.960938" stop-color="#BFC319" stop-opacity="0"/>
</radialGradient>
<radialGradient id="paint30_radial_3149_80" cx="0" cy="0" r="1" gradientUnits="userSpaceOnUse" gradientTransform="translate(119.568 70.0962) rotate(96.0983) scale(8.3761 78.5656)">
<stop stop-color="#1A7736"/>
<stop offset="0.505827" stop-color="#1A7736" stop-opacity="0"/>
</radialGradient>
<radialGradient id="paint31_radial_3149_80" cx="0" cy="0" r="1" gradientUnits="userSpaceOnUse" gradientTransform="translate(122.596 101.871) rotate(-15.3364) scale(19.7727 37.7123)">
<stop stop-color="#1C8444"/>
<stop offset="1" stop-color="#B2BD1C"/>
</radialGradient>
<radialGradient id="paint32_radial_3149_80" cx="0" cy="0" r="1" gradientUnits="userSpaceOnUse" gradientTransform="translate(136.154 108.462) rotate(-156.801) scale(17.5749 76.4133)">
<stop stop-color="#BFC319" stop-opacity="0"/>
<stop offset="1" stop-color="#1A7736"/>
</radialGradient>
<linearGradient id="paint33_linear_3149_80" x1="210.611" y1="13.191" x2="207.804" y2="35.4651" gradientUnits="userSpaceOnUse">
<stop stop-color="#FFE3C9"/>
<stop offset="0.630715" stop-color="#E6C30E"/>
</linearGradient>
<linearGradient id="paint34_linear_3149_80" x1="215.434" y1="22.949" x2="207.55" y2="21.6886" gradientUnits="userSpaceOnUse">
<stop offset="0.309328" stop-color="#FEC877"/>
<stop offset="1" stop-color="#DDA73F"/>
</linearGradient>
<radialGradient id="paint35_radial_3149_80" cx="0" cy="0" r="1" gradientUnits="userSpaceOnUse" gradientTransform="translate(198.897 12.1824) rotate(102.064) scale(10.0395 20.0962)">
<stop offset="0.263379" stop-color="#EFBE74"/>
<stop offset="1" stop-color="#C48600"/>
</radialGradient>
<radialGradient id="paint36_radial_3149_80" cx="0" cy="0" r="1" gradientUnits="userSpaceOnUse" gradientTransform="translate(198.222 17.1537) rotate(102.064) scale(13.386 5.29574)">
<stop offset="0.077952" stop-color="#FDDA68" stop-opacity="0.66"/>
<stop offset="1" stop-color="#FDDA68" stop-opacity="0"/>
</radialGradient>
<linearGradient id="paint37_linear_3149_80" x1="163.923" y1="23.2999" x2="159.742" y2="27.0022" gradientUnits="userSpaceOnUse">
<stop offset="0.251366" stop-color="#FEE777"/>
<stop offset="0.83449" stop-color="#D6AA56"/>
</linearGradient>
<linearGradient id="paint38_linear_3149_80" x1="155.409" y1="24.8873" x2="168.807" y2="52.6901" gradientUnits="userSpaceOnUse">
<stop stop-color="#FED077"/>
<stop offset="0.889063" stop-color="#D69B56"/>
</linearGradient>
<radialGradient id="paint39_radial_3149_80" cx="0" cy="0" r="1" gradientUnits="userSpaceOnUse" gradientTransform="translate(188.983 69.516) rotate(-112.433) scale(58.3086 33.404)">
<stop offset="0.205171" stop-color="#D6A255"/>
<stop offset="0.55929" stop-color="#F8BC23"/>
<stop offset="0.933386" stop-color="#FFCB8F"/>
</radialGradient>
<radialGradient id="paint40_radial_3149_80" cx="0" cy="0" r="1" gradientUnits="userSpaceOnUse" gradientTransform="translate(175.327 29.2827) rotate(2.19135) scale(18.6123 43.4848)">
<stop offset="0.3438" stop-color="#F8D423" stop-opacity="0"/>
<stop offset="0.590402" stop-color="#F3BE35"/>
<stop offset="1" stop-color="#F0A513"/>
</radialGradient>
<radialGradient id="paint41_radial_3149_80" cx="0" cy="0" r="1" gradientUnits="userSpaceOnUse" gradientTransform="translate(192.015 17.8909) rotate(100.052) scale(14.7405 31.0678)">
<stop offset="0.238576" stop-color="#FFEA85" stop-opacity="0"/>
<stop offset="0.863443" stop-color="#C08400"/>
</radialGradient>
<radialGradient id="paint42_radial_3149_80" cx="0" cy="0" r="1" gradientUnits="userSpaceOnUse" gradientTransform="translate(189.605 68.8653) rotate(-116.703) scale(50.4957 31.0829)">
<stop stop-color="#D18A00"/>
<stop offset="0.6107" stop-color="#F8C923"/>
<stop offset="0.933386" stop-color="#FFEC8F"/>
</radialGradient>
<radialGradient id="paint43_radial_3149_80" cx="0" cy="0" r="1" gradientUnits="userSpaceOnUse" gradientTransform="translate(189.605 68.8653) rotate(-116.703) scale(50.4957 31.0829)">
<stop offset="0.109063" stop-color="#B86300"/>
<stop offset="0.681787" stop-color="#F8BC23"/>
<stop offset="0.933386" stop-color="#FFD98F"/>
</radialGradient>
<radialGradient id="paint44_radial_3149_80" cx="0" cy="0" r="1" gradientUnits="userSpaceOnUse" gradientTransform="translate(172.779 27.0091) rotate(-15.4535) scale(7.57433 42.2659)">
<stop stop-color="#FFEC87" stop-opacity="0.7"/>
<stop offset="0.734063" stop-color="#FFEC87" stop-opacity="0"/>
</radialGradient>
<radialGradient id="paint45_radial_3149_80" cx="0" cy="0" r="1" gradientUnits="userSpaceOnUse" gradientTransform="translate(182.308 46.1538) rotate(18.4349) scale(29.1903 71.7539)">
<stop offset="0.09375" stop-color="#FFD98F"/>
<stop offset="0.440625" stop-color="#F8BC23"/>
<stop offset="0.925" stop-color="#DFA028"/>
</radialGradient>
<radialGradient id="paint46_radial_3149_80" cx="0" cy="0" r="1" gradientUnits="userSpaceOnUse" gradientTransform="translate(189.231 39.2307) rotate(-5.92484) scale(22.9292 45.3344)">
<stop offset="0.700266" stop-color="#F8D423" stop-opacity="0"/>
<stop offset="0.930735" stop-color="#E8B870"/>
</radialGradient>
<radialGradient id="paint47_radial_3149_80" cx="0" cy="0" r="1" gradientUnits="userSpaceOnUse" gradientTransform="translate(203.077 34.6154) rotate(97.125) scale(18.6052 7.4063)">
<stop stop-color="#FFEC87" stop-opacity="0.77"/>
<stop offset="1" stop-color="#FFEC87" stop-opacity="0"/>
</radialGradient>
<radialGradient id="paint48_radial_3149_80" cx="0" cy="0" r="1" gradientUnits="userSpaceOnUse" gradientTransform="translate(198.461 69.2307) rotate(-56.4587) scale(15.401 53.3034)">
<stop stop-color="#DF8B0C"/>
<stop offset="1" stop-color="#DF8B0C" stop-opacity="0"/>
</radialGradient>
<radialGradient id="paint49_radial_3149_80" cx="0" cy="0" r="1" gradientUnits="userSpaceOnUse" gradientTransform="translate(217.213 104.444) rotate(-134.565) scale(21.8347 75.9297)">
<stop stop-color="#1C8444"/>
<stop offset="1" stop-color="#B2BD1C"/>
</radialGradient>
<radialGradient id="paint50_radial_3149_80" cx="0" cy="0" r="1" gradientUnits="userSpaceOnUse" gradientTransform="translate(190.533 120) rotate(-39.0826) scale(24.708)">
<stop offset="0.210084" stop-color="#095821"/>
<stop offset="0.593837" stop-color="#1A7736"/>
<stop offset="1" stop-color="#BFC319" stop-opacity="0"/>
</radialGradient>
<linearGradient id="paint51_linear_3149_80" x1="188.028" y1="84.8484" x2="200.449" y2="85.5385" gradientUnits="userSpaceOnUse">
<stop offset="1.46484e-05" stop-color="#CCD82D"/>
<stop offset="0.475754" stop-color="#589B35"/>
<stop offset="1" stop-color="#308503"/>
</linearGradient>
<radialGradient id="paint52_radial_3149_80" cx="0" cy="0" r="1" gradientUnits="userSpaceOnUse" gradientTransform="translate(201.577 68.6937) rotate(133.741) scale(23.0789 23.8387)">
<stop stop-color="#095821"/>
<stop offset="0.456577" stop-color="#1A7736"/>
<stop offset="1" stop-color="#BFC319" stop-opacity="0"/>
</radialGradient>
<radialGradient id="paint53_radial_3149_80" cx="0" cy="0" r="1" gradientUnits="userSpaceOnUse" gradientTransform="translate(204.546 115.213) rotate(-147.482) scale(29.4947 27.4772)">
<stop stop-color="#095821"/>
<stop offset="0.456577" stop-color="#1A7736"/>
<stop offset="1" stop-color="#BFC319" stop-opacity="0"/>
</radialGradient>
<radialGradient id="paint54_radial_3149_80" cx="0" cy="0" r="1" gradientUnits="userSpaceOnUse" gradientTransform="translate(173.586 129.129) rotate(-62.0329) scale(24.7892 43.0507)">
<stop stop-color="#1C8444"/>
<stop offset="1" stop-color="#B2BD1C"/>
</radialGradient>
<radialGradient id="paint55_radial_3149_80" cx="0" cy="0" r="1" gradientUnits="userSpaceOnUse" gradientTransform="translate(186.924 107.885) rotate(141.676) scale(19.0552 89.3685)">
<stop stop-color="#BFC319" stop-opacity="0"/>
<stop offset="0.832547" stop-color="#1A7736"/>
</radialGradient>
</defs>
</svg>
