<svg viewBox="0 0 240 120" fill="none" xmlns="http://www.w3.org/2000/svg">
<path d="M172.686 6.81105C220.298 15.1695 227.623 59.6017 216.917 78.5183L22.2434 78.5184C8.72044 56.5226 21.1164 22.2083 50.4162 12.9701C79.7159 3.73193 125.074 -1.54737 172.686 6.81105Z" fill="url(#paint0_radial_10724_37774)"/>
<path d="M182.522 20.7095C187.12 20.7095 190.947 23.9921 191.799 28.3398C193.294 27.7952 194.999 28.0512 196.269 29.0148C197.314 26.547 199.76 24.8164 202.609 24.8164C206.409 24.8165 209.488 27.8964 209.489 31.696C209.489 35.4961 207.905 38.5787 202.609 38.5787C197.313 38.5787 164.329 40.606 164.329 38.5787C164.329 36.1302 166.284 32.5489 169.126 33.4655C169.947 32.035 171.388 31.0106 173.082 30.7465C172.759 25.3891 177.144 20.7095 182.522 20.7095Z" fill="url(#paint1_radial_10724_37774)"/>
<path d="M34.0565 29.5358C37.8026 29.5358 40.8902 32.3511 41.3221 35.9811C42.328 35.7265 43.4769 35.9172 44.3329 36.4543C44.8208 33.4542 47.4149 31.1632 50.5528 31.1629C53.9887 31.1629 56.7835 33.9075 56.8629 37.3242C59.0699 37.5436 60.7932 39.409 60.7932 41.6737C60.7922 44.0845 58.8365 46.0401 56.4257 46.0412C58.9031 46.5282 58.6617 50.1965 56.0156 50.1968H17.5601C18.2288 46.6189 19.3324 43.0814 20.8323 39.6725C21.0487 39.8944 21.2516 40.1295 21.4408 40.3756C22.6011 38.5912 24.6709 37.5585 26.7908 37.6983C26.3009 33.4323 29.7345 29.5369 34.0565 29.5358Z" fill="url(#paint2_radial_10724_37774)"/>
<path d="M91.4817 44.8529C91.4817 51.011 86.4896 56.0032 80.3314 56.0032C74.1733 56.0032 69.1812 51.011 69.1812 44.8529C69.1812 38.6948 74.1733 33.7026 80.3314 33.7026C86.4896 33.7026 91.4817 38.6948 91.4817 44.8529Z" fill="url(#paint3_linear_10724_37774)"/>
<path d="M108.75 36.3462C87.6923 48.1731 57.4038 56.25 42.4038 75.8654V119.423H229.975C226.321 98.8462 225 56.0193 210 49.327C191.25 40.9616 168.462 9.80774 165.577 9.80774C162.692 9.80774 148.558 12.6924 146.827 15.8654C145.096 19.0385 129.808 24.5193 108.75 36.3462Z" fill="url(#paint4_linear_10724_37774)"/>
<path d="M108.75 36.3462C87.6923 48.1731 57.4038 56.25 42.4038 75.8654V119.423H229.975C226.321 98.8462 225 56.0193 210 49.327C191.25 40.9616 168.462 9.80774 165.577 9.80774C162.692 9.80774 148.558 12.6924 146.827 15.8654C145.096 19.0385 129.808 24.5193 108.75 36.3462Z" fill="url(#paint5_radial_10724_37774)"/>
<path d="M108.75 36.3462C87.6923 48.1731 57.4038 56.25 42.4038 75.8654V119.423H229.975C226.321 98.8462 225 56.0193 210 49.327C191.25 40.9616 168.462 9.80774 165.577 9.80774C162.692 9.80774 148.558 12.6924 146.827 15.8654C145.096 19.0385 129.808 24.5193 108.75 36.3462Z" fill="url(#paint6_radial_10724_37774)"/>
<path d="M136.222 86.3379L117.18 91.7964L117.18 101.466L136.222 104.365V86.3379Z" fill="url(#paint7_linear_10724_37774)"/>
<path d="M136.222 86.3379L117.18 91.7964L117.18 101.466L136.222 104.365V86.3379Z" fill="url(#paint8_linear_10724_37774)"/>
<path d="M136.954 82.2611L118.308 90.0749L116.35 92.1354L136.954 87.4247V82.2611Z" fill="url(#paint9_linear_10724_37774)"/>
<path d="M129.303 91.9911C128.802 92.1714 128.384 92.7011 128.384 93.5911V103.169L129.975 103.412V93.4695C129.974 92.7321 129.686 92.2416 129.303 91.9911Z" fill="url(#paint10_linear_10724_37774)"/>
<path d="M124.82 92.999C124.355 93.1671 123.964 93.6599 123.964 94.4864V102.5L125.447 102.726V94.3737C125.447 93.6874 125.177 93.2316 124.82 92.999Z" fill="url(#paint11_linear_10724_37774)"/>
<path d="M120.651 93.5061C120.258 93.6474 119.93 94.0685 119.93 94.7681V101.881L121.179 102.07V94.669C121.178 94.0894 120.953 93.7022 120.651 93.5061Z" fill="url(#paint12_linear_10724_37774)"/>
<path d="M129.303 91.9883C128.526 91.481 127.352 91.975 127.352 93.4712V103.013L128.384 103.171V93.5929C128.384 92.7017 128.801 92.1687 129.303 91.9883Z" fill="#BC7E45"/>
<path d="M124.823 92.9968C124.101 92.5237 123.007 92.9811 123.006 94.3715V102.349L123.966 102.498V94.4887C123.966 93.6594 124.356 93.1638 124.823 92.9968Z" fill="#BC7E45"/>
<path d="M120.651 93.5088C120.042 93.1094 119.12 93.4937 119.119 94.6671V101.757L119.93 101.879V94.7663C119.93 94.0672 120.258 93.6503 120.651 93.5088Z" fill="#BC7E45"/>
<path d="M80.188 86.3379L99.2294 91.7964L99.2292 101.466L80.188 104.365V86.3379Z" fill="url(#paint13_linear_10724_37774)"/>
<path d="M80.188 86.3379L99.2294 91.7964L99.2292 101.466L80.188 104.365V86.3379Z" fill="url(#paint14_linear_10724_37774)"/>
<path d="M79.4556 82.2611L98.1019 90.0749L100.06 92.1354L79.4556 87.4247V82.2611Z" fill="url(#paint15_linear_10724_37774)"/>
<path d="M87.1061 91.9911C87.6072 92.1714 88.025 92.7011 88.0256 93.5911V103.169L86.4346 103.412V93.4695C86.4348 92.7321 86.7233 92.2416 87.1061 91.9911Z" fill="url(#paint16_linear_10724_37774)"/>
<path d="M91.5889 92.999C92.0541 93.1671 92.4448 93.6599 92.4453 94.4864V102.5L90.9624 102.726V94.3737C90.9625 93.6874 91.2324 93.2316 91.5889 92.999Z" fill="url(#paint17_linear_10724_37774)"/>
<path d="M95.7578 93.5061C96.1516 93.6474 96.479 94.0685 96.479 94.7681V101.881L95.2305 102.07V94.669C95.2307 94.0894 95.4566 93.7022 95.7578 93.5061Z" fill="url(#paint18_linear_10724_37774)"/>
<path d="M87.1064 91.9883C87.8832 91.481 89.0575 91.975 89.0575 93.4712V103.013L88.0257 103.171V93.5929C88.0257 92.7017 87.6078 92.1687 87.1064 91.9883Z" fill="#BC7E45"/>
<path d="M91.5864 92.9968C92.3083 92.5237 93.402 92.9811 93.4028 94.3715V102.349L92.4428 102.498V94.4887C92.4428 93.6594 92.0533 93.1638 91.5864 92.9968Z" fill="#BC7E45"/>
<path d="M95.7578 93.5088C96.3671 93.1094 97.2894 93.4937 97.2903 94.6671V101.757L96.479 101.879V94.7663C96.479 94.0672 96.1512 93.6503 95.7578 93.5088Z" fill="#BC7E45"/>
<path d="M81.0713 57.796H148.064V71.25H81.0713V57.796Z" fill="url(#paint19_linear_10724_37774)"/>
<path d="M81.0713 57.796H148.064V71.25H81.0713V57.796Z" fill="url(#paint20_linear_10724_37774)"/>
<path d="M81.0713 57.796H148.064V71.25H81.0713V57.796Z" fill="url(#paint21_linear_10724_37774)"/>
<path d="M111.619 63.9155C111.619 60.1123 117.517 60.1123 117.517 63.9155L117.516 72.6923H111.619L111.619 63.9155Z" fill="url(#paint22_linear_10724_37774)"/>
<path d="M111.619 63.9155C111.619 60.1123 117.517 60.1123 117.517 63.9155L117.516 72.6923H111.619L111.619 63.9155Z" fill="url(#paint23_radial_10724_37774)"/>
<path d="M111.619 63.9155C111.619 60.1123 117.517 60.1123 117.517 63.9155L117.516 72.6923H111.619L111.619 63.9155Z" fill="url(#paint24_linear_10724_37774)"/>
<path d="M110.434 100.211C49.7487 100.211 12.8103 113.027 1.92676 119.435H234.443C218.392 113.027 171.119 100.211 110.434 100.211Z" fill="url(#paint25_linear_10724_37774)"/>
<path d="M110.434 100.211C49.7487 100.211 12.8103 113.027 1.92676 119.435H234.443C218.392 113.027 171.119 100.211 110.434 100.211Z" fill="url(#paint26_radial_10724_37774)"/>
<path d="M148.066 105.577H136.862V99.4471C136.859 70.6971 92.274 70.6971 92.2717 99.4471V105.577H81.0713V71.25H148.066V105.577Z" fill="url(#paint27_linear_10724_37774)"/>
<path d="M148.066 105.577H136.862V99.4471C136.859 70.6971 92.274 70.6971 92.2717 99.4471V105.577H81.0713V71.25H148.066V105.577Z" fill="url(#paint28_linear_10724_37774)"/>
<path d="M148.066 105.577H136.862V99.4471C136.859 70.6971 92.274 70.6971 92.2717 99.4471V105.577H81.0713V71.25H148.066V105.577Z" fill="url(#paint29_linear_10724_37774)"/>
<path d="M73.1724 71.25H83.1243V105.578H73.1724V71.25Z" fill="url(#paint30_linear_10724_37774)"/>
<path d="M73.1724 71.25H83.1243V105.578H73.1724V71.25Z" fill="url(#paint31_linear_10724_37774)"/>
<path d="M73.1724 71.25H83.1243V105.578H73.1724V71.25Z" fill="url(#paint32_linear_10724_37774)"/>
<path d="M73.1724 71.25H83.1243V105.578H73.1724V71.25Z" fill="url(#paint33_linear_10724_37774)"/>
<path d="M146.935 71.25H156.887V105.578H146.935V71.25Z" fill="url(#paint34_linear_10724_37774)"/>
<path d="M146.935 71.25H156.887V105.578H146.935V71.25Z" fill="url(#paint35_linear_10724_37774)"/>
<path d="M146.935 71.25H156.887V105.578H146.935V71.25Z" fill="url(#paint36_linear_10724_37774)"/>
<path d="M146.935 71.25H156.887V105.578H146.935V71.25Z" fill="url(#paint37_linear_10724_37774)"/>
<path d="M105.836 37.1202H123.298V59.423H105.836V37.1202Z" fill="url(#paint38_linear_10724_37774)"/>
<path d="M105.836 37.1202H123.298V59.423H105.836V37.1202Z" fill="url(#paint39_linear_10724_37774)"/>
<path d="M105.836 37.1202H123.298V59.423H105.836V37.1202Z" fill="url(#paint40_linear_10724_37774)"/>
<path d="M110.508 22.2504H118.629V32.6227H110.508V22.2504Z" fill="url(#paint41_linear_10724_37774)"/>
<path d="M113.012 24.8206C113.012 22.8127 116.126 22.8127 116.126 24.8206L116.125 29.4541H113.012L113.012 24.8206Z" fill="url(#paint42_linear_10724_37774)"/>
<path d="M113.012 24.8206C113.012 22.8127 116.126 22.8127 116.126 24.8206L116.125 29.4541H113.012L113.012 24.8206Z" fill="url(#paint43_radial_10724_37774)"/>
<path d="M113.012 24.8206C113.012 22.8127 116.126 22.8127 116.126 24.8206L116.125 29.4541H113.012L113.012 24.8206Z" fill="url(#paint44_linear_10724_37774)"/>
<path d="M120.275 71.25H117.521V63.9167C117.521 60.1135 111.626 60.1135 111.626 63.9167V71.25H108.867V58.7019H120.275V71.25Z" fill="url(#paint45_linear_10724_37774)"/>
<path d="M103.251 37.1202H106.857V59.423H103.251V37.1202Z" fill="url(#paint46_linear_10724_37774)"/>
<path d="M122.278 37.1202H125.884V59.423H122.278V37.1202Z" fill="url(#paint47_linear_10724_37774)"/>
<path d="M79.5859 69.046H149.549V72.2999H79.5859V69.046Z" fill="url(#paint48_linear_10724_37774)"/>
<path d="M79.5859 69.046H149.549V72.2999H79.5859V69.046Z" fill="url(#paint49_linear_10724_37774)"/>
<path d="M79.5859 56.1688H149.549V59.4227H79.5859V56.1688Z" fill="url(#paint50_linear_10724_37774)"/>
<path d="M79.5859 56.1688H149.549V59.4227H79.5859V56.1688Z" fill="url(#paint51_linear_10724_37774)"/>
<path d="M121.064 59.743H108.069C108.069 57.5924 110.978 55.8489 114.567 55.8489C118.155 55.8489 121.064 57.5924 121.064 59.743Z" fill="url(#paint52_linear_10724_37774)"/>
<path d="M123.012 37.1202H106.122C106.122 32.1523 109.903 28.125 114.567 28.125C119.231 28.125 123.012 32.1523 123.012 37.1202Z" fill="url(#paint53_linear_10724_37774)"/>
<path d="M114.574 28.125C112.33 28.125 110.513 32.1535 110.513 37.1214H109.309C109.309 32.1535 111.668 28.125 114.574 28.125ZM115.11 28.1701C117.763 28.6306 119.833 32.4639 119.833 37.1214H118.635C118.635 32.1539 116.817 28.1257 114.574 28.125L115.11 28.1701Z" fill="url(#paint54_linear_10724_37774)"/>
<path d="M118.803 22.2505H110.334C110.334 19.7596 112.23 17.7404 114.569 17.7404C116.907 17.7404 118.803 19.7596 118.803 22.2505Z" fill="url(#paint55_linear_10724_37774)"/>
<path d="M102.586 35.7883H126.549V37.5884H102.586V35.7883Z" fill="url(#paint56_linear_10724_37774)"/>
<path d="M102.586 35.7883H126.549V37.5884H102.586V35.7883Z" fill="url(#paint57_linear_10724_37774)"/>
<path d="M110.125 21.3766H119.01V22.4701H110.125V21.3766Z" fill="url(#paint58_linear_10724_37774)"/>
<path d="M110.125 21.3766H119.01V22.4701H110.125V21.3766Z" fill="url(#paint59_linear_10724_37774)"/>
<path d="M113.544 42.5109C114.102 41.9257 115.035 41.9257 115.593 42.5109L115.924 42.8584C116.229 43.1786 116.666 43.3377 117.105 43.2885L117.582 43.2351C118.385 43.1451 119.1 43.7452 119.151 44.5517L119.182 45.0308C119.209 45.4721 119.442 45.875 119.81 46.1197L120.21 46.3854C120.883 46.8328 121.045 47.7521 120.566 48.4027L120.281 48.7891C120.019 49.1451 119.938 49.6032 120.063 50.0274L120.198 50.4879C120.426 51.2633 119.959 52.0717 119.174 52.2619L118.707 52.3749C118.278 52.4789 117.921 52.7779 117.744 53.1831L117.552 53.6229C117.228 54.3634 116.351 54.6827 115.627 54.3235L115.197 54.1102C114.801 53.9136 114.336 53.9136 113.94 54.1102L113.51 54.3235C112.786 54.6827 111.908 54.3634 111.585 53.6229L111.393 53.1831C111.215 52.7779 110.859 52.4789 110.429 52.3749L109.963 52.2619C109.177 52.0717 108.711 51.2633 108.939 50.4879L109.074 50.0274C109.199 49.6032 109.118 49.1451 108.856 48.7891L108.571 48.4027C108.091 47.7521 108.254 46.8328 108.927 46.3854L109.326 46.1197C109.695 45.875 109.927 45.4721 109.955 45.0308L109.985 44.5517C110.036 43.7452 110.751 43.1451 111.554 43.2351L112.031 43.2885C112.471 43.3377 112.908 43.1786 113.213 42.8584L113.544 42.5109Z" fill="url(#paint60_linear_10724_37774)"/>
<path d="M119.218 48.272C119.218 50.8401 117.136 52.922 114.568 52.922C111.999 52.922 109.917 50.8401 109.917 48.272C109.917 45.7038 111.999 43.6219 114.568 43.6219C117.136 43.6219 119.218 45.7038 119.218 48.272Z" fill="url(#paint61_linear_10724_37774)"/>
<path d="M91.0815 96.8563C91.0815 66.563 138.056 66.563 138.056 96.8563V105.578H135.91V101.35C135.91 73.823 93.2227 73.823 93.2225 101.35V105.578H91.0815V96.8563Z" fill="url(#paint62_linear_10724_37774)"/>
<path d="M91.0815 96.8563C91.0815 66.563 138.056 66.563 138.056 96.8563V105.578H135.91V101.35C135.91 73.823 93.2227 73.823 93.2225 101.35V105.578H91.0815V96.8563Z" fill="url(#paint63_radial_10724_37774)"/>
<path d="M73.1724 55.2089H83.1243V69.5998H73.1724V55.2089Z" fill="url(#paint64_linear_10724_37774)"/>
<path d="M73.1724 55.2089H83.1243V69.5998H73.1724V55.2089Z" fill="url(#paint65_linear_10724_37774)"/>
<path d="M73.1724 55.2089H83.1243V69.5998H73.1724V55.2089Z" fill="url(#paint66_linear_10724_37774)"/>
<path d="M73.1724 55.2089H83.1243V69.5998H73.1724V55.2089Z" fill="url(#paint67_linear_10724_37774)"/>
<path d="M146.935 55.2089H156.887V69.5998H146.935V55.2089Z" fill="url(#paint68_linear_10724_37774)"/>
<path d="M146.935 55.2089H156.887V69.5998H146.935V55.2089Z" fill="url(#paint69_linear_10724_37774)"/>
<path d="M146.935 55.2089H156.887V69.5998H146.935V55.2089Z" fill="url(#paint70_linear_10724_37774)"/>
<path d="M146.935 55.2089H156.887V69.5998H146.935V55.2089Z" fill="url(#paint71_linear_10724_37774)"/>
<path d="M72.6699 93.4508H93.1552V96.7047H72.6699V93.4508Z" fill="url(#paint72_linear_10724_37774)"/>
<path d="M72.6699 93.4508H93.1552V96.7047H72.6699V93.4508Z" fill="url(#paint73_linear_10724_37774)"/>
<path d="M136.841 93.4508H157.327V96.7047H136.841V93.4508Z" fill="url(#paint74_linear_10724_37774)"/>
<path d="M136.841 93.4508H157.327V96.7047H136.841V93.4508Z" fill="url(#paint75_linear_10724_37774)"/>
<path d="M72.6699 53.5823H83.5639V56.8362H72.6699V53.5823Z" fill="url(#paint76_linear_10724_37774)"/>
<path d="M72.6699 53.5823H83.5639V56.8362H72.6699V53.5823Z" fill="url(#paint77_linear_10724_37774)"/>
<path d="M146.433 53.5823H157.327V56.8362H146.433V53.5823Z" fill="url(#paint78_linear_10724_37774)"/>
<path d="M146.433 53.5823H157.327V56.8362H146.433V53.5823Z" fill="url(#paint79_linear_10724_37774)"/>
<path d="M72.6699 69.046H83.5639V72.7484H72.6699V69.046Z" fill="url(#paint80_linear_10724_37774)"/>
<path d="M72.6699 69.046H83.5639V72.7484H72.6699V69.046Z" fill="url(#paint81_linear_10724_37774)"/>
<path d="M146.433 69.046H157.327V72.7484H146.433V69.046Z" fill="url(#paint82_linear_10724_37774)"/>
<path d="M146.433 69.046H157.327V72.7484H146.433V69.046Z" fill="url(#paint83_linear_10724_37774)"/>
<path d="M61.3994 82.7012L76.7786 86.2365V105.49L61.3994 106.932V82.7012Z" fill="url(#paint84_linear_10724_37774)"/>
<path d="M61.3994 82.7012L76.7786 86.2365V105.49L61.3994 106.932V82.7012Z" fill="url(#paint85_linear_10724_37774)"/>
<path d="M61.3994 82.7012L76.7786 86.2365V105.49L61.3994 106.932V82.7012Z" fill="url(#paint86_linear_10724_37774)"/>
<path d="M60.2456 78.5184L73.8754 83.0687L78.1167 86.852L60.2456 83.0687V78.5184Z" fill="url(#paint87_linear_10724_37774)"/>
<path d="M66.9118 90.0524C67.5535 90.3351 68.0921 91.1621 68.0927 92.5494V106.301L66.0464 106.495V92.3601C66.0464 91.2103 66.4215 90.444 66.9118 90.0524Z" fill="url(#paint88_linear_10724_37774)"/>
<path d="M72.8389 91.8147C73.3519 92.0393 73.7805 92.6984 73.7809 93.8069V105.769L72.1538 105.922V93.6581C72.1538 92.7417 72.4483 92.1275 72.8389 91.8147Z" fill="url(#paint89_linear_10724_37774)"/>
<path d="M66.9116 90.0522C67.9084 89.2594 69.4172 90.025 69.4176 92.3599V106.179L68.0925 106.301V92.5537C68.0925 91.1651 67.5537 90.335 66.9116 90.0522Z" fill="#BC7E45"/>
<path d="M72.8433 91.8115C73.6385 91.1812 74.8391 91.794 74.84 93.655V105.672L73.7853 105.771V93.8083C73.7848 92.6999 73.3562 92.0363 72.8433 91.8115Z" fill="#BC7E45"/>
<path d="M0 56.3672L11.2545 58.4083V118.916H0.000130947L0 56.3672Z" fill="url(#paint90_linear_10724_37774)"/>
<path d="M0 56.3672L11.2545 58.4083V118.916H0.000130947L0 56.3672Z" fill="url(#paint91_linear_10724_37774)"/>
<path d="M0 44.8527L10.195 44.8525V62.2881H0V44.8527Z" fill="url(#paint92_linear_10724_37774)"/>
<path d="M10.0962 58.058L63.0102 76.5075L63.0095 109.191L10.0962 118.99V58.058Z" fill="url(#paint93_linear_10724_37774)"/>
<path d="M10.0962 58.058L63.0102 76.5075L63.0095 109.191L10.0962 118.99V58.058Z" fill="url(#paint94_linear_10724_37774)"/>
<path d="M10.105 44.8479L59.8772 70.6899L65.3186 77.6541L10.105 62.3007V44.8479Z" fill="url(#paint95_linear_10724_37774)"/>
<path d="M29.33 77.1516C30.7226 77.7619 31.8806 79.5717 31.8806 82.5828V114.949L27.46 115.77V82.1682C27.46 79.6677 28.2618 77.9965 29.33 77.1516Z" fill="url(#paint96_linear_10724_37774)"/>
<path d="M41.7752 80.558C43.0726 81.1225 44.1549 82.8032 44.155 85.6061V112.681L40.0444 113.443V85.2184C40.0448 82.8981 40.7841 81.344 41.7752 80.558Z" fill="url(#paint97_linear_10724_37774)"/>
<path d="M53.3632 82.2994C54.4562 82.778 55.3734 84.1826 55.3734 86.5452V110.6L51.9028 111.245V86.2207C51.9028 84.268 52.5307 82.9652 53.3632 82.2994Z" fill="url(#paint98_linear_10724_37774)"/>
<path d="M29.3262 77.1507C31.4851 75.44 34.7478 77.1135 34.7483 82.1672V114.425L31.8818 114.952V82.5819C31.8814 79.5689 30.7205 77.7594 29.3262 77.1507Z" fill="#BC7E45"/>
<path d="M41.7842 80.5539C43.7908 78.97 46.818 80.5256 46.8187 85.2189V112.186L44.155 112.681V85.602C44.1543 82.8039 43.079 81.1204 41.7842 80.5539Z" fill="#BC7E45"/>
<path d="M53.3721 82.2968C55.0658 80.9493 57.6219 82.25 57.6224 86.218V110.187L55.3733 110.602V86.5425C55.3727 84.1846 54.4626 82.7772 53.3721 82.2968Z" fill="#BC7E45"/>
<path d="M239.711 48.0992L231.481 50.6277V118.663H239.711L239.711 48.0992Z" fill="url(#paint99_linear_10724_37774)"/>
<path d="M239.711 48.0992L231.481 50.6277V118.663H239.711L239.711 48.0992Z" fill="url(#paint100_linear_10724_37774)"/>
<path d="M231.562 49.6396L156.708 70.5127L156.709 107.49L231.562 118.575V49.6396Z" fill="url(#paint101_linear_10724_37774)"/>
<path d="M231.562 49.6396L156.708 70.5127L156.709 107.49L231.562 118.575V49.6396Z" fill="url(#paint102_linear_10724_37774)"/>
<path d="M239.711 34.7433L231.552 34.7433V54.0621H239.614L239.711 34.7433Z" fill="url(#paint103_linear_10724_37774)"/>
<path d="M231.547 34.6948L161.14 63.9307L153.443 71.8098L231.547 54.4402V34.6948Z" fill="url(#paint104_linear_10724_37774)"/>
<path d="M204.355 71.241C202.384 71.9309 200.745 73.977 200.745 77.3843V114.01L207 114.934V76.9155C207 74.0859 205.867 72.1966 204.355 71.241Z" fill="url(#paint105_linear_10724_37774)"/>
<path d="M186.745 75.0952C184.911 75.7349 183.382 77.6365 183.382 80.8059V111.437L189.202 112.298V80.3687C189.201 77.7405 188.149 75.9837 186.745 75.0952Z" fill="url(#paint106_linear_10724_37774)"/>
<path d="M170.346 77.0508C168.8 77.5926 167.515 79.1966 167.515 81.869V109.088L172.423 109.814V81.4994C172.423 79.2798 171.532 77.8003 170.346 77.0508Z" fill="url(#paint107_linear_10724_37774)"/>
<path d="M204.359 71.2424C201.305 69.3085 196.694 71.1961 196.693 76.9125V113.407L200.745 114.007V77.3858C200.745 73.9763 202.387 71.9312 204.359 71.2424Z" fill="#BC7E45"/>
<path d="M186.736 75.0932C183.897 73.2986 179.61 75.0544 179.61 80.3666V110.876L183.382 111.435V80.8038C183.382 77.6377 184.905 75.7351 186.736 75.0932Z" fill="#BC7E45"/>
<path d="M170.341 77.0471C167.945 75.5346 164.328 77.0176 164.328 81.5002V108.616L167.51 109.084V81.8698C167.51 79.1982 168.796 77.5892 170.341 77.0471Z" fill="#BC7E45"/>
<path d="M89.3059 10.5266C92.1727 10.5266 94.559 12.5735 95.0906 15.2846C96.0227 14.945 97.0856 15.1046 97.8777 15.7055C98.5296 14.1667 100.055 13.0875 101.831 13.0875C104.201 13.0876 106.121 15.0081 106.121 17.3774C106.121 19.747 105.134 21.6692 101.831 21.6692C98.5288 21.6692 77.9609 22.9334 77.9609 21.6692C77.9609 20.1424 79.18 17.9092 80.9524 18.4808C81.4646 17.5888 82.3627 16.95 83.4189 16.7853C83.2178 13.4447 85.9519 10.5266 89.3059 10.5266Z" fill="url(#paint108_radial_10724_37774)"/>
<path d="M82.9164 9.13049C79.3657 9.13049 76.4101 11.6657 75.7517 15.0235C74.5973 14.6029 73.2808 14.8006 72.2997 15.5448C65.0632 12.2172 54.8243 22.9312 67.4031 22.9312C71.4934 22.9312 96.9678 24.497 96.9678 22.9312C96.9678 21.0402 95.4579 18.2743 93.2627 18.9822C92.6282 17.8774 91.5159 17.0862 90.2077 16.8823C90.4568 12.7447 87.0705 9.13049 82.9164 9.13049Z" fill="url(#paint109_radial_10724_37774)"/>
<defs>
<radialGradient id="paint0_radial_10724_37774" cx="0" cy="0" r="1" gradientTransform="matrix(135.619 7.12663 9.62755 -81.0942 82.5641 55.0211)" gradientUnits="userSpaceOnUse">
<stop offset="0.0336539" stop-color="#FEBA98"/>
<stop offset="0.230769" stop-color="#FEB3A9"/>
<stop offset="0.548077" stop-color="#EC9DC5"/>
<stop offset="1" stop-color="#B896DD"/>
</radialGradient>
<radialGradient id="paint1_radial_10724_37774" cx="0" cy="0" r="1" gradientTransform="matrix(37.549 -1.85674 1.21239 20.7406 168.237 25.3505)" gradientUnits="userSpaceOnUse">
<stop offset="0.29078" stop-color="#FFF0CC"/>
<stop offset="1" stop-color="#FFF0CC" stop-opacity="0"/>
</radialGradient>
<radialGradient id="paint2_radial_10724_37774" cx="0" cy="0" r="1" gradientUnits="userSpaceOnUse" gradientTransform="translate(15.3729 21.3607) rotate(9.86176) scale(60.0794 42.2197)">
<stop offset="0.296132" stop-color="#FFF0CC"/>
<stop offset="1" stop-color="#FFF0CC" stop-opacity="0"/>
</radialGradient>
<linearGradient id="paint3_linear_10724_37774" x1="80.3314" y1="33.7026" x2="80.3314" y2="56.0032" gradientUnits="userSpaceOnUse">
<stop stop-color="#FEFAF2"/>
<stop offset="1" stop-color="#FFCD5A"/>
</linearGradient>
<linearGradient id="paint4_linear_10724_37774" x1="136.314" y1="-5.80399" x2="171.242" y2="86.0256" gradientUnits="userSpaceOnUse">
<stop stop-color="#A682C0"/>
<stop offset="1" stop-color="#434E86"/>
</linearGradient>
<radialGradient id="paint5_radial_10724_37774" cx="0" cy="0" r="1" gradientUnits="userSpaceOnUse" gradientTransform="translate(208.376 21.1967) rotate(37.9477) scale(57.0171 29.5255)">
<stop offset="0.698018" stop-color="#FFE8CB"/>
<stop offset="1" stop-color="#FFE8CB" stop-opacity="0"/>
</radialGradient>
<radialGradient id="paint6_radial_10724_37774" cx="0" cy="0" r="1" gradientUnits="userSpaceOnUse" gradientTransform="translate(80.4874 25.9151) rotate(57.0667) scale(111.411 111.411)">
<stop stop-color="#FEB5A5"/>
<stop offset="0.480769" stop-color="#F7AAB5" stop-opacity="0"/>
</radialGradient>
<linearGradient id="paint7_linear_10724_37774" x1="136.222" y1="93.6584" x2="117.181" y2="93.6584" gradientUnits="userSpaceOnUse">
<stop stop-color="#FDD266"/>
<stop offset="1" stop-color="#F9A432"/>
</linearGradient>
<linearGradient id="paint8_linear_10724_37774" x1="127.458" y1="89.0435" x2="128.26" y2="92.7215" gradientUnits="userSpaceOnUse">
<stop offset="0.147059" stop-color="#774A50"/>
<stop offset="1" stop-color="#FAAD3C" stop-opacity="0"/>
</linearGradient>
<linearGradient id="paint9_linear_10724_37774" x1="126.652" y1="82.2611" x2="128.162" y2="91.1991" gradientUnits="userSpaceOnUse">
<stop stop-color="#C75E55"/>
<stop offset="1" stop-color="#612E29"/>
</linearGradient>
<linearGradient id="paint10_linear_10724_37774" x1="125.414" y1="102.406" x2="131.655" y2="101.394" gradientUnits="userSpaceOnUse">
<stop stop-color="#240D54" stop-opacity="0"/>
<stop offset="1" stop-color="#240D54"/>
</linearGradient>
<linearGradient id="paint11_linear_10724_37774" x1="121.196" y1="102.682" x2="127.013" y2="101.736" gradientUnits="userSpaceOnUse">
<stop stop-color="#240D54" stop-opacity="0"/>
<stop offset="1" stop-color="#240D54"/>
</linearGradient>
<linearGradient id="paint12_linear_10724_37774" x1="117.6" y1="101.678" x2="122.498" y2="100.884" gradientUnits="userSpaceOnUse">
<stop stop-color="#240D54" stop-opacity="0"/>
<stop offset="1" stop-color="#240D54"/>
</linearGradient>
<linearGradient id="paint13_linear_10724_37774" x1="80.188" y1="93.6584" x2="99.2288" y2="93.6584" gradientUnits="userSpaceOnUse">
<stop stop-color="#FDD266"/>
<stop offset="1" stop-color="#F9A432"/>
</linearGradient>
<linearGradient id="paint14_linear_10724_37774" x1="88.9518" y1="89.0435" x2="88.1495" y2="92.7215" gradientUnits="userSpaceOnUse">
<stop offset="0.147059" stop-color="#774A50"/>
<stop offset="1" stop-color="#FAAD3C" stop-opacity="0"/>
</linearGradient>
<linearGradient id="paint15_linear_10724_37774" x1="89.7578" y1="82.2611" x2="88.2478" y2="91.1991" gradientUnits="userSpaceOnUse">
<stop stop-color="#C75E55"/>
<stop offset="1" stop-color="#612E29"/>
</linearGradient>
<linearGradient id="paint16_linear_10724_37774" x1="90.9955" y1="102.406" x2="84.7537" y2="101.394" gradientUnits="userSpaceOnUse">
<stop stop-color="#240D54" stop-opacity="0"/>
<stop offset="1" stop-color="#240D54"/>
</linearGradient>
<linearGradient id="paint17_linear_10724_37774" x1="95.2133" y1="102.682" x2="89.3966" y2="101.736" gradientUnits="userSpaceOnUse">
<stop stop-color="#240D54" stop-opacity="0"/>
<stop offset="1" stop-color="#240D54"/>
</linearGradient>
<linearGradient id="paint18_linear_10724_37774" x1="98.8095" y1="101.678" x2="93.9115" y2="100.884" gradientUnits="userSpaceOnUse">
<stop stop-color="#240D54" stop-opacity="0"/>
<stop offset="1" stop-color="#240D54"/>
</linearGradient>
<linearGradient id="paint19_linear_10724_37774" x1="81.0713" y1="65.5217" x2="148.064" y2="65.5217" gradientUnits="userSpaceOnUse">
<stop stop-color="#FDD266"/>
<stop offset="1" stop-color="#F9A432"/>
</linearGradient>
<linearGradient id="paint20_linear_10724_37774" x1="114.568" y1="57.796" x2="114.568" y2="62.5962" gradientUnits="userSpaceOnUse">
<stop offset="0.147059" stop-color="#774A50"/>
<stop offset="1" stop-color="#FAAD3C" stop-opacity="0"/>
</linearGradient>
<linearGradient id="paint21_linear_10724_37774" x1="82.4099" y1="57.796" x2="95.7513" y2="66.9231" gradientUnits="userSpaceOnUse">
<stop offset="0.147059" stop-color="#774A50"/>
<stop offset="0.711538" stop-color="#B17647" stop-opacity="0.2"/>
<stop offset="0.774038" stop-color="#FAAD3C" stop-opacity="0"/>
</linearGradient>
<linearGradient id="paint22_linear_10724_37774" x1="123.406" y1="69.6144" x2="115.29" y2="57.4201" gradientUnits="userSpaceOnUse">
<stop stop-color="#240D54" stop-opacity="0"/>
<stop offset="1" stop-color="#7A4E05"/>
</linearGradient>
<radialGradient id="paint23_radial_10724_37774" cx="0" cy="0" r="1" gradientTransform="matrix(1.68275 -17.7742 8.98748 0.869744 114.851 73.5308)" gradientUnits="userSpaceOnUse">
<stop offset="0.599565" stop-color="#240D54" stop-opacity="0"/>
<stop offset="1" stop-color="#00204D"/>
</radialGradient>
<linearGradient id="paint24_linear_10724_37774" x1="119.996" y1="66.8777" x2="108.159" y2="66.8777" gradientUnits="userSpaceOnUse">
<stop offset="0.575472" stop-color="#240D54" stop-opacity="0"/>
<stop offset="1" stop-color="#00204D"/>
</linearGradient>
<linearGradient id="paint25_linear_10724_37774" x1="140.639" y1="193.583" x2="102.184" y2="31.3991" gradientUnits="userSpaceOnUse">
<stop stop-color="#C4A182"/>
<stop offset="1" stop-color="#EBC7FA"/>
</linearGradient>
<radialGradient id="paint26_radial_10724_37774" cx="0" cy="0" r="1" gradientUnits="userSpaceOnUse" gradientTransform="translate(105.19 102.999) scale(163.481 38.9137)">
<stop stop-color="#FBE4C4"/>
<stop offset="1" stop-color="#FFD394" stop-opacity="0"/>
</radialGradient>
<linearGradient id="paint27_linear_10724_37774" x1="81.0713" y1="85.1895" x2="148.064" y2="85.1895" gradientUnits="userSpaceOnUse">
<stop stop-color="#FDD266"/>
<stop offset="1" stop-color="#F9A432"/>
</linearGradient>
<linearGradient id="paint28_linear_10724_37774" x1="114.569" y1="71.25" x2="114.569" y2="75.4327" gradientUnits="userSpaceOnUse">
<stop offset="0.147059" stop-color="#774A50"/>
<stop offset="1" stop-color="#FAAD3C" stop-opacity="0"/>
</linearGradient>
<linearGradient id="paint29_linear_10724_37774" x1="82.4099" y1="71.25" x2="102.097" y2="82.0673" gradientUnits="userSpaceOnUse">
<stop offset="0.147059" stop-color="#774A50"/>
<stop offset="0.711538" stop-color="#B17647" stop-opacity="0.2"/>
<stop offset="0.774038" stop-color="#FAAD3C" stop-opacity="0"/>
</linearGradient>
<linearGradient id="paint30_linear_10724_37774" x1="73.1724" y1="90.962" x2="83.1243" y2="90.962" gradientUnits="userSpaceOnUse">
<stop stop-color="#FDD266"/>
<stop offset="1" stop-color="#F9A432"/>
</linearGradient>
<linearGradient id="paint31_linear_10724_37774" x1="84.2128" y1="75.4328" x2="79.7416" y2="75.4328" gradientUnits="userSpaceOnUse">
<stop offset="0.147059" stop-color="#774A50"/>
<stop offset="0.519231" stop-color="#B97C46" stop-opacity="0.491349"/>
<stop offset="0.689707" stop-color="#FAAD3C" stop-opacity="0"/>
</linearGradient>
<linearGradient id="paint32_linear_10724_37774" x1="72.458" y1="90.9352" x2="75.631" y2="90.9352" gradientUnits="userSpaceOnUse">
<stop stop-color="#FFF0CE"/>
<stop offset="0.557692" stop-color="#FFF0CE" stop-opacity="0.5"/>
<stop offset="0.774038" stop-color="#FFF0CE" stop-opacity="0"/>
</linearGradient>
<linearGradient id="paint33_linear_10724_37774" x1="78.1483" y1="71.25" x2="78.1483" y2="75.4328" gradientUnits="userSpaceOnUse">
<stop offset="0.147059" stop-color="#774A50"/>
<stop offset="1" stop-color="#FAAD3C" stop-opacity="0"/>
</linearGradient>
<linearGradient id="paint34_linear_10724_37774" x1="146.935" y1="90.962" x2="156.887" y2="90.962" gradientUnits="userSpaceOnUse">
<stop stop-color="#FDD266"/>
<stop offset="1" stop-color="#F9A432"/>
</linearGradient>
<linearGradient id="paint35_linear_10724_37774" x1="157.975" y1="75.4328" x2="153.504" y2="75.4328" gradientUnits="userSpaceOnUse">
<stop offset="0.147059" stop-color="#774A50"/>
<stop offset="0.519231" stop-color="#B97C46" stop-opacity="0.491349"/>
<stop offset="0.689707" stop-color="#FAAD3C" stop-opacity="0"/>
</linearGradient>
<linearGradient id="paint36_linear_10724_37774" x1="146.221" y1="90.9352" x2="149.394" y2="90.9352" gradientUnits="userSpaceOnUse">
<stop stop-color="#FFF0CE"/>
<stop offset="0.557692" stop-color="#FFF0CE" stop-opacity="0.5"/>
<stop offset="0.774038" stop-color="#FFF0CE" stop-opacity="0"/>
</linearGradient>
<linearGradient id="paint37_linear_10724_37774" x1="151.911" y1="71.25" x2="151.911" y2="75.4328" gradientUnits="userSpaceOnUse">
<stop offset="0.147059" stop-color="#774A50"/>
<stop offset="1" stop-color="#FAAD3C" stop-opacity="0"/>
</linearGradient>
<linearGradient id="paint38_linear_10724_37774" x1="105.836" y1="49.9271" x2="123.298" y2="49.9271" gradientUnits="userSpaceOnUse">
<stop stop-color="#FDD266"/>
<stop offset="1" stop-color="#F9A432"/>
</linearGradient>
<linearGradient id="paint39_linear_10724_37774" x1="106.268" y1="43.7478" x2="109.891" y2="43.7478" gradientUnits="userSpaceOnUse">
<stop offset="0.147059" stop-color="#774A50"/>
<stop offset="0.576923" stop-color="#B17647" stop-opacity="0.2"/>
<stop offset="0.774038" stop-color="#FAAD3C" stop-opacity="0"/>
</linearGradient>
<linearGradient id="paint40_linear_10724_37774" x1="114.567" y1="37.1202" x2="114.567" y2="39.7093" gradientUnits="userSpaceOnUse">
<stop offset="0.147059" stop-color="#774A50"/>
<stop offset="1" stop-color="#FAAD3C" stop-opacity="0"/>
</linearGradient>
<linearGradient id="paint41_linear_10724_37774" x1="110.508" y1="28.2064" x2="118.629" y2="28.2064" gradientUnits="userSpaceOnUse">
<stop stop-color="#FDD266"/>
<stop offset="1" stop-color="#F9A432"/>
</linearGradient>
<linearGradient id="paint42_linear_10724_37774" x1="119.234" y1="27.8292" x2="114.95" y2="21.3914" gradientUnits="userSpaceOnUse">
<stop stop-color="#240D54" stop-opacity="0"/>
<stop offset="1" stop-color="#7A4E05"/>
</linearGradient>
<radialGradient id="paint43_radial_10724_37774" cx="0" cy="0" r="1" gradientTransform="matrix(0.888374 -9.38352 4.74476 0.459164 114.718 29.8967)" gradientUnits="userSpaceOnUse">
<stop offset="0.599565" stop-color="#240D54" stop-opacity="0"/>
<stop offset="1" stop-color="#00204D"/>
</radialGradient>
<linearGradient id="paint44_linear_10724_37774" x1="117.434" y1="26.3844" x2="111.185" y2="26.3844" gradientUnits="userSpaceOnUse">
<stop offset="0.575472" stop-color="#240D54" stop-opacity="0"/>
<stop offset="1" stop-color="#00204D"/>
</linearGradient>
<linearGradient id="paint45_linear_10724_37774" x1="140.99" y1="82.879" x2="123.818" y2="53.7657" gradientUnits="userSpaceOnUse">
<stop stop-color="#D8988C"/>
<stop offset="1" stop-color="#FFE9E5"/>
</linearGradient>
<linearGradient id="paint46_linear_10724_37774" x1="113.403" y1="80.0923" x2="94.1294" y2="74.2825" gradientUnits="userSpaceOnUse">
<stop stop-color="#D8988C"/>
<stop offset="1" stop-color="#FFE9E5"/>
</linearGradient>
<linearGradient id="paint47_linear_10724_37774" x1="132.43" y1="80.0923" x2="113.157" y2="74.2825" gradientUnits="userSpaceOnUse">
<stop stop-color="#D8988C"/>
<stop offset="1" stop-color="#FFE9E5"/>
</linearGradient>
<linearGradient id="paint48_linear_10724_37774" x1="276.566" y1="75.3155" x2="276.312" y2="65.1458" gradientUnits="userSpaceOnUse">
<stop stop-color="#D8988C"/>
<stop offset="1" stop-color="#FFE9E5"/>
</linearGradient>
<linearGradient id="paint49_linear_10724_37774" x1="114.568" y1="73.0271" x2="114.568" y2="70.673" gradientUnits="userSpaceOnUse">
<stop offset="0.147059" stop-color="#774A50"/>
<stop offset="1" stop-color="#FAAD3C" stop-opacity="0"/>
</linearGradient>
<linearGradient id="paint50_linear_10724_37774" x1="276.566" y1="62.4383" x2="276.312" y2="52.2686" gradientUnits="userSpaceOnUse">
<stop stop-color="#D8988C"/>
<stop offset="1" stop-color="#FFE9E5"/>
</linearGradient>
<linearGradient id="paint51_linear_10724_37774" x1="114.568" y1="60.1499" x2="114.568" y2="57.7958" gradientUnits="userSpaceOnUse">
<stop offset="0.147059" stop-color="#774A50"/>
<stop offset="1" stop-color="#FAAD3C" stop-opacity="0"/>
</linearGradient>
<linearGradient id="paint52_linear_10724_37774" x1="144.655" y1="63.352" x2="142.747" y2="51.4804" gradientUnits="userSpaceOnUse">
<stop stop-color="#D8988C"/>
<stop offset="1" stop-color="#FFE9E5"/>
</linearGradient>
<linearGradient id="paint53_linear_10724_37774" x1="106.122" y1="33.2903" x2="123.012" y2="33.2903" gradientUnits="userSpaceOnUse">
<stop stop-color="#FDD266"/>
<stop offset="1" stop-color="#F9A432"/>
</linearGradient>
<linearGradient id="paint54_linear_10724_37774" x1="138.941" y1="45.4566" x2="128.286" y2="22.2096" gradientUnits="userSpaceOnUse">
<stop stop-color="#D8988C"/>
<stop offset="1" stop-color="#FFE9E5"/>
</linearGradient>
<linearGradient id="paint55_linear_10724_37774" x1="112.122" y1="17.7404" x2="113.663" y2="21.7693" gradientUnits="userSpaceOnUse">
<stop stop-color="#C75E55"/>
<stop offset="1" stop-color="#612E29"/>
</linearGradient>
<linearGradient id="paint56_linear_10724_37774" x1="170.053" y1="39.2566" x2="169.826" y2="33.6364" gradientUnits="userSpaceOnUse">
<stop stop-color="#D8988C"/>
<stop offset="1" stop-color="#FFE9E5"/>
</linearGradient>
<linearGradient id="paint57_linear_10724_37774" x1="114.568" y1="37.9906" x2="114.568" y2="36.6884" gradientUnits="userSpaceOnUse">
<stop offset="0.147059" stop-color="#774A50"/>
<stop offset="1" stop-color="#FAAD3C" stop-opacity="0"/>
</linearGradient>
<linearGradient id="paint58_linear_10724_37774" x1="135.143" y1="23.4836" x2="134.918" y2="20.0785" gradientUnits="userSpaceOnUse">
<stop stop-color="#D8988C"/>
<stop offset="1" stop-color="#FFE9E5"/>
</linearGradient>
<linearGradient id="paint59_linear_10724_37774" x1="114.567" y1="22.7145" x2="114.567" y2="21.9234" gradientUnits="userSpaceOnUse">
<stop offset="0.147059" stop-color="#774A50"/>
<stop offset="1" stop-color="#FAAD3C" stop-opacity="0"/>
</linearGradient>
<linearGradient id="paint60_linear_10724_37774" x1="143.62" y1="65.9624" x2="127.575" y2="35.6903" gradientUnits="userSpaceOnUse">
<stop stop-color="#D8988C"/>
<stop offset="1" stop-color="#FFE9E5"/>
</linearGradient>
<linearGradient id="paint61_linear_10724_37774" x1="119.218" y1="52.922" x2="108.774" y2="39.8806" gradientUnits="userSpaceOnUse">
<stop stop-color="#1F1356"/>
<stop offset="1" stop-color="#E5FAFF"/>
</linearGradient>
<linearGradient id="paint62_linear_10724_37774" x1="223.345" y1="134.713" x2="192.083" y2="47.6148" gradientUnits="userSpaceOnUse">
<stop stop-color="#D8988C"/>
<stop offset="1" stop-color="#FFE9E5"/>
</linearGradient>
<radialGradient id="paint63_radial_10724_37774" cx="0" cy="0" r="1" gradientUnits="userSpaceOnUse" gradientTransform="translate(114.566 105.577) rotate(-90) scale(39.9493 34.8385)">
<stop offset="0.225962" stop-color="#FAAD3C" stop-opacity="0"/>
<stop offset="0.689537" stop-color="#B17647" stop-opacity="0.2"/>
<stop offset="0.852941" stop-color="#774A50"/>
</radialGradient>
<linearGradient id="paint64_linear_10724_37774" x1="73.1724" y1="63.4725" x2="83.1243" y2="63.4725" gradientUnits="userSpaceOnUse">
<stop stop-color="#FDD266"/>
<stop offset="1" stop-color="#F9A432"/>
</linearGradient>
<linearGradient id="paint65_linear_10724_37774" x1="84.2128" y1="56.9624" x2="79.7416" y2="56.9624" gradientUnits="userSpaceOnUse">
<stop offset="0.147059" stop-color="#774A50"/>
<stop offset="0.519231" stop-color="#B97C46" stop-opacity="0.491349"/>
<stop offset="0.689707" stop-color="#FAAD3C" stop-opacity="0"/>
</linearGradient>
<linearGradient id="paint66_linear_10724_37774" x1="72.458" y1="63.4613" x2="75.631" y2="63.4613" gradientUnits="userSpaceOnUse">
<stop stop-color="#FFF0CE"/>
<stop offset="0.557692" stop-color="#FFF0CE" stop-opacity="0.5"/>
<stop offset="0.774038" stop-color="#FFF0CE" stop-opacity="0"/>
</linearGradient>
<linearGradient id="paint67_linear_10724_37774" x1="78.1483" y1="55.2089" x2="78.1483" y2="59.5671" gradientUnits="userSpaceOnUse">
<stop offset="0.147059" stop-color="#774A50"/>
<stop offset="1" stop-color="#FAAD3C" stop-opacity="0"/>
</linearGradient>
<linearGradient id="paint68_linear_10724_37774" x1="146.935" y1="63.4725" x2="156.887" y2="63.4725" gradientUnits="userSpaceOnUse">
<stop stop-color="#FDD266"/>
<stop offset="1" stop-color="#F9A432"/>
</linearGradient>
<linearGradient id="paint69_linear_10724_37774" x1="157.975" y1="56.9624" x2="153.504" y2="56.9624" gradientUnits="userSpaceOnUse">
<stop offset="0.147059" stop-color="#774A50"/>
<stop offset="0.519231" stop-color="#B97C46" stop-opacity="0.491349"/>
<stop offset="0.689707" stop-color="#FAAD3C" stop-opacity="0"/>
</linearGradient>
<linearGradient id="paint70_linear_10724_37774" x1="146.221" y1="63.4613" x2="149.394" y2="63.4613" gradientUnits="userSpaceOnUse">
<stop stop-color="#FFF0CE"/>
<stop offset="0.557692" stop-color="#FFF0CE" stop-opacity="0.5"/>
<stop offset="0.774038" stop-color="#FFF0CE" stop-opacity="0"/>
</linearGradient>
<linearGradient id="paint71_linear_10724_37774" x1="151.911" y1="55.2089" x2="151.911" y2="59.5671" gradientUnits="userSpaceOnUse">
<stop offset="0.147059" stop-color="#774A50"/>
<stop offset="1" stop-color="#FAAD3C" stop-opacity="0"/>
</linearGradient>
<linearGradient id="paint72_linear_10724_37774" x1="130.346" y1="99.7203" x2="129.485" y2="89.6176" gradientUnits="userSpaceOnUse">
<stop stop-color="#D8988C"/>
<stop offset="1" stop-color="#FFE9E5"/>
</linearGradient>
<linearGradient id="paint73_linear_10724_37774" x1="82.9126" y1="97.4319" x2="82.9126" y2="95.0778" gradientUnits="userSpaceOnUse">
<stop offset="0.147059" stop-color="#774A50"/>
<stop offset="1" stop-color="#FAAD3C" stop-opacity="0"/>
</linearGradient>
<linearGradient id="paint74_linear_10724_37774" x1="194.517" y1="99.7203" x2="193.657" y2="89.6176" gradientUnits="userSpaceOnUse">
<stop stop-color="#D8988C"/>
<stop offset="1" stop-color="#FFE9E5"/>
</linearGradient>
<linearGradient id="paint75_linear_10724_37774" x1="147.084" y1="97.4319" x2="147.084" y2="95.0778" gradientUnits="userSpaceOnUse">
<stop offset="0.147059" stop-color="#774A50"/>
<stop offset="1" stop-color="#FAAD3C" stop-opacity="0"/>
</linearGradient>
<linearGradient id="paint76_linear_10724_37774" x1="103.342" y1="59.8518" x2="101.752" y2="49.9303" gradientUnits="userSpaceOnUse">
<stop stop-color="#D8988C"/>
<stop offset="1" stop-color="#FFE9E5"/>
</linearGradient>
<linearGradient id="paint77_linear_10724_37774" x1="78.1169" y1="57.5633" x2="78.1169" y2="55.2092" gradientUnits="userSpaceOnUse">
<stop offset="0.147059" stop-color="#774A50"/>
<stop offset="1" stop-color="#FAAD3C" stop-opacity="0"/>
</linearGradient>
<linearGradient id="paint78_linear_10724_37774" x1="177.104" y1="59.8518" x2="175.515" y2="49.9303" gradientUnits="userSpaceOnUse">
<stop stop-color="#D8988C"/>
<stop offset="1" stop-color="#FFE9E5"/>
</linearGradient>
<linearGradient id="paint79_linear_10724_37774" x1="151.88" y1="57.5633" x2="151.88" y2="55.2092" gradientUnits="userSpaceOnUse">
<stop offset="0.147059" stop-color="#774A50"/>
<stop offset="1" stop-color="#FAAD3C" stop-opacity="0"/>
</linearGradient>
<linearGradient id="paint80_linear_10724_37774" x1="103.342" y1="76.1796" x2="101.299" y2="64.9734" gradientUnits="userSpaceOnUse">
<stop stop-color="#D8988C"/>
<stop offset="1" stop-color="#FFE9E5"/>
</linearGradient>
<linearGradient id="paint81_linear_10724_37774" x1="78.1169" y1="73.5758" x2="78.1169" y2="70.8972" gradientUnits="userSpaceOnUse">
<stop offset="0.147059" stop-color="#774A50"/>
<stop offset="1" stop-color="#FAAD3C" stop-opacity="0"/>
</linearGradient>
<linearGradient id="paint82_linear_10724_37774" x1="177.104" y1="76.1796" x2="175.062" y2="64.9734" gradientUnits="userSpaceOnUse">
<stop stop-color="#D8988C"/>
<stop offset="1" stop-color="#FFE9E5"/>
</linearGradient>
<linearGradient id="paint83_linear_10724_37774" x1="151.88" y1="73.5758" x2="151.88" y2="70.8972" gradientUnits="userSpaceOnUse">
<stop offset="0.147059" stop-color="#774A50"/>
<stop offset="1" stop-color="#FAAD3C" stop-opacity="0"/>
</linearGradient>
<linearGradient id="paint84_linear_10724_37774" x1="61.3994" y1="92.5408" x2="76.7781" y2="92.5408" gradientUnits="userSpaceOnUse">
<stop stop-color="#FDD266"/>
<stop offset="1" stop-color="#F9A432"/>
</linearGradient>
<linearGradient id="paint85_linear_10724_37774" x1="69.089" y1="84.6371" x2="68.4856" y2="89.6325" gradientUnits="userSpaceOnUse">
<stop offset="0.147059" stop-color="#774A50"/>
<stop offset="1" stop-color="#FAAD3C" stop-opacity="0"/>
</linearGradient>
<linearGradient id="paint86_linear_10724_37774" x1="61.7067" y1="82.7012" x2="71.5756" y2="84.2786" gradientUnits="userSpaceOnUse">
<stop offset="0.147059" stop-color="#774A50"/>
<stop offset="0.711538" stop-color="#B17647" stop-opacity="0.2"/>
<stop offset="1" stop-color="#FAAD3C" stop-opacity="0"/>
</linearGradient>
<linearGradient id="paint87_linear_10724_37774" x1="69.1812" y1="78.5184" x2="67.9393" y2="86.0729" gradientUnits="userSpaceOnUse">
<stop stop-color="#C75E55"/>
<stop offset="1" stop-color="#612E29"/>
</linearGradient>
<linearGradient id="paint88_linear_10724_37774" x1="71.9101" y1="106.309" x2="63.8157" y2="105.227" gradientUnits="userSpaceOnUse">
<stop stop-color="#240D54" stop-opacity="0"/>
<stop offset="1" stop-color="#240D54"/>
</linearGradient>
<linearGradient id="paint89_linear_10724_37774" x1="76.8181" y1="104.787" x2="70.3811" y2="103.93" gradientUnits="userSpaceOnUse">
<stop stop-color="#240D54" stop-opacity="0"/>
<stop offset="1" stop-color="#240D54"/>
</linearGradient>
<linearGradient id="paint90_linear_10724_37774" x1="44.1719" y1="72.7488" x2="-10.3718" y2="66.3794" gradientUnits="userSpaceOnUse">
<stop stop-color="#FDD266"/>
<stop offset="1" stop-color="#A56D21"/>
</linearGradient>
<linearGradient id="paint91_linear_10724_37774" x1="46.8732" y1="65.3292" x2="44.9367" y2="78.9809" gradientUnits="userSpaceOnUse">
<stop offset="0.147059" stop-color="#5C2C33"/>
<stop offset="1" stop-color="#AC7337" stop-opacity="0"/>
</linearGradient>
<linearGradient id="paint92_linear_10724_37774" x1="50.1135" y1="54.8816" x2="-1.55913" y2="34.1539" gradientUnits="userSpaceOnUse">
<stop stop-color="#C75E55"/>
<stop offset="1" stop-color="#612E29"/>
</linearGradient>
<linearGradient id="paint93_linear_10724_37774" x1="10.0962" y1="82.8012" x2="63.0084" y2="82.8012" gradientUnits="userSpaceOnUse">
<stop stop-color="#FDD266"/>
<stop offset="1" stop-color="#F9A432"/>
</linearGradient>
<linearGradient id="paint94_linear_10724_37774" x1="34.4497" y1="67.2028" x2="31.2219" y2="79.3693" gradientUnits="userSpaceOnUse">
<stop offset="0.147059" stop-color="#774A50"/>
<stop offset="1" stop-color="#FAAD3C" stop-opacity="0"/>
</linearGradient>
<linearGradient id="paint95_linear_10724_37774" x1="36.6897" y1="44.2794" x2="30.5637" y2="74.093" gradientUnits="userSpaceOnUse">
<stop stop-color="#C75E55"/>
<stop offset="1" stop-color="#612E29"/>
</linearGradient>
<linearGradient id="paint96_linear_10724_37774" x1="40.1323" y1="112.367" x2="22.6442" y2="110.037" gradientUnits="userSpaceOnUse">
<stop stop-color="#240D54" stop-opacity="0"/>
<stop offset="1" stop-color="#240D54"/>
</linearGradient>
<linearGradient id="paint97_linear_10724_37774" x1="51.828" y1="113.295" x2="35.5666" y2="111.127" gradientUnits="userSpaceOnUse">
<stop stop-color="#240D54" stop-opacity="0"/>
<stop offset="1" stop-color="#240D54"/>
</linearGradient>
<linearGradient id="paint98_linear_10724_37774" x1="61.8517" y1="109.921" x2="48.1225" y2="108.089" gradientUnits="userSpaceOnUse">
<stop stop-color="#240D54" stop-opacity="0"/>
<stop offset="1" stop-color="#240D54"/>
</linearGradient>
<linearGradient id="paint99_linear_10724_37774" x1="208.327" y1="66.7525" x2="247.009" y2="63.9268" gradientUnits="userSpaceOnUse">
<stop stop-color="#FDD266"/>
<stop offset="1" stop-color="#A56D21"/>
</linearGradient>
<linearGradient id="paint100_linear_10724_37774" x1="206.427" y1="58.4098" x2="209.805" y2="73.3031" gradientUnits="userSpaceOnUse">
<stop offset="0.147059" stop-color="#5C2C33"/>
<stop offset="1" stop-color="#AC7337" stop-opacity="0"/>
</linearGradient>
<linearGradient id="paint101_linear_10724_37774" x1="231.563" y1="77.6332" x2="156.71" y2="77.6332" gradientUnits="userSpaceOnUse">
<stop stop-color="#FDD266"/>
<stop offset="1" stop-color="#F9A432"/>
</linearGradient>
<linearGradient id="paint102_linear_10724_37774" x1="197.111" y1="59.9858" x2="200.102" y2="74.0846" gradientUnits="userSpaceOnUse">
<stop offset="0.147059" stop-color="#774A50"/>
<stop offset="1" stop-color="#FAAD3C" stop-opacity="0"/>
</linearGradient>
<linearGradient id="paint103_linear_10724_37774" x1="189.598" y1="46.6868" x2="242.634" y2="27.4861" gradientUnits="userSpaceOnUse">
<stop stop-color="#C75E55"/>
<stop offset="1" stop-color="#612E29"/>
</linearGradient>
<linearGradient id="paint104_linear_10724_37774" x1="193.943" y1="34.0509" x2="199.568" y2="68.2806" gradientUnits="userSpaceOnUse">
<stop stop-color="#C75E55"/>
<stop offset="1" stop-color="#612E29"/>
</linearGradient>
<linearGradient id="paint105_linear_10724_37774" x1="189.069" y1="111.084" x2="213.574" y2="107" gradientUnits="userSpaceOnUse">
<stop stop-color="#240D54" stop-opacity="0"/>
<stop offset="1" stop-color="#240D54"/>
</linearGradient>
<linearGradient id="paint106_linear_10724_37774" x1="172.519" y1="112.13" x2="195.316" y2="108.327" gradientUnits="userSpaceOnUse">
<stop stop-color="#240D54" stop-opacity="0"/>
<stop offset="1" stop-color="#240D54"/>
</linearGradient>
<linearGradient id="paint107_linear_10724_37774" x1="158.353" y1="108.315" x2="177.581" y2="105.11" gradientUnits="userSpaceOnUse">
<stop stop-color="#240D54" stop-opacity="0"/>
<stop offset="1" stop-color="#240D54"/>
</linearGradient>
<radialGradient id="paint108_radial_10724_37774" cx="0" cy="0" r="1" gradientTransform="matrix(23.54 0 0.116821 13.0083 90.801 22.231)" gradientUnits="userSpaceOnUse">
<stop offset="0.312195" stop-color="#FFF0CC" stop-opacity="0"/>
<stop offset="0.788462" stop-color="#FFF0CC"/>
</radialGradient>
<radialGradient id="paint109_radial_10724_37774" cx="0" cy="0" r="1" gradientTransform="matrix(-29.1557 0 -0.144689 16.1116 81.0647 23.6271)" gradientUnits="userSpaceOnUse">
<stop offset="0.312195" stop-color="#FFF0CC" stop-opacity="0"/>
<stop offset="0.788462" stop-color="#FFF0CC"/>
</radialGradient>
</defs>
</svg>
