<svg viewBox="0 0 240 120" fill="none" xmlns="http://www.w3.org/2000/svg">
<path fill-rule="evenodd" clip-rule="evenodd" d="M39.2031 44.016C40.404 39.6295 42.4777 34.9019 45.6082 29.7813C34.1495 54.6515 51.1596 74.3 68.5462 86.0819C64.0449 80.5548 58.4073 71.2263 61.584 65.1934C60.2591 71.8174 68.2048 82.5836 82.5117 94.0185C85.4807 95.4058 88.175 96.4747 90.3944 97.2064C100.002 100.374 104.86 99.5712 111.369 98.4964C116.347 97.6742 122.291 96.6926 132.063 97.2064C144.887 97.8806 159.519 94.5218 171.348 90.2387C175.633 86.6689 177.983 82.2266 180.284 77.8748C183.256 72.2565 186.148 66.7891 193.021 63.5444C186.284 69.7178 184.769 74.9616 183.418 79.6403C182.735 82.0035 182.094 84.2225 180.842 86.3443C185.428 84.2135 189.107 82.0782 191.41 80.2563C194.5 77.8108 197.383 73.6197 200.396 69.2405C205.825 61.3494 211.674 52.8475 219.91 52.8475C215.364 54.4703 205.119 66.1912 204.217 71.9613C210.999 66.768 220.536 68.1064 224.457 69.4247C210.616 70.0177 204.035 77.0298 196.236 85.338C192.989 88.7975 189.531 92.4818 185.25 96.0209C178.355 101.721 162.669 104.637 147.617 107.436C130.879 110.548 114.926 113.514 112.714 120H84.1244C88.1546 109.546 77.7457 101.532 65.7921 92.3282C62.216 89.5747 58.5016 86.7148 54.9943 83.6513C37.3972 76.1098 31.6831 65.2356 30.9331 56.2318C32.5593 63.1025 40.4665 71.7646 45.937 74.3894C40.2376 67.2324 36.7208 58.8646 38.2582 48.4778C33.6387 40.8699 35.1169 33.8235 36.2257 28.5388L36.2257 28.5388C36.8157 25.7261 37.3011 23.4125 36.7068 21.7788H37.3563C37.8072 23.6327 37.5093 25.9566 37.1767 28.5509C36.5783 33.2182 35.8678 38.7608 39.2031 44.016Z" fill="url(#paint0_linear_7471_1764)"/>
<path fill-rule="evenodd" clip-rule="evenodd" d="M39.2031 44.016C40.404 39.6295 42.4777 34.9019 45.6082 29.7813C34.1495 54.6515 51.1596 74.3 68.5462 86.0819C64.0449 80.5548 58.4073 71.2263 61.584 65.1934C60.2591 71.8174 68.2048 82.5836 82.5117 94.0185C85.4807 95.4058 88.175 96.4747 90.3944 97.2064C100.002 100.374 104.86 99.5712 111.369 98.4964C116.347 97.6742 122.291 96.6926 132.063 97.2064C144.887 97.8806 159.519 94.5218 171.348 90.2387C175.633 86.6689 177.983 82.2266 180.284 77.8748C183.256 72.2565 186.148 66.7891 193.021 63.5444C186.284 69.7178 184.769 74.9616 183.418 79.6403C182.735 82.0035 182.094 84.2225 180.842 86.3443C185.428 84.2135 189.107 82.0782 191.41 80.2563C194.5 77.8108 197.383 73.6197 200.396 69.2405C205.825 61.3494 211.674 52.8475 219.91 52.8475C215.364 54.4703 205.119 66.1912 204.217 71.9613C210.999 66.768 220.536 68.1064 224.457 69.4247C210.616 70.0177 204.035 77.0298 196.236 85.338C192.989 88.7975 189.531 92.4818 185.25 96.0209C178.355 101.721 162.669 104.637 147.617 107.436C130.879 110.548 114.926 113.514 112.714 120H84.1244C88.1546 109.546 77.7457 101.532 65.7921 92.3282C62.216 89.5747 58.5016 86.7148 54.9943 83.6513C37.3972 76.1098 31.6831 65.2356 30.9331 56.2318C32.5593 63.1025 40.4665 71.7646 45.937 74.3894C40.2376 67.2324 36.7208 58.8646 38.2582 48.4778C33.6387 40.8699 35.1169 33.8235 36.2257 28.5388L36.2257 28.5388C36.8157 25.7261 37.3011 23.4125 36.7068 21.7788H37.3563C37.8072 23.6327 37.5093 25.9566 37.1767 28.5509C36.5783 33.2182 35.8678 38.7608 39.2031 44.016Z" fill="url(#paint1_radial_7471_1764)"/>
<path fill-rule="evenodd" clip-rule="evenodd" d="M39.2031 44.016C40.404 39.6295 42.4777 34.9019 45.6082 29.7813C34.1495 54.6515 51.1596 74.3 68.5462 86.0819C64.0449 80.5548 58.4073 71.2263 61.584 65.1934C60.2591 71.8174 68.2048 82.5836 82.5117 94.0185C85.4807 95.4058 88.175 96.4747 90.3944 97.2064C100.002 100.374 104.86 99.5712 111.369 98.4964C116.347 97.6742 122.291 96.6926 132.063 97.2064C144.887 97.8806 159.519 94.5218 171.348 90.2387C175.633 86.6689 177.983 82.2266 180.284 77.8748C183.256 72.2565 186.148 66.7891 193.021 63.5444C186.284 69.7178 184.769 74.9616 183.418 79.6403C182.735 82.0035 182.094 84.2225 180.842 86.3443C185.428 84.2135 189.107 82.0782 191.41 80.2563C194.5 77.8108 197.383 73.6197 200.396 69.2405C205.825 61.3494 211.674 52.8475 219.91 52.8475C215.364 54.4703 205.119 66.1912 204.217 71.9613C210.999 66.768 220.536 68.1064 224.457 69.4247C210.616 70.0177 204.035 77.0298 196.236 85.338C192.989 88.7975 189.531 92.4818 185.25 96.0209C178.355 101.721 162.669 104.637 147.617 107.436C130.879 110.548 114.926 113.514 112.714 120H84.1244C88.1546 109.546 77.7457 101.532 65.7921 92.3282C62.216 89.5747 58.5016 86.7148 54.9943 83.6513C37.3972 76.1098 31.6831 65.2356 30.9331 56.2318C32.5593 63.1025 40.4665 71.7646 45.937 74.3894C40.2376 67.2324 36.7208 58.8646 38.2582 48.4778C33.6387 40.8699 35.1169 33.8235 36.2257 28.5388L36.2257 28.5388C36.8157 25.7261 37.3011 23.4125 36.7068 21.7788H37.3563C37.8072 23.6327 37.5093 25.9566 37.1767 28.5509C36.5783 33.2182 35.8678 38.7608 39.2031 44.016Z" fill="url(#paint2_radial_7471_1764)"/>
<path d="M196.885 39.3688C195.942 47.5977 179.483 55.557 190.275 65.5395C192.841 64.73 195.455 60.5321 195.455 56.5645C195.455 51.9834 199.447 49.2166 196.885 39.3688Z" fill="url(#paint3_linear_7471_1764)"/>
<path d="M196.885 39.3688C195.942 47.5977 179.483 55.557 190.275 65.5395C192.841 64.73 195.455 60.5321 195.455 56.5645C195.455 51.9834 199.447 49.2166 196.885 39.3688Z" fill="url(#paint4_linear_7471_1764)"/>
<path d="M205.098 87.8544C201.871 88.7362 192.248 92.2623 187.302 91.6699C198.757 106.781 212.779 91.8862 220.685 91.8194C216.834 90.1303 208.326 86.9725 205.098 87.8544Z" fill="url(#paint5_linear_7471_1764)"/>
<path d="M205.098 87.8544C201.871 88.7362 192.248 92.2623 187.302 91.6699C198.757 106.781 212.779 91.8862 220.685 91.8194C216.834 90.1303 208.326 86.9725 205.098 87.8544Z" fill="url(#paint6_linear_7471_1764)"/>
<path d="M61.4427 70.0962C60.5773 60.4327 52.0677 56.6827 63.3177 39.9519C65.0482 49.3269 73.2699 52.0673 61.4427 70.0962Z" fill="url(#paint7_linear_7471_1764)"/>
<path d="M61.4427 70.0962C60.5773 60.4327 52.0677 56.6827 63.3177 39.9519C65.0482 49.3269 73.2699 52.0673 61.4427 70.0962Z" fill="url(#paint8_linear_7471_1764)"/>
<path d="M20.625 56.25C22.6442 60.7212 31.875 61.2981 35.4808 65.0481L37.7885 68.6538C32.1635 79.9038 21.4904 68.9423 20.625 56.25Z" fill="url(#paint9_linear_7471_1764)"/>
<path d="M20.625 56.25C22.6442 60.7212 31.875 61.2981 35.4808 65.0481L37.7885 68.6538C32.1635 79.9038 21.4904 68.9423 20.625 56.25Z" fill="url(#paint10_linear_7471_1764)"/>
<path d="M44.1122 32.8147C43.6507 24.3917 51.1314 17.6705 54.9295 15.3628C54.2084 19.5455 59.2566 28.4878 44.1122 32.8147Z" fill="url(#paint11_linear_7471_1764)"/>
<path d="M44.1122 32.8147C43.6507 24.3917 51.1314 17.6705 54.9295 15.3628C54.2084 19.5455 59.2566 28.4878 44.1122 32.8147Z" fill="url(#paint12_linear_7471_1764)"/>
<path d="M37.212 22.9327C30.1447 20.7692 32.3082 12.5481 32.7409 10.3846C34.3269 13.5577 41.6832 16.7308 37.212 22.9327Z" fill="url(#paint13_linear_7471_1764)"/>
<path d="M37.212 22.9327C30.1447 20.7692 32.3082 12.5481 32.7409 10.3846C34.3269 13.5577 41.6832 16.7308 37.212 22.9327Z" fill="url(#paint14_linear_7471_1764)"/>
<path d="M214.184 55.2405C206.107 47.4521 211.323 35.7163 217.159 32.5854C217.159 36.1247 224.516 48.0104 214.184 55.2405Z" fill="url(#paint15_linear_7471_1764)"/>
<path d="M214.184 55.2405C206.107 47.4521 211.323 35.7163 217.159 32.5854C217.159 36.1247 224.516 48.0104 214.184 55.2405Z" fill="url(#paint16_linear_7471_1764)"/>
<path d="M98.8352 109.941C97.039 110.779 90.0994 100.606 98.836 97.3742L101.231 99.4089C94.5288 102.64 100.632 109.104 98.8352 109.941Z" fill="url(#paint17_radial_7471_1764)"/>
<path d="M137.034 109.366C138.83 110.204 145.77 100.031 137.033 96.7991L134.638 98.8338C141.341 102.065 135.238 108.529 137.034 109.366Z" fill="url(#paint18_radial_7471_1764)"/>
<path d="M103.4 111.459C101.503 112.536 95.457 102.363 103.398 99.4905L106.599 101.884C101.147 102.962 105.297 110.382 103.4 111.459Z" fill="url(#paint19_radial_7471_1764)"/>
<path d="M132.094 111.281C133.991 112.359 140.037 102.185 132.096 99.3126L128.895 101.706C134.348 102.784 130.198 110.204 132.094 111.281Z" fill="url(#paint20_radial_7471_1764)"/>
<path d="M108.949 112.22C107.612 113.193 102.351 108.096 106.78 101.848L110.363 101.285C106.244 106.373 110.287 111.247 108.949 112.22Z" fill="url(#paint21_radial_7471_1764)"/>
<path d="M129.879 111.881C128.707 113.078 122.45 109.008 125.774 102.066L129.292 100.87C126.066 106.615 131.051 110.684 129.879 111.881Z" fill="url(#paint22_radial_7471_1764)"/>
<path fill-rule="evenodd" clip-rule="evenodd" d="M90.9097 54.3236C79.6372 61.2506 78.8227 77.685 82.218 81.3522C81.9949 79.8803 82.2551 77.2513 82.9699 74.2204C82.4377 80.6283 84.363 86.9032 89.6565 91.6672C88.7529 89.8209 88.2752 87.0783 88.1939 83.8495C88.9722 88.675 90.6882 92.9962 93.519 95.8268C93.0573 95.0325 92.7438 93.8129 92.5521 92.2903C94.4316 95.1533 96.8663 97.5906 99.9171 99.2929C95.496 93.9549 93.4711 86.651 92.7097 79.8597C93.576 70.25 95.6541 59.7824 96.913 57.8943L93.5185 56.5361L93.4737 56.5916L91.7595 55.1479L91.6059 55.3178L90.9097 54.3236Z" fill="url(#paint23_radial_7471_1764)"/>
<path fill-rule="evenodd" clip-rule="evenodd" d="M145.496 54.3236C156.769 61.2506 157.583 77.685 154.188 81.3522C154.411 79.8803 154.151 77.2513 153.436 74.2204C153.968 80.6283 152.043 86.9032 146.749 91.6672C147.653 89.8209 148.131 87.0783 148.212 83.8495C147.434 88.675 145.718 92.9962 142.887 95.8268C143.348 95.0325 143.662 93.8129 143.854 92.2903C141.974 95.1533 139.539 97.5906 136.489 99.2929C140.91 93.9549 142.935 86.651 143.696 79.8597C142.83 70.25 140.752 59.7824 139.493 57.8943L142.887 56.5361L142.932 56.5916L144.646 55.1479L144.8 55.3178L145.496 54.3236Z" fill="url(#paint24_radial_7471_1764)"/>
<path d="M101.635 49.0614C82.795 63.6866 86.2952 88.0676 101.635 99.6433C116.975 111.219 132.719 103.97 141.644 92.6517C152.8 78.5036 147.654 59.1364 140.283 51.4193C132.912 43.7021 115.083 38.6221 101.635 49.0614Z" fill="url(#paint25_linear_7471_1764)"/>
<path d="M101.635 49.0614C82.795 63.6866 86.2952 88.0676 101.635 99.6433C116.975 111.219 132.719 103.97 141.644 92.6517C152.8 78.5036 147.654 59.1364 140.283 51.4193C132.912 43.7021 115.083 38.6221 101.635 49.0614Z" fill="url(#paint26_radial_7471_1764)"/>
<path fill-rule="evenodd" clip-rule="evenodd" d="M144.953 87.3815L144.831 87.2751C141.426 91.7783 135.281 92.2257 131.147 90.1341L130.725 91.0321C133.611 94.0081 138.275 94.4743 141.785 92.4493C143.048 90.8192 144.097 89.1215 144.953 87.3815ZM134.264 99.7908C130.348 101.655 125.654 100.732 122.641 98.3766L122.053 99.1758C123.533 101.46 125.976 102.831 128.564 103.134C130.566 102.23 132.474 101.098 134.264 99.7908ZM107.482 103.179C110.525 103.368 113.694 102.083 115.689 99.0771L115.025 98.2228C110.813 101.981 104.697 101.229 101.047 98.3766L100.665 98.8948C100.978 99.1497 101.296 99.3992 101.619 99.643C103.572 101.117 105.531 102.285 107.482 103.179ZM93.7409 91.061C97.1049 93.3307 101.884 93.5225 105.532 90.3717L105.1 89.316C99.8522 91.8901 93.9744 89.5259 91.022 85.7153C91.7599 87.572 92.6705 89.363 93.7409 91.061ZM97.8547 62.016C102.212 66.3728 110.053 68.2399 116.028 63.7587L116.776 65.0036C111.05 72.2233 100.594 70.3561 96.9839 63.0119L97.8547 62.016ZM121.486 65.6712C126.314 69.2098 133.915 69.7039 138.635 64.2748L139.554 65.371C135.562 73.4505 125.539 73.4038 120.861 66.7996L121.486 65.6712ZM128.853 73.9197C123.924 78.3178 116.767 77.4382 112.495 74.0996L111.807 75.035C115.678 81.0071 125.166 81.6457 129.63 74.9195L128.853 73.9197ZM128.219 81.5897C132.914 83.2575 139.408 81.9427 142.427 76.6749L143.394 77.3205C141.459 84.4824 133.002 86.6854 127.891 82.6051L128.219 81.5897ZM125.966 91.0392C121.754 94.7975 115.638 94.0458 111.988 91.193L111.4 91.9922C114.708 97.0954 122.815 97.6412 126.63 91.8936L125.966 91.0392ZM108.25 73.671C103.226 76.8603 96.993 75.0329 93.6836 71.4415L92.9355 72.1723C95.5037 78.0461 103.844 79.9998 108.795 74.6732L108.25 73.671ZM103.185 81.3941C106.494 84.9856 112.727 86.813 117.751 83.6237L118.296 84.6258C113.345 89.9525 105.005 87.9988 102.436 82.125L103.185 81.3941Z" fill="url(#paint27_linear_7471_1764)"/>
<path d="M100.354 11.3068C84.706 19.8815 74.2007 44.319 90.7071 55.8947C107.214 67.4705 137.911 64.6409 147.514 53.3224C159.519 39.1743 149.872 21.3818 141.941 13.6647C134.009 5.94754 116.001 2.73217 100.354 11.3068Z" fill="url(#paint28_linear_7471_1764)"/>
<path d="M119.469 57.4433C83.345 57.4433 77.9162 33.4846 96.4462 18.8848C105.43 15.1412 114.79 28.306 118.346 35.3564C121.404 30.8017 124.71 18.8848 139.684 18.8848C157.279 27.4949 155.594 57.4433 119.469 57.4433Z" fill="url(#paint29_radial_7471_1764)"/>
<path d="M119.469 57.4433C83.345 57.4433 77.9162 33.4846 96.4462 18.8848C105.43 15.1412 114.79 28.306 118.346 35.3564C121.404 30.8017 124.71 18.8848 139.684 18.8848C157.279 27.4949 155.594 57.4433 119.469 57.4433Z" fill="url(#paint30_radial_7471_1764)"/>
<path d="M119.469 57.4433C83.345 57.4433 77.9162 33.4846 96.4462 18.8848C105.43 15.1412 114.79 28.306 118.346 35.3564C121.404 30.8017 124.71 18.8848 139.684 18.8848C157.279 27.4949 155.594 57.4433 119.469 57.4433Z" fill="url(#paint31_radial_7471_1764)"/>
<path d="M103.667 16.9953C99.7132 15.9723 95.7973 14.959 92.6227 10.6957C89.7308 17.7837 94.28 19.8931 100.288 22.6787C106.688 25.6462 114.743 29.3811 117.22 40.72H118.706C121.184 29.3811 129.239 25.6462 135.639 22.6787C141.647 19.8931 146.196 17.7837 143.304 10.6957C140.129 14.959 136.213 15.9723 132.26 16.9953C127.012 18.3533 121.697 19.7284 117.963 28.7468C114.229 19.7284 108.915 18.3533 103.667 16.9953Z" fill="url(#paint32_linear_7471_1764)"/>
<path d="M103.667 16.9953C99.7132 15.9723 95.7973 14.959 92.6227 10.6957C89.7308 17.7837 94.28 19.8931 100.288 22.6787C106.688 25.6462 114.743 29.3811 117.22 40.72H118.706C121.184 29.3811 129.239 25.6462 135.639 22.6787C141.647 19.8931 146.196 17.7837 143.304 10.6957C140.129 14.959 136.213 15.9723 132.26 16.9953C127.012 18.3533 121.697 19.7284 117.963 28.7468C114.229 19.7284 108.915 18.3533 103.667 16.9953Z" fill="url(#paint33_radial_7471_1764)"/>
<path d="M107.134 17.0003C104.14 16.2254 101.174 15.4579 98.7691 12.2288C96.5787 17.5975 100.024 19.1952 104.575 21.3051C109.422 23.5528 115.524 26.3817 117.4 34.9703H118.526C120.402 26.3817 126.504 23.5528 131.351 21.3051C135.902 19.1952 139.347 17.5975 137.157 12.2288C134.752 15.4579 131.786 16.2254 128.792 17.0003C124.817 18.0289 120.791 19.0704 117.963 25.9013C115.135 19.0704 111.109 18.0289 107.134 17.0003Z" fill="url(#paint34_linear_7471_1764)"/>
<path d="M107.134 17.0003C104.14 16.2254 101.174 15.4579 98.7691 12.2288C96.5787 17.5975 100.024 19.1952 104.575 21.3051C109.422 23.5528 115.524 26.3817 117.4 34.9703H118.526C120.402 26.3817 126.504 23.5528 131.351 21.3051C135.902 19.1952 139.347 17.5975 137.157 12.2288C134.752 15.4579 131.786 16.2254 128.792 17.0003C124.817 18.0289 120.791 19.0704 117.963 25.9013C115.135 19.0704 111.109 18.0289 107.134 17.0003Z" fill="url(#paint35_radial_7471_1764)"/>
<path d="M112.792 36.7468C112.792 41.972 108.556 46.208 103.331 46.208C98.1056 46.208 93.8696 41.972 93.8696 36.7468C93.8696 31.5215 98.1056 27.2855 103.331 27.2855C108.556 27.2855 112.792 31.5215 112.792 36.7468Z" fill="url(#paint36_radial_7471_1764)"/>
<path d="M112.792 36.7468C112.792 41.972 108.556 46.208 103.331 46.208C98.1056 46.208 93.8696 41.972 93.8696 36.7468C93.8696 31.5215 98.1056 27.2855 103.331 27.2855C108.556 27.2855 112.792 31.5215 112.792 36.7468Z" fill="url(#paint37_radial_7471_1764)"/>
<path d="M123.136 36.7468C123.136 41.972 127.372 46.208 132.597 46.208C137.822 46.208 142.058 41.972 142.058 36.7468C142.058 31.5215 137.822 27.2855 132.597 27.2855C127.372 27.2855 123.136 31.5215 123.136 36.7468Z" fill="url(#paint38_radial_7471_1764)"/>
<path d="M123.136 36.7468C123.136 41.972 127.372 46.208 132.597 46.208C137.822 46.208 142.058 41.972 142.058 36.7468C142.058 31.5215 137.822 27.2855 132.597 27.2855C127.372 27.2855 123.136 31.5215 123.136 36.7468Z" fill="url(#paint39_radial_7471_1764)"/>
<path d="M109.306 36.7468C109.306 40.0468 106.631 42.722 103.331 42.722C100.031 42.722 97.356 40.0468 97.356 36.7468C97.356 33.4469 100.031 30.7717 103.331 30.7717C106.631 30.7717 109.306 33.4469 109.306 36.7468Z" fill="url(#paint40_radial_7471_1764)"/>
<path d="M109.306 36.7468C109.306 40.0468 106.631 42.722 103.331 42.722C100.031 42.722 97.356 40.0468 97.356 36.7468C97.356 33.4469 100.031 30.7717 103.331 30.7717C106.631 30.7717 109.306 33.4469 109.306 36.7468Z" fill="url(#paint41_radial_7471_1764)"/>
<path d="M109.306 36.7468C109.306 40.0468 106.631 42.722 103.331 42.722C100.031 42.722 97.356 40.0468 97.356 36.7468C97.356 33.4469 100.031 30.7717 103.331 30.7717C106.631 30.7717 109.306 33.4469 109.306 36.7468Z" fill="url(#paint42_radial_7471_1764)"/>
<path d="M138.571 36.7468C138.571 40.0468 135.896 42.722 132.596 42.722C129.296 42.722 126.621 40.0468 126.621 36.7468C126.621 33.4469 129.296 30.7717 132.596 30.7717C135.896 30.7717 138.571 33.4469 138.571 36.7468Z" fill="url(#paint43_radial_7471_1764)"/>
<path d="M138.571 36.7468C138.571 40.0468 135.896 42.722 132.596 42.722C129.296 42.722 126.621 40.0468 126.621 36.7468C126.621 33.4469 129.296 30.7717 132.596 30.7717C135.896 30.7717 138.571 33.4469 138.571 36.7468Z" fill="url(#paint44_radial_7471_1764)"/>
<path d="M138.571 36.7468C138.571 40.0468 135.896 42.722 132.596 42.722C129.296 42.722 126.621 40.0468 126.621 36.7468C126.621 33.4469 129.296 30.7717 132.596 30.7717C135.896 30.7717 138.571 33.4469 138.571 36.7468Z" fill="url(#paint45_radial_7471_1764)"/>
<path d="M118.515 38.7383C110.922 38.7383 115.9 55.2942 118.515 55.2942C121.13 55.2942 126.108 38.7383 118.515 38.7383Z" fill="url(#paint46_radial_7471_1764)"/>
<defs>
<linearGradient id="paint0_linear_7471_1764" x1="113.077" y1="-73.8462" x2="178.647" y2="145.789" gradientUnits="userSpaceOnUse">
<stop stop-color="#DECBFF"/>
<stop offset="1" stop-color="#7E420C"/>
</linearGradient>
<radialGradient id="paint1_radial_7471_1764" cx="0" cy="0" r="1" gradientUnits="userSpaceOnUse" gradientTransform="translate(127.695 70.8894) rotate(90) scale(49.1106 96.762)">
<stop offset="0.329921" stop-color="#FFD394"/>
<stop offset="0.817265" stop-color="#FFD394" stop-opacity="0"/>
</radialGradient>
<radialGradient id="paint2_radial_7471_1764" cx="0" cy="0" r="1" gradientUnits="userSpaceOnUse" gradientTransform="translate(168.894 121.695) rotate(178.162) scale(62.917 25.6796)">
<stop offset="0.574147" stop-color="#592A00" stop-opacity="0.7"/>
<stop offset="1" stop-color="#592A00" stop-opacity="0"/>
</radialGradient>
<linearGradient id="paint3_linear_7471_1764" x1="192.182" y1="80.2951" x2="166.788" y2="41.7843" gradientUnits="userSpaceOnUse">
<stop stop-color="#238D56"/>
<stop offset="1" stop-color="#FFE585"/>
</linearGradient>
<linearGradient id="paint4_linear_7471_1764" x1="187.908" y1="50.3778" x2="201.192" y2="52.4398" gradientUnits="userSpaceOnUse">
<stop offset="0.290539" stop-color="#0F6B42" stop-opacity="0"/>
<stop offset="0.59133" stop-color="#0F6B42" stop-opacity="0.7"/>
</linearGradient>
<linearGradient id="paint5_linear_7471_1764" x1="207.072" y1="103.014" x2="196.01" y2="73.9907" gradientUnits="userSpaceOnUse">
<stop stop-color="#238D56"/>
<stop offset="1" stop-color="#FFE585"/>
</linearGradient>
<linearGradient id="paint6_linear_7471_1764" x1="202.644" y1="86.3945" x2="205.24" y2="105" gradientUnits="userSpaceOnUse">
<stop offset="0.290539" stop-color="#0F6B42" stop-opacity="0"/>
<stop offset="0.59133" stop-color="#0F6B42"/>
</linearGradient>
<linearGradient id="paint7_linear_7471_1764" x1="62.6282" y1="87.0921" x2="31.3427" y2="49.4466" gradientUnits="userSpaceOnUse">
<stop stop-color="#238D56"/>
<stop offset="1" stop-color="#FFE585"/>
</linearGradient>
<linearGradient id="paint8_linear_7471_1764" x1="57.5459" y1="54.0866" x2="70.8604" y2="55.0241" gradientUnits="userSpaceOnUse">
<stop offset="0.290539" stop-color="#0F6B42" stop-opacity="0"/>
<stop offset="0.59133" stop-color="#0F6B42" stop-opacity="0.7"/>
</linearGradient>
<linearGradient id="paint9_linear_7471_1764" x1="29.2067" y1="82.9714" x2="19.8684" y2="49.4992" gradientUnits="userSpaceOnUse">
<stop stop-color="#238D56"/>
<stop offset="1" stop-color="#FFE585"/>
</linearGradient>
<linearGradient id="paint10_linear_7471_1764" x1="19.9038" y1="64.7936" x2="34.1827" y2="53.7981" gradientUnits="userSpaceOnUse">
<stop offset="0.290539" stop-color="#0F6B42" stop-opacity="0"/>
<stop offset="0.59133" stop-color="#0F6B42" stop-opacity="0.7"/>
</linearGradient>
<linearGradient id="paint11_linear_7471_1764" x1="49.6376" y1="42.6545" x2="36.0352" y2="11.8047" gradientUnits="userSpaceOnUse">
<stop stop-color="#238D56"/>
<stop offset="1" stop-color="#FFE585"/>
</linearGradient>
<linearGradient id="paint12_linear_7471_1764" x1="45.1442" y1="24.0888" x2="56.6328" y2="30.2773" gradientUnits="userSpaceOnUse">
<stop offset="0.290539" stop-color="#0F6B42" stop-opacity="0"/>
<stop offset="0.59133" stop-color="#0F6B42" stop-opacity="0.7"/>
</linearGradient>
<linearGradient id="paint13_linear_7471_1764" x1="35.3628" y1="30.0075" x2="24.3154" y2="9.45104" gradientUnits="userSpaceOnUse">
<stop stop-color="#238D56"/>
<stop offset="1" stop-color="#FFE585"/>
</linearGradient>
<linearGradient id="paint14_linear_7471_1764" x1="32.0913" y1="17.5962" x2="40.6915" y2="14.9525" gradientUnits="userSpaceOnUse">
<stop offset="0.290539" stop-color="#0F6B42" stop-opacity="0"/>
<stop offset="0.59133" stop-color="#0F6B42" stop-opacity="0.7"/>
</linearGradient>
<linearGradient id="paint15_linear_7471_1764" x1="214.867" y1="68.0139" x2="192.915" y2="34.6048" gradientUnits="userSpaceOnUse">
<stop stop-color="#238D56"/>
<stop offset="1" stop-color="#FFE585"/>
</linearGradient>
<linearGradient id="paint16_linear_7471_1764" x1="211.154" y1="42.1155" x2="222.692" y2="43.913" gradientUnits="userSpaceOnUse">
<stop offset="0.290539" stop-color="#0F6B42" stop-opacity="0"/>
<stop offset="0.59133" stop-color="#0F6B42" stop-opacity="0.7"/>
</linearGradient>
<radialGradient id="paint17_radial_7471_1764" cx="0" cy="0" r="1" gradientUnits="userSpaceOnUse" gradientTransform="translate(94.522 98.1504) rotate(105.473) scale(13.7093 7.32488)">
<stop stop-color="#A3A3FF"/>
<stop offset="0.829226" stop-color="#171155"/>
</radialGradient>
<radialGradient id="paint18_radial_7471_1764" cx="0" cy="0" r="1" gradientUnits="userSpaceOnUse" gradientTransform="translate(136.628 99.3554) rotate(82.2724) scale(10.152 5.42423)">
<stop stop-color="#A3A3FF"/>
<stop offset="0.829226" stop-color="#171155"/>
</radialGradient>
<radialGradient id="paint19_radial_7471_1764" cx="0" cy="0" r="1" gradientUnits="userSpaceOnUse" gradientTransform="translate(99.4089 101.657) rotate(92.8468) scale(10.2974 6.14508)">
<stop stop-color="#A3A3FF"/>
<stop offset="0.829226" stop-color="#171155"/>
</radialGradient>
<radialGradient id="paint20_radial_7471_1764" cx="0" cy="0" r="1" gradientUnits="userSpaceOnUse" gradientTransform="translate(131.027 101.754) rotate(81.3421) scale(9.71785 5.79925)">
<stop stop-color="#A3A3FF"/>
<stop offset="0.829226" stop-color="#171155"/>
</radialGradient>
<radialGradient id="paint21_radial_7471_1764" cx="0" cy="0" r="1" gradientUnits="userSpaceOnUse" gradientTransform="translate(106.029 102.966) rotate(86.5513) scale(9.04796 4.16121)">
<stop stop-color="#A3A3FF"/>
<stop offset="0.829226" stop-color="#171155"/>
</radialGradient>
<radialGradient id="paint22_radial_7471_1764" cx="0" cy="0" r="1" gradientUnits="userSpaceOnUse" gradientTransform="translate(124.811 103.409) rotate(73.1731) scale(9.06839 4.28115)">
<stop stop-color="#A3A3FF"/>
<stop offset="0.829226" stop-color="#171155"/>
</radialGradient>
<radialGradient id="paint23_radial_7471_1764" cx="0" cy="0" r="1" gradientUnits="userSpaceOnUse" gradientTransform="translate(96.0613 78.4819) rotate(-86.8202) scale(32.4805 18.7171)">
<stop offset="0.625146" stop-color="#907053"/>
<stop offset="1" stop-color="#DECBFF"/>
</radialGradient>
<radialGradient id="paint24_radial_7471_1764" cx="0" cy="0" r="1" gradientUnits="userSpaceOnUse" gradientTransform="translate(140.344 78.4819) rotate(-93.1798) scale(32.4805 18.7171)">
<stop offset="0.625146" stop-color="#907053"/>
<stop offset="1" stop-color="#DECBFF"/>
</radialGradient>
<linearGradient id="paint25_linear_7471_1764" x1="120.234" y1="121.572" x2="112.759" y2="57.4808" gradientUnits="userSpaceOnUse">
<stop stop-color="#DECBFF"/>
<stop offset="1" stop-color="#8B6442"/>
</linearGradient>
<radialGradient id="paint26_radial_7471_1764" cx="0" cy="0" r="1" gradientUnits="userSpaceOnUse" gradientTransform="translate(112.126 108.51) rotate(-84.134) scale(44.072 30.6539)">
<stop offset="0.255898" stop-color="#FFD394" stop-opacity="0.8"/>
<stop offset="1" stop-color="#FFD394" stop-opacity="0"/>
</radialGradient>
<linearGradient id="paint27_linear_7471_1764" x1="117.988" y1="47.5963" x2="120.968" y2="115.567" gradientUnits="userSpaceOnUse">
<stop stop-color="#592A00"/>
<stop offset="1" stop-color="#592A00" stop-opacity="0"/>
</linearGradient>
<linearGradient id="paint28_linear_7471_1764" x1="71.542" y1="-41.5385" x2="150.713" y2="75.4791" gradientUnits="userSpaceOnUse">
<stop stop-color="#DECBFF"/>
<stop offset="1" stop-color="#8C5422"/>
</linearGradient>
<radialGradient id="paint29_radial_7471_1764" cx="0" cy="0" r="1" gradientUnits="userSpaceOnUse" gradientTransform="translate(114.829 29.2357) rotate(52.8447) scale(48.2259 64.9619)">
<stop offset="0.233726" stop-color="#FFE4BE"/>
<stop offset="1" stop-color="#986206"/>
</radialGradient>
<radialGradient id="paint30_radial_7471_1764" cx="0" cy="0" r="1" gradientUnits="userSpaceOnUse" gradientTransform="translate(118.317 31.0374) scale(34.6483 20.7547)">
<stop stop-color="#5B3B04"/>
<stop offset="1" stop-color="#5B3B04" stop-opacity="0"/>
</radialGradient>
<radialGradient id="paint31_radial_7471_1764" cx="0" cy="0" r="1" gradientUnits="userSpaceOnUse" gradientTransform="translate(118.317 57.4433) scale(32.2583 32.8998)">
<stop stop-color="white"/>
<stop offset="1" stop-color="white" stop-opacity="0"/>
</radialGradient>
<linearGradient id="paint32_linear_7471_1764" x1="136.43" y1="2.76994" x2="100.996" y2="69.883" gradientUnits="userSpaceOnUse">
<stop stop-color="#FFF2BE"/>
<stop offset="1" stop-color="#FFC470"/>
</linearGradient>
<radialGradient id="paint33_radial_7471_1764" cx="0" cy="0" r="1" gradientUnits="userSpaceOnUse" gradientTransform="translate(117.963 34.75) rotate(-90) scale(22.2209 34.0005)">
<stop stop-color="white"/>
<stop offset="1" stop-color="white" stop-opacity="0"/>
</radialGradient>
<linearGradient id="paint34_linear_7471_1764" x1="131.95" y1="6.22547" x2="105.112" y2="57.0593" gradientUnits="userSpaceOnUse">
<stop stop-color="#FFF2BE"/>
<stop offset="1" stop-color="#FFC470"/>
</linearGradient>
<radialGradient id="paint35_radial_7471_1764" cx="0" cy="0" r="1" gradientUnits="userSpaceOnUse" gradientTransform="translate(117.963 30.4483) rotate(-90) scale(16.8309 25.7532)">
<stop stop-color="white"/>
<stop offset="1" stop-color="white" stop-opacity="0"/>
</radialGradient>
<radialGradient id="paint36_radial_7471_1764" cx="0" cy="0" r="1" gradientUnits="userSpaceOnUse" gradientTransform="translate(103.331 36.7468) rotate(90) scale(20.8655)">
<stop offset="0.273238" stop-color="#FFC205"/>
<stop offset="1" stop-color="#62BE55"/>
</radialGradient>
<radialGradient id="paint37_radial_7471_1764" cx="0" cy="0" r="1" gradientUnits="userSpaceOnUse" gradientTransform="translate(103.331 36.7468) rotate(90) scale(9.46123)">
<stop offset="0.87" stop-color="#5B3B04" stop-opacity="0"/>
<stop offset="0.935" stop-color="#5B3B04"/>
</radialGradient>
<radialGradient id="paint38_radial_7471_1764" cx="0" cy="0" r="1" gradientUnits="userSpaceOnUse" gradientTransform="translate(132.597 36.7468) rotate(90) scale(20.8655)">
<stop offset="0.273238" stop-color="#FFC205"/>
<stop offset="1" stop-color="#62BE55"/>
</radialGradient>
<radialGradient id="paint39_radial_7471_1764" cx="0" cy="0" r="1" gradientUnits="userSpaceOnUse" gradientTransform="translate(132.597 36.7468) rotate(90) scale(9.46123)">
<stop offset="0.87" stop-color="#5B3B04" stop-opacity="0"/>
<stop offset="0.935" stop-color="#5B3B04"/>
</radialGradient>
<radialGradient id="paint40_radial_7471_1764" cx="0" cy="0" r="1" gradientUnits="userSpaceOnUse" gradientTransform="translate(102.388 35.917) rotate(77.5236) scale(8.14083)">
<stop offset="0.35"/>
<stop offset="0.98" stop-color="#0057AA"/>
</radialGradient>
<radialGradient id="paint41_radial_7471_1764" cx="0" cy="0" r="1" gradientUnits="userSpaceOnUse" gradientTransform="translate(101.097 35.69) rotate(71.1986) scale(3.15417)">
<stop offset="0.261168" stop-color="white"/>
<stop offset="0.635" stop-opacity="0"/>
</radialGradient>
<radialGradient id="paint42_radial_7471_1764" cx="0" cy="0" r="1" gradientUnits="userSpaceOnUse" gradientTransform="translate(102.801 36.1046) rotate(85.4192) scale(6.63856)">
<stop offset="0.865" stop-opacity="0"/>
<stop offset="1"/>
</radialGradient>
<radialGradient id="paint43_radial_7471_1764" cx="0" cy="0" r="1" gradientUnits="userSpaceOnUse" gradientTransform="translate(131.653 35.917) rotate(77.5236) scale(8.14083)">
<stop offset="0.35"/>
<stop offset="0.98" stop-color="#0057AA"/>
</radialGradient>
<radialGradient id="paint44_radial_7471_1764" cx="0" cy="0" r="1" gradientUnits="userSpaceOnUse" gradientTransform="translate(130.362 35.69) rotate(71.1986) scale(3.15417)">
<stop offset="0.261168" stop-color="white"/>
<stop offset="0.635" stop-opacity="0"/>
</radialGradient>
<radialGradient id="paint45_radial_7471_1764" cx="0" cy="0" r="1" gradientUnits="userSpaceOnUse" gradientTransform="translate(132.066 36.1046) rotate(85.4192) scale(6.63856)">
<stop offset="0.865" stop-opacity="0"/>
<stop offset="1"/>
</radialGradient>
<radialGradient id="paint46_radial_7471_1764" cx="0" cy="0" r="1" gradientUnits="userSpaceOnUse" gradientTransform="translate(117.364 42.448) rotate(90) scale(13.6628 6.90649)">
<stop offset="0.186813" stop-color="#FFE06B"/>
<stop offset="0.91" stop-color="#5B3B04"/>
</radialGradient>
</defs>
</svg>
