<svg viewBox="0 0 240 120" fill="none" xmlns="http://www.w3.org/2000/svg">
<path d="M9.12003 94.4853C-2.05346 102.841 53.2407 111.895 73.095 103.746L74.0891 99.6254C54.2869 96.5159 20.2935 86.1294 9.12003 94.4853Z" fill="url(#paint0_radial_8080_1288)"/>
<path d="M65.6044 94.4853C54.4309 102.841 109.725 111.895 129.579 103.746L130.573 99.6254C110.771 96.5159 76.7779 86.1294 65.6044 94.4853Z" fill="url(#paint1_radial_8080_1288)"/>
<path d="M130.572 94.4853C119.398 102.841 174.692 111.895 194.547 103.746L195.541 99.6254C175.739 96.5159 141.745 86.1294 130.572 94.4853Z" fill="url(#paint2_radial_8080_1288)"/>
<path d="M105.758 18.8896H132.503L129.854 33.8557C128.424 40.2975 128.874 47.0116 131.155 53.2041L146.159 93.9327C147.13 96.569 146.064 99.5149 143.62 100.899C139.167 103.415 131.226 106.765 120.497 106.765C109.62 106.765 101.61 103.323 97.1917 100.796C94.8419 99.4518 93.7472 96.6665 94.5639 94.0846L107.688 52.525C109.508 46.7594 109.777 40.6128 108.465 34.7097L105.758 18.8896Z" fill="white"/>
<path d="M105.758 18.8896H132.503L129.854 33.8557C128.424 40.2975 128.874 47.0116 131.155 53.2041L146.159 93.9327C147.13 96.569 146.064 99.5149 143.62 100.899C139.167 103.415 131.226 106.765 120.497 106.765C109.62 106.765 101.61 103.323 97.1917 100.796C94.8419 99.4518 93.7472 96.6665 94.5639 94.0846L107.688 52.525C109.508 46.7594 109.777 40.6128 108.465 34.7097L105.758 18.8896Z" fill="url(#paint3_linear_8080_1288)"/>
<path d="M105.758 18.8896H132.503L129.854 33.8557C128.424 40.2975 128.874 47.0116 131.155 53.2041L146.159 93.9327C147.13 96.569 146.064 99.5149 143.62 100.899C139.167 103.415 131.226 106.765 120.497 106.765C109.62 106.765 101.61 103.323 97.1917 100.796C94.8419 99.4518 93.7472 96.6665 94.5639 94.0846L107.688 52.525C109.508 46.7594 109.777 40.6128 108.465 34.7097L105.758 18.8896Z" fill="url(#paint4_radial_8080_1288)"/>
<path d="M105.758 18.8896H132.503L129.854 33.8557C128.424 40.2975 128.874 47.0116 131.155 53.2041L146.159 93.9327C147.13 96.569 146.064 99.5149 143.62 100.899C139.167 103.415 131.226 106.765 120.497 106.765C109.62 106.765 101.61 103.323 97.1917 100.796C94.8419 99.4518 93.7472 96.6665 94.5639 94.0846L107.688 52.525C109.508 46.7594 109.777 40.6128 108.465 34.7097L105.758 18.8896Z" fill="url(#paint5_radial_8080_1288)"/>
<path d="M97.5736 93.2535C96.9037 95.674 97.8024 98.2853 99.7366 99.5452C103.371 101.915 110.99 104.72 119.944 104.72C128.778 104.72 137.05 101.331 140.715 98.9693C142.727 97.6744 143.605 94.91 142.805 92.4384L131.244 60.917H107.603L97.5736 93.2535Z" fill="url(#paint6_linear_8080_1288)"/>
<path d="M97.5736 93.2535C96.9037 95.674 97.8024 98.2853 99.7366 99.5452C103.371 101.915 110.99 104.72 119.944 104.72C128.778 104.72 137.05 101.331 140.715 98.9693C142.727 97.6744 143.605 94.91 142.805 92.4384L131.244 60.917H107.603L97.5736 93.2535Z" fill="url(#paint7_radial_8080_1288)"/>
<path d="M131.334 60.9164C131.334 62.499 126.021 63.782 119.468 63.782C112.915 63.782 107.603 62.499 107.603 60.9164C107.603 59.3337 112.915 58.0508 119.468 58.0508C126.021 58.0508 131.334 59.3337 131.334 60.9164Z" fill="#92F391"/>
<path fill-rule="evenodd" clip-rule="evenodd" d="M130.002 60.5659C130.003 60.566 129.998 60.5721 129.986 60.5838C129.995 60.5716 130.001 60.5658 130.002 60.5659ZM129.443 60.9164C129.002 60.7063 128.363 60.486 127.522 60.2828C125.514 59.7979 122.666 59.4836 119.468 59.4836C116.271 59.4836 113.423 59.7979 111.415 60.2828C110.573 60.486 109.934 60.7063 109.494 60.9164C109.934 61.1264 110.573 61.3467 111.415 61.5499C113.423 62.0348 116.271 62.3492 119.468 62.3492C122.666 62.3492 125.514 62.0348 127.522 61.5499C128.363 61.3467 129.002 61.1264 129.443 60.9164ZM108.935 60.5659C108.936 60.5658 108.942 60.5716 108.95 60.5838C108.938 60.5721 108.934 60.566 108.935 60.5659ZM108.935 61.2669C108.934 61.2668 108.938 61.2607 108.95 61.2489C108.942 61.2611 108.936 61.267 108.935 61.2669ZM129.986 61.2489C129.998 61.2607 130.003 61.2667 130.002 61.2669C130.001 61.267 129.995 61.2611 129.986 61.2489ZM119.468 63.782C126.021 63.782 131.334 62.499 131.334 60.9164C131.334 59.3337 126.021 58.0508 119.468 58.0508C112.915 58.0508 107.603 59.3337 107.603 60.9164C107.603 62.499 112.915 63.782 119.468 63.782Z" fill="url(#paint8_linear_8080_1288)"/>
<path fill-rule="evenodd" clip-rule="evenodd" d="M131.778 22.7104L106.426 22.7104L105.757 18.8896L132.503 18.8896L131.778 22.7104Z" fill="url(#paint9_linear_8080_1288)"/>
<path fill-rule="evenodd" clip-rule="evenodd" d="M126.891 25.5802L126.465 27.4278C123.996 38.1256 124.097 49.2561 126.76 59.9073L135.479 94.7825L131.309 95.825L122.59 60.9498C119.762 49.6398 119.655 37.8208 122.276 26.4613L122.703 24.6137L126.891 25.5802Z" fill="url(#paint10_linear_8080_1288)"/>
<path d="M194.457 62.8965V35.0115H197.004C198.411 35.0115 199.552 33.871 199.552 32.464C199.552 31.057 198.411 29.9165 197.004 29.9165H171.532C170.125 29.9165 168.985 31.057 168.985 32.464C168.985 33.871 170.125 35.0115 171.532 35.0115H174.08V62.8937C166.56 66.6361 161.376 74.3646 161.345 83.3253C161.302 95.5556 171.337 105.955 183.562 106.322C196.546 106.714 207.194 96.3035 207.194 83.4084C207.194 74.4133 201.999 66.6476 194.46 62.8937L194.457 62.8965Z" fill="white"/>
<path d="M194.457 62.8965V35.0115H197.004C198.411 35.0115 199.552 33.871 199.552 32.464C199.552 31.057 198.411 29.9165 197.004 29.9165H171.532C170.125 29.9165 168.985 31.057 168.985 32.464C168.985 33.871 170.125 35.0115 171.532 35.0115H174.08V62.8937C166.56 66.6361 161.376 74.3646 161.345 83.3253C161.302 95.5556 171.337 105.955 183.562 106.322C196.546 106.714 207.194 96.3035 207.194 83.4084C207.194 74.4133 201.999 66.6476 194.46 62.8937L194.457 62.8965Z" fill="url(#paint11_linear_8080_1288)"/>
<path d="M194.457 62.8965V35.0115H197.004C198.411 35.0115 199.552 33.871 199.552 32.464C199.552 31.057 198.411 29.9165 197.004 29.9165H171.532C170.125 29.9165 168.985 31.057 168.985 32.464C168.985 33.871 170.125 35.0115 171.532 35.0115H174.08V62.8937C166.56 66.6361 161.376 74.3646 161.345 83.3253C161.302 95.5556 171.337 105.955 183.562 106.322C196.546 106.714 207.194 96.3035 207.194 83.4084C207.194 74.4133 201.999 66.6476 194.46 62.8937L194.457 62.8965Z" fill="url(#paint12_linear_8080_1288)"/>
<path d="M194.457 62.8965V35.0115H197.004C198.411 35.0115 199.552 33.871 199.552 32.464C199.552 31.057 198.411 29.9165 197.004 29.9165H171.532C170.125 29.9165 168.985 31.057 168.985 32.464C168.985 33.871 170.125 35.0115 171.532 35.0115H174.08V62.8937C166.56 66.6361 161.376 74.3646 161.345 83.3253C161.302 95.5556 171.337 105.955 183.562 106.322C196.546 106.714 207.194 96.3035 207.194 83.4084C207.194 74.4133 201.999 66.6476 194.46 62.8937L194.457 62.8965Z" fill="url(#paint13_linear_8080_1288)"/>
<path d="M194.457 62.8965V35.0115H197.004C198.411 35.0115 199.552 33.871 199.552 32.464C199.552 31.057 198.411 29.9165 197.004 29.9165H171.532C170.125 29.9165 168.985 31.057 168.985 32.464C168.985 33.871 170.125 35.0115 171.532 35.0115H174.08V62.8937C166.56 66.6361 161.376 74.3646 161.345 83.3253C161.302 95.5556 171.337 105.955 183.562 106.322C196.546 106.714 207.194 96.3035 207.194 83.4084C207.194 74.4133 201.999 66.6476 194.46 62.8937L194.457 62.8965Z" fill="url(#paint14_linear_8080_1288)"/>
<path d="M196.088 102.719C194.477 104.152 191.969 105.853 184.402 106.331C176.835 106.809 171.91 103.167 171.283 102.002C171.283 100.683 179.902 101.555 184.402 101.555C188.903 101.555 196.088 101.4 196.088 102.719Z" fill="url(#paint15_radial_8080_1288)"/>
<path d="M164.212 83.2421C164.174 94.4981 172.955 104.071 183.65 104.411C195.009 104.772 204.328 95.1897 204.328 83.3194C204.328 81.6994 204.107 80.1426 203.777 78.6304H164.76C164.437 80.1191 164.218 81.6501 164.212 83.2421Z" fill="url(#paint16_radial_8080_1288)"/>
<path d="M164.212 83.2421C164.174 94.4981 172.955 104.071 183.65 104.411C195.009 104.772 204.328 95.1897 204.328 83.3194C204.328 81.6994 204.107 80.1426 203.777 78.6304H164.76C164.437 80.1191 164.218 81.6501 164.212 83.2421Z" fill="url(#paint17_radial_8080_1288)"/>
<path d="M203.833 78.2281C203.833 80.602 195.073 82.5264 184.267 82.5264C173.46 82.5264 164.7 80.602 164.7 78.2281C164.7 75.8541 173.46 73.9297 184.267 73.9297C195.073 73.9297 203.833 75.8541 203.833 78.2281Z" fill="#FF9B9B"/>
<path fill-rule="evenodd" clip-rule="evenodd" d="M202.269 78.2281C202.139 78.1202 201.936 77.9827 201.635 77.8265C200.806 77.396 199.513 76.9655 197.795 76.5881C194.382 75.8383 189.598 75.3625 184.267 75.3625C178.935 75.3625 174.151 75.8383 170.739 76.5881C169.02 76.9655 167.727 77.396 166.898 77.8265C166.597 77.9827 166.395 78.1202 166.265 78.2281C166.395 78.3359 166.597 78.4734 166.898 78.6297C167.727 79.0602 169.02 79.4906 170.739 79.8681C174.151 80.6178 178.935 81.0936 184.267 81.0936C189.598 81.0936 194.382 80.6178 197.795 79.8681C199.513 79.4906 200.806 79.0602 201.635 78.6297C201.936 78.4734 202.139 78.3359 202.269 78.2281ZM184.267 82.5264C195.073 82.5264 203.833 80.602 203.833 78.2281C203.833 75.8541 195.073 73.9297 184.267 73.9297C173.46 73.9297 164.7 75.8541 164.7 78.2281C164.7 80.602 173.46 82.5264 184.267 82.5264Z" fill="url(#paint18_linear_8080_1288)"/>
<path d="M181.216 91.4906C179.634 91.4906 178.351 90.2068 178.351 88.625V19.2893L159.81 30.8777C158.475 31.7174 156.704 31.3104 155.862 29.9665C155.025 28.6254 155.432 26.8573 156.773 26.0177L179.698 11.6869C180.58 11.1339 181.692 11.1023 182.606 11.6124C183.517 12.1168 184.082 13.0767 184.082 14.1198V88.625C184.082 90.2068 182.798 91.4906 181.216 91.4906Z" fill="url(#paint19_linear_8080_1288)"/>
<path d="M181.216 91.4906C179.634 91.4906 178.351 90.2068 178.351 88.625V19.2893L159.81 30.8777C158.475 31.7174 156.704 31.3104 155.862 29.9665C155.025 28.6254 155.432 26.8573 156.773 26.0177L179.698 11.6869C180.58 11.1339 181.692 11.1023 182.606 11.6124C183.517 12.1168 184.082 13.0767 184.082 14.1198V88.625C184.082 90.2068 182.798 91.4906 181.216 91.4906Z" fill="url(#paint20_linear_8080_1288)"/>
<path d="M181.216 91.4906C179.634 91.4906 178.351 90.2068 178.351 88.625V19.2893L159.81 30.8777C158.475 31.7174 156.704 31.3104 155.862 29.9665C155.025 28.6254 155.432 26.8573 156.773 26.0177L179.698 11.6869C180.58 11.1339 181.692 11.1023 182.606 11.6124C183.517 12.1168 184.082 13.0767 184.082 14.1198V88.625C184.082 90.2068 182.798 91.4906 181.216 91.4906Z" fill="url(#paint21_linear_8080_1288)"/>
<path d="M181.216 91.4906C179.634 91.4906 178.351 90.2068 178.351 88.625V19.2893L159.81 30.8777C158.475 31.7174 156.704 31.3104 155.862 29.9665C155.025 28.6254 155.432 26.8573 156.773 26.0177L179.698 11.6869C180.58 11.1339 181.692 11.1023 182.606 11.6124C183.517 12.1168 184.082 13.0767 184.082 14.1198V88.625C184.082 90.2068 182.798 91.4906 181.216 91.4906Z" fill="url(#paint22_radial_8080_1288)"/>
<path fill-rule="evenodd" clip-rule="evenodd" d="M171.307 79.9998C174.636 80.6559 179.267 81.0667 184.403 81.0667C189.539 81.0667 194.17 80.6559 197.499 79.9998C199.169 79.6705 200.475 79.2866 201.345 78.8807C201.783 78.6769 202.072 78.4851 202.242 78.3217C202.324 78.2423 202.366 78.1816 202.385 78.1433C202.395 78.1248 202.399 78.1124 202.401 78.1056C202.402 78.0992 202.402 78.0958 202.402 78.0942H203.835C203.835 78.6134 203.565 79.0361 203.236 79.3536C202.907 79.6705 202.46 79.942 201.951 80.1795C200.927 80.6563 199.492 81.0672 197.776 81.4055C194.331 82.0845 189.603 82.4995 184.403 82.4995C179.203 82.4995 174.475 82.0845 171.03 81.4055C169.314 81.0672 167.879 80.6563 166.855 80.1795C166.346 79.942 165.899 79.6705 165.57 79.3536C165.241 79.0361 164.971 78.6134 164.971 78.0942H166.403C166.403 78.0958 166.404 78.0992 166.405 78.1056C166.407 78.1124 166.411 78.1248 166.421 78.1433C166.44 78.1816 166.482 78.2423 166.564 78.3217C166.734 78.4851 167.023 78.6769 167.46 78.8807C168.331 79.2866 169.637 79.6705 171.307 79.9998Z" fill="url(#paint23_linear_8080_1288)"/>
<path fill-rule="evenodd" clip-rule="evenodd" d="M189.999 39.9453C190.79 39.9453 191.432 40.5868 191.432 41.3781L191.432 61.1334C191.432 62.791 192.437 64.4092 194.005 65.5482C198.013 68.4601 202.894 73.9321 202.894 81.7568C202.894 91.6918 197.235 97.932 194.218 99.8915C193.554 100.322 192.667 100.134 192.236 99.4701C191.805 98.8064 191.993 97.9191 192.657 97.4881C194.989 95.9742 200.028 90.5784 200.028 81.7568C200.028 75.2152 195.943 70.4982 192.321 67.8666C190.252 66.3638 188.566 63.9707 188.566 61.1334L188.566 41.3781C188.566 40.5868 189.207 39.9453 189.999 39.9453Z" fill="url(#paint24_linear_8080_1288)"/>
<path fill-rule="evenodd" clip-rule="evenodd" d="M193.94 37.0799L174.418 37.0799V34.2144L193.94 34.2144V37.0799Z" fill="url(#paint25_linear_8080_1288)"/>
<path fill-rule="evenodd" clip-rule="evenodd" d="M199.699 32.2403C199.712 33.7173 198.525 34.9255 197.048 34.9388L171.521 35.1692C170.044 35.1826 168.836 33.996 168.822 32.5189C168.809 31.0419 169.996 29.8337 171.473 29.8204L197 29.59C198.477 29.5766 199.685 30.7632 199.699 32.2403Z" fill="url(#paint26_linear_8080_1288)"/>
<path fill-rule="evenodd" clip-rule="evenodd" d="M35.6693 49.4575H81.5187C83.1013 49.4575 84.3842 50.7405 84.3842 52.3231C84.3842 53.9057 83.1013 55.1887 81.5187 55.1887H35.6693C34.0867 55.1887 32.8037 53.9057 32.8037 52.3231C32.8037 50.7405 34.0867 49.4575 35.6693 49.4575ZM75.6586 103.087C77.5126 102.084 78.6531 100.153 78.6531 98.0435V55.1888H38.5349V98.0435C38.5349 100.153 39.6754 102.084 41.5294 103.087C44.5698 104.732 50.0546 106.766 58.594 106.766C67.1334 106.766 72.621 104.732 75.6586 103.087Z" fill="white"/>
<path fill-rule="evenodd" clip-rule="evenodd" d="M35.6693 49.4575H81.5187C83.1013 49.4575 84.3842 50.7405 84.3842 52.3231C84.3842 53.9057 83.1013 55.1887 81.5187 55.1887H35.6693C34.0867 55.1887 32.8037 53.9057 32.8037 52.3231C32.8037 50.7405 34.0867 49.4575 35.6693 49.4575ZM75.6586 103.087C77.5126 102.084 78.6531 100.153 78.6531 98.0435V55.1888H38.5349V98.0435C38.5349 100.153 39.6754 102.084 41.5294 103.087C44.5698 104.732 50.0546 106.766 58.594 106.766C67.1334 106.766 72.621 104.732 75.6586 103.087Z" fill="url(#paint27_linear_8080_1288)"/>
<path fill-rule="evenodd" clip-rule="evenodd" d="M35.6693 49.4575H81.5187C83.1013 49.4575 84.3842 50.7405 84.3842 52.3231C84.3842 53.9057 83.1013 55.1887 81.5187 55.1887H35.6693C34.0867 55.1887 32.8037 53.9057 32.8037 52.3231C32.8037 50.7405 34.0867 49.4575 35.6693 49.4575ZM75.6586 103.087C77.5126 102.084 78.6531 100.153 78.6531 98.0435V55.1888H38.5349V98.0435C38.5349 100.153 39.6754 102.084 41.5294 103.087C44.5698 104.732 50.0546 106.766 58.594 106.766C67.1334 106.766 72.621 104.732 75.6586 103.087Z" fill="url(#paint28_radial_8080_1288)"/>
<path fill-rule="evenodd" clip-rule="evenodd" d="M35.6693 49.4575H81.5187C83.1013 49.4575 84.3842 50.7405 84.3842 52.3231C84.3842 53.9057 83.1013 55.1887 81.5187 55.1887H35.6693C34.0867 55.1887 32.8037 53.9057 32.8037 52.3231C32.8037 50.7405 34.0867 49.4575 35.6693 49.4575ZM75.6586 103.087C77.5126 102.084 78.6531 100.153 78.6531 98.0435V55.1888H38.5349V98.0435C38.5349 100.153 39.6754 102.084 41.5294 103.087C44.5698 104.732 50.0546 106.766 58.594 106.766C67.1334 106.766 72.621 104.732 75.6586 103.087Z" fill="url(#paint29_radial_8080_1288)"/>
<path fill-rule="evenodd" clip-rule="evenodd" d="M32.8037 52.3436C32.8037 50.761 34.0867 49.478 35.6693 49.478L81.5784 49.478C83.161 49.478 84.4439 50.761 84.4439 52.3436C84.4439 53.9262 83.161 55.2092 81.5784 55.2092L35.6693 55.2092C34.0867 55.2092 32.8037 53.9262 32.8037 52.3436Z" fill="url(#paint30_linear_8080_1288)"/>
<path d="M41.3989 75.248V95.9733C41.3989 97.8908 42.3765 99.6468 43.9657 100.559C46.5693 102.054 51.2729 103.904 58.5924 103.904C65.912 103.904 70.6132 102.054 73.2192 100.559C74.8084 99.6468 75.7859 97.8908 75.7859 95.9733V75.248H41.3989V75.248Z" fill="url(#paint31_linear_8080_1288)"/>
<path d="M41.3989 75.248V95.9733C41.3989 97.8908 42.3765 99.6468 43.9657 100.559C46.5693 102.054 51.2729 103.904 58.5924 103.904C65.912 103.904 70.6132 102.054 73.2192 100.559C74.8084 99.6468 75.7859 97.8908 75.7859 95.9733V75.248H41.3989V75.248Z" fill="url(#paint32_radial_8080_1288)"/>
<path d="M75.7859 75.2494C75.7859 76.832 68.0881 78.115 58.5924 78.115C49.0967 78.115 41.3989 76.832 41.3989 75.2494C41.3989 73.6668 49.0967 72.3838 58.5924 72.3838C68.0881 72.3838 75.7859 73.6668 75.7859 75.2494Z" fill="#FCF0BB"/>
<path fill-rule="evenodd" clip-rule="evenodd" d="M74.5481 74.7017C74.5482 74.7017 74.5464 74.7035 74.5423 74.7071ZM73.2781 75.2494C72.5765 75.035 71.6499 74.8256 70.5145 74.6364C67.5023 74.1344 63.2865 73.8166 58.5924 73.8166C53.8984 73.8166 49.6825 74.1344 46.6703 74.6364C45.535 74.8256 44.6083 75.035 43.9068 75.2494C44.6083 75.4637 45.535 75.6731 46.6703 75.8624C49.6825 76.3644 53.8984 76.6822 58.5924 76.6822C63.2865 76.6822 67.5023 76.3644 70.5145 75.8624C71.6499 75.6731 72.5765 75.4637 73.2781 75.2494ZM42.6368 74.7017C42.6369 74.7017 42.639 74.7035 42.6426 74.7071ZM42.6368 75.797C42.6367 75.797 42.6385 75.7952 42.6426 75.7916ZM74.5423 75.7916C74.5464 75.7952 74.5482 75.797 74.5481 75.797ZM58.5924 78.115C68.0881 78.115 75.7859 76.832 75.7859 75.2494C75.7859 73.6668 68.0881 72.3838 58.5924 72.3838C49.0967 72.3838 41.3989 73.6668 41.3989 75.2494C41.3989 76.832 49.0967 78.115 58.5924 78.115Z" fill="url(#paint33_linear_8080_1288)"/>
<path fill-rule="evenodd" clip-rule="evenodd" d="M78.4735 58.0565L38.8926 58.0565L38.8926 55.1909L78.4735 55.1909L78.4735 58.0565Z" fill="url(#paint34_linear_8080_1288)"/>
<path d="M56.0849 18.893C56.0849 21.0032 54.3743 22.7138 52.2641 22.7138C50.154 22.7138 48.4434 21.0032 48.4434 18.893C48.4434 16.7829 50.154 15.0723 52.2641 15.0723C54.3743 15.0723 56.0849 16.7829 56.0849 18.893Z" fill="url(#paint35_radial_8080_1288)"/>
<path d="M59.9047 37.9966C59.9047 40.1067 58.1941 41.8173 56.084 41.8173C53.9738 41.8173 52.2632 40.1067 52.2632 37.9966C52.2632 35.8864 53.9738 34.1758 56.084 34.1758C58.1941 34.1758 59.9047 35.8864 59.9047 37.9966Z" fill="url(#paint36_radial_8080_1288)"/>
<path d="M64.1535 22.9105C67.2101 22.0915 70.3519 23.9054 71.171 26.9621C71.99 30.0187 70.176 33.1605 67.1194 33.9795C64.0628 34.7986 60.921 32.9846 60.1019 29.928C59.2829 26.8714 61.0968 23.7295 64.1535 22.9105Z" fill="url(#paint37_radial_8080_1288)"/>
<path d="M56.0465 61.0694C58.339 60.4551 60.6953 61.8156 61.3096 64.108C61.9239 66.4005 60.5634 68.7569 58.271 69.3711C55.9785 69.9854 53.6221 68.6249 53.0078 66.3325C52.3936 64.04 53.754 61.6836 56.0465 61.0694Z" fill="url(#paint38_radial_8080_1288)"/>
<path fill-rule="evenodd" clip-rule="evenodd" d="M67.9058 98.1734L67.9058 58.0552L72.2041 58.0552L72.2041 98.1734L67.9058 98.1734Z" fill="url(#paint39_linear_8080_1288)"/>
<defs>
<radialGradient id="paint0_radial_8080_1288" cx="0" cy="0" r="1" gradientUnits="userSpaceOnUse" gradientTransform="translate(54.8169 101.994) rotate(-174.134) scale(112.591 18.6051)">
<stop offset="0.1" stop-color="#436273" stop-opacity="0.6"/>
<stop offset="0.385" stop-color="#8299A6" stop-opacity="0"/>
</radialGradient>
<radialGradient id="paint1_radial_8080_1288" cx="0" cy="0" r="1" gradientUnits="userSpaceOnUse" gradientTransform="translate(111.301 101.994) rotate(-174.134) scale(112.591 18.6051)">
<stop offset="0.1" stop-color="#436273" stop-opacity="0.6"/>
<stop offset="0.385" stop-color="#8299A6" stop-opacity="0"/>
</radialGradient>
<radialGradient id="paint2_radial_8080_1288" cx="0" cy="0" r="1" gradientUnits="userSpaceOnUse" gradientTransform="translate(176.269 101.994) rotate(-174.134) scale(112.591 18.6051)">
<stop offset="0.1" stop-color="#436273" stop-opacity="0.6"/>
<stop offset="0.385" stop-color="#8299A6" stop-opacity="0"/>
</radialGradient>
<linearGradient id="paint3_linear_8080_1288" x1="120.406" y1="17.9317" x2="120.406" y2="106.765" gradientUnits="userSpaceOnUse">
<stop stop-color="#CED8DD"/>
<stop offset="1" stop-color="#C7DAE4"/>
</linearGradient>
<radialGradient id="paint4_radial_8080_1288" cx="0" cy="0" r="1" gradientUnits="userSpaceOnUse" gradientTransform="translate(103.847 52.2788) scale(17.1935 52.2969)">
<stop stop-color="#728B99"/>
<stop offset="1" stop-color="#98A6AE" stop-opacity="0"/>
</radialGradient>
<radialGradient id="paint5_radial_8080_1288" cx="0" cy="0" r="1" gradientUnits="userSpaceOnUse" gradientTransform="translate(121.757 106.765) rotate(-90) scale(26.7427 81.3423)">
<stop offset="0.321358" stop-color="#78919E"/>
<stop offset="1" stop-color="#98A6AE" stop-opacity="0"/>
</radialGradient>
<linearGradient id="paint6_linear_8080_1288" x1="127.012" y1="60.917" x2="120.498" y2="103.901" gradientUnits="userSpaceOnUse">
<stop stop-color="#76EC82"/>
<stop offset="0.905547" stop-color="#2BCC11"/>
</linearGradient>
<radialGradient id="paint7_radial_8080_1288" cx="0" cy="0" r="1" gradientUnits="userSpaceOnUse" gradientTransform="translate(120.226 99.0847) rotate(-90) scale(12.4175 29.9659)">
<stop offset="0.333334" stop-color="#0DBE34"/>
<stop offset="0.9999" stop-color="#149931" stop-opacity="0.01"/>
<stop offset="1" stop-color="#20DC4A" stop-opacity="0"/>
</radialGradient>
<linearGradient id="paint8_linear_8080_1288" x1="107.603" y1="62.3492" x2="145.41" y2="59.3009" gradientUnits="userSpaceOnUse">
<stop stop-color="#0B9B2B"/>
<stop offset="1" stop-color="#08B02C" stop-opacity="0"/>
</linearGradient>
<linearGradient id="paint9_linear_8080_1288" x1="103.847" y1="20.8" x2="136.324" y2="20.8" gradientUnits="userSpaceOnUse">
<stop stop-color="#2D6381" stop-opacity="0.5"/>
<stop offset="0.382353" stop-color="#D6E5ED"/>
<stop offset="1" stop-color="#6B818D" stop-opacity="0.25"/>
</linearGradient>
<linearGradient id="paint10_linear_8080_1288" x1="124.806" y1="25.0956" x2="131.965" y2="95.3032" gradientUnits="userSpaceOnUse">
<stop stop-color="white" stop-opacity="0.05"/>
<stop offset="0.510201" stop-color="white" stop-opacity="0.75"/>
<stop offset="1" stop-color="white" stop-opacity="0.2"/>
</linearGradient>
<linearGradient id="paint11_linear_8080_1288" x1="184.269" y1="29.9165" x2="184.269" y2="106.332" gradientUnits="userSpaceOnUse">
<stop stop-color="#E4F4FD"/>
<stop offset="1" stop-color="#CED8DD"/>
</linearGradient>
<linearGradient id="paint12_linear_8080_1288" x1="184.082" y1="29.3988" x2="184.082" y2="44.6819" gradientUnits="userSpaceOnUse">
<stop stop-color="#7F98A6"/>
<stop offset="1" stop-color="#98A6AE" stop-opacity="0"/>
</linearGradient>
<linearGradient id="paint13_linear_8080_1288" x1="184.625" y1="48.5029" x2="164.499" y2="43.2062" gradientUnits="userSpaceOnUse">
<stop stop-color="#A0B7C3" stop-opacity="0"/>
<stop offset="1" stop-color="#406F89"/>
</linearGradient>
<linearGradient id="paint14_linear_8080_1288" x1="161.345" y1="99.3668" x2="212.586" y2="69.4331" gradientUnits="userSpaceOnUse">
<stop offset="0.127058" stop-color="#738B97"/>
<stop offset="1" stop-color="#869EAA" stop-opacity="0"/>
</linearGradient>
<radialGradient id="paint15_radial_8080_1288" cx="0" cy="0" r="1" gradientUnits="userSpaceOnUse" gradientTransform="translate(184.919 106.374) rotate(-90) scale(5.10152 31.0438)">
<stop stop-color="#356986"/>
<stop offset="1" stop-color="#356986" stop-opacity="0"/>
</radialGradient>
<radialGradient id="paint16_radial_8080_1288" cx="0" cy="0" r="1" gradientUnits="userSpaceOnUse" gradientTransform="translate(185.994 104.858) rotate(-90) scale(30.5662 48.917)">
<stop offset="0.203125" stop-color="#FF314A"/>
<stop offset="0.904854" stop-color="#FF8B8B"/>
</radialGradient>
<radialGradient id="paint17_radial_8080_1288" cx="0" cy="0" r="1" gradientUnits="userSpaceOnUse" gradientTransform="translate(184.268 104.421) rotate(-90) scale(9.11446 31.9006)">
<stop stop-color="#E33636"/>
<stop offset="0.774333" stop-color="#E76685" stop-opacity="0"/>
</radialGradient>
<linearGradient id="paint18_linear_8080_1288" x1="164.7" y1="80.3773" x2="208.277" y2="80.2557" gradientUnits="userSpaceOnUse">
<stop stop-color="#D12355"/>
<stop offset="1" stop-color="#CB4040" stop-opacity="0"/>
</linearGradient>
<linearGradient id="paint19_linear_8080_1288" x1="184.082" y1="82.9295" x2="158.292" y2="21.3194" gradientUnits="userSpaceOnUse">
<stop stop-color="#306583" stop-opacity="0.5"/>
<stop offset="1" stop-color="#A8D4ED" stop-opacity="0.5"/>
</linearGradient>
<linearGradient id="paint20_linear_8080_1288" x1="176.745" y1="58.2138" x2="181.223" y2="58.2138" gradientUnits="userSpaceOnUse">
<stop stop-color="white"/>
<stop offset="1" stop-color="white" stop-opacity="0"/>
</linearGradient>
<linearGradient id="paint21_linear_8080_1288" x1="185.7" y1="54.6319" x2="180.327" y2="54.6319" gradientUnits="userSpaceOnUse">
<stop stop-color="white"/>
<stop offset="1" stop-color="white" stop-opacity="0"/>
</linearGradient>
<radialGradient id="paint22_radial_8080_1288" cx="0" cy="0" r="1" gradientUnits="userSpaceOnUse" gradientTransform="translate(155.427 32.0654) rotate(-29.8328) scale(41.8423 16.5403)">
<stop offset="0.217313" stop-color="#9AB5C2"/>
<stop offset="1" stop-color="#8AAFC1" stop-opacity="0"/>
</radialGradient>
<linearGradient id="paint23_linear_8080_1288" x1="165.687" y1="79.9387" x2="207.369" y2="79.8091" gradientUnits="userSpaceOnUse">
<stop stop-color="#D42D5B"/>
<stop offset="1" stop-color="#D42D5B" stop-opacity="0"/>
</linearGradient>
<linearGradient id="paint24_linear_8080_1288" x1="189.998" y1="38.5126" x2="192.864" y2="97.257" gradientUnits="userSpaceOnUse">
<stop stop-color="white" stop-opacity="0.1"/>
<stop offset="0.499407" stop-color="white" stop-opacity="0.7"/>
<stop offset="1" stop-color="white" stop-opacity="0.05"/>
</linearGradient>
<linearGradient id="paint25_linear_8080_1288" x1="174.418" y1="35.6471" x2="192.826" y2="35.6471" gradientUnits="userSpaceOnUse">
<stop stop-color="#6B818D" stop-opacity="0.25"/>
<stop offset="0.217472" stop-color="#2D6381"/>
<stop offset="1" stop-color="#6B818D" stop-opacity="0.25"/>
</linearGradient>
<linearGradient id="paint26_linear_8080_1288" x1="173.959" y1="29.6292" x2="173.959" y2="35.3604" gradientUnits="userSpaceOnUse">
<stop stop-color="#DDECF4"/>
<stop offset="0.690674" stop-color="#AEBDC5"/>
</linearGradient>
<linearGradient id="paint27_linear_8080_1288" x1="58.594" y1="49.4575" x2="58.594" y2="106.766" gradientUnits="userSpaceOnUse">
<stop stop-color="#CED8DD"/>
<stop offset="1" stop-color="#C7DAE4"/>
</linearGradient>
<radialGradient id="paint28_radial_8080_1288" cx="0" cy="0" r="1" gradientUnits="userSpaceOnUse" gradientTransform="translate(34.3559 71.6159) scale(23.2674 46.2231)">
<stop stop-color="#7F98A6"/>
<stop offset="1" stop-color="#98A6AE" stop-opacity="0"/>
</radialGradient>
<radialGradient id="paint29_radial_8080_1288" cx="0" cy="0" r="1" gradientUnits="userSpaceOnUse" gradientTransform="translate(57.6233 106.769) rotate(-90) scale(17.1935 54.581)">
<stop offset="0.208334" stop-color="#7F98A6"/>
<stop offset="1" stop-color="#98A6AE" stop-opacity="0"/>
</radialGradient>
<linearGradient id="paint30_linear_8080_1288" x1="40.1199" y1="49.478" x2="40.1199" y2="55.2092" gradientUnits="userSpaceOnUse">
<stop offset="0.145833" stop-color="#DDECF4"/>
<stop offset="0.690674" stop-color="#AEBDC5"/>
</linearGradient>
<linearGradient id="paint31_linear_8080_1288" x1="58.5924" y1="75.248" x2="58.5924" y2="103.904" gradientUnits="userSpaceOnUse">
<stop stop-color="#FFF0B9"/>
<stop offset="1" stop-color="#E4C93B"/>
</linearGradient>
<radialGradient id="paint32_radial_8080_1288" cx="0" cy="0" r="1" gradientUnits="userSpaceOnUse" gradientTransform="translate(58.5924 99.6055) rotate(-90) scale(9.59206 27.777)">
<stop offset="0.427405" stop-color="#EABB1F"/>
<stop offset="0.875523" stop-color="#FFE1A8" stop-opacity="0"/>
</radialGradient>
<linearGradient id="paint33_linear_8080_1288" x1="44.4436" y1="78.115" x2="86.8901" y2="64.3243" gradientUnits="userSpaceOnUse">
<stop stop-color="#F2B132"/>
<stop offset="1" stop-color="#F2AF2D" stop-opacity="0"/>
</linearGradient>
<linearGradient id="paint34_linear_8080_1288" x1="38.8926" y1="56.6237" x2="76.216" y2="56.6237" gradientUnits="userSpaceOnUse">
<stop stop-color="#6B818D" stop-opacity="0.25"/>
<stop offset="0.217472" stop-color="#2D6381"/>
<stop offset="1" stop-color="#6B818D" stop-opacity="0.25"/>
</linearGradient>
<radialGradient id="paint35_radial_8080_1288" cx="0" cy="0" r="1" gradientUnits="userSpaceOnUse" gradientTransform="translate(53.4309 17.3221) rotate(115.615) scale(6.357)">
<stop offset="0.145833" stop-color="#CDD9DF"/>
<stop offset="0.703125" stop-color="#7B98A7"/>
<stop offset="1" stop-color="#47748D"/>
</radialGradient>
<radialGradient id="paint36_radial_8080_1288" cx="0" cy="0" r="1" gradientUnits="userSpaceOnUse" gradientTransform="translate(57.2507 36.4256) rotate(115.615) scale(6.357)">
<stop offset="0.145833" stop-color="#CDD9DF"/>
<stop offset="0.703125" stop-color="#7B98A7"/>
<stop offset="1" stop-color="#47748D"/>
</radialGradient>
<radialGradient id="paint37_radial_8080_1288" cx="0" cy="0" r="1" gradientUnits="userSpaceOnUse" gradientTransform="translate(67.3866 26.0886) rotate(115.615) scale(9.5355)">
<stop offset="0.145833" stop-color="#CDD9DF"/>
<stop offset="0.703125" stop-color="#7B98A7"/>
<stop offset="1" stop-color="#47748D"/>
</radialGradient>
<radialGradient id="paint38_radial_8080_1288" cx="0" cy="0" r="1" gradientUnits="userSpaceOnUse" gradientTransform="translate(58.4714 63.4529) rotate(115.615) scale(7.15162)">
<stop offset="0.145833" stop-color="#CDD9DF"/>
<stop offset="0.703125" stop-color="#7B98A7"/>
<stop offset="1" stop-color="#47748D"/>
</radialGradient>
<linearGradient id="paint39_linear_8080_1288" x1="70.0543" y1="60.9208" x2="70.0543" y2="101.039" gradientUnits="userSpaceOnUse">
<stop stop-color="white" stop-opacity="0.3"/>
<stop offset="0.245192" stop-color="white" stop-opacity="0.75"/>
<stop offset="1" stop-color="white" stop-opacity="0.5"/>
</linearGradient>
</defs>
</svg>
