<svg viewBox="0 0 240 120" fill="none" xmlns="http://www.w3.org/2000/svg">
<path d="M161.333 50.0011C153.528 43.2357 141.453 28.7364 135.025 20.7341C133.914 19.3504 132.07 18.96 130.546 19.7764L127.03 21.3777C126.277 21.7814 125.418 21.9001 124.593 21.7145L120.241 20.7348C119.083 20.4742 117.88 20.8114 117.01 21.6704C110.979 27.624 101.124 38.405 95.2667 43.3756C66.1902 65.9872 40.6563 91.9113 12 114.001L50.2605 101.196H202.868L228.533 100.001C208 84.0011 180.636 66.7319 161.333 50.0011Z" fill="url(#paint0_radial_510_27209)"/>
<path d="M161.333 50.0011C153.528 43.2357 141.453 28.7364 135.025 20.7341C133.914 19.3504 132.07 18.96 130.546 19.7764L127.03 21.3777C126.277 21.7814 125.418 21.9001 124.593 21.7145L120.241 20.7348C119.083 20.4742 117.88 20.8114 117.01 21.6704C110.979 27.624 101.124 38.405 95.2667 43.3756C66.1902 65.9872 40.6563 91.9113 12 114.001L50.2605 101.196H202.868L228.533 100.001C208 84.0011 180.636 66.7319 161.333 50.0011Z" fill="url(#paint1_radial_510_27209)"/>
<path d="M161.333 50.0011C153.528 43.2357 141.453 28.7364 135.025 20.7341C133.914 19.3504 132.07 18.96 130.546 19.7764L127.03 21.3777C126.277 21.7814 125.418 21.9001 124.593 21.7145L120.241 20.7348C119.083 20.4742 117.88 20.8114 117.01 21.6704C110.979 27.624 101.124 38.405 95.2667 43.3756C66.1902 65.9872 40.6563 91.9113 12 114.001L50.2605 101.196H202.868L228.533 100.001C208 84.0011 180.636 66.7319 161.333 50.0011Z" fill="url(#paint2_linear_510_27209)"/>
<path d="M161.333 50.0011C153.528 43.2357 141.453 28.7364 135.025 20.7341C133.914 19.3504 132.07 18.96 130.546 19.7764L127.03 21.3777C126.277 21.7814 125.418 21.9001 124.593 21.7145L120.241 20.7348C119.083 20.4742 117.88 20.8114 117.01 21.6704C110.979 27.624 101.124 38.405 95.2667 43.3756C66.1902 65.9872 40.6563 91.9113 12 114.001L50.2605 101.196H202.868L228.533 100.001C208 84.0011 180.636 66.7319 161.333 50.0011Z" fill="url(#paint3_radial_510_27209)"/>
<path d="M161.333 50.0011C153.528 43.2357 141.453 28.7364 135.025 20.7341C133.914 19.3504 132.07 18.96 130.546 19.7764L127.03 21.3777C126.277 21.7814 125.418 21.9001 124.593 21.7145L120.241 20.7348C119.083 20.4742 117.88 20.8114 117.01 21.6704C110.979 27.624 101.124 38.405 95.2667 43.3756C66.1902 65.9872 40.6563 91.9113 12 114.001L50.2605 101.196H202.868L228.533 100.001C208 84.0011 180.636 66.7319 161.333 50.0011Z" fill="url(#paint4_radial_510_27209)"/>
<path d="M161.333 50.0011C153.528 43.2357 141.453 28.7364 135.025 20.7341C133.914 19.3504 132.07 18.96 130.546 19.7764L127.03 21.3777C126.277 21.7814 125.418 21.9001 124.593 21.7145L120.241 20.7348C119.083 20.4742 117.88 20.8114 117.01 21.6704C110.979 27.624 101.124 38.405 95.2667 43.3756C66.1902 65.9872 40.6563 91.9113 12 114.001L50.2605 101.196H202.868L228.533 100.001C208 84.0011 180.636 66.7319 161.333 50.0011Z" fill="url(#paint5_radial_510_27209)"/>
<path d="M213.6 112.001C209.866 97.523 159.196 60.7531 144.435 51.5565L131.467 48.001C140.895 63.8452 134.556 92.512 137.687 109.887L213.6 112.001Z" fill="url(#paint6_radial_510_27209)"/>
<path d="M42.2665 112.001C45.9747 91.8809 106.335 40.7816 120.995 28.001H131.467C128.686 34.54 121.754 58.52 116.533 71.129C110.25 86.3027 110.406 98.6682 109.067 109.063L42.2665 112.001Z" fill="url(#paint7_radial_510_27209)"/>
<path d="M161.333 49.9998C165.558 53.662 170.17 57.35 175.012 61.0449C174.638 61.1895 174.233 61.2682 173.8 61.2682H172.923C171.965 61.2682 171.08 61.9675 170.604 63.1004C170.487 63.3786 170.377 63.694 170.262 64.0222C169.551 66.0511 168.67 68.5688 165.067 65.7943C152.835 56.3752 155.26 73.7279 141.306 62.5123C138.668 60.392 136.172 58.3855 134.479 57.6368C133.009 56.9862 131.42 57.0292 129.97 57.7588L113.997 65.7943C109.71 67.9513 99.7987 64.6004 97.053 61.3611L94.7789 58.6781C93.7016 57.4072 92.2164 56.9899 90.8575 57.5764L78.5169 62.9029C76.7004 63.6869 74.9954 62.6042 74.1027 60.7708C81.0063 54.8401 88.0266 49.0045 95.2666 43.3743C99.1248 40.1002 104.718 34.3051 109.809 29.0292C112.446 26.2969 114.949 23.7038 117.007 21.6723C117.877 20.8132 119.083 20.4728 120.241 20.7335L124.593 21.7132C125.418 21.8988 126.277 21.7801 127.03 21.3763L130.434 19.5528C131.803 18.8193 133.483 18.9335 134.67 19.9355C144.667 28.3748 151.307 41.31 161.333 49.9998Z" fill="url(#paint8_linear_510_27209)"/>
<path d="M161.333 49.9998C165.558 53.662 170.17 57.35 175.012 61.0449C174.638 61.1895 174.233 61.2682 173.8 61.2682H172.923C171.965 61.2682 171.08 61.9675 170.604 63.1004C170.487 63.3786 170.377 63.694 170.262 64.0222C169.551 66.0511 168.67 68.5688 165.067 65.7943C152.835 56.3752 155.26 73.7279 141.306 62.5123C138.668 60.392 136.172 58.3855 134.479 57.6368C133.009 56.9862 131.42 57.0292 129.97 57.7588L113.997 65.7943C109.71 67.9513 99.7987 64.6004 97.053 61.3611L94.7789 58.6781C93.7016 57.4072 92.2164 56.9899 90.8575 57.5764L78.5169 62.9029C76.7004 63.6869 74.9954 62.6042 74.1027 60.7708C81.0063 54.8401 88.0266 49.0045 95.2666 43.3743C99.1248 40.1002 104.718 34.3051 109.809 29.0292C112.446 26.2969 114.949 23.7038 117.007 21.6723C117.877 20.8132 119.083 20.4728 120.241 20.7335L124.593 21.7132C125.418 21.8988 126.277 21.7801 127.03 21.3763L130.434 19.5528C131.803 18.8193 133.483 18.9335 134.67 19.9355C144.667 28.3748 151.307 41.31 161.333 49.9998Z" fill="url(#paint9_radial_510_27209)"/>
<path d="M161.333 49.9998C165.558 53.662 170.17 57.35 175.012 61.0449C174.638 61.1895 174.233 61.2682 173.8 61.2682H172.923C171.965 61.2682 171.08 61.9675 170.604 63.1004C170.487 63.3786 170.377 63.694 170.262 64.0222C169.551 66.0511 168.67 68.5688 165.067 65.7943C152.835 56.3752 155.26 73.7279 141.306 62.5123C138.668 60.392 136.172 58.3855 134.479 57.6368C133.009 56.9862 131.42 57.0292 129.97 57.7588L113.997 65.7943C109.71 67.9513 99.7987 64.6004 97.053 61.3611L94.7789 58.6781C93.7016 57.4072 92.2164 56.9899 90.8575 57.5764L78.5169 62.9029C76.7004 63.6869 74.9954 62.6042 74.1027 60.7708C81.0063 54.8401 88.0266 49.0045 95.2666 43.3743C99.1248 40.1002 104.718 34.3051 109.809 29.0292C112.446 26.2969 114.949 23.7038 117.007 21.6723C117.877 20.8132 119.083 20.4728 120.241 20.7335L124.593 21.7132C125.418 21.8988 126.277 21.7801 127.03 21.3763L130.434 19.5528C131.803 18.8193 133.483 18.9335 134.67 19.9355C144.667 28.3748 151.307 41.31 161.333 49.9998Z" fill="url(#paint10_radial_510_27209)"/>
<path d="M161.333 49.9998C165.558 53.662 170.17 57.35 175.012 61.0449C174.638 61.1895 174.233 61.2682 173.8 61.2682H172.923C171.965 61.2682 171.08 61.9675 170.604 63.1004C170.487 63.3786 170.377 63.694 170.262 64.0222C169.551 66.0511 168.67 68.5688 165.067 65.7943C152.835 56.3752 155.26 73.7279 141.306 62.5123C138.668 60.392 136.172 58.3855 134.479 57.6368C133.009 56.9862 131.42 57.0292 129.97 57.7588L113.997 65.7943C109.71 67.9513 99.7987 64.6004 97.053 61.3611L94.7789 58.6781C93.7016 57.4072 92.2164 56.9899 90.8575 57.5764L78.5169 62.9029C76.7004 63.6869 74.9954 62.6042 74.1027 60.7708C81.0063 54.8401 88.0266 49.0045 95.2666 43.3743C99.1248 40.1002 104.718 34.3051 109.809 29.0292C112.446 26.2969 114.949 23.7038 117.007 21.6723C117.877 20.8132 119.083 20.4728 120.241 20.7335L124.593 21.7132C125.418 21.8988 126.277 21.7801 127.03 21.3763L130.434 19.5528C131.803 18.8193 133.483 18.9335 134.67 19.9355C144.667 28.3748 151.307 41.31 161.333 49.9998Z" fill="url(#paint11_radial_510_27209)"/>
<path d="M161.333 49.9998C165.558 53.662 170.17 57.35 175.012 61.0449C174.638 61.1895 174.233 61.2682 173.8 61.2682H172.923C171.965 61.2682 171.08 61.9675 170.604 63.1004C170.487 63.3786 170.377 63.694 170.262 64.0222C169.551 66.0511 168.67 68.5688 165.067 65.7943C152.835 56.3752 155.26 73.7279 141.306 62.5123C138.668 60.392 136.172 58.3855 134.479 57.6368C133.009 56.9862 131.42 57.0292 129.97 57.7588L113.997 65.7943C109.71 67.9513 99.7987 64.6004 97.053 61.3611L94.7789 58.6781C93.7016 57.4072 92.2164 56.9899 90.8575 57.5764L78.5169 62.9029C76.7004 63.6869 74.9954 62.6042 74.1027 60.7708C81.0063 54.8401 88.0266 49.0045 95.2666 43.3743C99.1248 40.1002 104.718 34.3051 109.809 29.0292C112.446 26.2969 114.949 23.7038 117.007 21.6723C117.877 20.8132 119.083 20.4728 120.241 20.7335L124.593 21.7132C125.418 21.8988 126.277 21.7801 127.03 21.3763L130.434 19.5528C131.803 18.8193 133.483 18.9335 134.67 19.9355C144.667 28.3748 151.307 41.31 161.333 49.9998Z" fill="url(#paint12_radial_510_27209)"/>
<path d="M161.333 49.9998C165.558 53.662 170.17 57.35 175.012 61.0449C174.638 61.1895 174.233 61.2682 173.8 61.2682H172.923C171.965 61.2682 171.08 61.9675 170.604 63.1004C170.487 63.3786 170.377 63.694 170.262 64.0222C169.551 66.0511 168.67 68.5688 165.067 65.7943C152.835 56.3752 155.26 73.7279 141.306 62.5123C138.668 60.392 136.172 58.3855 134.479 57.6368C133.009 56.9862 131.42 57.0292 129.97 57.7588L113.997 65.7943C109.71 67.9513 99.7987 64.6004 97.053 61.3611L94.7789 58.6781C93.7016 57.4072 92.2164 56.9899 90.8575 57.5764L78.5169 62.9029C76.7004 63.6869 74.9954 62.6042 74.1027 60.7708C81.0063 54.8401 88.0266 49.0045 95.2666 43.3743C99.1248 40.1002 104.718 34.3051 109.809 29.0292C112.446 26.2969 114.949 23.7038 117.007 21.6723C117.877 20.8132 119.083 20.4728 120.241 20.7335L124.593 21.7132C125.418 21.8988 126.277 21.7801 127.03 21.3763L130.434 19.5528C131.803 18.8193 133.483 18.9335 134.67 19.9355C144.667 28.3748 151.307 41.31 161.333 49.9998Z" fill="url(#paint13_radial_510_27209)"/>
<path d="M161.333 49.9998C165.558 53.662 170.17 57.35 175.012 61.0449C174.638 61.1895 174.233 61.2682 173.8 61.2682H172.923C171.965 61.2682 171.08 61.9675 170.604 63.1004C170.487 63.3786 170.377 63.694 170.262 64.0222C169.551 66.0511 168.67 68.5688 165.067 65.7943C152.835 56.3752 155.26 73.7279 141.306 62.5123C138.668 60.392 136.172 58.3855 134.479 57.6368C133.009 56.9862 131.42 57.0292 129.97 57.7588L113.997 65.7943C109.71 67.9513 99.7987 64.6004 97.053 61.3611L94.7789 58.6781C93.7016 57.4072 92.2164 56.9899 90.8575 57.5764L78.5169 62.9029C76.7004 63.6869 74.9954 62.6042 74.1027 60.7708C81.0063 54.8401 88.0266 49.0045 95.2666 43.3743C99.1248 40.1002 104.718 34.3051 109.809 29.0292C112.446 26.2969 114.949 23.7038 117.007 21.6723C117.877 20.8132 119.083 20.4728 120.241 20.7335L124.593 21.7132C125.418 21.8988 126.277 21.7801 127.03 21.3763L130.434 19.5528C131.803 18.8193 133.483 18.9335 134.67 19.9355C144.667 28.3748 151.307 41.31 161.333 49.9998Z" fill="url(#paint14_radial_510_27209)"/>
<path d="M161.333 49.9998C165.558 53.662 170.17 57.35 175.012 61.0449C174.638 61.1895 174.233 61.2682 173.8 61.2682H172.923C171.965 61.2682 171.08 61.9675 170.604 63.1004C170.487 63.3786 170.377 63.694 170.262 64.0222C169.551 66.0511 168.67 68.5688 165.067 65.7943C152.835 56.3752 155.26 73.7279 141.306 62.5123C138.668 60.392 136.172 58.3855 134.479 57.6368C133.009 56.9862 131.42 57.0292 129.97 57.7588L113.997 65.7943C109.71 67.9513 99.7987 64.6004 97.053 61.3611L94.7789 58.6781C93.7016 57.4072 92.2164 56.9899 90.8575 57.5764L78.5169 62.9029C76.7004 63.6869 74.9954 62.6042 74.1027 60.7708C81.0063 54.8401 88.0266 49.0045 95.2666 43.3743C99.1248 40.1002 104.718 34.3051 109.809 29.0292C112.446 26.2969 114.949 23.7038 117.007 21.6723C117.877 20.8132 119.083 20.4728 120.241 20.7335L124.593 21.7132C125.418 21.8988 126.277 21.7801 127.03 21.3763L130.434 19.5528C131.803 18.8193 133.483 18.9335 134.67 19.9355C144.667 28.3748 151.307 41.31 161.333 49.9998Z" fill="url(#paint15_radial_510_27209)"/>
<path d="M161.333 49.9998C165.558 53.662 170.17 57.35 175.012 61.0449C174.638 61.1895 174.233 61.2682 173.8 61.2682H172.923C171.965 61.2682 171.08 61.9675 170.604 63.1004C170.487 63.3786 170.377 63.694 170.262 64.0222C169.551 66.0511 168.67 68.5688 165.067 65.7943C152.835 56.3752 155.26 73.7279 141.306 62.5123C138.668 60.392 136.172 58.3855 134.479 57.6368C133.009 56.9862 131.42 57.0292 129.97 57.7588L113.997 65.7943C109.71 67.9513 99.7987 64.6004 97.053 61.3611L94.7789 58.6781C93.7016 57.4072 92.2164 56.9899 90.8575 57.5764L78.5169 62.9029C76.7004 63.6869 74.9954 62.6042 74.1027 60.7708C81.0063 54.8401 88.0266 49.0045 95.2666 43.3743C99.1248 40.1002 104.718 34.3051 109.809 29.0292C112.446 26.2969 114.949 23.7038 117.007 21.6723C117.877 20.8132 119.083 20.4728 120.241 20.7335L124.593 21.7132C125.418 21.8988 126.277 21.7801 127.03 21.3763L130.434 19.5528C131.803 18.8193 133.483 18.9335 134.67 19.9355C144.667 28.3748 151.307 41.31 161.333 49.9998Z" fill="url(#paint16_radial_510_27209)"/>
<path d="M240 99.612V120H0C3 112.354 15 107.258 40.7547 100.886C91.5 90.6924 240 99.612 240 99.612Z" fill="url(#paint17_linear_510_27209)"/>
<path d="M240 99.612V120H0C3 112.354 15 107.258 40.7547 100.886C91.5 90.6924 240 99.612 240 99.612Z" fill="url(#paint18_radial_510_27209)"/>
<path fill-rule="evenodd" clip-rule="evenodd" d="M216.652 78.3634C215.839 78.4685 215.255 79.3067 215.347 80.2356C215.716 83.9641 218.261 92.6315 225.479 99.1773C226.12 99.7584 227.051 99.6358 227.56 98.9035C228.068 98.1712 227.961 97.1065 227.32 96.5254C220.794 90.607 218.582 82.8038 218.29 79.8551C218.198 78.9262 217.465 78.2584 216.652 78.3634Z" fill="url(#paint19_linear_510_27209)"/>
<path fill-rule="evenodd" clip-rule="evenodd" d="M216.652 78.3634C215.839 78.4685 215.255 79.3067 215.347 80.2356C215.716 83.9641 218.261 92.6315 225.479 99.1773C226.12 99.7584 227.051 99.6358 227.56 98.9035C228.068 98.1712 227.961 97.1065 227.32 96.5254C220.794 90.607 218.582 82.8038 218.29 79.8551C218.198 78.9262 217.465 78.2584 216.652 78.3634Z" fill="url(#paint20_linear_510_27209)"/>
<path fill-rule="evenodd" clip-rule="evenodd" d="M216.652 78.3634C215.839 78.4685 215.255 79.3067 215.347 80.2356C215.716 83.9641 218.261 92.6315 225.479 99.1773C226.12 99.7584 227.051 99.6358 227.56 98.9035C228.068 98.1712 227.961 97.1065 227.32 96.5254C220.794 90.607 218.582 82.8038 218.29 79.8551C218.198 78.9262 217.465 78.2584 216.652 78.3634Z" fill="url(#paint21_radial_510_27209)"/>
<path d="M223.762 96.0942L240 93.7954V100.351L228.63 103.092C224.546 104.077 220.243 104.753 216.277 103.369C214.929 102.899 213.626 102.298 212.386 101.572L182.177 83.8807C181.753 83.6322 177.014 79.8468 172.967 76.5239C169.88 73.9884 172.423 72.2217 176 74Lnan nanL176 74L213.149 93.7954C216.44 95.4311 220.087 96.221 223.762 96.0942Z" fill="url(#paint22_linear_510_27209)"/>
<path d="M223.762 96.0942L240 93.7954V100.351L228.63 103.092C224.546 104.077 220.243 104.753 216.277 103.369C214.929 102.899 213.626 102.298 212.386 101.572L182.177 83.8807C181.753 83.6322 177.014 79.8468 172.967 76.5239C169.88 73.9884 172.423 72.2217 176 74Lnan nanL176 74L213.149 93.7954C216.44 95.4311 220.087 96.221 223.762 96.0942Z" fill="url(#paint23_linear_510_27209)"/>
<path d="M223.762 96.0942L240 93.7954V100.351L228.63 103.092C224.546 104.077 220.243 104.753 216.277 103.369C214.929 102.899 213.626 102.298 212.386 101.572L182.177 83.8807C181.753 83.6322 177.014 79.8468 172.967 76.5239C169.88 73.9884 172.423 72.2217 176 74Lnan nanL176 74L213.149 93.7954C216.44 95.4311 220.087 96.221 223.762 96.0942Z" fill="url(#paint24_radial_510_27209)"/>
<path d="M218.052 78.5718C235.806 61.9489 218.664 46.9318 213.711 49.3858C208.884 51.7773 205.592 75.1051 215.383 79.1794C216.292 79.5578 217.333 79.2448 218.052 78.5718Z" fill="url(#paint25_radial_510_27209)"/>
<path d="M218.052 78.5718C235.806 61.9489 218.664 46.9318 213.711 49.3858C208.884 51.7773 205.592 75.1051 215.383 79.1794C216.292 79.5578 217.333 79.2448 218.052 78.5718Z" fill="url(#paint26_radial_510_27209)"/>
<path d="M218.052 78.5718C235.806 61.9489 218.664 46.9318 213.711 49.3858C208.884 51.7773 205.592 75.1051 215.383 79.1794C216.292 79.5578 217.333 79.2448 218.052 78.5718Z" fill="url(#paint27_radial_510_27209)"/>
<path d="M213.879 79.404C192.013 68.5655 204.015 49.2952 209.476 50.2288C214.796 51.1386 224.789 72.5207 216.619 79.2212C215.858 79.8454 214.766 79.8436 213.879 79.404Z" fill="url(#paint28_radial_510_27209)"/>
<path d="M213.879 79.404C192.013 68.5655 204.015 49.2952 209.476 50.2288C214.796 51.1386 224.789 72.5207 216.619 79.2212C215.858 79.8454 214.766 79.8436 213.879 79.404Z" fill="url(#paint29_radial_510_27209)"/>
<path d="M223.883 72.8935C222.476 75.6487 219.295 80.2006 216.119 80.0782C213.602 79.9813 208.52 76.6175 205.885 74.2504C205.254 73.6837 203.524 70.4471 209.544 74.0469C213.657 76.5061 210.75 70.9952 212.753 70.8028C214.338 70.6504 216.336 74.3083 219.638 71.0679C226.025 66.0092 225.09 70.5299 223.883 72.8935Z" fill="url(#paint30_radial_510_27209)"/>
<path d="M177.171 74.8774C181.661 74.689 185.254 71.4193 186.074 67.2073C186.147 66.8175 185.94 66.4039 185.574 66.232C185.574 66.232 184.178 65.5085 183.863 65.3504C183.705 65.2714 183.699 65.0379 183.831 64.9496C184.113 64.7777 185.472 63.9044 185.472 63.9044C185.817 63.6967 185.992 63.2637 185.885 62.8777C184.72 58.7604 180.858 55.8068 176.346 56.0072C175.055 56.0614 173.827 56.4714 172.68 57.1002C173.563 56.1313 174.225 55.0484 174.573 53.8074C175.777 49.5054 173.759 45.0994 169.97 43.0394C169.61 42.851 169.158 42.9227 168.866 43.1984C168.866 43.1984 167.732 44.2942 167.482 44.546C167.357 44.672 167.128 44.5911 167.094 44.4569C167.006 44.1296 166.614 42.5779 166.614 42.5779C166.506 42.1918 166.162 41.883 165.767 41.8811C161.471 41.6954 157.435 44.4329 156.23 48.735C155.882 49.976 155.904 51.2473 156.139 52.5241C155.484 51.3989 154.656 50.4402 153.579 49.7333C149.818 47.2531 144.973 47.8074 141.835 50.7389C141.542 51.0146 141.471 51.4586 141.655 51.83C141.655 51.83 142.357 53.2355 142.521 53.5481C142.606 53.6961 142.457 53.9047 142.298 53.8965C141.963 53.8753 140.357 53.7714 140.357 53.7714C139.95 53.7485 139.562 53.9801 139.422 54.3515C137.922 58.3585 139.3 62.9979 143.061 65.478C144.156 66.1895 145.376 66.5793 146.699 66.73C145.403 66.9966 144.189 67.482 143.173 68.2891C139.648 71.0606 138.679 75.802 140.522 79.6785C140.689 80.0452 141.1 80.2475 141.513 80.1831C141.513 80.1831 143.069 79.9524 143.427 79.8908C143.596 79.866 143.742 80.0489 143.684 80.1933C143.563 80.4984 142.965 81.9913 142.965 81.9913C142.825 82.3627 142.914 82.8149 143.239 83.065C146.631 85.7106 151.499 85.8402 155.024 83.0687C156.041 82.2616 156.777 81.2348 157.342 80.0536C157.211 81.3543 157.304 82.6275 157.76 83.8225C159.339 88.0005 163.577 90.3804 167.858 89.8491C168.267 89.8013 168.573 89.4759 168.651 89.0696C168.651 89.0696 168.906 87.5179 168.965 87.1778C168.995 87.0077 169.216 86.9259 169.347 87.0335C169.61 87.2486 170.852 88.268 170.852 88.268C171.156 88.53 171.629 88.5714 171.963 88.3425C175.557 85.9644 177.193 81.4068 175.614 77.2288C175.163 76.0173 174.371 74.9969 173.403 74.0887C174.615 74.6366 175.863 74.9271 177.171 74.8774Z" fill="url(#paint31_radial_510_27209)"/>
<path d="M177.171 74.8774C181.661 74.689 185.254 71.4193 186.074 67.2073C186.147 66.8175 185.94 66.4039 185.574 66.232C185.574 66.232 184.178 65.5085 183.863 65.3504C183.705 65.2714 183.699 65.0379 183.831 64.9496C184.113 64.7777 185.472 63.9044 185.472 63.9044C185.817 63.6967 185.992 63.2637 185.885 62.8777C184.72 58.7604 180.858 55.8068 176.346 56.0072C175.055 56.0614 173.827 56.4714 172.68 57.1002C173.563 56.1313 174.225 55.0484 174.573 53.8074C175.777 49.5054 173.759 45.0994 169.97 43.0394C169.61 42.851 169.158 42.9227 168.866 43.1984C168.866 43.1984 167.732 44.2942 167.482 44.546C167.357 44.672 167.128 44.5911 167.094 44.4569C167.006 44.1296 166.614 42.5779 166.614 42.5779C166.506 42.1918 166.162 41.883 165.767 41.8811C161.471 41.6954 157.435 44.4329 156.23 48.735C155.882 49.976 155.904 51.2473 156.139 52.5241C155.484 51.3989 154.656 50.4402 153.579 49.7333C149.818 47.2531 144.973 47.8074 141.835 50.7389C141.542 51.0146 141.471 51.4586 141.655 51.83C141.655 51.83 142.357 53.2355 142.521 53.5481C142.606 53.6961 142.457 53.9047 142.298 53.8965C141.963 53.8753 140.357 53.7714 140.357 53.7714C139.95 53.7485 139.562 53.9801 139.422 54.3515C137.922 58.3585 139.3 62.9979 143.061 65.478C144.156 66.1895 145.376 66.5793 146.699 66.73C145.403 66.9966 144.189 67.482 143.173 68.2891C139.648 71.0606 138.679 75.802 140.522 79.6785C140.689 80.0452 141.1 80.2475 141.513 80.1831C141.513 80.1831 143.069 79.9524 143.427 79.8908C143.596 79.866 143.742 80.0489 143.684 80.1933C143.563 80.4984 142.965 81.9913 142.965 81.9913C142.825 82.3627 142.914 82.8149 143.239 83.065C146.631 85.7106 151.499 85.8402 155.024 83.0687C156.041 82.2616 156.777 81.2348 157.342 80.0536C157.211 81.3543 157.304 82.6275 157.76 83.8225C159.339 88.0005 163.577 90.3804 167.858 89.8491C168.267 89.8013 168.573 89.4759 168.651 89.0696C168.651 89.0696 168.906 87.5179 168.965 87.1778C168.995 87.0077 169.216 86.9259 169.347 87.0335C169.61 87.2486 170.852 88.268 170.852 88.268C171.156 88.53 171.629 88.5714 171.963 88.3425C175.557 85.9644 177.193 81.4068 175.614 77.2288C175.163 76.0173 174.371 74.9969 173.403 74.0887C174.615 74.6366 175.863 74.9271 177.171 74.8774Z" fill="url(#paint32_radial_510_27209)"/>
<path d="M177.171 74.8774C181.661 74.689 185.254 71.4193 186.074 67.2073C186.147 66.8175 185.94 66.4039 185.574 66.232C185.574 66.232 184.178 65.5085 183.863 65.3504C183.705 65.2714 183.699 65.0379 183.831 64.9496C184.113 64.7777 185.472 63.9044 185.472 63.9044C185.817 63.6967 185.992 63.2637 185.885 62.8777C184.72 58.7604 180.858 55.8068 176.346 56.0072C175.055 56.0614 173.827 56.4714 172.68 57.1002C173.563 56.1313 174.225 55.0484 174.573 53.8074C175.777 49.5054 173.759 45.0994 169.97 43.0394C169.61 42.851 169.158 42.9227 168.866 43.1984C168.866 43.1984 167.732 44.2942 167.482 44.546C167.357 44.672 167.128 44.5911 167.094 44.4569C167.006 44.1296 166.614 42.5779 166.614 42.5779C166.506 42.1918 166.162 41.883 165.767 41.8811C161.471 41.6954 157.435 44.4329 156.23 48.735C155.882 49.976 155.904 51.2473 156.139 52.5241C155.484 51.3989 154.656 50.4402 153.579 49.7333C149.818 47.2531 144.973 47.8074 141.835 50.7389C141.542 51.0146 141.471 51.4586 141.655 51.83C141.655 51.83 142.357 53.2355 142.521 53.5481C142.606 53.6961 142.457 53.9047 142.298 53.8965C141.963 53.8753 140.357 53.7714 140.357 53.7714C139.95 53.7485 139.562 53.9801 139.422 54.3515C137.922 58.3585 139.3 62.9979 143.061 65.478C144.156 66.1895 145.376 66.5793 146.699 66.73C145.403 66.9966 144.189 67.482 143.173 68.2891C139.648 71.0606 138.679 75.802 140.522 79.6785C140.689 80.0452 141.1 80.2475 141.513 80.1831C141.513 80.1831 143.069 79.9524 143.427 79.8908C143.596 79.866 143.742 80.0489 143.684 80.1933C143.563 80.4984 142.965 81.9913 142.965 81.9913C142.825 82.3627 142.914 82.8149 143.239 83.065C146.631 85.7106 151.499 85.8402 155.024 83.0687C156.041 82.2616 156.777 81.2348 157.342 80.0536C157.211 81.3543 157.304 82.6275 157.76 83.8225C159.339 88.0005 163.577 90.3804 167.858 89.8491C168.267 89.8013 168.573 89.4759 168.651 89.0696C168.651 89.0696 168.906 87.5179 168.965 87.1778C168.995 87.0077 169.216 86.9259 169.347 87.0335C169.61 87.2486 170.852 88.268 170.852 88.268C171.156 88.53 171.629 88.5714 171.963 88.3425C175.557 85.9644 177.193 81.4068 175.614 77.2288C175.163 76.0173 174.371 74.9969 173.403 74.0887C174.615 74.6366 175.863 74.9271 177.171 74.8774Z" fill="url(#paint33_radial_510_27209)"/>
<path d="M177.171 74.8774C181.661 74.689 185.254 71.4193 186.074 67.2073C186.147 66.8175 185.94 66.4039 185.574 66.232C185.574 66.232 184.178 65.5085 183.863 65.3504C183.705 65.2714 183.699 65.0379 183.831 64.9496C184.113 64.7777 185.472 63.9044 185.472 63.9044C185.817 63.6967 185.992 63.2637 185.885 62.8777C184.72 58.7604 180.858 55.8068 176.346 56.0072C175.055 56.0614 173.827 56.4714 172.68 57.1002C173.563 56.1313 174.225 55.0484 174.573 53.8074C175.777 49.5054 173.759 45.0994 169.97 43.0394C169.61 42.851 169.158 42.9227 168.866 43.1984C168.866 43.1984 167.732 44.2942 167.482 44.546C167.357 44.672 167.128 44.5911 167.094 44.4569C167.006 44.1296 166.614 42.5779 166.614 42.5779C166.506 42.1918 166.162 41.883 165.767 41.8811C161.471 41.6954 157.435 44.4329 156.23 48.735C155.882 49.976 155.904 51.2473 156.139 52.5241C155.484 51.3989 154.656 50.4402 153.579 49.7333C149.818 47.2531 144.973 47.8074 141.835 50.7389C141.542 51.0146 141.471 51.4586 141.655 51.83C141.655 51.83 142.357 53.2355 142.521 53.5481C142.606 53.6961 142.457 53.9047 142.298 53.8965C141.963 53.8753 140.357 53.7714 140.357 53.7714C139.95 53.7485 139.562 53.9801 139.422 54.3515C137.922 58.3585 139.3 62.9979 143.061 65.478C144.156 66.1895 145.376 66.5793 146.699 66.73C145.403 66.9966 144.189 67.482 143.173 68.2891C139.648 71.0606 138.679 75.802 140.522 79.6785C140.689 80.0452 141.1 80.2475 141.513 80.1831C141.513 80.1831 143.069 79.9524 143.427 79.8908C143.596 79.866 143.742 80.0489 143.684 80.1933C143.563 80.4984 142.965 81.9913 142.965 81.9913C142.825 82.3627 142.914 82.8149 143.239 83.065C146.631 85.7106 151.499 85.8402 155.024 83.0687C156.041 82.2616 156.777 81.2348 157.342 80.0536C157.211 81.3543 157.304 82.6275 157.76 83.8225C159.339 88.0005 163.577 90.3804 167.858 89.8491C168.267 89.8013 168.573 89.4759 168.651 89.0696C168.651 89.0696 168.906 87.5179 168.965 87.1778C168.995 87.0077 169.216 86.9259 169.347 87.0335C169.61 87.2486 170.852 88.268 170.852 88.268C171.156 88.53 171.629 88.5714 171.963 88.3425C175.557 85.9644 177.193 81.4068 175.614 77.2288C175.163 76.0173 174.371 74.9969 173.403 74.0887C174.615 74.6366 175.863 74.9271 177.171 74.8774Z" fill="url(#paint34_radial_510_27209)"/>
<path d="M177.171 74.8774C181.661 74.689 185.254 71.4193 186.074 67.2073C186.147 66.8175 185.94 66.4039 185.574 66.232C185.574 66.232 184.178 65.5085 183.863 65.3504C183.705 65.2714 183.699 65.0379 183.831 64.9496C184.113 64.7777 185.472 63.9044 185.472 63.9044C185.817 63.6967 185.992 63.2637 185.885 62.8777C184.72 58.7604 180.858 55.8068 176.346 56.0072C175.055 56.0614 173.827 56.4714 172.68 57.1002C173.563 56.1313 174.225 55.0484 174.573 53.8074C175.777 49.5054 173.759 45.0994 169.97 43.0394C169.61 42.851 169.158 42.9227 168.866 43.1984C168.866 43.1984 167.732 44.2942 167.482 44.546C167.357 44.672 167.128 44.5911 167.094 44.4569C167.006 44.1296 166.614 42.5779 166.614 42.5779C166.506 42.1918 166.162 41.883 165.767 41.8811C161.471 41.6954 157.435 44.4329 156.23 48.735C155.882 49.976 155.904 51.2473 156.139 52.5241C155.484 51.3989 154.656 50.4402 153.579 49.7333C149.818 47.2531 144.973 47.8074 141.835 50.7389C141.542 51.0146 141.471 51.4586 141.655 51.83C141.655 51.83 142.357 53.2355 142.521 53.5481C142.606 53.6961 142.457 53.9047 142.298 53.8965C141.963 53.8753 140.357 53.7714 140.357 53.7714C139.95 53.7485 139.562 53.9801 139.422 54.3515C137.922 58.3585 139.3 62.9979 143.061 65.478C144.156 66.1895 145.376 66.5793 146.699 66.73C145.403 66.9966 144.189 67.482 143.173 68.2891C139.648 71.0606 138.679 75.802 140.522 79.6785C140.689 80.0452 141.1 80.2475 141.513 80.1831C141.513 80.1831 143.069 79.9524 143.427 79.8908C143.596 79.866 143.742 80.0489 143.684 80.1933C143.563 80.4984 142.965 81.9913 142.965 81.9913C142.825 82.3627 142.914 82.8149 143.239 83.065C146.631 85.7106 151.499 85.8402 155.024 83.0687C156.041 82.2616 156.777 81.2348 157.342 80.0536C157.211 81.3543 157.304 82.6275 157.76 83.8225C159.339 88.0005 163.577 90.3804 167.858 89.8491C168.267 89.8013 168.573 89.4759 168.651 89.0696C168.651 89.0696 168.906 87.5179 168.965 87.1778C168.995 87.0077 169.216 86.9259 169.347 87.0335C169.61 87.2486 170.852 88.268 170.852 88.268C171.156 88.53 171.629 88.5714 171.963 88.3425C175.557 85.9644 177.193 81.4068 175.614 77.2288C175.163 76.0173 174.371 74.9969 173.403 74.0887C174.615 74.6366 175.863 74.9271 177.171 74.8774Z" fill="url(#paint35_radial_510_27209)"/>
<path d="M177.171 74.8774C181.661 74.689 185.254 71.4193 186.074 67.2073C186.147 66.8175 185.94 66.4039 185.574 66.232C185.574 66.232 184.178 65.5085 183.863 65.3504C183.705 65.2714 183.699 65.0379 183.831 64.9496C184.113 64.7777 185.472 63.9044 185.472 63.9044C185.817 63.6967 185.992 63.2637 185.885 62.8777C184.72 58.7604 180.858 55.8068 176.346 56.0072C175.055 56.0614 173.827 56.4714 172.68 57.1002C173.563 56.1313 174.225 55.0484 174.573 53.8074C175.777 49.5054 173.759 45.0994 169.97 43.0394C169.61 42.851 169.158 42.9227 168.866 43.1984C168.866 43.1984 167.732 44.2942 167.482 44.546C167.357 44.672 167.128 44.5911 167.094 44.4569C167.006 44.1296 166.614 42.5779 166.614 42.5779C166.506 42.1918 166.162 41.883 165.767 41.8811C161.471 41.6954 157.435 44.4329 156.23 48.735C155.882 49.976 155.904 51.2473 156.139 52.5241C155.484 51.3989 154.656 50.4402 153.579 49.7333C149.818 47.2531 144.973 47.8074 141.835 50.7389C141.542 51.0146 141.471 51.4586 141.655 51.83C141.655 51.83 142.357 53.2355 142.521 53.5481C142.606 53.6961 142.457 53.9047 142.298 53.8965C141.963 53.8753 140.357 53.7714 140.357 53.7714C139.95 53.7485 139.562 53.9801 139.422 54.3515C137.922 58.3585 139.3 62.9979 143.061 65.478C144.156 66.1895 145.376 66.5793 146.699 66.73C145.403 66.9966 144.189 67.482 143.173 68.2891C139.648 71.0606 138.679 75.802 140.522 79.6785C140.689 80.0452 141.1 80.2475 141.513 80.1831C141.513 80.1831 143.069 79.9524 143.427 79.8908C143.596 79.866 143.742 80.0489 143.684 80.1933C143.563 80.4984 142.965 81.9913 142.965 81.9913C142.825 82.3627 142.914 82.8149 143.239 83.065C146.631 85.7106 151.499 85.8402 155.024 83.0687C156.041 82.2616 156.777 81.2348 157.342 80.0536C157.211 81.3543 157.304 82.6275 157.76 83.8225C159.339 88.0005 163.577 90.3804 167.858 89.8491C168.267 89.8013 168.573 89.4759 168.651 89.0696C168.651 89.0696 168.906 87.5179 168.965 87.1778C168.995 87.0077 169.216 86.9259 169.347 87.0335C169.61 87.2486 170.852 88.268 170.852 88.268C171.156 88.53 171.629 88.5714 171.963 88.3425C175.557 85.9644 177.193 81.4068 175.614 77.2288C175.163 76.0173 174.371 74.9969 173.403 74.0887C174.615 74.6366 175.863 74.9271 177.171 74.8774Z" fill="url(#paint36_radial_510_27209)"/>
<path d="M177.171 74.8774C181.661 74.689 185.254 71.4193 186.074 67.2073C186.147 66.8175 185.94 66.4039 185.574 66.232C185.574 66.232 184.178 65.5085 183.863 65.3504C183.705 65.2714 183.699 65.0379 183.831 64.9496C184.113 64.7777 185.472 63.9044 185.472 63.9044C185.817 63.6967 185.992 63.2637 185.885 62.8777C184.72 58.7604 180.858 55.8068 176.346 56.0072C175.055 56.0614 173.827 56.4714 172.68 57.1002C173.563 56.1313 174.225 55.0484 174.573 53.8074C175.777 49.5054 173.759 45.0994 169.97 43.0394C169.61 42.851 169.158 42.9227 168.866 43.1984C168.866 43.1984 167.732 44.2942 167.482 44.546C167.357 44.672 167.128 44.5911 167.094 44.4569C167.006 44.1296 166.614 42.5779 166.614 42.5779C166.506 42.1918 166.162 41.883 165.767 41.8811C161.471 41.6954 157.435 44.4329 156.23 48.735C155.882 49.976 155.904 51.2473 156.139 52.5241C155.484 51.3989 154.656 50.4402 153.579 49.7333C149.818 47.2531 144.973 47.8074 141.835 50.7389C141.542 51.0146 141.471 51.4586 141.655 51.83C141.655 51.83 142.357 53.2355 142.521 53.5481C142.606 53.6961 142.457 53.9047 142.298 53.8965C141.963 53.8753 140.357 53.7714 140.357 53.7714C139.95 53.7485 139.562 53.9801 139.422 54.3515C137.922 58.3585 139.3 62.9979 143.061 65.478C144.156 66.1895 145.376 66.5793 146.699 66.73C145.403 66.9966 144.189 67.482 143.173 68.2891C139.648 71.0606 138.679 75.802 140.522 79.6785C140.689 80.0452 141.1 80.2475 141.513 80.1831C141.513 80.1831 143.069 79.9524 143.427 79.8908C143.596 79.866 143.742 80.0489 143.684 80.1933C143.563 80.4984 142.965 81.9913 142.965 81.9913C142.825 82.3627 142.914 82.8149 143.239 83.065C146.631 85.7106 151.499 85.8402 155.024 83.0687C156.041 82.2616 156.777 81.2348 157.342 80.0536C157.211 81.3543 157.304 82.6275 157.76 83.8225C159.339 88.0005 163.577 90.3804 167.858 89.8491C168.267 89.8013 168.573 89.4759 168.651 89.0696C168.651 89.0696 168.906 87.5179 168.965 87.1778C168.995 87.0077 169.216 86.9259 169.347 87.0335C169.61 87.2486 170.852 88.268 170.852 88.268C171.156 88.53 171.629 88.5714 171.963 88.3425C175.557 85.9644 177.193 81.4068 175.614 77.2288C175.163 76.0173 174.371 74.9969 173.403 74.0887C174.615 74.6366 175.863 74.9271 177.171 74.8774Z" fill="url(#paint37_radial_510_27209)"/>
<path d="M177.171 74.8774C181.661 74.689 185.254 71.4193 186.074 67.2073C186.147 66.8175 185.94 66.4039 185.574 66.232C185.574 66.232 184.178 65.5085 183.863 65.3504C183.705 65.2714 183.699 65.0379 183.831 64.9496C184.113 64.7777 185.472 63.9044 185.472 63.9044C185.817 63.6967 185.992 63.2637 185.885 62.8777C184.72 58.7604 180.858 55.8068 176.346 56.0072C175.055 56.0614 173.827 56.4714 172.68 57.1002C173.563 56.1313 174.225 55.0484 174.573 53.8074C175.777 49.5054 173.759 45.0994 169.97 43.0394C169.61 42.851 169.158 42.9227 168.866 43.1984C168.866 43.1984 167.732 44.2942 167.482 44.546C167.357 44.672 167.128 44.5911 167.094 44.4569C167.006 44.1296 166.614 42.5779 166.614 42.5779C166.506 42.1918 166.162 41.883 165.767 41.8811C161.471 41.6954 157.435 44.4329 156.23 48.735C155.882 49.976 155.904 51.2473 156.139 52.5241C155.484 51.3989 154.656 50.4402 153.579 49.7333C149.818 47.2531 144.973 47.8074 141.835 50.7389C141.542 51.0146 141.471 51.4586 141.655 51.83C141.655 51.83 142.357 53.2355 142.521 53.5481C142.606 53.6961 142.457 53.9047 142.298 53.8965C141.963 53.8753 140.357 53.7714 140.357 53.7714C139.95 53.7485 139.562 53.9801 139.422 54.3515C137.922 58.3585 139.3 62.9979 143.061 65.478C144.156 66.1895 145.376 66.5793 146.699 66.73C145.403 66.9966 144.189 67.482 143.173 68.2891C139.648 71.0606 138.679 75.802 140.522 79.6785C140.689 80.0452 141.1 80.2475 141.513 80.1831C141.513 80.1831 143.069 79.9524 143.427 79.8908C143.596 79.866 143.742 80.0489 143.684 80.1933C143.563 80.4984 142.965 81.9913 142.965 81.9913C142.825 82.3627 142.914 82.8149 143.239 83.065C146.631 85.7106 151.499 85.8402 155.024 83.0687C156.041 82.2616 156.777 81.2348 157.342 80.0536C157.211 81.3543 157.304 82.6275 157.76 83.8225C159.339 88.0005 163.577 90.3804 167.858 89.8491C168.267 89.8013 168.573 89.4759 168.651 89.0696C168.651 89.0696 168.906 87.5179 168.965 87.1778C168.995 87.0077 169.216 86.9259 169.347 87.0335C169.61 87.2486 170.852 88.268 170.852 88.268C171.156 88.53 171.629 88.5714 171.963 88.3425C175.557 85.9644 177.193 81.4068 175.614 77.2288C175.163 76.0173 174.371 74.9969 173.403 74.0887C174.615 74.6366 175.863 74.9271 177.171 74.8774Z" fill="url(#paint38_radial_510_27209)"/>
<path d="M177.171 74.8774C181.661 74.689 185.254 71.4193 186.074 67.2073C186.147 66.8175 185.94 66.4039 185.574 66.232C185.574 66.232 184.178 65.5085 183.863 65.3504C183.705 65.2714 183.699 65.0379 183.831 64.9496C184.113 64.7777 185.472 63.9044 185.472 63.9044C185.817 63.6967 185.992 63.2637 185.885 62.8777C184.72 58.7604 180.858 55.8068 176.346 56.0072C175.055 56.0614 173.827 56.4714 172.68 57.1002C173.563 56.1313 174.225 55.0484 174.573 53.8074C175.777 49.5054 173.759 45.0994 169.97 43.0394C169.61 42.851 169.158 42.9227 168.866 43.1984C168.866 43.1984 167.732 44.2942 167.482 44.546C167.357 44.672 167.128 44.5911 167.094 44.4569C167.006 44.1296 166.614 42.5779 166.614 42.5779C166.506 42.1918 166.162 41.883 165.767 41.8811C161.471 41.6954 157.435 44.4329 156.23 48.735C155.882 49.976 155.904 51.2473 156.139 52.5241C155.484 51.3989 154.656 50.4402 153.579 49.7333C149.818 47.2531 144.973 47.8074 141.835 50.7389C141.542 51.0146 141.471 51.4586 141.655 51.83C141.655 51.83 142.357 53.2355 142.521 53.5481C142.606 53.6961 142.457 53.9047 142.298 53.8965C141.963 53.8753 140.357 53.7714 140.357 53.7714C139.95 53.7485 139.562 53.9801 139.422 54.3515C137.922 58.3585 139.3 62.9979 143.061 65.478C144.156 66.1895 145.376 66.5793 146.699 66.73C145.403 66.9966 144.189 67.482 143.173 68.2891C139.648 71.0606 138.679 75.802 140.522 79.6785C140.689 80.0452 141.1 80.2475 141.513 80.1831C141.513 80.1831 143.069 79.9524 143.427 79.8908C143.596 79.866 143.742 80.0489 143.684 80.1933C143.563 80.4984 142.965 81.9913 142.965 81.9913C142.825 82.3627 142.914 82.8149 143.239 83.065C146.631 85.7106 151.499 85.8402 155.024 83.0687C156.041 82.2616 156.777 81.2348 157.342 80.0536C157.211 81.3543 157.304 82.6275 157.76 83.8225C159.339 88.0005 163.577 90.3804 167.858 89.8491C168.267 89.8013 168.573 89.4759 168.651 89.0696C168.651 89.0696 168.906 87.5179 168.965 87.1778C168.995 87.0077 169.216 86.9259 169.347 87.0335C169.61 87.2486 170.852 88.268 170.852 88.268C171.156 88.53 171.629 88.5714 171.963 88.3425C175.557 85.9644 177.193 81.4068 175.614 77.2288C175.163 76.0173 174.371 74.9969 173.403 74.0887C174.615 74.6366 175.863 74.9271 177.171 74.8774Z" fill="url(#paint39_radial_510_27209)"/>
<path d="M177.171 74.8774C181.661 74.689 185.254 71.4193 186.074 67.2073C186.147 66.8175 185.94 66.4039 185.574 66.232C185.574 66.232 184.178 65.5085 183.863 65.3504C183.705 65.2714 183.699 65.0379 183.831 64.9496C184.113 64.7777 185.472 63.9044 185.472 63.9044C185.817 63.6967 185.992 63.2637 185.885 62.8777C184.72 58.7604 180.858 55.8068 176.346 56.0072C175.055 56.0614 173.827 56.4714 172.68 57.1002C173.563 56.1313 174.225 55.0484 174.573 53.8074C175.777 49.5054 173.759 45.0994 169.97 43.0394C169.61 42.851 169.158 42.9227 168.866 43.1984C168.866 43.1984 167.732 44.2942 167.482 44.546C167.357 44.672 167.128 44.5911 167.094 44.4569C167.006 44.1296 166.614 42.5779 166.614 42.5779C166.506 42.1918 166.162 41.883 165.767 41.8811C161.471 41.6954 157.435 44.4329 156.23 48.735C155.882 49.976 155.904 51.2473 156.139 52.5241C155.484 51.3989 154.656 50.4402 153.579 49.7333C149.818 47.2531 144.973 47.8074 141.835 50.7389C141.542 51.0146 141.471 51.4586 141.655 51.83C141.655 51.83 142.357 53.2355 142.521 53.5481C142.606 53.6961 142.457 53.9047 142.298 53.8965C141.963 53.8753 140.357 53.7714 140.357 53.7714C139.95 53.7485 139.562 53.9801 139.422 54.3515C137.922 58.3585 139.3 62.9979 143.061 65.478C144.156 66.1895 145.376 66.5793 146.699 66.73C145.403 66.9966 144.189 67.482 143.173 68.2891C139.648 71.0606 138.679 75.802 140.522 79.6785C140.689 80.0452 141.1 80.2475 141.513 80.1831C141.513 80.1831 143.069 79.9524 143.427 79.8908C143.596 79.866 143.742 80.0489 143.684 80.1933C143.563 80.4984 142.965 81.9913 142.965 81.9913C142.825 82.3627 142.914 82.8149 143.239 83.065C146.631 85.7106 151.499 85.8402 155.024 83.0687C156.041 82.2616 156.777 81.2348 157.342 80.0536C157.211 81.3543 157.304 82.6275 157.76 83.8225C159.339 88.0005 163.577 90.3804 167.858 89.8491C168.267 89.8013 168.573 89.4759 168.651 89.0696C168.651 89.0696 168.906 87.5179 168.965 87.1778C168.995 87.0077 169.216 86.9259 169.347 87.0335C169.61 87.2486 170.852 88.268 170.852 88.268C171.156 88.53 171.629 88.5714 171.963 88.3425C175.557 85.9644 177.193 81.4068 175.614 77.2288C175.163 76.0173 174.371 74.9969 173.403 74.0887C174.615 74.6366 175.863 74.9271 177.171 74.8774Z" fill="url(#paint40_radial_510_27209)"/>
<path d="M177.171 74.8774C181.661 74.689 185.254 71.4193 186.074 67.2073C186.147 66.8175 185.94 66.4039 185.574 66.232C185.574 66.232 184.178 65.5085 183.863 65.3504C183.705 65.2714 183.699 65.0379 183.831 64.9496C184.113 64.7777 185.472 63.9044 185.472 63.9044C185.817 63.6967 185.992 63.2637 185.885 62.8777C184.72 58.7604 180.858 55.8068 176.346 56.0072C175.055 56.0614 173.827 56.4714 172.68 57.1002C173.563 56.1313 174.225 55.0484 174.573 53.8074C175.777 49.5054 173.759 45.0994 169.97 43.0394C169.61 42.851 169.158 42.9227 168.866 43.1984C168.866 43.1984 167.732 44.2942 167.482 44.546C167.357 44.672 167.128 44.5911 167.094 44.4569C167.006 44.1296 166.614 42.5779 166.614 42.5779C166.506 42.1918 166.162 41.883 165.767 41.8811C161.471 41.6954 157.435 44.4329 156.23 48.735C155.882 49.976 155.904 51.2473 156.139 52.5241C155.484 51.3989 154.656 50.4402 153.579 49.7333C149.818 47.2531 144.973 47.8074 141.835 50.7389C141.542 51.0146 141.471 51.4586 141.655 51.83C141.655 51.83 142.357 53.2355 142.521 53.5481C142.606 53.6961 142.457 53.9047 142.298 53.8965C141.963 53.8753 140.357 53.7714 140.357 53.7714C139.95 53.7485 139.562 53.9801 139.422 54.3515C137.922 58.3585 139.3 62.9979 143.061 65.478C144.156 66.1895 145.376 66.5793 146.699 66.73C145.403 66.9966 144.189 67.482 143.173 68.2891C139.648 71.0606 138.679 75.802 140.522 79.6785C140.689 80.0452 141.1 80.2475 141.513 80.1831C141.513 80.1831 143.069 79.9524 143.427 79.8908C143.596 79.866 143.742 80.0489 143.684 80.1933C143.563 80.4984 142.965 81.9913 142.965 81.9913C142.825 82.3627 142.914 82.8149 143.239 83.065C146.631 85.7106 151.499 85.8402 155.024 83.0687C156.041 82.2616 156.777 81.2348 157.342 80.0536C157.211 81.3543 157.304 82.6275 157.76 83.8225C159.339 88.0005 163.577 90.3804 167.858 89.8491C168.267 89.8013 168.573 89.4759 168.651 89.0696C168.651 89.0696 168.906 87.5179 168.965 87.1778C168.995 87.0077 169.216 86.9259 169.347 87.0335C169.61 87.2486 170.852 88.268 170.852 88.268C171.156 88.53 171.629 88.5714 171.963 88.3425C175.557 85.9644 177.193 81.4068 175.614 77.2288C175.163 76.0173 174.371 74.9969 173.403 74.0887C174.615 74.6366 175.863 74.9271 177.171 74.8774Z" fill="url(#paint41_radial_510_27209)"/>
<path fill-rule="evenodd" clip-rule="evenodd" d="M161.293 66.0797L163.651 57.658L165.317 58.1172L162.959 66.539L161.293 66.0797Z" fill="#EDD1F8"/>
<path fill-rule="evenodd" clip-rule="evenodd" d="M162.089 65.4523L170.878 65.0756L170.953 66.7899L162.163 67.1666L162.089 65.4523Z" fill="#F0D6F8"/>
<path fill-rule="evenodd" clip-rule="evenodd" d="M162.937 66.0105L166.006 74.2009L164.385 74.7988L161.315 66.6084L162.937 66.0105Z" fill="#E8C7F7"/>
<path fill-rule="evenodd" clip-rule="evenodd" d="M162.664 66.9813L155.758 72.4227L154.682 71.079L161.589 65.6376L162.664 66.9813Z" fill="#E5C1F6"/>
<path fill-rule="evenodd" clip-rule="evenodd" d="M161.648 67.0251L154.295 62.1999L155.249 60.7688L162.602 65.594L161.648 67.0251Z" fill="#E5C1F6"/>
<path d="M163.969 59.7298C164.995 60.0125 166.057 59.4166 166.342 58.3989C166.627 57.3811 166.027 56.3269 165.001 56.0441C163.975 55.7614 162.912 56.3573 162.627 57.3751C162.342 58.3928 162.943 59.4471 163.969 59.7298Z" fill="url(#paint42_radial_510_27209)"/>
<path d="M170.4 67.7745C171.426 68.0572 172.489 67.4613 172.774 66.4435C173.059 65.4258 172.458 64.3715 171.432 64.0888C170.407 63.8061 169.344 64.402 169.059 65.4197C168.774 66.4375 169.374 67.4918 170.4 67.7745Z" fill="url(#paint43_radial_510_27209)"/>
<path d="M164.679 76.3419C165.705 76.6246 166.767 76.0287 167.052 75.0109C167.337 73.9932 166.737 72.9389 165.711 72.6562C164.685 72.3735 163.622 72.9694 163.337 73.9871C163.052 75.0049 163.653 76.0591 164.679 76.3419Z" fill="url(#paint44_radial_510_27209)"/>
<path d="M154.704 73.5931C155.73 73.8758 156.793 73.2799 157.078 72.2622C157.363 71.2444 156.762 70.1901 155.736 69.9074C154.71 69.6247 153.647 70.2206 153.362 71.2383C153.077 72.2561 153.678 73.3104 154.704 73.5931Z" fill="url(#paint45_radial_510_27209)"/>
<path d="M154.257 63.3265C155.283 63.6092 156.345 63.0133 156.63 61.9956C156.915 60.9778 156.315 59.9235 155.289 59.6408C154.263 59.3581 153.2 59.954 152.915 60.9717C152.63 61.9895 153.231 63.0438 154.257 63.3265Z" fill="url(#paint46_radial_510_27209)"/>
<path d="M160.852 70.8609C163.386 71.5592 166.011 70.0874 166.715 67.5735C167.419 65.0596 165.935 62.4556 163.401 61.7573C160.867 61.059 158.242 62.5308 157.538 65.0447C156.834 67.5586 158.318 70.1626 160.852 70.8609Z" fill="url(#paint47_radial_510_27209)"/>
<path d="M206.522 103.862C209.729 103.712 212.303 101.334 212.901 98.2831C212.955 98.0007 212.808 97.7019 212.548 97.5786C212.548 97.5786 211.553 97.0591 211.329 96.9455C211.216 96.8888 211.213 96.7198 211.307 96.6555C211.509 96.5302 212.481 95.894 212.481 95.894C212.729 95.7426 212.855 95.4287 212.78 95.1495C211.961 92.1726 209.213 90.0461 205.991 90.2047C205.07 90.2478 204.191 90.5483 203.371 91.0068C204.004 90.3028 204.48 89.517 204.732 88.6176C205.605 85.4999 204.178 82.3165 201.479 80.8367C201.222 80.7013 200.9 80.7546 200.69 80.9551C200.69 80.9551 199.878 81.7516 199.698 81.9347C199.609 82.0263 199.446 81.9684 199.421 81.8713C199.36 81.6347 199.085 80.5127 199.085 80.5127C199.009 80.2335 198.764 80.0109 198.482 80.0108C195.416 79.8892 192.526 81.8829 191.653 85.0007C191.401 85.9 191.413 86.8203 191.577 87.7438C191.113 86.9313 190.525 86.2397 189.758 85.7313C187.08 83.9472 183.62 84.3629 181.371 86.4943C181.161 86.6948 181.11 87.0165 181.239 87.2847C181.239 87.2847 181.736 88.3001 181.853 88.5258C181.912 88.6327 181.806 88.7842 181.692 88.7787C181.453 88.7644 180.307 88.694 180.307 88.694C180.016 88.6786 179.739 88.8474 179.637 89.1167C178.555 92.0217 179.525 95.376 182.202 97.16C182.981 97.6718 183.851 97.9503 184.795 98.0554C183.869 98.2523 183.001 98.6073 182.273 99.1945C179.748 101.211 179.042 104.646 180.346 107.447C180.464 107.712 180.757 107.857 181.052 107.809C181.052 107.809 182.163 107.638 182.419 107.592C182.54 107.574 182.644 107.706 182.602 107.81C182.514 108.031 182.083 109.114 182.083 109.114C181.982 109.383 182.044 109.71 182.275 109.89C184.688 111.795 188.163 111.875 190.688 109.858C191.416 109.27 191.945 108.525 192.352 107.668C192.254 108.61 192.317 109.532 192.639 110.395C193.753 113.415 196.771 115.125 199.829 114.728C200.121 114.692 200.341 114.455 200.398 114.161C200.398 114.161 200.584 113.037 200.628 112.79C200.649 112.667 200.807 112.607 200.901 112.685C201.088 112.84 201.971 113.574 201.971 113.574C202.187 113.763 202.525 113.791 202.764 113.625C205.337 111.892 206.518 108.588 205.404 105.569C205.086 104.693 204.523 103.957 203.835 103.302C204.699 103.695 205.589 103.902 206.522 103.862Z" fill="url(#paint48_radial_510_27209)"/>
<path d="M206.522 103.862C209.729 103.712 212.303 101.334 212.901 98.2831C212.955 98.0007 212.808 97.7019 212.548 97.5786C212.548 97.5786 211.553 97.0591 211.329 96.9455C211.216 96.8888 211.213 96.7198 211.307 96.6555C211.509 96.5302 212.481 95.894 212.481 95.894C212.729 95.7426 212.855 95.4287 212.78 95.1495C211.961 92.1726 209.213 90.0461 205.991 90.2047C205.07 90.2478 204.191 90.5483 203.371 91.0068C204.004 90.3028 204.48 89.517 204.732 88.6176C205.605 85.4999 204.178 82.3165 201.479 80.8367C201.222 80.7013 200.9 80.7546 200.69 80.9551C200.69 80.9551 199.878 81.7516 199.698 81.9347C199.609 82.0263 199.446 81.9684 199.421 81.8713C199.36 81.6347 199.085 80.5127 199.085 80.5127C199.009 80.2335 198.764 80.0109 198.482 80.0108C195.416 79.8892 192.526 81.8829 191.653 85.0007C191.401 85.9 191.413 86.8203 191.577 87.7438C191.113 86.9313 190.525 86.2397 189.758 85.7313C187.08 83.9472 183.62 84.3629 181.371 86.4943C181.161 86.6948 181.11 87.0165 181.239 87.2847C181.239 87.2847 181.736 88.3001 181.853 88.5258C181.912 88.6327 181.806 88.7842 181.692 88.7787C181.453 88.7644 180.307 88.694 180.307 88.694C180.016 88.6786 179.739 88.8474 179.637 89.1167C178.555 92.0217 179.525 95.376 182.202 97.16C182.981 97.6718 183.851 97.9503 184.795 98.0554C183.869 98.2523 183.001 98.6073 182.273 99.1945C179.748 101.211 179.042 104.646 180.346 107.447C180.464 107.712 180.757 107.857 181.052 107.809C181.052 107.809 182.163 107.638 182.419 107.592C182.54 107.574 182.644 107.706 182.602 107.81C182.514 108.031 182.083 109.114 182.083 109.114C181.982 109.383 182.044 109.71 182.275 109.89C184.688 111.795 188.163 111.875 190.688 109.858C191.416 109.27 191.945 108.525 192.352 107.668C192.254 108.61 192.317 109.532 192.639 110.395C193.753 113.415 196.771 115.125 199.829 114.728C200.121 114.692 200.341 114.455 200.398 114.161C200.398 114.161 200.584 113.037 200.628 112.79C200.649 112.667 200.807 112.607 200.901 112.685C201.088 112.84 201.971 113.574 201.971 113.574C202.187 113.763 202.525 113.791 202.764 113.625C205.337 111.892 206.518 108.588 205.404 105.569C205.086 104.693 204.523 103.957 203.835 103.302C204.699 103.695 205.589 103.902 206.522 103.862Z" fill="url(#paint49_radial_510_27209)"/>
<path d="M206.522 103.862C209.729 103.712 212.303 101.334 212.901 98.2831C212.955 98.0007 212.808 97.7019 212.548 97.5786C212.548 97.5786 211.553 97.0591 211.329 96.9455C211.216 96.8888 211.213 96.7198 211.307 96.6555C211.509 96.5302 212.481 95.894 212.481 95.894C212.729 95.7426 212.855 95.4287 212.78 95.1495C211.961 92.1726 209.213 90.0461 205.991 90.2047C205.07 90.2478 204.191 90.5483 203.371 91.0068C204.004 90.3028 204.48 89.517 204.732 88.6176C205.605 85.4999 204.178 82.3165 201.479 80.8367C201.222 80.7013 200.9 80.7546 200.69 80.9551C200.69 80.9551 199.878 81.7516 199.698 81.9347C199.609 82.0263 199.446 81.9684 199.421 81.8713C199.36 81.6347 199.085 80.5127 199.085 80.5127C199.009 80.2335 198.764 80.0109 198.482 80.0108C195.416 79.8892 192.526 81.8829 191.653 85.0007C191.401 85.9 191.413 86.8203 191.577 87.7438C191.113 86.9313 190.525 86.2397 189.758 85.7313C187.08 83.9472 183.62 84.3629 181.371 86.4943C181.161 86.6948 181.11 87.0165 181.239 87.2847C181.239 87.2847 181.736 88.3001 181.853 88.5258C181.912 88.6327 181.806 88.7842 181.692 88.7787C181.453 88.7644 180.307 88.694 180.307 88.694C180.016 88.6786 179.739 88.8474 179.637 89.1167C178.555 92.0217 179.525 95.376 182.202 97.16C182.981 97.6718 183.851 97.9503 184.795 98.0554C183.869 98.2523 183.001 98.6073 182.273 99.1945C179.748 101.211 179.042 104.646 180.346 107.447C180.464 107.712 180.757 107.857 181.052 107.809C181.052 107.809 182.163 107.638 182.419 107.592C182.54 107.574 182.644 107.706 182.602 107.81C182.514 108.031 182.083 109.114 182.083 109.114C181.982 109.383 182.044 109.71 182.275 109.89C184.688 111.795 188.163 111.875 190.688 109.858C191.416 109.27 191.945 108.525 192.352 107.668C192.254 108.61 192.317 109.532 192.639 110.395C193.753 113.415 196.771 115.125 199.829 114.728C200.121 114.692 200.341 114.455 200.398 114.161C200.398 114.161 200.584 113.037 200.628 112.79C200.649 112.667 200.807 112.607 200.901 112.685C201.088 112.84 201.971 113.574 201.971 113.574C202.187 113.763 202.525 113.791 202.764 113.625C205.337 111.892 206.518 108.588 205.404 105.569C205.086 104.693 204.523 103.957 203.835 103.302C204.699 103.695 205.589 103.902 206.522 103.862Z" fill="url(#paint50_radial_510_27209)"/>
<path d="M206.522 103.862C209.729 103.712 212.303 101.334 212.901 98.2831C212.955 98.0007 212.808 97.7019 212.548 97.5786C212.548 97.5786 211.553 97.0591 211.329 96.9455C211.216 96.8888 211.213 96.7198 211.307 96.6555C211.509 96.5302 212.481 95.894 212.481 95.894C212.729 95.7426 212.855 95.4287 212.78 95.1495C211.961 92.1726 209.213 90.0461 205.991 90.2047C205.07 90.2478 204.191 90.5483 203.371 91.0068C204.004 90.3028 204.48 89.517 204.732 88.6176C205.605 85.4999 204.178 82.3165 201.479 80.8367C201.222 80.7013 200.9 80.7546 200.69 80.9551C200.69 80.9551 199.878 81.7516 199.698 81.9347C199.609 82.0263 199.446 81.9684 199.421 81.8713C199.36 81.6347 199.085 80.5127 199.085 80.5127C199.009 80.2335 198.764 80.0109 198.482 80.0108C195.416 79.8892 192.526 81.8829 191.653 85.0007C191.401 85.9 191.413 86.8203 191.577 87.7438C191.113 86.9313 190.525 86.2397 189.758 85.7313C187.08 83.9472 183.62 84.3629 181.371 86.4943C181.161 86.6948 181.11 87.0165 181.239 87.2847C181.239 87.2847 181.736 88.3001 181.853 88.5258C181.912 88.6327 181.806 88.7842 181.692 88.7787C181.453 88.7644 180.307 88.694 180.307 88.694C180.016 88.6786 179.739 88.8474 179.637 89.1167C178.555 92.0217 179.525 95.376 182.202 97.16C182.981 97.6718 183.851 97.9503 184.795 98.0554C183.869 98.2523 183.001 98.6073 182.273 99.1945C179.748 101.211 179.042 104.646 180.346 107.447C180.464 107.712 180.757 107.857 181.052 107.809C181.052 107.809 182.163 107.638 182.419 107.592C182.54 107.574 182.644 107.706 182.602 107.81C182.514 108.031 182.083 109.114 182.083 109.114C181.982 109.383 182.044 109.71 182.275 109.89C184.688 111.795 188.163 111.875 190.688 109.858C191.416 109.27 191.945 108.525 192.352 107.668C192.254 108.61 192.317 109.532 192.639 110.395C193.753 113.415 196.771 115.125 199.829 114.728C200.121 114.692 200.341 114.455 200.398 114.161C200.398 114.161 200.584 113.037 200.628 112.79C200.649 112.667 200.807 112.607 200.901 112.685C201.088 112.84 201.971 113.574 201.971 113.574C202.187 113.763 202.525 113.791 202.764 113.625C205.337 111.892 206.518 108.588 205.404 105.569C205.086 104.693 204.523 103.957 203.835 103.302C204.699 103.695 205.589 103.902 206.522 103.862Z" fill="url(#paint51_radial_510_27209)"/>
<path d="M206.522 103.862C209.729 103.712 212.303 101.334 212.901 98.2831C212.955 98.0007 212.808 97.7019 212.548 97.5786C212.548 97.5786 211.553 97.0591 211.329 96.9455C211.216 96.8888 211.213 96.7198 211.307 96.6555C211.509 96.5302 212.481 95.894 212.481 95.894C212.729 95.7426 212.855 95.4287 212.78 95.1495C211.961 92.1726 209.213 90.0461 205.991 90.2047C205.07 90.2478 204.191 90.5483 203.371 91.0068C204.004 90.3028 204.48 89.517 204.732 88.6176C205.605 85.4999 204.178 82.3165 201.479 80.8367C201.222 80.7013 200.9 80.7546 200.69 80.9551C200.69 80.9551 199.878 81.7516 199.698 81.9347C199.609 82.0263 199.446 81.9684 199.421 81.8713C199.36 81.6347 199.085 80.5127 199.085 80.5127C199.009 80.2335 198.764 80.0109 198.482 80.0108C195.416 79.8892 192.526 81.8829 191.653 85.0007C191.401 85.9 191.413 86.8203 191.577 87.7438C191.113 86.9313 190.525 86.2397 189.758 85.7313C187.08 83.9472 183.62 84.3629 181.371 86.4943C181.161 86.6948 181.11 87.0165 181.239 87.2847C181.239 87.2847 181.736 88.3001 181.853 88.5258C181.912 88.6327 181.806 88.7842 181.692 88.7787C181.453 88.7644 180.307 88.694 180.307 88.694C180.016 88.6786 179.739 88.8474 179.637 89.1167C178.555 92.0217 179.525 95.376 182.202 97.16C182.981 97.6718 183.851 97.9503 184.795 98.0554C183.869 98.2523 183.001 98.6073 182.273 99.1945C179.748 101.211 179.042 104.646 180.346 107.447C180.464 107.712 180.757 107.857 181.052 107.809C181.052 107.809 182.163 107.638 182.419 107.592C182.54 107.574 182.644 107.706 182.602 107.81C182.514 108.031 182.083 109.114 182.083 109.114C181.982 109.383 182.044 109.71 182.275 109.89C184.688 111.795 188.163 111.875 190.688 109.858C191.416 109.27 191.945 108.525 192.352 107.668C192.254 108.61 192.317 109.532 192.639 110.395C193.753 113.415 196.771 115.125 199.829 114.728C200.121 114.692 200.341 114.455 200.398 114.161C200.398 114.161 200.584 113.037 200.628 112.79C200.649 112.667 200.807 112.607 200.901 112.685C201.088 112.84 201.971 113.574 201.971 113.574C202.187 113.763 202.525 113.791 202.764 113.625C205.337 111.892 206.518 108.588 205.404 105.569C205.086 104.693 204.523 103.957 203.835 103.302C204.699 103.695 205.589 103.902 206.522 103.862Z" fill="url(#paint52_radial_510_27209)"/>
<path d="M206.522 103.862C209.729 103.712 212.303 101.334 212.901 98.2831C212.955 98.0007 212.808 97.7019 212.548 97.5786C212.548 97.5786 211.553 97.0591 211.329 96.9455C211.216 96.8888 211.213 96.7198 211.307 96.6555C211.509 96.5302 212.481 95.894 212.481 95.894C212.729 95.7426 212.855 95.4287 212.78 95.1495C211.961 92.1726 209.213 90.0461 205.991 90.2047C205.07 90.2478 204.191 90.5483 203.371 91.0068C204.004 90.3028 204.48 89.517 204.732 88.6176C205.605 85.4999 204.178 82.3165 201.479 80.8367C201.222 80.7013 200.9 80.7546 200.69 80.9551C200.69 80.9551 199.878 81.7516 199.698 81.9347C199.609 82.0263 199.446 81.9684 199.421 81.8713C199.36 81.6347 199.085 80.5127 199.085 80.5127C199.009 80.2335 198.764 80.0109 198.482 80.0108C195.416 79.8892 192.526 81.8829 191.653 85.0007C191.401 85.9 191.413 86.8203 191.577 87.7438C191.113 86.9313 190.525 86.2397 189.758 85.7313C187.08 83.9472 183.62 84.3629 181.371 86.4943C181.161 86.6948 181.11 87.0165 181.239 87.2847C181.239 87.2847 181.736 88.3001 181.853 88.5258C181.912 88.6327 181.806 88.7842 181.692 88.7787C181.453 88.7644 180.307 88.694 180.307 88.694C180.016 88.6786 179.739 88.8474 179.637 89.1167C178.555 92.0217 179.525 95.376 182.202 97.16C182.981 97.6718 183.851 97.9503 184.795 98.0554C183.869 98.2523 183.001 98.6073 182.273 99.1945C179.748 101.211 179.042 104.646 180.346 107.447C180.464 107.712 180.757 107.857 181.052 107.809C181.052 107.809 182.163 107.638 182.419 107.592C182.54 107.574 182.644 107.706 182.602 107.81C182.514 108.031 182.083 109.114 182.083 109.114C181.982 109.383 182.044 109.71 182.275 109.89C184.688 111.795 188.163 111.875 190.688 109.858C191.416 109.27 191.945 108.525 192.352 107.668C192.254 108.61 192.317 109.532 192.639 110.395C193.753 113.415 196.771 115.125 199.829 114.728C200.121 114.692 200.341 114.455 200.398 114.161C200.398 114.161 200.584 113.037 200.628 112.79C200.649 112.667 200.807 112.607 200.901 112.685C201.088 112.84 201.971 113.574 201.971 113.574C202.187 113.763 202.525 113.791 202.764 113.625C205.337 111.892 206.518 108.588 205.404 105.569C205.086 104.693 204.523 103.957 203.835 103.302C204.699 103.695 205.589 103.902 206.522 103.862Z" fill="url(#paint53_radial_510_27209)"/>
<path d="M206.522 103.862C209.729 103.712 212.303 101.334 212.901 98.2831C212.955 98.0007 212.808 97.7019 212.548 97.5786C212.548 97.5786 211.553 97.0591 211.329 96.9455C211.216 96.8888 211.213 96.7198 211.307 96.6555C211.509 96.5302 212.481 95.894 212.481 95.894C212.729 95.7426 212.855 95.4287 212.78 95.1495C211.961 92.1726 209.213 90.0461 205.991 90.2047C205.07 90.2478 204.191 90.5483 203.371 91.0068C204.004 90.3028 204.48 89.517 204.732 88.6176C205.605 85.4999 204.178 82.3165 201.479 80.8367C201.222 80.7013 200.9 80.7546 200.69 80.9551C200.69 80.9551 199.878 81.7516 199.698 81.9347C199.609 82.0263 199.446 81.9684 199.421 81.8713C199.36 81.6347 199.085 80.5127 199.085 80.5127C199.009 80.2335 198.764 80.0109 198.482 80.0108C195.416 79.8892 192.526 81.8829 191.653 85.0007C191.401 85.9 191.413 86.8203 191.577 87.7438C191.113 86.9313 190.525 86.2397 189.758 85.7313C187.08 83.9472 183.62 84.3629 181.371 86.4943C181.161 86.6948 181.11 87.0165 181.239 87.2847C181.239 87.2847 181.736 88.3001 181.853 88.5258C181.912 88.6327 181.806 88.7842 181.692 88.7787C181.453 88.7644 180.307 88.694 180.307 88.694C180.016 88.6786 179.739 88.8474 179.637 89.1167C178.555 92.0217 179.525 95.376 182.202 97.16C182.981 97.6718 183.851 97.9503 184.795 98.0554C183.869 98.2523 183.001 98.6073 182.273 99.1945C179.748 101.211 179.042 104.646 180.346 107.447C180.464 107.712 180.757 107.857 181.052 107.809C181.052 107.809 182.163 107.638 182.419 107.592C182.54 107.574 182.644 107.706 182.602 107.81C182.514 108.031 182.083 109.114 182.083 109.114C181.982 109.383 182.044 109.71 182.275 109.89C184.688 111.795 188.163 111.875 190.688 109.858C191.416 109.27 191.945 108.525 192.352 107.668C192.254 108.61 192.317 109.532 192.639 110.395C193.753 113.415 196.771 115.125 199.829 114.728C200.121 114.692 200.341 114.455 200.398 114.161C200.398 114.161 200.584 113.037 200.628 112.79C200.649 112.667 200.807 112.607 200.901 112.685C201.088 112.84 201.971 113.574 201.971 113.574C202.187 113.763 202.525 113.791 202.764 113.625C205.337 111.892 206.518 108.588 205.404 105.569C205.086 104.693 204.523 103.957 203.835 103.302C204.699 103.695 205.589 103.902 206.522 103.862Z" fill="url(#paint54_radial_510_27209)"/>
<path d="M206.522 103.862C209.729 103.712 212.303 101.334 212.901 98.2831C212.955 98.0007 212.808 97.7019 212.548 97.5786C212.548 97.5786 211.553 97.0591 211.329 96.9455C211.216 96.8888 211.213 96.7198 211.307 96.6555C211.509 96.5302 212.481 95.894 212.481 95.894C212.729 95.7426 212.855 95.4287 212.78 95.1495C211.961 92.1726 209.213 90.0461 205.991 90.2047C205.07 90.2478 204.191 90.5483 203.371 91.0068C204.004 90.3028 204.48 89.517 204.732 88.6176C205.605 85.4999 204.178 82.3165 201.479 80.8367C201.222 80.7013 200.9 80.7546 200.69 80.9551C200.69 80.9551 199.878 81.7516 199.698 81.9347C199.609 82.0263 199.446 81.9684 199.421 81.8713C199.36 81.6347 199.085 80.5127 199.085 80.5127C199.009 80.2335 198.764 80.0109 198.482 80.0108C195.416 79.8892 192.526 81.8829 191.653 85.0007C191.401 85.9 191.413 86.8203 191.577 87.7438C191.113 86.9313 190.525 86.2397 189.758 85.7313C187.08 83.9472 183.62 84.3629 181.371 86.4943C181.161 86.6948 181.11 87.0165 181.239 87.2847C181.239 87.2847 181.736 88.3001 181.853 88.5258C181.912 88.6327 181.806 88.7842 181.692 88.7787C181.453 88.7644 180.307 88.694 180.307 88.694C180.016 88.6786 179.739 88.8474 179.637 89.1167C178.555 92.0217 179.525 95.376 182.202 97.16C182.981 97.6718 183.851 97.9503 184.795 98.0554C183.869 98.2523 183.001 98.6073 182.273 99.1945C179.748 101.211 179.042 104.646 180.346 107.447C180.464 107.712 180.757 107.857 181.052 107.809C181.052 107.809 182.163 107.638 182.419 107.592C182.54 107.574 182.644 107.706 182.602 107.81C182.514 108.031 182.083 109.114 182.083 109.114C181.982 109.383 182.044 109.71 182.275 109.89C184.688 111.795 188.163 111.875 190.688 109.858C191.416 109.27 191.945 108.525 192.352 107.668C192.254 108.61 192.317 109.532 192.639 110.395C193.753 113.415 196.771 115.125 199.829 114.728C200.121 114.692 200.341 114.455 200.398 114.161C200.398 114.161 200.584 113.037 200.628 112.79C200.649 112.667 200.807 112.607 200.901 112.685C201.088 112.84 201.971 113.574 201.971 113.574C202.187 113.763 202.525 113.791 202.764 113.625C205.337 111.892 206.518 108.588 205.404 105.569C205.086 104.693 204.523 103.957 203.835 103.302C204.699 103.695 205.589 103.902 206.522 103.862Z" fill="url(#paint55_radial_510_27209)"/>
<path d="M206.522 103.862C209.729 103.712 212.303 101.334 212.901 98.2831C212.955 98.0007 212.808 97.7019 212.548 97.5786C212.548 97.5786 211.553 97.0591 211.329 96.9455C211.216 96.8888 211.213 96.7198 211.307 96.6555C211.509 96.5302 212.481 95.894 212.481 95.894C212.729 95.7426 212.855 95.4287 212.78 95.1495C211.961 92.1726 209.213 90.0461 205.991 90.2047C205.07 90.2478 204.191 90.5483 203.371 91.0068C204.004 90.3028 204.48 89.517 204.732 88.6176C205.605 85.4999 204.178 82.3165 201.479 80.8367C201.222 80.7013 200.9 80.7546 200.69 80.9551C200.69 80.9551 199.878 81.7516 199.698 81.9347C199.609 82.0263 199.446 81.9684 199.421 81.8713C199.36 81.6347 199.085 80.5127 199.085 80.5127C199.009 80.2335 198.764 80.0109 198.482 80.0108C195.416 79.8892 192.526 81.8829 191.653 85.0007C191.401 85.9 191.413 86.8203 191.577 87.7438C191.113 86.9313 190.525 86.2397 189.758 85.7313C187.08 83.9472 183.62 84.3629 181.371 86.4943C181.161 86.6948 181.11 87.0165 181.239 87.2847C181.239 87.2847 181.736 88.3001 181.853 88.5258C181.912 88.6327 181.806 88.7842 181.692 88.7787C181.453 88.7644 180.307 88.694 180.307 88.694C180.016 88.6786 179.739 88.8474 179.637 89.1167C178.555 92.0217 179.525 95.376 182.202 97.16C182.981 97.6718 183.851 97.9503 184.795 98.0554C183.869 98.2523 183.001 98.6073 182.273 99.1945C179.748 101.211 179.042 104.646 180.346 107.447C180.464 107.712 180.757 107.857 181.052 107.809C181.052 107.809 182.163 107.638 182.419 107.592C182.54 107.574 182.644 107.706 182.602 107.81C182.514 108.031 182.083 109.114 182.083 109.114C181.982 109.383 182.044 109.71 182.275 109.89C184.688 111.795 188.163 111.875 190.688 109.858C191.416 109.27 191.945 108.525 192.352 107.668C192.254 108.61 192.317 109.532 192.639 110.395C193.753 113.415 196.771 115.125 199.829 114.728C200.121 114.692 200.341 114.455 200.398 114.161C200.398 114.161 200.584 113.037 200.628 112.79C200.649 112.667 200.807 112.607 200.901 112.685C201.088 112.84 201.971 113.574 201.971 113.574C202.187 113.763 202.525 113.791 202.764 113.625C205.337 111.892 206.518 108.588 205.404 105.569C205.086 104.693 204.523 103.957 203.835 103.302C204.699 103.695 205.589 103.902 206.522 103.862Z" fill="url(#paint56_radial_510_27209)"/>
<path d="M206.522 103.862C209.729 103.712 212.303 101.334 212.901 98.2831C212.955 98.0007 212.808 97.7019 212.548 97.5786C212.548 97.5786 211.553 97.0591 211.329 96.9455C211.216 96.8888 211.213 96.7198 211.307 96.6555C211.509 96.5302 212.481 95.894 212.481 95.894C212.729 95.7426 212.855 95.4287 212.78 95.1495C211.961 92.1726 209.213 90.0461 205.991 90.2047C205.07 90.2478 204.191 90.5483 203.371 91.0068C204.004 90.3028 204.48 89.517 204.732 88.6176C205.605 85.4999 204.178 82.3165 201.479 80.8367C201.222 80.7013 200.9 80.7546 200.69 80.9551C200.69 80.9551 199.878 81.7516 199.698 81.9347C199.609 82.0263 199.446 81.9684 199.421 81.8713C199.36 81.6347 199.085 80.5127 199.085 80.5127C199.009 80.2335 198.764 80.0109 198.482 80.0108C195.416 79.8892 192.526 81.8829 191.653 85.0007C191.401 85.9 191.413 86.8203 191.577 87.7438C191.113 86.9313 190.525 86.2397 189.758 85.7313C187.08 83.9472 183.62 84.3629 181.371 86.4943C181.161 86.6948 181.11 87.0165 181.239 87.2847C181.239 87.2847 181.736 88.3001 181.853 88.5258C181.912 88.6327 181.806 88.7842 181.692 88.7787C181.453 88.7644 180.307 88.694 180.307 88.694C180.016 88.6786 179.739 88.8474 179.637 89.1167C178.555 92.0217 179.525 95.376 182.202 97.16C182.981 97.6718 183.851 97.9503 184.795 98.0554C183.869 98.2523 183.001 98.6073 182.273 99.1945C179.748 101.211 179.042 104.646 180.346 107.447C180.464 107.712 180.757 107.857 181.052 107.809C181.052 107.809 182.163 107.638 182.419 107.592C182.54 107.574 182.644 107.706 182.602 107.81C182.514 108.031 182.083 109.114 182.083 109.114C181.982 109.383 182.044 109.71 182.275 109.89C184.688 111.795 188.163 111.875 190.688 109.858C191.416 109.27 191.945 108.525 192.352 107.668C192.254 108.61 192.317 109.532 192.639 110.395C193.753 113.415 196.771 115.125 199.829 114.728C200.121 114.692 200.341 114.455 200.398 114.161C200.398 114.161 200.584 113.037 200.628 112.79C200.649 112.667 200.807 112.607 200.901 112.685C201.088 112.84 201.971 113.574 201.971 113.574C202.187 113.763 202.525 113.791 202.764 113.625C205.337 111.892 206.518 108.588 205.404 105.569C205.086 104.693 204.523 103.957 203.835 103.302C204.699 103.695 205.589 103.902 206.522 103.862Z" fill="url(#paint57_radial_510_27209)"/>
<path d="M206.522 103.862C209.729 103.712 212.303 101.334 212.901 98.2831C212.955 98.0007 212.808 97.7019 212.548 97.5786C212.548 97.5786 211.553 97.0591 211.329 96.9455C211.216 96.8888 211.213 96.7198 211.307 96.6555C211.509 96.5302 212.481 95.894 212.481 95.894C212.729 95.7426 212.855 95.4287 212.78 95.1495C211.961 92.1726 209.213 90.0461 205.991 90.2047C205.07 90.2478 204.191 90.5483 203.371 91.0068C204.004 90.3028 204.48 89.517 204.732 88.6176C205.605 85.4999 204.178 82.3165 201.479 80.8367C201.222 80.7013 200.9 80.7546 200.69 80.9551C200.69 80.9551 199.878 81.7516 199.698 81.9347C199.609 82.0263 199.446 81.9684 199.421 81.8713C199.36 81.6347 199.085 80.5127 199.085 80.5127C199.009 80.2335 198.764 80.0109 198.482 80.0108C195.416 79.8892 192.526 81.8829 191.653 85.0007C191.401 85.9 191.413 86.8203 191.577 87.7438C191.113 86.9313 190.525 86.2397 189.758 85.7313C187.08 83.9472 183.62 84.3629 181.371 86.4943C181.161 86.6948 181.11 87.0165 181.239 87.2847C181.239 87.2847 181.736 88.3001 181.853 88.5258C181.912 88.6327 181.806 88.7842 181.692 88.7787C181.453 88.7644 180.307 88.694 180.307 88.694C180.016 88.6786 179.739 88.8474 179.637 89.1167C178.555 92.0217 179.525 95.376 182.202 97.16C182.981 97.6718 183.851 97.9503 184.795 98.0554C183.869 98.2523 183.001 98.6073 182.273 99.1945C179.748 101.211 179.042 104.646 180.346 107.447C180.464 107.712 180.757 107.857 181.052 107.809C181.052 107.809 182.163 107.638 182.419 107.592C182.54 107.574 182.644 107.706 182.602 107.81C182.514 108.031 182.083 109.114 182.083 109.114C181.982 109.383 182.044 109.71 182.275 109.89C184.688 111.795 188.163 111.875 190.688 109.858C191.416 109.27 191.945 108.525 192.352 107.668C192.254 108.61 192.317 109.532 192.639 110.395C193.753 113.415 196.771 115.125 199.829 114.728C200.121 114.692 200.341 114.455 200.398 114.161C200.398 114.161 200.584 113.037 200.628 112.79C200.649 112.667 200.807 112.607 200.901 112.685C201.088 112.84 201.971 113.574 201.971 113.574C202.187 113.763 202.525 113.791 202.764 113.625C205.337 111.892 206.518 108.588 205.404 105.569C205.086 104.693 204.523 103.957 203.835 103.302C204.699 103.695 205.589 103.902 206.522 103.862Z" fill="url(#paint58_radial_510_27209)"/>
<path fill-rule="evenodd" clip-rule="evenodd" d="M195.214 97.5407L196.923 91.4373L198.111 91.7648L196.402 97.8682L195.214 97.5407Z" fill="#EDD1F8"/>
<path fill-rule="evenodd" clip-rule="evenodd" d="M195.784 97.0842L202.06 96.7852L202.108 98.0259L195.832 98.3249L195.784 97.0842Z" fill="#F0D6F8"/>
<path fill-rule="evenodd" clip-rule="evenodd" d="M196.388 97.4857L198.554 103.405L197.395 103.843L195.229 97.9234L196.388 97.4857Z" fill="#E8C7F7"/>
<path fill-rule="evenodd" clip-rule="evenodd" d="M196.19 98.1892L191.244 102.149L190.48 101.179L195.427 97.2198L196.19 98.1892Z" fill="#E5C1F6"/>
<path fill-rule="evenodd" clip-rule="evenodd" d="M195.465 98.224L190.231 94.7532L190.916 93.7143L196.151 97.1852L195.465 98.224Z" fill="#E5C1F6"/>
<path d="M197.144 92.9369C197.875 93.1385 198.636 92.704 198.842 91.9664C199.049 91.2288 198.623 90.4675 197.892 90.2659C197.16 90.0643 196.4 90.4988 196.193 91.2364C195.987 91.974 196.412 92.7354 197.144 92.9369Z" fill="url(#paint59_radial_510_27209)"/>
<path d="M201.711 98.7409C202.442 98.9425 203.203 98.508 203.409 97.7704C203.616 97.0328 203.19 96.2714 202.459 96.0698C201.727 95.8682 200.967 96.3028 200.76 97.0404C200.554 97.778 200.979 98.5393 201.711 98.7409Z" fill="url(#paint60_radial_510_27209)"/>
<path d="M197.6 104.96C198.332 105.161 199.092 104.727 199.299 103.989C199.505 103.252 199.08 102.49 198.348 102.289C197.617 102.087 196.856 102.522 196.65 103.259C196.443 103.997 196.869 104.758 197.6 104.96Z" fill="url(#paint61_radial_510_27209)"/>
<path d="M190.488 102.999C191.219 103.201 191.98 102.766 192.186 102.029C192.393 101.291 191.967 100.53 191.236 100.328C190.504 100.127 189.744 100.561 189.537 101.299C189.331 102.036 189.756 102.798 190.488 102.999Z" fill="url(#paint62_radial_510_27209)"/>
<path d="M190.2 95.5693C190.932 95.7708 191.692 95.3363 191.899 94.5987C192.105 93.8611 191.68 93.0998 190.948 92.8982C190.217 92.6966 189.456 93.1311 189.25 93.8687C189.043 94.6063 189.469 95.3677 190.2 95.5693Z" fill="url(#paint63_radial_510_27209)"/>
<path d="M194.885 101.003C196.692 101.501 198.57 100.428 199.081 98.606C199.591 96.7841 198.54 94.9036 196.733 94.4057C194.926 93.9078 193.048 94.9811 192.537 96.8029C192.027 98.6248 193.078 100.505 194.885 101.003Z" fill="url(#paint64_radial_510_27209)"/>
<defs>
<radialGradient id="paint0_radial_510_27209" cx="0" cy="0" r="1" gradientUnits="userSpaceOnUse" gradientTransform="translate(125.966 67.7011) scale(54.034 130.3)">
<stop stop-color="#9EA7CB"/>
<stop offset="1" stop-color="#2A75AB"/>
</radialGradient>
<radialGradient id="paint1_radial_510_27209" cx="0" cy="0" r="1" gradientUnits="userSpaceOnUse" gradientTransform="translate(125.966 67.7011) scale(54.034 130.3)">
<stop stop-color="#5465AB"/>
<stop offset="1" stop-color="#075F9E"/>
</radialGradient>
<linearGradient id="paint2_linear_510_27209" x1="64.2667" y1="26.001" x2="124.934" y2="70.0701" gradientUnits="userSpaceOnUse">
<stop offset="0.0366601" stop-color="#BECCFD"/>
<stop offset="0.638507" stop-color="#BECCFD" stop-opacity="0"/>
</linearGradient>
<radialGradient id="paint3_radial_510_27209" cx="0" cy="0" r="1" gradientUnits="userSpaceOnUse" gradientTransform="translate(109.067 80.001) rotate(-76.866) scale(49.2893 27.8129)">
<stop stop-color="#53649F"/>
<stop offset="1" stop-color="#53649F" stop-opacity="0"/>
</radialGradient>
<radialGradient id="paint4_radial_510_27209" cx="0" cy="0" r="1" gradientUnits="userSpaceOnUse" gradientTransform="translate(176.267 56.001) rotate(41.5118) scale(57.3347 25.1343)">
<stop stop-color="#BECCFD"/>
<stop offset="0.981297" stop-color="#88A1D2" stop-opacity="0"/>
</radialGradient>
<radialGradient id="paint5_radial_510_27209" cx="0" cy="0" r="1" gradientUnits="userSpaceOnUse" gradientTransform="translate(134 50) rotate(101.634) scale(69.4262 16.7978)">
<stop stop-color="#BEE2FD" stop-opacity="0.66"/>
<stop offset="0.981297" stop-color="#BEDBFD" stop-opacity="0"/>
</radialGradient>
<radialGradient id="paint6_radial_510_27209" cx="0" cy="0" r="1" gradientUnits="userSpaceOnUse" gradientTransform="translate(207.274 103.063) rotate(-140.364) scale(86.3169 38.5804)">
<stop stop-color="#E2DEE7" stop-opacity="0.66"/>
<stop offset="1" stop-color="#E2DEE7" stop-opacity="0"/>
</radialGradient>
<radialGradient id="paint7_radial_510_27209" cx="0" cy="0" r="1" gradientUnits="userSpaceOnUse" gradientTransform="translate(50.2665 104) rotate(-47.6425) scale(92.0217 28.5367)">
<stop stop-color="#E2DEE7" stop-opacity="0.7"/>
<stop offset="1" stop-color="#E2DEE7" stop-opacity="0"/>
</radialGradient>
<linearGradient id="paint8_linear_510_27209" x1="160.359" y1="68.9671" x2="137.741" y2="-2.24772" gradientUnits="userSpaceOnUse">
<stop stop-color="#BBA5C6"/>
<stop offset="1" stop-color="#C6A8A5"/>
</linearGradient>
<radialGradient id="paint9_radial_510_27209" cx="0" cy="0" r="1" gradientUnits="userSpaceOnUse" gradientTransform="translate(124.557 43.6588) rotate(-90) scale(34.1542 68.0896)">
<stop offset="0.64137" stop-color="#B3B2DB" stop-opacity="0"/>
<stop offset="1" stop-color="#8E8CCB"/>
</radialGradient>
<radialGradient id="paint10_radial_510_27209" cx="0" cy="0" r="1" gradientUnits="userSpaceOnUse" gradientTransform="translate(168.208 61.9991) rotate(-26.6386) scale(45.8566 36.7558)">
<stop stop-color="#8E8CCB"/>
<stop offset="1" stop-color="#B3B2DB" stop-opacity="0"/>
</radialGradient>
<radialGradient id="paint11_radial_510_27209" cx="0" cy="0" r="1" gradientUnits="userSpaceOnUse" gradientTransform="translate(144.533 68) rotate(-118.072) scale(31.7333 16.25)">
<stop stop-color="#5C6FA6" stop-opacity="0.55"/>
<stop offset="1" stop-color="#8E8CCB" stop-opacity="0"/>
</radialGradient>
<radialGradient id="paint12_radial_510_27209" cx="0" cy="0" r="1" gradientUnits="userSpaceOnUse" gradientTransform="translate(124 68) rotate(-78.6901) scale(28.5545 14.2388)">
<stop stop-color="#5C6FA6" stop-opacity="0.55"/>
<stop offset="1" stop-color="#8E8CCB" stop-opacity="0"/>
</radialGradient>
<radialGradient id="paint13_radial_510_27209" cx="0" cy="0" r="1" gradientUnits="userSpaceOnUse" gradientTransform="translate(88.8221 68.9671) rotate(-53.7446) scale(49.1239 11.2577)">
<stop stop-color="#FFF7E4"/>
<stop offset="1" stop-color="#FFF7E4" stop-opacity="0"/>
</radialGradient>
<radialGradient id="paint14_radial_510_27209" cx="0" cy="0" r="1" gradientUnits="userSpaceOnUse" gradientTransform="translate(155.733 68) rotate(-124.992) scale(19.5305 9.89223)">
<stop stop-color="#FFF7E4" stop-opacity="0.77"/>
<stop offset="1" stop-color="#FFF7E4" stop-opacity="0"/>
</radialGradient>
<radialGradient id="paint15_radial_510_27209" cx="0" cy="0" r="1" gradientUnits="userSpaceOnUse" gradientTransform="translate(133.333 66) rotate(-82.4054) scale(28.2478 13.6789)">
<stop offset="0.23875" stop-color="#FFF7E4" stop-opacity="0.77"/>
<stop offset="1" stop-color="#FFF7E4" stop-opacity="0"/>
</radialGradient>
<radialGradient id="paint16_radial_510_27209" cx="0" cy="0" r="1" gradientUnits="userSpaceOnUse" gradientTransform="translate(125.867 18) rotate(180) scale(44.8 36.4)">
<stop stop-color="#FFEEEB"/>
<stop offset="1" stop-color="#FFEEEB" stop-opacity="0"/>
</radialGradient>
<linearGradient id="paint17_linear_510_27209" x1="235.472" y1="117.452" x2="37.442" y2="73.3575" gradientUnits="userSpaceOnUse">
<stop stop-color="#43882B"/>
<stop offset="0.826724" stop-color="#759069"/>
<stop offset="1" stop-color="#70975D"/>
</linearGradient>
<radialGradient id="paint18_radial_510_27209" cx="0" cy="0" r="1" gradientUnits="userSpaceOnUse" gradientTransform="translate(72 82) rotate(79.5085) scale(54.9181 636.707)">
<stop stop-color="#FFE55D" stop-opacity="0.88"/>
<stop offset="1" stop-color="#FFE144" stop-opacity="0"/>
</radialGradient>
<linearGradient id="paint19_linear_510_27209" x1="220.193" y1="101.632" x2="210.29" y2="84.0669" gradientUnits="userSpaceOnUse">
<stop stop-color="#61443E"/>
<stop offset="1" stop-color="#A97253"/>
</linearGradient>
<linearGradient id="paint20_linear_510_27209" x1="220.193" y1="101.632" x2="210.29" y2="84.0669" gradientUnits="userSpaceOnUse">
<stop stop-color="#61443E"/>
<stop offset="1" stop-color="#F0C9B3"/>
</linearGradient>
<radialGradient id="paint21_radial_510_27209" cx="0" cy="0" r="1" gradientUnits="userSpaceOnUse" gradientTransform="translate(229.479 87.3645) rotate(120.394) scale(15.5542 13.1195)">
<stop stop-color="#E7A600"/>
<stop offset="1" stop-color="#E7A600" stop-opacity="0"/>
</radialGradient>
<linearGradient id="paint22_linear_510_27209" x1="216.344" y1="105.807" x2="221.493" y2="84.7974" gradientUnits="userSpaceOnUse">
<stop stop-color="#61443E"/>
<stop offset="1" stop-color="#A97253"/>
</linearGradient>
<linearGradient id="paint23_linear_510_27209" x1="216.344" y1="105.807" x2="221.493" y2="84.7974" gradientUnits="userSpaceOnUse">
<stop stop-color="#61443E"/>
<stop offset="1" stop-color="#E9AF91"/>
</linearGradient>
<radialGradient id="paint24_radial_510_27209" cx="0" cy="0" r="1" gradientUnits="userSpaceOnUse" gradientTransform="translate(233.655 93.3926) rotate(86.931) scale(6.6703 21.321)">
<stop stop-color="#E7A600"/>
<stop offset="1" stop-color="#E7A600" stop-opacity="0"/>
</radialGradient>
<radialGradient id="paint25_radial_510_27209" cx="0" cy="0" r="1" gradientUnits="userSpaceOnUse" gradientTransform="translate(215.935 80.4588) rotate(-99.0458) scale(28.5337 26.134)">
<stop offset="0.0729167" stop-color="#FF7890"/>
<stop offset="0.854167" stop-color="#FFE6EC"/>
</radialGradient>
<radialGradient id="paint26_radial_510_27209" cx="0" cy="0" r="1" gradientUnits="userSpaceOnUse" gradientTransform="translate(215.257 70.7903) rotate(8.80789) scale(9.29816 23.2397)">
<stop stop-color="#F27474"/>
<stop offset="1" stop-color="#D44040" stop-opacity="0"/>
</radialGradient>
<radialGradient id="paint27_radial_510_27209" cx="0" cy="0" r="1" gradientUnits="userSpaceOnUse" gradientTransform="translate(217.876 66.76) rotate(-65.6868) scale(19.8409 16.9339)">
<stop stop-color="#F96BC3" stop-opacity="0"/>
<stop offset="0.526982" stop-color="#F96BC3" stop-opacity="0"/>
<stop offset="1" stop-color="#F88ED0"/>
</radialGradient>
<radialGradient id="paint28_radial_510_27209" cx="0" cy="0" r="1" gradientUnits="userSpaceOnUse" gradientTransform="translate(206.367 73.4854) rotate(-73.8415) scale(22.0019 20.1622)">
<stop offset="0.0729167" stop-color="#F27474"/>
<stop offset="0.854167" stop-color="#FBEFF2"/>
</radialGradient>
<radialGradient id="paint29_radial_510_27209" cx="0" cy="0" r="1" gradientUnits="userSpaceOnUse" gradientTransform="translate(210.586 68.049) rotate(-131.234) scale(19.9098 16.8753)">
<stop stop-color="#F96BC3" stop-opacity="0"/>
<stop offset="0.526982" stop-color="#F96BC3" stop-opacity="0"/>
<stop offset="1" stop-color="#F96BC3"/>
</radialGradient>
<radialGradient id="paint30_radial_510_27209" cx="0" cy="0" r="1" gradientUnits="userSpaceOnUse" gradientTransform="translate(221.02 70.7959) rotate(-176.342) scale(15.5626 10.3783)">
<stop offset="0.123544" stop-color="#BAE0AF"/>
<stop offset="1" stop-color="#3F9E28"/>
</radialGradient>
<radialGradient id="paint31_radial_510_27209" cx="0" cy="0" r="1" gradientUnits="userSpaceOnUse" gradientTransform="translate(161.323 65.8634) rotate(15.4065) scale(23.1236 22.9654)">
<stop offset="0.0729167" stop-color="#FD4D6D"/>
<stop offset="0.854167" stop-color="#FFE6EC"/>
</radialGradient>
<radialGradient id="paint32_radial_510_27209" cx="0" cy="0" r="1" gradientUnits="userSpaceOnUse" gradientTransform="translate(161.62 66.2757) rotate(-73.9454) scale(28.145 29.3587)">
<stop stop-color="#F96BC3" stop-opacity="0"/>
<stop offset="0.685736" stop-color="#F96BC3" stop-opacity="0"/>
<stop offset="1" stop-color="#F96BC3" stop-opacity="0.7"/>
</radialGradient>
<radialGradient id="paint33_radial_510_27209" cx="0" cy="0" r="1" gradientUnits="userSpaceOnUse" gradientTransform="translate(184.254 65.0497) rotate(177.747) scale(2.30099 0.891381)">
<stop stop-color="#FFA2B7"/>
<stop offset="1" stop-color="#FFA2B7" stop-opacity="0"/>
</radialGradient>
<radialGradient id="paint34_radial_510_27209" cx="0" cy="0" r="1" gradientUnits="userSpaceOnUse" gradientTransform="translate(159.965 60.8627) rotate(-113.718) scale(22.0796 4.57109)">
<stop stop-color="#FD7A88"/>
<stop offset="1" stop-color="#FD7A88" stop-opacity="0"/>
</radialGradient>
<radialGradient id="paint35_radial_510_27209" cx="0" cy="0" r="1" gradientUnits="userSpaceOnUse" gradientTransform="translate(164.135 63.0143) rotate(-30.3711) scale(21.9537 4.50286)">
<stop stop-color="#FD7A88"/>
<stop offset="1" stop-color="#FD7A88" stop-opacity="0"/>
</radialGradient>
<radialGradient id="paint36_radial_510_27209" cx="0" cy="0" r="1" gradientUnits="userSpaceOnUse" gradientTransform="translate(165.002 67.1) rotate(39.5185) scale(17.0871 3.51308)">
<stop stop-color="#FD7A88"/>
<stop offset="1" stop-color="#FD7A88" stop-opacity="0"/>
</radialGradient>
<radialGradient id="paint37_radial_510_27209" cx="0" cy="0" r="1" gradientUnits="userSpaceOnUse" gradientTransform="translate(161.344 67.9302) rotate(107.755) scale(15.6923 3.25231)">
<stop stop-color="#FD7A88"/>
<stop offset="1" stop-color="#FD7A88" stop-opacity="0"/>
</radialGradient>
<radialGradient id="paint38_radial_510_27209" cx="0" cy="0" r="1" gradientUnits="userSpaceOnUse" gradientTransform="translate(159.401 65.4453) rotate(175.88) scale(17.3497 3.54421)">
<stop stop-color="#FD7A88"/>
<stop offset="1" stop-color="#FD7A88" stop-opacity="0"/>
</radialGradient>
<radialGradient id="paint39_radial_510_27209" cx="0" cy="0" r="1" gradientUnits="userSpaceOnUse" gradientTransform="translate(141.257 64.6783) rotate(-59.856) scale(3.88657 9.62383)">
<stop stop-color="#FF689A"/>
<stop offset="1" stop-color="#FF689A" stop-opacity="0"/>
</radialGradient>
<radialGradient id="paint40_radial_510_27209" cx="0" cy="0" r="1" gradientUnits="userSpaceOnUse" gradientTransform="translate(177.581 75.9133) rotate(-89.3289) scale(5.44114 13.5646)">
<stop stop-color="#FF689A"/>
<stop offset="1" stop-color="#FF689A" stop-opacity="0"/>
</radialGradient>
<radialGradient id="paint41_radial_510_27209" cx="0" cy="0" r="1" gradientUnits="userSpaceOnUse" gradientTransform="translate(161.62 64.8011) rotate(105.643) scale(23.2248 24.2278)">
<stop stop-color="#FF5466"/>
<stop offset="0.473958" stop-color="#FF5466" stop-opacity="0"/>
</radialGradient>
<radialGradient id="paint42_radial_510_27209" cx="0" cy="0" r="1" gradientUnits="userSpaceOnUse" gradientTransform="translate(165.274 57.611) rotate(147.666) scale(2.38368 2.18401)">
<stop stop-color="#F3DCF8"/>
<stop offset="1" stop-color="#E2C3EC"/>
</radialGradient>
<radialGradient id="paint43_radial_510_27209" cx="0" cy="0" r="1" gradientUnits="userSpaceOnUse" gradientTransform="translate(171.834 66.1846) rotate(160.8) scale(2.26855 2.07258)">
<stop stop-color="#F3DCF8"/>
<stop offset="1" stop-color="#E2C3EC"/>
</radialGradient>
<radialGradient id="paint44_radial_510_27209" cx="0" cy="0" r="1" gradientUnits="userSpaceOnUse" gradientTransform="translate(165.907 74.6954) rotate(152.111) scale(1.70264 1.55833)">
<stop stop-color="#F3DCF8"/>
<stop offset="1" stop-color="#DFB6F4"/>
</radialGradient>
<radialGradient id="paint45_radial_510_27209" cx="0" cy="0" r="1" gradientUnits="userSpaceOnUse" gradientTransform="translate(155.933 71.9466) rotate(152.111) scale(1.70264 1.55833)">
<stop stop-color="#F3DCF8"/>
<stop offset="1" stop-color="#DFB6F4"/>
</radialGradient>
<radialGradient id="paint46_radial_510_27209" cx="0" cy="0" r="1" gradientUnits="userSpaceOnUse" gradientTransform="translate(155.562 61.2077) rotate(147.666) scale(2.38368 2.18401)">
<stop stop-color="#F3DCF8"/>
<stop offset="1" stop-color="#DFB6F4"/>
</radialGradient>
<radialGradient id="paint47_radial_510_27209" cx="0" cy="0" r="1" gradientUnits="userSpaceOnUse" gradientTransform="translate(165.146 65.0585) rotate(140.625) scale(9.66266 10.4573)">
<stop stop-color="#F3DCF8"/>
<stop offset="1" stop-color="#DFB6F4"/>
</radialGradient>
<radialGradient id="paint48_radial_510_27209" cx="0" cy="0" r="1" gradientUnits="userSpaceOnUse" gradientTransform="translate(195.237 97.3843) rotate(15.4065) scale(16.4876 16.6434)">
<stop offset="0.0729167" stop-color="#FD4D6D"/>
<stop offset="0.854167" stop-color="#FFE6EC"/>
</radialGradient>
<radialGradient id="paint49_radial_510_27209" cx="0" cy="0" r="1" gradientUnits="userSpaceOnUse" gradientTransform="translate(195.448 97.6819) rotate(-73.9521) scale(20.3971 20.9333)">
<stop stop-color="#F96BC3" stop-opacity="0"/>
<stop offset="0.685736" stop-color="#F96BC3" stop-opacity="0"/>
<stop offset="1" stop-color="#F96BC3" stop-opacity="0.7"/>
</radialGradient>
<radialGradient id="paint50_radial_510_27209" cx="0" cy="0" r="1" gradientUnits="userSpaceOnUse" gradientTransform="translate(211.609 96.7267) rotate(177.476) scale(1.64317 0.645005)">
<stop stop-color="#FFA2B7"/>
<stop offset="1" stop-color="#FFA2B7" stop-opacity="0"/>
</radialGradient>
<radialGradient id="paint51_radial_510_27209" cx="0" cy="0" r="1" gradientUnits="userSpaceOnUse" gradientTransform="translate(194.283 93.7685) rotate(-113.26) scale(15.8986 3.28036)">
<stop stop-color="#FD7A88"/>
<stop offset="1" stop-color="#FD7A88" stop-opacity="0"/>
</radialGradient>
<radialGradient id="paint52_radial_510_27209" cx="0" cy="0" r="1" gradientUnits="userSpaceOnUse" gradientTransform="translate(197.253 95.3136) rotate(-30.835) scale(15.7864 3.23581)">
<stop stop-color="#FD7A88"/>
<stop offset="1" stop-color="#FD7A88" stop-opacity="0"/>
</radialGradient>
<radialGradient id="paint53_radial_510_27209" cx="0" cy="0" r="1" gradientUnits="userSpaceOnUse" gradientTransform="translate(197.859 98.2685) rotate(39.8687) scale(12.2167 2.53905)">
<stop stop-color="#FD7A88"/>
<stop offset="1" stop-color="#FD7A88" stop-opacity="0"/>
</radialGradient>
<radialGradient id="paint54_radial_510_27209" cx="0" cy="0" r="1" gradientUnits="userSpaceOnUse" gradientTransform="translate(195.246 98.8804) rotate(107.721) scale(11.3722 2.31901)">
<stop stop-color="#FD7A88"/>
<stop offset="1" stop-color="#FD7A88" stop-opacity="0"/>
</radialGradient>
<radialGradient id="paint55_radial_510_27209" cx="0" cy="0" r="1" gradientUnits="userSpaceOnUse" gradientTransform="translate(193.866 97.0875) rotate(175.584) scale(12.3938 2.56376)">
<stop stop-color="#FD7A88"/>
<stop offset="1" stop-color="#FD7A88" stop-opacity="0"/>
</radialGradient>
<radialGradient id="paint56_radial_510_27209" cx="0" cy="0" r="1" gradientUnits="userSpaceOnUse" gradientTransform="translate(180.916 96.5865) rotate(-60.0802) scale(2.81379 6.86897)">
<stop stop-color="#FF689A"/>
<stop offset="1" stop-color="#FF689A" stop-opacity="0"/>
</radialGradient>
<radialGradient id="paint57_radial_510_27209" cx="0" cy="0" r="1" gradientUnits="userSpaceOnUse" gradientTransform="translate(206.812 104.611) rotate(-89.0976) scale(3.93914 9.68197)">
<stop stop-color="#FF689A"/>
<stop offset="1" stop-color="#FF689A" stop-opacity="0"/>
</radialGradient>
<radialGradient id="paint58_radial_510_27209" cx="0" cy="0" r="1" gradientUnits="userSpaceOnUse" gradientTransform="translate(195.452 96.6145) rotate(105.643) scale(16.8314 17.2749)">
<stop stop-color="#FF5466"/>
<stop offset="0.473958" stop-color="#FF5466" stop-opacity="0"/>
</radialGradient>
<radialGradient id="paint59_radial_510_27209" cx="0" cy="0" r="1" gradientUnits="userSpaceOnUse" gradientTransform="translate(198.082 91.3993) rotate(147.204) scale(1.715 1.56859)">
<stop stop-color="#F3DCF8"/>
<stop offset="1" stop-color="#E2C3EC"/>
</radialGradient>
<radialGradient id="paint60_radial_510_27209" cx="0" cy="0" r="1" gradientUnits="userSpaceOnUse" gradientTransform="translate(202.739 97.5857) rotate(160.364) scale(1.62617 1.49404)">
<stop stop-color="#F3DCF8"/>
<stop offset="1" stop-color="#E2C3EC"/>
</radialGradient>
<radialGradient id="paint61_radial_510_27209" cx="0" cy="0" r="1" gradientUnits="userSpaceOnUse" gradientTransform="translate(198.482 103.764) rotate(151.648) scale(1.22346 1.12063)">
<stop stop-color="#F3DCF8"/>
<stop offset="1" stop-color="#DFB6F4"/>
</radialGradient>
<radialGradient id="paint62_radial_510_27209" cx="0" cy="0" r="1" gradientUnits="userSpaceOnUse" gradientTransform="translate(191.37 101.804) rotate(151.647) scale(1.22346 1.12063)">
<stop stop-color="#F3DCF8"/>
<stop offset="1" stop-color="#DFB6F4"/>
</radialGradient>
<radialGradient id="paint63_radial_510_27209" cx="0" cy="0" r="1" gradientUnits="userSpaceOnUse" gradientTransform="translate(191.139 94.0316) rotate(147.204) scale(1.715 1.56859)">
<stop stop-color="#F3DCF8"/>
<stop offset="1" stop-color="#DFB6F4"/>
</radialGradient>
<radialGradient id="paint64_radial_510_27209" cx="0" cy="0" r="1" gradientUnits="userSpaceOnUse" gradientTransform="translate(197.968 96.7901) rotate(140.189) scale(6.96552 7.49606)">
<stop stop-color="#F3DCF8"/>
<stop offset="1" stop-color="#DFB6F4"/>
</radialGradient>
</defs>
</svg>
