<svg viewBox="0 0 240 120" fill="none" xmlns="http://www.w3.org/2000/svg">
<path d="M120.987 5.76929C6.58784 5.76929 13.6428 51.8908 13.6428 118.598H226.362C226.362 54.811 235.386 5.76929 120.987 5.76929Z" fill="url(#paint0_radial_10033_34034)"/>
<path d="M120.987 5.76929C6.58784 5.76929 13.6428 51.8908 13.6428 118.598H226.362C226.362 54.811 235.386 5.76929 120.987 5.76929Z" fill="url(#paint1_radial_10033_34034)"/>
<path d="M40.3292 98.0769H199.094L234.375 114.523V120H5.0481V114.523L40.3292 98.0769Z" fill="url(#paint2_linear_10033_34034)"/>
<path d="M194.023 109.629C193.645 113.613 177.774 113.115 169.007 109.629L170.897 105.644C178.731 105.644 194.325 106.441 194.023 109.629Z" fill="url(#paint3_radial_10033_34034)"/>
<path d="M200.467 102.573C202.839 102.573 205.921 102.618 209.058 102.722L216.635 106.251C211.176 106.408 203.673 105.864 198.574 104.754L200.467 102.573Z" fill="url(#paint4_radial_10033_34034)"/>
<path d="M203.349 110.978C202.971 114.774 187.101 114.299 178.334 110.978L180.223 107.182C188.058 107.182 203.652 107.941 203.349 110.978Z" fill="url(#paint5_radial_10033_34034)"/>
<path d="M205.849 104.02C207.627 104.02 209.804 104.06 212.105 104.141L223.305 109.361C217.793 109.797 209.469 108.992 203.956 107.229L205.849 104.02Z" fill="url(#paint6_radial_10033_34034)"/>
<path d="M115.541 106.489C115.134 108.839 98.0243 108.546 88.5735 106.489L90.6103 104.139C99.0563 104.139 115.867 104.609 115.541 106.489Z" fill="url(#paint7_radial_10033_34034)"/>
<path d="M155.535 105.942C155.128 108.292 138.018 107.998 128.568 105.942L130.604 103.592C139.05 103.592 155.861 104.062 155.535 105.942Z" fill="url(#paint8_radial_10033_34034)"/>
<path d="M123.606 106.489C123.199 108.839 106.09 108.546 96.639 106.489L98.6759 104.139C107.122 104.139 123.932 104.609 123.606 106.489Z" fill="url(#paint9_radial_10033_34034)"/>
<path d="M163.689 106.489C163.281 108.839 146.172 108.546 136.721 106.489L138.758 104.139C147.204 104.139 164.015 104.609 163.689 106.489Z" fill="url(#paint10_radial_10033_34034)"/>
<path d="M60.7273 106.238C60.3751 108.27 45.5816 108.016 37.4099 106.238L39.171 104.206C46.4739 104.206 61.0091 104.613 60.7273 106.238Z" fill="url(#paint11_radial_10033_34034)"/>
<path d="M93.0901 105.735C92.7379 107.767 77.9444 107.513 69.7727 105.735L71.5338 103.703C78.8367 103.703 93.3719 104.109 93.0901 105.735Z" fill="url(#paint12_radial_10033_34034)"/>
<path d="M62.9454 107.608C62.5932 109.64 47.7997 109.386 39.6281 107.608L41.3892 105.576C48.692 105.576 63.2272 105.982 62.9454 107.608Z" fill="url(#paint13_radial_10033_34034)"/>
<path d="M95.3082 107.105C94.956 109.137 80.1625 108.883 71.9908 107.105L73.752 105.073C81.0548 105.073 95.59 105.479 95.3082 107.105Z" fill="url(#paint14_radial_10033_34034)"/>
<path d="M87.1262 18.7848C87.1262 19.1524 89.2924 25.1377 89.2924 27.9713L83.8114 28.7261C83.4176 26.8224 86.1745 19.2771 86.2729 18.7848C86.3714 18.2925 87.1262 18.3253 87.1262 18.7848Z" fill="url(#paint15_linear_10033_34034)"/>
<path d="M89.9825 19.0151V27.9749L84.5016 28.7297C84.1078 26.8261 89.0308 19.5074 89.1292 19.0151C89.2277 18.5228 89.9825 18.5556 89.9825 19.0151Z" fill="url(#paint16_linear_10033_34034)"/>
<path d="M98.0403 87.3275C97.6944 86.5198 94.4275 75.7758 94.7734 70.862C95.7534 64.4002 85.1461 64.7366 85.7803 69.1792C86.4144 73.6217 92.0454 83.9619 92.449 86.5871C92.8525 89.2122 91.4689 98.2992 91.0077 99.982C90.5465 101.665 87.491 103.348 87.0298 106.579H92.794C92.7364 102.674 98.3862 88.1352 98.0403 87.3275Z" fill="url(#paint17_linear_10033_34034)"/>
<path d="M98.0403 87.3275C97.6944 86.5198 94.4275 75.7758 94.7734 70.862C95.7534 64.4002 85.1461 64.7366 85.7803 69.1792C86.4144 73.6217 92.0454 83.9619 92.449 86.5871C92.8525 89.2122 91.4689 98.2992 91.0077 99.982C90.5465 101.665 87.491 103.348 87.0298 106.579H92.794C92.7364 102.674 98.3862 88.1352 98.0403 87.3275Z" fill="url(#paint18_radial_10033_34034)"/>
<path d="M98.0403 87.3275C97.6944 86.5198 94.4275 75.7758 94.7734 70.862C95.7534 64.4002 85.1461 64.7366 85.7803 69.1792C86.4144 73.6217 92.0454 83.9619 92.449 86.5871C92.8525 89.2122 91.4689 98.2992 91.0077 99.982C90.5465 101.665 87.491 103.348 87.0298 106.579H92.794C92.7364 102.674 98.3862 88.1352 98.0403 87.3275Z" fill="url(#paint19_radial_10033_34034)"/>
<path d="M98.0403 87.3275C97.6944 86.5198 94.4275 75.7758 94.7734 70.862C95.7534 64.4002 85.1461 64.7366 85.7803 69.1792C86.4144 73.6217 92.0454 83.9619 92.449 86.5871C92.8525 89.2122 91.4689 98.2992 91.0077 99.982C90.5465 101.665 87.491 103.348 87.0298 106.579H92.794C92.7364 102.674 98.3862 88.1352 98.0403 87.3275Z" fill="url(#paint20_radial_10033_34034)"/>
<path d="M131.467 86.2684C131.139 84.842 121.227 78.6608 119.652 69.6268C123.852 67.9287 138.097 85.5891 137.112 87.491C136.127 89.3929 133.085 104.207 133.699 106.578H127.2C127.266 103.317 129.038 103.182 130.351 101.212C131.664 99.242 131.795 87.6948 131.467 86.2684Z" fill="url(#paint21_linear_10033_34034)"/>
<path d="M131.467 86.2684C131.139 84.842 121.227 78.6608 119.652 69.6268C123.852 67.9287 138.097 85.5891 137.112 87.491C136.127 89.3929 133.085 104.207 133.699 106.578H127.2C127.266 103.317 129.038 103.182 130.351 101.212C131.664 99.242 131.795 87.6948 131.467 86.2684Z" fill="url(#paint22_radial_10033_34034)"/>
<path d="M131.467 86.2684C131.139 84.842 121.227 78.6608 119.652 69.6268C123.852 67.9287 138.097 85.5891 137.112 87.491C136.127 89.3929 133.085 104.207 133.699 106.578H127.2C127.266 103.317 129.038 103.182 130.351 101.212C131.664 99.242 131.795 87.6948 131.467 86.2684Z" fill="url(#paint23_radial_10033_34034)"/>
<path d="M131.467 86.2684C131.139 84.842 121.227 78.6608 119.652 69.6268C123.852 67.9287 138.097 85.5891 137.112 87.491C136.127 89.3929 133.085 104.207 133.699 106.578H127.2C127.266 103.317 129.038 103.182 130.351 101.212C131.664 99.242 131.795 87.6948 131.467 86.2684Z" fill="url(#paint24_radial_10033_34034)"/>
<path d="M131.467 86.2684C131.139 84.842 121.227 78.6608 119.652 69.6268C123.852 67.9287 138.097 85.5891 137.112 87.491C136.127 89.3929 133.085 104.207 133.699 106.578H127.2C127.266 103.317 129.038 103.182 130.351 101.212C131.664 99.242 131.795 87.6948 131.467 86.2684Z" fill="url(#paint25_radial_10033_34034)"/>
<path d="M140.13 37.4595C134.156 69.6228 89.9808 61.4179 89.9808 27.7448C79.4782 27.2854 78.4941 36.2782 69.239 34.4401V35.359C69.6328 40.7415 78.9536 43.2358 83.1546 42.1856C71.3394 78.0248 102.059 78.9438 107.573 75.3993C110.526 70.4761 121.751 68.9666 123.72 73.2988C125.689 77.631 135.404 83.8011 136.323 85.9016C137.242 88.0021 138.161 99.4234 138.161 100.867C138.161 102.312 134.616 103.756 134.616 106.644H141.18C141.749 100.124 142.939 86.8468 143.149 85.9016C143.412 84.7201 139.342 80.6504 138.161 78.9438C136.979 77.2372 138.686 67.7193 133.566 60.5647C138.598 57.5015 144.659 47.5023 141.18 37.4595H140.13Z" fill="url(#paint26_linear_10033_34034)"/>
<path d="M140.13 37.4595C134.156 69.6228 89.9808 61.4179 89.9808 27.7448C79.4782 27.2854 78.4941 36.2782 69.239 34.4401V35.359C69.6328 40.7415 78.9536 43.2358 83.1546 42.1856C71.3394 78.0248 102.059 78.9438 107.573 75.3993C110.526 70.4761 121.751 68.9666 123.72 73.2988C125.689 77.631 135.404 83.8011 136.323 85.9016C137.242 88.0021 138.161 99.4234 138.161 100.867C138.161 102.312 134.616 103.756 134.616 106.644H141.18C141.749 100.124 142.939 86.8468 143.149 85.9016C143.412 84.7201 139.342 80.6504 138.161 78.9438C136.979 77.2372 138.686 67.7193 133.566 60.5647C138.598 57.5015 144.659 47.5023 141.18 37.4595H140.13Z" fill="url(#paint27_radial_10033_34034)"/>
<path d="M140.13 37.4595C134.156 69.6228 89.9808 61.4179 89.9808 27.7448C79.4782 27.2854 78.4941 36.2782 69.239 34.4401V35.359C69.6328 40.7415 78.9536 43.2358 83.1546 42.1856C71.3394 78.0248 102.059 78.9438 107.573 75.3993C110.526 70.4761 121.751 68.9666 123.72 73.2988C125.689 77.631 135.404 83.8011 136.323 85.9016C137.242 88.0021 138.161 99.4234 138.161 100.867C138.161 102.312 134.616 103.756 134.616 106.644H141.18C141.749 100.124 142.939 86.8468 143.149 85.9016C143.412 84.7201 139.342 80.6504 138.161 78.9438C136.979 77.2372 138.686 67.7193 133.566 60.5647C138.598 57.5015 144.659 47.5023 141.18 37.4595H140.13Z" fill="url(#paint28_radial_10033_34034)"/>
<path d="M140.13 37.4595C134.156 69.6228 89.9808 61.4179 89.9808 27.7448C79.4782 27.2854 78.4941 36.2782 69.239 34.4401V35.359C69.6328 40.7415 78.9536 43.2358 83.1546 42.1856C71.3394 78.0248 102.059 78.9438 107.573 75.3993C110.526 70.4761 121.751 68.9666 123.72 73.2988C125.689 77.631 135.404 83.8011 136.323 85.9016C137.242 88.0021 138.161 99.4234 138.161 100.867C138.161 102.312 134.616 103.756 134.616 106.644H141.18C141.749 100.124 142.939 86.8468 143.149 85.9016C143.412 84.7201 139.342 80.6504 138.161 78.9438C136.979 77.2372 138.686 67.7193 133.566 60.5647C138.598 57.5015 144.659 47.5023 141.18 37.4595H140.13Z" fill="url(#paint29_radial_10033_34034)"/>
<path d="M140.13 37.4595C134.156 69.6228 89.9808 61.4179 89.9808 27.7448C79.4782 27.2854 78.4941 36.2782 69.239 34.4401V35.359C69.6328 40.7415 78.9536 43.2358 83.1546 42.1856C71.3394 78.0248 102.059 78.9438 107.573 75.3993C110.526 70.4761 121.751 68.9666 123.72 73.2988C125.689 77.631 135.404 83.8011 136.323 85.9016C137.242 88.0021 138.161 99.4234 138.161 100.867C138.161 102.312 134.616 103.756 134.616 106.644H141.18C141.749 100.124 142.939 86.8468 143.149 85.9016C143.412 84.7201 139.342 80.6504 138.161 78.9438C136.979 77.2372 138.686 67.7193 133.566 60.5647C138.598 57.5015 144.659 47.5023 141.18 37.4595H140.13Z" fill="url(#paint30_radial_10033_34034)"/>
<path d="M140.13 37.4595C134.156 69.6228 89.9808 61.4179 89.9808 27.7448C79.4782 27.2854 78.4941 36.2782 69.239 34.4401V35.359C69.6328 40.7415 78.9536 43.2358 83.1546 42.1856C71.3394 78.0248 102.059 78.9438 107.573 75.3993C110.526 70.4761 121.751 68.9666 123.72 73.2988C125.689 77.631 135.404 83.8011 136.323 85.9016C137.242 88.0021 138.161 99.4234 138.161 100.867C138.161 102.312 134.616 103.756 134.616 106.644H141.18C141.749 100.124 142.939 86.8468 143.149 85.9016C143.412 84.7201 139.342 80.6504 138.161 78.9438C136.979 77.2372 138.686 67.7193 133.566 60.5647C138.598 57.5015 144.659 47.5023 141.18 37.4595H140.13Z" fill="url(#paint31_radial_10033_34034)"/>
<path d="M140.13 37.4595C134.156 69.6228 89.9808 61.4179 89.9808 27.7448C79.4782 27.2854 78.4941 36.2782 69.239 34.4401V35.359C69.6328 40.7415 78.9536 43.2358 83.1546 42.1856C71.3394 78.0248 102.059 78.9438 107.573 75.3993C110.526 70.4761 121.751 68.9666 123.72 73.2988C125.689 77.631 135.404 83.8011 136.323 85.9016C137.242 88.0021 138.161 99.4234 138.161 100.867C138.161 102.312 134.616 103.756 134.616 106.644H141.18C141.749 100.124 142.939 86.8468 143.149 85.9016C143.412 84.7201 139.342 80.6504 138.161 78.9438C136.979 77.2372 138.686 67.7193 133.566 60.5647C138.598 57.5015 144.659 47.5023 141.18 37.4595H140.13Z" fill="url(#paint32_radial_10033_34034)"/>
<path d="M140.13 37.4595C134.156 69.6228 89.9808 61.4179 89.9808 27.7448C79.4782 27.2854 78.4941 36.2782 69.239 34.4401V35.359C69.6328 40.7415 78.9536 43.2358 83.1546 42.1856C71.3394 78.0248 102.059 78.9438 107.573 75.3993C110.526 70.4761 121.751 68.9666 123.72 73.2988C125.689 77.631 135.404 83.8011 136.323 85.9016C137.242 88.0021 138.161 99.4234 138.161 100.867C138.161 102.312 134.616 103.756 134.616 106.644H141.18C141.749 100.124 142.939 86.8468 143.149 85.9016C143.412 84.7201 139.342 80.6504 138.161 78.9438C136.979 77.2372 138.686 67.7193 133.566 60.5647C138.598 57.5015 144.659 47.5023 141.18 37.4595H140.13Z" fill="url(#paint33_radial_10033_34034)"/>
<path d="M69.2387 35.3585C69.2784 35.9002 69.4141 36.4104 69.6203 36.8929C70.3081 36.872 71.2488 36.3969 71.4213 34.6775C70.7459 34.6648 70.0218 34.5951 69.2387 34.4396V35.3585Z" fill="#301959"/>
<path d="M106.787 87.9368C106.393 87.1491 101.536 76.7124 101.93 71.9207C103.046 65.6193 89.2624 67.129 89.9844 71.4612C90.7064 75.7935 99.9616 84.6548 100.421 87.2148C100.881 89.7747 99.3052 98.6361 98.7801 100.277C98.255 101.918 94.7761 103.559 94.251 106.71H100.814C100.748 102.903 107.181 88.7245 106.787 87.9368Z" fill="url(#paint34_linear_10033_34034)"/>
<path d="M106.787 87.9368C106.393 87.1491 101.536 76.7124 101.93 71.9207C103.046 65.6193 89.2624 67.129 89.9844 71.4612C90.7064 75.7935 99.9616 84.6548 100.421 87.2148C100.881 89.7747 99.3052 98.6361 98.7801 100.277C98.255 101.918 94.7761 103.559 94.251 106.71H100.814C100.748 102.903 107.181 88.7245 106.787 87.9368Z" fill="url(#paint35_radial_10033_34034)"/>
<path d="M106.787 87.9368C106.393 87.1491 101.536 76.7124 101.93 71.9207C103.046 65.6193 89.2624 67.129 89.9844 71.4612C90.7064 75.7935 99.9616 84.6548 100.421 87.2148C100.881 89.7747 99.3052 98.6361 98.7801 100.277C98.255 101.918 94.7761 103.559 94.251 106.71H100.814C100.748 102.903 107.181 88.7245 106.787 87.9368Z" fill="url(#paint36_radial_10033_34034)"/>
<path d="M106.787 87.9368C106.393 87.1491 101.536 76.7124 101.93 71.9207C103.046 65.6193 89.2624 67.129 89.9844 71.4612C90.7064 75.7935 99.9616 84.6548 100.421 87.2148C100.881 89.7747 99.3052 98.6361 98.7801 100.277C98.255 101.918 94.7761 103.559 94.251 106.71H100.814C100.748 102.903 107.181 88.7245 106.787 87.9368Z" fill="url(#paint37_radial_10033_34034)"/>
<path d="M106.787 87.9368C106.393 87.1491 101.536 76.7124 101.93 71.9207C103.046 65.6193 89.2624 67.129 89.9844 71.4612C90.7064 75.7935 99.9616 84.6548 100.421 87.2148C100.881 89.7747 99.3052 98.6361 98.7801 100.277C98.255 101.918 94.7761 103.559 94.251 106.71H100.814C100.748 102.903 107.181 88.7245 106.787 87.9368Z" fill="url(#paint38_radial_10033_34034)"/>
<path d="M106.787 87.9368C106.393 87.1491 101.536 76.7124 101.93 71.9207C103.046 65.6193 89.2624 67.129 89.9844 71.4612C90.7064 75.7935 99.9616 84.6548 100.421 87.2148C100.881 89.7747 99.3052 98.6361 98.7801 100.277C98.255 101.918 94.7761 103.559 94.251 106.71H100.814C100.748 102.903 107.181 88.7245 106.787 87.9368Z" fill="url(#paint39_radial_10033_34034)"/>
<path d="M83.3147 34.5678C83.0627 35.852 81.7847 36.6823 80.46 36.4225C79.1353 36.1626 78.2657 34.9109 78.5176 33.6267C78.7695 32.3425 80.0476 31.5122 81.3723 31.772C82.6969 32.0319 83.5666 33.2836 83.3147 34.5678Z" fill="url(#paint40_radial_10033_34034)"/>
<path d="M83.3147 34.5678C83.0627 35.852 81.7847 36.6823 80.46 36.4225C79.1353 36.1626 78.2657 34.9109 78.5176 33.6267C78.7695 32.3425 80.0476 31.5122 81.3723 31.772C82.6969 32.0319 83.5666 33.2836 83.3147 34.5678Z" fill="url(#paint41_radial_10033_34034)"/>
<path d="M83.3147 34.5678C83.0627 35.852 81.7847 36.6823 80.46 36.4225C79.1353 36.1626 78.2657 34.9109 78.5176 33.6267C78.7695 32.3425 80.0476 31.5122 81.3723 31.772C82.6969 32.0319 83.5666 33.2836 83.3147 34.5678Z" fill="url(#paint42_radial_10033_34034)"/>
<path d="M82.5885 34.7121C82.2773 33.6214 80.3205 32.3397 79.675 32.8391C79.0693 33.6003 79.0333 34.5331 79.6678 35.2279C80.2182 35.578 81.6172 35.6074 82.5885 34.7121Z" fill="url(#paint43_radial_10033_34034)"/>
<path d="M82.5885 34.7121C82.2773 33.6214 80.3205 32.3397 79.675 32.8391C79.0693 33.6003 79.0333 34.5331 79.6678 35.2279C80.2182 35.578 81.6172 35.6074 82.5885 34.7121Z" fill="url(#paint44_linear_10033_34034)"/>
<path d="M82.5885 34.7121C82.2773 33.6214 80.3205 32.3397 79.675 32.8391C79.0693 33.6003 79.0333 34.5331 79.6678 35.2279C80.2182 35.578 81.6172 35.6074 82.5885 34.7121Z" fill="url(#paint45_radial_10033_34034)"/>
<path d="M79.1949 33.9633C79.1949 34.6371 79.6624 35.1833 80.239 35.1833C80.8156 35.1833 81.2831 34.6371 81.2831 33.9633C81.2831 33.2895 80.8156 32.7433 80.239 32.7433C79.6624 32.7433 79.1949 33.2895 79.1949 33.9633Z" fill="url(#paint46_linear_10033_34034)"/>
<path d="M78.3961 31.9829C79.0297 32.3898 81.9055 31.8023 82.5862 34.7117L82.341 34.664C81.4919 32.5855 78.6024 33.3442 78.3961 31.9829Z" fill="#0E0C0C"/>
<path d="M79.4475 33.8581C79.4639 34.0411 79.6256 34.1761 79.8086 34.1596C79.9916 34.1431 80.1265 33.9814 80.11 33.7985C80.0936 33.6155 79.9319 33.4805 79.7489 33.497C79.5659 33.5135 79.431 33.6752 79.4475 33.8581Z" fill="url(#paint47_linear_10033_34034)"/>
<path d="M158.874 108.975C166.834 102.622 169.208 95.8094 164.692 84.0212C168.443 85.6032 176.22 89.8234 177.322 94.0488C178.424 98.2742 174.464 105.76 172.346 108.975C168.978 109.358 161.568 109.894 158.874 108.975Z" fill="url(#paint48_linear_10033_34034)"/>
<path d="M158.874 108.975C166.834 102.622 169.208 95.8094 164.692 84.0212C168.443 85.6032 176.22 89.8234 177.322 94.0488C178.424 98.2742 174.464 105.76 172.346 108.975C168.978 109.358 161.568 109.894 158.874 108.975Z" fill="url(#paint49_radial_10033_34034)"/>
<path d="M158.874 108.975C166.834 102.622 169.208 95.8094 164.692 84.0212C168.443 85.6032 176.22 89.8234 177.322 94.0488C178.424 98.2742 174.464 105.76 172.346 108.975C168.978 109.358 161.568 109.894 158.874 108.975Z" fill="url(#paint50_radial_10033_34034)"/>
<path d="M158.874 108.975C166.834 102.622 169.208 95.8094 164.692 84.0212C168.443 85.6032 176.22 89.8234 177.322 94.0488C178.424 98.2742 174.464 105.76 172.346 108.975C168.978 109.358 161.568 109.894 158.874 108.975Z" fill="url(#paint51_radial_10033_34034)"/>
<path d="M195.998 103.923C198.831 100.095 203.852 91.262 201.279 86.5466L204.877 84.0973C206.026 84.9137 208.72 87.404 210.312 90.8334C211.904 94.2628 208.322 101.346 206.332 104.459C203.5 104.969 197.468 105.576 195.998 103.923Z" fill="url(#paint52_linear_10033_34034)"/>
<path d="M195.998 103.923C198.831 100.095 203.852 91.262 201.279 86.5466L204.877 84.0973C206.026 84.9137 208.72 87.404 210.312 90.8334C211.904 94.2628 208.322 101.346 206.332 104.459C203.5 104.969 197.468 105.576 195.998 103.923Z" fill="url(#paint53_radial_10033_34034)"/>
<path d="M195.998 103.923C198.831 100.095 203.852 91.262 201.279 86.5466L204.877 84.0973C206.026 84.9137 208.72 87.404 210.312 90.8334C211.904 94.2628 208.322 101.346 206.332 104.459C203.5 104.969 197.468 105.576 195.998 103.923Z" fill="url(#paint54_radial_10033_34034)"/>
<path d="M195.998 103.923C198.831 100.095 203.852 91.262 201.279 86.5466L204.877 84.0973C206.026 84.9137 208.72 87.404 210.312 90.8334C211.904 94.2628 208.322 101.346 206.332 104.459C203.5 104.969 197.468 105.576 195.998 103.923Z" fill="url(#paint55_radial_10033_34034)"/>
<path d="M145.325 72.7689H147.162C147.673 73.815 148.862 76.6268 149.536 79.5049C145.126 81.6482 144.891 75.9073 145.325 72.7689Z" fill="url(#paint56_linear_10033_34034)"/>
<path d="M145.325 72.7689H147.162C147.673 73.815 148.862 76.6268 149.536 79.5049C145.126 81.6482 144.891 75.9073 145.325 72.7689Z" fill="url(#paint57_radial_10033_34034)"/>
<path d="M145.325 72.7689H147.162C147.673 73.815 148.862 76.6268 149.536 79.5049C145.126 81.6482 144.891 75.9073 145.325 72.7689Z" fill="url(#paint58_radial_10033_34034)"/>
<path d="M145.325 72.7689H147.162C147.673 73.815 148.862 76.6268 149.536 79.5049C145.126 81.6482 144.891 75.9073 145.325 72.7689Z" fill="url(#paint59_radial_10033_34034)"/>
<path d="M147.239 84.9397C146.473 84.8632 146.932 79.8111 149.306 79.2751L151.449 80.8828C149.995 80.7297 148.004 85.0163 147.239 84.9397Z" fill="url(#paint60_radial_10033_34034)"/>
<path d="M191.866 55.3136C203.995 55.3854 208.112 64.8794 206.938 72.4996C210.155 74.8094 213.261 78.3026 212.919 81.7259C209.092 81.4197 193.245 95.1972 179.62 94.7382C165.995 94.2789 165 82.1068 159.108 79.5038C149.542 86.238 145.482 74.6891 146.397 72.77C147.316 70.8564 151.911 60.9795 162.168 61.209C171.879 61.428 176.712 81.7378 197.148 71.81C199.814 64.5293 197.647 57.9746 190.334 56.2331L191.866 55.3136Z" fill="url(#paint61_linear_10033_34034)"/>
<path d="M191.866 55.3136C203.995 55.3854 208.112 64.8794 206.938 72.4996C210.155 74.8094 213.261 78.3026 212.919 81.7259C209.092 81.4197 193.245 95.1972 179.62 94.7382C165.995 94.2789 165 82.1068 159.108 79.5038C149.542 86.238 145.482 74.6891 146.397 72.77C147.316 70.8564 151.911 60.9795 162.168 61.209C171.879 61.428 176.712 81.7378 197.148 71.81C199.814 64.5293 197.647 57.9746 190.334 56.2331L191.866 55.3136Z" fill="url(#paint62_radial_10033_34034)"/>
<path d="M191.866 55.3136C203.995 55.3854 208.112 64.8794 206.938 72.4996C210.155 74.8094 213.261 78.3026 212.919 81.7259C209.092 81.4197 193.245 95.1972 179.62 94.7382C165.995 94.2789 165 82.1068 159.108 79.5038C149.542 86.238 145.482 74.6891 146.397 72.77C147.316 70.8564 151.911 60.9795 162.168 61.209C171.879 61.428 176.712 81.7378 197.148 71.81C199.814 64.5293 197.647 57.9746 190.334 56.2331L191.866 55.3136Z" fill="url(#paint63_radial_10033_34034)"/>
<path d="M154.969 90.9864C155.071 88.9962 154.74 84.1434 152.596 80.653C152.213 75.9841 164.691 74.1461 167.37 74.9118C169.13 84.2505 159.026 92.1349 154.969 90.9864Z" fill="url(#paint64_linear_10033_34034)"/>
<path d="M154.969 90.9864C155.071 88.9962 154.74 84.1434 152.596 80.653C152.213 75.9841 164.691 74.1461 167.37 74.9118C169.13 84.2505 159.026 92.1349 154.969 90.9864Z" fill="url(#paint65_radial_10033_34034)"/>
<path d="M154.969 90.9864C155.071 88.9962 154.74 84.1434 152.596 80.653C152.213 75.9841 164.691 74.1461 167.37 74.9118C169.13 84.2505 159.026 92.1349 154.969 90.9864Z" fill="url(#paint66_radial_10033_34034)"/>
<path d="M154.969 90.9864C155.071 88.9962 154.74 84.1434 152.596 80.653C152.213 75.9841 164.691 74.1461 167.37 74.9118C169.13 84.2505 159.026 92.1349 154.969 90.9864Z" fill="url(#paint67_radial_10033_34034)"/>
<path d="M161.037 75.2333C163.245 76.7708 165.292 79.1363 166.838 81.2549C166.178 83.1318 165.111 84.8265 163.872 86.2714L157.936 76.7161L158.297 75.9049C159.19 75.6334 160.121 75.4088 161.037 75.2333Z" fill="url(#paint68_radial_10033_34034)"/>
<path d="M158.594 75.8186C161.312 78.1587 163.499 82.2651 164.728 85.2116C163.54 86.8412 162.093 88.1989 160.64 89.205L156.038 77.4187L156.697 76.4676C157.299 76.2262 157.937 76.0086 158.594 75.8186Z" fill="url(#paint69_radial_10033_34034)"/>
<path d="M155.773 76.8767C158.839 79.6139 160.991 85.0129 161.903 88.2349C160.318 89.5798 158.642 90.5225 157.188 90.9032L153.623 78.7472L154.66 77.4942C155.001 77.2748 155.374 77.0694 155.773 76.8767Z" fill="url(#paint70_radial_10033_34034)"/>
<path d="M153.977 77.9685C156.801 81.4164 158.331 87.4365 158.746 90.3228C157.3 91.0046 155.957 91.2649 154.969 90.9853C155.071 88.9944 154.736 84.1444 152.593 80.6548C152.509 79.6237 153.051 78.7259 153.977 77.9685Z" fill="url(#paint71_radial_10033_34034)"/>
<path d="M208.017 90.3744C207.711 90.2468 206.44 88.9811 203.808 84.9394C205.568 83.4085 209.885 80.515 213.069 81.1886C213.069 85.7815 218.657 101.474 213.069 106.832C209.982 107.164 203.348 107.536 201.511 106.373C203.808 104.306 210.084 93.972 208.017 90.3744Z" fill="url(#paint72_linear_10033_34034)"/>
<path d="M208.017 90.3744C207.711 90.2468 206.44 88.9811 203.808 84.9394C205.568 83.4085 209.885 80.515 213.069 81.1886C213.069 85.7815 218.657 101.474 213.069 106.832C209.982 107.164 203.348 107.536 201.511 106.373C203.808 104.306 210.084 93.972 208.017 90.3744Z" fill="url(#paint73_radial_10033_34034)"/>
<path d="M208.017 90.3744C207.711 90.2468 206.44 88.9811 203.808 84.9394C205.568 83.4085 209.885 80.515 213.069 81.1886C213.069 85.7815 218.657 101.474 213.069 106.832C209.982 107.164 203.348 107.536 201.511 106.373C203.808 104.306 210.084 93.972 208.017 90.3744Z" fill="url(#paint74_radial_10033_34034)"/>
<path d="M208.017 90.3744C207.711 90.2468 206.44 88.9811 203.808 84.9394C205.568 83.4085 209.885 80.515 213.069 81.1886C213.069 85.7815 218.657 101.474 213.069 106.832C209.982 107.164 203.348 107.536 201.511 106.373C203.808 104.306 210.084 93.972 208.017 90.3744Z" fill="url(#paint75_radial_10033_34034)"/>
<path d="M165.994 110.2C170.153 106.934 177.705 98.9166 174.643 92.9768C173.541 90.0989 178.624 91.0631 181.303 91.9049C182.757 93.0786 184.907 96.3222 184.907 99.6291C184.907 102.936 183.85 108.031 181.962 110.2C178.058 110.659 167.831 111.302 165.994 110.2Z" fill="url(#paint76_linear_10033_34034)"/>
<path d="M165.994 110.2C170.153 106.934 177.705 98.9166 174.643 92.9768C173.541 90.0989 178.624 91.0631 181.303 91.9049C182.757 93.0786 184.907 96.3222 184.907 99.6291C184.907 102.936 183.85 108.031 181.962 110.2C178.058 110.659 167.831 111.302 165.994 110.2Z" fill="url(#paint77_radial_10033_34034)"/>
<path d="M165.994 110.2C170.153 106.934 177.705 98.9166 174.643 92.9768C173.541 90.0989 178.624 91.0631 181.303 91.9049C182.757 93.0786 184.907 96.3222 184.907 99.6291C184.907 102.936 183.85 108.031 181.962 110.2C178.058 110.659 167.831 111.302 165.994 110.2Z" fill="url(#paint78_radial_10033_34034)"/>
<path d="M165.994 110.2C170.153 106.934 177.705 98.9166 174.643 92.9768C173.541 90.0989 178.624 91.0631 181.303 91.9049C182.757 93.0786 184.907 96.3222 184.907 99.6291C184.907 102.936 183.85 108.031 181.962 110.2C178.058 110.659 167.831 111.302 165.994 110.2Z" fill="url(#paint79_radial_10033_34034)"/>
<path d="M162.165 61.2073C165.736 61.2878 168.648 64.0866 171.918 67.0982C173.118 72.0569 168.744 77.5255 164.437 75.5988C159.93 73.5815 167.329 65.4857 159.443 61.3921C160.302 61.2524 161.209 61.186 162.165 61.2073Z" fill="url(#paint80_radial_10033_34034)"/>
<path d="M165.073 75.1551C161.553 73.4013 168.517 65.363 159.255 61.344C159.255 59.7365 169.283 60.3209 171.426 65.363C173.569 70.4051 168.594 76.9088 165.073 75.1551Z" fill="url(#paint81_linear_10033_34034)"/>
<path d="M165.073 75.1551C161.553 73.4013 168.517 65.363 159.255 61.344C159.255 59.7365 169.283 60.3209 171.426 65.363C173.569 70.4051 168.594 76.9088 165.073 75.1551Z" fill="url(#paint82_radial_10033_34034)"/>
<path d="M165.073 75.1551C161.553 73.4013 168.517 65.363 159.255 61.344C159.255 59.7365 169.283 60.3209 171.426 65.363C173.569 70.4051 168.594 76.9088 165.073 75.1551Z" fill="url(#paint83_radial_10033_34034)"/>
<path d="M165.073 75.1551C161.553 73.4013 168.517 65.363 159.255 61.344C159.255 59.7365 169.283 60.3209 171.426 65.363C173.569 70.4051 168.594 76.9088 165.073 75.1551Z" fill="url(#paint84_radial_10033_34034)"/>
<path d="M148.242 71.6519C148.548 72.9533 148.449 74.3318 145.944 73.9197C144.072 74.3049 144.977 72.0012 145.621 71.0628C146.328 70.0319 147.936 70.3505 148.242 71.6519Z" fill="#261742"/>
<path d="M158.744 69.3541C158.46 70.8034 157.018 71.7405 155.523 71.4472C154.028 71.1539 153.046 69.7413 153.33 68.292C153.615 66.8427 155.057 65.9056 156.552 66.1989C158.047 66.4921 159.029 67.9048 158.744 69.3541Z" fill="url(#paint85_radial_10033_34034)"/>
<path d="M158.744 69.3541C158.46 70.8034 157.018 71.7405 155.523 71.4472C154.028 71.1539 153.046 69.7413 153.33 68.292C153.615 66.8427 155.057 65.9056 156.552 66.1989C158.047 66.4921 159.029 67.9048 158.744 69.3541Z" fill="url(#paint86_radial_10033_34034)"/>
<path d="M158.744 69.3541C158.46 70.8034 157.018 71.7405 155.523 71.4472C154.028 71.1539 153.046 69.7413 153.33 68.292C153.615 66.8427 155.057 65.9056 156.552 66.1989C158.047 66.4921 159.029 67.9048 158.744 69.3541Z" fill="url(#paint87_radial_10033_34034)"/>
<path d="M157.925 69.5168C157.574 68.2858 155.365 66.8393 154.637 67.4029C153.953 68.262 153.913 69.3147 154.629 70.0988C155.25 70.4939 156.829 70.5271 157.925 69.5168Z" fill="url(#paint88_radial_10033_34034)"/>
<path d="M157.925 69.5168C157.574 68.2858 155.365 66.8393 154.637 67.4029C153.953 68.262 153.913 69.3147 154.629 70.0988C155.25 70.4939 156.829 70.5271 157.925 69.5168Z" fill="url(#paint89_linear_10033_34034)"/>
<path d="M157.925 69.5168C157.574 68.2858 155.365 66.8393 154.637 67.4029C153.953 68.262 153.913 69.3147 154.629 70.0988C155.25 70.4939 156.829 70.5271 157.925 69.5168Z" fill="url(#paint90_radial_10033_34034)"/>
<path d="M154.09 68.6718C154.09 69.4322 154.617 70.0487 155.268 70.0487C155.919 70.0487 156.446 69.4322 156.446 68.6718C156.446 67.9114 155.919 67.2949 155.268 67.2949C154.617 67.2949 154.09 67.9114 154.09 68.6718Z" fill="url(#paint91_linear_10033_34034)"/>
<path d="M153.194 66.4359C153.909 66.8951 157.154 66.2321 157.922 69.5156L157.646 69.4617C156.687 67.1159 153.426 67.9723 153.194 66.4359Z" fill="black"/>
<path d="M154.375 68.5556C154.394 68.7635 154.578 68.9169 154.786 68.8982C154.994 68.8794 155.147 68.6957 155.128 68.4877C155.109 68.2798 154.926 68.1264 154.718 68.1451C154.51 68.1639 154.356 68.3476 154.375 68.5556Z" fill="url(#paint92_linear_10033_34034)"/>
<path d="M177.637 91.1059C183.43 95.9979 181.853 103.352 178.633 110.329C176.398 110.556 173.437 110.787 170.903 110.798L172.508 103.343C174.778 100.089 176.211 96.4006 174.766 93.2469L177.547 91.1014C177.577 91.1044 177.607 91.1027 177.637 91.1059Z" fill="url(#paint93_radial_10033_34034)"/>
<path d="M208.047 86.0449C215.357 90.087 214.48 98.7579 212.162 106.904C210.223 107.078 207.496 107.235 205.226 107.116L205.352 100.928C207.469 97.1517 209.259 92.5447 208.016 90.3764C207.817 90.2937 207.229 89.7216 206.114 88.2399L208.047 86.0449Z" fill="url(#paint94_radial_10033_34034)"/>
<path d="M175.916 91.173C180.749 97.3553 177.333 104.469 172.49 110.77C169.601 110.866 166.939 110.767 165.991 110.198C170.15 106.932 177.702 98.9157 174.64 92.9759C174.45 92.477 174.454 92.097 174.591 91.8085L175.916 91.173Z" fill="url(#paint95_radial_10033_34034)"/>
<path d="M207.16 85.983C213.542 91.3216 211.078 99.6216 207.277 107.153C204.834 107.167 202.488 106.994 201.508 106.374C203.805 104.307 210.083 93.9706 208.016 90.3731C207.78 90.274 206.981 89.5021 205.429 87.3217L207.16 85.983Z" fill="url(#paint96_radial_10033_34034)"/>
<path d="M70.3581 98.121C69.118 96.7259 64.9325 96.1575 61.8322 87.5282L65.2942 86.1847C68.7218 88.3033 75.763 93.5015 76.5071 97.3459C77.2512 101.19 74.8192 104.838 73.5101 106.182H66.121C66.3793 105.097 69.118 104.477 70.3581 103.908C71.5982 103.34 71.5982 99.5162 70.3581 98.121Z" fill="url(#paint97_linear_10033_34034)"/>
<path d="M70.3581 98.121C69.118 96.7259 64.9325 96.1575 61.8322 87.5282L65.2942 86.1847C68.7218 88.3033 75.763 93.5015 76.5071 97.3459C77.2512 101.19 74.8192 104.838 73.5101 106.182H66.121C66.3793 105.097 69.118 104.477 70.3581 103.908C71.5982 103.34 71.5982 99.5162 70.3581 98.121Z" fill="url(#paint98_radial_10033_34034)"/>
<path d="M70.3581 98.121C69.118 96.7259 64.9325 96.1575 61.8322 87.5282L65.2942 86.1847C68.7218 88.3033 75.763 93.5015 76.5071 97.3459C77.2512 101.19 74.8192 104.838 73.5101 106.182H66.121C66.3793 105.097 69.118 104.477 70.3581 103.908C71.5982 103.34 71.5982 99.5162 70.3581 98.121Z" fill="url(#paint99_radial_10033_34034)"/>
<path d="M70.3581 98.121C69.118 96.7259 64.9325 96.1575 61.8322 87.5282L65.2942 86.1847C68.7218 88.3033 75.763 93.5015 76.5071 97.3459C77.2512 101.19 74.8192 104.838 73.5101 106.182H66.121C66.3793 105.097 69.118 104.477 70.3581 103.908C71.5982 103.34 71.5982 99.5162 70.3581 98.121Z" fill="url(#paint100_radial_10033_34034)"/>
<path d="M72.0099 69.7009C73.5979 69.2147 76.5574 73.3697 72.4233 75.3849L75.0072 77.5035C79.3483 75.3848 79.9521 71.2162 76.6614 68.0473C73.871 65.3602 69.1161 65.1539 67.876 68.6676C66.6359 72.1813 70.5774 75.005 72.0097 73.3697C73.4421 71.7343 69.4785 70.476 72.0099 69.7009Z" fill="url(#paint101_linear_10033_34034)"/>
<path d="M72.0099 69.7009C73.5979 69.2147 76.5574 73.3697 72.4233 75.3849L75.0072 77.5035C79.3483 75.3848 79.9521 71.2162 76.6614 68.0473C73.871 65.3602 69.1161 65.1539 67.876 68.6676C66.6359 72.1813 70.5774 75.005 72.0097 73.3697C73.4421 71.7343 69.4785 70.476 72.0099 69.7009Z" fill="url(#paint102_radial_10033_34034)"/>
<path d="M72.0099 69.7009C73.5979 69.2147 76.5574 73.3697 72.4233 75.3849L75.0072 77.5035C79.3483 75.3848 79.9521 71.2162 76.6614 68.0473C73.871 65.3602 69.1161 65.1539 67.876 68.6676C66.6359 72.1813 70.5774 75.005 72.0097 73.3697C73.4421 71.7343 69.4785 70.476 72.0099 69.7009Z" fill="url(#paint103_radial_10033_34034)"/>
<path d="M39.6639 100.084C39.5089 97.2419 35.2717 93.9865 35.2201 89.4393L42.0408 91.0412C43.2121 92.7464 45.5546 96.6218 45.5546 98.482C45.5546 100.342 42.282 104.838 40.6457 106.853H34.91C35.0134 105.871 39.8189 102.926 39.6639 100.084Z" fill="url(#paint104_linear_10033_34034)"/>
<path d="M39.6639 100.084C39.5089 97.2419 35.2717 93.9865 35.2201 89.4393L42.0408 91.0412C43.2121 92.7464 45.5546 96.6218 45.5546 98.482C45.5546 100.342 42.282 104.838 40.6457 106.853H34.91C35.0134 105.871 39.8189 102.926 39.6639 100.084Z" fill="url(#paint105_radial_10033_34034)"/>
<path d="M39.6639 100.084C39.5089 97.2419 35.2717 93.9865 35.2201 89.4393L42.0408 91.0412C43.2121 92.7464 45.5546 96.6218 45.5546 98.482C45.5546 100.342 42.282 104.838 40.6457 106.853H34.91C35.0134 105.871 39.8189 102.926 39.6639 100.084Z" fill="url(#paint106_radial_10033_34034)"/>
<path d="M39.6639 100.084C39.5089 97.2419 35.2717 93.9865 35.2201 89.4393L42.0408 91.0412C43.2121 92.7464 45.5546 96.6218 45.5546 98.482C45.5546 100.342 42.282 104.838 40.6457 106.853H34.91C35.0134 105.871 39.8189 102.926 39.6639 100.084Z" fill="url(#paint107_radial_10033_34034)"/>
<path d="M34.8074 90.2666C27.159 84.2215 33.6706 80.0355 31.087 76.6251L44.0054 69.0809C44.9872 69.2359 46.9611 69.7837 47.0024 70.7344C47.6742 70.2349 49.4103 69.825 50.9812 72.1813C52.9447 75.1266 58.6287 73.1114 69.1698 74.3515C79.7109 75.5916 80.1243 85.5644 79.2976 89.2332C78.4708 92.9019 81.3128 96.2606 80.1243 97.5007C78.9359 98.7409 76.4039 105.252 76.4039 107.37H69.7382C70.3927 106.681 72.0324 105.169 73.3553 104.632C75.0088 103.96 74.6987 99.6193 74.492 98.1725C74.2854 96.7257 65.9145 91.2484 65.2944 87.9414C61.9362 86.9079 44.4321 97.8737 34.8074 90.2666Z" fill="url(#paint108_linear_10033_34034)"/>
<path d="M34.8074 90.2666C27.159 84.2215 33.6706 80.0355 31.087 76.6251L44.0054 69.0809C44.9872 69.2359 46.9611 69.7837 47.0024 70.7344C47.6742 70.2349 49.4103 69.825 50.9812 72.1813C52.9447 75.1266 58.6287 73.1114 69.1698 74.3515C79.7109 75.5916 80.1243 85.5644 79.2976 89.2332C78.4708 92.9019 81.3128 96.2606 80.1243 97.5007C78.9359 98.7409 76.4039 105.252 76.4039 107.37H69.7382C70.3927 106.681 72.0324 105.169 73.3553 104.632C75.0088 103.96 74.6987 99.6193 74.492 98.1725C74.2854 96.7257 65.9145 91.2484 65.2944 87.9414C61.9362 86.9079 44.4321 97.8737 34.8074 90.2666Z" fill="url(#paint109_radial_10033_34034)"/>
<path d="M34.8074 90.2666C27.159 84.2215 33.6706 80.0355 31.087 76.6251L44.0054 69.0809C44.9872 69.2359 46.9611 69.7837 47.0024 70.7344C47.6742 70.2349 49.4103 69.825 50.9812 72.1813C52.9447 75.1266 58.6287 73.1114 69.1698 74.3515C79.7109 75.5916 80.1243 85.5644 79.2976 89.2332C78.4708 92.9019 81.3128 96.2606 80.1243 97.5007C78.9359 98.7409 76.4039 105.252 76.4039 107.37H69.7382C70.3927 106.681 72.0324 105.169 73.3553 104.632C75.0088 103.96 74.6987 99.6193 74.492 98.1725C74.2854 96.7257 65.9145 91.2484 65.2944 87.9414C61.9362 86.9079 44.4321 97.8737 34.8074 90.2666Z" fill="url(#paint110_radial_10033_34034)"/>
<path d="M42.9227 70.1877C46.03 68.2306 49.1637 71.5029 45.3341 74.8978C41.4003 78.3849 37.5165 81.0197 33.4305 81.298C32.5954 81.3549 31.9085 81.25 31.3392 81.0456C31.7198 79.4107 32.0968 77.9572 31.0868 76.624L38.1135 72.518C40.0077 71.7876 41.7435 70.9302 42.9227 70.1877Z" fill="url(#paint111_radial_10033_34034)"/>
<path d="M42.3506 99.568C43.3841 96.5193 41.8335 94.1424 38.9398 90.887C37.8035 88.7168 46.0185 86.65 46.2769 89.6469C46.5352 92.6438 47.8787 96.2093 46.9486 97.3461C46.0185 98.4829 43.2799 105.2 43.3832 107.732L38.2677 107.732C38.2161 106.337 40.4392 106.027 42.3506 99.568Z" fill="url(#paint112_linear_10033_34034)"/>
<path d="M42.3506 99.568C43.3841 96.5193 41.8335 94.1424 38.9398 90.887C37.8035 88.7168 46.0185 86.65 46.2769 89.6469C46.5352 92.6438 47.8787 96.2093 46.9486 97.3461C46.0185 98.4829 43.2799 105.2 43.3832 107.732L38.2677 107.732C38.2161 106.337 40.4392 106.027 42.3506 99.568Z" fill="url(#paint113_radial_10033_34034)"/>
<path d="M42.3506 99.568C43.3841 96.5193 41.8335 94.1424 38.9398 90.887C37.8035 88.7168 46.0185 86.65 46.2769 89.6469C46.5352 92.6438 47.8787 96.2093 46.9486 97.3461C46.0185 98.4829 43.2799 105.2 43.3832 107.732L38.2677 107.732C38.2161 106.337 40.4392 106.027 42.3506 99.568Z" fill="url(#paint114_radial_10033_34034)"/>
<path d="M42.3506 99.568C43.3841 96.5193 41.8335 94.1424 38.9398 90.887C37.8035 88.7168 46.0185 86.65 46.2769 89.6469C46.5352 92.6438 47.8787 96.2093 46.9486 97.3461C46.0185 98.4829 43.2799 105.2 43.3832 107.732L38.2677 107.732C38.2161 106.337 40.4392 106.027 42.3506 99.568Z" fill="url(#paint115_radial_10033_34034)"/>
<path d="M42.3506 99.568C43.3841 96.5193 41.8335 94.1424 38.9398 90.887C37.8035 88.7168 46.0185 86.65 46.2769 89.6469C46.5352 92.6438 47.8787 96.2093 46.9486 97.3461C46.0185 98.4829 43.2799 105.2 43.3832 107.732L38.2677 107.732C38.2161 106.337 40.4392 106.027 42.3506 99.568Z" fill="url(#paint116_radial_10033_34034)"/>
<path d="M42.3506 99.568C43.3841 96.5193 41.8335 94.1424 38.9398 90.887C37.8035 88.7168 46.0185 86.65 46.2769 89.6469C46.5352 92.6438 47.8787 96.2093 46.9486 97.3461C46.0185 98.4829 43.2799 105.2 43.3832 107.732L38.2677 107.732C38.2161 106.337 40.4392 106.027 42.3506 99.568Z" fill="url(#paint117_radial_10033_34034)"/>
<path d="M40.181 65.3602C41.4728 67.4271 45.5037 66.2385 44.9865 69.1323C44.4693 72.026 33.3607 76.9864 31.6555 77.2964C29.9503 77.6065 28.1934 76.3663 28.5551 75.3846C28.0728 75.2984 27.036 74.9298 26.7466 74.1444C26.3849 73.1626 24.8864 73.3177 24.5763 72.0775C24.0079 72.1809 22.5611 70.3723 22.9228 69.5456C22.2769 69.3647 22.2168 68.5293 22.0961 68.2021C22.3544 67.6854 22.9124 66.9723 23.4908 66.6002C23.0774 65.9802 24.6276 60.2446 30.7249 59.6762C36.8223 59.1078 38.8892 63.2933 40.181 65.3602Z" fill="url(#paint118_linear_10033_34034)"/>
<path d="M40.181 65.3602C41.4728 67.4271 45.5037 66.2385 44.9865 69.1323C44.4693 72.026 33.3607 76.9864 31.6555 77.2964C29.9503 77.6065 28.1934 76.3663 28.5551 75.3846C28.0728 75.2984 27.036 74.9298 26.7466 74.1444C26.3849 73.1626 24.8864 73.3177 24.5763 72.0775C24.0079 72.1809 22.5611 70.3723 22.9228 69.5456C22.2769 69.3647 22.2168 68.5293 22.0961 68.2021C22.3544 67.6854 22.9124 66.9723 23.4908 66.6002C23.0774 65.9802 24.6276 60.2446 30.7249 59.6762C36.8223 59.1078 38.8892 63.2933 40.181 65.3602Z" fill="url(#paint119_radial_10033_34034)"/>
<path d="M40.181 65.3602C41.4728 67.4271 45.5037 66.2385 44.9865 69.1323C44.4693 72.026 33.3607 76.9864 31.6555 77.2964C29.9503 77.6065 28.1934 76.3663 28.5551 75.3846C28.0728 75.2984 27.036 74.9298 26.7466 74.1444C26.3849 73.1626 24.8864 73.3177 24.5763 72.0775C24.0079 72.1809 22.5611 70.3723 22.9228 69.5456C22.2769 69.3647 22.2168 68.5293 22.0961 68.2021C22.3544 67.6854 22.9124 66.9723 23.4908 66.6002C23.0774 65.9802 24.6276 60.2446 30.7249 59.6762C36.8223 59.1078 38.8892 63.2933 40.181 65.3602Z" fill="url(#paint120_radial_10033_34034)"/>
<path d="M26.0033 61.6339C28.4594 63.5655 30.1735 70.0649 28.631 70.3193C27.0107 70.5814 24.5931 68.419 23.4342 66.1772C23.4844 65.2577 24.2039 63.2 26.0033 61.6339Z" fill="url(#paint121_radial_10033_34034)"/>
<path d="M32.8444 71.2248C33.7229 69.7785 35.6895 70.4838 34.8097 72.6715C34.0521 74.5545 33.1748 76.1731 31.9564 77.2141C31.836 77.2488 31.735 77.2806 31.6544 77.2953C29.9603 77.6024 28.2159 76.3808 28.5487 75.4025C30.1449 74.7046 32.061 72.515 32.8444 71.2248Z" fill="url(#paint122_radial_10033_34034)"/>
<path d="M27.5077 74.1193C24.6815 74.6359 21.3337 70.6571 22.9252 69.4169C24.5168 68.1767 24.5101 70.4505 27.5077 70.3731C30.5053 70.2957 30.3339 73.6027 27.5077 74.1193Z" fill="url(#paint123_linear_10033_34034)"/>
<path d="M27.5077 74.1193C24.6815 74.6359 21.3337 70.6571 22.9252 69.4169C24.5168 68.1767 24.5101 70.4505 27.5077 70.3731C30.5053 70.2957 30.3339 73.6027 27.5077 74.1193Z" fill="url(#paint124_radial_10033_34034)"/>
<path d="M23.4492 66.6295C23.893 66.854 24.3115 67.1923 24.3953 67.6596C24.5362 68.4446 23.8801 69.8134 22.9228 69.5454C22.2769 69.3645 22.2168 68.5293 22.0961 68.2021C22.3481 67.698 22.8861 67.0084 23.4492 66.6295Z" fill="#261742"/>
<path d="M30.6727 59.7796C33.7215 57.0409 39.1472 61.9496 38.3721 63.1381C37.5969 64.3266 36.7184 62.4667 35.4782 63.7066C34.238 64.9466 34.1868 68.8742 33.0499 68.9775C31.913 69.0808 27.6238 62.5182 30.6727 59.7796Z" fill="url(#paint125_linear_10033_34034)"/>
<path d="M30.6727 59.7796C33.7215 57.0409 39.1472 61.9496 38.3721 63.1381C37.5969 64.3266 36.7184 62.4667 35.4782 63.7066C34.238 64.9466 34.1868 68.8742 33.0499 68.9775C31.913 69.0808 27.6238 62.5182 30.6727 59.7796Z" fill="url(#paint126_radial_10033_34034)"/>
<path d="M29.7239 66.4959C29.5176 67.7674 28.4711 68.5895 27.3864 68.3322C26.3017 68.0749 25.5896 66.8356 25.7959 65.5642C26.0022 64.2928 27.0487 63.4707 28.1334 63.7279C29.2181 63.9852 29.9302 65.2245 29.7239 66.4959Z" fill="url(#paint127_radial_10033_34034)"/>
<path d="M29.7239 66.4959C29.5176 67.7674 28.4711 68.5895 27.3864 68.3322C26.3017 68.0749 25.5896 66.8356 25.7959 65.5642C26.0022 64.2928 27.0487 63.4707 28.1334 63.7279C29.2181 63.9852 29.9302 65.2245 29.7239 66.4959Z" fill="url(#paint128_radial_10033_34034)"/>
<path d="M29.7239 66.4959C29.5176 67.7674 28.4711 68.5895 27.3864 68.3322C26.3017 68.0749 25.5896 66.8356 25.7959 65.5642C26.0022 64.2928 27.0487 63.4707 28.1334 63.7279C29.2181 63.9852 29.9302 65.2245 29.7239 66.4959Z" fill="url(#paint129_radial_10033_34034)"/>
<path d="M29.1315 66.639C28.8766 65.559 27.2744 64.2901 26.7458 64.7845C26.2498 65.5382 26.2203 66.4617 26.7399 67.1496C27.1905 67.4962 28.3361 67.5253 29.1315 66.639Z" fill="url(#paint130_radial_10033_34034)"/>
<path d="M29.1315 66.639C28.8766 65.559 27.2744 64.2901 26.7458 64.7845C26.2498 65.5382 26.2203 66.4617 26.7399 67.1496C27.1905 67.4962 28.3361 67.5253 29.1315 66.639Z" fill="url(#paint131_linear_10033_34034)"/>
<path d="M29.1315 66.639C28.8766 65.559 27.2744 64.2901 26.7458 64.7845C26.2498 65.5382 26.2203 66.4617 26.7399 67.1496C27.1905 67.4962 28.3361 67.5253 29.1315 66.639Z" fill="url(#paint132_radial_10033_34034)"/>
<path d="M26.3486 65.8976C26.3486 66.5647 26.7314 67.1055 27.2036 67.1055C27.6757 67.1055 28.0585 66.5647 28.0585 65.8976C28.0585 65.2305 27.6757 64.6897 27.2036 64.6897C26.7314 64.6897 26.3486 65.2305 26.3486 65.8976Z" fill="url(#paint133_linear_10033_34034)"/>
<path d="M25.6967 63.9361C26.2154 64.339 28.5702 63.7573 29.1276 66.6379L28.9268 66.5906C28.2316 64.5327 25.8656 65.2839 25.6967 63.9361Z" fill="black"/>
<path d="M26.5528 65.7979C26.5664 65.9814 26.7005 66.1168 26.8523 66.1002C27.004 66.0837 27.1159 65.9216 27.1023 65.7381C27.0886 65.5546 26.9545 65.4193 26.8028 65.4358C26.651 65.4523 26.5391 65.6145 26.5528 65.7979Z" fill="url(#paint134_linear_10033_34034)"/>
<defs>
<radialGradient id="paint0_radial_10033_34034" cx="0" cy="0" r="1" gradientTransform="matrix(139.702 -20.995 -16.645 -174.775 115.25 181.694)" gradientUnits="userSpaceOnUse">
<stop offset="0.302942" stop-color="#3AEFD7" stop-opacity="0.5"/>
<stop offset="0.623906" stop-color="#1E73B9" stop-opacity="0.811881"/>
<stop offset="0.975" stop-color="#001975"/>
</radialGradient>
<radialGradient id="paint1_radial_10033_34034" cx="0" cy="0" r="1" gradientUnits="userSpaceOnUse" gradientTransform="translate(118.389 159.823) rotate(-90) scale(129.42 116.707)">
<stop offset="0.322531" stop-color="#FFE294"/>
<stop offset="1" stop-color="#FF61A3" stop-opacity="0"/>
</radialGradient>
<linearGradient id="paint2_linear_10033_34034" x1="124.615" y1="120" x2="124.615" y2="98.0769" gradientUnits="userSpaceOnUse">
<stop offset="0.152678" stop-color="#114DAC"/>
<stop offset="0.310573" stop-color="#3F89E1"/>
<stop offset="1" stop-color="#58AAFE"/>
</linearGradient>
<radialGradient id="paint3_radial_10033_34034" cx="0" cy="0" r="1" gradientTransform="matrix(27.2824 2.65652 -0.21015 7.21053 170.141 107.304)" gradientUnits="userSpaceOnUse">
<stop stop-color="#0A2B60"/>
<stop offset="0.962346" stop-color="#438FE6" stop-opacity="0"/>
</radialGradient>
<radialGradient id="paint4_radial_10033_34034" cx="0" cy="0" r="1" gradientUnits="userSpaceOnUse" gradientTransform="translate(199.71 103.481) rotate(3.04936) scale(27.3211 3.95048)">
<stop stop-color="#0A2B60"/>
<stop offset="0.962346" stop-color="#438FE6" stop-opacity="0"/>
</radialGradient>
<radialGradient id="paint5_radial_10033_34034" cx="0" cy="0" r="1" gradientTransform="matrix(27.2824 2.53065 -0.21015 6.86889 179.468 108.764)" gradientUnits="userSpaceOnUse">
<stop stop-color="#0A2B60"/>
<stop offset="0.962346" stop-color="#438FE6" stop-opacity="0"/>
</radialGradient>
<radialGradient id="paint6_radial_10033_34034" cx="0" cy="0" r="1" gradientTransform="matrix(27.2824 2.13663 -0.21015 5.79942 205.092 105.357)" gradientUnits="userSpaceOnUse">
<stop stop-color="#0A2B60"/>
<stop offset="0.962346" stop-color="#438FE6" stop-opacity="0"/>
</radialGradient>
<radialGradient id="paint7_radial_10033_34034" cx="0" cy="0" r="1" gradientUnits="userSpaceOnUse" gradientTransform="translate(89.7956 105.118) rotate(3.04936) scale(29.4533 4.25878)">
<stop stop-color="#0A2B60"/>
<stop offset="0.962346" stop-color="#438FE6" stop-opacity="0"/>
</radialGradient>
<radialGradient id="paint8_radial_10033_34034" cx="0" cy="0" r="1" gradientUnits="userSpaceOnUse" gradientTransform="translate(129.79 104.571) rotate(3.04936) scale(29.4533 4.25878)">
<stop stop-color="#0A2B60"/>
<stop offset="0.962346" stop-color="#438FE6" stop-opacity="0"/>
</radialGradient>
<radialGradient id="paint9_radial_10033_34034" cx="0" cy="0" r="1" gradientUnits="userSpaceOnUse" gradientTransform="translate(97.8611 105.118) rotate(3.04936) scale(29.4533 4.25878)">
<stop stop-color="#0A2B60"/>
<stop offset="0.962346" stop-color="#438FE6" stop-opacity="0"/>
</radialGradient>
<radialGradient id="paint10_radial_10033_34034" cx="0" cy="0" r="1" gradientUnits="userSpaceOnUse" gradientTransform="translate(137.943 105.118) rotate(3.04936) scale(29.4533 4.25878)">
<stop stop-color="#0A2B60"/>
<stop offset="0.962346" stop-color="#438FE6" stop-opacity="0"/>
</radialGradient>
<radialGradient id="paint11_radial_10033_34034" cx="0" cy="0" r="1" gradientUnits="userSpaceOnUse" gradientTransform="translate(38.4666 105.053) rotate(3.04936) scale(25.4668 3.68235)">
<stop stop-color="#0A2B60"/>
<stop offset="0.962346" stop-color="#438FE6" stop-opacity="0"/>
</radialGradient>
<radialGradient id="paint12_radial_10033_34034" cx="0" cy="0" r="1" gradientUnits="userSpaceOnUse" gradientTransform="translate(70.8294 104.55) rotate(3.04936) scale(25.4668 3.68235)">
<stop stop-color="#0A2B60"/>
<stop offset="0.962346" stop-color="#438FE6" stop-opacity="0"/>
</radialGradient>
<radialGradient id="paint13_radial_10033_34034" cx="0" cy="0" r="1" gradientUnits="userSpaceOnUse" gradientTransform="translate(40.6847 106.423) rotate(3.04936) scale(25.4668 3.68235)">
<stop stop-color="#0A2B60"/>
<stop offset="0.962346" stop-color="#438FE6" stop-opacity="0"/>
</radialGradient>
<radialGradient id="paint14_radial_10033_34034" cx="0" cy="0" r="1" gradientUnits="userSpaceOnUse" gradientTransform="translate(73.0475 105.919) rotate(3.04936) scale(25.4668 3.68235)">
<stop stop-color="#0A2B60"/>
<stop offset="0.962346" stop-color="#438FE6" stop-opacity="0"/>
</radialGradient>
<linearGradient id="paint15_linear_10033_34034" x1="84.796" y1="34.5715" x2="95.7155" y2="18.5298" gradientUnits="userSpaceOnUse">
<stop stop-color="#795702"/>
<stop offset="0.285598" stop-color="#9A671D"/>
<stop offset="1" stop-color="#FFCAA8"/>
</linearGradient>
<linearGradient id="paint16_linear_10033_34034" x1="85.3221" y1="45.796" x2="100.285" y2="20.4932" gradientUnits="userSpaceOnUse">
<stop stop-color="#795702"/>
<stop offset="0.285598" stop-color="#9A671D"/>
<stop offset="1" stop-color="#FFCAA8"/>
</linearGradient>
<linearGradient id="paint17_linear_10033_34034" x1="82.9929" y1="114.446" x2="126.131" y2="95.9833" gradientUnits="userSpaceOnUse">
<stop stop-color="#795702"/>
<stop offset="0.285598" stop-color="#9A671D"/>
<stop offset="1" stop-color="#FFCAA8"/>
</linearGradient>
<radialGradient id="paint18_radial_10033_34034" cx="0" cy="0" r="1" gradientTransform="matrix(-24.8119 7.34184 4.99346 34.375 108.205 73.1261)" gradientUnits="userSpaceOnUse">
<stop stop-color="#ED6736" stop-opacity="0.7"/>
<stop offset="1" stop-color="#BA6D26" stop-opacity="0"/>
</radialGradient>
<radialGradient id="paint19_radial_10033_34034" cx="0" cy="0" r="1" gradientUnits="userSpaceOnUse" gradientTransform="translate(84.7784 88.8635) rotate(-96.953) scale(19.2666 9.71611)">
<stop stop-color="#FFECDB"/>
<stop offset="1" stop-color="#FFECDB" stop-opacity="0"/>
</radialGradient>
<radialGradient id="paint20_radial_10033_34034" cx="0" cy="0" r="1" gradientTransform="matrix(18.3475 26.8992 11.2446 -8.2719 95.3515 67.8727)" gradientUnits="userSpaceOnUse">
<stop offset="0.598377" stop-color="#915100"/>
<stop offset="1" stop-color="#C1712A" stop-opacity="0"/>
</radialGradient>
<linearGradient id="paint21_linear_10033_34034" x1="115.724" y1="113.749" x2="165.941" y2="80.1936" gradientUnits="userSpaceOnUse">
<stop stop-color="#795702"/>
<stop offset="0.285598" stop-color="#9A671D"/>
<stop offset="1" stop-color="#FFCAA8"/>
</linearGradient>
<radialGradient id="paint22_radial_10033_34034" cx="0" cy="0" r="1" gradientTransform="matrix(-35.3121 6.69241 7.10663 31.3344 151.605 76.0845)" gradientUnits="userSpaceOnUse">
<stop stop-color="#ED6736" stop-opacity="0.7"/>
<stop offset="1" stop-color="#BA6D26" stop-opacity="0"/>
</radialGradient>
<radialGradient id="paint23_radial_10033_34034" cx="0" cy="0" r="1" gradientUnits="userSpaceOnUse" gradientTransform="translate(125.827 89.0189) rotate(-98.3508) scale(17.1297 9.1161)">
<stop stop-color="#FFECDB"/>
<stop offset="1" stop-color="#FFECDB" stop-opacity="0"/>
</radialGradient>
<radialGradient id="paint24_radial_10033_34034" cx="0" cy="0" r="1" gradientTransform="matrix(1.11997 21.7009 14.498 -0.625252 119.652 89.1798)" gradientUnits="userSpaceOnUse">
<stop offset="0.598377" stop-color="#915100"/>
<stop offset="1" stop-color="#C1712A" stop-opacity="0"/>
</radialGradient>
<radialGradient id="paint25_radial_10033_34034" cx="0" cy="0" r="1" gradientTransform="matrix(23.1052 13.1774 8.98496 -16.4128 125.821 77.0983)" gradientUnits="userSpaceOnUse">
<stop offset="0.264083" stop-color="#915100"/>
<stop offset="1" stop-color="#C1712A" stop-opacity="0"/>
</radialGradient>
<linearGradient id="paint26_linear_10033_34034" x1="66.0881" y1="116.358" x2="128.84" y2="-10.5713" gradientUnits="userSpaceOnUse">
<stop stop-color="#795702"/>
<stop offset="0.285598" stop-color="#9A671D"/>
<stop offset="1" stop-color="#FFCAA8"/>
</linearGradient>
<radialGradient id="paint27_radial_10033_34034" cx="0" cy="0" r="1" gradientTransform="matrix(-46.6659 -0.707733 -2.6236 34.7309 101.727 56.6775)" gradientUnits="userSpaceOnUse">
<stop stop-color="#ED6736" stop-opacity="0.5"/>
<stop offset="1" stop-color="#BA6D26" stop-opacity="0"/>
</radialGradient>
<radialGradient id="paint28_radial_10033_34034" cx="0" cy="0" r="1" gradientUnits="userSpaceOnUse" gradientTransform="translate(115.876 40.6624) rotate(-171.736) scale(28.1242 22.7808)">
<stop stop-color="#FFECDB"/>
<stop offset="1" stop-color="#FFECDB" stop-opacity="0"/>
</radialGradient>
<radialGradient id="paint29_radial_10033_34034" cx="0" cy="0" r="1" gradientUnits="userSpaceOnUse" gradientTransform="translate(175.738 61.8086) rotate(132.725) scale(102.491 61.3734)">
<stop offset="0.387255" stop-color="#915100"/>
<stop offset="1" stop-color="#C1712A" stop-opacity="0"/>
</radialGradient>
<radialGradient id="paint30_radial_10033_34034" cx="0" cy="0" r="1" gradientUnits="userSpaceOnUse" gradientTransform="translate(162.988 73.9366) rotate(108.899) scale(61.2127 36.5057)">
<stop offset="0.387255" stop-color="#915100"/>
<stop offset="0.844149" stop-color="#A75E11" stop-opacity="0.567833"/>
<stop offset="1" stop-color="#C1712A" stop-opacity="0"/>
</radialGradient>
<radialGradient id="paint31_radial_10033_34034" cx="0" cy="0" r="1" gradientUnits="userSpaceOnUse" gradientTransform="translate(129.248 87.9304) rotate(-121.122) scale(19.2528 8.69376)">
<stop stop-color="#FFECDB"/>
<stop offset="1" stop-color="#FFECDB" stop-opacity="0"/>
</radialGradient>
<radialGradient id="paint32_radial_10033_34034" cx="0" cy="0" r="1" gradientUnits="userSpaceOnUse" gradientTransform="translate(77.7816 66.1622) rotate(-104.931) scale(26.5519 13.5664)">
<stop stop-color="#FFECDB"/>
<stop offset="1" stop-color="#BC772F" stop-opacity="0"/>
</radialGradient>
<radialGradient id="paint33_radial_10033_34034" cx="0" cy="0" r="1" gradientUnits="userSpaceOnUse" gradientTransform="translate(77.1596 25.4246) rotate(-38.5007) scale(17.4838 11.6345)">
<stop stop-color="#FFECDB"/>
<stop offset="1" stop-color="#FFECDB" stop-opacity="0"/>
</radialGradient>
<linearGradient id="paint34_linear_10033_34034" x1="86.1773" y1="114.258" x2="137.08" y2="83.1654" gradientUnits="userSpaceOnUse">
<stop stop-color="#795702"/>
<stop offset="0.285598" stop-color="#9A671D"/>
<stop offset="1" stop-color="#FFCAA8"/>
</linearGradient>
<radialGradient id="paint35_radial_10033_34034" cx="0" cy="0" r="1" gradientUnits="userSpaceOnUse" gradientTransform="translate(120.704 74.612) rotate(168.287) scale(34.7007 33.6843)">
<stop stop-color="#ED6736" stop-opacity="0.7"/>
<stop offset="1" stop-color="#BA6D26" stop-opacity="0"/>
</radialGradient>
<radialGradient id="paint36_radial_10033_34034" cx="0" cy="0" r="1" gradientUnits="userSpaceOnUse" gradientTransform="translate(121.163 83.8874) rotate(114.694) scale(38.3347 23.4117)">
<stop offset="0.598377" stop-color="#915100"/>
<stop offset="1" stop-color="#C1712A" stop-opacity="0"/>
</radialGradient>
<radialGradient id="paint37_radial_10033_34034" cx="0" cy="0" r="1" gradientUnits="userSpaceOnUse" gradientTransform="translate(97.2048 68.2778) rotate(13.3925) scale(9.21028 3.97711)">
<stop offset="0.287719" stop-color="#C5702C"/>
<stop offset="1" stop-color="#BB631B" stop-opacity="0"/>
</radialGradient>
<radialGradient id="paint38_radial_10033_34034" cx="0" cy="0" r="1" gradientUnits="userSpaceOnUse" gradientTransform="translate(89.6562 70.1485) rotate(1.4742) scale(8.92995 5.1258)">
<stop offset="0.287719" stop-color="#BD712D"/>
<stop offset="1" stop-color="#BD712D" stop-opacity="0"/>
</radialGradient>
<radialGradient id="paint39_radial_10033_34034" cx="0" cy="0" r="1" gradientUnits="userSpaceOnUse" gradientTransform="translate(93.7971 89.485) rotate(-102.329) scale(17.9848 9.29335)">
<stop offset="0.182769" stop-color="#FFECDB"/>
<stop offset="1" stop-color="#FFECDB" stop-opacity="0"/>
</radialGradient>
<radialGradient id="paint40_radial_10033_34034" cx="0" cy="0" r="1" gradientTransform="matrix(2.47375 0.692564 -0.618988 2.4022 80.9161 34.0973)" gradientUnits="userSpaceOnUse">
<stop offset="0.188318" stop-color="#190B28"/>
<stop offset="0.756245" stop-color="#451E0D" stop-opacity="0.7"/>
<stop offset="0.980769" stop-color="#733600" stop-opacity="0"/>
</radialGradient>
<radialGradient id="paint41_radial_10033_34034" cx="0" cy="0" r="1" gradientTransform="matrix(-0.463867 2.61252 -2.65433 -0.453744 80.9239 33.81)" gradientUnits="userSpaceOnUse">
<stop stop-color="#FCB991"/>
<stop offset="0.643046" stop-color="#F7B289" stop-opacity="0.636884"/>
<stop offset="1" stop-color="#DD9A72" stop-opacity="0"/>
</radialGradient>
<radialGradient id="paint42_radial_10033_34034" cx="0" cy="0" r="1" gradientTransform="matrix(1.25216 1.10944 -1.06413 1.5472 80.936 33.3585)" gradientUnits="userSpaceOnUse">
<stop stop-color="#FFD2B7"/>
<stop offset="1" stop-color="#FFD2B7" stop-opacity="0"/>
</radialGradient>
<radialGradient id="paint43_radial_10033_34034" cx="0" cy="0" r="1" gradientUnits="userSpaceOnUse" gradientTransform="translate(80.701 33.5538) rotate(102.568) scale(2.12153)">
<stop stop-color="#6C3D3D"/>
<stop offset="1" stop-color="#0E0C0C"/>
</radialGradient>
<linearGradient id="paint44_linear_10033_34034" x1="82.6943" y1="33.7262" x2="78.2342" y2="33.3606" gradientUnits="userSpaceOnUse">
<stop stop-color="#733600"/>
<stop offset="1" stop-color="#FFBE15"/>
</linearGradient>
<radialGradient id="paint45_radial_10033_34034" cx="0" cy="0" r="1" gradientUnits="userSpaceOnUse" gradientTransform="translate(80.6023 34.1915) rotate(142.275) scale(1.37958 1.63713)">
<stop stop-color="#733600" stop-opacity="0"/>
<stop offset="1" stop-color="#512600"/>
</radialGradient>
<linearGradient id="paint46_linear_10033_34034" x1="80.239" y1="32.8089" x2="80.239" y2="35.1833" gradientUnits="userSpaceOnUse">
<stop stop-color="#19106F"/>
<stop offset="1" stop-color="#733600"/>
</linearGradient>
<linearGradient id="paint47_linear_10033_34034" x1="79.7505" y1="33.5148" x2="79.8211" y2="34.2982" gradientUnits="userSpaceOnUse">
<stop stop-color="white"/>
<stop offset="1" stop-color="white" stop-opacity="0"/>
</linearGradient>
<linearGradient id="paint48_linear_10033_34034" x1="162.928" y1="132.362" x2="140.598" y2="72.6137" gradientUnits="userSpaceOnUse">
<stop stop-color="#8C8C8C"/>
<stop offset="1" stop-color="#FFD1DA"/>
</linearGradient>
<radialGradient id="paint49_radial_10033_34034" cx="0" cy="0" r="1" gradientTransform="matrix(18.3562 -2.71993 0.557189 20.0643 166.25 88.2484)" gradientUnits="userSpaceOnUse">
<stop stop-color="#FFDAC2"/>
<stop offset="1" stop-color="#C2FFF4" stop-opacity="0"/>
</radialGradient>
<radialGradient id="paint50_radial_10033_34034" cx="0" cy="0" r="1" gradientTransform="matrix(7.85223 -15.904 11.3352 5.17167 160.341 99.9252)" gradientUnits="userSpaceOnUse">
<stop offset="0.025" stop-color="white" stop-opacity="0.6"/>
<stop offset="0.555" stop-color="white" stop-opacity="0.6"/>
<stop offset="1" stop-color="white" stop-opacity="0"/>
</radialGradient>
<radialGradient id="paint51_radial_10033_34034" cx="0" cy="0" r="1" gradientUnits="userSpaceOnUse" gradientTransform="translate(159.696 105.048) rotate(113.907) scale(21.2702 11.8323)">
<stop offset="0.608681" stop-color="#CCC7C7" stop-opacity="0"/>
<stop offset="1" stop-color="#89787A"/>
</radialGradient>
<linearGradient id="paint52_linear_10033_34034" x1="199.199" y1="123.788" x2="180.316" y2="75.22" gradientUnits="userSpaceOnUse">
<stop stop-color="#8C8C8C"/>
<stop offset="1" stop-color="#FFD1DA"/>
</linearGradient>
<radialGradient id="paint53_radial_10033_34034" cx="0" cy="0" r="1" gradientTransform="matrix(14.4881 -2.23321 0.439776 16.4739 201.821 87.568)" gradientUnits="userSpaceOnUse">
<stop stop-color="#FFDAC2"/>
<stop offset="1" stop-color="#C2FFF4" stop-opacity="0"/>
</radialGradient>
<radialGradient id="paint54_radial_10033_34034" cx="0" cy="0" r="1" gradientUnits="userSpaceOnUse" gradientTransform="translate(197.156 97.1553) rotate(-64.6101) scale(14.4541 9.90313)">
<stop offset="0.025" stop-color="white" stop-opacity="0.6"/>
<stop offset="0.555" stop-color="white" stop-opacity="0.6"/>
<stop offset="1" stop-color="white" stop-opacity="0"/>
</radialGradient>
<radialGradient id="paint55_radial_10033_34034" cx="0" cy="0" r="1" gradientTransform="matrix(-8.83511 15.432 -8.21653 -5.02872 194.8 99.9825)" gradientUnits="userSpaceOnUse">
<stop offset="0.608681" stop-color="#CCC7C7" stop-opacity="0"/>
<stop offset="1" stop-color="#89787A"/>
</radialGradient>
<linearGradient id="paint56_linear_10033_34034" x1="153.182" y1="83.3587" x2="138.682" y2="64.9807" gradientUnits="userSpaceOnUse">
<stop stop-color="#8C8C8C"/>
<stop offset="1" stop-color="#FFD1DA"/>
</linearGradient>
<radialGradient id="paint57_radial_10033_34034" cx="0" cy="0" r="1" gradientTransform="matrix(6.60141 -2.76859 1.34766 8.87874 144.595 75.964)" gradientUnits="userSpaceOnUse">
<stop stop-color="#FFDAC2"/>
<stop offset="1" stop-color="#C2FFF4" stop-opacity="0"/>
</radialGradient>
<radialGradient id="paint58_radial_10033_34034" cx="0" cy="0" r="1" gradientUnits="userSpaceOnUse" gradientTransform="translate(146.386 76.0103) rotate(-103.696) scale(3.60716 1.60043)">
<stop offset="0.025" stop-color="white" stop-opacity="0.6"/>
<stop offset="0.555" stop-color="white" stop-opacity="0.6"/>
<stop offset="1" stop-color="white" stop-opacity="0"/>
</radialGradient>
<radialGradient id="paint59_radial_10033_34034" cx="0" cy="0" r="1" gradientUnits="userSpaceOnUse" gradientTransform="translate(149.036 76.0987) rotate(69.469) scale(7.89341 4.73163)">
<stop offset="0.437078" stop-color="#89787A"/>
<stop offset="0.730139" stop-color="#CCC7C7" stop-opacity="0"/>
</radialGradient>
<radialGradient id="paint60_radial_10033_34034" cx="0" cy="0" r="1" gradientUnits="userSpaceOnUse" gradientTransform="translate(147.563 80.2217) rotate(113.629) scale(5.65761 2.87264)">
<stop stop-color="#FFBCBC"/>
<stop offset="1" stop-color="#BF7777"/>
</radialGradient>
<linearGradient id="paint61_linear_10033_34034" x1="160.776" y1="130.187" x2="144.145" y2="27.41" gradientUnits="userSpaceOnUse">
<stop stop-color="#8C8C8C"/>
<stop offset="1" stop-color="#FFD1DA"/>
</linearGradient>
<radialGradient id="paint62_radial_10033_34034" cx="0" cy="0" r="1" gradientTransform="matrix(65.6648 -4.21276 1.99321 31.0766 172.66 61.8609)" gradientUnits="userSpaceOnUse">
<stop stop-color="#FFDAC2"/>
<stop offset="1" stop-color="#C2FFF4" stop-opacity="0"/>
</radialGradient>
<radialGradient id="paint63_radial_10033_34034" cx="0" cy="0" r="1" gradientTransform="matrix(28.3741 -0.348531 0.195663 15.9332 177.723 73.0046)" gradientUnits="userSpaceOnUse">
<stop offset="0.025" stop-color="white" stop-opacity="0.6"/>
<stop offset="0.555" stop-color="white" stop-opacity="0.6"/>
<stop offset="1" stop-color="white" stop-opacity="0"/>
</radialGradient>
<linearGradient id="paint64_linear_10033_34034" x1="155.848" y1="105.794" x2="143.858" y2="65.6354" gradientUnits="userSpaceOnUse">
<stop stop-color="#8C8C8C"/>
<stop offset="1" stop-color="#FFD1DA"/>
</linearGradient>
<radialGradient id="paint65_radial_10033_34034" cx="0" cy="0" r="1" gradientTransform="matrix(24.1493 -2.38548 0.324004 21.0527 153.688 77.1291)" gradientUnits="userSpaceOnUse">
<stop stop-color="#FFDAC2"/>
<stop offset="1" stop-color="#C2FFF4" stop-opacity="0"/>
</radialGradient>
<radialGradient id="paint66_radial_10033_34034" cx="0" cy="0" r="1" gradientTransform="matrix(9.28336 2.33274 -2.56988 9.576 156.751 79.603)" gradientUnits="userSpaceOnUse">
<stop offset="0.025" stop-color="white" stop-opacity="0.6"/>
<stop offset="0.555" stop-color="white" stop-opacity="0.6"/>
<stop offset="1" stop-color="white" stop-opacity="0"/>
</radialGradient>
<radialGradient id="paint67_radial_10033_34034" cx="0" cy="0" r="1" gradientUnits="userSpaceOnUse" gradientTransform="translate(154.807 75.8333) rotate(-31.373) scale(22.6277 7.91871)">
<stop offset="0.513497" stop-color="#DCD7D3"/>
<stop offset="1" stop-color="#DCD7D3" stop-opacity="0"/>
</radialGradient>
<radialGradient id="paint68_radial_10033_34034" cx="0" cy="0" r="1" gradientTransform="matrix(9.60786 12.7158 -3.31682 2.50039 160.954 80.3525)" gradientUnits="userSpaceOnUse">
<stop offset="0.608681" stop-color="#CCC7C7" stop-opacity="0"/>
<stop offset="1" stop-color="#89787A"/>
</radialGradient>
<radialGradient id="paint69_radial_10033_34034" cx="0" cy="0" r="1" gradientTransform="matrix(7.12423 14.2572 -3.71868 1.85414 158.339 81.5444)" gradientUnits="userSpaceOnUse">
<stop offset="0.608681" stop-color="#CCC7C7" stop-opacity="0"/>
<stop offset="1" stop-color="#89787A"/>
</radialGradient>
<radialGradient id="paint70_radial_10033_34034" cx="0" cy="0" r="1" gradientTransform="matrix(5.85013 14.8349 -3.86376 1.52475 155.556 83.0651)" gradientUnits="userSpaceOnUse">
<stop offset="0.608681" stop-color="#CCC7C7" stop-opacity="0"/>
<stop offset="1" stop-color="#89787A"/>
</radialGradient>
<radialGradient id="paint71_radial_10033_34034" cx="0" cy="0" r="1" gradientTransform="matrix(4.4745 15.3137 -3.98827 1.16627 152.745 83.6081)" gradientUnits="userSpaceOnUse">
<stop offset="0.608681" stop-color="#CCC7C7" stop-opacity="0"/>
<stop offset="1" stop-color="#89787A"/>
</radialGradient>
<linearGradient id="paint72_linear_10033_34034" x1="204.565" y1="130.594" x2="176.407" y2="75.1645" gradientUnits="userSpaceOnUse">
<stop stop-color="#8C8C8C"/>
<stop offset="1" stop-color="#FFD1DA"/>
</linearGradient>
<radialGradient id="paint73_radial_10033_34034" cx="0" cy="0" r="1" gradientTransform="matrix(20.4422 -6.7481 4.39236 31.052 200.456 89.3803)" gradientUnits="userSpaceOnUse">
<stop stop-color="#FFDAC2"/>
<stop offset="1" stop-color="#C2FFF4" stop-opacity="0"/>
</radialGradient>
<radialGradient id="paint74_radial_10033_34034" cx="0" cy="0" r="1" gradientTransform="matrix(5.97591 -0.230447 0.0412089 10.535 208.135 92.7858)" gradientUnits="userSpaceOnUse">
<stop offset="0.025" stop-color="white" stop-opacity="0.6"/>
<stop offset="0.555" stop-color="white" stop-opacity="0.6"/>
<stop offset="1" stop-color="white" stop-opacity="0"/>
</radialGradient>
<radialGradient id="paint75_radial_10033_34034" cx="0" cy="0" r="1" gradientUnits="userSpaceOnUse" gradientTransform="translate(205.934 82.9012) rotate(83.8879) scale(24.4009 11.6064)">
<stop offset="0.196441" stop-color="#B5AAAC"/>
<stop offset="1" stop-color="#B5AAAC" stop-opacity="0"/>
</radialGradient>
<linearGradient id="paint76_linear_10033_34034" x1="170.273" y1="128.567" x2="156.767" y2="79.4256" gradientUnits="userSpaceOnUse">
<stop stop-color="#8C8C8C"/>
<stop offset="1" stop-color="#FFD1DA"/>
</linearGradient>
<radialGradient id="paint77_radial_10033_34034" cx="0" cy="0" r="1" gradientTransform="matrix(23.5619 -3.40825 1.38587 18.9871 169.592 95.6238)" gradientUnits="userSpaceOnUse">
<stop stop-color="#FFDAC2"/>
<stop offset="1" stop-color="#C2FFF4" stop-opacity="0"/>
</radialGradient>
<radialGradient id="paint78_radial_10033_34034" cx="0" cy="0" r="1" gradientTransform="matrix(8.37179 -0.174661 0.0577305 7.98469 175.274 99.9112)" gradientUnits="userSpaceOnUse">
<stop offset="0.025" stop-color="white" stop-opacity="0.6"/>
<stop offset="0.555" stop-color="white" stop-opacity="0.6"/>
<stop offset="1" stop-color="white" stop-opacity="0"/>
</radialGradient>
<radialGradient id="paint79_radial_10033_34034" cx="0" cy="0" r="1" gradientUnits="userSpaceOnUse" gradientTransform="translate(175.83 91.6186) rotate(90) scale(19.1897 14.7193)">
<stop offset="0.196441" stop-color="#B5AAAC"/>
<stop offset="1" stop-color="#B5AAAC" stop-opacity="0"/>
</radialGradient>
<radialGradient id="paint80_radial_10033_34034" cx="0" cy="0" r="1" gradientTransform="matrix(2.97381 19.7014 -10.8429 2.47331 160.698 68.2707)" gradientUnits="userSpaceOnUse">
<stop offset="0.154714" stop-color="#CCC7C7" stop-opacity="0"/>
<stop offset="0.421672" stop-color="#89787A" stop-opacity="0.8"/>
</radialGradient>
<linearGradient id="paint81_linear_10033_34034" x1="182.548" y1="82.4504" x2="142.225" y2="42.5701" gradientUnits="userSpaceOnUse">
<stop stop-color="#8C8C8C"/>
<stop offset="1" stop-color="#FFD1DA"/>
</linearGradient>
<radialGradient id="paint82_radial_10033_34034" cx="0" cy="0" r="1" gradientTransform="matrix(19.2 -5.72613 3.91963 18.3634 157.574 67.1563)" gradientUnits="userSpaceOnUse">
<stop stop-color="#FFDAC2"/>
<stop offset="1" stop-color="#C2FFF4" stop-opacity="0"/>
</radialGradient>
<radialGradient id="paint83_radial_10033_34034" cx="0" cy="0" r="1" gradientTransform="matrix(-3.73836 -8.15107 7.19485 -3.00713 162.993 67.9978)" gradientUnits="userSpaceOnUse">
<stop offset="0.025" stop-color="white" stop-opacity="0.6"/>
<stop offset="0.555" stop-color="white" stop-opacity="0.6"/>
<stop offset="1" stop-color="white" stop-opacity="0"/>
</radialGradient>
<radialGradient id="paint84_radial_10033_34034" cx="0" cy="0" r="1" gradientTransform="matrix(2.00263 13.6072 -15.0581 2.01961 160.991 65.4695)" gradientUnits="userSpaceOnUse">
<stop offset="0.608681" stop-color="#CCC7C7" stop-opacity="0"/>
<stop offset="1" stop-color="#89787A"/>
</radialGradient>
<radialGradient id="paint85_radial_10033_34034" cx="0" cy="0" r="1" gradientTransform="matrix(2.7918 0.781608 -0.698572 2.71105 156.037 68.823)" gradientUnits="userSpaceOnUse">
<stop offset="0.188318" stop-color="#8E7F80"/>
<stop offset="0.756245" stop-color="#8E7F80" stop-opacity="0.7"/>
<stop offset="0.980769" stop-color="#8E7F80" stop-opacity="0"/>
</radialGradient>
<radialGradient id="paint86_radial_10033_34034" cx="0" cy="0" r="1" gradientTransform="matrix(-0.523506 2.94841 -2.9956 -0.512082 156.046 68.4988)" gradientUnits="userSpaceOnUse">
<stop stop-color="#F0EDE9"/>
<stop offset="0.643046" stop-color="#F0EDE9" stop-opacity="0.636884"/>
<stop offset="1" stop-color="#CECDCA" stop-opacity="0"/>
</radialGradient>
<radialGradient id="paint87_radial_10033_34034" cx="0" cy="0" r="1" gradientTransform="matrix(1.41315 1.25208 -1.20095 1.74613 156.06 67.9893)" gradientUnits="userSpaceOnUse">
<stop stop-color="#EDEBE7"/>
<stop offset="1" stop-color="#EDEBE7" stop-opacity="0"/>
</radialGradient>
<radialGradient id="paint88_radial_10033_34034" cx="0" cy="0" r="1" gradientUnits="userSpaceOnUse" gradientTransform="translate(155.795 68.2095) rotate(102.568) scale(2.3943)">
<stop stop-color="#563939"/>
<stop offset="1"/>
</radialGradient>
<linearGradient id="paint89_linear_10033_34034" x1="158.044" y1="68.4041" x2="153.011" y2="67.9915" gradientUnits="userSpaceOnUse">
<stop stop-color="#592A00"/>
<stop offset="1" stop-color="#FAB500"/>
</linearGradient>
<radialGradient id="paint90_radial_10033_34034" cx="0" cy="0" r="1" gradientUnits="userSpaceOnUse" gradientTransform="translate(155.683 68.9293) rotate(142.275) scale(1.55695 1.84762)">
<stop stop-color="#592A00" stop-opacity="0"/>
<stop offset="1" stop-color="#361A01"/>
</radialGradient>
<linearGradient id="paint91_linear_10033_34034" x1="155.268" y1="67.369" x2="155.268" y2="70.0487" gradientUnits="userSpaceOnUse">
<stop stop-color="#171155"/>
<stop offset="1" stop-color="#592A00"/>
</linearGradient>
<linearGradient id="paint92_linear_10033_34034" x1="154.72" y1="68.1654" x2="154.8" y2="69.0557" gradientUnits="userSpaceOnUse">
<stop stop-color="white"/>
<stop offset="1" stop-color="white" stop-opacity="0"/>
</linearGradient>
<radialGradient id="paint93_radial_10033_34034" cx="0" cy="0" r="1" gradientTransform="matrix(-8.03943 22.6735 -7.91999 -2.80682 174.502 99.7368)" gradientUnits="userSpaceOnUse">
<stop offset="0.608681" stop-color="#CCC7C7" stop-opacity="0"/>
<stop offset="1" stop-color="#89787A"/>
</radialGradient>
<radialGradient id="paint94_radial_10033_34034" cx="0" cy="0" r="1" gradientTransform="matrix(-3.57181 23.7941 -8.30903 -1.24739 206.662 95.1438)" gradientUnits="userSpaceOnUse">
<stop offset="0.608681" stop-color="#CCC7C7" stop-opacity="0"/>
<stop offset="1" stop-color="#89787A"/>
</radialGradient>
<radialGradient id="paint95_radial_10033_34034" cx="0" cy="0" r="1" gradientTransform="matrix(-12.6121 20.4959 -7.16229 -4.40149 171.076 99.0062)" gradientUnits="userSpaceOnUse">
<stop offset="0.608681" stop-color="#CCC7C7" stop-opacity="0"/>
<stop offset="1" stop-color="#89787A"/>
</radialGradient>
<radialGradient id="paint96_radial_10033_34034" cx="0" cy="0" r="1" gradientTransform="matrix(-8.04271 22.6754 -7.92321 -2.80706 204.066 94.6518)" gradientUnits="userSpaceOnUse">
<stop offset="0.608681" stop-color="#CCC7C7" stop-opacity="0"/>
<stop offset="1" stop-color="#89787A"/>
</radialGradient>
<linearGradient id="paint97_linear_10033_34034" x1="65.0548" y1="124.152" x2="47.674" y2="77.0896" gradientUnits="userSpaceOnUse">
<stop stop-color="#8C8C8C"/>
<stop offset="1" stop-color="#FFD1DA"/>
</linearGradient>
<radialGradient id="paint98_radial_10033_34034" cx="0" cy="0" r="1" gradientUnits="userSpaceOnUse" gradientTransform="translate(67.6952 89.5047) rotate(-8.33018) scale(14.745 16.0902)">
<stop stop-color="#FFDAC2"/>
<stop offset="1" stop-color="#FFEFC2" stop-opacity="0"/>
</radialGradient>
<radialGradient id="paint99_radial_10033_34034" cx="0" cy="0" r="1" gradientUnits="userSpaceOnUse" gradientTransform="translate(64.8808 96.1833) rotate(-149.962) scale(15.6386 9.29516)">
<stop offset="0.025" stop-color="white" stop-opacity="0.6"/>
<stop offset="0.555" stop-color="white" stop-opacity="0.6"/>
<stop offset="1" stop-color="white" stop-opacity="0"/>
</radialGradient>
<radialGradient id="paint100_radial_10033_34034" cx="0" cy="0" r="1" gradientUnits="userSpaceOnUse" gradientTransform="translate(57.13 98.4827) rotate(29.9059) scale(18.2406 14.3079)">
<stop offset="0.632106" stop-color="#CCC7C7" stop-opacity="0"/>
<stop offset="1" stop-color="#89787A"/>
</radialGradient>
<linearGradient id="paint101_linear_10033_34034" x1="70.0573" y1="87.814" x2="62.0347" y2="59.3925" gradientUnits="userSpaceOnUse">
<stop stop-color="#8C8C8C"/>
<stop offset="1" stop-color="#FFD1DA"/>
</linearGradient>
<radialGradient id="paint102_radial_10033_34034" cx="0" cy="0" r="1" gradientTransform="matrix(10.9525 -1.22571 0.332455 9.04179 72.0395 67.9345)" gradientUnits="userSpaceOnUse">
<stop stop-color="#FFDAC2"/>
<stop offset="1" stop-color="#FFEFC2" stop-opacity="0"/>
</radialGradient>
<radialGradient id="paint103_radial_10033_34034" cx="0" cy="0" r="1" gradientTransform="matrix(4.90975 -1.29071 1.19475 4.82602 73.1984 71.7665)" gradientUnits="userSpaceOnUse">
<stop offset="0.025" stop-color="white" stop-opacity="0.6"/>
<stop offset="0.555" stop-color="white" stop-opacity="0.6"/>
<stop offset="1" stop-color="white" stop-opacity="0"/>
</radialGradient>
<linearGradient id="paint104_linear_10033_34034" x1="37.2257" y1="122.501" x2="19.8606" y2="83.7016" gradientUnits="userSpaceOnUse">
<stop stop-color="#8C8C8C"/>
<stop offset="1" stop-color="#FFD1DA"/>
</linearGradient>
<radialGradient id="paint105_radial_10033_34034" cx="0" cy="0" r="1" gradientTransform="matrix(10.4834 -1.86022 1.67505 13.8635 39.123 92.3304)" gradientUnits="userSpaceOnUse">
<stop stop-color="#FFDAC2"/>
<stop offset="1" stop-color="#FFEFC2" stop-opacity="0"/>
</radialGradient>
<radialGradient id="paint106_radial_10033_34034" cx="0" cy="0" r="1" gradientTransform="matrix(-9.72804 -6.81695 3.34346 -7.0071 37.1007 98.1461)" gradientUnits="userSpaceOnUse">
<stop offset="0.025" stop-color="white" stop-opacity="0.6"/>
<stop offset="0.555" stop-color="white" stop-opacity="0.6"/>
<stop offset="1" stop-color="white" stop-opacity="0"/>
</radialGradient>
<radialGradient id="paint107_radial_10033_34034" cx="0" cy="0" r="1" gradientTransform="matrix(11.3618 7.91937 -5.12595 10.8003 31.5312 100.148)" gradientUnits="userSpaceOnUse">
<stop offset="0.632106" stop-color="#CCC7C7" stop-opacity="0"/>
<stop offset="1" stop-color="#89787A"/>
</radialGradient>
<linearGradient id="paint108_linear_10033_34034" x1="41.702" y1="141.777" x2="20.9535" y2="43.7681" gradientUnits="userSpaceOnUse">
<stop stop-color="#8C8C8C"/>
<stop offset="1" stop-color="#FFD1DA"/>
</linearGradient>
<radialGradient id="paint109_radial_10033_34034" cx="0" cy="0" r="1" gradientTransform="matrix(48.733 -4.09028 1.47926 30.1731 50.5218 75.4378)" gradientUnits="userSpaceOnUse">
<stop stop-color="#FFEAC2"/>
<stop offset="1" stop-color="#FFEFC2" stop-opacity="0"/>
</radialGradient>
<radialGradient id="paint110_radial_10033_34034" cx="0" cy="0" r="1" gradientTransform="matrix(21.0578 -0.338398 0.145211 15.47 54.279 86.2576)" gradientUnits="userSpaceOnUse">
<stop offset="0.025" stop-color="white" stop-opacity="0.6"/>
<stop offset="0.555" stop-color="white" stop-opacity="0.6"/>
<stop offset="1" stop-color="white" stop-opacity="0"/>
</radialGradient>
<radialGradient id="paint111_radial_10033_34034" cx="0" cy="0" r="1" gradientTransform="matrix(-20.7814 15.3405 -6.79594 -9.2063 45.2535 65.5227)" gradientUnits="userSpaceOnUse">
<stop offset="0.680025" stop-color="#CCC7C7" stop-opacity="0"/>
<stop offset="1" stop-color="#89787A"/>
</radialGradient>
<linearGradient id="paint112_linear_10033_34034" x1="40.2259" y1="125.331" x2="17.2101" y2="86.6473" gradientUnits="userSpaceOnUse">
<stop stop-color="#8C8C8C"/>
<stop offset="1" stop-color="#FFD1DA"/>
</linearGradient>
<radialGradient id="paint113_radial_10033_34034" cx="0" cy="0" r="1" gradientTransform="matrix(10.9334 -5.04213 5.93669 19.8155 39.767 94.3491)" gradientUnits="userSpaceOnUse">
<stop stop-color="#FFDAC2"/>
<stop offset="1" stop-color="#FFEFC2" stop-opacity="0"/>
</radialGradient>
<radialGradient id="paint114_radial_10033_34034" cx="0" cy="0" r="1" gradientUnits="userSpaceOnUse" gradientTransform="translate(38.9402 99.413) rotate(-92.6646) scale(14.4839 8.07816)">
<stop offset="0.025" stop-color="white" stop-opacity="0.6"/>
<stop offset="0.555" stop-color="white" stop-opacity="0.6"/>
<stop offset="1" stop-color="white" stop-opacity="0"/>
</radialGradient>
<radialGradient id="paint115_radial_10033_34034" cx="0" cy="0" r="1" gradientTransform="matrix(2.13224 13.9158 -11.7658 7.31841 35.9432 97.9399)" gradientUnits="userSpaceOnUse">
<stop offset="0.632106" stop-color="#CCC7C7" stop-opacity="0"/>
<stop offset="1" stop-color="#89787A"/>
</radialGradient>
<radialGradient id="paint116_radial_10033_34034" cx="0" cy="0" r="1" gradientUnits="userSpaceOnUse" gradientTransform="translate(41.4463 88.4584) rotate(138.583) scale(10.2323 4.70508)">
<stop stop-color="#EEE0D4"/>
<stop offset="1" stop-color="#E7D7CA" stop-opacity="0"/>
</radialGradient>
<radialGradient id="paint117_radial_10033_34034" cx="0" cy="0" r="1" gradientUnits="userSpaceOnUse" gradientTransform="translate(45.6835 88.1476) rotate(112.574) scale(5.31704 4.74449)">
<stop offset="0.321317" stop-color="#F6EDE4"/>
<stop offset="1" stop-color="#F6EDE4" stop-opacity="0"/>
</radialGradient>
<linearGradient id="paint118_linear_10033_34034" x1="27.0857" y1="93.2694" x2="17.4959" y2="47.9024" gradientUnits="userSpaceOnUse">
<stop stop-color="#8C8C8C"/>
<stop offset="1" stop-color="#FFD1DA"/>
</linearGradient>
<radialGradient id="paint119_radial_10033_34034" cx="0" cy="0" r="1" gradientTransform="matrix(26.1462 -2.48028 0.971838 16.1703 29.8469 63.5516)" gradientUnits="userSpaceOnUse">
<stop stop-color="#FFEAC2"/>
<stop offset="1" stop-color="#FFEFC2" stop-opacity="0"/>
</radialGradient>
<radialGradient id="paint120_radial_10033_34034" cx="0" cy="0" r="1" gradientTransform="matrix(12.1167 -1.33493 0.920074 8.8936 32.9154 67.5735)" gradientUnits="userSpaceOnUse">
<stop offset="0.025" stop-color="white" stop-opacity="0.6"/>
<stop offset="0.555" stop-color="white" stop-opacity="0.6"/>
<stop offset="1" stop-color="white" stop-opacity="0"/>
</radialGradient>
<radialGradient id="paint121_radial_10033_34034" cx="0" cy="0" r="1" gradientTransform="matrix(5.42528 7.64569 -2.89284 2.05433 26.0712 64.1717)" gradientUnits="userSpaceOnUse">
<stop offset="0.608681" stop-color="#CCC7C7" stop-opacity="0"/>
<stop offset="1" stop-color="#89787A"/>
</radialGradient>
<radialGradient id="paint122_radial_10033_34034" cx="0" cy="0" r="1" gradientTransform="matrix(-4.858 9.28168 -3.66524 -1.91682 32.8455 68.823)" gradientUnits="userSpaceOnUse">
<stop offset="0.608681" stop-color="#CCC7C7" stop-opacity="0"/>
<stop offset="1" stop-color="#89787A"/>
</radialGradient>
<linearGradient id="paint123_linear_10033_34034" x1="17.4466" y1="67.7897" x2="29.8188" y2="73.9092" gradientUnits="userSpaceOnUse">
<stop stop-color="#BABAFF"/>
<stop offset="1" stop-color="#944600"/>
</linearGradient>
<radialGradient id="paint124_radial_10033_34034" cx="0" cy="0" r="1" gradientTransform="matrix(1.30918 5.22565 -5.75076 1.51657 24.7939 69.7225)" gradientUnits="userSpaceOnUse">
<stop offset="0.115" stop-color="#571505" stop-opacity="0"/>
<stop offset="0.791387" stop-color="#260902"/>
</radialGradient>
<linearGradient id="paint125_linear_10033_34034" x1="23.3505" y1="56.5019" x2="40.6546" y2="61.8938" gradientUnits="userSpaceOnUse">
<stop stop-color="#BABAFF"/>
<stop offset="1" stop-color="#944600"/>
</linearGradient>
<radialGradient id="paint126_radial_10033_34034" cx="0" cy="0" r="1" gradientTransform="matrix(1.61398 10.2263 -7.08963 2.96784 32.4084 60.2844)" gradientUnits="userSpaceOnUse">
<stop offset="0.115" stop-color="#571505" stop-opacity="0"/>
<stop offset="0.791387" stop-color="#260902"/>
</radialGradient>
<radialGradient id="paint127_radial_10033_34034" cx="0" cy="0" r="1" gradientTransform="matrix(2.02558 0.685689 -0.506845 2.37835 27.7599 66.0301)" gradientUnits="userSpaceOnUse">
<stop offset="0.188318" stop-color="#8E7F80"/>
<stop offset="0.756245" stop-color="#8E7F80" stop-opacity="0.7"/>
<stop offset="0.980769" stop-color="#8E7F80" stop-opacity="0"/>
</radialGradient>
<radialGradient id="paint128_radial_10033_34034" cx="0" cy="0" r="1" gradientTransform="matrix(-0.379827 2.58658 -2.17344 -0.449239 27.7662 65.7456)" gradientUnits="userSpaceOnUse">
<stop stop-color="#F0EDE9"/>
<stop offset="0.643046" stop-color="#F0EDE9" stop-opacity="0.636884"/>
<stop offset="1" stop-color="#CECDCA" stop-opacity="0"/>
</radialGradient>
<radialGradient id="paint129_radial_10033_34034" cx="0" cy="0" r="1" gradientTransform="matrix(1.0253 1.09843 -0.871343 1.53184 27.7762 65.2987)" gradientUnits="userSpaceOnUse">
<stop stop-color="#EDEBE7"/>
<stop offset="1" stop-color="#EDEBE7" stop-opacity="0"/>
</radialGradient>
<radialGradient id="paint130_radial_10033_34034" cx="0" cy="0" r="1" gradientTransform="matrix(-0.377997 2.05014 1.69555 0.457048 27.5859 65.4921)" gradientUnits="userSpaceOnUse">
<stop stop-color="#563939"/>
<stop offset="1"/>
</radialGradient>
<linearGradient id="paint131_linear_10033_34034" x1="29.2181" y1="65.6628" x2="25.5583" y2="65.4147" gradientUnits="userSpaceOnUse">
<stop stop-color="#592A00"/>
<stop offset="1" stop-color="#FAB500"/>
</linearGradient>
<radialGradient id="paint132_radial_10033_34034" cx="0" cy="0" r="1" gradientTransform="matrix(-0.89349 0.835753 0.82024 1.28204 27.5051 66.1236)" gradientUnits="userSpaceOnUse">
<stop stop-color="#592A00" stop-opacity="0"/>
<stop offset="1" stop-color="#361A01"/>
</radialGradient>
<linearGradient id="paint133_linear_10033_34034" x1="27.2036" y1="64.7547" x2="27.2036" y2="67.1055" gradientUnits="userSpaceOnUse">
<stop stop-color="#171155"/>
<stop offset="1" stop-color="#592A00"/>
</linearGradient>
<linearGradient id="paint134_linear_10033_34034" x1="26.8041" y1="65.4537" x2="26.8893" y2="66.2364" gradientUnits="userSpaceOnUse">
<stop stop-color="white"/>
<stop offset="1" stop-color="white" stop-opacity="0"/>
</linearGradient>
</defs>
</svg>
