<svg viewBox="0 0 240 120" fill="none" xmlns="http://www.w3.org/2000/svg">
<path fill-rule="evenodd" clip-rule="evenodd" d="M210.01 119.999H35.9298C13.299 29.6686 62.6076 2.60735 130.131 4.0962C217.445 4.0962 221.391 59.5227 210.01 119.999Z" fill="url(#paint0_radial_9820_34800)"/>
<path d="M144.679 32.3887C142.227 32.3887 139.735 50.2947 139.63 56.679C128.248 62.8354 186.335 63.7066 183.173 61.1986C180.011 58.6906 180.409 45.5344 177.564 45.5344C174.718 45.5344 176.2 49.8506 173.038 49.8506C170.509 49.8506 171.939 38.1787 170.047 37.4048C168.154 36.6308 162.964 41.0073 161.194 40.8249C158.98 40.5969 158.237 32.3892 156.451 32.3887C154.665 32.3881 150.737 36.3032 148.863 36.0368C146.989 35.7705 147.131 32.3887 144.679 32.3887Z" fill="url(#paint1_linear_9820_34800)"/>
<path d="M144.679 32.3887C142.227 32.3887 139.735 50.2947 139.63 56.679C128.248 62.8354 186.335 63.7066 183.173 61.1986C180.011 58.6906 180.409 45.5344 177.564 45.5344C174.718 45.5344 176.2 49.8506 173.038 49.8506C170.509 49.8506 171.939 38.1787 170.047 37.4048C168.154 36.6308 162.964 41.0073 161.194 40.8249C158.98 40.5969 158.237 32.3892 156.451 32.3887C154.665 32.3881 150.737 36.3032 148.863 36.0368C146.989 35.7705 147.131 32.3887 144.679 32.3887Z" fill="url(#paint2_radial_9820_34800)"/>
<path d="M144.679 32.3887C142.227 32.3887 139.735 50.2947 139.63 56.679C128.248 62.8354 186.335 63.7066 183.173 61.1986C180.011 58.6906 180.409 45.5344 177.564 45.5344C174.718 45.5344 176.2 49.8506 173.038 49.8506C170.509 49.8506 171.939 38.1787 170.047 37.4048C168.154 36.6308 162.964 41.0073 161.194 40.8249C158.98 40.5969 158.237 32.3892 156.451 32.3887C154.665 32.3881 150.737 36.3032 148.863 36.0368C146.989 35.7705 147.131 32.3887 144.679 32.3887Z" fill="url(#paint3_radial_9820_34800)"/>
<path d="M144.679 32.3887C142.227 32.3887 139.735 50.2947 139.63 56.679C128.248 62.8354 186.335 63.7066 183.173 61.1986C180.011 58.6906 180.409 45.5344 177.564 45.5344C174.718 45.5344 176.2 49.8506 173.038 49.8506C170.509 49.8506 171.939 38.1787 170.047 37.4048C168.154 36.6308 162.964 41.0073 161.194 40.8249C158.98 40.5969 158.237 32.3892 156.451 32.3887C154.665 32.3881 150.737 36.3032 148.863 36.0368C146.989 35.7705 147.131 32.3887 144.679 32.3887Z" fill="url(#paint4_radial_9820_34800)"/>
<path d="M88.2352 48.1633C89.3014 45.6075 100.496 47.9078 98.3635 55.5752C103.055 66.003 85.2143 84.4559 75.7076 92.3789C68.9556 90.4194 53.9056 86.7561 47.722 87.7784C39.9924 89.0563 25.3331 72.9547 41.3247 65.5428C37.8597 64.5205 32.529 51.7414 47.722 48.1633C44.257 40.7515 61.3152 30.2724 69.0447 41.0072C72.5097 36.9179 86.3695 39.9848 88.2352 48.1633Z" fill="url(#paint5_radial_9820_34800)"/>
<path d="M88.2352 48.1633C89.3014 45.6075 100.496 47.9078 98.3635 55.5752C103.055 66.003 85.2143 84.4559 75.7076 92.3789C68.9556 90.4194 53.9056 86.7561 47.722 87.7784C39.9924 89.0563 25.3331 72.9547 41.3247 65.5428C37.8597 64.5205 32.529 51.7414 47.722 48.1633C44.257 40.7515 61.3152 30.2724 69.0447 41.0072C72.5097 36.9179 86.3695 39.9848 88.2352 48.1633Z" fill="url(#paint6_radial_9820_34800)"/>
<path d="M55.9604 83.7472C53.6527 88.6686 29.711 93.1622 44.4225 95.5245L174.805 87.0245C179.805 87.6807 224.132 136.864 205.382 87.0235C186.633 37.1831 121.743 51.7624 109.902 51.7866C97.4978 52.5741 98.364 56.6925 97.2102 58.5824C95.7679 60.9447 103.267 60.1572 100.96 62.5195C98.6519 64.8818 77.0169 60.6499 84.5175 65.2755C92.018 69.9011 69.2298 68.0316 74.422 72.3625C79.6143 76.6934 52.7873 74.4208 51.0566 78.5549C49.3258 82.6889 58.2681 78.8257 55.9604 83.7472Z" fill="url(#paint7_linear_9820_34800)"/>
<path d="M55.9604 83.7472C53.6527 88.6686 29.711 93.1622 44.4225 95.5245L174.805 87.0245C179.805 87.6807 224.132 136.864 205.382 87.0235C186.633 37.1831 121.743 51.7624 109.902 51.7866C97.4978 52.5741 98.364 56.6925 97.2102 58.5824C95.7679 60.9447 103.267 60.1572 100.96 62.5195C98.6519 64.8818 77.0169 60.6499 84.5175 65.2755C92.018 69.9011 69.2298 68.0316 74.422 72.3625C79.6143 76.6934 52.7873 74.4208 51.0566 78.5549C49.3258 82.6889 58.2681 78.8257 55.9604 83.7472Z" fill="url(#paint8_radial_9820_34800)"/>
<path d="M55.9604 83.7472C53.6527 88.6686 29.711 93.1622 44.4225 95.5245L174.805 87.0245C179.805 87.6807 224.132 136.864 205.382 87.0235C186.633 37.1831 121.743 51.7624 109.902 51.7866C97.4978 52.5741 98.364 56.6925 97.2102 58.5824C95.7679 60.9447 103.267 60.1572 100.96 62.5195C98.6519 64.8818 77.0169 60.6499 84.5175 65.2755C92.018 69.9011 69.2298 68.0316 74.422 72.3625C79.6143 76.6934 52.7873 74.4208 51.0566 78.5549C49.3258 82.6889 58.2681 78.8257 55.9604 83.7472Z" fill="url(#paint9_radial_9820_34800)"/>
<path d="M72.4956 69.5908C68.7456 69.5908 55.188 93.2445 55.188 93.2445L133.072 100.168C131.822 99.4945 129.149 96.0714 128.457 87.7638C127.591 77.3792 121.245 75.0716 113.745 76.5139C106.245 77.9562 99.6108 80.5523 94.4185 79.6869C89.2262 78.8215 87.207 71.0331 82.3032 72.4754C77.3994 73.9177 76.2455 69.5908 72.4956 69.5908Z" fill="url(#paint10_linear_9820_34800)"/>
<path d="M72.4956 69.5908C68.7456 69.5908 55.188 93.2445 55.188 93.2445L133.072 100.168C131.822 99.4945 129.149 96.0714 128.457 87.7638C127.591 77.3792 121.245 75.0716 113.745 76.5139C106.245 77.9562 99.6108 80.5523 94.4185 79.6869C89.2262 78.8215 87.207 71.0331 82.3032 72.4754C77.3994 73.9177 76.2455 69.5908 72.4956 69.5908Z" fill="url(#paint11_radial_9820_34800)"/>
<path d="M72.4956 69.5908C68.7456 69.5908 55.188 93.2445 55.188 93.2445L133.072 100.168C131.822 99.4945 129.149 96.0714 128.457 87.7638C127.591 77.3792 121.245 75.0716 113.745 76.5139C106.245 77.9562 99.6108 80.5523 94.4185 79.6869C89.2262 78.8215 87.207 71.0331 82.3032 72.4754C77.3994 73.9177 76.2455 69.5908 72.4956 69.5908Z" fill="url(#paint12_radial_9820_34800)"/>
<path d="M54.2363 92.74C37.9955 97.2832 31.9052 104.098 25.8149 119.999L214.614 119.999C212.584 83.6532 145.591 83.6535 125.29 92.74C104.989 101.826 70.4771 88.1968 54.2363 92.74Z" fill="url(#paint13_linear_9820_34800)"/>
<path d="M54.2363 92.74C37.9955 97.2832 31.9052 104.098 25.8149 119.999L214.614 119.999C212.584 83.6532 145.591 83.6535 125.29 92.74C104.989 101.826 70.4771 88.1968 54.2363 92.74Z" fill="url(#paint14_radial_9820_34800)"/>
<path d="M156.897 73.1968C153.785 73.1968 142.537 96.8505 142.537 96.8505C142.537 96.8505 150.459 104.09 170.746 106.153C191.032 108.216 205.342 106.746 207.619 103.89C205.775 102.708 204.108 102.057 203.533 93.7495C202.815 83.365 196.353 81.8506 190.131 83.2929C183.909 84.7352 179.393 84.1582 175.085 83.2929C170.777 82.4275 169.102 74.6391 165.034 76.0814C160.965 77.5237 160.008 73.1968 156.897 73.1968Z" fill="url(#paint15_linear_9820_34800)"/>
<path d="M156.897 73.1968C153.785 73.1968 142.537 96.8505 142.537 96.8505C142.537 96.8505 150.459 104.09 170.746 106.153C191.032 108.216 205.342 106.746 207.619 103.89C205.775 102.708 204.108 102.057 203.533 93.7495C202.815 83.365 196.353 81.8506 190.131 83.2929C183.909 84.7352 179.393 84.1582 175.085 83.2929C170.777 82.4275 169.102 74.6391 165.034 76.0814C160.965 77.5237 160.008 73.1968 156.897 73.1968Z" fill="url(#paint16_radial_9820_34800)"/>
<path d="M156.897 73.1968C153.785 73.1968 142.537 96.8505 142.537 96.8505C142.537 96.8505 150.459 104.09 170.746 106.153C191.032 108.216 205.342 106.746 207.619 103.89C205.775 102.708 204.108 102.057 203.533 93.7495C202.815 83.365 196.353 81.8506 190.131 83.2929C183.909 84.7352 179.393 84.1582 175.085 83.2929C170.777 82.4275 169.102 74.6391 165.034 76.0814C160.965 77.5237 160.008 73.1968 156.897 73.1968Z" fill="url(#paint17_radial_9820_34800)"/>
<path d="M76.4405 99.4732C76.585 94.4739 65.1906 91.9028 49.8629 90.4053L49.8627 91.9028C57.3471 93.6608 70.9013 95.7228 70.527 99.4732C70.0593 104.161 43.1578 109.743 49.8627 119.998H69.3538C51.0557 109.186 76.2959 104.473 76.4405 99.4732Z" fill="url(#paint18_linear_9820_34800)"/>
<path d="M45.1427 85.141C43.0744 84.9279 43.7615 77.2573 40.7106 77.2573C37.6597 77.2573 37.645 98.8918 34.1553 104.093C37.2123 107.113 67.4399 104.016 64.4851 101.673C61.5304 99.3288 63.1 89.5421 60.4407 89.5421C57.7815 89.5421 59.1666 93.5755 56.2119 93.5755C53.8482 93.5755 55.1841 82.6681 53.4159 81.9449C51.6477 81.2216 46.7973 85.3115 45.1427 85.141Z" fill="url(#paint19_linear_9820_34800)"/>
<path d="M45.1427 85.141C43.0744 84.9279 43.7615 77.2573 40.7106 77.2573C37.6597 77.2573 37.645 98.8918 34.1553 104.093C37.2123 107.113 67.4399 104.016 64.4851 101.673C61.5304 99.3288 63.1 89.5421 60.4407 89.5421C57.7815 89.5421 59.1666 93.5755 56.2119 93.5755C53.8482 93.5755 55.1841 82.6681 53.4159 81.9449C51.6477 81.2216 46.7973 85.3115 45.1427 85.141Z" fill="url(#paint20_radial_9820_34800)"/>
<path d="M45.1427 85.141C43.0744 84.9279 43.7615 77.2573 40.7106 77.2573C37.6597 77.2573 37.645 98.8918 34.1553 104.093C37.2123 107.113 67.4399 104.016 64.4851 101.673C61.5304 99.3288 63.1 89.5421 60.4407 89.5421C57.7815 89.5421 59.1666 93.5755 56.2119 93.5755C53.8482 93.5755 55.1841 82.6681 53.4159 81.9449C51.6477 81.2216 46.7973 85.3115 45.1427 85.141Z" fill="url(#paint21_radial_9820_34800)"/>
<path d="M45.1427 85.141C43.0744 84.9279 43.7615 77.2573 40.7106 77.2573C37.6597 77.2573 37.645 98.8918 34.1553 104.093C37.2123 107.113 67.4399 104.016 64.4851 101.673C61.5304 99.3288 63.1 89.5421 60.4407 89.5421C57.7815 89.5421 59.1666 93.5755 56.2119 93.5755C53.8482 93.5755 55.1841 82.6681 53.4159 81.9449C51.6477 81.2216 46.7973 85.3115 45.1427 85.141Z" fill="url(#paint22_radial_9820_34800)"/>
<path d="M85.9602 90.2176C89.0612 88.9917 89.7823 82.4292 96.2727 84.809L85.2393 120.001H68.2918C68.0273 118.535 67.8591 115.227 69.3017 113.727C69.1575 105.65 75.143 104.929 76.6574 100.314C78.1718 95.6983 82.8593 91.4436 85.9602 90.2176Z" fill="url(#paint23_linear_9820_34800)"/>
<path d="M85.9602 90.2176C89.0612 88.9917 89.7823 82.4292 96.2727 84.809L85.2393 120.001H68.2918C68.0273 118.535 67.8591 115.227 69.3017 113.727C69.1575 105.65 75.143 104.929 76.6574 100.314C78.1718 95.6983 82.8593 91.4436 85.9602 90.2176Z" fill="url(#paint24_radial_9820_34800)"/>
<path d="M85.9602 90.2176C89.0612 88.9917 89.7823 82.4292 96.2727 84.809L85.2393 120.001H68.2918C68.0273 118.535 67.8591 115.227 69.3017 113.727C69.1575 105.65 75.143 104.929 76.6574 100.314C78.1718 95.6983 82.8593 91.4436 85.9602 90.2176Z" fill="url(#paint25_radial_9820_34800)"/>
<path d="M85.1672 105.939C86.2056 101.381 96.2011 89.3527 98.8694 84.8815L140.985 79.8335C142.066 82.7662 143.941 89.6844 142.787 93.8959C141.634 98.1074 123.557 113.054 114.663 120.002H84.5181C84.3018 117.213 84.1287 110.497 85.1672 105.939Z" fill="url(#paint26_linear_9820_34800)"/>
<path d="M85.1672 105.939C86.2056 101.381 96.2011 89.3527 98.8694 84.8815L140.985 79.8335C142.066 82.7662 143.941 89.6844 142.787 93.8959C141.634 98.1074 123.557 113.054 114.663 120.002H84.5181C84.3018 117.213 84.1287 110.497 85.1672 105.939Z" fill="url(#paint27_radial_9820_34800)"/>
<path d="M85.1672 105.939C86.2056 101.381 96.2011 89.3527 98.8694 84.8815L140.985 79.8335C142.066 82.7662 143.941 89.6844 142.787 93.8959C141.634 98.1074 123.557 113.054 114.663 120.002H84.5181C84.3018 117.213 84.1287 110.497 85.1672 105.939Z" fill="url(#paint28_radial_9820_34800)"/>
<path d="M98.9414 84.0165C100.456 81.4925 110.119 76.1562 111.417 75.2187C110.48 72.1177 110.047 65.9879 110.047 62.3101L125.191 56.9013C129.662 54.7378 139.153 57.2762 141.922 71.18C144.691 85.0838 137.451 95.2904 133.484 98.6558L122.235 107.382C119.711 107.622 112.586 107.612 104.278 105.651C95.9703 103.689 91.9703 98.8721 91.0088 96.7087C92.3069 93.0789 97.7299 86.0357 98.9414 84.0165Z" fill="url(#paint29_linear_9820_34800)"/>
<path d="M98.9414 84.0165C100.456 81.4925 110.119 76.1562 111.417 75.2187C110.48 72.1177 110.047 65.9879 110.047 62.3101L125.191 56.9013C129.662 54.7378 139.153 57.2762 141.922 71.18C144.691 85.0838 137.451 95.2904 133.484 98.6558L122.235 107.382C119.711 107.622 112.586 107.612 104.278 105.651C95.9703 103.689 91.9703 98.8721 91.0088 96.7087C92.3069 93.0789 97.7299 86.0357 98.9414 84.0165Z" fill="url(#paint30_radial_9820_34800)"/>
<path d="M98.9414 84.0165C100.456 81.4925 110.119 76.1562 111.417 75.2187C110.48 72.1177 110.047 65.9879 110.047 62.3101L125.191 56.9013C129.662 54.7378 139.153 57.2762 141.922 71.18C144.691 85.0838 137.451 95.2904 133.484 98.6558L122.235 107.382C119.711 107.622 112.586 107.612 104.278 105.651C95.9703 103.689 91.9703 98.8721 91.0088 96.7087C92.3069 93.0789 97.7299 86.0357 98.9414 84.0165Z" fill="url(#paint31_radial_9820_34800)"/>
<path d="M98.9414 84.0165C100.456 81.4925 110.119 76.1562 111.417 75.2187C110.48 72.1177 110.047 65.9879 110.047 62.3101L125.191 56.9013C129.662 54.7378 139.153 57.2762 141.922 71.18C144.691 85.0838 137.451 95.2904 133.484 98.6558L122.235 107.382C119.711 107.622 112.586 107.612 104.278 105.651C95.9703 103.689 91.9703 98.8721 91.0088 96.7087C92.3069 93.0789 97.7299 86.0357 98.9414 84.0165Z" fill="url(#paint32_radial_9820_34800)"/>
<path d="M98.9414 84.0165C100.456 81.4925 110.119 76.1562 111.417 75.2187C110.48 72.1177 110.047 65.9879 110.047 62.3101L125.191 56.9013C129.662 54.7378 139.153 57.2762 141.922 71.18C144.691 85.0838 137.451 95.2904 133.484 98.6558L122.235 107.382C119.711 107.622 112.586 107.612 104.278 105.651C95.9703 103.689 91.9703 98.8721 91.0088 96.7087C92.3069 93.0789 97.7299 86.0357 98.9414 84.0165Z" fill="url(#paint33_radial_9820_34800)"/>
<path d="M138.316 97.1412L158.725 91.5883C156.787 85.6073 150.655 73.9995 146.393 69.5933C138.677 69.5933 136.874 90.8672 136.874 91.5883C136.874 92.1652 137.836 95.5306 138.316 97.1412Z" fill="url(#paint34_linear_9820_34800)"/>
<path d="M138.316 97.1412L158.725 91.5883C156.787 85.6073 150.655 73.9995 146.393 69.5933C138.677 69.5933 136.874 90.8672 136.874 91.5883C136.874 92.1652 137.836 95.5306 138.316 97.1412Z" fill="url(#paint35_radial_9820_34800)"/>
<path d="M90.0799 40.6752C87.1232 29.8579 95.9212 27.2618 98.0847 23.8003L120.297 50.3386C116.835 63.8 106.797 88.271 94.3352 78.4634C78.7584 66.2039 93.0366 51.4924 90.0799 40.6752Z" fill="url(#paint36_radial_9820_34800)"/>
<path d="M98.4768 24.269C95.8646 27.5121 88.0043 30.3597 90.8237 40.6752C93.7804 51.4923 79.503 66.204 95.0785 78.4634C96.9539 79.9395 98.776 80.6304 100.528 80.708C98.5491 80.8184 96.4777 80.1499 94.3348 78.4634C78.7586 66.2039 93.0367 51.4923 90.0801 40.6752C87.1234 29.8579 95.9213 27.2618 98.0847 23.8003L98.4768 24.269Z" fill="url(#paint37_radial_9820_34800)"/>
<path d="M95.8401 20.4816C97.7872 13.847 108.748 5.33744 118.196 5.84225C127.643 6.34705 133.125 8.99561 138.533 16.0104C143.869 22.9334 145.528 38.5103 146.177 45.866C148.917 49.2554 146.537 55.89 147.98 60.7938C149.422 65.6976 146.681 75.5053 143.797 77.5245C140.912 79.5437 139.975 82.4283 140.552 87.4763C141.129 92.5244 131.465 94.3273 132.763 97.6445C129.662 95.3369 135.864 88.7744 133.34 85.3129C130.816 81.8514 136.225 80.4091 134.422 77.5245C132.619 74.6399 130.816 71.7552 132.259 69.8803C133.412 68.3803 131.874 59.7601 130.6 57.5486L110.84 61.2986C109.903 65.1447 110.408 71.8995 111.417 75.361C99.5183 85.3129 99.518 91.5869 92.018 95.1926C89.6179 96.3465 95.8401 92.0195 92.018 80.7696C91.1522 72.9091 95.2636 72.837 92.018 68.9428C88.7724 65.0486 92.379 62.2361 90.5761 60.7938C88.7732 59.3515 90.504 55.8179 91.0809 54.2314C91.6578 52.6448 89.3497 51.1304 88.9891 48.967C88.6285 46.8035 91.5131 44.568 92.018 43.7026C92.5229 42.8372 90.2148 40.0968 90.1426 38.5103C90.0705 36.9238 92.018 35.3373 92.018 34.9046C92.018 34.4719 91.8017 33.0296 92.018 30.6498C92.2343 28.27 93.893 27.1162 95.8401 20.4816Z" fill="url(#paint38_linear_9820_34800)"/>
<path d="M95.8401 20.4816C97.7872 13.847 108.748 5.33744 118.196 5.84225C127.643 6.34705 133.125 8.99561 138.533 16.0104C143.869 22.9334 145.528 38.5103 146.177 45.866C148.917 49.2554 146.537 55.89 147.98 60.7938C149.422 65.6976 146.681 75.5053 143.797 77.5245C140.912 79.5437 139.975 82.4283 140.552 87.4763C141.129 92.5244 131.465 94.3273 132.763 97.6445C129.662 95.3369 135.864 88.7744 133.34 85.3129C130.816 81.8514 136.225 80.4091 134.422 77.5245C132.619 74.6399 130.816 71.7552 132.259 69.8803C133.412 68.3803 131.874 59.7601 130.6 57.5486L110.84 61.2986C109.903 65.1447 110.408 71.8995 111.417 75.361C99.5183 85.3129 99.518 91.5869 92.018 95.1926C89.6179 96.3465 95.8401 92.0195 92.018 80.7696C91.1522 72.9091 95.2636 72.837 92.018 68.9428C88.7724 65.0486 92.379 62.2361 90.5761 60.7938C88.7732 59.3515 90.504 55.8179 91.0809 54.2314C91.6578 52.6448 89.3497 51.1304 88.9891 48.967C88.6285 46.8035 91.5131 44.568 92.018 43.7026C92.5229 42.8372 90.2148 40.0968 90.1426 38.5103C90.0705 36.9238 92.018 35.3373 92.018 34.9046C92.018 34.4719 91.8017 33.0296 92.018 30.6498C92.2343 28.27 93.893 27.1162 95.8401 20.4816Z" fill="url(#paint39_radial_9820_34800)"/>
<path d="M95.8401 20.4816C97.7872 13.847 108.748 5.33744 118.196 5.84225C127.643 6.34705 133.125 8.99561 138.533 16.0104C143.869 22.9334 145.528 38.5103 146.177 45.866C148.917 49.2554 146.537 55.89 147.98 60.7938C149.422 65.6976 146.681 75.5053 143.797 77.5245C140.912 79.5437 139.975 82.4283 140.552 87.4763C141.129 92.5244 131.465 94.3273 132.763 97.6445C129.662 95.3369 135.864 88.7744 133.34 85.3129C130.816 81.8514 136.225 80.4091 134.422 77.5245C132.619 74.6399 130.816 71.7552 132.259 69.8803C133.412 68.3803 131.874 59.7601 130.6 57.5486L110.84 61.2986C109.903 65.1447 110.408 71.8995 111.417 75.361C99.5183 85.3129 99.518 91.5869 92.018 95.1926C89.6179 96.3465 95.8401 92.0195 92.018 80.7696C91.1522 72.9091 95.2636 72.837 92.018 68.9428C88.7724 65.0486 92.379 62.2361 90.5761 60.7938C88.7732 59.3515 90.504 55.8179 91.0809 54.2314C91.6578 52.6448 89.3497 51.1304 88.9891 48.967C88.6285 46.8035 91.5131 44.568 92.018 43.7026C92.5229 42.8372 90.2148 40.0968 90.1426 38.5103C90.0705 36.9238 92.018 35.3373 92.018 34.9046C92.018 34.4719 91.8017 33.0296 92.018 30.6498C92.2343 28.27 93.893 27.1162 95.8401 20.4816Z" fill="url(#paint40_radial_9820_34800)"/>
<path d="M95.8401 20.4816C97.7872 13.847 108.748 5.33744 118.196 5.84225C127.643 6.34705 133.125 8.99561 138.533 16.0104C143.869 22.9334 145.528 38.5103 146.177 45.866C148.917 49.2554 146.537 55.89 147.98 60.7938C149.422 65.6976 146.681 75.5053 143.797 77.5245C140.912 79.5437 139.975 82.4283 140.552 87.4763C141.129 92.5244 131.465 94.3273 132.763 97.6445C129.662 95.3369 135.864 88.7744 133.34 85.3129C130.816 81.8514 136.225 80.4091 134.422 77.5245C132.619 74.6399 130.816 71.7552 132.259 69.8803C133.412 68.3803 131.874 59.7601 130.6 57.5486L110.84 61.2986C109.903 65.1447 110.408 71.8995 111.417 75.361C99.5183 85.3129 99.518 91.5869 92.018 95.1926C89.6179 96.3465 95.8401 92.0195 92.018 80.7696C91.1522 72.9091 95.2636 72.837 92.018 68.9428C88.7724 65.0486 92.379 62.2361 90.5761 60.7938C88.7732 59.3515 90.504 55.8179 91.0809 54.2314C91.6578 52.6448 89.3497 51.1304 88.9891 48.967C88.6285 46.8035 91.5131 44.568 92.018 43.7026C92.5229 42.8372 90.2148 40.0968 90.1426 38.5103C90.0705 36.9238 92.018 35.3373 92.018 34.9046C92.018 34.4719 91.8017 33.0296 92.018 30.6498C92.2343 28.27 93.893 27.1162 95.8401 20.4816Z" fill="url(#paint41_radial_9820_34800)"/>
<path d="M95.8401 20.4816C97.7872 13.847 108.748 5.33744 118.196 5.84225C127.643 6.34705 133.125 8.99561 138.533 16.0104C143.869 22.9334 145.528 38.5103 146.177 45.866C148.917 49.2554 146.537 55.89 147.98 60.7938C149.422 65.6976 146.681 75.5053 143.797 77.5245C140.912 79.5437 139.975 82.4283 140.552 87.4763C141.129 92.5244 131.465 94.3273 132.763 97.6445C129.662 95.3369 135.864 88.7744 133.34 85.3129C130.816 81.8514 136.225 80.4091 134.422 77.5245C132.619 74.6399 130.816 71.7552 132.259 69.8803C133.412 68.3803 131.874 59.7601 130.6 57.5486L110.84 61.2986C109.903 65.1447 110.408 71.8995 111.417 75.361C99.5183 85.3129 99.518 91.5869 92.018 95.1926C89.6179 96.3465 95.8401 92.0195 92.018 80.7696C91.1522 72.9091 95.2636 72.837 92.018 68.9428C88.7724 65.0486 92.379 62.2361 90.5761 60.7938C88.7732 59.3515 90.504 55.8179 91.0809 54.2314C91.6578 52.6448 89.3497 51.1304 88.9891 48.967C88.6285 46.8035 91.5131 44.568 92.018 43.7026C92.5229 42.8372 90.2148 40.0968 90.1426 38.5103C90.0705 36.9238 92.018 35.3373 92.018 34.9046C92.018 34.4719 91.8017 33.0296 92.018 30.6498C92.2343 28.27 93.893 27.1162 95.8401 20.4816Z" fill="url(#paint42_radial_9820_34800)"/>
<path d="M115.6 6.20443C113.076 6.70923 110.912 14.4976 107.739 15.7957C106.874 18.3196 113.076 17.5266 111.994 15.1468C111.129 13.243 114.662 8.39196 116.537 6.20443C117.066 6.03616 117.619 5.80058 115.6 6.20443Z" fill="url(#paint43_radial_9820_34800)"/>
<path d="M96.3449 41.8291C96.4891 39.9541 95.4795 32.31 97.3545 22.3581C98.3033 15.1201 113.22 14.5697 119.566 16.1562C125.912 17.7427 129.085 22.3581 130.095 24.5215C131.104 26.685 130.383 35.483 132.835 38.3676C133.527 39.5214 132.655 54.1242 131.934 56.4682C131.212 58.8122 123.547 66.7809 118.701 67.3578C112.643 68.079 107.018 65.4828 106.297 64.1847C105.576 62.8867 101.633 59.9285 99.2295 55.9634C96.8261 51.9983 96.2007 43.7041 96.3449 41.8291Z" fill="url(#paint44_linear_9820_34800)"/>
<path d="M96.3449 41.8291C96.4891 39.9541 95.4795 32.31 97.3545 22.3581C98.3033 15.1201 113.22 14.5697 119.566 16.1562C125.912 17.7427 129.085 22.3581 130.095 24.5215C131.104 26.685 130.383 35.483 132.835 38.3676C133.527 39.5214 132.655 54.1242 131.934 56.4682C131.212 58.8122 123.547 66.7809 118.701 67.3578C112.643 68.079 107.018 65.4828 106.297 64.1847C105.576 62.8867 101.633 59.9285 99.2295 55.9634C96.8261 51.9983 96.2007 43.7041 96.3449 41.8291Z" fill="url(#paint45_radial_9820_34800)"/>
<path d="M96.3449 41.8291C96.4891 39.9541 95.4795 32.31 97.3545 22.3581C98.3033 15.1201 113.22 14.5697 119.566 16.1562C125.912 17.7427 129.085 22.3581 130.095 24.5215C131.104 26.685 130.383 35.483 132.835 38.3676C133.527 39.5214 132.655 54.1242 131.934 56.4682C131.212 58.8122 123.547 66.7809 118.701 67.3578C112.643 68.079 107.018 65.4828 106.297 64.1847C105.576 62.8867 101.633 59.9285 99.2295 55.9634C96.8261 51.9983 96.2007 43.7041 96.3449 41.8291Z" fill="url(#paint46_radial_9820_34800)"/>
<path d="M96.3449 41.8291C96.4891 39.9541 95.4795 32.31 97.3545 22.3581C98.3033 15.1201 113.22 14.5697 119.566 16.1562C125.912 17.7427 129.085 22.3581 130.095 24.5215C131.104 26.685 130.383 35.483 132.835 38.3676C133.527 39.5214 132.655 54.1242 131.934 56.4682C131.212 58.8122 123.547 66.7809 118.701 67.3578C112.643 68.079 107.018 65.4828 106.297 64.1847C105.576 62.8867 101.633 59.9285 99.2295 55.9634C96.8261 51.9983 96.2007 43.7041 96.3449 41.8291Z" fill="url(#paint47_radial_9820_34800)"/>
<path d="M96.3449 41.8291C96.4891 39.9541 95.4795 32.31 97.3545 22.3581C98.3033 15.1201 113.22 14.5697 119.566 16.1562C125.912 17.7427 129.085 22.3581 130.095 24.5215C131.104 26.685 130.383 35.483 132.835 38.3676C133.527 39.5214 132.655 54.1242 131.934 56.4682C131.212 58.8122 123.547 66.7809 118.701 67.3578C112.643 68.079 107.018 65.4828 106.297 64.1847C105.576 62.8867 101.633 59.9285 99.2295 55.9634C96.8261 51.9983 96.2007 43.7041 96.3449 41.8291Z" fill="url(#paint48_radial_9820_34800)"/>
<path d="M96.3449 41.8291C96.4891 39.9541 95.4795 32.31 97.3545 22.3581C98.3033 15.1201 113.22 14.5697 119.566 16.1562C125.912 17.7427 129.085 22.3581 130.095 24.5215C131.104 26.685 130.383 35.483 132.835 38.3676C133.527 39.5214 132.655 54.1242 131.934 56.4682C131.212 58.8122 123.547 66.7809 118.701 67.3578C112.643 68.079 107.018 65.4828 106.297 64.1847C105.576 62.8867 101.633 59.9285 99.2295 55.9634C96.8261 51.9983 96.2007 43.7041 96.3449 41.8291Z" fill="url(#paint49_radial_9820_34800)"/>
<path d="M96.3449 41.8291C96.4891 39.9541 95.4795 32.31 97.3545 22.3581C98.3033 15.1201 113.22 14.5697 119.566 16.1562C125.912 17.7427 129.085 22.3581 130.095 24.5215C131.104 26.685 130.383 35.483 132.835 38.3676C133.527 39.5214 132.655 54.1242 131.934 56.4682C131.212 58.8122 123.547 66.7809 118.701 67.3578C112.643 68.079 107.018 65.4828 106.297 64.1847C105.576 62.8867 101.633 59.9285 99.2295 55.9634C96.8261 51.9983 96.2007 43.7041 96.3449 41.8291Z" fill="url(#paint50_radial_9820_34800)"/>
<path d="M103.277 41.2521C105.873 40.9276 107.316 39.0166 106.63 36.8892L97.9136 37.3748C98.0939 39.6104 100.681 41.5766 103.277 41.2521Z" fill="url(#paint51_radial_9820_34800)"/>
<path d="M113.725 48.9371C114.23 50.1953 113.22 51.0761 112.283 50.6567C113.725 53.0473 115.852 51.0341 115.852 50.0275C115.852 49.021 114.446 46.5884 112.283 46.5884C112.595 46.9519 113.321 47.9305 113.725 48.9371Z" fill="url(#paint52_radial_9820_34800)"/>
<path d="M107.38 52.2854C106.334 51.5642 104.713 50.1579 104.857 48.8959C105.53 49.6171 106.977 51.0883 107.381 51.2037C107.885 51.3479 108.787 50.266 109.977 49.1483C111.167 48.0305 112.825 48.4632 113.763 49.5449C114.7 50.6266 111.849 52.5379 110.84 52.8263C109.832 53.1146 108.425 53.0065 107.38 52.2854Z" fill="url(#paint53_radial_9820_34800)"/>
<path d="M107.38 52.2854C106.334 51.5642 104.713 50.1579 104.857 48.8959C105.53 49.6171 106.977 51.0883 107.381 51.2037C107.885 51.3479 108.787 50.266 109.977 49.1483C111.167 48.0305 112.825 48.4632 113.763 49.5449C114.7 50.6266 111.849 52.5379 110.84 52.8263C109.832 53.1146 108.425 53.0065 107.38 52.2854Z" fill="url(#paint54_radial_9820_34800)"/>
<path d="M108.483 40.6488C107.128 36.5522 108.854 32.6339 112.662 32.3908C110.632 34.3932 111.943 43.5709 112.853 47.9094C111.848 46.8547 109.567 43.9261 108.483 40.6488Z" fill="url(#paint55_radial_9820_34800)"/>
<path d="M109.615 46.6226C108.346 44.9207 108.798 40.8655 109.182 39.0506C109.461 37.2948 110.66 37.5001 111.129 38.8342C111.504 39.9015 113.737 44.8558 114.807 47.1995C113.605 47.7164 110.884 48.3245 109.615 46.6226Z" fill="url(#paint56_radial_9820_34800)"/>
<path d="M101.916 32.2749C107.032 32.4276 106.516 35.5384 106.783 37.5999C105.854 38.1598 102.527 38.3217 98.7092 37.7719C93.9373 37.0848 96.8009 32.1222 101.916 32.2749Z" fill="url(#paint57_radial_9820_34800)"/>
<path d="M123.382 37.6622C132.569 36.7686 126.614 30.3469 118.151 30.6021C110.297 30.839 108.401 37.6622 111.493 42.8543C114.433 42.2816 112.632 39.1874 114.086 37.6622H123.382Z" fill="url(#paint58_radial_9820_34800)"/>
<path d="M123.382 37.6622C132.569 36.7686 126.614 30.3469 118.151 30.6021C110.297 30.839 108.401 37.6622 111.493 42.8543C114.433 42.2816 112.632 39.1874 114.086 37.6622H123.382Z" fill="url(#paint59_radial_9820_34800)"/>
<path d="M123.382 37.6622C132.569 36.7686 126.614 30.3469 118.151 30.6021C110.297 30.839 108.401 37.6622 111.493 42.8543C114.433 42.2816 112.632 39.1874 114.086 37.6622H123.382Z" fill="url(#paint60_radial_9820_34800)"/>
<path d="M111.165 50.1569C110.228 50.0488 110.12 51.0584 108.894 51.7795C109.314 51.6473 110.357 51.3539 111.165 51.2385C112.175 51.0943 112.103 50.2651 111.165 50.1569Z" fill="url(#paint61_radial_9820_34800)"/>
<path d="M132.989 39.1064C133.342 42.3548 132.582 54.3615 131.934 56.4681C131.54 57.7493 129.065 60.7034 126.115 63.2199C124.363 63.4428 122.624 63.2792 121.225 62.5258C124.038 61.0114 124.47 53.0067 122.956 50.4105C121.592 48.0718 128.364 41.4079 132.989 39.1064Z" fill="url(#paint62_radial_9820_34800)"/>
<path d="M116.249 27.4784C116.033 25.6756 122.379 20.9881 114.59 14.3535C121.297 14.3535 131.321 22.9352 129.085 25.964C126.85 28.9928 116.465 29.2813 116.249 27.4784Z" fill="url(#paint63_radial_9820_34800)"/>
<path d="M116.543 54.0417C116.798 54.4842 115.891 54.8918 113.574 55.6425C113.215 55.4107 113.431 55.5453 113.656 55.0103C114.193 53.7355 116.119 53.3074 116.543 54.0417Z" fill="url(#paint64_radial_9820_34800)"/>
<path d="M110.047 58.1627C106.838 58.1267 106.261 57.0449 106.044 55.819L114.951 54.9536C114.374 56.8647 113.256 58.1988 110.047 58.1627Z" fill="url(#paint65_radial_9820_34800)"/>
<path d="M110.047 58.1627C106.838 58.1267 106.261 57.0449 106.044 55.819L114.951 54.9536C114.374 56.8647 113.256 58.1988 110.047 58.1627Z" fill="url(#paint66_radial_9820_34800)"/>
<path d="M103.49 54.0859C103.287 54.4205 104.323 55.1033 106.242 55.5502C106.534 55.365 106.674 55.053 106.341 54.7654C105.76 54.2636 104.149 53.0006 103.49 54.0859Z" fill="url(#paint67_radial_9820_34800)"/>
<path d="M104.422 54.8458C105.829 54.8457 108.1 54.1246 108.893 54.8458C109.506 54.1244 112.355 54.8462 115.744 54.6295C111.886 57.2256 106.482 56.8501 104.422 54.8458Z" fill="url(#paint68_radial_9820_34800)"/>
<path d="M104.422 54.8458C105.829 54.8457 108.1 54.1246 108.893 54.8458C109.506 54.1244 112.355 54.8462 115.744 54.6295C111.886 57.2256 106.482 56.8501 104.422 54.8458Z" fill="url(#paint69_radial_9820_34800)"/>
<path d="M104.422 54.8458C105.829 54.8457 108.1 54.1246 108.893 54.8458C109.506 54.1244 112.355 54.8462 115.744 54.6295C111.886 57.2256 106.482 56.8501 104.422 54.8458Z" fill="url(#paint70_radial_9820_34800)"/>
<path d="M104.422 54.8458C105.829 54.8457 108.1 54.1246 108.893 54.8458C109.506 54.1244 112.355 54.8462 115.744 54.6295C111.886 57.2256 106.482 56.8501 104.422 54.8458Z" fill="url(#paint71_radial_9820_34800)"/>
<path d="M104.422 54.8458C105.829 54.8457 108.1 54.1246 108.893 54.8458C109.506 54.1244 112.355 54.8462 115.744 54.6295C111.886 57.2256 106.482 56.8501 104.422 54.8458Z" fill="url(#paint72_radial_9820_34800)"/>
<path d="M154.676 87.5541C140.751 87.2014 119.89 108.611 110.083 120.002H182.018C179.45 108.905 168.601 87.9069 154.676 87.5541Z" fill="url(#paint73_linear_9820_34800)"/>
<path d="M154.676 87.5541C140.751 87.2014 119.89 108.611 110.083 120.002H182.018C179.45 108.905 168.601 87.9069 154.676 87.5541Z" fill="url(#paint74_radial_9820_34800)"/>
<path d="M154.676 87.5541C140.751 87.2014 119.89 108.611 110.083 120.002H182.018C179.45 108.905 168.601 87.9069 154.676 87.5541Z" fill="url(#paint75_radial_9820_34800)"/>
<path d="M113.04 57.6221C111.79 58.1028 109.543 58.4298 107.235 57.6221C107.235 59.7134 108.93 60.8312 110.696 60.687C112.463 60.5427 114.771 59.0283 113.04 57.6221Z" fill="url(#paint76_radial_9820_34800)"/>
<path d="M154.907 91.5715C140.983 91.2671 119.89 110.172 110.083 120.001H182.018C179.45 110.425 168.832 91.8759 154.907 91.5715Z" fill="url(#paint77_linear_9820_34800)"/>
<path d="M154.907 91.5715C140.983 91.2671 119.89 110.172 110.083 120.001H182.018C179.45 110.425 168.832 91.8759 154.907 91.5715Z" fill="url(#paint78_radial_9820_34800)"/>
<path d="M154.907 91.5715C140.983 91.2671 119.89 110.172 110.083 120.001H182.018C179.45 110.425 168.832 91.8759 154.907 91.5715Z" fill="url(#paint79_radial_9820_34800)"/>
<path d="M156.91 96.9544C142.985 96.7134 119.89 112.219 110.083 120.001H182.018C179.45 112.42 170.835 97.1955 156.91 96.9544Z" fill="url(#paint80_linear_9820_34800)"/>
<path d="M156.91 96.9544C142.985 96.7134 119.89 112.219 110.083 120.001H182.018C179.45 112.42 170.835 97.1955 156.91 96.9544Z" fill="url(#paint81_radial_9820_34800)"/>
<path d="M156.91 96.9544C142.985 96.7134 119.89 112.219 110.083 120.001H182.018C179.45 112.42 170.835 97.1955 156.91 96.9544Z" fill="url(#paint82_radial_9820_34800)"/>
<path d="M106.801 37.2841L105.765 37.6808L98.6812 37.8429C98.3612 37.6026 97.9782 37.212 98.3161 36.9235C98.7384 36.563 100.543 35.0486 102.885 35.0846C104.759 35.1135 106.276 36.563 106.801 37.2841Z" fill="url(#paint83_radial_9820_34800)"/>
<path d="M106.801 37.2841L105.765 37.6808L98.6812 37.8429C98.3612 37.6026 97.9782 37.212 98.3161 36.9235C98.7384 36.563 100.543 35.0486 102.885 35.0846C104.759 35.1135 106.276 36.563 106.801 37.2841Z" fill="url(#paint84_radial_9820_34800)"/>
<path d="M102.944 36.2395C105.035 36.1313 105.648 37.5015 105.792 37.6457C105.552 38.0304 104.646 38.7997 102.944 38.7997C101.242 38.7997 99.5664 38.1506 98.9414 37.8261C99.5784 37.3333 101.271 36.326 102.944 36.2395Z" fill="url(#paint85_radial_9820_34800)"/>
<path d="M118.26 34.5075C115.335 34.4715 113.853 35.8777 113.653 37.6085H122.787C123.508 36.3826 121.185 34.5436 118.26 34.5075Z" fill="url(#paint86_radial_9820_34800)"/>
<path d="M118.26 34.5075C115.335 34.4715 113.853 35.8777 113.653 37.6085H122.787C123.508 36.3826 121.185 34.5436 118.26 34.5075Z" fill="url(#paint87_radial_9820_34800)"/>
<path d="M118.809 40.8191C116.105 41.1797 114.049 39.5931 114.013 37.646L122.415 37.4297C122.991 38.3311 121.777 40.4233 118.809 40.8191Z" fill="url(#paint88_radial_9820_34800)"/>
<path d="M118.34 36.0238C116.033 35.9517 113.905 37.5743 113.905 37.5743C114.542 37.9348 116.321 38.6487 118.34 38.6198C120.36 38.591 121.946 37.9108 122.487 37.5743C121.874 37.0815 120.186 36.0815 118.34 36.0238Z" fill="url(#paint89_radial_9820_34800)"/>
<path d="M104.999 48.8595C106.117 46.0711 108.518 39.1745 106.73 33.8957C105.143 29.1 113.869 31.1192 110.985 33.8957C108.1 36.6721 108.821 44.8932 109.434 46.4076C110.047 47.922 113.292 46.9845 113.292 48.8595C112.391 48.5352 111.165 48.391 110.299 48.8595C109.154 49.4797 108.064 51.1672 107.379 51.1672C106.831 51.1672 105.564 49.6287 104.999 48.8595Z" fill="url(#paint90_radial_9820_34800)"/>
<path d="M117.385 15.7505C118.185 15.8629 118.92 15.9947 119.566 16.1561C125.912 17.7426 129.085 22.3579 130.095 24.5215C131.105 26.6849 130.384 35.4828 132.835 38.3675C133.528 39.5214 132.547 54.3768 131.898 56.5405C131.249 58.7042 123.547 66.7808 118.701 67.3577C112.905 68.0477 107.511 65.6971 106.423 64.3559C113.429 66.3735 126.223 58.6504 127.571 55.3867C128.941 52.0693 126.994 43.704 128.941 41.4685C130.888 39.2329 128.292 33.745 128.292 26.4686C128.292 21.7941 122.611 18.0771 117.385 15.7505Z" fill="url(#paint91_radial_9820_34800)"/>
<path d="M117.385 15.7505C118.185 15.8629 118.92 15.9947 119.566 16.1561C125.912 17.7426 129.085 22.3579 130.095 24.5215C131.105 26.6849 130.384 35.4828 132.835 38.3675C133.528 39.5214 132.547 54.3768 131.898 56.5405C131.249 58.7042 123.547 66.7808 118.701 67.3577C112.905 68.0477 107.511 65.6971 106.423 64.3559C113.429 66.3735 126.223 58.6504 127.571 55.3867C128.941 52.0693 126.994 43.704 128.941 41.4685C130.888 39.2329 128.292 33.745 128.292 26.4686C128.292 21.7941 122.611 18.0771 117.385 15.7505Z" fill="url(#paint92_radial_9820_34800)"/>
<path d="M118.341 36.0261C119.402 36.0592 120.407 36.4116 121.189 36.7923C121.21 36.9013 121.225 37.0149 121.225 37.1348C121.225 37.5407 121.099 37.9175 120.887 38.23C120.184 38.435 119.313 38.6083 118.341 38.6222C118.224 38.6238 118.108 38.6117 117.994 38.6086C117.58 38.2499 117.313 37.7251 117.313 37.1348C117.313 36.6964 117.461 36.3309 117.705 36.0486C117.914 36.0288 118.127 36.0194 118.341 36.0261Z" fill="url(#paint93_linear_9820_34800)"/>
<path d="M102.944 36.2414C104.198 36.1765 104.915 36.6466 105.324 37.0617C105.335 37.1448 105.351 37.2295 105.351 37.3186C105.351 37.6609 105.253 37.9762 105.098 38.2561C104.621 38.5423 103.914 38.8015 102.944 38.8015C102.643 38.8015 102.345 38.7735 102.051 38.7384C101.675 38.3818 101.439 37.878 101.438 37.3186C101.438 36.9906 101.526 36.7051 101.668 36.4622C102.082 36.3428 102.514 36.2636 102.944 36.2414Z" fill="url(#paint94_linear_9820_34800)"/>
<path d="M120.297 37.2346C120.297 37.7865 119.849 38.2339 119.298 38.2339C118.746 38.2339 118.298 37.7865 118.298 37.2346C118.298 36.6827 118.746 36.2354 119.298 36.2354C119.849 36.2354 120.297 36.6827 120.297 37.2346Z" fill="url(#paint95_linear_9820_34800)"/>
<path d="M104.424 37.4172C104.424 37.9691 103.977 38.4165 103.425 38.4165C102.873 38.4165 102.426 37.9691 102.426 37.4172C102.426 36.8654 102.873 36.418 103.425 36.418C103.977 36.418 104.424 36.8654 104.424 37.4172Z" fill="url(#paint96_linear_9820_34800)"/>
<path d="M118.893 37.1443C118.893 37.3764 118.705 37.5646 118.473 37.5646C118.241 37.5646 118.053 37.3764 118.053 37.1443C118.053 36.9123 118.241 36.7241 118.473 36.7241C118.705 36.7241 118.893 36.9123 118.893 37.1443Z" fill="#FFF5DB"/>
<path d="M103.019 37.327C103.019 37.559 102.831 37.7472 102.598 37.7472C102.366 37.7472 102.178 37.559 102.178 37.327C102.178 37.0949 102.366 36.9067 102.598 36.9067C102.831 36.9067 103.019 37.0949 103.019 37.327Z" fill="#FFF5DB"/>
<path d="M110.624 17.3089C125.047 16.1551 139.422 27.9339 144.807 33.9675C145.648 26.2992 140.084 8.71268 123.244 6.05933C100.817 2.52547 94.1823 22.8617 94.7592 24.0155C94.7592 24.0155 96.2015 18.4628 110.624 17.3089Z" fill="url(#paint97_radial_9820_34800)"/>
<path d="M110.624 16.6454C125.047 15.4915 139.422 27.2703 144.807 33.3039C144.847 32.937 144.873 32.5363 144.884 32.1095C144.894 32.7759 144.869 33.401 144.807 33.971C139.422 27.9374 125.047 16.1586 110.624 17.3124C96.2026 18.4665 94.7591 24.0191 94.7591 24.0191C94.7038 23.9084 94.7283 23.6242 94.8132 23.2033C95.1634 22.316 97.6 17.6876 110.624 16.6454Z" fill="url(#paint98_radial_9820_34800)"/>
<defs>
<radialGradient id="paint0_radial_9820_34800" cx="0" cy="0" r="1" gradientUnits="userSpaceOnUse" gradientTransform="translate(120 62.0188) rotate(177.024) scale(89.7604 56.0109)">
<stop offset="0.397572" stop-color="#4CB546"/>
<stop offset="1" stop-color="#ACAD97" stop-opacity="0"/>
</radialGradient>
<linearGradient id="paint1_linear_9820_34800" x1="158.274" y1="58.0385" x2="153.963" y2="32.5813" gradientUnits="userSpaceOnUse">
<stop stop-color="#097C80"/>
<stop offset="1" stop-color="#E9F4F2"/>
</linearGradient>
<radialGradient id="paint2_radial_9820_34800" cx="0" cy="0" r="1" gradientUnits="userSpaceOnUse" gradientTransform="translate(172.947 46.6175) rotate(90) scale(14.2288 4.14156)">
<stop stop-color="#13777A"/>
<stop offset="1" stop-color="#13777A" stop-opacity="0"/>
</radialGradient>
<radialGradient id="paint3_radial_9820_34800" cx="0" cy="0" r="1" gradientUnits="userSpaceOnUse" gradientTransform="translate(160.07 39.6599) rotate(90) scale(21.1863 6.16669)">
<stop stop-color="#13777A"/>
<stop offset="1" stop-color="#13777A" stop-opacity="0"/>
</radialGradient>
<radialGradient id="paint4_radial_9820_34800" cx="0" cy="0" r="1" gradientUnits="userSpaceOnUse" gradientTransform="translate(149.87 35.0445) rotate(95.1944) scale(19.1168 5.56432)">
<stop stop-color="#13777A"/>
<stop offset="1" stop-color="#13777A" stop-opacity="0"/>
</radialGradient>
<radialGradient id="paint5_radial_9820_34800" cx="0" cy="0" r="1" gradientUnits="userSpaceOnUse" gradientTransform="translate(77.8399 49.4412) rotate(104.613) scale(44.373 51.2588)">
<stop stop-color="#CBCBA2"/>
<stop offset="1" stop-color="#707058"/>
</radialGradient>
<radialGradient id="paint6_radial_9820_34800" cx="0" cy="0" r="1" gradientUnits="userSpaceOnUse" gradientTransform="translate(84.7583 67.3429) rotate(137.884) scale(68.2176 35.3926)">
<stop stop-color="#485B18"/>
<stop offset="1" stop-color="#6A643E" stop-opacity="0"/>
</radialGradient>
<linearGradient id="paint7_linear_9820_34800" x1="139.902" y1="104.936" x2="168.597" y2="33.8685" gradientUnits="userSpaceOnUse">
<stop stop-color="#828379"/>
<stop offset="1" stop-color="#5BAAC7"/>
</linearGradient>
<radialGradient id="paint8_radial_9820_34800" cx="0" cy="0" r="1" gradientUnits="userSpaceOnUse" gradientTransform="translate(89.4221 69.6051) scale(120.59 64.7011)">
<stop offset="0.430572" stop-color="#097D9B" stop-opacity="0"/>
<stop offset="0.81091" stop-color="#09738E"/>
</radialGradient>
<radialGradient id="paint9_radial_9820_34800" cx="0" cy="0" r="1" gradientUnits="userSpaceOnUse" gradientTransform="translate(135.576 51.7778) rotate(3.09732) scale(88.1089 28.0069)">
<stop stop-color="#CDDBD5"/>
<stop offset="1" stop-color="#CDDBD5" stop-opacity="0"/>
</radialGradient>
<linearGradient id="paint10_linear_9820_34800" x1="85.222" y1="96.7723" x2="86.6613" y2="69.4213" gradientUnits="userSpaceOnUse">
<stop stop-color="#E5CEB9"/>
<stop offset="0.944281" stop-color="#643C14"/>
</linearGradient>
<radialGradient id="paint11_radial_9820_34800" cx="0" cy="0" r="1" gradientUnits="userSpaceOnUse" gradientTransform="translate(98.209 78.461) rotate(100.643) scale(22.0865 11.9963)">
<stop stop-color="#8C5F4B"/>
<stop offset="1" stop-color="#8C5F4B" stop-opacity="0"/>
</radialGradient>
<radialGradient id="paint12_radial_9820_34800" cx="0" cy="0" r="1" gradientUnits="userSpaceOnUse" gradientTransform="translate(78.0169 69.5908) rotate(102.23) scale(23.851 8.23989)">
<stop stop-color="#8C5F4B"/>
<stop offset="1" stop-color="#8C5F4B" stop-opacity="0"/>
</radialGradient>
<linearGradient id="paint13_linear_9820_34800" x1="121.23" y1="122.271" x2="121.23" y2="76.8385" gradientUnits="userSpaceOnUse">
<stop stop-color="#C44A19"/>
<stop offset="1" stop-color="#C08C6A"/>
</linearGradient>
<radialGradient id="paint14_radial_9820_34800" cx="0" cy="0" r="1" gradientUnits="userSpaceOnUse" gradientTransform="translate(117.93 101.605) rotate(1.3273) scale(96.7099 25.3362)">
<stop offset="0.663462" stop-color="#895A4F" stop-opacity="0"/>
<stop offset="1" stop-color="#895A4F"/>
</radialGradient>
<linearGradient id="paint15_linear_9820_34800" x1="165.241" y1="113.653" x2="168.285" y2="72.9696" gradientUnits="userSpaceOnUse">
<stop stop-color="#E5CEB9"/>
<stop offset="1" stop-color="#643C14"/>
</linearGradient>
<radialGradient id="paint16_radial_9820_34800" cx="0" cy="0" r="1" gradientUnits="userSpaceOnUse" gradientTransform="translate(178.526 83.1815) rotate(97.95) scale(24.6713 10.113)">
<stop stop-color="#8C5F4B"/>
<stop offset="1" stop-color="#8C5F4B" stop-opacity="0"/>
</radialGradient>
<radialGradient id="paint17_radial_9820_34800" cx="0" cy="0" r="1" gradientUnits="userSpaceOnUse" gradientTransform="translate(161.634 73.1968) rotate(99.1511) scale(26.577 6.96334)">
<stop stop-color="#8C5F4B"/>
<stop offset="1" stop-color="#8C5F4B" stop-opacity="0"/>
</radialGradient>
<linearGradient id="paint18_linear_9820_34800" x1="63.3156" y1="90.4053" x2="63.3156" y2="119.998" gradientUnits="userSpaceOnUse">
<stop stop-color="#E1C79F"/>
<stop offset="1" stop-color="#FFFDFA"/>
</linearGradient>
<linearGradient id="paint19_linear_9820_34800" x1="38.8742" y1="109.931" x2="41.1028" y2="76.9977" gradientUnits="userSpaceOnUse">
<stop stop-color="#E5CEB9"/>
<stop offset="1" stop-color="#643C14"/>
</linearGradient>
<radialGradient id="paint20_radial_9820_34800" cx="0" cy="0" r="1" gradientUnits="userSpaceOnUse" gradientTransform="translate(56.1264 90.5541) rotate(90) scale(13.2968 3.87029)">
<stop stop-color="#8C5F4B"/>
<stop offset="1" stop-color="#8C5F4B" stop-opacity="0"/>
</radialGradient>
<radialGradient id="paint21_radial_9820_34800" cx="0" cy="0" r="1" gradientUnits="userSpaceOnUse" gradientTransform="translate(44.0923 84.0523) rotate(90) scale(19.7987 5.76277)">
<stop stop-color="#8C5F4B"/>
<stop offset="1" stop-color="#8C5F4B" stop-opacity="0"/>
</radialGradient>
<radialGradient id="paint22_radial_9820_34800" cx="0" cy="0" r="1" gradientUnits="userSpaceOnUse" gradientTransform="translate(34.5612 79.7392) rotate(95.1944) scale(17.8647 5.19986)">
<stop stop-color="#8C5F4B"/>
<stop offset="1" stop-color="#8C5F4B" stop-opacity="0"/>
</radialGradient>
<linearGradient id="paint23_linear_9820_34800" x1="52.8585" y1="78.3315" x2="106.183" y2="94.0297" gradientUnits="userSpaceOnUse">
<stop stop-color="#BABAFF"/>
<stop offset="1" stop-color="#944600"/>
</linearGradient>
<radialGradient id="paint24_radial_9820_34800" cx="0" cy="0" r="1" gradientUnits="userSpaceOnUse" gradientTransform="translate(77.0577 89.0121) rotate(81.9798) scale(36.8095 23.8146)">
<stop offset="0.115" stop-color="#571505" stop-opacity="0"/>
<stop offset="0.791387" stop-color="#260902"/>
</radialGradient>
<radialGradient id="paint25_radial_9820_34800" cx="0" cy="0" r="1" gradientUnits="userSpaceOnUse" gradientTransform="translate(78.8996 102.949) rotate(79.0673) scale(17.3677 13.1358)">
<stop stop-color="#AA8A61"/>
<stop offset="1" stop-color="#AA8A61" stop-opacity="0"/>
</radialGradient>
<linearGradient id="paint26_linear_9820_34800" x1="52.4995" y1="73.1268" x2="145.672" y2="124.04" gradientUnits="userSpaceOnUse">
<stop stop-color="#BABAFF"/>
<stop offset="1" stop-color="#944600"/>
</linearGradient>
<radialGradient id="paint27_radial_9820_34800" cx="0" cy="0" r="1" gradientUnits="userSpaceOnUse" gradientTransform="translate(103.028 85.1416) rotate(75.3435) scale(42.3816 48.583)">
<stop offset="0.115" stop-color="#571505" stop-opacity="0"/>
<stop offset="0.791387" stop-color="#260902"/>
</radialGradient>
<radialGradient id="paint28_radial_9820_34800" cx="0" cy="0" r="1" gradientUnits="userSpaceOnUse" gradientTransform="translate(106.874 100.819) rotate(70.2751) scale(20.3783 26.2959)">
<stop stop-color="#AA8A61"/>
<stop offset="1" stop-color="#AA8A61" stop-opacity="0"/>
</radialGradient>
<linearGradient id="paint29_linear_9820_34800" x1="75.5492" y1="55.0396" x2="167.537" y2="160.027" gradientUnits="userSpaceOnUse">
<stop stop-color="#FFE69A"/>
<stop offset="1" stop-color="#B97B23"/>
</linearGradient>
<radialGradient id="paint30_radial_9820_34800" cx="0" cy="0" r="1" gradientUnits="userSpaceOnUse" gradientTransform="translate(108.172 80.7713) rotate(11.8743) scale(32.1112 23.2063)">
<stop stop-color="#FFF9D8" stop-opacity="0.4"/>
<stop offset="0.857477" stop-color="#FFD4A6" stop-opacity="0.2"/>
<stop offset="1" stop-color="#FFE0B4" stop-opacity="0"/>
</radialGradient>
<radialGradient id="paint31_radial_9820_34800" cx="0" cy="0" r="1" gradientUnits="userSpaceOnUse" gradientTransform="translate(121.874 56.2207) rotate(85.6449) scale(32.288 37.8798)">
<stop offset="0.255107" stop-color="#613A1D"/>
<stop offset="0.648762" stop-color="#C7773B" stop-opacity="0"/>
</radialGradient>
<radialGradient id="paint32_radial_9820_34800" cx="0" cy="0" r="1" gradientUnits="userSpaceOnUse" gradientTransform="translate(110.047 113.656) rotate(-38.8114) scale(25.5433 18.743)">
<stop offset="0.560099" stop-color="#FFF9D8" stop-opacity="0.4"/>
<stop offset="0.922326" stop-color="#FFE0B4" stop-opacity="0"/>
</radialGradient>
<radialGradient id="paint33_radial_9820_34800" cx="0" cy="0" r="1" gradientUnits="userSpaceOnUse" gradientTransform="translate(94.903 106.012) rotate(-40.6489) scale(18.8196 13.8093)">
<stop offset="0.443204" stop-color="#FFF9D8" stop-opacity="0.4"/>
<stop offset="0.922326" stop-color="#FFE0B4" stop-opacity="0"/>
</radialGradient>
<linearGradient id="paint34_linear_9820_34800" x1="125.036" y1="64.9937" x2="166.377" y2="77.2352" gradientUnits="userSpaceOnUse">
<stop stop-color="#BABAFF"/>
<stop offset="1" stop-color="#944600"/>
</linearGradient>
<radialGradient id="paint35_radial_9820_34800" cx="0" cy="0" r="1" gradientUnits="userSpaceOnUse" gradientTransform="translate(124.614 69.5933) rotate(53.8709) scale(39.3227 33.6051)">
<stop offset="0.115" stop-color="#571505" stop-opacity="0"/>
<stop offset="0.791387" stop-color="#260902"/>
</radialGradient>
<radialGradient id="paint36_radial_9820_34800" cx="0" cy="0" r="1" gradientUnits="userSpaceOnUse" gradientTransform="translate(95.2006 51.4924) rotate(46.0704) scale(62.7833 27.7466)">
<stop stop-color="#CD9B63" stop-opacity="0.6"/>
<stop offset="1" stop-color="#CD9B63" stop-opacity="0"/>
</radialGradient>
<radialGradient id="paint37_radial_9820_34800" cx="0" cy="0" r="1" gradientUnits="userSpaceOnUse" gradientTransform="translate(94.2654 51.4924) rotate(46.0704) scale(62.7833 60.1999)">
<stop stop-color="#270A02"/>
<stop offset="1" stop-color="#CD9B63" stop-opacity="0"/>
</radialGradient>
<linearGradient id="paint38_linear_9820_34800" x1="83.448" y1="31.6821" x2="137.286" y2="101.146" gradientUnits="userSpaceOnUse">
<stop stop-color="#5B3B04"/>
<stop offset="1" stop-color="#571505"/>
</linearGradient>
<radialGradient id="paint39_radial_9820_34800" cx="0" cy="0" r="1" gradientUnits="userSpaceOnUse" gradientTransform="translate(132.082 43.2711) rotate(105.359) scale(62.6113 24.7572)">
<stop offset="0.497604" stop-color="#311507"/>
<stop offset="1" stop-color="#311507" stop-opacity="0"/>
</radialGradient>
<radialGradient id="paint40_radial_9820_34800" cx="0" cy="0" r="1" gradientUnits="userSpaceOnUse" gradientTransform="translate(113.004 16.8758) rotate(112.891) scale(14.0903 12.5479)">
<stop stop-color="#FEB363" stop-opacity="0.6"/>
<stop offset="1" stop-color="#FE8401" stop-opacity="0"/>
</radialGradient>
<radialGradient id="paint41_radial_9820_34800" cx="0" cy="0" r="1" gradientUnits="userSpaceOnUse" gradientTransform="translate(88.958 55.6015) rotate(-94.4228) scale(30.4511 9.97006)">
<stop stop-color="#FEB363" stop-opacity="0.6"/>
<stop offset="1" stop-color="#FE8401" stop-opacity="0"/>
</radialGradient>
<radialGradient id="paint42_radial_9820_34800" cx="0" cy="0" r="1" gradientUnits="userSpaceOnUse" gradientTransform="translate(130.239 81.635) rotate(-90.8769) scale(28.2724 9.25673)">
<stop stop-color="#FEB363" stop-opacity="0.6"/>
<stop offset="1" stop-color="#FE8401" stop-opacity="0"/>
</radialGradient>
<radialGradient id="paint43_radial_9820_34800" cx="0" cy="0" r="1" gradientUnits="userSpaceOnUse" gradientTransform="translate(109.903 14.2814) rotate(-60.8242) scale(14.6191 7.75938)">
<stop stop-color="#F9D699"/>
<stop offset="0.610577" stop-color="#F9D699" stop-opacity="0"/>
</radialGradient>
<linearGradient id="paint44_linear_9820_34800" x1="85.095" y1="11.1079" x2="181.285" y2="84.4808" gradientUnits="userSpaceOnUse">
<stop stop-color="#FFE69A"/>
<stop offset="1" stop-color="#B97B23"/>
</linearGradient>
<radialGradient id="paint45_radial_9820_34800" cx="0" cy="0" r="1" gradientUnits="userSpaceOnUse" gradientTransform="translate(128.436 47.7423) rotate(141.878) scale(13.2002 8.92983)">
<stop stop-color="#613A1D" stop-opacity="0.5"/>
<stop offset="1" stop-color="#C7773B" stop-opacity="0"/>
</radialGradient>
<radialGradient id="paint46_radial_9820_34800" cx="0" cy="0" r="1" gradientUnits="userSpaceOnUse" gradientTransform="translate(95.119 47.8865) rotate(38.2494) scale(12.5805 6.74091)">
<stop stop-color="#613A1D" stop-opacity="0.5"/>
<stop offset="1" stop-color="#C7773B" stop-opacity="0"/>
</radialGradient>
<radialGradient id="paint47_radial_9820_34800" cx="0" cy="0" r="1" gradientUnits="userSpaceOnUse" gradientTransform="translate(109.614 33.8962) rotate(29.1199) scale(24.5995 20.8926)">
<stop offset="0.257271" stop-color="#FFF9D8" stop-opacity="0.5"/>
<stop offset="0.857477" stop-color="#FFD4A6" stop-opacity="0.5"/>
<stop offset="1" stop-color="#FFE0B4" stop-opacity="0"/>
</radialGradient>
<radialGradient id="paint48_radial_9820_34800" cx="0" cy="0" r="1" gradientUnits="userSpaceOnUse" gradientTransform="translate(101.321 37.2856) rotate(-3.74299) scale(7.73279 5.22357)">
<stop stop-color="#85460E" stop-opacity="0.5"/>
<stop offset="0.6921" stop-color="#B5895B" stop-opacity="0.259071"/>
<stop offset="1" stop-color="#FFE6C2" stop-opacity="0"/>
</radialGradient>
<radialGradient id="paint49_radial_9820_34800" cx="0" cy="0" r="1" gradientUnits="userSpaceOnUse" gradientTransform="translate(119.133 36.9972) rotate(-1.28253) scale(9.66582 4.98114)">
<stop stop-color="#85460E" stop-opacity="0.5"/>
<stop offset="0.858842" stop-color="#85460E" stop-opacity="0.1"/>
<stop offset="1" stop-color="#85460E" stop-opacity="0"/>
</radialGradient>
<radialGradient id="paint50_radial_9820_34800" cx="0" cy="0" r="1" gradientUnits="userSpaceOnUse" gradientTransform="translate(104.638 38.0789) rotate(72.2054) scale(34.6882 28.7131)">
<stop offset="0.765404" stop-color="#C7773B" stop-opacity="0"/>
<stop offset="1" stop-color="#613A1D"/>
</radialGradient>
<radialGradient id="paint51_radial_9820_34800" cx="0" cy="0" r="1" gradientUnits="userSpaceOnUse" gradientTransform="translate(102.425 36.8892) scale(7.6665 6.74627)">
<stop offset="0.431443" stop-color="#C7773B" stop-opacity="0"/>
<stop offset="0.884361" stop-color="#613A1D"/>
</radialGradient>
<radialGradient id="paint52_radial_9820_34800" cx="0" cy="0" r="1" gradientUnits="userSpaceOnUse" gradientTransform="translate(112.86 49.3648) rotate(-118.034) scale(3.14548 2.28426)">
<stop offset="0.246986" stop-color="#613A1D" stop-opacity="0.8"/>
<stop offset="0.929831" stop-color="#C7773B" stop-opacity="0"/>
</radialGradient>
<radialGradient id="paint53_radial_9820_34800" cx="0" cy="0" r="1" gradientUnits="userSpaceOnUse" gradientTransform="translate(107.163 49.545) rotate(53.5624) scale(3.76484 4.29427)">
<stop stop-color="#613A1D"/>
<stop offset="1" stop-color="#C7773B" stop-opacity="0"/>
</radialGradient>
<radialGradient id="paint54_radial_9820_34800" cx="0" cy="0" r="1" gradientUnits="userSpaceOnUse" gradientTransform="translate(111.273 52.2133) rotate(157.38) scale(4.68747 4.10566)">
<stop stop-color="#613A1D" stop-opacity="0.8"/>
<stop offset="0.696435" stop-color="#9C5D2F" stop-opacity="0.4"/>
<stop offset="0.929831" stop-color="#C7773B" stop-opacity="0"/>
</radialGradient>
<radialGradient id="paint55_radial_9820_34800" cx="0" cy="0" r="1" gradientUnits="userSpaceOnUse" gradientTransform="translate(113.234 38.6167) rotate(87.6479) scale(9.23077 4.27125)">
<stop offset="0.365385" stop-color="#C7773B" stop-opacity="0"/>
<stop offset="0.552885" stop-color="#BC7628" stop-opacity="0.4"/>
<stop offset="0.759615" stop-color="#BC7628" stop-opacity="0.4"/>
<stop offset="1" stop-color="#C7773B" stop-opacity="0"/>
</radialGradient>
<radialGradient id="paint56_radial_9820_34800" cx="0" cy="0" r="1" gradientUnits="userSpaceOnUse" gradientTransform="translate(110.552 45.0724) rotate(35.6045) scale(7.1844 4.75505)">
<stop stop-color="#D9B474"/>
<stop offset="1" stop-color="#E5C285" stop-opacity="0"/>
</radialGradient>
<radialGradient id="paint57_radial_9820_34800" cx="0" cy="0" r="1" gradientUnits="userSpaceOnUse" gradientTransform="translate(101.512 36.4737) rotate(-13.0495) scale(6.76285 4.42287)">
<stop offset="0.328169" stop-color="#743608" stop-opacity="0.8"/>
<stop offset="0.915911" stop-color="#C7773B" stop-opacity="0"/>
</radialGradient>
<radialGradient id="paint58_radial_9820_34800" cx="0" cy="0" r="1" gradientUnits="userSpaceOnUse" gradientTransform="translate(120.885 36.173) rotate(-9.82528) scale(6.93571 2.79233)">
<stop offset="0.12069" stop-color="#743608" stop-opacity="0.8"/>
<stop offset="1" stop-color="#C7773B" stop-opacity="0"/>
</radialGradient>
<radialGradient id="paint59_radial_9820_34800" cx="0" cy="0" r="1" gradientUnits="userSpaceOnUse" gradientTransform="translate(116.724 36.9747) rotate(-8.41766) scale(8.60657 4.92904)">
<stop offset="0.12069" stop-color="#743608" stop-opacity="0.8"/>
<stop offset="1" stop-color="#C7773B" stop-opacity="0"/>
</radialGradient>
<radialGradient id="paint60_radial_9820_34800" cx="0" cy="0" r="1" gradientUnits="userSpaceOnUse" gradientTransform="translate(115.023 35.4816) rotate(27.2161) scale(5.6765)">
<stop offset="0.12069" stop-color="#743608"/>
<stop offset="1" stop-color="#C7773B" stop-opacity="0"/>
</radialGradient>
<radialGradient id="paint61_radial_9820_34800" cx="0" cy="0" r="1" gradientUnits="userSpaceOnUse" gradientTransform="translate(110.805 51.7795) rotate(169.265) scale(2.12859 1.39594)">
<stop stop-color="#C7773B" stop-opacity="0"/>
<stop offset="1" stop-color="#613A1D"/>
</radialGradient>
<radialGradient id="paint62_radial_9820_34800" cx="0" cy="0" r="1" gradientUnits="userSpaceOnUse" gradientTransform="translate(136.367 39.6653) rotate(119.653) scale(24.4379 17.961)">
<stop stop-color="#613A1D"/>
<stop offset="1" stop-color="#C7773B" stop-opacity="0"/>
</radialGradient>
<radialGradient id="paint63_radial_9820_34800" cx="0" cy="0" r="1" gradientUnits="userSpaceOnUse" gradientTransform="translate(138.46 18.3198) rotate(155.961) scale(21.9519 8.50357)">
<stop stop-color="#613A1D"/>
<stop offset="1" stop-color="#C7773B" stop-opacity="0"/>
</radialGradient>
<radialGradient id="paint64_radial_9820_34800" cx="0" cy="0" r="1" gradientUnits="userSpaceOnUse" gradientTransform="translate(115.251 55.0176) rotate(-24.1948) scale(2.20157 1.13379)">
<stop stop-color="#613A1D"/>
<stop offset="1" stop-color="#C7773B" stop-opacity="0"/>
</radialGradient>
<radialGradient id="paint65_radial_9820_34800" cx="0" cy="0" r="1" gradientUnits="userSpaceOnUse" gradientTransform="translate(109.758 58.8118) rotate(179.795) scale(10.0962 1.94097)">
<stop stop-color="#613A1D"/>
<stop offset="1" stop-color="#C7773B" stop-opacity="0"/>
</radialGradient>
<radialGradient id="paint66_radial_9820_34800" cx="0" cy="0" r="1" gradientUnits="userSpaceOnUse" gradientTransform="translate(109.867 56.5585) scale(3.96632 1.37922)">
<stop stop-color="#FFD5A2"/>
<stop offset="1" stop-color="#DC9F55" stop-opacity="0"/>
</radialGradient>
<radialGradient id="paint67_radial_9820_34800" cx="0" cy="0" r="1" gradientUnits="userSpaceOnUse" gradientTransform="translate(104.86 55.2043) rotate(-158.659) scale(1.60267 0.783361)">
<stop stop-color="#613A1D"/>
<stop offset="1" stop-color="#C7773B" stop-opacity="0"/>
</radialGradient>
<radialGradient id="paint68_radial_9820_34800" cx="0" cy="0" r="1" gradientUnits="userSpaceOnUse" gradientTransform="translate(110.078 59.0644) rotate(174.271) scale(13.0038 4.90758)">
<stop stop-color="#613A1D"/>
<stop offset="1" stop-color="#C7773B" stop-opacity="0"/>
</radialGradient>
<radialGradient id="paint69_radial_9820_34800" cx="0" cy="0" r="1" gradientUnits="userSpaceOnUse" gradientTransform="translate(116.105 55.4507) rotate(163.909) scale(6.27311 1.17031)">
<stop stop-color="#613A1D"/>
<stop offset="1" stop-color="#C7773B" stop-opacity="0"/>
</radialGradient>
<radialGradient id="paint70_radial_9820_34800" cx="0" cy="0" r="1" gradientUnits="userSpaceOnUse" gradientTransform="translate(104.494 55.4507) rotate(15.8358) scale(6.37159 1.18868)">
<stop stop-color="#613A1D"/>
<stop offset="1" stop-color="#C7773B" stop-opacity="0"/>
</radialGradient>
<radialGradient id="paint71_radial_9820_34800" cx="0" cy="0" r="1" gradientUnits="userSpaceOnUse" gradientTransform="translate(109.002 54.7735) rotate(0.251295) scale(8.22118 1.5289)">
<stop offset="0.328633" stop-color="#C7773B" stop-opacity="0"/>
<stop offset="1" stop-color="#613A1D" stop-opacity="0.5"/>
</radialGradient>
<radialGradient id="paint72_radial_9820_34800" cx="0" cy="0" r="1" gradientUnits="userSpaceOnUse" gradientTransform="translate(108.713 54.9899) scale(2.59614 0.681853)">
<stop stop-color="#FFD5A2"/>
<stop offset="1" stop-color="#DC9F55" stop-opacity="0"/>
</radialGradient>
<linearGradient id="paint73_linear_9820_34800" x1="71.1101" y1="82.1314" x2="158.974" y2="154.84" gradientUnits="userSpaceOnUse">
<stop stop-color="#BABAFF"/>
<stop offset="1" stop-color="#944600"/>
</linearGradient>
<radialGradient id="paint74_radial_9820_34800" cx="0" cy="0" r="1" gradientUnits="userSpaceOnUse" gradientTransform="translate(138.888 144.748) rotate(-50.3437) scale(65.4104 43.3526)">
<stop offset="0.808085" stop-color="#260902"/>
<stop offset="0.925481" stop-color="#571505" stop-opacity="0"/>
</radialGradient>
<radialGradient id="paint75_radial_9820_34800" cx="0" cy="0" r="1" gradientUnits="userSpaceOnUse" gradientTransform="translate(146.05 138.345) rotate(-64.1495) scale(54.2274 40.8274)">
<stop offset="0.846944" stop-color="#AA8A61" stop-opacity="0"/>
<stop offset="0.97029" stop-color="#AA8A61"/>
</radialGradient>
<radialGradient id="paint76_radial_9820_34800" cx="0" cy="0" r="1" gradientUnits="userSpaceOnUse" gradientTransform="translate(110.413 57.3697) rotate(-13.5481) scale(2.92448 3.01296)">
<stop stop-color="#613A1D"/>
<stop offset="1" stop-color="#C7773B" stop-opacity="0"/>
</radialGradient>
<linearGradient id="paint77_linear_9820_34800" x1="71.1101" y1="86.8205" x2="149.35" y2="160.715" gradientUnits="userSpaceOnUse">
<stop stop-color="#BABAFF"/>
<stop offset="1" stop-color="#944600"/>
</linearGradient>
<radialGradient id="paint78_radial_9820_34800" cx="0" cy="0" r="1" gradientUnits="userSpaceOnUse" gradientTransform="translate(138.888 141.683) rotate(-46.587) scale(60.7399 40.9049)">
<stop offset="0.808085" stop-color="#260902"/>
<stop offset="0.925481" stop-color="#571505" stop-opacity="0"/>
</radialGradient>
<radialGradient id="paint79_radial_9820_34800" cx="0" cy="0" r="1" gradientUnits="userSpaceOnUse" gradientTransform="translate(146.05 136.073) rotate(-61.0581) scale(48.8601 39.7012)">
<stop offset="0.846944" stop-color="#AA8A61" stop-opacity="0"/>
<stop offset="0.97029" stop-color="#AA8A61"/>
</radialGradient>
<linearGradient id="paint80_linear_9820_34800" x1="71.1101" y1="93.1031" x2="133.906" y2="166.263" gradientUnits="userSpaceOnUse">
<stop stop-color="#BABAFF"/>
<stop offset="1" stop-color="#944600"/>
</linearGradient>
<radialGradient id="paint81_radial_9820_34800" cx="0" cy="0" r="1" gradientUnits="userSpaceOnUse" gradientTransform="translate(132.93 99.9976) rotate(60.8554) scale(26.9394 53.6602)">
<stop offset="0.115" stop-color="#571505" stop-opacity="0"/>
<stop offset="0.791387" stop-color="#260902"/>
</radialGradient>
<radialGradient id="paint82_radial_9820_34800" cx="0" cy="0" r="1" gradientUnits="userSpaceOnUse" gradientTransform="translate(136.577 100.139) rotate(145.267) scale(34.8624 19.2161)">
<stop stop-color="#AA8A61"/>
<stop offset="1" stop-color="#AA8A61" stop-opacity="0"/>
</radialGradient>
<radialGradient id="paint83_radial_9820_34800" cx="0" cy="0" r="1" gradientUnits="userSpaceOnUse" gradientTransform="translate(101.999 36.0694) rotate(4.1584) scale(6.55365 5.77442)">
<stop offset="0.257271" stop-color="#FFF9D8"/>
<stop offset="0.857477" stop-color="#FFD4A6" stop-opacity="0.5"/>
<stop offset="1" stop-color="#FFE0B4" stop-opacity="0"/>
</radialGradient>
<radialGradient id="paint84_radial_9820_34800" cx="0" cy="0" r="1" gradientUnits="userSpaceOnUse" gradientTransform="translate(101.926 38.4018) rotate(-9.76915) scale(4.67509 2.82353)">
<stop offset="0.633566" stop-color="#613A1D"/>
<stop offset="0.887262" stop-color="#C7773B" stop-opacity="0"/>
</radialGradient>
<radialGradient id="paint85_radial_9820_34800" cx="0" cy="0" r="1" gradientUnits="userSpaceOnUse" gradientTransform="translate(102.562 38.0108) rotate(62.5608) scale(2.8512 3.71749)">
<stop offset="0.450946" stop-color="#FFF6DC"/>
<stop offset="1" stop-color="#9E7D3A"/>
</radialGradient>
<radialGradient id="paint86_radial_9820_34800" cx="0" cy="0" r="1" gradientUnits="userSpaceOnUse" gradientTransform="translate(117.739 35.5531) rotate(4.09318) scale(7.06906 6.13153)">
<stop offset="0.257271" stop-color="#FFF9D8"/>
<stop offset="0.857477" stop-color="#FFD4A6" stop-opacity="0.5"/>
<stop offset="1" stop-color="#FFE0B4" stop-opacity="0"/>
</radialGradient>
<radialGradient id="paint87_radial_9820_34800" cx="0" cy="0" r="1" gradientUnits="userSpaceOnUse" gradientTransform="translate(117.98 38.3295) rotate(-7.1734) scale(5.77416 3.27693)">
<stop offset="0.633566" stop-color="#613A1D"/>
<stop offset="0.887262" stop-color="#C7773B" stop-opacity="0"/>
</radialGradient>
<radialGradient id="paint88_radial_9820_34800" cx="0" cy="0" r="1" gradientUnits="userSpaceOnUse" gradientTransform="translate(118.284 37.4297) scale(7.48347 5.19486)">
<stop offset="0.431443" stop-color="#C7773B" stop-opacity="0"/>
<stop offset="0.884361" stop-color="#613A1D"/>
</radialGradient>
<radialGradient id="paint89_radial_9820_34800" cx="0" cy="0" r="1" gradientUnits="userSpaceOnUse" gradientTransform="translate(118.441 37.8217) rotate(57.2933) scale(3.04581 4.41501)">
<stop offset="0.450946" stop-color="#FFF6DC"/>
<stop offset="1" stop-color="#9E7D3A"/>
</radialGradient>
<radialGradient id="paint90_radial_9820_34800" cx="0" cy="0" r="1" gradientUnits="userSpaceOnUse" gradientTransform="translate(107.812 42.6939) rotate(-86.883) scale(14.5888 7.46993)">
<stop offset="0.0754796" stop-color="#FFF9D8" stop-opacity="0.5"/>
<stop offset="1" stop-color="#FFE0B4" stop-opacity="0"/>
</radialGradient>
<radialGradient id="paint91_radial_9820_34800" cx="0" cy="0" r="1" gradientUnits="userSpaceOnUse" gradientTransform="translate(112.896 40.8194) rotate(77.0751) scale(30.6317 23.194)">
<stop offset="0.658654" stop-color="#C7773B" stop-opacity="0"/>
<stop offset="1" stop-color="#613A1D"/>
</radialGradient>
<radialGradient id="paint92_radial_9820_34800" cx="0" cy="0" r="1" gradientUnits="userSpaceOnUse" gradientTransform="translate(118.124 36.781) rotate(106.278) scale(37.5632 25.4491)">
<stop offset="0.796016" stop-color="#F6E2AA" stop-opacity="0"/>
<stop offset="0.934529" stop-color="#F6E2AA"/>
</radialGradient>
<linearGradient id="paint93_linear_9820_34800" x1="119.269" y1="35.9715" x2="119.269" y2="39.0954" gradientUnits="userSpaceOnUse">
<stop stop-color="#763800"/>
<stop offset="1" stop-color="#B27805"/>
</linearGradient>
<linearGradient id="paint94_linear_9820_34800" x1="103.396" y1="36.1525" x2="103.396" y2="39.2764" gradientUnits="userSpaceOnUse">
<stop stop-color="#763800"/>
<stop offset="1" stop-color="#B27805"/>
</linearGradient>
<linearGradient id="paint95_linear_9820_34800" x1="119.298" y1="36.0218" x2="119.298" y2="40.5651" gradientUnits="userSpaceOnUse">
<stop stop-color="#5A3108"/>
<stop offset="1" stop-color="#7D4001"/>
</linearGradient>
<linearGradient id="paint96_linear_9820_34800" x1="103.425" y1="36.2044" x2="103.425" y2="40.7477" gradientUnits="userSpaceOnUse">
<stop stop-color="#5A3108"/>
<stop offset="1" stop-color="#7D4001"/>
</linearGradient>
<radialGradient id="paint97_radial_9820_34800" cx="0" cy="0" r="1" gradientUnits="userSpaceOnUse" gradientTransform="translate(113.148 0.939146) rotate(78.6019) scale(33.6929 33.6929)">
<stop stop-color="#CD9B63" stop-opacity="0.6"/>
<stop offset="1" stop-color="#CD9B63" stop-opacity="0"/>
</radialGradient>
<radialGradient id="paint98_radial_9820_34800" cx="0" cy="0" r="1" gradientUnits="userSpaceOnUse" gradientTransform="translate(98.2194 19.1896) rotate(3.17167) scale(28.6752 12.0933)">
<stop stop-color="#270A02" stop-opacity="0.4"/>
<stop offset="1" stop-color="#CD9B63" stop-opacity="0"/>
</radialGradient>
</defs>
</svg>
