<svg viewBox="0 0 240 120" fill="none" xmlns="http://www.w3.org/2000/svg">
<path d="M112.854 13.408C100.462 7.10501 89.5736 12.266 78.9188 20.7949C77.3487 22.0517 77.2337 28.5177 81.009 30.922C84.8876 33.3921 92.6815 31.7845 92.6815 31.7845C101.233 27.9708 106.216 16.6695 112.854 13.408Z" fill="url(#paint0_linear_9778_2079)"/>
<path d="M77.9527 51.1227C80.1806 50.1487 89.8143 37.9317 93.9995 31.3901C93.1958 30.2301 83.4051 28.3529 83.4051 28.3529C83.4051 28.3529 80.1787 20.4573 79.1697 20.1681C74.3754 20.7038 59.2583 35.0398 57.0754 38.9916C55.3291 42.1531 59.9233 50.0417 60.958 52.5361C65.2944 52.5474 75.7249 52.0966 77.9527 51.1227Z" fill="url(#paint1_linear_9778_2079)"/>
<path d="M42.9013 78.7322C37.5141 62.7598 50.7218 45.016 57.1111 37.6225L62.5572 50.602L79.9587 50.1698C73.4757 60.9106 61.0546 84.3172 45.2289 80.5754L42.9013 78.7322Z" fill="url(#paint2_linear_9778_2079)"/>
<path d="M33.5403 97.0627L40.114 95.696C61.8916 35.557 104.318 16.2558 104.318 16.2558L103.063 13.933C69.7999 27.9224 45.516 62.3263 33.5403 97.0627Z" fill="url(#paint3_linear_9778_2079)"/>
<path d="M39.1004 82.8809C40.2925 84.7135 39.9486 91.4529 42.2576 88.9479C43.571 87.523 43.3575 90.4005 42.6397 93.5422C42.13 95.7731 41.489 98.364 40.4092 98.6263C36.474 99.5823 37.3076 101.226 35.6064 104.811C33.9053 108.396 27.8257 104.302 29.283 102.271C36.1416 92.7122 37.9082 81.0484 39.1004 82.8809Z" fill="url(#paint4_linear_9778_2079)"/>
<path d="M65.7163 91.324C66.2248 85.6805 71.182 81.3462 77.1281 81.3462H91.15C97.0586 81.3462 101.998 85.6277 102.553 91.2313L104.11 106.935C104.166 107.498 103.929 108.043 103.399 108.297C101.659 109.13 96.6297 110.783 84.0943 110.783C71.5125 110.783 66.6267 109.118 64.9722 108.288C64.4739 108.037 64.2571 107.519 64.3053 106.985L65.7163 91.324Z" fill="url(#paint5_radial_9778_2079)"/>
<path d="M65.7163 91.324C66.2248 85.6805 71.182 81.3462 77.1281 81.3462H91.15C97.0586 81.3462 101.998 85.6277 102.553 91.2313L104.11 106.935C104.166 107.498 103.929 108.043 103.399 108.297C101.659 109.13 96.6297 110.783 84.0943 110.783C71.5125 110.783 66.6267 109.118 64.9722 108.288C64.4739 108.037 64.2571 107.519 64.3053 106.985L65.7163 91.324Z" fill="url(#paint6_radial_9778_2079)"/>
<path d="M65.7163 91.324C66.2248 85.6805 71.182 81.3462 77.1281 81.3462H91.15C97.0586 81.3462 101.998 85.6277 102.553 91.2313L104.11 106.935C104.166 107.498 103.929 108.043 103.399 108.297C101.659 109.13 96.6297 110.783 84.0943 110.783C71.5125 110.783 66.6267 109.118 64.9722 108.288C64.4739 108.037 64.2571 107.519 64.3053 106.985L65.7163 91.324Z" fill="url(#paint7_radial_9778_2079)"/>
<path d="M65.7163 91.324C66.2248 85.6805 71.182 81.3462 77.1281 81.3462H91.15C97.0586 81.3462 101.998 85.6277 102.553 91.2313L104.11 106.935C104.166 107.498 103.929 108.043 103.399 108.297C101.659 109.13 96.6297 110.783 84.0943 110.783C71.5125 110.783 66.6267 109.118 64.9722 108.288C64.4739 108.037 64.2571 107.519 64.3053 106.985L65.7163 91.324Z" fill="url(#paint8_linear_9778_2079)"/>
<path d="M65.7163 91.324C66.2248 85.6805 71.182 81.3462 77.1281 81.3462H91.15C97.0586 81.3462 101.998 85.6277 102.553 91.2313L104.11 106.935C104.166 107.498 103.929 108.043 103.399 108.297C101.659 109.13 96.6297 110.783 84.0943 110.783C71.5125 110.783 66.6267 109.118 64.9722 108.288C64.4739 108.037 64.2571 107.519 64.3053 106.985L65.7163 91.324Z" fill="url(#paint9_linear_9778_2079)"/>
<path d="M74.4794 75.0674H93.7074V82.4549C93.7074 82.4549 91.3707 83.5915 84.0934 83.5915C76.8161 83.5915 74.4794 82.4549 74.4794 82.4549V75.0674Z" fill="url(#paint10_radial_9778_2079)"/>
<path d="M74.4794 75.0674H93.7074V82.4549C93.7074 82.4549 91.3707 83.5915 84.0934 83.5915C76.8161 83.5915 74.4794 82.4549 74.4794 82.4549V75.0674Z" fill="url(#paint11_linear_9778_2079)"/>
<path d="M74.4794 75.0674H93.7074V82.4549C93.7074 82.4549 91.3707 83.5915 84.0934 83.5915C76.8161 83.5915 74.4794 82.4549 74.4794 82.4549V75.0674Z" fill="url(#paint12_linear_9778_2079)"/>
<path d="M74.4794 75.0674H93.7074V82.4549C93.7074 82.4549 91.3707 83.5915 84.0934 83.5915C76.8161 83.5915 74.4794 82.4549 74.4794 82.4549V75.0674Z" fill="url(#paint13_radial_9778_2079)"/>
<path d="M91.9134 72.3564L76.2709 72.3564L74.7072 63.6786C74.4751 62.3906 75.1962 61.1496 76.4803 60.8969C78.0778 60.5825 80.5844 60.2547 84.0921 60.2547C87.5998 60.2547 90.1065 60.5825 91.7039 60.8969C92.988 61.1496 93.7091 62.3906 93.477 63.6786L91.9134 72.3564Z" fill="url(#paint14_radial_9778_2079)"/>
<path d="M91.9134 72.3564L76.2709 72.3564L74.7072 63.6786C74.4751 62.3906 75.1962 61.1496 76.4803 60.8969C78.0778 60.5825 80.5844 60.2547 84.0921 60.2547C87.5998 60.2547 90.1065 60.5825 91.7039 60.8969C92.988 61.1496 93.7091 62.3906 93.477 63.6786L91.9134 72.3564Z" fill="url(#paint15_radial_9778_2079)"/>
<path d="M91.9134 72.3564L76.2709 72.3564L74.7072 63.6786C74.4751 62.3906 75.1962 61.1496 76.4803 60.8969C78.0778 60.5825 80.5844 60.2547 84.0921 60.2547C87.5998 60.2547 90.1065 60.5825 91.7039 60.8969C92.988 61.1496 93.7091 62.3906 93.477 63.6786L91.9134 72.3564Z" fill="url(#paint16_radial_9778_2079)"/>
<path d="M72.4117 73.8233C72.4117 72.354 73.9473 71.2155 75.6656 71.3565C77.8094 71.5325 80.8188 71.7145 84.0954 71.7145C87.3721 71.7145 90.3815 71.5325 92.5253 71.3565C94.2435 71.2155 95.7791 72.354 95.7791 73.8233C95.7791 74.9745 94.8171 75.9528 93.4731 76.0825C91.5156 76.2715 88.3459 76.488 84.0954 76.488C79.845 76.488 76.6753 76.2715 74.7177 76.0825C73.3738 75.9528 72.4117 74.9745 72.4117 73.8233Z" fill="url(#paint17_radial_9778_2079)"/>
<path d="M72.4117 73.8233C72.4117 72.354 73.9473 71.2155 75.6656 71.3565C77.8094 71.5325 80.8188 71.7145 84.0954 71.7145C87.3721 71.7145 90.3815 71.5325 92.5253 71.3565C94.2435 71.2155 95.7791 72.354 95.7791 73.8233C95.7791 74.9745 94.8171 75.9528 93.4731 76.0825C91.5156 76.2715 88.3459 76.488 84.0954 76.488C79.845 76.488 76.6753 76.2715 74.7177 76.0825C73.3738 75.9528 72.4117 74.9745 72.4117 73.8233Z" fill="url(#paint18_radial_9778_2079)"/>
<path d="M136.729 27.3633L141.674 29.1311C142.301 29.3554 142.72 29.9496 142.72 30.6157V100.31C142.72 100.877 142.491 101.419 142.085 101.815L136.729 107.038V27.3633Z" fill="url(#paint19_linear_9778_2079)"/>
<path d="M136.729 27.3633L141.674 29.1311C142.301 29.3554 142.72 29.9496 142.72 30.6157V100.31C142.72 100.877 142.491 101.419 142.085 101.815L136.729 107.038V27.3633Z" fill="url(#paint20_radial_9778_2079)"/>
<path d="M122.3 29.057C122.3 28.0992 123.077 27.3228 124.034 27.3228H136.308C137.266 27.3228 138.042 28.0992 138.042 29.057V105.341C138.042 106.298 137.266 107.075 136.308 107.075H124.034C123.077 107.075 122.3 106.298 122.3 105.341V29.057Z" fill="url(#paint21_linear_9778_2079)"/>
<path d="M122.3 29.057C122.3 28.0992 123.077 27.3228 124.034 27.3228H136.308C137.266 27.3228 138.042 28.0992 138.042 29.057V105.341C138.042 106.298 137.266 107.075 136.308 107.075H124.034C123.077 107.075 122.3 106.298 122.3 105.341V29.057Z" fill="url(#paint22_linear_9778_2079)"/>
<path d="M122.3 29.057C122.3 28.0992 123.077 27.3228 124.034 27.3228H136.308C137.266 27.3228 138.042 28.0992 138.042 29.057V105.341C138.042 106.298 137.266 107.075 136.308 107.075H124.034C123.077 107.075 122.3 106.298 122.3 105.341V29.057Z" fill="url(#paint23_linear_9778_2079)"/>
<path d="M122.3 29.057C122.3 28.0992 123.077 27.3228 124.034 27.3228H136.308C137.266 27.3228 138.042 28.0992 138.042 29.057V105.341C138.042 106.298 137.266 107.075 136.308 107.075H124.034C123.077 107.075 122.3 106.298 122.3 105.341V29.057Z" fill="url(#paint24_radial_9778_2079)"/>
<path d="M122.3 29.057C122.3 28.0992 123.077 27.3228 124.034 27.3228H136.308C137.266 27.3228 138.042 28.0992 138.042 29.057V105.341C138.042 106.298 137.266 107.075 136.308 107.075H124.034C123.077 107.075 122.3 106.298 122.3 105.341V29.057Z" fill="url(#paint25_radial_9778_2079)"/>
<path d="M138.041 30.594L138.041 34.3697L134.496 34.3697C133.777 36.4169 132.076 37.856 130.091 37.856C128.107 37.856 126.406 36.4169 125.687 34.3697L122.299 34.3697L122.299 30.594L138.041 30.594Z" fill="url(#paint26_linear_9778_2079)"/>
<path d="M138.041 30.594L138.041 34.3697L134.496 34.3697C133.777 36.4169 132.076 37.856 130.091 37.856C128.107 37.856 126.406 36.4169 125.687 34.3697L122.299 34.3697L122.299 30.594L138.041 30.594Z" fill="url(#paint27_linear_9778_2079)"/>
<path d="M138.041 103.782L138.041 100.006L134.496 100.006C133.777 97.9586 132.076 96.5195 130.091 96.5195C128.107 96.5195 126.406 97.9586 125.687 100.006L122.299 100.006L122.299 103.782L138.041 103.782Z" fill="url(#paint28_linear_9778_2079)"/>
<path d="M138.041 103.782L138.041 100.006L134.496 100.006C133.777 97.9586 132.076 96.5195 130.091 96.5195C128.107 96.5195 126.406 97.9586 125.687 100.006L122.299 100.006L122.299 103.782L138.041 103.782Z" fill="url(#paint29_linear_9778_2079)"/>
<path fill-rule="evenodd" clip-rule="evenodd" d="M124.99 48.8752C125.639 48.8752 126.19 48.4249 126.287 47.8158C126.608 45.805 128.287 44.3892 130.169 44.3892C132.052 44.3892 133.731 45.805 134.051 47.8158C134.149 48.4249 134.7 48.8752 135.348 48.8752H136.729L136.729 86.5214H135.081C134.524 86.5214 134.028 86.8553 133.843 87.3544C133.257 88.9394 131.794 89.9843 130.169 89.9843C128.545 89.9843 127.082 88.9394 126.496 87.3544C126.311 86.8553 125.815 86.5214 125.258 86.5214H123.611L123.611 48.8752H124.99ZM122.299 87.7675H125.258C126.007 89.7911 127.923 91.2304 130.169 91.2304C132.416 91.2304 134.332 89.7911 135.081 87.7675H138.041V47.6291H135.348C134.943 45.0851 132.778 43.1431 130.169 43.1431C127.56 43.1431 125.396 45.0851 124.99 47.6291H122.299L122.299 87.7675Z" fill="url(#paint30_linear_9778_2079)"/>
<path d="M130.17 54.7266C128.721 54.7266 127.547 55.9012 127.547 57.3502L127.547 77.0255C127.547 78.4745 128.721 79.6491 130.17 79.6491C131.619 79.6491 132.794 78.4745 132.794 77.0255L132.794 57.3502C132.794 55.9012 131.619 54.7266 130.17 54.7266Z" fill="#F4D061" fill-opacity="0.8"/>
<path d="M155.708 17.3525L161.054 20.3885C161.547 20.6686 161.851 21.1921 161.851 21.7593V101.078C161.851 101.717 161.561 102.321 161.061 102.72L155.708 106.996V17.3525Z" fill="url(#paint31_linear_9778_2079)"/>
<path d="M155.708 17.3525L161.054 20.3885C161.547 20.6686 161.851 21.1921 161.851 21.7593V101.078C161.851 101.717 161.561 102.321 161.061 102.72L155.708 106.996V17.3525Z" fill="url(#paint32_linear_9778_2079)"/>
<path d="M155.708 17.3525L161.054 20.3885C161.547 20.6686 161.851 21.1921 161.851 21.7593V101.078C161.851 101.717 161.561 102.321 161.061 102.72L155.708 106.996V17.3525Z" fill="url(#paint33_radial_9778_2079)"/>
<path d="M141.607 19.4546C141.607 18.2937 142.548 17.3525 143.709 17.3525H155.247C156.408 17.3525 157.349 18.2937 157.349 19.4546V104.972C157.349 106.133 156.408 107.074 155.247 107.074H143.709C142.548 107.074 141.607 106.133 141.607 104.972V19.4546Z" fill="url(#paint34_linear_9778_2079)"/>
<path d="M141.607 19.4546C141.607 18.2937 142.548 17.3525 143.709 17.3525H155.247C156.408 17.3525 157.349 18.2937 157.349 19.4546V104.972C157.349 106.133 156.408 107.074 155.247 107.074H143.709C142.548 107.074 141.607 106.133 141.607 104.972V19.4546Z" fill="url(#paint35_radial_9778_2079)"/>
<path d="M141.607 19.4546C141.607 18.2937 142.548 17.3525 143.709 17.3525H155.247C156.408 17.3525 157.349 18.2937 157.349 19.4546V104.972C157.349 106.133 156.408 107.074 155.247 107.074H143.709C142.548 107.074 141.607 106.133 141.607 104.972V19.4546Z" fill="url(#paint36_radial_9778_2079)"/>
<path d="M141.607 19.4546C141.607 18.2937 142.548 17.3525 143.709 17.3525H155.247C156.408 17.3525 157.349 18.2937 157.349 19.4546V104.972C157.349 106.133 156.408 107.074 155.247 107.074H143.709C142.548 107.074 141.607 106.133 141.607 104.972V19.4546Z" fill="url(#paint37_radial_9778_2079)"/>
<path d="M157.348 22.874L141.606 22.874V26.3888L157.348 26.3888V22.874Z" fill="url(#paint38_linear_9778_2079)"/>
<path d="M157.348 44.77H141.607V48.2848H157.348V44.77Z" fill="url(#paint39_linear_9778_2079)"/>
<path d="M157.348 62.2129H141.607V65.7277H157.348V62.2129Z" fill="url(#paint40_linear_9778_2079)"/>
<path d="M157.348 79.6606H141.607V83.1754H157.348V79.6606Z" fill="url(#paint41_linear_9778_2079)"/>
<path d="M157.348 97.1055H141.607V100.62H157.348V97.1055Z" fill="url(#paint42_linear_9778_2079)"/>
<path d="M154.381 30.5947H144.81V33.8658H154.381V30.5947Z" fill="url(#paint43_linear_9778_2079)"/>
<path d="M153.529 35.5801H145.658V38.8512H153.529V35.5801Z" fill="url(#paint44_linear_9778_2079)"/>
<path d="M149.738 50.5548C149.619 50.2096 149.104 50.2096 148.985 50.5548L148.922 50.7351C148.833 50.9927 148.495 51.0789 148.282 50.8973L148.138 50.7711C147.854 50.5282 147.407 50.7724 147.484 51.1272L147.638 51.7988C147.689 52.0315 147.5 52.249 147.25 52.2495H146.529C146.147 52.2495 145.987 52.7159 146.295 52.9302L146.457 53.0428C146.688 53.2027 146.668 53.5336 146.421 53.6694L146.249 53.764C145.919 53.9462 146.027 54.4247 146.407 54.4627L147.124 54.5348C147.373 54.5602 147.533 54.7954 147.457 55.0216L147.237 55.6752C147.119 56.0209 147.535 56.308 147.845 56.0943L148.003 55.9817C148.139 55.8873 148.307 55.8995 148.435 55.9726C148.385 56.2362 148.347 56.5023 148.332 56.7659C148.287 57.5338 148.394 58.3274 148.697 58.961C147.368 57.0452 146.28 56.2704 143.559 56.3377C143.739 57.8242 144.967 60.4619 148.408 60.1239C152.839 60.8968 154.377 58.0214 154.592 56.4414C151.824 56.3806 150.574 57.0177 149.251 58.5689C149.054 58.0856 148.951 57.4695 148.99 56.802C148.992 56.7629 149.005 56.7239 149.008 56.6848C149.166 56.7012 149.335 56.6351 149.413 56.4685L149.706 55.8419C149.809 55.6252 150.094 55.5532 150.297 55.6932L150.878 56.0943C151.188 56.308 151.605 56.0209 151.487 55.6752L151.428 55.4949C151.34 55.2368 151.559 54.9761 151.843 55.0036L152.041 55.0261C152.422 55.0641 152.632 54.6159 152.348 54.3725L151.811 53.9173C151.625 53.7576 151.64 53.4717 151.843 53.3313L152.429 52.9302C152.736 52.7159 152.577 52.2496 152.194 52.2495H151.996C151.71 52.2495 151.519 51.9704 151.636 51.7222L151.717 51.5509C151.872 51.219 151.489 50.8919 151.158 51.0731L150.531 51.4157C150.314 51.5332 150.037 51.4337 149.959 51.2083L149.738 50.5548Z" fill="url(#paint45_linear_9778_2079)" fill-opacity="0.8"/>
<path d="M149.738 67.7027C149.619 67.3575 149.104 67.3576 148.985 67.7027L148.922 67.883C148.833 68.1407 148.495 68.2269 148.282 68.0453L148.138 67.9191C147.854 67.6761 147.407 67.9204 147.484 68.2751L147.638 68.9467C147.689 69.1795 147.5 69.3969 147.25 69.3975H146.529C146.147 69.3975 145.987 69.8639 146.295 70.0781L146.457 70.1908C146.688 70.3507 146.668 70.6815 146.421 70.8173L146.249 70.9119C145.919 71.0941 146.027 71.5726 146.407 71.6106L147.124 71.6827C147.373 71.7081 147.533 71.9432 147.457 72.1695L147.237 72.823C147.119 73.1688 147.535 73.4559 147.845 73.2422L148.003 73.1295C148.139 73.0352 148.307 73.0473 148.435 73.1205C148.385 73.384 148.347 73.6502 148.332 73.9138C148.287 74.6817 148.394 75.4752 148.697 76.1089C147.368 74.1925 146.281 73.4182 143.559 73.4856C143.739 74.9726 144.968 77.6123 148.413 77.2717C152.843 78.0422 154.378 75.1636 154.592 73.5848C151.824 73.5239 150.574 74.1651 149.251 75.7167C149.054 75.2334 148.951 74.6174 148.99 73.9499C148.992 73.9108 149.005 73.8717 149.008 73.8327C149.166 73.849 149.335 73.783 149.413 73.6163L149.706 72.9898C149.809 72.773 150.094 72.7011 150.297 72.8411L150.878 73.2422C151.188 73.4559 151.605 73.1687 151.487 72.823L151.428 72.6427C151.34 72.3847 151.559 72.124 151.843 72.1514L152.041 72.174C152.422 72.212 152.632 71.7638 152.348 71.5204L151.811 71.0652C151.625 70.9055 151.64 70.6196 151.843 70.4792L152.429 70.0781C152.736 69.8638 152.577 69.3975 152.194 69.3975H151.996C151.71 69.3974 151.519 69.1184 151.636 68.8701L151.717 68.6988C151.872 68.3669 151.489 68.0398 151.158 68.2211L150.531 68.5636C150.314 68.6812 150.037 68.5816 149.959 68.3563L149.738 67.7027Z" fill="url(#paint46_linear_9778_2079)" fill-opacity="0.8"/>
<path d="M149.738 85.3233C149.619 84.9781 149.104 84.9782 148.985 85.3233L148.922 85.5036C148.833 85.7613 148.495 85.8475 148.282 85.6659L148.138 85.5397C147.854 85.2967 147.407 85.541 147.484 85.8958L147.638 86.5673C147.689 86.8001 147.5 87.0175 147.25 87.0181H146.529C146.147 87.0181 145.987 87.4845 146.295 87.6987L146.457 87.8114C146.688 87.9713 146.668 88.3021 146.421 88.4379L146.249 88.5325C145.919 88.7147 146.027 89.1932 146.407 89.2312L147.124 89.3033C147.373 89.3287 147.533 89.5639 147.457 89.7901L147.237 90.4436C147.119 90.7894 147.535 91.0765 147.845 90.8628L148.003 90.7501C148.139 90.6558 148.307 90.6679 148.435 90.7411C148.385 91.0047 148.347 91.2708 148.332 91.5344C148.287 92.3023 148.394 93.0958 148.697 93.7295C147.368 91.8131 146.281 91.0388 143.559 91.1062C143.739 92.5932 144.968 95.2329 148.413 94.8923C152.843 95.6628 154.378 92.7842 154.592 91.2054C151.824 91.1445 150.574 91.7857 149.251 93.3373C149.054 92.854 148.951 92.238 148.99 91.5705C148.992 91.5314 149.005 91.4923 149.008 91.4533C149.166 91.4696 149.335 91.4036 149.413 91.2369L149.706 90.6104C149.809 90.3936 150.094 90.3217 150.297 90.4617L150.878 90.8628C151.188 91.0765 151.605 90.7894 151.487 90.4436L151.428 90.2633C151.34 90.0053 151.559 89.7446 151.843 89.772L152.041 89.7946C152.422 89.8326 152.632 89.3844 152.348 89.141L151.811 88.6858C151.625 88.5261 151.64 88.2402 151.843 88.0998L152.429 87.6987C152.736 87.4844 152.577 87.0181 152.194 87.0181H151.996C151.71 87.018 151.519 86.739 151.636 86.4907L151.717 86.3194C151.872 85.9875 151.489 85.6605 151.158 85.8417L150.531 86.1842C150.314 86.3018 150.037 86.2022 149.959 85.9769L149.738 85.3233Z" fill="url(#paint47_linear_9778_2079)" fill-opacity="0.8"/>
<path d="M188.623 46.2876C188.623 45.43 189.144 44.6583 189.94 44.3378L194.573 42.4717V106.843L189.535 103.381C188.964 102.989 188.623 102.341 188.623 101.649V46.2876Z" fill="url(#paint48_linear_9778_2079)"/>
<path d="M188.623 46.2876C188.623 45.43 189.144 44.6583 189.94 44.3378L194.573 42.4717V106.843L189.535 103.381C188.964 102.989 188.623 102.341 188.623 101.649V46.2876Z" fill="url(#paint49_linear_9778_2079)"/>
<path d="M188.623 46.2876C188.623 45.43 189.144 44.6583 189.94 44.3378L194.573 42.4717V106.843L189.535 103.381C188.964 102.989 188.623 102.341 188.623 101.649V46.2876Z" fill="url(#paint50_radial_9778_2079)"/>
<path d="M193.87 43.8519C193.87 42.9812 194.576 42.2754 195.446 42.2754H208.035C208.906 42.2754 209.612 42.9812 209.612 43.8519V104.972C209.612 106.133 208.67 107.074 207.51 107.074H195.446C194.576 107.074 193.87 106.368 193.87 105.497V43.8519Z" fill="url(#paint51_linear_9778_2079)"/>
<path d="M193.87 43.8519C193.87 42.9812 194.576 42.2754 195.446 42.2754H208.035C208.906 42.2754 209.612 42.9812 209.612 43.8519V104.972C209.612 106.133 208.67 107.074 207.51 107.074H195.446C194.576 107.074 193.87 106.368 193.87 105.497V43.8519Z" fill="url(#paint52_linear_9778_2079)"/>
<path d="M193.87 43.8519C193.87 42.9812 194.576 42.2754 195.446 42.2754H208.035C208.906 42.2754 209.612 42.9812 209.612 43.8519V104.972C209.612 106.133 208.67 107.074 207.51 107.074H195.446C194.576 107.074 193.87 106.368 193.87 105.497V43.8519Z" fill="url(#paint53_radial_9778_2079)"/>
<path d="M193.87 43.8519C193.87 42.9812 194.576 42.2754 195.446 42.2754H208.035C208.906 42.2754 209.612 42.9812 209.612 43.8519V104.972C209.612 106.133 208.67 107.074 207.51 107.074H195.446C194.576 107.074 193.87 106.368 193.87 105.497V43.8519Z" fill="url(#paint54_radial_9778_2079)"/>
<path d="M193.87 62.835H209.612V65.8811H193.87V62.835Z" fill="url(#paint55_linear_9778_2079)"/>
<path d="M199.118 72.7947C199.118 72.2142 199.588 71.7437 200.169 71.7437H203.314C203.895 71.7437 204.365 72.2142 204.365 72.7947V92.2922C204.365 92.8726 203.895 93.3432 203.314 93.3432H200.169C199.588 93.3432 199.118 92.8726 199.118 92.2922V72.7947Z" fill="#023022" fill-opacity="0.55"/>
<path d="M199.118 72.7947C199.118 72.2142 199.588 71.7437 200.169 71.7437H203.314C203.895 71.7437 204.365 72.2142 204.365 72.7947V92.2922C204.365 92.8726 203.895 93.3432 203.314 93.3432H200.169C199.588 93.3432 199.118 92.8726 199.118 92.2922V72.7947Z" fill="#F4D061" fill-opacity="0.66"/>
<path d="M197.806 58.5989C197.806 58.0184 198.276 57.5479 198.857 57.5479H204.626C205.206 57.5479 205.677 58.0184 205.677 58.5989V59.5165C205.677 60.0969 205.206 60.5675 204.626 60.5675H198.857C198.276 60.5675 197.806 60.0969 197.806 59.5165V58.5989Z" fill="url(#paint56_linear_9778_2079)"/>
<path d="M197.806 58.5989C197.806 58.0184 198.276 57.5479 198.857 57.5479H204.626C205.206 57.5479 205.677 58.0184 205.677 58.5989V59.5165C205.677 60.0969 205.206 60.5675 204.626 60.5675H198.857C198.276 60.5675 197.806 60.0969 197.806 59.5165V58.5989Z" fill="#023022" fill-opacity="0.55"/>
<path d="M197.806 58.5989C197.806 58.0184 198.276 57.5479 198.857 57.5479H204.626C205.206 57.5479 205.677 58.0184 205.677 58.5989V59.5165C205.677 60.0969 205.206 60.5675 204.626 60.5675H198.857C198.276 60.5675 197.806 60.0969 197.806 59.5165V58.5989Z" fill="#F4D061" fill-opacity="0.66"/>
<path d="M193.87 67.854H209.612V69.3771H193.87V67.854Z" fill="url(#paint57_linear_9778_2079)"/>
<path d="M193.87 47.1283V43.5714C193.87 42.8556 194.575 42.2754 195.444 42.2754H208.037C208.907 42.2754 209.612 42.8556 209.612 43.5714V47.2221C209.612 48.6836 208.706 50.0379 207.327 50.9589C205.358 52.2747 202.72 52.6955 201.987 54.7626C201.252 52.6892 198.418 52.2621 196.304 50.947C194.838 50.0349 193.87 48.6409 193.87 47.1283Z" fill="url(#paint58_linear_9778_2079)"/>
<path d="M193.87 47.1283V43.5714C193.87 42.8556 194.575 42.2754 195.444 42.2754H208.037C208.907 42.2754 209.612 42.8556 209.612 43.5714V47.2221C209.612 48.6836 208.706 50.0379 207.327 50.9589C205.358 52.2747 202.72 52.6955 201.987 54.7626C201.252 52.6892 198.418 52.2621 196.304 50.947C194.838 50.0349 193.87 48.6409 193.87 47.1283Z" fill="url(#paint59_radial_9778_2079)"/>
<path d="M193.87 47.1283V43.5714C193.87 42.8556 194.575 42.2754 195.444 42.2754H208.037C208.907 42.2754 209.612 42.8556 209.612 43.5714V47.2221C209.612 48.6836 208.706 50.0379 207.327 50.9589C205.358 52.2747 202.72 52.6955 201.987 54.7626C201.252 52.6892 198.418 52.2621 196.304 50.947C194.838 50.0349 193.87 48.6409 193.87 47.1283Z" fill="url(#paint60_radial_9778_2079)"/>
<path d="M193.87 47.1283V43.5714C193.87 42.8556 194.575 42.2754 195.444 42.2754H208.037C208.907 42.2754 209.612 42.8556 209.612 43.5714V47.2221C209.612 48.6836 208.706 50.0379 207.327 50.9589C205.358 52.2747 202.72 52.6955 201.987 54.7626C201.252 52.6892 198.418 52.2621 196.304 50.947C194.838 50.0349 193.87 48.6409 193.87 47.1283Z" fill="url(#paint61_radial_9778_2079)"/>
<path d="M193.87 47.1283V43.5714C193.87 42.8556 194.575 42.2754 195.444 42.2754H208.037C208.907 42.2754 209.612 42.8556 209.612 43.5714V47.2221C209.612 48.6836 208.706 50.0379 207.327 50.9589C205.358 52.2747 202.72 52.6955 201.987 54.7626C201.252 52.6892 198.418 52.2621 196.304 50.947C194.838 50.0349 193.87 48.6409 193.87 47.1283Z" fill="url(#paint62_radial_9778_2079)"/>
<path d="M209.612 94.5597C209.185 95.2884 208.521 95.9388 207.699 96.4537C207.022 96.8779 206.27 97.2091 205.537 97.5324C203.995 98.2119 202.532 98.8567 202.002 100.257C201.468 98.8458 199.897 98.1973 198.237 97.5121C197.458 97.1908 196.66 96.8615 195.941 96.4417C195.045 95.919 194.323 95.2378 193.87 94.4668V105.498C193.87 106.369 194.576 107.075 195.446 107.075H208.035C208.906 107.075 209.612 106.369 209.612 105.498V94.5597Z" fill="url(#paint63_linear_9778_2079)"/>
<path d="M209.612 94.5597C209.185 95.2884 208.521 95.9388 207.699 96.4537C207.022 96.8779 206.27 97.2091 205.537 97.5324C203.995 98.2119 202.532 98.8567 202.002 100.257C201.468 98.8458 199.897 98.1973 198.237 97.5121C197.458 97.1908 196.66 96.8615 195.941 96.4417C195.045 95.919 194.323 95.2378 193.87 94.4668V105.498C193.87 106.369 194.576 107.075 195.446 107.075H208.035C208.906 107.075 209.612 106.369 209.612 105.498V94.5597Z" fill="url(#paint64_radial_9778_2079)"/>
<path d="M209.612 94.5597C209.185 95.2884 208.521 95.9388 207.699 96.4537C207.022 96.8779 206.27 97.2091 205.537 97.5324C203.995 98.2119 202.532 98.8567 202.002 100.257C201.468 98.8458 199.897 98.1973 198.237 97.5121C197.458 97.1908 196.66 96.8615 195.941 96.4417C195.045 95.919 194.323 95.2378 193.87 94.4668V105.498C193.87 106.369 194.576 107.075 195.446 107.075H208.035C208.906 107.075 209.612 106.369 209.612 105.498V94.5597Z" fill="url(#paint65_radial_9778_2079)"/>
<path d="M209.612 94.5597C209.185 95.2884 208.521 95.9388 207.699 96.4537C207.022 96.8779 206.27 97.2091 205.537 97.5324C203.995 98.2119 202.532 98.8567 202.002 100.257C201.468 98.8458 199.897 98.1973 198.237 97.5121C197.458 97.1908 196.66 96.8615 195.941 96.4417C195.045 95.919 194.323 95.2378 193.87 94.4668V105.498C193.87 106.369 194.576 107.075 195.446 107.075H208.035C208.906 107.075 209.612 106.369 209.612 105.498V94.5597Z" fill="url(#paint66_radial_9778_2079)"/>
<path d="M209.612 94.5597C209.185 95.2884 208.521 95.9388 207.699 96.4537C207.022 96.8779 206.27 97.2091 205.537 97.5324C203.995 98.2119 202.532 98.8567 202.002 100.257C201.468 98.8458 199.897 98.1973 198.237 97.5121C197.458 97.1908 196.66 96.8615 195.941 96.4417C195.045 95.919 194.323 95.2378 193.87 94.4668V105.498C193.87 106.369 194.576 107.075 195.446 107.075H208.035C208.906 107.075 209.612 106.369 209.612 105.498V94.5597Z" fill="url(#paint67_radial_9778_2079)"/>
<path d="M177.018 32.249L173.262 33.8973C172.69 34.1487 172.32 34.7152 172.32 35.3409V102.464C172.32 102.935 172.53 103.381 172.894 103.681L177.018 107.074V32.249Z" fill="url(#paint68_linear_9778_2079)"/>
<path d="M177.018 32.249L173.262 33.8973C172.69 34.1487 172.32 34.7152 172.32 35.3409V102.464C172.32 102.935 172.53 103.381 172.894 103.681L177.018 107.074V32.249Z" fill="url(#paint69_radial_9778_2079)"/>
<path d="M175.476 33.8842C175.476 33.0135 176.182 32.3076 177.053 32.3076H189.642C190.512 32.3076 191.218 33.0135 191.218 33.8842V105.499C191.218 106.369 190.512 107.075 189.642 107.075H177.053C176.182 107.075 175.476 106.369 175.476 105.499V33.8842Z" fill="url(#paint70_linear_9778_2079)"/>
<path d="M175.476 33.8842C175.476 33.0135 176.182 32.3076 177.053 32.3076H189.642C190.512 32.3076 191.218 33.0135 191.218 33.8842V105.499C191.218 106.369 190.512 107.075 189.642 107.075H177.053C176.182 107.075 175.476 106.369 175.476 105.499V33.8842Z" fill="url(#paint71_radial_9778_2079)"/>
<path d="M175.476 33.8842C175.476 33.0135 176.182 32.3076 177.053 32.3076H189.642C190.512 32.3076 191.218 33.0135 191.218 33.8842V105.499C191.218 106.369 190.512 107.075 189.642 107.075H177.053C176.182 107.075 175.476 106.369 175.476 105.499V33.8842Z" fill="url(#paint72_radial_9778_2079)"/>
<path d="M191.221 36.3032L175.479 36.3032V39.0836L191.221 39.0836V36.3032Z" fill="url(#paint73_linear_9778_2079)"/>
<path d="M191.221 36.3032L175.479 36.3032V39.0836L191.221 39.0836V36.3032Z" fill="url(#paint74_linear_9778_2079)"/>
<path d="M191.221 40.8916L175.479 40.8916V43.3903L191.221 43.3903V40.8916Z" fill="url(#paint75_linear_9778_2079)"/>
<path d="M191.221 40.8916L175.479 40.8916V43.3903L191.221 43.3903V40.8916Z" fill="url(#paint76_linear_9778_2079)"/>
<path d="M191.221 102.206H175.479V104.765H191.221V102.206Z" fill="url(#paint77_linear_9778_2079)"/>
<path d="M191.221 102.206H175.479V104.765H191.221V102.206Z" fill="url(#paint78_linear_9778_2079)"/>
<path d="M185.317 47.241C185.317 46.6605 184.847 46.1899 184.266 46.1899H182.433C181.852 46.1899 181.382 46.6605 181.382 47.241V79.4491C181.382 80.0295 181.852 80.5001 182.433 80.5001H184.266C184.847 80.5001 185.317 80.0295 185.317 79.4491V47.241Z" fill="url(#paint79_linear_9778_2079)"/>
<path d="M185.317 47.241C185.317 46.6605 184.847 46.1899 184.266 46.1899H182.433C181.852 46.1899 181.382 46.6605 181.382 47.241V79.4491C181.382 80.0295 181.852 80.5001 182.433 80.5001H184.266C184.847 80.5001 185.317 80.0295 185.317 79.4491V47.241Z" fill="url(#paint80_linear_9778_2079)"/>
<path d="M180.593 98.9042C180.593 99.8677 181.826 100.649 183.348 100.649C184.869 100.649 186.103 99.8677 186.103 98.9042C186.103 97.9407 184.869 97.1597 183.348 97.1597C181.826 97.1597 180.593 97.9407 180.593 98.9042Z" fill="#165252" fill-opacity="0.33"/>
<path d="M167.201 27.6338L162.541 29.4258C161.932 29.66 161.53 30.245 161.53 30.8973V101.867C161.53 102.374 161.774 102.85 162.185 103.146L167.201 106.763V27.6338Z" fill="url(#paint81_linear_9778_2079)"/>
<path d="M167.201 27.6338L162.541 29.4258C161.932 29.66 161.53 30.245 161.53 30.8973V101.867C161.53 102.374 161.774 102.85 162.185 103.146L167.201 106.763V27.6338Z" fill="url(#paint82_linear_9778_2079)"/>
<path d="M167.201 27.6338L162.541 29.4258C161.932 29.66 161.53 30.245 161.53 30.8973V101.867C161.53 102.374 161.774 102.85 162.185 103.146L167.201 106.763V27.6338Z" fill="url(#paint83_linear_9778_2079)"/>
<path d="M167.201 27.6338L162.541 29.4258C161.932 29.66 161.53 30.245 161.53 30.8973V101.867C161.53 102.374 161.774 102.85 162.185 103.146L167.201 106.763V27.6338Z" fill="url(#paint84_radial_9778_2079)"/>
<path d="M173.766 28.8993C173.766 28.0286 173.061 27.3228 172.19 27.3228H161.914C161.043 27.3228 160.337 28.0286 160.337 28.8993V105.498C160.337 106.369 161.043 107.075 161.914 107.075H172.19C173.061 107.075 173.766 106.369 173.766 105.498V28.8993Z" fill="url(#paint85_linear_9778_2079)"/>
<path d="M173.766 28.8993C173.766 28.0286 173.061 27.3228 172.19 27.3228H161.914C161.043 27.3228 160.337 28.0286 160.337 28.8993V105.498C160.337 106.369 161.043 107.075 161.914 107.075H172.19C173.061 107.075 173.766 106.369 173.766 105.498V28.8993Z" fill="url(#paint86_linear_9778_2079)"/>
<path d="M173.766 28.8993C173.766 28.0286 173.061 27.3228 172.19 27.3228H161.914C161.043 27.3228 160.337 28.0286 160.337 28.8993V105.498C160.337 106.369 161.043 107.075 161.914 107.075H172.19C173.061 107.075 173.766 106.369 173.766 105.498V28.8993Z" fill="url(#paint87_linear_9778_2079)"/>
<path d="M173.766 28.8993C173.766 28.0286 173.061 27.3228 172.19 27.3228H161.914C161.043 27.3228 160.337 28.0286 160.337 28.8993V105.498C160.337 106.369 161.043 107.075 161.914 107.075H172.19C173.061 107.075 173.766 106.369 173.766 105.498V28.8993Z" fill="url(#paint88_radial_9778_2079)"/>
<path d="M173.766 28.8993C173.766 28.0286 173.061 27.3228 172.19 27.3228H161.914C161.043 27.3228 160.337 28.0286 160.337 28.8993V105.498C160.337 106.369 161.043 107.075 161.914 107.075H172.19C173.061 107.075 173.766 106.369 173.766 105.498V28.8993Z" fill="url(#paint89_radial_9778_2079)"/>
<path d="M163.695 48.386C163.695 47.8055 164.165 47.335 164.746 47.335H169.358C169.939 47.335 170.409 47.8055 170.409 48.386V70.863C170.409 71.4435 169.939 71.914 169.358 71.914H164.746C164.165 71.914 163.695 71.4435 163.695 70.863V48.386Z" fill="#F4D061" fill-opacity="0.66"/>
<path d="M164.363 85.3064C164.363 84.7259 164.833 84.2554 165.414 84.2554H168.683C169.264 84.2554 169.734 84.7259 169.734 85.3064V93.0955C169.734 93.6759 169.264 94.1465 168.683 94.1465H165.414C164.833 94.1465 164.363 93.6759 164.363 93.0955V85.3064Z" fill="#F4D061" fill-opacity="0.66"/>
<path d="M160.334 32.8306L173.764 32.8306V36.3453L160.334 36.3453V32.8306Z" fill="url(#paint90_linear_9778_2079)"/>
<path d="M160.334 41.8945L173.764 41.8945V45.4093L160.334 45.4093V41.8945Z" fill="url(#paint91_linear_9778_2079)"/>
<path d="M160.334 76.334H173.764V79.8488H160.334V76.334Z" fill="url(#paint92_linear_9778_2079)"/>
<path d="M160.334 98.0859H173.764V101.601H160.334V98.0859Z" fill="url(#paint93_linear_9778_2079)"/>
<defs>
<linearGradient id="paint0_linear_9778_2079" x1="83.2291" y1="10.8303" x2="86.7369" y2="36.762" gradientUnits="userSpaceOnUse">
<stop stop-color="#FFDAC2"/>
<stop offset="1" stop-color="#592A00"/>
</linearGradient>
<linearGradient id="paint1_linear_9778_2079" x1="61.8004" y1="19.7271" x2="67.9679" y2="58.8455" gradientUnits="userSpaceOnUse">
<stop stop-color="#FFDAC2"/>
<stop offset="1" stop-color="#592A00"/>
</linearGradient>
<linearGradient id="paint2_linear_9778_2079" x1="45.9033" y1="35.9826" x2="55.4492" y2="89.0529" gradientUnits="userSpaceOnUse">
<stop stop-color="#FFDAC2"/>
<stop offset="1" stop-color="#592A00"/>
</linearGradient>
<linearGradient id="paint3_linear_9778_2079" x1="8.75808" y1="132.793" x2="112.854" y2="9.47945" gradientUnits="userSpaceOnUse">
<stop stop-color="#2E325A"/>
<stop offset="0.514578" stop-color="#DED3D3"/>
<stop offset="1" stop-color="#FFE4AD"/>
</linearGradient>
<linearGradient id="paint4_linear_9778_2079" x1="27.4467" y1="88.4032" x2="38.5112" y2="104.121" gradientUnits="userSpaceOnUse">
<stop offset="0.0366133" stop-color="#B3E0FF"/>
<stop offset="1" stop-color="#474184"/>
</linearGradient>
<radialGradient id="paint5_radial_9778_2079" cx="0" cy="0" r="1" gradientUnits="userSpaceOnUse" gradientTransform="translate(79.1431 92.939) rotate(135.296) scale(38.2215 38.2474)">
<stop stop-color="#C8BDE7"/>
<stop offset="0.520833" stop-color="#415893"/>
</radialGradient>
<radialGradient id="paint6_radial_9778_2079" cx="0" cy="0" r="1" gradientUnits="userSpaceOnUse" gradientTransform="translate(84.0944 92.598) rotate(-90) scale(19.7759 42.4148)">
<stop offset="0.66092" stop-color="#372A5D" stop-opacity="0"/>
<stop offset="0.925287" stop-color="#372A5D" stop-opacity="0.2"/>
</radialGradient>
<radialGradient id="paint7_radial_9778_2079" cx="0" cy="0" r="1" gradientUnits="userSpaceOnUse" gradientTransform="translate(84.0944 82.3691) scale(13.661 3.86426)">
<stop stop-color="#372A5D"/>
<stop offset="1" stop-color="#372A5D" stop-opacity="0"/>
</radialGradient>
<linearGradient id="paint8_linear_9778_2079" x1="121.732" y1="94.6154" x2="91.6593" y2="97.2413" gradientUnits="userSpaceOnUse">
<stop stop-color="#372A5D"/>
<stop offset="1" stop-color="#372A5D" stop-opacity="0"/>
</linearGradient>
<linearGradient id="paint9_linear_9778_2079" x1="103.602" y1="94.6438" x2="100.145" y2="95.0191" gradientUnits="userSpaceOnUse">
<stop stop-color="#DACBF3"/>
<stop offset="1" stop-color="#DACBF3" stop-opacity="0"/>
</linearGradient>
<radialGradient id="paint10_radial_9778_2079" cx="0" cy="0" r="1" gradientUnits="userSpaceOnUse" gradientTransform="translate(80.0587 74.722) rotate(90) scale(44.556 14.0584)">
<stop stop-color="#C8BDE7"/>
<stop offset="0.520833" stop-color="#425893"/>
</radialGradient>
<linearGradient id="paint11_linear_9778_2079" x1="93.7074" y1="79.8409" x2="88.7001" y2="79.8409" gradientUnits="userSpaceOnUse">
<stop stop-color="#372A5D"/>
<stop offset="1" stop-color="#372A5D" stop-opacity="0"/>
</linearGradient>
<linearGradient id="paint12_linear_9778_2079" x1="94.0746" y1="78.918" x2="91.838" y2="78.918" gradientUnits="userSpaceOnUse">
<stop stop-color="#DACBF3"/>
<stop offset="1" stop-color="#DACBF3" stop-opacity="0"/>
</linearGradient>
<radialGradient id="paint13_radial_9778_2079" cx="0" cy="0" r="1" gradientUnits="userSpaceOnUse" gradientTransform="translate(82.9584 76.1471) scale(13.7534 3.18233)">
<stop offset="0.20765" stop-color="#3B344E"/>
<stop offset="1" stop-color="#3B344F" stop-opacity="0"/>
</radialGradient>
<radialGradient id="paint14_radial_9778_2079" cx="0" cy="0" r="1" gradientUnits="userSpaceOnUse" gradientTransform="translate(82.5732 60.2547) rotate(90) scale(17.3359 10.0844)">
<stop stop-color="#EECDA7"/>
<stop offset="0.688073" stop-color="#C5A074"/>
<stop offset="1" stop-color="#9D7749"/>
</radialGradient>
<radialGradient id="paint15_radial_9778_2079" cx="0" cy="0" r="1" gradientUnits="userSpaceOnUse" gradientTransform="translate(83.4959 61.212) rotate(-142.033) scale(14.3014 14.9246)">
<stop offset="0.617162" stop-color="#6C502F" stop-opacity="0"/>
<stop offset="0.871287" stop-color="#6C502F"/>
</radialGradient>
<radialGradient id="paint16_radial_9778_2079" cx="0" cy="0" r="1" gradientUnits="userSpaceOnUse" gradientTransform="translate(84.0922 59.2568) scale(13.2437 4.30138)">
<stop offset="0.617124" stop-color="#F4D0A4"/>
<stop offset="1" stop-color="#F4D0A4" stop-opacity="0"/>
</radialGradient>
<radialGradient id="paint17_radial_9778_2079" cx="0" cy="0" r="1" gradientUnits="userSpaceOnUse" gradientTransform="translate(82.5599 71.6009) rotate(-180) scale(29.1759 5.64934)">
<stop offset="0.0366133" stop-color="#C8BDE7"/>
<stop offset="0.551487" stop-color="#425893"/>
</radialGradient>
<radialGradient id="paint18_radial_9778_2079" cx="0" cy="0" r="1" gradientUnits="userSpaceOnUse" gradientTransform="translate(95.946 73.2773) rotate(-90) scale(3.01185 3.25614)">
<stop stop-color="#DACBF3"/>
<stop offset="1" stop-color="#DACBF3" stop-opacity="0"/>
</radialGradient>
<linearGradient id="paint19_linear_9778_2079" x1="136.729" y1="36.9818" x2="144.434" y2="37.1288" gradientUnits="userSpaceOnUse">
<stop stop-color="#5E0901"/>
<stop offset="0.78125" stop-color="#A24A2F"/>
</linearGradient>
<radialGradient id="paint20_radial_9778_2079" cx="0" cy="0" r="1" gradientUnits="userSpaceOnUse" gradientTransform="translate(140.687 26.0003) rotate(113.71) scale(7.3154 9.01879)">
<stop offset="0.0450574" stop-color="#F3CD9D"/>
<stop offset="0.373043" stop-color="#CEB18C" stop-opacity="0.66"/>
<stop offset="1" stop-color="#CEB18C" stop-opacity="0"/>
</radialGradient>
<linearGradient id="paint21_linear_9778_2079" x1="138.042" y1="66.9896" x2="122.301" y2="67.0994" gradientUnits="userSpaceOnUse">
<stop stop-color="#900000"/>
<stop offset="0.34375" stop-color="#E38E5E"/>
<stop offset="0.709063" stop-color="#DB804C"/>
<stop offset="1" stop-color="#7B2E02"/>
</linearGradient>
<linearGradient id="paint22_linear_9778_2079" x1="145.01" y1="66.9896" x2="116.035" y2="67.3679" gradientUnits="userSpaceOnUse">
<stop stop-color="#390E01" stop-opacity="0.6"/>
<stop offset="1" stop-color="#E38E5E" stop-opacity="0"/>
</linearGradient>
<linearGradient id="paint23_linear_9778_2079" x1="129.901" y1="110.772" x2="129.986" y2="62.7529" gradientUnits="userSpaceOnUse">
<stop stop-color="#390E01" stop-opacity="0.6"/>
<stop offset="1" stop-color="#E38E5E" stop-opacity="0"/>
</linearGradient>
<radialGradient id="paint24_radial_9778_2079" cx="0" cy="0" r="1" gradientUnits="userSpaceOnUse" gradientTransform="translate(130.171 27.3228) rotate(90) scale(5.98141 16.3978)">
<stop offset="0.0450574" stop-color="#F3CD9D" stop-opacity="0.88"/>
<stop offset="0.398437" stop-color="#CEB18C" stop-opacity="0.55"/>
<stop offset="1" stop-color="#CEB18C" stop-opacity="0"/>
</radialGradient>
<radialGradient id="paint25_radial_9778_2079" cx="0" cy="0" r="1" gradientUnits="userSpaceOnUse" gradientTransform="translate(131.483 113.306) rotate(-96.0095) scale(12.5301 14.211)">
<stop offset="0.0450574" stop-color="#F3CD9D" stop-opacity="0.66"/>
<stop offset="0.398437" stop-color="#CEB18C" stop-opacity="0.77"/>
<stop offset="0.929184" stop-color="#CEB18C" stop-opacity="0"/>
</radialGradient>
<linearGradient id="paint26_linear_9778_2079" x1="124.953" y1="30.5945" x2="124.953" y2="37.856" gradientUnits="userSpaceOnUse">
<stop stop-color="#99C63A"/>
<stop offset="0.19127" stop-color="#BAE362"/>
<stop offset="0.665256" stop-color="#94C046"/>
<stop offset="1" stop-color="#578505"/>
</linearGradient>
<linearGradient id="paint27_linear_9778_2079" x1="122.299" y1="33.0979" x2="138.041" y2="33.0979" gradientUnits="userSpaceOnUse">
<stop stop-color="#8F6C2A"/>
<stop offset="0.355556" stop-color="#FAD655"/>
<stop offset="0.592593" stop-color="#EDC96B"/>
<stop offset="0.933333" stop-color="#99591F"/>
</linearGradient>
<linearGradient id="paint28_linear_9778_2079" x1="124.953" y1="103.781" x2="124.953" y2="96.5195" gradientUnits="userSpaceOnUse">
<stop stop-color="#99C63A"/>
<stop offset="0.19127" stop-color="#BAE362"/>
<stop offset="0.665256" stop-color="#94C046"/>
<stop offset="1" stop-color="#578505"/>
</linearGradient>
<linearGradient id="paint29_linear_9778_2079" x1="122.299" y1="101.278" x2="138.041" y2="101.278" gradientUnits="userSpaceOnUse">
<stop stop-color="#8F6C2A"/>
<stop offset="0.355556" stop-color="#FAD655"/>
<stop offset="0.592593" stop-color="#EDC96B"/>
<stop offset="0.933333" stop-color="#99591F"/>
</linearGradient>
<linearGradient id="paint30_linear_9778_2079" x1="138.779" y1="60.0333" x2="119.676" y2="60.0333" gradientUnits="userSpaceOnUse">
<stop stop-color="#8F6C2A"/>
<stop offset="0.227468" stop-color="#FAD655"/>
<stop offset="0.763949" stop-color="#EDC96B"/>
<stop offset="0.925689" stop-color="#99591F"/>
</linearGradient>
<linearGradient id="paint31_linear_9778_2079" x1="154.621" y1="28.5677" x2="160.764" y2="28.5677" gradientUnits="userSpaceOnUse">
<stop stop-color="#8A2620"/>
<stop offset="0.315057" stop-color="#DF665E"/>
<stop offset="0.690057" stop-color="#D55C54"/>
<stop offset="1" stop-color="#7A1D18"/>
</linearGradient>
<linearGradient id="paint32_linear_9778_2079" x1="156.668" y1="28.5677" x2="162.811" y2="28.5677" gradientUnits="userSpaceOnUse">
<stop stop-color="#601F19"/>
<stop offset="0.554063" stop-color="#9A2E2B"/>
<stop offset="1" stop-color="#7A1D18"/>
</linearGradient>
<radialGradient id="paint33_radial_9778_2079" cx="0" cy="0" r="1" gradientUnits="userSpaceOnUse" gradientTransform="translate(160.629 13.8595) rotate(108.407) scale(10.5625 11.6043)">
<stop offset="0.0450574" stop-color="#F3CD9D"/>
<stop offset="0.398437" stop-color="#CEB18C" stop-opacity="0.66"/>
<stop offset="1" stop-color="#CEB18C" stop-opacity="0"/>
</radialGradient>
<linearGradient id="paint34_linear_9778_2079" x1="141.607" y1="28.5677" x2="157.349" y2="28.5677" gradientUnits="userSpaceOnUse">
<stop stop-color="#8A2620"/>
<stop offset="0.315057" stop-color="#DF665E"/>
<stop offset="0.690057" stop-color="#D55C54"/>
<stop offset="1" stop-color="#7A1D18"/>
</linearGradient>
<radialGradient id="paint35_radial_9778_2079" cx="0" cy="0" r="1" gradientUnits="userSpaceOnUse" gradientTransform="translate(149.478 17.3525) rotate(90) scale(6.72908 16.3978)">
<stop offset="0.0450574" stop-color="#F3CD9D" stop-opacity="0.88"/>
<stop offset="0.398437" stop-color="#CEB18C" stop-opacity="0.55"/>
<stop offset="1" stop-color="#CEB18C" stop-opacity="0"/>
</radialGradient>
<radialGradient id="paint36_radial_9778_2079" cx="0" cy="0" r="1" gradientUnits="userSpaceOnUse" gradientTransform="translate(159.973 111.56) rotate(-115.074) scale(12.382 28.7148)">
<stop offset="0.0450574" stop-color="#F3CD9D"/>
<stop offset="0.398437" stop-color="#CEB18C"/>
<stop offset="1" stop-color="#CEB18C" stop-opacity="0"/>
</radialGradient>
<radialGradient id="paint37_radial_9778_2079" cx="0" cy="0" r="1" gradientUnits="userSpaceOnUse" gradientTransform="translate(141.607 110.033) rotate(-60.1352) scale(7.90323 18.2037)">
<stop offset="0.0450574" stop-color="#F3CD9D"/>
<stop offset="0.398437" stop-color="#CEB18C"/>
<stop offset="1" stop-color="#CEB18C" stop-opacity="0"/>
</radialGradient>
<linearGradient id="paint38_linear_9778_2079" x1="157.348" y1="24.6314" x2="141.606" y2="24.6314" gradientUnits="userSpaceOnUse">
<stop stop-color="#8F6C2A"/>
<stop offset="0.3125" stop-color="#FAD655"/>
<stop offset="0.701717" stop-color="#EDC96B"/>
<stop offset="0.925689" stop-color="#99591F"/>
</linearGradient>
<linearGradient id="paint39_linear_9778_2079" x1="157.348" y1="46.5274" x2="141.607" y2="46.5274" gradientUnits="userSpaceOnUse">
<stop stop-color="#8F6C2A"/>
<stop offset="0.3125" stop-color="#FAD655"/>
<stop offset="0.701717" stop-color="#EDC96B"/>
<stop offset="0.925689" stop-color="#99591F"/>
</linearGradient>
<linearGradient id="paint40_linear_9778_2079" x1="157.348" y1="63.9703" x2="141.607" y2="63.9703" gradientUnits="userSpaceOnUse">
<stop stop-color="#8F6C2A"/>
<stop offset="0.3125" stop-color="#FAD655"/>
<stop offset="0.701717" stop-color="#EDC96B"/>
<stop offset="0.925689" stop-color="#99591F"/>
</linearGradient>
<linearGradient id="paint41_linear_9778_2079" x1="157.348" y1="81.418" x2="141.607" y2="81.418" gradientUnits="userSpaceOnUse">
<stop stop-color="#8F6C2A"/>
<stop offset="0.3125" stop-color="#FAD655"/>
<stop offset="0.701717" stop-color="#EDC96B"/>
<stop offset="0.925689" stop-color="#99591F"/>
</linearGradient>
<linearGradient id="paint42_linear_9778_2079" x1="157.348" y1="98.8629" x2="141.607" y2="98.8629" gradientUnits="userSpaceOnUse">
<stop stop-color="#8F6C2A"/>
<stop offset="0.3125" stop-color="#FAD655"/>
<stop offset="0.701717" stop-color="#EDC96B"/>
<stop offset="0.925689" stop-color="#99591F"/>
</linearGradient>
<linearGradient id="paint43_linear_9778_2079" x1="157.02" y1="32.2303" x2="141.442" y2="32.2303" gradientUnits="userSpaceOnUse">
<stop stop-color="#8F6C2A" stop-opacity="0.7"/>
<stop offset="0.3125" stop-color="#FAD655" stop-opacity="0.8"/>
<stop offset="0.701717" stop-color="#EDC96B" stop-opacity="0.8"/>
<stop offset="0.925689" stop-color="#99591F" stop-opacity="0.8"/>
</linearGradient>
<linearGradient id="paint44_linear_9778_2079" x1="155.699" y1="37.2156" x2="142.889" y2="37.2156" gradientUnits="userSpaceOnUse">
<stop stop-color="#8F6C2A" stop-opacity="0.7"/>
<stop offset="0.3125" stop-color="#FAD655" stop-opacity="0.8"/>
<stop offset="0.701717" stop-color="#EDC96B" stop-opacity="0.8"/>
<stop offset="0.925689" stop-color="#99591F" stop-opacity="0.8"/>
</linearGradient>
<linearGradient id="paint45_linear_9778_2079" x1="157.342" y1="53.568" x2="140.394" y2="53.568" gradientUnits="userSpaceOnUse">
<stop stop-color="#8F6C2A" stop-opacity="0.75"/>
<stop offset="0.3125" stop-color="#FAD655" stop-opacity="0.8"/>
<stop offset="0.701717" stop-color="#EDC96B" stop-opacity="0.8"/>
<stop offset="0.925689" stop-color="#99591F" stop-opacity="0.75"/>
</linearGradient>
<linearGradient id="paint46_linear_9778_2079" x1="157.342" y1="70.7156" x2="140.394" y2="70.7156" gradientUnits="userSpaceOnUse">
<stop stop-color="#8F6C2A" stop-opacity="0.75"/>
<stop offset="0.3125" stop-color="#FAD655" stop-opacity="0.8"/>
<stop offset="0.701717" stop-color="#EDC96B" stop-opacity="0.8"/>
<stop offset="0.925689" stop-color="#99591F" stop-opacity="0.75"/>
</linearGradient>
<linearGradient id="paint47_linear_9778_2079" x1="157.342" y1="88.3362" x2="140.394" y2="88.3362" gradientUnits="userSpaceOnUse">
<stop stop-color="#8F6C2A" stop-opacity="0.75"/>
<stop offset="0.3125" stop-color="#FAD655" stop-opacity="0.8"/>
<stop offset="0.701717" stop-color="#EDC96B" stop-opacity="0.8"/>
<stop offset="0.925689" stop-color="#99591F" stop-opacity="0.75"/>
</linearGradient>
<linearGradient id="paint48_linear_9778_2079" x1="199.118" y1="78.9954" x2="186" y2="79.0368" gradientUnits="userSpaceOnUse">
<stop stop-color="#003E42"/>
<stop offset="0.45" stop-color="#04686F"/>
<stop offset="1" stop-color="#198D94"/>
</linearGradient>
<linearGradient id="paint49_linear_9778_2079" x1="191.157" y1="110.085" x2="191.325" y2="70.9926" gradientUnits="userSpaceOnUse">
<stop stop-color="#012F39" stop-opacity="0.6"/>
<stop offset="1" stop-color="#E38E5E" stop-opacity="0"/>
</linearGradient>
<radialGradient id="paint50_radial_9778_2079" cx="0" cy="0" r="1" gradientUnits="userSpaceOnUse" gradientTransform="translate(187.639 40.3863) rotate(64.6874) scale(9.25876 12.6179)">
<stop offset="0.0450574" stop-color="#F3CD9D"/>
<stop offset="0.398437" stop-color="#CEB18C" stop-opacity="0.66"/>
<stop offset="1" stop-color="#CEB18C" stop-opacity="0"/>
</radialGradient>
<linearGradient id="paint51_linear_9778_2079" x1="210.923" y1="74.4403" x2="193.871" y2="74.6014" gradientUnits="userSpaceOnUse">
<stop offset="0.0673077" stop-color="#421800"/>
<stop offset="0.254808" stop-color="#04686F"/>
<stop offset="0.464063" stop-color="#198D94"/>
<stop offset="0.784063" stop-color="#04686F"/>
<stop offset="1" stop-color="#003E42"/>
</linearGradient>
<linearGradient id="paint52_linear_9778_2079" x1="201.471" y1="110.084" x2="201.527" y2="70.9912" gradientUnits="userSpaceOnUse">
<stop stop-color="#012F39" stop-opacity="0.6"/>
<stop offset="1" stop-color="#E38E5E" stop-opacity="0"/>
</linearGradient>
<radialGradient id="paint53_radial_9778_2079" cx="0" cy="0" r="1" gradientUnits="userSpaceOnUse" gradientTransform="translate(201.741 107.074) rotate(-90) scale(5.71752 12.6673)">
<stop offset="0.109375" stop-color="#BF9D71" stop-opacity="0.77"/>
<stop offset="1" stop-color="#CEB18C" stop-opacity="0"/>
</radialGradient>
<radialGradient id="paint54_radial_9778_2079" cx="0" cy="0" r="1" gradientUnits="userSpaceOnUse" gradientTransform="translate(201.741 41.0098) rotate(90) scale(6.12549 20.668)">
<stop offset="0.0450574" stop-color="#F3CD9D" stop-opacity="0.88"/>
<stop offset="0.398437" stop-color="#CEB18C" stop-opacity="0.55"/>
<stop offset="1" stop-color="#CEB18C" stop-opacity="0"/>
</radialGradient>
<linearGradient id="paint55_linear_9778_2079" x1="193.87" y1="64.358" x2="209.612" y2="64.358" gradientUnits="userSpaceOnUse">
<stop stop-color="#8F6C2A"/>
<stop offset="0.3125" stop-color="#FAD655"/>
<stop offset="0.701717" stop-color="#EDC96B"/>
<stop offset="0.925689" stop-color="#99591F"/>
</linearGradient>
<linearGradient id="paint56_linear_9778_2079" x1="197.806" y1="59.0577" x2="205.677" y2="59.0577" gradientUnits="userSpaceOnUse">
<stop stop-color="#8F6C2A"/>
<stop offset="0.3125" stop-color="#FAD655"/>
<stop offset="0.701717" stop-color="#EDC96B"/>
<stop offset="0.925689" stop-color="#99591F"/>
</linearGradient>
<linearGradient id="paint57_linear_9778_2079" x1="193.87" y1="68.6155" x2="209.612" y2="68.6155" gradientUnits="userSpaceOnUse">
<stop stop-color="#8F6C2A"/>
<stop offset="0.3125" stop-color="#FAD655"/>
<stop offset="0.701717" stop-color="#EDC96B"/>
<stop offset="0.925689" stop-color="#99591F"/>
</linearGradient>
<linearGradient id="paint58_linear_9778_2079" x1="193.132" y1="49.7182" x2="209.612" y2="49.7182" gradientUnits="userSpaceOnUse">
<stop offset="0.0878661" stop-color="#A38344"/>
<stop offset="0.258706" stop-color="#FDD772"/>
<stop offset="0.751244" stop-color="#EDC96B"/>
<stop offset="1" stop-color="#AE7C4D"/>
</linearGradient>
<radialGradient id="paint59_radial_9778_2079" cx="0" cy="0" r="1" gradientUnits="userSpaceOnUse" gradientTransform="translate(200.429 42.2754) rotate(90) scale(1.95173 12.6263)">
<stop stop-color="#FDF2D3"/>
<stop offset="1" stop-color="#FDF2D3" stop-opacity="0"/>
</radialGradient>
<radialGradient id="paint60_radial_9778_2079" cx="0" cy="0" r="1" gradientUnits="userSpaceOnUse" gradientTransform="translate(196.493 44.2271) scale(2.62364 5.8552)">
<stop stop-color="#FDF2D3" stop-opacity="0.7"/>
<stop offset="1" stop-color="#FDF2D3" stop-opacity="0"/>
</radialGradient>
<radialGradient id="paint61_radial_9778_2079" cx="0" cy="0" r="1" gradientUnits="userSpaceOnUse" gradientTransform="translate(201.741 38.6305) rotate(90) scale(6.88485 19.0663)">
<stop stop-color="#7FA0A0"/>
<stop offset="1" stop-color="#7FA0A0" stop-opacity="0"/>
</radialGradient>
<radialGradient id="paint62_radial_9778_2079" cx="0" cy="0" r="1" gradientUnits="userSpaceOnUse" gradientTransform="translate(208.3 37.4155) rotate(94.4809) scale(8.39548 10.2464)">
<stop offset="0.0450574" stop-color="#F3CD9D"/>
<stop offset="0.398437" stop-color="#CEB18C"/>
<stop offset="1" stop-color="#CEB18C" stop-opacity="0"/>
</radialGradient>
<linearGradient id="paint63_linear_9778_2079" x1="193.132" y1="101.982" x2="209.612" y2="101.982" gradientUnits="userSpaceOnUse">
<stop offset="0.0878661" stop-color="#A38344"/>
<stop offset="0.258706" stop-color="#FDD772"/>
<stop offset="0.751244" stop-color="#EDC96B"/>
<stop offset="1" stop-color="#AE7C4D"/>
</linearGradient>
<radialGradient id="paint64_radial_9778_2079" cx="0" cy="0" r="1" gradientUnits="userSpaceOnUse" gradientTransform="translate(200.429 74.1029) rotate(90) scale(5.15344 12.6263)">
<stop stop-color="#FDF2D3"/>
<stop offset="1" stop-color="#FDF2D3" stop-opacity="0"/>
</radialGradient>
<radialGradient id="paint65_radial_9778_2079" cx="0" cy="0" r="1" gradientUnits="userSpaceOnUse" gradientTransform="translate(196.493 79.2564) scale(2.62364 15.4603)">
<stop stop-color="#FDF2D3" stop-opacity="0.7"/>
<stop offset="1" stop-color="#FDF2D3" stop-opacity="0"/>
</radialGradient>
<radialGradient id="paint66_radial_9778_2079" cx="0" cy="0" r="1" gradientUnits="userSpaceOnUse" gradientTransform="translate(201.741 108.222) rotate(-90) scale(4.18491 11.4784)">
<stop stop-color="#7FA0A0"/>
<stop offset="1" stop-color="#7FA0A0" stop-opacity="0"/>
</radialGradient>
<radialGradient id="paint67_radial_9778_2079" cx="0" cy="0" r="1" gradientUnits="userSpaceOnUse" gradientTransform="translate(211.087 110.45) rotate(-116.942) scale(10.8573 12.3157)">
<stop offset="0.0450574" stop-color="#F3CD9D"/>
<stop offset="0.398437" stop-color="#CEB18C"/>
<stop offset="1" stop-color="#CEB18C" stop-opacity="0"/>
</radialGradient>
<linearGradient id="paint68_linear_9778_2079" x1="169.137" y1="67.0104" x2="177.018" y2="67.0104" gradientUnits="userSpaceOnUse">
<stop stop-color="#EDB466"/>
<stop offset="0.769231" stop-color="#A06A01"/>
</linearGradient>
<radialGradient id="paint69_radial_9778_2079" cx="0" cy="0" r="1" gradientUnits="userSpaceOnUse" gradientTransform="translate(173.255 29.3334) rotate(73.0423) scale(8.74576 8.94683)">
<stop offset="0.0450574" stop-color="#F3CD9D"/>
<stop offset="0.398437" stop-color="#CEB18C" stop-opacity="0.66"/>
<stop offset="1" stop-color="#CEB18C" stop-opacity="0"/>
</radialGradient>
<linearGradient id="paint70_linear_9778_2079" x1="191.218" y1="61.3839" x2="175.476" y2="61.3839" gradientUnits="userSpaceOnUse">
<stop offset="0.0840631" stop-color="#A06A01"/>
<stop offset="0.296875" stop-color="#F1B96B"/>
<stop offset="0.65625" stop-color="#F1B96B"/>
<stop offset="0.914063" stop-color="#AF691F"/>
</linearGradient>
<radialGradient id="paint71_radial_9778_2079" cx="0" cy="0" r="1" gradientUnits="userSpaceOnUse" gradientTransform="translate(183.347 32.3076) rotate(90) scale(5.60757 16.3978)">
<stop offset="0.0450574" stop-color="#F3CD9D" stop-opacity="0.88"/>
<stop offset="0.398437" stop-color="#CEB18C" stop-opacity="0.55"/>
<stop offset="1" stop-color="#CEB18C" stop-opacity="0"/>
</radialGradient>
<radialGradient id="paint72_radial_9778_2079" cx="0" cy="0" r="1" gradientUnits="userSpaceOnUse" gradientTransform="translate(193.842 110.814) rotate(-119.312) scale(10.7182 27.6434)">
<stop offset="0.0450574" stop-color="#F3CD9D"/>
<stop offset="0.398437" stop-color="#CEB18C"/>
<stop offset="1" stop-color="#CEB18C" stop-opacity="0"/>
</radialGradient>
<linearGradient id="paint73_linear_9778_2079" x1="191.221" y1="37.6934" x2="175.479" y2="37.6934" gradientUnits="userSpaceOnUse">
<stop stop-color="#8F6C2A"/>
<stop offset="0.3125" stop-color="#FAD655"/>
<stop offset="0.701717" stop-color="#EDC96B"/>
<stop offset="0.925689" stop-color="#99591F"/>
</linearGradient>
<linearGradient id="paint74_linear_9778_2079" x1="191.221" y1="37.6934" x2="175.479" y2="37.6934" gradientUnits="userSpaceOnUse">
<stop stop-color="#584219"/>
<stop offset="0.3125" stop-color="#8F8356" stop-opacity="0.7"/>
<stop offset="0.701717" stop-color="#9E8541" stop-opacity="0.7"/>
<stop offset="0.925689" stop-color="#4A2B0D"/>
</linearGradient>
<linearGradient id="paint75_linear_9778_2079" x1="191.221" y1="42.141" x2="175.479" y2="42.141" gradientUnits="userSpaceOnUse">
<stop stop-color="#8F6C2A"/>
<stop offset="0.3125" stop-color="#FAD655"/>
<stop offset="0.701717" stop-color="#EDC96B"/>
<stop offset="0.925689" stop-color="#99591F"/>
</linearGradient>
<linearGradient id="paint76_linear_9778_2079" x1="191.221" y1="42.141" x2="175.479" y2="42.141" gradientUnits="userSpaceOnUse">
<stop stop-color="#584219"/>
<stop offset="0.3125" stop-color="#8F8356" stop-opacity="0.7"/>
<stop offset="0.701717" stop-color="#9E8541" stop-opacity="0.7"/>
<stop offset="0.925689" stop-color="#4A2B0D"/>
</linearGradient>
<linearGradient id="paint77_linear_9778_2079" x1="191.221" y1="103.485" x2="175.479" y2="103.485" gradientUnits="userSpaceOnUse">
<stop stop-color="#8F6C2A"/>
<stop offset="0.3125" stop-color="#FAD655"/>
<stop offset="0.701717" stop-color="#EDC96B"/>
<stop offset="0.925689" stop-color="#99591F"/>
</linearGradient>
<linearGradient id="paint78_linear_9778_2079" x1="191.221" y1="103.485" x2="175.479" y2="103.485" gradientUnits="userSpaceOnUse">
<stop stop-color="#584219"/>
<stop offset="0.3125" stop-color="#8F8356" stop-opacity="0.7"/>
<stop offset="0.701717" stop-color="#9E8541" stop-opacity="0.7"/>
<stop offset="0.925689" stop-color="#4A2B0D"/>
</linearGradient>
<linearGradient id="paint79_linear_9778_2079" x1="183.35" y1="46.1899" x2="183.35" y2="80.5001" gradientUnits="userSpaceOnUse">
<stop offset="0.535057" stop-color="#791813" stop-opacity="0.45"/>
<stop offset="1" stop-color="#791813" stop-opacity="0.3"/>
</linearGradient>
<linearGradient id="paint80_linear_9778_2079" x1="183.35" y1="46.1899" x2="183.35" y2="80.5001" gradientUnits="userSpaceOnUse">
<stop offset="0.453404" stop-color="#165252" stop-opacity="0.4"/>
<stop offset="0.639541" stop-color="#165252" stop-opacity="0.12"/>
<stop offset="1" stop-color="#165252" stop-opacity="0.45"/>
</linearGradient>
<linearGradient id="paint81_linear_9778_2079" x1="161.53" y1="64.7061" x2="170.896" y2="64.7061" gradientUnits="userSpaceOnUse">
<stop stop-color="#367427"/>
<stop offset="0.295937" stop-color="#93B984"/>
<stop offset="0.555937" stop-color="#A2C392"/>
<stop offset="1" stop-color="#45742E"/>
</linearGradient>
<linearGradient id="paint82_linear_9778_2079" x1="161.53" y1="64.7061" x2="170.896" y2="64.7061" gradientUnits="userSpaceOnUse">
<stop stop-color="#45742E"/>
<stop offset="0.234375" stop-color="#30A15D"/>
<stop offset="0.59375" stop-color="#54B179"/>
<stop offset="1" stop-color="#0F6B1E"/>
</linearGradient>
<linearGradient id="paint83_linear_9778_2079" x1="157.689" y1="64.3945" x2="167.201" y2="64.3945" gradientUnits="userSpaceOnUse">
<stop stop-color="#3B846E"/>
<stop offset="0.769231" stop-color="#10491A"/>
</linearGradient>
<radialGradient id="paint84_radial_9778_2079" cx="0" cy="0" r="1" gradientUnits="userSpaceOnUse" gradientTransform="translate(162.659 24.5505) rotate(70.8113) scale(9.36707 10.6622)">
<stop offset="0.0450574" stop-color="#F3CD9D"/>
<stop offset="0.398437" stop-color="#CEB18C" stop-opacity="0.66"/>
<stop offset="1" stop-color="#CEB18C" stop-opacity="0"/>
</radialGradient>
<linearGradient id="paint85_linear_9778_2079" x1="160.337" y1="64.7066" x2="173.766" y2="64.7066" gradientUnits="userSpaceOnUse">
<stop stop-color="#367427"/>
<stop offset="0.295937" stop-color="#93B984"/>
<stop offset="0.555937" stop-color="#A2C392"/>
<stop offset="1" stop-color="#45742E"/>
</linearGradient>
<linearGradient id="paint86_linear_9778_2079" x1="160.337" y1="64.7066" x2="173.766" y2="64.7066" gradientUnits="userSpaceOnUse">
<stop stop-color="#45742E"/>
<stop offset="0.234375" stop-color="#30A15D"/>
<stop offset="0.59375" stop-color="#54B179"/>
<stop offset="1" stop-color="#0F6B1E"/>
</linearGradient>
<linearGradient id="paint87_linear_9778_2079" x1="160.337" y1="64.7066" x2="173.766" y2="64.7066" gradientUnits="userSpaceOnUse">
<stop stop-color="#2C4E1C"/>
<stop offset="0.234375" stop-color="#3B846E"/>
<stop offset="0.59375" stop-color="#3B846E"/>
<stop offset="1" stop-color="#10491A"/>
</linearGradient>
<radialGradient id="paint88_radial_9778_2079" cx="0" cy="0" r="1" gradientUnits="userSpaceOnUse" gradientTransform="translate(167.052 25.7651) rotate(90) scale(7.53907 17.6317)">
<stop offset="0.0450574" stop-color="#F3CD9D" stop-opacity="0.88"/>
<stop offset="0.398437" stop-color="#CEB18C" stop-opacity="0.55"/>
<stop offset="1" stop-color="#CEB18C" stop-opacity="0"/>
</radialGradient>
<radialGradient id="paint89_radial_9778_2079" cx="0" cy="0" r="1" gradientUnits="userSpaceOnUse" gradientTransform="translate(167.052 107.075) rotate(-90) scale(7.03695 10.8063)">
<stop offset="0.109375" stop-color="#BF9D71" stop-opacity="0.77"/>
<stop offset="1" stop-color="#CEB18C" stop-opacity="0"/>
</radialGradient>
<linearGradient id="paint90_linear_9778_2079" x1="160.334" y1="34.588" x2="173.764" y2="34.588" gradientUnits="userSpaceOnUse">
<stop stop-color="#8F6C2A"/>
<stop offset="0.3125" stop-color="#FAD655"/>
<stop offset="0.701717" stop-color="#EDC96B"/>
<stop offset="0.925689" stop-color="#99591F"/>
</linearGradient>
<linearGradient id="paint91_linear_9778_2079" x1="160.334" y1="43.6519" x2="173.764" y2="43.6519" gradientUnits="userSpaceOnUse">
<stop stop-color="#8F6C2A"/>
<stop offset="0.3125" stop-color="#FAD655"/>
<stop offset="0.701717" stop-color="#EDC96B"/>
<stop offset="0.925689" stop-color="#99591F"/>
</linearGradient>
<linearGradient id="paint92_linear_9778_2079" x1="160.334" y1="78.0914" x2="173.764" y2="78.0914" gradientUnits="userSpaceOnUse">
<stop stop-color="#8F6C2A"/>
<stop offset="0.3125" stop-color="#FAD655"/>
<stop offset="0.701717" stop-color="#EDC96B"/>
<stop offset="0.925689" stop-color="#99591F"/>
</linearGradient>
<linearGradient id="paint93_linear_9778_2079" x1="160.334" y1="99.8433" x2="173.764" y2="99.8433" gradientUnits="userSpaceOnUse">
<stop stop-color="#8F6C2A"/>
<stop offset="0.3125" stop-color="#FAD655"/>
<stop offset="0.701717" stop-color="#EDC96B"/>
<stop offset="0.925689" stop-color="#99591F"/>
</linearGradient>
</defs>
</svg>
