<svg viewBox="0 0 240 120" fill="none" xmlns="http://www.w3.org/2000/svg">
<path d="M153.325 72.0533C145.085 74.3196 130.658 81.342 125.341 85.1835C124.752 85.609 124.953 86.4808 125.631 86.7439C131.904 89.1801 134.835 95.3529 135.935 100.047C136.151 100.968 137.832 101.353 138.502 100.686C143.835 95.3728 154.941 93.5364 159.266 93.4651C159.759 93.457 160.18 93.09 160.326 92.6196C161.587 88.5616 168.356 85.3151 172.307 83.9494C172.692 83.8162 172.948 83.4544 172.959 83.047C173.095 77.6688 175.861 73.2572 178.228 70.645C178.822 69.989 178.362 68.7987 177.478 68.8338C171.382 69.0761 161.049 69.9288 153.325 72.0533Z" fill="url(#paint0_linear_7947_1319)"/>
<path d="M153.325 72.0533C145.085 74.3196 130.658 81.342 125.341 85.1835C124.752 85.609 124.953 86.4808 125.631 86.7439C131.904 89.1801 134.835 95.3529 135.935 100.047C136.151 100.968 137.832 101.353 138.502 100.686C143.835 95.3728 154.941 93.5364 159.266 93.4651C159.759 93.457 160.18 93.09 160.326 92.6196C161.587 88.5616 168.356 85.3151 172.307 83.9494C172.692 83.8162 172.948 83.4544 172.959 83.047C173.095 77.6688 175.861 73.2572 178.228 70.645C178.822 69.989 178.362 68.7987 177.478 68.8338C171.382 69.0761 161.049 69.9288 153.325 72.0533Z" fill="url(#paint1_linear_7947_1319)"/>
<path d="M153.325 72.0533C145.085 74.3196 130.658 81.342 125.341 85.1835C124.752 85.609 124.953 86.4808 125.631 86.7439C131.904 89.1801 134.835 95.3529 135.935 100.047C136.151 100.968 137.832 101.353 138.502 100.686C143.835 95.3728 154.941 93.5364 159.266 93.4651C159.759 93.457 160.18 93.09 160.326 92.6196C161.587 88.5616 168.356 85.3151 172.307 83.9494C172.692 83.8162 172.948 83.4544 172.959 83.047C173.095 77.6688 175.861 73.2572 178.228 70.645C178.822 69.989 178.362 68.7987 177.478 68.8338C171.382 69.0761 161.049 69.9288 153.325 72.0533Z" fill="url(#paint2_radial_7947_1319)"/>
<path d="M154.843 90.3416C156.118 91.181 158.406 93.4616 159.268 93.457C159.761 93.4543 160.18 93.09 160.326 92.6196C160.557 91.8745 160.975 91.1568 161.526 90.4731C158.761 88.5221 150.734 85.759 149.804 87.2014C151.112 87.9273 151.534 88.1622 154.843 90.3416Z" fill="url(#paint3_linear_7947_1319)"/>
<path d="M167.526 82.067C169.819 82.8483 171.381 84.2696 172.307 83.9496C172.692 83.8164 172.949 83.4547 172.959 83.0472C172.987 81.9509 173.124 80.8947 173.344 79.8857C169.443 78.6794 161.305 78.5303 160.475 79.8178C161.45 80.3723 163.152 80.5774 167.526 82.067Z" fill="url(#paint4_linear_7947_1319)"/>
<path d="M168.15 85.6892C169.53 85.0095 170.887 84.4533 172.035 84.0446C169.336 82.4237 161.889 79.7267 160.057 80.0288C158.929 80.2151 162.031 81.7228 164.494 83.2793C165.672 84.0242 166.981 84.8513 168.15 85.6892Z" fill="url(#paint5_linear_7947_1319)"/>
<path d="M154.489 93.966C155.773 93.6358 157.755 93.517 158.828 93.4377C156.417 91.1989 151.381 87.6212 149.987 87.3987C148.858 87.2184 151.266 90.0933 153.109 92.3488C153.566 92.907 154.013 93.3651 154.489 93.966Z" fill="url(#paint6_linear_7947_1319)"/>
<path d="M87.3592 72.0533C95.5993 74.3196 110.026 81.342 115.343 85.1835C115.932 85.609 115.731 86.4808 115.053 86.7439C108.78 89.1801 105.849 95.3529 104.749 100.047C104.533 100.968 102.852 101.353 102.182 100.686C96.8493 95.3728 85.7432 93.5364 81.4177 93.4651C80.9252 93.457 80.5041 93.09 80.358 92.6196C79.0974 88.5616 72.3276 85.3151 68.377 83.9494C67.9918 83.8162 67.7355 83.4544 67.7251 83.047C67.5888 77.6688 64.8233 73.2572 62.456 70.645C61.8616 69.989 62.3218 68.7987 63.2063 68.8338C69.302 69.0761 79.6345 69.9288 87.3592 72.0533Z" fill="url(#paint7_linear_7947_1319)"/>
<path d="M87.3592 72.0533C95.5993 74.3196 110.026 81.342 115.343 85.1835C115.932 85.609 115.731 86.4808 115.053 86.7439C108.78 89.1801 105.849 95.3529 104.749 100.047C104.533 100.968 102.852 101.353 102.182 100.686C96.8493 95.3728 85.7432 93.5364 81.4177 93.4651C80.9252 93.457 80.5041 93.09 80.358 92.6196C79.0974 88.5616 72.3276 85.3151 68.377 83.9494C67.9918 83.8162 67.7355 83.4544 67.7251 83.047C67.5888 77.6688 64.8233 73.2572 62.456 70.645C61.8616 69.989 62.3218 68.7987 63.2063 68.8338C69.302 69.0761 79.6345 69.9288 87.3592 72.0533Z" fill="url(#paint8_linear_7947_1319)"/>
<path d="M87.3592 72.0533C95.5993 74.3196 110.026 81.342 115.343 85.1835C115.932 85.609 115.731 86.4808 115.053 86.7439C108.78 89.1801 105.849 95.3529 104.749 100.047C104.533 100.968 102.852 101.353 102.182 100.686C96.8493 95.3728 85.7432 93.5364 81.4177 93.4651C80.9252 93.457 80.5041 93.09 80.358 92.6196C79.0974 88.5616 72.3276 85.3151 68.377 83.9494C67.9918 83.8162 67.7355 83.4544 67.7251 83.047C67.5888 77.6688 64.8233 73.2572 62.456 70.645C61.8616 69.989 62.3218 68.7987 63.2063 68.8338C69.302 69.0761 79.6345 69.9288 87.3592 72.0533Z" fill="url(#paint9_radial_7947_1319)"/>
<path d="M85.8408 90.3416C84.5663 91.181 82.2782 93.4616 81.416 93.457C80.9234 93.4543 80.5041 93.09 80.358 92.6196C80.1265 91.8745 79.7094 91.1568 79.158 90.4731C81.9232 88.5221 89.9495 85.759 90.8795 87.2014C89.572 87.9273 89.1499 88.1622 85.8408 90.3416Z" fill="url(#paint10_linear_7947_1319)"/>
<path d="M73.1585 82.067C70.8645 82.8483 69.3027 84.2696 68.3769 83.9496C67.9917 83.8164 67.7355 83.4547 67.7251 83.0472C67.6973 81.9509 67.5603 80.8947 67.3396 79.8857C71.2414 78.6794 79.3791 78.5303 80.2093 79.8178C79.234 80.3723 77.5322 80.5774 73.1585 82.067Z" fill="url(#paint11_linear_7947_1319)"/>
<path d="M72.5337 85.6892C71.1542 85.0095 69.7971 84.4533 68.649 84.0446C71.3484 82.4237 78.7954 79.7267 80.6265 80.0288C81.7551 80.2151 78.6529 81.7228 76.1904 83.2793C75.012 84.0242 73.7034 84.8513 72.5337 85.6892Z" fill="url(#paint12_linear_7947_1319)"/>
<path d="M86.1946 93.966C84.9112 93.6358 82.9292 93.517 81.8558 93.4377C84.2672 91.1989 89.3029 87.6212 90.6968 87.3987C91.8264 87.2184 89.4183 90.0933 87.5746 92.3488C87.1182 92.907 86.6709 93.3651 86.1946 93.966Z" fill="url(#paint13_linear_7947_1319)"/>
<path d="M104.323 106.505C104.683 105.279 105.172 104.246 106.874 103.395C110.723 101.583 113.987 104.269 113.987 106.216C113.987 107.082 114.348 108.757 113.987 109.462C113.034 111.327 111.888 110.398 110.742 109.462C109.372 110.76 106.874 109.462 106.874 107.863C105.766 108.957 103.924 107.863 104.323 106.505Z" fill="url(#paint14_linear_7947_1319)"/>
<path d="M135.674 106.505C135.314 105.279 134.825 104.246 133.122 103.395C129.274 101.583 126.009 104.269 126.009 106.216C126.009 107.082 125.649 108.757 126.009 109.462C126.963 111.327 128.108 110.398 129.255 109.462C130.625 110.76 133.122 109.462 133.122 107.863C134.23 108.957 136.073 107.863 135.674 106.505Z" fill="url(#paint15_linear_7947_1319)"/>
<path d="M102.105 100.715C97.3043 92.9529 101.382 83.523 104.021 79.7783C110.863 72.9361 129.171 73.9059 135.681 79.7783C139.128 84.2464 142.064 93.9485 138.49 100.715C133.359 110.426 108.106 110.417 102.105 100.715Z" fill="url(#paint16_radial_7947_1319)"/>
<path d="M102.105 100.715C97.3043 92.9529 101.382 83.523 104.021 79.7783C110.863 72.9361 129.171 73.9059 135.681 79.7783C139.128 84.2464 142.064 93.9485 138.49 100.715C133.359 110.426 108.106 110.417 102.105 100.715Z" fill="url(#paint17_radial_7947_1319)"/>
<path d="M102.105 100.715C97.3043 92.9529 101.382 83.523 104.021 79.7783C110.863 72.9361 129.171 73.9059 135.681 79.7783C139.128 84.2464 142.064 93.9485 138.49 100.715C133.359 110.426 108.106 110.417 102.105 100.715Z" fill="url(#paint18_radial_7947_1319)"/>
<path d="M102.105 100.715C97.3043 92.9529 101.382 83.523 104.021 79.7783C110.863 72.9361 129.171 73.9059 135.681 79.7783C139.128 84.2464 142.064 93.9485 138.49 100.715C133.359 110.426 108.106 110.417 102.105 100.715Z" fill="url(#paint19_radial_7947_1319)"/>
<path d="M102.105 100.715C97.3043 92.9529 101.382 83.523 104.021 79.7783C110.863 72.9361 129.171 73.9059 135.681 79.7783C139.128 84.2464 142.064 93.9485 138.49 100.715C133.359 110.426 108.106 110.417 102.105 100.715Z" fill="url(#paint20_radial_7947_1319)"/>
<path d="M102.105 100.715C97.3043 92.9529 101.382 83.523 104.021 79.7783C110.863 72.9361 129.171 73.9059 135.681 79.7783C139.128 84.2464 142.064 93.9485 138.49 100.715C133.359 110.426 108.106 110.417 102.105 100.715Z" fill="url(#paint21_radial_7947_1319)"/>
<path d="M102.105 100.715C97.3043 92.9529 101.382 83.523 104.021 79.7783C110.863 72.9361 129.171 73.9059 135.681 79.7783C139.128 84.2464 142.064 93.9485 138.49 100.715C133.359 110.426 108.106 110.417 102.105 100.715Z" fill="url(#paint22_radial_7947_1319)"/>
<path d="M82.3065 20.2541C93.0698 23.5127 100.945 34.6957 103.537 39.8799C94.551 42.6448 92.3045 50.4951 91.5639 57.9011C87.9021 58.1068 80.7698 55.5483 74.5302 48.1499C65.8899 37.905 68.2351 27.1664 65.8899 21.7353C64.525 18.5746 64.2853 17.5386 65.1493 16.798C66.0134 16.0574 68.8523 16.1809 82.3065 20.2541Z" fill="url(#paint23_radial_7947_1319)"/>
<path d="M82.3065 20.2541C93.0698 23.5127 100.945 34.6957 103.537 39.8799C94.551 42.6448 92.3045 50.4951 91.5639 57.9011C87.9021 58.1068 80.7698 55.5483 74.5302 48.1499C65.8899 37.905 68.2351 27.1664 65.8899 21.7353C64.525 18.5746 64.2853 17.5386 65.1493 16.798C66.0134 16.0574 68.8523 16.1809 82.3065 20.2541Z" fill="url(#paint24_radial_7947_1319)"/>
<path d="M97.0515 43.6677C94.9796 39.4471 91.3193 33.2881 86.8734 29.3882C81.3944 24.5821 70.6008 21.348 65.1017 19.8023C64.4736 18.0946 64.4926 17.361 65.1493 16.798C66.0134 16.0574 68.8523 16.1809 82.3065 20.2541C93.0698 23.5127 100.945 34.6957 103.537 39.8799C100.799 40.7224 98.6862 42.0372 97.0515 43.6677Z" fill="url(#paint25_radial_7947_1319)"/>
<path d="M97.0515 43.6677C94.9796 39.4471 91.3193 33.2881 86.8734 29.3882C81.3944 24.5821 70.6008 21.348 65.1017 19.8023C64.4736 18.0946 64.4926 17.361 65.1493 16.798C66.0134 16.0574 68.8523 16.1809 82.3065 20.2541C93.0698 23.5127 100.945 34.6957 103.537 39.8799C100.799 40.7224 98.6862 42.0372 97.0515 43.6677Z" fill="url(#paint26_radial_7947_1319)"/>
<path d="M97.0515 43.6677C94.9796 39.4471 91.3193 33.2881 86.8734 29.3882C81.3944 24.5821 70.6008 21.348 65.1017 19.8023C64.4736 18.0946 64.4926 17.361 65.1493 16.798C66.0134 16.0574 68.8523 16.1809 82.3065 20.2541C93.0698 23.5127 100.945 34.6957 103.537 39.8799C100.799 40.7224 98.6862 42.0372 97.0515 43.6677Z" fill="url(#paint27_radial_7947_1319)"/>
<path d="M157.877 20.2541C147.114 23.5127 139.239 34.6957 136.647 39.8799C145.633 42.6448 147.879 50.4951 148.62 57.9011C152.282 58.1068 159.414 55.5483 165.654 48.1499C174.294 37.905 171.949 27.1664 174.294 21.7353C175.659 18.5746 175.898 17.5386 175.034 16.798C174.17 16.0574 171.331 16.1809 157.877 20.2541Z" fill="url(#paint28_radial_7947_1319)"/>
<path d="M157.877 20.2541C147.114 23.5127 139.239 34.6957 136.647 39.8799C145.633 42.6448 147.879 50.4951 148.62 57.9011C152.282 58.1068 159.414 55.5483 165.654 48.1499C174.294 37.905 171.949 27.1664 174.294 21.7353C175.659 18.5746 175.898 17.5386 175.034 16.798C174.17 16.0574 171.331 16.1809 157.877 20.2541Z" fill="url(#paint29_radial_7947_1319)"/>
<path d="M143.132 43.6677C145.204 39.4471 148.864 33.2881 153.31 29.3882C158.789 24.5821 169.583 21.348 175.082 19.8023C175.71 18.0946 175.691 17.361 175.034 16.798C174.17 16.0574 171.331 16.1809 157.877 20.2541C147.114 23.5127 139.239 34.6957 136.647 39.8799C139.385 40.7224 141.497 42.0372 143.132 43.6677Z" fill="url(#paint30_radial_7947_1319)"/>
<path d="M143.132 43.6677C145.204 39.4471 148.864 33.2881 153.31 29.3882C158.789 24.5821 169.583 21.348 175.082 19.8023C175.71 18.0946 175.691 17.361 175.034 16.798C174.17 16.0574 171.331 16.1809 157.877 20.2541C147.114 23.5127 139.239 34.6957 136.647 39.8799C139.385 40.7224 141.497 42.0372 143.132 43.6677Z" fill="url(#paint31_radial_7947_1319)"/>
<path d="M143.132 43.6677C145.204 39.4471 148.864 33.2881 153.31 29.3882C158.789 24.5821 169.583 21.348 175.082 19.8023C175.71 18.0946 175.691 17.361 175.034 16.798C174.17 16.0574 171.331 16.1809 157.877 20.2541C147.114 23.5127 139.239 34.6957 136.647 39.8799C139.385 40.7224 141.497 42.0372 143.132 43.6677Z" fill="url(#paint32_radial_7947_1319)"/>
<path d="M105.136 34.2161C107.62 33.3188 109.999 31.7403 112.267 30.3863C115.431 28.4976 119.661 26.9949 119.281 27.9775C118.726 29.4139 116.411 30.5745 116.102 31.3009C115.744 32.14 116.799 32.5609 117.552 32.0454C119.111 30.9774 125.449 28.3344 125.984 29.4139C125.984 29.8597 123.418 31.1454 123.321 31.8387C123.21 32.6418 124.387 32.6551 125.142 32.3603C126.254 31.9262 131.535 30.7632 131.825 31.3009C132.046 31.7103 131.196 32.3253 130.786 33.0169C130.572 33.3772 130.866 33.7558 131.271 33.8633C147.511 38.1757 150.633 50.1556 152.306 64.8226C153.98 79.4896 145.383 87.8995 119.998 87.8995C99.2292 87.8995 86.9596 80.8812 88.4623 64.8226C89.8387 50.1151 91.7466 39.0518 105.136 34.2161Z" fill="url(#paint33_radial_7947_1319)"/>
<path d="M105.136 34.2161C107.62 33.3188 109.999 31.7403 112.267 30.3863C115.431 28.4976 119.661 26.9949 119.281 27.9775C118.726 29.4139 116.411 30.5745 116.102 31.3009C115.744 32.14 116.799 32.5609 117.552 32.0454C119.111 30.9774 125.449 28.3344 125.984 29.4139C125.984 29.8597 123.418 31.1454 123.321 31.8387C123.21 32.6418 124.387 32.6551 125.142 32.3603C126.254 31.9262 131.535 30.7632 131.825 31.3009C132.046 31.7103 131.196 32.3253 130.786 33.0169C130.572 33.3772 130.866 33.7558 131.271 33.8633C147.511 38.1757 150.633 50.1556 152.306 64.8226C153.98 79.4896 145.383 87.8995 119.998 87.8995C99.2292 87.8995 86.9596 80.8812 88.4623 64.8226C89.8387 50.1151 91.7466 39.0518 105.136 34.2161Z" fill="url(#paint34_radial_7947_1319)"/>
<ellipse cx="104.441" cy="63.1461" rx="6.92308" ry="9.23077" fill="url(#paint35_radial_7947_1319)"/>
<ellipse cx="104.441" cy="63.1461" rx="6.92308" ry="9.23077" fill="url(#paint36_radial_7947_1319)"/>
<circle cx="102.133" cy="59.7027" r="2.30769" fill="url(#paint37_linear_7947_1319)"/>
<ellipse cx="137.037" cy="63.1461" rx="6.92308" ry="9.23077" fill="url(#paint38_radial_7947_1319)"/>
<ellipse cx="137.037" cy="63.1461" rx="6.92308" ry="9.23077" fill="url(#paint39_radial_7947_1319)"/>
<circle cx="134.729" cy="59.7027" r="2.30769" fill="url(#paint40_linear_7947_1319)"/>
<path d="M113.81 79.071C113.309 77.9443 113.122 77.0309 112.616 75.1478C112.496 74.7019 113.015 74.3835 113.353 74.6985C114.948 76.1864 116.737 77.6233 120.708 77.6233C123.662 77.6233 125.98 76.0889 127.516 74.7892C127.877 74.4836 128.39 74.8154 128.209 75.2525C127.672 76.5483 127.01 77.8062 126.414 79.071C125.57 80.8594 124.711 84.0955 120.708 84.0955C116.705 84.0955 115.173 82.1368 113.81 79.071Z" fill="url(#paint41_linear_7947_1319)"/>
<path d="M124.927 82.0108C124.107 83.1564 122.863 84.095 120.707 84.095C118.167 84.095 116.622 83.3063 115.483 81.9466C116.423 80.6927 117.957 80.0659 120.207 80.0659C122.495 80.0659 123.992 80.7309 124.927 82.0108Z" fill="url(#paint42_radial_7947_1319)"/>
<ellipse cx="120.423" cy="71.4535" rx="3.46154" ry="1.66154" fill="url(#paint43_radial_7947_1319)"/>
<ellipse cx="128.892" cy="45.6853" rx="19.2725" ry="8.53694" transform="rotate(37.4973 128.892 45.6853)" fill="url(#paint44_radial_7947_1319)"/>
<path d="M96.6336 54.3653C95.3356 53.3557 101.103 48.8844 102.474 49.6057C103.845 50.327 102.259 51.1922 100.168 52.5624C98.0765 53.9326 97.9317 55.3749 96.6336 54.3653Z" fill="#5F7C84"/>
<path d="M96.6336 54.3653C95.3356 53.3557 101.103 48.8844 102.474 49.6057C103.845 50.327 102.259 51.1922 100.168 52.5624C98.0765 53.9326 97.9317 55.3749 96.6336 54.3653Z" fill="url(#paint45_radial_7947_1319)"/>
<path d="M143.564 54.3653C144.862 53.3557 139.094 48.8844 137.723 49.6057C136.352 50.327 137.938 51.1922 140.029 52.5624C142.121 53.9326 142.265 55.3749 143.564 54.3653Z" fill="#5F7C84"/>
<path d="M143.564 54.3653C144.862 53.3557 139.094 48.8844 137.723 49.6057C136.352 50.327 137.938 51.1922 140.029 52.5624C142.121 53.9326 142.265 55.3749 143.564 54.3653Z" fill="url(#paint46_radial_7947_1319)"/>
<defs>
<linearGradient id="paint0_linear_7947_1319" x1="142.18" y1="88.2193" x2="174.084" y2="75.2079" gradientUnits="userSpaceOnUse">
<stop stop-color="#554467"/>
<stop offset="0.301317" stop-color="#867598"/>
<stop offset="1" stop-color="#D0B4EC"/>
</linearGradient>
<linearGradient id="paint1_linear_7947_1319" x1="142.18" y1="88.2193" x2="174.084" y2="75.2079" gradientUnits="userSpaceOnUse">
<stop stop-color="#867598"/>
<stop offset="0.301317" stop-color="#9884AD"/>
<stop offset="1" stop-color="#D0B4EC"/>
</linearGradient>
<radialGradient id="paint2_radial_7947_1319" cx="0" cy="0" r="1" gradientUnits="userSpaceOnUse" gradientTransform="translate(164.693 92.0899) rotate(-99.8276) scale(22.4389 43.283)">
<stop offset="0.831291" stop-color="#D0B4EC" stop-opacity="0"/>
<stop offset="1" stop-color="#E9D2FF"/>
</radialGradient>
<linearGradient id="paint3_linear_7947_1319" x1="156.92" y1="88.6485" x2="155.623" y2="91.5481" gradientUnits="userSpaceOnUse">
<stop stop-color="#DAC3F0" stop-opacity="0"/>
<stop offset="0.900782" stop-color="#DAC3F0"/>
</linearGradient>
<linearGradient id="paint4_linear_7947_1319" x1="168.096" y1="79.367" x2="167.951" y2="82.0997" gradientUnits="userSpaceOnUse">
<stop stop-color="#DAC3F0" stop-opacity="0"/>
<stop offset="0.729462" stop-color="#DAC3F0"/>
</linearGradient>
<linearGradient id="paint5_linear_7947_1319" x1="167.758" y1="80.1251" x2="164.654" y2="86.6509" gradientUnits="userSpaceOnUse">
<stop offset="0.188203" stop-color="#735D8A"/>
<stop offset="0.806904" stop-color="#8A789C" stop-opacity="0"/>
</linearGradient>
<linearGradient id="paint6_linear_7947_1319" x1="155.283" y1="89.8013" x2="151.659" y2="93.2809" gradientUnits="userSpaceOnUse">
<stop offset="0.226667" stop-color="#574569"/>
<stop offset="1" stop-color="#8A789C" stop-opacity="0"/>
</linearGradient>
<linearGradient id="paint7_linear_7947_1319" x1="98.5042" y1="88.2193" x2="66.5996" y2="75.2079" gradientUnits="userSpaceOnUse">
<stop stop-color="#554467"/>
<stop offset="0.301317" stop-color="#867598"/>
<stop offset="1" stop-color="#D0B4EC"/>
</linearGradient>
<linearGradient id="paint8_linear_7947_1319" x1="98.5042" y1="88.2193" x2="66.5996" y2="75.2079" gradientUnits="userSpaceOnUse">
<stop stop-color="#867598"/>
<stop offset="0.301317" stop-color="#9884AD"/>
<stop offset="1" stop-color="#D0B4EC"/>
</linearGradient>
<radialGradient id="paint9_radial_7947_1319" cx="0" cy="0" r="1" gradientUnits="userSpaceOnUse" gradientTransform="translate(75.991 92.0899) rotate(-80.1724) scale(22.4389 43.283)">
<stop offset="0.831291" stop-color="#D0B4EC" stop-opacity="0"/>
<stop offset="1" stop-color="#E9D2FF"/>
</radialGradient>
<linearGradient id="paint10_linear_7947_1319" x1="83.7641" y1="88.6485" x2="85.0609" y2="91.5481" gradientUnits="userSpaceOnUse">
<stop stop-color="#DAC3F0" stop-opacity="0"/>
<stop offset="0.900782" stop-color="#DAC3F0"/>
</linearGradient>
<linearGradient id="paint11_linear_7947_1319" x1="72.5875" y1="79.367" x2="72.7334" y2="82.0997" gradientUnits="userSpaceOnUse">
<stop stop-color="#DAC3F0" stop-opacity="0"/>
<stop offset="0.729462" stop-color="#DAC3F0"/>
</linearGradient>
<linearGradient id="paint12_linear_7947_1319" x1="72.9263" y1="80.1251" x2="76.0303" y2="86.6509" gradientUnits="userSpaceOnUse">
<stop offset="0.188203" stop-color="#735D8A"/>
<stop offset="0.806904" stop-color="#8A789C" stop-opacity="0"/>
</linearGradient>
<linearGradient id="paint13_linear_7947_1319" x1="85.4013" y1="89.8013" x2="89.0251" y2="93.2809" gradientUnits="userSpaceOnUse">
<stop offset="0.226667" stop-color="#574569"/>
<stop offset="1" stop-color="#8A789C" stop-opacity="0"/>
</linearGradient>
<linearGradient id="paint14_linear_7947_1319" x1="109.207" y1="104.918" x2="108.459" y2="109.101" gradientUnits="userSpaceOnUse">
<stop stop-color="#36484D"/>
<stop offset="1" stop-color="#6E9F9E"/>
</linearGradient>
<linearGradient id="paint15_linear_7947_1319" x1="130.789" y1="104.918" x2="131.538" y2="109.101" gradientUnits="userSpaceOnUse">
<stop stop-color="#36484D"/>
<stop offset="1" stop-color="#6E9F9E"/>
</linearGradient>
<radialGradient id="paint16_radial_7947_1319" cx="0" cy="0" r="1" gradientUnits="userSpaceOnUse" gradientTransform="translate(120 85.5917) rotate(90) scale(22.4028 27.3228)">
<stop stop-color="#AEE1CC"/>
<stop offset="0.701749" stop-color="#6DAAA7"/>
<stop offset="1" stop-color="#668087"/>
</radialGradient>
<radialGradient id="paint17_radial_7947_1319" cx="0" cy="0" r="1" gradientUnits="userSpaceOnUse" gradientTransform="translate(119.734 81.3882) rotate(90) scale(29.0281 26.7351)">
<stop offset="0.495833" stop-color="#FAE78D"/>
<stop offset="0.76" stop-color="#F5BD51"/>
<stop offset="1" stop-color="#ED8238"/>
</radialGradient>
<radialGradient id="paint18_radial_7947_1319" cx="0" cy="0" r="1" gradientUnits="userSpaceOnUse" gradientTransform="translate(120 86.0244) rotate(90) scale(7.21154 22.5003)">
<stop stop-color="#C45236"/>
<stop offset="1" stop-color="#C45236" stop-opacity="0"/>
</radialGradient>
<radialGradient id="paint19_radial_7947_1319" cx="0" cy="0" r="1" gradientUnits="userSpaceOnUse" gradientTransform="translate(120 95.4803) rotate(90) scale(8.09478 18.4341)">
<stop stop-color="#FBE88E"/>
<stop offset="1" stop-color="#FBE88E" stop-opacity="0"/>
</radialGradient>
<radialGradient id="paint20_radial_7947_1319" cx="0" cy="0" r="1" gradientUnits="userSpaceOnUse" gradientTransform="translate(120 85.5917) rotate(90) scale(22.4028 27.3228)">
<stop stop-color="#AEE1CC"/>
<stop offset="0.701749" stop-color="#6DAAA7"/>
<stop offset="1" stop-color="#668087"/>
</radialGradient>
<radialGradient id="paint21_radial_7947_1319" cx="0" cy="0" r="1" gradientUnits="userSpaceOnUse" gradientTransform="translate(120 86.0244) rotate(90) scale(7.21154 22.5003)">
<stop offset="0.32" stop-color="#46717A"/>
<stop offset="1" stop-color="#65858B" stop-opacity="0"/>
</radialGradient>
<radialGradient id="paint22_radial_7947_1319" cx="0" cy="0" r="1" gradientUnits="userSpaceOnUse" gradientTransform="translate(120 95.4803) rotate(90) scale(8.09478 18.4341)">
<stop stop-color="#AEE1CC" stop-opacity="0.7"/>
<stop offset="1" stop-color="#AEE1CC" stop-opacity="0"/>
</radialGradient>
<radialGradient id="paint23_radial_7947_1319" cx="0" cy="0" r="1" gradientUnits="userSpaceOnUse" gradientTransform="translate(71.3827 39.1393) rotate(-16.46) scale(22.6525 38.0632)">
<stop offset="0.245131" stop-color="#F7B3A9"/>
<stop offset="0.550831" stop-color="#EA7A8D"/>
<stop offset="0.838005" stop-color="#D6637E"/>
</radialGradient>
<radialGradient id="paint24_radial_7947_1319" cx="0" cy="0" r="1" gradientUnits="userSpaceOnUse" gradientTransform="translate(69.0971 48.809) rotate(-42.0264) scale(28.1676 48.5892)">
<stop offset="0.721783" stop-color="#C64262" stop-opacity="0"/>
<stop offset="1" stop-color="#C64262"/>
</radialGradient>
<radialGradient id="paint25_radial_7947_1319" cx="0" cy="0" r="1" gradientUnits="userSpaceOnUse" gradientTransform="translate(82.4916 31.3631) rotate(-54.3099) scale(10.7903 33.1211)">
<stop offset="0.455" stop-color="#80ACA8"/>
<stop offset="0.86" stop-color="#AEE1CC"/>
</radialGradient>
<radialGradient id="paint26_radial_7947_1319" cx="0" cy="0" r="1" gradientUnits="userSpaceOnUse" gradientTransform="translate(82.4916 31.3631) rotate(-56.0557) scale(10.0834 28.8488)">
<stop offset="0.43" stop-color="#EE863A"/>
<stop offset="0.765" stop-color="#FBE88E"/>
</radialGradient>
<radialGradient id="paint27_radial_7947_1319" cx="0" cy="0" r="1" gradientUnits="userSpaceOnUse" gradientTransform="translate(83.2612 32.3074) rotate(-60.3528) scale(11.1703 34.2876)">
<stop offset="0.455" stop-color="#719395"/>
<stop offset="0.765" stop-color="#AEE1CC"/>
</radialGradient>
<radialGradient id="paint28_radial_7947_1319" cx="0" cy="0" r="1" gradientUnits="userSpaceOnUse" gradientTransform="translate(168.801 39.1393) rotate(-163.54) scale(22.6525 38.0632)">
<stop offset="0.245131" stop-color="#F7B3A9"/>
<stop offset="0.550831" stop-color="#EA7A8D"/>
<stop offset="0.838005" stop-color="#D6637E"/>
</radialGradient>
<radialGradient id="paint29_radial_7947_1319" cx="0" cy="0" r="1" gradientUnits="userSpaceOnUse" gradientTransform="translate(171.087 48.809) rotate(-137.974) scale(28.1676 48.5892)">
<stop offset="0.721783" stop-color="#C64262" stop-opacity="0"/>
<stop offset="1" stop-color="#C64262"/>
</radialGradient>
<radialGradient id="paint30_radial_7947_1319" cx="0" cy="0" r="1" gradientUnits="userSpaceOnUse" gradientTransform="translate(157.692 31.3631) rotate(-125.69) scale(10.7903 33.1211)">
<stop offset="0.455" stop-color="#80ACA8"/>
<stop offset="0.86" stop-color="#AEE1CC"/>
</radialGradient>
<radialGradient id="paint31_radial_7947_1319" cx="0" cy="0" r="1" gradientUnits="userSpaceOnUse" gradientTransform="translate(157.692 31.3631) rotate(-123.944) scale(10.0834 28.8488)">
<stop offset="0.43" stop-color="#EE863A"/>
<stop offset="0.765" stop-color="#FBE88E"/>
</radialGradient>
<radialGradient id="paint32_radial_7947_1319" cx="0" cy="0" r="1" gradientUnits="userSpaceOnUse" gradientTransform="translate(156.923 32.3074) rotate(-119.647) scale(11.1703 34.2876)">
<stop offset="0.455" stop-color="#719395"/>
<stop offset="0.765" stop-color="#AEE1CC"/>
</radialGradient>
<radialGradient id="paint33_radial_7947_1319" cx="0" cy="0" r="1" gradientUnits="userSpaceOnUse" gradientTransform="translate(120.423 39.3242) rotate(90) scale(52.9967 81.0603)">
<stop offset="0.319379" stop-color="#ADE0CB"/>
<stop offset="0.61" stop-color="#86B3AC"/>
<stop offset="1" stop-color="#5A7680"/>
</radialGradient>
<radialGradient id="paint34_radial_7947_1319" cx="0" cy="0" r="1" gradientUnits="userSpaceOnUse" gradientTransform="translate(122.208 58.9986) rotate(-135) scale(34.3357 34.9115)">
<stop offset="0.73" stop-color="#80BCB2" stop-opacity="0"/>
<stop offset="0.93" stop-color="#80BCB2"/>
</radialGradient>
<radialGradient id="paint35_radial_7947_1319" cx="0" cy="0" r="1" gradientUnits="userSpaceOnUse" gradientTransform="translate(104.441 55.8848) rotate(90) scale(17.0509 12.182)">
<stop offset="0.637131" stop-color="#592814"/>
<stop offset="0.946359" stop-color="#BF552A"/>
</radialGradient>
<radialGradient id="paint36_radial_7947_1319" cx="0" cy="0" r="1" gradientUnits="userSpaceOnUse" gradientTransform="translate(108.461 72.3768) rotate(-117.142) scale(8.81303 6.60977)">
<stop stop-color="#DB7618"/>
<stop offset="1" stop-color="#DB7618" stop-opacity="0"/>
</radialGradient>
<linearGradient id="paint37_linear_7947_1319" x1="100.474" y1="56.3854" x2="103.449" y2="61.109" gradientUnits="userSpaceOnUse">
<stop stop-color="white"/>
<stop offset="1" stop-color="white" stop-opacity="0.25"/>
</linearGradient>
<radialGradient id="paint38_radial_7947_1319" cx="0" cy="0" r="1" gradientUnits="userSpaceOnUse" gradientTransform="translate(137.037 55.8848) rotate(90) scale(17.0509 12.182)">
<stop offset="0.637131" stop-color="#592814"/>
<stop offset="0.946359" stop-color="#BF552A"/>
</radialGradient>
<radialGradient id="paint39_radial_7947_1319" cx="0" cy="0" r="1" gradientUnits="userSpaceOnUse" gradientTransform="translate(141.057 72.3768) rotate(-117.142) scale(8.81303 6.60977)">
<stop stop-color="#DB7618"/>
<stop offset="1" stop-color="#DB7618" stop-opacity="0"/>
</radialGradient>
<linearGradient id="paint40_linear_7947_1319" x1="133.07" y1="56.3854" x2="136.045" y2="61.109" gradientUnits="userSpaceOnUse">
<stop stop-color="white"/>
<stop offset="1" stop-color="white" stop-opacity="0.25"/>
</linearGradient>
<linearGradient id="paint41_linear_7947_1319" x1="120.496" y1="82.4462" x2="120.496" y2="78.6781" gradientUnits="userSpaceOnUse">
<stop stop-color="#C94651"/>
<stop offset="1" stop-color="#790000"/>
</linearGradient>
<radialGradient id="paint42_radial_7947_1319" cx="0" cy="0" r="1" gradientUnits="userSpaceOnUse" gradientTransform="translate(120.205 80.0659) rotate(90) scale(4.02912 6.68727)">
<stop offset="0.496684" stop-color="#F8B4AA"/>
<stop offset="0.79" stop-color="#EE8B88"/>
<stop offset="1" stop-color="#D36460"/>
</radialGradient>
<radialGradient id="paint43_radial_7947_1319" cx="0" cy="0" r="1" gradientUnits="userSpaceOnUse" gradientTransform="translate(120.423 70.7225) rotate(90) scale(2.39262 6.70118)">
<stop stop-color="#83AEA9"/>
<stop offset="0.763889" stop-color="#3F565B"/>
</radialGradient>
<radialGradient id="paint44_radial_7947_1319" cx="0" cy="0" r="1" gradientUnits="userSpaceOnUse" gradientTransform="translate(130.627 43.1261) rotate(89.9081) scale(6.17335 9.93604)">
<stop stop-color="white" stop-opacity="0.45"/>
<stop offset="1" stop-color="white" stop-opacity="0"/>
</radialGradient>
<radialGradient id="paint45_radial_7947_1319" cx="0" cy="0" r="1" gradientUnits="userSpaceOnUse" gradientTransform="translate(100.33 52.9503) rotate(-125.74) scale(2.37666 6.8752)">
<stop offset="0.587006" stop-color="#50727B"/>
<stop offset="1" stop-color="#83AEA9"/>
</radialGradient>
<radialGradient id="paint46_radial_7947_1319" cx="0" cy="0" r="1" gradientUnits="userSpaceOnUse" gradientTransform="translate(139.867 52.9503) rotate(-54.2602) scale(2.37666 6.8752)">
<stop offset="0.587006" stop-color="#50727B"/>
<stop offset="1" stop-color="#83AEA9"/>
</radialGradient>
</defs>
</svg>
