<svg viewBox="0 0 240 120" fill="none" xmlns="http://www.w3.org/2000/svg">
<path d="M172.758 65.3248L5.67871 119.999H239.997V97.3752L172.758 65.3248Z" fill="url(#paint0_radial_8220_1537)"/>
<path d="M172.758 65.3248L5.67871 119.999H239.997V97.3752L172.758 65.3248Z" fill="url(#paint1_radial_8220_1537)"/>
<path d="M172.758 65.3248L5.67871 119.999H239.997V97.3752L172.758 65.3248Z" fill="url(#paint2_radial_8220_1537)"/>
<path d="M223.771 120L147.119 83.0932C146.147 82.6253 144.98 83.0338 144.512 84.0054C144.044 84.9771 144.453 86.144 145.424 86.6119L214.769 120H223.771Z" fill="white" fill-opacity="0.66"/>
<path d="M160.385 120L108.066 94.8091C107.094 94.3412 105.927 94.7497 105.459 95.7213C104.991 96.693 105.4 97.8599 106.371 98.3278L151.383 120H160.385Z" fill="white" fill-opacity="0.66"/>
<path d="M96.9987 120L69.0126 106.525C68.0409 106.057 66.874 106.466 66.4062 107.437C65.9383 108.409 66.3468 109.576 67.3184 110.044L87.9965 120H96.9987Z" fill="white" fill-opacity="0.66"/>
<path fill-rule="evenodd" clip-rule="evenodd" d="M195.639 64.9602C195.639 58.7715 199.67 54.112 205.166 54.112C210.662 54.112 214.694 58.7715 214.694 64.9602V100.443C214.694 102.933 212.675 104.952 210.185 104.952C207.695 104.952 205.676 102.933 205.676 100.443V64.9602C205.676 62.8801 204.656 62.8956 204.656 64.9602C204.656 67.4503 202.638 69.469 200.148 69.469C197.657 69.469 195.639 67.4503 195.639 64.9602Z" fill="url(#paint3_linear_8220_1537)"/>
<path fill-rule="evenodd" clip-rule="evenodd" d="M183.401 16.7987C183.401 14.3085 185.42 12.2899 187.91 12.2899C190.4 12.2899 192.419 14.3085 192.419 16.7987V59.1431L214.218 67.4779V28.5814C214.218 26.0913 216.236 24.0726 218.727 24.0726C221.217 24.0726 223.235 26.0913 223.235 28.5814V74.0291C223.235 75.513 222.505 76.902 221.283 77.7433C220.06 78.5846 218.502 78.7706 217.116 78.2406L186.3 66.4579C184.554 65.7904 183.401 64.1153 183.401 62.2464V16.7987Z" fill="url(#paint4_linear_8220_1537)"/>
<path d="M50.3304 12.3876C29.5617 57.5155 60.467 107.245 116.666 109.926C118.384 110.008 119.984 108.966 120.602 107.361C140.586 55.4529 107.561 7.48009 53.764 10.0774C52.2875 10.1487 50.9484 11.0448 50.3304 12.3876Z" fill="url(#paint5_radial_8220_1537)"/>
<path d="M50.3304 12.3876C29.5617 57.5155 60.467 107.245 116.666 109.926C118.384 110.008 119.984 108.966 120.602 107.361C140.586 55.4529 107.561 7.48009 53.764 10.0774C52.2875 10.1487 50.9484 11.0448 50.3304 12.3876Z" fill="url(#paint6_radial_8220_1537)"/>
<path fill-rule="evenodd" clip-rule="evenodd" d="M119.938 109.041C117.412 94.2892 111.921 66.5928 93.0013 41.633C78.9508 23.0969 62.9967 14.2919 53.8429 10.0734C53.0228 10.1123 52.1979 10.1629 51.3682 10.2254C51.1644 10.6342 50.9648 11.0435 50.7695 11.4531C59.2714 15.1879 76.2006 23.6379 90.9942 43.1544C109.746 67.8928 115.06 95.4068 117.54 109.964C118.201 109.99 118.866 110.009 119.533 110.021C119.67 109.695 119.805 109.368 119.938 109.041Z" fill="url(#paint7_linear_8220_1537)"/>
<path fill-rule="evenodd" clip-rule="evenodd" d="M64.4115 17.1401C63.7809 18.1127 64.0581 19.4124 65.0307 20.043C72.8386 25.1054 81.9262 32.5841 90.3235 43.6622C96.3851 51.659 101.037 59.9546 104.639 68.0116C105.112 69.0698 106.353 69.5441 107.412 69.071C108.47 68.5978 108.944 67.3565 108.471 66.2983C104.758 57.9932 99.9502 49.4135 93.6687 41.1266C84.9331 29.6022 75.4642 21.8051 67.3143 16.5209C66.3417 15.8903 65.0421 16.1676 64.4115 17.1401Z" fill="#F6F4F5"/>
<path fill-rule="evenodd" clip-rule="evenodd" d="M64.4115 17.1401C63.7809 18.1127 64.0581 19.4124 65.0307 20.043C72.8386 25.1054 81.9262 32.5841 90.3235 43.6622C96.3851 51.659 101.037 59.9546 104.639 68.0116C105.112 69.0698 106.353 69.5441 107.412 69.071C108.47 68.5978 108.944 67.3565 108.471 66.2983C104.758 57.9932 99.9502 49.4135 93.6687 41.1266C84.9331 29.6022 75.4642 21.8051 67.3143 16.5209C66.3417 15.8903 65.0421 16.1676 64.4115 17.1401Z" fill="url(#paint8_radial_8220_1537)"/>
<path fill-rule="evenodd" clip-rule="evenodd" d="M64.4115 17.1401C63.7809 18.1127 64.0581 19.4124 65.0307 20.043C72.8386 25.1054 81.9262 32.5841 90.3235 43.6622C96.3851 51.659 101.037 59.9546 104.639 68.0116C105.112 69.0698 106.353 69.5441 107.412 69.071C108.47 68.5978 108.944 67.3565 108.471 66.2983C104.758 57.9932 99.9502 49.4135 93.6687 41.1266C84.9331 29.6022 75.4642 21.8051 67.3143 16.5209C66.3417 15.8903 65.0421 16.1676 64.4115 17.1401Z" fill="url(#paint9_radial_8220_1537)"/>
<path fill-rule="evenodd" clip-rule="evenodd" d="M64.4115 17.1401C63.7809 18.1127 64.0581 19.4124 65.0307 20.043C72.8386 25.1054 81.9262 32.5841 90.3235 43.6622C96.3851 51.659 101.037 59.9546 104.639 68.0116C105.112 69.0698 106.353 69.5441 107.412 69.071C108.47 68.5978 108.944 67.3565 108.471 66.2983C104.758 57.9932 99.9502 49.4135 93.6687 41.1266C84.9331 29.6022 75.4642 21.8051 67.3143 16.5209C66.3417 15.8903 65.0421 16.1676 64.4115 17.1401Z" fill="url(#paint10_radial_8220_1537)"/>
<path fill-rule="evenodd" clip-rule="evenodd" d="M64.4115 17.1401C63.7809 18.1127 64.0581 19.4124 65.0307 20.043C72.8386 25.1054 81.9262 32.5841 90.3235 43.6622C96.3851 51.659 101.037 59.9546 104.639 68.0116C105.112 69.0698 106.353 69.5441 107.412 69.071C108.47 68.5978 108.944 67.3565 108.471 66.2983C104.758 57.9932 99.9502 49.4135 93.6687 41.1266C84.9331 29.6022 75.4642 21.8051 67.3143 16.5209C66.3417 15.8903 65.0421 16.1676 64.4115 17.1401Z" fill="url(#paint11_radial_8220_1537)"/>
<path fill-rule="evenodd" clip-rule="evenodd" d="M64.4115 17.1401C63.7809 18.1127 64.0581 19.4124 65.0307 20.043C72.8386 25.1054 81.9262 32.5841 90.3235 43.6622C96.3851 51.659 101.037 59.9546 104.639 68.0116C105.112 69.0698 106.353 69.5441 107.412 69.071C108.47 68.5978 108.944 67.3565 108.471 66.2983C104.758 57.9932 99.9502 49.4135 93.6687 41.1266C84.9331 29.6022 75.4642 21.8051 67.3143 16.5209C66.3417 15.8903 65.0421 16.1676 64.4115 17.1401Z" fill="url(#paint12_radial_8220_1537)"/>
<path fill-rule="evenodd" clip-rule="evenodd" d="M113.612 57.9725C113.593 56.8135 112.638 55.8897 111.479 55.909C107.754 55.9711 103.904 57.1099 100.56 58.8265C97.225 60.5385 94.233 62.9083 92.3194 65.5862C91.6455 66.5293 91.8638 67.8401 92.8069 68.514C93.75 69.1879 95.0608 68.9697 95.7347 68.0266C97.1655 66.0243 99.5753 64.0502 102.477 62.5607C105.369 61.0758 108.59 60.1553 111.548 60.106C112.707 60.0866 113.631 59.1315 113.612 57.9725Z" fill="url(#paint13_radial_8220_1537)"/>
<path fill-rule="evenodd" clip-rule="evenodd" d="M107.151 47.5037C107.132 46.3447 106.177 45.4209 105.018 45.4402C101.283 45.5024 97.4373 46.6737 94.1039 48.4014C90.7776 50.1255 87.8001 52.4874 85.8777 55.0909C85.1892 56.0234 85.387 57.3375 86.3194 58.026C87.2519 58.7145 88.566 58.5167 89.2545 57.5843C90.7092 55.6141 93.1336 53.6322 96.0355 52.1281C98.9305 50.6276 102.14 49.6863 105.088 49.6371C106.247 49.6178 107.17 48.6626 107.151 47.5037Z" fill="url(#paint14_radial_8220_1537)"/>
<path fill-rule="evenodd" clip-rule="evenodd" d="M99.9123 37.8136C99.893 36.6546 98.9378 35.7307 97.7788 35.7501C90.4225 35.8727 82.9682 39.9042 78.6788 45.3486C77.9614 46.2591 78.118 47.5787 79.0285 48.296C79.939 49.0134 81.2586 48.8568 81.9759 47.9463C85.5393 43.4235 91.8396 40.0472 97.8488 39.947C99.0078 39.9277 99.9316 38.9725 99.9123 37.8136Z" fill="url(#paint15_radial_8220_1537)"/>
<path fill-rule="evenodd" clip-rule="evenodd" d="M91.7814 29.0147C91.7621 27.8557 90.8069 26.9318 89.648 26.9512C82.2867 27.0739 74.6986 31.2511 70.5443 36.5543C69.8295 37.4668 69.9897 38.786 70.9022 39.5008C71.8147 40.2156 73.1339 40.0553 73.8487 39.1428C77.2808 34.7616 83.7138 31.2482 89.7179 31.1481C90.8769 31.1288 91.8008 30.1736 91.7814 29.0147Z" fill="url(#paint16_radial_8220_1537)"/>
<path fill-rule="evenodd" clip-rule="evenodd" d="M81.424 20.8831C81.4047 19.7242 80.4495 18.8003 79.2906 18.8196C72.4733 18.9333 65.1181 22.829 61.4735 27.8093C60.7889 28.7447 60.9923 30.0579 61.9277 30.7425C62.8631 31.427 64.1763 31.2236 64.8608 30.2882C67.7123 26.3919 73.8275 23.1088 79.3605 23.0166C80.5195 22.9973 81.4433 22.0421 81.424 20.8831Z" fill="url(#paint17_radial_8220_1537)"/>
<defs>
<radialGradient id="paint0_radial_8220_1537" cx="0" cy="0" r="1" gradientUnits="userSpaceOnUse" gradientTransform="translate(125.199 121.385) rotate(151.546) scale(130.755 70.8956)">
<stop stop-color="#8BC510"/>
<stop offset="1" stop-color="#00B03C"/>
</radialGradient>
<radialGradient id="paint1_radial_8220_1537" cx="0" cy="0" r="1" gradientUnits="userSpaceOnUse" gradientTransform="translate(132.374 137.747) rotate(-35.9032) scale(102.036 69.3995)">
<stop stop-color="#CCFF00" stop-opacity="0.6"/>
<stop offset="1" stop-color="#CCFF00" stop-opacity="0"/>
</radialGradient>
<radialGradient id="paint2_radial_8220_1537" cx="0" cy="0" r="1" gradientUnits="userSpaceOnUse" gradientTransform="translate(106.434 59.3859) rotate(178.063) scale(175.738 116.655)">
<stop offset="0.406358" stop-color="#00815A" stop-opacity="0"/>
<stop offset="1" stop-color="#004E36"/>
</radialGradient>
<linearGradient id="paint3_linear_8220_1537" x1="205.166" y1="54.112" x2="205.166" y2="104.952" gradientUnits="userSpaceOnUse">
<stop stop-color="#EFC60E"/>
<stop offset="1" stop-color="#B69401"/>
</linearGradient>
<linearGradient id="paint4_linear_8220_1537" x1="203.318" y1="12.2899" x2="203.318" y2="78.538" gradientUnits="userSpaceOnUse">
<stop stop-color="#EFC60E"/>
<stop offset="1" stop-color="#B69401"/>
</linearGradient>
<radialGradient id="paint5_radial_8220_1537" cx="0" cy="0" r="1" gradientUnits="userSpaceOnUse" gradientTransform="translate(85.1635 39.9579) rotate(64.6172) scale(96.4059 61.7392)">
<stop offset="0.125" stop-color="#D38145"/>
<stop offset="0.911458" stop-color="#672C1C"/>
</radialGradient>
<radialGradient id="paint6_radial_8220_1537" cx="0" cy="0" r="1" gradientUnits="userSpaceOnUse" gradientTransform="translate(85.1635 48.353) rotate(62.297) scale(88.8941 56.9286)">
<stop offset="0.55" stop-color="#2C0D05" stop-opacity="0"/>
<stop offset="0.795" stop-color="#FD8562"/>
</radialGradient>
<linearGradient id="paint7_linear_8220_1537" x1="50.7696" y1="3.72953" x2="119.616" y2="113.093" gradientUnits="userSpaceOnUse">
<stop stop-color="#D18F77" stop-opacity="0"/>
<stop offset="0.478029" stop-color="#D18F77"/>
<stop offset="1" stop-color="#D18F77" stop-opacity="0"/>
</linearGradient>
<radialGradient id="paint8_radial_8220_1537" cx="0" cy="0" r="1" gradientUnits="userSpaceOnUse" gradientTransform="translate(72.3167 22.5123) rotate(160.54) scale(10.4341 3.47246)">
<stop offset="0.400456" stop-color="#CDBDC4"/>
<stop offset="1" stop-color="#CDBDC4" stop-opacity="0"/>
</radialGradient>
<radialGradient id="paint9_radial_8220_1537" cx="0" cy="0" r="1" gradientUnits="userSpaceOnUse" gradientTransform="translate(81.5644 30.973) rotate(155.528) scale(11.2414 3.74113)">
<stop offset="0.400456" stop-color="#CDBDC4"/>
<stop offset="1" stop-color="#CDBDC4" stop-opacity="0"/>
</radialGradient>
<radialGradient id="paint10_radial_8220_1537" cx="0" cy="0" r="1" gradientUnits="userSpaceOnUse" gradientTransform="translate(89.566 39.8272) rotate(158.765) scale(12.3137 3.84544)">
<stop offset="0.400456" stop-color="#CDBDC4"/>
<stop offset="1" stop-color="#CDBDC4" stop-opacity="0"/>
</radialGradient>
<radialGradient id="paint11_radial_8220_1537" cx="0" cy="0" r="1" gradientUnits="userSpaceOnUse" gradientTransform="translate(97.0429 49.534) rotate(161.83) scale(13.4606 4.2036)">
<stop offset="0.400456" stop-color="#CDBDC4"/>
<stop offset="1" stop-color="#CDBDC4" stop-opacity="0"/>
</radialGradient>
<radialGradient id="paint12_radial_8220_1537" cx="0" cy="0" r="1" gradientUnits="userSpaceOnUse" gradientTransform="translate(102.88 60.0935) rotate(158.881) scale(13.2884 4.14981)">
<stop offset="0.400456" stop-color="#CDBDC4"/>
<stop offset="1" stop-color="#CDBDC4" stop-opacity="0"/>
</radialGradient>
<radialGradient id="paint13_radial_8220_1537" cx="0" cy="0" r="1" gradientUnits="userSpaceOnUse" gradientTransform="translate(104.711 65.6941) rotate(152.904) scale(13.7132 5.75489)">
<stop offset="0.671453" stop-color="#D6C4CD"/>
<stop offset="1" stop-color="#F6F4F5"/>
</radialGradient>
<radialGradient id="paint14_radial_8220_1537" cx="0" cy="0" r="1" gradientUnits="userSpaceOnUse" gradientTransform="translate(98.2498 55.2253) rotate(152.904) scale(13.7132 5.75489)">
<stop offset="0.671453" stop-color="#D6C4CD"/>
<stop offset="1" stop-color="#F6F4F5"/>
</radialGradient>
<radialGradient id="paint15_radial_8220_1537" cx="0" cy="0" r="1" gradientUnits="userSpaceOnUse" gradientTransform="translate(91.0111 45.5352) rotate(152.904) scale(13.7132 5.75489)">
<stop offset="0.671453" stop-color="#D6C4CD"/>
<stop offset="1" stop-color="#F6F4F5"/>
</radialGradient>
<radialGradient id="paint16_radial_8220_1537" cx="0" cy="0" r="1" gradientUnits="userSpaceOnUse" gradientTransform="translate(82.8802 36.7363) rotate(152.904) scale(13.7132 5.75489)">
<stop offset="0.671453" stop-color="#D6C4CD"/>
<stop offset="1" stop-color="#F6F4F5"/>
</radialGradient>
<radialGradient id="paint17_radial_8220_1537" cx="0" cy="0" r="1" gradientUnits="userSpaceOnUse" gradientTransform="translate(73.0395 28.021) rotate(152.904) scale(12.6717 5.31781)">
<stop offset="0.671453" stop-color="#D6C4CD"/>
<stop offset="1" stop-color="#F6F4F5"/>
</radialGradient>
</defs>
</svg>
