<svg viewBox="0 0 240 120" fill="none" xmlns="http://www.w3.org/2000/svg">
<path d="M62.5434 96.9227C95.331 90.4237 78.7674 91.8334 94.6151 71.5381L37.3239 14.2468C35.5795 12.5025 32.6831 14.3435 33.5219 16.6634L62.5434 96.9227Z" fill="url(#paint0_radial_2724_339)"/>
<path d="M90 90.0003C122.788 83.5013 108.532 94.1415 124.379 73.8462L69.5625 14.7449C67.8743 12.9247 64.8963 14.6888 65.6813 17.0439L90 90.0003Z" fill="url(#paint1_radial_2724_339)"/>
<path d="M170.769 101.539L217.419 20.4092C218.703 18.1768 215.92 15.8375 213.941 17.486L140.769 78.4627C160.14 95.4278 137.349 101.3 170.769 101.539Z" fill="url(#paint2_radial_2724_339)"/>
<path d="M156.923 96.9232L176.764 13.5905C177.369 11.0512 173.955 9.61792 172.566 11.8279L129.231 80.7696C148.602 97.7347 123.503 96.6842 156.923 96.9232Z" fill="url(#paint3_radial_2724_339)"/>
<path d="M156.923 96.9232L176.764 13.5905C177.369 11.0512 173.955 9.61792 172.566 11.8279L129.231 80.7696C148.602 97.7347 123.503 96.6842 156.923 96.9232Z" fill="url(#paint4_radial_2724_339)"/>
<path d="M161.538 90.9402H78.4615V102.906C78.4615 105.974 97.059 108.462 120 108.462C142.941 108.462 161.538 105.974 161.538 102.906V90.9402Z" fill="url(#paint5_linear_2724_339)"/>
<path d="M161.538 90.9402H78.4615V102.906C78.4615 105.974 97.059 108.462 120 108.462C142.941 108.462 161.538 105.974 161.538 102.906V90.9402Z" fill="url(#paint6_linear_2724_339)"/>
<ellipse cx="120" cy="90.9401" rx="41.5385" ry="5.55548" fill="url(#paint7_linear_2724_339)"/>
<ellipse cx="120" cy="90.9401" rx="41.5385" ry="5.55548" fill="url(#paint8_linear_2724_339)"/>
<ellipse cx="120" cy="90.9401" rx="41.5385" ry="5.55548" fill="url(#paint9_radial_2724_339)"/>
<ellipse cx="120" cy="90.9401" rx="41.5385" ry="5.55548" fill="url(#paint10_radial_2724_339)"/>
<path d="M102.735 84.5439C102.735 82.4891 104.267 80.7618 106.312 80.5618C110.121 80.189 116.319 79.6769 121.621 79.6769C126.923 79.6769 133.121 80.189 136.931 80.5618C138.976 80.7618 140.507 82.4891 140.507 84.5439V90.7403C140.507 90.7403 133.594 93.4615 121.621 93.4615C109.649 93.4615 102.735 90.7403 102.735 90.7403V84.5439Z" fill="url(#paint11_linear_2724_339)"/>
<path d="M102.735 84.5439C102.735 82.4891 104.267 80.7618 106.312 80.5618C110.121 80.189 116.319 79.6769 121.621 79.6769C126.923 79.6769 133.121 80.189 136.931 80.5618C138.976 80.7618 140.507 82.4891 140.507 84.5439V90.7403C140.507 90.7403 133.594 93.4615 121.621 93.4615C109.649 93.4615 102.735 90.7403 102.735 90.7403V84.5439Z" fill="url(#paint12_radial_2724_339)"/>
<path d="M117.971 37.0907H125.272V81.9505C122.964 82.585 120.279 82.585 117.971 81.9505V37.0907Z" fill="url(#paint13_linear_2724_339)"/>
<path d="M117.971 37.0907H125.272V81.9505C122.964 82.585 120.279 82.585 117.971 81.9505V37.0907Z" fill="url(#paint14_radial_2724_339)"/>
<path d="M109.92 37.3239L113.67 44.3545L95.2524 53.1722C94.7032 53.4351 94.0691 53.0292 94.0779 52.4204L94.1525 47.2588C94.1566 46.9752 94.3069 46.7138 94.5499 46.5676L109.92 37.3239Z" fill="url(#paint15_linear_2724_339)"/>
<path d="M109.92 37.3239L113.67 44.3545L95.2524 53.1722C94.7032 53.4351 94.0691 53.0292 94.0779 52.4204L94.1525 47.2588C94.1566 46.9752 94.3069 46.7138 94.5499 46.5676L109.92 37.3239Z" fill="url(#paint16_radial_2724_339)"/>
<path d="M109.92 37.3239L113.67 44.3545L95.2524 53.1722C94.7032 53.4351 94.0691 53.0292 94.0779 52.4204L94.1525 47.2588C94.1566 46.9752 94.3069 46.7138 94.5499 46.5676L109.92 37.3239Z" fill="url(#paint17_radial_2724_339)"/>
<path d="M127.837 25.9024L133.134 35.8328L108.268 47.738C106.683 48.4965 104.782 47.8727 103.956 46.3227L102.873 44.293C102.046 42.743 102.587 40.8169 104.099 39.9235L127.837 25.9024Z" fill="url(#paint18_linear_2724_339)"/>
<path d="M127.837 25.9024L133.134 35.8328L108.268 47.738C106.683 48.4965 104.782 47.8727 103.956 46.3227L102.873 44.293C102.046 42.743 102.587 40.8169 104.099 39.9235L127.837 25.9024Z" fill="url(#paint19_radial_2724_339)"/>
<path d="M127.837 25.9024L133.134 35.8328L108.268 47.738C106.683 48.4965 104.782 47.8727 103.956 46.3227L102.873 44.293C102.046 42.743 102.587 40.8169 104.099 39.9235L127.837 25.9024Z" fill="url(#paint20_radial_2724_339)"/>
<path d="M142.337 15.6994C142.898 15.4346 143.559 15.5093 144.016 15.9281C145.05 16.8765 146.919 18.7873 148.246 21.2749C149.577 23.7718 150.123 26.398 150.333 27.7813C150.424 28.3862 150.126 28.9699 149.605 29.2908L137.5 36.7476C137.166 36.9535 136.769 37.0327 136.381 36.9708L132.753 36.392C132.374 36.3316 132.029 36.1413 131.786 35.8441C131.146 35.0608 129.831 33.3693 128.888 31.6007C127.955 29.8519 127.287 27.8433 126.988 26.8628C126.87 26.4764 126.913 26.0616 127.095 25.7011L128.702 22.524C128.867 22.1984 129.136 21.9369 129.466 21.7811L142.337 15.6994Z" fill="#75ACFF"/>
<path d="M142.337 15.6994C142.898 15.4346 143.559 15.5093 144.016 15.9281C145.05 16.8765 146.919 18.7873 148.246 21.2749C149.577 23.7718 150.123 26.398 150.333 27.7813C150.424 28.3862 150.126 28.9699 149.605 29.2908L137.5 36.7476C137.166 36.9535 136.769 37.0327 136.381 36.9708L132.753 36.392C132.374 36.3316 132.029 36.1413 131.786 35.8441C131.146 35.0608 129.831 33.3693 128.888 31.6007C127.955 29.8519 127.287 27.8433 126.988 26.8628C126.87 26.4764 126.913 26.0616 127.095 25.7011L128.702 22.524C128.867 22.1984 129.136 21.9369 129.466 21.7811L142.337 15.6994Z" fill="url(#paint21_radial_2724_339)"/>
<path d="M142.337 15.6994C142.898 15.4346 143.559 15.5093 144.016 15.9281C145.05 16.8765 146.919 18.7873 148.246 21.2749C149.577 23.7718 150.123 26.398 150.333 27.7813C150.424 28.3862 150.126 28.9699 149.605 29.2908L137.5 36.7476C137.166 36.9535 136.769 37.0327 136.381 36.9708L132.753 36.392C132.374 36.3316 132.029 36.1413 131.786 35.8441C131.146 35.0608 129.831 33.3693 128.888 31.6007C127.955 29.8519 127.287 27.8433 126.988 26.8628C126.87 26.4764 126.913 26.0616 127.095 25.7011L128.702 22.524C128.867 22.1984 129.136 21.9369 129.466 21.7811L142.337 15.6994Z" fill="url(#paint22_radial_2724_339)"/>
<path d="M142.337 15.6994C142.898 15.4346 143.559 15.5093 144.016 15.9281C145.05 16.8765 146.919 18.7873 148.246 21.2749C149.577 23.7718 150.123 26.398 150.333 27.7813C150.424 28.3862 150.126 28.9699 149.605 29.2908L137.5 36.7476C137.166 36.9535 136.769 37.0327 136.381 36.9708L132.753 36.392C132.374 36.3316 132.029 36.1413 131.786 35.8441C131.146 35.0608 129.831 33.3693 128.888 31.6007C127.955 29.8519 127.287 27.8433 126.988 26.8628C126.87 26.4764 126.913 26.0616 127.095 25.7011L128.702 22.524C128.867 22.1984 129.136 21.9369 129.466 21.7811L142.337 15.6994Z" fill="url(#paint23_linear_2724_339)"/>
<path d="M142.337 15.6994C142.898 15.4346 143.559 15.5093 144.016 15.9281C145.05 16.8765 146.919 18.7873 148.246 21.2749C149.577 23.7718 150.123 26.398 150.333 27.7813C150.424 28.3862 150.126 28.9699 149.605 29.2908L137.5 36.7476C137.166 36.9535 136.769 37.0327 136.381 36.9708L132.753 36.392C132.374 36.3316 132.029 36.1413 131.786 35.8441C131.146 35.0608 129.831 33.3693 128.888 31.6007C127.955 29.8519 127.287 27.8433 126.988 26.8628C126.87 26.4764 126.913 26.0616 127.095 25.7011L128.702 22.524C128.867 22.1984 129.136 21.9369 129.466 21.7811L142.337 15.6994Z" fill="url(#paint24_linear_2724_339)"/>
<path d="M142.337 15.6994C142.898 15.4346 143.559 15.5093 144.016 15.9281C145.05 16.8765 146.919 18.7873 148.246 21.2749C149.577 23.7718 150.123 26.398 150.333 27.7813C150.424 28.3862 150.126 28.9699 149.605 29.2908L137.5 36.7476C137.166 36.9535 136.769 37.0327 136.381 36.9708L132.753 36.392C132.374 36.3316 132.029 36.1413 131.786 35.8441C131.146 35.0608 129.831 33.3693 128.888 31.6007C127.955 29.8519 127.287 27.8433 126.988 26.8628C126.87 26.4764 126.913 26.0616 127.095 25.7011L128.702 22.524C128.867 22.1984 129.136 21.9369 129.466 21.7811L142.337 15.6994Z" fill="url(#paint25_radial_2724_339)"/>
<path d="M142.337 15.6994C142.898 15.4346 143.559 15.5093 144.016 15.9281C145.05 16.8765 146.919 18.7873 148.246 21.2749C149.577 23.7718 150.123 26.398 150.333 27.7813C150.424 28.3862 150.126 28.9699 149.605 29.2908L137.5 36.7476C137.166 36.9535 136.769 37.0327 136.381 36.9708L132.753 36.392C132.374 36.3316 132.029 36.1413 131.786 35.8441C131.146 35.0608 129.831 33.3693 128.888 31.6007C127.955 29.8519 127.287 27.8433 126.988 26.8628C126.87 26.4764 126.913 26.0616 127.095 25.7011L128.702 22.524C128.867 22.1984 129.136 21.9369 129.466 21.7811L142.337 15.6994Z" fill="url(#paint26_radial_2724_339)"/>
<path d="M48.9732 96.9231C44.8769 96.9231 41.5385 93.7704 41.5385 89.8871C41.5385 86.0038 44.8769 82.8569 48.9732 82.8569C49.4116 82.8569 49.8501 82.8914 50.276 82.9662V61.4153C50.276 60.6213 50.9775 60 51.8418 60C51.8418 60 55.1302 60.0129 55.1302 60C59.4081 60.2129 65.2206 62.7385 67.8011 67.105C69.461 69.9125 70.507 74.6703 66.085 81.3841C65.7131 81.9484 64.9485 82.2213 64.2811 82.0169C63.5921 81.8213 63.1411 81.2172 63.185 80.5614C65.832 73.2205 62.9407 67.222 56.4079 65.7435V89.8871C56.4079 93.7647 53.0695 96.9231 48.9669 96.9231H48.9732Z" fill="#2F2DB0"/>
<path d="M48.9732 96.9231C44.8769 96.9231 41.5385 93.7704 41.5385 89.8871C41.5385 86.0038 44.8769 82.8569 48.9732 82.8569C49.4116 82.8569 49.8501 82.8914 50.276 82.9662V61.4153C50.276 60.6213 50.9775 60 51.8418 60C51.8418 60 55.1302 60.0129 55.1302 60C59.4081 60.2129 65.2206 62.7385 67.8011 67.105C69.461 69.9125 70.507 74.6703 66.085 81.3841C65.7131 81.9484 64.9485 82.2213 64.2811 82.0169C63.5921 81.8213 63.1411 81.2172 63.185 80.5614C65.832 73.2205 62.9407 67.222 56.4079 65.7435V89.8871C56.4079 93.7647 53.0695 96.9231 48.9669 96.9231H48.9732Z" fill="#7C7BE4"/>
<path d="M48.9732 96.9231C44.8769 96.9231 41.5385 93.7704 41.5385 89.8871C41.5385 86.0038 44.8769 82.8569 48.9732 82.8569C49.4116 82.8569 49.8501 82.8914 50.276 82.9662V61.4153C50.276 60.6213 50.9775 60 51.8418 60C51.8418 60 55.1302 60.0129 55.1302 60C59.4081 60.2129 65.2206 62.7385 67.8011 67.105C69.461 69.9125 70.507 74.6703 66.085 81.3841C65.7131 81.9484 64.9485 82.2213 64.2811 82.0169C63.5921 81.8213 63.1411 81.2172 63.185 80.5614C65.832 73.2205 62.9407 67.222 56.4079 65.7435V89.8871C56.4079 93.7647 53.0695 96.9231 48.9669 96.9231H48.9732Z" fill="url(#paint27_radial_2724_339)"/>
<path d="M48.9732 96.9231C44.8769 96.9231 41.5385 93.7704 41.5385 89.8871C41.5385 86.0038 44.8769 82.8569 48.9732 82.8569C49.4116 82.8569 49.8501 82.8914 50.276 82.9662V61.4153C50.276 60.6213 50.9775 60 51.8418 60C51.8418 60 55.1302 60.0129 55.1302 60C59.4081 60.2129 65.2206 62.7385 67.8011 67.105C69.461 69.9125 70.507 74.6703 66.085 81.3841C65.7131 81.9484 64.9485 82.2213 64.2811 82.0169C63.5921 81.8213 63.1411 81.2172 63.185 80.5614C65.832 73.2205 62.9407 67.222 56.4079 65.7435V89.8871C56.4079 93.7647 53.0695 96.9231 48.9669 96.9231H48.9732Z" fill="url(#paint28_radial_2724_339)"/>
<path d="M48.9732 96.9231C44.8769 96.9231 41.5385 93.7704 41.5385 89.8871C41.5385 86.0038 44.8769 82.8569 48.9732 82.8569C49.4116 82.8569 49.8501 82.8914 50.276 82.9662V61.4153C50.276 60.6213 50.9775 60 51.8418 60C51.8418 60 55.1302 60.0129 55.1302 60C59.4081 60.2129 65.2206 62.7385 67.8011 67.105C69.461 69.9125 70.507 74.6703 66.085 81.3841C65.7131 81.9484 64.9485 82.2213 64.2811 82.0169C63.5921 81.8213 63.1411 81.2172 63.185 80.5614C65.832 73.2205 62.9407 67.222 56.4079 65.7435V89.8871C56.4079 93.7647 53.0695 96.9231 48.9669 96.9231H48.9732Z" fill="url(#paint29_radial_2724_339)"/>
<path d="M196.666 87.6923C192.569 87.6923 189.231 84.5396 189.231 80.6563C189.231 76.773 192.569 73.6261 196.666 73.6261C197.104 73.6261 197.542 73.6606 197.968 73.7354V52.1845C197.968 51.3906 198.67 50.7692 199.534 50.7692C199.534 50.7692 202.822 50.7822 202.822 50.7692C207.1 50.9821 212.913 53.5077 215.493 57.8742C217.153 60.6817 218.199 65.4395 213.777 72.1533C213.405 72.7176 212.641 72.9905 211.973 72.7861C211.284 72.5905 210.833 71.9865 210.877 71.3306C213.524 63.9897 210.633 57.9912 204.1 56.5127V80.6563C204.1 84.5339 200.762 87.6923 196.659 87.6923H196.666Z" fill="#2F2DB0"/>
<path d="M196.666 87.6923C192.569 87.6923 189.231 84.5396 189.231 80.6563C189.231 76.773 192.569 73.6261 196.666 73.6261C197.104 73.6261 197.542 73.6606 197.968 73.7354V52.1845C197.968 51.3906 198.67 50.7692 199.534 50.7692C199.534 50.7692 202.822 50.7822 202.822 50.7692C207.1 50.9821 212.913 53.5077 215.493 57.8742C217.153 60.6817 218.199 65.4395 213.777 72.1533C213.405 72.7176 212.641 72.9905 211.973 72.7861C211.284 72.5905 210.833 71.9865 210.877 71.3306C213.524 63.9897 210.633 57.9912 204.1 56.5127V80.6563C204.1 84.5339 200.762 87.6923 196.659 87.6923H196.666Z" fill="#7C7BE4"/>
<path d="M196.666 87.6923C192.569 87.6923 189.231 84.5396 189.231 80.6563C189.231 76.773 192.569 73.6261 196.666 73.6261C197.104 73.6261 197.542 73.6606 197.968 73.7354V52.1845C197.968 51.3906 198.67 50.7692 199.534 50.7692C199.534 50.7692 202.822 50.7822 202.822 50.7692C207.1 50.9821 212.913 53.5077 215.493 57.8742C217.153 60.6817 218.199 65.4395 213.777 72.1533C213.405 72.7176 212.641 72.9905 211.973 72.7861C211.284 72.5905 210.833 71.9865 210.877 71.3306C213.524 63.9897 210.633 57.9912 204.1 56.5127V80.6563C204.1 84.5339 200.762 87.6923 196.659 87.6923H196.666Z" fill="url(#paint30_radial_2724_339)"/>
<path d="M196.666 87.6923C192.569 87.6923 189.231 84.5396 189.231 80.6563C189.231 76.773 192.569 73.6261 196.666 73.6261C197.104 73.6261 197.542 73.6606 197.968 73.7354V52.1845C197.968 51.3906 198.67 50.7692 199.534 50.7692C199.534 50.7692 202.822 50.7822 202.822 50.7692C207.1 50.9821 212.913 53.5077 215.493 57.8742C217.153 60.6817 218.199 65.4395 213.777 72.1533C213.405 72.7176 212.641 72.9905 211.973 72.7861C211.284 72.5905 210.833 71.9865 210.877 71.3306C213.524 63.9897 210.633 57.9912 204.1 56.5127V80.6563C204.1 84.5339 200.762 87.6923 196.659 87.6923H196.666Z" fill="url(#paint31_radial_2724_339)"/>
<path d="M196.666 87.6923C192.569 87.6923 189.231 84.5396 189.231 80.6563C189.231 76.773 192.569 73.6261 196.666 73.6261C197.104 73.6261 197.542 73.6606 197.968 73.7354V52.1845C197.968 51.3906 198.67 50.7692 199.534 50.7692C199.534 50.7692 202.822 50.7822 202.822 50.7692C207.1 50.9821 212.913 53.5077 215.493 57.8742C217.153 60.6817 218.199 65.4395 213.777 72.1533C213.405 72.7176 212.641 72.9905 211.973 72.7861C211.284 72.5905 210.833 71.9865 210.877 71.3306C213.524 63.9897 210.633 57.9912 204.1 56.5127V80.6563C204.1 84.5339 200.762 87.6923 196.659 87.6923H196.666Z" fill="url(#paint32_radial_2724_339)"/>
<path d="M25.0079 23.3651C25.007 22.9056 25.3414 22.5142 25.7954 22.4433L50.205 18.6298C50.7705 18.5415 51.2811 18.9794 51.2799 19.5517L51.2275 46.6036C51.2275 49.7585 48.7128 52.3284 45.6219 52.3298C42.5358 52.3284 40.0211 49.7632 40.0211 46.6036C40.0211 43.4432 42.5371 40.8821 45.6243 40.8821C45.9547 40.8821 46.2852 40.9101 46.6061 40.971V25.2421C46.6061 24.8584 46.2615 24.5665 45.883 24.6298L30.1865 27.2531C29.8873 27.3031 29.668 27.5621 29.668 27.8655V49.6584C29.668 52.8134 27.1533 55.3833 24.0624 55.3846C20.9763 55.3833 18.4615 52.818 18.4615 49.6584C18.4615 46.498 20.9776 43.9369 24.0648 43.9369C24.3952 43.9369 24.7256 43.965 25.0466 44.0259L25.0079 23.3651Z" fill="#2F2DB0"/>
<path d="M25.0079 23.3651C25.007 22.9056 25.3414 22.5142 25.7954 22.4433L50.205 18.6298C50.7705 18.5415 51.2811 18.9794 51.2799 19.5517L51.2275 46.6036C51.2275 49.7585 48.7128 52.3284 45.6219 52.3298C42.5358 52.3284 40.0211 49.7632 40.0211 46.6036C40.0211 43.4432 42.5371 40.8821 45.6243 40.8821C45.9547 40.8821 46.2852 40.9101 46.6061 40.971V25.2421C46.6061 24.8584 46.2615 24.5665 45.883 24.6298L30.1865 27.2531C29.8873 27.3031 29.668 27.5621 29.668 27.8655V49.6584C29.668 52.8134 27.1533 55.3833 24.0624 55.3846C20.9763 55.3833 18.4615 52.818 18.4615 49.6584C18.4615 46.498 20.9776 43.9369 24.0648 43.9369C24.3952 43.9369 24.7256 43.965 25.0466 44.0259L25.0079 23.3651Z" fill="url(#paint33_linear_2724_339)"/>
<path d="M25.0079 23.3651C25.007 22.9056 25.3414 22.5142 25.7954 22.4433L50.205 18.6298C50.7705 18.5415 51.2811 18.9794 51.2799 19.5517L51.2275 46.6036C51.2275 49.7585 48.7128 52.3284 45.6219 52.3298C42.5358 52.3284 40.0211 49.7632 40.0211 46.6036C40.0211 43.4432 42.5371 40.8821 45.6243 40.8821C45.9547 40.8821 46.2852 40.9101 46.6061 40.971V25.2421C46.6061 24.8584 46.2615 24.5665 45.883 24.6298L30.1865 27.2531C29.8873 27.3031 29.668 27.5621 29.668 27.8655V49.6584C29.668 52.8134 27.1533 55.3833 24.0624 55.3846C20.9763 55.3833 18.4615 52.818 18.4615 49.6584C18.4615 46.498 20.9776 43.9369 24.0648 43.9369C24.3952 43.9369 24.7256 43.965 25.0466 44.0259L25.0079 23.3651Z" fill="url(#paint34_radial_2724_339)"/>
<path d="M25.0079 23.3651C25.007 22.9056 25.3414 22.5142 25.7954 22.4433L50.205 18.6298C50.7705 18.5415 51.2811 18.9794 51.2799 19.5517L51.2275 46.6036C51.2275 49.7585 48.7128 52.3284 45.6219 52.3298C42.5358 52.3284 40.0211 49.7632 40.0211 46.6036C40.0211 43.4432 42.5371 40.8821 45.6243 40.8821C45.9547 40.8821 46.2852 40.9101 46.6061 40.971V25.2421C46.6061 24.8584 46.2615 24.5665 45.883 24.6298L30.1865 27.2531C29.8873 27.3031 29.668 27.5621 29.668 27.8655V49.6584C29.668 52.8134 27.1533 55.3833 24.0624 55.3846C20.9763 55.3833 18.4615 52.818 18.4615 49.6584C18.4615 46.498 20.9776 43.9369 24.0648 43.9369C24.3952 43.9369 24.7256 43.965 25.0466 44.0259L25.0079 23.3651Z" fill="url(#paint35_radial_2724_339)"/>
<path d="M25.0079 23.3651C25.007 22.9056 25.3414 22.5142 25.7954 22.4433L50.205 18.6298C50.7705 18.5415 51.2811 18.9794 51.2799 19.5517L51.2275 46.6036C51.2275 49.7585 48.7128 52.3284 45.6219 52.3298C42.5358 52.3284 40.0211 49.7632 40.0211 46.6036C40.0211 43.4432 42.5371 40.8821 45.6243 40.8821C45.9547 40.8821 46.2852 40.9101 46.6061 40.971V25.2421C46.6061 24.8584 46.2615 24.5665 45.883 24.6298L30.1865 27.2531C29.8873 27.3031 29.668 27.5621 29.668 27.8655V49.6584C29.668 52.8134 27.1533 55.3833 24.0624 55.3846C20.9763 55.3833 18.4615 52.818 18.4615 49.6584C18.4615 46.498 20.9776 43.9369 24.0648 43.9369C24.3952 43.9369 24.7256 43.965 25.0466 44.0259L25.0079 23.3651Z" fill="url(#paint36_radial_2724_339)"/>
<path d="M25.0079 23.3651C25.007 22.9056 25.3414 22.5142 25.7954 22.4433L50.205 18.6298C50.7705 18.5415 51.2811 18.9794 51.2799 19.5517L51.2275 46.6036C51.2275 49.7585 48.7128 52.3284 45.6219 52.3298C42.5358 52.3284 40.0211 49.7632 40.0211 46.6036C40.0211 43.4432 42.5371 40.8821 45.6243 40.8821C45.9547 40.8821 46.2852 40.9101 46.6061 40.971V25.2421C46.6061 24.8584 46.2615 24.5665 45.883 24.6298L30.1865 27.2531C29.8873 27.3031 29.668 27.5621 29.668 27.8655V49.6584C29.668 52.8134 27.1533 55.3833 24.0624 55.3846C20.9763 55.3833 18.4615 52.818 18.4615 49.6584C18.4615 46.498 20.9776 43.9369 24.0648 43.9369C24.3952 43.9369 24.7256 43.965 25.0466 44.0259L25.0079 23.3651Z" fill="url(#paint37_radial_2724_339)"/>
<path d="M25.0079 23.3651C25.007 22.9056 25.3414 22.5142 25.7954 22.4433L50.205 18.6298C50.7705 18.5415 51.2811 18.9794 51.2799 19.5517L51.2275 46.6036C51.2275 49.7585 48.7128 52.3284 45.6219 52.3298C42.5358 52.3284 40.0211 49.7632 40.0211 46.6036C40.0211 43.4432 42.5371 40.8821 45.6243 40.8821C45.9547 40.8821 46.2852 40.9101 46.6061 40.971V25.2421C46.6061 24.8584 46.2615 24.5665 45.883 24.6298L30.1865 27.2531C29.8873 27.3031 29.668 27.5621 29.668 27.8655V49.6584C29.668 52.8134 27.1533 55.3833 24.0624 55.3846C20.9763 55.3833 18.4615 52.818 18.4615 49.6584C18.4615 46.498 20.9776 43.9369 24.0648 43.9369C24.3952 43.9369 24.7256 43.965 25.0466 44.0259L25.0079 23.3651Z" fill="url(#paint38_linear_2724_339)"/>
<defs>
<radialGradient id="paint0_radial_2724_339" cx="0" cy="0" r="1" gradientUnits="userSpaceOnUse" gradientTransform="translate(32.3074 16.1538) rotate(43.8309) scale(79.9741 107.894)">
<stop offset="0.321191" stop-color="#FF76D0" stop-opacity="0.69"/>
<stop offset="1" stop-color="#FFBDFB" stop-opacity="0"/>
</radialGradient>
<radialGradient id="paint1_radial_2724_339" cx="0" cy="0" r="1" gradientUnits="userSpaceOnUse" gradientTransform="translate(73.6104 4.61541) rotate(69.4765) scale(86.2432 116.352)">
<stop offset="0.35168" stop-color="#C48CF0" stop-opacity="0.67"/>
<stop offset="1" stop-color="#FFAAFA" stop-opacity="0"/>
</radialGradient>
<radialGradient id="paint2_radial_2724_339" cx="0" cy="0" r="1" gradientUnits="userSpaceOnUse" gradientTransform="translate(217.9 7.33236) rotate(124.553) scale(111.581 150.133)">
<stop offset="0.128569" stop-color="#C48CF0"/>
<stop offset="1" stop-color="#FF9CF9" stop-opacity="0"/>
</radialGradient>
<radialGradient id="paint3_radial_2724_339" cx="0" cy="0" r="1" gradientUnits="userSpaceOnUse" gradientTransform="translate(217.9 7.33515) rotate(124.553) scale(111.581 150.133)">
<stop offset="0.128569" stop-color="#EC36AE"/>
<stop offset="1" stop-color="#FF50F5" stop-opacity="0"/>
</radialGradient>
<radialGradient id="paint4_radial_2724_339" cx="0" cy="0" r="1" gradientUnits="userSpaceOnUse" gradientTransform="translate(217.9 7.33515) rotate(124.553) scale(111.581 150.133)">
<stop offset="0.128569" stop-color="#FF64CA"/>
<stop offset="1" stop-color="#FFAAFA" stop-opacity="0"/>
</radialGradient>
<linearGradient id="paint5_linear_2724_339" x1="75.1692" y1="99.7008" x2="161.538" y2="99.7555" gradientUnits="userSpaceOnUse">
<stop offset="0.0681247" stop-color="#3F34BB"/>
<stop offset="0.345333" stop-color="#6073FF"/>
<stop offset="0.622554" stop-color="#8190FF"/>
<stop offset="0.80623" stop-color="#6477FF"/>
<stop offset="0.956534" stop-color="#4339B1"/>
</linearGradient>
<linearGradient id="paint6_linear_2724_339" x1="75.1692" y1="99.7008" x2="161.538" y2="99.7555" gradientUnits="userSpaceOnUse">
<stop offset="0.0681247" stop-color="#6B5EFC"/>
<stop offset="0.345333" stop-color="#8795FF"/>
<stop offset="0.622554" stop-color="#A0ABFF"/>
<stop offset="0.80623" stop-color="#8D9BFF"/>
<stop offset="0.956534" stop-color="#6357EC"/>
</linearGradient>
<linearGradient id="paint7_linear_2724_339" x1="86.9712" y1="85.3846" x2="144.515" y2="79.0718" gradientUnits="userSpaceOnUse">
<stop stop-color="#6660FF"/>
<stop offset="1" stop-color="#8F9CFA"/>
</linearGradient>
<linearGradient id="paint8_linear_2724_339" x1="86.9712" y1="85.3846" x2="144.515" y2="79.0718" gradientUnits="userSpaceOnUse">
<stop stop-color="#9980FF"/>
<stop offset="1" stop-color="#CAA1FF"/>
</linearGradient>
<radialGradient id="paint9_radial_2724_339" cx="0" cy="0" r="1" gradientUnits="userSpaceOnUse" gradientTransform="translate(101.106 85.3846) rotate(-5.95536) scale(40.3137 17.3802)">
<stop stop-color="#BAE6FF"/>
<stop offset="0.444063" stop-color="#74BCFF" stop-opacity="0.1"/>
</radialGradient>
<radialGradient id="paint10_radial_2724_339" cx="0" cy="0" r="1" gradientUnits="userSpaceOnUse" gradientTransform="translate(130.817 93.3173) rotate(-24.9903) scale(37.5543 16.1905)">
<stop offset="0.209063" stop-color="#C0BAFF"/>
<stop offset="1" stop-color="#747AFF" stop-opacity="0.1"/>
</radialGradient>
<linearGradient id="paint11_linear_2724_339" x1="91.8414" y1="84.9121" x2="130.369" y2="54.924" gradientUnits="userSpaceOnUse">
<stop stop-color="#1F4357"/>
<stop offset="0.772185" stop-color="#52AFFF"/>
</linearGradient>
<radialGradient id="paint12_radial_2724_339" cx="0" cy="0" r="1" gradientUnits="userSpaceOnUse" gradientTransform="translate(128.778 80.9426) rotate(-179.678) scale(36.4075 6.61086)">
<stop offset="0.140512" stop-color="#ADE2FF"/>
<stop offset="0.914501" stop-color="#1E3532" stop-opacity="0"/>
</radialGradient>
<linearGradient id="paint13_linear_2724_339" x1="115.866" y1="55.2651" x2="127.811" y2="54.8727" gradientUnits="userSpaceOnUse">
<stop stop-color="#577484"/>
<stop offset="0.772185" stop-color="#668FB4"/>
</linearGradient>
<radialGradient id="paint14_radial_2724_339" cx="0" cy="0" r="1" gradientUnits="userSpaceOnUse" gradientTransform="translate(123.005 37.0907) rotate(90) scale(66.9824 2.2639)">
<stop stop-color="#D5F0FF"/>
<stop offset="0.790429" stop-color="#D0EEFF" stop-opacity="0"/>
</radialGradient>
<linearGradient id="paint15_linear_2724_339" x1="101.073" y1="39.4383" x2="108.031" y2="50.4386" gradientUnits="userSpaceOnUse">
<stop stop-color="#9AB7E3"/>
<stop offset="0.772185" stop-color="#4E6D84"/>
</linearGradient>
<radialGradient id="paint16_radial_2724_339" cx="0" cy="0" r="1" gradientUnits="userSpaceOnUse" gradientTransform="translate(112.505 42.1713) rotate(151.924) scale(32.4347 2.12225)">
<stop stop-color="#ACE1FF"/>
<stop offset="0.795788" stop-color="#B1E3FF" stop-opacity="0"/>
</radialGradient>
<radialGradient id="paint17_radial_2724_339" cx="0" cy="0" r="1" gradientUnits="userSpaceOnUse" gradientTransform="translate(104.531 44.9456) rotate(147.653) scale(2.56086 4.37107)">
<stop stop-color="#46607F"/>
<stop offset="1" stop-color="#1F3444" stop-opacity="0"/>
</radialGradient>
<linearGradient id="paint18_linear_2724_339" x1="115.342" y1="28.8888" x2="124.018" y2="45.1541" gradientUnits="userSpaceOnUse">
<stop offset="0.144684" stop-color="#647887"/>
<stop offset="0.772185" stop-color="#97D2F2"/>
</linearGradient>
<radialGradient id="paint19_radial_2724_339" cx="0" cy="0" r="1" gradientUnits="userSpaceOnUse" gradientTransform="translate(131.489 32.7491) rotate(151.924) scale(45.8127 3.49009)">
<stop stop-color="#C8ECFF"/>
<stop offset="0.709063" stop-color="#CFEEFF" stop-opacity="0"/>
</radialGradient>
<radialGradient id="paint20_radial_2724_339" cx="0" cy="0" r="1" gradientUnits="userSpaceOnUse" gradientTransform="translate(130.486 30.8675) rotate(-118.076) scale(8.18528 3.30287)">
<stop offset="0.293499" stop-color="#0E3B70"/>
<stop offset="1" stop-color="#0D1319" stop-opacity="0"/>
</radialGradient>
<radialGradient id="paint21_radial_2724_339" cx="0" cy="0" r="1" gradientUnits="userSpaceOnUse" gradientTransform="translate(131.238 23.4465) rotate(152.11) scale(37.7414 25.3565)">
<stop offset="0.0903226" stop-color="#466576"/>
<stop offset="1" stop-color="#56869B" stop-opacity="0"/>
</radialGradient>
<radialGradient id="paint22_radial_2724_339" cx="0" cy="0" r="1" gradientUnits="userSpaceOnUse" gradientTransform="translate(141.057 24.4651) rotate(-118.076) scale(17.9718 12.3791)">
<stop offset="0.763441" stop-color="#6894C8" stop-opacity="0"/>
<stop offset="0.96875" stop-color="#5883AB"/>
</radialGradient>
<linearGradient id="paint23_linear_2724_339" x1="142.285" y1="29.3022" x2="144.769" y2="33.2567" gradientUnits="userSpaceOnUse">
<stop offset="0.598" stop-color="#A8CFE0" stop-opacity="0"/>
<stop offset="0.860024" stop-color="#91B8CF"/>
</linearGradient>
<linearGradient id="paint24_linear_2724_339" x1="134.835" y1="33.6931" x2="134.212" y2="37.1819" gradientUnits="userSpaceOnUse">
<stop offset="0.598" stop-color="#60A5C3" stop-opacity="0"/>
<stop offset="0.860024" stop-color="#5C93BB"/>
</linearGradient>
<radialGradient id="paint25_radial_2724_339" cx="0" cy="0" r="1" gradientUnits="userSpaceOnUse" gradientTransform="translate(137.664 27.0399) rotate(-118.076) scale(19.1372 13.1818)">
<stop offset="0.791667" stop-color="#78928D" stop-opacity="0"/>
<stop offset="0.919872" stop-color="#78928D"/>
</radialGradient>
<radialGradient id="paint26_radial_2724_339" cx="0" cy="0" r="1" gradientUnits="userSpaceOnUse" gradientTransform="translate(144.068 21.3509) rotate(57.5288) scale(8.50867 19.2196)">
<stop stop-color="#CFEDFD" stop-opacity="0.77"/>
<stop offset="0.7" stop-color="#E4F2FF" stop-opacity="0.1"/>
</radialGradient>
<radialGradient id="paint27_radial_2724_339" cx="0" cy="0" r="1" gradientUnits="userSpaceOnUse" gradientTransform="translate(45.4408 88.2082) rotate(41.5448) scale(8.43898 7.58004)">
<stop stop-color="#F5CDFF"/>
<stop offset="1" stop-color="white" stop-opacity="0"/>
</radialGradient>
<radialGradient id="paint28_radial_2724_339" cx="0" cy="0" r="1" gradientUnits="userSpaceOnUse" gradientTransform="translate(51.7551 65.6305) scale(4.08666 22.4045)">
<stop stop-color="#CDD8FF"/>
<stop offset="1" stop-color="#DACDFF" stop-opacity="0"/>
</radialGradient>
<radialGradient id="paint29_radial_2724_339" cx="0" cy="0" r="1" gradientUnits="userSpaceOnUse" gradientTransform="translate(64.0151 61.8768) rotate(145.438) scale(9.92497 21.8071)">
<stop stop-color="#CDD8FF"/>
<stop offset="0.905" stop-color="#DACDFF" stop-opacity="0"/>
</radialGradient>
<radialGradient id="paint30_radial_2724_339" cx="0" cy="0" r="1" gradientUnits="userSpaceOnUse" gradientTransform="translate(193.133 78.9774) rotate(41.5448) scale(8.43898 7.58004)">
<stop stop-color="#CDD8FF"/>
<stop offset="1" stop-color="white" stop-opacity="0"/>
</radialGradient>
<radialGradient id="paint31_radial_2724_339" cx="0" cy="0" r="1" gradientUnits="userSpaceOnUse" gradientTransform="translate(199.447 56.3997) scale(4.08666 22.4045)">
<stop stop-color="#CDD8FF"/>
<stop offset="1" stop-color="#DACDFF" stop-opacity="0"/>
</radialGradient>
<radialGradient id="paint32_radial_2724_339" cx="0" cy="0" r="1" gradientUnits="userSpaceOnUse" gradientTransform="translate(211.707 52.646) rotate(145.438) scale(9.92497 21.8071)">
<stop stop-color="#CDD8FF"/>
<stop offset="0.905" stop-color="#DACDFF" stop-opacity="0"/>
</radialGradient>
<linearGradient id="paint33_linear_2724_339" x1="12.4039" y1="50.4808" x2="68.6539" y2="27.1154" gradientUnits="userSpaceOnUse">
<stop stop-color="#B573E9"/>
<stop offset="0.660043" stop-color="#7B98FF"/>
</linearGradient>
<radialGradient id="paint34_radial_2724_339" cx="0" cy="0" r="1" gradientUnits="userSpaceOnUse" gradientTransform="translate(21.4452 48.1511) rotate(-15.9085) scale(8.70704 6.29299)">
<stop stop-color="#CDD8FF"/>
<stop offset="1" stop-color="white" stop-opacity="0"/>
</radialGradient>
<radialGradient id="paint35_radial_2724_339" cx="0" cy="0" r="1" gradientUnits="userSpaceOnUse" gradientTransform="translate(43.0047 45.4781) rotate(-22.4016) scale(8.01601 5.80023)">
<stop stop-color="#CDD8FF"/>
<stop offset="1" stop-color="white" stop-opacity="0"/>
</radialGradient>
<radialGradient id="paint36_radial_2724_339" cx="0" cy="0" r="1" gradientUnits="userSpaceOnUse" gradientTransform="translate(25.6801 32.5903) rotate(90) scale(14.988 3.37428)">
<stop stop-color="#CDD8FF" stop-opacity="0.8"/>
<stop offset="1" stop-color="#DACDFF" stop-opacity="0"/>
</radialGradient>
<radialGradient id="paint37_radial_2724_339" cx="0" cy="0" r="1" gradientUnits="userSpaceOnUse" gradientTransform="translate(46.1809 35.7407) scale(4.04241 17.0478)">
<stop stop-color="#CDD8FF"/>
<stop offset="0.809524" stop-color="#DACDFF" stop-opacity="0"/>
</radialGradient>
<linearGradient id="paint38_linear_2724_339" x1="38.7698" y1="19.3207" x2="39.8118" y2="26.1013" gradientUnits="userSpaceOnUse">
<stop offset="0.204671" stop-color="#CDD8FF"/>
<stop offset="0.556642" stop-color="#DACDFF" stop-opacity="0"/>
</linearGradient>
</defs>
</svg>
