<svg viewBox="0 0 240 120" fill="none" xmlns="http://www.w3.org/2000/svg">
<path d="M240 79.3268C133.846 79.3268 37.3062 95.3369 7.50004 120H240L240 79.3268Z" fill="url(#paint0_radial_1379_4760)"/>
<path d="M240 79.3268C133.846 79.3268 37.3062 95.3369 7.50004 120H240L240 79.3268Z" fill="url(#paint1_radial_1379_4760)"/>
<path d="M176.083 46.5617C182.628 44.6423 192.767 42.4276 198.821 33.1256C204.712 24.0723 199.415 8.86489 176.667 8.05858C175.946 8.03295 175.612 8.55519 176.35 9.08758C188.515 17.876 183.317 31.5866 168.996 40.8034L176.083 46.5617Z" fill="#CC8E66"/>
<path d="M176.083 46.5617C182.628 44.6423 192.767 42.4276 198.821 33.1256C204.712 24.0723 199.415 8.86489 176.667 8.05858C175.946 8.03295 175.612 8.55519 176.35 9.08758C188.515 17.876 183.317 31.5866 168.996 40.8034L176.083 46.5617Z" fill="url(#paint2_radial_1379_4760)"/>
<path d="M176.083 46.5617C182.628 44.6423 192.767 42.4276 198.821 33.1256C204.712 24.0723 199.415 8.86489 176.667 8.05858C175.946 8.03295 175.612 8.55519 176.35 9.08758C188.515 17.876 183.317 31.5866 168.996 40.8034L176.083 46.5617Z" fill="url(#paint3_radial_1379_4760)"/>
<path d="M69.3766 108.693C107.625 123.066 171.349 107.108 84.3735 103.738L69.3766 108.693Z" fill="url(#paint4_radial_1379_4760)"/>
<path fill-rule="evenodd" clip-rule="evenodd" d="M240 93.2167C227.258 89.0674 197.838 85.3806 145.034 83.7935C131.051 85.1669 117.669 86.84 105.072 88.7892L79.6222 97.0721C138.008 115.766 215.545 112.181 240 103.952L240 93.2167Z" fill="url(#paint5_radial_1379_4760)"/>
<path d="M74.5002 100.287C75.7995 98.0876 75.6322 94.6862 75.3861 93.2605L85.869 91.7329C87.0994 95.9592 88.4971 105.084 84.2448 107.772C79.9926 110.461 72.4331 109.707 69.1849 108.994C68.5943 103.801 72.8761 103.037 74.5002 100.287Z" fill="url(#paint6_radial_1379_4760)"/>
<path d="M74.5002 100.287C75.7995 98.0876 75.6322 94.6862 75.3861 93.2605L85.869 91.7329C87.0994 95.9592 88.4971 105.084 84.2448 107.772C79.9926 110.461 72.4331 109.707 69.1849 108.994C68.5943 103.801 72.8761 103.037 74.5002 100.287Z" fill="url(#paint7_radial_1379_4760)"/>
<path d="M74.5002 100.287C75.7995 98.0876 75.6322 94.6862 75.3861 93.2605L85.869 91.7329C87.0994 95.9592 88.4971 105.084 84.2448 107.772C79.9926 110.461 72.4331 109.707 69.1849 108.994C68.5943 103.801 72.8761 103.037 74.5002 100.287Z" fill="url(#paint8_radial_1379_4760)"/>
<path d="M74.5002 100.287C75.7995 98.0876 75.6322 94.6862 75.3861 93.2605L85.869 91.7329C87.0994 95.9592 88.4971 105.084 84.2448 107.772C79.9926 110.461 72.4331 109.707 69.1849 108.994C68.5943 103.801 72.8761 103.037 74.5002 100.287Z" fill="url(#paint9_radial_1379_4760)"/>
<path d="M145.081 90.2776C178.624 102.882 234.508 88.8872 158.233 85.932L145.081 90.2776Z" fill="url(#paint10_radial_1379_4760)"/>
<path d="M152.018 78.6333L152.015 78.601L159.25 74.6145L162.941 78.601C162.548 81.2587 161.258 87.1941 159.25 89.6746C156.74 92.7752 144.781 92.037 144.781 89.6746C144.781 87.3123 148.767 83.3258 150.834 84.064C152.481 84.6521 152.215 81.1895 152.018 78.6333Z" fill="url(#paint11_radial_1379_4760)"/>
<path d="M152.018 78.6333L152.015 78.601L159.25 74.6145L162.941 78.601C162.548 81.2587 161.258 87.1941 159.25 89.6746C156.74 92.7752 144.781 92.037 144.781 89.6746C144.781 87.3123 148.767 83.3258 150.834 84.064C152.481 84.6521 152.215 81.1895 152.018 78.6333Z" fill="url(#paint12_radial_1379_4760)"/>
<path d="M152.018 78.6333L152.015 78.601L159.25 74.6145L162.941 78.601C162.548 81.2587 161.258 87.1941 159.25 89.6746C156.74 92.7752 144.781 92.037 144.781 89.6746C144.781 87.3123 148.767 83.3258 150.834 84.064C152.481 84.6521 152.215 81.1895 152.018 78.6333Z" fill="url(#paint13_radial_1379_4760)"/>
<path d="M152.018 78.6333L152.015 78.601L159.25 74.6145L162.941 78.601C162.548 81.2587 161.258 87.1941 159.25 89.6746C156.74 92.7752 144.781 92.037 144.781 89.6746C144.781 87.3123 148.767 83.3258 150.834 84.064C152.481 84.6521 152.215 81.1895 152.018 78.6333Z" fill="url(#paint14_radial_1379_4760)"/>
<path d="M113.183 43.9034C109.64 44.494 103.882 41.3934 94.5797 42.427C84.2443 48.1361 63.5148 55.4202 61.5068 68.4132C58.9968 84.6545 78.486 101.929 93.5462 94.5469C94.9735 99.3701 96.9716 107.008 93.5462 107.245C89.2644 107.54 86.7544 114.627 87.9356 115.365C89.1167 116.104 94.5798 116.251 96.3516 116.104C98.1234 115.956 104.915 114.479 105.801 111.231C106.51 108.633 109.541 96.8601 110.969 91.2987C124.08 94.8422 144.731 83.8917 155.411 77.9365C157.478 81.923 170.176 86.131 173.867 83.7686C175.393 86.82 176.347 93.2181 173.867 93.2181C171.386 93.2181 171.259 97.1062 171.505 99.124C172.144 99.5177 175.757 100.128 179.182 100.01C182.608 99.8918 185.039 98.4842 185.826 97.7952C185.876 96.0234 186.86 93.8087 185.826 92.1846C184.793 90.5604 183.169 88.1981 181.397 82.7351C179.625 77.2721 185.679 64.8697 182.135 51.5814C178.592 38.293 157.626 37.85 150.096 37.4071C142.565 36.9641 116.727 43.3129 113.183 43.9034Z" fill="url(#paint15_linear_1379_4760)"/>
<path d="M113.183 43.9034C109.64 44.494 103.882 41.3934 94.5797 42.427C84.2443 48.1361 63.5148 55.4202 61.5068 68.4132C58.9968 84.6545 78.486 101.929 93.5462 94.5469C94.9735 99.3701 96.9716 107.008 93.5462 107.245C89.2644 107.54 86.7544 114.627 87.9356 115.365C89.1167 116.104 94.5798 116.251 96.3516 116.104C98.1234 115.956 104.915 114.479 105.801 111.231C106.51 108.633 109.541 96.8601 110.969 91.2987C124.08 94.8422 144.731 83.8917 155.411 77.9365C157.478 81.923 170.176 86.131 173.867 83.7686C175.393 86.82 176.347 93.2181 173.867 93.2181C171.386 93.2181 171.259 97.1062 171.505 99.124C172.144 99.5177 175.757 100.128 179.182 100.01C182.608 99.8918 185.039 98.4842 185.826 97.7952C185.876 96.0234 186.86 93.8087 185.826 92.1846C184.793 90.5604 183.169 88.1981 181.397 82.7351C179.625 77.2721 185.679 64.8697 182.135 51.5814C178.592 38.293 157.626 37.85 150.096 37.4071C142.565 36.9641 116.727 43.3129 113.183 43.9034Z" fill="url(#paint16_radial_1379_4760)"/>
<path d="M113.183 43.9034C109.64 44.494 103.882 41.3934 94.5797 42.427C84.2443 48.1361 63.5148 55.4202 61.5068 68.4132C58.9968 84.6545 78.486 101.929 93.5462 94.5469C94.9735 99.3701 96.9716 107.008 93.5462 107.245C89.2644 107.54 86.7544 114.627 87.9356 115.365C89.1167 116.104 94.5798 116.251 96.3516 116.104C98.1234 115.956 104.915 114.479 105.801 111.231C106.51 108.633 109.541 96.8601 110.969 91.2987C124.08 94.8422 144.731 83.8917 155.411 77.9365C157.478 81.923 170.176 86.131 173.867 83.7686C175.393 86.82 176.347 93.2181 173.867 93.2181C171.386 93.2181 171.259 97.1062 171.505 99.124C172.144 99.5177 175.757 100.128 179.182 100.01C182.608 99.8918 185.039 98.4842 185.826 97.7952C185.876 96.0234 186.86 93.8087 185.826 92.1846C184.793 90.5604 183.169 88.1981 181.397 82.7351C179.625 77.2721 185.679 64.8697 182.135 51.5814C178.592 38.293 157.626 37.85 150.096 37.4071C142.565 36.9641 116.727 43.3129 113.183 43.9034Z" fill="url(#paint17_radial_1379_4760)"/>
<path fill-rule="evenodd" clip-rule="evenodd" d="M111.168 91.3516C111.668 88.9856 112.663 86.5979 113.755 83.979C116.376 77.6927 119.553 70.0742 117.761 58.2256C116.726 51.3826 114.929 46.8688 112.04 43.9776C110.838 43.955 109.424 43.6711 107.764 43.3375C104.449 42.6718 100.15 41.8082 94.5796 42.4271C92.6093 43.5155 90.2611 44.6612 87.737 45.8927C77.0208 51.1211 63.132 57.8974 61.5068 68.4134C58.9968 84.6547 78.486 101.929 93.5461 94.5471C94.9734 99.3703 96.9715 107.009 93.5461 107.245C89.2643 107.54 86.7543 114.627 87.9355 115.365C88.6038 115.783 90.6432 116.012 92.609 116.105L99.7264 115.401C102.263 114.656 105.235 113.305 105.801 111.231C106.51 108.633 109.541 96.8602 110.969 91.2988C111.035 91.3168 111.101 91.3344 111.168 91.3516Z" fill="url(#paint18_radial_1379_4760)"/>
<path fill-rule="evenodd" clip-rule="evenodd" d="M93.5237 94.5586C92.4245 86.9893 90.1314 73.9513 78.7816 67.6756C73.3307 64.6616 66.9947 65.8923 61.4988 68.4662C59.0397 84.6841 78.4828 101.905 93.5237 94.5586Z" fill="url(#paint19_radial_1379_4760)"/>
<path fill-rule="evenodd" clip-rule="evenodd" d="M93.5237 94.5586C92.4245 86.9893 90.1314 73.9513 78.7816 67.6756C73.3307 64.6616 66.9947 65.8923 61.4988 68.4662C59.0397 84.6841 78.4828 101.905 93.5237 94.5586Z" fill="url(#paint20_radial_1379_4760)"/>
<path fill-rule="evenodd" clip-rule="evenodd" d="M93.5237 94.5586C92.4245 86.9893 90.1314 73.9513 78.7816 67.6756C73.3307 64.6616 66.9947 65.8923 61.4988 68.4662C59.0397 84.6841 78.4828 101.905 93.5237 94.5586Z" fill="url(#paint21_radial_1379_4760)"/>
<path d="M69.185 77.789C64.2076 77.1381 49.6578 67.5295 49.5478 57.0444C64.6079 43.9778 81.5874 35.7833 96.205 41.9822C97.3862 44.5906 98.3548 57.0444 96.205 63.7625C92.6615 74.8361 74.1624 78.4399 69.185 77.789Z" fill="url(#paint22_radial_1379_4760)"/>
<path d="M69.185 77.789C64.2076 77.1381 49.6578 67.5295 49.5478 57.0444C64.6079 43.9778 81.5874 35.7833 96.205 41.9822C97.3862 44.5906 98.3548 57.0444 96.205 63.7625C92.6615 74.8361 74.1624 78.4399 69.185 77.789Z" fill="url(#paint23_radial_1379_4760)"/>
<path d="M69.185 77.789C64.2076 77.1381 49.6578 67.5295 49.5478 57.0444C64.6079 43.9778 81.5874 35.7833 96.205 41.9822C97.3862 44.5906 98.3548 57.0444 96.205 63.7625C92.6615 74.8361 74.1624 78.4399 69.185 77.789Z" fill="url(#paint24_radial_1379_4760)"/>
<path d="M85.8697 59.2595C85.8697 57.1925 87.198 55.051 85.5 52.7625L81.2921 65.2393L82.3256 70.9976C83.1871 70.973 84.8805 70.2594 84.7623 67.6017C84.6147 64.2796 85.8697 61.3266 85.8697 59.2595Z" fill="#412321"/>
<path d="M70.2204 66.6195C69.2546 65.3575 67.281 64.7947 67.4555 62.4456L76.3677 67.7042L78.3011 71.7992C77.6586 72.2671 76.0847 72.7807 74.9294 71.0919C73.4854 68.9809 71.1863 67.8816 70.2204 66.6195Z" fill="#412321"/>
<path d="M75.0183 66.4941C77.8412 64.0704 85.0134 60.4511 83.8291 64.2652C82.4997 68.547 90.3607 79.6881 83.2006 80.9493C76.0406 82.2104 74.2059 71.8837 75.0183 66.4941Z" fill="url(#paint25_radial_1379_4760)"/>
<path d="M75.0183 66.4941C77.8412 64.0704 85.0134 60.4511 83.8291 64.2652C82.4997 68.547 90.3607 79.6881 83.2006 80.9493C76.0406 82.2104 74.2059 71.8837 75.0183 66.4941Z" fill="url(#paint26_radial_1379_4760)"/>
<path d="M75.0183 66.4941C77.8412 64.0704 85.0134 60.4511 83.8291 64.2652C82.4997 68.547 90.3607 79.6881 83.2006 80.9493C76.0406 82.2104 74.2059 71.8837 75.0183 66.4941Z" fill="url(#paint27_radial_1379_4760)"/>
<path d="M75.0183 66.4941C77.8412 64.0704 85.0134 60.4511 83.8291 64.2652C82.4997 68.547 90.3607 79.6881 83.2006 80.9493C76.0406 82.2104 74.2059 71.8837 75.0183 66.4941Z" fill="url(#paint28_radial_1379_4760)"/>
<path d="M85.0554 60.4774C84.7813 63.0073 84.3756 64.8003 80.1109 65.8297C79.127 66.0672 78.2278 66.3621 77.3918 66.6363C74.0253 67.7404 71.8312 69.0981 69.1108 64.4262C65.9791 59.0477 53.6179 53.2298 50.0346 52.2414C60.5476 49.2193 82.5471 39.9913 91.4282 36.2289C86.7401 44.0149 85.9963 51.7948 85.0554 60.4774Z" fill="url(#paint29_radial_1379_4760)"/>
<path d="M72.0661 63.6146C71.1802 62.5811 70.663 59.3326 75.2397 57.5609C79.8165 55.7892 80.9987 59.0376 81.0725 60.2187C81.1464 61.3999 80.1121 64.7969 77.6015 65.3864C75.0909 65.9759 72.952 64.6481 72.0661 63.6146Z" fill="url(#paint30_radial_1379_4760)"/>
<path d="M71.9914 25.3003L89.783 35.488C94.5078 26.7774 90.2998 4.18589 83.8033 4.03825C77.3429 3.89142 73.3893 19.7079 72.0142 25.2091L71.9914 25.3003Z" fill="url(#paint31_radial_1379_4760)"/>
<path d="M71.9914 25.3003L89.783 35.488C94.5078 26.7774 90.2998 4.18589 83.8033 4.03825C77.3429 3.89142 73.3893 19.7079 72.0142 25.2091L71.9914 25.3003Z" fill="url(#paint32_radial_1379_4760)"/>
<path d="M56.9309 31.9439L52.0595 51.5795C43.4959 50.8413 30.1076 29.6633 33.4054 24.8239C36.7031 19.9845 54.8632 28.4015 56.9309 31.9439Z" fill="url(#paint33_radial_1379_4760)"/>
<path d="M56.9309 31.9439L52.0595 51.5795C43.4959 50.8413 30.1076 29.6633 33.4054 24.8239C36.7031 19.9845 54.8632 28.4015 56.9309 31.9439Z" fill="url(#paint34_radial_1379_4760)"/>
<path d="M68.1518 60.5882C71.4739 55.2728 71.4001 48.7763 72.5813 48.481C73.7625 48.1857 80.259 54.6821 82.1046 55.2728C83.9502 55.8635 81.7353 40.7295 88.3794 40.8034C92.0466 40.8441 93.5892 41.8934 96.2447 42.0686C96.2317 42.0391 93.3384 36.2263 92.8089 36.2263C89.0935 34.9256 82.4145 27.1309 74.5006 25.0046C69.5324 23.6698 58.1929 29.5826 56.1924 32.6827C54.1918 35.7829 51.762 46.4675 48.6621 51.9226C48.6712 52.7947 49.6012 58.7569 49.6765 59.5667C55.011 55.2728 56.1924 49.8099 68.1518 60.5882Z" fill="url(#paint35_radial_1379_4760)"/>
<path d="M68.1518 60.5882C71.4739 55.2728 71.4001 48.7763 72.5813 48.481C73.7625 48.1857 80.259 54.6821 82.1046 55.2728C83.9502 55.8635 81.7353 40.7295 88.3794 40.8034C92.0466 40.8441 93.5892 41.8934 96.2447 42.0686C96.2317 42.0391 93.3384 36.2263 92.8089 36.2263C89.0935 34.9256 82.4145 27.1309 74.5006 25.0046C69.5324 23.6698 58.1929 29.5826 56.1924 32.6827C54.1918 35.7829 51.762 46.4675 48.6621 51.9226C48.6712 52.7947 49.6012 58.7569 49.6765 59.5667C55.011 55.2728 56.1924 49.8099 68.1518 60.5882Z" fill="url(#paint36_radial_1379_4760)"/>
<path d="M68.1518 60.5882C71.4739 55.2728 71.4001 48.7763 72.5813 48.481C73.7625 48.1857 80.259 54.6821 82.1046 55.2728C83.9502 55.8635 81.7353 40.7295 88.3794 40.8034C92.0466 40.8441 93.5892 41.8934 96.2447 42.0686C96.2317 42.0391 93.3384 36.2263 92.8089 36.2263C89.0935 34.9256 82.4145 27.1309 74.5006 25.0046C69.5324 23.6698 58.1929 29.5826 56.1924 32.6827C54.1918 35.7829 51.762 46.4675 48.6621 51.9226C48.6712 52.7947 49.6012 58.7569 49.6765 59.5667C55.011 55.2728 56.1924 49.8099 68.1518 60.5882Z" fill="url(#paint37_radial_1379_4760)"/>
<path d="M68.1518 60.5882C71.4739 55.2728 71.4001 48.7763 72.5813 48.481C73.7625 48.1857 80.259 54.6821 82.1046 55.2728C83.9502 55.8635 81.7353 40.7295 88.3794 40.8034C92.0466 40.8441 93.5892 41.8934 96.2447 42.0686C96.2317 42.0391 93.3384 36.2263 92.8089 36.2263C89.0935 34.9256 82.4145 27.1309 74.5006 25.0046C69.5324 23.6698 58.1929 29.5826 56.1924 32.6827C54.1918 35.7829 51.762 46.4675 48.6621 51.9226C48.6712 52.7947 49.6012 58.7569 49.6765 59.5667C55.011 55.2728 56.1924 49.8099 68.1518 60.5882Z" fill="url(#paint38_radial_1379_4760)"/>
<path d="M68.1518 60.5882C71.4739 55.2728 71.4001 48.7763 72.5813 48.481C73.7625 48.1857 80.259 54.6821 82.1046 55.2728C83.9502 55.8635 81.7353 40.7295 88.3794 40.8034C92.0466 40.8441 93.5892 41.8934 96.2447 42.0686C96.2317 42.0391 93.3384 36.2263 92.8089 36.2263C89.0935 34.9256 82.4145 27.1309 74.5006 25.0046C69.5324 23.6698 58.1929 29.5826 56.1924 32.6827C54.1918 35.7829 51.762 46.4675 48.6621 51.9226C48.6712 52.7947 49.6012 58.7569 49.6765 59.5667C55.011 55.2728 56.1924 49.8099 68.1518 60.5882Z" fill="url(#paint39_radial_1379_4760)"/>
<path d="M68.1518 60.5882C71.4739 55.2728 71.4001 48.7763 72.5813 48.481C73.7625 48.1857 80.259 54.6821 82.1046 55.2728C83.9502 55.8635 81.7353 40.7295 88.3794 40.8034C92.0466 40.8441 93.5892 41.8934 96.2447 42.0686C96.2317 42.0391 93.3384 36.2263 92.8089 36.2263C89.0935 34.9256 82.4145 27.1309 74.5006 25.0046C69.5324 23.6698 58.1929 29.5826 56.1924 32.6827C54.1918 35.7829 51.762 46.4675 48.6621 51.9226C48.6712 52.7947 49.6012 58.7569 49.6765 59.5667C55.011 55.2728 56.1924 49.8099 68.1518 60.5882Z" fill="url(#paint40_radial_1379_4760)"/>
<path d="M68.1518 60.5882C71.4739 55.2728 71.4001 48.7763 72.5813 48.481C73.7625 48.1857 80.259 54.6821 82.1046 55.2728C83.9502 55.8635 81.7353 40.7295 88.3794 40.8034C92.0466 40.8441 93.5892 41.8934 96.2447 42.0686C96.2317 42.0391 93.3384 36.2263 92.8089 36.2263C89.0935 34.9256 82.4145 27.1309 74.5006 25.0046C69.5324 23.6698 58.1929 29.5826 56.1924 32.6827C54.1918 35.7829 51.762 46.4675 48.6621 51.9226C48.6712 52.7947 49.6012 58.7569 49.6765 59.5667C55.011 55.2728 56.1924 49.8099 68.1518 60.5882Z" fill="url(#paint41_radial_1379_4760)"/>
<path d="M77.208 40.1694C74.4763 41.5326 75.4967 45.7865 75.7228 47.6617C77.1346 46.9565 80.1106 47.8635 82.1378 45.9792C84.1649 44.0949 84.0886 41.5085 83.7971 40.4508C83.0384 39.8093 80.4884 38.5324 77.208 40.1694Z" fill="url(#paint42_radial_1379_4760)"/>
<path d="M77.736 40.5725C75.2507 41.8124 76.2529 45.3093 76.8597 46.583C77.9293 46.0487 79.9254 47.2228 81.9791 45.4783C84.0328 43.7338 83.1976 41.9213 82.9767 41.1201C82.4019 40.634 80.2212 39.3325 77.736 40.5725Z" fill="url(#paint43_radial_1379_4760)"/>
<path d="M79.1381 42.4497C79.146 42.866 78.8149 43.2099 78.3986 43.2178C77.9823 43.2257 77.6384 42.8947 77.6305 42.4784C77.6226 42.0621 77.9537 41.7182 78.37 41.7103C78.7863 41.7023 79.1302 42.0334 79.1381 42.4497Z" fill="url(#paint44_radial_1379_4760)"/>
<path d="M171.684 98.8113C208.237 112.547 269.135 97.2961 186.016 94.0758L171.684 98.8113Z" fill="url(#paint45_radial_1379_4760)"/>
<path fill-rule="evenodd" clip-rule="evenodd" d="M137.513 120C153.885 117.925 153.929 111.778 103.687 109.832L88.6907 114.787C95.9904 117.53 104.218 119.168 112.149 120H137.513Z" fill="url(#paint46_radial_1379_4760)"/>
<path d="M62.5201 45.4912C66.1079 44.7378 67.7104 48.8134 68.5944 50.2594C67.0497 50.5829 65.2799 53.1415 62.5209 52.9227C59.7619 52.7039 58.216 50.6289 57.7879 49.6187C57.9844 48.6447 58.9323 46.2446 62.5201 45.4912Z" fill="url(#paint47_radial_1379_4760)"/>
<path d="M62.6163 45.9506C65.3344 45.3798 66.7197 48.7433 67.0347 50.1186C65.8645 50.3638 65.0285 52.5234 62.3356 52.4308C59.6426 52.3381 59.1721 50.3987 58.8478 49.6334C58.9967 48.8955 59.8982 46.5214 62.6163 45.9506Z" fill="url(#paint48_radial_1379_4760)"/>
<path d="M62.6817 48.2934C62.934 48.6246 63.407 48.6887 63.7383 48.4365C64.0696 48.1842 64.1336 47.7112 63.8814 47.3799C63.6291 47.0486 63.1561 46.9846 62.8248 47.2368C62.4936 47.4891 62.4295 47.9621 62.6817 48.2934Z" fill="url(#paint49_radial_1379_4760)"/>
<path fill-rule="evenodd" clip-rule="evenodd" d="M109.754 96.0294C105.872 97.4209 99.6608 99.1983 94.7866 99.2022C95.6775 103.177 95.98 107.077 93.5475 107.245C89.2657 107.54 86.7557 114.627 87.9369 115.365C89.1181 116.103 94.5811 116.251 96.3529 116.103C98.1246 115.956 104.916 114.479 105.802 111.231C106.345 109.241 108.25 101.87 109.754 96.0294Z" fill="url(#paint50_radial_1379_4760)"/>
<path fill-rule="evenodd" clip-rule="evenodd" d="M109.754 96.0294C105.872 97.4209 99.6608 99.1983 94.7866 99.2022C95.6775 103.177 95.98 107.077 93.5475 107.245C89.2657 107.54 86.7557 114.627 87.9369 115.365C89.1181 116.103 94.5811 116.251 96.3529 116.103C98.1246 115.956 104.916 114.479 105.802 111.231C106.345 109.241 108.25 101.87 109.754 96.0294Z" fill="url(#paint51_radial_1379_4760)"/>
<path fill-rule="evenodd" clip-rule="evenodd" d="M109.754 96.0294C105.872 97.4209 99.6608 99.1983 94.7866 99.2022C95.6775 103.177 95.98 107.077 93.5475 107.245C89.2657 107.54 86.7557 114.627 87.9369 115.365C89.1181 116.103 94.5811 116.251 96.3529 116.103C98.1246 115.956 104.916 114.479 105.802 111.231C106.345 109.241 108.25 101.87 109.754 96.0294Z" fill="url(#paint52_radial_1379_4760)"/>
<path fill-rule="evenodd" clip-rule="evenodd" d="M109.754 96.0294C105.872 97.4209 99.6608 99.1983 94.7866 99.2022C95.6775 103.177 95.98 107.077 93.5475 107.245C89.2657 107.54 86.7557 114.627 87.9369 115.365C89.1181 116.103 94.5811 116.251 96.3529 116.103C98.1246 115.956 104.916 114.479 105.802 111.231C106.345 109.241 108.25 101.87 109.754 96.0294Z" fill="url(#paint53_radial_1379_4760)"/>
<path fill-rule="evenodd" clip-rule="evenodd" d="M182.467 85.7294C180.724 85.4027 178.76 85.6481 176.083 86.3528C175.673 86.4606 175.289 86.6123 174.927 86.8018C175.659 89.8247 175.674 93.2183 173.868 93.2183C171.387 93.2183 171.259 97.1063 171.505 99.1242C172.145 99.5179 175.758 100.128 179.183 100.01C182.609 99.892 185.04 98.4844 185.827 97.7954C185.842 97.2474 185.947 96.6571 186.054 96.055C186.292 94.7102 186.541 93.3066 185.827 92.1848C185.765 92.0873 185.701 91.9872 185.635 91.8839C184.825 90.6195 183.71 88.8802 182.467 85.7294Z" fill="url(#paint54_radial_1379_4760)"/>
<path fill-rule="evenodd" clip-rule="evenodd" d="M182.467 85.7294C180.724 85.4027 178.76 85.6481 176.083 86.3528C175.673 86.4606 175.289 86.6123 174.927 86.8018C175.659 89.8247 175.674 93.2183 173.868 93.2183C171.387 93.2183 171.259 97.1063 171.505 99.1242C172.145 99.5179 175.758 100.128 179.183 100.01C182.609 99.892 185.04 98.4844 185.827 97.7954C185.842 97.2474 185.947 96.6571 186.054 96.055C186.292 94.7102 186.541 93.3066 185.827 92.1848C185.765 92.0873 185.701 91.9872 185.635 91.8839C184.825 90.6195 183.71 88.8802 182.467 85.7294Z" fill="url(#paint55_radial_1379_4760)"/>
<path fill-rule="evenodd" clip-rule="evenodd" d="M182.467 85.7294C180.724 85.4027 178.76 85.6481 176.083 86.3528C175.673 86.4606 175.289 86.6123 174.927 86.8018C175.659 89.8247 175.674 93.2183 173.868 93.2183C171.387 93.2183 171.259 97.1063 171.505 99.1242C172.145 99.5179 175.758 100.128 179.183 100.01C182.609 99.892 185.04 98.4844 185.827 97.7954C185.842 97.2474 185.947 96.6571 186.054 96.055C186.292 94.7102 186.541 93.3066 185.827 92.1848C185.765 92.0873 185.701 91.9872 185.635 91.8839C184.825 90.6195 183.71 88.8802 182.467 85.7294Z" fill="url(#paint56_radial_1379_4760)"/>
<path fill-rule="evenodd" clip-rule="evenodd" d="M182.467 85.7294C180.724 85.4027 178.76 85.6481 176.083 86.3528C175.673 86.4606 175.289 86.6123 174.927 86.8018C175.659 89.8247 175.674 93.2183 173.868 93.2183C171.387 93.2183 171.259 97.1063 171.505 99.1242C172.145 99.5179 175.758 100.128 179.183 100.01C182.609 99.892 185.04 98.4844 185.827 97.7954C185.842 97.2474 185.947 96.6571 186.054 96.055C186.292 94.7102 186.541 93.3066 185.827 92.1848C185.765 92.0873 185.701 91.9872 185.635 91.8839C184.825 90.6195 183.71 88.8802 182.467 85.7294Z" fill="url(#paint57_radial_1379_4760)"/>
<path d="M173.941 83.9154C189.665 72.3998 181.988 42.5741 162.5 46.856C144.487 49.9572 147.106 69.8146 153.75 76.9021C160.395 83.9896 169.327 85.0228 173.941 83.9154Z" fill="url(#paint58_radial_1379_4760)"/>
<path d="M173.941 83.9154C189.665 72.3998 181.988 42.5741 162.5 46.856C144.487 49.9572 147.106 69.8146 153.75 76.9021C160.395 83.9896 169.327 85.0228 173.941 83.9154Z" fill="url(#paint59_radial_1379_4760)"/>
<path fill-rule="evenodd" clip-rule="evenodd" d="M183.043 19.2565C182.564 15.5493 180.437 12.0405 176.349 9.08755C175.612 8.55518 175.945 8.03295 176.667 8.05858C184.513 8.33668 190.283 10.3279 194.233 13.1889C191.93 17.001 187.765 21.3106 183.043 19.2565Z" fill="url(#paint60_radial_1379_4760)"/>
<path fill-rule="evenodd" clip-rule="evenodd" d="M183.043 19.2565C182.564 15.5493 180.437 12.0405 176.349 9.08755C175.612 8.55518 175.945 8.03295 176.667 8.05858C184.513 8.33668 190.283 10.3279 194.233 13.1889C191.93 17.001 187.765 21.3106 183.043 19.2565Z" fill="url(#paint61_radial_1379_4760)"/>
<defs>
<radialGradient id="paint0_radial_1379_4760" cx="0" cy="0" r="1" gradientUnits="userSpaceOnUse" gradientTransform="translate(91.1538 122.85) rotate(-4.5682) scale(291.117 54.9024)">
<stop stop-color="#278536"/>
<stop offset="0.494434" stop-color="#7D9C01"/>
<stop offset="1" stop-color="#CC9F5B"/>
</radialGradient>
<radialGradient id="paint1_radial_1379_4760" cx="0" cy="0" r="1" gradientUnits="userSpaceOnUse" gradientTransform="translate(73.2692 87.6922) rotate(166.728) scale(89.2097 29.9372)">
<stop stop-color="#FECF7A" stop-opacity="0.7"/>
<stop offset="1" stop-color="#FECF7A" stop-opacity="0"/>
</radialGradient>
<radialGradient id="paint2_radial_1379_4760" cx="0" cy="0" r="1" gradientUnits="userSpaceOnUse" gradientTransform="translate(181.398 22.3477) rotate(116.405) scale(23.5729 17.4447)">
<stop offset="0.358925" stop-color="#F2BA8F"/>
<stop offset="1" stop-color="#F2BA8F" stop-opacity="0"/>
</radialGradient>
<radialGradient id="paint3_radial_1379_4760" cx="0" cy="0" r="1" gradientUnits="userSpaceOnUse" gradientTransform="translate(182.136 46.562) rotate(-48.4268) scale(34.933 16.0813)">
<stop offset="0.15941" stop-color="#A36032"/>
<stop offset="1" stop-color="#CB9062" stop-opacity="0"/>
</radialGradient>
<radialGradient id="paint4_radial_1379_4760" cx="0" cy="0" r="1" gradientUnits="userSpaceOnUse" gradientTransform="translate(78.0163 107.895) rotate(2.46363) scale(47.1404 6.25289)">
<stop stop-color="#1E3118"/>
<stop offset="1" stop-color="#37572D" stop-opacity="0"/>
</radialGradient>
<radialGradient id="paint5_radial_1379_4760" cx="0" cy="0" r="1" gradientUnits="userSpaceOnUse" gradientTransform="translate(104.298 94.5112) rotate(1.17258) scale(135.267 16.3976)">
<stop stop-color="#1E3118" stop-opacity="0.7"/>
<stop offset="1" stop-color="#37572D" stop-opacity="0"/>
</radialGradient>
<radialGradient id="paint6_radial_1379_4760" cx="0" cy="0" r="1" gradientUnits="userSpaceOnUse" gradientTransform="translate(75.6598 100.699) rotate(130.488) scale(12.6432 8.86257)">
<stop offset="0.465747" stop-color="#EBDDD3"/>
<stop offset="0.730368" stop-color="#D7CBC3"/>
<stop offset="1" stop-color="#BCACA1"/>
</radialGradient>
<radialGradient id="paint7_radial_1379_4760" cx="0" cy="0" r="1" gradientUnits="userSpaceOnUse" gradientTransform="translate(68.5912 98.7932) rotate(97.4207) scale(8.83039 11.3638)">
<stop offset="0.432292" stop-color="#B5A091"/>
<stop offset="0.729167" stop-color="#D7CBC3"/>
<stop offset="1" stop-color="#D7CBC3" stop-opacity="0"/>
</radialGradient>
<radialGradient id="paint8_radial_1379_4760" cx="0" cy="0" r="1" gradientUnits="userSpaceOnUse" gradientTransform="translate(77.0101 103.018) rotate(-177.826) scale(8.09778 3.29997)">
<stop offset="0.432292" stop-color="#B5A091" stop-opacity="0.7"/>
<stop offset="1" stop-color="#B5A090" stop-opacity="0"/>
</radialGradient>
<radialGradient id="paint9_radial_1379_4760" cx="0" cy="0" r="1" gradientUnits="userSpaceOnUse" gradientTransform="translate(75.2119 104.477) rotate(179.214) scale(11.199 3.14683)">
<stop offset="0.00511785" stop-color="#FFFDFB"/>
<stop offset="1" stop-color="#FFFDFB" stop-opacity="0"/>
</radialGradient>
<radialGradient id="paint10_radial_1379_4760" cx="0" cy="0" r="1" gradientUnits="userSpaceOnUse" gradientTransform="translate(152.658 89.5776) rotate(2.46363) scale(41.3409 5.48362)">
<stop stop-color="#1E3118"/>
<stop offset="1" stop-color="#37572D" stop-opacity="0"/>
</radialGradient>
<radialGradient id="paint11_radial_1379_4760" cx="0" cy="0" r="1" gradientUnits="userSpaceOnUse" gradientTransform="translate(151.375 83.1735) rotate(132.085) scale(12.3682 8.73304)">
<stop offset="0.465747" stop-color="#EBDDD3"/>
<stop offset="0.730368" stop-color="#D7CBC3"/>
<stop offset="1" stop-color="#BCACA1"/>
</radialGradient>
<radialGradient id="paint12_radial_1379_4760" cx="0" cy="0" r="1" gradientUnits="userSpaceOnUse" gradientTransform="translate(144.237 81.3542) rotate(97.8447) scale(8.43777 11.4638)">
<stop offset="0.432292" stop-color="#B5A091"/>
<stop offset="0.729167" stop-color="#D7CBC3"/>
<stop offset="1" stop-color="#D7CBC3" stop-opacity="0"/>
</radialGradient>
<radialGradient id="paint13_radial_1379_4760" cx="0" cy="0" r="1" gradientUnits="userSpaceOnUse" gradientTransform="translate(152.739 85.387) rotate(-177.944) scale(8.17653 3.15036)">
<stop offset="0.432292" stop-color="#B5A091" stop-opacity="0.7"/>
<stop offset="1" stop-color="#B5A090" stop-opacity="0"/>
</radialGradient>
<radialGradient id="paint14_radial_1379_4760" cx="0" cy="0" r="1" gradientUnits="userSpaceOnUse" gradientTransform="translate(149.801 85.9834) rotate(-179.17) scale(10.1888 2.70649)">
<stop offset="0.00511785" stop-color="#FFFDFB"/>
<stop offset="1" stop-color="#FFFDFB" stop-opacity="0"/>
</radialGradient>
<linearGradient id="paint15_linear_1379_4760" x1="123.573" y1="37.3849" x2="123.573" y2="116.155" gradientUnits="userSpaceOnUse">
<stop stop-color="#BD7950"/>
<stop offset="1" stop-color="#E1B480"/>
</linearGradient>
<radialGradient id="paint16_radial_1379_4760" cx="0" cy="0" r="1" gradientUnits="userSpaceOnUse" gradientTransform="translate(77.4531 54.0914) rotate(47.395) scale(27.482 26.4702)">
<stop offset="0.70381" stop-color="#703F21"/>
<stop offset="0.986084" stop-color="#703F21" stop-opacity="0"/>
</radialGradient>
<radialGradient id="paint17_radial_1379_4760" cx="0" cy="0" r="1" gradientUnits="userSpaceOnUse" gradientTransform="translate(134.445 82.5874) rotate(-21.2052) scale(28.9819 15.0783)">
<stop stop-color="#F2BA8F"/>
<stop offset="1" stop-color="#F2BA8F" stop-opacity="0"/>
</radialGradient>
<radialGradient id="paint18_radial_1379_4760" cx="0" cy="0" r="1" gradientUnits="userSpaceOnUse" gradientTransform="translate(87.3455 58.2256) rotate(104.57) scale(42.2575 32.5951)">
<stop offset="0.772171" stop-color="#D1A787" stop-opacity="0"/>
<stop offset="1" stop-color="#E2BB9D" stop-opacity="0.7"/>
</radialGradient>
<radialGradient id="paint19_radial_1379_4760" cx="0" cy="0" r="1" gradientUnits="userSpaceOnUse" gradientTransform="translate(72.7284 86.427) rotate(60.9768) scale(26.172 21.3333)">
<stop offset="0.678616" stop-color="#EDE6E0"/>
<stop offset="1" stop-color="#D6B8A3" stop-opacity="0"/>
</radialGradient>
<radialGradient id="paint20_radial_1379_4760" cx="0" cy="0" r="1" gradientUnits="userSpaceOnUse" gradientTransform="translate(79.3726 78.7493) rotate(-133.135) scale(22.4585 15.5275)">
<stop offset="0.635399" stop-color="#D7CBC3" stop-opacity="0"/>
<stop offset="1" stop-color="#BCACA1"/>
</radialGradient>
<radialGradient id="paint21_radial_1379_4760" cx="0" cy="0" r="1" gradientUnits="userSpaceOnUse" gradientTransform="translate(77.4053 69.1522) rotate(175.133) scale(22.6238 15.6418)">
<stop offset="0.562465" stop-color="#917765"/>
<stop offset="1" stop-color="#D7CBC3" stop-opacity="0"/>
</radialGradient>
<radialGradient id="paint22_radial_1379_4760" cx="0" cy="0" r="1" gradientUnits="userSpaceOnUse" gradientTransform="translate(74.648 56.3063) rotate(92.1085) scale(22.1673 26.6405)">
<stop offset="0.582798" stop-color="#FDF7F4"/>
<stop offset="1" stop-color="#D0C1BB"/>
</radialGradient>
<radialGradient id="paint23_radial_1379_4760" cx="0" cy="0" r="1" gradientUnits="userSpaceOnUse" gradientTransform="translate(82.178 51.4617) rotate(85.4192) scale(18.4873 7.56274)">
<stop offset="0.178578" stop-color="#968A85"/>
<stop offset="1" stop-color="#B3AAA6" stop-opacity="0"/>
</radialGradient>
<radialGradient id="paint24_radial_1379_4760" cx="0" cy="0" r="1" gradientUnits="userSpaceOnUse" gradientTransform="translate(70.5138 62.9504) rotate(51.953) scale(12.9367 5.29211)">
<stop offset="0.178578" stop-color="#968A85"/>
<stop offset="1" stop-color="#B3AAA6" stop-opacity="0"/>
</radialGradient>
<radialGradient id="paint25_radial_1379_4760" cx="0" cy="0" r="1" gradientUnits="userSpaceOnUse" gradientTransform="translate(79.7678 66.7014) rotate(74.5007) scale(18.2332 12.085)">
<stop stop-color="#A8445F"/>
<stop offset="1" stop-color="#CE625B"/>
</radialGradient>
<radialGradient id="paint26_radial_1379_4760" cx="0" cy="0" r="1" gradientUnits="userSpaceOnUse" gradientTransform="translate(78.8565 72.3262) rotate(72.6101) scale(14.0795 7.63695)">
<stop offset="0.61158" stop-color="#9A464A" stop-opacity="0"/>
<stop offset="0.890276" stop-color="#7A2C30"/>
</radialGradient>
<radialGradient id="paint27_radial_1379_4760" cx="0" cy="0" r="1" gradientUnits="userSpaceOnUse" gradientTransform="translate(79.2256 72.2524) rotate(68.0255) scale(9.07525 5.61364)">
<stop stop-color="#FC9E98"/>
<stop offset="1" stop-color="#FC9E98" stop-opacity="0"/>
</radialGradient>
<radialGradient id="paint28_radial_1379_4760" cx="0" cy="0" r="1" gradientUnits="userSpaceOnUse" gradientTransform="translate(78.635 65.1653) rotate(78.2177) scale(12.2923 1.72247)">
<stop stop-color="#7A2C30"/>
<stop offset="1" stop-color="#9A464A" stop-opacity="0"/>
</radialGradient>
<radialGradient id="paint29_radial_1379_4760" cx="0" cy="0" r="1" gradientUnits="userSpaceOnUse" gradientTransform="translate(78.4868 51.9691) rotate(90) scale(15.7402 14.5247)">
<stop stop-color="#FFF4F0"/>
<stop offset="1" stop-color="#DFD0CB"/>
</radialGradient>
<radialGradient id="paint30_radial_1379_4760" cx="0" cy="0" r="1" gradientUnits="userSpaceOnUse" gradientTransform="translate(76.1633 59.7758) rotate(162.251) scale(6.04604 2.50442)">
<stop stop-color="#E3CFDF"/>
<stop offset="0.15625" stop-color="#9C8999"/>
<stop offset="1" stop-color="#2B262A"/>
</radialGradient>
<radialGradient id="paint31_radial_1379_4760" cx="0" cy="0" r="1" gradientUnits="userSpaceOnUse" gradientTransform="translate(80.998 28.8438) rotate(-83.548) scale(24.9647 11.4015)">
<stop offset="0.380466" stop-color="#ECD3C7"/>
<stop offset="0.848958" stop-color="#B06D3D"/>
<stop offset="1" stop-color="#673511"/>
</radialGradient>
<radialGradient id="paint32_radial_1379_4760" cx="0" cy="0" r="1" gradientUnits="userSpaceOnUse" gradientTransform="translate(81.8971 28.9915) rotate(-90) scale(11.8118 7.44055)">
<stop stop-color="#D58B90"/>
<stop offset="1" stop-color="#D58B90" stop-opacity="0"/>
</radialGradient>
<radialGradient id="paint33_radial_1379_4760" cx="0" cy="0" r="1" gradientUnits="userSpaceOnUse" gradientTransform="translate(53.5347 42.1319) rotate(-142.202) scale(26.661 14.5962)">
<stop offset="0.380466" stop-color="#EAD7CE"/>
<stop offset="0.848958" stop-color="#B06D3D"/>
<stop offset="1" stop-color="#673511"/>
</radialGradient>
<radialGradient id="paint34_radial_1379_4760" cx="0" cy="0" r="1" gradientUnits="userSpaceOnUse" gradientTransform="translate(52.6328 41.2717) rotate(-137.152) scale(11.9809 7.44417)">
<stop stop-color="#D58B90"/>
<stop offset="1" stop-color="#D58B90" stop-opacity="0"/>
</radialGradient>
<radialGradient id="paint35_radial_1379_4760" cx="0" cy="0" r="1" gradientUnits="userSpaceOnUse" gradientTransform="translate(72.1382 48.0381) rotate(-107.632) scale(24.3716 26.4401)">
<stop stop-color="#D4B7A3"/>
<stop offset="0.721588" stop-color="#CC8E66"/>
<stop offset="1" stop-color="#6D3915"/>
</radialGradient>
<radialGradient id="paint36_radial_1379_4760" cx="0" cy="0" r="1" gradientUnits="userSpaceOnUse" gradientTransform="translate(77.1582 60.5881) rotate(-110.739) scale(16.2613 16.9652)">
<stop offset="0.354407" stop-color="#E5DAD6"/>
<stop offset="1" stop-color="#E5DAD6" stop-opacity="0"/>
</radialGradient>
<radialGradient id="paint37_radial_1379_4760" cx="0" cy="0" r="1" gradientUnits="userSpaceOnUse" gradientTransform="translate(55.4539 68.2659) rotate(-84.9709) scale(18.5273 11.1873)">
<stop offset="0.768623" stop-color="#E5DAD6"/>
<stop offset="1" stop-color="#E5DAD6" stop-opacity="0"/>
</radialGradient>
<radialGradient id="paint38_radial_1379_4760" cx="0" cy="0" r="1" gradientUnits="userSpaceOnUse" gradientTransform="translate(96.244 53.0581) rotate(-128.838) scale(17.2495 10.4157)">
<stop offset="0.728124" stop-color="#E5DAD6"/>
<stop offset="1" stop-color="#E5DAD6" stop-opacity="0"/>
</radialGradient>
<radialGradient id="paint39_radial_1379_4760" cx="0" cy="0" r="1" gradientUnits="userSpaceOnUse" gradientTransform="translate(64.8296 26.1862) rotate(73.1737) scale(19.1273 11.3198)">
<stop offset="0.217983" stop-color="#7A523E"/>
<stop offset="1" stop-color="#935839" stop-opacity="0"/>
</radialGradient>
<radialGradient id="paint40_radial_1379_4760" cx="0" cy="0" r="1" gradientUnits="userSpaceOnUse" gradientTransform="translate(76.42 40.5081) rotate(104.036) scale(9.74029 6.46074)">
<stop stop-color="#EFD0BA"/>
<stop offset="1" stop-color="#D6B8A3" stop-opacity="0"/>
</radialGradient>
<radialGradient id="paint41_radial_1379_4760" cx="0" cy="0" r="1" gradientUnits="userSpaceOnUse" gradientTransform="translate(63.5746 45.6757) rotate(33.6299) scale(10.6638 5.77354)">
<stop stop-color="#EFD0BA"/>
<stop offset="1" stop-color="#D6B8A3" stop-opacity="0"/>
</radialGradient>
<radialGradient id="paint42_radial_1379_4760" cx="0" cy="0" r="1" gradientUnits="userSpaceOnUse" gradientTransform="translate(79.7774 42.5746) rotate(136.676) scale(5.35294 4.36192)">
<stop offset="0.744792"/>
<stop offset="1" stop-opacity="0"/>
</radialGradient>
<radialGradient id="paint43_radial_1379_4760" cx="0" cy="0" r="1" gradientUnits="userSpaceOnUse" gradientTransform="translate(78.9485 43.4236) rotate(77.132) scale(3.54018 3.57368)">
<stop offset="0.744792"/>
<stop offset="1" stop-color="#6F4628"/>
</radialGradient>
<radialGradient id="paint44_radial_1379_4760" cx="0" cy="0" r="1" gradientUnits="userSpaceOnUse" gradientTransform="translate(78.3843 42.464) rotate(88.911) scale(0.753913)">
<stop offset="0.638889" stop-color="white"/>
<stop offset="1" stop-color="white" stop-opacity="0"/>
</radialGradient>
<radialGradient id="paint45_radial_1379_4760" cx="0" cy="0" r="1" gradientUnits="userSpaceOnUse" gradientTransform="translate(179.941 98.0484) rotate(2.46363) scale(45.0503 5.97565)">
<stop stop-color="#1E3118"/>
<stop offset="1" stop-color="#37572D" stop-opacity="0"/>
</radialGradient>
<radialGradient id="paint46_radial_1379_4760" cx="0" cy="0" r="1" gradientUnits="userSpaceOnUse" gradientTransform="translate(97.3296 113.989) rotate(2.46363) scale(47.1404 6.25289)">
<stop stop-color="#1E3118"/>
<stop offset="1" stop-color="#37572D" stop-opacity="0"/>
</radialGradient>
<radialGradient id="paint47_radial_1379_4760" cx="0" cy="0" r="1" gradientUnits="userSpaceOnUse" gradientTransform="translate(62.1547 48.7389) rotate(9.83088) scale(5.1885 4.22792)">
<stop offset="0.744792"/>
<stop offset="1" stop-opacity="0"/>
</radialGradient>
<radialGradient id="paint48_radial_1379_4760" cx="0" cy="0" r="1" gradientUnits="userSpaceOnUse" gradientTransform="translate(63.1882 48.702) rotate(69.1988) scale(3.53397)">
<stop offset="0.744792"/>
<stop offset="1" stop-color="#6F4628"/>
</radialGradient>
<radialGradient id="paint49_radial_1379_4760" cx="0" cy="0" r="1" gradientUnits="userSpaceOnUse" gradientTransform="translate(63.2816 47.8366) rotate(52.7129) scale(0.753913)">
<stop offset="0.638889" stop-color="white"/>
<stop offset="1" stop-color="white" stop-opacity="0"/>
</radialGradient>
<radialGradient id="paint50_radial_1379_4760" cx="0" cy="0" r="1" gradientUnits="userSpaceOnUse" gradientTransform="translate(97.091 104.292) rotate(134.545) scale(13.4659 9.50062)">
<stop offset="0.465747" stop-color="#EBDDD3"/>
<stop offset="0.730368" stop-color="#D7CBC3"/>
<stop offset="1" stop-color="#BCACA1"/>
</radialGradient>
<radialGradient id="paint51_radial_1379_4760" cx="0" cy="0" r="1" gradientUnits="userSpaceOnUse" gradientTransform="translate(88.6751 102.815) rotate(96.9781) scale(8.47874 10.2737)">
<stop offset="0.432292" stop-color="#B5A091"/>
<stop offset="0.729167" stop-color="#D7CBC3"/>
<stop offset="1" stop-color="#D7CBC3" stop-opacity="0"/>
</radialGradient>
<radialGradient id="paint52_radial_1379_4760" cx="0" cy="0" r="1" gradientUnits="userSpaceOnUse" gradientTransform="translate(96.2789 106.875) rotate(-177.686) scale(7.31454 3.17134)">
<stop offset="0.432292" stop-color="#B5A091" stop-opacity="0.7"/>
<stop offset="1" stop-color="#B5A090" stop-opacity="0"/>
</radialGradient>
<radialGradient id="paint53_radial_1379_4760" cx="0" cy="0" r="1" gradientUnits="userSpaceOnUse" gradientTransform="translate(94.6548 108.278) rotate(179.164) scale(10.115 3.02443)">
<stop offset="0.00511785" stop-color="#FFFDFB"/>
<stop offset="1" stop-color="#FFFDFB" stop-opacity="0"/>
</radialGradient>
<radialGradient id="paint54_radial_1379_4760" cx="0" cy="0" r="1" gradientUnits="userSpaceOnUse" gradientTransform="translate(176.821 92.8059) rotate(131.259) scale(10.299 7.24759)">
<stop offset="0.465747" stop-color="#EBDDD3"/>
<stop offset="0.730368" stop-color="#D7CBC3"/>
<stop offset="1" stop-color="#BCACA1"/>
</radialGradient>
<radialGradient id="paint55_radial_1379_4760" cx="0" cy="0" r="1" gradientUnits="userSpaceOnUse" gradientTransform="translate(170.973 91.2714) rotate(97.623) scale(7.11314 9.39753)">
<stop offset="0.432292" stop-color="#B5A091"/>
<stop offset="0.729167" stop-color="#D7CBC3"/>
<stop offset="1" stop-color="#D7CBC3" stop-opacity="0"/>
</radialGradient>
<radialGradient id="paint56_radial_1379_4760" cx="0" cy="0" r="1" gradientUnits="userSpaceOnUse" gradientTransform="translate(177.938 94.6728) rotate(-177.884) scale(6.6995 2.65708)">
<stop offset="0.432292" stop-color="#B5A091" stop-opacity="0.7"/>
<stop offset="1" stop-color="#B5A090" stop-opacity="0"/>
</radialGradient>
<radialGradient id="paint57_radial_1379_4760" cx="0" cy="0" r="1" gradientUnits="userSpaceOnUse" gradientTransform="translate(176.451 95.8479) rotate(179.235) scale(9.26553 2.5337)">
<stop offset="0.00511785" stop-color="#FFFDFB"/>
<stop offset="1" stop-color="#FFFDFB" stop-opacity="0"/>
</radialGradient>
<radialGradient id="paint58_radial_1379_4760" cx="0" cy="0" r="1" gradientUnits="userSpaceOnUse" gradientTransform="translate(153.59 76.534) rotate(-102.904) scale(24.8416 17.8062)">
<stop stop-color="#A36032"/>
<stop offset="1" stop-color="#CB9062" stop-opacity="0"/>
</radialGradient>
<radialGradient id="paint59_radial_1379_4760" cx="0" cy="0" r="1" gradientUnits="userSpaceOnUse" gradientTransform="translate(167.371 64.2792) rotate(70.6155) scale(16.9042 12.1845)">
<stop stop-color="#F2BA8F"/>
<stop offset="1" stop-color="#F2BA8F" stop-opacity="0"/>
</radialGradient>
<radialGradient id="paint60_radial_1379_4760" cx="0" cy="0" r="1" gradientUnits="userSpaceOnUse" gradientTransform="translate(180.635 17.5958) rotate(-148.639) scale(14.2726 10.2285)">
<stop offset="0.465747" stop-color="#EBDDD3"/>
<stop offset="0.730368" stop-color="#D7CBC3"/>
<stop offset="1" stop-color="#BCACA1"/>
</radialGradient>
<radialGradient id="paint61_radial_1379_4760" cx="0" cy="0" r="1" gradientUnits="userSpaceOnUse" gradientTransform="translate(188.135 19.0381) rotate(-126.563) scale(10.7742 6.22933)">
<stop offset="0.00511785" stop-color="#FFFDFB"/>
<stop offset="1" stop-color="#FFFDFB" stop-opacity="0"/>
</radialGradient>
</defs>
</svg>
