<svg viewBox="0 0 240 120" fill="none" xmlns="http://www.w3.org/2000/svg">
<path d="M22.9756 62.5278C6.05249 72.1591 1.33181 99.8042 35.178 119.999H218.949C224.194 115.96 233.386 96.9463 231.723 81.7849C229.645 62.8331 206.22 62.517 215.097 43.8813C223.974 25.2456 208.001 1.00059 175.61 13.7444C143.219 26.4882 140.012 -9.5626 107.917 8.77327C75.8227 27.1091 65.7584 3.80245 42.6004 10.6375C12.3634 19.562 39.8987 52.8966 22.9756 62.5278Z" fill="url(#paint0_radial_10393_4414)"/>
<path d="M22.9756 62.5278C6.05249 72.1591 1.33181 99.8042 35.178 119.999H218.949C224.194 115.96 233.386 96.9463 231.723 81.7849C229.645 62.8331 206.22 62.517 215.097 43.8813C223.974 25.2456 208.001 1.00059 175.61 13.7444C143.219 26.4882 140.012 -9.5626 107.917 8.77327C75.8227 27.1091 65.7584 3.80245 42.6004 10.6375C12.3634 19.562 39.8987 52.8966 22.9756 62.5278Z" fill="url(#paint1_radial_10393_4414)"/>
<path d="M22.9756 62.5278C6.05249 72.1591 1.33181 99.8042 35.178 119.999H218.949C224.194 115.96 233.386 96.9463 231.723 81.7849C229.645 62.8331 206.22 62.517 215.097 43.8813C223.974 25.2456 208.001 1.00059 175.61 13.7444C143.219 26.4882 140.012 -9.5626 107.917 8.77327C75.8227 27.1091 65.7584 3.80245 42.6004 10.6375C12.3634 19.562 39.8987 52.8966 22.9756 62.5278Z" fill="url(#paint2_radial_10393_4414)"/>
<path d="M22.9756 62.5278C6.05249 72.1591 1.33181 99.8042 35.178 119.999H218.949C224.194 115.96 233.386 96.9463 231.723 81.7849C229.645 62.8331 206.22 62.517 215.097 43.8813C223.974 25.2456 208.001 1.00059 175.61 13.7444C143.219 26.4882 140.012 -9.5626 107.917 8.77327C75.8227 27.1091 65.7584 3.80245 42.6004 10.6375C12.3634 19.562 39.8987 52.8966 22.9756 62.5278Z" fill="url(#paint3_radial_10393_4414)"/>
<path d="M68.9842 40.1823C68.9842 43.4908 66.3021 46.1729 62.9936 46.1729C59.685 46.1729 57.0029 43.4908 57.0029 40.1823C57.0029 36.8738 59.685 34.1917 62.9936 34.1917C66.3021 34.1917 68.9842 36.8738 68.9842 40.1823Z" fill="url(#paint4_radial_10393_4414)"/>
<path d="M44.8246 21.5288C44.8246 23.7118 43.0549 25.4816 40.8718 25.4816C38.6887 25.4816 36.9189 23.7118 36.9189 21.5288C36.9189 19.3457 38.6887 17.5759 40.8718 17.5759C43.0549 17.5759 44.8246 19.3457 44.8246 21.5288Z" fill="url(#paint5_radial_10393_4414)"/>
<path d="M42.8614 70.7012C42.8614 73.9839 40.2002 76.6451 36.9175 76.6451C33.6348 76.6451 30.9736 73.9839 30.9736 70.7012C30.9736 67.4185 33.6348 64.7573 36.9175 64.7573C40.2002 64.7573 42.8614 67.4185 42.8614 70.7012Z" fill="url(#paint6_radial_10393_4414)"/>
<path d="M25.0287 86.9216C25.0287 89.1047 23.259 90.8744 21.0759 90.8744C18.8928 90.8744 17.123 89.1047 17.123 86.9216C17.123 84.7385 18.8928 82.9688 21.0759 82.9688C23.259 82.9688 25.0287 84.7385 25.0287 86.9216Z" fill="url(#paint7_radial_10393_4414)"/>
<path d="M88.7015 113.501C88.7015 115.684 86.9318 117.454 84.7487 117.454C82.5656 117.454 80.7959 115.684 80.7959 113.501C80.7959 111.318 82.5656 109.548 84.7487 109.548C86.9318 109.548 88.7015 111.318 88.7015 113.501Z" fill="url(#paint8_radial_10393_4414)"/>
<path d="M62.9926 61.7307C62.9926 63.9137 61.2228 65.6835 59.0397 65.6835C56.8567 65.6835 55.0869 63.9137 55.0869 61.7307C55.0869 59.5476 56.8567 57.7778 59.0397 57.7778C61.2228 57.7778 62.9926 59.5476 62.9926 61.7307Z" fill="url(#paint9_radial_10393_4414)"/>
<path d="M140.87 13.8968C140.87 17.1111 138.265 19.7168 135.05 19.7168C131.836 19.7168 129.23 17.1111 129.23 13.8968C129.23 10.6826 131.836 8.0769 135.05 8.0769C138.265 8.0769 140.87 10.6826 140.87 13.8968Z" fill="url(#paint10_radial_10393_4414)"/>
<path d="M40.8715 104.166C40.8715 106.349 39.1017 108.119 36.9186 108.119C34.7356 108.119 32.9658 106.349 32.9658 104.166C32.9658 101.983 34.7356 100.213 36.9186 100.213C39.1017 100.213 40.8715 101.983 40.8715 104.166Z" fill="url(#paint11_radial_10393_4414)"/>
<path d="M80.7963 22.2182C80.7963 24.4013 79.0265 26.171 76.8434 26.171C74.6604 26.171 72.8906 24.4013 72.8906 22.2182C72.8906 20.0351 74.6604 18.2654 76.8434 18.2654C79.0265 18.2654 80.7963 20.0351 80.7963 22.2182Z" fill="url(#paint12_radial_10393_4414)"/>
<path d="M205.341 61.732C205.341 65.586 202.217 68.7102 198.363 68.7102C194.509 68.7102 191.385 65.586 191.385 61.732C191.385 57.8779 194.509 54.7537 198.363 54.7537C202.217 54.7537 205.341 57.8779 205.341 61.732Z" fill="url(#paint13_radial_10393_4414)"/>
<path d="M194.532 90.1667C194.532 92.3498 192.762 94.1195 190.579 94.1195C188.396 94.1195 186.626 92.3498 186.626 90.1667C186.626 87.9836 188.396 86.2139 190.579 86.2139C192.762 86.2139 194.532 87.9836 194.532 90.1667Z" fill="url(#paint14_radial_10393_4414)"/>
<path d="M174.024 105.595C174.024 107.778 172.254 109.548 170.071 109.548C167.888 109.548 166.118 107.778 166.118 105.595C166.118 103.412 167.888 101.642 170.071 101.642C172.254 101.642 174.024 103.412 174.024 105.595Z" fill="url(#paint15_radial_10393_4414)"/>
<path d="M207.197 109.548C207.197 111.731 205.427 113.501 203.244 113.501C201.061 113.501 199.291 111.731 199.291 109.548C199.291 107.365 201.061 105.595 203.244 105.595C205.427 105.595 207.197 107.365 207.197 109.548Z" fill="url(#paint16_radial_10393_4414)"/>
<path d="M211.15 26.1711C211.15 28.3542 209.38 30.1239 207.197 30.1239C205.014 30.1239 203.244 28.3542 203.244 26.1711C203.244 23.988 205.014 22.2183 207.197 22.2183C209.38 22.2183 211.15 23.988 211.15 26.1711Z" fill="url(#paint17_radial_10393_4414)"/>
<path d="M226.045 83.2143C226.045 85.3974 224.276 87.1671 222.092 87.1671C219.909 87.1671 218.14 85.3974 218.14 83.2143C218.14 81.0312 219.909 79.2615 222.092 79.2615C224.276 79.2615 226.045 81.0312 226.045 83.2143Z" fill="url(#paint18_radial_10393_4414)"/>
<path d="M196.116 39.8155C196.116 42.9215 193.598 45.4394 190.492 45.4394C187.386 45.4394 184.868 42.9215 184.868 39.8155C184.868 36.7095 187.386 34.1917 190.492 34.1917C193.598 34.1917 196.116 36.7095 196.116 39.8155Z" fill="url(#paint19_radial_10393_4414)"/>
<path d="M156.683 66.9257C156.683 89.786 138.151 108.318 115.291 108.318C92.4318 108.318 73.9004 89.786 73.9004 66.9257C73.9004 44.0654 92.4318 25.5334 115.291 25.5334C138.151 25.5334 156.683 44.0654 156.683 66.9257Z" fill="url(#paint20_radial_10393_4414)"/>
<path d="M156.683 66.9257C156.683 89.786 138.151 108.318 115.291 108.318C92.4318 108.318 73.9004 89.786 73.9004 66.9257C73.9004 44.0654 92.4318 25.5334 115.291 25.5334C138.151 25.5334 156.683 44.0654 156.683 66.9257Z" fill="url(#paint21_radial_10393_4414)"/>
<path d="M156.683 66.9257C156.683 89.786 138.151 108.318 115.291 108.318C92.4318 108.318 73.9004 89.786 73.9004 66.9257C73.9004 44.0654 92.4318 25.5334 115.291 25.5334C138.151 25.5334 156.683 44.0654 156.683 66.9257Z" fill="url(#paint22_radial_10393_4414)"/>
<path d="M156.683 66.9257C156.683 89.786 138.151 108.318 115.291 108.318C92.4318 108.318 73.9004 89.786 73.9004 66.9257C73.9004 44.0654 92.4318 25.5334 115.291 25.5334C138.151 25.5334 156.683 44.0654 156.683 66.9257Z" fill="url(#paint23_radial_10393_4414)"/>
<path d="M156.683 66.9257C156.683 89.786 138.151 108.318 115.291 108.318C92.4318 108.318 73.9004 89.786 73.9004 66.9257C73.9004 44.0654 92.4318 25.5334 115.291 25.5334C138.151 25.5334 156.683 44.0654 156.683 66.9257Z" fill="url(#paint24_radial_10393_4414)"/>
<path d="M156.683 66.9257C156.683 89.786 138.151 108.318 115.291 108.318C92.4318 108.318 73.9004 89.786 73.9004 66.9257C73.9004 44.0654 92.4318 25.5334 115.291 25.5334C138.151 25.5334 156.683 44.0654 156.683 66.9257Z" fill="url(#paint25_radial_10393_4414)"/>
<path fill-rule="evenodd" clip-rule="evenodd" d="M74.6934 74.9883C74.5914 74.4593 74.4999 73.9294 74.419 73.3988C56.6929 87.1444 46.5859 99.4491 49.7899 104.999C54.6147 113.356 89.1519 104.5 125.257 83.6539C161.363 62.8079 185.364 37.8657 180.539 29.5088C177.357 23.9962 161.836 26.5254 141.276 34.869C141.694 35.2052 142.107 35.5501 142.514 35.9039C157.999 29.6907 167.943 28.8757 170.092 32.5982C173.676 38.8057 151.42 56.5969 119.566 74.9883C87.712 93.3798 61.0632 103.659 57.4794 97.4513C55.3111 93.6956 61.3498 85.4139 74.6934 74.9883Z" fill="url(#paint26_radial_10393_4414)"/>
<defs>
<radialGradient id="paint0_radial_10393_4414" cx="0" cy="0" r="1" gradientUnits="userSpaceOnUse" gradientTransform="translate(148.797 129.44) rotate(-46.6511) scale(217.113 217.113)">
<stop offset="0.259615" stop-color="#406B92"/>
<stop offset="0.548077" stop-color="#252847"/>
<stop offset="1" stop-color="#09152F"/>
</radialGradient>
<radialGradient id="paint1_radial_10393_4414" cx="0" cy="0" r="1" gradientUnits="userSpaceOnUse" gradientTransform="translate(103.883 90.6498) rotate(73.4319) scale(59.7737 59.7737)">
<stop stop-color="#036688"/>
<stop offset="1" stop-color="#065975" stop-opacity="0"/>
</radialGradient>
<radialGradient id="paint2_radial_10393_4414" cx="0" cy="0" r="1" gradientUnits="userSpaceOnUse" gradientTransform="translate(92.5719 63.7754) rotate(63.2364) scale(62.9692 62.9692)">
<stop stop-color="#DE54C5"/>
<stop offset="1" stop-color="#DE548B" stop-opacity="0"/>
</radialGradient>
<radialGradient id="paint3_radial_10393_4414" cx="0" cy="0" r="1" gradientUnits="userSpaceOnUse" gradientTransform="translate(120.928 65.1911) rotate(90) scale(69.2308 69.2308)">
<stop offset="0.529412" stop-color="#1B1F46"/>
<stop offset="1" stop-color="#1B1F46" stop-opacity="0"/>
</radialGradient>
<radialGradient id="paint4_radial_10393_4414" cx="0" cy="0" r="1" gradientUnits="userSpaceOnUse" gradientTransform="translate(62.9936 40.1823) rotate(-90) scale(5.99065)">
<stop offset="0.206731" stop-color="#FFF4DE"/>
<stop offset="0.509615" stop-color="#FFF4DE" stop-opacity="0.29697"/>
<stop offset="1" stop-color="#FFF4DE" stop-opacity="0"/>
</radialGradient>
<radialGradient id="paint5_radial_10393_4414" cx="0" cy="0" r="1" gradientUnits="userSpaceOnUse" gradientTransform="translate(40.8718 21.5288) rotate(-90) scale(3.95282)">
<stop offset="0.206731" stop-color="#FFF4DE"/>
<stop offset="0.509615" stop-color="#FFF4DE" stop-opacity="0.29697"/>
<stop offset="1" stop-color="#FFF4DE" stop-opacity="0"/>
</radialGradient>
<radialGradient id="paint6_radial_10393_4414" cx="0" cy="0" r="1" gradientUnits="userSpaceOnUse" gradientTransform="translate(36.9175 70.7012) rotate(-90) scale(5.94389)">
<stop offset="0.206731" stop-color="#FFF4DE"/>
<stop offset="0.509615" stop-color="#FFF4DE" stop-opacity="0.29697"/>
<stop offset="1" stop-color="#FFF4DE" stop-opacity="0"/>
</radialGradient>
<radialGradient id="paint7_radial_10393_4414" cx="0" cy="0" r="1" gradientUnits="userSpaceOnUse" gradientTransform="translate(21.0759 86.9216) rotate(-90) scale(3.95282)">
<stop offset="0.206731" stop-color="#FFF4DE"/>
<stop offset="0.509615" stop-color="#FFF4DE" stop-opacity="0.29697"/>
<stop offset="1" stop-color="#FFF4DE" stop-opacity="0"/>
</radialGradient>
<radialGradient id="paint8_radial_10393_4414" cx="0" cy="0" r="1" gradientUnits="userSpaceOnUse" gradientTransform="translate(84.7487 113.501) rotate(-90) scale(3.95282)">
<stop offset="0.206731" stop-color="#FFF4DE"/>
<stop offset="0.509615" stop-color="#FFF4DE" stop-opacity="0.29697"/>
<stop offset="1" stop-color="#FFF4DE" stop-opacity="0"/>
</radialGradient>
<radialGradient id="paint9_radial_10393_4414" cx="0" cy="0" r="1" gradientUnits="userSpaceOnUse" gradientTransform="translate(59.0397 61.7307) rotate(-90) scale(3.95282)">
<stop offset="0.206731" stop-color="#FFF4DE"/>
<stop offset="0.509615" stop-color="#FFF4DE" stop-opacity="0.29697"/>
<stop offset="1" stop-color="#FFF4DE" stop-opacity="0"/>
</radialGradient>
<radialGradient id="paint10_radial_10393_4414" cx="0" cy="0" r="1" gradientUnits="userSpaceOnUse" gradientTransform="translate(135.05 13.8968) rotate(-90) scale(5.81994)">
<stop offset="0.206731" stop-color="#FFF4DE"/>
<stop offset="0.509615" stop-color="#FFF4DE" stop-opacity="0.29697"/>
<stop offset="1" stop-color="#FFF4DE" stop-opacity="0"/>
</radialGradient>
<radialGradient id="paint11_radial_10393_4414" cx="0" cy="0" r="1" gradientUnits="userSpaceOnUse" gradientTransform="translate(36.9186 104.166) rotate(-90) scale(3.95282)">
<stop offset="0.206731" stop-color="#FFF4DE"/>
<stop offset="0.509615" stop-color="#FFF4DE" stop-opacity="0.29697"/>
<stop offset="1" stop-color="#FFF4DE" stop-opacity="0"/>
</radialGradient>
<radialGradient id="paint12_radial_10393_4414" cx="0" cy="0" r="1" gradientUnits="userSpaceOnUse" gradientTransform="translate(76.8434 22.2182) rotate(-90) scale(3.95282)">
<stop offset="0.206731" stop-color="#FFF4DE"/>
<stop offset="0.509615" stop-color="#FFF4DE" stop-opacity="0.29697"/>
<stop offset="1" stop-color="#FFF4DE" stop-opacity="0"/>
</radialGradient>
<radialGradient id="paint13_radial_10393_4414" cx="0" cy="0" r="1" gradientUnits="userSpaceOnUse" gradientTransform="translate(198.363 61.732) rotate(-90) scale(6.97829)">
<stop offset="0.206731" stop-color="#FFF4DE"/>
<stop offset="0.509615" stop-color="#FFF4DE" stop-opacity="0.29697"/>
<stop offset="1" stop-color="#FFF4DE" stop-opacity="0"/>
</radialGradient>
<radialGradient id="paint14_radial_10393_4414" cx="0" cy="0" r="1" gradientUnits="userSpaceOnUse" gradientTransform="translate(190.579 90.1667) rotate(-90) scale(3.95282)">
<stop offset="0.206731" stop-color="#FFF4DE"/>
<stop offset="0.509615" stop-color="#FFF4DE" stop-opacity="0.29697"/>
<stop offset="1" stop-color="#FFF4DE" stop-opacity="0"/>
</radialGradient>
<radialGradient id="paint15_radial_10393_4414" cx="0" cy="0" r="1" gradientUnits="userSpaceOnUse" gradientTransform="translate(170.071 105.595) rotate(-90) scale(3.95282)">
<stop offset="0.206731" stop-color="#FFF4DE"/>
<stop offset="0.509615" stop-color="#FFF4DE" stop-opacity="0.29697"/>
<stop offset="1" stop-color="#FFF4DE" stop-opacity="0"/>
</radialGradient>
<radialGradient id="paint16_radial_10393_4414" cx="0" cy="0" r="1" gradientUnits="userSpaceOnUse" gradientTransform="translate(203.244 109.548) rotate(-90) scale(3.95282)">
<stop offset="0.206731" stop-color="#FFF4DE"/>
<stop offset="0.509615" stop-color="#FFF4DE" stop-opacity="0.29697"/>
<stop offset="1" stop-color="#FFF4DE" stop-opacity="0"/>
</radialGradient>
<radialGradient id="paint17_radial_10393_4414" cx="0" cy="0" r="1" gradientUnits="userSpaceOnUse" gradientTransform="translate(207.197 26.1711) rotate(-90) scale(3.95282)">
<stop offset="0.206731" stop-color="#FFF4DE"/>
<stop offset="0.509615" stop-color="#FFF4DE" stop-opacity="0.29697"/>
<stop offset="1" stop-color="#FFF4DE" stop-opacity="0"/>
</radialGradient>
<radialGradient id="paint18_radial_10393_4414" cx="0" cy="0" r="1" gradientUnits="userSpaceOnUse" gradientTransform="translate(222.092 83.2143) rotate(-90) scale(3.95282)">
<stop offset="0.206731" stop-color="#FFF4DE"/>
<stop offset="0.509615" stop-color="#FFF4DE" stop-opacity="0.29697"/>
<stop offset="1" stop-color="#FFF4DE" stop-opacity="0"/>
</radialGradient>
<radialGradient id="paint19_radial_10393_4414" cx="0" cy="0" r="1" gradientUnits="userSpaceOnUse" gradientTransform="translate(190.492 39.8155) rotate(-90) scale(5.62387)">
<stop offset="0.206731" stop-color="#FFF4DE"/>
<stop offset="0.509615" stop-color="#FFF4DE" stop-opacity="0.29697"/>
<stop offset="1" stop-color="#FFF4DE" stop-opacity="0"/>
</radialGradient>
<radialGradient id="paint20_radial_10393_4414" cx="0" cy="0" r="1" gradientTransform="matrix(62.2406 67.7926 -67.7908 62.2423 83.288 35.5738)" gradientUnits="userSpaceOnUse">
<stop stop-color="#0598CB"/>
<stop offset="0.505721" stop-color="#0285AB"/>
<stop offset="0.73987" stop-color="#384491"/>
<stop offset="1" stop-color="#072054"/>
</radialGradient>
<radialGradient id="paint21_radial_10393_4414" cx="0" cy="0" r="1" gradientUnits="userSpaceOnUse" gradientTransform="translate(88.8522 30.5725) rotate(51.0929) scale(71.1806 100.527)">
<stop offset="0.176948" stop-color="#0595C8" stop-opacity="0"/>
<stop offset="0.37253" stop-color="#05EEFD" stop-opacity="0.8"/>
<stop offset="0.579854" stop-color="#05EEFD"/>
<stop offset="0.831187" stop-color="#066699" stop-opacity="0"/>
</radialGradient>
<radialGradient id="paint22_radial_10393_4414" cx="0" cy="0" r="1" gradientTransform="matrix(25.077 35.9678 -80.2188 55.9322 96.041 82.904)" gradientUnits="userSpaceOnUse">
<stop stop-color="#F876FF"/>
<stop offset="1" stop-color="#F577FC" stop-opacity="0"/>
</radialGradient>
<radialGradient id="paint23_radial_10393_4414" cx="0" cy="0" r="1" gradientUnits="userSpaceOnUse" gradientTransform="translate(100.232 57.1249) rotate(50.227) scale(71.1506 89.1708)">
<stop offset="0.530125" stop-color="#0A1942" stop-opacity="0"/>
<stop offset="1" stop-color="#0A1942"/>
</radialGradient>
<radialGradient id="paint24_radial_10393_4414" cx="0" cy="0" r="1" gradientTransform="matrix(2.2127 51.2082 -51.2069 2.21276 111.295 64.7113)" gradientUnits="userSpaceOnUse">
<stop offset="0.7645" stop-color="#0595C8" stop-opacity="0"/>
<stop offset="0.973144" stop-color="#FFE7AE"/>
</radialGradient>
<radialGradient id="paint25_radial_10393_4414" cx="0" cy="0" r="1" gradientUnits="userSpaceOnUse" gradientTransform="translate(82.2117 20.7705) rotate(132.571) scale(67.3717 47.4571)">
<stop offset="0.408654" stop-color="#CF9FFF"/>
<stop offset="0.639423" stop-color="#FFF4DB" stop-opacity="0.6"/>
<stop offset="0.808369" stop-color="#FFF4DB" stop-opacity="0"/>
</radialGradient>
<radialGradient id="paint26_radial_10393_4414" cx="0" cy="0" r="1" gradientUnits="userSpaceOnUse" gradientTransform="translate(114.65 66.3619) rotate(59.4066) scale(19.4872 82.0509)">
<stop offset="0.725962" stop-color="#7B6D4A" stop-opacity="0"/>
<stop offset="0.899038" stop-color="#FFF2D1"/>
</radialGradient>
</defs>
</svg>
