<svg viewBox="0 0 240 120" fill="none" xmlns="http://www.w3.org/2000/svg">
<path d="M168.336 39.8208C153.294 39.7071 133.747 55.3566 155.365 69.7193C169.451 93.6542 185.973 72.2351 187.539 58.1321C189.161 43.5251 191.531 37.5902 192.847 35.312C193.234 34.6427 193.065 33.574 192.392 33.1937C191.955 32.9471 191.405 33.0279 191.026 33.356C189.053 35.0644 182.212 39.9257 168.336 39.8208Z" fill="url(#paint0_linear_1515_35568)"/>
<path d="M168.336 39.8208C153.294 39.7071 133.747 55.3566 155.365 69.7193C169.451 93.6542 185.973 72.2351 187.539 58.1321C189.161 43.5251 191.531 37.5902 192.847 35.312C193.234 34.6427 193.065 33.574 192.392 33.1937C191.955 32.9471 191.405 33.0279 191.026 33.356C189.053 35.0644 182.212 39.9257 168.336 39.8208Z" fill="url(#paint1_linear_1515_35568)"/>
<path d="M51.9954 67.3207C59.2551 53.0921 86.5494 46.9153 90 67.9998C99.5787 86.8941 72.6739 97.0158 58.619 91.5845C44.3109 86.0553 37.7559 86.2968 35.0157 87.028C34.3148 87.215 33.2282 86.6184 33.2028 85.8934C33.1885 85.4865 33.4704 85.126 33.861 85.0111C36.3426 84.2809 45.098 80.8393 51.9954 67.3207Z" fill="url(#paint2_linear_1515_35568)"/>
<path d="M51.9954 67.3207C59.2551 53.0921 86.5494 46.9153 90 67.9998C99.5787 86.8941 72.6739 97.0158 58.619 91.5845C44.3109 86.0553 37.7559 86.2968 35.0157 87.028C34.3148 87.215 33.2282 86.6184 33.2028 85.8934C33.1885 85.4865 33.4704 85.126 33.861 85.0111C36.3426 84.2809 45.098 80.8393 51.9954 67.3207Z" fill="url(#paint3_linear_1515_35568)"/>
<path d="M59.7302 38.4006C68.1873 35.4634 79.4813 42.3538 72.6953 52.2195C69.2373 63.5775 56.57 58.4336 52.9937 50.7833C49.3528 42.9952 46.6082 40.5493 45.2163 39.7817C44.8603 39.5853 44.6524 38.9224 44.9234 38.6194C45.0755 38.4493 45.3294 38.4128 45.5319 38.5179C46.8189 39.1856 51.6951 41.1912 59.7302 38.4006Z" fill="url(#paint4_linear_1515_35568)"/>
<path d="M59.7302 38.4006C68.1873 35.4634 79.4813 42.3538 72.6953 52.2195C69.2373 63.5775 56.57 58.4336 52.9937 50.7833C49.3528 42.9952 46.6082 40.5493 45.2163 39.7817C44.8603 39.5853 44.6524 38.9224 44.9234 38.6194C45.0755 38.4493 45.3294 38.4128 45.5319 38.5179C46.8189 39.1856 51.6951 41.1912 59.7302 38.4006Z" fill="url(#paint5_linear_1515_35568)"/>
<path d="M161.242 44.4495C163.927 37.8146 160.61 31.1796 155.713 22.0171L118.272 52.5063L123.802 65.9341C130.015 63.9858 142.759 56.9612 149.078 57.0875C156.976 57.2455 158.556 51.0845 161.242 44.4495Z" fill="url(#paint6_linear_1515_35568)"/>
<path d="M161.242 44.4495C163.927 37.8146 160.61 31.1796 155.713 22.0171L118.272 52.5063L123.802 65.9341C130.015 63.9858 142.759 56.9612 149.078 57.0875C156.976 57.2455 158.556 51.0845 161.242 44.4495Z" fill="url(#paint7_radial_1515_35568)"/>
<path d="M123.044 19.5212C118.492 21.5139 114.513 27.6734 113.093 30.5041L118.668 36.6072C124.068 32.9393 134.71 24.7278 134.079 21.2254C133.448 17.723 135.339 11.8568 136.363 9.3616L134.171 9.18124C132.358 11.7976 127.596 17.5285 123.044 19.5212Z" fill="url(#paint8_linear_1515_35568)"/>
<path d="M123.044 19.5212C118.492 21.5139 114.513 27.6734 113.093 30.5041L118.668 36.6072C124.068 32.9393 134.71 24.7278 134.079 21.2254C133.448 17.723 135.339 11.8568 136.363 9.3616L134.171 9.18124C132.358 11.7976 127.596 17.5285 123.044 19.5212Z" fill="url(#paint9_radial_1515_35568)"/>
<path d="M77.7536 27.2264C77.6551 29.8353 78.2982 40.2065 83.0767 43.8144C90.1645 50.6627 102.217 54.4702 107.257 53.8975C107.666 52.0935 107.83 42.9823 106.019 33.9328C103.756 22.6209 91.3368 19.6169 87.3018 19.6068C84.0739 19.5988 79.2001 18.374 77.1668 17.7626L76.0804 19.1314C76.671 20.9601 77.8324 25.1393 77.7536 27.2264Z" fill="url(#paint10_linear_1515_35568)"/>
<path d="M77.7536 27.2264C77.6551 29.8353 78.2982 40.2065 83.0767 43.8144C90.1645 50.6627 102.217 54.4702 107.257 53.8975C107.666 52.0935 107.83 42.9823 106.019 33.9328C103.756 22.6209 91.3368 19.6169 87.3018 19.6068C84.0739 19.5988 79.2001 18.374 77.1668 17.7626L76.0804 19.1314C76.671 20.9601 77.8324 25.1393 77.7536 27.2264Z" fill="url(#paint11_radial_1515_35568)"/>
<path d="M91.1935 98.2413C89.8996 95.3772 86.7084 89.9373 87.7049 84.4234L111.284 45.3778C118.913 45.1665 122.865 73.0966 123.757 83.2793C124.873 96.0078 109.847 99.7495 103.692 101.606C100.248 102.645 95.3429 106.961 93.6738 108.496C93.3142 108.826 92.8006 108.93 92.3437 108.758L91.9748 108.618C91.4145 108.407 91.0786 107.833 91.1572 107.239C91.4449 105.066 91.9966 100.019 91.1935 98.2413Z" fill="url(#paint12_linear_1515_35568)"/>
<path d="M91.1935 98.2413C89.8996 95.3772 86.7084 89.9373 87.7049 84.4234L111.284 45.3778C118.913 45.1665 122.865 73.0966 123.757 83.2793C124.873 96.0078 109.847 99.7495 103.692 101.606C100.248 102.645 95.3429 106.961 93.6738 108.496C93.3142 108.826 92.8006 108.93 92.3437 108.758L91.9748 108.618C91.4145 108.407 91.0786 107.833 91.1572 107.239C91.4449 105.066 91.9966 100.019 91.1935 98.2413Z" fill="url(#paint13_radial_1515_35568)"/>
<path d="M115.816 103.064C114.612 100.813 102.21 91.052 106.001 73.5168L119.803 63.2L125.786 58.4014L131.265 64.7854L131.74 86.1908C130.979 89.8254 128.365 97.8519 123.997 100.881C120.878 103.045 120.56 106.923 120.633 108.964C120.659 109.692 120.141 110.371 119.416 110.451L119.334 110.461C118.708 110.53 118.126 110.13 117.961 109.522C117.489 107.781 116.519 104.378 115.816 103.064Z" fill="url(#paint14_linear_1515_35568)"/>
<path d="M115.816 103.064C114.612 100.813 102.21 91.052 106.001 73.5168L119.803 63.2L125.786 58.4014L131.265 64.7854L131.74 86.1908C130.979 89.8254 128.365 97.8519 123.997 100.881C120.878 103.045 120.56 106.923 120.633 108.964C120.659 109.692 120.141 110.371 119.416 110.451L119.334 110.461C118.708 110.53 118.126 110.13 117.961 109.522C117.489 107.781 116.519 104.378 115.816 103.064Z" fill="url(#paint15_radial_1515_35568)"/>
<path d="M94.4182 43.6597C100.421 42.7119 110.058 46.0293 111.322 59.7731C111.642 63.2626 112.333 63.5013 102.475 69.5676C90.1529 77.1504 78.1468 68.9357 75.6192 61.0369C73.8436 55.4881 63.4924 47.9903 60.9955 46.245C60.6565 46.0081 60.4536 45.6233 60.4536 45.2097C60.4536 44.4144 61.1905 43.8078 61.9794 43.9088C64.5736 44.2409 70.03 44.5453 74.8293 42.238C83.044 38.2886 88.4152 44.6076 94.4182 43.6597Z" fill="url(#paint16_linear_1515_35568)"/>
<path d="M94.4182 43.6597C100.421 42.7119 110.058 46.0293 111.322 59.7731C111.642 63.2626 112.333 63.5013 102.475 69.5676C90.1529 77.1504 78.1468 68.9357 75.6192 61.0369C73.8436 55.4881 63.4924 47.9903 60.9955 46.245C60.6565 46.0081 60.4536 45.6233 60.4536 45.2097C60.4536 44.4144 61.1905 43.8078 61.9794 43.9088C64.5736 44.2409 70.03 44.5453 74.8293 42.238C83.044 38.2886 88.4152 44.6076 94.4182 43.6597Z" fill="url(#paint17_linear_1515_35568)"/>
<path d="M94.4182 43.6597C100.421 42.7119 110.058 46.0293 111.322 59.7731C111.642 63.2626 112.333 63.5013 102.475 69.5676C90.1529 77.1504 78.1468 68.9357 75.6192 61.0369C73.8436 55.4881 63.4924 47.9903 60.9955 46.245C60.6565 46.0081 60.4536 45.6233 60.4536 45.2097C60.4536 44.4144 61.1905 43.8078 61.9794 43.9088C64.5736 44.2409 70.03 44.5453 74.8293 42.238C83.044 38.2886 88.4152 44.6076 94.4182 43.6597Z" fill="url(#paint18_radial_1515_35568)"/>
<path d="M82.4045 82.5735C83.3519 76.8035 91.8925 63.3013 113.223 62.3879C115.753 63.318 119.082 66.1855 112.154 70.214C103.494 75.2495 104.369 79.3549 97.4871 86.5466C91.9819 92.3 83.4842 91.0119 76.8317 91.8572L75.8146 89.9645C77.9161 88.9759 81.6465 87.1894 82.4045 82.5735Z" fill="url(#paint19_linear_1515_35568)"/>
<path d="M82.4045 82.5735C83.3519 76.8035 91.8925 63.3013 113.223 62.3879C115.753 63.318 119.082 66.1855 112.154 70.214C103.494 75.2495 104.369 79.3549 97.4871 86.5466C91.9819 92.3 83.4842 91.0119 76.8317 91.8572L75.8146 89.9645C77.9161 88.9759 81.6465 87.1894 82.4045 82.5735Z" fill="url(#paint20_radial_1515_35568)"/>
<path d="M143.549 19.4895C135.018 18.2257 125.54 23.1229 118.115 33.8652C111.006 44.6076 120.326 50.6105 125.224 53.9279C130.496 57.4995 147.972 46.977 149.868 35.9188C151.118 28.6226 159.762 20.2519 162.753 17.542C163.297 17.0497 163.324 16.2004 162.806 15.682C162.436 15.3119 161.874 15.2104 161.393 15.4169C158.629 16.6029 149.31 20.343 143.549 19.4895Z" fill="url(#paint21_linear_1515_35568)"/>
<path d="M143.549 19.4895C135.018 18.2257 125.54 23.1229 118.115 33.8652C111.006 44.6076 120.326 50.6105 125.224 53.9279C130.496 57.4995 147.972 46.977 149.868 35.9188C151.118 28.6226 159.762 20.2519 162.753 17.542C163.297 17.0497 163.324 16.2004 162.806 15.682C162.436 15.3119 161.874 15.2104 161.393 15.4169C158.629 16.6029 149.31 20.343 143.549 19.4895Z" fill="url(#paint22_linear_1515_35568)"/>
<path d="M143.549 19.4895C135.018 18.2257 125.54 23.1229 118.115 33.8652C111.006 44.6076 120.326 50.6105 125.224 53.9279C130.496 57.4995 147.972 46.977 149.868 35.9188C151.118 28.6226 159.762 20.2519 162.753 17.542C163.297 17.0497 163.324 16.2004 162.806 15.682C162.436 15.3119 161.874 15.2104 161.393 15.4169C158.629 16.6029 149.31 20.343 143.549 19.4895Z" fill="url(#paint23_radial_1515_35568)"/>
<path d="M113.479 22.4875C119.163 27.3067 126.552 41.0018 117.7 54.8366C98.7461 53.0061 96.9305 36.4329 99.5603 28.6588C101.664 22.4396 104.325 15.2834 105.393 12.4827L107.085 12.6462C107.322 14.3202 108.932 18.6321 113.479 22.4875Z" fill="url(#paint24_radial_1515_35568)"/>
<path d="M113.479 22.4875C119.163 27.3067 126.552 41.0018 117.7 54.8366C98.7461 53.0061 96.9305 36.4329 99.5603 28.6588C101.664 22.4396 104.325 15.2834 105.393 12.4827L107.085 12.6462C107.322 14.3202 108.932 18.6321 113.479 22.4875Z" fill="url(#paint25_linear_1515_35568)"/>
<path d="M113.479 22.4875C119.163 27.3067 126.552 41.0018 117.7 54.8366C98.7461 53.0061 96.9305 36.4329 99.5603 28.6588C101.664 22.4396 104.325 15.2834 105.393 12.4827L107.085 12.6462C107.322 14.3202 108.932 18.6321 113.479 22.4875Z" fill="url(#paint26_radial_1515_35568)"/>
<path d="M142.442 93.1063C127.472 94.5891 106.581 80.7843 126.802 64.513C138.65 39.3949 157.055 59.2208 159.898 73.1226C162.843 87.5212 165.743 93.2158 167.261 95.3647C167.707 95.996 167.637 97.0757 167.001 97.5156C166.589 97.8009 166.034 97.7705 165.626 97.4783C163.506 95.9566 156.25 91.7385 142.442 93.1063Z" fill="url(#paint27_linear_1515_35568)"/>
<path d="M142.442 93.1063C127.472 94.5891 106.581 80.7843 126.802 64.513C138.65 39.3949 157.055 59.2208 159.898 73.1226C162.843 87.5212 165.743 93.2158 167.261 95.3647C167.707 95.996 167.637 97.0757 167.001 97.5156C166.589 97.8009 166.034 97.7705 165.626 97.4783C163.506 95.9566 156.25 91.7385 142.442 93.1063Z" fill="url(#paint28_linear_1515_35568)"/>
<path d="M142.442 93.1063C127.472 94.5891 106.581 80.7843 126.802 64.513C138.65 39.3949 157.055 59.2208 159.898 73.1226C162.843 87.5212 165.743 93.2158 167.261 95.3647C167.707 95.996 167.637 97.0757 167.001 97.5156C166.589 97.8009 166.034 97.7705 165.626 97.4783C163.506 95.9566 156.25 91.7385 142.442 93.1063Z" fill="url(#paint29_radial_1515_35568)"/>
<path d="M123.994 56.6201C123.994 59.9149 120.839 62.5859 116.947 62.5859C113.055 62.5859 109.899 59.9149 109.899 56.6201C109.899 53.3253 113.055 50.6543 116.947 50.6543C120.839 50.6543 123.994 53.3253 123.994 56.6201Z" fill="url(#paint30_radial_1515_35568)"/>
<path d="M117.124 55.4465C117.124 58.0932 114.978 60.2388 112.332 60.2388C109.685 60.2388 107.54 58.0932 107.54 55.4465C107.54 52.7999 109.685 50.6543 112.332 50.6543C114.978 50.6543 117.124 52.7999 117.124 55.4465Z" fill="url(#paint31_radial_1515_35568)"/>
<path d="M117.124 55.4465C117.124 58.0932 114.978 60.2388 112.332 60.2388C109.685 60.2388 107.54 58.0932 107.54 55.4465C107.54 52.7999 109.685 50.6543 112.332 50.6543C114.978 50.6543 117.124 52.7999 117.124 55.4465Z" fill="url(#paint32_radial_1515_35568)"/>
<path d="M126.803 63.3013C126.803 66.0968 124.537 68.3629 121.741 68.3629C118.946 68.3629 116.68 66.0968 116.68 63.3013C116.68 60.5059 118.946 58.2397 121.741 58.2397C124.537 58.2397 126.803 60.5059 126.803 63.3013Z" fill="url(#paint33_radial_1515_35568)"/>
<path d="M129.583 57.8775C129.583 60.673 127.317 62.9391 124.522 62.9391C121.726 62.9391 119.46 60.673 119.46 57.8775C119.46 55.0821 121.726 52.8159 124.522 52.8159C127.317 52.8159 129.583 55.0821 129.583 57.8775Z" fill="url(#paint34_radial_1515_35568)"/>
<path d="M118.96 62.5609C118.96 64.9474 116.857 66.8821 114.263 66.8821C111.67 66.8821 109.567 64.9474 109.567 62.5609C109.567 60.1744 111.67 58.2397 114.263 58.2397C116.857 58.2397 118.96 60.1744 118.96 62.5609Z" fill="url(#paint35_radial_1515_35568)"/>
<path d="M118.96 62.5609C118.96 64.9474 116.857 66.8821 114.263 66.8821C111.67 66.8821 109.567 64.9474 109.567 62.5609C109.567 60.1744 111.67 58.2397 114.263 58.2397C116.857 58.2397 118.96 60.1744 118.96 62.5609Z" fill="url(#paint36_radial_1515_35568)"/>
<path d="M123.994 52.4531C123.994 55.2477 122.101 57.5132 119.765 57.5132C117.429 57.5132 115.535 55.2477 115.535 52.4531C115.535 49.6585 117.429 47.3931 119.765 47.3931C122.101 47.3931 123.994 49.6585 123.994 52.4531Z" fill="url(#paint37_radial_1515_35568)"/>
<path d="M123.994 52.4531C123.994 55.2477 122.101 57.5132 119.765 57.5132C117.429 57.5132 115.535 55.2477 115.535 52.4531C115.535 49.6585 117.429 47.3931 119.765 47.3931C122.101 47.3931 123.994 49.6585 123.994 52.4531Z" fill="url(#paint38_radial_1515_35568)"/>
<defs>
<linearGradient id="paint0_linear_1515_35568" x1="155.996" y1="73.1517" x2="193.518" y2="30.6972" gradientUnits="userSpaceOnUse">
<stop stop-color="#728D5C"/>
<stop offset="1" stop-color="#8DCA6A"/>
</linearGradient>
<linearGradient id="paint1_linear_1515_35568" x1="169.639" y1="53.9546" x2="185.173" y2="69.8955" gradientUnits="userSpaceOnUse">
<stop stop-color="#312917" stop-opacity="0"/>
<stop offset="0.122372" stop-color="#312917" stop-opacity="0.6"/>
<stop offset="1" stop-color="#312917" stop-opacity="0"/>
</linearGradient>
<linearGradient id="paint2_linear_1515_35568" x1="88.6826" y1="71.3716" x2="30.3059" y2="85.9332" gradientUnits="userSpaceOnUse">
<stop stop-color="#577C3A"/>
<stop offset="1" stop-color="#93E465"/>
</linearGradient>
<linearGradient id="paint3_linear_1515_35568" x1="63.9133" y1="74.8247" x2="71.3256" y2="97.2674" gradientUnits="userSpaceOnUse">
<stop stop-color="#312917" stop-opacity="0"/>
<stop offset="0.122372" stop-color="#312917" stop-opacity="0.6"/>
<stop offset="1" stop-color="#312917" stop-opacity="0"/>
</linearGradient>
<linearGradient id="paint4_linear_1515_35568" x1="72.9951" y1="54.2748" x2="43.7365" y2="37.5114" gradientUnits="userSpaceOnUse">
<stop stop-color="#7DA35E"/>
<stop offset="1" stop-color="#93E267"/>
</linearGradient>
<linearGradient id="paint5_linear_1515_35568" x1="61.6382" y1="46.0599" x2="55.9272" y2="58.0122" gradientUnits="userSpaceOnUse">
<stop stop-color="#312917" stop-opacity="0"/>
<stop offset="0.122372" stop-color="#312917" stop-opacity="0.5"/>
<stop offset="1" stop-color="#312917" stop-opacity="0"/>
</linearGradient>
<linearGradient id="paint6_linear_1515_35568" x1="129.331" y1="55.9817" x2="160.294" y2="39.0784" gradientUnits="userSpaceOnUse">
<stop stop-color="#AA544F"/>
<stop offset="1" stop-color="#BA130F"/>
</linearGradient>
<radialGradient id="paint7_radial_1515_35568" cx="0" cy="0" r="1" gradientUnits="userSpaceOnUse" gradientTransform="translate(136.756 48.8728) rotate(-49.3077) scale(43.1283 13.3517)">
<stop offset="0.442536" stop-color="#A50700"/>
<stop offset="0.917745" stop-color="#C60800" stop-opacity="0"/>
</radialGradient>
<linearGradient id="paint8_linear_1515_35568" x1="122.573" y1="12.5804" x2="128.75" y2="33.6524" gradientUnits="userSpaceOnUse">
<stop stop-color="#F7281C"/>
<stop offset="1" stop-color="#FC5C58"/>
</linearGradient>
<radialGradient id="paint9_radial_1515_35568" cx="0" cy="0" r="1" gradientUnits="userSpaceOnUse" gradientTransform="translate(124.642 30.5479) rotate(-45.6366) scale(20.1082 9.37273)">
<stop offset="0.277596" stop-color="#A50700"/>
<stop offset="0.917745" stop-color="#C60800" stop-opacity="0"/>
</radialGradient>
<linearGradient id="paint10_linear_1515_35568" x1="108.987" y1="29.324" x2="76.6752" y2="28.7248" gradientUnits="userSpaceOnUse">
<stop stop-color="#7B221D"/>
<stop offset="1" stop-color="#FB470E"/>
</linearGradient>
<radialGradient id="paint11_radial_1515_35568" cx="0" cy="0" r="1" gradientUnits="userSpaceOnUse" gradientTransform="translate(96.5695 38.9435) rotate(-109.494) scale(24.5859 14.8894)">
<stop offset="0.334747" stop-color="#A50700"/>
<stop offset="0.917745" stop-color="#C60800" stop-opacity="0"/>
</radialGradient>
<linearGradient id="paint12_linear_1515_35568" x1="109.471" y1="71.3208" x2="105.239" y2="109.259" gradientUnits="userSpaceOnUse">
<stop stop-color="#6B130E"/>
<stop offset="1" stop-color="#EE241F"/>
</linearGradient>
<radialGradient id="paint13_radial_1515_35568" cx="0" cy="0" r="1" gradientUnits="userSpaceOnUse" gradientTransform="translate(105.816 77.2728) rotate(114.641) scale(38.1762 40.1983)">
<stop offset="0.0650098" stop-color="#9D0701"/>
<stop offset="0.748452" stop-color="#C60800" stop-opacity="0"/>
</radialGradient>
<linearGradient id="paint14_linear_1515_35568" x1="120.956" y1="67.8402" x2="122.381" y2="110.121" gradientUnits="userSpaceOnUse">
<stop stop-color="#F00D00"/>
<stop offset="1" stop-color="#FF2A25"/>
</linearGradient>
<radialGradient id="paint15_radial_1515_35568" cx="0" cy="0" r="1" gradientUnits="userSpaceOnUse" gradientTransform="translate(123.084 66.9675) rotate(102.137) scale(49.0323 31.0212)">
<stop offset="0.175105" stop-color="#C60800"/>
<stop offset="0.513318" stop-color="#C60800" stop-opacity="0"/>
</radialGradient>
<linearGradient id="paint16_linear_1515_35568" x1="103.107" y1="51.0845" x2="67.8784" y2="69.8835" gradientUnits="userSpaceOnUse">
<stop stop-color="#F7281C"/>
<stop offset="1" stop-color="#FC5C58"/>
</linearGradient>
<linearGradient id="paint17_linear_1515_35568" x1="93.3124" y1="58.1934" x2="98.8415" y2="43.1857" gradientUnits="userSpaceOnUse">
<stop stop-color="#C60800" stop-opacity="0"/>
<stop offset="0.0979235" stop-color="#C60800"/>
<stop offset="1" stop-color="#FA433B" stop-opacity="0"/>
</linearGradient>
<radialGradient id="paint18_radial_1515_35568" cx="0" cy="0" r="1" gradientUnits="userSpaceOnUse" gradientTransform="translate(75.3539 64.8283) rotate(-54.0193) scale(14.2511 22.9726)">
<stop stop-color="#FF9960"/>
<stop offset="1" stop-color="#FF9F80" stop-opacity="0"/>
<stop offset="1" stop-color="#FF9960" stop-opacity="0"/>
</radialGradient>
<linearGradient id="paint19_linear_1515_35568" x1="103.947" y1="77.2731" x2="86.0962" y2="69.0937" gradientUnits="userSpaceOnUse">
<stop stop-color="#EC0D00"/>
<stop offset="1" stop-color="#FF6F6B"/>
</linearGradient>
<radialGradient id="paint20_radial_1515_35568" cx="0" cy="0" r="1" gradientUnits="userSpaceOnUse" gradientTransform="translate(86.2541 74.7808) rotate(-51.8144) scale(17.8875 10.4526)">
<stop stop-color="#FF9960"/>
<stop offset="1" stop-color="#FF9F80" stop-opacity="0"/>
<stop offset="1" stop-color="#FF9960" stop-opacity="0"/>
</radialGradient>
<linearGradient id="paint21_linear_1515_35568" x1="135.808" y1="48.3989" x2="152.523" y2="25.7612" gradientUnits="userSpaceOnUse">
<stop stop-color="#F7281C"/>
<stop offset="1" stop-color="#FC5C58"/>
</linearGradient>
<linearGradient id="paint22_linear_1515_35568" x1="143.391" y1="28.968" x2="155.081" y2="45.2394" gradientUnits="userSpaceOnUse">
<stop stop-color="#C60800" stop-opacity="0"/>
<stop offset="0.0979235" stop-color="#C60800"/>
<stop offset="1" stop-color="#FA433B" stop-opacity="0"/>
</linearGradient>
<radialGradient id="paint23_radial_1515_35568" cx="0" cy="0" r="1" gradientUnits="userSpaceOnUse" gradientTransform="translate(119.587 30.0738) rotate(-43.134) scale(27.4957 11.488)">
<stop stop-color="#FF9960"/>
<stop offset="1" stop-color="#FF9F80" stop-opacity="0"/>
<stop offset="1" stop-color="#FF9960" stop-opacity="0"/>
</radialGradient>
<radialGradient id="paint24_radial_1515_35568" cx="0" cy="0" r="1" gradientUnits="userSpaceOnUse" gradientTransform="translate(108.438 37.5443) rotate(75.2915) scale(24.0984 14.0679)">
<stop stop-color="#F7281C"/>
<stop offset="1" stop-color="#FF322D"/>
</radialGradient>
<linearGradient id="paint25_linear_1515_35568" x1="110.648" y1="33.5729" x2="121.407" y2="30.598" gradientUnits="userSpaceOnUse">
<stop stop-color="#C60800" stop-opacity="0"/>
<stop offset="0.0979235" stop-color="#C60800"/>
<stop offset="1" stop-color="#FA433B" stop-opacity="0"/>
</linearGradient>
<radialGradient id="paint26_radial_1515_35568" cx="0" cy="0" r="1" gradientUnits="userSpaceOnUse" gradientTransform="translate(98.734 38.7623) rotate(-81.2538) scale(22.8562 12.1062)">
<stop stop-color="#FF9960"/>
<stop offset="1" stop-color="#FF9F80" stop-opacity="0"/>
<stop offset="1" stop-color="#FF9960" stop-opacity="0"/>
</radialGradient>
<linearGradient id="paint27_linear_1515_35568" x1="127.118" y1="61.0373" x2="168.35" y2="99.8992" gradientUnits="userSpaceOnUse">
<stop stop-color="#F7281C"/>
<stop offset="1" stop-color="#FC5C58"/>
</linearGradient>
<linearGradient id="paint28_linear_1515_35568" x1="142.126" y1="79.8364" x2="159.819" y2="57.5619" gradientUnits="userSpaceOnUse">
<stop stop-color="#C60800" stop-opacity="0"/>
<stop offset="0.0979235" stop-color="#C60800"/>
<stop offset="1" stop-color="#C60800" stop-opacity="0"/>
</linearGradient>
<radialGradient id="paint29_radial_1515_35568" cx="0" cy="0" r="1" gradientUnits="userSpaceOnUse" gradientTransform="translate(100.945 85.5235) rotate(-9.58295) scale(37.0087 37.0086)">
<stop stop-color="#FF9960"/>
<stop offset="1" stop-color="#FF9F80" stop-opacity="0"/>
<stop offset="1" stop-color="#FF9960" stop-opacity="0"/>
</radialGradient>
<radialGradient id="paint30_radial_1515_35568" cx="0" cy="0" r="1" gradientUnits="userSpaceOnUse" gradientTransform="translate(115.305 55.5775) rotate(76.8137) scale(7.19813 8.3775)">
<stop offset="0.562059" stop-color="#EFC42B"/>
<stop offset="1" stop-color="#899814"/>
</radialGradient>
<radialGradient id="paint31_radial_1515_35568" cx="0" cy="0" r="1" gradientUnits="userSpaceOnUse" gradientTransform="translate(111.215 54.6091) rotate(78.7813) scale(5.73937)">
<stop offset="0.562059" stop-color="#FFDC5F"/>
<stop offset="1" stop-color="#B2C70C"/>
</radialGradient>
<radialGradient id="paint32_radial_1515_35568" cx="0" cy="0" r="1" gradientUnits="userSpaceOnUse" gradientTransform="translate(110.861 53.4061) rotate(75.3667) scale(3.34979 3.38855)">
<stop stop-color="#FEFFED"/>
<stop offset="1" stop-color="#F9FFB4" stop-opacity="0"/>
</radialGradient>
<radialGradient id="paint33_radial_1515_35568" cx="0" cy="0" r="1" gradientUnits="userSpaceOnUse" gradientTransform="translate(120.562 62.4168) rotate(78.7813) scale(6.06197)">
<stop offset="0.562059" stop-color="#FFDC5F"/>
<stop offset="1" stop-color="#B2C70C"/>
</radialGradient>
<radialGradient id="paint34_radial_1515_35568" cx="0" cy="0" r="1" gradientUnits="userSpaceOnUse" gradientTransform="translate(123.342 56.993) rotate(78.7813) scale(6.06197)">
<stop offset="0.562059" stop-color="#FFDC5F"/>
<stop offset="1" stop-color="#B2C70C"/>
</radialGradient>
<radialGradient id="paint35_radial_1515_35568" cx="0" cy="0" r="1" gradientUnits="userSpaceOnUse" gradientTransform="translate(113.169 61.8058) rotate(77.8346) scale(5.19293 5.6056)">
<stop offset="0.562059" stop-color="#FFDC5F"/>
<stop offset="1" stop-color="#B2C70C"/>
</radialGradient>
<radialGradient id="paint36_radial_1515_35568" cx="0" cy="0" r="1" gradientUnits="userSpaceOnUse" gradientTransform="translate(112.822 60.7211) rotate(74.1569) scale(3.03794 3.30186)">
<stop stop-color="#FEFFED"/>
<stop offset="1" stop-color="#F9FFB4" stop-opacity="0"/>
</radialGradient>
<radialGradient id="paint37_radial_1515_35568" cx="0" cy="0" r="1" gradientUnits="userSpaceOnUse" gradientTransform="translate(118.779 51.5688) rotate(80.5864) scale(6.02545 5.09468)">
<stop offset="0.562059" stop-color="#FFDC5F"/>
<stop offset="1" stop-color="#B2C70C"/>
</radialGradient>
<radialGradient id="paint38_radial_1515_35568" cx="0" cy="0" r="1" gradientUnits="userSpaceOnUse" gradientTransform="translate(118.467 50.2987) rotate(77.6883) scale(3.50282 3.0199)">
<stop stop-color="#FEFFED"/>
<stop offset="1" stop-color="#F9FFB4" stop-opacity="0"/>
</radialGradient>
</defs>
</svg>
