<svg viewBox="0 0 240 120" fill="none" xmlns="http://www.w3.org/2000/svg">
<path d="M113.595 2.46545C122.106 2.46545 129.696 6.23819 134.662 12.1334C137.22 8.11231 141.819 5.41812 147.084 5.41768C154.183 5.41768 160.096 10.2997 161.385 16.7578C166.207 10.3938 174.018 6.25181 182.84 6.25151C197.488 6.25151 209.365 17.6606 209.365 31.7308C209.364 32.9068 209.273 34.0631 209.112 35.1968C209.769 35.1097 210.44 35.0616 211.122 35.0616C219.165 35.062 225.685 41.3269 225.685 49.052C225.684 54.0064 222.993 58.3447 218.947 60.8293C224.38 64.551 227.93 70.6481 227.93 77.5466C227.93 85.2979 223.453 92.0419 216.851 95.5349C216.871 96.2644 216.887 96.996 216.887 97.7299H210.442C209.182 97.9522 207.883 98.0724 206.557 98.0724C205.229 98.0724 203.931 97.9523 202.671 97.7299H33.6644C32.3832 97.9526 31.0641 98.0769 29.7161 98.0769C28.3679 98.0769 27.0491 97.9527 25.7678 97.7299H22.4009C22.4009 97.4456 22.4113 97.1617 22.4144 96.878C13.8401 93.9842 7.69004 86.1447 7.68933 76.9201C7.68933 65.4036 17.2702 56.0392 29.1932 55.7722C22.2034 51.0296 17.6325 43.2171 17.6322 34.372C17.6322 19.9054 29.8441 8.17609 44.9054 8.17609C52.8515 8.17653 60.0009 11.4451 64.985 16.6542C66.5667 10.5725 72.2935 6.06672 79.1151 6.06672C84.5224 6.067 89.2325 8.90395 91.7443 13.107C96.6742 6.65504 104.625 2.46585 113.595 2.46545Z" fill="url(#paint0_radial_10664_38080)"/>
<path d="M113.595 2.46545C122.106 2.46545 129.696 6.23819 134.662 12.1334C137.22 8.11231 141.819 5.41812 147.084 5.41768C154.183 5.41768 160.096 10.2997 161.385 16.7578C166.207 10.3938 174.018 6.25181 182.84 6.25151C197.488 6.25151 209.365 17.6606 209.365 31.7308C209.364 32.9068 209.273 34.0631 209.112 35.1968C209.769 35.1097 210.44 35.0616 211.122 35.0616C219.165 35.062 225.685 41.3269 225.685 49.052C225.684 54.0064 222.993 58.3447 218.947 60.8293C224.38 64.551 227.93 70.6481 227.93 77.5466C227.93 85.2979 223.453 92.0419 216.851 95.5349C216.871 96.2644 216.887 96.996 216.887 97.7299H210.442C209.182 97.9522 207.883 98.0724 206.557 98.0724C205.229 98.0724 203.931 97.9523 202.671 97.7299H33.6644C32.3832 97.9526 31.0641 98.0769 29.7161 98.0769C28.3679 98.0769 27.0491 97.9527 25.7678 97.7299H22.4009C22.4009 97.4456 22.4113 97.1617 22.4144 96.878C13.8401 93.9842 7.69004 86.1447 7.68933 76.9201C7.68933 65.4036 17.2702 56.0392 29.1932 55.7722C22.2034 51.0296 17.6325 43.2171 17.6322 34.372C17.6322 19.9054 29.8441 8.17609 44.9054 8.17609C52.8515 8.17653 60.0009 11.4451 64.985 16.6542C66.5667 10.5725 72.2935 6.06672 79.1151 6.06672C84.5224 6.067 89.2325 8.90395 91.7443 13.107C96.6742 6.65504 104.625 2.46585 113.595 2.46545Z" fill="url(#paint1_radial_10664_38080)"/>
<path d="M113.595 2.46545C122.106 2.46545 129.696 6.23819 134.662 12.1334C137.22 8.11231 141.819 5.41812 147.084 5.41768C154.183 5.41768 160.096 10.2997 161.385 16.7578C166.207 10.3938 174.018 6.25181 182.84 6.25151C197.488 6.25151 209.365 17.6606 209.365 31.7308C209.364 32.9068 209.273 34.0631 209.112 35.1968C209.769 35.1097 210.44 35.0616 211.122 35.0616C219.165 35.062 225.685 41.3269 225.685 49.052C225.684 54.0064 222.993 58.3447 218.947 60.8293C224.38 64.551 227.93 70.6481 227.93 77.5466C227.93 85.2979 223.453 92.0419 216.851 95.5349C216.871 96.2644 216.887 96.996 216.887 97.7299H210.442C209.182 97.9522 207.883 98.0724 206.557 98.0724C205.229 98.0724 203.931 97.9523 202.671 97.7299H33.6644C32.3832 97.9526 31.0641 98.0769 29.7161 98.0769C28.3679 98.0769 27.0491 97.9527 25.7678 97.7299H22.4009C22.4009 97.4456 22.4113 97.1617 22.4144 96.878C13.8401 93.9842 7.69004 86.1447 7.68933 76.9201C7.68933 65.4036 17.2702 56.0392 29.1932 55.7722C22.2034 51.0296 17.6325 43.2171 17.6322 34.372C17.6322 19.9054 29.8441 8.17609 44.9054 8.17609C52.8515 8.17653 60.0009 11.4451 64.985 16.6542C66.5667 10.5725 72.2935 6.06672 79.1151 6.06672C84.5224 6.067 89.2325 8.90395 91.7443 13.107C96.6742 6.65504 104.625 2.46585 113.595 2.46545Z" fill="url(#paint2_radial_10664_38080)"/>
<path d="M113.595 2.46545C122.106 2.46545 129.696 6.23819 134.662 12.1334C137.22 8.11231 141.819 5.41812 147.084 5.41768C154.183 5.41768 160.096 10.2997 161.385 16.7578C166.207 10.3938 174.018 6.25181 182.84 6.25151C197.488 6.25151 209.365 17.6606 209.365 31.7308C209.364 32.9068 209.273 34.0631 209.112 35.1968C209.769 35.1097 210.44 35.0616 211.122 35.0616C219.165 35.062 225.685 41.3269 225.685 49.052C225.684 54.0064 222.993 58.3447 218.947 60.8293C224.38 64.551 227.93 70.6481 227.93 77.5466C227.93 85.2979 223.453 92.0419 216.851 95.5349C216.871 96.2644 216.887 96.996 216.887 97.7299H210.442C209.182 97.9522 207.883 98.0724 206.557 98.0724C205.229 98.0724 203.931 97.9523 202.671 97.7299H33.6644C32.3832 97.9526 31.0641 98.0769 29.7161 98.0769C28.3679 98.0769 27.0491 97.9527 25.7678 97.7299H22.4009C22.4009 97.4456 22.4113 97.1617 22.4144 96.878C13.8401 93.9842 7.69004 86.1447 7.68933 76.9201C7.68933 65.4036 17.2702 56.0392 29.1932 55.7722C22.2034 51.0296 17.6325 43.2171 17.6322 34.372C17.6322 19.9054 29.8441 8.17609 44.9054 8.17609C52.8515 8.17653 60.0009 11.4451 64.985 16.6542C66.5667 10.5725 72.2935 6.06672 79.1151 6.06672C84.5224 6.067 89.2325 8.90395 91.7443 13.107C96.6742 6.65504 104.625 2.46585 113.595 2.46545Z" fill="url(#paint3_radial_10664_38080)"/>
<path d="M113.595 2.46545C122.106 2.46545 129.696 6.23819 134.662 12.1334C137.22 8.11231 141.819 5.41812 147.084 5.41768C154.183 5.41768 160.096 10.2997 161.385 16.7578C166.207 10.3938 174.018 6.25181 182.84 6.25151C197.488 6.25151 209.365 17.6606 209.365 31.7308C209.364 32.9068 209.273 34.0631 209.112 35.1968C209.769 35.1097 210.44 35.0616 211.122 35.0616C219.165 35.062 225.685 41.3269 225.685 49.052C225.684 54.0064 222.993 58.3447 218.947 60.8293C224.38 64.551 227.93 70.6481 227.93 77.5466C227.93 85.2979 223.453 92.0419 216.851 95.5349C216.871 96.2644 216.887 96.996 216.887 97.7299H210.442C209.182 97.9522 207.883 98.0724 206.557 98.0724C205.229 98.0724 203.931 97.9523 202.671 97.7299H33.6644C32.3832 97.9526 31.0641 98.0769 29.7161 98.0769C28.3679 98.0769 27.0491 97.9527 25.7678 97.7299H22.4009C22.4009 97.4456 22.4113 97.1617 22.4144 96.878C13.8401 93.9842 7.69004 86.1447 7.68933 76.9201C7.68933 65.4036 17.2702 56.0392 29.1932 55.7722C22.2034 51.0296 17.6325 43.2171 17.6322 34.372C17.6322 19.9054 29.8441 8.17609 44.9054 8.17609C52.8515 8.17653 60.0009 11.4451 64.985 16.6542C66.5667 10.5725 72.2935 6.06672 79.1151 6.06672C84.5224 6.067 89.2325 8.90395 91.7443 13.107C96.6742 6.65504 104.625 2.46585 113.595 2.46545Z" fill="url(#paint4_radial_10664_38080)"/>
<path d="M113.595 2.46545C122.106 2.46545 129.696 6.23819 134.662 12.1334C137.22 8.11231 141.819 5.41812 147.084 5.41768C154.183 5.41768 160.096 10.2997 161.385 16.7578C166.207 10.3938 174.018 6.25181 182.84 6.25151C197.488 6.25151 209.365 17.6606 209.365 31.7308C209.364 32.9068 209.273 34.0631 209.112 35.1968C209.769 35.1097 210.44 35.0616 211.122 35.0616C219.165 35.062 225.685 41.3269 225.685 49.052C225.684 54.0064 222.993 58.3447 218.947 60.8293C224.38 64.551 227.93 70.6481 227.93 77.5466C227.93 85.2979 223.453 92.0419 216.851 95.5349C216.871 96.2644 216.887 96.996 216.887 97.7299H210.442C209.182 97.9522 207.883 98.0724 206.557 98.0724C205.229 98.0724 203.931 97.9523 202.671 97.7299H33.6644C32.3832 97.9526 31.0641 98.0769 29.7161 98.0769C28.3679 98.0769 27.0491 97.9527 25.7678 97.7299H22.4009C22.4009 97.4456 22.4113 97.1617 22.4144 96.878C13.8401 93.9842 7.69004 86.1447 7.68933 76.9201C7.68933 65.4036 17.2702 56.0392 29.1932 55.7722C22.2034 51.0296 17.6325 43.2171 17.6322 34.372C17.6322 19.9054 29.8441 8.17609 44.9054 8.17609C52.8515 8.17653 60.0009 11.4451 64.985 16.6542C66.5667 10.5725 72.2935 6.06672 79.1151 6.06672C84.5224 6.067 89.2325 8.90395 91.7443 13.107C96.6742 6.65504 104.625 2.46585 113.595 2.46545Z" fill="url(#paint5_radial_10664_38080)"/>
<path d="M126.528 83.7875C126.528 90.1455 121.374 95.2996 115.016 95.2996C108.658 95.2996 103.504 90.1455 103.504 83.7875C103.504 77.4295 108.658 72.2754 115.016 72.2754C121.374 72.2754 126.528 77.4295 126.528 83.7875Z" fill="url(#paint6_linear_10664_38080)"/>
<path d="M169.733 74.2924C170.479 74.2924 172.125 77.0057 173.618 77.0057H182.871C183.767 77.0057 183.469 74.2927 185.111 74.2924H191.98C193.174 74.2964 194.818 81.347 196.609 81.0757C198.401 80.8048 201.386 81.0757 203.027 81.0757C204.669 81.0761 205.117 84.6047 206.759 84.6049H212.285C213.48 84.6129 215.716 92.6671 216.86 96.1929H115.015L123.966 84.2848L124.102 80.0345C124.125 79.2874 124.738 78.6959 125.485 78.6959H129.727C130.136 78.6959 130.47 78.3618 130.47 77.9522C130.47 77.7064 130.671 77.506 130.916 77.506H137.15C137.664 77.506 138.083 77.9244 138.083 78.439C138.083 79.2957 138.777 79.9884 139.633 79.9895H144.952C145.996 79.9892 145.998 77.1414 147.043 77.0057C148.099 76.8705 157.635 77.0056 158.834 77.0057C160.028 77.0057 161.075 74.2925 162.12 74.2924H169.733Z" fill="url(#paint7_linear_10664_38080)"/>
<path d="M28.4847 78.3169L22.2634 98.684H107.509V82.8347C106.497 81.5263 104.339 78.7909 103.806 78.3169C103.139 77.7244 101.954 78.3169 100.177 77.8725C98.3994 77.4282 97.881 74.1694 97.4366 74.1694C96.9922 74.1694 96.1776 77.5763 95.2888 77.5022C94.4001 77.4282 92.6966 73.2066 92.2523 72.6882C91.8079 72.1697 91.2154 73.2066 90.6229 73.2066C90.0304 73.2066 90.2526 70.9107 89.6601 70.9107C89.0676 70.9107 87.2901 71.6513 86.6235 72.6882C85.957 73.725 84.3276 74.3175 82.476 74.1694C80.6245 74.0213 80.1801 69.1332 79.5876 69.5776C79.1136 69.9331 78.057 69.4294 77.5879 69.1332C77.267 70.491 76.3289 73.1029 75.1439 72.6882C73.9589 72.2734 72.9714 72.5154 72.6258 72.6882C71.8851 71.9475 70.3298 70.2886 70.0336 69.5776C69.6633 68.6888 68.7745 67.8001 68.182 67.8741C67.5895 67.9482 65.738 69.9479 65.6639 70.9107C65.6047 71.6809 64.5036 71.2316 63.9605 70.9107C63.6642 71.281 62.968 72.0216 62.5533 72.0216C62.0349 72.0216 59.2946 66.7632 58.8502 66.1707C58.4058 65.5782 57.6652 66.1707 57.443 65.356C57.2208 64.5413 55.3693 64.5413 54.8508 65.356C54.3324 66.1707 52.629 65.2819 52.3327 66.1707C52.0365 67.0594 49.5924 66.8373 48.4074 68.2444C47.2224 69.6516 47.0002 70.2441 45.8893 70.9107C44.7784 71.5772 43.2971 77.0578 42.1121 76.6135C41.1641 76.258 39.7915 74.1941 39.2237 73.2066H37.8165C37.2487 73.5029 35.8464 74.2139 34.7799 74.6879C33.7135 75.1618 33.0025 74.8854 32.7803 74.6879L28.4847 78.3169Z" fill="url(#paint8_linear_10664_38080)"/>
<path d="M28.4847 78.3169L22.2634 98.684H107.509V82.8347C106.497 81.5263 104.339 78.7909 103.806 78.3169C103.139 77.7244 101.954 78.3169 100.177 77.8725C98.3994 77.4282 97.881 74.1694 97.4366 74.1694C96.9922 74.1694 96.1776 77.5763 95.2888 77.5022C94.4001 77.4282 92.6966 73.2066 92.2523 72.6882C91.8079 72.1697 91.2154 73.2066 90.6229 73.2066C90.0304 73.2066 90.2526 70.9107 89.6601 70.9107C89.0676 70.9107 87.2901 71.6513 86.6235 72.6882C85.957 73.725 84.3276 74.3175 82.476 74.1694C80.6245 74.0213 80.1801 69.1332 79.5876 69.5776C79.1136 69.9331 78.057 69.4294 77.5879 69.1332C77.267 70.491 76.3289 73.1029 75.1439 72.6882C73.9589 72.2734 72.9714 72.5154 72.6258 72.6882C71.8851 71.9475 70.3298 70.2886 70.0336 69.5776C69.6633 68.6888 68.7745 67.8001 68.182 67.8741C67.5895 67.9482 65.738 69.9479 65.6639 70.9107C65.6047 71.6809 64.5036 71.2316 63.9605 70.9107C63.6642 71.281 62.968 72.0216 62.5533 72.0216C62.0349 72.0216 59.2946 66.7632 58.8502 66.1707C58.4058 65.5782 57.6652 66.1707 57.443 65.356C57.2208 64.5413 55.3693 64.5413 54.8508 65.356C54.3324 66.1707 52.629 65.2819 52.3327 66.1707C52.0365 67.0594 49.5924 66.8373 48.4074 68.2444C47.2224 69.6516 47.0002 70.2441 45.8893 70.9107C44.7784 71.5772 43.2971 77.0578 42.1121 76.6135C41.1641 76.258 39.7915 74.1941 39.2237 73.2066H37.8165C37.2487 73.5029 35.8464 74.2139 34.7799 74.6879C33.7135 75.1618 33.0025 74.8854 32.7803 74.6879L28.4847 78.3169Z" fill="url(#paint9_radial_10664_38080)"/>
<path d="M54.8525 65.3582C55.371 64.5435 57.222 64.5435 57.4442 65.3582C57.667 66.1693 58.4064 65.5791 58.8504 66.1695C59.2948 66.762 62.0369 72.0199 62.5554 72.0199C62.9703 72.018 63.6657 71.2809 63.9616 70.9111C64.5027 71.2307 65.5932 71.6767 65.6608 70.9201C72.4425 82.4489 79.495 94.4121 79.6602 94.5379C79.9562 94.7599 54.825 97.4931 54.1855 97.72C53.593 97.9422 52.7777 94.0165 50.778 90.0172C48.8854 86.2349 37.5285 81.1958 38.8069 73.2053H39.226C39.7934 74.1921 41.1627 76.255 42.1106 76.6127C43.295 77.0569 44.7769 71.5822 45.8877 70.9111C46.9986 70.2445 47.2222 69.65 48.4072 68.2428C49.5924 66.8364 52.0368 67.0581 52.333 66.1695C52.6302 65.2829 54.3336 66.1709 54.8525 65.3582Z" fill="url(#paint10_radial_10664_38080)"/>
<path d="M78.0267 69.3778C78.5443 69.6285 79.2297 69.8431 79.5862 69.5761C80.1786 69.1318 80.6244 74.0195 82.4753 74.169C84.3269 74.3171 85.9554 73.723 86.622 72.6861C87.2888 71.6498 89.0671 70.9105 89.6598 70.9103C90.2523 70.9103 90.0319 73.2044 90.6244 73.2044C91.2158 73.2028 91.8076 72.1719 92.2515 72.6861C92.6958 73.2045 94.4006 77.4302 95.2893 77.5043C95.6286 77.532 95.9527 77.0483 96.2539 76.4451C99.9178 84.4391 100.627 94.6936 100.919 98.6837H88.0372C87.2879 97.4477 83.7136 95.6988 83.0703 92.5359C82.1816 88.1663 81.5147 82.6853 80.8482 81.056C80.1813 79.427 77.811 78.3164 76.625 76.391C75.4394 74.4655 77.8822 71.6516 77.8825 70.0223C77.9343 69.8087 77.9791 69.5922 78.0267 69.3778Z" fill="url(#paint11_radial_10664_38080)"/>
<path d="M89.8496 71.0229C90.2023 71.4784 90.1068 73.2072 90.6204 73.209C91.2129 73.209 91.8076 72.1722 92.252 72.6907C92.6987 73.2172 94.3973 77.4255 95.2854 77.5045C96.1742 77.5786 96.991 74.1691 97.4354 74.1691C97.8797 74.1707 98.3987 77.4298 100.176 77.8741C101.952 78.318 103.138 77.7248 103.804 78.3158C104.337 78.7898 106.497 81.5282 107.509 82.8367V98.6845H97.2686C95.6256 97.1595 92.5303 93.4773 92.2475 89.5752C91.8773 84.4656 93.2108 81.6521 90.102 79.2083C86.9914 76.7642 87.8812 74.4643 88.4749 72.8349C88.6752 72.2874 89.218 71.6415 89.8496 71.0229Z" fill="url(#paint12_radial_10664_38080)"/>
<path d="M97.5888 74.2924C98.011 74.8836 98.6029 77.4772 100.176 77.8711C101.953 78.3154 103.138 77.7253 103.804 78.3173C104.337 78.7913 106.497 81.525 107.509 82.8335V98.6854H107.257C106.109 95.7224 104.353 89.867 101.064 86.8359C97.6637 83.7024 96.7406 79.2047 97.5888 74.2924Z" fill="url(#paint13_radial_10664_38080)"/>
<path d="M68.1806 67.874C68.7731 67.7999 69.6628 68.6889 70.0331 69.5777C70.3294 70.2885 71.8839 71.9467 72.6247 72.6877C72.9704 72.5148 73.9593 72.2729 75.1443 72.6877C75.2945 72.7402 75.4399 72.7417 75.5815 72.7057C82.6431 80.9871 90.0285 91.8869 88.6749 98.6853H74.5538C74.4429 96.6644 74.2104 93.903 73.8101 92.1678C73.1436 89.2794 69.5923 90.3148 68.7035 82.6125C67.8928 75.5866 70.4595 71.7717 67.9958 67.9506C68.068 67.9143 68.1268 67.8809 68.1806 67.874Z" fill="url(#paint14_radial_10664_38080)"/>
<path d="M55.8942 64.7757C56.5688 64.6678 57.3094 64.8612 57.4447 65.3571C57.6673 66.169 58.4068 65.5778 58.8509 66.1684C59.2948 66.7603 62.0287 72.0121 62.5514 72.0233C62.9661 72.0233 63.6659 71.2803 63.9621 70.91C64.5056 71.2309 65.6066 71.6797 65.6659 70.91C65.7408 69.9473 67.5878 67.9476 68.1809 67.8721C68.7731 67.7981 69.6627 68.6876 70.0334 69.5759C70.3294 70.2864 71.8838 71.9446 72.625 72.6859C72.7676 72.6147 73.0215 72.5449 73.3507 72.5011L78.4033 93.0541C75.5399 94.4611 75.5867 96.3578 71.7371 95.0553C66.9232 93.426 64.4023 81.6515 59.9597 77.3554C58.1775 75.6323 55.001 70.1121 55.8942 64.7757Z" fill="url(#paint15_radial_10664_38080)"/>
<path d="M28.4847 78.3169L22.2634 98.684H107.509V82.8347C106.497 81.5263 104.339 78.7909 103.806 78.3169C103.139 77.7244 101.954 78.3169 100.177 77.8725C98.3994 77.4282 97.881 74.1694 97.4366 74.1694C96.9922 74.1694 96.1776 77.5763 95.2888 77.5022C94.4001 77.4282 92.6966 73.2066 92.2523 72.6882C91.8079 72.1697 91.2154 73.2066 90.6229 73.2066C90.0304 73.2066 90.2526 70.9107 89.6601 70.9107C89.0676 70.9107 87.2901 71.6513 86.6235 72.6882C85.957 73.725 84.3276 74.3175 82.476 74.1694C80.6245 74.0213 80.1801 69.1332 79.5876 69.5776C79.1136 69.9331 78.057 69.4294 77.5879 69.1332C77.267 70.491 76.3289 73.1029 75.1439 72.6882C73.9589 72.2734 72.9714 72.5154 72.6258 72.6882C71.8851 71.9475 70.3298 70.2886 70.0336 69.5776C69.6633 68.6888 68.7745 67.8001 68.182 67.8741C67.5895 67.9482 65.738 69.9479 65.6639 70.9107C65.6047 71.6809 64.5036 71.2316 63.9605 70.9107C63.6642 71.281 62.968 72.0216 62.5533 72.0216C62.0349 72.0216 59.2946 66.7632 58.8502 66.1707C58.4058 65.5782 57.6652 66.1707 57.443 65.356C57.2208 64.5413 55.3693 64.5413 54.8508 65.356C54.3324 66.1707 52.629 65.2819 52.3327 66.1707C52.0365 67.0594 49.5924 66.8373 48.4074 68.2444C47.2224 69.6516 47.0002 70.2441 45.8893 70.9107C44.7784 71.5772 43.2971 77.0578 42.1121 76.6135C41.1641 76.258 39.7915 74.1941 39.2237 73.2066H37.8165C37.2487 73.5029 35.8464 74.2139 34.7799 74.6879C33.7135 75.1619 33.0025 74.8854 32.7803 74.6879L28.4847 78.3169Z" fill="url(#paint16_radial_10664_38080)"/>
<path d="M28.4847 78.3169L22.2634 98.684H107.509V82.8347C106.497 81.5263 104.339 78.7909 103.806 78.3169C103.139 77.7244 101.954 78.3169 100.177 77.8725C98.3994 77.4282 97.881 74.1694 97.4366 74.1694C96.9922 74.1694 96.1776 77.5763 95.2888 77.5022C94.4001 77.4282 92.6966 73.2066 92.2523 72.6882C91.8079 72.1697 91.2154 73.2066 90.6229 73.2066C90.0304 73.2066 90.2526 70.9107 89.6601 70.9107C89.0676 70.9107 87.2901 71.6513 86.6235 72.6882C85.957 73.725 84.3276 74.3175 82.476 74.1694C80.6245 74.0213 80.1801 69.1332 79.5876 69.5776C79.1136 69.9331 78.057 69.4294 77.5879 69.1332C77.267 70.491 76.3289 73.1029 75.1439 72.6882C73.9589 72.2734 72.9714 72.5154 72.6258 72.6882C71.8851 71.9475 70.3298 70.2886 70.0336 69.5776C69.6633 68.6888 68.7745 67.8001 68.182 67.8741C67.5895 67.9482 65.738 69.9479 65.6639 70.9107C65.6047 71.6809 64.5036 71.2316 63.9605 70.9107C63.6642 71.281 62.968 72.0216 62.5533 72.0216C62.0349 72.0216 59.2946 66.7632 58.8502 66.1707C58.4058 65.5782 57.6652 66.1707 57.443 65.356C57.2208 64.5413 55.3693 64.5413 54.8508 65.356C54.3324 66.1707 52.629 65.2819 52.3327 66.1707C52.0365 67.0594 49.5924 66.8373 48.4074 68.2444C47.2224 69.6516 47.0002 70.2441 45.8893 70.9107C44.7784 71.5772 43.2971 77.0578 42.1121 76.6135C41.1641 76.258 39.7915 74.1941 39.2237 73.2066H37.8165C37.2487 73.5029 35.8464 74.2139 34.7799 74.6879C33.7135 75.1619 33.0025 74.8854 32.7803 74.6879L28.4847 78.3169Z" fill="url(#paint17_radial_10664_38080)"/>
<path d="M50.5118 81.7076C45.254 76.7133 37.6498 83.5276 40.4742 86.702V94.5322H62.3762C65.2876 91.6541 63.6782 85.39 60.5496 86.3211C60.8537 85.6439 60.0281 83.3584 57.6817 83.9509C58.2466 79.7184 51.5983 79.2105 50.5118 81.7076Z" fill="url(#paint18_linear_10664_38080)"/>
<path d="M50.5118 81.7076C45.254 76.7133 37.6498 83.5276 40.4742 86.702V94.5322H62.3762C65.2876 91.6541 63.6782 85.39 60.5496 86.3211C60.8537 85.6439 60.0281 83.3584 57.6817 83.9509C58.2466 79.7184 51.5983 79.2105 50.5118 81.7076Z" fill="url(#paint19_radial_10664_38080)"/>
<path d="M50.5118 81.7076C45.254 76.7133 37.6498 83.5276 40.4742 86.702V94.5322H62.3762C65.2876 91.6541 63.6782 85.39 60.5496 86.3211C60.8537 85.6439 60.0281 83.3584 57.6817 83.9509C58.2466 79.7184 51.5983 79.2105 50.5118 81.7076Z" fill="url(#paint20_linear_10664_38080)"/>
<path d="M58.5802 90.6589C56.5142 90.1429 52.7531 93.1873 55.2429 95.7157H122.997C124.586 93.4453 120.719 89.1109 117.858 91.5361C117.223 86.9437 112.349 87.5113 110.601 89.1109C111.819 87.5629 108.694 84.1058 106.946 85.6022C107.104 84.5185 105.515 82.9706 103.555 84.1058C104.547 81.2965 82.3721 79.5082 81.2531 86.6858C80.7587 85.8258 79.0706 83.9303 76.2735 83.2286C72.7772 82.3514 70.4993 85.3442 72.2475 86.6858C71.3999 86.4794 69.4399 87.8726 70.0756 89.1109C68.7194 89.1109 67.886 90.1429 67.6387 90.6589C67.4975 89.6269 66.8335 87.8726 65.3079 89.1109C64.99 86.015 57.1499 87.3565 58.5802 90.6589Z" fill="url(#paint21_linear_10664_38080)"/>
<path d="M58.5802 90.6589C56.5142 90.1429 52.7531 93.1873 55.2429 95.7157H122.997C124.586 93.4453 120.719 89.1109 117.858 91.5361C117.223 86.9437 112.349 87.5113 110.601 89.1109C111.819 87.5629 108.694 84.1058 106.946 85.6022C107.104 84.5185 105.515 82.9706 103.555 84.1058C104.547 81.2965 82.3721 79.5082 81.2531 86.6858C80.7587 85.8258 79.0706 83.9303 76.2735 83.2286C72.7772 82.3514 70.4993 85.3442 72.2475 86.6858C71.3999 86.4794 69.4399 87.8726 70.0756 89.1109C68.7194 89.1109 67.886 90.1429 67.6387 90.6589C67.4975 89.6269 66.8335 87.8726 65.3079 89.1109C64.99 86.015 57.1499 87.3565 58.5802 90.6589Z" fill="url(#paint22_radial_10664_38080)"/>
<path d="M58.5802 90.6589C56.5142 90.1429 52.7531 93.1873 55.2429 95.7157H122.997C124.586 93.4453 120.719 89.1109 117.858 91.5361C117.223 86.9437 112.349 87.5113 110.601 89.1109C111.819 87.5629 108.694 84.1058 106.946 85.6022C107.104 84.5185 105.515 82.9706 103.555 84.1058C104.547 81.2965 82.3721 79.5082 81.2531 86.6858C80.7587 85.8258 79.0706 83.9303 76.2735 83.2286C72.7772 82.3514 70.4993 85.3442 72.2475 86.6858C71.3999 86.4794 69.4399 87.8726 70.0756 89.1109C68.7194 89.1109 67.886 90.1429 67.6387 90.6589C67.4975 89.6269 66.8335 87.8726 65.3079 89.1109C64.99 86.015 57.1499 87.3565 58.5802 90.6589Z" fill="url(#paint23_linear_10664_38080)"/>
<path d="M24.4287 91.5367C22.2231 91.9909 22.0823 95.1704 24.4287 95.7155H59.3425C62.3458 92.7631 59.8118 89.7653 58.0755 90.9917C58.3101 89.7199 56.3392 86.9946 53.5705 88.6752C54.2744 86.7675 51.0364 85.4957 49.9571 86.4949C49.8632 85.1777 46.1091 85.5865 45.6398 87.8122C45.499 87.04 43.6219 85.6773 42.9649 87.2217C40.9471 79.8634 32.1248 80.3176 32.1248 83.4062C30.3885 80.3176 22.5986 83.0429 24.4287 86.4949C22.5047 86.0407 20.5806 90.4466 24.4287 91.5367Z" fill="url(#paint24_linear_10664_38080)"/>
<path d="M24.4287 91.5367C22.2231 91.9909 22.0823 95.1704 24.4287 95.7155H59.3425C62.3458 92.7631 59.8118 89.7653 58.0755 90.9917C58.3101 89.7199 56.3392 86.9946 53.5705 88.6752C54.2744 86.7675 51.0364 85.4957 49.9571 86.4949C49.8632 85.1777 46.1091 85.5865 45.6398 87.8122C45.499 87.04 43.6219 85.6773 42.9649 87.2217C40.9471 79.8634 32.1248 80.3176 32.1248 83.4062C30.3885 80.3176 22.5986 83.0429 24.4287 86.4949C22.5047 86.0407 20.5806 90.4466 24.4287 91.5367Z" fill="url(#paint25_radial_10664_38080)"/>
<path d="M24.4287 91.5367C22.2231 91.9909 22.0823 95.1704 24.4287 95.7155H59.3425C62.3458 92.7631 59.8118 89.7653 58.0755 90.9917C58.3101 89.7199 56.3392 86.9946 53.5705 88.6752C54.2744 86.7675 51.0364 85.4957 49.9571 86.4949C49.8632 85.1777 46.1091 85.5865 45.6398 87.8122C45.499 87.04 43.6219 85.6773 42.9649 87.2217C40.9471 79.8634 32.1248 80.3176 32.1248 83.4062C30.3885 80.3176 22.5986 83.0429 24.4287 86.4949C22.5047 86.0407 20.5806 90.4466 24.4287 91.5367Z" fill="url(#paint26_linear_10664_38080)"/>
<path d="M181.925 87.1409C177.986 85.6922 175.051 91.0171 178.91 92.1134V95.7156H217.62C217.687 95.0239 217.443 93.6013 215.931 93.4447C216.776 92.6225 216.534 90.2341 214.846 90.704C214.878 89.1378 213.278 88.9551 212.474 89.0595C212.474 88.42 212.129 87.2114 210.746 87.4934C211.711 86.2404 211.309 84.0478 210.183 82.9124C209.058 81.7769 205.279 80.8764 202.104 82.9124C202.144 82.4034 200.255 79.7018 198.084 81.4245C198.446 80.9547 199.129 76.452 194.507 75.7472C190.808 75.1834 189.911 79.2972 189.924 81.4245C188.973 80.3935 186.724 78.6838 185.342 80.0933C183.959 81.5028 185.784 82.8993 186.869 83.4213C185.985 83.3691 184.313 83.6015 184.699 84.9483C184.457 84.4785 181.282 84.9092 181.925 87.1409Z" fill="url(#paint27_linear_10664_38080)"/>
<path d="M181.925 87.1409C177.986 85.6922 175.051 91.0171 178.91 92.1134V95.7156H217.62C217.687 95.0239 217.443 93.6013 215.931 93.4447C216.776 92.6225 216.534 90.2341 214.846 90.704C214.878 89.1378 213.278 88.9551 212.474 89.0595C212.474 88.42 212.129 87.2114 210.746 87.4934C211.711 86.2404 211.309 84.0478 210.183 82.9124C209.058 81.7769 205.279 80.8764 202.104 82.9124C202.144 82.4034 200.255 79.7018 198.084 81.4245C198.446 80.9547 199.129 76.452 194.507 75.7472C190.808 75.1834 189.911 79.2972 189.924 81.4245C188.973 80.3935 186.724 78.6838 185.342 80.0933C183.959 81.5028 185.784 82.8993 186.869 83.4213C185.985 83.3691 184.313 83.6015 184.699 84.9483C184.457 84.4785 181.282 84.9092 181.925 87.1409Z" fill="url(#paint28_radial_10664_38080)"/>
<path d="M181.925 87.1409C177.986 85.6922 175.051 91.0171 178.91 92.1134V95.7156H217.62C217.687 95.0239 217.443 93.6013 215.931 93.4447C216.776 92.6225 216.534 90.2341 214.846 90.704C214.878 89.1378 213.278 88.9551 212.474 89.0595C212.474 88.42 212.129 87.2114 210.746 87.4934C211.711 86.2404 211.309 84.0478 210.183 82.9124C209.058 81.7769 205.279 80.8764 202.104 82.9124C202.144 82.4034 200.255 79.7018 198.084 81.4245C198.446 80.9547 199.129 76.452 194.507 75.7472C190.808 75.1834 189.911 79.2972 189.924 81.4245C188.973 80.3935 186.724 78.6838 185.342 80.0933C183.959 81.5028 185.784 82.8993 186.869 83.4213C185.985 83.3691 184.313 83.6015 184.699 84.9483C184.457 84.4785 181.282 84.9092 181.925 87.1409Z" fill="url(#paint29_linear_10664_38080)"/>
<path d="M138.981 90.3491C135.59 89.5751 132.677 94.219 135.749 95.7154H186.922C186.456 93.4038 184.397 93.3419 183.426 93.5998C183.691 93.0494 183.754 91.6287 181.89 90.3491C180.025 89.0694 178.181 89.8159 177.493 90.3491C177.069 89.8675 175.861 89.0178 174.42 89.4719C172.979 89.9259 172.337 91.3123 172.195 91.9487C172.16 91.6735 171.93 90.9683 171.295 90.3491C170.659 89.7299 169.582 90.0911 169.123 90.3491C169.812 89.7471 170.858 88.2546 170.5 87.3047C169.547 84.7763 166.05 84.7247 164.143 87.3047C164.302 85.2923 161.654 80.0808 157.204 78.9972C152.754 77.9136 148.569 82.2479 150.688 85.2407C149.893 85.2407 147.298 87.2015 149.311 88.9043C147.658 89.0281 147.28 90.4351 147.298 91.1231C146.556 90.2803 144.765 88.8527 143.536 89.8847C143.695 88.4399 139.351 87.4595 138.981 90.3491Z" fill="url(#paint30_linear_10664_38080)"/>
<path d="M138.981 90.3491C135.59 89.5751 132.677 94.219 135.749 95.7154H186.922C186.456 93.4038 184.397 93.3419 183.426 93.5998C183.691 93.0494 183.754 91.6287 181.89 90.3491C180.025 89.0694 178.181 89.8159 177.493 90.3491C177.069 89.8675 175.861 89.0178 174.42 89.4719C172.979 89.9259 172.337 91.3123 172.195 91.9487C172.16 91.6735 171.93 90.9683 171.295 90.3491C170.659 89.7299 169.582 90.0911 169.123 90.3491C169.812 89.7471 170.858 88.2546 170.5 87.3047C169.547 84.7763 166.05 84.7247 164.143 87.3047C164.302 85.2923 161.654 80.0808 157.204 78.9972C152.754 77.9136 148.569 82.2479 150.688 85.2407C149.893 85.2407 147.298 87.2015 149.311 88.9043C147.658 89.0281 147.28 90.4351 147.298 91.1231C146.556 90.2803 144.765 88.8527 143.536 89.8847C143.695 88.4399 139.351 87.4595 138.981 90.3491Z" fill="url(#paint31_radial_10664_38080)"/>
<path d="M32.0856 90.4444C29.2863 90.8001 29.408 94.89 32.0856 95.1271C36.6065 95.5274 47.8102 94.9019 48.6378 94.0009C49.6723 92.8746 47.1773 89.0218 44.4997 89.0218C44.5605 86.6509 38.9619 84.8134 37.4405 87.6586C36.1017 85.6432 30.564 85.8211 32.0856 90.4444Z" fill="url(#paint32_radial_10664_38080)"/>
<path d="M77.6519 89.8605C76.5395 88.6221 72.8313 91.202 75.2681 93.3176C77.1223 94.4528 92.7709 95.1546 94.127 92.5952C95.8222 89.3961 90.154 86.7645 87.3993 88.9833C87.2404 87.9246 84.5652 86.97 83.85 88.5705C83.2144 87.2805 78.2878 86.8161 77.6519 89.8605Z" fill="url(#paint33_radial_10664_38080)"/>
<path d="M155.086 91.2531C152.852 89.4851 148.804 91.2531 151.247 94.3809C153.69 97.5087 165.278 94.3809 164.929 89.8931C164.58 85.4053 155.086 84.1134 155.086 91.2531Z" fill="url(#paint34_radial_10664_38080)"/>
<path d="M214.625 93.3713C215.799 93.3714 216.786 93.7801 217.343 94.6424C217.885 95.4819 217.907 96.5811 217.569 97.7253C216.891 100.013 214.667 102.897 210.772 105.708C202.942 111.357 188.09 116.917 164.005 116.917H73.4145C49.3284 116.917 34.4767 111.357 26.6476 105.708C22.7524 102.896 20.528 100.013 19.8507 97.7253C19.5122 96.5812 19.5342 95.4819 20.0761 94.6424C20.6337 93.7798 21.6202 93.3714 22.794 93.3713H214.625Z" fill="url(#paint35_linear_10664_38080)"/>
<path d="M214.625 93.3713C215.799 93.3714 216.786 93.7801 217.343 94.6424C217.885 95.4819 217.907 96.5811 217.569 97.7253C216.891 100.013 214.667 102.897 210.772 105.708C202.942 111.357 188.09 116.917 164.005 116.917H73.4145C49.3284 116.917 34.4767 111.357 26.6476 105.708C22.7524 102.896 20.528 100.013 19.8507 97.7253C19.5122 96.5812 19.5342 95.4819 20.0761 94.6424C20.6337 93.7798 21.6202 93.3714 22.794 93.3713H214.625Z" fill="url(#paint36_radial_10664_38080)"/>
<path d="M210.146 57.0863C210.146 55.3789 208.762 53.9948 207.055 53.9948C205.347 53.9948 203.963 55.3789 203.963 57.0863V67.8884C203.963 71.7119 200.864 74.8115 197.04 74.8115H196.315V81.2803C203.954 81.2803 210.146 75.0876 210.146 67.4485V57.0863Z" fill="url(#paint37_linear_10664_38080)"/>
<path d="M210.146 57.0863C210.146 55.3789 208.762 53.9948 207.055 53.9948C205.347 53.9948 203.963 55.3789 203.963 57.0863V67.8884C203.963 71.7119 200.864 74.8115 197.04 74.8115H196.315V81.2803C203.954 81.2803 210.146 75.0876 210.146 67.4485V57.0863Z" fill="url(#paint38_radial_10664_38080)"/>
<path d="M210.146 57.0863C210.146 55.3789 208.762 53.9948 207.055 53.9948C205.347 53.9948 203.963 55.3789 203.963 57.0863V67.8884C203.963 71.7119 200.864 74.8115 197.04 74.8115H196.315V81.2803C203.954 81.2803 210.146 75.0876 210.146 67.4485V57.0863Z" fill="url(#paint39_radial_10664_38080)"/>
<path d="M208.695 55.6473C208.695 54.7346 207.955 53.9948 207.043 53.9948C206.13 53.9948 205.39 54.7346 205.39 55.6473V70.0075C205.39 73.3582 202.674 76.0744 199.323 76.0744V79.1754C204.499 79.1754 208.695 74.9794 208.695 69.8034V55.6473Z" fill="url(#paint40_linear_10664_38080)"/>
<path d="M208.695 55.6473C208.695 54.7346 207.955 53.9948 207.043 53.9948C206.13 53.9948 205.39 54.7346 205.39 55.6473V70.0075C205.39 73.3582 202.674 76.0744 199.323 76.0744V79.1754C204.499 79.1754 208.695 74.9794 208.695 69.8034V55.6473Z" fill="url(#paint41_radial_10664_38080)"/>
<path d="M208.695 55.6473C208.695 54.7346 207.955 53.9948 207.043 53.9948C206.13 53.9948 205.39 54.7346 205.39 55.6473V70.0075C205.39 73.3582 202.674 76.0744 199.323 76.0744V79.1754C204.499 79.1754 208.695 74.9794 208.695 69.8034V55.6473Z" fill="url(#paint42_radial_10664_38080)"/>
<path d="M208.695 55.6473C208.695 54.7346 207.955 53.9948 207.043 53.9948C206.13 53.9948 205.39 54.7346 205.39 55.6473V70.0075C205.39 73.3582 202.674 76.0744 199.323 76.0744V79.1754C204.499 79.1754 208.695 74.9794 208.695 69.8034V55.6473Z" fill="url(#paint43_linear_10664_38080)"/>
<path d="M180.638 41.9618C180.638 40.2544 182.022 38.8702 183.729 38.8702C185.437 38.8702 186.821 40.2544 186.821 41.9618V53.6612C186.821 56.2102 188.887 58.2766 191.436 58.2766H194.47V64.7453H189.869C184.771 64.7453 180.638 60.6126 180.638 55.5146V41.9618Z" fill="url(#paint44_linear_10664_38080)"/>
<path d="M180.638 41.9618C180.638 40.2544 182.022 38.8702 183.729 38.8702C185.437 38.8702 186.821 40.2544 186.821 41.9618V53.6612C186.821 56.2102 188.887 58.2766 191.436 58.2766H194.47V64.7453H189.869C184.771 64.7453 180.638 60.6126 180.638 55.5146V41.9618Z" fill="url(#paint45_radial_10664_38080)"/>
<path d="M180.638 41.9618C180.638 40.2544 182.022 38.8702 183.729 38.8702C185.437 38.8702 186.821 40.2544 186.821 41.9618V53.6612C186.821 56.2102 188.887 58.2766 191.436 58.2766H194.47V64.7453H189.869C184.771 64.7453 180.638 60.6126 180.638 55.5146V41.9618Z" fill="url(#paint46_radial_10664_38080)"/>
<path d="M182.133 40.4319C182.133 39.5694 182.832 38.8702 183.695 38.8702C184.557 38.8702 185.256 39.5694 185.256 40.4319V54.3917C185.256 57.4505 187.736 59.9302 190.795 59.9302H191.334V62.9341H190.441C185.853 62.9341 182.133 59.2146 182.133 54.6264V40.4319Z" fill="url(#paint47_linear_10664_38080)"/>
<path d="M182.133 40.4319C182.133 39.5694 182.832 38.8702 183.695 38.8702C184.557 38.8702 185.256 39.5694 185.256 40.4319V54.3917C185.256 57.4505 187.736 59.9302 190.795 59.9302H191.334V62.9341H190.441C185.853 62.9341 182.133 59.2146 182.133 54.6264V40.4319Z" fill="url(#paint48_linear_10664_38080)"/>
<path d="M182.133 40.4319C182.133 39.5694 182.832 38.8702 183.695 38.8702C184.557 38.8702 185.256 39.5694 185.256 40.4319V54.3917C185.256 57.4505 187.736 59.9302 190.795 59.9302H191.334V62.9341H190.441C185.853 62.9341 182.133 59.2146 182.133 54.6264V40.4319Z" fill="url(#paint49_radial_10664_38080)"/>
<path d="M182.133 40.4319C182.133 39.5694 182.832 38.8702 183.695 38.8702C184.557 38.8702 185.256 39.5694 185.256 40.4319V54.3917C185.256 57.4505 187.736 59.9302 190.795 59.9302H191.334V62.9341H190.441C185.853 62.9341 182.133 59.2146 182.133 54.6264V40.4319Z" fill="url(#paint50_radial_10664_38080)"/>
<path d="M190.122 40.302C190.122 37.6069 192.307 35.4221 195.002 35.4221C197.697 35.4221 199.882 37.6069 199.882 40.302V95.7157H190.122V40.302Z" fill="url(#paint51_linear_10664_38080)"/>
<path d="M190.122 40.302C190.122 37.6069 192.307 35.4221 195.002 35.4221C197.697 35.4221 199.882 37.6069 199.882 40.302V95.7157H190.122V40.302Z" fill="url(#paint52_radial_10664_38080)"/>
<path d="M191.529 38.8952C191.529 36.9771 193.084 35.4221 195.002 35.4221C196.921 35.4221 198.476 36.9771 198.476 38.8952V95.7157H191.529V38.8952Z" fill="url(#paint53_linear_10664_38080)"/>
<path d="M191.529 38.8952C191.529 36.9771 193.084 35.4221 195.002 35.4221C196.921 35.4221 198.476 36.9771 198.476 38.8952V95.7157H191.529V38.8952Z" fill="url(#paint54_linear_10664_38080)"/>
<path d="M193.406 37.018C193.406 36.1366 194.121 35.4221 195.002 35.4221C195.883 35.4221 196.598 36.1366 196.598 37.018V95.7157H193.406V37.018Z" fill="url(#paint55_linear_10664_38080)"/>
<path d="M193.406 37.018C193.406 36.1366 194.121 35.4221 195.002 35.4221C195.883 35.4221 196.598 36.1366 196.598 37.018V95.7157H193.406V37.018Z" fill="url(#paint56_linear_10664_38080)"/>
<path d="M163.009 32.822C163.009 30.273 160.943 28.2067 158.394 28.2067H158.203C155.654 28.2067 153.588 30.273 153.588 32.822V53.0018C153.588 56.8253 150.488 59.9249 146.665 59.9249H141.934V69.7813H149.163C156.81 69.7813 163.009 63.5821 163.009 55.9351V32.822Z" fill="url(#paint57_linear_10664_38080)"/>
<path d="M163.009 32.822C163.009 30.273 160.943 28.2067 158.394 28.2067H158.203C155.654 28.2067 153.588 30.273 153.588 32.822V53.0018C153.588 56.8253 150.488 59.9249 146.665 59.9249H141.934V69.7813H149.163C156.81 69.7813 163.009 63.5821 163.009 55.9351V32.822Z" fill="url(#paint58_radial_10664_38080)"/>
<path d="M163.009 32.822C163.009 30.273 160.943 28.2067 158.394 28.2067H158.203C155.654 28.2067 153.588 30.273 153.588 32.822V53.0018C153.588 56.8253 150.488 59.9249 146.665 59.9249H141.934V69.7813H149.163C156.81 69.7813 163.009 63.5821 163.009 55.9351V32.822Z" fill="url(#paint59_radial_10664_38080)"/>
<path d="M160.798 30.7246C160.798 29.334 159.671 28.2067 158.28 28.2067C156.89 28.2067 155.762 29.334 155.762 30.7246V52.6184C155.762 57.7164 151.616 61.8492 146.518 61.8492V66.5741H146.952C154.599 66.5741 160.798 60.3749 160.798 52.7279V30.7246Z" fill="url(#paint60_linear_10664_38080)"/>
<path d="M160.798 30.7246C160.798 29.334 159.671 28.2067 158.28 28.2067C156.89 28.2067 155.762 29.334 155.762 30.7246V52.6184C155.762 57.7164 151.616 61.8492 146.518 61.8492V66.5741H146.952C154.599 66.5741 160.798 60.3749 160.798 52.7279V30.7246Z" fill="url(#paint61_radial_10664_38080)"/>
<path d="M160.798 30.7246C160.798 29.334 159.671 28.2067 158.28 28.2067C156.89 28.2067 155.762 29.334 155.762 30.7246V52.6184C155.762 57.7164 151.616 61.8492 146.518 61.8492V66.5741H146.952C154.599 66.5741 160.798 60.3749 160.798 52.7279V30.7246Z" fill="url(#paint62_radial_10664_38080)"/>
<path d="M160.798 30.7246C160.798 29.334 159.671 28.2067 158.28 28.2067C156.89 28.2067 155.762 29.334 155.762 30.7246V52.6184C155.762 57.7164 151.616 61.8492 146.518 61.8492V66.5741H146.952C154.599 66.5741 160.798 60.3749 160.798 52.7279V30.7246Z" fill="url(#paint63_linear_10664_38080)"/>
<path d="M118.047 28.6061C118.047 26.0571 120.114 23.9907 122.663 23.9907H122.853C125.402 23.9907 127.468 26.0571 127.468 28.6061V48.9445C127.468 51.4935 129.535 53.5599 132.084 53.5599H139.123V63.4163H127.278C122.18 63.4163 118.047 59.2835 118.047 54.1855V28.6061Z" fill="url(#paint64_linear_10664_38080)"/>
<path d="M118.047 28.6061C118.047 26.0571 120.114 23.9907 122.663 23.9907H122.853C125.402 23.9907 127.468 26.0571 127.468 28.6061V48.9445C127.468 51.4935 129.535 53.5599 132.084 53.5599H139.123V63.4163H127.278C122.18 63.4163 118.047 59.2835 118.047 54.1855V28.6061Z" fill="url(#paint65_radial_10664_38080)"/>
<path d="M118.047 28.6061C118.047 26.0571 120.114 23.9907 122.663 23.9907H122.853C125.402 23.9907 127.468 26.0571 127.468 28.6061V48.9445C127.468 51.4935 129.535 53.5599 132.084 53.5599H139.123V63.4163H127.278C122.18 63.4163 118.047 59.2835 118.047 54.1855V28.6061Z" fill="url(#paint66_radial_10664_38080)"/>
<path d="M120.324 26.3702C120.324 25.056 121.39 23.9907 122.704 23.9907C124.018 23.9907 125.083 25.056 125.083 26.3702V50.541C125.083 53.5998 127.563 56.0795 130.622 56.0795H134.343V60.6565H128.632C124.044 60.6565 120.324 56.937 120.324 52.3488V26.3702Z" fill="url(#paint67_linear_10664_38080)"/>
<path d="M120.324 26.3702C120.324 25.056 121.39 23.9907 122.704 23.9907C124.018 23.9907 125.083 25.056 125.083 26.3702V50.541C125.083 53.5998 127.563 56.0795 130.622 56.0795H134.343V60.6565H128.632C124.044 60.6565 120.324 56.937 120.324 52.3488V26.3702Z" fill="url(#paint68_linear_10664_38080)"/>
<path d="M120.324 26.3702C120.324 25.056 121.39 23.9907 122.704 23.9907C124.018 23.9907 125.083 25.056 125.083 26.3702V50.541C125.083 53.5998 127.563 56.0795 130.622 56.0795H134.343V60.6565H128.632C124.044 60.6565 120.324 56.937 120.324 52.3488V26.3702Z" fill="url(#paint69_radial_10664_38080)"/>
<path d="M120.324 26.3702C120.324 25.056 121.39 23.9907 122.704 23.9907C124.018 23.9907 125.083 25.056 125.083 26.3702V50.541C125.083 53.5998 127.563 56.0795 130.622 56.0795H134.343V60.6565H128.632C124.044 60.6565 120.324 56.937 120.324 52.3488V26.3702Z" fill="url(#paint70_radial_10664_38080)"/>
<path d="M132.499 16.8009C132.499 12.6944 135.828 9.36548 139.934 9.36548C144.041 9.36548 147.37 12.6944 147.37 16.8009V101.234H132.499V16.8009Z" fill="url(#paint71_linear_10664_38080)"/>
<path d="M132.499 16.8009C132.499 12.6944 135.828 9.36548 139.934 9.36548C144.041 9.36548 147.37 12.6944 147.37 16.8009V101.234H132.499V16.8009Z" fill="url(#paint72_radial_10664_38080)"/>
<path d="M132.499 16.8009C132.499 12.6944 135.828 9.36548 139.934 9.36548C144.041 9.36548 147.37 12.6944 147.37 16.8009V101.234H132.499V16.8009Z" fill="url(#paint73_linear_10664_38080)"/>
<path d="M134.641 14.6574C134.641 11.7347 137.01 9.36548 139.933 9.36548C142.856 9.36548 145.225 11.7347 145.225 14.6574V101.234H134.641V14.6574Z" fill="url(#paint74_linear_10664_38080)"/>
<path d="M134.641 14.6574C134.641 11.7347 137.01 9.36548 139.933 9.36548C142.856 9.36548 145.225 11.7347 145.225 14.6574V101.234H134.641V14.6574Z" fill="url(#paint75_linear_10664_38080)"/>
<path d="M137.502 11.7972C137.502 10.4542 138.591 9.36548 139.934 9.36548C141.277 9.36548 142.365 10.4542 142.365 11.7972V101.234H137.502V11.7972Z" fill="url(#paint76_linear_10664_38080)"/>
<path d="M137.502 11.7972C137.502 10.4542 138.591 9.36548 139.934 9.36548C141.277 9.36548 142.365 10.4542 142.365 11.7972V101.234H137.502V11.7972Z" fill="url(#paint77_linear_10664_38080)"/>
<path d="M134.108 96.2088C124.681 96.5684 116.114 99.4446 109.773 106.276H159.129C156.215 101.242 143.534 95.8492 134.108 96.2088Z" fill="url(#paint78_linear_10664_38080)"/>
<path d="M134.108 96.2088C124.681 96.5684 116.114 99.4446 109.773 106.276H159.129C156.215 101.242 143.534 95.8492 134.108 96.2088Z" fill="url(#paint79_radial_10664_38080)"/>
<path d="M61.3589 45.4457C54.3669 45.4454 48.5471 40.4566 47.2513 33.8441C46.4832 34.124 45.6554 34.2858 44.7904 34.2858C43.1599 34.2855 41.6606 33.7357 40.4545 32.821C38.8644 36.5728 35.1449 39.2027 30.8135 39.2032C25.0342 39.2032 20.3478 34.5167 20.3478 28.7374C20.349 22.9592 25.035 18.2762 30.8135 18.2762C32.4389 18.2764 33.9709 18.6604 35.3433 19.3219C35.6095 13.7801 40.1699 9.36607 45.7775 9.36545C50.8296 9.36545 55.0504 12.9467 56.0314 17.7083C57.6799 17.05 59.4755 16.6807 61.3589 16.6807C63.3575 16.6807 65.2589 17.0934 66.9884 17.83C68.4183 15.199 71.2022 13.4084 74.4073 13.4084C75.8707 13.4085 77.2459 13.7854 78.4458 14.4406C79.3564 12.5951 81.2472 11.3219 83.4443 11.3216C86.5269 11.3216 89.028 13.819 89.0287 16.9015C89.0287 19.9846 86.5274 22.4859 83.4443 22.4859C83.234 22.4859 83.0265 22.4726 82.8223 22.4499C82.5465 26.3968 79.5635 29.5899 75.7144 30.1888C75.7317 30.4781 75.7414 30.7695 75.7414 31.0632C75.7414 39.0071 69.3029 45.4457 61.3589 45.4457Z" fill="url(#paint80_radial_10664_38080)"/>
<path d="M61.3589 45.4457C54.3669 45.4454 48.5471 40.4566 47.2513 33.8441C46.4832 34.124 45.6554 34.2858 44.7904 34.2858C43.1599 34.2855 41.6606 33.7357 40.4545 32.821C38.8644 36.5728 35.1449 39.2027 30.8135 39.2032C25.0342 39.2032 20.3478 34.5167 20.3478 28.7374C20.349 22.9592 25.035 18.2762 30.8135 18.2762C32.4389 18.2764 33.9709 18.6604 35.3433 19.3219C35.6095 13.7801 40.1699 9.36607 45.7775 9.36545C50.8296 9.36545 55.0504 12.9467 56.0314 17.7083C57.6799 17.05 59.4755 16.6807 61.3589 16.6807C63.3575 16.6807 65.2589 17.0934 66.9884 17.83C68.4183 15.199 71.2022 13.4084 74.4073 13.4084C75.8707 13.4085 77.2459 13.7854 78.4458 14.4406C79.3564 12.5951 81.2472 11.3219 83.4443 11.3216C86.5269 11.3216 89.028 13.819 89.0287 16.9015C89.0287 19.9846 86.5274 22.4859 83.4443 22.4859C83.234 22.4859 83.0265 22.4726 82.8223 22.4499C82.5465 26.3968 79.5635 29.5899 75.7144 30.1888C75.7317 30.4781 75.7414 30.7695 75.7414 31.0632C75.7414 39.0071 69.3029 45.4457 61.3589 45.4457Z" fill="url(#paint81_radial_10664_38080)"/>
<path d="M61.3589 45.4457C54.3669 45.4454 48.5471 40.4566 47.2513 33.8441C46.4832 34.124 45.6554 34.2858 44.7904 34.2858C43.1599 34.2855 41.6606 33.7357 40.4545 32.821C38.8644 36.5728 35.1449 39.2027 30.8135 39.2032C25.0342 39.2032 20.3478 34.5167 20.3478 28.7374C20.349 22.9592 25.035 18.2762 30.8135 18.2762C32.4389 18.2764 33.9709 18.6604 35.3433 19.3219C35.6095 13.7801 40.1699 9.36607 45.7775 9.36545C50.8296 9.36545 55.0504 12.9467 56.0314 17.7083C57.6799 17.05 59.4755 16.6807 61.3589 16.6807C63.3575 16.6807 65.2589 17.0934 66.9884 17.83C68.4183 15.199 71.2022 13.4084 74.4073 13.4084C75.8707 13.4085 77.2459 13.7854 78.4458 14.4406C79.3564 12.5951 81.2472 11.3219 83.4443 11.3216C86.5269 11.3216 89.028 13.819 89.0287 16.9015C89.0287 19.9846 86.5274 22.4859 83.4443 22.4859C83.234 22.4859 83.0265 22.4726 82.8223 22.4499C82.5465 26.3968 79.5635 29.5899 75.7144 30.1888C75.7317 30.4781 75.7414 30.7695 75.7414 31.0632C75.7414 39.0071 69.3029 45.4457 61.3589 45.4457Z" fill="url(#paint82_radial_10664_38080)"/>
<path d="M110.342 2.85789C113.945 2.08952 117.504 3.62581 119.483 6.47268C119.953 6.19525 120.478 5.98443 121.042 5.8642C123.85 5.26695 126.614 7.06284 127.212 9.87111C127.81 12.6788 126.017 15.4375 123.21 16.037C122.094 16.275 120.988 16.1297 120.019 15.6989C118.83 17.9288 116.707 19.6469 114.042 20.2152C113.875 20.2508 113.705 20.266 113.538 20.2918C113.548 20.3393 113.563 20.3882 113.574 20.436C114.594 25.2274 111.541 29.9421 106.75 30.9649C103.295 31.7017 99.8854 30.3087 97.866 27.6836C96.4092 29.0279 94.595 30.0252 92.5159 30.4691C90.7609 30.8433 89.014 30.7796 87.3822 30.3744C85.8047 32.2321 83.6308 33.6081 81.0631 34.156C74.8862 35.4726 68.8092 31.5348 67.4919 25.3579C67.2591 24.2662 67.1966 23.1768 67.2755 22.1172C67.1301 22.1626 66.9812 22.2064 66.8293 22.2389C64.1615 22.8073 61.5343 21.1027 60.9654 18.4348C60.6217 16.8193 61.1108 15.2183 62.1418 14.0808C63.1516 14.8736 64.1041 15.7329 64.9859 16.6545C66.3467 11.422 70.7757 7.36191 76.3305 6.32845C77.0176 7.01308 77.5772 7.83924 77.9441 8.78037C78.515 8.22687 79.2411 7.8183 80.076 7.64004C80.4405 7.56232 80.8061 7.54088 81.1623 7.55441C81.1203 7.09966 81.1212 6.64667 81.1532 6.20224C85.6915 6.81461 89.5548 9.44213 91.7452 13.1073C94.0169 10.1343 96.9322 7.64724 100.291 5.82364C101.776 6.00958 103.148 6.68148 104.19 7.72117C105.336 5.3202 107.539 3.45594 110.342 2.85789Z" fill="url(#paint83_radial_10664_38080)"/>
<path d="M110.342 2.85789C113.945 2.08952 117.504 3.62581 119.483 6.47268C119.953 6.19525 120.478 5.98443 121.042 5.8642C123.85 5.26695 126.614 7.06284 127.212 9.87111C127.81 12.6788 126.017 15.4375 123.21 16.037C122.094 16.275 120.988 16.1297 120.019 15.6989C118.83 17.9288 116.707 19.6469 114.042 20.2152C113.875 20.2508 113.705 20.266 113.538 20.2918C113.548 20.3393 113.563 20.3882 113.574 20.436C114.594 25.2274 111.541 29.9421 106.75 30.9649C103.295 31.7017 99.8854 30.3087 97.866 27.6836C96.4092 29.0279 94.595 30.0252 92.5159 30.4691C90.7609 30.8433 89.014 30.7796 87.3822 30.3744C85.8047 32.2321 83.6308 33.6081 81.0631 34.156C74.8862 35.4726 68.8092 31.5348 67.4919 25.3579C67.2591 24.2662 67.1966 23.1768 67.2755 22.1172C67.1301 22.1626 66.9812 22.2064 66.8293 22.2389C64.1615 22.8073 61.5343 21.1027 60.9654 18.4348C60.6217 16.8193 61.1108 15.2183 62.1418 14.0808C63.1516 14.8736 64.1041 15.7329 64.9859 16.6545C66.3467 11.422 70.7757 7.36191 76.3305 6.32845C77.0176 7.01308 77.5772 7.83924 77.9441 8.78037C78.515 8.22687 79.2411 7.8183 80.076 7.64004C80.4405 7.56232 80.8061 7.54088 81.1623 7.55441C81.1203 7.09966 81.1212 6.64667 81.1532 6.20224C85.6915 6.81461 89.5548 9.44213 91.7452 13.1073C94.0169 10.1343 96.9322 7.64724 100.291 5.82364C101.776 6.00958 103.148 6.68148 104.19 7.72117C105.336 5.3202 107.539 3.45594 110.342 2.85789Z" fill="url(#paint84_radial_10664_38080)"/>
<path d="M110.342 2.85789C113.945 2.08952 117.504 3.62581 119.483 6.47268C119.953 6.19525 120.478 5.98443 121.042 5.8642C123.85 5.26695 126.614 7.06284 127.212 9.87111C127.81 12.6788 126.017 15.4375 123.21 16.037C122.094 16.275 120.988 16.1297 120.019 15.6989C118.83 17.9288 116.707 19.6469 114.042 20.2152C113.875 20.2508 113.705 20.266 113.538 20.2918C113.548 20.3393 113.563 20.3882 113.574 20.436C114.594 25.2274 111.541 29.9421 106.75 30.9649C103.295 31.7017 99.8854 30.3087 97.866 27.6836C96.4092 29.0279 94.595 30.0252 92.5159 30.4691C90.7609 30.8433 89.014 30.7796 87.3822 30.3744C85.8047 32.2321 83.6308 33.6081 81.0631 34.156C74.8862 35.4726 68.8092 31.5348 67.4919 25.3579C67.2591 24.2662 67.1966 23.1768 67.2755 22.1172C67.1301 22.1626 66.9812 22.2064 66.8293 22.2389C64.1615 22.8073 61.5343 21.1027 60.9654 18.4348C60.6217 16.8193 61.1108 15.2183 62.1418 14.0808C63.1516 14.8736 64.1041 15.7329 64.9859 16.6545C66.3467 11.422 70.7757 7.36191 76.3305 6.32845C77.0176 7.01308 77.5772 7.83924 77.9441 8.78037C78.515 8.22687 79.2411 7.8183 80.076 7.64004C80.4405 7.56232 80.8061 7.54088 81.1623 7.55441C81.1203 7.09966 81.1212 6.64667 81.1532 6.20224C85.6915 6.81461 89.5548 9.44213 91.7452 13.1073C94.0169 10.1343 96.9322 7.64724 100.291 5.82364C101.776 6.00958 103.148 6.68148 104.19 7.72117C105.336 5.3202 107.539 3.45594 110.342 2.85789Z" fill="url(#paint85_radial_10664_38080)"/>
<path d="M52.2278 104.468C47.8453 107.517 38.4237 108.835 34.2107 107.27C20.1973 102.065 19.4596 89.1805 18.2585 79.171C17.0573 69.1614 17.2936 55.787 22.3994 49.6153C27.5053 43.4436 40.6167 43.0085 47.4232 45.0104C54.2297 47.0123 59.0342 50.4166 62.2373 68.0334C63.8846 77.0936 61.4365 98.0619 52.2278 104.468Z" fill="url(#paint86_radial_10664_38080)"/>
<path d="M52.2278 104.468C47.8453 107.517 38.4237 108.835 34.2107 107.27C20.1973 102.065 19.4596 89.1805 18.2585 79.171C17.0573 69.1614 17.2936 55.787 22.3994 49.6153C27.5053 43.4436 40.6167 43.0085 47.4232 45.0104C54.2297 47.0123 59.0342 50.4166 62.2373 68.0334C63.8846 77.0936 61.4365 98.0619 52.2278 104.468Z" fill="url(#paint87_radial_10664_38080)"/>
<path d="M52.2278 104.468C47.8453 107.517 38.4237 108.835 34.2107 107.27C20.1973 102.065 19.4596 89.1805 18.2585 79.171C17.0573 69.1614 17.2936 55.787 22.3994 49.6153C27.5053 43.4436 40.6167 43.0085 47.4232 45.0104C54.2297 47.0123 59.0342 50.4166 62.2373 68.0334C63.8846 77.0936 61.4365 98.0619 52.2278 104.468Z" fill="url(#paint88_radial_10664_38080)"/>
<path d="M60.696 72.8538L66.6498 71.5909L66.6488 70.9829L61.0664 71.2922L64.2428 68.7654L63.9951 68.3372L59.4963 70.8094C59.1895 70.5981 58.8176 70.4747 58.4169 70.4753C57.3679 70.4771 56.5189 71.3289 56.5207 72.3779C56.5225 73.427 57.3743 74.2759 58.4233 74.2742C58.9508 74.2733 59.4276 74.0575 59.7712 73.7098L63.7041 75.8538L63.9503 75.4247L60.696 72.8538Z" fill="url(#paint89_linear_10664_38080)"/>
<path d="M59.4879 84.6709L65.5055 85.5825L65.7184 85.013L60.3838 83.3393L64.246 82.091L64.1647 81.603L59.0838 82.3352C58.871 82.0295 58.5662 81.7831 58.1909 81.6428C57.2083 81.2755 56.114 81.7744 55.7467 82.757C55.3794 83.7396 55.8782 84.8339 56.8608 85.2012C57.3549 85.3859 57.8772 85.3516 58.3212 85.1469L61.2487 88.5371L61.6301 88.222L59.4879 84.6709Z" fill="url(#paint90_linear_10664_38080)"/>
<path d="M59.3916 61.8434L64.5334 58.587L64.3208 58.0173L59.1952 60.2506L61.2934 56.7761L60.9122 56.4608L57.5553 60.3445C57.1941 60.2532 56.8025 60.2669 56.4271 60.4071C55.4443 60.7739 54.9449 61.8679 55.3118 62.8507C55.6786 63.8335 56.7726 64.3329 57.7554 63.9661C58.2496 63.7816 58.6215 63.4133 58.8226 62.9677L63.2558 63.6087L63.3373 63.1207L59.3916 61.8434Z" fill="url(#paint91_linear_10664_38080)"/>
<path d="M55.0552 51.9406L59.51 47.7937L59.1962 47.2729L54.569 50.411L55.9921 46.6098L55.5594 46.3701L52.9743 50.8051C52.6026 50.7818 52.2202 50.8674 51.8769 51.0742C50.9784 51.6155 50.6889 52.7828 51.2303 53.6813C51.7716 54.5799 52.9389 54.8694 53.8374 54.328C54.2892 54.0558 54.5871 53.6254 54.7027 53.1504L59.1782 52.9647L59.1685 52.4701L55.0552 51.9406Z" fill="url(#paint92_linear_10664_38080)"/>
<path d="M46.5166 45.7019L48.4236 39.9222L47.8977 39.6168L45.3539 44.5956L44.7704 40.5789L44.2757 40.5772L44.1462 45.709C43.8091 45.8676 43.5152 46.1267 43.314 46.4733C42.7873 47.3805 43.0957 48.5429 44.0029 49.0696C44.9101 49.5963 46.0725 49.2879 46.5992 48.3807C46.8641 47.9245 46.9178 47.4039 46.7904 46.9319L50.6232 44.6138L50.3764 44.1849L46.5166 45.7019Z" fill="url(#paint93_linear_10664_38080)"/>
<path d="M38.8283 43.0772L37.2144 37.2089L36.6074 37.246L37.2475 42.8002L34.5367 39.7793L34.1238 40.0519L36.8587 44.3962C36.666 44.7149 36.5648 45.0935 36.5892 45.4935C36.6532 46.5405 37.5539 47.3375 38.601 47.2734C39.6481 47.2094 40.445 46.3087 40.381 45.2617C40.3488 44.7352 40.1051 44.272 39.7376 43.9496L41.6445 39.8965L41.2016 39.6761L38.8283 43.0772Z" fill="url(#paint94_linear_10664_38080)"/>
<path d="M48.7032 66.4825L52.0073 60.9843L51.5377 60.5482L47.7652 65.0749L48.0992 60.8101L47.591 60.6934L46.2648 65.9387C45.8815 66.0234 45.519 66.2214 45.2316 66.5309C44.4793 67.341 44.5261 68.6077 45.3362 69.3601C46.1463 70.1124 47.413 70.0656 48.1654 69.2555C48.5437 68.8481 48.7199 68.3254 48.6987 67.8106L53.1777 66.3186L53.0238 65.8204L48.7032 66.4825Z" fill="url(#paint95_linear_10664_38080)"/>
<path d="M42.5331 58.4423L44.5291 52.3462L43.9742 52.0256L41.305 57.2791L40.6805 53.047L40.159 53.0465L40.0348 58.4554C39.68 58.6234 39.3708 58.8972 39.1596 59.2629C38.6066 60.2203 38.9345 61.4447 39.8919 61.9977C40.8493 62.5506 42.0737 62.2228 42.6266 61.2654C42.9047 60.784 42.96 60.2351 42.8246 59.738L46.8586 57.2856L46.5976 56.8342L42.5331 58.4423Z" fill="url(#paint96_linear_10664_38080)"/>
<path d="M34.0883 53.1953L36.0843 47.0992L35.5293 46.7787L32.8602 52.0321L32.2356 47.8001L31.7142 47.7995L31.59 53.2084C31.2352 53.3764 30.926 53.6503 30.7148 54.016C30.1618 54.9734 30.4896 56.1978 31.447 56.7507C32.4044 57.3037 33.6288 56.9758 34.1818 56.0184C34.4598 55.537 34.5152 54.9881 34.3798 54.491L38.4138 52.0387L38.1527 51.5873L34.0883 53.1953Z" fill="url(#paint97_linear_10664_38080)"/>
<path d="M26.936 47.2395L25.2616 41.0474L24.6217 41.0837L25.2711 46.9404L22.4278 43.7442L21.9915 44.0297L24.8541 48.6207C24.6496 48.9558 24.5412 49.3543 24.5652 49.776C24.6279 50.8798 25.5736 51.7238 26.6774 51.6611C27.7812 51.5984 28.6252 50.6527 28.5625 49.5489C28.531 48.9939 28.2762 48.5045 27.8904 48.1631L29.9185 43.9L29.4527 43.6658L26.936 47.2395Z" fill="url(#paint98_linear_10664_38080)"/>
<path d="M51.2743 76.7093L56.295 72.7169L56.008 72.1439L50.8888 75.0623L52.6956 71.1847L52.2605 70.8973L49.1809 75.3457C48.7922 75.2908 48.3833 75.3493 48.0058 75.5385C47.0173 76.0337 46.6174 77.2365 47.1126 78.225C47.6079 79.2135 48.8107 79.6134 49.7992 79.1181C50.2962 78.8691 50.6444 78.4412 50.8048 77.9516L55.5227 78.1232L55.553 77.6027L51.2743 76.7093Z" fill="url(#paint99_linear_10664_38080)"/>
<path d="M51.2973 86.8964L57.5723 85.5653L57.5712 84.9244L51.6876 85.2505L55.0355 82.5874L54.7744 82.136L50.0328 84.7416C49.7095 84.5189 49.3175 84.3888 48.8952 84.3895C47.7896 84.3914 46.8948 85.2892 46.8967 86.3948C46.8986 87.5004 47.7963 88.3952 48.9019 88.3933C49.4579 88.3924 49.9605 88.1649 50.3226 87.7984L54.4676 90.0582L54.7272 89.6059L51.2973 86.8964Z" fill="url(#paint100_linear_10664_38080)"/>
<path d="M51.0773 98.6185L57.4151 99.6085L57.6422 99.0092L52.028 97.2194L56.1046 95.9226L56.0213 95.4078L50.6628 96.1548C50.4399 95.8316 50.1199 95.5705 49.725 95.4208C48.6912 95.0289 47.5354 95.5494 47.1436 96.5832C46.7517 97.617 47.2722 98.7728 48.306 99.1646C48.8258 99.3617 49.3765 99.3281 49.8454 99.1145L52.9144 102.702L53.3179 102.372L51.0773 98.6185Z" fill="url(#paint101_linear_10664_38080)"/>
<path d="M37.8972 75.6574L41.2013 70.1593L40.7317 69.7231L36.9591 74.2498L37.2932 69.985L36.785 69.8683L35.4588 75.1136C35.0754 75.1983 34.713 75.3964 34.4256 75.7058C33.6732 76.5159 33.7201 77.7826 34.5302 78.535C35.3403 79.2874 36.607 79.2405 37.3594 78.4304C37.7377 78.0231 37.9139 77.5003 37.8927 76.9855L42.3717 75.4936L42.2178 74.9954L37.8972 75.6574Z" fill="url(#paint102_linear_10664_38080)"/>
<path d="M31.2262 68.637L33.2222 62.5409L32.6673 62.2203L29.9981 67.4738L29.3736 63.2417L28.8521 63.2412L28.7279 68.6501C28.3731 68.8181 28.0639 69.0919 27.8527 69.4576C27.2997 70.415 27.6276 71.6394 28.585 72.1924C29.5424 72.7453 30.7668 72.4175 31.3197 71.4601C31.5978 70.9787 31.6531 70.4298 31.5177 69.9327L35.5518 67.4803L35.2907 67.0289L31.2262 68.637Z" fill="url(#paint103_linear_10664_38080)"/>
<path d="M27.9695 85.3544L30.9849 80.3366L30.5565 79.9387L27.1141 84.0693L27.4188 80.1783L26.9547 80.0717L25.7454 84.8545C25.3943 84.9315 25.0623 85.1126 24.7992 85.396C24.112 86.1359 24.1548 87.2928 24.8947 87.98C25.6346 88.6671 26.7915 88.6244 27.4786 87.8844C27.8237 87.5129 27.9847 87.0362 27.9658 86.5667L32.0531 85.2052L31.9125 84.7502L27.9695 85.3544Z" fill="url(#paint104_linear_10664_38080)"/>
<path d="M40.883 87.2308L45.9037 83.2384L45.6166 82.6654L40.4974 85.5838L42.3043 81.7062L41.8692 81.4188L38.7896 85.8672C38.4008 85.8122 37.992 85.8708 37.6144 86.06C36.6259 86.5552 36.226 87.758 36.7213 88.7465C37.2165 89.735 38.4193 90.1349 39.4078 89.6396C39.9048 89.3906 40.2531 88.9627 40.4135 88.4731L45.1313 88.6447L45.1617 88.1242L40.883 87.2308Z" fill="url(#paint105_linear_10664_38080)"/>
<path d="M41.631 95.6066L47.906 94.2755L47.9049 93.6346L42.0213 93.9607L45.3692 91.2976L45.1082 90.8462L40.3666 93.4518C40.0433 93.2291 39.6513 93.099 39.229 93.0997C38.1234 93.1016 37.2286 93.9994 37.2304 95.105C37.2323 96.2106 38.1301 97.1054 39.2357 97.1035C39.7916 97.1026 40.2942 96.8751 40.6563 96.5086L44.8014 98.7684L45.0609 98.3161L41.631 95.6066Z" fill="url(#paint106_linear_10664_38080)"/>
<path d="M21.8856 78.95L23.7066 73.3886L23.2003 73.0962L20.7646 77.8901L20.1947 74.0284L19.7185 74.0279L19.6052 78.9588C19.2801 79.1122 18.9967 79.3627 18.8033 79.6976C18.2983 80.572 18.5977 81.6903 19.4721 82.1953C20.3465 82.7004 21.4648 82.4009 21.9699 81.5265C22.2235 81.0873 22.2742 80.5867 22.1511 80.1331L25.8325 77.895L25.5941 77.4828L21.8856 78.95Z" fill="url(#paint107_linear_10664_38080)"/>
<path d="M23.9746 61.1646L25.9707 55.0685L25.4157 54.7479L22.7466 60.0014L22.122 55.7693L21.6005 55.7687L21.4763 61.1777C21.1215 61.3457 20.8123 61.6195 20.6011 61.9852C20.0481 62.9426 20.376 64.167 21.3334 64.72C22.2908 65.2729 23.5152 64.9451 24.0681 63.9877C24.3462 63.5063 24.4015 62.9574 24.2661 62.4603L28.3002 60.0079L28.0391 59.5565L23.9746 61.1646Z" fill="url(#paint108_linear_10664_38080)"/>
<path d="M30.6924 95.912L35.274 92.2688L35.0122 91.746L30.3415 94.4087L31.9897 90.8715L31.5923 90.609L28.7846 94.6647C28.4286 94.6138 28.054 94.6671 27.7082 94.8403C26.8053 95.2927 26.4401 96.3912 26.8924 97.294C27.3448 98.1969 28.4433 98.5621 29.3461 98.1098C29.7995 97.8826 30.1173 97.4926 30.2641 97.0461L34.5694 97.2027L34.5971 96.7273L30.6924 95.912Z" fill="url(#paint109_linear_10664_38080)"/>
<path d="M35.4809 103.866L41.2067 102.652L41.2057 102.067L35.8385 102.364L38.8919 99.9355L38.6535 99.5232L34.3301 101.899C34.0344 101.695 33.6754 101.575 33.2887 101.576C32.2789 101.577 31.4617 102.397 31.4634 103.407C31.4651 104.417 32.285 105.234 33.2948 105.233C33.8022 105.232 34.261 105.024 34.5917 104.69L38.3737 106.752L38.6107 106.339L35.4809 103.866Z" fill="url(#paint110_linear_10664_38080)"/>
<path d="M97.3476 93.6115C96.3619 94.9763 102.181 96.7392 104.645 100.246H106.731C108.816 95.6966 114.484 95.2606 113.65 93.1375C112.816 91.0145 110.08 92.5689 108.816 93.6115C109.858 92.0318 111.583 88.6071 110.143 87.5455C108.702 86.4839 107.268 89.6306 106.731 91.3367C106.92 88.5881 106.807 83.1289 104.835 83.2806C102.864 83.4322 103.319 88.7145 103.793 91.3367C102.971 89.5675 101.025 86.3323 99.8119 87.5455C98.5987 88.7587 100.886 92.4741 102.181 94.1802C100.981 93.422 98.3333 92.2467 97.3476 93.6115Z" fill="url(#paint111_linear_10664_38080)"/>
<path d="M68.037 92.9558C67.1138 94.234 72.5639 95.885 74.8717 99.1694H76.8246C78.7775 94.9085 84.0857 94.5002 83.3045 92.5119C82.5234 90.5235 79.9611 91.9793 78.7775 92.9558C79.7539 91.4763 81.3695 88.2689 80.0202 87.2747C78.671 86.2805 77.3277 89.2275 76.8247 90.8253C77.0022 88.2511 76.8957 83.1383 75.0494 83.2804C73.2031 83.4224 73.6292 88.3695 74.073 90.8253C73.3037 89.1683 71.4811 86.1385 70.3449 87.2747C69.2087 88.4109 71.3509 91.8905 72.564 93.4884C71.4396 92.7782 68.9601 91.6775 68.037 92.9558Z" fill="url(#paint112_linear_10664_38080)"/>
<path d="M77.1391 106.857C75.638 108.935 84.4999 111.62 88.2523 116.96H91.4277C94.6032 110.032 103.234 109.368 101.964 106.135C100.694 102.902 96.5276 105.269 94.6032 106.857C96.1908 104.451 98.8176 99.236 96.6238 97.6194C94.43 96.0028 92.2457 100.795 91.4278 103.393C91.7165 99.2072 91.5434 90.8938 88.5413 91.1247C85.5392 91.3556 86.232 99.3996 86.9536 103.393C85.7028 100.699 82.7392 95.772 80.8917 97.6194C79.0443 99.4669 82.5275 105.125 84.5 107.723C82.6718 106.568 78.6401 104.778 77.1391 106.857Z" fill="url(#paint113_linear_10664_38080)"/>
<defs>
<radialGradient id="paint0_radial_10664_38080" cx="0" cy="0" r="1" gradientTransform="matrix(209.585 2.05414 1.22594 -115.519 137.249 83.6979)" gradientUnits="userSpaceOnUse">
<stop offset="0.28992" stop-color="#8FDAFF"/>
<stop offset="0.729248" stop-color="#A7EEFF"/>
</radialGradient>
<radialGradient id="paint1_radial_10664_38080" cx="0" cy="0" r="1" gradientTransform="matrix(171.478 -5.25603 0.0283728 97.5302 90.8654 88.2692)" gradientUnits="userSpaceOnUse">
<stop offset="0.283307" stop-color="#FF8A77"/>
<stop offset="0.733991" stop-color="#BAB1FF" stop-opacity="0"/>
</radialGradient>
<radialGradient id="paint2_radial_10664_38080" cx="0" cy="0" r="1" gradientTransform="matrix(106.134 55.3846 -27.4293 59.8331 151.731 42.6923)" gradientUnits="userSpaceOnUse">
<stop stop-color="#FFC89C"/>
<stop offset="1" stop-color="#FFBBB5" stop-opacity="0"/>
</radialGradient>
<radialGradient id="paint3_radial_10664_38080" cx="0" cy="0" r="1" gradientTransform="matrix(159.163 3.06163 -1.78799 97.1338 117.81 68.6539)" gradientUnits="userSpaceOnUse">
<stop stop-color="#FFC43C"/>
<stop offset="0.458456" stop-color="#FFAA64" stop-opacity="0"/>
</radialGradient>
<radialGradient id="paint4_radial_10664_38080" cx="0" cy="0" r="1" gradientUnits="userSpaceOnUse" gradientTransform="translate(117.692 85.3846) scale(136.154 85.3846)">
<stop offset="0.692797" stop-color="#90C0EE" stop-opacity="0"/>
<stop offset="1" stop-color="#3A85B3"/>
</radialGradient>
<radialGradient id="paint5_radial_10664_38080" cx="0" cy="0" r="1" gradientUnits="userSpaceOnUse" gradientTransform="translate(97.7885 78.4615) rotate(50.2395) scale(46.9058 46.9058)">
<stop stop-color="#FDF4D9"/>
<stop offset="1" stop-color="#FFBF56" stop-opacity="0"/>
</radialGradient>
<linearGradient id="paint6_linear_10664_38080" x1="115.016" y1="72.2754" x2="115.016" y2="95.2996" gradientUnits="userSpaceOnUse">
<stop stop-color="#FEFAF2"/>
<stop offset="1" stop-color="#FFCD5A"/>
</linearGradient>
<linearGradient id="paint7_linear_10664_38080" x1="173.764" y1="112.476" x2="173.764" y2="77.2049" gradientUnits="userSpaceOnUse">
<stop offset="1.24194e-08" stop-color="#F5B35B"/>
<stop offset="0.590062" stop-color="#778C9F"/>
<stop offset="1" stop-color="#3D405F"/>
</linearGradient>
<linearGradient id="paint8_linear_10664_38080" x1="64.8863" y1="64.745" x2="64.8863" y2="98.684" gradientUnits="userSpaceOnUse">
<stop stop-color="#6E6679"/>
<stop offset="1" stop-color="#623E52"/>
</linearGradient>
<radialGradient id="paint9_radial_10664_38080" cx="0" cy="0" r="1" gradientUnits="userSpaceOnUse" gradientTransform="translate(87.1927 78.8367) rotate(176.335) scale(45.0179 8.5712)">
<stop stop-color="#A398A1" stop-opacity="0.5"/>
<stop offset="1" stop-color="#B595B0" stop-opacity="0"/>
</radialGradient>
<radialGradient id="paint10_radial_10664_38080" cx="0" cy="0" r="1" gradientTransform="matrix(20.5855 21.8551 -11.724 11.0447 35.1571 75.8739)" gradientUnits="userSpaceOnUse">
<stop stop-color="#D49888"/>
<stop offset="1" stop-color="#D4BF88" stop-opacity="0"/>
</radialGradient>
<radialGradient id="paint11_radial_10664_38080" cx="0" cy="0" r="1" gradientTransform="matrix(2.82079 18.7293 -7.49253 1.22411 79.4098 77.7509)" gradientUnits="userSpaceOnUse">
<stop stop-color="#D49888"/>
<stop offset="1" stop-color="#D4BF88" stop-opacity="0"/>
</radialGradient>
<radialGradient id="paint12_radial_10664_38080" cx="0" cy="0" r="1" gradientTransform="matrix(6.57225 21.3178 -8.90838 3.03463 87.885 74.4161)" gradientUnits="userSpaceOnUse">
<stop stop-color="#D49888"/>
<stop offset="1" stop-color="#D4BF88" stop-opacity="0"/>
</radialGradient>
<radialGradient id="paint13_radial_10664_38080" cx="0" cy="0" r="1" gradientTransform="matrix(3.08503 15.9181 -7.72301 1.72956 97.7742 79.451)" gradientUnits="userSpaceOnUse">
<stop stop-color="#D49888"/>
<stop offset="1" stop-color="#D4BF88" stop-opacity="0"/>
</radialGradient>
<radialGradient id="paint14_radial_10664_38080" cx="0" cy="0" r="1" gradientTransform="matrix(-3.17982 -17.5536 8.06972 -1.46643 68.6568 81.502)" gradientUnits="userSpaceOnUse">
<stop stop-color="#D49888"/>
<stop offset="1" stop-color="#D4BF88" stop-opacity="0"/>
</radialGradient>
<radialGradient id="paint15_radial_10664_38080" cx="0" cy="0" r="1" gradientTransform="matrix(7.42628 22.5942 -8.9547 2.8176 56.224 68.5516)" gradientUnits="userSpaceOnUse">
<stop stop-color="#D49888"/>
<stop offset="1" stop-color="#D4BF88" stop-opacity="0"/>
</radialGradient>
<radialGradient id="paint16_radial_10664_38080" cx="0" cy="0" r="1" gradientUnits="userSpaceOnUse" gradientTransform="translate(104.25 93.2775) rotate(173.306) scale(46.3829 18.4353)">
<stop offset="0.314933" stop-color="#130B11"/>
<stop offset="1" stop-color="#130B11" stop-opacity="0"/>
</radialGradient>
<radialGradient id="paint17_radial_10664_38080" cx="0" cy="0" r="1" gradientUnits="userSpaceOnUse" gradientTransform="translate(22.2634 98.684) rotate(-2.65428) scale(50.4831 25.5901)">
<stop offset="0.325978" stop-color="#130B11"/>
<stop offset="1" stop-color="#130B11" stop-opacity="0"/>
</radialGradient>
<linearGradient id="paint18_linear_10664_38080" x1="50.4041" y1="82.119" x2="60.4872" y2="96.6357" gradientUnits="userSpaceOnUse">
<stop stop-color="#5B472E"/>
<stop offset="1" stop-color="#385A3E"/>
</linearGradient>
<radialGradient id="paint19_radial_10664_38080" cx="0" cy="0" r="1" gradientTransform="matrix(6.89579 18.6487 -13.5209 9.51103 45.3897 78.0435)" gradientUnits="userSpaceOnUse">
<stop stop-color="#EB9526"/>
<stop offset="1" stop-color="#8DBA24" stop-opacity="0"/>
</radialGradient>
<linearGradient id="paint20_linear_10664_38080" x1="52.2857" y1="79.9343" x2="57.5112" y2="95.5177" gradientUnits="userSpaceOnUse">
<stop stop-color="#1E271B" stop-opacity="0"/>
<stop offset="1" stop-color="#1E271B"/>
</linearGradient>
<linearGradient id="paint21_linear_10664_38080" x1="83.6717" y1="77.7267" x2="92.6146" y2="103.975" gradientUnits="userSpaceOnUse">
<stop stop-color="#5B472E"/>
<stop offset="1" stop-color="#385A3E"/>
</linearGradient>
<radialGradient id="paint22_radial_10664_38080" cx="0" cy="0" r="1" gradientTransform="matrix(19.1377 25.3863 -37.5241 12.9473 69.7554 72.1787)" gradientUnits="userSpaceOnUse">
<stop stop-color="#AF6A10"/>
<stop offset="1" stop-color="#8DBA24" stop-opacity="0"/>
</radialGradient>
<linearGradient id="paint23_linear_10664_38080" x1="92.2188" y1="80.339" x2="98.9928" y2="99.8531" gradientUnits="userSpaceOnUse">
<stop stop-color="#444A2F" stop-opacity="0"/>
<stop offset="1" stop-color="#1E271B"/>
</linearGradient>
<linearGradient id="paint24_linear_10664_38080" x1="38.5529" y1="83.3383" x2="45.7432" y2="100.479" gradientUnits="userSpaceOnUse">
<stop stop-color="#5B472E"/>
<stop offset="1" stop-color="#385A3E"/>
</linearGradient>
<radialGradient id="paint25_radial_10664_38080" cx="0" cy="0" r="1" gradientTransform="matrix(10.6942 17.4668 -20.9685 8.90829 30.7765 79.5211)" gradientUnits="userSpaceOnUse">
<stop stop-color="#EB9729"/>
<stop offset="1" stop-color="#8DBA24" stop-opacity="0"/>
</radialGradient>
<linearGradient id="paint26_linear_10664_38080" x1="43.5281" y1="86.0251" x2="49.0643" y2="109.769" gradientUnits="userSpaceOnUse">
<stop stop-color="#1E271B" stop-opacity="0"/>
<stop offset="1" stop-color="#1E271B"/>
</linearGradient>
<linearGradient id="paint27_linear_10664_38080" x1="194.296" y1="78.535" x2="201.409" y2="97.2518" gradientUnits="userSpaceOnUse">
<stop stop-color="#5B472E"/>
<stop offset="1" stop-color="#385A3E"/>
</linearGradient>
<radialGradient id="paint28_radial_10664_38080" cx="0" cy="0" r="1" gradientTransform="matrix(21.7361 12.4688 -11.0841 18.3325 186.116 73.2363)" gradientUnits="userSpaceOnUse">
<stop stop-color="#EA901D"/>
<stop offset="1" stop-color="#8DBA24" stop-opacity="0"/>
</radialGradient>
<linearGradient id="paint29_linear_10664_38080" x1="197.365" y1="75.6947" x2="202.987" y2="96.7308" gradientUnits="userSpaceOnUse">
<stop stop-color="#1E271B" stop-opacity="0"/>
<stop offset="1" stop-color="#1E271B"/>
</linearGradient>
<linearGradient id="paint30_linear_10664_38080" x1="156.713" y1="81.2231" x2="164.245" y2="102.108" gradientUnits="userSpaceOnUse">
<stop stop-color="#5B472E"/>
<stop offset="1" stop-color="#385A3E"/>
</linearGradient>
<radialGradient id="paint31_radial_10664_38080" cx="0" cy="0" r="1" gradientTransform="matrix(14.5644 20.4519 -28.5571 10.4307 146.122 76.7534)" gradientUnits="userSpaceOnUse">
<stop stop-color="#E88C16"/>
<stop offset="1" stop-color="#8DBA24" stop-opacity="0"/>
</radialGradient>
<radialGradient id="paint32_radial_10664_38080" cx="0" cy="0" r="1" gradientUnits="userSpaceOnUse" gradientTransform="translate(41.6142 95.2506) scale(21.8253 12.4244)">
<stop offset="0.222932" stop-color="#585D38" stop-opacity="0"/>
<stop offset="0.604806" stop-color="#877429" stop-opacity="0.610723"/>
<stop offset="1" stop-color="#AF6A10"/>
</radialGradient>
<radialGradient id="paint33_radial_10664_38080" cx="0" cy="0" r="1" gradientTransform="matrix(12.1552 4.21431 -2.52738 6.91627 78.8993 86.7442)" gradientUnits="userSpaceOnUse">
<stop stop-color="#AF6A10"/>
<stop offset="1" stop-color="#8DBA24" stop-opacity="0"/>
</radialGradient>
<radialGradient id="paint34_radial_10664_38080" cx="0" cy="0" r="1" gradientTransform="matrix(4.01046 11.4218 -7.86347 5.82525 153.702 85.0547)" gradientUnits="userSpaceOnUse">
<stop stop-color="#AF6A10"/>
<stop offset="1" stop-color="#8DBA24" stop-opacity="0"/>
</radialGradient>
<linearGradient id="paint35_linear_10664_38080" x1="121.051" y1="93.3713" x2="121.051" y2="120" gradientUnits="userSpaceOnUse">
<stop stop-color="#DA7E26"/>
<stop offset="1" stop-color="#5E3024"/>
</linearGradient>
<radialGradient id="paint36_radial_10664_38080" cx="0" cy="0" r="1" gradientUnits="userSpaceOnUse" gradientTransform="translate(120.434 93.3713) scale(110.487 19.5727)">
<stop stop-color="#FAA242"/>
<stop offset="0.807692" stop-color="#FAA242" stop-opacity="0"/>
</radialGradient>
<linearGradient id="paint37_linear_10664_38080" x1="212.894" y1="61.9858" x2="189.278" y2="65.8364" gradientUnits="userSpaceOnUse">
<stop stop-color="#459325"/>
<stop offset="1" stop-color="#154134"/>
</linearGradient>
<radialGradient id="paint38_radial_10664_38080" cx="0" cy="0" r="1" gradientUnits="userSpaceOnUse" gradientTransform="translate(201.734 61.8933) rotate(87.1014) scale(17.5517 5.83936)">
<stop offset="0.285992" stop-color="#FFDE9D"/>
<stop offset="1" stop-color="#5B7C2C" stop-opacity="0"/>
</radialGradient>
<radialGradient id="paint39_radial_10664_38080" cx="0" cy="0" r="1" gradientUnits="userSpaceOnUse" gradientTransform="translate(202.399 62.7069) rotate(-84.1899) scale(21.1884 8.97096)">
<stop offset="0.478079" stop-color="#23775E" stop-opacity="0"/>
<stop offset="0.977165" stop-color="#154134"/>
</radialGradient>
<linearGradient id="paint40_linear_10664_38080" x1="203.357" y1="60.0124" x2="212.851" y2="84.936" gradientUnits="userSpaceOnUse">
<stop stop-color="#459325"/>
<stop offset="1" stop-color="#154134"/>
</linearGradient>
<radialGradient id="paint41_radial_10664_38080" cx="0" cy="0" r="1" gradientUnits="userSpaceOnUse" gradientTransform="translate(201.896 59.4646) rotate(86.2899) scale(19.7521 7.25166)">
<stop offset="0.461658" stop-color="#FFDE9D"/>
<stop offset="0.932293" stop-color="#5B7C2C" stop-opacity="0"/>
</radialGradient>
<radialGradient id="paint42_radial_10664_38080" cx="0" cy="0" r="1" gradientUnits="userSpaceOnUse" gradientTransform="translate(199.732 64.1964) rotate(77.0591) scale(15.3693 7.16863)">
<stop offset="0.648913" stop-color="#FFDE9D"/>
<stop offset="0.932293" stop-color="#5B7C2C" stop-opacity="0"/>
</radialGradient>
<linearGradient id="paint43_linear_10664_38080" x1="203.426" y1="64.0591" x2="208.695" y2="64.0591" gradientUnits="userSpaceOnUse">
<stop offset="0.478079" stop-color="#23775E" stop-opacity="0"/>
<stop offset="0.977165" stop-color="#154134"/>
</linearGradient>
<linearGradient id="paint44_linear_10664_38080" x1="177.89" y1="46.4482" x2="201.438" y2="50.4969" gradientUnits="userSpaceOnUse">
<stop stop-color="#459325"/>
<stop offset="1" stop-color="#154134"/>
</linearGradient>
<radialGradient id="paint45_radial_10664_38080" cx="0" cy="0" r="1" gradientUnits="userSpaceOnUse" gradientTransform="translate(186.645 54.9347) rotate(87.7316) scale(22.9466 6.91729)">
<stop offset="0.52071" stop-color="#5B7C2C" stop-opacity="0"/>
<stop offset="1" stop-color="#FFDE9D"/>
</radialGradient>
<radialGradient id="paint46_radial_10664_38080" cx="0" cy="0" r="1" gradientUnits="userSpaceOnUse" gradientTransform="translate(189.308 49.9052) rotate(-87.4293) scale(18.1393 6.89488)">
<stop offset="0.368121" stop-color="#154134"/>
<stop offset="0.918947" stop-color="#23775E" stop-opacity="0"/>
</radialGradient>
<linearGradient id="paint47_linear_10664_38080" x1="180.745" y1="46.4482" x2="192.9" y2="47.5038" gradientUnits="userSpaceOnUse">
<stop stop-color="#459325"/>
<stop offset="1" stop-color="#154134"/>
</linearGradient>
<linearGradient id="paint48_linear_10664_38080" x1="184.869" y1="49.408" x2="182.133" y2="49.408" gradientUnits="userSpaceOnUse">
<stop offset="0.52071" stop-color="#5B7C2C" stop-opacity="0"/>
<stop offset="1" stop-color="#FFDE9D"/>
</linearGradient>
<radialGradient id="paint49_radial_10664_38080" cx="0" cy="0" r="1" gradientUnits="userSpaceOnUse" gradientTransform="translate(195.672 45.9358) rotate(120.834) scale(20.4971 18.6706)">
<stop offset="0.811448" stop-color="#5B7C2C" stop-opacity="0"/>
<stop offset="0.99198" stop-color="#FFDE9D"/>
</radialGradient>
<radialGradient id="paint50_radial_10664_38080" cx="0" cy="0" r="1" gradientUnits="userSpaceOnUse" gradientTransform="translate(186.733 48.5352) rotate(-89.3491) scale(16.752 3.63787)">
<stop offset="0.368121" stop-color="#154134"/>
<stop offset="0.918947" stop-color="#154134" stop-opacity="0"/>
</radialGradient>
<linearGradient id="paint51_linear_10664_38080" x1="188.183" y1="53.0801" x2="202.384" y2="53.0801" gradientUnits="userSpaceOnUse">
<stop offset="0.278351" stop-color="#459325"/>
<stop offset="1" stop-color="#154134"/>
</linearGradient>
<radialGradient id="paint52_radial_10664_38080" cx="0" cy="0" r="1" gradientUnits="userSpaceOnUse" gradientTransform="translate(190.807 35.4221) rotate(90.7389) scale(53.079 11.1582)">
<stop stop-color="#FFDE9D"/>
<stop offset="1" stop-color="#5B7C2C" stop-opacity="0"/>
</radialGradient>
<linearGradient id="paint53_linear_10664_38080" x1="190.15" y1="53.0801" x2="200.256" y2="53.0801" gradientUnits="userSpaceOnUse">
<stop offset="0.278351" stop-color="#459325" stop-opacity="0"/>
<stop offset="0.9" stop-color="#154134"/>
</linearGradient>
<linearGradient id="paint54_linear_10664_38080" x1="191.182" y1="69.6454" x2="192.939" y2="69.6454" gradientUnits="userSpaceOnUse">
<stop stop-color="#FFDE9D"/>
<stop offset="1" stop-color="#5B7C2C" stop-opacity="0"/>
</linearGradient>
<linearGradient id="paint55_linear_10664_38080" x1="192.772" y1="53.0801" x2="197.416" y2="53.0801" gradientUnits="userSpaceOnUse">
<stop offset="0.278351" stop-color="#459325" stop-opacity="0"/>
<stop offset="0.9" stop-color="#154134"/>
</linearGradient>
<linearGradient id="paint56_linear_10664_38080" x1="192.851" y1="69.6454" x2="195.473" y2="69.6454" gradientUnits="userSpaceOnUse">
<stop stop-color="#FFDE9D"/>
<stop offset="1" stop-color="#5B7C2C" stop-opacity="0"/>
</linearGradient>
<linearGradient id="paint57_linear_10664_38080" x1="167.195" y1="40.3825" x2="131.212" y2="46.2496" gradientUnits="userSpaceOnUse">
<stop stop-color="#459325"/>
<stop offset="1" stop-color="#154134"/>
</linearGradient>
<radialGradient id="paint58_radial_10664_38080" cx="0" cy="0" r="1" gradientUnits="userSpaceOnUse" gradientTransform="translate(150.19 40.2416) rotate(87.1014) scale(26.7434 8.89736)">
<stop offset="0.285992" stop-color="#FFDE9D"/>
<stop offset="1" stop-color="#5B7C2C" stop-opacity="0"/>
</radialGradient>
<radialGradient id="paint59_radial_10664_38080" cx="0" cy="0" r="1" gradientUnits="userSpaceOnUse" gradientTransform="translate(151.204 41.4813) rotate(-84.1899) scale(32.2845 13.6689)">
<stop offset="0.478079" stop-color="#23775E" stop-opacity="0"/>
<stop offset="0.977165" stop-color="#154134"/>
</radialGradient>
<linearGradient id="paint60_linear_10664_38080" x1="152.664" y1="37.3757" x2="167.131" y2="75.3514" gradientUnits="userSpaceOnUse">
<stop stop-color="#459325"/>
<stop offset="1" stop-color="#154134"/>
</linearGradient>
<radialGradient id="paint61_radial_10664_38080" cx="0" cy="0" r="1" gradientUnits="userSpaceOnUse" gradientTransform="translate(150.438 36.5411) rotate(86.2899) scale(30.0961 11.0493)">
<stop offset="0.461658" stop-color="#FFDE9D"/>
<stop offset="0.932293" stop-color="#5B7C2C" stop-opacity="0"/>
</radialGradient>
<radialGradient id="paint62_radial_10664_38080" cx="0" cy="0" r="1" gradientUnits="userSpaceOnUse" gradientTransform="translate(147.141 43.7509) rotate(77.0591) scale(23.418 10.9227)">
<stop offset="0.648913" stop-color="#FFDE9D"/>
<stop offset="0.932293" stop-color="#5B7C2C" stop-opacity="0"/>
</radialGradient>
<linearGradient id="paint63_linear_10664_38080" x1="152.77" y1="43.5415" x2="160.798" y2="43.5415" gradientUnits="userSpaceOnUse">
<stop offset="0.478079" stop-color="#23775E" stop-opacity="0"/>
<stop offset="0.977165" stop-color="#154134"/>
</linearGradient>
<linearGradient id="paint64_linear_10664_38080" x1="113.861" y1="35.5371" x2="149.74" y2="41.7062" gradientUnits="userSpaceOnUse">
<stop stop-color="#459325"/>
<stop offset="1" stop-color="#154134"/>
</linearGradient>
<radialGradient id="paint65_radial_10664_38080" cx="0" cy="0" r="1" gradientUnits="userSpaceOnUse" gradientTransform="translate(127.201 48.468) rotate(87.7316) scale(34.9634 10.5398)">
<stop offset="0.52071" stop-color="#5B7C2C" stop-opacity="0"/>
<stop offset="1" stop-color="#FFDE9D"/>
</radialGradient>
<radialGradient id="paint66_radial_10664_38080" cx="0" cy="0" r="1" gradientUnits="userSpaceOnUse" gradientTransform="translate(131.258 40.8046) rotate(-87.4293) scale(27.6386 10.5056)">
<stop offset="0.368121" stop-color="#154134"/>
<stop offset="0.918947" stop-color="#23775E" stop-opacity="0"/>
</radialGradient>
<linearGradient id="paint67_linear_10664_38080" x1="118.21" y1="35.5371" x2="136.73" y2="37.1456" gradientUnits="userSpaceOnUse">
<stop stop-color="#459325"/>
<stop offset="1" stop-color="#154134"/>
</linearGradient>
<linearGradient id="paint68_linear_10664_38080" x1="124.494" y1="40.047" x2="120.324" y2="40.047" gradientUnits="userSpaceOnUse">
<stop offset="0.52071" stop-color="#5B7C2C" stop-opacity="0"/>
<stop offset="1" stop-color="#FFDE9D"/>
</linearGradient>
<radialGradient id="paint69_radial_10664_38080" cx="0" cy="0" r="1" gradientUnits="userSpaceOnUse" gradientTransform="translate(140.953 34.7564) rotate(120.834) scale(31.2311 28.4482)">
<stop offset="0.811448" stop-color="#5B7C2C" stop-opacity="0"/>
<stop offset="0.99198" stop-color="#FFDE9D"/>
</radialGradient>
<radialGradient id="paint70_radial_10664_38080" cx="0" cy="0" r="1" gradientUnits="userSpaceOnUse" gradientTransform="translate(127.334 38.717) rotate(-89.3491) scale(25.5248 5.54298)">
<stop offset="0.368121" stop-color="#154134"/>
<stop offset="0.918947" stop-color="#154134" stop-opacity="0"/>
</radialGradient>
<linearGradient id="paint71_linear_10664_38080" x1="129.545" y1="36.2707" x2="151.182" y2="36.2707" gradientUnits="userSpaceOnUse">
<stop offset="0.278351" stop-color="#459325"/>
<stop offset="1" stop-color="#154134"/>
</linearGradient>
<radialGradient id="paint72_radial_10664_38080" cx="0" cy="0" r="1" gradientUnits="userSpaceOnUse" gradientTransform="translate(133.542 9.36548) rotate(90.7389) scale(80.8758 17.0016)">
<stop stop-color="#FFDE9D"/>
<stop offset="1" stop-color="#5B7C2C" stop-opacity="0"/>
</radialGradient>
<linearGradient id="paint73_linear_10664_38080" x1="165.523" y1="91.5884" x2="106.765" y2="24.217" gradientUnits="userSpaceOnUse">
<stop stop-color="#084612"/>
<stop offset="1" stop-color="#094611" stop-opacity="0"/>
</linearGradient>
<linearGradient id="paint74_linear_10664_38080" x1="132.539" y1="36.2707" x2="147.938" y2="36.2707" gradientUnits="userSpaceOnUse">
<stop offset="0.278351" stop-color="#459325" stop-opacity="0"/>
<stop offset="0.9" stop-color="#154134"/>
</linearGradient>
<linearGradient id="paint75_linear_10664_38080" x1="134.112" y1="61.5111" x2="136.789" y2="61.5111" gradientUnits="userSpaceOnUse">
<stop stop-color="#FFDE9D"/>
<stop offset="1" stop-color="#5B7C2C" stop-opacity="0"/>
</linearGradient>
<linearGradient id="paint76_linear_10664_38080" x1="136.536" y1="36.2707" x2="143.612" y2="36.2707" gradientUnits="userSpaceOnUse">
<stop offset="0.278351" stop-color="#459325" stop-opacity="0"/>
<stop offset="0.9" stop-color="#154134"/>
</linearGradient>
<linearGradient id="paint77_linear_10664_38080" x1="136.656" y1="61.5111" x2="140.652" y2="61.5111" gradientUnits="userSpaceOnUse">
<stop stop-color="#FFDE9D"/>
<stop offset="1" stop-color="#5B7C2C" stop-opacity="0"/>
</linearGradient>
<linearGradient id="paint78_linear_10664_38080" x1="135.034" y1="96.1918" x2="134.986" y2="104.464" gradientUnits="userSpaceOnUse">
<stop stop-color="#DA7E26"/>
<stop offset="0.724781" stop-color="#D68232"/>
<stop offset="1" stop-color="#C77830" stop-opacity="0"/>
</linearGradient>
<radialGradient id="paint79_radial_10664_38080" cx="0" cy="0" r="1" gradientTransform="matrix(24.7427 -1.89763 0.131331 7.53724 127.618 96.1918)" gradientUnits="userSpaceOnUse">
<stop stop-color="#FFC383"/>
<stop offset="0.807692" stop-color="#FAA242" stop-opacity="0"/>
</radialGradient>
<radialGradient id="paint80_radial_10664_38080" cx="0" cy="0" r="1" gradientUnits="userSpaceOnUse" gradientTransform="translate(44.9128 63.7911) rotate(-28.8719) scale(71.8625 41.9654)">
<stop offset="0.357928" stop-color="#F686A7"/>
<stop offset="1" stop-color="#FFC067" stop-opacity="0"/>
</radialGradient>
<radialGradient id="paint81_radial_10664_38080" cx="0" cy="0" r="1" gradientTransform="matrix(21.4227 -20.8901 8.0521 13.5887 68.9256 49.2742)" gradientUnits="userSpaceOnUse">
<stop offset="0.259204" stop-color="#F9B188"/>
<stop offset="1" stop-color="#C78058" stop-opacity="0"/>
</radialGradient>
<radialGradient id="paint82_radial_10664_38080" cx="0" cy="0" r="1" gradientTransform="matrix(27.0489 -6.01921 2.32011 17.1575 41.6007 50.3364)" gradientUnits="userSpaceOnUse">
<stop stop-color="#E49A70"/>
<stop offset="0.490385" stop-color="#D68D64" stop-opacity="0.7"/>
<stop offset="1" stop-color="#C78058" stop-opacity="0"/>
</radialGradient>
<radialGradient id="paint83_radial_10664_38080" cx="0" cy="0" r="1" gradientTransform="matrix(38.1129 -16.8493 6.70205 19.9689 107.557 28.1875)" gradientUnits="userSpaceOnUse">
<stop stop-color="#F686A7"/>
<stop offset="1" stop-color="#E4B970" stop-opacity="0"/>
</radialGradient>
<radialGradient id="paint84_radial_10664_38080" cx="0" cy="0" r="1" gradientTransform="matrix(17.2786 -15.8612 9.0436 5.99213 112.168 30.2461)" gradientUnits="userSpaceOnUse">
<stop offset="0.259204" stop-color="#E49A70"/>
<stop offset="1" stop-color="#C78058" stop-opacity="0"/>
</radialGradient>
<radialGradient id="paint85_radial_10664_38080" cx="0" cy="0" r="1" gradientTransform="matrix(24.2368 -8.67695 4.18019 9.10943 87.0872 36.2136)" gradientUnits="userSpaceOnUse">
<stop stop-color="#E49A70"/>
<stop offset="0.490385" stop-color="#D68D64" stop-opacity="0.7"/>
<stop offset="1" stop-color="#C78058" stop-opacity="0"/>
</radialGradient>
<radialGradient id="paint86_radial_10664_38080" cx="0" cy="0" r="1" gradientUnits="userSpaceOnUse" gradientTransform="translate(52.4279 55.8215) rotate(79.9182) scale(58.7623 28.0142)">
<stop offset="0.317107" stop-color="#81A851"/>
<stop offset="1" stop-color="#3C4D25"/>
</radialGradient>
<radialGradient id="paint87_radial_10664_38080" cx="0" cy="0" r="1" gradientUnits="userSpaceOnUse" gradientTransform="translate(72.2714 71.1937) rotate(-165.622) scale(56.1283 63.4459)">
<stop offset="0.84383" stop-color="#D3E3A6" stop-opacity="0"/>
<stop offset="0.976816" stop-color="#D3E3A6"/>
</radialGradient>
<radialGradient id="paint88_radial_10664_38080" cx="0" cy="0" r="1" gradientUnits="userSpaceOnUse" gradientTransform="translate(23.1074 97.1337) rotate(-74.535) scale(64.0498 39.1327)">
<stop offset="0.790562" stop-color="#D3E3A6" stop-opacity="0"/>
<stop offset="0.976816" stop-color="#D3E3A6"/>
</radialGradient>
<linearGradient id="paint89_linear_10664_38080" x1="63.9254" y1="71.8628" x2="60.688" y2="77.4209" gradientUnits="userSpaceOnUse">
<stop stop-color="#FEAECA"/>
<stop offset="1" stop-color="#BE92CB"/>
</linearGradient>
<linearGradient id="paint90_linear_10664_38080" x1="62.8595" y1="84.8789" x2="57.8742" y2="88.9434" gradientUnits="userSpaceOnUse">
<stop stop-color="#FEAECA"/>
<stop offset="1" stop-color="#BE92CB"/>
</linearGradient>
<linearGradient id="paint91_linear_10664_38080" x1="62.074" y1="59.7902" x2="60.9739" y2="66.1277" gradientUnits="userSpaceOnUse">
<stop stop-color="#FEAECA"/>
<stop offset="1" stop-color="#BE92CB"/>
</linearGradient>
<linearGradient id="paint92_linear_10664_38080" x1="57.314" y1="49.4289" x2="57.3987" y2="55.8605" gradientUnits="userSpaceOnUse">
<stop stop-color="#FEAECA"/>
<stop offset="1" stop-color="#BE92CB"/>
</linearGradient>
<linearGradient id="paint93_linear_10664_38080" x1="47.2865" y1="42.4128" x2="50.4583" y2="48.0086" gradientUnits="userSpaceOnUse">
<stop stop-color="#FEAECA"/>
<stop offset="1" stop-color="#BE92CB"/>
</linearGradient>
<linearGradient id="paint94_linear_10664_38080" x1="37.6474" y1="39.9124" x2="43.3878" y2="42.8142" gradientUnits="userSpaceOnUse">
<stop stop-color="#FEAECA"/>
<stop offset="1" stop-color="#BE92CB"/>
</linearGradient>
<linearGradient id="paint95_linear_10664_38080" x1="50.8966" y1="64.9323" x2="46.3167" y2="70.2269" gradientUnits="userSpaceOnUse">
<stop stop-color="#FEAECA"/>
<stop offset="1" stop-color="#BE92CB"/>
</linearGradient>
<linearGradient id="paint96_linear_10664_38080" x1="44.7156" y1="56.829" x2="39.6451" y2="61.8553" gradientUnits="userSpaceOnUse">
<stop stop-color="#FEAECA"/>
<stop offset="1" stop-color="#BE92CB"/>
</linearGradient>
<linearGradient id="paint97_linear_10664_38080" x1="36.2708" y1="51.582" x2="31.2002" y2="56.6083" gradientUnits="userSpaceOnUse">
<stop stop-color="#FEAECA"/>
<stop offset="1" stop-color="#BE92CB"/>
</linearGradient>
<linearGradient id="paint98_linear_10664_38080" x1="27.8761" y1="44.6935" x2="26.3929" y2="51.6774" gradientUnits="userSpaceOnUse">
<stop stop-color="#FEAECA"/>
<stop offset="1" stop-color="#BE92CB"/>
</linearGradient>
<linearGradient id="paint99_linear_10664_38080" x1="53.7681" y1="74.8529" x2="49.836" y2="80.434" gradientUnits="userSpaceOnUse">
<stop stop-color="#FEAECA"/>
<stop offset="1" stop-color="#BE92CB"/>
</linearGradient>
<linearGradient id="paint100_linear_10664_38080" x1="54.7009" y1="85.8518" x2="51.2889" y2="91.7098" gradientUnits="userSpaceOnUse">
<stop stop-color="#FEAECA"/>
<stop offset="1" stop-color="#BE92CB"/>
</linearGradient>
<linearGradient id="paint101_linear_10664_38080" x1="54.7833" y1="98.7666" x2="51.6923" y2="104.415" gradientUnits="userSpaceOnUse">
<stop stop-color="#FEAECA"/>
<stop offset="1" stop-color="#BE92CB"/>
</linearGradient>
<linearGradient id="paint102_linear_10664_38080" x1="40.0906" y1="74.1072" x2="35.5107" y2="79.4018" gradientUnits="userSpaceOnUse">
<stop stop-color="#FEAECA"/>
<stop offset="1" stop-color="#BE92CB"/>
</linearGradient>
<linearGradient id="paint103_linear_10664_38080" x1="33.4087" y1="67.0237" x2="28.3382" y2="72.05" gradientUnits="userSpaceOnUse">
<stop stop-color="#FEAECA"/>
<stop offset="1" stop-color="#BE92CB"/>
</linearGradient>
<linearGradient id="paint104_linear_10664_38080" x1="29.9706" y1="83.9396" x2="25.7913" y2="88.7729" gradientUnits="userSpaceOnUse">
<stop stop-color="#FEAECA"/>
<stop offset="1" stop-color="#BE92CB"/>
</linearGradient>
<linearGradient id="paint105_linear_10664_38080" x1="43.3768" y1="85.3744" x2="39.4446" y2="90.9555" gradientUnits="userSpaceOnUse">
<stop stop-color="#FEAECA"/>
<stop offset="1" stop-color="#BE92CB"/>
</linearGradient>
<linearGradient id="paint106_linear_10664_38080" x1="45.0346" y1="94.562" x2="41.6226" y2="100.42" gradientUnits="userSpaceOnUse">
<stop stop-color="#FEAECA"/>
<stop offset="1" stop-color="#BE92CB"/>
</linearGradient>
<linearGradient id="paint107_linear_10664_38080" x1="23.8759" y1="77.4792" x2="19.2491" y2="82.0683" gradientUnits="userSpaceOnUse">
<stop stop-color="#FEAECA"/>
<stop offset="1" stop-color="#BE92CB"/>
</linearGradient>
<linearGradient id="paint108_linear_10664_38080" x1="26.1571" y1="59.5512" x2="21.0866" y2="64.5776" gradientUnits="userSpaceOnUse">
<stop stop-color="#FEAECA"/>
<stop offset="1" stop-color="#BE92CB"/>
</linearGradient>
<linearGradient id="paint109_linear_10664_38080" x1="32.9675" y1="94.2182" x2="29.3801" y2="99.3119" gradientUnits="userSpaceOnUse">
<stop stop-color="#FEAECA"/>
<stop offset="1" stop-color="#BE92CB"/>
</linearGradient>
<linearGradient id="paint110_linear_10664_38080" x1="38.586" y1="102.914" x2="35.4731" y2="108.259" gradientUnits="userSpaceOnUse">
<stop stop-color="#FEAECA"/>
<stop offset="1" stop-color="#BE92CB"/>
</linearGradient>
<linearGradient id="paint111_linear_10664_38080" x1="115.446" y1="96.5115" x2="101.119" y2="83.4659" gradientUnits="userSpaceOnUse">
<stop stop-color="#C683A5"/>
<stop offset="1" stop-color="#FFE5B7"/>
</linearGradient>
<linearGradient id="paint112_linear_10664_38080" x1="84.9871" y1="95.6717" x2="71.5691" y2="83.454" gradientUnits="userSpaceOnUse">
<stop stop-color="#C683A5"/>
<stop offset="1" stop-color="#FFE5B7"/>
</linearGradient>
<linearGradient id="paint113_linear_10664_38080" x1="104.7" y1="111.273" x2="82.8823" y2="91.407" gradientUnits="userSpaceOnUse">
<stop stop-color="#C683A5"/>
<stop offset="1" stop-color="#FFE5B7"/>
</linearGradient>
</defs>
</svg>
