<svg viewBox="0 0 240 120" fill="none" xmlns="http://www.w3.org/2000/svg">
<path fill-rule="evenodd" clip-rule="evenodd" d="M102.87 60.3713L135.564 60.3713L135.564 64.2623L102.87 64.2623L102.87 60.3713Z" fill="#CCCCD5"/>
<path fill-rule="evenodd" clip-rule="evenodd" d="M170.583 33.1342L178.365 33.1342L178.365 37.0252L170.583 37.0252L170.583 33.1342Z" fill="#CECFD7"/>
<path fill-rule="evenodd" clip-rule="evenodd" d="M166.692 83.7173L178.365 83.7173L178.365 87.6083L166.692 87.6083L166.692 83.7173Z" fill="#CCCCD5"/>
<path fill-rule="evenodd" clip-rule="evenodd" d="M155.019 87.6083L139.455 87.6083C136.232 87.6083 133.618 84.9952 133.618 81.7718L133.618 38.9707C133.618 35.7472 136.232 33.1341 139.455 33.1341L155.019 33.1341L155.019 37.0251L139.455 37.0251C138.381 37.0251 137.51 37.8962 137.51 38.9707L137.51 81.7718C137.51 82.8463 138.381 83.7173 139.455 83.7173L155.019 83.7173L155.019 87.6083Z" fill="url(#paint0_linear_2247_413)"/>
<path fill-rule="evenodd" clip-rule="evenodd" d="M199.766 50.6437L184.202 50.6437C180.978 50.6437 178.365 48.0306 178.365 44.8072L178.365 29.2432C178.365 26.0197 180.978 23.4066 184.202 23.4066L199.766 23.4066L199.766 27.2976L184.202 27.2976C183.127 27.2976 182.256 28.1687 182.256 29.2432L182.256 44.8072C182.256 45.8817 183.127 46.7527 184.202 46.7527L199.766 46.7527L199.766 50.6437Z" fill="url(#paint1_linear_2247_413)"/>
<path fill-rule="evenodd" clip-rule="evenodd" d="M199.766 97.3361L184.202 97.3361C180.978 97.3361 178.365 94.723 178.365 91.4995L178.365 75.9355C178.365 72.7121 180.978 70.099 184.202 70.099L199.766 70.099L199.766 73.99L184.202 73.99C183.127 73.99 182.256 74.861 182.256 75.9355L182.256 91.4995C182.256 92.574 183.127 93.445 184.202 93.445L199.766 93.445L199.766 97.3361Z" fill="url(#paint2_linear_2247_413)"/>
<path d="M213.384 102.354C213.384 102.806 213.11 103.172 212.772 103.172L190.651 103.172C190.312 103.172 190.038 102.806 190.038 102.354L190.038 88.4263C190.038 87.9745 190.312 87.6082 190.651 87.6082L212.772 87.6082C213.11 87.6082 213.384 87.9745 213.384 88.4263L213.384 102.354Z" fill="url(#paint3_linear_2247_413)"/>
<path d="M213.384 55.6622C213.384 56.114 213.11 56.4803 212.772 56.4803L190.651 56.4803C190.312 56.4803 190.038 56.114 190.038 55.6622L190.038 41.7343C190.038 41.2825 190.312 40.9162 190.651 40.9162L212.772 40.9162C213.11 40.9162 213.384 41.2825 213.384 41.7343L213.384 55.6622Z" fill="url(#paint4_linear_2247_413)"/>
<path d="M213.384 79.0083C213.384 79.4601 213.11 79.8264 212.772 79.8264L190.651 79.8264C190.312 79.8264 190.038 79.4601 190.038 79.0083L190.038 65.0804C190.038 64.6286 190.312 64.2623 190.651 64.2623L212.772 64.2623C213.11 64.2623 213.384 64.6286 213.384 65.0804L213.384 79.0083Z" fill="url(#paint5_linear_2247_413)"/>
<path d="M213.384 32.3161C213.384 32.7679 213.11 33.1342 212.772 33.1342L190.651 33.1342C190.312 33.1342 190.038 32.7679 190.038 32.3161L190.038 18.3883C190.038 17.9364 190.312 17.5702 190.651 17.5702L212.772 17.5702C213.11 17.5702 213.384 17.9364 213.384 18.3883L213.384 32.3161Z" fill="url(#paint6_linear_2247_413)"/>
<path d="M170.583 94.3677C170.583 94.9325 170.263 95.3903 169.869 95.3903L144.061 95.3903C143.666 95.3903 143.346 94.9325 143.346 94.3677L143.346 76.9579C143.346 76.3931 143.666 75.9352 144.061 75.9352L169.869 75.9352C170.263 75.9352 170.583 76.3931 170.583 76.9579L170.583 94.3677Z" fill="url(#paint7_linear_2247_413)"/>
<path d="M170.583 43.7846C170.583 44.3493 170.263 44.8072 169.869 44.8072L144.061 44.8072C143.666 44.8072 143.346 44.3493 143.346 43.7846L143.346 26.3747C143.346 25.81 143.666 25.3521 144.061 25.3521L169.869 25.3521C170.263 25.3521 170.583 25.81 170.583 26.3747L170.583 43.7846Z" fill="url(#paint8_linear_2247_413)"/>
<path d="M120.845 26.4756C122.129 76.2517 73.9745 109.805 21.1256 90.0212C19.5096 89.4163 18.4478 87.8234 18.5134 86.1004C20.634 30.3917 70.047 -0.704052 118.595 22.9889C119.927 23.6391 120.807 24.9945 120.845 26.4756Z" fill="url(#paint9_radial_2247_413)"/>
<path d="M120.845 26.4756C122.129 76.2517 73.9745 109.805 21.1256 90.0212C19.5096 89.4163 18.4478 87.8234 18.5134 86.1004C20.634 30.3917 70.047 -0.704052 118.595 22.9889C119.927 23.6391 120.807 24.9945 120.845 26.4756Z" fill="url(#paint10_radial_2247_413)"/>
<path fill-rule="evenodd" clip-rule="evenodd" d="M19.5753 87.0593C27.6369 74.6311 43.4523 51.5897 70.4105 36.2844C90.4307 24.918 108.38 23.1448 118.352 22.8854C119.083 23.2412 119.813 23.6095 120.543 23.9906C120.569 24.442 120.591 24.8921 120.608 25.341C111.417 25.4152 92.7203 26.4846 71.6412 38.4522C44.9221 53.6218 29.3385 76.5662 21.3953 88.8353C20.7842 88.6004 20.1724 88.3582 19.5602 88.1087C19.5633 87.758 19.5684 87.4082 19.5753 87.0593Z" fill="url(#paint11_linear_2247_413)"/>
<path fill-rule="evenodd" clip-rule="evenodd" d="M24.1752 58.068C25.3808 54.9898 26.7613 52.0488 28.3018 49.2542C33.5112 52.612 39.0734 57.0495 44.0378 62.5411C51.6099 70.9172 57.9523 81.9416 59.2795 95.4299C56.1273 95.7356 52.9055 95.8489 49.6271 95.759C48.4143 85.0545 43.3248 76.1153 36.8927 69.0003C32.8796 64.561 28.404 60.9051 24.1752 58.068Z" fill="white"/>
<path fill-rule="evenodd" clip-rule="evenodd" d="M24.1752 58.068C25.3808 54.9898 26.7613 52.0488 28.3018 49.2542C33.5112 52.612 39.0734 57.0495 44.0378 62.5411C51.6099 70.9172 57.9523 81.9416 59.2795 95.4299C56.1273 95.7356 52.9055 95.8489 49.6271 95.759C48.4143 85.0545 43.3248 76.1153 36.8927 69.0003C32.8796 64.561 28.404 60.9051 24.1752 58.068Z" fill="url(#paint12_radial_2247_413)"/>
<path fill-rule="evenodd" clip-rule="evenodd" d="M100.757 26.8456C100.928 27.8478 100.255 28.7993 99.2526 28.9707C91.2068 30.3469 81.2929 33.2273 70.6888 39.2477C63.0342 43.5935 56.4126 48.6686 50.7192 53.9146C49.9715 54.6036 48.8068 54.5559 48.1178 53.8082C47.4288 53.0604 47.4764 51.8957 48.2242 51.2067C54.0929 45.7992 60.9386 40.5492 68.8709 36.0457C79.9021 29.7828 90.2336 26.7779 98.6318 25.3414C99.634 25.1699 100.585 25.8434 100.757 26.8456Z" fill="#F6F4F5"/>
<path fill-rule="evenodd" clip-rule="evenodd" d="M100.757 26.8456C100.928 27.8478 100.255 28.7993 99.2526 28.9707C91.2068 30.3469 81.2929 33.2273 70.6888 39.2477C63.0342 43.5935 56.4126 48.6686 50.7192 53.9146C49.9715 54.6036 48.8068 54.5559 48.1178 53.8082C47.4288 53.0604 47.4764 51.8957 48.2242 51.2067C54.0929 45.7992 60.9386 40.5492 68.8709 36.0457C79.9021 29.7828 90.2336 26.7779 98.6318 25.3414C99.634 25.1699 100.585 25.8434 100.757 26.8456Z" fill="url(#paint13_radial_2247_413)"/>
<path fill-rule="evenodd" clip-rule="evenodd" d="M100.757 26.8456C100.928 27.8478 100.255 28.7993 99.2526 28.9707C91.2068 30.3469 81.2929 33.2273 70.6888 39.2477C63.0342 43.5935 56.4126 48.6686 50.7192 53.9146C49.9715 54.6036 48.8068 54.5559 48.1178 53.8082C47.4288 53.0604 47.4764 51.8957 48.2242 51.2067C54.0929 45.7992 60.9386 40.5492 68.8709 36.0457C79.9021 29.7828 90.2336 26.7779 98.6318 25.3414C99.634 25.1699 100.585 25.8434 100.757 26.8456Z" fill="url(#paint14_radial_2247_413)"/>
<path fill-rule="evenodd" clip-rule="evenodd" d="M100.757 26.8456C100.928 27.8478 100.255 28.7993 99.2526 28.9707C91.2068 30.3469 81.2929 33.2273 70.6888 39.2477C63.0342 43.5935 56.4126 48.6686 50.7192 53.9146C49.9715 54.6036 48.8068 54.5559 48.1178 53.8082C47.4288 53.0604 47.4764 51.8957 48.2242 51.2067C54.0929 45.7992 60.9386 40.5492 68.8709 36.0457C79.9021 29.7828 90.2336 26.7779 98.6318 25.3414C99.634 25.1699 100.585 25.8434 100.757 26.8456Z" fill="url(#paint15_radial_2247_413)"/>
<path fill-rule="evenodd" clip-rule="evenodd" d="M100.757 26.8456C100.928 27.8478 100.255 28.7993 99.2526 28.9707C91.2068 30.3469 81.2929 33.2273 70.6888 39.2477C63.0342 43.5935 56.4126 48.6686 50.7192 53.9146C49.9715 54.6036 48.8068 54.5559 48.1178 53.8082C47.4288 53.0604 47.4764 51.8957 48.2242 51.2067C54.0929 45.7992 60.9386 40.5492 68.8709 36.0457C79.9021 29.7828 90.2336 26.7779 98.6318 25.3414C99.634 25.1699 100.585 25.8434 100.757 26.8456Z" fill="url(#paint16_radial_2247_413)"/>
<path fill-rule="evenodd" clip-rule="evenodd" d="M100.757 26.8456C100.928 27.8478 100.255 28.7993 99.2526 28.9707C91.2068 30.3469 81.2929 33.2273 70.6888 39.2477C63.0342 43.5935 56.4126 48.6686 50.7192 53.9146C49.9715 54.6036 48.8068 54.5559 48.1178 53.8082C47.4288 53.0604 47.4764 51.8957 48.2242 51.2067C54.0929 45.7992 60.9386 40.5492 68.8709 36.0457C79.9021 29.7828 90.2336 26.7779 98.6318 25.3414C99.634 25.1699 100.585 25.8434 100.757 26.8456Z" fill="url(#paint17_radial_2247_413)"/>
<path fill-rule="evenodd" clip-rule="evenodd" d="M46.9623 42.7173C47.3792 41.79 48.4689 41.3762 49.3963 41.7931C52.3765 43.1329 55.0853 45.384 57.1858 47.9255C59.2807 50.4601 60.8714 53.4061 61.4863 56.2271C61.7028 57.2205 61.073 58.2014 60.0796 58.4179C59.0861 58.6345 58.1052 58.0047 57.8887 57.0112C57.429 54.902 56.1703 52.4765 54.3477 50.2712C52.5306 48.0728 50.2536 46.2155 47.8865 45.1514C46.9592 44.7345 46.5454 43.6447 46.9623 42.7173Z" fill="url(#paint18_radial_2247_413)"/>
<path fill-rule="evenodd" clip-rule="evenodd" d="M55.7942 36.5154C56.2111 35.5881 57.3008 35.1743 58.2282 35.5912C61.2169 36.9348 63.9103 39.2103 65.9985 41.7571C68.0823 44.2985 69.6641 47.2332 70.3118 49.9972C70.5438 50.9871 69.9294 51.9777 68.9394 52.2097C67.9495 52.4417 66.9589 51.8272 66.7269 50.8373C66.2367 48.7457 64.9691 46.3089 63.1512 44.0917C61.3377 41.8799 59.0771 40.0098 56.7184 38.9495C55.7911 38.5326 55.3772 37.4428 55.7942 36.5154Z" fill="url(#paint19_radial_2247_413)"/>
<path fill-rule="evenodd" clip-rule="evenodd" d="M64.9861 31.215C65.403 30.2876 66.4927 29.8738 67.4201 30.2907C73.3064 32.937 77.918 38.7675 79.4897 44.6408C79.7526 45.6231 79.1694 46.6324 78.1872 46.8952C77.205 47.158 76.1957 46.5749 75.9328 45.5927C74.6272 40.7136 70.7187 35.8106 65.9103 33.649C64.9829 33.2321 64.5691 32.1423 64.9861 31.215Z" fill="url(#paint20_radial_2247_413)"/>
<path fill-rule="evenodd" clip-rule="evenodd" d="M74.5841 26.9376C75.001 26.0102 76.0908 25.5964 77.0182 26.0134C82.9085 28.6614 87.5775 34.6558 89.0891 40.3685C89.3492 41.3514 88.7633 42.3591 87.7803 42.6192C86.7974 42.8793 85.7897 42.2933 85.5296 41.3104C84.2807 36.5908 80.3128 31.5315 75.5084 29.3716C74.581 28.9547 74.1672 27.865 74.5841 26.9376Z" fill="url(#paint21_radial_2247_413)"/>
<path fill-rule="evenodd" clip-rule="evenodd" d="M85.7497 23.973C86.1666 23.0456 87.2563 22.6318 88.1837 23.0487C93.6387 25.5011 98.2174 31.1879 99.4302 36.4639C99.658 37.4548 99.0393 38.4427 98.0484 38.6705C97.0574 38.8983 96.0695 38.2796 95.8417 37.2887C94.8929 33.161 91.1013 28.3974 86.6739 26.407C85.7466 25.9901 85.3328 24.9004 85.7497 23.973Z" fill="url(#paint22_radial_2247_413)"/>
<path fill-rule="evenodd" clip-rule="evenodd" d="M119.086 44.3459C119.031 43.882 118.968 43.4172 118.899 42.9518C117.638 34.5015 114.053 25.9735 106.985 18.3518C103.036 17.1155 99.1065 16.2282 95.223 15.6735C106.802 24.0392 111.743 34.1538 113.183 43.8045C114.128 50.1387 113.579 56.3844 112.277 61.9468C115.322 56.5553 117.632 50.6545 119.086 44.3459Z" fill="white"/>
<path fill-rule="evenodd" clip-rule="evenodd" d="M119.086 44.3459C119.031 43.882 118.968 43.4172 118.899 42.9518C117.638 34.5015 114.053 25.9735 106.985 18.3518C103.036 17.1155 99.1065 16.2282 95.223 15.6735C106.802 24.0392 111.743 34.1538 113.183 43.8045C114.128 50.1387 113.579 56.3844 112.277 61.9468C115.322 56.5553 117.632 50.6545 119.086 44.3459Z" fill="url(#paint23_radial_2247_413)"/>
<defs>
<linearGradient id="paint0_linear_2247_413" x1="146.162" y1="83.9986" x2="114.115" y2="35.4677" gradientUnits="userSpaceOnUse">
<stop stop-color="#C5C0CA"/>
<stop offset="1" stop-color="#D4DAE1"/>
</linearGradient>
<linearGradient id="paint1_linear_2247_413" x1="190.909" y1="47.9301" x2="181.939" y2="18.4981" gradientUnits="userSpaceOnUse">
<stop stop-color="#C5C0CA"/>
<stop offset="1" stop-color="#D4DAE1"/>
</linearGradient>
<linearGradient id="paint2_linear_2247_413" x1="190.909" y1="94.6225" x2="181.939" y2="65.1904" gradientUnits="userSpaceOnUse">
<stop stop-color="#C5C0CA"/>
<stop offset="1" stop-color="#D4DAE1"/>
</linearGradient>
<linearGradient id="paint3_linear_2247_413" x1="221.537" y1="107.866" x2="175.457" y2="85.8577" gradientUnits="userSpaceOnUse">
<stop stop-color="#2AEDBE"/>
<stop offset="1" stop-color="#1CC255"/>
</linearGradient>
<linearGradient id="paint4_linear_2247_413" x1="214.496" y1="57.9151" x2="185.38" y2="41.0972" gradientUnits="userSpaceOnUse">
<stop stop-color="#FE9D56"/>
<stop offset="1" stop-color="#F51A33"/>
</linearGradient>
<linearGradient id="paint5_linear_2247_413" x1="221.537" y1="84.52" x2="175.457" y2="62.5118" gradientUnits="userSpaceOnUse">
<stop stop-color="#4BC8F0"/>
<stop offset="1" stop-color="#1758FF"/>
</linearGradient>
<linearGradient id="paint6_linear_2247_413" x1="216.248" y1="35.1595" x2="186.258" y2="17.2994" gradientUnits="userSpaceOnUse">
<stop stop-color="#FED956"/>
<stop offset="1" stop-color="#F5831A"/>
</linearGradient>
<linearGradient id="paint7_linear_2247_413" x1="180.095" y1="101.257" x2="125.016" y2="76.7051" gradientUnits="userSpaceOnUse">
<stop stop-color="#4BC8F0"/>
<stop offset="1" stop-color="#1758FF"/>
</linearGradient>
<linearGradient id="paint8_linear_2247_413" x1="171.88" y1="46.6008" x2="136.779" y2="27.6777" gradientUnits="userSpaceOnUse">
<stop stop-color="#FE9D56"/>
<stop offset="1" stop-color="#F51A33"/>
</linearGradient>
<radialGradient id="paint9_radial_2247_413" cx="0" cy="0" r="1" gradientUnits="userSpaceOnUse" gradientTransform="translate(77.8375 38.0694) rotate(138.653) scale(96.63 61.9144)">
<stop offset="0.125" stop-color="#EAA06A"/>
<stop offset="0.911458" stop-color="#AB6754"/>
</radialGradient>
<radialGradient id="paint10_radial_2247_413" cx="0" cy="0" r="1" gradientUnits="userSpaceOnUse" gradientTransform="translate(74.5161 45.7994) rotate(140.974) scale(89.1031 57.0886)">
<stop offset="0.510417" stop-color="#2C0D05" stop-opacity="0"/>
<stop offset="0.911458" stop-color="#2C0D05" stop-opacity="0.5"/>
</radialGradient>
<linearGradient id="paint11_linear_2247_413" x1="123.626" y1="18.3171" x2="18.2846" y2="90.8699" gradientUnits="userSpaceOnUse">
<stop stop-color="#D18F77" stop-opacity="0"/>
<stop offset="0.478029" stop-color="#D18F77"/>
<stop offset="1" stop-color="#D18F77" stop-opacity="0"/>
</linearGradient>
<radialGradient id="paint12_radial_2247_413" cx="0" cy="0" r="1" gradientUnits="userSpaceOnUse" gradientTransform="translate(51.9717 94.6114) rotate(-115.508) scale(41.5935 41.3436)">
<stop stop-color="#A89EA2"/>
<stop offset="0.462247" stop-color="#EAE3E6"/>
<stop offset="1" stop-color="#EAE3E6" stop-opacity="0"/>
</radialGradient>
<radialGradient id="paint13_radial_2247_413" cx="0" cy="0" r="1" gradientUnits="userSpaceOnUse" gradientTransform="translate(92.5254 28.4377) rotate(42.7121) scale(9.15267 3.04601)">
<stop offset="0.400456" stop-color="#CDBDC4"/>
<stop offset="1" stop-color="#CDBDC4" stop-opacity="0"/>
</radialGradient>
<radialGradient id="paint14_radial_2247_413" cx="0" cy="0" r="1" gradientUnits="userSpaceOnUse" gradientTransform="translate(82.1424 32.0541) rotate(47.7237) scale(9.86085 3.28169)">
<stop offset="0.400456" stop-color="#CDBDC4"/>
<stop offset="1" stop-color="#CDBDC4" stop-opacity="0"/>
</radialGradient>
<radialGradient id="paint15_radial_2247_413" cx="0" cy="0" r="1" gradientUnits="userSpaceOnUse" gradientTransform="translate(72.6274 36.4192) rotate(44.4868) scale(10.8015 3.37318)">
<stop offset="0.400456" stop-color="#CDBDC4"/>
<stop offset="1" stop-color="#CDBDC4" stop-opacity="0"/>
</radialGradient>
<radialGradient id="paint16_radial_2247_413" cx="0" cy="0" r="1" gradientUnits="userSpaceOnUse" gradientTransform="translate(63.24 41.6532) rotate(41.4222) scale(11.8076 3.68736)">
<stop offset="0.400456" stop-color="#CDBDC4"/>
<stop offset="1" stop-color="#CDBDC4" stop-opacity="0"/>
</radialGradient>
<radialGradient id="paint17_radial_2247_413" cx="0" cy="0" r="1" gradientUnits="userSpaceOnUse" gradientTransform="translate(54.8788 48.1421) rotate(44.3708) scale(11.6565 3.64018)">
<stop offset="0.400456" stop-color="#CDBDC4"/>
<stop offset="1" stop-color="#CDBDC4" stop-opacity="0"/>
</radialGradient>
<radialGradient id="paint18_radial_2247_413" cx="0" cy="0" r="1" gradientUnits="userSpaceOnUse" gradientTransform="translate(51.4622 52.023) rotate(50.3476) scale(12.0291 5.04814)">
<stop offset="0.671453" stop-color="#D6C4CD"/>
<stop offset="1" stop-color="#F6F4F5"/>
</radialGradient>
<radialGradient id="paint19_radial_2247_413" cx="0" cy="0" r="1" gradientUnits="userSpaceOnUse" gradientTransform="translate(60.2941 45.8211) rotate(50.3476) scale(12.0291 5.04814)">
<stop offset="0.671453" stop-color="#D6C4CD"/>
<stop offset="1" stop-color="#F6F4F5"/>
</radialGradient>
<radialGradient id="paint20_radial_2247_413" cx="0" cy="0" r="1" gradientUnits="userSpaceOnUse" gradientTransform="translate(69.486 40.5206) rotate(50.3476) scale(12.0291 5.04814)">
<stop offset="0.671453" stop-color="#D6C4CD"/>
<stop offset="1" stop-color="#F6F4F5"/>
</radialGradient>
<radialGradient id="paint21_radial_2247_413" cx="0" cy="0" r="1" gradientUnits="userSpaceOnUse" gradientTransform="translate(79.0841 36.2433) rotate(50.3476) scale(12.0291 5.04814)">
<stop offset="0.671453" stop-color="#D6C4CD"/>
<stop offset="1" stop-color="#F6F4F5"/>
</radialGradient>
<radialGradient id="paint22_radial_2247_413" cx="0" cy="0" r="1" gradientUnits="userSpaceOnUse" gradientTransform="translate(90.0354 32.6292) rotate(50.3477) scale(11.1155 4.66474)">
<stop offset="0.671453" stop-color="#D6C4CD"/>
<stop offset="1" stop-color="#F6F4F5"/>
</radialGradient>
<radialGradient id="paint23_radial_2247_413" cx="0" cy="0" r="1" gradientUnits="userSpaceOnUse" gradientTransform="translate(108.774 58.057) rotate(-103.69) scale(37.9615 36.565)">
<stop stop-color="#BCB3B7"/>
<stop offset="0.445976" stop-color="#EAE3E6"/>
<stop offset="1" stop-color="#EAE3E6" stop-opacity="0"/>
</radialGradient>
</defs>
</svg>
