<svg viewBox="0 0 240 120" fill="none" xmlns="http://www.w3.org/2000/svg">
<path d="M67.9031 22.3594C68.8283 21.6475 71.8892 21.363 73.1703 23.6409L68.8285 40.1543C61.5682 36.7377 66.9778 23.0713 67.9031 22.3594Z" fill="url(#paint0_radial_9002_29829)"/>
<path d="M67.9031 22.3594C68.8283 21.6475 71.8892 21.363 73.1703 23.6409L68.8285 40.1543C61.5682 36.7377 66.9778 23.0713 67.9031 22.3594Z" fill="url(#paint1_radial_9002_29829)"/>
<path d="M67.9031 22.3594C68.8283 21.6475 71.8892 21.363 73.1703 23.6409L68.8285 40.1543C61.5682 36.7377 66.9778 23.0713 67.9031 22.3594Z" fill="url(#paint2_radial_9002_29829)"/>
<path d="M88.3402 36.525C88.6536 35.4005 87.7705 32.4559 85.1785 32.1216L71.4948 42.3345C77.3829 47.7857 88.0268 37.6496 88.3402 36.525Z" fill="url(#paint3_radial_9002_29829)"/>
<path d="M88.3402 36.525C88.6536 35.4005 87.7705 32.4559 85.1785 32.1216L71.4948 42.3345C77.3829 47.7857 88.0268 37.6496 88.3402 36.525Z" fill="url(#paint4_radial_9002_29829)"/>
<path d="M88.3402 36.525C88.6536 35.4005 87.7705 32.4559 85.1785 32.1216L71.4948 42.3345C77.3829 47.7857 88.0268 37.6496 88.3402 36.525Z" fill="url(#paint5_radial_9002_29829)"/>
<path d="M78.8653 19.7259C72.9575 19.2276 65.6257 32.4672 68.8289 42.1478L71.747 43.1439C80.7155 42.5033 87.6911 30.9722 87.9047 27.7692C88.1182 24.5661 84.7731 20.2243 78.8653 19.7259Z" fill="url(#paint6_radial_9002_29829)"/>
<path d="M78.8653 19.7259C72.9575 19.2276 65.6257 32.4672 68.8289 42.1478L71.747 43.1439C80.7155 42.5033 87.6911 30.9722 87.9047 27.7692C88.1182 24.5661 84.7731 20.2243 78.8653 19.7259Z" fill="url(#paint7_radial_9002_29829)"/>
<path d="M78.8653 19.7259C72.9575 19.2276 65.6257 32.4672 68.8289 42.1478L71.747 43.1439C80.7155 42.5033 87.6911 30.9722 87.9047 27.7692C88.1182 24.5661 84.7731 20.2243 78.8653 19.7259Z" fill="url(#paint8_radial_9002_29829)"/>
<path d="M108.911 99.4347C100.709 98.6752 100.101 100.498 91.7466 103.232L97.215 95.7892C108.304 91.2322 118.124 96.2944 124.405 99.4347C128.658 101.561 137.924 102.321 143.392 98.3714V102.321C138.987 101.409 129.266 105.814 127.443 105.814C125.62 105.814 117.114 100.194 108.911 99.4347Z" fill="url(#paint9_linear_9002_29829)"/>
<path d="M108.911 99.4347C100.709 98.6752 100.101 100.498 91.7466 103.232L97.215 95.7892C108.304 91.2322 118.124 96.2944 124.405 99.4347C128.658 101.561 137.924 102.321 143.392 98.3714V102.321C138.987 101.409 129.266 105.814 127.443 105.814C125.62 105.814 117.114 100.194 108.911 99.4347Z" fill="url(#paint10_radial_9002_29829)"/>
<path d="M70.4805 79.8926C67.4955 69.2069 64.44 58.8178 70.4805 42.0171C69.9234 40.5487 67.8983 43.536 67.8983 43.536C66.9873 49.46 62.1746 59.0484 63.8133 62.8134C64.9031 65.3173 65.0028 74.2159 65.4585 78.8741C64.699 75.8361 60.7591 72.0929 57.4173 69.2069C54.0755 66.3208 52.8604 63.8904 52.4047 56.4474L50.4302 57.5107C52.5568 65.8651 51.1897 66.7765 53.7713 69.2069C61.3663 77.7132 64.8604 86.6752 60.7591 97.7638L71.8478 95.3335L71.8526 95.2609C72.0545 92.2342 72.3109 88.391 70.4805 79.8926Z" fill="url(#paint11_linear_9002_29829)"/>
<path d="M70.4805 79.8926C67.4955 69.2069 64.44 58.8178 70.4805 42.0171C69.9234 40.5487 67.8983 43.536 67.8983 43.536C66.9873 49.46 62.1746 59.0484 63.8133 62.8134C64.9031 65.3173 65.0028 74.2159 65.4585 78.8741C64.699 75.8361 60.7591 72.0929 57.4173 69.2069C54.0755 66.3208 52.8604 63.8904 52.4047 56.4474L50.4302 57.5107C52.5568 65.8651 51.1897 66.7765 53.7713 69.2069C61.3663 77.7132 64.8604 86.6752 60.7591 97.7638L71.8478 95.3335L71.8526 95.2609C72.0545 92.2342 72.3109 88.391 70.4805 79.8926Z" fill="url(#paint12_radial_9002_29829)"/>
<path d="M70.4805 79.8926C67.4955 69.2069 64.44 58.8178 70.4805 42.0171C69.9234 40.5487 67.8983 43.536 67.8983 43.536C66.9873 49.46 62.1746 59.0484 63.8133 62.8134C64.9031 65.3173 65.0028 74.2159 65.4585 78.8741C64.699 75.8361 60.7591 72.0929 57.4173 69.2069C54.0755 66.3208 52.8604 63.8904 52.4047 56.4474L50.4302 57.5107C52.5568 65.8651 51.1897 66.7765 53.7713 69.2069C61.3663 77.7132 64.8604 86.6752 60.7591 97.7638L71.8478 95.3335L71.8526 95.2609C72.0545 92.2342 72.3109 88.391 70.4805 79.8926Z" fill="url(#paint13_radial_9002_29829)"/>
<path d="M177.96 27.0429C171.447 17.2865 179.616 11.2232 182.001 12.116C184.385 13.0088 186.169 20.2211 179.341 27.2667L177.96 27.0429Z" fill="url(#paint14_radial_9002_29829)"/>
<path d="M177.96 27.0429C171.447 17.2865 179.616 11.2232 182.001 12.116C184.385 13.0088 186.169 20.2211 179.341 27.2667L177.96 27.0429Z" fill="url(#paint15_radial_9002_29829)"/>
<path d="M177.96 27.0429C171.447 17.2865 179.616 11.2232 182.001 12.116C184.385 13.0088 186.169 20.2211 179.341 27.2667L177.96 27.0429Z" fill="url(#paint16_radial_9002_29829)"/>
<path d="M175.659 24.2141C176.573 25.3186 177.988 28.0365 176.903 30.1351L178.731 30.1351C179.505 28.5028 180.975 25.92 182.929 24.3704C182.239 23.7011 180.993 24.4285 180.46 25.0798C180.641 23.1149 178.071 23.0274 177.988 24.9863C177.749 24.524 176.747 23.9753 175.659 24.2141Z" fill="url(#paint17_linear_9002_29829)"/>
<path d="M44.1179 111.925C38.4628 118.485 30.9976 113.508 26.4731 119.842H72.1681C65.3818 105.139 88.9078 108.532 92.5272 103.329C101.576 87.9462 123.744 86.3628 129.626 85.2317C135.508 84.1006 141.163 86.8152 145.461 83.4221C148.899 80.7077 157.45 77.0129 161.296 75.5048C154.132 75.5802 138.674 76.5452 134.15 79.8027C128.495 83.8745 104.29 82.9697 100.445 83.4221C96.599 83.8745 92.0748 89.5299 87.0981 92.2444C82.1215 94.959 76.6924 94.0541 68.3225 94.0541C59.9527 94.0541 49.7729 105.365 44.1179 111.925Z" fill="url(#paint18_linear_9002_29829)"/>
<path d="M44.1179 111.925C38.4628 118.485 30.9976 113.508 26.4731 119.842H72.1681C65.3818 105.139 88.9078 108.532 92.5272 103.329C101.576 87.9462 123.744 86.3628 129.626 85.2317C135.508 84.1006 141.163 86.8152 145.461 83.4221C148.899 80.7077 157.45 77.0129 161.296 75.5048C154.132 75.5802 138.674 76.5452 134.15 79.8027C128.495 83.8745 104.29 82.9697 100.445 83.4221C96.599 83.8745 92.0748 89.5299 87.0981 92.2444C82.1215 94.959 76.6924 94.0541 68.3225 94.0541C59.9527 94.0541 49.7729 105.365 44.1179 111.925Z" fill="url(#paint19_radial_9002_29829)"/>
<path d="M44.1179 111.925C38.4628 118.485 30.9976 113.508 26.4731 119.842H72.1681C65.3818 105.139 88.9078 108.532 92.5272 103.329C101.576 87.9462 123.744 86.3628 129.626 85.2317C135.508 84.1006 141.163 86.8152 145.461 83.4221C148.899 80.7077 157.45 77.0129 161.296 75.5048C154.132 75.5802 138.674 76.5452 134.15 79.8027C128.495 83.8745 104.29 82.9697 100.445 83.4221C96.599 83.8745 92.0748 89.5299 87.0981 92.2444C82.1215 94.959 76.6924 94.0541 68.3225 94.0541C59.9527 94.0541 49.7729 105.365 44.1179 111.925Z" fill="url(#paint20_radial_9002_29829)"/>
<path d="M44.1179 111.925C38.4628 118.485 30.9976 113.508 26.4731 119.842H72.1681C65.3818 105.139 88.9078 108.532 92.5272 103.329C101.576 87.9462 123.744 86.3628 129.626 85.2317C135.508 84.1006 141.163 86.8152 145.461 83.4221C148.899 80.7077 157.45 77.0129 161.296 75.5048C154.132 75.5802 138.674 76.5452 134.15 79.8027C128.495 83.8745 104.29 82.9697 100.445 83.4221C96.599 83.8745 92.0748 89.5299 87.0981 92.2444C82.1215 94.959 76.6924 94.0541 68.3225 94.0541C59.9527 94.0541 49.7729 105.365 44.1179 111.925Z" fill="url(#paint21_radial_9002_29829)"/>
<path d="M44.1179 111.925C38.4628 118.485 30.9976 113.508 26.4731 119.842H72.1681C65.3818 105.139 88.9078 108.532 92.5272 103.329C101.576 87.9462 123.744 86.3628 129.626 85.2317C135.508 84.1006 141.163 86.8152 145.461 83.4221C148.899 80.7077 157.45 77.0129 161.296 75.5048C154.132 75.5802 138.674 76.5452 134.15 79.8027C128.495 83.8745 104.29 82.9697 100.445 83.4221C96.599 83.8745 92.0748 89.5299 87.0981 92.2444C82.1215 94.959 76.6924 94.0541 68.3225 94.0541C59.9527 94.0541 49.7729 105.365 44.1179 111.925Z" fill="url(#paint22_radial_9002_29829)"/>
<path d="M165.266 33.9663C163.595 35.4853 153.722 51.7384 144.911 59.6371L155.848 67.9916L166.633 42.1688C168 34.8777 186.228 38.979 188.355 38.6752C190.481 38.3714 196.101 33.0549 199.443 32.4473L198.378 31.5359C195.692 32.2088 191.931 34.8921 188.355 35.6372C185.428 36.2468 180.227 35.0802 177.695 33.9663C179.467 33.2068 183.141 31.4169 184.589 30.7735C186.708 29.832 192.304 23.4853 196.101 19.2321L194.127 18.3207C185.772 30.0169 166.937 32.4473 165.266 33.9663Z" fill="url(#paint23_linear_9002_29829)"/>
<path d="M165.266 33.9663C163.595 35.4853 153.722 51.7384 144.911 59.6371L155.848 67.9916L166.633 42.1688C168 34.8777 186.228 38.979 188.355 38.6752C190.481 38.3714 196.101 33.0549 199.443 32.4473L198.378 31.5359C195.692 32.2088 191.931 34.8921 188.355 35.6372C185.428 36.2468 180.227 35.0802 177.695 33.9663C179.467 33.2068 183.141 31.4169 184.589 30.7735C186.708 29.832 192.304 23.4853 196.101 19.2321L194.127 18.3207C185.772 30.0169 166.937 32.4473 165.266 33.9663Z" fill="url(#paint24_radial_9002_29829)"/>
<path d="M50.9585 58.9591C39.6263 52.7744 44.4931 42.6916 47.2738 42.3441C50.0546 41.9965 55.4765 48.1167 52.4182 58.4724L50.9585 58.9591Z" fill="url(#paint25_radial_9002_29829)"/>
<path d="M50.9585 58.9591C39.6263 52.7744 44.4931 42.6916 47.2738 42.3441C50.0546 41.9965 55.4765 48.1167 52.4182 58.4724L50.9585 58.9591Z" fill="url(#paint26_radial_9002_29829)"/>
<path d="M50.9585 58.9591C39.6263 52.7744 44.4931 42.6916 47.2738 42.3441C50.0546 41.9965 55.4765 48.1167 52.4182 58.4724L50.9585 58.9591Z" fill="url(#paint27_radial_9002_29829)"/>
<path d="M196.353 32.0779C197.961 19.2685 209.125 20.1075 210.466 22.5681C211.807 25.0287 208.096 32.3144 197.34 33.2583L196.353 32.0779Z" fill="url(#paint28_radial_9002_29829)"/>
<path d="M196.353 32.0779C197.961 19.2685 209.125 20.1075 210.466 22.5681C211.807 25.0287 208.096 32.3144 197.34 33.2583L196.353 32.0779Z" fill="url(#paint29_radial_9002_29829)"/>
<path d="M196.353 32.0779C197.961 19.2685 209.125 20.1075 210.466 22.5681C211.807 25.0287 208.096 32.3144 197.34 33.2583L196.353 32.0779Z" fill="url(#paint30_radial_9002_29829)"/>
<path d="M47.3752 57.1114C48.6973 57.6658 50.3422 59.0349 51.3233 61.1675L52.8436 60.931C52.7725 59.1255 52.8758 56.1557 53.8871 53.8765C52.9659 53.6035 52.1999 54.826 52.0293 55.6506C51.2782 53.8259 48.9613 54.9409 49.7963 56.7149C49.3698 56.4164 48.2283 56.395 47.3752 57.1114Z" fill="url(#paint31_linear_9002_29829)"/>
<path d="M140.566 100.859C147.774 91.6088 156.098 97.4523 156.001 99.9961C155.905 102.54 149.622 106.502 140.788 102.239L140.566 100.859Z" fill="url(#paint32_radial_9002_29829)"/>
<path d="M140.566 100.859C147.774 91.6088 156.098 97.4523 156.001 99.9961C155.905 102.54 149.622 106.502 140.788 102.239L140.566 100.859Z" fill="url(#paint33_radial_9002_29829)"/>
<path d="M140.566 100.859C147.774 91.6088 156.098 97.4523 156.001 99.9961C155.905 102.54 149.622 106.502 140.788 102.239L140.566 100.859Z" fill="url(#paint34_radial_9002_29829)"/>
<path d="M196.761 28.0668C196.729 29.5 196.057 31.5318 194.432 33.2254L195.252 34.4348C196.907 33.7079 199.664 32.8359 202.155 32.9429C202.072 31.9857 200.654 31.7203 199.824 31.8633C201.247 30.4965 199.362 28.7484 198.016 30.1747C198.138 29.6686 197.74 28.5985 196.761 28.0668Z" fill="url(#paint35_linear_9002_29829)"/>
<path d="M142.789 97.1124C141.938 98.4705 140.131 100.157 137.601 100.854L137.601 102.784C139.606 103.032 142.849 103.352 145.18 104.88C145.648 103.913 144.438 102.847 143.559 102.51C145.708 102.011 144.896 99.254 142.789 99.8546C143.195 99.4381 143.425 98.1829 142.789 97.1124Z" fill="url(#paint36_linear_9002_29829)"/>
<path d="M158.222 95.3867C148.038 88.3368 153.522 71.6256 162.4 74.4978C164.401 76.1951 169.183 76.8753 170.755 82.9841C181.591 94.6036 168.405 102.437 158.222 95.3867Z" fill="url(#paint37_radial_9002_29829)"/>
<path d="M158.222 95.3867C148.038 88.3368 153.522 71.6256 162.4 74.4978C164.401 76.1951 169.183 76.8753 170.755 82.9841C181.591 94.6036 168.405 102.437 158.222 95.3867Z" fill="url(#paint38_radial_9002_29829)"/>
<path d="M158.222 95.3867C148.038 88.3368 153.522 71.6256 162.4 74.4978C164.401 76.1951 169.183 76.8753 170.755 82.9841C181.591 94.6036 168.405 102.437 158.222 95.3867Z" fill="url(#paint39_radial_9002_29829)"/>
<path d="M158.222 95.3867C148.038 88.3368 153.522 71.6256 162.4 74.4978C164.401 76.1951 169.183 76.8753 170.755 82.9841C181.591 94.6036 168.405 102.437 158.222 95.3867Z" fill="url(#paint40_radial_9002_29829)"/>
<path fill-rule="evenodd" clip-rule="evenodd" d="M161.149 74.2167C153.802 78.2517 154.349 89.9775 162.791 93.5589C169.569 96.4345 173.681 93.3322 174.556 89.272C176.559 97.0941 166.418 101.061 158.222 95.3867C148.526 88.6744 153.032 73.2039 161.149 74.2167Z" fill="url(#paint41_radial_9002_29829)"/>
<path fill-rule="evenodd" clip-rule="evenodd" d="M161.149 74.2167C153.802 78.2517 154.349 89.9775 162.791 93.5589C169.569 96.4345 173.681 93.3322 174.556 89.272C176.559 97.0941 166.418 101.061 158.222 95.3867C148.526 88.6744 153.032 73.2039 161.149 74.2167Z" fill="url(#paint42_radial_9002_29829)"/>
<path d="M146.472 73.8455C149.474 82.7234 157.569 81.4177 162.008 73.8455C162.008 73.8455 156.262 79.3776 152.216 75.0203C148.17 70.6629 154.671 59.5365 152.216 58.3093C151.433 57.9177 143.469 64.9677 146.472 73.8455Z" fill="url(#paint43_radial_9002_29829)"/>
<path d="M146.472 73.8455C149.474 82.7234 157.569 81.4177 162.008 73.8455C162.008 73.8455 156.262 79.3776 152.216 75.0203C148.17 70.6629 154.671 59.5365 152.216 58.3093C151.433 57.9177 143.469 64.9677 146.472 73.8455Z" fill="url(#paint44_radial_9002_29829)"/>
<path d="M162.139 72.8008C159.267 70.973 153.34 65.9074 152.609 60.2673C151.477 63.1396 149.266 69.6674 149.475 72.8008C149.736 76.7174 154.306 80.2425 162.139 74.6286V72.8008Z" fill="url(#paint45_radial_9002_29829)"/>
<path d="M162.139 72.8008C159.267 70.973 153.34 65.9074 152.609 60.2673C151.477 63.1396 149.266 69.6674 149.475 72.8008C149.736 76.7174 154.306 80.2425 162.139 74.6286V72.8008Z" fill="url(#paint46_radial_9002_29829)"/>
<path d="M154.044 58.962C153.783 50.3453 160.833 40.8147 167.753 40.8145L163.053 73.0619C160.05 72.9314 154.305 67.5786 154.044 58.962Z" fill="url(#paint47_radial_9002_29829)"/>
<path d="M154.044 58.962C153.783 50.3453 160.833 40.8147 167.753 40.8145L163.053 73.0619C160.05 72.9314 154.305 67.5786 154.044 58.962Z" fill="url(#paint48_radial_9002_29829)"/>
<path d="M162.981 72.8368C149.534 66.1785 161.539 42.9811 168.014 40.5536C170.625 41.9897 175.899 46.1674 176.108 51.3897C176.369 57.9174 171.408 63.2702 169.58 68.7536L162.981 72.8368Z" fill="url(#paint49_radial_9002_29829)"/>
<path d="M162.981 72.8368C149.534 66.1785 161.539 42.9811 168.014 40.5536C170.625 41.9897 175.899 46.1674 176.108 51.3897C176.369 57.9174 171.408 63.2702 169.58 68.7536L162.981 72.8368Z" fill="url(#paint50_radial_9002_29829)"/>
<path d="M162.981 72.8368C149.534 66.1785 161.539 42.9811 168.014 40.5536C170.625 41.9897 175.899 46.1674 176.108 51.3897C176.369 57.9174 171.408 63.2702 169.58 68.7536L162.981 72.8368Z" fill="url(#paint51_radial_9002_29829)"/>
<path d="M182.766 47.9952C174.173 50.5139 169.58 62.6173 168.667 69.5369L170.233 71.8868C177.022 75.1507 182.214 74.1869 189.294 69.5369C198.041 63.7924 198.822 55.2406 196.605 51.5201C194.388 47.7995 189.294 46.082 182.766 47.9952Z" fill="url(#paint52_radial_9002_29829)"/>
<path d="M182.766 47.9952C174.173 50.5139 169.58 62.6173 168.667 69.5369L170.233 71.8868C177.022 75.1507 182.214 74.1869 189.294 69.5369C198.041 63.7924 198.822 55.2406 196.605 51.5201C194.388 47.7995 189.294 46.082 182.766 47.9952Z" fill="url(#paint53_radial_9002_29829)"/>
<path d="M182.132 49.1559C173.654 50.2782 169.539 63.1205 168.667 69.729L170.163 71.9733C176.646 75.0904 181.604 74.1699 188.367 69.729C196.721 64.2428 195.156 54.8579 194.207 52.933C193.258 51.008 188.915 48.2581 182.132 49.1559Z" fill="url(#paint54_radial_9002_29829)"/>
<path d="M182.132 49.1559C173.654 50.2782 169.539 63.1205 168.667 69.729L170.163 71.9733C176.646 75.0904 181.604 74.1699 188.367 69.729C196.721 64.2428 195.156 54.8579 194.207 52.933C193.258 51.008 188.915 48.2581 182.132 49.1559Z" fill="url(#paint55_radial_9002_29829)"/>
<path d="M182.132 49.1559C173.654 50.2782 169.539 63.1205 168.667 69.729L170.163 71.9733C176.646 75.0904 181.604 74.1699 188.367 69.729C196.721 64.2428 195.156 54.8579 194.207 52.933C193.258 51.008 188.915 48.2581 182.132 49.1559Z" fill="url(#paint56_radial_9002_29829)"/>
<path d="M185.769 92.645C178.327 94.4727 168.405 87.1617 168.144 77.2396C169.232 75.6294 172.687 72.0172 177.805 70.4506C184.202 68.4922 196.866 72.8006 197.78 78.8061C198.694 84.8117 193.21 90.8173 185.769 92.645Z" fill="url(#paint57_radial_9002_29829)"/>
<path d="M185.769 92.645C178.327 94.4727 168.405 87.1617 168.144 77.2396C169.232 75.6294 172.687 72.0172 177.805 70.4506C184.202 68.4922 196.866 72.8006 197.78 78.8061C198.694 84.8117 193.21 90.8173 185.769 92.645Z" fill="url(#paint58_radial_9002_29829)"/>
<path d="M185.769 92.645C178.327 94.4727 168.405 87.1617 168.144 77.2396C169.232 75.6294 172.687 72.0172 177.805 70.4506C184.202 68.4922 196.866 72.8006 197.78 78.8061C198.694 84.8117 193.21 90.8173 185.769 92.645Z" fill="url(#paint59_radial_9002_29829)"/>
<path fill-rule="evenodd" clip-rule="evenodd" d="M168.594 80.5335C170.643 88.7153 179.178 94.2635 185.768 92.645C193.21 90.8173 198.693 84.8117 197.78 78.8061C197.602 77.637 196.978 76.5322 196.043 75.5254C197.122 84.2543 188.427 88.704 183.288 88.3368C178.113 87.967 175.264 87.5975 168.594 80.5335Z" fill="url(#paint60_radial_9002_29829)"/>
<path fill-rule="evenodd" clip-rule="evenodd" d="M168.594 80.5335C170.643 88.7153 179.178 94.2635 185.768 92.645C193.21 90.8173 198.693 84.8117 197.78 78.8061C197.602 77.637 196.978 76.5322 196.043 75.5254C197.122 84.2543 188.427 88.704 183.288 88.3368C178.113 87.967 175.264 87.5975 168.594 80.5335Z" fill="url(#paint61_radial_9002_29829)"/>
<path d="M170.375 78.7094C167.925 80.2 164.381 78.8484 162.46 75.6905C160.539 72.5326 160.968 68.7642 163.418 67.2736C165.869 65.7829 169.413 67.1345 171.334 70.2925C173.255 73.4504 172.825 77.2188 170.375 78.7094Z" fill="url(#paint62_radial_9002_29829)"/>
<path fill-rule="evenodd" clip-rule="evenodd" d="M170.667 67.0856C172.26 66.2226 174.168 65.7334 175.441 65.5433L175.577 66.4563C174.374 66.6359 172.578 67.1004 171.107 67.8972C169.614 68.7066 168.614 69.7659 168.651 71.0886L167.728 71.1142C167.676 69.2428 169.098 67.9361 170.667 67.0856Z" fill="#7E250D"/>
<path fill-rule="evenodd" clip-rule="evenodd" d="M176.097 68.0348C179.294 66.8396 182.411 65.3881 183.983 62.6635L184.782 63.1247C183.027 66.1672 179.601 67.7102 176.42 68.8994C175.888 69.0984 175.365 69.2868 174.854 69.4705C173.811 69.8456 172.824 70.2009 171.933 70.5857C170.602 71.1596 169.584 71.7607 168.994 72.4985L168.273 71.9219C169.014 70.9961 170.214 70.3217 171.567 69.7381C172.485 69.3421 173.518 68.9701 174.577 68.5888C175.081 68.4075 175.591 68.224 176.097 68.0348Z" fill="#7E250D"/>
<path fill-rule="evenodd" clip-rule="evenodd" d="M183.1 67.9352C184.83 67.6603 186.467 67.6362 187.725 67.9957L187.471 68.8832C186.4 68.5773 184.918 68.581 183.245 68.8468C181.581 69.1111 179.77 69.6278 178.065 70.3099C176.359 70.9924 174.774 71.8341 173.556 72.7401C172.322 73.6579 171.531 74.5922 171.296 75.4393L170.406 75.1922C170.726 74.043 171.723 72.9533 173.005 71.9995C174.303 71.0339 175.963 70.1566 177.722 69.4528C179.483 68.7485 181.36 68.2116 183.1 67.9352Z" fill="#7E250D"/>
<path fill-rule="evenodd" clip-rule="evenodd" d="M172.338 77.5518C171.014 77.5665 169.733 77.2275 168.761 76.3182L169.392 75.6441C170.139 76.343 171.16 76.6418 172.328 76.6288C173.497 76.6158 174.778 76.2889 175.98 75.7783C177.182 75.2682 178.279 74.5858 179.083 73.8865C179.484 73.5369 179.803 73.1909 180.025 72.869C180.249 72.5428 180.355 72.2693 180.373 72.0596L181.293 72.1396C181.255 72.5677 181.059 72.9943 180.785 73.3924C180.508 73.795 180.131 74.1976 179.689 74.5827C178.804 75.3529 177.621 76.0845 176.341 76.628C175.062 77.171 173.66 77.5371 172.338 77.5518Z" fill="#7E250D"/>
<path fill-rule="evenodd" clip-rule="evenodd" d="M173.238 80.5024C170.944 79.6279 168.754 77.9131 167.974 75.5728L168.849 75.2809C169.511 77.2658 171.424 78.8229 173.567 79.6398C174.63 80.0453 175.724 80.2574 176.706 80.2525C177.693 80.2476 178.531 80.0246 179.122 79.5995L179.661 80.3486C178.865 80.9217 177.818 81.1701 176.711 81.1756C175.6 81.1811 174.393 80.9426 173.238 80.5024Z" fill="#7E250D"/>
<path fill-rule="evenodd" clip-rule="evenodd" d="M164.638 66.3888C164.137 67.6353 163.956 68.8573 164.307 70.0875L163.42 70.3411C162.995 68.854 163.23 67.4142 163.782 66.044C164.331 64.6819 165.204 63.3582 166.092 62.0891C166.266 61.8406 166.44 61.5945 166.613 61.3503C167.333 60.3317 168.029 59.3476 168.577 58.3695C169.254 57.1591 169.663 56.0229 169.614 54.9299L170.536 54.888C170.597 56.2349 170.091 57.5526 169.382 58.8202C168.809 59.8453 168.076 60.8802 167.353 61.9017C167.184 62.1413 167.015 62.3803 166.848 62.6182C165.961 63.8861 165.144 65.1341 164.638 66.3888Z" fill="#7E250D"/>
<path fill-rule="evenodd" clip-rule="evenodd" d="M165.934 68.6107C165.499 69.4233 165.428 70.1126 165.812 70.7528L165.021 71.2277C164.407 70.2044 164.6 69.1469 165.121 68.1746C165.634 67.2176 166.503 66.2642 167.388 65.358C167.619 65.1217 167.851 64.8885 168.08 64.658C168.75 63.9851 169.397 63.3348 169.927 62.6949C170.65 61.823 171.055 61.0818 171.055 60.4541H171.978C171.978 61.4345 171.372 62.3985 170.638 63.2838C170.079 63.9592 169.388 64.6535 168.709 65.3348C168.486 65.5594 168.264 65.7825 168.048 66.0031C167.159 66.9132 166.378 67.7827 165.934 68.6107Z" fill="#7E250D"/>
<path fill-rule="evenodd" clip-rule="evenodd" d="M166.333 70.1934C166.213 70.7887 166.25 71.4777 166.52 72.2866L165.644 72.5785C165.331 71.6406 165.272 70.7872 165.428 70.0113C165.584 69.2357 165.95 68.5657 166.447 67.9853C167.429 66.8383 168.944 66.0176 170.461 65.3675C171.226 65.0399 172.006 64.7494 172.739 64.4812C172.839 64.4448 172.937 64.4088 173.035 64.3732C173.659 64.1452 174.239 63.9336 174.749 63.7238C175.344 63.4793 175.807 63.2515 176.117 63.0264C176.438 62.7925 176.489 62.6388 176.489 62.5615L177.412 62.5615C177.412 63.0943 177.051 63.4881 176.66 63.7728C176.257 64.0662 175.707 64.328 175.101 64.5775C174.572 64.7949 173.972 65.0138 173.349 65.2411C173.252 65.2765 173.154 65.3122 173.056 65.3481C172.324 65.6158 171.564 65.899 170.825 66.216C169.333 66.8553 167.985 67.6082 167.148 68.5858C166.735 69.0678 166.453 69.5978 166.333 70.1934Z" fill="#7E250D"/>
<path d="M171.392 52.9167C171.609 53.8404 170.97 54.7811 169.965 55.0178C168.96 55.2545 167.968 54.6976 167.751 53.7739C167.533 52.8502 168.172 51.9095 169.178 51.6728C170.183 51.4361 171.174 51.993 171.392 52.9167Z" fill="url(#paint63_radial_9002_29829)"/>
<path d="M172.818 59.2415C173.036 60.1652 172.397 61.1059 171.392 61.3426C170.386 61.5793 169.395 61.0223 169.177 60.0986C168.96 59.175 169.599 58.2343 170.604 57.9976C171.609 57.7609 172.601 58.3178 172.818 59.2415Z" fill="url(#paint64_radial_9002_29829)"/>
<path d="M178.831 60.7902C179.048 61.7139 178.41 62.6546 177.404 62.8913C176.399 63.128 175.408 62.5711 175.19 61.6474C174.973 60.7237 175.611 59.783 176.617 59.5463C177.622 59.3096 178.613 59.8665 178.831 60.7902Z" fill="url(#paint65_radial_9002_29829)"/>
<path d="M177.335 67.5307C176.417 67.7723 175.46 67.1584 175.197 66.1596C174.934 65.1608 175.465 64.1552 176.382 63.9136C177.3 63.672 178.257 64.2859 178.52 65.2847C178.783 66.2835 178.252 67.2891 177.335 67.5307Z" fill="url(#paint66_radial_9002_29829)"/>
<path d="M186.42 62.6032C185.953 63.4297 184.846 63.6882 183.947 63.1806C183.047 62.673 182.696 61.5915 183.162 60.7651C183.629 59.9386 184.736 59.6802 185.636 60.1878C186.535 60.6953 186.886 61.7768 186.42 62.6032Z" fill="url(#paint67_radial_9002_29829)"/>
<path d="M188.705 70.4156C187.758 70.3464 187.052 69.4552 187.127 68.4251C187.203 67.395 188.031 66.6161 188.978 66.6853C189.924 66.7546 190.63 67.6457 190.555 68.6758C190.479 69.7059 189.651 70.4849 188.705 70.4156Z" fill="url(#paint68_radial_9002_29829)"/>
<path d="M183.029 71.5273C182.813 72.4513 181.822 73.0097 180.816 72.7744C179.811 72.5392 179.171 71.5994 179.387 70.6754C179.603 69.7514 180.593 69.193 181.599 69.4283C182.605 69.6635 183.245 70.6033 183.029 71.5273Z" fill="url(#paint69_radial_9002_29829)"/>
<path d="M181.42 80.2812C180.724 80.9263 179.59 80.835 178.888 80.0775C178.186 79.3199 178.181 78.1829 178.877 77.5379C179.573 76.8928 180.707 76.9841 181.409 77.7416C182.111 78.4992 182.116 79.6362 181.42 80.2812Z" fill="url(#paint70_radial_9002_29829)"/>
<path d="M136.679 82.3836C125.192 84.5208 121.853 77.8421 119.849 61.4127L121.051 58.6079C126.483 56.6488 138.896 53.719 145.094 57.6727C152.841 62.6149 148.166 80.2464 136.679 82.3836Z" fill="url(#paint71_radial_9002_29829)"/>
<path d="M136.679 82.3836C125.192 84.5208 121.853 77.8421 119.849 61.4127L121.051 58.6079C126.483 56.6488 138.896 53.719 145.094 57.6727C152.841 62.6149 148.166 80.2464 136.679 82.3836Z" fill="url(#paint72_radial_9002_29829)"/>
<path d="M136.679 82.3836C125.192 84.5208 121.853 77.8421 119.849 61.4127L121.051 58.6079C126.483 56.6488 138.896 53.719 145.094 57.6727C152.841 62.6149 148.166 80.2464 136.679 82.3836Z" fill="url(#paint73_radial_9002_29829)"/>
<path d="M136.679 82.3836C125.192 84.5208 121.853 77.8421 119.849 61.4127L121.051 58.6079C126.483 56.6488 138.896 53.719 145.094 57.6727C152.841 62.6149 148.166 80.2464 136.679 82.3836Z" fill="url(#paint74_radial_9002_29829)"/>
<path d="M140.285 70.3621C138.148 82.25 128.397 83.8529 122.386 77.5749C125.013 81.493 132.671 87.9134 142.289 82.25C154.31 75.1707 149.769 59.9435 148.299 59.1421C146.83 58.3407 142.422 58.4742 140.285 70.3621Z" fill="url(#paint75_radial_9002_29829)"/>
<path d="M140.285 70.3621C138.148 82.25 128.397 83.8529 122.386 77.5749C125.013 81.493 132.671 87.9134 142.289 82.25C154.31 75.1707 149.769 59.9435 148.299 59.1421C146.83 58.3407 142.422 58.4742 140.285 70.3621Z" fill="url(#paint76_radial_9002_29829)"/>
<path d="M97.2752 85.2566C87.6582 73.7209 99.679 59.7886 110.098 55.5939C112.042 54.8109 113.864 54.0957 119.849 57.092C127.329 60.8373 130.33 75.9216 125.459 85.2566C122.277 91.353 106.892 96.7923 97.2752 85.2566Z" fill="url(#paint77_radial_9002_29829)"/>
<path d="M97.2752 85.2566C87.6582 73.7209 99.679 59.7886 110.098 55.5939C112.042 54.8109 113.864 54.0957 119.849 57.092C127.329 60.8373 130.33 75.9216 125.459 85.2566C122.277 91.353 106.892 96.7923 97.2752 85.2566Z" fill="url(#paint78_radial_9002_29829)"/>
<path d="M98.051 80.9141C88.6782 70.6289 100.394 58.207 110.548 54.4671C112.443 53.7689 114.219 53.1313 120.051 55.8027C127.341 59.142 130.266 72.591 125.518 80.9141C122.418 86.3496 107.424 91.1992 98.051 80.9141Z" fill="url(#paint79_radial_9002_29829)"/>
<path d="M98.051 80.9141C88.6782 70.6289 100.394 58.207 110.548 54.4671C112.443 53.7689 114.219 53.1313 120.051 55.8027C127.341 59.142 130.266 72.591 125.518 80.9141C122.418 86.3496 107.424 91.1992 98.051 80.9141Z" fill="url(#paint80_radial_9002_29829)"/>
<path d="M98.051 80.9141C88.6782 70.6289 100.394 58.207 110.548 54.4671C112.443 53.7689 114.219 53.1313 120.051 55.8027C127.341 59.142 130.266 72.591 125.518 80.9141C122.418 86.3496 107.424 91.1992 98.051 80.9141Z" fill="url(#paint81_radial_9002_29829)"/>
<path d="M98.051 80.9141C88.6782 70.6289 100.394 58.207 110.548 54.4671C112.443 53.7689 114.219 53.1313 120.051 55.8027C127.341 59.142 130.266 72.591 125.518 80.9141C122.418 86.3496 107.424 91.1992 98.051 80.9141Z" fill="url(#paint82_radial_9002_29829)"/>
<path d="M87.9224 72.6673C98.4959 74.9583 108.541 68.4377 111.185 57.1591C99.3773 45.3517 80.521 49.7577 76.9965 54.1634C73.4719 58.569 77.3489 70.3763 87.9224 72.6673Z" fill="url(#paint83_radial_9002_29829)"/>
<path d="M87.9224 72.6673C98.4959 74.9583 108.541 68.4377 111.185 57.1591C99.3773 45.3517 80.521 49.7577 76.9965 54.1634C73.4719 58.569 77.3489 70.3763 87.9224 72.6673Z" fill="url(#paint84_radial_9002_29829)"/>
<path d="M89.0853 67.1641C99.6588 69.013 109.704 63.7508 112.347 54.6486C100.54 45.1198 81.6839 48.6755 78.1593 52.231C74.6348 55.7865 78.5118 65.3152 89.0853 67.1641Z" fill="url(#paint85_radial_9002_29829)"/>
<path d="M89.0853 67.1641C99.6588 69.013 109.704 63.7508 112.347 54.6486C100.54 45.1198 81.6839 48.6755 78.1593 52.231C74.6348 55.7865 78.5118 65.3152 89.0853 67.1641Z" fill="url(#paint86_radial_9002_29829)"/>
<path d="M145.628 32.2942C131.336 26.6843 119.448 39.7742 118.914 58.0736L122.921 60.7449C155.646 67.9578 159.92 37.9042 145.628 32.2942Z" fill="url(#paint87_radial_9002_29829)"/>
<path d="M145.628 32.2942C131.336 26.6843 119.448 39.7742 118.914 58.0736L122.921 60.7449C155.646 67.9578 159.92 37.9042 145.628 32.2942Z" fill="url(#paint88_radial_9002_29829)"/>
<path fill-rule="evenodd" clip-rule="evenodd" d="M142.471 31.3449C129.631 28.669 119.418 41.1281 118.915 58.0488L118.971 58.1116L121.542 59.8254C148.822 65.3382 154.674 37.4215 142.471 31.3449Z" fill="url(#paint89_radial_9002_29829)"/>
<path fill-rule="evenodd" clip-rule="evenodd" d="M142.471 31.3449C129.631 28.669 119.418 41.1281 118.915 58.0488L118.971 58.1116L121.542 59.8254C148.822 65.3382 154.674 37.4215 142.471 31.3449Z" fill="url(#paint90_radial_9002_29829)"/>
<path fill-rule="evenodd" clip-rule="evenodd" d="M142.471 31.3449C129.631 28.669 119.418 41.1281 118.915 58.0488L118.971 58.1116L121.542 59.8254C148.822 65.3382 154.674 37.4215 142.471 31.3449Z" fill="url(#paint91_radial_9002_29829)"/>
<path d="M94.6187 38.6556C94.6187 32.1352 105.343 20.3423 112.208 21.2346C112.208 21.2346 111.477 29.1598 112.887 34.2351C114.649 40.5793 117.881 56.1021 109.598 55.7495C101.315 55.397 94.6187 46.0572 94.6187 38.6556Z" fill="url(#paint92_radial_9002_29829)"/>
<path d="M94.6187 38.6556C94.6187 32.1352 105.343 20.3423 112.208 21.2346C112.208 21.2346 111.477 29.1598 112.887 34.2351C114.649 40.5793 117.881 56.1021 109.598 55.7495C101.315 55.397 94.6187 46.0572 94.6187 38.6556Z" fill="url(#paint93_radial_9002_29829)"/>
<path d="M99.0247 38.6559C99.0247 32.1358 107.419 20.8575 112.237 21.21C117.056 21.5625 122.186 29.7038 123.43 34.779C124.984 41.123 122.584 56.2487 112.237 55.7494C104.932 55.3968 99.0247 46.0573 99.0247 38.6559Z" fill="url(#paint94_radial_9002_29829)"/>
<path d="M99.0247 38.6559C99.0247 32.1358 107.419 20.8575 112.237 21.21C117.056 21.5625 122.186 29.7038 123.43 34.779C124.984 41.123 122.584 56.2487 112.237 55.7494C104.932 55.3968 99.0247 46.0573 99.0247 38.6559Z" fill="url(#paint95_radial_9002_29829)"/>
<path d="M99.0247 38.6559C99.0247 32.1358 107.419 20.8575 112.237 21.21C117.056 21.5625 122.186 29.7038 123.43 34.779C124.984 41.123 122.584 56.2487 112.237 55.7494C104.932 55.3968 99.0247 46.0573 99.0247 38.6559Z" fill="url(#paint96_radial_9002_29829)"/>
<path d="M123.589 56.629C124.367 59.9329 121.546 63.424 117.288 64.4264C113.03 65.4289 108.948 63.5632 108.17 60.2593C107.392 56.9554 110.213 53.4643 114.471 52.4618C118.729 51.4593 122.811 53.325 123.589 56.629Z" fill="url(#paint97_radial_9002_29829)"/>
<path fill-rule="evenodd" clip-rule="evenodd" d="M127.601 57.4648C125.917 59.5129 123.359 61.0699 120.23 59.9785L120.534 59.107C123.149 60.0191 125.332 58.771 126.888 56.8787C127.663 55.9351 128.261 54.8516 128.648 53.8535C129.04 52.8414 129.195 51.9707 129.139 51.443L130.057 51.3464C130.135 52.0877 129.922 53.1203 129.509 54.187C129.09 55.2676 128.445 56.4382 127.601 57.4648Z" fill="#7E250D"/>
<path fill-rule="evenodd" clip-rule="evenodd" d="M123.221 48.8031C123.735 43.4858 124.345 37.164 126.645 32.3618L127.477 32.7604C125.249 37.4139 124.651 43.6021 124.131 48.9847C123.873 51.6551 123.633 54.1358 123.21 56.082C122.999 57.0564 122.737 57.9203 122.392 58.6186C122.048 59.3154 121.603 59.8842 121.006 60.2138L120.56 59.4056C120.931 59.2009 121.267 58.8139 121.565 58.2099C121.862 57.6075 122.105 56.8257 122.308 55.8862C122.717 54.0047 122.952 51.5851 123.212 48.896L123.221 48.8031Z" fill="#7E250D"/>
<path fill-rule="evenodd" clip-rule="evenodd" d="M116.451 47.319C116.05 46.137 115.851 44.9268 116.35 43.7363L117.201 44.0932C116.832 44.9731 116.95 45.9168 117.325 47.0223C117.513 47.5738 117.757 48.1459 118.021 48.756C118.04 48.8008 118.06 48.8458 118.08 48.891C118.324 49.4558 118.582 50.0506 118.811 50.6663C119.307 51.9987 119.682 53.4687 119.527 55.0791C119.37 56.6974 118.682 58.4116 117.128 60.2422L116.424 59.6447C117.875 57.9356 118.472 56.3941 118.608 54.9903C118.744 53.5786 118.419 52.2603 117.946 50.988C117.726 50.3963 117.478 49.8231 117.231 49.2542C117.212 49.2104 117.193 49.1666 117.174 49.1228C116.911 48.5162 116.652 47.9112 116.451 47.319Z" fill="#7E250D"/>
<path fill-rule="evenodd" clip-rule="evenodd" d="M112.869 55.5857C112.903 57.1124 113.185 58.4884 113.958 59.6943L113.181 60.1925C112.285 58.7938 111.982 57.2312 111.946 55.6065C111.914 54.1913 112.084 52.6941 112.255 51.1938C112.279 50.9822 112.303 50.7706 112.326 50.5591C112.711 47.0968 112.95 43.6115 110.91 40.4236L111.688 39.926C113.922 43.4168 113.627 47.2111 113.244 50.6611C113.22 50.8759 113.196 51.0892 113.172 51.3009C113 52.8091 112.838 54.2381 112.869 55.5857Z" fill="#7E250D"/>
<path fill-rule="evenodd" clip-rule="evenodd" d="M106.713 53.1633C105.864 50.3281 105.606 47.3753 105.629 45.5118L106.552 45.5231C106.53 47.3106 106.78 50.1681 107.598 52.8984C108.42 55.6437 109.788 58.1639 111.932 59.4106L111.468 60.2086C109.018 58.7838 107.558 55.9834 106.713 53.1633Z" fill="#7E250D"/>
<path fill-rule="evenodd" clip-rule="evenodd" d="M94.6043 44.2321C93.9865 43.7748 93.5 43.5746 93.1335 43.5746L93.1336 42.6515C93.8023 42.6515 94.4888 42.9982 95.1534 43.4901C95.8298 43.9906 96.549 44.6915 97.2933 45.5042C98.357 46.6659 99.5081 48.0978 100.69 49.5685C101.159 50.1509 101.632 50.7393 102.106 51.3195C103.793 53.3822 105.503 55.3477 107.136 56.6734C108.796 58.0203 110.227 58.5857 111.415 58.1714L111.719 59.043C110.034 59.6306 108.243 58.7604 106.555 57.3901C104.84 55.9985 103.078 53.9653 101.392 51.9039C100.904 51.3074 100.423 50.7091 99.9503 50.1213C98.7763 48.6609 97.6549 47.266 96.6125 46.1276C95.8833 45.3312 95.2105 44.6807 94.6043 44.2321Z" fill="#7E250D"/>
<path fill-rule="evenodd" clip-rule="evenodd" d="M102.447 63.1092C99.7461 62.0109 97.4428 60.1645 96.1389 58.792L96.8081 58.1562C98.0422 59.4553 100.24 61.2153 102.795 62.2541C105.346 63.2915 108.191 63.5881 110.802 62.0815L111.264 62.8811C108.318 64.5803 105.152 64.2091 102.447 63.1092Z" fill="#7E250D"/>
<path fill-rule="evenodd" clip-rule="evenodd" d="M107.706 62.0938C106.333 61.4162 104.997 60.1422 104.699 58.2801L105.611 58.1343C105.847 59.6113 106.916 60.6747 108.114 61.2661C108.71 61.5603 109.318 61.7259 109.831 61.7666C110.364 61.8089 110.716 61.7123 110.882 61.5828L111.449 62.3114C111.015 62.6493 110.382 62.7363 109.758 62.6868C109.115 62.6358 108.395 62.434 107.706 62.0938Z" fill="#7E250D"/>
<path fill-rule="evenodd" clip-rule="evenodd" d="M120.649 56.6059C121.156 54.2836 121.246 51.5616 120.607 49.3879L121.493 49.1275C122.189 51.4952 122.079 54.3832 121.551 56.8028C121.286 58.0162 120.912 59.1312 120.467 60.0204C120.032 60.891 119.494 61.617 118.863 61.9535L118.428 61.139C118.799 60.9413 119.229 60.4317 119.641 59.6076C120.044 58.8022 120.396 57.7633 120.649 56.6059Z" fill="#7E250D"/>
<path d="M93.0098 41.3468C93.8548 41.8108 94.1304 42.9326 93.6253 43.8524C93.1202 44.7721 92.0257 45.1415 91.1807 44.6774C90.3357 44.2134 90.0601 43.0916 90.5652 42.1718C91.0703 41.2521 92.1648 40.8827 93.0098 41.3468Z" fill="url(#paint98_radial_9002_29829)"/>
<path d="M128.297 30.8621C128.518 31.8005 127.869 32.7562 126.848 32.9967C125.827 33.2371 124.819 32.6714 124.599 31.7329C124.378 30.7945 125.026 29.8389 126.048 29.5984C127.069 29.3579 128.076 29.9237 128.297 30.8621Z" fill="url(#paint99_radial_9002_29829)"/>
<path d="M131.463 50.2302C131.683 51.1686 131.035 52.1242 130.013 52.3647C128.992 52.6052 127.985 52.0394 127.764 51.101C127.543 50.1626 128.192 49.2069 129.213 48.9664C130.234 48.726 131.242 49.2918 131.463 50.2302Z" fill="url(#paint100_radial_9002_29829)"/>
<path d="M118.537 42.9759C118.372 43.9257 117.4 44.5502 116.366 44.3707C115.332 44.1912 114.628 43.2757 114.793 42.3259C114.958 41.376 115.93 40.7515 116.963 40.931C117.997 41.1105 118.702 42.026 118.537 42.9759Z" fill="url(#paint101_radial_9002_29829)"/>
<path d="M112.569 38.5433C112.912 39.4444 112.395 40.4772 111.414 40.8503C110.433 41.2233 109.361 40.7952 109.018 39.8941C108.675 38.993 109.192 37.9602 110.173 37.5871C111.154 37.2141 112.227 37.6422 112.569 38.5433Z" fill="url(#paint102_radial_9002_29829)"/>
<path d="M107.663 44.4645C107.712 45.4273 106.903 46.2513 105.855 46.305C104.807 46.3588 103.917 45.6218 103.868 44.659C103.819 43.6962 104.628 42.8722 105.676 42.8184C106.724 42.7647 107.613 43.5017 107.663 44.4645Z" fill="url(#paint103_radial_9002_29829)"/>
<path d="M97.2346 56.6163C97.8016 57.396 97.5732 58.5284 96.7245 59.1454C95.8759 59.7625 94.7283 59.6307 94.1613 58.8509C93.5944 58.0712 93.8227 56.9388 94.6714 56.3218C95.5201 55.7047 96.6677 55.8366 97.2346 56.6163Z" fill="url(#paint104_radial_9002_29829)"/>
<path d="M105.825 56.3219C106.392 57.1016 106.164 58.2339 105.315 58.851C104.467 59.4681 103.319 59.3362 102.752 58.5565C102.185 57.7768 102.414 56.6444 103.262 56.0273C104.111 55.4103 105.258 55.5421 105.825 56.3219Z" fill="url(#paint105_radial_9002_29829)"/>
<path d="M122.13 46.5548C122.697 47.3345 122.469 48.4668 121.62 49.0839C120.771 49.701 119.624 49.5691 119.057 48.7894C118.49 48.0097 118.718 46.8773 119.567 46.2602C120.416 45.6432 121.563 45.775 122.13 46.5548Z" fill="url(#paint106_radial_9002_29829)"/>
<path d="M66.0769 39.6766C63.6568 39.3207 60.9755 36.2526 61.8131 32.0558H62.5247C63.2363 35.8283 67.4294 37.9683 67.8565 38.6089C68.2835 39.2495 68.3703 40.5998 70.7685 41.3992C73.1668 42.1986 75.5438 39.6766 76.1133 39.6766C76.6827 39.6766 76.9674 41.7408 76.1133 43.5203C78.2486 42.7373 83.5871 43.7338 83.943 44.3033C84.2989 44.8727 78.6045 47.1504 75.5438 45.1574C72.9814 49.1434 68.7171 47.9164 68.0765 50.3365L66.3096 49.7596C66.6656 47.9801 64.7246 42.1679 66.0769 39.6766Z" fill="url(#paint107_linear_9002_29829)"/>
<path d="M158.213 15.7783C158.213 21.6126 153.325 26.3422 147.296 26.3422C141.266 26.3422 136.378 21.6126 136.378 15.7783C136.378 9.94394 141.266 5.21429 147.296 5.21429C153.325 5.21429 158.213 9.94394 158.213 15.7783Z" fill="url(#paint108_radial_9002_29829)"/>
<path d="M38.7647 25.2387C38.7647 27.8697 36.5605 30.0025 33.8415 30.0025C31.1224 30.0025 28.9182 27.8697 28.9182 25.2387C28.9182 22.6077 31.1224 20.4749 33.8415 20.4749C36.5605 20.4749 38.7647 22.6077 38.7647 25.2387Z" fill="url(#paint109_radial_9002_29829)"/>
<path d="M35.1922 68.3214C35.1922 72.9162 31.3427 76.6411 26.5942 76.6411C21.8456 76.6411 17.9961 72.9162 17.9961 68.3214C17.9961 63.7266 21.8456 60.0017 26.5942 60.0017C31.3427 60.0017 35.1922 63.7266 35.1922 68.3214Z" fill="url(#paint110_radial_9002_29829)"/>
<path d="M225.304 68.55C225.304 73.6045 221.069 77.702 215.846 77.702C210.622 77.702 206.387 73.6045 206.387 68.55C206.387 63.4955 210.622 59.398 215.846 59.398C221.069 59.398 225.304 63.4955 225.304 68.55Z" fill="url(#paint111_radial_9002_29829)"/>
<path d="M186.878 106.24C186.878 108.443 185.033 110.228 182.757 110.228C180.481 110.228 178.635 108.443 178.635 106.24C178.635 104.038 180.481 102.252 182.757 102.252C185.033 102.252 186.878 104.038 186.878 106.24Z" fill="url(#paint112_radial_9002_29829)"/>
<defs>
<radialGradient id="paint0_radial_9002_29829" cx="0" cy="0" r="1" gradientUnits="userSpaceOnUse" gradientTransform="translate(67.9533 40.1512) rotate(-87.9319) scale(14.2985 6.74834)">
<stop stop-color="#DB7292"/>
<stop offset="1" stop-color="#FF9C70"/>
</radialGradient>
<radialGradient id="paint1_radial_9002_29829" cx="0" cy="0" r="1" gradientUnits="userSpaceOnUse" gradientTransform="translate(67.4042 27.736) rotate(104.464) scale(9.23499 3.37589)">
<stop stop-color="#FFE4BE"/>
<stop offset="0.72781" stop-color="#FFE4D3" stop-opacity="0.491127"/>
<stop offset="1" stop-color="#FFE4E7" stop-opacity="0"/>
</radialGradient>
<radialGradient id="paint2_radial_9002_29829" cx="0" cy="0" r="1" gradientUnits="userSpaceOnUse" gradientTransform="translate(71.5869 34.659) rotate(-82.9551) scale(12.9101 5.81744)">
<stop offset="0.0999146" stop-color="#BC5104"/>
<stop offset="1" stop-color="#E67505" stop-opacity="0"/>
</radialGradient>
<radialGradient id="paint3_radial_9002_29829" cx="0" cy="0" r="1" gradientUnits="userSpaceOnUse" gradientTransform="translate(74.3275 42.8802) rotate(-37.3815) scale(16.1545 7.62428)">
<stop stop-color="#DB7292"/>
<stop offset="1" stop-color="#FF9C70"/>
</radialGradient>
<radialGradient id="paint4_radial_9002_29829" cx="0" cy="0" r="1" gradientUnits="userSpaceOnUse" gradientTransform="translate(85.3611 39.4908) rotate(151.594) scale(10.5111 3.84239)">
<stop stop-color="#FFE4BE" stop-opacity="0.6"/>
<stop offset="1" stop-color="#FFE4E7" stop-opacity="0"/>
</radialGradient>
<radialGradient id="paint5_radial_9002_29829" cx="0" cy="0" r="1" gradientUnits="userSpaceOnUse" gradientTransform="translate(76.4909 38.6214) rotate(-34.7171) scale(12.5932 5.67466)">
<stop offset="0.0999146" stop-color="#542301"/>
<stop offset="1" stop-color="#E67505" stop-opacity="0"/>
</radialGradient>
<radialGradient id="paint6_radial_9002_29829" cx="0" cy="0" r="1" gradientUnits="userSpaceOnUse" gradientTransform="translate(75.0768 43.1399) rotate(-86.0285) scale(18.3323 16.5767)">
<stop stop-color="#DB7292"/>
<stop offset="1" stop-color="#FF9C70"/>
</radialGradient>
<radialGradient id="paint7_radial_9002_29829" cx="0" cy="0" r="1" gradientUnits="userSpaceOnUse" gradientTransform="translate(76.058 28.7459) rotate(120.211) scale(13.1851 8.76342)">
<stop offset="0.174272" stop-color="#FFE4BE"/>
<stop offset="0.72781" stop-color="#FFE4D3" stop-opacity="0.491127"/>
<stop offset="1" stop-color="#FFE4E7" stop-opacity="0"/>
</radialGradient>
<radialGradient id="paint8_radial_9002_29829" cx="0" cy="0" r="1" gradientUnits="userSpaceOnUse" gradientTransform="translate(75.3368 23.9862) rotate(110.825) scale(20.4968 13.6231)">
<stop offset="0.856789" stop-color="#FFE4E7" stop-opacity="0"/>
<stop offset="1" stop-color="#FFE4BE"/>
</radialGradient>
<linearGradient id="paint9_linear_9002_29829" x1="117.569" y1="93.9697" x2="117.635" y2="110.417" gradientUnits="userSpaceOnUse">
<stop stop-color="#986206"/>
<stop offset="1" stop-color="#8B1321"/>
</linearGradient>
<radialGradient id="paint10_radial_9002_29829" cx="0" cy="0" r="1" gradientUnits="userSpaceOnUse" gradientTransform="translate(105.289 106.875) rotate(4.61635) scale(23.2967 11.1272)">
<stop offset="0.546225" stop-color="#592A00"/>
<stop offset="1" stop-color="#592A00" stop-opacity="0"/>
</radialGradient>
<linearGradient id="paint11_linear_9002_29829" x1="61.2118" y1="41.6111" x2="64.7597" y2="119.423" gradientUnits="userSpaceOnUse">
<stop stop-color="#D78C0C"/>
<stop offset="1" stop-color="#B15D3C"/>
</linearGradient>
<radialGradient id="paint12_radial_9002_29829" cx="0" cy="0" r="1" gradientUnits="userSpaceOnUse" gradientTransform="translate(57.2597 82.9327) rotate(69.2298) scale(15.862 7.30426)">
<stop offset="0.349232" stop-color="#FF9FB2"/>
<stop offset="1" stop-color="#EBC7FA" stop-opacity="0"/>
</radialGradient>
<radialGradient id="paint13_radial_9002_29829" cx="0" cy="0" r="1" gradientUnits="userSpaceOnUse" gradientTransform="translate(75.0001 91.875) rotate(-93.9619) scale(43.5175 9.52638)">
<stop offset="0.188532" stop-color="#592A00"/>
<stop offset="1" stop-color="#592A00" stop-opacity="0"/>
</radialGradient>
<radialGradient id="paint14_radial_9002_29829" cx="0" cy="0" r="1" gradientUnits="userSpaceOnUse" gradientTransform="translate(177.933 24.3237) rotate(-74.491) scale(11.5286 8.47932)">
<stop stop-color="#DB7292"/>
<stop offset="1" stop-color="#FF9C70"/>
</radialGradient>
<radialGradient id="paint15_radial_9002_29829" cx="0" cy="0" r="1" gradientUnits="userSpaceOnUse" gradientTransform="translate(179.349 17.6678) rotate(104.079) scale(7.81953 4.14938)">
<stop offset="0.0314607" stop-color="#FFE4BE"/>
<stop offset="0.72781" stop-color="#FFE4D3" stop-opacity="0.491127"/>
<stop offset="1" stop-color="#FFE4E7" stop-opacity="0"/>
</radialGradient>
<radialGradient id="paint16_radial_9002_29829" cx="0" cy="0" r="1" gradientUnits="userSpaceOnUse" gradientTransform="translate(178.758 16.3963) rotate(97.9954) scale(11.6897 5.75237)">
<stop offset="0.856789" stop-color="#FFE4E7" stop-opacity="0"/>
<stop offset="1" stop-color="#FFE4BE"/>
</radialGradient>
<linearGradient id="paint17_linear_9002_29829" x1="180.063" y1="22.825" x2="175.156" y2="32.6982" gradientUnits="userSpaceOnUse">
<stop stop-color="#EFADB0"/>
<stop offset="0.516328" stop-color="#913914"/>
<stop offset="1" stop-color="#8B1321"/>
</linearGradient>
<linearGradient id="paint18_linear_9002_29829" x1="93.8844" y1="75.5048" x2="94.2389" y2="137.07" gradientUnits="userSpaceOnUse">
<stop stop-color="#D78C0C"/>
<stop offset="1" stop-color="#B15D3C"/>
</linearGradient>
<radialGradient id="paint19_radial_9002_29829" cx="0" cy="0" r="1" gradientUnits="userSpaceOnUse" gradientTransform="translate(29.2783 104.423) rotate(-29.2814) scale(35.3868 23.9385)">
<stop offset="0.349232" stop-color="#FF9FB2"/>
<stop offset="1" stop-color="#EBC7FA" stop-opacity="0"/>
</radialGradient>
<radialGradient id="paint20_radial_9002_29829" cx="0" cy="0" r="1" gradientUnits="userSpaceOnUse" gradientTransform="translate(75.1437 81.3462) rotate(167.133) scale(29.1453 18.6882)">
<stop offset="0.349232" stop-color="#FF9FB2"/>
<stop offset="1" stop-color="#EBC7FA" stop-opacity="0"/>
</radialGradient>
<radialGradient id="paint21_radial_9002_29829" cx="0" cy="0" r="1" gradientUnits="userSpaceOnUse" gradientTransform="translate(78.7495 119.842) rotate(-28.8129) scale(26.0083 22.1816)">
<stop offset="0.188532" stop-color="#592A00"/>
<stop offset="1" stop-color="#592A00" stop-opacity="0"/>
</radialGradient>
<radialGradient id="paint22_radial_9002_29829" cx="0" cy="0" r="1" gradientUnits="userSpaceOnUse" gradientTransform="translate(121.298 95.1923) rotate(162.322) scale(37.9963 16.9951)">
<stop offset="0.188532" stop-color="#592A00"/>
<stop offset="1" stop-color="#592A00" stop-opacity="0"/>
</radialGradient>
<linearGradient id="paint23_linear_9002_29829" x1="172.177" y1="18.3207" x2="173.277" y2="87.2763" gradientUnits="userSpaceOnUse">
<stop stop-color="#D78C0C"/>
<stop offset="1" stop-color="#B15D3C"/>
</linearGradient>
<radialGradient id="paint24_radial_9002_29829" cx="0" cy="0" r="1" gradientUnits="userSpaceOnUse" gradientTransform="translate(175.818 62.8843) rotate(-41.9835) scale(29.4927 27.6136)">
<stop offset="0.583749" stop-color="#592A00"/>
<stop offset="1" stop-color="#592A00" stop-opacity="0"/>
</radialGradient>
<radialGradient id="paint25_radial_9002_29829" cx="0" cy="0" r="1" gradientUnits="userSpaceOnUse" gradientTransform="translate(49.5434 56.3221) rotate(-102.14) scale(12.6876 9.33175)">
<stop stop-color="#DB7292"/>
<stop offset="1" stop-color="#FF9C70"/>
</radialGradient>
<radialGradient id="paint26_radial_9002_29829" cx="0" cy="0" r="1" gradientUnits="userSpaceOnUse" gradientTransform="translate(47.5241 49.1106) rotate(76.4296) scale(8.60563 4.56652)">
<stop offset="0.0314607" stop-color="#FFE4BE"/>
<stop offset="0.72781" stop-color="#FFE4D3" stop-opacity="0.491127"/>
<stop offset="1" stop-color="#FFE4E7" stop-opacity="0"/>
</radialGradient>
<radialGradient id="paint27_radial_9002_29829" cx="0" cy="0" r="1" gradientUnits="userSpaceOnUse" gradientTransform="translate(46.2982 48.1731) rotate(70.3462) scale(12.8649 6.33066)">
<stop offset="0.856789" stop-color="#FFE4E7" stop-opacity="0"/>
<stop offset="1" stop-color="#FFE4BE"/>
</radialGradient>
<radialGradient id="paint28_radial_9002_29829" cx="0" cy="0" r="1" gradientUnits="userSpaceOnUse" gradientTransform="translate(198.289 29.7959) rotate(-33.6085) scale(12.6876 9.33175)">
<stop stop-color="#DB7292"/>
<stop offset="1" stop-color="#FF9C70"/>
</radialGradient>
<radialGradient id="paint29_radial_9002_29829" cx="0" cy="0" r="1" gradientUnits="userSpaceOnUse" gradientTransform="translate(204.261 25.2775) rotate(144.961) scale(8.60563 4.56652)">
<stop offset="0.0314607" stop-color="#FFE4BE"/>
<stop offset="0.72781" stop-color="#FFE4D3" stop-opacity="0.491127"/>
<stop offset="1" stop-color="#FFE4E7" stop-opacity="0"/>
</radialGradient>
<radialGradient id="paint30_radial_9002_29829" cx="0" cy="0" r="1" gradientUnits="userSpaceOnUse" gradientTransform="translate(204.685 23.7935) rotate(138.878) scale(12.8649 6.33065)">
<stop offset="0.856789" stop-color="#FFE4E7" stop-opacity="0"/>
<stop offset="1" stop-color="#FFE4BE"/>
</radialGradient>
<linearGradient id="paint31_linear_9002_29829" x1="50.6312" y1="53.8375" x2="50.8317" y2="64.0119" gradientUnits="userSpaceOnUse">
<stop stop-color="#EFADB0"/>
<stop offset="0.516328" stop-color="#913914"/>
<stop offset="1" stop-color="#8B1321"/>
</linearGradient>
<radialGradient id="paint32_radial_9002_29829" cx="0" cy="0" r="1" gradientUnits="userSpaceOnUse" gradientTransform="translate(143.138 99.978) rotate(-2.83742) scale(11.5254 8.47694)">
<stop stop-color="#DB7292"/>
<stop offset="1" stop-color="#FF9C70"/>
</radialGradient>
<radialGradient id="paint33_radial_9002_29829" cx="0" cy="0" r="1" gradientUnits="userSpaceOnUse" gradientTransform="translate(149.899 99.2269) rotate(175.732) scale(7.81734 4.14822)">
<stop offset="0.0314607" stop-color="#FFE4BE"/>
<stop offset="0.72781" stop-color="#FFE4D3" stop-opacity="0.491127"/>
<stop offset="1" stop-color="#FFE4E7" stop-opacity="0"/>
</radialGradient>
<radialGradient id="paint34_radial_9002_29829" cx="0" cy="0" r="1" gradientUnits="userSpaceOnUse" gradientTransform="translate(150.919 98.2655) rotate(169.649) scale(11.6864 5.75075)">
<stop offset="0.856789" stop-color="#FFE4E7" stop-opacity="0"/>
<stop offset="1" stop-color="#FFE4BE"/>
</radialGradient>
<linearGradient id="paint35_linear_9002_29829" x1="201" y1="29.8986" x2="191.605" y2="33.8089" gradientUnits="userSpaceOnUse">
<stop stop-color="#EFADB0"/>
<stop offset="0.516328" stop-color="#913914"/>
<stop offset="1" stop-color="#8B1321"/>
</linearGradient>
<linearGradient id="paint36_linear_9002_29829" x1="145.812" y1="101.295" x2="134.546" y2="99.6774" gradientUnits="userSpaceOnUse">
<stop stop-color="#EFADB0"/>
<stop offset="0.516328" stop-color="#913914"/>
<stop offset="1" stop-color="#8B1321"/>
</linearGradient>
<radialGradient id="paint37_radial_9002_29829" cx="0" cy="0" r="1" gradientUnits="userSpaceOnUse" gradientTransform="translate(172.025 75.1059) rotate(132.09) scale(26.3586 25.8639)">
<stop stop-color="#DB7292"/>
<stop offset="1" stop-color="#FF9C70"/>
</radialGradient>
<radialGradient id="paint38_radial_9002_29829" cx="0" cy="0" r="1" gradientUnits="userSpaceOnUse" gradientTransform="translate(166.13 86.116) rotate(104.513) scale(11.6775 10.6082)">
<stop offset="0.174272" stop-color="#FFE4BE"/>
<stop offset="0.72781" stop-color="#FFE4D3" stop-opacity="0.491127"/>
<stop offset="1" stop-color="#FFE4E7" stop-opacity="0"/>
</radialGradient>
<radialGradient id="paint39_radial_9002_29829" cx="0" cy="0" r="1" gradientUnits="userSpaceOnUse" gradientTransform="translate(166.934 74.1693) rotate(103.432) scale(18.0631 6.44022)">
<stop stop-color="#BC5104" stop-opacity="0.6"/>
<stop offset="1" stop-color="#E67505" stop-opacity="0"/>
</radialGradient>
<radialGradient id="paint40_radial_9002_29829" cx="0" cy="0" r="1" gradientUnits="userSpaceOnUse" gradientTransform="translate(157.704 80.9349) rotate(148.027) scale(13.7224 9.23494)">
<stop offset="0.182097" stop-color="#C94337"/>
<stop offset="0.385345" stop-color="#D46256" stop-opacity="0.751501"/>
<stop offset="1" stop-color="#F6BFB4" stop-opacity="0"/>
</radialGradient>
<radialGradient id="paint41_radial_9002_29829" cx="0" cy="0" r="1" gradientUnits="userSpaceOnUse" gradientTransform="translate(162.178 102.469) rotate(-75.3715) scale(22.4267 28.5381)">
<stop stop-color="#DB7292"/>
<stop offset="1" stop-color="#FF9C70"/>
</radialGradient>
<radialGradient id="paint42_radial_9002_29829" cx="0" cy="0" r="1" gradientUnits="userSpaceOnUse" gradientTransform="translate(162.509 82.4685) rotate(97.998) scale(23.1258 20.7029)">
<stop offset="0.718777" stop-color="#FFE4BE"/>
<stop offset="1" stop-color="#FFE4E7" stop-opacity="0"/>
</radialGradient>
<radialGradient id="paint43_radial_9002_29829" cx="0" cy="0" r="1" gradientUnits="userSpaceOnUse" gradientTransform="translate(153.716 80.024) rotate(-78.6958) scale(16.3214 16.3368)">
<stop stop-color="#DB7292"/>
<stop offset="1" stop-color="#FF9C70"/>
</radialGradient>
<radialGradient id="paint44_radial_9002_29829" cx="0" cy="0" r="1" gradientUnits="userSpaceOnUse" gradientTransform="translate(153.903 61.5356) rotate(-157.109) scale(11.0483 20.4051)">
<stop offset="0.718777" stop-color="#FFE4BE"/>
<stop offset="1" stop-color="#FFE4E7" stop-opacity="0"/>
</radialGradient>
<radialGradient id="paint45_radial_9002_29829" cx="0" cy="0" r="1" gradientUnits="userSpaceOnUse" gradientTransform="translate(162.139 75.7074) rotate(-128.141) scale(19.6314 45.4413)">
<stop stop-color="#DB7292"/>
<stop offset="1" stop-color="#FF9C70"/>
</radialGradient>
<radialGradient id="paint46_radial_9002_29829" cx="0" cy="0" r="1" gradientUnits="userSpaceOnUse" gradientTransform="translate(157.603 68.9087) rotate(96.0065) scale(10.8653 7.63948)">
<stop offset="0.174272" stop-color="#FFE4BE"/>
<stop offset="0.72781" stop-color="#FFE4D3" stop-opacity="0.491127"/>
<stop offset="1" stop-color="#FFE4E7" stop-opacity="0"/>
</radialGradient>
<radialGradient id="paint47_radial_9002_29829" cx="0" cy="0" r="1" gradientUnits="userSpaceOnUse" gradientTransform="translate(160.737 73.0619) rotate(-83.4979) scale(23.9046 14.0055)">
<stop stop-color="#DB7292"/>
<stop offset="1" stop-color="#FF9C70"/>
</radialGradient>
<radialGradient id="paint48_radial_9002_29829" cx="0" cy="0" r="1" gradientUnits="userSpaceOnUse" gradientTransform="translate(164.368 56.9382) rotate(96.9904) scale(18.6338 12.1021)">
<stop offset="0.718777" stop-color="#FFE4BE"/>
<stop offset="1" stop-color="#FFE4E7" stop-opacity="0"/>
</radialGradient>
<radialGradient id="paint49_radial_9002_29829" cx="0" cy="0" r="1" gradientUnits="userSpaceOnUse" gradientTransform="translate(163.76 73.3174) rotate(-83.5406) scale(24.2959 14.1429)">
<stop stop-color="#DB7292"/>
<stop offset="1" stop-color="#FF9C70"/>
</radialGradient>
<radialGradient id="paint50_radial_9002_29829" cx="0" cy="0" r="1" gradientUnits="userSpaceOnUse" gradientTransform="translate(171.229 56.9355) rotate(100.344) scale(20.8234 12.2448)">
<stop offset="0.174272" stop-color="#FFE4BE"/>
<stop offset="0.72781" stop-color="#FFE4D3" stop-opacity="0.491127"/>
<stop offset="1" stop-color="#FFE4E7" stop-opacity="0"/>
</radialGradient>
<radialGradient id="paint51_radial_9002_29829" cx="0" cy="0" r="1" gradientUnits="userSpaceOnUse" gradientTransform="translate(167.539 68.4694) rotate(-86.8339) scale(11.5515 2.31605)">
<stop stop-color="#BC5104" stop-opacity="0.6"/>
<stop offset="1" stop-color="#E67505" stop-opacity="0"/>
</radialGradient>
<radialGradient id="paint52_radial_9002_29829" cx="0" cy="0" r="1" gradientUnits="userSpaceOnUse" gradientTransform="translate(182.828 73.8091) rotate(-73.7207) scale(20.4118 28.6014)">
<stop stop-color="#DB7292"/>
<stop offset="1" stop-color="#FF9C70"/>
</radialGradient>
<radialGradient id="paint53_radial_9002_29829" cx="0" cy="0" r="1" gradientUnits="userSpaceOnUse" gradientTransform="translate(182.164 60.5077) rotate(144.563) scale(20.3755 13.459)">
<stop offset="0.718777" stop-color="#FFE4BE"/>
<stop offset="1" stop-color="#FFE4E7" stop-opacity="0"/>
</radialGradient>
<radialGradient id="paint54_radial_9002_29829" cx="0" cy="0" r="1" gradientUnits="userSpaceOnUse" gradientTransform="translate(176.799 73.8091) rotate(-72.1173) scale(23.1205 24.6517)">
<stop stop-color="#DB7292"/>
<stop offset="1" stop-color="#FF9C70"/>
</radialGradient>
<radialGradient id="paint55_radial_9002_29829" cx="0" cy="0" r="1" gradientUnits="userSpaceOnUse" gradientTransform="translate(183.347 61.395) rotate(140.172) scale(13.6316 11.7704)">
<stop offset="0.174272" stop-color="#FFE4BE"/>
<stop offset="0.72781" stop-color="#FFE4D3" stop-opacity="0.491127"/>
<stop offset="1" stop-color="#FFE4E7" stop-opacity="0"/>
</radialGradient>
<radialGradient id="paint56_radial_9002_29829" cx="0" cy="0" r="1" gradientUnits="userSpaceOnUse" gradientTransform="translate(170.95 70.539) rotate(-43.8927) scale(13.1889 7.24258)">
<stop offset="0.182097" stop-color="#BC5104" stop-opacity="0.6"/>
<stop offset="1" stop-color="#E67505" stop-opacity="0"/>
</radialGradient>
<radialGradient id="paint57_radial_9002_29829" cx="0" cy="0" r="1" gradientUnits="userSpaceOnUse" gradientTransform="translate(166.958 85.8252) rotate(-21.8314) scale(33.3106 31.7622)">
<stop stop-color="#DB7292"/>
<stop offset="1" stop-color="#FF9C70"/>
</radialGradient>
<radialGradient id="paint58_radial_9002_29829" cx="0" cy="0" r="1" gradientUnits="userSpaceOnUse" gradientTransform="translate(186.49 77.4522) rotate(-175.28) scale(15.7747 11.3391)">
<stop offset="0.174272" stop-color="#FFE4BE"/>
<stop offset="0.72781" stop-color="#FFE4D3" stop-opacity="0.491127"/>
<stop offset="1" stop-color="#FFE4E7" stop-opacity="0"/>
</radialGradient>
<radialGradient id="paint59_radial_9002_29829" cx="0" cy="0" r="1" gradientUnits="userSpaceOnUse" gradientTransform="translate(172.695 75.8784) rotate(9.1217) scale(12.6569 7.69367)">
<stop offset="0.182097" stop-color="#C94337"/>
<stop offset="0.385345" stop-color="#D46256" stop-opacity="0.751501"/>
<stop offset="1" stop-color="#F6BFB4" stop-opacity="0"/>
</radialGradient>
<radialGradient id="paint60_radial_9002_29829" cx="0" cy="0" r="1" gradientUnits="userSpaceOnUse" gradientTransform="translate(183.173 94.4926) rotate(-67.3391) scale(16.5836 30.703)">
<stop stop-color="#DB7292"/>
<stop offset="1" stop-color="#FF9C70"/>
</radialGradient>
<radialGradient id="paint61_radial_9002_29829" cx="0" cy="0" r="1" gradientUnits="userSpaceOnUse" gradientTransform="translate(184.038 79.9041) rotate(173.103) scale(18.015 14.6829)">
<stop offset="0.653309" stop-color="#FFE4BE"/>
<stop offset="1" stop-color="#FFE4E7" stop-opacity="0"/>
</radialGradient>
<radialGradient id="paint62_radial_9002_29829" cx="0" cy="0" r="1" gradientUnits="userSpaceOnUse" gradientTransform="translate(167.914 72.249) rotate(147.748) scale(6.44902 8.31111)">
<stop stop-color="#741C06"/>
<stop offset="0.67" stop-color="#A3482A"/>
<stop offset="0.89" stop-color="#FF9C70"/>
</radialGradient>
<radialGradient id="paint63_radial_9002_29829" cx="0" cy="0" r="1" gradientUnits="userSpaceOnUse" gradientTransform="translate(169.066 53.0207) rotate(65.7557) scale(2.19025 2.37037)">
<stop stop-color="#FFDE4A"/>
<stop offset="1" stop-color="#BD8200"/>
</radialGradient>
<radialGradient id="paint64_radial_9002_29829" cx="0" cy="0" r="1" gradientUnits="userSpaceOnUse" gradientTransform="translate(170.492 59.3455) rotate(65.7557) scale(2.19025 2.37037)">
<stop stop-color="#FFDE4A"/>
<stop offset="1" stop-color="#BD8200"/>
</radialGradient>
<radialGradient id="paint65_radial_9002_29829" cx="0" cy="0" r="1" gradientUnits="userSpaceOnUse" gradientTransform="translate(176.505 60.8943) rotate(65.7557) scale(2.19025 2.37037)">
<stop stop-color="#FFDE4A"/>
<stop offset="1" stop-color="#BD8200"/>
</radialGradient>
<radialGradient id="paint66_radial_9002_29829" cx="0" cy="0" r="1" gradientUnits="userSpaceOnUse" gradientTransform="translate(177.17 65.2082) rotate(154.255) scale(2.19025 2.37037)">
<stop stop-color="#FFDE4A"/>
<stop offset="1" stop-color="#BD8200"/>
</radialGradient>
<radialGradient id="paint67_radial_9002_29829" cx="0" cy="0" r="1" gradientUnits="userSpaceOnUse" gradientTransform="translate(184.64 61.1028) rotate(108.44) scale(2.19025 2.37037)">
<stop stop-color="#FFDE4A"/>
<stop offset="1" stop-color="#BD8200"/>
</radialGradient>
<radialGradient id="paint68_radial_9002_29829" cx="0" cy="0" r="1" gradientUnits="userSpaceOnUse" gradientTransform="translate(189.302 68.1653) rotate(173.188) scale(2.19025 2.37037)">
<stop stop-color="#FFDE4A"/>
<stop offset="1" stop-color="#BD8200"/>
</radialGradient>
<radialGradient id="paint69_radial_9002_29829" cx="0" cy="0" r="1" gradientUnits="userSpaceOnUse" gradientTransform="translate(180.899 70.5857) rotate(92.1703) scale(2.19025 2.37037)">
<stop stop-color="#FFDE4A"/>
<stop offset="1" stop-color="#BD8200"/>
</radialGradient>
<radialGradient id="paint70_radial_9002_29829" cx="0" cy="0" r="1" gradientUnits="userSpaceOnUse" gradientTransform="translate(180.181 78.3096) rotate(126.182) scale(2.19025 2.37037)">
<stop stop-color="#FFDE4A"/>
<stop offset="1" stop-color="#BD8200"/>
</radialGradient>
<radialGradient id="paint71_radial_9002_29829" cx="0" cy="0" r="1" gradientUnits="userSpaceOnUse" gradientTransform="translate(118.69 74.4) rotate(-25.791) scale(33.5621 36.3166)">
<stop stop-color="#DB7292"/>
<stop offset="1" stop-color="#FF9C70"/>
</radialGradient>
<radialGradient id="paint72_radial_9002_29829" cx="0" cy="0" r="1" gradientUnits="userSpaceOnUse" gradientTransform="translate(135.182 69.2415) rotate(114.871) scale(12.3856 9.40697)">
<stop offset="0.174272" stop-color="#FFE4BE"/>
<stop offset="0.72781" stop-color="#FFE4D3" stop-opacity="0.491127"/>
<stop offset="1" stop-color="#FFE4E7" stop-opacity="0"/>
</radialGradient>
<radialGradient id="paint73_radial_9002_29829" cx="0" cy="0" r="1" gradientUnits="userSpaceOnUse" gradientTransform="translate(124.297 62.6745) rotate(76.6489) scale(21.4987 8.17382)">
<stop offset="0.182097" stop-color="#C94337"/>
<stop offset="0.385345" stop-color="#D46256" stop-opacity="0.751501"/>
<stop offset="1" stop-color="#F6BFB4" stop-opacity="0"/>
</radialGradient>
<radialGradient id="paint74_radial_9002_29829" cx="0" cy="0" r="1" gradientUnits="userSpaceOnUse" gradientTransform="translate(129.356 58.6463) rotate(-16.3081) scale(20.3722 11.1969)">
<stop offset="0.182097" stop-color="#D37269"/>
<stop offset="1" stop-color="#F6BFB4" stop-opacity="0"/>
</radialGradient>
<radialGradient id="paint75_radial_9002_29829" cx="0" cy="0" r="1" gradientUnits="userSpaceOnUse" gradientTransform="translate(136.055 84.4855) rotate(-73.6896) scale(19.6651 27.6019)">
<stop stop-color="#DB7292"/>
<stop offset="1" stop-color="#FF9C70"/>
</radialGradient>
<radialGradient id="paint76_radial_9002_29829" cx="0" cy="0" r="1" gradientUnits="userSpaceOnUse" gradientTransform="translate(134.013 69.893) rotate(138.014) scale(19.6722 15.9902)">
<stop offset="0.666172" stop-color="#FFE4BE"/>
<stop offset="1" stop-color="#FFE4E7" stop-opacity="0"/>
</radialGradient>
<radialGradient id="paint77_radial_9002_29829" cx="0" cy="0" r="1" gradientUnits="userSpaceOnUse" gradientTransform="translate(110.4 92.0192) rotate(-76.175) scale(28.1471 34.0101)">
<stop stop-color="#DB7292"/>
<stop offset="1" stop-color="#FF9C70"/>
</radialGradient>
<radialGradient id="paint78_radial_9002_29829" cx="0" cy="0" r="1" gradientUnits="userSpaceOnUse" gradientTransform="translate(110.792 66.8282) rotate(97.5461) scale(29.0965 24.6115)">
<stop offset="0.718777" stop-color="#FFE4BE"/>
<stop offset="1" stop-color="#FFE4E7" stop-opacity="0"/>
</radialGradient>
<radialGradient id="paint79_radial_9002_29829" cx="0" cy="0" r="1" gradientUnits="userSpaceOnUse" gradientTransform="translate(123.64 55.1543) rotate(134.447) scale(37.9415 37.4154)">
<stop stop-color="#DB7292"/>
<stop offset="1" stop-color="#FF9C70"/>
</radialGradient>
<radialGradient id="paint80_radial_9002_29829" cx="0" cy="0" r="1" gradientUnits="userSpaceOnUse" gradientTransform="translate(114.775 70.4004) rotate(105.701) scale(16.2611 15.8632)">
<stop offset="0.174272" stop-color="#FFE4BE"/>
<stop offset="0.72781" stop-color="#FFE4D3" stop-opacity="0.491127"/>
<stop offset="1" stop-color="#FFE4E7" stop-opacity="0"/>
</radialGradient>
<radialGradient id="paint81_radial_9002_29829" cx="0" cy="0" r="1" gradientUnits="userSpaceOnUse" gradientTransform="translate(115.985 53.8572) rotate(104.54) scale(25.1335 9.63808)">
<stop stop-color="#BC5104" stop-opacity="0.6"/>
<stop offset="1" stop-color="#E67505" stop-opacity="0"/>
</radialGradient>
<radialGradient id="paint82_radial_9002_29829" cx="0" cy="0" r="1" gradientUnits="userSpaceOnUse" gradientTransform="translate(102.105 63.2259) rotate(150.11) scale(20.1907 13.0696)">
<stop offset="0.182097" stop-color="#C94337"/>
<stop offset="0.385345" stop-color="#D46256" stop-opacity="0.751501"/>
<stop offset="1" stop-color="#F6BFB4" stop-opacity="0"/>
</radialGradient>
<radialGradient id="paint83_radial_9002_29829" cx="0" cy="0" r="1" gradientUnits="userSpaceOnUse" gradientTransform="translate(93.0478 73.1233) rotate(-68.0308) scale(18.7058 33.7953)">
<stop stop-color="#DB7292"/>
<stop offset="1" stop-color="#FF9C70"/>
</radialGradient>
<radialGradient id="paint84_radial_9002_29829" cx="0" cy="0" r="1" gradientUnits="userSpaceOnUse" gradientTransform="translate(93.4563 53.0838) rotate(-168.183) scale(22.7455 23.4989)">
<stop offset="0.718777" stop-color="#FFE4BE"/>
<stop offset="1" stop-color="#FFE4E7" stop-opacity="0"/>
</radialGradient>
<radialGradient id="paint85_radial_9002_29829" cx="0" cy="0" r="1" gradientUnits="userSpaceOnUse" gradientTransform="translate(112.347 65.5056) rotate(-153.398) scale(37.923 72.3571)">
<stop stop-color="#DB7292"/>
<stop offset="1" stop-color="#FF9C70"/>
</radialGradient>
<radialGradient id="paint86_radial_9002_29829" cx="0" cy="0" r="1" gradientUnits="userSpaceOnUse" gradientTransform="translate(99.6594 58.0281) rotate(104.979) scale(12.3025 20.7536)">
<stop offset="0.174272" stop-color="#FFE4BE"/>
<stop offset="0.72781" stop-color="#FFE4D3" stop-opacity="0.491127"/>
<stop offset="1" stop-color="#FFE4E7" stop-opacity="0"/>
</radialGradient>
<radialGradient id="paint87_radial_9002_29829" cx="0" cy="0" r="1" gradientUnits="userSpaceOnUse" gradientTransform="translate(135.754 61.856) rotate(-73.3413) scale(23.7352 33.945)">
<stop stop-color="#DB7292"/>
<stop offset="1" stop-color="#FF9C70"/>
</radialGradient>
<radialGradient id="paint88_radial_9002_29829" cx="0" cy="0" r="1" gradientUnits="userSpaceOnUse" gradientTransform="translate(133.9 47.0555) rotate(145.008) scale(22.7987 18.3944)">
<stop offset="0.718777" stop-color="#FFE4BE"/>
<stop offset="1" stop-color="#FFE4E7" stop-opacity="0"/>
</radialGradient>
<radialGradient id="paint89_radial_9002_29829" cx="0" cy="0" r="1" gradientUnits="userSpaceOnUse" gradientTransform="translate(127.913 60.5418) rotate(-78.5225) scale(23.156 23.5142)">
<stop stop-color="#DB7292"/>
<stop offset="1" stop-color="#FF9C70"/>
</radialGradient>
<radialGradient id="paint90_radial_9002_29829" cx="0" cy="0" r="1" gradientUnits="userSpaceOnUse" gradientTransform="translate(136.58 48.0807) rotate(124.693) scale(15.1556 12.7839)">
<stop offset="0.174272" stop-color="#FFE4BE"/>
<stop offset="0.72781" stop-color="#FFE4D3" stop-opacity="0.491127"/>
<stop offset="1" stop-color="#FFE4E7" stop-opacity="0"/>
</radialGradient>
<radialGradient id="paint91_radial_9002_29829" cx="0" cy="0" r="1" gradientUnits="userSpaceOnUse" gradientTransform="translate(127.884 51.5046) rotate(-40.3966) scale(9.81615 5.46807)">
<stop offset="0.182097" stop-color="#BC5104" stop-opacity="0.6"/>
<stop offset="1" stop-color="#E67505" stop-opacity="0"/>
</radialGradient>
<radialGradient id="paint92_radial_9002_29829" cx="0" cy="0" r="1" gradientUnits="userSpaceOnUse" gradientTransform="translate(104.579 55.7555) rotate(-81.0177) scale(25.7766 20.7001)">
<stop stop-color="#DB7292"/>
<stop offset="1" stop-color="#FF9C70"/>
</radialGradient>
<radialGradient id="paint93_radial_9002_29829" cx="0" cy="0" r="1" gradientUnits="userSpaceOnUse" gradientTransform="translate(109.977 38.4711) rotate(99.651) scale(20.1113 17.8707)">
<stop offset="0.718777" stop-color="#FFE4BE"/>
<stop offset="1" stop-color="#FFE4E7" stop-opacity="0"/>
</radialGradient>
<radialGradient id="paint94_radial_9002_29829" cx="0" cy="0" r="1" gradientUnits="userSpaceOnUse" gradientTransform="translate(107.811 55.7555) rotate(-82.0626) scale(25.7068 18.3087)">
<stop stop-color="#DB7292"/>
<stop offset="1" stop-color="#FF9C70"/>
</radialGradient>
<radialGradient id="paint95_radial_9002_29829" cx="0" cy="0" r="1" gradientUnits="userSpaceOnUse" gradientTransform="translate(117.511 38.4787) rotate(102.669) scale(22.1431 15.7724)">
<stop offset="0.174272" stop-color="#FFE4BE"/>
<stop offset="0.72781" stop-color="#FFE4D3" stop-opacity="0.491127"/>
<stop offset="1" stop-color="#FFE4E7" stop-opacity="0"/>
</radialGradient>
<radialGradient id="paint96_radial_9002_29829" cx="0" cy="0" r="1" gradientUnits="userSpaceOnUse" gradientTransform="translate(112.719 50.6426) rotate(-86.103) scale(12.1921 3.00567)">
<stop stop-color="#BC5104" stop-opacity="0.6"/>
<stop offset="1" stop-color="#E67505" stop-opacity="0"/>
</radialGradient>
<radialGradient id="paint97_radial_9002_29829" cx="0" cy="0" r="1" gradientUnits="userSpaceOnUse" gradientTransform="translate(115.417 57.0273) rotate(75.8124) scale(7.63194 9.83559)">
<stop stop-color="#741C06"/>
<stop offset="0.67" stop-color="#A3482A"/>
<stop offset="0.89" stop-color="#FF9C70"/>
</radialGradient>
<radialGradient id="paint98_radial_9002_29829" cx="0" cy="0" r="1" gradientUnits="userSpaceOnUse" gradientTransform="translate(91.5064 43.1729) rotate(17.7786) scale(2.22512 2.40812)">
<stop stop-color="#FFDE4A"/>
<stop offset="1" stop-color="#BD8200"/>
</radialGradient>
<radialGradient id="paint99_radial_9002_29829" cx="0" cy="0" r="1" gradientUnits="userSpaceOnUse" gradientTransform="translate(125.934 30.9678) rotate(65.7557) scale(2.22512 2.40812)">
<stop stop-color="#FFDE4A"/>
<stop offset="1" stop-color="#BD8200"/>
</radialGradient>
<radialGradient id="paint100_radial_9002_29829" cx="0" cy="0" r="1" gradientUnits="userSpaceOnUse" gradientTransform="translate(129.1 50.3358) rotate(65.7557) scale(2.22512 2.40812)">
<stop stop-color="#FFDE4A"/>
<stop offset="1" stop-color="#BD8200"/>
</radialGradient>
<radialGradient id="paint101_radial_9002_29829" cx="0" cy="0" r="1" gradientUnits="userSpaceOnUse" gradientTransform="translate(116.322 42.1461) rotate(88.8532) scale(2.22512 2.40812)">
<stop stop-color="#FFDE4A"/>
<stop offset="1" stop-color="#BD8200"/>
</radialGradient>
<radialGradient id="paint102_radial_9002_29829" cx="0" cy="0" r="1" gradientUnits="userSpaceOnUse" gradientTransform="translate(110.241 38.9596) rotate(58.1797) scale(2.22512 2.40812)">
<stop stop-color="#FFDE4A"/>
<stop offset="1" stop-color="#BD8200"/>
</radialGradient>
<radialGradient id="paint103_radial_9002_29829" cx="0" cy="0" r="1" gradientUnits="userSpaceOnUse" gradientTransform="translate(105.319 44.1454) rotate(76.0695) scale(2.22512 2.40812)">
<stop stop-color="#FFDE4A"/>
<stop offset="1" stop-color="#BD8200"/>
</radialGradient>
<radialGradient id="paint104_radial_9002_29829" cx="0" cy="0" r="1" gradientUnits="userSpaceOnUse" gradientTransform="translate(95.0967 57.6284) rotate(42.983) scale(2.22512 2.40812)">
<stop stop-color="#FFDE4A"/>
<stop offset="1" stop-color="#BD8200"/>
</radialGradient>
<radialGradient id="paint105_radial_9002_29829" cx="0" cy="0" r="1" gradientUnits="userSpaceOnUse" gradientTransform="translate(103.688 57.334) rotate(42.983) scale(2.22512 2.40812)">
<stop stop-color="#FFDE4A"/>
<stop offset="1" stop-color="#BD8200"/>
</radialGradient>
<radialGradient id="paint106_radial_9002_29829" cx="0" cy="0" r="1" gradientUnits="userSpaceOnUse" gradientTransform="translate(119.992 47.5669) rotate(42.983) scale(2.22512 2.40812)">
<stop stop-color="#FFDE4A"/>
<stop offset="1" stop-color="#BD8200"/>
</radialGradient>
<linearGradient id="paint107_linear_9002_29829" x1="72.8077" y1="32.0558" x2="73.1614" y2="57.0636" gradientUnits="userSpaceOnUse">
<stop stop-color="#EFADB0"/>
<stop offset="0.516328" stop-color="#913914"/>
<stop offset="1" stop-color="#8B1321"/>
</linearGradient>
<radialGradient id="paint108_radial_9002_29829" cx="0" cy="0" r="1" gradientUnits="userSpaceOnUse" gradientTransform="translate(147.296 15.7783) rotate(90) scale(10.564 10.9174)">
<stop offset="0.19" stop-color="#FFD1DA" stop-opacity="0.6"/>
<stop offset="1" stop-color="#FFE4BE" stop-opacity="0"/>
</radialGradient>
<radialGradient id="paint109_radial_9002_29829" cx="0" cy="0" r="1" gradientUnits="userSpaceOnUse" gradientTransform="translate(33.8415 25.2387) rotate(90) scale(4.76384 4.92325)">
<stop offset="0.19" stop-color="#FFD1DA" stop-opacity="0.6"/>
<stop offset="1" stop-color="#FFE4BE" stop-opacity="0"/>
</radialGradient>
<radialGradient id="paint110_radial_9002_29829" cx="0" cy="0" r="1" gradientUnits="userSpaceOnUse" gradientTransform="translate(26.5942 68.3214) rotate(90) scale(8.31968 8.59807)">
<stop offset="0.19" stop-color="#FFD1DA" stop-opacity="0.6"/>
<stop offset="1" stop-color="#FFE4BE" stop-opacity="0"/>
</radialGradient>
<radialGradient id="paint111_radial_9002_29829" cx="0" cy="0" r="1" gradientUnits="userSpaceOnUse" gradientTransform="translate(215.846 68.55) rotate(90) scale(9.152 9.45824)">
<stop offset="0.19" stop-color="#FFD1DA" stop-opacity="0.6"/>
<stop offset="1" stop-color="#FFE4BE" stop-opacity="0"/>
</radialGradient>
<radialGradient id="paint112_radial_9002_29829" cx="0" cy="0" r="1" gradientUnits="userSpaceOnUse" gradientTransform="translate(182.757 106.24) rotate(90) scale(3.98798 4.12142)">
<stop offset="0.19" stop-color="#FFD1DA" stop-opacity="0.6"/>
<stop offset="1" stop-color="#FFE4BE" stop-opacity="0"/>
</radialGradient>
</defs>
</svg>
