<svg viewBox="0 0 240 120" fill="none" xmlns="http://www.w3.org/2000/svg">
<path d="M45.4324 116.156C43.1247 118.291 30.144 115.444 25.8171 120H229.037C223.701 115.871 212.047 108.096 208.124 110.033C203.22 112.453 192.114 114.732 185.912 111.457C179.71 108.182 174.951 110.033 169.759 110.033C164.566 110.033 159.807 110.033 155.191 106.473C150.576 102.913 143.941 104.052 141.922 102.201C139.903 100.35 136.297 98.3567 133.701 100.777C131.105 103.198 127.643 99.6382 126.49 98.3567C125.336 97.0752 122.451 97.9295 114.23 98.3567C106.009 98.7839 87.4754 108.11 84.8072 109.321C82.6738 110.288 80.336 105.761 76.4418 110.033C74.1341 107.328 68.6534 109.748 65.6246 110.033C62.5957 110.318 64.1823 107.47 60.4323 107.612C56.6823 107.755 47.7401 114.02 45.4324 116.156Z" fill="url(#paint0_radial_616_35465)"/>
<path d="M45.4324 116.156C43.1247 118.291 30.144 115.444 25.8171 120H229.037C223.701 115.871 212.047 108.096 208.124 110.033C203.22 112.453 192.114 114.732 185.912 111.457C179.71 108.182 174.951 110.033 169.759 110.033C164.566 110.033 159.807 110.033 155.191 106.473C150.576 102.913 143.941 104.052 141.922 102.201C139.903 100.35 136.297 98.3567 133.701 100.777C131.105 103.198 127.643 99.6382 126.49 98.3567C125.336 97.0752 122.451 97.9295 114.23 98.3567C106.009 98.7839 87.4754 108.11 84.8072 109.321C82.6738 110.288 80.336 105.761 76.4418 110.033C74.1341 107.328 68.6534 109.748 65.6246 110.033C62.5957 110.318 64.1823 107.47 60.4323 107.612C56.6823 107.755 47.7401 114.02 45.4324 116.156Z" fill="url(#paint1_radial_616_35465)"/>
<path d="M45.4324 116.156C43.1247 118.291 30.144 115.444 25.8171 120H229.037C223.701 115.871 212.047 108.096 208.124 110.033C203.22 112.453 192.114 114.732 185.912 111.457C179.71 108.182 174.951 110.033 169.759 110.033C164.566 110.033 159.807 110.033 155.191 106.473C150.576 102.913 143.941 104.052 141.922 102.201C139.903 100.35 136.297 98.3567 133.701 100.777C131.105 103.198 127.643 99.6382 126.49 98.3567C125.336 97.0752 122.451 97.9295 114.23 98.3567C106.009 98.7839 87.4754 108.11 84.8072 109.321C82.6738 110.288 80.336 105.761 76.4418 110.033C74.1341 107.328 68.6534 109.748 65.6246 110.033C62.5957 110.318 64.1823 107.47 60.4323 107.612C56.6823 107.755 47.7401 114.02 45.4324 116.156Z" fill="url(#paint2_radial_616_35465)"/>
<path d="M45.4324 116.156C43.1247 118.291 30.144 115.444 25.8171 120H229.037C223.701 115.871 212.047 108.096 208.124 110.033C203.22 112.453 192.114 114.732 185.912 111.457C179.71 108.182 174.951 110.033 169.759 110.033C164.566 110.033 159.807 110.033 155.191 106.473C150.576 102.913 143.941 104.052 141.922 102.201C139.903 100.35 136.297 98.3567 133.701 100.777C131.105 103.198 127.643 99.6382 126.49 98.3567C125.336 97.0752 122.451 97.9295 114.23 98.3567C106.009 98.7839 87.4754 108.11 84.8072 109.321C82.6738 110.288 80.336 105.761 76.4418 110.033C74.1341 107.328 68.6534 109.748 65.6246 110.033C62.5957 110.318 64.1823 107.47 60.4323 107.612C56.6823 107.755 47.7401 114.02 45.4324 116.156Z" fill="url(#paint3_radial_616_35465)"/>
<path d="M45.4324 116.156C43.1247 118.291 30.144 115.444 25.8171 120H229.037C223.701 115.871 212.047 108.096 208.124 110.033C203.22 112.453 192.114 114.732 185.912 111.457C179.71 108.182 174.951 110.033 169.759 110.033C164.566 110.033 159.807 110.033 155.191 106.473C150.576 102.913 143.941 104.052 141.922 102.201C139.903 100.35 136.297 98.3567 133.701 100.777C131.105 103.198 127.643 99.6382 126.49 98.3567C125.336 97.0752 122.451 97.9295 114.23 98.3567C106.009 98.7839 87.4754 108.11 84.8072 109.321C82.6738 110.288 80.336 105.761 76.4418 110.033C74.1341 107.328 68.6534 109.748 65.6246 110.033C62.5957 110.318 64.1823 107.47 60.4323 107.612C56.6823 107.755 47.7401 114.02 45.4324 116.156Z" fill="url(#paint4_radial_616_35465)"/>
<path d="M45.4324 116.156C43.1247 118.291 30.144 115.444 25.8171 120H229.037C223.701 115.871 212.047 108.096 208.124 110.033C203.22 112.453 192.114 114.732 185.912 111.457C179.71 108.182 174.951 110.033 169.759 110.033C164.566 110.033 159.807 110.033 155.191 106.473C150.576 102.913 143.941 104.052 141.922 102.201C139.903 100.35 136.297 98.3567 133.701 100.777C131.105 103.198 127.643 99.6382 126.49 98.3567C125.336 97.0752 122.451 97.9295 114.23 98.3567C106.009 98.7839 87.4754 108.11 84.8072 109.321C82.6738 110.288 80.336 105.761 76.4418 110.033C74.1341 107.328 68.6534 109.748 65.6246 110.033C62.5957 110.318 64.1823 107.47 60.4323 107.612C56.6823 107.755 47.7401 114.02 45.4324 116.156Z" fill="url(#paint5_radial_616_35465)"/>
<path d="M131.466 105.762C131.466 106.781 127.344 107.606 122.26 107.606C117.175 107.606 113.054 106.781 113.054 105.762C113.054 104.743 117.175 103.918 122.26 103.918C127.344 103.918 131.466 104.743 131.466 105.762Z" fill="url(#paint6_radial_616_35465)"/>
<path d="M138.749 119.826C123.057 118.821 118.893 109.493 116.97 107.12C118.893 106.142 123.518 104.774 126.634 107.12C130.528 110.052 147.114 108.097 157.066 110.75C167.018 113.403 161.139 121.26 138.749 119.826Z" fill="url(#paint7_radial_616_35465)"/>
<path d="M130.636 28.6913C130.636 18.7964 123.699 13.6841 122.388 8.07703C119.633 11.906 111.944 20.6022 111.522 30.3404C111.1 40.0786 117.64 54.3106 119.926 59.5112C120.747 62.3115 122.388 66.8492 122.388 62.5973C122.388 57.2824 130.636 40.5651 130.636 28.6913Z" fill="url(#paint8_radial_616_35465)"/>
<path d="M130.636 28.6913C130.636 18.7964 123.699 13.6841 122.388 8.07703C119.633 11.906 111.944 20.6022 111.522 30.3404C111.1 40.0786 117.64 54.3106 119.926 59.5112C120.747 62.3115 122.388 66.8492 122.388 62.5973C122.388 57.2824 130.636 40.5651 130.636 28.6913Z" fill="url(#paint9_radial_616_35465)"/>
<path d="M138.722 42.3439C125.374 52.2377 121.908 72.1284 121.244 74.1417L122.307 75.7364C128.773 58.7235 155.261 45.8207 159.558 43.2022C163.382 40.8721 164.262 38.9583 162.505 37.9071C160.749 36.8558 152.071 32.45 138.722 42.3439Z" fill="url(#paint10_radial_616_35465)"/>
<path d="M138.722 42.3439C125.374 52.2377 121.908 72.1284 121.244 74.1417L122.307 75.7364C128.773 58.7235 155.261 45.8207 159.558 43.2022C163.382 40.8721 164.262 38.9583 162.505 37.9071C160.749 36.8558 152.071 32.45 138.722 42.3439Z" fill="url(#paint11_radial_616_35465)"/>
<path d="M143.176 73.8795C132.336 70.0534 125.242 84.109 123.049 91.6151V95.999C134.275 90.2201 149.076 75.9618 143.176 73.8795Z" fill="url(#paint12_radial_616_35465)"/>
<path d="M143.176 73.8795C132.336 70.0534 125.242 84.109 123.049 91.6151V95.999C134.275 90.2201 149.076 75.9618 143.176 73.8795Z" fill="url(#paint13_radial_616_35465)"/>
<path d="M89.79 77.2228C95.7357 82.4479 109.609 79.7452 120.06 92.8978L121.501 83.889C120.42 73.6191 104.745 64.2504 96.6371 65.3314C88.5293 66.4124 83.8442 71.9977 89.79 77.2228Z" fill="url(#paint14_radial_616_35465)"/>
<path d="M89.79 77.2228C95.7357 82.4479 109.609 79.7452 120.06 92.8978L121.501 83.889C120.42 73.6191 104.745 64.2504 96.6371 65.3314C88.5293 66.4124 83.8442 71.9977 89.79 77.2228Z" fill="url(#paint15_radial_616_35465)"/>
<path d="M102.332 55.8681C116.672 61.5983 121.481 67.4246 122.093 69.6214L121.141 61.8994C114.506 52.3217 102.104 41.5806 97.3071 37.2299C92.51 32.8792 84.9028 27.8525 78.0198 28.7013C79.0526 38.4585 84.4063 48.7053 102.332 55.8681Z" fill="url(#paint16_radial_616_35465)"/>
<path d="M102.332 55.8681C116.672 61.5983 121.481 67.4246 122.093 69.6214L121.141 61.8994C114.506 52.3217 102.104 41.5806 97.3071 37.2299C92.51 32.8792 84.9028 27.8525 78.0198 28.7013C79.0526 38.4585 84.4063 48.7053 102.332 55.8681Z" fill="url(#paint17_radial_616_35465)"/>
<path fill-rule="evenodd" clip-rule="evenodd" d="M80.5009 31.207L81.0839 30.7517C91.2416 44.3685 111.494 50.6904 121.702 64.423L120.279 65.2061C110.171 51.654 90.384 45.2848 80.5009 31.207Z" fill="url(#paint18_radial_616_35465)"/>
<path fill-rule="evenodd" clip-rule="evenodd" d="M80.5009 31.207L81.0839 30.7517C91.2416 44.3685 111.494 50.6904 121.702 64.423L120.279 65.2061C110.171 51.654 90.384 45.2848 80.5009 31.207Z" fill="url(#paint19_radial_616_35465)"/>
<path fill-rule="evenodd" clip-rule="evenodd" d="M80.5009 31.207L81.0839 30.7517C91.2416 44.3685 111.494 50.6904 121.702 64.423L120.279 65.2061C110.171 51.654 90.384 45.2848 80.5009 31.207Z" fill="url(#paint20_radial_616_35465)"/>
<path fill-rule="evenodd" clip-rule="evenodd" d="M156.839 39.0674L156.733 39.9342C141.684 41.6639 127.556 58.8913 123.378 71.2356L121.428 70.6787C125.798 57.7689 140.183 40.6648 156.839 39.0674Z" fill="url(#paint21_radial_616_35465)"/>
<path fill-rule="evenodd" clip-rule="evenodd" d="M156.839 39.0674L156.733 39.9342C141.684 41.6639 127.556 58.8913 123.378 71.2356L121.428 70.6787C125.798 57.7689 140.183 40.6648 156.839 39.0674Z" fill="url(#paint22_radial_616_35465)"/>
<path fill-rule="evenodd" clip-rule="evenodd" d="M123.846 95.0025L122.26 94.1633C125.918 85.2211 133.765 78.6468 139.19 76.7687L139.439 77.3167C134.502 79.0258 127.362 86.4085 123.846 95.0025Z" fill="url(#paint23_radial_616_35465)"/>
<path fill-rule="evenodd" clip-rule="evenodd" d="M90.2518 72.2055L90.2524 71.5932C101.817 69.2955 117.222 76.4126 121.501 85.6917L120.375 87.0881C116.575 77.4419 99.2659 70.591 90.2518 72.2055Z" fill="url(#paint24_radial_616_35465)"/>
<path d="M122.851 18.4615C120.493 29.2238 122.009 102.22 127.4 107.835C121.2 109.332 117.46 107.835 116.787 106.587C123.357 94.8888 116.787 42.0136 121.504 18.4615H122.851Z" fill="url(#paint25_radial_616_35465)"/>
<path d="M122.851 18.4615C120.493 29.2238 122.009 102.22 127.4 107.835C121.2 109.332 117.46 107.835 116.787 106.587C123.357 94.8888 116.787 42.0136 121.504 18.4615H122.851Z" fill="url(#paint26_radial_616_35465)"/>
<path d="M143.957 68.3288C129.192 70.6182 123.065 60.4086 107.82 59.6978C112.69 61.8222 119.145 75.6321 121.764 82.2715C120.979 75.6322 139.817 72.1603 143.957 68.3288Z" fill="url(#paint27_radial_616_35465)"/>
<path d="M143.957 68.3288C129.192 70.6182 123.065 60.4086 107.82 59.6978C112.69 61.8222 119.145 75.6321 121.764 82.2715C120.979 75.6322 139.817 72.1603 143.957 68.3288Z" fill="url(#paint28_radial_616_35465)"/>
<path fill-rule="evenodd" clip-rule="evenodd" d="M122.72 83.545L120.958 84.2306C119.684 79.9216 120.284 67.9986 126.734 66.9634V67.7782C121.185 68.6687 121.034 80.0589 122.72 83.545Z" fill="url(#paint29_radial_616_35465)"/>
<path fill-rule="evenodd" clip-rule="evenodd" d="M122.72 83.545L120.958 84.2306C119.684 79.9216 120.284 67.9986 126.734 66.9634V67.7782C121.185 68.6687 121.034 80.0589 122.72 83.545Z" fill="url(#paint30_radial_616_35465)"/>
<path d="M123.348 70.3241C130.344 76.0041 144.722 70.4008 144.141 68.0717C143.945 67.2883 130.837 67.7012 125.726 64.6048C120.809 61.6263 115.687 58.5231 107.82 59.6979C107.82 59.6979 108.324 61.2927 110.637 62.4162C112.951 63.5398 116.352 64.6442 123.348 70.3241Z" fill="url(#paint31_radial_616_35465)"/>
<path fill-rule="evenodd" clip-rule="evenodd" d="M130.539 105.173C129.577 106.381 126.235 107.272 122.26 107.272C118.284 107.272 114.942 106.381 113.981 105.173C112.747 105.691 112.019 106.329 112.019 107.02C112.019 108.753 116.604 110.157 122.26 110.157C127.915 110.157 132.5 108.753 132.5 107.02C132.5 106.329 131.772 105.691 130.539 105.173Z" fill="url(#paint32_radial_616_35465)"/>
<path d="M131.09 108.609L131.068 108.606C130.373 107.844 128.405 106.537 126.562 106.89C125.298 107.133 123.828 107.271 122.259 107.271C120.468 107.271 118.805 107.09 117.43 106.781C118.274 107.32 118.733 108.403 118.881 109.939C119.254 110.446 121.648 110.157 122.259 110.157C126.021 110.157 129.31 109.535 131.09 108.609Z" fill="url(#paint33_radial_616_35465)"/>
<defs>
<radialGradient id="paint0_radial_616_35465" cx="0" cy="0" r="1" gradientUnits="userSpaceOnUse" gradientTransform="translate(121.297 95.9362) rotate(75.709) scale(24.8323 56.5072)">
<stop stop-color="#FFCDB1"/>
<stop offset="0.429822" stop-color="#D6A387"/>
<stop offset="1" stop-color="#9A7860"/>
</radialGradient>
<radialGradient id="paint1_radial_616_35465" cx="0" cy="0" r="1" gradientUnits="userSpaceOnUse" gradientTransform="translate(175.672 103.768) rotate(156.06) scale(26.6691 13.0318)">
<stop stop-color="#FFC19E"/>
<stop offset="1" stop-color="#FFC19E" stop-opacity="0"/>
</radialGradient>
<radialGradient id="paint2_radial_616_35465" cx="0" cy="0" r="1" gradientUnits="userSpaceOnUse" gradientTransform="translate(205.383 103.34) rotate(148.426) scale(25.5629 12.5267)">
<stop stop-color="#FFC19E"/>
<stop offset="1" stop-color="#FFC19E" stop-opacity="0"/>
</radialGradient>
<radialGradient id="paint3_radial_616_35465" cx="0" cy="0" r="1" gradientUnits="userSpaceOnUse" gradientTransform="translate(80.9129 102.486) rotate(121.937) scale(17.4498 4.77352)">
<stop stop-color="#FFC19E"/>
<stop offset="1" stop-color="#FFC19E" stop-opacity="0"/>
</radialGradient>
<radialGradient id="paint4_radial_616_35465" cx="0" cy="0" r="1" gradientUnits="userSpaceOnUse" gradientTransform="translate(67.3553 104.764) rotate(128.329) scale(14.884 9.34241)">
<stop stop-color="#FFC19E"/>
<stop offset="1" stop-color="#FFC19E" stop-opacity="0"/>
</radialGradient>
<radialGradient id="paint5_radial_616_35465" cx="0" cy="0" r="1" gradientUnits="userSpaceOnUse" gradientTransform="translate(36.4901 110.602) rotate(23.6447) scale(18.1065 11.2328)">
<stop stop-color="#FFC19E"/>
<stop offset="1" stop-color="#FFC19E" stop-opacity="0"/>
</radialGradient>
<radialGradient id="paint6_radial_616_35465" cx="0" cy="0" r="1" gradientUnits="userSpaceOnUse" gradientTransform="translate(122.26 107.901) scale(9.76712 6.47364)">
<stop stop-color="#180E06"/>
<stop offset="1" stop-color="#180E06" stop-opacity="0"/>
</radialGradient>
<radialGradient id="paint7_radial_616_35465" cx="0" cy="0" r="1" gradientUnits="userSpaceOnUse" gradientTransform="translate(120.72 107.12) rotate(20.3574) scale(43.7502 7.07071)">
<stop stop-color="#180E06"/>
<stop offset="0.0001" stop-color="#180E06" stop-opacity="0.6"/>
<stop offset="1" stop-color="#180E06" stop-opacity="0"/>
</radialGradient>
<radialGradient id="paint8_radial_616_35465" cx="0" cy="0" r="1" gradientUnits="userSpaceOnUse" gradientTransform="translate(121.069 17.3122) rotate(90.0004) scale(47.0236 15.9759)">
<stop stop-color="#C0EC9D"/>
<stop offset="0.53125" stop-color="#5B9951"/>
<stop offset="1" stop-color="#045324"/>
</radialGradient>
<radialGradient id="paint9_radial_616_35465" cx="0" cy="0" r="1" gradientUnits="userSpaceOnUse" gradientTransform="translate(121.069 59.5301) rotate(-90) scale(51.4531 5.84332)">
<stop offset="0.255396" stop-color="#045324"/>
<stop offset="1" stop-color="#52A934" stop-opacity="0"/>
</radialGradient>
<radialGradient id="paint10_radial_616_35465" cx="0" cy="0" r="1" gradientUnits="userSpaceOnUse" gradientTransform="translate(148.605 35.117) rotate(128.965) scale(42.328 17.5391)">
<stop stop-color="#C0EC9D"/>
<stop offset="0.53125" stop-color="#5B9951"/>
<stop offset="1" stop-color="#045324"/>
</radialGradient>
<radialGradient id="paint11_radial_616_35465" cx="0" cy="0" r="1" gradientUnits="userSpaceOnUse" gradientTransform="translate(124.214 66.9378) rotate(-51.6669) scale(37.5045 5.09364)">
<stop offset="0.255396" stop-color="#045324"/>
<stop offset="1" stop-color="#52A934" stop-opacity="0"/>
</radialGradient>
<radialGradient id="paint12_radial_616_35465" cx="0" cy="0" r="1" gradientUnits="userSpaceOnUse" gradientTransform="translate(136.8 74.4772) rotate(128.204) scale(27.3879 11.7503)">
<stop stop-color="#C0EC9D"/>
<stop offset="0.53125" stop-color="#5B9951"/>
<stop offset="1" stop-color="#045324"/>
</radialGradient>
<radialGradient id="paint13_radial_616_35465" cx="0" cy="0" r="1" gradientUnits="userSpaceOnUse" gradientTransform="translate(123.747 92.3124) rotate(-48.7357) scale(20.546 4.66076)">
<stop offset="0.255396" stop-color="#045324"/>
<stop offset="1" stop-color="#52A934" stop-opacity="0"/>
</radialGradient>
<radialGradient id="paint14_radial_616_35465" cx="0" cy="0" r="1" gradientUnits="userSpaceOnUse" gradientTransform="translate(99.5199 68.9348) rotate(20.5251) scale(39.0548 16.2273)">
<stop stop-color="#C0EC9D"/>
<stop offset="0.53125" stop-color="#5B9951"/>
<stop offset="1" stop-color="#045324"/>
</radialGradient>
<radialGradient id="paint15_radial_616_35465" cx="0" cy="0" r="1" gradientUnits="userSpaceOnUse" gradientTransform="translate(121.501 84.9704) rotate(-150.415) scale(35.9468 9.37097)">
<stop offset="0.255396" stop-color="#045324"/>
<stop offset="1" stop-color="#52A934" stop-opacity="0"/>
</radialGradient>
<radialGradient id="paint16_radial_616_35465" cx="0" cy="0" r="1" gradientUnits="userSpaceOnUse" gradientTransform="translate(86.8897 31.5272) rotate(41.6272) scale(58.125 18.0877)">
<stop stop-color="#C0EC9D"/>
<stop offset="0.53125" stop-color="#5B9951"/>
<stop offset="1" stop-color="#045324"/>
</radialGradient>
<radialGradient id="paint17_radial_616_35465" cx="0" cy="0" r="1" gradientUnits="userSpaceOnUse" gradientTransform="translate(121.954 65.0372) rotate(-140.882) scale(56.5267 4.43591)">
<stop offset="0.255396" stop-color="#045324"/>
<stop offset="1" stop-color="#52A934" stop-opacity="0"/>
</radialGradient>
<radialGradient id="paint18_radial_616_35465" cx="0" cy="0" r="1" gradientUnits="userSpaceOnUse" gradientTransform="translate(100.103 46.0877) rotate(35.516) scale(25.1393 3.32999)">
<stop stop-color="#C8E2AE"/>
<stop offset="1" stop-color="#53AE5B"/>
</radialGradient>
<radialGradient id="paint19_radial_616_35465" cx="0" cy="0" r="1" gradientUnits="userSpaceOnUse" gradientTransform="translate(87.4165 35.8077) rotate(38.7408) scale(26.6735 3.58611)">
<stop offset="0.317469" stop-color="#C8E2AE"/>
<stop offset="1" stop-color="#53AE5B" stop-opacity="0"/>
</radialGradient>
<radialGradient id="paint20_radial_616_35465" cx="0" cy="0" r="1" gradientUnits="userSpaceOnUse" gradientTransform="translate(97.1843 43.2837) rotate(-141.771) scale(20.2851 2.03924)">
<stop offset="0.426316" stop-color="#C8E2AE"/>
<stop offset="1" stop-color="#C8E2AE" stop-opacity="0"/>
</radialGradient>
<radialGradient id="paint21_radial_616_35465" cx="0" cy="0" r="1" gradientUnits="userSpaceOnUse" gradientTransform="translate(140.616 60.349) rotate(-47.1282) scale(28.5114 10.7015)">
<stop offset="0.843934" stop-color="#53AE5B"/>
<stop offset="1" stop-color="#C8E2AE"/>
</radialGradient>
<radialGradient id="paint22_radial_616_35465" cx="0" cy="0" r="1" gradientUnits="userSpaceOnUse" gradientTransform="translate(144.411 41.8283) rotate(-17.2852) scale(26.1417 1.73763)">
<stop offset="0.426316" stop-color="#C8E2AE"/>
<stop offset="1" stop-color="#C8E2AE" stop-opacity="0"/>
</radialGradient>
<radialGradient id="paint23_radial_616_35465" cx="0" cy="0" r="1" gradientUnits="userSpaceOnUse" gradientTransform="translate(133.312 89.8213) rotate(-53.427) scale(15.3843 6.95385)">
<stop offset="0.779027" stop-color="#53AE5B"/>
<stop offset="1" stop-color="#C8E2AE"/>
</radialGradient>
<radialGradient id="paint24_radial_616_35465" cx="0" cy="0" r="1" gradientUnits="userSpaceOnUse" gradientTransform="translate(105.876 82.6284) rotate(27.8104) scale(21.4334 8.55345)">
<stop offset="0.7999" stop-color="#53AE5B"/>
<stop offset="0.94591" stop-color="#C8E2AE"/>
</radialGradient>
<radialGradient id="paint25_radial_616_35465" cx="0" cy="0" r="1" gradientUnits="userSpaceOnUse" gradientTransform="translate(120.493 63.4616) rotate(90) scale(53.8875 2.35861)">
<stop stop-color="#C8E2AE"/>
<stop offset="1" stop-color="#53AE5B"/>
</radialGradient>
<radialGradient id="paint26_radial_616_35465" cx="0" cy="0" r="1" gradientUnits="userSpaceOnUse" gradientTransform="translate(120.864 22.6442) rotate(92.8718) scale(44.381 4.13175)">
<stop stop-color="#C8E2AE"/>
<stop offset="1" stop-color="#53AE5B" stop-opacity="0"/>
</radialGradient>
<radialGradient id="paint27_radial_616_35465" cx="0" cy="0" r="1" gradientUnits="userSpaceOnUse" gradientTransform="translate(109.877 73.6537) rotate(11.1803) scale(21.9703 8.26449)">
<stop stop-color="#C0EC9D"/>
<stop offset="0.53125" stop-color="#5B9951"/>
<stop offset="1" stop-color="#045324"/>
</radialGradient>
<radialGradient id="paint28_radial_616_35465" cx="0" cy="0" r="1" gradientUnits="userSpaceOnUse" gradientTransform="translate(120.784 82.9571) rotate(-80.4637) scale(24.1306 2.80295)">
<stop stop-color="#045324"/>
<stop offset="1" stop-color="#045324" stop-opacity="0"/>
</radialGradient>
<radialGradient id="paint29_radial_616_35465" cx="0" cy="0" r="1" gradientUnits="userSpaceOnUse" gradientTransform="translate(126.734 78.1589) rotate(-86.5034) scale(12.0679 6.38523)">
<stop offset="0.699497" stop-color="#53AE5B"/>
<stop offset="1" stop-color="#C8E2AE"/>
</radialGradient>
<radialGradient id="paint30_radial_616_35465" cx="0" cy="0" r="1" gradientUnits="userSpaceOnUse" gradientTransform="translate(121.643 84.1081) rotate(-109.339) scale(3.71038 3.11912)">
<stop stop-color="#71BC70"/>
<stop offset="1" stop-color="#71BC70" stop-opacity="0"/>
</radialGradient>
<radialGradient id="paint31_radial_616_35465" cx="0" cy="0" r="1" gradientUnits="userSpaceOnUse" gradientTransform="translate(116.178 58.6214) rotate(19.8214) scale(44.6204 13.362)">
<stop offset="0.225266" stop-color="#C0EC9D"/>
<stop offset="0.805386" stop-color="#5B9951"/>
<stop offset="1" stop-color="#045324"/>
</radialGradient>
<radialGradient id="paint32_radial_616_35465" cx="0" cy="0" r="1" gradientUnits="userSpaceOnUse" gradientTransform="translate(122.26 110.658) scale(10.8646 7.40283)">
<stop stop-color="#F7BE95"/>
<stop offset="1" stop-color="#A57153"/>
</radialGradient>
<radialGradient id="paint33_radial_616_35465" cx="0" cy="0" r="1" gradientUnits="userSpaceOnUse" gradientTransform="translate(121.043 107.116) rotate(22) scale(42.6199 7.33539)">
<stop stop-color="#180E06" stop-opacity="0.4"/>
<stop offset="1" stop-color="#180E06" stop-opacity="0"/>
</radialGradient>
</defs>
</svg>
