<svg viewBox="0 0 240 120" fill="none" xmlns="http://www.w3.org/2000/svg">
<path d="M17.2361 92.8589C13.802 93.6609 7.48004 111.237 4.74835 119.925H239.963V79.4241C231.248 76.0816 212.511 69.63 207.282 70.5627C200.746 71.7287 195.572 65.6657 190.398 65.8989C185.223 66.1321 183.317 62.6342 177.598 64.456C171.879 66.2778 159.623 65.8989 157.989 62.6342C156.355 59.3695 151.998 48.6426 147.913 48.4095C143.828 48.1763 129.394 42.5796 126.398 39.5481C123.402 36.5166 120.134 34.8843 116.594 35.8171C113.054 36.7498 91.8113 54.0061 85.5475 57.504C79.2838 61.0019 74.1093 60.5355 68.9349 64.456C63.7605 68.3765 58.8584 61.7014 55.318 64.456C51.7776 67.2106 48.4557 60.4462 42.2118 64.456C35.9679 68.4658 21.5289 91.8564 17.2361 92.8589Z" fill="url(#paint0_linear_615_33315)"/>
<path d="M17.2361 92.8589C13.802 93.6609 7.48004 111.237 4.74835 119.925H239.963V79.4241C231.248 76.0816 212.511 69.63 207.282 70.5627C200.746 71.7287 195.572 65.6657 190.398 65.8989C185.223 66.1321 183.317 62.6342 177.598 64.456C171.879 66.2778 159.623 65.8989 157.989 62.6342C156.355 59.3695 151.998 48.6426 147.913 48.4095C143.828 48.1763 129.394 42.5796 126.398 39.5481C123.402 36.5166 120.134 34.8843 116.594 35.8171C113.054 36.7498 91.8113 54.0061 85.5475 57.504C79.2838 61.0019 74.1093 60.5355 68.9349 64.456C63.7605 68.3765 58.8584 61.7014 55.318 64.456C51.7776 67.2106 48.4557 60.4462 42.2118 64.456C35.9679 68.4658 21.5289 91.8564 17.2361 92.8589Z" fill="url(#paint1_radial_615_33315)"/>
<path d="M17.2361 92.8589C13.802 93.6609 7.48004 111.237 4.74835 119.925H239.963V79.4241C231.248 76.0816 212.511 69.63 207.282 70.5627C200.746 71.7287 195.572 65.6657 190.398 65.8989C185.223 66.1321 183.317 62.6342 177.598 64.456C171.879 66.2778 159.623 65.8989 157.989 62.6342C156.355 59.3695 151.998 48.6426 147.913 48.4095C143.828 48.1763 129.394 42.5796 126.398 39.5481C123.402 36.5166 120.134 34.8843 116.594 35.8171C113.054 36.7498 91.8113 54.0061 85.5475 57.504C79.2838 61.0019 74.1093 60.5355 68.9349 64.456C63.7605 68.3765 58.8584 61.7014 55.318 64.456C51.7776 67.2106 48.4557 60.4462 42.2118 64.456C35.9679 68.4658 21.5289 91.8564 17.2361 92.8589Z" fill="url(#paint2_radial_615_33315)"/>
<path d="M86.2102 60.5857C88.9779 60.0739 91.4058 59.9913 94.1969 60.2633C97.3858 60.5739 100.775 60.9041 107.001 60.0156C113.404 59.1019 114.492 44.0434 116.76 35.7749C112.768 37.4263 104.705 43.7493 100.252 47.0697C94.3022 51.5068 88.3865 55.9184 85.5475 57.5037C81.722 59.6401 78.3027 60.2977 75.0417 61.3791C79.7375 61.7826 83.3013 61.1236 86.2102 60.5857Z" fill="url(#paint3_linear_615_33315)"/>
<path fill-rule="evenodd" clip-rule="evenodd" d="M161.075 64.5945C134.549 73.285 121.643 102.542 116.766 119.925H157.159C159.936 115.372 164.038 109.977 168.338 107.873C172.425 105.874 173.93 102.602 175.328 99.5648C176.538 96.9347 177.667 94.4808 180.321 93.1821C186.04 90.3838 185.341 83.1409 177.379 76.9543C173.844 74.2074 172.401 71.9832 171.154 70.0607C170.046 68.3518 169.092 66.8813 166.961 65.4938C164.771 65.3845 162.694 65.0892 161.075 64.5945Z" fill="url(#paint4_linear_615_33315)"/>
<path d="M163.239 40.1193C163.421 38.6186 166.884 35.7671 170.53 38.6186C172.352 36.5175 174.174 33.9662 179.642 32.7656C185.11 31.565 192.218 32.4655 195.499 38.6186C195.499 38.6186 196.957 34.5665 204.065 34.7166C211.173 34.8666 213.907 40.1193 213.907 40.1193C215.973 39.3189 220.359 38.4385 221.38 41.3199C222.655 44.9217 215.912 45.9722 212.996 44.6216C207.892 47.0228 200.967 46.2724 197.321 44.6216C196.045 45.8222 190.464 46.8097 188.391 44.6216C186.568 46.4225 176.726 46.5725 173.445 44.6216C171.076 46.1223 165.243 46.4225 164.151 44.6216C161.781 44.7716 160.141 41.1698 163.239 40.1193Z" fill="#AEBBD9"/>
<path d="M163.239 40.1193C163.421 38.6186 166.884 35.7671 170.53 38.6186C172.352 36.5175 174.174 33.9662 179.642 32.7656C185.11 31.565 192.218 32.4655 195.499 38.6186C195.499 38.6186 196.957 34.5665 204.065 34.7166C211.173 34.8666 213.907 40.1193 213.907 40.1193C215.973 39.3189 220.359 38.4385 221.38 41.3199C222.655 44.9217 215.912 45.9722 212.996 44.6216C207.892 47.0228 200.967 46.2724 197.321 44.6216C196.045 45.8222 190.464 46.8097 188.391 44.6216C186.568 46.4225 176.726 46.5725 173.445 44.6216C171.076 46.1223 165.243 46.4225 164.151 44.6216C161.781 44.7716 160.141 41.1698 163.239 40.1193Z" fill="url(#paint5_radial_615_33315)"/>
<path d="M163.239 40.1193C163.421 38.6186 166.884 35.7671 170.53 38.6186C172.352 36.5175 174.174 33.9662 179.642 32.7656C185.11 31.565 192.218 32.4655 195.499 38.6186C195.499 38.6186 196.957 34.5665 204.065 34.7166C211.173 34.8666 213.907 40.1193 213.907 40.1193C215.973 39.3189 220.359 38.4385 221.38 41.3199C222.655 44.9217 215.912 45.9722 212.996 44.6216C207.892 47.0228 200.967 46.2724 197.321 44.6216C196.045 45.8222 190.464 46.8097 188.391 44.6216C186.568 46.4225 176.726 46.5725 173.445 44.6216C171.076 46.1223 165.243 46.4225 164.151 44.6216C161.781 44.7716 160.141 41.1698 163.239 40.1193Z" fill="url(#paint6_radial_615_33315)"/>
<path d="M163.239 40.1193C163.421 38.6186 166.884 35.7671 170.53 38.6186C172.352 36.5175 174.174 33.9662 179.642 32.7656C185.11 31.565 192.218 32.4655 195.499 38.6186C195.499 38.6186 196.957 34.5665 204.065 34.7166C211.173 34.8666 213.907 40.1193 213.907 40.1193C215.973 39.3189 220.359 38.4385 221.38 41.3199C222.655 44.9217 215.912 45.9722 212.996 44.6216C207.892 47.0228 200.967 46.2724 197.321 44.6216C196.045 45.8222 190.464 46.8097 188.391 44.6216C186.568 46.4225 176.726 46.5725 173.445 44.6216C171.076 46.1223 165.243 46.4225 164.151 44.6216C161.781 44.7716 160.141 41.1698 163.239 40.1193Z" fill="url(#paint7_radial_615_33315)"/>
<path d="M163.239 40.1193C163.421 38.6186 166.884 35.7671 170.53 38.6186C172.352 36.5175 174.174 33.9662 179.642 32.7656C185.11 31.565 192.218 32.4655 195.499 38.6186C195.499 38.6186 196.957 34.5665 204.065 34.7166C211.173 34.8666 213.907 40.1193 213.907 40.1193C215.973 39.3189 220.359 38.4385 221.38 41.3199C222.655 44.9217 215.912 45.9722 212.996 44.6216C207.892 47.0228 200.967 46.2724 197.321 44.6216C196.045 45.8222 190.464 46.8097 188.391 44.6216C186.568 46.4225 176.726 46.5725 173.445 44.6216C171.076 46.1223 165.243 46.4225 164.151 44.6216C161.781 44.7716 160.141 41.1698 163.239 40.1193Z" fill="url(#paint8_radial_615_33315)"/>
<path fill-rule="evenodd" clip-rule="evenodd" d="M184.033 88.212C184.616 89.7149 185.168 91.2451 185.682 92.6712C187.035 96.4247 188.129 99.4574 188.84 99.3768C189.869 99.2601 188.164 90.9034 186.615 84.4461C185.247 78.7398 185.763 78.2282 186.524 77.4739C186.554 77.4443 186.585 77.4143 186.615 77.3836C186.674 77.3247 186.73 77.2674 186.785 77.2121C188.304 75.6735 188.355 75.6215 191.239 82.7235C192.557 85.9685 193.906 90.9213 195.027 95.0329C196.112 99.0142 196.982 102.207 197.4 102.297C198.497 102.533 197.857 89.8285 196.478 82.7235C196.144 81.0021 195.531 79.0725 194.973 77.3146C193.999 74.2451 193.191 71.6991 194.322 71.6991C195.258 71.6991 199.116 76.9801 202.028 82.7235C203.429 85.4876 204.057 87.8602 204.483 89.4688C204.854 90.8675 205.071 91.6885 205.511 91.6872C206.379 91.6844 206.166 88.2304 205.936 84.4783C205.636 79.5957 205.305 74.2083 207.283 75.2651C209.195 76.2869 210.445 80.2086 211.504 83.5335C212.382 86.2898 213.129 88.6359 214.016 88.5802C215.971 88.4573 212.512 69.6298 207.283 70.5625C203.645 71.2114 200.429 69.6211 197.4 68.1233C194.987 66.9299 192.692 65.7953 190.398 65.8987C188.209 65.9973 186.605 65.4285 185.05 64.877C182.929 64.1246 180.898 63.4045 177.598 64.4558C174.904 65.3137 170.761 65.6836 166.961 65.4938C169.092 66.8813 170.046 68.3518 171.154 70.0607L171.154 70.0607C172.401 71.9832 173.844 74.2074 177.379 76.9543C182.239 80.7303 184.393 84.8997 184.033 88.212Z" fill="url(#paint9_radial_615_33315)"/>
<path d="M222.67 78.705C226.033 76.1433 229.137 67.061 240 63.8007V119.925H173.785C177.406 111.774 185.424 109.445 189.563 102.459C190.61 100.691 198.874 101.527 203.013 101.294C207.151 101.062 210.514 93.3765 211.548 91.9792C212.583 90.5819 216.204 89.6504 219.825 87.3216C223.446 84.9928 219.308 81.2667 222.67 78.705Z" fill="url(#paint10_linear_615_33315)"/>
<path d="M222.67 78.705C226.033 76.1433 229.137 67.061 240 63.8007V119.925H173.785C177.406 111.774 185.424 109.445 189.563 102.459C190.61 100.691 198.874 101.527 203.013 101.294C207.151 101.062 210.514 93.3765 211.548 91.9792C212.583 90.5819 216.204 89.6504 219.825 87.3216C223.446 84.9928 219.308 81.2667 222.67 78.705Z" fill="url(#paint11_radial_615_33315)"/>
<path fill-rule="evenodd" clip-rule="evenodd" d="M183.533 119.925H173.785C175.762 115.475 179.05 112.76 182.301 110.075C185.005 107.843 187.684 105.631 189.563 102.459C190.308 101.2 194.715 101.262 198.685 101.317C200.289 101.34 201.822 101.361 203.013 101.294C206.332 101.107 209.153 96.1251 210.673 93.44C211.048 92.7779 211.344 92.2555 211.548 91.9791C212.112 91.2173 213.445 90.5939 215.128 89.8069C216.111 89.3472 217.214 88.8316 218.352 88.2C217.838 89.8844 217.639 91.8503 217.444 93.7787C217.069 97.4927 216.707 101.068 214.135 102.226C212.212 103.091 212.319 104.632 212.432 106.274C212.593 108.608 212.769 111.146 207.151 112.24C202.451 113.155 199.248 114.631 196.562 115.87C193.779 117.153 191.551 118.18 188.787 118.062C186.915 117.981 185.105 118.791 183.533 119.925Z" fill="url(#paint12_linear_615_33315)"/>
<path fill-rule="evenodd" clip-rule="evenodd" d="M4.74835 119.925C7.48004 111.237 13.802 93.6605 17.2361 92.8586C19.4363 92.3448 24.3019 85.9497 29.3633 79.2973C34.1771 72.9702 39.1681 66.4103 42.2118 64.4557C45.6819 62.2272 48.2495 63.3265 50.4536 64.2702C52.2155 65.0245 53.7452 65.6794 55.318 64.4557C56.9286 63.2026 58.8211 63.901 60.8927 64.6655C63.3749 65.5816 66.1145 66.5927 68.9349 64.4557C70.491 63.2767 72.0471 62.4944 73.6329 61.8817C72.0016 63.7652 70.5712 66.1828 69.0942 68.6791C65.957 73.9814 62.6095 79.6391 56.6797 81.2893C50.5136 83.0052 49.1671 87.9287 47.9249 92.4709C46.9725 95.9531 46.0815 99.2113 43.1269 100.628C38.727 102.738 33.8114 112.604 30.8881 119.925H4.74835Z" fill="url(#paint13_linear_615_33315)"/>
<path d="M55.1701 26.3739C55.1701 13.0976 72.0867 8.46066 83.5002 20.9435C97.6216 9.94215 112.201 31.7036 98.4911 39.7772H14.8642C15.8484 27.5116 33.2539 24.7202 40.8322 30.0457C39.9863 25.0486 47.3442 20.0245 55.1701 26.3739Z" fill="#AEBBD9"/>
<path d="M55.1701 26.3739C55.1701 13.0976 72.0867 8.46066 83.5002 20.9435C97.6216 9.94215 112.201 31.7036 98.4911 39.7772H14.8642C15.8484 27.5116 33.2539 24.7202 40.8322 30.0457C39.9863 25.0486 47.3442 20.0245 55.1701 26.3739Z" fill="url(#paint14_radial_615_33315)"/>
<path d="M55.1701 26.3739C55.1701 13.0976 72.0867 8.46066 83.5002 20.9435C97.6216 9.94215 112.201 31.7036 98.4911 39.7772H14.8642C15.8484 27.5116 33.2539 24.7202 40.8322 30.0457C39.9863 25.0486 47.3442 20.0245 55.1701 26.3739Z" fill="url(#paint15_radial_615_33315)"/>
<path d="M55.1701 26.3739C55.1701 13.0976 72.0867 8.46066 83.5002 20.9435C97.6216 9.94215 112.201 31.7036 98.4911 39.7772H14.8642C15.8484 27.5116 33.2539 24.7202 40.8322 30.0457C39.9863 25.0486 47.3442 20.0245 55.1701 26.3739Z" fill="url(#paint16_radial_615_33315)"/>
<path d="M55.1701 26.3739C55.1701 13.0976 72.0867 8.46066 83.5002 20.9435C97.6216 9.94215 112.201 31.7036 98.4911 39.7772H14.8642C15.8484 27.5116 33.2539 24.7202 40.8322 30.0457C39.9863 25.0486 47.3442 20.0245 55.1701 26.3739Z" fill="url(#paint17_radial_615_33315)"/>
<path d="M117.275 35.6683C117.275 35.6683 117.944 46.1804 121.951 49.7957C123.657 51.3342 124.164 51.238 125.887 52.7557C128.235 54.8225 133.188 78.6818 134.4 78.3776C135.612 78.0734 131.585 57.1162 134.4 55.7085C137.215 54.3007 141.503 68.1986 142.879 68.0123C144.255 67.826 137.573 49.5473 139.039 48.0116C140.505 46.4759 148.917 60.0882 150.199 60.0882C151.481 60.0882 145.622 48.0116 145.622 48.0116C139.976 46.6456 128.97 42.1512 126.398 39.5481C123.595 36.7121 120.554 35.1006 117.275 35.6683Z" fill="url(#paint18_linear_615_33315)"/>
<path d="M117.275 35.6683C117.275 35.6683 117.944 46.1804 121.951 49.7957C123.657 51.3342 124.164 51.238 125.887 52.7557C128.235 54.8225 133.188 78.6818 134.4 78.3776C135.612 78.0734 131.585 57.1162 134.4 55.7085C137.215 54.3007 141.503 68.1986 142.879 68.0123C144.255 67.826 137.573 49.5473 139.039 48.0116C140.505 46.4759 148.917 60.0882 150.199 60.0882C151.481 60.0882 145.622 48.0116 145.622 48.0116C139.976 46.6456 128.97 42.1512 126.398 39.5481C123.595 36.7121 120.554 35.1006 117.275 35.6683Z" fill="url(#paint19_radial_615_33315)"/>
<path d="M105.992 79.3604C92.1523 68.8144 91.4947 59.7126 91.4947 59.7126C101.522 61.5851 109.176 59.7126 110.491 57.7183C111.436 61.8342 112.146 68.0907 123.039 80.6092C134.456 93.7296 142.932 116.512 140.745 116.466C138.559 116.419 120.794 90.64 105.992 79.3604Z" fill="url(#paint20_linear_615_33315)"/>
<path d="M105.992 79.3604C92.1523 68.8144 91.4947 59.7126 91.4947 59.7126C101.522 61.5851 109.176 59.7126 110.491 57.7183C111.436 61.8342 112.146 68.0907 123.039 80.6092C134.456 93.7296 142.932 116.512 140.745 116.466C138.559 116.419 120.794 90.64 105.992 79.3604Z" fill="url(#paint21_radial_615_33315)"/>
<path d="M17.0435 92.9148C20.6764 91.7201 16.4844 104.229 18.79 104.159C19.4984 104.137 25.2013 88.1478 27.5862 89.1074C29.9711 90.067 25.6042 108.905 27.5862 106.38C29.1354 104.406 35.695 76.873 38.0799 77.1129C40.4648 77.3528 34.5881 100.851 36.3923 98.4631C42.7092 90.1013 43.8037 69.6763 60.8929 64.6657C58.8212 63.9011 56.9287 63.2027 55.3181 64.4558C53.7453 65.6796 52.2156 65.0247 50.4537 64.2703C48.2496 63.3266 45.682 62.2274 42.2119 64.4558C38.4207 66.8906 17.1831 90.7363 17.0435 92.9148Z" fill="url(#paint22_linear_615_33315)"/>
<path fill-rule="evenodd" clip-rule="evenodd" d="M78.7015 65.0778C73.8088 55.2483 86.2367 61.0198 86.2367 61.0198C86.2367 61.0198 89.0013 74.2597 105.104 84.5933C120.822 94.6807 124.185 107.404 124.185 107.404L121.927 108.693C121.927 108.693 117.347 98.0915 102.596 88.491C90.0805 80.3451 83.5942 74.9074 78.7015 65.0778Z" fill="url(#paint23_radial_615_33315)"/>
<path fill-rule="evenodd" clip-rule="evenodd" d="M117.197 39.2719C118.626 48.7976 119.265 51.1722 124.265 53.43C124.265 62.6684 137.176 88.6193 137.176 88.6193L136.093 92.7247C132.761 84.0949 129.603 78.6055 122.766 73.3706C115.929 68.1357 113.77 54.6867 113.77 54.6867L117.197 39.2719Z" fill="url(#paint24_radial_615_33315)"/>
<path fill-rule="evenodd" clip-rule="evenodd" d="M112.83 38.8296L114.738 40.5654C105.981 46.8777 101.748 60.9723 77.1781 65.7824L76.2964 61.2255C99.6067 56.662 102.306 46.4161 112.83 38.8296Z" fill="url(#paint25_radial_615_33315)"/>
<path fill-rule="evenodd" clip-rule="evenodd" d="M72.7289 61.8817L72.9807 62.1444C72.7083 62.259 72.4367 62.3795 72.1658 62.5071L72.7289 61.8817ZM34.704 119.925H30.8879C33.8112 112.604 38.7268 102.738 43.1266 100.628C46.0812 99.2114 46.9723 95.9532 47.9246 92.4709C49.6796 86.054 50.7757 83.062 58.7867 80.4912C63.4429 78.2303 66.349 73.3187 69.0941 68.6791C70.4429 66.3994 71.7529 64.1854 73.2125 62.3838C74.7259 63.9388 76.4561 66.3366 78.4406 69.0868C83.2797 75.7928 89.6306 84.594 98.0356 88.3806C101.348 89.873 104.434 92.1635 107.278 94.9016C108.033 101.437 106.039 108.873 104.48 112.749C100.195 96.634 84.919 90.2631 86.5957 100.007C87.629 106.012 84.1589 114.256 81.006 119.925H79.3503C82.5251 101.872 75.9048 81.4173 73.42 80.723C70.0667 79.7861 66.662 89.2302 66.662 105.254C66.662 110.461 65.6101 115.016 64.8401 118.35C64.7107 118.91 64.5893 119.436 64.4821 119.925H61.2604C59.8348 114.519 60.8907 103.739 61.3248 100.573C62.07 95.1388 58.6513 88.764 56.4157 90.2631C55.6636 90.7674 55.2277 91.9507 54.647 93.5272C53.5018 96.6363 51.7931 101.275 45.9831 105.254C40.474 109.027 36.678 115.443 34.704 119.925Z" fill="url(#paint26_radial_615_33315)"/>
<path fill-rule="evenodd" clip-rule="evenodd" d="M72.7289 61.8817L72.9807 62.1444C72.7083 62.259 72.4367 62.3795 72.1658 62.5071L72.7289 61.8817ZM34.704 119.925H30.8879C33.8112 112.604 38.7268 102.738 43.1266 100.628C46.0812 99.2114 46.9723 95.9532 47.9246 92.4709C49.6796 86.054 50.7757 83.062 58.7867 80.4912C63.4429 78.2303 66.349 73.3187 69.0941 68.6791C70.4429 66.3994 71.7529 64.1854 73.2125 62.3838C74.7259 63.9388 76.4561 66.3366 78.4406 69.0868C83.2797 75.7928 89.6306 84.594 98.0356 88.3806C101.348 89.873 104.434 92.1635 107.278 94.9016C108.033 101.437 106.039 108.873 104.48 112.749C100.195 96.634 84.919 90.2631 86.5957 100.007C87.629 106.012 84.1589 114.256 81.006 119.925H79.3503C82.5251 101.872 75.9048 81.4173 73.42 80.723C70.0667 79.7861 66.662 89.2302 66.662 105.254C66.662 110.461 65.6101 115.016 64.8401 118.35C64.7107 118.91 64.5893 119.436 64.4821 119.925H61.2604C59.8348 114.519 60.8907 103.739 61.3248 100.573C62.07 95.1388 58.6513 88.764 56.4157 90.2631C55.6636 90.7674 55.2277 91.9507 54.647 93.5272C53.5018 96.6363 51.7931 101.275 45.9831 105.254C40.474 109.027 36.678 115.443 34.704 119.925Z" fill="url(#paint27_radial_615_33315)"/>
<defs>
<linearGradient id="paint0_linear_615_33315" x1="122.356" y1="35.5552" x2="134.98" y2="140.471" gradientUnits="userSpaceOnUse">
<stop stop-color="#CDE4FF"/>
<stop offset="1" stop-color="#8F7593"/>
</linearGradient>
<radialGradient id="paint1_radial_615_33315" cx="0" cy="0" r="1" gradientUnits="userSpaceOnUse" gradientTransform="translate(119.918 33.8354) rotate(23.1773) scale(38.9416 18.0602)">
<stop stop-color="#F9F8FB"/>
<stop offset="1" stop-color="#F9F8FB" stop-opacity="0"/>
</radialGradient>
<radialGradient id="paint2_radial_615_33315" cx="0" cy="0" r="1" gradientUnits="userSpaceOnUse" gradientTransform="translate(136.371 38.6928) rotate(25.3014) scale(26.0489 6.8609)">
<stop stop-color="#314A66"/>
<stop offset="1" stop-color="#314A66" stop-opacity="0"/>
</radialGradient>
<linearGradient id="paint3_linear_615_33315" x1="127.626" y1="50.7546" x2="96.0795" y2="64.7707" gradientUnits="userSpaceOnUse">
<stop stop-color="#1E3B5A" stop-opacity="0.6"/>
<stop offset="1" stop-color="#1E3B5A" stop-opacity="0"/>
</linearGradient>
<linearGradient id="paint4_linear_615_33315" x1="192.868" y1="83.8867" x2="139.802" y2="79.4178" gradientUnits="userSpaceOnUse">
<stop stop-color="#471E5A" stop-opacity="0.5"/>
<stop offset="1" stop-color="#1E3B5A" stop-opacity="0"/>
</linearGradient>
<radialGradient id="paint5_radial_615_33315" cx="0" cy="0" r="1" gradientUnits="userSpaceOnUse" gradientTransform="translate(164.309 39.2308) rotate(73.1561) scale(7.2334 8.54717)">
<stop stop-color="#FFDDC0"/>
<stop offset="1" stop-color="#FFA459" stop-opacity="0"/>
</radialGradient>
<radialGradient id="paint6_radial_615_33315" cx="0" cy="0" r="1" gradientUnits="userSpaceOnUse" gradientTransform="translate(180.166 34.8787) rotate(40.188) scale(13.8378 13.6475)">
<stop stop-color="#FFDDC0"/>
<stop offset="1" stop-color="#FFA459" stop-opacity="0"/>
</radialGradient>
<radialGradient id="paint7_radial_615_33315" cx="0" cy="0" r="1" gradientUnits="userSpaceOnUse" gradientTransform="translate(201.764 34.4284) rotate(130.56) scale(10.3709 10.8802)">
<stop stop-color="#FFDDC0"/>
<stop offset="1" stop-color="#FFA459" stop-opacity="0"/>
</radialGradient>
<radialGradient id="paint8_radial_615_33315" cx="0" cy="0" r="1" gradientUnits="userSpaceOnUse" gradientTransform="translate(218.441 38.5555) rotate(135.113) scale(7.9747 4.90754)">
<stop stop-color="#FFDDC0"/>
<stop offset="1" stop-color="#FFA459" stop-opacity="0"/>
</radialGradient>
<radialGradient id="paint9_radial_615_33315" cx="0" cy="0" r="1" gradientUnits="userSpaceOnUse" gradientTransform="translate(172.09 63.928) rotate(57.7612) scale(60.501 56.9415)">
<stop stop-color="#F5D9FF"/>
<stop offset="1" stop-color="#F9F8FB" stop-opacity="0"/>
</radialGradient>
<linearGradient id="paint10_linear_615_33315" x1="206.892" y1="63.8007" x2="216.76" y2="120.531" gradientUnits="userSpaceOnUse">
<stop stop-color="#B3A3A4"/>
<stop offset="1" stop-color="#7C7C70"/>
</linearGradient>
<radialGradient id="paint11_radial_615_33315" cx="0" cy="0" r="1" gradientUnits="userSpaceOnUse" gradientTransform="translate(240 126.077) rotate(-74.7801) scale(57.7402 31.1654)">
<stop stop-color="#F9F8FB" stop-opacity="0.5"/>
<stop offset="1" stop-color="#F9F8FB" stop-opacity="0"/>
</radialGradient>
<linearGradient id="paint12_linear_615_33315" x1="219.988" y1="116.528" x2="190.586" y2="93.6377" gradientUnits="userSpaceOnUse">
<stop stop-color="#323871" stop-opacity="0.5"/>
<stop offset="1" stop-color="#1E3B5A" stop-opacity="0"/>
</linearGradient>
<linearGradient id="paint13_linear_615_33315" x1="106.931" y1="102.449" x2="-13.1306" y2="103.599" gradientUnits="userSpaceOnUse">
<stop stop-color="#B4ACE8"/>
<stop offset="1" stop-color="#1E3B5A" stop-opacity="0"/>
</linearGradient>
<radialGradient id="paint14_radial_615_33315" cx="0" cy="0" r="1" gradientUnits="userSpaceOnUse" gradientTransform="translate(25.4892 31.1153) rotate(157.264) scale(17.016 11.06)">
<stop stop-color="#FFDDC0"/>
<stop offset="1" stop-color="#FFA459" stop-opacity="0"/>
</radialGradient>
<radialGradient id="paint15_radial_615_33315" cx="0" cy="0" r="1" gradientUnits="userSpaceOnUse" gradientTransform="translate(64.051 16.9162) rotate(130.717) scale(24.0582 24.0582)">
<stop stop-color="#FFDDC0"/>
<stop offset="1" stop-color="#FFA459" stop-opacity="0"/>
</radialGradient>
<radialGradient id="paint16_radial_615_33315" cx="0" cy="0" r="1" gradientUnits="userSpaceOnUse" gradientTransform="translate(90.9545 22.2969) rotate(115.436) scale(13.5716 13.5717)">
<stop stop-color="#FFDDC0"/>
<stop offset="1" stop-color="#FFA459" stop-opacity="0"/>
</radialGradient>
<radialGradient id="paint17_radial_615_33315" cx="0" cy="0" r="1" gradientUnits="userSpaceOnUse" gradientTransform="translate(44.6206 28.8068) rotate(50.6617) scale(12.2609 8.63404)">
<stop stop-color="#FFDDC0"/>
<stop offset="1" stop-color="#FFA459" stop-opacity="0"/>
</radialGradient>
<linearGradient id="paint18_linear_615_33315" x1="121.876" y1="59.7365" x2="127.296" y2="40.7602" gradientUnits="userSpaceOnUse">
<stop stop-color="#F7F4F5"/>
<stop offset="1" stop-color="#F7F4F5" stop-opacity="0"/>
</linearGradient>
<radialGradient id="paint19_radial_615_33315" cx="0" cy="0" r="1" gradientUnits="userSpaceOnUse" gradientTransform="translate(116.765 39.8136) rotate(58.4028) scale(38.5616 34.4288)">
<stop stop-color="#F5D9FF"/>
<stop offset="1" stop-color="#F9F8FB" stop-opacity="0"/>
</radialGradient>
<linearGradient id="paint20_linear_615_33315" x1="90.6968" y1="74.3949" x2="120.128" y2="47.2986" gradientUnits="userSpaceOnUse">
<stop stop-color="#F7F4F5"/>
<stop offset="1" stop-color="#F7F4F5" stop-opacity="0"/>
</linearGradient>
<radialGradient id="paint21_radial_615_33315" cx="0" cy="0" r="1" gradientUnits="userSpaceOnUse" gradientTransform="translate(89.7968 65.2291) rotate(50.0238) scale(55.523 54.6888)">
<stop stop-color="#F5D9FF"/>
<stop offset="1" stop-color="#F9F8FB" stop-opacity="0"/>
</radialGradient>
<linearGradient id="paint22_linear_615_33315" x1="44.129" y1="101.215" x2="23.931" y2="79.8152" gradientUnits="userSpaceOnUse">
<stop stop-color="#F7F4F5"/>
<stop offset="1" stop-color="#F7F4F5" stop-opacity="0"/>
</linearGradient>
<radialGradient id="paint23_radial_615_33315" cx="0" cy="0" r="1" gradientUnits="userSpaceOnUse" gradientTransform="translate(106.23 84.3874) rotate(-142.766) scale(26.9012 15.7426)">
<stop stop-color="#F7F4F5"/>
<stop offset="1" stop-color="#F7F4F5" stop-opacity="0"/>
</radialGradient>
<radialGradient id="paint24_radial_615_33315" cx="0" cy="0" r="1" gradientUnits="userSpaceOnUse" gradientTransform="translate(108.932 43.7887) rotate(62.6158) scale(49.3515 16.2779)">
<stop stop-color="#F7F4F5"/>
<stop offset="1" stop-color="#F7F4F5" stop-opacity="0"/>
</radialGradient>
<radialGradient id="paint25_radial_615_33315" cx="0" cy="0" r="1" gradientUnits="userSpaceOnUse" gradientTransform="translate(96.3393 51.8679) rotate(-30.3676) scale(19.181 13.3167)">
<stop stop-color="#F7F4F5" stop-opacity="0.7"/>
<stop offset="1" stop-color="#F7F4F5" stop-opacity="0"/>
</radialGradient>
<radialGradient id="paint26_radial_615_33315" cx="0" cy="0" r="1" gradientUnits="userSpaceOnUse" gradientTransform="translate(72.3766 73.4054) rotate(55.9095) scale(45.7623 39.0097)">
<stop stop-color="#F9F8FB"/>
<stop offset="1" stop-color="#F9F8FB" stop-opacity="0"/>
</radialGradient>
<radialGradient id="paint27_radial_615_33315" cx="0" cy="0" r="1" gradientUnits="userSpaceOnUse" gradientTransform="translate(55.8353 52.702) rotate(55.3984) scale(70.8721 69.2475)">
<stop stop-color="#F5D9FF"/>
<stop offset="1" stop-color="#F9F8FB" stop-opacity="0"/>
</radialGradient>
</defs>
</svg>
