<svg viewBox="0 0 240 120" fill="none" xmlns="http://www.w3.org/2000/svg">
<path d="M99.5192 23.9423L96.0576 22.4279L104.207 18.1731H119.928L126.202 22.6082L123.534 23.9423H99.5192Z" fill="#AA0115"/>
<path d="M104.856 30.5769H120V43.4134H104.856V30.5769Z" fill="#E82C41"/>
<path d="M104.856 19.1827H120V32.0193H104.856V19.1827Z" fill="url(#paint0_linear_7252_695)"/>
<path d="M98.3652 33.0288L104.856 30.5769V43.4134L98.3652 45.8654V33.0288Z" fill="url(#paint1_linear_7252_695)"/>
<path d="M98.3652 21.6347L104.856 19.1827V32.0193L98.3652 34.4712V21.6347Z" fill="url(#paint2_linear_7252_695)"/>
<path d="M98.3652 21.6347L104.856 19.1827V32.0193L98.3652 34.4712V21.6347Z" fill="url(#paint3_linear_7252_695)"/>
<path d="M124.183 33.0288L120 30.5769V43.4134L124.183 45.8654V33.0288Z" fill="url(#paint4_linear_7252_695)"/>
<path d="M124.183 21.2019L120 18.75V32.0192L124.183 34.4712V21.2019Z" fill="url(#paint5_linear_7252_695)"/>
<path d="M124.183 21.2019L120 18.75V32.0192L124.183 34.4712V21.2019Z" fill="url(#paint6_linear_7252_695)"/>
<path d="M112.428 8.46289L120 19.1826H104.856L112.428 8.46289Z" fill="#FE344B"/>
<path d="M112.356 8.4375L126.202 21.274V22.7163L120 19.1826L112.356 8.4375Z" fill="url(#paint7_linear_7252_695)"/>
<path d="M112.428 8.4375L104.932 19.1826L96.0938 22.5V21.0577L112.428 8.4375Z" fill="url(#paint8_linear_7252_695)"/>
<path d="M117.584 25.6007C117.584 28.4874 115.244 30.8276 112.357 30.8276C109.47 30.8276 107.13 28.4874 107.13 25.6007C107.13 22.7139 109.47 20.3738 112.357 20.3738C115.244 20.3738 117.584 22.7139 117.584 25.6007Z" fill="url(#paint9_radial_7252_695)"/>
<path d="M27.9807 109.47C22.044 111.725 17.2115 117.307 15.4326 119.567H202.067C197.596 114.807 180.577 111.778 172.5 111.49C164.423 111.201 159.519 103.557 156.635 102.547C153.75 101.538 142.211 98.2203 134.711 98.653C127.211 99.0857 80.3365 97.4991 74.1345 96.6337C67.9326 95.7683 57.2018 106.194 47.4518 108.461C41.2499 109.903 39.3749 105.144 27.9807 109.47Z" fill="url(#paint10_linear_7252_695)"/>
<path fill-rule="evenodd" clip-rule="evenodd" d="M126.805 35.6552C123.992 35.3635 121.378 33.7505 120.293 31.0369L121.15 30.6941C122.084 33.0286 124.358 34.4734 126.901 34.7371C129.437 35.0001 132.188 34.0782 134.028 31.7344L134.754 32.3043C132.699 34.9224 129.625 35.9476 126.805 35.6552Z" fill="#C8E8FF"/>
<path fill-rule="evenodd" clip-rule="evenodd" d="M126.805 40.8227C123.992 40.531 121.378 38.918 120.293 36.2044L121.15 35.8616C122.084 38.196 124.358 39.6409 126.901 39.9046C129.437 40.1676 132.188 39.2456 134.028 36.9019L134.754 37.4718C132.699 40.0899 129.625 41.1151 126.805 40.8227Z" fill="#C8E8FF"/>
<path fill-rule="evenodd" clip-rule="evenodd" d="M106.598 33.9273C105.07 33.3122 103.776 32.403 103.021 31.1961L103.804 30.7069C104.42 31.6924 105.524 32.4997 106.943 33.071C108.358 33.6403 110.05 33.96 111.788 33.9951C115.289 34.0658 118.827 32.9843 120.646 30.6665L121.372 31.2364C119.297 33.8804 115.407 34.9915 111.769 34.918C109.937 34.8809 108.132 34.5444 106.598 33.9273Z" fill="#C8E8FF"/>
<path fill-rule="evenodd" clip-rule="evenodd" d="M106.598 39.0948C105.07 38.4797 103.776 37.5705 103.021 36.3635L103.804 35.8743C104.42 36.8599 105.524 37.6671 106.943 38.2384C108.358 38.8077 110.05 39.1274 111.788 39.1626C115.289 39.2333 118.827 38.1518 120.646 35.834L121.372 36.4039C119.297 39.0479 115.407 40.1589 111.769 40.0854C109.937 40.0484 108.132 39.7118 106.598 39.0948Z" fill="#C8E8FF"/>
<path d="M119.545 30.9992C119.545 30.1676 120.219 29.4935 121.051 29.4935L-nan -nanL121.051 29.4935C121.882 29.4935 122.556 30.1676 122.556 30.9992V44.4966H119.545V30.9992Z" fill="url(#paint11_linear_7252_695)"/>
<path d="M119.545 30.9992C119.545 30.1676 120.219 29.4935 121.051 29.4935L-nan -nanL121.051 29.4935C121.882 29.4935 122.556 30.1676 122.556 30.9992V44.4966H119.545V30.9992Z" fill="url(#paint12_radial_7252_695)"/>
<path fill-rule="evenodd" clip-rule="evenodd" d="M103.752 31.7188C99.0593 36.7725 92.9724 35.5232 90.5117 34.2678L90.9312 33.4456C93.1821 34.594 98.7683 35.7293 103.076 31.0907L103.752 31.7188Z" fill="#C8E8FF"/>
<path fill-rule="evenodd" clip-rule="evenodd" d="M103.752 36.8864C99.0593 41.9401 92.9724 40.6908 90.5117 39.4354L90.9312 38.6132C93.1821 39.7616 98.7683 40.8969 103.076 36.2583L103.752 36.8864Z" fill="#C8E8FF"/>
<path d="M132.413 32.3333C132.413 31.5017 133.087 30.8276 133.919 30.8276L-nan -nanL133.919 30.8276C134.75 30.8276 135.424 31.5017 135.424 32.3333V45.8307H132.413V32.3333Z" fill="url(#paint13_linear_7252_695)"/>
<path d="M132.413 32.3333C132.413 31.5017 133.087 30.8276 133.919 30.8276L-nan -nanL133.919 30.8276C134.75 30.8276 135.424 31.5017 135.424 32.3333V45.8307H132.413V32.3333Z" fill="url(#paint14_radial_7252_695)"/>
<path d="M89.1323 32.9102C89.1323 32.0786 89.8064 31.4045 90.638 31.4045L-nan -nanL90.638 31.4045C91.4695 31.4045 92.1436 32.0786 92.1436 32.9102V46.4076H89.1323V32.9102Z" fill="url(#paint15_linear_7252_695)"/>
<path d="M89.1323 32.9102C89.1323 32.0786 89.8064 31.4045 90.638 31.4045L-nan -nanL90.638 31.4045C91.4695 31.4045 92.1436 32.0786 92.1436 32.9102V46.4076H89.1323V32.9102Z" fill="url(#paint16_radial_7252_695)"/>
<path d="M102.154 30.6026C102.154 29.771 102.828 29.0969 103.659 29.0969L-nan -nanL103.659 29.0969C104.491 29.0969 105.165 29.771 105.165 30.6026V44.1H102.154V30.6026Z" fill="url(#paint17_linear_7252_695)"/>
<path d="M102.154 30.6026C102.154 29.771 102.828 29.0969 103.659 29.0969L-nan -nanL103.659 29.0969C104.491 29.0969 105.165 29.771 105.165 30.6026V44.1H102.154V30.6026Z" fill="url(#paint18_radial_7252_695)"/>
<path d="M136.819 107.885C136.819 107.885 121.891 48.1731 136.819 45.2884L121.515 42.7644C119.015 43.6298 114.145 47.7692 114.376 54.2308C114.606 60.6923 116.106 111.346 116.106 111.346L136.819 107.885Z" fill="url(#paint19_linear_7252_695)"/>
<path d="M87.981 107.166C87.981 107.166 102.692 49.0385 87.981 46.1539L102.26 42.8365H121.731C117.584 45.1082 115.039 48.096 114.808 54.5576C114.577 61.0191 116.394 111.384 116.394 111.384L87.981 107.166Z" fill="url(#paint20_linear_7252_695)"/>
<path d="M83.627 91.0935H94.3119V113.077L83.627 111.058V91.0935Z" fill="#B1DFFF"/>
<path d="M94.3135 92.4519L102.546 87.9684V109.904L94.3135 113.077V92.4519Z" fill="url(#paint21_linear_7252_695)"/>
<path d="M95.1606 93.8647L100.846 90.7684L100.846 110.829L95.1609 112.615L95.1606 93.8647Z" fill="url(#paint22_linear_7252_695)"/>
<path d="M91.7311 87.1154L102.155 88.3216L93.0292 93.4615L81.2178 91.3183L91.7311 87.1154Z" fill="#D7EFFF"/>
<path d="M121.73 55.4564C119.53 56.8266 120.604 59.1657 120.796 60.5119H126.89C127.371 60.5119 128.873 57.988 127.9 56.3293C126.926 54.6707 123.93 54.0862 121.73 55.4564Z" fill="#84A6FF"/>
<path d="M120.479 54.4352C118.279 55.8055 119.061 58.7501 119.253 60.0963L126.573 59.6635C127.054 59.6635 128.556 57.1395 127.583 55.4809C126.609 53.8222 122.679 53.065 120.479 54.4352Z" fill="url(#paint23_radial_7252_695)"/>
<path d="M120.045 60.0858C120.045 55.3851 126.319 54.9805 126.319 59.6811V68.7782L120.045 69.1829V60.0858Z" fill="url(#paint24_linear_7252_695)"/>
<path d="M120.045 60.0858C120.045 55.3851 126.319 54.9805 126.319 59.6811V68.7782L120.045 69.1829V60.0858Z" fill="url(#paint25_linear_7252_695)"/>
<path d="M84.2303 111.093C77.4959 110.465 73.4132 116.9 70.2202 119.568H165.721C158.996 116.115 144.066 108.864 138.145 107.483C130.743 105.757 123.341 110.465 116.954 111.093C110.568 111.72 107.521 109.523 102.731 109.209C97.9415 108.895 92.6483 111.877 84.2303 111.093Z" fill="url(#paint26_linear_7252_695)"/>
<path d="M88.2085 44.3126L102.319 40.9592V42.9464L88.2085 46.2997V44.3126Z" fill="#DCECFF"/>
<path d="M136.819 43.4294L121.735 41.0134V43.0006L136.819 45.4165V43.4294Z" fill="url(#paint27_linear_7252_695)"/>
<path d="M121.801 40.9937H102.318V42.9808H121.801V40.9937Z" fill="#BFE1FF"/>
<path d="M121.801 40.9937H102.318V42.9808H121.801V40.9937Z" fill="url(#paint28_linear_7252_695)"/>
<defs>
<linearGradient id="paint0_linear_7252_695" x1="116.393" y1="19.1827" x2="104.135" y2="33.4616" gradientUnits="userSpaceOnUse">
<stop stop-color="#6FE8F5"/>
<stop offset="1" stop-color="#8CD0FF"/>
</linearGradient>
<linearGradient id="paint1_linear_7252_695" x1="120.577" y1="25.0961" x2="103.106" y2="50.8736" gradientUnits="userSpaceOnUse">
<stop stop-color="#8B1321"/>
<stop offset="1" stop-color="#CA2134"/>
</linearGradient>
<linearGradient id="paint2_linear_7252_695" x1="101.61" y1="19.1827" x2="92.771" y2="36.2094" gradientUnits="userSpaceOnUse">
<stop stop-color="#26CFE8"/>
<stop offset="1" stop-color="#66C0FF"/>
</linearGradient>
<linearGradient id="paint3_linear_7252_695" x1="95.4806" y1="20.9135" x2="106.442" y2="17.7404" gradientUnits="userSpaceOnUse">
<stop stop-color="white" stop-opacity="0"/>
<stop offset="1" stop-color="white"/>
</linearGradient>
<linearGradient id="paint4_linear_7252_695" x1="120" y1="31.7308" x2="128.221" y2="43.4134" gradientUnits="userSpaceOnUse">
<stop stop-color="#8B1321"/>
<stop offset="1" stop-color="#CA2134"/>
</linearGradient>
<linearGradient id="paint5_linear_7252_695" x1="122.091" y1="19.1827" x2="126.202" y2="37.2115" gradientUnits="userSpaceOnUse">
<stop stop-color="#26CFE8"/>
<stop offset="1" stop-color="#66C0FF"/>
</linearGradient>
<linearGradient id="paint6_linear_7252_695" x1="130.529" y1="23.6538" x2="117.821" y2="18.5772" gradientUnits="userSpaceOnUse">
<stop stop-color="white" stop-opacity="0"/>
<stop offset="1" stop-color="white"/>
</linearGradient>
<linearGradient id="paint7_linear_7252_695" x1="110.192" y1="8.4375" x2="130.673" y2="21.6346" gradientUnits="userSpaceOnUse">
<stop stop-color="#B8051A"/>
<stop offset="1" stop-color="#F4162F"/>
</linearGradient>
<linearGradient id="paint8_linear_7252_695" x1="81.3462" y1="-6.77885" x2="112.197" y2="26.5336" gradientUnits="userSpaceOnUse">
<stop stop-color="#B8051A"/>
<stop offset="1" stop-color="#F4162F"/>
</linearGradient>
<radialGradient id="paint9_radial_7252_695" cx="0" cy="0" r="1" gradientUnits="userSpaceOnUse" gradientTransform="translate(112.357 25.6007) rotate(90) scale(5.2269)">
<stop offset="0.03" stop-color="#C8F5B7"/>
<stop offset="0.505" stop-color="#52D17C"/>
<stop offset="1" stop-color="#2A6B40"/>
</radialGradient>
<linearGradient id="paint10_linear_7252_695" x1="-2.44855" y1="96.5828" x2="-0.909753" y2="154.668" gradientUnits="userSpaceOnUse">
<stop stop-color="#FFDAC2"/>
<stop offset="1" stop-color="#763800"/>
</linearGradient>
<linearGradient id="paint11_linear_7252_695" x1="119.545" y1="36.3241" x2="123.217" y2="36.3241" gradientUnits="userSpaceOnUse">
<stop offset="0.32" stop-color="#ABDDFF"/>
<stop offset="1" stop-color="#9A9AFF"/>
</linearGradient>
<radialGradient id="paint12_radial_7252_695" cx="0" cy="0" r="1" gradientUnits="userSpaceOnUse" gradientTransform="translate(120.794 44.4966) rotate(-90) scale(18.7856 1.76272)">
<stop stop-color="#FDFEFF"/>
<stop offset="1" stop-color="#D2ECFF" stop-opacity="0"/>
</radialGradient>
<linearGradient id="paint13_linear_7252_695" x1="132.413" y1="37.6582" x2="136.085" y2="37.6582" gradientUnits="userSpaceOnUse">
<stop offset="0.32" stop-color="#B0DFFF"/>
<stop offset="1" stop-color="#9F9FFF"/>
</linearGradient>
<radialGradient id="paint14_radial_7252_695" cx="0" cy="0" r="1" gradientUnits="userSpaceOnUse" gradientTransform="translate(133.662 45.8307) rotate(-90) scale(18.7856 1.76272)">
<stop stop-color="white"/>
<stop offset="1" stop-color="#D7EFFF" stop-opacity="0"/>
</radialGradient>
<linearGradient id="paint15_linear_7252_695" x1="89.1323" y1="38.2351" x2="92.8047" y2="38.2351" gradientUnits="userSpaceOnUse">
<stop offset="0.32" stop-color="#B0DFFF"/>
<stop offset="1" stop-color="#9F9FFF"/>
</linearGradient>
<radialGradient id="paint16_radial_7252_695" cx="0" cy="0" r="1" gradientUnits="userSpaceOnUse" gradientTransform="translate(90.3809 46.4076) rotate(-90) scale(18.7856 1.76272)">
<stop stop-color="white"/>
<stop offset="1" stop-color="#D7EFFF" stop-opacity="0"/>
</radialGradient>
<linearGradient id="paint17_linear_7252_695" x1="102.154" y1="35.9275" x2="105.826" y2="35.9275" gradientUnits="userSpaceOnUse">
<stop offset="0.32" stop-color="#B0DFFF"/>
<stop offset="1" stop-color="#9F9FFF"/>
</linearGradient>
<radialGradient id="paint18_radial_7252_695" cx="0" cy="0" r="1" gradientUnits="userSpaceOnUse" gradientTransform="translate(103.402 44.1) rotate(-90) scale(18.7856 1.76272)">
<stop stop-color="white"/>
<stop offset="1" stop-color="#D7EFFF" stop-opacity="0"/>
</radialGradient>
<linearGradient id="paint19_linear_7252_695" x1="141.635" y1="61.2981" x2="86.6834" y2="120.144" gradientUnits="userSpaceOnUse">
<stop stop-color="#B0DFFF"/>
<stop offset="1" stop-color="#9F9FFF"/>
</linearGradient>
<linearGradient id="paint20_linear_7252_695" x1="93.3175" y1="75.5769" x2="116.25" y2="75.5769" gradientUnits="userSpaceOnUse">
<stop offset="0.383648" stop-color="#C6E0FF"/>
<stop offset="0.540881" stop-color="#E3F2FF"/>
</linearGradient>
<linearGradient id="paint21_linear_7252_695" x1="116.54" y1="88.9904" x2="88.1262" y2="119.279" gradientUnits="userSpaceOnUse">
<stop stop-color="#B0DFFF"/>
<stop offset="1" stop-color="#9F9FFF"/>
</linearGradient>
<linearGradient id="paint22_linear_7252_695" x1="93.6048" y1="92.7406" x2="113.22" y2="98.5099" gradientUnits="userSpaceOnUse">
<stop stop-color="#1E1868"/>
<stop offset="0.74" stop-color="#1E1868" stop-opacity="0"/>
</linearGradient>
<radialGradient id="paint23_radial_7252_695" cx="0" cy="0" r="1" gradientUnits="userSpaceOnUse" gradientTransform="translate(123.433 59.1346) rotate(90) scale(4.25481 4.00641)">
<stop offset="0.627119" stop-color="#35518D"/>
<stop offset="1" stop-color="#D5EEFF"/>
</radialGradient>
<linearGradient id="paint24_linear_7252_695" x1="116.97" y1="58.125" x2="131.104" y2="67.7885" gradientUnits="userSpaceOnUse">
<stop stop-color="#0A1852"/>
<stop offset="0.655" stop-color="#88BDFF"/>
</linearGradient>
<linearGradient id="paint25_linear_7252_695" x1="121.585" y1="62.7672" x2="126.319" y2="62.7672" gradientUnits="userSpaceOnUse">
<stop offset="0.609379" stop-color="#B3E0FF" stop-opacity="0"/>
<stop offset="0.82" stop-color="#D1ECFF"/>
</linearGradient>
<linearGradient id="paint26_linear_7252_695" x1="61.0705" y1="107.105" x2="61.9546" y2="138.598" gradientUnits="userSpaceOnUse">
<stop stop-color="#FFDAC2"/>
<stop offset="1" stop-color="#763800"/>
</linearGradient>
<linearGradient id="paint27_linear_7252_695" x1="140.055" y1="42.1244" x2="139.398" y2="49.3105" gradientUnits="userSpaceOnUse">
<stop stop-color="#B0DFFF"/>
<stop offset="1" stop-color="#9F9FFF"/>
</linearGradient>
<linearGradient id="paint28_linear_7252_695" x1="110.769" y1="48.1731" x2="122.452" y2="33.3173" gradientUnits="userSpaceOnUse">
<stop stop-color="white" stop-opacity="0"/>
<stop offset="1" stop-color="white"/>
</linearGradient>
</defs>
</svg>
