<svg viewBox="0 0 240 120" fill="none" xmlns="http://www.w3.org/2000/svg">
<path d="M92.013 73.037C91.835 76.5072 92.7868 90.9746 95.3493 95.9929C98.1261 101.431 102.909 113.288 103.524 120H134.245C136.26 112.776 140.057 100.969 143.531 95.9929C147.482 90.3339 147.579 79.4435 147.135 73.037H92.013Z" fill="url(#paint0_linear_7870_28450)"/>
<path d="M92.013 73.037C91.835 76.5072 92.7868 90.9746 95.3493 95.9929C98.1261 101.431 102.909 113.288 103.524 120H134.245C136.26 112.776 140.057 100.969 143.531 95.9929C147.482 90.3339 147.579 79.4435 147.135 73.037H92.013Z" fill="url(#paint1_radial_7870_28450)"/>
<path d="M92.013 73.037C91.835 76.5072 92.7868 90.9746 95.3493 95.9929C98.1261 101.431 102.909 113.288 103.524 120H134.245C136.26 112.776 140.057 100.969 143.531 95.9929C147.482 90.3339 147.579 79.4435 147.135 73.037H92.013Z" fill="url(#paint2_radial_7870_28450)"/>
<path d="M95.0836 79.8429C91.3465 79.9764 81.0696 86.7832 78.4002 100.13L77.5994 103.867C72.9726 104.579 63.7188 107.684 63.7188 114.411C61.4192 114.484 57.2509 115.767 55.8872 119.999H120.209C115.177 118.192 109.418 114.86 104.694 109.072C94.0164 95.9924 93.7484 88.6517 95.0836 79.8429Z" fill="url(#paint3_linear_7870_28450)"/>
<path d="M95.0836 79.8429C91.3465 79.9764 81.0696 86.7832 78.4002 100.13L77.5994 103.867C72.9726 104.579 63.7188 107.684 63.7188 114.411C61.4192 114.484 57.2509 115.767 55.8872 119.999H120.209C115.177 118.192 109.418 114.86 104.694 109.072C94.0164 95.9924 93.7484 88.6517 95.0836 79.8429Z" fill="url(#paint4_radial_7870_28450)"/>
<path d="M104.694 109.072C105.834 110.468 107.034 111.722 108.27 112.845C108.252 114.695 107.529 115.796 105.895 115.478C103.525 115.018 101.674 111.698 99.6862 108.132C97.6446 104.47 95.4582 100.548 92.4152 99.1955C89.0327 97.6922 89.6718 99.0251 90.7564 101.287C91.5976 103.042 92.7067 105.355 92.4152 107.337C92.1169 109.366 91.5784 108.567 90.5972 107.111C89.3836 105.31 87.4926 102.504 84.5407 102.799C80.2971 103.223 78.8363 112.755 79.0859 119.999H72.5131C72.2516 119.492 72.03 119.002 71.8613 118.548C70.8597 115.852 70.7476 111.109 70.6521 107.068C70.6435 106.702 70.635 106.342 70.626 105.99C73.095 104.836 75.7267 104.155 77.6 103.867L78.4008 100.13C81.0702 86.7831 91.3471 79.9762 95.0842 79.8428C93.749 88.6516 94.0171 95.9923 104.694 109.072Z" fill="url(#paint5_linear_7870_28450)"/>
<path d="M55.8872 119.999H65.786C64.82 117.181 64.4316 114.197 64.5037 111.188C64.0058 112.154 63.7189 113.226 63.7189 114.411C61.4193 114.484 57.2508 115.767 55.8872 119.999Z" fill="url(#paint6_linear_7870_28450)"/>
<path d="M76.5322 51.2815C78.8812 50.9611 81.8709 52.7496 83.0721 53.6839C83.0721 59.4495 85.8304 67.8314 87.2095 71.3017C88.6332 73.882 90.4661 79.0161 86.4087 78.9093C81.337 78.7758 77.4665 68.2319 74.1298 61.5586C70.7931 54.8852 73.5959 51.6819 76.5322 51.2815Z" fill="url(#paint7_radial_7870_28450)"/>
<path d="M153.276 49.2798H151.675C150.936 56.0788 150.306 63.0114 148.337 69.5666C148.337 69.5666 146.469 73.1705 148.338 74.6385C154.057 79.1321 161.36 60.3412 161.818 58.2221C162.886 53.2839 161.818 49.2798 158.748 47.2778C155.678 45.2757 153.276 49.2798 153.276 49.2798Z" fill="url(#paint8_radial_7870_28450)"/>
<path d="M151.408 27.9248C150.34 18.849 131.654 5.76923 115.371 5.76923C104.961 5.76909 85.2083 15.6459 82.2716 27.9248C76.7867 50.8579 86.7815 72.7993 92.1482 84.2478C96.9056 94.3967 111.367 104.001 120.443 104.001C129.519 104.001 137.527 97.3276 145.268 84.2478C153.009 71.1681 152.475 37.0005 151.408 27.9248Z" fill="url(#paint9_linear_7870_28450)"/>
<path d="M151.408 27.9248C150.34 18.849 131.654 5.76923 115.371 5.76923C104.961 5.76909 85.2083 15.6459 82.2716 27.9248C76.7867 50.8579 86.7815 72.7993 92.1482 84.2478C96.9056 94.3967 111.367 104.001 120.443 104.001C129.519 104.001 137.527 97.3276 145.268 84.2478C153.009 71.1681 152.475 37.0005 151.408 27.9248Z" fill="url(#paint10_radial_7870_28450)"/>
<path d="M151.408 27.9248C150.34 18.849 131.654 5.76923 115.371 5.76923C104.961 5.76909 85.2083 15.6459 82.2716 27.9248C76.7867 50.8579 86.7815 72.7993 92.1482 84.2478C96.9056 94.3967 111.367 104.001 120.443 104.001C129.519 104.001 137.527 97.3276 145.268 84.2478C153.009 71.1681 152.475 37.0005 151.408 27.9248Z" fill="url(#paint11_radial_7870_28450)"/>
<path d="M151.408 27.9248C150.34 18.849 131.654 5.76923 115.371 5.76923C104.961 5.76909 85.2083 15.6459 82.2716 27.9248C76.7867 50.8579 86.7815 72.7993 92.1482 84.2478C96.9056 94.3967 111.367 104.001 120.443 104.001C129.519 104.001 137.527 97.3276 145.268 84.2478C153.009 71.1681 152.475 37.0005 151.408 27.9248Z" fill="url(#paint12_radial_7870_28450)"/>
<path d="M151.408 27.9248C150.34 18.849 131.654 5.76923 115.371 5.76923C104.961 5.76909 85.2083 15.6459 82.2716 27.9248C76.7867 50.8579 86.7815 72.7993 92.1482 84.2478C96.9056 94.3967 111.367 104.001 120.443 104.001C129.519 104.001 137.527 97.3276 145.268 84.2478C153.009 71.1681 152.475 37.0005 151.408 27.9248Z" fill="url(#paint13_radial_7870_28450)"/>
<path d="M151.408 27.9248C150.34 18.849 131.654 5.76923 115.371 5.76923C104.961 5.76909 85.2083 15.6459 82.2716 27.9248C76.7867 50.8579 86.7815 72.7993 92.1482 84.2478C96.9056 94.3967 111.367 104.001 120.443 104.001C129.519 104.001 137.527 97.3276 145.268 84.2478C153.009 71.1681 152.475 37.0005 151.408 27.9248Z" fill="url(#paint14_radial_7870_28450)"/>
<path d="M151.408 27.9248C150.34 18.849 131.654 5.76923 115.371 5.76923C104.961 5.76909 85.2083 15.6459 82.2716 27.9248C76.7867 50.8579 86.7815 72.7993 92.1482 84.2478C96.9056 94.3967 111.367 104.001 120.443 104.001C129.519 104.001 137.527 97.3276 145.268 84.2478C153.009 71.1681 152.475 37.0005 151.408 27.9248Z" fill="url(#paint15_radial_7870_28450)"/>
<path d="M151.408 27.9248C150.34 18.849 131.654 5.76923 115.371 5.76923C104.961 5.76909 85.2083 15.6459 82.2716 27.9248C76.7867 50.8579 86.7815 72.7993 92.1482 84.2478C96.9056 94.3967 111.367 104.001 120.443 104.001C129.519 104.001 137.527 97.3276 145.268 84.2478C153.009 71.1681 152.475 37.0005 151.408 27.9248Z" fill="url(#paint16_radial_7870_28450)"/>
<path d="M151.408 27.9248C150.34 18.849 131.654 5.76923 115.371 5.76923C104.961 5.76909 85.2083 15.6459 82.2716 27.9248C76.7867 50.8579 86.7815 72.7993 92.1482 84.2478C96.9056 94.3967 111.367 104.001 120.443 104.001C129.519 104.001 137.527 97.3276 145.268 84.2478C153.009 71.1681 152.475 37.0005 151.408 27.9248Z" fill="url(#paint17_radial_7870_28450)"/>
<path d="M151.164 52.4831C150.979 48.0456 150.768 42.9647 143.751 40.2978C148.846 33.173 152.43 25.1733 141.058 16.644C131.33 9.34804 124.904 13.9904 115.371 15C105.577 14.2788 98.694 11.5383 92.3076 16.644C82.9941 25.6982 82.6968 32.4519 86.8268 42.1153C85.5739 43.5893 81.8124 50.8134 82.6968 58.242C82.6335 58.0805 82.5717 57.9156 82.5113 57.7476C80.4866 48.611 79.7733 38.3708 82.2716 27.9248C85.2083 15.6459 104.961 5.76909 115.371 5.76923C131.654 5.76923 150.34 18.849 151.407 27.9248C151.951 32.5443 152.356 43.6645 151.602 55.1957C151.537 55.3611 151.468 55.4916 151.395 55.5863C151.253 54.6206 151.209 53.5712 151.164 52.4831Z" fill="url(#paint18_radial_7870_28450)"/>
<path d="M151.164 52.4831C150.979 48.0456 150.768 42.9647 143.751 40.2978C148.846 33.173 152.43 25.1733 141.058 16.644C131.33 9.34804 124.904 13.9904 115.371 15C105.577 14.2788 98.694 11.5383 92.3076 16.644C82.9941 25.6982 82.6968 32.4519 86.8268 42.1153C85.5739 43.5893 81.8124 50.8134 82.6968 58.242C82.6335 58.0805 82.5717 57.9156 82.5113 57.7476C80.4866 48.611 79.7733 38.3708 82.2716 27.9248C85.2083 15.6459 104.961 5.76909 115.371 5.76923C131.654 5.76923 150.34 18.849 151.407 27.9248C151.951 32.5443 152.356 43.6645 151.602 55.1957C151.537 55.3611 151.468 55.4916 151.395 55.5863C151.253 54.6206 151.209 53.5712 151.164 52.4831Z" fill="url(#paint19_radial_7870_28450)"/>
<path d="M100.745 47.3798C107.091 47.3798 112.284 51.4182 113.149 53.149C114.014 54.8798 114.519 60.2163 114.519 60.2163C111.394 61.2259 105.375 64.1258 99.8369 63.0874C94.2985 62.0489 91.4903 55.5288 91.1538 52.6442C92.1153 51.0576 94.399 47.3798 100.745 47.3798Z" fill="url(#paint20_radial_7870_28450)"/>
<path d="M135.671 46.7702C129.325 46.7702 125.12 49.6875 124.255 51.4182C123.39 53.149 123.822 56.6826 123.822 56.6826C125.914 61.1538 131.04 63.5162 136.579 62.4778C142.117 61.4393 144.832 55.4567 145.168 52.5721C144.207 50.9855 142.017 46.7702 135.671 46.7702Z" fill="url(#paint21_radial_7870_28450)"/>
<path d="M111.634 46.7276C105.432 40.8169 91.5857 42.9779 87.9064 50.4187C87.0489 52.153 85.8197 51.358 85.4492 49.8043C82.0674 35.625 91.8261 29.2096 100.672 27.981C109.518 26.7524 117.428 52.2497 111.634 46.7276Z" fill="url(#paint22_radial_7870_28450)"/>
<path d="M123.317 47.7619C128.001 41.5996 139.038 40.2384 146.971 48.7168C148.293 50.1296 149.169 49.3514 149.316 47.761C149.794 42.5906 146.971 42.6915 143.798 39.6632C149.316 31.442 142.296 27.8394 133.847 27.8395C124.916 27.8396 121.656 33.6669 123.317 47.7619Z" fill="url(#paint23_radial_7870_28450)"/>
<path d="M139.929 81.1779C139.729 78.1082 133.923 75.3721 130.853 73.2366C130.184 72.7738 127.933 71.5384 127.144 71.1973C128.212 72.9324 130.853 76.7975 134.457 78.5753C138.981 80.8072 138.617 84.0474 138.394 85.9827C139.062 84.7148 140.129 84.2476 139.929 81.1779Z" fill="url(#paint24_radial_7870_28450)"/>
<path d="M99.2294 80.3108C99.4296 77.241 104.094 75.044 107.164 72.9086C107.833 72.4458 112 70.2208 112.789 69.8797C111.721 71.6148 110.077 74.55 105.072 77.0191C101.795 78.6359 100.523 82.4396 100.745 84.3749C100.078 83.107 99.0292 83.3805 99.2294 80.3108Z" fill="url(#paint25_radial_7870_28450)"/>
<path d="M118.709 87.1842C115.105 87.5846 111.902 85.983 111.768 85.7161C110.295 85.0115 106.483 84.9777 104.428 85.0487C105.65 85.7161 106.83 86.183 109.099 87.6512C111.368 89.1193 115.305 90.1203 119.376 90.1203C124.515 90.1203 126.105 88.6279 128.318 87.1842C129.853 86.1829 131.468 85.0487 132.658 83.9059C131.143 83.6894 129.651 83.1587 128.583 83.9062C127.248 84.8404 122.312 86.7838 118.709 87.1842Z" fill="url(#paint26_radial_7870_28450)"/>
<path d="M116.038 84.2471C114.837 83.78 106.875 83.7619 104.423 85.1682C108.642 84.7715 114.37 87.5175 118.975 87.5175C123.627 87.5175 128.473 84.2471 132.656 83.9422C129.186 81.9408 122.445 83.3796 120.843 84.2471C119.242 85.1146 117.24 84.7143 116.038 84.2471Z" fill="url(#paint27_radial_7870_28450)"/>
<path d="M118.557 77.3076C130.036 77.8814 133.124 79.3941 133.557 81.2354C133.99 83.0768 133.198 83.765 132.114 83.5455C127.337 82.5782 124.291 84.7715 118.738 84.7354C113.185 84.6994 110.373 83.2571 105.469 84.447C104.593 84.6595 103.089 83.679 103.089 82.0311C103.089 80.3832 107.235 77.3076 118.557 77.3076Z" fill="url(#paint28_radial_7870_28450)"/>
<path d="M118.174 82.1123C121.777 82.1123 122.979 79.5765 124.847 78.6422C126.182 76.7737 129.919 78.1083 129.919 74.7716C129.919 71.435 122.578 69.6999 122.578 62.3592C122.578 58.1083 122.173 55.8204 122.885 54.6637C120.108 51.7808 116.283 52.2612 114.014 54.6638C115.349 56.5323 114.837 59.4876 114.837 62.3592C114.837 69.8334 107.63 72.3692 107.63 74.7716C107.63 77.5744 109.504 77.1294 111.233 78.6422C113.753 80.8463 114.837 82.1123 118.174 82.1123Z" fill="url(#paint29_radial_7870_28450)"/>
<path d="M118.174 82.1123C121.777 82.1123 122.979 79.5765 124.847 78.6422C126.182 76.7737 129.919 78.1083 129.919 74.7716C129.919 71.435 122.578 69.6999 122.578 62.3592C122.578 58.1083 122.173 55.8204 122.885 54.6637C120.108 51.7808 116.283 52.2612 114.014 54.6638C115.349 56.5323 114.837 59.4876 114.837 62.3592C114.837 69.8334 107.63 72.3692 107.63 74.7716C107.63 77.5744 109.504 77.1294 111.233 78.6422C113.753 80.8463 114.837 82.1123 118.174 82.1123Z" fill="url(#paint30_linear_7870_28450)"/>
<path d="M118.174 82.1123C121.777 82.1123 122.979 79.5765 124.847 78.6422C126.182 76.7737 129.919 78.1083 129.919 74.7716C129.919 71.435 122.578 69.6999 122.578 62.3592C122.578 58.1083 122.173 55.8204 122.885 54.6637C120.108 51.7808 116.283 52.2612 114.014 54.6638C115.349 56.5323 114.837 59.4876 114.837 62.3592C114.837 69.8334 107.63 72.3692 107.63 74.7716C107.63 77.5744 109.504 77.1294 111.233 78.6422C113.753 80.8463 114.837 82.1123 118.174 82.1123Z" fill="url(#paint31_radial_7870_28450)"/>
<path d="M118.174 82.1123C121.777 82.1123 122.979 79.5765 124.847 78.6422C126.182 76.7737 129.919 78.1083 129.919 74.7716C129.919 71.435 122.578 69.6999 122.578 62.3592C122.578 58.1083 122.173 55.8204 122.885 54.6637C120.108 51.7808 116.283 52.2612 114.014 54.6638C115.349 56.5323 114.837 59.4876 114.837 62.3592C114.837 69.8334 107.63 72.3692 107.63 74.7716C107.63 77.5744 109.504 77.1294 111.233 78.6422C113.753 80.8463 114.837 82.1123 118.174 82.1123Z" fill="url(#paint32_radial_7870_28450)"/>
<path d="M118.174 82.1123C121.777 82.1123 122.979 79.5765 124.847 78.6422C126.182 76.7737 129.919 78.1083 129.919 74.7716C129.919 71.435 122.578 69.6999 122.578 62.3592C122.578 58.1083 122.173 55.8204 122.885 54.6637C120.108 51.7808 116.283 52.2612 114.014 54.6638C115.349 56.5323 114.837 59.4876 114.837 62.3592C114.837 69.8334 107.63 72.3692 107.63 74.7716C107.63 77.5744 109.504 77.1294 111.233 78.6422C113.753 80.8463 114.837 82.1123 118.174 82.1123Z" fill="url(#paint33_radial_7870_28450)"/>
<path d="M118.174 82.1123C121.777 82.1123 122.979 79.5765 124.847 78.6422C126.182 76.7737 129.919 78.1083 129.919 74.7716C129.919 71.435 122.578 69.6999 122.578 62.3592C122.578 58.1083 122.173 55.8204 122.885 54.6637C120.108 51.7808 116.283 52.2612 114.014 54.6638C115.349 56.5323 114.837 59.4876 114.837 62.3592C114.837 69.8334 107.63 72.3692 107.63 74.7716C107.63 77.5744 109.504 77.1294 111.233 78.6422C113.753 80.8463 114.837 82.1123 118.174 82.1123Z" fill="url(#paint34_radial_7870_28450)"/>
<path d="M139.527 47.5446C134.055 45.4092 129.116 48.212 126.18 49.6801C123.179 51.1314 123.511 53.8173 126.18 52.6161C128.849 51.4149 134.989 49.0125 138.726 49.6801C141.716 50.2142 143.887 51.86 144.599 52.6161C144.732 51.6375 143.905 49.253 139.527 47.5446Z" fill="url(#paint35_radial_7870_28450)"/>
<path d="M126.713 54.5833C128.597 53.3568 132.889 51.4032 136.569 52.875C140.248 54.3467 142.088 56.5544 142.57 57.1238" stroke="#9E562F" stroke-width="0.461538" stroke-linecap="round"/>
<path d="M136.458 54.885C131.973 52.9631 127.827 55.6858 126.314 57.2874C126.848 58.1771 128.824 60.0367 132.454 60.357C136.084 60.6773 139.127 59.0668 140.195 58.2216C139.341 56.2996 137.348 55.1964 136.458 54.885Z" fill="url(#paint36_linear_7870_28450)"/>
<path fill-rule="evenodd" clip-rule="evenodd" d="M126.608 57.3158C127.224 58.1905 129.112 59.8305 132.474 60.1271C135.878 60.4275 138.759 58.9919 139.907 58.1507C139.494 57.3118 138.852 56.6386 138.198 56.1317C137.501 55.5918 136.803 55.2502 136.382 55.1028L136.367 55.0976L136.367 55.0971C134.19 54.164 132.094 54.3565 130.349 54.9821C128.697 55.5749 127.369 56.554 126.608 57.3158ZM136.541 54.6698C134.237 53.6844 132.02 53.8927 130.194 54.5476C128.37 55.2018 126.925 56.3045 126.146 57.1289L126.026 57.2561L126.116 57.4061C126.691 58.3631 128.734 60.2605 132.433 60.5869C136.136 60.9136 139.236 59.275 140.338 58.4025L140.478 58.2914L140.406 58.1278C139.959 57.1218 139.217 56.3373 138.481 55.7669C137.749 55.1999 137.011 54.8351 136.541 54.6698Z" fill="url(#paint37_linear_7870_28450)"/>
<path d="M133.553 59.6905C135.359 59.6905 136.823 58.2265 136.823 56.4206C136.823 55.8622 136.683 55.3366 136.436 54.8768C134.44 54.0269 132.511 54.0965 130.853 54.5763C130.493 55.1013 130.283 55.7364 130.283 56.4206C130.283 58.2265 131.747 59.6905 133.553 59.6905Z" fill="url(#paint38_linear_7870_28450)"/>
<path d="M133.553 58.617C134.767 58.617 135.75 57.6333 135.75 56.4198C135.75 55.3197 134.942 54.4084 133.887 54.2477C133.735 54.236 133.584 54.2287 133.435 54.2256C132.276 54.2872 131.356 55.246 131.356 56.4198C131.356 57.6333 132.34 58.617 133.553 58.617Z" fill="#21180A"/>
<path d="M96.5742 48.17C102.046 46.0345 106.985 48.8373 109.921 50.3055C112.922 51.7568 112.59 54.4427 109.921 53.2415C107.252 52.0403 101.112 49.6379 97.3751 50.3055C94.3854 50.8395 92.2143 52.4853 91.5025 53.2415C91.369 52.2628 92.1965 49.8784 96.5742 48.17Z" fill="url(#paint39_radial_7870_28450)"/>
<path d="M110.001 56.4905C105.649 52.2827 98.0426 52.241 94.0516 56.9573" stroke="#9E562F" stroke-width="0.461538" stroke-linecap="round"/>
<path d="M99.0675 55.9208C103.703 54.3977 107.596 57.472 108.963 59.1996C108.353 60.0393 106.223 61.7193 102.579 61.7215C98.9341 61.7237 96.0433 59.8537 95.0534 58.9184C96.0721 57.0784 98.1539 56.1533 99.0675 55.9208Z" fill="url(#paint40_linear_7870_28450)"/>
<path fill-rule="evenodd" clip-rule="evenodd" d="M108.667 59.2022C107.977 60.0198 105.953 61.4888 102.578 61.4908C99.1605 61.4928 96.416 59.8111 95.3461 58.8729C95.8306 58.0733 96.5285 57.4587 97.2245 57.0109C97.9658 56.5338 98.6917 56.2545 99.1241 56.1445L99.1394 56.1406L99.1392 56.1401C101.39 55.4006 103.461 55.7753 105.144 56.5508C106.739 57.2857 107.976 58.3769 108.667 59.2022ZM99.0026 55.6992C101.385 54.9188 103.575 55.3197 105.337 56.1316C107.097 56.9425 108.44 58.1672 109.143 59.0564L109.252 59.1936L109.149 59.3352C108.493 60.2383 106.292 61.9501 102.578 61.9523C98.8613 61.9545 95.9163 60.0515 94.8946 59.0862L94.7645 58.9632L94.8512 58.8066C95.3845 57.8435 96.1916 57.1267 96.9747 56.6228C97.7532 56.1218 98.5209 55.8229 99.0026 55.6992Z" fill="url(#paint41_linear_7870_28450)"/>
<path d="M101.539 60.9609C99.7403 60.8032 98.4097 59.217 98.5674 57.4179C98.6161 56.8616 98.8015 56.3501 99.0875 55.9135C101.151 55.2414 103.066 55.4793 104.676 56.1022C104.988 56.6565 105.142 57.3074 105.082 57.9889C104.925 59.7879 103.338 61.1185 101.539 60.9609Z" fill="#7A4E05"/>
<path d="M101.539 60.9609C99.7403 60.8032 98.4097 59.217 98.5674 57.4179C98.6161 56.8616 98.8015 56.3501 99.0875 55.9135C101.151 55.2414 103.066 55.4793 104.676 56.1022C104.988 56.6565 105.142 57.3074 105.082 57.9889C104.925 59.7879 103.338 61.1185 101.539 60.9609Z" fill="url(#paint42_linear_7870_28450)"/>
<path d="M101.633 59.8916C100.424 59.7856 99.53 58.7197 99.636 57.5109C99.7322 56.4127 100.621 55.5743 101.689 55.5094C101.836 55.511 101.982 55.5167 102.127 55.5263C103.28 55.6855 104.116 56.7228 104.014 57.8945C103.908 59.1034 102.842 59.9975 101.633 59.8916Z" fill="#21180A"/>
<path fill-rule="evenodd" clip-rule="evenodd" d="M153.563 47.0086C154.114 47.3288 154.302 48.035 153.981 48.586L146.28 61.8394H143.32V59.5317H144.952L151.986 47.4265C152.306 46.8755 153.013 46.6884 153.563 47.0086Z" fill="url(#paint43_linear_7870_28450)"/>
<path fill-rule="evenodd" clip-rule="evenodd" d="M111.168 58.3256C115.593 54.6949 121.923 55.1082 125.549 58.3583L124.009 60.0768C121.232 57.5874 116.177 57.2006 112.632 60.1095L111.168 58.3256Z" fill="#D4A751"/>
<path fill-rule="evenodd" clip-rule="evenodd" d="M111.168 58.3256C115.593 54.6949 121.923 55.1082 125.549 58.3583L124.009 60.0768C121.232 57.5874 116.177 57.2006 112.632 60.1095L111.168 58.3256Z" fill="#FFB72D"/>
<path fill-rule="evenodd" clip-rule="evenodd" d="M111.168 58.3256C115.593 54.6949 121.923 55.1082 125.549 58.3583L124.009 60.0768C121.232 57.5874 116.177 57.2006 112.632 60.1095L111.168 58.3256Z" fill="url(#paint44_radial_7870_28450)"/>
<path fill-rule="evenodd" clip-rule="evenodd" d="M80.7958 51.0365C81.2333 50.5731 81.9636 50.5521 82.4269 50.9896L91.7569 59.7988H93.2335V62.1065H90.8396L80.8427 52.6676C80.3793 52.2301 80.3583 51.4998 80.7958 51.0365Z" fill="url(#paint45_linear_7870_28450)"/>
<path d="M111.842 60.8445C111.842 65.4743 107.859 69.2274 102.946 69.2274C98.0326 69.2274 94.0498 65.4743 94.0498 60.8445C94.0498 56.2148 98.0326 52.4616 102.946 52.4616C107.859 52.4616 111.842 56.2148 111.842 60.8445Z" fill="url(#paint46_radial_7870_28450)"/>
<path fill-rule="evenodd" clip-rule="evenodd" d="M102.946 53.6155C98.6044 53.6155 95.2037 56.9156 95.2037 60.8445C95.2037 64.7734 98.6044 68.0736 102.946 68.0736C107.287 68.0736 110.688 64.7734 110.688 60.8445C110.688 56.9156 107.287 53.6155 102.946 53.6155ZM92.896 60.8445C92.896 55.5139 97.4609 51.3078 102.946 51.3078C108.431 51.3078 112.995 55.5139 112.995 60.8445C112.995 66.1751 108.431 70.3812 102.946 70.3812C97.4609 70.3812 92.896 66.1751 92.896 60.8445Z" fill="url(#paint47_linear_7870_28450)"/>
<path fill-rule="evenodd" clip-rule="evenodd" d="M102.946 53.6155C98.6044 53.6155 95.2037 56.9156 95.2037 60.8445C95.2037 64.7734 98.6044 68.0736 102.946 68.0736C107.287 68.0736 110.688 64.7734 110.688 60.8445C110.688 56.9156 107.287 53.6155 102.946 53.6155ZM92.896 60.8445C92.896 55.5139 97.4609 51.3078 102.946 51.3078C108.431 51.3078 112.995 55.5139 112.995 60.8445C112.995 66.1751 108.431 70.3812 102.946 70.3812C97.4609 70.3812 92.896 66.1751 92.896 60.8445Z" fill="url(#paint48_radial_7870_28450)"/>
<path d="M142.572 60.8445C142.572 65.4743 138.589 69.2274 133.676 69.2274C128.763 69.2274 124.78 65.4743 124.78 60.8445C124.78 56.2148 128.763 52.4616 133.676 52.4616C138.589 52.4616 142.572 56.2148 142.572 60.8445Z" fill="url(#paint49_radial_7870_28450)"/>
<path fill-rule="evenodd" clip-rule="evenodd" d="M133.676 53.6155C129.334 53.6155 125.934 56.9156 125.934 60.8445C125.934 64.7734 129.334 68.0736 133.676 68.0736C138.017 68.0736 141.418 64.7734 141.418 60.8445C141.418 56.9156 138.017 53.6155 133.676 53.6155ZM123.626 60.8445C123.626 55.5139 128.191 51.3078 133.676 51.3078C139.161 51.3078 143.725 55.5139 143.725 60.8445C143.725 66.1751 139.161 70.3812 133.676 70.3812C128.191 70.3812 123.626 66.1751 123.626 60.8445Z" fill="url(#paint50_linear_7870_28450)"/>
<path fill-rule="evenodd" clip-rule="evenodd" d="M133.676 53.6155C129.334 53.6155 125.934 56.9156 125.934 60.8445C125.934 64.7734 129.334 68.0736 133.676 68.0736C138.017 68.0736 141.418 64.7734 141.418 60.8445C141.418 56.9156 138.017 53.6155 133.676 53.6155ZM123.626 60.8445C123.626 55.5139 128.191 51.3078 133.676 51.3078C139.161 51.3078 143.725 55.5139 143.725 60.8445C143.725 66.1751 139.161 70.3812 133.676 70.3812C128.191 70.3812 123.626 66.1751 123.626 60.8445Z" fill="url(#paint51_radial_7870_28450)"/>
<path d="M154.407 72.6799C152.645 74.3114 151.21 75.5512 148.916 75.1437C148.505 76.8954 147.362 79.7747 146.203 82.6935C145.366 84.8025 144.52 86.9321 143.937 88.6718C143.352 90.4148 142.851 91.9087 142.463 92.9228C140.022 99.3076 135.568 103.51 130.882 107.93C129.301 109.422 127.693 110.938 126.128 112.572C121.292 116.838 113.821 118.566 107.538 120H191.695C191.424 109.445 189.462 99.1726 184.906 94.124C184.768 93.9711 184.628 93.8159 184.487 93.6585C181.166 89.9671 176.783 85.0963 169.023 82.4678C166.413 78.6827 161.576 77.3704 157.343 78.6827C157.115 78.5287 156.901 78.3859 156.701 78.2521C154.057 76.4866 153.78 76.3015 154.407 72.6799Z" fill="url(#paint52_linear_7870_28450)"/>
<path d="M125.768 113.942C133.846 108.461 146.321 95.5522 157.946 82.9124C163.286 77.1054 166.154 83.0767 156.581 90.6467C147.692 99.2305 138.461 108.461 128.58 113.942C121.897 118.796 123.956 114.903 125.768 113.942Z" fill="url(#paint53_linear_7870_28450)"/>
<path d="M132.82 120H138.459C139.191 119.284 144.814 113.968 145.512 113.285C154.413 104.584 160.242 98.8856 153.572 102.792C149.238 105.33 138.683 114.62 132.82 120Z" fill="url(#paint54_linear_7870_28450)"/>
<path d="M178.457 87.6953C174.662 89.3724 170.928 91.9826 167.575 95.9524C161.213 103.486 161.42 103.315 164.533 100.737C167.995 97.8704 175.051 92.0278 180.665 90.4958C180.899 90.4317 181.127 90.3692 181.349 90.3084C180.471 89.4357 179.514 88.5536 178.457 87.6953Z" fill="url(#paint55_linear_7870_28450)"/>
<path d="M182.763 91.7692C183.372 92.4206 183.943 93.0553 184.486 93.6586C184.628 93.816 184.767 93.9712 184.905 94.124C185.226 94.4792 185.534 94.8603 185.829 95.2654C183.548 96.5041 181.31 97.921 179.156 99.4408C169.887 105.98 170.937 100.244 179.382 94.1128C180.626 93.2098 181.763 92.4312 182.763 91.7692Z" fill="url(#paint56_linear_7870_28450)"/>
<path d="M135.732 43.2411C130.204 43.6646 125.625 46.6102 122.308 48.3418C124.327 44.1239 129.875 41.5197 135.43 41.2714C140.985 41.023 145.517 43.8393 147.089 45.2785C145.607 44.4229 141.259 42.8176 135.732 43.2411Z" fill="url(#paint57_linear_7870_28450)"/>
<path d="M102.941 44.3494C108.987 44.79 111.987 46.897 115.691 49.8425C114.609 45.7997 109.288 42.3459 103.217 42.1048C97.1466 41.8638 92.2744 45.1038 90.5972 46.7539C92.1927 45.7688 96.8952 43.9088 102.941 44.3494Z" fill="url(#paint58_linear_7870_28450)"/>
<path d="M135.715 39.7022C130.452 40.0558 122.597 41.8137 119.063 45.5038C120.289 40.8883 130.078 37.6166 135.372 37.4621C140.665 37.3077 143.67 40.146 145.21 41.8137C143.771 40.8097 140.978 39.3486 135.715 39.7022Z" fill="url(#paint59_linear_7870_28450)"/>
<path d="M102.594 40.2637C108.639 40.7043 114.239 42.1934 118.125 45.2874C116.357 40.3935 108.941 38.2603 102.87 38.0192C96.799 37.7782 93.5056 40.5804 91.8283 42.2305C93.4239 41.2454 96.5477 39.8232 102.594 40.2637Z" fill="url(#paint60_linear_7870_28450)"/>
<defs>
<linearGradient id="paint0_linear_7870_28450" x1="119.654" y1="73.037" x2="119.654" y2="122.686" gradientUnits="userSpaceOnUse">
<stop stop-color="#A55529"/>
<stop offset="1" stop-color="#E0C4B4"/>
</linearGradient>
<radialGradient id="paint1_radial_7870_28450" cx="0" cy="0" r="1" gradientUnits="userSpaceOnUse" gradientTransform="translate(99.3739 90.7211) rotate(46.5018) scale(27.2397 59.1819)">
<stop offset="0.530685" stop-color="#864624"/>
<stop offset="1" stop-color="#A35931" stop-opacity="0"/>
</radialGradient>
<radialGradient id="paint2_radial_7870_28450" cx="0" cy="0" r="1" gradientUnits="userSpaceOnUse" gradientTransform="translate(145.96 92.7403) rotate(-157.051) scale(17.3856 37.7725)">
<stop offset="0.425369" stop-color="#99481C"/>
<stop offset="1" stop-color="#A35931" stop-opacity="0"/>
</radialGradient>
<linearGradient id="paint3_linear_7870_28450" x1="100.962" y1="99.807" x2="70.3396" y2="121.378" gradientUnits="userSpaceOnUse">
<stop stop-color="#EBEFFF"/>
<stop offset="1" stop-color="#B8BDDB"/>
</linearGradient>
<radialGradient id="paint4_radial_7870_28450" cx="0" cy="0" r="1" gradientUnits="userSpaceOnUse" gradientTransform="translate(94.3269 134.134) rotate(-132.089) scale(36.1498 126.467)">
<stop stop-color="#716E96"/>
<stop offset="0.740049" stop-color="#ECEFFF" stop-opacity="0"/>
</radialGradient>
<linearGradient id="paint5_linear_7870_28450" x1="73.2695" y1="94.0377" x2="80.6635" y2="125.105" gradientUnits="userSpaceOnUse">
<stop offset="0.0693044" stop-color="#73738B"/>
<stop offset="1" stop-color="#73738B" stop-opacity="0"/>
</linearGradient>
<linearGradient id="paint6_linear_7870_28450" x1="67.769" y1="109.394" x2="61.8421" y2="142.305" gradientUnits="userSpaceOnUse">
<stop stop-color="#73738B"/>
<stop offset="1" stop-color="#73738B" stop-opacity="0"/>
</linearGradient>
<radialGradient id="paint7_radial_7870_28450" cx="0" cy="0" r="1" gradientUnits="userSpaceOnUse" gradientTransform="translate(88.125 64.0384) rotate(-170.538) scale(13.1598 17.2114)">
<stop stop-color="#3C2112"/>
<stop offset="1" stop-color="#A25830"/>
</radialGradient>
<radialGradient id="paint8_radial_7870_28450" cx="0" cy="0" r="1" gradientUnits="userSpaceOnUse" gradientTransform="translate(151.009 59.5672) rotate(7.40195) scale(11.3053 18.3747)">
<stop offset="0.025" stop-color="#95512A"/>
<stop offset="0.485231" stop-color="#B6744F"/>
<stop offset="0.82" stop-color="#CFA38B"/>
</radialGradient>
<linearGradient id="paint9_linear_7870_28450" x1="116.346" y1="5.76923" x2="116.346" y2="104.001" gradientUnits="userSpaceOnUse">
<stop stop-color="#A55529"/>
<stop offset="1" stop-color="#EDCAB6"/>
</linearGradient>
<radialGradient id="paint10_radial_7870_28450" cx="0" cy="0" r="1" gradientUnits="userSpaceOnUse" gradientTransform="translate(69.2307 43.5576) rotate(17.593) scale(86.8474 113.09)">
<stop offset="0.796475" stop-color="#8C3E26" stop-opacity="0"/>
<stop offset="1" stop-color="#8C3E26" stop-opacity="0.55"/>
</radialGradient>
<radialGradient id="paint11_radial_7870_28450" cx="0" cy="0" r="1" gradientUnits="userSpaceOnUse" gradientTransform="translate(158.51 40.8173) rotate(159.621) scale(82.008 106.788)">
<stop offset="0.675211" stop-color="#8C3E26" stop-opacity="0"/>
<stop offset="1" stop-color="#8C3E26" stop-opacity="0.99"/>
</radialGradient>
<radialGradient id="paint12_radial_7870_28450" cx="0" cy="0" r="1" gradientUnits="userSpaceOnUse" gradientTransform="translate(126.635 34.7596) rotate(-25.2508) scale(28.0629 28.0629)">
<stop stop-color="#FFCBB4"/>
<stop offset="1" stop-color="#FFCBB4" stop-opacity="0"/>
</radialGradient>
<radialGradient id="paint13_radial_7870_28450" cx="0" cy="0" r="1" gradientUnits="userSpaceOnUse" gradientTransform="translate(121.731 99.6633) rotate(-90) scale(11.8269 11.8269)">
<stop stop-color="#FFCBB4" stop-opacity="0.66"/>
<stop offset="1" stop-color="#FFCBB4" stop-opacity="0"/>
</radialGradient>
<radialGradient id="paint14_radial_7870_28450" cx="0" cy="0" r="1" gradientUnits="userSpaceOnUse" gradientTransform="translate(137.74 67.6442) rotate(89.1575) scale(9.80874 14.4194)">
<stop stop-color="#FFCBB4"/>
<stop offset="1" stop-color="#FFCBB4" stop-opacity="0"/>
</radialGradient>
<radialGradient id="paint15_radial_7870_28450" cx="0" cy="0" r="1" gradientUnits="userSpaceOnUse" gradientTransform="translate(103.269 69.2571) rotate(90) scale(8.18432 9.24038)">
<stop stop-color="#FFCBB4" stop-opacity="0.88"/>
<stop offset="1" stop-color="#FFCBB4" stop-opacity="0"/>
</radialGradient>
<radialGradient id="paint16_radial_7870_28450" cx="0" cy="0" r="1" gradientUnits="userSpaceOnUse" gradientTransform="translate(118.702 79.1105) rotate(90) scale(8.43749 3.24519)">
<stop stop-color="#9E5A34"/>
<stop offset="1" stop-color="#9E5A34" stop-opacity="0"/>
</radialGradient>
<radialGradient id="paint17_radial_7870_28450" cx="0" cy="0" r="1" gradientUnits="userSpaceOnUse" gradientTransform="translate(118.63 88.3412) rotate(88.3153) scale(4.90596 11.1773)">
<stop stop-color="#9E5A34"/>
<stop offset="1" stop-color="#9E5A34" stop-opacity="0"/>
</radialGradient>
<radialGradient id="paint18_radial_7870_28450" cx="0" cy="0" r="1" gradientUnits="userSpaceOnUse" gradientTransform="translate(116.346 42.6923) rotate(-90) scale(39.6634 53.7524)">
<stop offset="0.5" stop-color="#CCAA98" stop-opacity="0.22"/>
<stop offset="1" stop-color="#E6D8D0"/>
</radialGradient>
<radialGradient id="paint19_radial_7870_28450" cx="0" cy="0" r="1" gradientUnits="userSpaceOnUse" gradientTransform="translate(116.346 33.75) rotate(-93.4438) scale(42.2259 81.7893)">
<stop stop-color="#7C7BAE"/>
<stop offset="0.849202" stop-color="#FDF1DE"/>
</radialGradient>
<radialGradient id="paint20_radial_7870_28450" cx="0" cy="0" r="1" gradientUnits="userSpaceOnUse" gradientTransform="translate(107.524 47.0192) rotate(100.636) scale(15.6291 20.525)">
<stop stop-color="#723F22"/>
<stop offset="1" stop-color="#723F22" stop-opacity="0"/>
</radialGradient>
<radialGradient id="paint21_radial_7870_28450" cx="0" cy="0" r="1" gradientUnits="userSpaceOnUse" gradientTransform="translate(128.892 46.4096) rotate(79.3641) scale(15.6291 20.525)">
<stop stop-color="#723F22"/>
<stop offset="1" stop-color="#723F22" stop-opacity="0"/>
</radialGradient>
<radialGradient id="paint22_radial_7870_28450" cx="0" cy="0" r="1" gradientUnits="userSpaceOnUse" gradientTransform="translate(94.9039 41.1057) rotate(-24.9285) scale(11.2924)">
<stop stop-color="#6C3B21" stop-opacity="0.45"/>
<stop offset="1" stop-color="#6C3B21" stop-opacity="0"/>
</radialGradient>
<radialGradient id="paint23_radial_7870_28450" cx="0" cy="0" r="1" gradientUnits="userSpaceOnUse" gradientTransform="translate(139.295 40.2708) rotate(-160.715) scale(10.4061 11.1288)">
<stop stop-color="#6C3B21" stop-opacity="0.45"/>
<stop offset="1" stop-color="#6C3B21" stop-opacity="0"/>
</radialGradient>
<radialGradient id="paint24_radial_7870_28450" cx="0" cy="0" r="1" gradientUnits="userSpaceOnUse" gradientTransform="translate(132.404 77.4518) rotate(-47.7792) scale(5.25849 24.7056)">
<stop stop-color="#823C16" stop-opacity="0.44"/>
<stop offset="0.633226" stop-color="#A35931" stop-opacity="0"/>
</radialGradient>
<radialGradient id="paint25_radial_7870_28450" cx="0" cy="0" r="1" gradientUnits="userSpaceOnUse" gradientTransform="translate(105.285 76.7994) rotate(-127.764) scale(3.64466 29.4112)">
<stop stop-color="#823C16" stop-opacity="0.44"/>
<stop offset="0.633226" stop-color="#A35931" stop-opacity="0"/>
</radialGradient>
<radialGradient id="paint26_radial_7870_28450" cx="0" cy="0" r="1" gradientUnits="userSpaceOnUse" gradientTransform="translate(119.176 86.7033) rotate(90) scale(3.65675 19.1866)">
<stop offset="0.151991" stop-color="#E77D7D"/>
<stop offset="1" stop-color="#985151"/>
</radialGradient>
<radialGradient id="paint27_radial_7870_28450" cx="0" cy="0" r="1" gradientUnits="userSpaceOnUse" gradientTransform="translate(118.574 84.447) rotate(90) scale(3.07053 11.4471)">
<stop stop-color="#B97070"/>
<stop offset="1" stop-color="#8A4141"/>
</radialGradient>
<radialGradient id="paint28_radial_7870_28450" cx="0" cy="0" r="1" gradientUnits="userSpaceOnUse" gradientTransform="translate(117.692 83.7979) rotate(-90.5846) scale(7.06767 31.6235)">
<stop offset="0.116158" stop-color="#7C7BAE"/>
<stop offset="0.849202" stop-color="#FDF1DE"/>
</radialGradient>
<radialGradient id="paint29_radial_7870_28450" cx="0" cy="0" r="1" gradientUnits="userSpaceOnUse" gradientTransform="translate(118.775 74.1337) rotate(-90) scale(16.4423 12.0497)">
<stop stop-color="#DAB8A4"/>
<stop offset="1" stop-color="#A76042"/>
</radialGradient>
<linearGradient id="paint30_linear_7870_28450" x1="118.775" y1="51.6974" x2="118.775" y2="58.5748" gradientUnits="userSpaceOnUse">
<stop offset="0.0929005" stop-color="#DAA183"/>
<stop offset="0.532626" stop-color="#D8A082"/>
<stop offset="1" stop-color="#D6A084" stop-opacity="0"/>
</linearGradient>
<radialGradient id="paint31_radial_7870_28450" cx="0" cy="0" r="1" gradientUnits="userSpaceOnUse" gradientTransform="translate(118.775 74.7106) rotate(133.428) scale(5.56075 5.61141)">
<stop stop-color="#FFCBB4" stop-opacity="0.9"/>
<stop offset="1" stop-color="#FFCBB4" stop-opacity="0"/>
</radialGradient>
<radialGradient id="paint32_radial_7870_28450" cx="0" cy="0" r="1" gradientUnits="userSpaceOnUse" gradientTransform="translate(121.747 71.7089) rotate(-100.203) scale(16.7822 8.01561)">
<stop stop-color="#FFCBB4" stop-opacity="0.9"/>
<stop offset="1" stop-color="#FFCBB4" stop-opacity="0"/>
</radialGradient>
<radialGradient id="paint33_radial_7870_28450" cx="0" cy="0" r="1" gradientUnits="userSpaceOnUse" gradientTransform="translate(116.466 83.076) rotate(-92.5261) scale(4.90861 11.285)">
<stop stop-color="#9E5A34"/>
<stop offset="1" stop-color="#9E5A34" stop-opacity="0"/>
</radialGradient>
<radialGradient id="paint34_radial_7870_28450" cx="0" cy="0" r="1" gradientUnits="userSpaceOnUse" gradientTransform="translate(114.411 54.4468) rotate(42.614) scale(2.4498 7.51998)">
<stop stop-color="#D1997A"/>
<stop offset="1" stop-color="#D1997A" stop-opacity="0"/>
</radialGradient>
<radialGradient id="paint35_radial_7870_28450" cx="0" cy="0" r="1" gradientUnits="userSpaceOnUse" gradientTransform="translate(130.671 44.7115) rotate(87.3974) scale(12.7054 16.8257)">
<stop stop-color="#401701"/>
<stop offset="1" stop-color="#513A2E" stop-opacity="0"/>
</radialGradient>
<linearGradient id="paint36_linear_7870_28450" x1="133.255" y1="54.224" x2="133.255" y2="60.3986" gradientUnits="userSpaceOnUse">
<stop offset="0.316436" stop-color="#B3BFCD"/>
<stop offset="0.725212" stop-color="white"/>
</linearGradient>
<linearGradient id="paint37_linear_7870_28450" x1="133.255" y1="54.224" x2="133.255" y2="60.3986" gradientUnits="userSpaceOnUse">
<stop stop-color="#965430"/>
<stop offset="1" stop-color="#965430" stop-opacity="0.11"/>
</linearGradient>
<linearGradient id="paint38_linear_7870_28450" x1="133.554" y1="54.2241" x2="133.554" y2="59.6905" gradientUnits="userSpaceOnUse">
<stop offset="0.337644" stop-color="#5F3D05"/>
<stop offset="0.735" stop-color="#C67C00"/>
</linearGradient>
<radialGradient id="paint39_radial_7870_28450" cx="0" cy="0" r="1" gradientUnits="userSpaceOnUse" gradientTransform="translate(105.43 45.3369) rotate(92.6026) scale(12.7054 16.8257)">
<stop stop-color="#401701"/>
<stop offset="1" stop-color="#513A2E" stop-opacity="0"/>
</radialGradient>
<linearGradient id="paint40_linear_7870_28450" x1="102.316" y1="55.5419" x2="101.777" y2="61.693" gradientUnits="userSpaceOnUse">
<stop offset="0.316436" stop-color="#B3BFCD"/>
<stop offset="0.725212" stop-color="white"/>
</linearGradient>
<linearGradient id="paint41_linear_7870_28450" x1="102.316" y1="55.542" x2="101.777" y2="61.693" gradientUnits="userSpaceOnUse">
<stop stop-color="#965430"/>
<stop offset="1" stop-color="#965430" stop-opacity="0.11"/>
</linearGradient>
<linearGradient id="paint42_linear_7870_28450" x1="102.017" y1="55.5157" x2="102.225" y2="61.0098" gradientUnits="userSpaceOnUse">
<stop offset="0.337644" stop-color="#5F3D05"/>
<stop offset="0.735" stop-color="#C67C00"/>
</linearGradient>
<linearGradient id="paint43_linear_7870_28450" x1="155.266" y1="42.5474" x2="144.304" y2="60.6855" gradientUnits="userSpaceOnUse">
<stop stop-color="#885D0A"/>
<stop offset="0.54" stop-color="#FFB72D"/>
</linearGradient>
<radialGradient id="paint44_radial_7870_28450" cx="0" cy="0" r="1" gradientUnits="userSpaceOnUse" gradientTransform="translate(118.34 61.6904) rotate(-90) scale(5.69711 10.1937)">
<stop offset="0.815" stop-color="#FCE593" stop-opacity="0"/>
<stop offset="1" stop-color="#FCE593"/>
</radialGradient>
<linearGradient id="paint45_linear_7870_28450" x1="81.0579" y1="51.1294" x2="95.5799" y2="55.1506" gradientUnits="userSpaceOnUse">
<stop stop-color="#885D0A"/>
<stop offset="0.54" stop-color="#FFB72D"/>
</linearGradient>
<radialGradient id="paint46_radial_7870_28450" cx="0" cy="0" r="1" gradientUnits="userSpaceOnUse" gradientTransform="translate(100.88 68.7974) rotate(-78.0031) scale(5.89804 42.6487)">
<stop stop-color="#FEF5D4" stop-opacity="0.33"/>
<stop offset="1" stop-color="#FEF5D4" stop-opacity="0"/>
</radialGradient>
<linearGradient id="paint47_linear_7870_28450" x1="108.164" y1="53.7975" x2="102.946" y2="64.3263" gradientUnits="userSpaceOnUse">
<stop stop-color="#FFD88E"/>
<stop offset="1" stop-color="#FFCC4A"/>
</linearGradient>
<radialGradient id="paint48_radial_7870_28450" cx="0" cy="0" r="1" gradientUnits="userSpaceOnUse" gradientTransform="translate(106.149 53.0763) rotate(107.293) scale(10.7777 5.3983)">
<stop stop-color="#FCE593"/>
<stop offset="1" stop-color="#FCE593" stop-opacity="0"/>
</radialGradient>
<radialGradient id="paint49_radial_7870_28450" cx="0" cy="0" r="1" gradientUnits="userSpaceOnUse" gradientTransform="translate(131.61 68.7974) rotate(-78.0031) scale(5.89804 42.6487)">
<stop stop-color="#FEF5D4" stop-opacity="0.33"/>
<stop offset="1" stop-color="#FEF5D4" stop-opacity="0"/>
</radialGradient>
<linearGradient id="paint50_linear_7870_28450" x1="138.894" y1="53.7975" x2="133.676" y2="64.3263" gradientUnits="userSpaceOnUse">
<stop stop-color="#FFD88E"/>
<stop offset="1" stop-color="#FFCC4A"/>
</linearGradient>
<radialGradient id="paint51_radial_7870_28450" cx="0" cy="0" r="1" gradientUnits="userSpaceOnUse" gradientTransform="translate(136.879 53.0763) rotate(107.293) scale(10.7777 5.3983)">
<stop stop-color="#FCE593"/>
<stop offset="1" stop-color="#FCE593" stop-opacity="0"/>
</radialGradient>
<linearGradient id="paint52_linear_7870_28450" x1="113.902" y1="107.738" x2="139.581" y2="150.14" gradientUnits="userSpaceOnUse">
<stop stop-color="#EBEFFF"/>
<stop offset="1" stop-color="#B8BDDB"/>
</linearGradient>
<linearGradient id="paint53_linear_7870_28450" x1="110.768" y1="126.923" x2="164.334" y2="84.8823" gradientUnits="userSpaceOnUse">
<stop stop-color="#73738B" stop-opacity="0"/>
<stop offset="1" stop-color="#73738B" stop-opacity="0.44"/>
</linearGradient>
<linearGradient id="paint54_linear_7870_28450" x1="158.54" y1="99.2961" x2="97.2678" y2="130.628" gradientUnits="userSpaceOnUse">
<stop stop-color="#73738B" stop-opacity="0"/>
<stop offset="1" stop-color="#8B7373"/>
</linearGradient>
<linearGradient id="paint55_linear_7870_28450" x1="220.204" y1="68.7412" x2="167.399" y2="104.376" gradientUnits="userSpaceOnUse">
<stop stop-color="#73738B"/>
<stop offset="1" stop-color="#73738B" stop-opacity="0"/>
</linearGradient>
<linearGradient id="paint56_linear_7870_28450" x1="220.204" y1="68.7412" x2="167.399" y2="104.376" gradientUnits="userSpaceOnUse">
<stop stop-color="#73738B"/>
<stop offset="1" stop-color="#73738B" stop-opacity="0"/>
</linearGradient>
<linearGradient id="paint57_linear_7870_28450" x1="144.469" y1="40.1174" x2="121.413" y2="49.7804" gradientUnits="userSpaceOnUse">
<stop offset="0.045" stop-color="#723E22" stop-opacity="0"/>
<stop offset="0.42" stop-color="#723E22" stop-opacity="0.44"/>
<stop offset="0.965" stop-color="#723E22" stop-opacity="0"/>
</linearGradient>
<linearGradient id="paint58_linear_7870_28450" x1="98.3533" y1="37.9769" x2="116.067" y2="44.7111" gradientUnits="userSpaceOnUse">
<stop offset="0.045" stop-color="#723E22" stop-opacity="0"/>
<stop offset="0.42" stop-color="#723E22" stop-opacity="0.44"/>
<stop offset="0.965" stop-color="#723E22" stop-opacity="0"/>
</linearGradient>
<linearGradient id="paint59_linear_7870_28450" x1="137.237" y1="32.6682" x2="117.863" y2="41.0174" gradientUnits="userSpaceOnUse">
<stop offset="0.045" stop-color="#723E22" stop-opacity="0"/>
<stop offset="0.42" stop-color="#723E22" stop-opacity="0.33"/>
<stop offset="0.897939" stop-color="#723E22" stop-opacity="0"/>
</linearGradient>
<linearGradient id="paint60_linear_7870_28450" x1="99.4904" y1="33.3079" x2="119.031" y2="41.5061" gradientUnits="userSpaceOnUse">
<stop offset="0.045" stop-color="#723E22" stop-opacity="0"/>
<stop offset="0.42" stop-color="#723E22" stop-opacity="0.33"/>
<stop offset="0.897939" stop-color="#723E22" stop-opacity="0"/>
</linearGradient>
</defs>
</svg>
