<svg viewBox="0 0 240 120" fill="none" xmlns="http://www.w3.org/2000/svg">
<path d="M119.712 103.558C71.2501 103.558 33.1732 114.327 20.1924 119.712H227.596C211.827 114.327 168.173 103.558 119.712 103.558Z" fill="url(#paint0_linear_9142_506)"/>
<path d="M119.712 103.558C71.2501 103.558 33.1732 114.327 20.1924 119.712H227.596C211.827 114.327 168.173 103.558 119.712 103.558Z" fill="url(#paint1_radial_9142_506)"/>
<path d="M119.712 103.558C71.2501 103.558 33.1732 114.327 20.1924 119.712H227.596C211.827 114.327 168.173 103.558 119.712 103.558Z" fill="url(#paint2_radial_9142_506)"/>
<path d="M106.299 101.09C105 99.0708 93.0293 97.0516 90.1447 83.7823L107.452 87.965C110.481 92.34 116.452 101.465 116.106 102.965C115.673 104.84 103.413 110.609 102.692 112.052H90.1447C88.8466 110.465 92.4524 105.85 96.6351 107.725C100.289 106.186 107.337 102.705 106.299 101.09Z" fill="url(#paint3_linear_9142_506)"/>
<path d="M106.299 101.09C105 99.0708 93.0293 97.0516 90.1447 83.7823L107.452 87.965C110.481 92.34 116.452 101.465 116.106 102.965C115.673 104.84 103.413 110.609 102.692 112.052H90.1447C88.8466 110.465 92.4524 105.85 96.6351 107.725C100.289 106.186 107.337 102.705 106.299 101.09Z" fill="url(#paint4_radial_9142_506)"/>
<path d="M106.299 101.09C105 99.0708 93.0293 97.0516 90.1447 83.7823L107.452 87.965C110.481 92.34 116.452 101.465 116.106 102.965C115.673 104.84 103.413 110.609 102.692 112.052H90.1447C88.8466 110.465 92.4524 105.85 96.6351 107.725C100.289 106.186 107.337 102.705 106.299 101.09Z" fill="url(#paint5_radial_9142_506)"/>
<path d="M62.8847 74.9968C58.8462 68.5268 59.8558 65.1624 49.4712 49.4043L71.6827 33.1573C72.452 36.5122 75.2308 43.2793 80.1923 43.5094C86.3943 43.7969 125.769 58.9097 129.952 69.9806C134.135 81.0515 127.212 85.3649 125.192 88.3842C123.173 91.4036 126.058 102.602 125.913 104.184C125.769 105.765 113.51 115.686 113.221 117.843H100.385C100.385 117.843 102.548 112.092 108.75 113.098L117.692 104.184C113.51 102.89 111.346 98.2889 106.587 93.2567C97.3558 93.0266 91.1058 86.8346 89.1347 83.7673C89.1827 92.8733 89.25 111.488 89.1347 113.098C88.9904 115.111 85.6731 117.268 84.952 119.712H71.6827C72.2597 115.111 79.1827 114.536 80.1923 113.961C81.202 113.386 82.6443 109.647 81.0577 106.916C79.7885 104.73 79.952 100.733 80.1923 99.0078C77.3558 91.771 69.9231 76.8372 62.8847 74.9968Z" fill="url(#paint6_linear_9142_506)"/>
<path d="M62.8847 74.9968C58.8462 68.5268 59.8558 65.1624 49.4712 49.4043L71.6827 33.1573C72.452 36.5122 75.2308 43.2793 80.1923 43.5094C86.3943 43.7969 125.769 58.9097 129.952 69.9806C134.135 81.0515 127.212 85.3649 125.192 88.3842C123.173 91.4036 126.058 102.602 125.913 104.184C125.769 105.765 113.51 115.686 113.221 117.843H100.385C100.385 117.843 102.548 112.092 108.75 113.098L117.692 104.184C113.51 102.89 111.346 98.2889 106.587 93.2567C97.3558 93.0266 91.1058 86.8346 89.1347 83.7673C89.1827 92.8733 89.25 111.488 89.1347 113.098C88.9904 115.111 85.6731 117.268 84.952 119.712H71.6827C72.2597 115.111 79.1827 114.536 80.1923 113.961C81.202 113.386 82.6443 109.647 81.0577 106.916C79.7885 104.73 79.952 100.733 80.1923 99.0078C77.3558 91.771 69.9231 76.8372 62.8847 74.9968Z" fill="url(#paint7_radial_9142_506)"/>
<path d="M62.8847 74.9968C58.8462 68.5268 59.8558 65.1624 49.4712 49.4043L71.6827 33.1573C72.452 36.5122 75.2308 43.2793 80.1923 43.5094C86.3943 43.7969 125.769 58.9097 129.952 69.9806C134.135 81.0515 127.212 85.3649 125.192 88.3842C123.173 91.4036 126.058 102.602 125.913 104.184C125.769 105.765 113.51 115.686 113.221 117.843H100.385C100.385 117.843 102.548 112.092 108.75 113.098L117.692 104.184C113.51 102.89 111.346 98.2889 106.587 93.2567C97.3558 93.0266 91.1058 86.8346 89.1347 83.7673C89.1827 92.8733 89.25 111.488 89.1347 113.098C88.9904 115.111 85.6731 117.268 84.952 119.712H71.6827C72.2597 115.111 79.1827 114.536 80.1923 113.961C81.202 113.386 82.6443 109.647 81.0577 106.916C79.7885 104.73 79.952 100.733 80.1923 99.0078C77.3558 91.771 69.9231 76.8372 62.8847 74.9968Z" fill="url(#paint8_radial_9142_506)"/>
<path d="M62.8847 74.9968C58.8462 68.5268 59.8558 65.1624 49.4712 49.4043L71.6827 33.1573C72.452 36.5122 75.2308 43.2793 80.1923 43.5094C86.3943 43.7969 125.769 58.9097 129.952 69.9806C134.135 81.0515 127.212 85.3649 125.192 88.3842C123.173 91.4036 126.058 102.602 125.913 104.184C125.769 105.765 113.51 115.686 113.221 117.843H100.385C100.385 117.843 102.548 112.092 108.75 113.098L117.692 104.184C113.51 102.89 111.346 98.2889 106.587 93.2567C97.3558 93.0266 91.1058 86.8346 89.1347 83.7673C89.1827 92.8733 89.25 111.488 89.1347 113.098C88.9904 115.111 85.6731 117.268 84.952 119.712H71.6827C72.2597 115.111 79.1827 114.536 80.1923 113.961C81.202 113.386 82.6443 109.647 81.0577 106.916C79.7885 104.73 79.952 100.733 80.1923 99.0078C77.3558 91.771 69.9231 76.8372 62.8847 74.9968Z" fill="url(#paint9_radial_9142_506)"/>
<path d="M62.8847 74.9968C58.8462 68.5268 59.8558 65.1624 49.4712 49.4043L71.6827 33.1573C72.452 36.5122 75.2308 43.2793 80.1923 43.5094C86.3943 43.7969 125.769 58.9097 129.952 69.9806C134.135 81.0515 127.212 85.3649 125.192 88.3842C123.173 91.4036 126.058 102.602 125.913 104.184C125.769 105.765 113.51 115.686 113.221 117.843H100.385C100.385 117.843 102.548 112.092 108.75 113.098L117.692 104.184C113.51 102.89 111.346 98.2889 106.587 93.2567C97.3558 93.0266 91.1058 86.8346 89.1347 83.7673C89.1827 92.8733 89.25 111.488 89.1347 113.098C88.9904 115.111 85.6731 117.268 84.952 119.712H71.6827C72.2597 115.111 79.1827 114.536 80.1923 113.961C81.202 113.386 82.6443 109.647 81.0577 106.916C79.7885 104.73 79.952 100.733 80.1923 99.0078C77.3558 91.771 69.9231 76.8372 62.8847 74.9968Z" fill="url(#paint10_radial_9142_506)"/>
<path d="M128.006 18.2875C114.269 42.2492 141.666 57.0929 130.084 75.4508L128.413 82.1976C167.784 79.6758 127.821 15.9398 169.179 13.6546C163.81 8.82918 141.743 -5.67429 128.006 18.2875Z" fill="url(#paint11_linear_9142_506)"/>
<path d="M128.006 18.2875C114.269 42.2492 141.666 57.0929 130.084 75.4508L128.413 82.1976C167.784 79.6758 127.821 15.9398 169.179 13.6546C163.81 8.82918 141.743 -5.67429 128.006 18.2875Z" fill="url(#paint12_radial_9142_506)"/>
<path d="M128.006 18.2875C114.269 42.2492 141.666 57.0929 130.084 75.4508L128.413 82.1976C167.784 79.6758 127.821 15.9398 169.179 13.6546C163.81 8.82918 141.743 -5.67429 128.006 18.2875Z" fill="url(#paint13_radial_9142_506)"/>
<path d="M157.935 47.8735C155.976 73.0082 190.386 73.1777 182.453 95.4025L188.672 107.452C241.299 95.8041 150.289 46.9363 215.5 25.1126C199.472 16.946 159.893 22.7388 157.935 47.8735Z" fill="url(#paint14_linear_9142_506)"/>
<path d="M157.935 47.8735C155.976 73.0082 190.386 73.1777 182.453 95.4025L188.672 107.452C241.299 95.8041 150.289 46.9363 215.5 25.1126C199.472 16.946 159.893 22.7388 157.935 47.8735Z" fill="url(#paint15_radial_9142_506)"/>
<path d="M157.935 47.8735C155.976 73.0082 190.386 73.1777 182.453 95.4025L188.672 107.452C241.299 95.8041 150.289 46.9363 215.5 25.1126C199.472 16.946 159.893 22.7388 157.935 47.8735Z" fill="url(#paint16_radial_9142_506)"/>
<path fill-rule="evenodd" clip-rule="evenodd" d="M71.9695 50.2923C70.2362 53.154 68.5171 55.9921 69.5195 61.4428C70.433 66.4099 72.3409 70.9703 74.1159 75.2132C76.8215 81.6805 79.2187 87.4105 77.3162 92.7201C73.6997 85.3429 68.1806 76.5176 62.8846 75.1285C61.378 72.7071 60.5739 70.7193 59.6187 68.3578C58.0136 64.3894 55.9816 59.3657 49.4712 49.4554L71.6827 33.1573C72.0919 34.9476 73.0698 37.7065 74.6424 39.9316C75.2495 44.8774 73.6032 47.5953 71.9695 50.2923Z" fill="url(#paint17_radial_9142_506)"/>
<path fill-rule="evenodd" clip-rule="evenodd" d="M62.4048 74.3325C62.5567 74.5931 62.7161 74.8581 62.8843 75.1284C69.5395 76.874 76.5471 90.3627 79.6885 97.9637C80.5323 93.1305 78.6371 84.3275 74.8555 78.5899C72.3963 74.8587 66.8262 74.119 62.4048 74.3325Z" fill="url(#paint18_radial_9142_506)"/>
<path d="M54.8321 55.5766C52.7877 55.471 51.4616 55.5957 50.0866 52.6758C52.1468 51.7148 57.0297 50.2571 60.0799 52.1148C59.4921 54.9366 56.8765 55.6823 54.8321 55.5766Z" fill="url(#paint19_linear_9142_506)"/>
<path d="M54.8321 55.5766C52.7877 55.471 51.4616 55.5957 50.0866 52.6758C52.1468 51.7148 57.0297 50.2571 60.0799 52.1148C59.4921 54.9366 56.8765 55.6823 54.8321 55.5766Z" fill="url(#paint20_radial_9142_506)"/>
<path d="M54.8321 55.5766C52.7877 55.471 51.4616 55.5957 50.0866 52.6758C52.1468 51.7148 57.0297 50.2571 60.0799 52.1148C59.4921 54.9366 56.8765 55.6823 54.8321 55.5766Z" fill="url(#paint21_radial_9142_506)"/>
<path fill-rule="evenodd" clip-rule="evenodd" d="M40.4639 44.4846C41.4798 45.7115 42.4798 46.6163 43.292 47.0401C45.5184 48.2018 47.2412 50.1011 48.4533 51.4374C48.906 51.9365 49.2875 52.3571 49.5973 52.6313C50.5088 53.4381 52.5305 53.202 53.7529 53.013C55.2785 53.3996 58.2067 53.8987 60.0571 52.3596C61.6304 51.051 63.7128 47.9264 65.6821 44.9714C66.6079 43.5822 67.5088 42.2306 68.3199 41.1227C69.1939 39.9291 70.1264 39.1603 70.9862 38.4514C71.7344 37.8345 72.4275 37.2631 72.9793 36.4966C74.373 35.4178 75.5434 34.7281 76.1477 34.972C75.8027 34.1416 74.8401 34.0319 73.977 34.2091C73.9963 34.1235 74.0146 34.036 74.0319 33.9465C75.9192 32.5541 77.5494 32.2994 78.2383 33.5441C78.6171 32.4328 76.4749 30.6144 74.3257 30.6152C75.3249 30.0729 76.4187 30.0018 77.2218 30.1965C77.32 29.4027 76.0399 28.3206 74.5959 27.9749C75.6027 27.2395 76.6816 27.1693 77.1692 27.2661C77.1297 26.9522 76.8198 26.6537 76.353 26.4111C76.6001 26.3107 76.826 26.1603 77.0126 25.9491C76.3836 25.9831 75.4592 25.3442 74.4702 24.1914C75.0098 24.3257 75.55 24.2624 75.9397 23.8211C75.3539 23.8528 74.5117 23.3008 73.5999 22.2934C73.5698 22.1761 73.5385 22.0592 73.506 21.9429C74.2975 22.4972 75.4038 22.8478 76.0701 22.0932C75.0687 22.1474 73.3182 20.4957 71.7507 17.7796L71.8739 18.2436C70.9958 16.92 69.8184 15.8139 68.2482 15.0701C64.1019 13.1063 58.4067 14.8652 54.6272 16.0325C53.6984 16.3193 52.8853 16.5705 52.2393 16.7218C49.5797 16.2403 43.0502 16.5907 39.1244 19.954C36.9601 21.8082 36.0747 25.1104 35.6278 27.8462C34.8607 29.1001 34.0762 29.8537 33.4634 29.9237C34.037 30.3872 34.7444 30.2264 35.3521 29.8404C35.3339 29.9933 35.3166 30.1414 35.3 30.284C35.2869 30.3972 35.2755 30.5108 35.266 30.6248C34.7659 31.2147 34.2863 31.5591 33.8815 31.6054C34.2908 31.9361 34.7681 31.949 35.2287 31.7891C35.2298 31.8532 35.2314 31.9173 35.2335 31.9816C34.5019 33.1295 33.7629 33.8159 33.1793 33.8826C33.431 34.0859 33.7083 34.1691 33.9917 34.1658C33.5218 34.4995 33.2304 34.8705 33.2448 35.2075C33.6894 35.0382 34.6937 34.9292 35.7572 35.4085C35.7674 35.4477 35.7778 35.4869 35.7884 35.5261C34.476 36.1286 33.4596 37.3603 33.6827 38.1054C34.4418 37.7793 35.5319 37.6667 36.6076 38.0343C34.4883 38.3924 32.6798 40.5433 33.239 41.5757C33.7498 40.1207 35.6457 40.218 37.9901 41.559C37.0065 41.4154 35.7748 41.61 35.5395 42.6343C36.2699 42.1849 38.2374 43.1662 40.4639 44.4846Z" fill="url(#paint22_linear_9142_506)"/>
<path fill-rule="evenodd" clip-rule="evenodd" d="M40.4639 44.4846C41.4798 45.7115 42.4798 46.6163 43.292 47.0401C45.5184 48.2018 47.2412 50.1011 48.4533 51.4374C48.906 51.9365 49.2875 52.3571 49.5973 52.6313C50.5088 53.4381 52.5305 53.202 53.7529 53.013C55.2785 53.3996 58.2067 53.8987 60.0571 52.3596C61.6304 51.051 63.7128 47.9264 65.6821 44.9714C66.6079 43.5822 67.5088 42.2306 68.3199 41.1227C69.1939 39.9291 70.1264 39.1603 70.9862 38.4514C71.7344 37.8345 72.4275 37.2631 72.9793 36.4966C74.373 35.4178 75.5434 34.7281 76.1477 34.972C75.8027 34.1416 74.8401 34.0319 73.977 34.2091C73.9963 34.1235 74.0146 34.036 74.0319 33.9465C75.9192 32.5541 77.5494 32.2994 78.2383 33.5441C78.6171 32.4328 76.4749 30.6144 74.3257 30.6152C75.3249 30.0729 76.4187 30.0018 77.2218 30.1965C77.32 29.4027 76.0399 28.3206 74.5959 27.9749C75.6027 27.2395 76.6816 27.1693 77.1692 27.2661C77.1297 26.9522 76.8198 26.6537 76.353 26.4111C76.6001 26.3107 76.826 26.1603 77.0126 25.9491C76.3836 25.9831 75.4592 25.3442 74.4702 24.1914C75.0098 24.3257 75.55 24.2624 75.9397 23.8211C75.3539 23.8528 74.5117 23.3008 73.5999 22.2934C73.5698 22.1761 73.5385 22.0592 73.506 21.9429C74.2975 22.4972 75.4038 22.8478 76.0701 22.0932C75.0687 22.1474 73.3182 20.4957 71.7507 17.7796L71.8739 18.2436C70.9958 16.92 69.8184 15.8139 68.2482 15.0701C64.1019 13.1063 58.4067 14.8652 54.6272 16.0325C53.6984 16.3193 52.8853 16.5705 52.2393 16.7218C49.5797 16.2403 43.0502 16.5907 39.1244 19.954C36.9601 21.8082 36.0747 25.1104 35.6278 27.8462C34.8607 29.1001 34.0762 29.8537 33.4634 29.9237C34.037 30.3872 34.7444 30.2264 35.3521 29.8404C35.3339 29.9933 35.3166 30.1414 35.3 30.284C35.2869 30.3972 35.2755 30.5108 35.266 30.6248C34.7659 31.2147 34.2863 31.5591 33.8815 31.6054C34.2908 31.9361 34.7681 31.949 35.2287 31.7891C35.2298 31.8532 35.2314 31.9173 35.2335 31.9816C34.5019 33.1295 33.7629 33.8159 33.1793 33.8826C33.431 34.0859 33.7083 34.1691 33.9917 34.1658C33.5218 34.4995 33.2304 34.8705 33.2448 35.2075C33.6894 35.0382 34.6937 34.9292 35.7572 35.4085C35.7674 35.4477 35.7778 35.4869 35.7884 35.5261C34.476 36.1286 33.4596 37.3603 33.6827 38.1054C34.4418 37.7793 35.5319 37.6667 36.6076 38.0343C34.4883 38.3924 32.6798 40.5433 33.239 41.5757C33.7498 40.1207 35.6457 40.218 37.9901 41.559C37.0065 41.4154 35.7748 41.61 35.5395 42.6343C36.2699 42.1849 38.2374 43.1662 40.4639 44.4846Z" fill="url(#paint23_radial_9142_506)"/>
<path fill-rule="evenodd" clip-rule="evenodd" d="M40.4639 44.4846C41.4798 45.7115 42.4798 46.6163 43.292 47.0401C45.5184 48.2018 47.2412 50.1011 48.4533 51.4374C48.906 51.9365 49.2875 52.3571 49.5973 52.6313C50.5088 53.4381 52.5305 53.202 53.7529 53.013C55.2785 53.3996 58.2067 53.8987 60.0571 52.3596C61.6304 51.051 63.7128 47.9264 65.6821 44.9714C66.6079 43.5822 67.5088 42.2306 68.3199 41.1227C69.1939 39.9291 70.1264 39.1603 70.9862 38.4514C71.7344 37.8345 72.4275 37.2631 72.9793 36.4966C74.373 35.4178 75.5434 34.7281 76.1477 34.972C75.8027 34.1416 74.8401 34.0319 73.977 34.2091C73.9963 34.1235 74.0146 34.036 74.0319 33.9465C75.9192 32.5541 77.5494 32.2994 78.2383 33.5441C78.6171 32.4328 76.4749 30.6144 74.3257 30.6152C75.3249 30.0729 76.4187 30.0018 77.2218 30.1965C77.32 29.4027 76.0399 28.3206 74.5959 27.9749C75.6027 27.2395 76.6816 27.1693 77.1692 27.2661C77.1297 26.9522 76.8198 26.6537 76.353 26.4111C76.6001 26.3107 76.826 26.1603 77.0126 25.9491C76.3836 25.9831 75.4592 25.3442 74.4702 24.1914C75.0098 24.3257 75.55 24.2624 75.9397 23.8211C75.3539 23.8528 74.5117 23.3008 73.5999 22.2934C73.5698 22.1761 73.5385 22.0592 73.506 21.9429C74.2975 22.4972 75.4038 22.8478 76.0701 22.0932C75.0687 22.1474 73.3182 20.4957 71.7507 17.7796L71.8739 18.2436C70.9958 16.92 69.8184 15.8139 68.2482 15.0701C64.1019 13.1063 58.4067 14.8652 54.6272 16.0325C53.6984 16.3193 52.8853 16.5705 52.2393 16.7218C49.5797 16.2403 43.0502 16.5907 39.1244 19.954C36.9601 21.8082 36.0747 25.1104 35.6278 27.8462C34.8607 29.1001 34.0762 29.8537 33.4634 29.9237C34.037 30.3872 34.7444 30.2264 35.3521 29.8404C35.3339 29.9933 35.3166 30.1414 35.3 30.284C35.2869 30.3972 35.2755 30.5108 35.266 30.6248C34.7659 31.2147 34.2863 31.5591 33.8815 31.6054C34.2908 31.9361 34.7681 31.949 35.2287 31.7891C35.2298 31.8532 35.2314 31.9173 35.2335 31.9816C34.5019 33.1295 33.7629 33.8159 33.1793 33.8826C33.431 34.0859 33.7083 34.1691 33.9917 34.1658C33.5218 34.4995 33.2304 34.8705 33.2448 35.2075C33.6894 35.0382 34.6937 34.9292 35.7572 35.4085C35.7674 35.4477 35.7778 35.4869 35.7884 35.5261C34.476 36.1286 33.4596 37.3603 33.6827 38.1054C34.4418 37.7793 35.5319 37.6667 36.6076 38.0343C34.4883 38.3924 32.6798 40.5433 33.239 41.5757C33.7498 40.1207 35.6457 40.218 37.9901 41.559C37.0065 41.4154 35.7748 41.61 35.5395 42.6343C36.2699 42.1849 38.2374 43.1662 40.4639 44.4846Z" fill="url(#paint24_radial_9142_506)"/>
<path fill-rule="evenodd" clip-rule="evenodd" d="M40.4639 44.4846C41.4798 45.7115 42.4798 46.6163 43.292 47.0401C45.5184 48.2018 47.2412 50.1011 48.4533 51.4374C48.906 51.9365 49.2875 52.3571 49.5973 52.6313C50.5088 53.4381 52.5305 53.202 53.7529 53.013C55.2785 53.3996 58.2067 53.8987 60.0571 52.3596C61.6304 51.051 63.7128 47.9264 65.6821 44.9714C66.6079 43.5822 67.5088 42.2306 68.3199 41.1227C69.1939 39.9291 70.1264 39.1603 70.9862 38.4514C71.7344 37.8345 72.4275 37.2631 72.9793 36.4966C74.373 35.4178 75.5434 34.7281 76.1477 34.972C75.8027 34.1416 74.8401 34.0319 73.977 34.2091C73.9963 34.1235 74.0146 34.036 74.0319 33.9465C75.9192 32.5541 77.5494 32.2994 78.2383 33.5441C78.6171 32.4328 76.4749 30.6144 74.3257 30.6152C75.3249 30.0729 76.4187 30.0018 77.2218 30.1965C77.32 29.4027 76.0399 28.3206 74.5959 27.9749C75.6027 27.2395 76.6816 27.1693 77.1692 27.2661C77.1297 26.9522 76.8198 26.6537 76.353 26.4111C76.6001 26.3107 76.826 26.1603 77.0126 25.9491C76.3836 25.9831 75.4592 25.3442 74.4702 24.1914C75.0098 24.3257 75.55 24.2624 75.9397 23.8211C75.3539 23.8528 74.5117 23.3008 73.5999 22.2934C73.5698 22.1761 73.5385 22.0592 73.506 21.9429C74.2975 22.4972 75.4038 22.8478 76.0701 22.0932C75.0687 22.1474 73.3182 20.4957 71.7507 17.7796L71.8739 18.2436C70.9958 16.92 69.8184 15.8139 68.2482 15.0701C64.1019 13.1063 58.4067 14.8652 54.6272 16.0325C53.6984 16.3193 52.8853 16.5705 52.2393 16.7218C49.5797 16.2403 43.0502 16.5907 39.1244 19.954C36.9601 21.8082 36.0747 25.1104 35.6278 27.8462C34.8607 29.1001 34.0762 29.8537 33.4634 29.9237C34.037 30.3872 34.7444 30.2264 35.3521 29.8404C35.3339 29.9933 35.3166 30.1414 35.3 30.284C35.2869 30.3972 35.2755 30.5108 35.266 30.6248C34.7659 31.2147 34.2863 31.5591 33.8815 31.6054C34.2908 31.9361 34.7681 31.949 35.2287 31.7891C35.2298 31.8532 35.2314 31.9173 35.2335 31.9816C34.5019 33.1295 33.7629 33.8159 33.1793 33.8826C33.431 34.0859 33.7083 34.1691 33.9917 34.1658C33.5218 34.4995 33.2304 34.8705 33.2448 35.2075C33.6894 35.0382 34.6937 34.9292 35.7572 35.4085C35.7674 35.4477 35.7778 35.4869 35.7884 35.5261C34.476 36.1286 33.4596 37.3603 33.6827 38.1054C34.4418 37.7793 35.5319 37.6667 36.6076 38.0343C34.4883 38.3924 32.6798 40.5433 33.239 41.5757C33.7498 40.1207 35.6457 40.218 37.9901 41.559C37.0065 41.4154 35.7748 41.61 35.5395 42.6343C36.2699 42.1849 38.2374 43.1662 40.4639 44.4846Z" fill="url(#paint25_radial_9142_506)"/>
<path d="M49.6014 40.0791C48.2683 42.3668 45.9555 47.7469 47.3688 50.9661C43.2115 47.9276 36.3287 40.9304 42.0567 37.2498C47.7848 33.5692 49.4732 37.6024 49.6014 40.0791Z" fill="url(#paint26_radial_9142_506)"/>
<path d="M57.6933 39.6231C59.4168 41.7715 62.6582 46.9566 61.836 50.5104C65.3997 46.7004 70.9492 38.3609 64.6385 35.4827C58.3277 32.6046 57.3789 37.0438 57.6933 39.6231Z" fill="url(#paint27_radial_9142_506)"/>
<path fill-rule="evenodd" clip-rule="evenodd" d="M61.8984 50.3675C62.6573 46.5132 58.4595 37.4981 53.2226 38.193C48.8658 38.7711 46.3842 45.0351 47.1058 49.9957C47.6094 50.5061 48.0589 51.0017 48.4541 51.4374L48.4541 51.4374L48.4542 51.4374C48.9068 51.9365 49.2883 52.357 49.5981 52.6313C50.5096 53.438 52.5312 53.2019 53.7536 53.013C55.2792 53.3996 58.2074 53.8986 60.0577 52.3596C60.6164 51.8949 61.2392 51.2013 61.8984 50.3675Z" fill="url(#paint28_radial_9142_506)"/>
<path fill-rule="evenodd" clip-rule="evenodd" d="M43.2945 47.0406C42.4823 46.6168 41.4824 45.712 40.4664 44.4851C39.5157 43.9222 38.6122 43.4207 37.832 43.0658C41.2182 41.6531 45.3077 44.7842 47.0999 46.7512C48.4162 46.0176 50.1059 48.3146 50.7863 49.5548L56.3865 49.4119C56.9261 48.0099 58.6466 45.3798 61.212 46.0756C61.5583 46.1074 62.1684 45.2469 63.0059 44.0656C64.9097 41.3804 67.9884 37.0381 71.8142 37.7541C71.5502 37.9889 71.2734 38.2171 70.9887 38.4519C70.1289 39.1608 69.1964 39.9296 68.3224 41.1233C67.5112 42.2311 66.6104 43.5827 65.6846 44.9719C63.7153 47.9269 61.6329 51.0515 60.0595 52.3601C58.2092 53.8992 55.281 53.4001 53.7554 53.0135C52.5329 53.2025 50.5113 53.4386 49.5998 52.6318C49.29 52.3576 48.9085 51.9371 48.4559 51.438L48.4558 51.438L48.4558 51.4379C47.2437 50.1016 45.5208 48.2023 43.2945 47.0406Z" fill="url(#paint29_radial_9142_506)"/>
<path d="M71.0538 2.42831C66.4345 4.41413 57.868 10.5509 60.5562 19.2114C63.734 19.5033 67.7529 23.159 70.528 26.0432C78.1803 17.8724 73.8425 6.65573 71.0538 2.42831Z" fill="url(#paint30_linear_9142_506)"/>
<path d="M71.0538 2.42831C66.4345 4.41413 57.868 10.5509 60.5562 19.2114C63.734 19.5033 67.7529 23.159 70.528 26.0432C78.1803 17.8724 73.8425 6.65573 71.0538 2.42831Z" fill="url(#paint31_radial_9142_506)"/>
<path d="M71.0538 2.42831C66.4345 4.41413 57.868 10.5509 60.5562 19.2114C63.734 19.5033 67.7529 23.159 70.528 26.0432C78.1803 17.8724 73.8425 6.65573 71.0538 2.42831Z" fill="url(#paint32_radial_9142_506)"/>
<path d="M41.6987 37.9969C43.95 35.41 48.5112 35.467 49.0898 38.0782C49.6685 40.6893 47.9579 41.8348 45.2167 41.7586C42.4755 41.6824 42.7781 38.8241 41.6987 37.9969Z" fill="url(#paint33_radial_9142_506)"/>
<path d="M39.4024 40.8636C39.6164 40.1557 40.647 38.3724 43.0607 36.9026C45.3451 35.7755 46.5846 36.9047 46.9188 37.6101C45.3029 38.9444 41.5375 41.4631 39.4024 40.8636Z" fill="url(#paint34_radial_9142_506)"/>
<path d="M68.1663 39.8715C67.9005 39.1815 66.7404 37.4795 64.2244 36.1927C61.8628 35.2381 60.7104 36.456 60.4294 37.1843C62.1397 38.3951 66.0815 40.6277 68.1663 39.8715Z" fill="url(#paint35_radial_9142_506)"/>
<path d="M48.4719 40.3294C47.9891 41.0979 45.6647 41.8195 44.4442 41.019C43.2238 40.2185 42.8833 38.5802 43.6838 37.3597C44.4843 36.1393 46.1226 35.7988 47.343 36.5993C48.5635 37.3998 48.9547 39.5609 48.4719 40.3294Z" fill="url(#paint36_radial_9142_506)"/>
<path d="M48.4719 40.3294C47.9891 41.0979 45.6647 41.8195 44.4442 41.019C43.2238 40.2185 42.8833 38.5802 43.6838 37.3597C44.4843 36.1393 46.1226 35.7988 47.343 36.5993C48.5635 37.3998 48.9547 39.5609 48.4719 40.3294Z" fill="url(#paint37_radial_9142_506)"/>
<path d="M46.1694 37.8783C46.2456 38.245 46.6047 38.4805 46.9714 38.4043C47.3381 38.3281 47.5736 37.969 47.4974 37.6023C47.4212 37.2356 47.0621 37.0001 46.6954 37.0763C46.3287 37.1525 46.0932 37.5116 46.1694 37.8783Z" fill="white"/>
<path d="M47.1032 40.6527C45.4348 41.769 43.2643 40.3032 43.8404 38.3742C43.828 39.126 44.3285 39.8181 44.8793 40.224C45.427 40.6276 46.2982 40.7926 47.1032 40.6527Z" fill="white" fill-opacity="0.4"/>
<path d="M64.9979 36.744C63.3042 35.0534 58.4833 34.79 57.9534 37.4115C57.4235 40.0329 59.1554 41.1463 61.895 41.0191C64.6347 40.8918 63.9339 37.5911 64.9979 36.744Z" fill="url(#paint38_radial_9142_506)"/>
<path d="M58.6145 39.6505C59.1115 40.4099 61.449 41.088 62.6543 40.2649C63.8596 39.4418 64.1694 37.7974 63.3463 36.5921C62.5232 35.3868 60.8789 35.077 59.6736 35.9001C58.4682 36.7232 58.1174 38.8911 58.6145 39.6505Z" fill="url(#paint39_radial_9142_506)"/>
<path d="M58.6145 39.6505C59.1115 40.4099 61.449 41.088 62.6543 40.2649C63.8596 39.4418 64.1694 37.7974 63.3463 36.5921C62.5232 35.3868 60.8789 35.077 59.6736 35.9001C58.4682 36.7232 58.1174 38.8911 58.6145 39.6505Z" fill="url(#paint40_radial_9142_506)"/>
<path d="M62.3479 37.1059C62.2772 37.481 61.9159 37.7277 61.5408 37.657C61.1658 37.5864 60.919 37.225 60.9897 36.85C61.0604 36.4749 61.4217 36.2282 61.7968 36.2989C62.1718 36.3695 62.4186 36.7309 62.3479 37.1059Z" fill="white"/>
<path d="M61.8126 40.107C59.9027 40.7253 58.2149 38.7226 59.2958 37.0241C59.0786 37.7441 59.3711 38.5465 59.7902 39.0873C60.2069 39.6252 60.9999 40.0218 61.8126 40.107Z" fill="white" fill-opacity="0.4"/>
<path fill-rule="evenodd" clip-rule="evenodd" d="M65.2475 21.3288C64.3174 18.1196 67.364 16.9943 67.957 17.3622C66.9208 15.7551 65.1154 16.0877 64.3422 16.4548C64.703 15.8034 65.7033 14.5096 66.8181 14.5463C65.9002 13.8047 64.4471 13.6848 63.6345 13.884C63.974 12.8744 65.3838 11.5552 67.1025 11.4501C65.3898 10.767 63.9152 10.8286 63.9152 10.8286C64.0586 9.26717 69.6806 5.44086 72.4621 4.96659C71.9901 3.96772 71.5018 3.10774 71.0536 2.4283C66.4344 4.41408 57.8681 10.5507 60.5563 19.2111C62.0105 19.3446 63.6408 20.1826 65.2475 21.3288Z" fill="url(#paint41_linear_9142_506)"/>
<path fill-rule="evenodd" clip-rule="evenodd" d="M65.2475 21.3288C64.3174 18.1196 67.364 16.9943 67.957 17.3622C66.9208 15.7551 65.1154 16.0877 64.3422 16.4548C64.703 15.8034 65.7033 14.5096 66.8181 14.5463C65.9002 13.8047 64.4471 13.6848 63.6345 13.884C63.974 12.8744 65.3838 11.5552 67.1025 11.4501C65.3898 10.767 63.9152 10.8286 63.9152 10.8286C64.0586 9.26717 69.6806 5.44086 72.4621 4.96659C71.9901 3.96772 71.5018 3.10774 71.0536 2.4283C66.4344 4.41408 57.8681 10.5507 60.5563 19.2111C62.0105 19.3446 63.6408 20.1826 65.2475 21.3288Z" fill="url(#paint42_radial_9142_506)"/>
<path d="M50.1816 48.9004C50.3334 48.5 51.1058 47.6535 52.981 47.4705C55.5059 47.3385 56.8174 47.966 56.8907 48.5656C57.2023 51.1161 54.9283 52.0573 53.6673 52.0608C52.4063 52.0643 50.1403 51.4792 50.1816 48.9004Z" fill="url(#paint43_radial_9142_506)"/>
<path fill-rule="evenodd" clip-rule="evenodd" d="M56.9111 49.2843C56.7976 50.7727 55.6971 51.5771 54.6726 51.8959C54.2207 50.1248 55.6088 49.1391 56.9111 49.2843Z" fill="url(#paint44_radial_9142_506)"/>
<path fill-rule="evenodd" clip-rule="evenodd" d="M52.2784 51.8442C51.2884 51.5229 50.3147 50.7889 50.1947 49.2869C51.4375 49.2474 52.6776 50.2239 52.2784 51.8442Z" fill="url(#paint45_radial_9142_506)"/>
<path d="M33.6594 5.38926C38.5039 6.73535 47.8183 11.6634 46.3201 20.6069C43.2105 21.3238 39.7202 25.4871 37.3585 28.7185C28.6761 21.652 31.465 9.95353 33.6594 5.38926Z" fill="url(#paint46_linear_9142_506)"/>
<path d="M33.6594 5.38926C38.5039 6.73535 47.8183 11.6634 46.3201 20.6069C43.2105 21.3238 39.7202 25.4871 37.3585 28.7185C28.6761 21.652 31.465 9.95353 33.6594 5.38926Z" fill="url(#paint47_radial_9142_506)"/>
<path d="M33.6594 5.38926C38.5039 6.73535 47.8183 11.6634 46.3201 20.6069C43.2105 21.3238 39.7202 25.4871 37.3585 28.7185C28.6761 21.652 31.465 9.95353 33.6594 5.38926Z" fill="url(#paint48_radial_9142_506)"/>
<path fill-rule="evenodd" clip-rule="evenodd" d="M41.9592 23.3342C42.4471 20.031 39.2781 19.3264 38.7401 19.7707C39.5506 18.0387 41.3844 18.1253 42.2 18.3851C41.7548 17.7881 40.5894 16.6407 39.4897 16.8271C40.2994 15.9687 41.7232 15.6543 42.5552 15.7423C42.0829 14.7876 40.5084 13.6701 38.7912 13.7973C40.3964 12.8898 41.8659 12.7524 41.8659 12.7524C41.5135 11.2241 35.4245 8.18791 32.6054 8.09385C32.9387 7.04061 33.3067 6.1228 33.6594 5.38926C38.5039 6.73535 47.8183 11.6634 46.3201 20.6069C44.898 20.9348 43.3962 21.9835 41.9592 23.3342Z" fill="url(#paint49_linear_9142_506)"/>
<path fill-rule="evenodd" clip-rule="evenodd" d="M41.9592 23.3342C42.4471 20.031 39.2781 19.3264 38.7401 19.7707C39.5506 18.0387 41.3844 18.1253 42.2 18.3851C41.7548 17.7881 40.5894 16.6407 39.4897 16.8271C40.2994 15.9687 41.7232 15.6543 42.5552 15.7423C42.0829 14.7876 40.5084 13.6701 38.7912 13.7973C40.3964 12.8898 41.8659 12.7524 41.8659 12.7524C41.5135 11.2241 35.4245 8.18791 32.6054 8.09385C32.9387 7.04061 33.3067 6.1228 33.6594 5.38926C38.5039 6.73535 47.8183 11.6634 46.3201 20.6069C44.898 20.9348 43.3962 21.9835 41.9592 23.3342Z" fill="url(#paint50_radial_9142_506)"/>
<path d="M123.606 108.462C110.798 103.731 100.529 77.3077 100.529 64.3269L122.596 62.1635C123.606 71.3942 149.423 81.2019 171.49 86.25C193.558 91.2981 196.587 114.663 187.212 119.712H157.5C149.192 119.712 139.327 112.212 135.433 108.462C135.096 111.442 134.106 117.865 132.837 119.712H124.471C125.163 117.288 124.183 111.202 123.606 108.462Z" fill="url(#paint51_linear_9142_506)"/>
<path d="M123.606 108.462C110.798 103.731 100.529 77.3077 100.529 64.3269L122.596 62.1635C123.606 71.3942 149.423 81.2019 171.49 86.25C193.558 91.2981 196.587 114.663 187.212 119.712H157.5C149.192 119.712 139.327 112.212 135.433 108.462C135.096 111.442 134.106 117.865 132.837 119.712H124.471C125.163 117.288 124.183 111.202 123.606 108.462Z" fill="url(#paint52_radial_9142_506)"/>
<path d="M123.606 108.462C110.798 103.731 100.529 77.3077 100.529 64.3269L122.596 62.1635C123.606 71.3942 149.423 81.2019 171.49 86.25C193.558 91.2981 196.587 114.663 187.212 119.712H157.5C149.192 119.712 139.327 112.212 135.433 108.462C135.096 111.442 134.106 117.865 132.837 119.712H124.471C125.163 117.288 124.183 111.202 123.606 108.462Z" fill="url(#paint53_radial_9142_506)"/>
<path d="M123.606 108.462C110.798 103.731 100.529 77.3077 100.529 64.3269L122.596 62.1635C123.606 71.3942 149.423 81.2019 171.49 86.25C193.558 91.2981 196.587 114.663 187.212 119.712H157.5C149.192 119.712 139.327 112.212 135.433 108.462C135.096 111.442 134.106 117.865 132.837 119.712H124.471C125.163 117.288 124.183 111.202 123.606 108.462Z" fill="url(#paint54_radial_9142_506)"/>
<path d="M146.971 105.123C145.096 104.265 140.914 101.404 137.019 95.8262C128.318 86.5294 143.653 82.2385 145.096 88.1027C146.538 93.9668 158.076 102.262 156.49 105.123C155.221 107.411 153.461 115.802 152.74 119.712H145.096L146.971 105.123Z" fill="url(#paint55_linear_9142_506)"/>
<path d="M146.971 105.123C145.096 104.265 140.914 101.404 137.019 95.8262C128.318 86.5294 143.653 82.2385 145.096 88.1027C146.538 93.9668 158.076 102.262 156.49 105.123C155.221 107.411 153.461 115.802 152.74 119.712H145.096L146.971 105.123Z" fill="url(#paint56_radial_9142_506)"/>
<path d="M146.971 105.123C145.096 104.265 140.914 101.404 137.019 95.8262C128.318 86.5294 143.653 82.2385 145.096 88.1027C146.538 93.9668 158.076 102.262 156.49 105.123C155.221 107.411 153.461 115.802 152.74 119.712H145.096L146.971 105.123Z" fill="url(#paint57_radial_9142_506)"/>
<path d="M104.397 79.0663C102.346 78.3587 100.96 78.0965 100.416 74.7196C102.796 74.3456 108.196 74.2944 110.757 77.0813C109.33 79.7822 106.448 79.7739 104.397 79.0663Z" fill="url(#paint58_linear_9142_506)"/>
<path d="M104.397 79.0663C102.346 78.3587 100.96 78.0965 100.416 74.7196C102.796 74.3456 108.196 74.2944 110.757 77.0813C109.33 79.7822 106.448 79.7739 104.397 79.0663Z" fill="url(#paint59_radial_9142_506)"/>
<path d="M104.397 79.0663C102.346 78.3587 100.96 78.0965 100.416 74.7196C102.796 74.3456 108.196 74.2944 110.757 77.0813C109.33 79.7822 106.448 79.7739 104.397 79.0663Z" fill="url(#paint60_radial_9142_506)"/>
<path fill-rule="evenodd" clip-rule="evenodd" d="M92.6392 64.1568C93.3135 65.7036 94.0659 66.918 94.7685 67.5877C97.414 70.1099 100.025 74.1794 100.89 75.5407C101.54 76.5643 102.845 76.7273 104.08 76.8813C104.158 76.8911 104.237 76.9009 104.315 76.9109C105.755 77.7524 107.244 78.548 109.58 77.5239C112.5 76.2437 118.391 71.6908 121.991 68.9075C123.231 67.9485 124.407 67.4393 125.49 66.9697C126.433 66.5612 127.307 66.1827 128.094 65.5641C129.829 64.8747 131.224 64.5158 131.767 64.9415C131.66 63.9947 130.712 63.6005 129.781 63.5276C129.826 63.4462 129.87 63.3627 129.914 63.2768C132.245 62.4122 133.98 62.6312 134.316 64.1011C135.028 63.0806 133.38 60.5999 131.191 59.9702C132.368 59.7112 133.503 59.9598 134.263 60.3938C134.596 59.6142 133.61 58.1363 132.241 57.3606C133.482 56.9076 134.601 57.1527 135.069 57.3943C135.12 57.0631 134.893 56.6682 134.488 56.2842C134.77 56.2546 135.045 56.1678 135.297 56.0071C134.647 55.8571 133.893 54.9353 133.224 53.4712C133.734 53.7663 134.303 53.8604 134.829 53.5254C134.223 53.3856 133.527 52.5756 132.894 51.2811C132.898 51.153 132.9 51.0251 132.901 50.8973C133.544 51.6947 134.569 52.3775 135.469 51.8043C134.434 51.5656 133.136 49.3699 132.337 46.1441L132.326 46.6558C131.82 45.0491 130.946 43.576 129.564 42.3569C125.918 39.1403 119.603 39.2599 115.411 39.3393C114.382 39.3588 113.48 39.3759 112.778 39.3404C110.211 38.0695 103.459 36.51 98.4741 38.7826C95.7257 40.0357 93.8548 43.139 92.5968 45.7939C91.448 46.845 90.4284 47.3818 89.784 47.2733C90.232 47.9135 90.9992 47.9575 91.7311 47.743C91.6677 47.8933 91.6066 48.039 91.5479 48.1794C91.5011 48.2912 91.456 48.404 91.4127 48.5178C90.7312 48.9708 90.1425 49.1803 89.7171 49.1087C90.0365 49.5651 90.5181 49.7185 91.0335 49.6912C91.0159 49.7566 90.9987 49.8223 90.982 49.8882C89.9 50.8426 88.9458 51.3248 88.3319 51.2214C88.5286 51.5025 88.7868 51.6686 89.0766 51.7484C88.5005 51.9503 88.0951 52.2425 88.0109 52.5897C88.5132 52.5478 89.5674 52.7315 90.5095 53.5311C90.5084 53.5743 90.5075 53.6175 90.5067 53.6607C88.9935 53.8892 87.5972 54.8451 87.6057 55.6692C88.4745 55.56 89.6176 55.7653 90.6051 56.4553C88.3419 56.1979 85.8689 57.8574 86.1354 59.0728C87.0827 57.7409 88.9851 58.3967 90.9791 60.451C90.0195 60.0156 88.707 59.8514 88.1664 60.826C89.0422 60.5827 90.7584 62.1602 92.6392 64.1568Z" fill="url(#paint61_linear_9142_506)"/>
<path fill-rule="evenodd" clip-rule="evenodd" d="M92.6392 64.1568C93.3135 65.7036 94.0659 66.918 94.7685 67.5877C97.414 70.1099 100.025 74.1794 100.89 75.5407C101.54 76.5643 102.845 76.7273 104.08 76.8813C104.158 76.8911 104.237 76.9009 104.315 76.9109C105.755 77.7524 107.244 78.548 109.58 77.5239C112.5 76.2437 118.391 71.6908 121.991 68.9075C123.231 67.9485 124.407 67.4393 125.49 66.9697C126.433 66.5612 127.307 66.1827 128.094 65.5641C129.829 64.8747 131.224 64.5158 131.767 64.9415C131.66 63.9947 130.712 63.6005 129.781 63.5276C129.826 63.4462 129.87 63.3627 129.914 63.2768C132.245 62.4122 133.98 62.6312 134.316 64.1011C135.028 63.0806 133.38 60.5999 131.191 59.9702C132.368 59.7112 133.503 59.9598 134.263 60.3938C134.596 59.6142 133.61 58.1363 132.241 57.3606C133.482 56.9076 134.601 57.1527 135.069 57.3943C135.12 57.0631 134.893 56.6682 134.488 56.2842C134.77 56.2546 135.045 56.1678 135.297 56.0071C134.647 55.8571 133.893 54.9353 133.224 53.4712C133.734 53.7663 134.303 53.8604 134.829 53.5254C134.223 53.3856 133.527 52.5756 132.894 51.2811C132.898 51.153 132.9 51.0251 132.901 50.8973C133.544 51.6947 134.569 52.3775 135.469 51.8043C134.434 51.5656 133.136 49.3699 132.337 46.1441L132.326 46.6558C131.82 45.0491 130.946 43.576 129.564 42.3569C125.918 39.1403 119.603 39.2599 115.411 39.3393C114.382 39.3588 113.48 39.3759 112.778 39.3404C110.211 38.0695 103.459 36.51 98.4741 38.7826C95.7257 40.0357 93.8548 43.139 92.5968 45.7939C91.448 46.845 90.4284 47.3818 89.784 47.2733C90.232 47.9135 90.9992 47.9575 91.7311 47.743C91.6677 47.8933 91.6066 48.039 91.5479 48.1794C91.5011 48.2912 91.456 48.404 91.4127 48.5178C90.7312 48.9708 90.1425 49.1803 89.7171 49.1087C90.0365 49.5651 90.5181 49.7185 91.0335 49.6912C91.0159 49.7566 90.9987 49.8223 90.982 49.8882C89.9 50.8426 88.9458 51.3248 88.3319 51.2214C88.5286 51.5025 88.7868 51.6686 89.0766 51.7484C88.5005 51.9503 88.0951 52.2425 88.0109 52.5897C88.5132 52.5478 89.5674 52.7315 90.5095 53.5311C90.5084 53.5743 90.5075 53.6175 90.5067 53.6607C88.9935 53.8892 87.5972 54.8451 87.6057 55.6692C88.4745 55.56 89.6176 55.7653 90.6051 56.4553C88.3419 56.1979 85.8689 57.8574 86.1354 59.0728C87.0827 57.7409 88.9851 58.3967 90.9791 60.451C90.0195 60.0156 88.707 59.8514 88.1664 60.826C89.0422 60.5827 90.7584 62.1602 92.6392 64.1568Z" fill="url(#paint62_radial_9142_506)"/>
<path fill-rule="evenodd" clip-rule="evenodd" d="M92.6392 64.1568C93.3135 65.7036 94.0659 66.918 94.7685 67.5877C97.414 70.1099 100.025 74.1794 100.89 75.5407C101.54 76.5643 102.845 76.7273 104.08 76.8813C104.158 76.8911 104.237 76.9009 104.315 76.9109C105.755 77.7524 107.244 78.548 109.58 77.5239C112.5 76.2437 118.391 71.6908 121.991 68.9075C123.231 67.9485 124.407 67.4393 125.49 66.9697C126.433 66.5612 127.307 66.1827 128.094 65.5641C129.829 64.8747 131.224 64.5158 131.767 64.9415C131.66 63.9947 130.712 63.6005 129.781 63.5276C129.826 63.4462 129.87 63.3627 129.914 63.2768C132.245 62.4122 133.98 62.6312 134.316 64.1011C135.028 63.0806 133.38 60.5999 131.191 59.9702C132.368 59.7112 133.503 59.9598 134.263 60.3938C134.596 59.6142 133.61 58.1363 132.241 57.3606C133.482 56.9076 134.601 57.1527 135.069 57.3943C135.12 57.0631 134.893 56.6682 134.488 56.2842C134.77 56.2546 135.045 56.1678 135.297 56.0071C134.647 55.8571 133.893 54.9353 133.224 53.4712C133.734 53.7663 134.303 53.8604 134.829 53.5254C134.223 53.3856 133.527 52.5756 132.894 51.2811C132.898 51.153 132.9 51.0251 132.901 50.8973C133.544 51.6947 134.569 52.3775 135.469 51.8043C134.434 51.5656 133.136 49.3699 132.337 46.1441L132.326 46.6558C131.82 45.0491 130.946 43.576 129.564 42.3569C125.918 39.1403 119.603 39.2599 115.411 39.3393C114.382 39.3588 113.48 39.3759 112.778 39.3404C110.211 38.0695 103.459 36.51 98.4741 38.7826C95.7257 40.0357 93.8548 43.139 92.5968 45.7939C91.448 46.845 90.4284 47.3818 89.784 47.2733C90.232 47.9135 90.9992 47.9575 91.7311 47.743C91.6677 47.8933 91.6066 48.039 91.5479 48.1794C91.5011 48.2912 91.456 48.404 91.4127 48.5178C90.7312 48.9708 90.1425 49.1803 89.7171 49.1087C90.0365 49.5651 90.5181 49.7185 91.0335 49.6912C91.0159 49.7566 90.9987 49.8223 90.982 49.8882C89.9 50.8426 88.9458 51.3248 88.3319 51.2214C88.5286 51.5025 88.7868 51.6686 89.0766 51.7484C88.5005 51.9503 88.0951 52.2425 88.0109 52.5897C88.5132 52.5478 89.5674 52.7315 90.5095 53.5311C90.5084 53.5743 90.5075 53.6175 90.5067 53.6607C88.9935 53.8892 87.5972 54.8451 87.6057 55.6692C88.4745 55.56 89.6176 55.7653 90.6051 56.4553C88.3419 56.1979 85.8689 57.8574 86.1354 59.0728C87.0827 57.7409 88.9851 58.3967 90.9791 60.451C90.0195 60.0156 88.707 59.8514 88.1664 60.826C89.0422 60.5827 90.7584 62.1602 92.6392 64.1568Z" fill="url(#paint63_radial_9142_506)"/>
<path fill-rule="evenodd" clip-rule="evenodd" d="M92.6392 64.1568C93.3135 65.7036 94.0659 66.918 94.7685 67.5877C97.414 70.1099 100.025 74.1794 100.89 75.5407C101.54 76.5643 102.845 76.7273 104.08 76.8813C104.158 76.8911 104.237 76.9009 104.315 76.9109C105.755 77.7524 107.244 78.548 109.58 77.5239C112.5 76.2437 118.391 71.6908 121.991 68.9075C123.231 67.9485 124.407 67.4393 125.49 66.9697C126.433 66.5612 127.307 66.1827 128.094 65.5641C129.829 64.8747 131.224 64.5158 131.767 64.9415C131.66 63.9947 130.712 63.6005 129.781 63.5276C129.826 63.4462 129.87 63.3627 129.914 63.2768C132.245 62.4122 133.98 62.6312 134.316 64.1011C135.028 63.0806 133.38 60.5999 131.191 59.9702C132.368 59.7112 133.503 59.9598 134.263 60.3938C134.596 59.6142 133.61 58.1363 132.241 57.3606C133.482 56.9076 134.601 57.1527 135.069 57.3943C135.12 57.0631 134.893 56.6682 134.488 56.2842C134.77 56.2546 135.045 56.1678 135.297 56.0071C134.647 55.8571 133.893 54.9353 133.224 53.4712C133.734 53.7663 134.303 53.8604 134.829 53.5254C134.223 53.3856 133.527 52.5756 132.894 51.2811C132.898 51.153 132.9 51.0251 132.901 50.8973C133.544 51.6947 134.569 52.3775 135.469 51.8043C134.434 51.5656 133.136 49.3699 132.337 46.1441L132.326 46.6558C131.82 45.0491 130.946 43.576 129.564 42.3569C125.918 39.1403 119.603 39.2599 115.411 39.3393C114.382 39.3588 113.48 39.3759 112.778 39.3404C110.211 38.0695 103.459 36.51 98.4741 38.7826C95.7257 40.0357 93.8548 43.139 92.5968 45.7939C91.448 46.845 90.4284 47.3818 89.784 47.2733C90.232 47.9135 90.9992 47.9575 91.7311 47.743C91.6677 47.8933 91.6066 48.039 91.5479 48.1794C91.5011 48.2912 91.456 48.404 91.4127 48.5178C90.7312 48.9708 90.1425 49.1803 89.7171 49.1087C90.0365 49.5651 90.5181 49.7185 91.0335 49.6912C91.0159 49.7566 90.9987 49.8223 90.982 49.8882C89.9 50.8426 88.9458 51.3248 88.3319 51.2214C88.5286 51.5025 88.7868 51.6686 89.0766 51.7484C88.5005 51.9503 88.0951 52.2425 88.0109 52.5897C88.5132 52.5478 89.5674 52.7315 90.5095 53.5311C90.5084 53.5743 90.5075 53.6175 90.5067 53.6607C88.9935 53.8892 87.5972 54.8451 87.6057 55.6692C88.4745 55.56 89.6176 55.7653 90.6051 56.4553C88.3419 56.1979 85.8689 57.8574 86.1354 59.0728C87.0827 57.7409 88.9851 58.3967 90.9791 60.451C90.0195 60.0156 88.707 59.8514 88.1664 60.826C89.0422 60.5827 90.7584 62.1602 92.6392 64.1568Z" fill="url(#paint64_radial_9142_506)"/>
<path fill-rule="evenodd" clip-rule="evenodd" d="M99.511 73.4393C99.561 69.6977 102.491 64.6891 104.388 62.8127C105.002 60.1693 104.081 55.4705 97.1244 57.7095C92.3191 59.2562 93.7245 64.4977 96.1507 69.0367C97.4196 70.4794 98.6076 72.1155 99.511 73.4393Z" fill="url(#paint65_radial_9142_506)"/>
<path fill-rule="evenodd" clip-rule="evenodd" d="M118.223 71.7929C121.434 68.8315 123.475 65.2684 120.4 62.296C115.115 57.1875 112.596 61.286 111.997 63.9738C112.958 66.7298 113.618 73.5575 110.95 76.8028C111.031 76.7605 111.114 76.7171 111.198 76.6725C113.2 75.4932 115.811 73.609 118.223 71.7929Z" fill="url(#paint66_radial_9142_506)"/>
<path fill-rule="evenodd" clip-rule="evenodd" d="M110.94 76.8299C111.006 76.7508 111.069 76.6698 111.13 76.5869C113.456 73.4127 113.989 62.3337 108.318 61.5156C104.239 61.1004 99.7704 67.9333 99.5552 73.4884C100.151 74.3629 100.62 75.0967 100.902 75.5415C101.552 76.5651 102.857 76.728 104.092 76.882L104.327 76.9117C105.767 77.7531 107.255 78.5488 109.591 77.5247C109.99 77.3498 110.444 77.1139 110.94 76.8299Z" fill="url(#paint67_radial_9142_506)"/>
<path fill-rule="evenodd" clip-rule="evenodd" d="M94.7692 67.5882C94.0666 66.9184 93.3142 65.7041 92.6399 64.1573C91.8388 63.3068 91.0676 62.5324 90.3784 61.9424C94.2927 61.5106 97.7606 65.9928 99.0091 68.5235C100.565 68.1628 102.529 71.1037 102.858 72.5662L108.602 74.0644C108.793 72.5662 112.421 70.5394 114.829 72.0008C115.174 72.1355 115.912 71.4184 116.923 70.4367C119.204 68.2207 122.874 64.6567 126.538 66.5012C126.2 66.6631 125.85 66.8145 125.491 66.9702C124.407 67.4398 123.232 67.949 121.992 68.908C118.392 71.6912 112.5 76.2442 109.58 77.5244C107.244 78.5485 105.756 77.7528 104.316 76.9114L104.08 76.8817C102.846 76.7277 101.54 76.5648 100.89 75.5412C100.026 74.1799 97.4147 70.1103 94.7692 67.5882Z" fill="url(#paint68_radial_9142_506)"/>
<path d="M136.13 30.3071C130.844 30.9736 120.319 34.7085 120.515 44.3165C123.665 45.5464 126.685 50.4485 128.664 54.1999C138.855 48.1255 137.729 35.4304 136.13 30.3071Z" fill="url(#paint69_linear_9142_506)"/>
<path d="M136.13 30.3071C130.844 30.9736 120.319 34.7085 120.515 44.3165C123.665 45.5464 126.685 50.4485 128.664 54.1999C138.855 48.1255 137.729 35.4304 136.13 30.3071Z" fill="url(#paint70_radial_9142_506)"/>
<path d="M136.13 30.3071C130.844 30.9736 120.319 34.7085 120.515 44.3165C123.665 45.5464 126.685 50.4485 128.664 54.1999C138.855 48.1255 137.729 35.4304 136.13 30.3071Z" fill="url(#paint71_radial_9142_506)"/>
<path d="M97.0344 56.4092C100.086 54.4357 104.714 55.8324 104.537 58.6612C104.36 61.4899 102.282 62.1544 99.5128 61.2723C96.7438 60.3902 97.8908 57.5683 97.0344 56.4092Z" fill="url(#paint72_radial_9142_506)"/>
<path d="M93.8396 58.5279C94.2832 57.8819 95.8973 56.4124 98.8071 55.704C101.476 55.3002 102.365 56.8389 102.476 57.6587C100.415 58.4867 95.803 59.8197 93.8396 58.5279Z" fill="url(#paint73_radial_9142_506)"/>
<path d="M123.208 66.773C123.161 65.9907 122.537 63.8991 120.41 61.7908C118.332 60.0677 116.777 60.9271 116.259 61.5723C117.597 63.3448 120.86 66.8664 123.208 66.773Z" fill="url(#paint74_radial_9142_506)"/>
<path d="M103.173 60.9047C102.438 61.5255 99.8591 61.507 98.884 60.3063C97.9088 59.1057 98.0917 57.3418 99.2924 56.3667C100.493 55.3916 102.257 55.5744 103.232 56.7751C104.207 57.9758 103.907 60.2838 103.173 60.9047Z" fill="url(#paint75_radial_9142_506)"/>
<path d="M103.173 60.9047C102.438 61.5255 99.8591 61.507 98.884 60.3063C97.9088 59.1057 98.0917 57.3418 99.2924 56.3667C100.493 55.3916 102.257 55.5744 103.232 56.7751C104.207 57.9758 103.907 60.2838 103.173 60.9047Z" fill="url(#paint76_radial_9142_506)"/>
<path d="M101.552 57.899C101.522 58.2948 101.818 58.64 102.214 58.67C102.61 58.7 102.955 58.4035 102.985 58.0078C103.015 57.612 102.719 57.2668 102.323 57.2368C101.927 57.2067 101.582 57.5033 101.552 57.899Z" fill="white"/>
<path d="M101.688 60.9975C99.6613 61.6446 97.8813 59.515 99.034 57.7197C98.8008 58.4817 99.1073 59.3333 99.5491 59.9083C99.9883 60.4801 100.827 60.9037 101.688 60.9975Z" fill="white" fill-opacity="0.4"/>
<path d="M121.015 62.5959C119.848 60.3442 115.064 58.5285 113.686 61.0054C112.309 63.4823 113.7 65.1633 116.507 65.9155C119.315 66.6677 119.668 63.1094 121.015 62.5959Z" fill="url(#paint77_radial_9142_506)"/>
<path d="M113.632 63.4787C113.89 64.4053 116.032 65.8415 117.514 65.3978C118.996 64.9541 119.837 63.3932 119.393 61.9114C118.95 60.4297 117.389 59.5882 115.907 60.0319C114.425 60.4756 113.374 62.5521 113.632 63.4787Z" fill="url(#paint78_radial_9142_506)"/>
<path d="M113.632 63.4787C113.89 64.4053 116.032 65.8415 117.514 65.3978C118.996 64.9541 119.837 63.3932 119.393 61.9114C118.95 60.4297 117.389 59.5882 115.907 60.0319C114.425 60.4756 113.374 62.5521 113.632 63.4787Z" fill="url(#paint79_radial_9142_506)"/>
<path d="M118.222 62.1093C118.03 62.4653 117.585 62.5983 117.229 62.4064C116.873 62.2145 116.74 61.7703 116.932 61.4143C117.124 61.0583 117.568 60.9252 117.924 61.1172C118.28 61.3091 118.413 61.7533 118.222 62.1093Z" fill="white"/>
<path d="M116.716 64.9685C114.589 64.979 113.528 62.414 115.166 61.0463C114.715 61.7035 114.752 62.6078 115.002 63.2887C115.25 63.9658 115.923 64.6212 116.716 64.9685Z" fill="white" fill-opacity="0.4"/>
<path fill-rule="evenodd" clip-rule="evenodd" d="M124.67 47.8493C124.665 44.3087 128.098 44.057 128.594 44.6056C128.01 42.665 126.074 42.4738 125.179 42.6207C125.737 42.0632 127.136 41.0394 128.26 41.4039C127.543 40.3793 126.099 39.8307 125.213 39.7951C125.855 38.8667 127.678 37.9371 129.458 38.3345C127.915 37.1362 126.395 36.7661 126.395 36.7661C127 35.2182 133.848 32.9717 136.819 33.3052C136.632 32.1495 136.387 31.1305 136.13 30.307C130.843 30.9735 120.319 34.7084 120.515 44.3163C121.956 44.8791 123.371 46.2108 124.67 47.8493Z" fill="url(#paint80_linear_9142_506)"/>
<path fill-rule="evenodd" clip-rule="evenodd" d="M124.67 47.8493C124.665 44.3087 128.098 44.057 128.594 44.6056C128.01 42.665 126.074 42.4738 125.179 42.6207C125.737 42.0632 127.136 41.0394 128.26 41.4039C127.543 40.3793 126.099 39.8307 125.213 39.7951C125.855 38.8667 127.678 37.9371 129.458 38.3345C127.915 37.1362 126.395 36.7661 126.395 36.7661C127 35.2182 133.848 32.9717 136.819 33.3052C136.632 32.1495 136.387 31.1305 136.13 30.307C130.843 30.9735 120.319 34.7084 120.515 44.3163C121.956 44.8791 123.371 46.2108 124.67 47.8493Z" fill="url(#paint81_radial_9142_506)"/>
<path d="M102.486 71.8676C102.733 71.5384 103.671 70.9625 105.451 71.2925C107.817 71.8423 108.861 72.7706 108.769 73.3435C108.378 75.7809 106.028 76.0447 104.863 75.7124C103.698 75.3802 101.762 74.2372 102.486 71.8676Z" fill="url(#paint82_radial_9142_506)"/>
<path fill-rule="evenodd" clip-rule="evenodd" d="M108.594 74.0118C108.093 75.3554 106.864 75.8055 105.834 75.8277C105.888 74.0729 107.431 73.532 108.594 74.0118Z" fill="url(#paint83_radial_9142_506)"/>
<path fill-rule="evenodd" clip-rule="evenodd" d="M103.636 75.1425C102.808 74.5826 102.104 73.646 102.393 72.2275C103.551 72.5213 104.436 73.7528 103.636 75.1425Z" fill="url(#paint84_radial_9142_506)"/>
<path d="M97.1814 22.3478C101.719 25.1403 109.758 32.8922 105.608 41.5597C102.231 41.3771 97.4545 44.5923 94.1012 47.1897C87.3339 37.4456 93.6072 26.3515 97.1814 22.3478Z" fill="url(#paint85_linear_9142_506)"/>
<path d="M97.1814 22.3478C101.719 25.1403 109.758 32.8922 105.608 41.5597C102.231 41.3771 97.4545 44.5923 94.1012 47.1897C87.3339 37.4456 93.6072 26.3515 97.1814 22.3478Z" fill="url(#paint86_radial_9142_506)"/>
<path d="M97.1814 22.3478C101.719 25.1403 109.758 32.8922 105.608 41.5597C102.231 41.3771 97.4545 44.5923 94.1012 47.1897C87.3339 37.4456 93.6072 26.3515 97.1814 22.3478Z" fill="url(#paint87_radial_9142_506)"/>
<path fill-rule="evenodd" clip-rule="evenodd" d="M100.367 43.0571C101.833 39.8367 98.8126 38.1892 98.1344 38.4837C99.468 36.9579 101.31 37.5842 102.064 38.0882C101.786 37.3496 100.936 35.8392 99.7616 35.7062C100.838 35.0697 102.38 35.1674 103.202 35.5013C103.001 34.3904 101.725 32.7904 99.9395 32.4159C101.84 31.963 103.377 32.2543 103.377 32.2543C103.467 30.5946 98.1573 25.7156 95.3143 24.7925C95.9628 23.8178 96.6069 22.9912 97.1814 22.3478C101.719 25.1403 109.758 32.8923 105.608 41.5598C104.063 41.4763 102.226 42.1034 100.367 43.0571Z" fill="url(#paint88_linear_9142_506)"/>
<path fill-rule="evenodd" clip-rule="evenodd" d="M100.367 43.0571C101.833 39.8367 98.8126 38.1892 98.1344 38.4837C99.468 36.9579 101.31 37.5842 102.064 38.0882C101.786 37.3496 100.936 35.8392 99.7616 35.7062C100.838 35.0697 102.38 35.1674 103.202 35.5013C103.001 34.3904 101.725 32.7904 99.9395 32.4159C101.84 31.963 103.377 32.2543 103.377 32.2543C103.467 30.5946 98.1573 25.7156 95.3143 24.7925C95.9628 23.8178 96.6069 22.9912 97.1814 22.3478C101.719 25.1403 109.758 32.8923 105.608 41.5598C104.063 41.4763 102.226 42.1034 100.367 43.0571Z" fill="url(#paint89_radial_9142_506)"/>
<path fill-rule="evenodd" clip-rule="evenodd" d="M140.52 112.672C138.443 111.161 136.7 109.675 135.5 108.526C135.512 108.284 135.536 107.991 135.563 107.645C135.735 105.487 136.071 101.258 134.928 94.399C143.114 99.0326 142.337 107.686 140.52 112.672Z" fill="url(#paint90_radial_9142_506)"/>
<defs>
<linearGradient id="paint0_linear_9142_506" x1="102.981" y1="57.1154" x2="178.823" y2="186.107" gradientUnits="userSpaceOnUse">
<stop stop-color="#CD8E02"/>
<stop offset="1" stop-color="#309C61"/>
</linearGradient>
<radialGradient id="paint1_radial_9142_506" cx="0" cy="0" r="1" gradientUnits="userSpaceOnUse" gradientTransform="translate(58.5578 105.865) rotate(-3.36646) scale(83.5095 18.8362)">
<stop stop-color="#FFD394"/>
<stop offset="1" stop-color="#FFD394" stop-opacity="0"/>
</radialGradient>
<radialGradient id="paint2_radial_9142_506" cx="0" cy="0" r="1" gradientUnits="userSpaceOnUse" gradientTransform="translate(85.9616 100.096) rotate(-3.10084) scale(197.308 58.8332)">
<stop offset="0.226678" stop-color="#063A10" stop-opacity="0"/>
<stop offset="1" stop-color="#063A10"/>
</radialGradient>
<linearGradient id="paint3_linear_9142_506" x1="120.059" y1="111.352" x2="89.876" y2="60.0003" gradientUnits="userSpaceOnUse">
<stop stop-color="#E67505"/>
<stop offset="1" stop-color="#E7A400"/>
</linearGradient>
<radialGradient id="paint4_radial_9142_506" cx="0" cy="0" r="1" gradientUnits="userSpaceOnUse" gradientTransform="translate(87.6922 119.279) rotate(-107.103) scale(33.3498 33.3498)">
<stop offset="0.755" stop-color="#E68703" stop-opacity="0"/>
<stop offset="1" stop-color="#4B2906"/>
</radialGradient>
<radialGradient id="paint5_radial_9142_506" cx="0" cy="0" r="1" gradientUnits="userSpaceOnUse" gradientTransform="translate(94.9038 112.052) rotate(-24.9032) scale(20.5131 14.3762)">
<stop offset="0.377089" stop-color="#4B2906"/>
<stop offset="1" stop-color="#E68703" stop-opacity="0"/>
</radialGradient>
<linearGradient id="paint6_linear_9142_506" x1="143.365" y1="117.571" x2="81.2007" y2="14.3093" gradientUnits="userSpaceOnUse">
<stop stop-color="#E67505"/>
<stop offset="1" stop-color="#E7A400"/>
</linearGradient>
<radialGradient id="paint7_radial_9142_506" cx="0" cy="0" r="1" gradientUnits="userSpaceOnUse" gradientTransform="translate(79.4712 122.747) rotate(-69.738) scale(38.3156 27.0079)">
<stop offset="0.15" stop-color="#4B2906"/>
<stop offset="1" stop-color="#E68703" stop-opacity="0"/>
</radialGradient>
<radialGradient id="paint8_radial_9142_506" cx="0" cy="0" r="1" gradientUnits="userSpaceOnUse" gradientTransform="translate(106.154 118.721) rotate(-52.4043) scale(33.5703 23.6256)">
<stop offset="0.199507" stop-color="#4B2906"/>
<stop offset="1" stop-color="#E68703" stop-opacity="0"/>
</radialGradient>
<radialGradient id="paint9_radial_9142_506" cx="0" cy="0" r="1" gradientUnits="userSpaceOnUse" gradientTransform="translate(112.212 63.3668) rotate(62.5429) scale(45.0443 34.1591)">
<stop offset="0.344807" stop-color="#4B2906"/>
<stop offset="1" stop-color="#E68703" stop-opacity="0"/>
</radialGradient>
<radialGradient id="paint10_radial_9142_506" cx="0" cy="0" r="1" gradientUnits="userSpaceOnUse" gradientTransform="translate(90.2918 45.8258) rotate(18.3353) scale(55.7603 23.2749)">
<stop stop-color="#FFE4BE" stop-opacity="0.5"/>
<stop offset="1" stop-color="#FFE4BE" stop-opacity="0"/>
</radialGradient>
<linearGradient id="paint11_linear_9142_506" x1="157.053" y1="87.2428" x2="107.777" y2="16.5699" gradientUnits="userSpaceOnUse">
<stop stop-color="#E67505"/>
<stop offset="1" stop-color="#E7A400"/>
</linearGradient>
<radialGradient id="paint12_radial_9142_506" cx="0" cy="0" r="1" gradientUnits="userSpaceOnUse" gradientTransform="translate(127.744 22.9536) rotate(-56.0877) scale(41.7392 15.4505)">
<stop stop-color="#FFE4BE" stop-opacity="0.7"/>
<stop offset="1" stop-color="#FFE4BE" stop-opacity="0"/>
</radialGradient>
<radialGradient id="paint13_radial_9142_506" cx="0" cy="0" r="1" gradientUnits="userSpaceOnUse" gradientTransform="translate(162.438 43.9529) rotate(114.526) scale(51.9018 30.4459)">
<stop offset="0.199507" stop-color="#4B2906"/>
<stop offset="1" stop-color="#E68703" stop-opacity="0"/>
</radialGradient>
<linearGradient id="paint14_linear_9142_506" x1="222.385" y1="105.305" x2="151.962" y2="38.8912" gradientUnits="userSpaceOnUse">
<stop stop-color="#E67505"/>
<stop offset="1" stop-color="#E7A400"/>
</linearGradient>
<radialGradient id="paint15_radial_9142_506" cx="0" cy="0" r="1" gradientUnits="userSpaceOnUse" gradientTransform="translate(171.362 45.5967) rotate(-68.5925) scale(45.4427 17.7874)">
<stop stop-color="#FFE4BE" stop-opacity="0.7"/>
<stop offset="1" stop-color="#FFE4BE" stop-opacity="0"/>
</radialGradient>
<radialGradient id="paint16_radial_9142_506" cx="0" cy="0" r="1" gradientUnits="userSpaceOnUse" gradientTransform="translate(216.362 58.5835) rotate(101.41) scale(56.1361 35.2824)">
<stop offset="0.199507" stop-color="#4B2906"/>
<stop offset="1" stop-color="#E68703" stop-opacity="0"/>
</radialGradient>
<radialGradient id="paint17_radial_9142_506" cx="0" cy="0" r="1" gradientUnits="userSpaceOnUse" gradientTransform="translate(54.2016 60.5875) rotate(59.2008) scale(55.4316 26.4615)">
<stop stop-color="#FFE4BE"/>
<stop offset="1" stop-color="#FFE4BE" stop-opacity="0"/>
</radialGradient>
<radialGradient id="paint18_radial_9142_506" cx="0" cy="0" r="1" gradientUnits="userSpaceOnUse" gradientTransform="translate(81.779 97.9637) rotate(-94.9264) scale(22.0352 5.46732)">
<stop offset="0.15048" stop-color="#4B2906"/>
<stop offset="1" stop-color="#5B3B04" stop-opacity="0"/>
</radialGradient>
<linearGradient id="paint19_linear_9142_506" x1="62.2325" y1="54.5884" x2="52.2605" y2="45.3338" gradientUnits="userSpaceOnUse">
<stop stop-color="#E67505"/>
<stop offset="1" stop-color="#E7A400"/>
</linearGradient>
<radialGradient id="paint20_radial_9142_506" cx="0" cy="0" r="1" gradientUnits="userSpaceOnUse" gradientTransform="translate(54.9962 53.9284) rotate(95.2483) scale(2.86788 5.34593)">
<stop stop-color="#FFE4BE"/>
<stop offset="1" stop-color="#FFE4BE" stop-opacity="0"/>
</radialGradient>
<radialGradient id="paint21_radial_9142_506" cx="0" cy="0" r="1" gradientUnits="userSpaceOnUse" gradientTransform="translate(54.522 52.6909) rotate(-179.61) scale(7.14395 2.60434)">
<stop stop-color="#4B2906"/>
<stop offset="0.881106" stop-color="#5B3B04" stop-opacity="0"/>
</radialGradient>
<linearGradient id="paint22_linear_9142_506" x1="88.3255" y1="41.5819" x2="23.8068" y2="8.70566" gradientUnits="userSpaceOnUse">
<stop stop-color="#E67505"/>
<stop offset="1" stop-color="#E7A400"/>
</linearGradient>
<radialGradient id="paint23_radial_9142_506" cx="0" cy="0" r="1" gradientUnits="userSpaceOnUse" gradientTransform="translate(55.5286 35.3649) rotate(91.2865) scale(22.6362 25.4999)">
<stop offset="0.699852" stop-color="#FFE4BE" stop-opacity="0"/>
<stop offset="1" stop-color="#FFE4BE"/>
</radialGradient>
<radialGradient id="paint24_radial_9142_506" cx="0" cy="0" r="1" gradientUnits="userSpaceOnUse" gradientTransform="translate(56.5581 37.6779) rotate(99.8942) scale(15.2686 15.2686)">
<stop stop-color="#4B2906" stop-opacity="0.3"/>
<stop offset="1" stop-color="#E68703" stop-opacity="0"/>
</radialGradient>
<radialGradient id="paint25_radial_9142_506" cx="0" cy="0" r="1" gradientUnits="userSpaceOnUse" gradientTransform="translate(49.4381 31.1081) rotate(51.4271) scale(14.0617)">
<stop stop-color="#FFE4BE" stop-opacity="0.5"/>
<stop offset="1" stop-color="#FFE4BE" stop-opacity="0"/>
</radialGradient>
<radialGradient id="paint26_radial_9142_506" cx="0" cy="0" r="1" gradientUnits="userSpaceOnUse" gradientTransform="translate(50.8143 46.2103) rotate(126.922) scale(6.63586 6.7851)">
<stop stop-color="#4B2906"/>
<stop offset="1" stop-color="#5B3B04" stop-opacity="0"/>
</radialGradient>
<radialGradient id="paint27_radial_9142_506" cx="0" cy="0" r="1" gradientUnits="userSpaceOnUse" gradientTransform="translate(57.5874 46.1531) rotate(44.7471) scale(6.87165)">
<stop stop-color="#4B2906"/>
<stop offset="1" stop-color="#5B3B04" stop-opacity="0"/>
</radialGradient>
<radialGradient id="paint28_radial_9142_506" cx="0" cy="0" r="1" gradientUnits="userSpaceOnUse" gradientTransform="translate(54.5505 48.8138) rotate(95.2483) scale(10.5634 8.16903)">
<stop stop-color="#FFE4BE"/>
<stop offset="1" stop-color="#FFE4BE" stop-opacity="0"/>
</radialGradient>
<radialGradient id="paint29_radial_9142_506" cx="0" cy="0" r="1" gradientUnits="userSpaceOnUse" gradientTransform="translate(54.3973 47.019) rotate(95.2483) scale(10.8394 18.0106)">
<stop stop-color="#FFE4BE"/>
<stop offset="1" stop-color="#FFE4BE" stop-opacity="0"/>
</radialGradient>
<linearGradient id="paint30_linear_9142_506" x1="78.1788" y1="17.9149" x2="54.3956" y2="10.2814" gradientUnits="userSpaceOnUse">
<stop stop-color="#E67505"/>
<stop offset="1" stop-color="#E7A400"/>
</linearGradient>
<radialGradient id="paint31_radial_9142_506" cx="0" cy="0" r="1" gradientUnits="userSpaceOnUse" gradientTransform="translate(66.0654 13.8017) rotate(96.7744) scale(18.4341 9.92485)">
<stop offset="0.49972" stop-color="#FFE4BE" stop-opacity="0"/>
<stop offset="1" stop-color="#FFE4BE"/>
</radialGradient>
<radialGradient id="paint32_radial_9142_506" cx="0" cy="0" r="1" gradientUnits="userSpaceOnUse" gradientTransform="translate(74.6725 17.4863) rotate(124.01) scale(18.8535 15.3957)">
<stop offset="0.342107" stop-color="#5B3B04" stop-opacity="0"/>
<stop offset="1" stop-color="#4B2906"/>
</radialGradient>
<radialGradient id="paint33_radial_9142_506" cx="0" cy="0" r="1" gradientUnits="userSpaceOnUse" gradientTransform="translate(45.3954 37.7879) rotate(5.47139) scale(4.80597 4.39939)">
<stop offset="0.482356" stop-color="#4B2906"/>
<stop offset="0.907705" stop-color="#5B3B04" stop-opacity="0"/>
</radialGradient>
<radialGradient id="paint34_radial_9142_506" cx="0" cy="0" r="1" gradientUnits="userSpaceOnUse" gradientTransform="translate(42.4504 36.9664) rotate(154.792) scale(4.80228 3.02944)">
<stop stop-color="#4B2906"/>
<stop offset="0.907705" stop-color="#5B3B04" stop-opacity="0"/>
</radialGradient>
<radialGradient id="paint35_radial_9142_506" cx="0" cy="0" r="1" gradientUnits="userSpaceOnUse" gradientTransform="translate(64.8378 36.211) rotate(20.956) scale(4.80228 3.02944)">
<stop stop-color="#4B2906"/>
<stop offset="0.907705" stop-color="#5B3B04" stop-opacity="0"/>
</radialGradient>
<radialGradient id="paint36_radial_9142_506" cx="0" cy="0" r="1" gradientUnits="userSpaceOnUse" gradientTransform="translate(45.8087 38.9296) rotate(173.683) scale(2.49549)">
<stop stop-color="#AA7211"/>
<stop offset="0.835" stop-color="#6B4230"/>
<stop offset="1" stop-color="#4B2906"/>
</radialGradient>
<radialGradient id="paint37_radial_9142_506" cx="0" cy="0" r="1" gradientUnits="userSpaceOnUse" gradientTransform="translate(45.9248 38.7631) rotate(83.6832) scale(1.59024 1.63819)">
<stop offset="0.717019"/>
<stop offset="1" stop-opacity="0"/>
</radialGradient>
<radialGradient id="paint38_radial_9142_506" cx="0" cy="0" r="1" gradientUnits="userSpaceOnUse" gradientTransform="translate(61.6436 37.052) rotate(173.46) scale(4.80597 4.39939)">
<stop offset="0.482356" stop-color="#4B2906"/>
<stop offset="0.907705" stop-color="#5B3B04" stop-opacity="0"/>
</radialGradient>
<radialGradient id="paint39_radial_9142_506" cx="0" cy="0" r="1" gradientUnits="userSpaceOnUse" gradientTransform="translate(61.2511 38.2013) rotate(5.24834) scale(2.49549)">
<stop stop-color="#AA7211"/>
<stop offset="0.835" stop-color="#6B4230"/>
<stop offset="1" stop-color="#4B2906"/>
</radialGradient>
<radialGradient id="paint40_radial_9142_506" cx="0" cy="0" r="1" gradientUnits="userSpaceOnUse" gradientTransform="translate(61.1319 38.037) rotate(95.2483) scale(1.59024 1.63819)">
<stop offset="0.717019"/>
<stop offset="1" stop-opacity="0"/>
</radialGradient>
<linearGradient id="paint41_linear_9142_506" x1="75.8412" y1="14.5522" x2="53.3816" y2="7.25513" gradientUnits="userSpaceOnUse">
<stop stop-color="#E67505"/>
<stop offset="1" stop-color="#E7A400"/>
</linearGradient>
<radialGradient id="paint42_radial_9142_506" cx="0" cy="0" r="1" gradientUnits="userSpaceOnUse" gradientTransform="translate(67.6368 11.0064) rotate(116.645) scale(21.5297 11.786)">
<stop offset="0.144185" stop-color="#FFE4BE" stop-opacity="0"/>
<stop offset="1" stop-color="#FFE4BE"/>
</radialGradient>
<radialGradient id="paint43_radial_9142_506" cx="0" cy="0" r="1" gradientUnits="userSpaceOnUse" gradientTransform="translate(53.5306 52.1162) rotate(-178.385) scale(6.60472 4.74836)">
<stop offset="0.482356" stop-color="#4B2906"/>
<stop offset="0.636486" stop-color="#543305" stop-opacity="0.6"/>
<stop offset="1" stop-color="#5B3B04" stop-opacity="0"/>
</radialGradient>
<radialGradient id="paint44_radial_9142_506" cx="0" cy="0" r="1" gradientUnits="userSpaceOnUse" gradientTransform="translate(56.8957 51.2249) rotate(141.394) scale(2.89333 2.54198)">
<stop offset="0.407037" stop-opacity="0"/>
<stop offset="1"/>
</radialGradient>
<radialGradient id="paint45_radial_9142_506" cx="0" cy="0" r="1" gradientUnits="userSpaceOnUse" gradientTransform="translate(50.0441 51.2298) rotate(41.2486) scale(2.89333 2.54198)">
<stop offset="0.407037" stop-opacity="0"/>
<stop offset="1"/>
</radialGradient>
<linearGradient id="paint46_linear_9142_506" x1="28.6834" y1="21.6939" x2="51.2229" y2="10.929" gradientUnits="userSpaceOnUse">
<stop stop-color="#E67505"/>
<stop offset="1" stop-color="#E7A400"/>
</linearGradient>
<radialGradient id="paint47_radial_9142_506" cx="0" cy="0" r="1" gradientUnits="userSpaceOnUse" gradientTransform="translate(40.133 15.9878) rotate(75.4912) scale(18.4341 9.92485)">
<stop offset="0.49972" stop-color="#FFE4BE" stop-opacity="0"/>
<stop offset="1" stop-color="#FFE4BE"/>
</radialGradient>
<radialGradient id="paint48_radial_9142_506" cx="0" cy="0" r="1" gradientUnits="userSpaceOnUse" gradientTransform="translate(32.1002 20.7973) rotate(48.2556) scale(18.8535 15.3957)">
<stop offset="0.342107" stop-color="#5B3B04" stop-opacity="0"/>
<stop offset="1" stop-color="#4B2906"/>
</radialGradient>
<linearGradient id="paint49_linear_9142_506" x1="30.5469" y1="18.0463" x2="51.82" y2="7.79261" gradientUnits="userSpaceOnUse">
<stop stop-color="#E67505"/>
<stop offset="1" stop-color="#E7A400"/>
</linearGradient>
<radialGradient id="paint50_radial_9142_506" cx="0" cy="0" r="1" gradientUnits="userSpaceOnUse" gradientTransform="translate(38.1996 13.4288) rotate(55.6187) scale(21.5283 11.7859)">
<stop offset="0.144185" stop-color="#FFE4BE" stop-opacity="0"/>
<stop offset="1" stop-color="#FFE4BE"/>
</radialGradient>
<linearGradient id="paint51_linear_9142_506" x1="205.769" y1="118.288" x2="176.144" y2="35.3292" gradientUnits="userSpaceOnUse">
<stop stop-color="#E67505"/>
<stop offset="1" stop-color="#E7A400"/>
</linearGradient>
<radialGradient id="paint52_radial_9142_506" cx="0" cy="0" r="1" gradientUnits="userSpaceOnUse" gradientTransform="translate(152.596 76.2981) rotate(6.4051) scale(53.3443 11.321)">
<stop stop-color="#FFE4BE" stop-opacity="0.5"/>
<stop offset="1" stop-color="#FFE4BE" stop-opacity="0"/>
</radialGradient>
<radialGradient id="paint53_radial_9142_506" cx="0" cy="0" r="1" gradientUnits="userSpaceOnUse" gradientTransform="translate(152.668 122.452) rotate(-85.9575) scale(20.4596 5.73598)">
<stop stop-color="#4B2906"/>
<stop offset="1" stop-color="#E68703" stop-opacity="0"/>
</radialGradient>
<radialGradient id="paint54_radial_9142_506" cx="0" cy="0" r="1" gradientUnits="userSpaceOnUse" gradientTransform="translate(146.371 100.529) rotate(44.5948) scale(16.7426 9.51739)">
<stop stop-color="#4B2906"/>
<stop offset="1" stop-color="#E68703" stop-opacity="0"/>
</radialGradient>
<linearGradient id="paint55_linear_9142_506" x1="159.933" y1="118.864" x2="129.217" y2="55.4326" gradientUnits="userSpaceOnUse">
<stop stop-color="#E67505"/>
<stop offset="1" stop-color="#E7A400"/>
</linearGradient>
<radialGradient id="paint56_radial_9142_506" cx="0" cy="0" r="1" gradientUnits="userSpaceOnUse" gradientTransform="translate(146.683 123.86) rotate(-91.789) scale(17.1934 10.8035)">
<stop offset="0.15" stop-color="#4B2906"/>
<stop offset="1" stop-color="#E68703" stop-opacity="0"/>
</radialGradient>
<radialGradient id="paint57_radial_9142_506" cx="0" cy="0" r="1" gradientUnits="userSpaceOnUse" gradientTransform="translate(137.308 99.1159) rotate(42.6908) scale(16.8754 8.08058)">
<stop stop-color="#FFE4BE" stop-opacity="0.5"/>
<stop offset="1" stop-color="#FFE4BE" stop-opacity="0"/>
</radialGradient>
<linearGradient id="paint58_linear_9142_506" x1="112.223" y1="80.232" x2="104.785" y2="67.8812" gradientUnits="userSpaceOnUse">
<stop stop-color="#E67505"/>
<stop offset="1" stop-color="#E7A400"/>
</linearGradient>
<radialGradient id="paint59_radial_9142_506" cx="0" cy="0" r="1" gradientUnits="userSpaceOnUse" gradientTransform="translate(105.048 77.4361) rotate(111.326) scale(3.03924 5.66537)">
<stop stop-color="#FFE4BE"/>
<stop offset="1" stop-color="#FFE4BE" stop-opacity="0"/>
</radialGradient>
<radialGradient id="paint60_radial_9142_506" cx="0" cy="0" r="1" gradientUnits="userSpaceOnUse" gradientTransform="translate(104.928 76.0367) rotate(-163.533) scale(7.57083 2.75996)">
<stop stop-color="#4B2906"/>
<stop offset="0.881106" stop-color="#5B3B04" stop-opacity="0"/>
</radialGradient>
<linearGradient id="paint61_linear_9142_506" x1="142.251" y1="75.1911" x2="86.258" y2="22.7496" gradientUnits="userSpaceOnUse">
<stop stop-color="#E67505"/>
<stop offset="1" stop-color="#E7A400"/>
</linearGradient>
<radialGradient id="paint62_radial_9142_506" cx="0" cy="0" r="1" gradientUnits="userSpaceOnUse" gradientTransform="translate(110.675 59.2417) rotate(107.355) scale(23.9351 27.0237)">
<stop offset="0.699852" stop-color="#FFE4BE" stop-opacity="0"/>
<stop offset="1" stop-color="#FFE4BE"/>
</radialGradient>
<radialGradient id="paint63_radial_9142_506" cx="0" cy="0" r="1" gradientUnits="userSpaceOnUse" gradientTransform="translate(111.047 61.8942) rotate(115.982) scale(16.1447 16.1809)">
<stop stop-color="#4B2906" stop-opacity="0.3"/>
<stop offset="1" stop-color="#E68703" stop-opacity="0"/>
</radialGradient>
<radialGradient id="paint64_radial_9142_506" cx="0" cy="0" r="1" gradientUnits="userSpaceOnUse" gradientTransform="translate(105.719 53.1276) rotate(67.44) scale(14.8846 14.886)">
<stop stop-color="#FFE4BE" stop-opacity="0.5"/>
<stop offset="1" stop-color="#FFE4BE" stop-opacity="0"/>
</radialGradient>
<radialGradient id="paint65_radial_9142_506" cx="0" cy="0" r="1" gradientUnits="userSpaceOnUse" gradientTransform="translate(103.743 70.8847) rotate(139.36) scale(7.50632 7.6937)">
<stop stop-color="#4B2906"/>
<stop offset="1" stop-color="#5B3B04" stop-opacity="0"/>
</radialGradient>
<radialGradient id="paint66_radial_9142_506" cx="0" cy="0" r="1" gradientUnits="userSpaceOnUse" gradientTransform="translate(108.318 71.1074) rotate(63.6803) scale(7.76564 7.88849)">
<stop stop-color="#4B2906"/>
<stop offset="1" stop-color="#5B3B04" stop-opacity="0"/>
</radialGradient>
<radialGradient id="paint67_radial_9142_506" cx="0" cy="0" r="1" gradientUnits="userSpaceOnUse" gradientTransform="translate(105.89 72.6423) rotate(108.921) scale(11.0031 7.51519)">
<stop stop-color="#FFE4BE"/>
<stop offset="1" stop-color="#FFE4BE" stop-opacity="0"/>
</radialGradient>
<radialGradient id="paint68_radial_9142_506" cx="0" cy="0" r="1" gradientUnits="userSpaceOnUse" gradientTransform="translate(106.083 70.8255) rotate(111.326) scale(11.4871 19.0868)">
<stop stop-color="#FFE4BE"/>
<stop offset="1" stop-color="#FFE4BE" stop-opacity="0"/>
</radialGradient>
<linearGradient id="paint69_linear_9142_506" x1="138.84" y1="48.1683" x2="116.862" y2="33.4149" gradientUnits="userSpaceOnUse">
<stop stop-color="#E67505"/>
<stop offset="1" stop-color="#E7A400"/>
</linearGradient>
<radialGradient id="paint70_radial_9142_506" cx="0" cy="0" r="1" gradientUnits="userSpaceOnUse" gradientTransform="translate(127.713 40.4246) rotate(112.852) scale(19.5356 10.5179)">
<stop offset="0.49972" stop-color="#FFE4BE" stop-opacity="0"/>
<stop offset="1" stop-color="#FFE4BE"/>
</radialGradient>
<radialGradient id="paint71_radial_9142_506" cx="0" cy="0" r="1" gradientUnits="userSpaceOnUse" gradientTransform="translate(135.396 46.7028) rotate(140.088) scale(19.98 16.3157)">
<stop offset="0.342107" stop-color="#5B3B04" stop-opacity="0"/>
<stop offset="1" stop-color="#4B2906"/>
</radialGradient>
<radialGradient id="paint72_radial_9142_506" cx="0" cy="0" r="1" gradientUnits="userSpaceOnUse" gradientTransform="translate(100.86 57.2813) rotate(21.5491) scale(5.09314 4.66227)">
<stop offset="0.482356" stop-color="#4B2906"/>
<stop offset="0.907705" stop-color="#5B3B04" stop-opacity="0"/>
</radialGradient>
<radialGradient id="paint73_radial_9142_506" cx="0" cy="0" r="1" gradientUnits="userSpaceOnUse" gradientTransform="translate(98.1703 55.5722) rotate(172.45) scale(5.08924 3.21046)">
<stop stop-color="#4B2906"/>
<stop offset="0.907705" stop-color="#5B3B04" stop-opacity="0"/>
</radialGradient>
<radialGradient id="paint74_radial_9142_506" cx="0" cy="0" r="1" gradientUnits="userSpaceOnUse" gradientTransform="translate(121.023 62.0066) rotate(38.6141) scale(5.08924 3.21046)">
<stop stop-color="#4B2906"/>
<stop offset="0.907705" stop-color="#5B3B04" stop-opacity="0"/>
</radialGradient>
<radialGradient id="paint75_radial_9142_506" cx="0" cy="0" r="1" gradientUnits="userSpaceOnUse" gradientTransform="translate(100.934 58.635) rotate(-168.659) scale(2.6446)">
<stop stop-color="#AA7211"/>
<stop offset="0.835" stop-color="#6B4230"/>
<stop offset="1" stop-color="#4B2906"/>
</radialGradient>
<radialGradient id="paint76_radial_9142_506" cx="0" cy="0" r="1" gradientUnits="userSpaceOnUse" gradientTransform="translate(101.104 58.5042) rotate(101.341) scale(1.68526 1.73608)">
<stop offset="0.717019"/>
<stop offset="1" stop-opacity="0"/>
</radialGradient>
<radialGradient id="paint77_radial_9142_506" cx="0" cy="0" r="1" gradientUnits="userSpaceOnUse" gradientTransform="translate(117.528 61.8287) rotate(-168.882) scale(5.09314 4.66227)">
<stop offset="0.482356" stop-color="#4B2906"/>
<stop offset="0.907705" stop-color="#5B3B04" stop-opacity="0"/>
</radialGradient>
<radialGradient id="paint78_radial_9142_506" cx="0" cy="0" r="1" gradientUnits="userSpaceOnUse" gradientTransform="translate(116.76 62.8629) rotate(22.9064) scale(2.6446)">
<stop stop-color="#AA7211"/>
<stop offset="0.835" stop-color="#6B4230"/>
<stop offset="1" stop-color="#4B2906"/>
</radialGradient>
<radialGradient id="paint79_radial_9142_506" cx="0" cy="0" r="1" gradientUnits="userSpaceOnUse" gradientTransform="translate(116.693 62.6586) rotate(112.906) scale(1.68526 1.73608)">
<stop offset="0.717019"/>
<stop offset="1" stop-opacity="0"/>
</radialGradient>
<linearGradient id="paint80_linear_9142_506" x1="137.447" y1="44.058" x2="116.718" y2="30.0357" gradientUnits="userSpaceOnUse">
<stop stop-color="#E67505"/>
<stop offset="1" stop-color="#E7A400"/>
</linearGradient>
<radialGradient id="paint81_radial_9142_506" cx="0" cy="0" r="1" gradientUnits="userSpaceOnUse" gradientTransform="translate(130.133 38.0394) rotate(132.723) scale(22.8161 12.4903)">
<stop offset="0.144185" stop-color="#FFE4BE" stop-opacity="0"/>
<stop offset="1" stop-color="#FFE4BE"/>
</radialGradient>
<radialGradient id="paint82_radial_9142_506" cx="0" cy="0" r="1" gradientUnits="userSpaceOnUse" gradientTransform="translate(104.722 75.7272) rotate(-162.307) scale(6.34509 4.56171)">
<stop offset="0.482356" stop-color="#4B2906"/>
<stop offset="0.636486" stop-color="#543305" stop-opacity="0.6"/>
<stop offset="1" stop-color="#5B3B04" stop-opacity="0"/>
</radialGradient>
<radialGradient id="paint83_radial_9142_506" cx="0" cy="0" r="1" gradientUnits="userSpaceOnUse" gradientTransform="translate(108.063 75.7991) rotate(157.452) scale(2.77863 2.44128)">
<stop offset="0.407037" stop-opacity="0"/>
<stop offset="1"/>
</radialGradient>
<radialGradient id="paint84_radial_9142_506" cx="0" cy="0" r="1" gradientUnits="userSpaceOnUse" gradientTransform="translate(101.737 73.9809) rotate(57.3264) scale(2.77959 2.44206)">
<stop offset="0.407037" stop-opacity="0"/>
<stop offset="1"/>
</radialGradient>
<linearGradient id="paint85_linear_9142_506" x1="87.329" y1="37.4904" x2="113.44" y2="33.1436" gradientUnits="userSpaceOnUse">
<stop stop-color="#E67505"/>
<stop offset="1" stop-color="#E7A400"/>
</linearGradient>
<radialGradient id="paint86_radial_9142_506" cx="0" cy="0" r="1" gradientUnits="userSpaceOnUse" gradientTransform="translate(100.663 35.0402) rotate(91.569) scale(19.5356 10.5179)">
<stop offset="0.49972" stop-color="#FFE4BE" stop-opacity="0"/>
<stop offset="1" stop-color="#FFE4BE"/>
</radialGradient>
<radialGradient id="paint87_radial_9142_506" cx="0" cy="0" r="1" gradientUnits="userSpaceOnUse" gradientTransform="translate(91.0715 37.5802) rotate(64.3333) scale(19.98 16.3157)">
<stop offset="0.342107" stop-color="#5B3B04" stop-opacity="0"/>
<stop offset="1" stop-color="#4B2906"/>
</radialGradient>
<linearGradient id="paint88_linear_9142_506" x1="90.2971" y1="34.323" x2="114.969" y2="30.125" gradientUnits="userSpaceOnUse">
<stop stop-color="#E67505"/>
<stop offset="1" stop-color="#E7A400"/>
</linearGradient>
<radialGradient id="paint89_radial_9142_506" cx="0" cy="0" r="1" gradientUnits="userSpaceOnUse" gradientTransform="translate(99.4451 31.867) rotate(71.6964) scale(22.8147 12.4902)">
<stop offset="0.144185" stop-color="#FFE4BE" stop-opacity="0"/>
<stop offset="1" stop-color="#FFE4BE"/>
</radialGradient>
<radialGradient id="paint90_radial_9142_506" cx="0" cy="0" r="1" gradientUnits="userSpaceOnUse" gradientTransform="translate(133.702 107.668) rotate(-94.5632) scale(15.4094 7.00488)">
<stop stop-color="#4B2906"/>
<stop offset="1" stop-color="#E68703" stop-opacity="0"/>
</radialGradient>
</defs>
</svg>
