<svg viewBox="0 0 240 120" fill="none" xmlns="http://www.w3.org/2000/svg">
<circle cx="133.846" cy="60" r="41.5385" fill="url(#paint0_radial_226_33131)"/>
<circle cx="133.846" cy="60" r="41.5385" fill="url(#paint1_radial_226_33131)"/>
<circle cx="133.846" cy="60" r="41.5385" fill="url(#paint2_radial_226_33131)"/>
<circle cx="133.846" cy="60" r="41.5385" fill="url(#paint3_radial_226_33131)"/>
<circle cx="133.846" cy="60" r="41.5385" fill="url(#paint4_radial_226_33131)"/>
<circle cx="133.846" cy="60" r="41.5385" fill="url(#paint5_radial_226_33131)"/>
<circle cx="114.561" cy="49.6154" r="10.3846" fill="url(#paint6_radial_226_33131)"/>
<circle cx="114.561" cy="49.6154" r="10.3846" fill="url(#paint7_radial_226_33131)"/>
<circle cx="114.561" cy="49.6154" r="10.3846" fill="url(#paint8_radial_226_33131)"/>
<circle cx="153.132" cy="46.6484" r="7.81319" fill="url(#paint9_radial_226_33131)" stroke="url(#paint10_linear_226_33131)" stroke-width="0.791209"/>
<path d="M171.716 75.5292C169.085 81.9345 165.026 87.2858 159.755 91.6161C158.128 89.7827 157.582 87.8627 157.582 85.2184C157.582 79.4832 162.232 74.8338 167.967 74.8338C169.508 74.8338 170.401 74.9271 171.716 75.5292Z" stroke="url(#paint11_linear_226_33131)" stroke-width="1.18681"/>
<circle cx="114.561" cy="49.6154" r="10.3846" stroke="url(#paint12_linear_226_33131)" stroke-width="0.791209"/>
<circle cx="133.846" cy="76.32" r="7.43613" fill="url(#paint13_radial_226_33131)"/>
<circle cx="133.846" cy="76.32" r="7.43613" fill="url(#paint14_radial_226_33131)"/>
<circle cx="133.846" cy="76.32" r="7.43613" stroke="url(#paint15_linear_226_33131)" stroke-width="0.593407"/>
<path d="M117.15 97.4898C110.725 94.5544 105.178 90.0289 101.013 84.4166C102.915 82.005 105.643 80.6904 108.953 80.6904C114.688 80.6904 118.826 85.8068 119.086 90.8495C119.086 93.3786 118.653 95.6886 117.15 97.4898Z" stroke="url(#paint16_linear_226_33131)" stroke-width="0.791209"/>
<path d="M116.604 97.8021C110.178 94.8667 104.632 90.3412 100.467 84.7289C102.368 82.3173 105.316 80.7692 108.626 80.7692C114.361 80.7692 119.01 85.4186 119.01 91.1538C119.01 93.683 118.106 96.0009 116.604 97.8021Z" fill="url(#paint17_linear_226_33131)"/>
<path d="M116.604 97.8021C110.178 94.8667 104.632 90.3412 100.467 84.7289C102.368 82.3173 105.316 80.7692 108.626 80.7692C114.361 80.7692 119.01 85.4186 119.01 91.1538C119.01 93.683 118.106 96.0009 116.604 97.8021Z" fill="url(#paint18_radial_226_33131)"/>
<path d="M172.285 75.7715C169.654 82.1767 165.469 87.7793 160.198 92.1096C158.571 90.2762 157.582 87.8627 157.582 85.2184C157.582 79.4832 162.232 74.8338 167.967 74.8338C169.508 74.8338 170.97 75.1694 172.285 75.7715Z" fill="url(#paint19_linear_226_33131)"/>
<path d="M172.285 75.7715C169.654 82.1767 165.469 87.7793 160.198 92.1096C158.571 90.2762 157.582 87.8627 157.582 85.2184C157.582 79.4832 162.232 74.8338 167.967 74.8338C169.508 74.8338 170.97 75.1694 172.285 75.7715Z" fill="url(#paint20_radial_226_33131)"/>
<path d="M172.285 75.7715C169.654 82.1767 165.469 87.7793 160.198 92.1096C158.571 90.2762 157.582 87.8627 157.582 85.2184C157.582 79.4832 162.232 74.8338 167.967 74.8338C169.508 74.8338 170.97 75.1694 172.285 75.7715Z" fill="url(#paint21_radial_226_33131)"/>
<path d="M131.173 33.5948C134.122 33.5948 136.585 31.5068 136.585 28.8475C136.585 26.1882 134.122 24.1003 131.173 24.1003C128.224 24.1003 125.761 26.1882 125.761 28.8475C125.761 31.5068 128.224 33.5948 131.173 33.5948Z" fill="url(#paint22_radial_226_33131)"/>
<path d="M131.173 33.5948C134.122 33.5948 136.585 31.5068 136.585 28.8475C136.585 26.1882 134.122 24.1003 131.173 24.1003C128.224 24.1003 125.761 26.1882 125.761 28.8475C125.761 31.5068 128.224 33.5948 131.173 33.5948Z" fill="url(#paint23_radial_226_33131)"/>
<path d="M131.173 33.5948C134.122 33.5948 136.585 31.5068 136.585 28.8475C136.585 26.1882 134.122 24.1003 131.173 24.1003C128.224 24.1003 125.761 26.1882 125.761 28.8475C125.761 31.5068 128.224 33.5948 131.173 33.5948Z" stroke="url(#paint24_linear_226_33131)" stroke-width="0.593407"/>
<path d="M240 120V65.716C176.95 43.8228 104.017 89.7702 55.3846 120H240Z" fill="url(#paint25_radial_226_33131)"/>
<path d="M240 120H0L0.000660896 119.999C9.23187 111.461 32.3091 90.1147 90 83.711C136.154 78.5878 209.231 105.769 240 120Z" fill="url(#paint26_radial_226_33131)"/>
<path d="M75.6555 79.3069C76.8333 79.885 78.3365 79.7772 79.4989 79.1687C80.3616 78.717 81.3433 78.4615 82.3846 78.4615C84.975 78.4615 87.1961 80.0423 88.1361 82.2917C88.2171 82.4855 88.4054 82.6154 88.6154 82.6154C93.2036 82.6154 96.9231 85.405 96.9231 88.8462C96.9231 92.2873 93.2036 95.0769 88.6154 95.0769C87.8083 95.0769 87.028 94.9906 86.2902 94.8296C84.9522 94.5376 83.4605 95.1092 82.5949 96.1704C81.0716 98.0381 78.752 99.2308 76.1538 99.2308C74.6115 99.2308 73.1672 98.8105 71.9295 98.0781C70.7347 97.3712 69.1114 97.3712 67.9167 98.0781C66.6789 98.8105 65.2347 99.2308 63.6923 99.2308C59.1041 99.2308 55.3846 95.5113 55.3846 90.9231C55.3846 86.3349 59.1041 82.6154 63.6923 82.6154C64.3424 82.6154 64.9626 82.3048 65.353 81.785C66.8686 79.7669 69.2819 78.4615 72 78.4615C73.3117 78.4615 74.5524 78.7655 75.6555 79.3069Z" fill="url(#paint27_radial_226_33131)"/>
<path fill-rule="evenodd" clip-rule="evenodd" d="M60.5769 50.1923C62.8073 50.1923 64.6154 52.0004 64.6154 54.2308V68.3654C64.6154 71.711 61.9033 74.4231 58.5577 74.4231H48.4615C46.2311 74.4231 44.4231 72.615 44.4231 70.3846C44.4231 68.1542 46.2311 66.3462 48.4615 66.3462H56.5385V54.2308C56.5385 52.0004 58.3465 50.1923 60.5769 50.1923Z" fill="#8C87BB"/>
<path fill-rule="evenodd" clip-rule="evenodd" d="M60.5769 50.1923C62.8073 50.1923 64.6154 52.0004 64.6154 54.2308V68.3654C64.6154 71.711 61.9033 74.4231 58.5577 74.4231H48.4615C46.2311 74.4231 44.4231 72.615 44.4231 70.3846C44.4231 68.1542 46.2311 66.3462 48.4615 66.3462H56.5385V54.2308C56.5385 52.0004 58.3465 50.1923 60.5769 50.1923Z" fill="url(#paint28_radial_226_33131)"/>
<path fill-rule="evenodd" clip-rule="evenodd" d="M36.3461 58.2692C38.5765 58.2692 40.3846 60.0773 40.3846 62.3077V76.4423H48.4615C50.6919 76.4423 52.5 78.2504 52.5 80.4808C52.5 82.7111 50.6919 84.5192 48.4615 84.5192H38.3654C35.0198 84.5192 32.3077 81.8071 32.3077 78.4615V62.3077C32.3077 60.0773 34.1158 58.2692 36.3461 58.2692Z" fill="url(#paint29_radial_226_33131)"/>
<path fill-rule="evenodd" clip-rule="evenodd" d="M48.4615 46.1539C50.6919 46.1539 52.5 47.962 52.5 50.1923V106.731C52.5 108.961 50.6919 110.769 48.4615 110.769C46.2311 110.769 44.4231 108.961 44.4231 106.731V50.1923C44.4231 47.962 46.2311 46.1539 48.4615 46.1539Z" fill="url(#paint30_radial_226_33131)"/>
<path fill-rule="evenodd" clip-rule="evenodd" d="M48.4615 46.1539C50.6919 46.1539 52.5 47.962 52.5 50.1923V106.731C52.5 108.961 50.6919 110.769 48.4615 110.769C46.2311 110.769 44.4231 108.961 44.4231 106.731V50.1923C44.4231 47.962 46.2311 46.1539 48.4615 46.1539Z" fill="url(#paint31_radial_226_33131)"/>
<path fill-rule="evenodd" clip-rule="evenodd" d="M191.538 41.7311C193.132 41.7311 194.423 43.0226 194.423 44.6158V53.2696H200.769C202.362 53.2696 203.654 54.5611 203.654 56.1542C203.654 57.7473 202.362 59.0388 200.769 59.0388H193.846C190.979 59.0388 188.654 56.7142 188.654 53.8465V44.6158C188.654 43.0226 189.945 41.7311 191.538 41.7311Z" fill="url(#paint32_radial_226_33131)"/>
<path fill-rule="evenodd" clip-rule="evenodd" d="M210 45.5769C211.593 45.5769 212.885 46.8684 212.885 48.4615L212.885 57.6923C212.885 60.5599 210.56 62.8846 207.692 62.8846L200.769 62.8846C199.176 62.8846 197.885 61.5931 197.885 60C197.885 58.4069 199.176 57.1154 200.769 57.1154L207.115 57.1154L207.115 48.4615C207.115 46.8684 208.407 45.5769 210 45.5769Z" fill="url(#paint33_radial_226_33131)"/>
<path fill-rule="evenodd" clip-rule="evenodd" d="M200.769 34.0385C199.176 34.0385 197.885 35.3299 197.885 36.9231L197.885 78.4615C197.885 80.0547 199.176 81.3461 200.769 81.3461C202.362 81.3461 203.654 80.0547 203.654 78.4615L203.654 36.9231C203.654 35.3299 202.362 34.0385 200.769 34.0385Z" fill="url(#paint34_radial_226_33131)"/>
<path fill-rule="evenodd" clip-rule="evenodd" d="M200.769 34.0385C199.176 34.0385 197.885 35.3299 197.885 36.9231L197.885 78.4615C197.885 80.0547 199.176 81.3461 200.769 81.3461C202.362 81.3461 203.654 80.0547 203.654 78.4615L203.654 36.9231C203.654 35.3299 202.362 34.0385 200.769 34.0385Z" fill="url(#paint35_radial_226_33131)"/>
<path d="M174.736 74.8722L169.529 81.9504C167.79 84.3138 168.669 87.6783 171.342 88.8893L176.162 91.0734C177.957 91.8869 179.906 92.3077 181.877 92.3077H204.626C206.467 92.3077 208.213 91.4867 209.386 90.0683C211.121 87.9719 211.281 84.9871 209.778 82.718L208.147 80.2536C206.729 78.1129 204.555 76.5879 202.059 75.9848L200.999 75.7287C199.042 75.2556 197.29 74.1616 196.006 72.6102C194.235 70.4698 191.601 69.2308 188.823 69.2308H185.889C181.486 69.2308 177.345 71.3252 174.736 74.8722Z" fill="url(#paint36_radial_226_33131)"/>
<path d="M36.9229 92.3077C33.9029 92.3077 31.2215 93.758 29.5375 96.0002C29.1037 96.5778 28.4146 96.9229 27.6923 96.9229C22.5943 96.9229 18.4615 101.056 18.4615 106.154C18.4615 111.252 22.5943 115.384 27.6923 115.384C29.51 115.384 31.205 114.859 32.6338 113.952C33.8057 113.208 35.4252 113.208 36.5972 113.952C38.0259 114.859 39.7209 115.384 41.5386 115.384C44.5277 115.384 47.1849 113.964 48.8719 111.761C49.7045 110.673 51.1935 110.105 52.5238 110.43C53.4245 110.65 54.3861 110.769 55.3847 110.769C60.4827 110.769 64.6154 107.669 64.6154 103.846C64.6154 100.022 60.4827 96.9229 55.3847 96.9229C55.1513 96.9229 54.942 96.7785 54.852 96.5631C53.8075 94.0639 51.3396 92.3077 48.4615 92.3077C47.2091 92.3077 46.0344 92.6402 45.0208 93.2219C43.8829 93.8749 42.3833 93.9802 41.2228 93.3682C39.9387 92.691 38.4756 92.3077 36.9229 92.3077Z" fill="url(#paint37_radial_226_33131)"/>
<defs>
<radialGradient id="paint0_radial_226_33131" cx="0" cy="0" r="1" gradientUnits="userSpaceOnUse" gradientTransform="translate(157.212 44.2689) rotate(129.653) scale(53.4697 55.0527)">
<stop stop-color="#FFACBB"/>
<stop offset="1" stop-color="#FF4D6D"/>
</radialGradient>
<radialGradient id="paint1_radial_226_33131" cx="0" cy="0" r="1" gradientUnits="userSpaceOnUse" gradientTransform="translate(157.212 44.2689) rotate(129.653) scale(53.4697 55.0527)">
<stop stop-color="#F6BDC8"/>
<stop offset="1" stop-color="#FFABBA"/>
</radialGradient>
<radialGradient id="paint2_radial_226_33131" cx="0" cy="0" r="1" gradientUnits="userSpaceOnUse" gradientTransform="translate(151.648 47.2359) rotate(126.159) scale(67.2577 93.8356)">
<stop offset="0.460023" stop-color="#D95069" stop-opacity="0"/>
<stop offset="0.802421" stop-color="#D95069"/>
</radialGradient>
<radialGradient id="paint3_radial_226_33131" cx="0" cy="0" r="1" gradientUnits="userSpaceOnUse" gradientTransform="translate(177.981 71.3431) rotate(-158.449) scale(87.5137 75.8795)">
<stop offset="0.678933" stop-color="#B66271" stop-opacity="0"/>
<stop offset="1" stop-color="#B66271"/>
</radialGradient>
<radialGradient id="paint4_radial_226_33131" cx="0" cy="0" r="1" gradientUnits="userSpaceOnUse" gradientTransform="translate(133.846 27.9502) rotate(90) scale(80.8516 62.1642)">
<stop offset="0.820755" stop-color="#C3747F" stop-opacity="0"/>
<stop offset="1" stop-color="#C3747F"/>
</radialGradient>
<radialGradient id="paint5_radial_226_33131" cx="0" cy="0" r="1" gradientUnits="userSpaceOnUse" gradientTransform="translate(95.7535 42.1071) rotate(19.9831) scale(14.5976 50.3811)">
<stop stop-color="#B44F62"/>
<stop offset="1" stop-color="#B44F62" stop-opacity="0"/>
</radialGradient>
<radialGradient id="paint6_radial_226_33131" cx="0" cy="0" r="1" gradientUnits="userSpaceOnUse" gradientTransform="translate(107.329 57.4351) rotate(-47.1747) scale(20.7328)">
<stop stop-color="#F29DAD"/>
<stop offset="1" stop-color="#CC5C70"/>
</radialGradient>
<radialGradient id="paint7_radial_226_33131" cx="0" cy="0" r="1" gradientUnits="userSpaceOnUse" gradientTransform="translate(116.279 49.6154) rotate(180) scale(12.1031 11.6033)">
<stop offset="0.894151" stop-color="#E65C75" stop-opacity="0"/>
<stop offset="1" stop-color="#E65C75"/>
</radialGradient>
<radialGradient id="paint8_radial_226_33131" cx="0" cy="0" r="1" gradientUnits="userSpaceOnUse" gradientTransform="translate(106.587 57.4351) rotate(-45.3312) scale(22.6851 16.9081)">
<stop offset="0.83431" stop-color="#CC4961" stop-opacity="0"/>
<stop offset="1" stop-color="#CC5268"/>
</radialGradient>
<radialGradient id="paint9_radial_226_33131" cx="0" cy="0" r="1" gradientUnits="userSpaceOnUse" gradientTransform="translate(145.715 52.2722) rotate(-38.0046) scale(21.1807 6.97005)">
<stop offset="0.199589" stop-color="#F2B8C3"/>
<stop offset="1" stop-color="#F28599"/>
</radialGradient>
<linearGradient id="paint10_linear_226_33131" x1="147.425" y1="39.2308" x2="156.533" y2="54.0659" gradientUnits="userSpaceOnUse">
<stop stop-color="#FFACBB"/>
<stop offset="0.492222" stop-color="#FFACBB" stop-opacity="0"/>
<stop offset="1" stop-color="#FFACBB"/>
</linearGradient>
<linearGradient id="paint11_linear_226_33131" x1="169.398" y1="73.8139" x2="159.477" y2="90.5962" gradientUnits="userSpaceOnUse">
<stop stop-color="#F5647F"/>
<stop offset="1" stop-color="#FF758E"/>
</linearGradient>
<linearGradient id="paint12_linear_226_33131" x1="119.977" y1="40.3009" x2="106.948" y2="57.2029" gradientUnits="userSpaceOnUse">
<stop stop-color="#EC798E" stop-opacity="0.77"/>
<stop offset="1" stop-color="#B45163" stop-opacity="0.66"/>
</linearGradient>
<radialGradient id="paint13_radial_226_33131" cx="0" cy="0" r="1" gradientUnits="userSpaceOnUse" gradientTransform="translate(136.198 73.9686) rotate(135) scale(11.2384 13.4221)">
<stop offset="0.252371" stop-color="#D97184"/>
<stop offset="1" stop-color="#E68A9B"/>
</radialGradient>
<radialGradient id="paint14_radial_226_33131" cx="0" cy="0" r="1" gradientUnits="userSpaceOnUse" gradientTransform="translate(129.83 80.6337) rotate(-43.6028) scale(12.9402 10.5445)">
<stop offset="0.837099" stop-color="#E35B74" stop-opacity="0"/>
<stop offset="1" stop-color="#E35B74"/>
</radialGradient>
<linearGradient id="paint15_linear_226_33131" x1="138.842" y1="70.0936" x2="127.76" y2="81.3369" gradientUnits="userSpaceOnUse">
<stop stop-color="#DE6F83"/>
<stop offset="1" stop-color="#E67388"/>
</linearGradient>
<linearGradient id="paint16_linear_226_33131" x1="117.157" y1="95.4497" x2="102.136" y2="82.1907" gradientUnits="userSpaceOnUse">
<stop stop-color="#B36558"/>
<stop offset="1" stop-color="#B96779"/>
</linearGradient>
<linearGradient id="paint17_linear_226_33131" x1="116.955" y1="84.7182" x2="104.067" y2="92.6168" gradientUnits="userSpaceOnUse">
<stop stop-color="#B44B5E"/>
<stop offset="1" stop-color="#AE6B77"/>
</linearGradient>
<radialGradient id="paint18_radial_226_33131" cx="0" cy="0" r="1" gradientUnits="userSpaceOnUse" gradientTransform="translate(114.809 92.7872) rotate(-142.952) scale(16.5316 9.99807)">
<stop offset="0.887636" stop-color="#AF4C46" stop-opacity="0"/>
<stop offset="1" stop-color="#AF4C46"/>
</radialGradient>
<linearGradient id="paint19_linear_226_33131" x1="163.691" y1="77.2849" x2="163.265" y2="89.6276" gradientUnits="userSpaceOnUse">
<stop stop-color="#E67E91"/>
<stop offset="1" stop-color="#FF8CA1"/>
</linearGradient>
<radialGradient id="paint20_radial_226_33131" cx="0" cy="0" r="1" gradientUnits="userSpaceOnUse" gradientTransform="translate(167.521 92.1096) rotate(-98.7873) scale(16.9387 14.0482)">
<stop offset="0.849803" stop-color="#DF4C67" stop-opacity="0"/>
<stop offset="1" stop-color="#E37488"/>
</radialGradient>
<radialGradient id="paint21_radial_226_33131" cx="0" cy="0" r="1" gradientUnits="userSpaceOnUse" gradientTransform="translate(166.895 81.1387) rotate(122.849) scale(14.0166 11.9291)">
<stop offset="0.718246" stop-color="#FF8A9F" stop-opacity="0"/>
<stop offset="0.952085" stop-color="#ED8094"/>
</radialGradient>
<radialGradient id="paint22_radial_226_33131" cx="0" cy="0" r="1" gradientUnits="userSpaceOnUse" gradientTransform="translate(134.975 28.8475) rotate(180) scale(8.91699 9.70434)">
<stop offset="0.43672" stop-color="#D98292"/>
<stop offset="1" stop-color="#F2AAB7"/>
</radialGradient>
<radialGradient id="paint23_radial_226_33131" cx="0" cy="0" r="1" gradientUnits="userSpaceOnUse" gradientTransform="translate(128.113 28.8475) scale(8.17523 8.81333)">
<stop offset="0.639344" stop-color="#CD566C" stop-opacity="0"/>
<stop offset="1" stop-color="#CD566C"/>
</radialGradient>
<linearGradient id="paint24_linear_226_33131" x1="136.289" y1="27.8695" x2="132.787" y2="27.8695" gradientUnits="userSpaceOnUse">
<stop stop-color="#E67388"/>
<stop offset="1" stop-color="#F27E93"/>
</linearGradient>
<radialGradient id="paint25_radial_226_33131" cx="0" cy="0" r="1" gradientUnits="userSpaceOnUse" gradientTransform="translate(133.846 76.1538) rotate(49.455) scale(83.0135 104.599)">
<stop stop-color="#9582E1"/>
<stop offset="1" stop-color="#3E2C86"/>
</radialGradient>
<radialGradient id="paint26_radial_226_33131" cx="0" cy="0" r="1" gradientUnits="userSpaceOnUse" gradientTransform="translate(90.968 94.2739) rotate(24.8299) scale(89.4523 85.9332)">
<stop stop-color="#937EE6"/>
<stop offset="1" stop-color="#291773"/>
</radialGradient>
<radialGradient id="paint27_radial_226_33131" cx="0" cy="0" r="1" gradientUnits="userSpaceOnUse" gradientTransform="translate(76.1538 69.2308) rotate(95.1944) scale(25.4893 51.6805)">
<stop stop-color="#9795C7"/>
<stop offset="1" stop-color="#634FAE"/>
</radialGradient>
<radialGradient id="paint28_radial_226_33131" cx="0" cy="0" r="1" gradientUnits="userSpaceOnUse" gradientTransform="translate(62.3077 46.1539) rotate(90) scale(30 7.03125)">
<stop stop-color="#B8B6E2"/>
<stop offset="0.790264" stop-color="#755ECD"/>
</radialGradient>
<radialGradient id="paint29_radial_226_33131" cx="0" cy="0" r="1" gradientUnits="userSpaceOnUse" gradientTransform="translate(39.2308 57.6923) rotate(90) scale(20.7692 5.19231)">
<stop stop-color="#B8B6E2"/>
<stop offset="1" stop-color="#755ECD"/>
</radialGradient>
<radialGradient id="paint30_radial_226_33131" cx="0" cy="0" r="1" gradientUnits="userSpaceOnUse" gradientTransform="translate(50.7692 40.6379) rotate(90) scale(56.7355 4.96154)">
<stop stop-color="#B8B6E2"/>
<stop offset="1" stop-color="#755ECD"/>
</radialGradient>
<radialGradient id="paint31_radial_226_33131" cx="0" cy="0" r="1" gradientUnits="userSpaceOnUse" gradientTransform="translate(48.4615 103.677) rotate(-90) scale(22.0638 45.2308)">
<stop stop-color="#3F2D85"/>
<stop offset="1" stop-color="#3F2D85" stop-opacity="0"/>
</radialGradient>
<radialGradient id="paint32_radial_226_33131" cx="0" cy="0" r="1" gradientUnits="userSpaceOnUse" gradientTransform="translate(189.231 41.5385) rotate(90) scale(20.7692 7.78846)">
<stop stop-color="#B8B6E2"/>
<stop offset="0.72776" stop-color="#755ECD"/>
</radialGradient>
<radialGradient id="paint33_radial_226_33131" cx="0" cy="0" r="1" gradientUnits="userSpaceOnUse" gradientTransform="translate(207.692 43.8461) rotate(90) scale(18.4615 5.43956)">
<stop offset="0.109375" stop-color="#9795C7"/>
<stop offset="1" stop-color="#755ECD"/>
</radialGradient>
<radialGradient id="paint34_radial_226_33131" cx="0" cy="0" r="1" gradientUnits="userSpaceOnUse" gradientTransform="translate(199.121 30) rotate(90) scale(41.5385 3.54396)">
<stop stop-color="#B8B6E2"/>
<stop offset="1" stop-color="#755ECD"/>
</radialGradient>
<radialGradient id="paint35_radial_226_33131" cx="0" cy="0" r="1" gradientUnits="userSpaceOnUse" gradientTransform="translate(200.769 76.1538) rotate(-90) scale(16.1538 32.3077)">
<stop stop-color="#3F2D85"/>
<stop offset="1" stop-color="#3F2D85" stop-opacity="0"/>
</radialGradient>
<radialGradient id="paint36_radial_226_33131" cx="0" cy="0" r="1" gradientUnits="userSpaceOnUse" gradientTransform="translate(182.308 60) rotate(81.2538) scale(30.353 57.2859)">
<stop stop-color="#9795C7"/>
<stop offset="1" stop-color="#4A359E"/>
</radialGradient>
<radialGradient id="paint37_radial_226_33131" cx="0" cy="0" r="1" gradientUnits="userSpaceOnUse" gradientTransform="translate(41.5385 87.1795) rotate(90.0001) scale(21.282 43.1505)">
<stop stop-color="#9795C7"/>
<stop offset="1" stop-color="#523BAB"/>
</radialGradient>
</defs>
</svg>
