<svg viewBox="0 0 240 120" fill="none" xmlns="http://www.w3.org/2000/svg">
<path d="M88.7188 63.173C88.3083 60.7784 84.8179 61.1176 80.033 61.5826C76.2703 61.9483 71.7071 62.3918 67.2115 61.645V108.081H117.585C116.906 103.853 117.45 100.004 117.906 96.7854C118.455 92.9001 118.874 89.9346 116.854 88.3324C114.703 86.6268 113.447 88.9869 112.127 91.4674C111.039 93.5113 109.908 95.6368 108.197 95.6368C102.651 95.6368 101.028 75.7527 108.197 75.7527C110.556 75.7527 111.646 77.3599 112.629 78.8099C113.683 80.3639 114.615 81.7372 116.854 80.7575C119.208 79.7277 118.562 75.6576 117.895 71.4624C117.337 67.9432 116.764 64.336 117.936 62.3614L117.92 62.3341C117.881 62.3884 117.842 62.4426 117.801 62.4967C114.149 59.5208 96.429 58.9798 96.429 63.714C96.429 65.6335 97.662 67.1046 98.8319 68.5005C99.888 69.7606 100.893 70.9593 100.893 72.3711C100.893 75.3469 96.0338 77.6793 91.2798 77.5112C86.8809 77.3556 82.6318 74.5814 82.6318 72.3711C82.6318 70.153 84.2365 69.0361 85.8069 67.9431C87.4927 66.7698 89.139 65.624 88.7188 63.173Z" fill="url(#paint0_linear_2685_3274)"/>
<path d="M88.7188 63.173C88.3083 60.7784 84.8179 61.1176 80.033 61.5826C76.2703 61.9483 71.7071 62.3918 67.2115 61.645V108.081H117.585C116.906 103.853 117.45 100.004 117.906 96.7854C118.455 92.9001 118.874 89.9346 116.854 88.3324C114.703 86.6268 113.447 88.9869 112.127 91.4674C111.039 93.5113 109.908 95.6368 108.197 95.6368C102.651 95.6368 101.028 75.7527 108.197 75.7527C110.556 75.7527 111.646 77.3599 112.629 78.8099C113.683 80.3639 114.615 81.7372 116.854 80.7575C119.208 79.7277 118.562 75.6576 117.895 71.4624C117.337 67.9432 116.764 64.336 117.936 62.3614L117.92 62.3341C117.881 62.3884 117.842 62.4426 117.801 62.4967C114.149 59.5208 96.429 58.9798 96.429 63.714C96.429 65.6335 97.662 67.1046 98.8319 68.5005C99.888 69.7606 100.893 70.9593 100.893 72.3711C100.893 75.3469 96.0338 77.6793 91.2798 77.5112C86.8809 77.3556 82.6318 74.5814 82.6318 72.3711C82.6318 70.153 84.2365 69.0361 85.8069 67.9431C87.4927 66.7698 89.139 65.624 88.7188 63.173Z" fill="url(#paint1_radial_2685_3274)"/>
<path d="M88.7188 63.173C88.3083 60.7784 84.8179 61.1176 80.033 61.5826C76.2703 61.9483 71.7071 62.3918 67.2115 61.645V108.081H117.585C116.906 103.853 117.45 100.004 117.906 96.7854C118.455 92.9001 118.874 89.9346 116.854 88.3324C114.703 86.6268 113.447 88.9869 112.127 91.4674C111.039 93.5113 109.908 95.6368 108.197 95.6368C102.651 95.6368 101.028 75.7527 108.197 75.7527C110.556 75.7527 111.646 77.3599 112.629 78.8099C113.683 80.3639 114.615 81.7372 116.854 80.7575C119.208 79.7277 118.562 75.6576 117.895 71.4624C117.337 67.9432 116.764 64.336 117.936 62.3614L117.92 62.3341C117.881 62.3884 117.842 62.4426 117.801 62.4967C114.149 59.5208 96.429 58.9798 96.429 63.714C96.429 65.6335 97.662 67.1046 98.8319 68.5005C99.888 69.7606 100.893 70.9593 100.893 72.3711C100.893 75.3469 96.0338 77.6793 91.2798 77.5112C86.8809 77.3556 82.6318 74.5814 82.6318 72.3711C82.6318 70.153 84.2365 69.0361 85.8069 67.9431C87.4927 66.7698 89.139 65.624 88.7188 63.173Z" fill="url(#paint2_radial_2685_3274)"/>
<path d="M88.7188 63.173C88.3083 60.7784 84.8179 61.1176 80.033 61.5826C76.2703 61.9483 71.7071 62.3918 67.2115 61.645V108.081H117.585C116.906 103.853 117.45 100.004 117.906 96.7854C118.455 92.9001 118.874 89.9346 116.854 88.3324C114.703 86.6268 113.447 88.9869 112.127 91.4674C111.039 93.5113 109.908 95.6368 108.197 95.6368C102.651 95.6368 101.028 75.7527 108.197 75.7527C110.556 75.7527 111.646 77.3599 112.629 78.8099C113.683 80.3639 114.615 81.7372 116.854 80.7575C119.208 79.7277 118.562 75.6576 117.895 71.4624C117.337 67.9432 116.764 64.336 117.936 62.3614L117.92 62.3341C117.881 62.3884 117.842 62.4426 117.801 62.4967C114.149 59.5208 96.429 58.9798 96.429 63.714C96.429 65.6335 97.662 67.1046 98.8319 68.5005C99.888 69.7606 100.893 70.9593 100.893 72.3711C100.893 75.3469 96.0338 77.6793 91.2798 77.5112C86.8809 77.3556 82.6318 74.5814 82.6318 72.3711C82.6318 70.153 84.2365 69.0361 85.8069 67.9431C87.4927 66.7698 89.139 65.624 88.7188 63.173Z" fill="url(#paint3_radial_2685_3274)"/>
<path d="M88.7188 63.173C88.3083 60.7784 84.8179 61.1176 80.033 61.5826C76.2703 61.9483 71.7071 62.3918 67.2115 61.645V108.081H117.585C116.906 103.853 117.45 100.004 117.906 96.7854C118.455 92.9001 118.874 89.9346 116.854 88.3324C114.703 86.6268 113.447 88.9869 112.127 91.4674C111.039 93.5113 109.908 95.6368 108.197 95.6368C102.651 95.6368 101.028 75.7527 108.197 75.7527C110.556 75.7527 111.646 77.3599 112.629 78.8099C113.683 80.3639 114.615 81.7372 116.854 80.7575C119.208 79.7277 118.562 75.6576 117.895 71.4624C117.337 67.9432 116.764 64.336 117.936 62.3614L117.92 62.3341C117.881 62.3884 117.842 62.4426 117.801 62.4967C114.149 59.5208 96.429 58.9798 96.429 63.714C96.429 65.6335 97.662 67.1046 98.8319 68.5005C99.888 69.7606 100.893 70.9593 100.893 72.3711C100.893 75.3469 96.0338 77.6793 91.2798 77.5112C86.8809 77.3556 82.6318 74.5814 82.6318 72.3711C82.6318 70.153 84.2365 69.0361 85.8069 67.9431C87.4927 66.7698 89.139 65.624 88.7188 63.173Z" fill="url(#paint4_linear_2685_3274)"/>
<path d="M166.259 108.081C165.893 104.494 166.493 100.738 167.018 97.4475C167.764 92.7697 168.36 89.0332 165.82 88.0619C163.564 87.1994 163.001 88.4521 162.326 89.9526C161.625 91.5113 160.803 93.3373 157.839 93.3373C152.023 93.3373 151.345 77.3759 156.893 77.3759C158.895 77.3759 160.086 78.9096 161.191 80.3307C162.474 81.9821 163.639 83.4814 165.82 82.2455C167.803 81.1218 167.299 77.8019 166.723 74.0061C166.12 70.0337 165.437 65.5401 167.443 62.4967C165.016 61.5126 160.309 62.457 155.898 63.3418C151.214 64.2814 146.865 65.1539 145.936 63.5788C144.168 60.5814 145.501 59.1997 146.783 57.8707C147.758 56.8607 148.703 55.881 148.236 54.2456C147.153 50.4582 133.897 50.5932 134.168 54.2454C134.285 55.8252 135.49 56.9242 136.613 57.9473C138.085 59.2894 139.414 60.5011 137.955 62.4967C136.713 64.1964 132.659 63.6529 128.16 63.0497C124.598 62.5722 120.758 62.0573 117.812 62.5883C116.806 64.6041 117.357 68.0738 117.895 71.462C118.562 75.6572 119.208 79.7273 116.854 80.7572C114.615 81.7368 113.683 80.3635 112.629 78.8095C111.646 77.3596 110.555 75.7523 108.197 75.7523C101.028 75.7523 102.651 95.6364 108.197 95.6364C109.908 95.6364 111.039 93.5109 112.127 91.467C113.447 88.9865 114.703 86.6264 116.854 88.3321C118.874 89.9343 118.455 92.8997 117.905 96.785C117.45 100.003 116.906 103.852 117.585 108.081L166.259 108.081Z" fill="url(#paint5_linear_2685_3274)"/>
<path d="M166.259 108.081C165.893 104.494 166.493 100.738 167.018 97.4475C167.764 92.7697 168.36 89.0332 165.82 88.0619C163.564 87.1994 163.001 88.4521 162.326 89.9526C161.625 91.5113 160.803 93.3373 157.839 93.3373C152.023 93.3373 151.345 77.3759 156.893 77.3759C158.895 77.3759 160.086 78.9096 161.191 80.3307C162.474 81.9821 163.639 83.4814 165.82 82.2455C167.803 81.1218 167.299 77.8019 166.723 74.0061C166.12 70.0337 165.437 65.5401 167.443 62.4967C165.016 61.5126 160.309 62.457 155.898 63.3418C151.214 64.2814 146.865 65.1539 145.936 63.5788C144.168 60.5814 145.501 59.1997 146.783 57.8707C147.758 56.8607 148.703 55.881 148.236 54.2456C147.153 50.4582 133.897 50.5932 134.168 54.2454C134.285 55.8252 135.49 56.9242 136.613 57.9473C138.085 59.2894 139.414 60.5011 137.955 62.4967C136.713 64.1964 132.659 63.6529 128.16 63.0497C124.598 62.5722 120.758 62.0573 117.812 62.5883C116.806 64.6041 117.357 68.0738 117.895 71.462C118.562 75.6572 119.208 79.7273 116.854 80.7572C114.615 81.7368 113.683 80.3635 112.629 78.8095C111.646 77.3596 110.555 75.7523 108.197 75.7523C101.028 75.7523 102.651 95.6364 108.197 95.6364C109.908 95.6364 111.039 93.5109 112.127 91.467C113.447 88.9865 114.703 86.6264 116.854 88.3321C118.874 89.9343 118.455 92.8997 117.905 96.785C117.45 100.003 116.906 103.852 117.585 108.081L166.259 108.081Z" fill="url(#paint6_radial_2685_3274)"/>
<path d="M166.259 108.081C165.893 104.494 166.493 100.738 167.018 97.4475C167.764 92.7697 168.36 89.0332 165.82 88.0619C163.564 87.1994 163.001 88.4521 162.326 89.9526C161.625 91.5113 160.803 93.3373 157.839 93.3373C152.023 93.3373 151.345 77.3759 156.893 77.3759C158.895 77.3759 160.086 78.9096 161.191 80.3307C162.474 81.9821 163.639 83.4814 165.82 82.2455C167.803 81.1218 167.299 77.8019 166.723 74.0061C166.12 70.0337 165.437 65.5401 167.443 62.4967C165.016 61.5126 160.309 62.457 155.898 63.3418C151.214 64.2814 146.865 65.1539 145.936 63.5788C144.168 60.5814 145.501 59.1997 146.783 57.8707C147.758 56.8607 148.703 55.881 148.236 54.2456C147.153 50.4582 133.897 50.5932 134.168 54.2454C134.285 55.8252 135.49 56.9242 136.613 57.9473C138.085 59.2894 139.414 60.5011 137.955 62.4967C136.713 64.1964 132.659 63.6529 128.16 63.0497C124.598 62.5722 120.758 62.0573 117.812 62.5883C116.806 64.6041 117.357 68.0738 117.895 71.462C118.562 75.6572 119.208 79.7273 116.854 80.7572C114.615 81.7368 113.683 80.3635 112.629 78.8095C111.646 77.3596 110.555 75.7523 108.197 75.7523C101.028 75.7523 102.651 95.6364 108.197 95.6364C109.908 95.6364 111.039 93.5109 112.127 91.467C113.447 88.9865 114.703 86.6264 116.854 88.3321C118.874 89.9343 118.455 92.8997 117.905 96.785C117.45 100.003 116.906 103.852 117.585 108.081L166.259 108.081Z" fill="url(#paint7_radial_2685_3274)"/>
<path d="M166.259 108.081C165.893 104.494 166.493 100.738 167.018 97.4475C167.764 92.7697 168.36 89.0332 165.82 88.0619C163.564 87.1994 163.001 88.4521 162.326 89.9526C161.625 91.5113 160.803 93.3373 157.839 93.3373C152.023 93.3373 151.345 77.3759 156.893 77.3759C158.895 77.3759 160.086 78.9096 161.191 80.3307C162.474 81.9821 163.639 83.4814 165.82 82.2455C167.803 81.1218 167.299 77.8019 166.723 74.0061C166.12 70.0337 165.437 65.5401 167.443 62.4967C165.016 61.5126 160.309 62.457 155.898 63.3418C151.214 64.2814 146.865 65.1539 145.936 63.5788C144.168 60.5814 145.501 59.1997 146.783 57.8707C147.758 56.8607 148.703 55.881 148.236 54.2456C147.153 50.4582 133.897 50.5932 134.168 54.2454C134.285 55.8252 135.49 56.9242 136.613 57.9473C138.085 59.2894 139.414 60.5011 137.955 62.4967C136.713 64.1964 132.659 63.6529 128.16 63.0497C124.598 62.5722 120.758 62.0573 117.812 62.5883C116.806 64.6041 117.357 68.0738 117.895 71.462C118.562 75.6572 119.208 79.7273 116.854 80.7572C114.615 81.7368 113.683 80.3635 112.629 78.8095C111.646 77.3596 110.555 75.7523 108.197 75.7523C101.028 75.7523 102.651 95.6364 108.197 95.6364C109.908 95.6364 111.039 93.5109 112.127 91.467C113.447 88.9865 114.703 86.6264 116.854 88.3321C118.874 89.9343 118.455 92.8997 117.905 96.785C117.45 100.003 116.906 103.852 117.585 108.081L166.259 108.081Z" fill="url(#paint8_radial_2685_3274)"/>
<path d="M166.259 108.081C165.893 104.494 166.493 100.738 167.018 97.4475C167.764 92.7697 168.36 89.0332 165.82 88.0619C163.564 87.1994 163.001 88.4521 162.326 89.9526C161.625 91.5113 160.803 93.3373 157.839 93.3373C152.023 93.3373 151.345 77.3759 156.893 77.3759C158.895 77.3759 160.086 78.9096 161.191 80.3307C162.474 81.9821 163.639 83.4814 165.82 82.2455C167.803 81.1218 167.299 77.8019 166.723 74.0061C166.12 70.0337 165.437 65.5401 167.443 62.4967C165.016 61.5126 160.309 62.457 155.898 63.3418C151.214 64.2814 146.865 65.1539 145.936 63.5788C144.168 60.5814 145.501 59.1997 146.783 57.8707C147.758 56.8607 148.703 55.881 148.236 54.2456C147.153 50.4582 133.897 50.5932 134.168 54.2454C134.285 55.8252 135.49 56.9242 136.613 57.9473C138.085 59.2894 139.414 60.5011 137.955 62.4967C136.713 64.1964 132.659 63.6529 128.16 63.0497C124.598 62.5722 120.758 62.0573 117.812 62.5883C116.806 64.6041 117.357 68.0738 117.895 71.462C118.562 75.6572 119.208 79.7273 116.854 80.7572C114.615 81.7368 113.683 80.3635 112.629 78.8095C111.646 77.3596 110.555 75.7523 108.197 75.7523C101.028 75.7523 102.651 95.6364 108.197 95.6364C109.908 95.6364 111.039 93.5109 112.127 91.467C113.447 88.9865 114.703 86.6264 116.854 88.3321C118.874 89.9343 118.455 92.8997 117.905 96.785C117.45 100.003 116.906 103.852 117.585 108.081L166.259 108.081Z" fill="url(#paint9_radial_2685_3274)"/>
<path d="M166.259 108.081C165.893 104.494 166.493 100.738 167.018 97.4475C167.764 92.7697 168.36 89.0332 165.82 88.0619C163.564 87.1994 163.001 88.4521 162.326 89.9526C161.625 91.5113 160.803 93.3373 157.839 93.3373C152.023 93.3373 151.345 77.3759 156.893 77.3759C158.895 77.3759 160.086 78.9096 161.191 80.3307C162.474 81.9821 163.639 83.4814 165.82 82.2455C167.803 81.1218 167.299 77.8019 166.723 74.0061C166.12 70.0337 165.437 65.5401 167.443 62.4967C165.016 61.5126 160.309 62.457 155.898 63.3418C151.214 64.2814 146.865 65.1539 145.936 63.5788C144.168 60.5814 145.501 59.1997 146.783 57.8707C147.758 56.8607 148.703 55.881 148.236 54.2456C147.153 50.4582 133.897 50.5932 134.168 54.2454C134.285 55.8252 135.49 56.9242 136.613 57.9473C138.085 59.2894 139.414 60.5011 137.955 62.4967C136.713 64.1964 132.659 63.6529 128.16 63.0497C124.598 62.5722 120.758 62.0573 117.812 62.5883C116.806 64.6041 117.357 68.0738 117.895 71.462C118.562 75.6572 119.208 79.7273 116.854 80.7572C114.615 81.7368 113.683 80.3635 112.629 78.8095C111.646 77.3596 110.555 75.7523 108.197 75.7523C101.028 75.7523 102.651 95.6364 108.197 95.6364C109.908 95.6364 111.039 93.5109 112.127 91.467C113.447 88.9865 114.703 86.6264 116.854 88.3321C118.874 89.9343 118.455 92.8997 117.905 96.785C117.45 100.003 116.906 103.852 117.585 108.081L166.259 108.081Z" fill="url(#paint10_radial_2685_3274)"/>
<path d="M166.259 108.081C165.893 104.494 166.493 100.738 167.018 97.4475C167.764 92.7697 168.36 89.0332 165.82 88.0619C163.564 87.1994 163.001 88.4521 162.326 89.9526C161.625 91.5113 160.803 93.3373 157.839 93.3373C152.023 93.3373 151.345 77.3759 156.893 77.3759C158.895 77.3759 160.086 78.9096 161.191 80.3307C162.474 81.9821 163.639 83.4814 165.82 82.2455C167.803 81.1218 167.299 77.8019 166.723 74.0061C166.12 70.0337 165.437 65.5401 167.443 62.4967C165.016 61.5126 160.309 62.457 155.898 63.3418C151.214 64.2814 146.865 65.1539 145.936 63.5788C144.168 60.5814 145.501 59.1997 146.783 57.8707C147.758 56.8607 148.703 55.881 148.236 54.2456C147.153 50.4582 133.897 50.5932 134.168 54.2454C134.285 55.8252 135.49 56.9242 136.613 57.9473C138.085 59.2894 139.414 60.5011 137.955 62.4967C136.713 64.1964 132.659 63.6529 128.16 63.0497C124.598 62.5722 120.758 62.0573 117.812 62.5883C116.806 64.6041 117.357 68.0738 117.895 71.462C118.562 75.6572 119.208 79.7273 116.854 80.7572C114.615 81.7368 113.683 80.3635 112.629 78.8095C111.646 77.3596 110.555 75.7523 108.197 75.7523C101.028 75.7523 102.651 95.6364 108.197 95.6364C109.908 95.6364 111.039 93.5109 112.127 91.467C113.447 88.9865 114.703 86.6264 116.854 88.3321C118.874 89.9343 118.455 92.8997 117.905 96.785C117.45 100.003 116.906 103.852 117.585 108.081L166.259 108.081Z" fill="url(#paint11_radial_2685_3274)"/>
<path d="M215.192 108.082V60.9573C212.006 61.2449 208.596 62.2295 205.48 63.129C200.296 64.6258 195.927 65.8869 194.767 63.3089C193.462 60.4088 194.916 59.1409 196.505 57.7555C197.88 56.5562 199.356 55.2688 199.231 52.7582C198.96 47.3475 182.458 48.4297 182.187 52.7582C182.064 54.733 183.502 55.7955 184.89 56.8218C186.545 58.045 188.131 59.2169 186.922 61.8209C185.626 64.6121 181.658 63.7013 177.501 62.7474C173.445 61.8166 170.893 61.06 167.393 62.4972C165.296 65.6252 166.174 70.3914 166.723 74.0068C167.299 77.8026 167.803 81.1225 165.82 82.2462C163.639 83.4821 162.474 81.9828 161.191 80.3314C160.087 78.9103 158.895 77.3766 156.893 77.3766C151.345 77.3766 152.023 93.338 157.84 93.338C160.803 93.338 161.625 91.512 162.326 89.9533C163.001 88.4528 163.565 87.2001 165.82 88.0626C168.361 89.0339 167.764 92.7704 167.018 97.4483C166.493 100.739 165.894 104.495 166.259 108.082H215.192Z" fill="url(#paint12_linear_2685_3274)"/>
<path d="M215.192 108.082V60.9573C212.006 61.2449 208.596 62.2295 205.48 63.129C200.296 64.6258 195.927 65.8869 194.767 63.3089C193.462 60.4088 194.916 59.1409 196.505 57.7555C197.88 56.5562 199.356 55.2688 199.231 52.7582C198.96 47.3475 182.458 48.4297 182.187 52.7582C182.064 54.733 183.502 55.7955 184.89 56.8218C186.545 58.045 188.131 59.2169 186.922 61.8209C185.626 64.6121 181.658 63.7013 177.501 62.7474C173.445 61.8166 170.893 61.06 167.393 62.4972C165.296 65.6252 166.174 70.3914 166.723 74.0068C167.299 77.8026 167.803 81.1225 165.82 82.2462C163.639 83.4821 162.474 81.9828 161.191 80.3314C160.087 78.9103 158.895 77.3766 156.893 77.3766C151.345 77.3766 152.023 93.338 157.84 93.338C160.803 93.338 161.625 91.512 162.326 89.9533C163.001 88.4528 163.565 87.2001 165.82 88.0626C168.361 89.0339 167.764 92.7704 167.018 97.4483C166.493 100.739 165.894 104.495 166.259 108.082H215.192Z" fill="url(#paint13_radial_2685_3274)"/>
<path d="M215.192 108.082V60.9573C212.006 61.2449 208.596 62.2295 205.48 63.129C200.296 64.6258 195.927 65.8869 194.767 63.3089C193.462 60.4088 194.916 59.1409 196.505 57.7555C197.88 56.5562 199.356 55.2688 199.231 52.7582C198.96 47.3475 182.458 48.4297 182.187 52.7582C182.064 54.733 183.502 55.7955 184.89 56.8218C186.545 58.045 188.131 59.2169 186.922 61.8209C185.626 64.6121 181.658 63.7013 177.501 62.7474C173.445 61.8166 170.893 61.06 167.393 62.4972C165.296 65.6252 166.174 70.3914 166.723 74.0068C167.299 77.8026 167.803 81.1225 165.82 82.2462C163.639 83.4821 162.474 81.9828 161.191 80.3314C160.087 78.9103 158.895 77.3766 156.893 77.3766C151.345 77.3766 152.023 93.338 157.84 93.338C160.803 93.338 161.625 91.512 162.326 89.9533C163.001 88.4528 163.565 87.2001 165.82 88.0626C168.361 89.0339 167.764 92.7704 167.018 97.4483C166.493 100.739 165.894 104.495 166.259 108.082H215.192Z" fill="url(#paint14_radial_2685_3274)"/>
<path d="M215.192 108.082V60.9573C212.006 61.2449 208.596 62.2295 205.48 63.129C200.296 64.6258 195.927 65.8869 194.767 63.3089C193.462 60.4088 194.916 59.1409 196.505 57.7555C197.88 56.5562 199.356 55.2688 199.231 52.7582C198.96 47.3475 182.458 48.4297 182.187 52.7582C182.064 54.733 183.502 55.7955 184.89 56.8218C186.545 58.045 188.131 59.2169 186.922 61.8209C185.626 64.6121 181.658 63.7013 177.501 62.7474C173.445 61.8166 170.893 61.06 167.393 62.4972C165.296 65.6252 166.174 70.3914 166.723 74.0068C167.299 77.8026 167.803 81.1225 165.82 82.2462C163.639 83.4821 162.474 81.9828 161.191 80.3314C160.087 78.9103 158.895 77.3766 156.893 77.3766C151.345 77.3766 152.023 93.338 157.84 93.338C160.803 93.338 161.625 91.512 162.326 89.9533C163.001 88.4528 163.565 87.2001 165.82 88.0626C168.361 89.0339 167.764 92.7704 167.018 97.4483C166.493 100.739 165.894 104.495 166.259 108.082H215.192Z" fill="url(#paint15_radial_2685_3274)"/>
<path d="M215.192 108.082V60.9573C212.006 61.2449 208.596 62.2295 205.48 63.129C200.296 64.6258 195.927 65.8869 194.767 63.3089C193.462 60.4088 194.916 59.1409 196.505 57.7555C197.88 56.5562 199.356 55.2688 199.231 52.7582C198.96 47.3475 182.458 48.4297 182.187 52.7582C182.064 54.733 183.502 55.7955 184.89 56.8218C186.545 58.045 188.131 59.2169 186.922 61.8209C185.626 64.6121 181.658 63.7013 177.501 62.7474C173.445 61.8166 170.893 61.06 167.393 62.4972C165.296 65.6252 166.174 70.3914 166.723 74.0068C167.299 77.8026 167.803 81.1225 165.82 82.2462C163.639 83.4821 162.474 81.9828 161.191 80.3314C160.087 78.9103 158.895 77.3766 156.893 77.3766C151.345 77.3766 152.023 93.338 157.84 93.338C160.803 93.338 161.625 91.512 162.326 89.9533C163.001 88.4528 163.565 87.2001 165.82 88.0626C168.361 89.0339 167.764 92.7704 167.018 97.4483C166.493 100.739 165.894 104.495 166.259 108.082H215.192Z" fill="url(#paint16_radial_2685_3274)"/>
<path d="M215.192 60.9574C212.006 61.2451 208.596 62.2297 205.48 63.1292C200.295 64.6259 195.927 65.8871 194.767 63.3091C193.462 60.409 194.916 59.1411 196.505 57.7557C197.88 56.5563 199.356 55.269 199.231 52.7584C198.96 47.3477 182.458 48.4298 182.187 52.7584C182.064 54.7332 183.501 55.7957 184.89 56.822C186.545 58.0452 188.131 59.217 186.922 61.8211C185.626 64.6123 181.657 63.7015 177.501 62.7476C173.746 61.8858 170.284 61.1785 167.443 62.4974C169.221 60.8468 167.781 57.5874 166.297 54.2292C164.619 50.432 162.885 46.5086 165.685 44.6423C168.613 42.6903 170.207 44.4886 171.949 46.4523C173.345 48.0266 174.835 49.7073 177.182 49.6471C182.458 49.5119 181.24 32.3331 176.236 32.3331C174.092 32.3331 172.321 33.9949 170.636 35.5767C168.385 37.6888 166.286 39.6583 163.656 37.3379C161.782 35.6842 162.985 33.2441 164.373 30.4297C166.207 26.7116 168.363 22.3402 164.171 18.2655H215.192V60.9574Z" fill="url(#paint17_linear_2685_3274)"/>
<path d="M215.192 60.9574C212.006 61.2451 208.596 62.2297 205.48 63.1292C200.295 64.6259 195.927 65.8871 194.767 63.3091C193.462 60.409 194.916 59.1411 196.505 57.7557C197.88 56.5563 199.356 55.269 199.231 52.7584C198.96 47.3477 182.458 48.4298 182.187 52.7584C182.064 54.7332 183.501 55.7957 184.89 56.822C186.545 58.0452 188.131 59.217 186.922 61.8211C185.626 64.6123 181.657 63.7015 177.501 62.7476C173.746 61.8858 170.284 61.1785 167.443 62.4974C169.221 60.8468 167.781 57.5874 166.297 54.2292C164.619 50.432 162.885 46.5086 165.685 44.6423C168.613 42.6903 170.207 44.4886 171.949 46.4523C173.345 48.0266 174.835 49.7073 177.182 49.6471C182.458 49.5119 181.24 32.3331 176.236 32.3331C174.092 32.3331 172.321 33.9949 170.636 35.5767C168.385 37.6888 166.286 39.6583 163.656 37.3379C161.782 35.6842 162.985 33.2441 164.373 30.4297C166.207 26.7116 168.363 22.3402 164.171 18.2655H215.192V60.9574Z" fill="url(#paint18_radial_2685_3274)"/>
<path d="M215.192 60.9574C212.006 61.2451 208.596 62.2297 205.48 63.1292C200.295 64.6259 195.927 65.8871 194.767 63.3091C193.462 60.409 194.916 59.1411 196.505 57.7557C197.88 56.5563 199.356 55.269 199.231 52.7584C198.96 47.3477 182.458 48.4298 182.187 52.7584C182.064 54.7332 183.501 55.7957 184.89 56.822C186.545 58.0452 188.131 59.217 186.922 61.8211C185.626 64.6123 181.657 63.7015 177.501 62.7476C173.746 61.8858 170.284 61.1785 167.443 62.4974C169.221 60.8468 167.781 57.5874 166.297 54.2292C164.619 50.432 162.885 46.5086 165.685 44.6423C168.613 42.6903 170.207 44.4886 171.949 46.4523C173.345 48.0266 174.835 49.7073 177.182 49.6471C182.458 49.5119 181.24 32.3331 176.236 32.3331C174.092 32.3331 172.321 33.9949 170.636 35.5767C168.385 37.6888 166.286 39.6583 163.656 37.3379C161.782 35.6842 162.985 33.2441 164.373 30.4297C166.207 26.7116 168.363 22.3402 164.171 18.2655H215.192V60.9574Z" fill="url(#paint19_radial_2685_3274)"/>
<path d="M215.192 60.9574C212.006 61.2451 208.596 62.2297 205.48 63.1292C200.295 64.6259 195.927 65.8871 194.767 63.3091C193.462 60.409 194.916 59.1411 196.505 57.7557C197.88 56.5563 199.356 55.269 199.231 52.7584C198.96 47.3477 182.458 48.4298 182.187 52.7584C182.064 54.7332 183.501 55.7957 184.89 56.822C186.545 58.0452 188.131 59.217 186.922 61.8211C185.626 64.6123 181.657 63.7015 177.501 62.7476C173.746 61.8858 170.284 61.1785 167.443 62.4974C169.221 60.8468 167.781 57.5874 166.297 54.2292C164.619 50.432 162.885 46.5086 165.685 44.6423C168.613 42.6903 170.207 44.4886 171.949 46.4523C173.345 48.0266 174.835 49.7073 177.182 49.6471C182.458 49.5119 181.24 32.3331 176.236 32.3331C174.092 32.3331 172.321 33.9949 170.636 35.5767C168.385 37.6888 166.286 39.6583 163.656 37.3379C161.782 35.6842 162.985 33.2441 164.373 30.4297C166.207 26.7116 168.363 22.3402 164.171 18.2655H215.192V60.9574Z" fill="url(#paint20_radial_2685_3274)"/>
<path d="M215.192 60.9574C212.006 61.2451 208.596 62.2297 205.48 63.1292C200.295 64.6259 195.927 65.8871 194.767 63.3091C193.462 60.409 194.916 59.1411 196.505 57.7557C197.88 56.5563 199.356 55.269 199.231 52.7584C198.96 47.3477 182.458 48.4298 182.187 52.7584C182.064 54.7332 183.501 55.7957 184.89 56.822C186.545 58.0452 188.131 59.217 186.922 61.8211C185.626 64.6123 181.657 63.7015 177.501 62.7476C173.746 61.8858 170.284 61.1785 167.443 62.4974C169.221 60.8468 167.781 57.5874 166.297 54.2292C164.619 50.432 162.885 46.5086 165.685 44.6423C168.613 42.6903 170.207 44.4886 171.949 46.4523C173.345 48.0266 174.835 49.7073 177.182 49.6471C182.458 49.5119 181.24 32.3331 176.236 32.3331C174.092 32.3331 172.321 33.9949 170.636 35.5767C168.385 37.6888 166.286 39.6583 163.656 37.3379C161.782 35.6842 162.985 33.2441 164.373 30.4297C166.207 26.7116 168.363 22.3402 164.171 18.2655H215.192V60.9574Z" fill="url(#paint21_radial_2685_3274)"/>
<path fill-rule="evenodd" clip-rule="evenodd" d="M198.366 64.7681C197.232 64.6659 196.401 64.2353 195.984 63.309C194.679 60.409 196.133 59.141 197.722 57.7557C199.097 56.5563 200.574 55.2689 200.448 52.7583C200.314 50.0699 196.172 48.9845 192.005 49.1037C195.726 49.212 199.109 50.3328 199.231 52.7584C199.356 55.269 197.88 56.5564 196.505 57.7557C194.916 59.1411 193.462 60.409 194.767 63.3091C195.321 64.5409 196.608 64.8962 198.366 64.7681ZM183.855 63.6682C182.317 63.5735 180.536 63.1647 178.718 62.7476C176.233 62.1771 173.876 61.6744 171.742 61.7822C173.543 61.8645 175.479 62.2837 177.501 62.7477C179.822 63.2803 182.084 63.7994 183.855 63.6682ZM169.099 61.958C170.151 60.1968 168.85 57.253 167.514 54.2292C165.836 50.432 164.103 46.5086 166.902 44.6422C167.536 44.2199 168.107 43.9731 168.63 43.8656C167.797 43.6841 166.846 43.8685 165.685 44.6423C162.885 46.5087 164.619 50.4321 166.297 54.2292C167.781 57.5874 169.221 60.8469 167.443 62.4974C167.974 62.2509 168.527 62.0752 169.099 61.958ZM177.601 49.5984C177.856 49.637 178.122 49.6542 178.4 49.6471C183.675 49.5118 182.458 32.3331 177.453 32.3331C177.212 32.3331 176.975 32.3541 176.743 32.3938C181.187 33.4734 182.217 48.62 177.601 49.5984ZM166.653 38.318C166.083 38.1934 165.493 37.8848 164.873 37.3379C162.999 35.6841 164.203 33.244 165.591 30.4296C167.425 26.7115 169.581 22.3401 165.388 18.2655H164.171C168.363 22.3402 166.207 26.7116 164.373 30.4297C162.985 33.2441 161.782 35.6842 163.656 37.338C164.728 38.2838 165.711 38.5168 166.653 38.318Z" fill="#793118"/>
<path d="M117.892 62.3739L117.936 62.4974L118.088 62.5429C120.995 62.09 124.709 62.5878 128.16 63.0506C132.659 63.6538 136.713 64.1973 137.955 62.4976C139.414 60.502 138.085 59.2903 136.613 57.9482C135.49 56.925 134.285 55.8261 134.168 54.2463C133.897 50.5941 147.154 50.4591 148.236 54.2465C148.703 55.8819 147.758 56.8616 146.783 57.8716C145.501 59.2006 144.168 60.5822 145.936 63.5797C146.865 65.1548 151.214 64.2823 155.898 63.3427C160.309 62.4579 165.016 61.5135 167.443 62.4976L167.409 62.5501L167.452 62.5368C167.446 62.5218 167.443 62.5088 167.443 62.4976C169.221 60.847 167.781 57.5874 166.297 54.2292C164.619 50.432 162.885 46.5086 165.685 44.6423C168.613 42.6903 170.207 44.4886 171.949 46.4523C173.345 48.0266 174.835 49.7073 177.183 49.6471C182.458 49.5119 181.241 32.3331 176.236 32.3331C174.093 32.3331 172.322 33.9949 170.636 35.5767C168.385 37.6888 166.286 39.6583 163.656 37.3379C161.782 35.6842 162.985 33.2441 164.373 30.4297C166.207 26.7116 168.364 22.3402 164.171 18.2655H118.625C115.848 22.9485 111.956 31.4057 114.555 34.9032C116.754 37.8646 119.748 35.9039 122.675 33.9871C124.427 32.8396 126.156 31.7077 127.675 31.6571C131.733 31.5218 132.545 48.1594 126.864 48.1594C124.357 48.1594 122.825 46.6848 121.535 45.4435C119.901 43.8712 118.656 42.6731 116.313 45.3186C114.247 47.6515 115.596 50.51 116.995 53.4732C118.414 56.4788 119.884 59.5921 117.892 62.3739Z" fill="url(#paint22_linear_2685_3274)"/>
<path d="M117.892 62.3739L117.936 62.4974L118.088 62.5429C120.995 62.09 124.709 62.5878 128.16 63.0506C132.659 63.6538 136.713 64.1973 137.955 62.4976C139.414 60.502 138.085 59.2903 136.613 57.9482C135.49 56.925 134.285 55.8261 134.168 54.2463C133.897 50.5941 147.154 50.4591 148.236 54.2465C148.703 55.8819 147.758 56.8616 146.783 57.8716C145.501 59.2006 144.168 60.5822 145.936 63.5797C146.865 65.1548 151.214 64.2823 155.898 63.3427C160.309 62.4579 165.016 61.5135 167.443 62.4976L167.409 62.5501L167.452 62.5368C167.446 62.5218 167.443 62.5088 167.443 62.4976C169.221 60.847 167.781 57.5874 166.297 54.2292C164.619 50.432 162.885 46.5086 165.685 44.6423C168.613 42.6903 170.207 44.4886 171.949 46.4523C173.345 48.0266 174.835 49.7073 177.183 49.6471C182.458 49.5119 181.241 32.3331 176.236 32.3331C174.093 32.3331 172.322 33.9949 170.636 35.5767C168.385 37.6888 166.286 39.6583 163.656 37.3379C161.782 35.6842 162.985 33.2441 164.373 30.4297C166.207 26.7116 168.364 22.3402 164.171 18.2655H118.625C115.848 22.9485 111.956 31.4057 114.555 34.9032C116.754 37.8646 119.748 35.9039 122.675 33.9871C124.427 32.8396 126.156 31.7077 127.675 31.6571C131.733 31.5218 132.545 48.1594 126.864 48.1594C124.357 48.1594 122.825 46.6848 121.535 45.4435C119.901 43.8712 118.656 42.6731 116.313 45.3186C114.247 47.6515 115.596 50.51 116.995 53.4732C118.414 56.4788 119.884 59.5921 117.892 62.3739Z" fill="url(#paint23_radial_2685_3274)"/>
<path d="M117.892 62.3739L117.936 62.4974L118.088 62.5429C120.995 62.09 124.709 62.5878 128.16 63.0506C132.659 63.6538 136.713 64.1973 137.955 62.4976C139.414 60.502 138.085 59.2903 136.613 57.9482C135.49 56.925 134.285 55.8261 134.168 54.2463C133.897 50.5941 147.154 50.4591 148.236 54.2465C148.703 55.8819 147.758 56.8616 146.783 57.8716C145.501 59.2006 144.168 60.5822 145.936 63.5797C146.865 65.1548 151.214 64.2823 155.898 63.3427C160.309 62.4579 165.016 61.5135 167.443 62.4976L167.409 62.5501L167.452 62.5368C167.446 62.5218 167.443 62.5088 167.443 62.4976C169.221 60.847 167.781 57.5874 166.297 54.2292C164.619 50.432 162.885 46.5086 165.685 44.6423C168.613 42.6903 170.207 44.4886 171.949 46.4523C173.345 48.0266 174.835 49.7073 177.183 49.6471C182.458 49.5119 181.241 32.3331 176.236 32.3331C174.093 32.3331 172.322 33.9949 170.636 35.5767C168.385 37.6888 166.286 39.6583 163.656 37.3379C161.782 35.6842 162.985 33.2441 164.373 30.4297C166.207 26.7116 168.364 22.3402 164.171 18.2655H118.625C115.848 22.9485 111.956 31.4057 114.555 34.9032C116.754 37.8646 119.748 35.9039 122.675 33.9871C124.427 32.8396 126.156 31.7077 127.675 31.6571C131.733 31.5218 132.545 48.1594 126.864 48.1594C124.357 48.1594 122.825 46.6848 121.535 45.4435C119.901 43.8712 118.656 42.6731 116.313 45.3186C114.247 47.6515 115.596 50.51 116.995 53.4732C118.414 56.4788 119.884 59.5921 117.892 62.3739Z" fill="url(#paint24_radial_2685_3274)"/>
<path d="M117.892 62.3739L117.936 62.4974L118.088 62.5429C120.995 62.09 124.709 62.5878 128.16 63.0506C132.659 63.6538 136.713 64.1973 137.955 62.4976C139.414 60.502 138.085 59.2903 136.613 57.9482C135.49 56.925 134.285 55.8261 134.168 54.2463C133.897 50.5941 147.154 50.4591 148.236 54.2465C148.703 55.8819 147.758 56.8616 146.783 57.8716C145.501 59.2006 144.168 60.5822 145.936 63.5797C146.865 65.1548 151.214 64.2823 155.898 63.3427C160.309 62.4579 165.016 61.5135 167.443 62.4976L167.409 62.5501L167.452 62.5368C167.446 62.5218 167.443 62.5088 167.443 62.4976C169.221 60.847 167.781 57.5874 166.297 54.2292C164.619 50.432 162.885 46.5086 165.685 44.6423C168.613 42.6903 170.207 44.4886 171.949 46.4523C173.345 48.0266 174.835 49.7073 177.183 49.6471C182.458 49.5119 181.241 32.3331 176.236 32.3331C174.093 32.3331 172.322 33.9949 170.636 35.5767C168.385 37.6888 166.286 39.6583 163.656 37.3379C161.782 35.6842 162.985 33.2441 164.373 30.4297C166.207 26.7116 168.364 22.3402 164.171 18.2655H118.625C115.848 22.9485 111.956 31.4057 114.555 34.9032C116.754 37.8646 119.748 35.9039 122.675 33.9871C124.427 32.8396 126.156 31.7077 127.675 31.6571C131.733 31.5218 132.545 48.1594 126.864 48.1594C124.357 48.1594 122.825 46.6848 121.535 45.4435C119.901 43.8712 118.656 42.6731 116.313 45.3186C114.247 47.6515 115.596 50.51 116.995 53.4732C118.414 56.4788 119.884 59.5921 117.892 62.3739Z" fill="url(#paint25_radial_2685_3274)"/>
<path d="M117.892 62.3739L117.936 62.4974L118.088 62.5429C120.995 62.09 124.709 62.5878 128.16 63.0506C132.659 63.6538 136.713 64.1973 137.955 62.4976C139.414 60.502 138.085 59.2903 136.613 57.9482C135.49 56.925 134.285 55.8261 134.168 54.2463C133.897 50.5941 147.154 50.4591 148.236 54.2465C148.703 55.8819 147.758 56.8616 146.783 57.8716C145.501 59.2006 144.168 60.5822 145.936 63.5797C146.865 65.1548 151.214 64.2823 155.898 63.3427C160.309 62.4579 165.016 61.5135 167.443 62.4976L167.409 62.5501L167.452 62.5368C167.446 62.5218 167.443 62.5088 167.443 62.4976C169.221 60.847 167.781 57.5874 166.297 54.2292C164.619 50.432 162.885 46.5086 165.685 44.6423C168.613 42.6903 170.207 44.4886 171.949 46.4523C173.345 48.0266 174.835 49.7073 177.183 49.6471C182.458 49.5119 181.241 32.3331 176.236 32.3331C174.093 32.3331 172.322 33.9949 170.636 35.5767C168.385 37.6888 166.286 39.6583 163.656 37.3379C161.782 35.6842 162.985 33.2441 164.373 30.4297C166.207 26.7116 168.364 22.3402 164.171 18.2655H118.625C115.848 22.9485 111.956 31.4057 114.555 34.9032C116.754 37.8646 119.748 35.9039 122.675 33.9871C124.427 32.8396 126.156 31.7077 127.675 31.6571C131.733 31.5218 132.545 48.1594 126.864 48.1594C124.357 48.1594 122.825 46.6848 121.535 45.4435C119.901 43.8712 118.656 42.6731 116.313 45.3186C114.247 47.6515 115.596 50.51 116.995 53.4732C118.414 56.4788 119.884 59.5921 117.892 62.3739Z" fill="url(#paint26_radial_2685_3274)"/>
<path d="M42.6719 51.7836C47.4711 52.0657 50.972 52.2716 51.0064 54.7009C51.0416 57.1873 49.2376 58.0642 47.3904 58.962C45.6695 59.7985 43.9111 60.6531 43.5674 62.8444C43.2248 65.028 46.9925 68.4273 51.3142 69.2627C55.9847 70.1656 61.1464 68.6145 61.6076 65.6746C61.8264 64.2798 61.0196 62.9399 60.1716 61.5314C59.2321 59.9711 58.242 58.3266 58.5395 56.4303C59.2732 51.7533 76.6951 55.0341 79.8419 58.54C82.3791 56.0907 81.3946 52.7365 80.4447 49.5C79.5218 46.3558 78.6316 43.3227 81.0344 41.3383C83.7593 39.0879 84.8036 40.4645 86.1739 42.2709C87.2559 43.6972 88.5411 45.3915 91.0174 45.7799C96.6299 46.6604 98.4067 30.0981 94.3768 29.6028C92.8677 29.4173 90.9849 30.2676 89.0759 31.1297C85.8873 32.5697 82.6258 34.0427 80.9115 30.7761C78.8868 26.9183 84.0425 19.1664 87.5117 14.9704L36.7191 7.00195L29.9958 49.858C34.3213 51.2926 38.898 51.5617 42.6719 51.7836Z" fill="url(#paint27_linear_2685_3274)"/>
<path d="M42.6719 51.7836C47.4711 52.0657 50.972 52.2716 51.0064 54.7009C51.0416 57.1873 49.2376 58.0642 47.3904 58.962C45.6695 59.7985 43.9111 60.6531 43.5674 62.8444C43.2248 65.028 46.9925 68.4273 51.3142 69.2627C55.9847 70.1656 61.1464 68.6145 61.6076 65.6746C61.8264 64.2798 61.0196 62.9399 60.1716 61.5314C59.2321 59.9711 58.242 58.3266 58.5395 56.4303C59.2732 51.7533 76.6951 55.0341 79.8419 58.54C82.3791 56.0907 81.3946 52.7365 80.4447 49.5C79.5218 46.3558 78.6316 43.3227 81.0344 41.3383C83.7593 39.0879 84.8036 40.4645 86.1739 42.2709C87.2559 43.6972 88.5411 45.3915 91.0174 45.7799C96.6299 46.6604 98.4067 30.0981 94.3768 29.6028C92.8677 29.4173 90.9849 30.2676 89.0759 31.1297C85.8873 32.5697 82.6258 34.0427 80.9115 30.7761C78.8868 26.9183 84.0425 19.1664 87.5117 14.9704L36.7191 7.00195L29.9958 49.858C34.3213 51.2926 38.898 51.5617 42.6719 51.7836Z" fill="url(#paint28_radial_2685_3274)"/>
<path d="M42.6719 51.7836C47.4711 52.0657 50.972 52.2716 51.0064 54.7009C51.0416 57.1873 49.2376 58.0642 47.3904 58.962C45.6695 59.7985 43.9111 60.6531 43.5674 62.8444C43.2248 65.028 46.9925 68.4273 51.3142 69.2627C55.9847 70.1656 61.1464 68.6145 61.6076 65.6746C61.8264 64.2798 61.0196 62.9399 60.1716 61.5314C59.2321 59.9711 58.242 58.3266 58.5395 56.4303C59.2732 51.7533 76.6951 55.0341 79.8419 58.54C82.3791 56.0907 81.3946 52.7365 80.4447 49.5C79.5218 46.3558 78.6316 43.3227 81.0344 41.3383C83.7593 39.0879 84.8036 40.4645 86.1739 42.2709C87.2559 43.6972 88.5411 45.3915 91.0174 45.7799C96.6299 46.6604 98.4067 30.0981 94.3768 29.6028C92.8677 29.4173 90.9849 30.2676 89.0759 31.1297C85.8873 32.5697 82.6258 34.0427 80.9115 30.7761C78.8868 26.9183 84.0425 19.1664 87.5117 14.9704L36.7191 7.00195L29.9958 49.858C34.3213 51.2926 38.898 51.5617 42.6719 51.7836Z" fill="url(#paint29_radial_2685_3274)"/>
<path d="M42.6719 51.7836C47.4711 52.0657 50.972 52.2716 51.0064 54.7009C51.0416 57.1873 49.2376 58.0642 47.3904 58.962C45.6695 59.7985 43.9111 60.6531 43.5674 62.8444C43.2248 65.028 46.9925 68.4273 51.3142 69.2627C55.9847 70.1656 61.1464 68.6145 61.6076 65.6746C61.8264 64.2798 61.0196 62.9399 60.1716 61.5314C59.2321 59.9711 58.242 58.3266 58.5395 56.4303C59.2732 51.7533 76.6951 55.0341 79.8419 58.54C82.3791 56.0907 81.3946 52.7365 80.4447 49.5C79.5218 46.3558 78.6316 43.3227 81.0344 41.3383C83.7593 39.0879 84.8036 40.4645 86.1739 42.2709C87.2559 43.6972 88.5411 45.3915 91.0174 45.7799C96.6299 46.6604 98.4067 30.0981 94.3768 29.6028C92.8677 29.4173 90.9849 30.2676 89.0759 31.1297C85.8873 32.5697 82.6258 34.0427 80.9115 30.7761C78.8868 26.9183 84.0425 19.1664 87.5117 14.9704L36.7191 7.00195L29.9958 49.858C34.3213 51.2926 38.898 51.5617 42.6719 51.7836Z" fill="url(#paint30_linear_2685_3274)"/>
<path fill-rule="evenodd" clip-rule="evenodd" d="M85.4886 61.2661C84.0302 61.1942 82.1594 61.376 80.033 61.5826C77.9845 61.7817 75.6987 62.0039 73.3158 62.0445C76.2322 62.0966 79.0492 61.8228 81.5209 61.5826C82.9809 61.4407 84.3204 61.3105 85.4886 61.2661ZM68.6995 61.8503C68.2035 61.7952 67.7071 61.7273 67.2115 61.645V108.081H117.585C117.585 108.081 117.585 108.081 117.585 108.081H68.6995V61.8503ZM116.224 87.9335C114.447 87.109 113.313 89.2397 112.127 91.4674C111.2 93.2097 110.241 95.0114 108.918 95.5051C109.164 95.5914 109.42 95.6367 109.685 95.6367C111.396 95.6367 112.527 93.5112 113.615 91.4673C114.433 89.9302 115.227 88.4394 116.224 87.9335ZM108.991 75.8187C110.815 76.1349 111.763 77.5334 112.629 78.8099C113.586 80.2204 114.442 81.4822 116.266 80.9704C115.372 80.66 114.768 79.7694 114.117 78.8098C113.134 77.3598 112.044 75.7526 109.685 75.7526C109.444 75.7526 109.212 75.7751 108.991 75.8187ZM107.142 60.2157C102.292 60.3116 97.9169 61.3616 97.9169 63.7139C97.9169 65.6334 99.1499 67.1045 100.32 68.5004C101.376 69.7605 102.381 70.9592 102.381 72.371C102.381 75.3468 97.5218 77.6792 92.7677 77.5111C92.6848 77.5081 92.602 77.5043 92.5192 77.4995C96.8422 77.2687 100.893 75.0881 100.893 72.3711C100.893 70.9593 99.888 69.7606 98.8319 68.5005L98.8319 68.5005C97.662 67.1046 96.429 65.6335 96.429 63.714C96.429 61.1228 101.737 60.112 107.142 60.2157Z" fill="#955320"/>
<path fill-rule="evenodd" clip-rule="evenodd" d="M119.073 108.081C118.394 103.853 118.938 100.003 119.393 96.7852C119.943 92.8999 120.362 89.9345 118.342 88.3323C117.524 87.6836 116.836 87.623 116.224 87.9333C116.425 88.0268 116.635 88.1584 116.854 88.3321C118.874 89.9343 118.455 92.8997 117.905 96.785C117.45 100.003 116.906 103.852 117.585 108.081L119.073 108.081ZM165.343 87.9035C163.48 87.3875 162.95 88.5639 162.326 89.9526C161.7 91.3444 160.977 92.9494 158.72 93.2771C158.916 93.3168 159.118 93.3375 159.327 93.3375C162.291 93.3375 163.112 91.5115 163.814 89.9528C164.227 89.0337 164.599 88.2075 165.343 87.9035ZM157.695 77.4632C159.23 77.8073 160.243 79.1105 161.191 80.3307C162.322 81.7863 163.361 83.1238 165.085 82.574C164.165 82.2441 163.443 81.3145 162.679 80.3309C161.574 78.9098 160.383 77.3761 158.381 77.3761C158.14 77.3761 157.912 77.406 157.695 77.4632ZM165.4 62.0973C162.831 61.9509 159.278 62.6638 155.898 63.3418C153.458 63.8313 151.109 64.3026 149.286 64.4191C151.193 64.5844 154.213 63.9786 157.386 63.342C160.153 62.787 163.036 62.2086 165.4 62.0973ZM141.536 51.4703C137.834 51.3233 134.022 52.2697 134.168 54.2454C134.285 55.8252 135.49 56.9242 136.613 57.9473C138.085 59.2894 139.414 60.5011 137.955 62.4967C137.42 63.2299 136.361 63.5457 134.968 63.6193C137.089 63.7094 138.73 63.4732 139.443 62.4969C140.902 60.5013 139.573 59.2896 138.101 57.9475C136.978 56.9244 135.773 55.8254 135.656 54.2456C135.529 52.5353 138.369 51.5963 141.536 51.4703ZM121.45 62.3753C120.152 62.3369 118.919 62.3888 117.812 62.5883C116.806 64.6041 117.357 68.0738 117.895 71.462C118.562 75.6572 119.208 79.7273 116.854 80.7572C116.647 80.8477 116.451 80.9181 116.266 80.9701C116.82 81.1626 117.485 81.1322 118.342 80.7574C120.696 79.7275 120.049 75.6574 119.383 71.4622C118.845 68.0741 118.294 64.6043 119.3 62.5885C119.974 62.4669 120.696 62.4002 121.45 62.3753ZM108.992 75.8184C108.744 75.7754 108.479 75.7523 108.197 75.7523C101.028 75.7523 102.651 95.6364 108.197 95.6364C108.449 95.6364 108.689 95.5902 108.918 95.5049C104.177 93.8434 102.944 77.0051 108.992 75.8184Z" fill="#328E90"/>
<path fill-rule="evenodd" clip-rule="evenodd" d="M167.747 108.082C167.382 104.495 167.981 100.739 168.506 97.4484C169.252 92.7705 169.849 89.034 167.308 88.0627C166.434 87.7285 165.814 87.7119 165.343 87.9042C165.493 87.9458 165.652 87.9983 165.82 88.0626C168.361 89.0339 167.764 92.7704 167.018 97.4482C166.493 100.739 165.894 104.495 166.259 108.082H167.747ZM158.72 93.2777C158.45 93.317 158.157 93.3379 157.84 93.3379C152.023 93.3379 151.345 77.3766 156.893 77.3766C157.176 77.3766 157.443 77.4072 157.695 77.4639C153.082 78.6812 153.706 92.2593 158.72 93.2777ZM165.086 82.5746C165.71 82.7986 166.426 82.7461 167.308 82.2463C169.291 81.1226 168.787 77.8028 168.211 74.0069C168.182 73.816 168.152 73.6219 168.122 73.425C167.578 69.8928 166.895 65.4602 168.881 62.4973C170.017 62.0309 171.053 61.7955 172.073 61.7222C170.55 61.621 169.082 61.8037 167.393 62.4972C165.407 65.4601 166.09 69.8927 166.634 73.4249C166.664 73.6218 166.694 73.8159 166.723 74.0067C167.299 77.8026 167.803 81.1225 165.82 82.2462C165.562 82.3926 165.318 82.5007 165.086 82.5746ZM183.975 63.658C186.025 63.8095 187.662 63.4313 188.41 61.821C189.619 59.217 188.033 58.0451 186.378 56.8219C184.989 55.7956 183.552 54.7332 183.675 52.7583C183.81 50.6035 187.967 49.2532 192.142 49.108C187.528 48.9424 182.338 50.3463 182.187 52.7582C182.064 54.733 183.502 55.7955 184.89 56.8218C186.545 58.045 188.131 59.2169 186.922 61.8209C186.366 63.0181 185.318 63.5342 183.975 63.658ZM198.517 64.7559C200.54 64.9849 203.58 64.1073 206.968 63.1291C209.603 62.3683 212.449 61.5466 215.192 61.1373V60.9572C212.006 61.2449 208.596 62.2295 205.48 63.129C202.843 63.8904 200.417 64.5908 198.517 64.7559Z" fill="#9F630E"/>
<path fill-rule="evenodd" clip-rule="evenodd" d="M119.39 62.4034L119.38 62.3738C121.372 59.592 119.902 56.4787 118.483 53.4731C117.084 50.5099 115.735 47.6514 117.801 45.3185C118.466 44.5671 119.043 44.1258 119.566 43.915C118.657 43.5439 117.669 43.7876 116.313 45.3186C114.247 47.6515 115.596 50.51 116.995 53.4731C118.414 56.4787 119.884 59.5921 117.892 62.3739L117.936 62.4974L118.088 62.5429C118.507 62.4777 118.942 62.4322 119.39 62.4034ZM121.445 62.376C123.602 62.4394 125.935 62.7523 128.16 63.0506C130.72 63.3937 133.136 63.7176 134.971 63.62C133.4 63.5534 131.564 63.3074 129.648 63.0505C126.9 62.6821 123.986 62.2914 121.445 62.376ZM141.532 51.471C144.675 51.5952 147.739 52.5073 148.236 54.2465C148.703 55.8819 147.758 56.8615 146.783 57.8715C145.501 59.2006 144.168 60.5822 145.936 63.5797C146.381 64.3345 147.612 64.5272 149.288 64.4198C148.38 64.3413 147.724 64.0879 147.424 63.5796C145.656 60.5821 146.989 59.2005 148.271 57.8715C149.246 56.8615 150.191 55.8818 149.724 54.2464C149.148 52.232 145.129 51.3272 141.532 51.471ZM165.398 62.098C166.182 62.1426 166.875 62.2672 167.443 62.4975L167.409 62.5501L167.452 62.5367C167.446 62.5218 167.443 62.5088 167.443 62.4975C167.55 62.3985 167.645 62.2937 167.729 62.1834C167.04 62.0784 166.253 62.0577 165.398 62.098ZM168.761 43.8973C170.736 43.4062 172.039 44.8759 173.437 46.4522C174.633 47.8014 175.899 49.2287 177.714 49.5715C177.545 49.6167 177.368 49.6424 177.183 49.6471C174.835 49.7073 173.345 48.0266 171.949 46.4522C170.934 45.308 169.969 44.22 168.761 43.8973ZM176.854 32.4239C176.655 32.3643 176.449 32.3331 176.236 32.3331C174.093 32.3331 172.321 33.9949 170.636 35.5766C169.347 36.7857 168.108 37.948 166.791 38.2857C168.694 38.7948 170.362 37.2294 172.124 35.5766C173.576 34.2138 175.092 32.7916 176.854 32.4239ZM120.113 18.2655H118.625C115.848 22.9485 111.956 31.4057 114.555 34.9032C115.578 36.2804 116.772 36.5931 118.052 36.3407C117.333 36.1732 116.657 35.7301 116.042 34.9031C113.444 31.4057 117.336 22.9485 120.113 18.2655ZM128.321 31.784C131.669 33.2587 132.192 47.0302 127.461 48.0943C127.744 48.1366 128.04 48.1593 128.352 48.1593C134.033 48.1593 133.221 31.5217 129.163 31.657C128.889 31.6662 128.608 31.7106 128.321 31.784Z" fill="#497C6B"/>
<path fill-rule="evenodd" clip-rule="evenodd" d="M48.1111 52.3164C49.8983 52.6879 50.9873 53.3512 51.0064 54.7009C51.0416 57.1873 49.2376 58.0642 47.3904 58.962C45.6696 59.7985 43.9112 60.6531 43.5674 62.8444C43.2248 65.028 46.9926 68.4273 51.3142 69.2627C51.7203 69.3412 52.1302 69.4012 52.5403 69.4433C48.3219 68.53 44.7013 65.2173 45.0374 63.0749C45.3811 60.8837 47.1395 60.029 48.8604 59.1926C50.7076 58.2947 52.5116 57.4179 52.4764 54.9314C52.4525 53.2434 50.7549 52.6289 48.1111 52.3164ZM69.6658 54.6347C74.0683 55.4122 78.4176 56.9531 79.842 58.54C80.0322 58.3565 80.2026 58.1678 80.3547 57.9745C78.1583 56.5124 73.7935 55.1989 69.6658 54.6347ZM84.4657 40.4558C85.0773 40.8252 85.5967 41.5099 86.174 42.2709C87.256 43.6972 88.5412 45.3915 91.0175 45.78C91.2228 45.8122 91.4228 45.821 91.6177 45.8082C89.695 45.2051 88.5915 43.7505 87.644 42.5014C86.6629 41.2081 85.8489 40.1352 84.4657 40.4558ZM94.9948 29.8282C94.8066 29.7073 94.6007 29.6303 94.377 29.6028C92.8678 29.4173 90.985 30.2676 89.0761 31.1297C87.3704 31.9 85.6439 32.6798 84.1445 32.7384C85.9118 33.4531 88.2478 32.3982 90.546 31.3603C92.1102 30.6539 93.6569 29.9554 94.9948 29.8282ZM35.9637 51.1986C34.4632 50.9357 32.9497 50.5807 31.4658 50.0885L38.1891 7.23256L36.7191 7.00195L29.9958 49.858C31.9662 50.5115 33.9887 50.9231 35.9637 51.1986Z" fill="#438E9D"/>
<defs>
<linearGradient id="paint0_linear_2685_3274" x1="79.9265" y1="58.5742" x2="99.9459" y2="108.081" gradientUnits="userSpaceOnUse">
<stop stop-color="#E27520"/>
<stop offset="1" stop-color="#CD6F26"/>
</linearGradient>
<radialGradient id="paint1_radial_2685_3274" cx="0" cy="0" r="1" gradientUnits="userSpaceOnUse" gradientTransform="translate(111.646 91.2409) rotate(113.963) scale(6.66107 4.85372)">
<stop offset="0.266667" stop-color="white"/>
<stop offset="1" stop-color="white" stop-opacity="0"/>
</radialGradient>
<radialGradient id="paint2_radial_2685_3274" cx="0" cy="0" r="1" gradientUnits="userSpaceOnUse" gradientTransform="translate(94.6705 71.0186) rotate(40.3226) scale(10.5564 12.3112)">
<stop offset="0.301696" stop-color="white"/>
<stop offset="1" stop-color="white" stop-opacity="0"/>
</radialGradient>
<radialGradient id="paint3_radial_2685_3274" cx="0" cy="0" r="1" gradientUnits="userSpaceOnUse" gradientTransform="translate(112.931 80.0814) rotate(-130.895) scale(10.0209 4.51004)">
<stop offset="0.0048623" stop-color="white"/>
<stop offset="1" stop-color="white" stop-opacity="0"/>
</radialGradient>
<linearGradient id="paint4_linear_2685_3274" x1="67.2115" y1="69.2602" x2="71.8106" y2="69.2602" gradientUnits="userSpaceOnUse">
<stop stop-color="white"/>
<stop offset="1" stop-color="white" stop-opacity="0"/>
</linearGradient>
<linearGradient id="paint5_linear_2685_3274" x1="120.777" y1="53.9748" x2="148.371" y2="100.777" gradientUnits="userSpaceOnUse">
<stop stop-color="#51C9CD"/>
<stop offset="1" stop-color="#0D999C"/>
</linearGradient>
<radialGradient id="paint6_radial_2685_3274" cx="0" cy="0" r="1" gradientUnits="userSpaceOnUse" gradientTransform="translate(103.41 85.4917) rotate(-87.1677) scale(14.762 6.68759)">
<stop offset="0.0048623" stop-color="white"/>
<stop offset="1" stop-color="white" stop-opacity="0"/>
</radialGradient>
<radialGradient id="paint7_radial_2685_3274" cx="0" cy="0" r="1" gradientUnits="userSpaceOnUse" gradientTransform="translate(117.395 99.6946) rotate(-86.4862) scale(15.4493 6.99897)">
<stop offset="0.0048623" stop-color="white"/>
<stop offset="1" stop-color="white" stop-opacity="0"/>
</radialGradient>
<radialGradient id="paint8_radial_2685_3274" cx="0" cy="0" r="1" gradientUnits="userSpaceOnUse" gradientTransform="translate(116.313 67.6366) rotate(77.7995) scale(15.3615 6.95915)">
<stop offset="0.0048623" stop-color="white"/>
<stop offset="1" stop-color="white" stop-opacity="0"/>
</radialGradient>
<radialGradient id="paint9_radial_2685_3274" cx="0" cy="0" r="1" gradientUnits="userSpaceOnUse" gradientTransform="translate(134.844 56.0038) rotate(55.3487) scale(11.1813 5.06545)">
<stop offset="0.0048623" stop-color="white"/>
<stop offset="1" stop-color="white" stop-opacity="0"/>
</radialGradient>
<radialGradient id="paint10_radial_2685_3274" cx="0" cy="0" r="1" gradientUnits="userSpaceOnUse" gradientTransform="translate(160.274 91.1729) rotate(-42.4362) scale(6.4148 5.11619)">
<stop offset="0.0048623" stop-color="white"/>
<stop offset="1" stop-color="white" stop-opacity="0"/>
</radialGradient>
<radialGradient id="paint11_radial_2685_3274" cx="0" cy="0" r="1" gradientUnits="userSpaceOnUse" gradientTransform="translate(159.598 81.0279) rotate(47.07) scale(7.94391 6.33575)">
<stop offset="0.0048623" stop-color="white"/>
<stop offset="1" stop-color="white" stop-opacity="0"/>
</radialGradient>
<linearGradient id="paint12_linear_2685_3274" x1="172.178" y1="56.1397" x2="207.076" y2="103.212" gradientUnits="userSpaceOnUse">
<stop stop-color="#FECF27"/>
<stop offset="1" stop-color="#DE9200"/>
</linearGradient>
<radialGradient id="paint13_radial_2685_3274" cx="0" cy="0" r="1" gradientUnits="userSpaceOnUse" gradientTransform="translate(166.902 98.2074) rotate(-86.7481) scale(11.9226 6.22755)">
<stop offset="0.0048623" stop-color="white"/>
<stop offset="1" stop-color="white" stop-opacity="0"/>
</radialGradient>
<radialGradient id="paint14_radial_2685_3274" cx="0" cy="0" r="1" gradientUnits="userSpaceOnUse" gradientTransform="translate(166.361 68.1784) rotate(86.1575) scale(18.1665 7.45009)">
<stop offset="0.0048623" stop-color="white"/>
<stop offset="1" stop-color="white" stop-opacity="0"/>
</radialGradient>
<radialGradient id="paint15_radial_2685_3274" cx="0" cy="0" r="1" gradientUnits="userSpaceOnUse" gradientTransform="translate(154.052 85.3571) rotate(87.2737) scale(11.3752 4.66499)">
<stop offset="0.0048623" stop-color="white"/>
<stop offset="1" stop-color="white" stop-opacity="0"/>
</radialGradient>
<radialGradient id="paint16_radial_2685_3274" cx="0" cy="0" r="1" gradientUnits="userSpaceOnUse" gradientTransform="translate(184.138 56.6808) rotate(59.2883) scale(11.0132 7.65346)">
<stop offset="0.281227" stop-color="white"/>
<stop offset="1" stop-color="white" stop-opacity="0"/>
</radialGradient>
<linearGradient id="paint17_linear_2685_3274" x1="177.588" y1="15.0191" x2="203.289" y2="62.0916" gradientUnits="userSpaceOnUse">
<stop stop-color="#DD420D"/>
<stop offset="1" stop-color="#B1370E"/>
</linearGradient>
<radialGradient id="paint18_radial_2685_3274" cx="0" cy="0" r="1" gradientUnits="userSpaceOnUse" gradientTransform="translate(164.197 51.4056) rotate(67.9931) scale(14.4392 6.20776)">
<stop stop-color="white"/>
<stop offset="1" stop-color="white" stop-opacity="0"/>
</radialGradient>
<radialGradient id="paint19_radial_2685_3274" cx="0" cy="0" r="1" gradientUnits="userSpaceOnUse" gradientTransform="translate(195.714 55.0578) rotate(116.565) scale(9.0739 6.82548)">
<stop offset="0.266667" stop-color="white"/>
<stop offset="1" stop-color="white" stop-opacity="0"/>
</radialGradient>
<radialGradient id="paint20_radial_2685_3274" cx="0" cy="0" r="1" gradientUnits="userSpaceOnUse" gradientTransform="translate(179.752 41.5291) rotate(90) scale(12.5818 5.40923)">
<stop stop-color="white"/>
<stop offset="1" stop-color="white" stop-opacity="0"/>
</radialGradient>
<radialGradient id="paint21_radial_2685_3274" cx="0" cy="0" r="1" gradientUnits="userSpaceOnUse" gradientTransform="translate(164.873 27.0577) rotate(108.048) scale(12.6616 6.26581)">
<stop stop-color="white"/>
<stop offset="1" stop-color="white" stop-opacity="0"/>
</radialGradient>
<linearGradient id="paint22_linear_2685_3274" x1="133.762" y1="16.9128" x2="161.898" y2="64.4473" gradientUnits="userSpaceOnUse">
<stop stop-color="#ADEDD7"/>
<stop offset="1" stop-color="#81E4C3"/>
</linearGradient>
<radialGradient id="paint23_radial_2685_3274" cx="0" cy="0" r="1" gradientUnits="userSpaceOnUse" gradientTransform="translate(115.616 51.1596) rotate(62.5734) scale(14.9704 7.57407)">
<stop stop-color="white"/>
<stop offset="1" stop-color="white" stop-opacity="0"/>
</radialGradient>
<radialGradient id="paint24_radial_2685_3274" cx="0" cy="0" r="1" gradientUnits="userSpaceOnUse" gradientTransform="translate(147.153 56.0046) rotate(103.848) scale(10.17 8.69453)">
<stop offset="0.266667" stop-color="white"/>
<stop offset="1" stop-color="white" stop-opacity="0"/>
</radialGradient>
<radialGradient id="paint25_radial_2685_3274" cx="0" cy="0" r="1" gradientUnits="userSpaceOnUse" gradientTransform="translate(130.11 39.7727) rotate(97.5946) scale(12.2817 7.95507)">
<stop offset="0.304221" stop-color="white"/>
<stop offset="1" stop-color="white" stop-opacity="0"/>
</radialGradient>
<radialGradient id="paint26_radial_2685_3274" cx="0" cy="0" r="1" gradientUnits="userSpaceOnUse" gradientTransform="translate(116.178 24.3524) rotate(107.853) scale(15.3274 6.4617)">
<stop stop-color="white"/>
<stop offset="1" stop-color="white" stop-opacity="0"/>
</radialGradient>
<linearGradient id="paint27_linear_2685_3274" x1="43.0601" y1="4.98449" x2="74.5019" y2="55.9223" gradientUnits="userSpaceOnUse">
<stop stop-color="#47B3C8"/>
<stop offset="1" stop-color="#3F85A3"/>
</linearGradient>
<radialGradient id="paint28_radial_2685_3274" cx="0" cy="0" r="1" gradientUnits="userSpaceOnUse" gradientTransform="translate(87.7179 44.9926) rotate(-127.734) scale(9.85879 4.43919)">
<stop offset="0.0048623" stop-color="white"/>
<stop offset="1" stop-color="white" stop-opacity="0"/>
</radialGradient>
<radialGradient id="paint29_radial_2685_3274" cx="0" cy="0" r="1" gradientUnits="userSpaceOnUse" gradientTransform="translate(47.338 57.1376) rotate(134.544) scale(9.98496 7.00152)">
<stop offset="0.0048623" stop-color="white"/>
<stop offset="1" stop-color="white" stop-opacity="0"/>
</radialGradient>
<linearGradient id="paint30_linear_2685_3274" x1="34.9827" y1="18.0704" x2="40.6252" y2="18.9556" gradientUnits="userSpaceOnUse">
<stop stop-color="white"/>
<stop offset="1" stop-color="white" stop-opacity="0"/>
</linearGradient>
</defs>
</svg>
