<svg viewBox="0 0 240 120" fill="none" xmlns="http://www.w3.org/2000/svg">
<path d="M240 64.4323C221.087 82.1085 208.453 72.1656 185.338 91.7752L176.932 117.461C197.046 86.8037 230.694 91.2228 240 73.5466V64.4323Z" fill="url(#paint0_linear_3039_12423)"/>
<path d="M240 64.4323C221.087 82.1085 208.453 72.1656 185.338 91.7752L176.932 117.461C197.046 86.8037 230.694 91.2228 240 73.5466V64.4323Z" fill="url(#paint1_radial_3039_12423)"/>
<path d="M195.636 103.863C193.092 94.4628 200.291 79.6091 185.588 51.4597C187.501 48.4492 192.574 44.4215 197.566 52.3952C203.805 62.3623 201.63 95.3555 201.915 99.462C202.333 105.473 205.156 108.133 209.79 107.492C213.874 106.927 215.086 104.24 214.367 100.729C213.649 97.2188 210.89 98.3025 210.872 94.2421C210.854 90.1817 218.254 91.9183 220.731 98.7268C223.664 106.787 216.365 111.813 211.684 112.771C207.003 113.729 198.416 114.132 195.636 103.863Z" fill="url(#paint2_linear_3039_12423)"/>
<path d="M195.636 103.863C193.092 94.4628 200.291 79.6091 185.588 51.4597C187.501 48.4492 192.574 44.4215 197.566 52.3952C203.805 62.3623 201.63 95.3555 201.915 99.462C202.333 105.473 205.156 108.133 209.79 107.492C213.874 106.927 215.086 104.24 214.367 100.729C213.649 97.2188 210.89 98.3025 210.872 94.2421C210.854 90.1817 218.254 91.9183 220.731 98.7268C223.664 106.787 216.365 111.813 211.684 112.771C207.003 113.729 198.416 114.132 195.636 103.863Z" fill="url(#paint3_radial_3039_12423)"/>
<path d="M195.636 103.863C193.092 94.4628 200.291 79.6091 185.588 51.4597C187.501 48.4492 192.574 44.4215 197.566 52.3952C203.805 62.3623 201.63 95.3555 201.915 99.462C202.333 105.473 205.156 108.133 209.79 107.492C213.874 106.927 215.086 104.24 214.367 100.729C213.649 97.2188 210.89 98.3025 210.872 94.2421C210.854 90.1817 218.254 91.9183 220.731 98.7268C223.664 106.787 216.365 111.813 211.684 112.771C207.003 113.729 198.416 114.132 195.636 103.863Z" fill="url(#paint4_radial_3039_12423)"/>
<path d="M36.6634 37.4419C40.2891 53.847 42.5652 64.1452 62.3124 82.1543C79.6896 98.0019 87.4609 111.511 91.0456 120H114.182C107.432 100.393 87.4741 80.4367 71.1276 64.0913C59.2682 52.2327 49.3097 42.2748 47.6743 35.73C43.8262 20.3293 35.8178 8.55852 31.1769 1.73712C30.7548 1.11682 30.3607 0.537451 30 0H25.3047C31.9995 16.3397 34.5588 27.9196 36.6634 37.4419Z" fill="url(#paint5_linear_3039_12423)"/>
<path d="M36.6634 37.4419C40.2891 53.847 42.5652 64.1452 62.3124 82.1543C79.6896 98.0019 87.4609 111.511 91.0456 120H114.182C107.432 100.393 87.4741 80.4367 71.1276 64.0913C59.2682 52.2327 49.3097 42.2748 47.6743 35.73C43.8262 20.3293 35.8178 8.55852 31.1769 1.73712C30.7548 1.11682 30.3607 0.537451 30 0H25.3047C31.9995 16.3397 34.5588 27.9196 36.6634 37.4419Z" fill="url(#paint6_radial_3039_12423)"/>
<path d="M36.6634 37.4419C40.2891 53.847 42.5652 64.1452 62.3124 82.1543C79.6896 98.0019 87.4609 111.511 91.0456 120H114.182C107.432 100.393 87.4741 80.4367 71.1276 64.0913C59.2682 52.2327 49.3097 42.2748 47.6743 35.73C43.8262 20.3293 35.8178 8.55852 31.1769 1.73712C30.7548 1.11682 30.3607 0.537451 30 0H25.3047C31.9995 16.3397 34.5588 27.9196 36.6634 37.4419Z" fill="url(#paint7_radial_3039_12423)"/>
<path d="M36.6634 37.4419C40.2891 53.847 42.5652 64.1452 62.3124 82.1543C79.6896 98.0019 87.4609 111.511 91.0456 120H114.182C107.432 100.393 87.4741 80.4367 71.1276 64.0913C59.2682 52.2327 49.3097 42.2748 47.6743 35.73C43.8262 20.3293 35.8178 8.55852 31.1769 1.73712C30.7548 1.11682 30.3607 0.537451 30 0H25.3047C31.9995 16.3397 34.5588 27.9196 36.6634 37.4419Z" fill="url(#paint8_radial_3039_12423)"/>
<path d="M178.588 31.5656C153.73 18.5846 133.569 32.118 108.159 25.4894L75.5685 48.6894L137.435 88.1847L198.197 62.7752C200.407 57.4355 198.473 41.9504 178.588 31.5656Z" fill="url(#paint9_linear_3039_12423)"/>
<path d="M178.588 31.5656C153.73 18.5846 133.569 32.118 108.159 25.4894L75.5685 48.6894L137.435 88.1847L198.197 62.7752C200.407 57.4355 198.473 41.9504 178.588 31.5656Z" fill="url(#paint10_radial_3039_12423)"/>
<path d="M178.588 31.5656C153.73 18.5846 133.569 32.118 108.159 25.4894L75.5685 48.6894L137.435 88.1847L198.197 62.7752C200.407 57.4355 198.473 41.9504 178.588 31.5656Z" fill="url(#paint11_radial_3039_12423)"/>
<path d="M178.588 31.5656C153.73 18.5846 133.569 32.118 108.159 25.4894L75.5685 48.6894L137.435 88.1847L198.197 62.7752C200.407 57.4355 198.473 41.9504 178.588 31.5656Z" fill="url(#paint12_radial_3039_12423)"/>
<ellipse cx="135.344" cy="39.0726" rx="3.72705" ry="2.3815" fill="url(#paint13_radial_3039_12423)"/>
<ellipse cx="148.57" cy="43.7314" rx="3.76232" ry="2.40403" fill="url(#paint14_radial_3039_12423)"/>
<ellipse cx="128.476" cy="47.0027" rx="4.01361" ry="2.5646" fill="url(#paint15_radial_3039_12423)"/>
<ellipse cx="140.58" cy="51.7" rx="3.33777" ry="2.13276" fill="url(#paint16_radial_3039_12423)"/>
<ellipse cx="130.64" cy="56.9668" rx="3.33777" ry="2.13276" fill="url(#paint17_radial_3039_12423)"/>
<ellipse cx="150.831" cy="56.967" rx="4.07768" ry="2.60554" fill="url(#paint18_radial_3039_12423)"/>
<ellipse cx="100.35" cy="53.8326" rx="4.07768" ry="2.60554" fill="url(#paint19_radial_3039_12423)"/>
<ellipse cx="90.8516" cy="46.1356" rx="4.07768" ry="2.60554" fill="url(#paint20_radial_3039_12423)"/>
<ellipse cx="154.909" cy="33.269" rx="3.57445" ry="2.28399" transform="rotate(-13.5895 154.909 33.269)" fill="url(#paint21_radial_3039_12423)"/>
<ellipse cx="166.313" cy="31.0779" rx="3.93455" ry="2.12081" transform="rotate(20.161 166.313 31.0779)" fill="url(#paint22_radial_3039_12423)"/>
<ellipse cx="177.92" cy="36.1055" rx="3.93455" ry="2.12081" transform="rotate(29.2998 177.92 36.1055)" fill="url(#paint23_radial_3039_12423)"/>
<ellipse cx="123.616" cy="31.7466" rx="3.62636" ry="1.92889" transform="rotate(14.4862 123.616 31.7466)" fill="url(#paint24_radial_3039_12423)"/>
<ellipse cx="119.059" cy="39.5882" rx="4.23667" ry="2.48296" transform="rotate(11.2108 119.059 39.5882)" fill="url(#paint25_radial_3039_12423)"/>
<ellipse cx="142.702" cy="30.7859" rx="4.12275" ry="2.58022" transform="rotate(-15.3198 142.702 30.7859)" fill="url(#paint26_radial_3039_12423)"/>
<path d="M202.031 100.62C202.29 102.583 202.844 104.129 203.666 105.26C203.341 105.319 202.998 105.351 202.644 105.351C200.585 105.351 198.917 104.285 198.917 102.97C198.917 101.788 200.264 100.807 202.031 100.62Z" fill="#4D3014" fill-opacity="0.77"/>
<path d="M202.038 88.6174C202.02 90.3126 201.992 91.8853 201.965 93.2851C201.736 93.3133 201.499 93.328 201.257 93.328C199.199 93.328 197.53 92.2618 197.53 90.9465C197.53 89.6313 199.199 88.565 201.257 88.565C201.525 88.565 201.786 88.5831 202.038 88.6174Z" fill="#4D3014" fill-opacity="0.77"/>
<path d="M201.802 73.7012C201.882 75.2684 201.94 76.8408 201.98 78.3942C201.746 78.4236 201.505 78.439 201.257 78.439C199.199 78.439 197.53 77.3728 197.53 76.0575C197.53 74.7422 199.199 73.676 201.257 73.676C201.442 73.676 201.624 73.6846 201.802 73.7012Z" fill="#4D3014" fill-opacity="0.77"/>
<path d="M195.213 85.8883C195.176 84.5118 195.101 83.0702 194.97 81.5591C195.473 81.3976 196.041 81.3067 196.642 81.3067C198.7 81.3067 200.369 82.373 200.369 83.6882C200.369 85.0035 198.7 86.0697 196.642 86.0697C196.136 86.0697 195.653 86.0052 195.213 85.8883Z" fill="#4D3014" fill-opacity="0.77"/>
<path d="M195.111 100.587C195.001 99.1254 195.01 97.5451 195.056 95.8265C195.1 95.8255 195.145 95.825 195.189 95.825C197.248 95.825 198.916 96.8912 198.916 98.2065C198.916 99.5218 197.248 100.588 195.189 100.588C195.163 100.588 195.137 100.588 195.111 100.587Z" fill="#4D3014" fill-opacity="0.77"/>
<path d="M43.12 25.7487C43.9917 20.2021 49.9568 23.8212 56.9833 20.6873L55.1337 30.9888C50.126 35.4958 42.2482 31.2953 43.12 25.7487Z" fill="url(#paint27_linear_3039_12423)"/>
<path d="M43.12 25.7487C43.9917 20.2021 49.9568 23.8212 56.9833 20.6873L55.1337 30.9888C50.126 35.4958 42.2482 31.2953 43.12 25.7487Z" fill="url(#paint28_radial_3039_12423)"/>
<path d="M107.759 19.2301C107.54 15.3083 102.289 12.58 94.6316 15.8198L97.4411 26.0504C104.223 27.926 107.977 23.152 107.759 19.2301Z" fill="url(#paint29_linear_3039_12423)"/>
<path d="M107.759 19.2301C107.54 15.3083 102.289 12.58 94.6316 15.8198L97.4411 26.0504C104.223 27.926 107.977 23.152 107.759 19.2301Z" fill="url(#paint30_radial_3039_12423)"/>
<path d="M56.3288 34.8488C50.4099 30.2097 55.5269 8.13366 74.5639 6.61408C93.6008 5.0945 99.1994 22.7715 99.1994 27.0102C99.1994 32.7691 95.5213 46.8465 81.9231 49.246C74.8313 45.6201 61.0639 38.5601 56.3288 34.8488Z" fill="url(#paint31_linear_3039_12423)"/>
<path d="M56.3288 34.8488C50.4099 30.2097 55.5269 8.13366 74.5639 6.61408C93.6008 5.0945 99.1994 22.7715 99.1994 27.0102C99.1994 32.7691 95.5213 46.8465 81.9231 49.246C74.8313 45.6201 61.0639 38.5601 56.3288 34.8488Z" fill="url(#paint32_radial_3039_12423)"/>
<path d="M56.3288 34.8488C50.4099 30.2097 55.5269 8.13366 74.5639 6.61408C93.6008 5.0945 99.1994 22.7715 99.1994 27.0102C99.1994 32.7691 95.5213 46.8465 81.9231 49.246C74.8313 45.6201 61.0639 38.5601 56.3288 34.8488Z" fill="url(#paint33_radial_3039_12423)"/>
<path d="M56.3288 34.8488C50.4099 30.2097 55.5269 8.13366 74.5639 6.61408C93.6008 5.0945 99.1994 22.7715 99.1994 27.0102C99.1994 32.7691 95.5213 46.8465 81.9231 49.246C74.8313 45.6201 61.0639 38.5601 56.3288 34.8488Z" fill="url(#paint34_radial_3039_12423)"/>
<path d="M56.3288 34.8488C50.4099 30.2097 55.5269 8.13366 74.5639 6.61408C93.6008 5.0945 99.1994 22.7715 99.1994 27.0102C99.1994 32.7691 95.5213 46.8465 81.9231 49.246C74.8313 45.6201 61.0639 38.5601 56.3288 34.8488Z" fill="url(#paint35_radial_3039_12423)"/>
<path d="M73.5194 6.71991C72.8554 6.80124 72.2092 6.90808 71.5807 7.03868C71.3529 7.50008 71.2625 8.12874 71.3663 8.79598C71.5615 10.0517 72.3702 10.9686 73.1726 10.8438C73.9749 10.7191 74.4671 9.59999 74.2719 8.34427C74.1668 7.66789 73.8836 7.08984 73.5194 6.71991Z" fill="#4D3014" fill-opacity="0.35"/>
<path d="M83.8913 7.56444C84.8736 7.87553 85.7994 8.24855 86.671 8.67289C86.6479 8.82521 86.6145 8.98002 86.5703 9.13562C86.2056 10.4195 85.2449 11.2715 84.4245 11.0385C83.6041 10.8055 83.2347 9.57576 83.5993 8.29184C83.6739 8.02948 83.7733 7.78515 83.8913 7.56444Z" fill="#4D3014" fill-opacity="0.35"/>
<path d="M76.6615 14.4614C76.3932 13.5165 75.6862 12.8895 75.0824 13.061C74.4786 13.2325 74.2067 14.1374 74.4751 15.0823C74.7435 16.0272 75.4505 16.6542 76.0542 16.4827C76.658 16.3113 76.9299 15.4063 76.6615 14.4614Z" fill="#4D3014" fill-opacity="0.35"/>
<path d="M77.2801 11.0557C77.0883 9.82157 77.572 8.7217 78.3606 8.5991C79.1492 8.47651 79.9441 9.37762 80.1359 10.6118C80.3278 11.846 79.844 12.9458 79.0554 13.0684C78.2668 13.191 77.472 12.2899 77.2801 11.0557Z" fill="#4D3014" fill-opacity="0.35"/>
<path d="M66.5136 13.5588C65.8748 12.4855 65.9129 11.2845 66.5987 10.8763C67.2845 10.4682 68.3583 11.0073 68.9971 12.0806C69.6359 13.1539 69.5978 14.3548 68.912 14.763C68.2262 15.1712 67.1524 14.632 66.5136 13.5588Z" fill="#4D3014" fill-opacity="0.35"/>
<path d="M92.882 38.6905C91.3525 42.5208 88.4054 46.2712 84.2494 46.6371C77.7792 47.2067 73.067 42.718 71.0129 39.4707C74.0542 40.791 79.603 41.4887 83.2831 35.9687C86.8589 39.1659 90.354 39.3807 92.882 38.6905Z" fill="url(#paint36_linear_3039_12423)"/>
<path d="M92.882 38.6905C91.3525 42.5208 88.4054 46.2712 84.2494 46.6371C77.7792 47.2067 73.067 42.718 71.0129 39.4707C74.0542 40.791 79.603 41.4887 83.2831 35.9687C86.8589 39.1659 90.354 39.3807 92.882 38.6905Z" fill="url(#paint37_radial_3039_12423)"/>
<path d="M78.5647 19.4925C71.2068 19.4925 68.8629 35.8099 70.7703 39.0732C70.8462 39.2031 70.9267 39.3355 71.0118 39.4701C74.0529 40.7907 79.6026 41.4893 83.2831 35.9686C86.7868 39.1013 90.2131 39.3707 92.728 38.731C93.2361 36.7882 93.3651 34.6732 93.1212 32.61C92.6125 28.3082 85.9225 19.4925 78.5647 19.4925Z" fill="url(#paint38_linear_3039_12423)"/>
<path d="M78.5647 19.4925C71.2068 19.4925 68.8629 35.8099 70.7703 39.0732C70.8462 39.2031 70.9267 39.3355 71.0118 39.4701C74.0529 40.7907 79.6026 41.4893 83.2831 35.9686C86.7868 39.1013 90.2131 39.3707 92.728 38.731C93.2361 36.7882 93.3651 34.6732 93.1212 32.61C92.6125 28.3082 85.9225 19.4925 78.5647 19.4925Z" fill="url(#paint39_radial_3039_12423)"/>
<path d="M78.5647 19.4925C71.2068 19.4925 68.8629 35.8099 70.7703 39.0732C70.8462 39.2031 70.9267 39.3355 71.0118 39.4701C74.0529 40.7907 79.6026 41.4893 83.2831 35.9686C86.7868 39.1013 90.2131 39.3707 92.728 38.731C93.2361 36.7882 93.3651 34.6732 93.1212 32.61C92.6125 28.3082 85.9225 19.4925 78.5647 19.4925Z" fill="url(#paint40_radial_3039_12423)"/>
<path d="M71.0462 39.5079C80.5643 40.7276 81.6841 34.6088 80.5643 30.1297L83.4438 29.4898C84.6179 32.9313 85.2834 40.7276 93.1619 38.0081L92.802 39.008C88.2589 41.8874 84.9102 38.9013 83.4438 36.8484C82.2973 39.1146 78.3248 43.0952 71.926 40.7276L71.0462 39.5079Z" fill="url(#paint41_radial_3039_12423)"/>
<path d="M81.1924 24.8759C68.3948 26.1557 77.8332 31.7544 81.9926 31.4343C86.152 31.1141 93.9901 23.596 81.1924 24.8759Z" fill="url(#paint42_radial_3039_12423)"/>
<path d="M62.2651 23.7895L63.065 24.7289C63.3684 24.4061 63.7167 24.1144 64.0978 23.8538C64.9697 24.6013 66.3004 24.2218 68.1118 23.7054C69.3423 23.3545 70.7946 22.9405 72.4754 22.7735C72.6245 22.853 72.7606 22.941 72.8819 23.0375L73.2455 22.0981C73.2455 22.0981 71.3943 19.7577 70.1914 19.6083C66.2368 19.117 62.2651 23.7895 62.2651 23.7895Z" fill="url(#paint43_radial_3039_12423)"/>
<path d="M94.9293 20.1756L94.3154 21.2458C93.9578 20.9841 93.5618 20.7613 93.1392 20.575C92.4195 21.4701 91.0416 21.3414 89.166 21.1663C87.8921 21.0473 86.3886 20.9069 84.7059 21.0513C84.574 21.1567 84.4564 21.2682 84.3548 21.3853L83.825 20.5287C83.825 20.5287 85.2151 17.8882 86.3701 17.5205C90.1673 16.3115 94.9293 20.1756 94.9293 20.1756Z" fill="url(#paint44_radial_3039_12423)"/>
<path d="M11.422 0C21.3648 16.8916 28.8935 26.9525 57.8936 34.7061C71.2648 38.281 84.5774 48.5082 97.398 58.3575C112.383 69.8698 126.696 80.8657 139.646 80.1196C154.414 79.2686 165.009 70.8862 175.535 62.5586C182.135 57.3369 188.708 52.1368 196.265 48.8285C215.875 40.2443 237.79 29.4447 240 21.6912V38.5828C240 42.7728 234.21 45.9903 226.421 50.3185C215.164 56.574 199.732 65.1497 191.57 82.3348C183.971 98.3353 180.205 111.671 178.564 120H102C96.8475 87.3108 61.6765 60.5036 43.5317 50.7669C27.844 42.3488 10.1331 16.0609 2.30768 0H11.422Z" fill="url(#paint45_linear_3039_12423)"/>
<path d="M11.422 0C21.3648 16.8916 28.8935 26.9525 57.8936 34.7061C71.2648 38.281 84.5774 48.5082 97.398 58.3575C112.383 69.8698 126.696 80.8657 139.646 80.1196C154.414 79.2686 165.009 70.8862 175.535 62.5586C182.135 57.3369 188.708 52.1368 196.265 48.8285C215.875 40.2443 237.79 29.4447 240 21.6912V38.5828C240 42.7728 234.21 45.9903 226.421 50.3185C215.164 56.574 199.732 65.1497 191.57 82.3348C183.971 98.3353 180.205 111.671 178.564 120H102C96.8475 87.3108 61.6765 60.5036 43.5317 50.7669C27.844 42.3488 10.1331 16.0609 2.30768 0H11.422Z" fill="url(#paint46_radial_3039_12423)"/>
<path d="M11.422 0C21.3648 16.8916 28.8935 26.9525 57.8936 34.7061C71.2648 38.281 84.5774 48.5082 97.398 58.3575C112.383 69.8698 126.696 80.8657 139.646 80.1196C154.414 79.2686 165.009 70.8862 175.535 62.5586C182.135 57.3369 188.708 52.1368 196.265 48.8285C215.875 40.2443 237.79 29.4447 240 21.6912V38.5828C240 42.7728 234.21 45.9903 226.421 50.3185C215.164 56.574 199.732 65.1497 191.57 82.3348C183.971 98.3353 180.205 111.671 178.564 120H102C96.8475 87.3108 61.6765 60.5036 43.5317 50.7669C27.844 42.3488 10.1331 16.0609 2.30768 0H11.422Z" fill="url(#paint47_radial_3039_12423)"/>
<path d="M11.422 0C21.3648 16.8916 28.8935 26.9525 57.8936 34.7061C71.2648 38.281 84.5774 48.5082 97.398 58.3575C112.383 69.8698 126.696 80.8657 139.646 80.1196C154.414 79.2686 165.009 70.8862 175.535 62.5586C182.135 57.3369 188.708 52.1368 196.265 48.8285C215.875 40.2443 237.79 29.4447 240 21.6912V38.5828C240 42.7728 234.21 45.9903 226.421 50.3185C215.164 56.574 199.732 65.1497 191.57 82.3348C183.971 98.3353 180.205 111.671 178.564 120H102C96.8475 87.3108 61.6765 60.5036 43.5317 50.7669C27.844 42.3488 10.1331 16.0609 2.30768 0H11.422Z" fill="url(#paint48_radial_3039_12423)"/>
<path d="M11.422 0C21.3648 16.8916 28.8935 26.9525 57.8936 34.7061C71.2648 38.281 84.5774 48.5082 97.398 58.3575C112.383 69.8698 126.696 80.8657 139.646 80.1196C154.414 79.2686 165.009 70.8862 175.535 62.5586C182.135 57.3369 188.708 52.1368 196.265 48.8285C215.875 40.2443 237.79 29.4447 240 21.6912V38.5828C240 42.7728 234.21 45.9903 226.421 50.3185C215.164 56.574 199.732 65.1497 191.57 82.3348C183.971 98.3353 180.205 111.671 178.564 120H102C96.8475 87.3108 61.6765 60.5036 43.5317 50.7669C27.844 42.3488 10.1331 16.0609 2.30768 0H11.422Z" fill="url(#paint49_radial_3039_12423)"/>
<path d="M11.422 0C21.3648 16.8916 28.8935 26.9525 57.8936 34.7061C71.2648 38.281 84.5774 48.5082 97.398 58.3575C112.383 69.8698 126.696 80.8657 139.646 80.1196C154.414 79.2686 165.009 70.8862 175.535 62.5586C182.135 57.3369 188.708 52.1368 196.265 48.8285C215.875 40.2443 237.79 29.4447 240 21.6912V38.5828C240 42.7728 234.21 45.9903 226.421 50.3185C215.164 56.574 199.732 65.1497 191.57 82.3348C183.971 98.3353 180.205 111.671 178.564 120H102C96.8475 87.3108 61.6765 60.5036 43.5317 50.7669C27.844 42.3488 10.1331 16.0609 2.30768 0H11.422Z" fill="url(#paint50_radial_3039_12423)"/>
<path d="M11.422 0C21.3648 16.8916 28.8935 26.9525 57.8936 34.7061C71.2648 38.281 84.5774 48.5082 97.398 58.3575C112.383 69.8698 126.696 80.8657 139.646 80.1196C154.414 79.2686 165.009 70.8862 175.535 62.5586C182.135 57.3369 188.708 52.1368 196.265 48.8285C215.875 40.2443 237.79 29.4447 240 21.6912V38.5828C240 42.7728 234.21 45.9903 226.421 50.3185C215.164 56.574 199.732 65.1497 191.57 82.3348C183.971 98.3353 180.205 111.671 178.564 120H102C96.8475 87.3108 61.6765 60.5036 43.5317 50.7669C27.844 42.3488 10.1331 16.0609 2.30768 0H11.422Z" fill="url(#paint51_radial_3039_12423)"/>
<path d="M116.165 40.5766C116.994 44.5993 117.854 48.7759 119.484 52.3325C123.903 61.977 131.452 69.6851 134.674 72.3336L118.103 99.1848C118.839 102.655 120.533 110.418 121.417 113.706C122.007 115.902 121.73 118.097 120.966 120H108.517C107.332 113.998 106.098 107.184 105.95 104.391C105.906 103.556 105.84 102.785 105.777 102.044C105.448 98.1653 105.189 95.127 108.436 88.2251C112.303 80.0054 112.855 70.6897 108.436 63.8399C108.121 63.3522 107.727 62.7561 107.272 62.0681C103.876 56.9372 97.0997 46.6977 94.8443 38.2031C94.4608 36.7579 95.2316 35.127 96.0092 33.4817C96.3428 32.776 96.6776 32.0677 96.9231 31.3702C97.0664 30.963 97.2049 30.5201 97.3478 30.0632C98.0318 27.8764 98.8159 25.37 100.702 24.9333C112.385 22.229 114.185 30.9635 116.165 40.5766Z" fill="url(#paint52_linear_3039_12423)"/>
<path d="M116.165 40.5766C116.994 44.5993 117.854 48.7759 119.484 52.3325C123.903 61.977 131.452 69.6851 134.674 72.3336L118.103 99.1848C118.839 102.655 120.533 110.418 121.417 113.706C122.007 115.902 121.73 118.097 120.966 120H108.517C107.332 113.998 106.098 107.184 105.95 104.391C105.906 103.556 105.84 102.785 105.777 102.044C105.448 98.1653 105.189 95.127 108.436 88.2251C112.303 80.0054 112.855 70.6897 108.436 63.8399C108.121 63.3522 107.727 62.7561 107.272 62.0681C103.876 56.9372 97.0997 46.6977 94.8443 38.2031C94.4608 36.7579 95.2316 35.127 96.0092 33.4817C96.3428 32.776 96.6776 32.0677 96.9231 31.3702C97.0664 30.963 97.2049 30.5201 97.3478 30.0632C98.0318 27.8764 98.8159 25.37 100.702 24.9333C112.385 22.229 114.185 30.9635 116.165 40.5766Z" fill="url(#paint53_radial_3039_12423)"/>
<path d="M116.165 40.5766C116.994 44.5993 117.854 48.7759 119.484 52.3325C123.903 61.977 131.452 69.6851 134.674 72.3336L118.103 99.1848C118.839 102.655 120.533 110.418 121.417 113.706C122.007 115.902 121.73 118.097 120.966 120H108.517C107.332 113.998 106.098 107.184 105.95 104.391C105.906 103.556 105.84 102.785 105.777 102.044C105.448 98.1653 105.189 95.127 108.436 88.2251C112.303 80.0054 112.855 70.6897 108.436 63.8399C108.121 63.3522 107.727 62.7561 107.272 62.0681C103.876 56.9372 97.0997 46.6977 94.8443 38.2031C94.4608 36.7579 95.2316 35.127 96.0092 33.4817C96.3428 32.776 96.6776 32.0677 96.9231 31.3702C97.0664 30.963 97.2049 30.5201 97.3478 30.0632C98.0318 27.8764 98.8159 25.37 100.702 24.9333C112.385 22.229 114.185 30.9635 116.165 40.5766Z" fill="url(#paint54_radial_3039_12423)"/>
<path d="M116.165 40.5766C116.994 44.5993 117.854 48.7759 119.484 52.3325C123.903 61.977 131.452 69.6851 134.674 72.3336L118.103 99.1848C118.839 102.655 120.533 110.418 121.417 113.706C122.007 115.902 121.73 118.097 120.966 120H108.517C107.332 113.998 106.098 107.184 105.95 104.391C105.906 103.556 105.84 102.785 105.777 102.044C105.448 98.1653 105.189 95.127 108.436 88.2251C112.303 80.0054 112.855 70.6897 108.436 63.8399C108.121 63.3522 107.727 62.7561 107.272 62.0681C103.876 56.9372 97.0997 46.6977 94.8443 38.2031C94.4608 36.7579 95.2316 35.127 96.0092 33.4817C96.3428 32.776 96.6776 32.0677 96.9231 31.3702C97.0664 30.963 97.2049 30.5201 97.3478 30.0632C98.0318 27.8764 98.8159 25.37 100.702 24.9333C112.385 22.229 114.185 30.9635 116.165 40.5766Z" fill="url(#paint55_radial_3039_12423)"/>
<path d="M116.165 40.5766C116.994 44.5993 117.854 48.7759 119.484 52.3325C123.903 61.977 131.452 69.6851 134.674 72.3336L118.103 99.1848C118.839 102.655 120.533 110.418 121.417 113.706C122.007 115.902 121.73 118.097 120.966 120H108.517C107.332 113.998 106.098 107.184 105.95 104.391C105.906 103.556 105.84 102.785 105.777 102.044C105.448 98.1653 105.189 95.127 108.436 88.2251C112.303 80.0054 112.855 70.6897 108.436 63.8399C108.121 63.3522 107.727 62.7561 107.272 62.0681C103.876 56.9372 97.0997 46.6977 94.8443 38.2031C94.4608 36.7579 95.2316 35.127 96.0092 33.4817C96.3428 32.776 96.6776 32.0677 96.9231 31.3702C97.0664 30.963 97.2049 30.5201 97.3478 30.0632C98.0318 27.8764 98.8159 25.37 100.702 24.9333C112.385 22.229 114.185 30.9635 116.165 40.5766Z" fill="url(#paint56_radial_3039_12423)"/>
<path d="M116.165 40.5766C116.994 44.5993 117.854 48.7759 119.484 52.3325C123.903 61.977 131.452 69.6851 134.674 72.3336L118.103 99.1848C118.839 102.655 120.533 110.418 121.417 113.706C122.007 115.902 121.73 118.097 120.966 120H108.517C107.332 113.998 106.098 107.184 105.95 104.391C105.906 103.556 105.84 102.785 105.777 102.044C105.448 98.1653 105.189 95.127 108.436 88.2251C112.303 80.0054 112.855 70.6897 108.436 63.8399C108.121 63.3522 107.727 62.7561 107.272 62.0681C103.876 56.9372 97.0997 46.6977 94.8443 38.2031C94.4608 36.7579 95.2316 35.127 96.0092 33.4817C96.3428 32.776 96.6776 32.0677 96.9231 31.3702C97.0664 30.963 97.2049 30.5201 97.3478 30.0632C98.0318 27.8764 98.8159 25.37 100.702 24.9333C112.385 22.229 114.185 30.9635 116.165 40.5766Z" fill="url(#paint57_radial_3039_12423)"/>
<path d="M116.165 40.5766C116.994 44.5993 117.854 48.7759 119.484 52.3325C123.903 61.977 131.452 69.6851 134.674 72.3336L118.103 99.1848C118.839 102.655 120.533 110.418 121.417 113.706C122.007 115.902 121.73 118.097 120.966 120H108.517C107.332 113.998 106.098 107.184 105.95 104.391C105.906 103.556 105.84 102.785 105.777 102.044C105.448 98.1653 105.189 95.127 108.436 88.2251C112.303 80.0054 112.855 70.6897 108.436 63.8399C108.121 63.3522 107.727 62.7561 107.272 62.0681C103.876 56.9372 97.0997 46.6977 94.8443 38.2031C94.4608 36.7579 95.2316 35.127 96.0092 33.4817C96.3428 32.776 96.6776 32.0677 96.9231 31.3702C97.0664 30.963 97.2049 30.5201 97.3478 30.0632C98.0318 27.8764 98.8159 25.37 100.702 24.9333C112.385 22.229 114.185 30.9635 116.165 40.5766Z" fill="url(#paint58_radial_3039_12423)"/>
<path d="M116.165 40.5766C116.994 44.5993 117.854 48.7759 119.484 52.3325C123.903 61.977 131.452 69.6851 134.674 72.3336L118.103 99.1848C118.839 102.655 120.533 110.418 121.417 113.706C122.007 115.902 121.73 118.097 120.966 120H108.517C107.332 113.998 106.098 107.184 105.95 104.391C105.906 103.556 105.84 102.785 105.777 102.044C105.448 98.1653 105.189 95.127 108.436 88.2251C112.303 80.0054 112.855 70.6897 108.436 63.8399C108.121 63.3522 107.727 62.7561 107.272 62.0681C103.876 56.9372 97.0997 46.6977 94.8443 38.2031C94.4608 36.7579 95.2316 35.127 96.0092 33.4817C96.3428 32.776 96.6776 32.0677 96.9231 31.3702C97.0664 30.963 97.2049 30.5201 97.3478 30.0632C98.0318 27.8764 98.8159 25.37 100.702 24.9333C112.385 22.229 114.185 30.9635 116.165 40.5766Z" fill="url(#paint59_radial_3039_12423)"/>
<path d="M151.246 56.9756C152.074 47.8614 160.636 31.0137 189.913 40.128C190.925 43.2581 186.346 54.201 179.072 59.6683C168.646 67.5052 168.954 77.6623 162.018 82.1088C151.246 89.0136 148.208 102.547 147.379 105.861C146.551 109.176 143.236 109.176 134.674 110.833C126.113 112.49 125.008 107.242 131.36 101.166C137.713 95.0898 150.417 66.0899 151.246 56.9756Z" fill="url(#paint60_linear_3039_12423)"/>
<path d="M151.246 56.9756C152.074 47.8614 160.636 31.0137 189.913 40.128C190.925 43.2581 186.346 54.201 179.072 59.6683C168.646 67.5052 168.954 77.6623 162.018 82.1088C151.246 89.0136 148.208 102.547 147.379 105.861C146.551 109.176 143.236 109.176 134.674 110.833C126.113 112.49 125.008 107.242 131.36 101.166C137.713 95.0898 150.417 66.0899 151.246 56.9756Z" fill="url(#paint61_radial_3039_12423)"/>
<path d="M151.246 56.9756C152.074 47.8614 160.636 31.0137 189.913 40.128C190.925 43.2581 186.346 54.201 179.072 59.6683C168.646 67.5052 168.954 77.6623 162.018 82.1088C151.246 89.0136 148.208 102.547 147.379 105.861C146.551 109.176 143.236 109.176 134.674 110.833C126.113 112.49 125.008 107.242 131.36 101.166C137.713 95.0898 150.417 66.0899 151.246 56.9756Z" fill="url(#paint62_radial_3039_12423)"/>
<path d="M151.246 56.9756C152.074 47.8614 160.636 31.0137 189.913 40.128C190.925 43.2581 186.346 54.201 179.072 59.6683C168.646 67.5052 168.954 77.6623 162.018 82.1088C151.246 89.0136 148.208 102.547 147.379 105.861C146.551 109.176 143.236 109.176 134.674 110.833C126.113 112.49 125.008 107.242 131.36 101.166C137.713 95.0898 150.417 66.0899 151.246 56.9756Z" fill="url(#paint63_radial_3039_12423)"/>
<path d="M151.246 56.9756C152.074 47.8614 160.636 31.0137 189.913 40.128C190.925 43.2581 186.346 54.201 179.072 59.6683C168.646 67.5052 168.954 77.6623 162.018 82.1088C151.246 89.0136 148.208 102.547 147.379 105.861C146.551 109.176 143.236 109.176 134.674 110.833C126.113 112.49 125.008 107.242 131.36 101.166C137.713 95.0898 150.417 66.0899 151.246 56.9756Z" fill="url(#paint64_radial_3039_12423)"/>
<path d="M151.246 56.9756C152.074 47.8614 160.636 31.0137 189.913 40.128C190.925 43.2581 186.346 54.201 179.072 59.6683C168.646 67.5052 168.954 77.6623 162.018 82.1088C151.246 89.0136 148.208 102.547 147.379 105.861C146.551 109.176 143.236 109.176 134.674 110.833C126.113 112.49 125.008 107.242 131.36 101.166C137.713 95.0898 150.417 66.0899 151.246 56.9756Z" fill="url(#paint65_radial_3039_12423)"/>
<path d="M151.246 56.9756C152.074 47.8614 160.636 31.0137 189.913 40.128C190.925 43.2581 186.346 54.201 179.072 59.6683C168.646 67.5052 168.954 77.6623 162.018 82.1088C151.246 89.0136 148.208 102.547 147.379 105.861C146.551 109.176 143.236 109.176 134.674 110.833C126.113 112.49 125.008 107.242 131.36 101.166C137.713 95.0898 150.417 66.0899 151.246 56.9756Z" fill="url(#paint66_radial_3039_12423)"/>
<ellipse cx="170.737" cy="42.1502" rx="3.57445" ry="2.28399" transform="rotate(-13.5895 170.737 42.1502)" fill="url(#paint67_radial_3039_12423)"/>
<ellipse cx="168.311" cy="49.337" rx="3.20396" ry="2.04725" transform="rotate(-13.5895 168.311 49.337)" fill="url(#paint68_radial_3039_12423)"/>
<ellipse cx="159.733" cy="49.3372" rx="3.20396" ry="2.04725" transform="rotate(-41.2947 159.733 49.3372)" fill="url(#paint69_radial_3039_12423)"/>
<ellipse cx="159.733" cy="58.5232" rx="3.20396" ry="2.04725" transform="rotate(-41.2947 159.733 58.5232)" fill="url(#paint70_radial_3039_12423)"/>
<ellipse cx="162.383" cy="66.9546" rx="2.32912" ry="2.04725" transform="rotate(-69.6314 162.383 66.9546)" fill="url(#paint71_radial_3039_12423)"/>
<ellipse cx="154.062" cy="69.8508" rx="2.32912" ry="1.76821" transform="rotate(-69.6314 154.062 69.8508)" fill="url(#paint72_radial_3039_12423)"/>
<ellipse cx="154.062" cy="78.1662" rx="2.32912" ry="1.76821" transform="rotate(-69.6314 154.062 78.1662)" fill="url(#paint73_radial_3039_12423)"/>
<ellipse cx="181.354" cy="43.9441" rx="3.57445" ry="2.28399" transform="rotate(3.36052 181.354 43.9441)" fill="url(#paint74_radial_3039_12423)"/>
<ellipse cx="3.02064" cy="1.93012" rx="3.02064" ry="1.93012" transform="matrix(-0.395047 -0.918661 -0.918661 0.395047 113.193 40.5393)" fill="url(#paint75_radial_3039_12423)"/>
<ellipse cx="2.78964" cy="1.78252" rx="2.78964" ry="1.78252" transform="matrix(-0.153612 -0.988131 -0.988131 0.153612 115.908 51.7409)" fill="url(#paint76_radial_3039_12423)"/>
<ellipse cx="2.73706" cy="1.74892" rx="2.73706" ry="1.74892" transform="matrix(-0.153612 -0.988131 -0.988131 0.153612 111.341 59.6183)" fill="url(#paint77_radial_3039_12423)"/>
<ellipse cx="2.73706" cy="1.74892" rx="2.73706" ry="1.74892" transform="matrix(-0.153612 -0.988131 -0.988131 0.153612 118.057 63.8951)" fill="url(#paint78_radial_3039_12423)"/>
<ellipse cx="2.29081" cy="1.46377" rx="2.29081" ry="1.46377" transform="matrix(-0.153612 -0.988131 -0.988131 0.153612 116.873 71.4221)" fill="url(#paint79_radial_3039_12423)"/>
<ellipse cx="2.29081" cy="1.46377" rx="2.29081" ry="1.46377" transform="matrix(0.0828326 -0.996564 -0.996564 -0.0828326 121.986 75.9731)" fill="url(#paint80_radial_3039_12423)"/>
<ellipse cx="2.29081" cy="1.46377" rx="2.29081" ry="1.46377" transform="matrix(0.187505 -0.982264 -0.982264 -0.187505 116.916 80.9658)" fill="url(#paint81_radial_3039_12423)"/>
<ellipse cx="2.77902" cy="1.77573" rx="2.77902" ry="1.77573" transform="matrix(0.107364 -0.99422 -0.99422 -0.107364 103.254 36.8731)" fill="url(#paint82_radial_3039_12423)"/>
<ellipse cx="2.65533" cy="1.6967" rx="2.65533" ry="1.6967" transform="matrix(0.0176979 -0.999843 -0.999843 -0.0176979 107.208 48.6877)" fill="url(#paint83_radial_3039_12423)"/>
<path d="M12.9712 29.7545C12.1946 28.4455 10.6603 27.5073 9.13828 27.5073C4.09135 27.5073 0 23.416 0 18.3691C0 13.3221 4.09135 9.23077 9.13828 9.23077C13.5261 9.23077 17.1917 12.3233 18.0742 16.4477C18.2421 17.232 18.9785 17.8119 19.7806 17.8119C24.1501 17.8119 27.6923 21.3542 27.6923 25.7237C27.6923 30.0932 24.1501 33.6354 19.7806 33.6354C16.8831 33.6354 14.3495 32.0779 12.9712 29.7545Z" fill="url(#paint84_linear_3039_12423)"/>
<path d="M12.9712 29.7545C12.1946 28.4455 10.6603 27.5073 9.13828 27.5073C4.09135 27.5073 0 23.416 0 18.3691C0 13.3221 4.09135 9.23077 9.13828 9.23077C13.5261 9.23077 17.1917 12.3233 18.0742 16.4477C18.2421 17.232 18.9785 17.8119 19.7806 17.8119C24.1501 17.8119 27.6923 21.3542 27.6923 25.7237C27.6923 30.0932 24.1501 33.6354 19.7806 33.6354C16.8831 33.6354 14.3495 32.0779 12.9712 29.7545Z" fill="url(#paint85_radial_3039_12423)"/>
<path d="M12.9712 29.7545C12.1946 28.4455 10.6603 27.5073 9.13828 27.5073C4.09135 27.5073 0 23.416 0 18.3691C0 13.3221 4.09135 9.23077 9.13828 9.23077C13.5261 9.23077 17.1917 12.3233 18.0742 16.4477C18.2421 17.232 18.9785 17.8119 19.7806 17.8119C24.1501 17.8119 27.6923 21.3542 27.6923 25.7237C27.6923 30.0932 24.1501 33.6354 19.7806 33.6354C16.8831 33.6354 14.3495 32.0779 12.9712 29.7545Z" fill="url(#paint86_radial_3039_12423)"/>
<path d="M12.9712 29.7545C12.1946 28.4455 10.6603 27.5073 9.13828 27.5073C4.09135 27.5073 0 23.416 0 18.3691C0 13.3221 4.09135 9.23077 9.13828 9.23077C13.5261 9.23077 17.1917 12.3233 18.0742 16.4477C18.2421 17.232 18.9785 17.8119 19.7806 17.8119C24.1501 17.8119 27.6923 21.3542 27.6923 25.7237C27.6923 30.0932 24.1501 33.6354 19.7806 33.6354C16.8831 33.6354 14.3495 32.0779 12.9712 29.7545Z" fill="url(#paint87_radial_3039_12423)"/>
<path d="M34.2072 58.8332C33.9669 56.2969 31.8975 53.7087 29.9053 52.1206C28.3906 50.9131 27.3494 49.1157 27.1522 47.0349C26.767 42.9689 29.751 39.3604 33.817 38.9752C36.1158 38.7574 38.2683 39.6165 39.7748 41.1392C41.4301 42.8124 44.0663 44.299 46.4094 44.0771C52.9257 43.4597 58.8 47.5686 60.6364 53.5955C60.9785 54.7182 62.1627 55.4491 63.3311 55.3384C68.5891 54.8403 73.2555 58.6989 73.7536 63.957C74.2517 69.2151 70.393 73.8814 65.135 74.3795C63.3897 74.5448 61.7097 74.2302 60.2256 73.5437C56.952 72.0294 52.5542 70.6952 48.9633 71.0354C41.519 71.7407 34.9124 66.2775 34.2072 58.8332Z" fill="url(#paint88_linear_3039_12423)"/>
<path d="M34.2072 58.8332C33.9669 56.2969 31.8975 53.7087 29.9053 52.1206C28.3906 50.9131 27.3494 49.1157 27.1522 47.0349C26.767 42.9689 29.751 39.3604 33.817 38.9752C36.1158 38.7574 38.2683 39.6165 39.7748 41.1392C41.4301 42.8124 44.0663 44.299 46.4094 44.0771C52.9257 43.4597 58.8 47.5686 60.6364 53.5955C60.9785 54.7182 62.1627 55.4491 63.3311 55.3384C68.5891 54.8403 73.2555 58.6989 73.7536 63.957C74.2517 69.2151 70.393 73.8814 65.135 74.3795C63.3897 74.5448 61.7097 74.2302 60.2256 73.5437C56.952 72.0294 52.5542 70.6952 48.9633 71.0354C41.519 71.7407 34.9124 66.2775 34.2072 58.8332Z" fill="url(#paint89_radial_3039_12423)"/>
<path d="M34.2072 58.8332C33.9669 56.2969 31.8975 53.7087 29.9053 52.1206C28.3906 50.9131 27.3494 49.1157 27.1522 47.0349C26.767 42.9689 29.751 39.3604 33.817 38.9752C36.1158 38.7574 38.2683 39.6165 39.7748 41.1392C41.4301 42.8124 44.0663 44.299 46.4094 44.0771C52.9257 43.4597 58.8 47.5686 60.6364 53.5955C60.9785 54.7182 62.1627 55.4491 63.3311 55.3384C68.5891 54.8403 73.2555 58.6989 73.7536 63.957C74.2517 69.2151 70.393 73.8814 65.135 74.3795C63.3897 74.5448 61.7097 74.2302 60.2256 73.5437C56.952 72.0294 52.5542 70.6952 48.9633 71.0354C41.519 71.7407 34.9124 66.2775 34.2072 58.8332Z" fill="url(#paint90_radial_3039_12423)"/>
<path d="M34.2072 58.8332C33.9669 56.2969 31.8975 53.7087 29.9053 52.1206C28.3906 50.9131 27.3494 49.1157 27.1522 47.0349C26.767 42.9689 29.751 39.3604 33.817 38.9752C36.1158 38.7574 38.2683 39.6165 39.7748 41.1392C41.4301 42.8124 44.0663 44.299 46.4094 44.0771C52.9257 43.4597 58.8 47.5686 60.6364 53.5955C60.9785 54.7182 62.1627 55.4491 63.3311 55.3384C68.5891 54.8403 73.2555 58.6989 73.7536 63.957C74.2517 69.2151 70.393 73.8814 65.135 74.3795C63.3897 74.5448 61.7097 74.2302 60.2256 73.5437C56.952 72.0294 52.5542 70.6952 48.9633 71.0354C41.519 71.7407 34.9124 66.2775 34.2072 58.8332Z" fill="url(#paint91_radial_3039_12423)"/>
<path d="M34.2072 58.8332C33.9669 56.2969 31.8975 53.7087 29.9053 52.1206C28.3906 50.9131 27.3494 49.1157 27.1522 47.0349C26.767 42.9689 29.751 39.3604 33.817 38.9752C36.1158 38.7574 38.2683 39.6165 39.7748 41.1392C41.4301 42.8124 44.0663 44.299 46.4094 44.0771C52.9257 43.4597 58.8 47.5686 60.6364 53.5955C60.9785 54.7182 62.1627 55.4491 63.3311 55.3384C68.5891 54.8403 73.2555 58.6989 73.7536 63.957C74.2517 69.2151 70.393 73.8814 65.135 74.3795C63.3897 74.5448 61.7097 74.2302 60.2256 73.5437C56.952 72.0294 52.5542 70.6952 48.9633 71.0354C41.519 71.7407 34.9124 66.2775 34.2072 58.8332Z" fill="url(#paint92_radial_3039_12423)"/>
<path d="M34.2072 58.8332C33.9669 56.2969 31.8975 53.7087 29.9053 52.1206C28.3906 50.9131 27.3494 49.1157 27.1522 47.0349C26.767 42.9689 29.751 39.3604 33.817 38.9752C36.1158 38.7574 38.2683 39.6165 39.7748 41.1392C41.4301 42.8124 44.0663 44.299 46.4094 44.0771C52.9257 43.4597 58.8 47.5686 60.6364 53.5955C60.9785 54.7182 62.1627 55.4491 63.3311 55.3384C68.5891 54.8403 73.2555 58.6989 73.7536 63.957C74.2517 69.2151 70.393 73.8814 65.135 74.3795C63.3897 74.5448 61.7097 74.2302 60.2256 73.5437C56.952 72.0294 52.5542 70.6952 48.9633 71.0354C41.519 71.7407 34.9124 66.2775 34.2072 58.8332Z" fill="url(#paint93_radial_3039_12423)"/>
<path d="M206.956 26.9873C207.147 26.9287 207.277 26.7508 207.277 26.5509C207.277 21.681 211.225 17.7331 216.095 17.7331C219.416 17.7331 222.308 19.5687 223.812 22.2807C224.156 22.9008 224.822 23.293 225.531 23.293C230.309 23.293 234.183 27.1664 234.183 31.9445C234.183 36.7226 230.309 40.596 225.531 40.596C223.495 40.596 221.188 41.7487 220.176 43.5156C218.215 46.9399 214.525 49.247 210.296 49.247C204.011 49.247 198.917 44.1525 198.917 37.8681C198.917 32.746 202.301 28.4143 206.956 26.9873Z" fill="url(#paint94_linear_3039_12423)"/>
<path d="M206.956 26.9873C207.147 26.9287 207.277 26.7508 207.277 26.5509C207.277 21.681 211.225 17.7331 216.095 17.7331C219.416 17.7331 222.308 19.5687 223.812 22.2807C224.156 22.9008 224.822 23.293 225.531 23.293C230.309 23.293 234.183 27.1664 234.183 31.9445C234.183 36.7226 230.309 40.596 225.531 40.596C223.495 40.596 221.188 41.7487 220.176 43.5156C218.215 46.9399 214.525 49.247 210.296 49.247C204.011 49.247 198.917 44.1525 198.917 37.8681C198.917 32.746 202.301 28.4143 206.956 26.9873Z" fill="url(#paint95_radial_3039_12423)"/>
<path d="M206.956 26.9873C207.147 26.9287 207.277 26.7508 207.277 26.5509C207.277 21.681 211.225 17.7331 216.095 17.7331C219.416 17.7331 222.308 19.5687 223.812 22.2807C224.156 22.9008 224.822 23.293 225.531 23.293C230.309 23.293 234.183 27.1664 234.183 31.9445C234.183 36.7226 230.309 40.596 225.531 40.596C223.495 40.596 221.188 41.7487 220.176 43.5156C218.215 46.9399 214.525 49.247 210.296 49.247C204.011 49.247 198.917 44.1525 198.917 37.8681C198.917 32.746 202.301 28.4143 206.956 26.9873Z" fill="url(#paint96_radial_3039_12423)"/>
<path d="M206.956 26.9873C207.147 26.9287 207.277 26.7508 207.277 26.5509C207.277 21.681 211.225 17.7331 216.095 17.7331C219.416 17.7331 222.308 19.5687 223.812 22.2807C224.156 22.9008 224.822 23.293 225.531 23.293C230.309 23.293 234.183 27.1664 234.183 31.9445C234.183 36.7226 230.309 40.596 225.531 40.596C223.495 40.596 221.188 41.7487 220.176 43.5156C218.215 46.9399 214.525 49.247 210.296 49.247C204.011 49.247 198.917 44.1525 198.917 37.8681C198.917 32.746 202.301 28.4143 206.956 26.9873Z" fill="url(#paint97_radial_3039_12423)"/>
<path d="M227.746 77.2695C231.291 77.2695 234.165 74.3958 234.165 70.8509C234.165 67.306 231.291 64.4323 227.746 64.4323C227.009 64.4323 226.3 64.5568 225.64 64.7859C222.998 65.7032 219.241 66.8039 216.445 66.8039C211.782 66.8039 208.003 70.5836 208.003 75.246C208.003 79.9084 211.782 83.688 216.445 83.688C219.583 83.688 222.321 81.9759 223.776 79.4348C224.526 78.1244 226.236 77.2695 227.746 77.2695Z" fill="url(#paint98_linear_3039_12423)"/>
<path d="M227.746 77.2695C231.291 77.2695 234.165 74.3958 234.165 70.8509C234.165 67.306 231.291 64.4323 227.746 64.4323C227.009 64.4323 226.3 64.5568 225.64 64.7859C222.998 65.7032 219.241 66.8039 216.445 66.8039C211.782 66.8039 208.003 70.5836 208.003 75.246C208.003 79.9084 211.782 83.688 216.445 83.688C219.583 83.688 222.321 81.9759 223.776 79.4348C224.526 78.1244 226.236 77.2695 227.746 77.2695Z" fill="url(#paint99_radial_3039_12423)"/>
<path d="M227.746 77.2695C231.291 77.2695 234.165 74.3958 234.165 70.8509C234.165 67.306 231.291 64.4323 227.746 64.4323C227.009 64.4323 226.3 64.5568 225.64 64.7859C222.998 65.7032 219.241 66.8039 216.445 66.8039C211.782 66.8039 208.003 70.5836 208.003 75.246C208.003 79.9084 211.782 83.688 216.445 83.688C219.583 83.688 222.321 81.9759 223.776 79.4348C224.526 78.1244 226.236 77.2695 227.746 77.2695Z" fill="url(#paint100_radial_3039_12423)"/>
<path d="M227.746 77.2695C231.291 77.2695 234.165 74.3958 234.165 70.8509C234.165 67.306 231.291 64.4323 227.746 64.4323C227.009 64.4323 226.3 64.5568 225.64 64.7859C222.998 65.7032 219.241 66.8039 216.445 66.8039C211.782 66.8039 208.003 70.5836 208.003 75.246C208.003 79.9084 211.782 83.688 216.445 83.688C219.583 83.688 222.321 81.9759 223.776 79.4348C224.526 78.1244 226.236 77.2695 227.746 77.2695Z" fill="url(#paint101_radial_3039_12423)"/>
<defs>
<linearGradient id="paint0_linear_3039_12423" x1="224.965" y1="56.6989" x2="176.474" y2="125.512" gradientUnits="userSpaceOnUse">
<stop stop-color="#9D7D64"/>
<stop offset="1" stop-color="#1B1213"/>
</linearGradient>
<radialGradient id="paint1_radial_3039_12423" cx="0" cy="0" r="1" gradientUnits="userSpaceOnUse" gradientTransform="translate(224.065 90.9466) rotate(148.769) scale(61.7911 19.2438)">
<stop offset="0.237511" stop-color="#C49877"/>
<stop offset="1" stop-color="#987C67" stop-opacity="0"/>
</radialGradient>
<linearGradient id="paint2_linear_3039_12423" x1="197.013" y1="46.4581" x2="229.166" y2="139.29" gradientUnits="userSpaceOnUse">
<stop stop-color="#F4CB6B"/>
<stop offset="1" stop-color="#654728"/>
</linearGradient>
<radialGradient id="paint3_radial_3039_12423" cx="0" cy="0" r="1" gradientUnits="userSpaceOnUse" gradientTransform="translate(205.409 67.7466) rotate(85.4571) scale(32.3612 12.2816)">
<stop stop-color="#DEB679"/>
<stop offset="1" stop-color="#DEB679" stop-opacity="0"/>
</radialGradient>
<radialGradient id="paint4_radial_3039_12423" cx="0" cy="0" r="1" gradientUnits="userSpaceOnUse" gradientTransform="translate(207.813 99.226) rotate(78.4331) scale(12.7412)">
<stop offset="0.488372" stop-color="#DEB679"/>
<stop offset="1" stop-color="#DEB679" stop-opacity="0"/>
</radialGradient>
<linearGradient id="paint5_linear_3039_12423" x1="60.3795" y1="-7.65507" x2="97.9786" y2="153.992" gradientUnits="userSpaceOnUse">
<stop stop-color="#9D7D64"/>
<stop offset="1" stop-color="#1B1213"/>
</linearGradient>
<radialGradient id="paint6_radial_3039_12423" cx="0" cy="0" r="1" gradientUnits="userSpaceOnUse" gradientTransform="translate(58.7224 97.9048) rotate(50.0783) scale(92.9616 24.8686)">
<stop offset="0.42156" stop-color="#C49877"/>
<stop offset="1" stop-color="#987C67" stop-opacity="0"/>
</radialGradient>
<radialGradient id="paint7_radial_3039_12423" cx="0" cy="0" r="1" gradientUnits="userSpaceOnUse" gradientTransform="translate(27.6922 6.92308) rotate(-18.4349) scale(7.29756 45.2772)">
<stop stop-color="#C49877"/>
<stop offset="1" stop-color="#987C67" stop-opacity="0"/>
</radialGradient>
<radialGradient id="paint8_radial_3039_12423" cx="0" cy="0" r="1" gradientUnits="userSpaceOnUse" gradientTransform="translate(45.4652 44.0195) rotate(22.4464) scale(46.3188 19.1323)">
<stop stop-color="#43342C"/>
<stop offset="1" stop-color="#43342C" stop-opacity="0"/>
</radialGradient>
<linearGradient id="paint9_linear_3039_12423" x1="137.243" y1="21.8989" x2="147.655" y2="107.242" gradientUnits="userSpaceOnUse">
<stop stop-color="#F4C66B"/>
<stop offset="1" stop-color="#655328"/>
</linearGradient>
<radialGradient id="paint10_radial_3039_12423" cx="0" cy="0" r="1" gradientUnits="userSpaceOnUse" gradientTransform="translate(142.683 56.8371) rotate(3.20868) scale(91.2861 44.3673)">
<stop offset="0.421859" stop-color="#804B24" stop-opacity="0"/>
<stop offset="1" stop-color="#804B24"/>
</radialGradient>
<radialGradient id="paint11_radial_3039_12423" cx="0" cy="0" r="1" gradientUnits="userSpaceOnUse" gradientTransform="translate(137.243 51.4513) rotate(90) scale(23.7524 46.7305)">
<stop stop-color="#F2D980"/>
<stop offset="1" stop-color="#F8DE7F" stop-opacity="0"/>
</radialGradient>
<radialGradient id="paint12_radial_3039_12423" cx="0" cy="0" r="1" gradientUnits="userSpaceOnUse" gradientTransform="translate(127.079 66.0895) rotate(-134.345) scale(34.1791 9.82235)">
<stop stop-color="#361E07"/>
<stop offset="1" stop-color="#D6AB70" stop-opacity="0"/>
</radialGradient>
<radialGradient id="paint13_radial_3039_12423" cx="0" cy="0" r="1" gradientUnits="userSpaceOnUse" gradientTransform="translate(135.577 38.9424) rotate(102.473) scale(2.69631 4.14392)">
<stop stop-color="#4D3014" stop-opacity="0.88"/>
<stop offset="0.670909" stop-color="#52371B" stop-opacity="0.77"/>
<stop offset="1" stop-color="#54391C" stop-opacity="0"/>
</radialGradient>
<radialGradient id="paint14_radial_3039_12423" cx="0" cy="0" r="1" gradientUnits="userSpaceOnUse" gradientTransform="translate(148.805 43.5999) rotate(102.473) scale(2.72183 4.18313)">
<stop stop-color="#4D3014"/>
<stop offset="0.670909" stop-color="#52371B" stop-opacity="0.77"/>
<stop offset="1" stop-color="#54391C" stop-opacity="0"/>
</radialGradient>
<radialGradient id="paint15_radial_3039_12423" cx="0" cy="0" r="1" gradientUnits="userSpaceOnUse" gradientTransform="translate(128.727 46.8624) rotate(102.473) scale(2.90362 4.46253)">
<stop stop-color="#4D3014" stop-opacity="0.88"/>
<stop offset="0.670909" stop-color="#52371B" stop-opacity="0.77"/>
<stop offset="1" stop-color="#54391C" stop-opacity="0"/>
</radialGradient>
<radialGradient id="paint16_radial_3039_12423" cx="0" cy="0" r="1" gradientUnits="userSpaceOnUse" gradientTransform="translate(140.788 51.5834) rotate(102.473) scale(2.41469 3.7111)">
<stop stop-color="#4D3014" stop-opacity="0.66"/>
<stop offset="0.670909" stop-color="#52371B" stop-opacity="0.66"/>
<stop offset="1" stop-color="#54391C" stop-opacity="0"/>
</radialGradient>
<radialGradient id="paint17_radial_3039_12423" cx="0" cy="0" r="1" gradientUnits="userSpaceOnUse" gradientTransform="translate(130.848 56.8502) rotate(102.473) scale(2.41469 3.7111)">
<stop stop-color="#4D3014" stop-opacity="0.66"/>
<stop offset="0.670909" stop-color="#52371B" stop-opacity="0.66"/>
<stop offset="1" stop-color="#54391C" stop-opacity="0"/>
</radialGradient>
<radialGradient id="paint18_radial_3039_12423" cx="0" cy="0" r="1" gradientUnits="userSpaceOnUse" gradientTransform="translate(151.086 56.8245) rotate(102.473) scale(2.94998 4.53377)">
<stop stop-color="#4D3014" stop-opacity="0.66"/>
<stop offset="0.670909" stop-color="#52371B" stop-opacity="0.66"/>
<stop offset="1" stop-color="#54391C" stop-opacity="0"/>
</radialGradient>
<radialGradient id="paint19_radial_3039_12423" cx="0" cy="0" r="1" gradientUnits="userSpaceOnUse" gradientTransform="translate(100.605 53.6901) rotate(102.473) scale(2.94998 4.53377)">
<stop stop-color="#4D3014" stop-opacity="0.66"/>
<stop offset="0.670909" stop-color="#52371B" stop-opacity="0.66"/>
<stop offset="1" stop-color="#54391C" stop-opacity="0"/>
</radialGradient>
<radialGradient id="paint20_radial_3039_12423" cx="0" cy="0" r="1" gradientUnits="userSpaceOnUse" gradientTransform="translate(91.1065 45.9931) rotate(102.473) scale(2.94998 4.53377)">
<stop stop-color="#4D3014" stop-opacity="0.66"/>
<stop offset="0.670909" stop-color="#52371B" stop-opacity="0.66"/>
<stop offset="1" stop-color="#54391C" stop-opacity="0"/>
</radialGradient>
<radialGradient id="paint21_radial_3039_12423" cx="0" cy="0" r="1" gradientUnits="userSpaceOnUse" gradientTransform="translate(155.132 33.1441) rotate(102.473) scale(2.58592 3.97425)">
<stop stop-color="#4D3014" stop-opacity="0.88"/>
<stop offset="0.670909" stop-color="#52371B" stop-opacity="0.77"/>
<stop offset="1" stop-color="#54391C" stop-opacity="0"/>
</radialGradient>
<radialGradient id="paint22_radial_3039_12423" cx="0" cy="0" r="1" gradientUnits="userSpaceOnUse" gradientTransform="translate(166.559 30.9619) rotate(104.693) scale(2.42376 4.33386)">
<stop stop-color="#4D3014" stop-opacity="0.88"/>
<stop offset="0.670909" stop-color="#52371B" stop-opacity="0.77"/>
<stop offset="1" stop-color="#54391C" stop-opacity="0"/>
</radialGradient>
<radialGradient id="paint23_radial_3039_12423" cx="0" cy="0" r="1" gradientUnits="userSpaceOnUse" gradientTransform="translate(178.166 35.9895) rotate(104.693) scale(2.42376 4.33386)">
<stop stop-color="#4D3014" stop-opacity="0.88"/>
<stop offset="0.670909" stop-color="#52371B" stop-opacity="0.77"/>
<stop offset="1" stop-color="#54391C" stop-opacity="0"/>
</radialGradient>
<radialGradient id="paint24_radial_3039_12423" cx="0" cy="0" r="1" gradientUnits="userSpaceOnUse" gradientTransform="translate(123.842 31.6411) rotate(104.881) scale(2.20633 3.99094)">
<stop stop-color="#4D3014" stop-opacity="0.88"/>
<stop offset="0.670909" stop-color="#52371B" stop-opacity="0.77"/>
<stop offset="1" stop-color="#54391C" stop-opacity="0"/>
</radialGradient>
<radialGradient id="paint25_radial_3039_12423" cx="0" cy="0" r="1" gradientUnits="userSpaceOnUse" gradientTransform="translate(119.324 39.4525) rotate(103.559) scale(2.82354 4.68995)">
<stop stop-color="#4D3014" stop-opacity="0.88"/>
<stop offset="0.670909" stop-color="#52371B" stop-opacity="0.77"/>
<stop offset="1" stop-color="#54391C" stop-opacity="0"/>
</radialGradient>
<radialGradient id="paint26_radial_3039_12423" cx="0" cy="0" r="1" gradientUnits="userSpaceOnUse" gradientTransform="translate(142.96 30.6448) rotate(102.726) scale(2.92419 4.57936)">
<stop stop-color="#4D3014" stop-opacity="0.88"/>
<stop offset="0.670909" stop-color="#52371B" stop-opacity="0.77"/>
<stop offset="1" stop-color="#54391C" stop-opacity="0"/>
</radialGradient>
<linearGradient id="paint27_linear_3039_12423" x1="48.5006" y1="20.929" x2="50.0213" y2="32.7365" gradientUnits="userSpaceOnUse">
<stop stop-color="#F4CB6B"/>
<stop offset="1" stop-color="#655128"/>
</linearGradient>
<radialGradient id="paint28_radial_3039_12423" cx="0" cy="0" r="1" gradientUnits="userSpaceOnUse" gradientTransform="translate(49.7571 24.4452) rotate(167.281) scale(7.93733 4.77851)">
<stop stop-color="#F9CF91"/>
<stop offset="1" stop-color="#F9CF91" stop-opacity="0"/>
</radialGradient>
<linearGradient id="paint29_linear_3039_12423" x1="101.2" y1="14.3851" x2="101.2" y2="25.5256" gradientUnits="userSpaceOnUse">
<stop stop-color="#F4CB6B"/>
<stop offset="1" stop-color="#655328"/>
</linearGradient>
<radialGradient id="paint30_radial_3039_12423" cx="0" cy="0" r="1" gradientUnits="userSpaceOnUse" gradientTransform="translate(101.2 16.6122) rotate(10.3942) scale(7.45831 5.04414)">
<stop stop-color="#F9CF91"/>
<stop offset="1" stop-color="#F9CF91" stop-opacity="0"/>
</radialGradient>
<linearGradient id="paint31_linear_3039_12423" x1="75.9433" y1="9.73361" x2="75.9433" y2="49.8859" gradientUnits="userSpaceOnUse">
<stop stop-color="#FFDD66"/>
<stop offset="1" stop-color="#655128"/>
</linearGradient>
<radialGradient id="paint32_radial_3039_12423" cx="0" cy="0" r="1" gradientUnits="userSpaceOnUse" gradientTransform="translate(78.2446 28.9299) rotate(6.93812) scale(34.373 28.2052)">
<stop offset="0.567054" stop-color="#804B24" stop-opacity="0"/>
<stop offset="1" stop-color="#804B24"/>
</radialGradient>
<radialGradient id="paint33_radial_3039_12423" cx="0" cy="0" r="1" gradientUnits="userSpaceOnUse" gradientTransform="translate(73.1256 21.8913) rotate(81.8522) scale(19.8819 23.0325)">
<stop stop-color="#F1D77F"/>
<stop offset="1" stop-color="#FFE589" stop-opacity="0"/>
</radialGradient>
<radialGradient id="paint34_radial_3039_12423" cx="0" cy="0" r="1" gradientUnits="userSpaceOnUse" gradientTransform="translate(68.0865 23.571) rotate(171.254) scale(6.3122 2.26218)">
<stop offset="0.263242" stop-color="#FEF0BF"/>
<stop offset="1" stop-color="#EAD8C7" stop-opacity="0"/>
</radialGradient>
<radialGradient id="paint35_radial_3039_12423" cx="0" cy="0" r="1" gradientUnits="userSpaceOnUse" gradientTransform="translate(89.2025 21.0914) rotate(180) scale(5.59892 2.00655)">
<stop offset="0.263242" stop-color="#F7E5D5"/>
<stop offset="1" stop-color="#EAD8C7" stop-opacity="0"/>
</radialGradient>
<linearGradient id="paint36_linear_3039_12423" x1="82.1059" y1="23.5717" x2="82.1059" y2="46.6866" gradientUnits="userSpaceOnUse">
<stop stop-color="#F4B56B"/>
<stop offset="1" stop-color="#654728"/>
</linearGradient>
<radialGradient id="paint37_radial_3039_12423" cx="0" cy="0" r="1" gradientUnits="userSpaceOnUse" gradientTransform="translate(83.3636 37.5684) rotate(168.965) scale(19.6394 10.5963)">
<stop stop-color="#EAD8C7"/>
<stop offset="1" stop-color="#EAD8C7" stop-opacity="0"/>
</radialGradient>
<linearGradient id="paint38_linear_3039_12423" x1="81.6893" y1="19.4925" x2="81.6893" y2="48.2118" gradientUnits="userSpaceOnUse">
<stop stop-color="#FCE7B5"/>
<stop offset="1" stop-color="#654728"/>
</linearGradient>
<radialGradient id="paint39_radial_3039_12423" cx="0" cy="0" r="1" gradientUnits="userSpaceOnUse" gradientTransform="translate(82.2849 38.2741) rotate(175.701) scale(21.5376 16.1903)">
<stop offset="0.263242" stop-color="#EAD8C7"/>
<stop offset="1" stop-color="#EAD8C7" stop-opacity="0"/>
</radialGradient>
<radialGradient id="paint40_radial_3039_12423" cx="0" cy="0" r="1" gradientUnits="userSpaceOnUse" gradientTransform="translate(90.4023 24.6115) rotate(59.4208) scale(16.3513 10.1201)">
<stop stop-color="#956C3F"/>
<stop offset="1" stop-color="#956C3F" stop-opacity="0"/>
</radialGradient>
<radialGradient id="paint41_radial_3039_12423" cx="0" cy="0" r="1" gradientUnits="userSpaceOnUse" gradientTransform="translate(82.7635 31.7389) rotate(89.9978) scale(9.68047 17.4595)">
<stop stop-color="#8E6F5B"/>
<stop offset="1" stop-color="#241204"/>
</radialGradient>
<radialGradient id="paint42_radial_3039_12423" cx="0" cy="0" r="1" gradientUnits="userSpaceOnUse" gradientTransform="translate(81.4636 25.9957) rotate(89.9975) scale(5.45178 10.9369)">
<stop stop-color="#8E6F5B"/>
<stop offset="1" stop-color="#241204"/>
</radialGradient>
<radialGradient id="paint43_radial_3039_12423" cx="0" cy="0" r="1" gradientUnits="userSpaceOnUse" gradientTransform="translate(67.7553 19.5721) rotate(148.768) scale(7.09597 5.81275)">
<stop stop-color="#8E6F5B"/>
<stop offset="1" stop-color="#241204"/>
</radialGradient>
<radialGradient id="paint44_radial_3039_12423" cx="0" cy="0" r="1" gradientUnits="userSpaceOnUse" gradientTransform="translate(89.3777 17.2862) rotate(174.516) scale(8.85329 2.89624)">
<stop stop-color="#8E6F5B"/>
<stop offset="1" stop-color="#241204"/>
</radialGradient>
<linearGradient id="paint45_linear_3039_12423" x1="119.622" y1="9.5071" x2="126.424" y2="167.068" gradientUnits="userSpaceOnUse">
<stop stop-color="#9D7D64"/>
<stop offset="1" stop-color="#1B1213"/>
</linearGradient>
<radialGradient id="paint46_radial_3039_12423" cx="0" cy="0" r="1" gradientUnits="userSpaceOnUse" gradientTransform="translate(208.97 98.6727) rotate(121.745) scale(86.616 45.5648)">
<stop offset="0.411857" stop-color="#C49877"/>
<stop offset="1" stop-color="#987C67" stop-opacity="0"/>
</radialGradient>
<radialGradient id="paint47_radial_3039_12423" cx="0" cy="0" r="1" gradientUnits="userSpaceOnUse" gradientTransform="translate(68.1126 105.872) rotate(34.8945) scale(116.173 61.2396)">
<stop offset="0.414063" stop-color="#C29776"/>
<stop offset="1" stop-color="#987C67" stop-opacity="0"/>
</radialGradient>
<radialGradient id="paint48_radial_3039_12423" cx="0" cy="0" r="1" gradientUnits="userSpaceOnUse" gradientTransform="translate(20.3316 46.8902) rotate(34.8945) scale(54.2141 28.5785)">
<stop offset="0.634063" stop-color="#C29776"/>
<stop offset="1" stop-color="#987C67" stop-opacity="0"/>
</radialGradient>
<radialGradient id="paint49_radial_3039_12423" cx="0" cy="0" r="1" gradientUnits="userSpaceOnUse" gradientTransform="translate(90.7603 46.3364) rotate(34.0092) scale(70.3015 22.7712)">
<stop stop-color="#43342C"/>
<stop offset="1" stop-color="#43342C" stop-opacity="0"/>
</radialGradient>
<radialGradient id="paint50_radial_3039_12423" cx="0" cy="0" r="1" gradientUnits="userSpaceOnUse" gradientTransform="translate(196.541 41.075) rotate(136.817) scale(65.1485 21.085)">
<stop stop-color="#43342C"/>
<stop offset="1" stop-color="#43342C" stop-opacity="0"/>
</radialGradient>
<radialGradient id="paint51_radial_3039_12423" cx="0" cy="0" r="1" gradientUnits="userSpaceOnUse" gradientTransform="translate(200.769 46.1538) rotate(63.435) scale(5.16016 40.9779)">
<stop stop-color="#C49877"/>
<stop offset="1" stop-color="#987C67" stop-opacity="0"/>
</radialGradient>
<linearGradient id="paint52_linear_3039_12423" x1="85.2362" y1="31.5088" x2="228.31" y2="125.163" gradientUnits="userSpaceOnUse">
<stop stop-color="#F4CB6B"/>
<stop offset="1" stop-color="#655128"/>
</linearGradient>
<radialGradient id="paint53_radial_3039_12423" cx="0" cy="0" r="1" gradientUnits="userSpaceOnUse" gradientTransform="translate(91.5886 31.5088) rotate(64.796) scale(48.6431 19.0662)">
<stop stop-color="#FFE071"/>
<stop offset="1" stop-color="#F3E181" stop-opacity="0"/>
</radialGradient>
<radialGradient id="paint54_radial_3039_12423" cx="0" cy="0" r="1" gradientUnits="userSpaceOnUse" gradientTransform="translate(95.4552 90.6911) rotate(101.497) scale(46.8812 21.8355)">
<stop stop-color="#FFF6A5"/>
<stop offset="1" stop-color="#FDEDB4" stop-opacity="0"/>
</radialGradient>
<radialGradient id="paint55_radial_3039_12423" cx="0" cy="0" r="1" gradientUnits="userSpaceOnUse" gradientTransform="translate(99.5981 110.145) rotate(78.4137) scale(33.0036 15.2673)">
<stop stop-color="#EAD8C7"/>
<stop offset="1" stop-color="#EAD8C7" stop-opacity="0"/>
</radialGradient>
<radialGradient id="paint56_radial_3039_12423" cx="0" cy="0" r="1" gradientUnits="userSpaceOnUse" gradientTransform="translate(123.903 121.378) rotate(135.229) scale(31.9014 9.85774)">
<stop stop-color="#EAD8C7"/>
<stop offset="1" stop-color="#EAD8C7" stop-opacity="0"/>
</radialGradient>
<radialGradient id="paint57_radial_3039_12423" cx="0" cy="0" r="1" gradientUnits="userSpaceOnUse" gradientTransform="translate(110.646 109.597) rotate(65.1792) scale(25.6596 12.1189)">
<stop stop-color="#C2945B"/>
<stop offset="1" stop-color="#C2945B" stop-opacity="0"/>
</radialGradient>
<radialGradient id="paint58_radial_3039_12423" cx="0" cy="0" r="1" gradientUnits="userSpaceOnUse" gradientTransform="translate(135.779 103.295) rotate(-89.475) scale(30.1404 20.3994)">
<stop offset="0.384945" stop-color="#804B24"/>
<stop offset="1" stop-color="#804B24" stop-opacity="0"/>
</radialGradient>
<radialGradient id="paint59_radial_3039_12423" cx="0" cy="0" r="1" gradientUnits="userSpaceOnUse" gradientTransform="translate(133.293 55.3461) rotate(66.6351) scale(27.1605 15.7378)">
<stop offset="0.384945" stop-color="#804B24"/>
<stop offset="1" stop-color="#804B24" stop-opacity="0"/>
</radialGradient>
<linearGradient id="paint60_linear_3039_12423" x1="134.122" y1="51.7278" x2="190.064" y2="102.823" gradientUnits="userSpaceOnUse">
<stop stop-color="#F4CB6B"/>
<stop offset="1" stop-color="#655228"/>
</linearGradient>
<radialGradient id="paint61_radial_3039_12423" cx="0" cy="0" r="1" gradientUnits="userSpaceOnUse" gradientTransform="translate(151.799 61.3945) rotate(120.087) scale(40.2187 20.1407)">
<stop stop-color="#DEC879"/>
<stop offset="1" stop-color="#DEC279" stop-opacity="0"/>
</radialGradient>
<radialGradient id="paint62_radial_3039_12423" cx="0" cy="0" r="1" gradientUnits="userSpaceOnUse" gradientTransform="translate(129.703 94.2612) rotate(120.256) scale(26.8588 11.5109)">
<stop stop-color="#FBE9BB"/>
<stop offset="1" stop-color="#FFF4BA" stop-opacity="0"/>
</radialGradient>
<radialGradient id="paint63_radial_3039_12423" cx="0" cy="0" r="1" gradientUnits="userSpaceOnUse" gradientTransform="translate(138.541 113.318) rotate(177.316) scale(17.6956 19.7691)">
<stop stop-color="#EAD8C7"/>
<stop offset="1" stop-color="#EAD8C7" stop-opacity="0"/>
</radialGradient>
<radialGradient id="paint64_radial_3039_12423" cx="0" cy="0" r="1" gradientUnits="userSpaceOnUse" gradientTransform="translate(141.303 100.061) rotate(136.311) scale(16.0421 7.22855)">
<stop stop-color="#C2945B"/>
<stop offset="1" stop-color="#C2945B" stop-opacity="0"/>
</radialGradient>
<radialGradient id="paint65_radial_3039_12423" cx="0" cy="0" r="1" gradientUnits="userSpaceOnUse" gradientTransform="translate(186.322 114.976) rotate(-95.3245) scale(110.123 88.1935)">
<stop offset="0.628848" stop-color="#804B24" stop-opacity="0"/>
<stop offset="0.784605" stop-color="#804B24"/>
</radialGradient>
<radialGradient id="paint66_radial_3039_12423" cx="0" cy="0" r="1" gradientUnits="userSpaceOnUse" gradientTransform="translate(169.475 97.0231) rotate(-63.435) scale(49.4065 21.9103)">
<stop offset="0.384945" stop-color="#804B24"/>
<stop offset="1" stop-color="#804B24" stop-opacity="0"/>
</radialGradient>
<radialGradient id="paint67_radial_3039_12423" cx="0" cy="0" r="1" gradientUnits="userSpaceOnUse" gradientTransform="translate(170.961 42.0253) rotate(102.473) scale(2.58592 3.97425)">
<stop stop-color="#4D3014" stop-opacity="0.88"/>
<stop offset="0.670909" stop-color="#52371B" stop-opacity="0.77"/>
<stop offset="1" stop-color="#54391C" stop-opacity="0"/>
</radialGradient>
<radialGradient id="paint68_radial_3039_12423" cx="0" cy="0" r="1" gradientUnits="userSpaceOnUse" gradientTransform="translate(168.511 49.225) rotate(102.473) scale(2.31788 3.56232)">
<stop stop-color="#4D3014" stop-opacity="0.88"/>
<stop offset="0.670909" stop-color="#52371B" stop-opacity="0.77"/>
<stop offset="1" stop-color="#54391C" stop-opacity="0"/>
</radialGradient>
<radialGradient id="paint69_radial_3039_12423" cx="0" cy="0" r="1" gradientUnits="userSpaceOnUse" gradientTransform="translate(159.933 49.2252) rotate(102.473) scale(2.31788 3.56232)">
<stop stop-color="#4D3014" stop-opacity="0.66"/>
<stop offset="0.670909" stop-color="#52371B" stop-opacity="0.66"/>
<stop offset="1" stop-color="#54391C" stop-opacity="0"/>
</radialGradient>
<radialGradient id="paint70_radial_3039_12423" cx="0" cy="0" r="1" gradientUnits="userSpaceOnUse" gradientTransform="translate(159.933 58.4113) rotate(102.473) scale(2.31788 3.56232)">
<stop stop-color="#4D3014" stop-opacity="0.66"/>
<stop offset="0.670909" stop-color="#52371B" stop-opacity="0.66"/>
<stop offset="1" stop-color="#54391C" stop-opacity="0"/>
</radialGradient>
<radialGradient id="paint71_radial_3039_12423" cx="0" cy="0" r="1" gradientUnits="userSpaceOnUse" gradientTransform="translate(162.529 66.8427) rotate(99.1351) scale(2.29225 2.61859)">
<stop stop-color="#4D3014" stop-opacity="0.66"/>
<stop offset="0.670909" stop-color="#52371B" stop-opacity="0.66"/>
<stop offset="1" stop-color="#54391C" stop-opacity="0"/>
</radialGradient>
<radialGradient id="paint72_radial_3039_12423" cx="0" cy="0" r="1" gradientUnits="userSpaceOnUse" gradientTransform="translate(154.208 69.7541) rotate(100.547) scale(1.9883 2.60743)">
<stop stop-color="#4D3014" stop-opacity="0.66"/>
<stop offset="0.670909" stop-color="#52371B" stop-opacity="0.66"/>
<stop offset="1" stop-color="#54391C" stop-opacity="0"/>
</radialGradient>
<radialGradient id="paint73_radial_3039_12423" cx="0" cy="0" r="1" gradientUnits="userSpaceOnUse" gradientTransform="translate(154.208 78.0695) rotate(100.547) scale(1.9883 2.60743)">
<stop stop-color="#4D3014" stop-opacity="0.44"/>
<stop offset="0.670909" stop-color="#52371B" stop-opacity="0.55"/>
<stop offset="1" stop-color="#54391C" stop-opacity="0"/>
</radialGradient>
<radialGradient id="paint74_radial_3039_12423" cx="0" cy="0" r="1" gradientUnits="userSpaceOnUse" gradientTransform="translate(181.578 43.8192) rotate(102.473) scale(2.58592 3.97425)">
<stop stop-color="#4D3014" stop-opacity="0.88"/>
<stop offset="0.670909" stop-color="#52371B" stop-opacity="0.77"/>
<stop offset="1" stop-color="#54391C" stop-opacity="0"/>
</radialGradient>
<radialGradient id="paint75_radial_3039_12423" cx="0" cy="0" r="1" gradientUnits="userSpaceOnUse" gradientTransform="translate(3.20944 1.82457) rotate(102.473) scale(2.18527 3.35851)">
<stop stop-color="#4D3014" stop-opacity="0.88"/>
<stop offset="0.670909" stop-color="#52371B" stop-opacity="0.77"/>
<stop offset="1" stop-color="#54391C" stop-opacity="0"/>
</radialGradient>
<radialGradient id="paint76_radial_3039_12423" cx="0" cy="0" r="1" gradientUnits="userSpaceOnUse" gradientTransform="translate(2.964 1.68504) rotate(102.473) scale(2.01815 3.10167)">
<stop stop-color="#4D3014" stop-opacity="0.66"/>
<stop offset="0.670909" stop-color="#52371B" stop-opacity="0.66"/>
<stop offset="1" stop-color="#54391C" stop-opacity="0"/>
</radialGradient>
<radialGradient id="paint77_radial_3039_12423" cx="0" cy="0" r="1" gradientUnits="userSpaceOnUse" gradientTransform="translate(2.90812 1.65327) rotate(102.473) scale(1.98011 3.0432)">
<stop stop-color="#4D3014" stop-opacity="0.66"/>
<stop offset="0.670909" stop-color="#52371B" stop-opacity="0.66"/>
<stop offset="1" stop-color="#54391C" stop-opacity="0"/>
</radialGradient>
<radialGradient id="paint78_radial_3039_12423" cx="0" cy="0" r="1" gradientUnits="userSpaceOnUse" gradientTransform="translate(2.90812 1.65327) rotate(102.473) scale(1.98011 3.0432)">
<stop stop-color="#4D3014" stop-opacity="0.66"/>
<stop offset="0.670909" stop-color="#52371B" stop-opacity="0.66"/>
<stop offset="1" stop-color="#54391C" stop-opacity="0"/>
</radialGradient>
<radialGradient id="paint79_radial_3039_12423" cx="0" cy="0" r="1" gradientUnits="userSpaceOnUse" gradientTransform="translate(2.43398 1.38372) rotate(102.473) scale(1.65727 2.54704)">
<stop stop-color="#4D3014" stop-opacity="0.66"/>
<stop offset="0.670909" stop-color="#52371B" stop-opacity="0.66"/>
<stop offset="1" stop-color="#54391C" stop-opacity="0"/>
</radialGradient>
<radialGradient id="paint80_radial_3039_12423" cx="0" cy="0" r="1" gradientUnits="userSpaceOnUse" gradientTransform="translate(2.43398 1.38372) rotate(102.473) scale(1.65727 2.54704)">
<stop stop-color="#4D3014" stop-opacity="0.44"/>
<stop offset="0.670909" stop-color="#52371B" stop-opacity="0.55"/>
<stop offset="1" stop-color="#54391C" stop-opacity="0"/>
</radialGradient>
<radialGradient id="paint81_radial_3039_12423" cx="0" cy="0" r="1" gradientUnits="userSpaceOnUse" gradientTransform="translate(2.43398 1.38372) rotate(102.473) scale(1.65727 2.54704)">
<stop stop-color="#4D3014" stop-opacity="0.44"/>
<stop offset="0.670909" stop-color="#52371B" stop-opacity="0.55"/>
<stop offset="1" stop-color="#54391C" stop-opacity="0"/>
</radialGradient>
<radialGradient id="paint82_radial_3039_12423" cx="0" cy="0" r="1" gradientUnits="userSpaceOnUse" gradientTransform="translate(2.95271 1.67862) rotate(102.473) scale(2.01047 3.08986)">
<stop stop-color="#4D3014" stop-opacity="0.88"/>
<stop offset="0.670909" stop-color="#52371B" stop-opacity="0.77"/>
<stop offset="1" stop-color="#54391C" stop-opacity="0"/>
</radialGradient>
<radialGradient id="paint83_radial_3039_12423" cx="0" cy="0" r="1" gradientUnits="userSpaceOnUse" gradientTransform="translate(2.82129 1.60391) rotate(102.473) scale(1.92098 2.95233)">
<stop stop-color="#4D3014" stop-opacity="0.88"/>
<stop offset="0.670909" stop-color="#52371B" stop-opacity="0.77"/>
<stop offset="1" stop-color="#54391C" stop-opacity="0"/>
</radialGradient>
<linearGradient id="paint84_linear_3039_12423" x1="6.23261" y1="7.76008" x2="24.9965" y2="37.4899" gradientUnits="userSpaceOnUse">
<stop stop-color="#E6C61E"/>
<stop offset="1" stop-color="#20B06B"/>
</linearGradient>
<radialGradient id="paint85_radial_3039_12423" cx="0" cy="0" r="1" gradientUnits="userSpaceOnUse" gradientTransform="translate(14.4571 30.1184) rotate(-155.168) scale(21.6152 19.8259)">
<stop offset="0.10728" stop-color="#68A611"/>
<stop offset="1" stop-color="#68A611" stop-opacity="0"/>
</radialGradient>
<radialGradient id="paint86_radial_3039_12423" cx="0" cy="0" r="1" gradientUnits="userSpaceOnUse" gradientTransform="translate(8.18211 5.32321) rotate(170.456) scale(11.8818 14.5031)">
<stop stop-color="#EDFF7D"/>
<stop offset="1" stop-color="#FFDA93" stop-opacity="0"/>
</radialGradient>
<radialGradient id="paint87_radial_3039_12423" cx="0" cy="0" r="1" gradientUnits="userSpaceOnUse" gradientTransform="translate(21.5849 16.8984) rotate(171.666) scale(9.66682 9.38885)">
<stop stop-color="#EDFF7D"/>
<stop offset="1" stop-color="#FFDA93" stop-opacity="0"/>
</radialGradient>
<linearGradient id="paint88_linear_3039_12423" x1="29.8797" y1="38.8943" x2="65.2751" y2="69.2666" gradientUnits="userSpaceOnUse">
<stop stop-color="#E6C61E"/>
<stop offset="1" stop-color="#20B06B"/>
</linearGradient>
<radialGradient id="paint89_radial_3039_12423" cx="0" cy="0" r="1" gradientUnits="userSpaceOnUse" gradientTransform="translate(39.9445 47.5248) rotate(-138.226) scale(17.197 17.1797)">
<stop offset="0.10728" stop-color="#68A611"/>
<stop offset="1" stop-color="#68A611" stop-opacity="0"/>
</radialGradient>
<radialGradient id="paint90_radial_3039_12423" cx="0" cy="0" r="1" gradientUnits="userSpaceOnUse" gradientTransform="translate(32.0325 37.4856) rotate(-172.863) scale(10.9578 10.9577)">
<stop stop-color="#EDFF7D"/>
<stop offset="1" stop-color="#FFDA93" stop-opacity="0"/>
</radialGradient>
<radialGradient id="paint91_radial_3039_12423" cx="0" cy="0" r="1" gradientUnits="userSpaceOnUse" gradientTransform="translate(48.7787 42.6147) rotate(173.454) scale(16.9582 9.98825)">
<stop stop-color="#EDFF7D"/>
<stop offset="1" stop-color="#FFDA93" stop-opacity="0"/>
</radialGradient>
<radialGradient id="paint92_radial_3039_12423" cx="0" cy="0" r="1" gradientUnits="userSpaceOnUse" gradientTransform="translate(68.9407 53.3862) rotate(167.784) scale(27.4112 18.6318)">
<stop stop-color="#EDFF7D"/>
<stop offset="1" stop-color="#FFDA93" stop-opacity="0"/>
</radialGradient>
<radialGradient id="paint93_radial_3039_12423" cx="0" cy="0" r="1" gradientUnits="userSpaceOnUse" gradientTransform="translate(55.1311 71.0624) rotate(-172.086) scale(31.0914 17.147)">
<stop offset="0.10728" stop-color="#5A9704"/>
<stop offset="1" stop-color="#68A611" stop-opacity="0"/>
</radialGradient>
<linearGradient id="paint94_linear_3039_12423" x1="203.446" y1="20.3806" x2="242.389" y2="43.0282" gradientUnits="userSpaceOnUse">
<stop stop-color="#E6C61E"/>
<stop offset="1" stop-color="#20B06B"/>
</linearGradient>
<radialGradient id="paint95_radial_3039_12423" cx="0" cy="0" r="1" gradientUnits="userSpaceOnUse" gradientTransform="translate(227.475 43.0282) rotate(119.201) scale(29.5381 19.5519)">
<stop offset="0.10728" stop-color="#68A611"/>
<stop offset="1" stop-color="#68A611" stop-opacity="0"/>
</radialGradient>
<radialGradient id="paint96_radial_3039_12423" cx="0" cy="0" r="1" gradientUnits="userSpaceOnUse" gradientTransform="translate(202.342 23.9711) rotate(147.078) scale(21.3763 18.2657)">
<stop stop-color="#EDFF7D"/>
<stop offset="1" stop-color="#FFDA93" stop-opacity="0"/>
</radialGradient>
<radialGradient id="paint97_radial_3039_12423" cx="0" cy="0" r="1" gradientUnits="userSpaceOnUse" gradientTransform="translate(230.789 20.6568) rotate(131.426) scale(17.1145 7.56564)">
<stop stop-color="#EDFF7D"/>
<stop offset="1" stop-color="#FFDA93" stop-opacity="0"/>
</radialGradient>
<linearGradient id="paint98_linear_3039_12423" x1="208.97" y1="64.4323" x2="242.941" y2="82.8001" gradientUnits="userSpaceOnUse">
<stop stop-color="#E6C61E"/>
<stop offset="1" stop-color="#20B06B"/>
</linearGradient>
<radialGradient id="paint99_radial_3039_12423" cx="0" cy="0" r="1" gradientUnits="userSpaceOnUse" gradientTransform="translate(228.58 79.4858) rotate(121.961) scale(19.0442 11.5373)">
<stop offset="0.10728" stop-color="#68A611"/>
<stop offset="1" stop-color="#68A611" stop-opacity="0"/>
</radialGradient>
<radialGradient id="paint100_radial_3039_12423" cx="0" cy="0" r="1" gradientUnits="userSpaceOnUse" gradientTransform="translate(209.384 68.0238) rotate(148.941) scale(14.1862 11.2439)">
<stop stop-color="#EDFF7D"/>
<stop offset="1" stop-color="#FFDA93" stop-opacity="0"/>
</radialGradient>
<radialGradient id="paint101_radial_3039_12423" cx="0" cy="0" r="1" gradientUnits="userSpaceOnUse" gradientTransform="translate(226.508 61.8095) rotate(119.895) scale(14.1308 6.97847)">
<stop stop-color="#EDFF7D"/>
<stop offset="1" stop-color="#FFDA93" stop-opacity="0"/>
</radialGradient>
</defs>
</svg>
