<svg viewBox="0 0 240 120" fill="none" xmlns="http://www.w3.org/2000/svg">
<path d="M227.659 44.5255C226.612 46.3738 223.179 51.694 218.855 50.6648L220.664 47.6548C221.842 45.7206 225.729 44.5064 227.31 44.0815C227.584 44.008 227.798 44.2793 227.659 44.5255Z" fill="url(#paint0_radial_9927_1956)"/>
<path d="M227.659 44.5255C226.612 46.3738 223.179 51.694 218.855 50.6648L220.664 47.6548C221.842 45.7206 225.729 44.5064 227.31 44.0815C227.584 44.008 227.798 44.2793 227.659 44.5255Z" fill="url(#paint1_radial_9927_1956)"/>
<path d="M225.786 49.0757C224.289 51.0398 219.192 57.1187 214.324 55.8654L217.56 51.9622C218.932 49.8006 223.664 48.868 225.493 48.5823C225.78 48.5377 225.962 48.8455 225.786 49.0757Z" fill="url(#paint2_radial_9927_1956)"/>
<path d="M225.786 49.0757C224.289 51.0398 219.192 57.1187 214.324 55.8654L217.56 51.9622C218.932 49.8006 223.664 48.868 225.493 48.5823C225.78 48.5377 225.962 48.8455 225.786 49.0757Z" fill="url(#paint3_radial_9927_1956)"/>
<path d="M221.509 54.386C220.129 56.5329 215.023 63.6823 209.255 61.9032L211.898 58.0931C213.682 55.5564 219.233 54.291 221.187 53.9156C221.465 53.8622 221.662 54.148 221.509 54.386Z" fill="url(#paint4_radial_9927_1956)"/>
<path d="M221.509 54.386C220.129 56.5329 215.023 63.6823 209.255 61.9032L211.898 58.0931C213.682 55.5564 219.233 54.291 221.187 53.9156C221.465 53.8622 221.662 54.148 221.509 54.386Z" fill="url(#paint5_radial_9927_1956)"/>
<path d="M220.26 41.1085C218.772 42.6867 214.544 47.7133 216.886 51.672L219.299 48.9708C220.851 47.2111 220.853 42.9822 220.788 41.3095C220.777 41.0267 220.454 40.9026 220.26 41.1085Z" fill="url(#paint6_radial_9927_1956)"/>
<path d="M220.26 41.1085C218.772 42.6867 214.544 47.7133 216.886 51.672L219.299 48.9708C220.851 47.2111 220.853 42.9822 220.788 41.3095C220.777 41.0267 220.454 40.9026 220.26 41.1085Z" fill="url(#paint7_radial_9927_1956)"/>
<path d="M215.868 43.0594C214.442 44.9342 209.736 51.7726 213.175 56.2997L216.306 52.5848C217.974 50.1846 216.862 44.953 216.416 43.1749C216.351 42.9135 216.031 42.8449 215.868 43.0594Z" fill="url(#paint8_radial_9927_1956)"/>
<path d="M215.868 43.0594C214.442 44.9342 209.736 51.7726 213.175 56.2997L216.306 52.5848C217.974 50.1846 216.862 44.953 216.416 43.1749C216.351 42.9135 216.031 42.8449 215.868 43.0594Z" fill="url(#paint9_radial_9927_1956)"/>
<path d="M211.291 47.4496C209.991 49.6363 205.902 57.3521 210.046 61.6943L212.263 57.6483C213.728 54.9354 212.391 49.4371 211.856 47.5281C211.78 47.2555 211.436 47.2063 211.291 47.4496Z" fill="url(#paint10_radial_9927_1956)"/>
<path d="M211.291 47.4496C209.991 49.6363 205.902 57.3521 210.046 61.6943L212.263 57.6483C213.728 54.9354 212.391 49.4371 211.856 47.5281C211.78 47.2555 211.436 47.2063 211.291 47.4496Z" fill="url(#paint11_radial_9927_1956)"/>
<path d="M218.696 59.1143C217.818 61.262 214.21 69.039 208.142 68.7847L209.499 63.6417C210.598 60.6809 216.465 59.1214 218.335 58.6943C218.589 58.6363 218.795 58.873 218.696 59.1143Z" fill="url(#paint12_radial_9927_1956)"/>
<path d="M218.696 59.1143C217.818 61.262 214.21 69.039 208.142 68.7847L209.499 63.6417C210.598 60.6809 216.465 59.1214 218.335 58.6943C218.589 58.6363 218.795 58.873 218.696 59.1143Z" fill="url(#paint13_radial_9927_1956)"/>
<path d="M206.988 53.6437C206.019 55.996 203.093 64.2237 207.824 67.9184L209.43 63.5933C210.485 60.6965 208.364 55.4506 207.558 53.6394C207.443 53.3808 207.096 53.382 206.988 53.6437Z" fill="url(#paint14_radial_9927_1956)"/>
<path d="M206.988 53.6437C206.019 55.996 203.093 64.2237 207.824 67.9184L209.43 63.5933C210.485 60.6965 208.364 55.4506 207.558 53.6394C207.443 53.3808 207.096 53.382 206.988 53.6437Z" fill="url(#paint15_radial_9927_1956)"/>
<path d="M203.162 60.2988C202.537 62.8607 200.756 72.0212 206.331 75.1393L207.313 70.3551C207.954 67.1321 204.842 61.9376 203.725 60.2076C203.572 59.9698 203.229 60.0238 203.162 60.2988Z" fill="url(#paint16_radial_9927_1956)"/>
<path d="M203.162 60.2988C202.537 62.8607 200.756 72.0212 206.331 75.1393L207.313 70.3551C207.954 67.1321 204.842 61.9376 203.725 60.2076C203.572 59.9698 203.229 60.0238 203.162 60.2988Z" fill="url(#paint17_radial_9927_1956)"/>
<path d="M217.715 64.5461C216.797 66.7873 213.116 74.66 206.721 74.6583L208.2 70.0038C209.231 66.8283 215.363 64.7325 217.334 64.1337C217.593 64.055 217.818 64.2953 217.715 64.5461Z" fill="url(#paint18_radial_9927_1956)"/>
<path d="M217.715 64.5461C216.797 66.7873 213.116 74.66 206.721 74.6583L208.2 70.0038C209.231 66.8283 215.363 64.7325 217.334 64.1337C217.593 64.055 217.818 64.2953 217.715 64.5461Z" fill="url(#paint19_radial_9927_1956)"/>
<path fill-rule="evenodd" clip-rule="evenodd" d="M222.683 44.9116C222.327 44.5714 221.762 44.5845 221.422 44.9407C211.772 55.0471 207.735 66.7321 204.022 78.6137L205.724 79.1457C209.435 67.2724 213.375 55.9509 222.712 46.1724C223.052 45.8162 223.039 45.2517 222.683 44.9116Z" fill="#AC7623"/>
<path d="M170.828 15.998C172.251 18.7388 179.055 27.8557 186.015 26.4104L181.722 21.3962C179.915 18.2292 173.591 16.1248 171.287 15.4479C170.946 15.3479 170.664 15.6829 170.828 15.998Z" fill="url(#paint20_radial_9927_1956)"/>
<path d="M170.828 15.998C172.251 18.7388 179.055 27.8557 186.015 26.4104L181.722 21.3962C179.915 18.2292 173.591 16.1248 171.287 15.4479C170.946 15.3479 170.664 15.6829 170.828 15.998Z" fill="url(#paint21_radial_9927_1956)"/>
<path d="M174.117 5.78648C176.349 7.56161 184.66 14.7753 181.717 21.6194C174.551 18.8283 172.295 13.8481 173.473 6.04724C173.52 5.73703 173.872 5.59117 174.117 5.78648Z" fill="url(#paint22_radial_9927_1956)"/>
<path d="M174.117 5.78648C176.349 7.56161 184.66 14.7753 181.717 21.6194C174.551 18.8283 172.295 13.8481 173.473 6.04724C173.52 5.73703 173.872 5.59117 174.117 5.78648Z" fill="url(#paint23_radial_9927_1956)"/>
<path d="M175.722 24.1146C177.528 26.6319 183.7 34.4397 189.85 33.0447L186.694 27.6684C185.051 24.9079 178.391 23.9311 176.107 23.5065C175.75 23.4402 175.51 23.8195 175.722 24.1146Z" fill="url(#paint24_radial_9927_1956)"/>
<path d="M175.722 24.1146C177.528 26.6319 183.7 34.4397 189.85 33.0447L186.694 27.6684C185.051 24.9079 178.391 23.9311 176.107 23.5065C175.75 23.4402 175.51 23.8195 175.722 24.1146Z" fill="url(#paint25_radial_9927_1956)"/>
<path d="M180.895 30.932C182.547 33.6742 188.691 42.8247 195.989 40.8031L192.812 35.9293C190.667 32.6836 183.752 30.8953 181.316 30.3538C180.969 30.2768 180.711 30.6279 180.895 30.932Z" fill="url(#paint26_radial_9927_1956)"/>
<path d="M180.895 30.932C182.547 33.6742 188.691 42.8247 195.989 40.8031L192.812 35.9293C190.667 32.6836 183.752 30.8953 181.316 30.3538C180.969 30.2768 180.711 30.6279 180.895 30.932Z" fill="url(#paint27_radial_9927_1956)"/>
<path d="M182.144 12.163C184.148 14.3942 190.274 21.9756 186.669 27.6849L183.291 23.6755C181.078 21.0151 181.301 14.713 181.467 12.395C181.493 12.0409 181.907 11.8988 182.144 12.163Z" fill="url(#paint28_radial_9927_1956)"/>
<path d="M182.144 12.163C184.148 14.3942 190.274 21.9756 186.669 27.6849L183.291 23.6755C181.078 21.0151 181.301 14.713 181.467 12.395C181.493 12.0409 181.907 11.8988 182.144 12.163Z" fill="url(#paint29_radial_9927_1956)"/>
<path d="M188.379 16.931C190.1 19.3337 195.753 28.0797 191.275 33.632L187.485 28.8599C185.48 25.7895 187.064 19.2695 187.688 17.0559C187.78 16.7305 188.183 16.6561 188.379 16.931Z" fill="url(#paint30_radial_9927_1956)"/>
<path d="M188.379 16.931C190.1 19.3337 195.753 28.0797 191.275 33.632L187.485 28.8599C185.48 25.7895 187.064 19.2695 187.688 17.0559C187.78 16.7305 188.183 16.6561 188.379 16.931Z" fill="url(#paint31_radial_9927_1956)"/>
<path d="M193.96 22.6029C195.511 25.3922 200.359 35.2161 195.005 40.5109L192.372 35.3567C190.633 31.9016 192.51 25.0552 193.249 22.6808C193.355 22.3418 193.788 22.2925 193.96 22.6029Z" fill="url(#paint32_radial_9927_1956)"/>
<path d="M193.96 22.6029C195.511 25.3922 200.359 35.2161 195.005 40.5109L192.372 35.3567C190.633 31.9016 192.51 25.0552 193.249 22.6808C193.355 22.3418 193.788 22.2925 193.96 22.6029Z" fill="url(#paint33_radial_9927_1956)"/>
<path d="M184.25 36.9614C185.274 39.6865 189.515 49.5697 197.134 49.471L195.619 42.9725C194.348 39.2198 187.047 37.0513 184.718 36.4479C184.402 36.3659 184.135 36.6553 184.25 36.9614Z" fill="url(#paint34_radial_9927_1956)"/>
<path d="M184.25 36.9614C185.274 39.6865 189.515 49.5697 197.134 49.471L195.619 42.9725C194.348 39.2198 187.047 37.0513 184.718 36.4479C184.402 36.3659 184.135 36.6553 184.25 36.9614Z" fill="url(#paint35_radial_9927_1956)"/>
<path d="M199.13 30.523C200.26 33.508 203.63 43.9316 197.564 48.393L195.707 42.9111C194.488 39.2403 197.339 32.7388 198.415 30.4969C198.569 30.1768 199.004 30.1909 199.13 30.523Z" fill="url(#paint36_radial_9927_1956)"/>
<path d="M199.13 30.523C200.26 33.508 203.63 43.9316 197.564 48.393L195.707 42.9111C194.488 39.2403 197.339 32.7388 198.415 30.4969C198.569 30.1768 199.004 30.1909 199.13 30.523Z" fill="url(#paint37_radial_9927_1956)"/>
<path d="M203.181 39.091C203.842 42.2133 205.584 53.0291 198.908 56.5131L197.908 50.8121C197.264 46.9984 201.073 41.0077 202.478 38.9561C202.679 38.6632 203.107 38.7436 203.181 39.091Z" fill="url(#paint38_radial_9927_1956)"/>
<path d="M203.181 39.091C203.842 42.2133 205.584 53.0291 198.908 56.5131L197.908 50.8121C197.264 46.9984 201.073 41.0077 202.478 38.9561C202.679 38.6632 203.107 38.7436 203.181 39.091Z" fill="url(#paint39_radial_9927_1956)"/>
<path d="M185.803 43.62C186.84 46.3619 190.927 55.717 198.463 55.9332L196.87 50.3687C195.764 46.5937 188.65 43.9101 186.293 43.1158C185.971 43.0072 185.682 43.3019 185.803 43.62Z" fill="url(#paint40_radial_9927_1956)"/>
<path d="M185.803 43.62C186.84 46.3619 190.927 55.717 198.463 55.9332L196.87 50.3687C195.764 46.5937 188.65 43.9101 186.293 43.1158C185.971 43.0072 185.682 43.3019 185.803 43.62Z" fill="url(#paint41_radial_9927_1956)"/>
<path d="M179.938 18.7433C180.399 18.3051 181.13 18.3207 181.57 18.7805C188.267 25.8274 196.331 38.8076 199.053 51.684C200.416 58.1344 200.459 64.6566 198.221 70.4157C195.968 76.2107 191.451 81.1146 183.941 84.3647C183.356 84.6177 182.675 84.3485 182.422 83.7636C182.169 83.1788 182.438 82.4977 183.023 82.2446C190.022 79.216 194.062 74.7454 196.07 69.5778C198.093 64.3743 198.102 58.344 196.796 52.1635C194.179 39.7777 186.358 27.1705 179.901 20.3747C179.463 19.9136 179.478 19.1826 179.938 18.7433Z" fill="#AC7623"/>
<path d="M230.93 82.7114C231.32 85.9832 215.917 86.313 214.154 88.6023C212.398 90.8932 223.902 88.9316 222.15 91.7123C220.394 94.4942 199.72 95.1516 196.986 97.2787C194.255 99.4061 205.127 99.0412 200.447 102.805C183.011 116.822 127.409 115.26 120.025 115.26C112.642 115.26 57.043 116.822 39.6076 102.805C34.9258 99.0405 45.8 99.4061 43.0691 97.2787C40.338 95.1512 19.6611 94.4944 17.9054 91.7123C16.151 88.9307 27.6568 90.8934 25.9012 88.6023C24.1401 86.3124 8.73547 85.9835 9.12531 82.7114C9.96063 76.4491 108.102 73.9747 120.025 74.084C131.941 73.9747 230.106 76.473 230.93 82.7114Z" fill="url(#paint42_linear_9927_1956)"/>
<path d="M230.93 82.7114C231.32 85.9832 215.917 86.313 214.154 88.6023C212.398 90.8932 223.902 88.9316 222.15 91.7123C220.394 94.4942 199.72 95.1516 196.986 97.2787C194.255 99.4061 205.127 99.0412 200.447 102.805C183.011 116.822 127.409 115.26 120.025 115.26C112.642 115.26 57.043 116.822 39.6076 102.805C34.9258 99.0405 45.8 99.4061 43.0691 97.2787C40.338 95.1512 19.6611 94.4944 17.9054 91.7123C16.151 88.9307 27.6568 90.8934 25.9012 88.6023C24.1401 86.3124 8.73547 85.9835 9.12531 82.7114C9.96063 76.4491 108.102 73.9747 120.025 74.084C131.941 73.9747 230.106 76.473 230.93 82.7114Z" fill="url(#paint43_radial_9927_1956)"/>
<path d="M230.93 82.7114C231.32 85.9832 215.917 86.313 214.154 88.6023C212.398 90.8932 223.902 88.9316 222.15 91.7123C220.394 94.4942 199.72 95.1516 196.986 97.2787C194.255 99.4061 205.127 99.0412 200.447 102.805C183.011 116.822 127.409 115.26 120.025 115.26C112.642 115.26 57.043 116.822 39.6076 102.805C34.9258 99.0405 45.8 99.4061 43.0691 97.2787C40.338 95.1512 19.6611 94.4944 17.9054 91.7123C16.151 88.9307 27.6568 90.8934 25.9012 88.6023C24.1401 86.3124 8.73547 85.9835 9.12531 82.7114C9.96063 76.4491 108.102 73.9747 120.025 74.084C131.941 73.9747 230.106 76.473 230.93 82.7114Z" fill="url(#paint44_radial_9927_1956)"/>
<path d="M48.0817 8.75667C49.8535 11.6725 55.2641 21.685 49.9064 27.4287L46.9296 22.1403C44.9754 18.6178 46.6162 11.4387 47.299 8.87448C47.3999 8.4954 47.878 8.42142 48.0817 8.75667Z" fill="url(#paint45_radial_9927_1956)"/>
<path d="M48.0817 8.75667C49.8535 11.6725 55.2641 21.685 49.9064 27.4287L46.9296 22.1403C44.9754 18.6178 46.6162 11.4387 47.299 8.87448C47.3999 8.4954 47.878 8.42142 48.0817 8.75667Z" fill="url(#paint46_radial_9927_1956)"/>
<path d="M36.5527 6.00528C36.9488 9.13074 38.9929 21.1166 47.1436 22.2641C48.6185 13.8968 45.2105 8.9088 37.1685 5.54651C36.8487 5.4128 36.5091 5.66141 36.5527 6.00528Z" fill="url(#paint47_radial_9927_1956)"/>
<path d="M36.5527 6.00528C36.9488 9.13074 38.9929 21.1166 47.1436 22.2641C48.6185 13.8968 45.2105 8.9088 37.1685 5.54651C36.8487 5.4128 36.5091 5.66141 36.5527 6.00528Z" fill="url(#paint48_radial_9927_1956)"/>
<path d="M52.9409 18.0351C54.2816 21.1849 58.1139 31.4915 53.2688 36.4985L50.7833 29.9245C49.1187 26.7901 51.2365 20.4503 52.1457 18.05C52.2879 17.6747 52.7837 17.6658 52.9409 18.0351Z" fill="url(#paint49_radial_9927_1956)"/>
<path d="M52.9409 18.0351C54.2816 21.1849 58.1139 31.4915 53.2688 36.4985L50.7833 29.9245C49.1187 26.7901 51.2365 20.4503 52.1457 18.05C52.2879 17.6747 52.7837 17.6658 52.9409 18.0351Z" fill="url(#paint50_radial_9927_1956)"/>
<path d="M56.4102 26.8294C58.0514 29.9632 63.1678 41.0135 57.0723 46.7452L54.2927 40.9493C52.458 37.0624 54.7364 29.5066 55.6224 26.8957C55.7485 26.5242 56.2282 26.4818 56.4102 26.8294Z" fill="url(#paint51_radial_9927_1956)"/>
<path d="M56.4102 26.8294C58.0514 29.9632 63.1678 41.0135 57.0723 46.7452L54.2927 40.9493C52.458 37.0624 54.7364 29.5066 55.6224 26.8957C55.7485 26.5242 56.2282 26.4818 56.4102 26.8294Z" fill="url(#paint52_radial_9927_1956)"/>
<path d="M37.9704 17.2448C38.9278 20.4169 42.5724 30.5507 50.0318 30.4213L48.1834 24.932C46.9408 21.316 40.8623 17.9109 38.5779 16.7385C38.2289 16.5594 37.8571 16.8692 37.9704 17.2448Z" fill="url(#paint53_radial_9927_1956)"/>
<path d="M37.9704 17.2448C38.9278 20.4169 42.5724 30.5507 50.0318 30.4213L48.1834 24.932C46.9408 21.316 40.8623 17.9109 38.5779 16.7385C38.2289 16.5594 37.8571 16.8692 37.9704 17.2448Z" fill="url(#paint54_radial_9927_1956)"/>
<path d="M38.8967 25.8679C40.1787 28.8705 45.1944 39.2258 53.0056 38.1831L50.6738 31.8666C48.9247 28.2118 41.8595 25.9672 39.4113 25.2866C39.0514 25.1866 38.75 25.5244 38.8967 25.8679Z" fill="url(#paint55_radial_9927_1956)"/>
<path d="M38.8967 25.8679C40.1787 28.8705 45.1944 39.2258 53.0056 38.1831L50.6738 31.8666C48.9247 28.2118 41.8595 25.9672 39.4113 25.2866C39.0514 25.1866 38.75 25.5244 38.8967 25.8679Z" fill="url(#paint56_radial_9927_1956)"/>
<path d="M41.0495 34.3886C42.7938 37.4531 49.289 47.6666 57.3603 45.6479L54.0039 40.2046C51.7386 36.5811 44.1974 34.4255 41.5311 33.7616C41.1505 33.6669 40.8554 34.0476 41.0495 34.3886Z" fill="url(#paint57_radial_9927_1956)"/>
<path d="M41.0495 34.3886C42.7938 37.4531 49.289 47.6666 57.3603 45.6479L54.0039 40.2046C51.7386 36.5811 44.1974 34.4255 41.5311 33.7616C41.1505 33.6669 40.8554 34.0476 41.0495 34.3886Z" fill="url(#paint58_radial_9927_1956)"/>
<path d="M60.1797 33.4575C62.1655 35.9877 69.065 45.662 64.6014 52.7996L59.3339 47.6414C56.5195 44.2883 58.6599 36.1506 59.426 33.6054C59.5302 33.2595 59.9567 33.1733 60.1797 33.4575Z" fill="url(#paint59_radial_9927_1956)"/>
<path d="M60.1797 33.4575C62.1655 35.9877 69.065 45.662 64.6014 52.7996L59.3339 47.6414C56.5195 44.2883 58.6599 36.1506 59.426 33.6054C59.5302 33.2595 59.9567 33.1733 60.1797 33.4575Z" fill="url(#paint60_radial_9927_1956)"/>
<path d="M45.564 43.8146C47.7347 46.5934 55.6438 55.7559 63.3365 52.5869L59.2255 47.6885C56.4581 44.4323 48.6839 43.3942 45.9495 43.1244C45.5591 43.0859 45.3225 43.5055 45.564 43.8146Z" fill="url(#paint61_radial_9927_1956)"/>
<path d="M45.564 43.8146C47.7347 46.5934 55.6438 55.7559 63.3365 52.5869L59.2255 47.6885C56.4581 44.4323 48.6839 43.3942 45.9495 43.1244C45.5591 43.0859 45.3225 43.5055 45.564 43.8146Z" fill="url(#paint62_radial_9927_1956)"/>
<path d="M51.3315 52.5563C53.9006 54.9715 63.1145 62.8206 70.234 58.5154L65.424 54.3014C62.1924 51.5052 54.3508 51.6649 51.6073 51.8153C51.2156 51.8368 51.0457 52.2876 51.3315 52.5563Z" fill="url(#paint63_radial_9927_1956)"/>
<path d="M51.3315 52.5563C53.9006 54.9715 63.1145 62.8206 70.234 58.5154L65.424 54.3014C62.1924 51.5052 54.3508 51.6649 51.6073 51.8153C51.2156 51.8368 51.0457 52.2876 51.3315 52.5563Z" fill="url(#paint64_radial_9927_1956)"/>
<path d="M65.5765 38.7421C67.5706 41.2945 74.0601 50.5199 69.9409 57.7604L65.6002 53.0643C62.67 49.8546 64.2174 41.5967 64.8192 38.9157C64.9015 38.5491 65.3452 38.446 65.5765 38.7421Z" fill="url(#paint65_radial_9927_1956)"/>
<path d="M65.5765 38.7421C67.5706 41.2945 74.0601 50.5199 69.9409 57.7604L65.6002 53.0643C62.67 49.8546 64.2174 41.5967 64.8192 38.9157C64.9015 38.5491 65.3452 38.446 65.5765 38.7421Z" fill="url(#paint66_radial_9927_1956)"/>
<path fill-rule="evenodd" clip-rule="evenodd" d="M45.4145 16.0325C44.9086 16.1387 44.5846 16.635 44.6908 17.1409C49.1651 38.4503 59.6343 49.7724 69.9806 59.6086C70.9779 60.5568 71.9724 61.4899 72.959 62.4157C82.2146 71.1009 90.7834 79.1415 94.6327 92.9041C94.772 93.4019 95.2885 93.6926 95.7863 93.5534C96.2841 93.4142 96.5748 92.8977 96.4356 92.3999C92.4385 78.1088 83.4863 69.7167 74.2568 61.0645C73.2626 60.1325 72.2652 59.1975 71.2704 58.2518C61.0334 48.5195 50.8826 37.52 46.5229 16.7562C46.4167 16.2503 45.9205 15.9263 45.4145 16.0325Z" fill="#AC7623"/>
<path d="M5.9089 53.3619C8.3801 53.8482 15.8175 54.8708 18.2327 50.1858L14.1278 49.4874C11.4774 49.0533 7.38279 51.611 5.77865 52.7054C5.50143 52.8945 5.57963 53.2971 5.9089 53.3619Z" fill="url(#paint67_radial_9927_1956)"/>
<path d="M5.9089 53.3619C8.3801 53.8482 15.8175 54.8708 18.2327 50.1858L14.1278 49.4874C11.4774 49.0533 7.38279 51.611 5.77865 52.7054C5.50143 52.8945 5.57963 53.2971 5.9089 53.3619Z" fill="url(#paint68_radial_9927_1956)"/>
<path d="M11.4483 55.192C14.3719 55.3625 23.7778 55.4738 26.4113 50.1269L20.4 50.0228C17.3954 49.5871 12.9013 53.1224 11.2309 54.5474C10.9697 54.7702 11.1056 55.172 11.4483 55.192Z" fill="url(#paint69_radial_9927_1956)"/>
<path d="M11.4483 55.192C14.3719 55.3625 23.7778 55.4738 26.4113 50.1269L20.4 50.0228C17.3954 49.5871 12.9013 53.1224 11.2309 54.5474C10.9697 54.7702 11.1056 55.172 11.4483 55.192Z" fill="url(#paint70_radial_9927_1956)"/>
<path d="M19.5291 55.4482C22.5265 55.8653 32.9019 56.7959 35.7582 50.2329L30.2885 49.6674C26.6288 49.3119 21.202 53.3275 19.3552 54.7947C19.0924 55.0034 19.1968 55.4019 19.5291 55.4482Z" fill="url(#paint71_radial_9927_1956)"/>
<path d="M19.5291 55.4482C22.5265 55.8653 32.9019 56.7959 35.7582 50.2329L30.2885 49.6674C26.6288 49.3119 21.202 53.3275 19.3552 54.7947C19.0924 55.0034 19.1968 55.4019 19.5291 55.4482Z" fill="url(#paint72_radial_9927_1956)"/>
<path d="M8.55127 44.0654C11.1202 43.9464 18.908 44.0267 20.6589 49.1922L16.3655 49.2753C13.5835 49.312 9.77809 46.0468 8.32407 44.6956C8.07824 44.4672 8.21605 44.0809 8.55127 44.0654Z" fill="url(#paint73_radial_9927_1956)"/>
<path d="M8.55127 44.0654C11.1202 43.9464 18.908 44.0267 20.6589 49.1922L16.3655 49.2753C13.5835 49.312 9.77809 46.0468 8.32407 44.6956C8.07824 44.4672 8.21605 44.0809 8.55127 44.0654Z" fill="url(#paint74_radial_9927_1956)"/>
<path d="M13.7 41.6225C16.488 41.7883 26.2746 42.8384 27.6896 49.4296L21.9299 49.375C18.4819 49.0214 14.6351 43.9798 13.3804 42.2047C13.196 41.9437 13.381 41.6036 13.7 41.6225Z" fill="url(#paint75_radial_9927_1956)"/>
<path d="M13.7 41.6225C16.488 41.7883 26.2746 42.8384 27.6896 49.4296L21.9299 49.375C18.4819 49.0214 14.6351 43.9798 13.3804 42.2047C13.196 41.9437 13.381 41.6036 13.7 41.6225Z" fill="url(#paint76_radial_9927_1956)"/>
<path d="M21.1845 40.8964C24.1557 41.4166 34.2553 43.699 34.9594 50.7814L29.6072 49.6496C26.0354 48.8713 22.1229 43.4207 20.8187 41.4652C20.6325 41.1861 20.8539 40.8386 21.1845 40.8964Z" fill="url(#paint77_radial_9927_1956)"/>
<path d="M21.1845 40.8964C24.1557 41.4166 34.2553 43.699 34.9594 50.7814L29.6072 49.6496C26.0354 48.8713 22.1229 43.4207 20.8187 41.4652C20.6325 41.1861 20.8539 40.8386 21.1845 40.8964Z" fill="url(#paint78_radial_9927_1956)"/>
<path d="M25.9546 56.5709C28.5653 57.4397 38.3473 60.2033 42.8067 54.5487L37.1325 51.7957C33.62 50.4971 27.6846 54.5696 25.8562 55.9212C25.6076 56.105 25.6613 56.4733 25.9546 56.5709Z" fill="url(#paint79_radial_9927_1956)"/>
<path d="M25.9546 56.5709C28.5653 57.4397 38.3473 60.2033 42.8067 54.5487L37.1325 51.7957C33.62 50.4971 27.6846 54.5696 25.8562 55.9212C25.6076 56.105 25.6613 56.4733 25.9546 56.5709Z" fill="url(#paint80_radial_9927_1956)"/>
<path d="M30.0797 41.8132C32.944 42.7592 42.6052 46.4836 42.2737 53.5931L37.1425 51.6964C33.7215 50.4078 30.6417 44.447 29.6352 42.3229C29.4915 42.0196 29.761 41.708 30.0797 41.8132Z" fill="url(#paint81_radial_9927_1956)"/>
<path d="M30.0797 41.8132C32.944 42.7592 42.6052 46.4836 42.2737 53.5931L37.1425 51.6964C33.7215 50.4078 30.6417 44.447 29.6352 42.3229C29.4915 42.0196 29.761 41.708 30.0797 41.8132Z" fill="url(#paint82_radial_9927_1956)"/>
<path d="M39.0222 43.5129C41.8095 44.9299 51.4252 50.4049 49.9226 57.8286L44.8605 55.0159C41.4664 53.1024 39.1988 46.2895 38.5052 43.9488C38.4099 43.6271 38.723 43.3608 39.0222 43.5129Z" fill="url(#paint83_radial_9927_1956)"/>
<path d="M39.0222 43.5129C41.8095 44.9299 51.4252 50.4049 49.9226 57.8286L44.8605 55.0159C41.4664 53.1024 39.1988 46.2895 38.5052 43.9488C38.4099 43.6271 38.723 43.3608 39.0222 43.5129Z" fill="url(#paint84_radial_9927_1956)"/>
<path d="M31.5988 59.8853C34.324 60.7909 44.2486 63.5627 49.188 57.809L43.8584 55.5436C40.2057 54.0175 33.5836 57.9136 31.5223 59.2239C31.2511 59.3963 31.2938 59.7839 31.5988 59.8853Z" fill="url(#paint85_radial_9927_1956)"/>
<path d="M31.5988 59.8853C34.324 60.7909 44.2486 63.5627 49.188 57.809L43.8584 55.5436C40.2057 54.0175 33.5836 57.9136 31.5223 59.2239C31.2511 59.3963 31.2938 59.7839 31.5988 59.8853Z" fill="url(#paint86_radial_9927_1956)"/>
<path fill-rule="evenodd" clip-rule="evenodd" d="M10.1019 49.1833C10.0712 48.6001 10.519 48.1024 11.1022 48.0717C27.6479 47.1995 41.2775 52.5954 54.8331 58.4351C55.78 58.843 56.7264 59.253 57.6734 59.6633C70.323 65.1434 83.0831 70.6714 98.4868 71.8627C99.069 71.9078 99.5045 72.4163 99.4595 72.9985C99.4145 73.5807 98.9059 74.0162 98.3237 73.9712C82.553 72.7515 69.4856 67.088 56.8795 61.6244C55.9161 61.2068 54.9555 60.7904 53.9965 60.3773C40.4503 54.5417 27.2226 49.3396 11.2135 50.1835C10.6304 50.2143 10.1327 49.7664 10.1019 49.1833Z" fill="#AC7623"/>
<path d="M202.183 86.4796C201.1 89.1958 180.599 96.6545 110.974 91.9012L171.341 76.4424C196.232 77.046 203.048 84.3066 202.183 86.4796Z" fill="url(#paint87_radial_9927_1956)"/>
<path d="M144.453 97.1431C143.371 99.8593 149.427 105.99 79.8024 101.237L99.0107 90.7729C123.902 91.3766 145.318 94.9702 144.453 97.1431Z" fill="url(#paint88_radial_9927_1956)"/>
<path d="M175.092 78.4025C156.931 82.1818 119.121 90.2367 113.164 92.2223C109.915 92.2223 90.4756 81.1455 81.1621 75.607C80.9757 68.3386 80.2674 53.3544 78.925 51.5652C75.8498 47.3719 75.8508 36.1893 88.9896 29.2005C98.6153 24.0804 113.164 18.8568 137.632 20.8137C162.101 22.7706 177.889 32.8347 184.039 43.1782C190.189 53.5218 185.157 57.7154 184.039 60.5109C182.921 63.3065 181.802 76.1661 175.092 78.4025Z" fill="url(#paint89_linear_9927_1956)"/>
<path d="M175.092 78.4025C156.931 82.1818 119.121 90.2367 113.164 92.2223C109.915 92.2223 90.4756 81.1455 81.1621 75.607C80.9757 68.3386 80.2674 53.3544 78.925 51.5652C75.8498 47.3719 75.8508 36.1893 88.9896 29.2005C98.6153 24.0804 113.164 18.8568 137.632 20.8137C162.101 22.7706 177.889 32.8347 184.039 43.1782C190.189 53.5218 185.157 57.7154 184.039 60.5109C182.921 63.3065 181.802 76.1661 175.092 78.4025Z" fill="url(#paint90_linear_9927_1956)"/>
<path d="M175.092 78.4025C156.931 82.1818 119.121 90.2367 113.164 92.2223C109.915 92.2223 90.4756 81.1455 81.1621 75.607C80.9757 68.3386 80.2674 53.3544 78.925 51.5652C75.8498 47.3719 75.8508 36.1893 88.9896 29.2005C98.6153 24.0804 113.164 18.8568 137.632 20.8137C162.101 22.7706 177.889 32.8347 184.039 43.1782C190.189 53.5218 185.157 57.7154 184.039 60.5109C182.921 63.3065 181.802 76.1661 175.092 78.4025Z" fill="url(#paint91_radial_9927_1956)"/>
<path d="M184.978 58.7446C184.59 59.403 184.247 59.9843 184.036 60.5115C182.918 63.3078 181.799 76.1638 175.089 78.4006C156.928 82.1798 119.117 90.2385 113.16 92.2242C112.944 92.224 112.656 92.169 112.304 92.0755L116.171 66.9072L184.978 58.7446Z" fill="url(#paint92_linear_9927_1956)"/>
<path d="M184.978 58.7446C184.59 59.403 184.247 59.9843 184.036 60.5115C182.918 63.3078 181.799 76.1638 175.089 78.4006C156.928 82.1798 119.117 90.2385 113.16 92.2242C112.944 92.224 112.656 92.169 112.304 92.0755L116.171 66.9072L184.978 58.7446Z" fill="url(#paint93_linear_9927_1956)"/>
<path d="M86.9015 33.4588C114.258 27.4779 126.642 56.9947 118.711 66.4902C117.948 67.1618 116.691 79.2406 117.59 81.684C118.733 84.7896 117.329 88.1813 115.496 90.3567C114.825 90.5411 114.283 90.7042 113.886 90.8366C110.706 90.8366 91.6774 79.9894 82.5597 74.5675C82.3772 67.4537 81.6816 52.7962 80.3685 51.0365C77.4317 47.1007 79.5592 35.0639 86.9015 33.4588Z" fill="url(#paint94_linear_9927_1956)"/>
<path d="M86.9015 33.4588C114.258 27.4779 126.642 56.9947 118.711 66.4902C117.948 67.1618 116.691 79.2406 117.59 81.684C118.733 84.7896 117.329 88.1813 115.496 90.3567C114.825 90.5411 114.283 90.7042 113.886 90.8366C110.706 90.8366 91.6774 79.9894 82.5597 74.5675C82.3772 67.4537 81.6816 52.7962 80.3685 51.0365C77.4317 47.1007 79.5592 35.0639 86.9015 33.4588Z" fill="url(#paint95_linear_9927_1956)"/>
<path d="M80.9644 101.706C89.2042 102.72 100.866 99.5504 102.893 92.4517L48.5134 74.3245C45.7245 74.1978 40.0705 74.8825 39.7663 78.6346C39.386 83.3248 46.3581 91.3109 49.4004 92.4517C52.4426 93.5925 72.7246 100.691 80.9644 101.706Z" fill="url(#paint96_linear_9927_1956)"/>
<path d="M80.9644 101.706C89.2042 102.72 100.866 99.5504 102.893 92.4517L48.5134 74.3245C45.7245 74.1978 40.0705 74.8825 39.7663 78.6346C39.386 83.3248 46.3581 91.3109 49.4004 92.4517C52.4426 93.5925 72.7246 100.691 80.9644 101.706Z" fill="url(#paint97_radial_9927_1956)"/>
<path d="M80.9644 101.706C89.2042 102.72 100.866 99.5504 102.893 92.4517L48.5134 74.3245C45.7245 74.1978 40.0705 74.8825 39.7663 78.6346C39.386 83.3248 46.3581 91.3109 49.4004 92.4517C52.4426 93.5925 72.7246 100.691 80.9644 101.706Z" fill="url(#paint98_radial_9927_1956)"/>
<path d="M80.9644 101.706C89.2042 102.72 100.866 99.5504 102.893 92.4517L48.5134 74.3245C45.7245 74.1978 40.0705 74.8825 39.7663 78.6346C39.386 83.3248 46.3581 91.3109 49.4004 92.4517C52.4426 93.5925 72.7246 100.691 80.9644 101.706Z" fill="url(#paint99_radial_9927_1956)"/>
<path d="M48.5134 74.3244L101.302 91.9206C91.5422 98.4504 79.7097 94.207 74.8806 93.3404C70.3734 92.5317 44.4924 85.6075 39.7559 78.9173C39.7577 78.8221 39.7574 78.726 39.7649 78.6333C40.0709 74.8829 45.7249 74.1978 48.5134 74.3244Z" fill="url(#paint100_linear_9927_1956)"/>
<path d="M110.447 92.033C113.752 89.6455 116.141 86.1554 116.141 79.9105C116.184 78.4895 88.2239 66.5033 84.1832 66.3197C80.1426 66.136 70.5919 67.0539 63.9799 65.2172C57.3679 63.3806 47.4502 63.1969 44.8785 65.2172C42.3067 67.2375 43.2258 76.7882 44.8785 78.2578C52.7761 88.5431 85.2852 94.0531 90.4278 94.0531C95.5705 94.0531 107.142 94.4205 110.447 92.033Z" fill="url(#paint101_linear_9927_1956)"/>
<path d="M110.447 92.033C113.752 89.6455 116.141 86.1554 116.141 79.9105C116.184 78.4895 88.2239 66.5033 84.1832 66.3197C80.1426 66.136 70.5919 67.0539 63.9799 65.2172C57.3679 63.3806 47.4502 63.1969 44.8785 65.2172C42.3067 67.2375 43.2258 76.7882 44.8785 78.2578C52.7761 88.5431 85.2852 94.0531 90.4278 94.0531C95.5705 94.0531 107.142 94.4205 110.447 92.033Z" fill="url(#paint102_radial_9927_1956)"/>
<path d="M110.447 92.033C113.752 89.6455 116.141 86.1554 116.141 79.9105C116.184 78.4895 88.2239 66.5033 84.1832 66.3197C80.1426 66.136 70.5919 67.0539 63.9799 65.2172C57.3679 63.3806 47.4502 63.1969 44.8785 65.2172C42.3067 67.2375 43.2258 76.7882 44.8785 78.2578C52.7761 88.5431 85.2852 94.0531 90.4278 94.0531C95.5705 94.0531 107.142 94.4205 110.447 92.033Z" fill="url(#paint103_radial_9927_1956)"/>
<path d="M110.447 92.033C113.752 89.6455 116.141 86.1554 116.141 79.9105C116.184 78.4895 88.2239 66.5033 84.1832 66.3197C80.1426 66.136 70.5919 67.0539 63.9799 65.2172C57.3679 63.3806 47.4502 63.1969 44.8785 65.2172C42.3067 67.2375 43.2258 76.7882 44.8785 78.2578C52.7761 88.5431 85.2852 94.0531 90.4278 94.0531C95.5705 94.0531 107.142 94.4205 110.447 92.033Z" fill="url(#paint104_radial_9927_1956)"/>
<path d="M45.3488 67.4301C44.6469 65.8513 52.2684 63.0052 65.3158 66.1275C71.9956 67.8359 79.9376 67.3883 83.7669 66.7865C87.5888 66.9609 111.516 77.0466 114.212 79.4153C110.861 81.8879 87.935 84.9779 70.4089 79.9826C51.5736 74.6141 46.053 69.0105 45.3488 67.4301Z" fill="url(#paint105_linear_9927_1956)"/>
<defs>
<radialGradient id="paint0_radial_9927_1956" cx="0" cy="0" r="1" gradientUnits="userSpaceOnUse" gradientTransform="translate(224.029 45.9014) rotate(151.272) scale(6.43173 2.83289)">
<stop stop-color="#F1CD88"/>
<stop offset="1" stop-color="#CC962E"/>
</radialGradient>
<radialGradient id="paint1_radial_9927_1956" cx="0" cy="0" r="1" gradientUnits="userSpaceOnUse" gradientTransform="translate(224.281 46.2172) rotate(138.483) scale(6.92236 3.04899)">
<stop offset="0.635239" stop-color="#76400F" stop-opacity="0"/>
<stop offset="1" stop-color="#76400F"/>
</radialGradient>
<radialGradient id="paint2_radial_9927_1956" cx="0" cy="0" r="1" gradientUnits="userSpaceOnUse" gradientTransform="translate(221.347 50.0767) rotate(152.322) scale(7.16967 3.15792)">
<stop stop-color="#F1CD88"/>
<stop offset="1" stop-color="#CC962E"/>
</radialGradient>
<radialGradient id="paint3_radial_9927_1956" cx="0" cy="0" r="1" gradientUnits="userSpaceOnUse" gradientTransform="translate(221.621 50.4338) rotate(139.533) scale(7.71659 3.39882)">
<stop offset="0.635239" stop-color="#76400F" stop-opacity="0"/>
<stop offset="1" stop-color="#76400F"/>
</radialGradient>
<radialGradient id="paint4_radial_9927_1956" cx="0" cy="0" r="1" gradientUnits="userSpaceOnUse" gradientTransform="translate(216.485 56.0734) rotate(155.025) scale(8.49377 3.74113)">
<stop stop-color="#F1CD88"/>
<stop offset="1" stop-color="#CC962E"/>
</radialGradient>
<radialGradient id="paint5_radial_9927_1956" cx="0" cy="0" r="1" gradientUnits="userSpaceOnUse" gradientTransform="translate(216.79 56.5113) rotate(142.236) scale(9.1417 4.02651)">
<stop offset="0.635239" stop-color="#76400F" stop-opacity="0"/>
<stop offset="1" stop-color="#76400F"/>
</radialGradient>
<radialGradient id="paint6_radial_9927_1956" cx="0" cy="0" r="1" gradientUnits="userSpaceOnUse" gradientTransform="translate(219.998 45.1201) rotate(101.5) scale(6.6332 2.92163)">
<stop stop-color="#F1CD88"/>
<stop offset="1" stop-color="#CC962E"/>
</radialGradient>
<radialGradient id="paint7_radial_9927_1956" cx="0" cy="0" r="1" gradientUnits="userSpaceOnUse" gradientTransform="translate(219.872 45.8056) rotate(114.383) scale(7.09783 3.12628)">
<stop offset="0.635239" stop-color="#76400F" stop-opacity="0"/>
<stop offset="1" stop-color="#76400F"/>
</radialGradient>
<radialGradient id="paint8_radial_9927_1956" cx="0" cy="0" r="1" gradientUnits="userSpaceOnUse" gradientTransform="translate(215.982 48.0524) rotate(94.8907) scale(7.96707 3.50914)">
<stop stop-color="#F1CD88"/>
<stop offset="1" stop-color="#CC962E"/>
</radialGradient>
<radialGradient id="paint9_radial_9927_1956" cx="0" cy="0" r="1" gradientUnits="userSpaceOnUse" gradientTransform="translate(215.926 48.8877) rotate(107.773) scale(8.52513 3.75494)">
<stop offset="0.635239" stop-color="#76400F" stop-opacity="0"/>
<stop offset="1" stop-color="#76400F"/>
</radialGradient>
<radialGradient id="paint10_radial_9927_1956" cx="0" cy="0" r="1" gradientUnits="userSpaceOnUse" gradientTransform="translate(212.024 52.6684) rotate(88.4519) scale(8.45004 3.72187)">
<stop stop-color="#F1CD88"/>
<stop offset="1" stop-color="#CC962E"/>
</radialGradient>
<radialGradient id="paint11_radial_9927_1956" cx="0" cy="0" r="1" gradientUnits="userSpaceOnUse" gradientTransform="translate(212.064 53.5555) rotate(101.334) scale(9.04193 3.98257)">
<stop offset="0.635239" stop-color="#76400F" stop-opacity="0"/>
<stop offset="1" stop-color="#76400F"/>
</radialGradient>
<radialGradient id="paint12_radial_9927_1956" cx="0" cy="0" r="1" gradientUnits="userSpaceOnUse" gradientTransform="translate(213.623 61.3452) rotate(140.284) scale(8.45004 3.72187)">
<stop stop-color="#F1CD88"/>
<stop offset="1" stop-color="#CC962E"/>
</radialGradient>
<radialGradient id="paint13_radial_9927_1956" cx="0" cy="0" r="1" gradientUnits="userSpaceOnUse" gradientTransform="translate(214.027 61.6892) rotate(127.495) scale(9.09463 4.00578)">
<stop offset="0.635239" stop-color="#76400F" stop-opacity="0"/>
<stop offset="1" stop-color="#76400F"/>
</radialGradient>
<radialGradient id="paint14_radial_9927_1956" cx="0" cy="0" r="1" gradientUnits="userSpaceOnUse" gradientTransform="translate(208.47 58.7012) rotate(80.1049) scale(8.45004 3.72186)">
<stop stop-color="#F1CD88"/>
<stop offset="1" stop-color="#CC962E"/>
</radialGradient>
<radialGradient id="paint15_radial_9927_1956" cx="0" cy="0" r="1" gradientUnits="userSpaceOnUse" gradientTransform="translate(208.639 59.5729) rotate(92.9873) scale(9.04193 3.98257)">
<stop offset="0.635239" stop-color="#76400F" stop-opacity="0"/>
<stop offset="1" stop-color="#76400F"/>
</radialGradient>
<radialGradient id="paint16_radial_9927_1956" cx="0" cy="0" r="1" gradientUnits="userSpaceOnUse" gradientTransform="translate(205.519 65.392) rotate(71.3325) scale(8.94514 3.93994)">
<stop stop-color="#F1CD88"/>
<stop offset="1" stop-color="#CC962E"/>
</radialGradient>
<radialGradient id="paint17_radial_9927_1956" cx="0" cy="0" r="1" gradientUnits="userSpaceOnUse" gradientTransform="translate(205.836 66.2768) rotate(84.2149) scale(9.57172 4.21591)">
<stop offset="0.635239" stop-color="#76400F" stop-opacity="0"/>
<stop offset="1" stop-color="#76400F"/>
</radialGradient>
<radialGradient id="paint18_radial_9927_1956" cx="0" cy="0" r="1" gradientUnits="userSpaceOnUse" gradientTransform="translate(212.19 66.5487) rotate(137.899) scale(8.94514 3.93994)">
<stop stop-color="#F1CD88"/>
<stop offset="1" stop-color="#CC962E"/>
</radialGradient>
<radialGradient id="paint19_radial_9927_1956" cx="0" cy="0" r="1" gradientUnits="userSpaceOnUse" gradientTransform="translate(212.633 66.8948) rotate(125.11) scale(9.6275 4.24048)">
<stop offset="0.635239" stop-color="#76400F" stop-opacity="0"/>
<stop offset="1" stop-color="#76400F"/>
</radialGradient>
<radialGradient id="paint20_radial_9927_1956" cx="0" cy="0" r="1" gradientUnits="userSpaceOnUse" gradientTransform="translate(176.54 18.5027) rotate(30.3856) scale(10.0598 4.43089)">
<stop stop-color="#F1CD88"/>
<stop offset="1" stop-color="#CC962E"/>
</radialGradient>
<radialGradient id="paint21_radial_9927_1956" cx="0" cy="0" r="1" gradientUnits="userSpaceOnUse" gradientTransform="translate(176.131 18.985) rotate(43.1745) scale(10.8272 4.76889)">
<stop offset="0.635239" stop-color="#76400F" stop-opacity="0"/>
<stop offset="1" stop-color="#76400F"/>
</radialGradient>
<radialGradient id="paint22_radial_9927_1956" cx="0" cy="0" r="1" gradientUnits="userSpaceOnUse" gradientTransform="translate(175.631 12.1599) rotate(71.1496) scale(10.2865 4.53076)">
<stop stop-color="#F1CD88"/>
<stop offset="1" stop-color="#CC962E"/>
</radialGradient>
<radialGradient id="paint23_radial_9927_1956" cx="0" cy="0" r="1" gradientUnits="userSpaceOnUse" gradientTransform="translate(175.961 13.1891) rotate(58.2672) scale(11.0071 4.84812)">
<stop offset="0.635239" stop-color="#76400F" stop-opacity="0"/>
<stop offset="1" stop-color="#76400F"/>
</radialGradient>
<radialGradient id="paint24_radial_9927_1956" cx="0" cy="0" r="1" gradientUnits="userSpaceOnUse" gradientTransform="translate(181.253 25.5307) rotate(29.3355) scale(8.99449 3.96167)">
<stop stop-color="#F1CD88"/>
<stop offset="1" stop-color="#CC962E"/>
</radialGradient>
<radialGradient id="paint25_radial_9927_1956" cx="0" cy="0" r="1" gradientUnits="userSpaceOnUse" gradientTransform="translate(180.896 25.9685) rotate(42.1244) scale(9.68061 4.26388)">
<stop offset="0.635239" stop-color="#76400F" stop-opacity="0"/>
<stop offset="1" stop-color="#76400F"/>
</radialGradient>
<radialGradient id="paint26_radial_9927_1956" cx="0" cy="0" r="1" gradientUnits="userSpaceOnUse" gradientTransform="translate(187.134 33.2303) rotate(26.6324) scale(10.6556 4.69331)">
<stop stop-color="#F1CD88"/>
<stop offset="1" stop-color="#CC962E"/>
</radialGradient>
<radialGradient id="paint27_radial_9927_1956" cx="0" cy="0" r="1" gradientUnits="userSpaceOnUse" gradientTransform="translate(186.736 33.7684) rotate(39.4213) scale(11.4684 5.05133)">
<stop offset="0.635239" stop-color="#76400F" stop-opacity="0"/>
<stop offset="1" stop-color="#76400F"/>
</radialGradient>
<radialGradient id="paint28_radial_9927_1956" cx="0" cy="0" r="1" gradientUnits="userSpaceOnUse" gradientTransform="translate(182.441 18.075) rotate(80.1571) scale(9.60157 4.22906)">
<stop stop-color="#F1CD88"/>
<stop offset="1" stop-color="#CC962E"/>
</radialGradient>
<radialGradient id="paint29_radial_9927_1956" cx="0" cy="0" r="1" gradientUnits="userSpaceOnUse" gradientTransform="translate(182.595 19.0721) rotate(67.2747) scale(10.2741 4.52529)">
<stop offset="0.635239" stop-color="#76400F" stop-opacity="0"/>
<stop offset="1" stop-color="#76400F"/>
</radialGradient>
<radialGradient id="paint30_radial_9927_1956" cx="0" cy="0" r="1" gradientUnits="userSpaceOnUse" gradientTransform="translate(188.055 23.1882) rotate(86.7667) scale(9.99483 4.40228)">
<stop stop-color="#F1CD88"/>
<stop offset="1" stop-color="#CC962E"/>
</radialGradient>
<radialGradient id="paint31_radial_9927_1956" cx="0" cy="0" r="1" gradientUnits="userSpaceOnUse" gradientTransform="translate(188.095 24.2378) rotate(73.8843) scale(10.6949 4.71064)">
<stop offset="0.635239" stop-color="#76400F" stop-opacity="0"/>
<stop offset="1" stop-color="#76400F"/>
</radialGradient>
<radialGradient id="paint32_radial_9927_1956" cx="0" cy="0" r="1" gradientUnits="userSpaceOnUse" gradientTransform="translate(192.853 29.1207) rotate(93.2056) scale(10.6007 4.66915)">
<stop stop-color="#F1CD88"/>
<stop offset="1" stop-color="#CC962E"/>
</radialGradient>
<radialGradient id="paint33_radial_9927_1956" cx="0" cy="0" r="1" gradientUnits="userSpaceOnUse" gradientTransform="translate(192.77 30.2316) rotate(80.3232) scale(11.3433 4.9962)">
<stop offset="0.635239" stop-color="#76400F" stop-opacity="0"/>
<stop offset="1" stop-color="#76400F"/>
</radialGradient>
<radialGradient id="paint34_radial_9927_1956" cx="0" cy="0" r="1" gradientUnits="userSpaceOnUse" gradientTransform="translate(190.532 39.9434) rotate(41.3739) scale(10.6007 4.66915)">
<stop stop-color="#F1CD88"/>
<stop offset="1" stop-color="#CC962E"/>
</radialGradient>
<radialGradient id="paint35_radial_9927_1956" cx="0" cy="0" r="1" gradientUnits="userSpaceOnUse" gradientTransform="translate(190.012 40.3602) rotate(54.1627) scale(11.4094 5.02532)">
<stop offset="0.635239" stop-color="#76400F" stop-opacity="0"/>
<stop offset="1" stop-color="#76400F"/>
</radialGradient>
<radialGradient id="paint36_radial_9927_1956" cx="0" cy="0" r="1" gradientUnits="userSpaceOnUse" gradientTransform="translate(197.088 36.8113) rotate(101.553) scale(10.6007 4.66915)">
<stop stop-color="#F1CD88"/>
<stop offset="1" stop-color="#CC962E"/>
</radialGradient>
<radialGradient id="paint37_radial_9927_1956" cx="0" cy="0" r="1" gradientUnits="userSpaceOnUse" gradientTransform="translate(196.845 37.8984) rotate(88.6702) scale(11.3433 4.9962)">
<stop offset="0.635239" stop-color="#76400F" stop-opacity="0"/>
<stop offset="1" stop-color="#76400F"/>
</radialGradient>
<radialGradient id="paint38_radial_9927_1956" cx="0" cy="0" r="1" gradientUnits="userSpaceOnUse" gradientTransform="translate(200.204 44.9944) rotate(110.325) scale(10.6007 4.66915)">
<stop stop-color="#F1CD88"/>
<stop offset="1" stop-color="#CC962E"/>
</radialGradient>
<radialGradient id="paint39_radial_9927_1956" cx="0" cy="0" r="1" gradientUnits="userSpaceOnUse" gradientTransform="translate(199.798 46.0316) rotate(97.4425) scale(11.3433 4.9962)">
<stop offset="0.635239" stop-color="#76400F" stop-opacity="0"/>
<stop offset="1" stop-color="#76400F"/>
</radialGradient>
<radialGradient id="paint40_radial_9927_1956" cx="0" cy="0" r="1" gradientUnits="userSpaceOnUse" gradientTransform="translate(192.263 46.1393) rotate(43.7583) scale(10.6007 4.66915)">
<stop stop-color="#F1CD88"/>
<stop offset="1" stop-color="#CC962E"/>
</radialGradient>
<radialGradient id="paint41_radial_9927_1956" cx="0" cy="0" r="1" gradientUnits="userSpaceOnUse" gradientTransform="translate(191.726 46.5341) rotate(56.5472) scale(11.4094 5.02532)">
<stop offset="0.635239" stop-color="#76400F" stop-opacity="0"/>
<stop offset="1" stop-color="#76400F"/>
</radialGradient>
<linearGradient id="paint42_linear_9927_1956" x1="107.166" y1="-187.042" x2="418.046" y2="242.84" gradientUnits="userSpaceOnUse">
<stop stop-color="#B3CB17"/>
<stop offset="1" stop-color="#050F08"/>
</linearGradient>
<radialGradient id="paint43_radial_9927_1956" cx="0" cy="0" r="1" gradientTransform="matrix(98.8744 23.3889 -8.57896 48.5158 44.8625 71.0975)" gradientUnits="userSpaceOnUse">
<stop stop-color="#6B510F" stop-opacity="0.7"/>
<stop offset="0.484044" stop-color="#5B6300" stop-opacity="0.361169"/>
<stop offset="1" stop-color="#2D3F1D" stop-opacity="0"/>
</radialGradient>
<radialGradient id="paint44_radial_9927_1956" cx="0" cy="0" r="1" gradientUnits="userSpaceOnUse" gradientTransform="translate(93.5934 83.9349) rotate(-0.333037) scale(120.063 26.6601)">
<stop stop-color="#FFD727"/>
<stop offset="1" stop-color="#FFF033" stop-opacity="0"/>
</radialGradient>
<radialGradient id="paint45_radial_9927_1956" cx="0" cy="0" r="1" gradientUnits="userSpaceOnUse" gradientTransform="translate(47.17 15.5873) rotate(90.8933) scale(11.1147 4.89553)">
<stop stop-color="#F1CD88"/>
<stop offset="1" stop-color="#CC962E"/>
</radialGradient>
<radialGradient id="paint46_radial_9927_1956" cx="0" cy="0" r="1" gradientUnits="userSpaceOnUse" gradientTransform="translate(47.8599 15.4781) rotate(78.1044) scale(11.9626 5.26897)">
<stop offset="0.635239" stop-color="#76400F" stop-opacity="0"/>
<stop offset="1" stop-color="#76400F"/>
</radialGradient>
<radialGradient id="paint47_radial_9927_1956" cx="0" cy="0" r="1" gradientUnits="userSpaceOnUse" gradientTransform="translate(41.7025 11.0909) rotate(50.1293) scale(11.3652 5.00587)">
<stop stop-color="#F1CD88"/>
<stop offset="1" stop-color="#CC962E"/>
</radialGradient>
<radialGradient id="paint48_radial_9927_1956" cx="0" cy="0" r="1" gradientUnits="userSpaceOnUse" gradientTransform="translate(42.4849 11.9931) rotate(63.0117) scale(12.1613 5.35651)">
<stop offset="0.635239" stop-color="#76400F" stop-opacity="0"/>
<stop offset="1" stop-color="#76400F"/>
</radialGradient>
<radialGradient id="paint49_radial_9927_1956" cx="0" cy="0" r="1" gradientUnits="userSpaceOnUse" gradientTransform="translate(51.1055 24.0703) rotate(91.9434) scale(9.93767 4.3771)">
<stop stop-color="#F1CD88"/>
<stop offset="1" stop-color="#CC962E"/>
</radialGradient>
<radialGradient id="paint50_radial_9927_1956" cx="0" cy="0" r="1" gradientUnits="userSpaceOnUse" gradientTransform="translate(51.724 23.9839) rotate(79.1545) scale(10.6957 4.711)">
<stop offset="0.635239" stop-color="#76400F" stop-opacity="0"/>
<stop offset="1" stop-color="#76400F"/>
</radialGradient>
<radialGradient id="paint51_radial_9927_1956" cx="0" cy="0" r="1" gradientUnits="userSpaceOnUse" gradientTransform="translate(55.001 34.0397) rotate(94.6465) scale(11.773 5.18547)">
<stop stop-color="#F1CD88"/>
<stop offset="1" stop-color="#CC962E"/>
</radialGradient>
<radialGradient id="paint52_radial_9927_1956" cx="0" cy="0" r="1" gradientUnits="userSpaceOnUse" gradientTransform="translate(55.7378 33.972) rotate(81.8576) scale(12.671 5.58103)">
<stop offset="0.635239" stop-color="#76400F" stop-opacity="0"/>
<stop offset="1" stop-color="#76400F"/>
</radialGradient>
<radialGradient id="paint53_radial_9927_1956" cx="0" cy="0" r="1" gradientUnits="userSpaceOnUse" gradientTransform="translate(43.3829 20.9161) rotate(41.1218) scale(10.6084 4.67253)">
<stop stop-color="#F1CD88"/>
<stop offset="1" stop-color="#CC962E"/>
</radialGradient>
<radialGradient id="paint54_radial_9927_1956" cx="0" cy="0" r="1" gradientUnits="userSpaceOnUse" gradientTransform="translate(44.2361 21.6336) rotate(54.0042) scale(11.3515 4.99983)">
<stop offset="0.635239" stop-color="#76400F" stop-opacity="0"/>
<stop offset="1" stop-color="#76400F"/>
</radialGradient>
<radialGradient id="paint55_radial_9927_1956" cx="0" cy="0" r="1" gradientUnits="userSpaceOnUse" gradientTransform="translate(44.9913 29.1511) rotate(34.5122) scale(11.0429 4.86391)">
<stop stop-color="#F1CD88"/>
<stop offset="1" stop-color="#CC962E"/>
</radialGradient>
<radialGradient id="paint56_radial_9927_1956" cx="0" cy="0" r="1" gradientUnits="userSpaceOnUse" gradientTransform="translate(45.9595 29.7908) rotate(47.3946) scale(11.8164 5.20461)">
<stop offset="0.635239" stop-color="#76400F" stop-opacity="0"/>
<stop offset="1" stop-color="#76400F"/>
</radialGradient>
<radialGradient id="paint57_radial_9927_1956" cx="0" cy="0" r="1" gradientUnits="userSpaceOnUse" gradientTransform="translate(47.8395 37.0817) rotate(28.0733) scale(11.7123 5.15877)">
<stop stop-color="#F1CD88"/>
<stop offset="1" stop-color="#CC962E"/>
</radialGradient>
<radialGradient id="paint58_radial_9927_1956" cx="0" cy="0" r="1" gradientUnits="userSpaceOnUse" gradientTransform="translate(48.936 37.6407) rotate(40.9557) scale(12.5328 5.52012)">
<stop offset="0.635239" stop-color="#76400F" stop-opacity="0"/>
<stop offset="1" stop-color="#76400F"/>
</radialGradient>
<radialGradient id="paint59_radial_9927_1956" cx="0" cy="0" r="1" gradientUnits="userSpaceOnUse" gradientTransform="translate(59.392 41.0999) rotate(79.905) scale(11.7123 5.15877)">
<stop stop-color="#F1CD88"/>
<stop offset="1" stop-color="#CC962E"/>
</radialGradient>
<radialGradient id="paint60_radial_9927_1956" cx="0" cy="0" r="1" gradientUnits="userSpaceOnUse" gradientTransform="translate(60.0837 40.8483) rotate(67.1161) scale(12.6058 5.55229)">
<stop offset="0.635239" stop-color="#76400F" stop-opacity="0"/>
<stop offset="1" stop-color="#76400F"/>
</radialGradient>
<radialGradient id="paint61_radial_9927_1956" cx="0" cy="0" r="1" gradientUnits="userSpaceOnUse" gradientTransform="translate(52.6732 45.4938) rotate(19.7263) scale(11.7123 5.15877)">
<stop stop-color="#F1CD88"/>
<stop offset="1" stop-color="#CC962E"/>
</radialGradient>
<radialGradient id="paint62_radial_9927_1956" cx="0" cy="0" r="1" gradientUnits="userSpaceOnUse" gradientTransform="translate(53.8392 45.8877) rotate(32.6087) scale(12.5328 5.52012)">
<stop offset="0.635239" stop-color="#76400F" stop-opacity="0"/>
<stop offset="1" stop-color="#76400F"/>
</radialGradient>
<radialGradient id="paint63_radial_9927_1956" cx="0" cy="0" r="1" gradientUnits="userSpaceOnUse" gradientTransform="translate(58.6136 53.1317) rotate(10.954) scale(11.7123 5.15877)">
<stop stop-color="#F1CD88"/>
<stop offset="1" stop-color="#CC962E"/>
</radialGradient>
<radialGradient id="paint64_radial_9927_1956" cx="0" cy="0" r="1" gradientUnits="userSpaceOnUse" gradientTransform="translate(59.8261 53.3431) rotate(23.8363) scale(12.5328 5.52012)">
<stop offset="0.635239" stop-color="#76400F" stop-opacity="0"/>
<stop offset="1" stop-color="#76400F"/>
</radialGradient>
<radialGradient id="paint65_radial_9927_1956" cx="0" cy="0" r="1" gradientUnits="userSpaceOnUse" gradientTransform="translate(64.2494 46.2875) rotate(77.5205) scale(11.7123 5.15876)">
<stop stop-color="#F1CD88"/>
<stop offset="1" stop-color="#CC962E"/>
</radialGradient>
<radialGradient id="paint66_radial_9927_1956" cx="0" cy="0" r="1" gradientUnits="userSpaceOnUse" gradientTransform="translate(64.9301 46.0074) rotate(64.7316) scale(12.6058 5.55229)">
<stop offset="0.635239" stop-color="#76400F" stop-opacity="0"/>
<stop offset="1" stop-color="#76400F"/>
</radialGradient>
<radialGradient id="paint67_radial_9927_1956" cx="0" cy="0" r="1" gradientUnits="userSpaceOnUse" gradientTransform="translate(9.95074 51.1598) rotate(-20.6125) scale(7.62618 3.35899)">
<stop stop-color="#F1CD88"/>
<stop offset="1" stop-color="#CC962E"/>
</radialGradient>
<radialGradient id="paint68_radial_9927_1956" cx="0" cy="0" r="1" gradientUnits="userSpaceOnUse" gradientTransform="translate(10.0399 51.6307) rotate(-7.82361) scale(8.20793 3.61522)">
<stop offset="0.635239" stop-color="#76400F" stop-opacity="0"/>
<stop offset="1" stop-color="#76400F"/>
</radialGradient>
<radialGradient id="paint69_radial_9927_1956" cx="0" cy="0" r="1" gradientUnits="userSpaceOnUse" gradientTransform="translate(15.7786 51.972) rotate(-21.6626) scale(8.50117 3.74439)">
<stop stop-color="#F1CD88"/>
<stop offset="1" stop-color="#CC962E"/>
</radialGradient>
<radialGradient id="paint70_radial_9927_1956" cx="0" cy="0" r="1" gradientUnits="userSpaceOnUse" gradientTransform="translate(15.8876 52.495) rotate(-8.87367) scale(9.14966 4.03002)">
<stop offset="0.635239" stop-color="#76400F" stop-opacity="0"/>
<stop offset="1" stop-color="#76400F"/>
</radialGradient>
<radialGradient id="paint71_radial_9927_1956" cx="0" cy="0" r="1" gradientUnits="userSpaceOnUse" gradientTransform="translate(24.9287 52.2322) rotate(-24.3657) scale(10.0712 4.4359)">
<stop stop-color="#F1CD88"/>
<stop offset="1" stop-color="#CC962E"/>
</radialGradient>
<radialGradient id="paint72_radial_9927_1956" cx="0" cy="0" r="1" gradientUnits="userSpaceOnUse" gradientTransform="translate(25.0869 52.845) rotate(-11.5768) scale(10.8394 4.77428)">
<stop offset="0.635239" stop-color="#76400F" stop-opacity="0"/>
<stop offset="1" stop-color="#76400F"/>
</radialGradient>
<radialGradient id="paint73_radial_9927_1956" cx="0" cy="0" r="1" gradientUnits="userSpaceOnUse" gradientTransform="translate(12.3615 46.9295) rotate(29.159) scale(7.86507 3.46421)">
<stop stop-color="#F1CD88"/>
<stop offset="1" stop-color="#CC962E"/>
</radialGradient>
<radialGradient id="paint74_radial_9927_1956" cx="0" cy="0" r="1" gradientUnits="userSpaceOnUse" gradientTransform="translate(13.0757 47.3455) rotate(16.2766) scale(8.41599 3.70687)">
<stop offset="0.635239" stop-color="#76400F" stop-opacity="0"/>
<stop offset="1" stop-color="#76400F"/>
</radialGradient>
<radialGradient id="paint75_radial_9927_1956" cx="0" cy="0" r="1" gradientUnits="userSpaceOnUse" gradientTransform="translate(18.1028 45.5827) rotate(35.7686) scale(9.44665 4.16083)">
<stop stop-color="#F1CD88"/>
<stop offset="1" stop-color="#CC962E"/>
</radialGradient>
<radialGradient id="paint76_radial_9927_1956" cx="0" cy="0" r="1" gradientUnits="userSpaceOnUse" gradientTransform="translate(18.8973 46.1777) rotate(22.8862) scale(10.1084 4.45228)">
<stop offset="0.635239" stop-color="#76400F" stop-opacity="0"/>
<stop offset="1" stop-color="#76400F"/>
</radialGradient>
<radialGradient id="paint77_radial_9927_1956" cx="0" cy="0" r="1" gradientUnits="userSpaceOnUse" gradientTransform="translate(25.3131 45.5869) rotate(42.2075) scale(10.0193 4.41306)">
<stop stop-color="#F1CD88"/>
<stop offset="1" stop-color="#CC962E"/>
</radialGradient>
<radialGradient id="paint78_radial_9927_1956" cx="0" cy="0" r="1" gradientUnits="userSpaceOnUse" gradientTransform="translate(26.0797 46.3085) rotate(29.3251) scale(10.7211 4.72218)">
<stop offset="0.635239" stop-color="#76400F" stop-opacity="0"/>
<stop offset="1" stop-color="#76400F"/>
</radialGradient>
<radialGradient id="paint79_radial_9927_1956" cx="0" cy="0" r="1" gradientUnits="userSpaceOnUse" gradientTransform="translate(31.8811 53.7305) rotate(-9.62423) scale(10.0193 4.41306)">
<stop stop-color="#F1CD88"/>
<stop offset="1" stop-color="#CC962E"/>
</radialGradient>
<radialGradient id="paint80_radial_9927_1956" cx="0" cy="0" r="1" gradientUnits="userSpaceOnUse" gradientTransform="translate(31.8781 54.3602) rotate(3.16466) scale(10.7836 4.7497)">
<stop offset="0.635239" stop-color="#76400F" stop-opacity="0"/>
<stop offset="1" stop-color="#76400F"/>
</radialGradient>
<radialGradient id="paint81_radial_9927_1956" cx="0" cy="0" r="1" gradientUnits="userSpaceOnUse" gradientTransform="translate(33.4838 47.0535) rotate(50.5545) scale(10.0193 4.41306)">
<stop stop-color="#F1CD88"/>
<stop offset="1" stop-color="#CC962E"/>
</radialGradient>
<radialGradient id="paint82_radial_9927_1956" cx="0" cy="0" r="1" gradientUnits="userSpaceOnUse" gradientTransform="translate(34.1375 47.8788) rotate(37.6721) scale(10.7211 4.72218)">
<stop offset="0.635239" stop-color="#76400F" stop-opacity="0"/>
<stop offset="1" stop-color="#76400F"/>
</radialGradient>
<radialGradient id="paint83_radial_9927_1956" cx="0" cy="0" r="1" gradientUnits="userSpaceOnUse" gradientTransform="translate(41.7825 49.5677) rotate(59.3268) scale(10.6064 4.67163)">
<stop stop-color="#F1CD88"/>
<stop offset="1" stop-color="#CC962E"/>
</radialGradient>
<radialGradient id="paint84_radial_9927_1956" cx="0" cy="0" r="1" gradientUnits="userSpaceOnUse" gradientTransform="translate(42.3332 50.5367) rotate(46.4445) scale(11.3493 4.99886)">
<stop offset="0.635239" stop-color="#76400F" stop-opacity="0"/>
<stop offset="1" stop-color="#76400F"/>
</radialGradient>
<radialGradient id="paint85_radial_9927_1956" cx="0" cy="0" r="1" gradientUnits="userSpaceOnUse" gradientTransform="translate(37.6686 56.4627) rotate(-7.23975) scale(10.6064 4.67163)">
<stop stop-color="#F1CD88"/>
<stop offset="1" stop-color="#CC962E"/>
</radialGradient>
<radialGradient id="paint86_radial_9927_1956" cx="0" cy="0" r="1" gradientUnits="userSpaceOnUse" gradientTransform="translate(37.6377 57.1285) rotate(5.54915) scale(11.4154 5.02799)">
<stop offset="0.635239" stop-color="#76400F" stop-opacity="0"/>
<stop offset="1" stop-color="#76400F"/>
</radialGradient>
<radialGradient id="paint87_radial_9927_1956" cx="0" cy="0" r="1" gradientTransform="matrix(107.538 -0.280046 -0.432902 21.1708 124.961 81.9624)" gradientUnits="userSpaceOnUse">
<stop stop-opacity="0.7"/>
<stop offset="0.299613" stop-opacity="0.54911"/>
<stop offset="0.809965" stop-opacity="0"/>
</radialGradient>
<radialGradient id="paint88_radial_9927_1956" cx="0" cy="0" r="1" gradientTransform="matrix(67.1366 5.73236 -1.43313 13.1903 93.7889 91.2972)" gradientUnits="userSpaceOnUse">
<stop stop-opacity="0.7"/>
<stop offset="0.299613" stop-opacity="0.54911"/>
<stop offset="0.809965" stop-opacity="0"/>
</radialGradient>
<linearGradient id="paint89_linear_9927_1956" x1="90.1977" y1="-10.8684" x2="165.335" y2="120.454" gradientUnits="userSpaceOnUse">
<stop stop-color="#F1A63C"/>
<stop offset="1" stop-color="#9D5400"/>
</linearGradient>
<linearGradient id="paint90_linear_9927_1956" x1="138.632" y1="95.7667" x2="132.142" y2="62.0102" gradientUnits="userSpaceOnUse">
<stop offset="0.0112283" stop-color="#633E00"/>
<stop offset="0.451923" stop-color="#734902" stop-opacity="0.690445"/>
<stop offset="0.783654" stop-color="#986206" stop-opacity="0"/>
</linearGradient>
<radialGradient id="paint91_radial_9927_1956" cx="0" cy="0" r="1" gradientUnits="userSpaceOnUse" gradientTransform="translate(105.535 34.3614) rotate(-1.70699) scale(85.0586 18.9936)">
<stop stop-color="#FFD394"/>
<stop offset="1" stop-color="#FFD394" stop-opacity="0"/>
</radialGradient>
<linearGradient id="paint92_linear_9927_1956" x1="145.8" y1="60.669" x2="147.521" y2="77.1759" gradientUnits="userSpaceOnUse">
<stop offset="0.0112283" stop-color="#986206"/>
<stop offset="1" stop-color="#986206" stop-opacity="0"/>
</linearGradient>
<linearGradient id="paint93_linear_9927_1956" x1="150.93" y1="88.8704" x2="148.076" y2="76.4416" gradientUnits="userSpaceOnUse">
<stop offset="0.27578" stop-color="#FFD394"/>
<stop offset="1" stop-color="#A26B0F" stop-opacity="0"/>
</linearGradient>
<linearGradient id="paint94_linear_9927_1956" x1="89.8763" y1="30.5687" x2="112.769" y2="97.1444" gradientUnits="userSpaceOnUse">
<stop stop-color="#FFEBBD"/>
<stop offset="1" stop-color="#E8D0B3"/>
</linearGradient>
<linearGradient id="paint95_linear_9927_1956" x1="100.085" y1="32.666" x2="83.2407" y2="85.914" gradientUnits="userSpaceOnUse">
<stop offset="0.584822" stop-color="#DEC399" stop-opacity="0"/>
<stop offset="0.740529" stop-color="#A98447" stop-opacity="0.565949"/>
<stop offset="1" stop-color="#805308"/>
</linearGradient>
<linearGradient id="paint96_linear_9927_1956" x1="47.1995" y1="62.3073" x2="69.5108" y2="120.715" gradientUnits="userSpaceOnUse">
<stop stop-color="#F1A63C"/>
<stop offset="1" stop-color="#9D5400"/>
</linearGradient>
<radialGradient id="paint97_radial_9927_1956" cx="0" cy="0" r="1" gradientTransform="matrix(-21.7098 36.7711 -17.2798 -11.2534 61.4612 79.4219)" gradientUnits="userSpaceOnUse">
<stop stop-color="#FFD394"/>
<stop offset="1" stop-color="#FFD394" stop-opacity="0"/>
</radialGradient>
<radialGradient id="paint98_radial_9927_1956" cx="0" cy="0" r="1" gradientTransform="matrix(-53.4503 -5.88338 3.15276 -31.5944 71.3224 76.2964)" gradientUnits="userSpaceOnUse">
<stop offset="0.636984" stop-color="#986206" stop-opacity="0"/>
<stop offset="0.779846" stop-color="#734902" stop-opacity="0.690445"/>
<stop offset="0.988772" stop-color="#633E00"/>
</radialGradient>
<radialGradient id="paint99_radial_9927_1956" cx="0" cy="0" r="1" gradientUnits="userSpaceOnUse" gradientTransform="translate(63.6974 84.464) rotate(-167.079) scale(45.4083 17.8688)">
<stop offset="0.697001" stop-color="#A26B0F" stop-opacity="0"/>
<stop offset="0.892395" stop-color="#FFD394"/>
</radialGradient>
<linearGradient id="paint100_linear_9927_1956" x1="55.1825" y1="71.4569" x2="57.875" y2="100.913" gradientUnits="userSpaceOnUse">
<stop stop-color="#FFEBBD"/>
<stop offset="1" stop-color="#E8D0B3"/>
</linearGradient>
<linearGradient id="paint101_linear_9927_1956" x1="51.871" y1="50.5814" x2="75.4934" y2="115.529" gradientUnits="userSpaceOnUse">
<stop stop-color="#F1A63C"/>
<stop offset="1" stop-color="#9D5400"/>
</linearGradient>
<radialGradient id="paint102_radial_9927_1956" cx="0" cy="0" r="1" gradientUnits="userSpaceOnUse" gradientTransform="translate(68.3287 69.3862) rotate(121.802) scale(47.5393 23.463)">
<stop stop-color="#FFD394"/>
<stop offset="1" stop-color="#FFD394" stop-opacity="0"/>
</radialGradient>
<radialGradient id="paint103_radial_9927_1956" cx="0" cy="0" r="1" gradientUnits="userSpaceOnUse" gradientTransform="translate(79.7083 65.952) rotate(-174.017) scale(62.0184 34.9046)">
<stop offset="0.636984" stop-color="#986206" stop-opacity="0"/>
<stop offset="0.779846" stop-color="#734902" stop-opacity="0.690445"/>
<stop offset="0.988772" stop-color="#633E00"/>
</radialGradient>
<radialGradient id="paint104_radial_9927_1956" cx="0" cy="0" r="1" gradientUnits="userSpaceOnUse" gradientTransform="translate(71.8393 75.0697) rotate(-167.741) scale(53.2171 18.5498)">
<stop offset="0.697001" stop-color="#A26B0F" stop-opacity="0"/>
<stop offset="0.892395" stop-color="#FFD394"/>
</radialGradient>
<linearGradient id="paint105_linear_9927_1956" x1="63.5344" y1="64.0754" x2="64.9776" y2="87.016" gradientUnits="userSpaceOnUse">
<stop stop-color="#FFEBBD"/>
<stop offset="1" stop-color="#E8D0B3"/>
</linearGradient>
</defs>
</svg>
