<svg viewBox="0 0 240 120" fill="none" xmlns="http://www.w3.org/2000/svg">
<path d="M41.1192 95.7799C41.1192 94.0962 9.23071 94.0545 9.23071 88.4135C9.23071 88.4135 27.1827 88.4134 45.5272 88.4134C63.8718 88.4134 194.673 88.4134 205.266 88.4134C215.859 88.4134 228.75 88.4132 228.75 88.4132C228.75 93.254 192.972 92.8332 188.131 95.7799C183.29 98.7265 203.875 99.1525 199.597 101.883C195.318 104.614 161.124 101.883 161.124 105.461C161.124 109.04 180.6 108.407 177.43 111.144C171.825 115.985 73.2225 114.512 68.6363 111.144C64.0502 107.777 86.7262 107.777 81.1209 105.461C75.5156 103.146 32.4567 104.199 28.8897 101.883C25.3227 99.5682 41.1192 97.4636 41.1192 95.7799Z" fill="url(#paint0_radial_7811_27014)"/>
<path fill-rule="evenodd" clip-rule="evenodd" d="M228.37 89.2382C226.242 91.439 215.542 92.3598 205.637 93.2122C197.641 93.9004 190.162 94.5439 188.131 95.7803C186.333 96.8751 188.044 97.622 190.686 98.2684C187.823 97.8267 184.781 98.0561 181.618 98.2946C179.125 98.4825 176.557 98.6762 173.942 98.5514C167.452 98.2416 155.769 93.1821 153.317 92.0463C152.393 91.6183 151.142 91.4102 149.817 91.19C147.626 90.8259 145.236 90.4286 143.798 88.9487L228.595 88.9487C228.58 88.9746 228.563 89.0003 228.546 89.0258C228.494 89.0914 228.435 89.1625 228.37 89.2382Z" fill="url(#paint1_radial_7811_27014)"/>
<path fill-rule="evenodd" clip-rule="evenodd" d="M228.37 89.2382C226.242 91.439 215.542 92.3598 205.637 93.2122C197.641 93.9004 190.162 94.5439 188.131 95.7803C186.333 96.8751 188.044 97.622 190.686 98.2684C187.823 97.8267 184.781 98.0561 181.618 98.2946C179.125 98.4825 176.557 98.6762 173.942 98.5514C167.452 98.2416 155.769 93.1821 153.317 92.0463C152.393 91.6183 151.142 91.4102 149.817 91.19C147.626 90.8259 145.236 90.4286 143.798 88.9487L228.595 88.9487C228.58 88.9746 228.563 89.0003 228.546 89.0258C228.494 89.0914 228.435 89.1625 228.37 89.2382Z" fill="url(#paint2_radial_7811_27014)"/>
<path fill-rule="evenodd" clip-rule="evenodd" d="M74.4556 108.04C74.9911 107.951 75.5311 107.865 76.0628 107.78C80.1509 107.125 83.7532 106.549 81.1216 105.461C78.3362 104.311 66.3023 103.992 54.4616 103.678C49.6509 103.551 44.872 103.424 40.7583 103.243C39.9608 102.781 39.1692 102.307 38.3839 101.836L37.7119 101.434C41.248 101.372 44.6663 101.017 46.8506 100.113C49.4576 99.0339 51.787 97.369 53.7273 95.9823C55.003 95.0706 56.1104 94.2791 57.0179 93.8535C57.9143 93.433 59.24 92.5732 60.6127 91.6829C62.7353 90.3063 64.9701 88.8569 65.9039 88.8461H144.232C140.733 91.2791 132.336 96.3607 126.738 97.2233C119.74 98.3016 114.357 102.366 107.629 105.269C102.52 107.473 95.3946 107.047 90.434 106.751C88.8613 106.657 87.5062 106.576 86.502 106.596C84.6495 106.633 82.6643 107.111 80.8057 107.559C78.4789 108.12 76.3506 108.633 74.9292 108.172C74.7688 108.12 74.6111 108.076 74.4556 108.04Z" fill="url(#paint3_radial_7811_27014)"/>
<path fill-rule="evenodd" clip-rule="evenodd" d="M74.4556 108.04C74.9911 107.951 75.5311 107.865 76.0628 107.78C80.1509 107.125 83.7532 106.549 81.1216 105.461C78.3362 104.311 66.3023 103.992 54.4616 103.678C49.6509 103.551 44.872 103.424 40.7583 103.243C39.9608 102.781 39.1692 102.307 38.3839 101.836L37.7119 101.434C41.248 101.372 44.6663 101.017 46.8506 100.113C49.4576 99.0339 51.787 97.369 53.7273 95.9823C55.003 95.0706 56.1104 94.2791 57.0179 93.8535C57.9143 93.433 59.24 92.5732 60.6127 91.6829C62.7353 90.3063 64.9701 88.8569 65.9039 88.8461H144.232C140.733 91.2791 132.336 96.3607 126.738 97.2233C119.74 98.3016 114.357 102.366 107.629 105.269C102.52 107.473 95.3946 107.047 90.434 106.751C88.8613 106.657 87.5062 106.576 86.502 106.596C84.6495 106.633 82.6643 107.111 80.8057 107.559C78.4789 108.12 76.3506 108.633 74.9292 108.172C74.7688 108.12 74.6111 108.076 74.4556 108.04Z" fill="url(#paint4_radial_7811_27014)"/>
<path fill-rule="evenodd" clip-rule="evenodd" d="M31.9911 94.2908C37.1394 94.7951 41.1199 95.185 41.1199 95.7798C41.1199 96.4798 38.3894 97.2526 35.4552 98.083C32.1979 99.0049 28.6896 99.9977 28.387 101.041C33.7662 101.558 42.6213 101.863 46.8504 100.113C49.4574 99.0339 51.7868 97.369 53.7271 95.9824C55.0028 95.0706 56.1102 94.2792 57.0177 93.8535C57.9141 93.433 59.2398 92.5732 60.6125 91.6829C62.743 90.3012 64.9866 88.8461 65.914 88.8461L9.29614 88.8461C9.32213 88.9315 9.3558 89.0154 9.39689 89.0981C9.53446 89.2997 9.681 89.4964 9.83558 89.6883C12.5397 92.3855 23.7585 93.4844 31.9911 94.2908Z" fill="url(#paint5_radial_7811_27014)"/>
<path fill-rule="evenodd" clip-rule="evenodd" d="M31.9911 94.2908C37.1394 94.7951 41.1199 95.185 41.1199 95.7798C41.1199 96.4798 38.3894 97.2526 35.4552 98.083C32.1979 99.0049 28.6896 99.9977 28.387 101.041C33.7662 101.558 42.6213 101.863 46.8504 100.113C49.4574 99.0339 51.7868 97.369 53.7271 95.9824C55.0028 95.0706 56.1102 94.2792 57.0177 93.8535C57.9141 93.433 59.2398 92.5732 60.6125 91.6829C62.743 90.3012 64.9866 88.8461 65.914 88.8461L9.29614 88.8461C9.32213 88.9315 9.3558 89.0154 9.39689 89.0981C9.53446 89.2997 9.681 89.4964 9.83558 89.6883C12.5397 92.3855 23.7585 93.4844 31.9911 94.2908Z" fill="url(#paint6_radial_7811_27014)"/>
<path fill-rule="evenodd" clip-rule="evenodd" d="M51.2161 97.7262C54.3984 98.9612 59.694 100.395 62.2637 100.717C64.1078 100.947 68.448 99.9285 72.733 98.9227C76.0464 98.1449 79.3269 97.3748 81.3947 97.1963C83.8461 96.9847 85.642 96.0949 87.4828 95.1828C89.2026 94.3306 90.9617 93.459 93.3311 93.1031C98.2365 92.3663 107.884 90.729 110.336 88.8461H49.1826V88.8462L65.9134 88.8462C64.9859 88.8462 62.7423 90.3013 60.6119 91.683C59.2392 92.5733 57.9134 93.4331 57.017 93.8536C56.1095 94.2792 55.0021 95.0707 53.7264 95.9824C52.9496 96.5376 52.1105 97.1373 51.2161 97.7262Z" fill="url(#paint7_radial_7811_27014)"/>
<path fill-rule="evenodd" clip-rule="evenodd" d="M51.2161 97.7262C54.3984 98.9612 59.694 100.395 62.2637 100.717C64.1078 100.947 68.448 99.9285 72.733 98.9227C76.0464 98.1449 79.3269 97.3748 81.3947 97.1963C83.8461 96.9847 85.642 96.0949 87.4828 95.1828C89.2026 94.3306 90.9617 93.459 93.3311 93.1031C98.2365 92.3663 107.884 90.729 110.336 88.8461H49.1826V88.8462L65.9134 88.8462C64.9859 88.8462 62.7423 90.3013 60.6119 91.683C59.2392 92.5733 57.9134 93.4331 57.017 93.8536C56.1095 94.2792 55.0021 95.0707 53.7264 95.9824C52.9496 96.5376 52.1105 97.1373 51.2161 97.7262Z" fill="url(#paint8_radial_7811_27014)"/>
<path d="M41.1192 95.7799C41.1192 94.0962 9.23071 94.0545 9.23071 88.4135C9.23071 88.4135 27.1827 88.4134 45.5272 88.4134C63.8718 88.4134 194.673 88.4134 205.266 88.4134C215.859 88.4134 228.75 88.4132 228.75 88.4132C228.75 93.254 192.972 92.8332 188.131 95.7799C183.29 98.7265 203.875 99.1525 199.597 101.883C195.318 104.614 161.124 101.883 161.124 105.461C161.124 109.04 180.6 108.407 177.43 111.144C171.825 115.985 73.2225 114.512 68.6363 111.144C64.0502 107.777 86.7262 107.777 81.1209 105.461C75.5156 103.146 32.4567 104.199 28.8897 101.883C25.3227 99.5682 41.1192 97.4636 41.1192 95.7799Z" fill="url(#paint9_radial_7811_27014)"/>
<path d="M41.1192 95.7799C41.1192 94.0962 9.23071 94.0545 9.23071 88.4135C9.23071 88.4135 27.1827 88.4134 45.5272 88.4134C63.8718 88.4134 194.673 88.4134 205.266 88.4134C215.859 88.4134 228.75 88.4132 228.75 88.4132C228.75 93.254 192.972 92.8332 188.131 95.7799C183.29 98.7265 203.875 99.1525 199.597 101.883C195.318 104.614 161.124 101.883 161.124 105.461C161.124 109.04 180.6 108.407 177.43 111.144C171.825 115.985 73.2225 114.512 68.6363 111.144C64.0502 107.777 86.7262 107.777 81.1209 105.461C75.5156 103.146 32.4567 104.199 28.8897 101.883C25.3227 99.5682 41.1192 97.4636 41.1192 95.7799Z" fill="url(#paint10_radial_7811_27014)"/>
<path d="M152.152 45.5591C150.638 46.0335 145.188 51.7263 144.733 52.3589V79.0834H183.645C182.736 75.7626 172.441 64.6933 169.564 62.6375C166.687 60.5818 159.268 49.6706 157.3 48.2474C155.332 46.8242 153.666 45.0847 152.152 45.5591Z" fill="url(#paint11_linear_7811_27014)"/>
<path d="M152.152 45.5591C150.638 46.0335 145.188 51.7263 144.733 52.3589V79.0834H183.645C182.736 75.7626 172.441 64.6933 169.564 62.6375C166.687 60.5818 159.268 49.6706 157.3 48.2474C155.332 46.8242 153.666 45.0847 152.152 45.5591Z" fill="url(#paint12_linear_7811_27014)"/>
<path d="M152.152 45.5591C150.638 46.0335 145.188 51.7263 144.733 52.3589V79.0834H183.645C182.736 75.7626 172.441 64.6933 169.564 62.6375C166.687 60.5818 159.268 49.6706 157.3 48.2474C155.332 46.8242 153.666 45.0847 152.152 45.5591Z" fill="url(#paint13_radial_7811_27014)"/>
<path d="M136.406 37.8106C134.438 38.4432 130.35 42.0802 129.138 42.3965V87.9389H174.106C165.627 70.0698 152.606 56.7866 149.73 53.3077C146.853 49.8287 145.187 42.3965 143.825 42.3965C142.462 42.3965 138.374 37.1781 136.406 37.8106Z" fill="url(#paint14_linear_7811_27014)"/>
<path d="M136.406 37.8106C134.438 38.4432 130.35 42.0802 129.138 42.3965V87.9389H174.106C165.627 70.0698 152.606 56.7866 149.73 53.3077C146.853 49.8287 145.187 42.3965 143.825 42.3965C142.462 42.3965 138.374 37.1781 136.406 37.8106Z" fill="url(#paint15_linear_7811_27014)"/>
<path d="M136.406 37.8106C134.438 38.4432 130.35 42.0802 129.138 42.3965V87.9389H174.106C165.627 70.0698 152.606 56.7866 149.73 53.3077C146.853 49.8287 145.187 42.3965 143.825 42.3965C142.462 42.3965 138.374 37.1781 136.406 37.8106Z" fill="url(#paint16_radial_7811_27014)"/>
<path d="M82.5053 14.2489L75.2378 26.2671V88.4134H157.451C143.825 83.5113 131.258 41.764 129.895 34.0155C128.533 26.2669 127.624 30.6947 126.262 24.5275C125.172 19.5937 118.136 16.6735 114.755 15.8301C112.231 13.2473 106.882 7.82863 105.67 6.81666C104.156 5.5517 100.674 7.29106 97.3431 6.81666C94.0122 6.34226 94.0122 8.08173 92.1953 9.03053C90.7418 9.78957 85.1297 12.8257 82.5053 14.2489Z" fill="url(#paint17_linear_7811_27014)"/>
<path d="M82.5053 14.2489L75.2378 26.2671V88.4134H157.451C143.825 83.5113 131.258 41.764 129.895 34.0155C128.533 26.2669 127.624 30.6947 126.262 24.5275C125.172 19.5937 118.136 16.6735 114.755 15.8301C112.231 13.2473 106.882 7.82863 105.67 6.81666C104.156 5.5517 100.674 7.29106 97.3431 6.81666C94.0122 6.34226 94.0122 8.08173 92.1953 9.03053C90.7418 9.78957 85.1297 12.8257 82.5053 14.2489Z" fill="url(#paint18_linear_7811_27014)"/>
<path d="M82.5053 14.2489L75.2378 26.2671V88.4134H157.451C143.825 83.5113 131.258 41.764 129.895 34.0155C128.533 26.2669 127.624 30.6947 126.262 24.5275C125.172 19.5937 118.136 16.6735 114.755 15.8301C112.231 13.2473 106.882 7.82863 105.67 6.81666C104.156 5.5517 100.674 7.29106 97.3431 6.81666C94.0122 6.34226 94.0122 8.08173 92.1953 9.03053C90.7418 9.78957 85.1297 12.8257 82.5053 14.2489Z" fill="url(#paint19_radial_7811_27014)"/>
<path fill-rule="evenodd" clip-rule="evenodd" d="M88.2291 11.1532C81.3141 18.9427 75.9459 33.9359 80.5366 60.2656C79.8101 62.1632 101.532 67.2762 116.874 70.8605C116.261 60.5046 116.589 50.6408 116.813 43.9164C116.948 39.8593 117.045 36.945 116.874 35.7549C116.651 34.2012 114.747 34.0596 112.67 33.9051C110.519 33.7451 108.183 33.5714 107.336 31.8016C106.692 30.457 106.636 27.1755 106.574 23.5182C106.476 17.7126 106.362 10.96 103.853 9.50476C102.357 8.63648 101.374 7.6468 100.748 6.73267C99.6524 6.88102 98.4885 6.97985 97.3425 6.81663C95.0749 6.49368 94.351 7.19671 93.5467 7.97784C93.1695 8.34414 92.7747 8.72761 92.1947 9.0305C91.5241 9.3807 89.9683 10.2156 88.2291 11.1532Z" fill="url(#paint20_linear_7811_27014)"/>
<path fill-rule="evenodd" clip-rule="evenodd" d="M97.3668 6.81972C92.7463 10.8217 90.0474 13.1955 91.1354 16.4624C92.3466 20.0995 90.3782 25.476 86.7443 27.6899C83.8373 29.461 81.6974 51.1991 80.9908 61.8468H75.2378V26.2669L82.5054 14.2487C85.1298 12.8255 90.742 9.78935 92.1955 9.03031C92.7756 8.72741 93.1704 8.34394 93.5476 7.97764C94.3519 7.19652 95.0758 6.49348 97.3434 6.81644C97.3512 6.81754 97.359 6.81864 97.3668 6.81972Z" fill="url(#paint21_linear_7811_27014)"/>
<path d="M153.39 84.4763C150.919 86.0786 146.123 85.496 143.798 88.8463H229.255C228.673 87.778 227.017 85.4085 225.04 84.4763C222.569 83.311 221.697 81.2716 219.663 80.3976C217.628 79.5237 213.704 79.8149 210.071 76.9016C206.437 73.9883 198.008 73.4057 192.485 75.2994C186.962 77.193 180.713 74.8624 174.173 75.2994C167.633 75.7364 155.861 82.874 153.39 84.4763Z" fill="url(#paint22_linear_7811_27014)"/>
<path d="M153.39 84.4763C150.919 86.0786 146.123 85.496 143.798 88.8463H229.255C228.673 87.778 227.017 85.4085 225.04 84.4763C222.569 83.311 221.697 81.2716 219.663 80.3976C217.628 79.5237 213.704 79.8149 210.071 76.9016C206.437 73.9883 198.008 73.4057 192.485 75.2994C186.962 77.193 180.713 74.8624 174.173 75.2994C167.633 75.7364 155.861 82.874 153.39 84.4763Z" fill="url(#paint23_linear_7811_27014)"/>
<path d="M153.39 84.4763C150.919 86.0786 146.123 85.496 143.798 88.8463H229.255C228.673 87.778 227.017 85.4085 225.04 84.4763C222.569 83.311 221.697 81.2716 219.663 80.3976C217.628 79.5237 213.704 79.8149 210.071 76.9016C206.437 73.9883 198.008 73.4057 192.485 75.2994C186.962 77.193 180.713 74.8624 174.173 75.2994C167.633 75.7364 155.861 82.874 153.39 84.4763Z" fill="url(#paint24_radial_7811_27014)"/>
<path d="M153.39 84.4763C150.919 86.0786 146.123 85.496 143.798 88.8463H229.255C228.673 87.778 227.017 85.4085 225.04 84.4763C222.569 83.311 221.697 81.2716 219.663 80.3976C217.628 79.5237 213.704 79.8149 210.071 76.9016C206.437 73.9883 198.008 73.4057 192.485 75.2994C186.962 77.193 180.713 74.8624 174.173 75.2994C167.633 75.7364 155.861 82.874 153.39 84.4763Z" fill="url(#paint25_radial_7811_27014)"/>
<path d="M114.637 15.711C116.54 25.945 117.249 42.3741 117.826 55.7329C118.24 65.3109 118.585 73.3105 119.253 76.3167H125.158C124.079 72.0583 123.32 61.612 122.501 50.3357C121.607 38.0302 120.642 24.7361 119.109 17.4163C117.487 16.6477 115.908 16.1183 114.754 15.8306C114.716 15.7914 114.677 15.7515 114.637 15.711Z" fill="url(#paint26_linear_7811_27014)"/>
<path fill-rule="evenodd" clip-rule="evenodd" d="M120.654 18.2181C123.08 27.9275 123.885 46.5749 124.527 61.4271C124.94 71.0051 125.285 79.0048 125.954 82.011H131.859C130.779 77.7525 130.021 67.3062 129.202 56.0299C128.314 43.8171 127.357 30.6306 125.844 23.2769C124.891 21.1554 122.843 19.4671 120.654 18.2181Z" fill="url(#paint27_linear_7811_27014)"/>
<path fill-rule="evenodd" clip-rule="evenodd" d="M127.12 27.3362C129.09 37.5318 129.813 54.2636 130.398 67.8293C130.812 77.4074 131.157 85.4071 131.825 88.4134H157.451C143.824 83.5112 131.257 41.7633 129.895 34.0146C129.164 29.859 128.564 29.2056 127.954 28.5418C127.682 28.2458 127.408 27.9478 127.12 27.3362Z" fill="url(#paint28_linear_7811_27014)"/>
<path d="M62.8227 33.8519C61.4903 35.3043 54.2934 55.1538 50.8616 64.8969H102.794C101.734 61.9921 98.8573 55.5652 95.8292 53.0961C92.044 50.0098 89.773 41.1138 86.5934 38.9352C83.4139 36.7566 82.6569 32.7625 80.84 32.2179C79.0231 31.6732 77.6605 27.4976 76.1464 27.4976C74.6323 27.4976 71.907 27.1345 70.8472 27.4976C69.7873 27.8607 64.4881 32.0364 62.8227 33.8519Z" fill="url(#paint29_linear_7811_27014)"/>
<path d="M62.8227 33.8519C61.4903 35.3043 54.2934 55.1538 50.8616 64.8969H102.794C101.734 61.9921 98.8573 55.5652 95.8292 53.0961C92.044 50.0098 89.773 41.1138 86.5934 38.9352C83.4139 36.7566 82.6569 32.7625 80.84 32.2179C79.0231 31.6732 77.6605 27.4976 76.1464 27.4976C74.6323 27.4976 71.907 27.1345 70.8472 27.4976C69.7873 27.8607 64.4881 32.0364 62.8227 33.8519Z" fill="url(#paint30_linear_7811_27014)"/>
<path d="M62.8227 33.8519C61.4903 35.3043 54.2934 55.1538 50.8616 64.8969H102.794C101.734 61.9921 98.8573 55.5652 95.8292 53.0961C92.044 50.0098 89.773 41.1138 86.5934 38.9352C83.4139 36.7566 82.6569 32.7625 80.84 32.2179C79.0231 31.6732 77.6605 27.4976 76.1464 27.4976C74.6323 27.4976 71.907 27.1345 70.8472 27.4976C69.7873 27.8607 64.4881 32.0364 62.8227 33.8519Z" fill="url(#paint31_radial_7811_27014)"/>
<path fill-rule="evenodd" clip-rule="evenodd" d="M74.0124 27.3977C70.613 29.99 68.7057 32.0117 68.576 34.0335C68.5291 34.7647 68.7438 36.0361 68.9905 37.4969C69.5399 40.7509 70.248 44.9443 68.576 46.1973C66.4043 47.8249 59.9735 56.4563 58.3383 64.8969H50.8616C54.2934 55.1538 61.4903 35.3043 62.8227 33.8519C64.4881 32.0364 69.7874 27.8607 70.8472 27.4976C71.4971 27.275 72.7733 27.3254 74.0124 27.3977Z" fill="url(#paint32_linear_7811_27014)"/>
<path d="M54.0705 63.2485C47.7458 61.7273 41.5557 68.1629 35.7693 72.8433V88.9907H144.231C140.732 85.5584 132.335 78.3896 126.737 77.1727C119.74 75.6516 114.357 69.9181 107.628 65.8227C100.9 61.7274 90.6729 64.0676 86.5013 63.9506C82.3297 63.8336 77.4853 60.5572 74.9285 61.7273C72.3717 62.8974 70.4877 61.0253 67.7964 61.1423C65.105 61.2593 60.3952 64.7696 54.0705 63.2485Z" fill="url(#paint33_linear_7811_27014)"/>
<path d="M54.0705 63.2485C47.7458 61.7273 41.5557 68.1629 35.7693 72.8433V88.9907H144.231C140.732 85.5584 132.335 78.3896 126.737 77.1727C119.74 75.6516 114.357 69.9181 107.628 65.8227C100.9 61.7274 90.6729 64.0676 86.5013 63.9506C82.3297 63.8336 77.4853 60.5572 74.9285 61.7273C72.3717 62.8974 70.4877 61.0253 67.7964 61.1423C65.105 61.2593 60.3952 64.7696 54.0705 63.2485Z" fill="url(#paint34_radial_7811_27014)"/>
<path d="M54.0705 63.2485C47.7458 61.7273 41.5557 68.1629 35.7693 72.8433V88.9907H144.231C140.732 85.5584 132.335 78.3896 126.737 77.1727C119.74 75.6516 114.357 69.9181 107.628 65.8227C100.9 61.7274 90.6729 64.0676 86.5013 63.9506C82.3297 63.8336 77.4853 60.5572 74.9285 61.7273C72.3717 62.8974 70.4877 61.0253 67.7964 61.1423C65.105 61.2593 60.3952 64.7696 54.0705 63.2485Z" fill="url(#paint35_linear_7811_27014)"/>
<path d="M54.0705 63.2485C47.7458 61.7273 41.5557 68.1629 35.7693 72.8433V88.9907H144.231C140.732 85.5584 132.335 78.3896 126.737 77.1727C119.74 75.6516 114.357 69.9181 107.628 65.8227C100.9 61.7274 90.6729 64.0676 86.5013 63.9506C82.3297 63.8336 77.4853 60.5572 74.9285 61.7273C72.3717 62.8974 70.4877 61.0253 67.7964 61.1423C65.105 61.2593 60.3952 64.7696 54.0705 63.2485Z" fill="url(#paint36_radial_7811_27014)"/>
<path d="M62.2637 72.2443C58.9934 72.8217 51.3083 75.9399 49.1826 77.7877V88.9902H110.336C107.884 86.334 98.2365 84.0242 93.3311 82.9848C88.4257 81.9454 86.1365 77.7877 81.3947 77.2103C76.6528 76.6328 65.5339 71.6668 62.2637 72.2443Z" fill="url(#paint37_linear_7811_27014)"/>
<path d="M62.2637 72.2443C58.9934 72.8217 51.3083 75.9399 49.1826 77.7877V88.9902H110.336C107.884 86.334 98.2365 84.0242 93.3311 82.9848C88.4257 81.9454 86.1365 77.7877 81.3947 77.2103C76.6528 76.6328 65.5339 71.6668 62.2637 72.2443Z" fill="url(#paint38_radial_7811_27014)"/>
<path d="M62.2637 72.2443C58.9934 72.8217 51.3083 75.9399 49.1826 77.7877V88.9902H110.336C107.884 86.334 98.2365 84.0242 93.3311 82.9848C88.4257 81.9454 86.1365 77.7877 81.3947 77.2103C76.6528 76.6328 65.5339 71.6668 62.2637 72.2443Z" fill="url(#paint39_linear_7811_27014)"/>
<path d="M62.2637 72.2443C58.9934 72.8217 51.3083 75.9399 49.1826 77.7877V88.9902H110.336C107.884 86.334 98.2365 84.0242 93.3311 82.9848C88.4257 81.9454 86.1365 77.7877 81.3947 77.2103C76.6528 76.6328 65.5339 71.6668 62.2637 72.2443Z" fill="url(#paint40_radial_7811_27014)"/>
<path d="M18.0339 79.1511C14.9449 81.674 10.5689 84.4492 8.50952 88.9905H65.9134C64.3689 88.9905 59.2205 83.4401 56.9038 81.9263C54.5871 80.4126 50.9832 75.619 46.6071 73.0961C42.2311 70.5731 32.9641 71.0777 27.5583 71.8346C22.1526 72.5915 21.1229 76.6281 18.0339 79.1511Z" fill="url(#paint41_linear_7811_27014)"/>
<path d="M18.0339 79.1511C14.9449 81.674 10.5689 84.4492 8.50952 88.9905H65.9134C64.3689 88.9905 59.2205 83.4401 56.9038 81.9263C54.5871 80.4126 50.9832 75.619 46.6071 73.0961C42.2311 70.5731 32.9641 71.0777 27.5583 71.8346C22.1526 72.5915 21.1229 76.6281 18.0339 79.1511Z" fill="url(#paint42_radial_7811_27014)"/>
<path d="M18.0339 79.1511C14.9449 81.674 10.5689 84.4492 8.50952 88.9905H65.9134C64.3689 88.9905 59.2205 83.4401 56.9038 81.9263C54.5871 80.4126 50.9832 75.619 46.6071 73.0961C42.2311 70.5731 32.9641 71.0777 27.5583 71.8346C22.1526 72.5915 21.1229 76.6281 18.0339 79.1511Z" fill="url(#paint43_radial_7811_27014)"/>
<path d="M18.0339 79.1511C14.9449 81.674 10.5689 84.4492 8.50952 88.9905H65.9134C64.3689 88.9905 59.2205 83.4401 56.9038 81.9263C54.5871 80.4126 50.9832 75.619 46.6071 73.0961C42.2311 70.5731 32.9641 71.0777 27.5583 71.8346C22.1526 72.5915 21.1229 76.6281 18.0339 79.1511Z" fill="url(#paint44_linear_7811_27014)"/>
<path d="M190.143 78.2971C195.073 83.2465 200.798 82.4527 216.016 82.6058L216.272 80.7512C207.721 78.4309 195.328 75.5997 190.143 78.2971Z" fill="url(#paint45_radial_7811_27014)"/>
<path fill-rule="evenodd" clip-rule="evenodd" d="M211.562 53.5839C212.396 53.127 214.303 51.3548 215.257 47.9218L215.261 47.9341L215.264 47.9218C215.947 50.3805 217.313 51.6497 217.911 51.977C217.634 52.237 217.381 52.3702 217.153 52.4134C217.353 52.5472 217.554 52.667 217.751 52.7843C218.616 53.2996 219.4 53.7668 219.675 55.1644C220.203 57.8455 218.231 56.4348 218.294 54.7988C217.482 56.18 216.507 54.7988 216.71 53.8645C216.589 54.0635 216.443 54.1778 216.292 54.2178L216.293 54.2786C217.131 55.8919 218.321 56.8694 219.401 57.7561C220.594 58.7354 221.652 59.6039 221.95 61.0953C222.437 63.5327 220.718 61.3526 219.797 59.9579C219.418 60.6214 218.481 61.5015 217.766 59.7141C217.675 59.9479 217.573 60.1176 217.466 60.2332C218.4 61.6446 219.447 62.4469 220.391 63.1709C221.63 64.1208 222.693 64.936 223.097 66.8152C223.93 70.6872 220.419 69.289 220.836 67.6219C220.644 67.9336 220.411 68.104 220.167 68.1603C220.315 68.8219 220.253 69.3374 219.988 69.39C219.197 69.5465 218.83 68.2854 218.83 68.2854C218.83 68.7318 218.819 69.1461 218.785 69.5213C219.416 70.1203 220.062 70.6511 220.683 71.1614C222.441 72.6047 224 73.8846 224.44 76.0828C225.158 79.675 222.623 76.4619 221.266 74.4064C220.708 75.3843 219.327 76.6814 218.273 74.0472C217.908 74.9818 217.472 75.3621 217.064 75.346C217.315 78.8176 217.633 81.3795 218.028 82.046C216.086 83.3902 214.294 82.6061 213.641 82.046C214.069 80.5566 214.369 78.1788 214.574 75.3461C214.096 75.3326 213.603 74.9465 213.252 74.0472C212.657 76.0828 210.258 75.3799 210.258 74.4064C209.759 76.5389 206.531 77.9402 206.97 75.7421C207.338 73.9061 208.565 72.9484 209.984 71.8416C210.264 71.6233 210.551 71.3992 210.841 71.1614C211.711 70.4475 212.629 69.6936 213.484 68.7688L213.465 68.7588C212.785 68.399 213.33 66.3984 214.94 65.4589L214.946 64.9226C214.508 65.9096 213.65 66.1903 213.119 65.3171C213.406 66.6387 212.027 68.5924 210.878 66.6387C210.967 68.9528 208.177 70.9483 208.924 67.1558C209.314 65.1789 210.423 64.5181 211.646 63.7891C212.101 63.5181 212.571 63.2377 213.027 62.8767C212.887 62.4269 212.85 61.8321 212.85 61.136C212.85 61.136 212.567 62.1099 211.957 61.9891C211.607 61.92 211.715 60.8148 212.301 59.8806C212.16 59.8226 212.028 59.6993 211.916 59.4978C212.2 60.7571 209.803 61.8133 210.372 58.8885C210.648 57.469 211.374 56.8532 212.22 56.1356C213.061 55.4217 214.021 54.607 214.776 52.7996C214.675 52.7915 214.576 52.7545 214.482 52.6899C214.164 53.6038 213.135 55.062 211.562 53.5839Z" fill="url(#paint46_radial_7811_27014)"/>
<path fill-rule="evenodd" clip-rule="evenodd" d="M211.562 53.5839C212.396 53.127 214.303 51.3548 215.257 47.9218L215.261 47.9341L215.264 47.9218C215.947 50.3805 217.313 51.6497 217.911 51.977C217.634 52.237 217.381 52.3702 217.153 52.4134C217.353 52.5472 217.554 52.667 217.751 52.7843C218.616 53.2996 219.4 53.7668 219.675 55.1644C220.203 57.8455 218.231 56.4348 218.294 54.7988C217.482 56.18 216.507 54.7988 216.71 53.8645C216.589 54.0635 216.443 54.1778 216.292 54.2178L216.293 54.2786C217.131 55.8919 218.321 56.8694 219.401 57.7561C220.594 58.7354 221.652 59.6039 221.95 61.0953C222.437 63.5327 220.718 61.3526 219.797 59.9579C219.418 60.6214 218.481 61.5015 217.766 59.7141C217.675 59.9479 217.573 60.1176 217.466 60.2332C218.4 61.6446 219.447 62.4469 220.391 63.1709C221.63 64.1208 222.693 64.936 223.097 66.8152C223.93 70.6872 220.419 69.289 220.836 67.6219C220.644 67.9336 220.411 68.104 220.167 68.1603C220.315 68.8219 220.253 69.3374 219.988 69.39C219.197 69.5465 218.83 68.2854 218.83 68.2854C218.83 68.7318 218.819 69.1461 218.785 69.5213C219.416 70.1203 220.062 70.6511 220.683 71.1614C222.441 72.6047 224 73.8846 224.44 76.0828C225.158 79.675 222.623 76.4619 221.266 74.4064C220.708 75.3843 219.327 76.6814 218.273 74.0472C217.908 74.9818 217.472 75.3621 217.064 75.346C217.315 78.8176 217.633 81.3795 218.028 82.046C216.086 83.3902 214.294 82.6061 213.641 82.046C214.069 80.5566 214.369 78.1788 214.574 75.3461C214.096 75.3326 213.603 74.9465 213.252 74.0472C212.657 76.0828 210.258 75.3799 210.258 74.4064C209.759 76.5389 206.531 77.9402 206.97 75.7421C207.338 73.9061 208.565 72.9484 209.984 71.8416C210.264 71.6233 210.551 71.3992 210.841 71.1614C211.711 70.4475 212.629 69.6936 213.484 68.7688L213.465 68.7588C212.785 68.399 213.33 66.3984 214.94 65.4589L214.946 64.9226C214.508 65.9096 213.65 66.1903 213.119 65.3171C213.406 66.6387 212.027 68.5924 210.878 66.6387C210.967 68.9528 208.177 70.9483 208.924 67.1558C209.314 65.1789 210.423 64.5181 211.646 63.7891C212.101 63.5181 212.571 63.2377 213.027 62.8767C212.887 62.4269 212.85 61.8321 212.85 61.136C212.85 61.136 212.567 62.1099 211.957 61.9891C211.607 61.92 211.715 60.8148 212.301 59.8806C212.16 59.8226 212.028 59.6993 211.916 59.4978C212.2 60.7571 209.803 61.8133 210.372 58.8885C210.648 57.469 211.374 56.8532 212.22 56.1356C213.061 55.4217 214.021 54.607 214.776 52.7996C214.675 52.7915 214.576 52.7545 214.482 52.6899C214.164 53.6038 213.135 55.062 211.562 53.5839Z" fill="url(#paint47_radial_7811_27014)"/>
<path fill-rule="evenodd" clip-rule="evenodd" d="M211.562 53.5839C212.396 53.127 214.303 51.3548 215.257 47.9218L215.261 47.9341L215.264 47.9218C215.947 50.3805 217.313 51.6497 217.911 51.977C217.634 52.237 217.381 52.3702 217.153 52.4134C217.353 52.5472 217.554 52.667 217.751 52.7843C218.616 53.2996 219.4 53.7668 219.675 55.1644C220.203 57.8455 218.231 56.4348 218.294 54.7988C217.482 56.18 216.507 54.7988 216.71 53.8645C216.589 54.0635 216.443 54.1778 216.292 54.2178L216.293 54.2786C217.131 55.8919 218.321 56.8694 219.401 57.7561C220.594 58.7354 221.652 59.6039 221.95 61.0953C222.437 63.5327 220.718 61.3526 219.797 59.9579C219.418 60.6214 218.481 61.5015 217.766 59.7141C217.675 59.9479 217.573 60.1176 217.466 60.2332C218.4 61.6446 219.447 62.4469 220.391 63.1709C221.63 64.1208 222.693 64.936 223.097 66.8152C223.93 70.6872 220.419 69.289 220.836 67.6219C220.644 67.9336 220.411 68.104 220.167 68.1603C220.315 68.8219 220.253 69.3374 219.988 69.39C219.197 69.5465 218.83 68.2854 218.83 68.2854C218.83 68.7318 218.819 69.1461 218.785 69.5213C219.416 70.1203 220.062 70.6511 220.683 71.1614C222.441 72.6047 224 73.8846 224.44 76.0828C225.158 79.675 222.623 76.4619 221.266 74.4064C220.708 75.3843 219.327 76.6814 218.273 74.0472C217.908 74.9818 217.472 75.3621 217.064 75.346C217.315 78.8176 217.633 81.3795 218.028 82.046C216.086 83.3902 214.294 82.6061 213.641 82.046C214.069 80.5566 214.369 78.1788 214.574 75.3461C214.096 75.3326 213.603 74.9465 213.252 74.0472C212.657 76.0828 210.258 75.3799 210.258 74.4064C209.759 76.5389 206.531 77.9402 206.97 75.7421C207.338 73.9061 208.565 72.9484 209.984 71.8416C210.264 71.6233 210.551 71.3992 210.841 71.1614C211.711 70.4475 212.629 69.6936 213.484 68.7688L213.465 68.7588C212.785 68.399 213.33 66.3984 214.94 65.4589L214.946 64.9226C214.508 65.9096 213.65 66.1903 213.119 65.3171C213.406 66.6387 212.027 68.5924 210.878 66.6387C210.967 68.9528 208.177 70.9483 208.924 67.1558C209.314 65.1789 210.423 64.5181 211.646 63.7891C212.101 63.5181 212.571 63.2377 213.027 62.8767C212.887 62.4269 212.85 61.8321 212.85 61.136C212.85 61.136 212.567 62.1099 211.957 61.9891C211.607 61.92 211.715 60.8148 212.301 59.8806C212.16 59.8226 212.028 59.6993 211.916 59.4978C212.2 60.7571 209.803 61.8133 210.372 58.8885C210.648 57.469 211.374 56.8532 212.22 56.1356C213.061 55.4217 214.021 54.607 214.776 52.7996C214.675 52.7915 214.576 52.7545 214.482 52.6899C214.164 53.6038 213.135 55.062 211.562 53.5839Z" fill="url(#paint48_radial_7811_27014)"/>
<path fill-rule="evenodd" clip-rule="evenodd" d="M30.2563 71.5627C29.4674 71.6454 28.7227 71.738 28.0404 71.8348C25.1409 72.2459 23.5164 73.6247 22.1484 75.203C24.8978 75.9454 28.4828 75.867 33.7642 75.7516C35.257 75.719 36.8854 75.6834 38.6688 75.6625L38.9305 73.8087C36.3209 73.023 33.2797 72.179 30.2563 71.5627Z" fill="url(#paint49_radial_7811_27014)"/>
<path d="M178.453 78.3247C182.48 83.1493 187.302 82.2307 200.07 82.0451L200.326 80.1905C193.202 78.0674 182.864 75.5203 178.453 78.3247Z" fill="url(#paint50_radial_7811_27014)"/>
<path d="M199.293 59.2749C198.524 62.0438 196.985 63.4731 196.312 63.8417C197.581 65.0339 198.411 63.8577 198.668 63.1206C198.698 63.1415 198.729 63.1589 198.761 63.1725C198.177 64.4076 197.469 65.0082 196.843 65.5396C196.161 66.1183 195.575 66.615 195.353 67.7599C194.894 70.1189 196.827 69.267 196.598 68.2513C197.089 69.1359 198.072 68.153 197.908 66.9735C198.4 67.9237 199.317 66.6459 198.727 65.4991C198.835 65.6151 198.936 65.6801 199.032 65.7038C199.039 66.1946 199.045 66.6996 199.049 67.2146C198.343 68.5924 197.377 69.1679 196.484 69.7003C195.453 70.3147 194.518 70.8717 194.19 72.5379C193.56 75.7344 195.912 74.0525 195.836 72.1021C196.152 72.6379 196.487 72.825 196.788 72.7952C196.813 72.8766 196.842 72.9547 196.873 73.0289C196.491 73.3705 196.105 73.6868 195.731 73.994C195.498 74.1858 195.266 74.3665 195.04 74.5426C193.896 75.4353 192.905 76.2077 192.609 77.6886C192.255 79.4615 194.858 78.3312 195.261 76.6112C195.261 77.3964 197.195 77.9633 197.675 76.3215C197.955 77.0369 198.346 77.3495 198.726 77.3685C198.561 79.1251 198.324 80.5974 197.989 81.5307C198.516 81.8932 199.961 82.4007 201.527 81.5307C201.217 81.1106 200.966 79.5271 200.766 77.3694C201.091 77.372 201.436 77.0631 201.725 76.3215C202.575 78.4462 203.689 77.3999 204.14 76.6112C205.234 78.2691 207.279 80.8606 206.699 77.9633C206.344 76.1904 205.087 75.1581 203.67 73.994C203.496 73.8516 203.32 73.7072 203.143 73.5593C203.405 73.5806 203.664 73.4538 203.865 73.1271C203.541 74.4214 206.267 75.5069 205.62 72.5008C205.306 71.0418 204.481 70.4089 203.519 69.6714C203.246 69.4619 202.961 69.2438 202.675 68.996C202.787 68.8817 202.883 68.7473 202.954 68.6224C203.697 69.7473 205.084 71.5057 204.691 69.5398C204.45 68.3369 203.597 67.6365 202.635 66.8466C202.116 66.4202 201.565 65.9678 201.061 65.3962C201.274 65.4361 201.516 65.3171 201.742 64.9325C201.691 66.252 203.282 67.3898 202.856 65.2274C202.634 64.1001 202.002 63.7233 201.304 63.3077C201.099 63.1854 200.888 63.0597 200.681 62.9106C200.899 62.9124 201.151 62.8108 201.433 62.5456C200.951 62.2817 199.85 61.258 199.299 59.2749L199.296 59.2852L199.293 59.2749Z" fill="url(#paint51_radial_7811_27014)"/>
<path d="M199.293 59.2749C198.524 62.0438 196.985 63.4731 196.312 63.8417C197.581 65.0339 198.411 63.8577 198.668 63.1206C198.698 63.1415 198.729 63.1589 198.761 63.1725C198.177 64.4076 197.469 65.0082 196.843 65.5396C196.161 66.1183 195.575 66.615 195.353 67.7599C194.894 70.1189 196.827 69.267 196.598 68.2513C197.089 69.1359 198.072 68.153 197.908 66.9735C198.4 67.9237 199.317 66.6459 198.727 65.4991C198.835 65.6151 198.936 65.6801 199.032 65.7038C199.039 66.1946 199.045 66.6996 199.049 67.2146C198.343 68.5924 197.377 69.1679 196.484 69.7003C195.453 70.3147 194.518 70.8717 194.19 72.5379C193.56 75.7344 195.912 74.0525 195.836 72.1021C196.152 72.6379 196.487 72.825 196.788 72.7952C196.813 72.8766 196.842 72.9547 196.873 73.0289C196.491 73.3705 196.105 73.6868 195.731 73.994C195.498 74.1858 195.266 74.3665 195.04 74.5426C193.896 75.4353 192.905 76.2077 192.609 77.6886C192.255 79.4615 194.858 78.3312 195.261 76.6112C195.261 77.3964 197.195 77.9633 197.675 76.3215C197.955 77.0369 198.346 77.3495 198.726 77.3685C198.561 79.1251 198.324 80.5974 197.989 81.5307C198.516 81.8932 199.961 82.4007 201.527 81.5307C201.217 81.1106 200.966 79.5271 200.766 77.3694C201.091 77.372 201.436 77.0631 201.725 76.3215C202.575 78.4462 203.689 77.3999 204.14 76.6112C205.234 78.2691 207.279 80.8606 206.699 77.9633C206.344 76.1904 205.087 75.1581 203.67 73.994C203.496 73.8516 203.32 73.7072 203.143 73.5593C203.405 73.5806 203.664 73.4538 203.865 73.1271C203.541 74.4214 206.267 75.5069 205.62 72.5008C205.306 71.0418 204.481 70.4089 203.519 69.6714C203.246 69.4619 202.961 69.2438 202.675 68.996C202.787 68.8817 202.883 68.7473 202.954 68.6224C203.697 69.7473 205.084 71.5057 204.691 69.5398C204.45 68.3369 203.597 67.6365 202.635 66.8466C202.116 66.4202 201.565 65.9678 201.061 65.3962C201.274 65.4361 201.516 65.3171 201.742 64.9325C201.691 66.252 203.282 67.3898 202.856 65.2274C202.634 64.1001 202.002 63.7233 201.304 63.3077C201.099 63.1854 200.888 63.0597 200.681 62.9106C200.899 62.9124 201.151 62.8108 201.433 62.5456C200.951 62.2817 199.85 61.258 199.299 59.2749L199.296 59.2852L199.293 59.2749Z" fill="url(#paint52_radial_7811_27014)"/>
<path d="M199.293 59.2749C198.524 62.0438 196.985 63.4731 196.312 63.8417C197.581 65.0339 198.411 63.8577 198.668 63.1206C198.698 63.1415 198.729 63.1589 198.761 63.1725C198.177 64.4076 197.469 65.0082 196.843 65.5396C196.161 66.1183 195.575 66.615 195.353 67.7599C194.894 70.1189 196.827 69.267 196.598 68.2513C197.089 69.1359 198.072 68.153 197.908 66.9735C198.4 67.9237 199.317 66.6459 198.727 65.4991C198.835 65.6151 198.936 65.6801 199.032 65.7038C199.039 66.1946 199.045 66.6996 199.049 67.2146C198.343 68.5924 197.377 69.1679 196.484 69.7003C195.453 70.3147 194.518 70.8717 194.19 72.5379C193.56 75.7344 195.912 74.0525 195.836 72.1021C196.152 72.6379 196.487 72.825 196.788 72.7952C196.813 72.8766 196.842 72.9547 196.873 73.0289C196.491 73.3705 196.105 73.6868 195.731 73.994C195.498 74.1858 195.266 74.3665 195.04 74.5426C193.896 75.4353 192.905 76.2077 192.609 77.6886C192.255 79.4615 194.858 78.3312 195.261 76.6112C195.261 77.3964 197.195 77.9633 197.675 76.3215C197.955 77.0369 198.346 77.3495 198.726 77.3685C198.561 79.1251 198.324 80.5974 197.989 81.5307C198.516 81.8932 199.961 82.4007 201.527 81.5307C201.217 81.1106 200.966 79.5271 200.766 77.3694C201.091 77.372 201.436 77.0631 201.725 76.3215C202.575 78.4462 203.689 77.3999 204.14 76.6112C205.234 78.2691 207.279 80.8606 206.699 77.9633C206.344 76.1904 205.087 75.1581 203.67 73.994C203.496 73.8516 203.32 73.7072 203.143 73.5593C203.405 73.5806 203.664 73.4538 203.865 73.1271C203.541 74.4214 206.267 75.5069 205.62 72.5008C205.306 71.0418 204.481 70.4089 203.519 69.6714C203.246 69.4619 202.961 69.2438 202.675 68.996C202.787 68.8817 202.883 68.7473 202.954 68.6224C203.697 69.7473 205.084 71.5057 204.691 69.5398C204.45 68.3369 203.597 67.6365 202.635 66.8466C202.116 66.4202 201.565 65.9678 201.061 65.3962C201.274 65.4361 201.516 65.3171 201.742 64.9325C201.691 66.252 203.282 67.3898 202.856 65.2274C202.634 64.1001 202.002 63.7233 201.304 63.3077C201.099 63.1854 200.888 63.0597 200.681 62.9106C200.899 62.9124 201.151 62.8108 201.433 62.5456C200.951 62.2817 199.85 61.258 199.299 59.2749L199.296 59.2852L199.293 59.2749Z" fill="url(#paint53_radial_7811_27014)"/>
<path fill-rule="evenodd" clip-rule="evenodd" d="M33.9551 46.6101C34.7895 46.1531 36.6968 44.381 37.6504 40.948L37.6541 40.9603L37.6578 40.948C38.3407 43.4067 39.7067 44.6759 40.3043 45.0032C40.0275 45.2632 39.7743 45.3963 39.5463 45.4396C39.7465 45.5734 39.9475 45.6932 40.1443 45.8105C41.0092 46.3258 41.7932 46.793 42.0684 48.1906C42.5966 50.8717 40.624 49.4609 40.6873 47.825C39.8749 49.2062 38.8999 47.825 39.103 46.8907C38.9819 47.0897 38.8368 47.2039 38.6854 47.244L38.6864 47.3048C39.5242 48.918 40.7148 49.8956 41.7947 50.7823C42.9873 51.7616 44.045 52.63 44.3433 54.1215C44.8307 56.5589 43.111 54.3788 42.1902 52.9841C41.8111 53.6476 40.8741 54.5277 40.1591 52.7403C40.0679 52.9741 39.9663 53.1438 39.859 53.2594C40.7936 54.6708 41.8399 55.4731 42.7841 56.1971C44.0229 57.147 45.086 57.9622 45.4903 59.8414C46.3234 63.7134 42.8124 62.3152 43.2289 60.6481C43.0373 60.9598 42.8046 61.1302 42.5602 61.1865C42.7083 61.8481 42.6466 62.3636 42.3811 62.4162C41.5902 62.5727 41.2237 61.3115 41.2237 61.3115C41.2237 61.758 41.212 62.1723 41.1782 62.5475C41.8088 63.1465 42.4552 63.6773 43.0768 64.1876C44.8345 65.6309 46.3933 66.9108 46.8329 69.1089C47.5513 72.7011 45.0168 69.4881 43.6597 67.4326C43.1009 68.4104 41.7199 69.7076 40.6662 67.0734C40.3015 68.008 39.8652 68.3883 39.457 68.3721C39.7084 71.8438 40.0258 74.4057 40.4209 75.0722C38.4793 76.4164 36.6872 75.6323 36.0338 75.0722C36.4623 73.5828 36.7626 71.2049 36.9674 68.3723C36.4896 68.3587 35.9959 67.9727 35.645 67.0734C35.0499 69.1089 32.6515 68.4061 32.6515 67.4326C32.1525 69.5651 28.9241 70.9664 29.3638 68.7683C29.731 66.9323 30.9588 65.9746 32.3776 64.8678C32.6575 64.6495 32.9448 64.4254 33.2344 64.1876C34.1039 63.4737 35.022 62.7198 35.8775 61.795L35.858 61.7849C35.1784 61.4251 35.7233 59.4246 37.3332 58.4851L37.3392 57.9488C36.9013 58.9358 36.0438 59.2165 35.5122 58.3433C35.7996 59.6649 34.4205 61.6186 33.2712 59.6649C33.3607 61.9789 30.5706 63.9745 31.3176 60.182C31.707 58.2051 32.816 57.5442 34.0393 56.8153C34.4941 56.5443 34.9646 56.2639 35.4199 55.9029C35.2805 55.4531 35.2437 54.8583 35.2437 54.1622C35.2437 54.1622 34.9606 55.1361 34.3499 55.0153C34.0008 54.9462 34.1079 53.841 34.6941 52.9068C34.5536 52.8488 34.4211 52.7254 34.3092 52.524C34.5936 53.7833 32.1967 54.8395 32.7654 51.9146C33.0414 50.4951 33.7672 49.8794 34.6129 49.1618C35.4544 48.4479 36.4146 47.6332 37.1689 45.8258C37.0683 45.8177 36.9689 45.7807 36.8755 45.7161C36.5577 46.63 35.5286 48.0882 33.9551 46.6101Z" fill="url(#paint54_radial_7811_27014)"/>
<path fill-rule="evenodd" clip-rule="evenodd" d="M33.9551 46.6101C34.7895 46.1531 36.6968 44.381 37.6504 40.948L37.6541 40.9603L37.6578 40.948C38.3407 43.4067 39.7067 44.6759 40.3043 45.0032C40.0275 45.2632 39.7743 45.3963 39.5463 45.4396C39.7465 45.5734 39.9475 45.6932 40.1443 45.8105C41.0092 46.3258 41.7932 46.793 42.0684 48.1906C42.5966 50.8717 40.624 49.4609 40.6873 47.825C39.8749 49.2062 38.8999 47.825 39.103 46.8907C38.9819 47.0897 38.8368 47.2039 38.6854 47.244L38.6864 47.3048C39.5242 48.918 40.7148 49.8956 41.7947 50.7823C42.9873 51.7616 44.045 52.63 44.3433 54.1215C44.8307 56.5589 43.111 54.3788 42.1902 52.9841C41.8111 53.6476 40.8741 54.5277 40.1591 52.7403C40.0679 52.9741 39.9663 53.1438 39.859 53.2594C40.7936 54.6708 41.8399 55.4731 42.7841 56.1971C44.0229 57.147 45.086 57.9622 45.4903 59.8414C46.3234 63.7134 42.8124 62.3152 43.2289 60.6481C43.0373 60.9598 42.8046 61.1302 42.5602 61.1865C42.7083 61.8481 42.6466 62.3636 42.3811 62.4162C41.5902 62.5727 41.2237 61.3115 41.2237 61.3115C41.2237 61.758 41.212 62.1723 41.1782 62.5475C41.8088 63.1465 42.4552 63.6773 43.0768 64.1876C44.8345 65.6309 46.3933 66.9108 46.8329 69.1089C47.5513 72.7011 45.0168 69.4881 43.6597 67.4326C43.1009 68.4104 41.7199 69.7076 40.6662 67.0734C40.3015 68.008 39.8652 68.3883 39.457 68.3721C39.7084 71.8438 40.0258 74.4057 40.4209 75.0722C38.4793 76.4164 36.6872 75.6323 36.0338 75.0722C36.4623 73.5828 36.7626 71.2049 36.9674 68.3723C36.4896 68.3587 35.9959 67.9727 35.645 67.0734C35.0499 69.1089 32.6515 68.4061 32.6515 67.4326C32.1525 69.5651 28.9241 70.9664 29.3638 68.7683C29.731 66.9323 30.9588 65.9746 32.3776 64.8678C32.6575 64.6495 32.9448 64.4254 33.2344 64.1876C34.1039 63.4737 35.022 62.7198 35.8775 61.795L35.858 61.7849C35.1784 61.4251 35.7233 59.4246 37.3332 58.4851L37.3392 57.9488C36.9013 58.9358 36.0438 59.2165 35.5122 58.3433C35.7996 59.6649 34.4205 61.6186 33.2712 59.6649C33.3607 61.9789 30.5706 63.9745 31.3176 60.182C31.707 58.2051 32.816 57.5442 34.0393 56.8153C34.4941 56.5443 34.9646 56.2639 35.4199 55.9029C35.2805 55.4531 35.2437 54.8583 35.2437 54.1622C35.2437 54.1622 34.9606 55.1361 34.3499 55.0153C34.0008 54.9462 34.1079 53.841 34.6941 52.9068C34.5536 52.8488 34.4211 52.7254 34.3092 52.524C34.5936 53.7833 32.1967 54.8395 32.7654 51.9146C33.0414 50.4951 33.7672 49.8794 34.6129 49.1618C35.4544 48.4479 36.4146 47.6332 37.1689 45.8258C37.0683 45.8177 36.9689 45.7807 36.8755 45.7161C36.5577 46.63 35.5286 48.0882 33.9551 46.6101Z" fill="url(#paint55_radial_7811_27014)"/>
<path fill-rule="evenodd" clip-rule="evenodd" d="M33.9551 46.6101C34.7895 46.1531 36.6968 44.381 37.6504 40.948L37.6541 40.9603L37.6578 40.948C38.3407 43.4067 39.7067 44.6759 40.3043 45.0032C40.0275 45.2632 39.7743 45.3963 39.5463 45.4396C39.7465 45.5734 39.9475 45.6932 40.1443 45.8105C41.0092 46.3258 41.7932 46.793 42.0684 48.1906C42.5966 50.8717 40.624 49.4609 40.6873 47.825C39.8749 49.2062 38.8999 47.825 39.103 46.8907C38.9819 47.0897 38.8368 47.2039 38.6854 47.244L38.6864 47.3048C39.5242 48.918 40.7148 49.8956 41.7947 50.7823C42.9873 51.7616 44.045 52.63 44.3433 54.1215C44.8307 56.5589 43.111 54.3788 42.1902 52.9841C41.8111 53.6476 40.8741 54.5277 40.1591 52.7403C40.0679 52.9741 39.9663 53.1438 39.859 53.2594C40.7936 54.6708 41.8399 55.4731 42.7841 56.1971C44.0229 57.147 45.086 57.9622 45.4903 59.8414C46.3234 63.7134 42.8124 62.3152 43.2289 60.6481C43.0373 60.9598 42.8046 61.1302 42.5602 61.1865C42.7083 61.8481 42.6466 62.3636 42.3811 62.4162C41.5902 62.5727 41.2237 61.3115 41.2237 61.3115C41.2237 61.758 41.212 62.1723 41.1782 62.5475C41.8088 63.1465 42.4552 63.6773 43.0768 64.1876C44.8345 65.6309 46.3933 66.9108 46.8329 69.1089C47.5513 72.7011 45.0168 69.4881 43.6597 67.4326C43.1009 68.4104 41.7199 69.7076 40.6662 67.0734C40.3015 68.008 39.8652 68.3883 39.457 68.3721C39.7084 71.8438 40.0258 74.4057 40.4209 75.0722C38.4793 76.4164 36.6872 75.6323 36.0338 75.0722C36.4623 73.5828 36.7626 71.2049 36.9674 68.3723C36.4896 68.3587 35.9959 67.9727 35.645 67.0734C35.0499 69.1089 32.6515 68.4061 32.6515 67.4326C32.1525 69.5651 28.9241 70.9664 29.3638 68.7683C29.731 66.9323 30.9588 65.9746 32.3776 64.8678C32.6575 64.6495 32.9448 64.4254 33.2344 64.1876C34.1039 63.4737 35.022 62.7198 35.8775 61.795L35.858 61.7849C35.1784 61.4251 35.7233 59.4246 37.3332 58.4851L37.3392 57.9488C36.9013 58.9358 36.0438 59.2165 35.5122 58.3433C35.7996 59.6649 34.4205 61.6186 33.2712 59.6649C33.3607 61.9789 30.5706 63.9745 31.3176 60.182C31.707 58.2051 32.816 57.5442 34.0393 56.8153C34.4941 56.5443 34.9646 56.2639 35.4199 55.9029C35.2805 55.4531 35.2437 54.8583 35.2437 54.1622C35.2437 54.1622 34.9606 55.1361 34.3499 55.0153C34.0008 54.9462 34.1079 53.841 34.6941 52.9068C34.5536 52.8488 34.4211 52.7254 34.3092 52.524C34.5936 53.7833 32.1967 54.8395 32.7654 51.9146C33.0414 50.4951 33.7672 49.8794 34.6129 49.1618C35.4544 48.4479 36.4146 47.6332 37.1689 45.8258C37.0683 45.8177 36.9689 45.7807 36.8755 45.7161C36.5577 46.63 35.5286 48.0882 33.9551 46.6101Z" fill="url(#paint56_radial_7811_27014)"/>
<defs>
<radialGradient id="paint0_radial_7811_27014" cx="0" cy="0" r="1" gradientUnits="userSpaceOnUse" gradientTransform="translate(113.55 87.7716) rotate(-180) scale(131.326 43.6961)">
<stop stop-color="#A4D791"/>
<stop offset="0.5" stop-color="#7CB0DC"/>
<stop offset="1" stop-color="#9A9AE5"/>
</radialGradient>
<radialGradient id="paint1_radial_7811_27014" cx="0" cy="0" r="1" gradientUnits="userSpaceOnUse" gradientTransform="translate(210.288 94.8784) rotate(169.416) scale(42.4864 12.3877)">
<stop stop-color="#FFC7A3"/>
<stop offset="1" stop-color="#FFDAC2" stop-opacity="0"/>
</radialGradient>
<radialGradient id="paint2_radial_7811_27014" cx="0" cy="0" r="1" gradientUnits="userSpaceOnUse" gradientTransform="translate(191.602 98.9283) rotate(-137.649) scale(25.4411 69.4975)">
<stop offset="0.100214" stop-color="#6D37CD" stop-opacity="0"/>
<stop offset="0.664379" stop-color="#00204D" stop-opacity="0.4"/>
</radialGradient>
<radialGradient id="paint3_radial_7811_27014" cx="0" cy="0" r="1" gradientUnits="userSpaceOnUse" gradientTransform="translate(105.722 96.9745) rotate(161.884) scale(60.5497 17.7287)">
<stop stop-color="#FFC7A3" stop-opacity="0.7"/>
<stop offset="1" stop-color="#FFDAC2" stop-opacity="0"/>
</radialGradient>
<radialGradient id="paint4_radial_7811_27014" cx="0" cy="0" r="1" gradientUnits="userSpaceOnUse" gradientTransform="translate(96.9074 107.832) rotate(-126.408) scale(40.5131 106.183)">
<stop offset="0.212924" stop-color="#6D37CD" stop-opacity="0"/>
<stop offset="0.487837" stop-color="#00204D" stop-opacity="0.4"/>
</radialGradient>
<radialGradient id="paint5_radial_7811_27014" cx="0" cy="0" r="1" gradientUnits="userSpaceOnUse" gradientTransform="translate(42.8371 93.7397) rotate(145.413) scale(20.7457 12.8217)">
<stop stop-color="#FFC7A3"/>
<stop offset="1" stop-color="#FFDAC2" stop-opacity="0"/>
</radialGradient>
<radialGradient id="paint6_radial_7811_27014" cx="0" cy="0" r="1" gradientUnits="userSpaceOnUse" gradientTransform="translate(41.1822 100.96) rotate(-121.134) scale(24.3046 59.0187)">
<stop offset="0.140356" stop-color="#6D37CD" stop-opacity="0"/>
<stop offset="0.58" stop-color="#00204D" stop-opacity="0.4"/>
</radialGradient>
<radialGradient id="paint7_radial_7811_27014" cx="0" cy="0" r="1" gradientUnits="userSpaceOnUse" gradientTransform="translate(79.6031 89.5096) rotate(142.108) scale(27.7104 16.8732)">
<stop stop-color="#FFC7A3"/>
<stop offset="1" stop-color="#FFDAC2" stop-opacity="0"/>
</radialGradient>
<radialGradient id="paint8_radial_7811_27014" cx="0" cy="0" r="1" gradientUnits="userSpaceOnUse" gradientTransform="translate(82.7362 100.292) rotate(-125.505) scale(24.1471 62.6404)">
<stop offset="0.320587" stop-color="#6D37CD" stop-opacity="0"/>
<stop offset="0.62" stop-color="#00204D" stop-opacity="0.5"/>
</radialGradient>
<radialGradient id="paint9_radial_7811_27014" cx="0" cy="0" r="1" gradientUnits="userSpaceOnUse" gradientTransform="translate(140.633 83.5571) rotate(90) scale(51.667 38.7441)">
<stop offset="0.142857" stop-color="#FFD2B5" stop-opacity="0.7"/>
<stop offset="1" stop-color="#FFDAC2" stop-opacity="0"/>
</radialGradient>
<radialGradient id="paint10_radial_7811_27014" cx="0" cy="0" r="1" gradientUnits="userSpaceOnUse" gradientTransform="translate(118.99 89.7273) scale(127.067 35.087)">
<stop offset="0.552781" stop-color="#578EE1" stop-opacity="0"/>
<stop offset="1" stop-color="#578EE1"/>
</radialGradient>
<linearGradient id="paint11_linear_7811_27014" x1="142.071" y1="-10.8647" x2="200.391" y2="73.9929" gradientUnits="userSpaceOnUse">
<stop stop-color="#B3E0FF"/>
<stop offset="1" stop-color="#E0B09C"/>
</linearGradient>
<linearGradient id="paint12_linear_7811_27014" x1="144.733" y1="75.6045" x2="162.809" y2="56.7792" gradientUnits="userSpaceOnUse">
<stop stop-color="#00204D"/>
<stop offset="1" stop-color="#240D54" stop-opacity="0"/>
</linearGradient>
<radialGradient id="paint13_radial_7811_27014" cx="0" cy="0" r="1" gradientUnits="userSpaceOnUse" gradientTransform="translate(165.827 54.7278) rotate(-108.016) scale(21.1659 15.9492)">
<stop offset="0.454878" stop-color="#FFC7A3"/>
<stop offset="1" stop-color="#FFDAC2" stop-opacity="0"/>
</radialGradient>
<linearGradient id="paint14_linear_7811_27014" x1="126.062" y1="-46.3822" x2="218.696" y2="57.9247" gradientUnits="userSpaceOnUse">
<stop stop-color="#B3E0FF"/>
<stop offset="1" stop-color="#E0B09C"/>
</linearGradient>
<linearGradient id="paint15_linear_7811_27014" x1="126.262" y1="87.9389" x2="150.999" y2="62.128" gradientUnits="userSpaceOnUse">
<stop stop-color="#00204D"/>
<stop offset="1" stop-color="#240D54" stop-opacity="0"/>
</linearGradient>
<radialGradient id="paint16_radial_7811_27014" cx="0" cy="0" r="1" gradientUnits="userSpaceOnUse" gradientTransform="translate(153.515 51.5682) rotate(-104.127) scale(30.9951 18.7957)">
<stop offset="0.440245" stop-color="#FFC7A3"/>
<stop offset="1" stop-color="#FFDAC2" stop-opacity="0"/>
</radialGradient>
<linearGradient id="paint17_linear_7811_27014" x1="69.6133" y1="-131.257" x2="218.222" y2="55.8132" gradientUnits="userSpaceOnUse">
<stop stop-color="#B3E0FF"/>
<stop offset="1" stop-color="#E0B09C"/>
</linearGradient>
<linearGradient id="paint18_linear_7811_27014" x1="188.553" y1="47.3798" x2="102.776" y2="21.828" gradientUnits="userSpaceOnUse">
<stop stop-color="#00204D"/>
<stop offset="1" stop-color="#240D54" stop-opacity="0"/>
</linearGradient>
<radialGradient id="paint19_radial_7811_27014" cx="0" cy="0" r="1" gradientUnits="userSpaceOnUse" gradientTransform="translate(126.262 43.0291) rotate(-107.784) scale(66.4275 32.3037)">
<stop offset="0.246831" stop-color="#FFB88A"/>
<stop offset="1" stop-color="#FFDAC2" stop-opacity="0"/>
</radialGradient>
<linearGradient id="paint20_linear_7811_27014" x1="56.0511" y1="31.0021" x2="118.873" y2="38.2476" gradientUnits="userSpaceOnUse">
<stop stop-color="#00204D"/>
<stop offset="1" stop-color="#240D54" stop-opacity="0"/>
</linearGradient>
<linearGradient id="paint21_linear_7811_27014" x1="47.0762" y1="27.8481" x2="91.9738" y2="38.9228" gradientUnits="userSpaceOnUse">
<stop stop-color="#00204D"/>
<stop offset="1" stop-color="#240D54" stop-opacity="0"/>
</linearGradient>
<linearGradient id="paint22_linear_7811_27014" x1="158.748" y1="91.3065" x2="168.524" y2="55.4869" gradientUnits="userSpaceOnUse">
<stop stop-color="#09638E"/>
<stop offset="1" stop-color="#CEB0FF"/>
</linearGradient>
<linearGradient id="paint23_linear_7811_27014" x1="189.462" y1="72.1696" x2="184.918" y2="95.0071" gradientUnits="userSpaceOnUse">
<stop stop-color="#BF5B13" stop-opacity="0"/>
<stop offset="1" stop-color="#1B43B1"/>
</linearGradient>
<radialGradient id="paint24_radial_7811_27014" cx="0" cy="0" r="1" gradientUnits="userSpaceOnUse" gradientTransform="translate(210.797 80.4809) rotate(-165.34) scale(43.4994 17.1994)">
<stop stop-color="#FFC7A3"/>
<stop offset="1" stop-color="#FFDAC2" stop-opacity="0"/>
</radialGradient>
<radialGradient id="paint25_radial_7811_27014" cx="0" cy="0" r="1" gradientUnits="userSpaceOnUse" gradientTransform="translate(191.968 74.7676) rotate(128.081) scale(30.7171 81.8243)">
<stop offset="0.100214" stop-color="#6D37CD" stop-opacity="0"/>
<stop offset="0.664379" stop-color="#00204D"/>
</radialGradient>
<linearGradient id="paint26_linear_7811_27014" x1="111.759" y1="46.7456" x2="121.984" y2="46.0205" gradientUnits="userSpaceOnUse">
<stop stop-color="#00204D"/>
<stop offset="1" stop-color="#240D54" stop-opacity="0"/>
</linearGradient>
<linearGradient id="paint27_linear_7811_27014" x1="118.767" y1="51.8055" x2="127.325" y2="51.2979" gradientUnits="userSpaceOnUse">
<stop stop-color="#00204D"/>
<stop offset="1" stop-color="#240D54" stop-opacity="0"/>
</linearGradient>
<linearGradient id="paint28_linear_7811_27014" x1="124.331" y1="58.8425" x2="135.673" y2="57.0993" gradientUnits="userSpaceOnUse">
<stop stop-color="#00204D"/>
<stop offset="1" stop-color="#240D54" stop-opacity="0"/>
</linearGradient>
<linearGradient id="paint29_linear_7811_27014" x1="47.3087" y1="-35.6421" x2="107.686" y2="69.2556" gradientUnits="userSpaceOnUse">
<stop stop-color="#B3E0FF"/>
<stop offset="1" stop-color="#E0B09C"/>
</linearGradient>
<linearGradient id="paint30_linear_7811_27014" x1="37.8406" y1="79.9656" x2="87.6958" y2="27.8387" gradientUnits="userSpaceOnUse">
<stop stop-color="#00204D"/>
<stop offset="1" stop-color="#240D54" stop-opacity="0"/>
</linearGradient>
<radialGradient id="paint31_radial_7811_27014" cx="0" cy="0" r="1" gradientUnits="userSpaceOnUse" gradientTransform="translate(91.7412 37.1197) rotate(-134.367) scale(30.6968 26.1572)">
<stop stop-color="#FFC7A3"/>
<stop offset="1" stop-color="#FFDAC2" stop-opacity="0"/>
</radialGradient>
<linearGradient id="paint32_linear_7811_27014" x1="29.4127" y1="41.6295" x2="77.08" y2="48.0113" gradientUnits="userSpaceOnUse">
<stop stop-color="#00204D"/>
<stop offset="1" stop-color="#240D54" stop-opacity="0"/>
</linearGradient>
<linearGradient id="paint33_linear_7811_27014" x1="55.9616" y1="92.384" x2="75.8454" y2="33.1425" gradientUnits="userSpaceOnUse">
<stop stop-color="#09638E"/>
<stop offset="1" stop-color="#CEB0FF"/>
</linearGradient>
<radialGradient id="paint34_radial_7811_27014" cx="0" cy="0" r="1" gradientUnits="userSpaceOnUse" gradientTransform="translate(105.721 77.5237) rotate(-155.224) scale(63.382 23.893)">
<stop stop-color="#FFC7A3" stop-opacity="0.7"/>
<stop offset="1" stop-color="#FFDAC2" stop-opacity="0"/>
</radialGradient>
<linearGradient id="paint35_linear_7811_27014" x1="90.0001" y1="67.8119" x2="75.7292" y2="119.492" gradientUnits="userSpaceOnUse">
<stop stop-color="#BF5B13" stop-opacity="0"/>
<stop offset="1" stop-color="#1B43B1"/>
</linearGradient>
<radialGradient id="paint36_radial_7811_27014" cx="0" cy="0" r="1" gradientUnits="userSpaceOnUse" gradientTransform="translate(84.2308 66.3462) rotate(105.196) scale(43.3754 121.188)">
<stop offset="0.212924" stop-color="#6D37CD" stop-opacity="0"/>
<stop offset="0.487837" stop-color="#00204D"/>
</radialGradient>
<linearGradient id="paint37_linear_7811_27014" x1="47.8845" y1="97.415" x2="79.1269" y2="47.6331" gradientUnits="userSpaceOnUse">
<stop stop-color="#09638E"/>
<stop offset="1" stop-color="#CEB0FF"/>
</linearGradient>
<radialGradient id="paint38_radial_7811_27014" cx="0" cy="0" r="1" gradientUnits="userSpaceOnUse" gradientTransform="translate(80.6249 88.0542) rotate(-131.365) scale(31.9907 19.9333)">
<stop stop-color="#FFC7A3"/>
<stop offset="1" stop-color="#FFDAC2" stop-opacity="0"/>
</radialGradient>
<linearGradient id="paint39_linear_7811_27014" x1="83.3653" y1="72.1976" x2="66.2324" y2="101.088" gradientUnits="userSpaceOnUse">
<stop stop-color="#BF5B13" stop-opacity="0"/>
<stop offset="1" stop-color="#1B43B1"/>
</linearGradient>
<radialGradient id="paint40_radial_7811_27014" cx="0" cy="0" r="1" gradientUnits="userSpaceOnUse" gradientTransform="translate(83.6538 72.8429) rotate(116.054) scale(30.8681 66.8298)">
<stop offset="0.320587" stop-color="#6D37CD" stop-opacity="0"/>
<stop offset="0.62" stop-color="#00204D"/>
</radialGradient>
<linearGradient id="paint41_linear_7811_27014" x1="18.5516" y1="91.9768" x2="37.0847" y2="54.3994" gradientUnits="userSpaceOnUse">
<stop stop-color="#09638E"/>
<stop offset="1" stop-color="#CEB0FF"/>
</linearGradient>
<radialGradient id="paint42_radial_7811_27014" cx="0" cy="0" r="1" gradientUnits="userSpaceOnUse" gradientTransform="translate(42.5428 82.0869) rotate(-136.154) scale(23.983 15.8456)">
<stop stop-color="#FFC7A3"/>
<stop offset="1" stop-color="#FFDAC2" stop-opacity="0"/>
</radialGradient>
<radialGradient id="paint43_radial_7811_27014" cx="0" cy="0" r="1" gradientUnits="userSpaceOnUse" gradientTransform="translate(40.8669 71.9013) rotate(113.443) scale(31.9892 64.0638)">
<stop offset="0.140356" stop-color="#6D37CD" stop-opacity="0"/>
<stop offset="0.947918" stop-color="#00204D"/>
</radialGradient>
<linearGradient id="paint44_linear_7811_27014" x1="39.1833" y1="68.7478" x2="30.0088" y2="94.2675" gradientUnits="userSpaceOnUse">
<stop stop-color="#BF5B13" stop-opacity="0"/>
<stop offset="1" stop-color="#1B43B1"/>
</linearGradient>
<radialGradient id="paint45_radial_7811_27014" cx="0" cy="0" r="1" gradientUnits="userSpaceOnUse" gradientTransform="translate(212.795 81.64) rotate(-172.128) scale(21.7405 2.021)">
<stop stop-color="#21264C"/>
<stop offset="1" stop-color="#21264C" stop-opacity="0"/>
</radialGradient>
<radialGradient id="paint46_radial_7811_27014" cx="0" cy="0" r="1" gradientUnits="userSpaceOnUse" gradientTransform="translate(224.565 71.6103) rotate(-102.063) scale(31.0462 12.6224)">
<stop offset="0.157708" stop-color="#22C75F"/>
<stop offset="1" stop-color="#195C5A"/>
</radialGradient>
<radialGradient id="paint47_radial_7811_27014" cx="0" cy="0" r="1" gradientUnits="userSpaceOnUse" gradientTransform="translate(221.322 69.3026) rotate(-103.931) scale(28.4572 10.1529)">
<stop stop-color="#FFC8A6" stop-opacity="0.7"/>
<stop offset="1" stop-color="#FFDAC2" stop-opacity="0"/>
</radialGradient>
<radialGradient id="paint48_radial_7811_27014" cx="0" cy="0" r="1" gradientUnits="userSpaceOnUse" gradientTransform="translate(224.565 56.1055) rotate(101.686) scale(34.1698 21.4768)">
<stop stop-color="#164F50" stop-opacity="0"/>
<stop offset="1" stop-color="#0FAFB1"/>
</radialGradient>
<radialGradient id="paint49_radial_7811_27014" cx="0" cy="0" r="1" gradientUnits="userSpaceOnUse" gradientTransform="translate(35.9899 74.7637) rotate(-171.965) scale(18.1786 2.021)">
<stop stop-color="#21264C"/>
<stop offset="1" stop-color="#21264C" stop-opacity="0"/>
</radialGradient>
<radialGradient id="paint50_radial_7811_27014" cx="0" cy="0" r="1" gradientUnits="userSpaceOnUse" gradientTransform="translate(197.388 81.1538) rotate(-172.128) scale(18.1786 2.021)">
<stop stop-color="#21264C"/>
<stop offset="1" stop-color="#21264C" stop-opacity="0"/>
</radialGradient>
<radialGradient id="paint51_radial_7811_27014" cx="0" cy="0" r="1" gradientUnits="userSpaceOnUse" gradientTransform="translate(206.801 74.722) rotate(-104.807) scale(20.4779 10.0649)">
<stop offset="0.157708" stop-color="#22C75F"/>
<stop offset="1" stop-color="#195C5A"/>
</radialGradient>
<radialGradient id="paint52_radial_7811_27014" cx="0" cy="0" r="1" gradientUnits="userSpaceOnUse" gradientTransform="translate(204.185 73.2172) rotate(-107.056) scale(18.8395 8.06594)">
<stop stop-color="#FFC8A6" stop-opacity="0.7"/>
<stop offset="1" stop-color="#FFDAC2" stop-opacity="0"/>
</radialGradient>
<radialGradient id="paint53_radial_7811_27014" cx="0" cy="0" r="1" gradientUnits="userSpaceOnUse" gradientTransform="translate(206.801 64.6114) rotate(104.35) scale(22.5228 17.137)">
<stop stop-color="#164F50" stop-opacity="0"/>
<stop offset="1" stop-color="#0FAFB1"/>
</radialGradient>
<radialGradient id="paint54_radial_7811_27014" cx="0" cy="0" r="1" gradientUnits="userSpaceOnUse" gradientTransform="translate(46.9587 64.6365) rotate(-102.063) scale(31.0462 12.6224)">
<stop offset="0.157708" stop-color="#22C75F"/>
<stop offset="1" stop-color="#195C5A"/>
</radialGradient>
<radialGradient id="paint55_radial_7811_27014" cx="0" cy="0" r="1" gradientUnits="userSpaceOnUse" gradientTransform="translate(43.7154 62.3288) rotate(-103.931) scale(28.4572 10.1529)">
<stop stop-color="#FFC8A6" stop-opacity="0.7"/>
<stop offset="1" stop-color="#FFDAC2" stop-opacity="0"/>
</radialGradient>
<radialGradient id="paint56_radial_7811_27014" cx="0" cy="0" r="1" gradientUnits="userSpaceOnUse" gradientTransform="translate(46.9587 49.1317) rotate(101.686) scale(34.1698 21.4768)">
<stop stop-color="#164F50" stop-opacity="0"/>
<stop offset="1" stop-color="#0FAFB1"/>
</radialGradient>
</defs>
</svg>
