<svg viewBox="0 0 240 120" fill="none" xmlns="http://www.w3.org/2000/svg">
<path d="M239.423 92.3077C96.3462 97.5152 29.4231 101.57 17.3077 120H239.423V92.3077Z" fill="url(#paint0_linear_643_26607)"/>
<path d="M239.423 92.3077C96.3462 97.5152 29.4231 101.57 17.3077 120H239.423V92.3077Z" fill="url(#paint1_radial_643_26607)"/>
<path d="M239.423 92.3077C96.3462 97.5152 29.4231 101.57 17.3077 120H239.423V92.3077Z" fill="url(#paint2_radial_643_26607)"/>
<path d="M233.117 113.974C217.861 121.358 155.964 114.743 126.923 110.512L161.324 107.339C191.612 106.474 248.373 106.589 233.117 113.974Z" fill="url(#paint3_radial_643_26607)"/>
<path d="M156.343 113.974C144.574 121.358 96.8235 114.743 74.4197 110.512L100.958 107.339C124.324 106.474 168.112 106.589 156.343 113.974Z" fill="url(#paint4_radial_643_26607)"/>
<path d="M165.288 87.3496C165.288 84.924 160.097 73.2243 161.395 55.8173L149.423 72.9389L152.308 89.7751L143.365 108.894H154.327C157.788 104.186 165.288 89.29 165.288 87.3496Z" fill="url(#paint5_radial_643_26607)"/>
<path d="M165.288 87.3496C165.288 84.924 160.097 73.2243 161.395 55.8173L149.423 72.9389L152.308 89.7751L143.365 108.894H154.327C157.788 104.186 165.288 89.29 165.288 87.3496Z" fill="url(#paint6_radial_643_26607)"/>
<path d="M165.288 87.3496C165.288 84.924 160.097 73.2243 161.395 55.8173L149.423 72.9389L152.308 89.7751L143.365 108.894H154.327C157.788 104.186 165.288 89.29 165.288 87.3496Z" fill="url(#paint7_radial_643_26607)"/>
<path d="M165.288 87.3496C165.288 84.924 160.097 73.2243 161.395 55.8173L149.423 72.9389L152.308 89.7751L143.365 108.894H154.327C157.788 104.186 165.288 89.29 165.288 87.3496Z" fill="url(#paint8_linear_643_26607)"/>
<path d="M180.577 19.4711C173.365 30.7211 165 19.4711 157.5 32.5961L159.952 34.4711C164.712 28.5577 176.971 35.7692 179.567 31.5865C182.163 27.4038 181.779 21.1538 180.577 19.4711Z" fill="url(#paint9_radial_643_26607)"/>
<path d="M180.577 19.4711C173.365 30.7211 165 19.4711 157.5 32.5961L159.952 34.4711C164.712 28.5577 176.971 35.7692 179.567 31.5865C182.163 27.4038 181.779 21.1538 180.577 19.4711Z" fill="url(#paint10_radial_643_26607)"/>
<path d="M180.577 19.4711C173.365 30.7211 165 19.4711 157.5 32.5961L159.952 34.4711C164.712 28.5577 176.971 35.7692 179.567 31.5865C182.163 27.4038 181.779 21.1538 180.577 19.4711Z" fill="url(#paint11_radial_643_26607)"/>
<path d="M141.779 26.8269C126.779 25.5288 107.74 42.2596 94.1827 37.9326L76.5865 52.7885C76.5865 61.2981 81.7788 74.5673 94.1827 77.7404C106.587 80.9135 107.019 95.7212 108.029 102.837C103.558 101.106 100.529 104.279 99.2308 110.192H117.548C122.596 110.192 119.135 80.7692 114.519 73.4135C117.75 75.9519 128.269 73.4616 131.827 72.4039C133.413 83.3654 142.067 88.5577 142.067 90.8654C142.067 93.1731 139.615 102.837 136.587 102.837C135.263 102.837 133.269 100.385 129.087 102.837C124.904 105.288 126.058 110.192 126.058 110.192H145.24C145.24 110.192 158.365 91.1539 158.365 89.2789C158.365 87.4039 155.337 84.375 155.337 74.5673C155.337 67.3327 164.712 60.4327 164.712 48.1731C164.712 33.8942 156.779 28.1249 141.779 26.8269Z" fill="url(#paint12_radial_643_26607)"/>
<path d="M141.779 26.8269C126.779 25.5288 107.74 42.2596 94.1827 37.9326L76.5865 52.7885C76.5865 61.2981 81.7788 74.5673 94.1827 77.7404C106.587 80.9135 107.019 95.7212 108.029 102.837C103.558 101.106 100.529 104.279 99.2308 110.192H117.548C122.596 110.192 119.135 80.7692 114.519 73.4135C117.75 75.9519 128.269 73.4616 131.827 72.4039C133.413 83.3654 142.067 88.5577 142.067 90.8654C142.067 93.1731 139.615 102.837 136.587 102.837C135.263 102.837 133.269 100.385 129.087 102.837C124.904 105.288 126.058 110.192 126.058 110.192H145.24C145.24 110.192 158.365 91.1539 158.365 89.2789C158.365 87.4039 155.337 84.375 155.337 74.5673C155.337 67.3327 164.712 60.4327 164.712 48.1731C164.712 33.8942 156.779 28.1249 141.779 26.8269Z" fill="url(#paint13_radial_643_26607)"/>
<path d="M141.779 26.8269C126.779 25.5288 107.74 42.2596 94.1827 37.9326L76.5865 52.7885C76.5865 61.2981 81.7788 74.5673 94.1827 77.7404C106.587 80.9135 107.019 95.7212 108.029 102.837C103.558 101.106 100.529 104.279 99.2308 110.192H117.548C122.596 110.192 119.135 80.7692 114.519 73.4135C117.75 75.9519 128.269 73.4616 131.827 72.4039C133.413 83.3654 142.067 88.5577 142.067 90.8654C142.067 93.1731 139.615 102.837 136.587 102.837C135.263 102.837 133.269 100.385 129.087 102.837C124.904 105.288 126.058 110.192 126.058 110.192H145.24C145.24 110.192 158.365 91.1539 158.365 89.2789C158.365 87.4039 155.337 84.375 155.337 74.5673C155.337 67.3327 164.712 60.4327 164.712 48.1731C164.712 33.8942 156.779 28.1249 141.779 26.8269Z" fill="url(#paint14_radial_643_26607)"/>
<path d="M141.779 26.8269C126.779 25.5288 107.74 42.2596 94.1827 37.9326L76.5865 52.7885C76.5865 61.2981 81.7788 74.5673 94.1827 77.7404C106.587 80.9135 107.019 95.7212 108.029 102.837C103.558 101.106 100.529 104.279 99.2308 110.192H117.548C122.596 110.192 119.135 80.7692 114.519 73.4135C117.75 75.9519 128.269 73.4616 131.827 72.4039C133.413 83.3654 142.067 88.5577 142.067 90.8654C142.067 93.1731 139.615 102.837 136.587 102.837C135.263 102.837 133.269 100.385 129.087 102.837C124.904 105.288 126.058 110.192 126.058 110.192H145.24C145.24 110.192 158.365 91.1539 158.365 89.2789C158.365 87.4039 155.337 84.375 155.337 74.5673C155.337 67.3327 164.712 60.4327 164.712 48.1731C164.712 33.8942 156.779 28.1249 141.779 26.8269Z" fill="url(#paint15_radial_643_26607)"/>
<path d="M141.779 26.8269C126.779 25.5288 107.74 42.2596 94.1827 37.9326L76.5865 52.7885C76.5865 61.2981 81.7788 74.5673 94.1827 77.7404C106.587 80.9135 107.019 95.7212 108.029 102.837C103.558 101.106 100.529 104.279 99.2308 110.192H117.548C122.596 110.192 119.135 80.7692 114.519 73.4135C117.75 75.9519 128.269 73.4616 131.827 72.4039C133.413 83.3654 142.067 88.5577 142.067 90.8654C142.067 93.1731 139.615 102.837 136.587 102.837C135.263 102.837 133.269 100.385 129.087 102.837C124.904 105.288 126.058 110.192 126.058 110.192H145.24C145.24 110.192 158.365 91.1539 158.365 89.2789C158.365 87.4039 155.337 84.375 155.337 74.5673C155.337 67.3327 164.712 60.4327 164.712 48.1731C164.712 33.8942 156.779 28.1249 141.779 26.8269Z" fill="url(#paint16_linear_643_26607)"/>
<path fill-rule="evenodd" clip-rule="evenodd" d="M131.769 72.4216C130.118 68.2483 128.533 54.9162 133.737 46.7313C140.234 36.5135 106.839 56.4306 114.195 72.2959C114.418 72.7775 114.645 73.2303 114.874 73.6557C118.438 75.7729 128.28 73.4522 131.769 72.4216Z" fill="url(#paint17_radial_643_26607)"/>
<path d="M81.9227 103.269C84.5189 102.548 87.9808 95.6248 84.375 72.4036C78.6061 68.5092 73.0814 51.0931 76.1538 51.9228L81.9227 50.7692C81.9227 50.7692 87.3975 70.7233 99.1587 79.8315C102.792 82.6456 96.274 107.38 93.0288 110.625H74.4227C74.2785 103.558 79.3266 103.99 81.9227 103.269Z" fill="url(#paint18_radial_643_26607)"/>
<path d="M81.9227 103.269C84.5189 102.548 87.9808 95.6248 84.375 72.4036C78.6061 68.5092 73.0814 51.0931 76.1538 51.9228L81.9227 50.7692C81.9227 50.7692 87.3975 70.7233 99.1587 79.8315C102.792 82.6456 96.274 107.38 93.0288 110.625H74.4227C74.2785 103.558 79.3266 103.99 81.9227 103.269Z" fill="url(#paint19_linear_643_26607)"/>
<path d="M67.1533 7.52104C65.7088 9.26033 65.3719 12.2068 65.7085 14.8445L58.0616 15.4825C61.7313 8.7017 64.6069 7.27982 65.7088 6.03262C67.0861 4.47363 69.3287 5.40984 67.1533 7.52104Z" fill="url(#paint20_radial_643_26607)"/>
<path d="M102.177 9.84414C101.816 12.0305 98.1885 14.5263 96.0981 15.7581L103.66 21.5085C102.252 14.7595 103.775 11.5457 104.058 10.0538C104.413 8.18896 102.484 7.09502 102.177 9.84414Z" fill="url(#paint21_radial_643_26607)"/>
<path d="M100.481 13.0783C99.8465 14.9036 89.1293 16.7253 87.433 25.7577C91.3096 29.6371 94.5243 33.2703 96.3479 38.5583C110.235 33.0394 101.605 16.9095 101.966 13.6748L100.481 13.0783Z" fill="url(#paint22_radial_643_26607)"/>
<path d="M100.481 13.0783C99.8465 14.9036 89.1293 16.7253 87.433 25.7577C91.3096 29.6371 94.5243 33.2703 96.3479 38.5583C110.235 33.0394 101.605 16.9095 101.966 13.6748L100.481 13.0783Z" fill="url(#paint23_radial_643_26607)"/>
<path fill-rule="evenodd" clip-rule="evenodd" d="M88.8303 27.1802C88.3753 26.7074 87.9089 26.2344 87.4325 25.7577C88.6193 19.4385 94.2214 16.6487 97.6972 14.9178C99.1895 14.1746 100.29 13.6266 100.48 13.0783L101.965 13.6748C101.931 13.9835 101.978 14.4097 102.08 14.9329C101.176 15.7555 99.9546 16.5891 98.5961 17.5161C95.2775 19.7806 91.1425 22.6021 88.8303 27.1802Z" fill="url(#paint24_radial_643_26607)"/>
<path d="M73.3995 26.6524C73.775 18.6835 63.1683 18.5969 65.7964 8.89568L64.2008 8.46259C57.5333 13.4482 49.1904 25.3292 62.3239 34.6212C65.8906 34.6212 73.0992 33.0274 73.3995 26.6524Z" fill="url(#paint25_radial_643_26607)"/>
<path d="M73.3995 26.6524C73.775 18.6835 63.1683 18.5969 65.7964 8.89568L64.2008 8.46259C57.5333 13.4482 49.1904 25.3292 62.3239 34.6212C65.8906 34.6212 73.0992 33.0274 73.3995 26.6524Z" fill="url(#paint26_radial_643_26607)"/>
<path fill-rule="evenodd" clip-rule="evenodd" d="M64.8577 8.64008C62.3478 13.5362 65.0116 17.1205 67.6911 20.7258C70.1171 23.9902 72.5559 27.2717 71.1787 31.5596C72.4282 30.3781 73.2999 28.7818 73.4002 26.6516C73.57 23.0481 71.494 21.0564 69.4116 19.0585C66.8889 16.6384 64.357 14.2092 65.7967 8.89494L64.8577 8.64008Z" fill="url(#paint27_radial_643_26607)"/>
<path d="M55.6122 42.9243C55.6919 35.5053 67.7687 25.2008 73.5884 23.6989C79.408 22.197 88.4184 23.5441 92.924 28.2376C97.4295 32.9311 98.7851 49.109 97.0956 53.6145C95.406 58.1201 83.3497 64.0945 73.5877 62.0294C63.8257 59.9644 55.5324 50.3434 55.6122 42.9243Z" fill="url(#paint28_radial_643_26607)"/>
<path d="M55.6122 42.9243C55.6919 35.5053 67.7687 25.2008 73.5884 23.6989C79.408 22.197 88.4184 23.5441 92.924 28.2376C97.4295 32.9311 98.7851 49.109 97.0956 53.6145C95.406 58.1201 83.3497 64.0945 73.5877 62.0294C63.8257 59.9644 55.5324 50.3434 55.6122 42.9243Z" fill="url(#paint29_radial_643_26607)"/>
<path d="M55.6122 42.9243C55.6919 35.5053 67.7687 25.2008 73.5884 23.6989C79.408 22.197 88.4184 23.5441 92.924 28.2376C97.4295 32.9311 98.7851 49.109 97.0956 53.6145C95.406 58.1201 83.3497 64.0945 73.5877 62.0294C63.8257 59.9644 55.5324 50.3434 55.6122 42.9243Z" fill="url(#paint30_radial_643_26607)"/>
<path d="M55.6122 42.9243C55.6919 35.5053 67.7687 25.2008 73.5884 23.6989C79.408 22.197 88.4184 23.5441 92.924 28.2376C97.4295 32.9311 98.7851 49.109 97.0956 53.6145C95.406 58.1201 83.3497 64.0945 73.5877 62.0294C63.8257 59.9644 55.5324 50.3434 55.6122 42.9243Z" fill="url(#paint31_radial_643_26607)"/>
<path d="M55.6122 42.9243C55.6919 35.5053 67.7687 25.2008 73.5884 23.6989C79.408 22.197 88.4184 23.5441 92.924 28.2376C97.4295 32.9311 98.7851 49.109 97.0956 53.6145C95.406 58.1201 83.3497 64.0945 73.5877 62.0294C63.8257 59.9644 55.5324 50.3434 55.6122 42.9243Z" fill="url(#paint32_radial_643_26607)"/>
<path d="M83.5169 39.6136C80.8981 40.3437 80.0462 44.2297 79.7353 46.2188C81.4534 46.8048 84.9876 47.9509 87.0781 46.7476C89.1687 45.5444 90.8856 42.543 91.4546 40.1935C90.8523 41.0343 86.7903 38.701 83.5169 39.6136Z" fill="url(#paint33_radial_643_26607)"/>
<path d="M83.5169 39.6136C80.8981 40.3437 80.0462 44.2297 79.7353 46.2188C81.4534 46.8048 84.9876 47.9509 87.0781 46.7476C89.1687 45.5444 90.8856 42.543 91.4546 40.1935C90.8523 41.0343 86.7903 38.701 83.5169 39.6136Z" fill="url(#paint34_radial_643_26607)"/>
<path d="M83.5169 39.6136C80.8981 40.3437 80.0462 44.2297 79.7353 46.2188C81.4534 46.8048 84.9876 47.9509 87.0781 46.7476C89.1687 45.5444 90.8856 42.543 91.4546 40.1935C90.8523 41.0343 86.7903 38.701 83.5169 39.6136Z" fill="url(#paint35_radial_643_26607)"/>
<path d="M69.2156 38.1427C71.5802 39.3722 71.6121 43.272 71.5084 45.2428C69.7419 45.4579 66.1202 45.843 64.3579 44.2664C62.5957 42.6897 61.5552 39.4637 61.4842 37.095C61.892 38.0232 66.26 36.6058 69.2156 38.1427Z" fill="url(#paint36_radial_643_26607)"/>
<path d="M69.2156 38.1427C71.5802 39.3722 71.6121 43.272 71.5084 45.2428C69.7419 45.4579 66.1202 45.843 64.3579 44.2664C62.5957 42.6897 61.5552 39.4637 61.4842 37.095C61.892 38.0232 66.26 36.6058 69.2156 38.1427Z" fill="url(#paint37_radial_643_26607)"/>
<path d="M69.2156 38.1427C71.5802 39.3722 71.6121 43.272 71.5084 45.2428C69.7419 45.4579 66.1202 45.843 64.3579 44.2664C62.5957 42.6897 61.5552 39.4637 61.4842 37.095C61.892 38.0232 66.26 36.6058 69.2156 38.1427Z" fill="url(#paint38_radial_643_26607)"/>
<path d="M86.1784 42.8179C86.2675 43.7858 85.5551 44.6427 84.5872 44.7318C83.6193 44.8209 82.7624 44.1084 82.6734 43.1406C82.5843 42.1727 83.2967 41.3158 84.2645 41.2268C85.2324 41.1377 86.0893 41.8501 86.1784 42.8179Z" fill="#50381E"/>
<path d="M86.1784 42.8179C86.2675 43.7858 85.5551 44.6427 84.5872 44.7318C83.6193 44.8209 82.7624 44.1084 82.6734 43.1406C82.5843 42.1727 83.2967 41.3158 84.2645 41.2268C85.2324 41.1377 86.0893 41.8501 86.1784 42.8179Z" fill="#50381E"/>
<path d="M65.9991 40.6633C65.7181 41.5737 66.2283 42.5396 67.1387 42.8207C68.0492 43.1017 69.0151 42.5915 69.2961 41.681C69.5771 40.7706 69.0669 39.8047 68.1565 39.5237C67.246 39.2426 66.2801 39.7529 65.9991 40.6633Z" fill="#50381E"/>
<path d="M65.9991 40.6633C65.7181 41.5737 66.2283 42.5396 67.1387 42.8207C68.0492 43.1017 69.0151 42.5915 69.2961 41.681C69.5771 40.7706 69.0669 39.8047 68.1565 39.5237C67.246 39.2426 66.2801 39.7529 65.9991 40.6633Z" fill="#50381E"/>
<path d="M84.3277 41.9506C84.3645 42.3503 84.0704 42.7041 83.6707 42.7409C83.271 42.7777 82.9172 42.4835 82.8804 42.0838C82.8436 41.6842 83.1378 41.3303 83.5375 41.2936C83.9371 41.2568 84.291 41.5509 84.3277 41.9506Z" fill="#50381E"/>
<path d="M84.3277 41.9506C84.3645 42.3503 84.0704 42.7041 83.6707 42.7409C83.271 42.7777 82.9172 42.4835 82.8804 42.0838C82.8436 41.6842 83.1378 41.3303 83.5375 41.2936C83.9371 41.2568 84.291 41.5509 84.3277 41.9506Z" fill="#FDF5E9"/>
<path d="M66.3432 39.7031C66.2272 40.079 66.4379 40.4779 66.8138 40.5939C67.1898 40.71 67.5886 40.4993 67.7046 40.1233C67.8207 39.7474 67.61 39.3486 67.2341 39.2325C66.8581 39.1165 66.4593 39.3271 66.3432 39.7031Z" fill="#50381E"/>
<path d="M66.3432 39.7031C66.2272 40.079 66.4379 40.4779 66.8138 40.5939C67.1898 40.71 67.5886 40.4993 67.7046 40.1233C67.8207 39.7474 67.61 39.3486 67.2341 39.2325C66.8581 39.1165 66.4593 39.3271 66.3432 39.7031Z" fill="#FDF5E9"/>
<path d="M64.9528 50.9536C65.3283 46.2603 73.8016 48.589 73.2133 37.6248C71.9606 28.605 84.4785 30.2352 81.2856 37.6249C76.5139 48.6688 87.2928 47.9499 86.7297 53.9573C86.1665 59.9647 77.1556 65.5968 73.2133 64.4704C69.2711 63.344 64.5774 55.6469 64.9528 50.9536Z" fill="url(#paint39_radial_643_26607)"/>
<path d="M64.9528 50.9536C65.3283 46.2603 73.8016 48.589 73.2133 37.6248C71.9606 28.605 84.4785 30.2352 81.2856 37.6249C76.5139 48.6688 87.2928 47.9499 86.7297 53.9573C86.1665 59.9647 77.1556 65.5968 73.2133 64.4704C69.2711 63.344 64.5774 55.6469 64.9528 50.9536Z" fill="url(#paint40_radial_643_26607)"/>
<path d="M64.9528 50.9536C65.3283 46.2603 73.8016 48.589 73.2133 37.6248C71.9606 28.605 84.4785 30.2352 81.2856 37.6249C76.5139 48.6688 87.2928 47.9499 86.7297 53.9573C86.1665 59.9647 77.1556 65.5968 73.2133 64.4704C69.2711 63.344 64.5774 55.6469 64.9528 50.9536Z" fill="url(#paint41_radial_643_26607)"/>
<path d="M64.9528 50.9536C65.3283 46.2603 73.8016 48.589 73.2133 37.6248C71.9606 28.605 84.4785 30.2352 81.2856 37.6249C76.5139 48.6688 87.2928 47.9499 86.7297 53.9573C86.1665 59.9647 77.1556 65.5968 73.2133 64.4704C69.2711 63.344 64.5774 55.6469 64.9528 50.9536Z" fill="url(#paint42_radial_643_26607)"/>
<path d="M70.9597 52.0795C73.5879 50.4837 73.051 46.089 72.2062 38.2982C71.5242 32.0093 83.5342 33.9901 81.5398 39.0957C80.2415 42.4192 76.6855 49.1698 79.3138 53.0181L70.9597 52.0795Z" fill="url(#paint43_radial_643_26607)"/>
<path d="M66.9085 58.3691C71.3376 61.5981 73.9928 58.5256 74.7667 56.5857C74.6179 55.9599 73.6237 54.3329 70.8376 52.831C67.3549 50.9537 61.372 54.3329 66.9085 58.3691Z" fill="url(#paint44_radial_643_26607)"/>
<path d="M83.2488 59.6384C78.2126 62.5529 75.5604 59.0953 74.8639 57.0021C75.071 56.3666 76.2676 54.7747 79.3967 53.4914C83.3082 51.8873 89.544 55.9952 83.2488 59.6384Z" fill="url(#paint45_radial_643_26607)"/>
<path d="M79.1453 53.4299C78.1073 52.1635 72.6783 51.0776 71.0809 52.3444C69.4835 53.6111 72.9166 56.6861 74.3539 56.8671C75.7912 57.048 80.1834 54.6963 79.1453 53.4299Z" fill="url(#paint46_radial_643_26607)"/>
<path d="M79.1453 53.4299C78.1073 52.1635 72.6783 51.0776 71.0809 52.3444C69.4835 53.6111 72.9166 56.6861 74.3539 56.8671C75.7912 57.048 80.1834 54.6963 79.1453 53.4299Z" fill="url(#paint47_radial_643_26607)"/>
<path d="M84.5709 58.7911C84.5709 58.7911 82.6603 60.1991 80.0832 59.8236C77.5061 59.4482 75.7368 57.7952 74.9735 56.8199H74.2626C74.9735 58.3374 77.5506 61.0908 79.8166 61.3724C82.0827 61.654 84.5709 58.7911 84.5709 58.7911Z" fill="url(#paint48_linear_643_26607)"/>
<path d="M65.6744 57.3414C65.6744 57.3414 67.1641 58.9302 69.4678 58.9183C71.7715 58.9064 73.5338 57.5763 74.328 56.7542L74.9501 56.8491C74.1315 58.1919 71.52 60.4567 69.5006 60.4212C67.4812 60.3857 65.6744 57.3414 65.6744 57.3414Z" fill="url(#paint49_linear_643_26607)"/>
<path d="M104.658 77.4797C103.613 78.6955 101.312 78.4313 99.5179 76.8896C97.7241 75.3478 97.1172 73.1123 98.1622 71.8965C99.2073 70.6806 101.509 70.9448 103.302 72.4866C105.096 74.0284 105.703 76.2638 104.658 77.4797Z" fill="url(#paint50_radial_643_26607)"/>
<path d="M143.153 72.7037C141.569 72.9535 139.987 71.262 139.618 68.9256C139.25 66.5892 140.235 64.4927 141.819 64.2429C143.402 63.9931 144.985 65.6846 145.353 68.021C145.722 70.3574 144.737 72.4539 143.153 72.7037Z" fill="url(#paint51_radial_643_26607)"/>
<path d="M109.862 93.6851C108.783 94.2012 107.293 93.3331 106.534 91.7462C105.774 90.1593 106.033 88.4545 107.112 87.9383C108.191 87.4222 109.681 88.2903 110.44 89.8772C111.199 91.4641 110.94 93.169 109.862 93.6851Z" fill="url(#paint52_radial_643_26607)"/>
<path d="M144.741 89.8776C143.662 90.3937 142.172 89.5256 141.413 87.9387C140.653 86.3518 140.912 84.647 141.991 84.1308C143.07 83.6147 144.56 84.4828 145.319 86.0697C146.078 87.6567 145.819 89.3615 144.741 89.8776Z" fill="url(#paint53_radial_643_26607)"/>
<path d="M147.026 97.4643C145.849 97.253 145.147 95.6781 145.458 93.9466C145.768 92.2151 146.974 90.9827 148.152 91.1939C149.329 91.4052 150.031 92.9801 149.72 94.7116C149.409 96.4431 148.203 97.6755 147.026 97.4643Z" fill="url(#paint54_radial_643_26607)"/>
<path d="M114.874 99.7032C113.68 99.7635 112.614 97.8805 112.494 95.4975C112.374 93.1145 113.245 91.1338 114.439 91.0736C115.633 91.0134 116.699 92.8963 116.819 95.2794C116.939 97.6624 116.069 99.643 114.874 99.7032Z" fill="url(#paint55_radial_643_26607)"/>
<path d="M146.337 83.0874C145.142 83.1476 144.077 81.2647 143.957 78.8816C143.836 76.4986 144.707 74.518 145.902 74.4578C147.096 74.3975 148.162 76.2805 148.282 78.6635C148.402 81.0465 147.531 83.0272 146.337 83.0874Z" fill="url(#paint56_radial_643_26607)"/>
<path d="M111.711 86.7055C110.042 87.286 107.898 85.4834 106.923 82.6793C105.948 79.8753 106.511 77.1317 108.18 76.5513C109.849 75.9708 111.992 77.7734 112.968 80.5774C113.943 83.3815 113.38 86.1251 111.711 86.7055Z" fill="url(#paint57_radial_643_26607)"/>
<path d="M140.716 82.8631C139.047 83.4436 136.903 81.641 135.928 78.8369C134.953 76.0329 135.516 73.2893 137.185 72.7089C138.854 72.1284 140.997 73.931 141.973 76.735C142.948 79.5391 142.385 82.2827 140.716 82.8631Z" fill="url(#paint58_radial_643_26607)"/>
<defs>
<linearGradient id="paint0_linear_643_26607" x1="213.462" y1="137.358" x2="154.597" y2="57.4484" gradientUnits="userSpaceOnUse">
<stop stop-color="#BBA5C6"/>
<stop offset="1" stop-color="#C6A8A5"/>
</linearGradient>
<radialGradient id="paint1_radial_643_26607" cx="0" cy="0" r="1" gradientUnits="userSpaceOnUse" gradientTransform="translate(134.712 100.906) rotate(178.491) scale(148.321 23.3841)">
<stop stop-color="#E4E7FF"/>
<stop offset="0.331421" stop-color="#E4E7FF" stop-opacity="0.668579"/>
<stop offset="1" stop-color="#E4E7FF" stop-opacity="0"/>
</radialGradient>
<radialGradient id="paint2_radial_643_26607" cx="0" cy="0" r="1" gradientUnits="userSpaceOnUse" gradientTransform="translate(130.096 103.943) rotate(-93.085) scale(32.1596 183.015)">
<stop offset="0.422634" stop-color="#B2DBBD" stop-opacity="0"/>
<stop offset="1" stop-color="#8CA2CB"/>
</radialGradient>
<radialGradient id="paint3_radial_643_26607" cx="0" cy="0" r="1" gradientUnits="userSpaceOnUse" gradientTransform="translate(148.237 106.972) rotate(3.69232) scale(80.186 7.27362)">
<stop stop-color="#5E697C"/>
<stop offset="1" stop-color="#7D8798" stop-opacity="0"/>
</radialGradient>
<radialGradient id="paint4_radial_643_26607" cx="0" cy="0" r="1" gradientUnits="userSpaceOnUse" gradientTransform="translate(90.862 106.972) rotate(4.78173) scale(61.9464 7.26338)">
<stop stop-color="#5E697C"/>
<stop offset="1" stop-color="#7D8798" stop-opacity="0"/>
</radialGradient>
<radialGradient id="paint5_radial_643_26607" cx="0" cy="0" r="1" gradientUnits="userSpaceOnUse" gradientTransform="translate(166.587 59.527) rotate(116.443) scale(69.6366 44.5222)">
<stop stop-color="#C8935E"/>
<stop offset="1" stop-color="#998269"/>
</radialGradient>
<radialGradient id="paint6_radial_643_26607" cx="0" cy="0" r="1" gradientUnits="userSpaceOnUse" gradientTransform="translate(144.952 108.894) rotate(-65.2704) scale(26.5475 6.93467)">
<stop stop-color="#874E21"/>
<stop offset="1" stop-color="#874E21" stop-opacity="0"/>
</radialGradient>
<radialGradient id="paint7_radial_643_26607" cx="0" cy="0" r="1" gradientUnits="userSpaceOnUse" gradientTransform="translate(153.462 61.0965) rotate(81.2605) scale(31.3252 8.20939)">
<stop stop-color="#874E21"/>
<stop offset="1" stop-color="#874E21" stop-opacity="0"/>
</radialGradient>
<linearGradient id="paint8_linear_643_26607" x1="156.456" y1="113.94" x2="156.456" y2="97.6091" gradientUnits="userSpaceOnUse">
<stop stop-color="#1C1408"/>
<stop offset="0.388472" stop-color="#4E4934"/>
<stop offset="1" stop-color="#8E886B" stop-opacity="0"/>
</linearGradient>
<radialGradient id="paint9_radial_643_26607" cx="0" cy="0" r="1" gradientUnits="userSpaceOnUse" gradientTransform="translate(173.077 24.8077) rotate(167.978) scale(15.9262 7.72569)">
<stop stop-color="#C8935E"/>
<stop offset="1" stop-color="#C8A782"/>
</radialGradient>
<radialGradient id="paint10_radial_643_26607" cx="0" cy="0" r="1" gradientUnits="userSpaceOnUse" gradientTransform="translate(166.442 36.4904) rotate(-13.3245) scale(16.8972 10.2907)">
<stop stop-color="#874E21"/>
<stop offset="1" stop-color="#874E21" stop-opacity="0"/>
</radialGradient>
<radialGradient id="paint11_radial_643_26607" cx="0" cy="0" r="1" gradientUnits="userSpaceOnUse" gradientTransform="translate(169.503 25.3846) rotate(-4.34428) scale(15.9384 4.78306)">
<stop stop-color="#FFF9EE" stop-opacity="0.7"/>
<stop offset="1" stop-color="#FFF9EE" stop-opacity="0"/>
</radialGradient>
<radialGradient id="paint12_radial_643_26607" cx="0" cy="0" r="1" gradientUnits="userSpaceOnUse" gradientTransform="translate(144.375 34.3269) rotate(148.812) scale(56.8176 34.7677)">
<stop stop-color="#C8935E"/>
<stop offset="1" stop-color="#C8A782"/>
</radialGradient>
<radialGradient id="paint13_radial_643_26607" cx="0" cy="0" r="1" gradientUnits="userSpaceOnUse" gradientTransform="translate(90.4327 37.0673) rotate(-45.7015) scale(24.9886 16.3925)">
<stop stop-color="#874E21"/>
<stop offset="1" stop-color="#874E21" stop-opacity="0"/>
</radialGradient>
<radialGradient id="paint14_radial_643_26607" cx="0" cy="0" r="1" gradientUnits="userSpaceOnUse" gradientTransform="translate(125.481 56.6827) rotate(-4.00878) scale(53.6409 24.3248)">
<stop stop-color="#FFF9EE" stop-opacity="0.7"/>
<stop offset="1" stop-color="#FFF9EE" stop-opacity="0"/>
</radialGradient>
<radialGradient id="paint15_radial_643_26607" cx="0" cy="0" r="1" gradientUnits="userSpaceOnUse" gradientTransform="translate(150.288 26.7548) rotate(-15.0614) scale(43.0161 28.2187)">
<stop stop-color="#874E21" stop-opacity="0.28"/>
<stop offset="1" stop-color="#874E21" stop-opacity="0"/>
</radialGradient>
<linearGradient id="paint16_linear_643_26607" x1="130.529" y1="118.125" x2="130.529" y2="92.4519" gradientUnits="userSpaceOnUse">
<stop offset="0.112359" stop-color="#312112"/>
<stop offset="0.442708" stop-color="#8E886B"/>
<stop offset="1" stop-color="#8E886B" stop-opacity="0"/>
</linearGradient>
<radialGradient id="paint17_radial_643_26607" cx="0" cy="0" r="1" gradientUnits="userSpaceOnUse" gradientTransform="translate(132.828 71.7158) rotate(-88.0023) scale(18.8662 14.46)">
<stop stop-color="#A67245"/>
<stop offset="1" stop-color="#ECC395" stop-opacity="0"/>
</radialGradient>
<radialGradient id="paint18_radial_643_26607" cx="0" cy="0" r="1" gradientUnits="userSpaceOnUse" gradientTransform="translate(89.2788 65.9135) rotate(78.4068) scale(50.2392 15.1686)">
<stop stop-color="#FFF9EE"/>
<stop offset="1" stop-color="#9C8C70"/>
</radialGradient>
<linearGradient id="paint19_linear_643_26607" x1="89.7115" y1="122.308" x2="89.5673" y2="94.3269" gradientUnits="userSpaceOnUse">
<stop offset="0.247655" stop-color="#39281C"/>
<stop offset="0.551957" stop-color="#8E886B"/>
<stop offset="1" stop-color="#8E886B" stop-opacity="0"/>
</linearGradient>
<radialGradient id="paint20_radial_643_26607" cx="0" cy="0" r="1" gradientUnits="userSpaceOnUse" gradientTransform="translate(63.2717 13.4086) rotate(-150.981) scale(8.1744 9.60685)">
<stop offset="0.442393" stop-color="#CC9E70"/>
<stop offset="0.750609" stop-color="#312117"/>
</radialGradient>
<radialGradient id="paint21_radial_643_26607" cx="0" cy="0" r="1" gradientUnits="userSpaceOnUse" gradientTransform="translate(99.5583 16.9129) rotate(14.8374) scale(7.65411 8.99539)">
<stop offset="0.442393" stop-color="#CC9E70"/>
<stop offset="1" stop-color="#312117"/>
</radialGradient>
<radialGradient id="paint22_radial_643_26607" cx="0" cy="0" r="1" gradientUnits="userSpaceOnUse" gradientTransform="translate(99.7493 10.6509) rotate(103.58) scale(25.4591 10.6514)">
<stop stop-color="#C8935E"/>
<stop offset="1" stop-color="#C8A782"/>
</radialGradient>
<radialGradient id="paint23_radial_643_26607" cx="0" cy="0" r="1" gradientUnits="userSpaceOnUse" gradientTransform="translate(90.004 30.5258) rotate(-42.3548) scale(18.6932 11.9917)">
<stop offset="0.100442" stop-color="#140C09"/>
<stop offset="1" stop-color="#874E21" stop-opacity="0"/>
</radialGradient>
<radialGradient id="paint24_radial_643_26607" cx="0" cy="0" r="1" gradientUnits="userSpaceOnUse" gradientTransform="translate(94.4499 23.0936) rotate(-38.6354) scale(15.0224 4.88001)">
<stop stop-color="#FFF9EE"/>
<stop offset="1" stop-color="#FFF9EE" stop-opacity="0"/>
</radialGradient>
<radialGradient id="paint25_radial_643_26607" cx="0" cy="0" r="1" gradientUnits="userSpaceOnUse" gradientTransform="translate(61.7605 10.7147) rotate(76.0112) scale(31.0643 11.3233)">
<stop stop-color="#C8935E"/>
<stop offset="1" stop-color="#C8A782"/>
</radialGradient>
<radialGradient id="paint26_radial_643_26607" cx="0" cy="0" r="1" gradientUnits="userSpaceOnUse" gradientTransform="translate(67.7679 37.2197) rotate(-117.616) scale(22.6792 11.8161)">
<stop offset="0.100442" stop-color="#140C09"/>
<stop offset="1" stop-color="#874E21" stop-opacity="0"/>
</radialGradient>
<radialGradient id="paint27_radial_643_26607" cx="0" cy="0" r="1" gradientUnits="userSpaceOnUse" gradientTransform="translate(68.1542 28.1275) rotate(-109.24) scale(21.2235 6.50221)">
<stop stop-color="#FFF9EE"/>
<stop offset="1" stop-color="#FFF9EE" stop-opacity="0"/>
</radialGradient>
<radialGradient id="paint28_radial_643_26607" cx="0" cy="0" r="1" gradientUnits="userSpaceOnUse" gradientTransform="translate(82.2213 19.4144) rotate(101.791) scale(39.5062 25.6518)">
<stop stop-color="#C8935E"/>
<stop offset="1" stop-color="#C8A782"/>
</radialGradient>
<radialGradient id="paint29_radial_643_26607" cx="0" cy="0" r="1" gradientUnits="userSpaceOnUse" gradientTransform="translate(100.244 42.7217) rotate(-82.4151) scale(19.9117 7.45959)">
<stop offset="0.0677083" stop-color="#874E21"/>
<stop offset="1" stop-color="#874E21" stop-opacity="0"/>
</radialGradient>
<radialGradient id="paint30_radial_643_26607" cx="0" cy="0" r="1" gradientUnits="userSpaceOnUse" gradientTransform="translate(72.2715 35.7471) rotate(-0.654987) scale(33.0595 33.0595)">
<stop stop-color="#FFF9EE"/>
<stop offset="0.655267" stop-color="#FFF9EE" stop-opacity="0"/>
</radialGradient>
<radialGradient id="paint31_radial_643_26607" cx="0" cy="0" r="1" gradientUnits="userSpaceOnUse" gradientTransform="translate(85.4127 42.7217) rotate(-6.00103) scale(7.45625 7.21849)">
<stop offset="0.171052" stop-color="#FFF9F0"/>
<stop offset="1" stop-color="#FFF9EE" stop-opacity="0"/>
</radialGradient>
<radialGradient id="paint32_radial_643_26607" cx="0" cy="0" r="1" gradientUnits="userSpaceOnUse" gradientTransform="translate(67.6588 41.4888) rotate(-157.891) scale(8.26619 8.0026)">
<stop offset="0.171052" stop-color="#FFF9F0"/>
<stop offset="1" stop-color="#FFF9EE" stop-opacity="0"/>
</radialGradient>
<radialGradient id="paint33_radial_643_26607" cx="0" cy="0" r="1" gradientUnits="userSpaceOnUse" gradientTransform="translate(84.5995 42.6335) rotate(68.8692) scale(5.26342 4.79546)">
<stop stop-color="#DFB74F"/>
<stop offset="1" stop-color="#784525"/>
</radialGradient>
<radialGradient id="paint34_radial_643_26607" cx="0" cy="0" r="1" gradientUnits="userSpaceOnUse" gradientTransform="translate(85.0107 43.3204) rotate(-20.5648) scale(7.05467 5.20608)">
<stop offset="0.46875" stop-color="#1C1308" stop-opacity="0"/>
<stop offset="0.862758" stop-color="#1C1308"/>
</radialGradient>
<radialGradient id="paint35_radial_643_26607" cx="0" cy="0" r="1" gradientUnits="userSpaceOnUse" gradientTransform="translate(86.4844 43.1877) rotate(96.9849) scale(4.14433 3.76381)">
<stop stop-color="#ECC283"/>
<stop offset="0.966518" stop-color="#ECC283" stop-opacity="0"/>
</radialGradient>
<radialGradient id="paint36_radial_643_26607" cx="0" cy="0" r="1" gradientUnits="userSpaceOnUse" gradientTransform="translate(67.5669 40.8207) rotate(123.026) scale(5.15974 4.701)">
<stop stop-color="#DFB74F"/>
<stop offset="1" stop-color="#784525"/>
</radialGradient>
<radialGradient id="paint37_radial_643_26607" cx="0" cy="0" r="1" gradientUnits="userSpaceOnUse" gradientTransform="translate(67.0337 41.3965) rotate(-147.54) scale(6.9157 5.10354)">
<stop offset="0.46875" stop-color="#1C1308" stop-opacity="0"/>
<stop offset="0.862758" stop-color="#1C1308"/>
</radialGradient>
<radialGradient id="paint38_radial_643_26607" cx="0" cy="0" r="1" gradientUnits="userSpaceOnUse" gradientTransform="translate(65.6468 40.9715) rotate(94.9106) scale(4.06269 3.68967)">
<stop stop-color="#ECC283"/>
<stop offset="0.966518" stop-color="#ECC283" stop-opacity="0"/>
</radialGradient>
<radialGradient id="paint39_radial_643_26607" cx="0" cy="0" r="1" gradientUnits="userSpaceOnUse" gradientTransform="translate(73.9633 41.7543) rotate(45.7848) scale(29.0741 29.0741)">
<stop stop-color="#FFF9EE" stop-opacity="0.7"/>
<stop offset="0.655267" stop-color="#CCAA85"/>
</radialGradient>
<radialGradient id="paint40_radial_643_26607" cx="0" cy="0" r="1" gradientUnits="userSpaceOnUse" gradientTransform="translate(81.4726 47.0108) rotate(32.5175) scale(17.8108 8.312)">
<stop stop-color="#BB7634"/>
<stop offset="1" stop-color="#D1965E" stop-opacity="0"/>
</radialGradient>
<radialGradient id="paint41_radial_643_26607" cx="0" cy="0" r="1" gradientUnits="userSpaceOnUse" gradientTransform="translate(72.6492 46.0721) rotate(156.705) scale(14.7163 6.86785)">
<stop stop-color="#BB7634"/>
<stop offset="1" stop-color="#D1965E" stop-opacity="0"/>
</radialGradient>
<radialGradient id="paint42_radial_643_26607" cx="0" cy="0" r="1" gradientUnits="userSpaceOnUse" gradientTransform="translate(74.3388 58.6501) rotate(2.1211) scale(20.2889 16.6375)">
<stop stop-color="#FFF9F0"/>
<stop offset="0.655267" stop-color="#FFF9EE" stop-opacity="0"/>
</radialGradient>
<radialGradient id="paint43_radial_643_26607" cx="0" cy="0" r="1" gradientUnits="userSpaceOnUse" gradientTransform="translate(75.0898 53.0186) rotate(-84.0939) scale(32.8396 9.09018)">
<stop stop-color="#FFF9EE"/>
<stop offset="0.655267" stop-color="#FFF9EE" stop-opacity="0"/>
</radialGradient>
<radialGradient id="paint44_radial_643_26607" cx="0" cy="0" r="1" gradientUnits="userSpaceOnUse" gradientTransform="translate(69.7111 53.9571) rotate(29.0531) scale(9.66453 5.45857)">
<stop stop-color="#FFF9EE"/>
<stop offset="1" stop-color="#DABB9B"/>
</radialGradient>
<radialGradient id="paint45_radial_643_26607" cx="0" cy="0" r="1" gradientUnits="userSpaceOnUse" gradientTransform="translate(80.3624 54.765) rotate(148.436) scale(12.2144 7.31639)">
<stop stop-color="#FFF9EE"/>
<stop offset="1" stop-color="#DABB9B"/>
</radialGradient>
<radialGradient id="paint46_radial_643_26607" cx="0" cy="0" r="1" gradientUnits="userSpaceOnUse" gradientTransform="translate(74.9844 53.3394) rotate(87.0034) scale(3.98565 5.35999)">
<stop stop-color="#D4906A"/>
<stop offset="0.640625" stop-color="#A06D4C"/>
<stop offset="1" stop-color="#5E4126"/>
</radialGradient>
<radialGradient id="paint47_radial_643_26607" cx="0" cy="0" r="1" gradientUnits="userSpaceOnUse" gradientTransform="translate(73.995 52.7062) rotate(7.62106) scale(5.11567 2.32045)">
<stop stop-color="#FCB389"/>
<stop offset="1" stop-color="#FCB389" stop-opacity="0"/>
</radialGradient>
<linearGradient id="paint48_linear_643_26607" x1="80.3498" y1="57.6178" x2="75.3727" y2="57.4495" gradientUnits="userSpaceOnUse">
<stop stop-color="#855C3D"/>
<stop offset="1" stop-color="#573E2C"/>
</linearGradient>
<linearGradient id="paint49_linear_643_26607" x1="69.52" y1="56.7929" x2="73.9018" y2="57.2526" gradientUnits="userSpaceOnUse">
<stop stop-color="#855C3D"/>
<stop offset="1" stop-color="#573E2C"/>
</linearGradient>
<radialGradient id="paint50_radial_643_26607" cx="0" cy="0" r="1" gradientUnits="userSpaceOnUse" gradientTransform="translate(101.41 74.6881) rotate(40.6797) scale(4.2827 2.90293)">
<stop offset="0.125" stop-color="#874E21"/>
<stop offset="1" stop-color="#874E21" stop-opacity="0"/>
</radialGradient>
<radialGradient id="paint51_radial_643_26607" cx="0" cy="0" r="1" gradientUnits="userSpaceOnUse" gradientTransform="translate(142.486 68.4733) rotate(81.0359) scale(4.2827 2.90293)">
<stop offset="0.125" stop-color="#874E21"/>
<stop offset="1" stop-color="#874E21" stop-opacity="0"/>
</radialGradient>
<radialGradient id="paint52_radial_643_26607" cx="0" cy="0" r="1" gradientUnits="userSpaceOnUse" gradientTransform="translate(108.487 90.8117) rotate(64.4328) scale(3.18528 2.16534)">
<stop offset="0.125" stop-color="#874E21"/>
<stop offset="1" stop-color="#874E21" stop-opacity="0"/>
</radialGradient>
<radialGradient id="paint53_radial_643_26607" cx="0" cy="0" r="1" gradientUnits="userSpaceOnUse" gradientTransform="translate(143.366 87.0042) rotate(64.4328) scale(3.18528 2.16534)">
<stop offset="0.125" stop-color="#874E21"/>
<stop offset="1" stop-color="#874E21" stop-opacity="0"/>
</radialGradient>
<radialGradient id="paint54_radial_643_26607" cx="0" cy="0" r="1" gradientUnits="userSpaceOnUse" gradientTransform="translate(147.589 94.3291) rotate(100.175) scale(3.18528 2.16534)">
<stop offset="0.125" stop-color="#874E21"/>
<stop offset="1" stop-color="#874E21" stop-opacity="0"/>
</radialGradient>
<radialGradient id="paint55_radial_643_26607" cx="0" cy="0" r="1" gradientUnits="userSpaceOnUse" gradientTransform="translate(114.657 95.3884) rotate(87.1127) scale(4.3203 2.16534)">
<stop offset="0.125" stop-color="#874E21"/>
<stop offset="1" stop-color="#874E21" stop-opacity="0"/>
</radialGradient>
<radialGradient id="paint56_radial_643_26607" cx="0" cy="0" r="1" gradientUnits="userSpaceOnUse" gradientTransform="translate(146.119 78.7726) rotate(87.1127) scale(4.3203 2.16534)">
<stop offset="0.125" stop-color="#874E21"/>
<stop offset="1" stop-color="#874E21" stop-opacity="0"/>
</radialGradient>
<radialGradient id="paint57_radial_643_26607" cx="0" cy="0" r="1" gradientUnits="userSpaceOnUse" gradientTransform="translate(109.945 81.6284) rotate(70.8246) scale(5.37538 3.19963)">
<stop offset="0.125" stop-color="#874E21"/>
<stop offset="1" stop-color="#874E21" stop-opacity="0"/>
</radialGradient>
<radialGradient id="paint58_radial_643_26607" cx="0" cy="0" r="1" gradientUnits="userSpaceOnUse" gradientTransform="translate(138.95 77.786) rotate(70.8246) scale(5.37538 3.19963)">
<stop offset="0.125" stop-color="#874E21"/>
<stop offset="1" stop-color="#874E21" stop-opacity="0"/>
</radialGradient>
</defs>
</svg>
