<svg viewBox="0 0 240 120" fill="none" xmlns="http://www.w3.org/2000/svg">
<path d="M98.1208 27.1078C89.0606 34.6595 87.7539 39.0577 87.5462 44.4476C87.3385 49.8375 103.811 73.5384 134.513 71.3894C165.215 69.2405 170.451 44.0695 170.345 40.6861C170.239 37.3027 171.544 29.871 167.2 24.9603C162.856 20.0496 154.569 15.9071 145.966 14.216C137.364 12.5249 107.181 19.5561 98.1208 27.1078Z" fill="url(#paint0_linear_9363_1685)"/>
<path d="M98.1208 27.1078C89.0606 34.6595 87.7539 39.0577 87.5462 44.4476C87.3385 49.8375 103.811 73.5384 134.513 71.3894C165.215 69.2405 170.451 44.0695 170.345 40.6861C170.239 37.3027 171.544 29.871 167.2 24.9603C162.856 20.0496 154.569 15.9071 145.966 14.216C137.364 12.5249 107.181 19.5561 98.1208 27.1078Z" fill="url(#paint1_radial_9363_1685)"/>
<path d="M98.1208 27.1078C89.0606 34.6595 87.7539 39.0577 87.5462 44.4476C87.3385 49.8375 103.811 73.5384 134.513 71.3894C165.215 69.2405 170.451 44.0695 170.345 40.6861C170.239 37.3027 171.544 29.871 167.2 24.9603C162.856 20.0496 154.569 15.9071 145.966 14.216C137.364 12.5249 107.181 19.5561 98.1208 27.1078Z" fill="url(#paint2_radial_9363_1685)"/>
<path d="M98.1208 27.1078C89.0606 34.6595 87.7539 39.0577 87.5462 44.4476C87.3385 49.8375 103.811 73.5384 134.513 71.3894C165.215 69.2405 170.451 44.0695 170.345 40.6861C170.239 37.3027 171.544 29.871 167.2 24.9603C162.856 20.0496 154.569 15.9071 145.966 14.216C137.364 12.5249 107.181 19.5561 98.1208 27.1078Z" fill="url(#paint3_radial_9363_1685)"/>
<path d="M96.4886 33.446C97.0663 31.1432 98.1112 29.8627 99.8596 27.0305C101.689 26.2228 102.987 28.5745 101.282 32.1875C98.88 37.2736 101.232 47.6331 99.5899 45.5643C97.9482 43.4954 97.4548 46.5131 97.1728 45.2071C96.8909 43.9011 95.9108 35.7488 96.4886 33.446Z" fill="url(#paint4_radial_9363_1685)"/>
<path d="M126.783 48.0747C120.917 52.2187 111.442 46.3936 107.438 42.9631C104.83 37.9488 108.03 23.5437 109.55 24.4179C111.449 25.5107 121.82 19.2039 123.346 22.2649C124.873 25.3259 127.964 39.1438 126.783 48.0747Z" fill="url(#paint5_radial_9363_1685)"/>
<path d="M137.397 41.0474C135.405 34.4411 138.434 22.6757 140.197 17.6188C142.472 19.2466 146.908 22.9726 146.452 24.854C145.882 27.2057 151.87 32.6267 150.322 34.7079C148.775 36.7891 141.839 41.6695 137.397 41.0474Z" fill="url(#paint6_radial_9363_1685)"/>
<path d="M128.466 24.8699C126.114 25.7801 123.389 23.8356 125.032 20.8786C126.674 17.9215 129.777 20.2346 130.163 21.2515C130.549 22.2684 130.818 23.9596 128.466 24.8699Z" fill="url(#paint7_radial_9363_1685)"/>
<path d="M157.492 41.3541C154.499 42.5124 151.032 40.0379 153.122 36.2749C155.213 32.5119 159.161 35.4555 159.652 36.7495C160.144 38.0435 160.485 40.1957 157.492 41.3541Z" fill="url(#paint8_radial_9363_1685)"/>
<path fill-rule="evenodd" clip-rule="evenodd" d="M228.087 92.9266V105.577C209.571 107.18 196.923 111.256 156.779 106.298L169.149 98.3453C186.599 87.2363 208.9 93.6758 228.087 92.9266Z" fill="url(#paint9_radial_9363_1685)"/>
<path fill-rule="evenodd" clip-rule="evenodd" d="M222.156 104.771V111.193C203.64 112.006 196.27 113.71 156.125 111.193L163.218 107.522C180.667 101.882 202.968 105.151 222.156 104.771Z" fill="url(#paint10_radial_9363_1685)"/>
<path fill-rule="evenodd" clip-rule="evenodd" d="M159.542 92.7068V105.357C141.025 106.96 128.377 111.037 88.2332 106.078L100.604 98.1256C118.053 87.0166 140.354 93.4561 159.542 92.7068Z" fill="url(#paint11_radial_9363_1685)"/>
<path fill-rule="evenodd" clip-rule="evenodd" d="M183.592 55.7053V80.1879C165.076 83.2904 152.428 91.1796 112.284 81.5836L124.654 66.1924C142.103 44.6927 164.404 57.1553 183.592 55.7053Z" fill="url(#paint12_radial_9363_1685)"/>
<path d="M80.4484 37.5532C80.1021 38.326 83.9877 44.1507 95.2866 49.5858L97.7807 49.4044C93.7942 48.3602 80.7948 36.7804 80.4484 37.5532Z" fill="url(#paint13_radial_9363_1685)"/>
<path d="M76.5884 57.4651C76.4641 56.6274 81.2296 51.3531 93.5776 49.1775L96.4807 50.7449C92.3603 50.6717 76.7128 58.3028 76.5884 57.4651Z" fill="url(#paint14_radial_9363_1685)"/>
<path d="M79.6387 39.3481C79.329 39.9066 81.8757 44.5319 90.0176 49.3389L91.9033 49.3623C88.9747 48.3225 79.9484 38.7896 79.6387 39.3481Z" fill="url(#paint15_radial_9363_1685)"/>
<path d="M35.2712 17.3084C35.0677 18.0232 38.1212 22.2927 46.389 24.9557L47.7453 24.7508C44.77 23.4173 35.4747 16.5935 35.2712 17.3084Z" fill="url(#paint16_radial_9363_1685)"/>
<path d="M38.5305 13.5506C39.1265 13.3202 43.0216 15.5994 45.9503 22.4689L45.5884 24.0144C45.1927 21.5723 37.9345 13.7809 38.5305 13.5506Z" fill="url(#paint17_radial_9363_1685)"/>
<path d="M57.3247 26.5699C58.0482 26.3088 63.3516 29.2703 66.2479 38.15L64.9239 38.9085C64.4619 35.8163 56.6012 26.8311 57.3247 26.5699Z" fill="url(#paint18_radial_9363_1685)"/>
<path d="M49.4714 34.3224C49.5048 35.0909 54.2594 38.8711 63.5736 38.1759L63.7721 36.6631C60.7363 37.4108 49.4381 33.5539 49.4714 34.3224Z" fill="url(#paint19_radial_9363_1685)"/>
<path d="M75.567 52.5618C75.5529 51.9233 79.0936 48.6269 88.5372 48.1624L91.8602 49.6517C88.7843 49.2088 75.5811 53.2002 75.567 52.5618Z" fill="url(#paint20_radial_9363_1685)"/>
<path d="M77.4063 40.3137C77.17 40.8689 78.5843 44.5904 86.7071 48.3091L89.9142 48.5214C87.0601 47.8315 77.6425 39.7585 77.4063 40.3137Z" fill="url(#paint21_radial_9363_1685)"/>
<path d="M34.7133 21.3634C34.6645 21.8936 39.7323 25.8072 47.7646 25.7324L46.4372 24.3868C44.0257 24.5929 34.762 20.8332 34.7133 21.3634Z" fill="url(#paint22_radial_9363_1685)"/>
<path d="M42.5709 11.792C43.094 11.7571 47.3672 17.1803 47.0961 25.0851L45.6674 23.5369C45.9294 21.1682 42.0479 11.827 42.5709 11.792Z" fill="url(#paint23_radial_9363_1685)"/>
<path d="M72.9665 49.1659C73.0852 48.5743 76.704 46.1601 85.5072 47.6806L87.924 49.4599C85.1792 48.4168 72.8478 49.7574 72.9665 49.1659Z" fill="url(#paint24_radial_9363_1685)"/>
<path d="M64.4951 30.4653C64.0338 31.1755 65.7863 37.6362 77.3009 44.6416L81.2752 45.8095C77.4973 44.1632 64.9564 29.7552 64.4951 30.4653Z" fill="url(#paint25_radial_9363_1685)"/>
<path d="M49.3459 40.6647C49.569 39.8477 55.5081 36.5541 68.4494 40.7893L71.9659 42.9786C68.223 41.2543 49.1229 41.4816 49.3459 40.6647Z" fill="url(#paint26_radial_9363_1685)"/>
<path d="M28.3823 12.118C28.9621 11.5294 35.4477 11.3981 41.2975 18.8466L42.7389 21.1574C41.0634 18.579 27.8024 12.7066 28.3823 12.118Z" fill="url(#paint27_radial_9363_1685)"/>
<path d="M34.8109 27.9382C34.9955 27.2622 39.8773 24.6325 50.6176 28.0413L53.5273 29.8528C50.4303 28.426 34.6263 28.6142 34.8109 27.9382Z" fill="url(#paint28_radial_9363_1685)"/>
<path d="M47.09 14.4889C46.4535 15.0474 46.2894 22.1245 55.5742 31.6054L57.9175 32.4785C54.7273 29.8698 47.7266 13.9303 47.09 14.4889Z" fill="url(#paint29_radial_9363_1685)"/>
<path fill-rule="evenodd" clip-rule="evenodd" d="M66.5503 38.0875C78.4474 45.4307 91.5528 49.7823 103.324 48.1739L103.768 50.7229C91.4191 52.4102 77.6791 46.8672 65.6963 39.4711C53.6852 32.0575 43.2837 22.6846 37.5587 16.4719L38.4665 15.9508C44.1048 22.0694 54.6817 30.7618 66.5503 38.0875Z" fill="url(#paint30_radial_9363_1685)"/>
<path d="M77.1437 61.5363C77.9472 61.2689 83.3546 65.7171 87.6334 77.5025L87.2037 79.9661C86.5631 75.8951 76.3401 61.8036 77.1437 61.5363Z" fill="url(#paint31_radial_9363_1685)"/>
<path d="M97.3434 59.6865C96.5223 59.4791 90.7982 63.6937 87.3997 75.7625L88.6692 78.8077C89.008 74.7006 98.1645 59.8939 97.3434 59.6865Z" fill="url(#paint32_radial_9363_1685)"/>
<path d="M79.0119 60.9092C79.5985 60.6568 83.9462 63.653 87.9156 72.2344L87.7504 74.113C87.0084 71.0952 78.4252 61.1615 79.0119 60.9092Z" fill="url(#paint33_radial_9363_1685)"/>
<path d="M61.5147 14.5634C62.2463 14.4324 66.1894 17.8972 68.0129 26.3897L67.6735 27.7188C66.644 24.6251 60.7832 14.6945 61.5147 14.5634Z" fill="url(#paint34_radial_9363_1685)"/>
<path d="M57.4514 17.4303C57.1627 18.0004 59.0413 22.1036 65.5837 25.7041L67.1576 25.4985C64.7673 24.8608 57.7402 16.8603 57.4514 17.4303Z" fill="url(#paint35_radial_9363_1685)"/>
<path d="M68.5265 37.4333C68.1944 38.1271 70.6112 43.6998 79.157 47.4689L80.044 46.2274C77.0134 45.4587 68.8587 36.7396 68.5265 37.4333Z" fill="url(#paint36_radial_9363_1685)"/>
<path d="M77.0245 30.3922C77.7858 30.5022 81.0719 35.6108 79.4496 44.8089L77.9245 44.8552C78.9718 41.9093 76.2632 30.2823 77.0245 30.3922Z" fill="url(#paint37_radial_9363_1685)"/>
<path d="M92.568 58.1811C91.9341 58.1033 88.3004 61.2969 86.8947 70.6468L88.0445 74.102C87.9111 70.9972 93.2018 58.259 92.568 58.1811Z" fill="url(#paint38_radial_9363_1685)"/>
<path d="M80.1971 58.7858C80.7731 58.6062 84.3346 60.3853 87.2231 68.839L87.1138 72.0512C86.7126 69.1425 79.621 58.9654 80.1971 58.7858Z" fill="url(#paint39_radial_9363_1685)"/>
<path d="M65.6056 14.4146C66.138 14.419 69.5256 19.8525 68.6486 27.8372L67.4424 26.3819C67.8884 24.0031 65.0732 14.4101 65.6056 14.4146Z" fill="url(#paint40_radial_9363_1685)"/>
<path d="M55.2967 21.2746C55.2096 21.7916 60.1788 26.5853 68.0711 27.1055L66.6733 25.5292C64.2903 25.5532 55.3837 20.7577 55.2967 21.2746Z" fill="url(#paint41_radial_9363_1685)"/>
<path d="M89.4456 55.251C88.8451 55.31 86.0814 58.6694 86.7146 67.5805L88.2436 70.163C87.4799 67.3278 90.046 55.192 89.4456 55.251Z" fill="url(#paint42_radial_9363_1685)"/>
<path d="M71.6881 44.9547C72.4408 44.5666 78.6941 46.956 84.5139 59.1129L85.2788 63.184C84.0182 59.2606 70.9354 45.3428 71.6881 44.9547Z" fill="url(#paint43_radial_9363_1685)"/>
<path d="M83.3484 30.9003C82.5133 31.0406 78.6427 36.6209 81.5635 49.9206L83.3905 53.6383C82.0488 49.7418 84.1836 30.76 83.3484 30.9003Z" fill="url(#paint44_radial_9363_1685)"/>
<path d="M57.0396 7.18897C56.396 7.70707 55.6173 14.1471 62.444 20.712L64.5992 22.377C62.2012 20.4522 57.6832 6.67086 57.0396 7.18897Z" fill="url(#paint45_radial_9363_1685)"/>
<path d="M72.1383 15.1664C71.4473 15.2826 68.3429 19.8772 70.6614 30.9043L72.1731 33.9805C71.063 30.7564 72.8293 15.0503 72.1383 15.1664Z" fill="url(#paint46_radial_9363_1685)"/>
<path d="M57.529 26.0416C58.1483 25.4641 65.2064 26.008 73.7121 36.1936L74.3467 38.6125C72.0699 35.1776 56.9096 26.6192 57.529 26.0416Z" fill="url(#paint47_radial_9363_1685)"/>
<path fill-rule="evenodd" clip-rule="evenodd" d="M79.0651 47.7589C85.1827 60.3302 88.203 73.8049 85.4265 85.3569L87.9183 86.0532C90.8311 73.9344 86.6888 59.7093 80.5271 47.0475C74.3508 34.3556 66.0641 23.0696 60.4546 16.7525L59.8454 17.6037C65.37 23.8252 72.962 35.2177 79.0651 47.7589Z" fill="url(#paint48_radial_9363_1685)"/>
<path d="M55.8852 44.8405C44.9676 40.3883 22.7517 56.0058 18.8342 71.3492C15.5189 79.2426 30.913 99.4238 41.686 104.321C50.3044 108.238 89.2531 108.855 109.167 108.638C118.198 108.638 127.46 93.4823 128.831 86.3656C130.203 79.249 130.168 75.4131 127.883 63.0078C124.767 46.095 107.482 40.5794 104.217 40.5796C77.7869 40.5809 66.8027 49.2926 55.8852 44.8405Z" fill="url(#paint49_linear_9363_1685)"/>
<path d="M55.8852 44.8405C44.9676 40.3883 22.7517 56.0058 18.8342 71.3492C15.5189 79.2426 30.913 99.4238 41.686 104.321C50.3044 108.238 89.2531 108.855 109.167 108.638C118.198 108.638 127.46 93.4823 128.831 86.3656C130.203 79.249 130.168 75.4131 127.883 63.0078C124.767 46.095 107.482 40.5794 104.217 40.5796C77.7869 40.5809 66.8027 49.2926 55.8852 44.8405Z" fill="url(#paint50_radial_9363_1685)"/>
<path d="M55.8852 44.8405C44.9676 40.3883 22.7517 56.0058 18.8342 71.3492C15.5189 79.2426 30.913 99.4238 41.686 104.321C50.3044 108.238 89.2531 108.855 109.167 108.638C118.198 108.638 127.46 93.4823 128.831 86.3656C130.203 79.249 130.168 75.4131 127.883 63.0078C124.767 46.095 107.482 40.5794 104.217 40.5796C77.7869 40.5809 66.8027 49.2926 55.8852 44.8405Z" fill="url(#paint51_radial_9363_1685)"/>
<path d="M101.497 39.3738C100.171 42.9021 98.21 47.0014 95.6777 50.9708C95.2612 51.6238 85.0596 88.6165 71.9788 86.8618C58.8971 85.1033 65.5664 65.7403 71.9833 54.838C75.4987 48.866 79.6797 44.903 85.0948 40.9783C89.7337 40.1054 95.1084 39.4497 101.497 39.3738Z" fill="url(#paint52_radial_9363_1685)"/>
<path d="M85.8677 104.033C79.9861 107.727 71.9064 100.858 68.6017 96.9617C66.7646 91.5741 71.3512 77.1086 72.6536 78.1487C74.2816 79.4488 84.5647 73.9647 85.6256 77.2474C86.6866 80.5301 87.9704 94.9892 85.8677 104.033Z" fill="url(#paint53_radial_9363_1685)"/>
<path d="M55.9692 99.7072C48.6892 103.766 38.4738 95.8758 34.2762 91.4233C31.8848 85.3153 37.3541 69.0866 38.9995 70.2827C41.0563 71.7779 53.8019 65.7788 55.1861 69.4994C56.5703 73.2199 58.4333 89.5468 55.9692 99.7072Z" fill="url(#paint54_radial_9363_1685)"/>
<path d="M49.5271 72.551C48.0422 64.6817 52.9884 51.4781 55.6471 45.8599C58.0715 48.0189 62.7307 52.8656 61.9727 54.9805C61.0251 57.6241 67.2663 64.6181 65.2242 66.829C63.182 69.0399 54.5763 73.8165 49.5271 72.551Z" fill="url(#paint55_radial_9363_1685)"/>
<path d="M27.707 67.9468C28.6276 64.168 30.4646 62.0627 33.4974 57.4093C36.7988 56.0747 39.3177 59.9229 36.4093 65.8563C32.315 74.2087 37.2396 91.1801 34.1098 87.7975C30.9799 84.4149 30.2565 89.3653 29.6621 87.2256C29.0678 85.086 26.7864 71.7256 27.707 67.9468Z" fill="url(#paint56_radial_9363_1685)"/>
<path d="M60.9495 96.2586C57.033 97.0832 52.2106 92.3721 54.7249 87.4103C57.2392 82.4486 62.7404 88.0001 63.4943 90.0683C64.2482 92.1365 64.866 95.4341 60.9495 96.2586Z" fill="url(#paint57_radial_9363_1685)"/>
<path d="M40.3229 61.8945C37.9871 59.336 39.3816 53.6694 44.1868 53.3644C48.992 53.0593 47.269 59.6013 46.0578 61.0724C44.8466 62.5434 42.6587 64.4531 40.3229 61.8945Z" fill="url(#paint58_radial_9363_1685)"/>
<path d="M83.5144 62.8389C80.836 63.5595 78.0837 61.1147 80.2256 58.073C82.3675 55.0313 85.4903 57.9233 85.7936 59.0804C86.097 60.2375 86.1928 62.1183 83.5144 62.8389Z" fill="url(#paint59_radial_9363_1685)"/>
<path d="M106.418 43.2093C121.733 42.8548 129.627 71.2256 126.99 84.9701C124.593 97.4629 113.93 107.623 105.336 106.934C96.7434 106.246 87.592 85.887 87.592 72.2867C87.592 67.228 87.2332 57.0291 89.7129 52.6423C92.1926 48.2555 91.1036 43.5639 106.418 43.2093Z" fill="url(#paint60_radial_9363_1685)"/>
<path d="M106.418 43.2093C121.733 42.8548 129.627 71.2256 126.99 84.9701C124.593 97.4629 113.93 107.623 105.336 106.934C96.7434 106.246 87.592 85.887 87.592 72.2867C87.592 67.228 87.2332 57.0291 89.7129 52.6423C92.1926 48.2555 91.1036 43.5639 106.418 43.2093Z" fill="url(#paint61_radial_9363_1685)"/>
<path d="M132.402 86.5329C129.357 71.2666 143.088 56.8495 155.825 55.4023C168.561 53.955 176.187 55.484 181.685 57.0181C187.184 58.5522 194.006 65.8416 196.32 69.8116C198.635 73.7816 197.743 81.6072 195.252 86.5329C192.76 91.4586 181.131 105.361 168.673 105.87C156.214 106.379 135.448 101.799 132.402 86.5329Z" fill="url(#paint62_radial_9363_1685)"/>
<path d="M132.402 86.5329C129.357 71.2666 143.088 56.8495 155.825 55.4023C168.561 53.955 176.187 55.484 181.685 57.0181C187.184 58.5522 194.006 65.8416 196.32 69.8116C198.635 73.7816 197.743 81.6072 195.252 86.5329C192.76 91.4586 181.131 105.361 168.673 105.87C156.214 106.379 135.448 101.799 132.402 86.5329Z" fill="url(#paint63_radial_9363_1685)"/>
<path d="M153.522 57.3178C171.535 55.5949 180.974 66.2531 182.66 79.5255C183.316 85.1242 183.478 93.1046 179.466 97.8228C175.489 100.929 173.215 104.161 168.426 104.35C156.567 104.818 136.799 100.604 133.9 86.5509C131.168 73.3047 142.266 58.3944 153.522 57.3178Z" fill="url(#paint64_radial_9363_1685)"/>
<path d="M153.522 57.3178C171.535 55.5949 180.974 66.2531 182.66 79.5255C183.316 85.1242 183.478 93.1046 179.466 97.8228C175.489 100.929 173.215 104.161 168.426 104.35C156.567 104.818 136.799 100.604 133.9 86.5509C131.168 73.3047 142.266 58.3944 153.522 57.3178Z" fill="url(#paint65_radial_9363_1685)"/>
<path d="M193.172 75.1687C190.775 75.8136 188.312 73.6256 190.229 70.9034C192.146 68.1811 194.94 70.7694 195.212 71.805C195.483 72.8406 195.569 74.5238 193.172 75.1687Z" fill="url(#paint66_radial_9363_1685)"/>
<path d="M187.975 83.5862C186.232 84.0549 184.442 82.4648 185.835 80.4864C187.229 78.5079 189.26 80.389 189.457 81.1416C189.654 81.8942 189.717 83.1175 187.975 83.5862Z" fill="url(#paint67_radial_9363_1685)"/>
<path d="M178.892 60.6837C177.614 61.4299 174.686 60.1783 174.458 58.0191C174.23 55.86 177.612 57.3551 178.385 58.0555C179.158 58.756 180.17 59.9374 178.892 60.6837Z" fill="url(#paint68_radial_9363_1685)"/>
<path d="M178.219 91.8931C178.739 92.6562 175.681 99.6479 164.595 107.636L161.884 107.918C165.962 106.036 177.7 91.1299 178.219 91.8931Z" fill="url(#paint69_radial_9363_1685)"/>
<path d="M186.161 112.524C186.135 111.602 180.015 106.852 166.35 106.874L163.534 109.11C167.941 108.245 186.188 113.447 186.161 112.524Z" fill="url(#paint70_radial_9363_1685)"/>
<path d="M179.431 93.6662C179.87 94.2063 178.02 99.6554 170.201 106.367L168.182 106.752C171.126 105.078 178.992 93.126 179.431 93.6662Z" fill="url(#paint71_radial_9363_1685)"/>
<path d="M222.832 61.5481C223.186 62.2763 220.725 67.4403 212.362 71.8759L210.867 71.9149C213.805 69.9162 222.477 60.8199 222.832 61.5481Z" fill="url(#paint72_radial_9363_1685)"/>
<path d="M218.616 58.1391C217.932 58.0057 214.188 61.1948 212.357 69.1248L213.04 70.714C212.998 68.0181 219.299 58.2725 218.616 58.1391Z" fill="url(#paint73_radial_9363_1685)"/>
<path d="M200.935 75.6953C200.109 75.5532 194.983 79.7432 193.571 89.8241L195.136 90.3852C195.042 86.979 201.761 75.8374 200.935 75.6953Z" fill="url(#paint74_radial_9363_1685)"/>
<path d="M210.84 82.514C210.951 83.345 206.57 88.3087 196.443 89.3407L195.942 87.7552C199.342 87.978 210.729 81.6831 210.84 82.514Z" fill="url(#paint75_radial_9363_1685)"/>
<path d="M186.321 107.068C186.214 106.38 181.786 103.519 171.564 104.823L168.283 107.056C171.499 105.993 186.428 107.756 186.321 107.068Z" fill="url(#paint76_radial_9363_1685)"/>
<path d="M182.01 94.2761C182.369 94.8268 181.562 99.0899 173.556 104.631L170.155 105.47C173.086 104.185 181.65 93.7254 182.01 94.2761Z" fill="url(#paint77_radial_9363_1685)"/>
<path d="M224.203 65.7937C224.357 66.3533 219.666 71.5199 211.033 72.9727L212.201 71.2756C214.827 71.0364 224.05 65.2341 224.203 65.7937Z" fill="url(#paint78_radial_9363_1685)"/>
<path d="M213.944 57.0216C213.376 57.0839 209.826 63.7187 211.625 72.1489L212.863 70.2149C212.13 67.7233 214.512 56.9592 213.944 57.0216Z" fill="url(#paint79_radial_9363_1685)"/>
<path d="M188.466 102.925C188.225 102.313 183.881 100.413 174.726 103.725L172.472 106.096C175.218 104.452 188.706 103.537 188.466 102.925Z" fill="url(#paint80_radial_9363_1685)"/>
<path d="M193.986 81.245C194.616 81.919 193.969 89.1859 182.951 98.9006L178.909 100.912C182.649 98.4247 193.355 80.5711 193.986 81.245Z" fill="url(#paint81_radial_9363_1685)"/>
<path d="M212.188 89.2962C211.793 88.4622 204.792 86.0618 191.714 93.0763L188.358 96.0966C192.046 93.532 212.583 90.1302 212.188 89.2962Z" fill="url(#paint82_radial_9363_1685)"/>
<path d="M229.233 54.6629C228.498 54.142 221.514 55.239 216.659 64.3479L215.553 67.1025C216.859 64.0161 229.967 55.1838 229.233 54.6629Z" fill="url(#paint83_radial_9363_1685)"/>
<path d="M225.355 72.8663C225.028 72.1762 219.288 70.2863 208.414 75.994L205.638 78.4931C208.689 76.3711 225.682 73.5564 225.355 72.8663Z" fill="url(#paint84_radial_9363_1685)"/>
<path d="M209.61 60.7789C210.399 61.2567 211.926 68.8191 203.773 80.7645L201.426 82.1486C204.351 78.7406 208.82 60.3011 209.61 60.7789Z" fill="url(#paint85_radial_9363_1685)"/>
<path fill-rule="evenodd" clip-rule="evenodd" d="M193.235 89.8146C181.871 99.9648 168.64 107.136 155.702 107.657L155.712 110.477C169.285 109.93 182.97 101.36 194.416 91.1363C205.889 80.8888 215.261 68.8462 220.218 61.0871L219.144 60.7013C214.262 68.3429 204.572 79.6887 193.235 89.8146Z" fill="url(#paint86_radial_9363_1685)"/>
<defs>
<linearGradient id="paint0_linear_9363_1685" x1="100.667" y1="3.43289" x2="173.652" y2="81.7655" gradientUnits="userSpaceOnUse">
<stop stop-color="#FEAAB5"/>
<stop offset="1" stop-color="#B85700"/>
</linearGradient>
<radialGradient id="paint1_radial_9363_1685" cx="0" cy="0" r="1" gradientUnits="userSpaceOnUse" gradientTransform="translate(131.752 21.6114) rotate(165.528) scale(52.156 39.5083)">
<stop offset="0.353251" stop-color="#C82235" stop-opacity="0"/>
<stop offset="1" stop-color="#C82235"/>
</radialGradient>
<radialGradient id="paint2_radial_9363_1685" cx="0" cy="0" r="1" gradientUnits="userSpaceOnUse" gradientTransform="translate(122.729 25.6873) rotate(165.607) scale(42.898 21.6088)">
<stop stop-color="#FFE6EB" stop-opacity="0.7"/>
<stop offset="1" stop-color="#FFF0E6" stop-opacity="0"/>
</radialGradient>
<radialGradient id="paint3_radial_9363_1685" cx="0" cy="0" r="1" gradientUnits="userSpaceOnUse" gradientTransform="translate(124.588 26.3374) rotate(156.626) scale(72.9375 56.6472)">
<stop offset="0.460684" stop-color="#7D4906" stop-opacity="0"/>
<stop offset="0.737714" stop-color="#7D4906" stop-opacity="0.408793"/>
<stop offset="0.951518" stop-color="#7D4906"/>
</radialGradient>
<radialGradient id="paint4_radial_9363_1685" cx="0" cy="0" r="1" gradientUnits="userSpaceOnUse" gradientTransform="translate(88.9335 26.4701) rotate(65.1152) scale(21.1051 8.76453)">
<stop stop-color="#9C2006"/>
<stop offset="1" stop-color="#9C2006" stop-opacity="0"/>
</radialGradient>
<radialGradient id="paint5_radial_9363_1685" cx="0" cy="0" r="1" gradientUnits="userSpaceOnUse" gradientTransform="translate(115.567 35.5013) rotate(40.7199) scale(26.9709 20.7393)">
<stop stop-color="#F8DBB6" stop-opacity="0.4"/>
<stop offset="0.615225" stop-color="#FFF9E2" stop-opacity="0"/>
</radialGradient>
<radialGradient id="paint6_radial_9363_1685" cx="0" cy="0" r="1" gradientUnits="userSpaceOnUse" gradientTransform="translate(127.004 29.0242) rotate(24.2444) scale(21.7328 20.1885)">
<stop stop-color="#9C1F06"/>
<stop offset="1" stop-color="#9C2006" stop-opacity="0"/>
</radialGradient>
<radialGradient id="paint7_radial_9363_1685" cx="0" cy="0" r="1" gradientUnits="userSpaceOnUse" gradientTransform="translate(124.477 24.1151) rotate(3.26168) scale(4.95613 5.7002)">
<stop stop-color="#9C2006" stop-opacity="0.7"/>
<stop offset="1" stop-color="#9C2006" stop-opacity="0"/>
</radialGradient>
<radialGradient id="paint8_radial_9363_1685" cx="0" cy="0" r="1" gradientUnits="userSpaceOnUse" gradientTransform="translate(152.416 40.3936) rotate(3.26168) scale(6.30695 7.25383)">
<stop stop-color="#9C2006" stop-opacity="0.7"/>
<stop offset="1" stop-color="#9C2006" stop-opacity="0"/>
</radialGradient>
<radialGradient id="paint9_radial_9363_1685" cx="0" cy="0" r="1" gradientUnits="userSpaceOnUse" gradientTransform="translate(171.005 101.569) rotate(3.00819) scale(50.9399 8.12993)">
<stop stop-color="#5B3B04" stop-opacity="0.6"/>
<stop offset="1" stop-color="#757575" stop-opacity="0"/>
</radialGradient>
<radialGradient id="paint10_radial_9363_1685" cx="0" cy="0" r="1" gradientUnits="userSpaceOnUse" gradientTransform="translate(165.074 109.158) rotate(1.52814) scale(50.8878 4.13136)">
<stop stop-color="#5B3B04" stop-opacity="0.3"/>
<stop offset="1" stop-color="#757575" stop-opacity="0"/>
</radialGradient>
<radialGradient id="paint11_radial_9363_1685" cx="0" cy="0" r="1" gradientUnits="userSpaceOnUse" gradientTransform="translate(102.46 101.349) rotate(3.00819) scale(50.9399 8.12993)">
<stop stop-color="#5B3B04" stop-opacity="0.6"/>
<stop offset="1" stop-color="#757575" stop-opacity="0"/>
</radialGradient>
<radialGradient id="paint12_radial_9363_1685" cx="0" cy="0" r="1" gradientUnits="userSpaceOnUse" gradientTransform="translate(126.51 72.4316) rotate(5.80728) scale(51.1322 15.6751)">
<stop stop-color="#5B3B04" stop-opacity="0.6"/>
<stop offset="1" stop-color="#757575" stop-opacity="0"/>
</radialGradient>
<radialGradient id="paint13_radial_9363_1685" cx="0" cy="0" r="1" gradientUnits="userSpaceOnUse" gradientTransform="translate(88.3126 44.233) rotate(35.8302) scale(10.0317 0.942803)">
<stop stop-color="#DFE0D4"/>
<stop offset="0.820125" stop-color="#6B841B"/>
</radialGradient>
<radialGradient id="paint14_radial_9363_1685" cx="0" cy="0" r="1" gradientUnits="userSpaceOnUse" gradientTransform="translate(85.966 53.1622) rotate(-20.1337) scale(10.0317 0.942803)">
<stop stop-color="#DFE0D4"/>
<stop offset="0.820125" stop-color="#6B841B"/>
</radialGradient>
<radialGradient id="paint15_radial_9363_1685" cx="0" cy="0" r="1" gradientUnits="userSpaceOnUse" gradientTransform="translate(85.1201 44.8706) rotate(40.6992) scale(7.56485 0.710966)">
<stop stop-color="#DFE0D4"/>
<stop offset="0.820125" stop-color="#6B841B"/>
</radialGradient>
<radialGradient id="paint16_radial_9363_1685" cx="0" cy="0" r="1" gradientUnits="userSpaceOnUse" gradientTransform="translate(41.1797 21.6179) rotate(30.5825) scale(7.03399 0.817358)">
<stop stop-color="#DFE0D4"/>
<stop offset="0.820125" stop-color="#6B841B"/>
</radialGradient>
<radialGradient id="paint17_radial_9363_1685" cx="0" cy="0" r="1" gradientUnits="userSpaceOnUse" gradientTransform="translate(42.6838 18.2709) rotate(54.1806) scale(6.04737 0.702711)">
<stop stop-color="#DFE0D4"/>
<stop offset="0.820125" stop-color="#6B841B"/>
</radialGradient>
<radialGradient id="paint18_radial_9363_1685" cx="0" cy="0" r="1" gradientUnits="userSpaceOnUse" gradientTransform="translate(62.3229 32.7092) rotate(56.1589) scale(7.63452 0.848524)">
<stop stop-color="#DFE0D4"/>
<stop offset="0.820125" stop-color="#6B841B"/>
</radialGradient>
<radialGradient id="paint19_radial_9363_1685" cx="0" cy="0" r="1" gradientUnits="userSpaceOnUse" gradientTransform="translate(57.0495 36.6128) rotate(11.5082) scale(7.63452 0.848524)">
<stop stop-color="#DFE0D4"/>
<stop offset="0.820125" stop-color="#6B841B"/>
</radialGradient>
<radialGradient id="paint20_radial_9363_1685" cx="0" cy="0" r="1" gradientUnits="userSpaceOnUse" gradientTransform="translate(82.9889 50.2256) rotate(-12.9568) scale(7.56485 0.710966)">
<stop stop-color="#DFE0D4"/>
<stop offset="0.820125" stop-color="#6B841B"/>
</radialGradient>
<radialGradient id="paint21_radial_9363_1685" cx="0" cy="0" r="1" gradientUnits="userSpaceOnUse" gradientTransform="translate(83.0987 44.9653) rotate(34.74) scale(7.14767 0.671758)">
<stop stop-color="#DFE0D4"/>
<stop offset="0.820125" stop-color="#6B841B"/>
</radialGradient>
<radialGradient id="paint22_radial_9363_1685" cx="0" cy="0" r="1" gradientUnits="userSpaceOnUse" gradientTransform="translate(40.3299 23.6989) rotate(17.7665) scale(5.89778 0.590949)">
<stop stop-color="#DFE0D4"/>
<stop offset="0.820125" stop-color="#6B841B"/>
</radialGradient>
<radialGradient id="paint23_radial_9363_1685" cx="0" cy="0" r="1" gradientUnits="userSpaceOnUse" gradientTransform="translate(44.7315 17.3778) rotate(73.6638) scale(5.80691 0.581843)">
<stop stop-color="#DFE0D4"/>
<stop offset="0.820125" stop-color="#6B841B"/>
</radialGradient>
<radialGradient id="paint24_radial_9363_1685" cx="0" cy="0" r="1" gradientUnits="userSpaceOnUse" gradientTransform="translate(80.2922 48.5429) rotate(-0.34197) scale(7.14767 0.671758)">
<stop stop-color="#DFE0D4"/>
<stop offset="0.820125" stop-color="#6B841B"/>
</radialGradient>
<radialGradient id="paint25_radial_9363_1685" cx="0" cy="0" r="1" gradientUnits="userSpaceOnUse" gradientTransform="translate(71.2346 38.2782) rotate(44.6987) scale(10.0316 0.942803)">
<stop stop-color="#DFE0D4"/>
<stop offset="0.820125" stop-color="#6B841B"/>
</radialGradient>
<radialGradient id="paint26_radial_9363_1685" cx="0" cy="0" r="1" gradientUnits="userSpaceOnUse" gradientTransform="translate(59.6621 40.4978) rotate(3.58302) scale(10.0317 0.942803)">
<stop stop-color="#DFE0D4"/>
<stop offset="0.820125" stop-color="#6B841B"/>
</radialGradient>
<radialGradient id="paint27_radial_9363_1685" cx="0" cy="0" r="1" gradientUnits="userSpaceOnUse" gradientTransform="translate(35.5693 15.2528) rotate(29.287) scale(7.52352 0.906106)">
<stop stop-color="#DFE0D4"/>
<stop offset="0.820125" stop-color="#6B841B"/>
</radialGradient>
<radialGradient id="paint28_radial_9363_1685" cx="0" cy="0" r="1" gradientUnits="userSpaceOnUse" gradientTransform="translate(43.3465 27.7997) rotate(3.58302) scale(8.30047 0.780101)">
<stop stop-color="#DFE0D4"/>
<stop offset="0.820125" stop-color="#6B841B"/>
</radialGradient>
<radialGradient id="paint29_radial_9363_1685" cx="0" cy="0" r="1" gradientUnits="userSpaceOnUse" gradientTransform="translate(51.4606 23.836) rotate(60.4246) scale(10.0317 0.942803)">
<stop stop-color="#DFE0D4"/>
<stop offset="0.820125" stop-color="#6B841B"/>
</radialGradient>
<radialGradient id="paint30_radial_9363_1685" cx="0" cy="0" r="1" gradientUnits="userSpaceOnUse" gradientTransform="translate(70.9974 28.784) rotate(29.269) scale(39.7924 12.0724)">
<stop offset="0.684494" stop-color="#EEC2AE"/>
<stop offset="1" stop-color="#996249"/>
</radialGradient>
<radialGradient id="paint31_radial_9363_1685" cx="0" cy="0" r="1" gradientUnits="userSpaceOnUse" gradientTransform="translate(83.0042 70.0285) rotate(59.9045) scale(10.0317 0.942803)">
<stop stop-color="#DFE0D4"/>
<stop offset="0.820125" stop-color="#6B841B"/>
</radialGradient>
<radialGradient id="paint32_radial_9363_1685" cx="0" cy="0" r="1" gradientUnits="userSpaceOnUse" gradientTransform="translate(92.125 68.5871) rotate(115.868) scale(10.0317 0.942803)">
<stop stop-color="#DFE0D4"/>
<stop offset="0.820125" stop-color="#6B841B"/>
</radialGradient>
<radialGradient id="paint33_radial_9363_1685" cx="0" cy="0" r="1" gradientUnits="userSpaceOnUse" gradientTransform="translate(83.9589 66.9149) rotate(55.0355) scale(7.56485 0.710966)">
<stop stop-color="#DFE0D4"/>
<stop offset="0.820125" stop-color="#6B841B"/>
</radialGradient>
<radialGradient id="paint34_radial_9363_1685" cx="0" cy="0" r="1" gradientUnits="userSpaceOnUse" gradientTransform="translate(65.2123 20.8729) rotate(65.1523) scale(7.03399 0.817358)">
<stop stop-color="#DFE0D4"/>
<stop offset="0.820125" stop-color="#6B841B"/>
</radialGradient>
<radialGradient id="paint35_radial_9363_1685" cx="0" cy="0" r="1" gradientUnits="userSpaceOnUse" gradientTransform="translate(61.7331 22.0345) rotate(41.5541) scale(6.04737 0.702711)">
<stop stop-color="#DFE0D4"/>
<stop offset="0.820125" stop-color="#6B841B"/>
</radialGradient>
<radialGradient id="paint36_radial_9363_1685" cx="0" cy="0" r="1" gradientUnits="userSpaceOnUse" gradientTransform="translate(74.1356 43.0199) rotate(39.5758) scale(7.63452 0.848524)">
<stop stop-color="#DFE0D4"/>
<stop offset="0.820125" stop-color="#6B841B"/>
</radialGradient>
<radialGradient id="paint37_radial_9363_1685" cx="0" cy="0" r="1" gradientUnits="userSpaceOnUse" gradientTransform="translate(78.5462 38.1612) rotate(84.2266) scale(7.63452 0.848524)">
<stop stop-color="#DFE0D4"/>
<stop offset="0.820125" stop-color="#6B841B"/>
</radialGradient>
<radialGradient id="paint38_radial_9363_1685" cx="0" cy="0" r="1" gradientUnits="userSpaceOnUse" gradientTransform="translate(89.5019 65.3324) rotate(108.692) scale(7.56485 0.710966)">
<stop stop-color="#DFE0D4"/>
<stop offset="0.820125" stop-color="#6B841B"/>
</radialGradient>
<radialGradient id="paint39_radial_9363_1685" cx="0" cy="0" r="1" gradientUnits="userSpaceOnUse" gradientTransform="translate(84.2565 64.9145) rotate(60.9948) scale(7.14767 0.671758)">
<stop stop-color="#DFE0D4"/>
<stop offset="0.820125" stop-color="#6B841B"/>
</radialGradient>
<radialGradient id="paint40_radial_9363_1685" cx="0" cy="0" r="1" gradientUnits="userSpaceOnUse" gradientTransform="translate(67.3681 20.2364) rotate(77.9682) scale(5.89778 0.590949)">
<stop stop-color="#DFE0D4"/>
<stop offset="0.820125" stop-color="#6B841B"/>
</radialGradient>
<radialGradient id="paint41_radial_9363_1685" cx="0" cy="0" r="1" gradientUnits="userSpaceOnUse" gradientTransform="translate(60.6386 23.9825) rotate(22.0709) scale(5.80691 0.581843)">
<stop stop-color="#DFE0D4"/>
<stop offset="0.820125" stop-color="#6B841B"/>
</radialGradient>
<radialGradient id="paint42_radial_9363_1685" cx="0" cy="0" r="1" gradientUnits="userSpaceOnUse" gradientTransform="translate(88.0937 62.4778) rotate(96.0767) scale(7.14767 0.671758)">
<stop stop-color="#DFE0D4"/>
<stop offset="0.820125" stop-color="#6B841B"/>
</radialGradient>
<radialGradient id="paint43_radial_9363_1685" cx="0" cy="0" r="1" gradientUnits="userSpaceOnUse" gradientTransform="translate(78.7885 52.4411) rotate(51.0361) scale(10.0316 0.942803)">
<stop stop-color="#DFE0D4"/>
<stop offset="0.820125" stop-color="#6B841B"/>
</radialGradient>
<radialGradient id="paint44_radial_9363_1685" cx="0" cy="0" r="1" gradientUnits="userSpaceOnUse" gradientTransform="translate(82.1516 41.1482) rotate(92.1517) scale(10.0317 0.942803)">
<stop stop-color="#DFE0D4"/>
<stop offset="0.820125" stop-color="#6B841B"/>
</radialGradient>
<radialGradient id="paint45_radial_9363_1685" cx="0" cy="0" r="1" gradientUnits="userSpaceOnUse" gradientTransform="translate(59.4406 14.6533) rotate(66.4477) scale(7.52352 0.906106)">
<stop stop-color="#DFE0D4"/>
<stop offset="0.820125" stop-color="#6B841B"/>
</radialGradient>
<radialGradient id="paint46_radial_9363_1685" cx="0" cy="0" r="1" gradientUnits="userSpaceOnUse" gradientTransform="translate(71.1476 23.6455) rotate(92.1517) scale(8.30047 0.780101)">
<stop stop-color="#DFE0D4"/>
<stop offset="0.820125" stop-color="#6B841B"/>
</radialGradient>
<radialGradient id="paint47_radial_9363_1685" cx="0" cy="0" r="1" gradientUnits="userSpaceOnUse" gradientTransform="translate(66.3926 31.3242) rotate(35.3102) scale(10.0317 0.942803)">
<stop stop-color="#DFE0D4"/>
<stop offset="0.820125" stop-color="#6B841B"/>
</radialGradient>
<radialGradient id="paint48_radial_9363_1685" cx="0" cy="0" r="1" gradientUnits="userSpaceOnUse" gradientTransform="translate(69.3638 51.2541) rotate(66.4657) scale(39.7924 12.0724)">
<stop offset="0.684494" stop-color="#EEC2AE"/>
<stop offset="1" stop-color="#996249"/>
</radialGradient>
<linearGradient id="paint49_linear_9363_1685" x1="89.0225" y1="118.686" x2="16.5497" y2="-12.5489" gradientUnits="userSpaceOnUse">
<stop stop-color="#8E5106"/>
<stop offset="1" stop-color="#FFD6A8"/>
</linearGradient>
<radialGradient id="paint50_radial_9363_1685" cx="0" cy="0" r="1" gradientUnits="userSpaceOnUse" gradientTransform="translate(67.803 63.1884) rotate(71.9224) scale(29.5329 43.5718)">
<stop stop-color="#F7CFA8"/>
<stop offset="1" stop-color="#FFF3D2" stop-opacity="0"/>
</radialGradient>
<radialGradient id="paint51_radial_9363_1685" cx="0" cy="0" r="1" gradientUnits="userSpaceOnUse" gradientTransform="translate(83.4728 60.9032) rotate(168.598) scale(79.2604 54.7968)">
<stop offset="0.246537" stop-color="#6F4105" stop-opacity="0"/>
<stop offset="0.737714" stop-color="#6F4105" stop-opacity="0.408793"/>
<stop offset="0.951518" stop-color="#6F4105"/>
</radialGradient>
<radialGradient id="paint52_radial_9363_1685" cx="0" cy="0" r="1" gradientUnits="userSpaceOnUse" gradientTransform="translate(-39.5755 10.1751) rotate(28.9232) scale(142.526 107.497)">
<stop stop-color="#7A4E05"/>
<stop offset="1" stop-color="#7A4E05" stop-opacity="0"/>
</radialGradient>
<radialGradient id="paint53_radial_9363_1685" cx="0" cy="0" r="1" gradientUnits="userSpaceOnUse" gradientTransform="translate(76.9474 90.0813) rotate(49.8292) scale(26.1393 20.469)">
<stop stop-color="#F5CB95" stop-opacity="0.4"/>
<stop offset="0.615225" stop-color="#FFF2BE" stop-opacity="0"/>
</radialGradient>
<radialGradient id="paint54_radial_9363_1685" cx="0" cy="0" r="1" gradientUnits="userSpaceOnUse" gradientTransform="translate(44.5769 83.8148) rotate(46.8188) scale(31.3012 24.0691)">
<stop stop-color="#F5CB95" stop-opacity="0.4"/>
<stop offset="0.615225" stop-color="#FFF2BE" stop-opacity="0"/>
</radialGradient>
<radialGradient id="paint55_radial_9363_1685" cx="0" cy="0" r="1" gradientUnits="userSpaceOnUse" gradientTransform="translate(39.0155 57.3948) rotate(30.3433) scale(25.2221 23.4298)">
<stop stop-color="#7A4E05"/>
<stop offset="1" stop-color="#7A4E05" stop-opacity="0"/>
</radialGradient>
<radialGradient id="paint56_radial_9363_1685" cx="0" cy="0" r="1" gradientUnits="userSpaceOnUse" gradientTransform="translate(29.0012 57.1099) rotate(86.5417) scale(30.8382 13.7832)">
<stop stop-color="#7A4E05"/>
<stop offset="1" stop-color="#7A4E05" stop-opacity="0"/>
</radialGradient>
<radialGradient id="paint57_radial_9363_1685" cx="0" cy="0" r="1" gradientUnits="userSpaceOnUse" gradientTransform="translate(56.6593 92.1729) rotate(31.185) scale(6.87054)">
<stop stop-color="#7A4E05"/>
<stop offset="1" stop-color="#7A4E05" stop-opacity="0"/>
</radialGradient>
<radialGradient id="paint58_radial_9363_1685" cx="0" cy="0" r="1" gradientUnits="userSpaceOnUse" gradientTransform="translate(41.4849 56.8997) rotate(90.6792) scale(5.94716)">
<stop stop-color="#7A4E05"/>
<stop offset="1" stop-color="#7A4E05" stop-opacity="0"/>
</radialGradient>
<radialGradient id="paint59_radial_9363_1685" cx="0" cy="0" r="1" gradientUnits="userSpaceOnUse" gradientTransform="translate(79.2406 61.5474) rotate(9.3606) scale(5.45059 6.2689)">
<stop stop-color="#7A4E05" stop-opacity="0.7"/>
<stop offset="1" stop-color="#7A4E05" stop-opacity="0"/>
</radialGradient>
<radialGradient id="paint60_radial_9363_1685" cx="0" cy="0" r="1" gradientUnits="userSpaceOnUse" gradientTransform="translate(109.054 73.8371) rotate(90) scale(33.0322 22.1323)">
<stop stop-color="#F5CB95"/>
<stop offset="1" stop-color="#FFF2BE"/>
</radialGradient>
<radialGradient id="paint61_radial_9363_1685" cx="0" cy="0" r="1" gradientUnits="userSpaceOnUse" gradientTransform="translate(109.054 73.8371) rotate(90) scale(46.1546 30.9246)">
<stop offset="0.462439" stop-color="#C29B5A" stop-opacity="0"/>
<stop offset="0.745366" stop-color="#C29B5A" stop-opacity="0.516854"/>
<stop offset="1" stop-color="#C29B5A"/>
</radialGradient>
<radialGradient id="paint62_radial_9363_1685" cx="0" cy="0" r="1" gradientUnits="userSpaceOnUse" gradientTransform="translate(160.644 71.2668) rotate(-119.557) scale(44.4236 53.5914)">
<stop stop-color="#FFE994"/>
<stop offset="0.489515" stop-color="#DAB861"/>
<stop offset="0.949346" stop-color="#986206"/>
</radialGradient>
<radialGradient id="paint63_radial_9363_1685" cx="0" cy="0" r="1" gradientUnits="userSpaceOnUse" gradientTransform="translate(158.317 81.2657) rotate(66.052) scale(28.3066 27.95)">
<stop offset="0.57505" stop-color="#7A4E05"/>
<stop offset="1" stop-color="#7A4E05" stop-opacity="0"/>
</radialGradient>
<radialGradient id="paint64_radial_9363_1685" cx="0" cy="0" r="1" gradientUnits="userSpaceOnUse" gradientTransform="translate(158.499 80.8501) rotate(90) scale(23.5333 25.1487)">
<stop stop-color="#F5CB95"/>
<stop offset="1" stop-color="#FFF2BE"/>
</radialGradient>
<radialGradient id="paint65_radial_9363_1685" cx="0" cy="0" r="1" gradientUnits="userSpaceOnUse" gradientTransform="translate(157.316 80.7594) rotate(71.2907) scale(49.4487 48.3015)">
<stop offset="0.432738" stop-color="#C29B5A" stop-opacity="0"/>
<stop offset="0.745366" stop-color="#C29B5A" stop-opacity="0.516854"/>
<stop offset="1" stop-color="#C29B5A"/>
</radialGradient>
<radialGradient id="paint66_radial_9363_1685" cx="0" cy="0" r="1" gradientUnits="userSpaceOnUse" gradientTransform="translate(189.347 74.0129) rotate(9.3606) scale(4.87813 5.6105)">
<stop stop-color="#7A4E05" stop-opacity="0.7"/>
<stop offset="1" stop-color="#7A4E05" stop-opacity="0"/>
</radialGradient>
<radialGradient id="paint67_radial_9363_1685" cx="0" cy="0" r="1" gradientUnits="userSpaceOnUse" gradientTransform="translate(185.195 82.7462) rotate(9.3606) scale(3.5452 4.07745)">
<stop stop-color="#7A4E05" stop-opacity="0.7"/>
<stop offset="1" stop-color="#7A4E05" stop-opacity="0"/>
</radialGradient>
<radialGradient id="paint68_radial_9363_1685" cx="0" cy="0" r="1" gradientUnits="userSpaceOnUse" gradientTransform="translate(175.615 60.3274) rotate(-0.301094) scale(3.7489 4.04305)">
<stop stop-color="#7A4E05" stop-opacity="0.7"/>
<stop offset="1" stop-color="#7A4E05" stop-opacity="0"/>
</radialGradient>
<radialGradient id="paint69_radial_9363_1685" cx="0" cy="0" r="1" gradientUnits="userSpaceOnUse" gradientTransform="translate(171.056 100.562) rotate(134.083) scale(10.933 1.02752)">
<stop stop-color="#DFE0D4"/>
<stop offset="0.820125" stop-color="#6B841B"/>
</radialGradient>
<radialGradient id="paint70_radial_9363_1685" cx="0" cy="0" r="1" gradientUnits="userSpaceOnUse" gradientTransform="translate(175.278 109.697) rotate(-169.953) scale(10.933 1.02752)">
<stop stop-color="#DFE0D4"/>
<stop offset="0.820125" stop-color="#6B841B"/>
</radialGradient>
<radialGradient id="paint71_radial_9363_1685" cx="0" cy="0" r="1" gradientUnits="userSpaceOnUse" gradientTransform="translate(174.603 100.638) rotate(129.214) scale(8.24458 0.774848)">
<stop stop-color="#DFE0D4"/>
<stop offset="0.820125" stop-color="#6B841B"/>
</radialGradient>
<radialGradient id="paint72_radial_9363_1685" cx="0" cy="0" r="1" gradientUnits="userSpaceOnUse" gradientTransform="translate(217.314 67.3) rotate(139.331) scale(7.66602 0.8908)">
<stop stop-color="#DFE0D4"/>
<stop offset="0.820125" stop-color="#6B841B"/>
</radialGradient>
<radialGradient id="paint73_radial_9363_1685" cx="0" cy="0" r="1" gradientUnits="userSpaceOnUse" gradientTransform="translate(215.06 63.9968) rotate(115.733) scale(6.59074 0.765852)">
<stop stop-color="#DFE0D4"/>
<stop offset="0.820125" stop-color="#6B841B"/>
</radialGradient>
<radialGradient id="paint74_radial_9363_1685" cx="0" cy="0" r="1" gradientUnits="userSpaceOnUse" gradientTransform="translate(196.744 83.2368) rotate(113.754) scale(8.3205 0.924766)">
<stop stop-color="#DFE0D4"/>
<stop offset="0.820125" stop-color="#6B841B"/>
</radialGradient>
<radialGradient id="paint75_radial_9363_1685" cx="0" cy="0" r="1" gradientUnits="userSpaceOnUse" gradientTransform="translate(203.146 86.4181) rotate(158.405) scale(8.3205 0.924766)">
<stop stop-color="#DFE0D4"/>
<stop offset="0.820125" stop-color="#6B841B"/>
</radialGradient>
<radialGradient id="paint76_radial_9363_1685" cx="0" cy="0" r="1" gradientUnits="userSpaceOnUse" gradientTransform="translate(177.911 105.978) rotate(-177.13) scale(8.24458 0.774848)">
<stop stop-color="#DFE0D4"/>
<stop offset="0.820125" stop-color="#6B841B"/>
</radialGradient>
<radialGradient id="paint77_radial_9363_1685" cx="0" cy="0" r="1" gradientUnits="userSpaceOnUse" gradientTransform="translate(176.79 100.354) rotate(135.173) scale(7.78991 0.732117)">
<stop stop-color="#DFE0D4"/>
<stop offset="0.820125" stop-color="#6B841B"/>
</radialGradient>
<radialGradient id="paint78_radial_9363_1685" cx="0" cy="0" r="1" gradientUnits="userSpaceOnUse" gradientTransform="translate(218.623 69.3717) rotate(152.147) scale(6.42771 0.644047)">
<stop stop-color="#DFE0D4"/>
<stop offset="0.820125" stop-color="#6B841B"/>
</radialGradient>
<radialGradient id="paint79_radial_9363_1685" cx="0" cy="0" r="1" gradientUnits="userSpaceOnUse" gradientTransform="translate(212.692 63.4275) rotate(96.2495) scale(6.32868 0.634124)">
<stop stop-color="#DFE0D4"/>
<stop offset="0.820125" stop-color="#6B841B"/>
</radialGradient>
<radialGradient id="paint80_radial_9363_1685" cx="0" cy="0" r="1" gradientUnits="userSpaceOnUse" gradientTransform="translate(180.486 103.655) rotate(170.255) scale(7.78991 0.732117)">
<stop stop-color="#DFE0D4"/>
<stop offset="0.820125" stop-color="#6B841B"/>
</radialGradient>
<radialGradient id="paint81_radial_9363_1685" cx="0" cy="0" r="1" gradientUnits="userSpaceOnUse" gradientTransform="translate(188.245 90.9147) rotate(125.215) scale(10.933 1.02752)">
<stop stop-color="#DFE0D4"/>
<stop offset="0.820125" stop-color="#6B841B"/>
</radialGradient>
<radialGradient id="paint82_radial_9363_1685" cx="0" cy="0" r="1" gradientUnits="userSpaceOnUse" gradientTransform="translate(201.087 91.0863) rotate(166.33) scale(10.933 1.02752)">
<stop stop-color="#DFE0D4"/>
<stop offset="0.820125" stop-color="#6B841B"/>
</radialGradient>
<radialGradient id="paint83_radial_9363_1685" cx="0" cy="0" r="1" gradientUnits="userSpaceOnUse" gradientTransform="translate(222.119 59.3984) rotate(140.626) scale(8.19953 0.987522)">
<stop stop-color="#DFE0D4"/>
<stop offset="0.820125" stop-color="#6B841B"/>
</radialGradient>
<radialGradient id="paint84_radial_9363_1685" cx="0" cy="0" r="1" gradientUnits="userSpaceOnUse" gradientTransform="translate(216.17 74.347) rotate(166.33) scale(9.04628 0.850195)">
<stop stop-color="#DFE0D4"/>
<stop offset="0.820125" stop-color="#6B841B"/>
</radialGradient>
<radialGradient id="paint85_radial_9363_1685" cx="0" cy="0" r="1" gradientUnits="userSpaceOnUse" gradientTransform="translate(206.704 71.6426) rotate(109.489) scale(10.933 1.02752)">
<stop stop-color="#DFE0D4"/>
<stop offset="0.820125" stop-color="#6B841B"/>
</radialGradient>
<radialGradient id="paint86_radial_9363_1685" cx="0" cy="0" r="1" gradientUnits="userSpaceOnUse" gradientTransform="translate(186.688 80.6807) rotate(140.644) scale(43.3679 13.1572)">
<stop offset="0.684494" stop-color="#EEC2AE"/>
<stop offset="1" stop-color="#996249"/>
</radialGradient>
</defs>
</svg>
