<svg viewBox="0 0 240 120" fill="none" xmlns="http://www.w3.org/2000/svg">
<path d="M16.439 64.7928C10.2101 69.3047 7.09724 89.3571 33.5679 94.8717C89.7959 97.8796 210.042 96.1257 217.822 91.8637C238.758 80.3945 220.936 67.2992 217.822 59.7795C214.708 52.2598 227.915 48.7287 224.207 33.4646C220.498 18.2004 198.215 1.10828 160.999 3.55205C123.783 5.99581 97.4956 12.3322 62.6427 7.9825C27.7898 3.63281 16.7355 22.8068 13.1023 39.3501C9.46915 55.8935 22.6679 60.2809 16.439 64.7928Z" fill="url(#paint0_linear_10681_35697)"/>
<path d="M16.439 64.7928C10.2101 69.3047 7.09724 89.3571 33.5679 94.8717C89.7959 97.8796 210.042 96.1257 217.822 91.8637C238.758 80.3945 220.936 67.2992 217.822 59.7795C214.708 52.2598 227.915 48.7287 224.207 33.4646C220.498 18.2004 198.215 1.10828 160.999 3.55205C123.783 5.99581 97.4956 12.3322 62.6427 7.9825C27.7898 3.63281 16.7355 22.8068 13.1023 39.3501C9.46915 55.8935 22.6679 60.2809 16.439 64.7928Z" fill="url(#paint1_radial_10681_35697)"/>
<path d="M16.439 64.7928C10.2101 69.3047 7.09724 89.3571 33.5679 94.8717C89.7959 97.8796 210.042 96.1257 217.822 91.8637C238.758 80.3945 220.936 67.2992 217.822 59.7795C214.708 52.2598 227.915 48.7287 224.207 33.4646C220.498 18.2004 198.215 1.10828 160.999 3.55205C123.783 5.99581 97.4956 12.3322 62.6427 7.9825C27.7898 3.63281 16.7355 22.8068 13.1023 39.3501C9.46915 55.8935 22.6679 60.2809 16.439 64.7928Z" fill="url(#paint2_radial_10681_35697)"/>
<path d="M60.3911 58.49C46.6863 58.0174 27.9011 76.4087 20.2217 85.6635C32.2725 105.984 94.161 103.188 123.599 99.2505C108.24 85.8606 74.096 58.9626 60.3911 58.49Z" fill="url(#paint3_radial_10681_35697)"/>
<path d="M173.221 64.3977C182.082 63.807 207.801 76.4088 215.481 85.6635C203.43 105.984 127.636 102.302 98.1983 98.3641C113.557 84.9742 164.36 64.9884 173.221 64.3977Z" fill="url(#paint4_radial_10681_35697)"/>
<path d="M12.7664 89.5642C8.83284 82.7103 24.2382 75.2604 36.3678 74.3664C48.4975 73.4724 48.1697 80.3263 55.0534 83.9023C61.9372 87.4782 62.9206 83.9023 69.8043 83.9023C76.6881 83.9023 83.244 89.5642 93.4058 89.5642C103.567 89.5642 108.812 83.9023 116.024 83.9023C123.235 83.9023 126.513 87.1802 132.086 89.5642C137.658 91.9482 137.656 85.3924 143.228 85.3924C148.801 85.3924 152.409 88.0742 156.671 87.1802C160.932 86.2863 171.422 80.3263 178.633 78.8363C185.845 77.3463 188.795 83.6043 194.695 83.9023C200.596 84.2003 202.562 78.8363 205.84 78.8363C209.118 78.8363 226.164 83.3063 227.475 89.5642C228.786 95.8222 211.413 96.4182 215.346 101.186C219.28 105.954 235.014 116.682 120.941 116.682C6.8672 116.682 18.6763 104.762 27.1991 101.186C35.7218 97.6101 16.7 96.4182 12.7664 89.5642Z" fill="url(#paint5_linear_10681_35697)"/>
<path d="M12.7664 89.5642C8.83284 82.7103 24.2382 75.2604 36.3678 74.3664C48.4975 73.4724 48.1697 80.3263 55.0534 83.9023C61.9372 87.4782 62.9206 83.9023 69.8043 83.9023C76.6881 83.9023 83.244 89.5642 93.4058 89.5642C103.567 89.5642 108.812 83.9023 116.024 83.9023C123.235 83.9023 126.513 87.1802 132.086 89.5642C137.658 91.9482 137.656 85.3924 143.228 85.3924C148.801 85.3924 152.409 88.0742 156.671 87.1802C160.932 86.2863 171.422 80.3263 178.633 78.8363C185.845 77.3463 188.795 83.6043 194.695 83.9023C200.596 84.2003 202.562 78.8363 205.84 78.8363C209.118 78.8363 226.164 83.3063 227.475 89.5642C228.786 95.8222 211.413 96.4182 215.346 101.186C219.28 105.954 235.014 116.682 120.941 116.682C6.8672 116.682 18.6763 104.762 27.1991 101.186C35.7218 97.6101 16.7 96.4182 12.7664 89.5642Z" fill="url(#paint6_radial_10681_35697)"/>
<path d="M12.7664 89.5642C8.83284 82.7103 24.2382 75.2604 36.3678 74.3664C48.4975 73.4724 48.1697 80.3263 55.0534 83.9023C61.9372 87.4782 62.9206 83.9023 69.8043 83.9023C76.6881 83.9023 83.244 89.5642 93.4058 89.5642C103.567 89.5642 108.812 83.9023 116.024 83.9023C123.235 83.9023 126.513 87.1802 132.086 89.5642C137.658 91.9482 137.656 85.3924 143.228 85.3924C148.801 85.3924 152.409 88.0742 156.671 87.1802C160.932 86.2863 171.422 80.3263 178.633 78.8363C185.845 77.3463 188.795 83.6043 194.695 83.9023C200.596 84.2003 202.562 78.8363 205.84 78.8363C209.118 78.8363 226.164 83.3063 227.475 89.5642C228.786 95.8222 211.413 96.4182 215.346 101.186C219.28 105.954 235.014 116.682 120.941 116.682C6.8672 116.682 18.6763 104.762 27.1991 101.186C35.7218 97.6101 16.7 96.4182 12.7664 89.5642Z" fill="url(#paint7_radial_10681_35697)"/>
<path d="M164.82 96.1761C183.093 92.572 211.649 87.9502 227.213 91.5608C224.961 96.0161 211.883 96.9807 215.35 101.184C219.284 105.952 235.015 116.679 120.942 116.679C6.86913 116.679 18.6784 104.76 27.2011 101.184C28.1719 100.776 28.7753 100.392 29.0941 100.034C47.8369 96.4614 72.2251 91.3294 90.6807 96.1761C115.612 102.724 143.169 100.446 164.82 96.1761Z" fill="url(#paint8_radial_10681_35697)"/>
<path d="M148.299 106.526C162.18 108.019 179.901 94.2874 194.078 96.3758C200.808 97.3677 209.739 100.525 217.435 103.686C221.073 108.94 217.868 116.681 120.94 116.681C119.207 116.681 117.504 116.668 115.829 116.663L114.332 109.514C130.282 103.544 134.417 105.033 148.299 106.526Z" fill="url(#paint9_radial_10681_35697)"/>
<path d="M16.4243 92.1984C36.5084 84.7368 57.3297 102.944 82.1395 101.452C103.782 100.15 123.051 108.916 139.295 111.304C155.54 113.692 176.509 111.304 186.846 106.229C194.855 102.298 210.709 104.403 218.32 106.076C218.206 111.006 203.916 116.682 120.942 116.682C6.86862 116.682 18.6783 104.762 27.2011 101.186C33.9827 98.3401 23.3229 96.9994 16.7038 93.1179L16.4243 92.1984Z" fill="url(#paint10_radial_10681_35697)"/>
<path d="M179.554 21.1636C181.972 21.1641 184.118 22.2774 185.49 23.9986C186.733 23.1122 188.267 22.5833 189.929 22.5833C193.341 22.5841 196.216 24.7915 197.127 27.8117C197.907 27.4357 198.784 27.2214 199.715 27.2213C202.589 27.2213 204.97 29.2407 205.443 31.8952C205.784 31.7538 206.158 31.6744 206.552 31.6744C208.018 31.6745 209.205 32.7622 209.337 34.1489C209.411 34.1462 209.485 34.1398 209.558 34.1398C212.722 34.1401 215.288 36.587 215.368 39.6341C217.347 40.2037 218.758 41.6691 218.758 43.3931C218.757 44.5785 218.086 45.6373 217.027 46.3724C218.568 46.9119 219.65 48.1896 219.65 49.6807C219.65 50.6915 219.148 51.5985 218.347 52.2498C220.039 53.2028 221.015 54.8326 220.646 56.3829C220.276 57.9332 218.67 58.9453 216.729 59.0332C216.738 59.1226 216.761 59.2118 216.761 59.3036C216.761 60.8097 215.498 62.0305 213.944 62.0305C213.286 62.0303 212.688 61.8023 212.209 61.4355C211.311 62.3141 210.069 62.8638 208.693 62.8643C206.817 62.8643 205.18 61.853 204.339 60.3628C203.554 60.8695 202.613 61.1696 201.599 61.1696C198.934 61.1695 196.765 59.1283 196.654 56.5722L196.645 56.5767C195.491 56.5765 194.505 55.9251 194.026 54.9857C193.668 55.1369 193.275 55.2245 192.859 55.2246C191.368 55.2246 190.147 54.1458 189.961 52.7501C189.163 53.3658 188.153 53.7372 187.054 53.7372C185.638 53.7366 184.372 53.1239 183.516 52.1597C182.82 53.8132 181.15 54.9806 179.193 54.9812C176.791 54.9812 174.808 53.2252 174.546 50.9653C174.155 51.2648 173.69 51.4682 173.172 51.5332C173.374 51.9928 173.487 52.4984 173.487 53.0296C173.487 55.1409 171.718 56.8517 169.539 56.8517C169.317 56.8516 169.101 56.8272 168.89 56.7931C168.891 56.8276 168.903 56.862 168.903 56.8967C168.903 58.6423 167.441 60.0563 165.64 60.0563C165.044 60.0562 164.494 59.8893 164.013 59.6191C163.367 61.2486 161.739 62.4046 159.83 62.4046C158.403 62.4043 157.135 61.7574 156.315 60.7504C155.75 62.089 154.429 63.0305 152.885 63.0311C151.491 63.0311 150.278 62.2627 149.639 61.129C149.525 61.1425 149.411 61.1695 149.292 61.1696C147.651 61.1696 146.318 59.8359 146.318 58.1948C146.318 57.8058 146.398 57.4356 146.534 57.0951C146.146 57.1963 145.732 57.2663 145.299 57.2663C143.169 57.2656 141.445 55.9323 141.445 54.2916C141.446 53.8288 141.592 53.3974 141.837 53.007C140.575 52.2256 139.765 51.0299 139.764 49.6852C139.764 47.5282 141.843 45.7466 144.542 45.462C144.314 44.8121 144.186 44.1175 144.186 43.3931C144.186 39.8339 147.165 36.9478 150.838 36.9478C151.35 36.948 151.847 37.0085 152.326 37.1146C152.895 35.7193 154.298 34.7309 155.941 34.7303C156.869 34.7303 157.724 35.0466 158.392 35.5731C158.392 35.5435 158.388 35.5127 158.388 35.483C158.389 32.2372 161.105 29.6056 164.455 29.6056H164.464C164.598 27.0286 166.792 24.9776 169.485 24.9767C170.618 24.9767 171.663 25.3426 172.505 25.9547C173.552 23.162 176.31 21.1636 179.554 21.1636Z" fill="url(#paint11_linear_10681_35697)"/>
<path d="M179.554 21.1636C181.972 21.1641 184.118 22.2774 185.49 23.9986C186.733 23.1122 188.267 22.5833 189.929 22.5833C193.341 22.5841 196.216 24.7915 197.127 27.8117C197.907 27.4357 198.784 27.2214 199.715 27.2213C202.589 27.2213 204.97 29.2407 205.443 31.8952C205.784 31.7538 206.158 31.6744 206.552 31.6744C208.018 31.6745 209.205 32.7622 209.337 34.1489C209.411 34.1462 209.485 34.1398 209.558 34.1398C212.722 34.1401 215.288 36.587 215.368 39.6341C217.347 40.2037 218.758 41.6691 218.758 43.3931C218.757 44.5785 218.086 45.6373 217.027 46.3724C218.568 46.9119 219.65 48.1896 219.65 49.6807C219.65 50.6915 219.148 51.5985 218.347 52.2498C220.039 53.2028 221.015 54.8326 220.646 56.3829C220.276 57.9332 218.67 58.9453 216.729 59.0332C216.738 59.1226 216.761 59.2118 216.761 59.3036C216.761 60.8097 215.498 62.0305 213.944 62.0305C213.286 62.0303 212.688 61.8023 212.209 61.4355C211.311 62.3141 210.069 62.8638 208.693 62.8643C206.817 62.8643 205.18 61.853 204.339 60.3628C203.554 60.8695 202.613 61.1696 201.599 61.1696C198.934 61.1695 196.765 59.1283 196.654 56.5722L196.645 56.5767C195.491 56.5765 194.505 55.9251 194.026 54.9857C193.668 55.1369 193.275 55.2245 192.859 55.2246C191.368 55.2246 190.147 54.1458 189.961 52.7501C189.163 53.3658 188.153 53.7372 187.054 53.7372C185.638 53.7366 184.372 53.1239 183.516 52.1597C182.82 53.8132 181.15 54.9806 179.193 54.9812C176.791 54.9812 174.808 53.2252 174.546 50.9653C174.155 51.2648 173.69 51.4682 173.172 51.5332C173.374 51.9928 173.487 52.4984 173.487 53.0296C173.487 55.1409 171.718 56.8517 169.539 56.8517C169.317 56.8516 169.101 56.8272 168.89 56.7931C168.891 56.8276 168.903 56.862 168.903 56.8967C168.903 58.6423 167.441 60.0563 165.64 60.0563C165.044 60.0562 164.494 59.8893 164.013 59.6191C163.367 61.2486 161.739 62.4046 159.83 62.4046C158.403 62.4043 157.135 61.7574 156.315 60.7504C155.75 62.089 154.429 63.0305 152.885 63.0311C151.491 63.0311 150.278 62.2627 149.639 61.129C149.525 61.1425 149.411 61.1695 149.292 61.1696C147.651 61.1696 146.318 59.8359 146.318 58.1948C146.318 57.8058 146.398 57.4356 146.534 57.0951C146.146 57.1963 145.732 57.2663 145.299 57.2663C143.169 57.2656 141.445 55.9323 141.445 54.2916C141.446 53.8288 141.592 53.3974 141.837 53.007C140.575 52.2256 139.765 51.0299 139.764 49.6852C139.764 47.5282 141.843 45.7466 144.542 45.462C144.314 44.8121 144.186 44.1175 144.186 43.3931C144.186 39.8339 147.165 36.9478 150.838 36.9478C151.35 36.948 151.847 37.0085 152.326 37.1146C152.895 35.7193 154.298 34.7309 155.941 34.7303C156.869 34.7303 157.724 35.0466 158.392 35.5731C158.392 35.5435 158.388 35.5127 158.388 35.483C158.389 32.2372 161.105 29.6056 164.455 29.6056H164.464C164.598 27.0286 166.792 24.9776 169.485 24.9767C170.618 24.9767 171.663 25.3426 172.505 25.9547C173.552 23.162 176.31 21.1636 179.554 21.1636Z" fill="url(#paint12_radial_10681_35697)"/>
<path d="M201.419 39.1992C203.215 39.2001 204.705 40.236 205.034 41.6061C205.469 41.2807 206.016 41.0789 206.616 41.0787C207.577 41.0787 208.4 41.5868 208.834 42.3227C209.124 42.2311 209.435 42.174 209.758 42.174C211.354 42.1751 212.646 43.3874 212.647 44.8828C212.647 45.0875 212.616 45.2861 212.57 45.4778C212.939 45.288 213.359 45.1713 213.81 45.1713C215.236 45.1718 216.392 46.2557 216.392 47.5917C216.392 47.6508 216.374 47.7094 216.37 47.7675C217.625 48.3848 218.452 49.4417 218.452 50.6431C218.452 52.5467 216.374 54.0904 213.81 54.0911C212.221 54.0911 210.816 53.498 209.979 52.5947C209.356 53.0947 208.471 53.4148 207.482 53.415C206.26 53.415 205.194 52.9327 204.592 52.2161C203.822 53.3363 202.257 54.1091 200.446 54.1091C198.635 54.1086 197.069 53.3369 196.299 52.2161C195.466 52.7966 194.35 53.1578 193.117 53.1581C190.545 53.1581 188.457 51.6102 188.457 49.7011C188.457 47.9023 190.31 46.4221 192.675 46.2575C192.784 45.4766 193.402 44.8456 194.208 44.6845C194.104 44.4229 194.041 44.142 194.041 43.8462C194.041 42.5223 195.177 41.4483 196.579 41.4483C197.011 41.4485 197.412 41.5612 197.769 41.7413C198.028 40.3037 199.564 39.1992 201.419 39.1992Z" fill="url(#paint13_linear_10681_35697)"/>
<path d="M176.393 29.4552C178.905 29.4552 181.013 30.8279 181.644 32.6914C182.199 32.4445 182.832 32.295 183.51 32.2947C185.466 32.2947 187.081 33.4629 187.346 34.981C189.026 35.013 190.375 36.1207 190.375 37.4825C190.374 37.8298 190.286 38.1601 190.127 38.4606C191.53 38.5543 192.633 39.4914 192.633 40.6466C192.632 41.8637 191.407 42.8506 189.897 42.8506C189.463 42.8504 189.058 42.7569 188.693 42.6118C187.867 43.7243 186.085 44.4998 184.01 44.5003C181.82 44.5003 179.95 43.64 179.192 42.427C178.705 43.0316 177.863 43.4361 176.903 43.4366C176.152 43.4366 175.472 43.1872 174.978 42.792C174.473 43.7922 173.263 44.4998 171.841 44.5003C170.495 44.5003 169.339 43.8652 168.79 42.9498C168.419 43.8477 167.382 44.4998 166.144 44.5003C164.596 44.5003 163.34 43.4898 163.34 42.2422C163.34 41.453 163.842 40.7576 164.602 40.3536C164.315 39.9424 164.138 39.4756 164.138 38.9699C164.138 37.9506 164.81 37.0637 165.81 36.5631C165.675 36.2621 165.594 35.9415 165.594 35.603C165.594 34.0353 167.169 32.7637 169.114 32.7635C169.295 32.7635 169.472 32.7828 169.646 32.8041C169.816 31.8936 170.781 31.195 171.958 31.195C171.988 31.195 172.018 31.1986 172.048 31.1995C173.043 30.1408 174.619 29.4554 176.393 29.4552Z" fill="url(#paint14_linear_10681_35697)"/>
<path d="M155.854 44.8783C156.958 44.8783 157.968 45.2105 158.747 45.7572C159.25 45.5954 159.797 45.5049 160.37 45.5048C162.311 45.5048 163.959 46.5274 164.575 47.9522C164.822 47.9063 165.08 47.8802 165.346 47.8801C167.147 47.8801 168.609 48.9967 168.609 50.3726C168.609 50.3922 168.601 50.4116 168.6 50.4312C170.903 50.7198 172.638 51.9865 172.638 53.5006C172.638 55.228 170.378 56.6286 167.595 56.6286C165.856 56.6283 164.322 56.0814 163.417 55.2494C162.708 55.7054 161.727 55.9929 160.64 55.9931C159.436 55.9931 158.365 55.6366 157.647 55.0916C157.165 55.4698 156.542 55.7091 155.854 55.7091C155.119 55.7088 154.454 55.4445 153.961 55.0195C153.85 55.052 153.737 55.0799 153.623 55.1052C153.177 55.9987 152.14 56.6286 150.927 56.6286C150.325 56.6285 149.766 56.4703 149.3 56.2049C148.907 56.3717 148.467 56.4754 147.998 56.4754C146.38 56.4749 145.068 55.3585 145.068 53.9829C145.069 52.7798 146.073 51.777 147.407 51.5445L147.998 51.4949C148.033 49.7805 149.494 48.3547 151.446 47.9793C151.783 46.2226 153.626 44.8784 155.854 44.8783Z" fill="url(#paint15_linear_10681_35697)"/>
<path d="M156.823 55.543C157.759 56.3282 158.788 57.0966 159.757 57.7155C162.373 59.387 167.509 59.0794 169.749 58.7161L167.883 56.6112C168.967 56.5731 169.951 56.3182 170.746 55.9216C171.457 56.7121 172.327 57.5302 173.022 57.7155C174.386 58.0775 178.38 56.8107 180.377 59.7167C181.922 56.8101 180.47 52.0861 178.381 49.8143C176.418 47.6809 171.727 48.0324 170.412 44.2434C170.846 44.4073 171.33 44.5003 171.841 44.5003C171.912 44.5003 171.982 44.4903 172.053 44.4868C173.021 45.9805 175.494 46.9072 177.29 46.9072C176.868 46.1868 176.092 44.6166 175.785 43.2338C176.126 43.3592 176.503 43.4366 176.902 43.4366C177.503 43.4363 178.057 43.2751 178.507 43.0084C178.94 46.4866 180.3 48.2477 181.013 48.7236C181.855 47.9684 183.498 46.1037 183.632 44.4778C183.757 44.4835 183.883 44.5003 184.01 44.5003C184.668 44.5002 185.294 44.4124 185.872 44.2704H186.282C186.282 46.8135 184.105 48.8135 183.65 50.6301C183.195 52.447 186.283 56.628 185.011 59.7167C183.74 62.8052 183.74 67.7998 188.008 68.7085C188.22 67.0735 189.226 63.4771 191.551 62.1686C194.297 60.6237 196.714 58.3484 196.896 53.046C197.214 52.9102 197.515 52.7621 197.78 52.5772C198.276 53.2977 199.102 53.8679 200.11 54.1863C199.973 56.4875 199.313 58.1016 198.911 58.7161C201.306 58.4634 202.994 56.4151 203.837 54.1548C204.802 53.8306 205.593 53.2745 206.073 52.5772C206.393 52.9571 206.845 53.2674 207.38 53.4787C206.685 55.854 204.509 58.5844 202.999 60.6226C201.182 63.0753 197.546 60.6231 193.913 66.4369C190.279 72.2509 195.729 73.6159 197.545 78.4306C199.362 83.2447 195.003 85.2434 197.545 89.6941C200.089 94.1454 206.52 93.7822 207.61 97.8702C207.61 97.8702 204.452 100.777 190.316 100.777C176.345 100.777 173.096 97.937 173.022 97.8702C174.748 95.5088 178.106 94.871 179.832 93.3269C181.558 91.7826 182.466 86.5133 186.282 82.2437C190.097 77.9745 182.013 73.9793 179.832 70.1644C177.652 66.3494 179.106 63.4408 174.928 61.5331C171.104 59.7874 161.125 64.6538 153.609 55.1238C153.612 55.1172 153.619 55.1124 153.623 55.1058C153.737 55.0805 153.85 55.0526 153.961 55.0201C154.454 55.4449 155.119 55.7094 155.854 55.7097C156.196 55.7097 156.522 55.649 156.823 55.543Z" fill="url(#paint16_linear_10681_35697)"/>
<path d="M156.823 55.543C157.759 56.3282 158.788 57.0966 159.757 57.7155C162.373 59.387 167.509 59.0794 169.749 58.7161L167.883 56.6112C168.967 56.5731 169.951 56.3182 170.746 55.9216C171.457 56.7121 172.327 57.5302 173.022 57.7155C174.386 58.0775 178.38 56.8107 180.377 59.7167C181.922 56.8101 180.47 52.0861 178.381 49.8143C176.418 47.6809 171.727 48.0324 170.412 44.2434C170.846 44.4073 171.33 44.5003 171.841 44.5003C171.912 44.5003 171.982 44.4903 172.053 44.4868C173.021 45.9805 175.494 46.9072 177.29 46.9072C176.868 46.1868 176.092 44.6166 175.785 43.2338C176.126 43.3592 176.503 43.4366 176.902 43.4366C177.503 43.4363 178.057 43.2751 178.507 43.0084C178.94 46.4866 180.3 48.2477 181.013 48.7236C181.855 47.9684 183.498 46.1037 183.632 44.4778C183.757 44.4835 183.883 44.5003 184.01 44.5003C184.668 44.5002 185.294 44.4124 185.872 44.2704H186.282C186.282 46.8135 184.105 48.8135 183.65 50.6301C183.195 52.447 186.283 56.628 185.011 59.7167C183.74 62.8052 183.74 67.7998 188.008 68.7085C188.22 67.0735 189.226 63.4771 191.551 62.1686C194.297 60.6237 196.714 58.3484 196.896 53.046C197.214 52.9102 197.515 52.7621 197.78 52.5772C198.276 53.2977 199.102 53.8679 200.11 54.1863C199.973 56.4875 199.313 58.1016 198.911 58.7161C201.306 58.4634 202.994 56.4151 203.837 54.1548C204.802 53.8306 205.593 53.2745 206.073 52.5772C206.393 52.9571 206.845 53.2674 207.38 53.4787C206.685 55.854 204.509 58.5844 202.999 60.6226C201.182 63.0753 197.546 60.6231 193.913 66.4369C190.279 72.2509 195.729 73.6159 197.545 78.4306C199.362 83.2447 195.003 85.2434 197.545 89.6941C200.089 94.1454 206.52 93.7822 207.61 97.8702C207.61 97.8702 204.452 100.777 190.316 100.777C176.345 100.777 173.096 97.937 173.022 97.8702C174.748 95.5088 178.106 94.871 179.832 93.3269C181.558 91.7826 182.466 86.5133 186.282 82.2437C190.097 77.9745 182.013 73.9793 179.832 70.1644C177.652 66.3494 179.106 63.4408 174.928 61.5331C171.104 59.7874 161.125 64.6538 153.609 55.1238C153.612 55.1172 153.619 55.1124 153.623 55.1058C153.737 55.0805 153.85 55.0526 153.961 55.0201C154.454 55.4449 155.119 55.7094 155.854 55.7097C156.196 55.7097 156.522 55.649 156.823 55.543Z" fill="url(#paint17_radial_10681_35697)"/>
<path d="M156.823 55.543C157.759 56.3282 158.788 57.0966 159.757 57.7155C162.373 59.387 167.509 59.0794 169.749 58.7161L167.883 56.6112C168.967 56.5731 169.951 56.3182 170.746 55.9216C171.457 56.7121 172.327 57.5302 173.022 57.7155C174.386 58.0775 178.38 56.8107 180.377 59.7167C181.922 56.8101 180.47 52.0861 178.381 49.8143C176.418 47.6809 171.727 48.0324 170.412 44.2434C170.846 44.4073 171.33 44.5003 171.841 44.5003C171.912 44.5003 171.982 44.4903 172.053 44.4868C173.021 45.9805 175.494 46.9072 177.29 46.9072C176.868 46.1868 176.092 44.6166 175.785 43.2338C176.126 43.3592 176.503 43.4366 176.902 43.4366C177.503 43.4363 178.057 43.2751 178.507 43.0084C178.94 46.4866 180.3 48.2477 181.013 48.7236C181.855 47.9684 183.498 46.1037 183.632 44.4778C183.757 44.4835 183.883 44.5003 184.01 44.5003C184.668 44.5002 185.294 44.4124 185.872 44.2704H186.282C186.282 46.8135 184.105 48.8135 183.65 50.6301C183.195 52.447 186.283 56.628 185.011 59.7167C183.74 62.8052 183.74 67.7998 188.008 68.7085C188.22 67.0735 189.226 63.4771 191.551 62.1686C194.297 60.6237 196.714 58.3484 196.896 53.046C197.214 52.9102 197.515 52.7621 197.78 52.5772C198.276 53.2977 199.102 53.8679 200.11 54.1863C199.973 56.4875 199.313 58.1016 198.911 58.7161C201.306 58.4634 202.994 56.4151 203.837 54.1548C204.802 53.8306 205.593 53.2745 206.073 52.5772C206.393 52.9571 206.845 53.2674 207.38 53.4787C206.685 55.854 204.509 58.5844 202.999 60.6226C201.182 63.0753 197.546 60.6231 193.913 66.4369C190.279 72.2509 195.729 73.6159 197.545 78.4306C199.362 83.2447 195.003 85.2434 197.545 89.6941C200.089 94.1454 206.52 93.7822 207.61 97.8702C207.61 97.8702 204.452 100.777 190.316 100.777C176.345 100.777 173.096 97.937 173.022 97.8702C174.748 95.5088 178.106 94.871 179.832 93.3269C181.558 91.7826 182.466 86.5133 186.282 82.2437C190.097 77.9745 182.013 73.9793 179.832 70.1644C177.652 66.3494 179.106 63.4408 174.928 61.5331C171.104 59.7874 161.125 64.6538 153.609 55.1238C153.612 55.1172 153.619 55.1124 153.623 55.1058C153.737 55.0805 153.85 55.0526 153.961 55.0201C154.454 55.4449 155.119 55.7094 155.854 55.7097C156.196 55.7097 156.522 55.649 156.823 55.543Z" fill="url(#paint18_radial_10681_35697)"/>
<path d="M67.3481 57.6949C70.6709 63.4547 64.2983 71.0828 62.4745 89.596H72.8706C70.8925 70.2853 77.0544 56.7252 85.131 51.7452C92.0088 47.5044 101.578 48.7549 106.562 43.3723C111.546 43.8723 118.922 41.08 119.919 36.1954H117.128C115.453 40.661 110.316 41.3125 107.957 41.08C108.788 40.0166 110.589 37.5511 111.147 36.1954L108.854 35.697C105.366 43.4719 96.594 45.2891 91.3111 45.2891C91.3111 42.6975 101.279 42.1761 103.173 34.4012H101.279C99.4448 38.3086 95.5308 40.0829 93.803 40.4816L95.8963 33.7692H93.803C93.4043 35.5414 92.0487 39.704 89.8159 42.1761C86.387 40.9002 87.1437 36.0399 87.9506 33.7692H85.7353C84.8491 33.7692 84.0346 42.1761 87.9506 45.2891C82.2404 47.5587 76.7262 54.3719 73.7724 57.6949C74.2893 54.8888 74.1112 48.1791 72.8706 46.7613C77.1383 43.7269 77.0557 37.0832 76.459 33.7692H73.7724C74.3632 35.5414 74.6143 40.9573 70.8925 43.9703C66.4618 42.0209 62.9656 35.9846 62.0057 33.7692L59.2147 34.4012L62.4745 39.086C58.5756 39.086 54.2774 36.6492 54.2774 35.0986H51.619C52.0621 37.9785 55.1635 39.9723 60.9234 41.08C66.6833 42.1877 71.5571 47.726 70.8925 53.929C68.5294 51.049 62.3888 46.4362 57.3789 45.2891C51.619 43.9703 47.4101 39.5292 45.638 36.6492H44.3084C44.3084 37.6831 45.0173 40.3711 47.8529 42.8523C42.0044 42.8523 38.0315 38.7169 36.7762 36.6492H33.8965C34.7827 39.0861 38.3717 44.2257 45.638 45.2891C56.7156 46.9102 64.0254 51.9351 67.3481 57.6949Z" fill="url(#paint19_linear_10681_35697)"/>
<path d="M30.5804 29.0576C25.5352 30.4894 15.6505 34.5801 17.0815 37.239C18.5125 39.8978 41.6246 41.125 47.556 36.0117C51.0331 37.648 61.8733 37.239 65.9639 34.3755C68.0092 35.8072 92.3485 39.6933 104.007 36.0117C112.393 39.2842 135.914 39.8978 137.755 37.239C139.595 34.5801 130.391 29.0576 125.074 30.0803C125.074 26.1942 111.779 19.4446 104.007 22.7172C98.8935 13.5133 66.9865 9.21811 58.1917 21.0809C55.5328 19.0356 33.0349 22.1036 30.5804 29.0576Z" fill="url(#paint20_radial_10681_35697)"/>
<path d="M42.2736 80.885C42.2736 84.3418 39.3775 87.1441 35.805 87.1441C32.2325 87.1441 29.3364 84.3418 29.3364 80.885C29.3364 77.4282 32.2325 74.6259 35.805 74.6259C39.3775 74.6259 42.2736 77.4282 42.2736 80.885Z" fill="url(#paint21_radial_10681_35697)"/>
<path d="M74.8583 96.5842C74.8583 100.041 71.9622 102.843 68.3897 102.843C64.8172 102.843 61.9211 100.041 61.9211 96.5842C61.9211 93.1274 64.8172 90.3251 68.3897 90.3251C71.9622 90.3251 74.8583 93.1274 74.8583 96.5842Z" fill="url(#paint22_radial_10681_35697)"/>
<path d="M28.8004 66.4164C28.8004 68.5166 27.0409 70.2192 24.8704 70.2192C22.7 70.2192 20.9404 68.5166 20.9404 66.4164C20.9404 64.3162 22.7 62.6136 24.8704 62.6136C27.0409 62.6136 28.8004 64.3162 28.8004 66.4164Z" fill="url(#paint23_radial_10681_35697)"/>
<path d="M55.3203 101.448C55.3203 106.633 50.9762 110.837 45.6174 110.837C40.2587 110.837 35.9146 106.633 35.9146 101.448C35.9146 96.2627 40.2587 92.0592 45.6174 92.0592C50.9762 92.0592 55.3203 96.2627 55.3203 101.448Z" fill="url(#paint24_radial_10681_35697)"/>
<path d="M184.932 72.8938C184.932 76.3506 182.036 79.1529 178.464 79.1529C174.891 79.1529 171.995 76.3506 171.995 72.8938C171.995 69.437 174.891 66.6346 178.464 66.6346C182.036 66.6346 184.932 69.437 184.932 72.8938Z" fill="url(#paint25_radial_10681_35697)"/>
<path d="M158.056 77.5624C158.056 80.0007 156.013 81.9772 153.493 81.9772C150.973 81.9772 148.931 80.0007 148.931 77.5624C148.931 75.1242 150.973 73.1476 153.493 73.1476C156.013 73.1476 158.056 75.1242 158.056 77.5624Z" fill="url(#paint26_radial_10681_35697)"/>
<path d="M212.881 42.1916C212.881 44.8097 210.688 46.9322 207.982 46.9322C205.276 46.9322 203.083 44.8097 203.083 42.1916C203.083 39.5734 205.276 37.4509 207.982 37.4509C210.688 37.4509 212.881 39.5734 212.881 42.1916Z" fill="url(#paint27_radial_10681_35697)"/>
<path d="M196.412 49.6869C196.412 51.1739 195.166 52.3794 193.629 52.3794C192.093 52.3794 190.847 51.1739 190.847 49.6869C190.847 48.1999 192.093 46.9944 193.629 46.9944C195.166 46.9944 196.412 48.1999 196.412 49.6869Z" fill="url(#paint28_radial_10681_35697)"/>
<path d="M207.867 57.5197C207.867 58.6799 206.895 59.6204 205.696 59.6204C204.497 59.6204 203.525 58.6799 203.525 57.5197C203.525 56.3595 204.497 55.4189 205.696 55.4189C206.895 55.4189 207.867 56.3595 207.867 57.5197Z" fill="url(#paint29_radial_10681_35697)"/>
<path d="M183.38 38.9962C183.38 41.4695 181.308 43.4744 178.752 43.4744C176.196 43.4744 174.124 41.4695 174.124 38.9962C174.124 36.5229 176.196 34.5179 178.752 34.5179C181.308 34.5179 183.38 36.5229 183.38 38.9962Z" fill="url(#paint30_radial_10681_35697)"/>
<path d="M198.583 32.6504C198.583 34.5446 196.997 36.0801 195.039 36.0801C193.082 36.0801 191.495 34.5446 191.495 32.6504C191.495 30.7563 193.082 29.2208 195.039 29.2208C196.997 29.2208 198.583 30.7563 198.583 32.6504Z" fill="url(#paint31_radial_10681_35697)"/>
<path d="M211.986 76.0396C211.986 78.7103 209.748 80.8753 206.988 80.8753C204.228 80.8753 201.991 78.7103 201.991 76.0396C201.991 73.3689 204.228 71.2039 206.988 71.2039C209.748 71.2039 211.986 73.3689 211.986 76.0396Z" fill="url(#paint32_radial_10681_35697)"/>
<path d="M161.212 100.78C161.212 107.343 155.713 112.663 148.931 112.663C142.148 112.663 136.65 107.343 136.65 100.78C136.65 94.2172 142.148 88.8969 148.931 88.8969C155.713 88.8969 161.212 94.2172 161.212 100.78Z" fill="url(#paint33_radial_10681_35697)"/>
<path d="M221.278 92.0587C221.278 98.6217 215.78 103.942 208.997 103.942C202.214 103.942 196.716 98.6217 196.716 92.0587C196.716 85.4958 202.214 80.1754 208.997 80.1754C215.78 80.1754 221.278 85.4958 221.278 92.0587Z" fill="url(#paint34_radial_10681_35697)"/>
<path d="M74.0533 69.0687C74.0533 74.5057 69.4983 78.9132 63.8795 78.9132C58.2606 78.9132 53.7056 74.5057 53.7056 69.0687C53.7056 63.6318 58.2606 59.2242 63.8795 59.2242C69.4983 59.2242 74.0533 63.6318 74.0533 69.0687Z" fill="url(#paint35_radial_10681_35697)"/>
<path d="M144.073 96.1602C144.073 101.861 139.296 106.483 133.404 106.483C127.512 106.483 122.736 101.861 122.736 96.1602C122.736 90.4589 127.512 85.837 133.404 85.837C139.296 85.837 144.073 90.4589 144.073 96.1602Z" fill="url(#paint36_radial_10681_35697)"/>
<path d="M95.3177 82.7376C95.3177 85.1711 93.279 87.1438 90.7641 87.1438C88.2492 87.1438 86.2104 85.1711 86.2104 82.7376C86.2104 80.3041 88.2492 78.3314 90.7641 78.3314C93.279 78.3314 95.3177 80.3041 95.3177 82.7376Z" fill="url(#paint37_radial_10681_35697)"/>
<path d="M221.842 82.0237C221.842 84.4572 219.803 86.4299 217.288 86.4299C214.774 86.4299 212.735 84.4572 212.735 82.0237C212.735 79.5903 214.774 77.6176 217.288 77.6176C219.803 77.6176 221.842 79.5903 221.842 82.0237Z" fill="url(#paint38_radial_10681_35697)"/>
<path d="M201.991 92.9166C201.991 96.4992 198.989 99.4035 195.287 99.4035C191.584 99.4035 188.583 96.4992 188.583 92.9166C188.583 89.334 191.584 86.4297 195.287 86.4297C198.989 86.4297 201.991 89.334 201.991 92.9166Z" fill="url(#paint39_radial_10681_35697)"/>
<path d="M162.111 56.7441C162.111 58.4854 160.652 59.897 158.853 59.897C157.053 59.897 155.594 58.4854 155.594 56.7441C155.594 55.0029 157.053 53.5913 158.853 53.5913C160.652 53.5913 162.111 55.0029 162.111 56.7441Z" fill="url(#paint40_radial_10681_35697)"/>
<path d="M79.1346 74.3816C79.1346 77.1234 76.8376 79.346 74.0041 79.346C71.1705 79.346 68.8735 77.1234 68.8735 74.3816C68.8735 71.6399 71.1705 69.4172 74.0041 69.4172C76.8376 69.4172 79.1346 71.6399 79.1346 74.3816Z" fill="url(#paint41_radial_10681_35697)"/>
<path d="M120.557 32.0244C120.557 33.8681 119.013 35.3627 117.107 35.3627C115.202 35.3627 113.657 33.8681 113.657 32.0244C113.657 30.1807 115.202 28.6862 117.107 28.6862C119.013 28.6862 120.557 30.1807 120.557 32.0244Z" fill="url(#paint42_radial_10681_35697)"/>
<path d="M36.3621 33.6622C36.3621 35.7626 34.6025 37.4653 32.4318 37.4653C30.2611 37.4653 28.5015 35.7626 28.5015 33.6622C28.5015 31.5618 30.2611 29.8591 32.4318 29.8591C34.6025 29.8591 36.3621 31.5618 36.3621 33.6622Z" fill="url(#paint43_radial_10681_35697)"/>
<path d="M64.6776 32.0984C64.6776 34.1112 62.9913 35.7429 60.9112 35.7429C58.8311 35.7429 57.1448 34.1112 57.1448 32.0984C57.1448 30.0857 58.8311 28.454 60.9112 28.454C62.9913 28.454 64.6776 30.0857 64.6776 32.0984Z" fill="url(#paint44_radial_10681_35697)"/>
<path d="M92.6836 46.5184C92.6836 47.7322 91.6667 48.7162 90.4122 48.7162C89.1578 48.7162 88.1409 47.7322 88.1409 46.5184C88.1409 45.3046 89.1578 44.3206 90.4122 44.3206C91.6667 44.3206 92.6836 45.3046 92.6836 46.5184Z" fill="url(#paint45_radial_10681_35697)"/>
<path d="M71.1457 18.9647C71.1457 20.1785 70.1288 21.1625 68.8744 21.1625C67.62 21.1625 66.603 20.1785 66.603 18.9647C66.603 17.7508 67.62 16.7668 68.8744 16.7668C70.1288 16.7668 71.1457 17.7508 71.1457 18.9647Z" fill="url(#paint46_radial_10681_35697)"/>
<path d="M96.6374 30.95C96.6374 33.9459 94.1275 36.3746 91.0313 36.3746C87.9352 36.3746 85.4253 33.9459 85.4253 30.95C85.4253 27.9542 87.9352 25.5255 91.0313 25.5255C94.1275 25.5255 96.6374 27.9542 96.6374 30.95Z" fill="url(#paint47_radial_10681_35697)"/>
<path d="M83.0907 22.9856C83.0907 25.033 81.3754 26.6928 79.2594 26.6928C77.1435 26.6928 75.4282 25.033 75.4282 22.9856C75.4282 20.9382 77.1435 19.2784 79.2594 19.2784C81.3754 19.2784 83.0907 20.9382 83.0907 22.9856Z" fill="url(#paint48_radial_10681_35697)"/>
<path d="M48.3434 25.3494C48.3434 27.1978 46.7948 28.6962 44.8846 28.6962C42.9743 28.6962 41.4258 27.1978 41.4258 25.3494C41.4258 23.501 42.9743 22.0026 44.8846 22.0026C46.7948 22.0026 48.3434 23.501 48.3434 25.3494Z" fill="url(#paint49_radial_10681_35697)"/>
<defs>
<linearGradient id="paint0_linear_10681_35697" x1="102.332" y1="3.31726" x2="117.86" y2="86.1575" gradientUnits="userSpaceOnUse">
<stop stop-color="#010B27"/>
<stop offset="0.460364" stop-color="#1E4C7D"/>
<stop offset="1" stop-color="#9C80B7"/>
</linearGradient>
<radialGradient id="paint1_radial_10681_35697" cx="0" cy="0" r="1" gradientUnits="userSpaceOnUse" gradientTransform="translate(117.1 81.5286) rotate(1.59114) scale(138.283 97.5565)">
<stop stop-color="#D78D72"/>
<stop offset="1" stop-color="#C5B1D7" stop-opacity="0"/>
</radialGradient>
<radialGradient id="paint2_radial_10681_35697" cx="0" cy="0" r="1" gradientUnits="userSpaceOnUse" gradientTransform="translate(165.835 85.6637) rotate(168.29) scale(52.7872 56.5718)">
<stop stop-color="#FFF7DC"/>
<stop offset="1" stop-color="#FF9635" stop-opacity="0"/>
</radialGradient>
<radialGradient id="paint3_radial_10681_35697" cx="0" cy="0" r="1" gradientTransform="matrix(-97.9141 11.9926 -1.44934 -42.4368 76.4218 51.7579)" gradientUnits="userSpaceOnUse">
<stop offset="0.317308" stop-color="#010B1C"/>
<stop offset="1" stop-color="#3A4392"/>
</radialGradient>
<radialGradient id="paint4_radial_10681_35697" cx="0" cy="0" r="1" gradientTransform="matrix(97.9141 11.9926 1.44934 -42.4368 159.281 51.7576)" gradientUnits="userSpaceOnUse">
<stop offset="0.317308" stop-color="#010B1C"/>
<stop offset="1" stop-color="#3A4392"/>
</radialGradient>
<linearGradient id="paint5_linear_10681_35697" x1="189.169" y1="152.121" x2="201.87" y2="84.1872" gradientUnits="userSpaceOnUse">
<stop stop-color="#275725"/>
<stop offset="1" stop-color="#A0C066"/>
</linearGradient>
<radialGradient id="paint6_radial_10681_35697" cx="0" cy="0" r="1" gradientTransform="matrix(148.803 -48.0096 604.704 -12.1223 272.194 102.59)" gradientUnits="userSpaceOnUse">
<stop offset="0.163349"/>
<stop offset="1" stop-color="#365A20" stop-opacity="0"/>
</radialGradient>
<radialGradient id="paint7_radial_10681_35697" cx="0" cy="0" r="1" gradientUnits="userSpaceOnUse" gradientTransform="translate(224.317 121.108) rotate(-171.741) scale(222.054 29.3635)">
<stop/>
<stop offset="1" stop-color="#020504" stop-opacity="0"/>
</radialGradient>
<radialGradient id="paint8_radial_10681_35697" cx="0" cy="0" r="1" gradientTransform="matrix(147.978 -3.28325 0.382718 17.6148 116.991 95.1843)" gradientUnits="userSpaceOnUse">
<stop stop-color="#FFCC65" stop-opacity="0.5"/>
<stop offset="0.820866" stop-color="#FFCC65" stop-opacity="0"/>
</radialGradient>
<radialGradient id="paint9_radial_10681_35697" cx="0" cy="0" r="1" gradientTransform="matrix(59.3675 -7.46328 1.63 13.2459 160.113 100.854)" gradientUnits="userSpaceOnUse">
<stop offset="0.423707" stop-color="#1F1512"/>
<stop offset="1" stop-color="#7BC005" stop-opacity="0"/>
</radialGradient>
<radialGradient id="paint10_radial_10681_35697" cx="0" cy="0" r="1" gradientTransform="matrix(141.48 5.34455 -0.895259 23.9492 106.063 97.0803)" gradientUnits="userSpaceOnUse">
<stop offset="0.37816" stop-color="#1F1512"/>
<stop offset="1" stop-color="#855A4D" stop-opacity="0"/>
</radialGradient>
<linearGradient id="paint11_linear_10681_35697" x1="180.244" y1="21.1636" x2="186.632" y2="68.8569" gradientUnits="userSpaceOnUse">
<stop stop-color="#545C32"/>
<stop offset="1" stop-color="#060808"/>
</linearGradient>
<radialGradient id="paint12_radial_10681_35697" cx="0" cy="0" r="1" gradientTransform="matrix(45.2813 -0.631864 0.406598 29.1407 183.019 60.8173)" gradientUnits="userSpaceOnUse">
<stop offset="0.49537"/>
<stop offset="1" stop-opacity="0"/>
</radialGradient>
<linearGradient id="paint13_linear_10681_35697" x1="201.843" y1="42.2529" x2="205.417" y2="54.175" gradientUnits="userSpaceOnUse">
<stop stop-color="#5C5A26"/>
<stop offset="1" stop-color="#1A241E" stop-opacity="0"/>
</linearGradient>
<linearGradient id="paint14_linear_10681_35697" x1="176.413" y1="32.5366" x2="180.118" y2="44.4999" gradientUnits="userSpaceOnUse">
<stop stop-color="#5C5A26"/>
<stop offset="1" stop-color="#1A241E" stop-opacity="0"/>
</linearGradient>
<linearGradient id="paint15_linear_10681_35697" x1="157.372" y1="47.2849" x2="159.841" y2="56.8902" gradientUnits="userSpaceOnUse">
<stop stop-color="#5C5A26"/>
<stop offset="1" stop-color="#1A241E" stop-opacity="0"/>
</linearGradient>
<linearGradient id="paint16_linear_10681_35697" x1="165.837" y1="49.8478" x2="229.235" y2="90.8309" gradientUnits="userSpaceOnUse">
<stop stop-color="#42402F"/>
<stop offset="1"/>
</linearGradient>
<radialGradient id="paint17_radial_10681_35697" cx="0" cy="0" r="1" gradientTransform="matrix(30.7056 12.3272 -6.16873 17.0341 190.569 43.9485)" gradientUnits="userSpaceOnUse">
<stop offset="0.542065"/>
<stop offset="1" stop-opacity="0"/>
</radialGradient>
<radialGradient id="paint18_radial_10681_35697" cx="0" cy="0" r="1" gradientTransform="matrix(40.8671 -8.14058 4.07369 22.6713 155.225 46.9721)" gradientUnits="userSpaceOnUse">
<stop offset="0.542065"/>
<stop offset="1" stop-opacity="0"/>
</radialGradient>
<linearGradient id="paint19_linear_10681_35697" x1="49.1279" y1="52.9831" x2="114.85" y2="79.8848" gradientUnits="userSpaceOnUse">
<stop/>
<stop offset="1" stop-color="#3D2F35"/>
</linearGradient>
<radialGradient id="paint20_radial_10681_35697" cx="0" cy="0" r="1" gradientUnits="userSpaceOnUse" gradientTransform="translate(94.7588 17.5682) rotate(11.9175) scale(44.1877 20.0314)">
<stop stop-color="#382E10"/>
<stop offset="1" stop-color="#010101"/>
</radialGradient>
<radialGradient id="paint21_radial_10681_35697" cx="0" cy="0" r="1" gradientUnits="userSpaceOnUse" gradientTransform="translate(35.805 80.885) rotate(90) scale(6.25914 6.46858)">
<stop offset="0.336538" stop-color="#FFD976"/>
<stop offset="1" stop-color="white" stop-opacity="0"/>
</radialGradient>
<radialGradient id="paint22_radial_10681_35697" cx="0" cy="0" r="1" gradientUnits="userSpaceOnUse" gradientTransform="translate(68.3897 96.5842) rotate(90) scale(6.25914 6.46858)">
<stop offset="0.336538" stop-color="#FFD976"/>
<stop offset="1" stop-color="white" stop-opacity="0"/>
</radialGradient>
<radialGradient id="paint23_radial_10681_35697" cx="0" cy="0" r="1" gradientUnits="userSpaceOnUse" gradientTransform="translate(24.8704 66.4164) rotate(90) scale(3.80276 3.93001)">
<stop offset="0.336538" stop-color="#FFD976"/>
<stop offset="1" stop-color="white" stop-opacity="0"/>
</radialGradient>
<radialGradient id="paint24_radial_10681_35697" cx="0" cy="0" r="1" gradientUnits="userSpaceOnUse" gradientTransform="translate(45.6174 101.448) rotate(90) scale(9.3887 9.70287)">
<stop stop-color="#FFD976"/>
<stop offset="1" stop-color="white" stop-opacity="0"/>
</radialGradient>
<radialGradient id="paint25_radial_10681_35697" cx="0" cy="0" r="1" gradientUnits="userSpaceOnUse" gradientTransform="translate(178.464 72.8938) rotate(90) scale(6.25914 6.46858)">
<stop offset="0.336538" stop-color="#FFD976"/>
<stop offset="1" stop-color="white" stop-opacity="0"/>
</radialGradient>
<radialGradient id="paint26_radial_10681_35697" cx="0" cy="0" r="1" gradientUnits="userSpaceOnUse" gradientTransform="translate(153.493 77.5624) rotate(90) scale(4.41483 4.56256)">
<stop offset="0.336538" stop-color="#FFD976"/>
<stop offset="1" stop-color="white" stop-opacity="0"/>
</radialGradient>
<radialGradient id="paint27_radial_10681_35697" cx="0" cy="0" r="1" gradientUnits="userSpaceOnUse" gradientTransform="translate(207.982 42.1916) rotate(90) scale(4.74064 4.89927)">
<stop offset="0.336538" stop-color="#FFD976"/>
<stop offset="1" stop-color="white" stop-opacity="0"/>
</radialGradient>
<radialGradient id="paint28_radial_10681_35697" cx="0" cy="0" r="1" gradientUnits="userSpaceOnUse" gradientTransform="translate(193.629 49.6869) rotate(90) scale(2.69252 2.78262)">
<stop offset="0.336538" stop-color="#FFD976"/>
<stop offset="1" stop-color="white" stop-opacity="0"/>
</radialGradient>
<radialGradient id="paint29_radial_10681_35697" cx="0" cy="0" r="1" gradientUnits="userSpaceOnUse" gradientTransform="translate(205.696 57.5197) rotate(90) scale(2.10074 2.17103)">
<stop offset="0.336538" stop-color="#FFD976"/>
<stop offset="1" stop-color="white" stop-opacity="0"/>
</radialGradient>
<radialGradient id="paint30_radial_10681_35697" cx="0" cy="0" r="1" gradientUnits="userSpaceOnUse" gradientTransform="translate(178.752 38.9962) rotate(90) scale(4.47824 4.62809)">
<stop offset="0.336538" stop-color="#FFD976"/>
<stop offset="1" stop-color="white" stop-opacity="0"/>
</radialGradient>
<radialGradient id="paint31_radial_10681_35697" cx="0" cy="0" r="1" gradientUnits="userSpaceOnUse" gradientTransform="translate(195.039 32.6504) rotate(90) scale(3.42962 3.54438)">
<stop offset="0.336538" stop-color="#FFD976"/>
<stop offset="1" stop-color="white" stop-opacity="0"/>
</radialGradient>
<radialGradient id="paint32_radial_10681_35697" cx="0" cy="0" r="1" gradientUnits="userSpaceOnUse" gradientTransform="translate(206.988 76.0396) rotate(90) scale(4.83572 4.99753)">
<stop offset="0.336538" stop-color="#FFD976"/>
<stop offset="1" stop-color="white" stop-opacity="0"/>
</radialGradient>
<radialGradient id="paint33_radial_10681_35697" cx="0" cy="0" r="1" gradientUnits="userSpaceOnUse" gradientTransform="translate(148.931 100.78) rotate(90) scale(11.8833 12.281)">
<stop stop-color="#FFD976" stop-opacity="0.7"/>
<stop offset="1" stop-color="white" stop-opacity="0"/>
</radialGradient>
<radialGradient id="paint34_radial_10681_35697" cx="0" cy="0" r="1" gradientUnits="userSpaceOnUse" gradientTransform="translate(208.997 92.0587) rotate(90) scale(11.8833 12.281)">
<stop stop-color="#FFD976" stop-opacity="0.7"/>
<stop offset="1" stop-color="white" stop-opacity="0"/>
</radialGradient>
<radialGradient id="paint35_radial_10681_35697" cx="0" cy="0" r="1" gradientUnits="userSpaceOnUse" gradientTransform="translate(63.8795 69.0687) rotate(90) scale(9.84448 10.1739)">
<stop stop-color="#FFD976"/>
<stop offset="1" stop-color="white" stop-opacity="0"/>
</radialGradient>
<radialGradient id="paint36_radial_10681_35697" cx="0" cy="0" r="1" gradientUnits="userSpaceOnUse" gradientTransform="translate(133.404 96.1602) rotate(90) scale(10.3231 10.6686)">
<stop offset="0.524038" stop-color="#FFD976"/>
<stop offset="1" stop-color="white" stop-opacity="0"/>
</radialGradient>
<radialGradient id="paint37_radial_10681_35697" cx="0" cy="0" r="1" gradientUnits="userSpaceOnUse" gradientTransform="translate(90.7641 82.7376) rotate(90) scale(4.40618 4.55362)">
<stop offset="0.75" stop-color="#FFD976"/>
<stop offset="1" stop-color="white" stop-opacity="0"/>
</radialGradient>
<radialGradient id="paint38_radial_10681_35697" cx="0" cy="0" r="1" gradientUnits="userSpaceOnUse" gradientTransform="translate(217.288 82.0237) rotate(90) scale(4.40618 4.55362)">
<stop offset="0.75" stop-color="#FFD976"/>
<stop offset="1" stop-color="white" stop-opacity="0"/>
</radialGradient>
<radialGradient id="paint39_radial_10681_35697" cx="0" cy="0" r="1" gradientUnits="userSpaceOnUse" gradientTransform="translate(195.287 92.9166) rotate(90) scale(6.48688 6.70395)">
<stop offset="0.336538" stop-color="#FFD976"/>
<stop offset="1" stop-color="white" stop-opacity="0"/>
</radialGradient>
<radialGradient id="paint40_radial_10681_35697" cx="0" cy="0" r="1" gradientUnits="userSpaceOnUse" gradientTransform="translate(158.853 56.7441) rotate(90) scale(3.15283 3.25833)">
<stop offset="0.336538" stop-color="#FFD976"/>
<stop offset="1" stop-color="white" stop-opacity="0"/>
</radialGradient>
<radialGradient id="paint41_radial_10681_35697" cx="0" cy="0" r="1" gradientUnits="userSpaceOnUse" gradientTransform="translate(74.0041 74.3816) rotate(90) scale(4.9644 5.13052)">
<stop offset="0.336538" stop-color="#FFD871"/>
<stop offset="1" stop-color="#FFF7E0" stop-opacity="0"/>
</radialGradient>
<radialGradient id="paint42_radial_10681_35697" cx="0" cy="0" r="1" gradientUnits="userSpaceOnUse" gradientTransform="translate(117.107 32.0244) rotate(90) scale(3.33826 3.44997)">
<stop offset="0.336538" stop-color="#FFD871"/>
<stop offset="1" stop-color="#FFF7E0" stop-opacity="0"/>
</radialGradient>
<radialGradient id="paint43_radial_10681_35697" cx="0" cy="0" r="1" gradientUnits="userSpaceOnUse" gradientTransform="translate(32.4318 33.6622) rotate(90) scale(3.80308 3.93033)">
<stop offset="0.336538" stop-color="#FFD871"/>
<stop offset="1" stop-color="#FFF7E0" stop-opacity="0"/>
</radialGradient>
<radialGradient id="paint44_radial_10681_35697" cx="0" cy="0" r="1" gradientUnits="userSpaceOnUse" gradientTransform="translate(60.9112 32.0984) rotate(90) scale(3.64445 3.7664)">
<stop offset="0.336538" stop-color="#FFD871"/>
<stop offset="1" stop-color="#FFF7E0" stop-opacity="0"/>
</radialGradient>
<radialGradient id="paint45_radial_10681_35697" cx="0" cy="0" r="1" gradientUnits="userSpaceOnUse" gradientTransform="translate(90.4122 46.5184) rotate(90) scale(2.19782 2.27136)">
<stop offset="0.336538" stop-color="#FFD871"/>
<stop offset="1" stop-color="#FFF7E0" stop-opacity="0"/>
</radialGradient>
<radialGradient id="paint46_radial_10681_35697" cx="0" cy="0" r="1" gradientUnits="userSpaceOnUse" gradientTransform="translate(68.8744 18.9647) rotate(90) scale(2.19782 2.27136)">
<stop offset="0.336538" stop-color="#FFD871"/>
<stop offset="1" stop-color="#FFF7E0" stop-opacity="0"/>
</radialGradient>
<radialGradient id="paint47_radial_10681_35697" cx="0" cy="0" r="1" gradientUnits="userSpaceOnUse" gradientTransform="translate(91.0313 30.95) rotate(90) scale(5.42453 5.60604)">
<stop offset="0.336538" stop-color="#FFD871"/>
<stop offset="1" stop-color="#FFF7E0" stop-opacity="0"/>
</radialGradient>
<radialGradient id="paint48_radial_10681_35697" cx="0" cy="0" r="1" gradientUnits="userSpaceOnUse" gradientTransform="translate(79.2594 22.9856) rotate(90) scale(3.70717 3.83122)">
<stop offset="0.336538" stop-color="#FFD871"/>
<stop offset="1" stop-color="#FFF7E0" stop-opacity="0"/>
</radialGradient>
<radialGradient id="paint49_radial_10681_35697" cx="0" cy="0" r="1" gradientUnits="userSpaceOnUse" gradientTransform="translate(44.8846 25.3494) rotate(90) scale(3.34682 3.45881)">
<stop offset="0.336538" stop-color="#FFD871"/>
<stop offset="1" stop-color="#FFF7E0" stop-opacity="0"/>
</radialGradient>
</defs>
</svg>
