<svg viewBox="0 0 240 120" fill="none" xmlns="http://www.w3.org/2000/svg">
<path d="M210.139 86.8657C209.685 92.9605 214.385 93.7857 215.22 100.923C216.055 108.061 164.92 113.981 105.646 113.981C46.3734 113.981 22.9753 104.143 22.3579 87.8438C22.018 78.8708 29.0595 75.9288 28.9462 72.2042C28.8329 68.4796 16.2387 69.6509 16.4653 61.3552C16.6919 53.0594 28.493 50.4707 28.9462 40.482C29.3994 30.4932 13.8823 14.7963 74.3804 7.5152C135.324 0.180481 195.001 6.24995 213.173 23.366C231.345 40.482 215.918 43.5583 217.788 53.0775C219.659 62.5967 228.462 64.616 228.461 72.2042C228.461 79.7924 210.592 80.7709 210.139 86.8657Z" fill="url(#paint0_radial_10372_34917)"/>
<path d="M35.6154 61.0134C35.6154 62.3585 34.4885 63.4489 33.0985 63.4489C31.7084 63.4489 30.5815 62.3585 30.5815 61.0134C30.5815 59.6684 31.7084 58.578 33.0985 58.578C34.4885 58.578 35.6154 59.6684 35.6154 61.0134Z" fill="url(#paint1_radial_10372_34917)"/>
<path d="M53.484 26.1428C53.484 27.4879 52.3572 28.5783 50.9671 28.5783C49.5771 28.5783 48.4502 27.4879 48.4502 26.1428C48.4502 24.7978 49.5771 23.7074 50.9671 23.7074C52.3572 23.7074 53.484 24.7978 53.484 26.1428Z" fill="url(#paint2_radial_10372_34917)"/>
<path d="M59.5419 46.2732C59.5419 48.5642 57.6225 50.4215 55.2548 50.4215C52.8871 50.4215 50.9678 48.5642 50.9678 46.2732C50.9678 43.9822 52.8871 42.125 55.2548 42.125C57.6225 42.125 59.5419 43.9822 59.5419 46.2732Z" fill="url(#paint3_radial_10372_34917)"/>
<path d="M39.7528 74.679L40.7776 82.4055L48.2053 79.401L41.8024 84.1231L48.2053 88.8451L40.7776 85.8406L39.7528 93.5672L38.728 85.8406L31.3003 88.8451L37.7032 84.1231L31.3003 79.401L38.728 82.4055L39.7528 74.679Z" fill="url(#paint4_radial_10372_34917)"/>
<path d="M71.5544 55.0742L72.6181 63.0939L80.3275 59.9754L73.6818 64.8766L80.3275 69.7777L72.6181 66.6593L71.5544 74.6789L70.4907 66.6593L62.7812 69.7777L69.427 64.8766L62.7812 59.9754L70.4907 63.0939L71.5544 55.0742Z" fill="url(#paint5_radial_10372_34917)"/>
<path d="M75.5108 14.4395L76.6954 18.4559L80.8825 17.4404L77.88 20.4413L80.8825 23.4422L76.6954 22.4266L75.5108 26.4431L74.3262 22.4266L70.1392 23.4422L73.1416 20.4413L70.1392 17.4404L74.3262 18.4559L75.5108 14.4395Z" fill="url(#paint6_radial_10372_34917)"/>
<path d="M137.894 20.2317C168.339 20.2324 193.021 44.2455 193.022 73.8675C193.022 89.2447 186.36 103.102 175.705 112.882H100.083C89.4268 103.102 82.7661 89.2453 82.7661 73.8675C82.7671 44.2451 107.448 20.2317 137.894 20.2317Z" fill="url(#paint7_radial_10372_34917)"/>
<path d="M137.894 20.2317C168.339 20.2324 193.021 44.2455 193.022 73.8675C193.022 89.2447 186.36 103.102 175.705 112.882H100.083C89.4268 103.102 82.7661 89.2453 82.7661 73.8675C82.7671 44.2451 107.448 20.2317 137.894 20.2317Z" fill="url(#paint8_radial_10372_34917)"/>
<path d="M230.312 119.341C230.312 119.341 207.661 103.558 126.026 103.558C44.3915 103.557 9.63867 119.341 9.63867 119.341H230.312Z" fill="url(#paint9_linear_10372_34917)"/>
<path d="M230.312 119.341C230.312 119.341 207.661 103.558 126.026 103.558C44.3915 103.557 9.63867 119.341 9.63867 119.341H230.312Z" fill="url(#paint10_radial_10372_34917)"/>
<path d="M230.312 119.341C230.312 119.341 207.661 103.558 126.026 103.558C44.3915 103.557 9.63867 119.341 9.63867 119.341H230.312Z" fill="url(#paint11_radial_10372_34917)"/>
<path d="M96.466 46.7393C98.9907 45.9398 104.25 53.8925 107.154 54.3132C107.659 57.2585 100.211 62.4764 98.2754 60.625C96.3398 58.7735 93.9414 47.5388 96.466 46.7393Z" fill="url(#paint12_linear_10372_34917)"/>
<path d="M96.466 46.7393C98.9907 45.9398 104.25 53.8925 107.154 54.3132C107.659 57.2585 100.211 62.4764 98.2754 60.625C96.3398 58.7735 93.9414 47.5388 96.466 46.7393Z" fill="url(#paint13_radial_10372_34917)"/>
<path d="M95.7231 47.5291C99.0754 48.2272 99.7837 55.7948 104.837 58.2968C102.613 60.2764 99.4426 61.7446 98.2742 60.627C96.5884 59.0144 94.5529 50.2838 95.7231 47.5291Z" fill="url(#paint14_radial_10372_34917)"/>
<path d="M104.125 106.237C110.352 107.415 116.411 91.9305 113.045 80.1489L127.351 86.713C125.668 98.9995 109.005 112.128 105.807 112.128H98.4024C94.1946 112.128 97.8974 105.059 104.125 106.237Z" fill="url(#paint15_linear_10372_34917)"/>
<path d="M104.125 106.237C110.352 107.415 116.411 91.9305 113.045 80.1489L127.351 86.713C125.668 98.9995 109.005 112.128 105.807 112.128H98.4024C94.1946 112.128 97.8974 105.059 104.125 106.237Z" fill="url(#paint16_radial_10372_34917)"/>
<path d="M169.933 83.9892C162.696 74.0162 169.428 63.3309 161.518 53.8922L172.122 56.5635C175.937 63.3903 183.567 77.3287 183.567 78.4685C183.567 79.8932 186.26 89.51 185.082 90.7566C183.903 92.0032 173.3 112.127 169.933 112.127H161.518C157.815 112.127 159.469 106.072 165.389 106.072C168.081 106.072 177.171 93.9622 169.933 83.9892Z" fill="url(#paint17_linear_10372_34917)"/>
<path d="M169.933 83.9892C162.696 74.0162 169.428 63.3309 161.518 53.8922L172.122 56.5635C175.937 63.3903 183.567 77.3287 183.567 78.4685C183.567 79.8932 186.26 89.51 185.082 90.7566C183.903 92.0032 173.3 112.127 169.933 112.127H161.518C157.815 112.127 159.469 106.072 165.389 106.072C168.081 106.072 177.171 93.9622 169.933 83.9892Z" fill="url(#paint18_radial_10372_34917)"/>
<path d="M210.17 14.3664C195.864 12.6833 196.705 25.3065 187.448 32.0389C189.468 36.8076 194.718 45.5175 197.546 44.1711C197.546 37.6888 201.418 29.6822 204.616 26.6526C207.814 23.6231 217.407 25.1379 218.249 33.89C219.09 42.6421 212.509 48.9537 213.267 59.3047C213.746 65.8535 219.09 71.7596 221.783 69.5716C224.476 67.3836 220.336 65.2797 219.158 58.5473C217.979 51.8149 226.159 39.4442 227.338 33.89C228.516 28.3357 224.476 16.0495 210.17 14.3664Z" fill="url(#paint19_linear_10372_34917)"/>
<path d="M210.17 14.3664C195.864 12.6833 196.705 25.3065 187.448 32.0389C189.468 36.8076 194.718 45.5175 197.546 44.1711C197.546 37.6888 201.418 29.6822 204.616 26.6526C207.814 23.6231 217.407 25.1379 218.249 33.89C219.09 42.6421 212.509 48.9537 213.267 59.3047C213.746 65.8535 219.09 71.7596 221.783 69.5716C224.476 67.3836 220.336 65.2797 219.158 58.5473C217.979 51.8149 226.159 39.4442 227.338 33.89C228.516 28.3357 224.476 16.0495 210.17 14.3664Z" fill="url(#paint20_radial_10372_34917)"/>
<path d="M156.468 18.0432C126.677 22.0826 130.717 61.1307 118.43 61.9722L110.688 80.1497C120.955 92.6046 130.801 84.1891 130.969 90.2483C131.138 96.3074 125.499 107.752 120.955 107.752C116.411 107.752 111.866 113.98 116.074 113.98H124.321C132.063 113.98 142.112 94.3916 144.182 85.3673C146.285 76.1944 152.597 54.9032 164.042 55.9131C175.487 56.923 171.953 66.5166 179.022 77.2884C186.091 88.0603 189.625 87.0504 192.487 90.2483C195.348 93.4462 193.398 109.17 190.483 108.227C187.569 107.284 181.785 113.98 185.656 113.98H193.398C199.12 113.98 198.882 102.872 202.753 92.0997C206.625 81.3279 192.318 85.8719 198.209 63.6551C204.1 41.4382 186.259 14.0037 156.468 18.0432Z" fill="url(#paint21_linear_10372_34917)"/>
<path d="M156.468 18.0432C126.677 22.0826 130.717 61.1307 118.43 61.9722L110.688 80.1497C120.955 92.6046 130.801 84.1891 130.969 90.2483C131.138 96.3074 125.499 107.752 120.955 107.752C116.411 107.752 111.866 113.98 116.074 113.98H124.321C132.063 113.98 142.112 94.3916 144.182 85.3673C146.285 76.1944 152.597 54.9032 164.042 55.9131C175.487 56.923 171.953 66.5166 179.022 77.2884C186.091 88.0603 189.625 87.0504 192.487 90.2483C195.348 93.4462 193.398 109.17 190.483 108.227C187.569 107.284 181.785 113.98 185.656 113.98H193.398C199.12 113.98 198.882 102.872 202.753 92.0997C206.625 81.3279 192.318 85.8719 198.209 63.6551C204.1 41.4382 186.259 14.0037 156.468 18.0432Z" fill="url(#paint22_radial_10372_34917)"/>
<path d="M93.4372 69.3762C93.353 61.2131 101.179 54.06 109.932 53.8917C113.017 53.4989 120.231 54.1441 124.406 59.8667C129.623 67.0198 126.425 77.1184 114.896 80.8212C103.367 84.524 93.5214 77.5392 93.4372 69.3762Z" fill="url(#paint23_linear_10372_34917)"/>
<path d="M93.4372 69.3762C93.353 61.2131 101.179 54.06 109.932 53.8917C113.017 53.4989 120.231 54.1441 124.406 59.8667C129.623 67.0198 126.425 77.1184 114.896 80.8212C103.367 84.524 93.5214 77.5392 93.4372 69.3762Z" fill="url(#paint24_radial_10372_34917)"/>
<path d="M100.42 76.6983C99.6799 76.6983 98.4849 75.2396 97.98 74.5102C98.4428 73.795 102.272 73.711 103.366 74.5102C102.693 75.2396 101.161 76.6983 100.42 76.6983Z" fill="url(#paint25_radial_10372_34917)"/>
<path d="M85.6936 71.8197C89.3544 71.3569 93.0572 73.5024 97.2229 74.0072V74.7226C94.3196 75.4379 90.7432 72.535 86.1144 72.1985C84.4777 72.0794 85.1466 71.8197 85.6936 71.8197Z" fill="url(#paint26_linear_10372_34917)"/>
<path d="M118.894 72.302C114.361 71.8392 109.776 73.9847 104.618 74.4895V75.2049C108.213 75.9202 112.641 73.0173 118.373 72.6808C120.4 72.5617 119.572 72.302 118.894 72.302Z" fill="url(#paint27_linear_10372_34917)"/>
<path d="M91.5014 75.396C93.5001 75.1435 94.1523 75.6063 97.7289 75.396L97.9813 76.0481C97.287 76.4479 95.1832 76.2796 92.385 76.0481C89.5869 75.8167 86.4731 77.4367 86.4731 77.2263C86.4731 77.0159 89.5027 75.6484 91.5014 75.396Z" fill="url(#paint28_linear_10372_34917)"/>
<path d="M111.799 76.3599C109.347 76.1075 108.547 76.5703 104.16 76.3599L103.85 77.0121C104.702 77.4119 107.283 77.2436 110.715 77.0121C114.148 76.7807 117.967 78.4007 117.967 78.1903C117.967 77.9799 114.251 76.6124 111.799 76.3599Z" fill="url(#paint29_linear_10372_34917)"/>
<path d="M115.106 64.8322C107.599 64.26 105.358 68.3246 105.176 70.4285C106.438 71.3261 109.636 72.7427 112.371 70.723C115.106 68.7033 114.727 65.6316 115.359 65.2109L115.106 64.8322Z" fill="url(#paint30_radial_10372_34917)"/>
<path d="M95.3277 64.9167C99.073 65.5058 99.7874 68.9985 99.9697 71.1024C98.6943 71.6491 95.7909 71.4808 95.0753 69.4611C94.3596 67.4414 95.3277 66.0108 95.0753 65.2954L95.3277 64.9167Z" fill="url(#paint31_radial_10372_34917)"/>
<path d="M110.461 65.1584C110.59 67.1007 110.118 70.3474 109.131 70.3868C108.234 70.4214 107.557 68.1964 107.427 66.6008C108.193 66.0007 109.188 65.4865 110.461 65.1584Z" fill="#040E14"/>
<path d="M97.3915 65.6943C98.3437 66.3212 98.943 67.2211 99.3251 68.1733C99.0575 69.1755 98.6236 70.0559 98.0946 70.0348C97.2462 69.9983 96.9113 67.3583 97.3915 65.6943Z" fill="#040E14"/>
<path d="M121.924 46.6966C120.031 46.6546 115.402 52.6716 112.835 54.1443C110.437 61.3398 124.407 65.2526 124.827 60.8344C125.248 56.4163 123.818 46.7387 121.924 46.6966Z" fill="url(#paint32_linear_10372_34917)"/>
<path d="M121.924 46.6966C120.031 46.6546 115.402 52.6716 112.835 54.1443C110.437 61.3398 124.407 65.2526 124.827 60.8344C125.248 56.4163 123.818 46.7387 121.924 46.6966Z" fill="url(#paint33_radial_10372_34917)"/>
<path d="M122.112 46.7313C123.911 47.3784 125.232 56.5639 124.825 60.8344C124.482 64.437 115.134 62.4994 112.994 57.7605C117.142 54.1318 119.071 47.6263 121.796 46.7809C121.902 46.7482 122.008 46.7331 122.112 46.7313Z" fill="url(#paint34_radial_10372_34917)"/>
<defs>
<radialGradient id="paint0_radial_10372_34917" cx="0" cy="0" r="1" gradientUnits="userSpaceOnUse" gradientTransform="translate(143.365 62.3083) rotate(172.995) scale(137.178 94.6979)">
<stop stop-color="#FAB67E"/>
<stop offset="0.240385" stop-color="#F9A2A6"/>
<stop offset="0.485577" stop-color="#CA86C6"/>
<stop offset="1" stop-color="#283C69"/>
</radialGradient>
<radialGradient id="paint1_radial_10372_34917" cx="0" cy="0" r="1" gradientUnits="userSpaceOnUse" gradientTransform="translate(33.0985 61.0134) rotate(90) scale(2.43543 2.51692)">
<stop offset="0.19" stop-color="#FFF6E0"/>
<stop offset="1" stop-color="#FFFCE0" stop-opacity="0"/>
</radialGradient>
<radialGradient id="paint2_radial_10372_34917" cx="0" cy="0" r="1" gradientUnits="userSpaceOnUse" gradientTransform="translate(50.9671 26.1428) rotate(90) scale(2.43543 2.51692)">
<stop offset="0.19" stop-color="#FFF6E0"/>
<stop offset="1" stop-color="#FFFCE0" stop-opacity="0"/>
</radialGradient>
<radialGradient id="paint3_radial_10372_34917" cx="0" cy="0" r="1" gradientUnits="userSpaceOnUse" gradientTransform="translate(55.2548 46.2732) rotate(90) scale(4.14823 4.28704)">
<stop offset="0.19" stop-color="#FFF6E0"/>
<stop offset="1" stop-color="#FFFCE0" stop-opacity="0"/>
</radialGradient>
<radialGradient id="paint4_radial_10372_34917" cx="0" cy="0" r="1" gradientUnits="userSpaceOnUse" gradientTransform="translate(39.7528 84.1231) rotate(90) scale(9.44411 9.76013)">
<stop offset="0.19" stop-color="#FFF6E0"/>
<stop offset="1" stop-color="#FFFCE0" stop-opacity="0"/>
</radialGradient>
<radialGradient id="paint5_radial_10372_34917" cx="0" cy="0" r="1" gradientUnits="userSpaceOnUse" gradientTransform="translate(71.5544 64.8766) rotate(90) scale(9.80234 10.1303)">
<stop offset="0.19" stop-color="#FFF6E0"/>
<stop offset="1" stop-color="#FFFCE0" stop-opacity="0"/>
</radialGradient>
<radialGradient id="paint6_radial_10372_34917" cx="0" cy="0" r="1" gradientUnits="userSpaceOnUse" gradientTransform="translate(75.5108 20.4413) rotate(90) scale(6.00183 6.20266)">
<stop offset="0.19" stop-color="#FFF6E0"/>
<stop offset="1" stop-color="#FFFCE0" stop-opacity="0"/>
</radialGradient>
<radialGradient id="paint7_radial_10372_34917" cx="0" cy="0" r="1" gradientTransform="matrix(5.58278 61.1084 -62.8063 5.43186 123.24 59.9389)" gradientUnits="userSpaceOnUse">
<stop stop-color="#FFFAE7"/>
<stop offset="0.995" stop-color="#FFEA9B"/>
</radialGradient>
<radialGradient id="paint8_radial_10372_34917" cx="0" cy="0" r="1" gradientTransform="matrix(3.27305 81.3412 -83.6013 3.18456 134.62 59.8735)" gradientUnits="userSpaceOnUse">
<stop offset="0.327299" stop-color="#FFEA9B" stop-opacity="0"/>
<stop offset="0.94" stop-color="#FFB180"/>
</radialGradient>
<linearGradient id="paint9_linear_10372_34917" x1="110.738" y1="-2.88456" x2="173.964" y2="178.399" gradientUnits="userSpaceOnUse">
<stop stop-color="#9A50BD"/>
<stop offset="1" stop-color="#08813F"/>
</linearGradient>
<radialGradient id="paint10_radial_10372_34917" cx="0" cy="0" r="1" gradientUnits="userSpaceOnUse" gradientTransform="translate(103.627 105.588) rotate(-2.2546) scale(137.271 23.1012)">
<stop offset="0.265874" stop-color="#063A10" stop-opacity="0"/>
<stop offset="1" stop-color="#063A10"/>
</radialGradient>
<radialGradient id="paint11_radial_10372_34917" cx="0" cy="0" r="1" gradientUnits="userSpaceOnUse" gradientTransform="translate(148.815 93.4616) rotate(178.944) scale(125.214 47.631)">
<stop stop-color="#FFE3A8"/>
<stop offset="1" stop-color="#768474" stop-opacity="0"/>
</radialGradient>
<linearGradient id="paint12_linear_10372_34917" x1="112.514" y1="57.1642" x2="97.3869" y2="48.5562" gradientUnits="userSpaceOnUse">
<stop stop-color="#031926"/>
<stop offset="1" stop-color="#3B464C"/>
</linearGradient>
<radialGradient id="paint13_radial_10372_34917" cx="0" cy="0" r="1" gradientUnits="userSpaceOnUse" gradientTransform="translate(95.0275 45.843) rotate(32.9655) scale(11.4592 5.9047)">
<stop stop-color="#68706C"/>
<stop offset="1" stop-color="#68706C" stop-opacity="0"/>
</radialGradient>
<radialGradient id="paint14_radial_10372_34917" cx="0" cy="0" r="1" gradientTransform="matrix(-8.41312 -9.66691 6.68932 -5.81218 99.2393 50.0443)" gradientUnits="userSpaceOnUse">
<stop stop-color="#B9AB96"/>
<stop offset="1" stop-color="#23201C" stop-opacity="0"/>
</radialGradient>
<linearGradient id="paint15_linear_10372_34917" x1="118.446" y1="92.7164" x2="74.258" y2="85.0377" gradientUnits="userSpaceOnUse">
<stop stop-color="#031926"/>
<stop offset="1" stop-color="#3B464C"/>
</linearGradient>
<radialGradient id="paint16_radial_10372_34917" cx="0" cy="0" r="1" gradientTransform="matrix(-8.49959 14.8691 -8.48877 -4.85235 108.926 97.2585)" gradientUnits="userSpaceOnUse">
<stop stop-color="#68706C"/>
<stop offset="1" stop-color="#68706C" stop-opacity="0"/>
</radialGradient>
<linearGradient id="paint17_linear_10372_34917" x1="177.899" y1="76.7783" x2="139.9" y2="73.7322" gradientUnits="userSpaceOnUse">
<stop stop-color="#031926"/>
<stop offset="1" stop-color="#3B464C"/>
</linearGradient>
<radialGradient id="paint18_radial_10372_34917" cx="0" cy="0" r="1" gradientTransform="matrix(10.0323 26.8328 -9.76585 4.08788 163.686 72.5028)" gradientUnits="userSpaceOnUse">
<stop stop-color="#68706C"/>
<stop offset="1" stop-color="#68706C" stop-opacity="0"/>
</radialGradient>
<linearGradient id="paint19_linear_10372_34917" x1="226.192" y1="55.3408" x2="156.999" y2="32.8847" gradientUnits="userSpaceOnUse">
<stop stop-color="#031926"/>
<stop offset="1" stop-color="#3B464C"/>
</linearGradient>
<radialGradient id="paint20_radial_10372_34917" cx="0" cy="0" r="1" gradientTransform="matrix(-18.1139 20.0646 -6.56692 -10.7675 201.447 14.2135)" gradientUnits="userSpaceOnUse">
<stop stop-color="#68706C"/>
<stop offset="1" stop-color="#68706C" stop-opacity="0"/>
</radialGradient>
<linearGradient id="paint21_linear_10372_34917" x1="200.332" y1="88.6202" x2="126.483" y2="30.2378" gradientUnits="userSpaceOnUse">
<stop stop-color="#031926"/>
<stop offset="1" stop-color="#3B464C"/>
</linearGradient>
<radialGradient id="paint22_radial_10372_34917" cx="0" cy="0" r="1" gradientUnits="userSpaceOnUse" gradientTransform="translate(142.089 21.7382) rotate(133.674) scale(60.9362 28.8084)">
<stop stop-color="#68706C"/>
<stop offset="1" stop-color="#68706C" stop-opacity="0"/>
</radialGradient>
<linearGradient id="paint23_linear_10372_34917" x1="125.719" y1="74.458" x2="103.633" y2="52.8553" gradientUnits="userSpaceOnUse">
<stop stop-color="#031926"/>
<stop offset="1" stop-color="#3B464C"/>
</linearGradient>
<radialGradient id="paint24_radial_10372_34917" cx="0" cy="0" r="1" gradientUnits="userSpaceOnUse" gradientTransform="translate(101.96 60.4732) rotate(149.295) scale(14.3861)">
<stop stop-color="#68706C"/>
<stop offset="1" stop-color="#68706C" stop-opacity="0"/>
</radialGradient>
<radialGradient id="paint25_radial_10372_34917" cx="0" cy="0" r="1" gradientUnits="userSpaceOnUse" gradientTransform="translate(99.5203 73.9419) rotate(28.3191) scale(4.94627)">
<stop offset="0.311189" stop-color="#DA9F7A"/>
<stop offset="1" stop-color="#745541" stop-opacity="0"/>
</radialGradient>
<linearGradient id="paint26_linear_10372_34917" x1="95.0974" y1="73.9199" x2="97.2229" y2="73.7109" gradientUnits="userSpaceOnUse">
<stop stop-color="#6F695E"/>
<stop offset="1" stop-color="#353735" stop-opacity="0"/>
</linearGradient>
<linearGradient id="paint27_linear_10372_34917" x1="116.346" y1="71.8637" x2="104.618" y2="74.4414" gradientUnits="userSpaceOnUse">
<stop stop-color="#B9AB96"/>
<stop offset="0.665625" stop-color="#8E8373" stop-opacity="0.579217"/>
<stop offset="1" stop-color="#534D43" stop-opacity="0"/>
</linearGradient>
<linearGradient id="paint28_linear_10372_34917" x1="95.9665" y1="76.6726" x2="97.9566" y2="76.376" gradientUnits="userSpaceOnUse">
<stop stop-color="#6F695E"/>
<stop offset="1" stop-color="#353735" stop-opacity="0"/>
</linearGradient>
<linearGradient id="paint29_linear_10372_34917" x1="114.864" y1="76.0488" x2="104.687" y2="78.6983" gradientUnits="userSpaceOnUse">
<stop stop-color="#B9AB96"/>
<stop offset="0.710447" stop-color="#82796A" stop-opacity="0.465429"/>
<stop offset="1" stop-color="#534D43" stop-opacity="0"/>
</linearGradient>
<radialGradient id="paint30_radial_10372_34917" cx="0" cy="0" r="1" gradientUnits="userSpaceOnUse" gradientTransform="translate(112.862 69.0421) rotate(142.995) scale(8.85492)">
<stop offset="0.268408" stop-color="#FFD250"/>
<stop offset="0.667353" stop-color="#E9A519"/>
</radialGradient>
<radialGradient id="paint31_radial_10372_34917" cx="0" cy="0" r="1" gradientUnits="userSpaceOnUse" gradientTransform="translate(98.474 68.3806) rotate(77.6613) scale(5.53994 6.09545)">
<stop offset="0.268408" stop-color="#FFD250"/>
<stop offset="0.667353" stop-color="#E9A519"/>
</radialGradient>
<linearGradient id="paint32_linear_10372_34917" x1="119.412" y1="60.7167" x2="112.027" y2="57.9996" gradientUnits="userSpaceOnUse">
<stop stop-color="#031926"/>
<stop offset="1" stop-color="#3B464C"/>
</linearGradient>
<radialGradient id="paint33_radial_10372_34917" cx="0" cy="0" r="1" gradientUnits="userSpaceOnUse" gradientTransform="translate(115.709 50.5056) rotate(135.535) scale(6.72007 2.21112)">
<stop stop-color="#68706C"/>
<stop offset="1" stop-color="#68706C" stop-opacity="0"/>
</radialGradient>
<radialGradient id="paint34_radial_10372_34917" cx="0" cy="0" r="1" gradientTransform="matrix(7.80063 -11.1466 8.18791 5.733 118.052 49.0477)" gradientUnits="userSpaceOnUse">
<stop stop-color="#B9AB96"/>
<stop offset="0.527685" stop-color="#918676" stop-opacity="0.5"/>
<stop offset="1" stop-color="#23201C" stop-opacity="0"/>
</radialGradient>
</defs>
</svg>
