<svg viewBox="0 0 240 120" fill="none" xmlns="http://www.w3.org/2000/svg">
<path d="M13.0507 65.7678C27.9593 74.8778 28.7869 86.4728 20.0909 90.1998H222.172C218.031 87.163 211.239 79.4331 225.484 69.4947C243.291 57.0716 225.567 16.8428 197.019 18.4637C167.866 20.1189 152.189 2.41062 111.608 4.06703C71.0257 5.72343 70.8533 15.5567 37.2116 18.4636C3.79145 21.3514 -1.85796 56.6577 13.0507 65.7678Z" fill="url(#paint0_linear_10583_34617)"/>
<path d="M13.0507 65.7678C27.9593 74.8778 28.7869 86.4728 20.0909 90.1998H222.172C218.031 87.163 211.239 79.4331 225.484 69.4947C243.291 57.0716 225.567 16.8428 197.019 18.4637C167.866 20.1189 152.189 2.41062 111.608 4.06703C71.0257 5.72343 70.8533 15.5567 37.2116 18.4636C3.79145 21.3514 -1.85796 56.6577 13.0507 65.7678Z" fill="url(#paint1_radial_10583_34617)"/>
<path d="M13.0507 65.7678C27.9593 74.8778 28.7869 86.4728 20.0909 90.1998H222.172C218.031 87.163 211.239 79.4331 225.484 69.4947C243.291 57.0716 225.567 16.8428 197.019 18.4637C167.866 20.1189 152.189 2.41062 111.608 4.06703C71.0257 5.72343 70.8533 15.5567 37.2116 18.4636C3.79145 21.3514 -1.85796 56.6577 13.0507 65.7678Z" fill="url(#paint2_radial_10583_34617)"/>
<path d="M13.0507 65.7678C27.9593 74.8778 28.7869 86.4728 20.0909 90.1998H222.172C218.031 87.163 211.239 79.4331 225.484 69.4947C243.291 57.0716 225.567 16.8428 197.019 18.4637C167.866 20.1189 152.189 2.41062 111.608 4.06703C71.0257 5.72343 70.8533 15.5567 37.2116 18.4636C3.79145 21.3514 -1.85796 56.6577 13.0507 65.7678Z" fill="url(#paint3_radial_10583_34617)"/>
<path d="M13.0507 65.7678C27.9593 74.8778 28.7869 86.4728 20.0909 90.1998H222.172C218.031 87.163 211.239 79.4331 225.484 69.4947C243.291 57.0716 225.567 16.8428 197.019 18.4637C167.866 20.1189 152.189 2.41062 111.608 4.06703C71.0257 5.72343 70.8533 15.5567 37.2116 18.4636C3.79145 21.3514 -1.85796 56.6577 13.0507 65.7678Z" fill="url(#paint4_radial_10583_34617)"/>
<path d="M13.0507 65.7678C27.9593 74.8778 28.7869 86.4728 20.0909 90.1998H222.172C218.031 87.163 211.239 79.4331 225.484 69.4947C243.291 57.0716 225.567 16.8428 197.019 18.4637C167.866 20.1189 152.189 2.41062 111.608 4.06703C71.0257 5.72343 70.8533 15.5567 37.2116 18.4636C3.79145 21.3514 -1.85796 56.6577 13.0507 65.7678Z" fill="url(#paint5_radial_10583_34617)"/>
<path d="M182.84 25.2358C189.756 25.2358 195.513 30.1741 196.796 36.7146C197.556 36.4379 198.375 36.2828 199.23 36.2828C200.844 36.2831 202.327 36.8249 203.52 37.7301C205.093 34.0177 208.772 31.4142 213.058 31.4142C218.774 31.4143 223.406 36.0477 223.407 41.7636C223.407 47.4805 218.775 52.1176 213.058 52.1177C211.449 52.1177 209.932 51.7381 208.574 51.0833C208.31 56.5649 203.8 60.9295 198.253 60.9297C193.254 60.9297 189.081 57.3855 188.112 52.6729C186.48 53.3249 184.705 53.6979 182.84 53.6979C180.865 53.6979 178.984 53.2914 177.274 52.5638C175.859 55.1644 173.102 56.9294 169.933 56.9294C168.486 56.9294 167.124 56.5617 165.938 55.914C165.036 57.7381 163.165 58.9979 160.993 58.9984C157.943 58.9984 155.469 56.5248 155.469 53.4749C155.469 50.425 157.943 47.9514 160.993 47.9514C161.201 47.9514 161.407 47.9621 161.61 47.9846C161.884 44.0826 164.832 40.9285 168.638 40.3353C168.62 40.048 168.614 39.7585 168.614 39.4669C168.614 31.6086 174.982 25.2358 182.84 25.2358Z" fill="url(#paint6_radial_10583_34617)"/>
<path d="M43.144 27.9829C48.0219 27.9829 51.9762 31.9372 51.9762 36.8151C51.9762 37.1592 51.9496 37.4979 51.9113 37.8317C52.0699 37.8212 52.2296 37.8101 52.3908 37.8101C54.8988 37.8101 57.0993 39.1085 58.3715 41.0654C60.1024 38.8136 62.8173 37.3595 65.877 37.3595C69.8086 37.3595 73.1769 39.7554 74.6083 43.1671C75.1623 42.9816 75.7547 42.8787 76.3712 42.8787C79.4363 42.8787 81.9228 45.3653 81.9228 48.4304C81.9223 51.4951 79.436 53.9785 76.3712 53.9785C75.1548 53.9785 74.034 53.5822 73.1195 52.9186C71.3826 54.9812 68.7846 56.2965 65.877 56.2965C65.6929 56.2965 65.5106 56.278 65.3291 56.2676C65.3299 56.3189 65.3399 56.3712 65.3399 56.4226C65.3393 61.6514 61.0985 65.8893 55.8696 65.8893C52.1039 65.8893 48.8621 63.6868 47.3366 60.5035C45.5167 61.5823 43.3942 62.2049 41.1252 62.205C39.2104 62.205 37.399 61.7617 35.7862 60.9757C33.7273 62.5603 31.1517 63.51 28.3528 63.51C21.6132 63.5094 16.1499 58.0433 16.1499 51.3036C16.1499 50.1119 16.3216 48.9603 16.6402 47.8716C16.4788 47.8865 16.3152 47.9005 16.1499 47.9005C13.2394 47.9001 10.88 45.5404 10.8794 42.63C10.8794 39.8953 12.9616 37.6437 15.6272 37.3811C15.7236 33.2581 19.0911 29.944 23.2373 29.944C27.0232 29.9441 30.1524 32.7095 30.7429 36.3285C31.4625 35.8769 32.3144 35.6183 33.2267 35.6183C33.6253 35.6183 34.0108 35.6722 34.3803 35.7661C34.8994 31.383 38.6214 27.9829 43.144 27.9829Z" fill="url(#paint7_radial_10583_34617)"/>
<path d="M19.439 70.7216C10.1728 72.2902 7.18365 86.9303 17.3467 90.5903H91.6763C94.3665 84.2114 90.381 79.8194 84.901 79.8194C85.0006 76.9611 83.7054 71.8092 77.7271 74.0679C78.8231 70.6171 72.7452 66.957 69.2579 69.7805C70.4536 60.5781 60.6891 58.5912 56.9029 61.4147C57.2018 57.5455 49.1312 55.7678 46.441 59.3232C48.633 53.8855 41.8577 47.2974 36.9755 50.2254C34.086 41.5459 21.7309 46.2517 23.6241 52.3169C10.4719 55.6632 15.1549 69.2576 19.439 70.7216Z" fill="url(#paint8_linear_10583_34617)"/>
<path d="M19.439 70.7216C10.1728 72.2902 7.18365 86.9303 17.3467 90.5903H91.6763C94.3665 84.2114 90.381 79.8194 84.901 79.8194C85.0006 76.9611 83.7054 71.8092 77.7271 74.0679C78.8231 70.6171 72.7452 66.957 69.2579 69.7805C70.4536 60.5781 60.6891 58.5912 56.9029 61.4147C57.2018 57.5455 49.1312 55.7678 46.441 59.3232C48.633 53.8855 41.8577 47.2974 36.9755 50.2254C34.086 41.5459 21.7309 46.2517 23.6241 52.3169C10.4719 55.6632 15.1549 69.2576 19.439 70.7216Z" fill="url(#paint9_radial_10583_34617)"/>
<path d="M19.439 70.7216C10.1728 72.2902 7.18365 86.9303 17.3467 90.5903H91.6763C94.3665 84.2114 90.381 79.8194 84.901 79.8194C85.0006 76.9611 83.7054 71.8092 77.7271 74.0679C78.8231 70.6171 72.7452 66.957 69.2579 69.7805C70.4536 60.5781 60.6891 58.5912 56.9029 61.4147C57.2018 57.5455 49.1312 55.7678 46.441 59.3232C48.633 53.8855 41.8577 47.2974 36.9755 50.2254C34.086 41.5459 21.7309 46.2517 23.6241 52.3169C10.4719 55.6632 15.1549 69.2576 19.439 70.7216Z" fill="url(#paint10_radial_10583_34617)"/>
<path d="M19.439 70.7216C10.1728 72.2902 7.18365 86.9303 17.3467 90.5903H91.6763C94.3665 84.2114 90.381 79.8194 84.901 79.8194C85.0006 76.9611 83.7054 71.8092 77.7271 74.0679C78.8231 70.6171 72.7452 66.957 69.2579 69.7805C70.4536 60.5781 60.6891 58.5912 56.9029 61.4147C57.2018 57.5455 49.1312 55.7678 46.441 59.3232C48.633 53.8855 41.8577 47.2974 36.9755 50.2254C34.086 41.5459 21.7309 46.2517 23.6241 52.3169C10.4719 55.6632 15.1549 69.2576 19.439 70.7216Z" fill="url(#paint11_radial_10583_34617)"/>
<path d="M34.2726 82.0877C31.0514 80.5204 25.6214 85.9598 31.5115 90.4772H78.4485C82.1299 86.513 80.9335 80.7047 76.976 80.7047C79.553 75.9106 76.6079 72.1307 72.6504 72.1307C74.0309 68.6274 70.3496 64.9396 66.5762 65.7694C63.355 59.9612 49.918 62.8192 49.4578 69.7337C48.8136 67.2445 43.1995 67.7055 43.1995 72.7761C39.4261 69.7337 30.4068 74.8043 34.2726 82.0877Z" fill="url(#paint12_linear_10583_34617)"/>
<path d="M34.2726 82.0877C31.0514 80.5204 25.6214 85.9598 31.5115 90.4772H78.4485C82.1299 86.513 80.9335 80.7047 76.976 80.7047C79.553 75.9106 76.6079 72.1307 72.6504 72.1307C74.0309 68.6274 70.3496 64.9396 66.5762 65.7694C63.355 59.9612 49.918 62.8192 49.4578 69.7337C48.8136 67.2445 43.1995 67.7055 43.1995 72.7761C39.4261 69.7337 30.4068 74.8043 34.2726 82.0877Z" fill="url(#paint13_radial_10583_34617)"/>
<path d="M34.2726 82.0877C31.0514 80.5204 25.6214 85.9598 31.5115 90.4772H78.4485C82.1299 86.513 80.9335 80.7047 76.976 80.7047C79.553 75.9106 76.6079 72.1307 72.6504 72.1307C74.0309 68.6274 70.3496 64.9396 66.5762 65.7694C63.355 59.9612 49.918 62.8192 49.4578 69.7337C48.8136 67.2445 43.1995 67.7055 43.1995 72.7761C39.4261 69.7337 30.4068 74.8043 34.2726 82.0877Z" fill="url(#paint14_radial_10583_34617)"/>
<path d="M21.998 77.5186C17.9268 76.2637 11.4545 83.2701 17.8224 90.5902H61.5625C65.5294 79.8191 57.5956 73.8587 50.9145 74.4862C52.898 60.3689 33.5855 62.2511 33.5855 68.1071C27.1132 63.9243 19.1794 73.3359 21.998 77.5186Z" fill="url(#paint15_linear_10583_34617)"/>
<path d="M21.998 77.5186C17.9268 76.2637 11.4545 83.2701 17.8224 90.5902H61.5625C65.5294 79.8191 57.5956 73.8587 50.9145 74.4862C52.898 60.3689 33.5855 62.2511 33.5855 68.1071C27.1132 63.9243 19.1794 73.3359 21.998 77.5186Z" fill="url(#paint16_radial_10583_34617)"/>
<path d="M21.998 77.5186C17.9268 76.2637 11.4545 83.2701 17.8224 90.5902H61.5625C65.5294 79.8191 57.5956 73.8587 50.9145 74.4862C52.898 60.3689 33.5855 62.2511 33.5855 68.1071C27.1132 63.9243 19.1794 73.3359 21.998 77.5186Z" fill="url(#paint17_radial_10583_34617)"/>
<path d="M224.781 83.3897C226.451 82.7622 230.209 87.1543 224.781 91.4417H150.976C149.097 79.2066 163.607 74.3966 168.514 78.0566C165.695 72.7236 176.135 67.5994 178.535 71.1549C177.074 62.5799 185.738 58.2925 189.914 58.2925C187.409 50.4495 198.578 45.2209 201.606 47.8351C205.886 37.2734 219.352 43.1293 217.056 47.8351C218.726 47.626 221.127 52.1226 219.352 54.2139C223.424 52.227 231.879 61.6385 223.006 66.8672C229.478 69.3769 229.374 79.1021 224.781 83.3897Z" fill="url(#paint18_linear_10583_34617)"/>
<path d="M224.781 83.3897C226.451 82.7622 230.209 87.1543 224.781 91.4417H150.976C149.097 79.2066 163.607 74.3966 168.514 78.0566C165.695 72.7236 176.135 67.5994 178.535 71.1549C177.074 62.5799 185.738 58.2925 189.914 58.2925C187.409 50.4495 198.578 45.2209 201.606 47.8351C205.886 37.2734 219.352 43.1293 217.056 47.8351C218.726 47.626 221.127 52.1226 219.352 54.2139C223.424 52.227 231.879 61.6385 223.006 66.8672C229.478 69.3769 229.374 79.1021 224.781 83.3897Z" fill="url(#paint19_radial_10583_34617)"/>
<path d="M224.781 83.3897C226.451 82.7622 230.209 87.1543 224.781 91.4417H150.976C149.097 79.2066 163.607 74.3966 168.514 78.0566C165.695 72.7236 176.135 67.5994 178.535 71.1549C177.074 62.5799 185.738 58.2925 189.914 58.2925C187.409 50.4495 198.578 45.2209 201.606 47.8351C205.886 37.2734 219.352 43.1293 217.056 47.8351C218.726 47.626 221.127 52.1226 219.352 54.2139C223.424 52.227 231.879 61.6385 223.006 66.8672C229.478 69.3769 229.374 79.1021 224.781 83.3897Z" fill="url(#paint20_radial_10583_34617)"/>
<path d="M224.781 83.3897C226.451 82.7622 230.209 87.1543 224.781 91.4417H150.976C149.097 79.2066 163.607 74.3966 168.514 78.0566C165.695 72.7236 176.135 67.5994 178.535 71.1549C177.074 62.5799 185.738 58.2925 189.914 58.2925C187.409 50.4495 198.578 45.2209 201.606 47.8351C205.886 37.2734 219.352 43.1293 217.056 47.8351C218.726 47.626 221.127 52.1226 219.352 54.2139C223.424 52.227 231.879 61.6385 223.006 66.8672C229.478 69.3769 229.374 79.1021 224.781 83.3897Z" fill="url(#paint21_radial_10583_34617)"/>
<path d="M163.708 83.7029C161.829 82.5527 155.774 87.363 159.011 91.4413H211.937C214.129 87.363 210.789 81.2977 205.151 82.448C206.3 78.2651 201.185 70.5268 193.564 71.991C196.487 64.462 189.18 61.5336 186.257 63.3114C183.334 55.8868 174.252 60.0695 175.4 64.7755C169.867 63.3114 166.84 68.6446 168.823 71.991C165.691 71.6773 160.263 78.0562 163.708 83.7029Z" fill="url(#paint22_linear_10583_34617)"/>
<path d="M163.708 83.7029C161.829 82.5527 155.774 87.363 159.011 91.4413H211.937C214.129 87.363 210.789 81.2977 205.151 82.448C206.3 78.2651 201.185 70.5268 193.564 71.991C196.487 64.462 189.18 61.5336 186.257 63.3114C183.334 55.8868 174.252 60.0695 175.4 64.7755C169.867 63.3114 166.84 68.6446 168.823 71.991C165.691 71.6773 160.263 78.0562 163.708 83.7029Z" fill="url(#paint23_radial_10583_34617)"/>
<path d="M163.708 83.7029C161.829 82.5527 155.774 87.363 159.011 91.4413H211.937C214.129 87.363 210.789 81.2977 205.151 82.448C206.3 78.2651 201.185 70.5268 193.564 71.991C196.487 64.462 189.18 61.5336 186.257 63.3114C183.334 55.8868 174.252 60.0695 175.4 64.7755C169.867 63.3114 166.84 68.6446 168.823 71.991C165.691 71.6773 160.263 78.0562 163.708 83.7029Z" fill="url(#paint24_radial_10583_34617)"/>
<path d="M28.3905 98.3681C8.83416 98.3681 8.9881 86.2637 20.6913 86.2637H202.547C233.959 86.2637 233.343 95.7299 213.325 95.7299C186.22 95.7299 214.403 102.558 195.155 112.024C175.907 121.491 74.5856 121.646 54.5676 112.955C34.5496 104.265 65.0387 98.3681 28.3905 98.3681Z" fill="url(#paint25_radial_10583_34617)"/>
<path d="M187.386 109.358C187.386 112.534 165.399 115.109 138.277 115.109C111.154 115.109 89.1672 112.534 89.1672 109.358C89.1672 106.182 111.154 103.607 138.277 103.607C165.399 103.607 187.386 106.182 187.386 109.358Z" fill="url(#paint26_radial_10583_34617)"/>
<path d="M103.169 106.88C103.169 106.37 103.583 105.956 104.093 105.956C104.603 105.956 105.017 106.37 105.017 106.88C105.018 106.886 105.054 107.166 105.842 107.614C106.565 108.026 107.673 108.428 109.123 108.777C112.009 109.471 116.045 109.908 120.535 109.908C125.025 109.908 129.061 109.471 131.947 108.777C133.397 108.428 134.505 108.026 135.229 107.614C136.017 107.166 136.053 106.886 136.054 106.88C136.054 106.37 136.468 105.956 136.978 105.956C137.487 105.956 137.902 106.37 137.902 106.88C137.902 107.97 137.01 108.726 136.144 109.219C135.204 109.753 133.901 110.204 132.376 110.571C129.311 111.308 125.126 111.756 120.535 111.756C115.945 111.756 111.759 111.308 108.695 110.571C107.17 110.204 105.867 109.753 104.927 109.219C104.06 108.726 103.169 107.97 103.169 106.88Z" fill="url(#paint27_linear_10583_34617)"/>
<path d="M93.821 109.374C93.821 108.864 94.2352 108.45 94.745 108.45C95.2548 108.45 95.669 108.864 95.669 109.374C95.669 109.483 95.7117 109.661 95.9394 109.92C96.1723 110.184 96.5576 110.484 97.1293 110.798C98.2721 111.426 99.989 112.019 102.186 112.529C106.567 113.547 112.664 114.183 119.431 114.183C126.199 114.183 132.299 113.547 136.68 112.529C138.876 112.019 140.59 111.426 141.733 110.798C142.304 110.484 142.694 110.184 142.927 109.92C143.154 109.662 143.198 109.483 143.198 109.374C143.198 108.864 143.612 108.45 144.122 108.45C144.63 108.451 145.041 108.865 145.041 109.374C145.041 110.057 144.741 110.653 144.311 111.141C143.886 111.623 143.302 112.045 142.625 112.417C141.27 113.161 139.368 113.8 137.099 114.328C132.545 115.385 126.297 116.031 119.431 116.031C112.566 116.031 106.321 115.385 101.767 114.328C99.4982 113.801 97.5971 113.161 96.2414 112.417C95.5646 112.045 94.9804 111.623 94.5557 111.141C94.1258 110.653 93.821 110.057 93.821 109.374Z" fill="url(#paint28_linear_10583_34617)"/>
<path d="M155.951 89.721C149.074 78.6595 140.873 71.4841 128.255 68.4462C129.645 73.0433 133.964 82.135 140.114 81.7249C147.145 81.256 152.22 86.381 155.278 90.361L155.951 89.721Z" fill="#FFFAEF"/>
<path d="M155.951 89.721C149.074 78.6595 140.873 71.4841 128.255 68.4462C129.645 73.0433 133.964 82.135 140.114 81.7249C147.145 81.256 152.22 86.381 155.278 90.361L155.951 89.721Z" fill="url(#paint29_radial_10583_34617)"/>
<path d="M163.447 91.1558C158.613 81.4841 152.386 74.9228 142.19 71.442C142.986 75.3487 145.856 83.1956 150.971 83.3293C156.819 83.4821 160.621 88.1083 162.842 91.6331L163.447 91.1558Z" fill="#FFFAEF"/>
<path d="M163.447 91.1558C158.613 81.4841 152.386 74.9228 142.19 71.442C142.986 75.3487 145.856 83.1956 150.971 83.3293C156.819 83.4821 160.621 88.1083 162.842 91.6331L163.447 91.1558Z" fill="url(#paint30_radial_10583_34617)"/>
<path d="M125.769 107.567C124.123 105.048 126.652 102.393 124.306 82.4796L127.667 82.3945C127.078 102.25 131.656 105.238 129.778 107.567L125.769 107.567Z" fill="url(#paint31_linear_10583_34617)"/>
<path d="M116.557 107.516C118.217 105.005 115.146 102.357 117.604 82.4553L114.244 82.3542C114.721 102.213 110.127 105.179 111.992 107.516L116.557 107.516Z" fill="url(#paint32_linear_10583_34617)"/>
<path d="M116.192 84.5803C113.014 84.5804 111.539 78.1124 111.198 74.8784L118.916 75.7603C119.332 78.7002 119.37 84.5802 116.192 84.5803Z" fill="url(#paint33_linear_10583_34617)"/>
<path d="M116.192 84.5803C113.014 84.5804 111.539 78.1124 111.198 74.8784L118.916 75.7603C119.332 78.7002 119.37 84.5802 116.192 84.5803Z" fill="url(#paint34_radial_10583_34617)"/>
<path d="M126.166 85.6891C121.484 86.0495 118.815 79.7679 118.065 76.582L129.501 76.5862C130.34 79.4703 130.847 85.3286 126.166 85.6891Z" fill="url(#paint35_linear_10583_34617)"/>
<path d="M126.166 85.6891C121.484 86.0495 118.815 79.7679 118.065 76.582L129.501 76.5862C130.34 79.4703 130.847 85.3286 126.166 85.6891Z" fill="url(#paint36_radial_10583_34617)"/>
<path d="M100.784 45.3483C101.214 46.9477 101.906 48.3513 102.957 49.264C128.115 29.7765 148.86 63.069 158.651 70.9629C168.521 78.9176 169.881 89.9968 169.881 89.9968C157.781 78.6934 113.428 85.516 100.926 67.1978C97.2372 62.5554 92.7649 55.3403 91.0344 47.7547L100.784 45.3483Z" fill="url(#paint37_linear_10583_34617)"/>
<path d="M100.784 45.3483C101.214 46.9477 101.906 48.3513 102.957 49.264C128.115 29.7765 148.86 63.069 158.651 70.9629C168.521 78.9176 169.881 89.9968 169.881 89.9968C157.781 78.6934 113.428 85.516 100.926 67.1978C97.2372 62.5554 92.7649 55.3403 91.0344 47.7547L100.784 45.3483Z" fill="url(#paint38_radial_10583_34617)"/>
<path d="M100.784 45.3483C101.214 46.9477 101.906 48.3513 102.957 49.264C128.115 29.7765 148.86 63.069 158.651 70.9629C168.521 78.9176 169.881 89.9968 169.881 89.9968C157.781 78.6934 113.428 85.516 100.926 67.1978C97.2372 62.5554 92.7649 55.3403 91.0344 47.7547L100.784 45.3483Z" fill="url(#paint39_radial_10583_34617)"/>
<path d="M106.035 20.5854C107.093 9.77063 90.8734 2.39951 81.6325 13.751C76.2906 20.3145 75.8985 28.9601 79.6539 33.9775C83.4098 38.9934 89.7361 38.4031 90.9855 42.1644C91.721 44.3803 89.7118 45.5012 91.8029 50.4616L101.25 49.47C101.54 45.8589 101.186 44.0858 99.8141 40.7999C95.0962 29.5023 81.4003 32.5991 86.1132 23.2694C90.0314 15.5192 99.4613 29.2967 106.035 20.5854Z" fill="url(#paint40_linear_10583_34617)"/>
<path d="M106.035 20.5854C107.093 9.77063 90.8734 2.39951 81.6325 13.751C76.2906 20.3145 75.8985 28.9601 79.6539 33.9775C83.4098 38.9934 89.7361 38.4031 90.9855 42.1644C91.721 44.3803 89.7118 45.5012 91.8029 50.4616L101.25 49.47C101.54 45.8589 101.186 44.0858 99.8141 40.7999C95.0962 29.5023 81.4003 32.5991 86.1132 23.2694C90.0314 15.5192 99.4613 29.2967 106.035 20.5854Z" fill="url(#paint41_radial_10583_34617)"/>
<path d="M106.035 20.5854C107.093 9.77063 90.8734 2.39951 81.6325 13.751C76.2906 20.3145 75.8985 28.9601 79.6539 33.9775C83.4098 38.9934 89.7361 38.4031 90.9855 42.1644C91.721 44.3803 89.7118 45.5012 91.8029 50.4616L101.25 49.47C101.54 45.8589 101.186 44.0858 99.8141 40.7999C95.0962 29.5023 81.4003 32.5991 86.1132 23.2694C90.0314 15.5192 99.4613 29.2967 106.035 20.5854Z" fill="url(#paint42_radial_10583_34617)"/>
<path d="M106.035 20.5854C107.093 9.77063 90.8734 2.39951 81.6325 13.751C76.2906 20.3145 75.8985 28.9601 79.6539 33.9775C83.4098 38.9934 89.7361 38.4031 90.9855 42.1644C91.721 44.3803 89.7118 45.5012 91.8029 50.4616L101.25 49.47C101.54 45.8589 101.186 44.0858 99.8141 40.7999C95.0962 29.5023 81.4003 32.5991 86.1132 23.2694C90.0314 15.5192 99.4613 29.2967 106.035 20.5854Z" fill="url(#paint43_radial_10583_34617)"/>
<path d="M106.035 20.5854C107.093 9.77063 90.8734 2.39951 81.6325 13.751C76.2906 20.3145 75.8985 28.9601 79.6539 33.9775C83.4098 38.9934 89.7361 38.4031 90.9855 42.1644C91.721 44.3803 89.7118 45.5012 91.8029 50.4616L101.25 49.47C101.54 45.8589 101.186 44.0858 99.8141 40.7999C95.0962 29.5023 81.4003 32.5991 86.1132 23.2694C90.0314 15.5192 99.4613 29.2967 106.035 20.5854Z" fill="url(#paint44_radial_10583_34617)"/>
<path d="M93.2902 12.9694C96.5141 10.32 103.787 16.8572 105.606 17.0351L104.805 21.0202C99.8816 20.8293 93.7294 21.1894 90.3571 16.3667C92.6529 17.628 94.7011 18.5604 95.4561 18.2023C94.6716 18.1256 90.0664 15.6188 93.2902 12.9694Z" fill="url(#paint45_linear_10583_34617)"/>
<path d="M105.412 16.9167C104.644 17.4699 102.296 18.12 99.0464 16.2939L98.2827 16.2192C98.2136 16.9266 98.7053 18.5571 101.226 19.4207C103.747 20.2843 120.557 25.6251 128.647 28.1875C128.838 26.2352 112.104 18.5995 105.412 16.9167Z" fill="url(#paint46_radial_10583_34617)"/>
<path d="M105.412 16.9167C104.644 17.4699 102.296 18.12 99.0464 16.2939L98.2827 16.2192C98.2136 16.9266 98.7053 18.5571 101.226 19.4207C103.747 20.2843 120.557 25.6251 128.647 28.1875C128.838 26.2352 112.104 18.5995 105.412 16.9167Z" fill="url(#paint47_linear_10583_34617)"/>
<path d="M105.002 22.8737C106.785 23.048 125.128 29.1274 127.341 27.5443L99.5437 18.2266C100.769 19.7175 103.576 22.7343 105.002 22.8737Z" fill="url(#paint48_radial_10583_34617)"/>
<path d="M105.002 22.8737C106.785 23.048 125.128 29.1274 127.341 27.5443L99.5437 18.2266C100.769 19.7175 103.576 22.7343 105.002 22.8737Z" fill="url(#paint49_linear_10583_34617)"/>
<path d="M94.3223 12.9094C95.1501 13.8801 97.9741 12.6848 98.4996 15.7475C98.2287 16.7739 96.7434 18.2478 95.1728 17.4034C93.0777 16.2769 94.6372 14.3634 94.3223 12.9094Z" fill="#2C2F3F"/>
<path d="M94.4228 14.6222C94.9328 13.6737 96.1152 13.3182 97.0637 13.8282C98.0123 14.3382 98.3678 15.5205 97.8578 16.4691C97.3478 17.4176 96.1654 17.7731 95.2169 17.2631C94.2683 16.7531 93.9128 15.5707 94.4228 14.6222Z" fill="url(#paint50_radial_10583_34617)"/>
<path d="M95.2626 15.0783C95.5229 14.5942 96.1264 14.4127 96.6105 14.673C97.0946 14.9333 97.276 15.5368 97.0157 16.0209C96.7554 16.505 96.152 16.6864 95.6679 16.4262C95.1838 16.1659 95.0023 15.5624 95.2626 15.0783Z" fill="url(#paint51_radial_10583_34617)"/>
<path d="M95.2626 15.0783C95.5229 14.5942 96.1264 14.4127 96.6105 14.673C97.0946 14.9333 97.276 15.5368 97.0157 16.0209C96.7554 16.505 96.152 16.6864 95.6679 16.4262C95.1838 16.1659 95.0023 15.5624 95.2626 15.0783Z" fill="url(#paint52_radial_10583_34617)"/>
<path d="M95.2626 15.0783C95.5229 14.5942 96.1264 14.4127 96.6105 14.673C97.0946 14.9333 97.276 15.5368 97.0157 16.0209C96.7554 16.505 96.152 16.6864 95.6679 16.4262C95.1838 16.1659 95.0023 15.5624 95.2626 15.0783Z" fill="url(#paint53_linear_10583_34617)"/>
<path d="M96.6808 15.3888C96.4524 15.0194 96.4551 14.6038 96.6869 14.4604C96.9186 14.3171 97.2917 14.5003 97.5202 14.8697C97.7486 15.2391 97.7459 15.6548 97.5141 15.7981C97.2824 15.9415 96.9093 15.7582 96.6808 15.3888Z" fill="url(#paint54_radial_10583_34617)"/>
<path d="M114.975 31.7553C109.877 33.6591 98.2899 43.9265 93.1334 48.8222C89.4051 52.2639 99.0833 53.2755 101.28 50.208C102.401 51.9564 107.683 52.5701 110.325 48.5577C111.54 51.953 121.198 52.0684 122.604 49.1038C122.49 52.0508 132.767 58.3081 135.978 54.5825C136.47 57.7514 144.426 63.2578 148.37 59.7754C148.658 63.3843 156.845 69.0487 161.211 66.1128C161.217 70.6229 170.011 76.5092 171.766 73.0105C173.4 77.7977 182.395 80.9888 181.151 77.6921C179.907 74.3954 164.708 49.7694 152.757 42.2425C140.805 34.7156 121.347 29.3755 114.975 31.7553Z" fill="#FFFAEF"/>
<path d="M114.975 31.7553C109.877 33.6591 98.2899 43.9265 93.1334 48.8222C89.4051 52.2639 99.0833 53.2755 101.28 50.208C102.401 51.9564 107.683 52.5701 110.325 48.5577C111.54 51.953 121.198 52.0684 122.604 49.1038C122.49 52.0508 132.767 58.3081 135.978 54.5825C136.47 57.7514 144.426 63.2578 148.37 59.7754C148.658 63.3843 156.845 69.0487 161.211 66.1128C161.217 70.6229 170.011 76.5092 171.766 73.0105C173.4 77.7977 182.395 80.9888 181.151 77.6921C179.907 74.3954 164.708 49.7694 152.757 42.2425C140.805 34.7156 121.347 29.3755 114.975 31.7553Z" fill="url(#paint55_radial_10583_34617)"/>
<path d="M114.975 31.7553C109.877 33.6591 98.2899 43.9265 93.1334 48.8222C89.4051 52.2639 99.0833 53.2755 101.28 50.208C102.401 51.9564 107.683 52.5701 110.325 48.5577C111.54 51.953 121.198 52.0684 122.604 49.1038C122.49 52.0508 132.767 58.3081 135.978 54.5825C136.47 57.7514 144.426 63.2578 148.37 59.7754C148.658 63.3843 156.845 69.0487 161.211 66.1128C161.217 70.6229 170.011 76.5092 171.766 73.0105C173.4 77.7977 182.395 80.9888 181.151 77.6921C179.907 74.3954 164.708 49.7694 152.757 42.2425C140.805 34.7156 121.347 29.3755 114.975 31.7553Z" fill="url(#paint56_radial_10583_34617)"/>
<path d="M126.585 48.971C122.689 47.5829 120.79 39.3304 120.79 39.3304L125.713 37.7657C125.713 37.7657 129.283 45.0209 126.585 48.971Z" fill="url(#paint57_radial_10583_34617)"/>
<path d="M122.535 46.5595C118.406 46.3267 114.256 38.9454 114.256 38.9454L118.537 36.0553C118.537 36.0553 124.01 42.0084 122.535 46.5595Z" fill="url(#paint58_radial_10583_34617)"/>
<path d="M130.404 50.5648C126.796 48.6389 125.498 39.7441 125.498 39.7441L130.259 38.6924C130.259 38.6924 133.202 46.7407 130.404 50.5648Z" fill="url(#paint59_radial_10583_34617)"/>
<path d="M135.832 52.9207C131.798 51.6761 128.99 43.0443 128.99 43.0443L133.72 41.1012C133.72 41.1012 138.081 48.5796 135.832 52.9207Z" fill="url(#paint60_radial_10583_34617)"/>
<path d="M141.138 55.5575C136.714 54.0819 134.589 44.9637 134.589 44.9637L140.194 43.1489C140.194 43.1489 144.224 51.1343 141.138 55.5575Z" fill="url(#paint61_radial_10583_34617)"/>
<path d="M147.723 59.1776C143.054 57.4768 139.87 46.9413 139.87 46.9413L145.374 44.8382C145.374 44.8382 150.37 54.0626 147.723 59.1776Z" fill="url(#paint62_radial_10583_34617)"/>
<path d="M152.496 58.8188C148.209 56.9831 146.843 47.7207 146.843 47.7207L152.579 46.3746C152.579 46.3746 155.936 54.6653 152.496 58.8188Z" fill="url(#paint63_radial_10583_34617)"/>
<path d="M158.58 59.8406C154.039 58.7804 151.08 49.8977 151.08 49.8977L156.493 47.5725C156.493 47.5725 161.244 55.151 158.58 59.8406Z" fill="url(#paint64_radial_10583_34617)"/>
<path d="M165.211 62.5858C160.962 61.5393 157.606 52.8055 157.606 52.8055L162.413 50.5251C162.413 50.5251 167.323 57.9788 165.211 62.5858Z" fill="url(#paint65_radial_10583_34617)"/>
<path d="M172.095 65.0205C167.971 64.3966 163.445 56.2126 163.445 56.2126L167.553 53.5488C167.553 53.5488 173.32 60.3436 172.095 65.0205Z" fill="url(#paint66_radial_10583_34617)"/>
<path d="M111.031 29.582C106.587 31.597 97.1521 41.0267 92.99 45.4896C89.9697 48.6364 104.594 47.3562 106.29 42.3464C107.963 46.2687 119.559 44.089 121.897 41.6135C122.123 44.03 134.765 48.5063 137.281 45.1744C138.485 48.9787 149.915 54.3317 153.165 51.853C153.926 56.3094 166.33 61.1494 167.541 58.1344C169.571 61.8952 178.146 63.688 176.64 61.1088C175.134 58.5295 158.487 39.7967 146.725 34.7311C134.962 29.6654 116.586 27.0634 111.031 29.582Z" fill="#FFFAEF"/>
<path d="M111.031 29.582C106.587 31.597 97.1521 41.0267 92.99 45.4896C89.9697 48.6364 104.594 47.3562 106.29 42.3464C107.963 46.2687 119.559 44.089 121.897 41.6135C122.123 44.03 134.765 48.5063 137.281 45.1744C138.485 48.9787 149.915 54.3317 153.165 51.853C153.926 56.3094 166.33 61.1494 167.541 58.1344C169.571 61.8952 178.146 63.688 176.64 61.1088C175.134 58.5295 158.487 39.7967 146.725 34.7311C134.962 29.6654 116.586 27.0634 111.031 29.582Z" fill="url(#paint67_radial_10583_34617)"/>
<path d="M111.031 29.582C106.587 31.597 97.1521 41.0267 92.99 45.4896C89.9697 48.6364 104.594 47.3562 106.29 42.3464C107.963 46.2687 119.559 44.089 121.897 41.6135C122.123 44.03 134.765 48.5063 137.281 45.1744C138.485 48.9787 149.915 54.3317 153.165 51.853C153.926 56.3094 166.33 61.1494 167.541 58.1344C169.571 61.8952 178.146 63.688 176.64 61.1088C175.134 58.5295 158.487 39.7967 146.725 34.7311C134.962 29.6654 116.586 27.0634 111.031 29.582Z" fill="url(#paint68_radial_10583_34617)"/>
<path d="M121.767 43.3274C117.754 42.3291 115.053 34.3034 115.053 34.3034L119.798 32.2621C119.798 32.2621 124.064 39.131 121.767 43.3274Z" fill="url(#paint69_radial_10583_34617)"/>
<path d="M117.499 41.3267C113.368 41.5011 108.511 34.5637 108.511 34.5637L112.488 31.2665C112.488 31.2665 118.519 36.6526 117.499 41.3267Z" fill="url(#paint70_radial_10583_34617)"/>
<path d="M125.724 44.5392C121.945 42.9774 119.778 34.2534 119.778 34.2534L124.412 32.7386C124.412 32.7386 128.132 40.4585 125.724 44.5392Z" fill="url(#paint71_radial_10583_34617)"/>
<path d="M131.357 46.3484C127.221 45.5066 123.577 37.1928 123.577 37.1928L128.094 34.7939C128.094 34.7939 133.17 41.8072 131.357 46.3484Z" fill="url(#paint72_radial_10583_34617)"/>
<path d="M136.897 48.4505C132.35 47.4171 129.338 38.5522 129.338 38.5522L134.737 36.1949C134.737 36.1949 139.533 43.7453 136.897 48.4505Z" fill="url(#paint73_radial_10583_34617)"/>
<path d="M143.807 51.4052C138.993 50.1719 134.789 40.0006 134.789 40.0006L140.059 37.3664C140.059 37.3664 145.938 46.0547 143.807 51.4052Z" fill="url(#paint74_radial_10583_34617)"/>
<path d="M148.522 50.581C144.075 49.1758 141.805 40.0926 141.805 40.0926L147.38 38.1889C147.38 38.1889 151.537 46.1093 148.522 50.581Z" fill="url(#paint75_radial_10583_34617)"/>
<path d="M154.677 50.9965C150.053 50.388 146.235 41.8394 146.235 41.8394L151.393 38.993C151.393 38.993 156.867 46.0677 154.677 50.9965Z" fill="url(#paint76_radial_10583_34617)"/>
<path d="M161.546 53.0765C157.215 52.453 153.016 44.0916 153.016 44.0916L157.576 41.3494C157.576 41.3494 163.194 48.2842 161.546 53.0765Z" fill="url(#paint77_radial_10583_34617)"/>
<path d="M169.757 53.6681C165.683 54.5589 158.531 48.533 158.531 48.533L161.417 44.5767C161.417 44.5767 169.231 48.8621 169.757 53.6681Z" fill="url(#paint78_radial_10583_34617)"/>
<path d="M112.158 29.1741C108.326 30.4637 100.245 36.6194 96.6832 39.5361C94.0976 41.5917 106.765 40.8978 108.182 37.5921C109.675 40.2121 119.706 38.8892 121.708 37.2717C121.929 38.8773 132.939 41.9814 135.085 39.7977C136.169 42.3344 146.138 46.0072 148.929 44.3973C149.637 47.3619 160.443 50.7048 161.462 48.7173C163.262 51.234 170.716 52.5146 169.383 50.7874C168.05 49.0602 153.416 36.4553 143.163 32.9695C132.909 29.4838 116.948 27.5622 112.158 29.1741Z" fill="#FFFAEF"/>
<path d="M112.158 29.1741C108.326 30.4637 100.245 36.6194 96.6832 39.5361C94.0976 41.5917 106.765 40.8978 108.182 37.5921C109.675 40.2121 119.706 38.8892 121.708 37.2717C121.929 38.8773 132.939 41.9814 135.085 39.7977C136.169 42.3344 146.138 46.0072 148.929 44.3973C149.637 47.3619 160.443 50.7048 161.462 48.7173C163.262 51.234 170.716 52.5146 169.383 50.7874C168.05 49.0602 153.416 36.4553 143.163 32.9695C132.909 29.4838 116.948 27.5622 112.158 29.1741Z" fill="url(#paint79_radial_10583_34617)"/>
<path d="M112.158 29.1741C108.326 30.4637 100.245 36.6194 96.6832 39.5361C94.0976 41.5917 106.765 40.8978 108.182 37.5921C109.675 40.2121 119.706 38.8892 121.708 37.2717C121.929 38.8773 132.939 41.9814 135.085 39.7977C136.169 42.3344 146.138 46.0072 148.929 44.3973C149.637 47.3619 160.443 50.7048 161.462 48.7173C163.262 51.234 170.716 52.5146 169.383 50.7874C168.05 49.0602 153.416 36.4553 143.163 32.9695C132.909 29.4838 116.948 27.5622 112.158 29.1741Z" fill="url(#paint80_radial_10583_34617)"/>
<defs>
<linearGradient id="paint0_linear_10583_34617" x1="268.965" y1="57.4838" x2="-3.09877" y2="49.6159" gradientUnits="userSpaceOnUse">
<stop stop-color="#9DE2F8"/>
<stop offset="1" stop-color="#FFCE9A"/>
</linearGradient>
<radialGradient id="paint1_radial_10583_34617" cx="0" cy="0" r="1" gradientUnits="userSpaceOnUse" gradientTransform="translate(71.4393 94.3388) rotate(-17.418) scale(110.67 89.2102)">
<stop stop-color="#FFF492"/>
<stop offset="1" stop-color="#FFB35F" stop-opacity="0"/>
</radialGradient>
<radialGradient id="paint2_radial_10583_34617" cx="0" cy="0" r="1" gradientUnits="userSpaceOnUse" gradientTransform="translate(232.621 58.7262) rotate(139.635) scale(37.0842 37.0842)">
<stop stop-color="#94E8FF"/>
<stop offset="1" stop-color="#94E8FF" stop-opacity="0"/>
</radialGradient>
<radialGradient id="paint3_radial_10583_34617" cx="0" cy="0" r="1" gradientUnits="userSpaceOnUse" gradientTransform="translate(133.968 18.1443) rotate(101.723) scale(73.5886 73.5886)">
<stop offset="0.157638" stop-color="#FBAFA2"/>
<stop offset="1" stop-color="#C4A5FF" stop-opacity="0"/>
</radialGradient>
<radialGradient id="paint4_radial_10583_34617" cx="0" cy="0" r="1" gradientUnits="userSpaceOnUse" gradientTransform="translate(31.6857 8.20592) rotate(-5.46909) scale(78.2069 63.0418)">
<stop stop-color="#FFF492"/>
<stop offset="1" stop-color="#FFB35F" stop-opacity="0"/>
</radialGradient>
<radialGradient id="paint5_radial_10583_34617" cx="0" cy="0" r="1" gradientUnits="userSpaceOnUse" gradientTransform="translate(46.1539 9.23096) rotate(42.8789) scale(44.0884 42.7899)">
<stop stop-color="#94E8FF"/>
<stop offset="1" stop-color="#94E8FF" stop-opacity="0"/>
</radialGradient>
<radialGradient id="paint6_radial_10583_34617" cx="0" cy="0" r="1" gradientUnits="userSpaceOnUse" gradientTransform="translate(187.788 29.1346) rotate(15.4104) scale(46.6782 25.1318)">
<stop offset="0.29078" stop-color="#FFE7D1"/>
<stop offset="1" stop-color="white" stop-opacity="0"/>
</radialGradient>
<radialGradient id="paint7_radial_10583_34617" cx="0" cy="0" r="1" gradientUnits="userSpaceOnUse" gradientTransform="translate(61.1761 37.5447) rotate(-168.968) scale(37.3751 29.4047)">
<stop offset="0.29078" stop-color="#FFEAD6"/>
<stop offset="1" stop-color="white" stop-opacity="0"/>
</radialGradient>
<linearGradient id="paint8_linear_10583_34617" x1="33.6685" y1="24.6285" x2="72.7622" y2="98.8204" gradientUnits="userSpaceOnUse">
<stop stop-color="#88E06C"/>
<stop offset="1" stop-color="#1E794A"/>
</linearGradient>
<radialGradient id="paint9_radial_10583_34617" cx="0" cy="0" r="1" gradientTransform="matrix(21.3614 48.186 -65.4406 29.173 33.4881 55.7235)" gradientUnits="userSpaceOnUse">
<stop offset="0.407859" stop-color="#2C764E" stop-opacity="0"/>
<stop offset="1" stop-color="#093C41"/>
</radialGradient>
<radialGradient id="paint10_radial_10583_34617" cx="0" cy="0" r="1" gradientTransform="matrix(32.2825 -20.0432 14.2639 25.2189 39.2671 81.6126)" gradientUnits="userSpaceOnUse">
<stop offset="0.199965" stop-color="#093C41"/>
<stop offset="1" stop-color="#2C764E" stop-opacity="0"/>
</radialGradient>
<radialGradient id="paint11_radial_10583_34617" cx="0" cy="0" r="1" gradientTransform="matrix(31.8839 18.1642 -19.0418 36.6905 14.9556 47.5809)" gradientUnits="userSpaceOnUse">
<stop stop-color="#FFD394" stop-opacity="0.6"/>
<stop offset="1" stop-color="#FFE06B" stop-opacity="0"/>
</radialGradient>
<linearGradient id="paint12_linear_10583_34617" x1="43.2916" y1="49.7984" x2="67.0026" y2="96.1191" gradientUnits="userSpaceOnUse">
<stop stop-color="#88E06C"/>
<stop offset="1" stop-color="#1E794A"/>
</linearGradient>
<radialGradient id="paint13_radial_10583_34617" cx="0" cy="0" r="1" gradientTransform="matrix(7.96812 30.4773 -42.3358 9.97762 48.7696 68.2138)" gradientUnits="userSpaceOnUse">
<stop offset="0.498233" stop-color="#2C764E" stop-opacity="0"/>
<stop offset="1" stop-color="#093C41"/>
</radialGradient>
<radialGradient id="paint14_radial_10583_34617" cx="0" cy="0" r="1" gradientUnits="userSpaceOnUse" gradientTransform="translate(50.0794 62.6479) rotate(44.9363) scale(21.5304 20.4892)">
<stop stop-color="#FFC470"/>
<stop offset="1" stop-color="#FFE06B" stop-opacity="0"/>
</radialGradient>
<linearGradient id="paint15_linear_10583_34617" x1="28.3529" y1="51.2979" x2="51.9398" y2="95.0466" gradientUnits="userSpaceOnUse">
<stop stop-color="#88E06C"/>
<stop offset="1" stop-color="#1E794A"/>
</linearGradient>
<radialGradient id="paint16_radial_10583_34617" cx="0" cy="0" r="1" gradientUnits="userSpaceOnUse" gradientTransform="translate(33.3767 69.0856) rotate(76.0594) scale(30.3319 40.0037)">
<stop offset="0.498233" stop-color="#2C764E" stop-opacity="0"/>
<stop offset="1" stop-color="#093C41"/>
</radialGradient>
<radialGradient id="paint17_radial_10583_34617" cx="0" cy="0" r="1" gradientTransform="matrix(6.2635 21.4525 -24.0106 8.55885 25.6517 63.7095)" gradientUnits="userSpaceOnUse">
<stop stop-color="#FFC470"/>
<stop offset="1" stop-color="#FFE06B" stop-opacity="0"/>
</radialGradient>
<linearGradient id="paint18_linear_10583_34617" x1="172.299" y1="19.0437" x2="218.57" y2="94.8359" gradientUnits="userSpaceOnUse">
<stop stop-color="#88E06C"/>
<stop offset="1" stop-color="#1E794A"/>
</linearGradient>
<radialGradient id="paint19_radial_10583_34617" cx="0" cy="0" r="1" gradientTransform="matrix(11.8906 54.242 -63.1766 17.7577 180.473 51.8185)" gradientUnits="userSpaceOnUse">
<stop offset="0.498233" stop-color="#2C764E" stop-opacity="0"/>
<stop offset="1" stop-color="#093C41"/>
</radialGradient>
<radialGradient id="paint20_radial_10583_34617" cx="0" cy="0" r="1" gradientUnits="userSpaceOnUse" gradientTransform="translate(188.035 47.8062) rotate(106.463) scale(35.0717 32.4055)">
<stop stop-color="#FFC470"/>
<stop offset="1" stop-color="#FFE06B" stop-opacity="0"/>
</radialGradient>
<radialGradient id="paint21_radial_10583_34617" cx="0" cy="0" r="1" gradientUnits="userSpaceOnUse" gradientTransform="translate(178.013 85.3873) rotate(-23.5232) scale(38.7101 36.2686)">
<stop offset="0.199965" stop-color="#093C41"/>
<stop offset="1" stop-color="#2C764E" stop-opacity="0"/>
</radialGradient>
<linearGradient id="paint22_linear_10583_34617" x1="173.246" y1="44.4057" x2="202.111" y2="95.7816" gradientUnits="userSpaceOnUse">
<stop stop-color="#88E06C"/>
<stop offset="1" stop-color="#1E794A"/>
</linearGradient>
<radialGradient id="paint23_radial_10583_34617" cx="0" cy="0" r="1" gradientTransform="matrix(8.39422 35.24 -44.5998 11.5368 179.017 65.6989)" gradientUnits="userSpaceOnUse">
<stop offset="0.498233" stop-color="#2C764E" stop-opacity="0"/>
<stop offset="1" stop-color="#093C41"/>
</radialGradient>
<radialGradient id="paint24_radial_10583_34617" cx="0" cy="0" r="1" gradientTransform="matrix(7.19505 25.6802 -27.5816 10.2456 170.143 59.2632)" gradientUnits="userSpaceOnUse">
<stop stop-color="#FFC470"/>
<stop offset="1" stop-color="#FFE06B" stop-opacity="0"/>
</radialGradient>
<radialGradient id="paint25_radial_10583_34617" cx="0" cy="0" r="1" gradientUnits="userSpaceOnUse" gradientTransform="translate(112.214 85.4433) rotate(180) scale(104.92 30.636)">
<stop stop-color="#CCFAE8"/>
<stop offset="0.437175" stop-color="#99E8EB"/>
<stop offset="1" stop-color="#1C81D3"/>
</radialGradient>
<radialGradient id="paint26_radial_10583_34617" cx="0" cy="0" r="1" gradientUnits="userSpaceOnUse" gradientTransform="translate(132.315 107.088) rotate(90) scale(8.68027 74.125)">
<stop offset="0.25" stop-color="#1C81D3"/>
<stop offset="1" stop-color="#7CA1B1" stop-opacity="0"/>
</radialGradient>
<linearGradient id="paint27_linear_10583_34617" x1="120.535" y1="102.927" x2="120.535" y2="110.833" gradientUnits="userSpaceOnUse">
<stop stop-color="#1286DA"/>
<stop offset="1" stop-color="#85E9FF"/>
</linearGradient>
<linearGradient id="paint28_linear_10583_34617" x1="119.432" y1="103.64" x2="119.432" y2="115.108" gradientUnits="userSpaceOnUse">
<stop stop-color="#1286DA"/>
<stop offset="1" stop-color="#85E9FF"/>
</linearGradient>
<radialGradient id="paint29_radial_10583_34617" cx="0" cy="0" r="1" gradientUnits="userSpaceOnUse" gradientTransform="translate(141.202 83.2211) rotate(-140.549) scale(25.3285 10.5314)">
<stop offset="0.540521" stop-color="#A5CEE2" stop-opacity="0"/>
<stop offset="0.897846" stop-color="#A5CEE2"/>
</radialGradient>
<radialGradient id="paint30_radial_10583_34617" cx="0" cy="0" r="1" gradientUnits="userSpaceOnUse" gradientTransform="translate(151.154 83.2213) rotate(-136.962) scale(19.6018 7.94816)">
<stop offset="0.426073" stop-color="#A5CEE2" stop-opacity="0"/>
<stop offset="0.897846" stop-color="#A5CEE2"/>
</radialGradient>
<linearGradient id="paint31_linear_10583_34617" x1="125.686" y1="82.3821" x2="127.477" y2="107.729" gradientUnits="userSpaceOnUse">
<stop stop-color="#8890A7"/>
<stop offset="1" stop-color="#353841"/>
</linearGradient>
<linearGradient id="paint32_linear_10583_34617" x1="116.227" y1="82.3512" x2="114.315" y2="107.691" gradientUnits="userSpaceOnUse">
<stop stop-color="#8890A7"/>
<stop offset="1" stop-color="#353841"/>
</linearGradient>
<linearGradient id="paint33_linear_10583_34617" x1="106.154" y1="76.4302" x2="112.292" y2="88.6771" gradientUnits="userSpaceOnUse">
<stop stop-color="#FEFDF8"/>
<stop offset="1" stop-color="#C8D5DD"/>
</linearGradient>
<radialGradient id="paint34_radial_10583_34617" cx="0" cy="0" r="1" gradientTransform="matrix(7.05413 6.38006 -3.72945 3.54384 116.332 77.0734)" gradientUnits="userSpaceOnUse">
<stop stop-color="#89A3B0"/>
<stop offset="1" stop-color="#89A3B0" stop-opacity="0"/>
</radialGradient>
<linearGradient id="paint35_linear_10583_34617" x1="110.754" y1="78.7012" x2="116.456" y2="92.0444" gradientUnits="userSpaceOnUse">
<stop stop-color="#FEFDF8"/>
<stop offset="1" stop-color="#C8D5DD"/>
</linearGradient>
<radialGradient id="paint36_radial_10583_34617" cx="0" cy="0" r="1" gradientTransform="matrix(10.8807 5.56139 -5.22165 3.95626 125.795 78.1885)" gradientUnits="userSpaceOnUse">
<stop stop-color="#89A3B0"/>
<stop offset="1" stop-color="#89A3B0" stop-opacity="0"/>
</radialGradient>
<linearGradient id="paint37_linear_10583_34617" x1="54.8463" y1="1.82908" x2="141.624" y2="92.3505" gradientUnits="userSpaceOnUse">
<stop stop-color="#FEFDF8"/>
<stop offset="1" stop-color="#C8D5DD"/>
</linearGradient>
<radialGradient id="paint38_radial_10583_34617" cx="0" cy="0" r="1" gradientTransform="matrix(-49.059 -54.3866 24.8369 -22.371 109.335 81.6334)" gradientUnits="userSpaceOnUse">
<stop offset="0.367202" stop-color="white"/>
<stop offset="1" stop-color="white" stop-opacity="0"/>
</radialGradient>
<radialGradient id="paint39_radial_10583_34617" cx="0" cy="0" r="1" gradientTransform="matrix(52.5689 27.6753 -7.0397 13.344 128.942 49.0393)" gradientUnits="userSpaceOnUse">
<stop offset="0.0933356" stop-color="#5A9CBD"/>
<stop offset="1" stop-color="#B0E3FF" stop-opacity="0"/>
</radialGradient>
<linearGradient id="paint40_linear_10583_34617" x1="128.381" y1="4.15257" x2="60.5579" y2="99.0794" gradientUnits="userSpaceOnUse">
<stop stop-color="#FEFDF8"/>
<stop offset="1" stop-color="#C8D5DD"/>
</linearGradient>
<radialGradient id="paint41_radial_10583_34617" cx="0" cy="0" r="1" gradientTransform="matrix(-25.8745 -1.38345 -0.898046 16.7915 94.8586 4.69895)" gradientUnits="userSpaceOnUse">
<stop offset="0.367202" stop-color="white"/>
<stop offset="1" stop-color="white" stop-opacity="0"/>
</radialGradient>
<radialGradient id="paint42_radial_10583_34617" cx="0" cy="0" r="1" gradientTransform="matrix(-19.4065 -32.312 -13.6392 8.19457 106.642 50.4199)" gradientUnits="userSpaceOnUse">
<stop offset="0.367202" stop-color="white"/>
<stop offset="1" stop-color="white" stop-opacity="0"/>
</radialGradient>
<radialGradient id="paint43_radial_10583_34617" cx="0" cy="0" r="1" gradientTransform="matrix(29.7628 -57.9156 -24.4458 -12.5662 97.0217 86.2046)" gradientUnits="userSpaceOnUse">
<stop offset="0.367202" stop-color="white"/>
<stop offset="1" stop-color="white" stop-opacity="0"/>
</radialGradient>
<radialGradient id="paint44_radial_10583_34617" cx="0" cy="0" r="1" gradientTransform="matrix(-21.8905 28.2721 16.4134 12.7125 62.5487 67.1474)" gradientUnits="userSpaceOnUse">
<stop offset="0.675382" stop-color="#89A3B0"/>
<stop offset="1" stop-color="#89A3B0" stop-opacity="0"/>
</radialGradient>
<linearGradient id="paint45_linear_10583_34617" x1="92.0659" y1="11.7982" x2="103.977" y2="19.084" gradientUnits="userSpaceOnUse">
<stop stop-color="#AFA053" stop-opacity="0"/>
<stop offset="1" stop-color="#AFA053"/>
</linearGradient>
<radialGradient id="paint46_radial_10583_34617" cx="0" cy="0" r="1" gradientUnits="userSpaceOnUse" gradientTransform="translate(114.519 20.2637) rotate(20.3142) scale(15.9948 3.95001)">
<stop offset="0.216643" stop-color="#A1866C"/>
<stop offset="1" stop-color="#3D3F46"/>
</radialGradient>
<linearGradient id="paint47_linear_10583_34617" x1="109.585" y1="20.0528" x2="98.4309" y2="15.6593" gradientUnits="userSpaceOnUse">
<stop stop-color="#ADC6D7" stop-opacity="0"/>
<stop offset="1" stop-color="#ADC6D7"/>
</linearGradient>
<radialGradient id="paint48_radial_10583_34617" cx="0" cy="0" r="1" gradientTransform="matrix(13.5577 4.32692 1.55321 -3.5895 116.394 21.1283)" gradientUnits="userSpaceOnUse">
<stop offset="0.216643" stop-color="#886A4C"/>
<stop offset="1" stop-color="#3D3F46"/>
</radialGradient>
<linearGradient id="paint49_linear_10583_34617" x1="109.979" y1="21.0905" x2="109.541" y2="16.9995" gradientUnits="userSpaceOnUse">
<stop stop-color="#ADC6D7" stop-opacity="0"/>
<stop offset="1" stop-color="#ADC6D7"/>
</linearGradient>
<radialGradient id="paint50_radial_10583_34617" cx="0" cy="0" r="1" gradientUnits="userSpaceOnUse" gradientTransform="translate(96.1403 15.5456) rotate(-18.9567) scale(2.28392)">
<stop offset="0.612352" stop-color="#BFEAD5"/>
<stop offset="1" stop-color="#6E5331"/>
</radialGradient>
<radialGradient id="paint51_radial_10583_34617" cx="0" cy="0" r="1" gradientUnits="userSpaceOnUse" gradientTransform="translate(95.7273 15.6917) rotate(-25.8964) scale(1.38112 1.23132)">
<stop offset="0.00558659" stop-color="#433437"/>
<stop offset="1" stop-color="#3B2838"/>
</radialGradient>
<radialGradient id="paint52_radial_10583_34617" cx="0" cy="0" r="1" gradientUnits="userSpaceOnUse" gradientTransform="translate(95.6938 15.5926) rotate(-14.0916) scale(0.715496 0.629463)">
<stop stop-color="#5C5051"/>
<stop offset="1" stop-color="#5C5051" stop-opacity="0"/>
</radialGradient>
<linearGradient id="paint53_linear_10583_34617" x1="95.9413" y1="16.3307" x2="96.3378" y2="17.0383" gradientUnits="userSpaceOnUse">
<stop stop-color="#5C5051" stop-opacity="0"/>
<stop offset="1" stop-color="#5C5051"/>
</linearGradient>
<radialGradient id="paint54_radial_10583_34617" cx="0" cy="0" r="1" gradientTransform="matrix(-1.3015 0.90308 0.747368 1.00756 97.7474 14.8091)" gradientUnits="userSpaceOnUse">
<stop offset="0.322115" stop-color="white"/>
<stop offset="1" stop-color="white" stop-opacity="0"/>
</radialGradient>
<radialGradient id="paint55_radial_10583_34617" cx="0" cy="0" r="1" gradientTransform="matrix(63.0288 23.5096 -6.11262 14.9526 131.971 60.7203)" gradientUnits="userSpaceOnUse">
<stop offset="0.426073" stop-color="#A5CEE2" stop-opacity="0"/>
<stop offset="0.607848" stop-color="#A5CEE2" stop-opacity="0.374337"/>
<stop offset="0.850962" stop-color="#79A9C0"/>
</radialGradient>
<radialGradient id="paint56_radial_10583_34617" cx="0" cy="0" r="1" gradientUnits="userSpaceOnUse" gradientTransform="translate(92.4521 52.0665) rotate(-40.2112) scale(34.1927 16.185)">
<stop stop-color="#FDFDFD"/>
<stop offset="1" stop-color="#FDFDFD" stop-opacity="0"/>
</radialGradient>
<radialGradient id="paint57_radial_10583_34617" cx="0" cy="0" r="1" gradientTransform="matrix(-3.26634 -8.4365 8.68195 -3.40109 126.743 47.4158)" gradientUnits="userSpaceOnUse">
<stop stop-color="#FFF7ED"/>
<stop offset="1" stop-color="#FFF7ED" stop-opacity="0"/>
</radialGradient>
<radialGradient id="paint58_radial_10583_34617" cx="0" cy="0" r="1" gradientTransform="matrix(-5.51381 -7.17226 7.36972 -5.71234 122.248 45.0228)" gradientUnits="userSpaceOnUse">
<stop stop-color="#FFF7ED"/>
<stop offset="1" stop-color="#FFF7ED" stop-opacity="0"/>
</radialGradient>
<radialGradient id="paint59_radial_10583_34617" cx="0" cy="0" r="1" gradientTransform="matrix(-2.58266 -9.25236 8.4348 -2.52847 130.648 48.9506)" gradientUnits="userSpaceOnUse">
<stop stop-color="#FFF7ED"/>
<stop offset="1" stop-color="#FFF7ED" stop-opacity="0"/>
</radialGradient>
<radialGradient id="paint60_radial_10583_34617" cx="0" cy="0" r="1" gradientTransform="matrix(-4.18995 -8.74751 8.27049 -4.10639 135.817 51.264)" gradientUnits="userSpaceOnUse">
<stop stop-color="#FFF7ED"/>
<stop offset="1" stop-color="#FFF7ED" stop-opacity="0"/>
</radialGradient>
<radialGradient id="paint61_radial_10583_34617" cx="0" cy="0" r="1" gradientUnits="userSpaceOnUse" gradientTransform="translate(141.325 53.8308) rotate(-111.585) scale(10.0013 10.6334)">
<stop stop-color="#FFF7ED"/>
<stop offset="1" stop-color="#FFF7ED" stop-opacity="0"/>
</radialGradient>
<radialGradient id="paint62_radial_10583_34617" cx="0" cy="0" r="1" gradientTransform="matrix(-4.7862 -10.744 9.62892 -4.53094 147.72 57.1818)" gradientUnits="userSpaceOnUse">
<stop stop-color="#FFF7ED"/>
<stop offset="1" stop-color="#FFF7ED" stop-opacity="0"/>
</radialGradient>
<radialGradient id="paint63_radial_10583_34617" cx="0" cy="0" r="1" gradientUnits="userSpaceOnUse" gradientTransform="translate(152.825 57.1134) rotate(-106.851) scale(10.0013 10.6334)">
<stop stop-color="#FFF7ED"/>
<stop offset="1" stop-color="#FFF7ED" stop-opacity="0"/>
</radialGradient>
<radialGradient id="paint64_radial_10583_34617" cx="0" cy="0" r="1" gradientUnits="userSpaceOnUse" gradientTransform="translate(158.607 58.104) rotate(-116.89) scale(10.0013 10.6334)">
<stop stop-color="#FFF7ED"/>
<stop offset="1" stop-color="#FFF7ED" stop-opacity="0"/>
</radialGradient>
<radialGradient id="paint65_radial_10583_34617" cx="0" cy="0" r="1" gradientTransform="matrix(-4.79626 -8.77202 8.36984 -4.71809 165.111 60.8788)" gradientUnits="userSpaceOnUse">
<stop stop-color="#FFF7ED"/>
<stop offset="1" stop-color="#FFF7ED" stop-opacity="0"/>
</radialGradient>
<radialGradient id="paint66_radial_10583_34617" cx="0" cy="0" r="1" gradientTransform="matrix(-5.87301 -8.08763 7.03318 -5.36519 171.727 63.3695)" gradientUnits="userSpaceOnUse">
<stop stop-color="#FFF7ED"/>
<stop offset="1" stop-color="#FFF7ED" stop-opacity="0"/>
</radialGradient>
<radialGradient id="paint67_radial_10583_34617" cx="0" cy="0" r="1" gradientTransform="matrix(71.9433 14.5673 -4.40607 16.006 135.172 51.3452)" gradientUnits="userSpaceOnUse">
<stop offset="0.334841" stop-color="#A5CEE2" stop-opacity="0"/>
<stop offset="0.538462" stop-color="#A5CEE2" stop-opacity="0.374337"/>
<stop offset="0.850962" stop-color="#79A9C0"/>
</radialGradient>
<radialGradient id="paint68_radial_10583_34617" cx="0" cy="0" r="1" gradientTransform="matrix(37.675 -20.3868 5.50518 18.4324 93.2899 43.719)" gradientUnits="userSpaceOnUse">
<stop stop-color="#FDFDFD"/>
<stop offset="1" stop-color="#FDFDFD" stop-opacity="0"/>
</radialGradient>
<radialGradient id="paint69_radial_10583_34617" cx="0" cy="0" r="1" gradientTransform="matrix(-4.08017 -8.07438 8.30539 -4.23841 121.772 41.7642)" gradientUnits="userSpaceOnUse">
<stop stop-color="#FFF7ED"/>
<stop offset="1" stop-color="#FFF7ED" stop-opacity="0"/>
</radialGradient>
<radialGradient id="paint70_radial_10583_34617" cx="0" cy="0" r="1" gradientTransform="matrix(-6.19242 -6.59525 6.77223 -6.40941 117.063 39.8256)" gradientUnits="userSpaceOnUse">
<stop stop-color="#FFF7ED"/>
<stop offset="1" stop-color="#FFF7ED" stop-opacity="0"/>
</radialGradient>
<radialGradient id="paint71_radial_10583_34617" cx="0" cy="0" r="1" gradientTransform="matrix(-3.48005 -8.95353 8.14526 -3.34572 125.809 42.9088)" gradientUnits="userSpaceOnUse">
<stop stop-color="#FFF7ED"/>
<stop offset="1" stop-color="#FFF7ED" stop-opacity="0"/>
</radialGradient>
<radialGradient id="paint72_radial_10583_34617" cx="0" cy="0" r="1" gradientTransform="matrix(-5.02989 -8.29305 7.82656 -4.89983 131.18 44.7013)" gradientUnits="userSpaceOnUse">
<stop stop-color="#FFF7ED"/>
<stop offset="1" stop-color="#FFF7ED" stop-opacity="0"/>
</radialGradient>
<radialGradient id="paint73_radial_10583_34617" cx="0" cy="0" r="1" gradientUnits="userSpaceOnUse" gradientTransform="translate(136.913 46.7138) rotate(-117.228) scale(10.0013 10.6334)">
<stop stop-color="#FFF7ED"/>
<stop offset="1" stop-color="#FFF7ED" stop-opacity="0"/>
</radialGradient>
<radialGradient id="paint74_radial_10583_34617" cx="0" cy="0" r="1" gradientTransform="matrix(-5.81959 -10.2212 9.13666 -5.45591 143.608 49.4195)" gradientUnits="userSpaceOnUse">
<stop stop-color="#FFF7ED"/>
<stop offset="1" stop-color="#FFF7ED" stop-opacity="0"/>
</radialGradient>
<radialGradient id="paint75_radial_10583_34617" cx="0" cy="0" r="1" gradientUnits="userSpaceOnUse" gradientTransform="translate(148.681 48.8515) rotate(-112.495) scale(10.0013 10.6334)">
<stop stop-color="#FFF7ED"/>
<stop offset="1" stop-color="#FFF7ED" stop-opacity="0"/>
</radialGradient>
<radialGradient id="paint76_radial_10583_34617" cx="0" cy="0" r="1" gradientUnits="userSpaceOnUse" gradientTransform="translate(154.533 49.2657) rotate(-122.533) scale(10.0013 10.6334)">
<stop stop-color="#FFF7ED"/>
<stop offset="1" stop-color="#FFF7ED" stop-opacity="0"/>
</radialGradient>
<radialGradient id="paint77_radial_10583_34617" cx="0" cy="0" r="1" gradientTransform="matrix(-5.63567 -8.25782 7.86527 -5.51834 161.279 51.3877)" gradientUnits="userSpaceOnUse">
<stop stop-color="#FFF7ED"/>
<stop offset="1" stop-color="#FFF7ED" stop-opacity="0"/>
</radialGradient>
<radialGradient id="paint78_radial_10583_34617" cx="0" cy="0" r="1" gradientTransform="matrix(-8.37543 -5.45474 4.6514 -7.52433 168.824 52.2574)" gradientUnits="userSpaceOnUse">
<stop stop-color="#FFF7ED"/>
<stop offset="1" stop-color="#FFF7ED" stop-opacity="0"/>
</radialGradient>
<radialGradient id="paint79_radial_10583_34617" cx="0" cy="0" r="1" gradientUnits="userSpaceOnUse" gradientTransform="translate(132.261 45.4319) rotate(5.41717) scale(65.7745 22.4668)">
<stop offset="0.280913" stop-color="#A5CEE2" stop-opacity="0"/>
<stop offset="0.726307" stop-color="#A5CEE2"/>
</radialGradient>
<radialGradient id="paint80_radial_10583_34617" cx="0" cy="0" r="1" gradientUnits="userSpaceOnUse" gradientTransform="translate(96.9244 38.3646) rotate(-22.0206) scale(35.0056 13.2541)">
<stop stop-color="#FDFDFD"/>
<stop offset="1" stop-color="#FDFDFD" stop-opacity="0"/>
</radialGradient>
</defs>
</svg>
