<svg viewBox="0 0 240 120" fill="none" xmlns="http://www.w3.org/2000/svg">
<path d="M32.3742 89.6957H208.186V106.156H32.3742V89.6957Z" fill="url(#paint0_linear_736_35208)"/>
<path d="M32.7494 89.6957H208.099L190.375 64.585C189.943 63.9723 189.24 63.608 188.49 63.608H50.7796C49.9944 63.608 49.263 64.0073 48.8384 64.6678L32.7494 89.6957Z" fill="url(#paint1_linear_736_35208)"/>
<path d="M51.6013 45.355C50.9178 52.3607 49.8926 73.1216 49.8926 73.1216H72.7644L75.7212 68.8875C75.7212 68.8875 73.4856 57.4211 71.465 46.423C70.0492 38.7167 62.9672 35.3292 57.2957 36.5794C53.6534 37.3824 52.0694 40.5567 51.6013 45.355Z" fill="url(#paint2_linear_736_35208)"/>
<path d="M186.622 44.5279C187.305 51.5337 188.33 72.2946 188.33 72.2946H165.459L162.502 68.0604C162.502 68.0604 164.737 56.594 166.758 45.5959C168.174 37.8897 175.256 34.5021 180.927 35.7524C184.57 36.5554 186.154 39.7296 186.622 44.5279Z" fill="url(#paint3_linear_736_35208)"/>
<path d="M48.1397 45.3552C47.4563 52.3609 46.431 73.1218 46.431 73.1218H72.7024C72.7024 73.1218 70.024 57.4213 68.0034 46.4232C65.5751 33.2058 49.2624 33.8475 48.1397 45.3552Z" fill="url(#paint4_linear_736_35208)"/>
<path d="M190.083 44.5282C190.767 51.5339 191.792 72.2947 191.792 72.2947H165.521C165.521 72.2947 168.199 56.5942 170.22 45.5961C172.648 32.3787 188.961 33.0204 190.083 44.5282Z" fill="url(#paint5_linear_736_35208)"/>
<path d="M63.6058 49.3269C59.2957 53.637 53.0323 52.6835 48.7458 48.397C44.4593 44.1105 44.4784 37.1416 48.7885 32.8315C53.0986 28.5214 60.0675 28.5023 64.354 32.7888C68.6405 37.0753 68.762 44.1707 63.6058 49.3269Z" fill="#E4DAC4"/>
<path d="M65.997 42.4C65.997 48.626 60.9498 53.6731 54.7238 53.6731C48.4978 53.6731 43.4507 48.626 43.4507 42.4C43.4507 36.174 48.4978 31.1268 54.7238 31.1268C60.9498 31.1268 65.997 36.174 65.997 42.4Z" fill="url(#paint6_linear_736_35208)"/>
<path d="M57.4437 42.3995C57.4437 43.9019 56.2258 45.1199 54.7234 45.1199C53.221 45.1199 52.0031 43.9019 52.0031 42.3995C52.0031 40.8972 53.221 39.6792 54.7234 39.6792C56.2258 39.6792 57.4437 40.8972 57.4437 42.3995Z" fill="#0E0204"/>
<path d="M84.9511 66.2247C75.7124 66.2247 67.1389 31.3213 57.6134 31.3213L59.0628 30.1442C70.5031 30.1442 79.8097 63.1438 84.9511 63.1438C90.0925 63.1438 94.1796 51.6358 101.137 51.6358V52.4279C93.7484 52.4279 92.7127 66.2247 84.9511 66.2247Z" fill="url(#paint7_linear_736_35208)"/>
<path d="M197.853 28.5818C204.352 39.8384 199.826 54.9778 188.522 61.5043C177.218 68.0308 162.786 64.1963 156.287 52.9397C149.788 41.6831 153.683 27.2671 164.987 20.7406C176.291 14.2141 191.354 17.3252 197.853 28.5818Z" fill="#E4DAC4"/>
<path d="M145.674 65.215C156.689 65.215 145.674 19.8825 181.011 18.7817L176.264 17.3798C144.952 20.4594 151.804 62.1342 145.674 62.1342C139.543 62.1342 136.935 54.8596 127.623 54.8596V55.6517C136.433 55.6517 138.654 65.215 145.674 65.215Z" fill="url(#paint8_linear_736_35208)"/>
<path d="M200.707 30.1456C207.206 41.4022 202.84 56.0902 190.955 62.9522C179.069 69.8141 164.166 66.2516 157.667 54.995C151.168 43.7384 155.534 29.0504 167.42 22.1884C179.305 15.3265 194.208 18.889 200.707 30.1456Z" fill="url(#paint9_linear_736_35208)"/>
<path d="M187.663 42.8805C187.663 47.4632 183.948 51.1783 179.366 51.1783C174.783 51.1783 171.068 47.4632 171.068 42.8805C171.068 38.2977 174.783 34.5827 179.366 34.5827C183.948 34.5827 187.663 38.2977 187.663 42.8805Z" fill="url(#paint10_radial_736_35208)"/>
<path d="M181.011 42.8805C181.011 43.7891 180.274 44.5256 179.366 44.5256C178.457 44.5256 177.72 43.7891 177.72 42.8805C177.72 41.9719 178.457 41.2354 179.366 41.2354C180.274 41.2354 181.011 41.9719 181.011 42.8805Z" fill="#0E0204"/>
<path d="M95.1901 76.9629H148.941V87.0283C148.941 87.793 148.322 88.4129 147.557 88.4129H96.5747C95.81 88.4129 95.1901 87.793 95.1901 87.0283V76.9629Z" fill="url(#paint11_linear_736_35208)"/>
<path d="M95.1574 76.9629H148.942L146.118 59.2783H97.9762L95.1574 76.9629Z" fill="url(#paint12_linear_736_35208)"/>
<path d="M97.9755 59.2788H146.117L144.654 53.9508C144.489 53.3495 143.943 52.9327 143.319 52.9327H101.093C100.497 52.9327 99.9682 53.3136 99.7795 53.8786L97.9755 59.2788Z" fill="url(#paint13_linear_736_35208)"/>
<path d="M98.54 74.8502H145.897L144.045 61.392H100.231L98.54 74.8502Z" fill="url(#paint14_linear_736_35208)"/>
<path d="M101.136 18.4799H106.041V57.5534C106.041 57.5534 105.247 58.1991 103.588 58.1991C101.93 58.1991 101.136 57.5534 101.136 57.5534V18.4799Z" fill="url(#paint15_radial_736_35208)"/>
<path d="M100.776 14.9499H106.401C106.401 14.9499 105.986 15.4642 105.986 16.3381C105.986 17.2119 106.401 17.7263 106.401 17.7263H100.776C100.776 17.7263 101.168 17.1578 101.168 16.3381C101.168 15.5183 100.776 14.9499 100.776 14.9499Z" fill="url(#paint16_radial_736_35208)"/>
<path d="M98.54 13.9126C98.54 13.0763 99.2181 12.3982 100.054 12.3982H107.122C107.958 12.3982 108.636 13.0763 108.636 13.9126C108.636 14.749 107.958 15.4271 107.122 15.4271H100.054C99.2181 15.4271 98.54 14.749 98.54 13.9126Z" fill="url(#paint17_radial_736_35208)"/>
<path d="M100.451 18.2313C100.451 17.6201 100.947 17.1246 101.558 17.1246H105.618C106.23 17.1246 106.725 17.6201 106.725 18.2313C106.725 18.8425 106.23 19.338 105.618 19.338H101.558C100.947 19.338 100.451 18.8425 100.451 18.2313Z" fill="url(#paint18_radial_736_35208)"/>
<path d="M112.5 18.4799H117.404V57.5534C117.404 57.5534 116.611 58.1991 114.952 58.1991C113.294 58.1991 112.5 57.5534 112.5 57.5534V18.4799Z" fill="url(#paint19_radial_736_35208)"/>
<path d="M112.139 14.9499H117.764C117.764 14.9499 117.349 15.4642 117.349 16.3381C117.349 17.2119 117.764 17.7263 117.764 17.7263H112.139C112.139 17.7263 112.531 17.1578 112.531 16.3381C112.531 15.5183 112.139 14.9499 112.139 14.9499Z" fill="url(#paint20_radial_736_35208)"/>
<path d="M109.904 13.9126C109.904 13.0763 110.582 12.3982 111.418 12.3982H118.486C119.322 12.3982 120 13.0763 120 13.9126C120 14.749 119.322 15.4271 118.486 15.4271H111.418C110.582 15.4271 109.904 14.749 109.904 13.9126Z" fill="url(#paint21_radial_736_35208)"/>
<path d="M111.815 18.2313C111.815 17.6201 112.31 17.1246 112.922 17.1246H116.982C117.593 17.1246 118.089 17.6201 118.089 18.2313C118.089 18.8425 117.593 19.338 116.982 19.338H112.922C112.31 19.338 111.815 18.8425 111.815 18.2313Z" fill="url(#paint22_radial_736_35208)"/>
<path d="M137.019 18.4799H141.924V57.5534C141.924 57.5534 141.13 58.1991 139.471 58.1991C137.813 58.1991 137.019 57.5534 137.019 57.5534V18.4799Z" fill="url(#paint23_radial_736_35208)"/>
<path d="M136.659 14.9499H142.284C142.284 14.9499 141.869 15.4642 141.869 16.3381C141.869 17.2119 142.284 17.7263 142.284 17.7263H136.659C136.659 17.7263 137.051 17.1578 137.051 16.3381C137.051 15.5183 136.659 14.9499 136.659 14.9499Z" fill="url(#paint24_radial_736_35208)"/>
<path d="M134.423 13.9126C134.423 13.0763 135.101 12.3982 135.938 12.3982H143.005C143.841 12.3982 144.519 13.0763 144.519 13.9126C144.519 14.749 143.841 15.4271 143.005 15.4271H135.938C135.101 15.4271 134.423 14.749 134.423 13.9126Z" fill="url(#paint25_radial_736_35208)"/>
<path d="M136.334 18.2313C136.334 17.6201 136.83 17.1246 137.441 17.1246H141.501C142.113 17.1246 142.608 17.6201 142.608 18.2313C142.608 18.8425 142.113 19.338 141.501 19.338H137.441C136.83 19.338 136.334 18.8425 136.334 18.2313Z" fill="url(#paint26_radial_736_35208)"/>
<defs>
<linearGradient id="paint0_linear_736_35208" x1="120.28" y1="89.6957" x2="120.28" y2="111.922" gradientUnits="userSpaceOnUse">
<stop stop-color="#9EAAC1"/>
<stop offset="1" stop-color="#496677"/>
</linearGradient>
<linearGradient id="paint1_linear_736_35208" x1="120.28" y1="89.6957" x2="120.28" y2="63.608" gradientUnits="userSpaceOnUse">
<stop stop-color="#B6C0D0"/>
<stop offset="1" stop-color="#627A8D"/>
</linearGradient>
<linearGradient id="paint2_linear_736_35208" x1="62.8069" y1="36.3259" x2="62.8069" y2="73.1216" gradientUnits="userSpaceOnUse">
<stop stop-color="#D9DDFF"/>
<stop offset="1" stop-color="#8AA4B9"/>
</linearGradient>
<linearGradient id="paint3_linear_736_35208" x1="175.416" y1="35.4988" x2="175.416" y2="72.2946" gradientUnits="userSpaceOnUse">
<stop stop-color="#D9DDFF"/>
<stop offset="1" stop-color="#8AA4B9"/>
</linearGradient>
<linearGradient id="paint4_linear_736_35208" x1="59.5667" y1="36.6166" x2="59.5667" y2="85.9103" gradientUnits="userSpaceOnUse">
<stop stop-color="#9EADCB"/>
<stop offset="1" stop-color="#435663"/>
</linearGradient>
<linearGradient id="paint5_linear_736_35208" x1="178.656" y1="35.7895" x2="178.656" y2="85.0833" gradientUnits="userSpaceOnUse">
<stop stop-color="#4E5C78"/>
<stop offset="1" stop-color="#435663"/>
</linearGradient>
<linearGradient id="paint6_linear_736_35208" x1="65.9449" y1="42.8772" x2="43.6735" y2="41.7222" gradientUnits="userSpaceOnUse">
<stop stop-color="#9F906E"/>
<stop offset="0.497899" stop-color="#E6DCC5"/>
<stop offset="1" stop-color="#9F906E"/>
</linearGradient>
<linearGradient id="paint7_linear_736_35208" x1="107.081" y1="52.9143" x2="63.8838" y2="75.6414" gradientUnits="userSpaceOnUse">
<stop stop-color="#9F906E"/>
<stop offset="0.501701" stop-color="#E6DCC5"/>
</linearGradient>
<linearGradient id="paint8_linear_736_35208" x1="125.546" y1="46.4423" x2="176.423" y2="66.7348" gradientUnits="userSpaceOnUse">
<stop stop-color="#9F906E"/>
<stop offset="0.501701" stop-color="#E6DCC5"/>
</linearGradient>
<linearGradient id="paint9_linear_736_35208" x1="201.106" y1="31.066" x2="157.26" y2="53.2775" gradientUnits="userSpaceOnUse">
<stop stop-color="#9F906E"/>
<stop offset="0.497899" stop-color="#E6DCC5"/>
<stop offset="1" stop-color="#9F906E"/>
</linearGradient>
<radialGradient id="paint10_radial_736_35208" cx="0" cy="0" r="1" gradientUnits="userSpaceOnUse" gradientTransform="translate(179.366 42.8805) rotate(90) scale(8.29778)">
<stop offset="0.802083" stop-color="#D7C9CB"/>
<stop offset="0.932292" stop-color="#EDE2E4"/>
</radialGradient>
<linearGradient id="paint11_linear_736_35208" x1="122.066" y1="76.9629" x2="122.066" y2="92.4241" gradientUnits="userSpaceOnUse">
<stop stop-color="#ADB8C9"/>
<stop offset="1" stop-color="#50677A"/>
</linearGradient>
<linearGradient id="paint12_linear_736_35208" x1="122.049" y1="76.9629" x2="122.049" y2="48.8942" gradientUnits="userSpaceOnUse">
<stop stop-color="#C7D1E2"/>
<stop offset="1" stop-color="#55616A"/>
</linearGradient>
<linearGradient id="paint13_linear_736_35208" x1="122.05" y1="59.2788" x2="122.05" y2="52.9327" gradientUnits="userSpaceOnUse">
<stop stop-color="#B6C3D9"/>
<stop offset="1" stop-color="#687F92"/>
</linearGradient>
<linearGradient id="paint14_linear_736_35208" x1="122.219" y1="74.8502" x2="122.219" y2="56.6773" gradientUnits="userSpaceOnUse">
<stop stop-color="#4E5C78"/>
<stop offset="1" stop-color="#0A2331"/>
</linearGradient>
<radialGradient id="paint15_radial_736_35208" cx="0" cy="0" r="1" gradientUnits="userSpaceOnUse" gradientTransform="translate(102.563 30.5434) rotate(90) scale(37.0313 3.3739)">
<stop stop-color="#F9F9FF"/>
<stop offset="1" stop-color="#879792"/>
</radialGradient>
<radialGradient id="paint16_radial_736_35208" cx="0" cy="0" r="1" gradientUnits="userSpaceOnUse" gradientTransform="translate(102.825 15.6781) rotate(180) scale(2.6317 2.59362)">
<stop stop-color="#FFE589"/>
<stop offset="1" stop-color="#C59A46"/>
</radialGradient>
<radialGradient id="paint17_radial_736_35208" cx="0" cy="0" r="1" gradientUnits="userSpaceOnUse" gradientTransform="translate(102.218 13.1926) rotate(180) scale(4.72356 1.58654)">
<stop stop-color="#FFE589"/>
<stop offset="1" stop-color="#C59A46"/>
</radialGradient>
<radialGradient id="paint18_radial_736_35208" cx="0" cy="0" r="1" gradientUnits="userSpaceOnUse" gradientTransform="translate(102.737 17.7051) rotate(180) scale(2.93535 1.15939)">
<stop stop-color="#FFE589"/>
<stop offset="1" stop-color="#C59A46"/>
</radialGradient>
<radialGradient id="paint19_radial_736_35208" cx="0" cy="0" r="1" gradientUnits="userSpaceOnUse" gradientTransform="translate(113.927 30.5434) rotate(90) scale(37.0313 3.3739)">
<stop stop-color="#F9F9FF"/>
<stop offset="1" stop-color="#879792"/>
</radialGradient>
<radialGradient id="paint20_radial_736_35208" cx="0" cy="0" r="1" gradientUnits="userSpaceOnUse" gradientTransform="translate(114.189 15.6781) rotate(180) scale(2.6317 2.59362)">
<stop stop-color="#FFE589"/>
<stop offset="1" stop-color="#C59A46"/>
</radialGradient>
<radialGradient id="paint21_radial_736_35208" cx="0" cy="0" r="1" gradientUnits="userSpaceOnUse" gradientTransform="translate(113.582 13.1926) rotate(180) scale(4.72356 1.58654)">
<stop stop-color="#FFE589"/>
<stop offset="1" stop-color="#C59A46"/>
</radialGradient>
<radialGradient id="paint22_radial_736_35208" cx="0" cy="0" r="1" gradientUnits="userSpaceOnUse" gradientTransform="translate(114.1 17.7051) rotate(180) scale(2.93535 1.15939)">
<stop stop-color="#FFE589"/>
<stop offset="1" stop-color="#C59A46"/>
</radialGradient>
<radialGradient id="paint23_radial_736_35208" cx="0" cy="0" r="1" gradientUnits="userSpaceOnUse" gradientTransform="translate(138.446 30.5434) rotate(90) scale(37.0313 3.3739)">
<stop stop-color="#F9F9FF"/>
<stop offset="1" stop-color="#879792"/>
</radialGradient>
<radialGradient id="paint24_radial_736_35208" cx="0" cy="0" r="1" gradientUnits="userSpaceOnUse" gradientTransform="translate(138.708 15.6781) rotate(180) scale(2.6317 2.59362)">
<stop stop-color="#FFE589"/>
<stop offset="1" stop-color="#C59A46"/>
</radialGradient>
<radialGradient id="paint25_radial_736_35208" cx="0" cy="0" r="1" gradientUnits="userSpaceOnUse" gradientTransform="translate(138.101 13.1926) rotate(180) scale(4.72356 1.58654)">
<stop stop-color="#FFE589"/>
<stop offset="1" stop-color="#C59A46"/>
</radialGradient>
<radialGradient id="paint26_radial_736_35208" cx="0" cy="0" r="1" gradientUnits="userSpaceOnUse" gradientTransform="translate(138.62 17.7051) rotate(180) scale(2.93535 1.15939)">
<stop stop-color="#FFE589"/>
<stop offset="1" stop-color="#C59A46"/>
</radialGradient>
</defs>
</svg>
