<svg viewBox="0 0 240 120" fill="none" xmlns="http://www.w3.org/2000/svg">
<path d="M6.05762 117.616H229.548C229.548 41.2803 178.449 1.41064 118.837 1.41064C55.255 1.41064 6.05762 37.7646 6.05762 117.616Z" fill="url(#paint0_radial_10157_37728)"/>
<path d="M6.05762 117.616H229.548C229.548 41.2803 178.449 1.41064 118.837 1.41064C55.255 1.41064 6.05762 37.7646 6.05762 117.616Z" fill="url(#paint1_radial_10157_37728)"/>
<path d="M17.3369 3.20222C17.3369 2.21276 18.1635 1.41064 19.1831 1.41064H41.2405V53.5098H17.3369V3.20222Z" fill="url(#paint2_linear_10157_37728)"/>
<path d="M41.2412 1.41064L49.3886 11.4868C50.0263 12.2756 50.373 13.2492 50.373 14.2517V64.8034L41.2412 53.5098V1.41064Z" fill="#294E8A"/>
<path d="M20.3252 1.41064H23.9105V53.5098H20.3252V1.41064Z" fill="url(#paint3_linear_10157_37728)"/>
<path d="M34.667 1.41064H38.2523V53.5098H34.667V1.41064Z" fill="url(#paint4_linear_10157_37728)"/>
<path d="M27.4961 1.41064H31.0814V53.5098H27.4961V1.41064Z" fill="url(#paint5_linear_10157_37728)"/>
<path d="M12.4917 32.9678C12.4917 31.9784 13.3183 31.1763 14.3379 31.1763H47.3772V83.2754H12.4917V32.9678Z" fill="url(#paint6_linear_10157_37728)"/>
<path d="M16.3857 31.1763H20.2565V83.2754H16.3857V31.1763Z" fill="url(#paint7_linear_10157_37728)"/>
<path d="M31.8682 31.1763H35.7389V83.2754H31.8682V31.1763Z" fill="url(#paint8_linear_10157_37728)"/>
<path d="M24.127 31.1763H27.9977V83.2754H24.127V31.1763Z" fill="url(#paint9_linear_10157_37728)"/>
<path d="M39.6094 31.1763H43.4801V83.2754H39.6094V31.1763Z" fill="url(#paint10_linear_10157_37728)"/>
<path d="M47.3774 31.1763L55.6459 39.8942C56.4301 40.721 56.8654 41.8037 56.8654 42.9274V93.2791L47.3774 83.2755V31.1763Z" fill="#BB6C5B"/>
<path d="M5.76904 76.2012C5.76904 75.2118 6.59559 74.4097 7.6152 74.4097H42.138V117.617H5.76904V76.2012Z" fill="url(#paint11_linear_10157_37728)"/>
<path d="M10.3486 80.2485H16.338V88.8111H10.3486V80.2485Z" fill="url(#paint12_linear_10157_37728)"/>
<path d="M10.3486 92.6411H16.338V101.204H10.3486V92.6411Z" fill="url(#paint13_linear_10157_37728)"/>
<path d="M10.3486 105.034H16.338V113.596H10.3486V105.034Z" fill="url(#paint14_linear_10157_37728)"/>
<path d="M20.4087 80.2485H26.398V88.8111H20.4087V80.2485Z" fill="url(#paint15_linear_10157_37728)"/>
<path d="M20.4087 92.6411H26.398V101.204H20.4087V92.6411Z" fill="url(#paint16_linear_10157_37728)"/>
<path d="M20.4087 105.034H26.398V113.596H20.4087V105.034Z" fill="url(#paint17_linear_10157_37728)"/>
<path d="M30.4712 80.2485H36.4605V88.8111H30.4712V80.2485Z" fill="url(#paint18_linear_10157_37728)"/>
<path d="M30.4712 92.6411H36.4605V101.204H30.4712V92.6411Z" fill="url(#paint19_linear_10157_37728)"/>
<path d="M30.4712 105.034H36.4605V113.596H30.4712V105.034Z" fill="url(#paint20_linear_10157_37728)"/>
<path d="M42.1377 74.4072L68.2702 93.4051C69.4336 94.2509 70.1185 95.5791 70.1185 96.9898V117.615H42.1377V74.4072Z" fill="url(#paint21_linear_10157_37728)"/>
<path d="M45.7529 81.5469L66.5068 96.6346V113.595H45.7529V81.5469Z" fill="url(#paint22_linear_10157_37728)"/>
<path d="M222.854 3.20222C222.854 2.21276 222.028 1.41064 221.008 1.41064H198.951V53.5098H222.854V3.20222Z" fill="url(#paint23_linear_10157_37728)"/>
<path d="M198.951 1.41064L190.803 11.4868C190.166 12.2756 189.819 13.2492 189.819 14.2517V64.8034L198.951 53.5098V1.41064Z" fill="#294E8A"/>
<path d="M219.866 1.41064H216.281V53.5098H219.866V1.41064Z" fill="url(#paint24_linear_10157_37728)"/>
<path d="M205.524 1.41064H201.939V53.5098H205.524V1.41064Z" fill="url(#paint25_linear_10157_37728)"/>
<path d="M212.695 1.41064H209.11V53.5098H212.695V1.41064Z" fill="url(#paint26_linear_10157_37728)"/>
<path d="M227.7 32.9678C227.7 31.9784 226.873 31.1763 225.854 31.1763H192.814V83.2754H227.7V32.9678Z" fill="url(#paint27_linear_10157_37728)"/>
<path d="M223.806 31.1763H219.935V83.2754H223.806V31.1763Z" fill="url(#paint28_linear_10157_37728)"/>
<path d="M208.323 31.1763H204.452V83.2754H208.323V31.1763Z" fill="url(#paint29_linear_10157_37728)"/>
<path d="M216.064 31.1763H212.194V83.2754H216.064V31.1763Z" fill="url(#paint30_linear_10157_37728)"/>
<path d="M200.582 31.1763H196.711V83.2754H200.582V31.1763Z" fill="url(#paint31_linear_10157_37728)"/>
<path d="M192.814 31.1763L184.546 39.8942C183.761 40.721 183.326 41.8037 183.326 42.9274V93.2791L192.814 83.2755V31.1763Z" fill="#BB6C5B"/>
<path d="M234.422 76.2012C234.422 75.2118 233.596 74.4097 232.576 74.4097H198.053V117.617H234.422V76.2012Z" fill="url(#paint32_linear_10157_37728)"/>
<path d="M229.845 80.2485H223.856V88.8111H229.845V80.2485Z" fill="url(#paint33_linear_10157_37728)"/>
<path d="M229.845 92.6411H223.856V101.204H229.845V92.6411Z" fill="url(#paint34_linear_10157_37728)"/>
<path d="M229.845 105.034H223.856V113.596H229.845V105.034Z" fill="url(#paint35_linear_10157_37728)"/>
<path d="M219.781 80.2485H213.791V88.8111H219.781V80.2485Z" fill="url(#paint36_linear_10157_37728)"/>
<path d="M219.781 92.6411H213.791V101.204H219.781V92.6411Z" fill="url(#paint37_linear_10157_37728)"/>
<path d="M219.781 105.034H213.791V113.596H219.781V105.034Z" fill="url(#paint38_linear_10157_37728)"/>
<path d="M209.721 80.2485H203.731V88.8111H209.721V80.2485Z" fill="url(#paint39_linear_10157_37728)"/>
<path d="M209.721 92.6411H203.731V101.204H209.721V92.6411Z" fill="url(#paint40_linear_10157_37728)"/>
<path d="M209.721 105.034H203.731V113.596H209.721V105.034Z" fill="url(#paint41_linear_10157_37728)"/>
<path d="M198.056 74.4072L171.923 93.4051C170.76 94.2509 170.075 95.5791 170.075 96.9898V117.615H198.056V74.4072Z" fill="url(#paint42_linear_10157_37728)"/>
<path d="M194.441 81.5469L173.687 96.6346V113.595H194.441V81.5469Z" fill="url(#paint43_linear_10157_37728)"/>
<path d="M73.5083 33.4121H167.256V117.616H73.5083V33.4121Z" fill="url(#paint44_linear_10157_37728)"/>
<path d="M160.734 33.4121H165.03V117.616H160.734V33.4121Z" fill="url(#paint45_linear_10157_37728)"/>
<path d="M76.7983 33.4121H81.0945V117.616H76.7983V33.4121Z" fill="url(#paint46_linear_10157_37728)"/>
<path d="M84.4766 1.41064H156.288V117.616H84.4766V1.41064Z" fill="url(#paint47_linear_10157_37728)"/>
<path d="M84.4766 1.41064H156.288V117.616H84.4766V1.41064Z" fill="url(#paint48_radial_10157_37728)"/>
<path d="M142.126 1.41064H148.184V117.614H142.126V1.41064Z" fill="url(#paint49_linear_10157_37728)"/>
<path d="M105.753 1.41064H111.811V117.614H105.753V1.41064Z" fill="url(#paint50_linear_10157_37728)"/>
<path d="M129.517 1.41064H135.575V117.614H129.517V1.41064Z" fill="url(#paint51_linear_10157_37728)"/>
<path d="M93.1436 1.41064H99.202V117.614H93.1436V1.41064Z" fill="url(#paint52_linear_10157_37728)"/>
<path d="M121.442 107.213C49.4421 107.213 14.3267 114.148 5.76904 117.616H233.942C226.442 114.148 193.442 107.213 121.442 107.213Z" fill="url(#paint53_radial_10157_37728)"/>
<path d="M9.23096 117.616H230.769C230.769 43.3842 180.117 4.61328 121.026 4.61328C57.9988 4.61328 9.23096 39.9654 9.23096 117.616Z" fill="url(#paint54_radial_10157_37728)"/>
<path d="M88.9861 97.9747C89.6597 94.0257 146.175 97.731 147.67 100.828C149.139 103.925 152.672 108.187 164.513 113.421C167.022 114.53 166.825 116.126 165.113 117.615H73.9681C73.2535 116.525 73.3166 115.526 74.6126 114.925C84.0614 110.541 88.3119 101.925 88.9861 97.9747Z" fill="url(#paint55_linear_10157_37728)"/>
<path d="M88.9861 97.9747C89.6597 94.0257 146.175 97.731 147.67 100.828C149.139 103.925 152.672 108.187 164.513 113.421C167.022 114.53 166.825 116.126 165.113 117.615H73.9681C73.2535 116.525 73.3166 115.526 74.6126 114.925C84.0614 110.541 88.3119 101.925 88.9861 97.9747Z" fill="url(#paint56_radial_10157_37728)"/>
<path d="M143.881 104.172C151.478 112.872 173.01 102.671 164.728 99.2475C152.886 94.3519 149.354 90.3683 147.885 87.4713C146.416 84.5743 90.1676 87.5869 89.4938 91.2814C88.8201 94.9759 85.2434 95.955 75.7938 100.056C70.0226 102.56 88.5462 112.47 92.5256 104.172C89.2692 113.449 104.878 117.836 108.695 106.175C112.064 117.374 126.325 116.838 129.357 107.099C135.421 117.761 146.986 111.833 143.881 104.172Z" fill="url(#paint57_linear_10157_37728)"/>
<path d="M143.881 104.172C151.478 112.872 173.01 102.671 164.728 99.2475C152.886 94.3519 149.354 90.3683 147.885 87.4713C146.416 84.5743 90.1676 87.5869 89.4938 91.2814C88.8201 94.9759 85.2434 95.955 75.7938 100.056C70.0226 102.56 88.5462 112.47 92.5256 104.172C89.2692 113.449 104.878 117.836 108.695 106.175C112.064 117.374 126.325 116.838 129.357 107.099C135.421 117.761 146.986 111.833 143.881 104.172Z" fill="url(#paint58_radial_10157_37728)"/>
<path d="M98.9061 90.1271C85.508 100.859 71.36 88.5648 78.7664 85.4858C89.5771 80.9915 96.9041 73.1977 110.924 53.9763L131.57 53.9761C142.951 76.5428 153.445 81.7223 162.069 85.4858C167.89 88.0257 151.421 100.441 143.875 90.1271C141.873 101.278 122.931 99.1869 120.159 88.4545C118.146 102.778 94.5942 102.671 98.9061 90.1271Z" fill="url(#paint59_linear_10157_37728)"/>
<path d="M98.9061 90.1271C85.508 100.859 71.36 88.5648 78.7664 85.4858C89.5771 80.9915 96.9041 73.1977 110.924 53.9763L131.57 53.9761C142.951 76.5428 153.445 81.7223 162.069 85.4858C167.89 88.0257 151.421 100.441 143.875 90.1271C141.873 101.278 122.931 99.1869 120.159 88.4545C118.146 102.778 94.5942 102.671 98.9061 90.1271Z" fill="url(#paint60_radial_10157_37728)"/>
<path d="M100.612 74.869C89.5144 83.7589 79.7138 72.5533 85.8488 70.0028C94.8037 66.2801 100.873 59.8242 112.486 43.9025L129.588 43.9023C139.015 62.5951 147.708 66.8855 154.851 70.0028C159.673 72.1067 147.309 84.2123 139.78 73.8474C139.78 85.6497 124.401 88.0933 120.29 76.5939C117.646 89.962 97.0408 85.2598 100.612 74.869Z" fill="url(#paint61_linear_10157_37728)"/>
<path d="M100.612 74.869C89.5144 83.7589 79.7138 72.5533 85.8488 70.0028C94.8037 66.2801 100.873 59.8242 112.486 43.9025L129.588 43.9023C139.015 62.5951 147.708 66.8855 154.851 70.0028C159.673 72.1067 147.309 84.2123 139.78 73.8474C139.78 85.6497 124.401 88.0933 120.29 76.5939C117.646 89.962 97.0408 85.2598 100.612 74.869Z" fill="url(#paint62_radial_10157_37728)"/>
<path d="M103.848 61.8902C93.5866 71.4467 82.7511 60.4991 88.4234 57.7574C96.703 53.7556 102.314 46.8157 113.052 29.7004L128.864 29.7002C137.58 49.7943 145.617 54.4063 152.222 57.7574C156.68 60.019 144.067 71.0743 138.287 61.8902C136.754 71.819 122.247 69.9573 120.124 60.4009C118.582 73.155 100.545 73.0601 103.848 61.8902Z" fill="url(#paint63_linear_10157_37728)"/>
<path d="M103.848 61.8902C93.5866 71.4467 82.7511 60.4991 88.4234 57.7574C96.703 53.7556 102.314 46.8157 113.052 29.7004L128.864 29.7002C137.58 49.7943 145.617 54.4063 152.222 57.7574C156.68 60.019 144.067 71.0743 138.287 61.8902C136.754 71.819 122.247 69.9573 120.124 60.4009C118.582 73.155 100.545 73.0601 103.848 61.8902Z" fill="url(#paint64_radial_10157_37728)"/>
<path d="M109.389 47.9543C100.653 60.7005 87.1902 50.8934 92.1692 47.9543C99.2366 43.7824 112.535 33.2111 118.601 14.3294C118.908 13.3734 119.803 12.7061 120.824 12.7061C121.97 12.7061 122.935 13.5431 123.126 14.6522C126.956 36.8848 142.203 44.4619 147.839 47.9543C153.884 51.7 137.932 62.2162 129.794 47.9543C128.441 61.6269 109.39 58.418 109.389 47.9543Z" fill="url(#paint65_linear_10157_37728)"/>
<path d="M109.389 47.9543C100.653 60.7005 87.1902 50.8934 92.1692 47.9543C99.2366 43.7824 112.535 33.2111 118.601 14.3294C118.908 13.3734 119.803 12.7061 120.824 12.7061C121.97 12.7061 122.935 13.5431 123.126 14.6522C126.956 36.8848 142.203 44.4619 147.839 47.9543C153.884 51.7 137.932 62.2162 129.794 47.9543C128.441 61.6269 109.39 58.418 109.389 47.9543Z" fill="url(#paint66_radial_10157_37728)"/>
<path d="M113.009 35.8662C104.609 43.08 90.9325 40.2931 95.3727 37.8905C101.663 34.487 113.349 23.9665 118.766 8.47721C119.061 7.6334 119.861 7.05176 120.77 7.05176C121.801 7.05176 122.671 7.79596 122.861 8.79058C126.347 26.9707 140.3 35.043 145.313 37.8905C150.704 40.9525 133.51 43.7357 127.029 35.8662C125.822 47.0432 113.009 44.42 113.009 35.8662Z" fill="url(#paint67_linear_10157_37728)"/>
<path d="M113.009 35.8662C104.609 43.08 90.9325 40.2931 95.3727 37.8905C101.663 34.487 113.349 23.9665 118.766 8.47721C119.061 7.6334 119.861 7.05176 120.77 7.05176C121.801 7.05176 122.671 7.79596 122.861 8.79058C126.347 26.9707 140.3 35.043 145.313 37.8905C150.704 40.9525 133.51 43.7357 127.029 35.8662C125.822 47.0432 113.009 44.42 113.009 35.8662Z" fill="url(#paint68_radial_10157_37728)"/>
<path d="M134.121 71.2794C134.121 74.8814 131.201 77.8014 127.599 77.8014C123.997 77.8014 121.077 74.8814 121.077 71.2794C121.077 67.6774 123.997 64.7573 127.599 64.7573C131.201 64.7573 134.121 67.6774 134.121 71.2794Z" fill="url(#paint69_radial_10157_37728)"/>
<path d="M130.518 71.2796C130.518 72.8916 129.211 74.1984 127.599 74.1984C125.987 74.1984 124.681 72.8916 124.681 71.2796C124.681 69.6676 125.987 68.3608 127.599 68.3608C129.211 68.3608 130.518 69.6676 130.518 71.2796Z" fill="#40D7AA"/>
<path d="M100.522 79.0499C100.522 82.6519 97.6021 85.572 94.0001 85.572C90.3981 85.572 87.478 82.6519 87.478 79.0499C87.478 75.4479 90.3981 72.5278 94.0001 72.5278C97.6021 72.5278 100.522 75.4479 100.522 79.0499Z" fill="url(#paint70_radial_10157_37728)"/>
<path d="M96.9191 79.0501C96.9191 80.6621 95.6123 81.9689 94.0003 81.9689C92.3883 81.9689 91.0815 80.6621 91.0815 79.0501C91.0815 77.4381 92.3883 76.1313 94.0003 76.1313C95.6123 76.1313 96.9191 77.4381 96.9191 79.0501Z" fill="#40D7AA"/>
<path d="M121.826 96.6392C121.826 100.241 118.906 103.161 115.304 103.161C111.702 103.161 108.782 100.241 108.782 96.6392C108.782 93.0372 111.702 90.1172 115.304 90.1172C118.906 90.1172 121.826 93.0372 121.826 96.6392Z" fill="url(#paint71_radial_10157_37728)"/>
<path d="M118.223 96.6395C118.223 98.2515 116.916 99.5583 115.304 99.5583C113.692 99.5583 112.385 98.2515 112.385 96.6395C112.385 95.0275 113.692 93.7207 115.304 93.7207C116.916 93.7207 118.223 95.0275 118.223 96.6395Z" fill="#40D7AA"/>
<path d="M119.872 81.7711C119.872 85.4921 116.856 88.5085 113.135 88.5085C109.414 88.5085 106.397 85.4921 106.397 81.7711C106.397 78.0501 109.414 75.0337 113.135 75.0337C116.856 75.0337 119.872 78.0501 119.872 81.7711Z" fill="url(#paint72_radial_10157_37728)"/>
<path d="M116.052 81.7703C116.052 83.3823 114.746 84.6891 113.134 84.6891C111.522 84.6891 110.215 83.3823 110.215 81.7703C110.215 80.1583 111.522 78.8516 113.134 78.8516C114.746 78.8516 116.052 80.1583 116.052 81.7703Z" fill="#FF8F2D"/>
<path d="M95.3977 109.899C95.3977 113.62 92.3812 116.636 88.6603 116.636C84.9393 116.636 81.9229 113.62 81.9229 109.899C81.9229 106.178 84.9393 103.161 88.6603 103.161C92.3812 103.161 95.3977 106.178 95.3977 109.899Z" fill="url(#paint73_radial_10157_37728)"/>
<path d="M91.5783 109.9C91.5783 111.512 90.2715 112.819 88.6595 112.819C87.0475 112.819 85.7407 111.512 85.7407 109.9C85.7407 108.288 87.0475 106.981 88.6595 106.981C90.2715 106.981 91.5783 108.288 91.5783 109.9Z" fill="#FF8F2D"/>
<path d="M116.951 35.4054C116.951 39.1264 113.935 42.1428 110.214 42.1428C106.493 42.1428 103.477 39.1264 103.477 35.4054C103.477 31.6844 106.493 28.668 110.214 28.668C113.935 28.668 116.951 31.6844 116.951 35.4054Z" fill="url(#paint74_radial_10157_37728)"/>
<path d="M113.134 35.4066C113.134 37.0186 111.827 38.3253 110.215 38.3253C108.603 38.3253 107.296 37.0186 107.296 35.4066C107.296 33.7946 108.603 32.4878 110.215 32.4878C111.827 32.4878 113.134 33.7946 113.134 35.4066Z" fill="#FF8F2D"/>
<path d="M106.292 94.1335C106.292 97.7643 103.348 100.708 99.7175 100.708C96.0868 100.708 93.1436 97.7643 93.1436 94.1335C93.1436 90.5028 96.0868 87.5596 99.7175 87.5596C103.348 87.5596 106.292 90.5028 106.292 94.1335Z" fill="url(#paint75_radial_10157_37728)"/>
<path d="M102.637 94.1356C102.637 95.7476 101.33 97.0543 99.7181 97.0543C98.1061 97.0543 96.7993 95.7476 96.7993 94.1356C96.7993 92.5236 98.1061 91.2168 99.7181 91.2168C101.33 91.2168 102.637 92.5236 102.637 94.1356Z" fill="#FF78B0"/>
<path d="M158.303 103.161C158.303 106.792 155.359 109.735 151.729 109.735C148.098 109.735 145.155 106.792 145.155 103.161C145.155 99.5307 148.098 96.5874 151.729 96.5874C155.359 96.5874 158.303 99.5307 158.303 103.161Z" fill="url(#paint76_radial_10157_37728)"/>
<path d="M154.648 103.161C154.648 104.773 153.341 106.08 151.729 106.08C150.117 106.08 148.81 104.773 148.81 103.161C148.81 101.549 150.117 100.243 151.729 100.243C153.341 100.243 154.648 101.549 154.648 103.161Z" fill="#FF78B0"/>
<path d="M139.327 41.9802C139.327 45.6109 136.384 48.5542 132.753 48.5542C129.122 48.5542 126.179 45.6109 126.179 41.9802C126.179 38.3495 129.122 35.4062 132.753 35.4062C136.384 35.4062 139.327 38.3495 139.327 41.9802Z" fill="url(#paint77_radial_10157_37728)"/>
<path d="M135.67 41.9783C135.67 43.5903 134.363 44.8971 132.751 44.8971C131.139 44.8971 129.833 43.5903 129.833 41.9783C129.833 40.3664 131.139 39.0596 132.751 39.0596C134.363 39.0596 135.67 40.3664 135.67 41.9783Z" fill="#FF78B0"/>
<path d="M147.219 93.6283C147.219 97.3397 144.21 100.348 140.498 100.348C136.787 100.348 133.778 97.3397 133.778 93.6283C133.778 89.9169 136.787 86.9082 140.498 86.9082C144.21 86.9082 147.219 89.9169 147.219 93.6283Z" fill="url(#paint78_radial_10157_37728)"/>
<path d="M143.418 93.6287C143.418 95.2407 142.111 96.5475 140.499 96.5475C138.887 96.5475 137.581 95.2407 137.581 93.6287C137.581 92.0167 138.887 90.71 140.499 90.71C142.111 90.71 143.418 92.0167 143.418 93.6287Z" fill="#FFEE2D"/>
<path d="M110.359 59.0487C110.359 62.7601 107.35 65.7688 103.639 65.7688C99.9272 65.7688 96.9185 62.7601 96.9185 59.0487C96.9185 55.3373 99.9272 52.3286 103.639 52.3286C107.35 52.3286 110.359 55.3373 110.359 59.0487Z" fill="url(#paint79_radial_10157_37728)"/>
<path d="M106.558 59.0491C106.558 60.6611 105.251 61.9679 103.639 61.9679C102.027 61.9679 100.72 60.6611 100.72 59.0491C100.72 57.4372 102.027 56.1304 103.639 56.1304C105.251 56.1304 106.558 57.4372 106.558 59.0491Z" fill="#FFEE2D"/>
<path d="M127.358 51.4803C127.358 55.0579 124.457 57.9581 120.88 57.9581C117.302 57.9581 114.402 55.0579 114.402 51.4803C114.402 47.9027 117.302 45.0024 120.88 45.0024C124.457 45.0024 127.358 47.9027 127.358 51.4803Z" fill="url(#paint80_radial_10157_37728)"/>
<path d="M123.798 51.4793C123.798 53.0913 122.491 54.3981 120.879 54.3981C119.267 54.3981 117.96 53.0913 117.96 51.4793C117.96 49.8673 119.267 48.5605 120.879 48.5605C122.491 48.5605 123.798 49.8673 123.798 51.4793Z" fill="#2DC7FF"/>
<path d="M150.379 75.2938C150.379 78.8714 147.478 81.7716 143.901 81.7716C140.323 81.7716 137.423 78.8714 137.423 75.2938C137.423 71.7161 140.323 68.8159 143.901 68.8159C147.478 68.8159 150.379 71.7161 150.379 75.2938Z" fill="url(#paint81_radial_10157_37728)"/>
<path d="M146.819 75.2933C146.819 76.9053 145.512 78.2121 143.9 78.2121C142.288 78.2121 140.981 76.9053 140.981 75.2933C140.981 73.6813 142.288 72.3745 143.9 72.3745C145.512 72.3745 146.819 73.6813 146.819 75.2933Z" fill="#2DC7FF"/>
<path d="M136.996 110.732C136.996 114.309 134.096 117.21 130.518 117.21C126.941 117.21 124.041 114.309 124.041 110.732C124.041 107.154 126.941 104.254 130.518 104.254C134.096 104.254 136.996 107.154 136.996 110.732Z" fill="url(#paint82_radial_10157_37728)"/>
<path d="M133.437 110.731C133.437 112.343 132.13 113.65 130.518 113.65C128.906 113.65 127.599 112.343 127.599 110.731C127.599 109.119 128.906 107.812 130.518 107.812C132.13 107.812 133.437 109.119 133.437 110.731Z" fill="#2DC7FF"/>
<path d="M123.387 7.56545L134.131 2.69307L126.994 12.0861L137.503 17.4475L125.708 17.722L128.067 29.281L120.501 20.2311L112.931 29.281L115.29 17.722L103.495 17.4475L114.003 12.0861L106.866 2.69307L117.61 7.56545L119.167 1.41064H121.835L123.387 7.56545Z" fill="url(#paint83_radial_10157_37728)"/>
<path d="M79.1358 15.6336C79.1358 17.2132 77.8124 18.4937 76.18 18.4937C74.5475 18.4937 73.2241 17.2132 73.2241 15.6336C73.2241 14.054 74.5475 12.7734 76.18 12.7734C77.8124 12.7734 79.1358 14.054 79.1358 15.6336Z" fill="url(#paint84_radial_10157_37728)"/>
<path d="M71.171 30.6722C71.171 31.6098 70.3855 32.3699 69.4165 32.3699C68.4476 32.3699 67.6621 31.6098 67.6621 30.6722C67.6621 29.7347 68.4476 28.9746 69.4165 28.9746C70.3855 28.9746 71.171 29.7347 71.171 30.6722Z" fill="url(#paint85_radial_10157_37728)"/>
<path d="M165.759 16.7967C165.759 17.7343 164.974 18.4944 164.005 18.4944C163.036 18.4944 162.25 17.7343 162.25 16.7967C162.25 15.8592 163.036 15.0991 164.005 15.0991C164.974 15.0991 165.759 15.8592 165.759 16.7967Z" fill="url(#paint86_radial_10157_37728)"/>
<path d="M184.76 26.2063C184.76 26.8355 184.233 27.3457 183.582 27.3457C182.932 27.3457 182.405 26.8355 182.405 26.2063C182.405 25.577 182.932 25.0669 183.582 25.0669C184.233 25.0669 184.76 25.577 184.76 26.2063Z" fill="url(#paint87_radial_10157_37728)"/>
<path d="M58.5061 18.1279L59.078 22.4398L63.2231 20.7631L59.6499 23.3983L63.2231 26.0336L59.078 24.3568L58.5061 28.6688L57.9342 24.3568L53.7891 26.0336L57.3623 23.3983L53.7891 20.7631L57.9342 22.4398L58.5061 18.1279Z" fill="url(#paint88_radial_10157_37728)"/>
<path d="M171.76 27.3452L172.477 29.8572L175.01 29.2221L173.193 31.0989L175.01 32.9758L172.477 32.3406L171.76 34.8527L171.043 32.3406L168.509 32.9758L170.326 31.0989L168.509 29.2221L171.043 29.8572L171.76 27.3452Z" fill="url(#paint89_radial_10157_37728)"/>
<defs>
<radialGradient id="paint0_radial_10157_37728" cx="0" cy="0" r="1" gradientTransform="matrix(151.352 0 -0.197315 -79.2814 117.803 122.941)" gradientUnits="userSpaceOnUse">
<stop stop-color="#ECD56C"/>
<stop offset="0.260417" stop-color="#EB9C5A"/>
<stop offset="0.557292" stop-color="#AF79D0"/>
<stop offset="0.766513" stop-color="#6275BC"/>
<stop offset="0.975" stop-color="#1E2660"/>
</radialGradient>
<radialGradient id="paint1_radial_10157_37728" cx="0" cy="0" r="1" gradientTransform="matrix(14.444 58.1025 -76.9361 23.1254 103.359 59.5131)" gradientUnits="userSpaceOnUse">
<stop stop-color="#748796"/>
<stop offset="1" stop-color="#748796" stop-opacity="0"/>
</radialGradient>
<linearGradient id="paint2_linear_10157_37728" x1="29.2887" y1="1.41064" x2="29.2887" y2="53.5098" gradientUnits="userSpaceOnUse">
<stop stop-color="#293C72"/>
<stop offset="1" stop-color="#4D4A72"/>
</linearGradient>
<linearGradient id="paint3_linear_10157_37728" x1="22.1179" y1="1.41064" x2="22.1179" y2="53.5098" gradientUnits="userSpaceOnUse">
<stop stop-color="#25305D"/>
<stop offset="1" stop-color="#2F3A61"/>
</linearGradient>
<linearGradient id="paint4_linear_10157_37728" x1="36.4597" y1="1.41064" x2="36.4597" y2="53.5098" gradientUnits="userSpaceOnUse">
<stop stop-color="#25305D"/>
<stop offset="1" stop-color="#2F3A61"/>
</linearGradient>
<linearGradient id="paint5_linear_10157_37728" x1="29.2888" y1="1.41064" x2="29.2888" y2="53.5098" gradientUnits="userSpaceOnUse">
<stop stop-color="#25305D"/>
<stop offset="1" stop-color="#2F3A61"/>
</linearGradient>
<linearGradient id="paint6_linear_10157_37728" x1="29.9345" y1="31.1763" x2="29.9345" y2="83.2755" gradientUnits="userSpaceOnUse">
<stop stop-color="#4F4B72"/>
<stop offset="1" stop-color="#AF6759"/>
</linearGradient>
<linearGradient id="paint7_linear_10157_37728" x1="18.3211" y1="31.1763" x2="18.3211" y2="83.2755" gradientUnits="userSpaceOnUse">
<stop stop-color="#2F385E"/>
<stop offset="1" stop-color="#945451"/>
</linearGradient>
<linearGradient id="paint8_linear_10157_37728" x1="33.8036" y1="31.1763" x2="33.8036" y2="83.2755" gradientUnits="userSpaceOnUse">
<stop stop-color="#2F385E"/>
<stop offset="1" stop-color="#945451"/>
</linearGradient>
<linearGradient id="paint9_linear_10157_37728" x1="26.0623" y1="31.1763" x2="26.0623" y2="83.2755" gradientUnits="userSpaceOnUse">
<stop stop-color="#2F385E"/>
<stop offset="1" stop-color="#945451"/>
</linearGradient>
<linearGradient id="paint10_linear_10157_37728" x1="41.5448" y1="31.1763" x2="41.5448" y2="83.2755" gradientUnits="userSpaceOnUse">
<stop stop-color="#2F385E"/>
<stop offset="1" stop-color="#945451"/>
</linearGradient>
<linearGradient id="paint11_linear_10157_37728" x1="23.9535" y1="74.4097" x2="23.9535" y2="117.617" gradientUnits="userSpaceOnUse">
<stop stop-color="#4D3351"/>
<stop offset="0.490385" stop-color="#A84E44"/>
<stop offset="1" stop-color="#F1923D"/>
</linearGradient>
<linearGradient id="paint12_linear_10157_37728" x1="13.3433" y1="80.2485" x2="13.3433" y2="88.8111" gradientUnits="userSpaceOnUse">
<stop stop-color="#E78639"/>
<stop offset="1" stop-color="#FAB44C"/>
</linearGradient>
<linearGradient id="paint13_linear_10157_37728" x1="13.3433" y1="92.6411" x2="13.3433" y2="101.204" gradientUnits="userSpaceOnUse">
<stop stop-color="#E78639"/>
<stop offset="1" stop-color="#FAB44C"/>
</linearGradient>
<linearGradient id="paint14_linear_10157_37728" x1="13.3433" y1="105.034" x2="13.3433" y2="113.596" gradientUnits="userSpaceOnUse">
<stop stop-color="#E78639"/>
<stop offset="1" stop-color="#FAB44C"/>
</linearGradient>
<linearGradient id="paint15_linear_10157_37728" x1="23.4034" y1="80.2485" x2="23.4034" y2="88.8111" gradientUnits="userSpaceOnUse">
<stop stop-color="#E78639"/>
<stop offset="1" stop-color="#FAB44C"/>
</linearGradient>
<linearGradient id="paint16_linear_10157_37728" x1="23.4034" y1="92.6411" x2="23.4034" y2="101.204" gradientUnits="userSpaceOnUse">
<stop stop-color="#E78639"/>
<stop offset="1" stop-color="#FAB44C"/>
</linearGradient>
<linearGradient id="paint17_linear_10157_37728" x1="23.4034" y1="105.034" x2="23.4034" y2="113.596" gradientUnits="userSpaceOnUse">
<stop stop-color="#E78639"/>
<stop offset="1" stop-color="#FAB44C"/>
</linearGradient>
<linearGradient id="paint18_linear_10157_37728" x1="33.4659" y1="80.2485" x2="33.4659" y2="88.8111" gradientUnits="userSpaceOnUse">
<stop stop-color="#E78639"/>
<stop offset="1" stop-color="#FAB44C"/>
</linearGradient>
<linearGradient id="paint19_linear_10157_37728" x1="33.4659" y1="92.6411" x2="33.4659" y2="101.204" gradientUnits="userSpaceOnUse">
<stop stop-color="#E78639"/>
<stop offset="1" stop-color="#FAB44C"/>
</linearGradient>
<linearGradient id="paint20_linear_10157_37728" x1="33.4659" y1="105.034" x2="33.4659" y2="113.596" gradientUnits="userSpaceOnUse">
<stop stop-color="#E78639"/>
<stop offset="1" stop-color="#FAB44C"/>
</linearGradient>
<linearGradient id="paint21_linear_10157_37728" x1="56.1281" y1="74.4072" x2="56.1281" y2="117.615" gradientUnits="userSpaceOnUse">
<stop stop-color="#79404D"/>
<stop offset="1" stop-color="#F1923D"/>
</linearGradient>
<linearGradient id="paint22_linear_10157_37728" x1="56.1299" y1="81.5469" x2="56.1299" y2="113.595" gradientUnits="userSpaceOnUse">
<stop stop-color="#79404D"/>
<stop offset="1" stop-color="#F1923D"/>
</linearGradient>
<linearGradient id="paint23_linear_10157_37728" x1="210.903" y1="1.41064" x2="210.903" y2="53.5098" gradientUnits="userSpaceOnUse">
<stop stop-color="#293C72"/>
<stop offset="1" stop-color="#4D4A72"/>
</linearGradient>
<linearGradient id="paint24_linear_10157_37728" x1="218.074" y1="1.41064" x2="218.074" y2="53.5098" gradientUnits="userSpaceOnUse">
<stop stop-color="#25305D"/>
<stop offset="1" stop-color="#2F3A61"/>
</linearGradient>
<linearGradient id="paint25_linear_10157_37728" x1="203.732" y1="1.41064" x2="203.732" y2="53.5098" gradientUnits="userSpaceOnUse">
<stop stop-color="#25305D"/>
<stop offset="1" stop-color="#2F3A61"/>
</linearGradient>
<linearGradient id="paint26_linear_10157_37728" x1="210.903" y1="1.41064" x2="210.903" y2="53.5098" gradientUnits="userSpaceOnUse">
<stop stop-color="#25305D"/>
<stop offset="1" stop-color="#2F3A61"/>
</linearGradient>
<linearGradient id="paint27_linear_10157_37728" x1="210.257" y1="31.1763" x2="210.257" y2="83.2755" gradientUnits="userSpaceOnUse">
<stop stop-color="#4F4B72"/>
<stop offset="1" stop-color="#AF6759"/>
</linearGradient>
<linearGradient id="paint28_linear_10157_37728" x1="221.87" y1="31.1763" x2="221.87" y2="83.2755" gradientUnits="userSpaceOnUse">
<stop stop-color="#2F385E"/>
<stop offset="1" stop-color="#945451"/>
</linearGradient>
<linearGradient id="paint29_linear_10157_37728" x1="206.388" y1="31.1763" x2="206.388" y2="83.2755" gradientUnits="userSpaceOnUse">
<stop stop-color="#2F385E"/>
<stop offset="1" stop-color="#945451"/>
</linearGradient>
<linearGradient id="paint30_linear_10157_37728" x1="214.129" y1="31.1763" x2="214.129" y2="83.2755" gradientUnits="userSpaceOnUse">
<stop stop-color="#2F385E"/>
<stop offset="1" stop-color="#945451"/>
</linearGradient>
<linearGradient id="paint31_linear_10157_37728" x1="198.647" y1="31.1763" x2="198.647" y2="83.2755" gradientUnits="userSpaceOnUse">
<stop stop-color="#2F385E"/>
<stop offset="1" stop-color="#945451"/>
</linearGradient>
<linearGradient id="paint32_linear_10157_37728" x1="216.238" y1="74.4097" x2="216.238" y2="117.617" gradientUnits="userSpaceOnUse">
<stop stop-color="#4D3351"/>
<stop offset="0.490385" stop-color="#A84E44"/>
<stop offset="1" stop-color="#F1923D"/>
</linearGradient>
<linearGradient id="paint33_linear_10157_37728" x1="226.851" y1="80.2485" x2="226.851" y2="88.8111" gradientUnits="userSpaceOnUse">
<stop stop-color="#E78639"/>
<stop offset="1" stop-color="#FAB44C"/>
</linearGradient>
<linearGradient id="paint34_linear_10157_37728" x1="226.851" y1="92.6411" x2="226.851" y2="101.204" gradientUnits="userSpaceOnUse">
<stop stop-color="#E78639"/>
<stop offset="1" stop-color="#FAB44C"/>
</linearGradient>
<linearGradient id="paint35_linear_10157_37728" x1="226.851" y1="105.034" x2="226.851" y2="113.596" gradientUnits="userSpaceOnUse">
<stop stop-color="#E78639"/>
<stop offset="1" stop-color="#FAB44C"/>
</linearGradient>
<linearGradient id="paint36_linear_10157_37728" x1="216.786" y1="80.2485" x2="216.786" y2="88.8111" gradientUnits="userSpaceOnUse">
<stop stop-color="#E78639"/>
<stop offset="1" stop-color="#FAB44C"/>
</linearGradient>
<linearGradient id="paint37_linear_10157_37728" x1="216.786" y1="92.6411" x2="216.786" y2="101.204" gradientUnits="userSpaceOnUse">
<stop stop-color="#E78639"/>
<stop offset="1" stop-color="#FAB44C"/>
</linearGradient>
<linearGradient id="paint38_linear_10157_37728" x1="216.786" y1="105.034" x2="216.786" y2="113.596" gradientUnits="userSpaceOnUse">
<stop stop-color="#E78639"/>
<stop offset="1" stop-color="#FAB44C"/>
</linearGradient>
<linearGradient id="paint39_linear_10157_37728" x1="206.726" y1="80.2485" x2="206.726" y2="88.8111" gradientUnits="userSpaceOnUse">
<stop stop-color="#E78639"/>
<stop offset="1" stop-color="#FAB44C"/>
</linearGradient>
<linearGradient id="paint40_linear_10157_37728" x1="206.726" y1="92.6411" x2="206.726" y2="101.204" gradientUnits="userSpaceOnUse">
<stop stop-color="#E78639"/>
<stop offset="1" stop-color="#FAB44C"/>
</linearGradient>
<linearGradient id="paint41_linear_10157_37728" x1="206.726" y1="105.034" x2="206.726" y2="113.596" gradientUnits="userSpaceOnUse">
<stop stop-color="#E78639"/>
<stop offset="1" stop-color="#FAB44C"/>
</linearGradient>
<linearGradient id="paint42_linear_10157_37728" x1="184.065" y1="74.4072" x2="184.065" y2="117.615" gradientUnits="userSpaceOnUse">
<stop stop-color="#79404D"/>
<stop offset="1" stop-color="#F1923D"/>
</linearGradient>
<linearGradient id="paint43_linear_10157_37728" x1="184.064" y1="81.5469" x2="184.064" y2="113.595" gradientUnits="userSpaceOnUse">
<stop stop-color="#79404D"/>
<stop offset="1" stop-color="#F1923D"/>
</linearGradient>
<linearGradient id="paint44_linear_10157_37728" x1="120.382" y1="2.5299" x2="120.382" y2="117.616" gradientUnits="userSpaceOnUse">
<stop offset="0.0384615" stop-color="#301028"/>
<stop offset="0.456315" stop-color="#5D2961"/>
<stop offset="1" stop-color="#D18DFE"/>
</linearGradient>
<linearGradient id="paint45_linear_10157_37728" x1="162.882" y1="33.4121" x2="162.882" y2="117.616" gradientUnits="userSpaceOnUse">
<stop stop-color="#070004"/>
<stop offset="1" stop-color="#D18DFE"/>
</linearGradient>
<linearGradient id="paint46_linear_10157_37728" x1="78.9464" y1="33.4121" x2="78.9464" y2="117.616" gradientUnits="userSpaceOnUse">
<stop stop-color="#070004"/>
<stop offset="1" stop-color="#D18DFE"/>
</linearGradient>
<linearGradient id="paint47_linear_10157_37728" x1="120.382" y1="1.41064" x2="120.382" y2="117.616" gradientUnits="userSpaceOnUse">
<stop stop-color="#5D2961"/>
<stop offset="1" stop-color="#D18DFE"/>
</linearGradient>
<radialGradient id="paint48_radial_10157_37728" cx="0" cy="0" r="1" gradientTransform="matrix(19.034 87.0544 -53.7971 11.4827 101.348 30.5612)" gradientUnits="userSpaceOnUse">
<stop stop-color="#9CA7D0"/>
<stop offset="1" stop-color="#9CA7D0" stop-opacity="0"/>
</radialGradient>
<linearGradient id="paint49_linear_10157_37728" x1="145.155" y1="1.41064" x2="145.155" y2="117.614" gradientUnits="userSpaceOnUse">
<stop stop-color="#070004"/>
<stop offset="0.399038" stop-color="#8C5BA5"/>
<stop offset="1" stop-color="#D18DFE"/>
</linearGradient>
<linearGradient id="paint50_linear_10157_37728" x1="108.782" y1="1.41064" x2="108.782" y2="117.614" gradientUnits="userSpaceOnUse">
<stop stop-color="#070004"/>
<stop offset="0.399038" stop-color="#8C5BA5"/>
<stop offset="1" stop-color="#D18DFE"/>
</linearGradient>
<linearGradient id="paint51_linear_10157_37728" x1="132.546" y1="1.41064" x2="132.546" y2="117.614" gradientUnits="userSpaceOnUse">
<stop stop-color="#070004"/>
<stop offset="0.399038" stop-color="#8C5BA5"/>
<stop offset="1" stop-color="#D18DFE"/>
</linearGradient>
<linearGradient id="paint52_linear_10157_37728" x1="96.1728" y1="1.41064" x2="96.1728" y2="117.614" gradientUnits="userSpaceOnUse">
<stop stop-color="#070004"/>
<stop offset="0.399038" stop-color="#8C5BA5"/>
<stop offset="1" stop-color="#D18DFE"/>
</linearGradient>
<radialGradient id="paint53_radial_10157_37728" cx="0" cy="0" r="1" gradientUnits="userSpaceOnUse" gradientTransform="translate(119.856 107.213) scale(114.087 12.7525)">
<stop stop-color="#D17C41"/>
<stop offset="1" stop-color="#0D0003"/>
</radialGradient>
<radialGradient id="paint54_radial_10157_37728" cx="0" cy="0" r="1" gradientUnits="userSpaceOnUse" gradientTransform="translate(120 115.638) scale(110.769 108.482)">
<stop stop-color="#FFE56D"/>
<stop offset="1" stop-color="#FFBF8B" stop-opacity="0"/>
</radialGradient>
<linearGradient id="paint55_linear_10157_37728" x1="131.71" y1="121.545" x2="131.71" y2="105.475" gradientUnits="userSpaceOnUse">
<stop offset="0.0664122" stop-color="#86C56B"/>
<stop offset="0.552885" stop-color="#268776"/>
<stop offset="1" stop-color="#092E35"/>
</linearGradient>
<radialGradient id="paint56_radial_10157_37728" cx="0" cy="0" r="1" gradientUnits="userSpaceOnUse" gradientTransform="translate(116.853 119.686) scale(71.5014 23.1044)">
<stop offset="0.376623" stop-color="#031C24" stop-opacity="0"/>
<stop offset="0.841356" stop-color="#031C24"/>
</radialGradient>
<linearGradient id="paint57_linear_10157_37728" x1="132.271" y1="119.676" x2="132.271" y2="98.4704" gradientUnits="userSpaceOnUse">
<stop offset="0.0664122" stop-color="#86C56B"/>
<stop offset="0.552885" stop-color="#268776"/>
<stop offset="1" stop-color="#092E35"/>
</linearGradient>
<radialGradient id="paint58_radial_10157_37728" cx="0" cy="0" r="1" gradientUnits="userSpaceOnUse" gradientTransform="translate(117.571 117.222) scale(70.7453 30.4891)">
<stop offset="0.376623" stop-color="#031C24" stop-opacity="0"/>
<stop offset="0.841356" stop-color="#031C24"/>
</radialGradient>
<linearGradient id="paint59_linear_10157_37728" x1="130.962" y1="107.731" x2="130.962" y2="73.5645" gradientUnits="userSpaceOnUse">
<stop offset="0.0664122" stop-color="#86C56B"/>
<stop offset="0.552885" stop-color="#268776"/>
<stop offset="1" stop-color="#092E35"/>
</linearGradient>
<radialGradient id="paint60_radial_10157_37728" cx="0" cy="0" r="1" gradientUnits="userSpaceOnUse" gradientTransform="translate(117.116 103.778) scale(66.6346 49.1249)">
<stop offset="0.376623" stop-color="#031C24" stop-opacity="0"/>
<stop offset="0.841356" stop-color="#031C24"/>
</radialGradient>
<linearGradient id="paint61_linear_10157_37728" x1="129.055" y1="92.3285" x2="129.055" y2="61.5488" gradientUnits="userSpaceOnUse">
<stop offset="0.0664122" stop-color="#86C56B"/>
<stop offset="0.552885" stop-color="#268776"/>
<stop offset="1" stop-color="#092E35"/>
</linearGradient>
<radialGradient id="paint62_radial_10157_37728" cx="0" cy="0" r="1" gradientUnits="userSpaceOnUse" gradientTransform="translate(117.542 88.7673) scale(55.4085 44.2548)">
<stop offset="0.376623" stop-color="#031C24" stop-opacity="0"/>
<stop offset="0.841356" stop-color="#031C24"/>
</radialGradient>
<linearGradient id="paint63_linear_10157_37728" x1="128.398" y1="77.5656" x2="128.398" y2="47.1423" gradientUnits="userSpaceOnUse">
<stop offset="0.0664122" stop-color="#86C56B"/>
<stop offset="0.552885" stop-color="#268776"/>
<stop offset="1" stop-color="#092E35"/>
</linearGradient>
<radialGradient id="paint64_radial_10157_37728" cx="0" cy="0" r="1" gradientUnits="userSpaceOnUse" gradientTransform="translate(117.794 74.0456) scale(51.0329 43.7423)">
<stop offset="0.376623" stop-color="#031C24" stop-opacity="0"/>
<stop offset="0.841356" stop-color="#031C24"/>
</radialGradient>
<linearGradient id="paint65_linear_10157_37728" x1="127.485" y1="65.2066" x2="127.485" y2="31.8372" gradientUnits="userSpaceOnUse">
<stop offset="0.0664122" stop-color="#86C56B"/>
<stop offset="0.552885" stop-color="#268776"/>
<stop offset="1" stop-color="#092E35"/>
</linearGradient>
<radialGradient id="paint66_radial_10157_37728" cx="0" cy="0" r="1" gradientUnits="userSpaceOnUse" gradientTransform="translate(118.195 61.3456) scale(44.7088 47.9781)">
<stop offset="0.376623" stop-color="#031C24" stop-opacity="0"/>
<stop offset="0.841356" stop-color="#031C24"/>
</radialGradient>
<linearGradient id="paint67_linear_10157_37728" x1="126.985" y1="49.9695" x2="126.985" y2="22.6909" gradientUnits="userSpaceOnUse">
<stop offset="0.0664122" stop-color="#86C56B"/>
<stop offset="0.552885" stop-color="#268776"/>
<stop offset="1" stop-color="#092E35"/>
</linearGradient>
<radialGradient id="paint68_radial_10157_37728" cx="0" cy="0" r="1" gradientUnits="userSpaceOnUse" gradientTransform="translate(118.694 46.8133) scale(39.9022 39.2208)">
<stop offset="0.376623" stop-color="#031C24" stop-opacity="0"/>
<stop offset="0.841356" stop-color="#031C24"/>
</radialGradient>
<radialGradient id="paint69_radial_10157_37728" cx="0" cy="0" r="1" gradientUnits="userSpaceOnUse" gradientTransform="translate(127.599 71.2794) rotate(90) scale(6.52206)">
<stop stop-color="#40D7AA"/>
<stop offset="1" stop-color="#40D7AA" stop-opacity="0"/>
</radialGradient>
<radialGradient id="paint70_radial_10157_37728" cx="0" cy="0" r="1" gradientUnits="userSpaceOnUse" gradientTransform="translate(94.0001 79.0499) rotate(90) scale(6.52206)">
<stop stop-color="#40D7AA"/>
<stop offset="1" stop-color="#40D7AA" stop-opacity="0"/>
</radialGradient>
<radialGradient id="paint71_radial_10157_37728" cx="0" cy="0" r="1" gradientUnits="userSpaceOnUse" gradientTransform="translate(115.304 96.6392) rotate(90) scale(6.52206)">
<stop stop-color="#40D7AA"/>
<stop offset="1" stop-color="#40D7AA" stop-opacity="0"/>
</radialGradient>
<radialGradient id="paint72_radial_10157_37728" cx="0" cy="0" r="1" gradientUnits="userSpaceOnUse" gradientTransform="translate(113.135 81.7711) rotate(90) scale(6.73741)">
<stop stop-color="#FF8F2D"/>
<stop offset="1" stop-color="#FF8F2D" stop-opacity="0"/>
</radialGradient>
<radialGradient id="paint73_radial_10157_37728" cx="0" cy="0" r="1" gradientUnits="userSpaceOnUse" gradientTransform="translate(88.6603 109.899) rotate(90) scale(6.73741)">
<stop stop-color="#FF8F2D"/>
<stop offset="1" stop-color="#FF8F2D" stop-opacity="0"/>
</radialGradient>
<radialGradient id="paint74_radial_10157_37728" cx="0" cy="0" r="1" gradientUnits="userSpaceOnUse" gradientTransform="translate(110.214 35.4054) rotate(90) scale(6.73741)">
<stop stop-color="#FF8F2D"/>
<stop offset="1" stop-color="#FF8F2D" stop-opacity="0"/>
</radialGradient>
<radialGradient id="paint75_radial_10157_37728" cx="0" cy="0" r="1" gradientUnits="userSpaceOnUse" gradientTransform="translate(99.7175 94.1335) rotate(90) scale(6.57398)">
<stop stop-color="#FF78B0"/>
<stop offset="1" stop-color="#FF78B0" stop-opacity="0"/>
</radialGradient>
<radialGradient id="paint76_radial_10157_37728" cx="0" cy="0" r="1" gradientUnits="userSpaceOnUse" gradientTransform="translate(151.729 103.161) rotate(90) scale(6.57398)">
<stop stop-color="#FF78B0"/>
<stop offset="1" stop-color="#FF78B0" stop-opacity="0"/>
</radialGradient>
<radialGradient id="paint77_radial_10157_37728" cx="0" cy="0" r="1" gradientUnits="userSpaceOnUse" gradientTransform="translate(132.753 41.9802) rotate(90) scale(6.57398)">
<stop stop-color="#FF78B0"/>
<stop offset="1" stop-color="#FF78B0" stop-opacity="0"/>
</radialGradient>
<radialGradient id="paint78_radial_10157_37728" cx="0" cy="0" r="1" gradientUnits="userSpaceOnUse" gradientTransform="translate(140.498 93.6283) rotate(90) scale(6.72011)">
<stop stop-color="#FFEE2D"/>
<stop offset="1" stop-color="#FFEE2D" stop-opacity="0"/>
</radialGradient>
<radialGradient id="paint79_radial_10157_37728" cx="0" cy="0" r="1" gradientUnits="userSpaceOnUse" gradientTransform="translate(103.639 59.0487) rotate(90) scale(6.72011)">
<stop stop-color="#FFEE2D"/>
<stop offset="1" stop-color="#FFEE2D" stop-opacity="0"/>
</radialGradient>
<radialGradient id="paint80_radial_10157_37728" cx="0" cy="0" r="1" gradientUnits="userSpaceOnUse" gradientTransform="translate(120.88 51.4803) rotate(90) scale(6.47784)">
<stop stop-color="#2DC7FF"/>
<stop offset="1" stop-color="#2DC7FF" stop-opacity="0"/>
</radialGradient>
<radialGradient id="paint81_radial_10157_37728" cx="0" cy="0" r="1" gradientUnits="userSpaceOnUse" gradientTransform="translate(143.901 75.2938) rotate(90) scale(6.47784)">
<stop stop-color="#2DC7FF"/>
<stop offset="1" stop-color="#2DC7FF" stop-opacity="0"/>
</radialGradient>
<radialGradient id="paint82_radial_10157_37728" cx="0" cy="0" r="1" gradientUnits="userSpaceOnUse" gradientTransform="translate(130.518 110.732) rotate(90) scale(6.47784)">
<stop stop-color="#2DC7FF"/>
<stop offset="1" stop-color="#2DC7FF" stop-opacity="0"/>
</radialGradient>
<radialGradient id="paint83_radial_10157_37728" cx="0" cy="0" r="1" gradientUnits="userSpaceOnUse" gradientTransform="translate(120.499 13.5656) rotate(90) scale(17.442 20.1372)">
<stop offset="0.0384615" stop-color="#FFC83F"/>
<stop offset="0.395833" stop-color="#FFF6E0"/>
<stop offset="1" stop-color="#FFF7E0" stop-opacity="0"/>
</radialGradient>
<radialGradient id="paint84_radial_10157_37728" cx="0" cy="0" r="1" gradientUnits="userSpaceOnUse" gradientTransform="translate(76.18 15.6336) rotate(90) scale(2.86014 2.95585)">
<stop offset="0.505208" stop-color="#FFF6E0"/>
<stop offset="1" stop-color="#FFF7E0" stop-opacity="0"/>
</radialGradient>
<radialGradient id="paint85_radial_10157_37728" cx="0" cy="0" r="1" gradientUnits="userSpaceOnUse" gradientTransform="translate(69.4165 30.6722) rotate(90) scale(1.69763 1.75443)">
<stop offset="0.505208" stop-color="#FFF6E0"/>
<stop offset="1" stop-color="#FFF7E0" stop-opacity="0"/>
</radialGradient>
<radialGradient id="paint86_radial_10157_37728" cx="0" cy="0" r="1" gradientUnits="userSpaceOnUse" gradientTransform="translate(164.005 16.7967) rotate(90) scale(1.69763 1.75443)">
<stop offset="0.505208" stop-color="#FFF6E0"/>
<stop offset="1" stop-color="#FFF7E0" stop-opacity="0"/>
</radialGradient>
<radialGradient id="paint87_radial_10157_37728" cx="0" cy="0" r="1" gradientUnits="userSpaceOnUse" gradientTransform="translate(183.582 26.2063) rotate(90) scale(1.13938 1.17751)">
<stop offset="0.505208" stop-color="#FFF6E0"/>
<stop offset="1" stop-color="#FFF7E0" stop-opacity="0"/>
</radialGradient>
<radialGradient id="paint88_radial_10157_37728" cx="0" cy="0" r="1" gradientUnits="userSpaceOnUse" gradientTransform="translate(58.5061 23.3983) rotate(90) scale(5.27041 5.44677)">
<stop offset="0.395833" stop-color="#FFF6E0"/>
<stop offset="1" stop-color="#FFF7E0" stop-opacity="0"/>
</radialGradient>
<radialGradient id="paint89_radial_10157_37728" cx="0" cy="0" r="1" gradientUnits="userSpaceOnUse" gradientTransform="translate(171.76 31.0989) rotate(90) scale(3.75372)">
<stop offset="0.369792" stop-color="#FFF6E0"/>
<stop offset="1" stop-color="#FFF7E0" stop-opacity="0"/>
</radialGradient>
</defs>
</svg>
