<svg viewBox="0 0 240 120" fill="none" xmlns="http://www.w3.org/2000/svg">
<path d="M120 6.92334C2.30804 6.92334 4.61573 73.846 25.3848 96.9228L214.614 98.7779C242.306 69.2307 237.691 6.92334 120 6.92334Z" fill="url(#paint0_linear_10471_34722)"/>
<path d="M120 6.92334C2.30804 6.92334 4.61573 73.846 25.3848 96.9228L214.614 98.7779C242.306 69.2307 237.691 6.92334 120 6.92334Z" fill="url(#paint1_radial_10471_34722)"/>
<path d="M120.81 88.6969C162.109 88.7202 217.732 89.2891 225.21 93.3439C232.853 97.4897 218.865 97.1535 219.296 101.637C219.729 106.122 243.527 110.269 231.411 120H7.44492C-4.67012 110.269 19.1275 106.122 19.5602 101.637C19.991 97.1536 6.00312 97.4897 13.6468 93.3439C21.1249 89.2892 76.7472 88.7202 118.047 88.6969V88.6924H120.81V88.6969Z" fill="url(#paint2_linear_10471_34722)"/>
<path d="M120.81 88.6969C162.109 88.7202 217.732 89.2891 225.21 93.3439C232.853 97.4897 218.865 97.1535 219.296 101.637C219.729 106.122 243.527 110.269 231.411 120H7.44492C-4.67012 110.269 19.1275 106.122 19.5602 101.637C19.991 97.1536 6.00312 97.4897 13.6468 93.3439C21.1249 89.2892 76.7472 88.7202 118.047 88.6969V88.6924H120.81V88.6969Z" fill="url(#paint3_radial_10471_34722)"/>
<path d="M123.546 109.115H180.862V118.433H123.546V109.115Z" fill="url(#paint4_linear_10471_34722)"/>
<path d="M78.9023 97.4321H112.665V102.921H78.9023V97.4321Z" fill="url(#paint5_linear_10471_34722)"/>
<path d="M190.604 94.9487H218.653V99.509H190.604V94.9487Z" fill="url(#paint6_linear_10471_34722)"/>
<path d="M36.5527 94.5112H58.6059V97.8866H36.5527V94.5112Z" fill="url(#paint7_linear_10471_34722)"/>
<path d="M107.23 100.177L123.547 109.847L123.547 118.053L107.23 108.382L107.23 100.177Z" fill="url(#paint8_linear_10471_34722)"/>
<path d="M69.2947 93.8597L78.9057 97.8623L78.9055 102.696L69.2944 98.6934L69.2947 93.8597Z" fill="url(#paint9_linear_10471_34722)"/>
<path d="M178.182 90.4062L190.611 94.6149L190.61 99.3237L178.182 94.4218L178.182 90.4062Z" fill="url(#paint10_linear_10471_34722)"/>
<path d="M32.6004 92.4284L36.7061 94.6249L36.706 97.596L32.6003 95.3994L32.6004 92.4284Z" fill="url(#paint11_linear_10471_34722)"/>
<path d="M78.8311 24.0322H112.664V98.0758H78.8311V24.0322Z" fill="url(#paint12_radial_10471_34722)"/>
<path d="M36.5527 46.6001H58.6064V94.864H36.5527V46.6001Z" fill="url(#paint13_radial_10471_34722)"/>
<path d="M179.301 36.7522L190.594 33.4727V94.8657L179.301 91.7623V36.7522Z" fill="url(#paint14_radial_10471_34722)"/>
<path d="M179.301 36.7522L190.594 33.4727V94.8657L179.301 91.7623V36.7522Z" fill="url(#paint15_linear_10471_34722)"/>
<path d="M69.2845 38.7799L78.7507 24.0322V98.2775L69.2842 95.2151L69.2845 38.7799Z" fill="url(#paint16_radial_10471_34722)"/>
<path d="M69.2845 38.7799L78.7507 24.0322V98.2775L69.2842 95.2151L69.2845 38.7799Z" fill="url(#paint17_linear_10471_34722)"/>
<path d="M69.2845 38.7799L78.7507 24.0322V98.2775L69.2842 95.2151L69.2845 38.7799Z" fill="url(#paint18_linear_10471_34722)"/>
<path d="M32.5782 56.2131L36.4996 46.6001V94.9955L32.5781 92.9993L32.5782 56.2131Z" fill="url(#paint19_radial_10471_34722)"/>
<path d="M32.5782 56.2131L36.4996 46.6001V94.9955L32.5781 92.9993L32.5782 56.2131Z" fill="url(#paint20_linear_10471_34722)"/>
<path d="M32.5782 56.2131L36.4996 46.6001V94.9955L32.5781 92.9993L32.5782 56.2131Z" fill="url(#paint21_linear_10471_34722)"/>
<path d="M109.254 60.9547C106.718 62.7564 103.158 62.8418 99.2525 61.2161C92.2115 58.2852 85.3102 55.2557 78.7493 59.9766L78.7493 57.8672C86.2747 51.2123 94.4761 55.9795 100.596 57.2452C105.123 58.1812 107.762 55.4922 109.254 52.747L109.254 60.9547ZM109.254 70.2305C105.886 71.2318 101.913 70.9514 98.6981 69.0586C91.2613 64.6804 86.38 62.1776 78.7493 67.1791L78.7493 61.793C87.3718 55.5892 95.8641 62.9109 102.349 64.6326C105.077 65.3568 107.407 64.6468 109.254 63.3525L109.254 70.2305Z" fill="url(#paint22_radial_10471_34722)"/>
<path d="M58.6025 57.0258C56.7652 58.3351 54.1886 58.4081 51.355 57.2287C46.2524 55.1046 41.254 52.9103 36.4993 56.3317L36.4993 54.8038C41.9531 49.981 47.8938 53.4359 52.3285 54.353C55.6091 55.031 57.5213 53.0792 58.6025 51.0898L58.6025 57.0258ZM58.6025 63.7551C56.1623 64.4807 53.2837 64.2838 50.9538 62.9123C45.5643 59.7393 42.0292 57.9268 36.4993 61.5511L36.4993 57.6388C42.7467 53.1479 48.901 58.4604 53.5996 59.7076C55.5754 60.2316 57.2647 59.7167 58.6025 58.7792L58.6025 63.7551Z" fill="url(#paint23_radial_10471_34722)"/>
<path d="M123.547 11.1777H180.863V110.586H123.547V11.1777Z" fill="url(#paint24_radial_10471_34722)"/>
<path d="M123.547 11.1777H180.863V110.586H123.547V11.1777Z" fill="url(#paint25_radial_10471_34722)"/>
<path d="M78.7493 36.242C83.4684 39.004 85.8524 45.5552 92.7576 49.2543C98.7114 52.4434 105.069 51.4555 109.254 50.1287L109.254 45.5133C104.416 47.9261 98.3955 48.5144 93.2489 46.1849C86.2438 43.0127 84.1167 36.3159 78.7493 34.3986L78.7493 36.242ZM78.7493 33.0825C83.7504 35.1405 86.9549 41.533 94.1233 44.4361C99.9333 46.7884 105.518 45.2991 109.254 43.5797L109.254 38.6308C105.053 41.7016 99.3891 43.068 94.1233 41.3397C87.0729 39.0243 84.0768 32.639 78.7493 31.3788L78.7493 33.0825ZM92.699 35.7598C87.4259 33.3819 85.3909 28.1216 78.7493 29.0351L78.7493 30.2565C84.8883 30.4481 85.0199 35.4418 92.699 38.8607C99.7538 42.001 106.443 38.2952 109.254 36.3277L109.254 29.95C103.945 35.7071 97.816 38.0667 92.699 35.7598Z" fill="url(#paint26_radial_10471_34722)"/>
<path d="M78.7493 79.8509C83.4687 82.6125 85.8526 89.1638 92.7576 92.8631C98.711 96.052 105.069 95.0687 109.254 93.742L109.254 89.1222C104.416 91.5352 98.3957 92.1234 93.2489 89.7937C86.2441 86.6213 84.117 79.9244 78.7493 78.0075L78.7493 79.8509ZM78.7493 76.6914C83.7506 78.749 86.9551 85.1417 94.1233 88.045C99.9336 90.3974 105.518 88.908 109.254 87.1886L109.254 82.2397C105.053 85.3109 99.3895 86.677 94.1233 84.9485C87.0731 82.633 84.0769 76.2476 78.7493 74.9876L78.7493 76.6914ZM78.7493 72.6439L78.7493 73.8654C84.8882 74.0569 85.0205 79.0507 92.699 82.4696C99.7545 85.6102 106.443 81.9039 109.254 79.9365L109.254 73.5589C103.945 79.3166 97.8163 81.6757 92.699 79.3686C87.4264 76.9906 85.3905 71.7307 78.7493 72.6439Z" fill="url(#paint27_radial_10471_34722)"/>
<path d="M36.4993 75.1345C39.9197 77.1361 41.6497 81.883 46.654 84.5636C50.967 86.8729 55.5704 86.1601 58.6025 85.1991L58.6025 81.8502C55.0966 83.5996 50.7358 84.0258 47.0056 82.337C41.9323 80.0389 40.3846 75.2054 36.4993 73.8139L36.4993 75.1345ZM36.4993 72.8584C40.1206 74.3516 42.449 78.9677 47.6411 81.0705C51.8505 82.7747 55.895 81.6988 58.6025 80.453L58.6025 76.8698C55.5582 79.0931 51.456 80.0781 47.6411 78.8259C42.5343 77.149 40.3564 72.5448 36.4993 71.6279L36.4993 72.8584ZM36.4993 69.9107L36.4993 70.7986C40.9471 70.9377 41.0452 74.5501 46.6089 77.0275C51.7203 79.3027 56.5649 76.6232 58.6025 75.1976L58.6025 70.5778C54.7557 74.7482 50.3165 76.454 46.6089 74.783C42.788 73.0598 41.3114 69.2495 36.4993 69.9107Z" fill="url(#paint28_radial_10471_34722)"/>
<path d="M190.592 33.4727H218.656V94.9969H190.592V33.4727Z" fill="url(#paint29_radial_10471_34722)"/>
<path d="M107.209 24.6169L123.548 11.1777V110.586L107.208 100.811L107.209 24.6169Z" fill="url(#paint30_radial_10471_34722)"/>
<path d="M107.209 24.6169L123.548 11.1777V110.586L107.208 100.811L107.209 24.6169Z" fill="url(#paint31_linear_10471_34722)"/>
<path d="M123.546 27.9309C128.31 25.5335 135 25.416 142.341 27.5794C155.569 31.4778 168.537 35.5072 180.864 29.229V32.028C166.724 40.8806 151.315 34.5414 139.817 32.8573C131.331 31.615 126.355 35.1642 123.546 38.8068V27.9309ZM123.546 15.5903C129.872 14.259 137.337 14.628 143.378 17.1452C157.349 22.9686 166.529 26.3007 180.864 19.6512V26.8131C164.664 35.0624 148.706 25.3222 136.522 23.0316C131.402 22.0697 127.014 22.9994 123.546 24.7173V15.5903Z" fill="url(#paint32_radial_10471_34722)"/>
<path d="M190.591 82.3306C192.924 83.504 196.196 83.5701 199.79 82.5109C206.267 80.6021 212.617 78.63 218.653 81.7041L218.653 80.3385C211.729 76.001 204.186 79.1038 198.555 79.9283C194.396 80.5372 191.965 78.7888 190.591 77.0032L190.591 82.3306ZM190.591 88.3792C193.689 89.031 197.342 88.8543 200.299 87.622C207.141 84.7704 211.633 83.1398 218.653 86.3961L218.653 82.885C210.721 78.849 202.906 83.621 196.941 84.7419C194.434 85.2127 192.289 84.7503 190.591 83.9081L190.591 88.3792Z" fill="url(#paint33_radial_10471_34722)"/>
<path d="M190.591 69.5666C192.923 70.7401 196.193 70.8049 199.785 69.7469C206.264 67.8377 212.616 65.8679 218.653 68.9447L218.653 67.5654C211.729 63.2318 204.18 66.34 198.551 67.1643C194.392 67.7716 191.964 66.0207 190.591 64.2346L190.591 69.5666ZM190.591 75.6108C193.688 76.2624 197.342 76.0857 200.299 74.8536C207.139 72.0027 211.635 70.3767 218.653 73.6322L218.653 70.1165C210.721 66.0793 202.906 70.8523 196.941 71.9735C194.434 72.4442 192.289 71.9811 190.591 71.1397L190.591 75.6108Z" fill="url(#paint34_radial_10471_34722)"/>
<path d="M180.864 78.6424C171.993 83.8302 167.514 96.1417 154.537 103.093C143.352 109.085 131.408 107.232 123.546 104.739V96.0939C132.634 100.621 143.951 101.701 153.618 97.3243C166.781 91.3632 170.777 78.7859 180.864 75.1854V78.6424ZM180.864 72.711C171.468 76.5791 165.446 88.5888 151.977 94.0431C141.06 98.4633 130.567 95.6616 123.546 92.4296V83.154C131.439 88.9177 142.086 91.4671 151.977 88.22C165.224 83.8699 170.855 71.8713 180.864 69.5019V72.711ZM154.654 77.7364C164.561 73.2687 168.387 63.3707 180.864 65.085V67.3791C169.329 67.7389 169.082 77.1357 154.654 83.5596C141.399 89.4604 128.829 82.5057 123.546 78.8091V66.8337C133.521 77.6472 145.041 82.0703 154.654 77.7364Z" fill="url(#paint35_radial_10471_34722)"/>
<path d="M190.591 52.7324C194.931 50.1916 197.125 44.1688 203.477 40.7658C208.953 37.8324 214.802 38.7384 218.652 39.959L218.652 44.2048C214.201 41.9859 208.662 41.4479 203.927 43.5918C197.484 46.5102 195.527 52.6676 190.591 54.4316L190.591 52.7324ZM190.591 55.6395C195.191 53.7458 198.14 47.867 204.734 45.1964C210.079 43.0326 215.215 44.4025 218.652 45.9851L218.652 50.5329C214.787 47.7105 209.578 46.4592 204.734 48.0494C198.248 50.1794 195.492 56.0533 190.591 57.2125L190.591 55.6395ZM190.591 59.367L190.591 58.2447C196.235 58.0669 196.36 53.4748 203.423 50.3301C209.913 47.4408 216.066 50.846 218.652 52.6558L218.652 58.5241C213.768 53.2272 208.13 51.0563 203.423 53.1786C198.572 55.3657 196.698 60.2049 190.591 59.367Z" fill="url(#paint36_radial_10471_34722)"/>
<path d="M152.852 54.5366C142.711 54.7391 134.395 42.7734 123.442 41.7593V64.8806C133.246 66.6384 156.624 69.0992 171.714 64.8806C173.134 61.9735 175.121 54.334 171.714 47.0326C169.686 51.0889 162.993 54.334 152.852 54.5366Z" fill="url(#paint37_radial_10471_34722)"/>
<path d="M109.915 63.7895C109.362 60.8825 107.174 62.3479 108.5 55.0464C112.757 50.9741 118.744 42.9025 123.551 41.7593V64.8806C119.734 66.6384 115.789 68.0082 109.915 63.7895Z" fill="url(#paint38_radial_10471_34722)"/>
<path d="M109.915 63.7895C109.362 60.8825 107.174 62.3479 108.5 55.0464C112.757 50.9741 118.744 42.9025 123.551 41.7593V64.8806C119.734 66.6384 115.789 68.0082 109.915 63.7895Z" fill="url(#paint39_linear_10471_34722)"/>
<path d="M139.871 60.6281C136.22 58.397 127.702 58.1944 123.442 58.397V84.561C134.395 85.6427 158.571 87.1571 167.658 84.561L166.441 74.0145C167.928 71.0398 170.01 64.198 166.441 60.6281C162.587 62.8591 143.522 62.8592 139.871 60.6281Z" fill="url(#paint40_radial_10471_34722)"/>
<path d="M117.155 60.6281C118.576 58.397 121.892 58.1944 123.551 58.397V84.561C119.287 85.6427 114.224 78.7292 110.686 76.1331C111.008 68.9756 106.206 67.183 108.758 60.6281C110.258 62.8591 115.734 62.8592 117.155 60.6281Z" fill="url(#paint41_radial_10471_34722)"/>
<path d="M117.155 60.6281C118.576 58.397 121.892 58.1944 123.551 58.397V84.561C119.287 85.6427 114.224 78.7292 110.686 76.1331C111.008 68.9756 106.206 67.183 108.758 60.6281C110.258 62.8591 115.734 62.8592 117.155 60.6281Z" fill="url(#paint42_linear_10471_34722)"/>
<defs>
<linearGradient id="paint0_linear_10471_34722" x1="92.3073" y1="-9.23041" x2="138.461" y2="120" gradientUnits="userSpaceOnUse">
<stop stop-color="#31426B"/>
<stop offset="1" stop-color="#401E03"/>
</linearGradient>
<radialGradient id="paint1_radial_10471_34722" cx="0" cy="0" r="1" gradientUnits="userSpaceOnUse" gradientTransform="translate(47.3075 6.92334) rotate(-9.98183) scale(146.447 56.6921)">
<stop stop-color="#F7BE39"/>
<stop offset="0.5625" stop-color="#9E552B" stop-opacity="0"/>
</radialGradient>
<linearGradient id="paint2_linear_10471_34722" x1="129.578" y1="38.4367" x2="177.829" y2="170.832" gradientUnits="userSpaceOnUse">
<stop offset="0.0384615" stop-color="#ABCBC3"/>
<stop offset="1" stop-color="#F39543"/>
</linearGradient>
<radialGradient id="paint3_radial_10471_34722" cx="0" cy="0" r="1" gradientUnits="userSpaceOnUse" gradientTransform="translate(106.15 100.096) scale(124.038 46.0019)">
<stop stop-color="#7590A6" stop-opacity="0"/>
<stop offset="0.975" stop-color="#323646"/>
</radialGradient>
<linearGradient id="paint4_linear_10471_34722" x1="154.743" y1="109.115" x2="154.743" y2="117.548" gradientUnits="userSpaceOnUse">
<stop stop-color="#1B1A21"/>
<stop offset="1" stop-color="#1B1A21" stop-opacity="0"/>
</linearGradient>
<linearGradient id="paint5_linear_10471_34722" x1="97.2793" y1="97.4321" x2="97.2793" y2="102.921" gradientUnits="userSpaceOnUse">
<stop stop-color="#1B1A21"/>
<stop offset="1" stop-color="#1B1A21" stop-opacity="0"/>
</linearGradient>
<linearGradient id="paint6_linear_10471_34722" x1="205.871" y1="94.9487" x2="205.871" y2="99.509" gradientUnits="userSpaceOnUse">
<stop stop-color="#1B1A21"/>
<stop offset="1" stop-color="#1B1A21" stop-opacity="0"/>
</linearGradient>
<linearGradient id="paint7_linear_10471_34722" x1="48.5562" y1="94.5112" x2="48.5562" y2="97.8866" gradientUnits="userSpaceOnUse">
<stop stop-color="#1B1A21"/>
<stop offset="1" stop-color="#1B1A21" stop-opacity="0"/>
</linearGradient>
<linearGradient id="paint8_linear_10471_34722" x1="101.078" y1="96.5313" x2="97.6437" y2="103.269" gradientUnits="userSpaceOnUse">
<stop stop-color="#1B1A21"/>
<stop offset="1" stop-color="#1B1A21" stop-opacity="0"/>
</linearGradient>
<linearGradient id="paint9_linear_10471_34722" x1="73.0783" y1="94.69" x2="71.3791" y2="101.032" gradientUnits="userSpaceOnUse">
<stop offset="0.110577" stop-color="#1B1A21"/>
<stop offset="1" stop-color="#1B1A21" stop-opacity="0"/>
</linearGradient>
<linearGradient id="paint10_linear_10471_34722" x1="185.769" y1="92.6725" x2="184.357" y2="97.9408" gradientUnits="userSpaceOnUse">
<stop offset="0.110577" stop-color="#1B1A21"/>
<stop offset="1" stop-color="#1B1A21" stop-opacity="0"/>
</linearGradient>
<linearGradient id="paint11_linear_10471_34722" x1="33.1234" y1="92.6748" x2="32.0789" y2="96.5731" gradientUnits="userSpaceOnUse">
<stop offset="0.110577" stop-color="#1B1A21"/>
<stop offset="1" stop-color="#1B1A21" stop-opacity="0"/>
</linearGradient>
<radialGradient id="paint12_radial_10471_34722" cx="0" cy="0" r="1" gradientTransform="matrix(-15.0192 70.3843 -32.8746 -4.74693 110.767 27.6915)" gradientUnits="userSpaceOnUse">
<stop stop-color="#DFC752"/>
<stop offset="1" stop-color="#AB7A1C"/>
</radialGradient>
<radialGradient id="paint13_radial_10471_34722" cx="0" cy="0" r="1" gradientTransform="matrix(4.67708 40.5232 -18.5166 3.4027 42.9025 54.3408)" gradientUnits="userSpaceOnUse">
<stop stop-color="#F9F383"/>
<stop offset="1" stop-color="#AB7A1C"/>
</radialGradient>
<radialGradient id="paint14_radial_10471_34722" cx="0" cy="0" r="1" gradientTransform="matrix(2.39495 51.5467 -9.48165 4.32832 182.552 43.319)" gradientUnits="userSpaceOnUse">
<stop stop-color="#F9F383"/>
<stop offset="1" stop-color="#AB7A1C"/>
</radialGradient>
<linearGradient id="paint15_linear_10471_34722" x1="193.774" y1="46.1454" x2="122.307" y2="64.6158" gradientUnits="userSpaceOnUse">
<stop stop-color="#6B420C"/>
<stop offset="1" stop-color="#875819" stop-opacity="0"/>
</linearGradient>
<radialGradient id="paint16_radial_10471_34722" cx="0" cy="0" r="1" gradientTransform="matrix(2.00764 62.3377 -7.94829 5.23444 72.0098 35.9398)" gradientUnits="userSpaceOnUse">
<stop stop-color="#F9F383"/>
<stop offset="1" stop-color="#AB7A1C"/>
</radialGradient>
<linearGradient id="paint17_linear_10471_34722" x1="81.4171" y1="39.3579" x2="37.895" y2="49.5711" gradientUnits="userSpaceOnUse">
<stop stop-color="#875819"/>
<stop offset="1" stop-color="#875819" stop-opacity="0"/>
</linearGradient>
<linearGradient id="paint18_linear_10471_34722" x1="81.4171" y1="39.3579" x2="19.4932" y2="50.4514" gradientUnits="userSpaceOnUse">
<stop stop-color="#6B420C"/>
<stop offset="1" stop-color="#875819" stop-opacity="0"/>
</linearGradient>
<radialGradient id="paint19_radial_10471_34722" cx="0" cy="0" r="1" gradientTransform="matrix(0.831661 40.6336 -3.29256 3.41197 33.7072 54.3619)" gradientUnits="userSpaceOnUse">
<stop stop-color="#F9F383"/>
<stop offset="1" stop-color="#AB7A1C"/>
</radialGradient>
<linearGradient id="paint20_linear_10471_34722" x1="37.6042" y1="56.5898" x2="18.9963" y2="59.3649" gradientUnits="userSpaceOnUse">
<stop stop-color="#875819"/>
<stop offset="1" stop-color="#875819" stop-opacity="0"/>
</linearGradient>
<linearGradient id="paint21_linear_10471_34722" x1="37.6042" y1="56.5898" x2="11.4679" y2="59.5655" gradientUnits="userSpaceOnUse">
<stop stop-color="#6B420C"/>
<stop offset="1" stop-color="#875819" stop-opacity="0"/>
</linearGradient>
<radialGradient id="paint22_radial_10471_34722" cx="0" cy="0" r="1" gradientTransform="matrix(-6.52696 -17.7149 14.9703 -7.72356 102.433 66.25)" gradientUnits="userSpaceOnUse">
<stop offset="0.278846" stop-color="#94651C"/>
<stop offset="1" stop-color="#FFEA7E"/>
</radialGradient>
<radialGradient id="paint23_radial_10471_34722" cx="0" cy="0" r="1" gradientTransform="matrix(-4.72935 -12.835 10.8473 -5.59597 53.6599 60.8732)" gradientUnits="userSpaceOnUse">
<stop offset="0.278846" stop-color="#94651C"/>
<stop offset="1" stop-color="#FFEA7E"/>
</radialGradient>
<radialGradient id="paint24_radial_10471_34722" cx="0" cy="0" r="1" gradientTransform="matrix(12.1554 83.4645 -48.1235 7.00844 140.049 27.121)" gradientUnits="userSpaceOnUse">
<stop stop-color="#FBF8B4"/>
<stop offset="1" stop-color="#D79923"/>
</radialGradient>
<radialGradient id="paint25_radial_10471_34722" cx="0" cy="0" r="1" gradientUnits="userSpaceOnUse" gradientTransform="translate(149.451 58.8515) rotate(85.4667) scale(34.8434 34.8436)">
<stop offset="0.586538" stop-color="#D2881E"/>
<stop offset="0.836538" stop-color="#D2881E" stop-opacity="0"/>
</radialGradient>
<radialGradient id="paint26_radial_10471_34722" cx="0" cy="0" r="1" gradientTransform="matrix(13.459 19.8361 19.8449 -13.453 81.6253 27.2296)" gradientUnits="userSpaceOnUse">
<stop offset="0.278846" stop-color="#94651C"/>
<stop offset="1" stop-color="#F3DF79"/>
</radialGradient>
<radialGradient id="paint27_radial_10471_34722" cx="0" cy="0" r="1" gradientTransform="matrix(13.459 19.8379 19.8449 -13.4542 81.6253 70.8384)" gradientUnits="userSpaceOnUse">
<stop offset="0.278846" stop-color="#94651C"/>
<stop offset="1" stop-color="#F3DF79"/>
</radialGradient>
<radialGradient id="paint28_radial_10471_34722" cx="0" cy="0" r="1" gradientTransform="matrix(9.75221 14.3751 14.3794 -9.7493 38.5832 68.6025)" gradientUnits="userSpaceOnUse">
<stop offset="0.278846" stop-color="#94651C"/>
<stop offset="1" stop-color="#F3DF79"/>
</radialGradient>
<radialGradient id="paint29_radial_10471_34722" cx="0" cy="0" r="1" gradientTransform="matrix(5.95178 51.6569 -23.5632 4.33758 198.672 43.34)" gradientUnits="userSpaceOnUse">
<stop stop-color="#DFC752"/>
<stop offset="1" stop-color="#AB7A1C"/>
</radialGradient>
<radialGradient id="paint30_radial_10471_34722" cx="0" cy="0" r="1" gradientTransform="matrix(3.46533 83.4646 -13.7193 7.00844 111.913 27.121)" gradientUnits="userSpaceOnUse">
<stop stop-color="#FBF8B4"/>
<stop offset="1" stop-color="#D79923"/>
</radialGradient>
<linearGradient id="paint31_linear_10471_34722" x1="146.826" y1="28.269" x2="104.999" y2="31.6975" gradientUnits="userSpaceOnUse">
<stop stop-color="#B27421" stop-opacity="0"/>
<stop offset="1" stop-color="#995F11"/>
</linearGradient>
<radialGradient id="paint32_radial_10471_34722" cx="0" cy="0" r="1" gradientTransform="matrix(12.2641 23.5258 -28.1291 10.2571 136.363 20.8745)" gradientUnits="userSpaceOnUse">
<stop offset="0.278846" stop-color="#BF8224"/>
<stop offset="1" stop-color="#FFF2B1"/>
</radialGradient>
<radialGradient id="paint33_radial_10471_34722" cx="0" cy="0" r="1" gradientTransform="matrix(6.00426 -11.5285 -13.7715 -5.02636 196.866 85.7907)" gradientUnits="userSpaceOnUse">
<stop offset="0.278846" stop-color="#94651C"/>
<stop offset="1" stop-color="#FFEA7E"/>
</radialGradient>
<radialGradient id="paint34_radial_10471_34722" cx="0" cy="0" r="1" gradientTransform="matrix(6.00426 -11.5285 -13.7715 -5.02636 196.866 73.0221)" gradientUnits="userSpaceOnUse">
<stop offset="0.278846" stop-color="#94651C"/>
<stop offset="1" stop-color="#FFEA7E"/>
</radialGradient>
<radialGradient id="paint35_radial_10471_34722" cx="0" cy="0" r="1" gradientTransform="matrix(-25.2893 37.2865 -37.2884 -25.288 175.46 61.6921)" gradientUnits="userSpaceOnUse">
<stop offset="0.278846" stop-color="#BF8224"/>
<stop offset="1" stop-color="#F7EAA8"/>
</radialGradient>
<radialGradient id="paint36_radial_10471_34722" cx="0" cy="0" r="1" gradientTransform="matrix(12.3812 -18.249 18.2557 12.3766 193.236 61.0274)" gradientUnits="userSpaceOnUse">
<stop offset="0.278846" stop-color="#94651C"/>
<stop offset="1" stop-color="#F3DF79"/>
</radialGradient>
<radialGradient id="paint37_radial_10471_34722" cx="0" cy="0" r="1" gradientUnits="userSpaceOnUse" gradientTransform="translate(146.828 49.6147) rotate(2.77021) scale(35.8109 18.0173)">
<stop offset="0.306318" stop-color="#F1E9FA"/>
<stop offset="1" stop-color="#B6A8D3" stop-opacity="0"/>
</radialGradient>
<radialGradient id="paint38_radial_10471_34722" cx="0" cy="0" r="1" gradientTransform="matrix(-13.5441 3.51174 2.57289 21.85 118.848 47.5955)" gradientUnits="userSpaceOnUse">
<stop offset="0.306318" stop-color="#F1E9FA"/>
<stop offset="1" stop-color="#B6A8D3" stop-opacity="0"/>
</radialGradient>
<linearGradient id="paint39_linear_10471_34722" x1="128.43" y1="56.075" x2="104.515" y2="56.4607" gradientUnits="userSpaceOnUse">
<stop stop-color="#B27421"/>
<stop offset="1" stop-color="#B27421" stop-opacity="0"/>
</linearGradient>
<radialGradient id="paint40_radial_10471_34722" cx="0" cy="0" r="1" gradientUnits="userSpaceOnUse" gradientTransform="translate(137.886 55.3842) rotate(9.56328) scale(53.8246 39.1508)">
<stop offset="0.307946" stop-color="#726763"/>
<stop offset="1" stop-color="#9B9FA8" stop-opacity="0"/>
</radialGradient>
<radialGradient id="paint41_radial_10471_34722" cx="0" cy="0" r="1" gradientUnits="userSpaceOnUse" gradientTransform="translate(126.636 68.9418) rotate(-169.492) scale(26.874 30.1378)">
<stop offset="0.244355" stop-color="#726763"/>
<stop offset="1" stop-color="#9B9FA8" stop-opacity="0"/>
</radialGradient>
<linearGradient id="paint42_linear_10471_34722" x1="128.453" y1="73.5291" x2="104.424" y2="73.896" gradientUnits="userSpaceOnUse">
<stop stop-color="#B27421"/>
<stop offset="1" stop-color="#B27421" stop-opacity="0"/>
</linearGradient>
</defs>
</svg>
