<svg viewBox="0 0 240 120" fill="none" xmlns="http://www.w3.org/2000/svg">
<path d="M180.507 61.9388C190.38 61.9388 240 52.0002 240 52.0002V69.2761C240 69.2761 188.405 72.9448 180.507 72.9448C166.931 72.9448 144.716 54.6015 131.14 54.6015C117.564 54.6015 70.6659 68.0533 63.2609 68.0533C57.3369 68.0533 39.8118 57.0473 39.8118 57.0473C39.8118 57.0473 55.3623 62.1834 63.2609 63.1617C73.1343 64.3846 118.798 46.0413 131.14 46.0413C143.482 46.0413 168.798 61.9388 180.507 61.9388Z" fill="url(#paint0_linear_136_15667)"/>
<path d="M180.507 61.9388C190.38 61.9388 240 52.0002 240 52.0002V69.2761C240 69.2761 188.405 72.9448 180.507 72.9448C166.931 72.9448 144.716 54.6015 131.14 54.6015C117.564 54.6015 70.6659 68.0533 63.2609 68.0533C57.3369 68.0533 39.8118 57.0473 39.8118 57.0473C39.8118 57.0473 55.3623 62.1834 63.2609 63.1617C73.1343 64.3846 118.798 46.0413 131.14 46.0413C143.482 46.0413 168.798 61.9388 180.507 61.9388Z" fill="url(#paint1_radial_136_15667)"/>
<path d="M180.507 61.9388C190.38 61.9388 240 52.0002 240 52.0002V69.2761C240 69.2761 188.405 72.9448 180.507 72.9448C166.931 72.9448 144.716 54.6015 131.14 54.6015C117.564 54.6015 70.6659 68.0533 63.2609 68.0533C57.3369 68.0533 39.8118 57.0473 39.8118 57.0473C39.8118 57.0473 55.3623 62.1834 63.2609 63.1617C73.1343 64.3846 118.798 46.0413 131.14 46.0413C143.482 46.0413 168.798 61.9388 180.507 61.9388Z" fill="url(#paint2_radial_136_15667)"/>
<path d="M153.909 58.8191C136.412 62.1364 137.853 60.1301 131.273 58.5251C131.983 61.0356 133.632 64.4245 136.281 64.4214C141.647 64.4153 151.906 65.9128 158.86 66.0725L153.909 58.8191Z" fill="#8A5F4A"/>
<path d="M199.367 74.7645C205.561 74.5026 210.515 69.9567 211.647 64.1009C211.747 63.559 211.461 62.9839 210.958 62.7449C210.958 62.7449 209.032 61.7391 208.597 61.5193C208.38 61.4094 208.371 61.0847 208.554 60.9621C208.942 60.7231 210.816 59.509 210.816 59.509C211.293 59.2201 211.534 58.6182 211.386 58.0814C209.779 52.3572 204.453 48.2509 198.23 48.5295C196.45 48.6049 194.755 49.1749 193.174 50.049C194.391 48.702 195.305 47.1965 195.784 45.4712C197.445 39.4901 194.662 33.3646 189.436 30.5006C188.939 30.2386 188.317 30.3382 187.913 30.7216C187.913 30.7216 186.35 32.245 186.005 32.5952C185.832 32.7703 185.516 32.6578 185.469 32.4712C185.348 32.0163 184.807 29.859 184.807 29.859C184.659 29.3222 184.183 28.8928 183.639 28.8902C177.714 28.632 172.147 32.4379 170.486 38.419C170.006 40.1444 170.036 41.9118 170.36 43.687C169.457 42.1227 168.316 40.7897 166.829 39.8069C161.642 36.3588 154.96 37.1295 150.632 41.205C150.228 41.5884 150.131 42.2057 150.384 42.722C150.384 42.722 151.353 44.6761 151.579 45.1106C151.695 45.3164 151.491 45.6065 151.271 45.595C150.808 45.5656 148.593 45.4212 148.593 45.4212C148.032 45.3892 147.497 45.7113 147.304 46.2276C145.236 51.7984 147.136 58.2486 152.324 61.6967C153.833 62.6859 155.516 63.2277 157.341 63.4373C155.553 63.808 153.879 64.4827 152.477 65.6048C147.616 69.458 146.28 76.05 148.822 81.4394C149.052 81.9493 149.618 82.2305 150.188 82.141C150.188 82.141 152.334 81.8203 152.828 81.7346C153.061 81.7001 153.263 81.9545 153.183 82.1551C153.015 82.5794 152.191 84.6549 152.191 84.6549C151.998 85.1712 152.12 85.8 152.569 86.1476C157.247 89.8257 163.961 90.006 168.823 86.1528C170.225 85.0307 171.241 83.6032 172.019 81.9609C171.839 83.7693 171.967 85.5394 172.595 87.2008C174.773 93.0094 180.619 96.3181 186.523 95.5795C187.087 95.513 187.51 95.0606 187.617 94.4957C187.617 94.4957 187.969 92.3384 188.05 91.8656C188.091 91.6292 188.396 91.5154 188.577 91.6649C188.94 91.964 190.652 93.3813 190.652 93.3813C191.072 93.7456 191.725 93.8031 192.185 93.4848C197.142 90.1786 199.398 83.8423 197.22 78.0337C196.598 76.3493 195.505 74.9307 194.171 73.668C195.843 74.4297 197.564 74.8335 199.367 74.7645Z" fill="url(#paint3_radial_136_15667)"/>
<path d="M199.367 74.7645C205.561 74.5026 210.515 69.9567 211.647 64.1009C211.747 63.559 211.461 62.9839 210.958 62.7449C210.958 62.7449 209.032 61.7391 208.597 61.5193C208.38 61.4094 208.371 61.0847 208.554 60.9621C208.942 60.7231 210.816 59.509 210.816 59.509C211.293 59.2201 211.534 58.6182 211.386 58.0814C209.779 52.3572 204.453 48.2509 198.23 48.5295C196.45 48.6049 194.755 49.1749 193.174 50.049C194.391 48.702 195.305 47.1965 195.784 45.4712C197.445 39.4901 194.662 33.3646 189.436 30.5006C188.939 30.2386 188.317 30.3382 187.913 30.7216C187.913 30.7216 186.35 32.245 186.005 32.5952C185.832 32.7703 185.516 32.6578 185.469 32.4712C185.348 32.0163 184.807 29.859 184.807 29.859C184.659 29.3222 184.183 28.8928 183.639 28.8902C177.714 28.632 172.147 32.4379 170.486 38.419C170.006 40.1444 170.036 41.9118 170.36 43.687C169.457 42.1227 168.316 40.7897 166.829 39.8069C161.642 36.3588 154.96 37.1295 150.632 41.205C150.228 41.5884 150.131 42.2057 150.384 42.722C150.384 42.722 151.353 44.6761 151.579 45.1106C151.695 45.3164 151.491 45.6065 151.271 45.595C150.808 45.5656 148.593 45.4212 148.593 45.4212C148.032 45.3892 147.497 45.7113 147.304 46.2276C145.236 51.7984 147.136 58.2486 152.324 61.6967C153.833 62.6859 155.516 63.2277 157.341 63.4373C155.553 63.808 153.879 64.4827 152.477 65.6048C147.616 69.458 146.28 76.05 148.822 81.4394C149.052 81.9493 149.618 82.2305 150.188 82.141C150.188 82.141 152.334 81.8203 152.828 81.7346C153.061 81.7001 153.263 81.9545 153.183 82.1551C153.015 82.5794 152.191 84.6549 152.191 84.6549C151.998 85.1712 152.12 85.8 152.569 86.1476C157.247 89.8257 163.961 90.006 168.823 86.1528C170.225 85.0307 171.241 83.6032 172.019 81.9609C171.839 83.7693 171.967 85.5394 172.595 87.2008C174.773 93.0094 180.619 96.3181 186.523 95.5795C187.087 95.513 187.51 95.0606 187.617 94.4957C187.617 94.4957 187.969 92.3384 188.05 91.8656C188.091 91.6292 188.396 91.5154 188.577 91.6649C188.94 91.964 190.652 93.3813 190.652 93.3813C191.072 93.7456 191.725 93.8031 192.185 93.4848C197.142 90.1786 199.398 83.8423 197.22 78.0337C196.598 76.3493 195.505 74.9307 194.171 73.668C195.843 74.4297 197.564 74.8335 199.367 74.7645Z" fill="url(#paint4_radial_136_15667)"/>
<path d="M199.367 74.7645C205.561 74.5026 210.515 69.9567 211.647 64.1009C211.747 63.559 211.461 62.9839 210.958 62.7449C210.958 62.7449 209.032 61.7391 208.597 61.5193C208.38 61.4094 208.371 61.0847 208.554 60.9621C208.942 60.7231 210.816 59.509 210.816 59.509C211.293 59.2201 211.534 58.6182 211.386 58.0814C209.779 52.3572 204.453 48.2509 198.23 48.5295C196.45 48.6049 194.755 49.1749 193.174 50.049C194.391 48.702 195.305 47.1965 195.784 45.4712C197.445 39.4901 194.662 33.3646 189.436 30.5006C188.939 30.2386 188.317 30.3382 187.913 30.7216C187.913 30.7216 186.35 32.245 186.005 32.5952C185.832 32.7703 185.516 32.6578 185.469 32.4712C185.348 32.0163 184.807 29.859 184.807 29.859C184.659 29.3222 184.183 28.8928 183.639 28.8902C177.714 28.632 172.147 32.4379 170.486 38.419C170.006 40.1444 170.036 41.9118 170.36 43.687C169.457 42.1227 168.316 40.7897 166.829 39.8069C161.642 36.3588 154.96 37.1295 150.632 41.205C150.228 41.5884 150.131 42.2057 150.384 42.722C150.384 42.722 151.353 44.6761 151.579 45.1106C151.695 45.3164 151.491 45.6065 151.271 45.595C150.808 45.5656 148.593 45.4212 148.593 45.4212C148.032 45.3892 147.497 45.7113 147.304 46.2276C145.236 51.7984 147.136 58.2486 152.324 61.6967C153.833 62.6859 155.516 63.2277 157.341 63.4373C155.553 63.808 153.879 64.4827 152.477 65.6048C147.616 69.458 146.28 76.05 148.822 81.4394C149.052 81.9493 149.618 82.2305 150.188 82.141C150.188 82.141 152.334 81.8203 152.828 81.7346C153.061 81.7001 153.263 81.9545 153.183 82.1551C153.015 82.5794 152.191 84.6549 152.191 84.6549C151.998 85.1712 152.12 85.8 152.569 86.1476C157.247 89.8257 163.961 90.006 168.823 86.1528C170.225 85.0307 171.241 83.6032 172.019 81.9609C171.839 83.7693 171.967 85.5394 172.595 87.2008C174.773 93.0094 180.619 96.3181 186.523 95.5795C187.087 95.513 187.51 95.0606 187.617 94.4957C187.617 94.4957 187.969 92.3384 188.05 91.8656C188.091 91.6292 188.396 91.5154 188.577 91.6649C188.94 91.964 190.652 93.3813 190.652 93.3813C191.072 93.7456 191.725 93.8031 192.185 93.4848C197.142 90.1786 199.398 83.8423 197.22 78.0337C196.598 76.3493 195.505 74.9307 194.171 73.668C195.843 74.4297 197.564 74.8335 199.367 74.7645Z" fill="url(#paint5_radial_136_15667)"/>
<path d="M199.367 74.7645C205.561 74.5026 210.515 69.9567 211.647 64.1009C211.747 63.559 211.461 62.9839 210.958 62.7449C210.958 62.7449 209.032 61.7391 208.597 61.5193C208.38 61.4094 208.371 61.0847 208.554 60.9621C208.942 60.7231 210.816 59.509 210.816 59.509C211.293 59.2201 211.534 58.6182 211.386 58.0814C209.779 52.3572 204.453 48.2509 198.23 48.5295C196.45 48.6049 194.755 49.1749 193.174 50.049C194.391 48.702 195.305 47.1965 195.784 45.4712C197.445 39.4901 194.662 33.3646 189.436 30.5006C188.939 30.2386 188.317 30.3382 187.913 30.7216C187.913 30.7216 186.35 32.245 186.005 32.5952C185.832 32.7703 185.516 32.6578 185.469 32.4712C185.348 32.0163 184.807 29.859 184.807 29.859C184.659 29.3222 184.183 28.8928 183.639 28.8902C177.714 28.632 172.147 32.4379 170.486 38.419C170.006 40.1444 170.036 41.9118 170.36 43.687C169.457 42.1227 168.316 40.7897 166.829 39.8069C161.642 36.3588 154.96 37.1295 150.632 41.205C150.228 41.5884 150.131 42.2057 150.384 42.722C150.384 42.722 151.353 44.6761 151.579 45.1106C151.695 45.3164 151.491 45.6065 151.271 45.595C150.808 45.5656 148.593 45.4212 148.593 45.4212C148.032 45.3892 147.497 45.7113 147.304 46.2276C145.236 51.7984 147.136 58.2486 152.324 61.6967C153.833 62.6859 155.516 63.2277 157.341 63.4373C155.553 63.808 153.879 64.4827 152.477 65.6048C147.616 69.458 146.28 76.05 148.822 81.4394C149.052 81.9493 149.618 82.2305 150.188 82.141C150.188 82.141 152.334 81.8203 152.828 81.7346C153.061 81.7001 153.263 81.9545 153.183 82.1551C153.015 82.5794 152.191 84.6549 152.191 84.6549C151.998 85.1712 152.12 85.8 152.569 86.1476C157.247 89.8257 163.961 90.006 168.823 86.1528C170.225 85.0307 171.241 83.6032 172.019 81.9609C171.839 83.7693 171.967 85.5394 172.595 87.2008C174.773 93.0094 180.619 96.3181 186.523 95.5795C187.087 95.513 187.51 95.0606 187.617 94.4957C187.617 94.4957 187.969 92.3384 188.05 91.8656C188.091 91.6292 188.396 91.5154 188.577 91.6649C188.94 91.964 190.652 93.3813 190.652 93.3813C191.072 93.7456 191.725 93.8031 192.185 93.4848C197.142 90.1786 199.398 83.8423 197.22 78.0337C196.598 76.3493 195.505 74.9307 194.171 73.668C195.843 74.4297 197.564 74.8335 199.367 74.7645Z" fill="url(#paint6_radial_136_15667)"/>
<path d="M199.367 74.7645C205.561 74.5026 210.515 69.9567 211.647 64.1009C211.747 63.559 211.461 62.9839 210.958 62.7449C210.958 62.7449 209.032 61.7391 208.597 61.5193C208.38 61.4094 208.371 61.0847 208.554 60.9621C208.942 60.7231 210.816 59.509 210.816 59.509C211.293 59.2201 211.534 58.6182 211.386 58.0814C209.779 52.3572 204.453 48.2509 198.23 48.5295C196.45 48.6049 194.755 49.1749 193.174 50.049C194.391 48.702 195.305 47.1965 195.784 45.4712C197.445 39.4901 194.662 33.3646 189.436 30.5006C188.939 30.2386 188.317 30.3382 187.913 30.7216C187.913 30.7216 186.35 32.245 186.005 32.5952C185.832 32.7703 185.516 32.6578 185.469 32.4712C185.348 32.0163 184.807 29.859 184.807 29.859C184.659 29.3222 184.183 28.8928 183.639 28.8902C177.714 28.632 172.147 32.4379 170.486 38.419C170.006 40.1444 170.036 41.9118 170.36 43.687C169.457 42.1227 168.316 40.7897 166.829 39.8069C161.642 36.3588 154.96 37.1295 150.632 41.205C150.228 41.5884 150.131 42.2057 150.384 42.722C150.384 42.722 151.353 44.6761 151.579 45.1106C151.695 45.3164 151.491 45.6065 151.271 45.595C150.808 45.5656 148.593 45.4212 148.593 45.4212C148.032 45.3892 147.497 45.7113 147.304 46.2276C145.236 51.7984 147.136 58.2486 152.324 61.6967C153.833 62.6859 155.516 63.2277 157.341 63.4373C155.553 63.808 153.879 64.4827 152.477 65.6048C147.616 69.458 146.28 76.05 148.822 81.4394C149.052 81.9493 149.618 82.2305 150.188 82.141C150.188 82.141 152.334 81.8203 152.828 81.7346C153.061 81.7001 153.263 81.9545 153.183 82.1551C153.015 82.5794 152.191 84.6549 152.191 84.6549C151.998 85.1712 152.12 85.8 152.569 86.1476C157.247 89.8257 163.961 90.006 168.823 86.1528C170.225 85.0307 171.241 83.6032 172.019 81.9609C171.839 83.7693 171.967 85.5394 172.595 87.2008C174.773 93.0094 180.619 96.3181 186.523 95.5795C187.087 95.513 187.51 95.0606 187.617 94.4957C187.617 94.4957 187.969 92.3384 188.05 91.8656C188.091 91.6292 188.396 91.5154 188.577 91.6649C188.94 91.964 190.652 93.3813 190.652 93.3813C191.072 93.7456 191.725 93.8031 192.185 93.4848C197.142 90.1786 199.398 83.8423 197.22 78.0337C196.598 76.3493 195.505 74.9307 194.171 73.668C195.843 74.4297 197.564 74.8335 199.367 74.7645Z" fill="url(#paint7_radial_136_15667)"/>
<path d="M199.367 74.7645C205.561 74.5026 210.515 69.9567 211.647 64.1009C211.747 63.559 211.461 62.9839 210.958 62.7449C210.958 62.7449 209.032 61.7391 208.597 61.5193C208.38 61.4094 208.371 61.0847 208.554 60.9621C208.942 60.7231 210.816 59.509 210.816 59.509C211.293 59.2201 211.534 58.6182 211.386 58.0814C209.779 52.3572 204.453 48.2509 198.23 48.5295C196.45 48.6049 194.755 49.1749 193.174 50.049C194.391 48.702 195.305 47.1965 195.784 45.4712C197.445 39.4901 194.662 33.3646 189.436 30.5006C188.939 30.2386 188.317 30.3382 187.913 30.7216C187.913 30.7216 186.35 32.245 186.005 32.5952C185.832 32.7703 185.516 32.6578 185.469 32.4712C185.348 32.0163 184.807 29.859 184.807 29.859C184.659 29.3222 184.183 28.8928 183.639 28.8902C177.714 28.632 172.147 32.4379 170.486 38.419C170.006 40.1444 170.036 41.9118 170.36 43.687C169.457 42.1227 168.316 40.7897 166.829 39.8069C161.642 36.3588 154.96 37.1295 150.632 41.205C150.228 41.5884 150.131 42.2057 150.384 42.722C150.384 42.722 151.353 44.6761 151.579 45.1106C151.695 45.3164 151.491 45.6065 151.271 45.595C150.808 45.5656 148.593 45.4212 148.593 45.4212C148.032 45.3892 147.497 45.7113 147.304 46.2276C145.236 51.7984 147.136 58.2486 152.324 61.6967C153.833 62.6859 155.516 63.2277 157.341 63.4373C155.553 63.808 153.879 64.4827 152.477 65.6048C147.616 69.458 146.28 76.05 148.822 81.4394C149.052 81.9493 149.618 82.2305 150.188 82.141C150.188 82.141 152.334 81.8203 152.828 81.7346C153.061 81.7001 153.263 81.9545 153.183 82.1551C153.015 82.5794 152.191 84.6549 152.191 84.6549C151.998 85.1712 152.12 85.8 152.569 86.1476C157.247 89.8257 163.961 90.006 168.823 86.1528C170.225 85.0307 171.241 83.6032 172.019 81.9609C171.839 83.7693 171.967 85.5394 172.595 87.2008C174.773 93.0094 180.619 96.3181 186.523 95.5795C187.087 95.513 187.51 95.0606 187.617 94.4957C187.617 94.4957 187.969 92.3384 188.05 91.8656C188.091 91.6292 188.396 91.5154 188.577 91.6649C188.94 91.964 190.652 93.3813 190.652 93.3813C191.072 93.7456 191.725 93.8031 192.185 93.4848C197.142 90.1786 199.398 83.8423 197.22 78.0337C196.598 76.3493 195.505 74.9307 194.171 73.668C195.843 74.4297 197.564 74.8335 199.367 74.7645Z" fill="url(#paint8_radial_136_15667)"/>
<path d="M199.367 74.7645C205.561 74.5026 210.515 69.9567 211.647 64.1009C211.747 63.559 211.461 62.9839 210.958 62.7449C210.958 62.7449 209.032 61.7391 208.597 61.5193C208.38 61.4094 208.371 61.0847 208.554 60.9621C208.942 60.7231 210.816 59.509 210.816 59.509C211.293 59.2201 211.534 58.6182 211.386 58.0814C209.779 52.3572 204.453 48.2509 198.23 48.5295C196.45 48.6049 194.755 49.1749 193.174 50.049C194.391 48.702 195.305 47.1965 195.784 45.4712C197.445 39.4901 194.662 33.3646 189.436 30.5006C188.939 30.2386 188.317 30.3382 187.913 30.7216C187.913 30.7216 186.35 32.245 186.005 32.5952C185.832 32.7703 185.516 32.6578 185.469 32.4712C185.348 32.0163 184.807 29.859 184.807 29.859C184.659 29.3222 184.183 28.8928 183.639 28.8902C177.714 28.632 172.147 32.4379 170.486 38.419C170.006 40.1444 170.036 41.9118 170.36 43.687C169.457 42.1227 168.316 40.7897 166.829 39.8069C161.642 36.3588 154.96 37.1295 150.632 41.205C150.228 41.5884 150.131 42.2057 150.384 42.722C150.384 42.722 151.353 44.6761 151.579 45.1106C151.695 45.3164 151.491 45.6065 151.271 45.595C150.808 45.5656 148.593 45.4212 148.593 45.4212C148.032 45.3892 147.497 45.7113 147.304 46.2276C145.236 51.7984 147.136 58.2486 152.324 61.6967C153.833 62.6859 155.516 63.2277 157.341 63.4373C155.553 63.808 153.879 64.4827 152.477 65.6048C147.616 69.458 146.28 76.05 148.822 81.4394C149.052 81.9493 149.618 82.2305 150.188 82.141C150.188 82.141 152.334 81.8203 152.828 81.7346C153.061 81.7001 153.263 81.9545 153.183 82.1551C153.015 82.5794 152.191 84.6549 152.191 84.6549C151.998 85.1712 152.12 85.8 152.569 86.1476C157.247 89.8257 163.961 90.006 168.823 86.1528C170.225 85.0307 171.241 83.6032 172.019 81.9609C171.839 83.7693 171.967 85.5394 172.595 87.2008C174.773 93.0094 180.619 96.3181 186.523 95.5795C187.087 95.513 187.51 95.0606 187.617 94.4957C187.617 94.4957 187.969 92.3384 188.05 91.8656C188.091 91.6292 188.396 91.5154 188.577 91.6649C188.94 91.964 190.652 93.3813 190.652 93.3813C191.072 93.7456 191.725 93.8031 192.185 93.4848C197.142 90.1786 199.398 83.8423 197.22 78.0337C196.598 76.3493 195.505 74.9307 194.171 73.668C195.843 74.4297 197.564 74.8335 199.367 74.7645Z" fill="url(#paint9_radial_136_15667)"/>
<path d="M199.367 74.7645C205.561 74.5026 210.515 69.9567 211.647 64.1009C211.747 63.559 211.461 62.9839 210.958 62.7449C210.958 62.7449 209.032 61.7391 208.597 61.5193C208.38 61.4094 208.371 61.0847 208.554 60.9621C208.942 60.7231 210.816 59.509 210.816 59.509C211.293 59.2201 211.534 58.6182 211.386 58.0814C209.779 52.3572 204.453 48.2509 198.23 48.5295C196.45 48.6049 194.755 49.1749 193.174 50.049C194.391 48.702 195.305 47.1965 195.784 45.4712C197.445 39.4901 194.662 33.3646 189.436 30.5006C188.939 30.2386 188.317 30.3382 187.913 30.7216C187.913 30.7216 186.35 32.245 186.005 32.5952C185.832 32.7703 185.516 32.6578 185.469 32.4712C185.348 32.0163 184.807 29.859 184.807 29.859C184.659 29.3222 184.183 28.8928 183.639 28.8902C177.714 28.632 172.147 32.4379 170.486 38.419C170.006 40.1444 170.036 41.9118 170.36 43.687C169.457 42.1227 168.316 40.7897 166.829 39.8069C161.642 36.3588 154.96 37.1295 150.632 41.205C150.228 41.5884 150.131 42.2057 150.384 42.722C150.384 42.722 151.353 44.6761 151.579 45.1106C151.695 45.3164 151.491 45.6065 151.271 45.595C150.808 45.5656 148.593 45.4212 148.593 45.4212C148.032 45.3892 147.497 45.7113 147.304 46.2276C145.236 51.7984 147.136 58.2486 152.324 61.6967C153.833 62.6859 155.516 63.2277 157.341 63.4373C155.553 63.808 153.879 64.4827 152.477 65.6048C147.616 69.458 146.28 76.05 148.822 81.4394C149.052 81.9493 149.618 82.2305 150.188 82.141C150.188 82.141 152.334 81.8203 152.828 81.7346C153.061 81.7001 153.263 81.9545 153.183 82.1551C153.015 82.5794 152.191 84.6549 152.191 84.6549C151.998 85.1712 152.12 85.8 152.569 86.1476C157.247 89.8257 163.961 90.006 168.823 86.1528C170.225 85.0307 171.241 83.6032 172.019 81.9609C171.839 83.7693 171.967 85.5394 172.595 87.2008C174.773 93.0094 180.619 96.3181 186.523 95.5795C187.087 95.513 187.51 95.0606 187.617 94.4957C187.617 94.4957 187.969 92.3384 188.05 91.8656C188.091 91.6292 188.396 91.5154 188.577 91.6649C188.94 91.964 190.652 93.3813 190.652 93.3813C191.072 93.7456 191.725 93.8031 192.185 93.4848C197.142 90.1786 199.398 83.8423 197.22 78.0337C196.598 76.3493 195.505 74.9307 194.171 73.668C195.843 74.4297 197.564 74.8335 199.367 74.7645Z" fill="url(#paint10_radial_136_15667)"/>
<path d="M199.367 74.7645C205.561 74.5026 210.515 69.9567 211.647 64.1009C211.747 63.559 211.461 62.9839 210.958 62.7449C210.958 62.7449 209.032 61.7391 208.597 61.5193C208.38 61.4094 208.371 61.0847 208.554 60.9621C208.942 60.7231 210.816 59.509 210.816 59.509C211.293 59.2201 211.534 58.6182 211.386 58.0814C209.779 52.3572 204.453 48.2509 198.23 48.5295C196.45 48.6049 194.755 49.1749 193.174 50.049C194.391 48.702 195.305 47.1965 195.784 45.4712C197.445 39.4901 194.662 33.3646 189.436 30.5006C188.939 30.2386 188.317 30.3382 187.913 30.7216C187.913 30.7216 186.35 32.245 186.005 32.5952C185.832 32.7703 185.516 32.6578 185.469 32.4712C185.348 32.0163 184.807 29.859 184.807 29.859C184.659 29.3222 184.183 28.8928 183.639 28.8902C177.714 28.632 172.147 32.4379 170.486 38.419C170.006 40.1444 170.036 41.9118 170.36 43.687C169.457 42.1227 168.316 40.7897 166.829 39.8069C161.642 36.3588 154.96 37.1295 150.632 41.205C150.228 41.5884 150.131 42.2057 150.384 42.722C150.384 42.722 151.353 44.6761 151.579 45.1106C151.695 45.3164 151.491 45.6065 151.271 45.595C150.808 45.5656 148.593 45.4212 148.593 45.4212C148.032 45.3892 147.497 45.7113 147.304 46.2276C145.236 51.7984 147.136 58.2486 152.324 61.6967C153.833 62.6859 155.516 63.2277 157.341 63.4373C155.553 63.808 153.879 64.4827 152.477 65.6048C147.616 69.458 146.28 76.05 148.822 81.4394C149.052 81.9493 149.618 82.2305 150.188 82.141C150.188 82.141 152.334 81.8203 152.828 81.7346C153.061 81.7001 153.263 81.9545 153.183 82.1551C153.015 82.5794 152.191 84.6549 152.191 84.6549C151.998 85.1712 152.12 85.8 152.569 86.1476C157.247 89.8257 163.961 90.006 168.823 86.1528C170.225 85.0307 171.241 83.6032 172.019 81.9609C171.839 83.7693 171.967 85.5394 172.595 87.2008C174.773 93.0094 180.619 96.3181 186.523 95.5795C187.087 95.513 187.51 95.0606 187.617 94.4957C187.617 94.4957 187.969 92.3384 188.05 91.8656C188.091 91.6292 188.396 91.5154 188.577 91.6649C188.94 91.964 190.652 93.3813 190.652 93.3813C191.072 93.7456 191.725 93.8031 192.185 93.4848C197.142 90.1786 199.398 83.8423 197.22 78.0337C196.598 76.3493 195.505 74.9307 194.171 73.668C195.843 74.4297 197.564 74.8335 199.367 74.7645Z" fill="url(#paint11_radial_136_15667)"/>
<path d="M199.367 74.7645C205.561 74.5026 210.515 69.9567 211.647 64.1009C211.747 63.559 211.461 62.9839 210.958 62.7449C210.958 62.7449 209.032 61.7391 208.597 61.5193C208.38 61.4094 208.371 61.0847 208.554 60.9621C208.942 60.7231 210.816 59.509 210.816 59.509C211.293 59.2201 211.534 58.6182 211.386 58.0814C209.779 52.3572 204.453 48.2509 198.23 48.5295C196.45 48.6049 194.755 49.1749 193.174 50.049C194.391 48.702 195.305 47.1965 195.784 45.4712C197.445 39.4901 194.662 33.3646 189.436 30.5006C188.939 30.2386 188.317 30.3382 187.913 30.7216C187.913 30.7216 186.35 32.245 186.005 32.5952C185.832 32.7703 185.516 32.6578 185.469 32.4712C185.348 32.0163 184.807 29.859 184.807 29.859C184.659 29.3222 184.183 28.8928 183.639 28.8902C177.714 28.632 172.147 32.4379 170.486 38.419C170.006 40.1444 170.036 41.9118 170.36 43.687C169.457 42.1227 168.316 40.7897 166.829 39.8069C161.642 36.3588 154.96 37.1295 150.632 41.205C150.228 41.5884 150.131 42.2057 150.384 42.722C150.384 42.722 151.353 44.6761 151.579 45.1106C151.695 45.3164 151.491 45.6065 151.271 45.595C150.808 45.5656 148.593 45.4212 148.593 45.4212C148.032 45.3892 147.497 45.7113 147.304 46.2276C145.236 51.7984 147.136 58.2486 152.324 61.6967C153.833 62.6859 155.516 63.2277 157.341 63.4373C155.553 63.808 153.879 64.4827 152.477 65.6048C147.616 69.458 146.28 76.05 148.822 81.4394C149.052 81.9493 149.618 82.2305 150.188 82.141C150.188 82.141 152.334 81.8203 152.828 81.7346C153.061 81.7001 153.263 81.9545 153.183 82.1551C153.015 82.5794 152.191 84.6549 152.191 84.6549C151.998 85.1712 152.12 85.8 152.569 86.1476C157.247 89.8257 163.961 90.006 168.823 86.1528C170.225 85.0307 171.241 83.6032 172.019 81.9609C171.839 83.7693 171.967 85.5394 172.595 87.2008C174.773 93.0094 180.619 96.3181 186.523 95.5795C187.087 95.513 187.51 95.0606 187.617 94.4957C187.617 94.4957 187.969 92.3384 188.05 91.8656C188.091 91.6292 188.396 91.5154 188.577 91.6649C188.94 91.964 190.652 93.3813 190.652 93.3813C191.072 93.7456 191.725 93.8031 192.185 93.4848C197.142 90.1786 199.398 83.8423 197.22 78.0337C196.598 76.3493 195.505 74.9307 194.171 73.668C195.843 74.4297 197.564 74.8335 199.367 74.7645Z" fill="url(#paint12_radial_136_15667)"/>
<path d="M199.367 74.7645C205.561 74.5026 210.515 69.9567 211.647 64.1009C211.747 63.559 211.461 62.9839 210.958 62.7449C210.958 62.7449 209.032 61.7391 208.597 61.5193C208.38 61.4094 208.371 61.0847 208.554 60.9621C208.942 60.7231 210.816 59.509 210.816 59.509C211.293 59.2201 211.534 58.6182 211.386 58.0814C209.779 52.3572 204.453 48.2509 198.23 48.5295C196.45 48.6049 194.755 49.1749 193.174 50.049C194.391 48.702 195.305 47.1965 195.784 45.4712C197.445 39.4901 194.662 33.3646 189.436 30.5006C188.939 30.2386 188.317 30.3382 187.913 30.7216C187.913 30.7216 186.35 32.245 186.005 32.5952C185.832 32.7703 185.516 32.6578 185.469 32.4712C185.348 32.0163 184.807 29.859 184.807 29.859C184.659 29.3222 184.183 28.8928 183.639 28.8902C177.714 28.632 172.147 32.4379 170.486 38.419C170.006 40.1444 170.036 41.9118 170.36 43.687C169.457 42.1227 168.316 40.7897 166.829 39.8069C161.642 36.3588 154.96 37.1295 150.632 41.205C150.228 41.5884 150.131 42.2057 150.384 42.722C150.384 42.722 151.353 44.6761 151.579 45.1106C151.695 45.3164 151.491 45.6065 151.271 45.595C150.808 45.5656 148.593 45.4212 148.593 45.4212C148.032 45.3892 147.497 45.7113 147.304 46.2276C145.236 51.7984 147.136 58.2486 152.324 61.6967C153.833 62.6859 155.516 63.2277 157.341 63.4373C155.553 63.808 153.879 64.4827 152.477 65.6048C147.616 69.458 146.28 76.05 148.822 81.4394C149.052 81.9493 149.618 82.2305 150.188 82.141C150.188 82.141 152.334 81.8203 152.828 81.7346C153.061 81.7001 153.263 81.9545 153.183 82.1551C153.015 82.5794 152.191 84.6549 152.191 84.6549C151.998 85.1712 152.12 85.8 152.569 86.1476C157.247 89.8257 163.961 90.006 168.823 86.1528C170.225 85.0307 171.241 83.6032 172.019 81.9609C171.839 83.7693 171.967 85.5394 172.595 87.2008C174.773 93.0094 180.619 96.3181 186.523 95.5795C187.087 95.513 187.51 95.0606 187.617 94.4957C187.617 94.4957 187.969 92.3384 188.05 91.8656C188.091 91.6292 188.396 91.5154 188.577 91.6649C188.94 91.964 190.652 93.3813 190.652 93.3813C191.072 93.7456 191.725 93.8031 192.185 93.4848C197.142 90.1786 199.398 83.8423 197.22 78.0337C196.598 76.3493 195.505 74.9307 194.171 73.668C195.843 74.4297 197.564 74.8335 199.367 74.7645Z" fill="url(#paint13_radial_136_15667)"/>
<path fill-rule="evenodd" clip-rule="evenodd" d="M176.627 61.4125L179.548 50.8995L181.609 51.4722L178.689 61.9851L176.627 61.4125Z" fill="#EDD1F8"/>
<path fill-rule="evenodd" clip-rule="evenodd" d="M177.612 60.6299L188.497 60.1597L188.589 62.2974L177.704 62.7677L177.612 60.6299Z" fill="#F0D6F8"/>
<path fill-rule="evenodd" clip-rule="evenodd" d="M178.661 61.3261L182.462 71.5502L180.457 72.2958L176.656 62.0716L178.661 61.3261Z" fill="#E8C7F7"/>
<path fill-rule="evenodd" clip-rule="evenodd" d="M178.324 62.537L169.771 69.3296L168.441 67.6541L176.993 60.8615L178.324 62.537Z" fill="#E5C1F6"/>
<path fill-rule="evenodd" clip-rule="evenodd" d="M177.067 62.5907L167.961 56.5674L169.142 54.7827L178.247 60.806L177.067 62.5907Z" fill="#E5C1F6"/>
<path d="M179.942 53.4856C181.212 53.8385 182.528 53.0947 182.881 51.8242C183.234 50.5537 182.49 49.2377 181.22 48.8848C179.949 48.5318 178.633 49.2757 178.28 50.5462C177.927 51.8167 178.671 53.1327 179.942 53.4856Z" fill="url(#paint14_radial_136_15667)"/>
<path d="M187.906 63.5291C189.176 63.882 190.492 63.1381 190.845 61.8677C191.198 60.5972 190.454 59.2811 189.184 58.9282C187.914 58.5753 186.597 59.3191 186.245 60.5896C185.892 61.8601 186.635 63.1761 187.906 63.5291Z" fill="url(#paint15_radial_136_15667)"/>
<path d="M180.82 74.2229C182.091 74.5758 183.407 73.832 183.76 72.5615C184.113 71.291 183.369 69.975 182.098 69.6221C180.828 69.2692 179.512 70.013 179.159 71.2835C178.806 72.554 179.55 73.87 180.82 74.2229Z" fill="url(#paint16_radial_136_15667)"/>
<path d="M168.469 70.7915C169.739 71.1444 171.055 70.4006 171.408 69.1301C171.761 67.8596 171.017 66.5436 169.747 66.1907C168.476 65.8378 167.16 66.5816 166.807 67.8521C166.454 69.1226 167.198 70.4386 168.469 70.7915Z" fill="url(#paint17_radial_136_15667)"/>
<path d="M167.914 57.9763C169.185 58.3292 170.501 57.5854 170.854 56.3149C171.207 55.0444 170.463 53.7284 169.192 53.3755C167.922 53.0226 166.606 53.7664 166.253 55.0369C165.9 56.3074 166.644 57.6234 167.914 57.9763Z" fill="url(#paint18_radial_136_15667)"/>
<path d="M176.083 67.3802C179.221 68.2519 182.471 66.4146 183.343 63.2765C184.215 60.1384 182.377 56.8878 179.239 56.0161C176.101 55.1444 172.851 56.9816 171.979 60.1197C171.107 63.2579 172.944 66.5084 176.083 67.3802Z" fill="url(#paint19_radial_136_15667)"/>
<path d="M127.783 46.3474C109.975 46.3474 104.141 42.8825 97.9755 40.0801C98.2048 42.6787 99.1937 46.3155 101.797 46.806C107.071 47.7996 112.115 49.8632 118.917 51.3154L127.783 46.3474Z" fill="#C5886A"/>
<path d="M127.783 46.3474C109.975 46.3474 104.141 42.8825 97.9755 40.0801C98.2048 42.6787 99.1937 46.3155 101.797 46.806C107.071 47.7996 112.115 49.8632 118.917 51.3154L127.783 46.3474Z" fill="url(#paint20_radial_136_15667)"/>
<path d="M99.0311 49.1279C84.9687 28.4196 65.3764 35.0572 65.3767 50.0123C65.377 64.7287 93.9906 61.316 99.2078 50.9748C99.5053 50.3852 99.4021 49.6742 99.0311 49.1279Z" fill="url(#paint21_radial_136_15667)"/>
<path d="M99.0311 49.1279C84.9687 28.4196 65.3764 35.0572 65.3767 50.0123C65.377 64.7287 93.9906 61.316 99.2078 50.9748C99.5053 50.3852 99.4021 49.6742 99.0311 49.1279Z" fill="url(#paint22_radial_136_15667)"/>
<path d="M99.0311 49.1279C84.9687 28.4196 65.3764 35.0572 65.3767 50.0123C65.377 64.7287 93.9906 61.316 99.2078 50.9748C99.5053 50.3852 99.4021 49.6742 99.0311 49.1279Z" fill="url(#paint23_radial_136_15667)"/>
<path d="M75.1615 28.9952C81.5119 31.6521 98.1894 39.1321 100.58 45.3383C100.818 45.9545 100.553 46.6342 100.077 47.0918C82.2593 64.219 73.9195 47.7908 72.7137 41.7618C71.9385 37.8862 72.1461 33.3947 72.4021 30.6252C72.5274 29.2688 73.9048 28.4695 75.1615 28.9952Z" fill="url(#paint24_radial_136_15667)"/>
<path d="M75.1615 28.9952C81.5119 31.6521 98.1894 39.1321 100.58 45.3383C100.818 45.9545 100.553 46.6342 100.077 47.0918C82.2593 64.219 73.9195 47.7908 72.7137 41.7618C71.9385 37.8862 72.1461 33.3947 72.4021 30.6252C72.5274 29.2688 73.9048 28.4695 75.1615 28.9952Z" fill="url(#paint25_radial_136_15667)"/>
<path d="M75.1615 28.9952C81.5119 31.6521 98.1894 39.1321 100.58 45.3383C100.818 45.9545 100.553 46.6342 100.077 47.0918C82.2593 64.219 73.9195 47.7908 72.7137 41.7618C71.9385 37.8862 72.1461 33.3947 72.4021 30.6252C72.5274 29.2688 73.9048 28.4695 75.1615 28.9952Z" fill="url(#paint26_radial_136_15667)"/>
<path d="M92.119 72.1432C96.8977 63.7981 102.83 50.7675 100.233 44.551C99.9786 43.9417 99.344 43.5879 98.6852 43.5437C73.9988 41.887 77.1117 61.4256 80.0561 66.8232C81.9387 70.2743 84.8177 71.4898 87.0435 72.8185C88.5459 73.7154 91.2495 73.6617 92.119 72.1432Z" fill="url(#paint27_radial_136_15667)"/>
<path d="M92.119 72.1432C96.8977 63.7981 102.83 50.7675 100.233 44.551C99.9786 43.9417 99.344 43.5879 98.6852 43.5437C73.9988 41.887 77.1117 61.4256 80.0561 66.8232C81.9387 70.2743 84.8177 71.4898 87.0435 72.8185C88.5459 73.7154 91.2495 73.6617 92.119 72.1432Z" fill="url(#paint28_radial_136_15667)"/>
<path d="M94.6484 37.783C97.5833 38.7613 102.904 42.7255 102.904 44.3561C103.311 45.9866 101.65 52.7329 99.6934 55.6678C99.2249 56.3705 97.8976 59.035 97.8976 51.6977C97.8976 46.9323 92.1157 50.732 91.6309 48.7933C91.2471 47.2587 95.1837 45.9545 93.4646 42.2203C90.6434 36.0922 92.1307 36.9438 94.6484 37.783Z" fill="#926B62"/>
<path d="M50.1401 60.5702C32.6683 42.9691 18.09 60.75 20.7539 65.6074C23.3731 70.3832 47.5449 72.7827 50.6525 62.3586C50.8411 61.7258 50.6053 61.0388 50.1401 60.5702Z" fill="url(#paint29_radial_136_15667)"/>
<path d="M50.1401 60.5702C32.6683 42.9691 18.09 60.75 20.7539 65.6074C23.3731 70.3832 47.5449 72.7827 50.6525 62.3586C50.8411 61.7258 50.6053 61.0388 50.1401 60.5702Z" fill="url(#paint30_radial_136_15667)"/>
<path d="M50.1401 60.5702C32.6683 42.9691 18.09 60.75 20.7539 65.6074C23.3731 70.3832 47.5449 72.7827 50.6525 62.3586C50.8411 61.7258 50.6053 61.0388 50.1401 60.5702Z" fill="url(#paint31_radial_136_15667)"/>
<path d="M50.9797 63.8566C41.0493 86.5821 21.0306 75.2711 21.7591 69.7793C22.4754 64.3797 44.1466 53.4072 50.8111 62.0038C51.2157 62.5257 51.2441 63.2515 50.9797 63.8566Z" fill="url(#paint32_radial_136_15667)"/>
<path d="M50.9797 63.8566C41.0493 86.5821 21.0306 75.2711 21.7591 69.7793C22.4754 64.3797 44.1466 53.4072 50.8111 62.0038C51.2157 62.5257 51.2441 63.2515 50.9797 63.8566Z" fill="url(#paint33_radial_136_15667)"/>
<path d="M43.8746 54.6368C46.6848 55.9305 51.3605 58.9178 51.3605 62.074C51.3605 64.5755 48.1917 69.7448 45.9255 72.4479C45.3829 73.0951 42.2121 74.9319 45.5809 68.8235C47.8823 64.6506 42.4819 67.7403 42.2122 65.7602C41.9988 64.1928 45.5807 62.074 42.2121 58.9178C36.9059 52.767 41.4639 53.5269 43.8746 54.6368Z" fill="#926B62"/>
<path d="M144.739 71.7671C148.101 70.379 149.919 66.8779 149.367 63.4226C149.314 63.1036 149.04 62.844 148.715 62.8134C148.715 62.8134 147.451 62.6457 147.167 62.6118C147.026 62.5948 146.956 62.4177 147.032 62.3133C147.198 62.1036 147.987 61.058 147.987 61.058C148.192 60.8031 148.204 60.4227 148.014 60.1566C145.979 57.3236 142.218 56.1296 138.844 57.5327C137.877 57.9318 137.058 58.5863 136.362 59.3857C136.762 58.3988 136.963 57.3854 136.881 56.338C136.596 52.7071 133.831 49.8892 130.375 49.3598C130.049 49.3152 129.726 49.4951 129.58 49.7876C129.58 49.7876 129.024 50.9413 128.904 51.2036C128.844 51.3348 128.648 51.3362 128.584 51.2428C128.426 51.0164 127.695 49.9357 127.695 49.9357C127.505 49.6695 127.157 49.5283 126.856 49.6362C123.538 50.6837 121.233 53.8997 121.519 57.5306C121.601 58.578 121.972 59.5464 122.507 60.4598C121.695 59.7789 120.798 59.2733 119.782 59.03C116.23 58.1708 112.701 59.9374 111.133 63.0534C110.987 63.3459 111.058 63.7057 111.301 63.9395C111.301 63.9395 112.228 64.8222 112.439 65.0163C112.545 65.1064 112.49 65.3074 112.367 65.3452C112.106 65.4219 110.856 65.787 110.856 65.787C110.54 65.8821 110.31 66.1672 110.307 66.4906C110.286 69.9769 112.629 73.1511 116.181 74.0102C117.212 74.2524 118.248 74.2131 119.297 73.9622C118.385 74.5255 117.598 75.2337 117.05 76.1339C115.144 79.2343 115.732 83.1365 118.215 85.5971C118.444 85.832 118.813 85.8733 119.109 85.7095C119.109 85.7095 120.228 85.1018 120.483 84.9553C120.604 84.8895 120.767 84.9892 120.763 85.116C120.756 85.3835 120.718 86.6932 120.718 86.6932C120.715 87.0166 120.909 87.3386 121.226 87.4401C124.544 88.5285 128.281 87.2794 130.188 84.179C130.735 83.2788 131.009 82.2878 131.108 81.2262C131.372 82.2593 131.798 83.2094 132.478 83.9991C134.845 86.7639 138.732 87.414 141.838 85.8211C142.136 85.6713 142.278 85.337 142.224 85.004C142.224 85.004 141.984 83.7442 141.935 83.4671C141.91 83.3285 142.054 83.2047 142.185 83.2507C142.445 83.3427 143.673 83.7801 143.673 83.7801C143.978 83.8967 144.349 83.7973 144.539 83.5295C146.608 80.7113 146.579 76.7652 144.212 74.0004C143.531 73.1968 142.643 72.6342 141.654 72.2061C142.729 72.2903 143.759 72.1672 144.739 71.7671Z" fill="url(#paint34_radial_136_15667)"/>
<path d="M144.739 71.7671C148.101 70.379 149.919 66.8779 149.367 63.4226C149.314 63.1036 149.04 62.844 148.715 62.8134C148.715 62.8134 147.451 62.6457 147.167 62.6118C147.026 62.5948 146.956 62.4177 147.032 62.3133C147.198 62.1036 147.987 61.058 147.987 61.058C148.192 60.8031 148.204 60.4227 148.014 60.1566C145.979 57.3236 142.218 56.1296 138.844 57.5327C137.877 57.9318 137.058 58.5863 136.362 59.3857C136.762 58.3988 136.963 57.3854 136.881 56.338C136.596 52.7071 133.831 49.8892 130.375 49.3598C130.049 49.3152 129.726 49.4951 129.58 49.7876C129.58 49.7876 129.024 50.9413 128.904 51.2036C128.844 51.3348 128.648 51.3362 128.584 51.2428C128.426 51.0164 127.695 49.9357 127.695 49.9357C127.505 49.6695 127.157 49.5283 126.856 49.6362C123.538 50.6837 121.233 53.8997 121.519 57.5306C121.601 58.578 121.972 59.5464 122.507 60.4598C121.695 59.7789 120.798 59.2733 119.782 59.03C116.23 58.1708 112.701 59.9374 111.133 63.0534C110.987 63.3459 111.058 63.7057 111.301 63.9395C111.301 63.9395 112.228 64.8222 112.439 65.0163C112.545 65.1064 112.49 65.3074 112.367 65.3452C112.106 65.4219 110.856 65.787 110.856 65.787C110.54 65.8821 110.31 66.1672 110.307 66.4906C110.286 69.9769 112.629 73.1511 116.181 74.0102C117.212 74.2524 118.248 74.2131 119.297 73.9622C118.385 74.5255 117.598 75.2337 117.05 76.1339C115.144 79.2343 115.732 83.1365 118.215 85.5971C118.444 85.832 118.813 85.8733 119.109 85.7095C119.109 85.7095 120.228 85.1018 120.483 84.9553C120.604 84.8895 120.767 84.9892 120.763 85.116C120.756 85.3835 120.718 86.6932 120.718 86.6932C120.715 87.0166 120.909 87.3386 121.226 87.4401C124.544 88.5285 128.281 87.2794 130.188 84.179C130.735 83.2788 131.009 82.2878 131.108 81.2262C131.372 82.2593 131.798 83.2094 132.478 83.9991C134.845 86.7639 138.732 87.414 141.838 85.8211C142.136 85.6713 142.278 85.337 142.224 85.004C142.224 85.004 141.984 83.7442 141.935 83.4671C141.91 83.3285 142.054 83.2047 142.185 83.2507C142.445 83.3427 143.673 83.7801 143.673 83.7801C143.978 83.8967 144.349 83.7973 144.539 83.5295C146.608 80.7113 146.579 76.7652 144.212 74.0004C143.531 73.1968 142.643 72.6342 141.654 72.2061C142.729 72.2903 143.759 72.1672 144.739 71.7671Z" fill="url(#paint35_radial_136_15667)"/>
<path d="M144.739 71.7671C148.101 70.379 149.919 66.8779 149.367 63.4226C149.314 63.1036 149.04 62.844 148.715 62.8134C148.715 62.8134 147.451 62.6457 147.167 62.6118C147.026 62.5948 146.956 62.4177 147.032 62.3133C147.198 62.1036 147.987 61.058 147.987 61.058C148.192 60.8031 148.204 60.4227 148.014 60.1566C145.979 57.3236 142.218 56.1296 138.844 57.5327C137.877 57.9318 137.058 58.5863 136.362 59.3857C136.762 58.3988 136.963 57.3854 136.881 56.338C136.596 52.7071 133.831 49.8892 130.375 49.3598C130.049 49.3152 129.726 49.4951 129.58 49.7876C129.58 49.7876 129.024 50.9413 128.904 51.2036C128.844 51.3348 128.648 51.3362 128.584 51.2428C128.426 51.0164 127.695 49.9357 127.695 49.9357C127.505 49.6695 127.157 49.5283 126.856 49.6362C123.538 50.6837 121.233 53.8997 121.519 57.5306C121.601 58.578 121.972 59.5464 122.507 60.4598C121.695 59.7789 120.798 59.2733 119.782 59.03C116.23 58.1708 112.701 59.9374 111.133 63.0534C110.987 63.3459 111.058 63.7057 111.301 63.9395C111.301 63.9395 112.228 64.8222 112.439 65.0163C112.545 65.1064 112.49 65.3074 112.367 65.3452C112.106 65.4219 110.856 65.787 110.856 65.787C110.54 65.8821 110.31 66.1672 110.307 66.4906C110.286 69.9769 112.629 73.1511 116.181 74.0102C117.212 74.2524 118.248 74.2131 119.297 73.9622C118.385 74.5255 117.598 75.2337 117.05 76.1339C115.144 79.2343 115.732 83.1365 118.215 85.5971C118.444 85.832 118.813 85.8733 119.109 85.7095C119.109 85.7095 120.228 85.1018 120.483 84.9553C120.604 84.8895 120.767 84.9892 120.763 85.116C120.756 85.3835 120.718 86.6932 120.718 86.6932C120.715 87.0166 120.909 87.3386 121.226 87.4401C124.544 88.5285 128.281 87.2794 130.188 84.179C130.735 83.2788 131.009 82.2878 131.108 81.2262C131.372 82.2593 131.798 83.2094 132.478 83.9991C134.845 86.7639 138.732 87.414 141.838 85.8211C142.136 85.6713 142.278 85.337 142.224 85.004C142.224 85.004 141.984 83.7442 141.935 83.4671C141.91 83.3285 142.054 83.2047 142.185 83.2507C142.445 83.3427 143.673 83.7801 143.673 83.7801C143.978 83.8967 144.349 83.7973 144.539 83.5295C146.608 80.7113 146.579 76.7652 144.212 74.0004C143.531 73.1968 142.643 72.6342 141.654 72.2061C142.729 72.2903 143.759 72.1672 144.739 71.7671Z" fill="url(#paint36_radial_136_15667)"/>
<path d="M144.739 71.7671C148.101 70.379 149.919 66.8779 149.367 63.4226C149.314 63.1036 149.04 62.844 148.715 62.8134C148.715 62.8134 147.451 62.6457 147.167 62.6118C147.026 62.5948 146.956 62.4177 147.032 62.3133C147.198 62.1036 147.987 61.058 147.987 61.058C148.192 60.8031 148.204 60.4227 148.014 60.1566C145.979 57.3236 142.218 56.1296 138.844 57.5327C137.877 57.9318 137.058 58.5863 136.362 59.3857C136.762 58.3988 136.963 57.3854 136.881 56.338C136.596 52.7071 133.831 49.8892 130.375 49.3598C130.049 49.3152 129.726 49.4951 129.58 49.7876C129.58 49.7876 129.024 50.9413 128.904 51.2036C128.844 51.3348 128.648 51.3362 128.584 51.2428C128.426 51.0164 127.695 49.9357 127.695 49.9357C127.505 49.6695 127.157 49.5283 126.856 49.6362C123.538 50.6837 121.233 53.8997 121.519 57.5306C121.601 58.578 121.972 59.5464 122.507 60.4598C121.695 59.7789 120.798 59.2733 119.782 59.03C116.23 58.1708 112.701 59.9374 111.133 63.0534C110.987 63.3459 111.058 63.7057 111.301 63.9395C111.301 63.9395 112.228 64.8222 112.439 65.0163C112.545 65.1064 112.49 65.3074 112.367 65.3452C112.106 65.4219 110.856 65.787 110.856 65.787C110.54 65.8821 110.31 66.1672 110.307 66.4906C110.286 69.9769 112.629 73.1511 116.181 74.0102C117.212 74.2524 118.248 74.2131 119.297 73.9622C118.385 74.5255 117.598 75.2337 117.05 76.1339C115.144 79.2343 115.732 83.1365 118.215 85.5971C118.444 85.832 118.813 85.8733 119.109 85.7095C119.109 85.7095 120.228 85.1018 120.483 84.9553C120.604 84.8895 120.767 84.9892 120.763 85.116C120.756 85.3835 120.718 86.6932 120.718 86.6932C120.715 87.0166 120.909 87.3386 121.226 87.4401C124.544 88.5285 128.281 87.2794 130.188 84.179C130.735 83.2788 131.009 82.2878 131.108 81.2262C131.372 82.2593 131.798 83.2094 132.478 83.9991C134.845 86.7639 138.732 87.414 141.838 85.8211C142.136 85.6713 142.278 85.337 142.224 85.004C142.224 85.004 141.984 83.7442 141.935 83.4671C141.91 83.3285 142.054 83.2047 142.185 83.2507C142.445 83.3427 143.673 83.7801 143.673 83.7801C143.978 83.8967 144.349 83.7973 144.539 83.5295C146.608 80.7113 146.579 76.7652 144.212 74.0004C143.531 73.1968 142.643 72.6342 141.654 72.2061C142.729 72.2903 143.759 72.1672 144.739 71.7671Z" fill="url(#paint37_radial_136_15667)"/>
<path d="M144.739 71.7671C148.101 70.379 149.919 66.8779 149.367 63.4226C149.314 63.1036 149.04 62.844 148.715 62.8134C148.715 62.8134 147.451 62.6457 147.167 62.6118C147.026 62.5948 146.956 62.4177 147.032 62.3133C147.198 62.1036 147.987 61.058 147.987 61.058C148.192 60.8031 148.204 60.4227 148.014 60.1566C145.979 57.3236 142.218 56.1296 138.844 57.5327C137.877 57.9318 137.058 58.5863 136.362 59.3857C136.762 58.3988 136.963 57.3854 136.881 56.338C136.596 52.7071 133.831 49.8892 130.375 49.3598C130.049 49.3152 129.726 49.4951 129.58 49.7876C129.58 49.7876 129.024 50.9413 128.904 51.2036C128.844 51.3348 128.648 51.3362 128.584 51.2428C128.426 51.0164 127.695 49.9357 127.695 49.9357C127.505 49.6695 127.157 49.5283 126.856 49.6362C123.538 50.6837 121.233 53.8997 121.519 57.5306C121.601 58.578 121.972 59.5464 122.507 60.4598C121.695 59.7789 120.798 59.2733 119.782 59.03C116.23 58.1708 112.701 59.9374 111.133 63.0534C110.987 63.3459 111.058 63.7057 111.301 63.9395C111.301 63.9395 112.228 64.8222 112.439 65.0163C112.545 65.1064 112.49 65.3074 112.367 65.3452C112.106 65.4219 110.856 65.787 110.856 65.787C110.54 65.8821 110.31 66.1672 110.307 66.4906C110.286 69.9769 112.629 73.1511 116.181 74.0102C117.212 74.2524 118.248 74.2131 119.297 73.9622C118.385 74.5255 117.598 75.2337 117.05 76.1339C115.144 79.2343 115.732 83.1365 118.215 85.5971C118.444 85.832 118.813 85.8733 119.109 85.7095C119.109 85.7095 120.228 85.1018 120.483 84.9553C120.604 84.8895 120.767 84.9892 120.763 85.116C120.756 85.3835 120.718 86.6932 120.718 86.6932C120.715 87.0166 120.909 87.3386 121.226 87.4401C124.544 88.5285 128.281 87.2794 130.188 84.179C130.735 83.2788 131.009 82.2878 131.108 81.2262C131.372 82.2593 131.798 83.2094 132.478 83.9991C134.845 86.7639 138.732 87.414 141.838 85.8211C142.136 85.6713 142.278 85.337 142.224 85.004C142.224 85.004 141.984 83.7442 141.935 83.4671C141.91 83.3285 142.054 83.2047 142.185 83.2507C142.445 83.3427 143.673 83.7801 143.673 83.7801C143.978 83.8967 144.349 83.7973 144.539 83.5295C146.608 80.7113 146.579 76.7652 144.212 74.0004C143.531 73.1968 142.643 72.6342 141.654 72.2061C142.729 72.2903 143.759 72.1672 144.739 71.7671Z" fill="url(#paint38_radial_136_15667)"/>
<path d="M144.739 71.7671C148.101 70.379 149.919 66.8779 149.367 63.4226C149.314 63.1036 149.04 62.844 148.715 62.8134C148.715 62.8134 147.451 62.6457 147.167 62.6118C147.026 62.5948 146.956 62.4177 147.032 62.3133C147.198 62.1036 147.987 61.058 147.987 61.058C148.192 60.8031 148.204 60.4227 148.014 60.1566C145.979 57.3236 142.218 56.1296 138.844 57.5327C137.877 57.9318 137.058 58.5863 136.362 59.3857C136.762 58.3988 136.963 57.3854 136.881 56.338C136.596 52.7071 133.831 49.8892 130.375 49.3598C130.049 49.3152 129.726 49.4951 129.58 49.7876C129.58 49.7876 129.024 50.9413 128.904 51.2036C128.844 51.3348 128.648 51.3362 128.584 51.2428C128.426 51.0164 127.695 49.9357 127.695 49.9357C127.505 49.6695 127.157 49.5283 126.856 49.6362C123.538 50.6837 121.233 53.8997 121.519 57.5306C121.601 58.578 121.972 59.5464 122.507 60.4598C121.695 59.7789 120.798 59.2733 119.782 59.03C116.23 58.1708 112.701 59.9374 111.133 63.0534C110.987 63.3459 111.058 63.7057 111.301 63.9395C111.301 63.9395 112.228 64.8222 112.439 65.0163C112.545 65.1064 112.49 65.3074 112.367 65.3452C112.106 65.4219 110.856 65.787 110.856 65.787C110.54 65.8821 110.31 66.1672 110.307 66.4906C110.286 69.9769 112.629 73.1511 116.181 74.0102C117.212 74.2524 118.248 74.2131 119.297 73.9622C118.385 74.5255 117.598 75.2337 117.05 76.1339C115.144 79.2343 115.732 83.1365 118.215 85.5971C118.444 85.832 118.813 85.8733 119.109 85.7095C119.109 85.7095 120.228 85.1018 120.483 84.9553C120.604 84.8895 120.767 84.9892 120.763 85.116C120.756 85.3835 120.718 86.6932 120.718 86.6932C120.715 87.0166 120.909 87.3386 121.226 87.4401C124.544 88.5285 128.281 87.2794 130.188 84.179C130.735 83.2788 131.009 82.2878 131.108 81.2262C131.372 82.2593 131.798 83.2094 132.478 83.9991C134.845 86.7639 138.732 87.414 141.838 85.8211C142.136 85.6713 142.278 85.337 142.224 85.004C142.224 85.004 141.984 83.7442 141.935 83.4671C141.91 83.3285 142.054 83.2047 142.185 83.2507C142.445 83.3427 143.673 83.7801 143.673 83.7801C143.978 83.8967 144.349 83.7973 144.539 83.5295C146.608 80.7113 146.579 76.7652 144.212 74.0004C143.531 73.1968 142.643 72.6342 141.654 72.2061C142.729 72.2903 143.759 72.1672 144.739 71.7671Z" fill="url(#paint39_radial_136_15667)"/>
<path d="M144.739 71.7671C148.101 70.379 149.919 66.8779 149.367 63.4226C149.314 63.1036 149.04 62.844 148.715 62.8134C148.715 62.8134 147.451 62.6457 147.167 62.6118C147.026 62.5948 146.956 62.4177 147.032 62.3133C147.198 62.1036 147.987 61.058 147.987 61.058C148.192 60.8031 148.204 60.4227 148.014 60.1566C145.979 57.3236 142.218 56.1296 138.844 57.5327C137.877 57.9318 137.058 58.5863 136.362 59.3857C136.762 58.3988 136.963 57.3854 136.881 56.338C136.596 52.7071 133.831 49.8892 130.375 49.3598C130.049 49.3152 129.726 49.4951 129.58 49.7876C129.58 49.7876 129.024 50.9413 128.904 51.2036C128.844 51.3348 128.648 51.3362 128.584 51.2428C128.426 51.0164 127.695 49.9357 127.695 49.9357C127.505 49.6695 127.157 49.5283 126.856 49.6362C123.538 50.6837 121.233 53.8997 121.519 57.5306C121.601 58.578 121.972 59.5464 122.507 60.4598C121.695 59.7789 120.798 59.2733 119.782 59.03C116.23 58.1708 112.701 59.9374 111.133 63.0534C110.987 63.3459 111.058 63.7057 111.301 63.9395C111.301 63.9395 112.228 64.8222 112.439 65.0163C112.545 65.1064 112.49 65.3074 112.367 65.3452C112.106 65.4219 110.856 65.787 110.856 65.787C110.54 65.8821 110.31 66.1672 110.307 66.4906C110.286 69.9769 112.629 73.1511 116.181 74.0102C117.212 74.2524 118.248 74.2131 119.297 73.9622C118.385 74.5255 117.598 75.2337 117.05 76.1339C115.144 79.2343 115.732 83.1365 118.215 85.5971C118.444 85.832 118.813 85.8733 119.109 85.7095C119.109 85.7095 120.228 85.1018 120.483 84.9553C120.604 84.8895 120.767 84.9892 120.763 85.116C120.756 85.3835 120.718 86.6932 120.718 86.6932C120.715 87.0166 120.909 87.3386 121.226 87.4401C124.544 88.5285 128.281 87.2794 130.188 84.179C130.735 83.2788 131.009 82.2878 131.108 81.2262C131.372 82.2593 131.798 83.2094 132.478 83.9991C134.845 86.7639 138.732 87.414 141.838 85.8211C142.136 85.6713 142.278 85.337 142.224 85.004C142.224 85.004 141.984 83.7442 141.935 83.4671C141.91 83.3285 142.054 83.2047 142.185 83.2507C142.445 83.3427 143.673 83.7801 143.673 83.7801C143.978 83.8967 144.349 83.7973 144.539 83.5295C146.608 80.7113 146.579 76.7652 144.212 74.0004C143.531 73.1968 142.643 72.6342 141.654 72.2061C142.729 72.2903 143.759 72.1672 144.739 71.7671Z" fill="url(#paint40_radial_136_15667)"/>
<path d="M144.739 71.7671C148.101 70.379 149.919 66.8779 149.367 63.4226C149.314 63.1036 149.04 62.844 148.715 62.8134C148.715 62.8134 147.451 62.6457 147.167 62.6118C147.026 62.5948 146.956 62.4177 147.032 62.3133C147.198 62.1036 147.987 61.058 147.987 61.058C148.192 60.8031 148.204 60.4227 148.014 60.1566C145.979 57.3236 142.218 56.1296 138.844 57.5327C137.877 57.9318 137.058 58.5863 136.362 59.3857C136.762 58.3988 136.963 57.3854 136.881 56.338C136.596 52.7071 133.831 49.8892 130.375 49.3598C130.049 49.3152 129.726 49.4951 129.58 49.7876C129.58 49.7876 129.024 50.9413 128.904 51.2036C128.844 51.3348 128.648 51.3362 128.584 51.2428C128.426 51.0164 127.695 49.9357 127.695 49.9357C127.505 49.6695 127.157 49.5283 126.856 49.6362C123.538 50.6837 121.233 53.8997 121.519 57.5306C121.601 58.578 121.972 59.5464 122.507 60.4598C121.695 59.7789 120.798 59.2733 119.782 59.03C116.23 58.1708 112.701 59.9374 111.133 63.0534C110.987 63.3459 111.058 63.7057 111.301 63.9395C111.301 63.9395 112.228 64.8222 112.439 65.0163C112.545 65.1064 112.49 65.3074 112.367 65.3452C112.106 65.4219 110.856 65.787 110.856 65.787C110.54 65.8821 110.31 66.1672 110.307 66.4906C110.286 69.9769 112.629 73.1511 116.181 74.0102C117.212 74.2524 118.248 74.2131 119.297 73.9622C118.385 74.5255 117.598 75.2337 117.05 76.1339C115.144 79.2343 115.732 83.1365 118.215 85.5971C118.444 85.832 118.813 85.8733 119.109 85.7095C119.109 85.7095 120.228 85.1018 120.483 84.9553C120.604 84.8895 120.767 84.9892 120.763 85.116C120.756 85.3835 120.718 86.6932 120.718 86.6932C120.715 87.0166 120.909 87.3386 121.226 87.4401C124.544 88.5285 128.281 87.2794 130.188 84.179C130.735 83.2788 131.009 82.2878 131.108 81.2262C131.372 82.2593 131.798 83.2094 132.478 83.9991C134.845 86.7639 138.732 87.414 141.838 85.8211C142.136 85.6713 142.278 85.337 142.224 85.004C142.224 85.004 141.984 83.7442 141.935 83.4671C141.91 83.3285 142.054 83.2047 142.185 83.2507C142.445 83.3427 143.673 83.7801 143.673 83.7801C143.978 83.8967 144.349 83.7973 144.539 83.5295C146.608 80.7113 146.579 76.7652 144.212 74.0004C143.531 73.1968 142.643 72.6342 141.654 72.2061C142.729 72.2903 143.759 72.1672 144.739 71.7671Z" fill="url(#paint41_radial_136_15667)"/>
<path d="M144.739 71.7671C148.101 70.379 149.919 66.8779 149.367 63.4226C149.314 63.1036 149.04 62.844 148.715 62.8134C148.715 62.8134 147.451 62.6457 147.167 62.6118C147.026 62.5948 146.956 62.4177 147.032 62.3133C147.198 62.1036 147.987 61.058 147.987 61.058C148.192 60.8031 148.204 60.4227 148.014 60.1566C145.979 57.3236 142.218 56.1296 138.844 57.5327C137.877 57.9318 137.058 58.5863 136.362 59.3857C136.762 58.3988 136.963 57.3854 136.881 56.338C136.596 52.7071 133.831 49.8892 130.375 49.3598C130.049 49.3152 129.726 49.4951 129.58 49.7876C129.58 49.7876 129.024 50.9413 128.904 51.2036C128.844 51.3348 128.648 51.3362 128.584 51.2428C128.426 51.0164 127.695 49.9357 127.695 49.9357C127.505 49.6695 127.157 49.5283 126.856 49.6362C123.538 50.6837 121.233 53.8997 121.519 57.5306C121.601 58.578 121.972 59.5464 122.507 60.4598C121.695 59.7789 120.798 59.2733 119.782 59.03C116.23 58.1708 112.701 59.9374 111.133 63.0534C110.987 63.3459 111.058 63.7057 111.301 63.9395C111.301 63.9395 112.228 64.8222 112.439 65.0163C112.545 65.1064 112.49 65.3074 112.367 65.3452C112.106 65.4219 110.856 65.787 110.856 65.787C110.54 65.8821 110.31 66.1672 110.307 66.4906C110.286 69.9769 112.629 73.1511 116.181 74.0102C117.212 74.2524 118.248 74.2131 119.297 73.9622C118.385 74.5255 117.598 75.2337 117.05 76.1339C115.144 79.2343 115.732 83.1365 118.215 85.5971C118.444 85.832 118.813 85.8733 119.109 85.7095C119.109 85.7095 120.228 85.1018 120.483 84.9553C120.604 84.8895 120.767 84.9892 120.763 85.116C120.756 85.3835 120.718 86.6932 120.718 86.6932C120.715 87.0166 120.909 87.3386 121.226 87.4401C124.544 88.5285 128.281 87.2794 130.188 84.179C130.735 83.2788 131.009 82.2878 131.108 81.2262C131.372 82.2593 131.798 83.2094 132.478 83.9991C134.845 86.7639 138.732 87.414 141.838 85.8211C142.136 85.6713 142.278 85.337 142.224 85.004C142.224 85.004 141.984 83.7442 141.935 83.4671C141.91 83.3285 142.054 83.2047 142.185 83.2507C142.445 83.3427 143.673 83.7801 143.673 83.7801C143.978 83.8967 144.349 83.7973 144.539 83.5295C146.608 80.7113 146.579 76.7652 144.212 74.0004C143.531 73.1968 142.643 72.6342 141.654 72.2061C142.729 72.2903 143.759 72.1672 144.739 71.7671Z" fill="url(#paint42_radial_136_15667)"/>
<path d="M144.739 71.7671C148.101 70.379 149.919 66.8779 149.367 63.4226C149.314 63.1036 149.04 62.844 148.715 62.8134C148.715 62.8134 147.451 62.6457 147.167 62.6118C147.026 62.5948 146.956 62.4177 147.032 62.3133C147.198 62.1036 147.987 61.058 147.987 61.058C148.192 60.8031 148.204 60.4227 148.014 60.1566C145.979 57.3236 142.218 56.1296 138.844 57.5327C137.877 57.9318 137.058 58.5863 136.362 59.3857C136.762 58.3988 136.963 57.3854 136.881 56.338C136.596 52.7071 133.831 49.8892 130.375 49.3598C130.049 49.3152 129.726 49.4951 129.58 49.7876C129.58 49.7876 129.024 50.9413 128.904 51.2036C128.844 51.3348 128.648 51.3362 128.584 51.2428C128.426 51.0164 127.695 49.9357 127.695 49.9357C127.505 49.6695 127.157 49.5283 126.856 49.6362C123.538 50.6837 121.233 53.8997 121.519 57.5306C121.601 58.578 121.972 59.5464 122.507 60.4598C121.695 59.7789 120.798 59.2733 119.782 59.03C116.23 58.1708 112.701 59.9374 111.133 63.0534C110.987 63.3459 111.058 63.7057 111.301 63.9395C111.301 63.9395 112.228 64.8222 112.439 65.0163C112.545 65.1064 112.49 65.3074 112.367 65.3452C112.106 65.4219 110.856 65.787 110.856 65.787C110.54 65.8821 110.31 66.1672 110.307 66.4906C110.286 69.9769 112.629 73.1511 116.181 74.0102C117.212 74.2524 118.248 74.2131 119.297 73.9622C118.385 74.5255 117.598 75.2337 117.05 76.1339C115.144 79.2343 115.732 83.1365 118.215 85.5971C118.444 85.832 118.813 85.8733 119.109 85.7095C119.109 85.7095 120.228 85.1018 120.483 84.9553C120.604 84.8895 120.767 84.9892 120.763 85.116C120.756 85.3835 120.718 86.6932 120.718 86.6932C120.715 87.0166 120.909 87.3386 121.226 87.4401C124.544 88.5285 128.281 87.2794 130.188 84.179C130.735 83.2788 131.009 82.2878 131.108 81.2262C131.372 82.2593 131.798 83.2094 132.478 83.9991C134.845 86.7639 138.732 87.414 141.838 85.8211C142.136 85.6713 142.278 85.337 142.224 85.004C142.224 85.004 141.984 83.7442 141.935 83.4671C141.91 83.3285 142.054 83.2047 142.185 83.2507C142.445 83.3427 143.673 83.7801 143.673 83.7801C143.978 83.8967 144.349 83.7973 144.539 83.5295C146.608 80.7113 146.579 76.7652 144.212 74.0004C143.531 73.1968 142.643 72.6342 141.654 72.2061C142.729 72.2903 143.759 72.1672 144.739 71.7671Z" fill="url(#paint43_radial_136_15667)"/>
<path d="M144.739 71.7671C148.101 70.379 149.919 66.8779 149.367 63.4226C149.314 63.1036 149.04 62.844 148.715 62.8134C148.715 62.8134 147.451 62.6457 147.167 62.6118C147.026 62.5948 146.956 62.4177 147.032 62.3133C147.198 62.1036 147.987 61.058 147.987 61.058C148.192 60.8031 148.204 60.4227 148.014 60.1566C145.979 57.3236 142.218 56.1296 138.844 57.5327C137.877 57.9318 137.058 58.5863 136.362 59.3857C136.762 58.3988 136.963 57.3854 136.881 56.338C136.596 52.7071 133.831 49.8892 130.375 49.3598C130.049 49.3152 129.726 49.4951 129.58 49.7876C129.58 49.7876 129.024 50.9413 128.904 51.2036C128.844 51.3348 128.648 51.3362 128.584 51.2428C128.426 51.0164 127.695 49.9357 127.695 49.9357C127.505 49.6695 127.157 49.5283 126.856 49.6362C123.538 50.6837 121.233 53.8997 121.519 57.5306C121.601 58.578 121.972 59.5464 122.507 60.4598C121.695 59.7789 120.798 59.2733 119.782 59.03C116.23 58.1708 112.701 59.9374 111.133 63.0534C110.987 63.3459 111.058 63.7057 111.301 63.9395C111.301 63.9395 112.228 64.8222 112.439 65.0163C112.545 65.1064 112.49 65.3074 112.367 65.3452C112.106 65.4219 110.856 65.787 110.856 65.787C110.54 65.8821 110.31 66.1672 110.307 66.4906C110.286 69.9769 112.629 73.1511 116.181 74.0102C117.212 74.2524 118.248 74.2131 119.297 73.9622C118.385 74.5255 117.598 75.2337 117.05 76.1339C115.144 79.2343 115.732 83.1365 118.215 85.5971C118.444 85.832 118.813 85.8733 119.109 85.7095C119.109 85.7095 120.228 85.1018 120.483 84.9553C120.604 84.8895 120.767 84.9892 120.763 85.116C120.756 85.3835 120.718 86.6932 120.718 86.6932C120.715 87.0166 120.909 87.3386 121.226 87.4401C124.544 88.5285 128.281 87.2794 130.188 84.179C130.735 83.2788 131.009 82.2878 131.108 81.2262C131.372 82.2593 131.798 83.2094 132.478 83.9991C134.845 86.7639 138.732 87.414 141.838 85.8211C142.136 85.6713 142.278 85.337 142.224 85.004C142.224 85.004 141.984 83.7442 141.935 83.4671C141.91 83.3285 142.054 83.2047 142.185 83.2507C142.445 83.3427 143.673 83.7801 143.673 83.7801C143.978 83.8967 144.349 83.7973 144.539 83.5295C146.608 80.7113 146.579 76.7652 144.212 74.0004C143.531 73.1968 142.643 72.6342 141.654 72.2061C142.729 72.2903 143.759 72.1672 144.739 71.7671Z" fill="url(#paint44_radial_136_15667)"/>
<path fill-rule="evenodd" clip-rule="evenodd" d="M129.082 69.0072L128.581 62.6252L130.714 62.4577L131.215 68.8396L129.082 69.0072Z" fill="#EDD1F8"/>
<path fill-rule="evenodd" clip-rule="evenodd" d="M129.739 67.9358L135.645 65.4908L136.463 67.4678L130.557 69.9129L129.739 67.9358Z" fill="#F0D6F8"/>
<path fill-rule="evenodd" clip-rule="evenodd" d="M130.964 68.2308L135.113 73.1038L133.483 74.4908L129.335 69.6178L130.964 68.2308Z" fill="#E8C7F7"/>
<path fill-rule="evenodd" clip-rule="evenodd" d="M131.06 69.4837L127.709 74.9458L125.886 73.8269L129.236 68.3649L131.06 69.4837Z" fill="#E5C1F6"/>
<path fill-rule="evenodd" clip-rule="evenodd" d="M129.9 69.9647L123.67 68.4728L124.169 66.3919L130.398 67.8838L129.9 69.9647Z" fill="#E5C1F6"/>
<path d="M129.756 63.9358C130.526 63.8753 131.102 63.2017 131.041 62.4312C130.981 61.6608 130.307 61.0853 129.537 61.1458C128.766 61.2063 128.191 61.8799 128.251 62.6504C128.312 63.4208 128.986 63.9964 129.756 63.9358Z" fill="url(#paint45_radial_136_15667)"/>
<path d="M136.163 67.8735C136.934 67.813 137.509 67.1394 137.449 66.3689C137.388 65.5985 136.714 65.023 135.944 65.0835C135.174 65.144 134.598 65.8176 134.659 66.5881C134.719 67.3585 135.393 67.934 136.163 67.8735Z" fill="url(#paint46_radial_136_15667)"/>
<path d="M134.405 75.1916C135.176 75.1311 135.751 74.4575 135.691 73.687C135.63 72.9166 134.957 72.3411 134.186 72.4016C133.416 72.4621 132.84 73.1357 132.901 73.9062C132.961 74.6766 133.635 75.2522 134.405 75.1916Z" fill="url(#paint47_radial_136_15667)"/>
<path d="M126.905 75.7803C127.676 75.7198 128.251 75.0461 128.191 74.2757C128.13 73.5052 127.457 72.9297 126.686 72.9902C125.916 73.0507 125.34 73.7244 125.401 74.4948C125.461 75.2653 126.135 75.8408 126.905 75.7803Z" fill="url(#paint48_radial_136_15667)"/>
<path d="M124.026 68.8267C124.797 68.7661 125.372 68.0925 125.312 67.3221C125.251 66.5516 124.578 65.9761 123.807 66.0366C123.037 66.0971 122.461 66.7707 122.522 67.5412C122.582 68.3116 123.256 68.8872 124.026 68.8267Z" fill="url(#paint49_radial_136_15667)"/>
<path d="M130.42 72.3741C132.325 72.2244 133.748 70.5588 133.599 68.6538C133.449 66.7488 131.784 65.3258 129.879 65.4754C127.974 65.625 126.55 67.2906 126.7 69.1957C126.85 71.1007 128.515 72.5237 130.42 72.3741Z" fill="url(#paint50_radial_136_15667)"/>
<path d="M60 96.8465C60.0393 100.177 69.7596 112.48 74.9093 106.28C75.3371 105.765 75.5927 104.977 75.6936 104.152C77.6182 88.4056 69.9892 86.7411 66.3882 88.6161C62.6931 90.5401 60.0494 93.1661 60 96.8465Z" fill="url(#paint51_radial_136_15667)"/>
<path d="M57.8194 80.0036C54.609 80.2173 40.4626 92.5591 44.8292 98.6239C45.2755 99.2438 46.0339 99.5475 46.7935 99.6286C61.5808 101.207 65.1081 91.7566 64.1934 87.4301C63.2551 82.9919 61.3732 79.8794 57.8194 80.0036Z" fill="url(#paint52_radial_136_15667)"/>
<path d="M20 107.533C20.0518 110.369 32.8793 120.845 39.675 115.566C40.2397 115.127 40.577 114.456 40.7101 113.754C43.2499 100.345 33.1823 98.928 28.4302 100.525C23.5539 102.163 20.0652 104.399 20 107.533Z" fill="url(#paint53_radial_136_15667)"/>
<defs>
<linearGradient id="paint0_linear_136_15667" x1="152.121" y1="72.9448" x2="113.607" y2="33.4588" gradientUnits="userSpaceOnUse">
<stop offset="0.2" stop-color="#A6756A"/>
<stop offset="1" stop-color="#A97253"/>
</linearGradient>
<radialGradient id="paint1_radial_136_15667" cx="0" cy="0" r="1" gradientUnits="userSpaceOnUse" gradientTransform="translate(224 56.0002) rotate(80.5377) scale(12.1655 90.5232)">
<stop offset="0.283653" stop-color="#C48769"/>
<stop offset="0.774038" stop-color="#8A5F4A" stop-opacity="0"/>
</radialGradient>
<radialGradient id="paint2_radial_136_15667" cx="0" cy="0" r="1" gradientUnits="userSpaceOnUse" gradientTransform="translate(100 54.0002) rotate(81.8699) scale(14.1421 105.231)">
<stop offset="0.283653" stop-color="#C48769"/>
<stop offset="0.774038" stop-color="#8A5F4A" stop-opacity="0"/>
</radialGradient>
<radialGradient id="paint3_radial_136_15667" cx="0" cy="0" r="1" gradientUnits="userSpaceOnUse" gradientTransform="translate(177.508 62.2328) rotate(15.5244) scale(31.9103 31.9103)">
<stop offset="0.0729167" stop-color="#FD4D6D"/>
<stop offset="0.854167" stop-color="#FFE6EC"/>
</radialGradient>
<radialGradient id="paint4_radial_136_15667" cx="0" cy="0" r="1" gradientUnits="userSpaceOnUse" gradientTransform="translate(177.918 62.806) rotate(-74.0669) scale(39.1058 40.5161)">
<stop stop-color="#F96BC3" stop-opacity="0"/>
<stop offset="0.685736" stop-color="#F96BC3" stop-opacity="0"/>
<stop offset="1" stop-color="#F96BC3" stop-opacity="0.7"/>
</radialGradient>
<radialGradient id="paint5_radial_136_15667" cx="0" cy="0" r="1" gradientUnits="userSpaceOnUse" gradientTransform="translate(209.136 61.1015) rotate(177.728) scale(3.17357 1.23926)">
<stop stop-color="#FFA2B7"/>
<stop offset="1" stop-color="#FFA2B7" stop-opacity="0"/>
</radialGradient>
<radialGradient id="paint6_radial_136_15667" cx="0" cy="0" r="1" gradientUnits="userSpaceOnUse" gradientTransform="translate(175.636 55.2804) rotate(-113.549) scale(30.6576 6.31257)">
<stop stop-color="#FD7A88"/>
<stop offset="1" stop-color="#FD7A88" stop-opacity="0"/>
</radialGradient>
<radialGradient id="paint7_radial_136_15667" cx="0" cy="0" r="1" gradientUnits="userSpaceOnUse" gradientTransform="translate(181.387 58.2718) rotate(-30.5716) scale(30.341 6.24739)">
<stop stop-color="#FD7A88"/>
<stop offset="1" stop-color="#FD7A88" stop-opacity="0"/>
</radialGradient>
<radialGradient id="paint8_radial_136_15667" cx="0" cy="0" r="1" gradientUnits="userSpaceOnUse" gradientTransform="translate(182.582 63.952) rotate(39.7439) scale(23.6434 4.86831)">
<stop stop-color="#FD7A88"/>
<stop offset="1" stop-color="#FD7A88" stop-opacity="0"/>
</radialGradient>
<radialGradient id="paint9_radial_136_15667" cx="0" cy="0" r="1" gradientUnits="userSpaceOnUse" gradientTransform="translate(177.538 65.1062) rotate(107.622) scale(21.8008 4.4889)">
<stop stop-color="#FD7A88"/>
<stop offset="1" stop-color="#FD7A88" stop-opacity="0"/>
</radialGradient>
<radialGradient id="paint10_radial_136_15667" cx="0" cy="0" r="1" gradientUnits="userSpaceOnUse" gradientTransform="translate(174.858 61.6515) rotate(175.846) scale(23.9297 4.92727)">
<stop stop-color="#FD7A88"/>
<stop offset="1" stop-color="#FD7A88" stop-opacity="0"/>
</radialGradient>
<radialGradient id="paint11_radial_136_15667" cx="0" cy="0" r="1" gradientUnits="userSpaceOnUse" gradientTransform="translate(149.833 60.5851) rotate(-60.0548) scale(5.39262 13.2999)">
<stop stop-color="#FF689A"/>
<stop offset="1" stop-color="#FF689A" stop-opacity="0"/>
</radialGradient>
<radialGradient id="paint12_radial_136_15667" cx="0" cy="0" r="1" gradientUnits="userSpaceOnUse" gradientTransform="translate(199.931 76.205) rotate(-89.3343) scale(7.56475 18.7083)">
<stop stop-color="#FF689A"/>
<stop offset="1" stop-color="#FF689A" stop-opacity="0"/>
</radialGradient>
<radialGradient id="paint13_radial_136_15667" cx="0" cy="0" r="1" gradientUnits="userSpaceOnUse" gradientTransform="translate(177.918 60.7559) rotate(105.524) scale(32.2705 33.4343)">
<stop stop-color="#FF5466"/>
<stop offset="0.473958" stop-color="#FF5466" stop-opacity="0"/>
</radialGradient>
<radialGradient id="paint14_radial_136_15667" cx="0" cy="0" r="1" gradientUnits="userSpaceOnUse" gradientTransform="translate(181.557 50.8422) rotate(147.458) scale(2.95865 2.72004)">
<stop stop-color="#F3DCF8"/>
<stop offset="1" stop-color="#E2C3EC"/>
</radialGradient>
<radialGradient id="paint15_radial_136_15667" cx="0" cy="0" r="1" gradientUnits="userSpaceOnUse" gradientTransform="translate(189.681 61.5449) rotate(160.657) scale(2.81171 2.58496)">
<stop stop-color="#F3DCF8"/>
<stop offset="1" stop-color="#E2C3EC"/>
</radialGradient>
<radialGradient id="paint16_radial_136_15667" cx="0" cy="0" r="1" gradientUnits="userSpaceOnUse" gradientTransform="translate(182.341 72.1671) rotate(151.921) scale(2.11219 1.94185)">
<stop stop-color="#F3DCF8"/>
<stop offset="1" stop-color="#DFB6F4"/>
</radialGradient>
<radialGradient id="paint17_radial_136_15667" cx="0" cy="0" r="1" gradientUnits="userSpaceOnUse" gradientTransform="translate(169.989 68.7367) rotate(151.921) scale(2.11219 1.94185)">
<stop stop-color="#F3DCF8"/>
<stop offset="1" stop-color="#DFB6F4"/>
</radialGradient>
<radialGradient id="paint18_radial_136_15667" cx="0" cy="0" r="1" gradientUnits="userSpaceOnUse" gradientTransform="translate(169.529 55.331) rotate(147.458) scale(2.95865 2.72004)">
<stop stop-color="#F3DCF8"/>
<stop offset="1" stop-color="#DFB6F4"/>
</radialGradient>
<radialGradient id="paint19_radial_136_15667" cx="0" cy="0" r="1" gradientUnits="userSpaceOnUse" gradientTransform="translate(181.398 60.1373) rotate(140.4) scale(12.0046 13.0118)">
<stop stop-color="#F3DCF8"/>
<stop offset="1" stop-color="#DFB6F4"/>
</radialGradient>
<radialGradient id="paint20_radial_136_15667" cx="0" cy="0" r="1" gradientUnits="userSpaceOnUse" gradientTransform="translate(110 42) rotate(104.036) scale(8.24621 22.0707)">
<stop offset="0.5" stop-color="#C48769"/>
<stop offset="0.774038" stop-color="#8A5F4A" stop-opacity="0"/>
</radialGradient>
<radialGradient id="paint21_radial_136_15667" cx="0" cy="0" r="1" gradientUnits="userSpaceOnUse" gradientTransform="translate(94.7259 46.3436) rotate(173.418) scale(32.0061 23.7224)">
<stop offset="0.0729167" stop-color="#FD4D6D"/>
<stop offset="0.854167" stop-color="#FFE6EC"/>
</radialGradient>
<radialGradient id="paint22_radial_136_15667" cx="0" cy="0" r="1" gradientUnits="userSpaceOnUse" gradientTransform="translate(92.2801 48.7894) scale(20.7891 22.8103)">
<stop stop-color="#D54040"/>
<stop offset="1" stop-color="#D44040" stop-opacity="0"/>
</radialGradient>
<radialGradient id="paint23_radial_136_15667" cx="0" cy="0" r="1" gradientUnits="userSpaceOnUse" gradientTransform="translate(85.2058 48.5103) rotate(-142.264) scale(23.0235 23.398)">
<stop stop-color="#F96BC3" stop-opacity="0"/>
<stop offset="0.526982" stop-color="#F96BC3" stop-opacity="0"/>
<stop offset="1" stop-color="#F96BC3"/>
</radialGradient>
<radialGradient id="paint24_radial_136_15667" cx="0" cy="0" r="1" gradientUnits="userSpaceOnUse" gradientTransform="translate(100.84 46.3433) rotate(-161.565) scale(23.2027 22.9997)">
<stop offset="0.0729167" stop-color="#FD4D6D"/>
<stop offset="0.854167" stop-color="#FFE6EC"/>
</radialGradient>
<radialGradient id="paint25_radial_136_15667" cx="0" cy="0" r="1" gradientUnits="userSpaceOnUse" gradientTransform="translate(92.2799 51.2349) rotate(78.6901) scale(12.4711 19.9537)">
<stop stop-color="#D54040"/>
<stop offset="1" stop-color="#D44040" stop-opacity="0"/>
</radialGradient>
<radialGradient id="paint26_radial_136_15667" cx="0" cy="0" r="1" gradientUnits="userSpaceOnUse" gradientTransform="translate(88.6357 42.2744) rotate(148.018) scale(20.7279 24.2501)">
<stop stop-color="#F96BC3" stop-opacity="0"/>
<stop offset="0.526982" stop-color="#F96BC3" stop-opacity="0"/>
<stop offset="1" stop-color="#F96BC3"/>
</radialGradient>
<radialGradient id="paint27_radial_136_15667" cx="0" cy="0" r="1" gradientUnits="userSpaceOnUse" gradientTransform="translate(101.001 43.7283) rotate(127.289) scale(28.5486 25.9663)">
<stop offset="0.0729167" stop-color="#FD4D6D"/>
<stop offset="0.854167" stop-color="#FFE6EC"/>
</radialGradient>
<radialGradient id="paint28_radial_136_15667" cx="0" cy="0" r="1" gradientUnits="userSpaceOnUse" gradientTransform="translate(92.5485 55.0604) rotate(170.591) scale(21.5048 24.4961)">
<stop stop-color="#F96BC3" stop-opacity="0"/>
<stop offset="0.526982" stop-color="#F96BC3" stop-opacity="0"/>
<stop offset="1" stop-color="#F96BC3"/>
</radialGradient>
<radialGradient id="paint29_radial_136_15667" cx="0" cy="0" r="1" gradientUnits="userSpaceOnUse" gradientTransform="translate(51.7495 62.2434) rotate(168.89) scale(28.5486 25.9663)">
<stop offset="0.0729167" stop-color="#FD4D6D"/>
<stop offset="0.854167" stop-color="#FFE6EC"/>
</radialGradient>
<radialGradient id="paint30_radial_136_15667" cx="0" cy="0" r="1" gradientUnits="userSpaceOnUse" gradientTransform="translate(42.1045 63.2761) rotate(-83.3456) scale(9.23387 23.2635)">
<stop stop-color="#D54040"/>
<stop offset="1" stop-color="#D44040" stop-opacity="0"/>
</radialGradient>
<radialGradient id="paint31_radial_136_15667" cx="0" cy="0" r="1" gradientUnits="userSpaceOnUse" gradientTransform="translate(37.9722 60.8274) rotate(-158.002) scale(19.8458 16.83)">
<stop stop-color="#F96BC3" stop-opacity="0"/>
<stop offset="0.526982" stop-color="#F96BC3" stop-opacity="0"/>
<stop offset="1" stop-color="#F96BC3"/>
</radialGradient>
<radialGradient id="paint32_radial_136_15667" cx="0" cy="0" r="1" gradientUnits="userSpaceOnUse" gradientTransform="translate(51.8756 61.7148) rotate(169.926) scale(28.5486 25.9663)">
<stop offset="0.0729167" stop-color="#FD4D6D"/>
<stop offset="0.854167" stop-color="#FFE6EC"/>
</radialGradient>
<radialGradient id="paint33_radial_136_15667" cx="0" cy="0" r="1" gradientUnits="userSpaceOnUse" gradientTransform="translate(39.5412 68.0139) rotate(136.817) scale(19.8458 16.83)">
<stop stop-color="#F96BC3" stop-opacity="0"/>
<stop offset="0.526982" stop-color="#F96BC3" stop-opacity="0"/>
<stop offset="1" stop-color="#F96BC3"/>
</radialGradient>
<radialGradient id="paint34_radial_136_15667" cx="0" cy="0" r="1" gradientUnits="userSpaceOnUse" gradientTransform="translate(130.173 69.2481) rotate(-4.49109) scale(18.7222 18.7222)">
<stop offset="0.0729167" stop-color="#FD4D6D"/>
<stop offset="0.854167" stop-color="#FFE6EC"/>
</radialGradient>
<radialGradient id="paint35_radial_136_15667" cx="0" cy="0" r="1" gradientUnits="userSpaceOnUse" gradientTransform="translate(130.514 69.4817) rotate(-94.0824) scale(22.9439 23.7713)">
<stop stop-color="#F96BC3" stop-opacity="0"/>
<stop offset="0.685736" stop-color="#F96BC3" stop-opacity="0"/>
<stop offset="1" stop-color="#F96BC3" stop-opacity="0.7"/>
</radialGradient>
<radialGradient id="paint36_radial_136_15667" cx="0" cy="0" r="1" gradientUnits="userSpaceOnUse" gradientTransform="translate(147.381 62.2732) rotate(157.713) scale(1.86197 0.72709)">
<stop stop-color="#FFA2B7"/>
<stop offset="1" stop-color="#FFA2B7" stop-opacity="0"/>
</radialGradient>
<radialGradient id="paint37_radial_136_15667" cx="0" cy="0" r="1" gradientUnits="userSpaceOnUse" gradientTransform="translate(127.745 65.7914) rotate(-133.565) scale(17.9872 3.70367)">
<stop stop-color="#FD7A88"/>
<stop offset="1" stop-color="#FD7A88" stop-opacity="0"/>
</radialGradient>
<radialGradient id="paint38_radial_136_15667" cx="0" cy="0" r="1" gradientUnits="userSpaceOnUse" gradientTransform="translate(131.516 66.2856) rotate(-50.587) scale(17.8014 3.66542)">
<stop stop-color="#FD7A88"/>
<stop offset="1" stop-color="#FD7A88" stop-opacity="0"/>
</radialGradient>
<radialGradient id="paint39_radial_136_15667" cx="0" cy="0" r="1" gradientUnits="userSpaceOnUse" gradientTransform="translate(133.315 69.1769) rotate(19.7284) scale(13.8719 2.8563)">
<stop stop-color="#FD7A88"/>
<stop offset="1" stop-color="#FD7A88" stop-opacity="0"/>
</radialGradient>
<radialGradient id="paint40_radial_136_15667" cx="0" cy="0" r="1" gradientUnits="userSpaceOnUse" gradientTransform="translate(130.766 70.8261) rotate(87.6063) scale(12.7908 2.63369)">
<stop stop-color="#FD7A88"/>
<stop offset="1" stop-color="#FD7A88" stop-opacity="0"/>
</radialGradient>
<radialGradient id="paint41_radial_136_15667" cx="0" cy="0" r="1" gradientUnits="userSpaceOnUse" gradientTransform="translate(128.595 69.4598) rotate(155.831) scale(14.0399 2.89089)">
<stop stop-color="#FD7A88"/>
<stop offset="1" stop-color="#FD7A88" stop-opacity="0"/>
</radialGradient>
<radialGradient id="paint42_radial_136_15667" cx="0" cy="0" r="1" gradientUnits="userSpaceOnUse" gradientTransform="translate(114.585 73.8974) rotate(-80.0703) scale(3.16391 7.80319)">
<stop stop-color="#FF689A"/>
<stop offset="1" stop-color="#FF689A" stop-opacity="0"/>
</radialGradient>
<radialGradient id="paint43_radial_136_15667" cx="0" cy="0" r="1" gradientUnits="userSpaceOnUse" gradientTransform="translate(145.34 72.4478) rotate(-109.35) scale(4.43833 10.9764)">
<stop stop-color="#FF689A"/>
<stop offset="1" stop-color="#FF689A" stop-opacity="0"/>
</radialGradient>
<radialGradient id="paint44_radial_136_15667" cx="0" cy="0" r="1" gradientUnits="userSpaceOnUse" gradientTransform="translate(130.102 68.3516) rotate(85.5089) scale(18.9335 19.6163)">
<stop stop-color="#FF5466"/>
<stop offset="0.473958" stop-color="#FF5466" stop-opacity="0"/>
</radialGradient>
<radialGradient id="paint45_radial_136_15667" cx="0" cy="0" r="1" gradientUnits="userSpaceOnUse" gradientTransform="translate(130.116 62.1543) rotate(127.442) scale(1.73406 1.59422)">
<stop stop-color="#F3DCF8"/>
<stop offset="1" stop-color="#E2C3EC"/>
</radialGradient>
<radialGradient id="paint46_radial_136_15667" cx="0" cy="0" r="1" gradientUnits="userSpaceOnUse" gradientTransform="translate(136.743 66.4237) rotate(140.641) scale(1.64794 1.51504)">
<stop stop-color="#F3DCF8"/>
<stop offset="1" stop-color="#E2C3EC"/>
</radialGradient>
<radialGradient id="paint47_radial_136_15667" cx="0" cy="0" r="1" gradientUnits="userSpaceOnUse" gradientTransform="translate(134.831 73.7539) rotate(131.906) scale(1.23795 1.13812)">
<stop stop-color="#F3DCF8"/>
<stop offset="1" stop-color="#DFB6F4"/>
</radialGradient>
<radialGradient id="paint48_radial_136_15667" cx="0" cy="0" r="1" gradientUnits="userSpaceOnUse" gradientTransform="translate(127.331 74.3435) rotate(131.906) scale(1.23795 1.13812)">
<stop stop-color="#F3DCF8"/>
<stop offset="1" stop-color="#DFB6F4"/>
</radialGradient>
<radialGradient id="paint49_radial_136_15667" cx="0" cy="0" r="1" gradientUnits="userSpaceOnUse" gradientTransform="translate(124.386 67.0451) rotate(127.442) scale(1.73406 1.59422)">
<stop stop-color="#F3DCF8"/>
<stop offset="1" stop-color="#DFB6F4"/>
</radialGradient>
<radialGradient id="paint50_radial_136_15667" cx="0" cy="0" r="1" gradientUnits="userSpaceOnUse" gradientTransform="translate(131.897 67.3126) rotate(120.384) scale(7.04324 7.63416)">
<stop stop-color="#F3DCF8"/>
<stop offset="1" stop-color="#DFB6F4"/>
</radialGradient>
<radialGradient id="paint51_radial_136_15667" cx="0" cy="0" r="1" gradientUnits="userSpaceOnUse" gradientTransform="translate(74 108) rotate(-124.992) scale(24.4131 69.7007)">
<stop offset="0.0729167" stop-color="#FF8BA0"/>
<stop offset="1" stop-color="#FFE6EC"/>
</radialGradient>
<radialGradient id="paint52_radial_136_15667" cx="0" cy="0" r="1" gradientUnits="userSpaceOnUse" gradientTransform="translate(55.2715 95.4482) rotate(-111.938) scale(9.70261 31.0631)">
<stop offset="0.0729167" stop-color="#FF8BA0"/>
<stop offset="1" stop-color="#FFE6EC"/>
</radialGradient>
<radialGradient id="paint53_radial_136_15667" cx="0" cy="0" r="1" gradientUnits="userSpaceOnUse" gradientTransform="translate(36.6417 106.995) rotate(154.085) scale(11.1019 25.9285)">
<stop offset="0.0729167" stop-color="#FF8BA0"/>
<stop offset="1" stop-color="#FFE6EC"/>
</radialGradient>
</defs>
</svg>
