<svg viewBox="0 0 240 120" fill="none" xmlns="http://www.w3.org/2000/svg">
<path d="M185.102 25.0762C157.817 6.54924 121.437 9.91802 107.289 38.5505C93.1409 67.1829 113.352 103.226 151.416 105.584C189.481 107.942 203.203 88.3459 206.516 78.1029C209.159 69.9316 212.387 43.6033 185.102 25.0762Z" fill="url(#paint0_radial_1087_27123)"/>
<path d="M185.102 25.0762C157.817 6.54924 121.437 9.91802 107.289 38.5505C93.1409 67.1829 113.352 103.226 151.416 105.584C189.481 107.942 203.203 88.3459 206.516 78.1029C209.159 69.9316 212.387 43.6033 185.102 25.0762Z" fill="url(#paint1_radial_1087_27123)"/>
<path fill-rule="evenodd" clip-rule="evenodd" d="M139.162 14.4839C136.62 14.9688 134.138 15.6457 131.739 16.5173C124.651 22.5434 121.155 32.6762 120.256 37.35C125.121 25.4575 133.819 17.8438 139.162 14.4839ZM117.587 24.9058C118.613 23.9925 119.676 23.1353 120.773 22.334C119.199 26.5536 117.795 32.9089 119.47 38.529C116.287 35.3463 116.505 29.6578 117.587 24.9058ZM110.098 33.6238C110.909 32.3832 111.768 31.2014 112.671 30.0782C114.07 33.6493 117.193 37.2876 118.88 38.9223L117.701 39.9051L110.098 33.6238ZM104.978 44.164C105.429 42.8096 105.95 41.4653 106.544 40.1352C110.624 38.7583 115.192 39.3232 117.308 39.9052C111.201 41.2068 107.267 42.8429 104.978 44.164ZM102.773 56.9362C102.823 54.5188 103.074 52.0943 103.536 49.6842C107.864 46.12 114.268 43.3523 117.701 42.6558C111.571 45.5162 105.786 52.5177 102.773 56.9362ZM168.569 105.066C166.831 105.303 165.021 105.484 163.136 105.605C162.968 105.546 162.793 105.484 162.611 105.42L162.611 105.42C160.443 104.658 157.301 103.552 153.664 102.005C152.648 101.573 151.748 101.196 150.937 100.857C144.377 98.1133 143.683 97.8233 135.113 90.3024C125.483 81.852 116.522 59.7532 118.88 47.569C120.439 56.5336 123.286 61.2035 125.662 65.0995C126.88 67.0966 127.973 68.8903 128.706 70.9548C130.002 74.6075 132.029 76.8746 134.037 79.1212C135.378 80.6216 136.711 82.1129 137.813 84.0015C139.321 86.5862 141.831 88.5624 144.374 90.5646C146.471 92.216 148.591 93.8852 150.19 95.9281C152.623 99.0374 163.099 103.391 168.569 105.066ZM198.655 90.9099C197.216 92.4294 195.567 93.9274 193.685 95.3532C170.424 97.3096 150.16 84.2025 139.318 74.2955C130.2 65.9629 123.728 52.089 121.631 46.1936C132.064 54.7934 134.102 59.5497 135.582 63.0023C136.164 64.3626 136.661 65.5205 137.549 66.6314C139.009 68.4559 141.748 69.8193 144.579 71.2283L144.579 71.2283C147.847 72.8546 151.236 74.5418 152.921 77.0689C156.065 81.7854 167.661 87.1731 172.574 86.9766C174.81 86.8871 177.2 87.9975 179.622 89.1228C182.522 90.4701 185.467 91.8388 188.251 91.1964C191.361 90.4787 195.654 90.6255 198.655 90.9099ZM204.328 83.141C204.19 83.3952 204.047 83.6515 203.898 83.9095C196.855 83.6588 186.607 81.5441 181.123 80.4125C180.332 80.2492 179.64 80.1064 179.071 79.9926C176.602 79.4989 173.575 77.6756 170.476 75.8089C167.407 73.9601 164.267 72.0688 161.529 71.3843C158.818 70.7065 156.351 69.0816 153.936 67.4902L153.936 67.4901C151.449 65.8519 149.016 64.2489 146.424 63.7505C143.579 63.2034 140.358 59.7712 137.35 56.5653C134.956 54.0143 132.696 51.6065 130.868 50.9098C127.566 49.6521 123.466 45.5384 121.828 43.6388H123.203C123.812 45.1159 126.463 45.7731 129.691 46.5733C133.763 47.5829 138.754 48.82 141.714 52.2186C144.67 55.6129 149.262 57.0088 153.599 58.3272C157.046 59.3751 160.332 60.3741 162.507 62.2887C165.024 64.5035 168.446 66.0514 171.845 67.5892L171.845 67.5892L171.846 67.5893L171.846 67.5893C175.082 69.0534 178.299 70.5085 180.695 72.5213C183.804 75.1328 186.948 76.094 189.735 76.9458C191.352 77.4401 192.848 77.8975 194.147 78.6191C195.663 79.4611 198.373 80.6037 200.866 81.6545C202.14 82.1914 203.357 82.7044 204.328 83.141ZM208.215 65.7116C208.217 66.0052 208.216 66.2958 208.213 66.5833C205.503 65.6781 201.573 64.2375 199.479 63.0254C198.23 62.3019 196.248 61.8811 193.961 61.3954C190.285 60.6147 185.819 59.6662 182.33 57.0233C179.833 55.131 177.254 55.0762 174.401 55.0156C170.791 54.939 166.74 54.853 161.854 51.0212C156.884 47.1234 153.232 46.7488 149.8 46.3967C147.192 46.1293 144.711 45.8748 141.876 44.0977C136.623 40.8049 127.151 39.817 122.824 40.7316C126.368 39.6455 134.416 37.5761 138.258 37.9878C140.055 38.1804 143.055 38.8057 146.446 39.5126L146.446 39.5127C152.113 40.6941 158.875 42.1038 162.952 42.1038C165.937 42.1038 168.886 44.1548 171.964 46.2954C175.606 48.8279 179.427 51.4859 183.702 51.0212C188.458 50.5043 190.409 52.1064 192.561 53.8738C193.979 55.0381 195.484 56.2742 197.936 57.0233C201.86 58.2224 204.745 61.6385 206.899 64.189C207.372 64.7492 207.81 65.2676 208.215 65.7116ZM194.398 32.7752C195.996 34.4036 197.421 36.0607 198.69 37.7325C195.802 37.4105 192.176 36.8225 190.39 35.9298C189.367 35.4179 188.418 34.6796 187.42 33.9027C185.409 32.3371 183.196 30.6145 179.758 30.2706C177.9 30.0848 176.02 29.407 174.141 28.7298C170.818 27.5319 167.501 26.3362 164.324 27.8699C161.785 29.0956 159.112 28.4439 156.601 27.8319C154.194 27.2452 151.937 26.6948 150.09 27.8699C148.322 28.995 145.801 29.4045 143.338 29.8045C140.546 30.2579 137.829 30.6991 136.371 32.157C134.176 34.3521 125.968 36.9587 122.138 37.9877C126.539 34.2722 139.595 25.9839 152.491 25.2978C164.015 24.6848 172.033 26.2626 176.859 27.2122C178.784 27.591 180.201 27.8699 181.13 27.8699C182.734 27.8699 184.504 28.8669 186.337 29.9C188.229 30.9658 190.189 32.0699 192.105 32.157C192.805 32.1888 193.587 32.4182 194.398 32.7752ZM166.401 16.1502C169.305 17.0165 172.186 18.0982 175.016 19.3921C172.399 19.2751 170.332 19.0416 168.58 18.8438C164.91 18.4292 162.623 18.1709 159.56 19.467C157.096 20.5091 154.77 20.3635 152.47 20.2196C150 20.065 147.561 19.9124 145.017 21.2354C144.184 21.6686 143.396 22.068 142.648 22.4468L142.648 22.4473L142.647 22.4474C138.987 24.3022 136.297 25.6659 134.012 28.1136C131.811 30.4718 124.71 35.2541 121.435 37.3504C124.186 34.9264 130.003 29.4104 131.261 26.7379C132.163 24.8197 134.686 23.7438 137.415 22.58C139.438 21.7171 141.575 20.8058 143.248 19.467C146.41 16.9375 158.221 15.9343 166.401 16.1502ZM117.504 45.0141C115.343 47.5688 111.176 55.0757 111.805 64.666H115.736C115.146 61.1287 114.674 52.246 117.504 45.0141ZM105.124 62.8977C105.595 56.6092 112.788 47.7002 116.325 44.0317C111.294 51.1065 108.989 60.4738 108.464 64.2732L105.124 62.8977Z" fill="url(#paint2_radial_1087_27123)"/>
<path d="M23.7874 58.3481L136.149 65.2531C136.149 83.4568 115.748 109.821 75.2603 107.938C34.7724 106.055 23.7874 74.9826 23.7874 58.3481Z" fill="url(#paint3_radial_1087_27123)"/>
<path d="M26.5325 58.3481L133.404 64.9157C133.404 82.2299 114 107.306 75.4903 105.515C36.9808 103.724 26.5325 74.1698 26.5325 58.3481Z" fill="url(#paint4_radial_1087_27123)"/>
<path d="M26.5325 58.3481L133.404 64.9157C133.404 82.2299 114 107.306 75.4903 105.515C36.9808 103.724 26.5325 74.1698 26.5325 58.3481Z" fill="url(#paint5_radial_1087_27123)"/>
<path d="M72.4322 76.4316C74.1206 76.224 75.0498 85.3087 71.0616 84.4628C67.0735 83.617 70.7437 76.6392 72.4322 76.4316Z" fill="#4E2E2B"/>
<path d="M83.3426 78.3154C84.9616 77.7932 87.5868 86.5399 83.5107 86.461C79.4346 86.3822 81.7235 78.8376 83.3426 78.3154Z" fill="#4E2E2B"/>
<path d="M60.5131 72.7753C62.0603 72.8483 60.9511 81.8512 57.5813 80.3769C54.2115 78.9026 58.9659 72.7023 60.5131 72.7753Z" fill="#4E2E2B"/>
<path d="M93.3639 76.9678C91.8485 76.6474 90.6465 85.6383 94.2795 85.0635C97.9125 84.4887 94.8794 77.2882 93.3639 76.9678Z" fill="#4E2E2B"/>
<path d="M49.8558 68.7474C51.0433 69.1249 48.3141 75.8923 46.0007 74.0476C43.6873 72.2029 48.6684 68.3698 49.8558 68.7474Z" fill="#4E2E2B"/>
<path d="M103.414 75.2971C102.169 75.3623 103.1 82.5997 105.804 81.3996C108.509 80.1994 104.658 75.2319 103.414 75.2971Z" fill="#4E2E2B"/>
<path d="M41.8997 63.7761C42.8117 64.334 39.1512 69.4128 37.6019 67.4019C36.0525 65.391 40.9878 63.2182 41.8997 63.7761Z" fill="#4E2E2B"/>
<path d="M112.631 72.5804C111.562 72.6079 112.195 78.8363 114.542 77.8686C116.889 76.901 113.7 72.5528 112.631 72.5804Z" fill="#4E2E2B"/>
<path d="M119.301 69.3495C118.569 69.82 121.64 73.8818 122.862 72.218C124.085 70.5542 120.032 68.8789 119.301 69.3495Z" fill="#4E2E2B"/>
<path d="M124.337 43.6777C122.632 47.4924 119.027 49.5914 116.285 48.3659C113.544 47.1404 112.703 43.0544 114.408 39.2397C116.113 35.4249 119.718 33.3259 122.46 34.5515C125.202 35.777 126.042 39.8629 124.337 43.6777Z" fill="url(#paint6_radial_1087_27123)"/>
<path d="M120.396 41.9159C119.368 44.2164 117.194 45.4822 115.54 44.7432C113.887 44.0041 113.38 41.54 114.408 39.2395C115.437 36.9389 117.611 35.6731 119.264 36.4122C120.918 37.1513 121.424 39.6153 120.396 41.9159Z" fill="url(#paint7_radial_1087_27123)"/>
<defs>
<radialGradient id="paint0_radial_1087_27123" cx="0" cy="0" r="1" gradientUnits="userSpaceOnUse" gradientTransform="translate(126.823 48.782) rotate(45) scale(51.521 58.9157)">
<stop stop-color="#AED373"/>
<stop offset="1" stop-color="#538A14"/>
</radialGradient>
<radialGradient id="paint1_radial_1087_27123" cx="0" cy="0" r="1" gradientUnits="userSpaceOnUse" gradientTransform="translate(150.505 49.3422) rotate(122.696) scale(63.845 73.0085)">
<stop offset="0.706942" stop-color="#506C3E" stop-opacity="0"/>
<stop offset="0.969177" stop-color="#395428"/>
</radialGradient>
<radialGradient id="paint2_radial_1087_27123" cx="0" cy="0" r="1" gradientUnits="userSpaceOnUse" gradientTransform="translate(121.226 41.4184) rotate(21.1399) scale(190.724 220.167)">
<stop offset="0.020049" stop-color="#38AA42" stop-opacity="0"/>
<stop offset="0.106764" stop-color="#23872C"/>
<stop offset="0.263578" stop-color="#0F4214"/>
<stop offset="0.984375" stop-color="#06350B"/>
</radialGradient>
<radialGradient id="paint3_radial_1087_27123" cx="0" cy="0" r="1" gradientUnits="userSpaceOnUse" gradientTransform="translate(79.9682 61.7598) rotate(90) scale(46.2736 56.1808)">
<stop offset="0.91158" stop-color="#87B948"/>
<stop offset="1" stop-color="#1B5C21"/>
</radialGradient>
<radialGradient id="paint4_radial_1087_27123" cx="0" cy="0" r="1" gradientUnits="userSpaceOnUse" gradientTransform="translate(79.9682 60.6321) rotate(-177.65) scale(55.6985 45.0114)">
<stop offset="0.828125" stop-color="#F13735"/>
<stop offset="0.979167" stop-color="#D7D999"/>
</radialGradient>
<radialGradient id="paint5_radial_1087_27123" cx="0" cy="0" r="1" gradientUnits="userSpaceOnUse" gradientTransform="translate(79.9682 66.5573) rotate(-173.276) scale(70.1073 28.8789)">
<stop stop-color="#FFA4A4"/>
<stop offset="0.830442" stop-color="#F8787A" stop-opacity="0"/>
</radialGradient>
<radialGradient id="paint6_radial_1087_27123" cx="0" cy="0" r="1" gradientUnits="userSpaceOnUse" gradientTransform="translate(117.673 41.4587) rotate(117.314) scale(10.7051 9.61707)">
<stop offset="0.207737" stop-color="#0A220C"/>
<stop offset="1" stop-color="#339D3D" stop-opacity="0"/>
</radialGradient>
<radialGradient id="paint7_radial_1087_27123" cx="0" cy="0" r="1" gradientUnits="userSpaceOnUse" gradientTransform="translate(116.049 39.6888) rotate(110.206) scale(7.9219 5.69372)">
<stop offset="0.208054" stop-color="#6F5E34"/>
<stop offset="1" stop-color="#C4A967"/>
</radialGradient>
</defs>
</svg>
