<svg viewBox="0 0 240 120" fill="none" xmlns="http://www.w3.org/2000/svg">
<path d="M120.307 0.910645C140.448 0.911139 158.458 7.93752 170.454 18.9801C173.782 18.1775 177.255 17.7452 180.83 17.7451C205.192 17.7451 224.945 37.4946 224.946 61.8572C224.946 86.2203 205.193 105.974 180.83 105.974C169.886 105.973 159.883 101.975 152.173 95.3773C142.743 99.4442 131.879 101.777 120.307 101.778C107.172 101.778 94.9463 98.7774 84.6997 93.6375C76.7693 101.27 65.9985 105.974 54.1228 105.974C29.7598 105.974 10.0107 86.2203 10.0107 61.8572C10.0115 37.4947 29.7602 17.7452 54.1228 17.7451C59.2771 17.7451 64.2228 18.6355 68.8208 20.2601C80.7925 8.48566 99.4003 0.910645 120.307 0.910645Z" fill="url(#paint0_linear_10476_34987)"/>
<path d="M120.307 0.910645C140.448 0.911139 158.458 7.93752 170.454 18.9801C173.782 18.1775 177.255 17.7452 180.83 17.7451C205.192 17.7451 224.945 37.4946 224.946 61.8572C224.946 86.2203 205.193 105.974 180.83 105.974C169.886 105.973 159.883 101.975 152.173 95.3773C142.743 99.4442 131.879 101.777 120.307 101.778C107.172 101.778 94.9463 98.7774 84.6997 93.6375C76.7693 101.27 65.9985 105.974 54.1228 105.974C29.7598 105.974 10.0107 86.2203 10.0107 61.8572C10.0115 37.4947 29.7602 17.7452 54.1228 17.7451C59.2771 17.7451 64.2228 18.6355 68.8208 20.2601C80.7925 8.48566 99.4003 0.910645 120.307 0.910645Z" fill="url(#paint1_radial_10476_34987)"/>
<path d="M120.307 0.910645C140.448 0.911139 158.458 7.93752 170.454 18.9801C173.782 18.1775 177.255 17.7452 180.83 17.7451C205.192 17.7451 224.945 37.4946 224.946 61.8572C224.946 86.2203 205.193 105.974 180.83 105.974C169.886 105.973 159.883 101.975 152.173 95.3773C142.743 99.4442 131.879 101.777 120.307 101.778C107.172 101.778 94.9463 98.7774 84.6997 93.6375C76.7693 101.27 65.9985 105.974 54.1228 105.974C29.7598 105.974 10.0107 86.2203 10.0107 61.8572C10.0115 37.4947 29.7602 17.7452 54.1228 17.7451C59.2771 17.7451 64.2228 18.6355 68.8208 20.2601C80.7925 8.48566 99.4003 0.910645 120.307 0.910645Z" fill="url(#paint2_radial_10476_34987)"/>
<path d="M170.534 64.6174C141.154 60.7519 125.305 75.8278 68.8652 89.744H219.242C212.799 82.6569 194.037 67.7098 170.534 64.6174Z" fill="url(#paint3_linear_10476_34987)"/>
<path d="M170.534 64.6174C141.154 60.7519 125.305 75.8278 68.8652 89.744H219.242C212.799 82.6569 194.037 67.7098 170.534 64.6174Z" fill="url(#paint4_radial_10476_34987)"/>
<path d="M48.9594 71.1231C69.8179 68.3788 81.0705 79.0821 121.141 88.9621H14.3783C18.9525 83.9306 32.2727 73.3186 48.9594 71.1231Z" fill="url(#paint5_linear_10476_34987)"/>
<path d="M48.9594 71.1231C69.8179 68.3788 81.0705 79.0821 121.141 88.9621H14.3783C18.9525 83.9306 32.2727 73.3186 48.9594 71.1231Z" fill="url(#paint6_radial_10476_34987)"/>
<path d="M31.791 101.485C31.0202 97.5275 5.02998 92.9617 13.907 86.7736C22.784 80.5855 212.801 83.731 220.157 86.7737C227.513 89.8163 218.603 98.2292 210.638 98.3121C200.253 98.4204 210.638 101.485 205.87 108.857C201.102 116.23 150.241 116.919 116.559 116.919C82.878 116.919 42.2548 113.68 35.8276 109.723C29.4005 105.765 32.5618 105.443 31.791 101.485Z" fill="url(#paint7_radial_10476_34987)"/>
<path d="M31.791 101.485C31.0202 97.5275 5.02998 92.9617 13.907 86.7736C22.784 80.5855 212.801 83.731 220.157 86.7737C227.513 89.8163 218.603 98.2292 210.638 98.3121C200.253 98.4204 210.638 101.485 205.87 108.857C201.102 116.23 150.241 116.919 116.559 116.919C82.878 116.919 42.2548 113.68 35.8276 109.723C29.4005 105.765 32.5618 105.443 31.791 101.485Z" fill="url(#paint8_radial_10476_34987)"/>
<path d="M155.373 8.77539C161.056 11.5664 166.144 15.0122 170.454 18.9797C173.637 18.2121 176.955 17.7852 180.365 17.7492C180.677 18.1965 180.988 18.6473 181.285 19.1059C182.205 18.6495 183.151 18.2366 184.124 17.88C186.631 18.0651 189.08 18.4516 191.453 19.0383C190.731 19.4735 189.904 19.7364 189.014 19.7369C188.861 19.7369 188.705 19.7245 188.555 19.7099C188.853 20.7904 189.014 21.9347 189.014 23.1173C189.014 29.8089 183.884 35.2393 177.557 35.2417C174.93 35.2417 172.509 34.2949 170.575 32.7222C169.062 33.5022 167.36 33.943 165.563 33.9437C163.434 33.9435 161.435 33.324 159.727 32.2535C158.294 35.4132 155.252 37.6019 151.717 37.6035C146.807 37.6035 142.821 33.3935 142.82 28.2015C142.82 28.1511 142.833 28.0984 142.834 28.0482C142.664 28.0584 142.491 28.075 142.32 28.0753C139.591 28.0753 137.149 26.7685 135.518 24.7219C134.66 25.3805 133.604 25.7716 132.463 25.7721C129.585 25.7718 127.244 23.307 127.243 20.2643C127.243 17.2205 129.584 14.7523 132.463 14.752C133.04 14.7522 133.598 14.8524 134.117 15.0359C135.461 11.6479 138.628 9.27118 142.32 9.27118C145.191 9.27257 147.74 10.7146 149.365 12.9491C150.559 11.0063 152.626 9.71814 154.981 9.7174C155.131 9.71752 155.284 9.72956 155.431 9.73993C155.397 9.42386 155.375 9.10083 155.373 8.77539Z" fill="url(#paint9_radial_10476_34987)"/>
<path d="M82.4503 10.2271C83.9377 12.3187 84.8302 14.913 84.8302 17.7316C84.8301 18.2181 84.7957 18.6972 84.7445 19.1694C84.9562 19.1545 85.1693 19.1379 85.3845 19.1378C88.7428 19.1378 91.6899 20.9781 93.3939 23.7487C95.7122 20.5594 99.3515 18.5023 103.449 18.5023C108.714 18.5029 113.224 21.8962 115.141 26.728C115.883 26.4652 116.677 26.3178 117.503 26.3178C121.608 26.3178 124.94 29.8415 124.94 34.1829C124.939 38.5232 121.607 42.0389 117.503 42.0389C115.874 42.0389 114.374 41.4778 113.149 40.538C110.823 43.4591 107.343 45.3242 103.449 45.3247C103.203 45.3247 102.958 45.2988 102.715 45.2841C102.716 45.3557 102.728 45.4287 102.728 45.5005C102.728 52.9063 97.0481 58.9093 90.045 58.9094C85.0017 58.9094 80.658 55.7917 78.6147 51.2832C76.1781 52.8103 73.3365 53.6896 70.2989 53.6901C67.7343 53.6901 65.306 53.0635 63.146 51.9503C60.3884 54.1946 56.9382 55.5426 53.1895 55.5426C44.164 55.5411 36.8471 47.7978 36.8464 38.2529C36.8465 36.565 37.0778 34.9317 37.5044 33.3896C37.2883 33.4107 37.0677 33.4302 36.8464 33.4302C32.9486 33.4293 29.7889 30.0883 29.7881 25.9662C29.7881 25.6471 29.8099 25.3329 29.8467 25.0242C36.8102 20.4252 45.1528 17.7453 54.1225 17.7451C59.2764 17.7451 64.2228 18.6357 68.8205 20.2601C72.7117 16.433 77.3059 13.0509 82.4503 10.2271Z" fill="url(#paint10_radial_10476_34987)"/>
<path d="M202.36 17.0688C211.032 17.0692 218.063 24.0996 218.063 32.772C218.063 32.9484 218.051 33.1243 218.045 33.2993C218.065 33.2992 218.084 33.2993 218.104 33.2993C225.49 33.2993 231.476 39.2862 231.477 46.6722C231.477 52.0588 228.286 56.6866 223.697 58.8056C223.927 59.7179 224.053 60.6567 224.053 61.6181C224.053 70.0655 214.781 76.9156 203.343 76.9156C195.505 76.9154 188.687 73.6978 185.17 68.9559C184.348 69.1182 183.501 69.2128 182.632 69.2128C175.444 69.2126 169.616 63.384 169.615 56.196C169.615 52.1106 171.498 48.4638 174.442 46.0773C174.112 44.9891 173.933 43.8344 173.933 42.6383C173.933 36.1123 179.225 30.8203 185.751 30.8203C186.096 30.8204 186.437 30.841 186.774 30.8699C187.713 23.0945 194.331 17.0688 202.36 17.0688Z" fill="url(#paint11_linear_10476_34987)"/>
<path d="M202.36 17.0688C211.032 17.0692 218.063 24.0996 218.063 32.772C218.063 32.9484 218.051 33.1243 218.045 33.2993C218.065 33.2992 218.084 33.2993 218.104 33.2993C225.49 33.2993 231.476 39.2862 231.477 46.6722C231.477 52.0588 228.286 56.6866 223.697 58.8056C223.927 59.7179 224.053 60.6567 224.053 61.6181C224.053 70.0655 214.781 76.9156 203.343 76.9156C195.505 76.9154 188.687 73.6978 185.17 68.9559C184.348 69.1182 183.501 69.2128 182.632 69.2128C175.444 69.2126 169.616 63.384 169.615 56.196C169.615 52.1106 171.498 48.4638 174.442 46.0773C174.112 44.9891 173.933 43.8344 173.933 42.6383C173.933 36.1123 179.225 30.8203 185.751 30.8203C186.096 30.8204 186.437 30.841 186.774 30.8699C187.713 23.0945 194.331 17.0688 202.36 17.0688Z" fill="url(#paint12_radial_10476_34987)"/>
<path d="M210.635 48.4751C213.369 53.8945 218.71 57.6974 224.95 58.1295C224.544 58.3723 224.129 58.606 223.697 58.8056C223.927 59.7176 224.053 60.657 224.053 61.6181C224.052 70.065 214.78 76.9156 203.342 76.9156C195.505 76.9151 188.687 73.6975 185.169 68.9559C184.349 69.118 183.5 69.2128 182.632 69.2128C180.269 69.2125 178.06 68.5694 176.15 67.4685C179.79 64.9308 182.347 60.8737 182.947 56.1779C187.212 55.3985 190.883 52.8601 193.224 49.3134C195.59 50.7721 198.359 51.6121 201.319 51.6121C204.805 51.6116 208.025 50.4457 210.635 48.4751Z" fill="url(#paint13_radial_10476_34987)"/>
<path d="M197.101 88.9582C197.101 85.3912 198.349 67.9077 197.101 61.8434L201.159 60.4189C200.299 64.1166 199.91 68.2009 201.159 69.1135C202.408 70.026 210.492 67.0141 212.575 61.8439L214.889 62.7168C210.392 73.0103 201.159 70.8698 201.159 73.0103C201.159 75.1508 201.159 79.9059 202.408 88.9572L197.101 88.9582Z" fill="#745935"/>
<path d="M38.5279 9.47168C47.4176 9.47168 54.7063 16.2981 55.4524 24.9945C61.4199 25.695 66.0527 30.7606 66.0534 36.9161C66.0534 39.4868 65.2335 41.8628 63.8584 43.8166C65.2708 45.6171 66.121 47.8817 66.121 50.3476C66.1207 56.2001 61.3726 60.944 55.5201 60.944C52.6836 60.9435 50.1155 59.8206 48.2139 58.0053C46.1071 59.8293 43.3677 60.944 40.3623 60.944C35.9272 60.9434 32.0629 58.5343 29.9822 54.9585C28.232 55.7253 26.3002 56.1574 24.2671 56.1574C16.3923 56.1567 10.0107 49.7715 10.0107 41.8966C10.0118 34.9361 14.9977 29.1395 21.5943 27.8881C21.5554 27.4192 21.5357 26.9429 21.5357 26.4639C21.5368 17.0791 29.1429 9.47168 38.5279 9.47168Z" fill="url(#paint14_linear_10476_34987)"/>
<path d="M38.5279 9.47168C47.4176 9.47168 54.7063 16.2981 55.4524 24.9945C61.4199 25.695 66.0527 30.7606 66.0534 36.9161C66.0534 39.4868 65.2335 41.8628 63.8584 43.8166C65.2708 45.6171 66.121 47.8817 66.121 50.3476C66.1207 56.2001 61.3726 60.944 55.5201 60.944C52.6836 60.9435 50.1155 59.8206 48.2139 58.0053C46.1071 59.8293 43.3677 60.944 40.3623 60.944C35.9272 60.9434 32.0629 58.5343 29.9822 54.9585C28.232 55.7253 26.3002 56.1574 24.2671 56.1574C16.3923 56.1567 10.0107 49.7715 10.0107 41.8966C10.0118 34.9361 14.9977 29.1395 21.5943 27.8881C21.5554 27.4192 21.5357 26.9429 21.5357 26.4639C21.5368 17.0791 29.1429 9.47168 38.5279 9.47168Z" fill="url(#paint15_radial_10476_34987)"/>
<path d="M32.0373 42.0073C34.8553 44.1346 38.3337 45.3964 42.0974 45.3967C45.2927 45.3967 48.2822 44.4839 50.8368 42.9088C53.3638 46.7377 57.3255 49.4814 61.9291 50.3231C62.2213 52.6081 62.9478 54.751 64.0114 56.6693C62.0784 59.2596 58.9999 60.9466 55.5198 60.9466C52.6838 60.9459 50.1152 59.8229 48.2136 58.0079C46.107 59.8315 43.3671 60.9466 40.3621 60.9466C35.9274 60.9459 32.0627 58.5364 29.982 54.9611C28.232 55.7277 26.2997 56.16 24.2668 56.16C20.583 56.1595 17.2368 54.7488 14.707 52.455C14.9047 52.4614 15.1028 52.4776 15.302 52.4776C22.5841 52.4768 28.899 48.2249 32.0373 42.0073Z" fill="url(#paint16_radial_10476_34987)"/>
<path d="M45.3604 92.8095C43.9519 84.2488 44.2467 50.5667 45.3604 45.1577L41.7405 45.4683C42.5079 48.7664 42.8542 53.8632 41.7405 54.6772C40.6269 55.4912 35.9491 53.6765 32.9933 45.1577L30.9289 45.9363C36.2378 58.7025 41.7406 56.2438 41.7406 58.1529C41.7406 60.0621 40.3244 84.7354 39.2107 92.8087L45.3604 92.8095Z" fill="#745935"/>
<path d="M47.982 101.846C48.5832 111.165 104.866 105.215 105.401 101.846L97.8408 97.7264C81.8074 95.9226 47.501 94.39 47.982 101.846Z" fill="url(#paint17_radial_10476_34987)"/>
<path d="M17.0767 100.236C17.6779 109.556 73.9606 103.606 74.4961 100.236L66.9355 96.117C50.9022 94.3132 16.5957 92.7806 17.0767 100.236Z" fill="url(#paint18_radial_10476_34987)"/>
<path d="M70.7773 96.9022C69.8547 95.0147 68.864 90.175 72.281 85.9182C69.1651 83.4051 62.261 80.066 61.6809 86.816C60.9558 95.2534 64.4106 100.818 66.9872 101.483C70.0523 102.274 74.1074 101.911 74.3381 100.395C74.5688 98.8788 73.1176 96.4732 70.7773 96.9022Z" fill="url(#paint19_linear_10476_34987)"/>
<path d="M70.7773 96.9022C69.8547 95.0147 68.864 90.175 72.281 85.9182C69.1651 83.4051 62.261 80.066 61.6809 86.816C60.9558 95.2534 64.4106 100.818 66.9872 101.483C70.0523 102.274 74.1074 101.911 74.3381 100.395C74.5688 98.8788 73.1176 96.4732 70.7773 96.9022Z" fill="url(#paint20_radial_10476_34987)"/>
<path d="M70.7773 96.9022C69.8547 95.0147 68.864 90.175 72.281 85.9182C69.1651 83.4051 62.261 80.066 61.6809 86.816C60.9558 95.2534 64.4106 100.818 66.9872 101.483C70.0523 102.274 74.1074 101.911 74.3381 100.395C74.5688 98.8788 73.1176 96.4732 70.7773 96.9022Z" fill="url(#paint21_radial_10476_34987)"/>
<path d="M70.7773 96.9022C69.8547 95.0147 68.864 90.175 72.281 85.9182C69.1651 83.4051 62.261 80.066 61.6809 86.816C60.9558 95.2534 64.4106 100.818 66.9872 101.483C70.0523 102.274 74.1074 101.911 74.3381 100.395C74.5688 98.8788 73.1176 96.4732 70.7773 96.9022Z" fill="url(#paint22_radial_10476_34987)"/>
<path d="M29.3428 52.793C34.2492 63.6959 53.5103 59.8191 59.2042 65.3918C58.5378 67.2694 56.7932 71.376 55.1457 72.7812C53.0863 74.5378 47.927 75.2141 45.9389 73.3869C42.2441 73.8109 39.0944 72.9024 36.2476 70.6612C36.2476 70.6612 38.4471 70.9133 39.0944 69.9344C34.3094 69.6921 29.3428 63.5744 29.3428 52.793Z" fill="url(#paint23_linear_10476_34987)"/>
<path d="M29.3428 52.793C34.2492 63.6959 53.5103 59.8191 59.2042 65.3918C58.5378 67.2694 56.7932 71.376 55.1457 72.7812C53.0863 74.5378 47.927 75.2141 45.9389 73.3869C42.2441 73.8109 39.0944 72.9024 36.2476 70.6612C36.2476 70.6612 38.4471 70.9133 39.0944 69.9344C34.3094 69.6921 29.3428 63.5744 29.3428 52.793Z" fill="url(#paint24_radial_10476_34987)"/>
<path d="M101.51 97.9092C99.7863 90.7898 103.458 86.294 103.683 79.8488C102.184 78.9492 92.9668 88.0925 92.9668 88.767C92.9668 89.4414 94.6902 101.207 97.388 102.331C100.086 103.455 103.233 103.305 105.182 102.331C107.13 101.357 104.282 97.0102 101.51 97.9092Z" fill="url(#paint25_linear_10476_34987)"/>
<path d="M101.51 97.9092C99.7863 90.7898 103.458 86.294 103.683 79.8488C102.184 78.9492 92.9668 88.0925 92.9668 88.767C92.9668 89.4414 94.6902 101.207 97.388 102.331C100.086 103.455 103.233 103.305 105.182 102.331C107.13 101.357 104.282 97.0102 101.51 97.9092Z" fill="url(#paint26_radial_10476_34987)"/>
<path d="M101.51 97.9092C99.7863 90.7898 103.458 86.294 103.683 79.8488C102.184 78.9492 92.9668 88.0925 92.9668 88.767C92.9668 89.4414 94.6902 101.207 97.388 102.331C100.086 103.455 103.233 103.305 105.182 102.331C107.13 101.357 104.282 97.0102 101.51 97.9092Z" fill="url(#paint27_radial_10476_34987)"/>
<path d="M86.6605 40.4311C89.9144 40.3388 91.3866 37.4828 96.923 37.6075C102.459 37.7322 103.447 40.7603 105.751 40.7603C108.055 40.7603 115.625 47.2115 115.625 49.9104C115.625 53.926 113.387 51.8853 112.399 55.1109C111.412 58.3365 109.536 58.4872 108.055 57.6782C105.751 62.2932 109.003 67.9475 110.425 69.0007C110.425 69.0007 108.782 70.076 107.66 69.0007C107.243 70.8439 106.659 74.8068 107.66 75.9127C106.277 76.7805 105.093 75.2544 105.093 75.2544C105.751 77.4926 106.277 81.3107 103.315 82.9564C103.315 82.9564 103.315 81.7059 102.459 81.3107C102.459 85.8397 100.481 87.3822 98.773 87.5644C98.9924 86.4749 98.773 85.1287 98.773 85.1287C97.983 88.2885 94.5651 91.1424 91.7345 90.6158C92.1065 89.6852 91.7345 88.9838 91.7345 88.9838C87.179 90.7553 88.6975 98.0948 91.7345 99.9929C94.8981 100.373 94.4715 104.247 92.8734 104.675C91.2753 105.103 88.859 105.396 86.1667 104.675C84.1423 104.133 80.0927 95.4808 80.0927 88.9838C72.4999 88.9838 69.7162 84.4282 65.4138 84.4282C64.6546 86.5795 61.5844 90.4112 58.4208 91.8031C55.2573 93.1951 54.9109 98.0948 56.6824 98.0948C60.2256 98.6009 59.8269 101.76 58.7234 102.438C57.62 103.116 54.9695 103.446 52.7574 102.871C50.5453 102.295 49.7226 97.9682 48.5837 93.1596C47.4448 88.351 51.1146 89.1103 50.6084 81.0116C50.1023 72.9129 53.8988 67.3451 59.7198 63.9285C65.5407 60.5119 78.037 66.367 84.1423 58.4872C82.4973 58.4872 82.1177 57.0952 81.4849 55.5767C80.8522 54.0582 77.9416 52.9194 77.6885 51.0212C77.4354 49.1231 83.4066 40.5235 86.6605 40.4311Z" fill="url(#paint28_linear_10476_34987)"/>
<path d="M86.6605 40.4311C89.9144 40.3388 91.3866 37.4828 96.923 37.6075C102.459 37.7322 103.447 40.7603 105.751 40.7603C108.055 40.7603 115.625 47.2115 115.625 49.9104C115.625 53.926 113.387 51.8853 112.399 55.1109C111.412 58.3365 109.536 58.4872 108.055 57.6782C105.751 62.2932 109.003 67.9475 110.425 69.0007C110.425 69.0007 108.782 70.076 107.66 69.0007C107.243 70.8439 106.659 74.8068 107.66 75.9127C106.277 76.7805 105.093 75.2544 105.093 75.2544C105.751 77.4926 106.277 81.3107 103.315 82.9564C103.315 82.9564 103.315 81.7059 102.459 81.3107C102.459 85.8397 100.481 87.3822 98.773 87.5644C98.9924 86.4749 98.773 85.1287 98.773 85.1287C97.983 88.2885 94.5651 91.1424 91.7345 90.6158C92.1065 89.6852 91.7345 88.9838 91.7345 88.9838C87.179 90.7553 88.6975 98.0948 91.7345 99.9929C94.8981 100.373 94.4715 104.247 92.8734 104.675C91.2753 105.103 88.859 105.396 86.1667 104.675C84.1423 104.133 80.0927 95.4808 80.0927 88.9838C72.4999 88.9838 69.7162 84.4282 65.4138 84.4282C64.6546 86.5795 61.5844 90.4112 58.4208 91.8031C55.2573 93.1951 54.9109 98.0948 56.6824 98.0948C60.2256 98.6009 59.8269 101.76 58.7234 102.438C57.62 103.116 54.9695 103.446 52.7574 102.871C50.5453 102.295 49.7226 97.9682 48.5837 93.1596C47.4448 88.351 51.1146 89.1103 50.6084 81.0116C50.1023 72.9129 53.8988 67.3451 59.7198 63.9285C65.5407 60.5119 78.037 66.367 84.1423 58.4872C82.4973 58.4872 82.1177 57.0952 81.4849 55.5767C80.8522 54.0582 77.9416 52.9194 77.6885 51.0212C77.4354 49.1231 83.4066 40.5235 86.6605 40.4311Z" fill="url(#paint29_radial_10476_34987)"/>
<path d="M86.6605 40.4311C89.9144 40.3388 91.3866 37.4828 96.923 37.6075C102.459 37.7322 103.447 40.7603 105.751 40.7603C108.055 40.7603 115.625 47.2115 115.625 49.9104C115.625 53.926 113.387 51.8853 112.399 55.1109C111.412 58.3365 109.536 58.4872 108.055 57.6782C105.751 62.2932 109.003 67.9475 110.425 69.0007C110.425 69.0007 108.782 70.076 107.66 69.0007C107.243 70.8439 106.659 74.8068 107.66 75.9127C106.277 76.7805 105.093 75.2544 105.093 75.2544C105.751 77.4926 106.277 81.3107 103.315 82.9564C103.315 82.9564 103.315 81.7059 102.459 81.3107C102.459 85.8397 100.481 87.3822 98.773 87.5644C98.9924 86.4749 98.773 85.1287 98.773 85.1287C97.983 88.2885 94.5651 91.1424 91.7345 90.6158C92.1065 89.6852 91.7345 88.9838 91.7345 88.9838C87.179 90.7553 88.6975 98.0948 91.7345 99.9929C94.8981 100.373 94.4715 104.247 92.8734 104.675C91.2753 105.103 88.859 105.396 86.1667 104.675C84.1423 104.133 80.0927 95.4808 80.0927 88.9838C72.4999 88.9838 69.7162 84.4282 65.4138 84.4282C64.6546 86.5795 61.5844 90.4112 58.4208 91.8031C55.2573 93.1951 54.9109 98.0948 56.6824 98.0948C60.2256 98.6009 59.8269 101.76 58.7234 102.438C57.62 103.116 54.9695 103.446 52.7574 102.871C50.5453 102.295 49.7226 97.9682 48.5837 93.1596C47.4448 88.351 51.1146 89.1103 50.6084 81.0116C50.1023 72.9129 53.8988 67.3451 59.7198 63.9285C65.5407 60.5119 78.037 66.367 84.1423 58.4872C82.4973 58.4872 82.1177 57.0952 81.4849 55.5767C80.8522 54.0582 77.9416 52.9194 77.6885 51.0212C77.4354 49.1231 83.4066 40.5235 86.6605 40.4311Z" fill="url(#paint30_radial_10476_34987)"/>
<path d="M86.6605 40.4311C89.9144 40.3388 91.3866 37.4828 96.923 37.6075C102.459 37.7322 103.447 40.7603 105.751 40.7603C108.055 40.7603 115.625 47.2115 115.625 49.9104C115.625 53.926 113.387 51.8853 112.399 55.1109C111.412 58.3365 109.536 58.4872 108.055 57.6782C105.751 62.2932 109.003 67.9475 110.425 69.0007C110.425 69.0007 108.782 70.076 107.66 69.0007C107.243 70.8439 106.659 74.8068 107.66 75.9127C106.277 76.7805 105.093 75.2544 105.093 75.2544C105.751 77.4926 106.277 81.3107 103.315 82.9564C103.315 82.9564 103.315 81.7059 102.459 81.3107C102.459 85.8397 100.481 87.3822 98.773 87.5644C98.9924 86.4749 98.773 85.1287 98.773 85.1287C97.983 88.2885 94.5651 91.1424 91.7345 90.6158C92.1065 89.6852 91.7345 88.9838 91.7345 88.9838C87.179 90.7553 88.6975 98.0948 91.7345 99.9929C94.8981 100.373 94.4715 104.247 92.8734 104.675C91.2753 105.103 88.859 105.396 86.1667 104.675C84.1423 104.133 80.0927 95.4808 80.0927 88.9838C72.4999 88.9838 69.7162 84.4282 65.4138 84.4282C64.6546 86.5795 61.5844 90.4112 58.4208 91.8031C55.2573 93.1951 54.9109 98.0948 56.6824 98.0948C60.2256 98.6009 59.8269 101.76 58.7234 102.438C57.62 103.116 54.9695 103.446 52.7574 102.871C50.5453 102.295 49.7226 97.9682 48.5837 93.1596C47.4448 88.351 51.1146 89.1103 50.6084 81.0116C50.1023 72.9129 53.8988 67.3451 59.7198 63.9285C65.5407 60.5119 78.037 66.367 84.1423 58.4872C82.4973 58.4872 82.1177 57.0952 81.4849 55.5767C80.8522 54.0582 77.9416 52.9194 77.6885 51.0212C77.4354 49.1231 83.4066 40.5235 86.6605 40.4311Z" fill="url(#paint31_radial_10476_34987)"/>
<path d="M86.6605 40.4311C89.9144 40.3388 91.3866 37.4828 96.923 37.6075C102.459 37.7322 103.447 40.7603 105.751 40.7603C108.055 40.7603 115.625 47.2115 115.625 49.9104C115.625 53.926 113.387 51.8853 112.399 55.1109C111.412 58.3365 109.536 58.4872 108.055 57.6782C105.751 62.2932 109.003 67.9475 110.425 69.0007C110.425 69.0007 108.782 70.076 107.66 69.0007C107.243 70.8439 106.659 74.8068 107.66 75.9127C106.277 76.7805 105.093 75.2544 105.093 75.2544C105.751 77.4926 106.277 81.3107 103.315 82.9564C103.315 82.9564 103.315 81.7059 102.459 81.3107C102.459 85.8397 100.481 87.3822 98.773 87.5644C98.9924 86.4749 98.773 85.1287 98.773 85.1287C97.983 88.2885 94.5651 91.1424 91.7345 90.6158C92.1065 89.6852 91.7345 88.9838 91.7345 88.9838C87.179 90.7553 88.6975 98.0948 91.7345 99.9929C94.8981 100.373 94.4715 104.247 92.8734 104.675C91.2753 105.103 88.859 105.396 86.1667 104.675C84.1423 104.133 80.0927 95.4808 80.0927 88.9838C72.4999 88.9838 69.7162 84.4282 65.4138 84.4282C64.6546 86.5795 61.5844 90.4112 58.4208 91.8031C55.2573 93.1951 54.9109 98.0948 56.6824 98.0948C60.2256 98.6009 59.8269 101.76 58.7234 102.438C57.62 103.116 54.9695 103.446 52.7574 102.871C50.5453 102.295 49.7226 97.9682 48.5837 93.1596C47.4448 88.351 51.1146 89.1103 50.6084 81.0116C50.1023 72.9129 53.8988 67.3451 59.7198 63.9285C65.5407 60.5119 78.037 66.367 84.1423 58.4872C82.4973 58.4872 82.1177 57.0952 81.4849 55.5767C80.8522 54.0582 77.9416 52.9194 77.6885 51.0212C77.4354 49.1231 83.4066 40.5235 86.6605 40.4311Z" fill="url(#paint32_radial_10476_34987)"/>
<path d="M86.6605 40.4311C89.9144 40.3388 91.3866 37.4828 96.923 37.6075C102.459 37.7322 103.447 40.7603 105.751 40.7603C108.055 40.7603 115.625 47.2115 115.625 49.9104C115.625 53.926 113.387 51.8853 112.399 55.1109C111.412 58.3365 109.536 58.4872 108.055 57.6782C105.751 62.2932 109.003 67.9475 110.425 69.0007C110.425 69.0007 108.782 70.076 107.66 69.0007C107.243 70.8439 106.659 74.8068 107.66 75.9127C106.277 76.7805 105.093 75.2544 105.093 75.2544C105.751 77.4926 106.277 81.3107 103.315 82.9564C103.315 82.9564 103.315 81.7059 102.459 81.3107C102.459 85.8397 100.481 87.3822 98.773 87.5644C98.9924 86.4749 98.773 85.1287 98.773 85.1287C97.983 88.2885 94.5651 91.1424 91.7345 90.6158C92.1065 89.6852 91.7345 88.9838 91.7345 88.9838C87.179 90.7553 88.6975 98.0948 91.7345 99.9929C94.8981 100.373 94.4715 104.247 92.8734 104.675C91.2753 105.103 88.859 105.396 86.1667 104.675C84.1423 104.133 80.0927 95.4808 80.0927 88.9838C72.4999 88.9838 69.7162 84.4282 65.4138 84.4282C64.6546 86.5795 61.5844 90.4112 58.4208 91.8031C55.2573 93.1951 54.9109 98.0948 56.6824 98.0948C60.2256 98.6009 59.8269 101.76 58.7234 102.438C57.62 103.116 54.9695 103.446 52.7574 102.871C50.5453 102.295 49.7226 97.9682 48.5837 93.1596C47.4448 88.351 51.1146 89.1103 50.6084 81.0116C50.1023 72.9129 53.8988 67.3451 59.7198 63.9285C65.5407 60.5119 78.037 66.367 84.1423 58.4872C82.4973 58.4872 82.1177 57.0952 81.4849 55.5767C80.8522 54.0582 77.9416 52.9194 77.6885 51.0212C77.4354 49.1231 83.4066 40.5235 86.6605 40.4311Z" fill="url(#paint33_radial_10476_34987)"/>
<path d="M86.6605 40.4311C89.9144 40.3388 91.3866 37.4828 96.923 37.6075C102.459 37.7322 103.447 40.7603 105.751 40.7603C108.055 40.7603 115.625 47.2115 115.625 49.9104C115.625 53.926 113.387 51.8853 112.399 55.1109C111.412 58.3365 109.536 58.4872 108.055 57.6782C105.751 62.2932 109.003 67.9475 110.425 69.0007C110.425 69.0007 108.782 70.076 107.66 69.0007C107.243 70.8439 106.659 74.8068 107.66 75.9127C106.277 76.7805 105.093 75.2544 105.093 75.2544C105.751 77.4926 106.277 81.3107 103.315 82.9564C103.315 82.9564 103.315 81.7059 102.459 81.3107C102.459 85.8397 100.481 87.3822 98.773 87.5644C98.9924 86.4749 98.773 85.1287 98.773 85.1287C97.983 88.2885 94.5651 91.1424 91.7345 90.6158C92.1065 89.6852 91.7345 88.9838 91.7345 88.9838C87.179 90.7553 88.6975 98.0948 91.7345 99.9929C94.8981 100.373 94.4715 104.247 92.8734 104.675C91.2753 105.103 88.859 105.396 86.1667 104.675C84.1423 104.133 80.0927 95.4808 80.0927 88.9838C72.4999 88.9838 69.7162 84.4282 65.4138 84.4282C64.6546 86.5795 61.5844 90.4112 58.4208 91.8031C55.2573 93.1951 54.9109 98.0948 56.6824 98.0948C60.2256 98.6009 59.8269 101.76 58.7234 102.438C57.62 103.116 54.9695 103.446 52.7574 102.871C50.5453 102.295 49.7226 97.9682 48.5837 93.1596C47.4448 88.351 51.1146 89.1103 50.6084 81.0116C50.1023 72.9129 53.8988 67.3451 59.7198 63.9285C65.5407 60.5119 78.037 66.367 84.1423 58.4872C82.4973 58.4872 82.1177 57.0952 81.4849 55.5767C80.8522 54.0582 77.9416 52.9194 77.6885 51.0212C77.4354 49.1231 83.4066 40.5235 86.6605 40.4311Z" fill="url(#paint34_radial_10476_34987)"/>
<path d="M86.6605 40.4311C89.9144 40.3388 91.3866 37.4828 96.923 37.6075C102.459 37.7322 103.447 40.7603 105.751 40.7603C108.055 40.7603 115.625 47.2115 115.625 49.9104C115.625 53.926 113.387 51.8853 112.399 55.1109C111.412 58.3365 109.536 58.4872 108.055 57.6782C105.751 62.2932 109.003 67.9475 110.425 69.0007C110.425 69.0007 108.782 70.076 107.66 69.0007C107.243 70.8439 106.659 74.8068 107.66 75.9127C106.277 76.7805 105.093 75.2544 105.093 75.2544C105.751 77.4926 106.277 81.3107 103.315 82.9564C103.315 82.9564 103.315 81.7059 102.459 81.3107C102.459 85.8397 100.481 87.3822 98.773 87.5644C98.9924 86.4749 98.773 85.1287 98.773 85.1287C97.983 88.2885 94.5651 91.1424 91.7345 90.6158C92.1065 89.6852 91.7345 88.9838 91.7345 88.9838C87.179 90.7553 88.6975 98.0948 91.7345 99.9929C94.8981 100.373 94.4715 104.247 92.8734 104.675C91.2753 105.103 88.859 105.396 86.1667 104.675C84.1423 104.133 80.0927 95.4808 80.0927 88.9838C72.4999 88.9838 69.7162 84.4282 65.4138 84.4282C64.6546 86.5795 61.5844 90.4112 58.4208 91.8031C55.2573 93.1951 54.9109 98.0948 56.6824 98.0948C60.2256 98.6009 59.8269 101.76 58.7234 102.438C57.62 103.116 54.9695 103.446 52.7574 102.871C50.5453 102.295 49.7226 97.9682 48.5837 93.1596C47.4448 88.351 51.1146 89.1103 50.6084 81.0116C50.1023 72.9129 53.8988 67.3451 59.7198 63.9285C65.5407 60.5119 78.037 66.367 84.1423 58.4872C82.4973 58.4872 82.1177 57.0952 81.4849 55.5767C80.8522 54.0582 77.9416 52.9194 77.6885 51.0212C77.4354 49.1231 83.4066 40.5235 86.6605 40.4311Z" fill="url(#paint35_radial_10476_34987)"/>
<path d="M88.0494 44.2935C91.7804 42.9079 96.0017 69.3391 83.7764 58.9199C83.8975 58.7793 84.0204 58.6376 84.137 58.4872C90.0462 57.9348 84.434 45.6403 88.0494 44.2935Z" fill="url(#paint36_radial_10476_34987)"/>
<path d="M107.411 59.5774C101.576 59.9896 105.372 40.6599 106.902 43.9193C109.026 48.4466 106.778 55.3078 108.051 57.6889C107.745 58.3046 107.538 58.9382 107.411 59.5774Z" fill="url(#paint37_radial_10476_34987)"/>
<path d="M98.5466 55.2627C98.5466 58.5961 101.792 59.5542 104.51 57.3946V58.0301C104.184 58.3965 103.365 59.0244 102.531 59.2606C101.979 62.1137 99.504 62.5163 98.3123 62.5509V62.5599C98.2833 62.5599 98.2533 62.5558 98.2221 62.5554C98.191 62.5558 98.161 62.5599 98.132 62.5599V62.5509C96.9405 62.5164 94.4655 62.1142 93.9132 59.2606C93.0794 59.0245 92.2604 58.3965 91.9346 58.0301V57.3946C94.6524 59.5542 97.8976 58.5961 97.8976 55.2627H98.5466Z" fill="#383231"/>
<path d="M105.403 48.6331C105.403 49.7149 104.333 50.5401 103.251 50.5401C102.169 50.5401 101.098 49.6631 101.098 48.5813C101.098 47.4995 102.169 46.6226 103.251 46.6226C104.333 46.6226 105.403 47.5513 105.403 48.6331Z" fill="url(#paint38_radial_10476_34987)"/>
<path d="M94.6167 48.6331C94.6167 49.7149 93.5467 50.5401 92.4649 50.5401C91.3831 50.5401 90.3115 49.6631 90.3115 48.5813C90.3115 47.4995 91.3831 46.6226 92.4649 46.6226C93.5467 46.6226 94.6167 47.5513 94.6167 48.6331Z" fill="url(#paint39_radial_10476_34987)"/>
<path d="M95.1819 53.2272C95.0367 52.7429 95.618 51.3835 98.0419 51.3843C100.466 51.3851 101.096 52.5968 101.096 53.2272C101.096 53.8576 99.3992 55.554 98.3327 55.6025C97.2662 55.651 95.3271 53.7115 95.1819 53.2272Z" fill="url(#paint40_radial_10476_34987)"/>
<path d="M95.8288 61.9092C94.9116 59.9768 95.4686 58.6558 98.1234 59.3916C101.84 58.149 100.818 61.3642 100.344 62.291C99.8704 63.2179 96.7461 63.8415 95.8288 61.9092Z" fill="url(#paint41_linear_10476_34987)"/>
<path d="M161.997 46.6069C160.259 45.7007 154.743 48.3443 152.93 51.593L162.677 57.7138C163.03 54.3136 163.387 47.3319 161.997 46.6069Z" fill="url(#paint42_linear_10476_34987)"/>
<path d="M139.004 46.6069C140.742 45.7007 146.258 48.3443 148.071 51.593L138.324 57.7138C137.971 54.3136 137.614 47.3319 139.004 46.6069Z" fill="url(#paint43_linear_10476_34987)"/>
<path d="M160.704 48.8002C159.523 48.1844 155.775 49.9806 154.543 52.1879L161.166 56.3466C161.405 54.0364 161.648 49.2927 160.704 48.8002Z" fill="url(#paint44_linear_10476_34987)"/>
<path d="M140.296 48.8002C141.477 48.1844 145.225 49.9806 146.457 52.1879L139.834 56.3466C139.595 54.0364 139.352 49.2927 140.296 48.8002Z" fill="url(#paint45_linear_10476_34987)"/>
<path d="M200.014 102.323C199.413 111.643 143.13 105.693 142.595 102.323L150.155 98.2039C166.189 96.4002 200.495 94.8675 200.014 102.323Z" fill="url(#paint46_radial_10476_34987)"/>
<path d="M222.415 100.784C221.813 110.104 165.531 104.154 164.995 100.784L172.556 96.6648C188.589 94.8611 222.896 93.3285 222.415 100.784Z" fill="url(#paint47_radial_10476_34987)"/>
<path d="M167.476 97.5456C167.707 96.5287 167.545 94.2033 165.049 93.0384C168.099 92.1833 174.326 90.695 174.825 91.5825C175.449 92.6918 174.452 99.5792 172.718 101.035C170.985 102.491 167.476 102.248 166.02 101.775C164.097 101.15 165.049 97.6839 167.476 97.5456Z" fill="url(#paint48_linear_10476_34987)"/>
<path d="M167.476 97.5456C167.707 96.5287 167.545 94.2033 165.049 93.0384C168.099 92.1833 174.326 90.695 174.825 91.5825C175.449 92.6918 174.452 99.5792 172.718 101.035C170.985 102.491 167.476 102.248 166.02 101.775C164.097 101.15 165.049 97.6839 167.476 97.5456Z" fill="url(#paint49_radial_10476_34987)"/>
<path d="M189.311 67.5105C194.232 70.7346 190.634 80.4102 183.646 78.3014L185.457 83.2075C195.86 84.9924 197.313 71.9328 195.638 66.5589C193.963 61.1851 190.014 58.8686 187.558 59.6704C185.102 60.4722 184.391 64.2863 189.311 67.5105Z" fill="url(#paint50_linear_10476_34987)"/>
<path d="M144.335 97.0266C144.408 89.0083 138.34 73.4054 141.013 67.8435C146.603 65.6273 158.512 62.3931 161.432 67.186C165.082 73.1771 179.337 71.8687 184.157 77.9286C189.995 85.2673 187.738 99.4828 186.774 100.585C185.81 101.686 185.035 103.315 181.017 103.064C176.998 102.812 177.133 98.1744 180.783 98.1744C180.714 95.2822 178.71 95.4645 176.513 92.5704C172.932 92.1087 166.923 95.1872 161.432 93.6294C161.249 96.4714 159.365 102.155 158.256 103.064C157.147 103.972 155.105 104.582 152.205 103.683C149.304 102.785 151.436 98.9319 153.513 98.9319C153.513 98.1606 153.041 93.3313 152.457 91.5321C152.231 94.2369 150.062 100.853 148.754 101.569C147.118 102.463 144.335 103.167 142.096 102.155C139.857 101.144 141.013 97.6768 144.335 97.0266Z" fill="url(#paint51_radial_10476_34987)"/>
<path d="M144.335 97.0266C144.408 89.0083 138.34 73.4054 141.013 67.8435C146.603 65.6273 158.512 62.3931 161.432 67.186C165.082 73.1771 179.337 71.8687 184.157 77.9286C189.995 85.2673 187.738 99.4828 186.774 100.585C185.81 101.686 185.035 103.315 181.017 103.064C176.998 102.812 177.133 98.1744 180.783 98.1744C180.714 95.2822 178.71 95.4645 176.513 92.5704C172.932 92.1087 166.923 95.1872 161.432 93.6294C161.249 96.4714 159.365 102.155 158.256 103.064C157.147 103.972 155.105 104.582 152.205 103.683C149.304 102.785 151.436 98.9319 153.513 98.9319C153.513 98.1606 153.041 93.3313 152.457 91.5321C152.231 94.2369 150.062 100.853 148.754 101.569C147.118 102.463 144.335 103.167 142.096 102.155C139.857 101.144 141.013 97.6768 144.335 97.0266Z" fill="url(#paint52_radial_10476_34987)"/>
<path d="M149.273 84.1404C150.932 85.2094 152.572 90.1684 152.829 93.1683C152.711 92.5207 152.589 91.9458 152.455 91.5322C152.36 92.6718 151.908 94.5021 151.333 96.2963C150.072 97.4996 148.375 98.2341 147.547 97.1212C146.175 95.2747 147.509 83.0054 149.273 84.1404Z" fill="url(#paint53_radial_10476_34987)"/>
<path d="M173.584 85.3979C174.053 86.9877 175.35 90.7178 176.788 92.907H176.779C176.691 92.7992 176.602 92.6864 176.513 92.5689C175.132 92.3909 173.39 92.7444 171.456 93.1504C171.082 91.5424 171.273 88.852 173.584 85.3979Z" fill="url(#paint54_radial_10476_34987)"/>
<path d="M137.741 64.3639C135.701 59.6038 139.252 50.9135 150.511 50.9136C161.769 50.9136 165.551 59.6807 164.036 64.3639C162.373 69.502 154.666 72.1467 150.511 72.2219C146.355 72.297 139.781 69.1239 137.741 64.3639Z" fill="url(#paint55_linear_10476_34987)"/>
<path d="M147.444 67.2894C149.806 67.4147 149.756 65.958 149.731 64.3496H150.284C150.133 66.7365 150.908 67.1317 152.646 67.2894V67.7923C151.875 67.7923 150.284 67.7923 150.057 66.7118C149.776 67.6968 148.198 67.8426 147.444 67.7923V67.2894Z" fill="#383231"/>
<path d="M146.981 59.7254C146.981 60.8072 145.911 61.6324 144.829 61.6324C143.747 61.6324 142.676 60.7554 142.676 59.6736C142.676 58.5918 143.747 57.7148 144.829 57.7148C145.911 57.7148 146.981 58.6435 146.981 59.7254Z" fill="url(#paint56_radial_10476_34987)"/>
<path d="M157.235 59.7254C157.235 60.8072 156.165 61.6324 155.083 61.6324C154.001 61.6324 152.93 60.7554 152.93 59.6736C152.93 58.5918 154.001 57.7148 155.083 57.7148C156.165 57.7148 157.235 58.6435 157.235 59.7254Z" fill="url(#paint57_radial_10476_34987)"/>
<path d="M149.909 64.6251C148.98 64.575 147.748 63.0415 148.15 62.5393C148.552 62.0371 151.432 61.9164 151.794 62.5395C152.246 63.3185 150.839 64.6751 149.909 64.6251Z" fill="url(#paint58_linear_10476_34987)"/>
<defs>
<linearGradient id="paint0_linear_10476_34987" x1="117.478" y1="0.910645" x2="117.478" y2="105.974" gradientUnits="userSpaceOnUse">
<stop stop-color="#8BD0D3"/>
<stop offset="0.771745" stop-color="#ECE4BA"/>
<stop offset="1" stop-color="#FFDB95"/>
</linearGradient>
<radialGradient id="paint1_radial_10476_34987" cx="0" cy="0" r="1" gradientUnits="userSpaceOnUse" gradientTransform="translate(80.4624 60.753) rotate(50.6976) scale(58.4389 66.1347)">
<stop stop-color="#E0FFE6"/>
<stop offset="1" stop-color="#FFEDC7" stop-opacity="0"/>
</radialGradient>
<radialGradient id="paint2_radial_10476_34987" cx="0" cy="0" r="1" gradientUnits="userSpaceOnUse" gradientTransform="translate(168.707 71.5615) rotate(146.109) scale(61.7137 61.7137)">
<stop stop-color="#42978B"/>
<stop offset="1" stop-color="#ECF6EC" stop-opacity="0"/>
</radialGradient>
<linearGradient id="paint3_linear_10476_34987" x1="97.0197" y1="64.0024" x2="103.624" y2="102.084" gradientUnits="userSpaceOnUse">
<stop stop-color="#B7D56B"/>
<stop offset="1" stop-color="#368787"/>
</linearGradient>
<radialGradient id="paint4_radial_10476_34987" cx="0" cy="0" r="1" gradientTransform="matrix(-59.6284 10.2529 -37.3664 -6.80478 101.52 69.0783)" gradientUnits="userSpaceOnUse">
<stop stop-color="#D8DF7B"/>
<stop offset="1" stop-color="#D8DF7B" stop-opacity="0"/>
</radialGradient>
<linearGradient id="paint5_linear_10476_34987" x1="101.152" y1="70.6865" x2="96.463" y2="97.7229" gradientUnits="userSpaceOnUse">
<stop stop-color="#B7D56B"/>
<stop offset="1" stop-color="#368787"/>
</linearGradient>
<radialGradient id="paint6_radial_10476_34987" cx="0" cy="0" r="1" gradientTransform="matrix(42.3341 7.27922 26.5289 -4.83116 97.9569 74.2902)" gradientUnits="userSpaceOnUse">
<stop stop-color="#D8DF7B"/>
<stop offset="1" stop-color="#D8DF7B" stop-opacity="0"/>
</radialGradient>
<radialGradient id="paint7_radial_10476_34987" cx="0" cy="0" r="1" gradientTransform="matrix(26.4504 30.6786 -163.539 14.702 90.0411 89.546)" gradientUnits="userSpaceOnUse">
<stop stop-color="#B4CA58"/>
<stop offset="1" stop-color="#5E9877"/>
</radialGradient>
<radialGradient id="paint8_radial_10476_34987" cx="0" cy="0" r="1" gradientUnits="userSpaceOnUse" gradientTransform="translate(78.7349 72.367) rotate(8.35973) scale(123.89 27.401)">
<stop stop-color="#F1EC74"/>
<stop offset="1" stop-color="#EDBA5C" stop-opacity="0"/>
</radialGradient>
<radialGradient id="paint9_radial_10476_34987" cx="0" cy="0" r="1" gradientTransform="matrix(34.4531 -7.01007 -5.28478 -28.2873 146.725 9.82059)" gradientUnits="userSpaceOnUse">
<stop offset="0.29078" stop-color="white"/>
<stop offset="1" stop-color="white" stop-opacity="0"/>
</radialGradient>
<radialGradient id="paint10_radial_10476_34987" cx="0" cy="0" r="1" gradientTransform="matrix(-49.1323 -10.1303 7.53643 -40.8783 97.1519 18.7637)" gradientUnits="userSpaceOnUse">
<stop offset="0.29078" stop-color="white"/>
<stop offset="1" stop-color="white" stop-opacity="0"/>
</radialGradient>
<linearGradient id="paint11_linear_10476_34987" x1="181.197" y1="17.0688" x2="226.787" y2="63.5821" gradientUnits="userSpaceOnUse">
<stop stop-color="#ACCC5A"/>
<stop offset="1" stop-color="#317272"/>
</linearGradient>
<radialGradient id="paint12_radial_10476_34987" cx="0" cy="0" r="1" gradientTransform="matrix(-24.5297 23.8372 -15.3717 -15.8205 183.049 28.8697)" gradientUnits="userSpaceOnUse">
<stop stop-color="#CFD769"/>
<stop offset="1" stop-color="#CFD769" stop-opacity="0"/>
</radialGradient>
<radialGradient id="paint13_radial_10476_34987" cx="0" cy="0" r="1" gradientTransform="matrix(-29.3528 -0.471174 0.289556 -18.0596 201.742 70.3212)" gradientUnits="userSpaceOnUse">
<stop offset="0.330436" stop-color="#326664" stop-opacity="0"/>
<stop offset="1" stop-color="#326664"/>
</radialGradient>
<linearGradient id="paint14_linear_10476_34987" x1="20.516" y1="9.47168" x2="59.6298" y2="51.5563" gradientUnits="userSpaceOnUse">
<stop stop-color="#AFD05B"/>
<stop offset="1" stop-color="#307878"/>
</linearGradient>
<radialGradient id="paint15_radial_10476_34987" cx="0" cy="0" r="1" gradientTransform="matrix(-22.2492 20.5016 -13.9426 -13.6067 22.1952 19.6213)" gradientUnits="userSpaceOnUse">
<stop stop-color="#D3DB6B"/>
<stop offset="1" stop-color="#D3DB6B" stop-opacity="0"/>
</radialGradient>
<radialGradient id="paint16_radial_10476_34987" cx="0" cy="0" r="1" gradientTransform="matrix(-29.6564 -0.313768 0.292551 -12.0264 40.5632 56.5552)" gradientUnits="userSpaceOnUse">
<stop offset="0.330436" stop-color="#316B6A" stop-opacity="0"/>
<stop offset="1" stop-color="#316B6A"/>
</radialGradient>
<radialGradient id="paint17_radial_10476_34987" cx="0" cy="0" r="1" gradientUnits="userSpaceOnUse" gradientTransform="translate(98.486 101.606) rotate(179.625) scale(47.4988 4.31157)">
<stop stop-color="#251E02"/>
<stop offset="1" stop-color="#251E02" stop-opacity="0"/>
</radialGradient>
<radialGradient id="paint18_radial_10476_34987" cx="0" cy="0" r="1" gradientUnits="userSpaceOnUse" gradientTransform="translate(67.5807 99.9966) rotate(179.625) scale(47.4988 4.31157)">
<stop stop-color="#251E02"/>
<stop offset="1" stop-color="#251E02" stop-opacity="0"/>
</radialGradient>
<linearGradient id="paint19_linear_10476_34987" x1="65.6595" y1="84.6071" x2="70.5401" y2="101.131" gradientUnits="userSpaceOnUse">
<stop stop-color="#FECE3D"/>
<stop offset="1" stop-color="#FCA81A"/>
</linearGradient>
<radialGradient id="paint20_radial_10476_34987" cx="0" cy="0" r="1" gradientUnits="userSpaceOnUse" gradientTransform="translate(66.2616 82.8359) rotate(41.0736) scale(12.6576 8.10928)">
<stop stop-color="#8E4D00"/>
<stop offset="1" stop-color="#D27607" stop-opacity="0"/>
</radialGradient>
<radialGradient id="paint21_radial_10476_34987" cx="0" cy="0" r="1" gradientUnits="userSpaceOnUse" gradientTransform="translate(62.3098 84.6945) rotate(134.798) scale(10.8066 6.9234)">
<stop stop-color="#8E4D00"/>
<stop offset="1" stop-color="#D27607" stop-opacity="0"/>
</radialGradient>
<radialGradient id="paint22_radial_10476_34987" cx="0" cy="0" r="1" gradientUnits="userSpaceOnUse" gradientTransform="translate(71.8798 97.583) rotate(-178.781) scale(4.63823 3.18266)">
<stop offset="0.0890439" stop-color="#FFDD6D"/>
<stop offset="0.934751" stop-color="#FFDD6D" stop-opacity="0"/>
</radialGradient>
<linearGradient id="paint23_linear_10476_34987" x1="38.8685" y1="54.808" x2="41.7481" y2="74.8332" gradientUnits="userSpaceOnUse">
<stop stop-color="#FECE3D"/>
<stop offset="1" stop-color="#FCA81A"/>
</linearGradient>
<radialGradient id="paint24_radial_10476_34987" cx="0" cy="0" r="1" gradientUnits="userSpaceOnUse" gradientTransform="translate(53.7971 62.213) rotate(-166.578) scale(25.141 9.31891)">
<stop offset="0.0890439" stop-color="#FFDD6D"/>
<stop offset="0.934751" stop-color="#FFDD6D" stop-opacity="0"/>
</radialGradient>
<linearGradient id="paint25_linear_10476_34987" x1="97.0683" y1="81.9555" x2="104.072" y2="101.438" gradientUnits="userSpaceOnUse">
<stop stop-color="#FECE3D"/>
<stop offset="1" stop-color="#FCA81A"/>
</linearGradient>
<radialGradient id="paint26_radial_10476_34987" cx="0" cy="0" r="1" gradientTransform="matrix(11.1807 -10.0241 7.88544 5.95075 96.7205 85.9485)" gradientUnits="userSpaceOnUse">
<stop stop-color="#8E4D00"/>
<stop offset="1" stop-color="#D27607" stop-opacity="0"/>
</radialGradient>
<radialGradient id="paint27_radial_10476_34987" cx="0" cy="0" r="1" gradientUnits="userSpaceOnUse" gradientTransform="translate(103.059 98.6692) rotate(175.914) scale(4.15442 3.0653)">
<stop offset="0.0890439" stop-color="#FFDD6D"/>
<stop offset="0.934751" stop-color="#FFDD6D" stop-opacity="0"/>
</radialGradient>
<linearGradient id="paint28_linear_10476_34987" x1="69.8196" y1="43.879" x2="85.7579" y2="96.0279" gradientUnits="userSpaceOnUse">
<stop stop-color="#FECE3D"/>
<stop offset="1" stop-color="#E89406"/>
</linearGradient>
<radialGradient id="paint29_radial_10476_34987" cx="0" cy="0" r="1" gradientUnits="userSpaceOnUse" gradientTransform="translate(77.1698 60.08) rotate(-21.2277) scale(38.5034 31.0199)">
<stop stop-color="#FCD87F"/>
<stop offset="0.797151" stop-color="#FFCB1E" stop-opacity="0"/>
</radialGradient>
<radialGradient id="paint30_radial_10476_34987" cx="0" cy="0" r="1" gradientUnits="userSpaceOnUse" gradientTransform="translate(94.5286 42.9574) rotate(10.9483) scale(14.5818 8.1977)">
<stop offset="0.182769" stop-color="#FFDE67"/>
<stop offset="0.934751" stop-color="#FFD170" stop-opacity="0"/>
</radialGradient>
<radialGradient id="paint31_radial_10476_34987" cx="0" cy="0" r="1" gradientUnits="userSpaceOnUse" gradientTransform="translate(97.7686 53.8116) rotate(-2.13425) scale(13.0502 6.33481)">
<stop offset="0.382517" stop-color="#FFDE67"/>
<stop offset="0.934751" stop-color="#FFD170" stop-opacity="0"/>
</radialGradient>
<radialGradient id="paint32_radial_10476_34987" cx="0" cy="0" r="1" gradientUnits="userSpaceOnUse" gradientTransform="translate(72.5587 59.3727) rotate(-11.482) scale(20.7038 12.097)">
<stop stop-color="#FFDD6D"/>
<stop offset="0.934751" stop-color="#FFDD6D" stop-opacity="0"/>
</radialGradient>
<radialGradient id="paint33_radial_10476_34987" cx="0" cy="0" r="1" gradientUnits="userSpaceOnUse" gradientTransform="translate(57.5254 99.8026) rotate(-6.98106) scale(4.87061 2.81973)">
<stop offset="0.0890439" stop-color="#FFDD6D"/>
<stop offset="0.934751" stop-color="#FFDD6D" stop-opacity="0"/>
</radialGradient>
<radialGradient id="paint34_radial_10476_34987" cx="0" cy="0" r="1" gradientUnits="userSpaceOnUse" gradientTransform="translate(92.3536 101.332) rotate(174.971) scale(6.19029 3.58373)">
<stop offset="0.0890439" stop-color="#FFDD6D"/>
<stop offset="0.934751" stop-color="#FFDD6D" stop-opacity="0"/>
</radialGradient>
<radialGradient id="paint35_radial_10476_34987" cx="0" cy="0" r="1" gradientUnits="userSpaceOnUse" gradientTransform="translate(72.3889 88.0968) rotate(21.4001) scale(11.8252 5.83976)">
<stop stop-color="#8E4D00"/>
<stop offset="0.851601" stop-color="#EC9009" stop-opacity="0"/>
</radialGradient>
<radialGradient id="paint36_radial_10476_34987" cx="0" cy="0" r="1" gradientTransform="matrix(2.40705 11.0295 -5.01804 1.09456 84.4892 51.0802)" gradientUnits="userSpaceOnUse">
<stop offset="0.341346" stop-color="#855B17"/>
<stop offset="0.826923" stop-color="#D09334" stop-opacity="0"/>
</radialGradient>
<radialGradient id="paint37_radial_10476_34987" cx="0" cy="0" r="1" gradientTransform="matrix(-0.324187 10.0452 -3.38066 -0.109004 109.03 52.7587)" gradientUnits="userSpaceOnUse">
<stop offset="0.341346" stop-color="#855B17"/>
<stop offset="1" stop-color="#D09334" stop-opacity="0"/>
</radialGradient>
<radialGradient id="paint38_radial_10476_34987" cx="0" cy="0" r="1" gradientUnits="userSpaceOnUse" gradientTransform="translate(103.019 47.5486) rotate(-33.0852) scale(2.60433)">
<stop stop-color="#656E74"/>
<stop offset="1" stop-color="#2E2422"/>
</radialGradient>
<radialGradient id="paint39_radial_10476_34987" cx="0" cy="0" r="1" gradientUnits="userSpaceOnUse" gradientTransform="translate(92.2329 47.5486) rotate(-33.0852) scale(2.60433)">
<stop stop-color="#656E74"/>
<stop offset="1" stop-color="#2E2422"/>
</radialGradient>
<radialGradient id="paint40_radial_10476_34987" cx="0" cy="0" r="1" gradientTransform="matrix(3.00804 -1.5311 1.95981 2.35002 97.811 52.3823)" gradientUnits="userSpaceOnUse">
<stop stop-color="#656E74"/>
<stop offset="1" stop-color="#2E2422"/>
</radialGradient>
<linearGradient id="paint41_linear_10476_34987" x1="98.159" y1="59.0862" x2="98.159" y2="63.2583" gradientUnits="userSpaceOnUse">
<stop stop-color="#E4582E"/>
<stop offset="1" stop-color="#F68D52"/>
</linearGradient>
<linearGradient id="paint42_linear_10476_34987" x1="160.273" y1="56.4293" x2="149.736" y2="49.6573" gradientUnits="userSpaceOnUse">
<stop stop-color="#F2CF99"/>
<stop offset="1" stop-color="#FEF4D0"/>
</linearGradient>
<linearGradient id="paint43_linear_10476_34987" x1="140.728" y1="56.4293" x2="151.265" y2="49.6573" gradientUnits="userSpaceOnUse">
<stop stop-color="#F2CF99"/>
<stop offset="1" stop-color="#FEF4D0"/>
</linearGradient>
<linearGradient id="paint44_linear_10476_34987" x1="158.001" y1="48.6331" x2="158.001" y2="56.5053" gradientUnits="userSpaceOnUse">
<stop stop-color="#E4582E"/>
<stop offset="1" stop-color="#F68D52"/>
</linearGradient>
<linearGradient id="paint45_linear_10476_34987" x1="142.999" y1="48.6331" x2="142.999" y2="56.5053" gradientUnits="userSpaceOnUse">
<stop stop-color="#E4582E"/>
<stop offset="1" stop-color="#F68D52"/>
</linearGradient>
<radialGradient id="paint46_radial_10476_34987" cx="0" cy="0" r="1" gradientUnits="userSpaceOnUse" gradientTransform="translate(149.51 102.084) rotate(0.374666) scale(47.4988 4.31157)">
<stop stop-color="#251E02"/>
<stop offset="1" stop-color="#251E02" stop-opacity="0"/>
</radialGradient>
<radialGradient id="paint47_radial_10476_34987" cx="0" cy="0" r="1" gradientUnits="userSpaceOnUse" gradientTransform="translate(171.91 100.544) rotate(0.374666) scale(47.4988 4.31157)">
<stop stop-color="#251E02"/>
<stop offset="1" stop-color="#251E02" stop-opacity="0"/>
</radialGradient>
<linearGradient id="paint48_linear_10476_34987" x1="172.302" y1="100.908" x2="162.043" y2="94.0714" gradientUnits="userSpaceOnUse">
<stop stop-color="#F2CF99"/>
<stop offset="1" stop-color="#FEF4D0"/>
</linearGradient>
<radialGradient id="paint49_radial_10476_34987" cx="0" cy="0" r="1" gradientUnits="userSpaceOnUse" gradientTransform="translate(171.11 91.3096) rotate(16.5821) scale(11.9584 6.84946)">
<stop stop-color="#856343"/>
<stop offset="1" stop-color="#C59D78" stop-opacity="0"/>
</radialGradient>
<linearGradient id="paint50_linear_10476_34987" x1="192.824" y1="80.6587" x2="176.564" y2="74.4805" gradientUnits="userSpaceOnUse">
<stop stop-color="#F2CF99"/>
<stop offset="1" stop-color="#FEF4D0"/>
</linearGradient>
<radialGradient id="paint51_radial_10476_34987" cx="0" cy="0" r="1" gradientUnits="userSpaceOnUse" gradientTransform="translate(148.188 61.282) rotate(25.3941) scale(45.0721 28.2857)">
<stop stop-color="#FEF4D0"/>
<stop offset="1" stop-color="#F2CF99"/>
</radialGradient>
<radialGradient id="paint52_radial_10476_34987" cx="0" cy="0" r="1" gradientUnits="userSpaceOnUse" gradientTransform="translate(152.464 65.5498) rotate(6.86643) scale(17.5557 12.8923)">
<stop offset="0.382197" stop-color="#906E47"/>
<stop offset="0.799815" stop-color="#F3D09A" stop-opacity="0"/>
</radialGradient>
<radialGradient id="paint53_radial_10476_34987" cx="0" cy="0" r="1" gradientTransform="matrix(0.881306 10.6727 -4.62538 0.382509 153.934 89.3038)" gradientUnits="userSpaceOnUse">
<stop stop-color="#856343"/>
<stop offset="1" stop-color="#C59D78" stop-opacity="0"/>
</radialGradient>
<radialGradient id="paint54_radial_10476_34987" cx="0" cy="0" r="1" gradientTransform="matrix(1.44493 7.6726 -4.63124 0.406351 176.79 89.933)" gradientUnits="userSpaceOnUse">
<stop stop-color="#856343"/>
<stop offset="1" stop-color="#C59D78" stop-opacity="0"/>
</radialGradient>
<linearGradient id="paint55_linear_10476_34987" x1="157.007" y1="69.7981" x2="135.216" y2="49.7853" gradientUnits="userSpaceOnUse">
<stop stop-color="#F2CF99"/>
<stop offset="1" stop-color="#FEF4D0"/>
</linearGradient>
<radialGradient id="paint56_radial_10476_34987" cx="0" cy="0" r="1" gradientUnits="userSpaceOnUse" gradientTransform="translate(144.597 58.6409) rotate(-33.0852) scale(2.60433)">
<stop stop-color="#656E74"/>
<stop offset="1" stop-color="#2E2422"/>
</radialGradient>
<radialGradient id="paint57_radial_10476_34987" cx="0" cy="0" r="1" gradientUnits="userSpaceOnUse" gradientTransform="translate(154.851 58.6409) rotate(-33.0852) scale(2.60433)">
<stop stop-color="#656E74"/>
<stop offset="1" stop-color="#2E2422"/>
</radialGradient>
<linearGradient id="paint58_linear_10476_34987" x1="149.998" y1="62.1016" x2="149.998" y2="64.6783" gradientUnits="userSpaceOnUse">
<stop stop-color="#E4582E"/>
<stop offset="1" stop-color="#F68D52"/>
</linearGradient>
</defs>
</svg>
