<svg viewBox="0 0 240 120" fill="none" xmlns="http://www.w3.org/2000/svg">
<path d="M9.0527 120C9.0527 79.0707 240 89.9367 240 89.9367V120H9.0527Z" fill="url(#paint0_radial_1993_4804)"/>
<path d="M126.629 104.248C118.711 110.187 68.9744 102.583 65.1584 100.407H88.1666C88.1666 100.407 134.548 98.309 126.629 104.248Z" fill="url(#paint1_radial_1993_4804)"/>
<path d="M201.952 104.675C194.033 110.614 144.297 103.011 140.481 100.834H163.489C163.489 100.834 209.87 98.7361 201.952 104.675Z" fill="url(#paint2_radial_1993_4804)"/>
<path d="M138.006 105.874C130.087 111.813 80.3506 104.209 76.5346 102.033H99.5428C99.5428 102.033 145.924 99.935 138.006 105.874Z" fill="url(#paint3_radial_1993_4804)"/>
<path d="M215.417 105.717C207.498 111.657 157.762 104.053 153.946 101.877H176.954C176.954 101.877 223.336 99.7783 215.417 105.717Z" fill="url(#paint4_radial_1993_4804)"/>
<path d="M85.2403 100.419C76.971 100.948 65.1922 100.419 65.1922 100.419C65.1922 100.419 65.1922 97.4838 68.8748 97.0057C71.4331 92.2778 71.6078 82.8713 62.8845 68.4363L76.4422 62.631L89.7114 80.8041L85.2403 100.419Z" fill="url(#paint5_radial_1993_4804)"/>
<path d="M85.2403 100.419C76.971 100.948 65.1922 100.419 65.1922 100.419C65.1922 100.419 65.1922 97.4838 68.8748 97.0057C71.4331 92.2778 71.6078 82.8713 62.8845 68.4363L76.4422 62.631L89.7114 80.8041L85.2403 100.419Z" fill="url(#paint6_radial_1993_4804)"/>
<path d="M162.404 100.852H140.481C140.481 100.852 141.667 97.7268 145.634 97.0957C147.677 93.8369 147.855 88.4596 144.807 80.8041L158.942 76.9099L161.682 81.8137L162.404 100.852Z" fill="url(#paint7_radial_1993_4804)"/>
<path d="M162.404 100.852H140.481C140.481 100.852 141.667 97.7268 145.634 97.0957C147.677 93.8369 147.855 88.4596 144.807 80.8041L158.942 76.9099L161.682 81.8137L162.404 100.852Z" fill="url(#paint8_radial_1993_4804)"/>
<path d="M142.212 14.458C125.441 14.458 111.347 21.958 97.212 21.6695L70.5287 28.3041C70.5287 28.3041 51.6349 53.256 57.4041 62.3425C63.1733 71.429 79.5161 74.4437 79.5161 74.4437L83.3659 82.5348C84.5623 85.5609 85.3672 92.1155 82.0031 97.222C77.8158 98.284 76.4428 102.006 76.4428 102.006H100.097C108.174 97.679 105.289 88.0155 116.25 86.5732C135.281 94.899 148.053 86.5732 157.5 80.804C158.946 84.9232 161.35 93.2231 158.978 98.2677C154.56 98.2677 153.967 101.934 153.967 101.934H183.678C181.755 96.453 183.022 86.6482 190.962 80.804C219.663 59.6764 190.962 14.4581 142.212 14.458Z" fill="url(#paint9_radial_1993_4804)"/>
<path d="M142.212 14.458C125.441 14.458 111.347 21.958 97.212 21.6695L70.5287 28.3041C70.5287 28.3041 51.6349 53.256 57.4041 62.3425C63.1733 71.429 79.5161 74.4437 79.5161 74.4437L83.3659 82.5348C84.5623 85.5609 85.3672 92.1155 82.0031 97.222C77.8158 98.284 76.4428 102.006 76.4428 102.006H100.097C108.174 97.679 105.289 88.0155 116.25 86.5732C135.281 94.899 148.053 86.5732 157.5 80.804C158.946 84.9232 161.35 93.2231 158.978 98.2677C154.56 98.2677 153.967 101.934 153.967 101.934H183.678C181.755 96.453 183.022 86.6482 190.962 80.804C219.663 59.6764 190.962 14.4581 142.212 14.458Z" fill="url(#paint10_radial_1993_4804)"/>
<path d="M142.212 14.458C125.441 14.458 111.347 21.958 97.212 21.6695L70.5287 28.3041C70.5287 28.3041 51.6349 53.256 57.4041 62.3425C63.1733 71.429 79.5161 74.4437 79.5161 74.4437L83.3659 82.5348C84.5623 85.5609 85.3672 92.1155 82.0031 97.222C77.8158 98.284 76.4428 102.006 76.4428 102.006H100.097C108.174 97.679 105.289 88.0155 116.25 86.5732C135.281 94.899 148.053 86.5732 157.5 80.804C158.946 84.9232 161.35 93.2231 158.978 98.2677C154.56 98.2677 153.967 101.934 153.967 101.934H183.678C181.755 96.453 183.022 86.6482 190.962 80.804C219.663 59.6764 190.962 14.4581 142.212 14.458Z" fill="url(#paint11_radial_1993_4804)"/>
<path d="M142.212 14.458C125.441 14.458 111.347 21.958 97.212 21.6695L70.5287 28.3041C70.5287 28.3041 51.6349 53.256 57.4041 62.3425C63.1733 71.429 79.5161 74.4437 79.5161 74.4437L83.3659 82.5348C84.5623 85.5609 85.3672 92.1155 82.0031 97.222C77.8158 98.284 76.4428 102.006 76.4428 102.006H100.097C108.174 97.679 105.289 88.0155 116.25 86.5732C135.281 94.899 148.053 86.5732 157.5 80.804C158.946 84.9232 161.35 93.2231 158.978 98.2677C154.56 98.2677 153.967 101.934 153.967 101.934H183.678C181.755 96.453 183.022 86.6482 190.962 80.804C219.663 59.6764 190.962 14.4581 142.212 14.458Z" fill="url(#paint12_radial_1993_4804)"/>
<path d="M142.212 14.458C125.441 14.458 111.347 21.958 97.212 21.6695L70.5287 28.3041C70.5287 28.3041 51.6349 53.256 57.4041 62.3425C63.1733 71.429 79.5161 74.4437 79.5161 74.4437L83.3659 82.5348C84.5623 85.5609 85.3672 92.1155 82.0031 97.222C77.8158 98.284 76.4428 102.006 76.4428 102.006H100.097C108.174 97.679 105.289 88.0155 116.25 86.5732C135.281 94.899 148.053 86.5732 157.5 80.804C158.946 84.9232 161.35 93.2231 158.978 98.2677C154.56 98.2677 153.967 101.934 153.967 101.934H183.678C181.755 96.453 183.022 86.6482 190.962 80.804C219.663 59.6764 190.962 14.4581 142.212 14.458Z" fill="url(#paint13_radial_1993_4804)"/>
<path d="M54.0871 74.7559C49.1664 70.6103 49.0946 65.2185 44.7578 55.1409L52.6254 53.7184C51.2682 56.8055 55.0502 72.2205 57.9406 77.1144C54.199 75.5032 52.9361 69.9057 52.9361 69.9057C52.9361 69.9057 52.3423 71.3807 54.0871 74.7559Z" fill="url(#paint14_linear_1993_4804)"/>
<path d="M61.094 78.0785C56.1733 73.9329 56.1015 68.5412 51.7647 58.4636L59.6323 57.041C58.2751 60.1282 62.0571 75.5431 64.9474 80.437C61.2058 78.8259 59.943 73.2283 59.943 73.2283C59.943 73.2283 59.3492 74.7034 61.094 78.0785Z" fill="url(#paint15_linear_1993_4804)"/>
<path d="M45.7035 67.3775C42.6077 63.0805 45.1621 58.6375 41.0446 50.052L48.7595 50.2907C47.0564 52.4826 46.9813 65.5469 48.3062 70.0336C45.6428 67.9965 45.7583 63.2747 45.7583 63.2747C45.7583 63.2747 44.9882 64.333 45.7035 67.3775Z" fill="url(#paint16_linear_1993_4804)"/>
<path d="M42.2494 57.2154C41.2458 47.6813 49.907 32.8548 48.5689 10.4413C48.5689 10.4413 48.6337 9.5188 50.0744 9.43776C51.515 9.35672 58.0362 11.7126 63.121 16.7974C68.5293 16.0168 80.4831 14.924 85.0327 16.7974C87.2629 16.1284 95.8483 9.98482 97.9121 9.4735C99.976 8.96219 100.421 10.4413 100.421 10.4413C99.6405 13.1176 98.0459 19.5406 97.9121 23.8225C97.7448 29.175 105.618 42.4375 104.286 53.0939C102.954 63.7503 93.469 66.9379 85.0327 73.1541C76.5964 79.3703 72.7429 84.271 65.8958 80.0824C59.0487 75.8938 43.253 66.7495 42.2494 57.2154Z" fill="url(#paint17_radial_1993_4804)"/>
<path d="M42.2494 57.2154C41.2458 47.6813 49.907 32.8548 48.5689 10.4413C48.5689 10.4413 48.6337 9.5188 50.0744 9.43776C51.515 9.35672 58.0362 11.7126 63.121 16.7974C68.5293 16.0168 80.4831 14.924 85.0327 16.7974C87.2629 16.1284 95.8483 9.98482 97.9121 9.4735C99.976 8.96219 100.421 10.4413 100.421 10.4413C99.6405 13.1176 98.0459 19.5406 97.9121 23.8225C97.7448 29.175 105.618 42.4375 104.286 53.0939C102.954 63.7503 93.469 66.9379 85.0327 73.1541C76.5964 79.3703 72.7429 84.271 65.8958 80.0824C59.0487 75.8938 43.253 66.7495 42.2494 57.2154Z" fill="url(#paint18_radial_1993_4804)"/>
<path d="M42.2494 57.2154C41.2458 47.6813 49.907 32.8548 48.5689 10.4413C48.5689 10.4413 48.6337 9.5188 50.0744 9.43776C51.515 9.35672 58.0362 11.7126 63.121 16.7974C68.5293 16.0168 80.4831 14.924 85.0327 16.7974C87.2629 16.1284 95.8483 9.98482 97.9121 9.4735C99.976 8.96219 100.421 10.4413 100.421 10.4413C99.6405 13.1176 98.0459 19.5406 97.9121 23.8225C97.7448 29.175 105.618 42.4375 104.286 53.0939C102.954 63.7503 93.469 66.9379 85.0327 73.1541C76.5964 79.3703 72.7429 84.271 65.8958 80.0824C59.0487 75.8938 43.253 66.7495 42.2494 57.2154Z" fill="url(#paint19_radial_1993_4804)"/>
<path d="M42.2494 57.2154C41.2458 47.6813 49.907 32.8548 48.5689 10.4413C48.5689 10.4413 48.6337 9.5188 50.0744 9.43776C51.515 9.35672 58.0362 11.7126 63.121 16.7974C68.5293 16.0168 80.4831 14.924 85.0327 16.7974C87.2629 16.1284 95.8483 9.98482 97.9121 9.4735C99.976 8.96219 100.421 10.4413 100.421 10.4413C99.6405 13.1176 98.0459 19.5406 97.9121 23.8225C97.7448 29.175 105.618 42.4375 104.286 53.0939C102.954 63.7503 93.469 66.9379 85.0327 73.1541C76.5964 79.3703 72.7429 84.271 65.8958 80.0824C59.0487 75.8938 43.253 66.7495 42.2494 57.2154Z" fill="url(#paint20_radial_1993_4804)"/>
<path d="M42.2494 57.2154C41.2458 47.6813 49.907 32.8548 48.5689 10.4413C48.5689 10.4413 48.6337 9.5188 50.0744 9.43776C51.515 9.35672 58.0362 11.7126 63.121 16.7974C68.5293 16.0168 80.4831 14.924 85.0327 16.7974C87.2629 16.1284 95.8483 9.98482 97.9121 9.4735C99.976 8.96219 100.421 10.4413 100.421 10.4413C99.6405 13.1176 98.0459 19.5406 97.9121 23.8225C97.7448 29.175 105.618 42.4375 104.286 53.0939C102.954 63.7503 93.469 66.9379 85.0327 73.1541C76.5964 79.3703 72.7429 84.271 65.8958 80.0824C59.0487 75.8938 43.253 66.7495 42.2494 57.2154Z" fill="url(#paint21_radial_1993_4804)"/>
<path d="M42.2494 57.2154C41.2458 47.6813 49.907 32.8548 48.5689 10.4413C48.5689 10.4413 48.6337 9.5188 50.0744 9.43776C51.515 9.35672 58.0362 11.7126 63.121 16.7974C68.5293 16.0168 80.4831 14.924 85.0327 16.7974C87.2629 16.1284 95.8483 9.98482 97.9121 9.4735C99.976 8.96219 100.421 10.4413 100.421 10.4413C99.6405 13.1176 98.0459 19.5406 97.9121 23.8225C97.7448 29.175 105.618 42.4375 104.286 53.0939C102.954 63.7503 93.469 66.9379 85.0327 73.1541C76.5964 79.3703 72.7429 84.271 65.8958 80.0824C59.0487 75.8938 43.253 66.7495 42.2494 57.2154Z" fill="url(#paint22_radial_1993_4804)"/>
<path d="M42.2494 57.2154C41.2458 47.6813 49.907 32.8548 48.5689 10.4413C48.5689 10.4413 48.6337 9.5188 50.0744 9.43776C51.515 9.35672 58.0362 11.7126 63.121 16.7974C68.5293 16.0168 80.4831 14.924 85.0327 16.7974C87.2629 16.1284 95.8483 9.98482 97.9121 9.4735C99.976 8.96219 100.421 10.4413 100.421 10.4413C99.6405 13.1176 98.0459 19.5406 97.9121 23.8225C97.7448 29.175 105.618 42.4375 104.286 53.0939C102.954 63.7503 93.469 66.9379 85.0327 73.1541C76.5964 79.3703 72.7429 84.271 65.8958 80.0824C59.0487 75.8938 43.253 66.7495 42.2494 57.2154Z" fill="url(#paint23_radial_1993_4804)"/>
<path d="M42.2494 57.2154C41.2458 47.6813 49.907 32.8548 48.5689 10.4413C48.5689 10.4413 48.6337 9.5188 50.0744 9.43776C51.515 9.35672 58.0362 11.7126 63.121 16.7974C68.5293 16.0168 80.4831 14.924 85.0327 16.7974C87.2629 16.1284 95.8483 9.98482 97.9121 9.4735C99.976 8.96219 100.421 10.4413 100.421 10.4413C99.6405 13.1176 98.0459 19.5406 97.9121 23.8225C97.7448 29.175 105.618 42.4375 104.286 53.0939C102.954 63.7503 93.469 66.9379 85.0327 73.1541C76.5964 79.3703 72.7429 84.271 65.8958 80.0824C59.0487 75.8938 43.253 66.7495 42.2494 57.2154Z" fill="url(#paint24_radial_1993_4804)"/>
<path d="M49.8104 53.5793C51.8477 51.1616 58.5103 50.458 58.4078 56.1704C56.8121 57.9028 54.5155 58.281 53.2039 57.5641C51.5643 56.668 50.4328 55.1914 49.8104 53.5793Z" fill="url(#paint25_radial_1993_4804)"/>
<path fill-rule="evenodd" clip-rule="evenodd" d="M49.7926 53.5661C54.9083 50.9595 57.3176 53.4782 58.3129 56.2332C58.3449 56.2126 58.3766 56.1917 58.4082 56.1704C59.0052 49.6763 51.578 51.0555 49.5408 53.4732C49.6305 53.4905 49.714 53.5222 49.7926 53.5661Z" fill="#7B523B"/>
<path fill-rule="evenodd" clip-rule="evenodd" d="M49.8603 53.4685C52.7236 58.4868 56.1044 57.7173 58.4308 55.966C58.4465 56.0015 58.4619 56.0371 58.477 56.0729C55.4537 61.8336 49.9923 56.5584 49.6005 53.4065C49.6845 53.4417 49.7711 53.4615 49.8603 53.4685Z" fill="#7B523B"/>
<path d="M84.2806 67.2229C83.4864 67.9997 82.6776 68.9087 81.8547 69.9875C69.5826 84.5697 52.2645 72.0361 57.2942 56.4619C59.542 49.5018 63.451 44.8672 62.9934 40.8145C60.9855 30.2768 75.6659 35.8656 74.3278 44.3961C73.8231 47.6135 75.871 50.5166 78.2492 53.8881C80.6716 57.3221 83.4368 61.2421 84.1964 66.4751C84.2328 66.7256 84.2608 66.9749 84.2806 67.2229Z" fill="url(#paint26_radial_1993_4804)"/>
<path d="M84.2806 67.2229C83.4864 67.9997 82.6776 68.9087 81.8547 69.9875C69.5826 84.5697 52.2645 72.0361 57.2942 56.4619C59.542 49.5018 63.451 44.8672 62.9934 40.8145C60.9855 30.2768 75.6659 35.8656 74.3278 44.3961C73.8231 47.6135 75.871 50.5166 78.2492 53.8881C80.6716 57.3221 83.4368 61.2421 84.1964 66.4751C84.2328 66.7256 84.2608 66.9749 84.2806 67.2229Z" fill="url(#paint27_radial_1993_4804)"/>
<path d="M59.8407 73.472C64.7711 79.8661 75.9581 88.8959 81.0294 69.7137C79.6676 71.7373 77.5228 69.5715 76.642 71.1744C74.956 74.2428 70.9538 75.5718 67.9719 74.5409C66.1833 75.5204 62.8171 74.0299 62.8171 73.0622C61.6726 72.5208 60.8086 74.1624 59.8407 73.472Z" fill="url(#paint28_radial_1993_4804)"/>
<path d="M59.8407 73.472C64.7711 79.8661 75.9581 88.8959 81.0294 69.7137C79.6676 71.7373 77.5228 69.5715 76.642 71.1744C74.956 74.2428 70.9538 75.5718 67.9719 74.5409C66.1833 75.5204 62.8171 74.0299 62.8171 73.0622C61.6726 72.5208 60.8086 74.1624 59.8407 73.472Z" fill="url(#paint29_radial_1993_4804)"/>
<path d="M59.8407 73.472C64.7711 79.8661 75.9581 88.8959 81.0294 69.7137C79.6676 71.7373 77.5228 69.5715 76.642 71.1744C74.956 74.2428 70.9538 75.5718 67.9719 74.5409C66.1833 75.5204 62.8171 74.0299 62.8171 73.0622C61.6726 72.5208 60.8086 74.1624 59.8407 73.472Z" fill="url(#paint30_radial_1993_4804)"/>
<path d="M67.4221 60.926C62.5401 61.0489 60.077 66.4372 60.7094 68.3018C61.3418 70.1665 65.9575 73.2769 67.4221 73.3998C68.8867 73.5228 74.5779 69.8798 74.7192 68.3018C74.8604 66.7238 72.3041 60.803 67.4221 60.926Z" fill="url(#paint31_radial_1993_4804)"/>
<path fill-rule="evenodd" clip-rule="evenodd" d="M98.7191 28.6812C98.2174 26.6974 97.8739 25.027 97.9115 23.8225C98.0413 19.6675 99.5467 13.4965 100.349 10.6891C96.9503 13.359 91.4227 18.9378 91.5555 23.3211C91.6483 26.3848 95.1421 28.057 98.7191 28.6812Z" fill="url(#paint32_radial_1993_4804)"/>
<path fill-rule="evenodd" clip-rule="evenodd" d="M48.6233 11.4481C51.0709 14.463 53.9087 19.8072 53.1236 23.6193C52.4942 26.6757 50.0714 28.2904 47.6044 28.7951C48.4365 23.8968 48.95 18.2158 48.6233 11.4481Z" fill="url(#paint33_radial_1993_4804)"/>
<path d="M86.3945 51.5147C84.1163 49.2274 76.7644 49.0055 76.9556 54.7542C78.7378 56.3833 81.2738 56.5965 82.7095 55.7782C84.504 54.7554 85.7308 53.1847 86.3945 51.5147Z" fill="url(#paint34_radial_1993_4804)"/>
<path fill-rule="evenodd" clip-rule="evenodd" d="M86.4155 51.4998C80.7428 49.2481 78.1227 51.963 77.0638 54.8119C77.0277 54.7931 76.9917 54.774 76.9559 54.7545C76.209 48.2541 84.4129 49.1009 86.691 51.3882C86.5927 51.4121 86.5014 51.45 86.4155 51.4998Z" fill="#7B523B"/>
<path fill-rule="evenodd" clip-rule="evenodd" d="M86.3381 51.4067C83.2512 56.6733 79.5148 56.1446 76.927 54.5497C76.9101 54.5868 76.8936 54.6239 76.8774 54.6613C80.288 60.2452 86.2343 54.5302 86.623 51.3254C86.5311 51.3668 86.4361 51.3932 86.3381 51.4067Z" fill="#7B523B"/>
<path d="M92.3286 10.8514C89.4657 11.1476 82.4197 14.3438 76.3173 22.3252L79.0723 24.6227C79.6042 22.384 92.3961 15.8889 93.9787 15.2006C93.2406 14.7978 90.7463 14.4253 86.6743 16.1576C87.0257 14.924 90.5903 12.1061 92.3286 10.8514Z" fill="url(#paint35_linear_1993_4804)"/>
<path d="M58.8788 13.953C61.2627 14.2424 67.0931 17.0129 72.0657 23.7611L67.4975 26.2365C67.0869 24.3611 58.748 18.1542 57.438 17.5566C58.0597 17.2316 60.1459 16.9577 63.5171 18.463C63.2423 17.4287 60.3104 15.0254 58.8788 13.953Z" fill="url(#paint36_linear_1993_4804)"/>
<path d="M84.9457 8.55548C82.2274 9.50153 76.1044 14.2313 71.9992 23.4013L77.9799 25.137C77.9831 22.836 86.1689 13.4426 87.5509 12.4091C86.74 12.1867 84.2269 12.3973 80.6619 15.019C80.7204 13.7376 83.5421 10.1761 84.9457 8.55548Z" fill="url(#paint37_linear_1993_4804)"/>
<path d="M76.4332 6.46419C74.2508 8.34068 70.2873 14.9854 69.8286 25.0219L76.0293 24.4449C75.189 22.3028 79.3624 10.5629 80.2696 9.09482C79.4335 9.1851 77.1725 10.3021 74.8164 14.0479C74.4012 12.8343 75.7212 8.48641 76.4332 6.46419Z" fill="url(#paint38_linear_1993_4804)"/>
<path d="M63.4061 8.55548C66.1244 9.50153 72.2474 14.2313 76.3527 23.4013L70.3719 25.137C70.3687 22.836 62.1829 13.4426 60.8009 12.4091C61.6118 12.1867 64.1249 12.3973 67.6899 15.019C67.6314 13.7376 64.8097 10.1761 63.4061 8.55548Z" fill="url(#paint39_linear_1993_4804)"/>
<path d="M39.7949 55.2042C38.9705 49.1865 42.3316 45.3637 45.6695 35.5597L52.0814 39.541C49.1773 40.845 42.0738 54.0373 41.0023 59.2946C39.4004 55.7985 42.0573 51.078 42.0573 51.078C42.0573 51.078 40.708 51.7357 39.7949 55.2042Z" fill="url(#paint40_linear_1993_4804)"/>
<path d="M108.769 55.7654C109.798 50.241 106.862 46.5593 104.212 37.3512L98.1102 40.7458C100.736 42.0798 106.715 54.586 107.472 59.4918C109.107 56.3321 106.862 51.852 106.862 51.852C106.862 51.852 108.079 52.5196 108.769 55.7654Z" fill="url(#paint41_linear_1993_4804)"/>
<path d="M100.915 68.7902C103.765 63.9474 102.26 59.4852 102.908 49.9254L96.0147 51.0365C98.0285 53.1857 99.386 66.9811 98.4251 71.8511C101.04 69.4382 100.456 64.4608 100.456 64.4608C100.456 64.4608 101.373 65.5036 100.915 68.7902Z" fill="url(#paint42_linear_1993_4804)"/>
<path d="M93.6631 74.3388C97.9147 70.6644 97.9181 65.955 101.595 57.1068L94.7084 55.951C95.9276 58.632 92.7942 72.1352 90.3238 76.4407C93.5736 74.9926 94.6149 70.0905 94.6149 70.0905C94.6149 70.0905 95.1497 71.3721 93.6631 74.3388Z" fill="url(#paint43_linear_1993_4804)"/>
<path d="M84.1562 76.7365C88.4759 75.2653 89.9127 71.7212 95.3751 66.1799L90.5431 63.2126C90.6444 65.6022 84.1732 74.8131 81.0023 77.3019C83.8898 77.2015 86.1666 73.8283 86.1666 73.8283C86.1666 73.8283 86.1788 74.956 84.1562 76.7365Z" fill="url(#paint44_linear_1993_4804)"/>
<path d="M39.9051 43.9792C40.4876 38.7152 45.3611 37.13 48.0598 27.9987L53.6254 33.3466C50.8923 33.8319 42.0803 43.477 40.0564 47.6948C39.4451 44.3979 42.6956 40.9711 42.6956 40.9711C42.6956 40.9711 41.4148 41.2403 39.9051 43.9792Z" fill="url(#paint45_linear_1993_4804)"/>
<path d="M110.226 45.538C109.921 40.6477 105.488 38.9666 103.399 30.4085L98.0185 35.1037C100.523 35.6733 108.238 44.9775 109.921 48.9649C110.632 45.9453 107.78 42.6344 107.78 42.6344C107.78 42.6344 108.952 42.94 110.226 45.538Z" fill="url(#paint46_linear_1993_4804)"/>
<path d="M106.397 63.6919C107.778 58.9907 104.183 55.8988 105.137 47.1414L98.4784 49.7211C100.638 51.1103 104.72 62.4872 104.943 66.8097C106.641 64.2134 105.088 60.1286 105.088 60.1286C105.088 60.1286 106.086 60.8154 106.397 63.6919Z" fill="url(#paint47_linear_1993_4804)"/>
<defs>
<radialGradient id="paint0_radial_1993_4804" cx="0" cy="0" r="1" gradientUnits="userSpaceOnUse" gradientTransform="translate(104.439 94.7256) rotate(175.463) scale(147.635 24.2841)">
<stop offset="0.301336" stop-color="#9D9547"/>
<stop offset="1" stop-color="#697937"/>
</radialGradient>
<radialGradient id="paint1_radial_1993_4804" cx="0" cy="0" r="1" gradientUnits="userSpaceOnUse" gradientTransform="translate(69.4111 101.282) rotate(2.26013) scale(55.2839 5.79156)">
<stop stop-color="#2F3413"/>
<stop offset="1" stop-color="#2F3413" stop-opacity="0"/>
</radialGradient>
<radialGradient id="paint2_radial_1993_4804" cx="0" cy="0" r="1" gradientUnits="userSpaceOnUse" gradientTransform="translate(144.733 101.709) rotate(2.26013) scale(55.2839 5.79156)">
<stop stop-color="#2F3413"/>
<stop offset="1" stop-color="#2F3413" stop-opacity="0"/>
</radialGradient>
<radialGradient id="paint3_radial_1993_4804" cx="0" cy="0" r="1" gradientUnits="userSpaceOnUse" gradientTransform="translate(80.7873 102.908) rotate(2.26013) scale(55.2839 5.79156)">
<stop stop-color="#2F3413"/>
<stop offset="1" stop-color="#2F3413" stop-opacity="0"/>
</radialGradient>
<radialGradient id="paint4_radial_1993_4804" cx="0" cy="0" r="1" gradientUnits="userSpaceOnUse" gradientTransform="translate(158.199 102.752) rotate(2.26013) scale(55.2839 5.79156)">
<stop stop-color="#2F3413"/>
<stop offset="1" stop-color="#2F3413" stop-opacity="0"/>
</radialGradient>
<radialGradient id="paint5_radial_1993_4804" cx="0" cy="0" r="1" gradientUnits="userSpaceOnUse" gradientTransform="translate(65.1806 89.971) rotate(-107.013) scale(20.9521 10.4569)">
<stop stop-color="#C9AB8F"/>
<stop offset="0.557292" stop-color="#A78062"/>
<stop offset="1" stop-color="#9F775B"/>
</radialGradient>
<radialGradient id="paint6_radial_1993_4804" cx="0" cy="0" r="1" gradientUnits="userSpaceOnUse" gradientTransform="translate(86.8606 101.12) rotate(-96.8987) scale(26.1408 18.22)">
<stop offset="0.284903" stop-color="#321A09" stop-opacity="0.4"/>
<stop offset="1" stop-color="#4A301D" stop-opacity="0"/>
</radialGradient>
<radialGradient id="paint7_radial_1993_4804" cx="0" cy="0" r="1" gradientUnits="userSpaceOnUse" gradientTransform="translate(142.357 94.125) rotate(-111.658) scale(13.5739 8.3056)">
<stop stop-color="#C9AB8F"/>
<stop offset="0.557292" stop-color="#A78062"/>
<stop offset="1" stop-color="#AB7F60"/>
</radialGradient>
<radialGradient id="paint8_radial_1993_4804" cx="0" cy="0" r="1" gradientUnits="userSpaceOnUse" gradientTransform="translate(160.074 101.145) rotate(-98.0966) scale(31.7598 12.241)">
<stop offset="0.284903" stop-color="#321A09" stop-opacity="0.5"/>
<stop offset="1" stop-color="#4A301D" stop-opacity="0"/>
</radialGradient>
<radialGradient id="paint9_radial_1993_4804" cx="0" cy="0" r="1" gradientUnits="userSpaceOnUse" gradientTransform="translate(81.8537 44.5832) rotate(-7.42899) scale(118.731 92.2201)">
<stop stop-color="#D0B69F"/>
<stop offset="0.410394" stop-color="#B88B5E"/>
<stop offset="1" stop-color="#987963"/>
</radialGradient>
<radialGradient id="paint10_radial_1993_4804" cx="0" cy="0" r="1" gradientUnits="userSpaceOnUse" gradientTransform="translate(107.544 21.1441) rotate(-2.04538) scale(102.503 39.9131)">
<stop stop-color="#A3744D"/>
<stop offset="1" stop-color="#946747" stop-opacity="0"/>
</radialGradient>
<radialGradient id="paint11_radial_1993_4804" cx="0" cy="0" r="1" gradientUnits="userSpaceOnUse" gradientTransform="translate(148.249 47.0116) rotate(2.0245) scale(51.3715 30.8713)">
<stop stop-color="#D7AC85" stop-opacity="0.6"/>
<stop offset="1" stop-color="#D8B674" stop-opacity="0"/>
</radialGradient>
<radialGradient id="paint12_radial_1993_4804" cx="0" cy="0" r="1" gradientUnits="userSpaceOnUse" gradientTransform="translate(163.046 87.3954) rotate(103.02) scale(14.9961 9.0118)">
<stop stop-color="#D7AC85" stop-opacity="0.6"/>
<stop offset="1" stop-color="#D8B674" stop-opacity="0"/>
</radialGradient>
<radialGradient id="paint13_radial_1993_4804" cx="0" cy="0" r="1" gradientUnits="userSpaceOnUse" gradientTransform="translate(81.9606 85.2838) rotate(95.4774) scale(15.4853 10.1297)">
<stop stop-color="#D7AC85" stop-opacity="0.6"/>
<stop offset="1" stop-color="#D8B674" stop-opacity="0"/>
</radialGradient>
<linearGradient id="paint14_linear_1993_4804" x1="55.5416" y1="79.3824" x2="50.8276" y2="57.1522" gradientUnits="userSpaceOnUse">
<stop offset="0.53125" stop-color="#9D7253"/>
<stop offset="1" stop-color="#986E51"/>
</linearGradient>
<linearGradient id="paint15_linear_1993_4804" x1="62.5485" y1="82.705" x2="57.8345" y2="60.4748" gradientUnits="userSpaceOnUse">
<stop offset="0.53125" stop-color="#9D7253"/>
<stop offset="1" stop-color="#986E51"/>
</linearGradient>
<linearGradient id="paint16_linear_1993_4804" x1="45.9344" y1="71.3633" x2="46.6335" y2="52.6715" gradientUnits="userSpaceOnUse">
<stop offset="0.53125" stop-color="#9D7253"/>
<stop offset="1" stop-color="#986E51"/>
</linearGradient>
<radialGradient id="paint17_radial_1993_4804" cx="0" cy="0" r="1" gradientUnits="userSpaceOnUse" gradientTransform="translate(61.95 27.837) rotate(85.0123) scale(46.1727 40.3812)">
<stop offset="0.737032" stop-color="#976D50"/>
<stop offset="1" stop-color="#976D50" stop-opacity="0"/>
</radialGradient>
<radialGradient id="paint18_radial_1993_4804" cx="0" cy="0" r="1" gradientUnits="userSpaceOnUse" gradientTransform="translate(94.2321 18.1357) rotate(114.326) scale(13.4 11.7192)">
<stop offset="0.829482" stop-color="#976D50"/>
<stop offset="1" stop-color="#976D50" stop-opacity="0"/>
</radialGradient>
<radialGradient id="paint19_radial_1993_4804" cx="0" cy="0" r="1" gradientUnits="userSpaceOnUse" gradientTransform="translate(42.9602 47.2397) rotate(50.544) scale(51.9918 23.0427)">
<stop offset="0.829482" stop-color="#976D50"/>
<stop offset="1" stop-color="#976D50" stop-opacity="0"/>
</radialGradient>
<radialGradient id="paint20_radial_1993_4804" cx="0" cy="0" r="1" gradientUnits="userSpaceOnUse" gradientTransform="translate(77.441 74.7444) rotate(96.5036) scale(12.7207 5.63781)">
<stop offset="0.439723" stop-color="#976D50"/>
<stop offset="1" stop-color="#976D50" stop-opacity="0"/>
</radialGradient>
<radialGradient id="paint21_radial_1993_4804" cx="0" cy="0" r="1" gradientUnits="userSpaceOnUse" gradientTransform="translate(92.9272 14.5073) rotate(-49.4606) scale(13.9338 10.6322)">
<stop stop-color="#E9D8B8"/>
<stop offset="1" stop-color="#E9D8B8" stop-opacity="0"/>
</radialGradient>
<radialGradient id="paint22_radial_1993_4804" cx="0" cy="0" r="1" gradientUnits="userSpaceOnUse" gradientTransform="translate(53.6025 9.4379) rotate(40.6753) scale(19.9184 15.1988)">
<stop stop-color="#E9D8B8"/>
<stop offset="1" stop-color="#E9D8B8" stop-opacity="0"/>
</radialGradient>
<radialGradient id="paint23_radial_1993_4804" cx="0" cy="0" r="1" gradientUnits="userSpaceOnUse" gradientTransform="translate(70.3874 60.5459) rotate(-102.398) scale(37.627 35.4981)">
<stop stop-color="#DCBE84" stop-opacity="0.8"/>
<stop offset="1" stop-color="#DCBE84" stop-opacity="0"/>
</radialGradient>
<radialGradient id="paint24_radial_1993_4804" cx="0" cy="0" r="1" gradientUnits="userSpaceOnUse" gradientTransform="translate(74.8091 55.3863) rotate(-67.0113) scale(29.0297 24.5943)">
<stop stop-color="#E0CFC0" stop-opacity="0.6"/>
<stop offset="1" stop-color="#EAD5C3" stop-opacity="0"/>
</radialGradient>
<radialGradient id="paint25_radial_1993_4804" cx="0" cy="0" r="1" gradientUnits="userSpaceOnUse" gradientTransform="translate(54.973 54.06) rotate(79.9374) scale(5.35009 5.01566)">
<stop stop-color="#9298B6"/>
<stop offset="0.242792" stop-color="#4F4952"/>
<stop offset="0.577182" stop-color="#2B1607"/>
</radialGradient>
<radialGradient id="paint26_radial_1993_4804" cx="0" cy="0" r="1" gradientUnits="userSpaceOnUse" gradientTransform="translate(57.2482 57.0757) rotate(55.7478) scale(24.0143 13.6527)">
<stop stop-color="#EAD5C3"/>
<stop offset="1" stop-color="#EAD5C3" stop-opacity="0"/>
</radialGradient>
<radialGradient id="paint27_radial_1993_4804" cx="0" cy="0" r="1" gradientUnits="userSpaceOnUse" gradientTransform="translate(57.9298 53.9195) rotate(112.335) scale(9.84926 5.59954)">
<stop stop-color="#EAD5C3"/>
<stop offset="1" stop-color="#EAD5C3" stop-opacity="0"/>
</radialGradient>
<radialGradient id="paint28_radial_1993_4804" cx="0" cy="0" r="1" gradientUnits="userSpaceOnUse" gradientTransform="translate(70.1968 66.3795) rotate(168.831) scale(10.2755 10.9205)">
<stop offset="0.662511" stop-color="#513507"/>
<stop offset="1" stop-color="#513507" stop-opacity="0"/>
</radialGradient>
<radialGradient id="paint29_radial_1993_4804" cx="0" cy="0" r="1" gradientUnits="userSpaceOnUse" gradientTransform="translate(66.2899 72.1036) rotate(-35.3168) scale(5.07954 3.33041)">
<stop offset="0.15584" stop-color="#513507"/>
<stop offset="1" stop-color="#513507" stop-opacity="0"/>
</radialGradient>
<radialGradient id="paint30_radial_1993_4804" cx="0" cy="0" r="1" gradientUnits="userSpaceOnUse" gradientTransform="translate(75.0838 70.2397) rotate(-167.009) scale(4.7713)">
<stop offset="0.15584" stop-color="#513507"/>
<stop offset="1" stop-color="#513507" stop-opacity="0"/>
</radialGradient>
<radialGradient id="paint31_radial_1993_4804" cx="0" cy="0" r="1" gradientUnits="userSpaceOnUse" gradientTransform="translate(67.2022 72.5063) rotate(-86.646) scale(11.6021 10.8222)">
<stop offset="0.708333" stop-color="#543C20"/>
<stop offset="1" stop-color="#A58F76"/>
</radialGradient>
<radialGradient id="paint32_radial_1993_4804" cx="0" cy="0" r="1" gradientUnits="userSpaceOnUse" gradientTransform="translate(92.6382 21.8636) rotate(-86.0975) scale(13.272 6.43987)">
<stop stop-color="#41352D"/>
<stop offset="1" stop-color="#654D3D" stop-opacity="0"/>
</radialGradient>
<radialGradient id="paint33_radial_1993_4804" cx="0" cy="0" r="1" gradientUnits="userSpaceOnUse" gradientTransform="translate(52.5825 22.0204) rotate(-106.41) scale(13.0986 4.35107)">
<stop stop-color="#41352D"/>
<stop offset="1" stop-color="#654D3D" stop-opacity="0"/>
</radialGradient>
<radialGradient id="paint34_radial_1993_4804" cx="0" cy="0" r="1" gradientUnits="userSpaceOnUse" gradientTransform="translate(80.7118 52.3765) rotate(100.103) scale(5.46131)">
<stop stop-color="#9298B6"/>
<stop offset="0.242792" stop-color="#4F4952"/>
<stop offset="0.577182" stop-color="#2B1607"/>
</radialGradient>
<linearGradient id="paint35_linear_1993_4804" x1="92.1477" y1="12.2262" x2="80.4327" y2="22.3848" gradientUnits="userSpaceOnUse">
<stop stop-color="#B89979"/>
<stop offset="1" stop-color="#986E50"/>
</linearGradient>
<linearGradient id="paint36_linear_1993_4804" x1="59.0094" y1="15.1025" x2="68.7642" y2="25.467" gradientUnits="userSpaceOnUse">
<stop stop-color="#B89979"/>
<stop offset="1" stop-color="#9B7253"/>
</linearGradient>
<linearGradient id="paint37_linear_1993_4804" x1="85.0855" y1="9.935" x2="76.0182" y2="22.5137" gradientUnits="userSpaceOnUse">
<stop stop-color="#B89979"/>
<stop offset="1" stop-color="#997051"/>
</linearGradient>
<linearGradient id="paint38_linear_1993_4804" x1="77.0689" y1="7.69647" x2="73.2427" y2="22.7231" gradientUnits="userSpaceOnUse">
<stop stop-color="#B89979"/>
<stop offset="1" stop-color="#997152"/>
</linearGradient>
<linearGradient id="paint39_linear_1993_4804" x1="63.2663" y1="9.935" x2="72.3336" y2="22.5137" gradientUnits="userSpaceOnUse">
<stop stop-color="#B89979"/>
<stop offset="1" stop-color="#9A7152"/>
</linearGradient>
<linearGradient id="paint40_linear_1993_4804" x1="37.8867" y1="59.3656" x2="48.6493" y2="40.8091" gradientUnits="userSpaceOnUse">
<stop offset="0.53125" stop-color="#9D7253"/>
<stop offset="0.913888" stop-color="#996F51"/>
<stop offset="1" stop-color="#986E51" stop-opacity="0"/>
</linearGradient>
<linearGradient id="paint41_linear_1993_4804" x1="110.334" y1="59.7307" x2="101.702" y2="42.215" gradientUnits="userSpaceOnUse">
<stop offset="0.572917" stop-color="#D0B18D"/>
<stop offset="1" stop-color="#BA9D7E" stop-opacity="0"/>
</linearGradient>
<linearGradient id="paint42_linear_1993_4804" x1="101.035" y1="73.0515" x2="98.8906" y2="53.6422" gradientUnits="userSpaceOnUse">
<stop offset="0.572917" stop-color="#D0B18D"/>
<stop offset="1" stop-color="#BA9D7E" stop-opacity="0"/>
</linearGradient>
<linearGradient id="paint43_linear_1993_4804" x1="92.4113" y1="78.4138" x2="96.598" y2="59.3406" gradientUnits="userSpaceOnUse">
<stop offset="0.572917" stop-color="#D0B18D"/>
<stop offset="1" stop-color="#BA9D7E" stop-opacity="0"/>
</linearGradient>
<linearGradient id="paint44_linear_1993_4804" x1="81.9728" y1="79.423" x2="92.5415" y2="64.3094" gradientUnits="userSpaceOnUse">
<stop offset="0.817797" stop-color="#D0B18D"/>
<stop offset="1" stop-color="#BA9D7E" stop-opacity="0"/>
</linearGradient>
<linearGradient id="paint45_linear_1993_4804" x1="37.405" y1="47.0919" x2="50.4518" y2="33.6885" gradientUnits="userSpaceOnUse">
<stop offset="0.53125" stop-color="#9D7253"/>
<stop offset="0.926912" stop-color="#996F51"/>
<stop offset="1" stop-color="#986E51" stop-opacity="0"/>
</linearGradient>
<linearGradient id="paint46_linear_1993_4804" x1="112.398" y1="48.5254" x2="100.936" y2="35.5604" gradientUnits="userSpaceOnUse">
<stop offset="0.572917" stop-color="#D0B18D"/>
<stop offset="1" stop-color="#BA9D7E" stop-opacity="0"/>
</linearGradient>
<linearGradient id="paint47_linear_1993_4804" x1="107.421" y1="67.2409" x2="101.065" y2="51.1451" gradientUnits="userSpaceOnUse">
<stop offset="0.572917" stop-color="#D0B18D"/>
<stop offset="1" stop-color="#BA9D7E" stop-opacity="0"/>
</linearGradient>
</defs>
</svg>
