<svg viewBox="0 0 240 120" fill="none" xmlns="http://www.w3.org/2000/svg">
<path d="M156.575 84.7817C159.138 79.1533 189.788 81.2854 190.584 84.7818C191.38 88.2783 195.146 96.1455 203.322 96.1455C211.498 96.1455 211.446 103.785 218.962 105.47C226.479 107.154 225.159 120.001 225.159 120.001H10.0249C7.29589 118.975 9.58127 118.316 14.0623 117.125C20.1888 115.496 21.8092 98.8194 26.4917 97.7996C30.2378 96.9837 55.7304 98.9136 60.0737 96.1455L61.7024 92.6489C64.0098 91.8719 71.5969 90.4927 83.4866 91.192C98.3486 92.0662 113.821 89.7351 121.151 88.2783C128.48 86.8214 154.853 88.566 156.575 84.7817Z" fill="url(#paint0_linear_7928_3261)"/>
<path d="M156.575 84.7817C159.138 79.1533 189.788 81.2854 190.584 84.7818C191.38 88.2783 195.146 96.1455 203.322 96.1455C211.498 96.1455 211.446 103.785 218.962 105.47C226.479 107.154 225.159 120.001 225.159 120.001H10.0249C7.29589 118.975 9.58127 118.316 14.0623 117.125C20.1888 115.496 21.8092 98.8194 26.4917 97.7996C30.2378 96.9837 55.7304 98.9136 60.0737 96.1455L61.7024 92.6489C64.0098 91.8719 71.5969 90.4927 83.4866 91.192C98.3486 92.0662 113.821 89.7351 121.151 88.2783C128.48 86.8214 154.853 88.566 156.575 84.7817Z" fill="url(#paint1_radial_7928_3261)"/>
<path d="M156.575 84.7817C159.138 79.1533 189.788 81.2854 190.584 84.7818C191.38 88.2783 195.146 96.1455 203.322 96.1455C211.498 96.1455 211.446 103.785 218.962 105.47C226.479 107.154 225.159 120.001 225.159 120.001H10.0249C7.29589 118.975 9.58127 118.316 14.0623 117.125C20.1888 115.496 21.8092 98.8194 26.4917 97.7996C30.2378 96.9837 55.7304 98.9136 60.0737 96.1455L61.7024 92.6489C64.0098 91.8719 71.5969 90.4927 83.4866 91.192C98.3486 92.0662 113.821 89.7351 121.151 88.2783C128.48 86.8214 154.853 88.566 156.575 84.7817Z" fill="url(#paint2_radial_7928_3261)"/>
<path d="M156.575 84.7817C159.138 79.1533 189.788 81.2854 190.584 84.7818C191.38 88.2783 195.146 96.1455 203.322 96.1455C211.498 96.1455 211.446 103.785 218.962 105.47C226.479 107.154 225.159 120.001 225.159 120.001H10.0249C7.29589 118.975 9.58127 118.316 14.0623 117.125C20.1888 115.496 21.8092 98.8194 26.4917 97.7996C30.2378 96.9837 55.7304 98.9136 60.0737 96.1455L61.7024 92.6489C64.0098 91.8719 71.5969 90.4927 83.4866 91.192C98.3486 92.0662 113.821 89.7351 121.151 88.2783C128.48 86.8214 154.853 88.566 156.575 84.7817Z" fill="url(#paint3_radial_7928_3261)"/>
<path d="M156.575 84.7817C159.138 79.1533 189.788 81.2854 190.584 84.7818C191.38 88.2783 195.146 96.1455 203.322 96.1455C211.498 96.1455 211.446 103.785 218.962 105.47C226.479 107.154 225.159 120.001 225.159 120.001H10.0249C7.29589 118.975 9.58127 118.316 14.0623 117.125C20.1888 115.496 21.8092 98.8194 26.4917 97.7996C30.2378 96.9837 55.7304 98.9136 60.0737 96.1455L61.7024 92.6489C64.0098 91.8719 71.5969 90.4927 83.4866 91.192C98.3486 92.0662 113.821 89.7351 121.151 88.2783C128.48 86.8214 154.853 88.566 156.575 84.7817Z" fill="url(#paint4_linear_7928_3261)"/>
<path d="M156.575 84.7817C159.138 79.1533 189.788 81.2854 190.584 84.7818C191.38 88.2783 195.146 96.1455 203.322 96.1455C211.498 96.1455 211.446 103.785 218.962 105.47C226.479 107.154 225.159 120.001 225.159 120.001H10.0249C7.29589 118.975 9.58127 118.316 14.0623 117.125C20.1888 115.496 21.8092 98.8194 26.4917 97.7996C30.2378 96.9837 55.7304 98.9136 60.0737 96.1455L61.7024 92.6489C64.0098 91.8719 71.5969 90.4927 83.4866 91.192C98.3486 92.0662 113.821 89.7351 121.151 88.2783C128.48 86.8214 154.853 88.566 156.575 84.7817Z" fill="url(#paint5_radial_7928_3261)"/>
<path fill-rule="evenodd" clip-rule="evenodd" d="M94.7761 91.3042C105.571 90.9422 115.486 89.3954 120.989 88.3096C119.406 94.5848 114.973 97.9301 110.269 101.48C104.728 105.662 98.8112 110.127 96.7334 120H42.3659C51.2946 112.31 57.5417 105.645 61.5832 92.9047L61.6579 92.7445C62.5408 92.4689 63.3931 92.2322 64.2224 92.0294C67.0212 91.4929 71.5673 90.9681 77.6619 91.0008C78.5741 91.0353 79.512 91.0782 80.4864 91.1227C84.4215 91.3026 88.9511 91.5096 94.7761 91.3042Z" fill="url(#paint6_radial_7928_3261)"/>
<path fill-rule="evenodd" clip-rule="evenodd" d="M94.7761 91.3042C105.571 90.9422 115.486 89.3954 120.989 88.3096C119.406 94.5848 114.973 97.9301 110.269 101.48C104.728 105.662 98.8112 110.127 96.7334 120H42.3659C51.2946 112.31 57.5417 105.645 61.5832 92.9047L61.6579 92.7445C62.5408 92.4689 63.3931 92.2322 64.2224 92.0294C67.0212 91.4929 71.5673 90.9681 77.6619 91.0008C78.5741 91.0353 79.512 91.0782 80.4864 91.1227C84.4215 91.3026 88.9511 91.5096 94.7761 91.3042Z" fill="url(#paint7_radial_7928_3261)"/>
<path fill-rule="evenodd" clip-rule="evenodd" d="M121.355 88.2381C124.143 87.7296 129.394 87.6334 135.01 87.5305C143.362 87.3775 152.523 87.2096 155.594 85.6488C155.647 85.6337 155.701 85.6185 155.753 85.603C154.549 91.4208 153.028 94.9048 151.35 98.7493C151.14 99.2298 150.928 99.716 150.714 100.213C148.507 105.33 146.192 110.699 144.377 120H96.81C98.0483 111.592 105 105.769 111.204 100.573C116.192 96.3956 120.696 92.6232 121.355 88.2381Z" fill="url(#paint8_radial_7928_3261)"/>
<path fill-rule="evenodd" clip-rule="evenodd" d="M121.355 88.2381C124.143 87.7296 129.394 87.6334 135.01 87.5305C143.362 87.3775 152.523 87.2096 155.594 85.6488C155.647 85.6337 155.701 85.6185 155.753 85.603C154.549 91.4208 153.028 94.9048 151.35 98.7493C151.14 99.2298 150.928 99.716 150.714 100.213C148.507 105.33 146.192 110.699 144.377 120H96.81C98.0483 111.592 105 105.769 111.204 100.573C116.192 96.3956 120.696 92.6232 121.355 88.2381Z" fill="url(#paint9_radial_7928_3261)"/>
<path fill-rule="evenodd" clip-rule="evenodd" d="M190.337 84.3571C187.31 81.1229 159.032 79.3852 156.575 84.7817C156.475 85.0021 156.291 85.2038 156.032 85.3885C155.141 88.3769 153.812 91.546 152.364 95.0018C149.47 101.908 146.097 109.958 144.771 120.001H190.7C191.332 113.986 190.945 107.674 190.563 101.428C190.205 95.5813 189.85 89.792 190.337 84.3571Z" fill="url(#paint10_radial_7928_3261)"/>
<path fill-rule="evenodd" clip-rule="evenodd" d="M190.337 84.3571C187.31 81.1229 159.032 79.3852 156.575 84.7817C156.475 85.0021 156.291 85.2038 156.032 85.3885C155.141 88.3769 153.812 91.546 152.364 95.0018C149.47 101.908 146.097 109.958 144.771 120.001H190.7C191.332 113.986 190.945 107.674 190.563 101.428C190.205 95.5813 189.85 89.792 190.337 84.3571Z" fill="url(#paint11_radial_7928_3261)"/>
<path fill-rule="evenodd" clip-rule="evenodd" d="M42.2324 120H10.0249C7.29589 118.975 9.58127 118.315 14.0623 117.124C17.3154 116.259 19.298 111.152 21.1432 106.398C22.773 102.2 24.2955 98.277 26.4917 97.7987C27.8274 97.5078 31.928 97.5659 36.8488 97.6358C45.706 97.7614 57.2206 97.9248 60.0522 96.158C60.1672 96.1056 60.2725 96.0496 60.3675 95.9897C57.6463 103.684 53.1248 111.322 42.2324 120Z" fill="url(#paint12_radial_7928_3261)"/>
<path fill-rule="evenodd" clip-rule="evenodd" d="M42.2324 120H10.0249C7.29589 118.975 9.58127 118.315 14.0623 117.124C17.3154 116.259 19.298 111.152 21.1432 106.398C22.773 102.2 24.2955 98.277 26.4917 97.7987C27.8274 97.5078 31.928 97.5659 36.8488 97.6358C45.706 97.7614 57.2206 97.9248 60.0522 96.158C60.1672 96.1056 60.2725 96.0496 60.3675 95.9897C57.6463 103.684 53.1248 111.322 42.2324 120Z" fill="url(#paint13_radial_7928_3261)"/>
<path d="M197.501 64.0698L196.865 67.3579V70.2883C196.865 70.4867 196.707 70.6475 196.514 70.6475H191.839C191.645 70.6475 191.489 70.4862 191.489 70.2883V67.3579L190.852 64.0698H191.568L192.121 66.961H193.825V64.0698H194.526V66.961H196.23L196.783 64.0698H197.501Z" fill="#C1AA7C"/>
<path d="M197.501 64.0698L196.865 67.3579V70.2883C196.865 70.4867 196.707 70.6475 196.514 70.6475H191.839C191.645 70.6475 191.489 70.4862 191.489 70.2883V67.3579L190.852 64.0698H191.568L192.121 66.961H193.825V64.0698H194.526V66.961H196.23L196.783 64.0698H197.501Z" fill="url(#paint14_radial_7928_3261)"/>
<path d="M208.786 44.3184C208.786 36.5709 202.915 31.3657 194.176 31.3657C185.438 31.3657 179.567 36.5711 179.567 44.3184C179.567 53.2122 188.48 56.617 190.497 63.7554C190.509 63.9828 190.644 64.1746 190.836 64.266H197.517C197.708 64.1749 197.845 63.9828 197.856 63.7554C199.891 56.6164 208.786 53.2126 208.786 44.3184Z" fill="url(#paint15_linear_7928_3261)"/>
<path d="M208.786 44.3184C208.786 36.5709 202.915 31.3657 194.176 31.3657C185.438 31.3657 179.567 36.5711 179.567 44.3184C179.567 53.2122 188.48 56.617 190.497 63.7554C190.509 63.9828 190.644 64.1746 190.836 64.266H197.517C197.708 64.1749 197.845 63.9828 197.856 63.7554C199.891 56.6164 208.786 53.2126 208.786 44.3184Z" fill="url(#paint16_radial_7928_3261)"/>
<path d="M208.786 44.3184C208.786 36.5709 202.915 31.3657 194.176 31.3657C185.438 31.3657 179.567 36.5711 179.567 44.3184C179.567 53.2122 188.48 56.617 190.497 63.7554C190.509 63.9828 190.644 64.1746 190.836 64.266H197.517C197.708 64.1749 197.845 63.9828 197.856 63.7554C199.891 56.6164 208.786 53.2126 208.786 44.3184Z" fill="url(#paint17_radial_7928_3261)"/>
<path d="M198.324 44.3184C198.324 36.5709 196.657 31.3657 194.177 31.3657C191.696 31.3657 190.03 36.5711 190.03 44.3184C190.03 53.2122 192.56 56.617 193.132 63.7554C193.136 63.9828 193.174 64.1746 193.229 64.266H195.125C195.18 64.1749 195.218 63.9828 195.222 63.7554C195.799 56.6164 198.324 53.2126 198.324 44.3184Z" fill="url(#paint18_radial_7928_3261)"/>
<path d="M194.176 31.3657C196.657 31.3657 198.323 36.5709 198.323 44.3184C198.323 49.4329 197.488 52.7319 196.669 55.9696C196.063 58.3624 195.466 60.7216 195.221 63.7554C195.218 63.9828 195.179 64.1749 195.125 64.266H196.215C196.331 64.1749 196.415 63.9828 196.422 63.7554C196.949 60.7216 198.233 58.3624 199.535 55.9696C201.296 52.7319 203.091 49.4329 203.091 44.3184C203.091 36.5709 199.508 31.3657 194.176 31.3657Z" fill="url(#paint19_radial_7928_3261)"/>
<path d="M194.176 31.3657C196.657 31.3657 198.323 36.5709 198.323 44.3184C198.323 49.4329 197.488 52.7319 196.669 55.9696C196.063 58.3624 195.466 60.7216 195.221 63.7554C195.218 63.9828 195.179 64.1749 195.125 64.266H196.215C196.331 64.1749 196.415 63.9828 196.422 63.7554C196.949 60.7216 198.233 58.3624 199.535 55.9696C201.296 52.7319 203.091 49.4329 203.091 44.3184C203.091 36.5709 199.508 31.3657 194.176 31.3657Z" fill="url(#paint20_radial_7928_3261)"/>
<path d="M194.174 31.3657C191.693 31.3657 190.026 36.5709 190.026 44.3184C190.026 49.4329 190.861 52.7319 191.681 55.9696C192.287 58.3624 192.884 60.7216 193.129 63.7554C193.132 63.9828 193.171 64.1749 193.225 64.266H192.135C192.019 64.1749 191.935 63.9828 191.928 63.7554C191.401 60.7216 190.117 58.3624 188.815 55.9696C187.054 52.7319 185.259 49.4329 185.259 44.3184C185.259 36.5709 188.841 31.3657 194.174 31.3657Z" fill="url(#paint21_radial_7928_3261)"/>
<path d="M194.174 31.3657C191.693 31.3657 190.026 36.5709 190.026 44.3184C190.026 49.4329 190.861 52.7319 191.681 55.9696C192.287 58.3624 192.884 60.7216 193.129 63.7554C193.132 63.9828 193.171 64.1749 193.225 64.266H192.135C192.019 64.1749 191.935 63.9828 191.928 63.7554C191.401 60.7216 190.117 58.3624 188.815 55.9696C187.054 52.7319 185.259 49.4329 185.259 44.3184C185.259 36.5709 188.841 31.3657 194.174 31.3657Z" fill="url(#paint22_radial_7928_3261)"/>
<path d="M194.175 31.3657C199.508 31.3657 203.09 36.5709 203.09 44.3184C203.09 49.4329 201.295 52.7319 199.534 55.9696C198.232 58.3624 196.948 60.7216 196.421 63.7554C196.414 63.9827 196.331 64.1747 196.214 64.2658H197.022C197.185 64.1748 197.302 63.9827 197.311 63.7553C198.047 60.7215 199.839 58.3622 201.656 55.9695C204.114 52.7318 206.619 49.4327 206.619 44.3182C206.619 36.5707 201.618 31.3657 194.175 31.3657Z" fill="url(#paint23_radial_7928_3261)"/>
<path d="M194.175 31.3657C199.508 31.3657 203.09 36.5709 203.09 44.3184C203.09 49.4329 201.295 52.7319 199.534 55.9696C198.232 58.3624 196.948 60.7216 196.421 63.7554C196.414 63.9827 196.331 64.1747 196.214 64.2658H197.022C197.185 64.1748 197.302 63.9827 197.311 63.7553C198.047 60.7215 199.839 58.3622 201.656 55.9695C204.114 52.7318 206.619 49.4327 206.619 44.3182C206.619 36.5707 201.618 31.3657 194.175 31.3657Z" fill="url(#paint24_radial_7928_3261)"/>
<path d="M194.175 31.3657C201.617 31.3657 206.619 36.5707 206.619 44.3182C206.619 49.4327 204.114 52.7317 201.656 55.9695C199.839 58.3622 198.047 60.7215 197.311 63.7553C197.301 63.9827 197.185 64.1748 197.022 64.2658L197.517 64.2659C197.708 64.1748 197.846 63.9827 197.857 63.7553C198.721 60.7215 200.825 58.3623 202.958 55.9695C205.845 52.7318 208.786 49.4328 208.786 44.3183C208.786 36.5708 202.914 31.3657 194.175 31.3657Z" fill="url(#paint25_radial_7928_3261)"/>
<path d="M194.175 31.3657C188.843 31.3657 185.26 36.5709 185.26 44.3184C185.26 49.4329 187.055 52.7319 188.817 55.9696C190.118 58.3624 191.402 60.7216 191.93 63.7554C191.936 63.9827 192.02 64.1747 192.136 64.2658H191.328C191.166 64.1748 191.049 63.9827 191.04 63.7553C190.303 60.7215 188.512 58.3622 186.695 55.9695C184.236 52.7318 181.731 49.4327 181.731 44.3182C181.731 36.5707 186.733 31.3657 194.175 31.3657Z" fill="url(#paint26_radial_7928_3261)"/>
<path d="M194.175 31.3657C188.843 31.3657 185.26 36.5709 185.26 44.3184C185.26 49.4329 187.055 52.7319 188.817 55.9696C190.118 58.3624 191.402 60.7216 191.93 63.7554C191.936 63.9827 192.02 64.1747 192.136 64.2658H191.328C191.166 64.1748 191.049 63.9827 191.04 63.7553C190.303 60.7215 188.512 58.3622 186.695 55.9695C184.236 52.7318 181.731 49.4327 181.731 44.3182C181.731 36.5707 186.733 31.3657 194.175 31.3657Z" fill="url(#paint27_radial_7928_3261)"/>
<path d="M52.4746 72.5796L51.6292 76.9446V80.8347C51.6292 81.0982 51.4204 81.3116 51.1637 81.3116H44.9576C44.7007 81.3116 44.4927 81.0974 44.4927 80.8347V76.9446L43.6471 72.5796H44.5983L45.3325 76.4176H47.5944V72.5796H48.525V76.4176H50.7869L51.5208 72.5796H52.4746Z" fill="#C1AA7C"/>
<path d="M52.4746 72.5796L51.6292 76.9446V80.8347C51.6292 81.0982 51.4204 81.3116 51.1637 81.3116H44.9576C44.7007 81.3116 44.4927 81.0974 44.4927 80.8347V76.9446L43.6471 72.5796H44.5983L45.3325 76.4176H47.5944V72.5796H48.525V76.4176H50.7869L51.5208 72.5796H52.4746Z" fill="url(#paint28_radial_7928_3261)"/>
<path d="M67.4552 46.3609C67.4552 36.076 59.6606 29.166 48.06 29.166C36.4594 29.166 28.6663 36.0763 28.6663 46.3609C28.6663 58.1676 40.4982 62.6876 43.1754 72.164C43.1916 72.4659 43.3717 72.7205 43.6266 72.8418H52.4953C52.749 72.7209 52.9311 72.4659 52.9456 72.164C55.6461 62.6869 67.4552 58.1681 67.4552 46.3609Z" fill="url(#paint29_linear_7928_3261)"/>
<path d="M67.4552 46.3609C67.4552 36.076 59.6606 29.166 48.06 29.166C36.4594 29.166 28.6663 36.0763 28.6663 46.3609C28.6663 58.1676 40.4982 62.6876 43.1754 72.164C43.1916 72.4659 43.3717 72.7205 43.6266 72.8418H52.4953C52.749 72.7209 52.9311 72.4659 52.9456 72.164C55.6461 62.6869 67.4552 58.1681 67.4552 46.3609Z" fill="url(#paint30_radial_7928_3261)"/>
<path d="M67.4552 46.3609C67.4552 36.076 59.6606 29.166 48.06 29.166C36.4594 29.166 28.6663 36.0763 28.6663 46.3609C28.6663 58.1676 40.4982 62.6876 43.1754 72.164C43.1916 72.4659 43.3717 72.7205 43.6266 72.8418H52.4953C52.749 72.7209 52.9311 72.4659 52.9456 72.164C55.6461 62.6869 67.4552 58.1681 67.4552 46.3609Z" fill="url(#paint31_radial_7928_3261)"/>
<path d="M53.4104 46.3609C53.4104 36.076 51.2821 29.166 48.1146 29.166C44.947 29.166 42.8192 36.0763 42.8192 46.3609C42.8192 58.1676 46.0499 62.6876 46.7808 72.164C46.7853 72.4659 46.8344 72.7205 46.904 72.8418H49.3256C49.3949 72.7209 49.4446 72.4659 49.4486 72.164C50.1859 62.6869 53.4104 58.1681 53.4104 46.3609Z" fill="#12C178"/>
<path d="M53.4104 46.3609C53.4104 36.076 51.2821 29.166 48.1146 29.166C44.947 29.166 42.8192 36.0763 42.8192 46.3609C42.8192 58.1676 46.0499 62.6876 46.7808 72.164C46.7853 72.4659 46.8344 72.7205 46.904 72.8418H49.3256C49.3949 72.7209 49.4446 72.4659 49.4486 72.164C50.1859 62.6869 53.4104 58.1681 53.4104 46.3609Z" fill="url(#paint32_radial_7928_3261)"/>
<path d="M48.1146 29.166C51.2821 29.166 53.4104 36.076 53.4104 46.3609C53.4104 53.1505 52.3442 57.5301 51.2977 61.8282C50.5244 65.0046 49.7619 68.1366 49.4486 72.164C49.4446 72.4659 49.3949 72.7209 49.3256 72.8418H50.7176C50.8665 72.7209 50.9734 72.4659 50.9819 72.164C51.6555 68.1366 53.2946 65.0046 54.9569 61.8282C57.2063 57.5301 59.4983 53.1505 59.4983 46.3609C59.4983 36.076 54.9235 29.166 48.1146 29.166Z" fill="url(#paint33_radial_7928_3261)"/>
<path d="M48.1146 29.166C51.2821 29.166 53.4104 36.076 53.4104 46.3609C53.4104 53.1505 52.3442 57.5301 51.2977 61.8282C50.5244 65.0046 49.7619 68.1366 49.4486 72.164C49.4446 72.4659 49.3949 72.7209 49.3256 72.8418H50.7176C50.8665 72.7209 50.9734 72.4659 50.9819 72.164C51.6555 68.1366 53.2946 65.0046 54.9569 61.8282C57.2063 57.5301 59.4983 53.1505 59.4983 46.3609C59.4983 36.076 54.9235 29.166 48.1146 29.166Z" fill="url(#paint34_radial_7928_3261)"/>
<path d="M48.1115 29.166C44.9439 29.166 42.8156 36.076 42.8156 46.3609C42.8156 53.1505 43.8818 57.5301 44.9283 61.8282C45.7016 65.0046 46.4641 68.1366 46.7774 72.164C46.7814 72.4659 46.8311 72.7209 46.9004 72.8418H45.5084C45.3595 72.7209 45.2526 72.4659 45.2441 72.164C44.5705 68.1366 42.9314 65.0046 41.2691 61.8282C39.0197 57.5301 36.7278 53.1505 36.7278 46.3609C36.7278 36.076 41.3025 29.166 48.1115 29.166Z" fill="url(#paint35_radial_7928_3261)"/>
<path d="M48.1115 29.166C44.9439 29.166 42.8156 36.076 42.8156 46.3609C42.8156 53.1505 43.8818 57.5301 44.9283 61.8282C45.7016 65.0046 46.4641 68.1366 46.7774 72.164C46.7814 72.4659 46.8311 72.7209 46.9004 72.8418H45.5084C45.3595 72.7209 45.2526 72.4659 45.2441 72.164C44.5705 68.1366 42.9314 65.0046 41.2691 61.8282C39.0197 57.5301 36.7278 53.1505 36.7278 46.3609C36.7278 36.076 41.3025 29.166 48.1115 29.166Z" fill="url(#paint36_radial_7928_3261)"/>
<path d="M48.1135 29.166C54.9224 29.166 59.4972 36.076 59.4972 46.361C59.4972 53.1506 57.2052 57.5301 54.9559 61.8282C53.2935 65.0046 51.6545 68.1366 50.9809 72.164C50.9723 72.4657 50.8656 72.7207 50.7168 72.8416H51.7484C51.9563 72.7207 52.1054 72.4657 52.1174 72.1638C53.0575 68.1364 55.3451 65.0044 57.6651 61.828C60.8045 57.5299 64.0034 53.1503 64.0034 46.3608C64.0034 36.0758 57.6165 29.166 48.1135 29.166Z" fill="#12C178"/>
<path d="M48.1135 29.166C54.9224 29.166 59.4972 36.076 59.4972 46.361C59.4972 53.1506 57.2052 57.5301 54.9559 61.8282C53.2935 65.0046 51.6545 68.1366 50.9809 72.164C50.9723 72.4657 50.8656 72.7207 50.7168 72.8416H51.7484C51.9563 72.7207 52.1054 72.4657 52.1174 72.1638C53.0575 68.1364 55.3451 65.0044 57.6651 61.828C60.8045 57.5299 64.0034 53.1503 64.0034 46.3608C64.0034 36.0758 57.6165 29.166 48.1135 29.166Z" fill="url(#paint37_radial_7928_3261)"/>
<path d="M48.1135 29.166C54.9224 29.166 59.4972 36.076 59.4972 46.361C59.4972 53.1506 57.2052 57.5301 54.9559 61.8282C53.2935 65.0046 51.6545 68.1366 50.9809 72.164C50.9723 72.4657 50.8656 72.7207 50.7168 72.8416H51.7484C51.9563 72.7207 52.1054 72.4657 52.1174 72.1638C53.0575 68.1364 55.3451 65.0044 57.6651 61.828C60.8045 57.5299 64.0034 53.1503 64.0034 46.3608C64.0034 36.0758 57.6165 29.166 48.1135 29.166Z" fill="url(#paint38_radial_7928_3261)"/>
<path d="M48.1134 29.166C57.6164 29.166 64.0033 36.0758 64.0033 46.3607C64.0033 53.1503 60.8045 57.5299 57.6651 61.828C55.345 65.0044 53.0574 68.1364 52.1173 72.1638C52.1053 72.4657 51.9562 72.7207 51.7483 72.8416L52.3808 72.8416C52.6249 72.7208 52.8 72.4658 52.8141 72.1639C53.9179 68.1364 56.604 65.0045 59.3281 61.8281C63.0144 57.5299 66.7704 53.1504 66.7704 46.3608C66.7704 36.0758 59.2717 29.166 48.1134 29.166Z" fill="url(#paint39_radial_7928_3261)"/>
<path d="M48.1133 29.166C41.3044 29.166 36.7296 36.076 36.7296 46.361C36.7296 53.1506 39.0216 57.5301 41.271 61.8282C42.9333 65.0046 44.5723 68.1366 45.2459 72.164C45.2545 72.4657 45.3612 72.7207 45.51 72.8416H44.4784C44.2705 72.7207 44.1214 72.4657 44.1094 72.1638C43.1693 68.1364 40.8817 65.0044 38.5617 61.828C35.4223 57.5299 32.2234 53.1503 32.2234 46.3608C32.2234 36.0758 38.6103 29.166 48.1133 29.166Z" fill="#12C178"/>
<path d="M48.1133 29.166C41.3044 29.166 36.7296 36.076 36.7296 46.361C36.7296 53.1506 39.0216 57.5301 41.271 61.8282C42.9333 65.0046 44.5723 68.1366 45.2459 72.164C45.2545 72.4657 45.3612 72.7207 45.51 72.8416H44.4784C44.2705 72.7207 44.1214 72.4657 44.1094 72.1638C43.1693 68.1364 40.8817 65.0044 38.5617 61.828C35.4223 57.5299 32.2234 53.1503 32.2234 46.3608C32.2234 36.0758 38.6103 29.166 48.1133 29.166Z" fill="url(#paint40_radial_7928_3261)"/>
<path d="M48.1133 29.166C41.3044 29.166 36.7296 36.076 36.7296 46.361C36.7296 53.1506 39.0216 57.5301 41.271 61.8282C42.9333 65.0046 44.5723 68.1366 45.2459 72.164C45.2545 72.4657 45.3612 72.7207 45.51 72.8416H44.4784C44.2705 72.7207 44.1214 72.4657 44.1094 72.1638C43.1693 68.1364 40.8817 65.0044 38.5617 61.828C35.4223 57.5299 32.2234 53.1503 32.2234 46.3608C32.2234 36.0758 38.6103 29.166 48.1133 29.166Z" fill="url(#paint41_radial_7928_3261)"/>
<path d="M128.297 77.168L126.897 84.395V90.8356C126.897 91.2718 126.552 91.6253 126.127 91.6253H115.851C115.426 91.6253 115.082 91.2706 115.082 90.8356V84.395L113.682 77.168H115.256L116.472 83.5224H120.217V77.168H121.758V83.5224H125.503L126.718 77.168H128.297Z" fill="#C1AA7C"/>
<path d="M128.297 77.168L126.897 84.395V90.8356C126.897 91.2718 126.552 91.6253 126.127 91.6253H115.851C115.426 91.6253 115.082 91.2706 115.082 90.8356V84.395L113.682 77.168H115.256L116.472 83.5224H120.217V77.168H121.758V83.5224H125.503L126.718 77.168H128.297Z" fill="url(#paint42_radial_7928_3261)"/>
<path fill-rule="evenodd" clip-rule="evenodd" d="M92.376 19.7492H149.601C144.558 10.807 134.389 5.35407 121.233 5.28711H120.742C107.586 5.35407 97.4182 10.8072 92.376 19.7492Z" fill="#6284FF"/>
<path fill-rule="evenodd" clip-rule="evenodd" d="M149.602 19.7485C151.869 23.7692 153.1 28.4952 153.1 33.7542C153.1 33.9071 153.099 34.0592 153.096 34.2106H88.8821C88.8797 34.0592 88.8785 33.9071 88.8785 33.7542C88.8785 28.4953 90.1092 23.7692 92.3762 19.7485H149.602Z" fill="#AE4AD1"/>
<path fill-rule="evenodd" clip-rule="evenodd" d="M153.096 34.2119H88.8824C88.9714 39.8848 90.7191 44.5356 93.2512 48.674H148.735C151.263 44.5357 153.008 39.885 153.096 34.2119Z" fill="#FF3E55"/>
<path fill-rule="evenodd" clip-rule="evenodd" d="M148.734 48.6733H93.251C95.6162 52.539 98.6659 55.9578 101.688 59.3452C102.812 60.6058 103.933 61.8621 105.013 63.1355H136.981C138.056 61.8684 139.171 60.6183 140.289 59.3639C143.315 55.9704 146.368 52.5462 148.734 48.6733Z" fill="#FF9B3E"/>
<path fill-rule="evenodd" clip-rule="evenodd" d="M136.981 63.1348H105.013C108.445 67.1804 111.467 71.3984 112.901 76.4758C112.928 76.9748 113.225 77.3957 113.646 77.5969H128.334C128.752 77.3963 129.053 76.9748 129.077 76.4758C130.524 71.3981 133.55 67.1802 136.981 63.1348Z" fill="#FFCD3E"/>
<path d="M153.1 33.7561C153.1 16.7276 140.195 5.28711 120.988 5.28711C101.781 5.28711 88.8785 16.7281 88.8785 33.7561C88.8785 53.304 108.468 60.7875 112.901 76.4772C112.927 76.977 113.226 77.3986 113.648 77.5993H128.331C128.751 77.3993 129.053 76.977 129.077 76.4772C133.548 60.7863 153.1 53.3048 153.1 33.7561Z" fill="url(#paint43_radial_7928_3261)"/>
<path d="M153.1 33.7561C153.1 16.7276 140.195 5.28711 120.988 5.28711C101.781 5.28711 88.8785 16.7281 88.8785 33.7561C88.8785 53.304 108.468 60.7875 112.901 76.4772C112.927 76.977 113.226 77.3986 113.648 77.5993H128.331C128.751 77.3993 129.053 76.977 129.077 76.4772C133.548 60.7863 153.1 53.3048 153.1 33.7561Z" fill="url(#paint44_radial_7928_3261)"/>
<path d="M130.104 33.7561C130.104 16.7276 126.441 5.28711 120.989 5.28711C115.537 5.28711 111.874 16.7281 111.874 33.7561C111.874 53.304 117.435 60.7875 118.693 76.4772C118.701 76.977 118.785 77.3986 118.905 77.5993H123.073C123.193 77.3993 123.278 76.977 123.285 76.4772C124.554 60.7863 130.104 53.3048 130.104 33.7561Z" fill="url(#paint45_radial_7928_3261)"/>
<path d="M120.989 5.28711C126.441 5.28711 130.104 16.7276 130.104 33.7561C130.104 44.9973 128.269 52.2483 126.468 59.3646C125.137 64.6237 123.824 69.8091 123.285 76.4772C123.278 76.977 123.193 77.3993 123.073 77.5993H125.469C125.726 77.3993 125.91 76.977 125.924 76.4772C127.084 69.8091 129.905 64.6237 132.767 59.3646C136.638 52.2483 140.583 44.9973 140.583 33.7561C140.583 16.7276 132.709 5.28711 120.989 5.28711Z" fill="url(#paint46_radial_7928_3261)"/>
<path d="M120.989 5.28711C126.441 5.28711 130.104 16.7276 130.104 33.7561C130.104 44.9973 128.269 52.2483 126.468 59.3646C125.137 64.6237 123.824 69.8091 123.285 76.4772C123.278 76.977 123.193 77.3993 123.073 77.5993H125.469C125.726 77.3993 125.91 76.977 125.924 76.4772C127.084 69.8091 129.905 64.6237 132.767 59.3646C136.638 52.2483 140.583 44.9973 140.583 33.7561C140.583 16.7276 132.709 5.28711 120.989 5.28711Z" fill="url(#paint47_radial_7928_3261)"/>
<path d="M120.984 5.28711C115.531 5.28711 111.868 16.7276 111.868 33.7561C111.868 44.9973 113.703 52.2483 115.504 59.3646C116.835 64.6237 118.148 69.8091 118.687 76.4772C118.694 76.977 118.78 77.3993 118.899 77.5993H116.503C116.247 77.3993 116.063 76.977 116.048 76.4772C114.889 69.8091 112.067 64.6237 109.206 59.3646C105.334 52.2483 101.389 44.9973 101.389 33.7561C101.389 16.7276 109.263 5.28711 120.984 5.28711Z" fill="url(#paint48_radial_7928_3261)"/>
<path d="M120.984 5.28711C115.531 5.28711 111.868 16.7276 111.868 33.7561C111.868 44.9973 113.703 52.2483 115.504 59.3646C116.835 64.6237 118.148 69.8091 118.687 76.4772C118.694 76.977 118.78 77.3993 118.899 77.5993H116.503C116.247 77.3993 116.063 76.977 116.048 76.4772C114.889 69.8091 112.067 64.6237 109.206 59.3646C105.334 52.2483 101.389 44.9973 101.389 33.7561C101.389 16.7276 109.263 5.28711 120.984 5.28711Z" fill="url(#paint49_radial_7928_3261)"/>
<path d="M120.985 5.28714C132.705 5.28714 140.58 16.7277 140.58 33.7561C140.58 44.9974 136.635 52.2484 132.763 59.3647C129.902 64.6237 127.08 69.8092 125.921 76.4772C125.906 76.9768 125.722 77.3988 125.466 77.599H127.242C127.6 77.399 127.857 76.9767 127.877 76.4769C129.495 69.8088 133.433 64.6234 137.426 59.3643C142.83 52.248 148.336 44.997 148.336 33.7558C148.336 16.7273 137.343 5.28714 120.985 5.28714Z" fill="url(#paint50_radial_7928_3261)"/>
<path d="M120.985 5.28714C132.705 5.28714 140.58 16.7277 140.58 33.7561C140.58 44.9974 136.635 52.2484 132.763 59.3647C129.902 64.6237 127.08 69.8092 125.921 76.4772C125.906 76.9768 125.722 77.3988 125.466 77.599H127.242C127.6 77.399 127.857 76.9767 127.877 76.4769C129.495 69.8088 133.433 64.6234 137.426 59.3643C142.83 52.248 148.336 44.997 148.336 33.7558C148.336 16.7273 137.343 5.28714 120.985 5.28714Z" fill="url(#paint51_radial_7928_3261)"/>
<path d="M120.985 5.28906C137.343 5.28906 148.336 16.7292 148.336 33.7577C148.336 44.999 142.83 52.25 137.426 59.3662C133.433 64.6253 129.495 69.8107 127.877 76.4788C127.856 76.9786 127.6 77.4009 127.242 77.601L128.331 77.6011C128.751 77.401 129.052 76.9788 129.076 76.4789C130.976 69.8109 135.6 64.6254 140.289 59.3664C146.634 52.2501 153.099 44.9991 153.099 33.7578C153.099 16.7294 140.192 5.28906 120.985 5.28906Z" fill="url(#paint52_radial_7928_3261)"/>
<path d="M120.985 5.28714C109.265 5.28714 101.39 16.7277 101.39 33.7561C101.39 44.9974 105.336 52.2484 109.207 59.3647C112.069 64.6237 114.89 69.8092 116.049 76.4772C116.064 76.9768 116.248 77.3988 116.504 77.599H114.728C114.37 77.399 114.114 76.9767 114.093 76.4769C112.475 69.8088 108.537 64.6234 104.544 59.3643C99.14 52.248 93.6339 44.997 93.6339 33.7558C93.6339 16.7273 104.628 5.28714 120.985 5.28714Z" fill="url(#paint53_radial_7928_3261)"/>
<path d="M120.985 5.28714C109.265 5.28714 101.39 16.7277 101.39 33.7561C101.39 44.9974 105.336 52.2484 109.207 59.3647C112.069 64.6237 114.89 69.8092 116.049 76.4772C116.064 76.9768 116.248 77.3988 116.504 77.599H114.728C114.37 77.399 114.114 76.9767 114.093 76.4769C112.475 69.8088 108.537 64.6234 104.544 59.3643C99.14 52.248 93.6339 44.997 93.6339 33.7558C93.6339 16.7273 104.628 5.28714 120.985 5.28714Z" fill="url(#paint54_radial_7928_3261)"/>
<defs>
<linearGradient id="paint0_linear_7928_3261" x1="117.055" y1="170.348" x2="86.1863" y2="64.5252" gradientUnits="userSpaceOnUse">
<stop stop-color="#AE5606"/>
<stop offset="1" stop-color="#FFD1DA"/>
</linearGradient>
<radialGradient id="paint1_radial_7928_3261" cx="0" cy="0" r="1" gradientUnits="userSpaceOnUse" gradientTransform="translate(126.505 85.031) rotate(172.331) scale(165.333 62.4829)">
<stop offset="0.39171" stop-color="#8E250B" stop-opacity="0"/>
<stop offset="1" stop-color="#8E250B"/>
</radialGradient>
<radialGradient id="paint2_radial_7928_3261" cx="0" cy="0" r="1" gradientUnits="userSpaceOnUse" gradientTransform="translate(76.7048 93.5677) rotate(174.045) scale(79.8373 26.1788)">
<stop offset="0.182374" stop-color="#FFC7A3"/>
<stop offset="1" stop-color="#D0885A" stop-opacity="0"/>
</radialGradient>
<radialGradient id="paint3_radial_7928_3261" cx="0" cy="0" r="1" gradientUnits="userSpaceOnUse" gradientTransform="translate(169.093 81.3144) rotate(126.069) scale(57.0092 17.4731)">
<stop stop-color="#FFC7A3"/>
<stop offset="1" stop-color="#D0885A" stop-opacity="0"/>
</radialGradient>
<linearGradient id="paint4_linear_7928_3261" x1="104.299" y1="79.939" x2="105.905" y2="119.764" gradientUnits="userSpaceOnUse">
<stop offset="0.353478" stop-color="#8E250B" stop-opacity="0"/>
<stop offset="0.486411" stop-color="#8E250B" stop-opacity="0.3"/>
<stop offset="0.673724" stop-color="#8E250B" stop-opacity="0"/>
<stop offset="0.854995" stop-color="#8E250B" stop-opacity="0.3"/>
<stop offset="0.96875" stop-color="#8E250B" stop-opacity="0"/>
</linearGradient>
<radialGradient id="paint5_radial_7928_3261" cx="0" cy="0" r="1" gradientUnits="userSpaceOnUse" gradientTransform="translate(202.838 96.6518) rotate(-85.1767) scale(27.9004 15.4524)">
<stop stop-color="#FFC7A3"/>
<stop offset="1" stop-color="#D0885A" stop-opacity="0"/>
</radialGradient>
<radialGradient id="paint6_radial_7928_3261" cx="0" cy="0" r="1" gradientUnits="userSpaceOnUse" gradientTransform="translate(120.99 98.5633) rotate(129.644) scale(89.7841 31.4595)">
<stop stop-color="#783800"/>
<stop offset="0.851857" stop-color="#AA2C0D" stop-opacity="0"/>
</radialGradient>
<radialGradient id="paint7_radial_7928_3261" cx="0" cy="0" r="1" gradientUnits="userSpaceOnUse" gradientTransform="translate(58.834 102.241) rotate(127.035) scale(41.6456 25.2282)">
<stop stop-color="#FFDAC2"/>
<stop offset="1" stop-color="#D79972" stop-opacity="0"/>
</radialGradient>
<radialGradient id="paint8_radial_7928_3261" cx="0" cy="0" r="1" gradientUnits="userSpaceOnUse" gradientTransform="translate(161.152 100.328) rotate(125.637) scale(91.865 34.718)">
<stop stop-color="#783800"/>
<stop offset="0.851857" stop-color="#AA2C0D" stop-opacity="0"/>
</radialGradient>
<radialGradient id="paint9_radial_7928_3261" cx="0" cy="0" r="1" gradientUnits="userSpaceOnUse" gradientTransform="translate(110.263 105.329) rotate(127.756) scale(33.3034 18.6656)">
<stop stop-color="#FFDAC2"/>
<stop offset="1" stop-color="#D79972" stop-opacity="0"/>
</radialGradient>
<radialGradient id="paint10_radial_7928_3261" cx="0" cy="0" r="1" gradientUnits="userSpaceOnUse" gradientTransform="translate(198.689 98.4301) rotate(118.815) scale(94.3061 29.8531)">
<stop stop-color="#783800"/>
<stop offset="0.851857" stop-color="#AA2C0D" stop-opacity="0"/>
</radialGradient>
<radialGradient id="paint11_radial_7928_3261" cx="0" cy="0" r="1" gradientUnits="userSpaceOnUse" gradientTransform="translate(154.657 91.9173) rotate(108.444) scale(51.3345 22.2888)">
<stop stop-color="#FFDAC2"/>
<stop offset="1" stop-color="#D79972" stop-opacity="0"/>
</radialGradient>
<radialGradient id="paint12_radial_7928_3261" cx="0" cy="0" r="1" gradientUnits="userSpaceOnUse" gradientTransform="translate(23.284 109.131) rotate(139.841) scale(54.7797 47.4606)">
<stop offset="0.148143" stop-color="#AA2C0D" stop-opacity="0"/>
<stop offset="1" stop-color="#783800"/>
</radialGradient>
<radialGradient id="paint13_radial_7928_3261" cx="0" cy="0" r="1" gradientUnits="userSpaceOnUse" gradientTransform="translate(25.7593 99.5928) rotate(115.72) scale(48.9743 28.3639)">
<stop stop-color="#FFDAC2"/>
<stop offset="1" stop-color="#D79972" stop-opacity="0"/>
</radialGradient>
<radialGradient id="paint14_radial_7928_3261" cx="0" cy="0" r="1" gradientUnits="userSpaceOnUse" gradientTransform="translate(192.784 68.0586) rotate(61.7186) scale(2.93989 2.97204)">
<stop stop-color="#FBD896"/>
<stop offset="1" stop-color="#FBD896" stop-opacity="0"/>
</radialGradient>
<linearGradient id="paint15_linear_7928_3261" x1="194.177" y1="31.3657" x2="204.14" y2="65.019" gradientUnits="userSpaceOnUse">
<stop offset="0.153125" stop-color="#8DBBFF"/>
<stop offset="1" stop-color="#00D0DD"/>
</linearGradient>
<radialGradient id="paint16_radial_7928_3261" cx="0" cy="0" r="1" gradientUnits="userSpaceOnUse" gradientTransform="translate(179.567 35.988) rotate(92.7465) scale(27.9434 4.52651)">
<stop stop-color="#C6F1FF"/>
<stop offset="1" stop-color="#FFEAAE" stop-opacity="0"/>
</radialGradient>
<radialGradient id="paint17_radial_7928_3261" cx="0" cy="0" r="1" gradientUnits="userSpaceOnUse" gradientTransform="translate(202.261 62.0199) rotate(-70.3933) scale(22.8799 18.4828)">
<stop stop-color="#624D28" stop-opacity="0.5"/>
<stop offset="0.899303" stop-color="#624D28" stop-opacity="0"/>
</radialGradient>
<radialGradient id="paint18_radial_7928_3261" cx="0" cy="0" r="1" gradientUnits="userSpaceOnUse" gradientTransform="translate(191.298 37.8275) rotate(90.4296) scale(22.3137 4.75206)">
<stop stop-color="#C6F1FF"/>
<stop offset="1" stop-color="#FFEAAE" stop-opacity="0"/>
</radialGradient>
<radialGradient id="paint19_radial_7928_3261" cx="0" cy="0" r="1" gradientUnits="userSpaceOnUse" gradientTransform="translate(195.062 44.1055) rotate(89.0589) scale(15.2773 5.39923)">
<stop offset="0.279913" stop-color="#624D28"/>
<stop offset="0.834995" stop-color="#624D28" stop-opacity="0"/>
</radialGradient>
<radialGradient id="paint20_radial_7928_3261" cx="0" cy="0" r="1" gradientUnits="userSpaceOnUse" gradientTransform="translate(195.271 60.0605) rotate(-71.7367) scale(8.67438 1.65053)">
<stop stop-color="#624D28"/>
<stop offset="0.899303" stop-color="#624D28" stop-opacity="0"/>
</radialGradient>
<radialGradient id="paint21_radial_7928_3261" cx="0" cy="0" r="1" gradientUnits="userSpaceOnUse" gradientTransform="translate(185.025 40.3067) rotate(84.1567) scale(16.8423 5.1342)">
<stop stop-color="#C6F1FF"/>
<stop offset="1" stop-color="#FFEAAE" stop-opacity="0"/>
</radialGradient>
<radialGradient id="paint22_radial_7928_3261" cx="0" cy="0" r="1" gradientUnits="userSpaceOnUse" gradientTransform="translate(193.64 43.3457) rotate(91.0866) scale(15.438 5.45597)">
<stop offset="0.0687697" stop-color="#624D28"/>
<stop offset="0.834188" stop-color="#624D28" stop-opacity="0"/>
</radialGradient>
<radialGradient id="paint23_radial_7928_3261" cx="0" cy="0" r="1" gradientUnits="userSpaceOnUse" gradientTransform="translate(196.818 45.2251) rotate(92.7001) scale(15.092 9.42929)">
<stop offset="0.408391" stop-color="#624D28"/>
<stop offset="0.803114" stop-color="#624D28" stop-opacity="0"/>
</radialGradient>
<radialGradient id="paint24_radial_7928_3261" cx="0" cy="0" r="1" gradientUnits="userSpaceOnUse" gradientTransform="translate(196.149 60.9402) rotate(-59.8185) scale(9.8993 1.84991)">
<stop stop-color="#624D28"/>
<stop offset="0.899303" stop-color="#624D28" stop-opacity="0"/>
</radialGradient>
<radialGradient id="paint25_radial_7928_3261" cx="0" cy="0" r="1" gradientUnits="userSpaceOnUse" gradientTransform="translate(201.941 47.3279) rotate(107.835) scale(14.4921 6.41591)">
<stop offset="0.345051" stop-color="#624D28" stop-opacity="0.5"/>
<stop offset="0.899303" stop-color="#624D28" stop-opacity="0"/>
</radialGradient>
<radialGradient id="paint26_radial_7928_3261" cx="0" cy="0" r="1" gradientUnits="userSpaceOnUse" gradientTransform="translate(182.766 33.8687) rotate(94.0331) scale(21.4063 3.31542)">
<stop stop-color="#C6F1FF"/>
<stop offset="1" stop-color="#FFEAAE" stop-opacity="0"/>
</radialGradient>
<radialGradient id="paint27_radial_7928_3261" cx="0" cy="0" r="1" gradientUnits="userSpaceOnUse" gradientTransform="translate(191.089 43.9855) rotate(87.746) scale(14.8869 7.98962)">
<stop offset="0.0687697" stop-color="#624D28"/>
<stop offset="0.834188" stop-color="#624D28" stop-opacity="0"/>
</radialGradient>
<radialGradient id="paint28_radial_7928_3261" cx="0" cy="0" r="1" gradientUnits="userSpaceOnUse" gradientTransform="translate(46.2117 77.8747) rotate(61.7186) scale(3.90276 3.94544)">
<stop stop-color="#FBD896"/>
<stop offset="1" stop-color="#FBD896" stop-opacity="0"/>
</radialGradient>
<linearGradient id="paint29_linear_7928_3261" x1="48.0607" y1="29.166" x2="61.2874" y2="73.8414" gradientUnits="userSpaceOnUse">
<stop offset="0.153125" stop-color="#FFCD3E"/>
<stop offset="1" stop-color="#DD9F00"/>
</linearGradient>
<radialGradient id="paint30_radial_7928_3261" cx="0" cy="0" r="1" gradientUnits="userSpaceOnUse" gradientTransform="translate(28.6663 35.3022) rotate(92.7465) scale(37.0954 6.00903)">
<stop stop-color="#FFEAAE"/>
<stop offset="1" stop-color="#FFEAAE" stop-opacity="0"/>
</radialGradient>
<radialGradient id="paint31_radial_7928_3261" cx="0" cy="0" r="1" gradientUnits="userSpaceOnUse" gradientTransform="translate(58.7924 69.8601) rotate(-70.3933) scale(30.3735 24.5363)">
<stop stop-color="#624D28" stop-opacity="0.5"/>
<stop offset="0.899303" stop-color="#624D28" stop-opacity="0"/>
</radialGradient>
<radialGradient id="paint32_radial_7928_3261" cx="0" cy="0" r="1" gradientUnits="userSpaceOnUse" gradientTransform="translate(44.4387 37.7441) rotate(90.4132) scale(29.6218 6.06795)">
<stop stop-color="#AEFFEC" stop-opacity="0.9"/>
<stop offset="1" stop-color="#FFEAAE" stop-opacity="0"/>
</radialGradient>
<radialGradient id="paint33_radial_7928_3261" cx="0" cy="0" r="1" gradientUnits="userSpaceOnUse" gradientTransform="translate(49.2452 46.0783) rotate(89.0947) scale(20.2807 6.89438)">
<stop offset="0.279913" stop-color="#624D28"/>
<stop offset="0.834995" stop-color="#624D28" stop-opacity="0"/>
</radialGradient>
<radialGradient id="paint34_radial_7928_3261" cx="0" cy="0" r="1" gradientUnits="userSpaceOnUse" gradientTransform="translate(49.5122 67.2589) rotate(-72.3893) scale(11.473 2.11535)">
<stop stop-color="#624D28"/>
<stop offset="0.899303" stop-color="#624D28" stop-opacity="0"/>
</radialGradient>
<radialGradient id="paint35_radial_7928_3261" cx="0" cy="0" r="1" gradientUnits="userSpaceOnUse" gradientTransform="translate(36.4289 41.0353) rotate(84.378) scale(22.3498 6.55843)">
<stop stop-color="#FFEAAE"/>
<stop offset="1" stop-color="#FFEAAE" stop-opacity="0"/>
</radialGradient>
<radialGradient id="paint36_radial_7928_3261" cx="0" cy="0" r="1" gradientUnits="userSpaceOnUse" gradientTransform="translate(47.4297 45.0697) rotate(91.0452) scale(20.4939 6.96685)">
<stop offset="0.0687697" stop-color="#624D28"/>
<stop offset="0.834188" stop-color="#624D28" stop-opacity="0"/>
</radialGradient>
<radialGradient id="paint37_radial_7928_3261" cx="0" cy="0" r="1" gradientUnits="userSpaceOnUse" gradientTransform="translate(51.4886 47.5647) rotate(92.5973) scale(20.0333 12.0413)">
<stop offset="0.408391" stop-color="#624D28"/>
<stop offset="0.803114" stop-color="#624D28" stop-opacity="0"/>
</radialGradient>
<radialGradient id="paint38_radial_7928_3261" cx="0" cy="0" r="1" gradientUnits="userSpaceOnUse" gradientTransform="translate(50.6342 68.4268) rotate(-60.7771) scale(13.0167 2.38481)">
<stop stop-color="#624D28"/>
<stop offset="0.899303" stop-color="#624D28" stop-opacity="0"/>
</radialGradient>
<radialGradient id="paint39_radial_7928_3261" cx="0" cy="0" r="1" gradientUnits="userSpaceOnUse" gradientTransform="translate(58.0295 50.3562) rotate(107.196) scale(19.171 8.2214)">
<stop offset="0.345051" stop-color="#624D28" stop-opacity="0.5"/>
<stop offset="0.899303" stop-color="#624D28" stop-opacity="0"/>
</radialGradient>
<radialGradient id="paint40_radial_7928_3261" cx="0" cy="0" r="1" gradientUnits="userSpaceOnUse" gradientTransform="translate(33.5454 32.4888) rotate(93.8798) scale(28.4121 4.23426)">
<stop stop-color="#AEFFEC"/>
<stop offset="1" stop-color="#FFEAAE" stop-opacity="0"/>
</radialGradient>
<radialGradient id="paint41_radial_7928_3261" cx="0" cy="0" r="1" gradientUnits="userSpaceOnUse" gradientTransform="translate(44.1725 45.9191) rotate(87.8318) scale(19.7615 10.2026)">
<stop offset="0.0687697" stop-color="#624D28"/>
<stop offset="0.834188" stop-color="#624D28" stop-opacity="0"/>
</radialGradient>
<radialGradient id="paint42_radial_7928_3261" cx="0" cy="0" r="1" gradientUnits="userSpaceOnUse" gradientTransform="translate(117.928 85.9349) rotate(61.7186) scale(6.46165 6.53231)">
<stop stop-color="#FBD896"/>
<stop offset="1" stop-color="#FBD896" stop-opacity="0"/>
</radialGradient>
<radialGradient id="paint43_radial_7928_3261" cx="0" cy="0" r="1" gradientUnits="userSpaceOnUse" gradientTransform="translate(88.8785 15.4466) rotate(92.7465) scale(61.4174 9.94892)">
<stop stop-color="#FFEAAE"/>
<stop offset="1" stop-color="#FFEAAE" stop-opacity="0"/>
</radialGradient>
<radialGradient id="paint44_radial_7928_3261" cx="0" cy="0" r="1" gradientUnits="userSpaceOnUse" gradientTransform="translate(138.757 72.6626) rotate(-70.3933) scale(50.2882 40.6238)">
<stop stop-color="#624D28" stop-opacity="0.5"/>
<stop offset="0.899303" stop-color="#624D28" stop-opacity="0"/>
</radialGradient>
<radialGradient id="paint45_radial_7928_3261" cx="0" cy="0" r="1" gradientUnits="userSpaceOnUse" gradientTransform="translate(114.662 19.4895) rotate(90.4296) scale(49.0437 10.4447)">
<stop stop-color="#FFEAAE" stop-opacity="0.7"/>
<stop offset="1" stop-color="#FFEAAE" stop-opacity="0"/>
</radialGradient>
<radialGradient id="paint46_radial_7928_3261" cx="0" cy="0" r="1" gradientUnits="userSpaceOnUse" gradientTransform="translate(122.935 33.2882) rotate(89.0589) scale(33.5783 11.8671)">
<stop offset="0.279913" stop-color="#624D28"/>
<stop offset="0.834995" stop-color="#624D28" stop-opacity="0"/>
</radialGradient>
<radialGradient id="paint47_radial_7928_3261" cx="0" cy="0" r="1" gradientUnits="userSpaceOnUse" gradientTransform="translate(123.395 68.3561) rotate(-71.7367) scale(19.0656 3.62773)">
<stop stop-color="#624D28"/>
<stop offset="0.899303" stop-color="#624D28" stop-opacity="0"/>
</radialGradient>
<radialGradient id="paint48_radial_7928_3261" cx="0" cy="0" r="1" gradientUnits="userSpaceOnUse" gradientTransform="translate(100.874 24.9387) rotate(84.1567) scale(37.018 11.2846)">
<stop stop-color="#FFEAAE"/>
<stop offset="1" stop-color="#FFEAAE" stop-opacity="0"/>
</radialGradient>
<radialGradient id="paint49_radial_7928_3261" cx="0" cy="0" r="1" gradientUnits="userSpaceOnUse" gradientTransform="translate(119.81 31.6183) rotate(91.0866) scale(33.9314 11.9918)">
<stop offset="0.0687697" stop-color="#624D28"/>
<stop offset="0.834188" stop-color="#624D28" stop-opacity="0"/>
</radialGradient>
<radialGradient id="paint50_radial_7928_3261" cx="0" cy="0" r="1" gradientUnits="userSpaceOnUse" gradientTransform="translate(126.795 35.7491) rotate(92.7001) scale(33.1712 20.7249)">
<stop offset="0.408391" stop-color="#624D28"/>
<stop offset="0.803114" stop-color="#624D28" stop-opacity="0"/>
</radialGradient>
<radialGradient id="paint51_radial_7928_3261" cx="0" cy="0" r="1" gradientUnits="userSpaceOnUse" gradientTransform="translate(125.324 70.2896) rotate(-59.8185) scale(21.7579 4.06596)">
<stop stop-color="#624D28"/>
<stop offset="0.899303" stop-color="#624D28" stop-opacity="0"/>
</radialGradient>
<radialGradient id="paint52_radial_7928_3261" cx="0" cy="0" r="1" gradientUnits="userSpaceOnUse" gradientTransform="translate(138.054 40.3728) rotate(107.835) scale(31.8526 14.1017)">
<stop offset="0.345051" stop-color="#624D28" stop-opacity="0.5"/>
<stop offset="0.899303" stop-color="#624D28" stop-opacity="0"/>
</radialGradient>
<radialGradient id="paint53_radial_7928_3261" cx="0" cy="0" r="1" gradientUnits="userSpaceOnUse" gradientTransform="translate(95.9094 10.7884) rotate(94.0331) scale(47.0495 7.28704)">
<stop stop-color="#FFEAAE"/>
<stop offset="1" stop-color="#FFEAAE" stop-opacity="0"/>
</radialGradient>
<radialGradient id="paint54_radial_7928_3261" cx="0" cy="0" r="1" gradientUnits="userSpaceOnUse" gradientTransform="translate(114.202 33.0245) rotate(87.746) scale(32.7202 17.5606)">
<stop offset="0.0687697" stop-color="#624D28"/>
<stop offset="0.834188" stop-color="#624D28" stop-opacity="0"/>
</radialGradient>
</defs>
</svg>
