<svg viewBox="0 0 240 120" fill="none" xmlns="http://www.w3.org/2000/svg">
<path d="M121.224 4.54346C61.2123 4.54346 11.25 27.4055 11.25 66.1596H227.177C225.454 26.5691 181.235 4.54346 121.224 4.54346Z" fill="url(#paint0_linear_10414_1360)"/>
<path d="M90.0462 58.2031C86.9115 60.8554 76.5429 60.1321 72.2021 66.1604H225.079C220.337 58.7658 209.551 45.0857 204.342 49.5224C197.832 55.0684 197.022 40.2163 187.463 43.9765C180.554 36.8257 176.557 31.7397 174.499 30.892C172.44 30.0443 171.5 30.5727 170.018 31.7397C168.537 32.9066 161.297 38.42 155.889 42.8441C148.34 40.7287 138.272 52.6571 135.379 52.6571C132.485 52.6571 126.216 43.9765 121.634 43.9765C117.053 43.9765 110.301 54.1039 105.479 52.6571C100.656 51.2103 93.1809 55.5507 90.0462 58.2031Z" fill="url(#paint1_linear_10414_1360)"/>
<path d="M100.687 63.6202C98.8903 63.2271 94.0169 63.3844 90.2434 67.1581H225.691C226.364 61.5986 217.436 56.0392 212.045 59.914C208.675 54.3545 198.062 53.1752 194.356 56.0392C192.615 54.6915 187.988 51.8949 183.405 51.4906C178.823 51.0863 169.366 56.1515 165.211 58.7346C161.561 57.2746 152.913 55.7696 147.522 61.4302C143.344 58.7347 139.267 60.3071 137.751 61.4302C136.403 60.7563 133.033 60.2509 130.338 63.6202C130.17 62.1039 125.284 59.0716 122.252 61.4302C120.398 59.2402 110.627 59.7455 109.111 61.4302C107.595 63.1148 103.046 60.5878 100.687 63.6202Z" fill="url(#paint2_linear_10414_1360)"/>
<path d="M21.6897 59.8574C17.9836 60.1943 15.1847 64.8646 14.2485 67.1577H61.9812C60.8112 65.0986 57.8256 61.0648 55.2425 61.4017C52.0135 61.8229 47.3806 57.4708 44.2921 57.6112C41.2035 57.7516 38.9573 52.8379 34.4648 52.8379C29.9723 52.8379 26.3222 59.4362 21.6897 59.8574Z" fill="#BB857A"/>
<path d="M217.946 63.75C233.861 63.75 231.449 71.8961 224.698 73.3774C217.947 74.8587 216.996 79.6667 224.698 81.7698C231.931 83.7449 229.38 90.5406 217.946 92.3888C208.782 93.8708 177.435 107.861 162.967 115.596H76.5415C62.0736 107.861 30.7263 93.8701 21.5626 92.3888C10.1312 90.5404 7.5797 83.7454 14.8108 81.7698C22.513 79.6668 21.5622 74.8587 14.8108 73.3774C8.06117 71.895 5.6517 63.7506 21.5626 63.75H217.946Z" fill="url(#paint3_linear_10414_1360)"/>
<path d="M217.946 63.75C233.861 63.75 231.449 71.8961 224.698 73.3774C217.947 74.8587 216.996 79.6667 224.698 81.7698C231.931 83.7449 229.38 90.5406 217.946 92.3888C208.782 93.8708 177.435 107.861 162.967 115.596H76.5415C62.0736 107.861 30.7263 93.8701 21.5626 92.3888C10.1312 90.5404 7.5797 83.7454 14.8108 81.7698C22.513 79.6668 21.5622 74.8587 14.8108 73.3774C8.06117 71.895 5.6517 63.7506 21.5626 63.75H217.946Z" fill="url(#paint4_radial_10414_1360)"/>
<path d="M13.1246 82.5104C11.2924 82.6326 7.0186 89.3493 14.9568 92.8908C29.8149 89.9192 59.9463 83.121 61.6072 79.7016C63.6833 75.4273 58.0656 71.8857 54.8904 73.8397C53.3028 72.3742 44.8763 70.5423 39.3807 76.16C38.648 73.3511 29.733 69.1989 24.3595 75.3051C20.4516 70.0538 10.4375 75.3051 13.1246 82.5104Z" fill="#54542C"/>
<path d="M13.1246 82.5104C11.2924 82.6326 7.0186 89.3493 14.9568 92.8908C29.8149 89.9192 59.9463 83.121 61.6072 79.7016C63.6833 75.4273 58.0656 71.8857 54.8904 73.8397C53.3028 72.3742 44.8763 70.5423 39.3807 76.16C38.648 73.3511 29.733 69.1989 24.3595 75.3051C20.4516 70.0538 10.4375 75.3051 13.1246 82.5104Z" fill="url(#paint5_radial_10414_1360)"/>
<path d="M50.5006 84.9738C76.3018 84.1885 98.244 92.3025 95.1094 93.8729C88.5988 97.5373 64.9684 95.4433 64.9683 101.725C64.9683 108.007 99.691 105.913 99.691 111.409C99.691 116.906 80.8829 117.691 62.0747 115.597C43.2666 113.503 17.1649 99.1077 14.2711 93.8729C11.3773 88.6382 24.6995 85.759 50.5006 84.9738Z" fill="url(#paint6_radial_10414_1360)"/>
<path d="M203.378 88.8265C196.867 94.8547 175.889 87.1385 166.726 110.769C215.917 115.399 230.304 91.8003 231.349 79.4224C223.392 73.6352 209.888 82.7983 203.378 88.8265Z" fill="url(#paint7_radial_10414_1360)"/>
<path d="M182.958 77.8166C180.819 80.6412 192.63 89.029 195.625 100.498H197.423C196.481 90.3985 185.098 74.9921 182.958 77.8166Z" fill="url(#paint8_linear_10414_1360)"/>
<path d="M192.287 65.4064C188.435 65.6632 191.273 90.638 197.337 89.543C203.5 88.4303 196.139 65.1496 192.287 65.4064Z" fill="url(#paint9_linear_10414_1360)"/>
<path d="M209.161 62.7649C205.478 61.6142 200.06 83.849 206.082 85.0737C212.202 86.3182 212.845 63.9155 209.161 62.7649Z" fill="url(#paint10_linear_10414_1360)"/>
<path d="M217.964 73.1958C215.203 71.921 205.179 90.3957 209.834 91.8547C212.674 92.7451 220.726 74.4706 217.964 73.1958Z" fill="url(#paint11_linear_10414_1360)"/>
<path d="M223.187 78.8455C222.161 77.9896 211.289 85.7785 208.808 100.415H210.862C210.947 95.4503 224.214 79.7015 223.187 78.8455Z" fill="url(#paint12_linear_10414_1360)"/>
<path d="M194.838 72.3252C196.438 76.8492 197.586 82.8309 198.335 88.132C199.085 93.4328 199.444 98.1175 199.444 100.067H198.061C198.061 98.211 197.711 93.599 196.965 88.3258C196.22 83.0521 195.084 77.1776 193.531 72.7849L194.838 72.3252Z" fill="#043A27"/>
<path d="M207.632 70.0869C206.981 76.0486 205.965 82.5578 205.107 88.0662C204.679 90.8167 204.289 93.3221 204.008 95.3769C203.728 97.418 203.548 99.0629 203.548 100.069H204.932C204.932 99.172 205.101 97.6197 205.382 95.5662C205.662 93.5269 206.045 91.0359 206.473 88.2825C207.33 82.7814 208.356 76.2393 209.011 70.2402L207.632 70.0869Z" fill="#043A27"/>
<path d="M215.116 77.3232C212.639 81.6709 210.771 86.3681 209.522 90.4573C208.279 94.5296 207.629 98.0608 207.629 100.067H209.013C209.013 98.2664 209.617 94.8917 210.847 90.8629C212.072 86.8511 213.903 82.2508 216.319 78.0083L215.715 77.6658L215.116 77.3232Z" fill="#043A27"/>
<path d="M201.103 73.9661C199.476 74.0516 199.819 94.3368 201.103 99.8146H203.243C204.099 95.9631 202.729 73.8805 201.103 73.9661Z" fill="url(#paint13_linear_10414_1360)"/>
<path d="M168.353 79.6239C169.712 79.853 170.62 92.8804 170.62 95.8273C171.753 90.5037 176.507 84.5015 177.304 84.6089C178.097 84.7222 175.833 97.0757 175.267 98.6623C177.307 94.1293 182.86 91.1836 183.88 92.2035C184.684 93.0321 179.004 101.762 176.06 106.027C182.315 99.1375 188.186 99.3045 190.339 100.249C186.146 102.289 177.304 109.767 177.304 112.261H163.706C163.697 112.222 163.684 112.183 163.674 112.143H160.424C158.497 108.064 152.148 103.529 150.788 102.85C149.434 102.17 154.419 101.151 159.063 104.549C160.01 105.241 160.802 105.986 161.466 106.73C157.486 99.229 150.203 90.9214 150.563 89.4811C151.008 87.7143 161.166 95.2304 162.597 99.9108C160.171 90.6593 159.302 83.1264 160.533 82.229C161.779 81.3224 166.198 91.7482 166.311 94.9213C166.311 89.4817 166.993 79.3972 168.353 79.6239Z" fill="url(#paint14_linear_10414_1360)"/>
<path d="M183.846 104.631C174.441 114.87 160.939 104.375 151.052 116.663C185.534 116.663 203.619 112.823 219.775 99.5114C210.933 97.8048 191.369 96.4395 183.846 104.631Z" fill="url(#paint15_radial_10414_1360)"/>
<path d="M60.0917 62.9998C62.5777 67.3092 57.8099 73.0163 56.4454 86.8675H64.2235C62.7435 72.4197 67.3538 62.2743 73.3965 58.5484C78.5423 55.3755 85.7017 56.3111 89.4305 52.2839C93.1594 52.6581 98.678 50.5689 99.4238 46.9144H97.3357C96.0828 50.2554 92.2396 50.7428 90.4746 50.5689C91.0961 49.7733 92.4434 47.9286 92.861 46.9144L91.1458 46.5415C88.5356 52.3585 81.9728 53.7181 78.0203 53.7181C78.0203 51.7791 85.4779 51.389 86.8949 45.572H85.4779C84.1057 48.4954 81.1773 49.8229 79.8847 50.1212L81.4508 45.0991H79.8847C79.5864 46.4251 78.5721 49.5394 76.9016 51.389C74.3362 50.4344 74.9023 46.798 75.506 45.0991H73.8486C73.1856 45.0991 72.5761 51.389 75.506 53.7181C71.2338 55.4162 67.1082 60.5136 64.8982 62.9998C65.285 60.9004 65.1517 55.8803 64.2235 54.8196C67.4165 52.5493 67.3547 47.5786 66.9083 45.0991H64.8982C65.3402 46.4251 65.5281 50.4771 62.7435 52.7314C59.4286 51.2729 56.8128 46.7566 56.0947 45.0991L54.0065 45.572L56.4454 49.077C53.5283 49.077 50.3125 47.2539 50.3125 46.0937H48.3235C48.655 48.2485 50.9755 49.7402 55.2849 50.5689C59.5943 51.3976 63.2408 55.5413 62.7435 60.1822C60.9756 58.0275 56.3813 54.5763 52.633 53.7181C48.3235 52.7314 45.1746 49.4086 43.8487 47.2539H42.8539C42.8539 48.0274 43.3843 50.0385 45.5058 51.8949C41.1301 51.8949 38.1577 48.8009 37.2185 47.2539H35.064C35.727 49.0771 38.4122 52.9225 43.8487 53.7181C52.1367 54.9309 57.6057 58.6905 60.0917 62.9998Z" fill="url(#paint16_linear_10414_1360)"/>
<path d="M32.5828 41.5723C28.8081 42.6434 21.4126 45.704 22.4832 47.6933C23.5539 49.6827 40.8458 50.6008 45.2836 46.7752C47.885 47.9994 55.9954 47.6933 59.0559 45.5509C60.5862 46.6221 78.7963 49.5296 87.5188 46.7752C93.7929 49.2236 111.391 49.6827 112.768 47.6933C114.145 45.704 107.259 41.5723 103.28 42.3374C103.28 39.4299 93.3338 34.38 87.5188 36.8285C83.6931 29.9423 59.8211 26.7288 53.2409 35.6043C51.2516 34.074 34.4192 36.3694 32.5828 41.5723Z" fill="url(#paint17_radial_10414_1360)"/>
<path d="M45.1938 69.3613C49.4352 69.3624 52.9694 72.3822 53.771 76.3881C54.3974 76.2456 55.0486 76.1673 55.7181 76.1672C58.4035 76.1672 60.8059 77.3778 62.4113 79.2817C64.0168 77.3778 66.4192 76.1672 69.1045 76.1672C72.4412 76.1676 75.3402 78.0358 76.8164 80.7826C77.4419 80.5858 78.1091 80.4806 78.7996 80.4806C82.4414 80.4815 85.3934 83.4327 85.3936 87.0747C85.3936 90.7168 82.4415 93.6678 78.7996 93.6687C77.0749 93.6687 75.5082 93.0036 74.3329 91.9199C72.8728 93.0124 71.0684 93.6685 69.1045 93.6687C66.4186 93.6687 64.0168 92.4588 62.4113 90.5542C60.8059 92.4588 58.404 93.6687 55.7181 93.6687C53.6684 93.6685 51.7874 92.9607 50.296 91.7802C48.4537 95.6549 44.5187 98.3425 39.9429 98.3427C33.6059 98.3427 28.4681 93.2042 28.4675 86.8673C28.4675 81.6408 31.9629 77.2327 36.7428 75.8472C37.7421 72.1135 41.1449 69.3613 45.1938 69.3613Z" fill="#42483F"/>
<path d="M45.1938 69.3613C49.4352 69.3624 52.9694 72.3822 53.771 76.3881C54.3974 76.2456 55.0486 76.1673 55.7181 76.1672C58.4035 76.1672 60.8059 77.3778 62.4113 79.2817C64.0168 77.3778 66.4192 76.1672 69.1045 76.1672C72.4412 76.1676 75.3402 78.0358 76.8164 80.7826C77.4419 80.5858 78.1091 80.4806 78.7996 80.4806C82.4414 80.4815 85.3934 83.4327 85.3936 87.0747C85.3936 90.7168 82.4415 93.6678 78.7996 93.6687C77.0749 93.6687 75.5082 93.0036 74.3329 91.9199C72.8728 93.0124 71.0684 93.6685 69.1045 93.6687C66.4186 93.6687 64.0168 92.4588 62.4113 90.5542C60.8059 92.4588 58.404 93.6687 55.7181 93.6687C53.6684 93.6685 51.7874 92.9607 50.296 91.7802C48.4537 95.6549 44.5187 98.3425 39.9429 98.3427C33.6059 98.3427 28.4681 93.2042 28.4675 86.8673C28.4675 81.6408 31.9629 77.2327 36.7428 75.8472C37.7421 72.1135 41.1449 69.3613 45.1938 69.3613Z" fill="url(#paint18_radial_10414_1360)"/>
<path d="M148.641 32.5682C148.641 41.855 141.113 49.3835 131.826 49.3835C122.539 49.3835 115.01 41.855 115.01 32.5682C115.01 23.2814 122.539 15.7529 131.826 15.7529C141.113 15.7529 148.641 23.2814 148.641 32.5682Z" fill="url(#paint19_linear_10414_1360)"/>
<defs>
<linearGradient id="paint0_linear_10414_1360" x1="116.594" y1="4.54346" x2="116.594" y2="60.9052" gradientUnits="userSpaceOnUse">
<stop stop-color="#DEB5AF"/>
<stop offset="0.421781" stop-color="#FBC991"/>
<stop offset="1" stop-color="#FDDB96"/>
</linearGradient>
<linearGradient id="paint1_linear_10414_1360" x1="128.752" y1="36.544" x2="178.433" y2="72.7221" gradientUnits="userSpaceOnUse">
<stop stop-color="#A66A5B"/>
<stop offset="1" stop-color="#3D4473"/>
</linearGradient>
<linearGradient id="paint2_linear_10414_1360" x1="135.274" y1="57.7579" x2="137.019" y2="73.7595" gradientUnits="userSpaceOnUse">
<stop stop-color="#BE7325"/>
<stop offset="1" stop-color="#233734"/>
</linearGradient>
<linearGradient id="paint3_linear_10414_1360" x1="118.547" y1="72.326" x2="118.547" y2="135.117" gradientUnits="userSpaceOnUse">
<stop stop-color="#4EB6C0"/>
<stop offset="1" stop-color="#263D49"/>
</linearGradient>
<radialGradient id="paint4_radial_10414_1360" cx="0" cy="0" r="1" gradientUnits="userSpaceOnUse" gradientTransform="translate(134.482 63.75) scale(95.4189 35.4214)">
<stop stop-color="#DBCF9D"/>
<stop offset="1" stop-color="#DBCF9D" stop-opacity="0"/>
</radialGradient>
<radialGradient id="paint5_radial_10414_1360" cx="0" cy="0" r="1" gradientTransform="matrix(18.4772 7.36541 -1.76781 15.8205 43.5791 75.1557)" gradientUnits="userSpaceOnUse">
<stop stop-color="#AB8F30"/>
<stop offset="1" stop-color="#41593D"/>
</radialGradient>
<radialGradient id="paint6_radial_10414_1360" cx="0" cy="0" r="1" gradientUnits="userSpaceOnUse" gradientTransform="translate(67.9293 102.4) rotate(11.3892) scale(41.4889 16.1829)">
<stop offset="0.229832" stop-color="#EFAF51"/>
<stop offset="1" stop-color="#CA7C32"/>
</radialGradient>
<radialGradient id="paint7_radial_10414_1360" cx="0" cy="0" r="1" gradientTransform="matrix(31.3086 -17.8488 11.2689 15.0581 201.942 88.3533)" gradientUnits="userSpaceOnUse">
<stop offset="0.229832" stop-color="#EFAF51"/>
<stop offset="1" stop-color="#CA7C32"/>
</radialGradient>
<linearGradient id="paint8_linear_10414_1360" x1="192.874" y1="100.498" x2="168.447" y2="83.1385" gradientUnits="userSpaceOnUse">
<stop stop-color="#032D40"/>
<stop offset="1" stop-color="#3DA608"/>
</linearGradient>
<linearGradient id="paint9_linear_10414_1360" x1="196.872" y1="89.578" x2="177.417" y2="81.3698" gradientUnits="userSpaceOnUse">
<stop stop-color="#032D40"/>
<stop offset="1" stop-color="#3DA608"/>
</linearGradient>
<linearGradient id="paint10_linear_10414_1360" x1="205.636" y1="84.938" x2="191.119" y2="70.0568" gradientUnits="userSpaceOnUse">
<stop stop-color="#032D40"/>
<stop offset="1" stop-color="#3DA608"/>
</linearGradient>
<linearGradient id="paint11_linear_10414_1360" x1="209.618" y1="91.7737" x2="200.534" y2="82.4386" gradientUnits="userSpaceOnUse">
<stop stop-color="#032D40"/>
<stop offset="1" stop-color="#3DA608"/>
</linearGradient>
<linearGradient id="paint12_linear_10414_1360" x1="218.783" y1="100.415" x2="195.525" y2="83.1662" gradientUnits="userSpaceOnUse">
<stop stop-color="#032D40"/>
<stop offset="1" stop-color="#3DA608"/>
</linearGradient>
<linearGradient id="paint13_linear_10414_1360" x1="202.425" y1="99.8146" x2="193.882" y2="98.5297" gradientUnits="userSpaceOnUse">
<stop stop-color="#032D40"/>
<stop offset="1" stop-color="#3DA608"/>
</linearGradient>
<linearGradient id="paint14_linear_10414_1360" x1="178.045" y1="112.261" x2="142.999" y2="64.7843" gradientUnits="userSpaceOnUse">
<stop stop-color="#032D40"/>
<stop offset="1" stop-color="#3DA608"/>
</linearGradient>
<radialGradient id="paint15_radial_10414_1360" cx="0" cy="0" r="1" gradientTransform="matrix(38.9163 -13.7524 2.35215 11.4516 177.071 103.276)" gradientUnits="userSpaceOnUse">
<stop offset="0.229832" stop-color="#EFAF51"/>
<stop offset="1" stop-color="#CA7C32"/>
</radialGradient>
<linearGradient id="paint16_linear_10414_1360" x1="46.4598" y1="59.4745" x2="95.6314" y2="79.6018" gradientUnits="userSpaceOnUse">
<stop stop-color="#28212B"/>
<stop offset="1" stop-color="#916F7E"/>
</linearGradient>
<radialGradient id="paint17_radial_10414_1360" cx="0" cy="0" r="1" gradientUnits="userSpaceOnUse" gradientTransform="translate(80.5997 32.9761) rotate(11.9175) scale(33.0602 14.9871)">
<stop stop-color="#AB8F30"/>
<stop offset="1" stop-color="#41593D"/>
</radialGradient>
<radialGradient id="paint18_radial_10414_1360" cx="0" cy="0" r="1" gradientTransform="matrix(20.3318 10.2924 -1.94524 22.1076 65.0619 73.5596)" gradientUnits="userSpaceOnUse">
<stop stop-color="#AB8F30"/>
<stop offset="1" stop-color="#41593D"/>
</radialGradient>
<linearGradient id="paint19_linear_10414_1360" x1="131.826" y1="15.7529" x2="131.826" y2="49.3835" gradientUnits="userSpaceOnUse">
<stop offset="0.363072" stop-color="#FEEB94"/>
<stop offset="0.921324" stop-color="#FEEB94" stop-opacity="0"/>
</linearGradient>
</defs>
</svg>
