<svg viewBox="0 0 240 120" fill="none" xmlns="http://www.w3.org/2000/svg">
<path d="M91.7499 29.7668C91.7499 29.7668 58.3248 42.799 56.2554 42.8987L67.2722 27.3409C71.4008 25.4604 89.3783 20.9466 89.3783 20.9466L91.7499 29.7668Z" fill="url(#paint0_linear_9808_1151)"/>
<path d="M61.541 120C67.7715 112.849 75.4485 109.169 74.8024 95.3535C74.2855 84.3013 65.7461 107.18 61.541 120Z" fill="url(#paint1_linear_9808_1151)"/>
<path d="M30.8842 41.2823C32.8753 35.6678 54.5145 17.5804 66.1832 12.981L91.5464 13.302C94.3977 13.3381 105.708 14.3388 107.267 15.5171C108.826 16.6954 107.601 20.2385 105.518 22.1983C102.915 24.648 94.1056 26.2744 89.0709 24.6383C87.6427 26.0271 74.4836 30.495 71.7026 27.7288C71.6609 30.7903 64.3654 36.9047 61.1909 38.6852C84.4369 42.2897 80.4371 85.0317 76.351 93.4062C74.0083 98.2075 69.1375 109.081 64.6248 119.998H22.6055C27.0635 112.006 31.255 104.371 32.3967 101.63C35.4768 94.234 33.5192 66.5942 33.5934 61.1429C33.6676 55.6916 28.8932 46.8968 30.8842 41.2823Z" fill="url(#paint2_linear_9808_1151)"/>
<path d="M30.8842 41.2823C32.8753 35.6678 54.5145 17.5804 66.1832 12.981L91.5464 13.302C94.3977 13.3381 105.708 14.3388 107.267 15.5171C108.826 16.6954 107.601 20.2385 105.518 22.1983C102.915 24.648 94.1056 26.2744 89.0709 24.6383C87.6427 26.0271 74.4836 30.495 71.7026 27.7288C71.6609 30.7903 64.3654 36.9047 61.1909 38.6852C84.4369 42.2897 80.4371 85.0317 76.351 93.4062C74.0083 98.2075 69.1375 109.081 64.6248 119.998H22.6055C27.0635 112.006 31.255 104.371 32.3967 101.63C35.4768 94.234 33.5192 66.5942 33.5934 61.1429C33.6676 55.6916 28.8932 46.8968 30.8842 41.2823Z" fill="url(#paint3_radial_9808_1151)"/>
<path d="M30.8842 41.2823C32.8753 35.6678 54.5145 17.5804 66.1832 12.981L91.5464 13.302C94.3977 13.3381 105.708 14.3388 107.267 15.5171C108.826 16.6954 107.601 20.2385 105.518 22.1983C102.915 24.648 94.1056 26.2744 89.0709 24.6383C87.6427 26.0271 74.4836 30.495 71.7026 27.7288C71.6609 30.7903 64.3654 36.9047 61.1909 38.6852C84.4369 42.2897 80.4371 85.0317 76.351 93.4062C74.0083 98.2075 69.1375 109.081 64.6248 119.998H22.6055C27.0635 112.006 31.255 104.371 32.3967 101.63C35.4768 94.234 33.5192 66.5942 33.5934 61.1429C33.6676 55.6916 28.8932 46.8968 30.8842 41.2823Z" fill="url(#paint4_radial_9808_1151)"/>
<path d="M30.8842 41.2823C32.8753 35.6678 54.5145 17.5804 66.1832 12.981L91.5464 13.302C94.3977 13.3381 105.708 14.3388 107.267 15.5171C108.826 16.6954 107.601 20.2385 105.518 22.1983C102.915 24.648 94.1056 26.2744 89.0709 24.6383C87.6427 26.0271 74.4836 30.495 71.7026 27.7288C71.6609 30.7903 64.3654 36.9047 61.1909 38.6852C84.4369 42.2897 80.4371 85.0317 76.351 93.4062C74.0083 98.2075 69.1375 109.081 64.6248 119.998H22.6055C27.0635 112.006 31.255 104.371 32.3967 101.63C35.4768 94.234 33.5192 66.5942 33.5934 61.1429C33.6676 55.6916 28.8932 46.8968 30.8842 41.2823Z" fill="url(#paint5_radial_9808_1151)"/>
<path d="M30.8842 41.2823C32.8753 35.6678 54.5145 17.5804 66.1832 12.981L91.5464 13.302C94.3977 13.3381 105.708 14.3388 107.267 15.5171C108.826 16.6954 107.601 20.2385 105.518 22.1983C102.915 24.648 94.1056 26.2744 89.0709 24.6383C87.6427 26.0271 74.4836 30.495 71.7026 27.7288C71.6609 30.7903 64.3654 36.9047 61.1909 38.6852C84.4369 42.2897 80.4371 85.0317 76.351 93.4062C74.0083 98.2075 69.1375 109.081 64.6248 119.998H22.6055C27.0635 112.006 31.255 104.371 32.3967 101.63C35.4768 94.234 33.5192 66.5942 33.5934 61.1429C33.6676 55.6916 28.8932 46.8968 30.8842 41.2823Z" fill="url(#paint6_radial_9808_1151)"/>
<path d="M109.685 40.45C101.322 40.8709 96.2842 38.063 94.8109 36.6064L104.713 27.6158C108.891 29.3842 117.342 33.1877 117.726 34.2541C118.206 35.587 117.65 40.0493 109.685 40.45Z" fill="url(#paint7_linear_9808_1151)"/>
<path d="M109.685 40.45C101.322 40.8709 96.2842 38.063 94.8109 36.6064L104.713 27.6158C108.891 29.3842 117.342 33.1877 117.726 34.2541C118.206 35.587 117.65 40.0493 109.685 40.45Z" fill="url(#paint8_radial_9808_1151)"/>
<path fill-rule="evenodd" clip-rule="evenodd" d="M66.1683 35.067C64.3749 36.628 62.5291 37.9766 61.281 38.6901C58.1917 37.0605 51.5818 36.0624 47.6915 35.4749C46.786 35.3382 46.0278 35.2237 45.4956 35.1287C45.5366 32.0061 52.8635 25.9047 59.9398 27.5233C65.1792 28.7217 66.9258 32.2745 66.1683 35.067Z" fill="url(#paint9_radial_9808_1151)"/>
<path d="M83.2397 59.0061C80.9813 59.2418 78.7776 57.842 77.958 57.1126C78.2794 53.6896 80.0765 47.3232 84.6946 49.2412C90.4672 51.6386 92.7144 57.3064 93.1878 59.1367C93.5666 60.601 92.0659 64.5944 91.2682 66.4081C91.0413 66.8473 89.6957 67.4487 86.1284 66.3406C82.561 65.2324 82.7162 60.9892 83.2397 59.0061Z" fill="url(#paint10_linear_9808_1151)"/>
<path d="M83.2397 59.0061C80.9813 59.2418 78.7776 57.842 77.958 57.1126C78.2794 53.6896 80.0765 47.3232 84.6946 49.2412C90.4672 51.6386 92.7144 57.3064 93.1878 59.1367C93.5666 60.601 92.0659 64.5944 91.2682 66.4081C91.0413 66.8473 89.6957 67.4487 86.1284 66.3406C82.561 65.2324 82.7162 60.9892 83.2397 59.0061Z" fill="url(#paint11_radial_9808_1151)"/>
<path fill-rule="evenodd" clip-rule="evenodd" d="M79.0029 57.8729C79.0223 57.7933 79.0448 57.7114 79.0703 57.627C80.197 53.9107 84.921 54.0971 85.6476 55.5576C84.6078 55.8472 83.7238 57.586 83.1948 59.0127C81.6147 59.1633 80.0655 58.5198 79.0029 57.8729Z" fill="url(#paint12_radial_9808_1151)"/>
<path d="M100.017 44.1361C99.5093 42.4047 94.3254 39.805 91.7968 38.7215C88.1093 41.7133 81.2931 48.0691 83.5288 49.5578C85.7646 51.0464 88.9923 50.2376 90.3267 49.647C90.75 51.0898 92.0271 54.039 93.7113 57.1124C95.8167 60.9542 103.002 59.9706 103.277 57.9843C103.552 55.9979 100.652 46.3002 100.017 44.1361Z" fill="url(#paint13_linear_9808_1151)"/>
<path d="M100.017 44.1361C99.5093 42.4047 94.3254 39.805 91.7968 38.7215C88.1093 41.7133 81.2931 48.0691 83.5288 49.5578C85.7646 51.0464 88.9923 50.2376 90.3267 49.647C90.75 51.0898 92.0271 54.039 93.7113 57.1124C95.8167 60.9542 103.002 59.9706 103.277 57.9843C103.552 55.9979 100.652 46.3002 100.017 44.1361Z" fill="url(#paint14_radial_9808_1151)"/>
<path fill-rule="evenodd" clip-rule="evenodd" d="M88.8917 24.8293C87.7032 25.685 83.3391 27.3294 79.2424 28.1547C78.4299 27.5699 77.8516 26.8129 77.6218 25.8511C76.2385 20.0621 80.048 15.8503 82.5626 15.8834C82.9973 19.4389 85.3568 22.6966 88.8917 24.8293Z" fill="url(#paint15_radial_9808_1151)"/>
<path fill-rule="evenodd" clip-rule="evenodd" d="M71.9144 27.938C71.9147 27.9356 71.915 27.9333 71.9153 27.9309C71.8754 27.9012 71.8355 27.8712 71.7954 27.8407C71.8335 27.8743 71.8731 27.9067 71.9144 27.938ZM71.7116 27.7763C71.6817 29.2477 69.9967 31.4154 67.9006 33.4704C65.3693 32.8816 62.389 29.0706 61.0316 26.4614C58.6862 21.9532 66.1751 13.5942 66.3846 16.5818C66.8193 22.781 69.3823 25.9742 71.7116 27.7763Z" fill="url(#paint16_radial_9808_1151)"/>
<path d="M65.6822 63.9931C54.2242 61.8526 53.4743 51.1847 55.1183 46.1L62.7402 40.4781L78.0749 44.466C74.762 54.6882 73.4841 65.4506 65.6822 63.9931Z" fill="url(#paint17_radial_9808_1151)"/>
<path fill-rule="evenodd" clip-rule="evenodd" d="M90.2935 49.6632C89.2776 47.6259 89.4316 45.4755 89.7755 44.3758C87.7024 44.3757 83.5071 46.8773 83.8703 49.7643C86.0622 50.9569 89.0067 50.2227 90.2935 49.6632Z" fill="url(#paint18_radial_9808_1151)"/>
<path d="M4.36355 62.3239C3.86145 62.5314 3.89048 64.1427 5.35903 67.6952C6.82758 71.2477 7.9836 72.3931 8.44684 72.2016C8.91007 72.0101 20.5439 67.2009 20.5439 67.2009C20.7707 63.8509 18.9866 59.5352 16.4606 57.3232C16.4606 57.3232 4.86564 62.1163 4.36355 62.3239Z" fill="url(#paint19_linear_9808_1151)"/>
<path d="M13.7153 58.4561C13.7153 58.4561 15.1756 59.4757 16.6441 63.0282C18.1127 66.5807 17.7986 68.3338 17.7986 68.3338L29.8957 63.3331C30.1224 59.9831 28.3384 55.6674 25.8124 53.4553L13.7153 58.4561Z" fill="url(#paint20_linear_9808_1151)"/>
<path d="M113.597 17.2739L117.68 27.1517L131.147 16.6282L130.819 15.8345L113.597 17.2739Z" fill="url(#paint21_radial_9808_1151)"/>
<path fill-rule="evenodd" clip-rule="evenodd" d="M126.498 20.2613L131.147 16.628L130.819 15.8343L125.036 16.3177C125.326 16.677 125.68 17.2255 125.993 17.9834C126.322 18.781 126.457 19.6163 126.498 20.2613Z" fill="url(#paint22_radial_9808_1151)"/>
<path d="M24.4312 54.0435C24.4312 54.0435 25.8914 55.063 27.3599 58.6154C28.8284 62.1678 28.5143 63.9209 28.5143 63.9209L118.03 27.0064C118.09 26.1128 120.074 24.2963 119.873 23.3236C119.696 22.473 116.836 22.6865 116.494 21.8588C116.151 21.0312 118.328 19.1624 117.852 18.4357C117.308 17.6045 114.621 17.719 113.947 17.129L24.4312 54.0435Z" fill="url(#paint23_linear_9808_1151)"/>
<path d="M7.53617 66.7938C6.40872 64.0664 5.00648 62.0573 4.40418 62.3062C3.80187 62.5552 4.22759 64.968 5.35505 67.6954C6.4825 70.4228 7.88475 72.432 8.48705 72.183C9.08935 71.934 8.66363 69.5212 7.53617 66.7938Z" fill="url(#paint24_radial_9808_1151)"/>
<path d="M72.8759 39.9658C71.6386 43.2661 58.1483 61.7603 44.5494 62.5984C30.9506 63.4364 38.285 85.2358 46.5661 92.8558C56.7894 102.263 77.8893 100.548 79.3727 74.8311C79.7451 68.375 85.512 50.0815 87.5365 47.4548C89.561 44.8281 91.3739 45.6811 95.2592 40.2597C99.1445 34.8383 98.9 28.2019 98.2564 26.701C97.6128 25.2 94.8116 23.8366 90.1626 24.273C85.5136 24.7095 79.2918 31.261 77.4549 32.2319C75.6181 33.2027 74.4226 35.8403 72.8759 39.9658Z" fill="url(#paint25_linear_9808_1151)"/>
<path d="M72.8759 39.9658C71.6386 43.2661 58.1483 61.7603 44.5494 62.5984C30.9506 63.4364 38.285 85.2358 46.5661 92.8558C56.7894 102.263 77.8893 100.548 79.3727 74.8311C79.7451 68.375 85.512 50.0815 87.5365 47.4548C89.561 44.8281 91.3739 45.6811 95.2592 40.2597C99.1445 34.8383 98.9 28.2019 98.2564 26.701C97.6128 25.2 94.8116 23.8366 90.1626 24.273C85.5136 24.7095 79.2918 31.261 77.4549 32.2319C75.6181 33.2027 74.4226 35.8403 72.8759 39.9658Z" fill="url(#paint26_radial_9808_1151)"/>
<path d="M72.8759 39.9658C71.6386 43.2661 58.1483 61.7603 44.5494 62.5984C30.9506 63.4364 38.285 85.2358 46.5661 92.8558C56.7894 102.263 77.8893 100.548 79.3727 74.8311C79.7451 68.375 85.512 50.0815 87.5365 47.4548C89.561 44.8281 91.3739 45.6811 95.2592 40.2597C99.1445 34.8383 98.9 28.2019 98.2564 26.701C97.6128 25.2 94.8116 23.8366 90.1626 24.273C85.5136 24.7095 79.2918 31.261 77.4549 32.2319C75.6181 33.2027 74.4226 35.8403 72.8759 39.9658Z" fill="url(#paint27_radial_9808_1151)"/>
<path d="M91.5213 34.5722C89.0779 31.2234 85.2157 30.6753 82.9541 30.3139C85.0302 27.9643 89.682 23.1057 91.6803 22.4686C94.1782 21.6723 98.6179 24.5497 98.4237 26.7029C98.2296 28.8562 93.3817 34.9697 91.5213 34.5722Z" fill="url(#paint28_radial_9808_1151)"/>
<path d="M92.9917 61.3527C93.0074 60.1589 92.4459 58.7128 89.8711 59.0937C89.3025 60.3023 88.5708 63.1796 88.9867 63.3108C90.3076 63.7272 91.4099 64.994 91.3954 66.0993C91.9655 64.7802 92.976 62.5464 92.9917 61.3527Z" fill="url(#paint29_linear_9808_1151)"/>
<path d="M102.077 51.5063C101.793 51.1079 100.143 51.178 99.6624 51.4746C99.1817 51.7712 99.3294 56.3276 100.594 56.4675C102.366 56.6633 102.806 56.8477 103.322 57.6945C103.359 54.8758 102.361 51.9046 102.077 51.5063Z" fill="url(#paint30_linear_9808_1151)"/>
<path d="M167.912 31.2019C171.251 31.2027 171.099 35.298 167.912 35.2989C164.724 35.2989 165.483 31.3537 167.912 31.2019Z" fill="white"/>
<path d="M163.964 27.5781C165.762 25.4221 169.092 24.0684 172 25.9374C172.643 26.3508 172.827 27.2056 172.415 27.8485C172.001 28.4913 171.147 28.6766 170.504 28.2632C169.163 27.4024 167.329 27.869 166.091 29.3539C165.602 29.9408 164.727 30.0191 164.14 29.5297C163.554 29.0398 163.475 28.1648 163.964 27.5781Z" fill="white"/>
<path fill-rule="evenodd" clip-rule="evenodd" d="M190.989 3.24821L191.395 3.36539L191.778 3.60878C192.096 3.87915 192.243 4.21422 192.301 4.36149C192.405 4.62625 192.461 4.91711 192.499 5.17278C192.577 5.69518 192.609 6.35991 192.612 7.08834C192.616 8.56179 192.508 10.5171 192.341 12.6277C192.025 16.6282 191.484 21.3049 191.061 24.5943C192.625 27.3742 193.283 30.4019 193.283 32.8695C193.283 35.9308 192.564 40.1261 190.038 43.5921C189.367 44.5136 188.573 45.3687 187.649 46.1342C188.031 47.9925 188.559 50.4141 189.119 52.8995L200.603 43.2226C199.013 40.6174 197.14 36.6416 198.043 35.5378C199.409 33.8684 199.562 37.3591 201.536 36.4482C203.509 35.5366 203.51 31.8182 205.331 32.1213C207.152 32.4249 204.42 36.1465 206.543 37.21C208.669 38.2724 209.734 35.5384 211.555 36.4482C213.377 37.3591 208.749 39.4868 209.356 41.005C209.964 42.5214 213.073 41.6131 212.011 43.8896C211.269 45.4758 206.252 45.4474 202.897 44.9128L189.808 55.9419C190.633 59.5042 191.429 62.77 191.859 64.2036C191.974 64.588 191.916 65.0051 191.701 65.3439L191.688 65.3574C192.518 67.7749 194.012 70.7393 195.659 74.0338C197.372 77.4619 199.217 81.2042 200.409 84.7789C201.589 88.319 202.22 91.9528 201.225 95.0779C200.184 98.3428 197.493 100.717 192.851 101.924C191.947 102.159 191.082 102.313 190.259 102.42V112.557H203.447C204.211 112.557 204.83 113.176 204.831 113.941C204.83 114.705 204.212 115.324 203.447 115.324H180.825C180.062 115.323 179.442 114.704 179.442 113.941C179.442 113.177 180.062 112.558 180.825 112.557H187.487V102.537C185.59 102.417 183.957 101.867 182.583 100.861C180.584 99.3953 179.355 97.1268 178.572 94.4604C178.503 94.7775 178.44 95.0913 178.364 95.3934C177.54 98.6713 176.204 101.277 173.929 102.835C172.644 103.715 171.148 104.184 169.449 104.327V112.557H176.111C176.874 112.558 177.494 113.177 177.495 113.941C177.494 114.704 176.874 115.323 176.111 115.324H153.489C152.725 115.324 152.106 114.705 152.106 113.941C152.106 113.177 152.725 112.557 153.489 112.557H166.677V104.286C166.162 104.234 165.631 104.171 165.086 104.074C163.164 103.731 161.591 102.994 160.376 101.884C159.164 100.776 158.381 99.3647 157.915 97.8002C157 94.7243 157.271 90.8978 157.992 87.0235C158.72 83.1147 159.951 78.9509 161.124 75.1245C162.163 71.7357 163.127 68.6395 163.725 66.1191C163.557 65.8646 163.472 65.562 163.495 65.2537L164.081 57.569C162.137 59.3356 159.818 61.4339 157.6 63.3878C154.434 66.1768 151.377 68.7825 150.005 69.6978L149.992 69.7023C149.759 73.094 148.629 78.0904 146.895 78.4508C144.437 78.9609 146.038 76.1407 144.7 75.2011C143.362 74.2618 140.23 78.2799 139.76 76.3009C139.292 74.3186 142.195 73.908 141.649 71.5954C141.1 69.286 136.857 71.0894 136.979 69.2471C137.103 67.4051 140.724 68.2589 142.063 66.5473C143.401 64.8361 140.039 63.8878 141.978 62.9416L142 62.9325L128.646 22.9852C128.404 22.2607 128.796 21.4792 129.52 21.2364C130.245 20.9948 131.026 21.3861 131.269 22.1108L145.354 64.2261C146.546 65.0646 147.81 66.1541 148.811 67.1378C150.151 66.1617 152.826 63.9034 155.77 61.3099C158.886 58.5647 162.216 55.541 164.392 53.544L164.942 46.4091C163.947 45.648 163.09 44.7871 162.368 43.8445C162.008 43.374 161.687 42.886 161.395 42.3887C159.692 44.2537 157.239 46.5368 156.527 45.6249C155.598 44.4297 157.572 42.7683 159.808 38.6117C159.244 36.616 159.045 34.6142 159.087 32.838C159.169 29.4054 160.267 25.3957 162.981 22.201C165.473 19.2692 169.24 17.1305 174.542 16.6932C176.906 14.3849 180.432 11.0361 183.53 8.29176C185.109 6.89244 186.601 5.62907 187.78 4.74009C188.364 4.29987 188.914 3.92024 189.376 3.66287C189.602 3.53675 189.861 3.41095 190.124 3.32934C190.268 3.2846 190.599 3.1892 190.989 3.24821ZM166.402 66.8042C165.769 69.4541 164.778 72.6477 163.77 75.9358C162.595 79.7686 161.41 83.7966 160.714 87.5328C160.013 91.3034 159.849 94.5893 160.57 97.0115C160.923 98.194 161.476 99.1335 162.247 99.8375C163.015 100.539 164.081 101.081 165.573 101.347C168.804 101.923 170.913 101.544 172.365 100.55C173.833 99.5442 174.926 97.7082 175.678 94.7173C176.429 91.7316 176.786 87.7979 176.949 82.8634C177.1 78.303 177.079 72.9699 177.075 66.8448C173.004 66.8983 169.185 66.8288 166.447 66.7727C166.433 66.7836 166.418 66.7939 166.402 66.8042ZM181.073 66.7456C180.737 66.7578 180.4 66.7717 180.064 66.7817C180.052 68.8517 180.034 70.9058 180.001 72.907C179.96 75.3681 179.92 77.7549 179.924 80.0328C179.932 84.6081 180.118 88.663 180.785 91.9183C181.457 95.1968 182.569 97.4149 184.219 98.625C185.819 99.7981 188.255 100.256 192.152 99.2425C196.148 98.2032 197.912 96.3556 198.588 94.235C199.308 91.9729 198.917 89.0446 197.786 85.6533C196.666 82.2956 194.911 78.7273 193.184 75.2732C191.681 72.2657 190.174 69.2932 189.24 66.7456H181.073ZM169.4 63.9782H178.468C178.506 63.9783 178.543 63.9841 178.581 63.9872C178.62 63.9839 178.658 63.9783 178.698 63.9782H181.033C182.997 63.9064 184.95 63.7884 186.802 63.6221L177.143 56.5774L169.4 63.9782ZM166.438 62.9731L174.867 54.9187L167.475 49.5281L166.438 62.9731ZM179.176 54.6348L188.222 61.2288C187.333 57.6043 186.184 52.5447 185.369 48.7213L179.176 54.6348ZM180.74 49.3118C179.382 49.5852 177.892 49.74 176.26 49.74C174.702 49.7399 173.271 49.6031 171.955 49.3659L176.9 52.9761L180.74 49.3118ZM176.278 19.3795C170.795 19.4509 167.28 21.4244 165.095 23.9948C162.876 26.6067 161.925 29.9624 161.855 32.9056C161.784 35.8939 162.468 39.4192 164.568 42.1634C165.038 42.7781 165.591 43.3611 166.231 43.8986C168.925 43.5676 171.07 42.1082 172.577 40.3695C173.354 39.4731 173.942 38.5237 174.331 37.6742C174.73 36.7996 174.88 36.1233 174.88 35.7541C174.881 34.99 175.5 34.3704 176.264 34.3704C177.027 34.372 177.647 34.9909 177.648 35.7541C177.648 36.6746 177.336 37.764 176.85 38.828C176.352 39.9171 175.621 41.0868 174.673 42.1814C173.442 43.6021 171.801 44.9271 169.792 45.7826C172.198 46.6675 174.797 46.8596 177.283 46.6345C180.487 46.344 183.374 45.3832 185.152 44.5522C186.236 43.7938 187.106 42.9102 187.798 41.9605C189.864 39.1263 190.511 35.5768 190.511 32.8695C190.511 30.8192 189.945 28.2665 188.632 25.9374C188.497 25.7996 188.385 25.6362 188.316 25.4462C188.299 25.3992 188.274 25.3527 188.253 25.3019C187.989 24.8866 187.705 24.4762 187.388 24.085C185.21 21.401 181.705 19.309 176.278 19.3795ZM189.448 6.94862C188.357 7.77089 186.929 8.97882 185.364 10.3651C183.128 12.3463 180.664 14.6636 178.581 16.6571C179.256 16.7412 179.9 16.8542 180.514 16.9861C181.492 17.1826 182.405 17.4538 183.259 17.7839C185.632 18.6729 187.415 19.9098 188.681 21.1824C189.008 18.4091 189.355 15.2349 189.578 12.4113C189.744 10.3215 189.849 8.45521 189.844 7.09736C189.844 6.94648 189.834 6.80247 189.831 6.66917C189.711 6.75534 189.582 6.84741 189.448 6.94862Z" fill="white"/>
<defs>
<linearGradient id="paint0_linear_9808_1151" x1="89.9372" y1="28.9137" x2="75.2686" y2="25.7867" gradientUnits="userSpaceOnUse">
<stop stop-color="#C1C1C1"/>
<stop offset="1" stop-color="#727272"/>
</linearGradient>
<linearGradient id="paint1_linear_9808_1151" x1="62.1646" y1="97.6034" x2="76.6866" y2="109.034" gradientUnits="userSpaceOnUse">
<stop stop-color="#C9C9C9"/>
<stop offset="1" stop-color="#646464"/>
</linearGradient>
<linearGradient id="paint2_linear_9808_1151" x1="22.6537" y1="-29.0614" x2="67.9968" y2="104.611" gradientUnits="userSpaceOnUse">
<stop stop-color="#E1E1E1"/>
<stop offset="1" stop-color="#7E7E7E"/>
</linearGradient>
<radialGradient id="paint3_radial_9808_1151" cx="0" cy="0" r="1" gradientUnits="userSpaceOnUse" gradientTransform="translate(65.7379 12.1793) rotate(1.76051) scale(44.1385 11.6377)">
<stop stop-color="#E3E3E3"/>
<stop offset="1" stop-color="#E3E3E3" stop-opacity="0"/>
</radialGradient>
<radialGradient id="paint4_radial_9808_1151" cx="0" cy="0" r="1" gradientUnits="userSpaceOnUse" gradientTransform="translate(21.9086 79.8818) rotate(-85.9838) scale(55.7656 35.1008)">
<stop stop-color="#E3E3E3"/>
<stop offset="1" stop-color="#E3E3E3" stop-opacity="0"/>
</radialGradient>
<radialGradient id="paint5_radial_9808_1151" cx="0" cy="0" r="1" gradientUnits="userSpaceOnUse" gradientTransform="translate(68.3272 34.37) rotate(-38.4925) scale(36.6617 22.1781)">
<stop stop-color="#717171"/>
<stop offset="0.411458" stop-color="#E3E3E3" stop-opacity="0.6"/>
<stop offset="1" stop-color="#E3E3E3" stop-opacity="0"/>
</radialGradient>
<radialGradient id="paint6_radial_9808_1151" cx="0" cy="0" r="1" gradientUnits="userSpaceOnUse" gradientTransform="translate(79.0206 85.927) rotate(107.837) scale(52.3891 22.9706)">
<stop stop-color="#575757"/>
<stop offset="1" stop-color="#565656" stop-opacity="0"/>
</radialGradient>
<linearGradient id="paint7_linear_9808_1151" x1="95.4843" y1="29.9613" x2="99.5658" y2="42.6554" gradientUnits="userSpaceOnUse">
<stop stop-color="#E0E0E0"/>
<stop offset="1" stop-color="#949494"/>
</linearGradient>
<radialGradient id="paint8_radial_9808_1151" cx="0" cy="0" r="1" gradientUnits="userSpaceOnUse" gradientTransform="translate(104.702 28.4448) rotate(13.4921) scale(19.5502 6.44751)">
<stop stop-color="#E3E3E3"/>
<stop offset="1" stop-color="#E3E3E3" stop-opacity="0"/>
</radialGradient>
<radialGradient id="paint9_radial_9808_1151" cx="0" cy="0" r="1" gradientUnits="userSpaceOnUse" gradientTransform="translate(58.8737 39.2017) rotate(-164.504) scale(14.66 7.05645)">
<stop stop-color="#474747" stop-opacity="0.72"/>
<stop offset="1" stop-color="#474747" stop-opacity="0"/>
</radialGradient>
<linearGradient id="paint10_linear_9808_1151" x1="99.3513" y1="64.654" x2="84.5355" y2="50.9036" gradientUnits="userSpaceOnUse">
<stop stop-color="#C9C9C9"/>
<stop offset="1" stop-color="#646464"/>
</linearGradient>
<radialGradient id="paint11_radial_9808_1151" cx="0" cy="0" r="1" gradientUnits="userSpaceOnUse" gradientTransform="translate(93.2966 55.9874) rotate(90.7524) scale(11.0324 3.82825)">
<stop stop-color="#E3E3E3"/>
<stop offset="1" stop-color="#E3E3E3" stop-opacity="0"/>
</radialGradient>
<radialGradient id="paint12_radial_9808_1151" cx="0" cy="0" r="1" gradientUnits="userSpaceOnUse" gradientTransform="translate(83.4853 59.1776) rotate(-54.6734) scale(3.72557 4.28767)">
<stop stop-color="#474747"/>
<stop offset="1" stop-color="#474747" stop-opacity="0"/>
</radialGradient>
<linearGradient id="paint13_linear_9808_1151" x1="109.452" y1="54.3674" x2="86.0176" y2="48.8088" gradientUnits="userSpaceOnUse">
<stop stop-color="#C9C9C9"/>
<stop offset="1" stop-color="#646464"/>
</linearGradient>
<radialGradient id="paint14_radial_9808_1151" cx="0" cy="0" r="1" gradientUnits="userSpaceOnUse" gradientTransform="translate(101.485 46.0624) rotate(72.9685) scale(13.8439 3.79292)">
<stop stop-color="#E3E3E3"/>
<stop offset="1" stop-color="#E3E3E3" stop-opacity="0"/>
</radialGradient>
<radialGradient id="paint15_radial_9808_1151" cx="0" cy="0" r="1" gradientUnits="userSpaceOnUse" gradientTransform="translate(88.0875 23.8505) rotate(64.6197) scale(7.73759 5.54047)">
<stop stop-color="#474747" stop-opacity="0.58"/>
<stop offset="1" stop-color="#474747" stop-opacity="0"/>
</radialGradient>
<radialGradient id="paint16_radial_9808_1151" cx="0" cy="0" r="1" gradientUnits="userSpaceOnUse" gradientTransform="translate(71.9177 27.7448) rotate(-116.398) scale(11.4907 6.01884)">
<stop stop-color="#474747" stop-opacity="0.65"/>
<stop offset="1" stop-color="#474747" stop-opacity="0"/>
</radialGradient>
<radialGradient id="paint17_radial_9808_1151" cx="0" cy="0" r="1" gradientUnits="userSpaceOnUse" gradientTransform="translate(71.8212 54.3806) rotate(146.856) scale(16.3528 21.8147)">
<stop stop-color="#474747"/>
<stop offset="1" stop-color="#474747" stop-opacity="0"/>
</radialGradient>
<radialGradient id="paint18_radial_9808_1151" cx="0" cy="0" r="1" gradientUnits="userSpaceOnUse" gradientTransform="translate(90.6002 49.7139) rotate(-94.813) scale(4.29 3.22874)">
<stop stop-color="#4F4F4F"/>
<stop offset="1" stop-color="#4F4F4F" stop-opacity="0"/>
</radialGradient>
<linearGradient id="paint19_linear_9808_1151" x1="13.7352" y1="70.0155" x2="9.88473" y2="60.701" gradientUnits="userSpaceOnUse">
<stop stop-color="#6F6F6F"/>
<stop offset="0.451163" stop-color="#A6A6A6"/>
<stop offset="1" stop-color="#D2D2D2"/>
</linearGradient>
<linearGradient id="paint20_linear_9808_1151" x1="24.3633" y1="65.6201" x2="20.28" y2="55.7423" gradientUnits="userSpaceOnUse">
<stop stop-color="#C0C0C0"/>
<stop offset="0.219298" stop-color="#818181"/>
<stop offset="0.359649" stop-color="#2C2C2C"/>
<stop offset="0.578947" stop-color="#F2F2F2"/>
<stop offset="0.877193" stop-color="#F2F2F2"/>
<stop offset="1" stop-color="#C0C0C0"/>
</linearGradient>
<radialGradient id="paint21_radial_9808_1151" cx="0" cy="0" r="1" gradientUnits="userSpaceOnUse" gradientTransform="translate(115.736 26.0279) rotate(-25.3118) scale(22.6086 5.16468)">
<stop stop-color="#898989"/>
<stop offset="1" stop-color="#D5D5D5"/>
</radialGradient>
<radialGradient id="paint22_radial_9808_1151" cx="0" cy="0" r="1" gradientUnits="userSpaceOnUse" gradientTransform="translate(126.336 19.8709) rotate(-21.9392) scale(10.3314 2.36109)">
<stop offset="0.324236" stop-color="#1D1D1D"/>
<stop offset="1" stop-color="#9B9B9B"/>
</radialGradient>
<linearGradient id="paint23_linear_9808_1151" x1="33.3875" y1="61.9961" x2="29.3042" y2="52.1184" gradientUnits="userSpaceOnUse">
<stop offset="0.245614" stop-color="#232323"/>
<stop offset="0.337719" stop-color="#606060"/>
<stop offset="0.701754" stop-color="#606060"/>
<stop offset="0.802632" stop-color="#656565"/>
<stop offset="1" stop-color="#656565"/>
</linearGradient>
<radialGradient id="paint24_radial_9808_1151" cx="0" cy="0" r="1" gradientUnits="userSpaceOnUse" gradientTransform="translate(6.09515 67.3897) rotate(-112.459) scale(6.28254 1.3874)">
<stop offset="0.567215" stop-color="#777777"/>
<stop offset="1" stop-color="#777777" stop-opacity="0"/>
</radialGradient>
<linearGradient id="paint25_linear_9808_1151" x1="100.349" y1="14.9253" x2="48.1144" y2="72.816" gradientUnits="userSpaceOnUse">
<stop stop-color="#CFCFCF"/>
<stop offset="0.758244" stop-color="#A2A2A2"/>
<stop offset="0.98688" stop-color="#A8A8A8" stop-opacity="0"/>
</linearGradient>
<radialGradient id="paint26_radial_9808_1151" cx="0" cy="0" r="1" gradientUnits="userSpaceOnUse" gradientTransform="translate(63.0495 47.4224) rotate(-47.4112) scale(27.7622 15.5378)">
<stop offset="0.182455" stop-color="#E3E3E3" stop-opacity="0.8"/>
<stop offset="1" stop-color="#E3E3E3" stop-opacity="0"/>
</radialGradient>
<radialGradient id="paint27_radial_9808_1151" cx="0" cy="0" r="1" gradientUnits="userSpaceOnUse" gradientTransform="translate(88.0982 63.384) rotate(112.482) scale(40.2467 16.7894)">
<stop stop-color="#575757" stop-opacity="0.88"/>
<stop offset="1" stop-color="#565656" stop-opacity="0"/>
</radialGradient>
<radialGradient id="paint28_radial_9808_1151" cx="0" cy="0" r="1" gradientUnits="userSpaceOnUse" gradientTransform="translate(90.729 25.6069) rotate(-33.1645) scale(11.8867 10.4581)">
<stop stop-color="#F0F0F0"/>
<stop offset="1" stop-color="#C2C2C2"/>
</radialGradient>
<linearGradient id="paint29_linear_9808_1151" x1="89.9301" y1="64.0279" x2="92.8973" y2="52.7489" gradientUnits="userSpaceOnUse">
<stop stop-color="#E2E2E2"/>
<stop offset="1" stop-color="#A5A5A5"/>
</linearGradient>
<linearGradient id="paint30_linear_9808_1151" x1="101.639" y1="56.47" x2="102.34" y2="43.6374" gradientUnits="userSpaceOnUse">
<stop stop-color="#EBEBEB"/>
<stop offset="1" stop-color="#848484"/>
</linearGradient>
</defs>
</svg>
