<svg viewBox="0 0 240 120" fill="none" xmlns="http://www.w3.org/2000/svg">
<path d="M206.312 52.8132C228.06 53.4448 231.929 92.643 216.513 99.5902L24.4897 95.7496C3.69735 95.7496 2.85596 62.8152 20.5136 59.6814C10.6034 45.1553 35.7651 6.6774 61.41 20.1683C61.6852 10.3789 87.6342 1.21442 105.528 14.1616C110.207 -1.31175 159.486 -5.41007 167.194 20.1683C180.256 13.4697 214.437 29.4342 206.312 52.8132Z" fill="url(#paint0_linear_10442_33826)"/>
<path d="M91.1138 74.6362C91.1138 82.3513 84.8596 88.6055 77.1445 88.6055C69.4295 88.6055 63.1753 82.3513 63.1753 74.6362C63.1753 66.9212 69.4295 60.667 77.1445 60.667C84.8596 60.667 91.1138 66.9212 91.1138 74.6362Z" fill="url(#paint1_radial_10442_33826)"/>
<path d="M113.923 54.7174L88.8755 81.1871H220.154C207.605 61.3699 185.835 51.9235 182.02 50.7814C178.205 49.6393 169.082 40.9786 167.59 40.7882C166.097 40.5979 162.013 37.4912 161.04 37.4912H156.592C155.48 37.4912 150.755 40.6815 148.948 41.9575C147.141 43.2335 142.137 48.497 139.219 49.2945C136.3 50.092 133.798 46.7424 132.547 47.5399C131.296 48.3374 124.208 51.8465 121.567 53.282C119.454 54.4304 115.591 54.7174 113.923 54.7174Z" fill="url(#paint2_linear_10442_33826)"/>
<path d="M113.923 54.7174L88.8755 81.1871H220.154C207.605 61.3699 185.835 51.9235 182.02 50.7814C178.205 49.6393 169.082 40.9786 167.59 40.7882C166.097 40.5979 162.013 37.4912 161.04 37.4912H156.592C155.48 37.4912 150.755 40.6815 148.948 41.9575C147.141 43.2335 142.137 48.497 139.219 49.2945C136.3 50.092 133.798 46.7424 132.547 47.5399C131.296 48.3374 124.208 51.8465 121.567 53.282C119.454 54.4304 115.591 54.7174 113.923 54.7174Z" fill="url(#paint3_linear_10442_33826)"/>
<path d="M162.172 37.937C163.794 38.8012 166.449 40.6446 167.589 40.7901C169.082 40.9804 178.206 49.6405 182.021 50.7826C185.84 51.9263 207.605 61.3733 220.152 81.1882H128.805C143.206 72.0573 154.965 52.2346 157.214 43.9586C159.505 42.8924 161.356 39.7398 162.172 37.937Z" fill="url(#paint4_linear_10442_33826)"/>
<path d="M161.376 55.3805C161.646 52.6879 159.222 47.3017 163.531 42.1851C161.108 48.9169 168.108 60.4966 168.108 64.5358C168.108 67.7672 158.773 70.3703 154.106 71.2679C155.183 70.7294 157.337 68.9521 157.337 66.1515C157.337 62.6509 161.107 58.0731 161.376 55.3805Z" fill="url(#paint5_linear_10442_33826)"/>
<path d="M175.576 62.2979C171.337 61.0869 168.107 52.8097 168.108 47.7627C170.329 53.8187 175.576 56.4433 181.431 57.8564C186.115 58.9869 188.093 67.479 188.497 71.5837H179.21C179.412 68.8921 178.968 63.2667 175.576 62.2979Z" fill="url(#paint6_linear_10442_33826)"/>
<path d="M21.3001 81.197C2.65998 81.197 11.2944 100.366 25.0589 104.987C83.0814 106.784 199.861 107.04 214.773 104.987C233.412 102.42 229.828 80.271 218.645 80.271C207.461 80.271 39.9402 81.197 21.3001 81.197Z" fill="url(#paint7_linear_10442_33826)"/>
<path d="M21.3001 81.197C2.65998 81.197 11.2944 100.366 25.0589 104.987C83.0814 106.784 199.861 107.04 214.773 104.987C233.412 102.42 229.828 80.271 218.645 80.271C207.461 80.271 39.9402 81.197 21.3001 81.197Z" fill="url(#paint8_radial_10442_33826)"/>
<path d="M22.144 88.9714C22.144 88.4616 22.5573 88.0483 23.0671 88.0483H180.51C181.02 88.0483 181.433 88.4616 181.433 88.9714V105.617H22.144V88.9714Z" fill="url(#paint9_linear_10442_33826)"/>
<path d="M89.103 64.7273C89.103 64.2175 89.5163 63.8042 90.0261 63.8042H96.7516C97.2614 63.8042 97.6747 64.2175 97.6747 64.7273V100.885H89.103V64.7273Z" fill="url(#paint10_linear_10442_33826)"/>
<path d="M79.2456 79.0274C79.2456 77.7529 80.2788 76.7197 81.5533 76.7197H91.2768C92.5513 76.7197 93.5845 77.7529 93.5845 79.0274V101.784H79.2456V79.0274Z" fill="#4B5578"/>
<path d="M112.541 70.9591C112.541 69.6846 113.574 68.6514 114.848 68.6514H122.531C123.805 68.6514 124.838 69.6846 124.838 70.9591V108.564H112.541V70.9591Z" fill="url(#paint11_linear_10442_33826)"/>
<path d="M170.99 62.9016C170.99 62.3918 171.404 61.9785 171.913 61.9785H178.74C179.25 61.9785 179.663 62.3918 179.663 62.9016V94.6947H170.99V62.9016Z" fill="#305179"/>
<path d="M177.521 76.466C177.521 75.9562 177.934 75.543 178.444 75.543H188.668C189.178 75.543 189.591 75.9562 189.591 76.466V105.617H177.521V76.466Z" fill="#5F6B94"/>
<path d="M177.521 76.466C177.521 75.9562 177.934 75.543 178.444 75.543H188.668C189.178 75.543 189.591 75.9562 189.591 76.466V105.617H177.521V76.466Z" fill="url(#paint12_linear_10442_33826)"/>
<path d="M196.884 73.5412C196.884 73.0314 197.297 72.6182 197.807 72.6182H208.031C208.541 72.6182 208.954 73.0314 208.954 73.5412V102.692H196.884V73.5412Z" fill="#5F6B94"/>
<path d="M201.215 63.4338C201.215 62.924 201.629 62.5107 202.138 62.5107H208.03C208.54 62.5107 208.953 62.924 208.953 63.4338V105.619H201.215V63.4338Z" fill="#5F6B94"/>
<path d="M201.215 63.4338C201.215 62.924 201.629 62.5107 202.138 62.5107H208.03C208.54 62.5107 208.953 62.924 208.953 63.4338V105.619H201.215V63.4338Z" fill="url(#paint13_linear_10442_33826)"/>
<path d="M206.769 68.1008C206.769 67.591 207.182 67.1777 207.692 67.1777H213.583C214.093 67.1777 214.507 67.591 214.507 68.1008V104.16H206.769V68.1008Z" fill="#5F6B94"/>
<path d="M76.0796 79.0274C76.0796 77.7529 77.1128 76.7197 78.3873 76.7197H88.1108C89.3853 76.7197 90.4185 77.7529 90.4185 79.0274V101.784H76.0796V79.0274Z" fill="#818CB3"/>
<path d="M76.0796 79.0274C76.0796 77.7529 77.1128 76.7197 78.3873 76.7197H88.1108C89.3853 76.7197 90.4185 77.7529 90.4185 79.0274V101.784H76.0796V79.0274Z" fill="url(#paint14_linear_10442_33826)"/>
<path d="M132.983 56.7156C132.983 56.2058 133.396 55.7925 133.906 55.7925H138.481C138.991 55.7925 139.404 56.2058 139.404 56.7156V108.563H132.983V56.7156Z" fill="url(#paint15_linear_10442_33826)"/>
<path d="M164.054 68.1008C164.054 67.591 164.467 67.1777 164.977 67.1777H175.419C175.929 67.1777 176.342 67.591 176.342 68.1008V105.618H164.054V68.1008Z" fill="url(#paint16_linear_10442_33826)"/>
<path d="M189.591 64.2068C189.591 63.697 190.005 63.2837 190.514 63.2837H198.115C198.625 63.2837 199.038 63.697 199.038 64.2068V101.724H189.591V64.2068Z" fill="#5F6B94"/>
<path d="M189.591 60.2568H196.665C197.174 60.2568 197.588 60.6701 197.588 61.1799V101.725H189.591V60.2568Z" fill="url(#paint17_linear_10442_33826)"/>
<path d="M130.768 58.1002C130.768 56.8257 131.801 55.7925 133.075 55.7925H136.266C136.775 55.7925 137.189 56.2058 137.189 56.7156V108.563H130.768V58.1002Z" fill="url(#paint18_linear_10442_33826)"/>
<path d="M130.768 58.1002C130.768 56.8257 131.801 55.7925 133.075 55.7925H136.266C136.775 55.7925 137.189 56.2058 137.189 56.7156V108.563H130.768V58.1002Z" fill="url(#paint19_linear_10442_33826)"/>
<path d="M185.697 61.1799C185.697 60.6701 186.111 60.2568 186.62 60.2568H190.891V101.725H185.697V61.1799Z" fill="url(#paint20_linear_10442_33826)"/>
<path d="M185.697 61.1799C185.697 60.6701 186.111 60.2568 186.62 60.2568H190.891V101.725H185.697V61.1799Z" fill="url(#paint21_linear_10442_33826)"/>
<path d="M108.595 55.2663C108.595 54.7565 109.008 54.3433 109.518 54.3433H115.563C116.073 54.3433 116.486 54.7565 116.486 55.2663V109.86H108.595V55.2663Z" fill="#47537D"/>
<path d="M50.332 78.7966C50.332 78.2868 49.9188 77.8735 49.409 77.8735H40.4423C39.9325 77.8735 39.5192 78.2868 39.5192 78.7966V106.458H50.332V78.7966Z" fill="#5F6B94"/>
<path d="M50.332 78.7966C50.332 78.2868 49.9188 77.8735 49.409 77.8735H40.4423C39.9325 77.8735 39.5192 78.2868 39.5192 78.7966V106.458H50.332V78.7966Z" fill="url(#paint22_linear_10442_33826)"/>
<path d="M43.3594 72.4524C43.3594 71.9426 42.9461 71.5293 42.4363 71.5293H35.7108C35.201 71.5293 34.7877 71.9426 34.7877 72.4524V104.16H43.3594V72.4524Z" fill="url(#paint23_linear_10442_33826)"/>
<path d="M94.8745 69.5744C94.8745 69.0646 95.2878 68.6514 95.7976 68.6514H102.523C103.033 68.6514 103.446 69.0646 103.446 69.5744V91.3114H94.8745V69.5744Z" fill="#5F6B94"/>
<path d="M100.993 66.3113C100.993 65.8015 101.406 65.3882 101.916 65.3882H108.642C109.152 65.3882 109.565 65.8015 109.565 66.3113V88.0482H100.993V66.3113Z" fill="#5F6B94"/>
<path d="M39.0732 81.1965C39.0732 80.6867 38.66 80.2734 38.1502 80.2734H32.4161V106.459H39.0732V81.1965Z" fill="url(#paint24_linear_10442_33826)"/>
<path d="M39.0732 81.1965C39.0732 80.6867 38.66 80.2734 38.1502 80.2734H32.4161V106.459H39.0732V81.1965Z" fill="url(#paint25_linear_10442_33826)"/>
<path d="M29.6079 81.1965C29.6079 80.6867 30.0212 80.2734 30.531 80.2734H32.417V106.459H29.6079V81.1965Z" fill="#424C6F"/>
<path d="M104.763 55.2663C104.763 54.7565 105.176 54.3433 105.686 54.3433H113.442C113.952 54.3433 114.365 54.7565 114.365 55.2663V109.86H104.763V55.2663Z" fill="url(#paint26_linear_10442_33826)"/>
<path d="M104.763 55.2663C104.763 54.7565 105.176 54.3433 105.686 54.3433H113.442C113.952 54.3433 114.365 54.7565 114.365 55.2663V109.86H104.763V55.2663Z" fill="url(#paint27_linear_10442_33826)"/>
<path d="M110.154 48.6436C110.524 48.1904 111.216 48.1904 111.585 48.6436L116.461 54.6251H105.279L110.154 48.6436Z" fill="url(#paint28_linear_10442_33826)"/>
<path d="M93.02 82.8878C93.02 81.6133 94.0532 80.5801 95.3277 80.5801H101.793L105.528 82.8092C105.807 82.9758 105.978 83.2768 105.978 83.6019V114.836H93.02V82.8878Z" fill="url(#paint29_linear_10442_33826)"/>
<path d="M214.829 98.3059C216.014 97.8608 218.68 100.977 214.829 104.019H162.468C161.135 95.3383 171.429 91.9257 174.91 94.5224C172.911 90.7388 180.317 87.1034 182.02 89.6259C187.671 74.7633 218.869 82.1605 213.723 92.1313C216.617 92.1313 216.999 97.4909 214.829 98.3059Z" fill="url(#paint30_linear_10442_33826)"/>
<path d="M214.829 98.3059C216.014 97.8608 218.68 100.977 214.829 104.019H162.468C161.135 95.3383 171.429 91.9257 174.91 94.5224C172.911 90.7388 180.317 87.1034 182.02 89.6259C187.671 74.7633 218.869 82.1605 213.723 92.1313C216.617 92.1313 216.999 97.4909 214.829 98.3059Z" fill="url(#paint31_radial_10442_33826)"/>
<path d="M214.829 98.3059C216.014 97.8608 218.68 100.977 214.829 104.019H162.468C161.135 95.3383 171.429 91.9257 174.91 94.5224C172.911 90.7388 180.317 87.1034 182.02 89.6259C187.671 74.7633 218.869 82.1605 213.723 92.1313C216.617 92.1313 216.999 97.4909 214.829 98.3059Z" fill="url(#paint32_radial_10442_33826)"/>
<path d="M214.829 98.3059C216.014 97.8608 218.68 100.977 214.829 104.019H162.468C161.135 95.3383 171.429 91.9257 174.91 94.5224C172.911 90.7388 180.317 87.1034 182.02 89.6259C187.671 74.7633 218.869 82.1605 213.723 92.1313C216.617 92.1313 216.999 97.4909 214.829 98.3059Z" fill="url(#paint33_radial_10442_33826)"/>
<path d="M171.5 98.5274C170.167 97.7113 165.871 101.124 168.167 104.017H205.716C207.271 101.124 204.901 96.821 200.902 97.6371C201.717 94.6695 198.088 89.1795 192.681 90.2183C194.755 84.8768 189.571 82.7992 187.497 84.0605C185.423 78.7931 178.98 81.7605 179.795 85.0992C175.869 84.0605 173.722 87.8442 175.129 90.2183C172.907 89.9957 169.056 94.5213 171.5 98.5274Z" fill="url(#paint34_linear_10442_33826)"/>
<path d="M171.5 98.5274C170.167 97.7113 165.871 101.124 168.167 104.017H205.716C207.271 101.124 204.901 96.821 200.902 97.6371C201.717 94.6695 198.088 89.1795 192.681 90.2183C194.755 84.8768 189.571 82.7992 187.497 84.0605C185.423 78.7931 178.98 81.7605 179.795 85.0992C175.869 84.0605 173.722 87.8442 175.129 90.2183C172.907 89.9957 169.056 94.5213 171.5 98.5274Z" fill="url(#paint35_radial_10442_33826)"/>
<path d="M171.5 98.5274C170.167 97.7113 165.871 101.124 168.167 104.017H205.716C207.271 101.124 204.901 96.821 200.902 97.6371C201.717 94.6695 198.088 89.1795 192.681 90.2183C194.755 84.8768 189.571 82.7992 187.497 84.0605C185.423 78.7931 178.98 81.7605 179.795 85.0992C175.869 84.0605 173.722 87.8442 175.129 90.2183C172.907 89.9957 169.056 94.5213 171.5 98.5274Z" fill="url(#paint36_radial_10442_33826)"/>
<path d="M207.113 101.923C212.451 101.923 224.707 103.049 222.799 105.274C220.892 107.5 209.732 108.019 204.787 109.419C195.394 112.077 216.085 115.972 181.644 117.95C159.258 119.236 77.6399 114.674 76.2786 108.121C74.9172 101.568 90.9808 102.804 112.49 100.95C133.998 99.0951 201.774 101.923 207.113 101.923Z" fill="url(#paint37_radial_10442_33826)"/>
<path d="M207.113 101.923C212.451 101.923 224.707 103.049 222.799 105.274C220.892 107.5 209.732 108.019 204.787 109.419C195.394 112.077 216.085 115.972 181.644 117.95C159.258 119.236 77.6399 114.674 76.2786 108.121C74.9172 101.568 90.9808 102.804 112.49 100.95C133.998 99.0951 201.774 101.923 207.113 101.923Z" fill="url(#paint38_radial_10442_33826)"/>
<path d="M207.113 101.923C212.451 101.923 224.707 103.049 222.799 105.274C220.892 107.5 209.732 108.019 204.787 109.419C195.394 112.077 216.085 115.972 181.644 117.95C159.258 119.236 77.6399 114.674 76.2786 108.121C74.9172 101.568 90.9808 102.804 112.49 100.95C133.998 99.0951 201.774 101.923 207.113 101.923Z" fill="url(#paint39_radial_10442_33826)"/>
<path d="M113.765 112.959C108.88 108.022 191.192 111.379 177.087 108.022C162.982 104.665 216.101 103.678 216.101 103.678C203.032 98.2666 154.882 97.9431 121.951 98.1076C53.1891 98.4511 16.9239 102.996 16.8571 104.953C16.7903 106.911 36.3909 108.465 43.742 110.652C51.0931 112.84 32.8514 114.394 54.4964 119H190.765C181.1 112.265 118.65 117.895 113.765 112.959Z" fill="url(#paint40_linear_10442_33826)"/>
<path d="M113.765 112.959C108.88 108.022 191.192 111.379 177.087 108.022C162.982 104.665 216.101 103.678 216.101 103.678C203.032 98.2666 154.882 97.9431 121.951 98.1076C53.1891 98.4511 16.9239 102.996 16.8571 104.953C16.7903 106.911 36.3909 108.465 43.742 110.652C51.0931 112.84 32.8514 114.394 54.4964 119H190.765C181.1 112.265 118.65 117.895 113.765 112.959Z" fill="url(#paint41_radial_10442_33826)"/>
<path d="M113.765 112.959C108.88 108.022 191.192 111.379 177.087 108.022C162.982 104.665 216.101 103.678 216.101 103.678C203.032 98.2666 154.882 97.9431 121.951 98.1076C53.1891 98.4511 16.9239 102.996 16.8571 104.953C16.7903 106.911 36.3909 108.465 43.742 110.652C51.0931 112.84 32.8514 114.394 54.4964 119H190.765C181.1 112.265 118.65 117.895 113.765 112.959Z" fill="url(#paint42_radial_10442_33826)"/>
<path d="M60.7979 16.1402H63.1777L62.2808 0.491211H61.6949L60.7979 16.1402Z" fill="#415D8D"/>
<path d="M61.4561 25.5628L46.028 26.8111L47.8174 28.7309H76.1585L77.9434 26.8066L62.5153 25.5583V25.4772L62.015 25.5177L61.4561 25.4727V25.5628Z" fill="url(#paint43_linear_10442_33826)"/>
<path d="M61.9855 15.6296C60.7613 15.5921 58.3503 15.641 57.5278 16.1253C56.6756 16.6279 56.6169 18.3954 56.694 19.2173H67.2769C67.3541 18.3952 67.2959 16.6275 66.4431 16.1253C65.6205 15.641 63.2094 15.5921 61.9855 15.6296Z" fill="#224F85"/>
<path d="M61.8574 18.0109C57.8378 18.0473 55.213 18.91 54.9478 19.1737C54.7327 19.3888 56.7981 21.2937 57.8595 22.2206L61.8574 22.6398V22.6713L61.9881 22.6533L62.1188 22.6713V22.6398L66.1167 22.2206C67.1779 21.2939 69.2435 19.3889 69.0284 19.1737C68.7601 18.9093 66.1362 18.0471 62.1188 18.0109V18.0063H61.8574V18.0109Z" fill="url(#paint44_linear_10442_33826)"/>
<path d="M61.8545 21.8805C53.5955 21.9314 47.8614 25.1787 45.9891 26.8564C50.2999 26.7328 59.4047 26.5764 61.9582 26.5725C64.5349 26.5767 73.6622 26.733 77.9858 26.8564C76.1055 25.1786 70.3467 21.9313 62.0528 21.8805V21.876H61.8545V21.8805Z" fill="url(#paint45_linear_10442_33826)"/>
<path d="M70.707 35.1675C69.3989 41.6236 64.4239 51.6379 64.4239 55.6888V69.1068C64.4251 72.1716 67.7707 94.5129 70.5042 112.678H73.4519C70.2879 94.1786 66.4494 71.4455 66.4477 69.1068V56.8246C66.4487 52.368 72.0151 42.2981 73.6187 35.1675H70.707Z" fill="url(#paint46_linear_10442_33826)"/>
<path d="M50.3546 35.1675C51.9582 42.298 57.5201 52.368 57.5211 56.8246V69.1068C57.5193 71.4455 53.6808 94.1785 50.5169 112.678H53.4691C56.2026 94.513 59.5481 72.1716 59.5493 69.1068V55.6888C59.5493 51.6379 54.5744 41.6236 53.2663 35.1675H50.3546Z" fill="url(#paint47_linear_10442_33826)"/>
<path d="M62.4841 35.1675C62.4841 35.1675 61.8622 51.7824 61.8622 55.8333V69.2514C61.8628 72.3195 63.6249 94.5862 65.2332 112.679H67.9326C66.2146 94.2033 64.4589 71.4511 64.458 69.1072V56.8249C64.4582 52.3682 65.4744 42.2982 66.8375 35.1675H62.4841Z" fill="url(#paint48_linear_10442_33826)"/>
<path d="M57.1357 35.1675C58.499 42.2981 59.5153 52.368 59.5155 56.8246V69.1068C59.5147 71.45 57.7587 94.2023 56.0405 112.678H58.7358C60.3416 94.5367 62.0975 72.1777 62.0981 69.1068V55.6888C62.0981 51.6379 61.4897 35.1675 61.4897 35.1675H57.1357Z" fill="#0D3365"/>
<path d="M61.7238 27.7125C50.9933 27.7394 42.24 28.5777 42.0814 29.0151C41.923 29.4597 42.46 30.1419 42.46 30.1419C42.6672 30.1482 57.5148 30.5841 61.7238 30.5701V30.5791C61.8045 30.5807 61.8939 30.5737 61.9898 30.5746C62.0839 30.5737 62.1718 30.5806 62.2512 30.5791V30.5701C66.4609 30.584 81.3115 30.1481 81.515 30.1419C81.515 30.1419 82.052 29.4597 81.8936 29.0151C81.7351 28.5777 72.9817 27.7394 62.2512 27.7125V27.708H61.7238V27.7125Z" fill="url(#paint49_linear_10442_33826)"/>
<path d="M61.7258 29.0127C51.0066 29.0348 42.5544 29.7247 42.3943 30.162C42.2332 30.6066 46.1243 31.7306 48.8802 31.8838C51.5658 32.033 58.5729 31.9471 61.9917 31.8838C65.4124 31.9471 72.4146 32.033 75.0986 31.8838C77.8544 31.7306 81.7453 30.6066 81.5845 30.162C81.4234 29.7175 72.6946 29.0127 61.7258 29.0127Z" fill="#233253"/>
<path d="M48.1366 30.666L49.3503 33.9105H74.6211L75.8408 30.666C75.8408 30.666 70.8908 29.8285 61.9887 29.8286C53.0866 29.8288 48.1366 30.666 48.1366 30.666Z" fill="url(#paint50_linear_10442_33826)"/>
<path d="M61.9238 33.0309C49.9545 33.0355 46.9265 33.7037 46.8517 34.1081C46.7847 34.5134 50.5614 35.9995 51.0389 36.204C51.5083 36.4051 56.3045 37.0019 61.9238 37.0107V37.0152C61.9657 37.0152 62.0083 37.0153 62.0501 37.0152V37.0107C67.6697 37.0019 72.4656 36.4051 72.935 36.204C73.4098 36.0006 77.1892 34.5136 77.1222 34.1081C77.0488 33.7023 74.0012 33.0264 61.9238 33.0264V33.0309Z" fill="url(#paint51_linear_10442_33826)"/>
<path d="M61.9238 33.0309C49.9545 33.0355 46.9265 33.7037 46.8517 34.1081C46.7847 34.5134 50.5614 35.9995 51.0389 36.204C51.5083 36.4051 56.3045 37.0019 61.9238 37.0107V37.0152C61.9657 37.0152 62.0083 37.0153 62.0501 37.0152V37.0107C67.6697 37.0019 72.4656 36.4051 72.935 36.204C73.4098 36.0006 77.1892 34.5136 77.1222 34.1081C77.0488 33.7023 74.0012 33.0264 61.9238 33.0264V33.0309Z" fill="url(#paint52_radial_10442_33826)"/>
<path d="M70.6709 103.168H53.1312V105.883H70.6709V103.168Z" fill="url(#paint53_linear_10442_33826)"/>
<path d="M47.3001 104.904C40.7261 106.017 38.6055 116.403 45.8157 119H98.5493C100.458 114.474 97.6304 111.358 93.7425 111.358C93.8132 109.33 92.8943 105.675 88.653 107.278C89.4305 104.83 85.1185 102.233 82.6445 104.236C83.4927 97.7074 76.5653 96.2978 73.8791 98.3009C74.0912 95.5559 68.3654 94.2947 66.4568 96.8171C68.012 92.9593 63.2052 88.2854 59.7415 90.3626C57.6915 84.2049 48.9262 87.5434 50.2692 91.8464C40.9384 94.2205 44.2607 103.865 47.3001 104.904Z" fill="url(#paint54_linear_10442_33826)"/>
<path d="M47.3001 104.904C40.7261 106.017 38.6055 116.403 45.8157 119H98.5493C100.458 114.474 97.6304 111.358 93.7425 111.358C93.8132 109.33 92.8943 105.675 88.653 107.278C89.4305 104.83 85.1185 102.233 82.6445 104.236C83.4927 97.7074 76.5653 96.2978 73.8791 98.3009C74.0912 95.5559 68.3654 94.2947 66.4568 96.8171C68.012 92.9593 63.2052 88.2854 59.7415 90.3626C57.6915 84.2049 48.9262 87.5434 50.2692 91.8464C40.9384 94.2205 44.2607 103.865 47.3001 104.904Z" fill="url(#paint55_radial_10442_33826)"/>
<path d="M47.3001 104.904C40.7261 106.017 38.6055 116.403 45.8157 119H98.5493C100.458 114.474 97.6304 111.358 93.7425 111.358C93.8132 109.33 92.8943 105.675 88.653 107.278C89.4305 104.83 85.1185 102.233 82.6445 104.236C83.4927 97.7074 76.5653 96.2978 73.8791 98.3009C74.0912 95.5559 68.3654 94.2947 66.4568 96.8171C68.012 92.9593 63.2052 88.2854 59.7415 90.3626C57.6915 84.2049 48.9262 87.5434 50.2692 91.8464C40.9384 94.2205 44.2607 103.865 47.3001 104.904Z" fill="url(#paint56_radial_10442_33826)"/>
<path d="M47.3001 104.904C40.7261 106.017 38.6055 116.403 45.8157 119H98.5493C100.458 114.474 97.6304 111.358 93.7425 111.358C93.8132 109.33 92.8943 105.675 88.653 107.278C89.4305 104.83 85.1185 102.233 82.6445 104.236C83.4927 97.7074 76.5653 96.2978 73.8791 98.3009C74.0912 95.5559 68.3654 94.2947 66.4568 96.8171C68.012 92.9593 63.2052 88.2854 59.7415 90.3626C57.6915 84.2049 48.9262 87.5434 50.2692 91.8464C40.9384 94.2205 44.2607 103.865 47.3001 104.904Z" fill="url(#paint57_radial_10442_33826)"/>
<path d="M57.8233 112.966C55.538 111.854 51.6856 115.713 55.8644 118.918H89.1642C91.7759 116.106 90.9271 111.985 88.1195 111.985C89.9477 108.584 87.8583 105.902 85.0507 105.902C86.0301 103.416 83.4183 100.8 80.7412 101.389C78.456 97.2682 68.923 99.2958 68.5966 104.201C68.1395 102.435 64.1566 102.762 64.1566 106.36C61.4795 104.201 55.0807 107.799 57.8233 112.966Z" fill="url(#paint58_linear_10442_33826)"/>
<path d="M57.8233 112.966C55.538 111.854 51.6856 115.713 55.8644 118.918H89.1642C91.7759 116.106 90.9271 111.985 88.1195 111.985C89.9477 108.584 87.8583 105.902 85.0507 105.902C86.0301 103.416 83.4183 100.8 80.7412 101.389C78.456 97.2682 68.923 99.2958 68.5966 104.201C68.1395 102.435 64.1566 102.762 64.1566 106.36C61.4795 104.201 55.0807 107.799 57.8233 112.966Z" fill="url(#paint59_radial_10442_33826)"/>
<path d="M57.8233 112.966C55.538 111.854 51.6856 115.713 55.8644 118.918H89.1642C91.7759 116.106 90.9271 111.985 88.1195 111.985C89.9477 108.584 87.8583 105.902 85.0507 105.902C86.0301 103.416 83.4183 100.8 80.7412 101.389C78.456 97.2682 68.923 99.2958 68.5966 104.201C68.1395 102.435 64.1566 102.762 64.1566 106.36C61.4795 104.201 55.0807 107.799 57.8233 112.966Z" fill="url(#paint60_radial_10442_33826)"/>
<path d="M49.1148 109.726C46.2264 108.836 41.6346 113.807 46.1523 119H77.184C79.9983 111.358 74.3697 107.13 69.6297 107.575C71.0369 97.5592 57.3356 98.8945 57.3356 103.049C52.7438 100.082 47.1151 106.759 49.1148 109.726Z" fill="url(#paint61_linear_10442_33826)"/>
<path d="M49.1148 109.726C46.2264 108.836 41.6346 113.807 46.1523 119H77.184C79.9983 111.358 74.3697 107.13 69.6297 107.575C71.0369 97.5592 57.3356 98.8945 57.3356 103.049C52.7438 100.082 47.1151 106.759 49.1148 109.726Z" fill="url(#paint62_radial_10442_33826)"/>
<path d="M49.1148 109.726C46.2264 108.836 41.6346 113.807 46.1523 119H77.184C79.9983 111.358 74.3697 107.13 69.6297 107.575C71.0369 97.5592 57.3356 98.8945 57.3356 103.049C52.7438 100.082 47.1151 106.759 49.1148 109.726Z" fill="url(#paint63_radial_10442_33826)"/>
<defs>
<linearGradient id="paint0_linear_10442_33826" x1="109.47" y1="79.2904" x2="109.47" y2="1.76221" gradientUnits="userSpaceOnUse">
<stop stop-color="#FCD88A"/>
<stop offset="0.533654" stop-color="#F5B5AD"/>
<stop offset="1" stop-color="#A695CD"/>
</linearGradient>
<radialGradient id="paint1_radial_10442_33826" cx="0" cy="0" r="1" gradientUnits="userSpaceOnUse" gradientTransform="translate(77.1446 74.6362) rotate(90) scale(20.7269)">
<stop stop-color="white"/>
<stop offset="0.48" stop-color="#FFEB9E"/>
<stop offset="0.93" stop-color="#FFB180"/>
</radialGradient>
<linearGradient id="paint2_linear_10442_33826" x1="124.748" y1="37.4912" x2="208.087" y2="91.2938" gradientUnits="userSpaceOnUse">
<stop stop-color="#EBBBB1"/>
<stop offset="1" stop-color="#808DC0"/>
</linearGradient>
<linearGradient id="paint3_linear_10442_33826" x1="140.08" y1="40.6524" x2="154.515" y2="67.4247" gradientUnits="userSpaceOnUse">
<stop stop-color="white"/>
<stop offset="0.856992" stop-color="#FDDDA9" stop-opacity="0"/>
</linearGradient>
<linearGradient id="paint4_linear_10442_33826" x1="151.044" y1="49.6248" x2="176.279" y2="83.7868" gradientUnits="userSpaceOnUse">
<stop stop-color="#6676B0"/>
<stop offset="1" stop-color="#838BBD" stop-opacity="0"/>
</linearGradient>
<linearGradient id="paint5_linear_10442_33826" x1="161.107" y1="49.9946" x2="173.224" y2="71.2679" gradientUnits="userSpaceOnUse">
<stop stop-color="#585889"/>
<stop offset="1" stop-color="#585889" stop-opacity="0"/>
</linearGradient>
<linearGradient id="paint6_linear_10442_33826" x1="178.302" y1="54.1593" x2="185.008" y2="75.0885" gradientUnits="userSpaceOnUse">
<stop stop-color="#585889"/>
<stop offset="1" stop-color="#585889" stop-opacity="0"/>
</linearGradient>
<linearGradient id="paint7_linear_10442_33826" x1="152.008" y1="109.106" x2="124.886" y2="10.819" gradientUnits="userSpaceOnUse">
<stop stop-color="#08494E"/>
<stop offset="1" stop-color="#B0F098"/>
</linearGradient>
<radialGradient id="paint8_radial_10442_33826" cx="0" cy="0" r="1" gradientUnits="userSpaceOnUse" gradientTransform="translate(61.712 80.271) scale(119.544 24.4999)">
<stop offset="0.0329412" stop-color="#FFDAC2" stop-opacity="0.8"/>
<stop offset="1" stop-color="#FFC7A3" stop-opacity="0"/>
</radialGradient>
<linearGradient id="paint9_linear_10442_33826" x1="107.547" y1="67.2929" x2="114.947" y2="141.048" gradientUnits="userSpaceOnUse">
<stop stop-color="#5F6B94"/>
<stop offset="1" stop-color="#1E212E"/>
</linearGradient>
<linearGradient id="paint10_linear_10442_33826" x1="81.3679" y1="58.2759" x2="101.335" y2="93.7539" gradientUnits="userSpaceOnUse">
<stop stop-color="#5F6B94"/>
<stop offset="1" stop-color="#1E212E"/>
</linearGradient>
<linearGradient id="paint11_linear_10442_33826" x1="104.134" y1="71.839" x2="127.647" y2="117.877" gradientUnits="userSpaceOnUse">
<stop stop-color="#5F6B94"/>
<stop offset="1" stop-color="#1E212E"/>
</linearGradient>
<linearGradient id="paint12_linear_10442_33826" x1="170.992" y1="75.543" x2="184.863" y2="79.1736" gradientUnits="userSpaceOnUse">
<stop stop-color="#F9C999"/>
<stop offset="1" stop-color="#F9C999" stop-opacity="0"/>
</linearGradient>
<linearGradient id="paint13_linear_10442_33826" x1="197.03" y1="62.5107" x2="206.403" y2="63.608" gradientUnits="userSpaceOnUse">
<stop stop-color="#F9C999"/>
<stop offset="1" stop-color="#F9C999" stop-opacity="0"/>
</linearGradient>
<linearGradient id="paint14_linear_10442_33826" x1="68.3232" y1="76.7197" x2="88.469" y2="91.7924" gradientUnits="userSpaceOnUse">
<stop stop-color="#F9C999"/>
<stop offset="1" stop-color="#F9C999" stop-opacity="0"/>
</linearGradient>
<linearGradient id="paint15_linear_10442_33826" x1="131.823" y1="58.9753" x2="153.568" y2="112.812" gradientUnits="userSpaceOnUse">
<stop stop-color="#5F6B94"/>
<stop offset="1" stop-color="#1E212E"/>
</linearGradient>
<linearGradient id="paint16_linear_10442_33826" x1="146.767" y1="75.9246" x2="172.083" y2="104.45" gradientUnits="userSpaceOnUse">
<stop stop-color="#F6B7AC"/>
<stop offset="1" stop-color="#5F6B94"/>
</linearGradient>
<linearGradient id="paint17_linear_10442_33826" x1="215.357" y1="60.2568" x2="168.957" y2="125.792" gradientUnits="userSpaceOnUse">
<stop stop-color="#5F6B94"/>
<stop offset="1" stop-color="#1E212E"/>
</linearGradient>
<linearGradient id="paint18_linear_10442_33826" x1="133.978" y1="55.7925" x2="147.596" y2="112.826" gradientUnits="userSpaceOnUse">
<stop stop-color="#8D9AC7"/>
<stop offset="1" stop-color="#454B61"/>
</linearGradient>
<linearGradient id="paint19_linear_10442_33826" x1="105.762" y1="78.2943" x2="136.019" y2="88.4139" gradientUnits="userSpaceOnUse">
<stop stop-color="#F9C999"/>
<stop offset="1" stop-color="#F9C999" stop-opacity="0"/>
</linearGradient>
<linearGradient id="paint20_linear_10442_33826" x1="170.947" y1="56.6336" x2="190.891" y2="100.161" gradientUnits="userSpaceOnUse">
<stop stop-color="#DBAE9F"/>
<stop offset="1" stop-color="#5F6B94"/>
</linearGradient>
<linearGradient id="paint21_linear_10442_33826" x1="182.888" y1="60.2568" x2="189.223" y2="60.7743" gradientUnits="userSpaceOnUse">
<stop stop-color="#F9C999"/>
<stop offset="1" stop-color="#F9C999" stop-opacity="0"/>
</linearGradient>
<linearGradient id="paint22_linear_10442_33826" x1="56.181" y1="77.8735" x2="43.665" y2="80.961" gradientUnits="userSpaceOnUse">
<stop stop-color="#F9C999"/>
<stop offset="1" stop-color="#F9C999" stop-opacity="0"/>
</linearGradient>
<linearGradient id="paint23_linear_10442_33826" x1="47.9763" y1="73.9858" x2="29.2063" y2="94.9198" gradientUnits="userSpaceOnUse">
<stop stop-color="#557EA2"/>
<stop offset="1" stop-color="#202F3C"/>
</linearGradient>
<linearGradient id="paint24_linear_10442_33826" x1="35.7447" y1="80.2734" x2="35.7447" y2="106.459" gradientUnits="userSpaceOnUse">
<stop stop-color="#8F85B2"/>
<stop offset="1" stop-color="#5F6B94"/>
</linearGradient>
<linearGradient id="paint25_linear_10442_33826" x1="42.6743" y1="80.2734" x2="34.7183" y2="81.5925" gradientUnits="userSpaceOnUse">
<stop stop-color="#F9C999"/>
<stop offset="1" stop-color="#F9C999" stop-opacity="0"/>
</linearGradient>
<linearGradient id="paint26_linear_10442_33826" x1="109.564" y1="54.3433" x2="117.061" y2="109.86" gradientUnits="userSpaceOnUse">
<stop stop-color="#8287D0"/>
<stop offset="1" stop-color="#2F4478"/>
</linearGradient>
<linearGradient id="paint27_linear_10442_33826" x1="99.5691" y1="54.3433" x2="119.587" y2="58.8712" gradientUnits="userSpaceOnUse">
<stop stop-color="#F9C999"/>
<stop offset="1" stop-color="#F9C999" stop-opacity="0"/>
</linearGradient>
<linearGradient id="paint28_linear_10442_33826" x1="106.634" y1="49.36" x2="112.339" y2="54.6251" gradientUnits="userSpaceOnUse">
<stop stop-color="#D9B6A8"/>
<stop offset="1" stop-color="#7A80C7"/>
</linearGradient>
<linearGradient id="paint29_linear_10442_33826" x1="99.4991" y1="80.5801" x2="102.762" y2="104.807" gradientUnits="userSpaceOnUse">
<stop stop-color="#6B9FC0"/>
<stop offset="1" stop-color="#324A5A"/>
</linearGradient>
<linearGradient id="paint30_linear_10442_33826" x1="177.595" y1="52.6549" x2="210.423" y2="106.426" gradientUnits="userSpaceOnUse">
<stop stop-color="#88E06C"/>
<stop offset="1" stop-color="#1E794A"/>
</linearGradient>
<radialGradient id="paint31_radial_10442_33826" cx="0" cy="0" r="1" gradientTransform="matrix(8.43587 38.4823 -44.821 12.5983 183.395 75.9072)" gradientUnits="userSpaceOnUse">
<stop offset="0.498233" stop-color="#2C764E" stop-opacity="0"/>
<stop offset="1" stop-color="#093C41"/>
</radialGradient>
<radialGradient id="paint32_radial_10442_33826" cx="0" cy="0" r="1" gradientUnits="userSpaceOnUse" gradientTransform="translate(188.759 73.0607) rotate(106.463) scale(24.8818 22.9903)">
<stop stop-color="#FFC470"/>
<stop offset="1" stop-color="#FFE06B" stop-opacity="0"/>
</radialGradient>
<radialGradient id="paint33_radial_10442_33826" cx="0" cy="0" r="1" gradientUnits="userSpaceOnUse" gradientTransform="translate(181.65 99.7228) rotate(-23.5232) scale(27.4631 25.7309)">
<stop offset="0.199965" stop-color="#093C41"/>
<stop offset="1" stop-color="#2C764E" stop-opacity="0"/>
</radialGradient>
<linearGradient id="paint34_linear_10442_33826" x1="178.267" y1="70.6477" x2="198.745" y2="107.097" gradientUnits="userSpaceOnUse">
<stop stop-color="#88E06C"/>
<stop offset="1" stop-color="#1E794A"/>
</linearGradient>
<radialGradient id="paint35_radial_10442_33826" cx="0" cy="0" r="1" gradientTransform="matrix(5.95533 25.0012 -31.6416 8.18485 182.361 85.7543)" gradientUnits="userSpaceOnUse">
<stop offset="0.498233" stop-color="#2C764E" stop-opacity="0"/>
<stop offset="1" stop-color="#093C41"/>
</radialGradient>
<radialGradient id="paint36_radial_10442_33826" cx="0" cy="0" r="1" gradientTransform="matrix(5.10457 18.219 -19.5679 7.26877 176.065 81.1885)" gradientUnits="userSpaceOnUse">
<stop stop-color="#FFC470"/>
<stop offset="1" stop-color="#FFE06B" stop-opacity="0"/>
</radialGradient>
<radialGradient id="paint37_radial_10442_33826" cx="0" cy="0" r="1" gradientUnits="userSpaceOnUse" gradientTransform="translate(156.867 111.706) rotate(-176.595) scale(79.0966 13.4441)">
<stop stop-color="#96E1CF"/>
<stop offset="0.384615" stop-color="#78C9DB"/>
<stop offset="0.977268" stop-color="#91AEC7"/>
</radialGradient>
<radialGradient id="paint38_radial_10442_33826" cx="0" cy="0" r="1" gradientTransform="matrix(-145.39 -3.95643 -1.91737 14.5298 213.771 115.292)" gradientUnits="userSpaceOnUse">
<stop offset="0.363129" stop-color="#61E5C5" stop-opacity="0"/>
<stop offset="0.591612" stop-color="#4C9CAD" stop-opacity="0.5"/>
<stop offset="0.878707" stop-color="#6770B1"/>
</radialGradient>
<radialGradient id="paint39_radial_10442_33826" cx="0" cy="0" r="1" gradientTransform="matrix(-71.3335 -6.30557 -9.35282 21.819 216.766 112.572)" gradientUnits="userSpaceOnUse">
<stop offset="0.166511" stop-color="#6770B1"/>
<stop offset="0.251036" stop-color="#429DD2" stop-opacity="0.5"/>
<stop offset="0.403945" stop-color="#61E5C5" stop-opacity="0"/>
</radialGradient>
<linearGradient id="paint40_linear_10442_33826" x1="-20.5033" y1="147.399" x2="35.0607" y2="-11.8674" gradientUnits="userSpaceOnUse">
<stop stop-color="#FFAC61"/>
<stop offset="1" stop-color="#EBC7FA"/>
</linearGradient>
<radialGradient id="paint41_radial_10442_33826" cx="0" cy="0" r="1" gradientTransform="matrix(137.856 1.29453 4.4343 -26.1826 137.99 100.608)" gradientUnits="userSpaceOnUse">
<stop offset="0.52084" stop-color="#C87D55" stop-opacity="0"/>
<stop offset="1" stop-color="#240D54"/>
</radialGradient>
<radialGradient id="paint42_radial_10442_33826" cx="0" cy="0" r="1" gradientTransform="matrix(-127.542 -3.42584 -2.47214 10.4216 169.663 107.774)" gradientUnits="userSpaceOnUse">
<stop offset="0.301945" stop-color="#F7DAAF"/>
<stop offset="0.570795" stop-color="#FFD394" stop-opacity="0.344373"/>
<stop offset="1" stop-color="#FFD394" stop-opacity="0"/>
</radialGradient>
<linearGradient id="paint43_linear_10442_33826" x1="77.9434" y1="27.1018" x2="46.028" y2="27.1018" gradientUnits="userSpaceOnUse">
<stop stop-color="#908590"/>
<stop offset="1" stop-color="#314A7F"/>
</linearGradient>
<linearGradient id="paint44_linear_10442_33826" x1="69.0439" y1="20.3388" x2="54.9323" y2="20.3388" gradientUnits="userSpaceOnUse">
<stop stop-color="#FFF6E1"/>
<stop offset="0.466346" stop-color="#FDD6BE"/>
<stop offset="1" stop-color="#C0ACBF"/>
</linearGradient>
<linearGradient id="paint45_linear_10442_33826" x1="77.9858" y1="24.3662" x2="45.9891" y2="24.3662" gradientUnits="userSpaceOnUse">
<stop stop-color="#FFF7EB"/>
<stop offset="0.475962" stop-color="#FFDED4"/>
<stop offset="1" stop-color="#B1A4CB"/>
</linearGradient>
<linearGradient id="paint46_linear_10442_33826" x1="70.7296" y1="35.1675" x2="70.7296" y2="106.469" gradientUnits="userSpaceOnUse">
<stop stop-color="#796478"/>
<stop offset="0.480769" stop-color="#C39A7F"/>
<stop offset="0.961538" stop-color="#F1C6A3"/>
</linearGradient>
<linearGradient id="paint47_linear_10442_33826" x1="53.246" y1="35.1675" x2="53.246" y2="133.614" gradientUnits="userSpaceOnUse">
<stop stop-color="#8084A2"/>
<stop offset="1" stop-color="#8E8DB1"/>
</linearGradient>
<linearGradient id="paint48_linear_10442_33826" x1="66.0104" y1="35.1675" x2="66.0104" y2="133.469" gradientUnits="userSpaceOnUse">
<stop stop-color="#143767"/>
<stop offset="1" stop-color="#E5BCA8"/>
</linearGradient>
<linearGradient id="paint49_linear_10442_33826" x1="81.9229" y1="29.1437" x2="42.0522" y2="29.1437" gradientUnits="userSpaceOnUse">
<stop stop-color="#EFD6C7"/>
<stop offset="1" stop-color="#7B8ABD"/>
</linearGradient>
<linearGradient id="paint50_linear_10442_33826" x1="75.8408" y1="31.8696" x2="48.1366" y2="31.8696" gradientUnits="userSpaceOnUse">
<stop stop-color="#51709E"/>
<stop offset="1" stop-color="#0B3878"/>
</linearGradient>
<linearGradient id="paint51_linear_10442_33826" x1="77.123" y1="35.0208" x2="46.8508" y2="35.0208" gradientUnits="userSpaceOnUse">
<stop stop-color="#FEEEE1"/>
<stop offset="0.509615" stop-color="#E9BEB3"/>
<stop offset="1" stop-color="#918FBF"/>
</linearGradient>
<radialGradient id="paint52_radial_10442_33826" cx="0" cy="0" r="1" gradientUnits="userSpaceOnUse" gradientTransform="translate(61.9869 36.5189) rotate(-180) scale(14.3382 1.08328)">
<stop offset="0.822058" stop-color="#092963"/>
<stop offset="0.896219" stop-color="#092963" stop-opacity="0"/>
</radialGradient>
<linearGradient id="paint53_linear_10442_33826" x1="70.6709" y1="104.525" x2="53.1312" y2="104.525" gradientUnits="userSpaceOnUse">
<stop stop-color="#F9CFA0"/>
<stop offset="1" stop-color="#8987A8"/>
</linearGradient>
<linearGradient id="paint54_linear_10442_33826" x1="57.3953" y1="72.2027" x2="85.1305" y2="124.839" gradientUnits="userSpaceOnUse">
<stop stop-color="#88E06C"/>
<stop offset="1" stop-color="#1E794A"/>
</linearGradient>
<radialGradient id="paint55_radial_10442_33826" cx="0" cy="0" r="1" gradientTransform="matrix(15.155 34.1858 -46.4272 20.6969 57.2674 94.2633)" gradientUnits="userSpaceOnUse">
<stop offset="0.407859" stop-color="#2C764E" stop-opacity="0"/>
<stop offset="1" stop-color="#093C41"/>
</radialGradient>
<radialGradient id="paint56_radial_10442_33826" cx="0" cy="0" r="1" gradientTransform="matrix(22.903 -14.2198 10.1196 17.8917 61.3673 112.63)" gradientUnits="userSpaceOnUse">
<stop offset="0.199965" stop-color="#093C41"/>
<stop offset="1" stop-color="#2C764E" stop-opacity="0"/>
</radialGradient>
<radialGradient id="paint57_radial_10442_33826" cx="0" cy="0" r="1" gradientTransform="matrix(22.6202 12.8867 -13.5093 26.0303 44.1193 88.4865)" gradientUnits="userSpaceOnUse">
<stop stop-color="#FFC470"/>
<stop offset="1" stop-color="#FFE06B" stop-opacity="0"/>
</radialGradient>
<linearGradient id="paint58_linear_10442_33826" x1="64.2219" y1="90.0581" x2="81.0438" y2="122.921" gradientUnits="userSpaceOnUse">
<stop stop-color="#88E06C"/>
<stop offset="1" stop-color="#1E794A"/>
</linearGradient>
<radialGradient id="paint59_radial_10442_33826" cx="0" cy="0" r="1" gradientTransform="matrix(5.65303 21.6223 -30.0354 7.07868 68.1083 103.123)" gradientUnits="userSpaceOnUse">
<stop offset="0.498233" stop-color="#2C764E" stop-opacity="0"/>
<stop offset="1" stop-color="#093C41"/>
</radialGradient>
<radialGradient id="paint60_radial_10442_33826" cx="0" cy="0" r="1" gradientUnits="userSpaceOnUse" gradientTransform="translate(69.0375 99.1743) rotate(44.9363) scale(15.2749 14.5362)">
<stop stop-color="#FFC470"/>
<stop offset="1" stop-color="#FFE06B" stop-opacity="0"/>
</radialGradient>
<linearGradient id="paint61_linear_10442_33826" x1="53.6233" y1="91.1238" x2="70.3571" y2="122.162" gradientUnits="userSpaceOnUse">
<stop stop-color="#88E06C"/>
<stop offset="1" stop-color="#1E794A"/>
</linearGradient>
<radialGradient id="paint62_radial_10442_33826" cx="0" cy="0" r="1" gradientUnits="userSpaceOnUse" gradientTransform="translate(57.1874 103.743) rotate(76.0594) scale(21.5191 28.3809)">
<stop offset="0.498233" stop-color="#2C764E" stop-opacity="0"/>
<stop offset="1" stop-color="#093C41"/>
</radialGradient>
<radialGradient id="paint63_radial_10442_33826" cx="0" cy="0" r="1" gradientTransform="matrix(4.44368 15.2196 -17.0345 6.07213 51.7069 99.9292)" gradientUnits="userSpaceOnUse">
<stop stop-color="#FFC470"/>
<stop offset="1" stop-color="#FFE06B" stop-opacity="0"/>
</radialGradient>
</defs>
</svg>
