<svg viewBox="0 0 240 120" fill="none" xmlns="http://www.w3.org/2000/svg">
<path d="M90.0395 63.8335C91.1134 49.0385 84.3125 38.8967 88.8464 0H104.715C108.891 23.863 100.897 38.4194 101.852 55.4815C102.806 72.5435 101.136 82.8046 96.2438 98.0769C94.8518 88.3329 88.9656 78.6286 90.0395 63.8335Z" fill="url(#paint0_linear_2708_905)"/>
<path fill-rule="evenodd" clip-rule="evenodd" d="M96.6019 0H88.8464C85.9399 24.9354 87.6916 38.0535 89.0406 48.1558C89.7959 53.8122 90.425 58.5231 90.0395 63.8335C89.3376 73.5037 91.609 80.999 93.6556 87.7521C94.7402 91.3311 95.7616 94.7016 96.2438 98.0769C96.3651 97.6981 96.4845 97.3223 96.6019 96.9494V0Z" fill="url(#paint1_linear_2708_905)"/>
<path fill-rule="evenodd" clip-rule="evenodd" d="M103.894 0H106.505C110.794 18.085 102.346 35.4389 103.894 53.4641C105.334 70.2449 102.053 80.2113 97.0331 97.7571L95.9318 97.4429C100.934 79.9574 102.943 70.1442 101.52 53.5618C99.98 35.6241 108.155 17.9679 103.894 0Z" fill="#23886F"/>
<path d="M103.077 0H121.394C130.169 19.5795 128.003 35.9481 123.332 52.1969C125.371 60.8845 126.48 69.7474 125.984 78.4436C125.231 91.6353 119.278 97.6442 115.384 117.26C111.442 103.413 111.884 89.0214 115.384 77.2635C117.943 68.669 120.96 60.4484 123.332 52.1969C118.731 32.5948 109.395 13.8857 103.077 0Z" fill="url(#paint2_linear_2708_905)"/>
<path fill-rule="evenodd" clip-rule="evenodd" d="M123.521 53.0152C123.623 63.1777 122.611 73.703 119.952 83.9423C116.048 98.9704 115.141 109.722 115.47 116.828C115.442 116.971 115.413 117.115 115.384 117.26C111.442 103.413 111.884 89.0214 115.384 77.2635C116.587 73.2226 117.892 69.2644 119.183 65.3468C120.638 60.932 122.076 56.5688 123.332 52.1969C123.396 52.4695 123.459 52.7422 123.521 53.0152ZM123.5 51.6084C123.445 51.8046 123.389 52.0008 123.332 52.1969C119.342 35.196 111.789 18.8667 105.733 5.77346C104.807 3.77016 103.915 1.84261 103.077 0H113.211C118.135 11.8787 123.086 30.9242 123.5 51.6084Z" fill="url(#paint3_linear_2708_905)"/>
<path fill-rule="evenodd" clip-rule="evenodd" d="M121.242 0L125.404 0.000821375C143.899 40.1182 102.255 80.4087 116.227 116.614L114.442 117.981C96.5581 88.9183 139.669 39.9707 121.242 0Z" fill="#23886F"/>
<path d="M156.054 0C149.787 10.7943 147.734 20.1835 147.351 29.2688C154.689 41.7933 161.755 55.3575 147.195 79.2575C151.001 59.7253 146.69 44.9497 147.351 29.2688C142.012 20.1558 136.529 11.5932 139.127 0H156.054Z" fill="url(#paint4_linear_2708_905)"/>
<path fill-rule="evenodd" clip-rule="evenodd" d="M147.217 79.1435C147.28 78.8211 147.34 78.5 147.398 78.1802C154.747 62.5017 152.054 49.1916 149.31 35.6333C149.004 34.1202 148.697 32.604 148.404 31.0811C155.304 43.0961 161.033 56.4525 147.277 79.1236L147.217 79.1435ZM148.063 30.4902C147.819 30.3237 147.573 30.1631 147.324 30.0088C147.332 29.7623 147.341 29.5157 147.351 29.2688C147.589 29.6747 147.827 30.0817 148.063 30.4902ZM147.541 26.2671C147.455 27.2723 147.393 28.2724 147.351 29.2688C147.109 28.8562 146.867 28.4448 146.626 28.0342C141.532 19.3744 136.647 11.0684 139.127 0H148.054C145.654 9.43303 146.197 18.0017 147.541 26.2671Z" fill="url(#paint5_linear_2708_905)"/>
<path fill-rule="evenodd" clip-rule="evenodd" d="M154.975 0.000583941L158.06 0C138.206 37.8885 155.371 64.1495 147.839 79.3269L146.45 78.7092C153.71 54.183 136.15 28.0802 154.975 0.000583941Z" fill="#23886F"/>
<path d="M156.326 14.2438C178.422 17.865 210.388 30.4635 208.099 39.0134C206.499 44.9894 198.45 44.8988 190.497 44.8094C188.794 44.7902 187.097 44.7711 185.467 44.8116C184.228 47.2393 182.579 49.4725 180.528 51.1587C173.025 57.3292 159.989 56.199 157.474 51.3145C157.305 50.9865 157.132 50.6374 156.956 50.2679C156.495 50.1255 155.969 49.876 155.356 49.4763C152.094 47.3489 149.1 28.367 148.011 19.142C149.082 17.0042 151.283 12.6989 151.514 12.5797C151.746 12.4605 154.067 13.4132 155.198 13.9044C155.555 14.0106 155.932 14.1241 156.326 14.2438Z" fill="url(#paint6_radial_2708_905)"/>
<path fill-rule="evenodd" clip-rule="evenodd" d="M189.423 29.5332C192.45 30.7247 198.552 33.3372 199.805 34.8269C201.059 36.3166 200.127 38.0772 199.265 38.959C196.05 36.5598 189.422 31.6059 188.637 30.9831C187.657 30.2046 188.062 28.983 189.423 29.5332ZM193.299 36.4617C195.483 38.2399 197.463 39.8523 197.725 40.2414C198.298 41.093 189.96 43.6323 189.187 41.737C188.568 40.2208 187.933 36.3337 187.886 33.8398L188.676 32.6234C189.905 33.6979 191.659 35.1265 193.299 36.4617Z" fill="url(#paint7_radial_2708_905)"/>
<path fill-rule="evenodd" clip-rule="evenodd" d="M178.195 29.0152C176.961 27.111 173.221 26.8776 168.449 26.8582C167.138 26.8475 167.663 28.6601 168.957 29.2003C169.95 29.6149 175.294 32.1506 178.446 33.6465L178.447 33.6466L178.833 33.8299C178.972 32.7427 179.183 30.5386 178.195 29.0152ZM168.505 31.116C169.537 31.5791 178.737 35.9196 179.988 37.6378C181.239 39.356 178.121 43.3862 176.808 42.2594C175.495 41.1325 168.643 34.5883 167.661 32.918C166.679 31.2476 167.472 30.6529 168.505 31.116ZM156.119 19.4271C157.639 20.2772 163.764 24.2843 164.968 25.3364C165.763 26.0317 165.55 26.5131 165.205 27.2891C164.898 27.9809 164.487 28.9068 164.595 30.4271C164.737 32.4346 164.955 32.9443 165.274 33.6898C165.365 33.9036 165.464 34.1368 165.573 34.4303C166.06 35.7471 164.586 38.2042 161.501 33.3262C158.416 28.4481 154.966 21.9945 154.435 20.9619C153.903 19.9293 154.598 18.577 156.119 19.4271ZM169.649 45.4868C171.206 46.3305 174.638 44.1522 174.136 43.1766C173.633 42.201 169.444 38.3047 168.132 37.4521C166.85 36.6186 166.046 37.7621 166.468 39.3083C166.889 40.8546 168.091 44.6431 169.649 45.4868ZM171.073 21.8642C172.364 22.5465 171.648 24.8264 169.617 24.6188C167.031 24.3544 163.779 21.9492 161.679 20.3957L161.679 20.3956C161.141 19.9976 160.678 19.6555 160.322 19.4196C158.574 18.2631 158.168 17.1841 159.949 17.5958C161.771 18.017 169.783 21.182 171.073 21.8642ZM161.868 46.1921C163.036 47.4905 166.423 46.4698 166.283 45.3994C166.142 44.329 160.824 34.9831 160.177 34.1366C159.53 33.2902 158.967 33.0737 158.865 34.6838C158.762 36.2938 160.7 44.8936 161.868 46.1921ZM159.489 45.0006C159.72 46.1811 156.826 47.0029 155.47 45.6343C153.139 43.2835 150.51 21.9997 152.236 22.6101C153.963 23.2204 159.258 43.82 159.489 45.0006Z" fill="url(#paint8_radial_2708_905)"/>
<path fill-rule="evenodd" clip-rule="evenodd" d="M184.612 32.8226C183.662 33.3117 181.626 32.3128 181.062 31.2177C180.498 30.1225 181.073 28.2833 182.023 27.7942C182.973 27.3052 184.211 27.5224 184.775 28.6176C185.339 29.7128 185.562 32.3335 184.612 32.8226ZM175.034 24.9285C175.173 24.2735 176.819 23.7556 177.814 23.9666C178.809 24.1776 179.741 25.2422 179.602 25.8972C179.463 26.5523 178.719 27.0359 177.724 26.8249C176.729 26.6139 174.895 25.5836 175.034 24.9285ZM185.084 35.1207C184.024 34.6412 181.931 35.0944 181.517 36.0116C181.102 36.9288 182.808 38.7349 183.869 39.2143C184.93 39.6938 185.972 39.1302 186.387 38.213C186.801 37.2958 186.145 35.6002 185.084 35.1207ZM174.54 46.4054C175.358 45.819 177.546 46.6832 178.325 47.7707C179.104 48.8581 178.936 50.8118 178.118 51.3981C177.3 51.9845 176.053 51.8632 175.273 50.7757C174.494 49.6883 173.722 46.9917 174.54 46.4054ZM183.614 44.9432C184.115 43.7175 183.666 41.4216 182.728 41.0387C181.79 40.6559 179.923 42.7175 179.423 43.9432C178.922 45.1689 179.493 46.2834 180.431 46.6663C181.369 47.0491 183.114 46.1689 183.614 44.9432ZM159.734 49.9624C159.361 50.9046 160.708 52.8172 161.939 53.3041C163.17 53.7909 165.013 53.1399 165.386 52.1978C165.758 51.2556 165.348 50.0727 164.117 49.5858C162.886 49.099 160.106 49.0202 159.734 49.9624ZM171.891 52.4158C172.799 51.1497 172.915 48.3979 171.946 47.7023C170.977 47.0067 168.274 48.8553 167.366 50.1215C166.457 51.3877 166.804 52.8202 167.773 53.5158C168.742 54.2114 170.982 53.682 171.891 52.4158Z" fill="url(#paint9_radial_2708_905)"/>
<path fill-rule="evenodd" clip-rule="evenodd" d="M206.431 37.9226C206.805 37.0062 206.301 35.2209 205.467 34.8804C204.632 34.5399 203.112 36.0305 202.738 36.9469C202.364 37.8633 202.915 38.7474 203.749 39.0879C204.584 39.4284 206.057 38.839 206.431 37.9226ZM202.287 42.8931C201.441 43.2066 199.931 42.9661 199.725 42.4104C199.519 41.8547 200.996 40.715 201.841 40.4015C202.687 40.088 203.401 40.4153 203.607 40.971C203.813 41.5267 203.132 42.5796 202.287 42.8931ZM194.186 28.1402C193.98 28.6674 194.216 29.6456 195.105 29.9935C195.994 30.3414 197.246 30.0612 197.452 29.5339C197.658 29.0067 197.303 28.2983 196.414 27.9504C195.525 27.6025 194.393 27.613 194.186 28.1402ZM201.855 31.3878C202.928 32.2054 203.075 33.355 202.731 33.8052C202.388 34.2554 200.952 33.6912 199.879 32.8736C198.807 32.0559 198.467 31.1299 198.811 30.6797C199.154 30.2295 200.783 30.5701 201.855 31.3878ZM194.239 43.4355C194.296 44.0254 195.973 44.1879 196.87 44.1001C197.767 44.0122 198.417 43.6222 198.359 43.0323C198.301 42.4425 197.694 41.944 196.796 42.0318C195.899 42.1197 194.181 42.8457 194.239 43.4355ZM191.064 25.835C191.906 26.1574 193.333 27.0518 193.122 27.6053C192.91 28.1588 191.048 28.0407 190.206 27.7183C189.364 27.3959 189.043 26.6785 189.255 26.125C189.467 25.5715 190.222 25.5126 191.064 25.835Z" fill="url(#paint10_radial_2708_905)"/>
<path d="M114.64 30.7149C81.1547 23.3244 34.0205 22.4012 39.0711 35.0126C42.6013 43.8276 55.0165 48.1505 67.2838 52.4219C69.9087 53.3358 72.5268 54.2475 75.0497 55.2002C77.3942 59.1073 80.3374 62.9824 83.8038 66.353C96.4866 78.6851 116.42 84.3809 119.438 79.2861C119.641 78.9435 119.847 78.5753 120.054 78.1819C120.74 78.2471 121.508 78.2061 122.384 78.014C127.045 76.9912 128.305 53.4494 128.352 41.8064C126.318 38.3776 122.157 31.4486 121.778 31.1626C121.399 30.8767 117.984 30.86 116.323 30.8874C115.79 30.8313 115.227 30.7735 114.64 30.7149Z" fill="url(#paint11_radial_2708_905)"/>
<path fill-rule="evenodd" clip-rule="evenodd" d="M66.2357 32.7398C61.7728 32.6509 52.8103 32.75 51.1386 34.0356C49.4668 35.3212 51.2171 38.1721 52.7049 39.8183C57.2464 38.4089 66.6049 35.4916 67.7062 35.098C69.083 34.606 68.2405 32.7608 66.2357 32.7398ZM61.478 39.7961C58.4201 40.9509 55.6473 41.9981 55.3117 42.3699C54.5771 43.1837 67.9058 51.1569 68.7645 49.0682C69.4514 47.3972 69.7424 42.5879 69.3736 39.3037L67.9373 37.253C66.2308 38.0012 63.7741 38.929 61.478 39.7961Z" fill="url(#paint12_radial_2708_905)"/>
<path fill-rule="evenodd" clip-rule="evenodd" d="M83.4814 38.2528C85.0503 36.4068 90.7851 38.1615 98.1519 40.77C100.176 41.4799 99.6863 43.5959 97.7835 43.5985C96.3228 43.6006 88.518 44.0162 83.9142 44.2613L83.9138 44.2613L83.35 44.2913C82.9431 42.7717 82.2262 39.7297 83.4814 38.2528ZM98.8232 46.3881C97.3104 46.4327 83.8712 47.1155 82.2434 48.7053C80.6155 50.2951 86.1459 57.3657 87.9744 56.595C89.803 55.8243 99.225 50.9205 100.446 49.2457C101.667 47.5709 100.336 46.3434 98.8232 46.3881ZM115.88 37.7131C113.682 38.0021 104.934 39.9399 103.261 40.6716C102.155 41.1552 102.57 41.9122 103.24 43.1322C103.837 44.22 104.636 45.6759 104.739 47.6342C104.875 50.2201 104.629 50.7763 104.269 51.59L104.269 51.59C104.166 51.8234 104.053 52.0779 103.938 52.4075C103.419 53.8866 106.131 57.9615 110.031 53.1898C113.93 48.4181 118.115 41.757 118.753 40.6799C119.391 39.6028 118.078 37.4241 115.88 37.7131ZM99.6038 64.8336C97.348 65.0938 91.661 60.3078 92.2639 59.2902C92.8668 58.2726 98.6468 55.4139 100.522 55.0064C102.354 54.608 103.798 56.5692 103.422 58.389C103.045 60.2089 101.86 64.5735 99.6038 64.8336ZM93.2161 32.6923C91.3438 32.8854 92.8533 36.3066 95.9534 37.1522C99.901 38.229 104.497 36.8317 107.465 35.9291C108.226 35.6979 108.88 35.4991 109.388 35.3828C111.882 34.8123 112.318 33.6043 109.641 33.1678C106.902 32.7211 95.0885 32.4992 93.2161 32.6923ZM111.746 70.0623C110.172 71.1409 104.76 67.9162 104.787 66.573C104.814 65.2299 111.372 55.7611 112.221 54.9947C113.069 54.2283 113.901 54.252 114.345 56.4454C114.788 58.6387 113.32 68.9837 111.746 70.0623ZM115.209 69.7948C115.06 71.234 119.676 73.9223 121.529 72.8548C124.711 71.0212 125 44.2232 122.442 44.0802C119.883 43.9372 115.357 68.3557 115.209 69.7948Z" fill="url(#paint13_radial_2708_905)"/>
<path fill-rule="evenodd" clip-rule="evenodd" d="M74.249 39.7639C75.8028 40.9374 78.7705 40.7357 79.4473 39.5933C80.124 38.451 78.91 35.6925 77.3562 34.519C75.8024 33.3455 73.9295 32.9506 73.2527 34.093C72.576 35.2353 72.6952 38.5904 74.249 39.7639ZM87.645 34.573C87.3143 33.6269 84.6804 32.0309 83.1812 31.7618C81.682 31.4926 80.431 32.391 80.7616 33.3371C81.0923 34.2833 82.3266 35.3356 83.8258 35.6048C85.325 35.874 87.9756 35.5191 87.645 34.573ZM73.9289 42.5522C75.4821 42.5014 78.794 44.2579 79.5969 45.7041C80.3998 47.1504 78.0848 48.6056 76.5315 48.6564C74.9783 48.7073 73.2682 47.3837 72.4653 45.9375C71.6624 44.4913 72.3756 42.603 73.9289 42.5522ZM92.2132 63.3507C90.8457 62.1208 87.6201 62.0602 86.6092 63.0733C85.5983 64.0864 86.2044 66.7724 87.5719 68.0023C88.9394 69.2321 90.844 69.7595 91.8548 68.7464C92.8657 67.7332 93.5807 64.5805 92.2132 63.3507ZM77.939 56.4028C76.9491 54.4998 77.2354 51.7003 78.6163 51.71C79.9973 51.7196 83.2457 55.4864 84.2356 57.3894C85.2255 59.2924 84.5423 60.4569 83.1613 60.4472C81.7804 60.4376 78.9289 58.3058 77.939 56.4028ZM115.712 76.2461C116.454 77.7024 114.713 79.4973 112.898 79.4639C111.082 79.4305 108.12 77.5491 107.378 76.0928C106.635 74.6366 107.059 73.293 108.874 73.3264C110.689 73.3598 114.969 74.7899 115.712 76.2461ZM97.3697 72.7913C95.7415 70.609 95.0752 66.8927 96.4486 66.5044C97.822 66.1161 102.324 70.0617 103.952 72.244C105.58 74.4263 105.298 76.1359 103.924 76.5242C102.551 76.9125 98.9979 74.9736 97.3697 72.7913Z" fill="url(#paint14_radial_2708_905)"/>
<path fill-rule="evenodd" clip-rule="evenodd" d="M41.4546 34.487C40.7145 33.0642 41.1762 30.9728 42.4043 30.9814C43.6323 30.9899 46.2443 33.8075 46.9844 35.2303C47.7245 36.6531 47.0304 37.5224 45.8023 37.5139C44.5743 37.5053 42.1947 35.9098 41.4546 34.487ZM48.7351 43.3719C50.0965 44.2547 52.3862 44.769 52.606 44.1452C52.8257 43.5214 50.3434 41.1938 48.9821 40.311C47.6207 39.4282 46.5754 39.4682 46.3556 40.092C46.1359 40.7158 47.3738 42.4891 48.7351 43.3719ZM58.6304 28.2609C59.0425 29.0745 58.8512 30.2424 57.5397 30.2134C56.2283 30.1844 54.2458 29.1216 53.8338 28.308C53.4217 27.4943 53.8444 26.75 55.1558 26.779C56.4672 26.808 58.2183 27.4472 58.6304 28.2609ZM47.3609 28.3391C45.8497 28.8325 45.8261 30.2769 46.4361 31.064C47.0461 31.851 49.1648 31.8953 50.676 31.402C52.1872 30.9086 52.5477 29.8671 51.9377 29.0801C51.3277 28.2931 48.8721 27.8458 47.3609 28.3391ZM61.2612 48.5346C61.2766 49.2856 58.7163 48.5759 57.3147 47.964C55.9131 47.352 54.8414 46.4759 54.826 45.7249C54.8106 44.9739 55.6605 44.6477 57.0621 45.2597C58.4637 45.8716 61.2458 47.7836 61.2612 48.5346ZM63.0465 26.9256C61.8031 26.8886 59.7573 27.2879 60.1827 28.1394C60.608 28.991 63.4619 29.8618 64.7054 29.8988C65.9489 29.9358 66.3172 29.1608 65.8919 28.3092C65.4665 27.4576 64.29 26.9626 63.0465 26.9256Z" fill="url(#paint15_radial_2708_905)"/>
<path d="M113.056 34.1466C76.0583 43.1214 25.2589 67.8616 32.3811 81.1968C37.3596 90.5184 51.2899 89.2138 65.0541 87.9248C68.0007 87.6489 70.9397 87.3736 73.7816 87.2035C76.8262 90.9049 80.51 94.2362 84.6883 96.6357C99.9806 105.418 122.179 101.733 124.741 93.5627C124.913 93.014 125.085 92.431 125.255 91.8151C126.002 91.521 126.822 91.0466 127.738 90.3194C132.613 86.4489 130.809 55.6762 129.298 40.7736C126.651 37.5109 121.247 30.9463 120.802 30.7891C120.356 30.632 116.681 32.4891 114.899 33.4374C114.315 33.6599 113.699 33.8969 113.056 34.1466Z" fill="url(#paint16_radial_2708_905)"/>
<path fill-rule="evenodd" clip-rule="evenodd" d="M61.2854 63.3514C56.4744 65.692 46.8503 70.7473 45.2251 73.3092C43.6 75.871 45.8645 78.551 47.6853 79.8362C52.3797 75.5379 62.0515 66.6642 63.1831 65.5556C64.5975 64.1699 63.444 62.2757 61.2854 63.3514ZM57.1156 74.9845C53.9823 78.1416 51.1412 81.0043 50.8302 81.664C50.1494 83.1078 65.5516 85.965 66.1947 82.8241C66.7092 80.3114 66.3769 74.0068 65.5397 70.0135L63.7202 68.1831C61.9856 70.0775 59.4682 72.614 57.1156 74.9845Z" fill="url(#paint17_radial_2708_905)"/>
<path fill-rule="evenodd" clip-rule="evenodd" d="M80.5733 60.9068C82.0128 57.6851 88.4147 56.7732 96.6862 56.0545C98.9578 55.8484 98.7152 58.8214 96.6695 59.8712C95.0991 60.6772 86.7628 65.5003 81.8452 68.3456L81.8446 68.3459L81.2419 68.6946C80.6006 66.9766 79.4217 63.4841 80.5733 60.9068ZM98.1596 62.8667C96.5389 63.7557 82.1792 72.0193 80.642 74.946C79.1049 77.8727 86 83.8654 87.8629 81.875C89.7258 79.8846 99.1996 68.4369 100.288 65.6254C101.376 62.814 99.7803 61.9776 98.1596 62.8667ZM115.338 42.3976C113.014 43.9756 103.866 51.263 102.165 53.1183C101.041 54.3442 101.589 55.083 102.473 56.2736C103.261 57.3352 104.315 58.756 104.689 61.2015C105.181 64.431 104.992 65.2769 104.714 66.5144L104.714 66.5145C104.634 66.8694 104.547 67.2565 104.467 67.7412C104.108 69.9163 107.571 73.6314 111.124 65.3897C114.678 57.148 118.284 46.3354 118.825 44.6083C119.367 42.8811 117.663 40.8196 115.338 42.3976ZM101.474 86.0018C99.0832 87.5749 92.326 84.5875 92.8378 82.9557C93.3496 81.3239 99.1815 74.4924 101.143 72.9405C103.06 71.4234 104.876 73.1354 104.715 75.6677C104.554 78.1999 103.865 84.4288 101.474 86.0018ZM90.2933 48.4473C88.3059 49.7237 90.388 53.2649 93.8349 52.6404C98.2243 51.8451 102.979 47.532 106.05 44.7462L106.05 44.7461L106.05 44.7459C106.837 44.0323 107.513 43.4189 108.044 42.9905C110.65 40.89 110.956 39.1069 108.019 40.0215C105.014 40.9572 92.2807 47.1708 90.2933 48.4473ZM115.231 86.008C113.684 88.2517 107.431 87.1082 107.28 85.3771C107.129 83.646 112.911 67.9408 113.721 66.4947C114.53 65.0486 115.428 64.6214 116.199 67.1801C116.97 69.7389 116.779 83.7642 115.231 86.008ZM118.92 83.7603C118.954 85.6806 124.277 86.5773 126.126 84.1942C129.303 80.1008 126.019 45.7015 123.249 46.9259C120.478 48.1502 118.886 81.84 118.92 83.7603Z" fill="url(#paint18_radial_2708_905)"/>
<path fill-rule="evenodd" clip-rule="evenodd" d="M70.8466 67.9159C72.6748 68.5607 75.8391 66.6708 76.4136 64.8389C76.9881 63.0071 75.3126 60.1501 73.4843 59.5052C71.6561 58.8604 69.5891 59.3859 69.0146 61.2178C68.4401 63.0497 69.0184 67.2711 70.8466 67.9159ZM84.5546 53.9175C84.0721 52.8905 81.0257 52.2999 79.3775 52.7805C77.7293 53.2611 76.5045 55.0971 76.987 56.1242C77.4694 57.1512 78.9378 57.817 80.5861 57.3364C82.2343 56.8558 85.037 54.9446 84.5546 53.9175ZM70.8759 71.6564C72.5394 70.7372 76.3363 71.1601 77.3936 72.5664C78.451 73.9727 76.1568 77.1055 74.4934 78.0247C72.8299 78.9439 70.8136 78.1933 69.7562 76.787C68.6989 75.3806 69.2125 72.5757 70.8759 71.6564ZM93.3278 88.1757C91.6923 87.3564 88.2156 89.053 87.2645 90.9035C86.3133 92.7541 87.3253 95.8528 88.9608 96.6721C90.5963 97.4914 92.715 97.1178 93.6661 95.2673C94.6173 93.4167 94.9632 88.995 93.3278 88.1757ZM77.045 87.1477C75.7253 85.2606 75.6576 81.526 77.1439 80.7788C78.6302 80.0316 82.6285 83.0581 83.9483 84.9452C85.268 86.8323 84.6894 88.696 83.2032 89.4432C81.7169 90.1904 78.3647 89.0348 77.045 87.1477ZM120.325 91.7267C121.318 93.179 119.686 96.4304 117.73 97.386C115.774 98.3416 112.336 97.5667 111.343 96.1143C110.349 94.662 110.624 92.7121 112.581 91.7565C114.537 90.8009 119.331 90.2744 120.325 91.7267ZM100.138 97.4019C98.0946 95.5089 96.8796 91.1269 98.3044 89.8754C99.7291 88.6239 105.099 91.1894 107.143 93.0824C109.186 94.9753 109.112 97.3151 107.687 98.5666C106.262 99.8182 102.182 99.2948 100.138 97.4019Z" fill="url(#paint19_radial_2708_905)"/>
<path fill-rule="evenodd" clip-rule="evenodd" d="M34.8755 79.2091C33.8888 77.7982 34.1048 74.872 35.4265 74.2076C36.7482 73.5432 39.9349 75.7068 40.9217 77.1177C41.9084 78.5286 41.2786 80.0211 39.9569 80.6855C38.6352 81.3499 35.8623 80.62 34.8755 79.2091ZM43.8952 86.5594C45.4775 86.9387 48.0088 86.3366 48.1614 85.4187C48.314 84.5008 45.3324 82.892 43.7501 82.5127C42.1678 82.1334 41.049 82.7594 40.8964 83.6773C40.7438 84.5952 42.3129 86.1801 43.8952 86.5594ZM52.5101 61.8103C53.0624 62.6232 53.0133 64.2207 51.5993 64.9049C50.1852 65.589 47.9107 65.3214 47.3585 64.5084C46.8062 63.6954 47.1609 62.5119 48.575 61.8278C49.9891 61.1436 51.9579 60.9973 52.5101 61.8103ZM40.4024 68.1059C38.8436 69.5673 39.0121 71.4259 39.7736 72.096C40.5351 72.7661 42.8194 71.6576 44.3782 70.1961C45.9371 68.7347 46.185 67.2057 45.4235 66.5356C44.662 65.8655 41.9613 66.6445 40.4024 68.1059ZM58.0583 86.2653C58.1756 87.2164 55.3271 87.7177 53.7379 87.7066C52.1486 87.6955 50.8786 87.1655 50.7613 86.2144C50.644 85.2633 51.5142 84.3791 53.1035 84.3902C54.6928 84.4013 57.941 85.3142 58.0583 86.2653ZM57.0783 57.6748C55.7362 58.3115 53.5899 59.9466 54.1616 60.8008C54.7332 61.6549 57.9189 61.198 59.261 60.5614C60.6032 59.9248 60.8953 58.732 60.3236 57.8779C59.752 57.0237 58.4204 57.0382 57.0783 57.6748Z" fill="url(#paint20_radial_2708_905)"/>
<defs>
<linearGradient id="paint0_linear_2708_905" x1="67.847" y1="-32.6923" x2="102.983" y2="65.2654" gradientUnits="userSpaceOnUse">
<stop stop-color="#526121"/>
<stop offset="1" stop-color="#72B98A"/>
</linearGradient>
<linearGradient id="paint1_linear_2708_905" x1="118.794" y1="-7.03958" x2="75.4831" y2="86.9806" gradientUnits="userSpaceOnUse">
<stop stop-color="#CAD179"/>
<stop offset="1" stop-color="#798026" stop-opacity="0"/>
</linearGradient>
<linearGradient id="paint2_linear_2708_905" x1="79.2506" y1="-11.9712" x2="115.241" y2="46.4423" gradientUnits="userSpaceOnUse">
<stop stop-color="#526121"/>
<stop offset="1" stop-color="#72B98A"/>
</linearGradient>
<linearGradient id="paint3_linear_2708_905" x1="171.743" y1="-9.49142" x2="128.925" y2="117.558" gradientUnits="userSpaceOnUse">
<stop stop-color="#CAD179"/>
<stop offset="1" stop-color="#798026" stop-opacity="0"/>
</linearGradient>
<linearGradient id="paint4_linear_2708_905" x1="163.806" y1="-1.07236" x2="135.609" y2="6.73688" gradientUnits="userSpaceOnUse">
<stop stop-color="#526121"/>
<stop offset="1" stop-color="#72B98A"/>
</linearGradient>
<linearGradient id="paint5_linear_2708_905" x1="166.261" y1="7.43005e-07" x2="134.19" y2="73.7858" gradientUnits="userSpaceOnUse">
<stop stop-color="#CAD179"/>
<stop offset="1" stop-color="#BAC444" stop-opacity="0"/>
</linearGradient>
<radialGradient id="paint6_radial_2708_905" cx="0" cy="0" r="1" gradientUnits="userSpaceOnUse" gradientTransform="translate(184.691 14.4599) rotate(140.928) scale(43.4037 42.1683)">
<stop stop-color="#493333"/>
<stop offset="1"/>
</radialGradient>
<radialGradient id="paint7_radial_2708_905" cx="0" cy="0" r="1" gradientUnits="userSpaceOnUse" gradientTransform="translate(193.715 33.5075) rotate(144.952) scale(7.86931 8.78156)">
<stop stop-color="#FDF370"/>
<stop offset="0.738553" stop-color="#FA9908"/>
</radialGradient>
<radialGradient id="paint8_radial_2708_905" cx="0" cy="0" r="1" gradientUnits="userSpaceOnUse" gradientTransform="translate(165.818 28.4225) rotate(144.972) scale(17.3309 19.2931)">
<stop stop-color="#FDF370"/>
<stop offset="0.738553" stop-color="#FA9908"/>
</radialGradient>
<radialGradient id="paint9_radial_2708_905" cx="0" cy="0" r="1" gradientUnits="userSpaceOnUse" gradientTransform="translate(172.012 39.2892) rotate(149.357) scale(16.2602 12.638)">
<stop offset="0.802761" stop-color="white"/>
<stop offset="1" stop-color="#DCCFDC"/>
</radialGradient>
<radialGradient id="paint10_radial_2708_905" cx="0" cy="0" r="1" gradientUnits="userSpaceOnUse" gradientTransform="translate(196.817 32.9714) rotate(146.292) scale(7.15063 10.502)">
<stop offset="0.802761" stop-color="white"/>
<stop offset="1" stop-color="#DCCFDC"/>
</radialGradient>
<radialGradient id="paint11_radial_2708_905" cx="0" cy="0" r="1" gradientUnits="userSpaceOnUse" gradientTransform="translate(70.8703 15.3437) rotate(43.985) scale(79.07 45.1863)">
<stop stop-color="#493333"/>
<stop offset="1"/>
</radialGradient>
<radialGradient id="paint12_radial_2708_905" cx="0" cy="0" r="1" gradientUnits="userSpaceOnUse" gradientTransform="translate(60.311 35.6454) rotate(41.627) scale(14.383 9.37918)">
<stop stop-color="#FDF370"/>
<stop offset="0.738553" stop-color="#FA9908"/>
</radialGradient>
<radialGradient id="paint13_radial_2708_905" cx="0" cy="0" r="1" gradientUnits="userSpaceOnUse" gradientTransform="translate(102.494 44.2979) rotate(41.6155) scale(31.6774 20.6056)">
<stop stop-color="#FDF370"/>
<stop offset="0.738553" stop-color="#FA9908"/>
</radialGradient>
<radialGradient id="paint14_radial_2708_905" cx="0" cy="0" r="1" gradientUnits="userSpaceOnUse" gradientTransform="translate(94.8559 55.3009) rotate(39.0542) scale(29.7155 13.4997)">
<stop offset="0.802761" stop-color="white"/>
<stop offset="1" stop-color="#DCCFDC"/>
</radialGradient>
<radialGradient id="paint15_radial_2708_905" cx="0" cy="0" r="1" gradientUnits="userSpaceOnUse" gradientTransform="translate(55.4248 33.2217) rotate(40.8448) scale(13.0739 11.2131)">
<stop offset="0.802761" stop-color="white"/>
<stop offset="1" stop-color="#DCCFDC"/>
</radialGradient>
<radialGradient id="paint16_radial_2708_905" cx="0" cy="0" r="1" gradientUnits="userSpaceOnUse" gradientTransform="translate(63.9381 38.5757) rotate(29.5588) scale(78.7993 65.6432)">
<stop stop-color="#493333"/>
<stop offset="1"/>
</radialGradient>
<radialGradient id="paint17_radial_2708_905" cx="0" cy="0" r="1" gradientUnits="userSpaceOnUse" gradientTransform="translate(55.3041 70.3224) rotate(26.1128) scale(14.3023 13.6553)">
<stop stop-color="#FDF370"/>
<stop offset="0.738553" stop-color="#FA9908"/>
</radialGradient>
<radialGradient id="paint18_radial_2708_905" cx="0" cy="0" r="1" gradientUnits="userSpaceOnUse" gradientTransform="translate(101.828 58.1741) rotate(26.0961) scale(31.4986 30.0006)">
<stop stop-color="#FDF370"/>
<stop offset="0.738553" stop-color="#FA9908"/>
</radialGradient>
<radialGradient id="paint19_radial_2708_905" cx="0" cy="0" r="1" gradientUnits="userSpaceOnUse" gradientTransform="translate(95.0885 76.4364) rotate(22.3438) scale(29.5426 19.6585)">
<stop offset="0.802761" stop-color="white"/>
<stop offset="1" stop-color="#DCCFDC"/>
</radialGradient>
<radialGradient id="paint20_radial_2708_905" cx="0" cy="0" r="1" gradientUnits="userSpaceOnUse" gradientTransform="translate(49.7276 69.9114) rotate(24.967) scale(12.9967 16.33)">
<stop offset="0.802761" stop-color="white"/>
<stop offset="1" stop-color="#DCCFDC"/>
</radialGradient>
</defs>
</svg>
