<svg viewBox="0 0 240 120" fill="none" xmlns="http://www.w3.org/2000/svg">
<path d="M130.381 42.3181C130.381 42.3181 129.401 49.5456 134.908 51.3065C146.685 55.0695 155.213 66.1017 155.213 79.1266C155.213 94.5587 142.645 108.317 126.435 108.317C110.225 108.317 97.6621 94.5564 97.6621 79.1266C97.6625 66.1017 106.19 55.0695 117.967 51.3065C123.458 49.552 122.506 42.3655 122.5 42.3181H130.381Z" fill="url(#paint0_radial_10157_37193)"/>
<path d="M130.381 42.3181C130.381 42.3181 129.401 49.5456 134.908 51.3065C146.685 55.0695 155.213 66.1017 155.213 79.1266C155.213 94.5587 142.645 108.317 126.435 108.317C110.225 108.317 97.6621 94.5564 97.6621 79.1266C97.6625 66.1017 106.19 55.0695 117.967 51.3065C123.458 49.552 122.506 42.3655 122.5 42.3181H130.381Z" fill="url(#paint1_radial_10157_37193)"/>
<path d="M192.243 21.9299C192.243 36.4322 208.169 33.364 208.169 58.41C208.169 83.456 189.657 96.7958 189.657 111.769C189.657 111.769 189.657 113.228 186.924 113.228C184.19 113.228 184.19 111.769 184.19 111.769C184.19 96.7958 165.678 83.456 165.678 58.41C165.678 33.364 181.604 36.4322 181.604 21.9299H192.243Z" fill="url(#paint2_radial_10157_37193)"/>
<path d="M192.243 21.9299C192.243 36.4322 208.169 33.364 208.169 58.41C208.169 83.456 189.657 96.7958 189.657 111.769C189.657 111.769 189.657 113.228 186.924 113.228C184.19 113.228 184.19 111.769 184.19 111.769C184.19 96.7958 165.678 83.456 165.678 58.41C165.678 33.364 181.604 36.4322 181.604 21.9299H192.243Z" fill="url(#paint3_radial_10157_37193)"/>
<path d="M192.243 21.9299C192.243 36.4322 208.169 33.364 208.169 58.41C208.169 83.456 189.657 96.7958 189.657 111.769C189.657 111.769 189.657 113.228 186.924 113.228C184.19 113.228 184.19 111.769 184.19 111.769C184.19 96.7958 165.678 83.456 165.678 58.41C165.678 33.364 181.604 36.4322 181.604 21.9299H192.243Z" fill="url(#paint4_radial_10157_37193)"/>
<path d="M192.243 21.9299C192.243 36.4322 208.169 33.364 208.169 58.41C208.169 83.456 189.657 96.7958 189.657 111.769C189.657 111.769 189.657 113.228 186.924 113.228C184.19 113.228 184.19 111.769 184.19 111.769C184.19 96.7958 165.678 83.456 165.678 58.41C165.678 33.364 181.604 36.4322 181.604 21.9299H192.243Z" fill="url(#paint5_radial_10157_37193)"/>
<path d="M60.7889 24.8933C60.7889 47.3777 92.1567 44.7591 92.1574 61.3028C92.1582 77.8465 56.3199 88.7459 56.3199 106.847C56.3199 106.847 56.3199 108.317 53.9442 108.317C51.5685 108.317 51.5685 106.847 51.5685 106.847C51.5685 88.7459 15.7385 77.8465 15.7393 61.3028C15.74 44.7591 47.0996 47.3777 47.0996 24.8933H60.7889Z" fill="url(#paint6_radial_10157_37193)"/>
<path d="M60.7889 24.8933C60.7889 47.3777 92.1567 44.7591 92.1574 61.3028C92.1582 77.8465 56.3199 88.7459 56.3199 106.847C56.3199 106.847 56.3199 108.317 53.9442 108.317C51.5685 108.317 51.5685 106.847 51.5685 106.847C51.5685 88.7459 15.7385 77.8465 15.7393 61.3028C15.74 44.7591 47.0996 47.3777 47.0996 24.8933H60.7889Z" fill="url(#paint7_radial_10157_37193)"/>
<path d="M60.7889 24.8933C60.7889 47.3777 92.1567 44.7591 92.1574 61.3028C92.1582 77.8465 56.3199 88.7459 56.3199 106.847C56.3199 106.847 56.3199 108.317 53.9442 108.317C51.5685 108.317 51.5685 106.847 51.5685 106.847C51.5685 88.7459 15.7385 77.8465 15.7393 61.3028C15.74 44.7591 47.0996 47.3777 47.0996 24.8933H60.7889Z" fill="url(#paint8_radial_10157_37193)"/>
<path d="M60.7889 24.8933C60.7889 47.3777 92.1567 44.7591 92.1574 61.3028C92.1582 77.8465 56.3199 88.7459 56.3199 106.847C56.3199 106.847 56.3199 108.317 53.9442 108.317C51.5685 108.317 51.5685 106.847 51.5685 106.847C51.5685 88.7459 15.7385 77.8465 15.7393 61.3028C15.74 44.7591 47.0996 47.3777 47.0996 24.8933H60.7889Z" fill="url(#paint9_radial_10157_37193)"/>
<path d="M60.7889 24.8933C60.7889 47.3777 92.1567 44.7591 92.1574 61.3028C92.1582 77.8465 56.3199 88.7459 56.3199 106.847C56.3199 106.847 56.3199 108.317 53.9442 108.317C51.5685 108.317 51.5685 106.847 51.5685 106.847C51.5685 88.7459 15.7385 77.8465 15.7393 61.3028C15.74 44.7591 47.0996 47.3777 47.0996 24.8933H60.7889Z" fill="url(#paint10_radial_10157_37193)"/>
<path d="M78.5851 64.1788C78.5851 73.4515 67.7327 80.9686 54.3455 80.9686C40.9584 80.9686 30.106 73.4515 30.106 64.1788C30.106 54.906 40.9584 47.3889 54.3455 47.3889C67.7327 47.3889 78.5851 54.906 78.5851 64.1788Z" fill="url(#paint11_radial_10157_37193)"/>
<path d="M78.5851 64.1788C78.5851 73.4515 67.7327 80.9686 54.3455 80.9686C40.9584 80.9686 30.106 73.4515 30.106 64.1788C30.106 54.906 40.9584 47.3889 54.3455 47.3889C67.7327 47.3889 78.5851 54.906 78.5851 64.1788Z" fill="url(#paint12_radial_10157_37193)"/>
<path d="M126.256 66.0264C136.335 66.0264 145.628 66.7245 153.078 68.1673C154.45 71.5522 155.215 75.2516 155.215 79.1288C155.214 83.7832 154.061 88.2807 152.019 92.2989C144.755 94.195 135.863 95.3141 126.256 95.3142C116.83 95.3142 108.09 94.2384 100.903 92.4071C98.8278 88.3623 97.6624 83.8233 97.6621 79.1288C97.6622 75.2227 98.434 71.496 99.8256 68.0907C107.208 66.6989 116.354 66.0264 126.256 66.0264Z" fill="#097341"/>
<path d="M126.256 66.0264C136.335 66.0264 145.628 66.7245 153.078 68.1673C154.45 71.5522 155.215 75.2516 155.215 79.1288C155.214 83.7832 154.061 88.2807 152.019 92.2989C144.755 94.195 135.863 95.3141 126.256 95.3142C116.83 95.3142 108.09 94.2384 100.903 92.4071C98.8278 88.3623 97.6624 83.8233 97.6621 79.1288C97.6622 75.2227 98.434 71.496 99.8256 68.0907C107.208 66.6989 116.354 66.0264 126.256 66.0264Z" fill="url(#paint13_radial_10157_37193)"/>
<path d="M126.256 66.0264C136.335 66.0264 145.628 66.7245 153.078 68.1673C154.45 71.5522 155.215 75.2516 155.215 79.1288C155.214 83.7832 154.061 88.2807 152.019 92.2989C144.755 94.195 135.863 95.3141 126.256 95.3142C116.83 95.3142 108.09 94.2384 100.903 92.4071C98.8278 88.3623 97.6624 83.8233 97.6621 79.1288C97.6622 75.2227 98.434 71.496 99.8256 68.0907C107.208 66.6989 116.354 66.0264 126.256 66.0264Z" fill="url(#paint14_radial_10157_37193)"/>
<path d="M194.506 29.8806C196.149 32.3743 198.455 34.3343 200.722 36.7902C200.919 50.6005 171.509 61.5226 169.32 77.2469C167.177 71.7105 165.678 65.5347 165.678 58.4113C165.678 58.3333 165.682 58.2543 165.683 58.1769C172.528 47.0345 191.753 39.2641 194.506 29.8806Z" fill="#E73F37"/>
<path d="M194.506 29.8806C196.149 32.3743 198.455 34.3343 200.722 36.7902C200.919 50.6005 171.509 61.5226 169.32 77.2469C167.177 71.7105 165.678 65.5347 165.678 58.4113C165.678 58.3333 165.682 58.2543 165.683 58.1769C172.528 47.0345 191.753 39.2641 194.506 29.8806Z" fill="url(#paint15_radial_10157_37193)"/>
<path d="M207.33 49.532C207.852 52.0371 208.168 54.9559 208.168 58.4112C208.168 63.1661 207.496 67.4978 206.415 71.5001C197.727 80.5078 184.217 89.3305 181.048 100.121C179.168 96.1687 176.688 92.0827 174.26 87.6314C176.889 71.5346 204.023 61.7677 207.33 49.532Z" fill="#E73F37"/>
<path d="M207.33 49.532C207.852 52.0371 208.168 54.9559 208.168 58.4112C208.168 63.1661 207.496 67.4978 206.415 71.5001C197.727 80.5078 184.217 89.3305 181.048 100.121C179.168 96.1687 176.688 92.0827 174.26 87.6314C176.889 71.5346 204.023 61.7677 207.33 49.532Z" fill="url(#paint16_radial_10157_37193)"/>
<path d="M126.438 68.2075L128.134 80.4967H126.438V68.2075Z" fill="white"/>
<path d="M126.438 92.7856L124.743 80.4965L126.438 80.4965L126.438 92.7856Z" fill="white"/>
<path d="M126.438 68.2075L124.743 80.4967H126.438V68.2075Z" fill="white" fill-opacity="0.5"/>
<path d="M126.438 92.7856L128.134 80.4965L126.438 80.4965L126.438 92.7856Z" fill="white" fill-opacity="0.5"/>
<path d="M138.728 80.4966L126.438 82.1922L126.438 80.4966L138.728 80.4966Z" fill="white"/>
<path d="M114.149 80.4966L126.439 78.8009L126.439 80.4966L114.149 80.4966Z" fill="white"/>
<path d="M138.728 80.4966L126.438 78.8009L126.438 80.4966L138.728 80.4966Z" fill="white" fill-opacity="0.5"/>
<path d="M114.149 80.4966L126.439 82.1922L126.439 80.4966L114.149 80.4966Z" fill="white" fill-opacity="0.5"/>
<path d="M134.687 72.2461L127.575 81.6347L126.436 80.4964L134.687 72.2461Z" fill="white"/>
<path d="M118.188 88.7471L125.3 79.3584L126.438 80.4968L118.188 88.7471Z" fill="white"/>
<path d="M134.687 72.2461L125.298 79.358L126.436 80.4964L134.687 72.2461Z" fill="white" fill-opacity="0.5"/>
<path d="M118.188 88.7471L127.577 81.6352L126.438 80.4968L118.188 88.7471Z" fill="white" fill-opacity="0.5"/>
<path d="M134.687 88.7471L125.298 81.6352L126.436 80.4968L134.687 88.7471Z" fill="white"/>
<path d="M118.188 72.2461L127.577 79.358L126.438 80.4964L118.188 72.2461Z" fill="white"/>
<path d="M134.687 88.7471L127.575 79.3584L126.436 80.4968L134.687 88.7471Z" fill="white" fill-opacity="0.5"/>
<path d="M118.188 72.2461L125.3 81.6347L126.438 80.4964L118.188 72.2461Z" fill="white" fill-opacity="0.5"/>
<path d="M152.317 79.1962L154.972 75.4282C154.995 75.6111 155.019 75.7941 155.039 75.9781L152.628 80.4943H155.17C155.158 80.7443 155.144 80.9936 155.125 81.2425L152.317 81.7924L154.584 85.0105C154.547 85.1866 154.512 85.3627 154.471 85.5379L151.402 82.2431V91.2079L150.482 81.7924L146.327 87.6878L150.167 80.4988H143.843L150.482 79.1962L146.327 73.3053L151.402 78.75V69.7852L152.317 79.1962Z" fill="white"/>
<path d="M101.448 78.75L106.523 73.3053L102.368 79.1962L109.007 80.4988H102.683L106.523 87.6878L102.368 81.7924L101.448 91.2079V82.2431L98.3967 85.5153C98.3563 85.3384 98.3168 85.1613 98.2796 84.9835L100.533 81.7924L97.7477 81.247C97.729 80.9967 97.7148 80.7458 97.7026 80.4943H100.222L97.8288 76.0231C97.8487 75.836 97.8775 75.6503 97.901 75.4642L100.533 79.1962L101.448 69.7852V78.75Z" fill="white"/>
<path d="M151.402 78.7455L154.917 74.9684C154.939 75.121 154.952 75.2749 154.972 75.4282L152.317 79.1962L155.192 79.7596C155.187 80.0051 155.182 80.2498 155.17 80.4943H152.628L154.715 84.3975C154.676 84.6031 154.627 84.8062 154.584 85.0105L152.312 81.7834L151.402 91.2079V82.2386L146.327 87.6878L150.482 81.7924L143.843 80.4988H150.167L146.327 73.3053L150.482 79.1962L151.402 69.7852V78.7455Z" fill="white" fill-opacity="0.5"/>
<path d="M102.368 79.1962L106.523 73.3053L102.683 80.4988H109.007L102.368 81.7924L106.523 87.6878L101.448 82.2386V91.2079L100.538 81.7834L98.2796 84.9835C98.2369 84.7791 98.1873 84.576 98.1489 84.3705L100.222 80.4943H97.7027C97.6909 80.2484 97.6856 80.002 97.6802 79.7551L100.533 79.1962L97.901 75.4642C97.9205 75.3094 97.9332 75.154 97.9551 75L101.448 78.7455V69.7852L102.368 79.1962Z" fill="white" fill-opacity="0.5"/>
<path d="M54.3457 49.0588L56.432 64.1796H54.3457V49.0588Z" fill="white"/>
<path d="M54.3457 79.2998L52.2594 64.1791L54.3457 64.1791L54.3457 79.2998Z" fill="white"/>
<path d="M54.3457 49.0588L52.2594 64.1796H54.3457V49.0588Z" fill="white" fill-opacity="0.5"/>
<path d="M54.3457 79.2998L56.432 64.1791L54.3457 64.1791L54.3457 79.2998Z" fill="white" fill-opacity="0.5"/>
<path d="M75.5747 64.1792L54.3455 66.2655L54.3455 64.1792L75.5747 64.1792Z" fill="white"/>
<path d="M33.1167 64.1792L54.3459 62.0929L54.3459 64.1792L33.1167 64.1792Z" fill="white"/>
<path d="M75.5747 64.1792L54.3455 62.0929L54.3455 64.1792L75.5747 64.1792Z" fill="white" fill-opacity="0.5"/>
<path d="M33.1167 64.1792L54.3459 66.2655L54.3459 64.1792L33.1167 64.1792Z" fill="white" fill-opacity="0.5"/>
<path d="M62.4609 56.064L55.4651 65.2994L54.3453 64.1796L62.4609 56.064Z" fill="white"/>
<path d="M46.2305 72.2959L53.2263 63.0605L54.3461 64.1803L46.2305 72.2959Z" fill="white"/>
<path d="M62.4609 56.064L53.2255 63.0598L54.3453 64.1796L62.4609 56.064Z" fill="white" fill-opacity="0.5"/>
<path d="M46.2305 72.2959L55.4659 65.3L54.3461 64.1803L46.2305 72.2959Z" fill="white" fill-opacity="0.5"/>
<path d="M62.4609 72.2959L53.2255 65.3L54.3453 64.1803L62.4609 72.2959Z" fill="white"/>
<path d="M46.2305 56.064L55.4659 63.0598L54.3461 64.1796L46.2305 56.064Z" fill="white"/>
<path d="M62.4609 72.2959L55.4651 63.0605L54.3453 64.1803L62.4609 72.2959Z" fill="white" fill-opacity="0.5"/>
<path d="M46.2305 56.064L53.2263 65.2994L54.3461 64.1796L46.2305 56.064Z" fill="white" fill-opacity="0.5"/>
<path d="M46.2256 21.5212C46.2256 17.5437 61.688 17.5437 61.688 21.5212C61.688 21.5212 61.6241 27.15 62.4425 29.2188C62.8413 30.227 60.4766 32.4927 58.0028 30.0189C56.7976 32.8733 51.8501 33.0636 50.6449 30.0189C47.854 32.3659 45.1057 30.7611 45.5702 29.2188C46.0347 27.6764 46.2256 21.5212 46.2256 21.5212Z" fill="url(#paint17_linear_10157_37193)"/>
<path d="M46.2256 21.5212C46.2256 17.5437 61.688 17.5437 61.688 21.5212C61.688 21.5212 61.6241 27.15 62.4425 29.2188C62.8413 30.227 60.4766 32.4927 58.0028 30.0189C56.7976 32.8733 51.8501 33.0636 50.6449 30.0189C47.854 32.3659 45.1057 30.7611 45.5702 29.2188C46.0347 27.6764 46.2256 21.5212 46.2256 21.5212Z" fill="url(#paint18_radial_10157_37193)"/>
<path d="M46.2256 21.5212C46.2256 17.5437 61.688 17.5437 61.688 21.5212C61.688 21.5212 61.6241 27.15 62.4425 29.2188C62.8413 30.227 60.4766 32.4927 58.0028 30.0189C56.7976 32.8733 51.8501 33.0636 50.6449 30.0189C47.854 32.3659 45.1057 30.7611 45.5702 29.2188C46.0347 27.6764 46.2256 21.5212 46.2256 21.5212Z" fill="url(#paint19_radial_10157_37193)"/>
<path d="M119.999 39.1671C119.999 36.9232 132.802 36.9232 132.802 39.1671C132.802 39.1671 132.749 43.8274 133.426 45.5403C133.756 46.375 131.799 48.2509 129.75 46.2028C128.753 48.566 124.656 48.7236 123.658 46.2028C121.348 48.1459 119.072 46.8172 119.457 45.5403C119.841 44.2633 119.999 39.1671 119.999 39.1671Z" fill="url(#paint20_linear_10157_37193)"/>
<path d="M119.999 39.1671C119.999 36.9232 132.802 36.9232 132.802 39.1671C132.802 39.1671 132.749 43.8274 133.426 45.5403C133.756 46.375 131.799 48.2509 129.75 46.2028C128.753 48.566 124.656 48.7236 123.658 46.2028C121.348 48.1459 119.072 46.8172 119.457 45.5403C119.841 44.2633 119.999 39.1671 119.999 39.1671Z" fill="url(#paint21_radial_10157_37193)"/>
<path d="M119.999 39.1671C119.999 36.9232 132.802 36.9232 132.802 39.1671C132.802 39.1671 132.749 43.8274 133.426 45.5403C133.756 46.375 131.799 48.2509 129.75 46.2028C128.753 48.566 124.656 48.7236 123.658 46.2028C121.348 48.1459 119.072 46.8172 119.457 45.5403C119.841 44.2633 119.999 39.1671 119.999 39.1671Z" fill="url(#paint22_radial_10157_37193)"/>
<path d="M180.651 15.9487C180.651 12.7697 193.009 12.7697 193.009 15.9487C193.009 15.9487 192.958 20.4474 193.612 22.1008C193.93 22.9066 192.04 24.7175 190.063 22.7403C189.1 25.0216 185.146 25.1737 184.183 22.7403C181.952 24.6161 179.755 23.3335 180.127 22.1008C180.498 20.8681 180.651 15.9487 180.651 15.9487Z" fill="url(#paint23_linear_10157_37193)"/>
<path d="M180.651 15.9487C180.651 12.7697 193.009 12.7697 193.009 15.9487C193.009 15.9487 192.958 20.4474 193.612 22.1008C193.93 22.9066 192.04 24.7175 190.063 22.7403C189.1 25.0216 185.146 25.1737 184.183 22.7403C181.952 24.6161 179.755 23.3335 180.127 22.1008C180.498 20.8681 180.651 15.9487 180.651 15.9487Z" fill="url(#paint24_radial_10157_37193)"/>
<path d="M180.651 15.9487C180.651 12.7697 193.009 12.7697 193.009 15.9487C193.009 15.9487 192.958 20.4474 193.612 22.1008C193.93 22.9066 192.04 24.7175 190.063 22.7403C189.1 25.0216 185.146 25.1737 184.183 22.7403C181.952 24.6161 179.755 23.3335 180.127 22.1008C180.498 20.8681 180.651 15.9487 180.651 15.9487Z" fill="url(#paint25_radial_10157_37193)"/>
<path d="M132.395 30.9195C132.395 31.7943 132.037 32.5917 131.638 33.2767C131.436 33.6231 131.209 33.9628 130.993 34.2819C130.773 34.6073 130.564 34.9089 130.376 35.2103C129.991 35.8255 129.759 36.3312 129.722 36.7834C129.691 37.179 129.805 37.6183 130.331 38.1445L129.826 38.6538L129.317 39.1632C128.534 38.3813 128.223 37.5382 128.293 36.6662C128.359 35.8508 128.758 35.0973 129.163 34.4486C129.37 34.1191 129.597 33.7865 129.808 33.4751C130.023 33.157 130.227 32.8525 130.403 32.5511C130.759 31.9397 130.961 31.4119 130.962 30.9195C130.962 29.7277 130.535 28.7219 129.79 28.0123C129.044 27.3023 127.924 26.8364 126.441 26.8359C124.957 26.8359 123.834 27.3019 123.088 28.0123C122.343 28.7219 121.916 29.7277 121.916 30.9195C121.916 31.4117 122.123 31.9522 122.488 32.5871C122.668 32.8995 122.877 33.2163 123.097 33.5472C123.313 33.8723 123.544 34.2181 123.755 34.5613C124.169 35.2363 124.57 36.0123 124.643 36.8419C124.72 37.728 124.418 38.5861 123.628 39.375L123.124 38.8657L122.614 38.3564C123.134 37.8368 123.251 37.3895 123.214 36.9681C123.172 36.4899 122.928 35.952 122.533 35.3095C122.34 34.9945 122.126 34.6779 121.902 34.3404C121.682 34.0089 121.454 33.6596 121.249 33.3038C120.845 32.6027 120.483 31.7946 120.482 30.9195C120.482 29.3741 121.04 27.9772 122.096 26.9712C123.151 25.9665 124.651 25.4026 126.441 25.4026C128.23 25.4031 129.727 25.9669 130.781 26.9712C131.838 27.9772 132.395 29.3741 132.395 30.9195Z" fill="#C39D32"/>
<path d="M192.729 8.04751C192.729 8.87322 192.365 9.61774 191.971 10.247C191.771 10.5671 191.549 10.8819 191.336 11.1755C191.118 11.4748 190.913 11.7513 190.727 12.0274C190.347 12.594 190.126 13.0474 190.092 13.4426C190.063 13.7752 190.158 14.1626 190.678 14.6461L189.736 15.6602C188.964 14.942 188.641 14.1571 188.713 13.3255C188.779 12.5559 189.178 11.8514 189.578 11.2566C189.782 10.9529 190.005 10.6458 190.213 10.3597C190.426 10.0673 190.627 9.78815 190.799 9.51236C191.151 8.95053 191.34 8.47787 191.34 8.04751C191.34 6.97834 190.932 6.06907 190.2 5.41981C189.462 4.76609 188.345 4.33357 186.865 4.33357C185.384 4.33377 184.267 4.76567 183.529 5.41981C182.797 6.06906 182.389 6.97834 182.389 8.04751C182.389 8.47814 182.586 8.96376 182.948 9.54841C183.124 9.83391 183.326 10.1235 183.543 10.4273C183.756 10.7257 183.984 11.0442 184.192 11.3603C184.6 11.9789 185.006 12.7019 185.08 13.4832C185.159 14.3276 184.845 15.1286 184.066 15.854L183.597 15.3492L183.124 14.8444C183.635 14.3683 183.734 13.97 183.701 13.6139C183.661 13.1941 183.427 12.713 183.038 12.122C182.848 11.8331 182.638 11.5404 182.416 11.2296C182.199 10.9251 181.97 10.6022 181.767 10.2741C181.369 9.63048 181.005 8.87307 181.005 8.04751C181.006 6.60384 181.566 5.30915 182.61 4.38315C183.649 3.46171 185.116 2.95006 186.865 2.94986C188.613 2.94986 190.08 3.46217 191.119 4.38315C192.163 5.30915 192.728 6.60384 192.729 8.04751Z" fill="#C39D32"/>
<path d="M60.6357 12.2517C60.6355 13.1833 60.2377 14.0322 59.7884 14.7667C59.5605 15.1392 59.3034 15.5032 59.0582 15.8485C58.8094 16.1988 58.5741 16.5269 58.3596 16.8536C57.9214 17.5213 57.6493 18.0785 57.6069 18.5798C57.5696 19.0216 57.7023 19.5158 58.319 20.1033L57.3635 21.1039C56.497 20.278 56.1495 19.39 56.2277 18.4626C56.3012 17.5951 56.7437 16.7936 57.2012 16.0964C57.4342 15.7415 57.6915 15.3839 57.9314 15.0462C58.1755 14.7025 58.4068 14.3736 58.6075 14.0456C59.0152 13.3791 59.2473 12.7972 59.2475 12.2517C59.2475 10.956 58.7652 9.85136 57.8999 9.06511C57.0299 8.27527 55.7222 7.75807 54.0056 7.75802C52.2889 7.75802 50.9814 8.27523 50.1114 9.06511C49.2459 9.85138 48.7592 10.9558 48.7592 12.2517C48.7595 12.7969 49.0042 13.3902 49.4218 14.0816C49.6271 14.4215 49.8621 14.7651 50.1114 15.1228C50.3563 15.4743 50.6176 15.8447 50.8551 16.2135C51.3223 16.9392 51.7696 17.7688 51.8512 18.6519C51.9382 19.5955 51.599 20.5006 50.7244 21.3337L50.2511 20.8334L49.7734 20.3331C50.3823 19.7529 50.5153 19.2467 50.472 18.7782C50.4229 18.2496 50.1402 17.6622 49.6922 16.9663C49.4722 16.6245 49.2291 16.2799 48.9756 15.9161C48.7259 15.5578 48.4673 15.1806 48.2364 14.7983C47.7819 14.0459 47.3757 13.1839 47.3755 12.2517C47.3755 10.5925 48.0043 9.10385 49.1784 8.03747C50.349 6.9746 52.0122 6.3743 54.0056 6.3743C55.9982 6.37436 57.6579 6.97545 58.8284 8.03747C60.0029 9.1039 60.6357 10.5921 60.6357 12.2517Z" fill="#C39D32"/>
<defs>
<radialGradient id="paint0_radial_10157_37193" cx="0" cy="0" r="1" gradientUnits="userSpaceOnUse" gradientTransform="translate(121.027 70.9272) rotate(81.7656) scale(37.7791 37.7791)">
<stop stop-color="#6FE39C"/>
<stop offset="0.600956" stop-color="#59CE86"/>
<stop offset="1" stop-color="#337C4F"/>
</radialGradient>
<radialGradient id="paint1_radial_10157_37193" cx="0" cy="0" r="1" gradientUnits="userSpaceOnUse" gradientTransform="translate(124.47 75.3175) rotate(83.9479) scale(34.1994)">
<stop offset="0.913462" stop-color="#C1F37F" stop-opacity="0"/>
<stop offset="1" stop-color="#C1F37F"/>
</radialGradient>
<radialGradient id="paint2_radial_10157_37193" cx="0" cy="0" r="1" gradientUnits="userSpaceOnUse" gradientTransform="translate(175.379 50.0279) rotate(79.6485) scale(64.2458 31.4703)">
<stop offset="0.574534" stop-color="#EAB308"/>
<stop offset="0.959113" stop-color="#7D5F02"/>
</radialGradient>
<radialGradient id="paint3_radial_10157_37193" cx="0" cy="0" r="1" gradientUnits="userSpaceOnUse" gradientTransform="translate(181.381 55.0922) rotate(89.3267) scale(29.0716 16.5784)">
<stop stop-color="#FFF1D1"/>
<stop offset="0.529337" stop-color="#FDDC91" stop-opacity="0.798612"/>
<stop offset="1" stop-color="#FDDC91" stop-opacity="0"/>
</radialGradient>
<radialGradient id="paint4_radial_10157_37193" cx="0" cy="0" r="1" gradientUnits="userSpaceOnUse" gradientTransform="translate(191.684 19.9503) rotate(101.31) scale(12.6976 13.1581)">
<stop offset="0.318681" stop-color="#5F4800"/>
<stop offset="1" stop-color="#5F4800" stop-opacity="0"/>
</radialGradient>
<radialGradient id="paint5_radial_10157_37193" cx="0" cy="0" r="1" gradientUnits="userSpaceOnUse" gradientTransform="translate(212.019 88.8468) rotate(124.077) scale(47.3639 16.9471)">
<stop offset="0.683115" stop-color="#FFDFAC"/>
<stop offset="0.838919" stop-color="#B68A0F" stop-opacity="0"/>
</radialGradient>
<radialGradient id="paint6_radial_10157_37193" cx="0" cy="0" r="1" gradientUnits="userSpaceOnUse" gradientTransform="translate(43.5548 50.4511) rotate(79.8174) scale(58.7916)">
<stop stop-color="#F83F54"/>
<stop offset="0.585713" stop-color="#E1394D"/>
<stop offset="1" stop-color="#922532"/>
</radialGradient>
<radialGradient id="paint7_radial_10157_37193" cx="0" cy="0" r="1" gradientUnits="userSpaceOnUse" gradientTransform="translate(42.2937 55.8487) scale(40.0033 29.5262)">
<stop stop-color="#FAAFB2"/>
<stop offset="1" stop-color="#FAAFB2" stop-opacity="0"/>
</radialGradient>
<radialGradient id="paint8_radial_10157_37193" cx="0" cy="0" r="1" gradientUnits="userSpaceOnUse" gradientTransform="translate(53.9483 64.2399) scale(34.5608 24.2939)">
<stop offset="0.719331" stop-color="#FFB7BA"/>
<stop offset="0.884615" stop-color="#FFD0D2" stop-opacity="0"/>
</radialGradient>
<radialGradient id="paint9_radial_10157_37193" cx="0" cy="0" r="1" gradientUnits="userSpaceOnUse" gradientTransform="translate(55.9772 25.7686) rotate(100.231) scale(11.423 17.3315)">
<stop offset="0.396754" stop-color="#731520"/>
<stop offset="1" stop-color="#BD3847" stop-opacity="0"/>
</radialGradient>
<radialGradient id="paint10_radial_10157_37193" cx="0" cy="0" r="1" gradientUnits="userSpaceOnUse" gradientTransform="translate(92.1574 90.2879) rotate(147.398) scale(54.609 22.5878)">
<stop offset="0.683115" stop-color="#FFDFAC"/>
<stop offset="0.838919" stop-color="#DD7C70" stop-opacity="0"/>
</radialGradient>
<radialGradient id="paint11_radial_10157_37193" cx="0" cy="0" r="1" gradientUnits="userSpaceOnUse" gradientTransform="translate(61.442 64.1788) rotate(90) scale(21.2088 27.0636)">
<stop offset="0.372786" stop-color="#FFCE37"/>
<stop offset="1" stop-color="#AF8400"/>
</radialGradient>
<radialGradient id="paint12_radial_10157_37193" cx="0" cy="0" r="1" gradientUnits="userSpaceOnUse" gradientTransform="translate(54.3455 64.1788) rotate(90) scale(19.3502 27.9359)">
<stop offset="0.621343" stop-color="#B58800" stop-opacity="0"/>
<stop offset="0.922769" stop-color="#916D00"/>
</radialGradient>
<radialGradient id="paint13_radial_10157_37193" cx="0" cy="0" r="1" gradientTransform="matrix(6.85968 25.598 -25.6007 6.85895 121.222 77.0754)" gradientUnits="userSpaceOnUse">
<stop stop-color="#097241"/>
<stop offset="0.600956" stop-color="#097241"/>
<stop offset="1" stop-color="#000C07"/>
</radialGradient>
<radialGradient id="paint14_radial_10157_37193" cx="0" cy="0" r="1" gradientUnits="userSpaceOnUse" gradientTransform="translate(123.316 75.1445) rotate(76.6632) scale(34.389)">
<stop offset="0.913462" stop-color="#C1F37F" stop-opacity="0"/>
<stop offset="1" stop-color="#C1F37F"/>
</radialGradient>
<radialGradient id="paint15_radial_10157_37193" cx="0" cy="0" r="1" gradientUnits="userSpaceOnUse" gradientTransform="translate(186.445 52.2787) rotate(140.511) scale(30.3797 11.9478)">
<stop offset="0.48197" stop-color="#7C0404" stop-opacity="0"/>
<stop offset="0.900188" stop-color="#7C0404"/>
</radialGradient>
<radialGradient id="paint16_radial_10157_37193" cx="0" cy="0" r="1" gradientTransform="matrix(-22.3202 20.6321 -7.36496 -9.70248 193.76 77.5999)" gradientUnits="userSpaceOnUse">
<stop offset="0.48197" stop-color="#7C0404" stop-opacity="0"/>
<stop offset="0.900188" stop-color="#7C0404"/>
</radialGradient>
<linearGradient id="paint17_linear_10157_37193" x1="51.892" y1="11.0925" x2="77.8976" y2="39.4904" gradientUnits="userSpaceOnUse">
<stop stop-color="#FFE070"/>
<stop offset="1" stop-color="#987806"/>
</linearGradient>
<radialGradient id="paint18_radial_10157_37193" cx="0" cy="0" r="1" gradientTransform="matrix(4.09188 14.6285 -15.1627 0.910235 47.7009 22.5866)" gradientUnits="userSpaceOnUse">
<stop stop-color="#986206" stop-opacity="0"/>
<stop offset="0.598425" stop-color="#986206" stop-opacity="0.280857"/>
<stop offset="0.897143" stop-color="#986206"/>
</radialGradient>
<radialGradient id="paint19_radial_10157_37193" cx="0" cy="0" r="1" gradientUnits="userSpaceOnUse" gradientTransform="translate(54.0026 20.1315) scale(8.48409 1.831)">
<stop stop-color="#FFDD94"/>
<stop offset="0.716186" stop-color="#FFDD94" stop-opacity="0.669654"/>
<stop offset="0.957336" stop-color="#FFDD94" stop-opacity="0"/>
</radialGradient>
<linearGradient id="paint20_linear_10157_37193" x1="124.691" y1="30.5328" x2="146.222" y2="54.0448" gradientUnits="userSpaceOnUse">
<stop stop-color="#FFE070"/>
<stop offset="1" stop-color="#987806"/>
</linearGradient>
<radialGradient id="paint21_radial_10157_37193" cx="0" cy="0" r="1" gradientTransform="matrix(3.38786 12.1116 -12.5539 0.753628 121.221 40.0494)" gradientUnits="userSpaceOnUse">
<stop stop-color="#986206" stop-opacity="0"/>
<stop offset="0.598425" stop-color="#986206" stop-opacity="0.280857"/>
<stop offset="0.897143" stop-color="#986206"/>
</radialGradient>
<radialGradient id="paint22_radial_10157_37193" cx="0" cy="0" r="1" gradientUnits="userSpaceOnUse" gradientTransform="translate(126.438 38.0166) scale(7.02439 2.5409)">
<stop stop-color="#FFDD94"/>
<stop offset="0.716186" stop-color="#FFDD94" stop-opacity="0.669654"/>
<stop offset="0.957336" stop-color="#FFDD94" stop-opacity="0"/>
</radialGradient>
<linearGradient id="paint23_linear_10157_37193" x1="185.179" y1="7.61367" x2="205.964" y2="30.3103" gradientUnits="userSpaceOnUse">
<stop stop-color="#FFE070"/>
<stop offset="1" stop-color="#987806"/>
</linearGradient>
<radialGradient id="paint24_radial_10157_37193" cx="0" cy="0" r="1" gradientTransform="matrix(3.27037 11.6916 -12.1185 0.72749 181.83 16.8002)" gradientUnits="userSpaceOnUse">
<stop stop-color="#986206" stop-opacity="0"/>
<stop offset="0.598425" stop-color="#986206" stop-opacity="0.280857"/>
<stop offset="0.897143" stop-color="#986206"/>
</radialGradient>
<radialGradient id="paint25_radial_10157_37193" cx="0" cy="0" r="1" gradientUnits="userSpaceOnUse" gradientTransform="translate(186.866 14.838) scale(6.78077 1.57872)">
<stop stop-color="#FFDD94"/>
<stop offset="0.716186" stop-color="#FFDD94" stop-opacity="0.669654"/>
<stop offset="0.957336" stop-color="#FFDD94" stop-opacity="0"/>
</radialGradient>
</defs>
</svg>
