<svg viewBox="0 0 240 120" fill="none" xmlns="http://www.w3.org/2000/svg">
<path fill-rule="evenodd" clip-rule="evenodd" d="M201.023 0L175.288 49.0557C165.472 68.7228 113.292 79.5092 97.3114 82.4368C73.8348 86.7376 76.7489 112.525 95.5086 109.296C122.851 104.591 155.744 95.0377 169.406 85.0153C180.037 77.2166 191.449 54.9028 195.332 47.3121C195.44 47.1007 195.542 46.9008 195.638 46.7129C197.118 43.824 208.542 21.1116 219.155 0H201.023Z" fill="url(#paint0_linear_616_35379)"/>
<path fill-rule="evenodd" clip-rule="evenodd" d="M201.023 0L175.288 49.0557C165.472 68.7228 113.292 79.5092 97.3114 82.4368C73.8348 86.7376 76.7489 112.525 95.5086 109.296C122.851 104.591 155.744 95.0377 169.406 85.0153C180.037 77.2166 191.449 54.9028 195.332 47.3121C195.44 47.1007 195.542 46.9008 195.638 46.7129C197.118 43.824 208.542 21.1116 219.155 0H201.023Z" fill="url(#paint1_radial_616_35379)"/>
<path fill-rule="evenodd" clip-rule="evenodd" d="M201.023 0L175.288 49.0557C165.472 68.7228 113.292 79.5092 97.3114 82.4368C73.8348 86.7376 76.7489 112.525 95.5086 109.296C122.851 104.591 155.744 95.0377 169.406 85.0153C180.037 77.2166 191.449 54.9028 195.332 47.3121C195.44 47.1007 195.542 46.9008 195.638 46.7129C197.118 43.824 208.542 21.1116 219.155 0H201.023Z" fill="url(#paint2_linear_616_35379)"/>
<path fill-rule="evenodd" clip-rule="evenodd" d="M201.023 0L175.288 49.0557C165.472 68.7228 113.292 79.5092 97.3114 82.4368C73.8348 86.7376 76.7489 112.525 95.5086 109.296C122.851 104.591 155.744 95.0377 169.406 85.0153C180.037 77.2166 191.449 54.9028 195.332 47.3121C195.44 47.1007 195.542 46.9008 195.638 46.7129C197.118 43.824 208.542 21.1116 219.155 0H201.023Z" fill="url(#paint3_radial_616_35379)"/>
<path d="M125.936 103.298L113.403 78.4361L125.781 75.0767L139.563 99.021L125.936 103.298Z" fill="url(#paint4_linear_616_35379)"/>
<path d="M125.936 103.298L113.403 78.4361L125.781 75.0767L139.563 99.021L125.936 103.298Z" fill="url(#paint5_radial_616_35379)"/>
<path d="M125.936 103.298L113.403 78.4361L125.781 75.0767L139.563 99.021L125.936 103.298Z" fill="url(#paint6_linear_616_35379)"/>
<path d="M130.074 102.286L128.143 73.7678L140.522 70.4083L143.701 98.0095L130.074 102.286Z" fill="url(#paint7_linear_616_35379)"/>
<path d="M130.074 102.286L128.143 73.7678L140.522 70.4083L143.701 98.0095L130.074 102.286Z" fill="url(#paint8_radial_616_35379)"/>
<path d="M130.074 102.286L128.143 73.7678L140.522 70.4083L143.701 98.0095L130.074 102.286Z" fill="url(#paint9_linear_616_35379)"/>
<path d="M147.168 96.2119L135.034 71.6438L147.413 68.2843L160.304 91.0246L147.168 96.2119Z" fill="url(#paint10_linear_616_35379)"/>
<path d="M147.168 96.2119L135.034 71.6438L147.413 68.2843L160.304 91.0246L147.168 96.2119Z" fill="url(#paint11_radial_616_35379)"/>
<path fill-rule="evenodd" clip-rule="evenodd" d="M201.023 0L191.751 17.6745L206.419 25.3259C210.305 17.6022 214.799 8.66621 219.155 0H201.023ZM185.923 28.783L182.293 35.7028L197.399 43.237C198.307 41.4372 199.504 39.0626 200.916 36.2606L185.923 28.783ZM179.436 41.1487L175.806 48.0686L190.964 55.6288C192.423 52.9511 193.662 50.5669 194.612 48.7177L179.436 41.1487Z" fill="url(#paint12_linear_616_35379)"/>
<path fill-rule="evenodd" clip-rule="evenodd" d="M201.023 0L191.751 17.6745L206.419 25.3259C210.305 17.6022 214.799 8.66621 219.155 0H201.023ZM185.923 28.783L182.293 35.7028L197.399 43.237C198.307 41.4372 199.504 39.0626 200.916 36.2606L185.923 28.783ZM179.436 41.1487L175.806 48.0686L190.964 55.6288C192.423 52.9511 193.662 50.5669 194.612 48.7177L179.436 41.1487Z" fill="url(#paint13_linear_616_35379)"/>
<path d="M98.8355 35.1312C95.9916 28.4765 77.8856 29.8342 58.3944 38.1637C38.9033 46.4933 25.4082 58.6404 28.2521 65.2951C30.9326 71.5676 34.2464 77.0353 37.7499 83.527C41.8726 91.1662 58.7855 90.6787 77.5393 82.6643C96.293 74.6499 108.222 61.9063 105.663 54.5042C103.669 48.7376 99.8481 37.5006 98.8355 35.1312Z" fill="#68689F"/>
<path d="M98.8355 35.1312C95.9916 28.4765 77.8856 29.8342 58.3944 38.1637C38.9033 46.4933 25.4082 58.6404 28.2521 65.2951C30.9326 71.5676 34.2464 77.0353 37.7499 83.527C41.8726 91.1662 58.7855 90.6787 77.5393 82.6643C96.293 74.6499 108.222 61.9063 105.663 54.5042C103.669 48.7376 99.8481 37.5006 98.8355 35.1312Z" fill="url(#paint14_radial_616_35379)"/>
<path d="M98.8355 35.1312C95.9916 28.4765 77.8856 29.8342 58.3944 38.1637C38.9033 46.4933 25.4082 58.6404 28.2521 65.2951C30.9326 71.5676 34.2464 77.0353 37.7499 83.527C41.8726 91.1662 58.7855 90.6787 77.5393 82.6643C96.293 74.6499 108.222 61.9063 105.663 54.5042C103.669 48.7376 99.8481 37.5006 98.8355 35.1312Z" fill="url(#paint15_linear_616_35379)"/>
<path d="M97.9152 33.7399C98.3013 40.6512 85.4777 51.6062 67.5407 59.2716C49.3102 67.0625 32.2744 68.6872 27.8728 63.3239C27.8545 65.0843 28.8713 66.6728 29.6195 68.2053C36.4415 72.567 52.0928 70.7831 69.3234 63.4196C86.0237 56.2827 97.8451 46.0046 100.015 38.465C99.4538 36.8856 99.1024 35.0025 97.9152 33.7399Z" fill="url(#paint16_radial_616_35379)"/>
<path d="M96.162 34.5308C98.6583 40.3722 85.8438 51.4486 67.54 59.2708C49.2362 67.0929 32.3744 68.6986 29.8781 62.8573C27.3818 57.016 40.1963 45.9395 58.5001 38.1174C76.8039 30.2952 93.6657 28.6895 96.162 34.5308Z" fill="url(#paint17_radial_616_35379)"/>
<defs>
<linearGradient id="paint0_linear_616_35379" x1="121.924" y1="106.287" x2="187.862" y2="39.6911" gradientUnits="userSpaceOnUse">
<stop stop-color="#F1C38C"/>
<stop offset="1" stop-color="#F5CB7C"/>
</linearGradient>
<radialGradient id="paint1_radial_616_35379" cx="0" cy="0" r="1" gradientUnits="userSpaceOnUse" gradientTransform="translate(134.526 100.486) rotate(-16.403) scale(74.5684 4.49839)">
<stop offset="0.0353884" stop-color="#7C5724"/>
<stop offset="1" stop-color="#7C5724" stop-opacity="0"/>
</radialGradient>
<linearGradient id="paint2_linear_616_35379" x1="187.758" y1="24.5745" x2="202.67" y2="32.3697" gradientUnits="userSpaceOnUse">
<stop offset="0.77985" stop-color="#937338" stop-opacity="0"/>
<stop offset="0.944439" stop-color="#937338"/>
<stop offset="1" stop-color="#FFD27D"/>
</linearGradient>
<radialGradient id="paint3_radial_616_35379" cx="0" cy="0" r="1" gradientUnits="userSpaceOnUse" gradientTransform="translate(193.252 10.6995) rotate(112.964) scale(47.1168 6.92935)">
<stop offset="0.229339" stop-color="#FFD27D"/>
<stop offset="1" stop-color="#FFD27D" stop-opacity="0"/>
</radialGradient>
<linearGradient id="paint4_linear_616_35379" x1="136.461" y1="102.086" x2="116.477" y2="73.1649" gradientUnits="userSpaceOnUse">
<stop stop-color="#E1CEEA"/>
<stop offset="1" stop-color="#EDCFCC"/>
</linearGradient>
<radialGradient id="paint5_radial_616_35379" cx="0" cy="0" r="1" gradientUnits="userSpaceOnUse" gradientTransform="translate(118.796 90) rotate(-112.593) scale(18.7921 12.456)">
<stop stop-color="#FFF7E4"/>
<stop offset="0.331421" stop-color="#FFF7E4" stop-opacity="0.668579"/>
<stop offset="1" stop-color="#FFF7E4" stop-opacity="0"/>
</radialGradient>
<linearGradient id="paint6_linear_616_35379" x1="125.528" y1="91.3525" x2="131.658" y2="90.8402" gradientUnits="userSpaceOnUse">
<stop stop-color="#B3B2DB" stop-opacity="0"/>
<stop offset="0.92" stop-color="#66659A"/>
</linearGradient>
<linearGradient id="paint7_linear_616_35379" x1="146.35" y1="98.9426" x2="126.366" y2="70.0218" gradientUnits="userSpaceOnUse">
<stop stop-color="#E8D4F1"/>
<stop offset="1" stop-color="#EBCECC"/>
</linearGradient>
<radialGradient id="paint8_radial_616_35379" cx="0" cy="0" r="1" gradientUnits="userSpaceOnUse" gradientTransform="translate(127.78 92.4469) rotate(-82.531) scale(26.9362 13.1738)">
<stop stop-color="#FFF7E4"/>
<stop offset="0.331421" stop-color="#FFF7E4" stop-opacity="0.668579"/>
<stop offset="1" stop-color="#FFF7E4" stop-opacity="0"/>
</radialGradient>
<linearGradient id="paint9_linear_616_35379" x1="136.754" y1="84.3813" x2="141.752" y2="81.787" gradientUnits="userSpaceOnUse">
<stop stop-color="#B3B2DB" stop-opacity="0"/>
<stop offset="0.92" stop-color="#66659A"/>
</linearGradient>
<linearGradient id="paint10_linear_616_35379" x1="157.695" y1="94.9999" x2="137.711" y2="66.0791" gradientUnits="userSpaceOnUse">
<stop stop-color="#DDC6E8"/>
<stop offset="1" stop-color="#EACAC7"/>
</linearGradient>
<radialGradient id="paint11_radial_616_35379" cx="0" cy="0" r="1" gradientUnits="userSpaceOnUse" gradientTransform="translate(140.03 82.9142) rotate(-112.593) scale(18.7921 12.456)">
<stop stop-color="#FFF7E4"/>
<stop offset="0.331421" stop-color="#FFF7E4" stop-opacity="0.668579"/>
<stop offset="1" stop-color="#FFF7E4" stop-opacity="0"/>
</radialGradient>
<linearGradient id="paint12_linear_616_35379" x1="177.137" y1="32.8091" x2="202.301" y2="45.7057" gradientUnits="userSpaceOnUse">
<stop stop-color="#7CCAF7"/>
<stop offset="1" stop-color="#458EB8"/>
</linearGradient>
<linearGradient id="paint13_linear_616_35379" x1="206.941" y1="-12.5674" x2="221.844" y2="-4.90252" gradientUnits="userSpaceOnUse">
<stop stop-color="#76E6FF"/>
<stop offset="0.136677" stop-color="#76E6FF" stop-opacity="0"/>
<stop offset="0.77985" stop-color="#063A45" stop-opacity="0"/>
<stop offset="0.944439" stop-color="#063A45"/>
<stop offset="1" stop-color="#76E6FF"/>
</linearGradient>
<radialGradient id="paint14_radial_616_35379" cx="0" cy="0" r="1" gradientUnits="userSpaceOnUse" gradientTransform="translate(97.7904 71.3733) rotate(154.063) scale(49.6668 36.0373)">
<stop stop-color="#C7CEEA"/>
<stop offset="1" stop-color="#C7CEEA" stop-opacity="0"/>
</radialGradient>
<linearGradient id="paint15_linear_616_35379" x1="30.2885" y1="78.4615" x2="103.558" y2="42.6923" gradientUnits="userSpaceOnUse">
<stop stop-color="#E4ABFF"/>
<stop offset="0.0958794" stop-color="#E4ABFF" stop-opacity="0"/>
</linearGradient>
<radialGradient id="paint16_radial_616_35379" cx="0" cy="0" r="1" gradientUnits="userSpaceOnUse" gradientTransform="translate(85.2464 52.9978) rotate(146.853) scale(17.6348 12.3976)">
<stop stop-color="#E1E7EC"/>
<stop offset="1" stop-color="#E1E7EC" stop-opacity="0"/>
</radialGradient>
<radialGradient id="paint17_radial_616_35379" cx="0" cy="0" r="1" gradientUnits="userSpaceOnUse" gradientTransform="translate(63.0206 48.6948) rotate(66.8605) scale(17.2627 40.9469)">
<stop offset="0.208333" stop-color="#BCC2E1"/>
<stop offset="1" stop-color="#7171A7"/>
</radialGradient>
</defs>
</svg>
