<svg viewBox="0 0 240 120" fill="none" xmlns="http://www.w3.org/2000/svg">
<path d="M21.8286 41.1146C-1.3087 50.3175 2.37049 93.7028 23.8885 95.9798L222.401 95.98C238.694 95.98 245.268 64.9361 222.401 63.3267C232.691 48.52 203.71 24.5222 183.13 30.9597C182.844 20.9812 157.405 6.49666 138.826 19.6939C133.967 3.9217 83.4665 -4.23786 75.995 16.6611C57.507 9.80811 26.1161 11.5014 21.8286 41.1146Z" fill="url(#paint0_radial_9360_31153)"/>
<path d="M21.8286 41.1146C-1.3087 50.3175 2.37049 93.7028 23.8885 95.9798L222.401 95.98C238.694 95.98 245.268 64.9361 222.401 63.3267C232.691 48.52 203.71 24.5222 183.13 30.9597C182.844 20.9812 157.405 6.49666 138.826 19.6939C133.967 3.9217 83.4665 -4.23786 75.995 16.6611C57.507 9.80811 26.1161 11.5014 21.8286 41.1146Z" fill="url(#paint1_radial_9360_31153)"/>
<path d="M30.7615 44.5858H94.1034C92.6701 40.3882 87.651 35.9222 83.664 40.0699C83.664 33.2885 74.5224 31.3027 70.5442 35.9803C67.6184 26.4239 49.2422 28.6965 49.2422 38.8018C43.9559 32.2754 32.8223 38.2839 30.7615 44.5858Z" fill="url(#paint2_radial_9360_31153)"/>
<path d="M143.776 47.3853C138.379 40.6172 127.348 45.1664 128.451 53.0253H193.22C190.212 46.7085 183.882 44.9413 181.188 46.2573C179.036 30.0385 143.776 27.2372 143.776 47.3853Z" fill="url(#paint3_radial_9360_31153)"/>
<path d="M169.672 21.5354H209.221L202.972 23.8491L168.016 25.1233L164.267 23.7909L169.672 21.5354Z" fill="#303030"/>
<path d="M165.756 24.3144L170.008 22.5862V35.5561L165.756 35.8723V24.3144Z" fill="url(#paint4_linear_9360_31153)"/>
<path d="M173.313 12.547L201.184 12.547L194.874 16.1348L172.934 15.6272L169.136 14.7373L173.313 12.547Z" fill="#303030"/>
<path d="M173.602 11.4066H201.145V12.5474H173.602V11.4066Z" fill="#666666"/>
<path d="M168.989 14.0387L173.602 11.4049V12.5472L168.989 14.8803V14.0387Z" fill="#8A8A8A"/>
<path d="M174.661 14.1245H197.186V21.3259H174.661V14.1245Z" fill="url(#paint5_linear_9360_31153)"/>
<path d="M172.3 15.351L174.661 14.1245V21.3259H172.3V15.351Z" fill="url(#paint6_linear_9360_31153)"/>
<path d="M170.011 22.5558H204.402V35.5561H170.011V22.5558Z" fill="url(#paint7_linear_9360_31153)"/>
<path d="M170.011 22.5558H204.402V35.5561H170.011V22.5558Z" fill="url(#paint8_linear_9360_31153)"/>
<path d="M170.009 20.3951H209.182V21.5359H170.009V20.3951Z" fill="#666666"/>
<path d="M164.235 23.0272L170.009 20.3934V21.5358L164.235 23.8688V23.0272Z" fill="#8A8A8A"/>
<path d="M169.327 32.2852H209.718L203.336 34.6481L167.635 35.9494L162.271 34.6481L169.327 32.2852Z" fill="#303030"/>
<path d="M165.327 34.7722L169.669 33.3584V46.6044L165.327 46.9274V34.7722Z" fill="url(#paint9_linear_9360_31153)"/>
<path d="M169.669 33.3274H204.792V46.6045H169.669V33.3274Z" fill="url(#paint10_linear_9360_31153)"/>
<path d="M169.669 33.3274H204.792V46.6045H169.669V33.3274Z" fill="url(#paint11_linear_9360_31153)"/>
<path d="M169.67 31.1206H209.676V32.2856H169.67V31.1206Z" fill="#666666"/>
<path d="M162.321 33.8087L169.671 31.1189V32.2856L162.321 34.6682V33.8087Z" fill="#8A8A8A"/>
<path d="M169.668 45.1674H212.011L205.321 47.5303L167.895 48.8316L162.271 47.5303L169.668 45.1674Z" fill="#303030"/>
<path d="M165.327 47.6538L169.669 46.24V59.486L165.327 59.809V47.6538Z" fill="url(#paint12_linear_9360_31153)"/>
<path d="M169.669 46.2091H205.324V59.4862H169.669V46.2091Z" fill="url(#paint13_linear_9360_31153)"/>
<path d="M169.669 46.2091H205.324V59.4862H169.669V46.2091Z" fill="url(#paint14_linear_9360_31153)"/>
<path d="M169.67 44.0028H211.968V45.1678H169.67V44.0028Z" fill="#666666"/>
<path d="M162.321 46.691L169.671 44.0011V45.1678L162.321 47.5504V46.691Z" fill="#8A8A8A"/>
<path d="M168.529 57.5994H212.79L205.797 60.0335L166.676 61.374L160.797 60.0335L168.529 57.5994Z" fill="#303030"/>
<path d="M163.992 59.8279L168.531 58.7042V72.3493H163.992V59.8279Z" fill="url(#paint15_linear_9360_31153)"/>
<path d="M168.531 58.6726H206.158V72.3496H168.531V58.6726Z" fill="url(#paint16_linear_9360_31153)"/>
<path d="M168.531 58.6726H206.158V72.3496H168.531V58.6726Z" fill="url(#paint17_linear_9360_31153)"/>
<path d="M168.531 56.3993H212.744V57.5994H168.531V56.3993Z" fill="#666666"/>
<path d="M160.847 59.1685L168.53 56.3976V57.5994L160.847 60.0539V59.1685Z" fill="#8A8A8A"/>
<path d="M91.8142 77.6938C100.308 71.1603 122.575 72.2493 132.647 73.6105L175.727 119.549H56.2881C64.591 108.319 83.3203 84.2272 91.8142 77.6938Z" fill="url(#paint18_linear_9360_31153)"/>
<path d="M59.6374 64.7916C53.9474 66.3003 55.9251 74.8906 62.4235 76.1676L65.9087 75.471C68.4624 71.7565 65.3273 63.2829 59.6374 64.7916Z" fill="url(#paint19_linear_9360_31153)"/>
<path d="M59.6374 64.7916C53.9474 66.3003 55.9251 74.8906 62.4235 76.1676L65.9087 75.471C68.4624 71.7565 65.3273 63.2829 59.6374 64.7916Z" fill="url(#paint20_radial_9360_31153)"/>
<path d="M59.6374 64.7916C53.9474 66.3003 55.9251 74.8906 62.4235 76.1676L65.9087 75.471C68.4624 71.7565 65.3273 63.2829 59.6374 64.7916Z" fill="url(#paint21_radial_9360_31153)"/>
<path d="M68.7151 69.9556C68.1346 71.2324 67.322 73.8091 68.7151 73.9019L88.3319 72.0451C91.1564 71.7742 96.9215 70.1414 97.3859 65.7769C97.8502 61.4124 93.1684 60.0888 90.7695 59.9725C101.448 53.6496 82.9803 48.063 82.528 59.9725C81.4058 58.038 77.6757 54.6332 71.7326 56.4904C64.3036 58.812 65.0004 68.7946 68.7151 69.9556Z" fill="url(#paint22_linear_9360_31153)"/>
<path d="M68.7151 69.9556C68.1346 71.2324 67.322 73.8091 68.7151 73.9019L88.3319 72.0451C91.1564 71.7742 96.9215 70.1414 97.3859 65.7769C97.8502 61.4124 93.1684 60.0888 90.7695 59.9725C101.448 53.6496 82.9803 48.063 82.528 59.9725C81.4058 58.038 77.6757 54.6332 71.7326 56.4904C64.3036 58.812 65.0004 68.7946 68.7151 69.9556Z" fill="url(#paint23_radial_9360_31153)"/>
<path d="M68.7151 69.9556C68.1346 71.2324 67.322 73.8091 68.7151 73.9019L88.3319 72.0451C91.1564 71.7742 96.9215 70.1414 97.3859 65.7769C97.8502 61.4124 93.1684 60.0888 90.7695 59.9725C101.448 53.6496 82.9803 48.063 82.528 59.9725C81.4058 58.038 77.6757 54.6332 71.7326 56.4904C64.3036 58.812 65.0004 68.7946 68.7151 69.9556Z" fill="url(#paint24_radial_9360_31153)"/>
<path d="M96.5601 57.7331C92.676 58.583 89.1525 66.5965 95.7088 69.146H110.521C116.106 63.3177 106.879 57.7331 103.6 62.3469C103.357 60.2828 100.444 56.8832 96.5601 57.7331Z" fill="url(#paint25_linear_9360_31153)"/>
<path d="M96.5601 57.7331C92.676 58.583 89.1525 66.5965 95.7088 69.146H110.521C116.106 63.3177 106.879 57.7331 103.6 62.3469C103.357 60.2828 100.444 56.8832 96.5601 57.7331Z" fill="url(#paint26_radial_9360_31153)"/>
<path d="M96.5601 57.7331C92.676 58.583 89.1525 66.5965 95.7088 69.146H110.521C116.106 63.3177 106.879 57.7331 103.6 62.3469C103.357 60.2828 100.444 56.8832 96.5601 57.7331Z" fill="url(#paint27_radial_9360_31153)"/>
<path d="M124.596 61.1807C121.935 62.5113 122.735 68.3652 127.257 68.2766H144.733C146.684 64.4628 143.048 60.737 139.766 61.9788C141.096 61.4466 141.007 59.0515 138.435 59.495C138.553 57.5733 137.832 53.9426 134 54.7941C130.168 55.6456 130.097 61.0031 130.541 63.5754C129.565 61.5353 127.257 59.85 124.596 61.1807Z" fill="url(#paint28_linear_9360_31153)"/>
<path d="M124.596 61.1807C121.935 62.5113 122.735 68.3652 127.257 68.2766H144.733C146.684 64.4628 143.048 60.737 139.766 61.9788C141.096 61.4466 141.007 59.0515 138.435 59.495C138.553 57.5733 137.832 53.9426 134 54.7941C130.168 55.6456 130.097 61.0031 130.541 63.5754C129.565 61.5353 127.257 59.85 124.596 61.1807Z" fill="url(#paint29_radial_9360_31153)"/>
<path d="M124.596 61.1807C121.935 62.5113 122.735 68.3652 127.257 68.2766H144.733C146.684 64.4628 143.048 60.737 139.766 61.9788C141.096 61.4466 141.007 59.0515 138.435 59.495C138.553 57.5733 137.832 53.9426 134 54.7941C130.168 55.6456 130.097 61.0031 130.541 63.5754C129.565 61.5353 127.257 59.85 124.596 61.1807Z" fill="url(#paint30_radial_9360_31153)"/>
<path d="M153.158 63.3977C149.165 58.3417 139.943 63.8416 143.756 68.6312L151.83 69.3407L157.329 67.8328C160.345 64.9945 155.2 61.0917 153.158 63.3977Z" fill="url(#paint31_linear_9360_31153)"/>
<path d="M153.158 63.3977C149.165 58.3417 139.943 63.8416 143.756 68.6312L151.83 69.3407L157.329 67.8328C160.345 64.9945 155.2 61.0917 153.158 63.3977Z" fill="url(#paint32_radial_9360_31153)"/>
<path d="M153.158 63.3977C149.165 58.3417 139.943 63.8416 143.756 68.6312L151.83 69.3407L157.329 67.8328C160.345 64.9945 155.2 61.0917 153.158 63.3977Z" fill="url(#paint33_radial_9360_31153)"/>
<path d="M119.301 79.949L124.687 76.0344L240 111.508V119.581H183.69L119.301 79.949Z" fill="url(#paint34_linear_9360_31153)"/>
<path d="M116.61 81.4166L121.992 77.5021L226.535 119.582H170.267L116.61 81.4166Z" fill="url(#paint35_linear_9360_31153)"/>
<path d="M97.4777 74.3932C88.6701 76.8295 35.7129 105.392 10.3352 119.369H0.263428V94.3045C24.7035 85.481 77.8003 67.8341 94.6663 67.8341H143.625L138.237 72.7535C128.32 72.285 106.285 71.957 97.4777 74.3932Z" fill="url(#paint36_linear_9360_31153)"/>
<path d="M40.9771 93.4094C40.9771 96.2961 38.6367 98.6363 35.7498 98.6363C32.8629 98.6363 30.5226 96.2961 30.5226 93.4094C30.5226 90.5227 32.8629 88.1825 35.7498 88.1825C38.6367 88.1825 40.9771 90.5227 40.9771 93.4094Z" fill="url(#paint37_linear_9360_31153)"/>
<path d="M23.8655 106.207C23.8655 110.388 20.4759 113.777 16.2945 113.777C12.1132 113.777 8.72351 110.388 8.72351 106.207C8.72351 102.026 12.1132 98.6364 16.2945 98.6364C20.4759 98.6364 23.8655 102.026 23.8655 106.207Z" fill="url(#paint38_linear_9360_31153)"/>
<path d="M26.2919 94.2226C26.2919 97.5584 23.5875 100.263 20.2514 100.263C16.9154 100.263 14.2109 97.5584 14.2109 94.2226C14.2109 90.8867 16.9154 88.1825 20.2514 88.1825C23.5875 88.1825 26.2919 90.8867 26.2919 94.2226Z" fill="url(#paint39_linear_9360_31153)"/>
<path d="M49.2118 90.4567C49.2118 92.8226 47.2937 94.7405 44.9277 94.7405C42.5616 94.7405 40.6436 92.8226 40.6436 90.4567C40.6436 88.0908 42.5616 86.1729 44.9277 86.1729C47.2937 86.1729 49.2118 88.0908 49.2118 90.4567Z" fill="url(#paint40_linear_9360_31153)"/>
<path d="M72.9039 77.294C72.9039 78.9629 71.5509 80.3159 69.8818 80.3159C68.2128 80.3159 66.8597 78.9629 66.8597 77.294C66.8597 75.625 68.2128 74.2721 69.8818 74.2721C71.5509 74.2721 72.9039 75.625 72.9039 77.294Z" fill="url(#paint41_linear_9360_31153)"/>
<path d="M84.4112 73.5622C84.4112 74.9275 83.3042 76.0344 81.9388 76.0344C80.5733 76.0344 79.4664 74.9275 79.4664 73.5622C79.4664 72.1968 80.5733 71.09 81.9388 71.09C83.3042 71.09 84.4112 72.1968 84.4112 73.5622Z" fill="url(#paint42_linear_9360_31153)"/>
<path d="M101.466 69.9C101.466 70.6934 100.823 71.3365 100.029 71.3365C99.236 71.3365 98.5928 70.6934 98.5928 69.9C98.5928 69.1066 99.236 68.4634 100.029 68.4634C100.823 68.4634 101.466 69.1066 101.466 69.9Z" fill="url(#paint43_linear_9360_31153)"/>
<path d="M92.9532 71.9953C92.9532 73.0199 92.1225 73.8505 91.0979 73.8505C90.0732 73.8505 89.2426 73.0199 89.2426 71.9953C89.2426 70.9707 90.0732 70.1401 91.0979 70.1401C92.1225 70.1401 92.9532 70.9707 92.9532 71.9953Z" fill="url(#paint44_linear_9360_31153)"/>
<path d="M46.557 84.742C46.557 86.9642 44.7555 88.7656 42.5332 88.7656C40.3109 88.7656 38.5094 86.9642 38.5094 84.742C38.5094 82.5199 40.3109 80.7185 42.5332 80.7185C44.7555 80.7185 46.557 82.5199 46.557 84.742Z" fill="url(#paint45_linear_9360_31153)"/>
<path d="M35.2643 97.7431C35.2643 100.696 32.8705 103.09 29.9175 103.09C26.9646 103.09 24.5708 100.696 24.5708 97.7431C24.5708 94.7904 26.9646 92.3967 29.9175 92.3967C32.8705 92.3967 35.2643 94.7904 35.2643 97.7431Z" fill="url(#paint46_linear_9360_31153)"/>
<path d="M69.0435 80.7189C69.0435 82.5447 67.5633 84.0247 65.7374 84.0247C63.9116 84.0247 62.4314 82.5447 62.4314 80.7189C62.4314 78.8932 63.9116 77.4131 65.7374 77.4131C67.5633 77.4131 69.0435 78.8932 69.0435 80.7189Z" fill="url(#paint47_linear_9360_31153)"/>
<path d="M56.2876 86.7408C56.2876 89.1321 54.349 91.0706 51.9575 91.0706C49.5661 91.0706 47.6274 89.1321 47.6274 86.7408C47.6274 84.3495 49.5661 82.411 51.9575 82.411C54.349 82.411 56.2876 84.3495 56.2876 86.7408Z" fill="url(#paint48_linear_9360_31153)"/>
<path d="M80.8907 72.6133C80.8907 73.6593 80.0427 74.5073 78.9966 74.5073C77.9505 74.5073 77.1024 73.6593 77.1024 72.6133C77.1024 71.5672 77.9505 70.7192 78.9966 70.7192C80.0427 70.7192 80.8907 71.5672 80.8907 72.6133Z" fill="url(#paint49_linear_9360_31153)"/>
<path d="M98.5927 70.0978C98.5927 70.8308 97.9985 71.4251 97.2654 71.4251C96.5323 71.4251 95.938 70.8308 95.938 70.0978C95.938 69.3648 96.5323 68.7705 97.2654 68.7705C97.9985 68.7705 98.5927 69.3648 98.5927 70.0978Z" fill="url(#paint50_linear_9360_31153)"/>
<path d="M90.0561 70.6679C90.0561 71.4009 89.4618 71.9951 88.7287 71.9951C87.9957 71.9951 87.4014 71.4009 87.4014 70.6679C87.4014 69.9348 87.9957 69.3406 88.7287 69.3406C89.4618 69.3406 90.0561 69.9348 90.0561 70.6679Z" fill="url(#paint51_linear_9360_31153)"/>
<path d="M61.3721 80.7188C61.3721 82.6989 59.7669 84.304 57.7867 84.304C55.8064 84.304 54.2012 82.6989 54.2012 80.7188C54.2012 78.7387 55.8064 77.1335 57.7867 77.1335C59.7669 77.1335 61.3721 78.7387 61.3721 80.7188Z" fill="url(#paint52_linear_9360_31153)"/>
<path d="M86.261 74.5074C86.261 75.3344 85.5906 76.0049 84.7635 76.0049C83.9365 76.0049 83.266 75.3344 83.266 74.5074C83.266 73.6804 83.9365 73.01 84.7635 73.01C85.5906 73.01 86.261 73.6804 86.261 74.5074Z" fill="url(#paint53_linear_9360_31153)"/>
<path d="M94.4957 69.7012C94.4957 70.5282 93.8252 71.1986 92.9981 71.1986C92.1711 71.1986 91.5006 70.5282 91.5006 69.7012C91.5006 68.8742 92.1711 68.2037 92.9981 68.2037C93.8252 68.2037 94.4957 68.8742 94.4957 69.7012Z" fill="url(#paint54_linear_9360_31153)"/>
<path d="M75.688 75.256C75.688 76.4964 74.6823 77.502 73.4418 77.502C72.2013 77.502 71.1957 76.4964 71.1957 75.256C71.1957 74.0156 72.2013 73.01 73.4418 73.01C74.6823 73.01 75.688 74.0156 75.688 75.256Z" fill="url(#paint55_linear_9360_31153)"/>
<path d="M87.012 87.2884C96.5524 77.258 98.2661 74.0778 135.942 74.0778L139.61 70.1635C131.7 69.6742 111.917 69.5273 96.0641 72.8545C80.2113 76.1816 30.741 106.044 8.72351 119.581H59.6083C65.072 112.813 79.3796 95.3127 87.012 87.2884Z" fill="url(#paint56_linear_9360_31153)"/>
<path d="M153.322 119.549H146.867L142.658 114.492H148.359L153.322 119.549ZM145.79 111.874H140.481L136.163 106.686H140.701L145.79 111.874ZM138.763 104.707H134.517L131.033 100.524H134.657L138.763 104.707ZM132.972 98.8026H129.605L126.706 95.3231H129.555L132.972 98.8026ZM128.05 93.7861H125.426L123.443 91.4018H125.71L128.05 93.7861ZM124.453 90.1218H122.38L115.961 82.4099H116.89L124.453 90.1218Z" fill="#FFD638"/>
<path d="M147.325 66.9826C140.835 67.9611 128.397 74.2399 125.201 76.5233L240 115.422V68.45C210.338 68.0423 153.815 66.0041 147.325 66.9826Z" fill="url(#paint57_linear_9360_31153)"/>
<path d="M112.966 21.3079H121.735V90.6293H112.966V21.3079Z" fill="url(#paint58_linear_9360_31153)"/>
<path d="M110.94 21.3079H112.966V90.6293H110.94V21.3079Z" fill="#168734"/>
<path d="M110.94 21.3079H112.966V90.6293H110.94V21.3079Z" fill="url(#paint59_linear_9360_31153)"/>
<path d="M236.169 97.5572C236.169 103.689 231.197 108.66 225.065 108.66C218.933 108.66 213.962 103.689 213.962 97.5572C213.962 91.4253 218.933 86.4545 225.065 86.4545C231.197 86.4545 236.169 91.4253 236.169 97.5572Z" fill="url(#paint60_linear_9360_31153)"/>
<path d="M198.726 78.2762C198.726 82.793 195.064 86.4546 190.547 86.4546C186.03 86.4546 182.368 82.793 182.368 78.2762C182.368 73.7595 186.03 70.0979 190.547 70.0979C195.064 70.0979 198.726 73.7595 198.726 78.2762Z" fill="url(#paint61_linear_9360_31153)"/>
<path d="M217.567 85.7331C217.567 91.0005 213.297 95.2706 208.029 95.2706C202.761 95.2706 198.491 91.0005 198.491 85.7331C198.491 80.4657 202.761 76.1956 208.029 76.1956C213.297 76.1956 217.567 80.4657 217.567 85.7331Z" fill="url(#paint62_linear_9360_31153)"/>
<path d="M172.53 76.3884C172.53 80.0819 169.536 83.0761 165.842 83.0761C162.148 83.0761 159.154 80.0819 159.154 76.3884C159.154 72.6949 162.148 69.7007 165.842 69.7007C169.536 69.7007 172.53 72.6949 172.53 76.3884Z" fill="url(#paint63_linear_9360_31153)"/>
<path d="M150.214 77.9418C150.214 80.7775 147.915 83.0763 145.079 83.0763C142.243 83.0763 139.944 80.7775 139.944 77.9418C139.944 75.106 142.243 72.8073 145.079 72.8073C147.915 72.8073 150.214 75.106 150.214 77.9418Z" fill="url(#paint64_linear_9360_31153)"/>
<path d="M225.065 77.5549C225.065 82.4472 221.099 86.4132 216.206 86.4132C211.314 86.4132 207.347 82.4472 207.347 77.5549C207.347 72.6626 211.314 68.6967 216.206 68.6967C221.099 68.6967 225.065 72.6626 225.065 77.5549Z" fill="url(#paint65_linear_9360_31153)"/>
<path d="M185.19 72.5781C185.19 76.0734 182.356 78.9069 178.861 78.9069C175.365 78.9069 172.531 76.0734 172.531 72.5781C172.531 69.0828 175.365 66.2493 178.861 66.2493C182.356 66.2493 185.19 69.0828 185.19 72.5781Z" fill="url(#paint66_linear_9360_31153)"/>
<path d="M159.852 72.8074C159.852 76.3027 157.019 79.1362 153.523 79.1362C150.028 79.1362 147.194 76.3027 147.194 72.8074C147.194 69.312 150.028 66.4785 153.523 66.4785C157.019 66.4785 159.852 69.312 159.852 72.8074Z" fill="url(#paint67_linear_9360_31153)"/>
<path d="M143.775 75.5693C143.775 78.1386 141.692 80.2215 139.123 80.2215C136.553 80.2215 134.47 78.1386 134.47 75.5693C134.47 72.9999 136.553 70.917 139.123 70.917C141.692 70.917 143.775 72.9999 143.775 75.5693Z" fill="url(#paint68_linear_9360_31153)"/>
<path d="M238.605 80.8818C238.605 86.1046 234.371 90.3385 229.148 90.3385C223.924 90.3385 219.69 86.1046 219.69 80.8818C219.69 75.6591 223.924 71.4252 229.148 71.4252C234.371 71.4252 238.605 75.6591 238.605 80.8818Z" fill="url(#paint69_linear_9360_31153)"/>
<path d="M206.416 89.2197C206.416 93.8245 202.683 97.5574 198.078 97.5574C193.473 97.5574 189.74 93.8245 189.74 89.2197C189.74 84.6149 193.473 80.882 198.078 80.882C202.683 80.882 206.416 84.6149 206.416 89.2197Z" fill="url(#paint70_linear_9360_31153)"/>
<path d="M182.599 81.8984C182.599 85.9802 179.29 89.2892 175.208 89.2892C171.126 89.2892 167.817 85.9802 167.817 81.8984C167.817 77.8165 171.126 74.5076 175.208 74.5076C179.29 74.5076 182.599 77.8165 182.599 81.8984Z" fill="url(#paint71_linear_9360_31153)"/>
<path d="M162.169 78.327C162.169 81.6281 159.493 84.3042 156.191 84.3042C152.89 84.3042 150.214 81.6281 150.214 78.327C150.214 75.0258 152.89 72.3497 156.191 72.3497C159.493 72.3497 162.169 75.0258 162.169 78.327Z" fill="url(#paint72_linear_9360_31153)"/>
<path d="M147.94 72.0317C147.94 74.3316 146.075 76.196 143.775 76.196C141.475 76.196 139.611 74.3316 139.611 72.0317C139.611 69.7318 141.475 67.8673 143.775 67.8673C146.075 67.8673 147.94 69.7318 147.94 72.0317Z" fill="url(#paint73_linear_9360_31153)"/>
<path d="M116.245 23.9197H118.458V21.3055H119.333V23.9197L121.758 23.9242V24.7986H119.333V27.5841H121.758V28.463H119.333V31.2485H121.758V32.1274H119.333V34.9128H121.758V35.7917H119.333V38.5772H121.758V39.4561H119.333V42.2415H121.758V43.1159H119.333V45.9059H121.758V46.7803H119.333V49.5703H121.758V50.4447H119.333V53.2301L121.758 53.2346V54.109H119.333V56.8945H121.758V57.7734H119.333V60.5588H121.758V61.4378H119.333V64.2232H121.758V65.1021H119.333V67.8876H121.758V68.7665H119.333V71.5519H121.758V72.4263H119.333V75.2163H121.758V76.0907H119.333V78.8762H121.758V79.7551H119.333V82.5405H121.758V83.4194H119.333V86.2049H121.758V87.0838H119.333V90.631H118.458V87.0838H116.245V90.631H115.366V87.0838H112.941L112.946 86.2049H115.366V83.4194H112.941L112.946 82.5405H115.366V79.7551H112.941L112.946 78.8762H115.366V76.0907H112.941L112.946 75.2163H115.366V72.4263H112.941L112.946 71.5519H115.366V68.7665H112.941L112.946 67.8876H115.366V65.1021H112.941L112.946 64.2232H115.366V61.4378H112.941L112.946 60.5588H115.366V57.7734H112.941L112.946 56.8945H115.366V54.109H112.941L112.946 53.2301H115.366V50.4447H112.941L112.946 49.5703H115.366V46.7803H112.941L112.946 45.9059H115.366V43.1159H112.941L112.946 42.2415H115.366V39.4561H112.941L112.946 38.5772H115.366V35.7917H112.941L112.946 34.9128H115.366V32.1274H112.941L112.946 31.2485H115.366V28.463H112.941L112.946 27.5841H115.366V24.7986H112.941L112.946 23.9197H115.366V21.3055H116.245V23.9197ZM116.245 86.2049H118.458V83.4194H116.245V86.2049ZM116.245 82.5405H118.458V79.7551H116.245V82.5405ZM116.245 78.8762H118.458V76.0907H116.245V78.8762ZM116.245 75.2163H118.458V72.4263H116.245V75.2163ZM116.245 71.5519H118.458V68.7665H116.245V71.5519ZM116.245 67.8876H118.458V65.1021H116.245V67.8876ZM116.245 64.2232H118.458V61.4378H116.245V64.2232ZM116.245 60.5588H118.458V57.7734H116.245V60.5588ZM116.245 56.8945H118.458V54.109H116.245V56.8945ZM116.245 53.2301H118.458V50.4447H116.245V53.2301ZM116.245 49.5703H118.458V46.7803H116.245V49.5703ZM116.245 45.9059H118.458V43.1159H116.245V45.9059ZM116.245 42.2415H118.458V39.4561H116.245V42.2415ZM116.245 38.5772H118.458V35.7917H116.245V38.5772ZM116.245 34.9128H118.458V32.1274H116.245V34.9128ZM116.245 31.2485H118.458V28.463H116.245V31.2485ZM116.245 27.5841H118.458V24.7986H116.245V27.5841Z" fill="url(#paint74_linear_9360_31153)"/>
<path d="M129.474 119.622L106.059 75.4918V79.5445L120.768 119.622H129.474Z" fill="url(#paint75_linear_9360_31153)"/>
<path d="M129.474 119.622L106.059 75.4918H106.53L132.541 119.622L129.474 119.622Z" fill="url(#paint76_linear_9360_31153)"/>
<defs>
<radialGradient id="paint0_radial_9360_31153" cx="0" cy="0" r="1" gradientUnits="userSpaceOnUse" gradientTransform="translate(96.2602 83.5952) scale(110.09 90.3471)">
<stop offset="0.275902" stop-color="#64CEFF"/>
<stop offset="0.579848" stop-color="#98CFFF" stop-opacity="0.7"/>
<stop offset="0.95454" stop-color="#A7EEFF" stop-opacity="0"/>
</radialGradient>
<radialGradient id="paint1_radial_9360_31153" cx="0" cy="0" r="1" gradientUnits="userSpaceOnUse" gradientTransform="translate(170.907 72.8546) rotate(-39.2894) scale(76.3258 62.9212)">
<stop offset="0.095412" stop-color="#64CEFF"/>
<stop offset="0.57" stop-color="#98CFFF" stop-opacity="0.9"/>
<stop offset="0.95" stop-color="#A7EEFF" stop-opacity="0"/>
</radialGradient>
<radialGradient id="paint2_radial_9360_31153" cx="0" cy="0" r="1" gradientUnits="userSpaceOnUse" gradientTransform="translate(59.0795 46.1599) rotate(-99.1989) scale(22.0765 53.4651)">
<stop offset="0.132951" stop-color="white"/>
<stop offset="1" stop-color="#FFF2C2" stop-opacity="0"/>
</radialGradient>
<radialGradient id="paint3_radial_9360_31153" cx="0" cy="0" r="1" gradientUnits="userSpaceOnUse" gradientTransform="translate(157.364 55.1521) rotate(-96.9955) scale(29.6654 55.0346)">
<stop offset="0.132951" stop-color="white"/>
<stop offset="1" stop-color="#FFF2C2" stop-opacity="0"/>
</radialGradient>
<linearGradient id="paint4_linear_9360_31153" x1="175.068" y1="18.1702" x2="160.791" y2="37.4348" gradientUnits="userSpaceOnUse">
<stop stop-color="#6FE8F5"/>
<stop offset="1" stop-color="#8CD0FF"/>
</linearGradient>
<linearGradient id="paint5_linear_9360_31153" x1="197.186" y1="8.39246" x2="188.847" y2="29.0408" gradientUnits="userSpaceOnUse">
<stop stop-color="#FFE06B"/>
<stop offset="1" stop-color="#4A4A4A"/>
</linearGradient>
<linearGradient id="paint6_linear_9360_31153" x1="174.662" y1="8.39245" x2="167.102" y2="11.0704" gradientUnits="userSpaceOnUse">
<stop stop-color="#FFE06B"/>
<stop offset="1" stop-color="#4A4A4A"/>
</linearGradient>
<linearGradient id="paint7_linear_9360_31153" x1="192.322" y1="20.1564" x2="196.567" y2="39.3087" gradientUnits="userSpaceOnUse">
<stop stop-color="#36E39B"/>
<stop offset="0.528846" stop-color="#00C1AA"/>
<stop offset="1" stop-color="#115F4B"/>
</linearGradient>
<linearGradient id="paint8_linear_9360_31153" x1="173.345" y1="33.4658" x2="170.033" y2="21.3332" gradientUnits="userSpaceOnUse">
<stop stop-color="#074036" stop-opacity="0"/>
<stop offset="1" stop-color="#074036"/>
</linearGradient>
<linearGradient id="paint9_linear_9360_31153" x1="174.836" y1="28.8484" x2="160.256" y2="48.5231" gradientUnits="userSpaceOnUse">
<stop stop-color="#6FE8F5"/>
<stop offset="1" stop-color="#8CD0FF"/>
</linearGradient>
<linearGradient id="paint10_linear_9360_31153" x1="192.455" y1="30.877" x2="196.791" y2="50.437" gradientUnits="userSpaceOnUse">
<stop stop-color="#36E39B"/>
<stop offset="0.528846" stop-color="#00C1AA"/>
<stop offset="1" stop-color="#115F4B"/>
</linearGradient>
<linearGradient id="paint11_linear_9360_31153" x1="176.071" y1="47.6562" x2="170.818" y2="31.7932" gradientUnits="userSpaceOnUse">
<stop stop-color="#074036" stop-opacity="0"/>
<stop offset="1" stop-color="#074036"/>
</linearGradient>
<linearGradient id="paint12_linear_9360_31153" x1="174.836" y1="41.73" x2="160.256" y2="61.4047" gradientUnits="userSpaceOnUse">
<stop stop-color="#6FE8F5"/>
<stop offset="1" stop-color="#8CD0FF"/>
</linearGradient>
<linearGradient id="paint13_linear_9360_31153" x1="192.8" y1="43.7587" x2="197.077" y2="63.3459" gradientUnits="userSpaceOnUse">
<stop stop-color="#36E39B"/>
<stop offset="0.528846" stop-color="#00C1AA"/>
<stop offset="1" stop-color="#115F4B"/>
</linearGradient>
<linearGradient id="paint14_linear_9360_31153" x1="178.213" y1="68.5409" x2="171.89" y2="46.4197" gradientUnits="userSpaceOnUse">
<stop stop-color="#09AD94" stop-opacity="0"/>
<stop offset="1" stop-color="#074036"/>
</linearGradient>
<linearGradient id="paint15_linear_9360_31153" x1="173.933" y1="54.0583" x2="158.978" y2="74.5348" gradientUnits="userSpaceOnUse">
<stop stop-color="#6FE8F5"/>
<stop offset="1" stop-color="#8CD0FF"/>
</linearGradient>
<linearGradient id="paint16_linear_9360_31153" x1="192.941" y1="56.1484" x2="197.251" y2="76.3691" gradientUnits="userSpaceOnUse">
<stop stop-color="#36E39B"/>
<stop offset="0.528846" stop-color="#00C1AA"/>
<stop offset="1" stop-color="#115F4B"/>
</linearGradient>
<linearGradient id="paint17_linear_9360_31153" x1="177.548" y1="81.6772" x2="171.527" y2="61.121" gradientUnits="userSpaceOnUse">
<stop stop-color="#09AD94" stop-opacity="0"/>
<stop offset="1" stop-color="#074036"/>
</linearGradient>
<linearGradient id="paint18_linear_9360_31153" x1="116.008" y1="72.5779" x2="116.008" y2="127.153" gradientUnits="userSpaceOnUse">
<stop stop-color="#CFCFCF"/>
<stop offset="1" stop-color="#3E3E3E"/>
</linearGradient>
<linearGradient id="paint19_linear_9360_31153" x1="59.2141" y1="59.2789" x2="71.337" y2="70.8695" gradientUnits="userSpaceOnUse">
<stop stop-color="#88E06C"/>
<stop offset="1" stop-color="#1E794A"/>
</linearGradient>
<radialGradient id="paint20_radial_9360_31153" cx="0" cy="0" r="1" gradientUnits="userSpaceOnUse" gradientTransform="translate(60.3272 66.9245) rotate(82.7084) scale(12.7565 9.05849)">
<stop offset="0.498233" stop-color="#2C764E" stop-opacity="0"/>
<stop offset="1" stop-color="#093C41"/>
</radialGradient>
<radialGradient id="paint21_radial_9360_31153" cx="0" cy="0" r="1" gradientUnits="userSpaceOnUse" gradientTransform="translate(58.6157 64.6136) rotate(81.441) scale(9.32465 5.80813)">
<stop stop-color="#FFC470"/>
<stop offset="1" stop-color="#FFE06B" stop-opacity="0"/>
</radialGradient>
<linearGradient id="paint22_linear_9360_31153" x1="74.7382" y1="43.3223" x2="94.6122" y2="74.6656" gradientUnits="userSpaceOnUse">
<stop stop-color="#88E06C"/>
<stop offset="1" stop-color="#1E794A"/>
</linearGradient>
<radialGradient id="paint23_radial_9360_31153" cx="0" cy="0" r="1" gradientUnits="userSpaceOnUse" gradientTransform="translate(78.0627 57.1658) rotate(78.0818) scale(23.4156 26.6877)">
<stop offset="0.498233" stop-color="#2C764E" stop-opacity="0"/>
<stop offset="1" stop-color="#093C41"/>
</radialGradient>
<radialGradient id="paint24_radial_9360_31153" cx="0" cy="0" r="1" gradientUnits="userSpaceOnUse" gradientTransform="translate(72.9507 52.9817) rotate(76.0577) scale(17.2025 17.0258)">
<stop stop-color="#FFC470"/>
<stop offset="1" stop-color="#FFE06B" stop-opacity="0"/>
</radialGradient>
<linearGradient id="paint25_linear_9360_31153" x1="97.6817" y1="52.268" x2="107.861" y2="70.9874" gradientUnits="userSpaceOnUse">
<stop stop-color="#88E06C"/>
<stop offset="1" stop-color="#1E794A"/>
</linearGradient>
<radialGradient id="paint26_radial_9360_31153" cx="0" cy="0" r="1" gradientUnits="userSpaceOnUse" gradientTransform="translate(99.8212 59.9087) rotate(76.1738) scale(13.0227 17.0454)">
<stop offset="0.498233" stop-color="#2C764E" stop-opacity="0"/>
<stop offset="1" stop-color="#093C41"/>
</radialGradient>
<radialGradient id="paint27_radial_9360_31153" cx="0" cy="0" r="1" gradientUnits="userSpaceOnUse" gradientTransform="translate(96.5313 57.5994) rotate(73.8554) scale(9.59331 10.8448)">
<stop stop-color="#FFC470"/>
<stop offset="1" stop-color="#FFE06B" stop-opacity="0"/>
</radialGradient>
<linearGradient id="paint28_linear_9360_31153" x1="129.252" y1="48.3824" x2="141.7" y2="69.7074" gradientUnits="userSpaceOnUse">
<stop stop-color="#88E06C"/>
<stop offset="1" stop-color="#1E794A"/>
</linearGradient>
<radialGradient id="paint29_radial_9360_31153" cx="0" cy="0" r="1" gradientUnits="userSpaceOnUse" gradientTransform="translate(131.602 57.389) rotate(77.0867) scale(15.2926 18.7893)">
<stop offset="0.498233" stop-color="#2C764E" stop-opacity="0"/>
<stop offset="1" stop-color="#093C41"/>
</radialGradient>
<radialGradient id="paint30_radial_9360_31153" cx="0" cy="0" r="1" gradientUnits="userSpaceOnUse" gradientTransform="translate(127.989 54.6669) rotate(74.9075) scale(11.2503 11.9704)">
<stop stop-color="#FFC470"/>
<stop offset="1" stop-color="#FFE06B" stop-opacity="0"/>
</radialGradient>
<linearGradient id="paint31_linear_9360_31153" x1="147.136" y1="57.7131" x2="153.753" y2="71.1685" gradientUnits="userSpaceOnUse">
<stop stop-color="#88E06C"/>
<stop offset="1" stop-color="#1E794A"/>
</linearGradient>
<radialGradient id="paint32_radial_9360_31153" cx="0" cy="0" r="1" gradientUnits="userSpaceOnUse" gradientTransform="translate(148.766 62.9769) rotate(74.7768) scale(9.02848 12.9028)">
<stop offset="0.498233" stop-color="#2C764E" stop-opacity="0"/>
<stop offset="1" stop-color="#093C41"/>
</radialGradient>
<radialGradient id="paint33_radial_9360_31153" cx="0" cy="0" r="1" gradientUnits="userSpaceOnUse" gradientTransform="translate(146.259 61.386) rotate(72.2509) scale(6.66568 8.19095)">
<stop stop-color="#FFC470"/>
<stop offset="1" stop-color="#FFE06B" stop-opacity="0"/>
</radialGradient>
<linearGradient id="paint34_linear_9360_31153" x1="205.012" y1="116.614" x2="114.184" y2="51.5207" gradientUnits="userSpaceOnUse">
<stop stop-color="#262626"/>
<stop offset="1" stop-color="#8C8C8C"/>
</linearGradient>
<linearGradient id="paint35_linear_9360_31153" x1="226.535" y1="44.0084" x2="171.538" y2="157.746" gradientUnits="userSpaceOnUse">
<stop stop-color="#FFF2BE"/>
<stop offset="1" stop-color="#BFBFBF"/>
</linearGradient>
<linearGradient id="paint36_linear_9360_31153" x1="126.021" y1="61.0289" x2="15.4049" y2="101.508" gradientUnits="userSpaceOnUse">
<stop stop-color="#FF9FB2"/>
<stop offset="0.642527" stop-color="#965F42"/>
<stop offset="1" stop-color="#5B3B04" stop-opacity="0"/>
</linearGradient>
<linearGradient id="paint37_linear_9360_31153" x1="30.5226" y1="88.1825" x2="40.9771" y2="100.803" gradientUnits="userSpaceOnUse">
<stop stop-color="#E0E0E0"/>
<stop offset="1" stop-color="#6CE0FF" stop-opacity="0"/>
</linearGradient>
<linearGradient id="paint38_linear_9360_31153" x1="8.72351" y1="98.6364" x2="23.8655" y2="116.916" gradientUnits="userSpaceOnUse">
<stop stop-color="#E0E0E0"/>
<stop offset="1" stop-color="#6CE0FF" stop-opacity="0"/>
</linearGradient>
<linearGradient id="paint39_linear_9360_31153" x1="14.2109" y1="88.1825" x2="26.2919" y2="102.767" gradientUnits="userSpaceOnUse">
<stop stop-color="#F8C4FA"/>
<stop offset="1" stop-color="#FFC470" stop-opacity="0"/>
</linearGradient>
<linearGradient id="paint40_linear_9360_31153" x1="40.6436" y1="86.1729" x2="49.2118" y2="96.5165" gradientUnits="userSpaceOnUse">
<stop stop-color="#F8C4FA"/>
<stop offset="1" stop-color="#FFC470" stop-opacity="0"/>
</linearGradient>
<linearGradient id="paint41_linear_9360_31153" x1="66.8597" y1="74.2721" x2="72.9039" y2="81.5687" gradientUnits="userSpaceOnUse">
<stop stop-color="#F8C4FA"/>
<stop offset="1" stop-color="#FFC470" stop-opacity="0"/>
</linearGradient>
<linearGradient id="paint42_linear_9360_31153" x1="79.4664" y1="71.09" x2="84.4112" y2="77.0593" gradientUnits="userSpaceOnUse">
<stop stop-color="#F8C4FA"/>
<stop offset="1" stop-color="#FFC470" stop-opacity="0"/>
</linearGradient>
<linearGradient id="paint43_linear_9360_31153" x1="98.5928" y1="68.4634" x2="101.466" y2="71.9321" gradientUnits="userSpaceOnUse">
<stop stop-color="#F8C4FA"/>
<stop offset="1" stop-color="#FFC470" stop-opacity="0"/>
</linearGradient>
<linearGradient id="paint44_linear_9360_31153" x1="89.2426" y1="70.1401" x2="92.9532" y2="74.6197" gradientUnits="userSpaceOnUse">
<stop stop-color="#F8C4FA"/>
<stop offset="1" stop-color="#FFC470" stop-opacity="0"/>
</linearGradient>
<linearGradient id="paint45_linear_9360_31153" x1="38.5094" y1="80.7185" x2="46.557" y2="90.4337" gradientUnits="userSpaceOnUse">
<stop stop-color="#FFF2BE"/>
<stop offset="1" stop-color="#FFD1DA" stop-opacity="0"/>
</linearGradient>
<linearGradient id="paint46_linear_9360_31153" x1="24.5708" y1="92.3967" x2="35.2643" y2="105.306" gradientUnits="userSpaceOnUse">
<stop stop-color="#FFF2BE"/>
<stop offset="1" stop-color="#FFD1DA" stop-opacity="0"/>
</linearGradient>
<linearGradient id="paint47_linear_9360_31153" x1="62.4314" y1="77.4131" x2="69.0435" y2="85.3953" gradientUnits="userSpaceOnUse">
<stop stop-color="#FFF2BE"/>
<stop offset="1" stop-color="#FFD1DA" stop-opacity="0"/>
</linearGradient>
<linearGradient id="paint48_linear_9360_31153" x1="47.6274" y1="82.411" x2="56.2876" y2="92.8657" gradientUnits="userSpaceOnUse">
<stop stop-color="#FFF2BE"/>
<stop offset="1" stop-color="#FFD1DA" stop-opacity="0"/>
</linearGradient>
<linearGradient id="paint49_linear_9360_31153" x1="77.1024" y1="70.7192" x2="80.8907" y2="75.2926" gradientUnits="userSpaceOnUse">
<stop stop-color="#FFF2BE"/>
<stop offset="1" stop-color="#FFD1DA" stop-opacity="0"/>
</linearGradient>
<linearGradient id="paint50_linear_9360_31153" x1="95.938" y1="68.7705" x2="98.5927" y2="71.9754" gradientUnits="userSpaceOnUse">
<stop stop-color="#FFF2BE"/>
<stop offset="1" stop-color="#FFD1DA" stop-opacity="0"/>
</linearGradient>
<linearGradient id="paint51_linear_9360_31153" x1="87.4014" y1="69.3406" x2="90.0561" y2="72.5454" gradientUnits="userSpaceOnUse">
<stop stop-color="#FFF2BE"/>
<stop offset="1" stop-color="#FFD1DA" stop-opacity="0"/>
</linearGradient>
<linearGradient id="paint52_linear_9360_31153" x1="54.2012" y1="77.1335" x2="61.3721" y2="85.7905" gradientUnits="userSpaceOnUse">
<stop stop-color="#E0E0E0"/>
<stop offset="1" stop-color="#6CE0FF" stop-opacity="0"/>
</linearGradient>
<linearGradient id="paint53_linear_9360_31153" x1="83.266" y1="73.01" x2="86.261" y2="76.6257" gradientUnits="userSpaceOnUse">
<stop stop-color="#E0E0E0"/>
<stop offset="1" stop-color="#6CE0FF" stop-opacity="0"/>
</linearGradient>
<linearGradient id="paint54_linear_9360_31153" x1="91.5006" y1="68.2037" x2="94.4957" y2="71.8194" gradientUnits="userSpaceOnUse">
<stop stop-color="white"/>
<stop offset="1" stop-color="#6CE0FF" stop-opacity="0"/>
</linearGradient>
<linearGradient id="paint55_linear_9360_31153" x1="71.1957" y1="73.01" x2="75.688" y2="78.4332" gradientUnits="userSpaceOnUse">
<stop stop-color="white"/>
<stop offset="1" stop-color="#6CE0FF" stop-opacity="0"/>
</linearGradient>
<linearGradient id="paint56_linear_9360_31153" x1="170.952" y1="56.4408" x2="40.0084" y2="115.1" gradientUnits="userSpaceOnUse">
<stop stop-color="#8C8C8C"/>
<stop offset="1" stop-color="#262626"/>
</linearGradient>
<linearGradient id="paint57_linear_9360_31153" x1="276.44" y1="81.9485" x2="125.241" y2="56.4274" gradientUnits="userSpaceOnUse">
<stop stop-color="#5B3B04"/>
<stop offset="1" stop-color="#FF9FB2"/>
</linearGradient>
<linearGradient id="paint58_linear_9360_31153" x1="117.35" y1="21.3079" x2="117.35" y2="108.948" gradientUnits="userSpaceOnUse">
<stop stop-color="#2AF460"/>
<stop offset="1" stop-color="#18888E"/>
</linearGradient>
<linearGradient id="paint59_linear_9360_31153" x1="125.23" y1="17.3238" x2="96.9459" y2="26.3112" gradientUnits="userSpaceOnUse">
<stop stop-color="#262626"/>
<stop offset="1" stop-color="#262626" stop-opacity="0"/>
</linearGradient>
<linearGradient id="paint60_linear_9360_31153" x1="213.962" y1="86.4545" x2="236.169" y2="113.263" gradientUnits="userSpaceOnUse">
<stop stop-color="#E0E0E0"/>
<stop offset="1" stop-color="#6CE0FF" stop-opacity="0"/>
</linearGradient>
<linearGradient id="paint61_linear_9360_31153" x1="182.368" y1="70.0979" x2="198.726" y2="89.8452" gradientUnits="userSpaceOnUse">
<stop stop-color="#E0E0E0"/>
<stop offset="1" stop-color="#6CE0FF" stop-opacity="0"/>
</linearGradient>
<linearGradient id="paint62_linear_9360_31153" x1="198.491" y1="76.1956" x2="217.567" y2="99.2248" gradientUnits="userSpaceOnUse">
<stop stop-color="#E0E0E0"/>
<stop offset="1" stop-color="#6CE0FF" stop-opacity="0"/>
</linearGradient>
<linearGradient id="paint63_linear_9360_31153" x1="159.154" y1="69.7007" x2="172.53" y2="85.8488" gradientUnits="userSpaceOnUse">
<stop stop-color="#E0E0E0"/>
<stop offset="1" stop-color="#6CE0FF" stop-opacity="0"/>
</linearGradient>
<linearGradient id="paint64_linear_9360_31153" x1="139.944" y1="72.8073" x2="150.214" y2="85.205" gradientUnits="userSpaceOnUse">
<stop stop-color="#E0E0E0"/>
<stop offset="1" stop-color="#6CE0FF" stop-opacity="0"/>
</linearGradient>
<linearGradient id="paint65_linear_9360_31153" x1="207.347" y1="68.6967" x2="225.065" y2="90.0858" gradientUnits="userSpaceOnUse">
<stop stop-color="#F8C4FA"/>
<stop offset="1" stop-color="#FFC470" stop-opacity="0"/>
</linearGradient>
<linearGradient id="paint66_linear_9360_31153" x1="172.531" y1="66.2493" x2="185.19" y2="81.5308" gradientUnits="userSpaceOnUse">
<stop stop-color="#F8C4FA"/>
<stop offset="1" stop-color="#FFC470" stop-opacity="0"/>
</linearGradient>
<linearGradient id="paint67_linear_9360_31153" x1="147.194" y1="66.4785" x2="159.852" y2="81.7601" gradientUnits="userSpaceOnUse">
<stop stop-color="#F8C4FA"/>
<stop offset="1" stop-color="#FFC470" stop-opacity="0"/>
</linearGradient>
<linearGradient id="paint68_linear_9360_31153" x1="134.47" y1="70.917" x2="143.775" y2="82.1503" gradientUnits="userSpaceOnUse">
<stop stop-color="#F8C4FA"/>
<stop offset="1" stop-color="#FFC470" stop-opacity="0"/>
</linearGradient>
<linearGradient id="paint69_linear_9360_31153" x1="219.69" y1="71.4252" x2="238.605" y2="94.2591" gradientUnits="userSpaceOnUse">
<stop stop-color="#FFF2BE"/>
<stop offset="1" stop-color="#FFD1DA" stop-opacity="0"/>
</linearGradient>
<linearGradient id="paint70_linear_9360_31153" x1="189.74" y1="80.882" x2="206.416" y2="101.014" gradientUnits="userSpaceOnUse">
<stop stop-color="#FFF2BE"/>
<stop offset="1" stop-color="#FFD1DA" stop-opacity="0"/>
</linearGradient>
<linearGradient id="paint71_linear_9360_31153" x1="167.817" y1="74.5076" x2="182.599" y2="92.3533" gradientUnits="userSpaceOnUse">
<stop stop-color="#FFF2BE"/>
<stop offset="1" stop-color="#FFD1DA" stop-opacity="0"/>
</linearGradient>
<linearGradient id="paint72_linear_9360_31153" x1="150.214" y1="72.3497" x2="162.169" y2="86.7823" gradientUnits="userSpaceOnUse">
<stop stop-color="#FFF2BE"/>
<stop offset="1" stop-color="#FFD1DA" stop-opacity="0"/>
</linearGradient>
<linearGradient id="paint73_linear_9360_31153" x1="139.611" y1="67.8673" x2="147.94" y2="77.9225" gradientUnits="userSpaceOnUse">
<stop stop-color="#FFF2BE"/>
<stop offset="1" stop-color="#FFD1DA" stop-opacity="0"/>
</linearGradient>
<linearGradient id="paint74_linear_9360_31153" x1="111.215" y1="18.6178" x2="156.164" y2="64.4564" gradientUnits="userSpaceOnUse">
<stop stop-color="#262626"/>
<stop offset="1" stop-color="#262626" stop-opacity="0"/>
</linearGradient>
<linearGradient id="paint75_linear_9360_31153" x1="129.474" y1="40.3655" x2="109.202" y2="132.541" gradientUnits="userSpaceOnUse">
<stop stop-color="#FFF2BE"/>
<stop offset="1" stop-color="#A3A3A3"/>
</linearGradient>
<linearGradient id="paint76_linear_9360_31153" x1="121.54" y1="91.5472" x2="68.7475" y2="136.082" gradientUnits="userSpaceOnUse">
<stop stop-color="#FFF2BE"/>
<stop offset="1" stop-color="#BFBFBF"/>
</linearGradient>
</defs>
</svg>
