<svg viewBox="0 0 240 120" fill="none" xmlns="http://www.w3.org/2000/svg">
<path d="M46.4749 88.7279C67.4774 88.7279 77.9724 74.626 77.9724 57.2304C77.9724 39.8348 67.4774 25.7329 46.4749 25.7329C25.4724 25.7329 14.9774 39.8348 14.9774 57.2304C14.9774 74.626 25.4724 88.7279 46.4749 88.7279Z" fill="url(#paint0_radial_9706_4554)"/>
<path d="M46.4749 88.7279C67.4774 88.7279 77.9724 74.626 77.9724 57.2304C77.9724 39.8348 67.4774 25.7329 46.4749 25.7329C25.4724 25.7329 14.9774 39.8348 14.9774 57.2304C14.9774 74.626 25.4724 88.7279 46.4749 88.7279Z" fill="url(#paint1_radial_9706_4554)"/>
<path d="M46.4749 88.7279C67.4774 88.7279 77.9724 74.626 77.9724 57.2304C77.9724 39.8348 67.4774 25.7329 46.4749 25.7329C25.4724 25.7329 14.9774 39.8348 14.9774 57.2304C14.9774 74.626 25.4724 88.7279 46.4749 88.7279Z" fill="url(#paint2_radial_9706_4554)" fill-opacity="0.6"/>
<path d="M46.4749 88.7279C67.4774 88.7279 77.9724 74.626 77.9724 57.2304C77.9724 39.8348 67.4774 25.7329 46.4749 25.7329C25.4724 25.7329 14.9774 39.8348 14.9774 57.2304C14.9774 74.626 25.4724 88.7279 46.4749 88.7279Z" fill="url(#paint3_radial_9706_4554)"/>
<path d="M46.4749 88.7279C67.4774 88.7279 77.9724 74.626 77.9724 57.2304C77.9724 39.8348 67.4774 25.7329 46.4749 25.7329C25.4724 25.7329 14.9774 39.8348 14.9774 57.2304C14.9774 74.626 25.4724 88.7279 46.4749 88.7279Z" fill="url(#paint4_radial_9706_4554)"/>
<path d="M46.4749 88.7279C67.4774 88.7279 77.9724 74.626 77.9724 57.2304C77.9724 39.8348 67.4774 25.7329 46.4749 25.7329C25.4724 25.7329 14.9774 39.8348 14.9774 57.2304C14.9774 74.626 25.4724 88.7279 46.4749 88.7279Z" fill="url(#paint5_radial_9706_4554)"/>
<path d="M46.4749 88.7279C67.4774 88.7279 77.9724 74.626 77.9724 57.2304C77.9724 39.8348 67.4774 25.7329 46.4749 25.7329C25.4724 25.7329 14.9774 39.8348 14.9774 57.2304C14.9774 74.626 25.4724 88.7279 46.4749 88.7279Z" fill="url(#paint6_radial_9706_4554)"/>
<path d="M38.7401 50.061C37.2491 50.061 35.9561 48.951 35.7671 47.433C35.6261 46.611 35.0411 45.561 33.1181 45.561C30.8201 45.561 30.5081 47.121 30.4691 47.433C30.2651 49.077 28.7561 50.235 27.1211 50.037C25.4771 49.833 24.3101 48.333 24.5171 46.689C24.8231 44.223 27.0191 39.561 33.1181 39.561C39.2171 39.561 41.4131 44.223 41.7191 46.689C41.9231 48.333 40.7591 49.833 39.1151 50.037C38.9891 50.052 38.8631 50.061 38.7401 50.061Z" fill="#9A4609" fill-opacity="0.5"/>
<path d="M39.8652 48.9363C38.3742 48.9363 37.0812 47.8263 36.8922 46.3083C36.7512 45.4863 36.1662 44.4363 34.2432 44.4363C31.9452 44.4363 31.6332 45.9963 31.5942 46.3083C31.3902 47.9523 29.8752 49.1133 28.2462 48.9123C26.6022 48.7083 25.4352 47.2083 25.6422 45.5643C25.9482 43.0983 28.1442 38.4363 34.2432 38.4363C40.3422 38.4363 42.5382 43.0983 42.8442 45.5643C43.0482 47.2083 41.8842 48.7083 40.2402 48.9123C40.1142 48.9273 39.9882 48.9363 39.8652 48.9363Z" fill="#43273B"/>
<path opacity="0.26" d="M40.4296 46.5002C39.8686 46.5002 39.3856 46.0832 39.3136 45.5132C39.2626 45.1592 38.7106 42.0002 34.8046 42.0002C30.7816 42.0002 30.3136 45.3722 30.2956 45.5132C30.2206 46.1312 29.6326 46.5542 29.0416 46.4912C28.4236 46.4132 27.9856 45.8522 28.0636 45.2372C28.3006 43.3412 30.0136 39.7502 34.8046 39.7502C39.5956 39.7502 41.3086 43.3382 41.5456 45.2372C41.6236 45.8552 41.1856 46.4162 40.5676 46.4912C40.5196 46.4972 40.4746 46.5002 40.4266 46.5002H40.4296Z" fill="url(#paint7_linear_9706_4554)"/>
<path d="M63.3494 50.061C61.8584 50.061 60.5654 48.951 60.3764 47.433C60.2354 46.611 59.6504 45.561 57.7274 45.561C55.4294 45.561 55.1174 47.121 55.0784 47.433C54.8744 49.077 53.3654 50.235 51.7304 50.037C50.0864 49.833 48.9194 48.333 49.1264 46.689C49.4324 44.223 51.6284 39.561 57.7274 39.561C63.8264 39.561 66.0224 44.223 66.3284 46.689C66.5324 48.333 65.3685 49.833 63.7244 50.037C63.5984 50.052 63.4724 50.061 63.3494 50.061Z" fill="#9A4609" fill-opacity="0.5"/>
<path d="M64.4746 48.9363C62.9836 48.9363 61.6906 47.8263 61.5016 46.3083C61.3606 45.4863 60.7756 44.4363 58.8526 44.4363C56.5546 44.4363 56.2426 45.9963 56.2036 46.3083C55.9996 47.9523 54.4846 49.1133 52.8556 48.9123C51.2116 48.7083 50.0446 47.2083 50.2516 45.5643C50.5576 43.0983 52.7536 38.4363 58.8526 38.4363C64.9516 38.4363 67.1476 43.0983 67.4536 45.5643C67.6576 47.2083 66.4936 48.7083 64.8496 48.9123C64.7236 48.9273 64.5976 48.9363 64.4746 48.9363Z" fill="#43273B"/>
<path opacity="0.26" d="M65.0389 46.5002C64.4779 46.5002 63.9949 46.0832 63.9229 45.5132C63.8719 45.1592 63.3199 42.0002 59.4139 42.0002C55.3909 42.0002 54.9229 45.3722 54.9049 45.5132C54.8299 46.1312 54.2419 46.5542 53.6509 46.4912C53.0329 46.4132 52.5949 45.8522 52.6729 45.2372C52.9099 43.3412 54.6229 39.7502 59.4139 39.7502C64.2049 39.7502 65.9179 43.3382 66.1549 45.2372C66.2329 45.8552 65.7949 46.4162 65.1769 46.4912C65.1289 46.4972 65.0839 46.5002 65.0359 46.5002H65.0389Z" fill="url(#paint8_linear_9706_4554)"/>
<path d="M46.478 77.4827C26.228 77.4827 26.228 57.2327 26.228 57.2327H66.728C66.728 57.2327 66.728 77.4827 46.478 77.4827Z" fill="url(#paint9_radial_9706_4554)"/>
<path d="M28.4788 57.6086V57.2336H64.4788V57.6086C64.4788 59.2655 63.1356 60.6086 61.4788 60.6086H31.4788C29.8219 60.6086 28.4788 59.2655 28.4788 57.6086Z" fill="url(#paint10_linear_9706_4554)"/>
<path d="M120 107.148C141.002 107.148 151.497 93.0457 151.497 75.6501C151.497 58.2545 141.002 44.1526 120 44.1526C98.9974 44.1526 88.5024 58.2545 88.5024 75.6501C88.5024 93.0457 98.9974 107.148 120 107.148Z" fill="url(#paint11_radial_9706_4554)"/>
<path d="M120 107.148C141.002 107.148 151.497 93.0457 151.497 75.6501C151.497 58.2545 141.002 44.1526 120 44.1526C98.9974 44.1526 88.5024 58.2545 88.5024 75.6501C88.5024 93.0457 98.9974 107.148 120 107.148Z" fill="url(#paint12_radial_9706_4554)" fill-opacity="0.6"/>
<path d="M120 107.148C141.002 107.148 151.497 93.0457 151.497 75.6501C151.497 58.2545 141.002 44.1526 120 44.1526C98.9974 44.1526 88.5024 58.2545 88.5024 75.6501C88.5024 93.0457 98.9974 107.148 120 107.148Z" fill="url(#paint13_radial_9706_4554)"/>
<path d="M120 107.148C141.002 107.148 151.497 93.0457 151.497 75.6501C151.497 58.2545 141.002 44.1526 120 44.1526C98.9974 44.1526 88.5024 58.2545 88.5024 75.6501C88.5024 93.0457 98.9974 107.148 120 107.148Z" fill="url(#paint14_radial_9706_4554)"/>
<path d="M120 107.148C141.002 107.148 151.497 93.0457 151.497 75.6501C151.497 58.2545 141.002 44.1526 120 44.1526C98.9974 44.1526 88.5024 58.2545 88.5024 75.6501C88.5024 93.0457 98.9974 107.148 120 107.148Z" fill="url(#paint15_radial_9706_4554)"/>
<path d="M120 107.148C141.002 107.148 151.497 93.0457 151.497 75.6501C151.497 58.2545 141.002 44.1526 120 44.1526C98.9974 44.1526 88.5024 58.2545 88.5024 75.6501C88.5024 93.0457 98.9974 107.148 120 107.148Z" fill="url(#paint16_radial_9706_4554)"/>
<path d="M114.806 69.8479C114.806 75.6551 110.098 80.3628 104.291 80.3628C98.4836 80.3628 93.7759 75.6551 93.7759 69.8479C93.7759 64.0407 98.4836 59.333 104.291 59.333C110.098 59.333 114.806 64.0407 114.806 69.8479Z" fill="url(#paint17_radial_9706_4554)"/>
<path d="M136.851 71.0248C136.851 76.2989 132.576 80.5745 127.302 80.5745C122.028 80.5745 117.752 76.2989 117.752 71.0248C117.752 65.7506 122.028 61.4751 127.302 61.4751C132.576 61.4751 136.851 65.7506 136.851 71.0248Z" fill="url(#paint18_radial_9706_4554)"/>
<path d="M107.446 76.1571C112.672 76.1571 116.909 71.9202 116.909 66.6936C116.909 61.4671 112.672 57.2302 107.446 57.2302C102.219 57.2302 97.9823 61.4671 97.9823 66.6936C97.9823 71.9202 102.219 76.1571 107.446 76.1571Z" fill="white"/>
<path d="M132.531 76.3296C137.806 76.3296 142.081 72.0541 142.081 66.7799C142.081 61.5058 137.806 57.2302 132.531 57.2302C127.257 57.2302 122.982 61.5058 122.982 66.7799C122.982 72.0541 127.257 76.3296 132.531 76.3296Z" fill="white"/>
<path d="M108.752 73.4019C112.48 73.4019 115.502 70.3798 115.502 66.6519C115.502 62.9239 112.48 59.9019 108.752 59.9019C105.024 59.9019 102.002 62.9239 102.002 66.6519C102.002 70.3798 105.024 73.4019 108.752 73.4019Z" fill="url(#paint19_linear_9706_4554)"/>
<path d="M131.252 73.4019C134.98 73.4019 138.002 70.3798 138.002 66.6519C138.002 62.9239 134.98 59.9019 131.252 59.9019C127.524 59.9019 124.502 62.9239 124.502 66.6519C124.502 70.3798 127.524 73.4019 131.252 73.4019Z" fill="url(#paint20_linear_9706_4554)"/>
<path fill-rule="evenodd" clip-rule="evenodd" d="M106.502 84.6519C106.502 83.4092 107.509 82.4019 108.752 82.4019H131.252C132.495 82.4019 133.502 83.4092 133.502 84.6519C133.502 85.8945 132.495 86.9019 131.252 86.9019H108.752C107.509 86.9019 106.502 85.8945 106.502 84.6519Z" fill="url(#paint21_linear_9706_4554)"/>
<path d="M192.496 82.5955C212.577 82.5955 222.612 69.1119 222.612 52.479C222.612 35.8462 212.577 22.3625 192.496 22.3625C172.414 22.3625 162.379 35.8462 162.379 52.479C162.379 69.1119 172.414 82.5955 192.496 82.5955Z" fill="url(#paint22_radial_9706_4554)"/>
<path d="M192.496 82.5955C212.577 82.5955 222.612 69.1119 222.612 52.479C222.612 35.8462 212.577 22.3625 192.496 22.3625C172.414 22.3625 162.379 35.8462 162.379 52.479C162.379 69.1119 172.414 82.5955 192.496 82.5955Z" fill="url(#paint23_radial_9706_4554)"/>
<path d="M192.496 82.5955C212.577 82.5955 222.612 69.1119 222.612 52.479C222.612 35.8462 212.577 22.3625 192.496 22.3625C172.414 22.3625 162.379 35.8462 162.379 52.479C162.379 69.1119 172.414 82.5955 192.496 82.5955Z" fill="url(#paint24_radial_9706_4554)"/>
<path d="M192.496 82.5955C212.577 82.5955 222.612 69.1119 222.612 52.479C222.612 35.8462 212.577 22.3625 192.496 22.3625C172.414 22.3625 162.379 35.8462 162.379 52.479C162.379 69.1119 172.414 82.5955 192.496 82.5955Z" fill="url(#paint25_radial_9706_4554)" fill-opacity="0.6"/>
<path d="M192.496 82.5955C212.577 82.5955 222.612 69.1119 222.612 52.479C222.612 35.8462 212.577 22.3625 192.496 22.3625C172.414 22.3625 162.379 35.8462 162.379 52.479C162.379 69.1119 172.414 82.5955 192.496 82.5955Z" fill="url(#paint26_radial_9706_4554)"/>
<path d="M192.496 82.5955C212.577 82.5955 222.612 69.1119 222.612 52.479C222.612 35.8462 212.577 22.3625 192.496 22.3625C172.414 22.3625 162.379 35.8462 162.379 52.479C162.379 69.1119 172.414 82.5955 192.496 82.5955Z" fill="url(#paint27_radial_9706_4554)"/>
<path d="M192.496 82.5955C212.577 82.5955 222.612 69.1119 222.612 52.479C222.612 35.8462 212.577 22.3625 192.496 22.3625C172.414 22.3625 162.379 35.8462 162.379 52.479C162.379 69.1119 172.414 82.5955 192.496 82.5955Z" fill="url(#paint28_radial_9706_4554)"/>
<path d="M192.496 82.5955C212.577 82.5955 222.612 69.1119 222.612 52.479C222.612 35.8462 212.577 22.3625 192.496 22.3625C172.414 22.3625 162.379 35.8462 162.379 52.479C162.379 69.1119 172.414 82.5955 192.496 82.5955Z" fill="url(#paint29_radial_9706_4554)"/>
<path d="M192.496 82.5955C212.577 82.5955 222.612 69.1119 222.612 52.479C222.612 35.8462 212.577 22.3625 192.496 22.3625C172.414 22.3625 162.379 35.8462 162.379 52.479C162.379 69.1119 172.414 82.5955 192.496 82.5955Z" fill="url(#paint30_radial_9706_4554)"/>
<path d="M192.496 82.5955C212.577 82.5955 222.612 69.1119 222.612 52.479C222.612 35.8462 212.577 22.3625 192.496 22.3625C172.414 22.3625 162.379 35.8462 162.379 52.479C162.379 69.1119 172.414 82.5955 192.496 82.5955Z" fill="url(#paint31_radial_9706_4554)"/>
<path d="M192.496 82.5955C212.577 82.5955 222.612 69.1119 222.612 52.479C222.612 35.8462 212.577 22.3625 192.496 22.3625C172.414 22.3625 162.379 35.8462 162.379 52.479C162.379 69.1119 172.414 82.5955 192.496 82.5955Z" fill="url(#paint32_radial_9706_4554)"/>
<path d="M192.496 82.5955C212.577 82.5955 222.612 69.1119 222.612 52.479C222.612 35.8462 212.577 22.3625 192.496 22.3625C172.414 22.3625 162.379 35.8462 162.379 52.479C162.379 69.1119 172.414 82.5955 192.496 82.5955Z" fill="url(#paint33_radial_9706_4554)"/>
<path d="M192.499 71.8419C173.137 71.8419 173.137 52.4797 173.137 52.4797H211.861C211.861 52.4797 211.861 71.8419 192.499 71.8419Z" fill="url(#paint34_radial_9706_4554)"/>
<path d="M175.289 53.5889V52.4797H209.71V53.5889C209.71 54.7586 208.762 55.7068 207.593 55.7068H177.407C176.237 55.7068 175.289 54.7586 175.289 53.5889Z" fill="url(#paint35_linear_9706_4554)"/>
<path d="M164.92 39.0363C169.257 44.0418 175.027 46.2339 177.985 47.0803C179.196 47.427 180.467 47.0792 181.365 46.1944C183.932 43.6619 189.107 37.8508 190.213 31.216C191.758 21.951 180.141 19.1266 175.459 26.763C164.507 21.619 158.714 31.8742 164.92 39.0363Z" fill="url(#paint36_linear_9706_4554)"/>
<path d="M164.92 39.0363C169.257 44.0418 175.027 46.2339 177.985 47.0803C179.196 47.427 180.467 47.0792 181.365 46.1944C183.932 43.6619 189.107 37.8508 190.213 31.216C191.758 21.951 180.141 19.1266 175.459 26.763C164.507 21.619 158.714 31.8742 164.92 39.0363Z" fill="url(#paint37_radial_9706_4554)"/>
<path d="M164.92 39.0363C169.257 44.0418 175.027 46.2339 177.985 47.0803C179.196 47.427 180.467 47.0792 181.365 46.1944C183.932 43.6619 189.107 37.8508 190.213 31.216C191.758 21.951 180.141 19.1266 175.459 26.763C164.507 21.619 158.714 31.8742 164.92 39.0363Z" fill="url(#paint38_radial_9706_4554)"/>
<path d="M164.92 39.0363C169.257 44.0418 175.027 46.2339 177.985 47.0803C179.196 47.427 180.467 47.0792 181.365 46.1944C183.932 43.6619 189.107 37.8508 190.213 31.216C191.758 21.951 180.141 19.1266 175.459 26.763C164.507 21.619 158.714 31.8742 164.92 39.0363Z" fill="url(#paint39_radial_9706_4554)"/>
<path d="M164.92 39.0363C169.257 44.0418 175.027 46.2339 177.985 47.0803C179.196 47.427 180.467 47.0792 181.365 46.1944C183.932 43.6619 189.107 37.8508 190.213 31.216C191.758 21.951 180.141 19.1266 175.459 26.763C164.507 21.619 158.714 31.8742 164.92 39.0363Z" fill="url(#paint40_radial_9706_4554)"/>
<path d="M164.92 39.0363C169.257 44.0418 175.027 46.2339 177.985 47.0803C179.196 47.427 180.467 47.0792 181.365 46.1944C183.932 43.6619 189.107 37.8508 190.213 31.216C191.758 21.951 180.141 19.1266 175.459 26.763C164.507 21.619 158.714 31.8742 164.92 39.0363Z" fill="url(#paint41_radial_9706_4554)"/>
<path d="M164.92 39.0363C169.257 44.0418 175.027 46.2339 177.985 47.0803C179.196 47.427 180.467 47.0792 181.365 46.1944C183.932 43.6619 189.107 37.8508 190.213 31.216C191.758 21.951 180.141 19.1266 175.459 26.763C164.507 21.619 158.714 31.8742 164.92 39.0363Z" fill="url(#paint42_radial_9706_4554)"/>
<path d="M164.92 39.0363C169.257 44.0418 175.027 46.2339 177.985 47.0803C179.196 47.427 180.467 47.0792 181.365 46.1944C183.932 43.6619 189.107 37.8508 190.213 31.216C191.758 21.951 180.141 19.1266 175.459 26.763C164.507 21.619 158.714 31.8742 164.92 39.0363Z" fill="url(#paint43_radial_9706_4554)"/>
<path d="M164.92 39.0363C169.257 44.0418 175.027 46.2339 177.985 47.0803C179.196 47.427 180.467 47.0792 181.365 46.1944C183.932 43.6619 189.107 37.8508 190.213 31.216C191.758 21.951 180.141 19.1266 175.459 26.763C164.507 21.619 158.714 31.8742 164.92 39.0363Z" fill="url(#paint44_radial_9706_4554)"/>
<path d="M164.92 39.0363C169.257 44.0418 175.027 46.2339 177.985 47.0803C179.196 47.427 180.467 47.0792 181.365 46.1944C183.932 43.6619 189.107 37.8508 190.213 31.216C191.758 21.951 180.141 19.1266 175.459 26.763C164.507 21.619 158.714 31.8742 164.92 39.0363Z" fill="url(#paint45_radial_9706_4554)"/>
<path d="M164.92 39.0363C169.257 44.0418 175.027 46.2339 177.985 47.0803C179.196 47.427 180.467 47.0792 181.365 46.1944C183.932 43.6619 189.107 37.8508 190.213 31.216C191.758 21.951 180.141 19.1266 175.459 26.763C164.507 21.619 158.714 31.8742 164.92 39.0363Z" fill="url(#paint46_radial_9706_4554)"/>
<path d="M164.92 39.0363C169.257 44.0418 175.027 46.2339 177.985 47.0803C179.196 47.427 180.467 47.0792 181.365 46.1944C183.932 43.6619 189.107 37.8508 190.213 31.216C191.758 21.951 180.141 19.1266 175.459 26.763C164.507 21.619 158.714 31.8742 164.92 39.0363Z" fill="url(#paint47_radial_9706_4554)"/>
<path d="M164.92 39.0363C169.257 44.0418 175.027 46.2339 177.985 47.0803C179.196 47.427 180.467 47.0792 181.365 46.1944C183.932 43.6619 189.107 37.8508 190.213 31.216C191.758 21.951 180.141 19.1266 175.459 26.763C164.507 21.619 158.714 31.8742 164.92 39.0363Z" fill="url(#paint48_radial_9706_4554)"/>
<path d="M164.92 39.0363C169.257 44.0418 175.027 46.2339 177.985 47.0803C179.196 47.427 180.467 47.0792 181.365 46.1944C183.932 43.6619 189.107 37.8508 190.213 31.216C191.758 21.951 180.141 19.1266 175.459 26.763C164.507 21.619 158.714 31.8742 164.92 39.0363Z" fill="url(#paint49_radial_9706_4554)"/>
<path d="M220.073 39.0385C215.738 44.0416 209.971 46.2328 207.014 47.0791C205.803 47.4258 204.531 47.078 203.634 46.1931C201.068 43.6614 195.895 37.8531 194.79 31.2214C193.246 21.9602 204.858 19.137 209.538 26.7702C220.485 21.6283 226.276 31.8794 220.073 39.0385Z" fill="#CB0C4C"/>
<path d="M220.073 39.0385C215.738 44.0416 209.971 46.2328 207.014 47.0791C205.803 47.4258 204.531 47.078 203.634 46.1931C201.068 43.6614 195.895 37.8531 194.79 31.2214C193.246 21.9602 204.858 19.137 209.538 26.7702C220.485 21.6283 226.276 31.8794 220.073 39.0385Z" fill="url(#paint50_radial_9706_4554)"/>
<path d="M220.073 39.0385C215.738 44.0416 209.971 46.2328 207.014 47.0791C205.803 47.4258 204.531 47.078 203.634 46.1931C201.068 43.6614 195.895 37.8531 194.79 31.2214C193.246 21.9602 204.858 19.137 209.538 26.7702C220.485 21.6283 226.276 31.8794 220.073 39.0385Z" fill="url(#paint51_linear_9706_4554)"/>
<path d="M220.073 39.0385C215.738 44.0416 209.971 46.2328 207.014 47.0791C205.803 47.4258 204.531 47.078 203.634 46.1931C201.068 43.6614 195.895 37.8531 194.79 31.2214C193.246 21.9602 204.858 19.137 209.538 26.7702C220.485 21.6283 226.276 31.8794 220.073 39.0385Z" fill="url(#paint52_radial_9706_4554)"/>
<path d="M220.073 39.0385C215.738 44.0416 209.971 46.2328 207.014 47.0791C205.803 47.4258 204.531 47.078 203.634 46.1931C201.068 43.6614 195.895 37.8531 194.79 31.2214C193.246 21.9602 204.858 19.137 209.538 26.7702C220.485 21.6283 226.276 31.8794 220.073 39.0385Z" fill="url(#paint53_radial_9706_4554)"/>
<path d="M220.073 39.0385C215.738 44.0416 209.971 46.2328 207.014 47.0791C205.803 47.4258 204.531 47.078 203.634 46.1931C201.068 43.6614 195.895 37.8531 194.79 31.2214C193.246 21.9602 204.858 19.137 209.538 26.7702C220.485 21.6283 226.276 31.8794 220.073 39.0385Z" fill="url(#paint54_radial_9706_4554)"/>
<path d="M220.073 39.0385C215.738 44.0416 209.971 46.2328 207.014 47.0791C205.803 47.4258 204.531 47.078 203.634 46.1931C201.068 43.6614 195.895 37.8531 194.79 31.2214C193.246 21.9602 204.858 19.137 209.538 26.7702C220.485 21.6283 226.276 31.8794 220.073 39.0385Z" fill="url(#paint55_radial_9706_4554)"/>
<path d="M220.073 39.0385C215.738 44.0416 209.971 46.2328 207.014 47.0791C205.803 47.4258 204.531 47.078 203.634 46.1931C201.068 43.6614 195.895 37.8531 194.79 31.2214C193.246 21.9602 204.858 19.137 209.538 26.7702C220.485 21.6283 226.276 31.8794 220.073 39.0385Z" fill="url(#paint56_radial_9706_4554)"/>
<path d="M220.073 39.0385C215.738 44.0416 209.971 46.2328 207.014 47.0791C205.803 47.4258 204.531 47.078 203.634 46.1931C201.068 43.6614 195.895 37.8531 194.79 31.2214C193.246 21.9602 204.858 19.137 209.538 26.7702C220.485 21.6283 226.276 31.8794 220.073 39.0385Z" fill="url(#paint57_radial_9706_4554)"/>
<path d="M220.073 39.0385C215.738 44.0416 209.971 46.2328 207.014 47.0791C205.803 47.4258 204.531 47.078 203.634 46.1931C201.068 43.6614 195.895 37.8531 194.79 31.2214C193.246 21.9602 204.858 19.137 209.538 26.7702C220.485 21.6283 226.276 31.8794 220.073 39.0385Z" fill="url(#paint58_radial_9706_4554)"/>
<path d="M220.073 39.0385C215.738 44.0416 209.971 46.2328 207.014 47.0791C205.803 47.4258 204.531 47.078 203.634 46.1931C201.068 43.6614 195.895 37.8531 194.79 31.2214C193.246 21.9602 204.858 19.137 209.538 26.7702C220.485 21.6283 226.276 31.8794 220.073 39.0385Z" fill="url(#paint59_radial_9706_4554)"/>
<defs>
<radialGradient id="paint0_radial_9706_4554" cx="0" cy="0" r="1" gradientUnits="userSpaceOnUse" gradientTransform="translate(67.8524 41.4829) rotate(131.878) scale(87.6345)">
<stop stop-color="#FFF478"/>
<stop offset="0.474827" stop-color="#FFB02E"/>
<stop offset="1" stop-color="#F70A8D"/>
</radialGradient>
<radialGradient id="paint1_radial_9706_4554" cx="0" cy="0" r="1" gradientUnits="userSpaceOnUse" gradientTransform="translate(46.4774 49.3579) rotate(101.31) scale(40.1548 51.4306)">
<stop offset="0.787821" stop-color="#F59639" stop-opacity="0"/>
<stop offset="0.972509" stop-color="#FF7DCE"/>
</radialGradient>
<radialGradient id="paint2_radial_9706_4554" cx="0" cy="0" r="1" gradientUnits="userSpaceOnUse" gradientTransform="translate(50.9774 52.7329) rotate(135) scale(92.2774)">
<stop offset="0.314853" stop-opacity="0"/>
<stop offset="1"/>
</radialGradient>
<radialGradient id="paint3_radial_9706_4554" cx="0" cy="0" r="1" gradientUnits="userSpaceOnUse" gradientTransform="translate(46.4774 59.4829) rotate(77.692) scale(63.3306)">
<stop offset="0.507903" stop-color="#7D6133" stop-opacity="0"/>
<stop offset="1" stop-color="#715B32"/>
</radialGradient>
<radialGradient id="paint4_radial_9706_4554" cx="0" cy="0" r="1" gradientUnits="userSpaceOnUse" gradientTransform="translate(47.6024 58.3579) rotate(55.7131) scale(29.9554 21.7132)">
<stop stop-color="#FFB849"/>
<stop offset="1" stop-color="#FFB847" stop-opacity="0"/>
</radialGradient>
<radialGradient id="paint5_radial_9706_4554" cx="0" cy="0" r="1" gradientUnits="userSpaceOnUse" gradientTransform="translate(56.6024 61.7329) rotate(9.86581) scale(26.2634)">
<stop stop-color="#FFA64B"/>
<stop offset="0.900412" stop-color="#FFAE46" stop-opacity="0"/>
</radialGradient>
<radialGradient id="paint6_radial_9706_4554" cx="0" cy="0" r="1" gradientUnits="userSpaceOnUse" gradientTransform="translate(49.8524 54.9829) rotate(43.9708) scale(132.869)">
<stop offset="0.185425" stop-opacity="0"/>
<stop offset="1" stop-opacity="0.4"/>
</radialGradient>
<linearGradient id="paint7_linear_9706_4554" x1="35.6794" y1="36.2255" x2="34.8046" y2="46.5002" gradientUnits="userSpaceOnUse">
<stop stop-color="white"/>
<stop offset="1" stop-color="white" stop-opacity="0"/>
</linearGradient>
<linearGradient id="paint8_linear_9706_4554" x1="60.2888" y1="36.2255" x2="59.4139" y2="46.5002" gradientUnits="userSpaceOnUse">
<stop stop-color="white"/>
<stop offset="1" stop-color="white" stop-opacity="0"/>
</linearGradient>
<radialGradient id="paint9_radial_9706_4554" cx="0" cy="0" r="1" gradientUnits="userSpaceOnUse" gradientTransform="translate(46.478 81.9827) rotate(-90) scale(24.75 49.5)">
<stop stop-color="#F70A8D"/>
<stop offset="1" stop-color="#89029C"/>
</radialGradient>
<linearGradient id="paint10_linear_9706_4554" x1="46.4776" y1="57.2336" x2="46.4776" y2="60.6086" gradientUnits="userSpaceOnUse">
<stop stop-color="#ECCDFF"/>
<stop offset="1" stop-color="white"/>
</linearGradient>
<radialGradient id="paint11_radial_9706_4554" cx="0" cy="0" r="1" gradientUnits="userSpaceOnUse" gradientTransform="translate(141.377 59.9026) rotate(131.878) scale(87.6345)">
<stop stop-color="#FFF478"/>
<stop offset="0.474827" stop-color="#FFB02E"/>
<stop offset="1" stop-color="#F70A8D"/>
</radialGradient>
<radialGradient id="paint12_radial_9706_4554" cx="0" cy="0" r="1" gradientUnits="userSpaceOnUse" gradientTransform="translate(124.502 71.1526) rotate(135) scale(92.2774)">
<stop offset="0.314853" stop-opacity="0"/>
<stop offset="1"/>
</radialGradient>
<radialGradient id="paint13_radial_9706_4554" cx="0" cy="0" r="1" gradientUnits="userSpaceOnUse" gradientTransform="translate(120.002 77.9026) rotate(77.692) scale(63.3306)">
<stop offset="0.507903" stop-color="#7D6133" stop-opacity="0"/>
<stop offset="1" stop-color="#715B32"/>
</radialGradient>
<radialGradient id="paint14_radial_9706_4554" cx="0" cy="0" r="1" gradientUnits="userSpaceOnUse" gradientTransform="translate(121.127 76.7776) rotate(55.7131) scale(29.9554 21.7132)">
<stop stop-color="#FFB849"/>
<stop offset="1" stop-color="#FFB847" stop-opacity="0"/>
</radialGradient>
<radialGradient id="paint15_radial_9706_4554" cx="0" cy="0" r="1" gradientUnits="userSpaceOnUse" gradientTransform="translate(130.127 80.1526) rotate(9.86581) scale(26.2634)">
<stop stop-color="#FFA64B"/>
<stop offset="0.900412" stop-color="#FFAE46" stop-opacity="0"/>
</radialGradient>
<radialGradient id="paint16_radial_9706_4554" cx="0" cy="0" r="1" gradientUnits="userSpaceOnUse" gradientTransform="translate(123.377 73.4026) rotate(43.9708) scale(132.869)">
<stop offset="0.185425" stop-opacity="0"/>
<stop offset="1" stop-opacity="0.4"/>
</radialGradient>
<radialGradient id="paint17_radial_9706_4554" cx="0" cy="0" r="1" gradientUnits="userSpaceOnUse" gradientTransform="translate(112.469 61.6697) rotate(135) scale(20.488 10.6039)">
<stop stop-color="#392108"/>
<stop offset="1" stop-color="#C87928" stop-opacity="0"/>
</radialGradient>
<radialGradient id="paint18_radial_9706_4554" cx="0" cy="0" r="1" gradientUnits="userSpaceOnUse" gradientTransform="translate(134.729 63.5973) rotate(135) scale(17.2568 9.74173)">
<stop stop-color="#392108"/>
<stop offset="1" stop-color="#C87928" stop-opacity="0"/>
</radialGradient>
<linearGradient id="paint19_linear_9706_4554" x1="121.127" y1="57.6519" x2="118.877" y2="73.4019" gradientUnits="userSpaceOnUse">
<stop stop-color="#553B3E"/>
<stop offset="1" stop-color="#3D2432"/>
</linearGradient>
<linearGradient id="paint20_linear_9706_4554" x1="121.127" y1="57.6519" x2="118.877" y2="73.4019" gradientUnits="userSpaceOnUse">
<stop stop-color="#553B3E"/>
<stop offset="1" stop-color="#3D2432"/>
</linearGradient>
<linearGradient id="paint21_linear_9706_4554" x1="120.002" y1="83.5269" x2="120.002" y2="85.7769" gradientUnits="userSpaceOnUse">
<stop stop-color="#4F3C43"/>
<stop offset="1" stop-color="#512756"/>
</linearGradient>
<radialGradient id="paint22_radial_9706_4554" cx="0" cy="0" r="1" gradientUnits="userSpaceOnUse" gradientTransform="translate(212.936 37.422) rotate(132.839) scale(80.6827)">
<stop stop-color="#FFF478"/>
<stop offset="0.474827" stop-color="#FFB02E"/>
<stop offset="1" stop-color="#F70A8D"/>
</radialGradient>
<radialGradient id="paint23_radial_9706_4554" cx="0" cy="0" r="1" gradientUnits="userSpaceOnUse" gradientTransform="translate(212.936 37.422) rotate(131.878) scale(83.7922)">
<stop stop-color="#FFF478"/>
<stop offset="0.474827" stop-color="#FFB02E"/>
<stop offset="1" stop-color="#F70A8D"/>
</radialGradient>
<radialGradient id="paint24_radial_9706_4554" cx="0" cy="0" r="1" gradientUnits="userSpaceOnUse" gradientTransform="translate(192.498 44.9517) rotate(101.31) scale(38.3942 49.1756)">
<stop offset="0.787821" stop-color="#F59639" stop-opacity="0"/>
<stop offset="0.972509" stop-color="#FF7DCE"/>
</radialGradient>
<radialGradient id="paint25_radial_9706_4554" cx="0" cy="0" r="1" gradientUnits="userSpaceOnUse" gradientTransform="translate(196.801 48.1787) rotate(135) scale(88.2315)">
<stop offset="0.314853" stop-opacity="0"/>
<stop offset="1"/>
</radialGradient>
<radialGradient id="paint26_radial_9706_4554" cx="0" cy="0" r="1" gradientUnits="userSpaceOnUse" gradientTransform="translate(192.498 54.6328) rotate(77.692) scale(60.5539)">
<stop offset="0.507903" stop-color="#7D6133" stop-opacity="0"/>
<stop offset="1" stop-color="#715B32"/>
</radialGradient>
<radialGradient id="paint27_radial_9706_4554" cx="0" cy="0" r="1" gradientUnits="userSpaceOnUse" gradientTransform="translate(193.574 53.5571) rotate(55.7131) scale(28.642 20.7612)">
<stop stop-color="#FFB849"/>
<stop offset="1" stop-color="#FFB847" stop-opacity="0"/>
</radialGradient>
<radialGradient id="paint28_radial_9706_4554" cx="0" cy="0" r="1" gradientUnits="userSpaceOnUse" gradientTransform="translate(202.179 56.7841) rotate(9.86581) scale(25.1119)">
<stop stop-color="#FFA64B"/>
<stop offset="0.900412" stop-color="#FFAE46" stop-opacity="0"/>
</radialGradient>
<radialGradient id="paint29_radial_9706_4554" cx="0" cy="0" r="1" gradientUnits="userSpaceOnUse" gradientTransform="translate(195.725 50.3301) rotate(43.9708) scale(127.043)">
<stop offset="0.185425" stop-opacity="0"/>
<stop offset="1" stop-opacity="0.4"/>
</radialGradient>
<radialGradient id="paint30_radial_9706_4554" cx="0" cy="0" r="1" gradientUnits="userSpaceOnUse" gradientTransform="translate(168.931 38.8825) rotate(35.4031) scale(14.8404 7.75051)">
<stop stop-color="#CE5635"/>
<stop offset="1" stop-color="#CE5635" stop-opacity="0"/>
</radialGradient>
<radialGradient id="paint31_radial_9706_4554" cx="0" cy="0" r="1" gradientUnits="userSpaceOnUse" gradientTransform="translate(197.945 31.4321) rotate(57.7713) scale(8.45013)">
<stop stop-color="#DF7536"/>
<stop offset="1" stop-color="#DF7536" stop-opacity="0"/>
</radialGradient>
<radialGradient id="paint32_radial_9706_4554" cx="0" cy="0" r="1" gradientUnits="userSpaceOnUse" gradientTransform="translate(200.359 35.638) rotate(62.5467) scale(13.1639 8.26644)">
<stop stop-color="#DF7536"/>
<stop offset="1" stop-color="#DF7536" stop-opacity="0"/>
</radialGradient>
<radialGradient id="paint33_radial_9706_4554" cx="0" cy="0" r="1" gradientUnits="userSpaceOnUse" gradientTransform="translate(200.027 37.2427) rotate(49.834) scale(13.8156 8.73507)">
<stop stop-color="#DF7536"/>
<stop offset="1" stop-color="#DF7536" stop-opacity="0"/>
</radialGradient>
<radialGradient id="paint34_radial_9706_4554" cx="0" cy="0" r="1" gradientUnits="userSpaceOnUse" gradientTransform="translate(192.499 76.1446) rotate(-90) scale(23.6648 47.3297)">
<stop stop-color="#F70A8D"/>
<stop offset="1" stop-color="#89029C"/>
</radialGradient>
<linearGradient id="paint35_linear_9706_4554" x1="192.5" y1="52.4797" x2="192.5" y2="55.7068" gradientUnits="userSpaceOnUse">
<stop stop-color="#ECCDFF"/>
<stop offset="1" stop-color="white"/>
</linearGradient>
<linearGradient id="paint36_linear_9706_4554" x1="209.717" y1="25.2402" x2="205.127" y2="48.6128" gradientUnits="userSpaceOnUse">
<stop stop-color="#CA0B4A"/>
<stop offset="1" stop-color="#F70A8D"/>
</linearGradient>
<radialGradient id="paint37_radial_9706_4554" cx="0" cy="0" r="1" gradientUnits="userSpaceOnUse" gradientTransform="translate(173.199 45.2028) rotate(16.6992) scale(10.2475 4.57921)">
<stop stop-color="#D6246F"/>
<stop offset="1" stop-color="#D6246F" stop-opacity="0"/>
</radialGradient>
<radialGradient id="paint38_radial_9706_4554" cx="0" cy="0" r="1" gradientUnits="userSpaceOnUse" gradientTransform="translate(168.593 41.6542) rotate(33.5535) scale(10.0565 4.40532)">
<stop stop-color="#D6246F"/>
<stop offset="1" stop-color="#D6246F" stop-opacity="0"/>
</radialGradient>
<radialGradient id="paint39_radial_9706_4554" cx="0" cy="0" r="1" gradientUnits="userSpaceOnUse" gradientTransform="translate(163.649 35.9413) rotate(51.7817) scale(12.1719 2.42426)">
<stop stop-color="#D6246F"/>
<stop offset="1" stop-color="#D6246F" stop-opacity="0"/>
</radialGradient>
<radialGradient id="paint40_radial_9706_4554" cx="0" cy="0" r="1" gradientUnits="userSpaceOnUse" gradientTransform="translate(162.756 35.903) rotate(58.4957) scale(3.84421 0.932577)">
<stop stop-color="#A41B36"/>
<stop offset="1" stop-color="#A41B36" stop-opacity="0"/>
</radialGradient>
<radialGradient id="paint41_radial_9706_4554" cx="0" cy="0" r="1" gradientUnits="userSpaceOnUse" gradientTransform="translate(162.164 32.3718) rotate(75.0124) scale(4.14966 0.871061)">
<stop stop-color="#A41B36"/>
<stop offset="1" stop-color="#A41B36" stop-opacity="0"/>
</radialGradient>
<radialGradient id="paint42_radial_9706_4554" cx="0" cy="0" r="1" gradientUnits="userSpaceOnUse" gradientTransform="translate(162.379 29.2056) rotate(90) scale(3.17634 0.964189)">
<stop stop-color="#A41B36"/>
<stop offset="1" stop-color="#A41B36" stop-opacity="0"/>
</radialGradient>
<radialGradient id="paint43_radial_9706_4554" cx="0" cy="0" r="1" gradientUnits="userSpaceOnUse" gradientTransform="translate(162.488 27.557) rotate(91.2259) scale(5.10692 1.55022)">
<stop stop-color="#A41B36"/>
<stop offset="1" stop-color="#A41B36" stop-opacity="0"/>
</radialGradient>
<radialGradient id="paint44_radial_9706_4554" cx="0" cy="0" r="1" gradientUnits="userSpaceOnUse" gradientTransform="translate(164.616 26.5239) rotate(116.065) scale(2.54128 0.771413)">
<stop stop-color="#A41B36"/>
<stop offset="1" stop-color="#A41B36" stop-opacity="0"/>
</radialGradient>
<radialGradient id="paint45_radial_9706_4554" cx="0" cy="0" r="1" gradientUnits="userSpaceOnUse" gradientTransform="translate(175.305 40.7565) rotate(39.4337) scale(8.8966 5.6021)">
<stop stop-color="#F944A5" stop-opacity="0.69"/>
<stop offset="1" stop-color="#F944A5" stop-opacity="0"/>
</radialGradient>
<radialGradient id="paint46_radial_9706_4554" cx="0" cy="0" r="1" gradientUnits="userSpaceOnUse" gradientTransform="translate(181.874 33.8074) rotate(111.882) scale(9.25378 3.47612)">
<stop stop-color="#E63277"/>
<stop offset="1" stop-color="#E63277" stop-opacity="0"/>
</radialGradient>
<radialGradient id="paint47_radial_9706_4554" cx="0" cy="0" r="1" gradientUnits="userSpaceOnUse" gradientTransform="translate(174.151 30.823) rotate(46.1088) scale(7.79357 4.31866)">
<stop offset="0.194665" stop-color="#EC6686"/>
<stop offset="1" stop-color="#EC6686" stop-opacity="0"/>
</radialGradient>
<radialGradient id="paint48_radial_9706_4554" cx="0" cy="0" r="1" gradientUnits="userSpaceOnUse" gradientTransform="translate(184.999 27.4625) rotate(107.745) scale(5.66058 4.44386)">
<stop stop-color="#F87797"/>
<stop offset="1" stop-color="#EB6385" stop-opacity="0"/>
</radialGradient>
<radialGradient id="paint49_radial_9706_4554" cx="0" cy="0" r="1" gradientUnits="userSpaceOnUse" gradientTransform="translate(175.518 26.2497) rotate(71.0992) scale(7.06351 1.21905)">
<stop stop-color="#CE2356"/>
<stop offset="1" stop-color="#DE265D" stop-opacity="0"/>
</radialGradient>
<radialGradient id="paint50_radial_9706_4554" cx="0" cy="0" r="1" gradientUnits="userSpaceOnUse" gradientTransform="translate(206.841 28.1322) rotate(56.0304) scale(8.02967 5.04436)">
<stop offset="0.363657" stop-color="#EC6686"/>
<stop offset="1" stop-color="#EC6686" stop-opacity="0"/>
</radialGradient>
<linearGradient id="paint51_linear_9706_4554" x1="210.077" y1="29.2449" x2="208.061" y2="28.8993" gradientUnits="userSpaceOnUse">
<stop offset="0.308486" stop-color="#CB0C4C"/>
<stop offset="1" stop-color="#CB0C4C" stop-opacity="0"/>
</linearGradient>
<radialGradient id="paint52_radial_9706_4554" cx="0" cy="0" r="1" gradientUnits="userSpaceOnUse" gradientTransform="translate(206.024 40.5073) rotate(49.9555) scale(16.253 10.2343)">
<stop stop-color="#F944A5" stop-opacity="0.69"/>
<stop offset="1" stop-color="#F944A5" stop-opacity="0"/>
</radialGradient>
<radialGradient id="paint53_radial_9706_4554" cx="0" cy="0" r="1" gradientUnits="userSpaceOnUse" gradientTransform="translate(209.656 26.1046) rotate(97.2889) scale(5.25048 0.906155)">
<stop stop-color="#CE2356"/>
<stop offset="1" stop-color="#DE265D" stop-opacity="0"/>
</radialGradient>
<radialGradient id="paint54_radial_9706_4554" cx="0" cy="0" r="1" gradientUnits="userSpaceOnUse" gradientTransform="translate(214.137 33.8117) rotate(130.989) scale(9.87964 3.71124)">
<stop stop-color="#E63277"/>
<stop offset="1" stop-color="#E63277" stop-opacity="0"/>
</radialGradient>
<radialGradient id="paint55_radial_9706_4554" cx="0" cy="0" r="1" gradientUnits="userSpaceOnUse" gradientTransform="translate(217.293 30.8561) rotate(137.878) scale(5.86747 3.36169)">
<stop stop-color="#F87797"/>
<stop offset="1" stop-color="#EB6385" stop-opacity="0"/>
</radialGradient>
<radialGradient id="paint56_radial_9706_4554" cx="0" cy="0" r="1" gradientUnits="userSpaceOnUse" gradientTransform="translate(203.513 45.3252) rotate(31.4346) scale(5.99813 2.68032)">
<stop stop-color="#D6246F"/>
<stop offset="1" stop-color="#D6246F" stop-opacity="0"/>
</radialGradient>
<radialGradient id="paint57_radial_9706_4554" cx="0" cy="0" r="1" gradientUnits="userSpaceOnUse" gradientTransform="translate(198.892 40.8462) rotate(45.8212) scale(8.87539 3.88792)">
<stop stop-color="#D6246F"/>
<stop offset="1" stop-color="#D6246F" stop-opacity="0"/>
</radialGradient>
<radialGradient id="paint58_radial_9706_4554" cx="0" cy="0" r="1" gradientUnits="userSpaceOnUse" gradientTransform="translate(195.977 33.6656) rotate(65.4042) scale(11.1029 2.21134)">
<stop stop-color="#D6246F"/>
<stop offset="1" stop-color="#D6246F" stop-opacity="0"/>
</radialGradient>
<radialGradient id="paint59_radial_9706_4554" cx="0" cy="0" r="1" gradientUnits="userSpaceOnUse" gradientTransform="translate(216.299 39.7332) rotate(117.896) scale(8.46146 7.89348)">
<stop stop-color="#F944A5" stop-opacity="0.69"/>
<stop offset="1" stop-color="#F944A5" stop-opacity="0"/>
</radialGradient>
</defs>
</svg>
