<svg viewBox="0 0 240 120" fill="none" xmlns="http://www.w3.org/2000/svg">
<path d="M17.04 65.9085C-0.205665 75.866 10.3533 114.495 36.8246 120H215.077C236.014 108.551 243.677 70.8473 228.431 57.308C213.185 43.7687 232.14 50.6198 228.431 35.3831C224.722 20.1465 198.82 2.33862 161.604 4.77799C124.387 7.21735 98.0988 13.5423 63.245 9.20047C28.3911 4.85861 14.5828 22.2363 10.9495 38.7499C7.31626 55.2635 23.6979 62.0643 17.04 65.9085Z" fill="url(#paint0_linear_10537_1056)"/>
<path d="M17.04 65.9085C-0.205665 75.866 10.3533 114.495 36.8246 120H215.077C236.014 108.551 243.677 70.8473 228.431 57.308C213.185 43.7687 232.14 50.6198 228.431 35.3831C224.722 20.1465 198.82 2.33862 161.604 4.77799C124.387 7.21735 98.0988 13.5423 63.245 9.20047C28.3911 4.85861 14.5828 22.2363 10.9495 38.7499C7.31626 55.2635 23.6979 62.0643 17.04 65.9085Z" fill="url(#paint1_radial_10537_1056)"/>
<path d="M17.04 65.9085C-0.205665 75.866 10.3533 114.495 36.8246 120H215.077C236.014 108.551 243.677 70.8473 228.431 57.308C213.185 43.7687 232.14 50.6198 228.431 35.3831C224.722 20.1465 198.82 2.33862 161.604 4.77799C124.387 7.21735 98.0988 13.5423 63.245 9.20047C28.3911 4.85861 14.5828 22.2363 10.9495 38.7499C7.31626 55.2635 23.6979 62.0643 17.04 65.9085Z" fill="url(#paint2_radial_10537_1056)"/>
<path d="M17.04 65.9085C-0.205665 75.866 10.3533 114.495 36.8246 120H215.077C236.014 108.551 243.677 70.8473 228.431 57.308C213.185 43.7687 232.14 50.6198 228.431 35.3831C224.722 20.1465 198.82 2.33862 161.604 4.77799C124.387 7.21735 98.0988 13.5423 63.245 9.20047C28.3911 4.85861 14.5828 22.2363 10.9495 38.7499C7.31626 55.2635 23.6979 62.0643 17.04 65.9085Z" fill="url(#paint3_radial_10537_1056)"/>
<path d="M26.7827 80.6313C17.1236 88.3344 13.3846 89.9392 18.9931 112.728C30.8329 109.839 54.0763 102.264 52.3315 95.0747C50.1504 86.0878 72.8959 80.6313 71.338 73.8912C69.7801 67.1511 66.0411 62.3366 69.1569 56.5593C72.2727 50.7819 87.8518 52.7077 95.0182 44.6836C102.185 36.6596 127.734 40.1902 136.147 49.4981C144.56 58.806 151.414 54.9544 165.436 52.7077C179.457 50.461 171.667 66.1881 175.718 76.4589C179.768 86.7297 186.623 88.6555 180.08 104.062C193.582 104.276 221.022 103.933 222.767 100.852C224.948 97.0005 233.672 70.3606 220.586 63.9414C207.499 57.5221 207.811 61.6946 202.825 42.1159C197.84 22.5372 183.196 21.5744 167.617 23.5001C152.038 25.4259 146.556 25.1047 129.73 23.4999C112.905 21.8951 104.677 23.1791 92.5255 18.3647C80.3738 13.5502 64.7948 16.7598 59.8094 30.8822C54.8241 45.0045 43.9188 40.832 32.0787 54.9544C20.2386 69.0767 36.4417 72.9283 26.7827 80.6313Z" fill="url(#paint4_radial_10537_1056)"/>
<path d="M26.7827 80.6313C17.1236 88.3344 13.3846 89.9392 18.9931 112.728C30.8329 109.839 54.0763 102.264 52.3315 95.0747C50.1504 86.0878 72.8959 80.6313 71.338 73.8912C69.7801 67.1511 66.0411 62.3366 69.1569 56.5593C72.2727 50.7819 87.8518 52.7077 95.0182 44.6836C102.185 36.6596 127.734 40.1902 136.147 49.4981C144.56 58.806 151.414 54.9544 165.436 52.7077C179.457 50.461 171.667 66.1881 175.718 76.4589C179.768 86.7297 186.623 88.6555 180.08 104.062C193.582 104.276 221.022 103.933 222.767 100.852C224.948 97.0005 233.672 70.3606 220.586 63.9414C207.499 57.5221 207.811 61.6946 202.825 42.1159C197.84 22.5372 183.196 21.5744 167.617 23.5001C152.038 25.4259 146.556 25.1047 129.73 23.4999C112.905 21.8951 104.677 23.1791 92.5255 18.3647C80.3738 13.5502 64.7948 16.7598 59.8094 30.8822C54.8241 45.0045 43.9188 40.832 32.0787 54.9544C20.2386 69.0767 36.4417 72.9283 26.7827 80.6313Z" fill="url(#paint5_radial_10537_1056)"/>
<path d="M26.7827 80.6313C17.1236 88.3344 13.3846 89.9392 18.9931 112.728C30.8329 109.839 54.0763 102.264 52.3315 95.0747C50.1504 86.0878 72.8959 80.6313 71.338 73.8912C69.7801 67.1511 66.0411 62.3366 69.1569 56.5593C72.2727 50.7819 87.8518 52.7077 95.0182 44.6836C102.185 36.6596 127.734 40.1902 136.147 49.4981C144.56 58.806 151.414 54.9544 165.436 52.7077C179.457 50.461 171.667 66.1881 175.718 76.4589C179.768 86.7297 186.623 88.6555 180.08 104.062C193.582 104.276 221.022 103.933 222.767 100.852C224.948 97.0005 233.672 70.3606 220.586 63.9414C207.499 57.5221 207.811 61.6946 202.825 42.1159C197.84 22.5372 183.196 21.5744 167.617 23.5001C152.038 25.4259 146.556 25.1047 129.73 23.4999C112.905 21.8951 104.677 23.1791 92.5255 18.3647C80.3738 13.5502 64.7948 16.7598 59.8094 30.8822C54.8241 45.0045 43.9188 40.832 32.0787 54.9544C20.2386 69.0767 36.4417 72.9283 26.7827 80.6313Z" fill="url(#paint6_radial_10537_1056)"/>
<path d="M33.1282 44.8633C33.1282 45.6504 32.4688 46.2884 31.6554 46.2884C30.842 46.2884 30.1826 45.6504 30.1826 44.8633C30.1826 44.0763 30.842 43.4382 31.6554 43.4382C32.4688 43.4382 33.1282 44.0763 33.1282 44.8633Z" fill="url(#paint7_radial_10537_1056)"/>
<path d="M46.8547 58.407C46.8547 59.194 46.1954 59.8321 45.382 59.8321C44.5686 59.8321 43.9092 59.194 43.9092 58.407C43.9092 57.6199 44.5686 56.9819 45.382 56.9819C46.1954 56.9819 46.8547 57.6199 46.8547 58.407Z" fill="url(#paint8_radial_10537_1056)"/>
<path d="M84.8684 78.0441C84.8684 78.8311 84.209 79.4692 83.3956 79.4692C82.5822 79.4692 81.9229 78.8311 81.9229 78.0441C81.9229 77.257 82.5822 76.619 83.3956 76.619C84.209 76.619 84.8684 77.257 84.8684 78.0441Z" fill="url(#paint9_radial_10537_1056)"/>
<path d="M56.7302 50.0221C56.7302 50.8092 56.0708 51.4472 55.2575 51.4472C54.4441 51.4472 53.7847 50.8092 53.7847 50.0221C53.7847 49.2351 54.4441 48.597 55.2575 48.597C56.0708 48.597 56.7302 49.2351 56.7302 50.0221Z" fill="url(#paint10_radial_10537_1056)"/>
<path d="M39.0169 23.8561C39.0169 24.6431 38.3575 25.2812 37.5441 25.2812C36.7307 25.2812 36.0713 24.6431 36.0713 23.8561C36.0713 23.069 36.7307 22.431 37.5441 22.431C38.3575 22.431 39.0169 23.069 39.0169 23.8561Z" fill="url(#paint11_radial_10537_1056)"/>
<path d="M105.034 35.7546C105.034 36.5416 104.375 37.1797 103.561 37.1797C102.748 37.1797 102.088 36.5416 102.088 35.7546C102.088 34.9675 102.748 34.3295 103.561 34.3295C104.375 34.3295 105.034 34.9675 105.034 35.7546Z" fill="url(#paint12_radial_10537_1056)"/>
<path d="M93.8562 58.4067C93.8562 59.1937 93.1968 59.8318 92.3834 59.8318C91.57 59.8318 90.9106 59.1937 90.9106 58.4067C90.9106 57.6196 91.57 56.9816 92.3834 56.9816C93.1968 56.9816 93.8562 57.6196 93.8562 58.4067Z" fill="url(#paint13_radial_10537_1056)"/>
<path d="M120.922 50.0221C120.922 50.8092 120.262 51.4472 119.449 51.4472C118.635 51.4472 117.976 50.8092 117.976 50.0221C117.976 49.2351 118.635 48.597 119.449 48.597C120.262 48.597 120.922 49.2351 120.922 50.0221Z" fill="url(#paint14_radial_10537_1056)"/>
<path d="M133.474 24.8119C133.474 25.5989 132.815 26.237 132.002 26.237C131.188 26.237 130.529 25.5989 130.529 24.8119C130.529 24.0248 131.188 23.3868 132.002 23.3868C132.815 23.3868 133.474 24.0248 133.474 24.8119Z" fill="url(#paint15_radial_10537_1056)"/>
<path d="M114.936 18.6362C114.936 19.4232 114.277 20.0613 113.464 20.0613C112.65 20.0613 111.991 19.4232 111.991 18.6362C111.991 17.8491 112.65 17.2111 113.464 17.2111C114.277 17.2111 114.936 17.8491 114.936 18.6362Z" fill="url(#paint16_radial_10537_1056)"/>
<path d="M198.806 19.7078C198.806 20.4948 198.147 21.1328 197.334 21.1328C196.52 21.1328 195.861 20.4948 195.861 19.7078C195.861 18.9207 196.52 18.2827 197.334 18.2827C198.147 18.2827 198.806 18.9207 198.806 19.7078Z" fill="url(#paint17_radial_10537_1056)"/>
<path d="M191.194 32.0206C191.194 32.8077 190.534 33.4457 189.721 33.4457C188.907 33.4457 188.248 32.8077 188.248 32.0206C188.248 31.2336 188.907 30.5955 189.721 30.5955C190.534 30.5955 191.194 31.2336 191.194 32.0206Z" fill="url(#paint18_radial_10537_1056)"/>
<path d="M219.186 47.1719C219.186 47.9589 218.526 48.597 217.713 48.597C216.9 48.597 216.24 47.9589 216.24 47.1719C216.24 46.3848 216.9 45.7468 217.713 45.7468C218.526 45.7468 219.186 46.3848 219.186 47.1719Z" fill="url(#paint19_radial_10537_1056)"/>
<path d="M205.775 61.4637C205.775 62.2507 205.115 62.8888 204.302 62.8888C203.488 62.8888 202.829 62.2507 202.829 61.4637C202.829 60.6766 203.488 60.0386 204.302 60.0386C205.115 60.0386 205.775 60.6766 205.775 61.4637Z" fill="url(#paint20_radial_10537_1056)"/>
<path d="M55.2577 28.5458C55.2577 30.6079 53.53 32.2797 51.3989 32.2797C49.2677 32.2797 47.54 30.6079 47.54 28.5458C47.54 26.4836 49.2677 24.8119 51.3989 24.8119C53.53 24.8119 55.2577 26.4836 55.2577 28.5458Z" fill="url(#paint21_radial_10537_1056)"/>
<path d="M27.3827 38.0634C27.3827 40.1255 25.655 41.7972 23.5239 41.7972C21.3927 41.7972 19.665 40.1255 19.665 38.0634C19.665 36.0012 21.3927 34.3295 23.5239 34.3295C25.655 34.3295 27.3827 36.0012 27.3827 38.0634Z" fill="url(#paint22_radial_10537_1056)"/>
<path d="M93.8549 43.4382C93.8549 45.5003 92.1272 47.1721 89.996 47.1721C87.8649 47.1721 86.1372 45.5003 86.1372 43.4382C86.1372 41.376 87.8649 39.7043 89.996 39.7043C92.1272 39.7043 93.8549 41.376 93.8549 43.4382Z" fill="url(#paint23_radial_10537_1056)"/>
<path d="M173.148 13.2509C173.148 15.313 171.421 16.9847 169.289 16.9847C167.158 16.9847 165.431 15.313 165.431 13.2509C165.431 11.1887 167.158 9.51697 169.289 9.51697C171.421 9.51697 173.148 11.1887 173.148 13.2509Z" fill="url(#paint24_radial_10537_1056)"/>
<path d="M209.632 39.4885C209.632 41.5506 207.904 43.2224 205.773 43.2224C203.642 43.2224 201.914 41.5506 201.914 39.4885C201.914 37.4263 203.642 35.7546 205.773 35.7546C207.904 35.7546 209.632 37.4263 209.632 39.4885Z" fill="url(#paint25_radial_10537_1056)"/>
<path d="M73.5358 25.0858L74.0378 28.8704L77.6761 27.3988L74.5398 29.7117L77.6761 32.0247L74.0378 30.5531L73.5358 34.3377L73.0338 30.5531L69.3955 32.0247L72.5318 29.7117L69.3955 27.3988L73.0338 28.8704L73.5358 25.0858Z" fill="url(#paint26_radial_10537_1056)"/>
<path d="M207.244 19.7081L207.746 23.4928L211.385 22.0211L208.248 24.3341L211.385 26.6471L207.746 25.1754L207.244 28.9601L206.742 25.1754L203.104 26.6471L206.24 24.3341L203.104 22.0211L206.742 23.4928L207.244 19.7081Z" fill="url(#paint27_radial_10537_1056)"/>
<path d="M34.6003 59.8318C35.7836 62.6328 37.7067 64.556 40.5077 65.7393C37.7067 66.9225 35.7836 68.8457 34.6003 71.6467C33.417 68.8457 31.4939 66.9225 28.6929 65.7393C31.4939 64.556 33.417 62.6328 34.6003 59.8318Z" fill="url(#paint28_radial_10537_1056)"/>
<path d="M34.6003 59.8318C35.7836 62.6328 37.7067 64.556 40.5077 65.7393C37.7067 66.9225 35.7836 68.8457 34.6003 71.6467C33.417 68.8457 31.4939 66.9225 28.6929 65.7393C31.4939 64.556 33.417 62.6328 34.6003 59.8318Z" fill="url(#paint29_radial_10537_1056)"/>
<path d="M101.462 66.5143C102.177 68.2072 103.34 69.3695 105.033 70.0846C103.34 70.7997 102.177 71.9621 101.462 73.6549C100.747 71.9621 99.5849 70.7997 97.8921 70.0846C99.5849 69.3695 100.747 68.2072 101.462 66.5143Z" fill="url(#paint30_radial_10537_1056)"/>
<path d="M101.462 66.5143C102.177 68.2072 103.34 69.3695 105.033 70.0846C103.34 70.7997 102.177 71.9621 101.462 73.6549C100.747 71.9621 99.5849 70.7997 97.8921 70.0846C99.5849 69.3695 100.747 68.2072 101.462 66.5143Z" fill="url(#paint31_radial_10537_1056)"/>
<path d="M123.135 29.7118C124.319 32.5128 126.242 34.436 129.043 35.6192C126.242 36.8025 124.319 38.7256 123.135 41.5266C121.952 38.7256 120.029 36.8025 117.228 35.6192C120.029 34.436 121.952 32.5128 123.135 29.7118Z" fill="url(#paint32_radial_10537_1056)"/>
<path d="M123.135 29.7118C124.319 32.5128 126.242 34.436 129.043 35.6192C126.242 36.8025 124.319 38.7256 123.135 41.5266C121.952 38.7256 120.029 36.8025 117.228 35.6192C120.029 34.436 121.952 32.5128 123.135 29.7118Z" fill="url(#paint33_radial_10537_1056)"/>
<path d="M120.748 76.5857C126.926 77.2468 128.25 84.2922 134.428 85.8345C140.606 87.3763 155.17 97.9506 145.461 109.844C142.708 113.217 137.222 116.8 130.394 119.999H68.0094C62.867 113.72 61.9749 108.606 63.5968 104.558C65.8032 99.0511 79.7051 96.1874 84.5599 89.58C89.4144 82.9723 114.57 75.925 120.748 76.5857Z" fill="url(#paint34_radial_10537_1056)"/>
<path d="M120.748 76.5857C126.926 77.2468 128.25 84.2922 134.428 85.8345C140.606 87.3763 155.17 97.9506 145.461 109.844C142.708 113.217 137.222 116.8 130.394 119.999H68.0094C62.867 113.72 61.9749 108.606 63.5968 104.558C65.8032 99.0511 79.7051 96.1874 84.5599 89.58C89.4144 82.9723 114.57 75.925 120.748 76.5857Z" fill="url(#paint35_radial_10537_1056)"/>
<path d="M128.12 14.9569C134.287 12.971 146.027 18.3303 152.792 19.5227C159.555 20.7139 168.705 24.4863 170.501 25.6795C171.934 26.6329 174.416 32.8327 175.477 35.8118C182.242 38.3939 196.848 44.5895 201.146 48.7204C206.518 53.8839 219.623 63.6875 222.578 70.4677C224.94 75.8921 232.03 105.749 235.279 119.997H110.195C111.222 117.335 112.45 114.586 113.462 113.462C115.58 111.114 128.755 105.008 139.812 101.955C150.869 98.9024 166.867 88.5671 167.103 80.1131C167.335 71.6604 143.585 58.5132 141.227 55.9274C138.874 53.3443 121.699 58.5099 115.346 58.5101C108.994 58.5101 96.5239 63.6763 89.466 63.2066C82.4091 62.7376 79.586 67.9054 77.2335 69.0795C74.8799 70.257 66.1768 86.6871 61.4718 91.8544C57.7076 95.9875 44.0617 102.345 37.7097 105.006C37.1465 107.255 36.6142 113.113 38.4174 119.997H11.4102C11.8359 114.067 13.679 100.593 17.6572 94.1486C22.8511 86.9361 28.7253 85.8105 31.8864 81.303C35.0472 76.7957 73.5955 60.441 77.3822 53.8857C81.1624 47.3321 84.9443 40.5783 86.5364 35.8118C88.1281 31.0451 98.0775 19.9195 106.832 16.7417C115.586 13.5652 121.953 16.9417 128.12 14.9569Z" fill="url(#paint36_linear_10537_1056)"/>
<path d="M128.12 14.9569C134.287 12.971 146.027 18.3303 152.792 19.5227C159.555 20.7139 168.705 24.4863 170.501 25.6795C171.934 26.6329 174.416 32.8327 175.477 35.8118C182.242 38.3939 196.848 44.5895 201.146 48.7204C206.518 53.8839 219.623 63.6875 222.578 70.4677C224.94 75.8921 232.03 105.749 235.279 119.997H110.195C111.222 117.335 112.45 114.586 113.462 113.462C115.58 111.114 128.755 105.008 139.812 101.955C150.869 98.9024 166.867 88.5671 167.103 80.1131C167.335 71.6604 143.585 58.5132 141.227 55.9274C138.874 53.3443 121.699 58.5099 115.346 58.5101C108.994 58.5101 96.5239 63.6763 89.466 63.2066C82.4091 62.7376 79.586 67.9054 77.2335 69.0795C74.8799 70.257 66.1768 86.6871 61.4718 91.8544C57.7076 95.9875 44.0617 102.345 37.7097 105.006C37.1465 107.255 36.6142 113.113 38.4174 119.997H11.4102C11.8359 114.067 13.679 100.593 17.6572 94.1486C22.8511 86.9361 28.7253 85.8105 31.8864 81.303C35.0472 76.7957 73.5955 60.441 77.3822 53.8857C81.1624 47.3321 84.9443 40.5783 86.5364 35.8118C88.1281 31.0451 98.0775 19.9195 106.832 16.7417C115.586 13.5652 121.953 16.9417 128.12 14.9569Z" fill="url(#paint37_radial_10537_1056)"/>
<path d="M128.12 14.9569C134.287 12.971 146.027 18.3303 152.792 19.5227C159.555 20.7139 168.705 24.4863 170.501 25.6795C171.934 26.6329 174.416 32.8327 175.477 35.8118C182.242 38.3939 196.848 44.5895 201.146 48.7204C206.518 53.8839 219.623 63.6875 222.578 70.4677C224.94 75.8921 232.03 105.749 235.279 119.997H110.195C111.222 117.335 112.45 114.586 113.462 113.462C115.58 111.114 128.755 105.008 139.812 101.955C150.869 98.9024 166.867 88.5671 167.103 80.1131C167.335 71.6604 143.585 58.5132 141.227 55.9274C138.874 53.3443 121.699 58.5099 115.346 58.5101C108.994 58.5101 96.5239 63.6763 89.466 63.2066C82.4091 62.7376 79.586 67.9054 77.2335 69.0795C74.8799 70.257 66.1768 86.6871 61.4718 91.8544C57.7076 95.9875 44.0617 102.345 37.7097 105.006C37.1465 107.255 36.6142 113.113 38.4174 119.997H11.4102C11.8359 114.067 13.679 100.593 17.6572 94.1486C22.8511 86.9361 28.7253 85.8105 31.8864 81.303C35.0472 76.7957 73.5955 60.441 77.3822 53.8857C81.1624 47.3321 84.9443 40.5783 86.5364 35.8118C88.1281 31.0451 98.0775 19.9195 106.832 16.7417C115.586 13.5652 121.953 16.9417 128.12 14.9569Z" fill="url(#paint38_radial_10537_1056)"/>
<path d="M128.12 14.9569C134.287 12.971 146.027 18.3303 152.792 19.5227C159.555 20.7139 168.705 24.4863 170.501 25.6795C171.934 26.6329 174.416 32.8327 175.477 35.8118C182.242 38.3939 196.848 44.5895 201.146 48.7204C206.518 53.8839 219.623 63.6875 222.578 70.4677C224.94 75.8921 232.03 105.749 235.279 119.997H110.195C111.222 117.335 112.45 114.586 113.462 113.462C115.58 111.114 128.755 105.008 139.812 101.955C150.869 98.9024 166.867 88.5671 167.103 80.1131C167.335 71.6604 143.585 58.5132 141.227 55.9274C138.874 53.3443 121.699 58.5099 115.346 58.5101C108.994 58.5101 96.5239 63.6763 89.466 63.2066C82.4091 62.7376 79.586 67.9054 77.2335 69.0795C74.8799 70.257 66.1768 86.6871 61.4718 91.8544C57.7076 95.9875 44.0617 102.345 37.7097 105.006C37.1465 107.255 36.6142 113.113 38.4174 119.997H11.4102C11.8359 114.067 13.679 100.593 17.6572 94.1486C22.8511 86.9361 28.7253 85.8105 31.8864 81.303C35.0472 76.7957 73.5955 60.441 77.3822 53.8857C81.1624 47.3321 84.9443 40.5783 86.5364 35.8118C88.1281 31.0451 98.0775 19.9195 106.832 16.7417C115.586 13.5652 121.953 16.9417 128.12 14.9569Z" fill="url(#paint39_radial_10537_1056)"/>
<path d="M172.022 27.7839C173.303 30.1232 174.742 33.7409 175.479 35.8112C176.992 36.3888 178.897 37.1487 180.992 38.0243C182.77 43.7422 183.958 50.8414 184.038 58.8836C184.181 73.1233 174.164 78.7441 167.087 80.2794C167.09 80.2237 167.103 80.1681 167.105 80.1126C167.309 72.6099 148.627 61.4022 142.775 57.1709C146.136 55.6854 149.805 54.354 152.037 54.3539C156.785 54.3539 164.426 63.4192 170.206 63.6252C175.294 63.802 175.897 40.976 172.022 27.7839Z" fill="url(#paint40_radial_10537_1056)"/>
<path d="M145.056 58.7507C163.842 60.5207 179.403 89.3104 198.281 92.2663C216.204 95.0724 221.412 90.2691 229.823 96.9087C231.894 105.383 233.925 114.051 235.281 119.999H110.197C111.224 117.337 112.452 114.588 113.465 113.464C115.582 111.116 128.757 105.01 139.814 101.957C150.87 98.9041 166.868 88.5684 167.105 80.1149C167.288 73.4144 152.41 63.7517 145.056 58.7507Z" fill="url(#paint41_radial_10537_1056)"/>
<path d="M145.056 58.7507C163.842 60.5207 179.403 89.3104 198.281 92.2663C216.204 95.0724 221.412 90.2691 229.823 96.9087C231.894 105.383 233.925 114.051 235.281 119.999H110.197C111.224 117.337 112.452 114.588 113.465 113.464C115.582 111.116 128.757 105.01 139.814 101.957C150.87 98.9041 166.868 88.5684 167.105 80.1149C167.288 73.4144 152.41 63.7517 145.056 58.7507Z" fill="url(#paint42_radial_10537_1056)"/>
<path d="M186.36 40.3627C192.388 43.0851 198.593 46.2629 201.148 48.719C206.52 53.8823 219.624 63.6863 222.58 70.4663C223.609 72.8299 225.521 79.8374 227.637 88.1662C223.712 86.7706 219.104 85.3456 215.621 84.8488C208.395 83.8186 200.551 83.2002 194.978 76.8125C189.897 70.9895 192.703 54.2111 186.36 40.3627Z" fill="url(#paint43_radial_10537_1056)"/>
<path d="M128.649 43.4502C138.687 36.6379 166.389 49.6624 174.42 64.891C176.953 69.6946 173.382 74.9156 167.082 79.855C166.835 71.3951 143.558 58.4854 141.224 55.9262C138.87 53.3438 121.696 58.5086 115.344 58.5088C108.992 58.5088 96.5212 63.675 89.4633 63.2053C82.4066 62.7364 79.5832 67.9039 77.2308 69.0782C74.8771 70.2554 66.1739 86.6915 61.469 91.8577C57.7038 95.9907 44.0587 102.344 37.707 105.005C37.1438 107.254 36.6117 113.112 38.4147 119.996H25.5961C21.8315 110.868 23.2834 104.577 30.9823 101.111C41.2201 96.5024 59.9875 85.5336 63.4026 75.9157C66.1329 68.2209 73.5108 61.0868 76.8567 58.4818C78.3968 59.6171 82.0749 61.2042 84.4829 58.4818C87.4941 55.0751 90.3068 48.4606 99.5415 49.0617C108.776 49.6628 118.612 50.2629 128.649 43.4502Z" fill="url(#paint44_radial_10537_1056)"/>
<path d="M128.649 43.4502C138.687 36.6379 166.389 49.6624 174.42 64.891C176.953 69.6946 173.382 74.9156 167.082 79.855C166.835 71.3951 143.558 58.4854 141.224 55.9262C138.87 53.3438 121.696 58.5086 115.344 58.5088C108.992 58.5088 96.5212 63.675 89.4633 63.2053C82.4066 62.7364 79.5832 67.9039 77.2308 69.0782C74.8771 70.2554 66.1739 86.6915 61.469 91.8577C57.7038 95.9907 44.0587 102.344 37.707 105.005C37.1438 107.254 36.6117 113.112 38.4147 119.996H25.5961C21.8315 110.868 23.2834 104.577 30.9823 101.111C41.2201 96.5024 59.9875 85.5336 63.4026 75.9157C66.1329 68.2209 73.5108 61.0868 76.8567 58.4818C78.3968 59.6171 82.0749 61.2042 84.4829 58.4818C87.4941 55.0751 90.3068 48.4606 99.5415 49.0617C108.776 49.6628 118.612 50.2629 128.649 43.4502Z" fill="url(#paint45_radial_10537_1056)"/>
<path d="M127.99 14.9873C129.14 18.3402 129.755 22.7734 128.652 28.0222C126.043 40.4441 106.173 39.2442 110.583 36.6399C114.22 34.4947 117.171 22.7031 113.729 15.3614C119.115 15.0579 123.605 16.3457 127.99 14.9873Z" fill="url(#paint46_radial_10537_1056)"/>
<defs>
<linearGradient id="paint0_linear_10537_1056" x1="102.234" y1="15.3919" x2="118.407" y2="87.2474" gradientUnits="userSpaceOnUse">
<stop stop-color="#010B27"/>
<stop offset="0.460364" stop-color="#1E4C7D"/>
<stop offset="1" stop-color="#9C80B7"/>
</linearGradient>
<radialGradient id="paint1_radial_10537_1056" cx="0" cy="0" r="1" gradientTransform="matrix(110.329 -12.2619 -9.09016 -81.4918 170.3 93.3473)" gradientUnits="userSpaceOnUse">
<stop stop-color="#D78D72"/>
<stop offset="1" stop-color="#C5B1D7" stop-opacity="0"/>
</radialGradient>
<radialGradient id="paint2_radial_10537_1056" cx="0" cy="0" r="1" gradientTransform="matrix(-40.3511 5.03414 -3.98386 -31.8161 166.329 93.3082)" gradientUnits="userSpaceOnUse">
<stop stop-color="#FFF7DC"/>
<stop offset="1" stop-color="#FF9635" stop-opacity="0"/>
</radialGradient>
<radialGradient id="paint3_radial_10537_1056" cx="0" cy="0" r="1" gradientTransform="matrix(118.293 -3.85689 1.39724 42.6978 60.9748 120)" gradientUnits="userSpaceOnUse">
<stop stop-color="#010B27"/>
<stop offset="1" stop-color="#B06AB6" stop-opacity="0"/>
</radialGradient>
<radialGradient id="paint4_radial_10537_1056" cx="0" cy="0" r="1" gradientTransform="matrix(-26.796 66.7602 -35.5813 -15.1544 37.3756 47.893)" gradientUnits="userSpaceOnUse">
<stop stop-color="#FFFFCB" stop-opacity="0.7"/>
<stop offset="1" stop-color="#D5FF8D" stop-opacity="0"/>
</radialGradient>
<radialGradient id="paint5_radial_10537_1056" cx="0" cy="0" r="1" gradientTransform="matrix(-81.0112 -14.4433 7.69788 -45.8157 162.008 18.6855)" gradientUnits="userSpaceOnUse">
<stop stop-color="#FFFFCB" stop-opacity="0.4"/>
<stop offset="1" stop-color="#D5FF8D" stop-opacity="0"/>
</radialGradient>
<radialGradient id="paint6_radial_10537_1056" cx="0" cy="0" r="1" gradientTransform="matrix(-41.5606 -4.46221e-05 -0.0314149 -23.5212 216.535 60.5154)" gradientUnits="userSpaceOnUse">
<stop stop-color="#FFFFCB" stop-opacity="0.6"/>
<stop offset="1" stop-color="#D5FF8D" stop-opacity="0"/>
</radialGradient>
<radialGradient id="paint7_radial_10537_1056" cx="0" cy="0" r="1" gradientUnits="userSpaceOnUse" gradientTransform="translate(31.6554 44.8633) rotate(90) scale(1.4251 1.47278)">
<stop offset="0.505208" stop-color="#FFF6E0"/>
<stop offset="1" stop-color="#FFF7E0" stop-opacity="0"/>
</radialGradient>
<radialGradient id="paint8_radial_10537_1056" cx="0" cy="0" r="1" gradientUnits="userSpaceOnUse" gradientTransform="translate(45.382 58.407) rotate(90) scale(1.4251 1.47278)">
<stop offset="0.505208" stop-color="#FFF6E0"/>
<stop offset="1" stop-color="#FFF7E0" stop-opacity="0"/>
</radialGradient>
<radialGradient id="paint9_radial_10537_1056" cx="0" cy="0" r="1" gradientUnits="userSpaceOnUse" gradientTransform="translate(83.3956 78.0441) rotate(90) scale(1.4251 1.47278)">
<stop offset="0.505208" stop-color="#FFF6E0"/>
<stop offset="1" stop-color="#FFF7E0" stop-opacity="0"/>
</radialGradient>
<radialGradient id="paint10_radial_10537_1056" cx="0" cy="0" r="1" gradientUnits="userSpaceOnUse" gradientTransform="translate(55.2575 50.0221) rotate(90) scale(1.4251 1.47278)">
<stop offset="0.505208" stop-color="#FFF6E0"/>
<stop offset="1" stop-color="#FFF7E0" stop-opacity="0"/>
</radialGradient>
<radialGradient id="paint11_radial_10537_1056" cx="0" cy="0" r="1" gradientUnits="userSpaceOnUse" gradientTransform="translate(37.5441 23.8561) rotate(90) scale(1.4251 1.47278)">
<stop offset="0.505208" stop-color="#FFF6E0"/>
<stop offset="1" stop-color="#FFF7E0" stop-opacity="0"/>
</radialGradient>
<radialGradient id="paint12_radial_10537_1056" cx="0" cy="0" r="1" gradientUnits="userSpaceOnUse" gradientTransform="translate(103.561 35.7546) rotate(90) scale(1.4251 1.47278)">
<stop offset="0.505208" stop-color="#FFF6E0"/>
<stop offset="1" stop-color="#FFF7E0" stop-opacity="0"/>
</radialGradient>
<radialGradient id="paint13_radial_10537_1056" cx="0" cy="0" r="1" gradientUnits="userSpaceOnUse" gradientTransform="translate(92.3834 58.4067) rotate(90) scale(1.4251 1.47278)">
<stop offset="0.505208" stop-color="#FFF6E0"/>
<stop offset="1" stop-color="#FFF7E0" stop-opacity="0"/>
</radialGradient>
<radialGradient id="paint14_radial_10537_1056" cx="0" cy="0" r="1" gradientUnits="userSpaceOnUse" gradientTransform="translate(119.449 50.0221) rotate(90) scale(1.4251 1.47278)">
<stop offset="0.505208" stop-color="#FFF6E0"/>
<stop offset="1" stop-color="#FFF7E0" stop-opacity="0"/>
</radialGradient>
<radialGradient id="paint15_radial_10537_1056" cx="0" cy="0" r="1" gradientUnits="userSpaceOnUse" gradientTransform="translate(132.002 24.8119) rotate(90) scale(1.4251 1.47278)">
<stop offset="0.505208" stop-color="#FFF6E0"/>
<stop offset="1" stop-color="#FFF7E0" stop-opacity="0"/>
</radialGradient>
<radialGradient id="paint16_radial_10537_1056" cx="0" cy="0" r="1" gradientUnits="userSpaceOnUse" gradientTransform="translate(113.464 18.6362) rotate(90) scale(1.4251 1.47278)">
<stop offset="0.505208" stop-color="#FFF6E0"/>
<stop offset="1" stop-color="#FFF7E0" stop-opacity="0"/>
</radialGradient>
<radialGradient id="paint17_radial_10537_1056" cx="0" cy="0" r="1" gradientUnits="userSpaceOnUse" gradientTransform="translate(197.334 19.7078) rotate(90) scale(1.4251 1.47278)">
<stop offset="0.505208" stop-color="#FFF6E0"/>
<stop offset="1" stop-color="#FFF7E0" stop-opacity="0"/>
</radialGradient>
<radialGradient id="paint18_radial_10537_1056" cx="0" cy="0" r="1" gradientUnits="userSpaceOnUse" gradientTransform="translate(189.721 32.0206) rotate(90) scale(1.4251 1.47278)">
<stop offset="0.505208" stop-color="#FFF6E0"/>
<stop offset="1" stop-color="#FFF7E0" stop-opacity="0"/>
</radialGradient>
<radialGradient id="paint19_radial_10537_1056" cx="0" cy="0" r="1" gradientUnits="userSpaceOnUse" gradientTransform="translate(217.713 47.1719) rotate(90) scale(1.4251 1.47278)">
<stop offset="0.505208" stop-color="#FFF6E0"/>
<stop offset="1" stop-color="#FFF7E0" stop-opacity="0"/>
</radialGradient>
<radialGradient id="paint20_radial_10537_1056" cx="0" cy="0" r="1" gradientUnits="userSpaceOnUse" gradientTransform="translate(204.302 61.4637) rotate(90) scale(1.4251 1.47278)">
<stop offset="0.505208" stop-color="#FFF6E0"/>
<stop offset="1" stop-color="#FFF7E0" stop-opacity="0"/>
</radialGradient>
<radialGradient id="paint21_radial_10537_1056" cx="0" cy="0" r="1" gradientUnits="userSpaceOnUse" gradientTransform="translate(51.3989 28.5458) rotate(90) scale(3.73389 3.85883)">
<stop offset="0.336538" stop-color="#FFF6E0"/>
<stop offset="1" stop-color="#FFF7E0" stop-opacity="0"/>
</radialGradient>
<radialGradient id="paint22_radial_10537_1056" cx="0" cy="0" r="1" gradientUnits="userSpaceOnUse" gradientTransform="translate(23.5239 38.0634) rotate(90) scale(3.73389 3.85883)">
<stop offset="0.336538" stop-color="#FFF6E0"/>
<stop offset="1" stop-color="#FFF7E0" stop-opacity="0"/>
</radialGradient>
<radialGradient id="paint23_radial_10537_1056" cx="0" cy="0" r="1" gradientUnits="userSpaceOnUse" gradientTransform="translate(89.996 43.4382) rotate(90) scale(3.73389 3.85883)">
<stop offset="0.336538" stop-color="#FFF6E0"/>
<stop offset="1" stop-color="#FFF7E0" stop-opacity="0"/>
</radialGradient>
<radialGradient id="paint24_radial_10537_1056" cx="0" cy="0" r="1" gradientUnits="userSpaceOnUse" gradientTransform="translate(169.289 13.2509) rotate(90) scale(3.73389 3.85883)">
<stop offset="0.336538" stop-color="#FFF6E0"/>
<stop offset="1" stop-color="#FFF7E0" stop-opacity="0"/>
</radialGradient>
<radialGradient id="paint25_radial_10537_1056" cx="0" cy="0" r="1" gradientUnits="userSpaceOnUse" gradientTransform="translate(205.773 39.4885) rotate(90) scale(3.73389 3.85883)">
<stop offset="0.336538" stop-color="#FFF6E0"/>
<stop offset="1" stop-color="#FFF7E0" stop-opacity="0"/>
</radialGradient>
<radialGradient id="paint26_radial_10537_1056" cx="0" cy="0" r="1" gradientUnits="userSpaceOnUse" gradientTransform="translate(73.5358 29.7117) rotate(90) scale(4.62599 4.78079)">
<stop offset="0.395833" stop-color="#FFF6E0"/>
<stop offset="1" stop-color="#FFF7E0" stop-opacity="0"/>
</radialGradient>
<radialGradient id="paint27_radial_10537_1056" cx="0" cy="0" r="1" gradientUnits="userSpaceOnUse" gradientTransform="translate(207.244 24.3341) rotate(90) scale(4.62599 4.78079)">
<stop offset="0.395833" stop-color="#FFF6E0"/>
<stop offset="1" stop-color="#FFF7E0" stop-opacity="0"/>
</radialGradient>
<radialGradient id="paint28_radial_10537_1056" cx="0" cy="0" r="1" gradientUnits="userSpaceOnUse" gradientTransform="translate(34.6003 65.7393) rotate(90) scale(6.95431 4.04935)">
<stop offset="0.0483871" stop-color="#FFF6E0"/>
<stop offset="1" stop-color="#FFF7E0" stop-opacity="0"/>
</radialGradient>
<radialGradient id="paint29_radial_10537_1056" cx="0" cy="0" r="1" gradientUnits="userSpaceOnUse" gradientTransform="translate(34.6003 65.7393) rotate(180) scale(12.0392 2.63108)">
<stop stop-color="#FFF6E0"/>
<stop offset="1" stop-color="#FFF7E0" stop-opacity="0"/>
</radialGradient>
<radialGradient id="paint30_radial_10537_1056" cx="0" cy="0" r="1" gradientUnits="userSpaceOnUse" gradientTransform="translate(101.462 70.0846) rotate(90) scale(4.20298 2.44731)">
<stop offset="0.0483871" stop-color="#FFF6E0"/>
<stop offset="1" stop-color="#FFF7E0" stop-opacity="0"/>
</radialGradient>
<radialGradient id="paint31_radial_10537_1056" cx="0" cy="0" r="1" gradientUnits="userSpaceOnUse" gradientTransform="translate(101.462 70.0846) rotate(180) scale(7.27613 1.59015)">
<stop stop-color="#FFF6E0"/>
<stop offset="1" stop-color="#FFF7E0" stop-opacity="0"/>
</radialGradient>
<radialGradient id="paint32_radial_10537_1056" cx="0" cy="0" r="1" gradientUnits="userSpaceOnUse" gradientTransform="translate(123.135 35.6192) rotate(90) scale(6.95431 4.04935)">
<stop offset="0.0483871" stop-color="#FFF6E0"/>
<stop offset="1" stop-color="#FFF7E0" stop-opacity="0"/>
</radialGradient>
<radialGradient id="paint33_radial_10537_1056" cx="0" cy="0" r="1" gradientUnits="userSpaceOnUse" gradientTransform="translate(123.135 35.6192) rotate(180) scale(12.0392 2.63108)">
<stop stop-color="#FFF6E0"/>
<stop offset="1" stop-color="#FFF7E0" stop-opacity="0"/>
</radialGradient>
<radialGradient id="paint34_radial_10537_1056" cx="0" cy="0" r="1" gradientTransform="matrix(-41.5284 10.3624 -7.53427 -30.0798 95.8706 115.052)" gradientUnits="userSpaceOnUse">
<stop offset="0.42016" stop-color="#783513"/>
<stop offset="1" stop-color="#30243A"/>
</radialGradient>
<radialGradient id="paint35_radial_10537_1056" cx="0" cy="0" r="1" gradientTransform="matrix(-90.7723 18.4599 -5.91461 -29.0781 131.731 101.539)" gradientUnits="userSpaceOnUse">
<stop offset="0.00480769" stop-color="#FEA559"/>
<stop offset="0.499172" stop-color="#F58948" stop-opacity="0.500828"/>
<stop offset="1" stop-color="#EB6C37" stop-opacity="0"/>
</radialGradient>
<linearGradient id="paint36_linear_10537_1056" x1="106.251" y1="-16.5579" x2="123.283" y2="120.005" gradientUnits="userSpaceOnUse">
<stop stop-color="#9E5F40"/>
<stop offset="1" stop-color="#C9612E"/>
</linearGradient>
<radialGradient id="paint37_radial_10537_1056" cx="0" cy="0" r="1" gradientTransform="matrix(-157.025 -60.7216 37.5707 -96.8021 108.167 95.7974)" gradientUnits="userSpaceOnUse">
<stop offset="0.726958" stop-color="#AD5225" stop-opacity="0"/>
<stop offset="0.790792" stop-color="#683931" stop-opacity="0.550032"/>
<stop offset="1" stop-color="#30243A"/>
</radialGradient>
<radialGradient id="paint38_radial_10537_1056" cx="0" cy="0" r="1" gradientTransform="matrix(-92.1386 30.3494 -13.4447 -40.6683 103.549 97.3986)" gradientUnits="userSpaceOnUse">
<stop offset="0.637465" stop-color="#FEA559"/>
<stop offset="1" stop-color="#EB6C37" stop-opacity="0"/>
</radialGradient>
<radialGradient id="paint39_radial_10537_1056" cx="0" cy="0" r="1" gradientTransform="matrix(-74.6664 22.8331 -10.8672 -35.4076 110.191 72.7261)" gradientUnits="userSpaceOnUse">
<stop offset="0.530546" stop-color="#FEA559"/>
<stop offset="1" stop-color="#EB6C37" stop-opacity="0"/>
</radialGradient>
<radialGradient id="paint40_radial_10537_1056" cx="0" cy="0" r="1" gradientTransform="matrix(44.8034 43.2527 -26.4824 32.9824 142.775 54.0316)" gradientUnits="userSpaceOnUse">
<stop offset="0.590771" stop-color="#30243A"/>
<stop offset="1" stop-color="#AD5225" stop-opacity="0"/>
</radialGradient>
<radialGradient id="paint41_radial_10537_1056" cx="0" cy="0" r="1" gradientTransform="matrix(-21.4133 52.9628 -53.0594 -21.3743 194.152 67.0364)" gradientUnits="userSpaceOnUse">
<stop stop-color="#30243A"/>
<stop offset="1" stop-color="#AD5225" stop-opacity="0"/>
</radialGradient>
<radialGradient id="paint42_radial_10537_1056" cx="0" cy="0" r="1" gradientTransform="matrix(85.2327 -12.4201 4.47004 30.5641 98.6534 92.0267)" gradientUnits="userSpaceOnUse">
<stop offset="0.268285" stop-color="#30243A"/>
<stop offset="0.773366" stop-color="#5A3333" stop-opacity="0.667032"/>
<stop offset="1" stop-color="#AD5225" stop-opacity="0"/>
</radialGradient>
<radialGradient id="paint43_radial_10537_1056" cx="0" cy="0" r="1" gradientTransform="matrix(44.8165 39.3868 -26.4901 30.0345 186.36 64.2644)" gradientUnits="userSpaceOnUse">
<stop stop-color="#30243A"/>
<stop offset="1" stop-color="#AD5225" stop-opacity="0"/>
</radialGradient>
<radialGradient id="paint44_radial_10537_1056" cx="0" cy="0" r="1" gradientTransform="matrix(-86.1559 23.489 -16.4563 -55.8584 109.76 102.268)" gradientUnits="userSpaceOnUse">
<stop offset="0.750184" stop-color="#FEA559"/>
<stop offset="1" stop-color="#EB6C37" stop-opacity="0"/>
</radialGradient>
<radialGradient id="paint45_radial_10537_1056" cx="0" cy="0" r="1" gradientTransform="matrix(1.97253 22.391 -15.687 1.27887 40.9446 113.633)" gradientUnits="userSpaceOnUse">
<stop offset="0.580354" stop-color="#FEA559"/>
<stop offset="1" stop-color="#FEA559" stop-opacity="0"/>
</radialGradient>
<radialGradient id="paint46_radial_10537_1056" cx="0" cy="0" r="1" gradientTransform="matrix(-7.33461 25.1351 -15.8051 -4.59482 112.868 18.4999)" gradientUnits="userSpaceOnUse">
<stop stop-color="#30243A"/>
<stop offset="0.627097" stop-color="#613632" stop-opacity="0.604809"/>
<stop offset="1" stop-color="#AD5225" stop-opacity="0"/>
</radialGradient>
</defs>
</svg>
