<svg viewBox="0 0 240 120" fill="none" xmlns="http://www.w3.org/2000/svg">
<path fill-rule="evenodd" clip-rule="evenodd" d="M7.30912 120H48.0577C44.9048 115.166 40.5792 108.25 38.9652 104.638C36.4349 98.9744 40.2324 92.2833 41.2565 90.8977C41.8279 90.1247 42.9999 90.0783 44.5964 90.015C45.975 89.9604 47.6702 89.8933 49.5686 89.3349C52.0861 88.5945 51.4185 86.7165 50.8932 85.2388C50.5637 84.3119 50.2902 83.5425 50.8941 83.3103C52.4605 82.7078 52.8219 81.3824 51.858 80.7799C52.6291 80.6836 53.3842 79.7758 53.6654 79.334C53.2236 78.5307 52.4364 76.7555 52.8219 76.0807C52.9935 75.7804 53.6033 75.56 54.2919 75.311C55.5377 74.8605 57.0415 74.3167 56.6764 73.0385C56.3458 71.8815 54.5994 70.159 53.1047 68.6849C52.0355 67.6303 51.0951 66.7028 50.8941 66.2003C50.7699 65.89 50.7497 65.1401 50.7222 64.1215C50.643 61.185 50.5035 56.0151 47.6407 52.7051C50.8941 48.8494 48.3057 41.5862 33.7501 41.2006C28.5301 41.0624 24.1147 42.1025 20.7785 43.9547C19.5141 38.5054 12.1198 39.5808 7.50214 46.6289C2.88444 53.6769 5.64818 60.2699 9.36542 61.0485C9.25344 61.5783 9.12853 62.0167 9.00707 62.443C8.53334 64.1056 8.11227 65.5834 8.71732 71.5801C9.47749 79.1143 11.4646 89.3349 23.4579 90.1321C23.4579 90.1321 25.2698 91.4655 16.1613 103.189C12.5781 107.8 8.6254 112.888 7.30912 120Z" fill="#C0872D"/>
<path d="M138.248 64.2857C139.636 61.6033 139.696 57.2888 143.8 54.125C145.447 46.2969 170.381 45.9516 177.819 53.2087C187.361 62.5185 186.85 80.0955 196 91.9999C204.71 103.333 191.346 113.276 191.346 120H140.792C138.842 109.793 146.185 107.884 148.956 104.549C151.727 101.214 149.34 94.8648 147.761 93.5511C144.661 90.9728 138.956 94.0749 135.885 91.4082C133.205 89.0809 136.469 86.3815 135.512 86.0016C133.912 85.3665 133.017 83.4871 135.512 82.2181C133.984 81.3714 132.724 79.7719 134.185 78.6671C135.647 77.5622 135.512 76.0893 135.512 76.0893C133.212 75.6735 131.457 73.9325 132.155 72.1837C132.852 70.4349 136.86 66.9682 138.248 64.2857Z" fill="#F4B4A1"/>
<path d="M66.3894 35.0178C67.1659 33.9307 64.1336 27.9236 72.6757 18.7603C73.5427 9.54845 88.6796 6.65144 102.156 7.70566C125.639 9.54268 132.286 20.8197 130.335 41.846C129.189 54.2064 121.773 61.6801 116.137 71.868C113.753 77.504 112.978 82.6262 115.212 87.0416C115.212 87.0416 136.838 102.604 136.838 119.999H68.1236C65.1727 104.313 76.2859 101.38 80.4793 96.2543C84.6727 91.1291 80.9184 80.9319 78.5283 78.9129C73.8375 74.9506 63.667 79.4891 59.0194 75.3908C54.9634 71.8141 60.559 67.1248 58.7485 66.395C56.0139 65.2929 55.7306 62.7094 59.5071 60.7591C56.7603 59.8921 54.6841 56.3372 56.7603 54.7432C58.8364 53.1493 59.9779 51.5849 59.9779 51.5849C56.9059 51.5849 53.6282 48.2186 54.6841 45.531C55.7401 42.8433 63.1819 39.5083 66.3894 35.0178Z" fill="#E98230"/>
<path d="M226.583 47.3159C224.912 44.0231 224.546 36.1135 218.775 32.2014C216.619 23.3751 184.715 23.8725 176.994 35.6258C172.976 41.7429 170.494 83.4999 170.494 83.4999C170.494 83.4999 173.092 87.2499 190.744 87.2499C185.607 95.3971 173.291 104.108 171.217 120H217.321C219.94 106.079 213.501 101.172 209.779 96.6237C206.058 92.0752 211.478 80.9935 213.6 79.2018C217.762 75.6854 225.636 80.0417 229.76 76.4046C232.378 74.0958 229.441 70.3686 230.594 69.5999C232.662 68.2216 231.345 66.5901 229.966 65.7631C231.792 64.4882 232.052 62.7578 231.12 62.0417C230.187 61.3255 229.76 59.285 229.76 59.285C231.759 57.8034 232.615 55.9454 231.517 54.3231C230.594 52.9596 228.254 50.6087 226.583 47.3159Z" fill="#F3531E"/>
</svg>
