<svg viewBox="0 0 240 120" fill="none" xmlns="http://www.w3.org/2000/svg">
<path d="M240 69.0002V108.13L183.919 120H0.000183105C5.43767 113.83 11.8164 98.4919 41.8314 86.5037C42.0279 86.4252 42.2241 86.3468 42.42 86.2686C60.3264 79.1156 72.3246 76.9617 102 73.0343C123.907 70.135 199.5 69 240 69.0002Z" fill="url(#paint0_linear_699_29714)"/>
<path d="M240 119.999H0.000366211C0.000366211 119.636 3.00036 115.174 12.0003 110.769C28.5003 102.692 66.1337 95.8479 70.5002 95.7686C115.125 94.9588 154.5 89.9991 202.5 89.9991C220.5 89.9991 237 90.7817 240 90.7817L240 119.999Z" fill="url(#paint1_radial_699_29714)"/>
<path d="M240 119.999H0.000366211C0.000366211 119.636 3.00036 115.174 12.0003 110.769C28.5003 102.692 66.1337 95.8479 70.5002 95.7686C115.125 94.9588 154.5 89.9991 202.5 89.9991C220.5 89.9991 237 90.7817 240 90.7817L240 119.999Z" fill="url(#paint2_linear_699_29714)"/>
<path d="M32.9819 41.2941C41.665 47.0828 46.8945 60.5478 50.5742 72.3926C54.2538 84.2375 54.5871 100.008 54.9642 106.529" stroke="url(#paint3_linear_699_29714)" stroke-width="4.51202"/>
<path d="M12.5579 56.158C12.0704 56.9371 11.0849 57.2699 10.2202 56.9501C9.33834 56.6406 8.7995 55.7772 8.91787 54.8472C10.2216 43.4534 20.0123 39.2326 26.5614 38.296C24.4871 22.8798 38.2503 18.1918 38.4076 18.1443C39.2631 17.8659 40.2 18.1892 40.6944 18.9391C41.1888 19.689 41.1115 20.6879 40.5177 21.3672C38.1111 24.105 37.2281 27.4895 36.9932 30.3247C43.4353 23.1793 53.1034 24.0038 58.0519 25.8339C58.8892 26.1468 59.4075 26.9757 59.3476 27.8475C59.2809 28.7468 58.6292 29.484 57.7566 29.657C53.8554 30.4766 50.2486 33.0716 47.7983 35.2318C56.5308 36.7073 60.9658 45.5348 62.1688 50.7392C62.3751 51.5911 62.0111 52.4598 61.2579 52.9096L61.2063 52.9404C60.4153 53.366 59.4475 53.2235 58.8092 52.5828C50.3174 43.925 39.1835 45.7414 36.5008 46.3448C34.7621 48.5681 27.8119 58.2462 30.8974 67.8096C31.1759 68.6651 30.8422 69.5847 30.1095 70.0689C29.3494 70.5461 28.371 70.5032 27.6918 69.9094C20.5154 63.6481 20.6623 55.8023 22.3897 50.5661C15.3501 52.1212 12.6882 55.9869 12.5579 56.158Z" fill="url(#paint4_radial_699_29714)"/>
<path d="M12.5579 56.158C12.0704 56.9371 11.0849 57.2699 10.2202 56.9501C9.33834 56.6406 8.7995 55.7772 8.91787 54.8472C10.2216 43.4534 20.0123 39.2326 26.5614 38.296C24.4871 22.8798 38.2503 18.1918 38.4076 18.1443C39.2631 17.8659 40.2 18.1892 40.6944 18.9391C41.1888 19.689 41.1115 20.6879 40.5177 21.3672C38.1111 24.105 37.2281 27.4895 36.9932 30.3247C43.4353 23.1793 53.1034 24.0038 58.0519 25.8339C58.8892 26.1468 59.4075 26.9757 59.3476 27.8475C59.2809 28.7468 58.6292 29.484 57.7566 29.657C53.8554 30.4766 50.2486 33.0716 47.7983 35.2318C56.5308 36.7073 60.9658 45.5348 62.1688 50.7392C62.3751 51.5911 62.0111 52.4598 61.2579 52.9096L61.2063 52.9404C60.4153 53.366 59.4475 53.2235 58.8092 52.5828C50.3174 43.925 39.1835 45.7414 36.5008 46.3448C34.7621 48.5681 27.8119 58.2462 30.8974 67.8096C31.1759 68.6651 30.8422 69.5847 30.1095 70.0689C29.3494 70.5461 28.371 70.5032 27.6918 69.9094C20.5154 63.6481 20.6623 55.8023 22.3897 50.5661C15.3501 52.1212 12.6882 55.9869 12.5579 56.158Z" fill="url(#paint5_radial_699_29714)"/>
<rect x="102.112" y="34.8987" width="2.73669" height="8.21007" fill="url(#paint6_linear_699_29714)"/>
<rect x="162.319" y="34.8982" width="2.73669" height="8.21007" fill="url(#paint7_linear_699_29714)"/>
<path d="M72.9355 110.164C68.1635 109.933 69.1578 104.583 73.9351 104.519C96.4366 104.218 136.538 103.633 166.161 102.937C198.472 102.177 220.138 99.4725 223.037 104.738C226.381 110.813 213.731 110.769 206.8 110.56C192.356 110.127 165.188 109.629 140.28 110.937C113.936 112.32 88.8687 110.937 72.9355 110.164Z" fill="url(#paint8_radial_699_29714)"/>
<path d="M72.9355 110.164C68.1635 109.933 69.1578 104.583 73.9351 104.519C96.4366 104.218 136.538 103.633 166.161 102.937C198.472 102.177 220.138 99.4725 223.037 104.738C226.381 110.813 213.731 110.769 206.8 110.56C192.356 110.127 165.188 109.629 140.28 110.937C113.936 112.32 88.8687 110.937 72.9355 110.164Z" fill="url(#paint9_radial_699_29714)"/>
<path d="M111.646 51.1059V68.6709H72.7787C72.8006 68.5709 72.823 68.4716 72.8457 68.373C74.8191 59.8217 78.751 53.2985 80.4703 51.1059H111.646Z" fill="url(#paint10_linear_699_29714)"/>
<path d="M135.109 51.1059H111.637V68.6716H135.109V51.1059Z" fill="url(#paint11_linear_699_29714)"/>
<path d="M135.113 68.6709V51.1059H159.033V68.6709H135.113Z" fill="url(#paint12_linear_699_29714)"/>
<path d="M166.502 51.1049H159.027V68.6699H166.502V51.1049Z" fill="url(#paint13_linear_699_29714)"/>
<path d="M137.89 51.1059H134.685V68.6702H137.89V51.1059Z" fill="url(#paint14_linear_699_29714)"/>
<path d="M166.521 68.6709V51.1059H191.192C193.151 54.2265 197.52 61.9831 199.743 68.6709H166.521Z" fill="url(#paint15_linear_699_29714)"/>
<circle cx="174.954" cy="98.199" r="11.2871" fill="#404040"/>
<path d="M175.035 103.507C177.925 103.507 180.267 101.164 180.267 98.2743C180.267 95.3845 177.925 93.0419 175.035 93.0419C172.145 93.0419 169.803 95.3845 169.803 98.2743C169.803 101.164 172.145 103.507 175.035 103.507Z" fill="#E9EEF8"/>
<path d="M175.028 100.814C176.431 100.814 177.569 99.6761 177.569 98.2725C177.569 96.8689 176.431 95.731 175.028 95.731C173.624 95.731 172.486 96.8689 172.486 98.2725C172.486 99.6761 173.624 100.814 175.028 100.814Z" fill="url(#paint16_radial_699_29714)"/>
<circle cx="102.303" cy="98.199" r="11.2871" fill="#404040"/>
<path d="M102.374 103.507C105.264 103.507 107.606 101.164 107.606 98.2743C107.606 95.3845 105.264 93.0419 102.374 93.0419C99.4842 93.0419 97.1415 95.3845 97.1415 98.2743C97.1415 101.164 99.4842 103.507 102.374 103.507Z" fill="#E9EEF8"/>
<path d="M199.722 68.6714H72.7748C70.8953 77.2443 72.0294 90.89 72.8421 96.7022L73.0947 97.5864C73.4762 98.9213 74.6963 99.8416 76.0846 99.8416H86.029C86.8694 99.8416 87.6739 99.5015 88.2594 98.8988L91.5105 95.552C92.0961 94.9493 92.9006 94.6092 93.741 94.6092H111.029C111.937 94.6092 112.799 95.0058 113.39 95.6951L116.013 98.7557C116.604 99.445 117.467 99.8416 118.374 99.8416H159.59C160.72 99.8416 161.76 99.2294 162.309 98.2422L165.016 93.3681C165.565 92.381 166.605 91.7687 167.735 91.7687H182.054C183.355 91.7687 184.518 92.5784 184.97 93.7983L186.457 97.8121C186.909 99.0319 188.072 99.8416 189.373 99.8416H199.626C201.351 99.8416 202.748 98.4368 202.709 96.7116C202.524 88.5555 201.801 75.2377 199.916 69.2692C199.853 69.071 199.789 68.8717 199.722 68.6714Z" fill="url(#paint17_radial_699_29714)"/>
<path d="M90.7546 60.6721C91.3129 60.6721 91.8711 60.3933 91.8711 59.835C91.8711 59.2768 91.5924 58.998 90.7546 58.998H82.6613C82.103 58.998 81.5447 59.2768 81.5447 59.835C81.5447 60.3933 81.8235 60.6721 82.6613 60.6721H90.7546Z" fill="#404040"/>
<path d="M90.7546 57.6024C91.3129 57.6024 91.8711 57.3236 91.5916 56.7653C91.5916 56.4866 91.3129 56.2071 90.7546 56.2071H82.6613C82.103 56.2071 81.5447 56.4858 81.8243 57.0441C81.8243 57.6024 82.103 57.6024 82.6613 57.6024H90.7546Z" fill="#404040"/>
<path d="M165.728 68.6781C163.408 68.6781 161.528 70.5585 161.528 72.8781V85.6734C161.528 87.3908 162.92 88.783 164.638 88.783H185.585C186.689 88.783 187.711 89.3683 188.269 90.3209L189.532 92.4774C190.09 93.43 191.111 94.0154 192.215 94.0154H198.3C200.674 94.0154 202.58 92.0494 202.461 89.6779C202.089 82.2467 201.329 73.7216 199.925 69.2752C199.812 68.9178 199.479 68.6781 199.104 68.6781H165.728Z" fill="url(#paint18_radial_699_29714)"/>
<path d="M82.9264 86.3441C82.3682 86.3441 82.0894 86.6229 82.0894 87.1811C82.0894 87.7394 82.3682 88.0182 82.9264 88.0182H91.0197C91.578 88.0182 91.8567 87.7394 91.8567 87.1811C91.8567 86.6229 91.578 86.3441 91.0197 86.3441H82.9264Z" fill="url(#paint19_linear_699_29714)"/>
<path d="M86.8337 84.6697H91.0197C91.578 84.6697 91.8567 84.391 91.8567 84.1114C91.8567 83.8327 91.578 83.2744 91.0197 83.2744H82.9264C82.3682 83.2744 82.0894 83.5532 82.0894 84.1114C82.0894 84.6697 82.3682 84.9485 82.9264 84.9485C84.043 84.6697 85.4384 84.6697 86.8337 84.6697Z" fill="url(#paint20_linear_699_29714)"/>
<path d="M91.0197 81.321C91.578 81.321 91.8567 81.321 91.8567 80.7627C91.8567 80.4839 91.578 79.9257 91.0197 79.9257H82.9264C82.3682 79.9257 82.0894 80.2044 82.0894 80.7627C82.0894 81.321 82.3682 81.321 82.9264 81.321H91.0197Z" fill="url(#paint21_linear_699_29714)"/>
<path d="M91.0197 78.2513C91.578 78.2513 91.8567 78.2513 91.8567 77.693C91.8567 77.4142 91.578 76.856 91.0197 76.856H82.9264C82.3682 76.856 82.0894 77.1347 82.0894 77.693C82.0894 78.2513 82.3682 78.2513 82.9264 78.2513H91.0197Z" fill="url(#paint22_linear_699_29714)"/>
<path d="M192.865 51.1816H80.9921C79.8484 51.1816 79.1189 49.9916 79.8087 49.0794C82.7422 45.2003 87.5143 43.4937 89.7385 43.1087H184.894C189.853 43.1087 192.797 46.5305 194.165 49.2814C194.623 50.202 193.893 51.1816 192.865 51.1816Z" fill="url(#paint23_linear_699_29714)"/>
<rect x="71.731" y="97.0787" width="10.7639" height="6.87692" rx="3.10957" fill="url(#paint24_linear_699_29714)"/>
<rect x="188.938" y="97.0787" width="15.5478" height="6.87692" rx="3.10957" fill="url(#paint25_linear_699_29714)"/>
<path d="M202.391 86.1291C202.266 83.823 202.103 81.4371 201.895 79.1202L202.617 79.0685C204.33 78.9459 205.818 80.2351 205.94 81.9481L205.998 82.7533C206.121 84.4663 204.831 85.9543 203.118 86.077L202.391 86.1291Z" fill="url(#paint26_linear_699_29714)"/>
<path d="M102.388 100.814C103.791 100.814 104.929 99.6761 104.929 98.2725C104.929 96.8689 103.791 95.731 102.388 95.731C100.984 95.731 99.8463 96.8689 99.8463 98.2725C99.8463 99.6761 100.984 100.814 102.388 100.814Z" fill="url(#paint27_radial_699_29714)"/>
<path d="M154.833 68.6736C157.152 68.6736 159.033 70.554 159.033 72.8736V93.3205C159.033 95.6401 157.152 97.5205 154.833 97.5205H139.313C136.993 97.5205 135.113 95.6401 135.113 93.3205V72.8736C135.113 70.554 136.993 68.6736 139.313 68.6736H154.833Z" fill="url(#paint28_radial_699_29714)"/>
<path d="M171.054 78.8443C171.613 78.8443 171.892 78.8443 171.892 78.286C171.892 78.0073 171.613 77.449 171.054 77.449H167.005C166.447 77.449 166.168 77.7277 166.168 78.286C166.168 78.8443 166.447 78.8443 167.005 78.8443H171.054Z" fill="url(#paint29_linear_699_29714)"/>
<path d="M144.479 78.8443C145.037 78.8443 145.316 78.8443 145.316 78.286C145.316 78.0073 145.037 77.449 144.479 77.449H140.43C139.872 77.449 139.593 77.7277 139.593 78.286C139.593 78.8443 139.872 78.8443 140.43 78.8443H144.479Z" fill="url(#paint30_linear_699_29714)"/>
<path d="M203.017 79.0653L203.551 86.0156C203.41 86.0457 203.266 86.0664 203.118 86.077L202.391 86.1291C202.266 83.823 202.103 81.4371 201.895 79.1202L202.617 79.0685C202.752 79.0588 202.885 79.0579 203.017 79.0653Z" fill="url(#paint31_linear_699_29714)"/>
<path d="M192.421 51.1059H189.216C189.216 51.1059 192.453 57.3829 193.789 60.8981C195.125 64.4133 196.526 69.1082 196.526 69.1082H199.731C199.731 69.1082 198.33 64.4133 196.994 60.8981C195.658 57.3829 192.421 51.1059 192.421 51.1059Z" fill="url(#paint32_linear_699_29714)"/>
<path d="M199.734 68.6771H199.727L199.726 68.6733H159.037V68.6771H72.7859C72.507 69.9498 72.2944 71.3343 72.1373 72.7883H189.764C191.988 72.7216 197.102 73.5004 201.406 76.8996C201.02 73.8749 200.533 71.1943 199.927 69.2742C199.865 69.0762 199.8 68.8771 199.734 68.6771Z" fill="url(#paint33_linear_699_29714)"/>
<path d="M198.474 29.5898C202.214 27.8652 202.214 22.7769 198.474 21.0523C190.033 17.1594 175.767 13.1094 149.621 13.1094C143.042 13.1094 136.998 13.0791 131.457 13.0512C106.299 12.925 91.4908 12.8507 84.0248 15.9021C77.6186 18.5204 74.7317 23.0086 74.7453 25.3211C74.7317 27.6335 77.6186 32.1217 84.0248 34.74C91.4908 37.7915 106.299 37.7171 131.457 37.5909C136.998 37.5631 143.042 37.5327 149.621 37.5327C175.767 37.5327 190.033 33.4827 198.474 29.5898Z" fill="#F4F4F4"/>
<path d="M181.801 34.8034C193.913 32.368 193.913 18.2741 181.801 15.8387C173.754 14.2208 163.318 13.1094 149.621 13.1094C143.042 13.1094 136.998 13.0791 131.457 13.0512C106.299 12.925 91.4908 12.8507 84.0248 15.9021C77.6186 18.5204 74.7317 23.0086 74.7453 25.3211C74.7317 27.6335 77.6186 32.1217 84.0248 34.74C91.4908 37.7915 106.299 37.7171 131.457 37.5909C136.998 37.5631 143.042 37.5327 149.621 37.5327C163.318 37.5327 173.754 36.4213 181.801 34.8034Z" fill="url(#paint34_radial_699_29714)"/>
<path d="M181.801 34.8034C193.913 32.368 193.913 18.2741 181.801 15.8387C173.754 14.2208 163.318 13.1094 149.621 13.1094C143.042 13.1094 136.998 13.0791 131.457 13.0512C106.299 12.925 91.4908 12.8507 84.0248 15.9021C77.6186 18.5204 74.7317 23.0086 74.7453 25.3211C74.7317 27.6335 77.6186 32.1217 84.0248 34.74C91.4908 37.7915 106.299 37.7171 131.457 37.5909C136.998 37.5631 143.042 37.5327 149.621 37.5327C163.318 37.5327 173.754 36.4213 181.801 34.8034Z" fill="url(#paint35_linear_699_29714)"/>
<path d="M181.801 34.8034C193.913 32.368 193.913 18.2741 181.801 15.8387C173.754 14.2208 163.318 13.1094 149.621 13.1094C143.042 13.1094 136.998 13.0791 131.457 13.0512C106.299 12.925 91.4908 12.8507 84.0248 15.9021C77.6186 18.5204 74.7317 23.0086 74.7453 25.3211C74.7317 27.6335 77.6186 32.1217 84.0248 34.74C91.4908 37.7915 106.299 37.7171 131.457 37.5909C136.998 37.5631 143.042 37.5327 149.621 37.5327C163.318 37.5327 173.754 36.4213 181.801 34.8034Z" fill="url(#paint36_linear_699_29714)"/>
<path d="M181.801 34.8034C193.913 32.368 193.913 18.2741 181.801 15.8387C173.754 14.2208 163.318 13.1094 149.621 13.1094C143.042 13.1094 136.998 13.0791 131.457 13.0512C106.299 12.925 91.4908 12.8507 84.0248 15.9021C77.6186 18.5204 74.7317 23.0086 74.7453 25.3211C74.7317 27.6335 77.6186 32.1217 84.0248 34.74C91.4908 37.7915 106.299 37.7171 131.457 37.5909C136.998 37.5631 143.042 37.5327 149.621 37.5327C163.318 37.5327 173.754 36.4213 181.801 34.8034Z" fill="url(#paint37_linear_699_29714)"/>
<path d="M181.801 34.8034C193.913 32.368 193.913 18.2741 181.801 15.8387C173.754 14.2208 163.318 13.1094 149.621 13.1094C143.042 13.1094 136.998 13.0791 131.457 13.0512C106.299 12.925 91.4908 12.8507 84.0248 15.9021C77.6186 18.5204 74.7317 23.0086 74.7453 25.3211C74.7317 27.6335 77.6186 32.1217 84.0248 34.74C91.4908 37.7915 106.299 37.7171 131.457 37.5909C136.998 37.5631 143.042 37.5327 149.621 37.5327C163.318 37.5327 173.754 36.4213 181.801 34.8034Z" fill="url(#paint38_linear_699_29714)"/>
<path d="M181.801 34.8034C193.913 32.368 193.913 18.2741 181.801 15.8387C173.754 14.2208 163.318 13.1094 149.621 13.1094C143.042 13.1094 136.998 13.0791 131.457 13.0512C106.299 12.925 91.4908 12.8507 84.0248 15.9021C77.6186 18.5204 74.7317 23.0086 74.7453 25.3211C74.7317 27.6335 77.6186 32.1217 84.0248 34.74C91.4908 37.7915 106.299 37.7171 131.457 37.5909C136.998 37.5631 143.042 37.5327 149.621 37.5327C163.318 37.5327 173.754 36.4213 181.801 34.8034Z" fill="url(#paint39_radial_699_29714)"/>
<path d="M181.801 34.8034C193.913 32.368 193.913 18.2741 181.801 15.8387C173.754 14.2208 163.318 13.1094 149.621 13.1094C143.042 13.1094 136.998 13.0791 131.457 13.0512C106.299 12.925 91.4908 12.8507 84.0248 15.9021C77.6186 18.5204 74.7317 23.0086 74.7453 25.3211C74.7317 27.6335 77.6186 32.1217 84.0248 34.74C91.4908 37.7915 106.299 37.7171 131.457 37.5909C136.998 37.5631 143.042 37.5327 149.621 37.5327C163.318 37.5327 173.754 36.4213 181.801 34.8034Z" fill="url(#paint40_linear_699_29714)"/>
<path d="M181.801 34.8034C193.913 32.368 193.913 18.2741 181.801 15.8387C173.754 14.2208 163.318 13.1094 149.621 13.1094C143.042 13.1094 136.998 13.0791 131.457 13.0512C106.299 12.925 91.4908 12.8507 84.0248 15.9021C77.6186 18.5204 74.7317 23.0086 74.7453 25.3211C74.7317 27.6335 77.6186 32.1217 84.0248 34.74C91.4908 37.7915 106.299 37.7171 131.457 37.5909C136.998 37.5631 143.042 37.5327 149.621 37.5327C163.318 37.5327 173.754 36.4213 181.801 34.8034Z" fill="url(#paint41_linear_699_29714)"/>
<path d="M181.801 34.8034C193.913 32.368 193.913 18.2741 181.801 15.8387C173.754 14.2208 163.318 13.1094 149.621 13.1094C143.042 13.1094 136.998 13.0791 131.457 13.0512C106.299 12.925 91.4908 12.8507 84.0248 15.9021C77.6186 18.5204 74.7317 23.0086 74.7453 25.3211C74.7317 27.6335 77.6186 32.1217 84.0248 34.74C91.4908 37.7915 106.299 37.7171 131.457 37.5909C136.998 37.5631 143.042 37.5327 149.621 37.5327C163.318 37.5327 173.754 36.4213 181.801 34.8034Z" fill="url(#paint42_linear_699_29714)"/>
<path d="M181.801 34.8034C193.913 32.368 193.913 18.2741 181.801 15.8387C173.754 14.2208 163.318 13.1094 149.621 13.1094C143.042 13.1094 136.998 13.0791 131.457 13.0512C106.299 12.925 91.4908 12.8507 84.0248 15.9021C77.6186 18.5204 74.7317 23.0086 74.7453 25.3211C74.7317 27.6335 77.6186 32.1217 84.0248 34.74C91.4908 37.7915 106.299 37.7171 131.457 37.5909C136.998 37.5631 143.042 37.5327 149.621 37.5327C163.318 37.5327 173.754 36.4213 181.801 34.8034Z" fill="url(#paint43_linear_699_29714)"/>
<path d="M196.09 22.851C198.104 23.8211 198.104 26.6557 196.09 27.6258C193.815 28.722 191.136 29.8343 187.969 30.749C181.416 32.6415 175.357 34.2509 163.361 34.9004L151.713 26.596C151.247 26.264 151.261 25.7283 151.741 25.4111C155.892 22.6646 161.165 19.1289 166.077 15.7435C176.699 16.4758 181.921 17.9813 187.969 19.728C191.137 20.6428 193.815 21.7549 196.09 22.851Z" fill="url(#paint44_linear_699_29714)"/>
<path d="M156.2 34.7615L144.965 26.9587C144.381 26.5529 144.399 25.898 145 25.5103C149.258 22.7655 154.459 19.3757 159.583 15.9688C157.136 15.8873 154.564 15.844 151.86 15.844C145.318 15.844 136.586 15.8145 131.083 15.7875C118.557 15.7259 108.72 15.6785 101.084 16.0119C93.3696 16.3487 88.3006 17.0667 85.1053 18.3449C82.3162 19.4606 80.3563 20.9494 79.1168 22.3361C77.8084 23.7999 77.4796 24.9353 77.4819 25.3093L77.4819 25.3219L77.4819 25.3346C77.4796 25.7086 77.8084 26.844 79.1168 28.3078C80.3563 29.6945 82.3162 31.1833 85.1053 32.299C88.3006 33.5772 93.3696 34.2952 101.084 34.632C108.72 34.9654 118.559 34.9179 131.085 34.8564C136.589 34.8294 145.317 34.7998 151.86 34.7998C153.346 34.7998 154.792 34.7868 156.2 34.7615Z" fill="url(#paint45_linear_699_29714)"/>
<defs>
<linearGradient id="paint0_linear_699_29714" x1="71.9781" y1="60.9396" x2="144.865" y2="188.303" gradientUnits="userSpaceOnUse">
<stop offset="0.169792" stop-color="#33BDC6"/>
<stop offset="0.935417" stop-color="#00D0FE"/>
</linearGradient>
<radialGradient id="paint1_radial_699_29714" cx="0" cy="0" r="1" gradientUnits="userSpaceOnUse" gradientTransform="translate(27.0004 118.434) rotate(-3.91928) scale(198.464 45.1516)">
<stop stop-color="#F9EBD3"/>
<stop offset="0.394282" stop-color="#EBD4AE"/>
<stop offset="1" stop-color="#D4B27D"/>
</radialGradient>
<linearGradient id="paint2_linear_699_29714" x1="192" y1="81.9217" x2="185.036" y2="111.529" gradientUnits="userSpaceOnUse">
<stop stop-color="#F9EBD3"/>
<stop offset="1" stop-color="#F9EBD3" stop-opacity="0"/>
</linearGradient>
<linearGradient id="paint3_linear_699_29714" x1="50.445" y1="68.1031" x2="47.0618" y2="69.1542" gradientUnits="userSpaceOnUse">
<stop stop-color="#E0D0BD"/>
<stop offset="1" stop-color="#927D69"/>
</linearGradient>
<radialGradient id="paint4_radial_699_29714" cx="0" cy="0" r="1" gradientUnits="userSpaceOnUse" gradientTransform="translate(44.1419 22.8968) rotate(104.751) scale(39.7076 52.2965)">
<stop offset="0.00896761" stop-color="#A4D37E"/>
<stop offset="0.65283" stop-color="#5ABB0D"/>
</radialGradient>
<radialGradient id="paint5_radial_699_29714" cx="0" cy="0" r="1" gradientUnits="userSpaceOnUse" gradientTransform="translate(47.4557 22.6186) rotate(130.262) scale(44.3475 38.1488)">
<stop offset="0.138024" stop-color="#FFBE18"/>
<stop offset="0.761795" stop-color="#7AA756" stop-opacity="0"/>
<stop offset="1" stop-color="#326509" stop-opacity="0"/>
</radialGradient>
<linearGradient id="paint6_linear_699_29714" x1="102.112" y1="34.8987" x2="106.957" y2="36.5296" gradientUnits="userSpaceOnUse">
<stop stop-color="#BDBDBD"/>
<stop offset="1" stop-color="#B7B7B7"/>
</linearGradient>
<linearGradient id="paint7_linear_699_29714" x1="162.319" y1="34.8982" x2="167.164" y2="36.5291" gradientUnits="userSpaceOnUse">
<stop stop-color="#BDBDBD"/>
<stop offset="1" stop-color="#B7B7B7"/>
</linearGradient>
<radialGradient id="paint8_radial_699_29714" cx="0" cy="0" r="1" gradientUnits="userSpaceOnUse" gradientTransform="translate(140.206 106.546) rotate(90) scale(4.98034 79.0767)">
<stop stop-color="#AF8B68"/>
<stop offset="1" stop-color="#AF8B68" stop-opacity="0"/>
</radialGradient>
<radialGradient id="paint9_radial_699_29714" cx="0" cy="0" r="1" gradientUnits="userSpaceOnUse" gradientTransform="translate(140.206 106.546) rotate(90) scale(4.98034 79.0767)">
<stop stop-color="#AF8B68"/>
<stop offset="1" stop-color="#AF8B68" stop-opacity="0"/>
</radialGradient>
<linearGradient id="paint10_linear_699_29714" x1="72.7787" y1="51.1059" x2="85.5603" y2="79.6672" gradientUnits="userSpaceOnUse">
<stop stop-color="#F2F2F2"/>
<stop offset="1" stop-color="#BCBCBC"/>
</linearGradient>
<linearGradient id="paint11_linear_699_29714" x1="111.637" y1="51.1059" x2="122.868" y2="82.0857" gradientUnits="userSpaceOnUse">
<stop stop-color="#6BDAF3"/>
<stop offset="1" stop-color="#008AA9"/>
</linearGradient>
<linearGradient id="paint12_linear_699_29714" x1="135.113" y1="51.1059" x2="146.18" y2="82.219" gradientUnits="userSpaceOnUse">
<stop stop-color="#6BDAF3"/>
<stop offset="1" stop-color="#008AA9"/>
</linearGradient>
<linearGradient id="paint13_linear_699_29714" x1="159.027" y1="51.1056" x2="171.463" y2="56.4501" gradientUnits="userSpaceOnUse">
<stop stop-color="#CACACA"/>
<stop offset="1" stop-color="#C4C4C4"/>
</linearGradient>
<linearGradient id="paint14_linear_699_29714" x1="134.685" y1="51.1059" x2="140.795" y2="52.2316" gradientUnits="userSpaceOnUse">
<stop stop-color="#E3E3E3"/>
<stop offset="1" stop-color="#CBCBCB"/>
</linearGradient>
<linearGradient id="paint15_linear_699_29714" x1="166.521" y1="51.1059" x2="174.945" y2="83.9983" gradientUnits="userSpaceOnUse">
<stop stop-color="#6BDAF3"/>
<stop offset="1" stop-color="#008AA9"/>
</linearGradient>
<radialGradient id="paint16_radial_699_29714" cx="0" cy="0" r="1" gradientUnits="userSpaceOnUse" gradientTransform="translate(174.497 96.2745) rotate(76.5043) scale(5.44474 4.44257)">
<stop stop-color="#FF1A1A"/>
<stop offset="1" stop-color="#D30000"/>
</radialGradient>
<radialGradient id="paint17_radial_699_29714" cx="0" cy="0" r="1" gradientUnits="userSpaceOnUse" gradientTransform="translate(123.555 72.0044) rotate(44.7626) scale(46.1067 82.8868)">
<stop stop-color="#D30000"/>
<stop offset="1" stop-color="#FF1A1A"/>
</radialGradient>
<radialGradient id="paint18_radial_699_29714" cx="0" cy="0" r="1" gradientUnits="userSpaceOnUse" gradientTransform="translate(177.792 71.3875) rotate(68.7223) scale(28.3222 34.4355)">
<stop stop-color="#FF1A1A"/>
<stop offset="1" stop-color="#D30000"/>
</radialGradient>
<linearGradient id="paint19_linear_699_29714" x1="82.0894" y1="76.856" x2="92.8572" y2="86.951" gradientUnits="userSpaceOnUse">
<stop stop-color="white"/>
<stop offset="1" stop-color="white"/>
</linearGradient>
<linearGradient id="paint20_linear_699_29714" x1="82.0894" y1="76.856" x2="92.8572" y2="86.951" gradientUnits="userSpaceOnUse">
<stop stop-color="white"/>
<stop offset="1" stop-color="white"/>
</linearGradient>
<linearGradient id="paint21_linear_699_29714" x1="82.0894" y1="76.856" x2="92.8572" y2="86.951" gradientUnits="userSpaceOnUse">
<stop stop-color="white"/>
<stop offset="1" stop-color="white"/>
</linearGradient>
<linearGradient id="paint22_linear_699_29714" x1="82.0894" y1="76.856" x2="92.8572" y2="86.951" gradientUnits="userSpaceOnUse">
<stop stop-color="white"/>
<stop offset="1" stop-color="white"/>
</linearGradient>
<linearGradient id="paint23_linear_699_29714" x1="78.5261" y1="43.1087" x2="79.6032" y2="58.7902" gradientUnits="userSpaceOnUse">
<stop stop-color="#F2F2F2"/>
<stop offset="1" stop-color="#BCBCBC"/>
</linearGradient>
<linearGradient id="paint24_linear_699_29714" x1="71.731" y1="97.0787" x2="77.7949" y2="106.664" gradientUnits="userSpaceOnUse">
<stop stop-color="white"/>
<stop offset="1" stop-color="white"/>
</linearGradient>
<linearGradient id="paint25_linear_699_29714" x1="188.938" y1="97.0787" x2="193.87" y2="108.34" gradientUnits="userSpaceOnUse">
<stop stop-color="white"/>
<stop offset="1" stop-color="white"/>
</linearGradient>
<linearGradient id="paint26_linear_699_29714" x1="201.895" y1="79.0604" x2="207.919" y2="82.5993" gradientUnits="userSpaceOnUse">
<stop stop-color="white"/>
<stop offset="1" stop-color="white"/>
</linearGradient>
<radialGradient id="paint27_radial_699_29714" cx="0" cy="0" r="1" gradientUnits="userSpaceOnUse" gradientTransform="translate(101.857 96.2745) rotate(76.5043) scale(5.44474 4.44257)">
<stop stop-color="#FF1A1A"/>
<stop offset="1" stop-color="#D30000"/>
</radialGradient>
<radialGradient id="paint28_radial_699_29714" cx="0" cy="0" r="1" gradientUnits="userSpaceOnUse" gradientTransform="translate(144.575 71.7582) rotate(78.7448) scale(30.6362 21.0864)">
<stop stop-color="#FF1A1A"/>
<stop offset="1" stop-color="#D30000"/>
</radialGradient>
<linearGradient id="paint29_linear_699_29714" x1="166.168" y1="77.449" x2="166.752" y2="80.0138" gradientUnits="userSpaceOnUse">
<stop stop-color="white"/>
<stop offset="1" stop-color="white"/>
</linearGradient>
<linearGradient id="paint30_linear_699_29714" x1="139.593" y1="77.449" x2="140.176" y2="80.0138" gradientUnits="userSpaceOnUse">
<stop stop-color="white"/>
<stop offset="1" stop-color="white"/>
</linearGradient>
<linearGradient id="paint31_linear_699_29714" x1="201.895" y1="79.0604" x2="205.122" y2="79.8708" gradientUnits="userSpaceOnUse">
<stop stop-color="#EAEAEA"/>
<stop offset="1" stop-color="#A4A4A4"/>
</linearGradient>
<linearGradient id="paint32_linear_699_29714" x1="189.687" y1="51.1059" x2="195.796" y2="52.2316" gradientUnits="userSpaceOnUse">
<stop stop-color="#E3E3E3"/>
<stop offset="1" stop-color="#B8B8B8"/>
</linearGradient>
<linearGradient id="paint33_linear_699_29714" x1="72.1373" y1="68.6733" x2="73.145" y2="84.6649" gradientUnits="userSpaceOnUse">
<stop stop-color="white"/>
<stop offset="1" stop-color="white"/>
</linearGradient>
<radialGradient id="paint34_radial_699_29714" cx="0" cy="0" r="1" gradientUnits="userSpaceOnUse" gradientTransform="translate(140.426 14.1788) rotate(5.82634) scale(26.4086 6.60496)">
<stop stop-color="white" stop-opacity="0.45"/>
<stop offset="1" stop-color="white" stop-opacity="0"/>
</radialGradient>
<linearGradient id="paint35_linear_699_29714" x1="84.3237" y1="20.395" x2="61.7493" y2="16.2628" gradientUnits="userSpaceOnUse">
<stop stop-color="#626262" stop-opacity="0"/>
<stop offset="1" stop-color="#626262"/>
</linearGradient>
<linearGradient id="paint36_linear_699_29714" x1="64.8934" y1="23.0591" x2="74.7145" y2="24.3273" gradientUnits="userSpaceOnUse">
<stop stop-color="#626262"/>
<stop offset="1" stop-color="#626262" stop-opacity="0"/>
</linearGradient>
<linearGradient id="paint37_linear_699_29714" x1="53.3993" y1="31.5624" x2="59.4458" y2="16.1996" gradientUnits="userSpaceOnUse">
<stop stop-color="#969696"/>
<stop offset="0.864418" stop-color="#8B8B8B" stop-opacity="0"/>
</linearGradient>
<linearGradient id="paint38_linear_699_29714" x1="141.115" y1="40.9679" x2="141.123" y2="36.1293" gradientUnits="userSpaceOnUse">
<stop stop-color="#626262"/>
<stop offset="1" stop-color="#626262" stop-opacity="0"/>
</linearGradient>
<radialGradient id="paint39_radial_699_29714" cx="0" cy="0" r="1" gradientUnits="userSpaceOnUse" gradientTransform="translate(140.426 14.1788) rotate(5.82634) scale(26.4086 6.60496)">
<stop stop-color="white" stop-opacity="0.45"/>
<stop offset="1" stop-color="white" stop-opacity="0"/>
</radialGradient>
<linearGradient id="paint40_linear_699_29714" x1="92.0776" y1="17.932" x2="89.1987" y2="8.55598" gradientUnits="userSpaceOnUse">
<stop stop-color="#626262" stop-opacity="0"/>
<stop offset="1" stop-color="#626262"/>
</linearGradient>
<linearGradient id="paint41_linear_699_29714" x1="64.8934" y1="23.0591" x2="202.437" y2="26.8647" gradientUnits="userSpaceOnUse">
<stop stop-color="#626262" stop-opacity="0.26"/>
<stop offset="1" stop-color="#626262" stop-opacity="0"/>
</linearGradient>
<linearGradient id="paint42_linear_699_29714" x1="53.3993" y1="31.5624" x2="58.351" y2="17.878" gradientUnits="userSpaceOnUse">
<stop stop-color="#626262"/>
<stop offset="0.864418" stop-color="#626262" stop-opacity="0"/>
</linearGradient>
<linearGradient id="paint43_linear_699_29714" x1="141.115" y1="40.9679" x2="141.123" y2="36.1293" gradientUnits="userSpaceOnUse">
<stop stop-color="#898989"/>
<stop offset="0.0656249" stop-color="#8D8D8D" stop-opacity="0.934375"/>
<stop offset="1" stop-color="#939393" stop-opacity="0"/>
</linearGradient>
<linearGradient id="paint44_linear_699_29714" x1="182.527" y1="36.5727" x2="182.437" y2="16.4296" gradientUnits="userSpaceOnUse">
<stop stop-color="#22D2EA" stop-opacity="0.35"/>
<stop offset="0.60068" stop-color="#21E7CF"/>
<stop offset="1" stop-color="#17C8E0" stop-opacity="0.55"/>
</linearGradient>
<linearGradient id="paint45_linear_699_29714" x1="79.2616" y1="18.4985" x2="84.9997" y2="40.3379" gradientUnits="userSpaceOnUse">
<stop stop-color="#0C95FF"/>
<stop offset="1" stop-color="#2584EC"/>
</linearGradient>
</defs>
</svg>
