<svg viewBox="0 0 240 120" fill="none" xmlns="http://www.w3.org/2000/svg">
<path d="M39.7833 119.999C-8.43316 104.723 13.1972 66.3773 55.4778 66.3773C101.86 62.649 197.652 56.9013 209.893 63.4166C225.159 71.5418 242.447 94.9973 172.73 119.999L39.7833 119.999Z" fill="url(#paint0_linear_9249_30340)"/>
<path fill-rule="evenodd" clip-rule="evenodd" d="M199.153 17.1275C201.049 14.2602 204.499 13.3369 205.568 13.3369C206.638 13.3369 209.116 14.2116 211.206 18.2453C210.817 18.123 210.366 18.018 209.869 17.9283C208.293 17.3323 207.356 16.2282 207.054 15.6671C207.112 16.1276 207.364 16.9146 207.933 17.6699C207.345 17.6128 206.731 17.5687 206.11 17.5354C205.661 16.5739 205.559 15.6923 205.589 15.2306C205.387 15.6672 205.176 16.5109 205.283 17.4974C203.025 17.4101 200.776 17.4514 199.396 17.5163L199.153 17.1275Z" fill="#829416"/>
<path fill-rule="evenodd" clip-rule="evenodd" d="M199.153 17.1275C201.049 14.2602 204.499 13.3369 205.568 13.3369C206.638 13.3369 209.116 14.2116 211.206 18.2453C210.817 18.123 210.366 18.018 209.869 17.9283C208.293 17.3323 207.356 16.2282 207.054 15.6671C207.112 16.1276 207.364 16.9146 207.933 17.6699C207.345 17.6128 206.731 17.5687 206.11 17.5354C205.661 16.5739 205.559 15.6923 205.589 15.2306C205.387 15.6672 205.176 16.5109 205.283 17.4974C203.025 17.4101 200.776 17.4514 199.396 17.5163L199.153 17.1275Z" fill="url(#paint1_radial_9249_30340)"/>
<path fill-rule="evenodd" clip-rule="evenodd" d="M199.153 17.1275C201.049 14.2602 204.499 13.3369 205.568 13.3369C206.638 13.3369 209.116 14.2116 211.206 18.2453C210.817 18.123 210.366 18.018 209.869 17.9283C208.293 17.3323 207.356 16.2282 207.054 15.6671C207.112 16.1276 207.364 16.9146 207.933 17.6699C207.345 17.6128 206.731 17.5687 206.11 17.5354C205.661 16.5739 205.559 15.6923 205.589 15.2306C205.387 15.6672 205.176 16.5109 205.283 17.4974C203.025 17.4101 200.776 17.4514 199.396 17.5163L199.153 17.1275Z" fill="url(#paint2_radial_9249_30340)"/>
<path d="M201.771 44.2475C202.336 34.7649 196.535 31.2537 200.486 18.0244H198.848C193.876 29.249 198.828 34.6816 197.19 44.2475H201.771Z" fill="url(#paint3_radial_9249_30340)"/>
<path d="M201.771 44.2475C202.336 34.7649 196.535 31.2537 200.486 18.0244H198.848C193.876 29.249 198.828 34.6816 197.19 44.2475H201.771Z" fill="url(#paint4_radial_9249_30340)"/>
<path fill-rule="evenodd" clip-rule="evenodd" d="M198.861 16.8347C198.423 12.3636 199.395 11.5375 203.818 8.81592C203.763 9.52114 203.556 10.2708 203.252 11.0247C202.471 11.5424 201.726 11.7721 201.305 11.826C201.653 11.9112 202.222 11.9587 202.881 11.8567C202.632 12.3673 202.347 12.873 202.045 13.3613C201.344 13.4644 200.761 13.4204 200.424 13.3418C200.692 13.5243 201.144 13.7416 201.714 13.8804C200.815 15.2438 199.823 16.4255 199.152 17.1262L198.861 16.8347Z" fill="#829416"/>
<path fill-rule="evenodd" clip-rule="evenodd" d="M198.861 16.8347C198.423 12.3636 199.395 11.5375 203.818 8.81592C203.763 9.52114 203.556 10.2708 203.252 11.0247C202.471 11.5424 201.726 11.7721 201.305 11.826C201.653 11.9112 202.222 11.9587 202.881 11.8567C202.632 12.3673 202.347 12.873 202.045 13.3613C201.344 13.4644 200.761 13.4204 200.424 13.3418C200.692 13.5243 201.144 13.7416 201.714 13.8804C200.815 15.2438 199.823 16.4255 199.152 17.1262L198.861 16.8347Z" fill="url(#paint5_radial_9249_30340)"/>
<path fill-rule="evenodd" clip-rule="evenodd" d="M198.861 16.8347C198.423 12.3636 199.395 11.5375 203.818 8.81592C203.763 9.52114 203.556 10.2708 203.252 11.0247C202.471 11.5424 201.726 11.7721 201.305 11.826C201.653 11.9112 202.222 11.9587 202.881 11.8567C202.632 12.3673 202.347 12.873 202.045 13.3613C201.344 13.4644 200.761 13.4204 200.424 13.3418C200.692 13.5243 201.144 13.7416 201.714 13.8804C200.815 15.2438 199.823 16.4255 199.152 17.1262L198.861 16.8347Z" fill="url(#paint6_radial_9249_30340)"/>
<path fill-rule="evenodd" clip-rule="evenodd" d="M202.853 14.9912C201.339 15.6952 200.119 16.7416 199.545 17.4305L199.162 17.1111C199.783 16.366 201.061 15.2741 202.643 14.5389C204.225 13.8032 206.145 13.4096 208.023 14.1233L207.846 14.5896C206.139 13.941 204.366 14.2877 202.853 14.9912Z" fill="url(#paint7_linear_9249_30340)"/>
<path fill-rule="evenodd" clip-rule="evenodd" d="M199.42 17.1402C198.448 10.1421 193.419 9.3514 190.892 11.5384C191.442 11.7129 192.123 11.9976 192.859 12.3803C193.573 12.1469 194.101 11.8233 194.376 11.5886C194.217 11.883 193.902 12.2993 193.437 12.6954C193.837 12.9233 194.247 13.1776 194.654 13.4566C195.285 12.9806 195.696 12.4727 195.883 12.1472C195.822 12.5442 195.61 13.1818 195.173 13.8259C196.478 14.7942 197.715 16.0122 198.5 17.4213L199.42 17.1402Z" fill="#829416"/>
<path fill-rule="evenodd" clip-rule="evenodd" d="M199.42 17.1402C198.448 10.1421 193.419 9.3514 190.892 11.5384C191.442 11.7129 192.123 11.9976 192.859 12.3803C193.573 12.1469 194.101 11.8233 194.376 11.5886C194.217 11.883 193.902 12.2993 193.437 12.6954C193.837 12.9233 194.247 13.1776 194.654 13.4566C195.285 12.9806 195.696 12.4727 195.883 12.1472C195.822 12.5442 195.61 13.1818 195.173 13.8259C196.478 14.7942 197.715 16.0122 198.5 17.4213L199.42 17.1402Z" fill="url(#paint8_radial_9249_30340)"/>
<path fill-rule="evenodd" clip-rule="evenodd" d="M199.42 17.1402C198.448 10.1421 193.419 9.3514 190.892 11.5384C191.442 11.7129 192.123 11.9976 192.859 12.3803C193.573 12.1469 194.101 11.8233 194.376 11.5886C194.217 11.883 193.902 12.2993 193.437 12.6954C193.837 12.9233 194.247 13.1776 194.654 13.4566C195.285 12.9806 195.696 12.4727 195.883 12.1472C195.822 12.5442 195.61 13.1818 195.173 13.8259C196.478 14.7942 197.715 16.0122 198.5 17.4213L199.42 17.1402Z" fill="url(#paint9_radial_9249_30340)"/>
<path fill-rule="evenodd" clip-rule="evenodd" d="M203.039 10.0554C200.757 11.3692 199.436 13.5769 199.436 16.794L198.937 16.794C198.937 13.4149 200.34 11.0339 202.79 9.62305L203.039 10.0554Z" fill="url(#paint10_linear_9249_30340)"/>
<path fill-rule="evenodd" clip-rule="evenodd" d="M199.515 17.2255C195.044 13.0946 189.094 11.5867 186.567 21.3551H186.956C187.347 20.8965 187.954 20.4749 188.698 20.0952C189.222 18.9874 189.297 17.9565 189.237 17.4479C189.458 17.8676 189.709 18.6822 189.663 19.6552C190.065 19.4903 190.493 19.3353 190.935 19.191C190.826 17.9178 190.335 16.955 190.011 16.5394C190.522 16.8456 191.397 17.6591 191.838 18.9173C192.319 18.7815 192.811 18.6576 193.304 18.5464C192.809 17.3009 192.009 16.4943 191.557 16.1892C192.213 16.3402 193.514 16.9648 194.33 18.3334C196.333 17.9525 198.247 17.7893 199.416 17.8867L199.515 17.2255Z" fill="#829416"/>
<path fill-rule="evenodd" clip-rule="evenodd" d="M199.515 17.2255C195.044 13.0946 189.094 11.5867 186.567 21.3551H186.956C187.347 20.8965 187.954 20.4749 188.698 20.0952C189.222 18.9874 189.297 17.9565 189.237 17.4479C189.458 17.8676 189.709 18.6822 189.663 19.6552C190.065 19.4903 190.493 19.3353 190.935 19.191C190.826 17.9178 190.335 16.955 190.011 16.5394C190.522 16.8456 191.397 17.6591 191.838 18.9173C192.319 18.7815 192.811 18.6576 193.304 18.5464C192.809 17.3009 192.009 16.4943 191.557 16.1892C192.213 16.3402 193.514 16.9648 194.33 18.3334C196.333 17.9525 198.247 17.7893 199.416 17.8867L199.515 17.2255Z" fill="url(#paint11_radial_9249_30340)"/>
<path fill-rule="evenodd" clip-rule="evenodd" d="M199.515 17.2255C195.044 13.0946 189.094 11.5867 186.567 21.3551H186.956C187.347 20.8965 187.954 20.4749 188.698 20.0952C189.222 18.9874 189.297 17.9565 189.237 17.4479C189.458 17.8676 189.709 18.6822 189.663 19.6552C190.065 19.4903 190.493 19.3353 190.935 19.191C190.826 17.9178 190.335 16.955 190.011 16.5394C190.522 16.8456 191.397 17.6591 191.838 18.9173C192.319 18.7815 192.811 18.6576 193.304 18.5464C192.809 17.3009 192.009 16.4943 191.557 16.1892C192.213 16.3402 193.514 16.9648 194.33 18.3334C196.333 17.9525 198.247 17.7893 199.416 17.8867L199.515 17.2255Z" fill="url(#paint12_radial_9249_30340)"/>
<path fill-rule="evenodd" clip-rule="evenodd" d="M196.194 11.5787C197.29 12.465 198.441 14.0716 199.674 17.078L199.213 17.2673C197.993 14.294 196.882 12.7766 195.88 11.9667C194.898 11.1734 194 11.0397 193.112 10.9075C193.102 10.906 193.092 10.9045 193.082 10.9031L193.156 10.4097C193.171 10.4119 193.186 10.4142 193.201 10.4164C194.093 10.5491 195.106 10.6996 196.194 11.5787Z" fill="url(#paint13_linear_9249_30340)"/>
<path fill-rule="evenodd" clip-rule="evenodd" d="M192.204 14.8946C194.204 14.6192 196.399 15.4574 198.56 16.7887L198.299 17.2134C196.167 15.8999 194.096 15.1375 192.272 15.3888C190.473 15.6365 188.84 16.882 187.597 19.7633L187.139 19.5657C188.426 16.5824 190.177 15.1737 192.204 14.8946Z" fill="url(#paint14_linear_9249_30340)"/>
<path fill-rule="evenodd" clip-rule="evenodd" d="M199.408 17.0787C195.082 15.1833 190.795 23.1047 194.925 28.0618C195.22 27.608 195.6 27.0083 196.015 26.3158C195.875 24.7286 195.142 23.577 194.713 23.1375C195.229 23.374 196.123 24.0315 196.705 25.1318C196.922 24.7469 197.142 24.3461 197.357 23.936C196.682 22.6202 195.68 21.8545 195.155 21.6002C195.752 21.6499 196.906 21.9977 197.86 22.945C198.793 21.0335 199.545 19.0352 199.545 17.5564L199.408 17.0787Z" fill="#829416"/>
<path fill-rule="evenodd" clip-rule="evenodd" d="M199.408 17.0787C195.082 15.1833 190.795 23.1047 194.925 28.0618C195.22 27.608 195.6 27.0083 196.015 26.3158C195.875 24.7286 195.142 23.577 194.713 23.1375C195.229 23.374 196.123 24.0315 196.705 25.1318C196.922 24.7469 197.142 24.3461 197.357 23.936C196.682 22.6202 195.68 21.8545 195.155 21.6002C195.752 21.6499 196.906 21.9977 197.86 22.945C198.793 21.0335 199.545 19.0352 199.545 17.5564L199.408 17.0787Z" fill="url(#paint15_radial_9249_30340)"/>
<path fill-rule="evenodd" clip-rule="evenodd" d="M199.408 17.0787C195.082 15.1833 190.795 23.1047 194.925 28.0618C195.22 27.608 195.6 27.0083 196.015 26.3158C195.875 24.7286 195.142 23.577 194.713 23.1375C195.229 23.374 196.123 24.0315 196.705 25.1318C196.922 24.7469 197.142 24.3461 197.357 23.936C196.682 22.6202 195.68 21.8545 195.155 21.6002C195.752 21.6499 196.906 21.9977 197.86 22.945C198.793 21.0335 199.545 19.0352 199.545 17.5564L199.408 17.0787Z" fill="url(#paint16_radial_9249_30340)"/>
<path fill-rule="evenodd" clip-rule="evenodd" d="M204.269 23.9001C205.02 24.285 205.843 24.5286 206.732 24.5621C207.996 20.9659 203.185 15.4742 199.783 17.078L199.196 17.3977C199.599 18.6965 200.6 20.7017 202.112 22.2615C202.731 21.4817 203.479 21.0299 203.93 20.8615C203.59 21.1633 203.053 21.8433 202.694 22.816C203.019 23.1005 203.364 23.3618 203.727 23.5908C204.278 23.0123 204.874 22.6652 205.257 22.5223C204.989 22.7602 204.598 23.2335 204.269 23.9001Z" fill="#829416"/>
<path fill-rule="evenodd" clip-rule="evenodd" d="M204.269 23.9001C205.02 24.285 205.843 24.5286 206.732 24.5621C207.996 20.9659 203.185 15.4742 199.783 17.078L199.196 17.3977C199.599 18.6965 200.6 20.7017 202.112 22.2615C202.731 21.4817 203.479 21.0299 203.93 20.8615C203.59 21.1633 203.053 21.8433 202.694 22.816C203.019 23.1005 203.364 23.3618 203.727 23.5908C204.278 23.0123 204.874 22.6652 205.257 22.5223C204.989 22.7602 204.598 23.2335 204.269 23.9001Z" fill="url(#paint17_radial_9249_30340)"/>
<path fill-rule="evenodd" clip-rule="evenodd" d="M204.269 23.9001C205.02 24.285 205.843 24.5286 206.732 24.5621C207.996 20.9659 203.185 15.4742 199.783 17.078L199.196 17.3977C199.599 18.6965 200.6 20.7017 202.112 22.2615C202.731 21.4817 203.479 21.0299 203.93 20.8615C203.59 21.1633 203.053 21.8433 202.694 22.816C203.019 23.1005 203.364 23.3618 203.727 23.5908C204.278 23.0123 204.874 22.6652 205.257 22.5223C204.989 22.7602 204.598 23.2335 204.269 23.9001Z" fill="url(#paint18_radial_9249_30340)"/>
<path fill-rule="evenodd" clip-rule="evenodd" d="M197.566 16.9697C198.316 16.6934 199.076 16.7568 199.664 17.2647L199.338 17.6423C198.918 17.279 198.359 17.2091 197.739 17.4378C197.114 17.6685 196.442 18.2018 195.859 19.0143C194.698 20.6347 193.926 23.3226 194.601 26.7009L194.112 26.7987C193.412 23.2989 194.204 20.4674 195.454 18.7236C196.077 17.854 196.823 17.244 197.566 16.9697Z" fill="url(#paint19_linear_9249_30340)"/>
<path fill-rule="evenodd" clip-rule="evenodd" d="M203.897 19.934C202.797 18.7775 201.399 17.9418 199.944 17.9417V17.4429C201.589 17.4429 203.108 18.3812 204.258 19.5901C205.409 20.7995 206.23 22.3201 206.458 23.5605L205.968 23.651C205.76 22.5261 204.997 21.0899 203.897 19.934Z" fill="url(#paint20_linear_9249_30340)"/>
<path d="M205.924 58.3999L226.236 61.6415L186.474 70.7179L167.24 64.2347V58.3999H205.924Z" fill="url(#paint21_linear_9249_30340)"/>
<path d="M205.924 58.3999L226.236 61.6415L186.474 70.7179L167.24 64.2347V58.3999H205.924Z" fill="url(#paint22_linear_9249_30340)"/>
<path d="M205.924 58.3999L226.236 61.6415L186.474 70.7179L167.24 64.2347V58.3999H205.924Z" fill="url(#paint23_linear_9249_30340)"/>
<path d="M102.073 55.7676H156.821V64.9223H102.073V55.7676Z" fill="url(#paint24_linear_9249_30340)"/>
<path d="M102.073 55.7676H156.821V64.9223H102.073V55.7676Z" fill="url(#paint25_linear_9249_30340)"/>
<path d="M64.9827 71.5411L95.4553 67.1597L102.997 69.853L93.8394 75.3886H57.6724L64.9827 71.5411Z" fill="#288A56"/>
<path d="M21.0425 71.6615L33.6625 69.6992L51.669 71.6615L44.5125 75.509H27.5833L21.0425 71.6615Z" fill="#288A56"/>
<path fill-rule="evenodd" clip-rule="evenodd" d="M30.5162 31.165C33.4709 29.2337 37.1 29.7686 38.1079 30.2041C39.1159 30.6395 41.0963 32.4736 41.4236 37.1276C41.107 36.8538 40.7235 36.5706 40.2906 36.2832C39.0483 35.0795 38.6152 33.6577 38.5588 33.0059C38.4263 33.4637 38.3429 34.308 38.5722 35.252C38.0402 34.9581 37.4786 34.6662 36.9058 34.3815C36.8745 33.2926 37.1373 32.4202 37.3534 31.9972C36.9857 32.3266 36.4428 33.0357 36.1423 34.0092C34.0499 33.0077 31.9137 32.1311 30.587 31.6305L30.5162 31.165Z" fill="#829416"/>
<path fill-rule="evenodd" clip-rule="evenodd" d="M30.5162 31.165C33.4709 29.2337 37.1 29.7686 38.1079 30.2041C39.1159 30.6395 41.0963 32.4736 41.4236 37.1276C41.107 36.8538 40.7235 36.5706 40.2906 36.2832C39.0483 35.0795 38.6152 33.6577 38.5588 33.0059C38.4263 33.4637 38.3429 34.308 38.5722 35.252C38.0402 34.9581 37.4786 34.6662 36.9058 34.3815C36.8745 33.2926 37.1373 32.4202 37.3534 31.9972C36.9857 32.3266 36.4428 33.0357 36.1423 34.0092C34.0499 33.0077 31.9137 32.1311 30.587 31.6305L30.5162 31.165Z" fill="url(#paint26_radial_9249_30340)"/>
<path fill-rule="evenodd" clip-rule="evenodd" d="M30.5162 31.165C33.4709 29.2337 37.1 29.7686 38.1079 30.2041C39.1159 30.6395 41.0963 32.4736 41.4236 37.1276C41.107 36.8538 40.7235 36.5706 40.2906 36.2832C39.0483 35.0795 38.6152 33.6577 38.5588 33.0059C38.4263 33.4637 38.3429 34.308 38.5722 35.252C38.0402 34.9581 37.4786 34.6662 36.9058 34.3815C36.8745 33.2926 37.1373 32.4202 37.3534 31.9972C36.9857 32.3266 36.4428 33.0357 36.1423 34.0092C34.0499 33.0077 31.9137 32.1311 30.587 31.6305L30.5162 31.165Z" fill="url(#paint27_radial_9249_30340)"/>
<path d="M32.1001 72.8472C33.4274 58.0189 22.0054 52.5283 31.282 31.8413L29.6947 31.8413C18.0207 49.3935 29.6466 57.8887 25.8018 72.8472L32.1001 72.8472Z" fill="url(#paint28_radial_9249_30340)"/>
<path d="M32.1001 72.8472C33.4274 58.0189 22.0054 52.5283 31.282 31.8413L29.6947 31.8413C18.0207 49.3935 29.6466 57.8887 25.8018 72.8472L32.1001 72.8472Z" fill="url(#paint29_radial_9249_30340)"/>
<path fill-rule="evenodd" clip-rule="evenodd" d="M30.36 30.7705C31.7686 26.3771 33.0214 25.9942 38.2992 25.2296C37.9602 25.8721 37.4596 26.4945 36.8664 27.0817C35.918 27.2516 35.1216 27.1647 34.7032 27.0443C34.9961 27.2661 35.5137 27.543 36.1768 27.7151C35.7337 28.095 35.2595 28.456 34.7759 28.7934C34.0722 28.6052 33.5403 28.3261 33.2537 28.1143C33.4328 28.396 33.77 28.7849 34.2513 29.1481C32.8496 30.0671 31.4337 30.7768 30.5161 31.1641L30.36 30.7705Z" fill="#829416"/>
<path fill-rule="evenodd" clip-rule="evenodd" d="M30.36 30.7705C31.7686 26.3771 33.0214 25.9942 38.2992 25.2296C37.9602 25.8721 37.4596 26.4945 36.8664 27.0817C35.918 27.2516 35.1216 27.1647 34.7032 27.0443C34.9961 27.2661 35.5137 27.543 36.1768 27.7151C35.7337 28.095 35.2595 28.456 34.7759 28.7934C34.0722 28.6052 33.5403 28.3261 33.2537 28.1143C33.4328 28.396 33.77 28.7849 34.2513 29.1481C32.8496 30.0671 31.4337 30.7768 30.5161 31.1641L30.36 30.7705Z" fill="url(#paint30_radial_9249_30340)"/>
<path fill-rule="evenodd" clip-rule="evenodd" d="M30.36 30.7705C31.7686 26.3771 33.0214 25.9942 38.2992 25.2296C37.9602 25.8721 37.4596 26.4945 36.8664 27.0817C35.918 27.2516 35.1216 27.1647 34.7032 27.0443C34.9961 27.2661 35.5137 27.543 36.1768 27.7151C35.7337 28.095 35.2595 28.456 34.7759 28.7934C34.0722 28.6052 33.5403 28.3261 33.2537 28.1143C33.4328 28.396 33.77 28.7849 34.2513 29.1481C32.8496 30.0671 31.4337 30.7768 30.5161 31.1641L30.36 30.7705Z" fill="url(#paint31_radial_9249_30340)"/>
<path fill-rule="evenodd" clip-rule="evenodd" d="M34.8729 30.6514C33.1577 30.6985 31.581 31.1886 30.7583 31.6046L30.5332 31.1595C31.4212 30.7104 33.0701 30.2019 34.8592 30.1527C36.6495 30.1036 38.6176 30.5142 40.0959 31.9503L39.7483 32.3081C38.4016 30.9998 36.5869 30.6043 34.8729 30.6514Z" fill="url(#paint32_linear_9249_30340)"/>
<path fill-rule="evenodd" clip-rule="evenodd" d="M30.7602 31.2854C32.6941 24.2919 28.275 21.4982 25.0018 22.5308C25.4491 22.9193 25.9757 23.4651 26.5136 24.1256C27.2811 24.196 27.9111 24.1062 28.2658 23.9971C27.9957 24.2096 27.5296 24.4739 26.9303 24.6579C27.2143 25.0354 27.4965 25.4416 27.7671 25.8704C28.5546 25.6786 29.148 25.3676 29.456 25.1369C29.2372 25.486 28.7786 26.0001 28.105 26.429C28.942 27.874 29.6121 29.5267 29.7782 31.1756L30.7602 31.2854Z" fill="#829416"/>
<path fill-rule="evenodd" clip-rule="evenodd" d="M30.7602 31.2854C32.6941 24.2919 28.275 21.4982 25.0018 22.5308C25.4491 22.9193 25.9757 23.4651 26.5136 24.1256C27.2811 24.196 27.9111 24.1062 28.2658 23.9971C27.9957 24.2096 27.5296 24.4739 26.9303 24.6579C27.2143 25.0354 27.4965 25.4416 27.7671 25.8704C28.5546 25.6786 29.148 25.3676 29.456 25.1369C29.2372 25.486 28.7786 26.0001 28.105 26.429C28.942 27.874 29.6121 29.5267 29.7782 31.1756L30.7602 31.2854Z" fill="url(#paint33_radial_9249_30340)"/>
<path fill-rule="evenodd" clip-rule="evenodd" d="M30.7602 31.2854C32.6941 24.2919 28.275 21.4982 25.0018 22.5308C25.4491 22.9193 25.9757 23.4651 26.5136 24.1256C27.2811 24.196 27.9111 24.1062 28.2658 23.9971C27.9957 24.2096 27.5296 24.4739 26.9303 24.6579C27.2143 25.0354 27.4965 25.4416 27.7671 25.8704C28.5546 25.6786 29.148 25.3676 29.456 25.1369C29.2372 25.486 28.7786 26.0001 28.105 26.429C28.942 27.874 29.6121 29.5267 29.7782 31.1756L30.7602 31.2854Z" fill="url(#paint34_radial_9249_30340)"/>
<path fill-rule="evenodd" clip-rule="evenodd" d="M37.0589 26.0739C34.3699 26.3835 32.2229 27.9282 30.9117 30.9632L30.4538 30.7654C31.8292 27.5817 34.1198 25.9101 37.0018 25.5783L37.0589 26.0739Z" fill="url(#paint35_linear_9249_30340)"/>
<path fill-rule="evenodd" clip-rule="evenodd" d="M30.8145 31.4055C28.2817 25.6901 23.2866 21.8452 16.9256 30.0252L17.2922 30.1836C17.8486 29.9106 18.5927 29.76 19.4494 29.7051C20.394 28.8745 20.8839 27.9338 21.0348 27.4302C21.0722 27.9157 20.9775 28.7856 20.5376 29.6835C20.9848 29.6921 21.4508 29.72 21.9274 29.7644C22.3423 28.5197 22.2722 27.4127 22.1356 26.8888C22.4925 27.3854 22.9861 28.5086 22.8892 29.8739C23.398 29.9417 23.9124 30.0254 24.4229 30.1216C24.4635 28.746 24.0371 27.6598 23.7355 27.1882C24.293 27.5979 25.2645 28.7162 25.4766 30.3387C27.5191 30.7951 29.3897 31.4208 30.452 31.9886L30.8145 31.4055Z" fill="#829416"/>
<path fill-rule="evenodd" clip-rule="evenodd" d="M30.8145 31.4055C28.2817 25.6901 23.2866 21.8452 16.9256 30.0252L17.2922 30.1836C17.8486 29.9106 18.5927 29.76 19.4494 29.7051C20.394 28.8745 20.8839 27.9338 21.0348 27.4302C21.0722 27.9157 20.9775 28.7856 20.5376 29.6835C20.9848 29.6921 21.4508 29.72 21.9274 29.7644C22.3423 28.5197 22.2722 27.4127 22.1356 26.8888C22.4925 27.3854 22.9861 28.5086 22.8892 29.8739C23.398 29.9417 23.9124 30.0254 24.4229 30.1216C24.4635 28.746 24.0371 27.6598 23.7355 27.1882C24.293 27.5979 25.2645 28.7162 25.4766 30.3387C27.5191 30.7951 29.3897 31.4208 30.452 31.9886L30.8145 31.4055Z" fill="url(#paint36_radial_9249_30340)"/>
<path fill-rule="evenodd" clip-rule="evenodd" d="M30.8145 31.4055C28.2817 25.6901 23.2866 21.8452 16.9256 30.0252L17.2922 30.1836C17.8486 29.9106 18.5927 29.76 19.4494 29.7051C20.394 28.8745 20.8839 27.9338 21.0348 27.4302C21.0722 27.9157 20.9775 28.7856 20.5376 29.6835C20.9848 29.6921 21.4508 29.72 21.9274 29.7644C22.3423 28.5197 22.2722 27.4127 22.1356 26.8888C22.4925 27.3854 22.9861 28.5086 22.8892 29.8739C23.398 29.9417 23.9124 30.0254 24.4229 30.1216C24.4635 28.746 24.0371 27.6598 23.7355 27.1882C24.293 27.5979 25.2645 28.7162 25.4766 30.3387C27.5191 30.7951 29.3897 31.4208 30.452 31.9886L30.8145 31.4055Z" fill="url(#paint37_radial_9249_30340)"/>
<path fill-rule="evenodd" clip-rule="evenodd" d="M29.977 24.7313C30.6491 26.012 31.0795 27.994 31.0179 31.3301L30.5191 31.3209C30.5801 28.0205 30.1509 26.1362 29.5352 24.9631C28.9321 23.8138 28.1384 23.3211 27.3545 22.8345C27.3458 22.829 27.337 22.8236 27.3282 22.8182L27.5914 22.3944C27.6046 22.4026 27.6179 22.4108 27.6312 22.4191C28.4184 22.9076 29.3104 23.4611 29.977 24.7313Z" fill="url(#paint38_linear_9249_30340)"/>
<path fill-rule="evenodd" clip-rule="evenodd" d="M24.8715 26.2373C26.8671 26.7916 28.5945 28.4745 30.0893 30.6094L29.6806 30.8955C28.2053 28.7884 26.5629 27.2248 24.738 26.7179C22.9384 26.2181 20.8894 26.7286 18.543 28.9398L18.2009 28.5768C20.6281 26.2894 22.8504 25.6759 24.8715 26.2373Z" fill="url(#paint39_linear_9249_30340)"/>
<path fill-rule="evenodd" clip-rule="evenodd" d="M30.7728 31.2236C27.467 27.6751 20.1984 33.3968 22.0739 39.7526C22.5374 39.4439 23.1414 39.0321 23.8168 38.5469C24.3295 36.9948 24.1077 35.6122 23.8828 35.0239C24.2723 35.4564 24.8471 36.4395 24.9477 37.7124C25.3094 37.4381 25.6794 37.1498 26.0495 36.8512C25.9488 35.3371 25.316 34.208 24.9248 33.7547C25.4671 34.0445 26.4131 34.8419 26.9265 36.1221C28.5842 34.7006 30.1058 33.1236 30.7078 31.7299L30.7728 31.2236Z" fill="#829416"/>
<path fill-rule="evenodd" clip-rule="evenodd" d="M30.7728 31.2236C27.467 27.6751 20.1984 33.3968 22.0739 39.7526C22.5374 39.4439 23.1414 39.0321 23.8168 38.5469C24.3295 36.9948 24.1077 35.6122 23.8828 35.0239C24.2723 35.4564 24.8471 36.4395 24.9477 37.7124C25.3094 37.4381 25.6794 37.1498 26.0495 36.8512C25.9488 35.3371 25.316 34.208 24.9248 33.7547C25.4671 34.0445 26.4131 34.8419 26.9265 36.1221C28.5842 34.7006 30.1058 33.1236 30.7078 31.7299L30.7728 31.2236Z" fill="url(#paint40_radial_9249_30340)"/>
<path fill-rule="evenodd" clip-rule="evenodd" d="M30.7728 31.2236C27.467 27.6751 20.1984 33.3968 22.0739 39.7526C22.5374 39.4439 23.1414 39.0321 23.8168 38.5469C24.3295 36.9948 24.1077 35.6122 23.8828 35.0239C24.2723 35.4564 24.8471 36.4395 24.9477 37.7124C25.3094 37.4381 25.6794 37.1498 26.0495 36.8512C25.9488 35.3371 25.316 34.208 24.9248 33.7547C25.4671 34.0445 26.4131 34.8419 26.9265 36.1221C28.5842 34.7006 30.1058 33.1236 30.7078 31.7299L30.7728 31.2236Z" fill="url(#paint41_radial_9249_30340)"/>
<path fill-rule="evenodd" clip-rule="evenodd" d="M32.5808 39.6366C33.1317 40.3048 33.808 40.8692 34.6327 41.2631C37.2887 38.3873 34.9895 31.2504 31.1291 31.3768L30.4455 31.4392C30.2965 32.8279 30.424 35.1264 31.2138 37.2126C32.116 36.7292 33.005 36.6074 33.4997 36.6326C33.0554 36.7784 32.2721 37.2014 31.5372 37.973C31.7277 38.3734 31.9461 38.76 32.1955 39.1239C32.9508 38.802 33.6551 38.7174 34.0752 38.7389C33.7246 38.8539 33.1631 39.1414 32.5808 39.6366Z" fill="#829416"/>
<path fill-rule="evenodd" clip-rule="evenodd" d="M32.5808 39.6366C33.1317 40.3048 33.808 40.8692 34.6327 41.2631C37.2887 38.3873 34.9895 31.2504 31.1291 31.3768L30.4455 31.4392C30.2965 32.8279 30.424 35.1264 31.2138 37.2126C32.116 36.7292 33.005 36.6074 33.4997 36.6326C33.0554 36.7784 32.2721 37.2014 31.5372 37.973C31.7277 38.3734 31.9461 38.76 32.1955 39.1239C32.9508 38.802 33.6551 38.7174 34.0752 38.7389C33.7246 38.8539 33.1631 39.1414 32.5808 39.6366Z" fill="url(#paint42_radial_9249_30340)"/>
<path fill-rule="evenodd" clip-rule="evenodd" d="M32.5808 39.6366C33.1317 40.3048 33.808 40.8692 34.6327 41.2631C37.2887 38.3873 34.9895 31.2504 31.1291 31.3768L30.4455 31.4392C30.2965 32.8279 30.424 35.1264 31.2138 37.2126C32.116 36.7292 33.005 36.6074 33.4997 36.6326C33.0554 36.7784 32.2721 37.2014 31.5372 37.973C31.7277 38.3734 31.9461 38.76 32.1955 39.1239C32.9508 38.802 33.6551 38.7174 34.0752 38.7389C33.7246 38.8539 33.1631 39.1414 32.5808 39.6366Z" fill="url(#paint43_radial_9249_30340)"/>
<path fill-rule="evenodd" clip-rule="evenodd" d="M29.0842 30.3775C29.9011 30.422 30.5898 30.7906 30.9361 31.5063L30.4871 31.7235C30.2371 31.207 29.7362 30.9126 29.0571 30.8756C28.3718 30.8384 27.5198 31.068 26.6389 31.5973C24.882 32.6529 23.0585 34.8743 22.3193 38.336L21.8314 38.2318C22.5966 34.6488 24.495 32.3034 26.382 31.1697C27.3231 30.6042 28.2735 30.3335 29.0842 30.3775Z" fill="url(#paint44_linear_9249_30340)"/>
<path fill-rule="evenodd" clip-rule="evenodd" d="M33.8501 35.7418C33.2835 34.2025 32.3057 32.8436 30.9316 32.2499L31.1294 31.792C32.6777 32.4609 33.7267 33.9623 34.3182 35.5695C34.91 37.1774 35.0642 38.9438 34.7751 40.2049L34.2888 40.0934C34.5517 38.9468 34.4164 37.2804 33.8501 35.7418Z" fill="url(#paint45_linear_9249_30340)"/>
<path d="M95.1476 33.5811H98.2257L96.3789 70.8429L90.8384 74.317L95.1476 33.5811Z" fill="url(#paint46_linear_9249_30340)"/>
<path d="M95.1476 33.5811H98.2257L96.3789 70.8429L90.8384 74.317L95.1476 33.5811Z" fill="url(#paint47_linear_9249_30340)"/>
<path d="M116.027 55.6123H118.386V63.0814H116.027V55.6123Z" fill="url(#paint48_linear_9249_30340)"/>
<path d="M116.027 55.6123H118.386V63.0814H116.027V55.6123Z" fill="url(#paint49_linear_9249_30340)"/>
<path d="M116.027 55.6123H118.386V63.0814H116.027V55.6123Z" fill="url(#paint50_linear_9249_30340)"/>
<path d="M130.628 55.6123H132.987V63.0814H130.628V55.6123Z" fill="url(#paint51_linear_9249_30340)"/>
<path d="M130.628 55.6123H132.987V63.0814H130.628V55.6123Z" fill="url(#paint52_linear_9249_30340)"/>
<path d="M130.628 55.6123H132.987V63.0814H130.628V55.6123Z" fill="url(#paint53_linear_9249_30340)"/>
<path d="M138.813 55.6143H141.172V63.0833H138.813V55.6143Z" fill="url(#paint54_linear_9249_30340)"/>
<path d="M138.813 55.6143H141.172V63.0833H138.813V55.6143Z" fill="url(#paint55_linear_9249_30340)"/>
<path d="M138.813 55.6143H141.172V63.0833H138.813V55.6143Z" fill="url(#paint56_linear_9249_30340)"/>
<path d="M146.994 55.6123H149.353V63.0814H146.994V55.6123Z" fill="url(#paint57_linear_9249_30340)"/>
<path d="M146.994 55.6123H149.353V63.0814H146.994V55.6123Z" fill="url(#paint58_linear_9249_30340)"/>
<path d="M146.994 55.6123H149.353V63.0814H146.994V55.6123Z" fill="url(#paint59_linear_9249_30340)"/>
<path d="M39.7202 33.5811H95.1465L90.9912 74.0285H30.1782L39.7202 33.5811Z" fill="url(#paint60_linear_9249_30340)"/>
<path d="M39.7202 33.5811H95.1465L90.9912 74.0285H30.1782L39.7202 33.5811Z" fill="url(#paint61_linear_9249_30340)"/>
<path fill-rule="evenodd" clip-rule="evenodd" d="M151.947 62.835H168.087V67.9445H151.947V62.835ZM152.439 63.3274V67.452H167.594V63.3274H152.439Z" fill="black"/>
<path d="M160.247 65.8525L180.317 70.9335V78.013L160.247 70.3157V65.8525Z" fill="url(#paint62_linear_9249_30340)"/>
<path d="M160.247 65.8525L180.317 70.9335V78.013L160.247 70.3157V65.8525Z" fill="url(#paint63_linear_9249_30340)"/>
<path d="M132.987 67.6982H169.174V73.7004H132.987V67.6982Z" fill="url(#paint64_linear_9249_30340)"/>
<path d="M132.987 67.6982H169.174V73.7004H132.987V67.6982Z" fill="url(#paint65_linear_9249_30340)"/>
<path d="M132.987 67.6982H169.174V73.7004H132.987V67.6982Z" fill="url(#paint66_linear_9249_30340)"/>
<path d="M152.193 33.5811H169.021V64.9218H152.193V33.5811Z" fill="url(#paint67_linear_9249_30340)"/>
<path d="M152.193 33.5811H169.021V64.9218H152.193V33.5811Z" fill="url(#paint68_linear_9249_30340)"/>
<path d="M180.309 71.0034L219.347 67.002L220.732 71.0034L180.309 78.0108V71.0034Z" fill="url(#paint69_linear_9249_30340)"/>
<path d="M180.309 71.0034L219.347 67.002L220.732 71.0034L180.309 78.0108V71.0034Z" fill="url(#paint70_linear_9249_30340)"/>
<path d="M180.309 71.0034L219.347 67.002L220.732 71.0034L180.309 78.0108V71.0034Z" fill="url(#paint71_linear_9249_30340)"/>
<path d="M132.979 62.1587H166.712V67.6992H132.979V62.1587Z" fill="url(#paint72_linear_9249_30340)"/>
<path d="M132.979 62.1587H166.712V67.6992H132.979V62.1587Z" fill="url(#paint73_linear_9249_30340)"/>
<path d="M96.4497 60.4595H103.108L109.767 63.5423V69.9537H96.4497V60.4595Z" fill="url(#paint74_linear_9249_30340)"/>
<path d="M96.4497 60.4595H103.108L109.767 63.5423V69.9537H96.4497V60.4595Z" fill="url(#paint75_linear_9249_30340)"/>
<path d="M96.4497 60.4595H103.108L109.767 63.5423V69.9537H96.4497V60.4595Z" fill="url(#paint76_linear_9249_30340)"/>
<path d="M98.2397 32.8125H104.444L102.336 58.6146L96.4497 60.4614L98.2397 32.8125Z" fill="url(#paint77_linear_9249_30340)"/>
<path d="M98.2397 32.8125H104.444L102.336 58.6146L96.4497 60.4614L98.2397 32.8125Z" fill="url(#paint78_linear_9249_30340)"/>
<path d="M96.3823 57.3091H104.311L111.461 61.7722V65.6243L104.311 61.1614H96.3823V57.3091Z" fill="url(#paint79_linear_9249_30340)"/>
<path d="M96.3823 57.3091H104.311L111.461 61.7722V65.6243L104.311 61.1614H96.3823V57.3091Z" fill="url(#paint80_linear_9249_30340)"/>
<path d="M110.343 66.2938L113.729 60.9282H114.686V62.3029L112.421 66.2938V70.3746L107.573 78.0073V82.0126H105.11V78.0073L110.343 70.3746V66.2938Z" fill="url(#paint81_linear_9249_30340)"/>
<path d="M110.343 66.2938L113.729 60.9282H114.686V62.3029L112.421 66.2938V70.3746L107.573 78.0073V82.0126H105.11V78.0073L110.343 70.3746V66.2938Z" fill="url(#paint82_linear_9249_30340)"/>
<path d="M110.343 66.2938L113.729 60.9282H114.686V62.3029L112.421 66.2938V70.3746L107.573 78.0073V82.0126H105.11V78.0073L110.343 70.3746V66.2938Z" fill="url(#paint83_linear_9249_30340)"/>
<path d="M111.768 64.9219H132.978V68.774H111.768V64.9219Z" fill="url(#paint84_linear_9249_30340)"/>
<path d="M111.768 64.9219H132.978V68.774H111.768V64.9219Z" fill="url(#paint85_linear_9249_30340)"/>
<path d="M108.536 71.543H132.94V75.3951L108.536 75.3953V71.543Z" fill="url(#paint86_linear_9249_30340)"/>
<path d="M108.536 71.543H132.94V75.3951L108.536 75.3953V71.543Z" fill="url(#paint87_linear_9249_30340)"/>
<path d="M105.935 78.1592H132.956V82.0113L105.935 82.0115V78.1592Z" fill="url(#paint88_linear_9249_30340)"/>
<path d="M105.935 78.1592H132.956V82.0113L105.935 82.0115V78.1592Z" fill="url(#paint89_linear_9249_30340)"/>
<path d="M114.692 62.1567H132.978V65.0219H111.768L114.692 62.1567Z" fill="url(#paint90_linear_9249_30340)"/>
<path d="M114.692 62.1567H132.978V65.0219H111.768L114.692 62.1567Z" fill="url(#paint91_linear_9249_30340)"/>
<path d="M114.692 62.1567H132.978V65.0219H111.768L114.692 62.1567Z" fill="url(#paint92_linear_9249_30340)"/>
<path d="M111.46 68.7729H132.979V71.6381H108.536L111.46 68.7729Z" fill="url(#paint93_linear_9249_30340)"/>
<path d="M111.46 68.7729H132.979V71.6381H108.536L111.46 68.7729Z" fill="url(#paint94_linear_9249_30340)"/>
<path d="M111.46 68.7729H132.979V71.6381H108.536L111.46 68.7729Z" fill="url(#paint95_linear_9249_30340)"/>
<path d="M108.859 75.394H132.956V78.2592H105.935L108.859 75.394Z" fill="url(#paint96_linear_9249_30340)"/>
<path d="M108.859 75.394H132.956V78.2592H105.935L108.859 75.394Z" fill="url(#paint97_linear_9249_30340)"/>
<path d="M108.859 75.394H132.956V78.2592H105.935L108.859 75.394Z" fill="url(#paint98_linear_9249_30340)"/>
<path d="M110.746 82.0132H127.805L142.58 120.001H77.0869L110.746 82.0132Z" fill="url(#paint99_linear_9249_30340)"/>
<path d="M116.487 64.9219H125.391V68.774H116.487V64.9219Z" fill="#E82C41"/>
<path d="M113.255 71.543H126.445V75.3951L113.255 75.3953V71.543Z" fill="#E82C41"/>
<path d="M110.652 78.1592H127.814V82.0113L110.652 82.0115V78.1592Z" fill="#E82C41"/>
<path d="M119.411 62.1567L124.338 62.1567L125.416 65.0219H116.487L119.411 62.1567Z" fill="#CC1E32"/>
<path d="M116.179 68.7729L125.392 68.7729L126.445 71.6381H113.255L116.179 68.7729Z" fill="#CC1E32"/>
<path d="M113.576 75.394H126.444L127.814 78.2592H110.652L113.576 75.394Z" fill="#CC1E32"/>
<path d="M51.3306 67.8516H62.3658V74.0076H51.3306V67.8516Z" fill="#A39A8D"/>
<path d="M27.5845 75.394H44.5137V79.2416H27.5845V75.394Z" fill="url(#paint100_linear_9249_30340)"/>
<path d="M27.5845 75.394H44.5137V79.2416H27.5845V75.394Z" fill="url(#paint101_linear_9249_30340)"/>
<path d="M57.6724 75.394H93.8394V79.2416H57.6724V75.394Z" fill="url(#paint102_linear_9249_30340)"/>
<path d="M57.6724 75.394H93.8394V79.2416H57.6724V75.394Z" fill="url(#paint103_linear_9249_30340)"/>
<path d="M93.8379 75.3927L102.764 69.9292V72.7764L93.8379 79.2403V75.3927Z" fill="url(#paint104_linear_9249_30340)"/>
<path d="M93.8379 75.3927L102.764 69.9292V72.7764L93.8379 79.2403V75.3927Z" fill="url(#paint105_linear_9249_30340)"/>
<path d="M93.8379 75.3927L102.764 69.9292V72.7764L93.8379 79.2403V75.3927Z" fill="url(#paint106_linear_9249_30340)"/>
<path d="M44.5137 75.394L51.5162 71.7773V74.2398L44.5137 79.2416V75.394Z" fill="url(#paint107_linear_9249_30340)"/>
<path d="M44.5137 75.394L51.5162 71.7773V74.2398L44.5137 79.2416V75.394Z" fill="url(#paint108_linear_9249_30340)"/>
<path d="M44.5137 75.394L51.5162 71.7773V74.2398L44.5137 79.2416V75.394Z" fill="url(#paint109_linear_9249_30340)"/>
<path d="M20.8125 71.5474L27.5842 75.3949V79.2425L20.8125 74.7793V71.5474Z" fill="url(#paint110_linear_9249_30340)"/>
<path d="M20.8125 71.5474L27.5842 75.3949V79.2425L20.8125 74.7793V71.5474Z" fill="url(#paint111_linear_9249_30340)"/>
<path d="M20.8125 71.5474L27.5842 75.3949V79.2425L20.8125 74.7793V71.5474Z" fill="url(#paint112_linear_9249_30340)"/>
<path d="M51.3306 67.8516H62.3658L51.3306 74.0076V67.8516Z" fill="url(#paint113_linear_9249_30340)"/>
<path d="M51.3306 67.8516H62.3658L51.3306 74.0076V67.8516Z" fill="url(#paint114_linear_9249_30340)"/>
<path d="M51.3306 67.8516H62.3658L51.3306 74.0076V67.8516Z" fill="url(#paint115_radial_9249_30340)"/>
<path d="M51.3306 67.8516H62.3658L51.3306 74.0076V67.8516Z" fill="url(#paint116_linear_9249_30340)"/>
<path d="M180.047 58.6182L211.804 54.4629V60.1573L180.047 64.3126V58.6182Z" fill="url(#paint117_linear_9249_30340)"/>
<path d="M180.047 58.6182L211.804 54.4629V60.1573L180.047 64.3126V58.6182Z" fill="url(#paint118_linear_9249_30340)"/>
<path d="M180.047 58.6182L211.804 54.4629V60.1573L180.047 64.3126V58.6182Z" fill="url(#paint119_linear_9249_30340)"/>
<path d="M169.021 55.7676L180.308 58.0761V64.3909L169.021 62.0054V55.7676Z" fill="url(#paint120_linear_9249_30340)"/>
<path d="M169.021 55.7676L180.308 58.0761V64.3909L169.021 62.0054V55.7676Z" fill="url(#paint121_linear_9249_30340)"/>
<path d="M178.869 29.27L192.293 29.7896L194.259 34.4305H180.715L178.869 29.27Z" fill="url(#paint122_linear_9249_30340)"/>
<path d="M178.869 29.27L192.293 29.7896L194.259 34.4305H180.715L178.869 29.27Z" fill="url(#paint123_linear_9249_30340)"/>
<path d="M167.839 29.1934H179.536L182.102 35.8424H167.839V29.1934Z" fill="url(#paint124_linear_9249_30340)"/>
<path d="M167.839 29.1934H179.536L182.102 35.8424H167.839V29.1934Z" fill="url(#paint125_linear_9249_30340)"/>
<path d="M174.661 34.3496H211.343L217.345 54.4627L179.894 58.618L174.661 34.3496Z" fill="url(#paint126_linear_9249_30340)"/>
<path d="M174.661 34.3496H211.343L217.345 54.4627L179.894 58.618L174.661 34.3496Z" fill="url(#paint127_linear_9249_30340)"/>
<path d="M174.661 34.3496H211.343L217.345 54.4627L179.894 58.618L174.661 34.3496Z" fill="url(#paint128_linear_9249_30340)"/>
<path d="M169.021 34.3496H174.768L180.101 58.618L169.021 56.3095V34.3496Z" fill="url(#paint129_linear_9249_30340)"/>
<path d="M169.021 34.3496H174.768L180.101 58.618L169.021 56.3095V34.3496Z" fill="url(#paint130_linear_9249_30340)"/>
<path d="M104.271 33.5811H153.224L155.477 56.1566H102.073L104.271 33.5811Z" fill="url(#paint131_linear_9249_30340)"/>
<path d="M104.271 33.5811H153.224L155.477 56.1566H102.073L104.271 33.5811Z" fill="url(#paint132_linear_9249_30340)"/>
<path d="M108.768 66.2938L112.154 60.9282H113.924L110.846 66.2938V70.3746L105.998 78.0073V82.0126H103.535V78.0073L108.768 70.3746V66.2938Z" fill="url(#paint133_linear_9249_30340)"/>
<path d="M108.768 66.2938L112.154 60.9282H113.924L110.846 66.2938V70.3746L105.998 78.0073V82.0126H103.535V78.0073L108.768 70.3746V66.2938Z" fill="url(#paint134_linear_9249_30340)"/>
<path d="M108.768 66.2938L112.154 60.9282H113.924L110.846 66.2938V70.3746L105.998 78.0073V82.0126H103.535V78.0073L108.768 70.3746V66.2938Z" fill="url(#paint135_linear_9249_30340)"/>
<path d="M132.006 66.7574L131.622 61.7734H133.391L134.084 66.7574V70.8352L134.98 78.009V82.0113H132.517V78.009L132.006 70.8352V66.7574Z" fill="url(#paint136_linear_9249_30340)"/>
<path d="M132.006 66.7574L131.622 61.7734H133.391L134.084 66.7574V70.8352L134.98 78.009V82.0113H132.517V78.009L132.006 70.8352V66.7574Z" fill="url(#paint137_linear_9249_30340)"/>
<path d="M132.006 66.7574L131.622 61.7734H133.391L134.084 66.7574V70.8352L134.98 78.009V82.0113H132.517V78.009L132.006 70.8352V66.7574Z" fill="url(#paint138_linear_9249_30340)"/>
<path d="M166.712 62.2559L186.566 67.4886V73.5471L166.712 67.5448V62.2559Z" fill="url(#paint139_linear_9249_30340)"/>
<path d="M166.712 62.2559L186.566 67.4886V73.5471L166.712 67.5448V62.2559Z" fill="url(#paint140_linear_9249_30340)"/>
<path d="M166.712 62.2559L186.566 67.4886V73.5471L166.712 67.5448V62.2559Z" fill="url(#paint141_linear_9249_30340)"/>
<path d="M186.564 67.5604L226.271 61.2505L227.656 66.1604L186.564 73.7015V67.5604Z" fill="url(#paint142_linear_9249_30340)"/>
<path d="M186.564 67.5604L226.271 61.2505L227.656 66.1604L186.564 73.7015V67.5604Z" fill="url(#paint143_linear_9249_30340)"/>
<path d="M186.564 67.5604L226.271 61.2505L227.656 66.1604L186.564 73.7015V67.5604Z" fill="url(#paint144_linear_9249_30340)"/>
<path d="M50.9765 21.5127H166.722L169.173 33.5796H47.8984L50.9765 21.5127Z" fill="url(#paint145_linear_9249_30340)"/>
<path d="M50.9765 21.5127H166.722L169.173 33.5796H47.8984L50.9765 21.5127Z" fill="url(#paint146_linear_9249_30340)"/>
<path d="M50.9765 21.5127H166.722L169.173 33.5796H47.8984L50.9765 21.5127Z" fill="url(#paint147_linear_9249_30340)"/>
<path d="M68.3608 23.6831H72.0617V30.147H68.3608V23.6831Z" fill="url(#paint148_linear_9249_30340)"/>
<path d="M68.3608 23.6831H72.0617V30.147H68.3608V23.6831Z" fill="url(#paint149_linear_9249_30340)"/>
<path d="M68.3608 23.6831H72.0617V30.147H68.3608V23.6831Z" fill="url(#paint150_radial_9249_30340)"/>
<path d="M68.3608 23.6831H72.0617V30.147H68.3608V23.6831Z" fill="url(#paint151_linear_9249_30340)"/>
<path d="M102.237 23.6831H105.938V30.147H102.237V23.6831Z" fill="url(#paint152_linear_9249_30340)"/>
<path d="M102.237 23.6831H105.938V30.147H102.237V23.6831Z" fill="url(#paint153_linear_9249_30340)"/>
<path d="M102.237 23.6831H105.938V30.147H102.237V23.6831Z" fill="url(#paint154_radial_9249_30340)"/>
<path d="M102.237 23.6831H105.938V30.147H102.237V23.6831Z" fill="url(#paint155_linear_9249_30340)"/>
<path d="M141.055 23.6831H144.756V30.147H141.055V23.6831Z" fill="url(#paint156_linear_9249_30340)"/>
<path d="M141.055 23.6831H144.756V30.147H141.055V23.6831Z" fill="url(#paint157_linear_9249_30340)"/>
<path d="M141.055 23.6831H144.756V30.147H141.055V23.6831Z" fill="url(#paint158_radial_9249_30340)"/>
<path d="M141.055 23.6831H144.756V30.147H141.055V23.6831Z" fill="url(#paint159_linear_9249_30340)"/>
<path d="M8.96088 102.154C0.637399 103.563 -2.04759 116.713 7.08138 120.001H73.8484C76.2649 114.271 72.685 110.326 67.7625 110.326C67.852 107.758 66.6885 103.131 61.3185 105.16C62.303 102.06 56.8435 98.7722 53.711 101.308C54.785 93.0423 46.014 91.2576 42.613 93.7938C42.8815 90.3183 35.632 88.7214 33.2155 91.9151C35.1845 87.0306 29.0986 81.1129 24.7131 83.743C22.1176 75.9466 11.0196 80.1735 12.7201 85.6216C0.906126 88.6275 5.11262 100.839 8.96088 102.154Z" fill="url(#paint160_linear_9249_30340)"/>
<path d="M8.96088 102.154C0.637399 103.563 -2.04759 116.713 7.08138 120.001H73.8484C76.2649 114.271 72.685 110.326 67.7625 110.326C67.852 107.758 66.6885 103.131 61.3185 105.16C62.303 102.06 56.8435 98.7722 53.711 101.308C54.785 93.0423 46.014 91.2576 42.613 93.7938C42.8815 90.3183 35.632 88.7214 33.2155 91.9151C35.1845 87.0306 29.0986 81.1129 24.7131 83.743C22.1176 75.9466 11.0196 80.1735 12.7201 85.6216C0.906126 88.6275 5.11262 100.839 8.96088 102.154Z" fill="url(#paint161_radial_9249_30340)"/>
<path d="M8.96088 102.154C0.637399 103.563 -2.04759 116.713 7.08138 120.001H73.8484C76.2649 114.271 72.685 110.326 67.7625 110.326C67.852 107.758 66.6885 103.131 61.3185 105.16C62.303 102.06 56.8435 98.7722 53.711 101.308C54.785 93.0423 46.014 91.2576 42.613 93.7938C42.8815 90.3183 35.632 88.7214 33.2155 91.9151C35.1845 87.0306 29.0986 81.1129 24.7131 83.743C22.1176 75.9466 11.0196 80.1735 12.7201 85.6216C0.906126 88.6275 5.11262 100.839 8.96088 102.154Z" fill="url(#paint162_radial_9249_30340)"/>
<path d="M8.96088 102.154C0.637399 103.563 -2.04759 116.713 7.08138 120.001H73.8484C76.2649 114.271 72.685 110.326 67.7625 110.326C67.852 107.758 66.6885 103.131 61.3185 105.16C62.303 102.06 56.8435 98.7722 53.711 101.308C54.785 93.0423 46.014 91.2576 42.613 93.7938C42.8815 90.3183 35.632 88.7214 33.2155 91.9151C35.1845 87.0306 29.0986 81.1129 24.7131 83.743C22.1176 75.9466 11.0196 80.1735 12.7201 85.6216C0.906126 88.6275 5.11262 100.839 8.96088 102.154Z" fill="url(#paint163_radial_9249_30340)"/>
<path d="M22.2841 112.361C19.3907 110.953 14.5131 115.839 19.804 119.897H61.9654C65.2723 116.336 64.1975 111.118 60.6427 111.118C62.9575 106.812 60.312 103.417 56.7572 103.417C57.9973 100.27 54.6905 96.9574 51.301 97.7028C48.4076 92.4856 36.3377 95.0528 35.9244 101.264C35.3457 99.0278 30.3028 99.4419 30.3028 103.997C26.9133 101.264 18.8117 105.818 22.2841 112.361Z" fill="url(#paint164_linear_9249_30340)"/>
<path d="M22.2841 112.361C19.3907 110.953 14.5131 115.839 19.804 119.897H61.9654C65.2723 116.336 64.1975 111.118 60.6427 111.118C62.9575 106.812 60.312 103.417 56.7572 103.417C57.9973 100.27 54.6905 96.9574 51.301 97.7028C48.4076 92.4856 36.3377 95.0528 35.9244 101.264C35.3457 99.0278 30.3028 99.4419 30.3028 103.997C26.9133 101.264 18.8117 105.818 22.2841 112.361Z" fill="url(#paint165_radial_9249_30340)"/>
<path d="M22.2841 112.361C19.3907 110.953 14.5131 115.839 19.804 119.897H61.9654C65.2723 116.336 64.1975 111.118 60.6427 111.118C62.9575 106.812 60.312 103.417 56.7572 103.417C57.9973 100.27 54.6905 96.9574 51.301 97.7028C48.4076 92.4856 36.3377 95.0528 35.9244 101.264C35.3457 99.0278 30.3028 99.4419 30.3028 103.997C26.9133 101.264 18.8117 105.818 22.2841 112.361Z" fill="url(#paint166_radial_9249_30340)"/>
<path d="M147.74 112.361C144.846 110.953 139.969 115.839 145.26 119.897H187.421C190.728 116.336 189.653 111.118 186.098 111.118C188.413 106.812 185.768 103.417 182.213 103.417C183.453 100.27 180.146 96.9574 176.757 97.7028C173.863 92.4856 161.793 95.0528 161.38 101.264C160.801 99.0278 155.758 99.4419 155.758 103.997C152.369 101.264 144.267 105.818 147.74 112.361Z" fill="url(#paint167_linear_9249_30340)"/>
<path d="M147.74 112.361C144.846 110.953 139.969 115.839 145.26 119.897H187.421C190.728 116.336 189.653 111.118 186.098 111.118C188.413 106.812 185.768 103.417 182.213 103.417C183.453 100.27 180.146 96.9574 176.757 97.7028C173.863 92.4856 161.793 95.0528 161.38 101.264C160.801 99.0278 155.758 99.4419 155.758 103.997C152.369 101.264 144.267 105.818 147.74 112.361Z" fill="url(#paint168_radial_9249_30340)"/>
<path d="M147.74 112.361C144.846 110.953 139.969 115.839 145.26 119.897H187.421C190.728 116.336 189.653 111.118 186.098 111.118C188.413 106.812 185.768 103.417 182.213 103.417C183.453 100.27 180.146 96.9574 176.757 97.7028C173.863 92.4856 161.793 95.0528 161.38 101.264C160.801 99.0278 155.758 99.4419 155.758 103.997C152.369 101.264 144.267 105.818 147.74 112.361Z" fill="url(#paint169_radial_9249_30340)"/>
<path d="M11.2594 108.259C7.60238 107.131 1.78861 113.425 7.50861 120H46.7984C50.3617 110.325 43.2351 104.971 37.2338 105.535C39.0155 92.8538 21.6679 94.5445 21.6679 99.8047C15.8542 96.0475 8.7276 104.501 11.2594 108.259Z" fill="url(#paint170_linear_9249_30340)"/>
<path d="M11.2594 108.259C7.60238 107.131 1.78861 113.425 7.50861 120H46.7984C50.3617 110.325 43.2351 104.971 37.2338 105.535C39.0155 92.8538 21.6679 94.5445 21.6679 99.8047C15.8542 96.0475 8.7276 104.501 11.2594 108.259Z" fill="url(#paint171_radial_9249_30340)"/>
<path d="M11.2594 108.259C7.60238 107.131 1.78861 113.425 7.50861 120H46.7984C50.3617 110.325 43.2351 104.971 37.2338 105.535C39.0155 92.8538 21.6679 94.5445 21.6679 99.8047C15.8542 96.0475 8.7276 104.501 11.2594 108.259Z" fill="url(#paint172_radial_9249_30340)"/>
<path d="M230.329 112.766C232.064 112.203 235.966 116.148 230.329 119.999H153.693C151.742 109.009 166.809 104.688 171.904 107.976C168.977 103.185 179.817 98.5826 182.31 101.776C180.792 94.0738 189.789 90.2226 194.125 90.2226C191.523 83.1776 203.122 78.481 206.265 80.8292C210.71 71.3421 224.693 76.6021 222.308 80.8292C224.042 80.6413 226.535 84.6805 224.693 86.559C228.92 84.7743 237.7 93.2282 228.487 97.9248C235.207 100.179 235.099 108.915 230.329 112.766Z" fill="url(#paint173_linear_9249_30340)"/>
<path d="M230.329 112.766C232.064 112.203 235.966 116.148 230.329 119.999H153.693C151.742 109.009 166.809 104.688 171.904 107.976C168.977 103.185 179.817 98.5826 182.31 101.776C180.792 94.0738 189.789 90.2226 194.125 90.2226C191.523 83.1776 203.122 78.481 206.265 80.8292C210.71 71.3421 224.693 76.6021 222.308 80.8292C224.042 80.6413 226.535 84.6805 224.693 86.559C228.92 84.7743 237.7 93.2282 228.487 97.9248C235.207 100.179 235.099 108.915 230.329 112.766Z" fill="url(#paint174_radial_9249_30340)"/>
<path d="M230.329 112.766C232.064 112.203 235.966 116.148 230.329 119.999H153.693C151.742 109.009 166.809 104.688 171.904 107.976C168.977 103.185 179.817 98.5826 182.31 101.776C180.792 94.0738 189.789 90.2226 194.125 90.2226C191.523 83.1776 203.122 78.481 206.265 80.8292C210.71 71.3421 224.693 76.6021 222.308 80.8292C224.042 80.6413 226.535 84.6805 224.693 86.559C228.92 84.7743 237.7 93.2282 228.487 97.9248C235.207 100.179 235.099 108.915 230.329 112.766Z" fill="url(#paint175_radial_9249_30340)"/>
<path d="M230.329 112.766C232.064 112.203 235.966 116.148 230.329 119.999H153.693C151.742 109.009 166.809 104.688 171.904 107.976C168.977 103.185 179.817 98.5826 182.31 101.776C180.792 94.0738 189.789 90.2226 194.125 90.2226C191.523 83.1776 203.122 78.481 206.265 80.8292C210.71 71.3421 224.693 76.6021 222.308 80.8292C224.042 80.6413 226.535 84.6805 224.693 86.559C228.92 84.7743 237.7 93.2282 228.487 97.9248C235.207 100.179 235.099 108.915 230.329 112.766Z" fill="url(#paint176_radial_9249_30340)"/>
<path d="M168.8 112.574C166.997 111.47 161.187 116.086 164.293 119.999H215.081C217.184 116.086 213.979 110.265 208.569 111.369C209.671 107.355 204.763 99.9297 197.45 101.335C200.255 94.1099 193.243 91.2998 190.438 93.0058C187.633 85.8811 178.918 89.8948 180.02 94.4107C174.711 93.0058 171.805 98.1235 173.709 101.335C170.704 101.034 165.494 107.155 168.8 112.574Z" fill="url(#paint177_linear_9249_30340)"/>
<path d="M168.8 112.574C166.997 111.47 161.187 116.086 164.293 119.999H215.081C217.184 116.086 213.979 110.265 208.569 111.369C209.671 107.355 204.763 99.9297 197.45 101.335C200.255 94.1099 193.243 91.2998 190.438 93.0058C187.633 85.8811 178.918 89.8948 180.02 94.4107C174.711 93.0058 171.805 98.1235 173.709 101.335C170.704 101.034 165.494 107.155 168.8 112.574Z" fill="url(#paint178_radial_9249_30340)"/>
<path d="M168.8 112.574C166.997 111.47 161.187 116.086 164.293 119.999H215.081C217.184 116.086 213.979 110.265 208.569 111.369C209.671 107.355 204.763 99.9297 197.45 101.335C200.255 94.1099 193.243 91.2998 190.438 93.0058C187.633 85.8811 178.918 89.8948 180.02 94.4107C174.711 93.0058 171.805 98.1235 173.709 101.335C170.704 101.034 165.494 107.155 168.8 112.574Z" fill="url(#paint179_radial_9249_30340)"/>
<defs>
<linearGradient id="paint0_linear_9249_30340" x1="93.6605" y1="165.977" x2="86.6552" y2="34.4183" gradientUnits="userSpaceOnUse">
<stop stop-color="#FFE4BE"/>
<stop offset="1" stop-color="#757575"/>
</linearGradient>
<radialGradient id="paint1_radial_9249_30340" cx="0" cy="0" r="1" gradientUnits="userSpaceOnUse" gradientTransform="translate(202.414 13.3369) rotate(157.332) scale(9.73902 3.72682)">
<stop stop-color="#FFDE61"/>
<stop offset="1" stop-color="#FFDE61" stop-opacity="0"/>
</radialGradient>
<radialGradient id="paint2_radial_9249_30340" cx="0" cy="0" r="1" gradientUnits="userSpaceOnUse" gradientTransform="translate(208.879 18.5577) rotate(179.68) scale(9.72631 3.66905)">
<stop stop-color="#1B2B00"/>
<stop offset="1" stop-color="#1B2B00" stop-opacity="0"/>
</radialGradient>
<radialGradient id="paint3_radial_9249_30340" cx="0" cy="0" r="1" gradientUnits="userSpaceOnUse" gradientTransform="translate(187.852 32.9373) rotate(68.8104) scale(20.0125 12.42)">
<stop offset="0.739612" stop-color="#C49359"/>
<stop offset="1" stop-color="#4F3920"/>
</radialGradient>
<radialGradient id="paint4_radial_9249_30340" cx="0" cy="0" r="1" gradientUnits="userSpaceOnUse" gradientTransform="translate(196.072 22.4157) rotate(88.5718) scale(19.8164 6.73399)">
<stop offset="0.259812" stop-color="#EDBA7C" stop-opacity="0.5"/>
<stop offset="1" stop-color="#8A6C49" stop-opacity="0"/>
</radialGradient>
<radialGradient id="paint5_radial_9249_30340" cx="0" cy="0" r="1" gradientUnits="userSpaceOnUse" gradientTransform="translate(198.766 11.0138) rotate(-70.9794) scale(6.88763 3.53061)">
<stop stop-color="#FFDE61"/>
<stop offset="1" stop-color="#FFDE61" stop-opacity="0"/>
</radialGradient>
<radialGradient id="paint6_radial_9249_30340" cx="0" cy="0" r="1" gradientUnits="userSpaceOnUse" gradientTransform="translate(201.292 16.6029) rotate(-60.5743) scale(10.0303 3.45463)">
<stop stop-color="#1B2B00"/>
<stop offset="1" stop-color="#1B2B00" stop-opacity="0"/>
</radialGradient>
<linearGradient id="paint7_linear_9249_30340" x1="202.034" y1="14.7088" x2="207.002" y2="13.9789" gradientUnits="userSpaceOnUse">
<stop stop-color="#F0DB52"/>
<stop offset="1" stop-color="#F0DB52" stop-opacity="0"/>
</linearGradient>
<radialGradient id="paint8_radial_9249_30340" cx="0" cy="0" r="1" gradientUnits="userSpaceOnUse" gradientTransform="translate(193.469 9.71249) rotate(-173.125) scale(7.70651 2.4419)">
<stop stop-color="#FFDE61"/>
<stop offset="1" stop-color="#FFDE61" stop-opacity="0"/>
</radialGradient>
<radialGradient id="paint9_radial_9249_30340" cx="0" cy="0" r="1" gradientUnits="userSpaceOnUse" gradientTransform="translate(200.794 17.3217) rotate(-112.987) scale(9.03183 3.90274)">
<stop stop-color="#1B2B00"/>
<stop offset="1" stop-color="#1B2B00" stop-opacity="0"/>
</radialGradient>
<linearGradient id="paint10_linear_9249_30340" x1="199.76" y1="13.711" x2="202.27" y2="9.8392" gradientUnits="userSpaceOnUse">
<stop stop-color="#F0DB52"/>
<stop offset="1" stop-color="#F0DB52" stop-opacity="0"/>
</linearGradient>
<radialGradient id="paint11_radial_9249_30340" cx="0" cy="0" r="1" gradientUnits="userSpaceOnUse" gradientTransform="translate(189.959 13.9178) rotate(148.687) scale(10.9431 4.00668)">
<stop stop-color="#FFDE61"/>
<stop offset="1" stop-color="#FFDE61" stop-opacity="0"/>
</radialGradient>
<radialGradient id="paint12_radial_9249_30340" cx="0" cy="0" r="1" gradientUnits="userSpaceOnUse" gradientTransform="translate(199.105 18.6116) rotate(172.673) scale(9.78568 5.33045)">
<stop stop-color="#1B2B00"/>
<stop offset="1" stop-color="#1B2B00" stop-opacity="0"/>
</radialGradient>
<linearGradient id="paint13_linear_9249_30340" x1="197.872" y1="14.2978" x2="193.885" y2="10.6564" gradientUnits="userSpaceOnUse">
<stop stop-color="#F0DB52"/>
<stop offset="1" stop-color="#F0DB52" stop-opacity="0"/>
</linearGradient>
<linearGradient id="paint14_linear_9249_30340" x1="197.526" y1="16.4063" x2="187.752" y2="18.7445" gradientUnits="userSpaceOnUse">
<stop stop-color="#F0DB52"/>
<stop offset="1" stop-color="#F0DB52" stop-opacity="0"/>
</linearGradient>
<radialGradient id="paint15_radial_9249_30340" cx="0" cy="0" r="1" gradientUnits="userSpaceOnUse" gradientTransform="translate(194.769 16.9326) rotate(117.248) scale(9.5724 3.81412)">
<stop stop-color="#FFDE61"/>
<stop offset="1" stop-color="#FFDE61" stop-opacity="0"/>
</radialGradient>
<radialGradient id="paint16_radial_9249_30340" cx="0" cy="0" r="1" gradientUnits="userSpaceOnUse" gradientTransform="translate(200.957 19.9681) rotate(113.869) scale(8.85071 5.29246)">
<stop stop-color="#1B2B00"/>
<stop offset="1" stop-color="#1B2B00" stop-opacity="0"/>
</radialGradient>
<radialGradient id="paint17_radial_9249_30340" cx="0" cy="0" r="1" gradientUnits="userSpaceOnUse" gradientTransform="translate(200.738 18.0683) rotate(-133.21) scale(4.91374 3.99331)">
<stop stop-color="#FFDE61"/>
<stop offset="1" stop-color="#FFDE61" stop-opacity="0"/>
</radialGradient>
<radialGradient id="paint18_radial_9249_30340" cx="0" cy="0" r="1" gradientUnits="userSpaceOnUse" gradientTransform="translate(206.544 19.3706) rotate(67.2606) scale(8.00174 4.4246)">
<stop stop-color="#1B2B00"/>
<stop offset="1" stop-color="#1B2B00" stop-opacity="0"/>
</radialGradient>
<linearGradient id="paint19_linear_9249_30340" x1="199.267" y1="17.4274" x2="194.833" y2="26.8211" gradientUnits="userSpaceOnUse">
<stop stop-color="#F0DB52" stop-opacity="0"/>
<stop offset="0.133203" stop-color="#F0DB52"/>
<stop offset="1" stop-color="#F0DB52" stop-opacity="0"/>
</linearGradient>
<linearGradient id="paint20_linear_9249_30340" x1="201.804" y1="19.0837" x2="206.787" y2="22.8465" gradientUnits="userSpaceOnUse">
<stop stop-color="#F0DB52"/>
<stop offset="1" stop-color="#F0DB52" stop-opacity="0"/>
</linearGradient>
<linearGradient id="paint21_linear_9249_30340" x1="171.205" y1="37.7381" x2="178.061" y2="80.7684" gradientUnits="userSpaceOnUse">
<stop stop-color="#B3E0FF"/>
<stop offset="1" stop-color="#E0B09C"/>
</linearGradient>
<linearGradient id="paint22_linear_9249_30340" x1="182.061" y1="86.9374" x2="182.061" y2="55.5796" gradientUnits="userSpaceOnUse">
<stop stop-color="#FFE4BE"/>
<stop offset="1" stop-color="#FFDAC2" stop-opacity="0"/>
</linearGradient>
<linearGradient id="paint23_linear_9249_30340" x1="160.541" y1="58.3999" x2="256.276" y2="67.2602" gradientUnits="userSpaceOnUse">
<stop stop-color="#00204D"/>
<stop offset="1" stop-color="#240D54" stop-opacity="0"/>
</linearGradient>
<linearGradient id="paint24_linear_9249_30340" x1="158.057" y1="65.4006" x2="153.932" y2="45.0685" gradientUnits="userSpaceOnUse">
<stop stop-color="#9FF0F9"/>
<stop offset="0.57691" stop-color="#16BBDA"/>
<stop offset="0.955507" stop-color="#0078D4"/>
</linearGradient>
<linearGradient id="paint25_linear_9249_30340" x1="212.378" y1="66.4229" x2="212.3" y2="55.6108" gradientUnits="userSpaceOnUse">
<stop stop-color="#3AEFD7" stop-opacity="0.5"/>
<stop offset="0.294235" stop-color="#1E73B9" stop-opacity="0.811881"/>
<stop offset="0.975" stop-color="#001975"/>
</linearGradient>
<radialGradient id="paint26_radial_9249_30340" cx="0" cy="0" r="1" gradientUnits="userSpaceOnUse" gradientTransform="translate(35.134 28.9193) rotate(-179.303) scale(10.0018 3.82736)">
<stop stop-color="#FFDE61"/>
<stop offset="1" stop-color="#FFDE61" stop-opacity="0"/>
</radialGradient>
<radialGradient id="paint27_radial_9249_30340" cx="0" cy="0" r="1" gradientUnits="userSpaceOnUse" gradientTransform="translate(39.1032 36.4746) rotate(-156.955) scale(9.98872 3.76804)">
<stop stop-color="#1B2B00"/>
<stop offset="1" stop-color="#1B2B00" stop-opacity="0"/>
</radialGradient>
<radialGradient id="paint28_radial_9249_30340" cx="0" cy="0" r="1" gradientUnits="userSpaceOnUse" gradientTransform="translate(3.87613 55.1611) rotate(59.7966) scale(33.7617 27.0307)">
<stop offset="0.739612" stop-color="#A47B4B"/>
<stop offset="1" stop-color="#3D2E1D"/>
</radialGradient>
<radialGradient id="paint29_radial_9249_30340" cx="0" cy="0" r="1" gradientUnits="userSpaceOnUse" gradientTransform="translate(23.1767 38.7081) rotate(87.856) scale(30.9996 15.8053)">
<stop offset="0.259812" stop-color="#EDBA7C" stop-opacity="0.5"/>
<stop offset="1" stop-color="#8A6C49" stop-opacity="0"/>
</radialGradient>
<radialGradient id="paint30_radial_9249_30340" cx="0" cy="0" r="1" gradientUnits="userSpaceOnUse" gradientTransform="translate(32.641 25.2439) rotate(-47.6146) scale(7.07345 3.62586)">
<stop stop-color="#FFDE61"/>
<stop offset="1" stop-color="#FFDE61" stop-opacity="0"/>
</radialGradient>
<radialGradient id="paint31_radial_9249_30340" cx="0" cy="0" r="1" gradientUnits="userSpaceOnUse" gradientTransform="translate(32.7462 31.542) rotate(-37.2095) scale(10.3009 3.54783)">
<stop stop-color="#1B2B00"/>
<stop offset="1" stop-color="#1B2B00" stop-opacity="0"/>
</radialGradient>
<linearGradient id="paint32_linear_9249_30340" x1="34.2165" y1="30.0585" x2="39.1972" y2="31.3937" gradientUnits="userSpaceOnUse">
<stop stop-color="#F0DB52"/>
<stop offset="1" stop-color="#F0DB52" stop-opacity="0"/>
</linearGradient>
<radialGradient id="paint33_radial_9249_30340" cx="0" cy="0" r="1" gradientUnits="userSpaceOnUse" gradientTransform="translate(28.1751 21.8591) rotate(-149.76) scale(7.91443 2.50778)">
<stop stop-color="#FFDE61"/>
<stop offset="1" stop-color="#FFDE61" stop-opacity="0"/>
</radialGradient>
<radialGradient id="paint34_radial_9249_30340" cx="0" cy="0" r="1" gradientUnits="userSpaceOnUse" gradientTransform="translate(31.9823 32.0164) rotate(-89.622) scale(9.2755 4.00804)">
<stop stop-color="#1B2B00"/>
<stop offset="1" stop-color="#1B2B00" stop-opacity="0"/>
</radialGradient>
<linearGradient id="paint35_linear_9249_30340" x1="32.4792" y1="28.1914" x2="36.422" y2="25.5633" gradientUnits="userSpaceOnUse">
<stop stop-color="#F0DB52"/>
<stop offset="1" stop-color="#F0DB52" stop-opacity="0"/>
</linearGradient>
<radialGradient id="paint36_radial_9249_30340" cx="0" cy="0" r="1" gradientUnits="userSpaceOnUse" gradientTransform="translate(23.1526 24.3951) rotate(172.052) scale(11.2383 4.11478)">
<stop stop-color="#FFDE61"/>
<stop offset="1" stop-color="#FFDE61" stop-opacity="0"/>
</radialGradient>
<radialGradient id="paint37_radial_9249_30340" cx="0" cy="0" r="1" gradientUnits="userSpaceOnUse" gradientTransform="translate(29.8639 32.5455) rotate(-163.963) scale(10.0497 5.47427)">
<stop stop-color="#1B2B00"/>
<stop offset="1" stop-color="#1B2B00" stop-opacity="0"/>
</radialGradient>
<linearGradient id="paint38_linear_9249_30340" x1="30.4578" y1="27.9751" x2="28.1826" y2="22.9185" gradientUnits="userSpaceOnUse">
<stop stop-color="#F0DB52"/>
<stop offset="1" stop-color="#F0DB52" stop-opacity="0"/>
</linearGradient>
<linearGradient id="paint39_linear_9249_30340" x1="29.2754" y1="29.8237" x2="19.1081" y2="28.0471" gradientUnits="userSpaceOnUse">
<stop stop-color="#F0DB52"/>
<stop offset="1" stop-color="#F0DB52" stop-opacity="0"/>
</linearGradient>
<radialGradient id="paint40_radial_9249_30340" cx="0" cy="0" r="1" gradientUnits="userSpaceOnUse" gradientTransform="translate(26.4588 29.1965) rotate(140.613) scale(9.83065 3.91702)">
<stop stop-color="#FFDE61"/>
<stop offset="1" stop-color="#FFDE61" stop-opacity="0"/>
</radialGradient>
<radialGradient id="paint41_radial_9249_30340" cx="0" cy="0" r="1" gradientUnits="userSpaceOnUse" gradientTransform="translate(31.0569 34.5787) rotate(137.234) scale(9.08949 5.43525)">
<stop stop-color="#1B2B00"/>
<stop offset="1" stop-color="#1B2B00" stop-opacity="0"/>
</radialGradient>
<radialGradient id="paint42_radial_9249_30340" cx="0" cy="0" r="1" gradientUnits="userSpaceOnUse" gradientTransform="translate(31.626 32.6993) rotate(-109.845) scale(5.0463 4.10105)">
<stop stop-color="#FFDE61"/>
<stop offset="1" stop-color="#FFDE61" stop-opacity="0"/>
</radialGradient>
<radialGradient id="paint43_radial_9249_30340" cx="0" cy="0" r="1" gradientUnits="userSpaceOnUse" gradientTransform="translate(36.5694 36.2919) rotate(90.6254) scale(8.21762 4.54397)">
<stop stop-color="#1B2B00"/>
<stop offset="1" stop-color="#1B2B00" stop-opacity="0"/>
</radialGradient>
<linearGradient id="paint44_linear_9249_30340" x1="30.5017" y1="31.4951" x2="22.495" y2="38.5449" gradientUnits="userSpaceOnUse">
<stop stop-color="#F0DB52" stop-opacity="0"/>
<stop offset="0.133203" stop-color="#F0DB52"/>
<stop offset="1" stop-color="#F0DB52" stop-opacity="0"/>
</linearGradient>
<linearGradient id="paint45_linear_9249_30340" x1="32.2173" y1="34.0902" x2="35.3818" y2="39.6669" gradientUnits="userSpaceOnUse">
<stop stop-color="#F0DB52"/>
<stop offset="1" stop-color="#F0DB52" stop-opacity="0"/>
</linearGradient>
<linearGradient id="paint46_linear_9249_30340" x1="98.3925" y1="76.4453" x2="84.62" y2="74.3866" gradientUnits="userSpaceOnUse">
<stop stop-color="#9FF0F9"/>
<stop offset="0.57691" stop-color="#16BBDA"/>
<stop offset="0.955507" stop-color="#0078D4"/>
</linearGradient>
<linearGradient id="paint47_linear_9249_30340" x1="105.722" y1="80.9942" x2="94.9212" y2="35.442" gradientUnits="userSpaceOnUse">
<stop stop-color="#3AEFD7" stop-opacity="0.5"/>
<stop offset="0.294235" stop-color="#1E73B9" stop-opacity="0.811881"/>
<stop offset="0.975" stop-color="#001975"/>
</linearGradient>
<linearGradient id="paint48_linear_9249_30340" x1="116.185" y1="43.0839" x2="125.639" y2="46.9966" gradientUnits="userSpaceOnUse">
<stop stop-color="#B3E0FF"/>
<stop offset="1" stop-color="#E0B09C"/>
</linearGradient>
<linearGradient id="paint49_linear_9249_30340" x1="116.619" y1="72.9162" x2="116.619" y2="53.9022" gradientUnits="userSpaceOnUse">
<stop stop-color="#FFE4BE"/>
<stop offset="1" stop-color="#FFDAC2" stop-opacity="0"/>
</linearGradient>
<linearGradient id="paint50_linear_9249_30340" x1="119.278" y1="59.3468" x2="117.781" y2="59.3468" gradientUnits="userSpaceOnUse">
<stop stop-color="#00204D"/>
<stop offset="1" stop-color="#240D54" stop-opacity="0"/>
</linearGradient>
<linearGradient id="paint51_linear_9249_30340" x1="130.786" y1="43.0839" x2="140.24" y2="46.9966" gradientUnits="userSpaceOnUse">
<stop stop-color="#B3E0FF"/>
<stop offset="1" stop-color="#E0B09C"/>
</linearGradient>
<linearGradient id="paint52_linear_9249_30340" x1="131.221" y1="72.9162" x2="131.221" y2="53.9022" gradientUnits="userSpaceOnUse">
<stop stop-color="#FFE4BE"/>
<stop offset="1" stop-color="#FFDAC2" stop-opacity="0"/>
</linearGradient>
<linearGradient id="paint53_linear_9249_30340" x1="133.879" y1="59.3468" x2="132.382" y2="59.3468" gradientUnits="userSpaceOnUse">
<stop stop-color="#00204D"/>
<stop offset="1" stop-color="#240D54" stop-opacity="0"/>
</linearGradient>
<linearGradient id="paint54_linear_9249_30340" x1="138.972" y1="43.0859" x2="148.425" y2="46.9986" gradientUnits="userSpaceOnUse">
<stop stop-color="#B3E0FF"/>
<stop offset="1" stop-color="#E0B09C"/>
</linearGradient>
<linearGradient id="paint55_linear_9249_30340" x1="139.406" y1="72.9181" x2="139.406" y2="53.9042" gradientUnits="userSpaceOnUse">
<stop stop-color="#FFE4BE"/>
<stop offset="1" stop-color="#FFDAC2" stop-opacity="0"/>
</linearGradient>
<linearGradient id="paint56_linear_9249_30340" x1="142.064" y1="59.3488" x2="140.567" y2="59.3488" gradientUnits="userSpaceOnUse">
<stop stop-color="#00204D"/>
<stop offset="1" stop-color="#240D54" stop-opacity="0"/>
</linearGradient>
<linearGradient id="paint57_linear_9249_30340" x1="147.152" y1="43.0839" x2="156.606" y2="46.9966" gradientUnits="userSpaceOnUse">
<stop stop-color="#B3E0FF"/>
<stop offset="1" stop-color="#E0B09C"/>
</linearGradient>
<linearGradient id="paint58_linear_9249_30340" x1="147.586" y1="72.9162" x2="147.586" y2="53.9022" gradientUnits="userSpaceOnUse">
<stop stop-color="#FFE4BE"/>
<stop offset="1" stop-color="#FFDAC2" stop-opacity="0"/>
</linearGradient>
<linearGradient id="paint59_linear_9249_30340" x1="150.245" y1="59.3468" x2="148.747" y2="59.3468" gradientUnits="userSpaceOnUse">
<stop stop-color="#00204D"/>
<stop offset="1" stop-color="#240D54" stop-opacity="0"/>
</linearGradient>
<linearGradient id="paint60_linear_9249_30340" x1="96.6134" y1="76.1417" x2="51.6324" y2="16.5877" gradientUnits="userSpaceOnUse">
<stop stop-color="#9FF0F9"/>
<stop offset="0.57691" stop-color="#16BBDA"/>
<stop offset="0.955507" stop-color="#0078D4"/>
</linearGradient>
<linearGradient id="paint61_linear_9249_30340" x1="74.495" y1="75.6309" x2="41.5924" y2="19.4136" gradientUnits="userSpaceOnUse">
<stop offset="0.107484" stop-color="#3AEFD7" stop-opacity="0.5"/>
<stop offset="0.537993" stop-color="#1E73B9" stop-opacity="0.811881"/>
<stop offset="0.975" stop-color="#001975"/>
</linearGradient>
<linearGradient id="paint62_linear_9249_30340" x1="180.77" y1="78.6484" x2="167.351" y2="60.3931" gradientUnits="userSpaceOnUse">
<stop stop-color="#9FF0F9"/>
<stop offset="0.57691" stop-color="#16BBDA"/>
<stop offset="0.955507" stop-color="#0078D4"/>
</linearGradient>
<linearGradient id="paint63_linear_9249_30340" x1="173.937" y1="78.4948" x2="164.179" y2="61.3621" gradientUnits="userSpaceOnUse">
<stop offset="0.107484" stop-color="#3AEFD7" stop-opacity="0.5"/>
<stop offset="0.537993" stop-color="#1E73B9" stop-opacity="0.811881"/>
<stop offset="0.975" stop-color="#001975"/>
</linearGradient>
<linearGradient id="paint64_linear_9249_30340" x1="157.671" y1="73.9382" x2="155.966" y2="63.0041" gradientUnits="userSpaceOnUse">
<stop offset="0.107484" stop-color="#3AEFD7" stop-opacity="0.5"/>
<stop offset="0.537993" stop-color="#1E73B9" stop-opacity="0.811881"/>
<stop offset="0.975" stop-color="#001975"/>
</linearGradient>
<linearGradient id="paint65_linear_9249_30340" x1="169.991" y1="74.014" x2="167.306" y2="60.6751" gradientUnits="userSpaceOnUse">
<stop stop-color="#9FF0F9"/>
<stop offset="0.57691" stop-color="#16BBDA"/>
<stop offset="0.955507" stop-color="#0078D4"/>
</linearGradient>
<linearGradient id="paint66_linear_9249_30340" x1="163.57" y1="117.291" x2="148.742" y2="62.9788" gradientUnits="userSpaceOnUse">
<stop stop-color="#3AEFD7" stop-opacity="0.5"/>
<stop offset="0.532551" stop-color="#1E73B9" stop-opacity="0.811881"/>
<stop offset="0.975" stop-color="#001975"/>
</linearGradient>
<linearGradient id="paint67_linear_9249_30340" x1="169.401" y1="66.5592" x2="142.58" y2="54.6886" gradientUnits="userSpaceOnUse">
<stop stop-color="#9FF0F9"/>
<stop offset="0.57691" stop-color="#16BBDA"/>
<stop offset="0.955507" stop-color="#0078D4"/>
</linearGradient>
<linearGradient id="paint68_linear_9249_30340" x1="163.672" y1="66.1634" x2="138.486" y2="51.7781" gradientUnits="userSpaceOnUse">
<stop offset="0.107484" stop-color="#3AEFD7" stop-opacity="0.5"/>
<stop offset="0.537993" stop-color="#1E73B9" stop-opacity="0.811881"/>
<stop offset="0.975" stop-color="#001975"/>
</linearGradient>
<linearGradient id="paint69_linear_9249_30340" x1="207.883" y1="78.4469" x2="202.947" y2="59.1683" gradientUnits="userSpaceOnUse">
<stop offset="0.107484" stop-color="#3AEFD7" stop-opacity="0.5"/>
<stop offset="0.537993" stop-color="#1E73B9" stop-opacity="0.811881"/>
<stop offset="0.975" stop-color="#001975"/>
</linearGradient>
<linearGradient id="paint70_linear_9249_30340" x1="221.645" y1="78.5859" x2="214.062" y2="55.6352" gradientUnits="userSpaceOnUse">
<stop stop-color="#9FF0F9"/>
<stop offset="0.57691" stop-color="#16BBDA"/>
<stop offset="0.955507" stop-color="#0078D4"/>
</linearGradient>
<linearGradient id="paint71_linear_9249_30340" x1="261.752" y1="79.8152" x2="261.6" y2="66.8146" gradientUnits="userSpaceOnUse">
<stop stop-color="#3AEFD7" stop-opacity="0.5"/>
<stop offset="0.294235" stop-color="#1E73B9" stop-opacity="0.811881"/>
<stop offset="0.975" stop-color="#001975"/>
</linearGradient>
<linearGradient id="paint72_linear_9249_30340" x1="135.246" y1="52.8652" x2="137.695" y2="72.4042" gradientUnits="userSpaceOnUse">
<stop stop-color="#B3E0FF"/>
<stop offset="1" stop-color="#E0B09C"/>
</linearGradient>
<linearGradient id="paint73_linear_9249_30340" x1="141.453" y1="74.9945" x2="141.453" y2="60.8902" gradientUnits="userSpaceOnUse">
<stop stop-color="#FFE4BE"/>
<stop offset="1" stop-color="#FFDAC2" stop-opacity="0"/>
</linearGradient>
<linearGradient id="paint74_linear_9249_30340" x1="105.534" y1="72.2244" x2="95.2363" y2="59.3341" gradientUnits="userSpaceOnUse">
<stop offset="0.107484" stop-color="#3AEFD7" stop-opacity="0.5"/>
<stop offset="0.537993" stop-color="#1E73B9" stop-opacity="0.811881"/>
<stop offset="0.975" stop-color="#001975"/>
</linearGradient>
<linearGradient id="paint75_linear_9249_30340" x1="110.068" y1="72.3673" x2="96.9899" y2="59.6818" gradientUnits="userSpaceOnUse">
<stop stop-color="#9FF0F9"/>
<stop offset="0.57691" stop-color="#16BBDA"/>
<stop offset="0.955507" stop-color="#0078D4"/>
</linearGradient>
<linearGradient id="paint76_linear_9249_30340" x1="123.281" y1="73.631" x2="122.793" y2="60.2828" gradientUnits="userSpaceOnUse">
<stop stop-color="#3AEFD7" stop-opacity="0.5"/>
<stop offset="0.294235" stop-color="#1E73B9" stop-opacity="0.811881"/>
<stop offset="0.975" stop-color="#001975"/>
</linearGradient>
<linearGradient id="paint77_linear_9249_30340" x1="104.26" y1="61.906" x2="90.4201" y2="58.7549" gradientUnits="userSpaceOnUse">
<stop stop-color="#9FF0F9"/>
<stop offset="0.57691" stop-color="#16BBDA"/>
<stop offset="0.955507" stop-color="#0078D4"/>
</linearGradient>
<linearGradient id="paint78_linear_9249_30340" x1="101.659" y1="61.5568" x2="92.1895" y2="18.1487" gradientUnits="userSpaceOnUse">
<stop offset="0.107484" stop-color="#3AEFD7" stop-opacity="0.5"/>
<stop offset="0.537993" stop-color="#1E73B9" stop-opacity="0.811881"/>
<stop offset="0.975" stop-color="#001975"/>
</linearGradient>
<linearGradient id="paint79_linear_9249_30340" x1="97.8353" y1="43.3613" x2="108.721" y2="68.4175" gradientUnits="userSpaceOnUse">
<stop stop-color="#B3E0FF"/>
<stop offset="1" stop-color="#E0B09C"/>
</linearGradient>
<linearGradient id="paint80_linear_9249_30340" x1="100.523" y1="76.5734" x2="100.523" y2="55.4052" gradientUnits="userSpaceOnUse">
<stop stop-color="#FFE4BE"/>
<stop offset="1" stop-color="#FFDAC2" stop-opacity="0"/>
</linearGradient>
<linearGradient id="paint81_linear_9249_30340" x1="105.809" y1="25.5619" x2="140.224" y2="47.7824" gradientUnits="userSpaceOnUse">
<stop stop-color="#B3E0FF"/>
<stop offset="1" stop-color="#E0B09C"/>
</linearGradient>
<linearGradient id="paint82_linear_9249_30340" x1="107.72" y1="109.775" x2="107.72" y2="56.1008" gradientUnits="userSpaceOnUse">
<stop stop-color="#FFE4BE"/>
<stop offset="1" stop-color="#FFDAC2" stop-opacity="0"/>
</linearGradient>
<linearGradient id="paint83_linear_9249_30340" x1="103.439" y1="71.8523" x2="115.946" y2="77.9015" gradientUnits="userSpaceOnUse">
<stop stop-color="#240D54" stop-opacity="0"/>
<stop offset="1" stop-color="#00204D"/>
</linearGradient>
<linearGradient id="paint84_linear_9249_30340" x1="113.193" y1="58.4605" x2="115.069" y2="71.9986" gradientUnits="userSpaceOnUse">
<stop stop-color="#B3E0FF"/>
<stop offset="1" stop-color="#E0B09C"/>
</linearGradient>
<linearGradient id="paint85_linear_9249_30340" x1="117.096" y1="73.8462" x2="117.096" y2="64.0399" gradientUnits="userSpaceOnUse">
<stop stop-color="#FFE4BE"/>
<stop offset="1" stop-color="#FFDAC2" stop-opacity="0"/>
</linearGradient>
<linearGradient id="paint86_linear_9249_30340" x1="110.176" y1="65.0811" x2="111.815" y2="78.6828" gradientUnits="userSpaceOnUse">
<stop stop-color="#B3E0FF"/>
<stop offset="1" stop-color="#E0B09C"/>
</linearGradient>
<linearGradient id="paint87_linear_9249_30340" x1="114.667" y1="80.4679" x2="114.667" y2="70.6609" gradientUnits="userSpaceOnUse">
<stop stop-color="#FFE4BE"/>
<stop offset="1" stop-color="#FFDAC2" stop-opacity="0"/>
</linearGradient>
<linearGradient id="paint88_linear_9249_30340" x1="107.751" y1="71.6973" x2="109.235" y2="85.335" gradientUnits="userSpaceOnUse">
<stop stop-color="#B3E0FF"/>
<stop offset="1" stop-color="#E0B09C"/>
</linearGradient>
<linearGradient id="paint89_linear_9249_30340" x1="112.723" y1="87.0841" x2="112.723" y2="77.2772" gradientUnits="userSpaceOnUse">
<stop stop-color="#FFE4BE"/>
<stop offset="1" stop-color="#FFDAC2" stop-opacity="0"/>
</linearGradient>
<linearGradient id="paint90_linear_9249_30340" x1="113.193" y1="57.3508" x2="114.24" y2="67.5059" gradientUnits="userSpaceOnUse">
<stop stop-color="#B3E0FF"/>
<stop offset="1" stop-color="#E0B09C"/>
</linearGradient>
<linearGradient id="paint91_linear_9249_30340" x1="117.096" y1="68.7946" x2="117.096" y2="61.5007" gradientUnits="userSpaceOnUse">
<stop stop-color="#FFE4BE"/>
<stop offset="1" stop-color="#FFDAC2" stop-opacity="0"/>
</linearGradient>
<linearGradient id="paint92_linear_9249_30340" x1="118.508" y1="57.8935" x2="118.626" y2="65.6623" gradientUnits="userSpaceOnUse">
<stop stop-color="#00204D"/>
<stop offset="1" stop-color="#240D54" stop-opacity="0"/>
</linearGradient>
<linearGradient id="paint93_linear_9249_30340" x1="110.179" y1="63.967" x2="111.09" y2="74.1485" gradientUnits="userSpaceOnUse">
<stop stop-color="#B3E0FF"/>
<stop offset="1" stop-color="#E0B09C"/>
</linearGradient>
<linearGradient id="paint94_linear_9249_30340" x1="114.677" y1="75.4108" x2="114.677" y2="68.1169" gradientUnits="userSpaceOnUse">
<stop stop-color="#FFE4BE"/>
<stop offset="1" stop-color="#FFDAC2" stop-opacity="0"/>
</linearGradient>
<linearGradient id="paint95_linear_9249_30340" x1="116.304" y1="64.5097" x2="116.406" y2="72.2789" gradientUnits="userSpaceOnUse">
<stop stop-color="#00204D"/>
<stop offset="1" stop-color="#240D54" stop-opacity="0"/>
</linearGradient>
<linearGradient id="paint96_linear_9249_30340" x1="107.751" y1="70.5881" x2="108.576" y2="80.7843" gradientUnits="userSpaceOnUse">
<stop stop-color="#B3E0FF"/>
<stop offset="1" stop-color="#E0B09C"/>
</linearGradient>
<linearGradient id="paint97_linear_9249_30340" x1="112.723" y1="82.0319" x2="112.723" y2="74.738" gradientUnits="userSpaceOnUse">
<stop stop-color="#FFE4BE"/>
<stop offset="1" stop-color="#FFDAC2" stop-opacity="0"/>
</linearGradient>
<linearGradient id="paint98_linear_9249_30340" x1="114.522" y1="71.1308" x2="114.615" y2="78.9003" gradientUnits="userSpaceOnUse">
<stop stop-color="#00204D"/>
<stop offset="1" stop-color="#240D54" stop-opacity="0"/>
</linearGradient>
<linearGradient id="paint99_linear_9249_30340" x1="118.143" y1="59.297" x2="109.833" y2="120.001" gradientUnits="userSpaceOnUse">
<stop stop-color="#821925"/>
<stop offset="1" stop-color="#E82C41"/>
</linearGradient>
<linearGradient id="paint100_linear_9249_30340" x1="28.7223" y1="68.9403" x2="31.0427" y2="82.3197" gradientUnits="userSpaceOnUse">
<stop stop-color="#B3E0FF"/>
<stop offset="1" stop-color="#E0B09C"/>
</linearGradient>
<linearGradient id="paint101_linear_9249_30340" x1="28.5007" y1="75.394" x2="31.3496" y2="82.9556" gradientUnits="userSpaceOnUse">
<stop stop-color="#FFF1DC"/>
<stop offset="1" stop-color="#FFDAC2" stop-opacity="0"/>
</linearGradient>
<linearGradient id="paint102_linear_9249_30340" x1="60.1031" y1="68.9403" x2="61.2146" y2="82.6319" gradientUnits="userSpaceOnUse">
<stop stop-color="#B3E0FF"/>
<stop offset="1" stop-color="#E0B09C"/>
</linearGradient>
<linearGradient id="paint103_linear_9249_30340" x1="59.6297" y1="75.394" x2="61.1066" y2="83.7685" gradientUnits="userSpaceOnUse">
<stop stop-color="#FFF1DC"/>
<stop offset="1" stop-color="#FFDAC2" stop-opacity="0"/>
</linearGradient>
<linearGradient id="paint104_linear_9249_30340" x1="94.4378" y1="54.3111" x2="110.689" y2="74.7271" gradientUnits="userSpaceOnUse">
<stop stop-color="#B3E0FF"/>
<stop offset="1" stop-color="#E0B09C"/>
</linearGradient>
<linearGradient id="paint105_linear_9249_30340" x1="96.0804" y1="91.5005" x2="96.0804" y2="67.7974" gradientUnits="userSpaceOnUse">
<stop stop-color="#FFE4BE"/>
<stop offset="1" stop-color="#FFDAC2" stop-opacity="0"/>
</linearGradient>
<linearGradient id="paint106_linear_9249_30340" x1="89.6024" y1="69.9292" x2="99.2498" y2="78.326" gradientUnits="userSpaceOnUse">
<stop stop-color="#00204D"/>
<stop offset="1" stop-color="#240D54" stop-opacity="0"/>
</linearGradient>
<linearGradient id="paint107_linear_9249_30340" x1="44.9843" y1="59.257" x2="58.0726" y2="75.3474" gradientUnits="userSpaceOnUse">
<stop stop-color="#B3E0FF"/>
<stop offset="1" stop-color="#E0B09C"/>
</linearGradient>
<linearGradient id="paint108_linear_9249_30340" x1="46.2729" y1="89.0701" x2="46.2729" y2="70.0683" gradientUnits="userSpaceOnUse">
<stop stop-color="#FFE4BE"/>
<stop offset="1" stop-color="#FFDAC2" stop-opacity="0"/>
</linearGradient>
<linearGradient id="paint109_linear_9249_30340" x1="41.191" y1="71.7773" x2="50.43" y2="75.3721" gradientUnits="userSpaceOnUse">
<stop stop-color="#00204D"/>
<stop offset="1" stop-color="#240D54" stop-opacity="0"/>
</linearGradient>
<linearGradient id="paint110_linear_9249_30340" x1="21.2676" y1="58.6398" x2="34.9107" y2="74.3726" gradientUnits="userSpaceOnUse">
<stop stop-color="#B3E0FF"/>
<stop offset="1" stop-color="#E0B09C"/>
</linearGradient>
<linearGradient id="paint111_linear_9249_30340" x1="22.5137" y1="89.3749" x2="22.5137" y2="69.7855" gradientUnits="userSpaceOnUse">
<stop stop-color="#FFE4BE"/>
<stop offset="1" stop-color="#FFDAC2" stop-opacity="0"/>
</linearGradient>
<linearGradient id="paint112_linear_9249_30340" x1="21.179" y1="71.5474" x2="28.331" y2="75.3438" gradientUnits="userSpaceOnUse">
<stop stop-color="#FFF1DC"/>
<stop offset="1" stop-color="#FFDAC2" stop-opacity="0"/>
</linearGradient>
<linearGradient id="paint113_linear_9249_30340" x1="73.3834" y1="72.3783" x2="71.6897" y2="63.3831" gradientUnits="userSpaceOnUse">
<stop stop-color="#240D54" stop-opacity="0"/>
<stop offset="1" stop-color="#7A4E05"/>
</linearGradient>
<linearGradient id="paint114_linear_9249_30340" x1="58.858" y1="74.2515" x2="54.1332" y2="65.2422" gradientUnits="userSpaceOnUse">
<stop offset="0.107484" stop-color="#3AEFD7" stop-opacity="0.5"/>
<stop offset="0.537993" stop-color="#1E73B9" stop-opacity="0.811881"/>
<stop offset="0.975" stop-color="#001975"/>
</linearGradient>
<radialGradient id="paint115_radial_9249_30340" cx="0" cy="0" r="1" gradientUnits="userSpaceOnUse" gradientTransform="translate(57.3787 74.4515) rotate(-71.4993) scale(9.9218 16.0923)">
<stop offset="0.599565" stop-color="#240D54" stop-opacity="0"/>
<stop offset="1" stop-color="#00204D"/>
</radialGradient>
<linearGradient id="paint116_linear_9249_30340" x1="67.004" y1="70.9296" x2="44.8568" y2="70.9296" gradientUnits="userSpaceOnUse">
<stop offset="0.575472" stop-color="#240D54" stop-opacity="0"/>
<stop offset="1" stop-color="#00204D"/>
</linearGradient>
<linearGradient id="paint117_linear_9249_30340" x1="201.709" y1="64.7028" x2="196.77" y2="47.7635" gradientUnits="userSpaceOnUse">
<stop offset="0.107484" stop-color="#3AEFD7" stop-opacity="0.5"/>
<stop offset="0.537993" stop-color="#1E73B9" stop-opacity="0.811881"/>
<stop offset="0.975" stop-color="#001975"/>
</linearGradient>
<linearGradient id="paint118_linear_9249_30340" x1="212.521" y1="64.8272" x2="205.013" y2="44.8762" gradientUnits="userSpaceOnUse">
<stop stop-color="#9FF0F9"/>
<stop offset="0.57691" stop-color="#16BBDA"/>
<stop offset="0.955507" stop-color="#0078D4"/>
</linearGradient>
<linearGradient id="paint119_linear_9249_30340" x1="244.029" y1="65.9271" x2="243.874" y2="54.2957" gradientUnits="userSpaceOnUse">
<stop stop-color="#3AEFD7" stop-opacity="0.5"/>
<stop offset="0.294235" stop-color="#1E73B9" stop-opacity="0.811881"/>
<stop offset="0.975" stop-color="#001975"/>
</linearGradient>
<linearGradient id="paint120_linear_9249_30340" x1="180.563" y1="64.8414" x2="170.622" y2="54.1152" gradientUnits="userSpaceOnUse">
<stop stop-color="#9FF0F9"/>
<stop offset="0.57691" stop-color="#16BBDA"/>
<stop offset="0.955507" stop-color="#0078D4"/>
</linearGradient>
<linearGradient id="paint121_linear_9249_30340" x1="176.72" y1="64.7325" x2="173.714" y2="47.2164" gradientUnits="userSpaceOnUse">
<stop offset="0.107484" stop-color="#3AEFD7" stop-opacity="0.5"/>
<stop offset="0.537993" stop-color="#1E73B9" stop-opacity="0.811881"/>
<stop offset="0.975" stop-color="#001975"/>
</linearGradient>
<linearGradient id="paint122_linear_9249_30340" x1="194.606" y1="34.7042" x2="190.334" y2="24.3571" gradientUnits="userSpaceOnUse">
<stop stop-color="#9FF0F9"/>
<stop offset="0.57691" stop-color="#16BBDA"/>
<stop offset="0.955507" stop-color="#0078D4"/>
</linearGradient>
<linearGradient id="paint123_linear_9249_30340" x1="209.876" y1="35.289" x2="209.786" y2="29.1044" gradientUnits="userSpaceOnUse">
<stop stop-color="#3AEFD7" stop-opacity="0.5"/>
<stop offset="0.294235" stop-color="#1E73B9" stop-opacity="0.811881"/>
<stop offset="0.975" stop-color="#001975"/>
</linearGradient>
<linearGradient id="paint124_linear_9249_30340" x1="182.424" y1="36.2421" x2="174.338" y2="23.8153" gradientUnits="userSpaceOnUse">
<stop stop-color="#9FF0F9"/>
<stop offset="0.57691" stop-color="#16BBDA"/>
<stop offset="0.955507" stop-color="#0078D4"/>
</linearGradient>
<linearGradient id="paint125_linear_9249_30340" x1="177.568" y1="36.1455" x2="171.83" y2="24.7649" gradientUnits="userSpaceOnUse">
<stop offset="0.107484" stop-color="#3AEFD7" stop-opacity="0.5"/>
<stop offset="0.537993" stop-color="#1E73B9" stop-opacity="0.811881"/>
<stop offset="0.975" stop-color="#001975"/>
</linearGradient>
<linearGradient id="paint126_linear_9249_30340" x1="177.53" y1="-6.35761" x2="209.271" y2="66.7996" gradientUnits="userSpaceOnUse">
<stop stop-color="#B3E0FF"/>
<stop offset="1" stop-color="#E0B09C"/>
</linearGradient>
<linearGradient id="paint127_linear_9249_30340" x1="185.384" y1="90.5733" x2="185.384" y2="28.7932" gradientUnits="userSpaceOnUse">
<stop stop-color="#FFE4BE"/>
<stop offset="1" stop-color="#FFDAC2" stop-opacity="0"/>
</linearGradient>
<linearGradient id="paint128_linear_9249_30340" x1="154.408" y1="34.3496" x2="196.73" y2="65.2214" gradientUnits="userSpaceOnUse">
<stop stop-color="#00204D"/>
<stop offset="1" stop-color="#240D54" stop-opacity="0"/>
</linearGradient>
<linearGradient id="paint129_linear_9249_30340" x1="169.765" y1="-6.35761" x2="208.066" y2="16.5594" gradientUnits="userSpaceOnUse">
<stop stop-color="#B3E0FF"/>
<stop offset="1" stop-color="#E0B09C"/>
</linearGradient>
<linearGradient id="paint130_linear_9249_30340" x1="169.62" y1="34.3496" x2="183.563" y2="38.1899" gradientUnits="userSpaceOnUse">
<stop stop-color="#FFF1DC"/>
<stop offset="1" stop-color="#FFDAC2" stop-opacity="0"/>
</linearGradient>
<linearGradient id="paint131_linear_9249_30340" x1="105.662" y1="-4.2865" x2="129.289" y2="68.9565" gradientUnits="userSpaceOnUse">
<stop stop-color="#B3E0FF"/>
<stop offset="1" stop-color="#E0B09C"/>
</linearGradient>
<linearGradient id="paint132_linear_9249_30340" x1="104.963" y1="33.5811" x2="128.775" y2="67.5591" gradientUnits="userSpaceOnUse">
<stop stop-color="#FFF1DC"/>
<stop offset="1" stop-color="#FFDAC2" stop-opacity="0"/>
</linearGradient>
<linearGradient id="paint133_linear_9249_30340" x1="104.233" y1="25.5619" x2="138.649" y2="47.7824" gradientUnits="userSpaceOnUse">
<stop stop-color="#B3E0FF"/>
<stop offset="1" stop-color="#E0B09C"/>
</linearGradient>
<linearGradient id="paint134_linear_9249_30340" x1="106.145" y1="109.775" x2="106.145" y2="56.1008" gradientUnits="userSpaceOnUse">
<stop stop-color="#FFE4BE"/>
<stop offset="1" stop-color="#FFDAC2" stop-opacity="0"/>
</linearGradient>
<linearGradient id="paint135_linear_9249_30340" x1="104.097" y1="60.9282" x2="117.019" y2="64.7687" gradientUnits="userSpaceOnUse">
<stop stop-color="#FFF1DC"/>
<stop offset="1" stop-color="#FFDAC2" stop-opacity="0"/>
</linearGradient>
<linearGradient id="paint136_linear_9249_30340" x1="131.847" y1="27.827" x2="146.899" y2="31.0999" gradientUnits="userSpaceOnUse">
<stop stop-color="#B3E0FF"/>
<stop offset="1" stop-color="#E0B09C"/>
</linearGradient>
<linearGradient id="paint137_linear_9249_30340" x1="132.465" y1="108.659" x2="132.465" y2="57.1398" gradientUnits="userSpaceOnUse">
<stop stop-color="#FFE4BE"/>
<stop offset="1" stop-color="#FFDAC2" stop-opacity="0"/>
</linearGradient>
<linearGradient id="paint138_linear_9249_30340" x1="131.803" y1="61.7734" x2="136.304" y2="62.224" gradientUnits="userSpaceOnUse">
<stop stop-color="#FFF1DC"/>
<stop offset="1" stop-color="#FFDAC2" stop-opacity="0"/>
</linearGradient>
<linearGradient id="paint139_linear_9249_30340" x1="168.047" y1="45.5276" x2="181.026" y2="77.7932" gradientUnits="userSpaceOnUse">
<stop stop-color="#B3E0FF"/>
<stop offset="1" stop-color="#E0B09C"/>
</linearGradient>
<linearGradient id="paint140_linear_9249_30340" x1="171.7" y1="87.3274" x2="171.7" y2="60.6858" gradientUnits="userSpaceOnUse">
<stop stop-color="#FFE4BE"/>
<stop offset="1" stop-color="#FFDAC2" stop-opacity="0"/>
</linearGradient>
<linearGradient id="paint141_linear_9249_30340" x1="167.787" y1="62.2559" x2="180.435" y2="75.671" gradientUnits="userSpaceOnUse">
<stop stop-color="#FFF1DC"/>
<stop offset="1" stop-color="#FFDAC2" stop-opacity="0"/>
</linearGradient>
<linearGradient id="paint142_linear_9249_30340" x1="189.326" y1="42.7975" x2="197.8" y2="82.3268" gradientUnits="userSpaceOnUse">
<stop stop-color="#B3E0FF"/>
<stop offset="1" stop-color="#E0B09C"/>
</linearGradient>
<linearGradient id="paint143_linear_9249_30340" x1="196.888" y1="88.9002" x2="196.888" y2="59.5161" gradientUnits="userSpaceOnUse">
<stop stop-color="#FFE4BE"/>
<stop offset="1" stop-color="#FFDAC2" stop-opacity="0"/>
</linearGradient>
<linearGradient id="paint144_linear_9249_30340" x1="167.067" y1="62.1589" x2="186.697" y2="91.142" gradientUnits="userSpaceOnUse">
<stop stop-color="#00204D"/>
<stop offset="1" stop-color="#240D54" stop-opacity="0"/>
</linearGradient>
<linearGradient id="paint145_linear_9249_30340" x1="56.0491" y1="1.27203" x2="59.3122" y2="44.2476" gradientUnits="userSpaceOnUse">
<stop stop-color="#B3E0FF"/>
<stop offset="1" stop-color="#E0B09C"/>
</linearGradient>
<linearGradient id="paint146_linear_9249_30340" x1="78.3653" y1="49.4685" x2="78.3653" y2="18.7499" gradientUnits="userSpaceOnUse">
<stop stop-color="#FFE4BE"/>
<stop offset="1" stop-color="#FFDAC2" stop-opacity="0"/>
</linearGradient>
<linearGradient id="paint147_linear_9249_30340" x1="66.0813" y1="-10.5794" x2="108.536" y2="39.6744" gradientUnits="userSpaceOnUse">
<stop stop-color="#FFF1DC"/>
<stop offset="1" stop-color="#FFDAC2" stop-opacity="0"/>
</linearGradient>
<linearGradient id="paint148_linear_9249_30340" x1="75.7566" y1="28.4362" x2="71.4781" y2="21.1786" gradientUnits="userSpaceOnUse">
<stop stop-color="#240D54" stop-opacity="0"/>
<stop offset="1" stop-color="#7A4E05"/>
</linearGradient>
<linearGradient id="paint149_linear_9249_30340" x1="70.8853" y1="30.4031" x2="65.527" y2="27.1397" gradientUnits="userSpaceOnUse">
<stop offset="0.107484" stop-color="#3AEFD7" stop-opacity="0.5"/>
<stop offset="0.537993" stop-color="#1E73B9" stop-opacity="0.811881"/>
<stop offset="0.975" stop-color="#001975"/>
</linearGradient>
<radialGradient id="paint150_radial_9249_30340" cx="0" cy="0" r="1" gradientUnits="userSpaceOnUse" gradientTransform="translate(70.3892 30.6131) rotate(-83.8998) scale(9.93575 5.6587)">
<stop offset="0.599565" stop-color="#240D54" stop-opacity="0"/>
<stop offset="1" stop-color="#00204D"/>
</radialGradient>
<linearGradient id="paint151_linear_9249_30340" x1="73.6172" y1="26.915" x2="66.1898" y2="26.915" gradientUnits="userSpaceOnUse">
<stop offset="0.575472" stop-color="#240D54" stop-opacity="0"/>
<stop offset="1" stop-color="#00204D"/>
</linearGradient>
<linearGradient id="paint152_linear_9249_30340" x1="109.633" y1="28.4362" x2="105.355" y2="21.1786" gradientUnits="userSpaceOnUse">
<stop stop-color="#240D54" stop-opacity="0"/>
<stop offset="1" stop-color="#7A4E05"/>
</linearGradient>
<linearGradient id="paint153_linear_9249_30340" x1="104.762" y1="30.4031" x2="99.4034" y2="27.1397" gradientUnits="userSpaceOnUse">
<stop offset="0.107484" stop-color="#3AEFD7" stop-opacity="0.5"/>
<stop offset="0.537993" stop-color="#1E73B9" stop-opacity="0.811881"/>
<stop offset="0.975" stop-color="#001975"/>
</linearGradient>
<radialGradient id="paint154_radial_9249_30340" cx="0" cy="0" r="1" gradientUnits="userSpaceOnUse" gradientTransform="translate(104.266 30.6131) rotate(-83.8998) scale(9.93575 5.6587)">
<stop offset="0.599565" stop-color="#240D54" stop-opacity="0"/>
<stop offset="1" stop-color="#00204D"/>
</radialGradient>
<linearGradient id="paint155_linear_9249_30340" x1="107.494" y1="26.915" x2="100.066" y2="26.915" gradientUnits="userSpaceOnUse">
<stop offset="0.575472" stop-color="#240D54" stop-opacity="0"/>
<stop offset="1" stop-color="#00204D"/>
</linearGradient>
<linearGradient id="paint156_linear_9249_30340" x1="148.451" y1="28.4362" x2="144.172" y2="21.1786" gradientUnits="userSpaceOnUse">
<stop stop-color="#240D54" stop-opacity="0"/>
<stop offset="1" stop-color="#7A4E05"/>
</linearGradient>
<linearGradient id="paint157_linear_9249_30340" x1="143.58" y1="30.4031" x2="138.221" y2="27.1397" gradientUnits="userSpaceOnUse">
<stop offset="0.107484" stop-color="#3AEFD7" stop-opacity="0.5"/>
<stop offset="0.537993" stop-color="#1E73B9" stop-opacity="0.811881"/>
<stop offset="0.975" stop-color="#001975"/>
</linearGradient>
<radialGradient id="paint158_radial_9249_30340" cx="0" cy="0" r="1" gradientUnits="userSpaceOnUse" gradientTransform="translate(143.084 30.6131) rotate(-83.8998) scale(9.93575 5.6587)">
<stop offset="0.599565" stop-color="#240D54" stop-opacity="0"/>
<stop offset="1" stop-color="#00204D"/>
</radialGradient>
<linearGradient id="paint159_linear_9249_30340" x1="146.312" y1="26.915" x2="138.884" y2="26.915" gradientUnits="userSpaceOnUse">
<stop offset="0.575472" stop-color="#240D54" stop-opacity="0"/>
<stop offset="1" stop-color="#00204D"/>
</linearGradient>
<linearGradient id="paint160_linear_9249_30340" x1="21.7425" y1="60.7504" x2="56.8587" y2="127.394" gradientUnits="userSpaceOnUse">
<stop stop-color="#88E06C"/>
<stop offset="1" stop-color="#1E794A"/>
</linearGradient>
<radialGradient id="paint161_radial_9249_30340" cx="0" cy="0" r="1" gradientUnits="userSpaceOnUse" gradientTransform="translate(21.5806 88.6816) rotate(66.0917) scale(47.3458 64.3587)">
<stop offset="0.407859" stop-color="#2C764E" stop-opacity="0"/>
<stop offset="1" stop-color="#093C41"/>
</radialGradient>
<radialGradient id="paint162_radial_9249_30340" cx="0" cy="0" r="1" gradientUnits="userSpaceOnUse" gradientTransform="translate(26.7716 111.937) rotate(-31.8349) scale(34.1324 26.0036)">
<stop offset="0.199965" stop-color="#093C41"/>
<stop offset="1" stop-color="#2C764E" stop-opacity="0"/>
</radialGradient>
<radialGradient id="paint163_radial_9249_30340" cx="0" cy="0" r="1" gradientUnits="userSpaceOnUse" gradientTransform="translate(4.93362 81.3675) rotate(29.67) scale(32.9615 37.1032)">
<stop stop-color="#FFC470"/>
<stop offset="1" stop-color="#FFE06B" stop-opacity="0"/>
</radialGradient>
<linearGradient id="paint164_linear_9249_30340" x1="30.3855" y1="83.3568" x2="51.6841" y2="124.965" gradientUnits="userSpaceOnUse">
<stop stop-color="#88E06C"/>
<stop offset="1" stop-color="#1E794A"/>
</linearGradient>
<radialGradient id="paint165_radial_9249_30340" cx="0" cy="0" r="1" gradientUnits="userSpaceOnUse" gradientTransform="translate(35.3062 99.8985) rotate(75.3483) scale(28.2966 39.0587)">
<stop offset="0.498233" stop-color="#2C764E" stop-opacity="0"/>
<stop offset="1" stop-color="#093C41"/>
</radialGradient>
<radialGradient id="paint166_radial_9249_30340" cx="0" cy="0" r="1" gradientUnits="userSpaceOnUse" gradientTransform="translate(36.4827 94.8989) rotate(44.9363) scale(19.3398 18.4045)">
<stop stop-color="#FFC470"/>
<stop offset="1" stop-color="#FFE06B" stop-opacity="0"/>
</radialGradient>
<linearGradient id="paint167_linear_9249_30340" x1="155.841" y1="83.3568" x2="177.14" y2="124.965" gradientUnits="userSpaceOnUse">
<stop stop-color="#88E06C"/>
<stop offset="1" stop-color="#1E794A"/>
</linearGradient>
<radialGradient id="paint168_radial_9249_30340" cx="0" cy="0" r="1" gradientUnits="userSpaceOnUse" gradientTransform="translate(160.762 99.8985) rotate(75.3483) scale(28.2966 39.0587)">
<stop offset="0.498233" stop-color="#2C764E" stop-opacity="0"/>
<stop offset="1" stop-color="#093C41"/>
</radialGradient>
<radialGradient id="paint169_radial_9249_30340" cx="0" cy="0" r="1" gradientUnits="userSpaceOnUse" gradientTransform="translate(161.938 94.8989) rotate(44.9363) scale(19.3398 18.4045)">
<stop stop-color="#FFC470"/>
<stop offset="1" stop-color="#FFE06B" stop-opacity="0"/>
</radialGradient>
<linearGradient id="paint170_linear_9249_30340" x1="16.9677" y1="84.7058" x2="38.1548" y2="124.003" gradientUnits="userSpaceOnUse">
<stop stop-color="#88E06C"/>
<stop offset="1" stop-color="#1E794A"/>
</linearGradient>
<radialGradient id="paint171_radial_9249_30340" cx="0" cy="0" r="1" gradientUnits="userSpaceOnUse" gradientTransform="translate(21.4804 100.684) rotate(76.0594) scale(27.2458 35.9335)">
<stop offset="0.498233" stop-color="#2C764E" stop-opacity="0"/>
<stop offset="1" stop-color="#093C41"/>
</radialGradient>
<radialGradient id="paint172_radial_9249_30340" cx="0" cy="0" r="1" gradientUnits="userSpaceOnUse" gradientTransform="translate(14.5414 95.8545) rotate(73.7237) scale(20.0744 22.858)">
<stop stop-color="#FFC470"/>
<stop offset="1" stop-color="#FFE06B" stop-opacity="0"/>
</radialGradient>
<linearGradient id="paint173_linear_9249_30340" x1="175.834" y1="54.9671" x2="214.426" y2="128.041" gradientUnits="userSpaceOnUse">
<stop stop-color="#88E06C"/>
<stop offset="1" stop-color="#1E794A"/>
</linearGradient>
<radialGradient id="paint174_radial_9249_30340" cx="0" cy="0" r="1" gradientUnits="userSpaceOnUse" gradientTransform="translate(184.322 84.4073) rotate(75.7802) scale(50.2632 67.5083)">
<stop offset="0.498233" stop-color="#2C764E" stop-opacity="0"/>
<stop offset="1" stop-color="#093C41"/>
</radialGradient>
<radialGradient id="paint175_radial_9249_30340" cx="0" cy="0" r="1" gradientUnits="userSpaceOnUse" gradientTransform="translate(192.173 80.8033) rotate(108.861) scale(31.9259 33.2032)">
<stop stop-color="#FFC470"/>
<stop offset="1" stop-color="#FFE06B" stop-opacity="0"/>
</radialGradient>
<radialGradient id="paint176_radial_9249_30340" cx="0" cy="0" r="1" gradientUnits="userSpaceOnUse" gradientTransform="translate(181.767 114.561) rotate(-20.6344) scale(39.3811 33.2517)">
<stop offset="0.199965" stop-color="#093C41"/>
<stop offset="1" stop-color="#2C764E" stop-opacity="0"/>
</radialGradient>
<linearGradient id="paint177_linear_9249_30340" x1="177.953" y1="74.8638" x2="205.652" y2="124.164" gradientUnits="userSpaceOnUse">
<stop stop-color="#88E06C"/>
<stop offset="1" stop-color="#1E794A"/>
</linearGradient>
<radialGradient id="paint178_radial_9249_30340" cx="0" cy="0" r="1" gradientUnits="userSpaceOnUse" gradientTransform="translate(183.491 95.2968) rotate(76.6017) scale(34.7625 44.1984)">
<stop offset="0.498233" stop-color="#2C764E" stop-opacity="0"/>
<stop offset="1" stop-color="#093C41"/>
</radialGradient>
<radialGradient id="paint179_radial_9249_30340" cx="0" cy="0" r="1" gradientUnits="userSpaceOnUse" gradientTransform="translate(174.976 89.1211) rotate(74.3483) scale(25.5917 28.1384)">
<stop stop-color="#FFC470"/>
<stop offset="1" stop-color="#FFE06B" stop-opacity="0"/>
</radialGradient>
</defs>
</svg>
