<svg viewBox="0 0 240 120" fill="none" xmlns="http://www.w3.org/2000/svg">
<path d="M10.8712 79.6152C11.836 92.3075 24.7403 101.25 31.0719 104.134L211.671 102.115C212.274 93.173 227.952 81.0577 232.475 66.0577C236.997 51.0577 220.716 55.3844 216.797 45C212.877 34.6155 220.716 15.8647 206.546 6.92239C192.375 -2.01991 168.858 16.4416 154.386 17.307C139.914 18.1724 133.582 6.9233 115.794 5.19253C98.0049 3.46176 101.321 19.9036 87.7539 24.2306C74.1863 28.5575 66.9502 18.7498 52.7796 24.2306C38.609 29.7113 50.6695 49.6152 42.8305 55.3844C34.9914 61.1537 9.66523 63.7498 10.8712 79.6152Z" fill="url(#paint0_radial_10326_34217)"/>
<path d="M10.8712 79.6152C11.836 92.3075 24.7403 101.25 31.0719 104.134L211.671 102.115C212.274 93.173 227.952 81.0577 232.475 66.0577C236.997 51.0577 220.716 55.3844 216.797 45C212.877 34.6155 220.716 15.8647 206.546 6.92239C192.375 -2.01991 168.858 16.4416 154.386 17.307C139.914 18.1724 133.582 6.9233 115.794 5.19253C98.0049 3.46176 101.321 19.9036 87.7539 24.2306C74.1863 28.5575 66.9502 18.7498 52.7796 24.2306C38.609 29.7113 50.6695 49.6152 42.8305 55.3844C34.9914 61.1537 9.66523 63.7498 10.8712 79.6152Z" fill="url(#paint1_radial_10326_34217)"/>
<path d="M121.602 92.9561C155.8 92.4943 208.168 94.298 212.4 97.5625C218.32 102.134 207.394 103.733 209.213 106.933C211.035 110.134 224.699 106.706 226.066 113.793C227.159 119.462 216.196 120.119 210.579 119.738H32.6295C27.012 120.119 16.0494 119.462 17.1427 113.793C18.5096 106.706 32.1734 110.134 33.9952 106.933C35.8138 103.733 24.8884 102.134 30.8086 97.5625C35.0398 94.2982 87.4034 92.4946 121.602 92.9561Z" fill="url(#paint2_linear_10326_34217)"/>
<path d="M121.602 92.9561C155.8 92.4943 208.168 94.298 212.4 97.5625C218.32 102.134 207.394 103.733 209.213 106.933C211.035 110.134 224.699 106.706 226.066 113.793C227.159 119.462 216.196 120.119 210.579 119.738H32.6295C27.012 120.119 16.0494 119.462 17.1427 113.793C18.5096 106.706 32.1734 110.134 33.9952 106.933C35.8138 103.733 24.8884 102.134 30.8086 97.5625C35.0398 94.2982 87.4034 92.4946 121.602 92.9561Z" fill="url(#paint3_radial_10326_34217)"/>
<path d="M176.554 17.2581C191.771 17.2593 204.107 29.5978 204.107 44.8151C204.107 60.0325 191.771 72.371 176.554 72.3722C161.336 72.3722 148.997 60.0333 148.997 44.8151C148.997 44.0807 149.035 43.3536 149.092 42.6337C150.121 54.5733 160.133 63.9438 172.34 63.9438C185.231 63.9431 195.683 53.4918 195.683 40.6009C195.682 28.394 186.309 18.3813 174.368 17.3527C175.089 17.2962 175.819 17.2581 176.554 17.2581Z" fill="url(#paint4_linear_10326_34217)"/>
<path d="M75.8587 95.1112C100.333 95.1115 120.173 101.074 120.174 108.43C120.174 113.202 111.825 117.386 99.2782 119.739H52.4347C39.8882 117.386 31.5393 113.202 31.5393 108.43C31.5393 108.355 31.5532 108.28 31.5573 108.205C32.7326 107.958 33.6191 107.595 33.9957 106.934C34.471 106.097 34.0706 105.375 33.3332 104.676C38.7317 99.1493 55.7261 95.1112 75.8587 95.1112Z" fill="url(#paint5_radial_10326_34217)"/>
<path d="M76.5481 97.9688C78.7195 101.151 83.1086 108.204 83.309 110.968C79.1864 111.72 72.5304 111.993 67.9619 112.108V112.198C67.9325 112.198 66.9782 112.194 65.4649 112.171C63.9657 112.194 63.0149 112.198 62.9679 112.198V112.108C58.3998 111.993 51.7438 111.72 47.6208 110.968C47.8212 108.204 52.2104 101.151 54.3817 97.9688H76.5481Z" fill="url(#paint6_linear_10326_34217)"/>
<path d="M76.5481 97.9688C78.7195 101.151 83.1086 108.204 83.309 110.968C79.1864 111.72 72.5304 111.993 67.9619 112.108V112.198C67.9325 112.198 66.9782 112.194 65.4649 112.171C63.9657 112.194 63.0149 112.198 62.9679 112.198V112.108C58.3998 111.993 51.7438 111.72 47.6208 110.968C47.8212 108.204 52.2104 101.151 54.3817 97.9688H76.5481Z" fill="url(#paint7_radial_10326_34217)"/>
<path d="M43.7967 100.644C46.5371 98.7187 45.3111 98.0769 47.691 98.0769H56.7774C56.3447 99.4675 56.1284 101.751 53.8207 103.934C51.513 106.116 51.8014 109.484 51.8014 111.409C44.8207 111.409 40.6236 109.63 39.3977 108.988C39.3015 108.079 39.1669 106.003 39.3977 104.977C39.6861 103.693 41.0563 102.57 43.7967 100.644Z" fill="#C8601A"/>
<path d="M43.7967 100.644C46.5371 98.7187 45.3111 98.0769 47.691 98.0769H56.7774C56.3447 99.4675 56.1284 101.751 53.8207 103.934C51.513 106.116 51.8014 109.484 51.8014 111.409C44.8207 111.409 40.6236 109.63 39.3977 108.988C39.3015 108.079 39.1669 106.003 39.3977 104.977C39.6861 103.693 41.0563 102.57 43.7967 100.644Z" fill="url(#paint8_linear_10326_34217)"/>
<path d="M43.7967 100.644C46.5371 98.7187 45.3111 98.0769 47.691 98.0769H56.7774C56.3447 99.4675 56.1284 101.751 53.8207 103.934C51.513 106.116 51.8014 109.484 51.8014 111.409C44.8207 111.409 40.6236 109.63 39.3977 108.988C39.3015 108.079 39.1669 106.003 39.3977 104.977C39.6861 103.693 41.0563 102.57 43.7967 100.644Z" fill="url(#paint9_radial_10326_34217)"/>
<path d="M87.0658 100.644C84.3254 98.7187 85.5514 98.0769 83.1716 98.0769H74.0851C74.5178 99.4675 74.7342 101.751 77.0419 103.934C79.3496 106.116 79.0611 109.484 79.0611 111.409C86.0419 111.409 90.2389 109.63 91.4649 108.988C91.561 108.079 91.6956 106.003 91.4649 104.977C91.1764 103.693 89.8062 102.57 87.0658 100.644Z" fill="#733C21"/>
<path d="M87.0658 100.644C84.3254 98.7187 85.5514 98.0769 83.1716 98.0769H74.0851C74.5178 99.4675 74.7342 101.751 77.0419 103.934C79.3496 106.116 79.0611 109.484 79.0611 111.409C86.0419 111.409 90.2389 109.63 91.4649 108.988C91.561 108.079 91.6956 106.003 91.4649 104.977C91.1764 103.693 89.8062 102.57 87.0658 100.644Z" fill="url(#paint10_linear_10326_34217)"/>
<path d="M87.0658 100.644C84.3254 98.7187 85.5514 98.0769 83.1716 98.0769H74.0851C74.5178 99.4675 74.7342 101.751 77.0419 103.934C79.3496 106.116 79.0611 109.484 79.0611 111.409C86.0419 111.409 90.2389 109.63 91.4649 108.988C91.561 108.079 91.6956 106.003 91.4649 104.977C91.1764 103.693 89.8062 102.57 87.0658 100.644Z" fill="url(#paint11_radial_10326_34217)"/>
<path d="M41.568 42.4038C45.3177 37.2115 57.217 35.625 57.217 30.2163H64.5725V53.149H44.1642C43.1545 53.149 37.8183 47.5961 41.568 42.4038Z" fill="url(#paint12_linear_10326_34217)"/>
<path d="M41.568 42.4038C45.3177 37.2115 57.217 35.625 57.217 30.2163H64.5725V53.149H44.1642C43.1545 53.149 37.8183 47.5961 41.568 42.4038Z" fill="url(#paint13_linear_10326_34217)"/>
<path d="M89.3597 42.4038C85.6101 37.2115 73.7107 35.625 73.7107 30.2163H66.3552V53.149H86.7636C87.7732 53.149 93.1094 47.5961 89.3597 42.4038Z" fill="url(#paint14_linear_10326_34217)"/>
<path d="M89.3597 42.4038C85.6101 37.2115 73.7107 35.625 73.7107 30.2163H66.3552V53.149H86.7636C87.7732 53.149 93.1094 47.5961 89.3597 42.4038Z" fill="url(#paint15_linear_10326_34217)"/>
<path d="M70.8239 30.2163C70.8239 35.625 76.1243 37.2115 78.0264 42.4038C79.9278 47.5959 74.7615 53.149 74.2494 53.149H56.6756C56.1635 53.149 51.001 47.5961 52.9031 42.4038C54.8052 37.2116 60.1011 35.6249 60.1011 30.2163H70.8239Z" fill="url(#paint16_linear_10326_34217)"/>
<path d="M70.8239 30.2163C70.8239 35.625 76.1243 37.2115 78.0264 42.4038C79.9278 47.5959 74.7615 53.149 74.2494 53.149H56.6756C56.1635 53.149 51.001 47.5961 52.9031 42.4038C54.8052 37.2116 60.1011 35.6249 60.1011 30.2163H70.8239Z" fill="url(#paint17_linear_10326_34217)"/>
<path d="M45.9803 56.4663H56.3014V99.8077L45.9802 98.4262L45.9803 56.4663Z" fill="url(#paint18_linear_10326_34217)"/>
<path d="M84.947 56.4663H74.0851V99.8077L84.9475 98.404L84.947 56.4663Z" fill="url(#paint19_linear_10326_34217)"/>
<path d="M56.3018 56.4663H74.5884V99.8077H56.3018V56.4663Z" fill="url(#paint20_linear_10326_34217)"/>
<path d="M65.3973 60C65.4742 60.0383 68.5974 61.6088 68.5974 63.6373V66.1163C70.1138 67.3798 71.5898 69.1094 71.5902 71.0562V97.2115H59.2991V71.0562C59.2995 69.1075 60.7935 67.3428 62.2964 66.0622V63.6373C62.2964 61.6266 65.3973 60 65.3973 60Z" fill="url(#paint21_radial_10326_34217)"/>
<path d="M50.8571 60C50.9057 60.0416 52.7186 61.6111 52.7186 63.6373V66.1208C53.6014 67.3841 54.4626 69.1105 54.4629 71.0562V97.2115L47.3054 96.238V71.0562C47.3057 69.1088 48.1748 67.3471 49.0497 66.0667V63.6373C49.0497 61.6266 50.8571 60 50.8571 60Z" fill="url(#paint22_radial_10326_34217)"/>
<path d="M80.0729 60C80.0729 60 81.8803 61.6266 81.8803 63.6373V66.0667C82.7551 67.3471 83.6244 69.109 83.6246 71.0562V96.4769L76.4626 97.2115V71.0562C76.4629 69.1128 77.3252 67.3882 78.2069 66.1253V63.6373C78.2069 61.5997 80.0441 60.0246 80.0729 60Z" fill="url(#paint23_radial_10326_34217)"/>
<path d="M84.6566 56.7818H46.2327L42.717 51.8374H88.1723L84.6566 56.7818Z" fill="url(#paint24_linear_10326_34217)"/>
<path d="M84.6566 56.7818H46.2327L42.717 51.8374H88.1723L84.6566 56.7818Z" fill="url(#paint25_linear_10326_34217)"/>
<path d="M73.9497 56.7818H56.9395L55.3845 51.8374H75.5047L73.9497 56.7818Z" fill="url(#paint26_linear_10326_34217)"/>
<path d="M73.9497 56.7818H56.9395L55.3845 51.8374H75.5047L73.9497 56.7818Z" fill="url(#paint27_linear_10326_34217)"/>
<path d="M54.4766 20.0481C57.0728 16.4423 60.3901 17.1635 63.4189 12.5481H66.0148V27.9808C63.7072 28.0769 58.6593 28.2116 56.9285 27.9808C54.7651 27.6923 51.8804 23.6539 54.4766 20.0481Z" fill="#E2802D"/>
<path d="M54.4766 20.0481C57.0728 16.4423 60.3901 17.1635 63.4189 12.5481H66.0148V27.9808C63.7072 28.0769 58.6593 28.2116 56.9285 27.9808C54.7651 27.6923 51.8804 23.6539 54.4766 20.0481Z" fill="url(#paint28_linear_10326_34217)"/>
<path d="M76.4511 20.0481C73.855 16.4423 70.5377 17.1635 67.5088 12.5481H64.9129V27.9808C67.2205 28.0769 72.2684 28.2116 73.9992 27.9808C76.1627 27.6923 79.0473 23.6539 76.4511 20.0481Z" fill="url(#paint29_linear_10326_34217)"/>
<path d="M66.1835 12.5481C67.6121 17.1632 69.1778 16.4424 70.4022 20.0481C71.6265 23.6537 70.2643 27.6923 69.2439 27.9808C68.5159 28.1865 66.6558 28.0877 65.4894 27.9988C64.3115 28.0875 62.411 28.1859 61.6853 27.9808C60.665 27.6915 59.3029 23.6533 60.5269 20.0481C61.7514 16.4424 63.3171 17.1632 64.7457 12.5481H66.1835Z" fill="url(#paint30_linear_10326_34217)"/>
<path d="M71.0743 26.7728C75.6904 26.7734 74.9081 30.3966 73.2739 30.3966H57.656C56.0217 30.3966 55.2387 26.773 59.8556 26.7728H71.0743Z" fill="#D86E1C"/>
<path d="M71.0743 26.7728C75.6904 26.7734 74.9081 30.3966 73.2739 30.3966H57.656C56.0217 30.3966 55.2387 26.773 59.8556 26.7728H71.0743Z" fill="url(#paint31_linear_10326_34217)"/>
<path d="M68.0018 11.4151C68.0018 12.8163 66.8659 13.0833 65.4646 13.0833C64.0634 13.0833 62.9275 12.8163 62.9275 11.4151C62.9275 10.0139 64.0634 7.67468 65.4646 7.67468C66.8659 7.67468 68.0018 10.0139 68.0018 11.4151Z" fill="#D97021"/>
<path d="M68.0018 11.4151C68.0018 12.8163 66.8659 13.0833 65.4646 13.0833C64.0634 13.0833 62.9275 12.8163 62.9275 11.4151C62.9275 10.0139 64.0634 7.67468 65.4646 7.67468C66.8659 7.67468 68.0018 10.0139 68.0018 11.4151Z" fill="url(#paint32_linear_10326_34217)"/>
<path d="M68.0018 11.4151C68.0018 12.8163 66.8659 13.0833 65.4646 13.0833C64.0634 13.0833 62.9275 12.8163 62.9275 11.4151C62.9275 10.0139 64.0634 7.67468 65.4646 7.67468C66.8659 7.67468 68.0018 10.0139 68.0018 11.4151Z" fill="url(#paint33_radial_10326_34217)"/>
<path d="M65.4649 34.3112L66.6347 36.3867L68.9702 36.858L67.3578 38.612L67.6313 40.9788L65.4649 39.9872L63.2984 40.9788L63.5719 38.612L61.9595 36.858L64.295 36.3867L65.4649 34.3112Z" fill="url(#paint34_radial_10326_34217)"/>
<path d="M65.4654 19.2864L66.3023 20.7712L67.9731 21.1083L66.8196 22.3631L67.0153 24.0562L65.4654 23.3469L63.9156 24.0562L64.1113 22.3631L62.9578 21.1083L64.6285 20.7712L65.4654 19.2864Z" fill="url(#paint35_radial_10326_34217)"/>
<path d="M56.381 19.2864L56.8177 20.7712L57.6895 21.1083L57.0876 22.3631L57.1897 24.0562L56.381 23.3469L55.5723 24.0562L55.6744 22.3631L55.0725 21.1083L55.9443 20.7712L56.381 19.2864Z" fill="url(#paint36_radial_10326_34217)"/>
<path d="M74.1293 19.2864L74.566 20.7712L75.4378 21.1083L74.8359 22.3631L74.938 24.0562L74.1293 23.3469L73.3206 24.0562L73.4227 22.3631L72.8208 21.1083L73.6926 20.7712L74.1293 19.2864Z" fill="url(#paint37_radial_10326_34217)"/>
<path d="M59.2991 41.1317L60.469 43.2073L62.8045 43.6785L61.192 45.4325L61.4655 47.7993L59.2991 46.8078L57.1326 47.7993L57.4062 45.4325L55.7937 43.6785L58.1292 43.2073L59.2991 41.1317Z" fill="url(#paint38_radial_10326_34217)"/>
<path d="M71.8189 41.1317L72.9887 43.2073L75.3242 43.6785L73.7118 45.4325L73.9853 47.7993L71.8189 46.8078L69.6524 47.7993L69.926 45.4325L68.3135 43.6785L70.649 43.2073L71.8189 41.1317Z" fill="url(#paint39_radial_10326_34217)"/>
<path d="M48.9095 41.2245L49.0983 43.397L50.2946 44.1543L49.0046 45.6584L48.6289 48.0004L47.6429 46.7575L46.2143 47.4476L46.8949 45.1754L46.3877 43.2599L47.7944 43.0985L48.9095 41.2245Z" fill="url(#paint40_radial_10326_34217)"/>
<path d="M82.985 41.2825L84.2148 43.0833L85.6288 43.1566L85.242 45.1L86.063 47.3254L84.5942 46.7257L83.6876 48.0276L83.1665 45.7136L81.7853 44.2929L82.9321 43.4625L82.985 41.2825Z" fill="url(#paint41_radial_10326_34217)"/>
<path d="M51.9524 36.5579L52.4797 37.8741L50.5552 38.3383L48.8785 40.015L48.8064 38.4284L47.2649 38.1535C49.0707 37.2139 50.9726 36.3426 52.6285 35.4266L51.9524 36.5579Z" fill="url(#paint42_radial_10326_34217)"/>
<path d="M78.5359 35.5574C80.1473 36.432 81.9692 37.2731 83.7012 38.1761L82.2814 38.4285L82.2093 40.015L80.5371 38.3383L78.608 37.8741L79.1353 36.558L78.5359 35.5574Z" fill="url(#paint43_radial_10326_34217)"/>
<path d="M121.602 92.9543C130.125 92.8392 139.776 92.8635 149.529 93.0174C158.159 95.1517 163.661 98.3881 163.664 102.009C163.664 108.438 146.325 113.651 124.938 113.651C103.551 113.651 86.2117 108.437 86.2117 102.009C86.2139 98.3349 91.8844 95.0645 100.734 92.9317C108.04 92.8628 115.145 92.8671 121.602 92.9543Z" fill="url(#paint44_radial_10326_34217)"/>
<path d="M127.668 17.2621C127.668 19.919 125.514 22.0729 122.857 22.0729C120.2 22.0729 118.046 19.919 118.046 17.2621C118.046 14.6051 120.2 12.4512 122.857 12.4512C125.514 12.4512 127.668 14.6051 127.668 17.2621Z" fill="url(#paint45_radial_10326_34217)"/>
<path d="M167.699 29.5002C167.699 32.1572 165.545 34.3111 162.888 34.3111C160.231 34.3111 158.077 32.1572 158.077 29.5002C158.077 26.8432 160.231 24.6893 162.888 24.6893C165.545 24.6893 167.699 26.8432 167.699 29.5002Z" fill="url(#paint46_radial_10326_34217)"/>
<path d="M151.171 73.7949C151.171 76.4519 149.017 78.6058 146.36 78.6058C143.703 78.6058 141.549 76.4519 141.549 73.7949C141.549 71.1379 143.703 68.984 146.36 68.984C149.017 68.984 151.171 71.1379 151.171 73.7949Z" fill="url(#paint47_radial_10326_34217)"/>
<path d="M208.917 17.359C208.917 20.016 206.763 22.1699 204.106 22.1699C201.449 22.1699 199.295 20.016 199.295 17.359C199.295 14.702 201.449 12.5481 204.106 12.5481C206.763 12.5481 208.917 14.702 208.917 17.359Z" fill="url(#paint48_radial_10326_34217)"/>
<path d="M226.142 61.2772C226.142 63.9342 223.988 66.0881 221.331 66.0881C218.674 66.0881 216.52 63.9342 216.52 61.2772C216.52 58.6202 218.674 56.4663 221.331 56.4663C223.988 56.4663 226.142 58.6202 226.142 61.2772Z" fill="url(#paint49_radial_10326_34217)"/>
<path d="M99.1259 34.243C99.1259 36.9 96.972 39.0539 94.315 39.0539C91.6581 39.0539 89.5042 36.9 89.5042 34.243C89.5042 31.586 91.6581 29.4321 94.315 29.4321C96.972 29.4321 99.1259 31.586 99.1259 34.243Z" fill="url(#paint50_radial_10326_34217)"/>
<path d="M25.9682 78.6052C25.9682 81.2622 23.8143 83.4161 21.1573 83.4161C18.5003 83.4161 16.3464 81.2622 16.3464 78.6052C16.3464 75.9482 18.5003 73.7943 21.1573 73.7943C23.8143 73.7943 25.9682 75.9482 25.9682 78.6052Z" fill="url(#paint51_radial_10326_34217)"/>
<path d="M42.503 70.3272C42.503 73.7256 39.748 76.4806 36.3495 76.4806C32.951 76.4806 30.196 73.7256 30.196 70.3272C30.196 66.9287 32.951 64.1737 36.3495 64.1737C39.748 64.1737 42.503 66.9287 42.503 70.3272Z" fill="url(#paint52_radial_10326_34217)"/>
<path d="M144.407 35.7686C144.407 40.7661 140.355 44.8174 135.358 44.8174C130.36 44.8174 126.309 40.7661 126.309 35.7686C126.309 30.7711 130.36 26.7198 135.358 26.7198C140.355 26.7198 144.407 30.7711 144.407 35.7686Z" fill="url(#paint53_radial_10326_34217)"/>
<path d="M122.934 92.4497C124.513 94.7636 127.704 99.8898 127.852 101.901C124.853 102.448 120.014 102.652 116.692 102.735V102.803C116.692 102.803 115.99 102.793 114.871 102.776C113.754 102.793 113.054 102.803 113.054 102.803V102.735C109.732 102.652 104.893 102.448 101.895 101.901C102.042 99.8897 105.233 94.7635 106.812 92.4497H122.934Z" fill="url(#paint54_linear_10326_34217)"/>
<path d="M122.934 92.4497C124.513 94.7636 127.704 99.8898 127.852 101.901C124.853 102.448 120.014 102.652 116.692 102.735V102.803C116.692 102.803 115.99 102.793 114.871 102.776C113.754 102.793 113.054 102.803 113.054 102.803V102.735C109.732 102.652 104.893 102.448 101.895 101.901C102.042 99.8897 105.233 94.7635 106.812 92.4497H122.934Z" fill="url(#paint55_radial_10326_34217)"/>
<path d="M99.1134 94.3953C101.107 92.9948 100.215 92.528 101.946 92.528H108.555C108.24 93.5394 108.083 95.2006 106.404 96.7879C104.726 98.3751 104.936 100.825 104.936 102.226C99.8582 102.226 96.8054 100.931 95.9137 100.464C95.8438 99.8029 95.7459 98.2934 95.9137 97.5465C96.1235 96.6128 97.1202 95.7958 99.1134 94.3953Z" fill="#C8601A"/>
<path d="M99.1134 94.3953C101.107 92.9948 100.215 92.528 101.946 92.528H108.555C108.24 93.5394 108.083 95.2006 106.404 96.7879C104.726 98.3751 104.936 100.825 104.936 102.226C99.8582 102.226 96.8054 100.931 95.9137 100.464C95.8438 99.8029 95.7459 98.2934 95.9137 97.5465C96.1235 96.6128 97.1202 95.7958 99.1134 94.3953Z" fill="url(#paint56_linear_10326_34217)"/>
<path d="M99.1134 94.3953C101.107 92.9948 100.215 92.528 101.946 92.528H108.555C108.24 93.5394 108.083 95.2006 106.404 96.7879C104.726 98.3751 104.936 100.825 104.936 102.226C99.8582 102.226 96.8054 100.931 95.9137 100.464C95.8438 99.8029 95.7459 98.2934 95.9137 97.5465C96.1235 96.6128 97.1202 95.7958 99.1134 94.3953Z" fill="url(#paint57_radial_10326_34217)"/>
<path d="M130.585 94.3953C128.592 92.9948 129.484 92.528 127.753 92.528H121.144C121.458 93.5394 121.616 95.2006 123.294 96.7879C124.973 98.3751 124.763 100.825 124.763 102.226C129.841 102.226 132.893 100.931 133.785 100.464C133.855 99.8029 133.953 98.2934 133.785 97.5465C133.575 96.6128 132.579 95.7958 130.585 94.3953Z" fill="#733C21"/>
<path d="M130.585 94.3953C128.592 92.9948 129.484 92.528 127.753 92.528H121.144C121.458 93.5394 121.616 95.2006 123.294 96.7879C124.973 98.3751 124.763 100.825 124.763 102.226C129.841 102.226 132.893 100.931 133.785 100.464C133.855 99.8029 133.953 98.2934 133.785 97.5465C133.575 96.6128 132.579 95.7958 130.585 94.3953Z" fill="url(#paint58_linear_10326_34217)"/>
<path d="M130.585 94.3953C128.592 92.9948 129.484 92.528 127.753 92.528H121.144C121.458 93.5394 121.616 95.2006 123.294 96.7879C124.973 98.3751 124.763 100.825 124.763 102.226C129.841 102.226 132.893 100.931 133.785 100.464C133.855 99.8029 133.953 98.2934 133.785 97.5465C133.575 96.6128 132.579 95.7958 130.585 94.3953Z" fill="url(#paint59_radial_10326_34217)"/>
<path d="M97.4922 52.0337C100.22 48.257 108.875 47.103 108.875 43.1689H114.225V59.8494H99.3806C98.6462 59.8494 94.7648 55.8104 97.4922 52.0337Z" fill="url(#paint60_linear_10326_34217)"/>
<path d="M97.4922 52.0337C100.22 48.257 108.875 47.103 108.875 43.1689H114.225V59.8494H99.3806C98.6462 59.8494 94.7648 55.8104 97.4922 52.0337Z" fill="url(#paint61_linear_10326_34217)"/>
<path d="M132.254 52.0337C129.526 48.257 120.871 47.103 120.871 43.1689H115.521V59.8494H130.366C131.1 59.8494 134.981 55.8104 132.254 52.0337Z" fill="url(#paint62_linear_10326_34217)"/>
<path d="M132.254 52.0337C129.526 48.257 120.871 47.103 120.871 43.1689H115.521V59.8494H130.366C131.1 59.8494 134.981 55.8104 132.254 52.0337Z" fill="url(#paint63_linear_10326_34217)"/>
<path d="M118.774 43.1689C118.774 47.1029 122.628 48.258 124.011 52.0346C125.391 55.8058 121.647 59.8394 121.266 59.8501H108.479C108.099 59.8406 104.354 55.8064 105.734 52.0346C107.118 48.258 110.972 47.1029 110.972 43.1689H118.774Z" fill="url(#paint64_linear_10326_34217)"/>
<path d="M118.774 43.1689C118.774 47.1029 122.628 48.258 124.011 52.0346C125.391 55.8058 121.647 59.8394 121.266 59.8501H108.479C108.099 59.8406 104.354 55.8064 105.734 52.0346C107.118 48.258 110.972 47.1029 110.972 43.1689H118.774Z" fill="url(#paint65_linear_10326_34217)"/>
<path d="M100.701 62.2621H108.208V93.787L100.701 92.7822L100.701 62.2621Z" fill="url(#paint66_linear_10326_34217)"/>
<path d="M129.045 62.2621H121.144V93.787L129.045 92.766L129.045 62.2621Z" fill="url(#paint67_linear_10326_34217)"/>
<path d="M108.209 62.2621H121.51V93.787H108.209V62.2621Z" fill="url(#paint68_linear_10326_34217)"/>
<path d="M114.825 64.8323C114.881 64.8604 117.15 66.0027 117.15 67.478V69.2854C118.253 70.2042 119.327 71.4578 119.327 72.8731V91.8981H110.389V72.8731C110.39 71.4574 111.475 70.176 112.566 69.2448V67.478C112.566 66.0155 114.825 64.8323 114.825 64.8323Z" fill="url(#paint69_radial_10326_34217)"/>
<path d="M104.249 64.8323C104.285 64.8635 105.605 66.0048 105.605 67.4781V69.2855C106.247 70.2041 106.872 71.4594 106.872 72.8733V91.8986L101.666 91.191V72.8733C101.666 71.4575 102.296 70.1761 102.932 69.2449V67.4781C102.932 66.0155 104.249 64.8323 104.249 64.8323Z" fill="url(#paint70_radial_10326_34217)"/>
<path d="M125.5 64.8323C125.525 64.8553 126.816 66.03 126.816 67.4781V69.2449C127.452 70.176 128.082 71.4578 128.083 72.8733V91.3667L122.877 91.8986V72.8733C122.877 71.4591 123.502 70.2041 124.143 69.2855V67.4781C124.143 65.99 125.49 64.8411 125.5 64.8323Z" fill="url(#paint71_radial_10326_34217)"/>
<path d="M128.833 62.4919H100.888L98.3281 58.8951H131.389L128.833 62.4919Z" fill="url(#paint72_linear_10326_34217)"/>
<path d="M128.833 62.4919H100.888L98.3281 58.8951H131.389L128.833 62.4919Z" fill="url(#paint73_linear_10326_34217)"/>
<path d="M121.045 62.4915H108.673L107.542 58.8951H122.177L121.045 62.4915Z" fill="url(#paint74_linear_10326_34217)"/>
<path d="M121.045 62.4915H108.673L107.542 58.8951H122.177L121.045 62.4915Z" fill="url(#paint75_linear_10326_34217)"/>
<path d="M106.881 35.773C108.77 33.1503 111.182 33.6748 113.385 30.3177H115.274V41.5429C113.595 41.6129 109.924 41.7108 108.665 41.5429C107.091 41.3331 104.993 38.3957 106.881 35.773Z" fill="#E2802D"/>
<path d="M106.881 35.773C108.77 33.1503 111.182 33.6748 113.385 30.3177H115.274V41.5429C113.595 41.6129 109.924 41.7108 108.665 41.5429C107.091 41.3331 104.993 38.3957 106.881 35.773Z" fill="url(#paint76_linear_10326_34217)"/>
<path d="M122.865 35.773C120.977 33.1503 118.564 33.6748 116.361 30.3177H114.472V41.5429C116.151 41.6129 119.823 41.7108 121.081 41.5429C122.655 41.3331 124.753 38.3957 122.865 35.773Z" fill="url(#paint77_linear_10326_34217)"/>
<path d="M115.399 30.3177C116.438 33.6735 117.573 33.1508 118.464 35.7715C119.354 38.3919 118.367 41.3264 117.625 41.5407C117.096 41.6903 115.742 41.6189 114.894 41.5542C114.037 41.6188 112.655 41.69 112.127 41.5407C111.384 41.3304 110.393 38.3939 111.284 35.7715C112.174 33.1498 113.314 33.6744 114.353 30.3177H115.399Z" fill="url(#paint78_linear_10326_34217)"/>
<path d="M118.954 40.6641C122.312 40.6642 121.743 43.2999 120.554 43.2999H109.191C108.004 43.2967 107.439 40.6641 110.796 40.6641H118.954Z" fill="#D86E1C"/>
<path d="M118.954 40.6641C122.312 40.6642 121.743 43.2999 120.554 43.2999H109.191C108.004 43.2967 107.439 40.6641 110.796 40.6641H118.954Z" fill="url(#paint79_linear_10326_34217)"/>
<path d="M116.719 29.4935C116.719 30.5127 115.893 30.7068 114.874 30.7068C113.855 30.7068 113.029 30.5127 113.029 29.4935C113.029 28.4743 113.855 26.7728 114.874 26.7728C115.893 26.7728 116.719 28.4743 116.719 29.4935Z" fill="#D97021"/>
<path d="M116.719 29.4935C116.719 30.5127 115.893 30.7068 114.874 30.7068C113.855 30.7068 113.029 30.5127 113.029 29.4935C113.029 28.4743 113.855 26.7728 114.874 26.7728C115.893 26.7728 116.719 28.4743 116.719 29.4935Z" fill="url(#paint80_linear_10326_34217)"/>
<path d="M116.719 29.4935C116.719 30.5127 115.893 30.7068 114.874 30.7068C113.855 30.7068 113.029 30.5127 113.029 29.4935C113.029 28.4743 113.855 26.7728 114.874 26.7728C115.893 26.7728 116.719 28.4743 116.719 29.4935Z" fill="url(#paint81_radial_10326_34217)"/>
<path d="M114.874 46.1471L115.725 47.6568L117.424 47.9995L116.251 49.2754L116.45 50.9969L114.874 50.2757L113.298 50.9969L113.497 49.2754L112.324 47.9995L114.023 47.6568L114.874 46.1471Z" fill="url(#paint82_radial_10326_34217)"/>
<path d="M114.874 35.2188L115.483 36.2988L116.698 36.544L115.859 37.4566L116.001 38.6882L114.874 38.1722L113.747 38.6882L113.889 37.4566L113.05 36.544L114.265 36.2988L114.874 35.2188Z" fill="url(#paint83_radial_10326_34217)"/>
<path d="M108.266 35.2188L108.584 36.2988L109.218 36.544L108.78 37.4566L108.854 38.6882L108.266 38.1722L107.678 38.6882L107.752 37.4566L107.314 36.544L107.949 36.2988L108.266 35.2188Z" fill="url(#paint84_radial_10326_34217)"/>
<path d="M121.176 35.2188L121.494 36.2988L122.128 36.544L121.69 37.4566L121.764 38.6882L121.176 38.1722L120.588 38.6882L120.662 37.4566L120.224 36.544L120.858 36.2988L121.176 35.2188Z" fill="url(#paint85_radial_10326_34217)"/>
<path d="M110.389 51.1084L111.24 52.6181L112.939 52.9609L111.766 54.2367L111.965 55.9582L110.389 55.237L108.813 55.9582L109.012 54.2367L107.84 52.9609L109.538 52.6181L110.389 51.1084Z" fill="url(#paint86_radial_10326_34217)"/>
<path d="M119.496 51.1084L120.347 52.6181L122.046 52.9609L120.873 54.2367L121.072 55.9582L119.496 55.237L117.92 55.9582L118.119 54.2367L116.946 52.9609L118.645 52.6181L119.496 51.1084Z" fill="url(#paint87_radial_10326_34217)"/>
<path d="M102.832 51.1756L102.969 52.7558L103.84 53.3066L102.901 54.4006L102.628 56.1041L101.911 55.2001L100.872 55.7021L101.367 54.0493L100.998 52.6561L102.021 52.5387L102.832 51.1756Z" fill="url(#paint88_radial_10326_34217)"/>
<path d="M127.618 51.218L128.512 52.5278L129.541 52.5812L129.259 53.9947L129.857 55.6134L128.788 55.1772L128.129 56.1242L127.75 54.441L126.745 53.4077L127.579 52.8037L127.618 51.218Z" fill="url(#paint89_radial_10326_34217)"/>
<path d="M105.047 47.7832L105.43 48.7387L104.029 49.0767L102.812 50.2937L102.758 49.1444L101.653 48.946C102.966 48.2635 104.34 47.6153 105.543 46.9493L105.047 47.7832Z" fill="url(#paint90_radial_10326_34217)"/>
<path d="M124.376 47.04C125.547 47.6761 126.862 48.304 128.122 48.9601L127.108 49.1404L127.054 50.2942L125.837 49.0728L124.435 48.7348L124.818 47.7792L124.376 47.04Z" fill="url(#paint91_radial_10326_34217)"/>
<defs>
<radialGradient id="paint0_radial_10326_34217" cx="0" cy="0" r="1" gradientTransform="matrix(122.843 -23.2951 -20.289 -104.377 142.77 127.43)" gradientUnits="userSpaceOnUse">
<stop stop-color="#ECD56C"/>
<stop offset="0.260417" stop-color="#EB9C5A"/>
<stop offset="0.557292" stop-color="#D079CB"/>
<stop offset="0.766513" stop-color="#6862BC"/>
<stop offset="0.975" stop-color="#351E60"/>
</radialGradient>
<radialGradient id="paint1_radial_10326_34217" cx="0" cy="0" r="1" gradientTransform="matrix(-100.307 -24.7498 25.8687 -95.9686 205.957 123.569)" gradientUnits="userSpaceOnUse">
<stop stop-color="#748796"/>
<stop offset="1" stop-color="#748796" stop-opacity="0"/>
</radialGradient>
<linearGradient id="paint2_linear_10326_34217" x1="103.532" y1="57.2863" x2="151.105" y2="155.209" gradientUnits="userSpaceOnUse">
<stop stop-color="#8D7CA2"/>
<stop offset="1" stop-color="#03195A"/>
</linearGradient>
<radialGradient id="paint3_radial_10326_34217" cx="0" cy="0" r="1" gradientUnits="userSpaceOnUse" gradientTransform="translate(77.1416 99.6501) scale(140.981 27.085)">
<stop offset="0.317308" stop-color="#262626" stop-opacity="0"/>
<stop offset="1" stop-color="#262626"/>
</radialGradient>
<linearGradient id="paint4_linear_10326_34217" x1="176.552" y1="17.2581" x2="234.001" y2="89.2488" gradientUnits="userSpaceOnUse">
<stop stop-color="#FFE3AE"/>
<stop offset="1" stop-color="#FFD323"/>
</linearGradient>
<radialGradient id="paint5_radial_10326_34217" cx="0" cy="0" r="1" gradientUnits="userSpaceOnUse" gradientTransform="translate(75.857 108.431) rotate(-90) scale(13.3205 44.3177)">
<stop stop-color="#FFCD6A"/>
<stop offset="1" stop-color="#FDBB4C" stop-opacity="0"/>
</radialGradient>
<linearGradient id="paint6_linear_10326_34217" x1="67.1242" y1="97.3117" x2="56.0043" y2="112.198" gradientUnits="userSpaceOnUse">
<stop stop-color="#B6521A"/>
<stop offset="1" stop-color="#E69B53"/>
</linearGradient>
<radialGradient id="paint7_radial_10326_34217" cx="0" cy="0" r="1" gradientUnits="userSpaceOnUse" gradientTransform="translate(65.4649 105.083) scale(29.0478 5.22503)">
<stop stop-color="#FFDB9E"/>
<stop offset="1" stop-color="#D96F1F" stop-opacity="0"/>
</radialGradient>
<linearGradient id="paint8_linear_10326_34217" x1="48.0238" y1="98.0769" x2="48.0238" y2="111.409" gradientUnits="userSpaceOnUse">
<stop stop-color="#E69954"/>
<stop offset="1" stop-color="#F0BA55"/>
</linearGradient>
<radialGradient id="paint9_radial_10326_34217" cx="0" cy="0" r="1" gradientUnits="userSpaceOnUse" gradientTransform="translate(40.7221 102.98) rotate(9.85308) scale(24.3504 5.99935)">
<stop stop-color="#FFDB9E"/>
<stop offset="1" stop-color="#EEB560" stop-opacity="0"/>
</radialGradient>
<linearGradient id="paint10_linear_10326_34217" x1="81.604" y1="101.846" x2="93.326" y2="112.898" gradientUnits="userSpaceOnUse">
<stop stop-color="#894420"/>
<stop offset="1" stop-color="#D88457"/>
</linearGradient>
<radialGradient id="paint11_radial_10326_34217" cx="0" cy="0" r="1" gradientUnits="userSpaceOnUse" gradientTransform="translate(91.5923 102.98) rotate(171.637) scale(22.5732 5.56151)">
<stop stop-color="#FFDB9E"/>
<stop offset="1" stop-color="#D96F1F" stop-opacity="0"/>
</radialGradient>
<linearGradient id="paint12_linear_10326_34217" x1="52.411" y1="30.2163" x2="52.411" y2="53.149" gradientUnits="userSpaceOnUse">
<stop stop-color="#E69954"/>
<stop offset="1" stop-color="#F0BA55"/>
</linearGradient>
<linearGradient id="paint13_linear_10326_34217" x1="53.4203" y1="40.5758" x2="53.4203" y2="53.149" gradientUnits="userSpaceOnUse">
<stop stop-color="#D96F1F" stop-opacity="0"/>
<stop offset="1" stop-color="#FFDB9E"/>
</linearGradient>
<linearGradient id="paint14_linear_10326_34217" x1="78.5167" y1="30.2163" x2="93.0869" y2="55.7094" gradientUnits="userSpaceOnUse">
<stop stop-color="#894420"/>
<stop offset="1" stop-color="#D88457"/>
</linearGradient>
<linearGradient id="paint15_linear_10326_34217" x1="77.5074" y1="40.5758" x2="77.5074" y2="53.149" gradientUnits="userSpaceOnUse">
<stop stop-color="#D96F1F" stop-opacity="0"/>
<stop offset="1" stop-color="#FFDB9E"/>
</linearGradient>
<linearGradient id="paint16_linear_10326_34217" x1="65.4645" y1="30.2163" x2="58.5825" y2="53.149" gradientUnits="userSpaceOnUse">
<stop stop-color="#B6521A"/>
<stop offset="1" stop-color="#E69B53"/>
</linearGradient>
<linearGradient id="paint17_linear_10326_34217" x1="66.5418" y1="40.5758" x2="66.5418" y2="53.149" gradientUnits="userSpaceOnUse">
<stop stop-color="#D96F1F" stop-opacity="0"/>
<stop offset="1" stop-color="#FFDB9E"/>
</linearGradient>
<linearGradient id="paint18_linear_10326_34217" x1="58.2443" y1="54.6946" x2="37.9476" y2="110.341" gradientUnits="userSpaceOnUse">
<stop stop-color="#E69954"/>
<stop offset="1" stop-color="#F0BA55"/>
</linearGradient>
<linearGradient id="paint19_linear_10326_34217" x1="67.1468" y1="61.1633" x2="98.8344" y2="94.0391" gradientUnits="userSpaceOnUse">
<stop stop-color="#894420"/>
<stop offset="1" stop-color="#D88457"/>
</linearGradient>
<linearGradient id="paint20_linear_10326_34217" x1="65.4451" y1="56.4663" x2="42.3669" y2="85.129" gradientUnits="userSpaceOnUse">
<stop stop-color="#B6521A"/>
<stop offset="1" stop-color="#E69B53"/>
</linearGradient>
<radialGradient id="paint21_radial_10326_34217" cx="0" cy="0" r="1" gradientUnits="userSpaceOnUse" gradientTransform="translate(65.4447 90.2275) rotate(-90) scale(26.5433 9.69977)">
<stop offset="0.1" stop-color="#FFF8E1"/>
<stop offset="0.829412" stop-color="#FFD287"/>
</radialGradient>
<radialGradient id="paint22_radial_10326_34217" cx="0" cy="0" r="1" gradientUnits="userSpaceOnUse" gradientTransform="translate(50.8841 90.2275) rotate(-90) scale(26.5433 5.64842)">
<stop offset="0.1" stop-color="#FFF8E1"/>
<stop offset="0.829412" stop-color="#FFD287"/>
</radialGradient>
<radialGradient id="paint23_radial_10326_34217" cx="0" cy="0" r="1" gradientUnits="userSpaceOnUse" gradientTransform="translate(80.0436 90.2275) rotate(-90) scale(26.5433 5.65197)">
<stop offset="0.1" stop-color="#FFF8E1"/>
<stop offset="0.829412" stop-color="#FFD287"/>
</radialGradient>
<linearGradient id="paint24_linear_10326_34217" x1="72.6462" y1="49.7879" x2="53.3949" y2="56.7818" gradientUnits="userSpaceOnUse">
<stop stop-color="#B6521A"/>
<stop offset="1" stop-color="#E69B53"/>
</linearGradient>
<linearGradient id="paint25_linear_10326_34217" x1="67.3309" y1="52.2965" x2="67.0143" y2="58.4627" gradientUnits="userSpaceOnUse">
<stop stop-color="#D96F1F" stop-opacity="0"/>
<stop offset="1" stop-color="#FFDB9E"/>
</linearGradient>
<linearGradient id="paint26_linear_10326_34217" x1="65.4446" y1="51.8374" x2="64.9978" y2="57.1898" gradientUnits="userSpaceOnUse">
<stop stop-color="#B6521A"/>
<stop offset="1" stop-color="#E69B53"/>
</linearGradient>
<linearGradient id="paint27_linear_10326_34217" x1="66.2795" y1="52.2965" x2="66.2795" y2="58.1106" gradientUnits="userSpaceOnUse">
<stop stop-color="#D96F1F" stop-opacity="0"/>
<stop offset="1" stop-color="#FFDB9E"/>
</linearGradient>
<linearGradient id="paint28_linear_10326_34217" x1="59.7318" y1="12.5481" x2="59.7318" y2="28.1082" gradientUnits="userSpaceOnUse">
<stop stop-color="#E69954"/>
<stop offset="1" stop-color="#F0BA55"/>
</linearGradient>
<linearGradient id="paint29_linear_10326_34217" x1="71.196" y1="12.5481" x2="87.3226" y2="25.3469" gradientUnits="userSpaceOnUse">
<stop stop-color="#894420"/>
<stop offset="1" stop-color="#D88457"/>
</linearGradient>
<linearGradient id="paint30_linear_10326_34217" x1="65.4646" y1="12.5481" x2="58.7881" y2="26.2496" gradientUnits="userSpaceOnUse">
<stop stop-color="#B6521A"/>
<stop offset="1" stop-color="#E69B53"/>
</linearGradient>
<linearGradient id="paint31_linear_10326_34217" x1="66.2187" y1="27.1093" x2="66.2187" y2="31.3705" gradientUnits="userSpaceOnUse">
<stop stop-color="#D96F1F" stop-opacity="0"/>
<stop offset="1" stop-color="#FFDB9E"/>
</linearGradient>
<linearGradient id="paint32_linear_10326_34217" x1="65.7006" y1="7.3848" x2="61.9788" y2="8.9906" gradientUnits="userSpaceOnUse">
<stop stop-color="#B6521A"/>
<stop offset="1" stop-color="#E69B53"/>
</linearGradient>
<radialGradient id="paint33_radial_10326_34217" cx="0" cy="0" r="1" gradientUnits="userSpaceOnUse" gradientTransform="translate(64.7295 11.6652) rotate(-9.93009) scale(4.93936 4.93936)">
<stop stop-color="#FFDB9E"/>
<stop offset="1" stop-color="#D96F1F" stop-opacity="0"/>
</radialGradient>
<radialGradient id="paint34_radial_10326_34217" cx="0" cy="0" r="1" gradientUnits="userSpaceOnUse" gradientTransform="translate(65.4649 40.2992) rotate(-90) scale(5.25819 5.81737)">
<stop offset="0.1" stop-color="#FFF8E1"/>
<stop offset="0.829412" stop-color="#FFD287"/>
</radialGradient>
<radialGradient id="paint35_radial_10326_34217" cx="0" cy="0" r="1" gradientUnits="userSpaceOnUse" gradientTransform="translate(65.4654 23.5701) rotate(-90) scale(3.76159 4.16162)">
<stop offset="0.1" stop-color="#FFF8E1"/>
<stop offset="0.829412" stop-color="#FFD287"/>
</radialGradient>
<radialGradient id="paint36_radial_10326_34217" cx="0" cy="0" r="1" gradientUnits="userSpaceOnUse" gradientTransform="translate(56.381 23.5701) rotate(-90) scale(3.76159 2.17151)">
<stop offset="0.1" stop-color="#FFF8E1"/>
<stop offset="0.829412" stop-color="#FFD287"/>
</radialGradient>
<radialGradient id="paint37_radial_10326_34217" cx="0" cy="0" r="1" gradientUnits="userSpaceOnUse" gradientTransform="translate(74.1293 23.5701) rotate(-90) scale(3.76159 2.17151)">
<stop offset="0.1" stop-color="#FFF8E1"/>
<stop offset="0.829412" stop-color="#FFD287"/>
</radialGradient>
<radialGradient id="paint38_radial_10326_34217" cx="0" cy="0" r="1" gradientUnits="userSpaceOnUse" gradientTransform="translate(59.2991 47.1197) rotate(-90) scale(5.25819 5.81737)">
<stop offset="0.1" stop-color="#FFF8E1"/>
<stop offset="0.829412" stop-color="#FFD287"/>
</radialGradient>
<radialGradient id="paint39_radial_10326_34217" cx="0" cy="0" r="1" gradientUnits="userSpaceOnUse" gradientTransform="translate(71.8189 47.1197) rotate(-90) scale(5.25819 5.81737)">
<stop offset="0.1" stop-color="#FFF8E1"/>
<stop offset="0.829412" stop-color="#FFD287"/>
</radialGradient>
<radialGradient id="paint40_radial_10326_34217" cx="0" cy="0" r="1" gradientUnits="userSpaceOnUse" gradientTransform="translate(47.5733 47.0616) rotate(-77.1057) scale(5.25819 3.32574)">
<stop offset="0.1" stop-color="#FFF8E1"/>
<stop offset="0.829412" stop-color="#FFD287"/>
</radialGradient>
<radialGradient id="paint41_radial_10326_34217" cx="0" cy="0" r="1" gradientUnits="userSpaceOnUse" gradientTransform="translate(84.6826 47.0248) rotate(-106.469) scale(5.25819 3.32574)">
<stop offset="0.1" stop-color="#FFF8E1"/>
<stop offset="0.829412" stop-color="#FFD287"/>
</radialGradient>
<radialGradient id="paint42_radial_10326_34217" cx="0" cy="0" r="1" gradientUnits="userSpaceOnUse" gradientTransform="translate(48.5726 38.6357) rotate(-41.2731) scale(5.25819 3.32574)">
<stop offset="0.1" stop-color="#FFF8E1"/>
<stop offset="0.829412" stop-color="#FFD287"/>
</radialGradient>
<radialGradient id="paint43_radial_10326_34217" cx="0" cy="0" r="1" gradientUnits="userSpaceOnUse" gradientTransform="translate(82.5174 38.6357) rotate(-138.727) scale(5.25819 3.32574)">
<stop offset="0.1" stop-color="#FFF8E1"/>
<stop offset="0.829412" stop-color="#FFD287"/>
</radialGradient>
<radialGradient id="paint44_radial_10326_34217" cx="0" cy="0" r="1" gradientUnits="userSpaceOnUse" gradientTransform="translate(124.937 102.011) rotate(-90) scale(11.6412 38.7276)">
<stop stop-color="#FFCD6A"/>
<stop offset="1" stop-color="#FDBB4C" stop-opacity="0"/>
</radialGradient>
<radialGradient id="paint45_radial_10326_34217" cx="0" cy="0" r="1" gradientUnits="userSpaceOnUse" gradientTransform="translate(122.857 17.2621) rotate(-90) scale(4.81088)">
<stop offset="0.206731" stop-color="#FFCD6A"/>
<stop offset="0.509615" stop-color="#FEC055" stop-opacity="0.29697"/>
<stop offset="1" stop-color="#FDBB4C" stop-opacity="0"/>
</radialGradient>
<radialGradient id="paint46_radial_10326_34217" cx="0" cy="0" r="1" gradientUnits="userSpaceOnUse" gradientTransform="translate(162.888 29.5002) rotate(-90) scale(4.81088)">
<stop offset="0.206731" stop-color="#FFCD6A"/>
<stop offset="0.509615" stop-color="#FEC055" stop-opacity="0.29697"/>
<stop offset="1" stop-color="#FDBB4C" stop-opacity="0"/>
</radialGradient>
<radialGradient id="paint47_radial_10326_34217" cx="0" cy="0" r="1" gradientUnits="userSpaceOnUse" gradientTransform="translate(146.36 73.7949) rotate(-90) scale(4.81088)">
<stop offset="0.206731" stop-color="#FFCD6A"/>
<stop offset="0.509615" stop-color="#FEC055" stop-opacity="0.29697"/>
<stop offset="1" stop-color="#FDBB4C" stop-opacity="0"/>
</radialGradient>
<radialGradient id="paint48_radial_10326_34217" cx="0" cy="0" r="1" gradientUnits="userSpaceOnUse" gradientTransform="translate(204.106 17.359) rotate(-90) scale(4.81088)">
<stop offset="0.206731" stop-color="#FFCD6A"/>
<stop offset="0.509615" stop-color="#FEC055" stop-opacity="0.29697"/>
<stop offset="1" stop-color="#FDBB4C" stop-opacity="0"/>
</radialGradient>
<radialGradient id="paint49_radial_10326_34217" cx="0" cy="0" r="1" gradientUnits="userSpaceOnUse" gradientTransform="translate(221.331 61.2772) rotate(-90) scale(4.81088)">
<stop offset="0.206731" stop-color="#FFCD6A"/>
<stop offset="0.509615" stop-color="#FEC055" stop-opacity="0.29697"/>
<stop offset="1" stop-color="#FDBB4C" stop-opacity="0"/>
</radialGradient>
<radialGradient id="paint50_radial_10326_34217" cx="0" cy="0" r="1" gradientUnits="userSpaceOnUse" gradientTransform="translate(94.315 34.243) rotate(-90) scale(4.81088)">
<stop offset="0.206731" stop-color="#FFCD6A"/>
<stop offset="0.509615" stop-color="#FEC055" stop-opacity="0.29697"/>
<stop offset="1" stop-color="#FDBB4C" stop-opacity="0"/>
</radialGradient>
<radialGradient id="paint51_radial_10326_34217" cx="0" cy="0" r="1" gradientUnits="userSpaceOnUse" gradientTransform="translate(21.1573 78.6052) rotate(-90) scale(4.81088)">
<stop offset="0.206731" stop-color="#FFCD6A"/>
<stop offset="0.509615" stop-color="#FEC055" stop-opacity="0.29697"/>
<stop offset="1" stop-color="#FDBB4C" stop-opacity="0"/>
</radialGradient>
<radialGradient id="paint52_radial_10326_34217" cx="0" cy="0" r="1" gradientUnits="userSpaceOnUse" gradientTransform="translate(36.3495 70.3272) rotate(-90) scale(6.15347)">
<stop offset="0.206731" stop-color="#FFCD6A"/>
<stop offset="0.509615" stop-color="#FEC055" stop-opacity="0.29697"/>
<stop offset="1" stop-color="#FDBB4C" stop-opacity="0"/>
</radialGradient>
<radialGradient id="paint53_radial_10326_34217" cx="0" cy="0" r="1" gradientUnits="userSpaceOnUse" gradientTransform="translate(135.358 35.7686) rotate(-90) scale(9.04879)">
<stop offset="0.206731" stop-color="#FFCD6A"/>
<stop offset="0.509615" stop-color="#FEC055" stop-opacity="0.29697"/>
<stop offset="1" stop-color="#FDBB4C" stop-opacity="0"/>
</radialGradient>
<linearGradient id="paint54_linear_10326_34217" x1="116.08" y1="91.9716" x2="107.988" y2="102.8" gradientUnits="userSpaceOnUse">
<stop stop-color="#B6521A"/>
<stop offset="1" stop-color="#E69B53"/>
</linearGradient>
<radialGradient id="paint55_radial_10326_34217" cx="0" cy="0" r="1" gradientUnits="userSpaceOnUse" gradientTransform="translate(114.873 97.6262) scale(21.1274 3.80168)">
<stop stop-color="#FFDB9E"/>
<stop offset="1" stop-color="#D96F1F" stop-opacity="0"/>
</radialGradient>
<linearGradient id="paint56_linear_10326_34217" x1="102.188" y1="92.528" x2="102.188" y2="102.226" gradientUnits="userSpaceOnUse">
<stop stop-color="#E69954"/>
<stop offset="1" stop-color="#F0BA55"/>
</linearGradient>
<radialGradient id="paint57_radial_10326_34217" cx="0" cy="0" r="1" gradientUnits="userSpaceOnUse" gradientTransform="translate(96.8771 96.0946) rotate(9.85308) scale(17.7116 4.36371)">
<stop stop-color="#FFDB9E"/>
<stop offset="1" stop-color="#EEB560" stop-opacity="0"/>
</radialGradient>
<linearGradient id="paint58_linear_10326_34217" x1="126.613" y1="95.2691" x2="135.139" y2="103.308" gradientUnits="userSpaceOnUse">
<stop stop-color="#894420"/>
<stop offset="1" stop-color="#D88457"/>
</linearGradient>
<radialGradient id="paint59_radial_10326_34217" cx="0" cy="0" r="1" gradientUnits="userSpaceOnUse" gradientTransform="translate(133.878 96.0946) rotate(171.637) scale(16.419 4.04524)">
<stop stop-color="#FFDB9E"/>
<stop offset="1" stop-color="#D96F1F" stop-opacity="0"/>
</radialGradient>
<linearGradient id="paint60_linear_10326_34217" x1="105.379" y1="43.1689" x2="105.379" y2="59.8494" gradientUnits="userSpaceOnUse">
<stop stop-color="#E69954"/>
<stop offset="1" stop-color="#F0BA55"/>
</linearGradient>
<linearGradient id="paint61_linear_10326_34217" x1="106.113" y1="50.704" x2="106.113" y2="59.8494" gradientUnits="userSpaceOnUse">
<stop stop-color="#D96F1F" stop-opacity="0"/>
<stop offset="1" stop-color="#FFDB9E"/>
</linearGradient>
<linearGradient id="paint62_linear_10326_34217" x1="124.367" y1="43.1689" x2="134.965" y2="61.7117" gradientUnits="userSpaceOnUse">
<stop stop-color="#894420"/>
<stop offset="1" stop-color="#D88457"/>
</linearGradient>
<linearGradient id="paint63_linear_10326_34217" x1="123.633" y1="50.704" x2="123.633" y2="59.8494" gradientUnits="userSpaceOnUse">
<stop stop-color="#D96F1F" stop-opacity="0"/>
<stop offset="1" stop-color="#FFDB9E"/>
</linearGradient>
<linearGradient id="paint64_linear_10326_34217" x1="114.873" y1="43.1689" x2="109.867" y2="59.8503" gradientUnits="userSpaceOnUse">
<stop stop-color="#B6521A"/>
<stop offset="1" stop-color="#E69B53"/>
</linearGradient>
<linearGradient id="paint65_linear_10326_34217" x1="115.656" y1="50.7044" x2="115.656" y2="59.8501" gradientUnits="userSpaceOnUse">
<stop stop-color="#D96F1F" stop-opacity="0"/>
<stop offset="1" stop-color="#FFDB9E"/>
</linearGradient>
<linearGradient id="paint66_linear_10326_34217" x1="109.622" y1="60.9734" x2="94.8585" y2="101.449" gradientUnits="userSpaceOnUse">
<stop stop-color="#E69954"/>
<stop offset="1" stop-color="#F0BA55"/>
</linearGradient>
<linearGradient id="paint67_linear_10326_34217" x1="116.097" y1="65.6785" x2="139.146" y2="89.5912" gradientUnits="userSpaceOnUse">
<stop stop-color="#894420"/>
<stop offset="1" stop-color="#D88457"/>
</linearGradient>
<linearGradient id="paint68_linear_10326_34217" x1="114.86" y1="62.2621" x2="98.0735" y2="83.1103" gradientUnits="userSpaceOnUse">
<stop stop-color="#B6521A"/>
<stop offset="1" stop-color="#E69B53"/>
</linearGradient>
<radialGradient id="paint69_radial_10326_34217" cx="0" cy="0" r="1" gradientUnits="userSpaceOnUse" gradientTransform="translate(114.858 86.8182) rotate(-90) scale(19.3063 7.0534)">
<stop offset="0.1" stop-color="#FFF8E1"/>
<stop offset="0.829412" stop-color="#FFD287"/>
</radialGradient>
<radialGradient id="paint70_radial_10326_34217" cx="0" cy="0" r="1" gradientUnits="userSpaceOnUse" gradientTransform="translate(104.269 86.8186) rotate(-90) scale(19.3067 4.10845)">
<stop offset="0.1" stop-color="#FFF8E1"/>
<stop offset="0.829412" stop-color="#FFD287"/>
</radialGradient>
<radialGradient id="paint71_radial_10326_34217" cx="0" cy="0" r="1" gradientUnits="userSpaceOnUse" gradientTransform="translate(125.48 86.8186) rotate(-90) scale(19.3067 4.10845)">
<stop offset="0.1" stop-color="#FFF8E1"/>
<stop offset="0.829412" stop-color="#FFD287"/>
</radialGradient>
<linearGradient id="paint72_linear_10326_34217" x1="120.096" y1="57.4042" x2="106.094" y2="62.4904" gradientUnits="userSpaceOnUse">
<stop stop-color="#B6521A"/>
<stop offset="1" stop-color="#E69B53"/>
</linearGradient>
<linearGradient id="paint73_linear_10326_34217" x1="116.23" y1="59.2291" x2="116" y2="63.7146" gradientUnits="userSpaceOnUse">
<stop stop-color="#D96F1F" stop-opacity="0"/>
<stop offset="1" stop-color="#FFDB9E"/>
</linearGradient>
<linearGradient id="paint74_linear_10326_34217" x1="114.859" y1="58.8951" x2="114.534" y2="62.7883" gradientUnits="userSpaceOnUse">
<stop stop-color="#B6521A"/>
<stop offset="1" stop-color="#E69B53"/>
</linearGradient>
<linearGradient id="paint75_linear_10326_34217" x1="115.467" y1="59.2291" x2="115.467" y2="63.4581" gradientUnits="userSpaceOnUse">
<stop stop-color="#D96F1F" stop-opacity="0"/>
<stop offset="1" stop-color="#FFDB9E"/>
</linearGradient>
<linearGradient id="paint76_linear_10326_34217" x1="110.704" y1="30.3177" x2="110.704" y2="41.6356" gradientUnits="userSpaceOnUse">
<stop stop-color="#E69954"/>
<stop offset="1" stop-color="#F0BA55"/>
</linearGradient>
<linearGradient id="paint77_linear_10326_34217" x1="119.042" y1="30.3177" x2="130.772" y2="39.6272" gradientUnits="userSpaceOnUse">
<stop stop-color="#894420"/>
<stop offset="1" stop-color="#D88457"/>
</linearGradient>
<linearGradient id="paint78_linear_10326_34217" x1="114.874" y1="30.3177" x2="110.018" y2="40.2815" gradientUnits="userSpaceOnUse">
<stop stop-color="#B6521A"/>
<stop offset="1" stop-color="#E69B53"/>
</linearGradient>
<linearGradient id="paint79_linear_10326_34217" x1="115.422" y1="40.9088" x2="115.422" y2="44.0083" gradientUnits="userSpaceOnUse">
<stop stop-color="#D96F1F" stop-opacity="0"/>
<stop offset="1" stop-color="#FFDB9E"/>
</linearGradient>
<linearGradient id="paint80_linear_10326_34217" x1="115.046" y1="26.562" x2="112.339" y2="27.73" gradientUnits="userSpaceOnUse">
<stop stop-color="#B6521A"/>
<stop offset="1" stop-color="#E69B53"/>
</linearGradient>
<radialGradient id="paint81_radial_10326_34217" cx="0" cy="0" r="1" gradientUnits="userSpaceOnUse" gradientTransform="translate(114.339 29.6754) rotate(-9.93009) scale(3.59271 3.59271)">
<stop stop-color="#FFDB9E"/>
<stop offset="1" stop-color="#D96F1F" stop-opacity="0"/>
</radialGradient>
<radialGradient id="paint82_radial_10326_34217" cx="0" cy="0" r="1" gradientUnits="userSpaceOnUse" gradientTransform="translate(114.874 50.5026) rotate(-90) scale(3.82462 4.23134)">
<stop offset="0.1" stop-color="#FFF8E1"/>
<stop offset="0.829412" stop-color="#FFD287"/>
</radialGradient>
<radialGradient id="paint83_radial_10326_34217" cx="0" cy="0" r="1" gradientUnits="userSpaceOnUse" gradientTransform="translate(114.874 38.3346) rotate(-90) scale(2.73605 3.02701)">
<stop offset="0.1" stop-color="#FFF8E1"/>
<stop offset="0.829412" stop-color="#FFD287"/>
</radialGradient>
<radialGradient id="paint84_radial_10326_34217" cx="0" cy="0" r="1" gradientUnits="userSpaceOnUse" gradientTransform="translate(108.266 38.3346) rotate(-90) scale(2.73605 1.57948)">
<stop offset="0.1" stop-color="#FFF8E1"/>
<stop offset="0.829412" stop-color="#FFD287"/>
</radialGradient>
<radialGradient id="paint85_radial_10326_34217" cx="0" cy="0" r="1" gradientUnits="userSpaceOnUse" gradientTransform="translate(121.176 38.3346) rotate(-90) scale(2.73605 1.57948)">
<stop offset="0.1" stop-color="#FFF8E1"/>
<stop offset="0.829412" stop-color="#FFD287"/>
</radialGradient>
<radialGradient id="paint86_radial_10326_34217" cx="0" cy="0" r="1" gradientUnits="userSpaceOnUse" gradientTransform="translate(110.389 55.4639) rotate(-90) scale(3.82462 4.23134)">
<stop offset="0.1" stop-color="#FFF8E1"/>
<stop offset="0.829412" stop-color="#FFD287"/>
</radialGradient>
<radialGradient id="paint87_radial_10326_34217" cx="0" cy="0" r="1" gradientUnits="userSpaceOnUse" gradientTransform="translate(119.496 55.4639) rotate(-90) scale(3.82462 4.23134)">
<stop offset="0.1" stop-color="#FFF8E1"/>
<stop offset="0.829412" stop-color="#FFD287"/>
</radialGradient>
<radialGradient id="paint88_radial_10326_34217" cx="0" cy="0" r="1" gradientUnits="userSpaceOnUse" gradientTransform="translate(101.86 55.4213) rotate(-77.1057) scale(3.82462 2.41902)">
<stop offset="0.1" stop-color="#FFF8E1"/>
<stop offset="0.829412" stop-color="#FFD287"/>
</radialGradient>
<radialGradient id="paint89_radial_10326_34217" cx="0" cy="0" r="1" gradientUnits="userSpaceOnUse" gradientTransform="translate(128.853 55.3948) rotate(-106.469) scale(3.82462 2.41902)">
<stop offset="0.1" stop-color="#FFF8E1"/>
<stop offset="0.829412" stop-color="#FFD287"/>
</radialGradient>
<radialGradient id="paint90_radial_10326_34217" cx="0" cy="0" r="1" gradientTransform="matrix(2.86597 -2.52817 1.59098 1.82186 102.602 49.2884)" gradientUnits="userSpaceOnUse">
<stop offset="0.1" stop-color="#FFF8E1"/>
<stop offset="0.829412" stop-color="#FFD287"/>
</radialGradient>
<radialGradient id="paint91_radial_10326_34217" cx="0" cy="0" r="1" gradientTransform="matrix(-2.86566 -2.53216 -1.59081 1.82474 127.264 49.2873)" gradientUnits="userSpaceOnUse">
<stop offset="0.1" stop-color="#FFF8E1"/>
<stop offset="0.829412" stop-color="#FFD287"/>
</radialGradient>
</defs>
</svg>
