<svg viewBox="0 0 240 120" fill="none" xmlns="http://www.w3.org/2000/svg">
<path d="M20.6624 79.6178C18.0745 75.5075 19.1401 71.245 23.2504 69.7227C45.2224 79.567 89.1055 99.7125 88.8619 101.539C88.5575 103.823 84.295 110.217 78.5103 110.825C72.7255 111.434 63.135 109.455 59.7859 100.017C41.5182 104.432 23.2504 83.7281 20.6624 79.6178Z" fill="#9C9C9C"/>
<path d="M20.6624 79.6178C18.0745 75.5075 19.1401 71.245 23.2504 69.7227C45.2224 79.567 89.1055 99.7125 88.8619 101.539C88.5575 103.823 84.295 110.217 78.5103 110.825C72.7255 111.434 63.135 109.455 59.7859 100.017C41.5182 104.432 23.2504 83.7281 20.6624 79.6178Z" fill="url(#paint0_radial_10071_511)"/>
<path d="M65.5717 63.1764C67.0433 63.9883 71.3565 64.8205 76.8369 61.6541L97.9985 75.6595C98.1507 80.0235 97.7853 90.1521 95.1061 95.7542C91.7569 102.757 83.2319 110.977 59.0269 100.473C34.8219 89.9694 21.5764 74.2895 21.4242 67.7435C21.272 61.1975 25.6877 50.5413 41.2154 49.6279C53.6376 48.8972 62.73 58.6094 65.5717 63.1764Z" fill="url(#paint1_linear_10071_511)"/>
<path d="M65.5717 63.1764C67.0433 63.9883 71.3565 64.8205 76.8369 61.6541L97.9985 75.6595C98.1507 80.0235 97.7853 90.1521 95.1061 95.7542C91.7569 102.757 83.2319 110.977 59.0269 100.473C34.8219 89.9694 21.5764 74.2895 21.4242 67.7435C21.272 61.1975 25.6877 50.5413 41.2154 49.6279C53.6376 48.8972 62.73 58.6094 65.5717 63.1764Z" fill="url(#paint2_radial_10071_511)"/>
<path d="M65.5717 63.1764C67.0433 63.9883 71.3565 64.8205 76.8369 61.6541L97.9985 75.6595C98.1507 80.0235 97.7853 90.1521 95.1061 95.7542C91.7569 102.757 83.2319 110.977 59.0269 100.473C34.8219 89.9694 21.5764 74.2895 21.4242 67.7435C21.272 61.1975 25.6877 50.5413 41.2154 49.6279C53.6376 48.8972 62.73 58.6094 65.5717 63.1764Z" fill="url(#paint3_radial_10071_511)"/>
<path d="M65.5717 63.1764C67.0433 63.9883 71.3565 64.8205 76.8369 61.6541L97.9985 75.6595C98.1507 80.0235 97.7853 90.1521 95.1061 95.7542C91.7569 102.757 83.2319 110.977 59.0269 100.473C34.8219 89.9694 21.5764 74.2895 21.4242 67.7435C21.272 61.1975 25.6877 50.5413 41.2154 49.6279C53.6376 48.8972 62.73 58.6094 65.5717 63.1764Z" fill="url(#paint4_radial_10071_511)"/>
<path d="M85.2113 55.1081C79.5803 54.3472 73.7919 59.2179 74.7062 63.7849C75.6204 68.3519 89.3214 78.247 97.0846 77.7901C104.848 77.3332 104.24 68.3517 102.566 65.155C100.892 61.9584 90.8424 55.869 85.2113 55.1081Z" fill="#C0C0C0"/>
<path d="M85.2113 55.1081C79.5803 54.3472 73.7919 59.2179 74.7062 63.7849C75.6204 68.3519 89.3214 78.247 97.0846 77.7901C104.848 77.3332 104.24 68.3517 102.566 65.155C100.892 61.9584 90.8424 55.869 85.2113 55.1081Z" fill="url(#paint5_radial_10071_511)"/>
<path d="M84.9798 57.8485C84.9798 57.8485 84.1599 62.3127 90.0035 65.9169C95.8471 69.521 99.8236 66.8303 99.8236 66.8303C99.8236 66.8303 99.8236 63.4811 93.8104 60.0559C87.7972 56.6307 84.9798 57.8485 84.9798 57.8485Z" fill="url(#paint6_radial_10071_511)"/>
<path d="M85.6665 60.3879C99.1848 38.4398 102.361 10.9843 102.26 0H120.376C116.235 31.2668 102.818 57.9867 96.6273 67.4382C92.0603 68.3578 85.6665 64.2196 85.6665 60.3879Z" fill="#6B6B6B"/>
<path d="M85.6665 60.3879C99.1848 38.4398 102.361 10.9843 102.26 0H120.376C116.235 31.2668 102.818 57.9867 96.6273 67.4382C92.0603 68.3578 85.6665 64.2196 85.6665 60.3879Z" fill="url(#paint7_radial_10071_511)"/>
<path d="M75.2186 62.4823C75.7345 67.8633 74.6554 74.4841 68.6155 75.6614C68.9113 70.3797 67.3548 66.1912 65.7715 63.262C67.2318 63.9551 70.7275 64.547 75.2186 62.4823Z" fill="url(#paint8_radial_10071_511)"/>
<path d="M176.246 57.8484C159.44 50.7097 139.71 16.3083 131.946 0H150.519C156.507 13.4877 169.152 42.7094 181.574 51.6944L176.246 57.8484Z" fill="#6B6B6B"/>
<path d="M176.246 57.8484C159.44 50.7097 139.71 16.3083 131.946 0H150.519C156.507 13.4877 169.152 42.7094 181.574 51.6944L176.246 57.8484Z" fill="url(#paint9_radial_10071_511)"/>
<path d="M194.819 52.8248C191.47 44.452 180.965 48.41 176.246 52.8248C170.537 58.1655 167.264 65.0035 176.246 69.7226L194.819 52.8248Z" fill="#C0C0C0"/>
<path d="M194.819 52.8248C191.47 44.452 180.965 48.41 176.246 52.8248C170.537 58.1655 167.264 65.0035 176.246 69.7226L194.819 52.8248Z" fill="url(#paint10_radial_10071_511)"/>
<path d="M156.911 103.367C150.213 95.4504 156.606 71.5499 172.286 73.6812C175.94 58.9144 200.297 35.3942 213.237 58.9145L170.764 111.283C168.379 111.283 162.269 109.699 156.911 103.367Z" fill="url(#paint11_linear_10071_511)"/>
<path d="M156.911 103.367C150.213 95.4504 156.606 71.5499 172.286 73.6812C175.94 58.9144 200.297 35.3942 213.237 58.9145L170.764 111.283C168.379 111.283 162.269 109.699 156.911 103.367Z" fill="url(#paint12_radial_10071_511)"/>
<path d="M156.911 103.367C150.213 95.4504 156.606 71.5499 172.286 73.6812C175.94 58.9144 200.297 35.3942 213.237 58.9145L170.764 111.283C168.379 111.283 162.269 109.699 156.911 103.367Z" fill="url(#paint13_radial_10071_511)"/>
<path d="M156.911 103.367C150.213 95.4504 156.606 71.5499 172.286 73.6812C175.94 58.9144 200.297 35.3942 213.237 58.9145L170.764 111.283C168.379 111.283 162.269 109.699 156.911 103.367Z" fill="url(#paint14_radial_10071_511)"/>
<path d="M218.643 61.9206C217.729 58.4954 212.896 53.2055 204.904 54.8039C196.912 56.4022 191.239 63.1385 188.881 69.7225C180.033 94.4224 152.647 91.9485 159.804 107.781C185.988 112.652 208.169 60.5201 218.643 61.9206Z" fill="url(#paint15_linear_10071_511)"/>
<path d="M161.021 101.844C164.827 94.8412 178.224 96.3635 189.489 76.2688C197.283 76.2688 208.467 80.6328 213.085 82.8148C211.207 85.2505 205.565 89.7871 204.712 96.3635C203.646 104.584 198.318 112.5 181.573 112.5C159.043 112.5 157.215 108.847 161.021 101.844Z" fill="url(#paint16_linear_10071_511)"/>
<path d="M161.021 101.844C164.827 94.8412 178.224 96.3635 189.489 76.2688C197.283 76.2688 208.467 80.6328 213.085 82.8148C211.207 85.2505 205.565 89.7871 204.712 96.3635C203.646 104.584 198.318 112.5 181.573 112.5C159.043 112.5 157.215 108.847 161.021 101.844Z" fill="url(#paint17_linear_10071_511)"/>
<path d="M161.021 101.844C164.827 94.8412 178.224 96.3635 189.489 76.2688C197.283 76.2688 208.467 80.6328 213.085 82.8148C211.207 85.2505 205.565 89.7871 204.712 96.3635C203.646 104.584 198.318 112.5 181.573 112.5C159.043 112.5 157.215 108.847 161.021 101.844Z" fill="url(#paint18_radial_10071_511)"/>
<path d="M172.814 71.9368C171.91 74.7709 170.975 78.2333 170.457 81.7309C165.901 81.7309 165.504 78.0668 166.508 74.1092C168.262 73.5653 170.188 73.3784 172.282 73.663C172.422 73.0965 172.605 72.521 172.814 71.9368Z" fill="url(#paint19_radial_10071_511)"/>
<path d="M213.161 57.3539C224.884 60.9317 218.413 79.1614 212.628 84.1851C208.417 80.7493 195.552 78.0832 188.728 76.9542C191.164 70.332 200.87 53.6025 213.161 57.3539Z" fill="url(#paint20_linear_10071_511)"/>
<path d="M213.161 57.3539C224.884 60.9317 218.413 79.1614 212.628 84.1851C208.417 80.7493 195.552 78.0832 188.728 76.9542C191.164 70.332 200.87 53.6025 213.161 57.3539Z" fill="url(#paint21_radial_10071_511)"/>
<defs>
<radialGradient id="paint0_radial_10071_511" cx="0" cy="0" r="1" gradientUnits="userSpaceOnUse" gradientTransform="translate(58.2642 85.2504) rotate(29.3448) scale(52.3925 21.8106)">
<stop offset="0.560971" stop-color="#464646"/>
<stop offset="0.865487" stop-color="#757575" stop-opacity="0"/>
</radialGradient>
<linearGradient id="paint1_linear_10071_511" x1="59.7241" y1="49.5889" x2="144.429" y2="162.28" gradientUnits="userSpaceOnUse">
<stop stop-color="#C0C0C0"/>
<stop offset="1" stop-color="#5A5A5A"/>
</linearGradient>
<radialGradient id="paint2_radial_10071_511" cx="0" cy="0" r="1" gradientUnits="userSpaceOnUse" gradientTransform="translate(41.8244 61.1975) rotate(36.6936) scale(27.3389 17.4572)">
<stop stop-color="#EFEFEF"/>
<stop offset="1" stop-color="#EFEFEF" stop-opacity="0"/>
</radialGradient>
<radialGradient id="paint3_radial_10071_511" cx="0" cy="0" r="1" gradientUnits="userSpaceOnUse" gradientTransform="translate(100.586 65.1556) rotate(51.4188) scale(34.6636 27.4139)">
<stop offset="0.551227" stop-color="#464646"/>
<stop offset="0.870776" stop-color="#757575" stop-opacity="0"/>
</radialGradient>
<radialGradient id="paint4_radial_10071_511" cx="0" cy="0" r="1" gradientUnits="userSpaceOnUse" gradientTransform="translate(55.2208 67.2868) rotate(56.8578) scale(61.8155 54.9111)">
<stop offset="0.688848" stop-color="#EFEFEF" stop-opacity="0"/>
<stop offset="0.841346" stop-color="#EFEFEF"/>
</radialGradient>
<radialGradient id="paint5_radial_10071_511" cx="0" cy="0" r="1" gradientUnits="userSpaceOnUse" gradientTransform="translate(89.1145 60.2841) rotate(27.1483) scale(26.5876 19.6907)">
<stop offset="0.517144" stop-color="#757575" stop-opacity="0"/>
<stop offset="1" stop-color="#464646"/>
</radialGradient>
<radialGradient id="paint6_radial_10071_511" cx="0" cy="0" r="1" gradientUnits="userSpaceOnUse" gradientTransform="translate(89.624 65.4603) rotate(26.8619) scale(13.1397 10.0221)">
<stop offset="0.232853" stop-color="#666666"/>
<stop offset="1" stop-color="#666666" stop-opacity="0"/>
</radialGradient>
<radialGradient id="paint7_radial_10071_511" cx="0" cy="0" r="1" gradientUnits="userSpaceOnUse" gradientTransform="translate(93.2781 19.1813) rotate(103.969) scale(63.0626 18.0882)">
<stop stop-color="#E0E0E0"/>
<stop offset="1" stop-color="#E0E0E0" stop-opacity="0"/>
</radialGradient>
<radialGradient id="paint8_radial_10071_511" cx="0" cy="0" r="1" gradientTransform="matrix(4.00958 11.8755 -6.15405 2.0767 65.5716 63.7859)" gradientUnits="userSpaceOnUse">
<stop offset="0.232853" stop-color="#666666"/>
<stop offset="1" stop-color="#666666" stop-opacity="0"/>
</radialGradient>
<radialGradient id="paint9_radial_10071_511" cx="0" cy="0" r="1" gradientTransform="matrix(33.4912 59.387 -19.885 11.454 161.175 16.0006)" gradientUnits="userSpaceOnUse">
<stop offset="0.443211" stop-color="#E0E0E0" stop-opacity="0"/>
<stop offset="1" stop-color="#E0E0E0"/>
</radialGradient>
<radialGradient id="paint10_radial_10071_511" cx="0" cy="0" r="1" gradientUnits="userSpaceOnUse" gradientTransform="translate(191.621 64.2424) rotate(-39.1304) scale(23.1574 17.5956)">
<stop offset="0.551227" stop-color="#464646"/>
<stop offset="0.870776" stop-color="#757575" stop-opacity="0"/>
</radialGradient>
<linearGradient id="paint11_linear_10071_511" x1="183.755" y1="49.7119" x2="286.613" y2="87.2295" gradientUnits="userSpaceOnUse">
<stop stop-color="#C0C0C0"/>
<stop offset="1" stop-color="#5A5A5A"/>
</linearGradient>
<radialGradient id="paint12_radial_10071_511" cx="0" cy="0" r="1" gradientUnits="userSpaceOnUse" gradientTransform="translate(155.845 79.6179) rotate(-28.0725) scale(25.8796 18.2576)">
<stop stop-color="#EFEFEF"/>
<stop offset="1" stop-color="#EFEFEF" stop-opacity="0"/>
</radialGradient>
<radialGradient id="paint13_radial_10071_511" cx="0" cy="0" r="1" gradientUnits="userSpaceOnUse" gradientTransform="translate(165.588 78.4) rotate(-47.2498) scale(60.3276 24.9564)">
<stop offset="0.517144" stop-color="#757575" stop-opacity="0"/>
<stop offset="1" stop-color="#464646"/>
</radialGradient>
<radialGradient id="paint14_radial_10071_511" cx="0" cy="0" r="1" gradientUnits="userSpaceOnUse" gradientTransform="translate(163.914 82.0536) rotate(-31.7649) scale(65.354 29.6781)">
<stop offset="0.713562" stop-color="#EFEFEF" stop-opacity="0"/>
<stop offset="0.841346" stop-color="#EFEFEF"/>
</radialGradient>
<linearGradient id="paint15_linear_10071_511" x1="200.095" y1="54.5103" x2="237.9" y2="73.2239" gradientUnits="userSpaceOnUse">
<stop stop-color="#CCCCCC"/>
<stop offset="1" stop-color="#363636"/>
</linearGradient>
<linearGradient id="paint16_linear_10071_511" x1="186.35" y1="76.2688" x2="211.41" y2="133.965" gradientUnits="userSpaceOnUse">
<stop stop-color="#9C9C9C"/>
<stop offset="1" stop-color="#363636"/>
</linearGradient>
<linearGradient id="paint17_linear_10071_511" x1="197.557" y1="100.626" x2="210.497" y2="72.1585" gradientUnits="userSpaceOnUse">
<stop stop-color="#4A4A4A" stop-opacity="0"/>
<stop offset="1" stop-color="#4A4A4A"/>
</linearGradient>
<radialGradient id="paint18_radial_10071_511" cx="0" cy="0" r="1" gradientUnits="userSpaceOnUse" gradientTransform="translate(175.027 79.6179) rotate(89.5032) scale(52.6745 52.8012)">
<stop offset="0.688848" stop-color="#EFEFEF" stop-opacity="0"/>
<stop offset="0.841346" stop-color="#EFEFEF"/>
</radialGradient>
<radialGradient id="paint19_radial_10071_511" cx="0" cy="0" r="1" gradientTransform="matrix(-4.4751 8.96012 -4.20353 -2.10566 173.924 72.7708)" gradientUnits="userSpaceOnUse">
<stop offset="0.232853" stop-color="#666666"/>
<stop offset="1" stop-color="#666666" stop-opacity="0"/>
</radialGradient>
<linearGradient id="paint20_linear_10071_511" x1="204.217" y1="56.8123" x2="250.23" y2="118.742" gradientUnits="userSpaceOnUse">
<stop stop-color="#9C9C9C"/>
<stop offset="1" stop-color="#363636"/>
</linearGradient>
<radialGradient id="paint21_radial_10071_511" cx="0" cy="0" r="1" gradientUnits="userSpaceOnUse" gradientTransform="translate(198.319 70.4987) rotate(44.467) scale(29.9694 32.9613)">
<stop offset="0.604646" stop-color="#EFEFEF" stop-opacity="0"/>
<stop offset="0.841346" stop-color="#EFEFEF"/>
</radialGradient>
</defs>
</svg>
