<svg viewBox="0 0 240 120" fill="none" xmlns="http://www.w3.org/2000/svg">
<path d="M51.5147 6.56753C12.9815 15.9878 3.08063 42.8213 23.0773 55.0961C70.4657 52.6221 186.39 30.0896 216.635 19.1278C209.761 -4.8509 90.0478 -2.85278 51.5147 6.56753Z" fill="url(#paint0_radial_10706_36181)"/>
<path d="M63.4927 15.9195C67.8059 15.9206 71.3031 19.4172 71.3037 23.7305C71.3037 24.0352 71.279 24.3363 71.2451 24.6319C71.3852 24.6226 71.5263 24.6139 71.6688 24.6139C73.8856 24.6139 75.8302 25.7605 76.9557 27.4895C78.4865 25.4984 80.8892 24.2132 83.5948 24.2127C87.0719 24.2127 90.0493 26.3338 91.3156 29.3509C91.8066 29.1862 92.3332 29.094 92.8796 29.094C95.5894 29.0949 97.7871 31.2926 97.788 34.0024C97.788 36.7129 95.59 38.9098 92.8796 38.9107C91.8028 38.9107 90.8089 38.5612 89.9995 37.9732C88.4633 39.7978 86.1667 40.9615 83.5948 40.9615C83.4327 40.9615 83.2724 40.9436 83.1125 40.9344C83.1133 40.981 83.1216 41.0275 83.1216 41.0742C83.1216 45.6992 79.3721 49.448 74.7472 49.4485C71.4125 49.4485 68.5404 47.4964 67.1931 44.6754C65.5834 45.6294 63.7102 46.1898 61.7034 46.1898C60.0088 46.1896 58.4113 45.7862 56.9843 45.0901C55.1621 46.4947 52.887 47.3392 50.4083 47.3392C44.4467 47.3392 39.6136 42.506 39.6136 36.5444C39.6138 35.4908 39.7691 34.4737 40.0508 33.5111C39.9073 33.5244 39.7605 33.5381 39.6136 33.5381C37.0395 33.5371 34.9531 31.4475 34.9531 28.8732C34.9538 26.4545 36.7959 24.4623 39.1538 24.2308C39.24 20.5854 42.2172 17.6557 45.8831 17.6548C49.232 17.6548 52.0001 20.1009 52.5222 23.3023C53.1586 22.9032 53.9106 22.6713 54.7172 22.6713C55.0691 22.6713 55.4096 22.7193 55.7358 22.802C56.1955 18.9258 59.4929 15.9195 63.4927 15.9195Z" fill="url(#paint1_radial_10706_36181)"/>
<path d="M148.731 6.9231C155.531 6.9231 161.198 11.7737 162.46 18.2044C163.206 17.9326 164.012 17.7808 164.853 17.7808C166.438 17.7811 167.899 18.3112 169.072 19.2005C170.619 15.5532 174.235 12.995 178.447 12.9942C184.069 12.9942 188.628 17.5539 188.628 23.1758C188.627 28.797 184.068 33.3529 178.447 33.3529C176.865 33.3526 175.374 32.9823 174.039 32.3388C173.778 37.728 169.342 42.0197 163.888 42.0201C158.973 42.0201 154.868 38.5357 153.914 33.9028C152.31 34.543 150.563 34.9078 148.731 34.9078C146.788 34.9076 144.936 34.5107 143.255 33.7946C141.863 36.3493 139.157 38.0846 136.043 38.0854C134.62 38.0854 133.28 37.7218 132.113 37.0848C131.227 38.88 129.387 40.1179 127.25 40.1181C124.25 40.1181 121.818 37.6862 121.818 34.687C121.819 31.6888 124.251 29.2604 127.25 29.2604C127.454 29.2604 127.655 29.27 127.853 29.292C128.122 25.4533 131.024 22.3483 134.767 21.7651C134.751 21.4834 134.74 21.1991 134.74 20.9132C134.741 13.1864 141.004 6.9241 148.731 6.9231Z" fill="url(#paint2_radial_10706_36181)"/>
<path d="M100.122 34.2629L214.059 34.2198V119.999H51.2823C39.585 117.482 13.7797 100.251 13.2668 86.3114C12.7539 72.3716 23.162 71.6265 29.7877 65.692C36.4134 59.7576 15.1425 60.0306 17.8418 54.3659C20.5412 48.7012 34.7812 47.2002 38.5675 44.9891C42.4031 42.7492 35.132 43.3706 35.6228 40.4034C36.1052 37.4868 87.0944 35.1212 100.122 34.2629Z" fill="url(#paint3_radial_10706_36181)"/>
<path d="M100.122 34.2629L214.059 34.2198V119.999H51.2823C39.585 117.482 13.7797 100.251 13.2668 86.3114C12.7539 72.3716 23.162 71.6265 29.7877 65.692C36.4134 59.7576 15.1425 60.0306 17.8418 54.3659C20.5412 48.7012 34.7812 47.2002 38.5675 44.9891C42.4031 42.7492 35.132 43.3706 35.6228 40.4034C36.1052 37.4868 87.0944 35.1212 100.122 34.2629Z" fill="url(#paint4_radial_10706_36181)"/>
<path d="M124.5 64.8898C117.505 64.0631 127.385 61.4454 122.193 60.7565C121.423 59.6084 117.548 57.3948 108.202 57.7255C96.5198 58.1388 57.7216 99.3335 78.3465 120H109.789C124.645 117.933 128.827 108.427 116.423 107.393C104.019 106.36 110.438 102.985 120.606 100.918C130.774 98.8513 135.245 91.4804 126.736 90.516C118.226 89.5515 114.404 85.0739 126.087 82.7317C137.769 80.3895 134.091 75.9118 126.087 74.3963C118.082 72.8808 121.255 70.1252 126.736 68.7476C132.216 67.3699 131.495 65.7165 124.5 64.8898Z" fill="url(#paint5_radial_10706_36181)"/>
<path d="M80.8368 60.1189C77.2649 58.1622 83.8262 55.7286 82.9318 52.675C82.0373 49.6214 73.7762 50.0575 68.5084 49.3306C24.9742 43.3228 48.9635 94.5196 53.9414 119.999L76.5935 119.999C85.3441 120.022 90.527 110.378 84.0613 107.376C77.5955 104.375 87.7089 100.443 93.8971 99.753C100.085 99.0632 106.141 91.3798 97.4212 88.604C88.701 85.8283 94.62 82.5398 101.249 79.8665C104.855 78.4124 103.044 71.5782 96.0567 71.2873C89.0695 70.9965 76.3832 66.8423 80.8835 64.6299C85.3837 62.4174 84.4088 62.0755 80.8368 60.1189Z" fill="url(#paint6_radial_10706_36181)"/>
<path d="M123.75 42.4534C113.723 34.6678 81.442 39.4245 62.4517 36.8284C62.8363 34.9822 73.5093 33.7515 78.7978 33.3669C80.9612 26.7323 103.074 26.7706 109.687 28.0304C117.259 29.4727 125.552 22.9822 136.129 24.4245C146.706 25.8668 153.894 19.9035 160.384 26.2497C153.253 34.1343 130.288 47.5304 123.75 42.4534Z" fill="url(#paint7_linear_10706_36181)"/>
<path d="M99.8071 47.3789C99.8074 45.9366 108.028 42.6193 117.115 41.4655C124.038 37.427 151.73 20.9848 169.615 20.9848C180.865 20.9848 188.941 13.0522 199.903 20.9849C186.098 37.4916 129.374 55.456 99.8071 47.3789Z" fill="url(#paint8_radial_10706_36181)"/>
<path d="M99.8071 47.3789C99.8074 45.9366 108.028 42.6193 117.115 41.4655C124.038 37.427 151.73 20.9848 169.615 20.9848C180.865 20.9848 188.941 13.0522 199.903 20.9849C186.098 37.4916 129.374 55.456 99.8071 47.3789Z" fill="url(#paint9_radial_10706_36181)"/>
<path d="M99.8071 47.3789C99.8074 45.9366 108.028 42.6193 117.115 41.4655C124.038 37.427 151.73 20.9848 169.615 20.9848C180.865 20.9848 188.941 13.0522 199.903 20.9849C186.098 37.4916 129.374 55.456 99.8071 47.3789Z" fill="url(#paint10_radial_10706_36181)"/>
<path d="M118.048 40.9249C120.365 44.5928 126.959 46.9197 128.797 47.3792C128.421 47.8586 127.634 48.385 126.643 48.9161C116.703 49.7965 107.368 49.4445 99.8071 47.3792C99.8074 45.9369 108.028 42.6196 117.115 41.4657C117.392 41.3038 117.705 41.1249 118.048 40.9249Z" fill="url(#paint11_radial_10706_36181)"/>
<path d="M120.47 53.4039C107.359 59.7343 93.4281 58.215 87.6919 62.7729C93.9745 66.8243 145.601 68.3436 131.123 71.3822C112.425 75.3067 177.643 86.3646 154.068 87.7146C118.695 89.7404 143.962 120 166.087 120H221.538V28.3355C201.597 23.5244 133.582 47.0735 120.47 53.4039Z" fill="url(#paint12_radial_10706_36181)"/>
<path d="M134.041 46.0867C121.04 53.1127 107.226 51.4265 101.538 56.4852C107.768 60.9817 158.96 62.668 144.604 66.0404C126.063 70.3962 190.733 82.669 167.357 84.1674C132.28 86.4157 157.335 120 179.274 120H234.258V18.2639C214.486 12.9242 147.042 39.0608 134.041 46.0867Z" fill="url(#paint13_radial_10706_36181)"/>
<path d="M139.13 43.7187C126.044 50.9697 112.14 49.2295 106.415 54.4503C112.685 59.0909 164.211 60.8311 149.762 64.3117C131.1 68.807 196.191 81.4731 172.663 83.0195C137.358 85.3398 162.575 120 184.658 120H240.001V15.0044C220.099 9.49356 152.216 36.4676 139.13 43.7187Z" fill="url(#paint14_radial_10706_36181)"/>
<path d="M139.13 43.7187C126.044 50.9697 112.14 49.2295 106.415 54.4503C112.685 59.0909 164.211 60.8311 149.762 64.3117C131.1 68.807 196.191 81.4731 172.663 83.0195C137.358 85.3398 162.575 120 184.658 120H240.001V15.0044C220.099 9.49356 152.216 36.4676 139.13 43.7187Z" fill="url(#paint15_radial_10706_36181)"/>
<path d="M145.187 55.5539C128.64 52.1464 118.386 56.858 111.048 52.2113C126.012 44.4671 158.424 55.5539 178.424 57.8773C194.424 59.736 232.525 65.0023 239.863 75.5348V115.961C228.352 115.806 183.892 98.4585 205.762 93.3471C227.633 88.2358 193.244 80.3364 200.87 79.2521C208.496 78.1679 165.618 65.7768 172.237 63.1436C178.856 60.5105 161.105 58.8322 145.187 55.5539Z" fill="url(#paint16_radial_10706_36181)"/>
<path d="M150.17 54.5191C134.494 51.346 118 55.6729 111.048 51.346C125.225 44.1347 162.71 54.5191 181.658 56.6826C196.816 58.4133 232.911 63.3172 239.863 73.1249V110.769C228.958 110.625 186.838 94.471 207.557 89.7114C228.276 84.9518 195.698 77.596 202.922 76.5864C210.147 75.5768 169.526 64.0384 175.796 61.5865C182.067 59.1346 165.251 57.5717 150.17 54.5191Z" fill="url(#paint17_linear_10706_36181)"/>
<path d="M150.17 54.5191C134.494 51.346 118 55.6729 111.048 51.346C125.225 44.1347 162.71 54.5191 181.658 56.6826C196.816 58.4133 232.911 63.3172 239.863 73.1249V110.769C228.958 110.625 186.838 94.471 207.557 89.7114C228.276 84.9518 195.698 77.596 202.922 76.5864C210.147 75.5768 169.526 64.0384 175.796 61.5865C182.067 59.1346 165.251 57.5717 150.17 54.5191Z" fill="url(#paint18_radial_10706_36181)"/>
<path d="M150.17 54.5191C134.494 51.346 118 55.6729 111.048 51.346C125.225 44.1347 162.71 54.5191 181.658 56.6826C196.816 58.4133 232.911 63.3172 239.863 73.1249V110.769C228.958 110.625 186.838 94.471 207.557 89.7114C228.276 84.9518 195.698 77.596 202.922 76.5864C210.147 75.5768 169.526 64.0384 175.796 61.5865C182.067 59.1346 165.251 57.5717 150.17 54.5191Z" fill="url(#paint19_radial_10706_36181)"/>
<path d="M139.128 43.5562C152.215 36.3444 220.097 9.51844 239.999 14.9986V59.9985L238.922 59.1647C227.36 50.8133 202.755 51.4529 189.154 50.3351C177.204 49.3532 145.417 48.574 135.874 45.1653C136.96 44.6829 138.048 44.1515 139.128 43.5562Z" fill="url(#paint20_linear_10706_36181)"/>
<path d="M139.128 43.5562C152.215 36.3444 220.097 9.51844 239.999 14.9986V59.9985L238.922 59.1647C227.36 50.8133 202.755 51.4529 189.154 50.3351C177.204 49.3532 145.417 48.574 135.874 45.1653C136.96 44.6829 138.048 44.1515 139.128 43.5562Z" fill="url(#paint21_radial_10706_36181)"/>
<path d="M139.128 43.5562C152.215 36.3444 220.097 9.51844 239.999 14.9986V59.9985L238.922 59.1647C227.36 50.8133 202.755 51.4529 189.154 50.3351C177.204 49.3532 145.417 48.574 135.874 45.1653C136.96 44.6829 138.048 44.1515 139.128 43.5562Z" fill="url(#paint22_radial_10706_36181)"/>
<defs>
<radialGradient id="paint0_radial_10706_36181" cx="0" cy="0" r="1" gradientTransform="matrix(159.815 -11.0565 8.18641 38.91 103.847 35.6847)" gradientUnits="userSpaceOnUse">
<stop offset="0.0451332" stop-color="#F3E3FF"/>
<stop offset="0.390719" stop-color="#C1D1FF"/>
<stop offset="0.80654" stop-color="#659DDC"/>
</radialGradient>
<radialGradient id="paint1_radial_10706_36181" cx="0" cy="0" r="1" gradientTransform="matrix(-32.4457 -6.32636 4.97687 -25.5284 79.4384 24.3771)" gradientUnits="userSpaceOnUse">
<stop offset="0.29078" stop-color="white"/>
<stop offset="1" stop-color="white" stop-opacity="0"/>
</radialGradient>
<radialGradient id="paint2_radial_10706_36181" cx="0" cy="0" r="1" gradientTransform="matrix(55.5497 -2.98618 1.7936 33.3569 127.6 14.3821)" gradientUnits="userSpaceOnUse">
<stop offset="0.29078" stop-color="white"/>
<stop offset="1" stop-color="white" stop-opacity="0"/>
</radialGradient>
<radialGradient id="paint3_radial_10706_36181" cx="0" cy="0" r="1" gradientTransform="matrix(70.3844 -0.580824 0.426443 52.3785 94.3263 87.4731)" gradientUnits="userSpaceOnUse">
<stop stop-color="#ACEBBA"/>
<stop offset="0.412344" stop-color="#88D2C8"/>
<stop offset="1" stop-color="#1F85E3"/>
</radialGradient>
<radialGradient id="paint4_radial_10706_36181" cx="0" cy="0" r="1" gradientTransform="matrix(-143.942 77.8309 -60.7628 -113.903 123.749 104.027)" gradientUnits="userSpaceOnUse">
<stop offset="0.50781" stop-color="#4B91B8" stop-opacity="0"/>
<stop offset="0.810937" stop-color="#054C8E"/>
</radialGradient>
<radialGradient id="paint5_radial_10706_36181" cx="0" cy="0" r="1" gradientTransform="matrix(-11.25 -78.2561 39.7317 -5.21191 140.654 108.289)" gradientUnits="userSpaceOnUse">
<stop offset="0.100962" stop-color="white"/>
<stop offset="0.468798" stop-color="#D7FFE9"/>
<stop offset="1" stop-color="#BBFFD9" stop-opacity="0"/>
</radialGradient>
<radialGradient id="paint6_radial_10706_36181" cx="0" cy="0" r="1" gradientTransform="matrix(20.1923 -107.33 37.8376 6.86593 90.2875 125.252)" gradientUnits="userSpaceOnUse">
<stop stop-color="white"/>
<stop offset="0.468798" stop-color="#D7FFE9"/>
<stop offset="1" stop-color="#BBFFD9" stop-opacity="0"/>
</radialGradient>
<linearGradient id="paint7_linear_10706_36181" x1="124.471" y1="17.5018" x2="129.506" y2="45.3179" gradientUnits="userSpaceOnUse">
<stop stop-color="#5D7BA1"/>
<stop offset="1" stop-color="#032B1F"/>
</linearGradient>
<radialGradient id="paint8_radial_10706_36181" cx="0" cy="0" r="1" gradientTransform="matrix(71.3324 -15.7089 14.3409 38.4253 138.529 13.7494)" gradientUnits="userSpaceOnUse">
<stop stop-color="#FFD394"/>
<stop offset="1" stop-color="#986206"/>
</radialGradient>
<radialGradient id="paint9_radial_10706_36181" cx="0" cy="0" r="1" gradientTransform="matrix(-55.5597 13.0311 -7.7659 -19.5376 157.709 20.3863)" gradientUnits="userSpaceOnUse">
<stop stop-color="#FFD394"/>
<stop offset="1" stop-color="#FFD394" stop-opacity="0"/>
</radialGradient>
<radialGradient id="paint10_radial_10706_36181" cx="0" cy="0" r="1" gradientUnits="userSpaceOnUse" gradientTransform="translate(132.692 18.9658) rotate(-17.9752) scale(82.4875 22.1704)">
<stop stop-color="#57FF22" stop-opacity="0"/>
<stop offset="1" stop-color="#195C5A"/>
</radialGradient>
<radialGradient id="paint11_radial_10706_36181" cx="0" cy="0" r="1" gradientTransform="matrix(58.1476 15.2554 -21.6571 25.2028 86.1023 40.2285)" gradientUnits="userSpaceOnUse">
<stop stop-color="#FFE994"/>
<stop offset="0.68353" stop-color="#CF8047"/>
<stop offset="1" stop-color="#271007"/>
</radialGradient>
<radialGradient id="paint12_radial_10706_36181" cx="0" cy="0" r="1" gradientTransform="matrix(-53.8178 -96.4305 63.8089 -28.7383 201.419 99.3547)" gradientUnits="userSpaceOnUse">
<stop offset="0.100962" stop-color="white"/>
<stop offset="0.468798" stop-color="#D7FFE9"/>
<stop offset="1" stop-color="#BBFFD9" stop-opacity="0"/>
</radialGradient>
<radialGradient id="paint13_radial_10706_36181" cx="0" cy="0" r="1" gradientTransform="matrix(118.907 143.33 -108.357 96.7781 172.503 -0.846795)" gradientUnits="userSpaceOnUse">
<stop offset="0.451752" stop-color="#CF8047"/>
<stop offset="1" stop-color="#271007"/>
</radialGradient>
<radialGradient id="paint14_radial_10706_36181" cx="0" cy="0" r="1" gradientTransform="matrix(216.463 109.346 -80.6215 180.647 81.0611 33.8571)" gradientUnits="userSpaceOnUse">
<stop stop-color="#FFE994"/>
<stop offset="0.68353" stop-color="#A06A43"/>
<stop offset="1" stop-color="#271007"/>
</radialGradient>
<radialGradient id="paint15_radial_10706_36181" cx="0" cy="0" r="1" gradientTransform="matrix(-64.8844 13.9221 -8.87807 -46.8332 160.94 55.3203)" gradientUnits="userSpaceOnUse">
<stop offset="0.152895" stop-color="#FFD394"/>
<stop offset="1" stop-color="#FFD394" stop-opacity="0"/>
</radialGradient>
<radialGradient id="paint16_radial_10706_36181" cx="0" cy="0" r="1" gradientTransform="matrix(-146.399 -33.173 1.43694 -69.656 174.842 94.6152)" gradientUnits="userSpaceOnUse">
<stop offset="0.256397" stop-color="#FFE5BF"/>
<stop offset="1" stop-color="#FFD394" stop-opacity="0"/>
</radialGradient>
<linearGradient id="paint17_linear_10706_36181" x1="90.7913" y1="-80.265" x2="259.092" y2="63.8032" gradientUnits="userSpaceOnUse">
<stop stop-color="#FFD394"/>
<stop offset="1" stop-color="#986206"/>
</linearGradient>
<radialGradient id="paint18_radial_10706_36181" cx="0" cy="0" r="1" gradientTransform="matrix(-83.968 -26.5384 9.65991 -34.2184 188.201 43.8464)" gradientUnits="userSpaceOnUse">
<stop offset="0.368051" stop-color="#FFC674"/>
<stop offset="1" stop-color="#FFD394" stop-opacity="0"/>
</radialGradient>
<radialGradient id="paint19_radial_10706_36181" cx="0" cy="0" r="1" gradientTransform="matrix(99.4394 50.7691 -23.2869 51.0644 175.456 20.1926)" gradientUnits="userSpaceOnUse">
<stop stop-color="#4AFF10" stop-opacity="0"/>
<stop offset="1" stop-color="#195C5A"/>
</radialGradient>
<linearGradient id="paint20_linear_10706_36181" x1="119.5" y1="-81.0586" x2="254.87" y2="24.7939" gradientUnits="userSpaceOnUse">
<stop stop-color="#FFD394"/>
<stop offset="1" stop-color="#986206"/>
</linearGradient>
<radialGradient id="paint21_radial_10706_36181" cx="0" cy="0" r="1" gradientTransform="matrix(-57.251 22.8663 -9.99239 -28.0092 195.562 14.2659)" gradientUnits="userSpaceOnUse">
<stop offset="0.368051" stop-color="#FFC674"/>
<stop offset="1" stop-color="#FFD394" stop-opacity="0"/>
</radialGradient>
<radialGradient id="paint22_radial_10706_36181" cx="0" cy="0" r="1" gradientTransform="matrix(79.0322 -17.0468 9.20104 47.7577 185.633 14.2659)" gradientUnits="userSpaceOnUse">
<stop stop-color="#85FF39" stop-opacity="0"/>
<stop offset="1" stop-color="#195C5A"/>
</radialGradient>
</defs>
</svg>
