<svg viewBox="0 0 240 120" fill="none" xmlns="http://www.w3.org/2000/svg">
<path d="M148.134 84.6412C154.192 84.4744 157.07 88.5197 157.069 91.3141C157.064 107.467 148.134 114.158 119.094 114.158C90.0537 114.158 81.1279 107.465 81.123 91.3141C81.1226 88.5197 84.0009 84.4747 90.0585 84.6412H148.134Z" fill="url(#paint0_linear_9828_2659)"/>
<path d="M148.134 84.6412C154.192 84.4744 157.07 88.5197 157.069 91.3141C157.064 107.467 148.134 114.158 119.094 114.158C90.0537 114.158 81.1279 107.465 81.123 91.3141C81.1226 88.5197 84.0009 84.4747 90.0585 84.6412H148.134Z" fill="url(#paint1_radial_9828_2659)"/>
<path d="M148.134 84.6412C154.192 84.4744 157.07 88.5197 157.069 91.3141C157.064 107.467 148.134 114.158 119.094 114.158C90.0537 114.158 81.1279 107.465 81.123 91.3141C81.1226 88.5197 84.0009 84.4747 90.0585 84.6412H148.134Z" fill="url(#paint2_radial_9828_2659)"/>
<path d="M142.712 73.8C149.392 73.6292 151.511 79.6387 152 83.2445C153.079 91.2232 136.657 95.834 120.045 95.9208C103.068 96.0094 85.8935 91.3988 86.9968 83.2445C87.4856 79.6384 89.6039 73.6283 96.2847 73.8L142.712 73.8Z" fill="#0FAFFF"/>
<path d="M142.712 73.8C149.392 73.6292 151.511 79.6387 152 83.2445C153.079 91.2232 136.657 95.834 120.045 95.9208C103.068 96.0094 85.8935 91.3988 86.9968 83.2445C87.4856 79.6384 89.6039 73.6283 96.2847 73.8L142.712 73.8Z" fill="url(#paint3_radial_9828_2659)"/>
<path d="M142.712 73.8C149.392 73.6292 151.511 79.6387 152 83.2445C153.079 91.2232 136.657 95.834 120.045 95.9208C103.068 96.0094 85.8935 91.3988 86.9968 83.2445C87.4856 79.6384 89.6039 73.6283 96.2847 73.8L142.712 73.8Z" fill="url(#paint4_radial_9828_2659)"/>
<path d="M142.712 73.8C149.392 73.6292 151.511 79.6387 152 83.2445C153.079 91.2232 136.657 95.834 120.045 95.9208C103.068 96.0094 85.8935 91.3988 86.9968 83.2445C87.4856 79.6384 89.6039 73.6283 96.2847 73.8L142.712 73.8Z" fill="url(#paint5_radial_9828_2659)"/>
<path d="M142.712 73.8C149.392 73.6292 151.511 79.6387 152 83.2445C153.079 91.2232 136.657 95.834 120.045 95.9208C103.068 96.0094 85.8935 91.3988 86.9968 83.2445C87.4856 79.6384 89.6039 73.6283 96.2847 73.8L142.712 73.8Z" fill="url(#paint6_radial_9828_2659)"/>
<path d="M142.712 73.8C149.392 73.6292 151.511 79.6387 152 83.2445C153.079 91.2232 136.657 95.834 120.045 95.9208C103.068 96.0094 85.8935 91.3988 86.9968 83.2445C87.4856 79.6384 89.6039 73.6283 96.2847 73.8L142.712 73.8Z" fill="url(#paint7_radial_9828_2659)"/>
<path d="M137.565 58.9694C144.244 58.7986 146.364 64.8081 146.853 68.4139C149.034 84.5464 89.8052 84.5474 91.9881 68.4139C92.4769 64.8078 94.5952 58.7977 101.276 58.9694L137.565 58.9694Z" fill="#88E06C"/>
<path d="M137.565 58.9694C144.244 58.7986 146.364 64.8081 146.853 68.4139C149.034 84.5464 89.8052 84.5474 91.9881 68.4139C92.4769 64.8078 94.5952 58.7977 101.276 58.9694L137.565 58.9694Z" fill="url(#paint8_radial_9828_2659)"/>
<path d="M137.565 58.9694C144.244 58.7986 146.364 64.8081 146.853 68.4139C149.034 84.5464 89.8052 84.5474 91.9881 68.4139C92.4769 64.8078 94.5952 58.7977 101.276 58.9694L137.565 58.9694Z" fill="url(#paint9_radial_9828_2659)"/>
<path d="M137.565 58.9694C144.244 58.7986 146.364 64.8081 146.853 68.4139C149.034 84.5464 89.8052 84.5474 91.9881 68.4139C92.4769 64.8078 94.5952 58.7977 101.276 58.9694L137.565 58.9694Z" fill="url(#paint10_radial_9828_2659)"/>
<path d="M137.565 58.9694C144.244 58.7986 146.364 64.8081 146.853 68.4139C149.034 84.5464 89.8052 84.5474 91.9881 68.4139C92.4769 64.8078 94.5952 58.7977 101.276 58.9694L137.565 58.9694Z" fill="url(#paint11_radial_9828_2659)"/>
<path d="M137.565 58.9694C144.244 58.7986 146.364 64.8081 146.853 68.4139C149.034 84.5464 89.8052 84.5474 91.9881 68.4139C92.4769 64.8078 94.5952 58.7977 101.276 58.9694L137.565 58.9694Z" fill="url(#paint12_radial_9828_2659)"/>
<path d="M132.566 43.8247C139.246 43.6626 141.366 49.3652 141.854 52.7868C144.036 68.0952 94.6574 68.0962 96.8403 52.7868C97.3292 49.3649 99.4475 43.6618 106.128 43.8247L132.566 43.8247Z" fill="#FFC205"/>
<path d="M132.566 43.8247C139.246 43.6626 141.366 49.3652 141.854 52.7868C144.036 68.0952 94.6574 68.0962 96.8403 52.7868C97.3292 49.3649 99.4475 43.6618 106.128 43.8247L132.566 43.8247Z" fill="url(#paint13_radial_9828_2659)"/>
<path d="M132.566 43.8247C139.246 43.6626 141.366 49.3652 141.854 52.7868C144.036 68.0952 94.6574 68.0962 96.8403 52.7868C97.3292 49.3649 99.4475 43.6618 106.128 43.8247L132.566 43.8247Z" fill="url(#paint14_radial_9828_2659)"/>
<path d="M132.566 43.8247C139.246 43.6626 141.366 49.3652 141.854 52.7868C144.036 68.0952 94.6574 68.0962 96.8403 52.7868C97.3292 49.3649 99.4475 43.6618 106.128 43.8247L132.566 43.8247Z" fill="url(#paint15_radial_9828_2659)"/>
<path d="M132.566 43.8247C139.246 43.6626 141.366 49.3652 141.854 52.7868C144.036 68.0952 94.6574 68.0962 96.8403 52.7868C97.3292 49.3649 99.4475 43.6618 106.128 43.8247L132.566 43.8247Z" fill="url(#paint16_radial_9828_2659)"/>
<path d="M132.566 43.8247C139.246 43.6626 141.366 49.3652 141.854 52.7868C144.036 68.0952 94.6574 68.0962 96.8403 52.7868C97.3292 49.3649 99.4475 43.6618 106.128 43.8247L132.566 43.8247Z" fill="url(#paint17_radial_9828_2659)"/>
<path d="M127.013 29.2844C133.222 29.1338 135.192 34.4339 135.646 37.614C137.673 51.8422 101.056 51.8431 103.085 37.614C103.539 34.4336 105.508 29.133 111.717 29.2844H127.013Z" fill="#FF921F"/>
<path d="M127.013 29.2844C133.222 29.1338 135.192 34.4339 135.646 37.614C137.673 51.8422 101.056 51.8431 103.085 37.614C103.539 34.4336 105.508 29.133 111.717 29.2844H127.013Z" fill="url(#paint18_radial_9828_2659)"/>
<path d="M127.013 29.2844C133.222 29.1338 135.192 34.4339 135.646 37.614C137.673 51.8422 101.056 51.8431 103.085 37.614C103.539 34.4336 105.508 29.133 111.717 29.2844H127.013Z" fill="url(#paint19_radial_9828_2659)"/>
<path d="M127.013 29.2844C133.222 29.1338 135.192 34.4339 135.646 37.614C137.673 51.8422 101.056 51.8431 103.085 37.614C103.539 34.4336 105.508 29.133 111.717 29.2844H127.013Z" fill="url(#paint20_radial_9828_2659)"/>
<path d="M127.013 29.2844C133.222 29.1338 135.192 34.4339 135.646 37.614C137.673 51.8422 101.056 51.8431 103.085 37.614C103.539 34.4336 105.508 29.133 111.717 29.2844H127.013Z" fill="url(#paint21_radial_9828_2659)"/>
<path d="M127.013 29.2844C133.222 29.1338 135.192 34.4339 135.646 37.614C137.673 51.8422 101.056 51.8431 103.085 37.614C103.539 34.4336 105.508 29.133 111.717 29.2844H127.013Z" fill="url(#paint22_radial_9828_2659)"/>
<path d="M132.849 19.3476C132.849 26.9202 126.71 33.059 119.137 33.059C111.565 33.059 105.426 26.9202 105.426 19.3476C105.426 11.775 111.565 5.63623 119.137 5.63623C126.71 5.63623 132.849 11.775 132.849 19.3476Z" fill="#EB4824"/>
<path d="M132.849 19.3476C132.849 26.9202 126.71 33.059 119.137 33.059C111.565 33.059 105.426 26.9202 105.426 19.3476C105.426 11.775 111.565 5.63623 119.137 5.63623C126.71 5.63623 132.849 11.775 132.849 19.3476Z" fill="url(#paint23_radial_9828_2659)"/>
<path d="M132.849 19.3476C132.849 26.9202 126.71 33.059 119.137 33.059C111.565 33.059 105.426 26.9202 105.426 19.3476C105.426 11.775 111.565 5.63623 119.137 5.63623C126.71 5.63623 132.849 11.775 132.849 19.3476Z" fill="url(#paint24_radial_9828_2659)"/>
<defs>
<linearGradient id="paint0_linear_9828_2659" x1="119.096" y1="66.8411" x2="136.25" y2="153.621" gradientUnits="userSpaceOnUse">
<stop stop-color="#FFE4BE"/>
<stop offset="1" stop-color="#B3E0FF"/>
</linearGradient>
<radialGradient id="paint1_radial_9828_2659" cx="0" cy="0" r="1" gradientUnits="userSpaceOnUse" gradientTransform="translate(119.894 89.9791) scale(42.8597 12.3447)">
<stop offset="0.783654" stop-color="#FFF9F1"/>
<stop offset="0.910427" stop-color="#FFF9F1" stop-opacity="0"/>
</radialGradient>
<radialGradient id="paint2_radial_9828_2659" cx="0" cy="0" r="1" gradientUnits="userSpaceOnUse" gradientTransform="translate(111.413 85.7721) rotate(2.72631) scale(66.8641 40.6897)">
<stop offset="0.553221" stop-color="#986206" stop-opacity="0"/>
<stop offset="1" stop-color="#986206"/>
</radialGradient>
<radialGradient id="paint3_radial_9828_2659" cx="0" cy="0" r="1" gradientUnits="userSpaceOnUse" gradientTransform="translate(106.086 83.3199) scale(11.7509 4.76071)">
<stop offset="0.195122" stop-color="#DEEEFF"/>
<stop offset="1" stop-color="#C2E1FF" stop-opacity="0"/>
</radialGradient>
<radialGradient id="paint4_radial_9828_2659" cx="0" cy="0" r="1" gradientUnits="userSpaceOnUse" gradientTransform="translate(119.498 78.0302) rotate(90) scale(17.8918 54.6911)">
<stop offset="0.622023" stop-color="#075FCA" stop-opacity="0"/>
<stop offset="1" stop-color="#075FCA"/>
</radialGradient>
<radialGradient id="paint5_radial_9828_2659" cx="0" cy="0" r="1" gradientUnits="userSpaceOnUse" gradientTransform="translate(109.401 84.8592) rotate(66.3327) scale(20.266 42.8742)">
<stop offset="0.482811" stop-color="#075FCA" stop-opacity="0"/>
<stop offset="0.967327" stop-color="#075FCA"/>
</radialGradient>
<radialGradient id="paint6_radial_9828_2659" cx="0" cy="0" r="1" gradientUnits="userSpaceOnUse" gradientTransform="translate(119.498 75.738) scale(35.3995 6.98278)">
<stop offset="0.120087" stop-color="#A2550F" stop-opacity="0.7"/>
<stop offset="0.600962" stop-color="#A2550F" stop-opacity="0.360725"/>
<stop offset="0.745223" stop-color="#A2550F" stop-opacity="0"/>
</radialGradient>
<radialGradient id="paint7_radial_9828_2659" cx="0" cy="0" r="1" gradientUnits="userSpaceOnUse" gradientTransform="translate(124.437 75.6268) scale(31.0468 7.18359)">
<stop offset="0.304913" stop-color="#352168"/>
<stop offset="0.769339" stop-color="#352168" stop-opacity="0"/>
</radialGradient>
<radialGradient id="paint8_radial_9828_2659" cx="0" cy="0" r="1" gradientUnits="userSpaceOnUse" gradientTransform="translate(108.093 68.2406) scale(9.92396 4.63639)">
<stop offset="0.195122" stop-color="#EEFFF4"/>
<stop offset="1" stop-color="#D7FFE4" stop-opacity="0"/>
</radialGradient>
<radialGradient id="paint9_radial_9828_2659" cx="0" cy="0" r="1" gradientUnits="userSpaceOnUse" gradientTransform="translate(119.42 63.0891) rotate(90) scale(17.4246 46.1879)">
<stop offset="0.622023" stop-color="#008B43" stop-opacity="0"/>
<stop offset="1" stop-color="#008B43"/>
</radialGradient>
<radialGradient id="paint10_radial_9828_2659" cx="0" cy="0" r="1" gradientUnits="userSpaceOnUse" gradientTransform="translate(110.892 69.7397) rotate(69.1897) scale(19.3383 36.9543)">
<stop offset="0.482811" stop-color="#008B43" stop-opacity="0"/>
<stop offset="0.967327" stop-color="#008B43"/>
</radialGradient>
<radialGradient id="paint11_radial_9828_2659" cx="0" cy="0" r="1" gradientUnits="userSpaceOnUse" gradientTransform="translate(119.42 60.8567) scale(29.8957 6.80043)">
<stop offset="0.120087" stop-color="#0FA236" stop-opacity="0.7"/>
<stop offset="0.600962" stop-color="#0FA236" stop-opacity="0.360725"/>
<stop offset="0.745223" stop-color="#0FA236" stop-opacity="0"/>
</radialGradient>
<radialGradient id="paint12_radial_9828_2659" cx="0" cy="0" r="1" gradientUnits="userSpaceOnUse" gradientTransform="translate(123.378 60.6335) scale(25.2918 6.74839)">
<stop offset="0.304913" stop-color="#21683A"/>
<stop offset="0.769339" stop-color="#21683A" stop-opacity="0"/>
</radialGradient>
<radialGradient id="paint13_radial_9828_2659" cx="0" cy="0" r="1" gradientUnits="userSpaceOnUse" gradientTransform="translate(110.045 52.6223) scale(8.15013 4.39957)">
<stop offset="0.195122" stop-color="#FFF5C2"/>
<stop offset="1" stop-color="#FFF5C2" stop-opacity="0"/>
</radialGradient>
<radialGradient id="paint14_radial_9828_2659" cx="0" cy="0" r="1" gradientUnits="userSpaceOnUse" gradientTransform="translate(119.347 47.7339) rotate(90) scale(16.5346 37.9322)">
<stop offset="0.622023" stop-color="#B59100" stop-opacity="0"/>
<stop offset="1" stop-color="#9E7702"/>
</radialGradient>
<radialGradient id="paint15_radial_9828_2659" cx="0" cy="0" r="1" gradientUnits="userSpaceOnUse" gradientTransform="translate(112.344 54.0449) rotate(71.792) scale(18.0576 30.8414)">
<stop offset="0.482811" stop-color="#B59100" stop-opacity="0"/>
<stop offset="0.967327" stop-color="#B58204"/>
</radialGradient>
<radialGradient id="paint16_radial_9828_2659" cx="0" cy="0" r="1" gradientUnits="userSpaceOnUse" gradientTransform="translate(119.347 45.6156) scale(24.5521 6.45307)">
<stop offset="0.120087" stop-color="#A2550F" stop-opacity="0.7"/>
<stop offset="0.600962" stop-color="#A2550F" stop-opacity="0.360725"/>
<stop offset="0.745223" stop-color="#A2550F" stop-opacity="0"/>
</radialGradient>
<radialGradient id="paint17_radial_9828_2659" cx="0" cy="0" r="1" gradientUnits="userSpaceOnUse" gradientTransform="translate(123.42 43.8213) scale(18.505 5.70506)">
<stop offset="0.304913" stop-color="#684421"/>
<stop offset="0.769339" stop-color="#684421" stop-opacity="0"/>
</radialGradient>
<radialGradient id="paint18_radial_9828_2659" cx="0" cy="0" r="1" gradientUnits="userSpaceOnUse" gradientTransform="translate(112.624 37.4612) scale(5.90646 4.08909)">
<stop offset="0.195122" stop-color="#FFDAC2"/>
<stop offset="1" stop-color="#F58F71" stop-opacity="0"/>
</radialGradient>
<radialGradient id="paint19_radial_9828_2659" cx="0" cy="0" r="1" gradientUnits="userSpaceOnUse" gradientTransform="translate(119.365 32.9178) rotate(90) scale(15.3677 27.4898)">
<stop offset="0.622023" stop-color="#E77D14" stop-opacity="0"/>
<stop offset="1" stop-color="#CA6407"/>
</radialGradient>
<radialGradient id="paint20_radial_9828_2659" cx="0" cy="0" r="1" gradientUnits="userSpaceOnUse" gradientTransform="translate(114.29 38.7834) rotate(75.6147) scale(16.4589 22.7914)">
<stop offset="0.482811" stop-color="#E77D14" stop-opacity="0"/>
<stop offset="0.967327" stop-color="#CA6407"/>
</radialGradient>
<radialGradient id="paint21_radial_9828_2659" cx="0" cy="0" r="1" gradientUnits="userSpaceOnUse" gradientTransform="translate(119.365 30.9489) scale(17.7931 5.99767)">
<stop offset="0.120087" stop-color="#A2550F" stop-opacity="0.7"/>
<stop offset="0.600962" stop-color="#A2550F" stop-opacity="0.360725"/>
<stop offset="0.745223" stop-color="#A2550F" stop-opacity="0"/>
</radialGradient>
<radialGradient id="paint22_radial_9828_2659" cx="0" cy="0" r="1" gradientUnits="userSpaceOnUse" gradientTransform="translate(122.317 29.2812) scale(13.4107 5.30244)">
<stop offset="0.304913" stop-color="#684421"/>
<stop offset="0.769339" stop-color="#684421" stop-opacity="0"/>
</radialGradient>
<radialGradient id="paint23_radial_9828_2659" cx="0" cy="0" r="1" gradientUnits="userSpaceOnUse" gradientTransform="translate(114.699 16.5286) rotate(90) scale(5.51343)">
<stop offset="0.195122" stop-color="#FFDAC2"/>
<stop offset="1" stop-color="#F58F71" stop-opacity="0"/>
</radialGradient>
<radialGradient id="paint24_radial_9828_2659" cx="0" cy="0" r="1" gradientUnits="userSpaceOnUse" gradientTransform="translate(112.951 14.9149) rotate(71.1735) scale(19.1697)">
<stop offset="0.622023" stop-color="#B03111" stop-opacity="0"/>
<stop offset="1" stop-color="#B03111"/>
</radialGradient>
</defs>
</svg>
