<svg viewBox="0 0 240 120" fill="none" xmlns="http://www.w3.org/2000/svg">
<path d="M26.0394 30.6663C9.08607 32.5299 2.32778 53.2541 19.599 64.2344C82.0516 68.9402 210.528 69.756 223.643 64.2344C240.037 57.3325 229.205 25.6464 207.249 30.6662C206.957 22.5097 197.3 8.0785 171.536 13.7251C149.972 18.4513 152.507 -2.58842 122.059 10.9017C115.329 -1.64725 86.3462 -1.01995 76.1001 13.7251C43.0197 2.11697 48.8732 28.1562 26.0394 30.6663Z" fill="url(#paint0_linear_10554_2132)"/>
<path d="M26.0394 30.6663C9.08607 32.5299 2.32778 53.2541 19.599 64.2344C82.0516 68.9402 210.528 69.756 223.643 64.2344C240.037 57.3325 229.205 25.6464 207.249 30.6662C206.957 22.5097 197.3 8.0785 171.536 13.7251C149.972 18.4513 152.507 -2.58842 122.059 10.9017C115.329 -1.64725 86.3462 -1.01995 76.1001 13.7251C43.0197 2.11697 48.8732 28.1562 26.0394 30.6663Z" fill="url(#paint1_radial_10554_2132)"/>
<path fill-rule="evenodd" clip-rule="evenodd" d="M111.994 27.804H175.732C175.463 24.3402 172.823 21.6212 169.607 21.6212C168.01 21.6212 166.555 22.2918 165.461 23.3913C163.82 20.9011 161.155 19.2818 158.146 19.2818C156.028 19.2818 154.081 20.084 152.541 21.4277C150.658 15.6002 145.604 11.428 139.664 11.428C134.341 11.428 129.729 14.7791 127.474 19.6694C125.831 17.7826 123.517 16.6082 120.955 16.6082C115.967 16.6082 111.923 21.0595 111.923 26.5508C111.923 26.9752 111.947 27.3935 111.994 27.804Z" fill="url(#paint2_linear_10554_2132)"/>
<path fill-rule="evenodd" clip-rule="evenodd" d="M47.168 32.2825H99.3562C98.5249 30.2905 95.8493 28.8325 92.6772 28.8325C90.7599 28.8325 89.024 29.3651 87.767 30.2264C87.4628 27.9236 85.6618 26.1549 83.4855 26.1549C82.5937 26.1549 81.7651 26.4519 81.0765 26.9608C80.5662 22.8128 77.3365 19.6154 73.4284 19.6154C69.3626 19.6154 66.031 23.0762 65.7321 27.4677C64.9674 26.1226 63.6094 25.228 62.0616 25.228C60.076 25.228 58.4026 26.7005 57.8936 28.7076C57.2627 27.724 56.222 27.0817 55.0451 27.0817C53.3755 27.0817 51.98 28.3744 51.6396 30.1001C51.3153 30.0293 50.9705 29.991 50.613 29.991C48.7693 29.991 47.2634 31.0057 47.168 32.2825Z" fill="url(#paint3_linear_10554_2132)"/>
<path d="M61.0642 45.3763C61.0642 49.5583 57.674 52.9484 53.492 52.9484C49.3101 52.9484 45.9199 49.5583 45.9199 45.3763C45.9199 41.1944 49.3101 37.8042 53.492 37.8042C57.674 37.8042 61.0642 41.1944 61.0642 45.3763Z" fill="url(#paint4_linear_10554_2132)"/>
<path d="M128.651 49.2446C126.089 48.235 121.44 54.0042 118.973 57.0331L170.118 71.1678C185.109 67.2255 216.002 58.187 219.646 53.5715C217.938 49.8214 209.399 45.7831 202.567 49.2448C199.993 50.5493 191.181 48.5236 186.247 45.7831C185.362 45.7831 182.908 46.3312 180.175 48.5236C176.759 51.2641 162.432 48.3794 161.294 48.5236C160.155 48.6678 151.331 44.7736 145.828 46.7928C140.325 48.8121 131.212 50.2542 128.651 49.2446Z" fill="url(#paint5_linear_10554_2132)"/>
<path d="M169.039 57.8362C163.414 60.1439 148.991 60.0003 144.231 62.7404C139.472 65.4804 137.885 69.8077 137.885 69.8077C157.548 85.8654 206.366 112.817 224.135 94.4711C246.346 71.5384 222.26 51.7785 218.943 50.7689C215.625 49.7593 200.337 52.4997 192.26 56.1054C184.183 59.7112 174.664 55.5285 169.039 57.8362Z" fill="url(#paint6_linear_10554_2132)"/>
<path d="M169.039 57.8362C163.414 60.1439 148.991 60.0003 144.231 62.7404C139.472 65.4804 137.885 69.8077 137.885 69.8077C157.548 85.8654 206.366 112.817 224.135 94.4711C246.346 71.5384 222.26 51.7785 218.943 50.7689C215.625 49.7593 200.337 52.4997 192.26 56.1054C184.183 59.7112 174.664 55.5285 169.039 57.8362Z" fill="url(#paint7_radial_10554_2132)"/>
<path d="M169.039 57.8362C163.414 60.1439 148.991 60.0003 144.231 62.7404C139.472 65.4804 137.885 69.8077 137.885 69.8077C157.548 85.8654 206.366 112.817 224.135 94.4711C246.346 71.5384 222.26 51.7785 218.943 50.7689C215.625 49.7593 200.337 52.4997 192.26 56.1054C184.183 59.7112 174.664 55.5285 169.039 57.8362Z" fill="url(#paint8_radial_10554_2132)"/>
<path d="M172.067 65.3371C162.548 64.1832 154.183 66.4909 143.942 69.664C149.423 83.2217 225.144 87.2601 229.615 78.8947C234.087 70.5294 228.894 65.3371 225.144 65.3371C221.394 65.3371 208.125 61.7315 202.356 61.5873C196.587 61.443 181.587 66.4909 172.067 65.3371Z" fill="url(#paint9_linear_10554_2132)"/>
<path d="M39.4303 48.5337C36.6148 51.3491 26.822 51.3491 23.7617 53.5525L37.4717 62.6109L68.0744 53.5525C64.0756 51.8796 55.2457 48.7785 51.9162 49.7578C47.7542 50.9819 43.225 48.5337 39.4303 48.5337Z" fill="url(#paint10_linear_10554_2132)"/>
<path d="M88.0426 38.0769C71.2867 40.6167 60.0021 44.1089 41.498 57.7603C4.28083 85.2172 200.547 99.6669 218.367 87.9204C214.998 83.0524 204.484 72.8086 189.377 70.7768C170.493 68.237 164.376 60.3001 148.95 57.7603C133.523 55.2205 131.13 42.2041 119.959 44.1089C111.022 45.6328 93.8941 42.2041 88.0426 38.0769Z" fill="url(#paint11_linear_10554_2132)"/>
<path d="M88.0426 38.0769C71.2867 40.6167 60.0021 44.1089 41.498 57.7603C4.28083 85.2172 200.547 99.6669 218.367 87.9204C214.998 83.0524 204.484 72.8086 189.377 70.7768C170.493 68.237 164.376 60.3001 148.95 57.7603C133.523 55.2205 131.13 42.2041 119.959 44.1089C111.022 45.6328 93.8941 42.2041 88.0426 38.0769Z" fill="url(#paint12_radial_10554_2132)"/>
<path d="M88.0426 38.0769C71.2867 40.6167 60.0021 44.1089 41.498 57.7603C4.28083 85.2172 200.547 99.6669 218.367 87.9204C214.998 83.0524 204.484 72.8086 189.377 70.7768C170.493 68.237 164.376 60.3001 148.95 57.7603C133.523 55.2205 131.13 42.2041 119.959 44.1089C111.022 45.6328 93.8941 42.2041 88.0426 38.0769Z" fill="url(#paint13_radial_10554_2132)"/>
<path d="M88.0394 38.0769C93.6761 42.0524 109.774 45.3612 118.936 44.2383C126.92 58.435 151.782 76.1287 163.706 83.4735L112.243 78.0784C105.808 66.9578 93.2481 46.0058 87.1875 38.2121C87.4738 38.1646 87.758 38.1196 88.0394 38.0769Z" fill="url(#paint14_linear_10554_2132)"/>
<path d="M146.701 57.2889C147.42 57.4684 148.168 57.6333 148.95 57.7622C164.375 60.3022 170.493 68.2392 189.375 70.779C204.481 72.8107 214.996 83.0516 218.366 87.92C216.928 88.8673 214.5 89.8122 211.258 90.7324C208.545 90.9088 205.272 90.6688 201.347 89.8265C179.954 85.2359 158.242 68.8376 146.701 57.2889Z" fill="url(#paint15_linear_10554_2132)"/>
<path d="M168.606 87.1157C168.174 84.6638 159.087 84.6638 159.808 90.2888L175.962 103.846C183.125 104.375 198.491 104.308 202.645 99.8077C207.837 94.1827 203.654 87.5477 197.02 89.5673C192.09 91.068 190.385 85.2404 182.452 87.1157C182.741 84.9522 177.549 84.5195 177.116 86.3945C175.337 85.4811 171.145 84.3464 168.606 87.1157Z" fill="url(#paint16_linear_10554_2132)"/>
<path d="M168.606 87.1157C168.174 84.6638 159.087 84.6638 159.808 90.2888L175.962 103.846C183.125 104.375 198.491 104.308 202.645 99.8077C207.837 94.1827 203.654 87.5477 197.02 89.5673C192.09 91.068 190.385 85.2404 182.452 87.1157C182.741 84.9522 177.549 84.5195 177.116 86.3945C175.337 85.4811 171.145 84.3464 168.606 87.1157Z" fill="url(#paint17_radial_10554_2132)"/>
<path d="M168.606 87.1157C168.174 84.6638 159.087 84.6638 159.808 90.2888L175.962 103.846C183.125 104.375 198.491 104.308 202.645 99.8077C207.837 94.1827 203.654 87.5477 197.02 89.5673C192.09 91.068 190.385 85.2404 182.452 87.1157C182.741 84.9522 177.549 84.5195 177.116 86.3945C175.337 85.4811 171.145 84.3464 168.606 87.1157Z" fill="url(#paint18_radial_10554_2132)"/>
<path d="M57.1151 64.6158C55.6728 58.5581 42.9805 57.9812 42.9805 66.0581V114.231H192.259C192.692 106.876 184.471 97.212 177.115 98.9428C178.125 97.3563 174.086 93.0294 170.769 96.3467C170.673 94.6159 169.269 91.5294 164.423 93.0294C164.423 87.9813 158.654 84.664 155.48 85.5294C155.625 83.5101 152.596 81.6351 149.279 81.9236C145.961 82.212 145.673 78.1736 141.057 80.0486C140.769 78.0294 133.557 75.8659 129.663 78.1736C130.24 77.0197 127.211 74.8563 124.759 75.8659C124.759 74.2794 116.971 71.2505 112.932 74.8563C108.317 67.3563 99.0862 75.1447 94.6151 69.2313C90.1439 63.3178 82.067 62.7409 79.9035 67.3563C78.8459 65.7697 75.6343 63.0005 71.2497 64.6158C65.7689 66.6349 62.5959 61.1544 57.1151 64.6158Z" fill="url(#paint19_linear_10554_2132)"/>
<path d="M57.1151 64.6158C55.6728 58.5581 42.9805 57.9812 42.9805 66.0581V114.231H192.259C192.692 106.876 184.471 97.212 177.115 98.9428C178.125 97.3563 174.086 93.0294 170.769 96.3467C170.673 94.6159 169.269 91.5294 164.423 93.0294C164.423 87.9813 158.654 84.664 155.48 85.5294C155.625 83.5101 152.596 81.6351 149.279 81.9236C145.961 82.212 145.673 78.1736 141.057 80.0486C140.769 78.0294 133.557 75.8659 129.663 78.1736C130.24 77.0197 127.211 74.8563 124.759 75.8659C124.759 74.2794 116.971 71.2505 112.932 74.8563C108.317 67.3563 99.0862 75.1447 94.6151 69.2313C90.1439 63.3178 82.067 62.7409 79.9035 67.3563C78.8459 65.7697 75.6343 63.0005 71.2497 64.6158C65.7689 66.6349 62.5959 61.1544 57.1151 64.6158Z" fill="url(#paint20_radial_10554_2132)"/>
<path d="M57.1151 64.6158C55.6728 58.5581 42.9805 57.9812 42.9805 66.0581V114.231H192.259C192.692 106.876 184.471 97.212 177.115 98.9428C178.125 97.3563 174.086 93.0294 170.769 96.3467C170.673 94.6159 169.269 91.5294 164.423 93.0294C164.423 87.9813 158.654 84.664 155.48 85.5294C155.625 83.5101 152.596 81.6351 149.279 81.9236C145.961 82.212 145.673 78.1736 141.057 80.0486C140.769 78.0294 133.557 75.8659 129.663 78.1736C130.24 77.0197 127.211 74.8563 124.759 75.8659C124.759 74.2794 116.971 71.2505 112.932 74.8563C108.317 67.3563 99.0862 75.1447 94.6151 69.2313C90.1439 63.3178 82.067 62.7409 79.9035 67.3563C78.8459 65.7697 75.6343 63.0005 71.2497 64.6158C65.7689 66.6349 62.5959 61.1544 57.1151 64.6158Z" fill="url(#paint21_radial_10554_2132)"/>
<path d="M57.1151 64.6158C55.6728 58.5581 42.9805 57.9812 42.9805 66.0581V114.231H192.259C192.692 106.876 184.471 97.212 177.115 98.9428C178.125 97.3563 174.086 93.0294 170.769 96.3467C170.673 94.6159 169.269 91.5294 164.423 93.0294C164.423 87.9813 158.654 84.664 155.48 85.5294C155.625 83.5101 152.596 81.6351 149.279 81.9236C145.961 82.212 145.673 78.1736 141.057 80.0486C140.769 78.0294 133.557 75.8659 129.663 78.1736C130.24 77.0197 127.211 74.8563 124.759 75.8659C124.759 74.2794 116.971 71.2505 112.932 74.8563C108.317 67.3563 99.0862 75.1447 94.6151 69.2313C90.1439 63.3178 82.067 62.7409 79.9035 67.3563C78.8459 65.7697 75.6343 63.0005 71.2497 64.6158C65.7689 66.6349 62.5959 61.1544 57.1151 64.6158Z" fill="url(#paint22_radial_10554_2132)"/>
<path d="M57.1151 64.6158C55.6728 58.5581 42.9805 57.9812 42.9805 66.0581V114.231H192.259C192.692 106.876 184.471 97.212 177.115 98.9428C178.125 97.3563 174.086 93.0294 170.769 96.3467C170.673 94.6159 169.269 91.5294 164.423 93.0294C164.423 87.9813 158.654 84.664 155.48 85.5294C155.625 83.5101 152.596 81.6351 149.279 81.9236C145.961 82.212 145.673 78.1736 141.057 80.0486C140.769 78.0294 133.557 75.8659 129.663 78.1736C130.24 77.0197 127.211 74.8563 124.759 75.8659C124.759 74.2794 116.971 71.2505 112.932 74.8563C108.317 67.3563 99.0862 75.1447 94.6151 69.2313C90.1439 63.3178 82.067 62.7409 79.9035 67.3563C78.8459 65.7697 75.6343 63.0005 71.2497 64.6158C65.7689 66.6349 62.5959 61.1544 57.1151 64.6158Z" fill="url(#paint23_radial_10554_2132)"/>
<path d="M57.1151 64.6158C55.6728 58.5581 42.9805 57.9812 42.9805 66.0581V114.231H192.259C192.692 106.876 184.471 97.212 177.115 98.9428C178.125 97.3563 174.086 93.0294 170.769 96.3467C170.673 94.6159 169.269 91.5294 164.423 93.0294C164.423 87.9813 158.654 84.664 155.48 85.5294C155.625 83.5101 152.596 81.6351 149.279 81.9236C145.961 82.212 145.673 78.1736 141.057 80.0486C140.769 78.0294 133.557 75.8659 129.663 78.1736C130.24 77.0197 127.211 74.8563 124.759 75.8659C124.759 74.2794 116.971 71.2505 112.932 74.8563C108.317 67.3563 99.0862 75.1447 94.6151 69.2313C90.1439 63.3178 82.067 62.7409 79.9035 67.3563C78.8459 65.7697 75.6343 63.0005 71.2497 64.6158C65.7689 66.6349 62.5959 61.1544 57.1151 64.6158Z" fill="url(#paint24_radial_10554_2132)"/>
<path d="M58.89 76.9301C54.4936 76.9301 47.7185 84.0816 53.0421 90.2568C58.3657 96.4319 83.7329 98.9015 94.167 97.8368C104.601 96.7721 102.117 82.6794 95.516 83.9571C97.2196 82.4665 93.5996 76.9301 87.8501 77.995C88.0631 73.7362 76.9901 68.4126 71.0277 74.1619C68.8983 69.2642 56.5476 72.2454 58.89 76.9301Z" fill="url(#paint25_radial_10554_2132)"/>
<path d="M33.1738 56.2502C27.9814 56.5387 24.5191 51.779 21.346 53.2213C21.346 53.2213 15.4328 72.1154 11.2509 79.3269C7.06907 86.5385 4.83219 94.6154 14.712 105.865C24.5918 117.115 41.3949 117.981 41.3949 117.981H78.7507C74.8084 107.019 65.3084 85.0964 58.8469 85.0964C56.9238 78.7502 51.7507 66.0002 46.443 65.7695C43.7507 62.5002 37.3276 56.0194 33.1738 56.2502Z" fill="url(#paint26_linear_10554_2132)"/>
<path d="M33.1738 56.2502C27.9814 56.5387 24.5191 51.779 21.346 53.2213C21.346 53.2213 15.4328 72.1154 11.2509 79.3269C7.06907 86.5385 4.83219 94.6154 14.712 105.865C24.5918 117.115 41.3949 117.981 41.3949 117.981H78.7507C74.8084 107.019 65.3084 85.0964 58.8469 85.0964C56.9238 78.7502 51.7507 66.0002 46.443 65.7695C43.7507 62.5002 37.3276 56.0194 33.1738 56.2502Z" fill="url(#paint27_radial_10554_2132)"/>
<path d="M33.1738 56.2502C27.9814 56.5387 24.5191 51.779 21.346 53.2213C21.346 53.2213 15.4328 72.1154 11.2509 79.3269C7.06907 86.5385 4.83219 94.6154 14.712 105.865C24.5918 117.115 41.3949 117.981 41.3949 117.981H78.7507C74.8084 107.019 65.3084 85.0964 58.8469 85.0964C56.9238 78.7502 51.7507 66.0002 46.443 65.7695C43.7507 62.5002 37.3276 56.0194 33.1738 56.2502Z" fill="url(#paint28_radial_10554_2132)"/>
<path d="M98.6238 79.2345C95.3972 79.9897 89.1495 83.3535 90.5916 91.3858C92.0336 99.4182 130.136 111.158 141.257 104.567C152.378 97.9765 148.259 84.7954 141.257 84.7954C141.463 80.6764 128.076 79.2345 124.78 84.7954C124.986 81.7061 119.014 79.2345 114.071 79.2345C112.011 72.2321 98.2119 74.9095 98.6238 79.2345Z" fill="url(#paint29_radial_10554_2132)"/>
<path d="M98.6238 79.2345C95.3972 79.9897 89.1495 83.3535 90.5916 91.3858C92.0336 99.4182 130.136 111.158 141.257 104.567C152.378 97.9765 148.259 84.7954 141.257 84.7954C141.463 80.6764 128.076 79.2345 124.78 84.7954C124.986 81.7061 119.014 79.2345 114.071 79.2345C112.011 72.2321 98.2119 74.9095 98.6238 79.2345Z" fill="url(#paint30_radial_10554_2132)"/>
<path d="M146.579 94.2052C144.658 92.2842 135.403 96.1262 140.118 103.112C145.648 104.974 157.652 108.071 161.424 105.557C166.139 102.413 163.345 93.1575 155.661 95.777C155.661 92.8081 147.453 90.5381 146.579 94.2052Z" fill="url(#paint31_radial_10554_2132)"/>
<path d="M130.114 91.4422C125.96 90.0576 114.922 92.9807 109.922 94.6153V119.423H180.306V115.962C179.441 111.058 156.364 108.462 149.73 107.308C143.095 106.154 141.364 100.385 139.922 97.5C138.48 94.6153 135.306 93.173 130.114 91.4422Z" fill="url(#paint32_linear_10554_2132)"/>
<path d="M130.114 91.4422C125.96 90.0576 114.922 92.9807 109.922 94.6153V119.423H180.306V115.962C179.441 111.058 156.364 108.462 149.73 107.308C143.095 106.154 141.364 100.385 139.922 97.5C138.48 94.6153 135.306 93.173 130.114 91.4422Z" fill="url(#paint33_radial_10554_2132)"/>
<path d="M130.114 91.4422C125.96 90.0576 114.922 92.9807 109.922 94.6153V119.423H180.306V115.962C179.441 111.058 156.364 108.462 149.73 107.308C143.095 106.154 141.364 100.385 139.922 97.5C138.48 94.6153 135.306 93.173 130.114 91.4422Z" fill="url(#paint34_radial_10554_2132)"/>
<path d="M117.116 111.635C115.674 105.577 111.751 92.5385 107.597 88.8462C105.674 89.6154 101.712 92.4808 101.251 97.7885C100.789 103.096 111.635 109.231 117.116 111.635Z" fill="url(#paint35_linear_10554_2132)"/>
<path d="M117.116 111.635C115.674 105.577 111.751 92.5385 107.597 88.8462C105.674 89.6154 101.712 92.4808 101.251 97.7885C100.789 103.096 111.635 109.231 117.116 111.635Z" fill="url(#paint36_radial_10554_2132)"/>
<path d="M92.8845 87.1154C89.7115 87.1154 32.0192 103.846 21.0576 119.423H121.154C123.461 119.423 121.442 110.192 118.846 109.904C116.25 109.615 109.904 104.135 105.865 99.8077C101.827 95.4807 108.173 90.5769 107.308 88.8461C106.442 87.1154 96.3461 89.7115 92.8845 87.1154Z" fill="url(#paint37_linear_10554_2132)"/>
<path d="M92.8845 87.1154C89.7115 87.1154 32.0192 103.846 21.0576 119.423H121.154C123.461 119.423 121.442 110.192 118.846 109.904C116.25 109.615 109.904 104.135 105.865 99.8077C101.827 95.4807 108.173 90.5769 107.308 88.8461C106.442 87.1154 96.3461 89.7115 92.8845 87.1154Z" fill="url(#paint38_radial_10554_2132)"/>
<path d="M130.096 109.904C128.784 113.654 126.923 119.423 126.923 119.423H203.654C202.788 117.981 200.192 114.519 196.731 112.212C192.404 109.327 185.192 113.077 181.442 107.885C177.692 102.692 166.154 102.692 163.846 100.385C162.231 101.077 160.673 105.673 160.096 107.885C155.577 106.058 145.846 102.461 143.077 102.692C140.307 102.923 131.408 106.154 130.096 109.904Z" fill="url(#paint39_linear_10554_2132)"/>
<path d="M130.096 109.904C128.784 113.654 126.923 119.423 126.923 119.423H203.654C202.788 117.981 200.192 114.519 196.731 112.212C192.404 109.327 185.192 113.077 181.442 107.885C177.692 102.692 166.154 102.692 163.846 100.385C162.231 101.077 160.673 105.673 160.096 107.885C155.577 106.058 145.846 102.461 143.077 102.692C140.307 102.923 131.408 106.154 130.096 109.904Z" fill="url(#paint40_radial_10554_2132)"/>
<path d="M130.096 109.904C128.784 113.654 126.923 119.423 126.923 119.423H203.654C202.788 117.981 200.192 114.519 196.731 112.212C192.404 109.327 185.192 113.077 181.442 107.885C177.692 102.692 166.154 102.692 163.846 100.385C162.231 101.077 160.673 105.673 160.096 107.885C155.577 106.058 145.846 102.461 143.077 102.692C140.307 102.923 131.408 106.154 130.096 109.904Z" fill="url(#paint41_radial_10554_2132)"/>
<path d="M130.096 109.904C128.784 113.654 126.923 119.423 126.923 119.423H203.654C202.788 117.981 200.192 114.519 196.731 112.212C192.404 109.327 185.192 113.077 181.442 107.885C177.692 102.692 166.154 102.692 163.846 100.385C162.231 101.077 160.673 105.673 160.096 107.885C155.577 106.058 145.846 102.461 143.077 102.692C140.307 102.923 131.408 106.154 130.096 109.904Z" fill="url(#paint42_radial_10554_2132)"/>
<path d="M184.617 98.2935C186.203 100.162 189.665 113.674 188.511 119.423H227.886C226.155 111.805 214.761 100.594 210.29 99.5873C208.992 97.8624 199.761 93.5502 194.713 95.1312C190.675 94.2688 183.03 96.4249 184.617 98.2935Z" fill="url(#paint43_linear_10554_2132)"/>
<path d="M184.617 98.2935C186.203 100.162 189.665 113.674 188.511 119.423H227.886C226.155 111.805 214.761 100.594 210.29 99.5873C208.992 97.8624 199.761 93.5502 194.713 95.1312C190.675 94.2688 183.03 96.4249 184.617 98.2935Z" fill="url(#paint44_radial_10554_2132)"/>
<path d="M184.617 98.2935C186.203 100.162 189.665 113.674 188.511 119.423H227.886C226.155 111.805 214.761 100.594 210.29 99.5873C208.992 97.8624 199.761 93.5502 194.713 95.1312C190.675 94.2688 183.03 96.4249 184.617 98.2935Z" fill="url(#paint45_radial_10554_2132)"/>
<path d="M194.71 95.1324C199.757 93.552 208.984 97.8594 210.287 99.5855C210.48 99.6289 210.687 99.6945 210.905 99.7748L210.287 104.187C206.152 103.948 197.277 102.919 194.854 100.735C190.644 100.848 187.874 100.422 184.411 97.8367C184.244 96.0961 190.997 94.3402 194.71 95.1324Z" fill="url(#paint46_linear_10554_2132)"/>
<path d="M194.71 95.1324C199.757 93.552 208.984 97.8594 210.287 99.5855C210.48 99.6289 210.687 99.6945 210.905 99.7748L210.287 104.187C206.152 103.948 197.277 102.919 194.854 100.735C190.644 100.848 187.874 100.422 184.411 97.8367C184.244 96.0961 190.997 94.3402 194.71 95.1324Z" fill="url(#paint47_radial_10554_2132)"/>
<path d="M114.988 107.948C116.563 109.055 117.934 109.803 118.846 109.904C121.442 110.192 123.462 119.423 121.154 119.423H93.5156C96.3601 115.999 99.8815 111.955 100.673 111.779C101.692 111.552 110.481 109.172 114.988 107.948Z" fill="url(#paint48_radial_10554_2132)"/>
<path d="M204.087 92.7116C204.327 93.795 204.404 96.9794 202.789 101.049V119.28H237.981C236.875 111.601 234.26 95.9336 232.644 94.69C230.625 93.1355 222.26 80.5581 219.664 77.3077C217.356 77.3077 214.904 79.9928 211.154 81.5473C205.457 81.9713 201.274 85.1981 198.967 85.9989C199.063 86.7526 198.967 87.3414 198.967 88.472C198.967 89.6025 200.914 90.7331 204.087 92.7116Z" fill="url(#paint49_linear_10554_2132)"/>
<path d="M204.087 92.7116C204.327 93.795 204.404 96.9794 202.789 101.049V119.28H237.981C236.875 111.601 234.26 95.9336 232.644 94.69C230.625 93.1355 222.26 80.5581 219.664 77.3077C217.356 77.3077 214.904 79.9928 211.154 81.5473C205.457 81.9713 201.274 85.1981 198.967 85.9989C199.063 86.7526 198.967 87.3414 198.967 88.472C198.967 89.6025 200.914 90.7331 204.087 92.7116Z" fill="url(#paint50_radial_10554_2132)"/>
<path d="M204.087 92.7116C204.327 93.795 204.404 96.9794 202.789 101.049V119.28H237.981C236.875 111.601 234.26 95.9336 232.644 94.69C230.625 93.1355 222.26 80.5581 219.664 77.3077C217.356 77.3077 214.904 79.9928 211.154 81.5473C205.457 81.9713 201.274 85.1981 198.967 85.9989C199.063 86.7526 198.967 87.3414 198.967 88.472C198.967 89.6025 200.914 90.7331 204.087 92.7116Z" fill="url(#paint51_radial_10554_2132)"/>
<path d="M219.663 77.3077C222.26 80.5583 230.625 93.1378 232.644 94.6924C234.26 95.9422 236.875 111.603 237.981 119.28H229.845C227.553 113.367 223.571 97.0226 220.962 95.3955C217.789 93.4174 214.038 94.2659 209.135 88.896C204.601 89.1428 201.828 87.8797 199.277 85.8626C201.641 84.9016 205.709 81.9543 211.154 81.5491C214.904 79.9946 217.356 77.3077 219.663 77.3077Z" fill="url(#paint52_linear_10554_2132)"/>
<path d="M219.402 77.3257C221.24 78.1817 223.225 85.4741 223.991 89.0359C221.192 86.953 215.624 83.34 210.812 81.5807C210.925 81.5699 211.039 81.5577 211.154 81.5491C214.762 80.0532 217.17 77.5156 219.402 77.3257Z" fill="url(#paint53_radial_10554_2132)"/>
<defs>
<linearGradient id="paint0_linear_10554_2132" x1="185.588" y1="13.4116" x2="176.081" y2="58.325" gradientUnits="userSpaceOnUse">
<stop stop-color="#B6E7F7"/>
<stop offset="0.501935" stop-color="#EDE2F3"/>
<stop offset="1" stop-color="#FFD6C8"/>
</linearGradient>
<radialGradient id="paint1_radial_10554_2132" cx="0" cy="0" r="1" gradientTransform="matrix(71.138 9.66777 -5.35904 50.9044 67.0241 38.1302)" gradientUnits="userSpaceOnUse">
<stop stop-color="#FFEFBF"/>
<stop offset="1" stop-color="#FFBF4D" stop-opacity="0"/>
</radialGradient>
<linearGradient id="paint2_linear_10554_2132" x1="143.828" y1="11.428" x2="143.828" y2="26.8964" gradientUnits="userSpaceOnUse">
<stop offset="0.03" stop-color="#C3BCD6"/>
<stop offset="1" stop-color="#FF9AD0" stop-opacity="0"/>
</linearGradient>
<linearGradient id="paint3_linear_10554_2132" x1="73.2621" y1="19.6154" x2="73.2621" y2="33.6018" gradientUnits="userSpaceOnUse">
<stop offset="0.03" stop-color="#C3BCD6"/>
<stop offset="1" stop-color="#FF99CF" stop-opacity="0"/>
</linearGradient>
<linearGradient id="paint4_linear_10554_2132" x1="53.492" y1="35.138" x2="53.492" y2="52.9484" gradientUnits="userSpaceOnUse">
<stop stop-color="#FFB349"/>
<stop offset="1" stop-color="#FFED85"/>
</linearGradient>
<linearGradient id="paint5_linear_10554_2132" x1="175.526" y1="74.7735" x2="172.046" y2="45.9023" gradientUnits="userSpaceOnUse">
<stop stop-color="#A8B5F8"/>
<stop offset="1" stop-color="#C3A6DC"/>
</linearGradient>
<linearGradient id="paint6_linear_10554_2132" x1="182.019" y1="40.0961" x2="177.692" y2="81.0577" gradientUnits="userSpaceOnUse">
<stop stop-color="#065DAB"/>
<stop offset="1" stop-color="#658381"/>
</linearGradient>
<radialGradient id="paint7_radial_10554_2132" cx="0" cy="0" r="1" gradientUnits="userSpaceOnUse" gradientTransform="translate(165 50.5574) rotate(-21.5755) scale(36.2929 13.6733)">
<stop offset="0.0409444" stop-color="#FFD7BE" stop-opacity="0.4"/>
<stop offset="0.620192" stop-color="#F7CCC1" stop-opacity="0.3"/>
<stop offset="0.866356" stop-color="#F1C4C4" stop-opacity="0"/>
</radialGradient>
<radialGradient id="paint8_radial_10554_2132" cx="0" cy="0" r="1" gradientUnits="userSpaceOnUse" gradientTransform="translate(205.096 50.5574) rotate(-30.145) scale(30.0218 10.3964)">
<stop offset="0.0409444" stop-color="#FFD7BE" stop-opacity="0.4"/>
<stop offset="0.505206" stop-color="#F7CCC1" stop-opacity="0.3"/>
<stop offset="0.866356" stop-color="#F1C4C4" stop-opacity="0"/>
</radialGradient>
<linearGradient id="paint9_linear_10554_2132" x1="187.643" y1="61.5842" x2="192.692" y2="90.8659" gradientUnits="userSpaceOnUse">
<stop stop-color="#73A1C2"/>
<stop offset="0.504808" stop-color="#1667BC" stop-opacity="0"/>
</linearGradient>
<linearGradient id="paint10_linear_10554_2132" x1="40.4096" y1="48.5337" x2="40.6544" y2="61.2644" gradientUnits="userSpaceOnUse">
<stop stop-color="#9BA2EA"/>
<stop offset="1" stop-color="#B8C7FC"/>
</linearGradient>
<linearGradient id="paint11_linear_10554_2132" x1="43.8915" y1="32.9973" x2="64.2209" y2="168.617" gradientUnits="userSpaceOnUse">
<stop stop-color="#4D756A"/>
<stop offset="1" stop-color="#374D81"/>
</linearGradient>
<radialGradient id="paint12_radial_10554_2132" cx="0" cy="0" r="1" gradientTransform="matrix(-26.8629 -32.6999 5.58095 -6.53236 116.501 46.3312)" gradientUnits="userSpaceOnUse">
<stop offset="0.0409444" stop-color="#FFD7BE" stop-opacity="0.4"/>
<stop offset="0.480769" stop-color="#F7CCC1" stop-opacity="0.3"/>
<stop offset="0.866356" stop-color="#F1C4C4" stop-opacity="0"/>
</radialGradient>
<radialGradient id="paint13_radial_10554_2132" cx="0" cy="0" r="1" gradientTransform="matrix(35.1079 -35.2397 9.94507 14.1168 68.3606 38.0769)" gradientUnits="userSpaceOnUse">
<stop offset="0.0409444" stop-color="#FFD7BE" stop-opacity="0.4"/>
<stop offset="0.548077" stop-color="#F7CCC1" stop-opacity="0.3"/>
<stop offset="0.866356" stop-color="#F1C4C4" stop-opacity="0"/>
</radialGradient>
<linearGradient id="paint14_linear_10554_2132" x1="84.3159" y1="73.6323" x2="123.335" y2="50.3941" gradientUnits="userSpaceOnUse">
<stop stop-color="#033153"/>
<stop offset="1" stop-color="#033153" stop-opacity="0"/>
</linearGradient>
<linearGradient id="paint15_linear_10554_2132" x1="165.439" y1="90.7868" x2="182.512" y2="62.762" gradientUnits="userSpaceOnUse">
<stop stop-color="#033153"/>
<stop offset="1" stop-color="#033153" stop-opacity="0"/>
</linearGradient>
<linearGradient id="paint16_linear_10554_2132" x1="184.313" y1="87.1064" x2="181.764" y2="103.979" gradientUnits="userSpaceOnUse">
<stop stop-color="#9A8F0B"/>
<stop offset="1" stop-color="#3F7A08"/>
</linearGradient>
<radialGradient id="paint17_radial_10554_2132" cx="0" cy="0" r="1" gradientUnits="userSpaceOnUse" gradientTransform="translate(184.183 84.0865) rotate(2.70272) scale(23.8246 13.7255)">
<stop stop-color="#566B40" stop-opacity="0"/>
<stop offset="1" stop-color="#173B38"/>
</radialGradient>
<radialGradient id="paint18_radial_10554_2132" cx="0" cy="0" r="1" gradientUnits="userSpaceOnUse" gradientTransform="translate(179.424 82.7885) rotate(13.0428) scale(35.7587 10.6182)">
<stop offset="0.249836" stop-color="#B4B61E"/>
<stop offset="1" stop-color="#B4B61E" stop-opacity="0"/>
</radialGradient>
<linearGradient id="paint19_linear_10554_2132" x1="124.038" y1="65.4813" x2="117.628" y2="114.231" gradientUnits="userSpaceOnUse">
<stop stop-color="#9A8F0B"/>
<stop offset="1" stop-color="#3F7A08"/>
</linearGradient>
<radialGradient id="paint20_radial_10554_2132" cx="0" cy="0" r="1" gradientUnits="userSpaceOnUse" gradientTransform="translate(102.98 68.9428) rotate(14.4929) scale(114.112 39.7966)">
<stop offset="0.298837" stop-color="#566B40" stop-opacity="0"/>
<stop offset="1" stop-color="#040503"/>
</radialGradient>
<radialGradient id="paint21_radial_10554_2132" cx="0" cy="0" r="1" gradientUnits="userSpaceOnUse" gradientTransform="translate(110.769 60.0315) rotate(8.23458) scale(113.329 22.3518)">
<stop offset="0.249836" stop-color="#B4B61E"/>
<stop offset="1" stop-color="#B4B61E" stop-opacity="0"/>
</radialGradient>
<radialGradient id="paint22_radial_10554_2132" cx="0" cy="0" r="1" gradientUnits="userSpaceOnUse" gradientTransform="translate(98.0766 103.414) rotate(9.95747) scale(104.263 36.3618)">
<stop offset="0.588276" stop-color="#173B38"/>
<stop offset="0.905" stop-color="#447712" stop-opacity="0"/>
</radialGradient>
<radialGradient id="paint23_radial_10554_2132" cx="0" cy="0" r="1" gradientUnits="userSpaceOnUse" gradientTransform="translate(78.1728 61.7313) rotate(0.671404) scale(36.9256 10.6081)">
<stop offset="0.249836" stop-color="#B4B61E"/>
<stop offset="1" stop-color="#B4B61E" stop-opacity="0"/>
</radialGradient>
<radialGradient id="paint24_radial_10554_2132" cx="0" cy="0" r="1" gradientUnits="userSpaceOnUse" gradientTransform="translate(141.923 75.289) rotate(-153.93) scale(29.8655 8.57985)">
<stop offset="0.249836" stop-color="#B4B61E"/>
<stop offset="1" stop-color="#B4B61E" stop-opacity="0"/>
</radialGradient>
<radialGradient id="paint25_radial_10554_2132" cx="0" cy="0" r="1" gradientUnits="userSpaceOnUse" gradientTransform="translate(64.4928 93.8049) rotate(9.0433) scale(54.381 28.0232)">
<stop offset="0.322115" stop-color="#325227"/>
<stop offset="0.840973" stop-color="#B4B61E"/>
</radialGradient>
<linearGradient id="paint26_linear_10554_2132" x1="17.3087" y1="46.1539" x2="87.9818" y2="127.5" gradientUnits="userSpaceOnUse">
<stop stop-color="#D7B9B5"/>
<stop offset="1" stop-color="#253140"/>
</linearGradient>
<radialGradient id="paint27_radial_10554_2132" cx="0" cy="0" r="1" gradientUnits="userSpaceOnUse" gradientTransform="translate(26.9863 94.7596) rotate(-132.459) scale(69.0108 37.847)">
<stop offset="0.731761" stop-color="#F1C4C4" stop-opacity="0"/>
<stop offset="0.959056" stop-color="#FFD7BE"/>
</radialGradient>
<radialGradient id="paint28_radial_10554_2132" cx="0" cy="0" r="1" gradientUnits="userSpaceOnUse" gradientTransform="translate(48.4626 65.4808) rotate(78.5842) scale(61.211 67.0846)">
<stop offset="0.442461" stop-color="#232C3D" stop-opacity="0"/>
<stop offset="1" stop-color="#232C3D"/>
</radialGradient>
<radialGradient id="paint29_radial_10554_2132" cx="0" cy="0" r="1" gradientUnits="userSpaceOnUse" gradientTransform="translate(113.798 76.5865) rotate(9.95807) scale(19.1832 14.3437)">
<stop offset="0.173077" stop-color="#B4B61E"/>
<stop offset="1" stop-color="#B4B61E" stop-opacity="0"/>
</radialGradient>
<radialGradient id="paint30_radial_10554_2132" cx="0" cy="0" r="1" gradientUnits="userSpaceOnUse" gradientTransform="translate(144.952 82.6442) rotate(-164.11) scale(20.5447 9.16677)">
<stop offset="0.249836" stop-color="#B4B61E"/>
<stop offset="1" stop-color="#B4B61E" stop-opacity="0"/>
</radialGradient>
<radialGradient id="paint31_radial_10554_2132" cx="0" cy="0" r="1" gradientTransform="matrix(17.5893 2.59261 -1.11092 8.17218 151.264 93.9657)" gradientUnits="userSpaceOnUse">
<stop offset="0.249836" stop-color="#B4B61E"/>
<stop offset="1" stop-color="#B4B61E" stop-opacity="0"/>
</radialGradient>
<linearGradient id="paint32_linear_10554_2132" x1="119.442" y1="88.1193" x2="140.19" y2="142.401" gradientUnits="userSpaceOnUse">
<stop stop-color="#D7B9B5"/>
<stop offset="1" stop-color="#253140"/>
</linearGradient>
<radialGradient id="paint33_radial_10554_2132" cx="0" cy="0" r="1" gradientUnits="userSpaceOnUse" gradientTransform="translate(143.656 114.231) rotate(128.752) scale(28.1113 21.0872)">
<stop stop-color="#232C3D"/>
<stop offset="0.712467" stop-color="#232C3D" stop-opacity="0.580371"/>
<stop offset="1" stop-color="#232C3D" stop-opacity="0"/>
</radialGradient>
<radialGradient id="paint34_radial_10554_2132" cx="0" cy="0" r="1" gradientUnits="userSpaceOnUse" gradientTransform="translate(122.31 86.5384) rotate(-19.1602) scale(36.0346 17.1497)">
<stop offset="0.0409444" stop-color="#FFD7BE"/>
<stop offset="1" stop-color="#F1C4C4" stop-opacity="0"/>
</radialGradient>
<linearGradient id="paint35_linear_10554_2132" x1="112.933" y1="96.6347" x2="93.6062" y2="109.471" gradientUnits="userSpaceOnUse">
<stop stop-color="#D7B9B5"/>
<stop offset="1" stop-color="#253140"/>
</linearGradient>
<radialGradient id="paint36_radial_10554_2132" cx="0" cy="0" r="1" gradientUnits="userSpaceOnUse" gradientTransform="translate(103.27 90.7212) rotate(69.8352) scale(27.1958 10.1152)">
<stop stop-color="#232C3D"/>
<stop offset="1" stop-color="#232C3D" stop-opacity="0"/>
</radialGradient>
<linearGradient id="paint37_linear_10554_2132" x1="34.7332" y1="83.7398" x2="54.4307" y2="148.681" gradientUnits="userSpaceOnUse">
<stop stop-color="#D7B9B5"/>
<stop offset="1" stop-color="#253140"/>
</linearGradient>
<radialGradient id="paint38_radial_10554_2132" cx="0" cy="0" r="1" gradientUnits="userSpaceOnUse" gradientTransform="translate(77.3076 87.1154) rotate(10.3048) scale(48.3765 23.2551)">
<stop offset="0.0409444" stop-color="#FFD7BE"/>
<stop offset="1" stop-color="#F1C4C4" stop-opacity="0"/>
</radialGradient>
<linearGradient id="paint39_linear_10554_2132" x1="137.301" y1="98.3955" x2="146.626" y2="137.989" gradientUnits="userSpaceOnUse">
<stop stop-color="#D7B9B5"/>
<stop offset="1" stop-color="#253140"/>
</linearGradient>
<radialGradient id="paint40_radial_10554_2132" cx="0" cy="0" r="1" gradientUnits="userSpaceOnUse" gradientTransform="translate(187.5 102.692) rotate(103.158) scale(22.8104 7.8146)">
<stop stop-color="#232C3D"/>
<stop offset="1" stop-color="#232C3D" stop-opacity="0"/>
</radialGradient>
<radialGradient id="paint41_radial_10554_2132" cx="0" cy="0" r="1" gradientUnits="userSpaceOnUse" gradientTransform="translate(165.288 89.7116) rotate(94.2891) scale(34.7126 5.68005)">
<stop offset="0.0409444" stop-color="#FFD7BE"/>
<stop offset="1" stop-color="#F1C4C4" stop-opacity="0"/>
</radialGradient>
<radialGradient id="paint42_radial_10554_2132" cx="0" cy="0" r="1" gradientUnits="userSpaceOnUse" gradientTransform="translate(132.981 100.385) rotate(91.1233) scale(29.4287 12.7181)">
<stop offset="0.0409444" stop-color="#FFD7BE"/>
<stop offset="1" stop-color="#F1C4C4" stop-opacity="0"/>
</radialGradient>
<linearGradient id="paint43_linear_10554_2132" x1="190.285" y1="92.2151" x2="212.84" y2="134.158" gradientUnits="userSpaceOnUse">
<stop stop-color="#D7B9B5"/>
<stop offset="1" stop-color="#253140"/>
</linearGradient>
<radialGradient id="paint44_radial_10554_2132" cx="0" cy="0" r="1" gradientTransform="matrix(15.4327 6.75575 -1.17622 16.3058 188.078 115.111)" gradientUnits="userSpaceOnUse">
<stop stop-color="#232C3D" stop-opacity="0"/>
<stop offset="1" stop-color="#232C3D"/>
</radialGradient>
<radialGradient id="paint45_radial_10554_2132" cx="0" cy="0" r="1" gradientUnits="userSpaceOnUse" gradientTransform="translate(184.403 119.423) rotate(-97.5355) scale(20.3683 16.6839)">
<stop offset="0.0409444" stop-color="#FFD7BE"/>
<stop offset="1" stop-color="#F1C4C4" stop-opacity="0"/>
</radialGradient>
<linearGradient id="paint46_linear_10554_2132" x1="185.503" y1="88.154" x2="197.59" y2="114.466" gradientUnits="userSpaceOnUse">
<stop stop-color="#D7B9B5"/>
<stop offset="1" stop-color="#253140"/>
</linearGradient>
<radialGradient id="paint47_radial_10554_2132" cx="0" cy="0" r="1" gradientTransform="matrix(21.6997 -0.537614 0.174093 6.98067 190.606 92.508)" gradientUnits="userSpaceOnUse">
<stop stop-color="#FFD7BE"/>
<stop offset="1" stop-color="#F1C4C4" stop-opacity="0"/>
</radialGradient>
<radialGradient id="paint48_radial_10554_2132" cx="0" cy="0" r="1" gradientUnits="userSpaceOnUse" gradientTransform="translate(96.9231 109.327) rotate(47.3171) scale(17.6581)">
<stop stop-color="#232C3D"/>
<stop offset="1" stop-color="#232C3D" stop-opacity="0"/>
</radialGradient>
<linearGradient id="paint49_linear_10554_2132" x1="204.244" y1="72.9225" x2="250.298" y2="118.022" gradientUnits="userSpaceOnUse">
<stop stop-color="#D7B9B5"/>
<stop offset="1" stop-color="#253140"/>
</linearGradient>
<radialGradient id="paint50_radial_10554_2132" cx="0" cy="0" r="1" gradientTransform="matrix(21.0577 21.0566 -15.4371 14.8209 205.962 109.529)" gradientUnits="userSpaceOnUse">
<stop offset="0.09764" stop-color="#232C3D" stop-opacity="0"/>
<stop offset="1" stop-color="#232C3D"/>
</radialGradient>
<radialGradient id="paint51_radial_10554_2132" cx="0" cy="0" r="1" gradientUnits="userSpaceOnUse" gradientTransform="translate(198.967 119.28) rotate(-90) scale(28.1257 12.132)">
<stop offset="0.0409444" stop-color="#FFD7BE"/>
<stop offset="1" stop-color="#F1C4C4" stop-opacity="0"/>
</radialGradient>
<linearGradient id="paint52_linear_10554_2132" x1="204.884" y1="66.4446" x2="259.555" y2="123.747" gradientUnits="userSpaceOnUse">
<stop stop-color="#D7B9B5"/>
<stop offset="1" stop-color="#253140"/>
</linearGradient>
<radialGradient id="paint53_radial_10554_2132" cx="0" cy="0" r="1" gradientTransform="matrix(1.15385 14.5539 -14.8558 1.1304 213.894 74.482)" gradientUnits="userSpaceOnUse">
<stop offset="0.0409444" stop-color="#FFD7BE"/>
<stop offset="1" stop-color="#F1C4C4" stop-opacity="0"/>
</radialGradient>
</defs>
</svg>
