<svg viewBox="0 0 240 120" fill="none" xmlns="http://www.w3.org/2000/svg">
<path d="M240 94.234C165.333 88.8733 33.6672 93.8521 2.30768 120L240 120V107.117V94.234Z" fill="url(#paint0_linear_1751_476)"/>
<path d="M240 94.234C165.333 88.8733 33.6672 93.8521 2.30768 120L240 120V107.117V94.234Z" fill="url(#paint1_radial_1751_476)"/>
<path d="M240 94.234C165.332 88.8733 33.6679 93.8521 2.30768 120L240 120V94.234Z" fill="url(#paint2_radial_1751_476)"/>
<path d="M149.166 111.046C139.917 112.548 121.168 114.77 114.805 114.77V105.784C119.021 104.415 132.94 96.4114 142.484 94.3574C154.415 91.7899 208.122 101.472 149.166 111.046Z" fill="url(#paint3_radial_1751_476)"/>
<path d="M118.363 107.225H85.2425V103.216C89.7784 101.847 101.418 100.292 111.688 98.2385C124.525 95.671 130.944 107.225 118.363 107.225Z" fill="url(#paint4_radial_1751_476)"/>
<path d="M181.604 110.725H147.071V106.545C151.8 105.117 163.936 103.497 174.644 101.355C188.029 98.6783 194.721 110.725 181.604 110.725Z" fill="url(#paint5_radial_1751_476)"/>
<path d="M159.653 104.039C159.613 102.587 160.499 100.644 161.333 100.517C162.167 100.39 162.746 100.517 162.746 100.517L162.409 106.667C162.409 106.667 161.211 106.628 160.952 106.635C160.274 106.654 159.692 105.491 159.653 104.039Z" fill="#02000B"/>
<path d="M156.068 103.189C156.028 101.737 156.915 99.7938 157.749 99.6669C158.583 99.5399 159.161 99.6669 159.161 99.6669L158.824 105.816C158.824 105.816 157.627 105.778 157.368 105.785C156.69 105.803 156.108 104.641 156.068 103.189Z" fill="#02000B"/>
<ellipse cx="162.432" cy="103.592" rx="1.69689" ry="3.08937" transform="rotate(4.20828 162.432 103.592)" fill="url(#paint6_linear_1751_476)"/>
<ellipse cx="162.432" cy="103.592" rx="1.69689" ry="3.08937" transform="rotate(4.20828 162.432 103.592)" fill="url(#paint7_radial_1751_476)"/>
<ellipse cx="162.432" cy="103.592" rx="1.69689" ry="3.08937" transform="rotate(4.20828 162.432 103.592)" fill="url(#paint8_radial_1751_476)"/>
<ellipse cx="162.432" cy="103.592" rx="1.69689" ry="3.08937" transform="rotate(4.20828 162.432 103.592)" fill="url(#paint9_radial_1751_476)"/>
<ellipse cx="162.432" cy="103.592" rx="1.69689" ry="3.08937" transform="rotate(4.20828 162.432 103.592)" fill="url(#paint10_radial_1751_476)"/>
<ellipse cx="158.848" cy="102.741" rx="1.69689" ry="3.08937" transform="rotate(4.36234 158.848 102.741)" fill="url(#paint11_linear_1751_476)"/>
<ellipse cx="158.848" cy="102.741" rx="1.69689" ry="3.08937" transform="rotate(4.36234 158.848 102.741)" fill="url(#paint12_radial_1751_476)"/>
<ellipse cx="158.848" cy="102.741" rx="1.69689" ry="3.08937" transform="rotate(4.36234 158.848 102.741)" fill="url(#paint13_radial_1751_476)"/>
<ellipse cx="158.848" cy="102.741" rx="1.69689" ry="3.08937" transform="rotate(4.36234 158.848 102.741)" fill="url(#paint14_radial_1751_476)"/>
<ellipse cx="158.848" cy="102.741" rx="1.69689" ry="3.08937" transform="rotate(4.36234 158.848 102.741)" fill="url(#paint15_radial_1751_476)"/>
<path d="M134.748 14.5714V39.321H138.717V17.1482C138.717 14.0993 141.204 15.8962 144.023 15.602C146.9 15.3017 150.207 12.5108 150.207 15.0441V38.7627H154.243V13.1972C154.243 9.71894 151.667 9.11775 150.207 9.24658C148.747 9.37541 138.913 10.7925 138.226 10.9213C137.539 11.0501 134.748 11.0072 134.748 14.5714Z" fill="#ACAAB8"/>
<path d="M134.748 14.5714V39.321H138.717V17.1482C138.717 14.0993 141.204 15.8962 144.023 15.602C146.9 15.3017 150.207 12.5108 150.207 15.0441V38.7627H154.243V13.1972C154.243 9.71894 151.667 9.11775 150.207 9.24658C148.747 9.37541 138.913 10.7925 138.226 10.9213C137.539 11.0501 134.748 11.0072 134.748 14.5714Z" fill="url(#paint16_radial_1751_476)"/>
<path d="M134.748 14.5714V39.321H138.717V17.1482C138.717 14.0993 141.204 15.8962 144.023 15.602C146.9 15.3017 150.207 12.5108 150.207 15.0441V38.7627H154.243V13.1972C154.243 9.71894 151.667 9.11775 150.207 9.24658C148.747 9.37541 138.913 10.7925 138.226 10.9213C137.539 11.0501 134.748 11.0072 134.748 14.5714Z" fill="url(#paint17_linear_1751_476)"/>
<path d="M161.577 37.4505C160.418 37.2188 152.339 36.2094 150.746 35.8715L151.615 105.755C157.553 103.22 164.473 100.527 164.473 94.5884V41.506C164.473 39.4782 163.025 37.7402 161.577 37.4505Z" fill="url(#paint18_linear_1751_476)"/>
<path d="M161.577 37.4505C160.418 37.2188 152.339 36.2094 150.746 35.8715L151.615 105.755C157.553 103.22 164.473 100.527 164.473 94.5884V41.506C164.473 39.4782 163.025 37.7402 161.577 37.4505Z" fill="url(#paint19_linear_1751_476)"/>
<path d="M161.577 37.4505C160.418 37.2188 152.339 36.2094 150.746 35.8715L151.615 105.755C157.553 103.22 164.473 100.527 164.473 94.5884V41.506C164.473 39.4782 163.025 37.7402 161.577 37.4505Z" fill="url(#paint20_linear_1751_476)"/>
<circle cx="146.369" cy="108.491" r="3.7086" fill="#02000B"/>
<path d="M161.391 70.1528C161.391 65.3865 160.514 63.6322 160.514 58.6344C160.514 57.7077 163.991 57.5218 163.991 58.5148V70.153V82.263C163.991 83.256 160.514 83.0612 160.514 82.1344C160.514 76.3421 161.391 74.3893 161.391 70.1528Z" fill="black"/>
<path d="M161.391 70.1528C161.391 65.3865 160.514 63.6322 160.514 58.6344C160.514 57.7077 163.991 57.5218 163.991 58.5148V70.153V82.263C163.991 83.256 160.514 83.0612 160.514 82.1344C160.514 76.3421 161.391 74.3893 161.391 70.1528Z" fill="url(#paint21_radial_1751_476)"/>
<path d="M161.391 70.1528C161.391 65.3865 160.514 63.6322 160.514 58.6344C160.514 57.7077 163.991 57.5218 163.991 58.5148V70.153V82.263C163.991 83.256 160.514 83.0612 160.514 82.1344C160.514 76.3421 161.391 74.3893 161.391 70.1528Z" fill="url(#paint22_radial_1751_476)"/>
<path d="M162.195 70.1528C162.195 65.3866 161.318 63.6323 161.318 58.6345C161.318 57.7078 164.064 57.6418 164.064 58.6347C164.064 63.4339 164.795 65.3868 164.795 70.153C164.795 74.9192 164.064 76.21 164.064 82.1347C164.064 83.1277 161.318 83.0613 161.318 82.1345C161.318 76.3422 162.195 74.3894 162.195 70.1528Z" fill="url(#paint23_radial_1751_476)"/>
<circle cx="146.369" cy="110.158" r="3.7086" transform="rotate(90 146.369 110.158)" fill="url(#paint24_linear_1751_476)"/>
<circle cx="146.369" cy="110.158" r="3.7086" transform="rotate(90 146.369 110.158)" fill="url(#paint25_radial_1751_476)"/>
<circle cx="146.369" cy="110.158" r="3.7086" transform="rotate(90 146.369 110.158)" fill="url(#paint26_radial_1751_476)"/>
<circle cx="146.369" cy="110.158" r="3.7086" transform="rotate(90 146.369 110.158)" fill="url(#paint27_radial_1751_476)"/>
<circle cx="146.369" cy="110.158" r="3.7086" transform="rotate(90 146.369 110.158)" fill="url(#paint28_radial_1751_476)"/>
<path d="M124.236 102.854C124.351 104.623 123.942 106.09 123.322 106.131C122.954 106.155 121.964 106.131 121.964 106.131L121.565 99.7241C121.565 99.7241 122.665 99.7395 122.902 99.724C123.523 99.6834 124.12 101.085 124.236 102.854Z" fill="#02000B"/>
<ellipse cx="121.779" cy="102.928" rx="1.12606" ry="3.21025" transform="rotate(176.3 121.779 102.928)" fill="url(#paint29_linear_1751_476)"/>
<ellipse cx="121.779" cy="102.928" rx="1.12606" ry="3.21025" transform="rotate(176.3 121.779 102.928)" fill="url(#paint30_radial_1751_476)"/>
<ellipse cx="121.779" cy="102.928" rx="1.12606" ry="3.21025" transform="rotate(176.3 121.779 102.928)" fill="url(#paint31_radial_1751_476)"/>
<ellipse cx="121.779" cy="102.928" rx="1.12606" ry="3.21025" transform="rotate(176.3 121.779 102.928)" fill="url(#paint32_radial_1751_476)"/>
<ellipse cx="121.779" cy="102.928" rx="1.12606" ry="3.21025" transform="rotate(176.3 121.779 102.928)" fill="url(#paint33_radial_1751_476)"/>
<path d="M121.949 104.715L117.985 104.907L117.34 101.137L122.388 100.788L121.949 104.715Z" fill="url(#paint34_linear_1751_476)"/>
<path d="M119.963 103.506C120.079 105.276 119.67 106.743 119.049 106.783C118.682 106.807 117.691 106.784 117.691 106.784L117.293 100.377C117.293 100.377 118.393 100.392 118.63 100.377C119.25 100.336 119.847 101.737 119.963 103.506Z" fill="#02000B"/>
<path d="M157.963 36.9248C157.71 36.8902 157.451 36.8548 157.189 36.819C154.578 36.4625 151.64 36.0612 150.746 35.8715L151.615 105.755C151.853 105.653 152.093 105.551 152.333 105.449C154.464 104.543 156.678 103.602 158.623 102.488C159.188 101.488 159.557 100.274 159.557 98.8492V40.625C159.557 38.8603 158.737 37.6328 157.963 36.9248Z" fill="url(#paint35_linear_1751_476)"/>
<path d="M157.963 36.9248C157.71 36.8902 157.451 36.8548 157.189 36.819C154.578 36.4625 151.64 36.0612 150.746 35.8715L151.615 105.755C151.853 105.653 152.093 105.551 152.333 105.449C154.464 104.543 156.678 103.602 158.623 102.488C159.188 101.488 159.557 100.274 159.557 98.8492V40.625C159.557 38.8603 158.737 37.6328 157.963 36.9248Z" fill="url(#paint36_linear_1751_476)"/>
<ellipse cx="117.506" cy="103.579" rx="1.12606" ry="3.21025" transform="rotate(177.351 117.506 103.579)" fill="url(#paint37_linear_1751_476)"/>
<ellipse cx="117.506" cy="103.579" rx="1.12606" ry="3.21025" transform="rotate(177.351 117.506 103.579)" fill="url(#paint38_radial_1751_476)"/>
<ellipse cx="117.506" cy="103.579" rx="1.12606" ry="3.21025" transform="rotate(177.351 117.506 103.579)" fill="url(#paint39_radial_1751_476)"/>
<ellipse cx="117.506" cy="103.579" rx="1.12606" ry="3.21025" transform="rotate(177.351 117.506 103.579)" fill="url(#paint40_radial_1751_476)"/>
<ellipse cx="117.506" cy="103.579" rx="1.12606" ry="3.21025" transform="rotate(177.351 117.506 103.579)" fill="url(#paint41_radial_1751_476)"/>
<path d="M144.848 35.7263C140.908 36.0739 126.43 37.3678 119.284 38.0437C117.176 38.243 114.722 39.999 114.722 42.9681V95.1091C114.722 100.034 119.14 101.409 121.095 101.916C123.05 102.423 136.747 105.539 140.793 106.117C144.848 106.696 150.424 106.479 152.017 105.755C153.929 104.885 156.218 102.641 156.218 99.0921V40.868C156.218 38.0437 154.117 36.5953 153.466 36.4505C152.814 36.3056 149.772 35.2918 144.848 35.7263Z" fill="url(#paint42_linear_1751_476)"/>
<path d="M144.848 35.7263C140.908 36.0739 126.43 37.3678 119.284 38.0437C117.176 38.243 114.722 39.999 114.722 42.9681V95.1091C114.722 100.034 119.14 101.409 121.095 101.916C123.05 102.423 136.747 105.539 140.793 106.117C144.848 106.696 150.424 106.479 152.017 105.755C153.929 104.885 156.218 102.641 156.218 99.0921V40.868C156.218 38.0437 154.117 36.5953 153.466 36.4505C152.814 36.3056 149.772 35.2918 144.848 35.7263Z" fill="url(#paint43_linear_1751_476)"/>
<path d="M144.848 35.7263C140.908 36.0739 126.43 37.3678 119.284 38.0437C117.176 38.243 114.722 39.999 114.722 42.9681V95.1091C114.722 100.034 119.14 101.409 121.095 101.916C123.05 102.423 136.747 105.539 140.793 106.117C144.848 106.696 150.424 106.479 152.017 105.755C153.929 104.885 156.218 102.641 156.218 99.0921V40.868C156.218 38.0437 154.117 36.5953 153.466 36.4505C152.814 36.3056 149.772 35.2918 144.848 35.7263Z" fill="url(#paint44_linear_1751_476)"/>
<path d="M144.848 35.7263C140.908 36.0739 126.43 37.3678 119.284 38.0437C117.176 38.243 114.722 39.999 114.722 42.9681V95.1091C114.722 100.034 119.14 101.409 121.095 101.916C123.05 102.423 136.747 105.539 140.793 106.117C144.848 106.696 150.424 106.479 152.017 105.755C153.929 104.885 156.218 102.641 156.218 99.0921V40.868C156.218 38.0437 154.117 36.5953 153.466 36.4505C152.814 36.3056 149.772 35.2918 144.848 35.7263Z" fill="url(#paint45_linear_1751_476)"/>
<path d="M144.848 35.7263C140.908 36.0739 126.43 37.3678 119.284 38.0437C117.176 38.243 114.722 39.999 114.722 42.9681V95.1091C114.722 100.034 119.14 101.409 121.095 101.916C123.05 102.423 136.747 105.539 140.793 106.117C144.848 106.696 150.424 106.479 152.017 105.755C153.929 104.885 156.218 102.641 156.218 99.0921V40.868C156.218 38.0437 154.117 36.5953 153.466 36.4505C152.814 36.3056 149.772 35.2918 144.848 35.7263Z" fill="url(#paint46_linear_1751_476)"/>
<path d="M144.848 35.7263C140.908 36.0739 126.43 37.3678 119.284 38.0437C117.176 38.243 114.722 39.999 114.722 42.9681V95.1091C114.722 100.034 119.14 101.409 121.095 101.916C123.05 102.423 136.747 105.539 140.793 106.117C144.848 106.696 150.424 106.479 152.017 105.755C153.929 104.885 156.218 102.641 156.218 99.0921V40.868C156.218 38.0437 154.117 36.5953 153.466 36.4505C152.814 36.3056 149.772 35.2918 144.848 35.7263Z" fill="url(#paint47_radial_1751_476)"/>
<path d="M144.848 35.7263C140.908 36.0739 126.43 37.3678 119.284 38.0437C117.176 38.243 114.722 39.999 114.722 42.9681V95.1091C114.722 100.034 119.14 101.409 121.095 101.916C123.05 102.423 136.747 105.539 140.793 106.117C144.848 106.696 150.424 106.479 152.017 105.755C153.929 104.885 156.218 102.641 156.218 99.0921V40.868C156.218 38.0437 154.117 36.5953 153.466 36.4505C152.814 36.3056 149.772 35.2918 144.848 35.7263Z" fill="url(#paint48_linear_1751_476)"/>
<path d="M144.848 35.7263C140.908 36.0739 126.43 37.3678 119.284 38.0437C117.176 38.243 114.722 39.999 114.722 42.9681V95.1091C114.722 100.034 119.14 101.409 121.095 101.916C123.05 102.423 136.747 105.539 140.793 106.117C144.848 106.696 150.424 106.479 152.017 105.755C153.929 104.885 156.218 102.641 156.218 99.0921V40.868C156.218 38.0437 154.117 36.5953 153.466 36.4505C152.814 36.3056 149.772 35.2918 144.848 35.7263Z" fill="url(#paint49_linear_1751_476)"/>
<path d="M126.035 106.88C125.997 105.491 126.845 103.634 127.642 103.513C128.439 103.391 128.992 103.513 128.992 103.513L128.67 109.392C128.67 109.392 127.525 109.355 127.277 109.362C126.629 109.38 126.073 108.268 126.035 106.88Z" fill="#02000B"/>
<path d="M122.608 106.066C122.57 104.677 123.417 102.82 124.215 102.698C125.012 102.577 125.565 102.698 125.565 102.698L125.242 108.578C125.242 108.578 124.098 108.541 123.85 108.548C123.202 108.565 122.646 107.454 122.608 106.066Z" fill="#02000B"/>
<ellipse cx="128.693" cy="106.451" rx="1.62238" ry="2.95373" transform="rotate(4.20828 128.693 106.451)" fill="url(#paint50_linear_1751_476)"/>
<ellipse cx="128.693" cy="106.451" rx="1.62238" ry="2.95373" transform="rotate(4.20828 128.693 106.451)" fill="url(#paint51_radial_1751_476)"/>
<ellipse cx="128.693" cy="106.451" rx="1.62238" ry="2.95373" transform="rotate(4.20828 128.693 106.451)" fill="url(#paint52_radial_1751_476)"/>
<ellipse cx="128.693" cy="106.451" rx="1.62238" ry="2.95373" transform="rotate(4.20828 128.693 106.451)" fill="url(#paint53_radial_1751_476)"/>
<ellipse cx="128.693" cy="106.451" rx="1.62238" ry="2.95373" transform="rotate(4.20828 128.693 106.451)" fill="url(#paint54_radial_1751_476)"/>
<ellipse cx="125.266" cy="105.638" rx="1.62238" ry="2.95373" transform="rotate(4.36234 125.266 105.638)" fill="url(#paint55_linear_1751_476)"/>
<ellipse cx="125.266" cy="105.638" rx="1.62238" ry="2.95373" transform="rotate(4.36234 125.266 105.638)" fill="url(#paint56_radial_1751_476)"/>
<ellipse cx="125.266" cy="105.638" rx="1.62238" ry="2.95373" transform="rotate(4.36234 125.266 105.638)" fill="url(#paint57_radial_1751_476)"/>
<ellipse cx="125.266" cy="105.638" rx="1.62238" ry="2.95373" transform="rotate(4.36234 125.266 105.638)" fill="url(#paint58_radial_1751_476)"/>
<ellipse cx="125.266" cy="105.638" rx="1.62238" ry="2.95373" transform="rotate(4.36234 125.266 105.638)" fill="url(#paint59_radial_1751_476)"/>
<path d="M102.224 30.9023V46.6683H106.019V33.366C106.019 30.451 108.397 32.169 111.092 31.8877C113.843 31.6006 117.004 28.9322 117.004 31.3542V46.1346H120.863V29.5885C120.863 26.2629 118.4 25.6881 117.004 25.8113C115.608 25.9345 106.206 27.2893 105.549 27.4125C104.892 27.5357 102.224 27.4946 102.224 30.9023Z" fill="#ACAAB8"/>
<path d="M102.224 30.9023V46.6683H106.019V33.366C106.019 30.451 108.397 32.169 111.092 31.8877C113.843 31.6006 117.004 28.9322 117.004 31.3542V46.1346H120.863V29.5885C120.863 26.2629 118.4 25.6881 117.004 25.8113C115.608 25.9345 106.206 27.2893 105.549 27.4125C104.892 27.5357 102.224 27.4946 102.224 30.9023Z" fill="url(#paint60_radial_1751_476)"/>
<path d="M102.224 30.9023V46.6683H106.019V33.366C106.019 30.451 108.397 32.169 111.092 31.8877C113.843 31.6006 117.004 28.9322 117.004 31.3542V46.1346H120.863V29.5885C120.863 26.2629 118.4 25.6881 117.004 25.8113C115.608 25.9345 106.206 27.2893 105.549 27.4125C104.892 27.5357 102.224 27.4946 102.224 30.9023Z" fill="url(#paint61_linear_1751_476)"/>
<path d="M127.874 43.2137C126.766 42.9921 119.042 42.0271 117.519 41.7039L118.35 108.519C124.027 106.096 130.644 103.52 130.644 97.8428V47.091C130.644 45.1523 129.259 43.4906 127.874 43.2137Z" fill="url(#paint62_linear_1751_476)"/>
<path d="M127.874 43.2137C126.766 42.9921 119.042 42.0271 117.519 41.7039L118.35 108.519C124.027 106.096 130.644 103.52 130.644 97.8428V47.091C130.644 45.1523 129.259 43.4906 127.874 43.2137Z" fill="url(#paint63_linear_1751_476)"/>
<path d="M127.874 43.2137C126.766 42.9921 119.042 42.0271 117.519 41.7039L118.35 108.519C124.027 106.096 130.644 103.52 130.644 97.8428V47.091C130.644 45.1523 129.259 43.4906 127.874 43.2137Z" fill="url(#paint64_linear_1751_476)"/>
<circle cx="113.334" cy="111.136" r="3.54577" fill="#02000B"/>
<path d="M127.697 74.4815C127.697 69.9245 126.858 68.2473 126.858 63.4689C126.858 62.5828 130.183 62.4052 130.183 63.3546V74.4817V86.0601C130.183 87.0094 126.858 86.8232 126.858 85.9372C126.858 80.3991 127.697 78.5321 127.697 74.4815Z" fill="black"/>
<path d="M127.697 74.4815C127.697 69.9245 126.858 68.2473 126.858 63.4689C126.858 62.5828 130.183 62.4052 130.183 63.3546V74.4817V86.0601C130.183 87.0094 126.858 86.8232 126.858 85.9372C126.858 80.3991 127.697 78.5321 127.697 74.4815Z" fill="url(#paint65_radial_1751_476)"/>
<path d="M127.697 74.4815C127.697 69.9245 126.858 68.2473 126.858 63.4689C126.858 62.5828 130.183 62.4052 130.183 63.3546V74.4817V86.0601C130.183 87.0094 126.858 86.8232 126.858 85.9372C126.858 80.3991 127.697 78.5321 127.697 74.4815Z" fill="url(#paint66_radial_1751_476)"/>
<path d="M128.466 74.4802C128.466 69.9232 127.627 68.246 127.627 63.4676C127.627 62.5815 130.252 62.5185 130.252 63.4678C130.252 68.0563 130.951 69.9235 130.951 74.4804C130.951 79.0374 130.252 80.2714 130.252 85.9361C130.252 86.8854 127.627 86.8219 127.627 85.9359C127.627 80.3978 128.466 78.5308 128.466 74.4802Z" fill="url(#paint67_radial_1751_476)"/>
<circle cx="113.334" cy="112.729" r="3.54577" transform="rotate(90 113.334 112.729)" fill="url(#paint68_linear_1751_476)"/>
<circle cx="113.334" cy="112.729" r="3.54577" transform="rotate(90 113.334 112.729)" fill="url(#paint69_radial_1751_476)"/>
<circle cx="113.334" cy="112.729" r="3.54577" transform="rotate(90 113.334 112.729)" fill="url(#paint70_radial_1751_476)"/>
<circle cx="113.334" cy="112.729" r="3.54577" transform="rotate(90 113.334 112.729)" fill="url(#paint71_radial_1751_476)"/>
<circle cx="113.334" cy="112.729" r="3.54577" transform="rotate(90 113.334 112.729)" fill="url(#paint72_radial_1751_476)"/>
<path d="M92.173 105.746C92.2837 107.437 91.8924 108.84 91.299 108.879C90.948 108.902 90.0008 108.879 90.0008 108.879L89.62 102.753C89.62 102.753 90.6714 102.768 90.8983 102.753C91.4916 102.714 92.0623 104.054 92.173 105.746Z" fill="#02000B"/>
<ellipse cx="89.8241" cy="105.817" rx="1.07662" ry="3.0693" transform="rotate(176.3 89.8241 105.817)" fill="url(#paint73_linear_1751_476)"/>
<ellipse cx="89.8241" cy="105.817" rx="1.07662" ry="3.0693" transform="rotate(176.3 89.8241 105.817)" fill="url(#paint74_radial_1751_476)"/>
<ellipse cx="89.8241" cy="105.817" rx="1.07662" ry="3.0693" transform="rotate(176.3 89.8241 105.817)" fill="url(#paint75_radial_1751_476)"/>
<ellipse cx="89.8241" cy="105.817" rx="1.07662" ry="3.0693" transform="rotate(176.3 89.8241 105.817)" fill="url(#paint76_radial_1751_476)"/>
<ellipse cx="89.8241" cy="105.817" rx="1.07662" ry="3.0693" transform="rotate(176.3 89.8241 105.817)" fill="url(#paint77_radial_1751_476)"/>
<path d="M88.0878 106.37C88.1984 108.061 87.8072 109.464 87.2138 109.503C86.8628 109.526 85.9156 109.503 85.9156 109.503L85.5348 103.377C85.5348 103.377 86.5862 103.392 86.8131 103.377C87.4064 103.338 87.9771 104.678 88.0878 106.37Z" fill="#02000B"/>
<path d="M90.061 107.196L86.2713 107.379L85.6546 103.775L90.4803 103.44L90.061 107.196Z" fill="url(#paint78_linear_1751_476)"/>
<ellipse cx="85.7389" cy="106.44" rx="1.07662" ry="3.0693" transform="rotate(177.351 85.7389 106.44)" fill="url(#paint79_linear_1751_476)"/>
<ellipse cx="85.7389" cy="106.44" rx="1.07662" ry="3.0693" transform="rotate(177.351 85.7389 106.44)" fill="url(#paint80_radial_1751_476)"/>
<ellipse cx="85.7389" cy="106.44" rx="1.07662" ry="3.0693" transform="rotate(177.351 85.7389 106.44)" fill="url(#paint81_radial_1751_476)"/>
<ellipse cx="85.7389" cy="106.44" rx="1.07662" ry="3.0693" transform="rotate(177.351 85.7389 106.44)" fill="url(#paint82_radial_1751_476)"/>
<ellipse cx="85.7389" cy="106.44" rx="1.07662" ry="3.0693" transform="rotate(177.351 85.7389 106.44)" fill="url(#paint83_radial_1751_476)"/>
<path d="M124.419 42.7111C124.177 42.6779 123.93 42.6441 123.679 42.6099C121.183 42.269 118.374 41.8853 117.519 41.7039L118.35 108.519C118.578 108.422 118.807 108.325 119.037 108.227C121.074 107.361 123.191 106.461 125.05 105.395C125.59 104.439 125.943 103.278 125.943 101.916V46.2484C125.943 44.5616 125.16 43.3881 124.419 42.7111Z" fill="url(#paint84_linear_1751_476)"/>
<path d="M124.419 42.7111C124.177 42.6779 123.93 42.6441 123.679 42.6099C121.183 42.269 118.374 41.8853 117.519 41.7039L118.35 108.519C118.578 108.422 118.807 108.325 119.037 108.227C121.074 107.361 123.191 106.461 125.05 105.395C125.59 104.439 125.943 103.278 125.943 101.916V46.2484C125.943 44.5616 125.16 43.3881 124.419 42.7111Z" fill="url(#paint85_linear_1751_476)"/>
<path d="M111.88 41.5666C108.114 41.8989 94.2705 43.136 87.4389 43.7822C85.4229 43.9727 83.0769 45.6517 83.0769 48.4904V98.3421C83.0769 103.05 87.3005 104.366 89.1699 104.851C91.0393 105.335 104.135 108.314 108.003 108.866C111.88 109.42 117.211 109.213 118.735 108.52C120.563 107.689 122.751 105.543 122.751 102.15V46.4825C122.751 43.7822 120.743 42.3974 120.119 42.2589C119.496 42.1205 116.588 41.1511 111.88 41.5666Z" fill="url(#paint86_linear_1751_476)"/>
<path d="M111.88 41.5666C108.114 41.8989 94.2705 43.136 87.4389 43.7822C85.4229 43.9727 83.0769 45.6517 83.0769 48.4904V98.3421C83.0769 103.05 87.3005 104.366 89.1699 104.851C91.0393 105.335 104.135 108.314 108.003 108.866C111.88 109.42 117.211 109.213 118.735 108.52C120.563 107.689 122.751 105.543 122.751 102.15V46.4825C122.751 43.7822 120.743 42.3974 120.119 42.2589C119.496 42.1205 116.588 41.1511 111.88 41.5666Z" fill="url(#paint87_linear_1751_476)"/>
<path d="M111.88 41.5666C108.114 41.8989 94.2705 43.136 87.4389 43.7822C85.4229 43.9727 83.0769 45.6517 83.0769 48.4904V98.3421C83.0769 103.05 87.3005 104.366 89.1699 104.851C91.0393 105.335 104.135 108.314 108.003 108.866C111.88 109.42 117.211 109.213 118.735 108.52C120.563 107.689 122.751 105.543 122.751 102.15V46.4825C122.751 43.7822 120.743 42.3974 120.119 42.2589C119.496 42.1205 116.588 41.1511 111.88 41.5666Z" fill="url(#paint88_linear_1751_476)"/>
<path d="M111.88 41.5666C108.114 41.8989 94.2705 43.136 87.4389 43.7822C85.4229 43.9727 83.0769 45.6517 83.0769 48.4904V98.3421C83.0769 103.05 87.3005 104.366 89.1699 104.851C91.0393 105.335 104.135 108.314 108.003 108.866C111.88 109.42 117.211 109.213 118.735 108.52C120.563 107.689 122.751 105.543 122.751 102.15V46.4825C122.751 43.7822 120.743 42.3974 120.119 42.2589C119.496 42.1205 116.588 41.1511 111.88 41.5666Z" fill="url(#paint89_linear_1751_476)"/>
<path d="M111.88 41.5666C108.114 41.8989 94.2705 43.136 87.4389 43.7822C85.4229 43.9727 83.0769 45.6517 83.0769 48.4904V98.3421C83.0769 103.05 87.3005 104.366 89.1699 104.851C91.0393 105.335 104.135 108.314 108.003 108.866C111.88 109.42 117.211 109.213 118.735 108.52C120.563 107.689 122.751 105.543 122.751 102.15V46.4825C122.751 43.7822 120.743 42.3974 120.119 42.2589C119.496 42.1205 116.588 41.1511 111.88 41.5666Z" fill="url(#paint90_linear_1751_476)"/>
<path d="M111.88 41.5666C108.114 41.8989 94.2705 43.136 87.4389 43.7822C85.4229 43.9727 83.0769 45.6517 83.0769 48.4904V98.3421C83.0769 103.05 87.3005 104.366 89.1699 104.851C91.0393 105.335 104.135 108.314 108.003 108.866C111.88 109.42 117.211 109.213 118.735 108.52C120.563 107.689 122.751 105.543 122.751 102.15V46.4825C122.751 43.7822 120.743 42.3974 120.119 42.2589C119.496 42.1205 116.588 41.1511 111.88 41.5666Z" fill="url(#paint91_radial_1751_476)"/>
<path d="M111.88 41.5666C108.114 41.8989 94.2705 43.136 87.4389 43.7822C85.4229 43.9727 83.0769 45.6517 83.0769 48.4904V98.3421C83.0769 103.05 87.3005 104.366 89.1699 104.851C91.0393 105.335 104.135 108.314 108.003 108.866C111.88 109.42 117.211 109.213 118.735 108.52C120.563 107.689 122.751 105.543 122.751 102.15V46.4825C122.751 43.7822 120.743 42.3974 120.119 42.2589C119.496 42.1205 116.588 41.1511 111.88 41.5666Z" fill="url(#paint92_linear_1751_476)"/>
<path d="M111.88 41.5666C108.114 41.8989 94.2705 43.136 87.4389 43.7822C85.4229 43.9727 83.0769 45.6517 83.0769 48.4904V98.3421C83.0769 103.05 87.3005 104.366 89.1699 104.851C91.0393 105.335 104.135 108.314 108.003 108.866C111.88 109.42 117.211 109.213 118.735 108.52C120.563 107.689 122.751 105.543 122.751 102.15V46.4825C122.751 43.7822 120.743 42.3974 120.119 42.2589C119.496 42.1205 116.588 41.1511 111.88 41.5666Z" fill="url(#paint93_linear_1751_476)"/>
<path d="M169.072 42.9519C167.424 32.4183 176.071 26.4031 191.014 27.8256L216.842 33.6929C220.17 36.4185 227.105 43.9203 228.223 52.1229C229.62 62.376 221.708 74.2923 201.824 69.7699C181.941 65.2474 170.719 53.4854 169.072 42.9519Z" fill="url(#paint94_radial_1751_476)"/>
<path d="M169.072 42.9519C167.424 32.4183 176.071 26.4031 191.014 27.8256L216.842 33.6929C220.17 36.4185 227.105 43.9203 228.223 52.1229C229.62 62.376 221.708 74.2923 201.824 69.7699C181.941 65.2474 170.719 53.4854 169.072 42.9519Z" fill="url(#paint95_radial_1751_476)"/>
<path d="M169.072 42.9519C167.424 32.4183 176.071 26.4031 191.014 27.8256L216.842 33.6929C220.17 36.4185 227.105 43.9203 228.223 52.1229C229.62 62.376 221.708 74.2923 201.824 69.7699C181.941 65.2474 170.719 53.4854 169.072 42.9519Z" fill="url(#paint96_radial_1751_476)"/>
<path d="M204.543 23.0958C201.844 22.7849 189.923 26.3793 187.473 29.2254C185.962 31.1475 182.561 35.5136 181.037 37.6018C179.133 40.2121 182.214 46.0847 192.124 53.6713C202.034 61.258 214.678 59.0357 216.804 54.3603C218.915 49.6307 223.23 39.8677 223.596 38.6523C224.054 37.133 221.681 32.8982 217.257 29.1346C212.833 25.371 207.243 23.4067 204.543 23.0958Z" fill="url(#paint97_radial_1751_476)"/>
<path d="M204.543 23.0958C201.844 22.7849 189.923 26.3793 187.473 29.2254C185.962 31.1475 182.561 35.5136 181.037 37.6018C179.133 40.2121 182.214 46.0847 192.124 53.6713C202.034 61.258 214.678 59.0357 216.804 54.3603C218.915 49.6307 223.23 39.8677 223.596 38.6523C224.054 37.133 221.681 32.8982 217.257 29.1346C212.833 25.371 207.243 23.4067 204.543 23.0958Z" fill="url(#paint98_radial_1751_476)"/>
<path d="M204.543 23.0958C201.844 22.7849 189.923 26.3793 187.473 29.2254C185.962 31.1475 182.561 35.5136 181.037 37.6018C179.133 40.2121 182.214 46.0847 192.124 53.6713C202.034 61.258 214.678 59.0357 216.804 54.3603C218.915 49.6307 223.23 39.8677 223.596 38.6523C224.054 37.133 221.681 32.8982 217.257 29.1346C212.833 25.371 207.243 23.4067 204.543 23.0958Z" fill="url(#paint99_radial_1751_476)"/>
<path d="M200.32 51.9192C190.142 49.1121 181.928 42.6325 182.469 35.8173C182.469 35.8173 179.038 39.0612 178.071 41.5908C178.003 48.4027 184.866 55.3425 195.958 58.9466C204.831 61.8299 215.179 58.6375 216.538 55.3041L219.476 48.4899C217.278 50.6575 210.497 54.7263 200.32 51.9192Z" fill="url(#paint100_radial_1751_476)"/>
<path d="M190.452 30.2451C190.887 31.5213 193.874 30.9693 199.479 31.7092C205.085 32.4492 213.212 35.248 218.006 36.6883C220.223 37.3544 220.189 36.9293 221.384 36.2917C218.783 30.5116 209.747 23.9675 204.41 24.5272C199.072 25.0868 189.811 28.3624 190.452 30.2451Z" fill="url(#paint101_radial_1751_476)"/>
<path d="M66.0635 34.9203L53.4805 38.2919L50.4925 34.597C49.5665 33.4715 48.0664 32.9994 46.7848 33.3428L33.0367 37.0265C31.6386 37.4012 30.5756 38.5601 30.4529 39.9666L29.7127 44.6604L25.0523 45.9092L24.3031 43.113L19.0601 44.5178L19.8094 47.314L17.1297 48.032C15.149 48.5627 14.0402 50.4832 14.571 52.4639L22.0946 80.5425C22.6253 82.5232 24.5458 83.632 26.5264 83.1013L75.4603 69.9895C77.4409 69.4588 78.5497 67.5383 78.019 65.5577L70.4953 37.479C69.9958 35.6148 68.0441 34.3895 66.0635 34.9203ZM49.8695 72.351C42.5294 74.3178 34.9953 69.968 33.0285 62.6279C31.0618 55.2878 35.4116 47.7537 42.7517 45.787C50.0917 43.8202 57.6258 48.17 59.5926 55.5101C61.5594 62.8502 57.2096 70.3843 49.8695 72.351Z" fill="url(#paint102_linear_1751_476)"/>
<path d="M66.0635 34.9203L53.4805 38.2919L50.4925 34.597C49.5665 33.4715 48.0664 32.9994 46.7848 33.3428L33.0367 37.0265C31.6386 37.4012 30.5756 38.5601 30.4529 39.9666L29.7127 44.6604L25.0523 45.9092L24.3031 43.113L19.0601 44.5178L19.8094 47.314L17.1297 48.032C15.149 48.5627 14.0402 50.4832 14.571 52.4639L22.0946 80.5425C22.6253 82.5232 24.5458 83.632 26.5264 83.1013L75.4603 69.9895C77.4409 69.4588 78.5497 67.5383 78.019 65.5577L70.4953 37.479C69.9958 35.6148 68.0441 34.3895 66.0635 34.9203ZM49.8695 72.351C42.5294 74.3178 34.9953 69.968 33.0285 62.6279C31.0618 55.2878 35.4116 47.7537 42.7517 45.787C50.0917 43.8202 57.6258 48.17 59.5926 55.5101C61.5594 62.8502 57.2096 70.3843 49.8695 72.351Z" fill="url(#paint103_linear_1751_476)"/>
<path d="M66.0635 34.9203L53.4805 38.2919L50.4925 34.597C49.5665 33.4715 48.0664 32.9994 46.7848 33.3428L33.0367 37.0265C31.6386 37.4012 30.5756 38.5601 30.4529 39.9666L29.7127 44.6604L25.0523 45.9092L24.3031 43.113L19.0601 44.5178L19.8094 47.314L17.1297 48.032C15.149 48.5627 14.0402 50.4832 14.571 52.4639L22.0946 80.5425C22.6253 82.5232 24.5458 83.632 26.5264 83.1013L75.4603 69.9895C77.4409 69.4588 78.5497 67.5383 78.019 65.5577L70.4953 37.479C69.9958 35.6148 68.0441 34.3895 66.0635 34.9203ZM49.8695 72.351C42.5294 74.3178 34.9953 69.968 33.0285 62.6279C31.0618 55.2878 35.4116 47.7537 42.7517 45.787C50.0917 43.8202 57.6258 48.17 59.5926 55.5101C61.5594 62.8502 57.2096 70.3843 49.8695 72.351Z" fill="url(#paint104_linear_1751_476)"/>
<path d="M66.0635 34.9203L53.4805 38.2919L50.4925 34.597C49.5665 33.4715 48.0664 32.9994 46.7848 33.3428L33.0367 37.0265C31.6386 37.4012 30.5756 38.5601 30.4529 39.9666L29.7127 44.6604L25.0523 45.9092L24.3031 43.113L19.0601 44.5178L19.8094 47.314L17.1297 48.032C15.149 48.5627 14.0402 50.4832 14.571 52.4639L22.0946 80.5425C22.6253 82.5232 24.5458 83.632 26.5264 83.1013L75.4603 69.9895C77.4409 69.4588 78.5497 67.5383 78.019 65.5577L70.4953 37.479C69.9958 35.6148 68.0441 34.3895 66.0635 34.9203ZM49.8695 72.351C42.5294 74.3178 34.9953 69.968 33.0285 62.6279C31.0618 55.2878 35.4116 47.7537 42.7517 45.787C50.0917 43.8202 57.6258 48.17 59.5926 55.5101C61.5594 62.8502 57.2096 70.3843 49.8695 72.351Z" fill="url(#paint105_linear_1751_476)"/>
<path d="M66.0635 34.9203L53.4805 38.2919L50.4925 34.597C49.5665 33.4715 48.0664 32.9994 46.7848 33.3428L33.0367 37.0265C31.6386 37.4012 30.5756 38.5601 30.4529 39.9666L29.7127 44.6604L25.0523 45.9092L24.3031 43.113L19.0601 44.5178L19.8094 47.314L17.1297 48.032C15.149 48.5627 14.0402 50.4832 14.571 52.4639L22.0946 80.5425C22.6253 82.5232 24.5458 83.632 26.5264 83.1013L75.4603 69.9895C77.4409 69.4588 78.5497 67.5383 78.019 65.5577L70.4953 37.479C69.9958 35.6148 68.0441 34.3895 66.0635 34.9203ZM49.8695 72.351C42.5294 74.3178 34.9953 69.968 33.0285 62.6279C31.0618 55.2878 35.4116 47.7537 42.7517 45.787C50.0917 43.8202 57.6258 48.17 59.5926 55.5101C61.5594 62.8502 57.2096 70.3843 49.8695 72.351Z" fill="url(#paint106_radial_1751_476)"/>
<path d="M42.7399 45.7439C35.4458 47.6983 31.0304 55.3462 32.9848 62.6402C34.9392 69.9343 42.5871 74.3498 49.8811 72.3953C57.1752 70.4409 61.5907 62.7931 59.6362 55.499C57.6818 48.2049 50.034 43.7895 42.7399 45.7439Z" fill="url(#paint107_linear_1751_476)"/>
<path d="M43.3448 48.0016C37.2863 49.625 33.6188 55.9773 35.2422 62.0358C36.8655 68.0942 43.2178 71.7617 49.2763 70.1384C55.3347 68.515 59.0022 62.1627 57.3789 56.1043C55.7555 50.0458 49.4032 46.3783 43.3448 48.0016Z" fill="url(#paint108_linear_1751_476)"/>
<path d="M60.2976 43.9806C60.7543 45.6851 62.4811 46.551 64.0306 46.1358C65.5801 45.7207 66.6426 44.1073 66.1859 42.4028C65.7291 40.6983 64.1573 39.7909 62.4529 40.2476C60.7484 40.7043 59.8409 42.2761 60.2976 43.9806Z" fill="url(#paint109_linear_1751_476)"/>
<path d="M60.2976 43.9806C60.7543 45.6851 62.4811 46.551 64.0306 46.1358C65.5801 45.7207 66.6426 44.1073 66.1859 42.4028C65.7291 40.6983 64.1573 39.7909 62.4529 40.2476C60.7484 40.7043 59.8409 42.2761 60.2976 43.9806Z" fill="url(#paint110_linear_1751_476)"/>
<path d="M60.2976 43.9806C60.7543 45.6851 62.4811 46.551 64.0306 46.1358C65.5801 45.7207 66.6426 44.1073 66.1859 42.4028C65.7291 40.6983 64.1573 39.7909 62.4529 40.2476C60.7484 40.7043 59.8409 42.2761 60.2976 43.9806Z" fill="url(#paint111_linear_1751_476)"/>
<path d="M18.5901 43.7288L24.6586 42.0669L25.6643 45.7668L19.5958 47.4287L18.5901 43.7288Z" fill="url(#paint112_linear_1751_476)"/>
<path d="M18.5901 43.7288L24.6586 42.0669L25.6643 45.7668L19.5958 47.4287L18.5901 43.7288Z" fill="url(#paint113_linear_1751_476)"/>
<defs>
<linearGradient id="paint0_linear_1751_476" x1="112.889" y1="91.4674" x2="115.326" y2="134.445" gradientUnits="userSpaceOnUse">
<stop stop-color="#BCBCBC"/>
<stop offset="0.59375" stop-color="#919191"/>
<stop offset="1" stop-color="#717171"/>
</linearGradient>
<radialGradient id="paint1_radial_1751_476" cx="0" cy="0" r="1" gradientUnits="userSpaceOnUse" gradientTransform="translate(144.93 93.0643) rotate(173.857) scale(157.985 17.9578)">
<stop stop-color="#B4968F"/>
<stop offset="1" stop-color="#B4968F" stop-opacity="0"/>
</radialGradient>
<radialGradient id="paint2_radial_1751_476" cx="0" cy="0" r="1" gradientUnits="userSpaceOnUse" gradientTransform="translate(109.851 122.546) scale(108.242 11.8045)">
<stop stop-color="#5E5E5E" stop-opacity="0.45"/>
<stop offset="1" stop-color="#5E5E5E" stop-opacity="0"/>
</radialGradient>
<radialGradient id="paint3_radial_1751_476" cx="0" cy="0" r="1" gradientUnits="userSpaceOnUse" gradientTransform="translate(116.356 107.58) rotate(-8.10328) scale(55.5547 8.50727)">
<stop stop-color="#48555C" stop-opacity="0.7"/>
<stop offset="1" stop-color="#48555C" stop-opacity="0"/>
</radialGradient>
<radialGradient id="paint4_radial_1751_476" cx="0" cy="0" r="1" gradientUnits="userSpaceOnUse" gradientTransform="translate(87.2965 105.684) rotate(-5.48616) scale(45.6539 6.51488)">
<stop stop-color="#48555C" stop-opacity="0.7"/>
<stop offset="1" stop-color="#48555C" stop-opacity="0"/>
</radialGradient>
<radialGradient id="paint5_radial_1751_476" cx="0" cy="0" r="1" gradientUnits="userSpaceOnUse" gradientTransform="translate(149.213 109.118) rotate(-5.48616) scale(47.6003 6.79263)">
<stop stop-color="#48555C" stop-opacity="0.7"/>
<stop offset="1" stop-color="#48555C" stop-opacity="0"/>
</radialGradient>
<linearGradient id="paint6_linear_1751_476" x1="162.49" y1="102.48" x2="158.593" y2="102.48" gradientUnits="userSpaceOnUse">
<stop stop-color="#2D273F"/>
<stop offset="0.544218" stop-color="#555671"/>
<stop offset="1" stop-color="#3E3A55"/>
</linearGradient>
<radialGradient id="paint7_radial_1751_476" cx="0" cy="0" r="1" gradientUnits="userSpaceOnUse" gradientTransform="translate(162.638 103.592) rotate(93.4874) scale(3.37367 1.86891)">
<stop offset="0.838542" stop-color="#1A1633" stop-opacity="0"/>
<stop offset="0.901042" stop-color="#1A1633"/>
</radialGradient>
<radialGradient id="paint8_radial_1751_476" cx="0" cy="0" r="1" gradientUnits="userSpaceOnUse" gradientTransform="translate(162.553 103.438) rotate(96.5824) scale(3.70075 2.09452)">
<stop offset="0.828324" stop-color="#C8D5EA" stop-opacity="0"/>
<stop offset="0.910599" stop-color="#C8D5EA"/>
</radialGradient>
<radialGradient id="paint9_radial_1751_476" cx="0" cy="0" r="1" gradientUnits="userSpaceOnUse" gradientTransform="translate(162.247 103.592) rotate(91.9317) scale(3.52389 1.94064)">
<stop offset="0.828324" stop-color="#9A8DCE" stop-opacity="0"/>
<stop offset="0.910599" stop-color="#9A8DCE"/>
</radialGradient>
<radialGradient id="paint10_radial_1751_476" cx="0" cy="0" r="1" gradientUnits="userSpaceOnUse" gradientTransform="translate(163.503 103.036) rotate(-135.29) scale(2.69335 3.20879)">
<stop offset="0.0843138" stop-color="#81798A" stop-opacity="0.7"/>
<stop offset="1" stop-color="#81798A" stop-opacity="0"/>
</radialGradient>
<linearGradient id="paint11_linear_1751_476" x1="158.906" y1="101.629" x2="155.008" y2="101.629" gradientUnits="userSpaceOnUse">
<stop stop-color="#2D273F"/>
<stop offset="0.544218" stop-color="#555671"/>
<stop offset="1" stop-color="#3E3A55"/>
</linearGradient>
<radialGradient id="paint12_radial_1751_476" cx="0" cy="0" r="1" gradientUnits="userSpaceOnUse" gradientTransform="translate(159.053 102.741) rotate(93.4874) scale(3.37367 1.86891)">
<stop offset="0.838542" stop-color="#1A1633" stop-opacity="0"/>
<stop offset="0.901042" stop-color="#1A1633"/>
</radialGradient>
<radialGradient id="paint13_radial_1751_476" cx="0" cy="0" r="1" gradientUnits="userSpaceOnUse" gradientTransform="translate(158.968 102.587) rotate(96.5824) scale(3.70075 2.09452)">
<stop offset="0.828324" stop-color="#C8D5EA" stop-opacity="0"/>
<stop offset="0.910599" stop-color="#C8D5EA"/>
</radialGradient>
<radialGradient id="paint14_radial_1751_476" cx="0" cy="0" r="1" gradientUnits="userSpaceOnUse" gradientTransform="translate(158.663 102.741) rotate(91.9317) scale(3.52389 1.94064)">
<stop offset="0.828324" stop-color="#9A8DCE" stop-opacity="0"/>
<stop offset="0.910599" stop-color="#9A8DCE"/>
</radialGradient>
<radialGradient id="paint15_radial_1751_476" cx="0" cy="0" r="1" gradientUnits="userSpaceOnUse" gradientTransform="translate(159.918 102.185) rotate(-135.29) scale(2.69335 3.20879)">
<stop offset="0.0843138" stop-color="#81798A" stop-opacity="0.7"/>
<stop offset="1" stop-color="#81798A" stop-opacity="0"/>
</radialGradient>
<radialGradient id="paint16_radial_1751_476" cx="0" cy="0" r="1" gradientUnits="userSpaceOnUse" gradientTransform="translate(147.282 10.7498) rotate(173.047) scale(14.1893 3.1831)">
<stop stop-color="white"/>
<stop offset="1" stop-color="#ACAAB8" stop-opacity="0"/>
</radialGradient>
<linearGradient id="paint17_linear_1751_476" x1="148.656" y1="29.3008" x2="148.656" y2="22.2583" gradientUnits="userSpaceOnUse">
<stop stop-color="#696969"/>
<stop offset="1" stop-color="#696969" stop-opacity="0"/>
</linearGradient>
<linearGradient id="paint18_linear_1751_476" x1="157.61" y1="35.8715" x2="157.61" y2="105.755" gradientUnits="userSpaceOnUse">
<stop stop-color="#8AD5BD"/>
<stop offset="1" stop-color="#75A797"/>
</linearGradient>
<linearGradient id="paint19_linear_1751_476" x1="155.183" y1="103.284" x2="159.7" y2="95.9285" gradientUnits="userSpaceOnUse">
<stop stop-color="#546E6F"/>
<stop offset="1" stop-color="#6D9292" stop-opacity="0"/>
</linearGradient>
<linearGradient id="paint20_linear_1751_476" x1="157.61" y1="35.8715" x2="157.61" y2="41.122" gradientUnits="userSpaceOnUse">
<stop stop-color="#97FAF8"/>
<stop offset="1" stop-color="#96FAFA" stop-opacity="0"/>
</linearGradient>
<radialGradient id="paint21_radial_1751_476" cx="0" cy="0" r="1" gradientUnits="userSpaceOnUse" gradientTransform="translate(162.049 69.0732) rotate(91.4061) scale(16.3887 0.657055)">
<stop stop-color="#A09FBF"/>
<stop offset="1" stop-opacity="0"/>
</radialGradient>
<radialGradient id="paint22_radial_1751_476" cx="0" cy="0" r="1" gradientUnits="userSpaceOnUse" gradientTransform="translate(161.61 62.9169) rotate(85.0891) scale(7.49772 0.650851)">
<stop stop-color="#A09FBF"/>
<stop offset="1" stop-opacity="0"/>
</radialGradient>
<radialGradient id="paint23_radial_1751_476" cx="0" cy="0" r="1" gradientUnits="userSpaceOnUse" gradientTransform="translate(163.877 65.7305) rotate(89.0762) scale(18.1404 2.52907)">
<stop stop-color="#6D6B75"/>
<stop offset="1" stop-color="#3D3535"/>
</radialGradient>
<linearGradient id="paint24_linear_1751_476" x1="146.495" y1="108.823" x2="137.977" y2="108.823" gradientUnits="userSpaceOnUse">
<stop stop-color="#2D273F"/>
<stop offset="0.544218" stop-color="#555671"/>
<stop offset="1" stop-color="#3E3A55"/>
</linearGradient>
<radialGradient id="paint25_radial_1751_476" cx="0" cy="0" r="1" gradientUnits="userSpaceOnUse" gradientTransform="translate(146.817 110.158) rotate(96.3312) scale(4.06717)">
<stop offset="0.838542" stop-color="#1A1633" stop-opacity="0"/>
<stop offset="0.901042" stop-color="#1A1633"/>
</radialGradient>
<radialGradient id="paint26_radial_1751_476" cx="0" cy="0" r="1" gradientUnits="userSpaceOnUse" gradientTransform="translate(146.632 109.973) rotate(101.864) scale(4.50957)">
<stop offset="0.828324" stop-color="#C8D5EA" stop-opacity="0"/>
<stop offset="0.910599" stop-color="#C8D5EA"/>
</radialGradient>
<radialGradient id="paint27_radial_1751_476" cx="0" cy="0" r="1" gradientUnits="userSpaceOnUse" gradientTransform="translate(145.964 110.158) rotate(93.5138) scale(4.23576)">
<stop offset="0.828324" stop-color="#9A8DCE" stop-opacity="0"/>
<stop offset="0.910599" stop-color="#9A8DCE"/>
</radialGradient>
<radialGradient id="paint28_radial_1751_476" cx="0" cy="0" r="1" gradientUnits="userSpaceOnUse" gradientTransform="translate(148.709 109.491) rotate(-151.466) scale(4.76173)">
<stop offset="0.0843138" stop-color="#81798A" stop-opacity="0.7"/>
<stop offset="1" stop-color="#81798A" stop-opacity="0"/>
</radialGradient>
<linearGradient id="paint29_linear_1751_476" x1="121.817" y1="101.772" x2="119.231" y2="101.772" gradientUnits="userSpaceOnUse">
<stop stop-color="#2D273F"/>
<stop offset="0.544218" stop-color="#555671"/>
<stop offset="1" stop-color="#3E3A55"/>
</linearGradient>
<radialGradient id="paint30_radial_1751_476" cx="0" cy="0" r="1" gradientUnits="userSpaceOnUse" gradientTransform="translate(121.915 102.928) rotate(92.2287) scale(3.50182 1.24157)">
<stop offset="0.838542" stop-color="#1A1633" stop-opacity="0"/>
<stop offset="0.901042" stop-color="#1A1633"/>
</radialGradient>
<radialGradient id="paint31_radial_1751_476" cx="0" cy="0" r="1" gradientUnits="userSpaceOnUse" gradientTransform="translate(121.859 102.768) rotate(94.2146) scale(3.83055 1.39537)">
<stop offset="0.828324" stop-color="#C8D5EA" stop-opacity="0"/>
<stop offset="0.910599" stop-color="#C8D5EA"/>
</radialGradient>
<radialGradient id="paint32_radial_1751_476" cx="0" cy="0" r="1" gradientUnits="userSpaceOnUse" gradientTransform="translate(121.656 102.928) rotate(91.2339) scale(3.66053 1.28825)">
<stop offset="0.828324" stop-color="#9A8DCE" stop-opacity="0"/>
<stop offset="0.910599" stop-color="#9A8DCE"/>
</radialGradient>
<radialGradient id="paint33_radial_1751_476" cx="0" cy="0" r="1" gradientUnits="userSpaceOnUse" gradientTransform="translate(122.489 102.35) rotate(-122.827) scale(2.34311 2.54341)">
<stop offset="0.0843138" stop-color="#81798A" stop-opacity="0.7"/>
<stop offset="1" stop-color="#81798A" stop-opacity="0"/>
</radialGradient>
<linearGradient id="paint34_linear_1751_476" x1="119.875" y1="100.689" x2="119.699" y2="105.169" gradientUnits="userSpaceOnUse">
<stop stop-color="#43415A"/>
<stop offset="1" stop-color="#02000B"/>
</linearGradient>
<linearGradient id="paint35_linear_1751_476" x1="155.475" y1="35.8715" x2="155.475" y2="105.755" gradientUnits="userSpaceOnUse">
<stop stop-color="#5FB097"/>
<stop offset="1" stop-color="#568D7C"/>
</linearGradient>
<linearGradient id="paint36_linear_1751_476" x1="155.475" y1="35.8715" x2="155.475" y2="43.1084" gradientUnits="userSpaceOnUse">
<stop stop-color="#B7BABB" stop-opacity="0.7"/>
<stop offset="1" stop-color="#B7BABB" stop-opacity="0"/>
</linearGradient>
<linearGradient id="paint37_linear_1751_476" x1="117.545" y1="102.423" x2="114.958" y2="102.423" gradientUnits="userSpaceOnUse">
<stop stop-color="#2D273F"/>
<stop offset="0.544218" stop-color="#555671"/>
<stop offset="1" stop-color="#3E3A55"/>
</linearGradient>
<radialGradient id="paint38_radial_1751_476" cx="0" cy="0" r="1" gradientUnits="userSpaceOnUse" gradientTransform="translate(117.643 103.579) rotate(92.2287) scale(3.50182 1.24157)">
<stop offset="0.838542" stop-color="#1A1633" stop-opacity="0"/>
<stop offset="0.901042" stop-color="#1A1633"/>
</radialGradient>
<radialGradient id="paint39_radial_1751_476" cx="0" cy="0" r="1" gradientUnits="userSpaceOnUse" gradientTransform="translate(117.586 103.418) rotate(94.2146) scale(3.83055 1.39537)">
<stop offset="0.828324" stop-color="#C8D5EA" stop-opacity="0"/>
<stop offset="0.910599" stop-color="#C8D5EA"/>
</radialGradient>
<radialGradient id="paint40_radial_1751_476" cx="0" cy="0" r="1" gradientUnits="userSpaceOnUse" gradientTransform="translate(117.384 103.579) rotate(91.2339) scale(3.66053 1.28825)">
<stop offset="0.828324" stop-color="#9A8DCE" stop-opacity="0"/>
<stop offset="0.910599" stop-color="#9A8DCE"/>
</radialGradient>
<radialGradient id="paint41_radial_1751_476" cx="0" cy="0" r="1" gradientUnits="userSpaceOnUse" gradientTransform="translate(118.217 103.001) rotate(-122.827) scale(2.34311 2.54341)">
<stop offset="0.0843138" stop-color="#81798A" stop-opacity="0.7"/>
<stop offset="1" stop-color="#81798A" stop-opacity="0"/>
</radialGradient>
<linearGradient id="paint42_linear_1751_476" x1="135.47" y1="35.6188" x2="135.47" y2="106.448" gradientUnits="userSpaceOnUse">
<stop stop-color="#7EE2C2"/>
<stop offset="1" stop-color="#55AD9C"/>
</linearGradient>
<linearGradient id="paint43_linear_1751_476" x1="138.129" y1="60.4933" x2="155.22" y2="60.4933" gradientUnits="userSpaceOnUse">
<stop offset="0.194915" stop-color="#519A87" stop-opacity="0"/>
<stop offset="0.416667" stop-color="#519987" stop-opacity="0.6"/>
<stop offset="0.652542" stop-color="#519A87" stop-opacity="0.4"/>
<stop offset="0.898305" stop-color="#519A87" stop-opacity="0"/>
</linearGradient>
<linearGradient id="paint44_linear_1751_476" x1="135.47" y1="40.3611" x2="135.47" y2="58.0311" gradientUnits="userSpaceOnUse">
<stop stop-color="#7ADBBC"/>
<stop offset="1" stop-color="#7ADABC" stop-opacity="0"/>
</linearGradient>
<linearGradient id="paint45_linear_1751_476" x1="135.47" y1="35.6188" x2="135.47" y2="40.9404" gradientUnits="userSpaceOnUse">
<stop stop-color="#97FAF8"/>
<stop offset="1" stop-color="#96FAFA" stop-opacity="0"/>
</linearGradient>
<linearGradient id="paint46_linear_1751_476" x1="160.289" y1="49.4857" x2="148.702" y2="49.4857" gradientUnits="userSpaceOnUse">
<stop stop-color="#96FAFA"/>
<stop offset="1" stop-color="#96FAFA" stop-opacity="0"/>
</linearGradient>
<radialGradient id="paint47_radial_1751_476" cx="0" cy="0" r="1" gradientUnits="userSpaceOnUse" gradientTransform="translate(147.254 36.7402) rotate(180) scale(7.24181 5.50377)">
<stop stop-color="#A0F0FB"/>
<stop offset="1" stop-color="#A0EFFB" stop-opacity="0"/>
</radialGradient>
<linearGradient id="paint48_linear_1751_476" x1="114.722" y1="67.0109" x2="120.169" y2="67.0109" gradientUnits="userSpaceOnUse">
<stop stop-color="#71BBA3"/>
<stop offset="1" stop-color="#71BBA3" stop-opacity="0"/>
</linearGradient>
<linearGradient id="paint49_linear_1751_476" x1="128.135" y1="103.944" x2="130.163" y2="94.0952" gradientUnits="userSpaceOnUse">
<stop stop-color="#568C7B"/>
<stop offset="1" stop-color="#568C7B" stop-opacity="0"/>
</linearGradient>
<linearGradient id="paint50_linear_1751_476" x1="128.748" y1="105.388" x2="125.022" y2="105.388" gradientUnits="userSpaceOnUse">
<stop stop-color="#2D273F"/>
<stop offset="0.544218" stop-color="#555671"/>
<stop offset="1" stop-color="#3E3A55"/>
</linearGradient>
<radialGradient id="paint51_radial_1751_476" cx="0" cy="0" r="1" gradientUnits="userSpaceOnUse" gradientTransform="translate(128.889 106.452) rotate(93.4874) scale(3.22554 1.78685)">
<stop offset="0.838542" stop-color="#1A1633" stop-opacity="0"/>
<stop offset="0.901042" stop-color="#1A1633"/>
</radialGradient>
<radialGradient id="paint52_radial_1751_476" cx="0" cy="0" r="1" gradientUnits="userSpaceOnUse" gradientTransform="translate(128.808 106.304) rotate(96.5824) scale(3.53827 2.00256)">
<stop offset="0.828324" stop-color="#C8D5EA" stop-opacity="0"/>
<stop offset="0.910599" stop-color="#C8D5EA"/>
</radialGradient>
<radialGradient id="paint53_radial_1751_476" cx="0" cy="0" r="1" gradientUnits="userSpaceOnUse" gradientTransform="translate(128.516 106.452) rotate(91.9317) scale(3.36917 1.85543)">
<stop offset="0.828324" stop-color="#9A8DCE" stop-opacity="0"/>
<stop offset="0.910599" stop-color="#9A8DCE"/>
</radialGradient>
<radialGradient id="paint54_radial_1751_476" cx="0" cy="0" r="1" gradientUnits="userSpaceOnUse" gradientTransform="translate(129.716 105.92) rotate(-135.29) scale(2.57509 3.0679)">
<stop offset="0.0843138" stop-color="#81798A" stop-opacity="0.7"/>
<stop offset="1" stop-color="#81798A" stop-opacity="0"/>
</radialGradient>
<linearGradient id="paint55_linear_1751_476" x1="125.321" y1="104.575" x2="121.595" y2="104.575" gradientUnits="userSpaceOnUse">
<stop stop-color="#2D273F"/>
<stop offset="0.544218" stop-color="#555671"/>
<stop offset="1" stop-color="#3E3A55"/>
</linearGradient>
<radialGradient id="paint56_radial_1751_476" cx="0" cy="0" r="1" gradientUnits="userSpaceOnUse" gradientTransform="translate(125.462 105.638) rotate(93.4874) scale(3.22554 1.78685)">
<stop offset="0.838542" stop-color="#1A1633" stop-opacity="0"/>
<stop offset="0.901042" stop-color="#1A1633"/>
</radialGradient>
<radialGradient id="paint57_radial_1751_476" cx="0" cy="0" r="1" gradientUnits="userSpaceOnUse" gradientTransform="translate(125.381 105.491) rotate(96.5824) scale(3.53827 2.00256)">
<stop offset="0.828324" stop-color="#C8D5EA" stop-opacity="0"/>
<stop offset="0.910599" stop-color="#C8D5EA"/>
</radialGradient>
<radialGradient id="paint58_radial_1751_476" cx="0" cy="0" r="1" gradientUnits="userSpaceOnUse" gradientTransform="translate(125.089 105.638) rotate(91.9317) scale(3.36917 1.85543)">
<stop offset="0.828324" stop-color="#9A8DCE" stop-opacity="0"/>
<stop offset="0.910599" stop-color="#9A8DCE"/>
</radialGradient>
<radialGradient id="paint59_radial_1751_476" cx="0" cy="0" r="1" gradientUnits="userSpaceOnUse" gradientTransform="translate(126.289 105.107) rotate(-135.29) scale(2.57509 3.0679)">
<stop offset="0.0843138" stop-color="#81798A" stop-opacity="0.7"/>
<stop offset="1" stop-color="#81798A" stop-opacity="0"/>
</radialGradient>
<radialGradient id="paint60_radial_1751_476" cx="0" cy="0" r="1" gradientUnits="userSpaceOnUse" gradientTransform="translate(114.207 27.2486) rotate(173.047) scale(13.5663 3.04334)">
<stop stop-color="white"/>
<stop offset="1" stop-color="#ACAAB8" stop-opacity="0"/>
</radialGradient>
<linearGradient id="paint61_linear_1751_476" x1="115.521" y1="44.985" x2="115.521" y2="38.2517" gradientUnits="userSpaceOnUse">
<stop stop-color="#696969"/>
<stop offset="1" stop-color="#696969" stop-opacity="0"/>
</linearGradient>
<linearGradient id="paint62_linear_1751_476" x1="124.081" y1="41.7039" x2="124.081" y2="108.519" gradientUnits="userSpaceOnUse">
<stop stop-color="#EEC2C2"/>
<stop offset="1" stop-color="#CDA1A1"/>
</linearGradient>
<linearGradient id="paint63_linear_1751_476" x1="121.761" y1="106.157" x2="126.08" y2="99.1241" gradientUnits="userSpaceOnUse">
<stop stop-color="#A58370"/>
<stop offset="1" stop-color="#BDA094" stop-opacity="0"/>
</linearGradient>
<linearGradient id="paint64_linear_1751_476" x1="124.081" y1="41.7039" x2="124.081" y2="46.7239" gradientUnits="userSpaceOnUse">
<stop stop-color="#FFECE3"/>
<stop offset="1" stop-color="#FFECE3" stop-opacity="0"/>
</linearGradient>
<radialGradient id="paint65_radial_1751_476" cx="0" cy="0" r="1" gradientUnits="userSpaceOnUse" gradientTransform="translate(128.326 73.4494) rotate(91.4061) scale(15.6692 0.628206)">
<stop stop-color="#A09FBF"/>
<stop offset="1" stop-opacity="0"/>
</radialGradient>
<radialGradient id="paint66_radial_1751_476" cx="0" cy="0" r="1" gradientUnits="userSpaceOnUse" gradientTransform="translate(127.907 67.5633) rotate(85.0891) scale(7.16853 0.622275)">
<stop stop-color="#A09FBF"/>
<stop offset="1" stop-opacity="0"/>
</radialGradient>
<radialGradient id="paint67_radial_1751_476" cx="0" cy="0" r="1" gradientUnits="userSpaceOnUse" gradientTransform="translate(130.074 70.252) rotate(89.0762) scale(17.3439 2.41803)">
<stop stop-color="#6D6B75"/>
<stop offset="1" stop-color="#3D3535"/>
</radialGradient>
<linearGradient id="paint68_linear_1751_476" x1="113.455" y1="111.453" x2="105.311" y2="111.453" gradientUnits="userSpaceOnUse">
<stop stop-color="#2D273F"/>
<stop offset="0.544218" stop-color="#555671"/>
<stop offset="1" stop-color="#3E3A55"/>
</linearGradient>
<radialGradient id="paint69_radial_1751_476" cx="0" cy="0" r="1" gradientUnits="userSpaceOnUse" gradientTransform="translate(113.763 112.729) rotate(96.3312) scale(3.8886)">
<stop offset="0.838542" stop-color="#1A1633" stop-opacity="0"/>
<stop offset="0.901042" stop-color="#1A1633"/>
</radialGradient>
<radialGradient id="paint70_radial_1751_476" cx="0" cy="0" r="1" gradientUnits="userSpaceOnUse" gradientTransform="translate(113.586 112.552) rotate(101.864) scale(4.31157)">
<stop offset="0.828324" stop-color="#C8D5EA" stop-opacity="0"/>
<stop offset="0.910599" stop-color="#C8D5EA"/>
</radialGradient>
<radialGradient id="paint71_radial_1751_476" cx="0" cy="0" r="1" gradientUnits="userSpaceOnUse" gradientTransform="translate(112.948 112.729) rotate(93.5138) scale(4.04979)">
<stop offset="0.828324" stop-color="#9A8DCE" stop-opacity="0"/>
<stop offset="0.910599" stop-color="#9A8DCE"/>
</radialGradient>
<radialGradient id="paint72_radial_1751_476" cx="0" cy="0" r="1" gradientUnits="userSpaceOnUse" gradientTransform="translate(115.571 112.091) rotate(-151.466) scale(4.55266)">
<stop offset="0.0843138" stop-color="#81798A" stop-opacity="0.7"/>
<stop offset="1" stop-color="#81798A" stop-opacity="0"/>
</radialGradient>
<linearGradient id="paint73_linear_1751_476" x1="89.8609" y1="104.712" x2="87.388" y2="104.712" gradientUnits="userSpaceOnUse">
<stop stop-color="#2D273F"/>
<stop offset="0.544218" stop-color="#555671"/>
<stop offset="1" stop-color="#3E3A55"/>
</linearGradient>
<radialGradient id="paint74_radial_1751_476" cx="0" cy="0" r="1" gradientUnits="userSpaceOnUse" gradientTransform="translate(89.9543 105.817) rotate(92.2287) scale(3.34807 1.18706)">
<stop offset="0.838542" stop-color="#1A1633" stop-opacity="0"/>
<stop offset="0.901042" stop-color="#1A1633"/>
</radialGradient>
<radialGradient id="paint75_radial_1751_476" cx="0" cy="0" r="1" gradientUnits="userSpaceOnUse" gradientTransform="translate(89.9004 105.663) rotate(94.2146) scale(3.66237 1.3341)">
<stop offset="0.828324" stop-color="#C8D5EA" stop-opacity="0"/>
<stop offset="0.910599" stop-color="#C8D5EA"/>
</radialGradient>
<radialGradient id="paint76_radial_1751_476" cx="0" cy="0" r="1" gradientUnits="userSpaceOnUse" gradientTransform="translate(89.7066 105.817) rotate(91.2339) scale(3.49981 1.23169)">
<stop offset="0.828324" stop-color="#9A8DCE" stop-opacity="0"/>
<stop offset="0.910599" stop-color="#9A8DCE"/>
</radialGradient>
<radialGradient id="paint77_radial_1751_476" cx="0" cy="0" r="1" gradientUnits="userSpaceOnUse" gradientTransform="translate(90.5033 105.264) rotate(-122.827) scale(2.24024 2.43174)">
<stop offset="0.0843138" stop-color="#81798A" stop-opacity="0.7"/>
<stop offset="1" stop-color="#81798A" stop-opacity="0"/>
</radialGradient>
<linearGradient id="paint78_linear_1751_476" x1="88.0777" y1="103.346" x2="87.9103" y2="107.629" gradientUnits="userSpaceOnUse">
<stop stop-color="#43415A"/>
<stop offset="1" stop-color="#02000B"/>
</linearGradient>
<linearGradient id="paint79_linear_1751_476" x1="85.7757" y1="105.335" x2="83.3028" y2="105.335" gradientUnits="userSpaceOnUse">
<stop stop-color="#2D273F"/>
<stop offset="0.544218" stop-color="#555671"/>
<stop offset="1" stop-color="#3E3A55"/>
</linearGradient>
<radialGradient id="paint80_radial_1751_476" cx="0" cy="0" r="1" gradientUnits="userSpaceOnUse" gradientTransform="translate(85.8691 106.44) rotate(92.2287) scale(3.34807 1.18706)">
<stop offset="0.838542" stop-color="#1A1633" stop-opacity="0"/>
<stop offset="0.901042" stop-color="#1A1633"/>
</radialGradient>
<radialGradient id="paint81_radial_1751_476" cx="0" cy="0" r="1" gradientUnits="userSpaceOnUse" gradientTransform="translate(85.8152 106.286) rotate(94.2146) scale(3.66237 1.3341)">
<stop offset="0.828324" stop-color="#C8D5EA" stop-opacity="0"/>
<stop offset="0.910599" stop-color="#C8D5EA"/>
</radialGradient>
<radialGradient id="paint82_radial_1751_476" cx="0" cy="0" r="1" gradientUnits="userSpaceOnUse" gradientTransform="translate(85.6214 106.44) rotate(91.2339) scale(3.49981 1.23169)">
<stop offset="0.828324" stop-color="#9A8DCE" stop-opacity="0"/>
<stop offset="0.910599" stop-color="#9A8DCE"/>
</radialGradient>
<radialGradient id="paint83_radial_1751_476" cx="0" cy="0" r="1" gradientUnits="userSpaceOnUse" gradientTransform="translate(86.4181 105.887) rotate(-122.827) scale(2.24024 2.43174)">
<stop offset="0.0843138" stop-color="#81798A" stop-opacity="0.7"/>
<stop offset="1" stop-color="#81798A" stop-opacity="0"/>
</radialGradient>
<linearGradient id="paint84_linear_1751_476" x1="122.04" y1="41.7039" x2="122.04" y2="108.519" gradientUnits="userSpaceOnUse">
<stop stop-color="#D28F8F"/>
<stop offset="1" stop-color="#BC7979"/>
</linearGradient>
<linearGradient id="paint85_linear_1751_476" x1="122.04" y1="41.7039" x2="122.04" y2="48.6231" gradientUnits="userSpaceOnUse">
<stop stop-color="#E5E1DE" stop-opacity="0.7"/>
<stop offset="1" stop-color="#E5E1DE" stop-opacity="0"/>
</linearGradient>
<linearGradient id="paint86_linear_1751_476" x1="102.914" y1="41.4638" x2="102.914" y2="109.183" gradientUnits="userSpaceOnUse">
<stop stop-color="#F4BDBD"/>
<stop offset="1" stop-color="#CF8D84"/>
</linearGradient>
<linearGradient id="paint87_linear_1751_476" x1="105.456" y1="65.2461" x2="121.796" y2="65.2461" gradientUnits="userSpaceOnUse">
<stop offset="0.194915" stop-color="#C57C78" stop-opacity="0"/>
<stop offset="0.416667" stop-color="#C57C78" stop-opacity="0.6"/>
<stop offset="0.652542" stop-color="#C57C78" stop-opacity="0.4"/>
<stop offset="0.898305" stop-color="#C57C78" stop-opacity="0"/>
</linearGradient>
<linearGradient id="paint88_linear_1751_476" x1="102.914" y1="45.9978" x2="102.914" y2="62.892" gradientUnits="userSpaceOnUse">
<stop stop-color="#F0B6B6"/>
<stop offset="1" stop-color="#F0B6B6" stop-opacity="0"/>
</linearGradient>
<linearGradient id="paint89_linear_1751_476" x1="102.914" y1="41.4638" x2="102.914" y2="46.5518" gradientUnits="userSpaceOnUse">
<stop stop-color="#FFECE3"/>
<stop offset="1" stop-color="#FFECE3" stop-opacity="0"/>
</linearGradient>
<linearGradient id="paint90_linear_1751_476" x1="126.643" y1="54.7219" x2="115.565" y2="54.7219" gradientUnits="userSpaceOnUse">
<stop stop-color="#FFECE3"/>
<stop offset="1" stop-color="#FFECE3" stop-opacity="0"/>
</linearGradient>
<radialGradient id="paint91_radial_1751_476" cx="0" cy="0" r="1" gradientUnits="userSpaceOnUse" gradientTransform="translate(114.18 42.5359) rotate(180) scale(6.92385 5.26212)">
<stop stop-color="#FFF5ED"/>
<stop offset="1" stop-color="#FFF5ED" stop-opacity="0"/>
</radialGradient>
<linearGradient id="paint92_linear_1751_476" x1="83.0769" y1="71.4776" x2="88.2849" y2="71.4776" gradientUnits="userSpaceOnUse">
<stop stop-color="#DBA2A2"/>
<stop offset="1" stop-color="#DBA2A2" stop-opacity="0"/>
</linearGradient>
<linearGradient id="paint93_linear_1751_476" x1="95.9012" y1="106.789" x2="97.8398" y2="97.3728" gradientUnits="userSpaceOnUse">
<stop stop-color="#BB7878"/>
<stop offset="1" stop-color="#BB7878" stop-opacity="0"/>
</linearGradient>
<radialGradient id="paint94_radial_1751_476" cx="0" cy="0" r="1" gradientUnits="userSpaceOnUse" gradientTransform="translate(202.839 43.0842) rotate(-165.391) scale(50.0281 24.5537)">
<stop stop-color="#FFE9C8"/>
<stop offset="1" stop-color="#BB904F"/>
</radialGradient>
<radialGradient id="paint95_radial_1751_476" cx="0" cy="0" r="1" gradientUnits="userSpaceOnUse" gradientTransform="translate(220.054 43.888) rotate(126.68) scale(15.8142 14.6657)">
<stop offset="0.113875" stop-color="#937B61"/>
<stop offset="1" stop-color="#B09473" stop-opacity="0"/>
</radialGradient>
<radialGradient id="paint96_radial_1751_476" cx="0" cy="0" r="1" gradientUnits="userSpaceOnUse" gradientTransform="translate(199.369 46.7172) rotate(15.3917) scale(23.4702 15.5869)">
<stop offset="0.425192" stop-color="#6A471D"/>
<stop offset="1" stop-color="#6A471D" stop-opacity="0"/>
</radialGradient>
<radialGradient id="paint97_radial_1751_476" cx="0" cy="0" r="1" gradientUnits="userSpaceOnUse" gradientTransform="translate(198.256 30.7349) rotate(124.064) scale(30.175 18.5575)">
<stop stop-color="#E4CEAC"/>
<stop offset="1" stop-color="#BB904F"/>
</radialGradient>
<radialGradient id="paint98_radial_1751_476" cx="0" cy="0" r="1" gradientUnits="userSpaceOnUse" gradientTransform="translate(206.155 33.3346) rotate(-167.345) scale(20.6125 3.79493)">
<stop stop-color="#F7E7CD"/>
<stop offset="1" stop-color="#F7E7CD" stop-opacity="0"/>
</radialGradient>
<radialGradient id="paint99_radial_1751_476" cx="0" cy="0" r="1" gradientUnits="userSpaceOnUse" gradientTransform="translate(200.574 25.4842) rotate(167.075) scale(14.9089 5.36443)">
<stop stop-color="#F7E7CD"/>
<stop offset="1" stop-color="#F7E7CD" stop-opacity="0"/>
</radialGradient>
<radialGradient id="paint100_radial_1751_476" cx="0" cy="0" r="1" gradientUnits="userSpaceOnUse" gradientTransform="translate(190.635 50.7646) rotate(142.004) scale(20.4296 21.249)">
<stop stop-color="#FFEC8A"/>
<stop offset="1" stop-color="#FFCD1E"/>
</radialGradient>
<radialGradient id="paint101_radial_1751_476" cx="0" cy="0" r="1" gradientUnits="userSpaceOnUse" gradientTransform="translate(193.963 32.5912) rotate(0.787551) scale(24.4158 7.65985)">
<stop stop-color="#A37C44"/>
<stop offset="1" stop-color="#A37C44" stop-opacity="0"/>
</radialGradient>
<linearGradient id="paint102_linear_1751_476" x1="28.014" y1="47.0645" x2="77.0378" y2="72.7178" gradientUnits="userSpaceOnUse">
<stop stop-color="#E5E4E4"/>
<stop offset="1" stop-color="#8B8B8B"/>
</linearGradient>
<linearGradient id="paint103_linear_1751_476" x1="31.8617" y1="43.5692" x2="67.6338" y2="34.8594" gradientUnits="userSpaceOnUse">
<stop offset="0.831111" stop-color="#767676" stop-opacity="0"/>
<stop offset="1" stop-color="#767676"/>
</linearGradient>
<linearGradient id="paint104_linear_1751_476" x1="41.9481" y1="61.9474" x2="46.5525" y2="78.6879" gradientUnits="userSpaceOnUse">
<stop offset="0.709049" stop-color="#767676" stop-opacity="0"/>
<stop offset="0.917525" stop-color="#767676"/>
</linearGradient>
<linearGradient id="paint105_linear_1751_476" x1="41.9481" y1="61.9474" x2="33.6902" y2="30.0107" gradientUnits="userSpaceOnUse">
<stop offset="0.509819" stop-color="#767676" stop-opacity="0"/>
<stop offset="0.829396" stop-color="#767676"/>
</linearGradient>
<radialGradient id="paint106_radial_1751_476" cx="0" cy="0" r="1" gradientUnits="userSpaceOnUse" gradientTransform="translate(54.1742 57.7705) rotate(111.575) scale(23.719 24.5084)">
<stop offset="0.440625" stop-color="#8C8A8A"/>
<stop offset="0.503125" stop-color="#767676" stop-opacity="0"/>
</radialGradient>
<linearGradient id="paint107_linear_1751_476" x1="29.4142" y1="49.3145" x2="62.495" y2="69.9651" gradientUnits="userSpaceOnUse">
<stop stop-color="#EFEFEF"/>
<stop offset="1" stop-color="#9B9B9B"/>
</linearGradient>
<linearGradient id="paint108_linear_1751_476" x1="32.6608" y1="51.0185" x2="43.769" y2="75.0599" gradientUnits="userSpaceOnUse">
<stop stop-color="#434242"/>
<stop offset="1" stop-color="#676767"/>
</linearGradient>
<linearGradient id="paint109_linear_1751_476" x1="62.3168" y1="40.81" x2="63.4043" y2="46.5335" gradientUnits="userSpaceOnUse">
<stop stop-color="#4D4D4D"/>
<stop offset="1" stop-color="#151515"/>
</linearGradient>
<linearGradient id="paint110_linear_1751_476" x1="63.6891" y1="45.9314" x2="63.788" y2="46.3005" gradientUnits="userSpaceOnUse">
<stop stop-opacity="0"/>
<stop offset="1" stop-color="#333333"/>
</linearGradient>
<linearGradient id="paint111_linear_1751_476" x1="62.453" y1="40.2476" x2="62.6322" y2="40.9167" gradientUnits="userSpaceOnUse">
<stop stop-color="#616161"/>
<stop offset="1" stop-color="#414141" stop-opacity="0"/>
</linearGradient>
<linearGradient id="paint112_linear_1751_476" x1="19.0489" y1="47.8098" x2="25.6958" y2="45.5356" gradientUnits="userSpaceOnUse">
<stop stop-color="#D2D2D2"/>
<stop offset="0.663922" stop-color="#878787"/>
</linearGradient>
<linearGradient id="paint113_linear_1751_476" x1="21.2833" y1="44.4867" x2="22.0674" y2="46.8527" gradientUnits="userSpaceOnUse">
<stop offset="0.709049" stop-color="#878787" stop-opacity="0"/>
<stop offset="0.856391" stop-color="#878787"/>
</linearGradient>
</defs>
</svg>
