<svg viewBox="0 0 240 120" fill="none" xmlns="http://www.w3.org/2000/svg">
<path fill-rule="evenodd" clip-rule="evenodd" d="M42.9856 28.3139C44.3308 26.3218 46.4661 25.1809 48.6925 25.0266C47.0336 23.5326 46.0551 21.3172 46.2241 18.9185C46.2534 18.5026 46.6138 18.1896 47.0267 18.2215C49.4253 18.3905 51.4814 19.6697 52.7281 21.5213C53.1925 19.3377 54.6218 17.3825 56.7835 16.3296C57.1585 16.1469 57.609 16.3023 57.789 16.6764C58.8421 18.8384 58.762 21.2594 57.7811 23.2653C59.9045 22.5756 62.3124 22.8357 64.3052 24.1814C64.6504 24.4121 64.7411 24.8799 64.5076 25.2256C63.162 27.2184 61.0267 28.3592 58.7997 28.5129C60.4577 30.0068 61.4355 32.2216 61.2666 34.6196C61.2375 35.0327 60.8799 35.3459 60.464 35.3166C58.0656 35.1476 56.0097 33.8686 54.7629 32.0172C54.2979 34.1998 52.8689 36.1538 50.7081 37.2064C50.3357 37.39 49.8852 37.2346 49.7025 36.8595C48.6503 34.6993 48.7294 32.2805 49.7081 30.2756C47.5857 30.9636 45.1796 30.7029 43.1881 29.3581C42.8423 29.1246 42.7516 28.6568 42.9856 28.3139ZM53.7662 26.7506C53.7678 26.7597 53.7696 26.7688 53.7715 26.7778C53.765 26.7833 53.7585 26.7889 53.7522 26.7946L53.7264 26.7857L53.721 26.7578L53.7397 26.7414C53.7485 26.7446 53.7574 26.7477 53.7662 26.7506Z" fill="url(#paint0_radial_7766_2290)"/>
<path fill-rule="evenodd" clip-rule="evenodd" d="M42.9856 28.3139C44.3308 26.3218 46.4661 25.1809 48.6925 25.0266C47.0336 23.5326 46.0551 21.3172 46.2241 18.9185C46.2534 18.5026 46.6138 18.1896 47.0267 18.2215C49.4253 18.3905 51.4814 19.6697 52.7281 21.5213C53.1925 19.3377 54.6218 17.3825 56.7835 16.3296C57.1585 16.1469 57.609 16.3023 57.789 16.6764C58.8421 18.8384 58.762 21.2594 57.7811 23.2653C59.9045 22.5756 62.3124 22.8357 64.3052 24.1814C64.6504 24.4121 64.7411 24.8799 64.5076 25.2256C63.162 27.2184 61.0267 28.3592 58.7997 28.5129C60.4577 30.0068 61.4355 32.2216 61.2666 34.6196C61.2375 35.0327 60.8799 35.3459 60.464 35.3166C58.0656 35.1476 56.0097 33.8686 54.7629 32.0172C54.2979 34.1998 52.8689 36.1538 50.7081 37.2064C50.3357 37.39 49.8852 37.2346 49.7025 36.8595C48.6503 34.6993 48.7294 32.2805 49.7081 30.2756C47.5857 30.9636 45.1796 30.7029 43.1881 29.3581C42.8423 29.1246 42.7516 28.6568 42.9856 28.3139ZM53.7662 26.7506C53.7678 26.7597 53.7696 26.7688 53.7715 26.7778C53.765 26.7833 53.7585 26.7889 53.7522 26.7946L53.7264 26.7857L53.721 26.7578L53.7397 26.7414C53.7485 26.7446 53.7574 26.7477 53.7662 26.7506Z" fill="url(#paint1_radial_7766_2290)"/>
<path fill-rule="evenodd" clip-rule="evenodd" d="M42.9856 28.3139C44.3308 26.3218 46.4661 25.1809 48.6925 25.0266C47.0336 23.5326 46.0551 21.3172 46.2241 18.9185C46.2534 18.5026 46.6138 18.1896 47.0267 18.2215C49.4253 18.3905 51.4814 19.6697 52.7281 21.5213C53.1925 19.3377 54.6218 17.3825 56.7835 16.3296C57.1585 16.1469 57.609 16.3023 57.789 16.6764C58.8421 18.8384 58.762 21.2594 57.7811 23.2653C59.9045 22.5756 62.3124 22.8357 64.3052 24.1814C64.6504 24.4121 64.7411 24.8799 64.5076 25.2256C63.162 27.2184 61.0267 28.3592 58.7997 28.5129C60.4577 30.0068 61.4355 32.2216 61.2666 34.6196C61.2375 35.0327 60.8799 35.3459 60.464 35.3166C58.0656 35.1476 56.0097 33.8686 54.7629 32.0172C54.2979 34.1998 52.8689 36.1538 50.7081 37.2064C50.3357 37.39 49.8852 37.2346 49.7025 36.8595C48.6503 34.6993 48.7294 32.2805 49.7081 30.2756C47.5857 30.9636 45.1796 30.7029 43.1881 29.3581C42.8423 29.1246 42.7516 28.6568 42.9856 28.3139ZM53.7662 26.7506C53.7678 26.7597 53.7696 26.7688 53.7715 26.7778C53.765 26.7833 53.7585 26.7889 53.7522 26.7946L53.7264 26.7857L53.721 26.7578L53.7397 26.7414C53.7485 26.7446 53.7574 26.7477 53.7662 26.7506Z" fill="url(#paint2_radial_7766_2290)"/>
<path fill-rule="evenodd" clip-rule="evenodd" d="M42.9856 28.3139C44.3308 26.3218 46.4661 25.1809 48.6925 25.0266C47.0336 23.5326 46.0551 21.3172 46.2241 18.9185C46.2534 18.5026 46.6138 18.1896 47.0267 18.2215C49.4253 18.3905 51.4814 19.6697 52.7281 21.5213C53.1925 19.3377 54.6218 17.3825 56.7835 16.3296C57.1585 16.1469 57.609 16.3023 57.789 16.6764C58.8421 18.8384 58.762 21.2594 57.7811 23.2653C59.9045 22.5756 62.3124 22.8357 64.3052 24.1814C64.6504 24.4121 64.7411 24.8799 64.5076 25.2256C63.162 27.2184 61.0267 28.3592 58.7997 28.5129C60.4577 30.0068 61.4355 32.2216 61.2666 34.6196C61.2375 35.0327 60.8799 35.3459 60.464 35.3166C58.0656 35.1476 56.0097 33.8686 54.7629 32.0172C54.2979 34.1998 52.8689 36.1538 50.7081 37.2064C50.3357 37.39 49.8852 37.2346 49.7025 36.8595C48.6503 34.6993 48.7294 32.2805 49.7081 30.2756C47.5857 30.9636 45.1796 30.7029 43.1881 29.3581C42.8423 29.1246 42.7516 28.6568 42.9856 28.3139ZM53.7662 26.7506C53.7678 26.7597 53.7696 26.7688 53.7715 26.7778C53.765 26.7833 53.7585 26.7889 53.7522 26.7946L53.7264 26.7857L53.721 26.7578L53.7397 26.7414C53.7485 26.7446 53.7574 26.7477 53.7662 26.7506Z" fill="url(#paint3_radial_7766_2290)"/>
<path d="M52.8914 29.244C54.2582 29.7154 55.7483 28.9896 56.2197 27.6228C56.6911 26.2561 55.9653 24.7659 54.5985 24.2945C53.2318 23.8231 51.7416 24.549 51.2702 25.9157C50.7988 27.2825 51.5246 28.7726 52.8914 29.244Z" fill="url(#paint4_linear_7766_2290)"/>
<path d="M54.6297 24.0323C54.6297 24.4382 54.3007 24.7673 53.8947 24.7673C53.4888 24.7673 53.1597 24.4382 53.1597 24.0323C53.1597 23.6263 53.4888 23.2972 53.8947 23.2972C54.3007 23.2972 54.6297 23.6263 54.6297 24.0323Z" fill="url(#paint5_radial_7766_2290)"/>
<path d="M54.629 29.3262C54.629 29.7322 54.2999 30.0613 53.894 30.0613C53.4881 30.0613 53.159 29.7322 53.159 29.3262C53.159 28.9203 53.4881 28.5912 53.894 28.5912C54.2999 28.5912 54.629 28.9203 54.629 29.3262Z" fill="url(#paint6_radial_7766_2290)"/>
<path d="M52.7583 24.8069C52.7583 25.2129 52.4293 25.542 52.0233 25.542C51.6174 25.542 51.2883 25.2129 51.2883 24.8069C51.2883 24.401 51.6174 24.0719 52.0233 24.0719C52.4293 24.0719 52.7583 24.401 52.7583 24.8069Z" fill="url(#paint7_radial_7766_2290)"/>
<path d="M56.5018 28.5507C56.5018 28.9567 56.1727 29.2857 55.7667 29.2857C55.3608 29.2857 55.0317 28.9567 55.0317 28.5507C55.0317 28.1448 55.3608 27.8157 55.7667 27.8157C56.1727 27.8157 56.5018 28.1448 56.5018 28.5507Z" fill="url(#paint8_radial_7766_2290)"/>
<path d="M51.9829 26.6791C51.9829 27.0851 51.6539 27.4142 51.2479 27.4142C50.842 27.4142 50.5129 27.0851 50.5129 26.6791C50.5129 26.2732 50.842 25.9441 51.2479 25.9441C51.6539 25.9441 51.9829 26.2732 51.9829 26.6791Z" fill="url(#paint9_radial_7766_2290)"/>
<path d="M57.2772 26.6785C57.2772 27.0845 56.9481 27.4136 56.5421 27.4136C56.1362 27.4136 55.8071 27.0845 55.8071 26.6785C55.8071 26.2726 56.1362 25.9435 56.5421 25.9435C56.9481 25.9435 57.2772 26.2726 57.2772 26.6785Z" fill="url(#paint10_radial_7766_2290)"/>
<path d="M52.7576 28.5507C52.7576 28.9567 52.4285 29.2857 52.0225 29.2857C51.6166 29.2857 51.2875 28.9567 51.2875 28.5507C51.2875 28.1448 51.6166 27.8157 52.0225 27.8157C52.4285 27.8157 52.7576 28.1448 52.7576 28.5507Z" fill="url(#paint11_radial_7766_2290)"/>
<path d="M56.5018 24.8075C56.5018 25.2134 56.1727 25.5425 55.7667 25.5425C55.3608 25.5425 55.0317 25.2134 55.0317 24.8075C55.0317 24.4015 55.3608 24.0724 55.7667 24.0724C56.1727 24.0724 56.5018 24.4015 56.5018 24.8075Z" fill="url(#paint12_radial_7766_2290)"/>
<path fill-rule="evenodd" clip-rule="evenodd" d="M71.9976 79.382C68.3484 77.507 64.2165 77.5545 60.7588 79.1529C62.0131 75.5548 61.6568 71.4365 59.433 67.9867C59.0475 67.3885 58.2511 67.2164 57.6596 67.6034C54.21 69.8269 52.185 73.4301 51.8412 77.2247C49.3522 74.3394 45.6075 72.5886 41.5083 72.7895C40.7971 72.8243 40.2508 73.4269 40.2889 74.1346C40.4898 78.2344 42.5988 81.7905 45.7145 83.9855C41.971 84.6983 38.5823 87.066 36.7066 90.7165C36.3797 91.3453 36.6284 92.1197 37.2618 92.4451C40.9122 94.3208 45.0442 94.2731 48.5021 92.6732C47.2492 96.2705 47.606 100.387 49.829 103.836C50.212 104.43 51.0043 104.605 51.6025 104.219C55.0518 101.996 57.0768 98.3934 57.4208 94.5991C59.9098 97.4824 63.6532 99.2317 67.7508 99.0309C68.4587 98.9996 69.005 98.397 68.9702 97.6858C68.7694 93.5893 66.6636 90.0357 63.5521 87.8403C67.2927 87.1258 70.6783 84.7588 72.5528 81.1106C72.8782 80.4772 72.6295 79.7028 71.9976 79.382ZM54.5846 85.901C54.5897 85.916 54.5946 85.931 54.5991 85.9461C54.6134 85.9489 54.6276 85.952 54.6418 85.9553L54.673 85.9208L54.6583 85.8746L54.6167 85.8655C54.6063 85.8776 54.5956 85.8894 54.5846 85.901Z" fill="url(#paint13_radial_7766_2290)"/>
<path fill-rule="evenodd" clip-rule="evenodd" d="M71.9976 79.382C68.3484 77.507 64.2165 77.5545 60.7588 79.1529C62.0131 75.5548 61.6568 71.4365 59.433 67.9867C59.0475 67.3885 58.2511 67.2164 57.6596 67.6034C54.21 69.8269 52.185 73.4301 51.8412 77.2247C49.3522 74.3394 45.6075 72.5886 41.5083 72.7895C40.7971 72.8243 40.2508 73.4269 40.2889 74.1346C40.4898 78.2344 42.5988 81.7905 45.7145 83.9855C41.971 84.6983 38.5823 87.066 36.7066 90.7165C36.3797 91.3453 36.6284 92.1197 37.2618 92.4451C40.9122 94.3208 45.0442 94.2731 48.5021 92.6732C47.2492 96.2705 47.606 100.387 49.829 103.836C50.212 104.43 51.0043 104.605 51.6025 104.219C55.0518 101.996 57.0768 98.3934 57.4208 94.5991C59.9098 97.4824 63.6532 99.2317 67.7508 99.0309C68.4587 98.9996 69.005 98.397 68.9702 97.6858C68.7694 93.5893 66.6636 90.0357 63.5521 87.8403C67.2927 87.1258 70.6783 84.7588 72.5528 81.1106C72.8782 80.4772 72.6295 79.7028 71.9976 79.382ZM54.5846 85.901C54.5897 85.916 54.5946 85.931 54.5991 85.9461C54.6134 85.9489 54.6276 85.952 54.6418 85.9553L54.673 85.9208L54.6583 85.8746L54.6167 85.8655C54.6063 85.8776 54.5956 85.8894 54.5846 85.901Z" fill="url(#paint14_radial_7766_2290)"/>
<path fill-rule="evenodd" clip-rule="evenodd" d="M71.9976 79.382C68.3484 77.507 64.2165 77.5545 60.7588 79.1529C62.0131 75.5548 61.6568 71.4365 59.433 67.9867C59.0475 67.3885 58.2511 67.2164 57.6596 67.6034C54.21 69.8269 52.185 73.4301 51.8412 77.2247C49.3522 74.3394 45.6075 72.5886 41.5083 72.7895C40.7971 72.8243 40.2508 73.4269 40.2889 74.1346C40.4898 78.2344 42.5988 81.7905 45.7145 83.9855C41.971 84.6983 38.5823 87.066 36.7066 90.7165C36.3797 91.3453 36.6284 92.1197 37.2618 92.4451C40.9122 94.3208 45.0442 94.2731 48.5021 92.6732C47.2492 96.2705 47.606 100.387 49.829 103.836C50.212 104.43 51.0043 104.605 51.6025 104.219C55.0518 101.996 57.0768 98.3934 57.4208 94.5991C59.9098 97.4824 63.6532 99.2317 67.7508 99.0309C68.4587 98.9996 69.005 98.397 68.9702 97.6858C68.7694 93.5893 66.6636 90.0357 63.5521 87.8403C67.2927 87.1258 70.6783 84.7588 72.5528 81.1106C72.8782 80.4772 72.6295 79.7028 71.9976 79.382ZM54.5846 85.901C54.5897 85.916 54.5946 85.931 54.5991 85.9461C54.6134 85.9489 54.6276 85.952 54.6418 85.9553L54.673 85.9208L54.6583 85.8746L54.6167 85.8655C54.6063 85.8776 54.5956 85.8894 54.5846 85.901Z" fill="url(#paint15_radial_7766_2290)"/>
<path d="M51.3158 88.9167C52.974 90.7458 55.8009 90.8843 57.63 89.2261C59.459 87.568 59.5975 84.741 57.9394 82.912C56.2812 81.0829 53.4543 80.9444 51.6252 82.6026C49.7962 84.2608 49.6577 87.0877 51.3158 88.9167Z" fill="url(#paint16_linear_7766_2290)"/>
<path d="M59.443 87.1586C58.7495 87.1586 58.1873 86.5964 58.1873 85.9028C58.1873 85.2093 58.7495 84.6471 59.443 84.6471C60.1365 84.6471 60.6988 85.2093 60.6988 85.9028C60.6988 86.5964 60.1365 87.1586 59.443 87.1586Z" fill="url(#paint17_radial_7766_2290)"/>
<path d="M50.4059 87.1586C49.7123 87.1586 49.1501 86.5964 49.1501 85.9028C49.1501 85.2093 49.7123 84.6471 50.4059 84.6471C51.0994 84.6471 51.6616 85.2093 51.6616 85.9028C51.6616 86.5964 51.0994 87.1586 50.4059 87.1586Z" fill="url(#paint18_radial_7766_2290)"/>
<path d="M58.1198 83.9647C57.4263 83.9647 56.8641 83.4025 56.8641 82.709C56.8641 82.0155 57.4263 81.4532 58.1198 81.4532C58.8133 81.4532 59.3755 82.0155 59.3755 82.709C59.3755 83.4025 58.8133 83.9647 58.1198 83.9647Z" fill="url(#paint19_radial_7766_2290)"/>
<path d="M51.7291 90.3525C51.0355 90.3525 50.4733 89.7903 50.4733 89.0968C50.4733 88.4033 51.0355 87.8411 51.7291 87.8411C52.4226 87.8411 52.9848 88.4033 52.9848 89.0968C52.9848 89.7903 52.4226 90.3525 51.7291 90.3525Z" fill="url(#paint20_radial_7766_2290)"/>
<path d="M54.9244 82.6406C54.2309 82.6406 53.6687 82.0784 53.6687 81.3849C53.6687 80.6914 54.2309 80.1292 54.9244 80.1292C55.6179 80.1292 56.1801 80.6914 56.1801 81.3849C56.1801 82.0784 55.6179 82.6406 54.9244 82.6406Z" fill="url(#paint21_radial_7766_2290)"/>
<path d="M54.9249 91.6782C54.2314 91.6782 53.6692 91.116 53.6692 90.4225C53.6692 89.729 54.2314 89.1667 54.9249 89.1667C55.6184 89.1667 56.1806 89.729 56.1806 90.4225C56.1806 91.116 55.6184 91.6782 54.9249 91.6782Z" fill="url(#paint22_radial_7766_2290)"/>
<path d="M51.7296 83.9619C51.036 83.9619 50.4738 83.3997 50.4738 82.7062C50.4738 82.0127 51.036 81.4504 51.7296 81.4504C52.4231 81.4504 52.9853 82.0127 52.9853 82.7062C52.9853 83.3997 52.4231 83.9619 51.7296 83.9619Z" fill="url(#paint23_radial_7766_2290)"/>
<path d="M58.1198 90.3543C57.4263 90.3543 56.8641 89.792 56.8641 89.0985C56.8641 88.405 57.4263 87.8428 58.1198 87.8428C58.8133 87.8428 59.3755 88.405 59.3755 89.0985C59.3755 89.792 58.8133 90.3543 58.1198 90.3543Z" fill="url(#paint24_radial_7766_2290)"/>
<path d="M116.539 87.9576C109.225 85.932 106.646 77.5481 106.27 73.6093C112.235 69.6706 120.572 70.3739 123.995 71.2179C130.747 77.1823 133.185 94.9911 133.56 103.15C132.21 104.838 127.84 105.26 125.824 105.26C122.447 103.572 118.227 93.0217 116.539 87.9576Z" fill="url(#paint25_radial_7766_2290)"/>
<path d="M116.539 87.9576C109.225 85.932 106.646 77.5481 106.27 73.6093C112.235 69.6706 120.572 70.3739 123.995 71.2179C130.747 77.1823 133.185 94.9911 133.56 103.15C132.21 104.838 127.84 105.26 125.824 105.26C122.447 103.572 118.227 93.0217 116.539 87.9576Z" fill="url(#paint26_radial_7766_2290)"/>
<path d="M122.569 83.361C114.466 82.6292 121.656 71.7835 125.137 70.9551C129.78 72.2822 132.616 71.7371 139.063 70.9551C148.073 69.862 150.83 70.9556 152.25 75.3116C155.767 86.1051 146.061 93.2398 137.479 89.7639C128.477 94.3374 123.647 89.7639 122.569 83.361Z" fill="url(#paint27_radial_7766_2290)"/>
<path d="M75.9239 36.57C78.008 27.5185 91.5544 23.4055 98.0671 22.4804C108.661 14.112 119.27 18.9936 123.25 22.4804C136.796 19.2356 146.261 29.5252 149.301 35.0756C156.074 35.0756 157.043 41.7646 156.682 45.1091C169.36 46.8169 167.319 58.914 164.714 64.749C168.708 74.4836 158.853 77.9135 153.425 78.4116C146.305 78.4116 142.064 75.9922 140.834 74.7825C134.929 80.4183 121.151 79.5501 115 78.4116C95.2017 83.7058 88.3706 74.9248 87.4298 69.8725C70.2363 71.2387 68.8324 57.6331 70.2796 50.6595C67.8482 43.999 73.0294 38.4913 75.9239 36.57Z" fill="url(#paint28_radial_7766_2290)"/>
<path fill-rule="evenodd" clip-rule="evenodd" d="M86.6695 36.0099C85.973 37.3658 85.7065 39.0308 85.6846 40.1459L85.6683 40.9793L84.8366 40.9239C80.0127 40.6023 77.0538 42.2897 75.2684 44.4462C73.4493 46.6431 72.7867 49.405 72.743 51.2619C72.7326 51.701 72.3683 52.0486 71.9292 52.0383C71.4901 52.028 71.1425 51.6636 71.1528 51.2245C71.2029 49.0959 71.9469 45.9636 74.0432 43.4318C76.064 40.9911 79.2868 39.1771 84.1421 39.2998C84.2558 38.0986 84.5795 36.5974 85.2547 35.2831C86.1043 33.6293 87.5833 32.1609 89.9536 32.1609C90.3928 32.1609 90.7489 32.517 90.7489 32.9562C90.7489 33.3955 90.3928 33.7515 89.9536 33.7515C88.3852 33.7515 87.3556 34.6745 86.6695 36.0099Z" fill="#FBBEE7"/>
<path fill-rule="evenodd" clip-rule="evenodd" d="M86.6695 36.0099C85.973 37.3658 85.7065 39.0308 85.6846 40.1459L85.6683 40.9793L84.8366 40.9239C80.0127 40.6023 77.0538 42.2897 75.2684 44.4462C73.4493 46.6431 72.7867 49.405 72.743 51.2619C72.7326 51.701 72.3683 52.0486 71.9292 52.0383C71.4901 52.028 71.1425 51.6636 71.1528 51.2245C71.2029 49.0959 71.9469 45.9636 74.0432 43.4318C76.064 40.9911 79.2868 39.1771 84.1421 39.2998C84.2558 38.0986 84.5795 36.5974 85.2547 35.2831C86.1043 33.6293 87.5833 32.1609 89.9536 32.1609C90.3928 32.1609 90.7489 32.517 90.7489 32.9562C90.7489 33.3955 90.3928 33.7515 89.9536 33.7515C88.3852 33.7515 87.3556 34.6745 86.6695 36.0099Z" fill="#E68465"/>
<path fill-rule="evenodd" clip-rule="evenodd" d="M86.6695 36.0099C85.973 37.3658 85.7065 39.0308 85.6846 40.1459L85.6683 40.9793L84.8366 40.9239C80.0127 40.6023 77.0538 42.2897 75.2684 44.4462C73.4493 46.6431 72.7867 49.405 72.743 51.2619C72.7326 51.701 72.3683 52.0486 71.9292 52.0383C71.4901 52.028 71.1425 51.6636 71.1528 51.2245C71.2029 49.0959 71.9469 45.9636 74.0432 43.4318C76.064 40.9911 79.2868 39.1771 84.1421 39.2998C84.2558 38.0986 84.5795 36.5974 85.2547 35.2831C86.1043 33.6293 87.5833 32.1609 89.9536 32.1609C90.3928 32.1609 90.7489 32.517 90.7489 32.9562C90.7489 33.3955 90.3928 33.7515 89.9536 33.7515C88.3852 33.7515 87.3556 34.6745 86.6695 36.0099Z" fill="#CF4428"/>
<path fill-rule="evenodd" clip-rule="evenodd" d="M99.7844 21.7858C99.9714 21.3884 100.445 21.2178 100.843 21.4049C102.136 22.0137 103.844 23.2715 104.599 25.1149C104.984 26.0565 105.113 27.1373 104.816 28.3164C104.522 29.486 103.821 30.7038 102.627 31.9571C102.324 32.2752 101.821 32.2875 101.503 31.9846C101.185 31.6816 101.173 31.1782 101.475 30.8602C102.533 29.7503 103.063 28.7666 103.274 27.9281C103.482 27.0992 103.392 26.3653 103.126 25.7174C102.58 24.3816 101.263 23.3605 100.165 22.8441C99.768 22.657 99.5974 22.1832 99.7844 21.7858Z" fill="#FBBEE7"/>
<path fill-rule="evenodd" clip-rule="evenodd" d="M99.7844 21.7858C99.9714 21.3884 100.445 21.2178 100.843 21.4049C102.136 22.0137 103.844 23.2715 104.599 25.1149C104.984 26.0565 105.113 27.1373 104.816 28.3164C104.522 29.486 103.821 30.7038 102.627 31.9571C102.324 32.2752 101.821 32.2875 101.503 31.9846C101.185 31.6816 101.173 31.1782 101.475 30.8602C102.533 29.7503 103.063 28.7666 103.274 27.9281C103.482 27.0992 103.392 26.3653 103.126 25.7174C102.58 24.3816 101.263 23.3605 100.165 22.8441C99.768 22.657 99.5974 22.1832 99.7844 21.7858Z" fill="#E68465"/>
<path fill-rule="evenodd" clip-rule="evenodd" d="M99.7844 21.7858C99.9714 21.3884 100.445 21.2178 100.843 21.4049C102.136 22.0137 103.844 23.2715 104.599 25.1149C104.984 26.0565 105.113 27.1373 104.816 28.3164C104.522 29.486 103.821 30.7038 102.627 31.9571C102.324 32.2752 101.821 32.2875 101.503 31.9846C101.185 31.6816 101.173 31.1782 101.475 30.8602C102.533 29.7503 103.063 28.7666 103.274 27.9281C103.482 27.0992 103.392 26.3653 103.126 25.7174C102.58 24.3816 101.263 23.3605 100.165 22.8441C99.768 22.657 99.5974 22.1832 99.7844 21.7858Z" fill="#CF4428"/>
<path fill-rule="evenodd" clip-rule="evenodd" d="M122.657 22.3536C122.763 22.7797 122.504 23.2115 122.078 23.318C121.215 23.5338 119.795 24.0583 118.424 24.9157C117.048 25.7766 115.797 26.9255 115.155 28.3579C114.976 28.7587 114.505 28.938 114.104 28.7583C113.703 28.5786 113.524 28.1081 113.704 27.7073C114.525 25.8761 116.064 24.5164 117.581 23.5673C119.103 22.6148 120.68 22.028 121.692 21.7749C122.118 21.6684 122.55 21.9275 122.657 22.3536Z" fill="#FBBEE7"/>
<path fill-rule="evenodd" clip-rule="evenodd" d="M122.657 22.3536C122.763 22.7797 122.504 23.2115 122.078 23.318C121.215 23.5338 119.795 24.0583 118.424 24.9157C117.048 25.7766 115.797 26.9255 115.155 28.3579C114.976 28.7587 114.505 28.938 114.104 28.7583C113.703 28.5786 113.524 28.1081 113.704 27.7073C114.525 25.8761 116.064 24.5164 117.581 23.5673C119.103 22.6148 120.68 22.028 121.692 21.7749C122.118 21.6684 122.55 21.9275 122.657 22.3536Z" fill="#E68465"/>
<path fill-rule="evenodd" clip-rule="evenodd" d="M122.657 22.3536C122.763 22.7797 122.504 23.2115 122.078 23.318C121.215 23.5338 119.795 24.0583 118.424 24.9157C117.048 25.7766 115.797 26.9255 115.155 28.3579C114.976 28.7587 114.505 28.938 114.104 28.7583C113.703 28.5786 113.524 28.1081 113.704 27.7073C114.525 25.8761 116.064 24.5164 117.581 23.5673C119.103 22.6148 120.68 22.028 121.692 21.7749C122.118 21.6684 122.55 21.9275 122.657 22.3536Z" fill="#CF4428"/>
<path fill-rule="evenodd" clip-rule="evenodd" d="M142.313 29.1455C145.163 30.1013 147.566 32.0454 148.921 33.5484C149.215 33.8746 149.189 34.3774 148.863 34.6716C148.537 34.9657 148.034 34.9397 147.74 34.6135C146.516 33.2562 144.333 31.5006 141.807 30.6535C139.318 29.8188 136.538 29.8705 133.925 32.0221L133.575 32.3104L133.149 32.1559C131.622 31.6028 129.163 31.1268 126.798 31.4876C124.465 31.8434 122.275 32.9966 121.062 35.6751C120.88 36.0752 120.409 36.2527 120.009 36.0715C119.609 35.8903 119.432 35.4191 119.613 35.019C121.101 31.7331 123.834 30.3307 126.558 29.9152C129.037 29.5371 131.55 29.9624 133.266 30.5155C136.293 28.2176 139.534 28.2135 142.313 29.1455Z" fill="#FBBEE7"/>
<path fill-rule="evenodd" clip-rule="evenodd" d="M142.313 29.1455C145.163 30.1013 147.566 32.0454 148.921 33.5484C149.215 33.8746 149.189 34.3774 148.863 34.6716C148.537 34.9657 148.034 34.9397 147.74 34.6135C146.516 33.2562 144.333 31.5006 141.807 30.6535C139.318 29.8188 136.538 29.8705 133.925 32.0221L133.575 32.3104L133.149 32.1559C131.622 31.6028 129.163 31.1268 126.798 31.4876C124.465 31.8434 122.275 32.9966 121.062 35.6751C120.88 36.0752 120.409 36.2527 120.009 36.0715C119.609 35.8903 119.432 35.4191 119.613 35.019C121.101 31.7331 123.834 30.3307 126.558 29.9152C129.037 29.5371 131.55 29.9624 133.266 30.5155C136.293 28.2176 139.534 28.2135 142.313 29.1455Z" fill="#E68465"/>
<path fill-rule="evenodd" clip-rule="evenodd" d="M142.313 29.1455C145.163 30.1013 147.566 32.0454 148.921 33.5484C149.215 33.8746 149.189 34.3774 148.863 34.6716C148.537 34.9657 148.034 34.9397 147.74 34.6135C146.516 33.2562 144.333 31.5006 141.807 30.6535C139.318 29.8188 136.538 29.8705 133.925 32.0221L133.575 32.3104L133.149 32.1559C131.622 31.6028 129.163 31.1268 126.798 31.4876C124.465 31.8434 122.275 32.9966 121.062 35.6751C120.88 36.0752 120.409 36.2527 120.009 36.0715C119.609 35.8903 119.432 35.4191 119.613 35.019C121.101 31.7331 123.834 30.3307 126.558 29.9152C129.037 29.5371 131.55 29.9624 133.266 30.5155C136.293 28.2176 139.534 28.2135 142.313 29.1455Z" fill="#CF4428"/>
<path fill-rule="evenodd" clip-rule="evenodd" d="M143.148 44.3658C142.77 43.7731 142.169 43.1217 141.339 42.655C140.232 42.0328 138.76 41.764 136.974 42.3379C136.556 42.4723 136.326 42.9203 136.461 43.3384C136.595 43.7566 137.043 43.9866 137.461 43.8522C138.826 43.4134 139.839 43.6369 140.559 44.0415C141.308 44.4626 141.784 45.107 141.981 45.5364L142.219 46.0566L142.788 45.9959C146.793 45.5687 149.512 46.7458 151.303 48.3294C153.12 49.9361 154.028 52.003 154.303 53.3792L154.419 53.9615L155.011 54.0153C158.486 54.3312 160.572 55.8921 161.803 57.6739C163.057 59.4882 163.452 61.5765 163.431 62.9168C163.424 63.356 163.774 63.7177 164.214 63.7247C164.653 63.7316 165.014 63.3813 165.021 62.9421C165.047 61.3284 164.585 58.9011 163.112 56.7697C161.69 54.712 159.351 52.9696 155.726 52.4945C155.283 50.8786 154.236 48.7993 152.357 47.1378C150.306 45.3251 147.307 44.0472 143.148 44.3658Z" fill="#FBBEE7"/>
<path fill-rule="evenodd" clip-rule="evenodd" d="M143.148 44.3658C142.77 43.7731 142.169 43.1217 141.339 42.655C140.232 42.0328 138.76 41.764 136.974 42.3379C136.556 42.4723 136.326 42.9203 136.461 43.3384C136.595 43.7566 137.043 43.9866 137.461 43.8522C138.826 43.4134 139.839 43.6369 140.559 44.0415C141.308 44.4626 141.784 45.107 141.981 45.5364L142.219 46.0566L142.788 45.9959C146.793 45.5687 149.512 46.7458 151.303 48.3294C153.12 49.9361 154.028 52.003 154.303 53.3792L154.419 53.9615L155.011 54.0153C158.486 54.3312 160.572 55.8921 161.803 57.6739C163.057 59.4882 163.452 61.5765 163.431 62.9168C163.424 63.356 163.774 63.7177 164.214 63.7247C164.653 63.7316 165.014 63.3813 165.021 62.9421C165.047 61.3284 164.585 58.9011 163.112 56.7697C161.69 54.712 159.351 52.9696 155.726 52.4945C155.283 50.8786 154.236 48.7993 152.357 47.1378C150.306 45.3251 147.307 44.0472 143.148 44.3658Z" fill="#E68465"/>
<path fill-rule="evenodd" clip-rule="evenodd" d="M143.148 44.3658C142.77 43.7731 142.169 43.1217 141.339 42.655C140.232 42.0328 138.76 41.764 136.974 42.3379C136.556 42.4723 136.326 42.9203 136.461 43.3384C136.595 43.7566 137.043 43.9866 137.461 43.8522C138.826 43.4134 139.839 43.6369 140.559 44.0415C141.308 44.4626 141.784 45.107 141.981 45.5364L142.219 46.0566L142.788 45.9959C146.793 45.5687 149.512 46.7458 151.303 48.3294C153.12 49.9361 154.028 52.003 154.303 53.3792L154.419 53.9615L155.011 54.0153C158.486 54.3312 160.572 55.8921 161.803 57.6739C163.057 59.4882 163.452 61.5765 163.431 62.9168C163.424 63.356 163.774 63.7177 164.214 63.7247C164.653 63.7316 165.014 63.3813 165.021 62.9421C165.047 61.3284 164.585 58.9011 163.112 56.7697C161.69 54.712 159.351 52.9696 155.726 52.4945C155.283 50.8786 154.236 48.7993 152.357 47.1378C150.306 45.3251 147.307 44.0472 143.148 44.3658Z" fill="#CF4428"/>
<path fill-rule="evenodd" clip-rule="evenodd" d="M125.631 49.0326C123.994 49.2504 122.421 50.0073 121.486 50.6372L121.162 50.8562L120.79 50.7323C118.011 49.8057 115.206 50.3704 112.773 51.5198C110.336 52.6706 108.352 54.3728 107.288 55.5701L107.032 55.8584L106.646 55.8356C100.213 55.4539 95.9291 57.4602 93.1677 60.0558C90.3824 62.6739 89.0988 65.9372 88.7708 68.1024C88.705 68.5367 88.2996 68.8354 87.8653 68.7696C87.431 68.7038 87.1323 68.2984 87.1981 67.8642C87.5734 65.3873 89.0048 61.7859 92.0783 58.8968C95.1182 56.0394 99.7198 53.9217 106.361 54.2278C107.587 52.9251 109.622 51.2488 112.093 50.0816C114.653 48.8725 117.755 48.1775 120.924 49.1076C122.022 48.4284 123.666 47.6895 125.421 47.4559C127.38 47.1952 129.573 47.5605 131.21 49.4585C131.497 49.7912 131.459 50.2934 131.127 50.5802C130.794 50.867 130.292 50.8298 130.005 50.4972C128.828 49.1319 127.247 48.8174 125.631 49.0326Z" fill="#FBBEE7"/>
<path fill-rule="evenodd" clip-rule="evenodd" d="M125.631 49.0326C123.994 49.2504 122.421 50.0073 121.486 50.6372L121.162 50.8562L120.79 50.7323C118.011 49.8057 115.206 50.3704 112.773 51.5198C110.336 52.6706 108.352 54.3728 107.288 55.5701L107.032 55.8584L106.646 55.8356C100.213 55.4539 95.9291 57.4602 93.1677 60.0558C90.3824 62.6739 89.0988 65.9372 88.7708 68.1024C88.705 68.5367 88.2996 68.8354 87.8653 68.7696C87.431 68.7038 87.1323 68.2984 87.1981 67.8642C87.5734 65.3873 89.0048 61.7859 92.0783 58.8968C95.1182 56.0394 99.7198 53.9217 106.361 54.2278C107.587 52.9251 109.622 51.2488 112.093 50.0816C114.653 48.8725 117.755 48.1775 120.924 49.1076C122.022 48.4284 123.666 47.6895 125.421 47.4559C127.38 47.1952 129.573 47.5605 131.21 49.4585C131.497 49.7912 131.459 50.2934 131.127 50.5802C130.794 50.867 130.292 50.8298 130.005 50.4972C128.828 49.1319 127.247 48.8174 125.631 49.0326Z" fill="#E68465"/>
<path fill-rule="evenodd" clip-rule="evenodd" d="M125.631 49.0326C123.994 49.2504 122.421 50.0073 121.486 50.6372L121.162 50.8562L120.79 50.7323C118.011 49.8057 115.206 50.3704 112.773 51.5198C110.336 52.6706 108.352 54.3728 107.288 55.5701L107.032 55.8584L106.646 55.8356C100.213 55.4539 95.9291 57.4602 93.1677 60.0558C90.3824 62.6739 89.0988 65.9372 88.7708 68.1024C88.705 68.5367 88.2996 68.8354 87.8653 68.7696C87.431 68.7038 87.1323 68.2984 87.1981 67.8642C87.5734 65.3873 89.0048 61.7859 92.0783 58.8968C95.1182 56.0394 99.7198 53.9217 106.361 54.2278C107.587 52.9251 109.622 51.2488 112.093 50.0816C114.653 48.8725 117.755 48.1775 120.924 49.1076C122.022 48.4284 123.666 47.6895 125.421 47.4559C127.38 47.1952 129.573 47.5605 131.21 49.4585C131.497 49.7912 131.459 50.2934 131.127 50.5802C130.794 50.867 130.292 50.8298 130.005 50.4972C128.828 49.1319 127.247 48.8174 125.631 49.0326Z" fill="#CF4428"/>
<path fill-rule="evenodd" clip-rule="evenodd" d="M130.696 61.706C125.62 59.91 122.116 62.0788 121.068 63.2488L120.762 63.5899L120.313 63.4966C111.731 61.7106 108.157 65.1891 107.451 66.7536C107.27 67.154 106.799 67.332 106.399 67.1513C105.998 66.9706 105.82 66.4996 106.001 66.0993C107.084 63.6986 111.418 60.1638 120.21 61.8538C121.886 60.2819 125.87 58.311 131.226 60.2066C131.64 60.3531 131.857 60.8076 131.711 61.2216C131.564 61.6357 131.11 61.8526 130.696 61.706Z" fill="#FBBEE7"/>
<path fill-rule="evenodd" clip-rule="evenodd" d="M130.696 61.706C125.62 59.91 122.116 62.0788 121.068 63.2488L120.762 63.5899L120.313 63.4966C111.731 61.7106 108.157 65.1891 107.451 66.7536C107.27 67.154 106.799 67.332 106.399 67.1513C105.998 66.9706 105.82 66.4996 106.001 66.0993C107.084 63.6986 111.418 60.1638 120.21 61.8538C121.886 60.2819 125.87 58.311 131.226 60.2066C131.64 60.3531 131.857 60.8076 131.711 61.2216C131.564 61.6357 131.11 61.8526 130.696 61.706Z" fill="#E68465"/>
<path fill-rule="evenodd" clip-rule="evenodd" d="M130.696 61.706C125.62 59.91 122.116 62.0788 121.068 63.2488L120.762 63.5899L120.313 63.4966C111.731 61.7106 108.157 65.1891 107.451 66.7536C107.27 67.154 106.799 67.332 106.399 67.1513C105.998 66.9706 105.82 66.4996 106.001 66.0993C107.084 63.6986 111.418 60.1638 120.21 61.8538C121.886 60.2819 125.87 58.311 131.226 60.2066C131.64 60.3531 131.857 60.8076 131.711 61.2216C131.564 61.6357 131.11 61.8526 130.696 61.706Z" fill="#CF4428"/>
<path fill-rule="evenodd" clip-rule="evenodd" d="M142.686 59.2148C140.565 60.6128 139.314 63.0111 138.831 64.8128C138.717 65.237 138.281 65.4886 137.857 65.3748C137.433 65.261 137.181 64.8248 137.295 64.4006C137.843 62.3573 139.265 59.5648 141.81 57.8869C144.422 56.1647 148.063 55.7171 152.774 58.1315C153.165 58.3318 153.319 58.8111 153.119 59.2019C152.919 59.5928 152.439 59.7473 152.048 59.547C147.757 57.3474 144.739 57.861 142.686 59.2148Z" fill="#FBBEE7"/>
<path fill-rule="evenodd" clip-rule="evenodd" d="M142.686 59.2148C140.565 60.6128 139.314 63.0111 138.831 64.8128C138.717 65.237 138.281 65.4886 137.857 65.3748C137.433 65.261 137.181 64.8248 137.295 64.4006C137.843 62.3573 139.265 59.5648 141.81 57.8869C144.422 56.1647 148.063 55.7171 152.774 58.1315C153.165 58.3318 153.319 58.8111 153.119 59.2019C152.919 59.5928 152.439 59.7473 152.048 59.547C147.757 57.3474 144.739 57.861 142.686 59.2148Z" fill="#E68465"/>
<path fill-rule="evenodd" clip-rule="evenodd" d="M142.686 59.2148C140.565 60.6128 139.314 63.0111 138.831 64.8128C138.717 65.237 138.281 65.4886 137.857 65.3748C137.433 65.261 137.181 64.8248 137.295 64.4006C137.843 62.3573 139.265 59.5648 141.81 57.8869C144.422 56.1647 148.063 55.7171 152.774 58.1315C153.165 58.3318 153.319 58.8111 153.119 59.2019C152.919 59.5928 152.439 59.7473 152.048 59.547C147.757 57.3474 144.739 57.861 142.686 59.2148Z" fill="#CF4428"/>
<path fill-rule="evenodd" clip-rule="evenodd" d="M141.287 49.2701C141.592 48.954 142.096 48.945 142.412 49.2499C143.167 49.9789 144.096 51.2849 144.479 52.8979C144.871 54.5472 144.684 56.4998 143.208 58.3991C142.939 58.7459 142.439 58.8087 142.092 58.5393C141.746 58.2698 141.683 57.7702 141.952 57.4233C143.103 55.9415 143.223 54.4934 142.931 53.2654C142.631 52.0011 141.886 50.9532 141.307 50.3946C140.991 50.0897 140.982 49.5862 141.287 49.2701Z" fill="#FBBEE7"/>
<path fill-rule="evenodd" clip-rule="evenodd" d="M141.287 49.2701C141.592 48.954 142.096 48.945 142.412 49.2499C143.167 49.9789 144.096 51.2849 144.479 52.8979C144.871 54.5472 144.684 56.4998 143.208 58.3991C142.939 58.7459 142.439 58.8087 142.092 58.5393C141.746 58.2698 141.683 57.7702 141.952 57.4233C143.103 55.9415 143.223 54.4934 142.931 53.2654C142.631 52.0011 141.886 50.9532 141.307 50.3946C140.991 50.0897 140.982 49.5862 141.287 49.2701Z" fill="#E68465"/>
<path fill-rule="evenodd" clip-rule="evenodd" d="M141.287 49.2701C141.592 48.954 142.096 48.945 142.412 49.2499C143.167 49.9789 144.096 51.2849 144.479 52.8979C144.871 54.5472 144.684 56.4998 143.208 58.3991C142.939 58.7459 142.439 58.8087 142.092 58.5393C141.746 58.2698 141.683 57.7702 141.952 57.4233C143.103 55.9415 143.223 54.4934 142.931 53.2654C142.631 52.0011 141.886 50.9532 141.307 50.3946C140.991 50.0897 140.982 49.5862 141.287 49.2701Z" fill="#CF4428"/>
<path fill-rule="evenodd" clip-rule="evenodd" d="M112.949 31.8061C113.04 31.3765 113.463 31.1025 113.892 31.194C115.434 31.5225 117.673 32.4297 119.441 34.1145C121.238 35.8263 122.541 38.3418 122.112 41.7767C122.057 42.2125 121.66 42.5217 121.224 42.4672C120.788 42.4127 120.479 42.0152 120.534 41.5794C120.892 38.7123 119.828 36.6795 118.344 35.2661C116.832 33.8257 114.88 33.0307 113.561 32.7497C113.131 32.6581 112.857 32.2357 112.949 31.8061Z" fill="#FBBEE7"/>
<path fill-rule="evenodd" clip-rule="evenodd" d="M112.949 31.8061C113.04 31.3765 113.463 31.1025 113.892 31.194C115.434 31.5225 117.673 32.4297 119.441 34.1145C121.238 35.8263 122.541 38.3418 122.112 41.7767C122.057 42.2125 121.66 42.5217 121.224 42.4672C120.788 42.4127 120.479 42.0152 120.534 41.5794C120.892 38.7123 119.828 36.6795 118.344 35.2661C116.832 33.8257 114.88 33.0307 113.561 32.7497C113.131 32.6581 112.857 32.2357 112.949 31.8061Z" fill="#E68465"/>
<path fill-rule="evenodd" clip-rule="evenodd" d="M112.949 31.8061C113.04 31.3765 113.463 31.1025 113.892 31.194C115.434 31.5225 117.673 32.4297 119.441 34.1145C121.238 35.8263 122.541 38.3418 122.112 41.7767C122.057 42.2125 121.66 42.5217 121.224 42.4672C120.788 42.4127 120.479 42.0152 120.534 41.5794C120.892 38.7123 119.828 36.6795 118.344 35.2661C116.832 33.8257 114.88 33.0307 113.561 32.7497C113.131 32.6581 112.857 32.2357 112.949 31.8061Z" fill="#CF4428"/>
<path fill-rule="evenodd" clip-rule="evenodd" d="M137.042 54.7101C136.876 55.1168 136.411 55.3121 136.005 55.1462C134.545 54.551 132.501 53.2631 131.058 51.2928C129.591 49.291 128.752 46.585 129.781 43.2797C129.911 42.8603 130.357 42.6261 130.776 42.7566C131.196 42.8871 131.43 43.3329 131.299 43.7523C130.441 46.5112 131.13 48.6999 132.341 50.3528C133.575 52.0373 135.357 53.1641 136.605 53.6734C137.012 53.8393 137.207 54.3034 137.042 54.7101Z" fill="#FBBEE7"/>
<path fill-rule="evenodd" clip-rule="evenodd" d="M137.042 54.7101C136.876 55.1168 136.411 55.3121 136.005 55.1462C134.545 54.551 132.501 53.2631 131.058 51.2928C129.591 49.291 128.752 46.585 129.781 43.2797C129.911 42.8603 130.357 42.6261 130.776 42.7566C131.196 42.8871 131.43 43.3329 131.299 43.7523C130.441 46.5112 131.13 48.6999 132.341 50.3528C133.575 52.0373 135.357 53.1641 136.605 53.6734C137.012 53.8393 137.207 54.3034 137.042 54.7101Z" fill="#E68465"/>
<path fill-rule="evenodd" clip-rule="evenodd" d="M137.042 54.7101C136.876 55.1168 136.411 55.3121 136.005 55.1462C134.545 54.551 132.501 53.2631 131.058 51.2928C129.591 49.291 128.752 46.585 129.781 43.2797C129.911 42.8603 130.357 42.6261 130.776 42.7566C131.196 42.8871 131.43 43.3329 131.299 43.7523C130.441 46.5112 131.13 48.6999 132.341 50.3528C133.575 52.0373 135.357 53.1641 136.605 53.6734C137.012 53.8393 137.207 54.3034 137.042 54.7101Z" fill="#CF4428"/>
<path fill-rule="evenodd" clip-rule="evenodd" d="M99.71 64.6514C99.6853 64.2128 100.021 63.8373 100.459 63.8126C101.645 63.7459 103.446 63.9725 105.075 64.8776C106.737 65.8013 108.204 67.4284 108.62 70.0796C108.688 70.5135 108.392 70.9205 107.958 70.9886C107.524 71.0566 107.117 70.7601 107.049 70.3261C106.717 68.2121 105.585 66.9811 104.302 66.268C102.985 65.5363 101.495 65.3474 100.549 65.4007C100.11 65.4254 99.7347 65.0899 99.71 64.6514Z" fill="#FBBEE7"/>
<path fill-rule="evenodd" clip-rule="evenodd" d="M99.71 64.6514C99.6853 64.2128 100.021 63.8373 100.459 63.8126C101.645 63.7459 103.446 63.9725 105.075 64.8776C106.737 65.8013 108.204 67.4284 108.62 70.0796C108.688 70.5135 108.392 70.9205 107.958 70.9886C107.524 71.0566 107.117 70.7601 107.049 70.3261C106.717 68.2121 105.585 66.9811 104.302 66.268C102.985 65.5363 101.495 65.3474 100.549 65.4007C100.11 65.4254 99.7347 65.0899 99.71 64.6514Z" fill="#E68465"/>
<path fill-rule="evenodd" clip-rule="evenodd" d="M99.71 64.6514C99.6853 64.2128 100.021 63.8373 100.459 63.8126C101.645 63.7459 103.446 63.9725 105.075 64.8776C106.737 65.8013 108.204 67.4284 108.62 70.0796C108.688 70.5135 108.392 70.9205 107.958 70.9886C107.524 71.0566 107.117 70.7601 107.049 70.3261C106.717 68.2121 105.585 66.9811 104.302 66.268C102.985 65.5363 101.495 65.3474 100.549 65.4007C100.11 65.4254 99.7347 65.0899 99.71 64.6514Z" fill="#CF4428"/>
<path fill-rule="evenodd" clip-rule="evenodd" d="M87.114 48.302C87.5037 48.5047 87.6552 48.985 87.4525 49.3746C86.9046 50.4277 85.7898 51.8608 84.1798 52.7989C82.537 53.7562 80.3886 54.1869 77.8967 53.1907C77.4889 53.0277 77.2905 52.5649 77.4535 52.157C77.6166 51.7492 78.0794 51.5507 78.4872 51.7138C80.4742 52.5082 82.1105 52.1638 83.3791 51.4246C84.6805 50.6663 85.6038 49.4817 86.0414 48.6405C86.2441 48.2509 86.7244 48.0993 87.114 48.302Z" fill="#FBBEE7"/>
<path fill-rule="evenodd" clip-rule="evenodd" d="M87.114 48.302C87.5037 48.5047 87.6552 48.985 87.4525 49.3746C86.9046 50.4277 85.7898 51.8608 84.1798 52.7989C82.537 53.7562 80.3886 54.1869 77.8967 53.1907C77.4889 53.0277 77.2905 52.5649 77.4535 52.157C77.6166 51.7492 78.0794 51.5507 78.4872 51.7138C80.4742 52.5082 82.1105 52.1638 83.3791 51.4246C84.6805 50.6663 85.6038 49.4817 86.0414 48.6405C86.2441 48.2509 86.7244 48.0993 87.114 48.302Z" fill="#E68465"/>
<path fill-rule="evenodd" clip-rule="evenodd" d="M87.114 48.302C87.5037 48.5047 87.6552 48.985 87.4525 49.3746C86.9046 50.4277 85.7898 51.8608 84.1798 52.7989C82.537 53.7562 80.3886 54.1869 77.8967 53.1907C77.4889 53.0277 77.2905 52.5649 77.4535 52.157C77.6166 51.7492 78.0794 51.5507 78.4872 51.7138C80.4742 52.5082 82.1105 52.1638 83.3791 51.4246C84.6805 50.6663 85.6038 49.4817 86.0414 48.6405C86.2441 48.2509 86.7244 48.0993 87.114 48.302Z" fill="#CF4428"/>
<path fill-rule="evenodd" clip-rule="evenodd" d="M83.8499 51.6635C84.2394 51.8667 84.3903 52.3471 84.1872 52.7365C83.795 53.4882 83.4415 54.4127 83.265 55.3537C83.0874 56.3 83.0985 57.2087 83.3722 57.9685C83.6362 58.7014 84.1618 59.3495 85.1383 59.7897C86.1412 60.2419 87.6545 60.4882 89.8852 60.2977C90.3229 60.2604 90.7079 60.5849 90.7453 61.0225C90.7826 61.4601 90.4582 61.8452 90.0205 61.8826C87.6373 62.086 85.8238 61.8435 84.4845 61.2397C83.1188 60.6241 82.287 59.6492 81.8758 58.5076C81.4743 57.393 81.4924 56.1758 81.7017 55.0604C81.9119 53.9398 82.3252 52.8668 82.777 52.0008C82.9802 51.6113 83.4605 51.4604 83.8499 51.6635Z" fill="#FBBEE7"/>
<path fill-rule="evenodd" clip-rule="evenodd" d="M83.8499 51.6635C84.2394 51.8667 84.3903 52.3471 84.1872 52.7365C83.795 53.4882 83.4415 54.4127 83.265 55.3537C83.0874 56.3 83.0985 57.2087 83.3722 57.9685C83.6362 58.7014 84.1618 59.3495 85.1383 59.7897C86.1412 60.2419 87.6545 60.4882 89.8852 60.2977C90.3229 60.2604 90.7079 60.5849 90.7453 61.0225C90.7826 61.4601 90.4582 61.8452 90.0205 61.8826C87.6373 62.086 85.8238 61.8435 84.4845 61.2397C83.1188 60.6241 82.287 59.6492 81.8758 58.5076C81.4743 57.393 81.4924 56.1758 81.7017 55.0604C81.9119 53.9398 82.3252 52.8668 82.777 52.0008C82.9802 51.6113 83.4605 51.4604 83.8499 51.6635Z" fill="#E68465"/>
<path fill-rule="evenodd" clip-rule="evenodd" d="M83.8499 51.6635C84.2394 51.8667 84.3903 52.3471 84.1872 52.7365C83.795 53.4882 83.4415 54.4127 83.265 55.3537C83.0874 56.3 83.0985 57.2087 83.3722 57.9685C83.6362 58.7014 84.1618 59.3495 85.1383 59.7897C86.1412 60.2419 87.6545 60.4882 89.8852 60.2977C90.3229 60.2604 90.7079 60.5849 90.7453 61.0225C90.7826 61.4601 90.4582 61.8452 90.0205 61.8826C87.6373 62.086 85.8238 61.8435 84.4845 61.2397C83.1188 60.6241 82.287 59.6492 81.8758 58.5076C81.4743 57.393 81.4924 56.1758 81.7017 55.0604C81.9119 53.9398 82.3252 52.8668 82.777 52.0008C82.9802 51.6113 83.4605 51.4604 83.8499 51.6635Z" fill="#CF4428"/>
<path fill-rule="evenodd" clip-rule="evenodd" d="M178.68 52.6035C183.385 49.5305 189.021 49.008 193.958 50.6941C191.738 45.9706 191.638 40.3096 194.178 35.2938C194.618 34.424 195.678 34.0764 196.539 34.5196C201.555 37.0584 204.825 41.6793 205.833 46.7998C208.814 42.5154 213.666 39.5981 219.279 39.2891C220.253 39.2355 221.083 39.9788 221.132 40.9482C221.441 46.5621 219.073 51.7063 215.14 55.1394C220.341 55.5784 225.295 58.3223 228.369 63.029C228.903 63.8391 228.675 64.9294 227.858 65.4628C223.152 68.5368 217.516 69.0591 212.578 67.371C214.796 72.0937 214.895 77.7528 212.356 82.7672C211.919 83.631 210.865 83.9816 209.995 83.5413C204.98 81.0027 201.709 76.3824 200.701 71.2623C197.72 75.544 192.869 78.4591 187.258 78.768C186.289 78.826 185.46 78.0827 185.406 77.1088C185.097 71.4996 187.461 66.3591 191.388 62.9261C186.19 62.4843 181.242 59.7409 178.17 55.0373C177.636 54.2207 177.865 53.1304 178.68 52.6035ZM203.329 59.0097C203.324 59.0307 203.319 59.0519 203.315 59.0731C203.296 59.079 203.277 59.0852 203.259 59.0917L203.211 59.0492L203.225 58.9841L203.28 58.9658C203.296 58.9808 203.312 58.9954 203.329 59.0097Z" fill="url(#paint29_radial_7766_2290)"/>
<path fill-rule="evenodd" clip-rule="evenodd" d="M178.68 52.6035C183.385 49.5305 189.021 49.008 193.958 50.6941C191.738 45.9706 191.638 40.3096 194.178 35.2938C194.618 34.424 195.678 34.0764 196.539 34.5196C201.555 37.0584 204.825 41.6793 205.833 46.7998C208.814 42.5154 213.666 39.5981 219.279 39.2891C220.253 39.2355 221.083 39.9788 221.132 40.9482C221.441 46.5621 219.073 51.7063 215.14 55.1394C220.341 55.5784 225.295 58.3223 228.369 63.029C228.903 63.8391 228.675 64.9294 227.858 65.4628C223.152 68.5368 217.516 69.0591 212.578 67.371C214.796 72.0937 214.895 77.7528 212.356 82.7672C211.919 83.631 210.865 83.9816 209.995 83.5413C204.98 81.0027 201.709 76.3824 200.701 71.2623C197.72 75.544 192.869 78.4591 187.258 78.768C186.289 78.826 185.46 78.0827 185.406 77.1088C185.097 71.4996 187.461 66.3591 191.388 62.9261C186.19 62.4843 181.242 59.7409 178.17 55.0373C177.636 54.2207 177.865 53.1304 178.68 52.6035ZM203.329 59.0097C203.324 59.0307 203.319 59.0519 203.315 59.0731C203.296 59.079 203.277 59.0852 203.259 59.0917L203.211 59.0492L203.225 58.9841L203.28 58.9658C203.296 58.9808 203.312 58.9954 203.329 59.0097Z" fill="url(#paint30_radial_7766_2290)"/>
<path fill-rule="evenodd" clip-rule="evenodd" d="M178.68 52.6035C183.385 49.5305 189.021 49.008 193.958 50.6941C191.738 45.9706 191.638 40.3096 194.178 35.2938C194.618 34.424 195.678 34.0764 196.539 34.5196C201.555 37.0584 204.825 41.6793 205.833 46.7998C208.814 42.5154 213.666 39.5981 219.279 39.2891C220.253 39.2355 221.083 39.9788 221.132 40.9482C221.441 46.5621 219.073 51.7063 215.14 55.1394C220.341 55.5784 225.295 58.3223 228.369 63.029C228.903 63.8391 228.675 64.9294 227.858 65.4628C223.152 68.5368 217.516 69.0591 212.578 67.371C214.796 72.0937 214.895 77.7528 212.356 82.7672C211.919 83.631 210.865 83.9816 209.995 83.5413C204.98 81.0027 201.709 76.3824 200.701 71.2623C197.72 75.544 192.869 78.4591 187.258 78.768C186.289 78.826 185.46 78.0827 185.406 77.1088C185.097 71.4996 187.461 66.3591 191.388 62.9261C186.19 62.4843 181.242 59.7409 178.17 55.0373C177.636 54.2207 177.865 53.1304 178.68 52.6035ZM203.329 59.0097C203.324 59.0307 203.319 59.0519 203.315 59.0731C203.296 59.079 203.277 59.0852 203.259 59.0917L203.211 59.0492L203.225 58.9841L203.28 58.9658C203.296 58.9808 203.312 58.9954 203.329 59.0097Z" fill="url(#paint31_radial_7766_2290)"/>
<path fill-rule="evenodd" clip-rule="evenodd" d="M178.68 52.6035C183.385 49.5305 189.021 49.008 193.958 50.6941C191.738 45.9706 191.638 40.3096 194.178 35.2938C194.618 34.424 195.678 34.0764 196.539 34.5196C201.555 37.0584 204.825 41.6793 205.833 46.7998C208.814 42.5154 213.666 39.5981 219.279 39.2891C220.253 39.2355 221.083 39.9788 221.132 40.9482C221.441 46.5621 219.073 51.7063 215.14 55.1394C220.341 55.5784 225.295 58.3223 228.369 63.029C228.903 63.8391 228.675 64.9294 227.858 65.4628C223.152 68.5368 217.516 69.0591 212.578 67.371C214.796 72.0937 214.895 77.7528 212.356 82.7672C211.919 83.631 210.865 83.9816 209.995 83.5413C204.98 81.0027 201.709 76.3824 200.701 71.2623C197.72 75.544 192.869 78.4591 187.258 78.768C186.289 78.826 185.46 78.0827 185.406 77.1088C185.097 71.4996 187.461 66.3591 191.388 62.9261C186.19 62.4843 181.242 59.7409 178.17 55.0373C177.636 54.2207 177.865 53.1304 178.68 52.6035ZM203.329 59.0097C203.324 59.0307 203.319 59.0519 203.315 59.0731C203.296 59.079 203.277 59.0852 203.259 59.0917L203.211 59.0492L203.225 58.9841L203.28 58.9658C203.296 58.9808 203.312 58.9954 203.329 59.0097Z" fill="url(#paint32_radial_7766_2290)"/>
<path d="M199.183 63.587C201.701 65.8421 205.57 65.6291 207.825 63.1113C210.08 60.5935 209.867 56.7243 207.349 54.4692C204.832 52.2141 200.962 52.4271 198.707 54.9449C196.452 57.4627 196.665 61.3319 199.183 63.587Z" fill="url(#paint33_linear_7766_2290)"/>
<path d="M209.857 60.6914C208.908 60.6914 208.139 59.922 208.139 58.9729C208.139 58.0239 208.908 57.2545 209.857 57.2545C210.806 57.2545 211.576 58.0239 211.576 58.9729C211.576 59.922 210.806 60.6914 209.857 60.6914Z" fill="url(#paint34_radial_7766_2290)"/>
<path d="M197.481 60.6886C196.532 60.6886 195.762 59.9192 195.762 58.9701C195.762 58.0211 196.532 57.2517 197.481 57.2517C198.43 57.2517 199.199 58.0211 199.199 58.9701C199.199 59.9192 198.43 60.6886 197.481 60.6886Z" fill="url(#paint35_radial_7766_2290)"/>
<path d="M208.046 56.3137C207.097 56.3137 206.328 55.5444 206.328 54.5953C206.328 53.6463 207.097 52.8769 208.046 52.8769C208.995 52.8769 209.765 53.6463 209.765 54.5953C209.765 55.5444 208.995 56.3137 208.046 56.3137Z" fill="url(#paint36_radial_7766_2290)"/>
<path d="M199.295 65.0659C198.346 65.0659 197.577 64.2966 197.577 63.3475C197.577 62.3985 198.346 61.6291 199.295 61.6291C200.245 61.6291 201.014 62.3985 201.014 63.3475C201.014 64.2966 200.245 65.0659 199.295 65.0659Z" fill="url(#paint37_radial_7766_2290)"/>
<path d="M203.67 54.5019C202.721 54.5019 201.952 53.7325 201.952 52.7834C201.952 51.8344 202.721 51.065 203.67 51.065C204.619 51.065 205.389 51.8344 205.389 52.7834C205.389 53.7325 204.619 54.5019 203.67 54.5019Z" fill="url(#paint38_radial_7766_2290)"/>
<path d="M203.671 66.8795C202.722 66.8795 201.952 66.1101 201.952 65.1611C201.952 64.212 202.722 63.4426 203.671 63.4426C204.62 63.4426 205.389 64.212 205.389 65.1611C205.389 66.1101 204.62 66.8795 203.671 66.8795Z" fill="url(#paint39_radial_7766_2290)"/>
<path d="M199.296 56.3137C198.347 56.3137 197.578 55.5444 197.578 54.5953C197.578 53.6463 198.347 52.8769 199.296 52.8769C200.245 52.8769 201.015 53.6463 201.015 54.5953C201.015 55.5444 200.245 56.3137 199.296 56.3137Z" fill="url(#paint40_radial_7766_2290)"/>
<path d="M208.046 65.0659C207.097 65.0659 206.328 64.2966 206.328 63.3475C206.328 62.3985 207.097 61.6291 208.046 61.6291C208.995 61.6291 209.765 62.3985 209.765 63.3475C209.765 64.2966 208.995 65.0659 208.046 65.0659Z" fill="url(#paint41_radial_7766_2290)"/>
<defs>
<radialGradient id="paint0_radial_7766_2290" cx="0" cy="0" r="1" gradientUnits="userSpaceOnUse" gradientTransform="translate(47.2456 18.7762) rotate(51.7207) scale(20.6171 20.6172)">
<stop offset="0.441285" stop-color="#FFA284"/>
<stop offset="1" stop-color="#FF3898"/>
</radialGradient>
<radialGradient id="paint1_radial_7766_2290" cx="0" cy="0" r="1" gradientUnits="userSpaceOnUse" gradientTransform="translate(54.7311 32.9706) rotate(87.7122) scale(3.96043 1.75827)">
<stop stop-color="#D6105D"/>
<stop offset="1" stop-color="#D6105D" stop-opacity="0"/>
</radialGradient>
<radialGradient id="paint2_radial_7766_2290" cx="0" cy="0" r="1" gradientUnits="userSpaceOnUse" gradientTransform="translate(62.4771 29.693) rotate(17.6765) scale(5.71564 4.41344)">
<stop stop-color="#D6105D"/>
<stop offset="1" stop-color="#D6105D" stop-opacity="0"/>
</radialGradient>
<radialGradient id="paint3_radial_7766_2290" cx="0" cy="0" r="1" gradientUnits="userSpaceOnUse" gradientTransform="translate(78.4177 14.0047) rotate(146.296) scale(29.6562 25.9541)">
<stop stop-color="#FFD850"/>
<stop offset="1" stop-color="#FFD850" stop-opacity="0"/>
</radialGradient>
<linearGradient id="paint4_linear_7766_2290" x1="54.5985" y1="24.2943" x2="55.366" y2="30.0975" gradientUnits="userSpaceOnUse">
<stop stop-color="#FBFF50"/>
<stop offset="1" stop-color="#FFBE16"/>
</linearGradient>
<radialGradient id="paint5_radial_7766_2290" cx="0" cy="0" r="1" gradientUnits="userSpaceOnUse" gradientTransform="translate(54.309 23.8283) rotate(148.682) scale(1.22733 1.20524)">
<stop stop-color="#81A4FF"/>
<stop offset="0.551062" stop-color="#006363"/>
<stop offset="1" stop-color="#1D0B51"/>
</radialGradient>
<radialGradient id="paint6_radial_7766_2290" cx="0" cy="0" r="1" gradientUnits="userSpaceOnUse" gradientTransform="translate(54.3083 29.1223) rotate(148.682) scale(1.22733 1.20524)">
<stop stop-color="#81A4FF"/>
<stop offset="0.551062" stop-color="#006363"/>
<stop offset="1" stop-color="#1D0B51"/>
</radialGradient>
<radialGradient id="paint7_radial_7766_2290" cx="0" cy="0" r="1" gradientUnits="userSpaceOnUse" gradientTransform="translate(52.4376 24.603) rotate(148.682) scale(1.22733 1.20524)">
<stop stop-color="#81A4FF"/>
<stop offset="0.551062" stop-color="#006363"/>
<stop offset="1" stop-color="#1D0B51"/>
</radialGradient>
<radialGradient id="paint8_radial_7766_2290" cx="0" cy="0" r="1" gradientUnits="userSpaceOnUse" gradientTransform="translate(56.181 28.3468) rotate(148.682) scale(1.22733 1.20524)">
<stop stop-color="#81A4FF"/>
<stop offset="0.551062" stop-color="#006363"/>
<stop offset="1" stop-color="#1D0B51"/>
</radialGradient>
<radialGradient id="paint9_radial_7766_2290" cx="0" cy="0" r="1" gradientUnits="userSpaceOnUse" gradientTransform="translate(51.6622 26.4752) rotate(148.682) scale(1.22733 1.20524)">
<stop stop-color="#81A4FF"/>
<stop offset="0.551062" stop-color="#006363"/>
<stop offset="1" stop-color="#1D0B51"/>
</radialGradient>
<radialGradient id="paint10_radial_7766_2290" cx="0" cy="0" r="1" gradientUnits="userSpaceOnUse" gradientTransform="translate(56.9564 26.4746) rotate(148.682) scale(1.22733 1.20524)">
<stop stop-color="#81A4FF"/>
<stop offset="0.551062" stop-color="#006363"/>
<stop offset="1" stop-color="#1D0B51"/>
</radialGradient>
<radialGradient id="paint11_radial_7766_2290" cx="0" cy="0" r="1" gradientUnits="userSpaceOnUse" gradientTransform="translate(52.4368 28.3468) rotate(148.682) scale(1.22733 1.20524)">
<stop stop-color="#81A4FF"/>
<stop offset="0.551062" stop-color="#006363"/>
<stop offset="1" stop-color="#1D0B51"/>
</radialGradient>
<radialGradient id="paint12_radial_7766_2290" cx="0" cy="0" r="1" gradientUnits="userSpaceOnUse" gradientTransform="translate(56.181 24.6035) rotate(148.682) scale(1.22733 1.20524)">
<stop stop-color="#81A4FF"/>
<stop offset="0.551062" stop-color="#006363"/>
<stop offset="1" stop-color="#1D0B51"/>
</radialGradient>
<radialGradient id="paint13_radial_7766_2290" cx="0" cy="0" r="1" gradientUnits="userSpaceOnUse" gradientTransform="translate(57.7868 68.6145) rotate(99.5037) scale(35.1902 35.1904)">
<stop stop-color="#C699FF"/>
<stop offset="1" stop-color="#9345D0"/>
</radialGradient>
<radialGradient id="paint14_radial_7766_2290" cx="0" cy="0" r="1" gradientUnits="userSpaceOnUse" gradientTransform="translate(58.2506 96.0009) rotate(63.5123) scale(6.75986 3.0011)">
<stop stop-color="#2010D6"/>
<stop offset="1" stop-color="#2C10D6" stop-opacity="0"/>
</radialGradient>
<radialGradient id="paint15_radial_7766_2290" cx="0" cy="0" r="1" gradientUnits="userSpaceOnUse" gradientTransform="translate(43.969 97.4617) rotate(133.548) scale(9.75573 7.53307)">
<stop stop-color="#4F10D6"/>
<stop offset="1" stop-color="#3810D6" stop-opacity="0"/>
</radialGradient>
<linearGradient id="paint16_linear_7766_2290" x1="57.9396" y1="82.9119" x2="54.3181" y2="92.2286" gradientUnits="userSpaceOnUse">
<stop stop-color="#FBFF50"/>
<stop offset="1" stop-color="#FFBE16"/>
</linearGradient>
<radialGradient id="paint17_radial_7766_2290" cx="0" cy="0" r="1" gradientUnits="userSpaceOnUse" gradientTransform="translate(59.7915 86.6106) rotate(-121.318) scale(2.09679 2.05904)">
<stop stop-color="#81A4FF"/>
<stop offset="0.551062" stop-color="#006363"/>
<stop offset="1" stop-color="#1D0B51"/>
</radialGradient>
<radialGradient id="paint18_radial_7766_2290" cx="0" cy="0" r="1" gradientUnits="userSpaceOnUse" gradientTransform="translate(50.7543 86.6106) rotate(-121.318) scale(2.09679 2.05904)">
<stop stop-color="#81A4FF"/>
<stop offset="0.551062" stop-color="#006363"/>
<stop offset="1" stop-color="#1D0B51"/>
</radialGradient>
<radialGradient id="paint19_radial_7766_2290" cx="0" cy="0" r="1" gradientUnits="userSpaceOnUse" gradientTransform="translate(58.4682 83.4167) rotate(-121.318) scale(2.09679 2.05904)">
<stop stop-color="#81A4FF"/>
<stop offset="0.551062" stop-color="#006363"/>
<stop offset="1" stop-color="#1D0B51"/>
</radialGradient>
<radialGradient id="paint20_radial_7766_2290" cx="0" cy="0" r="1" gradientUnits="userSpaceOnUse" gradientTransform="translate(52.0775 89.8045) rotate(-121.318) scale(2.09679 2.05904)">
<stop stop-color="#81A4FF"/>
<stop offset="0.551062" stop-color="#006363"/>
<stop offset="1" stop-color="#1D0B51"/>
</radialGradient>
<radialGradient id="paint21_radial_7766_2290" cx="0" cy="0" r="1" gradientUnits="userSpaceOnUse" gradientTransform="translate(55.2728 82.0926) rotate(-121.318) scale(2.09679 2.05904)">
<stop stop-color="#81A4FF"/>
<stop offset="0.551062" stop-color="#006363"/>
<stop offset="1" stop-color="#1D0B51"/>
</radialGradient>
<radialGradient id="paint22_radial_7766_2290" cx="0" cy="0" r="1" gradientUnits="userSpaceOnUse" gradientTransform="translate(55.2733 91.1302) rotate(-121.318) scale(2.09679 2.05904)">
<stop stop-color="#81A4FF"/>
<stop offset="0.551062" stop-color="#006363"/>
<stop offset="1" stop-color="#1D0B51"/>
</radialGradient>
<radialGradient id="paint23_radial_7766_2290" cx="0" cy="0" r="1" gradientUnits="userSpaceOnUse" gradientTransform="translate(52.078 83.4139) rotate(-121.318) scale(2.09679 2.05904)">
<stop stop-color="#81A4FF"/>
<stop offset="0.551062" stop-color="#006363"/>
<stop offset="1" stop-color="#1D0B51"/>
</radialGradient>
<radialGradient id="paint24_radial_7766_2290" cx="0" cy="0" r="1" gradientUnits="userSpaceOnUse" gradientTransform="translate(58.4682 89.8062) rotate(-121.318) scale(2.09679 2.05904)">
<stop stop-color="#81A4FF"/>
<stop offset="0.551062" stop-color="#006363"/>
<stop offset="1" stop-color="#1D0B51"/>
</radialGradient>
<radialGradient id="paint25_radial_7766_2290" cx="0" cy="0" r="1" gradientUnits="userSpaceOnUse" gradientTransform="translate(119.915 87.9103) rotate(-15.1929) scale(7.87127 30.2842)">
<stop stop-color="#CECDD0"/>
<stop offset="1" stop-color="#AD9ECC"/>
</radialGradient>
<radialGradient id="paint26_radial_7766_2290" cx="0" cy="0" r="1" gradientUnits="userSpaceOnUse" gradientTransform="translate(119.915 87.9103) rotate(-15.1929) scale(7.87127 30.2842)">
<stop stop-color="#BAB1CE"/>
<stop offset="1" stop-color="#775FB0"/>
</radialGradient>
<radialGradient id="paint27_radial_7766_2290" cx="0" cy="0" r="1" gradientUnits="userSpaceOnUse" gradientTransform="translate(135.925 76.7305) rotate(90) scale(14.8845 24.9872)">
<stop offset="0.34884" stop-color="#F13616"/>
<stop offset="1" stop-color="#F67C61"/>
</radialGradient>
<radialGradient id="paint28_radial_7766_2290" cx="0" cy="0" r="1" gradientUnits="userSpaceOnUse" gradientTransform="translate(97.0436 24.7767) rotate(69.6548) scale(56.8829 92.7806)">
<stop offset="0.0107783" stop-color="#FEB09B"/>
<stop offset="1" stop-color="#F47758"/>
</radialGradient>
<radialGradient id="paint29_radial_7766_2290" cx="0" cy="0" r="1" gradientUnits="userSpaceOnUse" gradientTransform="translate(196.509 35.9131) rotate(74.5403) scale(48.2004 48.2006)">
<stop stop-color="#D884FF"/>
<stop offset="1" stop-color="#FF58A8"/>
</radialGradient>
<radialGradient id="paint30_radial_7766_2290" cx="0" cy="0" r="1" gradientUnits="userSpaceOnUse" gradientTransform="translate(199.769 73.2879) rotate(110.532) scale(9.25904 4.11064)">
<stop stop-color="#D6105D"/>
<stop offset="1" stop-color="#D6105D" stop-opacity="0"/>
</radialGradient>
<radialGradient id="paint31_radial_7766_2290" cx="0" cy="0" r="1" gradientUnits="userSpaceOnUse" gradientTransform="translate(219.433 73.2482) rotate(40.4961) scale(13.3625 10.3181)">
<stop stop-color="#D6105D"/>
<stop offset="1" stop-color="#D6105D" stop-opacity="0"/>
</radialGradient>
<radialGradient id="paint32_radial_7766_2290" cx="0" cy="0" r="1" gradientUnits="userSpaceOnUse" gradientTransform="translate(268.008 53.8949) rotate(169.116) scale(69.3327 60.6777)">
<stop stop-color="#FFD850"/>
<stop offset="1" stop-color="#FFD850" stop-opacity="0"/>
</radialGradient>
<linearGradient id="paint33_linear_7766_2290" x1="207.349" y1="54.4682" x2="203.741" y2="67.6694" gradientUnits="userSpaceOnUse">
<stop stop-color="#FBFF50"/>
<stop offset="1" stop-color="#FFBE16"/>
</linearGradient>
<radialGradient id="paint34_radial_7766_2290" cx="0" cy="0" r="1" gradientUnits="userSpaceOnUse" gradientTransform="translate(210.334 59.9414) rotate(-121.318) scale(2.86937 2.81772)">
<stop stop-color="#81A4FF"/>
<stop offset="0.551062" stop-color="#006363"/>
<stop offset="1" stop-color="#1D0B51"/>
</radialGradient>
<radialGradient id="paint35_radial_7766_2290" cx="0" cy="0" r="1" gradientUnits="userSpaceOnUse" gradientTransform="translate(197.958 59.9386) rotate(-121.318) scale(2.86937 2.81772)">
<stop stop-color="#81A4FF"/>
<stop offset="0.551062" stop-color="#006363"/>
<stop offset="1" stop-color="#1D0B51"/>
</radialGradient>
<radialGradient id="paint36_radial_7766_2290" cx="0" cy="0" r="1" gradientUnits="userSpaceOnUse" gradientTransform="translate(208.523 55.5638) rotate(-121.318) scale(2.86937 2.81772)">
<stop stop-color="#81A4FF"/>
<stop offset="0.551062" stop-color="#006363"/>
<stop offset="1" stop-color="#1D0B51"/>
</radialGradient>
<radialGradient id="paint37_radial_7766_2290" cx="0" cy="0" r="1" gradientUnits="userSpaceOnUse" gradientTransform="translate(199.772 64.316) rotate(-121.318) scale(2.86937 2.81772)">
<stop stop-color="#81A4FF"/>
<stop offset="0.551062" stop-color="#006363"/>
<stop offset="1" stop-color="#1D0B51"/>
</radialGradient>
<radialGradient id="paint38_radial_7766_2290" cx="0" cy="0" r="1" gradientUnits="userSpaceOnUse" gradientTransform="translate(204.147 53.7519) rotate(-121.318) scale(2.86937 2.81772)">
<stop stop-color="#81A4FF"/>
<stop offset="0.551062" stop-color="#006363"/>
<stop offset="1" stop-color="#1D0B51"/>
</radialGradient>
<radialGradient id="paint39_radial_7766_2290" cx="0" cy="0" r="1" gradientUnits="userSpaceOnUse" gradientTransform="translate(204.148 66.1296) rotate(-121.318) scale(2.86937 2.81772)">
<stop stop-color="#81A4FF"/>
<stop offset="0.551062" stop-color="#006363"/>
<stop offset="1" stop-color="#1D0B51"/>
</radialGradient>
<radialGradient id="paint40_radial_7766_2290" cx="0" cy="0" r="1" gradientUnits="userSpaceOnUse" gradientTransform="translate(199.773 55.5638) rotate(-121.318) scale(2.86937 2.81772)">
<stop stop-color="#81A4FF"/>
<stop offset="0.551062" stop-color="#006363"/>
<stop offset="1" stop-color="#1D0B51"/>
</radialGradient>
<radialGradient id="paint41_radial_7766_2290" cx="0" cy="0" r="1" gradientUnits="userSpaceOnUse" gradientTransform="translate(208.523 64.316) rotate(-121.318) scale(2.86937 2.81772)">
<stop stop-color="#81A4FF"/>
<stop offset="0.551062" stop-color="#006363"/>
<stop offset="1" stop-color="#1D0B51"/>
</radialGradient>
</defs>
</svg>
