<svg viewBox="0 0 240 120" fill="none" xmlns="http://www.w3.org/2000/svg">
<path fill-rule="evenodd" clip-rule="evenodd" d="M63.5193 117.855V71.5408H66.2885V117.855H63.5193Z" fill="url(#paint0_linear_7588_1356)"/>
<path fill-rule="evenodd" clip-rule="evenodd" d="M113.856 117.855L113.856 83.6561L116.625 83.6561L116.625 117.855L113.856 117.855Z" fill="url(#paint1_linear_7588_1356)"/>
<path fill-rule="evenodd" clip-rule="evenodd" d="M137.077 117.855L137.077 74.7555L139.846 74.7555L139.846 117.855L137.077 117.855Z" fill="url(#paint2_linear_7588_1356)"/>
<path fill-rule="evenodd" clip-rule="evenodd" d="M168.231 117.855L168.231 69.1001L171 69.1001L171 117.855L168.231 117.855Z" fill="url(#paint3_linear_7588_1356)"/>
<path fill-rule="evenodd" clip-rule="evenodd" d="M195.779 117.855L195.779 92.0215L198.548 92.0215L198.548 117.855L195.779 117.855Z" fill="url(#paint4_linear_7588_1356)"/>
<path fill-rule="evenodd" clip-rule="evenodd" d="M28.2692 27.9809C28.2692 15.0001 91.1538 7.78851 107.019 31.4426L98.9423 31.4424C94.0385 20.7693 47.5962 16.1539 35.7692 27.9809H28.2692ZM73.7019 53.3653C64.4656 51.5182 40.3846 51.0577 40.3846 61.4423H40.4607C40.8497 75.4579 69.6267 77.2726 85.3846 72.1155C87.1058 71.5522 88.8134 70.9549 90.483 70.3083C91.4077 72.6991 92.0057 75.5695 92.1364 79.0263C67.4759 76.7664 48.8701 80.3371 46.9125 87.4039H46.875C46.875 87.4501 46.8755 87.4961 46.8765 87.5418C46.876 87.5439 46.8755 87.5461 46.875 87.5482H46.8767C47.0591 95.2936 61.939 97.6337 72.9787 95.9136C82.3808 94.4486 92.1947 90.1935 95.8618 83.8481C96.1051 83.8791 96.3489 83.9105 96.5932 83.9424C119.909 86.9887 131.226 81.6311 141.212 76.9032C147.775 73.7965 153.763 70.9616 162.204 70.9616C174.158 70.9616 184.088 81.9685 192.797 91.6202C199.596 99.1559 205.649 105.866 211.339 105.866H220.962C214.785 105.866 207.691 98.4938 199.607 90.0927C189.18 79.2564 177.104 66.7077 163.224 66.0577C152.39 65.5504 145.333 69.0027 137.876 72.6506C128.374 77.2991 118.223 82.265 98.7802 79.7599C98.2637 79.6934 97.7493 79.6293 97.2371 79.5676C97.3026 75.1166 96.4801 71.4121 95.096 68.3289C106.56 62.8461 114.805 53.9762 110.481 35.7693L103.558 37.2116C106.128 49.596 102.452 57.6268 91.3033 62.5309C85.5627 56.18 77.2309 54.071 73.7019 53.3653ZM90.4357 83.231C69.6716 81.1511 53.3845 82.8148 52.8528 87.5482H52.7309C54.9622 91.0208 65.8625 91.4145 73.7019 90.0001C80.8784 88.7053 87.422 86.1774 90.4357 83.231ZM82.2115 65.4809C61.8936 70.3185 50.8168 66.0761 48.7631 61.1855C49.2884 56.1108 65.4354 56.271 71.3942 57.548C71.7466 57.6235 72.1283 57.7004 72.5346 57.7824L72.5374 57.7829L72.539 57.7833L72.5402 57.7835C76.3462 58.5509 82.3135 59.7541 86.6691 64.2576C85.271 64.6988 83.7856 65.1061 82.2115 65.4809Z" fill="url(#paint5_linear_7588_1356)"/>
<path fill-rule="evenodd" clip-rule="evenodd" d="M28.2692 27.9809C28.2692 15.0001 91.1538 7.78851 107.019 31.4426L98.9423 31.4424C94.0385 20.7693 47.5962 16.1539 35.7692 27.9809H28.2692ZM73.7019 53.3653C64.4656 51.5182 40.3846 51.0577 40.3846 61.4423H40.4607C40.8497 75.4579 69.6267 77.2726 85.3846 72.1155C87.1058 71.5522 88.8134 70.9549 90.483 70.3083C91.4077 72.6991 92.0057 75.5695 92.1364 79.0263C67.4759 76.7664 48.8701 80.3371 46.9125 87.4039H46.875C46.875 87.4501 46.8755 87.4961 46.8765 87.5418C46.876 87.5439 46.8755 87.5461 46.875 87.5482H46.8767C47.0591 95.2936 61.939 97.6337 72.9787 95.9136C82.3808 94.4486 92.1947 90.1935 95.8618 83.8481C96.1051 83.8791 96.3489 83.9105 96.5932 83.9424C119.909 86.9887 131.226 81.6311 141.212 76.9032C147.775 73.7965 153.763 70.9616 162.204 70.9616C174.158 70.9616 184.088 81.9685 192.797 91.6202C199.596 99.1559 205.649 105.866 211.339 105.866H220.962C214.785 105.866 207.691 98.4938 199.607 90.0927C189.18 79.2564 177.104 66.7077 163.224 66.0577C152.39 65.5504 145.333 69.0027 137.876 72.6506C128.374 77.2991 118.223 82.265 98.7802 79.7599C98.2637 79.6934 97.7493 79.6293 97.2371 79.5676C97.3026 75.1166 96.4801 71.4121 95.096 68.3289C106.56 62.8461 114.805 53.9762 110.481 35.7693L103.558 37.2116C106.128 49.596 102.452 57.6268 91.3033 62.5309C85.5627 56.18 77.2309 54.071 73.7019 53.3653ZM90.4357 83.231C69.6716 81.1511 53.3845 82.8148 52.8528 87.5482H52.7309C54.9622 91.0208 65.8625 91.4145 73.7019 90.0001C80.8784 88.7053 87.422 86.1774 90.4357 83.231ZM82.2115 65.4809C61.8936 70.3185 50.8168 66.0761 48.7631 61.1855C49.2884 56.1108 65.4354 56.271 71.3942 57.548C71.7466 57.6235 72.1283 57.7004 72.5346 57.7824L72.5374 57.7829L72.539 57.7833L72.5402 57.7835C76.3462 58.5509 82.3135 59.7541 86.6691 64.2576C85.271 64.6988 83.7856 65.1061 82.2115 65.4809Z" fill="url(#paint6_radial_7588_1356)"/>
<path fill-rule="evenodd" clip-rule="evenodd" d="M6.84647 116.184L28.9138 27.1373L33.3936 28.2475L11.3263 117.294L6.84647 116.184Z" fill="url(#paint7_linear_7588_1356)"/>
<path fill-rule="evenodd" clip-rule="evenodd" d="M36.7904 117.203L44.7231 38.425L49.3153 38.8875L41.3826 117.666L36.7904 117.203Z" fill="url(#paint8_linear_7588_1356)"/>
<path fill-rule="evenodd" clip-rule="evenodd" d="M78.03 118.097L74.4242 40.0427L79.0347 39.8297L82.6404 117.884L78.03 118.097Z" fill="url(#paint9_linear_7588_1356)"/>
<path fill-rule="evenodd" clip-rule="evenodd" d="M102.26 118.314L100.673 36.3933L105.288 36.304L106.874 118.225L102.26 118.314Z" fill="url(#paint10_linear_7588_1356)"/>
<path fill-rule="evenodd" clip-rule="evenodd" d="M123.894 117.017L123.894 43.5599L128.509 43.5599L128.509 117.017L123.894 117.017Z" fill="url(#paint11_linear_7588_1356)"/>
<path fill-rule="evenodd" clip-rule="evenodd" d="M151.154 117.017L151.154 74.4417L155.769 74.4417L155.769 117.017L151.154 117.017Z" fill="url(#paint12_linear_7588_1356)"/>
<path fill-rule="evenodd" clip-rule="evenodd" d="M179.712 117.017L179.712 78.7365L184.327 78.7365L184.327 117.017L179.712 117.017Z" fill="url(#paint13_linear_7588_1356)"/>
<path fill-rule="evenodd" clip-rule="evenodd" d="M210 117.017L210 78.7365L214.615 78.7365L214.615 117.017L210 117.017Z" fill="url(#paint14_linear_7588_1356)"/>
<path d="M100.241 38.798C76.4316 45.3588 27.5486 46.4423 28.2698 26.8269L36.7794 26.1057C36.2025 33.0288 63.8948 37.7884 101.395 29.423C138.895 21.0576 144.869 72.0448 166.731 76.1538C188.593 80.2628 225 59.7115 232.5 111.923H222.981C218.077 67.2115 187.501 89.1346 160.962 83.0769C134.424 77.0192 132.693 29.8557 100.241 38.798Z" fill="url(#paint15_linear_7588_1356)"/>
<path d="M49.0381 104.423C25.9613 104.423 5.7692 104.423 1.15384 120H238.846C238.846 108.461 222.115 104.423 200.192 104.423H49.0385H49.0381Z" fill="url(#paint16_linear_7588_1356)"/>
<path d="M49.0381 104.423C25.9613 104.423 5.7692 104.423 1.15384 120H238.846C238.846 108.461 222.115 104.423 200.192 104.423H49.0385H49.0381Z" fill="url(#paint17_radial_7588_1356)"/>
<defs>
<linearGradient id="paint0_linear_7588_1356" x1="66.5707" y1="203.194" x2="33.8073" y2="199.516" gradientUnits="userSpaceOnUse">
<stop offset="0.0279139" stop-color="#746FD7"/>
<stop offset="1" stop-color="#FFEACC"/>
</linearGradient>
<linearGradient id="paint1_linear_7588_1356" x1="116.907" y1="180.871" x2="84.4804" y2="175.941" gradientUnits="userSpaceOnUse">
<stop offset="0.0279139" stop-color="#746FD7"/>
<stop offset="1" stop-color="#FFEACC"/>
</linearGradient>
<linearGradient id="paint2_linear_7588_1356" x1="140.128" y1="197.272" x2="107.428" y2="193.327" gradientUnits="userSpaceOnUse">
<stop offset="0.0279139" stop-color="#746FD7"/>
<stop offset="1" stop-color="#FFEACC"/>
</linearGradient>
<linearGradient id="paint3_linear_7588_1356" x1="171.282" y1="207.692" x2="138.479" y2="204.194" gradientUnits="userSpaceOnUse">
<stop offset="0.0279139" stop-color="#746FD7"/>
<stop offset="1" stop-color="#FFEACC"/>
</linearGradient>
<linearGradient id="paint4_linear_7588_1356" x1="198.83" y1="165.456" x2="166.946" y2="159.039" gradientUnits="userSpaceOnUse">
<stop offset="0.0279139" stop-color="#746FD7"/>
<stop offset="1" stop-color="#FFEACC"/>
</linearGradient>
<linearGradient id="paint5_linear_7588_1356" x1="188.654" y1="239.423" x2="118.846" y2="-210.577" gradientUnits="userSpaceOnUse">
<stop stop-color="#9590EB"/>
<stop offset="1" stop-color="#FFF4CA"/>
</linearGradient>
<radialGradient id="paint6_radial_7588_1356" cx="0" cy="0" r="1" gradientUnits="userSpaceOnUse" gradientTransform="translate(31.1538 24.2331) rotate(20.4002) scale(37.2395 79.795)">
<stop stop-color="#C0BFFC"/>
<stop offset="1" stop-color="#C0BFFC" stop-opacity="0"/>
</radialGradient>
<linearGradient id="paint7_linear_7588_1356" x1="36.6371" y1="283.256" x2="-178.285" y2="166.357" gradientUnits="userSpaceOnUse">
<stop stop-color="#655FD3"/>
<stop offset="1" stop-color="#FFE2B8"/>
</linearGradient>
<linearGradient id="paint8_linear_7588_1356" x1="50.8455" y1="263.533" x2="-70.231" y2="228.183" gradientUnits="userSpaceOnUse">
<stop stop-color="#655FD3"/>
<stop offset="1" stop-color="#FFE2B8"/>
</linearGradient>
<linearGradient id="paint9_linear_7588_1356" x1="83.6443" y1="262.174" x2="0.571793" y2="246.066" gradientUnits="userSpaceOnUse">
<stop stop-color="#655FD3"/>
<stop offset="1" stop-color="#FFE2B8"/>
</linearGradient>
<linearGradient id="paint10_linear_7588_1356" x1="107.632" y1="269.28" x2="43.8219" y2="260.368" gradientUnits="userSpaceOnUse">
<stop stop-color="#655FD3"/>
<stop offset="1" stop-color="#FFE2B8"/>
</linearGradient>
<linearGradient id="paint11_linear_7588_1356" x1="129.073" y1="252.238" x2="81.297" y2="246.694" gradientUnits="userSpaceOnUse">
<stop stop-color="#655FD3"/>
<stop offset="1" stop-color="#FFE2B8"/>
</linearGradient>
<linearGradient id="paint12_linear_7588_1356" x1="156.333" y1="195.39" x2="109.78" y2="186.068" gradientUnits="userSpaceOnUse">
<stop stop-color="#655FD3"/>
<stop offset="1" stop-color="#FFE2B8"/>
</linearGradient>
<linearGradient id="paint13_linear_7588_1356" x1="184.891" y1="187.485" x2="138.759" y2="177.211" gradientUnits="userSpaceOnUse">
<stop stop-color="#655FD3"/>
<stop offset="1" stop-color="#FFE2B8"/>
</linearGradient>
<linearGradient id="paint14_linear_7588_1356" x1="215.179" y1="187.485" x2="169.048" y2="177.211" gradientUnits="userSpaceOnUse">
<stop stop-color="#655FD3"/>
<stop offset="1" stop-color="#FFE2B8"/>
</linearGradient>
<linearGradient id="paint15_linear_7588_1356" x1="117.692" y1="133.846" x2="186.923" y2="-41.5385" gradientUnits="userSpaceOnUse">
<stop stop-color="#9F9AFF"/>
<stop offset="1" stop-color="#FBFFF4"/>
</linearGradient>
<linearGradient id="paint16_linear_7588_1356" x1="112.788" y1="158.368" x2="88.5577" y2="22.2138" gradientUnits="userSpaceOnUse">
<stop stop-color="#1E794A"/>
<stop offset="1" stop-color="#62BE55"/>
</linearGradient>
<radialGradient id="paint17_radial_7588_1356" cx="0" cy="0" r="1" gradientUnits="userSpaceOnUse" gradientTransform="translate(83.6538 104.423) rotate(-1.27693) scale(155.231 22.9862)">
<stop offset="0.259713" stop-color="#FFD394" stop-opacity="0.7"/>
<stop offset="1" stop-color="#FFD394" stop-opacity="0"/>
</radialGradient>
</defs>
</svg>
