<svg viewBox="0 0 240 120" fill="none" xmlns="http://www.w3.org/2000/svg">
<path d="M114.576 53.6367L159.006 54.9505V110.088L116.272 104.53C115.302 104.404 114.576 103.578 114.576 102.6V53.6367Z" fill="#E23E3E"/>
<path d="M114.576 53.6367L159.006 54.9505V110.088L116.272 104.53C115.302 104.404 114.576 103.578 114.576 102.6V53.6367Z" fill="url(#paint0_linear_316_12375)"/>
<path d="M114.576 53.6367L159.006 54.9505V110.088L116.272 104.53C115.302 104.404 114.576 103.578 114.576 102.6V53.6367Z" fill="url(#paint1_linear_316_12375)"/>
<path d="M190.397 52.9081L159.007 54.9528V110.091L188.846 103.903C189.75 103.716 190.397 102.92 190.397 101.997V52.9081Z" fill="#C52626"/>
<path d="M190.397 52.9081L159.007 54.9528V110.091L188.846 103.903C189.75 103.716 190.397 102.92 190.397 101.997V52.9081Z" fill="url(#paint2_linear_316_12375)"/>
<path d="M190.397 52.9081L159.007 54.9528V110.091L188.846 103.903C189.75 103.716 190.397 102.92 190.397 101.997V52.9081Z" fill="url(#paint3_linear_316_12375)"/>
<path d="M145.794 41.3009C140.577 41.6634 126.908 47.1639 120.157 39.5476C118.154 37.2875 120.101 33.5199 121.608 28.2741C123.115 23.0283 123.784 13.3178 133.03 16.2116C142.276 19.1053 152.044 34.6476 152.044 34.6476L145.794 41.3009Z" fill="#FFAB9F"/>
<path d="M145.794 41.3009C140.577 41.6634 126.908 47.1639 120.157 39.5476C118.154 37.2875 120.101 33.5199 121.608 28.2741C123.115 23.0283 123.784 13.3178 133.03 16.2116C142.276 19.1053 152.044 34.6476 152.044 34.6476L145.794 41.3009Z" fill="url(#paint4_radial_316_12375)"/>
<path d="M145.794 41.3009C140.577 41.6634 126.908 47.1639 120.157 39.5476C118.154 37.2875 120.101 33.5199 121.608 28.2741C123.115 23.0283 123.784 13.3178 133.03 16.2116C142.276 19.1053 152.044 34.6476 152.044 34.6476L145.794 41.3009Z" fill="url(#paint5_radial_316_12375)"/>
<path d="M130.956 18.1849C138.224 17.9067 147.063 28.6821 151.073 34.3145L149.709 36.5671C127.512 29.8952 123.482 18.4711 130.956 18.1849Z" fill="#CB675C"/>
<path d="M130.956 18.1849C138.224 17.9067 147.063 28.6821 151.073 34.3145L149.709 36.5671C127.512 29.8952 123.482 18.4711 130.956 18.1849Z" fill="url(#paint6_radial_316_12375)"/>
<path d="M158.105 41.2216C163.323 41.5841 180.27 47.1639 187.021 39.5476C189.024 37.2875 187.077 33.5199 185.57 28.2741C184.063 23.0283 183.393 13.3178 174.148 16.2116C164.902 19.1053 155.133 34.6476 155.133 34.6476L158.105 41.2216Z" fill="#FFAB9F"/>
<path d="M158.105 41.2216C163.323 41.5841 180.27 47.1639 187.021 39.5476C189.024 37.2875 187.077 33.5199 185.57 28.2741C184.063 23.0283 183.393 13.3178 174.148 16.2116C164.902 19.1053 155.133 34.6476 155.133 34.6476L158.105 41.2216Z" fill="url(#paint7_radial_316_12375)"/>
<path d="M158.105 41.2216C163.323 41.5841 180.27 47.1639 187.021 39.5476C189.024 37.2875 187.077 33.5199 185.57 28.2741C184.063 23.0283 183.393 13.3178 174.148 16.2116C164.902 19.1053 155.133 34.6476 155.133 34.6476L158.105 41.2216Z" fill="url(#paint8_radial_316_12375)"/>
<path d="M176.222 18.1849C168.954 17.9067 160.115 28.6821 156.105 34.3145L157.469 36.5671C179.666 29.8952 183.696 18.4711 176.222 18.1849Z" fill="#CB675C"/>
<path d="M176.222 18.1849C168.954 17.9067 160.115 28.6821 156.105 34.3145L157.469 36.5671C179.666 29.8952 183.696 18.4711 176.222 18.1849Z" fill="url(#paint9_radial_316_12375)"/>
<path d="M147.162 32.7781C147.627 31.0878 149.164 29.9163 150.917 29.9163H155.357C157.406 29.9163 159.105 31.5053 159.242 33.5504L159.698 40.3847C159.848 42.6322 158.066 44.5378 155.813 44.5378H149.039C146.468 44.5378 144.603 42.091 145.284 39.6124L147.162 32.7781Z" fill="#FFAB9F"/>
<path d="M147.162 32.7781C147.627 31.0878 149.164 29.9163 150.917 29.9163H155.357C157.406 29.9163 159.105 31.5053 159.242 33.5504L159.698 40.3847C159.848 42.6322 158.066 44.5378 155.813 44.5378H149.039C146.468 44.5378 144.603 42.091 145.284 39.6124L147.162 32.7781Z" fill="url(#paint10_radial_316_12375)"/>
<path d="M147.162 32.7781C147.627 31.0878 149.164 29.9163 150.917 29.9163H155.357C157.406 29.9163 159.105 31.5053 159.242 33.5504L159.698 40.3847C159.848 42.6322 158.066 44.5378 155.813 44.5378H149.039C146.468 44.5378 144.603 42.091 145.284 39.6124L147.162 32.7781Z" fill="url(#paint11_radial_316_12375)"/>
<path d="M112.344 44.7603C112.344 43.7289 113.148 42.8765 114.178 42.8168L159.006 40.2178V59.0808L114.217 57.3921C113.171 57.3527 112.344 56.4933 112.344 55.4467V44.7603Z" fill="#E23E3E"/>
<path d="M112.344 44.7603C112.344 43.7289 113.148 42.8765 114.178 42.8168L159.006 40.2178V59.0808L114.217 57.3921C113.171 57.3527 112.344 56.4933 112.344 55.4467V44.7603Z" fill="url(#paint12_linear_316_12375)"/>
<path d="M191.367 44.714C191.367 43.7017 190.591 42.8583 189.582 42.7739L159.006 40.2178V59.0808L189.526 57.4216C190.559 57.3654 191.367 56.5117 191.367 55.4776V44.714Z" fill="#C52626"/>
<path d="M191.367 44.714C191.367 43.7017 190.591 42.8583 189.582 42.7739L159.006 40.2178V59.0808L189.526 57.4216C190.559 57.3654 191.367 56.5117 191.367 55.4776V44.714Z" fill="url(#paint13_linear_316_12375)"/>
<path d="M191.367 44.714C191.367 43.7017 190.591 42.8583 189.582 42.7739L159.006 40.2178V59.0808L189.526 57.4216C190.559 57.3654 191.367 56.5117 191.367 55.4776V44.714Z" fill="url(#paint14_linear_316_12375)"/>
<path fill-rule="evenodd" clip-rule="evenodd" d="M128.84 106.165V54.0583L141.04 54.4191V107.752L128.84 106.165Z" fill="#FFAB9F"/>
<path fill-rule="evenodd" clip-rule="evenodd" d="M128.84 106.165V54.0583L141.04 54.4191V107.752L128.84 106.165Z" fill="url(#paint15_linear_316_12375)"/>
<path fill-rule="evenodd" clip-rule="evenodd" d="M128.84 106.165V54.0583L141.04 54.4191V107.752L128.84 106.165Z" fill="url(#paint16_linear_316_12375)"/>
<path fill-rule="evenodd" clip-rule="evenodd" d="M173.627 107.059V54.0003L181.664 53.4768V105.392L173.627 107.059Z" fill="#FFAB9F"/>
<path fill-rule="evenodd" clip-rule="evenodd" d="M173.627 107.059V54.0003L181.664 53.4768V105.392L173.627 107.059Z" fill="url(#paint17_linear_316_12375)"/>
<path fill-rule="evenodd" clip-rule="evenodd" d="M173.627 107.059V54.0003L181.664 53.4768V105.392L173.627 107.059Z" fill="url(#paint18_linear_316_12375)"/>
<path fill-rule="evenodd" clip-rule="evenodd" d="M128.84 57.9424V41.9656L141.04 41.2583V58.4023L128.84 57.9424Z" fill="#E8BA61"/>
<path fill-rule="evenodd" clip-rule="evenodd" d="M128.84 57.9424V41.9656L141.04 41.2583V58.4023L128.84 57.9424Z" fill="#FFAB9F"/>
<path fill-rule="evenodd" clip-rule="evenodd" d="M173.627 58.2294V41.4395L181.664 42.1113V57.7925L173.627 58.2294Z" fill="#E8BA61"/>
<path fill-rule="evenodd" clip-rule="evenodd" d="M173.627 58.2294V41.4395L181.664 42.1113V57.7925L173.627 58.2294Z" fill="#FFAB9F"/>
<path d="M124.063 44.1793C123.84 35.8081 134.444 34.4692 145.494 38.8222L145.047 41.1663C140.415 40.8306 134.053 42.3376 134.053 45.0164C134.946 65.1068 128.714 72.8276 124.063 73.8696C125.477 72.4558 125.626 66.1012 125.626 62.2617C122.59 65.2083 117.329 65.2381 115.692 63.8243C123.394 63.6011 124.287 52.5504 124.063 44.1793Z" fill="#FFAB9F"/>
<path d="M124.063 44.1793C123.84 35.8081 134.444 34.4692 145.494 38.8222L145.047 41.1663C140.415 40.8306 134.053 42.3376 134.053 45.0164C134.946 65.1068 128.714 72.8276 124.063 73.8696C125.477 72.4558 125.626 66.1012 125.626 62.2617C122.59 65.2083 117.329 65.2381 115.692 63.8243C123.394 63.6011 124.287 52.5504 124.063 44.1793Z" fill="url(#paint19_radial_316_12375)"/>
<path d="M124.063 44.1793C123.84 35.8081 134.444 34.4692 145.494 38.8222L145.047 41.1663C140.415 40.8306 134.053 42.3376 134.053 45.0164C134.946 65.1068 128.714 72.8276 124.063 73.8696C125.477 72.4558 125.626 66.1012 125.626 62.2617C122.59 65.2083 117.329 65.2381 115.692 63.8243C123.394 63.6011 124.287 52.5504 124.063 44.1793Z" fill="url(#paint20_radial_316_12375)"/>
<path d="M124.063 44.1793C123.84 35.8081 134.444 34.4692 145.494 38.8222L145.047 41.1663C140.415 40.8306 134.053 42.3376 134.053 45.0164C134.946 65.1068 128.714 72.8276 124.063 73.8696C125.477 72.4558 125.626 66.1012 125.626 62.2617C122.59 65.2083 117.329 65.2381 115.692 63.8243C123.394 63.6011 124.287 52.5504 124.063 44.1793Z" fill="url(#paint21_radial_316_12375)"/>
<path d="M188.019 42.3004C188.019 35.3807 170.83 36.199 159.557 37.8723V40.2166C167.816 41.4444 178.574 38.641 178.196 47.1367C177.303 67.2271 183.368 70.9488 188.019 71.9908C186.605 70.577 186.456 64.2224 186.456 60.3828C189.492 63.3295 194.753 63.3592 196.39 61.9455C188.688 61.7222 188.019 50.6745 188.019 42.3004Z" fill="#FFAB9F"/>
<path d="M188.019 42.3004C188.019 35.3807 170.83 36.199 159.557 37.8723V40.2166C167.816 41.4444 178.574 38.641 178.196 47.1367C177.303 67.2271 183.368 70.9488 188.019 71.9908C186.605 70.577 186.456 64.2224 186.456 60.3828C189.492 63.3295 194.753 63.3592 196.39 61.9455C188.688 61.7222 188.019 50.6745 188.019 42.3004Z" fill="url(#paint22_radial_316_12375)"/>
<path d="M188.019 42.3004C188.019 35.3807 170.83 36.199 159.557 37.8723V40.2166C167.816 41.4444 178.574 38.641 178.196 47.1367C177.303 67.2271 183.368 70.9488 188.019 71.9908C186.605 70.577 186.456 64.2224 186.456 60.3828C189.492 63.3295 194.753 63.3592 196.39 61.9455C188.688 61.7222 188.019 50.6745 188.019 42.3004Z" fill="url(#paint23_radial_316_12375)"/>
<path d="M188.019 42.3004C188.019 35.3807 170.83 36.199 159.557 37.8723V40.2166C167.816 41.4444 178.574 38.641 178.196 47.1367C177.303 67.2271 183.368 70.9488 188.019 71.9908C186.605 70.577 186.456 64.2224 186.456 60.3828C189.492 63.3295 194.753 63.3592 196.39 61.9455C188.688 61.7222 188.019 50.6745 188.019 42.3004Z" fill="url(#paint24_radial_316_12375)"/>
<path d="M188.019 42.3004C188.019 35.3807 170.83 36.199 159.557 37.8723V40.2166C167.816 41.4444 178.574 38.641 178.196 47.1367C177.303 67.2271 183.368 70.9488 188.019 71.9908C186.605 70.577 186.456 64.2224 186.456 60.3828C189.492 63.3295 194.753 63.3592 196.39 61.9455C188.688 61.7222 188.019 50.6745 188.019 42.3004Z" fill="url(#paint25_radial_316_12375)"/>
<path d="M188.019 42.3004C188.019 35.3807 170.83 36.199 159.557 37.8723V40.2166C167.816 41.4444 178.574 38.641 178.196 47.1367C177.303 67.2271 183.368 70.9488 188.019 71.9908C186.605 70.577 186.456 64.2224 186.456 60.3828C189.492 63.3295 194.753 63.3592 196.39 61.9455C188.688 61.7222 188.019 50.6745 188.019 42.3004Z" fill="url(#paint26_radial_316_12375)"/>
<path fill-rule="evenodd" clip-rule="evenodd" d="M88.9704 41.6104C87.1209 43.1096 84.7399 46.4808 84.335 51.5416C83.9338 56.5564 85.4628 63.4493 91.8061 71.9681C93.6094 74.3899 89.8538 77.1864 88.0505 74.7646C81.189 65.5499 79.1564 57.5567 79.6675 51.1682C80.175 44.8256 83.1803 40.2763 86.022 37.9729C88.3676 36.0716 91.3161 39.7091 88.9704 41.6104Z" fill="url(#paint27_radial_316_12375)"/>
<path fill-rule="evenodd" clip-rule="evenodd" d="M65.1253 78.8555C54.5713 74.841 43.1967 72.9912 32.9624 76.3153C30.0907 77.248 28.6442 72.7947 31.5159 71.8619C43.1914 68.0697 55.7574 70.2825 66.79 74.479C77.8538 78.6873 87.6662 84.999 94.0291 89.8253C96.4348 91.6501 93.605 95.3807 91.1994 93.556C85.0685 88.9056 75.6483 82.8581 65.1253 78.8555Z" fill="url(#paint28_radial_316_12375)"/>
<path d="M99.0305 75.8974C87.9688 80.0389 86.8366 90.4746 87.6532 95.1748L90.2041 96.6218L99.0868 92.617L102.658 79.9272L99.0305 75.8974Z" fill="url(#paint29_radial_316_12375)"/>
<path d="M28.0603 87.2173C19.8704 90.1768 13.4819 83.475 23.8623 75.5352L33.567 71.2184C34.8822 72.567 37.5726 75.8508 37.8129 78.1974C38.1133 81.1306 36.2502 84.2578 28.0603 87.2173Z" fill="url(#paint30_radial_316_12375)"/>
<path d="M18.2111 64.993C20.6338 61.7533 28.6403 61.6225 36.6489 70.0573L39.118 71.0964C38.2136 73.0665 34.8344 76.9751 28.5529 76.8492C20.7011 76.6917 15.7884 68.2327 18.2111 64.993Z" fill="url(#paint31_radial_316_12375)"/>
<path d="M36.9411 84.4333C37.2819 82.0877 39.3621 76.5196 41.2214 74.3098L39.3304 70.5146C35.9178 69.2639 33.3231 66.4768 31.2889 62.907C30.7465 65.8521 31.9787 69.3996 34.5394 71.5831C32.9799 71.8071 30.6588 74.3056 29.6932 75.5268C31.2881 75.9707 34.4404 77.1065 36.3373 76.8692C35.3917 78.5966 36.2052 82.6373 36.9411 84.4333Z" fill="url(#paint32_radial_316_12375)"/>
<path fill-rule="evenodd" clip-rule="evenodd" d="M88.1017 55.5596C90.1447 63.5722 93.303 70.8804 98.4207 77.2802C103.532 83.6725 110.685 89.2665 120.871 93.7308C123.636 94.9429 121.756 99.2314 118.991 98.0194C108.2 93.2896 100.405 87.2598 94.7637 80.2045C89.1279 73.1567 85.7259 65.1934 83.5645 56.7165C82.8184 53.7906 87.3557 52.6337 88.1017 55.5596Z" fill="url(#paint33_radial_316_12375)"/>
<path fill-rule="evenodd" clip-rule="evenodd" d="M79.8998 60.3551C84.2163 65.8215 91.4226 74.3259 98.9755 82.0308C102.752 85.8833 106.589 89.5089 110.175 92.447C113.795 95.4134 117.023 97.5639 119.591 98.6009C122.39 99.7315 120.637 104.073 117.837 102.943C114.602 101.636 110.936 99.1237 107.207 96.0689C103.445 92.986 99.478 89.2322 95.6318 85.3086C87.9392 77.4613 80.6229 68.8263 76.225 63.257C74.3537 60.8873 78.0285 57.9854 79.8998 60.3551Z" fill="url(#paint34_radial_316_12375)"/>
<path fill-rule="evenodd" clip-rule="evenodd" d="M71.8291 65.6693C78.8897 69.3598 90.7939 79.0788 100.734 87.6623C105.751 91.9946 110.341 96.103 113.676 99.1275C115.46 100.746 117.238 102.372 119.004 104.012C121.223 106.079 118.138 109.608 115.907 107.527C114.128 105.869 112.331 104.23 110.53 102.596C107.214 99.5885 102.654 95.5067 97.6736 91.2063C87.6197 82.5244 76.144 73.2081 69.6601 69.8191C66.9841 68.4204 69.1532 64.2706 71.8291 65.6693Z" fill="url(#paint35_radial_316_12375)"/>
<path fill-rule="evenodd" clip-rule="evenodd" d="M64.8964 73.3092C65.4881 72.1596 66.8998 71.7072 68.0495 72.2989C89.711 83.4477 104.667 95.0468 112.607 104.825C113.422 105.828 113.269 107.303 112.265 108.118C111.261 108.933 109.787 108.78 108.972 107.776C101.599 98.6964 87.2685 87.4568 65.9067 76.4623C64.757 75.8706 64.3047 74.4589 64.8964 73.3092Z" fill="url(#paint36_radial_316_12375)"/>
<path fill-rule="evenodd" clip-rule="evenodd" d="M55.9148 78.1649C60.6798 77.9782 70.0547 79.9765 79.9552 84.2595C89.9196 88.5702 100.803 95.3578 108.396 105.074C110.255 107.453 106.566 110.336 104.706 107.957C97.7614 99.0699 87.6372 92.6846 78.0961 88.557C68.4912 84.4018 59.8626 82.6962 56.098 82.8437C53.0809 82.9619 52.8976 78.283 55.9148 78.1649Z" fill="url(#paint37_radial_316_12375)"/>
<path d="M75.9168 78.7634C82.3432 78.3649 84.1941 70.0665 78.3283 67.0669L71.3036 57.0933L66.1221 61.8242C64.5935 63.4644 61.8972 67.796 63.3407 72.0011C65.1452 77.2575 69.4904 79.162 75.9168 78.7634Z" fill="url(#paint38_radial_316_12375)"/>
<path d="M74.3216 68.9542C67.7436 66.3569 74.737 61.2413 68.381 57.2409L69.6537 53.4404C76.883 51.5361 85.2294 54.3368 85.5956 61.5707C85.9618 68.8045 80.8996 71.5515 74.3216 68.9542Z" fill="url(#paint39_radial_316_12375)"/>
<path d="M51.1697 22.5837C48.2922 25.0737 46.7161 28.6696 52.5653 34.234L61.1105 45.3026L69.4774 45.6116L72.4557 40.7724C71.4076 35.5023 69.1077 24.4156 68.2938 22.2298C67.2765 19.4976 62.0516 19.0295 59.9381 22.1398C57.3095 19.4159 54.0473 20.0937 51.1697 22.5837Z" fill="url(#paint40_radial_316_12375)"/>
<path d="M72.522 53.6621C76.688 49.1291 73.3759 40.1397 66.2179 44.8974L58.8081 56.2607C57.0708 59.0835 55.5092 64.8961 63.1616 65.5636C72.7272 66.398 68.3561 58.1951 72.522 53.6621Z" fill="url(#paint41_radial_316_12375)"/>
<path d="M77.6785 20.9489C82.0755 23.8763 77.1409 32.0378 77.2657 38.8443L71.9436 40.7984C65.7023 39.0632 61.6679 31.7222 62.8075 25.2912C63.9471 18.8602 73.2814 18.0214 77.6785 20.9489Z" fill="url(#paint42_radial_316_12375)"/>
<path d="M79.9725 37.3147C75.8862 34.7378 69.5938 39.2318 69.2248 44.9646C68.8557 50.6973 72.484 57.2531 79.3451 56.7593C86.2061 56.2655 84.4554 49.175 80.9906 47.2992C77.5259 45.4234 84.0588 39.8916 79.9725 37.3147Z" fill="url(#paint43_radial_316_12375)"/>
<path d="M91.6132 44.4174C90.125 42.5148 85.2757 40.7824 80.8267 48.4065C75.1468 56.6055 76.409 65.3328 86.2983 63.8799C96.1877 62.4269 98.3771 52.1335 94.5257 51.3029C90.6743 50.4722 93.1014 46.32 91.6132 44.4174Z" fill="url(#paint44_radial_316_12375)"/>
<path d="M41.3495 31.8723C44.1428 29.167 49.5555 26.1092 52.7316 33.8601L53.6047 39.53L51.1517 43.1705C50.7722 41.9443 49.5477 39.5596 43.8864 40.0219C36.8098 40.5999 38.5562 34.5775 41.3495 31.8723Z" fill="url(#paint45_radial_316_12375)"/>
<path d="M30.3382 42.9609C33.4886 38.6258 39.0649 40.2482 42.1346 47.3452C43.7046 47.4854 47.5295 48.2733 50.2694 50.303C53.0094 52.3327 50.8369 56.208 49.4082 57.892C46.7111 60.568 39.9667 65.0069 34.5659 61.3537C27.815 56.7873 40.1904 52.3515 35.0709 51.0723C29.9515 49.7931 27.1879 47.2959 30.3382 42.9609Z" fill="url(#paint46_radial_316_12375)"/>
<path d="M44.8498 71.3991C34.8902 77.251 29.4296 67.7843 38.7788 61.4506C45.7065 56.4848 53.289 58.6649 60.1704 61.4666C67.0518 64.2683 64.325 74.0761 60.8694 75.2766C55.8135 77.0332 61.2751 78.2773 50.9737 78.0485C43.9331 77.8921 48.2499 69.1026 44.8498 71.3991Z" fill="url(#paint47_radial_316_12375)"/>
<path d="M41.4892 71.8825C44.8354 69.9016 55.4544 69.5565 56.7395 77.8337L56.621 81.2551L53.3882 84.2248C53.3045 82.944 52.6685 80.3397 47.0551 79.4719C40.0383 78.3873 38.143 73.8634 41.4892 71.8825Z" fill="url(#paint48_radial_316_12375)"/>
<path d="M35.8128 79.6551C39.2263 72.4558 57.0904 74.2383 57.1028 81.9135C57.4392 86.8031 48.2012 94.769 43.2929 92.4047C39.3663 90.5133 40.6375 87.7976 41.7639 86.6761C37.9527 86.2628 33.7651 83.9739 35.8128 79.6551Z" fill="url(#paint49_radial_316_12375)"/>
<path d="M59.7765 48.6683C59.3916 54.0766 52.8949 55.0501 48.8221 52.3933C44.7494 49.7364 42.3786 53.7488 38.9541 49.9088C35.5295 46.0689 37.373 39.5498 41.4202 38.1755C45.4674 36.8011 48.6282 40.0983 49.7969 36.4133C50.9655 32.7283 52.1003 28.5271 58.8864 29.8658C65.6725 31.2045 65.1025 38.8007 61.1002 40.39C57.8369 41.6859 60.0033 45.4811 59.7765 48.6683Z" fill="url(#paint50_radial_316_12375)"/>
<path d="M62.1551 54.2268C66.2885 53.2797 69.2542 40.964 61.5383 42.0419C53.8225 43.1198 51.0255 41.7866 48.9887 48.932C46.9519 56.0773 45.2634 63.5757 52.9451 65.0234C62.5472 66.833 64.3444 56.9855 62.1551 54.2268Z" fill="url(#paint51_radial_316_12375)"/>
<path d="M86.5815 19.9753C81.3894 20.8799 75.251 26.5713 85.2424 37.1963L88.3303 37.9548C97.5312 37.4891 102.417 31.6002 101.753 27.517C101.089 23.4338 98.1648 22.8957 94.667 23.0727C90.7887 23.269 90.2845 19.3302 86.5815 19.9753Z" fill="url(#paint52_radial_316_12375)"/>
<path d="M101.777 29.4981C97.1521 26.9877 88.3783 29.8714 86.1325 38.2188L86.8862 39.5528C88.6403 39.5657 90.8404 39.3527 96.5436 39.064C102.247 38.7753 106.402 32.0086 101.777 29.4981Z" fill="url(#paint53_radial_316_12375)"/>
<path d="M80.185 32.8352C81.6497 34.275 84.4756 38.5811 85.0675 41.0125L88.6886 41.635C91.3108 39.8907 94.5878 39.505 98.1247 39.912C96.3442 38.0243 93.2337 37.0682 90.3961 37.7393C91.0383 36.5347 90.4812 33.6326 90.1224 32.3322C88.9952 33.2195 86.5865 34.8407 85.7807 36.288C85.0578 34.7423 81.8171 33.241 80.185 32.8352Z" fill="url(#paint54_radial_316_12375)"/>
<path d="M53.323 89.7527C54.2573 87.8441 57.583 83.5975 59.8038 82.1432L59.1867 78.5096C56.5522 76.6891 55.0479 73.7512 54.2448 70.2763C52.9719 72.6471 53.0821 75.9239 54.7207 78.3434C53.3007 78.1846 50.5989 79.7801 49.4255 80.5977C50.695 81.3295 53.1339 82.9948 54.8517 83.2177C53.5583 84.4681 53.1696 88.0686 53.323 89.7527Z" fill="url(#paint55_radial_316_12375)"/>
<path d="M99.0522 75.7251C101.09 82.3591 94.3775 93.5292 87.5639 95.1416L95.9729 101.701C96.2859 101.945 96.703 102.018 97.0711 101.869C104.486 98.877 108.925 89.0946 108.529 83.5578C108.507 83.2504 108.345 82.974 108.102 82.7845L99.0522 75.7251Z" fill="url(#paint56_radial_316_12375)"/>
<defs>
<linearGradient id="paint0_linear_316_12375" x1="136.791" y1="51.3783" x2="136.791" y2="63.6559" gradientUnits="userSpaceOnUse">
<stop stop-color="#7D4F35"/>
<stop offset="1" stop-color="#7D4F35" stop-opacity="0"/>
</linearGradient>
<linearGradient id="paint1_linear_316_12375" x1="127.747" y1="128.504" x2="131.877" y2="91.2248" gradientUnits="userSpaceOnUse">
<stop stop-color="#7D4F35"/>
<stop offset="1" stop-color="#7D4F35" stop-opacity="0"/>
</linearGradient>
<linearGradient id="paint2_linear_316_12375" x1="174.703" y1="55.5083" x2="174.703" y2="63.0577" gradientUnits="userSpaceOnUse">
<stop stop-color="#613117"/>
<stop offset="1" stop-color="#7D4F35" stop-opacity="0"/>
</linearGradient>
<linearGradient id="paint3_linear_316_12375" x1="131.319" y1="128.839" x2="174.703" y2="63.0577" gradientUnits="userSpaceOnUse">
<stop stop-color="#7D4F35"/>
<stop offset="1" stop-color="#7D4F35" stop-opacity="0"/>
</linearGradient>
<radialGradient id="paint4_radial_316_12375" cx="0" cy="0" r="1" gradientUnits="userSpaceOnUse" gradientTransform="translate(136.232 24.1462) rotate(89.3301) scale(28.6399 32.6288)">
<stop offset="0.497573" stop-color="#815118" stop-opacity="0"/>
<stop offset="1" stop-color="#815118"/>
</radialGradient>
<radialGradient id="paint5_radial_316_12375" cx="0" cy="0" r="1" gradientUnits="userSpaceOnUse" gradientTransform="translate(137.348 25.4856) rotate(120.606) scale(9.20739 19.5873)">
<stop offset="0.587575" stop-color="#FFD0D0"/>
<stop offset="1" stop-color="#FFD0D0" stop-opacity="0"/>
</radialGradient>
<radialGradient id="paint6_radial_316_12375" cx="0" cy="0" r="1" gradientUnits="userSpaceOnUse" gradientTransform="translate(136.62 31.6799) rotate(119.97) scale(8.8257 25.1011)">
<stop stop-color="#694213"/>
<stop offset="1" stop-color="#694213" stop-opacity="0"/>
</radialGradient>
<radialGradient id="paint7_radial_316_12375" cx="0" cy="0" r="1" gradientUnits="userSpaceOnUse" gradientTransform="translate(170.946 24.1462) rotate(90.6699) scale(28.6399 32.6288)">
<stop offset="0.497573" stop-color="#815118" stop-opacity="0"/>
<stop offset="1" stop-color="#815118"/>
</radialGradient>
<radialGradient id="paint8_radial_316_12375" cx="0" cy="0" r="1" gradientUnits="userSpaceOnUse" gradientTransform="translate(169.83 25.4856) rotate(59.3936) scale(9.20739 19.5873)">
<stop offset="0.587575" stop-color="#FFD0D0"/>
<stop offset="1" stop-color="#FFD0D0" stop-opacity="0"/>
</radialGradient>
<radialGradient id="paint9_radial_316_12375" cx="0" cy="0" r="1" gradientUnits="userSpaceOnUse" gradientTransform="translate(170.558 31.6799) rotate(60.0304) scale(8.8257 25.1011)">
<stop stop-color="#694213"/>
<stop offset="1" stop-color="#694213" stop-opacity="0"/>
</radialGradient>
<radialGradient id="paint10_radial_316_12375" cx="0" cy="0" r="1" gradientUnits="userSpaceOnUse" gradientTransform="translate(152.971 33.8533) rotate(90) scale(10.6845 11.9588)">
<stop offset="0.511628" stop-color="#815118" stop-opacity="0"/>
<stop offset="1" stop-color="#815118"/>
</radialGradient>
<radialGradient id="paint11_radial_316_12375" cx="0" cy="0" r="1" gradientUnits="userSpaceOnUse" gradientTransform="translate(151.244 30.5049) rotate(90) scale(5.58075 8.06951)">
<stop stop-color="#FFD0D0"/>
<stop offset="1" stop-color="#FFD0D0" stop-opacity="0"/>
</radialGradient>
<linearGradient id="paint12_linear_316_12375" x1="135.675" y1="40.2178" x2="135.675" y2="45.6869" gradientUnits="userSpaceOnUse">
<stop stop-color="#FFD0D0"/>
<stop offset="1" stop-color="#FFD0D0" stop-opacity="0"/>
</linearGradient>
<linearGradient id="paint13_linear_316_12375" x1="136.453" y1="112.991" x2="175.186" y2="43.2289" gradientUnits="userSpaceOnUse">
<stop stop-color="#7D4F35"/>
<stop offset="1" stop-color="#7D4F35" stop-opacity="0"/>
</linearGradient>
<linearGradient id="paint14_linear_316_12375" x1="175.186" y1="37.4274" x2="175.186" y2="45.7985" gradientUnits="userSpaceOnUse">
<stop stop-color="#FFD0D0"/>
<stop offset="1" stop-color="#FFD0D0" stop-opacity="0"/>
</linearGradient>
<linearGradient id="paint15_linear_316_12375" x1="134.94" y1="51.9102" x2="134.94" y2="63.588" gradientUnits="userSpaceOnUse">
<stop stop-color="#7D4F35"/>
<stop offset="1" stop-color="#7D4F35" stop-opacity="0"/>
</linearGradient>
<linearGradient id="paint16_linear_316_12375" x1="132.457" y1="125.268" x2="144.955" y2="100.478" gradientUnits="userSpaceOnUse">
<stop stop-color="#7D4F35"/>
<stop offset="1" stop-color="#7D4F35" stop-opacity="0"/>
</linearGradient>
<linearGradient id="paint17_linear_316_12375" x1="177.646" y1="51.3332" x2="177.646" y2="62.9866" gradientUnits="userSpaceOnUse">
<stop stop-color="#7D4F35"/>
<stop offset="1" stop-color="#7D4F35" stop-opacity="0"/>
</linearGradient>
<linearGradient id="paint18_linear_316_12375" x1="188.752" y1="124.626" x2="175.183" y2="88.9922" gradientUnits="userSpaceOnUse">
<stop stop-color="#7D4F35"/>
<stop offset="1" stop-color="#7D4F35" stop-opacity="0"/>
</linearGradient>
<radialGradient id="paint19_radial_316_12375" cx="0" cy="0" r="1" gradientUnits="userSpaceOnUse" gradientTransform="translate(141.81 60.6423) rotate(88.0999) scale(23.5637 15.9192)">
<stop stop-color="#815118"/>
<stop offset="1" stop-color="#815118" stop-opacity="0"/>
</radialGradient>
<radialGradient id="paint20_radial_316_12375" cx="0" cy="0" r="1" gradientUnits="userSpaceOnUse" gradientTransform="translate(121.608 46.1324) rotate(110.841) scale(21.0195 12.2804)">
<stop stop-color="#FFD0D0"/>
<stop offset="1" stop-color="#FFD0D0" stop-opacity="0"/>
</radialGradient>
<radialGradient id="paint21_radial_316_12375" cx="0" cy="0" r="1" gradientUnits="userSpaceOnUse" gradientTransform="translate(137.234 35.6405) rotate(171.518) scale(12.8648 4.6878)">
<stop stop-color="#FFD0D0"/>
<stop offset="1" stop-color="#FFD0D0" stop-opacity="0"/>
</radialGradient>
<radialGradient id="paint22_radial_316_12375" cx="0" cy="0" r="1" gradientUnits="userSpaceOnUse" gradientTransform="translate(161.342 43.7889) rotate(-4.2105) scale(18.2425 5.41969)">
<stop stop-color="#815118"/>
<stop offset="1" stop-color="#815118" stop-opacity="0"/>
</radialGradient>
<radialGradient id="paint23_radial_316_12375" cx="0" cy="0" r="1" gradientUnits="userSpaceOnUse" gradientTransform="translate(175.518 57.7407) rotate(-81.3726) scale(16.3694 4.86321)">
<stop stop-color="#815118"/>
<stop offset="1" stop-color="#815118" stop-opacity="0"/>
</radialGradient>
<radialGradient id="paint24_radial_316_12375" cx="0" cy="0" r="1" gradientUnits="userSpaceOnUse" gradientTransform="translate(179.536 75.4875) rotate(-99.8458) scale(27.4146 8.14465)">
<stop stop-color="#815118"/>
<stop offset="1" stop-color="#815118" stop-opacity="0"/>
</radialGradient>
<radialGradient id="paint25_radial_316_12375" cx="0" cy="0" r="1" gradientUnits="userSpaceOnUse" gradientTransform="translate(192.148 42.6727) rotate(74.1733) scale(22.5544 14.9677)">
<stop stop-color="#FFD0D0"/>
<stop offset="0.850589" stop-color="#FFD0D0" stop-opacity="0"/>
</radialGradient>
<radialGradient id="paint26_radial_316_12375" cx="0" cy="0" r="1" gradientUnits="userSpaceOnUse" gradientTransform="translate(170.061 36.0017) rotate(6.5523) scale(15.654 3.90911)">
<stop stop-color="#FFD0D0"/>
<stop offset="1" stop-color="#FFD0D0" stop-opacity="0"/>
</radialGradient>
<radialGradient id="paint27_radial_316_12375" cx="0" cy="0" r="1" gradientUnits="userSpaceOnUse" gradientTransform="translate(90.2401 56.5015) rotate(-14.1958) scale(13.6739 29.0562)">
<stop offset="0.265625" stop-color="#74CE3C"/>
<stop offset="0.828125" stop-color="#0A6D0E"/>
</radialGradient>
<radialGradient id="paint28_radial_316_12375" cx="0" cy="0" r="1" gradientUnits="userSpaceOnUse" gradientTransform="translate(64.6075 87.102) rotate(-68.9353) scale(11.6924 38.4927)">
<stop offset="0.735243" stop-color="#0A6D0E"/>
<stop offset="1" stop-color="#74CE3C"/>
</radialGradient>
<radialGradient id="paint29_radial_316_12375" cx="0" cy="0" r="1" gradientUnits="userSpaceOnUse" gradientTransform="translate(93.8206 84.378) rotate(42.1292) scale(9.64773 7.93407)">
<stop offset="0.456979" stop-color="#F9E8BF"/>
<stop offset="1" stop-color="#9A803C"/>
</radialGradient>
<radialGradient id="paint30_radial_316_12375" cx="0" cy="0" r="1" gradientUnits="userSpaceOnUse" gradientTransform="translate(31.1791 84.8426) rotate(-107.364) scale(12.64 11.143)">
<stop offset="0.0364583" stop-color="#FF7E35"/>
<stop offset="1" stop-color="#BD2200"/>
</radialGradient>
<radialGradient id="paint31_radial_316_12375" cx="0" cy="0" r="1" gradientUnits="userSpaceOnUse" gradientTransform="translate(31.0114 75.0724) rotate(-98.7077) scale(12.8795 11.6154)">
<stop offset="0.0364583" stop-color="#FF7E35"/>
<stop offset="1" stop-color="#BD2200"/>
</radialGradient>
<radialGradient id="paint32_radial_316_12375" cx="0" cy="0" r="1" gradientUnits="userSpaceOnUse" gradientTransform="translate(32.8942 74.6636) rotate(167.831) scale(11.0151 35.0473)">
<stop offset="0.157154" stop-color="#74CE3C"/>
<stop offset="1" stop-color="#0A6D0E"/>
</radialGradient>
<radialGradient id="paint33_radial_316_12375" cx="0" cy="0" r="1" gradientUnits="userSpaceOnUse" gradientTransform="translate(104.243 74.7522) rotate(-50.4945) scale(10.8395 42.6598)">
<stop offset="0.427" stop-color="#74CE3C"/>
<stop offset="0.924242" stop-color="#0A6D0E"/>
</radialGradient>
<radialGradient id="paint34_radial_316_12375" cx="0" cy="0" r="1" gradientUnits="userSpaceOnUse" gradientTransform="translate(100.042 80.0317) rotate(-44.8449) scale(11.8472 54.6363)">
<stop offset="0.265625" stop-color="#74CE3C"/>
<stop offset="0.641658" stop-color="#0A6D0E"/>
</radialGradient>
<radialGradient id="paint35_radial_316_12375" cx="0" cy="0" r="1" gradientUnits="userSpaceOnUse" gradientTransform="translate(87.1303 96.3221) rotate(-53.0922) scale(17.4228 48.1206)">
<stop offset="0.561892" stop-color="#0A6D0E"/>
<stop offset="0.909898" stop-color="#74CE3C"/>
</radialGradient>
<radialGradient id="paint36_radial_316_12375" cx="0" cy="0" r="1" gradientUnits="userSpaceOnUse" gradientTransform="translate(84.3186 98.1385) rotate(-58.2818) scale(15.3149 45.6229)">
<stop offset="0.65644" stop-color="#0A6D0E"/>
<stop offset="1" stop-color="#74CE3C"/>
</radialGradient>
<radialGradient id="paint37_radial_316_12375" cx="0" cy="0" r="1" gradientUnits="userSpaceOnUse" gradientTransform="translate(80.916 99.3164) rotate(-64.597) scale(13.1748 45.8196)">
<stop offset="0.659049" stop-color="#0A6D0E"/>
<stop offset="1" stop-color="#74CE3C"/>
</radialGradient>
<radialGradient id="paint38_radial_316_12375" cx="0" cy="0" r="1" gradientUnits="userSpaceOnUse" gradientTransform="translate(74.5284 76.3716) rotate(-94.8017) scale(19.4274 10.3614)">
<stop offset="0.0364583" stop-color="#FF7E35"/>
<stop offset="1" stop-color="#BD2200"/>
</radialGradient>
<radialGradient id="paint39_radial_316_12375" cx="0" cy="0" r="1" gradientUnits="userSpaceOnUse" gradientTransform="translate(79.104 67.9645) rotate(-95.0734) scale(15.3698 9.36495)">
<stop offset="0.0364583" stop-color="#FF7E35"/>
<stop offset="1" stop-color="#BD2200"/>
</radialGradient>
<radialGradient id="paint40_radial_316_12375" cx="0" cy="0" r="1" gradientUnits="userSpaceOnUse" gradientTransform="translate(63.2713 43.0115) rotate(-94.8829) scale(22.98 12.7778)">
<stop offset="0.0364583" stop-color="#FF7E35"/>
<stop offset="1" stop-color="#BD2200"/>
</radialGradient>
<radialGradient id="paint41_radial_316_12375" cx="0" cy="0" r="1" gradientUnits="userSpaceOnUse" gradientTransform="translate(68.0222 63.0024) rotate(-94.6865) scale(19.3454 9.69422)">
<stop offset="0.0364583" stop-color="#FF7E35"/>
<stop offset="1" stop-color="#BD2200"/>
</radialGradient>
<radialGradient id="paint42_radial_316_12375" cx="0" cy="0" r="1" gradientUnits="userSpaceOnUse" gradientTransform="translate(73.3561 38.3095) rotate(-94.6575) scale(19.0598 9.39634)">
<stop offset="0.0364583" stop-color="#FF7E35"/>
<stop offset="1" stop-color="#BD2200"/>
</radialGradient>
<radialGradient id="paint43_radial_316_12375" cx="0" cy="0" r="1" gradientUnits="userSpaceOnUse" gradientTransform="translate(78.3232 54.5301) rotate(-94.4846) scale(18.0003 8.00303)">
<stop offset="0.0364583" stop-color="#FF7E35"/>
<stop offset="1" stop-color="#BD2200"/>
</radialGradient>
<radialGradient id="paint44_radial_316_12375" cx="0" cy="0" r="1" gradientUnits="userSpaceOnUse" gradientTransform="translate(89.0472 61.4406) rotate(-94.9034) scale(18.6977 10.5037)">
<stop offset="0.0364583" stop-color="#FF7E35"/>
<stop offset="1" stop-color="#BD2200"/>
</radialGradient>
<radialGradient id="paint45_radial_316_12375" cx="0" cy="0" r="1" gradientUnits="userSpaceOnUse" gradientTransform="translate(47.8729 41.7121) rotate(-95.1355) scale(12.8102 8.02755)">
<stop offset="0.0364583" stop-color="#FF7E35"/>
<stop offset="1" stop-color="#BD2200"/>
</radialGradient>
<radialGradient id="paint46_radial_316_12375" cx="0" cy="0" r="1" gradientUnits="userSpaceOnUse" gradientTransform="translate(43.0238 60.0307) rotate(-95.1001) scale(19.8825 12.2628)">
<stop offset="0.0364583" stop-color="#FF7E35"/>
<stop offset="1" stop-color="#BD2200"/>
</radialGradient>
<radialGradient id="paint47_radial_316_12375" cx="0" cy="0" r="1" gradientUnits="userSpaceOnUse" gradientTransform="translate(52.6004 75.9225) rotate(-96.2925) scale(17.695 16.7997)">
<stop offset="0.0364583" stop-color="#FF7E35"/>
<stop offset="1" stop-color="#BD2200"/>
</radialGradient>
<radialGradient id="paint48_radial_316_12375" cx="0" cy="0" r="1" gradientUnits="userSpaceOnUse" gradientTransform="translate(49.2314 82.0365) rotate(-82.628) scale(10.981 9.78993)">
<stop offset="0.0364583" stop-color="#FF7E35"/>
<stop offset="1" stop-color="#BD2200"/>
</radialGradient>
<radialGradient id="paint49_radial_316_12375" cx="0" cy="0" r="1" gradientUnits="userSpaceOnUse" gradientTransform="translate(38.0262 86.2275) rotate(-5.7401) scale(19.3483 9.77592)">
<stop offset="0.0364583" stop-color="#FF7E35"/>
<stop offset="1" stop-color="#BD2200"/>
</radialGradient>
<radialGradient id="paint50_radial_316_12375" cx="0" cy="0" r="1" gradientUnits="userSpaceOnUse" gradientTransform="translate(46.4256 34.2521) rotate(75.4175) scale(20.8294 15.7575)">
<stop offset="0.0364583" stop-color="#FF7E35"/>
<stop offset="1" stop-color="#BD2200"/>
</radialGradient>
<radialGradient id="paint51_radial_316_12375" cx="0" cy="0" r="1" gradientUnits="userSpaceOnUse" gradientTransform="translate(59.2636 62.4719) rotate(-94.8015) scale(20.3281 10.8404)">
<stop offset="0.0364583" stop-color="#FF7E35"/>
<stop offset="1" stop-color="#BD2200"/>
</radialGradient>
<radialGradient id="paint52_radial_316_12375" cx="0" cy="0" r="1" gradientUnits="userSpaceOnUse" gradientTransform="translate(93.4254 35.6605) rotate(-95.5759) scale(16.0654 12.0437)">
<stop offset="0.0364583" stop-color="#FF7E35"/>
<stop offset="1" stop-color="#BD2200"/>
</radialGradient>
<radialGradient id="paint53_radial_316_12375" cx="0" cy="0" r="1" gradientUnits="userSpaceOnUse" gradientTransform="translate(96.8514 37.921) rotate(-96.7069) scale(9.26087 9.8596)">
<stop offset="0.0364583" stop-color="#FF7E35"/>
<stop offset="1" stop-color="#BD2200"/>
</radialGradient>
<radialGradient id="paint54_radial_316_12375" cx="0" cy="0" r="1" gradientUnits="userSpaceOnUse" gradientTransform="translate(89.0859 35.0115) rotate(-65.9287) scale(9.54471 30.3689)">
<stop offset="0.157154" stop-color="#74CE3C"/>
<stop offset="1" stop-color="#0A6D0E"/>
</radialGradient>
<radialGradient id="paint55_radial_316_12375" cx="0" cy="0" r="1" gradientUnits="userSpaceOnUse" gradientTransform="translate(52.45 80.5824) rotate(-177.48) scale(10.0252 30.7345)">
<stop offset="0.157154" stop-color="#74CE3C"/>
<stop offset="1" stop-color="#0A6D0E"/>
</radialGradient>
<radialGradient id="paint56_radial_316_12375" cx="0" cy="0" r="1" gradientUnits="userSpaceOnUse" gradientTransform="translate(96.3761 86.4924) rotate(40.7543) scale(12.7936 10.5095)">
<stop offset="0.456979" stop-color="#F9E8BF"/>
<stop offset="1" stop-color="#CBB16E"/>
</radialGradient>
</defs>
</svg>
