<svg viewBox="0 0 240 120" fill="none" xmlns="http://www.w3.org/2000/svg">
<path d="M202.987 67.2267C202.973 73.7454 207.22 77.1774 212.202 80.3552L212.961 80.4547C216.681 77.928 223.849 71.2123 222.759 64.5627C221.395 56.2507 211.609 49.0771 211.07 45.7109L210.404 45.9741C210.552 48.5877 203.001 60.708 202.987 67.2267Z" fill="url(#paint0_radial_9848_1432)"/>
<path d="M202.987 67.2267C202.973 73.7454 207.22 77.1774 212.202 80.3552L212.961 80.4547C216.681 77.928 223.849 71.2123 222.759 64.5627C221.395 56.2507 211.609 49.0771 211.07 45.7109L210.404 45.9741C210.552 48.5877 203.001 60.708 202.987 67.2267Z" fill="url(#paint1_radial_9848_1432)"/>
<path d="M202.987 67.2267C202.973 73.7454 207.22 77.1774 212.202 80.3552L212.961 80.4547C216.681 77.928 223.849 71.2123 222.759 64.5627C221.395 56.2507 211.609 49.0771 211.07 45.7109L210.404 45.9741C210.552 48.5877 203.001 60.708 202.987 67.2267Z" fill="url(#paint2_radial_9848_1432)"/>
<path d="M202.987 67.2267C202.973 73.7454 207.22 77.1774 212.202 80.3552L212.961 80.4547C216.681 77.928 223.849 71.2123 222.759 64.5627C221.395 56.2507 211.609 49.0771 211.07 45.7109L210.404 45.9741C210.552 48.5877 203.001 60.708 202.987 67.2267Z" fill="url(#paint3_radial_9848_1432)"/>
<path d="M202.987 67.2267C202.973 73.7454 207.22 77.1774 212.202 80.3552L212.961 80.4547C216.681 77.928 223.849 71.2123 222.759 64.5627C221.395 56.2507 211.609 49.0771 211.07 45.7109L210.404 45.9741C210.552 48.5877 203.001 60.708 202.987 67.2267Z" fill="url(#paint4_radial_9848_1432)"/>
<path d="M167.975 96.0892C162.205 95.6958 156.004 99.3678 136.965 99.2366L149.369 90.8434C158.84 89.9254 178.561 88.037 181.677 87.8271C185.571 87.5648 192.205 84.1551 194.08 83.106C195.955 82.0568 199.417 83.4994 201.292 83.106C202.792 82.7912 211.629 80.0897 215.859 78.7782C217.446 78.6471 219.177 79.9585 219.177 81.27C212.83 86.5157 199.705 90.7123 195.234 90.8434C191.657 90.9483 180.282 93.816 175.619 96.0892C174.994 96.2203 172.59 96.4039 167.975 96.0892Z" fill="url(#paint5_linear_9848_1432)"/>
<path d="M167.975 96.0892C162.205 95.6958 156.004 99.3678 136.965 99.2366L149.369 90.8434C158.84 89.9254 178.561 88.037 181.677 87.8271C185.571 87.5648 192.205 84.1551 194.08 83.106C195.955 82.0568 199.417 83.4994 201.292 83.106C202.792 82.7912 211.629 80.0897 215.859 78.7782C217.446 78.6471 219.177 79.9585 219.177 81.27C212.83 86.5157 199.705 90.7123 195.234 90.8434C191.657 90.9483 180.282 93.816 175.619 96.0892C174.994 96.2203 172.59 96.4039 167.975 96.0892Z" fill="url(#paint6_radial_9848_1432)"/>
<path d="M167.975 96.0892C162.205 95.6958 156.004 99.3678 136.965 99.2366L149.369 90.8434C158.84 89.9254 178.561 88.037 181.677 87.8271C185.571 87.5648 192.205 84.1551 194.08 83.106C195.955 82.0568 199.417 83.4994 201.292 83.106C202.792 82.7912 211.629 80.0897 215.859 78.7782C217.446 78.6471 219.177 79.9585 219.177 81.27C212.83 86.5157 199.705 90.7123 195.234 90.8434C191.657 90.9483 180.282 93.816 175.619 96.0892C174.994 96.2203 172.59 96.4039 167.975 96.0892Z" fill="url(#paint7_radial_9848_1432)"/>
<path d="M167.975 96.0892C162.205 95.6958 156.004 99.3678 136.965 99.2366L149.369 90.8434C158.84 89.9254 178.561 88.037 181.677 87.8271C185.571 87.5648 192.205 84.1551 194.08 83.106C195.955 82.0568 199.417 83.4994 201.292 83.106C202.792 82.7912 211.629 80.0897 215.859 78.7782C217.446 78.6471 219.177 79.9585 219.177 81.27C212.83 86.5157 199.705 90.7123 195.234 90.8434C191.657 90.9483 180.282 93.816 175.619 96.0892C174.994 96.2203 172.59 96.4039 167.975 96.0892Z" fill="url(#paint8_radial_9848_1432)"/>
<path d="M32.8185 88.6268C38.2102 98.0247 47.1752 99.4402 56.9867 99.8799L58.1614 99.3935C61.4206 92.6666 66.1664 77.0455 59.0753 68.3762C50.2115 57.5395 30.1649 55.3349 26.5929 50.9362L25.8527 51.8679C28.2354 55.5085 27.4267 79.229 32.8185 88.6268Z" fill="url(#paint9_radial_9848_1432)"/>
<path d="M32.8185 88.6268C38.2102 98.0247 47.1752 99.4402 56.9867 99.8799L58.1614 99.3935C61.4206 92.6666 66.1664 77.0455 59.0753 68.3762C50.2115 57.5395 30.1649 55.3349 26.5929 50.9362L25.8527 51.8679C28.2354 55.5085 27.4267 79.229 32.8185 88.6268Z" fill="url(#paint10_radial_9848_1432)"/>
<path d="M32.8185 88.6268C38.2102 98.0247 47.1752 99.4402 56.9867 99.8799L58.1614 99.3935C61.4206 92.6666 66.1664 77.0455 59.0753 68.3762C50.2115 57.5395 30.1649 55.3349 26.5929 50.9362L25.8527 51.8679C28.2354 55.5085 27.4267 79.229 32.8185 88.6268Z" fill="url(#paint11_radial_9848_1432)"/>
<path d="M32.8185 88.6268C38.2102 98.0247 47.1752 99.4402 56.9867 99.8799L58.1614 99.3935C61.4206 92.6666 66.1664 77.0455 59.0753 68.3762C50.2115 57.5395 30.1649 55.3349 26.5929 50.9362L25.8527 51.8679C28.2354 55.5085 27.4267 79.229 32.8185 88.6268Z" fill="url(#paint12_radial_9848_1432)"/>
<path d="M32.8185 88.6268C38.2102 98.0247 47.1752 99.4402 56.9867 99.8799L58.1614 99.3935C61.4206 92.6666 66.1664 77.0455 59.0753 68.3762C50.2115 57.5395 30.1649 55.3349 26.5929 50.9362L25.8527 51.8679C28.2354 55.5085 27.4267 79.229 32.8185 88.6268Z" fill="url(#paint13_radial_9848_1432)"/>
<path d="M32.8185 88.6268C38.2102 98.0247 47.1752 99.4402 56.9867 99.8799L58.1614 99.3935C61.4206 92.6666 66.1664 77.0455 59.0753 68.3762C50.2115 57.5395 30.1649 55.3349 26.5929 50.9362L25.8527 51.8679C28.2354 55.5085 27.4267 79.229 32.8185 88.6268Z" fill="url(#paint14_radial_9848_1432)"/>
<path d="M49.9811 79.379C48.1512 87.9636 52.7935 93.6655 58.474 99.2367L59.4456 99.5785C65.0494 97.2834 76.3597 90.4271 76.7706 81.363C77.2842 70.0329 66.3842 57.8621 66.6083 53.2771L65.6579 53.4389C65.1265 56.9234 51.811 70.7944 49.9811 79.379Z" fill="url(#paint15_radial_9848_1432)"/>
<path d="M49.9811 79.379C48.1512 87.9636 52.7935 93.6655 58.474 99.2367L59.4456 99.5785C65.0494 97.2834 76.3597 90.4271 76.7706 81.363C77.2842 70.0329 66.3842 57.8621 66.6083 53.2771L65.6579 53.4389C65.1265 56.9234 51.811 70.7944 49.9811 79.379Z" fill="url(#paint16_radial_9848_1432)"/>
<path d="M49.9811 79.379C48.1512 87.9636 52.7935 93.6655 58.474 99.2367L59.4456 99.5785C65.0494 97.2834 76.3597 90.4271 76.7706 81.363C77.2842 70.0329 66.3842 57.8621 66.6083 53.2771L65.6579 53.4389C65.1265 56.9234 51.811 70.7944 49.9811 79.379Z" fill="url(#paint17_radial_9848_1432)"/>
<path d="M49.9811 79.379C48.1512 87.9636 52.7935 93.6655 58.474 99.2367L59.4456 99.5785C65.0494 97.2834 76.3597 90.4271 76.7706 81.363C77.2842 70.0329 66.3842 57.8621 66.6083 53.2771L65.6579 53.4389C65.1265 56.9234 51.811 70.7944 49.9811 79.379Z" fill="url(#paint18_radial_9848_1432)"/>
<path d="M49.9811 79.379C48.1512 87.9636 52.7935 93.6655 58.474 99.2367L59.4456 99.5785C65.0494 97.2834 76.3597 90.4271 76.7706 81.363C77.2842 70.0329 66.3842 57.8621 66.6083 53.2771L65.6579 53.4389C65.1265 56.9234 51.811 70.7944 49.9811 79.379Z" fill="url(#paint19_radial_9848_1432)"/>
<path d="M115.909 94.1217C106.246 100.154 69.6109 94.1217 58.0725 98.056C55.7402 98.8513 47.6326 108.744 36.1545 117.981H67.8664C69.4601 113.775 71.8415 109.594 74.5148 108.285C91.6782 112.875 111.005 105.662 115.909 104.351C120.813 103.039 130.909 100.679 134.803 100.679C138.697 100.679 167.399 89.2694 168.697 87.1712C169.225 86.318 174.271 83.639 179.226 80.155C184.021 76.7843 188.706 72.6141 190.621 71.3028C191.053 70.1225 190.765 69.2045 188.457 68.9423L182.76 72.9421L177.135 75.3683L166.246 81.2697C159.851 83.4991 139.649 91.1579 134.803 92.4169C128.746 93.9906 119.515 92.2857 115.909 94.1217Z" fill="url(#paint20_linear_9848_1432)"/>
<path d="M115.909 94.1217C106.246 100.154 69.6109 94.1217 58.0725 98.056C55.7402 98.8513 47.6326 108.744 36.1545 117.981H67.8664C69.4601 113.775 71.8415 109.594 74.5148 108.285C91.6782 112.875 111.005 105.662 115.909 104.351C120.813 103.039 130.909 100.679 134.803 100.679C138.697 100.679 167.399 89.2694 168.697 87.1712C169.225 86.318 174.271 83.639 179.226 80.155C184.021 76.7843 188.706 72.6141 190.621 71.3028C191.053 70.1225 190.765 69.2045 188.457 68.9423L182.76 72.9421L177.135 75.3683L166.246 81.2697C159.851 83.4991 139.649 91.1579 134.803 92.4169C128.746 93.9906 119.515 92.2857 115.909 94.1217Z" fill="url(#paint21_radial_9848_1432)"/>
<path d="M115.909 94.1217C106.246 100.154 69.6109 94.1217 58.0725 98.056C55.7402 98.8513 47.6326 108.744 36.1545 117.981H67.8664C69.4601 113.775 71.8415 109.594 74.5148 108.285C91.6782 112.875 111.005 105.662 115.909 104.351C120.813 103.039 130.909 100.679 134.803 100.679C138.697 100.679 167.399 89.2694 168.697 87.1712C169.225 86.318 174.271 83.639 179.226 80.155C184.021 76.7843 188.706 72.6141 190.621 71.3028C191.053 70.1225 190.765 69.2045 188.457 68.9423L182.76 72.9421L177.135 75.3683L166.246 81.2697C159.851 83.4991 139.649 91.1579 134.803 92.4169C128.746 93.9906 119.515 92.2857 115.909 94.1217Z" fill="url(#paint22_radial_9848_1432)"/>
<path d="M115.909 94.1217C106.246 100.154 69.6109 94.1217 58.0725 98.056C55.7402 98.8513 47.6326 108.744 36.1545 117.981H67.8664C69.4601 113.775 71.8415 109.594 74.5148 108.285C91.6782 112.875 111.005 105.662 115.909 104.351C120.813 103.039 130.909 100.679 134.803 100.679C138.697 100.679 167.399 89.2694 168.697 87.1712C169.225 86.318 174.271 83.639 179.226 80.155C184.021 76.7843 188.706 72.6141 190.621 71.3028C191.053 70.1225 190.765 69.2045 188.457 68.9423L182.76 72.9421L177.135 75.3683L166.246 81.2697C159.851 83.4991 139.649 91.1579 134.803 92.4169C128.746 93.9906 119.515 92.2857 115.909 94.1217Z" fill="url(#paint23_radial_9848_1432)"/>
<path d="M115.909 94.1217C106.246 100.154 69.6109 94.1217 58.0725 98.056C55.7402 98.8513 47.6326 108.744 36.1545 117.981H67.8664C69.4601 113.775 71.8415 109.594 74.5148 108.285C91.6782 112.875 111.005 105.662 115.909 104.351C120.813 103.039 130.909 100.679 134.803 100.679C138.697 100.679 167.399 89.2694 168.697 87.1712C169.225 86.318 174.271 83.639 179.226 80.155C184.021 76.7843 188.706 72.6141 190.621 71.3028C191.053 70.1225 190.765 69.2045 188.457 68.9423L182.76 72.9421L177.135 75.3683L166.246 81.2697C159.851 83.4991 139.649 91.1579 134.803 92.4169C128.746 93.9906 119.515 92.2857 115.909 94.1217Z" fill="url(#paint24_radial_9848_1432)"/>
<path d="M59.7296 111.434C59.7296 111.434 65.571 107.039 74.4772 108.252L74.4457 108.315C71.8051 109.658 69.4636 113.795 67.8832 117.956H45.9556L59.7296 111.434Z" fill="url(#paint25_radial_9848_1432)"/>
<path d="M104.478 99.3483C105.517 94.4974 110.902 92.0575 114.656 92.0575L116.822 93.1403C114.801 92.4184 109.1 96.2443 108.016 100.792C107.165 104.363 109.747 108.275 111.335 110.249L110.325 110.97C107.076 108.877 103.438 104.199 104.478 99.3483Z" fill="url(#paint26_linear_9848_1432)"/>
<path d="M104.478 99.3483C105.517 94.4974 110.902 92.0575 114.656 92.0575L116.822 93.1403C114.801 92.4184 109.1 96.2443 108.016 100.792C107.165 104.363 109.747 108.275 111.335 110.249L110.325 110.97C107.076 108.877 103.438 104.199 104.478 99.3483Z" fill="url(#paint27_radial_9848_1432)"/>
<path d="M107.439 97.768C108.478 93.5836 114.764 90.8654 117.617 91.479C120.469 92.0926 121.011 93.6446 121.011 93.6446C118.99 93.0219 112.061 95.0905 110.977 99.0134C110.126 102.093 112.708 105.468 114.296 107.17L113.286 107.793C110.037 105.987 106.399 101.952 107.439 97.768Z" fill="url(#paint28_linear_9848_1432)"/>
<path d="M107.439 97.768C108.478 93.5836 114.764 90.8654 117.617 91.479C120.469 92.0926 121.011 93.6446 121.011 93.6446C118.99 93.0219 112.061 95.0905 110.977 99.0134C110.126 102.093 112.708 105.468 114.296 107.17L113.286 107.793C110.037 105.987 106.399 101.952 107.439 97.768Z" fill="url(#paint29_radial_9848_1432)"/>
<path d="M117.162 99.9892C117.418 94.1704 123.176 90.294 127.521 89.5609L130.241 90.3912C127.76 89.9503 121.906 95.493 121.54 100.97C121.252 105.269 125.006 109.294 127.23 111.268L126.201 112.302C122.032 110.513 116.906 105.808 117.162 99.9892Z" fill="url(#paint30_linear_9848_1432)"/>
<path d="M117.162 99.9892C117.418 94.1704 123.176 90.294 127.521 89.5609L130.241 90.3912C127.76 89.9503 121.906 95.493 121.54 100.97C121.252 105.269 125.006 109.294 127.23 111.268L126.201 112.302C122.032 110.513 116.906 105.808 117.162 99.9892Z" fill="url(#paint31_radial_9848_1432)"/>
<path d="M120.284 97.5826C120.67 92.5355 127.703 88.4413 129.826 88.1845C131.948 87.9278 133.428 88.8201 133.428 88.8201C130.758 89.6676 125.112 93.5803 124.623 98.3333C124.239 102.065 127.888 105.468 130.059 107.128L129.011 108.046C124.898 106.59 119.898 102.63 120.284 97.5826Z" fill="url(#paint32_linear_9848_1432)"/>
<path d="M120.284 97.5826C120.67 92.5355 127.703 88.4413 129.826 88.1845C131.948 87.9278 133.428 88.8201 133.428 88.8201C130.758 89.6676 125.112 93.5803 124.623 98.3333C124.239 102.065 127.888 105.468 130.059 107.128L129.011 108.046C124.898 106.59 119.898 102.63 120.284 97.5826Z" fill="url(#paint33_radial_9848_1432)"/>
<path d="M78.1837 41.3591C75.2991 24.0515 80.7798 13.9554 93.4722 11.9361C105.884 9.96118 115.779 16.3322 119.131 26.0258C121.085 31.6754 125.861 37.6482 131.482 39.6823C135.699 41.2082 140.351 43.624 144.818 47.1282C154.175 54.4669 160.973 68.1859 164.434 76.8398C175.593 84.7524 188.312 98.2989 194.359 105.443C195.293 106.545 194.586 108.057 193.171 107.765C186.913 106.475 178.147 100.962 173.953 97.8976C168.184 99.2822 152.126 92.7053 144.818 89.2438L144.72 89.3135C139.829 92.7667 133.431 97.284 113.088 91.8399C92.6069 86.3592 81.0683 58.6668 78.1837 41.3591Z" fill="#DE8147"/>
<path d="M78.1837 41.3591C75.2991 24.0515 80.7798 13.9554 93.4722 11.9361C105.884 9.96118 115.779 16.3322 119.131 26.0258C121.085 31.6754 125.861 37.6482 131.482 39.6823C135.699 41.2082 140.351 43.624 144.818 47.1282C154.175 54.4669 160.973 68.1859 164.434 76.8398C175.593 84.7524 188.312 98.2989 194.359 105.443C195.293 106.545 194.586 108.057 193.171 107.765C186.913 106.475 178.147 100.962 173.953 97.8976C168.184 99.2822 152.126 92.7053 144.818 89.2438L144.72 89.3135C139.829 92.7667 133.431 97.284 113.088 91.8399C92.6069 86.3592 81.0683 58.6668 78.1837 41.3591Z" fill="url(#paint34_radial_9848_1432)"/>
<path d="M78.1837 41.3591C75.2991 24.0515 80.7798 13.9554 93.4722 11.9361C105.884 9.96118 115.779 16.3322 119.131 26.0258C121.085 31.6754 125.861 37.6482 131.482 39.6823C135.699 41.2082 140.351 43.624 144.818 47.1282C154.175 54.4669 160.973 68.1859 164.434 76.8398C175.593 84.7524 188.312 98.2989 194.359 105.443C195.293 106.545 194.586 108.057 193.171 107.765C186.913 106.475 178.147 100.962 173.953 97.8976C168.184 99.2822 152.126 92.7053 144.818 89.2438L144.72 89.3135C139.829 92.7667 133.431 97.284 113.088 91.8399C92.6069 86.3592 81.0683 58.6668 78.1837 41.3591Z" fill="url(#paint35_radial_9848_1432)"/>
<path d="M78.1837 41.3591C75.2991 24.0515 80.7798 13.9554 93.4722 11.9361C105.884 9.96118 115.779 16.3322 119.131 26.0258C121.085 31.6754 125.861 37.6482 131.482 39.6823C135.699 41.2082 140.351 43.624 144.818 47.1282C154.175 54.4669 160.973 68.1859 164.434 76.8398C175.593 84.7524 188.312 98.2989 194.359 105.443C195.293 106.545 194.586 108.057 193.171 107.765C186.913 106.475 178.147 100.962 173.953 97.8976C168.184 99.2822 152.126 92.7053 144.818 89.2438L144.72 89.3135C139.829 92.7667 133.431 97.284 113.088 91.8399C92.6069 86.3592 81.0683 58.6668 78.1837 41.3591Z" fill="url(#paint36_radial_9848_1432)"/>
<path d="M78.1837 41.3591C75.2991 24.0515 80.7798 13.9554 93.4722 11.9361C105.884 9.96118 115.779 16.3322 119.131 26.0258C121.085 31.6754 125.861 37.6482 131.482 39.6823C135.699 41.2082 140.351 43.624 144.818 47.1282C154.175 54.4669 160.973 68.1859 164.434 76.8398C175.593 84.7524 188.312 98.2989 194.359 105.443C195.293 106.545 194.586 108.057 193.171 107.765C186.913 106.475 178.147 100.962 173.953 97.8976C168.184 99.2822 152.126 92.7053 144.818 89.2438L144.72 89.3135C139.829 92.7667 133.431 97.284 113.088 91.8399C92.6069 86.3592 81.0683 58.6668 78.1837 41.3591Z" fill="url(#paint37_radial_9848_1432)"/>
<path d="M78.1837 41.3591C75.2991 24.0515 80.7798 13.9554 93.4722 11.9361C105.884 9.96118 115.779 16.3322 119.131 26.0258C121.085 31.6754 125.861 37.6482 131.482 39.6823C135.699 41.2082 140.351 43.624 144.818 47.1282C154.175 54.4669 160.973 68.1859 164.434 76.8398C175.593 84.7524 188.312 98.2989 194.359 105.443C195.293 106.545 194.586 108.057 193.171 107.765C186.913 106.475 178.147 100.962 173.953 97.8976C168.184 99.2822 152.126 92.7053 144.818 89.2438L144.72 89.3135C139.829 92.7667 133.431 97.284 113.088 91.8399C92.6069 86.3592 81.0683 58.6668 78.1837 41.3591Z" fill="url(#paint38_radial_9848_1432)"/>
<path d="M131.92 83.0712C121.256 77.944 124.459 63.8057 126.784 62.2688C132.934 58.2054 141.397 71.5328 151.66 78.9694C153.981 80.6512 158.838 85.1221 164.735 89.993C168.636 93.2156 180.287 99.4659 188.406 103.61C190.067 104.458 189.842 106.742 188.025 107.159C186.656 107.474 185.341 107.758 184.474 107.938C174.015 107.938 153.967 97.0002 145.251 91.5312C141.354 93.1719 134.74 86.5748 131.92 83.0712Z" fill="url(#paint39_linear_9848_1432)"/>
<path d="M131.92 83.0712C121.256 77.944 124.459 63.8057 126.784 62.2688C132.934 58.2054 141.397 71.5328 151.66 78.9694C153.981 80.6512 158.838 85.1221 164.735 89.993C168.636 93.2156 180.287 99.4659 188.406 103.61C190.067 104.458 189.842 106.742 188.025 107.159C186.656 107.474 185.341 107.758 184.474 107.938C174.015 107.938 153.967 97.0002 145.251 91.5312C141.354 93.1719 134.74 86.5748 131.92 83.0712Z" fill="url(#paint40_radial_9848_1432)"/>
<path d="M131.92 83.0712C121.256 77.944 124.459 63.8057 126.784 62.2688C132.934 58.2054 141.397 71.5328 151.66 78.9694C153.981 80.6512 158.838 85.1221 164.735 89.993C168.636 93.2156 180.287 99.4659 188.406 103.61C190.067 104.458 189.842 106.742 188.025 107.159C186.656 107.474 185.341 107.758 184.474 107.938C174.015 107.938 153.967 97.0002 145.251 91.5312C141.354 93.1719 134.74 86.5748 131.92 83.0712Z" fill="url(#paint41_radial_9848_1432)"/>
<path d="M108.615 26.6787C105.3 23.9857 101.956 28.2171 101.115 30.7172C102.269 31.5832 103.278 32.8808 105.225 32.8808C107.677 32.8808 111.93 29.372 108.615 26.6787Z" fill="url(#paint42_radial_9848_1432)"/>
<path d="M108.615 26.6787C105.3 23.9857 101.956 28.2171 101.115 30.7172C102.269 31.5832 103.278 32.8808 105.225 32.8808C107.677 32.8808 111.93 29.372 108.615 26.6787Z" fill="url(#paint43_radial_9848_1432)"/>
<path d="M106.113 25.1331C107.098 25.0622 108.1 25.3695 109.052 26.1427C110 26.9132 110.482 27.8111 110.521 28.7569C110.559 29.6796 110.171 30.5286 109.629 31.2178C109.084 31.9101 108.345 32.4897 107.583 32.899C106.826 33.3048 105.987 33.5751 105.225 33.5751C104.078 33.5751 103.206 33.1836 102.485 32.6962C102.132 32.4574 101.81 32.1933 101.52 31.948C101.223 31.6961 100.967 31.472 100.7 31.2719C100.462 31.0928 100.362 30.7794 100.457 30.4966C100.915 29.1362 102.036 27.331 103.517 26.2013C104.265 25.6308 105.146 25.2026 106.113 25.1331ZM106.212 26.5123C105.594 26.5568 104.963 26.8377 104.355 27.301C103.278 28.123 102.394 29.4212 101.935 30.4966C102.1 30.633 102.265 30.7643 102.417 30.8933C102.702 31.1346 102.974 31.3576 103.26 31.5513C103.819 31.929 104.426 32.1868 105.225 32.1868C105.689 32.1868 106.302 32.0182 106.929 31.682C107.549 31.3493 108.128 30.8827 108.538 30.3614C108.951 29.8374 109.158 29.3025 109.138 28.8109C109.118 28.342 108.886 27.7907 108.178 27.2154C107.472 26.6425 106.813 26.4691 106.212 26.5123Z" fill="url(#paint44_linear_9848_1432)"/>
<path d="M92.8951 75.1088C86.6643 71.1857 80.4912 53.979 81.0682 48.8588C82.7221 52.206 90.0105 56.3588 92.8951 62.9934C95.7797 69.628 100.684 80.0126 92.8951 75.1088Z" fill="url(#paint45_radial_9848_1432)"/>
<path d="M96.154 71.246C89.9232 67.323 84.1494 53.7145 82.8994 48.426C84.5533 51.7733 90.7025 51.9281 95.5917 59.5318C99.5045 65.617 103.942 76.1499 96.154 71.246Z" fill="url(#paint46_radial_9848_1432)"/>
<path d="M99.1615 67.3709C92.9307 63.4479 85.8475 49.7797 84.5975 44.4912C86.2514 47.8385 94.2501 49.7954 98.3716 55.7412C102.771 62.0874 106.95 72.2748 99.1615 67.3709Z" fill="url(#paint47_radial_9848_1432)"/>
<path d="M101.273 64.0741C94.8489 60.7763 90.3681 46.4534 89.0793 42.0078C90.7845 44.8216 98.2987 48.3125 101.273 53.8896C104.247 59.4668 109.302 68.1963 101.273 64.0741Z" fill="url(#paint48_radial_9848_1432)"/>
<path d="M103.692 60.1927C97.2682 56.8949 92.7874 42.572 91.4987 38.1265C93.2038 40.9402 100.718 44.4311 103.692 50.0083C106.666 55.5855 111.722 64.315 103.692 60.1927Z" fill="url(#paint49_radial_9848_1432)"/>
<path d="M122.082 71.4215C110.293 65.7537 113.833 50.1246 116.404 48.4256C123.203 43.9338 132.558 58.6665 143.903 66.8872C146.469 68.7464 151.838 73.6887 158.356 79.0732C162.669 82.6356 175.548 89.5449 184.524 94.1263C186.36 95.0633 186.111 97.5879 184.102 98.0493C182.589 98.397 181.135 98.7112 180.178 98.9107C168.615 98.9107 146.454 86.8193 136.818 80.7735C132.511 82.5872 125.199 75.2946 122.082 71.4215Z" fill="url(#paint50_linear_9848_1432)"/>
<path d="M122.082 71.4215C110.293 65.7537 113.833 50.1246 116.404 48.4256C123.203 43.9338 132.558 58.6665 143.903 66.8872C146.469 68.7464 151.838 73.6887 158.356 79.0732C162.669 82.6356 175.548 89.5449 184.524 94.1263C186.36 95.0633 186.111 97.5879 184.102 98.0493C182.589 98.397 181.135 98.7112 180.178 98.9107C168.615 98.9107 146.454 86.8193 136.818 80.7735C132.511 82.5872 125.199 75.2946 122.082 71.4215Z" fill="url(#paint51_radial_9848_1432)"/>
<path d="M122.082 71.4215C110.293 65.7537 113.833 50.1246 116.404 48.4256C123.203 43.9338 132.558 58.6665 143.903 66.8872C146.469 68.7464 151.838 73.6887 158.356 79.0732C162.669 82.6356 175.548 89.5449 184.524 94.1263C186.36 95.0633 186.111 97.5879 184.102 98.0493C182.589 98.397 181.135 98.7112 180.178 98.9107C168.615 98.9107 146.454 86.8193 136.818 80.7735C132.511 82.5872 125.199 75.2946 122.082 71.4215Z" fill="url(#paint52_radial_9848_1432)"/>
<path d="M126.416 36.6672C127.975 37.9822 129.686 39.0327 131.482 39.6826C135.699 41.2086 140.351 43.6244 144.819 47.1286C151.466 52.3423 156.813 60.7806 160.598 68.3307C156.791 70.1159 148.831 70.1987 144.832 67.3075C141.045 64.5691 137.011 61.6559 133.47 61.5338C129.59 61.401 128.121 64.2124 126.794 66.7532C125.419 69.3874 124.195 71.7323 120.588 70.2057C113.499 67.2052 110.026 51.328 118.857 45.3978C119.774 44.782 126.109 40.3111 126.416 36.6672Z" fill="url(#paint53_radial_9848_1432)"/>
<path d="M126.416 36.6672C127.975 37.9822 129.686 39.0327 131.482 39.6826C135.699 41.2086 140.351 43.6244 144.819 47.1286C151.466 52.3423 156.813 60.7806 160.598 68.3307C156.791 70.1159 148.831 70.1987 144.832 67.3075C141.045 64.5691 137.011 61.6559 133.47 61.5338C129.59 61.401 128.121 64.2124 126.794 66.7532C125.419 69.3874 124.195 71.7323 120.588 70.2057C113.499 67.2052 110.026 51.328 118.857 45.3978C119.774 44.782 126.109 40.3111 126.416 36.6672Z" fill="url(#paint54_radial_9848_1432)"/>
<path d="M132.478 79.9205C124.93 76.5247 116.366 65.8114 115.116 60.523C116.06 59.9377 124.666 60.6991 128.788 66.6449C133.187 72.991 140.872 83.6964 132.478 79.9205Z" fill="url(#paint55_radial_9848_1432)"/>
<path d="M135.429 77.7571C127.88 74.3612 119.317 63.648 118.067 58.3595C119.01 57.7743 127.617 58.5356 131.739 64.4814C136.138 70.8276 143.822 81.533 135.429 77.7571Z" fill="url(#paint56_radial_9848_1432)"/>
<path d="M138.386 74.4032C130.837 71.0073 122.274 60.2941 121.024 55.0056C121.967 54.4204 130.574 55.1818 134.695 61.1275C139.094 67.4737 146.779 78.1791 138.386 74.4032Z" fill="url(#paint57_radial_9848_1432)"/>
<path d="M84.819 58.0897C82.1853 57.6845 78.1839 49.2196 77.4627 33.0656C77.2144 27.505 84.418 30.8066 89.7716 30.4242C94.4607 30.0892 103.127 38.6691 109.653 41.5827C111.12 42.2377 113.277 43.5222 115.107 43.5222C122.03 43.5222 120.588 48.7146 116.838 48.7146C116.116 53.0415 115.108 53.0895 110.781 52.6087C110.088 56.9933 105.3 55.3971 102.992 54.051C103.915 59.1279 97.7998 58.0895 94.6267 56.9356C92.3188 59.4741 90.2037 57.9933 89.4346 56.9356C88.8576 57.801 87.819 58.5512 84.819 58.0897Z" fill="url(#paint58_radial_9848_1432)"/>
<path d="M84.819 58.0897C82.1853 57.6845 78.1839 49.2196 77.4627 33.0656C77.2144 27.505 84.418 30.8066 89.7716 30.4242C94.4607 30.0892 103.127 38.6691 109.653 41.5827C111.12 42.2377 113.277 43.5222 115.107 43.5222C122.03 43.5222 120.588 48.7146 116.838 48.7146C116.116 53.0415 115.108 53.0895 110.781 52.6087C110.088 56.9933 105.3 55.3971 102.992 54.051C103.915 59.1279 97.7998 58.0895 94.6267 56.9356C92.3188 59.4741 90.2037 57.9933 89.4346 56.9356C88.8576 57.801 87.819 58.5512 84.819 58.0897Z" fill="url(#paint59_radial_9848_1432)"/>
<path d="M107.081 49.0555C113.794 51.9629 113.312 45.1177 111.802 43.4661C108.815 40.8729 102.661 40.593 92.7864 43.6655C84.8866 46.1235 83.233 51.3015 83.3937 53.5832C84.1085 56.0664 85.7969 54.9548 86.5517 54.0887C88.0764 56.9271 90.2573 55.7628 91.1572 54.8258C93.2887 57.1973 95.3106 55.5846 96.0551 54.4817C98.4206 55.9883 100.318 53.5661 100.971 52.1666C105.03 54.621 106.736 51.1152 107.081 49.0555Z" fill="url(#paint60_radial_9848_1432)"/>
<path d="M100.752 44.5694C106.468 47.0452 106.058 41.2161 104.772 39.8097C102.228 37.6014 96.988 37.3631 88.5792 39.9795C81.8521 42.0727 80.444 46.482 80.5808 48.425C81.1895 50.5396 82.6272 49.593 83.27 48.8554C84.5684 51.2725 86.4256 50.281 87.1918 49.4831C89.007 51.5027 90.7287 50.1293 91.3627 49.1901C93.3771 50.4731 94.9931 48.4104 95.5493 47.2187C99.0054 49.3087 100.458 46.3233 100.752 44.5694Z" fill="url(#paint61_radial_9848_1432)"/>
<path d="M93.7616 40.3282C97.7551 42.0579 97.4684 37.9854 96.5703 37.0028C94.7928 35.46 91.1317 35.2935 85.2569 37.1215C80.557 38.5839 79.5732 41.6644 79.6688 43.0219C80.094 44.4993 81.0985 43.838 81.5476 43.3227C82.4547 45.0114 83.7522 44.3187 84.2876 43.7612C85.5557 45.1722 86.7587 44.2126 87.2016 43.5565C88.609 44.4529 89.738 43.0117 90.1266 42.1791C92.5412 43.6394 93.556 41.5536 93.7616 40.3282Z" fill="url(#paint62_radial_9848_1432)"/>
<path d="M93.4728 11.9352C103.229 10.3836 111.422 13.9964 116.113 20.3187C112.251 19.813 108.045 19.7582 103.569 20.3006C94.0511 21.4543 87.9927 29.2409 85.3959 29.5314C83.7097 29.7188 78.8457 29.6625 78.0852 26.3042C79.8343 18.1461 85.0743 13.2714 93.4728 11.9352Z" fill="url(#paint63_radial_9848_1432)"/>
<path d="M49.6959 33.6743C45.0446 34.3236 47.6041 32.7367 50.1647 31.7894C59.3631 29.197 68.6974 26.6218 78.0364 26.4415C78.9044 26.9348 80.1168 28.1771 80.958 28.6974C82.3568 29.5628 85.3227 29.2403 86.9092 28.6974C88.1784 28.2632 89.1494 29.4597 89.5775 30.3246C88.5922 31.5605 82.8872 32.0337 79.8614 31.9623C70.3198 31.5599 53.4208 33.1543 49.6959 33.6743Z" fill="url(#paint64_radial_9848_1432)"/>
<path d="M153.978 68.5155C151.014 69.6681 147.117 63.7814 145.539 60.6939C144.295 58.5123 149.656 57.6065 153.978 60.6939C158.301 63.7814 157.683 67.0746 153.978 68.5155Z" fill="url(#paint65_radial_9848_1432)"/>
<path d="M143.205 65.8466C140.241 66.9993 136.344 61.1125 134.766 58.0251C133.522 55.8435 138.882 54.9376 143.205 58.0251C147.527 61.1125 146.91 64.4058 143.205 65.8466Z" fill="url(#paint66_radial_9848_1432)"/>
<path d="M149.023 66.5672C146.059 67.7199 142.162 61.8331 140.584 58.7457C139.34 56.564 144.701 55.6582 149.023 58.7457C153.346 61.8331 152.728 65.1264 149.023 66.5672Z" fill="url(#paint67_radial_9848_1432)"/>
<path d="M150.226 62.1507C147.262 63.3034 143.365 57.4166 141.787 54.3292C140.543 52.1475 145.904 51.2417 150.226 54.3292C154.548 57.4166 153.931 60.7099 150.226 62.1507Z" fill="url(#paint68_radial_9848_1432)"/>
<path d="M138.589 61.2313C135.625 62.3839 131.728 56.4972 130.15 53.4097C128.906 51.2281 134.267 50.3223 138.589 53.4097C142.912 56.4972 142.294 59.7905 138.589 61.2313Z" fill="url(#paint69_radial_9848_1432)"/>
<path d="M144.408 61.9519C141.444 63.1045 137.547 57.2178 135.969 54.1303C134.725 51.9487 140.085 51.0429 144.408 54.1303C148.73 57.2178 148.113 60.511 144.408 61.9519Z" fill="url(#paint70_radial_9848_1432)"/>
<path d="M146.021 57.1713C143.057 58.324 139.16 52.4372 137.582 49.3498C136.338 47.1682 141.699 46.2623 146.021 49.3498C150.344 52.4372 149.726 55.7305 146.021 57.1713Z" fill="url(#paint71_radial_9848_1432)"/>
<path d="M132.771 57.1713C129.807 58.324 125.91 52.4372 124.332 49.3498C123.088 47.1682 128.448 46.2623 132.771 49.3498C137.093 52.4372 136.476 55.7305 132.771 57.1713Z" fill="url(#paint72_radial_9848_1432)"/>
<path d="M138.589 57.8919C135.625 59.0446 131.728 53.1578 130.15 50.0704C128.906 47.8887 134.266 46.9829 138.589 50.0704C142.911 53.1578 142.294 56.4511 138.589 57.8919Z" fill="url(#paint73_radial_9848_1432)"/>
<path d="M140.202 52.9594C137.238 54.1121 133.341 48.2253 131.763 45.1379C130.519 42.9563 135.88 42.0504 140.202 45.1379C144.524 48.2253 143.907 51.5186 140.202 52.9594Z" fill="url(#paint74_radial_9848_1432)"/>
<path d="M125.978 53.4355C123.014 54.5882 119.117 48.7014 117.539 45.614C116.295 43.4323 121.656 42.5265 125.978 45.614C130.301 48.7014 129.683 51.9947 125.978 53.4355Z" fill="url(#paint75_radial_9848_1432)"/>
<path d="M131.797 54.1561C128.833 55.3087 124.936 49.422 123.358 46.3345C122.113 44.1529 127.474 43.2471 131.797 46.3345C136.119 49.422 135.502 52.7153 131.797 54.1561Z" fill="url(#paint76_radial_9848_1432)"/>
<path d="M133.696 49.9722C130.732 51.1249 126.835 45.2381 125.257 42.1507C124.013 39.9691 129.373 39.0632 133.696 42.1507C138.018 45.2381 137.401 48.5314 133.696 49.9722Z" fill="url(#paint77_radial_9848_1432)"/>
<path d="M127.878 48.6261C124.914 49.7788 122.743 45.3854 121.165 42.2979C119.921 40.1163 123.555 37.7171 127.878 40.8046C132.2 43.892 131.583 47.1853 127.878 48.6261Z" fill="url(#paint78_radial_9848_1432)"/>
<defs>
<radialGradient id="paint0_radial_9848_1432" cx="0" cy="0" r="1" gradientUnits="userSpaceOnUse" gradientTransform="translate(207.678 58.7276) rotate(67.4577) scale(21.6773 21.6773)">
<stop stop-color="#4DD7BB"/>
<stop offset="1" stop-color="#2B5F3B"/>
</radialGradient>
<radialGradient id="paint1_radial_9848_1432" cx="0" cy="0" r="1" gradientUnits="userSpaceOnUse" gradientTransform="translate(200.817 63.9971) rotate(-77.5847) scale(22.6075 22.6075)">
<stop stop-color="#74AC5D"/>
<stop offset="1" stop-color="#74AD5E" stop-opacity="0"/>
</radialGradient>
<radialGradient id="paint2_radial_9848_1432" cx="0" cy="0" r="1" gradientUnits="userSpaceOnUse" gradientTransform="translate(204.857 59.0588) rotate(-71.7091) scale(17.8709 9.66659)">
<stop stop-color="#9FDC7F"/>
<stop offset="1" stop-color="#8BC16F" stop-opacity="0"/>
</radialGradient>
<radialGradient id="paint3_radial_9848_1432" cx="0" cy="0" r="1" gradientUnits="userSpaceOnUse" gradientTransform="translate(213.728 67.0998) rotate(-92.0596) scale(11.3134 6.67738)">
<stop stop-color="#93D885" stop-opacity="0.8"/>
<stop offset="1" stop-color="#8BC16F" stop-opacity="0"/>
</radialGradient>
<radialGradient id="paint4_radial_9848_1432" cx="0" cy="0" r="1" gradientUnits="userSpaceOnUse" gradientTransform="translate(212.723 80.7387) rotate(-92.4914) scale(25.8978 2.07373)">
<stop offset="0.226855" stop-color="#345745"/>
<stop offset="1" stop-color="#377B57" stop-opacity="0"/>
</radialGradient>
<linearGradient id="paint5_linear_9848_1432" x1="175.907" y1="81.9257" x2="177.7" y2="99.2784" gradientUnits="userSpaceOnUse">
<stop stop-color="#C6B8A1"/>
<stop offset="1" stop-color="#8B694B"/>
</linearGradient>
<radialGradient id="paint6_radial_9848_1432" cx="0" cy="0" r="1" gradientUnits="userSpaceOnUse" gradientTransform="translate(150.955 93.7286) rotate(-22.3409) scale(27.6006 7.06135)">
<stop stop-color="#462E1A"/>
<stop offset="1" stop-color="#462E1A" stop-opacity="0"/>
</radialGradient>
<radialGradient id="paint7_radial_9848_1432" cx="0" cy="0" r="1" gradientUnits="userSpaceOnUse" gradientTransform="translate(192.782 90.8434) rotate(168.762) scale(39.7035 5.83562)">
<stop stop-color="#886C51"/>
<stop offset="1" stop-color="#886C51" stop-opacity="0"/>
</radialGradient>
<radialGradient id="paint8_radial_9848_1432" cx="0" cy="0" r="1" gradientUnits="userSpaceOnUse" gradientTransform="translate(193.359 83.8928) rotate(164.623) scale(24.2329 5.24592)">
<stop stop-color="#FFEDD9"/>
<stop offset="1" stop-color="#EBC79D" stop-opacity="0"/>
</radialGradient>
<radialGradient id="paint9_radial_9848_1432" cx="0" cy="0" r="1" gradientUnits="userSpaceOnUse" gradientTransform="translate(32.517 72.4943) rotate(37.4901) scale(36.0299 36.0299)">
<stop stop-color="#4DD7BB"/>
<stop offset="1" stop-color="#2B5F3B"/>
</radialGradient>
<radialGradient id="paint10_radial_9848_1432" cx="0" cy="0" r="1" gradientUnits="userSpaceOnUse" gradientTransform="translate(27.0122 85.7785) rotate(-107.552) scale(37.576 37.576)">
<stop stop-color="#74AC5D"/>
<stop offset="1" stop-color="#74AD5E" stop-opacity="0"/>
</radialGradient>
<radialGradient id="paint11_radial_9848_1432" cx="0" cy="0" r="1" gradientUnits="userSpaceOnUse" gradientTransform="translate(28.7288 75.3139) rotate(-101.677) scale(29.7033 16.0669)">
<stop stop-color="#9FDC7F"/>
<stop offset="1" stop-color="#8BC16F" stop-opacity="0"/>
</radialGradient>
<radialGradient id="paint12_radial_9848_1432" cx="0" cy="0" r="1" gradientUnits="userSpaceOnUse" gradientTransform="translate(48.1781 79.5271) rotate(-122.027) scale(18.804 11.0985)">
<stop stop-color="#93D885" stop-opacity="0.8"/>
<stop offset="1" stop-color="#8BC16F" stop-opacity="0"/>
</radialGradient>
<radialGradient id="paint13_radial_9848_1432" cx="0" cy="0" r="1" gradientUnits="userSpaceOnUse" gradientTransform="translate(58.0556 99.9994) rotate(-122.459) scale(43.0448 3.44675)">
<stop offset="0.226855" stop-color="#345745"/>
<stop offset="1" stop-color="#377B57" stop-opacity="0"/>
</radialGradient>
<radialGradient id="paint14_radial_9848_1432" cx="0" cy="0" r="1" gradientUnits="userSpaceOnUse" gradientTransform="translate(61.6798 85.8337) rotate(-95.9197) scale(24.8416 19.9501)">
<stop offset="0.494084" stop-color="#2A352F"/>
<stop offset="1" stop-color="#377B57" stop-opacity="0"/>
</radialGradient>
<radialGradient id="paint15_radial_9848_1432" cx="0" cy="0" r="1" gradientUnits="userSpaceOnUse" gradientTransform="translate(58.5235 69.4847) rotate(79.3669) scale(29.1887 29.1887)">
<stop stop-color="#4DD7BB"/>
<stop offset="1" stop-color="#2B5F3B"/>
</radialGradient>
<radialGradient id="paint16_radial_9848_1432" cx="0" cy="0" r="1" gradientUnits="userSpaceOnUse" gradientTransform="translate(48.0191 74.5209) rotate(-65.6755) scale(30.4412 30.4412)">
<stop stop-color="#74AC5D"/>
<stop offset="1" stop-color="#74AD5E" stop-opacity="0"/>
</radialGradient>
<radialGradient id="paint17_radial_9848_1432" cx="0" cy="0" r="1" gradientUnits="userSpaceOnUse" gradientTransform="translate(54.7137 69.137) rotate(-59.7998) scale(24.0634 13.0162)">
<stop stop-color="#9FDC7F"/>
<stop offset="1" stop-color="#8BC16F" stop-opacity="0"/>
</radialGradient>
<radialGradient id="paint18_radial_9848_1432" cx="0" cy="0" r="1" gradientUnits="userSpaceOnUse" gradientTransform="translate(64.1671 82.1963) rotate(-80.1503) scale(15.2336 8.99116)">
<stop stop-color="#93D885" stop-opacity="0.8"/>
<stop offset="1" stop-color="#8BC16F" stop-opacity="0"/>
</radialGradient>
<radialGradient id="paint19_radial_9848_1432" cx="0" cy="0" r="1" gradientUnits="userSpaceOnUse" gradientTransform="translate(59.0541 99.8868) rotate(-80.5822) scale(34.8717 2.7923)">
<stop offset="0.226855" stop-color="#345745"/>
<stop offset="1" stop-color="#377B57" stop-opacity="0"/>
</radialGradient>
<linearGradient id="paint20_linear_9848_1432" x1="101.263" y1="75.7617" x2="101.263" y2="125.727" gradientUnits="userSpaceOnUse">
<stop stop-color="#C6B8A1"/>
<stop offset="1" stop-color="#8B694B"/>
</linearGradient>
<radialGradient id="paint21_radial_9848_1432" cx="0" cy="0" r="1" gradientUnits="userSpaceOnUse" gradientTransform="translate(120.235 104.482) rotate(172.795) scale(54.3717 8.97243)">
<stop stop-color="#886C51"/>
<stop offset="1" stop-color="#886C51" stop-opacity="0"/>
</radialGradient>
<radialGradient id="paint22_radial_9848_1432" cx="0" cy="0" r="1" gradientUnits="userSpaceOnUse" gradientTransform="translate(51.7258 98.3183) rotate(139.611) scale(38.2515 17.9688)">
<stop stop-color="#EBC79D"/>
<stop offset="1" stop-color="#EBC79D" stop-opacity="0"/>
</radialGradient>
<radialGradient id="paint23_radial_9848_1432" cx="0" cy="0" r="1" gradientUnits="userSpaceOnUse" gradientTransform="translate(154.562 82.45) rotate(159.441) scale(36.9701 10.0109)">
<stop stop-color="#FFEDD9"/>
<stop offset="1" stop-color="#EBC79D" stop-opacity="0"/>
</radialGradient>
<radialGradient id="paint24_radial_9848_1432" cx="0" cy="0" r="1" gradientUnits="userSpaceOnUse" gradientTransform="translate(173.961 84.6794) rotate(151.575) scale(45.1828 6.15668)">
<stop offset="0.184674" stop-color="#8D6B4E"/>
<stop offset="1" stop-color="#8D6B4E" stop-opacity="0"/>
</radialGradient>
<radialGradient id="paint25_radial_9848_1432" cx="0" cy="0" r="1" gradientUnits="userSpaceOnUse" gradientTransform="translate(74.4772 108.705) rotate(131.55) scale(13.1073 6.79816)">
<stop stop-color="#462E1A"/>
<stop offset="1" stop-color="#462E1A" stop-opacity="0"/>
</radialGradient>
<linearGradient id="paint26_linear_9848_1432" x1="110.56" y1="92.0575" x2="107.727" y2="108.949" gradientUnits="userSpaceOnUse">
<stop stop-color="#B2AAC2"/>
<stop offset="1" stop-color="#6D6062"/>
</linearGradient>
<radialGradient id="paint27_radial_9848_1432" cx="0" cy="0" r="1" gradientUnits="userSpaceOnUse" gradientTransform="translate(113.601 101.514) rotate(117.841) scale(12.1067 10.8196)">
<stop offset="0.709079" stop-color="#CCC4D3" stop-opacity="0"/>
<stop offset="1" stop-color="#F4EEF9"/>
</radialGradient>
<linearGradient id="paint28_linear_9848_1432" x1="113.521" y1="91.4791" x2="111.398" y2="106.153" gradientUnits="userSpaceOnUse">
<stop stop-color="#B2AAC2"/>
<stop offset="1" stop-color="#6D6062"/>
</linearGradient>
<radialGradient id="paint29_radial_9848_1432" cx="0" cy="0" r="1" gradientUnits="userSpaceOnUse" gradientTransform="translate(117.474 99.5929) rotate(123.772) scale(11.1677 11.1677)">
<stop offset="0.709079" stop-color="#CCC4D3" stop-opacity="0"/>
<stop offset="1" stop-color="#F4EEF9"/>
</radialGradient>
<linearGradient id="paint30_linear_9848_1432" x1="122.779" y1="90.361" x2="122.799" y2="110.469" gradientUnits="userSpaceOnUse">
<stop stop-color="#B2AAC2"/>
<stop offset="1" stop-color="#6D6062"/>
</linearGradient>
<radialGradient id="paint31_radial_9848_1432" cx="0" cy="0" r="1" gradientUnits="userSpaceOnUse" gradientTransform="translate(128.147 100.714) rotate(108.264) scale(14.2135 12.7024)">
<stop offset="0.709079" stop-color="#CCC4D3" stop-opacity="0"/>
<stop offset="1" stop-color="#F4EEF9"/>
</radialGradient>
<linearGradient id="paint32_linear_9848_1432" x1="126.097" y1="89.1142" x2="126.506" y2="106.516" gradientUnits="userSpaceOnUse">
<stop stop-color="#B2AAC2"/>
<stop offset="1" stop-color="#6D6062"/>
</linearGradient>
<radialGradient id="paint33_radial_9848_1432" cx="0" cy="0" r="1" gradientUnits="userSpaceOnUse" gradientTransform="translate(131.131 97.8252) rotate(111.379) scale(12.8392 12.2565)">
<stop offset="0.709079" stop-color="#CCC4D3" stop-opacity="0"/>
<stop offset="1" stop-color="#F4EEF9"/>
</radialGradient>
<radialGradient id="paint34_radial_9848_1432" cx="0" cy="0" r="1" gradientUnits="userSpaceOnUse" gradientTransform="translate(98.6651 83.1857) rotate(-51.4347) scale(54.6008 141.94)">
<stop offset="0.0648655" stop-color="#743D18"/>
<stop offset="0.287178" stop-color="#AF5F28"/>
<stop offset="1" stop-color="#DE8147" stop-opacity="0"/>
</radialGradient>
<radialGradient id="paint35_radial_9848_1432" cx="0" cy="0" r="1" gradientUnits="userSpaceOnUse" gradientTransform="translate(178.28 102.801) rotate(-64.179) scale(9.93414 69.2039)">
<stop offset="0.145024" stop-color="#554413"/>
<stop offset="1" stop-color="#DE8147" stop-opacity="0"/>
</radialGradient>
<radialGradient id="paint36_radial_9848_1432" cx="0" cy="0" r="1" gradientUnits="userSpaceOnUse" gradientTransform="translate(106.742 26.0703) rotate(78.6901) scale(11.767 31.7956)">
<stop stop-color="#FFE6A6"/>
<stop offset="1" stop-color="#FDCC50" stop-opacity="0"/>
</radialGradient>
<radialGradient id="paint37_radial_9848_1432" cx="0" cy="0" r="1" gradientUnits="userSpaceOnUse" gradientTransform="translate(186.357 92.0575) rotate(129.174) scale(10.0466 34.7034)">
<stop offset="0.234719" stop-color="#FFE6A6"/>
<stop offset="1" stop-color="#FDCC50" stop-opacity="0"/>
</radialGradient>
<radialGradient id="paint38_radial_9848_1432" cx="0" cy="0" r="1" gradientUnits="userSpaceOnUse" gradientTransform="translate(119.146 62.0576) rotate(130.515) scale(20.8692 27.8787)">
<stop offset="0.141383" stop-color="#FFE6A6" stop-opacity="0.55"/>
<stop offset="0.777035" stop-color="#FDCC50" stop-opacity="0"/>
</radialGradient>
<linearGradient id="paint39_linear_9848_1432" x1="147.791" y1="63.4435" x2="156.924" y2="107.939" gradientUnits="userSpaceOnUse">
<stop offset="0.0714713" stop-color="#3694C4" stop-opacity="0.44"/>
<stop offset="0.811098" stop-color="#563528"/>
</linearGradient>
<radialGradient id="paint40_radial_9848_1432" cx="0" cy="0" r="1" gradientUnits="userSpaceOnUse" gradientTransform="translate(181.714 63.7044) rotate(122.042) scale(42.7904 85.7858)">
<stop offset="0.873602" stop-color="#B26A43"/>
<stop offset="1" stop-color="#40261B"/>
</radialGradient>
<radialGradient id="paint41_radial_9848_1432" cx="0" cy="0" r="1" gradientUnits="userSpaceOnUse" gradientTransform="translate(181.714 63.7044) rotate(122.042) scale(42.7904 85.7858)">
<stop offset="0.753803" stop-color="#BA7752"/>
<stop offset="0.831933" stop-color="#40261B"/>
<stop offset="0.92048" stop-color="#40261B" stop-opacity="0"/>
</radialGradient>
<radialGradient id="paint42_radial_9848_1432" cx="0" cy="0" r="1" gradientUnits="userSpaceOnUse" gradientTransform="translate(105.473 25.814) rotate(90.0006) scale(7.06688 8.71568)">
<stop stop-color="#9FA8E2"/>
<stop offset="1" stop-color="#2F3454"/>
</radialGradient>
<radialGradient id="paint43_radial_9848_1432" cx="0" cy="0" r="1" gradientUnits="userSpaceOnUse" gradientTransform="translate(106.814 28.0174) rotate(84.8056) scale(3.18616 3.47344)">
<stop stop-color="#CCF1FF"/>
<stop offset="1" stop-color="#CCF1FF" stop-opacity="0"/>
</radialGradient>
<linearGradient id="paint44_linear_9848_1432" x1="105.473" y1="25.8136" x2="105.473" y2="32.8805" gradientUnits="userSpaceOnUse">
<stop stop-color="#4D536D"/>
<stop offset="1" stop-color="#4D536D" stop-opacity="0"/>
</linearGradient>
<radialGradient id="paint45_radial_9848_1432" cx="0" cy="0" r="1" gradientUnits="userSpaceOnUse" gradientTransform="translate(92.4436 62.2212) rotate(155.898) scale(7.13561 24.9908)">
<stop stop-color="white"/>
<stop offset="1" stop-color="#9291CD"/>
</radialGradient>
<radialGradient id="paint46_radial_9848_1432" cx="0" cy="0" r="1" gradientUnits="userSpaceOnUse" gradientTransform="translate(95.7023 58.3585) rotate(155.898) scale(7.13561 24.9908)">
<stop stop-color="white"/>
<stop offset="1" stop-color="#9291CD"/>
</radialGradient>
<radialGradient id="paint47_radial_9848_1432" cx="0" cy="0" r="1" gradientUnits="userSpaceOnUse" gradientTransform="translate(98.7097 54.4834) rotate(155.898) scale(7.13561 24.9908)">
<stop stop-color="white"/>
<stop offset="1" stop-color="#B2B1F5"/>
</radialGradient>
<radialGradient id="paint48_radial_9848_1432" cx="0" cy="0" r="1" gradientUnits="userSpaceOnUse" gradientTransform="translate(100.807 53.2405) rotate(159.96) scale(7.1481 21.6207)">
<stop stop-color="white"/>
<stop offset="1" stop-color="#D3D2FF"/>
</radialGradient>
<radialGradient id="paint49_radial_9848_1432" cx="0" cy="0" r="1" gradientUnits="userSpaceOnUse" gradientTransform="translate(103.226 49.3592) rotate(159.96) scale(7.1481 21.6207)">
<stop stop-color="white"/>
<stop offset="1" stop-color="#D3D2FF"/>
</radialGradient>
<linearGradient id="paint50_linear_9848_1432" x1="139.626" y1="49.7241" x2="149.722" y2="98.9112" gradientUnits="userSpaceOnUse">
<stop offset="0.0714713" stop-color="#9BCB95" stop-opacity="0.44"/>
<stop offset="0.811098" stop-color="#7D6282"/>
</linearGradient>
<radialGradient id="paint51_radial_9848_1432" cx="0" cy="0" r="1" gradientUnits="userSpaceOnUse" gradientTransform="translate(177.126 50.0126) rotate(122.042) scale(47.3024 94.8314)">
<stop offset="0.873602" stop-color="#BC9BC0"/>
<stop offset="1" stop-color="#6C5071"/>
</radialGradient>
<radialGradient id="paint52_radial_9848_1432" cx="0" cy="0" r="1" gradientUnits="userSpaceOnUse" gradientTransform="translate(177.126 50.0126) rotate(122.042) scale(47.3024 94.8314)">
<stop offset="0.753803" stop-color="#C4ABC7"/>
<stop offset="0.831933" stop-color="#6C5071"/>
<stop offset="0.92048" stop-color="#6C5071" stop-opacity="0"/>
</radialGradient>
<radialGradient id="paint53_radial_9848_1432" cx="0" cy="0" r="1" gradientUnits="userSpaceOnUse" gradientTransform="translate(136.652 40.4742) rotate(124.909) scale(30.3902 190.311)">
<stop offset="0.05477" stop-color="#585674"/>
<stop offset="0.346743" stop-color="#648BA6"/>
<stop offset="0.658152" stop-color="#9BCB95"/>
<stop offset="1" stop-color="#9BCB95" stop-opacity="0.55"/>
</radialGradient>
<radialGradient id="paint54_radial_9848_1432" cx="0" cy="0" r="1" gradientUnits="userSpaceOnUse" gradientTransform="translate(163.206 47.1201) rotate(163.503) scale(24.6164 96.7445)">
<stop stop-color="#FFE6A6"/>
<stop offset="1" stop-color="#FDCC50" stop-opacity="0"/>
</radialGradient>
<radialGradient id="paint55_radial_9848_1432" cx="0" cy="0" r="1" gradientUnits="userSpaceOnUse" gradientTransform="translate(125.674 65.1303) rotate(129.804) scale(7.03331 106.606)">
<stop offset="0.479739" stop-color="#D3A6D5" stop-opacity="0"/>
<stop offset="0.98911" stop-color="#5A4050"/>
</radialGradient>
<radialGradient id="paint56_radial_9848_1432" cx="0" cy="0" r="1" gradientUnits="userSpaceOnUse" gradientTransform="translate(128.625 62.9669) rotate(129.804) scale(7.03331 106.606)">
<stop offset="0.479739" stop-color="#D3A6D5" stop-opacity="0"/>
<stop offset="0.98911" stop-color="#5A4050"/>
</radialGradient>
<radialGradient id="paint57_radial_9848_1432" cx="0" cy="0" r="1" gradientUnits="userSpaceOnUse" gradientTransform="translate(131.582 59.613) rotate(129.804) scale(7.03331 106.606)">
<stop offset="0.479739" stop-color="#D3A6D5" stop-opacity="0"/>
<stop offset="0.98911" stop-color="#5A4050"/>
</radialGradient>
<radialGradient id="paint58_radial_9848_1432" cx="0" cy="0" r="1" gradientUnits="userSpaceOnUse" gradientTransform="translate(73.8569 42.5126) rotate(19.2386) scale(45.523 67.8712)">
<stop stop-color="#A86C18"/>
<stop offset="0.439161" stop-color="#B96E44"/>
<stop offset="0.726493" stop-color="#A94C2E"/>
</radialGradient>
<radialGradient id="paint59_radial_9848_1432" cx="0" cy="0" r="1" gradientUnits="userSpaceOnUse" gradientTransform="translate(78.328 33.1376) rotate(55.4516) scale(21.3637 27.8141)">
<stop offset="0.39134" stop-color="#3D241A" stop-opacity="0.5"/>
<stop offset="0.836372" stop-color="#3D241A" stop-opacity="0"/>
</radialGradient>
<radialGradient id="paint60_radial_9848_1432" cx="0" cy="0" r="1" gradientUnits="userSpaceOnUse" gradientTransform="translate(94.6174 43.1128) rotate(83.6028) scale(11.7324 26.6199)">
<stop offset="0.617128" stop-color="#EA4731" stop-opacity="0"/>
<stop offset="1" stop-color="#C12222" stop-opacity="0.55"/>
</radialGradient>
<radialGradient id="paint61_radial_9848_1432" cx="0" cy="0" r="1" gradientUnits="userSpaceOnUse" gradientTransform="translate(90.1385 39.5088) rotate(83.6028) scale(9.99084 22.6684)">
<stop offset="0.617128" stop-color="#EA4731" stop-opacity="0"/>
<stop offset="1" stop-color="#C12222" stop-opacity="0.55"/>
</radialGradient>
<radialGradient id="paint62_radial_9848_1432" cx="0" cy="0" r="1" gradientUnits="userSpaceOnUse" gradientTransform="translate(86.3463 36.7926) rotate(83.6028) scale(6.98014 15.8374)">
<stop offset="0.617128" stop-color="#EA4731" stop-opacity="0"/>
<stop offset="1" stop-color="#C12222" stop-opacity="0.55"/>
</radialGradient>
<radialGradient id="paint63_radial_9848_1432" cx="0" cy="0" r="1" gradientUnits="userSpaceOnUse" gradientTransform="translate(101.257 22.6109) rotate(-100.369) scale(11.2149 21.4064)">
<stop stop-color="#94C5B4"/>
<stop offset="1" stop-color="#98879B"/>
</radialGradient>
<radialGradient id="paint64_radial_9848_1432" cx="0" cy="0" r="1" gradientUnits="userSpaceOnUse" gradientTransform="translate(69.1688 31.551) rotate(-94.5874) scale(5.35369 71.69)">
<stop offset="0.160626" stop-color="#706B9D"/>
<stop offset="1" stop-color="#F9F8FD"/>
</radialGradient>
<radialGradient id="paint65_radial_9848_1432" cx="0" cy="0" r="1" gradientUnits="userSpaceOnUse" gradientTransform="translate(146.362 59.2532) rotate(48.5323) scale(11.8115 6.15813)">
<stop offset="0.493623" stop-color="#9BC2B4" stop-opacity="0"/>
<stop offset="1" stop-color="#85B492"/>
</radialGradient>
<radialGradient id="paint66_radial_9848_1432" cx="0" cy="0" r="1" gradientUnits="userSpaceOnUse" gradientTransform="translate(135.589 56.5843) rotate(48.5323) scale(11.8115 6.15813)">
<stop offset="0.531278" stop-color="#9BC2B4" stop-opacity="0"/>
<stop offset="1" stop-color="#9BC2B4"/>
</radialGradient>
<radialGradient id="paint67_radial_9848_1432" cx="0" cy="0" r="1" gradientUnits="userSpaceOnUse" gradientTransform="translate(141.407 57.3049) rotate(48.5323) scale(11.8115 6.15813)">
<stop offset="0.493572" stop-color="#9BC2B4" stop-opacity="0"/>
<stop offset="1" stop-color="#91B186"/>
</radialGradient>
<radialGradient id="paint68_radial_9848_1432" cx="0" cy="0" r="1" gradientUnits="userSpaceOnUse" gradientTransform="translate(142.61 52.8884) rotate(48.5323) scale(11.8115 6.15813)">
<stop offset="0.493623" stop-color="#9BC2B4" stop-opacity="0"/>
<stop offset="1" stop-color="#85B492"/>
</radialGradient>
<radialGradient id="paint69_radial_9848_1432" cx="0" cy="0" r="1" gradientUnits="userSpaceOnUse" gradientTransform="translate(130.973 51.969) rotate(48.5323) scale(11.8115 6.15813)">
<stop offset="0.531278" stop-color="#9BC2B4" stop-opacity="0"/>
<stop offset="1" stop-color="#9BC2B4"/>
</radialGradient>
<radialGradient id="paint70_radial_9848_1432" cx="0" cy="0" r="1" gradientUnits="userSpaceOnUse" gradientTransform="translate(136.792 52.6896) rotate(48.5323) scale(11.8115 6.15813)">
<stop offset="0.493572" stop-color="#9BC2B4" stop-opacity="0"/>
<stop offset="1" stop-color="#91B186"/>
</radialGradient>
<radialGradient id="paint71_radial_9848_1432" cx="0" cy="0" r="1" gradientUnits="userSpaceOnUse" gradientTransform="translate(138.405 47.909) rotate(48.5323) scale(11.8115 6.15813)">
<stop offset="0.493623" stop-color="#9BC2B4" stop-opacity="0"/>
<stop offset="1" stop-color="#85B492"/>
</radialGradient>
<radialGradient id="paint72_radial_9848_1432" cx="0" cy="0" r="1" gradientUnits="userSpaceOnUse" gradientTransform="translate(125.155 47.909) rotate(48.5323) scale(11.8115 6.15813)">
<stop offset="0.531278" stop-color="#9BC2B4" stop-opacity="0"/>
<stop offset="1" stop-color="#9BC2B4"/>
</radialGradient>
<radialGradient id="paint73_radial_9848_1432" cx="0" cy="0" r="1" gradientUnits="userSpaceOnUse" gradientTransform="translate(130.973 48.6296) rotate(48.5323) scale(11.8115 6.15813)">
<stop offset="0.493572" stop-color="#9BC2B4" stop-opacity="0"/>
<stop offset="1" stop-color="#91B186"/>
</radialGradient>
<radialGradient id="paint74_radial_9848_1432" cx="0" cy="0" r="1" gradientUnits="userSpaceOnUse" gradientTransform="translate(132.586 43.6971) rotate(48.5323) scale(11.8115 6.15813)">
<stop offset="0.493623" stop-color="#9BC2B4" stop-opacity="0"/>
<stop offset="1" stop-color="#85B492"/>
</radialGradient>
<radialGradient id="paint75_radial_9848_1432" cx="0" cy="0" r="1" gradientUnits="userSpaceOnUse" gradientTransform="translate(118.362 44.1732) rotate(48.5323) scale(11.8115 6.15813)">
<stop offset="0.531278" stop-color="#9BC2B4" stop-opacity="0"/>
<stop offset="1" stop-color="#9BC2B4"/>
</radialGradient>
<radialGradient id="paint76_radial_9848_1432" cx="0" cy="0" r="1" gradientUnits="userSpaceOnUse" gradientTransform="translate(124.181 44.8938) rotate(48.5323) scale(11.8115 6.15813)">
<stop offset="0.493572" stop-color="#9BC2B4" stop-opacity="0"/>
<stop offset="1" stop-color="#91B186"/>
</radialGradient>
<radialGradient id="paint77_radial_9848_1432" cx="0" cy="0" r="1" gradientUnits="userSpaceOnUse" gradientTransform="translate(126.08 40.71) rotate(48.5323) scale(11.8115 6.15813)">
<stop offset="0.493623" stop-color="#9BC2B4" stop-opacity="0"/>
<stop offset="1" stop-color="#85B492"/>
</radialGradient>
<radialGradient id="paint78_radial_9848_1432" cx="0" cy="0" r="1" gradientUnits="userSpaceOnUse" gradientTransform="translate(120.262 39.3651) rotate(48.5323) scale(11.8115 6.15813)">
<stop offset="0.493623" stop-color="#9BC2B4" stop-opacity="0"/>
<stop offset="1" stop-color="#85B492"/>
</radialGradient>
</defs>
</svg>
