<svg viewBox="0 0 240 120" fill="none" xmlns="http://www.w3.org/2000/svg">
<path d="M127.938 91.2395C126.942 90.2444 127.646 86.4178 120.633 86.4178C119.464 83.3788 146.654 79.2302 153.784 80.399C151.914 84.9573 152.931 87.8699 152.581 90.2076C152.23 92.5452 130.276 93.577 127.938 91.2395Z" fill="url(#paint0_linear_10114_1240)"/>
<path d="M127.938 91.2395C126.942 90.2444 127.646 86.4178 120.633 86.4178C119.464 83.3788 146.654 79.2302 153.784 80.399C151.914 84.9573 152.931 87.8699 152.581 90.2076C152.23 92.5452 130.276 93.577 127.938 91.2395Z" fill="url(#paint1_radial_10114_1240)"/>
<path d="M65.5273 88.3827C65.023 86.8651 64.2666 83.2754 64.2666 83.2754L113.811 85.6102C113.811 85.6102 113.106 90.0394 111.593 91.9072C109.702 94.2419 99.3132 96.4085 86.2022 95.387C73.0913 94.3656 66.1576 90.2797 65.5273 88.3827Z" fill="url(#paint2_linear_10114_1240)"/>
<path d="M65.5273 88.3827C65.023 86.8651 64.2666 83.2754 64.2666 83.2754L113.811 85.6102C113.811 85.6102 113.106 90.0394 111.593 91.9072C109.702 94.2419 99.3132 96.4085 86.2022 95.387C73.0913 94.3656 66.1576 90.2797 65.5273 88.3827Z" fill="url(#paint3_radial_10114_1240)"/>
<path d="M154.019 80.8335C154.898 79.0398 156.708 64.3627 151.214 56.1809C150.292 54.6547 143.266 58.4603 133.915 58.4603C124.565 58.4603 121.175 57.5835 116.967 55.7134C112.759 53.8433 105.513 57.9342 98.8504 64.3627C92.1881 70.7913 89.2014 69.295 76.9521 70.4316C64.7028 71.5683 62.8331 83.1808 64.7032 85.986C66.5733 88.7912 75.8245 92.4147 93.9414 92.6484C112.058 92.8822 112.608 87.0284 123.162 87.0284C131.554 87.0284 151.214 86.5608 154.019 80.8335Z" fill="url(#paint4_linear_10114_1240)"/>
<path d="M154.019 80.8335C154.898 79.0398 156.708 64.3627 151.214 56.1809C150.292 54.6547 143.266 58.4603 133.915 58.4603C124.565 58.4603 121.175 57.5835 116.967 55.7134C112.759 53.8433 105.513 57.9342 98.8504 64.3627C92.1881 70.7913 89.2014 69.295 76.9521 70.4316C64.7028 71.5683 62.8331 83.1808 64.7032 85.986C66.5733 88.7912 75.8245 92.4147 93.9414 92.6484C112.058 92.8822 112.608 87.0284 123.162 87.0284C131.554 87.0284 151.214 86.5608 154.019 80.8335Z" fill="url(#paint5_radial_10114_1240)"/>
<path d="M154.019 80.8335C154.898 79.0398 156.708 64.3627 151.214 56.1809C150.292 54.6547 143.266 58.4603 133.915 58.4603C124.565 58.4603 121.175 57.5835 116.967 55.7134C112.759 53.8433 105.513 57.9342 98.8504 64.3627C92.1881 70.7913 89.2014 69.295 76.9521 70.4316C64.7028 71.5683 62.8331 83.1808 64.7032 85.986C66.5733 88.7912 75.8245 92.4147 93.9414 92.6484C112.058 92.8822 112.608 87.0284 123.162 87.0284C131.554 87.0284 151.214 86.5608 154.019 80.8335Z" fill="url(#paint6_radial_10114_1240)"/>
<path d="M113.461 55.9377C114.771 55.7494 115.957 55.8544 116.967 56.303C121.175 58.173 124.566 59.0496 133.915 59.0497C141.565 59.0497 147.66 56.5073 150.129 56.4162C151.995 58.9562 148.169 63.7835 132.63 63.7835C118.474 63.7832 112.561 58.9623 113.461 55.9377Z" fill="url(#paint7_radial_10114_1240)"/>
<path d="M100.099 68.8044C100.675 69.7173 100.22 71.0389 99.0832 71.7562C97.9462 72.4736 96.5575 72.315 95.9816 71.4021C95.4056 70.4891 95.8605 69.1675 96.9975 68.4502C98.1346 67.7328 99.5232 67.8914 100.099 68.8044Z" fill="url(#paint8_radial_10114_1240)"/>
<path d="M96.5128 66.1145C96.805 68.3353 96.893 69.9132 97.1852 72.134C98.4125 72.4846 99.6687 71.4229 99.9027 70.819C99.5714 68.7931 99.0842 65.1912 98.8504 64.3028C98.5582 63.1925 96.2206 63.8938 96.5128 66.1145Z" fill="url(#paint9_linear_10114_1240)"/>
<path d="M96.5128 66.1145C96.805 68.3353 96.893 69.9132 97.1852 72.134C98.4125 72.4846 99.6687 71.4229 99.9027 70.819C99.5714 68.7931 99.0842 65.1912 98.8504 64.3028C98.5582 63.1925 96.2206 63.8938 96.5128 66.1145Z" fill="url(#paint10_radial_10114_1240)"/>
<path d="M106.303 63.9684C106.879 64.8814 106.424 66.203 105.287 66.9203C104.15 67.6376 102.761 67.4791 102.185 66.5661C101.609 65.6532 102.064 64.3316 103.201 63.6142C104.338 62.8969 105.727 63.0555 106.303 63.9684Z" fill="url(#paint11_radial_10114_1240)"/>
<path d="M113.599 59.4406C114.175 60.3535 113.72 61.6751 112.583 62.3925C111.446 63.1098 110.057 62.9512 109.481 62.0383C108.905 61.1253 109.36 59.8037 110.497 59.0864C111.634 58.3691 113.023 58.5276 113.599 59.4406Z" fill="url(#paint12_radial_10114_1240)"/>
<path d="M102.444 61.1433C102.736 63.3641 103.087 65.0644 103.379 67.2851C104.431 67.4604 105.833 66.7202 106.067 66.1163C105.736 64.0903 105.015 60.22 104.781 59.3317C104.489 58.2213 102.151 58.9226 102.444 61.1433Z" fill="url(#paint13_linear_10114_1240)"/>
<path d="M102.444 61.1433C102.736 63.3641 103.087 65.0644 103.379 67.2851C104.431 67.4604 105.833 66.7202 106.067 66.1163C105.736 64.0903 105.015 60.22 104.781 59.3317C104.489 58.2213 102.151 58.9226 102.444 61.1433Z" fill="url(#paint14_radial_10114_1240)"/>
<path d="M109.585 57.0237C109.877 59.2445 110.188 60.4758 110.48 62.6966C111.532 62.9596 112.935 62.3752 113.168 61.82C112.837 59.794 112.156 56.1003 111.922 55.212C111.63 54.1016 109.293 54.8029 109.585 57.0237Z" fill="url(#paint15_linear_10114_1240)"/>
<path d="M109.585 57.0237C109.877 59.2445 110.188 60.4758 110.48 62.6966C111.532 62.9596 112.935 62.3752 113.168 61.82C112.837 59.794 112.156 56.1003 111.922 55.212C111.63 54.1016 109.293 54.8029 109.585 57.0237Z" fill="url(#paint16_radial_10114_1240)"/>
<path d="M141.124 103.088C140.088 102.052 140.821 98.0668 133.518 98.0668C132.301 94.9023 160.614 90.5823 168.039 91.7994C166.091 96.546 167.15 99.579 166.785 102.013C166.42 104.447 143.559 105.522 141.124 103.088Z" fill="url(#paint17_linear_10114_1240)"/>
<path d="M141.124 103.088C140.088 102.052 140.821 98.0668 133.518 98.0668C132.301 94.9023 160.614 90.5823 168.039 91.7994C166.091 96.546 167.15 99.579 166.785 102.013C166.42 104.447 143.559 105.522 141.124 103.088Z" fill="url(#paint18_radial_10114_1240)"/>
<path d="M76.1353 100.112C75.6102 98.5315 74.8225 94.7935 74.8225 94.7935L126.413 97.2247C126.413 97.2247 125.679 101.837 124.104 103.782C122.135 106.213 111.317 108.469 97.6643 107.405C84.0117 106.342 76.7916 102.087 76.1353 100.112Z" fill="url(#paint19_linear_10114_1240)"/>
<path d="M76.1353 100.112C75.6102 98.5315 74.8225 94.7935 74.8225 94.7935L126.413 97.2247C126.413 97.2247 125.679 101.837 124.104 103.782C122.135 106.213 111.317 108.469 97.6643 107.405C84.0117 106.342 76.7916 102.087 76.1353 100.112Z" fill="url(#paint20_radial_10114_1240)"/>
<path d="M168.283 92.2499C169.198 90.3821 171.083 75.0987 165.362 66.5789C164.401 64.9897 157.086 68.9525 147.349 68.9525C137.612 68.9525 134.082 68.0395 129.701 66.0921C125.319 64.1447 117.773 68.4046 110.835 75.0987C103.898 81.7928 100.788 80.2347 88.0324 81.4183C75.2771 82.6019 73.3301 94.6942 75.2775 97.6152C77.2249 100.536 86.8582 104.309 105.723 104.553C124.589 104.796 125.161 98.7007 136.151 98.7007C144.89 98.7007 165.362 98.2137 168.283 92.2499Z" fill="url(#paint21_linear_10114_1240)"/>
<path d="M168.283 92.2499C169.198 90.3821 171.083 75.0987 165.362 66.5789C164.401 64.9897 157.086 68.9525 147.349 68.9525C137.612 68.9525 134.082 68.0395 129.701 66.0921C125.319 64.1447 117.773 68.4046 110.835 75.0987C103.898 81.7928 100.788 80.2347 88.0324 81.4183C75.2771 82.6019 73.3301 94.6942 75.2775 97.6152C77.2249 100.536 86.8582 104.309 105.723 104.553C124.589 104.796 125.161 98.7007 136.151 98.7007C144.89 98.7007 165.362 98.2137 168.283 92.2499Z" fill="url(#paint22_radial_10114_1240)"/>
<path d="M168.283 92.2499C169.198 90.3821 171.083 75.0987 165.362 66.5789C164.401 64.9897 157.086 68.9525 147.349 68.9525C137.612 68.9525 134.082 68.0395 129.701 66.0921C125.319 64.1447 117.773 68.4046 110.835 75.0987C103.898 81.7928 100.788 80.2347 88.0324 81.4183C75.2771 82.6019 73.3301 94.6942 75.2775 97.6152C77.2249 100.536 86.8582 104.309 105.723 104.553C124.589 104.796 125.161 98.7007 136.151 98.7007C144.89 98.7007 165.362 98.2137 168.283 92.2499Z" fill="url(#paint23_radial_10114_1240)"/>
<path d="M126.049 66.3286C127.414 66.1325 128.648 66.2418 129.7 66.709C134.082 68.6562 137.613 69.5691 147.349 69.5692C155.314 69.5692 161.661 66.9217 164.232 66.8269C166.176 69.4718 162.191 74.4985 146.01 74.4985C131.269 74.4982 125.113 69.4781 126.049 66.3286Z" fill="url(#paint24_radial_10114_1240)"/>
<path d="M112.136 79.7248C112.736 80.6755 112.262 82.0517 111.078 82.7986C109.894 83.5456 108.448 83.3805 107.848 82.4298C107.249 81.4792 107.722 80.103 108.906 79.356C110.09 78.609 111.536 78.7741 112.136 79.7248Z" fill="url(#paint25_radial_10114_1240)"/>
<path d="M108.401 76.9247C108.705 79.2372 108.797 80.8803 109.101 83.1928C110.379 83.5579 111.687 82.4524 111.931 81.8235C111.586 79.7139 111.079 75.9632 110.835 75.0382C110.531 73.8819 108.097 74.6122 108.401 76.9247Z" fill="url(#paint26_linear_10114_1240)"/>
<path d="M108.401 76.9247C108.705 79.2372 108.797 80.8803 109.101 83.1928C110.379 83.5579 111.687 82.4524 111.931 81.8235C111.586 79.7139 111.079 75.9632 110.835 75.0382C110.531 73.8819 108.097 74.6122 108.401 76.9247Z" fill="url(#paint27_radial_10114_1240)"/>
<path d="M118.596 74.6901C119.196 75.6408 118.722 77.017 117.538 77.764C116.354 78.5109 114.908 78.3458 114.308 77.3951C113.708 76.4445 114.182 75.0683 115.366 74.3213C116.55 73.5744 117.996 73.7395 118.596 74.6901Z" fill="url(#paint28_radial_10114_1240)"/>
<path d="M126.193 69.9733C126.793 70.924 126.319 72.3002 125.135 73.0472C123.951 73.7941 122.505 73.629 121.906 72.6783C121.306 71.7277 121.78 70.3515 122.964 69.6045C124.148 68.8576 125.594 69.0227 126.193 69.9733Z" fill="url(#paint29_radial_10114_1240)"/>
<path d="M114.578 71.746C114.882 74.0585 115.247 75.829 115.552 78.1415C116.647 78.324 118.107 77.5532 118.351 76.9244C118.006 74.8147 117.255 70.7845 117.012 69.8595C116.708 68.7032 114.273 69.4335 114.578 71.746Z" fill="url(#paint30_linear_10114_1240)"/>
<path d="M114.578 71.746C114.882 74.0585 115.247 75.829 115.552 78.1415C116.647 78.324 118.107 77.5532 118.351 76.9244C118.006 74.8147 117.255 70.7845 117.012 69.8595C116.708 68.7032 114.273 69.4335 114.578 71.746Z" fill="url(#paint31_radial_10114_1240)"/>
<path d="M122.013 67.4574C122.318 69.7699 122.641 71.0521 122.946 73.3646C124.041 73.6385 125.501 73.0299 125.745 72.4518C125.4 70.3421 124.691 66.4959 124.448 65.5709C124.143 64.4146 121.709 65.1449 122.013 67.4574Z" fill="url(#paint32_linear_10114_1240)"/>
<path d="M122.013 67.4574C122.318 69.7699 122.641 71.0521 122.946 73.3646C124.041 73.6385 125.501 73.0299 125.745 72.4518C125.4 70.3421 124.691 66.4959 124.448 65.5709C124.143 64.4146 121.709 65.1449 122.013 67.4574Z" fill="url(#paint33_radial_10114_1240)"/>
<path d="M35.399 67.0337L46.7536 73.129L30.4237 100.392C30.1995 100.767 29.7216 100.9 29.3361 100.696L22.8583 97.2661C22.4778 97.0646 22.3178 96.6031 22.492 96.2092L35.399 67.0337Z" fill="url(#paint34_linear_10114_1240)"/>
<path d="M35.399 67.0337L46.7536 73.129L30.4237 100.392C30.1995 100.767 29.7216 100.9 29.3361 100.696L22.8583 97.2661C22.4778 97.0646 22.3178 96.6031 22.492 96.2092L35.399 67.0337Z" fill="url(#paint35_radial_10114_1240)"/>
<path d="M35.399 67.0337L46.7536 73.129L30.4237 100.392C30.1995 100.767 29.7216 100.9 29.3361 100.696L22.8583 97.2661C22.4778 97.0646 22.3178 96.6031 22.492 96.2092L35.399 67.0337Z" fill="url(#paint36_radial_10114_1240)"/>
<path d="M47.4609 37.5112L64.6931 46.7618L42.5335 83.4664C41.6302 84.9627 39.7126 85.4882 38.1726 84.6616L30.5279 80.5577C28.9879 79.731 28.3663 77.8424 29.1142 76.2627L47.4609 37.5112Z" fill="url(#paint37_linear_10114_1240)"/>
<path d="M47.4609 37.5112L64.6931 46.7618L42.5335 83.4664C41.6302 84.9627 39.7126 85.4882 38.1726 84.6616L30.5279 80.5577C28.9879 79.731 28.3663 77.8424 29.1142 76.2627L47.4609 37.5112Z" fill="url(#paint38_radial_10114_1240)"/>
<path d="M47.4609 37.5112L64.6931 46.7618L42.5335 83.4664C41.6302 84.9627 39.7126 85.4882 38.1726 84.6616L30.5279 80.5577C28.9879 79.731 28.3663 77.8424 29.1142 76.2627L47.4609 37.5112Z" fill="url(#paint39_radial_10114_1240)"/>
<path d="M55.1498 14.9483C56.1136 13.3823 57.9144 12.54 59.7003 12.978C62.1864 13.5878 65.9049 14.7229 69.54 16.6743C73.2005 18.6393 76.2177 21.1321 78.0972 22.869C79.4276 24.0984 79.7313 26.0296 78.997 27.6857L72.6326 42.0412C71.5964 44.3785 69.6373 46.1813 67.2221 47.02L64.3718 48.0098C64.0391 48.1253 63.6797 48.1313 63.3457 48.0196C61.9689 47.5592 58.0711 46.1893 54.6746 44.366C51.3034 42.5563 48.0317 40.0882 46.864 39.1782C46.5697 38.9489 46.3708 38.6239 46.2915 38.2593L45.6485 35.3006C45.1419 32.9697 45.5573 30.5331 46.8077 28.5018L55.1498 14.9483Z" fill="#C0C0C0"/>
<path d="M55.1498 14.9483C56.1136 13.3823 57.9144 12.54 59.7003 12.978C62.1864 13.5878 65.9049 14.7229 69.54 16.6743C73.2005 18.6393 76.2177 21.1321 78.0972 22.869C79.4276 24.0984 79.7313 26.0296 78.997 27.6857L72.6326 42.0412C71.5964 44.3785 69.6373 46.1813 67.2221 47.02L64.3718 48.0098C64.0391 48.1253 63.6797 48.1313 63.3457 48.0196C61.9689 47.5592 58.0711 46.1893 54.6746 44.366C51.3034 42.5563 48.0317 40.0882 46.864 39.1782C46.5697 38.9489 46.3708 38.6239 46.2915 38.2593L45.6485 35.3006C45.1419 32.9697 45.5573 30.5331 46.8077 28.5018L55.1498 14.9483Z" fill="url(#paint40_radial_10114_1240)"/>
<path d="M55.1498 14.9483C56.1136 13.3823 57.9144 12.54 59.7003 12.978C62.1864 13.5878 65.9049 14.7229 69.54 16.6743C73.2005 18.6393 76.2177 21.1321 78.0972 22.869C79.4276 24.0984 79.7313 26.0296 78.997 27.6857L72.6326 42.0412C71.5964 44.3785 69.6373 46.1813 67.2221 47.02L64.3718 48.0098C64.0391 48.1253 63.6797 48.1313 63.3457 48.0196C61.9689 47.5592 58.0711 46.1893 54.6746 44.366C51.3034 42.5563 48.0317 40.0882 46.864 39.1782C46.5697 38.9489 46.3708 38.6239 46.2915 38.2593L45.6485 35.3006C45.1419 32.9697 45.5573 30.5331 46.8077 28.5018L55.1498 14.9483Z" fill="url(#paint41_radial_10114_1240)"/>
<path d="M55.1498 14.9483C56.1136 13.3823 57.9144 12.54 59.7003 12.978C62.1864 13.5878 65.9049 14.7229 69.54 16.6743C73.2005 18.6393 76.2177 21.1321 78.0972 22.869C79.4276 24.0984 79.7313 26.0296 78.997 27.6857L72.6326 42.0412C71.5964 44.3785 69.6373 46.1813 67.2221 47.02L64.3718 48.0098C64.0391 48.1253 63.6797 48.1313 63.3457 48.0196C61.9689 47.5592 58.0711 46.1893 54.6746 44.366C51.3034 42.5563 48.0317 40.0882 46.864 39.1782C46.5697 38.9489 46.3708 38.6239 46.2915 38.2593L45.6485 35.3006C45.1419 32.9697 45.5573 30.5331 46.8077 28.5018L55.1498 14.9483Z" fill="url(#paint42_linear_10114_1240)"/>
<path d="M55.1498 14.9483C56.1136 13.3823 57.9144 12.54 59.7003 12.978C62.1864 13.5878 65.9049 14.7229 69.54 16.6743C73.2005 18.6393 76.2177 21.1321 78.0972 22.869C79.4276 24.0984 79.7313 26.0296 78.997 27.6857L72.6326 42.0412C71.5964 44.3785 69.6373 46.1813 67.2221 47.02L64.3718 48.0098C64.0391 48.1253 63.6797 48.1313 63.3457 48.0196C61.9689 47.5592 58.0711 46.1893 54.6746 44.366C51.3034 42.5563 48.0317 40.0882 46.864 39.1782C46.5697 38.9489 46.3708 38.6239 46.2915 38.2593L45.6485 35.3006C45.1419 32.9697 45.5573 30.5331 46.8077 28.5018L55.1498 14.9483Z" fill="url(#paint43_linear_10114_1240)"/>
<path d="M55.1498 14.9483C56.1136 13.3823 57.9144 12.54 59.7003 12.978C62.1864 13.5878 65.9049 14.7229 69.54 16.6743C73.2005 18.6393 76.2177 21.1321 78.0972 22.869C79.4276 24.0984 79.7313 26.0296 78.997 27.6857L72.6326 42.0412C71.5964 44.3785 69.6373 46.1813 67.2221 47.02L64.3718 48.0098C64.0391 48.1253 63.6797 48.1313 63.3457 48.0196C61.9689 47.5592 58.0711 46.1893 54.6746 44.366C51.3034 42.5563 48.0317 40.0882 46.864 39.1782C46.5697 38.9489 46.3708 38.6239 46.2915 38.2593L45.6485 35.3006C45.1419 32.9697 45.5573 30.5331 46.8077 28.5018L55.1498 14.9483Z" fill="url(#paint44_radial_10114_1240)"/>
<path d="M55.1498 14.9483C56.1136 13.3823 57.9144 12.54 59.7003 12.978C62.1864 13.5878 65.9049 14.7229 69.54 16.6743C73.2005 18.6393 76.2177 21.1321 78.0972 22.869C79.4276 24.0984 79.7313 26.0296 78.997 27.6857L72.6326 42.0412C71.5964 44.3785 69.6373 46.1813 67.2221 47.02L64.3718 48.0098C64.0391 48.1253 63.6797 48.1313 63.3457 48.0196C61.9689 47.5592 58.0711 46.1893 54.6746 44.366C51.3034 42.5563 48.0317 40.0882 46.864 39.1782C46.5697 38.9489 46.3708 38.6239 46.2915 38.2593L45.6485 35.3006C45.1419 32.9697 45.5573 30.5331 46.8077 28.5018L55.1498 14.9483Z" fill="url(#paint45_radial_10114_1240)"/>
<path d="M73.9698 40.4825C73.8711 40.6975 73.6262 40.8034 73.4028 40.7255C69.7064 39.4362 64.9831 37.3266 60.2699 34.8339C55.4892 32.3054 50.8039 29.4767 47.4316 27.0362C47.2386 26.8966 47.1859 26.6326 47.3085 26.4283L50.2222 21.573C50.3631 21.3383 50.6754 21.2767 50.8959 21.4388C53.9297 23.6691 58.0694 26.2156 63.3507 29.0089C68.5017 31.7332 72.7226 33.5649 76.0579 34.7067C76.3182 34.7958 76.4455 35.0897 76.3307 35.3398L73.9698 40.4825Z" fill="#646464"/>
<path d="M73.9698 40.4825C73.8711 40.6975 73.6262 40.8034 73.4028 40.7255C69.7064 39.4362 64.9831 37.3266 60.2699 34.8339C55.4892 32.3054 50.8039 29.4767 47.4316 27.0362C47.2386 26.8966 47.1859 26.6326 47.3085 26.4283L50.2222 21.573C50.3631 21.3383 50.6754 21.2767 50.8959 21.4388C53.9297 23.6691 58.0694 26.2156 63.3507 29.0089C68.5017 31.7332 72.7226 33.5649 76.0579 34.7067C76.3182 34.7958 76.4455 35.0897 76.3307 35.3398L73.9698 40.4825Z" fill="url(#paint46_radial_10114_1240)"/>
<path d="M73.9698 40.4825C73.8711 40.6975 73.6262 40.8034 73.4028 40.7255C69.7064 39.4362 64.9831 37.3266 60.2699 34.8339C55.4892 32.3054 50.8039 29.4767 47.4316 27.0362C47.2386 26.8966 47.1859 26.6326 47.3085 26.4283L50.2222 21.573C50.3631 21.3383 50.6754 21.2767 50.8959 21.4388C53.9297 23.6691 58.0694 26.2156 63.3507 29.0089C68.5017 31.7332 72.7226 33.5649 76.0579 34.7067C76.3182 34.7958 76.4455 35.0897 76.3307 35.3398L73.9698 40.4825Z" fill="url(#paint47_radial_10114_1240)"/>
<path d="M73.9698 40.4825C73.8711 40.6975 73.6262 40.8034 73.4028 40.7255C69.7064 39.4362 64.9831 37.3266 60.2699 34.8339C55.4892 32.3054 50.8039 29.4767 47.4316 27.0362C47.2386 26.8966 47.1859 26.6326 47.3085 26.4283L50.2222 21.573C50.3631 21.3383 50.6754 21.2767 50.8959 21.4388C53.9297 23.6691 58.0694 26.2156 63.3507 29.0089C68.5017 31.7332 72.7226 33.5649 76.0579 34.7067C76.3182 34.7958 76.4455 35.0897 76.3307 35.3398L73.9698 40.4825Z" fill="url(#paint48_linear_10114_1240)"/>
<path d="M73.9698 40.4825C73.8711 40.6975 73.6262 40.8034 73.4028 40.7255C69.7064 39.4362 64.9831 37.3266 60.2699 34.8339C55.4892 32.3054 50.8039 29.4767 47.4316 27.0362C47.2386 26.8966 47.1859 26.6326 47.3085 26.4283L50.2222 21.573C50.3631 21.3383 50.6754 21.2767 50.8959 21.4388C53.9297 23.6691 58.0694 26.2156 63.3507 29.0089C68.5017 31.7332 72.7226 33.5649 76.0579 34.7067C76.3182 34.7958 76.4455 35.0897 76.3307 35.3398L73.9698 40.4825Z" fill="url(#paint49_linear_10114_1240)"/>
<path d="M73.9698 40.4825C73.8711 40.6975 73.6262 40.8034 73.4028 40.7255C69.7064 39.4362 64.9831 37.3266 60.2699 34.8339C55.4892 32.3054 50.8039 29.4767 47.4316 27.0362C47.2386 26.8966 47.1859 26.6326 47.3085 26.4283L50.2222 21.573C50.3631 21.3383 50.6754 21.2767 50.8959 21.4388C53.9297 23.6691 58.0694 26.2156 63.3507 29.0089C68.5017 31.7332 72.7226 33.5649 76.0579 34.7067C76.3182 34.7958 76.4455 35.0897 76.3307 35.3398L73.9698 40.4825Z" fill="url(#paint50_radial_10114_1240)"/>
<path d="M73.9698 40.4825C73.8711 40.6975 73.6262 40.8034 73.4028 40.7255C69.7064 39.4362 64.9831 37.3266 60.2699 34.8339C55.4892 32.3054 50.8039 29.4767 47.4316 27.0362C47.2386 26.8966 47.1859 26.6326 47.3085 26.4283L50.2222 21.573C50.3631 21.3383 50.6754 21.2767 50.8959 21.4388C53.9297 23.6691 58.0694 26.2156 63.3507 29.0089C68.5017 31.7332 72.7226 33.5649 76.0579 34.7067C76.3182 34.7958 76.4455 35.0897 76.3307 35.3398L73.9698 40.4825Z" fill="url(#paint51_radial_10114_1240)"/>
<path fill-rule="evenodd" clip-rule="evenodd" d="M186.736 118.789L203.283 80.3033L201.562 79.578L184.654 119.144L186.736 118.789Z" fill="#998DA5"/>
<path fill-rule="evenodd" clip-rule="evenodd" d="M185.954 118.712L174.364 55.6108L172.522 55.9491L184.112 119.051L185.954 118.712Z" fill="#998DA5"/>
<path d="M190.436 50.0241C188.55 60.0396 197.854 77.2713 203.871 78.4038C209.887 79.5364 224.82 66.8669 226.705 56.8514C228.59 46.8359 221.999 37.1885 211.984 35.3032C201.968 33.4179 192.321 40.0086 190.436 50.0241Z" fill="url(#paint52_radial_10114_1240)"/>
<path d="M190.436 50.0241C188.55 60.0396 197.854 77.2713 203.871 78.4038C209.887 79.5364 224.82 66.8669 226.705 56.8514C228.59 46.8359 221.999 37.1885 211.984 35.3032C201.968 33.4179 192.321 40.0086 190.436 50.0241Z" fill="url(#paint53_radial_10114_1240)"/>
<path d="M190.436 50.0241C188.55 60.0396 197.854 77.2713 203.871 78.4038C209.887 79.5364 224.82 66.8669 226.705 56.8514C228.59 46.8359 221.999 37.1885 211.984 35.3032C201.968 33.4179 192.321 40.0086 190.436 50.0241Z" fill="url(#paint54_radial_10114_1240)"/>
<path d="M190.436 50.0241C188.55 60.0396 197.854 77.2713 203.871 78.4038C209.887 79.5364 224.82 66.8669 226.705 56.8514C228.59 46.8359 221.999 37.1885 211.984 35.3032C201.968 33.4179 192.321 40.0086 190.436 50.0241Z" fill="url(#paint55_radial_10114_1240)"/>
<path d="M200.261 78.6365L205.576 80.1241C206.299 79.3188 206.129 78.5236 205.901 78.1909L200.996 76.8035C200.154 77.2613 200.166 78.1812 200.261 78.6365Z" fill="#998DA5"/>
<path fill-rule="evenodd" clip-rule="evenodd" d="M206.792 81.635C207.062 80.6969 206.519 79.7182 205.581 79.449L200.708 78.0508C199.77 77.7817 198.792 78.324 198.522 79.2621C198.253 80.2002 198.796 81.179 199.734 81.4482L204.606 82.8463C205.545 83.1155 206.523 82.5732 206.792 81.635Z" fill="#27A4BC"/>
<path fill-rule="evenodd" clip-rule="evenodd" d="M206.792 81.635C207.062 80.6969 206.519 79.7182 205.581 79.449L200.708 78.0508C199.77 77.7817 198.792 78.324 198.522 79.2621C198.253 80.2002 198.796 81.179 199.734 81.4482L204.606 82.8463C205.545 83.1155 206.523 82.5732 206.792 81.635Z" fill="url(#paint56_linear_10114_1240)"/>
<path fill-rule="evenodd" clip-rule="evenodd" d="M206.792 81.635C207.062 80.6969 206.519 79.7182 205.581 79.449L200.708 78.0508C199.77 77.7817 198.792 78.324 198.522 79.2621C198.253 80.2002 198.796 81.179 199.734 81.4482L204.606 82.8463C205.545 83.1155 206.523 82.5732 206.792 81.635Z" fill="url(#paint57_radial_10114_1240)"/>
<path d="M203.885 37.805C201.552 38.3116 199.984 40.2099 200.382 42.0448C200.781 43.8798 202.995 44.9566 205.328 44.45C207.66 43.9434 209.228 42.0452 208.83 40.2102C208.431 38.3753 206.217 37.2984 203.885 37.805Z" fill="url(#paint58_radial_10114_1240)"/>
<path d="M149.121 29.8254C151.204 40.6118 167.366 54.1921 173.845 52.9403C180.325 51.6885 190.265 33.0659 188.182 22.2795C186.098 11.4931 175.664 4.43823 164.878 6.52198C154.092 8.60573 147.037 19.039 149.121 29.8254Z" fill="url(#paint59_radial_10114_1240)"/>
<path d="M149.121 29.8254C151.204 40.6118 167.366 54.1921 173.845 52.9403C180.325 51.6885 190.265 33.0659 188.182 22.2795C186.098 11.4931 175.664 4.43823 164.878 6.52198C154.092 8.60573 147.037 19.039 149.121 29.8254Z" fill="url(#paint60_radial_10114_1240)"/>
<path d="M149.121 29.8254C151.204 40.6118 167.366 54.1921 173.845 52.9403C180.325 51.6885 190.265 33.0659 188.182 22.2795C186.098 11.4931 175.664 4.43823 164.878 6.52198C154.092 8.60573 147.037 19.039 149.121 29.8254Z" fill="url(#paint61_radial_10114_1240)"/>
<path d="M149.121 29.8254C151.204 40.6118 167.366 54.1921 173.845 52.9403C180.325 51.6885 190.265 33.0659 188.182 22.2795C186.098 11.4931 175.664 4.43823 164.878 6.52198C154.092 8.60573 147.037 19.039 149.121 29.8254Z" fill="url(#paint62_radial_10114_1240)"/>
<path d="M170.318 54.6087L176.236 53.9907C176.641 52.8966 176.155 52.1673 175.794 51.9242L170.328 52.4795C169.665 53.2726 170.042 54.1897 170.318 54.6087Z" fill="#998DA5"/>
<path fill-rule="evenodd" clip-rule="evenodd" d="M178.055 55.0185C177.952 53.9714 177.02 53.2056 175.973 53.3079L170.535 53.8397C169.488 53.9421 168.722 54.8739 168.824 55.921C168.926 56.9681 169.858 57.7339 170.905 57.6316L176.344 57.0998C177.391 56.9974 178.157 56.0656 178.055 55.0185Z" fill="#F5AB28"/>
<path fill-rule="evenodd" clip-rule="evenodd" d="M178.055 55.0185C177.952 53.9714 177.02 53.2056 175.973 53.3079L170.535 53.8397C169.488 53.9421 168.722 54.8739 168.824 55.921C168.926 56.9681 169.858 57.7339 170.905 57.6316L176.344 57.0998C177.391 56.9974 178.157 56.0656 178.055 55.0185Z" fill="url(#paint63_linear_10114_1240)"/>
<path fill-rule="evenodd" clip-rule="evenodd" d="M178.055 55.0185C177.952 53.9714 177.02 53.2056 175.973 53.3079L170.535 53.8397C169.488 53.9421 168.722 54.8739 168.824 55.921C168.926 56.9681 169.858 57.7339 170.905 57.6316L176.344 57.0998C177.391 56.9974 178.157 56.0656 178.055 55.0185Z" fill="url(#paint64_radial_10114_1240)"/>
<path d="M157.753 12.2442C155.615 13.6774 154.797 16.202 155.924 17.8831C157.052 19.5642 159.698 19.7651 161.835 18.3319C163.972 16.8987 164.791 14.374 163.663 12.693C162.536 11.0119 159.89 10.811 157.753 12.2442Z" fill="url(#paint65_radial_10114_1240)"/>
<defs>
<linearGradient id="paint0_linear_10114_1240" x1="123.746" y1="72.3339" x2="172.837" y2="109.97" gradientUnits="userSpaceOnUse">
<stop stop-color="#F8DC7D"/>
<stop offset="1" stop-color="#1C0094"/>
</linearGradient>
<radialGradient id="paint1_radial_10114_1240" cx="0" cy="0" r="1" gradientUnits="userSpaceOnUse" gradientTransform="translate(141.279 84.7235) rotate(84.2894) scale(19.9692 13.5144)">
<stop offset="0.115" stop-color="#050C57" stop-opacity="0"/>
<stop offset="0.645312" stop-color="#020630" stop-opacity="0.7"/>
<stop offset="1" stop-color="#020526" stop-opacity="0.8"/>
</radialGradient>
<linearGradient id="paint2_linear_10114_1240" x1="61.9193" y1="75.4061" x2="110.777" y2="140.149" gradientUnits="userSpaceOnUse">
<stop stop-color="white"/>
<stop offset="1" stop-color="#8583CE"/>
</linearGradient>
<radialGradient id="paint3_radial_10114_1240" cx="0" cy="0" r="1" gradientTransform="matrix(11.0757 21.3084 -21.4913 14.9668 84.5634 86.3398)" gradientUnits="userSpaceOnUse">
<stop offset="0.115" stop-color="#687AB1" stop-opacity="0"/>
<stop offset="0.645312" stop-color="#4F64A0" stop-opacity="0.7"/>
<stop offset="1" stop-color="#4B5F9A" stop-opacity="0.8"/>
</radialGradient>
<linearGradient id="paint4_linear_10114_1240" x1="4.10572" y1="46.0807" x2="131.875" y2="154.377" gradientUnits="userSpaceOnUse">
<stop stop-color="white"/>
<stop offset="1" stop-color="#8583CE"/>
</linearGradient>
<radialGradient id="paint5_radial_10114_1240" cx="0" cy="0" r="1" gradientUnits="userSpaceOnUse" gradientTransform="translate(120.123 72.6615) rotate(-13.8287) scale(39.1208 12.7123)">
<stop stop-color="white"/>
<stop offset="0.91058" stop-color="white" stop-opacity="0"/>
</radialGradient>
<radialGradient id="paint6_radial_10114_1240" cx="0" cy="0" r="1" gradientUnits="userSpaceOnUse" gradientTransform="translate(104.695 60.0382) rotate(80.9658) scale(38.8164 91.3898)">
<stop offset="0.115" stop-color="#687AB1" stop-opacity="0"/>
<stop offset="0.426326" stop-color="#556AA8" stop-opacity="0.5"/>
<stop offset="0.566672" stop-color="#4F64A0" stop-opacity="0.7"/>
<stop offset="0.791387" stop-color="#14297E" stop-opacity="0.8"/>
</radialGradient>
<radialGradient id="paint7_radial_10114_1240" cx="0" cy="0" r="1" gradientUnits="userSpaceOnUse" gradientTransform="translate(131.967 57.7064) rotate(90) scale(11.1039 40.6699)">
<stop offset="0.2" stop-color="#F7E4C9"/>
<stop offset="0.635294" stop-color="#8B6E3E"/>
</radialGradient>
<radialGradient id="paint8_radial_10114_1240" cx="0" cy="0" r="1" gradientUnits="userSpaceOnUse" gradientTransform="translate(96.5223 67.6967) rotate(57.7531) scale(5.5339 5.27779)">
<stop offset="0.115" stop-color="#571505" stop-opacity="0"/>
<stop offset="0.791387" stop-color="#260902"/>
</radialGradient>
<linearGradient id="paint9_linear_10114_1240" x1="93.9115" y1="61.6329" x2="101.574" y2="62.7583" gradientUnits="userSpaceOnUse">
<stop stop-color="#CEFFBA"/>
<stop offset="1" stop-color="#1C0094"/>
</linearGradient>
<radialGradient id="paint10_radial_10114_1240" cx="0" cy="0" r="1" gradientTransform="matrix(0.25141 8.98385 -3.72288 3.36305 98.0606 64.9039)" gradientUnits="userSpaceOnUse">
<stop offset="0.115" stop-color="#050C57" stop-opacity="0"/>
<stop offset="0.426326" stop-color="#03083D" stop-opacity="0.5"/>
<stop offset="0.566672" stop-color="#020630" stop-opacity="0.7"/>
<stop offset="0.791387" stop-color="#020526" stop-opacity="0.8"/>
</radialGradient>
<radialGradient id="paint11_radial_10114_1240" cx="0" cy="0" r="1" gradientUnits="userSpaceOnUse" gradientTransform="translate(102.726 62.8608) rotate(57.7531) scale(5.5339 5.27779)">
<stop offset="0.115" stop-color="#571505" stop-opacity="0"/>
<stop offset="0.791387" stop-color="#260902"/>
</radialGradient>
<radialGradient id="paint12_radial_10114_1240" cx="0" cy="0" r="1" gradientUnits="userSpaceOnUse" gradientTransform="translate(110.022 58.333) rotate(57.7531) scale(5.5339 5.27779)">
<stop offset="0.115" stop-color="#571505" stop-opacity="0"/>
<stop offset="0.791387" stop-color="#260902"/>
</radialGradient>
<linearGradient id="paint13_linear_10114_1240" x1="99.8424" y1="56.6617" x2="107.505" y2="57.7872" gradientUnits="userSpaceOnUse">
<stop stop-color="#CEFFBA"/>
<stop offset="1" stop-color="#1C0094"/>
</linearGradient>
<radialGradient id="paint14_radial_10114_1240" cx="0" cy="0" r="1" gradientTransform="matrix(0.25141 8.98385 -3.72288 3.36305 103.992 59.9327)" gradientUnits="userSpaceOnUse">
<stop offset="0.115" stop-color="#050C57" stop-opacity="0"/>
<stop offset="0.426326" stop-color="#03083D" stop-opacity="0.5"/>
<stop offset="0.566672" stop-color="#020630" stop-opacity="0.7"/>
<stop offset="0.791387" stop-color="#020526" stop-opacity="0.8"/>
</radialGradient>
<linearGradient id="paint15_linear_10114_1240" x1="106.984" y1="52.5421" x2="114.646" y2="53.6675" gradientUnits="userSpaceOnUse">
<stop stop-color="#CEFFBA"/>
<stop offset="1" stop-color="#1C0094"/>
</linearGradient>
<radialGradient id="paint16_radial_10114_1240" cx="0" cy="0" r="1" gradientTransform="matrix(0.25141 8.98385 -3.72288 3.36305 111.133 55.813)" gradientUnits="userSpaceOnUse">
<stop offset="0.115" stop-color="#050C57" stop-opacity="0"/>
<stop offset="0.426326" stop-color="#03083D" stop-opacity="0.5"/>
<stop offset="0.566672" stop-color="#020630" stop-opacity="0.7"/>
<stop offset="0.791387" stop-color="#020526" stop-opacity="0.8"/>
</radialGradient>
<linearGradient id="paint17_linear_10114_1240" x1="136.76" y1="83.4012" x2="187.878" y2="122.592" gradientUnits="userSpaceOnUse">
<stop stop-color="white"/>
<stop offset="1" stop-color="#8583CE"/>
</linearGradient>
<radialGradient id="paint18_radial_10114_1240" cx="0" cy="0" r="1" gradientUnits="userSpaceOnUse" gradientTransform="translate(155.016 96.3025) rotate(84.2894) scale(20.7941 14.0726)">
<stop offset="0.115" stop-color="#687AB1" stop-opacity="0"/>
<stop offset="0.645312" stop-color="#4F64A0" stop-opacity="0.7"/>
<stop offset="1" stop-color="#4B5F9A" stop-opacity="0.8"/>
</radialGradient>
<linearGradient id="paint19_linear_10114_1240" x1="72.3783" y1="86.599" x2="123.254" y2="154.016" gradientUnits="userSpaceOnUse">
<stop stop-color="white"/>
<stop offset="1" stop-color="#8583CE"/>
</linearGradient>
<radialGradient id="paint20_radial_10114_1240" cx="0" cy="0" r="1" gradientTransform="matrix(11.5332 22.1887 -22.3791 15.5851 95.9577 97.9844)" gradientUnits="userSpaceOnUse">
<stop offset="0.115" stop-color="#687AB1" stop-opacity="0"/>
<stop offset="0.645312" stop-color="#4F64A0" stop-opacity="0.7"/>
<stop offset="1" stop-color="#4B5F9A" stop-opacity="0.8"/>
</radialGradient>
<linearGradient id="paint21_linear_10114_1240" x1="12.1767" y1="56.0614" x2="145.224" y2="168.832" gradientUnits="userSpaceOnUse">
<stop stop-color="white"/>
<stop offset="1" stop-color="#8583CE"/>
</linearGradient>
<radialGradient id="paint22_radial_10114_1240" cx="0" cy="0" r="1" gradientUnits="userSpaceOnUse" gradientTransform="translate(132.987 83.7403) rotate(-13.8287) scale(40.7369 13.2375)">
<stop stop-color="white"/>
<stop offset="0.91058" stop-color="white" stop-opacity="0"/>
</radialGradient>
<radialGradient id="paint23_radial_10114_1240" cx="0" cy="0" r="1" gradientUnits="userSpaceOnUse" gradientTransform="translate(116.921 70.5955) rotate(80.9658) scale(40.4198 95.1651)">
<stop offset="0.115" stop-color="#687AB1" stop-opacity="0"/>
<stop offset="0.426326" stop-color="#556AA8" stop-opacity="0.5"/>
<stop offset="0.566672" stop-color="#4F64A0" stop-opacity="0.7"/>
<stop offset="0.791387" stop-color="#14297E" stop-opacity="0.8"/>
</radialGradient>
<radialGradient id="paint24_radial_10114_1240" cx="0" cy="0" r="1" gradientUnits="userSpaceOnUse" gradientTransform="translate(145.32 68.1704) rotate(90) scale(11.5625 42.3499)">
<stop offset="0.2" stop-color="#F7E4C9"/>
<stop offset="0.635294" stop-color="#8B6E3E"/>
</radialGradient>
<radialGradient id="paint25_radial_10114_1240" cx="0" cy="0" r="1" gradientUnits="userSpaceOnUse" gradientTransform="translate(108.411 78.5714) rotate(57.7531) scale(5.7625 5.49581)">
<stop offset="0.115" stop-color="#571505" stop-opacity="0"/>
<stop offset="0.791387" stop-color="#260902"/>
</radialGradient>
<linearGradient id="paint26_linear_10114_1240" x1="105.692" y1="72.2579" x2="113.672" y2="73.4299" gradientUnits="userSpaceOnUse">
<stop stop-color="#CEFFBA"/>
<stop offset="1" stop-color="#1C0094"/>
</linearGradient>
<radialGradient id="paint27_radial_10114_1240" cx="0" cy="0" r="1" gradientTransform="matrix(0.261796 9.35497 -3.87667 3.50197 110.013 75.664)" gradientUnits="userSpaceOnUse">
<stop offset="0.115" stop-color="#050C57" stop-opacity="0"/>
<stop offset="0.426326" stop-color="#03083D" stop-opacity="0.5"/>
<stop offset="0.566672" stop-color="#020630" stop-opacity="0.7"/>
<stop offset="0.791387" stop-color="#020526" stop-opacity="0.8"/>
</radialGradient>
<radialGradient id="paint28_radial_10114_1240" cx="0" cy="0" r="1" gradientUnits="userSpaceOnUse" gradientTransform="translate(114.871 73.5368) rotate(57.7531) scale(5.7625 5.49581)">
<stop offset="0.115" stop-color="#571505" stop-opacity="0"/>
<stop offset="0.791387" stop-color="#260902"/>
</radialGradient>
<radialGradient id="paint29_radial_10114_1240" cx="0" cy="0" r="1" gradientUnits="userSpaceOnUse" gradientTransform="translate(122.469 68.82) rotate(57.7531) scale(5.7625 5.49581)">
<stop offset="0.115" stop-color="#571505" stop-opacity="0"/>
<stop offset="0.791387" stop-color="#260902"/>
</radialGradient>
<linearGradient id="paint30_linear_10114_1240" x1="111.869" y1="67.0792" x2="119.848" y2="68.2511" gradientUnits="userSpaceOnUse">
<stop stop-color="#CEFFBA"/>
<stop offset="1" stop-color="#1C0094"/>
</linearGradient>
<radialGradient id="paint31_radial_10114_1240" cx="0" cy="0" r="1" gradientTransform="matrix(0.261796 9.35497 -3.87667 3.50197 116.189 70.4853)" gradientUnits="userSpaceOnUse">
<stop offset="0.115" stop-color="#050C57" stop-opacity="0"/>
<stop offset="0.426326" stop-color="#03083D" stop-opacity="0.5"/>
<stop offset="0.566672" stop-color="#020630" stop-opacity="0.7"/>
<stop offset="0.791387" stop-color="#020526" stop-opacity="0.8"/>
</radialGradient>
<linearGradient id="paint32_linear_10114_1240" x1="119.305" y1="62.7906" x2="127.284" y2="63.9626" gradientUnits="userSpaceOnUse">
<stop stop-color="#CEFFBA"/>
<stop offset="1" stop-color="#1C0094"/>
</linearGradient>
<radialGradient id="paint33_radial_10114_1240" cx="0" cy="0" r="1" gradientTransform="matrix(0.261796 9.35497 -3.87667 3.50197 123.625 66.1967)" gradientUnits="userSpaceOnUse">
<stop offset="0.115" stop-color="#050C57" stop-opacity="0"/>
<stop offset="0.426326" stop-color="#03083D" stop-opacity="0.5"/>
<stop offset="0.566672" stop-color="#020630" stop-opacity="0.7"/>
<stop offset="0.791387" stop-color="#020526" stop-opacity="0.8"/>
</radialGradient>
<linearGradient id="paint34_linear_10114_1240" x1="25.8925" y1="76.8848" x2="45.1659" y2="85.3267" gradientUnits="userSpaceOnUse">
<stop stop-color="#3A6C71"/>
<stop offset="0.772185" stop-color="#7C8E9B"/>
</linearGradient>
<radialGradient id="paint35_radial_10114_1240" cx="0" cy="0" r="1" gradientUnits="userSpaceOnUse" gradientTransform="translate(43.2277 71.2363) rotate(118.228) scale(48.5602 3.99627)">
<stop stop-color="white"/>
<stop offset="0.795788" stop-color="white" stop-opacity="0"/>
</radialGradient>
<radialGradient id="paint36_radial_10114_1240" cx="0" cy="0" r="1" gradientUnits="userSpaceOnUse" gradientTransform="translate(33.921 83.4107) rotate(-151.772) scale(9.67864 3.61534)">
<stop offset="0.293499" stop-color="#486568"/>
<stop offset="1" stop-color="#486568" stop-opacity="0"/>
</radialGradient>
<linearGradient id="paint37_linear_10114_1240" x1="33.6889" y1="51.2406" x2="62.9999" y2="63.8729" gradientUnits="userSpaceOnUse">
<stop stop-color="#3A6C71"/>
<stop offset="0.772185" stop-color="#7C8E9B"/>
</linearGradient>
<radialGradient id="paint38_radial_10114_1240" cx="0" cy="0" r="1" gradientUnits="userSpaceOnUse" gradientTransform="translate(59.3421 43.8893) rotate(118.228) scale(68.5895 6.06493)">
<stop stop-color="white"/>
<stop offset="0.709063" stop-color="white" stop-opacity="0"/>
</radialGradient>
<radialGradient id="paint39_radial_10114_1240" cx="0" cy="0" r="1" gradientUnits="userSpaceOnUse" gradientTransform="translate(56.0768 42.1364) rotate(-151.772) scale(14.224 4.94495)">
<stop offset="0.293499" stop-color="#486568"/>
<stop offset="1" stop-color="#486568" stop-opacity="0"/>
</radialGradient>
<radialGradient id="paint40_radial_10114_1240" cx="0" cy="0" r="1" gradientTransform="matrix(-25.7598 47.5344 -38.8367 -20.9634 49.3427 31.8927)" gradientUnits="userSpaceOnUse">
<stop offset="0.0903226" stop-color="#5C808C"/>
<stop offset="1" stop-color="#C0C0C0" stop-opacity="0"/>
</radialGradient>
<radialGradient id="paint41_radial_10114_1240" cx="0" cy="0" r="1" gradientUnits="userSpaceOnUse" gradientTransform="translate(63.3539 26.1066) rotate(-151.772) scale(31.2802 17.7333)">
<stop offset="0.763441" stop-color="#6F7A7E" stop-opacity="0"/>
<stop offset="0.96875" stop-color="#6F7A7E"/>
</radialGradient>
<linearGradient id="paint42_linear_10114_1240" x1="69.9761" y1="31.6022" x2="77.4327" y2="34.8132" gradientUnits="userSpaceOnUse">
<stop offset="0.598" stop-color="#E8E8E8" stop-opacity="0"/>
<stop offset="0.860024" stop-color="#E8E8E8"/>
</linearGradient>
<linearGradient id="paint43_linear_10114_1240" x1="64.6867" y1="42.8097" x2="66.4454" y2="48.2035" gradientUnits="userSpaceOnUse">
<stop offset="0.598" stop-color="#E8E8E8" stop-opacity="0"/>
<stop offset="0.860024" stop-color="#E8E8E8"/>
</linearGradient>
<radialGradient id="paint44_radial_10114_1240" cx="0" cy="0" r="1" gradientUnits="userSpaceOnUse" gradientTransform="translate(61.5387 31.9708) rotate(-151.772) scale(33.3086 18.8833)">
<stop offset="0.791667" stop-color="#E8E8E8" stop-opacity="0"/>
<stop offset="0.919872" stop-color="#E8E8E8"/>
</radialGradient>
<radialGradient id="paint45_radial_10114_1240" cx="0" cy="0" r="1" gradientTransform="matrix(13.4517 6.16099 -10.7253 25.3994 64.1056 19.8087)" gradientUnits="userSpaceOnUse">
<stop stop-color="white" stop-opacity="0.77"/>
<stop offset="0.7" stop-color="white" stop-opacity="0.1"/>
</radialGradient>
<radialGradient id="paint46_radial_10114_1240" cx="0" cy="0" r="1" gradientTransform="matrix(-32.3685 59.8169 -40.5687 -21.9199 48.0311 33.2518)" gradientUnits="userSpaceOnUse">
<stop offset="0.0903226" stop-color="#15191C"/>
<stop offset="1" stop-color="#646464" stop-opacity="0"/>
</radialGradient>
<radialGradient id="paint47_radial_10114_1240" cx="0" cy="0" r="1" gradientTransform="matrix(-28.7965 -15.4565 10.5524 -19.6545 63.8536 25.0043)" gradientUnits="userSpaceOnUse">
<stop offset="0.763441" stop-color="#1A1B1B" stop-opacity="0"/>
<stop offset="0.96875" stop-color="#1A1B1B"/>
</radialGradient>
<linearGradient id="paint48_linear_10114_1240" x1="70.6003" y1="31.0669" x2="78.3504" y2="34.5391" gradientUnits="userSpaceOnUse">
<stop offset="0.598" stop-color="#8C8C8C" stop-opacity="0"/>
<stop offset="0.860024" stop-color="#8C8C8C"/>
</linearGradient>
<linearGradient id="paint49_linear_10114_1240" x1="63.8253" y1="45.1006" x2="66.3676" y2="50.998" gradientUnits="userSpaceOnUse">
<stop offset="0.598" stop-color="#8C8C8C" stop-opacity="0"/>
<stop offset="0.860024" stop-color="#8C8C8C"/>
</linearGradient>
<radialGradient id="paint50_radial_10114_1240" cx="0" cy="0" r="1" gradientTransform="matrix(-30.6639 -16.4588 11.2367 -20.929 61.3492 32.2627)" gradientUnits="userSpaceOnUse">
<stop offset="0.791667" stop-color="#8C8C8C" stop-opacity="0"/>
<stop offset="0.919872" stop-color="#8C8C8C"/>
</radialGradient>
<radialGradient id="paint51_radial_10114_1240" cx="0" cy="0" r="1" gradientTransform="matrix(14.1493 6.26103 -13.9753 31.6923 65.2344 17.3156)" gradientUnits="userSpaceOnUse">
<stop stop-color="#ADADAD" stop-opacity="0.77"/>
<stop offset="0.7" stop-color="#ADADAD" stop-opacity="0.1"/>
</radialGradient>
<radialGradient id="paint52_radial_10114_1240" cx="0" cy="0" r="1" gradientUnits="userSpaceOnUse" gradientTransform="translate(197.329 42.491) rotate(49.8133) scale(29.7884 32.1666)">
<stop stop-color="#3CDCFF"/>
<stop offset="1" stop-color="#21A4AC"/>
</radialGradient>
<radialGradient id="paint53_radial_10114_1240" cx="0" cy="0" r="1" gradientUnits="userSpaceOnUse" gradientTransform="translate(209.143 36.5109) rotate(91.4844) scale(38.1366 38.1366)">
<stop offset="0.7186" stop-color="#0A7492" stop-opacity="0"/>
<stop offset="0.946093" stop-color="#0A7492" stop-opacity="0.7"/>
</radialGradient>
<radialGradient id="paint54_radial_10114_1240" cx="0" cy="0" r="1" gradientUnits="userSpaceOnUse" gradientTransform="translate(204.262 54.0958) rotate(-4.66768) scale(23.398 30.856)">
<stop offset="0.741249" stop-color="#0A7492" stop-opacity="0"/>
<stop offset="1" stop-color="#0A7492" stop-opacity="0.7"/>
</radialGradient>
<radialGradient id="paint55_radial_10114_1240" cx="0" cy="0" r="1" gradientUnits="userSpaceOnUse" gradientTransform="translate(201.232 29.2492) rotate(83.4502) scale(23.4641 32.8836)">
<stop stop-color="#49E4EE"/>
<stop offset="1" stop-color="#49E4EE" stop-opacity="0"/>
</radialGradient>
<linearGradient id="paint56_linear_10114_1240" x1="202.959" y1="82.8731" x2="203.575" y2="80.7645" gradientUnits="userSpaceOnUse">
<stop stop-color="#266998"/>
<stop offset="1" stop-color="#266998" stop-opacity="0"/>
</linearGradient>
<radialGradient id="paint57_radial_10114_1240" cx="0" cy="0" r="1" gradientUnits="userSpaceOnUse" gradientTransform="translate(202.085 79.9565) rotate(104.505) scale(1.06388 4.36907)">
<stop stop-color="#6EC6FB"/>
<stop offset="0.702059" stop-color="#6EC6FB" stop-opacity="0"/>
</radialGradient>
<radialGradient id="paint58_radial_10114_1240" cx="0" cy="0" r="1" gradientUnits="userSpaceOnUse" gradientTransform="translate(207.549 38.7788) rotate(140.205) scale(7.76195 17.0141)">
<stop offset="0.120792" stop-color="#FFFBFC" stop-opacity="0.7"/>
<stop offset="1" stop-color="#FFFBFC" stop-opacity="0"/>
</radialGradient>
<radialGradient id="paint59_radial_10114_1240" cx="0" cy="0" r="1" gradientUnits="userSpaceOnUse" gradientTransform="translate(153.041 19.5404) rotate(28.2189) scale(32.1106 34.6741)">
<stop stop-color="#FFD43C"/>
<stop offset="1" stop-color="#F19E21"/>
</radialGradient>
<radialGradient id="paint60_radial_10114_1240" cx="0" cy="0" r="1" gradientUnits="userSpaceOnUse" gradientTransform="translate(162.51 8.85937) rotate(69.8899) scale(41.1096)">
<stop offset="0.7186" stop-color="#BF8A00" stop-opacity="0"/>
<stop offset="0.946093" stop-color="#BF8A00" stop-opacity="0.69"/>
</radialGradient>
<radialGradient id="paint61_radial_10114_1240" cx="0" cy="0" r="1" gradientUnits="userSpaceOnUse" gradientTransform="translate(164.594 28.4214) rotate(-26.2621) scale(25.2219 33.2614)">
<stop offset="0.741249" stop-color="#BF8A00" stop-opacity="0"/>
<stop offset="1" stop-color="#BF8A00" stop-opacity="0.55"/>
</radialGradient>
<radialGradient id="paint62_radial_10114_1240" cx="0" cy="0" r="1" gradientUnits="userSpaceOnUse" gradientTransform="translate(151.7 4.71971) rotate(61.8558) scale(25.2933 35.447)">
<stop stop-color="#FFEB39"/>
<stop offset="1" stop-color="#FFEB39" stop-opacity="0"/>
</radialGradient>
<linearGradient id="paint63_linear_10114_1240" x1="174.703" y1="57.7802" x2="174.484" y2="55.4224" gradientUnits="userSpaceOnUse">
<stop stop-color="#C68D00"/>
<stop offset="1" stop-color="#C68D00" stop-opacity="0"/>
</linearGradient>
<radialGradient id="paint64_radial_10114_1240" cx="0" cy="0" r="1" gradientUnits="userSpaceOnUse" gradientTransform="translate(172.67 55.2038) rotate(82.9109) scale(1.14681 4.70966)">
<stop stop-color="#FBE46E"/>
<stop offset="0.702059" stop-color="#FBE46E" stop-opacity="0"/>
</radialGradient>
<radialGradient id="paint65_radial_10114_1240" cx="0" cy="0" r="1" gradientUnits="userSpaceOnUse" gradientTransform="translate(161.812 11.7664) rotate(118.611) scale(8.36703 18.3405)">
<stop offset="0.120792" stop-color="#FFFBFC" stop-opacity="0.6"/>
<stop offset="1" stop-color="#FFFBFC" stop-opacity="0"/>
</radialGradient>
</defs>
</svg>
