<svg viewBox="0 0 240 120" fill="none" xmlns="http://www.w3.org/2000/svg">
<path d="M131.711 58.7357C135.133 59.2789 141.945 61.5384 141.815 66.2313L134.645 75.8453L131.711 58.7357Z" fill="url(#paint0_radial_1484_28907)"/>
<path d="M138.823 94.2036C152.911 84.0778 130.124 78.6963 130.125 60.8591H99.1645L101.276 78.7646C101.275 115.404 127.552 102.304 138.823 94.2036Z" fill="url(#paint1_radial_1484_28907)"/>
<path fill-rule="evenodd" clip-rule="evenodd" d="M143.393 120H80.1599C90.8407 102.495 102.32 86.1774 102.32 86.1774C113.608 101.449 129.987 100.011 136.765 97.3823C137.082 98.3122 137.401 99.2349 137.718 100.155C139.888 106.442 142.01 112.591 143.393 120Z" fill="url(#paint2_radial_1484_28907)"/>
<path fill-rule="evenodd" clip-rule="evenodd" d="M143.393 120H80.1599C90.8407 102.495 102.32 86.1774 102.32 86.1774C113.608 101.449 129.987 100.011 136.765 97.3823C137.082 98.3122 137.401 99.2349 137.718 100.155C139.888 106.442 142.01 112.591 143.393 120Z" fill="url(#paint3_radial_1484_28907)"/>
<path fill-rule="evenodd" clip-rule="evenodd" d="M184.615 102.835V120H132.495C132.29 118.071 132.089 116.151 131.891 114.264C130.615 102.101 129.482 91.2972 128.488 87.9174C126.395 80.8007 130.391 76.9658 134.636 72.8911C137.245 70.3869 139.949 67.792 141.391 64.2892C142.068 73.1718 156.65 80.4268 168.49 86.3175C176.017 90.0626 182.436 93.2562 183.468 95.966C184.033 97.45 184.387 99.8421 184.615 102.835Z" fill="#E6B90F"/>
<path fill-rule="evenodd" clip-rule="evenodd" d="M184.615 102.835V120H132.495C132.29 118.071 132.089 116.151 131.891 114.264C130.615 102.101 129.482 91.2972 128.488 87.9174C126.395 80.8007 130.391 76.9658 134.636 72.8911C137.245 70.3869 139.949 67.792 141.391 64.2892C142.068 73.1718 156.65 80.4268 168.49 86.3175C176.017 90.0626 182.436 93.2562 183.468 95.966C184.033 97.45 184.387 99.8421 184.615 102.835Z" fill="url(#paint4_radial_1484_28907)"/>
<path fill-rule="evenodd" clip-rule="evenodd" d="M184.615 102.835V120H132.495C132.29 118.071 132.089 116.151 131.891 114.264C130.615 102.101 129.482 91.2972 128.488 87.9174C126.395 80.8007 130.391 76.9658 134.636 72.8911C137.245 70.3869 139.949 67.792 141.391 64.2892C142.068 73.1718 156.65 80.4268 168.49 86.3175C176.017 90.0626 182.436 93.2562 183.468 95.966C184.033 97.45 184.387 99.8421 184.615 102.835Z" fill="url(#paint5_radial_1484_28907)"/>
<path fill-rule="evenodd" clip-rule="evenodd" d="M89.9484 120H53.1547C54.4025 108.96 54.9249 98.6417 55.3741 89.7688C56.1723 74.001 56.7396 62.7965 60.7367 60.2101C68.2493 55.3491 95.7639 58.1847 106.628 60.2101L109.9 86.7249C105.405 94.4796 97.9759 107.008 89.9484 120Z" fill="#E6B90F"/>
<path fill-rule="evenodd" clip-rule="evenodd" d="M89.9484 120H53.1547C54.4025 108.96 54.9249 98.6417 55.3741 89.7688C56.1723 74.001 56.7396 62.7965 60.7367 60.2101C68.2493 55.3491 95.7639 58.1847 106.628 60.2101L109.9 86.7249C105.405 94.4796 97.9759 107.008 89.9484 120Z" fill="url(#paint6_radial_1484_28907)"/>
<path fill-rule="evenodd" clip-rule="evenodd" d="M89.9484 120H53.1547C54.4025 108.96 54.9249 98.6417 55.3741 89.7688C56.1723 74.001 56.7396 62.7965 60.7367 60.2101C68.2493 55.3491 95.7639 58.1847 106.628 60.2101L109.9 86.7249C105.405 94.4796 97.9759 107.008 89.9484 120Z" fill="url(#paint7_radial_1484_28907)"/>
<path fill-rule="evenodd" clip-rule="evenodd" d="M89.9484 120H53.1547C54.4025 108.96 54.9249 98.6417 55.3741 89.7688C56.1723 74.001 56.7396 62.7965 60.7367 60.2101C68.2493 55.3491 95.7639 58.1847 106.628 60.2101L109.9 86.7249C105.405 94.4796 97.9759 107.008 89.9484 120Z" fill="url(#paint8_radial_1484_28907)"/>
<path d="M108.993 115.592H97.1445L66.6636 92.7309L75.53 82.193L105.563 103.933L108.993 115.592Z" fill="#E6B90F"/>
<path d="M108.993 115.592H97.1445L66.6636 92.7309L75.53 82.193L105.563 103.933L108.993 115.592Z" fill="url(#paint9_radial_1484_28907)"/>
<path fill-rule="evenodd" clip-rule="evenodd" d="M59.8203 120H24.8409C27.8805 117.448 31.8771 114.899 34.2161 113.549C34.4993 110.434 35.9153 103.609 39.3138 101.23C40.7409 100.231 41.4968 97.2182 42.5479 93.0297C44.6256 84.7499 47.8565 71.8743 59.7049 60.8722C66.5021 65.9699 65.9354 93.0165 64.8024 105.903C63.6616 109.636 61.898 114.816 59.8203 120Z" fill="#E6B90F"/>
<path fill-rule="evenodd" clip-rule="evenodd" d="M59.8203 120H24.8409C27.8805 117.448 31.8771 114.899 34.2161 113.549C34.4993 110.434 35.9153 103.609 39.3138 101.23C40.7409 100.231 41.4968 97.2182 42.5479 93.0297C44.6256 84.7499 47.8565 71.8743 59.7049 60.8722C66.5021 65.9699 65.9354 93.0165 64.8024 105.903C63.6616 109.636 61.898 114.816 59.8203 120Z" fill="url(#paint10_radial_1484_28907)"/>
<path fill-rule="evenodd" clip-rule="evenodd" d="M59.8203 120H24.8409C27.8805 117.448 31.8771 114.899 34.2161 113.549C34.4993 110.434 35.9153 103.609 39.3138 101.23C40.7409 100.231 41.4968 97.2182 42.5479 93.0297C44.6256 84.7499 47.8565 71.8743 59.7049 60.8722C66.5021 65.9699 65.9354 93.0165 64.8024 105.903C63.6616 109.636 61.898 114.816 59.8203 120Z" fill="url(#paint11_radial_1484_28907)"/>
<path fill-rule="evenodd" clip-rule="evenodd" d="M59.8203 120H24.8409C27.8805 117.448 31.8771 114.899 34.2161 113.549C34.4993 110.434 35.9153 103.609 39.3138 101.23C40.7409 100.231 41.4968 97.2182 42.5479 93.0297C44.6256 84.7499 47.8565 71.8743 59.7049 60.8722C66.5021 65.9699 65.9354 93.0165 64.8024 105.903C63.6616 109.636 61.898 114.816 59.8203 120Z" fill="url(#paint12_radial_1484_28907)"/>
<path fill-rule="evenodd" clip-rule="evenodd" d="M142.962 120C142.926 118.901 142.843 117.688 142.715 116.471C142.535 114.767 142.261 113.019 141.891 111.54C141.706 110.801 141.491 110.106 141.24 109.506C140.997 108.924 140.684 108.343 140.265 107.91C139.401 107.017 138.169 106.767 137.078 106.756C135.955 106.745 134.738 106.982 133.624 107.314C132.503 107.649 131.421 108.101 130.552 108.567C130.118 108.8 129.718 109.046 129.385 109.296C129.078 109.525 128.726 109.832 128.5 110.208C128.341 110.471 128.265 110.76 128.222 110.966C128.173 111.196 128.141 111.451 128.119 111.712C128.075 112.236 128.065 112.875 128.079 113.573C128.107 114.975 128.236 116.709 128.432 118.429C128.493 118.954 128.559 119.481 128.632 120H131.165C131.077 119.396 130.996 118.772 130.924 118.144C130.734 116.48 130.612 114.827 130.586 113.523C130.573 112.869 130.584 112.325 130.618 111.923C130.635 111.721 130.656 111.576 130.676 111.481L130.676 111.479C130.713 111.444 130.778 111.385 130.888 111.303C131.093 111.149 131.379 110.969 131.737 110.777C132.451 110.394 133.376 110.006 134.342 109.717C135.316 109.426 136.268 109.256 137.052 109.264C137.869 109.272 138.283 109.467 138.462 109.653C138.565 109.759 138.732 110.008 138.926 110.473C139.113 110.919 139.292 111.485 139.458 112.15C139.791 113.477 140.048 115.101 140.221 116.735C140.341 117.868 140.418 118.99 140.453 120H142.962Z" fill="url(#paint13_linear_1484_28907)"/>
<path fill-rule="evenodd" clip-rule="evenodd" d="M142.962 120C142.926 118.901 142.843 117.688 142.715 116.471C142.535 114.767 142.261 113.019 141.891 111.54C141.706 110.801 141.491 110.106 141.24 109.506C140.997 108.924 140.684 108.343 140.265 107.91C139.401 107.017 138.169 106.767 137.078 106.756C135.955 106.745 134.738 106.982 133.624 107.314C132.503 107.649 131.421 108.101 130.552 108.567C130.118 108.8 129.718 109.046 129.385 109.296C129.078 109.525 128.726 109.832 128.5 110.208C128.341 110.471 128.265 110.76 128.222 110.966C128.173 111.196 128.141 111.451 128.119 111.712C128.075 112.236 128.065 112.875 128.079 113.573C128.107 114.975 128.236 116.709 128.432 118.429C128.493 118.954 128.559 119.481 128.632 120H131.165C131.077 119.396 130.996 118.772 130.924 118.144C130.734 116.48 130.612 114.827 130.586 113.523C130.573 112.869 130.584 112.325 130.618 111.923C130.635 111.721 130.656 111.576 130.676 111.481L130.676 111.479C130.713 111.444 130.778 111.385 130.888 111.303C131.093 111.149 131.379 110.969 131.737 110.777C132.451 110.394 133.376 110.006 134.342 109.717C135.316 109.426 136.268 109.256 137.052 109.264C137.869 109.272 138.283 109.467 138.462 109.653C138.565 109.759 138.732 110.008 138.926 110.473C139.113 110.919 139.292 111.485 139.458 112.15C139.791 113.477 140.048 115.101 140.221 116.735C140.341 117.868 140.418 118.99 140.453 120H142.962Z" fill="url(#paint14_radial_1484_28907)"/>
<path fill-rule="evenodd" clip-rule="evenodd" d="M142.962 120C142.926 118.901 142.843 117.688 142.715 116.471C142.535 114.767 142.261 113.019 141.891 111.54C141.706 110.801 141.491 110.106 141.24 109.506C140.997 108.924 140.684 108.343 140.265 107.91C139.401 107.017 138.169 106.767 137.078 106.756C135.955 106.745 134.738 106.982 133.624 107.314C132.503 107.649 131.421 108.101 130.552 108.567C130.118 108.8 129.718 109.046 129.385 109.296C129.078 109.525 128.726 109.832 128.5 110.208C128.341 110.471 128.265 110.76 128.222 110.966C128.173 111.196 128.141 111.451 128.119 111.712C128.075 112.236 128.065 112.875 128.079 113.573C128.107 114.975 128.236 116.709 128.432 118.429C128.493 118.954 128.559 119.481 128.632 120H131.165C131.077 119.396 130.996 118.772 130.924 118.144C130.734 116.48 130.612 114.827 130.586 113.523C130.573 112.869 130.584 112.325 130.618 111.923C130.635 111.721 130.656 111.576 130.676 111.481L130.676 111.479C130.713 111.444 130.778 111.385 130.888 111.303C131.093 111.149 131.379 110.969 131.737 110.777C132.451 110.394 133.376 110.006 134.342 109.717C135.316 109.426 136.268 109.256 137.052 109.264C137.869 109.272 138.283 109.467 138.462 109.653C138.565 109.759 138.732 110.008 138.926 110.473C139.113 110.919 139.292 111.485 139.458 112.15C139.791 113.477 140.048 115.101 140.221 116.735C140.341 117.868 140.418 118.99 140.453 120H142.962Z" fill="url(#paint15_radial_1484_28907)"/>
<path fill-rule="evenodd" clip-rule="evenodd" d="M142.962 120C142.926 118.901 142.843 117.688 142.715 116.471C142.535 114.767 142.261 113.019 141.891 111.54C141.706 110.801 141.491 110.106 141.24 109.506C140.997 108.924 140.684 108.343 140.265 107.91C139.401 107.017 138.169 106.767 137.078 106.756C135.955 106.745 134.738 106.982 133.624 107.314C132.503 107.649 131.421 108.101 130.552 108.567C130.118 108.8 129.718 109.046 129.385 109.296C129.078 109.525 128.726 109.832 128.5 110.208C128.341 110.471 128.265 110.76 128.222 110.966C128.173 111.196 128.141 111.451 128.119 111.712C128.075 112.236 128.065 112.875 128.079 113.573C128.107 114.975 128.236 116.709 128.432 118.429C128.493 118.954 128.559 119.481 128.632 120H131.165C131.077 119.396 130.996 118.772 130.924 118.144C130.734 116.48 130.612 114.827 130.586 113.523C130.573 112.869 130.584 112.325 130.618 111.923C130.635 111.721 130.656 111.576 130.676 111.481L130.676 111.479C130.713 111.444 130.778 111.385 130.888 111.303C131.093 111.149 131.379 110.969 131.737 110.777C132.451 110.394 133.376 110.006 134.342 109.717C135.316 109.426 136.268 109.256 137.052 109.264C137.869 109.272 138.283 109.467 138.462 109.653C138.565 109.759 138.732 110.008 138.926 110.473C139.113 110.919 139.292 111.485 139.458 112.15C139.791 113.477 140.048 115.101 140.221 116.735C140.341 117.868 140.418 118.99 140.453 120H142.962Z" fill="url(#paint16_radial_1484_28907)"/>
<path d="M146.067 55.8277C146.661 50.8778 147.914 29.6991 139.004 15.2453C117.067 3.24219 106.658 6.56054 101.914 25.5341C100.726 30.2861 100.924 56.8177 101.914 59.7876C102.904 62.7576 113.398 81.5673 113.596 83.5473C113.794 85.5273 120.724 86.3192 121.516 85.1312C122.308 83.9433 141.514 72.0634 142.504 69.6875C143.494 67.3115 145.473 60.7776 146.067 55.8277Z" fill="url(#paint17_radial_1484_28907)"/>
<path d="M120.129 77.8053C125.772 77.8053 126.762 75.5283 126.267 72.2614C122.506 71.2384 114.685 69.8062 113.497 72.2614C112.012 75.3303 114.486 77.8053 120.129 77.8053Z" fill="url(#paint18_radial_1484_28907)"/>
<path d="M129.535 71.6671C129.04 70.1161 127.258 67.5487 122.902 66.1231C122.176 65.6281 119.794 64.6579 116.071 64.7371C112.349 64.8163 109.901 68.4661 109.142 70.281C110.462 71.04 114.25 72.6768 118.843 73.152C123.437 73.6272 127.786 72.0631 129.535 71.6671Z" fill="#52495E"/>
<path d="M136.563 48.6995C135.454 49.6499 129.435 51.2074 126.564 51.8674C127.917 52.4944 131.573 53.491 135.375 52.4614L136.563 53.7484C132.405 56.5203 126.564 55.0354 125.178 54.6394C123.792 54.2434 122.208 51.8674 123.198 51.8674C124.188 51.8674 128.445 47.2145 130.623 46.2245C132.801 45.2345 137.949 47.5115 136.563 48.6995Z" fill="#52495E"/>
<path d="M104.786 48.145C105.736 49.0954 110.893 50.653 113.353 51.313C112.193 51.94 109.061 52.9365 105.804 51.907L104.786 53.1939C108.348 55.9659 113.353 54.4809 114.54 54.0849C115.728 53.6889 117.085 51.313 116.236 51.313C115.388 51.313 111.741 46.66 109.875 45.6701C108.009 44.6801 103.599 46.957 104.786 48.145Z" fill="#52495E"/>
<path d="M141.858 32.0527C140.914 27.9404 140.126 24.5076 138.346 24.3459C136.368 24.166 133.859 26.3135 131.079 28.6932C127.737 31.5538 124.003 34.7498 120.328 34.6418C115.685 34.5052 112.643 30.2242 110.488 27.191C109.519 25.8265 108.728 24.7144 108.053 24.3459C107.182 23.8712 106.47 27.0011 105.587 30.8799C104.527 35.5405 103.22 41.2823 101.097 43.1516C101.077 35.6095 101.325 27.8914 101.915 25.5339C102.061 24.947 102.229 24.2363 102.418 23.436C103.76 17.757 107.017 12.3697 110.488 9.94009C114.448 7.16813 133.459 3.24515 141.177 9.94009C148.896 16.635 147.133 32.567 146.805 44.3877C144.05 41.6 142.865 36.4397 141.858 32.0527Z" fill="url(#paint19_radial_1484_28907)"/>
<path d="M119.14 67.1136C120.873 67.1631 121.251 66.2826 121.518 65.4801C121.792 64.6579 122.554 64.0446 124.188 64.6881C126.465 61.6687 120.524 63.7498 122.901 48.9475C125.871 42.8096 117.29 41.8832 118.001 48.0564C119.388 60.0847 115.74 58.6013 115.03 62.0152C114.535 64.3911 116.465 62.0647 116.766 65.1831C116.824 65.7825 117.407 67.0641 119.14 67.1136Z" fill="url(#paint20_radial_1484_28907)"/>
<path d="M119.14 67.1136C120.873 67.1631 121.251 66.2826 121.518 65.4801C121.792 64.6579 122.554 64.0446 124.188 64.6881C126.465 61.6687 120.524 63.7498 122.901 48.9475C125.871 42.8096 117.29 41.8832 118.001 48.0564C119.388 60.0847 115.74 58.6013 115.03 62.0152C114.535 64.3911 116.465 62.0647 116.766 65.1831C116.824 65.7825 117.407 67.0641 119.14 67.1136Z" fill="url(#paint21_radial_1484_28907)"/>
<path d="M149.436 41.4325C146.128 40.8716 144.747 46.5852 144.471 49.5122L144.931 58.2249C149.833 61.1847 153.571 42.1336 149.436 41.4325Z" fill="url(#paint22_radial_1484_28907)"/>
<path d="M81.9012 13.1404C81.9012 12.6532 81.4796 12.273 80.9949 12.3232L62.7437 14.7792C61.9062 14.8659 61.2698 15.5717 61.2698 16.4137V35.3695H65.9299V22.1207C65.9299 21.4892 66.4072 20.9599 67.0353 20.8948L77.2633 19.426V33.4278H81.9234C81.9234 26.6452 81.9012 19.9095 81.9012 13.1404Z" fill="url(#paint23_linear_1484_28907)"/>
<path d="M81.9128 33.2643C81.9128 37.0841 78.8163 40.1807 74.9965 40.1807C71.1767 40.1807 68.0802 37.0841 68.0802 33.2643C68.0802 29.4446 71.1767 26.348 74.9965 26.348C78.8163 26.348 81.9128 29.4446 81.9128 33.2643Z" fill="url(#paint24_radial_1484_28907)"/>
<path d="M81.9128 33.2643C81.9128 37.0841 78.8163 40.1807 74.9965 40.1807C71.1767 40.1807 68.0802 37.0841 68.0802 33.2643C68.0802 29.4446 71.1767 26.348 74.9965 26.348C78.8163 26.348 81.9128 29.4446 81.9128 33.2643Z" fill="url(#paint25_radial_1484_28907)"/>
<path d="M65.9191 35.207C65.9191 39.0267 62.8226 42.1233 59.0028 42.1233C55.183 42.1233 52.0865 39.0267 52.0865 35.207C52.0865 31.3872 55.183 28.2906 59.0028 28.2906C62.8226 28.2906 65.9191 31.3872 65.9191 35.207Z" fill="url(#paint26_radial_1484_28907)"/>
<path d="M65.9191 35.207C65.9191 39.0267 62.8226 42.1233 59.0028 42.1233C55.183 42.1233 52.0865 39.0267 52.0865 35.207C52.0865 31.3872 55.183 28.2906 59.0028 28.2906C62.8226 28.2906 65.9191 31.3872 65.9191 35.207Z" fill="url(#paint27_radial_1484_28907)"/>
<path fill-rule="evenodd" clip-rule="evenodd" d="M177.228 4.02447C177.585 3.57418 178.114 3.7867 178.456 4.69056C178.677 4.34718 179.393 4.14894 179.778 4.25276C180.153 4.53228 180.564 5.55406 181.011 6.66399L181.09 6.86154C181.347 7.49844 180.89 7.9801 180.444 8.45049C180.061 8.85467 179.686 9.25051 179.778 9.72935C179.926 10.4995 180.337 12.1387 180.564 13.0201C180.834 13.0236 181.081 13.0483 181.289 13.0967C182.244 16.1557 184.375 22.5106 185.266 23.4579C186.1 24.3441 187.277 27.8044 187.859 29.7415C189.5 29.3103 190.983 29.604 191.816 30.3237C191.987 28.7934 192.332 27.2938 192.982 26.2398C195.09 25.0864 198.351 25.683 199.147 26.2398C199.234 26.3008 199.318 26.3861 199.398 26.491C199.961 27.2252 200.361 28.9166 200.597 29.9148C200.635 30.0756 200.668 30.2184 200.698 30.3363C200.816 30.8099 200.866 32.3602 200.862 33.8752C200.858 35.414 200.798 36.9163 200.698 37.2169C200.68 37.2718 200.645 37.3536 200.598 37.4572L200.697 37.5859C201.122 38.1395 201.575 38.73 201.891 39.0066C202.178 39.2574 202.529 39.1209 202.923 38.9678C203.403 38.781 203.948 38.5694 204.516 39.0066C205.55 39.802 208.493 43.1429 208.573 43.9383C208.595 44.1586 208.605 44.8544 208.618 45.7624C208.651 48.1342 208.705 51.9539 209.05 52.5292C209.245 52.8547 209.574 53.2734 209.916 53.7091C210.409 54.3381 210.93 55.0024 211.118 55.4723C211.294 55.9105 212.409 59.391 213.442 62.6418C213.775 62.3437 214.215 62.1625 214.698 62.1625C215.739 62.1625 216.583 63.0065 216.583 64.0475C216.583 64.7405 216.209 65.3461 215.652 65.6737L215.478 68.1192C215.986 68.8213 216.448 69.5677 216.618 70.1364C216.679 70.3401 216.751 70.5554 216.824 70.777C217.263 72.1031 217.776 73.6525 216.618 74.262C216.123 74.5226 215.552 74.745 214.995 74.8942L213.494 95.962C216.497 102.316 220.366 110.269 222.736 115.092C222.404 115.068 222.138 115.305 223.731 116.443C224.484 116.981 225.622 117.132 226.801 117.289C228.742 117.548 230.794 117.822 231.414 119.857H218.112L218.468 117.439L216.618 117.795C215.539 115.981 214.016 113.393 212.446 110.67L211.781 120H210.145L211.098 108.321C208.813 104.311 206.664 100.404 205.877 98.5891C204.028 94.3212 194.923 79.5969 193.714 79.5258C192.824 79.4734 190.549 83.039 187.483 87.8443C186.381 89.5716 185.177 91.4593 183.898 93.3965C180.028 99.2577 172.564 112.104 169.316 117.795L168.035 117.083L167.324 119.004C165.356 119.62 160.751 120.483 158.077 119.004C158.134 117.24 160.993 115.044 162.416 114.167C166.328 106.959 174.266 92.4291 174.722 91.9738C175.269 91.4264 180.688 78.3043 184.139 68.3786C184.201 66.8273 184.246 64.4807 184.184 63.0696L183.993 63.1086C183.834 62.6048 183.5 60.8177 183.437 57.6996C183.399 55.862 183.485 54.0244 183.737 52.1035L183.645 52.0368C182.709 51.3548 181.079 50.1675 179.75 50.7895L179.754 50.805L179.593 50.8719C179.379 50.9983 179.174 51.1761 178.982 51.4156C178.972 51.33 178.961 51.2368 178.95 51.1365C177.959 51.54 176.666 52.0479 176.143 52.1888C175.285 52.4195 174.694 50.6016 175.584 50.1148C176.208 49.7737 177.793 49.1192 178.777 48.7267C178.754 48.1874 178.739 47.6051 178.737 46.9974C178.067 47.0918 177.399 47.1723 177.083 47.1723C176.367 47.1723 176.288 45.2633 177.083 45.0246C177.438 44.9181 178.123 44.7902 178.793 44.6794C178.828 44.0542 178.88 43.4252 178.954 42.8085C178.134 42.9324 177.157 43.0634 176.755 43.0634C176.039 43.0634 175.959 41.1543 176.755 40.9157C177.284 40.7568 178.548 40.5502 179.401 40.4242C179.716 39.3353 180.21 38.3907 181.061 37.6976C181.262 37.0199 181.488 36.3916 181.735 35.8102C181.14 34.082 180.389 31.4843 180.494 30.1186C180.621 28.4608 178.638 26.0728 177.63 25.086L176.516 14.2808C176.579 14.2104 176.655 14.1418 176.74 14.0754C176.809 13.4295 176.956 11.6017 176.715 11.0245C176.629 10.8178 176.397 10.5934 176.117 10.3223C175.495 9.71985 174.635 8.88734 174.607 7.50909L174.607 7.47554C174.308 6.84556 173.905 5.83464 174.151 5.52819C174.341 5.28994 174.589 5.26599 174.822 5.46178C174.742 5.12174 174.73 4.83225 174.848 4.68456C175.121 4.34433 175.494 4.38287 175.81 4.81208C175.765 4.52558 175.779 4.28908 175.886 4.15497C176.249 3.70213 176.767 3.8369 177.158 4.5808C177.123 4.33865 177.137 4.13902 177.228 4.02447ZM212.312 93.4473L213.81 75.0916C213.334 75.1119 212.937 75.0361 212.706 74.8311C212.246 74.4218 212.448 72.9823 212.597 71.915C212.656 71.4984 212.706 71.1385 212.706 70.9188C212.706 70.4005 211.958 69.1959 211.391 68.3797C211.217 68.6981 211.118 69.041 211.118 69.3926C209.846 69.3926 208.573 67.9608 208.096 67.2449L204.118 59.6086C204.118 58.4685 204.023 55.9178 203.641 54.836C203.259 53.7542 202.315 51.8398 201.891 51.0178C202.209 53.4572 202.75 58.5905 202.368 59.6086C202.148 60.1956 202.552 62.0795 202.964 64.0018C203.267 65.4141 203.574 66.8472 203.641 67.8017C203.59 67.7148 203.423 67.5378 203.196 67.299C203.036 67.1296 202.846 66.9292 202.648 66.708C202.873 67.3608 203.077 67.9662 203.251 68.4836C203.407 68.9462 203.539 69.3384 203.641 69.6311H203.602C205.647 75.8406 208.391 84.1163 209.292 86.6389C209.665 87.6827 210.805 90.2201 212.312 93.4473ZM214.482 66.8524L214.503 66.6056C214.428 66.6066 214.354 66.6102 214.28 66.6161C214.344 66.6899 214.412 66.769 214.482 66.8524ZM214.543 66.1167L214.558 65.9274C214.532 65.9255 214.506 65.9231 214.48 65.9201L214.543 66.1167ZM178.713 5.43842L178.695 5.37326C178.722 5.39434 178.752 5.41555 178.783 5.43686L178.713 5.43842Z" fill="url(#paint28_linear_1484_28907)"/>
<path d="M36.1178 53.2595C36.5754 53.2121 36.9231 52.8265 36.9231 52.3665L36.9231 47.0032C36.9231 46.4708 36.4624 46.0554 35.9328 46.1102L25.5296 47.1876C24.6144 47.2824 23.9189 48.0536 23.9189 48.9736L23.9189 69.6874L29.0112 69.6874L29.0112 55.2099C29.0112 54.5199 29.5328 53.9415 30.2192 53.8704L36.1178 53.2595Z" fill="url(#paint29_linear_1484_28907)"/>
<path d="M28.9998 69.5088C28.9998 73.6828 25.6161 77.0665 21.4421 77.0665C17.2681 77.0665 13.8843 73.6828 13.8843 69.5088C13.8843 65.3348 17.2681 61.951 21.4421 61.951C25.6161 61.951 28.9998 65.3348 28.9998 69.5088Z" fill="url(#paint30_radial_1484_28907)"/>
<path d="M28.9998 69.5088C28.9998 73.6828 25.6161 77.0665 21.4421 77.0665C17.2681 77.0665 13.8843 73.6828 13.8843 69.5088C13.8843 65.3348 17.2681 61.951 21.4421 61.951C25.6161 61.951 28.9998 65.3348 28.9998 69.5088Z" fill="url(#paint31_radial_1484_28907)"/>
<defs>
<radialGradient id="paint0_radial_1484_28907" cx="0" cy="0" r="1" gradientUnits="userSpaceOnUse" gradientTransform="translate(141.816 58.7357) rotate(106.452) scale(17.84 11.076)">
<stop offset="0.0104167" stop-color="#191518"/>
<stop offset="0.597518" stop-color="#B26115"/>
<stop offset="0.962214" stop-color="#E6B90F"/>
</radialGradient>
<radialGradient id="paint1_radial_1484_28907" cx="0" cy="0" r="1" gradientUnits="userSpaceOnUse" gradientTransform="translate(124.927 79.0096) rotate(65.635) scale(25.7268 52.1307)">
<stop offset="0.149552" stop-color="#AE7240"/>
<stop offset="0.537949" stop-color="#FCD2AF"/>
</radialGradient>
<radialGradient id="paint2_radial_1484_28907" cx="0" cy="0" r="1" gradientUnits="userSpaceOnUse" gradientTransform="translate(108.339 127.672) rotate(74.829) scale(62.9757 58.1178)">
<stop offset="0.306612" stop-color="#FCFAFF"/>
<stop offset="1" stop-color="#B8AEC4"/>
</radialGradient>
<radialGradient id="paint3_radial_1484_28907" cx="0" cy="0" r="1" gradientUnits="userSpaceOnUse" gradientTransform="translate(101.075 111.892) rotate(79.0571) scale(80.3595 83.3882)">
<stop offset="0.723317" stop-color="#6B6276" stop-opacity="0"/>
<stop offset="1" stop-color="#6B6276"/>
</radialGradient>
<radialGradient id="paint4_radial_1484_28907" cx="0" cy="0" r="1" gradientUnits="userSpaceOnUse" gradientTransform="translate(189.044 169.325) rotate(59.5143) scale(61.1275 19.7687)">
<stop stop-color="#FFE61B"/>
<stop offset="1" stop-color="#F6DE17" stop-opacity="0"/>
</radialGradient>
<radialGradient id="paint5_radial_1484_28907" cx="0" cy="0" r="1" gradientUnits="userSpaceOnUse" gradientTransform="translate(146.586 71.6742) rotate(35.1276) scale(44.589 14.4201)">
<stop stop-color="#FFE61B"/>
<stop offset="1" stop-color="#F6DE17" stop-opacity="0"/>
</radialGradient>
<radialGradient id="paint6_radial_1484_28907" cx="0" cy="0" r="1" gradientUnits="userSpaceOnUse" gradientTransform="translate(66.7488 173.018) rotate(-101.785) scale(60.3206 19.7453)">
<stop stop-color="#AE7D20"/>
<stop offset="1" stop-color="#CD8704" stop-opacity="0"/>
</radialGradient>
<radialGradient id="paint7_radial_1484_28907" cx="0" cy="0" r="1" gradientUnits="userSpaceOnUse" gradientTransform="translate(97.3354 133.935) rotate(115.611) scale(75.6743 32.7073)">
<stop stop-color="#FFE61B"/>
<stop offset="1" stop-color="#F6DE17" stop-opacity="0"/>
</radialGradient>
<radialGradient id="paint8_radial_1484_28907" cx="0" cy="0" r="1" gradientUnits="userSpaceOnUse" gradientTransform="translate(81.1924 57.5261) rotate(8.64891) scale(33.5166 16.3701)">
<stop stop-color="#F0E6C0"/>
<stop offset="1" stop-color="#F0E6C0" stop-opacity="0"/>
</radialGradient>
<radialGradient id="paint9_radial_1484_28907" cx="0" cy="0" r="1" gradientUnits="userSpaceOnUse" gradientTransform="translate(94.6901 97.7696) rotate(47.1418) scale(19.4773 9.47407)">
<stop stop-color="#FFE61B"/>
<stop offset="1" stop-color="#F6DE17" stop-opacity="0"/>
</radialGradient>
<radialGradient id="paint10_radial_1484_28907" cx="0" cy="0" r="1" gradientUnits="userSpaceOnUse" gradientTransform="translate(25.833 72.3698) rotate(27.5436) scale(29.0078 12.9053)">
<stop offset="0.404525" stop-color="#F0E6C0"/>
<stop offset="1" stop-color="#F0E6C0" stop-opacity="0"/>
</radialGradient>
<radialGradient id="paint11_radial_1484_28907" cx="0" cy="0" r="1" gradientUnits="userSpaceOnUse" gradientTransform="translate(61.6514 131.811) rotate(-78.5245) scale(57.6527 28.3739)">
<stop stop-color="#AE7D20"/>
<stop offset="1" stop-color="#CD8704" stop-opacity="0"/>
</radialGradient>
<radialGradient id="paint12_radial_1484_28907" cx="0" cy="0" r="1" gradientUnits="userSpaceOnUse" gradientTransform="translate(23.4181 124.164) rotate(147.995) scale(36.0692 15.5996)">
<stop stop-color="#FFE61B"/>
<stop offset="1" stop-color="#F6DE17" stop-opacity="0"/>
</radialGradient>
<linearGradient id="paint13_linear_1484_28907" x1="139.014" y1="106.646" x2="124.789" y2="118.145" gradientUnits="userSpaceOnUse">
<stop stop-color="#AE8825"/>
<stop offset="1" stop-color="#7A5824"/>
</linearGradient>
<radialGradient id="paint14_radial_1484_28907" cx="0" cy="0" r="1" gradientUnits="userSpaceOnUse" gradientTransform="translate(136.232 115.734) rotate(100.981) scale(14.7734 10.7972)">
<stop offset="0.51358" stop-color="#674C21" stop-opacity="0"/>
<stop offset="0.762063" stop-color="#674C21"/>
</radialGradient>
<radialGradient id="paint15_radial_1484_28907" cx="0" cy="0" r="1" gradientUnits="userSpaceOnUse" gradientTransform="translate(140.273 115.532) rotate(81.507) scale(9.00108 1.08753)">
<stop stop-color="#FDD03B"/>
<stop offset="1" stop-color="#FDD03B" stop-opacity="0"/>
</radialGradient>
<radialGradient id="paint16_radial_1484_28907" cx="0" cy="0" r="1" gradientUnits="userSpaceOnUse" gradientTransform="translate(134.484 107.718) rotate(-8.62309) scale(7.72916 2.00368)">
<stop stop-color="#FDD03B"/>
<stop offset="1" stop-color="#FDD03B" stop-opacity="0"/>
</radialGradient>
<radialGradient id="paint17_radial_1484_28907" cx="0" cy="0" r="1" gradientUnits="userSpaceOnUse" gradientTransform="translate(123.982 35.4339) rotate(90) scale(64.1511 22.8865)">
<stop offset="0.53104" stop-color="#C0895B"/>
<stop offset="0.928121" stop-color="#FCD2AF"/>
</radialGradient>
<radialGradient id="paint18_radial_1484_28907" cx="0" cy="0" r="1" gradientUnits="userSpaceOnUse" gradientTransform="translate(119.726 73.2514) rotate(-0.922883) scale(6.14644 3.03023)">
<stop stop-color="#F5B5A1"/>
<stop offset="1" stop-color="#C46749"/>
</radialGradient>
<radialGradient id="paint19_radial_1484_28907" cx="0" cy="0" r="1" gradientUnits="userSpaceOnUse" gradientTransform="translate(124.152 25.3182) rotate(88.7278) scale(20.8408 25.1978)">
<stop offset="0.5" stop-color="#635674"/>
<stop offset="0.822917" stop-color="#8C7C9F"/>
<stop offset="0.979167" stop-color="#C6BED0"/>
</radialGradient>
<radialGradient id="paint20_radial_1484_28907" cx="0" cy="0" r="1" gradientUnits="userSpaceOnUse" gradientTransform="translate(120.823 62.1638) rotate(94.7232) scale(13.1123 9.8854)">
<stop offset="0.339769" stop-color="#E8BB96"/>
<stop offset="1" stop-color="#FBD1AE" stop-opacity="0"/>
</radialGradient>
<radialGradient id="paint21_radial_1484_28907" cx="0" cy="0" r="1" gradientUnits="userSpaceOnUse" gradientTransform="translate(117.754 66.4207) rotate(-80.0557) scale(15.4783 2.84565)">
<stop offset="0.393005" stop-color="#C0895C"/>
<stop offset="1" stop-color="#C0895C" stop-opacity="0"/>
</radialGradient>
<radialGradient id="paint22_radial_1484_28907" cx="0" cy="0" r="1" gradientUnits="userSpaceOnUse" gradientTransform="translate(148.346 50.4187) rotate(100.709) scale(7.48468 3.07153)">
<stop offset="0.380208" stop-color="#D9A478"/>
<stop offset="0.928121" stop-color="#FCD2AF"/>
</radialGradient>
<linearGradient id="paint23_linear_1484_28907" x1="67.2201" y1="19.7936" x2="67.2201" y2="35.3701" gradientUnits="userSpaceOnUse">
<stop stop-color="#ABA0B6"/>
<stop offset="1" stop-color="#7C7387"/>
</linearGradient>
<radialGradient id="paint24_radial_1484_28907" cx="0" cy="0" r="1" gradientUnits="userSpaceOnUse" gradientTransform="translate(74.9965 39.4816) rotate(-90) scale(7.85759 10.8042)">
<stop stop-color="#B8A2C9"/>
<stop offset="1" stop-color="#776C80"/>
</radialGradient>
<radialGradient id="paint25_radial_1484_28907" cx="0" cy="0" r="1" gradientUnits="userSpaceOnUse" gradientTransform="translate(78.5979 31.333) rotate(130.389) scale(6.4)">
<stop stop-color="#B6B1BA"/>
<stop offset="1" stop-color="#B6B1BA" stop-opacity="0"/>
</radialGradient>
<radialGradient id="paint26_radial_1484_28907" cx="0" cy="0" r="1" gradientUnits="userSpaceOnUse" gradientTransform="translate(59.0028 41.4242) rotate(-90) scale(7.85759 10.8042)">
<stop stop-color="#B8A2C9"/>
<stop offset="1" stop-color="#776C80"/>
</radialGradient>
<radialGradient id="paint27_radial_1484_28907" cx="0" cy="0" r="1" gradientUnits="userSpaceOnUse" gradientTransform="translate(62.6042 33.2756) rotate(130.389) scale(6.4)">
<stop stop-color="#B6B1BA"/>
<stop offset="1" stop-color="#B6B1BA" stop-opacity="0"/>
</radialGradient>
<linearGradient id="paint28_linear_1484_28907" x1="194.745" y1="3.79614" x2="194.745" y2="120" gradientUnits="userSpaceOnUse">
<stop stop-color="#D9CEE0"/>
<stop offset="1" stop-color="#94889B"/>
</linearGradient>
<linearGradient id="paint29_linear_1484_28907" x1="30.421" y1="52.6663" x2="30.421" y2="69.6874" gradientUnits="userSpaceOnUse">
<stop stop-color="#ABA1B6"/>
<stop offset="1" stop-color="#797183"/>
</linearGradient>
<radialGradient id="paint30_radial_1484_28907" cx="0" cy="0" r="1" gradientUnits="userSpaceOnUse" gradientTransform="translate(21.4421 76.3026) rotate(-90) scale(8.58631 11.8062)">
<stop stop-color="#B8A2C9"/>
<stop offset="1" stop-color="#776C80"/>
</radialGradient>
<radialGradient id="paint31_radial_1484_28907" cx="0" cy="0" r="1" gradientUnits="userSpaceOnUse" gradientTransform="translate(25.3775 67.3983) rotate(130.389) scale(6.99354)">
<stop stop-color="#B6B1BA"/>
<stop offset="1" stop-color="#B6B1BA" stop-opacity="0"/>
</radialGradient>
</defs>
</svg>
