<svg viewBox="0 0 240 120" fill="none" xmlns="http://www.w3.org/2000/svg">
<path d="M186.809 0C203.058 10.2178 213.04 24.0719 213.041 39.3297C213.041 62.1217 190.768 81.781 158.603 90.8649H78.3257C46.1609 81.7812 23.8879 62.1219 23.8879 39.3297C23.8886 24.0717 33.8705 10.2178 50.1198 0H186.809Z" fill="url(#paint0_linear_10503_34725)"/>
<path d="M186.809 0C203.058 10.2178 213.04 24.0719 213.041 39.3297C213.041 62.1217 190.768 81.781 158.603 90.8649H78.3257C46.1609 81.7812 23.8879 62.1219 23.8879 39.3297C23.8886 24.0717 33.8705 10.2178 50.1198 0H186.809Z" fill="url(#paint1_radial_10503_34725)"/>
<path d="M170.073 0.00219727C178.736 7.733 183.909 17.4475 183.91 28.0144C183.91 53.1916 154.606 73.6045 118.461 73.6045C82.3171 73.6037 53.0168 53.1911 53.0168 28.0144C53.0174 17.4474 58.1908 7.73302 66.8539 0.00219727H170.073Z" fill="url(#paint2_radial_10503_34725)"/>
<path d="M177.609 8.47461C178.299 9.48619 178.936 10.5201 179.52 11.571C179.233 24.2727 172.377 35.6918 161.554 43.9597C150.497 52.406 135.257 57.6023 118.466 57.6029C101.675 57.6027 86.435 52.4053 75.3769 43.9597C64.5526 35.6908 57.7012 24.2701 57.4158 11.5665C57.9985 10.5181 58.6294 9.48383 59.3178 8.47461C59.2686 9.22576 59.2457 9.98175 59.2457 10.7417C59.2467 23.0777 65.7928 34.3116 76.4992 42.4903C87.2078 50.6691 102.044 55.7593 118.466 55.7595C134.888 55.7588 149.724 50.6697 160.432 42.4903C171.138 34.3116 177.685 23.0775 177.686 10.7417C177.685 9.98166 177.658 9.22586 177.609 8.47461ZM168.838 0.00109863C169.934 3.0917 170.532 6.33577 170.533 9.69155C170.532 20.3809 164.598 29.9817 155.172 36.8744C145.744 43.7672 132.762 48.002 118.466 48.0026C104.17 48.0024 91.1877 43.7666 81.7591 36.8744C72.3325 29.9817 66.3991 20.381 66.3986 9.69155C66.3991 6.33664 66.9897 3.09149 68.0843 0.00109863H70.0674C68.8895 3.09504 68.247 6.34068 68.2465 9.69155C68.2471 19.6486 73.7666 28.7436 82.8453 35.3825C91.9257 42.0206 104.519 46.159 118.466 46.1592C132.412 46.1585 145.001 42.0207 154.081 35.3825C163.161 28.7436 168.684 19.649 168.685 9.69155C168.684 6.34038 168.038 3.0946 166.859 0.00109863H168.838ZM158.061 0.00109863C159.367 2.95333 160.085 6.10926 160.085 9.39858C160.084 17.9158 155.32 25.5492 147.785 31.015C140.247 36.4819 129.875 39.8349 118.466 39.8356C107.057 39.8354 96.6843 36.481 89.1464 31.015C81.6116 25.5492 76.8477 17.9158 76.8462 9.39858C76.8466 6.10907 77.5595 2.95327 78.8655 0.00109863H80.9072C79.4736 2.9559 78.6945 6.11736 78.6942 9.39858C78.6956 17.1777 83.0435 24.3038 90.2326 29.5187C97.4225 34.7322 107.403 37.9874 118.466 37.9877C129.528 37.987 139.509 34.7331 146.699 29.5187C153.888 24.3038 158.236 17.1777 158.237 9.39858C158.237 6.11757 157.453 2.95596 156.019 0.00109863H158.061ZM146.275 0.00109863C147.838 2.59767 148.717 5.47324 148.718 8.51517C148.717 14.5941 145.212 20.008 139.735 23.8621C134.255 27.7175 126.73 30.0722 118.466 30.073C110.201 30.0726 102.672 27.7177 97.1917 23.8621C91.7152 20.008 88.2098 14.5939 88.2089 8.51517C88.2093 5.47355 89.084 2.59775 90.6473 0.00109863H92.8513C91.0498 2.59871 90.0573 5.48992 90.0568 8.51517C90.0578 13.8308 93.1201 18.7384 98.2554 22.3522C103.389 25.9638 110.535 28.2292 118.466 28.2296C126.395 28.2288 133.538 25.9634 138.671 22.3522C143.807 18.7384 146.869 13.8308 146.87 8.51517C146.869 5.48956 145.872 2.59863 144.071 0.00109863H146.275ZM136.251 0.00109863C138.408 2.33508 139.707 5.15337 139.708 8.23122C139.707 12.5112 137.202 16.2894 133.357 18.9583C129.508 21.6293 124.235 23.2532 118.461 23.2537C112.688 23.2528 107.418 21.6285 103.569 18.9583C99.725 16.2894 97.2194 12.5108 97.2187 8.23122C97.2194 5.15369 98.5141 2.33515 100.671 0.00109863H103.335C100.618 2.30082 99.0675 5.17866 99.0667 8.23122C99.0674 11.7359 101.114 15.0103 104.62 17.4439C108.123 19.8744 113.017 21.4049 118.461 21.4057C123.905 21.4053 128.799 19.8741 132.303 17.4439C135.809 15.0102 137.859 11.7364 137.86 8.23122C137.859 5.17777 136.301 2.30081 133.583 0.00109863H136.251ZM123.302 0.00109863C127.142 1.41712 129.935 4.46674 129.936 8.23122C129.935 13.4554 124.566 17.3205 118.466 17.3222C112.365 17.3215 106.991 13.456 106.99 8.23122C106.991 4.46777 109.781 1.41763 113.62 0.00109863H123.302ZM118.466 0.988172C112.917 0.988878 108.84 4.43772 108.838 8.23122C108.839 12.025 112.917 15.4736 118.466 15.4743C124.013 15.4726 128.087 12.0244 128.088 8.23122C128.087 4.43825 124.013 0.98985 118.466 0.988172Z" fill="url(#paint3_linear_10503_34725)"/>
<path d="M118.465 10.9576C130.15 10.9581 140.577 18.7903 148.032 31.1182C153.386 39.9736 157.244 51.2242 159.007 63.7863C158.435 64.1014 157.859 64.4174 157.271 64.7193C155.585 52.1004 151.756 40.8445 146.45 32.0693C140.566 22.339 132.947 15.7451 124.54 13.5808C125.437 14.3781 126.301 15.3287 127.114 16.4248C129.63 19.82 131.858 24.6761 133.712 30.5909C137.038 41.1989 139.208 55.3894 139.626 71.1466C139.016 71.2918 138.405 71.4464 137.787 71.5792C137.398 55.7975 135.239 41.6394 131.95 31.1453C130.127 25.3308 127.976 20.6894 125.631 17.5246C124.08 15.4316 122.491 14.0598 120.912 13.3599C121.297 14.2566 121.664 15.4016 121.998 16.7538C122.823 20.0952 123.557 24.8921 124.171 30.7712C125.321 41.7872 126.046 56.7192 126.136 73.2785C125.525 73.3281 124.913 73.3758 124.297 73.4137C124.21 56.8474 123.482 41.9326 122.336 30.965C121.725 25.1144 120.999 20.4143 120.204 17.1955C119.805 15.5799 119.402 14.3857 119.01 13.6168C118.813 13.2315 118.641 13.0007 118.514 12.8777C118.496 12.8604 118.478 12.848 118.465 12.8371C118.452 12.8478 118.432 12.8612 118.415 12.8777C118.289 13.0005 118.12 13.2332 117.924 13.6168C117.531 14.3857 117.124 15.5801 116.725 17.1955C115.93 20.4142 115.209 25.1146 114.597 30.965C113.452 41.9326 112.719 56.8473 112.632 73.4137C112.015 73.3757 111.401 73.3283 110.789 73.2785C110.879 56.7191 111.608 41.7872 112.759 30.7712C113.373 24.8921 114.11 20.0952 114.935 16.7538C115.269 15.4023 115.629 14.2564 116.013 13.3599C114.434 14.0602 112.845 15.4315 111.294 17.5246C108.948 20.6896 106.797 25.3304 104.975 31.1453C101.686 41.6385 99.5226 55.7946 99.1333 71.5747C98.5154 71.4419 97.9043 71.2917 97.2944 71.1466C97.7124 55.3893 99.8872 41.1989 103.212 30.5909C105.067 24.676 107.295 19.8201 109.811 16.4248C110.623 15.3288 111.489 14.3782 112.384 13.5808C103.979 15.7457 96.363 22.3404 90.4795 32.0693C85.1733 40.8446 81.3394 52.1002 79.6532 64.7193C79.0658 64.4174 78.4902 64.1014 77.918 63.7863C79.6805 51.224 83.5433 39.9738 88.8975 31.1182C96.3504 18.7932 106.774 10.9613 118.456 10.9576H118.465ZM118.465 6.59013C143.1 6.59096 163.734 27.154 170.861 55.3263C170.359 55.7921 169.841 56.2447 169.315 56.6965C162.572 28.635 142.232 8.43892 118.465 8.43808C94.6951 8.43853 74.3511 28.6364 67.61 56.701C67.0842 56.2493 66.5653 55.7966 66.0641 55.3308C73.1892 27.1554 93.8271 6.59057 118.465 6.59013ZM118.46 2.22717C145.392 2.22717 169.206 14.758 183.373 33.8856C183.223 34.6968 183.037 35.4998 182.827 36.297C169.153 16.9165 145.459 4.07512 118.46 4.07512C91.4615 4.07649 67.7659 16.9162 54.093 36.297C53.8832 35.5005 53.7062 34.6961 53.5566 33.8856C67.7227 14.7601 91.5307 2.22851 118.46 2.22717Z" fill="url(#paint4_linear_10503_34725)"/>
<path d="M70.6985 59.163C70.6225 59.1065 70.5443 59.0531 70.4687 58.9963C70.5437 58.6214 70.618 58.2468 70.6985 57.874V59.163ZM155.402 0.00170898C162.68 1.12307 169.614 3.28048 176.04 6.3298C176.853 7.37399 177.607 8.44306 178.303 9.53441C168.045 4.06487 156.321 0.96203 143.868 0.96174C136.222 0.962041 128.849 2.13259 121.923 4.30156C124.337 5.25106 126.688 6.33054 128.972 7.51519H124.753C122.925 6.68322 121.057 5.91697 119.151 5.23455C117.245 5.91687 115.377 6.6833 113.548 7.51519H109.321C111.605 6.33042 113.955 5.25116 116.37 4.30156C109.444 2.13312 102.07 0.961918 94.4244 0.96174C81.1259 0.962359 68.6587 4.50297 57.9207 10.6837C58.5797 9.56804 59.2956 8.47171 60.0751 7.40251C67.093 3.7893 74.7599 1.25179 82.8544 0.00170898H105.891C110.458 0.702233 114.891 1.79746 119.146 3.27843C123.402 1.79719 127.835 0.70214 132.402 0.00170898H155.402Z" fill="#3F60CB"/>
<path d="M128.579 8.23237C128.579 12.5568 124.051 16.0625 118.465 16.0625C112.878 16.0625 108.35 12.5568 108.35 8.23237C108.35 3.9079 112.878 0.402222 118.465 0.402222C124.051 0.402222 128.579 3.9079 128.579 8.23237Z" fill="#FEE2AF"/>
<path d="M81.0059 86.3431H158.077V119.423H81.0059V86.3431Z" fill="#280F0C"/>
<path d="M4.82373 66.2264L45.1084 66.2268L37.6145 96.2332L4.82438 96.1005L4.82373 66.2264Z" fill="url(#paint5_linear_10503_34725)"/>
<path d="M4.82373 95.8815L36.1719 95.8819L28.6778 119.999L4.82424 119.862L4.82373 95.8815Z" fill="url(#paint6_linear_10503_34725)"/>
<path d="M43.7264 66.134L97.7075 87.8887L97.7075 114.269L34.8904 96.0081L43.7264 66.134Z" fill="#E8A52A"/>
<path d="M43.7264 66.134L97.7075 87.8887L97.7075 114.269L34.8904 96.0081L43.7264 66.134Z" fill="url(#paint7_linear_10503_34725)"/>
<path d="M34.8903 95.8815L97.7079 114.397L97.7082 119.57H27.8208L34.8903 95.8815Z" fill="url(#paint8_linear_10503_34725)"/>
<path d="M41.8779 72.977C45.8972 43.9106 95.0357 56.9718 91.0164 86.0382L86.5307 119.638L30.9656 119.638L41.8779 72.977Z" fill="#6F3B0F"/>
<path d="M43.2349 76.6943C47.2541 47.6279 93.3848 60.2732 89.3656 89.3395L85.0338 119.638L33.7432 119.638L43.2349 76.6943Z" fill="url(#paint9_linear_10503_34725)"/>
<path d="M43.2349 76.6943C47.2541 47.6279 93.3848 60.2732 89.3656 89.3395L85.0338 119.638L33.7432 119.638L43.2349 76.6943Z" fill="url(#paint10_linear_10503_34725)"/>
<path d="M43.7243 66.134L97.7053 87.8884L97.7058 94.1955L42.209 71.2629L43.7243 66.134Z" fill="url(#paint11_linear_10503_34725)"/>
<path d="M61.5708 80.1649L72.8286 84.2384L69.6067 99.3585L58.349 95.2851L61.5708 80.1649Z" fill="url(#paint12_linear_10503_34725)"/>
<path d="M61.5708 80.1649L72.8286 84.2384L69.6067 99.3585L58.349 95.2851L61.5708 80.1649Z" fill="url(#paint13_linear_10503_34725)"/>
<path d="M61.5708 80.1649L72.8286 84.2384L69.6067 99.3585L58.349 95.2851L61.5708 80.1649Z" fill="url(#paint14_linear_10503_34725)"/>
<path d="M75.9443 85.5972L87.2021 89.6707L83.9803 104.791L72.7225 100.717L75.9443 85.5972Z" fill="url(#paint15_linear_10503_34725)"/>
<path d="M75.9443 85.5972L87.2021 89.6707L83.9803 104.791L72.7225 100.717L75.9443 85.5972Z" fill="url(#paint16_linear_10503_34725)"/>
<path d="M75.9443 85.5972L87.2021 89.6707L83.9803 104.791L72.7225 100.717L75.9443 85.5972Z" fill="url(#paint17_linear_10503_34725)"/>
<path d="M34.8941 95.8815L97.711 114.397L97.7117 119.422L31.1628 107.939L34.8941 95.8815Z" fill="url(#paint18_linear_10503_34725)"/>
<path d="M63.3938 85.0349L69.3523 87.1909L67.647 95.1937L61.6886 93.0377L63.3938 85.0349Z" fill="url(#paint19_linear_10503_34725)"/>
<path d="M63.3938 85.0349L69.3523 87.1909L67.647 95.1937L61.6886 93.0377L63.3938 85.0349Z" fill="url(#paint20_linear_10503_34725)"/>
<path d="M63.3938 85.0349L69.3523 87.1909L67.647 95.1937L61.6886 93.0377L63.3938 85.0349Z" fill="url(#paint21_linear_10503_34725)"/>
<path d="M46.6213 74.9929L57.8791 79.0664L54.6573 94.1865L43.3995 90.1131L46.6213 74.9929Z" fill="url(#paint22_linear_10503_34725)"/>
<path d="M46.6213 74.9929L57.8791 79.0664L54.6573 94.1865L43.3995 90.1131L46.6213 74.9929Z" fill="url(#paint23_linear_10503_34725)"/>
<path d="M46.6213 74.9929L57.8791 79.0664L54.6573 94.1865L43.3995 90.1131L46.6213 74.9929Z" fill="url(#paint24_linear_10503_34725)"/>
<path d="M48.5122 79.5114L54.4707 81.6674L52.7655 89.6701L46.807 87.5141L48.5122 79.5114Z" fill="url(#paint25_linear_10503_34725)"/>
<path d="M48.5122 79.5114L54.4707 81.6674L52.7655 89.6701L46.807 87.5141L48.5122 79.5114Z" fill="url(#paint26_linear_10503_34725)"/>
<path d="M48.5122 79.5114L54.4707 81.6674L52.7655 89.6701L46.807 87.5141L48.5122 79.5114Z" fill="url(#paint27_linear_10503_34725)"/>
<path d="M78.2136 90.1145L84.1721 92.2705L82.4669 100.273L76.5084 98.1173L78.2136 90.1145Z" fill="url(#paint28_linear_10503_34725)"/>
<path d="M78.2136 90.1145L84.1721 92.2705L82.4669 100.273L76.5084 98.1173L78.2136 90.1145Z" fill="url(#paint29_linear_10503_34725)"/>
<path d="M78.2136 90.1145L84.1721 92.2705L82.4669 100.273L76.5084 98.1173L78.2136 90.1145Z" fill="url(#paint30_linear_10503_34725)"/>
<path d="M37.1683 65.7194H44.0627L31.4542 120H24.5598L37.1683 65.7194Z" fill="url(#paint31_linear_10503_34725)"/>
<path d="M37.1683 65.7194H44.0627L31.4542 120H24.5598L37.1683 65.7194Z" fill="url(#paint32_linear_10503_34725)"/>
<path d="M37.1683 65.7194H44.0627L31.4542 120H24.5598L37.1683 65.7194Z" fill="url(#paint33_linear_10503_34725)"/>
<path d="M91.0587 84.6135L97.0876 87.0654L92.8845 120H86.5271L91.0587 84.6135Z" fill="url(#paint34_linear_10503_34725)"/>
<path d="M91.0587 84.6135L97.0876 87.0654L92.8845 120H86.5271L91.0587 84.6135Z" fill="url(#paint35_linear_10503_34725)"/>
<path d="M91.0587 84.6135L97.0876 87.0654L92.8845 120H86.5271L91.0587 84.6135Z" fill="url(#paint36_linear_10503_34725)"/>
<path d="M232.698 66.2264L192.414 66.2268L199.907 96.2332L232.698 96.1005L232.698 66.2264Z" fill="url(#paint37_linear_10503_34725)"/>
<path d="M232.698 95.8815L201.35 95.8819L208.844 119.999L232.698 119.862L232.698 95.8815Z" fill="url(#paint38_linear_10503_34725)"/>
<path d="M193.795 66.134L139.814 87.8887L139.813 114.269L202.631 96.0081L193.795 66.134Z" fill="#E8A52A"/>
<path d="M193.795 66.134L139.814 87.8887L139.813 114.269L202.631 96.0081L193.795 66.134Z" fill="url(#paint39_linear_10503_34725)"/>
<path d="M202.631 95.8815L139.813 114.397L139.813 119.57H209.7L202.631 95.8815Z" fill="url(#paint40_linear_10503_34725)"/>
<path d="M195.644 72.977C191.624 43.9106 142.486 56.9718 146.505 86.0382L150.991 119.638L206.556 119.638L195.644 72.977Z" fill="#6F3B0F"/>
<path d="M194.286 76.6943C190.267 47.6279 144.136 60.2732 148.155 89.3395L152.487 119.638L203.778 119.638L194.286 76.6943Z" fill="url(#paint41_linear_10503_34725)"/>
<path d="M194.286 76.6943C190.267 47.6279 144.136 60.2732 148.155 89.3395L152.487 119.638L203.778 119.638L194.286 76.6943Z" fill="url(#paint42_linear_10503_34725)"/>
<path d="M193.798 66.134L139.817 87.8884L139.816 94.1955L195.313 71.2629L193.798 66.134Z" fill="url(#paint43_linear_10503_34725)"/>
<path d="M175.95 80.1649L164.692 84.2384L167.914 99.3585L179.172 95.2851L175.95 80.1649Z" fill="url(#paint44_linear_10503_34725)"/>
<path d="M175.95 80.1649L164.692 84.2384L167.914 99.3585L179.172 95.2851L175.95 80.1649Z" fill="url(#paint45_linear_10503_34725)"/>
<path d="M175.95 80.1649L164.692 84.2384L167.914 99.3585L179.172 95.2851L175.95 80.1649Z" fill="url(#paint46_linear_10503_34725)"/>
<path d="M161.577 85.5972L150.319 89.6707L153.541 104.791L164.798 100.717L161.577 85.5972Z" fill="url(#paint47_linear_10503_34725)"/>
<path d="M161.577 85.5972L150.319 89.6707L153.541 104.791L164.798 100.717L161.577 85.5972Z" fill="url(#paint48_linear_10503_34725)"/>
<path d="M161.577 85.5972L150.319 89.6707L153.541 104.791L164.798 100.717L161.577 85.5972Z" fill="url(#paint49_linear_10503_34725)"/>
<path d="M202.627 95.8815L139.81 114.397L139.809 119.422L206.358 107.939L202.627 95.8815Z" fill="url(#paint50_linear_10503_34725)"/>
<path d="M174.127 85.0349L168.168 87.1909L169.874 95.1937L175.832 93.0377L174.127 85.0349Z" fill="url(#paint51_linear_10503_34725)"/>
<path d="M174.127 85.0349L168.168 87.1909L169.874 95.1937L175.832 93.0377L174.127 85.0349Z" fill="url(#paint52_linear_10503_34725)"/>
<path d="M174.127 85.0349L168.168 87.1909L169.874 95.1937L175.832 93.0377L174.127 85.0349Z" fill="url(#paint53_linear_10503_34725)"/>
<path d="M190.901 74.9929L179.643 79.0664L182.865 94.1865L194.122 90.1131L190.901 74.9929Z" fill="url(#paint54_linear_10503_34725)"/>
<path d="M190.901 74.9929L179.643 79.0664L182.865 94.1865L194.122 90.1131L190.901 74.9929Z" fill="url(#paint55_linear_10503_34725)"/>
<path d="M190.901 74.9929L179.643 79.0664L182.865 94.1865L194.122 90.1131L190.901 74.9929Z" fill="url(#paint56_linear_10503_34725)"/>
<path d="M189.01 79.5114L183.051 81.6674L184.757 89.6701L190.715 87.5141L189.01 79.5114Z" fill="url(#paint57_linear_10503_34725)"/>
<path d="M189.01 79.5114L183.051 81.6674L184.757 89.6701L190.715 87.5141L189.01 79.5114Z" fill="url(#paint58_linear_10503_34725)"/>
<path d="M189.01 79.5114L183.051 81.6674L184.757 89.6701L190.715 87.5141L189.01 79.5114Z" fill="url(#paint59_linear_10503_34725)"/>
<path d="M159.307 90.1145L153.349 92.2705L155.054 100.273L161.013 98.1173L159.307 90.1145Z" fill="url(#paint60_linear_10503_34725)"/>
<path d="M159.307 90.1145L153.349 92.2705L155.054 100.273L161.013 98.1173L159.307 90.1145Z" fill="url(#paint61_linear_10503_34725)"/>
<path d="M159.307 90.1145L153.349 92.2705L155.054 100.273L161.013 98.1173L159.307 90.1145Z" fill="url(#paint62_linear_10503_34725)"/>
<path d="M200.353 65.7194H193.458L206.067 120H212.961L200.353 65.7194Z" fill="url(#paint63_linear_10503_34725)"/>
<path d="M200.353 65.7194H193.458L206.067 120H212.961L200.353 65.7194Z" fill="url(#paint64_linear_10503_34725)"/>
<path d="M200.353 65.7194H193.458L206.067 120H212.961L200.353 65.7194Z" fill="url(#paint65_linear_10503_34725)"/>
<path d="M146.462 84.6135L140.433 87.0654L144.636 120H150.994L146.462 84.6135Z" fill="url(#paint66_linear_10503_34725)"/>
<path d="M146.462 84.6135L140.433 87.0654L144.636 120H150.994L146.462 84.6135Z" fill="url(#paint67_linear_10503_34725)"/>
<path d="M146.462 84.6135L140.433 87.0654L144.636 120H150.994L146.462 84.6135Z" fill="url(#paint68_linear_10503_34725)"/>
<path d="M140.434 85.0799L130.04 119.422H108.48L98.0864 85.0799C101.927 77.115 111.165 71.5636 119.26 71.7904C127.354 71.5643 136.594 77.1152 140.434 85.0799Z" fill="url(#paint69_linear_10503_34725)"/>
<path d="M140.434 85.0799L130.04 119.422H108.48L98.0864 85.0799C101.927 77.115 111.165 71.5636 119.26 71.7904C127.354 71.5643 136.594 77.1152 140.434 85.0799Z" fill="url(#paint70_radial_10503_34725)"/>
<path d="M111.831 119.422H110.984L102.916 78.5735C103.151 78.351 103.394 78.1379 103.637 77.9245L111.831 119.422ZM115.225 119.422H114.387L110.362 73.6517C110.63 73.5354 110.898 73.4243 111.169 73.3181L115.225 119.422ZM120.39 71.8082V119.422H119.539V71.7947C119.821 71.7914 120.105 71.7977 120.39 71.8082ZM129.508 74.2872L125.542 119.422H124.708L128.711 73.8951C128.979 74.0194 129.243 74.1529 129.508 74.2872ZM136.071 79.0378C136.31 79.2769 136.55 79.515 136.779 79.7634L128.95 119.422H128.102L136.071 79.0378Z" fill="black"/>
<defs>
<linearGradient id="paint0_linear_10503_34725" x1="118.464" y1="-25.3403" x2="118.464" y2="96.2335" gradientUnits="userSpaceOnUse">
<stop stop-color="#B9B69B"/>
<stop offset="1" stop-color="#C6E7DA"/>
</linearGradient>
<radialGradient id="paint1_radial_10503_34725" cx="0" cy="0" r="1" gradientUnits="userSpaceOnUse" gradientTransform="translate(118.464 28.2691) rotate(90) scale(70.9611 102.599)">
<stop offset="0.646597" stop-color="#4A3729"/>
<stop offset="0.711382" stop-color="#4A3729" stop-opacity="0"/>
</radialGradient>
<radialGradient id="paint2_radial_10503_34725" cx="0" cy="0" r="1" gradientUnits="userSpaceOnUse" gradientTransform="translate(118.463 10.5389) rotate(90) scale(63.0645 90.5372)">
<stop stop-color="#FBF6E7"/>
<stop offset="0.288462" stop-color="#B1D9E7"/>
<stop offset="0.697115" stop-color="#6596E8"/>
</radialGradient>
<linearGradient id="paint3_linear_10503_34725" x1="118.466" y1="-15.5166" x2="118.466" y2="57.6035" gradientUnits="userSpaceOnUse">
<stop stop-color="#3F60CB"/>
<stop offset="1" stop-color="#0D1414"/>
</linearGradient>
<linearGradient id="paint4_linear_10503_34725" x1="118.465" y1="2.22717" x2="118.465" y2="73.4137" gradientUnits="userSpaceOnUse">
<stop stop-color="#3F60CB"/>
<stop offset="1" stop-color="#0D1414"/>
</linearGradient>
<linearGradient id="paint5_linear_10503_34725" x1="39.8076" y1="74.9991" x2="7.21143" y2="69.5183" gradientUnits="userSpaceOnUse">
<stop stop-color="#E8A52A"/>
<stop offset="1" stop-color="#FFE4B3" stop-opacity="0"/>
</linearGradient>
<linearGradient id="paint6_linear_10503_34725" x1="32.047" y1="102.932" x2="4.82374" y2="98.6528" gradientUnits="userSpaceOnUse">
<stop stop-color="#E8A52A"/>
<stop offset="1" stop-color="#FFE4B3" stop-opacity="0"/>
</linearGradient>
<linearGradient id="paint7_linear_10503_34725" x1="66.299" y1="66.134" x2="66.299" y2="114.269" gradientUnits="userSpaceOnUse">
<stop stop-color="#E8A52A"/>
<stop offset="1" stop-color="#F6CA77"/>
</linearGradient>
<linearGradient id="paint8_linear_10503_34725" x1="62.7645" y1="95.8815" x2="62.7645" y2="119.57" gradientUnits="userSpaceOnUse">
<stop stop-color="#E8A52A"/>
<stop offset="1" stop-color="#F6CA77"/>
</linearGradient>
<linearGradient id="paint9_linear_10503_34725" x1="67.6051" y1="60.734" x2="89.7363" y2="146.993" gradientUnits="userSpaceOnUse">
<stop stop-color="#E8A52A"/>
<stop offset="1" stop-color="#F6CA77"/>
</linearGradient>
<linearGradient id="paint10_linear_10503_34725" x1="67.6051" y1="60.734" x2="61.1538" y2="75.576" gradientUnits="userSpaceOnUse">
<stop stop-color="#3E5137"/>
<stop offset="1" stop-color="#8CB77C" stop-opacity="0"/>
</linearGradient>
<linearGradient id="paint11_linear_10503_34725" x1="75.4178" y1="75.4004" x2="71.7847" y2="84.3763" gradientUnits="userSpaceOnUse">
<stop stop-color="#2F0E02"/>
<stop offset="0.778846" stop-color="#2F0E02" stop-opacity="0"/>
</linearGradient>
<linearGradient id="paint12_linear_10503_34725" x1="76.8836" y1="99.9668" x2="65.5329" y2="79.6532" gradientUnits="userSpaceOnUse">
<stop stop-color="#E8A52A"/>
<stop offset="1" stop-color="#F6CA77"/>
</linearGradient>
<linearGradient id="paint13_linear_10503_34725" x1="58.0076" y1="88.612" x2="63.1123" y2="89.7617" gradientUnits="userSpaceOnUse">
<stop stop-color="#FFE8BE"/>
<stop offset="0.643076" stop-color="#FFE8BE" stop-opacity="0"/>
</linearGradient>
<linearGradient id="paint14_linear_10503_34725" x1="73.9296" y1="92.9389" x2="62.3001" y2="90.0908" gradientUnits="userSpaceOnUse">
<stop stop-color="#6F3B0F"/>
<stop offset="0.424558" stop-color="#6F3B0F" stop-opacity="0"/>
</linearGradient>
<linearGradient id="paint15_linear_10503_34725" x1="91.2571" y1="105.399" x2="79.9065" y2="85.0854" gradientUnits="userSpaceOnUse">
<stop stop-color="#E8A52A"/>
<stop offset="1" stop-color="#F6CA77"/>
</linearGradient>
<linearGradient id="paint16_linear_10503_34725" x1="72.3812" y1="94.0442" x2="77.4858" y2="95.194" gradientUnits="userSpaceOnUse">
<stop stop-color="#FFE8BE"/>
<stop offset="0.643076" stop-color="#FFE8BE" stop-opacity="0"/>
</linearGradient>
<linearGradient id="paint17_linear_10503_34725" x1="88.3031" y1="98.3711" x2="76.6737" y2="95.523" gradientUnits="userSpaceOnUse">
<stop stop-color="#6F3B0F"/>
<stop offset="0.424558" stop-color="#6F3B0F" stop-opacity="0"/>
</linearGradient>
<linearGradient id="paint18_linear_10503_34725" x1="72.9807" y1="99.8067" x2="68.3654" y2="115.96" gradientUnits="userSpaceOnUse">
<stop stop-color="#2F0E02"/>
<stop offset="0.778846" stop-color="#2F0E02" stop-opacity="0"/>
</linearGradient>
<linearGradient id="paint19_linear_10503_34725" x1="66.4634" y1="85.689" x2="70.2439" y2="95.5735" gradientUnits="userSpaceOnUse">
<stop stop-color="#6BDAFF" stop-opacity="0.8"/>
<stop offset="1" stop-color="#00E7CC" stop-opacity="0"/>
</linearGradient>
<linearGradient id="paint20_linear_10503_34725" x1="71.1703" y1="91.3182" x2="58.8494" y2="88.6928" gradientUnits="userSpaceOnUse">
<stop offset="0.575472" stop-color="#4D1700" stop-opacity="0"/>
<stop offset="1" stop-color="#4D1700"/>
</linearGradient>
<linearGradient id="paint21_linear_10503_34725" x1="65.6858" y1="89.3382" x2="66.8883" y2="83.6947" gradientUnits="userSpaceOnUse">
<stop offset="0.493976" stop-color="#4D1700" stop-opacity="0"/>
<stop offset="1" stop-color="#4D1700"/>
</linearGradient>
<linearGradient id="paint22_linear_10503_34725" x1="61.9341" y1="94.7948" x2="50.5835" y2="74.4812" gradientUnits="userSpaceOnUse">
<stop stop-color="#E8A52A"/>
<stop offset="1" stop-color="#F6CA77"/>
</linearGradient>
<linearGradient id="paint23_linear_10503_34725" x1="43.0582" y1="83.44" x2="48.1628" y2="84.5897" gradientUnits="userSpaceOnUse">
<stop stop-color="#FFE8BE"/>
<stop offset="0.643076" stop-color="#FFE8BE" stop-opacity="0"/>
</linearGradient>
<linearGradient id="paint24_linear_10503_34725" x1="58.9801" y1="87.7669" x2="47.3507" y2="84.9188" gradientUnits="userSpaceOnUse">
<stop stop-color="#6F3B0F"/>
<stop offset="0.424558" stop-color="#6F3B0F" stop-opacity="0"/>
</linearGradient>
<linearGradient id="paint25_linear_10503_34725" x1="51.5818" y1="80.1654" x2="55.3623" y2="90.0499" gradientUnits="userSpaceOnUse">
<stop stop-color="#6BDAFF" stop-opacity="0.8"/>
<stop offset="1" stop-color="#00E7CC" stop-opacity="0"/>
</linearGradient>
<linearGradient id="paint26_linear_10503_34725" x1="56.2888" y1="85.7946" x2="43.9678" y2="83.1692" gradientUnits="userSpaceOnUse">
<stop offset="0.575472" stop-color="#4D1700" stop-opacity="0"/>
<stop offset="1" stop-color="#4D1700"/>
</linearGradient>
<linearGradient id="paint27_linear_10503_34725" x1="50.8042" y1="83.8146" x2="52.0067" y2="78.1712" gradientUnits="userSpaceOnUse">
<stop offset="0.493976" stop-color="#4D1700" stop-opacity="0"/>
<stop offset="1" stop-color="#4D1700"/>
</linearGradient>
<linearGradient id="paint28_linear_10503_34725" x1="81.2832" y1="90.7686" x2="85.0637" y2="100.653" gradientUnits="userSpaceOnUse">
<stop stop-color="#6BDAFF" stop-opacity="0.8"/>
<stop offset="1" stop-color="#00E7CC" stop-opacity="0"/>
</linearGradient>
<linearGradient id="paint29_linear_10503_34725" x1="85.9902" y1="96.3978" x2="73.6692" y2="93.7724" gradientUnits="userSpaceOnUse">
<stop offset="0.575472" stop-color="#4D1700" stop-opacity="0"/>
<stop offset="1" stop-color="#4D1700"/>
</linearGradient>
<linearGradient id="paint30_linear_10503_34725" x1="80.5056" y1="94.4178" x2="81.7081" y2="88.7743" gradientUnits="userSpaceOnUse">
<stop offset="0.493976" stop-color="#4D1700" stop-opacity="0"/>
<stop offset="1" stop-color="#4D1700"/>
</linearGradient>
<linearGradient id="paint31_linear_10503_34725" x1="55.9751" y1="117.074" x2="30.7571" y2="61.509" gradientUnits="userSpaceOnUse">
<stop stop-color="#E8A52A"/>
<stop offset="1" stop-color="#F6CA77"/>
</linearGradient>
<linearGradient id="paint32_linear_10503_34725" x1="30.2885" y1="92.8597" x2="34.3112" y2="93.7797" gradientUnits="userSpaceOnUse">
<stop stop-color="#FFE8BE"/>
<stop offset="0.759615" stop-color="#FFE8BE" stop-opacity="0"/>
</linearGradient>
<linearGradient id="paint33_linear_10503_34725" x1="40.0962" y1="98.5092" x2="29.1346" y2="96.0572" gradientUnits="userSpaceOnUse">
<stop stop-color="#6F3B0F"/>
<stop offset="0.47601" stop-color="#6F3B0F" stop-opacity="0"/>
</linearGradient>
<linearGradient id="paint34_linear_10503_34725" x1="117.942" y1="117.074" x2="92.7244" y2="61.509" gradientUnits="userSpaceOnUse">
<stop stop-color="#E8A52A"/>
<stop offset="1" stop-color="#F6CA77"/>
</linearGradient>
<linearGradient id="paint35_linear_10503_34725" x1="88.2691" y1="93.0284" x2="97.0876" y2="94.1823" gradientUnits="userSpaceOnUse">
<stop stop-color="#FFE8BE"/>
<stop offset="0.595039" stop-color="#FFE8BE" stop-opacity="0"/>
</linearGradient>
<linearGradient id="paint36_linear_10503_34725" x1="98.5095" y1="97.6438" x2="88.5576" y2="96.2015" gradientUnits="userSpaceOnUse">
<stop stop-color="#6F3B0F"/>
<stop offset="0.47601" stop-color="#6F3B0F" stop-opacity="0"/>
</linearGradient>
<linearGradient id="paint37_linear_10503_34725" x1="197.714" y1="74.9991" x2="230.311" y2="69.5183" gradientUnits="userSpaceOnUse">
<stop stop-color="#E8A52A"/>
<stop offset="1" stop-color="#FFE4B3" stop-opacity="0"/>
</linearGradient>
<linearGradient id="paint38_linear_10503_34725" x1="205.475" y1="102.932" x2="232.698" y2="98.6528" gradientUnits="userSpaceOnUse">
<stop stop-color="#E8A52A"/>
<stop offset="1" stop-color="#FFE4B3" stop-opacity="0"/>
</linearGradient>
<linearGradient id="paint39_linear_10503_34725" x1="171.222" y1="66.134" x2="171.222" y2="114.269" gradientUnits="userSpaceOnUse">
<stop stop-color="#E8A52A"/>
<stop offset="1" stop-color="#F6CA77"/>
</linearGradient>
<linearGradient id="paint40_linear_10503_34725" x1="174.756" y1="95.8815" x2="174.756" y2="119.57" gradientUnits="userSpaceOnUse">
<stop stop-color="#E8A52A"/>
<stop offset="1" stop-color="#F6CA77"/>
</linearGradient>
<linearGradient id="paint41_linear_10503_34725" x1="169.917" y1="60.734" x2="147.786" y2="146.993" gradientUnits="userSpaceOnUse">
<stop stop-color="#E8A52A"/>
<stop offset="1" stop-color="#F6CA77"/>
</linearGradient>
<linearGradient id="paint42_linear_10503_34725" x1="169.917" y1="60.734" x2="176.368" y2="75.576" gradientUnits="userSpaceOnUse">
<stop stop-color="#3E5137"/>
<stop offset="1" stop-color="#8CB77C" stop-opacity="0"/>
</linearGradient>
<linearGradient id="paint43_linear_10503_34725" x1="162.104" y1="75.4004" x2="165.738" y2="84.3763" gradientUnits="userSpaceOnUse">
<stop stop-color="#2F0E02"/>
<stop offset="0.778846" stop-color="#2F0E02" stop-opacity="0"/>
</linearGradient>
<linearGradient id="paint44_linear_10503_34725" x1="160.637" y1="99.9668" x2="171.988" y2="79.6532" gradientUnits="userSpaceOnUse">
<stop stop-color="#E8A52A"/>
<stop offset="1" stop-color="#F6CA77"/>
</linearGradient>
<linearGradient id="paint45_linear_10503_34725" x1="179.513" y1="88.612" x2="174.409" y2="89.7617" gradientUnits="userSpaceOnUse">
<stop stop-color="#FFE8BE"/>
<stop offset="0.643076" stop-color="#FFE8BE" stop-opacity="0"/>
</linearGradient>
<linearGradient id="paint46_linear_10503_34725" x1="163.591" y1="92.9389" x2="175.221" y2="90.0908" gradientUnits="userSpaceOnUse">
<stop stop-color="#6F3B0F"/>
<stop offset="0.424558" stop-color="#6F3B0F" stop-opacity="0"/>
</linearGradient>
<linearGradient id="paint47_linear_10503_34725" x1="146.264" y1="105.399" x2="157.615" y2="85.0854" gradientUnits="userSpaceOnUse">
<stop stop-color="#E8A52A"/>
<stop offset="1" stop-color="#F6CA77"/>
</linearGradient>
<linearGradient id="paint48_linear_10503_34725" x1="165.14" y1="94.0442" x2="160.035" y2="95.194" gradientUnits="userSpaceOnUse">
<stop stop-color="#FFE8BE"/>
<stop offset="0.643076" stop-color="#FFE8BE" stop-opacity="0"/>
</linearGradient>
<linearGradient id="paint49_linear_10503_34725" x1="149.218" y1="98.3711" x2="160.847" y2="95.523" gradientUnits="userSpaceOnUse">
<stop stop-color="#6F3B0F"/>
<stop offset="0.424558" stop-color="#6F3B0F" stop-opacity="0"/>
</linearGradient>
<linearGradient id="paint50_linear_10503_34725" x1="164.54" y1="99.8067" x2="169.156" y2="115.96" gradientUnits="userSpaceOnUse">
<stop stop-color="#2F0E02"/>
<stop offset="0.778846" stop-color="#2F0E02" stop-opacity="0"/>
</linearGradient>
<linearGradient id="paint51_linear_10503_34725" x1="171.057" y1="85.689" x2="167.277" y2="95.5735" gradientUnits="userSpaceOnUse">
<stop stop-color="#6BDAFF" stop-opacity="0.8"/>
<stop offset="1" stop-color="#00E7CC" stop-opacity="0"/>
</linearGradient>
<linearGradient id="paint52_linear_10503_34725" x1="166.35" y1="91.3182" x2="178.671" y2="88.6928" gradientUnits="userSpaceOnUse">
<stop offset="0.575472" stop-color="#4D1700" stop-opacity="0"/>
<stop offset="1" stop-color="#4D1700"/>
</linearGradient>
<linearGradient id="paint53_linear_10503_34725" x1="171.835" y1="89.3382" x2="170.632" y2="83.6947" gradientUnits="userSpaceOnUse">
<stop offset="0.493976" stop-color="#4D1700" stop-opacity="0"/>
<stop offset="1" stop-color="#4D1700"/>
</linearGradient>
<linearGradient id="paint54_linear_10503_34725" x1="175.588" y1="94.7948" x2="186.939" y2="74.4812" gradientUnits="userSpaceOnUse">
<stop stop-color="#E8A52A"/>
<stop offset="1" stop-color="#F6CA77"/>
</linearGradient>
<linearGradient id="paint55_linear_10503_34725" x1="194.464" y1="83.44" x2="189.359" y2="84.5897" gradientUnits="userSpaceOnUse">
<stop stop-color="#FFE8BE"/>
<stop offset="0.643076" stop-color="#FFE8BE" stop-opacity="0"/>
</linearGradient>
<linearGradient id="paint56_linear_10503_34725" x1="178.542" y1="87.7669" x2="190.171" y2="84.9188" gradientUnits="userSpaceOnUse">
<stop stop-color="#6F3B0F"/>
<stop offset="0.424558" stop-color="#6F3B0F" stop-opacity="0"/>
</linearGradient>
<linearGradient id="paint57_linear_10503_34725" x1="185.94" y1="80.1654" x2="182.16" y2="90.0499" gradientUnits="userSpaceOnUse">
<stop stop-color="#6BDAFF" stop-opacity="0.8"/>
<stop offset="1" stop-color="#00E7CC" stop-opacity="0"/>
</linearGradient>
<linearGradient id="paint58_linear_10503_34725" x1="181.233" y1="85.7946" x2="193.554" y2="83.1692" gradientUnits="userSpaceOnUse">
<stop offset="0.575472" stop-color="#4D1700" stop-opacity="0"/>
<stop offset="1" stop-color="#4D1700"/>
</linearGradient>
<linearGradient id="paint59_linear_10503_34725" x1="186.718" y1="83.8146" x2="185.515" y2="78.1712" gradientUnits="userSpaceOnUse">
<stop offset="0.493976" stop-color="#4D1700" stop-opacity="0"/>
<stop offset="1" stop-color="#4D1700"/>
</linearGradient>
<linearGradient id="paint60_linear_10503_34725" x1="156.238" y1="90.7686" x2="152.457" y2="100.653" gradientUnits="userSpaceOnUse">
<stop stop-color="#6BDAFF" stop-opacity="0.8"/>
<stop offset="1" stop-color="#00E7CC" stop-opacity="0"/>
</linearGradient>
<linearGradient id="paint61_linear_10503_34725" x1="151.531" y1="96.3978" x2="163.852" y2="93.7724" gradientUnits="userSpaceOnUse">
<stop offset="0.575472" stop-color="#4D1700" stop-opacity="0"/>
<stop offset="1" stop-color="#4D1700"/>
</linearGradient>
<linearGradient id="paint62_linear_10503_34725" x1="157.015" y1="94.4178" x2="155.813" y2="88.7743" gradientUnits="userSpaceOnUse">
<stop offset="0.493976" stop-color="#4D1700" stop-opacity="0"/>
<stop offset="1" stop-color="#4D1700"/>
</linearGradient>
<linearGradient id="paint63_linear_10503_34725" x1="181.546" y1="117.074" x2="206.764" y2="61.509" gradientUnits="userSpaceOnUse">
<stop stop-color="#E8A52A"/>
<stop offset="1" stop-color="#F6CA77"/>
</linearGradient>
<linearGradient id="paint64_linear_10503_34725" x1="207.233" y1="92.8597" x2="203.21" y2="93.7797" gradientUnits="userSpaceOnUse">
<stop stop-color="#FFE8BE"/>
<stop offset="0.759615" stop-color="#FFE8BE" stop-opacity="0"/>
</linearGradient>
<linearGradient id="paint65_linear_10503_34725" x1="197.425" y1="98.5092" x2="208.386" y2="96.0572" gradientUnits="userSpaceOnUse">
<stop stop-color="#6F3B0F"/>
<stop offset="0.47601" stop-color="#6F3B0F" stop-opacity="0"/>
</linearGradient>
<linearGradient id="paint66_linear_10503_34725" x1="119.579" y1="117.074" x2="144.797" y2="61.509" gradientUnits="userSpaceOnUse">
<stop stop-color="#E8A52A"/>
<stop offset="1" stop-color="#F6CA77"/>
</linearGradient>
<linearGradient id="paint67_linear_10503_34725" x1="149.252" y1="93.0284" x2="140.433" y2="94.1823" gradientUnits="userSpaceOnUse">
<stop stop-color="#FFE8BE"/>
<stop offset="0.595039" stop-color="#FFE8BE" stop-opacity="0"/>
</linearGradient>
<linearGradient id="paint68_linear_10503_34725" x1="139.011" y1="97.6438" x2="148.963" y2="96.2015" gradientUnits="userSpaceOnUse">
<stop stop-color="#6F3B0F"/>
<stop offset="0.47601" stop-color="#6F3B0F" stop-opacity="0"/>
</linearGradient>
<linearGradient id="paint69_linear_10503_34725" x1="129.486" y1="71.7793" x2="129.486" y2="119.422" gradientUnits="userSpaceOnUse">
<stop stop-color="#9CC5A6"/>
<stop offset="1" stop-color="#7D8794"/>
</linearGradient>
<radialGradient id="paint70_radial_10503_34725" cx="0" cy="0" r="1" gradientUnits="userSpaceOnUse" gradientTransform="translate(119.26 71.7837) rotate(90) scale(39.5291 19.2006)">
<stop stop-color="#EFEAD5"/>
<stop offset="1" stop-color="#EFEAD5" stop-opacity="0"/>
</radialGradient>
</defs>
</svg>
