<svg viewBox="0 0 240 120" fill="none" xmlns="http://www.w3.org/2000/svg">
<path d="M7.74111 60.7584C4.70599 71.2319 7.74113 80.8714 20.7221 90.0373H220.413C238.844 81.095 227.191 71.5072 223.459 60.7584C221.055 53.8352 227.786 49.5084 221.696 41.7199C215.606 33.9314 209.195 35.9507 201.182 29.7488C193.168 23.5469 196.374 15.47 182.911 11.2873C169.449 7.10459 161.275 10.7104 149.736 10.5661C138.197 10.4219 129.703 5.23011 112.875 4.65319C96.0472 4.07626 90.1174 10.2776 80.3412 12.4411C70.5649 14.6045 55.3397 9.55644 38.9925 14.6045C22.6454 19.6526 26.9726 36.0949 23.7677 41.7199C20.5628 47.3449 10.7762 50.2848 7.74111 60.7584Z" fill="url(#paint0_radial_10100_32567)"/>
<path d="M7.74111 60.7584C4.70599 71.2319 7.74113 80.8714 20.7221 90.0373H220.413C238.844 81.095 227.191 71.5072 223.459 60.7584C221.055 53.8352 227.786 49.5084 221.696 41.7199C215.606 33.9314 209.195 35.9507 201.182 29.7488C193.168 23.5469 196.374 15.47 182.911 11.2873C169.449 7.10459 161.275 10.7104 149.736 10.5661C138.197 10.4219 129.703 5.23011 112.875 4.65319C96.0472 4.07626 90.1174 10.2776 80.3412 12.4411C70.5649 14.6045 55.3397 9.55644 38.9925 14.6045C22.6454 19.6526 26.9726 36.0949 23.7677 41.7199C20.5628 47.3449 10.7762 50.2848 7.74111 60.7584Z" fill="url(#paint1_radial_10100_32567)"/>
<path d="M115.217 49.4503C115.217 55.057 110.672 59.6022 105.065 59.6022C99.4583 59.6022 94.9131 55.057 94.9131 49.4503C94.9131 43.8435 99.4583 39.2983 105.065 39.2983C110.672 39.2983 115.217 43.8435 115.217 49.4503Z" fill="url(#paint2_radial_10100_32567)"/>
<path d="M175.103 48.0111H217.45C216.492 45.2048 213.136 42.219 210.471 44.992C210.471 40.4583 204.359 39.1306 201.7 42.2579C199.744 35.8689 187.458 37.3883 187.458 44.1441C183.924 39.7809 176.481 43.7979 175.103 48.0111Z" fill="url(#paint3_radial_10100_32567)"/>
<path d="M70.5288 50.6575C68.5095 50.6575 60.7211 61.0296 52.9326 64.6599L80.3364 75.8963C84.423 71.978 107.798 55.4978 107.452 54.8063C107.019 53.942 100.673 48.9288 98.2211 50.6575C95.7691 52.3862 94.7595 50.6575 93.173 48.9288C91.5864 47.2001 89.423 46.8544 86.8268 49.7931C84.2307 52.7319 79.7595 48.4102 76.7307 50.6575C73.7018 52.9048 72.548 50.6575 70.5288 50.6575Z" fill="url(#paint4_linear_10100_32567)"/>
<path d="M70.5288 50.6575C68.5095 50.6575 60.7211 61.0296 52.9326 64.6599L80.3364 75.8963C84.423 71.978 107.798 55.4978 107.452 54.8063C107.019 53.942 100.673 48.9288 98.2211 50.6575C95.7691 52.3862 94.7595 50.6575 93.173 48.9288C91.5864 47.2001 89.423 46.8544 86.8268 49.7931C84.2307 52.7319 79.7595 48.4102 76.7307 50.6575C73.7018 52.9048 72.548 50.6575 70.5288 50.6575Z" fill="url(#paint5_radial_10100_32567)"/>
<path d="M70.5288 50.6575C68.5095 50.6575 60.7211 61.0296 52.9326 64.6599L80.3364 75.8963C84.423 71.978 107.798 55.4978 107.452 54.8063C107.019 53.942 100.673 48.9288 98.2211 50.6575C95.7691 52.3862 94.7595 50.6575 93.173 48.9288C91.5864 47.2001 89.423 46.8544 86.8268 49.7931C84.2307 52.7319 79.7595 48.4102 76.7307 50.6575C73.7018 52.9048 72.548 50.6575 70.5288 50.6575Z" fill="url(#paint6_radial_10100_32567)"/>
<path d="M125.705 38.8178C121.551 39.6476 100.433 57.918 89.7114 66.0428L103.99 77.1061H176.827L194.863 70.4759C188.949 63.9069 175.417 45.6405 169.359 45.8134C163.302 45.9862 155.652 33.5517 150.171 33.206C144.69 32.8603 140.581 41.2172 136.254 41.7358C131.927 42.2544 130.897 37.7806 125.705 38.8178Z" fill="url(#paint7_linear_10100_32567)"/>
<path d="M125.705 38.8178C121.551 39.6476 100.433 57.918 89.7114 66.0428L103.99 77.1061H176.827L194.863 70.4759C188.949 63.9069 175.417 45.6405 169.359 45.8134C163.302 45.9862 155.652 33.5517 150.171 33.206C144.69 32.8603 140.581 41.2172 136.254 41.7358C131.927 42.2544 130.897 37.7806 125.705 38.8178Z" fill="url(#paint8_linear_10100_32567)"/>
<path d="M125.705 38.8178C121.551 39.6476 100.433 57.918 89.7114 66.0428L103.99 77.1061H176.827L194.863 70.4759C188.949 63.9069 175.417 45.6405 169.359 45.8134C163.302 45.9862 155.652 33.5517 150.171 33.206C144.69 32.8603 140.581 41.2172 136.254 41.7358C131.927 42.2544 130.897 37.7806 125.705 38.8178Z" fill="url(#paint9_radial_10100_32567)"/>
<path d="M125.705 38.8178C121.551 39.6476 100.433 57.918 89.7114 66.0428L103.99 77.1061H176.827L194.863 70.4759C188.949 63.9069 175.417 45.6405 169.359 45.8134C163.302 45.9862 155.652 33.5517 150.171 33.206C144.69 32.8603 140.581 41.2172 136.254 41.7358C131.927 42.2544 130.897 37.7806 125.705 38.8178Z" fill="url(#paint10_radial_10100_32567)"/>
<path d="M106.37 52.7615C106.387 53.3638 106.429 53.9906 106.519 54.632C107.555 62.0177 136.589 57.0437 137.524 61.3342C138.656 66.5623 118.993 67.4273 118.99 69.9475H108.561C108.562 65.3521 131.431 64.0702 131.218 61.3342C131.004 58.6589 106.037 63.7384 104.968 53.8883C105.435 53.5112 105.904 53.137 106.37 52.7615Z" fill="#FBF1D5"/>
<path d="M105.453 67.5977C108.194 69.845 123.284 69.8454 123.284 72.5245C123.284 74.3912 112.473 76.3566 108.626 77.1059C102.352 75.5788 90.4389 72.5245 92.9774 72.5245C96.1504 72.5245 102.713 65.3504 105.453 67.5977Z" fill="url(#paint11_linear_10100_32567)"/>
<path d="M105.453 67.5977C108.194 69.845 123.284 69.8454 123.284 72.5245C123.284 74.3912 112.473 76.3566 108.626 77.1059C102.352 75.5788 90.4389 72.5245 92.9774 72.5245C96.1504 72.5245 102.713 65.3504 105.453 67.5977Z" fill="url(#paint12_radial_10100_32567)"/>
<path d="M105.453 67.5977C108.194 69.845 123.284 69.8454 123.284 72.5245C123.284 74.3912 112.473 76.3566 108.626 77.1059C102.352 75.5788 90.4389 72.5245 92.9774 72.5245C96.1504 72.5245 102.713 65.3504 105.453 67.5977Z" fill="url(#paint13_radial_10100_32567)"/>
<path d="M140.049 65.7725C135.29 67.6741 127.117 69.2163 120.915 74.5753L125.482 86.5172H181.443L189.664 71.4776C185.77 71.6504 168.03 61.6236 166.876 60.4136C165.722 59.2035 156.059 56.7833 153.03 57.8205C150.001 58.8577 144.809 63.8709 140.049 65.7725Z" fill="url(#paint14_linear_10100_32567)"/>
<path d="M140.049 65.7725C135.29 67.6741 127.117 69.2163 120.915 74.5753L125.482 86.5172H181.443L189.664 71.4776C185.77 71.6504 168.03 61.6236 166.876 60.4136C165.722 59.2035 156.059 56.7833 153.03 57.8205C150.001 58.8577 144.809 63.8709 140.049 65.7725Z" fill="url(#paint15_radial_10100_32567)"/>
<path d="M140.049 65.7725C135.29 67.6741 127.117 69.2163 120.915 74.5753L125.482 86.5172H181.443L189.664 71.4776C185.77 71.6504 168.03 61.6236 166.876 60.4136C165.722 59.2035 156.059 56.7833 153.03 57.8205C150.001 58.8577 144.809 63.8709 140.049 65.7725Z" fill="url(#paint16_radial_10100_32567)"/>
<path d="M78.3173 63.3528C72.9807 68.1931 63.0288 72.1691 59.2788 78.3924C65.625 80.87 79.7307 86.1365 85.3846 87.3812C92.4519 88.937 128.602 81.8497 133.074 78.3924C106.102 73.6385 106.01 68.7117 98.798 67.8474C91.5865 66.983 83.6538 58.5124 78.3173 63.3528Z" fill="url(#paint17_linear_10100_32567)"/>
<path d="M78.3173 63.3528C72.9807 68.1931 63.0288 72.1691 59.2788 78.3924C65.625 80.87 79.7307 86.1365 85.3846 87.3812C92.4519 88.937 128.602 81.8497 133.074 78.3924C106.102 73.6385 106.01 68.7117 98.798 67.8474C91.5865 66.983 83.6538 58.5124 78.3173 63.3528Z" fill="url(#paint18_radial_10100_32567)"/>
<path d="M78.3173 63.3528C72.9807 68.1931 63.0288 72.1691 59.2788 78.3924C65.625 80.87 79.7307 86.1365 85.3846 87.3812C92.4519 88.937 128.602 81.8497 133.074 78.3924C106.102 73.6385 106.01 68.7117 98.798 67.8474C91.5865 66.983 83.6538 58.5124 78.3173 63.3528Z" fill="url(#paint19_radial_10100_32567)"/>
<path d="M29.0735 52.9376C27.9659 52.9625 25.6749 53.2507 25.3711 54.2048H57.0787C57.7432 52.9376 54.6864 51.4764 53.0915 51.8938C53.756 50.85 50.9081 48.5395 48.2499 49.3596C48.8195 42.502 34.0816 43.9567 34.7695 48.9125C32.6809 48.018 27.3647 51.1487 29.0735 52.9376Z" fill="url(#paint20_radial_10100_32567)"/>
<path d="M106.055 21.9531C103.093 22.0552 97.659 25.2491 96.8013 27.9448H163.888C163.888 25.4948 157.608 22.277 153.319 24.2688C153.932 20.5928 149.337 15.9972 144.436 20.1327C145.355 12.3206 136.012 10.3301 132.642 13.8535C130.51 9.23078 120.596 5.75953 112.995 9.22964C105.394 12.6998 104.03 17.817 106.055 21.9531Z" fill="url(#paint21_radial_10100_32567)"/>
<path d="M45.5768 68.7111C37.7884 75.6258 20.6249 87.7267 22.3557 93.6042H97.3556C90.9613 84.9031 69.4325 67.0515 66.7787 65.2537C63.4614 63.0064 53.3653 61.7963 45.5768 68.7111Z" fill="url(#paint22_linear_10100_32567)"/>
<path d="M45.5768 68.7111C37.7884 75.6258 20.6249 87.7267 22.3557 93.6042H97.3556C90.9613 84.9031 69.4325 67.0515 66.7787 65.2537C63.4614 63.0064 53.3653 61.7963 45.5768 68.7111Z" fill="url(#paint23_radial_10100_32567)"/>
<path d="M45.5768 68.7111C37.7884 75.6258 20.6249 87.7267 22.3557 93.6042H97.3556C90.9613 84.9031 69.4325 67.0515 66.7787 65.2537C63.4614 63.0064 53.3653 61.7963 45.5768 68.7111Z" fill="url(#paint24_radial_10100_32567)"/>
<path d="M31.0082 96.7788C29.9986 95.4807 13.8452 94.4711 13.2683 91.5865C12.6914 88.7019 81.1139 87.4038 120.575 87.4038C169.902 87.4038 228.893 87.4038 227.018 91.5865C225.143 95.7692 215.624 95.1923 214.47 96.7788C213.316 98.3653 218.797 97.9327 215.624 99.9519C212.451 101.971 199.176 101.544 197.157 103.419C195.138 105.294 201.916 105.582 199.897 106.736C197.878 107.89 188.936 107.169 186.195 108.755C183.455 110.342 190.234 112.505 188.936 113.515C187.638 114.524 173.508 116.25 125.624 116.25C52.9778 116.25 38.9409 107.452 37.6428 105.288C36.3448 103.125 40.5274 103.413 38.9409 102.115C37.3544 100.817 31.0082 101.683 28.989 99.9519C26.9698 98.2211 32.0178 98.0769 31.0082 96.7788Z" fill="url(#paint25_linear_10100_32567)"/>
<path d="M31.0082 96.7788C29.9986 95.4807 13.8452 94.4711 13.2683 91.5865C12.6914 88.7019 81.1139 87.4038 120.575 87.4038C169.902 87.4038 228.893 87.4038 227.018 91.5865C225.143 95.7692 215.624 95.1923 214.47 96.7788C213.316 98.3653 218.797 97.9327 215.624 99.9519C212.451 101.971 199.176 101.544 197.157 103.419C195.138 105.294 201.916 105.582 199.897 106.736C197.878 107.89 188.936 107.169 186.195 108.755C183.455 110.342 190.234 112.505 188.936 113.515C187.638 114.524 173.508 116.25 125.624 116.25C52.9778 116.25 38.9409 107.452 37.6428 105.288C36.3448 103.125 40.5274 103.413 38.9409 102.115C37.3544 100.817 31.0082 101.683 28.989 99.9519C26.9698 98.2211 32.0178 98.0769 31.0082 96.7788Z" fill="url(#paint26_radial_10100_32567)"/>
<path d="M31.0082 96.7788C29.9986 95.4807 13.8452 94.4711 13.2683 91.5865C12.6914 88.7019 81.1139 87.4038 120.575 87.4038C169.902 87.4038 228.893 87.4038 227.018 91.5865C225.143 95.7692 215.624 95.1923 214.47 96.7788C213.316 98.3653 218.797 97.9327 215.624 99.9519C212.451 101.971 199.176 101.544 197.157 103.419C195.138 105.294 201.916 105.582 199.897 106.736C197.878 107.89 188.936 107.169 186.195 108.755C183.455 110.342 190.234 112.505 188.936 113.515C187.638 114.524 173.508 116.25 125.624 116.25C52.9778 116.25 38.9409 107.452 37.6428 105.288C36.3448 103.125 40.5274 103.413 38.9409 102.115C37.3544 100.817 31.0082 101.683 28.989 99.9519C26.9698 98.2211 32.0178 98.0769 31.0082 96.7788Z" fill="url(#paint27_radial_10100_32567)"/>
<path d="M196.154 66.6392C192.404 66.6392 184.615 72.6896 170.625 76.8384L174.519 90.8408C190.433 91.9357 222.952 93.4684 225.721 90.8408C223.269 90.668 199.904 66.6392 196.154 66.6392Z" fill="url(#paint28_linear_10100_32567)"/>
<path d="M196.154 66.6392C192.404 66.6392 184.615 72.6896 170.625 76.8384L174.519 90.8408C190.433 91.9357 222.952 93.4684 225.721 90.8408C223.269 90.668 199.904 66.6392 196.154 66.6392Z" fill="url(#paint29_radial_10100_32567)"/>
<path d="M196.154 66.6392C192.404 66.6392 184.615 72.6896 170.625 76.8384L174.519 90.8408C190.433 91.9357 222.952 93.4684 225.721 90.8408C223.269 90.668 199.904 66.6392 196.154 66.6392Z" fill="url(#paint30_radial_10100_32567)"/>
<path d="M54.2306 73.6658C49.9037 73.6658 37.2115 87.8514 18.75 92.9061C28.5576 99.7543 98.2208 89.5363 96.7785 87.8514C87.692 82.7968 68.6536 73.0788 65.1921 74.6441C60.8652 76.6007 58.5575 73.6658 54.2306 73.6658Z" fill="url(#paint31_linear_10100_32567)"/>
<path d="M54.2306 73.6658C49.9037 73.6658 37.2115 87.8514 18.75 92.9061C28.5576 99.7543 98.2208 89.5363 96.7785 87.8514C87.692 82.7968 68.6536 73.0788 65.1921 74.6441C60.8652 76.6007 58.5575 73.6658 54.2306 73.6658Z" fill="url(#paint32_radial_10100_32567)"/>
<path d="M54.2306 73.6658C49.9037 73.6658 37.2115 87.8514 18.75 92.9061C28.5576 99.7543 98.2208 89.5363 96.7785 87.8514C87.692 82.7968 68.6536 73.0788 65.1921 74.6441C60.8652 76.6007 58.5575 73.6658 54.2306 73.6658Z" fill="url(#paint33_radial_10100_32567)"/>
<path d="M54.2306 73.6658C49.9037 73.6658 37.2115 87.8514 18.75 92.9061C28.5576 99.7543 98.2208 89.5363 96.7785 87.8514C87.692 82.7968 68.6536 73.0788 65.1921 74.6441C60.8652 76.6007 58.5575 73.6658 54.2306 73.6658Z" fill="url(#paint34_radial_10100_32567)"/>
<path d="M154.182 73.0135C149.855 74.644 130.816 85.5686 111.489 88.1774C99.3738 96.8192 156.922 99.2651 189.951 96.8193C222.98 94.3735 202.787 90.7864 196.297 89.9711C189.807 89.1558 174.518 76.9267 170.191 73.9918C165.864 71.0568 158.508 71.3829 154.182 73.0135Z" fill="url(#paint35_linear_10100_32567)"/>
<path d="M154.182 73.0135C149.855 74.644 130.816 85.5686 111.489 88.1774C99.3738 96.8192 156.922 99.2651 189.951 96.8193C222.98 94.3735 202.787 90.7864 196.297 89.9711C189.807 89.1558 174.518 76.9267 170.191 73.9918C165.864 71.0568 158.508 71.3829 154.182 73.0135Z" fill="url(#paint36_radial_10100_32567)"/>
<path d="M154.182 73.0135C149.855 74.644 130.816 85.5686 111.489 88.1774C99.3738 96.8192 156.922 99.2651 189.951 96.8193C222.98 94.3735 202.787 90.7864 196.297 89.9711C189.807 89.1558 174.518 76.9267 170.191 73.9918C165.864 71.0568 158.508 71.3829 154.182 73.0135Z" fill="url(#paint37_radial_10100_32567)"/>
<path d="M110.192 75.559C110.192 73.6894 120.721 73.914 120.721 72.6196C120.721 71.1454 113.102 69.824 110.867 69.2307C110.867 69.2307 128.509 70.4531 128.509 72.1073C128.509 73.7616 123.534 74.3549 123.534 75.9369C123.534 77.5189 140.481 77.2849 140.769 80.5928C141.058 83.9007 112.861 88.1434 112.861 91.5951C112.861 95.0469 130.962 91.2356 145.385 98.4267C159.808 105.618 162.837 120 162.837 120H84.231C95.1443 115.541 116.769 105.503 115.961 101.015C114.952 95.4064 88.5575 96.9884 88.9902 89.7974C89.4229 82.6063 126.491 81.5579 126.491 80.1197C126.491 78.6814 110.192 77.4287 110.192 75.559Z" fill="url(#paint38_linear_10100_32567)"/>
<path d="M52.7317 38.191L96.8002 38.191C95.418 34.1432 90.578 29.8366 86.7334 33.8363C86.7334 27.2969 77.918 25.3819 74.0818 29.8926C70.7424 18.9854 49.0746 24.543 52.7317 38.191Z" fill="url(#paint39_radial_10100_32567)"/>
<defs>
<radialGradient id="paint0_radial_10100_32567" cx="0" cy="0" r="1" gradientUnits="userSpaceOnUse" gradientTransform="translate(115.119 79.0259) scale(235.715 117.787)">
<stop offset="0.303241" stop-color="#98F8E6"/>
<stop offset="0.659515" stop-color="#748AC5"/>
</radialGradient>
<radialGradient id="paint1_radial_10100_32567" cx="0" cy="0" r="1" gradientTransform="matrix(89.7486 9.23076 -10.257 80.7692 104.862 71.143)" gradientUnits="userSpaceOnUse">
<stop offset="0.283654" stop-color="#FFC89C"/>
<stop offset="0.716346" stop-color="#FFE299" stop-opacity="0"/>
</radialGradient>
<radialGradient id="paint2_radial_10100_32567" cx="0" cy="0" r="1" gradientUnits="userSpaceOnUse" gradientTransform="translate(105.065 49.4503) rotate(90.9432) scale(24.1392)">
<stop stop-color="#FFF2BE"/>
<stop offset="0.48" stop-color="#FFE06B"/>
<stop offset="0.93" stop-color="#FFB180"/>
</radialGradient>
<radialGradient id="paint3_radial_10100_32567" cx="0" cy="0" r="1" gradientTransform="matrix(-2.35946 -14.5694 35.6727 -3.31658 194.035 49.0634)" gradientUnits="userSpaceOnUse">
<stop offset="0.132951" stop-color="white"/>
<stop offset="1" stop-color="#FFF2C2" stop-opacity="0"/>
</radialGradient>
<linearGradient id="paint4_linear_10100_32567" x1="97.7884" y1="85.4041" x2="103.975" y2="42.2273" gradientUnits="userSpaceOnUse">
<stop stop-color="#67C3DC"/>
<stop offset="1" stop-color="#D1D1FF"/>
</linearGradient>
<radialGradient id="paint5_radial_10100_32567" cx="0" cy="0" r="1" gradientTransform="matrix(-40.6731 3.57082 -1.39641 -22.8492 92.0192 47.6052)" gradientUnits="userSpaceOnUse">
<stop stop-color="#023352" stop-opacity="0"/>
<stop offset="0.720073" stop-color="#023352"/>
</radialGradient>
<radialGradient id="paint6_radial_10100_32567" cx="0" cy="0" r="1" gradientTransform="matrix(21.6167 9.40333 -4.30309 12.0776 96.0755 40.3898)" gradientUnits="userSpaceOnUse">
<stop stop-color="#BEF3EA"/>
<stop offset="1" stop-color="#FFDAC2" stop-opacity="0"/>
</radialGradient>
<linearGradient id="paint7_linear_10100_32567" x1="194.134" y1="72.9567" x2="185.546" y2="30.9437" gradientUnits="userSpaceOnUse">
<stop stop-color="#67C3DC"/>
<stop offset="1" stop-color="#D1D1FF"/>
</linearGradient>
<linearGradient id="paint8_linear_10100_32567" x1="156.923" y1="2.77189" x2="163.532" y2="66.1799" gradientUnits="userSpaceOnUse">
<stop stop-color="#023352" stop-opacity="0"/>
<stop offset="1" stop-color="#023352"/>
</linearGradient>
<radialGradient id="paint9_radial_10100_32567" cx="0" cy="0" r="1" gradientTransform="matrix(21.6346 -16.9412 5.65622 10.3765 117.404 45.6434)" gradientUnits="userSpaceOnUse">
<stop stop-color="#BEF3EA" stop-opacity="0.7"/>
<stop offset="1" stop-color="#FFDAC2" stop-opacity="0"/>
</radialGradient>
<radialGradient id="paint10_radial_10100_32567" cx="0" cy="0" r="1" gradientTransform="matrix(14.4231 -36.6482 9.81453 5.54872 144.231 40.1116)" gradientUnits="userSpaceOnUse">
<stop stop-color="#BEF3EA" stop-opacity="0.7"/>
<stop offset="1" stop-color="#FFDAC2" stop-opacity="0"/>
</radialGradient>
<linearGradient id="paint11_linear_10100_32567" x1="115.282" y1="80.4478" x2="116.812" y2="65.1125" gradientUnits="userSpaceOnUse">
<stop stop-color="#67C3DC"/>
<stop offset="1" stop-color="#D1D1FF"/>
</linearGradient>
<radialGradient id="paint12_radial_10100_32567" cx="0" cy="0" r="1" gradientTransform="matrix(-20.542 1.25511 -0.705262 -8.03126 112.369 67.1619)" gradientUnits="userSpaceOnUse">
<stop offset="0.164636" stop-color="#023352" stop-opacity="0"/>
<stop offset="1" stop-color="#023352"/>
</radialGradient>
<radialGradient id="paint13_radial_10100_32567" cx="0" cy="0" r="1" gradientTransform="matrix(10.3125 1.72464 -2.08055 5.42325 107.761 65.4372)" gradientUnits="userSpaceOnUse">
<stop offset="0.230769" stop-color="#BEF3EA"/>
<stop offset="1" stop-color="#FFDAC2" stop-opacity="0"/>
</radialGradient>
<linearGradient id="paint14_linear_10100_32567" x1="191.678" y1="136.967" x2="138.251" y2="22.5335" gradientUnits="userSpaceOnUse">
<stop stop-color="#08494E"/>
<stop offset="1" stop-color="#96D57E"/>
</linearGradient>
<radialGradient id="paint15_radial_10100_32567" cx="0" cy="0" r="1" gradientTransform="matrix(-24.1719 -29.6525 23.6504 -18.8943 178.859 67.1274)" gradientUnits="userSpaceOnUse">
<stop stop-color="#093C41"/>
<stop offset="0.665761" stop-color="#093C41" stop-opacity="0.477412"/>
<stop offset="1" stop-color="#093C41" stop-opacity="0"/>
</radialGradient>
<radialGradient id="paint16_radial_10100_32567" cx="0" cy="0" r="1" gradientTransform="matrix(9.87981 -16.582 11.6874 6.18206 144.808 57.5684)" gradientUnits="userSpaceOnUse">
<stop stop-color="#FFDAC2"/>
<stop offset="1" stop-color="#FFC7A3" stop-opacity="0"/>
</radialGradient>
<linearGradient id="paint17_linear_10100_32567" x1="41.9423" y1="116.639" x2="89.9737" y2="32.5676" gradientUnits="userSpaceOnUse">
<stop stop-color="#08494E"/>
<stop offset="1" stop-color="#B0F098"/>
</linearGradient>
<radialGradient id="paint18_radial_10100_32567" cx="0" cy="0" r="1" gradientTransform="matrix(8.25823 -36.0035 29.7209 8.36611 69.9138 83.2914)" gradientUnits="userSpaceOnUse">
<stop stop-color="#093C41"/>
<stop offset="1" stop-color="#093C41" stop-opacity="0"/>
</radialGradient>
<radialGradient id="paint19_radial_10100_32567" cx="0" cy="0" r="1" gradientTransform="matrix(-15.4291 -12.2552 6.22538 -11.2591 100.673 65.0811)" gradientUnits="userSpaceOnUse">
<stop stop-color="#FFDAC2" stop-opacity="0.9"/>
<stop offset="1" stop-color="#FFC7A3" stop-opacity="0"/>
</radialGradient>
<radialGradient id="paint20_radial_10100_32567" cx="0" cy="0" r="1" gradientTransform="matrix(-1.77184 -13.8493 26.7884 -3.15265 39.5881 55.2047)" gradientUnits="userSpaceOnUse">
<stop offset="0.132951" stop-color="white"/>
<stop offset="1" stop-color="#FFF2C2" stop-opacity="0"/>
</radialGradient>
<radialGradient id="paint21_radial_10100_32567" cx="0" cy="0" r="1" gradientTransform="matrix(-3.73786 -37.5585 56.5127 -8.5498 126.793 30.658)" gradientUnits="userSpaceOnUse">
<stop offset="0.132951" stop-color="white"/>
<stop offset="1" stop-color="#FFF2C2" stop-opacity="0"/>
</radialGradient>
<linearGradient id="paint22_linear_10100_32567" x1="3.46135" y1="127.66" x2="61.8904" y2="33.1338" gradientUnits="userSpaceOnUse">
<stop stop-color="#08494E"/>
<stop offset="1" stop-color="#B0F098"/>
</linearGradient>
<radialGradient id="paint23_radial_10100_32567" cx="0" cy="0" r="1" gradientTransform="matrix(8.94231 -42.18 32.1828 9.80134 33.7498 88.5916)" gradientUnits="userSpaceOnUse">
<stop stop-color="#093C41"/>
<stop offset="1" stop-color="#093C41" stop-opacity="0"/>
</radialGradient>
<radialGradient id="paint24_radial_10100_32567" cx="0" cy="0" r="1" gradientTransform="matrix(-27.2461 -10.5935 5.8756 -21.7088 77.596 63.4932)" gradientUnits="userSpaceOnUse">
<stop stop-color="#FFDAC2" stop-opacity="0.8"/>
<stop offset="1" stop-color="#FFC7A3" stop-opacity="0"/>
</radialGradient>
<linearGradient id="paint25_linear_10100_32567" x1="103.556" y1="175.961" x2="65.4543" y2="76.9699" gradientUnits="userSpaceOnUse">
<stop stop-color="#D6A200"/>
<stop offset="1" stop-color="#FFC066"/>
</linearGradient>
<radialGradient id="paint26_radial_10100_32567" cx="0" cy="0" r="1" gradientUnits="userSpaceOnUse" gradientTransform="translate(114.806 98.9423) scale(83.3654 27.0725)">
<stop stop-color="#FFE990"/>
<stop offset="0.879751" stop-color="#FFE990" stop-opacity="0"/>
</radialGradient>
<radialGradient id="paint27_radial_10100_32567" cx="0" cy="0" r="1" gradientUnits="userSpaceOnUse" gradientTransform="translate(124.037 94.9735) rotate(179.894) scale(118.558 35.8415)">
<stop stop-color="#FFCB34" stop-opacity="0"/>
<stop offset="0.618526" stop-color="#C99120" stop-opacity="0.393498"/>
<stop offset="1" stop-color="#763800"/>
</radialGradient>
<linearGradient id="paint28_linear_10100_32567" x1="227.308" y1="136.997" x2="176.462" y2="40.1978" gradientUnits="userSpaceOnUse">
<stop stop-color="#08494E"/>
<stop offset="1" stop-color="#B0F098"/>
</linearGradient>
<radialGradient id="paint29_radial_10100_32567" cx="0" cy="0" r="1" gradientTransform="matrix(-19.0385 -26.2761 18.6277 -16.7429 217.212 75.1097)" gradientUnits="userSpaceOnUse">
<stop stop-color="#093C41"/>
<stop offset="0.665761" stop-color="#093C41" stop-opacity="0.477412"/>
<stop offset="1" stop-color="#093C41" stop-opacity="0"/>
</radialGradient>
<radialGradient id="paint30_radial_10100_32567" cx="0" cy="0" r="1" gradientTransform="matrix(16.1538 -17.9784 12.2753 13.2836 182.019 69.9237)" gradientUnits="userSpaceOnUse">
<stop stop-color="#FFDAC2" stop-opacity="0.8"/>
<stop offset="1" stop-color="#FFC7A3" stop-opacity="0"/>
</radialGradient>
<linearGradient id="paint31_linear_10100_32567" x1="32.5962" y1="114.429" x2="39.247" y2="66.9058" gradientUnits="userSpaceOnUse">
<stop stop-color="#D6A200"/>
<stop offset="1" stop-color="#FFC066"/>
</linearGradient>
<radialGradient id="paint32_radial_10100_32567" cx="0" cy="0" r="1" gradientTransform="matrix(-30.2885 -16.9575 8.01291 -18.2914 77.3077 77.2529)" gradientUnits="userSpaceOnUse">
<stop stop-color="#FFE990"/>
<stop offset="0.879751" stop-color="#FFE990" stop-opacity="0"/>
</radialGradient>
<radialGradient id="paint33_radial_10100_32567" cx="0" cy="0" r="1" gradientTransform="matrix(21.3462 -27.7191 11.3602 11.1807 33.75 82.1445)" gradientUnits="userSpaceOnUse">
<stop offset="0.177755" stop-color="#763800"/>
<stop offset="0.706219" stop-color="#AE7313" stop-opacity="0.48166"/>
<stop offset="0.93659" stop-color="#E2AA25" stop-opacity="0"/>
</radialGradient>
<radialGradient id="paint34_radial_10100_32567" cx="0" cy="0" r="1" gradientTransform="matrix(-6.92308 -28.5343 8.32088 -2.58015 67.3558 97.6346)" gradientUnits="userSpaceOnUse">
<stop stop-color="#763800" stop-opacity="0.4"/>
<stop offset="0.703423" stop-color="#B77D16" stop-opacity="0.2"/>
<stop offset="0.868549" stop-color="#E2AA25" stop-opacity="0"/>
</radialGradient>
<linearGradient id="paint35_linear_10100_32567" x1="154.21" y1="120.273" x2="138.366" y2="61.2003" gradientUnits="userSpaceOnUse">
<stop stop-color="#D6A200"/>
<stop offset="1" stop-color="#FFC066"/>
</linearGradient>
<radialGradient id="paint36_radial_10100_32567" cx="0" cy="0" r="1" gradientTransform="matrix(-51.9231 -42.3133 19.0347 -29.852 202.499 97.7171)" gradientUnits="userSpaceOnUse">
<stop stop-color="#763800"/>
<stop offset="0.704175" stop-color="#AE7313" stop-opacity="0.6"/>
<stop offset="0.873187" stop-color="#E2AA25" stop-opacity="0"/>
</radialGradient>
<radialGradient id="paint37_radial_10100_32567" cx="0" cy="0" r="1" gradientTransform="matrix(31.1538 -21.1969 10.5132 19.7477 143.364 74.6441)" gradientUnits="userSpaceOnUse">
<stop offset="0.152981" stop-color="#FFE990"/>
<stop offset="0.485046" stop-color="#FADC7B" stop-opacity="0.72239"/>
<stop offset="0.934699" stop-color="#EEBA44" stop-opacity="0"/>
</radialGradient>
<linearGradient id="paint38_linear_10100_32567" x1="103.558" y1="-4.69175" x2="114.744" y2="125.039" gradientUnits="userSpaceOnUse">
<stop stop-color="#EFCD70"/>
<stop offset="1" stop-color="#FDF8EA"/>
</linearGradient>
<radialGradient id="paint39_radial_10100_32567" cx="0" cy="0" r="1" gradientTransform="matrix(-3.40325 -21.0148 51.4538 -4.7838 63.0273 39.7092)" gradientUnits="userSpaceOnUse">
<stop offset="0.132951" stop-color="white"/>
<stop offset="1" stop-color="#FFF2C2" stop-opacity="0"/>
</radialGradient>
</defs>
</svg>
