<svg viewBox="0 0 240 120" fill="none" xmlns="http://www.w3.org/2000/svg">
<path d="M113.076 89.9993C113.076 89.9993 26.5382 97.4892 -3.05176e-05 119.701H239.71V76.1533C198.46 83.0763 113.076 89.9993 113.076 89.9993Z" fill="url(#paint0_linear_2690_181)"/>
<path d="M17.0978 48.5267C15.6127 45.5057 32.0152 30.4576 47.2303 24.7839C47.2303 24.7839 51.2427 20.9321 56.7224 18.6801C63.5721 15.8651 67.6805 15.9847 71.0379 22.0453C74.3953 28.106 75.8598 28.5522 82.6573 25.7857C88.7139 23.3208 98.6583 28.8049 100.467 34.7912C101.914 39.5802 99.2929 47.3877 98.0418 49.734C100.386 52.641 106.064 48.3725 113.09 47.5454C119.995 46.7325 125.185 50.2607 127.724 54.7684C130.264 59.2761 130.043 67.1056 125.428 71.0758C120.813 75.046 115.396 73.8932 109.146 70.6823C104.189 68.1356 97.5707 66.4201 97.5707 66.4201C97.5707 66.4201 99.1132 73.4997 98.3784 75.8708C97.6436 78.2419 92.8281 83.1696 86.9758 83.7845C76.8335 84.8502 73.0407 77.0132 68.7525 76.9327C58.1275 76.7332 46.1985 74.6078 35.9623 70.3516C25.7261 66.0954 14.1882 51.7632 17.0978 48.5267Z" fill="url(#paint1_radial_2690_181)"/>
<path d="M17.0978 48.5267C15.6127 45.5057 32.0152 30.4576 47.2303 24.7839C47.2303 24.7839 51.2427 20.9321 56.7224 18.6801C63.5721 15.8651 67.6805 15.9847 71.0379 22.0453C74.3953 28.106 75.8598 28.5522 82.6573 25.7857C88.7139 23.3208 98.6583 28.8049 100.467 34.7912C101.914 39.5802 99.2929 47.3877 98.0418 49.734C100.386 52.641 106.064 48.3725 113.09 47.5454C119.995 46.7325 125.185 50.2607 127.724 54.7684C130.264 59.2761 130.043 67.1056 125.428 71.0758C120.813 75.046 115.396 73.8932 109.146 70.6823C104.189 68.1356 97.5707 66.4201 97.5707 66.4201C97.5707 66.4201 99.1132 73.4997 98.3784 75.8708C97.6436 78.2419 92.8281 83.1696 86.9758 83.7845C76.8335 84.8502 73.0407 77.0132 68.7525 76.9327C58.1275 76.7332 46.1985 74.6078 35.9623 70.3516C25.7261 66.0954 14.1882 51.7632 17.0978 48.5267Z" fill="url(#paint2_radial_2690_181)"/>
<path fill-rule="evenodd" clip-rule="evenodd" d="M36.9589 70.7582C34.167 69.6464 31.5975 68.1443 29.2057 66.3219C38.4164 61.8639 41.7375 56.4978 43.6989 48.9514C45.2983 42.7983 37.4807 35.889 32.5577 32.6312C35.7943 30.4216 39.3037 28.3391 42.8475 26.6514C45.8014 33.8044 50.6898 47.4426 50.3944 54.202C50.0932 61.0923 41.6924 67.8602 36.9589 70.7582ZM66.3859 76.8579C63.2238 76.7162 59.9688 76.4081 56.6961 75.9285C55.8494 63.2474 59.0862 49.7976 62.9234 37.761C65.0239 31.1722 67.3178 23.9769 67.7089 18.0794C68.9254 18.9081 70.0163 20.202 71.0378 22.0458C73.7953 27.0235 75.2759 28.214 79.483 26.9478C77.4455 32.4545 76.3562 38.2224 75.4285 44.0013C73.3316 57.0887 71.4166 69.0413 66.3859 76.8579ZM105.174 69.1924C103.474 68.7535 101.921 68.5739 100.78 68.5048C98.9583 68.2808 97.2057 68.1978 96.4353 68.5219C96.457 62.4979 97.0765 50.1343 100.07 48.9189C101.548 49.461 103.549 49.2148 105.982 48.7669L105.174 69.1924Z" fill="url(#paint3_linear_2690_181)"/>
<path fill-rule="evenodd" clip-rule="evenodd" d="M36.9589 70.7582C34.167 69.6464 31.5975 68.1443 29.2057 66.3219C38.4164 61.8639 41.7375 56.4978 43.6989 48.9514C45.2983 42.7983 37.4807 35.889 32.5577 32.6312C35.7943 30.4216 39.3037 28.3391 42.8475 26.6514C45.8014 33.8044 50.6898 47.4426 50.3944 54.202C50.0932 61.0923 41.6924 67.8602 36.9589 70.7582ZM66.3859 76.8579C63.2238 76.7162 59.9688 76.4081 56.6961 75.9285C55.8494 63.2474 59.0862 49.7976 62.9234 37.761C65.0239 31.1722 67.3178 23.9769 67.7089 18.0794C68.9254 18.9081 70.0163 20.202 71.0378 22.0458C73.7953 27.0235 75.2759 28.214 79.483 26.9478C77.4455 32.4545 76.3562 38.2224 75.4285 44.0013C73.3316 57.0887 71.4166 69.0413 66.3859 76.8579ZM105.174 69.1924C103.474 68.7535 101.921 68.5739 100.78 68.5048C98.9583 68.2808 97.2057 68.1978 96.4353 68.5219C96.457 62.4979 97.0765 50.1343 100.07 48.9189C101.548 49.461 103.549 49.2148 105.982 48.7669L105.174 69.1924Z" fill="url(#paint4_radial_2690_181)"/>
<path d="M67.3141 35.2284C68.7836 31.8901 70.0914 28.9189 70.9259 26.3086C72.9823 27.4115 75.0484 28.287 77.3525 28.347C75.2325 32.6676 74.3726 39.1409 73.4405 46.1576C71.9967 57.0265 70.3798 69.1989 63.6379 76.6924C65.1331 76.8032 66.6128 76.8776 68.0695 76.9161C75.0118 70.5668 75.8539 58.4329 76.6296 47.2558C77.1447 39.8339 77.6305 32.8338 79.8537 28.2294C84.9226 27.9503 88.5932 27.6397 92.1628 31.5198C98.2139 38.0974 94.5366 45.922 94.0524 56.8386C93.6111 66.788 96.448 74.8843 88.1804 78.0975C79.9128 81.3107 75.4368 76.8833 69.7612 77.0867C71.0211 77.4419 72.2849 78.3626 73.7304 79.4159C76.7799 81.6379 80.6386 84.4495 86.9775 83.7834C95.6858 82.8684 100.218 78.7918 98.8513 68.4792C96.3735 56.5844 103.999 46.475 100.468 34.7901C98.66 28.8038 88.7156 23.3197 82.659 25.7846C75.8615 28.5511 74.397 28.1049 71.0396 22.0442C67.6822 15.9836 63.5738 15.864 56.7241 18.679C52.8261 20.2809 48.8782 22.7004 45.0142 25.0685C42.9954 26.3057 40.9996 27.5289 39.0456 28.6141C49.064 40.3632 57.3361 59.1478 35.075 69.9574C35.9176 70.3517 36.7527 70.679 37.6042 71.0088C58.3626 60.4963 52.6442 34.4025 47.4861 24.6823C48.4381 24.3359 49.3263 23.9264 50.2119 23.5182C52.8733 22.2915 62.1928 18.8028 64.0358 21.596C65.1305 23.2551 64.2826 25.4847 63.0306 28.7768C62.1748 31.027 61.1303 33.7735 60.3883 37.1734C60.2423 37.8424 60.0825 38.5632 59.9124 39.3304C57.9534 48.1669 54.6326 63.1461 55.3674 75.7223C56.3116 75.8739 57.2552 76.0113 58.1963 76.1345C56.8631 58.9712 62.8384 45.3965 67.3141 35.2284Z" fill="url(#paint5_radial_2690_181)"/>
<path fill-rule="evenodd" clip-rule="evenodd" d="M105.238 48.6039C105.238 48.6039 101.711 61.426 103.563 68.9388C111.78 71.4699 114.168 80.3864 122.675 76.6872C131.181 72.988 138.708 61.9442 129.467 49.1848C120.227 36.4254 116.171 47.1825 105.238 48.6039ZM107.462 66.499C105.294 63.3147 106.466 53.4317 110.256 50.6054C114.047 47.7792 126.288 49.4189 127.259 56.739C128.513 66.1918 124.696 69.3705 119.503 70.829C114.31 72.2874 109.629 69.6834 107.462 66.499Z" fill="url(#paint6_radial_2690_181)"/>
<path d="M27.725 65.139C28.484 65.7701 29.2605 66.3748 30.0473 66.9434C45.6569 60.0952 47.2466 48.645 43.1363 40.5768C40.5085 35.4189 36.3915 32.8783 33.5989 31.9307C32.7926 32.4647 32.001 33.0079 31.2279 33.5566C36.3277 35.1756 43.7076 39.818 42.5762 49.011C41.4147 58.4482 32.9136 63.4276 27.725 65.139Z" fill="url(#paint7_radial_2690_181)"/>
<path d="M63.433 38.9535C59.9164 36.7971 55.2898 44.9587 53.7297 49.4238C52.1727 53.888 50.1433 63.069 55.6158 66.5058C58.9471 67.6565 65.8401 69.2236 66.762 66.2866C67.9142 62.6153 63.9067 58.7769 62.6564 54.3248C61.4061 49.8727 70.1178 43.0524 63.433 38.9535Z" fill="url(#paint8_radial_2690_181)"/>
<path d="M63.433 38.9535C59.9164 36.7971 55.2898 44.9587 53.7297 49.4238C52.1727 53.888 50.1433 63.069 55.6158 66.5058C58.9471 67.6565 65.8401 69.2236 66.762 66.2866C67.9142 62.6153 63.9067 58.7769 62.6564 54.3248C61.4061 49.8727 70.1178 43.0524 63.433 38.9535Z" fill="url(#paint9_radial_2690_181)"/>
<path d="M37.6368 41.8496C38.4057 44.5873 36.8096 47.43 34.0718 48.1989C31.334 48.9678 28.4913 47.3717 27.7225 44.6339C26.9536 41.8961 28.5497 39.0534 31.2875 38.2846C34.0253 37.5157 36.868 39.1118 37.6368 41.8496Z" fill="url(#paint10_radial_2690_181)"/>
<path d="M37.6368 41.8496C38.4057 44.5873 36.8096 47.43 34.0718 48.1989C31.334 48.9678 28.4913 47.3717 27.7225 44.6339C26.9536 41.8961 28.5497 39.0534 31.2875 38.2846C34.0253 37.5157 36.868 39.1118 37.6368 41.8496Z" fill="url(#paint11_radial_2690_181)"/>
<path fill-rule="evenodd" clip-rule="evenodd" d="M17.0972 48.5267C16.7654 48.8958 16.6215 49.4091 16.642 50.0352C17.4628 50.544 18.5326 50.9964 19.7666 51.2519C21.8742 51.6883 24.5176 51.565 27.3464 50.1413L26.5277 48.5146C24.0905 49.7412 21.869 49.8275 20.1359 49.4686C19.4386 49.3242 16.7152 47.7497 17.0972 48.5267Z" fill="#271B35"/>
<path d="M192.822 119.999H133.184C129.567 117.723 127.54 114.861 126.245 111.955C121.6 101.531 126.698 73.772 164.087 62.1024C201.476 50.4329 221.417 54.7382 221.417 54.7382C221.417 54.7382 234.097 53.8251 239.998 64.032V96.164C234.886 104.691 224.908 112.279 208.048 116.486C202.617 117.842 197.551 119.007 192.822 119.999Z" fill="url(#paint12_radial_2690_181)"/>
<path fill-rule="evenodd" clip-rule="evenodd" d="M154.167 48.4782C162.08 49.136 167.447 51.8786 171.757 56.1018C175.608 59.8754 178.76 65.1244 181.902 69.5379C187.713 77.7017 199.641 77.2232 205.907 86.1687L197.264 92.2234C191.324 83.7433 179.532 84.4067 173.304 75.6578C169.393 70.1626 167.332 66.5399 164.371 63.6395C161.87 61.1888 158.828 59.455 153.292 58.9949C146.511 58.4312 147.385 47.9145 154.167 48.4782Z" fill="url(#paint13_linear_2690_181)"/>
<path fill-rule="evenodd" clip-rule="evenodd" d="M154.167 48.4782C162.08 49.136 167.447 51.8786 171.757 56.1018C175.608 59.8754 178.76 65.1244 181.902 69.5379C187.713 77.7017 199.641 77.2232 205.907 86.1687L197.264 92.2234C191.324 83.7433 179.532 84.4067 173.304 75.6578C169.393 70.1626 167.332 66.5399 164.371 63.6395C161.87 61.1888 158.828 59.455 153.292 58.9949C146.511 58.4312 147.385 47.9145 154.167 48.4782Z" fill="url(#paint14_radial_2690_181)"/>
<path fill-rule="evenodd" clip-rule="evenodd" d="M154.167 48.4782C162.08 49.136 167.447 51.8786 171.757 56.1018C175.608 59.8754 178.76 65.1244 181.902 69.5379C187.713 77.7017 199.641 77.2232 205.907 86.1687L197.264 92.2234C191.324 83.7433 179.532 84.4067 173.304 75.6578C169.393 70.1626 167.332 66.5399 164.371 63.6395C161.87 61.1888 158.828 59.455 153.292 58.9949C146.511 58.4312 147.385 47.9145 154.167 48.4782Z" fill="url(#paint15_radial_2690_181)"/>
<path fill-rule="evenodd" clip-rule="evenodd" d="M154.167 48.4782C162.08 49.136 167.447 51.8786 171.757 56.1018C175.608 59.8754 178.76 65.1244 181.902 69.5379C187.713 77.7017 199.641 77.2232 205.907 86.1687L197.264 92.2234C191.324 83.7433 179.532 84.4067 173.304 75.6578C169.393 70.1626 167.332 66.5399 164.371 63.6395C161.87 61.1888 158.828 59.455 153.292 58.9949C146.511 58.4312 147.385 47.9145 154.167 48.4782Z" fill="url(#paint16_radial_2690_181)"/>
<path fill-rule="evenodd" clip-rule="evenodd" d="M154.167 48.4782C162.08 49.136 167.447 51.8786 171.757 56.1018C175.608 59.8754 178.76 65.1244 181.902 69.5379C187.713 77.7017 199.641 77.2232 205.907 86.1687L197.264 92.2234C191.324 83.7433 179.532 84.4067 173.304 75.6578C169.393 70.1626 167.332 66.5399 164.371 63.6395C161.87 61.1888 158.828 59.455 153.292 58.9949C146.511 58.4312 147.385 47.9145 154.167 48.4782Z" fill="url(#paint17_radial_2690_181)"/>
<path fill-rule="evenodd" clip-rule="evenodd" d="M210.31 48.728C206.416 52.5642 206.649 58.9084 210.942 65.2266C212.979 68.2242 215.612 70.6037 218.166 71.9222C220.737 73.2496 222.672 73.2604 223.97 72.7029L228.135 82.3995C223.012 84.5994 217.661 83.5375 213.325 81.2994C208.972 79.0524 205.078 75.3736 202.213 71.1577C196.703 63.0489 193.633 50.3448 202.903 41.211C207.75 36.4348 215.157 43.9518 210.31 48.728Z" fill="url(#paint18_linear_2690_181)"/>
<path fill-rule="evenodd" clip-rule="evenodd" d="M210.31 48.728C206.416 52.5642 206.649 58.9084 210.942 65.2266C212.979 68.2242 215.612 70.6037 218.166 71.9222C220.737 73.2496 222.672 73.2604 223.97 72.7029L228.135 82.3995C223.012 84.5994 217.661 83.5375 213.325 81.2994C208.972 79.0524 205.078 75.3736 202.213 71.1577C196.703 63.0489 193.633 50.3448 202.903 41.211C207.75 36.4348 215.157 43.9518 210.31 48.728Z" fill="url(#paint19_radial_2690_181)"/>
<path fill-rule="evenodd" clip-rule="evenodd" d="M210.31 48.728C206.416 52.5642 206.649 58.9084 210.942 65.2266C212.979 68.2242 215.612 70.6037 218.166 71.9222C220.737 73.2496 222.672 73.2604 223.97 72.7029L228.135 82.3995C223.012 84.5994 217.661 83.5375 213.325 81.2994C208.972 79.0524 205.078 75.3736 202.213 71.1577C196.703 63.0489 193.633 50.3448 202.903 41.211C207.75 36.4348 215.157 43.9518 210.31 48.728Z" fill="url(#paint20_radial_2690_181)"/>
<path fill-rule="evenodd" clip-rule="evenodd" d="M210.31 48.728C206.416 52.5642 206.649 58.9084 210.942 65.2266C212.979 68.2242 215.612 70.6037 218.166 71.9222C220.737 73.2496 222.672 73.2604 223.97 72.7029L228.135 82.3995C223.012 84.5994 217.661 83.5375 213.325 81.2994C208.972 79.0524 205.078 75.3736 202.213 71.1577C196.703 63.0489 193.633 50.3448 202.903 41.211C207.75 36.4348 215.157 43.9518 210.31 48.728Z" fill="url(#paint21_radial_2690_181)"/>
<path fill-rule="evenodd" clip-rule="evenodd" d="M182.303 35.5358C192.482 39.5168 194.159 50.5905 196.559 59.8995C197.641 64.0929 198.805 67.2333 200.655 69.4385C202.281 71.3762 204.807 73.0232 209.743 73.3405L209.066 83.8717C201.619 83.393 196.273 80.6345 192.571 76.2212C189.092 72.0753 187.471 66.9191 186.341 62.5344C184.954 57.1578 184.407 47.6903 178.459 45.3639C172.121 42.8853 175.965 33.0572 182.303 35.5358Z" fill="url(#paint22_linear_2690_181)"/>
<path fill-rule="evenodd" clip-rule="evenodd" d="M182.303 35.5358C192.482 39.5168 194.159 50.5905 196.559 59.8995C197.641 64.0929 198.805 67.2333 200.655 69.4385C202.281 71.3762 204.807 73.0232 209.743 73.3405L209.066 83.8717C201.619 83.393 196.273 80.6345 192.571 76.2212C189.092 72.0753 187.471 66.9191 186.341 62.5344C184.954 57.1578 184.407 47.6903 178.459 45.3639C172.121 42.8853 175.965 33.0572 182.303 35.5358Z" fill="url(#paint23_radial_2690_181)"/>
<path fill-rule="evenodd" clip-rule="evenodd" d="M182.303 35.5358C192.482 39.5168 194.159 50.5905 196.559 59.8995C197.641 64.0929 198.805 67.2333 200.655 69.4385C202.281 71.3762 204.807 73.0232 209.743 73.3405L209.066 83.8717C201.619 83.393 196.273 80.6345 192.571 76.2212C189.092 72.0753 187.471 66.9191 186.341 62.5344C184.954 57.1578 184.407 47.6903 178.459 45.3639C172.121 42.8853 175.965 33.0572 182.303 35.5358Z" fill="url(#paint24_radial_2690_181)"/>
<path fill-rule="evenodd" clip-rule="evenodd" d="M182.303 35.5358C192.482 39.5168 194.159 50.5905 196.559 59.8995C197.641 64.0929 198.805 67.2333 200.655 69.4385C202.281 71.3762 204.807 73.0232 209.743 73.3405L209.066 83.8717C201.619 83.393 196.273 80.6345 192.571 76.2212C189.092 72.0753 187.471 66.9191 186.341 62.5344C184.954 57.1578 184.407 47.6903 178.459 45.3639C172.121 42.8853 175.965 33.0572 182.303 35.5358Z" fill="url(#paint25_radial_2690_181)"/>
<path fill-rule="evenodd" clip-rule="evenodd" d="M182.303 35.5358C192.482 39.5168 194.159 50.5905 196.559 59.8995C197.641 64.0929 198.805 67.2333 200.655 69.4385C202.281 71.3762 204.807 73.0232 209.743 73.3405L209.066 83.8717C201.619 83.393 196.273 80.6345 192.571 76.2212C189.092 72.0753 187.471 66.9191 186.341 62.5344C184.954 57.1578 184.407 47.6903 178.459 45.3639C172.121 42.8853 175.965 33.0572 182.303 35.5358Z" fill="url(#paint26_radial_2690_181)"/>
<path fill-rule="evenodd" clip-rule="evenodd" d="M168.719 72.7883C168.717 76.262 174.025 76.1607 176.421 77.0194C179.778 78.2226 183.93 80.0937 187.42 83.9938C190.943 87.9306 193.297 93.3683 194.21 100.845L182.668 102.255C181.968 96.5201 180.323 93.5008 178.754 91.7478C174.87 87.4071 168.24 87.3178 163.443 84.4356C159.265 81.9251 157.088 77.6107 157.091 72.7816C157.095 65.2832 168.724 65.2899 168.719 72.7883Z" fill="url(#paint27_linear_2690_181)"/>
<path fill-rule="evenodd" clip-rule="evenodd" d="M168.719 72.7883C168.717 76.262 174.025 76.1607 176.421 77.0194C179.778 78.2226 183.93 80.0937 187.42 83.9938C190.943 87.9306 193.297 93.3683 194.21 100.845L182.668 102.255C181.968 96.5201 180.323 93.5008 178.754 91.7478C174.87 87.4071 168.24 87.3178 163.443 84.4356C159.265 81.9251 157.088 77.6107 157.091 72.7816C157.095 65.2832 168.724 65.2899 168.719 72.7883Z" fill="url(#paint28_radial_2690_181)"/>
<path fill-rule="evenodd" clip-rule="evenodd" d="M168.719 72.7883C168.717 76.262 174.025 76.1607 176.421 77.0194C179.778 78.2226 183.93 80.0937 187.42 83.9938C190.943 87.9306 193.297 93.3683 194.21 100.845L182.668 102.255C181.968 96.5201 180.323 93.5008 178.754 91.7478C174.87 87.4071 168.24 87.3178 163.443 84.4356C159.265 81.9251 157.088 77.6107 157.091 72.7816C157.095 65.2832 168.724 65.2899 168.719 72.7883Z" fill="url(#paint29_radial_2690_181)"/>
<path fill-rule="evenodd" clip-rule="evenodd" d="M168.719 72.7883C168.717 76.262 174.025 76.1607 176.421 77.0194C179.778 78.2226 183.93 80.0937 187.42 83.9938C190.943 87.9306 193.297 93.3683 194.21 100.845L182.668 102.255C181.968 96.5201 180.323 93.5008 178.754 91.7478C174.87 87.4071 168.24 87.3178 163.443 84.4356C159.265 81.9251 157.088 77.6107 157.091 72.7816C157.095 65.2832 168.724 65.2899 168.719 72.7883Z" fill="url(#paint30_radial_2690_181)"/>
<path fill-rule="evenodd" clip-rule="evenodd" d="M170.872 89.4781C170.818 95.5021 175.935 100.274 184.203 101.865C188.125 102.621 192.032 102.429 195.051 101.471C198.092 100.507 199.611 99.0097 200.19 97.5644L210.985 101.894C208.698 107.597 203.695 110.932 198.569 112.558C193.423 114.191 187.52 114.349 182.004 113.287C171.393 111.244 159.112 103.716 159.241 89.3731C159.309 81.8732 170.94 81.9781 170.872 89.4781Z" fill="url(#paint31_linear_2690_181)"/>
<path fill-rule="evenodd" clip-rule="evenodd" d="M170.872 89.4781C170.818 95.5021 175.935 100.274 184.203 101.865C188.125 102.621 192.032 102.429 195.051 101.471C198.092 100.507 199.611 99.0097 200.19 97.5644L210.985 101.894C208.698 107.597 203.695 110.932 198.569 112.558C193.423 114.191 187.52 114.349 182.004 113.287C171.393 111.244 159.112 103.716 159.241 89.3731C159.309 81.8732 170.94 81.9781 170.872 89.4781Z" fill="url(#paint32_radial_2690_181)"/>
<path fill-rule="evenodd" clip-rule="evenodd" d="M170.872 89.4781C170.818 95.5021 175.935 100.274 184.203 101.865C188.125 102.621 192.032 102.429 195.051 101.471C198.092 100.507 199.611 99.0097 200.19 97.5644L210.985 101.894C208.698 107.597 203.695 110.932 198.569 112.558C193.423 114.191 187.52 114.349 182.004 113.287C171.393 111.244 159.112 103.716 159.241 89.3731C159.309 81.8732 170.94 81.9781 170.872 89.4781Z" fill="url(#paint33_radial_2690_181)"/>
<path fill-rule="evenodd" clip-rule="evenodd" d="M170.872 89.4781C170.818 95.5021 175.935 100.274 184.203 101.865C188.125 102.621 192.032 102.429 195.051 101.471C198.092 100.507 199.611 99.0097 200.19 97.5644L210.985 101.894C208.698 107.597 203.695 110.932 198.569 112.558C193.423 114.191 187.52 114.349 182.004 113.287C171.393 111.244 159.112 103.716 159.241 89.3731C159.309 81.8732 170.94 81.9781 170.872 89.4781Z" fill="url(#paint34_radial_2690_181)"/>
<path fill-rule="evenodd" clip-rule="evenodd" d="M126.51 112.527C126.419 112.337 126.33 112.146 126.245 111.955C124.282 107.549 123.715 101.747 126.683 94.9169C135.525 91.8331 145.567 93.153 145.491 104.279C142.974 101.166 131.695 106.107 126.51 112.527Z" fill="url(#paint35_radial_2690_181)"/>
<path fill-rule="evenodd" clip-rule="evenodd" d="M138.052 119.999H133.184C129.567 117.724 127.54 114.861 126.245 111.955C126.148 111.737 126.054 111.515 125.964 111.289C131.471 102.135 142.768 95.0238 149.36 106.02C146.034 104.828 140.14 112.547 138.052 119.999Z" fill="url(#paint36_radial_2690_181)"/>
<path fill-rule="evenodd" clip-rule="evenodd" d="M149.489 119.999H135.359C137.483 109.882 145.13 100.226 154.918 107.7C152.114 107.797 149.882 113.713 149.489 119.999Z" fill="url(#paint37_radial_2690_181)"/>
<path fill-rule="evenodd" clip-rule="evenodd" d="M162.646 119.999H148.85C149.114 110.784 153.813 102.117 164.087 105.95C161.331 106.892 160.989 113.659 162.646 119.999Z" fill="url(#paint38_radial_2690_181)"/>
<path fill-rule="evenodd" clip-rule="evenodd" d="M173.975 119.999H159.522C159.04 110.028 163.631 99.5648 174.737 103.707C171.652 104.763 171.592 113.115 173.975 119.999Z" fill="url(#paint39_radial_2690_181)"/>
<path fill-rule="evenodd" clip-rule="evenodd" d="M239.998 92.6978V64.0329C234.097 53.826 223.247 48.304 213.826 55.192C212.487 56.1707 211.135 57.0638 209.776 57.8773C207.117 63.001 213.347 69.6512 219.619 76.3458C225.562 82.6892 231.542 89.0724 230.034 94.2349L239.998 92.6978Z" fill="url(#paint40_radial_2690_181)"/>
<path fill-rule="evenodd" clip-rule="evenodd" d="M239.003 62.427C239.349 62.9479 239.68 63.4837 239.998 64.033V96.1649C239.41 97.1463 238.757 98.1153 238.037 99.0681L230.527 100.227C232.035 95.064 226.055 88.6808 220.113 82.3374C213.491 75.2693 206.915 68.2506 210.798 63.0257C215.142 57.1809 229.154 54.4206 239.003 62.427Z" fill="url(#paint41_radial_2690_181)"/>
<path fill-rule="evenodd" clip-rule="evenodd" d="M239.998 70.9562V96.165C238.037 99.4367 235.359 102.57 231.851 105.428L228.621 105.926C230.13 100.763 224.15 94.38 218.207 88.0367C211.585 80.9685 205.01 73.9499 208.893 68.7249C213.685 62.2772 230.242 59.5831 239.998 70.9562Z" fill="url(#paint42_radial_2690_181)"/>
<path fill-rule="evenodd" clip-rule="evenodd" d="M239.998 86.2101V96.1648C236.769 101.551 231.597 106.563 223.976 110.585C223.722 105.831 218.514 100.272 213.335 94.7436C206.713 87.6754 200.138 80.6569 204.021 75.432C209.767 67.7007 232.429 65.3663 239.998 86.2101Z" fill="url(#paint43_radial_2690_181)"/>
<path fill-rule="evenodd" clip-rule="evenodd" d="M231.975 105.326C227.674 108.857 222.113 111.97 215.078 114.408C213.721 110.535 209.714 106.188 205.726 101.862C199.651 95.2709 193.618 88.7264 197.057 83.9703C202.962 75.8044 229.535 74.6242 231.975 105.326Z" fill="url(#paint44_radial_2690_181)"/>
<path fill-rule="evenodd" clip-rule="evenodd" d="M219.982 112.5C216.457 114.034 212.491 115.378 208.047 116.487C207.625 116.593 207.205 116.697 206.787 116.8C205.808 113.514 202.46 109.729 199.122 105.955C194.181 100.368 189.26 94.8051 192.072 90.9157C197.061 84.0159 216.769 87.3597 219.982 112.5Z" fill="url(#paint45_radial_2690_181)"/>
<path fill-rule="evenodd" clip-rule="evenodd" d="M184.58 120H169.671C168.633 109.619 173.112 97.8611 184.776 102.212C181.462 103.345 181.638 112.892 184.58 120Z" fill="url(#paint46_radial_2690_181)"/>
<path fill-rule="evenodd" clip-rule="evenodd" d="M208.266 116.432C208.193 116.451 208.121 116.469 208.048 116.487C202.814 117.793 197.918 118.923 193.337 119.891C192.509 117.555 191.252 115.054 189.99 112.544C186.935 106.465 183.85 100.327 186.747 96.3196C191.783 89.3553 201.986 100.021 208.266 116.432Z" fill="url(#paint47_radial_2690_181)"/>
<path fill-rule="evenodd" clip-rule="evenodd" d="M182.064 120H192.822C194.46 119.656 196.139 119.292 197.86 118.906C197.352 108.475 190.711 99.9201 188.843 99.3795C186.69 98.7564 182.442 100.513 181.082 101.703C179.958 102.687 177.594 110.643 182.064 120Z" fill="url(#paint48_radial_2690_181)"/>
<path d="M239.998 83.0123C213.566 68.5639 173.036 96.3048 178.322 119.999H239.998V83.0123Z" fill="url(#paint49_radial_2690_181)"/>
<path d="M239.998 91.1925C219.411 79.9395 187.845 101.545 191.962 120H239.998V91.1925Z" fill="#B0403F"/>
<path d="M239.998 91.1925C219.411 79.9395 187.845 101.545 191.962 120H239.998V91.1925Z" fill="url(#paint50_radial_2690_181)"/>
<path d="M239.998 91.1925C219.411 79.9395 187.845 101.545 191.962 120H239.998V91.1925Z" fill="url(#paint51_radial_2690_181)"/>
<defs>
<linearGradient id="paint0_linear_2690_181" x1="119.855" y1="97.4891" x2="119.855" y2="119.701" gradientUnits="userSpaceOnUse">
<stop stop-color="#65D7E2"/>
<stop offset="1" stop-color="#36A2D4"/>
</linearGradient>
<radialGradient id="paint1_radial_2690_181" cx="0" cy="0" r="1" gradientUnits="userSpaceOnUse" gradientTransform="translate(-10.755 38.0902) rotate(14.0385) scale(134.709 134.709)">
<stop stop-color="#FFB119"/>
<stop offset="1" stop-color="#F26D00"/>
</radialGradient>
<radialGradient id="paint2_radial_2690_181" cx="0" cy="0" r="1" gradientUnits="userSpaceOnUse" gradientTransform="translate(58.3021 36.8238) rotate(4.68718) scale(54.6655 24.4296)">
<stop stop-color="#FFEB38" stop-opacity="0.7"/>
<stop offset="1" stop-color="#F5CA57" stop-opacity="0"/>
</radialGradient>
<linearGradient id="paint3_linear_2690_181" x1="57.3315" y1="20.9946" x2="73.3755" y2="78.1236" gradientUnits="userSpaceOnUse">
<stop stop-color="#8FDFE9"/>
<stop offset="1" stop-color="#C8A5F4"/>
</linearGradient>
<radialGradient id="paint4_radial_2690_181" cx="0" cy="0" r="1" gradientUnits="userSpaceOnUse" gradientTransform="translate(67.5277 53.0805) rotate(11.2877) scale(61.623 26.3078)">
<stop offset="0.269529" stop-color="white"/>
<stop offset="1" stop-color="white" stop-opacity="0"/>
</radialGradient>
<radialGradient id="paint5_radial_2690_181" cx="0" cy="0" r="1" gradientUnits="userSpaceOnUse" gradientTransform="translate(69.6181 52.6748) rotate(7.88688) scale(73.1785 30.4188)">
<stop offset="0.095" stop-color="#271B35"/>
<stop offset="1" stop-color="#9A8EA7"/>
</radialGradient>
<radialGradient id="paint6_radial_2690_181" cx="0" cy="0" r="1" gradientUnits="userSpaceOnUse" gradientTransform="translate(69.6181 52.6748) rotate(7.88688) scale(73.1785 30.4188)">
<stop offset="0.095" stop-color="#271B35"/>
<stop offset="1" stop-color="#9A8EA7"/>
</radialGradient>
<radialGradient id="paint7_radial_2690_181" cx="0" cy="0" r="1" gradientUnits="userSpaceOnUse" gradientTransform="translate(69.6181 52.6748) rotate(7.88688) scale(73.1785 30.4188)">
<stop offset="0.095" stop-color="#271B35"/>
<stop offset="1" stop-color="#9A8EA7"/>
</radialGradient>
<radialGradient id="paint8_radial_2690_181" cx="0" cy="0" r="1" gradientUnits="userSpaceOnUse" gradientTransform="translate(67.6495 53.5195) rotate(74.3133) scale(24.9434 24.9434)">
<stop offset="0.393258" stop-color="#FFCB01"/>
<stop offset="0.662921" stop-color="#FB7303"/>
</radialGradient>
<radialGradient id="paint9_radial_2690_181" cx="0" cy="0" r="1" gradientUnits="userSpaceOnUse" gradientTransform="translate(69.0886 53.4098) rotate(175.171) scale(9.33292 14.3276)">
<stop offset="0.501132" stop-color="#271B35"/>
<stop offset="1" stop-color="#271B35" stop-opacity="0"/>
</radialGradient>
<radialGradient id="paint10_radial_2690_181" cx="0" cy="0" r="1" gradientUnits="userSpaceOnUse" gradientTransform="translate(30.1675 40.9837) rotate(51.8339) scale(9.20043)">
<stop stop-color="#5E5375"/>
<stop offset="1" stop-color="#2C2044"/>
</radialGradient>
<radialGradient id="paint11_radial_2690_181" cx="0" cy="0" r="1" gradientUnits="userSpaceOnUse" gradientTransform="translate(31.6222 42.0976) rotate(63.7523) scale(8.79695)">
<stop offset="0.464034" stop-opacity="0"/>
<stop offset="1"/>
</radialGradient>
<radialGradient id="paint12_radial_2690_181" cx="0" cy="0" r="1" gradientUnits="userSpaceOnUse" gradientTransform="translate(185.388 95.9795) rotate(151.449) scale(52.6263 38.3904)">
<stop offset="0.582218" stop-color="#181D45"/>
<stop offset="1" stop-color="#C0A6ED"/>
</radialGradient>
<linearGradient id="paint13_linear_2690_181" x1="157.137" y1="49.5597" x2="204.735" y2="92.8708" gradientUnits="userSpaceOnUse">
<stop offset="0.235" stop-color="#FF840F"/>
<stop offset="1" stop-color="#AC2F35"/>
</linearGradient>
<radialGradient id="paint14_radial_2690_181" cx="0" cy="0" r="1" gradientUnits="userSpaceOnUse" gradientTransform="translate(153.729 52.0881) rotate(21.6823) scale(9.8186)">
<stop stop-color="#EDC7FF"/>
<stop offset="1" stop-color="#EDC7FF" stop-opacity="0"/>
</radialGradient>
<radialGradient id="paint15_radial_2690_181" cx="0" cy="0" r="1" gradientUnits="userSpaceOnUse" gradientTransform="translate(160.545 72.5344) rotate(46.3234) scale(23.5584 12.2276)">
<stop offset="0.713958" stop-color="#A6B4FB"/>
<stop offset="1" stop-color="#A6B4FB" stop-opacity="0"/>
</radialGradient>
<radialGradient id="paint16_radial_2690_181" cx="0" cy="0" r="1" gradientUnits="userSpaceOnUse" gradientTransform="translate(186.048 91.3318) rotate(-153.589) scale(18.2878 9.49201)">
<stop offset="0.605087" stop-color="#A6B4FB"/>
<stop offset="1" stop-color="#A6B4FB" stop-opacity="0"/>
</radialGradient>
<radialGradient id="paint17_radial_2690_181" cx="0" cy="0" r="1" gradientUnits="userSpaceOnUse" gradientTransform="translate(174.725 61.5417) rotate(36.4692) scale(25.1518 9.07018)">
<stop stop-color="#FFEB38" stop-opacity="0.7"/>
<stop offset="1" stop-color="#F5CA57" stop-opacity="0"/>
</radialGradient>
<linearGradient id="paint18_linear_2690_181" x1="201.05" y1="44.969" x2="210.723" y2="75.3087" gradientUnits="userSpaceOnUse">
<stop offset="0.235" stop-color="#FF840F"/>
<stop offset="1" stop-color="#AC2F35"/>
</linearGradient>
<radialGradient id="paint19_radial_2690_181" cx="0" cy="0" r="1" gradientUnits="userSpaceOnUse" gradientTransform="translate(207.426 43.2101) rotate(38.8534) scale(10.1633)">
<stop stop-color="#EDC7FF"/>
<stop offset="1" stop-color="#EDC7FF" stop-opacity="0"/>
</radialGradient>
<radialGradient id="paint20_radial_2690_181" cx="0" cy="0" r="1" gradientUnits="userSpaceOnUse" gradientTransform="translate(221.276 56.6211) rotate(89.4744) scale(23.965 23.965)">
<stop offset="0.89" stop-color="#A6B4FB" stop-opacity="0"/>
<stop offset="1" stop-color="#A6B4FB"/>
</radialGradient>
<radialGradient id="paint21_radial_2690_181" cx="0" cy="0" r="1" gradientUnits="userSpaceOnUse" gradientTransform="translate(207.865 56.1814) rotate(71.4187) scale(16.9319 8.1731)">
<stop stop-color="#FFEB38" stop-opacity="0.7"/>
<stop offset="1" stop-color="#F5CA57" stop-opacity="0"/>
</radialGradient>
<linearGradient id="paint22_linear_2690_181" x1="175.695" y1="38.2641" x2="206.326" y2="81.5741" gradientUnits="userSpaceOnUse">
<stop offset="0.235" stop-color="#FF840F"/>
<stop offset="1" stop-color="#AC2F35"/>
</linearGradient>
<radialGradient id="paint23_radial_2690_181" cx="0" cy="0" r="1" gradientUnits="userSpaceOnUse" gradientTransform="translate(180.604 39.6733) rotate(31.6635) scale(9.04059 9.04059)">
<stop stop-color="#EDC7FF"/>
<stop offset="1" stop-color="#EDC7FF" stop-opacity="0"/>
</radialGradient>
<radialGradient id="paint24_radial_2690_181" cx="0" cy="0" r="1" gradientUnits="userSpaceOnUse" gradientTransform="translate(208.635 40.6814) rotate(97.1794) scale(43.0993 35.5447)">
<stop offset="0.856637" stop-color="#A6B4FB" stop-opacity="0"/>
<stop offset="1" stop-color="#A6B4FB"/>
</radialGradient>
<radialGradient id="paint25_radial_2690_181" cx="0" cy="0" r="1" gradientUnits="userSpaceOnUse" gradientTransform="translate(181.153 60.9689) rotate(70.211) scale(24.3518 8.77351)">
<stop offset="0.661571" stop-color="#A6B4FB"/>
<stop offset="1" stop-color="#A6B4FB" stop-opacity="0"/>
</radialGradient>
<radialGradient id="paint26_radial_2690_181" cx="0" cy="0" r="1" gradientUnits="userSpaceOnUse" gradientTransform="translate(192.036 51.0145) rotate(78.473) scale(18.7021 7.08436)">
<stop stop-color="#FFEB38" stop-opacity="0.7"/>
<stop offset="1" stop-color="#F5CA57" stop-opacity="0"/>
</radialGradient>
<linearGradient id="paint27_linear_2690_181" x1="166.397" y1="67.1994" x2="190.138" y2="103.737" gradientUnits="userSpaceOnUse">
<stop offset="0.235" stop-color="#FF840F"/>
<stop offset="1" stop-color="#AC2F35"/>
</linearGradient>
<radialGradient id="paint28_radial_2690_181" cx="0" cy="0" r="1" gradientUnits="userSpaceOnUse" gradientTransform="translate(162.389 70.7128) rotate(35.8052) scale(11.3548)">
<stop stop-color="#EDC7FF"/>
<stop offset="1" stop-color="#EDC7FF" stop-opacity="0"/>
</radialGradient>
<radialGradient id="paint29_radial_2690_181" cx="0" cy="0" r="1" gradientUnits="userSpaceOnUse" gradientTransform="translate(168.578 96.7589) rotate(33.3552) scale(18.5587 13.1805)">
<stop offset="0.715914" stop-color="#A6B4FB"/>
<stop offset="1" stop-color="#A6B4FB" stop-opacity="0"/>
</radialGradient>
<radialGradient id="paint30_radial_2690_181" cx="0" cy="0" r="1" gradientUnits="userSpaceOnUse" gradientTransform="translate(176.969 79.6146) rotate(30.9085) scale(18.1063 7.70768)">
<stop stop-color="#FFEB38" stop-opacity="0.7"/>
<stop offset="1" stop-color="#F5CA57" stop-opacity="0"/>
</radialGradient>
<linearGradient id="paint31_linear_2690_181" x1="160.719" y1="93.7487" x2="191.877" y2="109.906" gradientUnits="userSpaceOnUse">
<stop offset="0.235" stop-color="#FF840F"/>
<stop offset="1" stop-color="#AC2F35"/>
</linearGradient>
<radialGradient id="paint32_radial_2690_181" cx="0" cy="0" r="1" gradientUnits="userSpaceOnUse" gradientTransform="translate(164.327 87.4149) rotate(-6.05294) scale(11.2016)">
<stop stop-color="#EDC7FF"/>
<stop offset="1" stop-color="#EDC7FF" stop-opacity="0"/>
</radialGradient>
<radialGradient id="paint33_radial_2690_181" cx="0" cy="0" r="1" gradientUnits="userSpaceOnUse" gradientTransform="translate(185.574 87.1069) rotate(44.5681) scale(26.4134 26.4134)">
<stop offset="0.89" stop-color="#A6B4FB" stop-opacity="0"/>
<stop offset="1" stop-color="#A6B4FB"/>
</radialGradient>
<radialGradient id="paint34_radial_2690_181" cx="0" cy="0" r="1" gradientUnits="userSpaceOnUse" gradientTransform="translate(174.763 97.1984) rotate(26.5124) scale(18.6618 9.00811)">
<stop stop-color="#FFEB38" stop-opacity="0.7"/>
<stop offset="1" stop-color="#F5CA57" stop-opacity="0"/>
</radialGradient>
<radialGradient id="paint35_radial_2690_181" cx="0" cy="0" r="1" gradientUnits="userSpaceOnUse" gradientTransform="translate(137.137 95.8712) rotate(162.89) scale(24.165 13.4137)">
<stop stop-color="#F5E3FF"/>
<stop offset="0.35643" stop-color="#CBA1EC"/>
<stop offset="0.655" stop-color="#7F4EBC"/>
<stop offset="1" stop-color="#412267"/>
</radialGradient>
<radialGradient id="paint36_radial_2690_181" cx="0" cy="0" r="1" gradientUnits="userSpaceOnUse" gradientTransform="translate(137.853 103.182) rotate(131.558) scale(24.165 13.4137)">
<stop stop-color="#FBE3FF"/>
<stop offset="0.35643" stop-color="#D9A1EC"/>
<stop offset="0.655" stop-color="#954EBC"/>
<stop offset="1" stop-color="#4F2267"/>
</radialGradient>
<radialGradient id="paint37_radial_2690_181" cx="0" cy="0" r="1" gradientUnits="userSpaceOnUse" gradientTransform="translate(143.176 109.317) rotate(109.867) scale(24.165 13.4137)">
<stop stop-color="#FBE3FF"/>
<stop offset="0.35643" stop-color="#DBA1EC"/>
<stop offset="0.655" stop-color="#974EBC"/>
<stop offset="1" stop-color="#502267"/>
</radialGradient>
<radialGradient id="paint38_radial_2690_181" cx="0" cy="0" r="1" gradientUnits="userSpaceOnUse" gradientTransform="translate(153.324 110.911) rotate(92.9563) scale(24.165 13.4137)">
<stop stop-color="#F8E3FF"/>
<stop offset="0.35643" stop-color="#D2A1EC"/>
<stop offset="0.655" stop-color="#8A4EBC"/>
<stop offset="1" stop-color="#482267"/>
</radialGradient>
<radialGradient id="paint39_radial_2690_181" cx="0" cy="0" r="1" gradientUnits="userSpaceOnUse" gradientTransform="translate(163.974 108.669) rotate(92.9563) scale(24.165 13.4137)">
<stop stop-color="#F5E3FF"/>
<stop offset="0.35643" stop-color="#CCA1EC"/>
<stop offset="0.655" stop-color="#814EBC"/>
<stop offset="1" stop-color="#422267"/>
</radialGradient>
<radialGradient id="paint40_radial_2690_181" cx="0" cy="0" r="1" gradientUnits="userSpaceOnUse" gradientTransform="translate(219.208 57.1528) rotate(49.6671) scale(34.5422 19.7898)">
<stop stop-color="#E6E3FF"/>
<stop offset="0.35643" stop-color="#A4A1EC"/>
<stop offset="0.655" stop-color="#4E56BC"/>
<stop offset="1" stop-color="#222767"/>
</radialGradient>
<radialGradient id="paint41_radial_2690_181" cx="0" cy="0" r="1" gradientUnits="userSpaceOnUse" gradientTransform="translate(219.701 63.1445) rotate(49.6671) scale(34.5422 19.7898)">
<stop stop-color="#ECE3FF"/>
<stop offset="0.35643" stop-color="#B3A1EC"/>
<stop offset="0.655" stop-color="#5C4EBC"/>
<stop offset="1" stop-color="#2B2267"/>
</radialGradient>
<radialGradient id="paint42_radial_2690_181" cx="0" cy="0" r="1" gradientUnits="userSpaceOnUse" gradientTransform="translate(217.796 68.8438) rotate(49.6671) scale(34.5422 19.7898)">
<stop stop-color="#EBE3FF"/>
<stop offset="0.35643" stop-color="#B0A1EC"/>
<stop offset="0.655" stop-color="#594EBC"/>
<stop offset="1" stop-color="#292267"/>
</radialGradient>
<radialGradient id="paint43_radial_2690_181" cx="0" cy="0" r="1" gradientUnits="userSpaceOnUse" gradientTransform="translate(212.924 75.5509) rotate(49.6671) scale(34.5422 19.7898)">
<stop stop-color="#EEE3FF"/>
<stop offset="0.35643" stop-color="#B9A1EC"/>
<stop offset="0.655" stop-color="#654EBC"/>
<stop offset="1" stop-color="#312267"/>
</radialGradient>
<radialGradient id="paint44_radial_2690_181" cx="0" cy="0" r="1" gradientUnits="userSpaceOnUse" gradientTransform="translate(205.102 84.1967) rotate(50.0448) scale(31.9904 17.7575)">
<stop stop-color="#EFE3FF"/>
<stop offset="0.35643" stop-color="#BCA1EC"/>
<stop offset="0.655" stop-color="#694EBC"/>
<stop offset="1" stop-color="#332267"/>
</radialGradient>
<radialGradient id="paint45_radial_2690_181" cx="0" cy="0" r="1" gradientUnits="userSpaceOnUse" gradientTransform="translate(198.304 93.6008) rotate(47.0511) scale(24.9443 13.8463)">
<stop stop-color="#EFE3FF"/>
<stop offset="0.35643" stop-color="#BCA1EC"/>
<stop offset="0.655" stop-color="#694EBC"/>
<stop offset="1" stop-color="#332267"/>
</radialGradient>
<radialGradient id="paint46_radial_2690_181" cx="0" cy="0" r="1" gradientUnits="userSpaceOnUse" gradientTransform="translate(174.012 107.173) rotate(92.9563) scale(24.165 13.4137)">
<stop stop-color="#EFE3FF"/>
<stop offset="0.35643" stop-color="#BCA1EC"/>
<stop offset="0.655" stop-color="#694EBC"/>
<stop offset="1" stop-color="#332267"/>
</radialGradient>
<radialGradient id="paint47_radial_2690_181" cx="0" cy="0" r="1" gradientUnits="userSpaceOnUse" gradientTransform="translate(189.466 99.832) rotate(45.5888) scale(25.9054 14.3798)">
<stop stop-color="#EFE3FF"/>
<stop offset="0.35643" stop-color="#BCA1EC"/>
<stop offset="0.655" stop-color="#694EBC"/>
<stop offset="1" stop-color="#332267"/>
</radialGradient>
<radialGradient id="paint48_radial_2690_181" cx="0" cy="0" r="1" gradientUnits="userSpaceOnUse" gradientTransform="translate(184.489 105.39) rotate(92.7279) scale(25.1826 12.902)">
<stop stop-color="#EFE3FF"/>
<stop offset="0.35643" stop-color="#BCA1EC"/>
<stop offset="0.655" stop-color="#694EBC"/>
<stop offset="1" stop-color="#332267"/>
</radialGradient>
<radialGradient id="paint49_radial_2690_181" cx="0" cy="0" r="1" gradientUnits="userSpaceOnUse" gradientTransform="translate(236.697 126.225) rotate(-156.72) scale(56.2949 42.9773)">
<stop offset="0.695" stop-color="#130B33"/>
<stop offset="1" stop-color="#130B33" stop-opacity="0"/>
</radialGradient>
<radialGradient id="paint50_radial_2690_181" cx="0" cy="0" r="1" gradientUnits="userSpaceOnUse" gradientTransform="translate(212.778 100.194) rotate(57.5747) scale(27.729 27.9241)">
<stop offset="0.13" stop-color="#EF998A"/>
<stop offset="1" stop-color="#AB8AEF" stop-opacity="0"/>
</radialGradient>
<radialGradient id="paint51_radial_2690_181" cx="0" cy="0" r="1" gradientUnits="userSpaceOnUse" gradientTransform="translate(223.758 120) rotate(38.3359) scale(31.2032 34.1506)">
<stop offset="0.789525" stop-color="#9FAEF9" stop-opacity="0"/>
<stop offset="1" stop-color="#B3BFFF"/>
</radialGradient>
</defs>
</svg>
