<svg viewBox="0 0 240 120" fill="none" xmlns="http://www.w3.org/2000/svg">
<path d="M55.4557 18.5399C81.746 28.9547 93.083 2.85755 120.291 5.9597C147.5 9.06184 154.975 30.4322 180 18.5399C205.026 6.64754 230.239 22.4847 219.52 43.8466C208.8 65.2085 160.855 66.3294 121.753 65.2142C86.9382 67.6336 22.8809 69.3128 14.0427 45.7863C5.20445 22.2598 29.1654 8.12506 55.4557 18.5399Z" fill="url(#paint0_linear_10565_1337)"/>
<path d="M55.4557 18.5399C81.746 28.9547 93.083 2.85755 120.291 5.9597C147.5 9.06184 154.975 30.4322 180 18.5399C205.026 6.64754 230.239 22.4847 219.52 43.8466C208.8 65.2085 160.855 66.3294 121.753 65.2142C86.9382 67.6336 22.8809 69.3128 14.0427 45.7863C5.20445 22.2598 29.1654 8.12506 55.4557 18.5399Z" fill="url(#paint1_radial_10565_1337)"/>
<path d="M130.017 36.1179C130.017 43.2444 124.24 49.0215 117.114 49.0215C109.987 49.0215 104.21 43.2444 104.21 36.1179C104.21 28.9915 109.987 23.2144 117.114 23.2144C124.24 23.2144 130.017 28.9915 130.017 36.1179Z" fill="url(#paint2_linear_10565_1337)"/>
<path d="M211.154 55.88C198.501 48.6502 126.345 49.928 101.538 49.928C29.1333 51.3821 8.94157 57.4723 16.4419 64.452C23.9421 71.4315 28.8238 72.5209 16.4423 81.0508C-5.76934 96.3529 36.201 116.972 134.711 116.972C215.48 116.972 227.535 99.1371 228.401 90.9941C229.266 82.8511 209.423 77.6915 204.808 70.421C200.193 63.1505 219.807 60.8239 211.154 55.88Z" fill="url(#paint3_radial_10565_1337)"/>
<path d="M211.154 55.88C198.501 48.6502 126.345 49.928 101.538 49.928C29.1333 51.3821 8.94157 57.4723 16.4419 64.452C23.9421 71.4315 28.8238 72.5209 16.4423 81.0508C-5.76934 96.3529 36.201 116.972 134.711 116.972C215.48 116.972 227.535 99.1371 228.401 90.9941C229.266 82.8511 209.423 77.6915 204.808 70.421C200.193 63.1505 219.807 60.8239 211.154 55.88Z" fill="url(#paint4_radial_10565_1337)"/>
<path d="M211.154 55.88C198.501 48.6502 126.345 49.928 101.538 49.928C29.1333 51.3821 8.94157 57.4723 16.4419 64.452C23.9421 71.4315 28.8238 72.5209 16.4423 81.0508C-5.76934 96.3529 36.201 116.972 134.711 116.972C215.48 116.972 227.535 99.1371 228.401 90.9941C229.266 82.8511 209.423 77.6915 204.808 70.421C200.193 63.1505 219.807 60.8239 211.154 55.88Z" fill="url(#paint5_radial_10565_1337)"/>
<path d="M211.154 55.88C198.501 48.6502 126.345 49.928 101.538 49.928C29.1333 51.3821 8.94157 57.4723 16.4419 64.452C23.9421 71.4315 28.8238 72.5209 16.4423 81.0508C-5.76934 96.3529 36.201 116.972 134.711 116.972C215.48 116.972 227.535 99.1371 228.401 90.9941C229.266 82.8511 209.423 77.6915 204.808 70.421C200.193 63.1505 219.807 60.8239 211.154 55.88Z" fill="url(#paint6_radial_10565_1337)"/>
<path d="M28.8968 62.9648C51.7288 49.389 158.484 46.6127 165.889 53.4005C173.29 60.187 147.992 57.1031 149.843 62.9648C151.702 68.8259 220.496 70.986 221.733 85.7938C222.968 100.603 161.567 115.104 108.499 111.71C44.005 107.585 6.06851 76.541 28.8968 62.9648ZM154.887 55.8028C149.345 50.9628 71.6168 52.9421 54.5293 62.6223C37.4422 72.3023 63.3139 90.1135 111.582 93.055C151.298 95.475 196.434 88.4815 196.434 81.0568C196.425 73.6341 142.885 71.6953 142.88 62.6223C142.88 58.2191 160.425 60.6415 154.887 55.8028Z" fill="url(#paint7_radial_10565_1337)"/>
<path d="M34.1457 72.5298C29.5177 70.37 22.9612 78.0065 28.9006 81.4774C34.84 84.9483 51.964 83.7916 55.1263 81.4774C58.2887 79.1631 57.5535 73.8772 52.8637 75.3582C53.2751 73.9183 53.4294 69.4443 47.5672 67.7473C41.7049 66.0503 38.7738 74.6896 34.1457 72.5298Z" fill="url(#paint8_radial_10565_1337)"/>
<path d="M41.7043 79.7739C38.4647 78.5398 30.9821 85.9393 41.7043 89.3386C52.4265 92.7379 70.2445 91.4266 73.407 87.8013C76.5695 84.176 65.9246 84.556 62.9935 78.5396C60.0624 72.5231 48.338 71.4433 46.9496 78.5397C46.5639 76.6168 42.3215 76.9254 41.7043 79.7739Z" fill="url(#paint9_radial_10565_1337)"/>
<path d="M49.7259 87.0508C45.8697 83.7133 41.5505 92.4502 49.3406 96.132C57.1307 99.8137 75.2288 100.528 81.1969 95.2271C87.165 89.9264 74.0241 82.6127 66.0017 83.7907C59.2229 79.0381 52.8118 84.4843 49.7259 87.0508Z" fill="url(#paint10_radial_10565_1337)"/>
<path d="M171.444 97.7515C152.931 101.377 124.777 103.228 118.53 99.757C118.53 88.6497 193.273 90.6552 200.446 80.0878C203.917 74.9751 182.474 73.6085 188.027 71.6801C193.581 69.7518 208.699 75.074 210.011 79.4707C211.322 83.8673 198.055 83.4817 202.143 87.0298C206.231 90.578 189.956 94.1262 171.444 97.7515Z" fill="url(#paint11_radial_10565_1337)"/>
<path d="M103.52 51.9345C71.3546 53.4772 57.8543 59.1082 57.083 57.6427C56.3116 56.1771 67.9607 50.392 78.528 50.7777C89.0954 51.1633 93.1784 40.8981 105.288 39.6639C117.399 38.4298 121.415 48.6178 130.285 46.5351C139.156 44.4525 151.187 49.6978 149.722 51.3948C148.256 53.0917 135.685 50.3918 103.52 51.9345Z" fill="url(#paint12_radial_10565_1337)"/>
<path d="M103.52 51.9345C71.3546 53.4772 57.8543 59.1082 57.083 57.6427C56.3116 56.1771 67.9607 50.392 78.528 50.7777C89.0954 51.1633 93.1784 40.8981 105.288 39.6639C117.399 38.4298 121.415 48.6178 130.285 46.5351C139.156 44.4525 151.187 49.6978 149.722 51.3948C148.256 53.0917 135.685 50.3918 103.52 51.9345Z" fill="url(#paint13_radial_10565_1337)"/>
<path fill-rule="evenodd" clip-rule="evenodd" d="M155.66 36.9367H210.289C210.058 33.9679 207.796 31.6375 205.039 31.6375C203.67 31.6375 202.423 32.2122 201.486 33.1546C200.079 31.0203 197.795 29.6324 195.216 29.6324C193.401 29.6324 191.732 30.32 190.412 31.4716C188.798 26.4771 184.466 22.9011 179.376 22.9011C174.813 22.9011 170.861 25.7733 168.928 29.9646C167.519 28.3475 165.537 27.3409 163.34 27.3409C159.065 27.3409 155.599 31.1561 155.599 35.8625C155.599 36.2263 155.62 36.5848 155.66 36.9367Z" fill="url(#paint14_linear_10565_1337)"/>
<path fill-rule="evenodd" clip-rule="evenodd" d="M27.3103 36.472H79.4986C78.6672 34.48 75.9916 33.022 72.8195 33.022C70.9022 33.022 69.1663 33.5547 67.9094 34.416C67.6051 32.1132 65.8041 30.3444 63.6278 30.3444C62.736 30.3444 61.9074 30.6414 61.2188 31.1504C60.7086 27.0024 57.4788 23.8049 53.5708 23.8049C49.5049 23.8049 46.1733 27.2658 45.8744 31.6573C45.1097 30.3122 43.7517 29.4176 42.204 29.4176C40.2183 29.4176 38.545 30.89 38.036 32.8971C37.405 31.9136 36.3643 31.2713 35.1874 31.2713C33.5178 31.2713 32.1223 32.5639 31.7819 34.2896C31.4576 34.2188 31.1128 34.1806 30.7553 34.1806C28.9116 34.1806 27.4057 35.1953 27.3103 36.472Z" fill="url(#paint15_linear_10565_1337)"/>
<defs>
<linearGradient id="paint0_linear_10565_1337" x1="120" y1="7.21214" x2="120" y2="66.5361" gradientUnits="userSpaceOnUse">
<stop stop-color="#FEDBD5"/>
<stop offset="0.480769" stop-color="#FDE5BD"/>
<stop offset="1" stop-color="#FEF7DA"/>
</linearGradient>
<radialGradient id="paint1_radial_10565_1337" cx="0" cy="0" r="1" gradientUnits="userSpaceOnUse" gradientTransform="translate(117.114 53.6544) scale(162.694 40.9615)">
<stop stop-color="#FFD300"/>
<stop offset="0.461538" stop-color="#FEF0C3"/>
<stop offset="0.951923" stop-color="#A4F2FE"/>
</radialGradient>
<linearGradient id="paint2_linear_10565_1337" x1="117.114" y1="23.2144" x2="117.114" y2="49.0215" gradientUnits="userSpaceOnUse">
<stop stop-color="#FFB83D"/>
<stop offset="1" stop-color="#FFF4B7"/>
</linearGradient>
<radialGradient id="paint3_radial_10565_1337" cx="0" cy="0" r="1" gradientUnits="userSpaceOnUse" gradientTransform="translate(119.532 85.4599) rotate(-90) scale(51.3527 166.91)">
<stop offset="0.484719" stop-color="#25DFD7"/>
<stop offset="0.709409" stop-color="#1A82C7"/>
</radialGradient>
<radialGradient id="paint4_radial_10565_1337" cx="0" cy="0" r="1" gradientTransform="matrix(84.5192 2.07486 -0.502813 16.5575 123.75 77.6792)" gradientUnits="userSpaceOnUse">
<stop offset="0.423077" stop-color="#006D9B"/>
<stop offset="0.942308" stop-color="#0476A6" stop-opacity="0"/>
</radialGradient>
<radialGradient id="paint5_radial_10565_1337" cx="0" cy="0" r="1" gradientTransform="matrix(44.1346 6.74329 -2.46183 13.0253 165.865 73.2701)" gradientUnits="userSpaceOnUse">
<stop offset="0.391693" stop-color="#25DFD7"/>
<stop offset="0.934044" stop-color="#25DFD7" stop-opacity="0"/>
</radialGradient>
<radialGradient id="paint6_radial_10565_1337" cx="0" cy="0" r="1" gradientTransform="matrix(-86.25 -4.40907 0.816006 -12.904 223.846 71.9733)" gradientUnits="userSpaceOnUse">
<stop offset="0.375448" stop-color="#1A82C7"/>
<stop offset="0.841346" stop-color="#1A82C7" stop-opacity="0"/>
</radialGradient>
<radialGradient id="paint7_radial_10565_1337" cx="0" cy="0" r="1" gradientTransform="matrix(120.638 8.0216 -2.50755 37.7082 119.301 77.7733)" gradientUnits="userSpaceOnUse">
<stop offset="0.716346" stop-color="#F4B766"/>
<stop offset="0.822115" stop-color="#FFE8B8"/>
</radialGradient>
<radialGradient id="paint8_radial_10565_1337" cx="0" cy="0" r="1" gradientUnits="userSpaceOnUse" gradientTransform="translate(50.0353 66.6674) rotate(43.6678) scale(14.0757 7.82883)">
<stop offset="0.213694" stop-color="#60CB69"/>
<stop offset="0.893776" stop-color="#306562"/>
</radialGradient>
<radialGradient id="paint9_radial_10565_1337" cx="0" cy="0" r="1" gradientUnits="userSpaceOnUse" gradientTransform="translate(63.7652 68.8263) rotate(27.0186) scale(26.1484 19.2589)">
<stop offset="0.424086" stop-color="#60CB69"/>
<stop offset="0.875183" stop-color="#306562"/>
</radialGradient>
<radialGradient id="paint10_radial_10565_1337" cx="0" cy="0" r="1" gradientUnits="userSpaceOnUse" gradientTransform="translate(67.0045 78.0831) rotate(32.2165) scale(26.6219 16.3519)">
<stop offset="0.274258" stop-color="#60CB69"/>
<stop offset="0.893776" stop-color="#306562"/>
</radialGradient>
<radialGradient id="paint11_radial_10565_1337" cx="0" cy="0" r="1" gradientUnits="userSpaceOnUse" gradientTransform="translate(144.601 84.5616) rotate(-4.85962) scale(76.4836 14.835)">
<stop offset="0.596078" stop-color="#60CB69"/>
<stop offset="0.864443" stop-color="#306562"/>
</radialGradient>
<radialGradient id="paint12_radial_10565_1337" cx="0" cy="0" r="1" gradientUnits="userSpaceOnUse" gradientTransform="translate(126.635 42.9814) rotate(-169.084) scale(18.0673 8.68845)">
<stop offset="0.343662" stop-color="#60CB69"/>
<stop offset="0.981556" stop-color="#1B6F54"/>
</radialGradient>
<radialGradient id="paint13_radial_10565_1337" cx="0" cy="0" r="1" gradientUnits="userSpaceOnUse" gradientTransform="translate(75.5769 45.4333) rotate(11.8887) scale(19.6032 9.42703)">
<stop offset="0.449034" stop-color="#60CB69"/>
<stop offset="0.981556" stop-color="#306562" stop-opacity="0"/>
</radialGradient>
<linearGradient id="paint14_linear_10565_1337" x1="182.944" y1="22.9011" x2="182.944" y2="38.3986" gradientUnits="userSpaceOnUse">
<stop offset="0.03" stop-color="white"/>
<stop offset="1" stop-color="white" stop-opacity="0"/>
</linearGradient>
<linearGradient id="paint15_linear_10565_1337" x1="53.4044" y1="23.8049" x2="53.4044" y2="37.7914" gradientUnits="userSpaceOnUse">
<stop offset="0.03" stop-color="white"/>
<stop offset="1" stop-color="white" stop-opacity="0"/>
</linearGradient>
</defs>
</svg>
