<svg viewBox="0 0 240 120" fill="none" xmlns="http://www.w3.org/2000/svg">
<rect x="135.722" y="11.2409" width="79.0962" height="101.452" fill="url(#paint0_linear_2911_117)" stroke="url(#paint1_linear_2911_117)" stroke-width="1.38462"/>
<path d="M166.209 22.7568C183.056 13.2953 197.844 21.3145 203.132 26.5068C203.132 30.9299 201.575 41.3337 195.344 47.5645C189.114 53.7953 179.287 60.5453 175.152 63.1414C173.133 61.6991 170.594 58.8722 166.209 53.3337C160.729 46.4107 145.152 34.5837 166.209 22.7568Z" fill="#977F70" fill-opacity="0.55"/>
<path d="M142.844 44.3915C149.998 28.6992 162.748 22.6607 168.229 21.603C166.787 24.1992 163.613 31.1223 169.671 35.1607C175.729 39.1992 179.767 46.6992 178.037 49.2953C176.306 51.8915 173.998 53.6223 165.921 49.2953C159.46 45.8338 147.844 44.5838 142.844 44.3915Z" fill="url(#paint2_radial_2911_117)"/>
<path fill-rule="evenodd" clip-rule="evenodd" d="M171.084 34.8334C171.105 35.2152 170.813 35.542 170.431 35.5635C157.744 36.2762 147.688 41.5565 143.997 44.5001C143.698 44.7385 143.263 44.6894 143.024 44.3904C142.786 44.0915 142.835 43.6559 143.134 43.4175C147.039 40.3034 157.367 34.9106 170.353 34.181C170.735 34.1596 171.062 34.4517 171.084 34.8334Z" fill="#5A3E33"/>
<circle cx="180.561" cy="28.5983" r="4.25481" fill="url(#paint3_radial_2911_117)"/>
<path d="M190.584 77.8787C194.161 80.994 200.439 84.4652 203.132 85.8113C197.363 94.2344 178.516 99.994 169.814 101.821C169.814 98.6479 167.795 96.4844 164.334 92.5902C160.872 88.6959 150.632 78.744 162.17 72.8306C173.709 66.9171 186.113 73.9844 190.584 77.8787Z" fill="#977F70" fill-opacity="0.55"/>
<circle cx="171.906" cy="79.2487" r="3.10096" fill="url(#paint4_radial_2911_117)"/>
<path d="M148.008 82.8303C151.008 77.6379 160.412 73.2629 164.739 71.7245C162.287 73.311 160.989 77.4937 163.152 80.9553C165.316 84.4168 164.403 94.2191 161.374 89.3153C158.951 85.3922 151.566 83.3591 148.008 82.8303Z" fill="url(#paint5_radial_2911_117)"/>
<path fill-rule="evenodd" clip-rule="evenodd" d="M155.922 80.5547C153.318 81.2349 150.848 82.134 149.331 83.0148C149 83.2068 148.577 83.0944 148.385 82.7638C148.193 82.4331 148.305 82.0094 148.636 81.8174C150.311 80.8447 152.92 79.9077 155.572 79.2151C158.227 78.5218 161.007 78.0515 163.038 78.0515C163.421 78.0515 163.731 78.3615 163.731 78.7438C163.731 79.1262 163.421 79.4361 163.038 79.4361C161.175 79.4361 158.524 79.8753 155.922 80.5547Z" fill="#5A3E33"/>
<path d="M69.7008 69.2308C52.7616 79.0636 17.9828 99.5118 14.3805 102.642C12.0948 104.629 8.06809 112.199 4.61538 120H152.308C150.171 117.251 148.828 114.447 147.047 111.43C143.287 105.06 137.951 96.0203 134.348 93.9131C133.392 93.354 131.893 92.5041 130.074 91.4733C122.102 86.955 107.998 78.9617 106.688 76.7559C105.402 74.5887 81.4939 70.8362 69.7008 69.2308Z" fill="url(#paint6_radial_2911_117)"/>
<path d="M69.7008 69.2308C52.7616 79.0636 17.9828 99.5118 14.3805 102.642C12.0948 104.629 8.06809 112.199 4.61538 120H152.308C150.171 117.251 148.828 114.447 147.047 111.43C143.287 105.06 137.951 96.0203 134.348 93.9131C133.392 93.354 131.893 92.5041 130.074 91.4733C122.102 86.955 107.998 78.9617 106.688 76.7559C105.402 74.5887 81.4939 70.8362 69.7008 69.2308Z" fill="url(#paint7_linear_2911_117)"/>
<path d="M102.251 120L118.588 92.0193L125.192 120H102.251Z" fill="url(#paint8_linear_2911_117)"/>
<path d="M62.0487 74.7115C62.0487 74.7115 58.4433 74.7115 55.4141 76.4423C52.3849 78.1731 50.6549 80.1923 50.6549 80.1923C50.4839 87.5455 52.0998 107.413 64.6293 120H113.235C113.923 118.203 114.301 116.365 114.261 114.519C114.03 103.904 112.242 90.2885 111.376 84.8077L62.0487 74.7115Z" fill="url(#paint9_linear_2911_117)"/>
<path d="M62.0487 74.7115C62.0487 74.7115 58.4433 74.7115 55.4141 76.4423C52.3849 78.1731 50.6549 80.1923 50.6549 80.1923C50.4839 87.5455 52.0998 107.413 64.6293 120H113.235C113.923 118.203 114.301 116.365 114.261 114.519C114.03 103.904 112.242 90.2885 111.376 84.8077L62.0487 74.7115Z" fill="url(#paint10_linear_2911_117)"/>
<path d="M118.459 120H139.645V113.564C139.645 111.42 138.169 109.558 136.082 109.07L126.088 106.731L129.35 101.475C130.48 99.6536 130.217 97.2916 128.68 95.797C123.657 90.9124 114.577 82.5774 109.068 81.0577L111.088 94.0385L118.459 120Z" fill="url(#paint11_linear_2911_117)"/>
<path d="M118.459 120H139.645V113.564C139.645 111.42 138.169 109.558 136.082 109.07L126.088 106.731L129.35 101.475C130.48 99.6536 130.217 97.2916 128.68 95.797C123.657 90.9124 114.577 82.5774 109.068 81.0577L111.088 94.0385L118.459 120Z" fill="url(#paint12_linear_2911_117)"/>
<path d="M51.6645 79.6155L39.1964 90.3721L49.405 120H69.6487C57.9326 108.179 51.6645 95.8154 51.6645 88.9298C50.1833 82.8583 51.6645 79.6155 51.6645 79.6155Z" fill="#B6ABA7"/>
<path d="M51.6645 79.6155L39.1964 90.3721L49.405 120H69.6487C57.9326 108.179 51.6645 95.8154 51.6645 88.9298C50.1833 82.8583 51.6645 79.6155 51.6645 79.6155Z" fill="url(#paint13_linear_2911_117)"/>
<path d="M50.3665 80.4808C44.3043 83.3655 39.455 87.7572 37.3815 93.9778C35.3754 99.9964 33.3692 114.735 34.3954 120H61.6436C57.9431 113.752 54.9434 108.333 53.535 105.516C48.9197 96.2855 48.0591 85.0962 50.3665 80.4808Z" fill="#8C8D95"/>
<path d="M50.3665 80.4808C44.3043 83.3655 39.455 87.7572 37.3815 93.9778C35.3754 99.9964 33.3692 114.735 34.3954 120H61.6436C57.9431 113.752 54.9434 108.333 53.535 105.516C48.9197 96.2855 48.0591 85.0962 50.3665 80.4808Z" fill="url(#paint14_linear_2911_117)"/>
<path d="M50.3665 80.4808C44.3043 83.3655 39.455 87.7572 37.3815 93.9778C35.3754 99.9964 33.3692 114.735 34.3954 120H61.6436C57.9431 113.752 54.9434 108.333 53.535 105.516C48.9197 96.2855 48.0591 85.0962 50.3665 80.4808Z" fill="url(#paint15_radial_2911_117)"/>
<path d="M93.2234 39.4448C96.2907 39.4448 93.2229 36.0426 93.224 31.8646C93.2271 19.5232 107.014 21.621 110.969 29.3264C113.01 33.3047 115.745 42.9101 112.98 44.4888C115.17 48.1507 111.46 49.5968 113.403 53.674C115.346 57.7513 111.684 72.7668 102.295 69.8004C86.2821 64.7411 90.4935 44.065 93.2234 39.4448Z" fill="url(#paint16_linear_2911_117)"/>
<path d="M93.2234 39.4448C96.2907 39.4448 93.2229 36.0426 93.224 31.8646C93.2271 19.5232 107.014 21.621 110.969 29.3264C113.01 33.3047 115.745 42.9101 112.98 44.4888C115.17 48.1507 111.46 49.5968 113.403 53.674C115.346 57.7513 111.684 72.7668 102.295 69.8004C86.2821 64.7411 90.4935 44.065 93.2234 39.4448Z" fill="url(#paint17_radial_2911_117)"/>
<path d="M106.85 30.5802C102.464 21.514 89.3022 9.23083 76.1419 9.23083C47.481 9.23083 46.8954 34.3821 47.4803 45.7879C48.0652 57.1937 63.5658 70.6466 71.4621 84.3921C79.3584 98.1375 98.0501 99.5998 102.145 92.2884C106.24 84.977 108.604 62.4579 108.604 59.2409C108.604 56.0238 106.85 52.2219 108.604 49.2974C110.358 46.3728 111.236 39.6463 106.85 30.5802Z" fill="url(#paint18_linear_2911_117)"/>
<path d="M106.85 30.5802C102.464 21.514 89.3022 9.23083 76.1419 9.23083C47.481 9.23083 46.8954 34.3821 47.4803 45.7879C48.0652 57.1937 63.5658 70.6466 71.4621 84.3921C79.3584 98.1375 98.0501 99.5998 102.145 92.2884C106.24 84.977 108.604 62.4579 108.604 59.2409C108.604 56.0238 106.85 52.2219 108.604 49.2974C110.358 46.3728 111.236 39.6463 106.85 30.5802Z" fill="url(#paint19_linear_2911_117)"/>
<path d="M106.85 30.5802C102.464 21.514 89.3022 9.23083 76.1419 9.23083C47.481 9.23083 46.8954 34.3821 47.4803 45.7879C48.0652 57.1937 63.5658 70.6466 71.4621 84.3921C79.3584 98.1375 98.0501 99.5998 102.145 92.2884C106.24 84.977 108.604 62.4579 108.604 59.2409C108.604 56.0238 106.85 52.2219 108.604 49.2974C110.358 46.3728 111.236 39.6463 106.85 30.5802Z" fill="url(#paint20_radial_2911_117)"/>
<path d="M106.85 30.5802C102.464 21.514 89.3022 9.23083 76.1419 9.23083C47.481 9.23083 46.8954 34.3821 47.4803 45.7879C48.0652 57.1937 63.5658 70.6466 71.4621 84.3921C79.3584 98.1375 98.0501 99.5998 102.145 92.2884C106.24 84.977 108.604 62.4579 108.604 59.2409C108.604 56.0238 106.85 52.2219 108.604 49.2974C110.358 46.3728 111.236 39.6463 106.85 30.5802Z" fill="url(#paint21_radial_2911_117)"/>
<path d="M106.85 30.5802C102.464 21.514 89.3022 9.23083 76.1419 9.23083C47.481 9.23083 46.8954 34.3821 47.4803 45.7879C48.0652 57.1937 63.5658 70.6466 71.4621 84.3921C79.3584 98.1375 98.0501 99.5998 102.145 92.2884C106.24 84.977 108.604 62.4579 108.604 59.2409C108.604 56.0238 106.85 52.2219 108.604 49.2974C110.358 46.3728 111.236 39.6463 106.85 30.5802Z" fill="url(#paint22_radial_2911_117)"/>
<path d="M106.85 30.5802C102.464 21.514 89.3022 9.23083 76.1419 9.23083C47.481 9.23083 46.8954 34.3821 47.4803 45.7879C48.0652 57.1937 63.5658 70.6466 71.4621 84.3921C79.3584 98.1375 98.0501 99.5998 102.145 92.2884C106.24 84.977 108.604 62.4579 108.604 59.2409C108.604 56.0238 106.85 52.2219 108.604 49.2974C110.358 46.3728 111.236 39.6463 106.85 30.5802Z" fill="url(#paint23_radial_2911_117)"/>
<path d="M62.4279 37.3899C67.7767 43.2391 57.8437 49.3806 57.0791 49.9655C57.5038 51.1353 58.3531 54.4694 58.3531 58.4468C58.3531 63.4185 57.3257 76.4111 49.1488 73.2814C35.2032 67.9439 37.1266 48.7991 39.5041 43.9249C42.1755 43.9249 39.5037 40.3354 39.5046 35.9276C39.5069 25.1229 45.6545 27.0815 50.1999 29.6345C50.388 29.3618 50.6396 29.026 50.9667 28.6163C53.2081 25.8087 56.8249 32.3207 58.3531 35.9276C57.9284 34.4653 58.1489 32.7106 62.4279 37.3899Z" fill="url(#paint24_linear_2911_117)"/>
<path d="M62.4279 37.3899C67.7767 43.2391 57.8437 49.3806 57.0791 49.9655C57.5038 51.1353 58.3531 54.4694 58.3531 58.4468C58.3531 63.4185 57.3257 76.4111 49.1488 73.2814C35.2032 67.9439 37.1266 48.7991 39.5041 43.9249C42.1755 43.9249 39.5037 40.3354 39.5046 35.9276C39.5069 25.1229 45.6545 27.0815 50.1999 29.6345C50.388 29.3618 50.6396 29.026 50.9667 28.6163C53.2081 25.8087 56.8249 32.3207 58.3531 35.9276C57.9284 34.4653 58.1489 32.7106 62.4279 37.3899Z" fill="url(#paint25_radial_2911_117)"/>
<path d="M43.3091 58.8119C41.4377 47.8156 47.1098 49.7457 50.6194 51.7929C54.129 53.8402 51.2044 55.8873 54.1288 58.8119C57.0533 61.7365 59.6856 62.0289 59.1007 65.8308C58.5158 69.6327 45.1804 69.8082 43.3091 58.8119Z" fill="url(#paint26_radial_2911_117)"/>
<path d="M53.9957 51.7202C57.2126 51.3303 67.067 53.2409 68.7051 64.0033C72.7995 64.0033 81.1055 66.343 81.5734 75.7016C83.7181 73.167 89.274 68.1219 95.1119 68.1219C104.453 68.1219 107.895 70.1449 116.669 87.3998C120.661 95.2517 118.747 110.642 114.814 120H77.1885C67.1956 112.482 56.0299 100.84 53.9957 92.9565C52.3388 86.5352 53.029 81.581 53.5727 77.6783C53.7966 76.0708 53.9957 74.6417 53.9957 73.362C53.9957 71.986 54.3122 70.1785 54.6473 68.2642C55.3807 64.0755 56.2035 59.3759 53.9957 57.5693C50.779 54.9372 52.2407 53.475 53.9957 51.7202Z" fill="url(#paint27_radial_2911_117)"/>
<path d="M53.9957 51.7202C57.2126 51.3303 67.067 53.2409 68.7051 64.0033C72.7995 64.0033 81.1055 66.343 81.5734 75.7016C83.7181 73.167 89.274 68.1219 95.1119 68.1219C104.453 68.1219 107.895 70.1449 116.669 87.3998C120.661 95.2517 118.747 110.642 114.814 120H77.1885C67.1956 112.482 56.0299 100.84 53.9957 92.9565C52.3388 86.5352 53.029 81.581 53.5727 77.6783C53.7966 76.0708 53.9957 74.6417 53.9957 73.362C53.9957 71.986 54.3122 70.1785 54.6473 68.2642C55.3807 64.0755 56.2035 59.3759 53.9957 57.5693C50.779 54.9372 52.2407 53.475 53.9957 51.7202Z" fill="url(#paint28_radial_2911_117)"/>
<path d="M53.9957 51.7202C57.2126 51.3303 67.067 53.2409 68.7051 64.0033C72.7995 64.0033 81.1055 66.343 81.5734 75.7016C83.7181 73.167 89.274 68.1219 95.1119 68.1219C104.453 68.1219 107.895 70.1449 116.669 87.3998C120.661 95.2517 118.747 110.642 114.814 120H77.1885C67.1956 112.482 56.0299 100.84 53.9957 92.9565C52.3388 86.5352 53.029 81.581 53.5727 77.6783C53.7966 76.0708 53.9957 74.6417 53.9957 73.362C53.9957 71.986 54.3122 70.1785 54.6473 68.2642C55.3807 64.0755 56.2035 59.3759 53.9957 57.5693C50.779 54.9372 52.2407 53.475 53.9957 51.7202Z" fill="url(#paint29_radial_2911_117)"/>
<path d="M53.9957 51.7202C57.2126 51.3303 67.067 53.2409 68.7051 64.0033C72.7995 64.0033 81.1055 66.343 81.5734 75.7016C83.7181 73.167 89.274 68.1219 95.1119 68.1219C104.453 68.1219 107.895 70.1449 116.669 87.3998C120.661 95.2517 118.747 110.642 114.814 120H77.1885C67.1956 112.482 56.0299 100.84 53.9957 92.9565C52.3388 86.5352 53.029 81.581 53.5727 77.6783C53.7966 76.0708 53.9957 74.6417 53.9957 73.362C53.9957 71.986 54.3122 70.1785 54.6473 68.2642C55.3807 64.0755 56.2035 59.3759 53.9957 57.5693C50.779 54.9372 52.2407 53.475 53.9957 51.7202Z" fill="url(#paint30_radial_2911_117)"/>
<path d="M53.9957 51.7202C57.2126 51.3303 67.067 53.2409 68.7051 64.0033C72.7995 64.0033 81.1055 66.343 81.5734 75.7016C83.7181 73.167 89.274 68.1219 95.1119 68.1219C104.453 68.1219 107.895 70.1449 116.669 87.3998C120.661 95.2517 118.747 110.642 114.814 120H77.1885C67.1956 112.482 56.0299 100.84 53.9957 92.9565C52.3388 86.5352 53.029 81.581 53.5727 77.6783C53.7966 76.0708 53.9957 74.6417 53.9957 73.362C53.9957 71.986 54.3122 70.1785 54.6473 68.2642C55.3807 64.0755 56.2035 59.3759 53.9957 57.5693C50.779 54.9372 52.2407 53.475 53.9957 51.7202Z" fill="url(#paint31_radial_2911_117)"/>
<path d="M94.9721 74.0435H100.298C101.895 74.0435 103.404 74.9688 103.146 76.5448C103.038 77.2047 102.865 77.6998 102.867 77.7128C102.867 77.7129 102.867 77.713 102.867 77.713C102.867 77.713 102.867 77.7129 102.867 77.7128C102.792 77.6968 96.413 76.9706 93.526 77.713L89.3852 79.4043C88.936 79.5878 88.5443 79.0428 88.8612 78.6755L91.478 75.6434C92.3548 74.6275 93.6302 74.0435 94.9721 74.0435Z" fill="url(#paint32_linear_2911_117)"/>
<path d="M94.9721 74.0435H100.298C101.895 74.0435 103.404 74.9688 103.146 76.5448C103.038 77.2047 102.865 77.6998 102.867 77.7128C102.867 77.7129 102.867 77.713 102.867 77.713C102.867 77.713 102.867 77.7129 102.867 77.7128C102.792 77.6968 96.413 76.9706 93.526 77.713L89.3852 79.4043C88.936 79.5878 88.5443 79.0428 88.8612 78.6755L91.478 75.6434C92.3548 74.6275 93.6302 74.0435 94.9721 74.0435Z" fill="url(#paint33_linear_2911_117)"/>
<path d="M100.54 59.9746C98.8097 58.5328 97.0969 53.7261 96.3036 44.7117L89.5969 45.2886L90.9884 59.9746C89.6067 60.3951 86.6631 61.7046 85.9423 63.5789C85.0412 65.9217 87.2038 69.7062 90.0872 69.7062C92.9707 69.7062 93.5113 67.7239 95.3135 69.7062C97.1157 71.6886 100.54 69.8864 102.342 67.7239C104.144 65.5613 102.702 61.7767 100.54 59.9746Z" fill="url(#paint34_linear_2911_117)"/>
<path d="M100.54 59.9746C98.8097 58.5328 97.0969 53.7261 96.3036 44.7117L89.5969 45.2886L90.9884 59.9746C89.6067 60.3951 86.6631 61.7046 85.9423 63.5789C85.0412 65.9217 87.2038 69.7062 90.0872 69.7062C92.9707 69.7062 93.5113 67.7239 95.3135 69.7062C97.1157 71.6886 100.54 69.8864 102.342 67.7239C104.144 65.5613 102.702 61.7767 100.54 59.9746Z" fill="url(#paint35_radial_2911_117)"/>
<path d="M100.54 59.9746C98.8097 58.5328 97.0969 53.7261 96.3036 44.7117L89.5969 45.2886L90.9884 59.9746C89.6067 60.3951 86.6631 61.7046 85.9423 63.5789C85.0412 65.9217 87.2038 69.7062 90.0872 69.7062C92.9707 69.7062 93.5113 67.7239 95.3135 69.7062C97.1157 71.6886 100.54 69.8864 102.342 67.7239C104.144 65.5613 102.702 61.7767 100.54 59.9746Z" fill="url(#paint36_radial_2911_117)"/>
<path d="M100.54 59.9746C98.8097 58.5328 97.0969 53.7261 96.3036 44.7117L89.5969 45.2886L90.9884 59.9746C89.6067 60.3951 86.6631 61.7046 85.9423 63.5789C85.0412 65.9217 87.2038 69.7062 90.0872 69.7062C92.9707 69.7062 93.5113 67.7239 95.3135 69.7062C97.1157 71.6886 100.54 69.8864 102.342 67.7239C104.144 65.5613 102.702 61.7767 100.54 59.9746Z" fill="url(#paint37_radial_2911_117)"/>
<path d="M87.4881 52.6291C83.8999 53.4379 80.3235 52.6809 78.0946 50.8417C80.9696 49.309 84.9163 47.0782 86.8608 48.282C88.8054 49.4859 88.0892 51.6817 87.4881 52.6291Z" fill="url(#paint38_linear_2911_117)"/>
<path d="M87.4881 52.6291C83.8999 53.4379 80.3235 52.6809 78.0946 50.8417C80.9696 49.309 84.9163 47.0782 86.8608 48.282C88.8054 49.4859 88.0892 51.6817 87.4881 52.6291Z" fill="url(#paint39_linear_2911_117)"/>
<path d="M105.714 44.6757C95.0399 44.6756 96.5052 45.3358 97.7444 50.4088C99.4791 51.3953 103.083 52.149 104.655 52.0315C108.49 51.7447 112.144 44.6757 105.714 44.6757Z" fill="url(#paint40_linear_2911_117)"/>
<path d="M105.001 46.4165C102.466 46.4165 100.3 48.952 99.534 50.2197C100.881 50.9857 103.86 52.4066 105.001 51.9629C106.427 51.4082 108.171 46.4165 105.001 46.4165Z" fill="url(#paint41_linear_2911_117)"/>
<path d="M106.763 48.7085C106.617 47.5152 105.738 46.5732 104.632 46.4346C103.985 46.4967 103.365 46.717 102.792 47.0291C102.256 47.5135 101.916 48.2424 101.916 49.0575C101.916 50.5159 103.006 51.6981 104.35 51.6981C104.948 51.6981 105.496 51.464 105.92 51.0756C106.34 50.4282 106.677 49.5376 106.763 48.7085Z" fill="url(#paint42_linear_2911_117)"/>
<ellipse cx="104.77" cy="48.9774" rx="1.49834" ry="1.62559" fill="url(#paint43_linear_2911_117)"/>
<path d="M90.21 52.1395C84.4955 54.6702 76.9958 51.9735 74.3086 50.4088C78.0158 47.3178 88.52 43.6454 89.3807 46.4424C89.6692 47.3798 90.4985 50.1564 90.21 52.1395Z" fill="url(#paint44_linear_2911_117)"/>
<path d="M87.4885 52.6291C83.9004 53.4379 80.3239 52.6809 78.0951 50.8417C80.97 49.309 84.9168 47.0782 86.8613 48.282C88.8058 49.4859 88.0897 51.6817 87.4885 52.6291Z" fill="url(#paint45_linear_2911_117)"/>
<path d="M87.4885 52.6291C83.9004 53.4379 80.3239 52.6809 78.0951 50.8417C80.97 49.309 84.9168 47.0782 86.8613 48.282C88.8058 49.4859 88.0897 51.6817 87.4885 52.6291Z" fill="url(#paint46_linear_2911_117)"/>
<path d="M85.064 52.9312C86.4082 52.9312 87.4979 51.7489 87.4979 50.2906C87.4979 49.3632 87.0572 48.5475 86.3907 48.0764C85.6231 47.8543 84.578 47.9955 83.4296 48.3339C82.9385 48.817 82.6301 49.5147 82.6301 50.2906C82.6301 51.7489 83.7198 52.9312 85.064 52.9312Z" fill="url(#paint47_linear_2911_117)"/>
<ellipse cx="85.4836" cy="50.2112" rx="1.49834" ry="1.62559" fill="url(#paint48_linear_2911_117)"/>
<path d="M104.123 40.9335C102.237 41.7194 96.4471 44.2415 96.4471 46.0098C97.233 48.5641 104.025 44.9613 107.955 47.319C110.411 48.7926 114.242 46.6313 113.161 44.9613C112.081 43.2912 106.481 39.9511 104.123 40.9335Z" fill="url(#paint49_radial_2911_117)"/>
<path d="M85.9423 42.3128C81.6171 42.6732 75.5118 45.092 72.1557 48.7105C71.1646 50.3325 75.0392 50.6928 76.8414 50.5126C78.6435 50.3324 80.0852 47.6291 82.9687 48.0797C85.8521 48.5302 91.1113 46.7307 91.2915 46.2801C91.4717 45.8296 91.3487 41.8623 85.9423 42.3128Z" fill="url(#paint50_radial_2911_117)"/>
<defs>
<linearGradient id="paint0_linear_2911_117" x1="152.77" y1="3.91397" x2="205.125" y2="150.308" gradientUnits="userSpaceOnUse">
<stop stop-color="#FFFAE9"/>
<stop offset="1" stop-color="#E4C094"/>
</linearGradient>
<linearGradient id="paint1_linear_2911_117" x1="135.029" y1="10.5486" x2="215.51" y2="113.385" gradientUnits="userSpaceOnUse">
<stop stop-color="#987F6D" stop-opacity="0.33"/>
<stop offset="1" stop-color="#987F6D" stop-opacity="0.66"/>
</linearGradient>
<radialGradient id="paint2_radial_2911_117" cx="0" cy="0" r="1" gradientUnits="userSpaceOnUse" gradientTransform="translate(160.642 47.4203) rotate(-96.9013) scale(22.0831 25.9186)">
<stop stop-color="#73655B"/>
<stop offset="1" stop-color="#9B816E"/>
</radialGradient>
<radialGradient id="paint3_radial_2911_117" cx="0" cy="0" r="1" gradientUnits="userSpaceOnUse" gradientTransform="translate(178.469 22.6127) rotate(78.4575) scale(10.4518)">
<stop stop-color="#CFBEAF"/>
<stop offset="1" stop-color="#5A3E33"/>
</radialGradient>
<radialGradient id="paint4_radial_2911_117" cx="0" cy="0" r="1" gradientUnits="userSpaceOnUse" gradientTransform="translate(170.382 74.8863) rotate(78.4575) scale(7.61738)">
<stop stop-color="#CFBEAF"/>
<stop offset="1" stop-color="#5A3E33"/>
</radialGradient>
<radialGradient id="paint5_radial_2911_117" cx="0" cy="0" r="1" gradientUnits="userSpaceOnUse" gradientTransform="translate(156.373 87.8501) rotate(-95.2042) scale(13.7499 12.2208)">
<stop stop-color="#73655B"/>
<stop offset="1" stop-color="#9B816E"/>
</radialGradient>
<radialGradient id="paint6_radial_2911_117" cx="0" cy="0" r="1" gradientUnits="userSpaceOnUse" gradientTransform="translate(78.4621 120) rotate(-90) scale(41.5385 225)">
<stop stop-color="#31679E"/>
<stop offset="0.489583" stop-color="#7392B1"/>
<stop offset="0.979063" stop-color="#9EC8F1"/>
</radialGradient>
<linearGradient id="paint7_linear_2911_117" x1="136.761" y1="97.7885" x2="120.001" y2="110.769" gradientUnits="userSpaceOnUse">
<stop stop-color="#195087"/>
<stop offset="0.699831" stop-color="#7091B2" stop-opacity="0"/>
</linearGradient>
<linearGradient id="paint8_linear_2911_117" x1="98.1066" y1="130.096" x2="125.222" y2="123.173" gradientUnits="userSpaceOnUse">
<stop stop-color="#B7998F"/>
<stop offset="0.4966" stop-color="#A08379"/>
<stop offset="1" stop-color="#472A21"/>
</linearGradient>
<linearGradient id="paint9_linear_2911_117" x1="52.5297" y1="78.75" x2="69.5489" y2="125.192" gradientUnits="userSpaceOnUse">
<stop stop-color="#D3E1E9"/>
<stop offset="0.23614" stop-color="white"/>
<stop offset="1" stop-color="#B2C2DA"/>
</linearGradient>
<linearGradient id="paint10_linear_2911_117" x1="52.5297" y1="78.75" x2="69.5489" y2="125.192" gradientUnits="userSpaceOnUse">
<stop stop-color="#E9E8D3"/>
<stop offset="0.23614" stop-color="white"/>
<stop offset="1" stop-color="#DAD6B2"/>
</linearGradient>
<linearGradient id="paint11_linear_2911_117" x1="141.056" y1="119.432" x2="125.299" y2="128.654" gradientUnits="userSpaceOnUse">
<stop offset="0.0740631" stop-color="#3B6EA1"/>
<stop offset="0.830413" stop-color="#5B82A9"/>
</linearGradient>
<linearGradient id="paint12_linear_2911_117" x1="140.77" y1="115.385" x2="122.515" y2="127.242" gradientUnits="userSpaceOnUse">
<stop offset="0.597612" stop-color="#BFE0FF" stop-opacity="0"/>
<stop offset="1" stop-color="#BFE0FF" stop-opacity="0.66"/>
</linearGradient>
<linearGradient id="paint13_linear_2911_117" x1="79.0351" y1="126.923" x2="66.0427" y2="137.516" gradientUnits="userSpaceOnUse">
<stop stop-color="#B6998E"/>
<stop offset="1" stop-color="#472A21"/>
</linearGradient>
<linearGradient id="paint14_linear_2911_117" x1="62.9134" y1="119.423" x2="47.9134" y2="127.212" gradientUnits="userSpaceOnUse">
<stop offset="0.0740631" stop-color="#3B6EA1"/>
<stop offset="1" stop-color="#5B82A9"/>
</linearGradient>
<radialGradient id="paint15_radial_2911_117" cx="0" cy="0" r="1" gradientUnits="userSpaceOnUse" gradientTransform="translate(61.7596 120.577) rotate(175.822) scale(27.7164 74.2085)">
<stop offset="0.669241" stop-color="#BFE0FF" stop-opacity="0"/>
<stop offset="1" stop-color="#BFE0FF" stop-opacity="0.66"/>
</radialGradient>
<linearGradient id="paint16_linear_2911_117" x1="107.147" y1="55.7045" x2="107.147" y2="27.9838" gradientUnits="userSpaceOnUse">
<stop stop-color="#D2C7C4"/>
<stop offset="1" stop-color="#E1D8D7"/>
</linearGradient>
<radialGradient id="paint17_radial_2911_117" cx="0" cy="0" r="1" gradientUnits="userSpaceOnUse" gradientTransform="translate(107.337 34.6155) rotate(-14.0362) scale(9.51486 14.6921)">
<stop stop-color="white"/>
<stop offset="1" stop-color="white" stop-opacity="0"/>
</radialGradient>
<linearGradient id="paint18_linear_2911_117" x1="78.7035" y1="9.23083" x2="78.7035" y2="96.6314" gradientUnits="userSpaceOnUse">
<stop stop-color="#E6D4CB"/>
<stop offset="1" stop-color="#B58877"/>
</linearGradient>
<linearGradient id="paint19_linear_2911_117" x1="78.7035" y1="9.23083" x2="78.7035" y2="96.6314" gradientUnits="userSpaceOnUse">
<stop stop-color="#D9BFAD"/>
<stop offset="1" stop-color="#A76B4F"/>
</linearGradient>
<radialGradient id="paint20_radial_2911_117" cx="0" cy="0" r="1" gradientUnits="userSpaceOnUse" gradientTransform="translate(80.222 61.4424) rotate(87.3974) scale(12.7054 21.2848)">
<stop stop-color="#FF855A" stop-opacity="0.33"/>
<stop offset="1" stop-color="#FF855A" stop-opacity="0"/>
</radialGradient>
<radialGradient id="paint21_radial_2911_117" cx="0" cy="0" r="1" gradientUnits="userSpaceOnUse" gradientTransform="translate(105.03 61.4424) rotate(84.6442) scale(9.27124 10.7342)">
<stop stop-color="#FF855A" stop-opacity="0.33"/>
<stop offset="1" stop-color="#FF855A" stop-opacity="0"/>
</radialGradient>
<radialGradient id="paint22_radial_2911_117" cx="0" cy="0" r="1" gradientUnits="userSpaceOnUse" gradientTransform="translate(54.2605 12.9808) rotate(40.5095) scale(39.0788 113.117)">
<stop stop-color="#FFBBA3" stop-opacity="0.55"/>
<stop offset="1" stop-color="#FFBBA3" stop-opacity="0"/>
</radialGradient>
<radialGradient id="paint23_radial_2911_117" cx="0" cy="0" r="1" gradientUnits="userSpaceOnUse" gradientTransform="translate(85.385 25.3847) rotate(128.66) scale(14.7764 19.9685)">
<stop stop-color="#FAD9C6" stop-opacity="0.8"/>
<stop offset="1" stop-color="#FAD9C6" stop-opacity="0"/>
</radialGradient>
<linearGradient id="paint24_linear_2911_117" x1="51.631" y1="61.0789" x2="51.631" y2="31.8333" gradientUnits="userSpaceOnUse">
<stop stop-color="#D2C7C4"/>
<stop offset="1" stop-color="#E1D8D7"/>
</linearGradient>
<radialGradient id="paint25_radial_2911_117" cx="0" cy="0" r="1" gradientUnits="userSpaceOnUse" gradientTransform="translate(58.445 43.9249) rotate(111.16) scale(25.7556 15.2181)">
<stop stop-color="white"/>
<stop offset="1" stop-color="white" stop-opacity="0"/>
</radialGradient>
<radialGradient id="paint26_radial_2911_117" cx="0" cy="0" r="1" gradientUnits="userSpaceOnUse" gradientTransform="translate(51.0612 59.1956) rotate(-143.817) scale(10.0622 9.09559)">
<stop stop-color="#876156"/>
<stop offset="1" stop-color="#CC9986"/>
</radialGradient>
<radialGradient id="paint27_radial_2911_117" cx="0" cy="0" r="1" gradientUnits="userSpaceOnUse" gradientTransform="translate(63.5027 112.324) rotate(-52.5753) scale(38.6462 74.7934)">
<stop stop-color="#98837B"/>
<stop offset="1" stop-color="#DBD1CF"/>
</radialGradient>
<radialGradient id="paint28_radial_2911_117" cx="0" cy="0" r="1" gradientUnits="userSpaceOnUse" gradientTransform="translate(83.6854 96.8113) rotate(-41.367) scale(14.8909 30.1966)">
<stop stop-color="white" stop-opacity="0.66"/>
<stop offset="1" stop-color="white" stop-opacity="0"/>
</radialGradient>
<radialGradient id="paint29_radial_2911_117" cx="0" cy="0" r="1" gradientUnits="userSpaceOnUse" gradientTransform="translate(103.701 101.982) rotate(-97.4652) scale(24.3926 24.3926)">
<stop stop-color="white" stop-opacity="0.66"/>
<stop offset="1" stop-color="white" stop-opacity="0"/>
</radialGradient>
<radialGradient id="paint30_radial_2911_117" cx="0" cy="0" r="1" gradientUnits="userSpaceOnUse" gradientTransform="translate(64.3367 65.1195) rotate(-25.9744) scale(7.23606 24.4419)">
<stop stop-color="white" stop-opacity="0.66"/>
<stop offset="1" stop-color="white" stop-opacity="0"/>
</radialGradient>
<radialGradient id="paint31_radial_2911_117" cx="0" cy="0" r="1" gradientUnits="userSpaceOnUse" gradientTransform="translate(91.1913 72.9591) rotate(-120.368) scale(8.31289 18.7763)">
<stop stop-color="white" stop-opacity="0.66"/>
<stop offset="1" stop-color="white" stop-opacity="0"/>
</radialGradient>
<linearGradient id="paint32_linear_2911_117" x1="97.2789" y1="74.0435" x2="97.2789" y2="80.632" gradientUnits="userSpaceOnUse">
<stop stop-color="#5E362A"/>
<stop offset="0.635029" stop-color="#9A5744"/>
</linearGradient>
<linearGradient id="paint33_linear_2911_117" x1="102.7" y1="77.3377" x2="97.279" y2="80.632" gradientUnits="userSpaceOnUse">
<stop stop-color="#3F2C30" stop-opacity="0.55"/>
<stop offset="1" stop-color="#3F2C30" stop-opacity="0"/>
</linearGradient>
<linearGradient id="paint34_linear_2911_117" x1="102.433" y1="58.9905" x2="81.2315" y2="61.5867" gradientUnits="userSpaceOnUse">
<stop offset="0.199015" stop-color="#FAD8C6"/>
<stop offset="0.428532" stop-color="#B2826E"/>
<stop offset="0.844063" stop-color="#EDC0AC"/>
<stop offset="1" stop-color="#F4BCA2"/>
</linearGradient>
<radialGradient id="paint35_radial_2911_117" cx="0" cy="0" r="1" gradientUnits="userSpaceOnUse" gradientTransform="translate(98.8998 70.1684) rotate(-84.3327) scale(9.49352 28.7)">
<stop offset="0.114368" stop-color="#B48471"/>
<stop offset="0.545182" stop-color="#D3B6AA"/>
<stop offset="1" stop-color="#D0B2A5" stop-opacity="0"/>
</radialGradient>
<radialGradient id="paint36_radial_2911_117" cx="0" cy="0" r="1" gradientUnits="userSpaceOnUse" gradientTransform="translate(87.5777 68.3655) rotate(-41.7295) scale(7.1507)">
<stop offset="0.248619" stop-color="#AC6F57"/>
<stop offset="1" stop-color="#D0B2A5" stop-opacity="0"/>
</radialGradient>
<radialGradient id="paint37_radial_2911_117" cx="0" cy="0" r="1" gradientUnits="userSpaceOnUse" gradientTransform="translate(94.4468 44.759) rotate(76.8846) scale(6.91182 9.98629)">
<stop offset="0.402671" stop-color="#C59E88"/>
<stop offset="1" stop-color="#C59E88" stop-opacity="0"/>
</radialGradient>
<linearGradient id="paint38_linear_2911_117" x1="82.6286" y1="48.8946" x2="83.323" y2="54.3032" gradientUnits="userSpaceOnUse">
<stop stop-color="#B1B9BF"/>
<stop offset="1" stop-color="#E0EBF3"/>
</linearGradient>
<linearGradient id="paint39_linear_2911_117" x1="82.6286" y1="48.8946" x2="83.323" y2="54.3032" gradientUnits="userSpaceOnUse">
<stop offset="0.304063" stop-color="#9CA2A6"/>
<stop offset="1" stop-color="#CFDDE7"/>
</linearGradient>
<linearGradient id="paint40_linear_2911_117" x1="106.108" y1="47.1569" x2="101.222" y2="53.6925" gradientUnits="userSpaceOnUse">
<stop stop-color="#462F31" stop-opacity="0.33"/>
<stop offset="1" stop-color="#C69482"/>
</linearGradient>
<linearGradient id="paint41_linear_2911_117" x1="102.809" y1="47.4901" x2="103.995" y2="53.429" gradientUnits="userSpaceOnUse">
<stop offset="0.249063" stop-color="#B1B9BF"/>
<stop offset="1" stop-color="#E0EBF3"/>
</linearGradient>
<linearGradient id="paint42_linear_2911_117" x1="104.412" y1="47.3631" x2="104.861" y2="52.1263" gradientUnits="userSpaceOnUse">
<stop stop-color="#1A3D5D"/>
<stop offset="1" stop-color="#719DC5"/>
</linearGradient>
<linearGradient id="paint43_linear_2911_117" x1="104.77" y1="47.3518" x2="104.77" y2="50.603" gradientUnits="userSpaceOnUse">
<stop stop-color="#232262"/>
<stop offset="1" stop-color="#4E4C87"/>
</linearGradient>
<linearGradient id="paint44_linear_2911_117" x1="88.022" y1="47.3486" x2="83.6852" y2="56.1012" gradientUnits="userSpaceOnUse">
<stop stop-color="#462F31" stop-opacity="0.5"/>
<stop offset="1" stop-color="#C69482"/>
</linearGradient>
<linearGradient id="paint45_linear_2911_117" x1="82.629" y1="48.8946" x2="83.3234" y2="54.3032" gradientUnits="userSpaceOnUse">
<stop stop-color="#B1B9BF"/>
<stop offset="1" stop-color="#E0EBF3"/>
</linearGradient>
<linearGradient id="paint46_linear_2911_117" x1="82.629" y1="48.8946" x2="83.3234" y2="54.3032" gradientUnits="userSpaceOnUse">
<stop offset="0.304063" stop-color="#9CA2A6"/>
<stop offset="1" stop-color="#CFDDE7"/>
</linearGradient>
<linearGradient id="paint47_linear_2911_117" x1="85.126" y1="48.8584" x2="85.5226" y2="53.3382" gradientUnits="userSpaceOnUse">
<stop stop-color="#1A3D5D"/>
<stop offset="1" stop-color="#719DC5"/>
</linearGradient>
<linearGradient id="paint48_linear_2911_117" x1="85.4836" y1="48.5856" x2="85.4836" y2="51.8367" gradientUnits="userSpaceOnUse">
<stop stop-color="#232262"/>
<stop offset="1" stop-color="#4E4C87"/>
</linearGradient>
<radialGradient id="paint49_radial_2911_117" cx="0" cy="0" r="1" gradientUnits="userSpaceOnUse" gradientTransform="translate(106.036 46.8441) rotate(-85.156) scale(4.9382 11.0675)">
<stop stop-color="#B4A49E"/>
<stop offset="0.827154" stop-color="#E4DCDB"/>
</radialGradient>
<radialGradient id="paint50_radial_2911_117" cx="0" cy="0" r="1" gradientUnits="userSpaceOnUse" gradientTransform="translate(83.1012 48.1785) rotate(-96.4588) scale(4.4484 9.90896)">
<stop stop-color="#B4A49E"/>
<stop offset="0.827154" stop-color="#E4DCDB"/>
</radialGradient>
</defs>
</svg>
