<svg viewBox="0 0 240 120" fill="none" xmlns="http://www.w3.org/2000/svg">
<path d="M94.9861 7.20995C42.9581 -4.38496 3.64863 39.539 24.0422 65.6978C44.4357 91.8566 192.541 83.3685 211.97 64.9401C231.398 46.5117 225.816 22.8129 202.294 14.7099C178.772 6.607 152.625 20.0553 94.9861 7.20995Z" fill="url(#paint0_linear_10833_34548)"/>
<path d="M94.9861 7.20995C42.9581 -4.38496 3.64863 39.539 24.0422 65.6978C44.4357 91.8566 192.541 83.3685 211.97 64.9401C231.398 46.5117 225.816 22.8129 202.294 14.7099C178.772 6.607 152.625 20.0553 94.9861 7.20995Z" fill="url(#paint1_linear_10833_34548)"/>
<path d="M94.9861 7.20995C42.9581 -4.38496 3.64863 39.539 24.0422 65.6978C44.4357 91.8566 192.541 83.3685 211.97 64.9401C231.398 46.5117 225.816 22.8129 202.294 14.7099C178.772 6.607 152.625 20.0553 94.9861 7.20995Z" fill="url(#paint2_radial_10833_34548)"/>
<path d="M27.7732 84.2302C27.7732 81.4902 9.60014 80.5881 6.85977 75.7205C4.1194 70.8529 15.266 64.9032 33.8308 64.9032C52.3957 64.9032 220.059 59.9515 221.133 69.4113C224.754 101.33 189.947 112.093 171.571 115.528C156.138 118.413 51.597 120.143 46.9558 114.663C42.3145 109.183 54.5034 106.604 48.8308 102.836C43.1582 99.0681 21.9753 101.052 19.2495 94.2997C16.5236 87.5474 27.7732 86.9703 27.7732 84.2302Z" fill="url(#paint3_radial_10833_34548)"/>
<path d="M27.7732 84.2302C27.7732 81.4902 9.60014 80.5881 6.85977 75.7205C4.1194 70.8529 15.266 64.9032 33.8308 64.9032C52.3957 64.9032 220.059 59.9515 221.133 69.4113C224.754 101.33 189.947 112.093 171.571 115.528C156.138 118.413 51.597 120.143 46.9558 114.663C42.3145 109.183 54.5034 106.604 48.8308 102.836C43.1582 99.0681 21.9753 101.052 19.2495 94.2997C16.5236 87.5474 27.7732 86.9703 27.7732 84.2302Z" fill="url(#paint4_radial_10833_34548)"/>
<path d="M146.704 94.9072C132.562 98.6493 111.924 94.5577 110.945 102.208C114.549 106.688 147.692 103.197 175.74 106.34C207.317 109.879 227.388 102.006 227.388 99.0128C227.388 96.0191 224.205 97.1654 205.82 90.8786C187.435 84.5919 160.846 91.1651 146.704 94.9072Z" fill="url(#paint5_linear_10833_34548)"/>
<path d="M146.704 94.9072C132.562 98.6493 111.924 94.5577 110.945 102.208C114.549 106.688 147.692 103.197 175.74 106.34C207.317 109.879 227.388 102.006 227.388 99.0128C227.388 96.0191 224.205 97.1654 205.82 90.8786C187.435 84.5919 160.846 91.1651 146.704 94.9072Z" fill="url(#paint6_radial_10833_34548)"/>
<path d="M146.704 94.9072C132.562 98.6493 111.924 94.5577 110.945 102.208C114.549 106.688 147.692 103.197 175.74 106.34C207.317 109.879 227.388 102.006 227.388 99.0128C227.388 96.0191 224.205 97.1654 205.82 90.8786C187.435 84.5919 160.846 91.1651 146.704 94.9072Z" fill="url(#paint7_radial_10833_34548)"/>
<path d="M146.704 94.9072C132.562 98.6493 111.924 94.5577 110.945 102.208C114.549 106.688 147.692 103.197 175.74 106.34C207.317 109.879 227.388 102.006 227.388 99.0128C227.388 96.0191 224.205 97.1654 205.82 90.8786C187.435 84.5919 160.846 91.1651 146.704 94.9072Z" fill="url(#paint8_radial_10833_34548)"/>
<path d="M180.413 97.9381C179.648 89.1946 186.533 94.1909 188.191 93.0667C189.848 91.9425 182.453 87.4459 183.218 84.0734L193.928 76.4541C196.776 77.9113 202.445 81.4754 202.343 84.0734C202.216 87.321 193.546 97.9381 191.506 97.9381H180.413Z" fill="url(#paint9_linear_10833_34548)"/>
<path d="M180.413 97.9381C179.648 89.1946 186.533 94.1909 188.191 93.0667C189.848 91.9425 182.453 87.4459 183.218 84.0734L193.928 76.4541C196.776 77.9113 202.445 81.4754 202.343 84.0734C202.216 87.321 193.546 97.9381 191.506 97.9381H180.413Z" fill="url(#paint10_radial_10833_34548)"/>
<path d="M180.413 97.9381C179.648 89.1946 186.533 94.1909 188.191 93.0667C189.848 91.9425 182.453 87.4459 183.218 84.0734L193.928 76.4541C196.776 77.9113 202.445 81.4754 202.343 84.0734C202.216 87.321 193.546 97.9381 191.506 97.9381H180.413Z" fill="url(#paint11_radial_10833_34548)"/>
<path d="M180.413 97.9381C179.648 89.1946 186.533 94.1909 188.191 93.0667C189.848 91.9425 182.453 87.4459 183.218 84.0734L193.928 76.4541C196.776 77.9113 202.445 81.4754 202.343 84.0734C202.216 87.321 193.546 97.9381 191.506 97.9381H180.413Z" fill="url(#paint12_radial_10833_34548)"/>
<path d="M180.413 97.9381C179.648 89.1946 186.533 94.1909 188.191 93.0667C189.848 91.9425 182.453 87.4459 183.218 84.0734L193.928 76.4541C196.776 77.9113 202.445 81.4754 202.343 84.0734C202.216 87.321 193.546 97.9381 191.506 97.9381H180.413Z" fill="url(#paint13_radial_10833_34548)"/>
<path d="M142.929 83.5938C139.869 79.2588 140.252 71.9912 141.782 64.7236C146.669 66.2961 156.827 71.2262 158.357 78.3663C160.269 87.2914 153.767 97.619 150.962 97.619H139.104C140.124 89.8414 145.989 94.0489 146.754 93.0289C147.519 92.0089 145.989 87.9289 142.929 83.5938Z" fill="url(#paint14_linear_10833_34548)"/>
<path d="M142.929 83.5938C139.869 79.2588 140.252 71.9912 141.782 64.7236C146.669 66.2961 156.827 71.2262 158.357 78.3663C160.269 87.2914 153.767 97.619 150.962 97.619H139.104C140.124 89.8414 145.989 94.0489 146.754 93.0289C147.519 92.0089 145.989 87.9289 142.929 83.5938Z" fill="url(#paint15_radial_10833_34548)"/>
<path d="M142.929 83.5938C139.869 79.2588 140.252 71.9912 141.782 64.7236C146.669 66.2961 156.827 71.2262 158.357 78.3663C160.269 87.2914 153.767 97.619 150.962 97.619H139.104C140.124 89.8414 145.989 94.0489 146.754 93.0289C147.519 92.0089 145.989 87.9289 142.929 83.5938Z" fill="url(#paint16_radial_10833_34548)"/>
<path d="M142.929 83.5938C139.869 79.2588 140.252 71.9912 141.782 64.7236C146.669 66.2961 156.827 71.2262 158.357 78.3663C160.269 87.2914 153.767 97.619 150.962 97.619H139.104C140.124 89.8414 145.989 94.0489 146.754 93.0289C147.519 92.0089 145.989 87.9289 142.929 83.5938Z" fill="url(#paint17_radial_10833_34548)"/>
<path d="M122.027 30.681C116.469 30.8017 114.437 38.4292 120.912 40.3602L128.721 38.4461C128.436 36.0463 126.473 30.5845 122.027 30.681Z" fill="url(#paint18_linear_10833_34548)"/>
<path d="M122.027 30.681C116.469 30.8017 114.437 38.4292 120.912 40.3602L128.721 38.4461C128.436 36.0463 126.473 30.5845 122.027 30.681Z" fill="url(#paint19_radial_10833_34548)"/>
<path d="M122.027 30.681C116.469 30.8017 114.437 38.4292 120.912 40.3602L128.721 38.4461C128.436 36.0463 126.473 30.5845 122.027 30.681Z" fill="url(#paint20_radial_10833_34548)"/>
<path fill-rule="evenodd" clip-rule="evenodd" d="M135.789 38.2041C142.886 35.1866 152.364 30.6816 162.444 31.0238C181.593 31.6737 189.355 39.6382 203.619 41.5192C215.65 43.1056 221.134 50.9099 225.741 59.9963C229.697 62.5116 232.849 60.9939 234.582 60.1594C235.363 59.7832 235.856 59.5459 236.004 59.8794C237.533 63.054 233.532 68.1802 227.6 64.5596C228.405 67.2029 228.709 69.8179 228.355 72.247C227.07 81.0523 223.345 84.9749 220.786 87.6697C219.787 88.7209 218.966 89.5852 218.537 90.4797C218.144 91.2993 217.771 92.3128 217.384 93.3663C216.266 96.4099 215.025 99.7873 212.799 99.7873H200.814C200.814 92.6346 205.031 94.2164 207.388 95.1008C208.099 95.3672 208.64 95.5703 208.847 95.4523C209.222 95.2378 207.229 93.1286 204.737 90.491C201.304 86.8573 196.922 82.2206 196.479 80.1521C193.292 85.1247 180.287 88.1847 177.354 85.8897C176.436 89.5617 171.999 99.7873 168.811 99.7873H158.484C153.894 96.4723 157.974 90.4797 164.604 94.5598C168.556 87.2922 145.224 65.5504 136.426 63.7044L135.789 38.2041Z" fill="url(#paint21_linear_10833_34548)"/>
<path fill-rule="evenodd" clip-rule="evenodd" d="M135.789 38.2041C142.886 35.1866 152.364 30.6816 162.444 31.0238C181.593 31.6737 189.355 39.6382 203.619 41.5192C215.65 43.1056 221.134 50.9099 225.741 59.9963C229.697 62.5116 232.849 60.9939 234.582 60.1594C235.363 59.7832 235.856 59.5459 236.004 59.8794C237.533 63.054 233.532 68.1802 227.6 64.5596C228.405 67.2029 228.709 69.8179 228.355 72.247C227.07 81.0523 223.345 84.9749 220.786 87.6697C219.787 88.7209 218.966 89.5852 218.537 90.4797C218.144 91.2993 217.771 92.3128 217.384 93.3663C216.266 96.4099 215.025 99.7873 212.799 99.7873H200.814C200.814 92.6346 205.031 94.2164 207.388 95.1008C208.099 95.3672 208.64 95.5703 208.847 95.4523C209.222 95.2378 207.229 93.1286 204.737 90.491C201.304 86.8573 196.922 82.2206 196.479 80.1521C193.292 85.1247 180.287 88.1847 177.354 85.8897C176.436 89.5617 171.999 99.7873 168.811 99.7873H158.484C153.894 96.4723 157.974 90.4797 164.604 94.5598C168.556 87.2922 145.224 65.5504 136.426 63.7044L135.789 38.2041Z" fill="url(#paint22_radial_10833_34548)"/>
<path fill-rule="evenodd" clip-rule="evenodd" d="M135.789 38.2041C142.886 35.1866 152.364 30.6816 162.444 31.0238C181.593 31.6737 189.355 39.6382 203.619 41.5192C215.65 43.1056 221.134 50.9099 225.741 59.9963C229.697 62.5116 232.849 60.9939 234.582 60.1594C235.363 59.7832 235.856 59.5459 236.004 59.8794C237.533 63.054 233.532 68.1802 227.6 64.5596C228.405 67.2029 228.709 69.8179 228.355 72.247C227.07 81.0523 223.345 84.9749 220.786 87.6697C219.787 88.7209 218.966 89.5852 218.537 90.4797C218.144 91.2993 217.771 92.3128 217.384 93.3663C216.266 96.4099 215.025 99.7873 212.799 99.7873H200.814C200.814 92.6346 205.031 94.2164 207.388 95.1008C208.099 95.3672 208.64 95.5703 208.847 95.4523C209.222 95.2378 207.229 93.1286 204.737 90.491C201.304 86.8573 196.922 82.2206 196.479 80.1521C193.292 85.1247 180.287 88.1847 177.354 85.8897C176.436 89.5617 171.999 99.7873 168.811 99.7873H158.484C153.894 96.4723 157.974 90.4797 164.604 94.5598C168.556 87.2922 145.224 65.5504 136.426 63.7044L135.789 38.2041Z" fill="url(#paint23_radial_10833_34548)"/>
<path fill-rule="evenodd" clip-rule="evenodd" d="M135.789 38.2041C142.886 35.1866 152.364 30.6816 162.444 31.0238C181.593 31.6737 189.355 39.6382 203.619 41.5192C215.65 43.1056 221.134 50.9099 225.741 59.9963C229.697 62.5116 232.849 60.9939 234.582 60.1594C235.363 59.7832 235.856 59.5459 236.004 59.8794C237.533 63.054 233.532 68.1802 227.6 64.5596C228.405 67.2029 228.709 69.8179 228.355 72.247C227.07 81.0523 223.345 84.9749 220.786 87.6697C219.787 88.7209 218.966 89.5852 218.537 90.4797C218.144 91.2993 217.771 92.3128 217.384 93.3663C216.266 96.4099 215.025 99.7873 212.799 99.7873H200.814C200.814 92.6346 205.031 94.2164 207.388 95.1008C208.099 95.3672 208.64 95.5703 208.847 95.4523C209.222 95.2378 207.229 93.1286 204.737 90.491C201.304 86.8573 196.922 82.2206 196.479 80.1521C193.292 85.1247 180.287 88.1847 177.354 85.8897C176.436 89.5617 171.999 99.7873 168.811 99.7873H158.484C153.894 96.4723 157.974 90.4797 164.604 94.5598C168.556 87.2922 145.224 65.5504 136.426 63.7044L135.789 38.2041Z" fill="url(#paint24_radial_10833_34548)"/>
<path fill-rule="evenodd" clip-rule="evenodd" d="M135.789 38.2041C142.886 35.1866 152.364 30.6816 162.444 31.0238C181.593 31.6737 189.355 39.6382 203.619 41.5192C215.65 43.1056 221.134 50.9099 225.741 59.9963C229.697 62.5116 232.849 60.9939 234.582 60.1594C235.363 59.7832 235.856 59.5459 236.004 59.8794C237.533 63.054 233.532 68.1802 227.6 64.5596C228.405 67.2029 228.709 69.8179 228.355 72.247C227.07 81.0523 223.345 84.9749 220.786 87.6697C219.787 88.7209 218.966 89.5852 218.537 90.4797C218.144 91.2993 217.771 92.3128 217.384 93.3663C216.266 96.4099 215.025 99.7873 212.799 99.7873H200.814C200.814 92.6346 205.031 94.2164 207.388 95.1008C208.099 95.3672 208.64 95.5703 208.847 95.4523C209.222 95.2378 207.229 93.1286 204.737 90.491C201.304 86.8573 196.922 82.2206 196.479 80.1521C193.292 85.1247 180.287 88.1847 177.354 85.8897C176.436 89.5617 171.999 99.7873 168.811 99.7873H158.484C153.894 96.4723 157.974 90.4797 164.604 94.5598C168.556 87.2922 145.224 65.5504 136.426 63.7044L135.789 38.2041Z" fill="url(#paint25_radial_10833_34548)"/>
<path fill-rule="evenodd" clip-rule="evenodd" d="M135.789 38.2041C142.886 35.1866 152.364 30.6816 162.444 31.0238C181.593 31.6737 189.355 39.6382 203.619 41.5192C215.65 43.1056 221.134 50.9099 225.741 59.9963C229.697 62.5116 232.849 60.9939 234.582 60.1594C235.363 59.7832 235.856 59.5459 236.004 59.8794C237.533 63.054 233.532 68.1802 227.6 64.5596C228.405 67.2029 228.709 69.8179 228.355 72.247C227.07 81.0523 223.345 84.9749 220.786 87.6697C219.787 88.7209 218.966 89.5852 218.537 90.4797C218.144 91.2993 217.771 92.3128 217.384 93.3663C216.266 96.4099 215.025 99.7873 212.799 99.7873H200.814C200.814 92.6346 205.031 94.2164 207.388 95.1008C208.099 95.3672 208.64 95.5703 208.847 95.4523C209.222 95.2378 207.229 93.1286 204.737 90.491C201.304 86.8573 196.922 82.2206 196.479 80.1521C193.292 85.1247 180.287 88.1847 177.354 85.8897C176.436 89.5617 171.999 99.7873 168.811 99.7873H158.484C153.894 96.4723 157.974 90.4797 164.604 94.5598C168.556 87.2922 145.224 65.5504 136.426 63.7044L135.789 38.2041Z" fill="url(#paint26_radial_10833_34548)"/>
<path d="M123.418 38.2546C120.249 39.4247 113.046 43.1355 113.829 51.0561C115.177 64.7066 122.768 69.1681 139.308 67.5341C143.419 67.1278 151.789 60.8738 147.067 47.7723C141.188 31.4598 126.587 37.0846 123.418 38.2546Z" fill="url(#paint27_linear_10833_34548)"/>
<path d="M123.418 38.2546C120.249 39.4247 113.046 43.1355 113.829 51.0561C115.177 64.7066 122.768 69.1681 139.308 67.5341C143.419 67.1278 151.789 60.8738 147.067 47.7723C141.188 31.4598 126.587 37.0846 123.418 38.2546Z" fill="url(#paint28_radial_10833_34548)"/>
<path d="M123.418 38.2546C120.249 39.4247 113.046 43.1355 113.829 51.0561C115.177 64.7066 122.768 69.1681 139.308 67.5341C143.419 67.1278 151.789 60.8738 147.067 47.7723C141.188 31.4598 126.587 37.0846 123.418 38.2546Z" fill="url(#paint29_radial_10833_34548)"/>
<path d="M123.418 38.2546C120.249 39.4247 113.046 43.1355 113.829 51.0561C115.177 64.7066 122.768 69.1681 139.308 67.5341C143.419 67.1278 151.789 60.8738 147.067 47.7723C141.188 31.4598 126.587 37.0846 123.418 38.2546Z" fill="url(#paint30_radial_10833_34548)"/>
<path d="M198.901 53.186C195.076 46.8109 170.086 29.9805 177.354 49.9982C183.209 66.1248 180.541 77.411 177.354 85.8581C177.636 86.0309 177.969 86.2074 178.351 86.3746C182.503 87.6305 193.291 84.4876 196.479 80.1525C199.666 75.8174 206.673 66.1383 198.901 53.186Z" fill="url(#paint31_radial_10833_34548)"/>
<path d="M198.901 53.186C195.076 46.8109 170.086 29.9805 177.354 49.9982C183.209 66.1248 180.541 77.411 177.354 85.8581C177.636 86.0309 177.969 86.2074 178.351 86.3746C182.503 87.6305 193.291 84.4876 196.479 80.1525C199.666 75.8174 206.673 66.1383 198.901 53.186Z" fill="url(#paint32_radial_10833_34548)"/>
<path d="M136.428 27.5437C132.286 26.0962 126.071 31.8517 129.345 37.5268C131.361 39.1367 136.075 41.4607 138.806 37.8774C142.22 33.3983 140.57 28.9911 136.428 27.5437Z" fill="url(#paint33_linear_10833_34548)"/>
<path d="M136.428 27.5437C132.286 26.0962 126.071 31.8517 129.345 37.5268C131.361 39.1367 136.075 41.4607 138.806 37.8774C142.22 33.3983 140.57 28.9911 136.428 27.5437Z" fill="url(#paint34_radial_10833_34548)"/>
<path d="M136.428 27.5437C132.286 26.0962 126.071 31.8517 129.345 37.5268C131.361 39.1367 136.075 41.4607 138.806 37.8774C142.22 33.3983 140.57 28.9911 136.428 27.5437Z" fill="url(#paint35_radial_10833_34548)"/>
<path d="M136.016 29.155C132.391 28.8548 128.518 33.8491 131.232 38.5539C132.903 39.8886 136.713 40.4024 138.977 37.4317C141.807 33.7184 139.543 29.4469 136.016 29.155Z" fill="url(#paint36_radial_10833_34548)"/>
<path d="M106.632 60.544C106.09 58.6293 110.399 54.2776 115.455 51.7387C116.821 51.935 119.75 52.8488 121.786 55.4799C124.646 59.1756 123.691 64.608 121.186 66.092C119.858 66.8792 116.101 67.4612 113.454 66.8762C110.807 66.2912 106.934 61.6078 106.632 60.544Z" fill="url(#paint37_linear_10833_34548)"/>
<path d="M106.632 60.544C106.09 58.6293 110.399 54.2776 115.455 51.7387C116.821 51.935 119.75 52.8488 121.786 55.4799C124.646 59.1756 123.691 64.608 121.186 66.092C119.858 66.8792 116.101 67.4612 113.454 66.8762C110.807 66.2912 106.934 61.6078 106.632 60.544Z" fill="url(#paint38_radial_10833_34548)"/>
<path d="M111.218 57.8049C110.498 56.5647 106.399 57.805 105.347 59.3857C104.389 61.0777 108.07 64.2516 109.628 63.8322C111.186 63.4128 111.937 59.0452 111.218 57.8049Z" fill="url(#paint39_linear_10833_34548)"/>
<path d="M111.218 57.8049C110.498 56.5647 106.399 57.805 105.347 59.3857C104.389 61.0777 108.07 64.2516 109.628 63.8322C111.186 63.4128 111.937 59.0452 111.218 57.8049Z" fill="url(#paint40_radial_10833_34548)"/>
<path d="M125.212 48.0066C125.722 51.4006 121.506 54.3445 119.689 51.1272C117.466 47.1928 122.529 44.8999 125.212 48.0066Z" fill="url(#paint41_radial_10833_34548)"/>
<path d="M125.212 48.0066C125.722 51.4006 121.506 54.3445 119.689 51.1272C117.466 47.1928 122.529 44.8999 125.212 48.0066Z" fill="url(#paint42_radial_10833_34548)"/>
<path d="M125.212 48.0066C125.722 51.4006 121.506 54.3445 119.689 51.1272C117.466 47.1928 122.529 44.8999 125.212 48.0066Z" fill="url(#paint43_radial_10833_34548)"/>
<path fill-rule="evenodd" clip-rule="evenodd" d="M206.205 92.5729C216.07 91.873 223.892 81.9842 223.892 69.888C223.892 57.3377 215.472 47.1636 205.085 47.1636C201.597 47.1636 198.33 48.3113 195.53 50.3113C202.371 55.9509 206.339 67.1214 196.415 80.2155C196.398 80.2526 196.38 80.2894 196.363 80.3261C196.403 80.2683 196.442 80.2102 196.479 80.1518C196.917 82.1983 201.043 86.8005 204.316 90.452C204.996 91.2105 205.639 91.9279 206.205 92.5729Z" fill="url(#paint44_radial_10833_34548)"/>
<path d="M169.706 99.788C173.977 97.3656 186.472 72.184 177.738 54.0149C162.744 53.3009 157.721 69.5702 157.848 80.0253C160.951 83.3404 166.646 90.8885 164.606 94.5605C156.573 90.0342 154.533 97.5568 158.709 99.788H169.706Z" fill="url(#paint45_radial_10833_34548)"/>
<path d="M17.2977 65.2526C15.7141 69.3925 17.7376 71.4129 29.174 73.1381C40.6104 74.8633 95.0963 74.8594 92.5223 67.5384C89.6632 59.4065 78.4388 69.9346 77.559 50.2208C76.6793 30.5069 67.6602 29.4164 64.1192 29.7115C50.273 30.8653 49.5622 28.6366 44.5037 21.4903C41.0993 16.6807 33.3986 19.9036 30.2255 18.7497C27.0524 17.5959 22.3579 19.1536 20.1286 21.4903C13.3106 28.6366 19.277 60.0777 17.2977 65.2526Z" fill="url(#paint46_linear_10833_34548)"/>
<path d="M17.2977 65.2526C15.7141 69.3925 17.7376 71.4129 29.174 73.1381C40.6104 74.8633 95.0963 74.8594 92.5223 67.5384C89.6632 59.4065 78.4388 69.9346 77.559 50.2208C76.6793 30.5069 67.6602 29.4164 64.1192 29.7115C50.273 30.8653 49.5622 28.6366 44.5037 21.4903C41.0993 16.6807 33.3986 19.9036 30.2255 18.7497C27.0524 17.5959 22.3579 19.1536 20.1286 21.4903C13.3106 28.6366 19.277 60.0777 17.2977 65.2526Z" fill="url(#paint47_radial_10833_34548)"/>
<path d="M67.6454 71.6846C67.5354 61.5537 68.9651 28.9815 62.8285 28.9815L52.4311 28.9814C55.5984 28.9814 54.4766 59.1698 54.4766 71.6845L67.6454 71.6846Z" fill="url(#paint48_linear_10833_34548)"/>
<path d="M67.6454 71.6846C67.5354 61.5537 68.9651 28.9815 62.8285 28.9815L52.4311 28.9814C55.5984 28.9814 54.4766 59.1698 54.4766 71.6845L67.6454 71.6846Z" fill="url(#paint49_radial_10833_34548)"/>
<path d="M67.6454 71.6846C67.5354 61.5537 68.9651 28.9815 62.8285 28.9815L52.4311 28.9814C55.5984 28.9814 54.4766 59.1698 54.4766 71.6845L67.6454 71.6846Z" fill="url(#paint50_radial_10833_34548)"/>
<path d="M67.6454 71.6846C67.5354 61.5537 68.9651 28.9815 62.8285 28.9815L52.4311 28.9814C55.5984 28.9814 54.4766 59.1698 54.4766 71.6845L67.6454 71.6846Z" fill="url(#paint51_radial_10833_34548)"/>
<path d="M44.1774 70.6147C43.996 61.3473 46.3553 18.4932 36.2281 18.4932H29.5856C34.8125 18.4932 32.9613 59.1667 32.9613 70.6147H44.1774Z" fill="url(#paint52_linear_10833_34548)"/>
<path d="M44.1774 70.6147C43.996 61.3473 46.3553 18.4932 36.2281 18.4932H29.5856C34.8125 18.4932 32.9613 59.1667 32.9613 70.6147H44.1774Z" fill="url(#paint53_radial_10833_34548)"/>
<path d="M44.1774 70.6147C43.996 61.3473 46.3553 18.4932 36.2281 18.4932H29.5856C34.8125 18.4932 32.9613 59.1667 32.9613 70.6147H44.1774Z" fill="url(#paint54_radial_10833_34548)"/>
<path d="M44.1774 70.6147C43.996 61.3473 46.3553 18.4932 36.2281 18.4932H29.5856C34.8125 18.4932 32.9613 59.1667 32.9613 70.6147H44.1774Z" fill="url(#paint55_radial_10833_34548)"/>
<path d="M55.189 63.9409C50.798 60.4168 43.3203 63.9409 43.5783 73.971H87.1823C87.1823 70.989 82.1768 67.4107 78.6678 69.3625C78.4097 65.0252 72.7334 61.5011 67.057 63.9409C66.283 57.1639 55.189 56.3506 55.189 63.9409Z" fill="url(#paint56_radial_10833_34548)"/>
<path d="M61.9282 65.5693C58.2498 62.617 51.9856 65.5693 52.2017 73.9716H88.7293C88.7293 71.4735 84.5362 68.4759 81.5966 70.111C81.3805 66.4776 76.6253 63.5254 71.8702 65.5693C71.2217 59.8921 61.9282 59.2107 61.9282 65.5693Z" fill="url(#paint57_radial_10833_34548)"/>
<path d="M43.8073 65.837C46.9788 63.2916 52.3799 65.837 52.1935 73.0816H20.6989C20.6989 70.9278 24.3143 68.3432 26.8488 69.753C27.0352 66.6202 31.1352 64.0748 35.2351 65.837C35.7942 60.942 43.8073 60.3546 43.8073 65.837Z" fill="url(#paint58_radial_10833_34548)"/>
<path d="M57.6153 66.7398C57.8198 64.4361 64.5694 64.4358 66.6147 68.6245H33.2758C29.1851 56.4775 44.9342 54.3835 46.1614 59.4095C52.0929 57.9434 58.1165 61.0937 57.6153 66.7398Z" fill="url(#paint59_radial_10833_34548)"/>
<path d="M64.547 71.975C64.7697 69.4015 72.118 69.4013 74.3447 74.0803H38.0486C33.5951 60.5112 50.7411 58.172 52.0772 63.7864C58.5348 62.1488 65.0927 65.6679 64.547 71.975Z" fill="url(#paint60_radial_10833_34548)"/>
<path d="M64.547 71.975C64.7697 69.4015 72.118 69.4013 74.3447 74.0803H38.0486C33.5951 60.5112 50.7411 58.172 52.0772 63.7864C58.5348 62.1488 65.0927 65.6679 64.547 71.975Z" fill="url(#paint61_radial_10833_34548)"/>
<path d="M35.3145 67.7854C32.5588 65.5737 27.8661 67.7854 28.028 74.0801H55.3923C55.3923 72.2087 52.251 69.963 50.0489 71.1879C49.8869 68.4658 46.3247 66.2542 42.7624 67.7854C42.2766 63.5322 35.3145 63.0218 35.3145 67.7854Z" fill="url(#paint62_radial_10833_34548)"/>
<path d="M35.3145 67.7854C32.5588 65.5737 27.8661 67.7854 28.028 74.0801H55.3923C55.3923 72.2087 52.251 69.963 50.0489 71.1879C49.8869 68.4658 46.3247 66.2542 42.7624 67.7854C42.2766 63.5322 35.3145 63.0218 35.3145 67.7854Z" fill="url(#paint63_radial_10833_34548)"/>
<path d="M59.7625 72.5488C59.6006 70.6774 54.257 70.6772 52.6377 74.0797H79.0319C82.2705 64.2124 69.802 62.5113 68.8305 66.5941C64.1346 65.4032 59.3657 67.9623 59.7625 72.5488Z" fill="url(#paint64_radial_10833_34548)"/>
<path d="M59.7625 72.5488C59.6006 70.6774 54.257 70.6772 52.6377 74.0797H79.0319C82.2705 64.2124 69.802 62.5113 68.8305 66.5941C64.1346 65.4032 59.3657 67.9623 59.7625 72.5488Z" fill="url(#paint65_radial_10833_34548)"/>
<path d="M71.4654 76.2575C75.5261 75.1198 78.8256 79.2083 82.2426 80.9235L73.5701 85.2116C73.9889 79.2699 68.5531 77.0735 71.4654 76.2575Z" fill="url(#paint66_linear_10833_34548)"/>
<path d="M71.4654 76.2575C75.5261 75.1198 78.8256 79.2083 82.2426 80.9235L73.5701 85.2116C73.9889 79.2699 68.5531 77.0735 71.4654 76.2575Z" fill="url(#paint67_radial_10833_34548)"/>
<path d="M68.9449 105.435C71.458 104.14 71.2115 100.627 72.1061 98.2246L65.8906 100.078C68.8087 102.804 67.1425 106.364 68.9449 105.435Z" fill="url(#paint68_linear_10833_34548)"/>
<path d="M68.9449 105.435C71.458 104.14 71.2115 100.627 72.1061 98.2246L65.8906 100.078C68.8087 102.804 67.1425 106.364 68.9449 105.435Z" fill="url(#paint69_radial_10833_34548)"/>
<path d="M89.3809 77.413C95.909 76.025 108.228 76.3411 115.857 80.9689C117.777 82.1342 114.963 84.3367 114.963 84.3367C115.835 86.3387 110.411 90.4285 99.8267 93.1615C87.1879 96.425 76.868 95.7712 61.7773 102.156C59.235 103.231 59.7993 107.253 55.4265 107.429C54.5841 107.151 58.0085 104.626 56.4809 102.566C54.3196 99.6508 47.6975 100.301 47.6975 100.301C47.6975 100.301 49.1407 96.6084 53.7643 96.877C58.3879 97.1457 60.064 99.9154 60.7045 98.714C66.7887 87.3021 82.8528 78.801 89.3809 77.413Z" fill="url(#paint70_linear_10833_34548)"/>
<path d="M89.3809 77.413C95.909 76.025 108.228 76.3411 115.857 80.9689C117.777 82.1342 114.963 84.3367 114.963 84.3367C115.835 86.3387 110.411 90.4285 99.8267 93.1615C87.1879 96.425 76.868 95.7712 61.7773 102.156C59.235 103.231 59.7993 107.253 55.4265 107.429C54.5841 107.151 58.0085 104.626 56.4809 102.566C54.3196 99.6508 47.6975 100.301 47.6975 100.301C47.6975 100.301 49.1407 96.6084 53.7643 96.877C58.3879 97.1457 60.064 99.9154 60.7045 98.714C66.7887 87.3021 82.8528 78.801 89.3809 77.413Z" fill="url(#paint71_radial_10833_34548)"/>
<path d="M89.3809 77.413C95.909 76.025 108.228 76.3411 115.857 80.9689C117.777 82.1342 114.963 84.3367 114.963 84.3367C115.835 86.3387 110.411 90.4285 99.8267 93.1615C87.1879 96.425 76.868 95.7712 61.7773 102.156C59.235 103.231 59.7993 107.253 55.4265 107.429C54.5841 107.151 58.0085 104.626 56.4809 102.566C54.3196 99.6508 47.6975 100.301 47.6975 100.301C47.6975 100.301 49.1407 96.6084 53.7643 96.877C58.3879 97.1457 60.064 99.9154 60.7045 98.714C66.7887 87.3021 82.8528 78.801 89.3809 77.413Z" fill="url(#paint72_radial_10833_34548)"/>
<path d="M53.7658 96.8766C49.1422 96.608 47.6966 100.304 47.6966 100.304C47.6966 100.304 54.3218 99.6518 56.4831 102.567C58.0104 104.627 54.5859 107.154 55.4265 107.432C59.6124 107.264 59.2792 103.577 61.4727 102.318C61.1699 100.958 60.7015 99.8907 59.9371 98.9416C58.9622 98.6053 57.1535 97.0735 53.7658 96.8766Z" fill="url(#paint73_radial_10833_34548)"/>
<path d="M104.166 77.1735C98.0736 81.3408 98.0413 87.1105 104.014 91.9163C111.819 89.3008 115.709 86.0566 114.963 84.3383C114.963 84.3383 117.777 82.1339 115.857 80.9687C112.555 78.966 108.375 77.7725 104.166 77.1735Z" fill="url(#paint74_radial_10833_34548)"/>
<path d="M107.565 85.0484C106.4 86.1827 104.536 86.1576 103.402 84.9924C102.267 83.8272 102.292 81.9631 103.458 80.8287C104.623 79.6944 106.487 79.7195 107.621 80.8847C108.756 82.0499 108.73 83.9141 107.565 85.0484Z" fill="url(#paint75_linear_10833_34548)"/>
<path d="M106.562 84.0184C105.966 84.5981 105.013 84.5853 104.434 83.9898C103.854 83.3942 103.867 82.4415 104.462 81.8617C105.058 81.282 106.011 81.2948 106.59 81.8903C107.17 82.4859 107.157 83.4386 106.562 84.0184Z" fill="#20094E"/>
<path d="M105.996 82.2473C105.378 82.0261 104.989 81.5323 105.128 81.1443C105.266 80.7562 105.88 80.621 106.498 80.8422C107.117 81.0634 107.506 81.5572 107.367 81.9452C107.228 82.3333 106.614 82.4685 105.996 82.2473Z" fill="url(#paint76_radial_10833_34548)"/>
<path d="M82.6865 89.7864C75.9189 93.5586 75.1996 98.0856 75.1808 99.037C75.162 99.9884 81.7128 98.6653 86.4216 95.5332C90.1054 93.0829 92.5843 89.3384 95.3936 87.7232L95.4968 87.5145L82.6865 89.7864Z" fill="url(#paint77_linear_10833_34548)"/>
<path d="M82.6865 89.7864C75.9189 93.5586 75.1996 98.0856 75.1808 99.037C75.162 99.9884 81.7128 98.6653 86.4216 95.5332C90.1054 93.0829 92.5843 89.3384 95.3936 87.7232L95.4968 87.5145L82.6865 89.7864Z" fill="url(#paint78_radial_10833_34548)"/>
<defs>
<linearGradient id="paint0_linear_10833_34548" x1="120.738" y1="-8.84759" x2="108.834" y2="48.5043" gradientUnits="userSpaceOnUse">
<stop stop-color="#C7CFFF"/>
<stop offset="1" stop-color="#FFD6C6"/>
</linearGradient>
<linearGradient id="paint1_linear_10833_34548" x1="117.354" y1="5.80095" x2="117.354" y2="61.8632" gradientUnits="userSpaceOnUse">
<stop stop-color="#ABD9D6"/>
<stop offset="0.427885" stop-color="#ECE1B9"/>
<stop offset="0.75" stop-color="#FFDDC3"/>
<stop offset="1" stop-color="#FFE6D7"/>
</linearGradient>
<radialGradient id="paint2_radial_10833_34548" cx="0" cy="0" r="1" gradientUnits="userSpaceOnUse" gradientTransform="translate(184.409 -11.5401) rotate(-21.8144) scale(140.492 47.5494)">
<stop stop-color="#8AE1F8"/>
<stop offset="1" stop-color="#E9B9FF" stop-opacity="0"/>
</radialGradient>
<radialGradient id="paint3_radial_10833_34548" cx="0" cy="0" r="1" gradientUnits="userSpaceOnUse" gradientTransform="translate(109.92 69.4112) scale(127.389 50.1325)">
<stop stop-color="#9DEAFF"/>
<stop offset="0.57691" stop-color="#2BD9BE"/>
<stop offset="0.955507" stop-color="#20AC9D"/>
</radialGradient>
<radialGradient id="paint4_radial_10833_34548" cx="0" cy="0" r="1" gradientTransform="matrix(154.014 27.3002 -2.70824 54.2527 101.483 65.2723)" gradientUnits="userSpaceOnUse">
<stop stop-color="#D1FDFF"/>
<stop offset="0.475962" stop-color="#87D9EF"/>
<stop offset="0.897918" stop-color="#66A4C8"/>
</radialGradient>
<linearGradient id="paint5_linear_10833_34548" x1="143.894" y1="68.1962" x2="162.575" y2="144.272" gradientUnits="userSpaceOnUse">
<stop stop-color="#52D17C"/>
<stop offset="1" stop-color="#052D31"/>
</linearGradient>
<radialGradient id="paint6_radial_10833_34548" cx="0" cy="0" r="1" gradientTransform="matrix(-54.2794 13.4022 -11.604 -9.83214 158.785 88.4093)" gradientUnits="userSpaceOnUse">
<stop offset="0.239782" stop-color="#62BE55"/>
<stop offset="1" stop-color="#62BE55" stop-opacity="0"/>
</radialGradient>
<radialGradient id="paint7_radial_10833_34548" cx="0" cy="0" r="1" gradientTransform="matrix(-83.5806 19.8373 -15.0658 -13.2799 141.973 86.8714)" gradientUnits="userSpaceOnUse">
<stop stop-color="#FFE06B"/>
<stop offset="1" stop-color="#FFD394" stop-opacity="0"/>
</radialGradient>
<radialGradient id="paint8_radial_10833_34548" cx="0" cy="0" r="1" gradientTransform="matrix(68.6898 3.73504 -6.5742 25.2942 152.54 86.432)" gradientUnits="userSpaceOnUse">
<stop offset="0.613912" stop-color="#052D31" stop-opacity="0"/>
<stop offset="1" stop-color="#052D31"/>
</radialGradient>
<linearGradient id="paint9_linear_10833_34548" x1="201.578" y1="109.604" x2="171.871" y2="66.509" gradientUnits="userSpaceOnUse">
<stop stop-color="#362302"/>
<stop offset="1" stop-color="#FF834C"/>
</linearGradient>
<radialGradient id="paint10_radial_10833_34548" cx="0" cy="0" r="1" gradientTransform="matrix(14.7902 0.999255 -0.510005 7.24459 178.501 90.6935)" gradientUnits="userSpaceOnUse">
<stop stop-color="#FFB17F"/>
<stop offset="1" stop-color="#FFB17F" stop-opacity="0"/>
</radialGradient>
<radialGradient id="paint11_radial_10833_34548" cx="0" cy="0" r="1" gradientTransform="matrix(-17.2127 7.68196 -3.54861 -7.54236 195.841 79.5141)" gradientUnits="userSpaceOnUse">
<stop offset="0.234591" stop-color="#180B00"/>
<stop offset="1" stop-color="#351900" stop-opacity="0"/>
</radialGradient>
<radialGradient id="paint12_radial_10833_34548" cx="0" cy="0" r="1" gradientTransform="matrix(9.8176 8.61857 -3.91216 4.27634 194.566 78.5775)" gradientUnits="userSpaceOnUse">
<stop offset="0.234591" stop-color="#180B00"/>
<stop offset="1" stop-color="#351900" stop-opacity="0"/>
</radialGradient>
<radialGradient id="paint13_radial_10833_34548" cx="0" cy="0" r="1" gradientTransform="matrix(-5.10005 20.2727 -18.9254 -1.00679 186.151 82.7017)" gradientUnits="userSpaceOnUse">
<stop offset="0.689271" stop-color="#66401D" stop-opacity="0"/>
<stop offset="0.861526" stop-color="#FFB180"/>
<stop offset="1" stop-color="#FFE270"/>
</radialGradient>
<linearGradient id="paint14_linear_10833_34548" x1="169.704" y1="116.744" x2="119.469" y2="43.6859" gradientUnits="userSpaceOnUse">
<stop stop-color="#362302"/>
<stop offset="1" stop-color="#FF834C"/>
</linearGradient>
<radialGradient id="paint15_radial_10833_34548" cx="0" cy="0" r="1" gradientUnits="userSpaceOnUse" gradientTransform="translate(141.527 92.0089) rotate(69.1254) scale(32.2041 20.1206)">
<stop offset="0.720954" stop-color="#583514" stop-opacity="0"/>
<stop offset="1" stop-color="#180B00"/>
</radialGradient>
<radialGradient id="paint16_radial_10833_34548" cx="0" cy="0" r="1" gradientUnits="userSpaceOnUse" gradientTransform="translate(140.124 84.8688) rotate(-109.898) scale(22.1023 10.0641)">
<stop offset="0.195999" stop-color="#FFB180"/>
<stop offset="1" stop-color="#8C6037" stop-opacity="0"/>
</radialGradient>
<radialGradient id="paint17_radial_10833_34548" cx="0" cy="0" r="1" gradientUnits="userSpaceOnUse" gradientTransform="translate(146.117 78.4938) rotate(100.081) scale(29.1376 15.9921)">
<stop offset="0.689271" stop-color="#66401D" stop-opacity="0"/>
<stop offset="0.861526" stop-color="#FFB180"/>
<stop offset="1" stop-color="#FFE270"/>
</radialGradient>
<linearGradient id="paint18_linear_10833_34548" x1="136.964" y1="48.111" x2="118.341" y2="19.8066" gradientUnits="userSpaceOnUse">
<stop stop-color="#362302"/>
<stop offset="1" stop-color="#FF834C"/>
</linearGradient>
<radialGradient id="paint19_radial_10833_34548" cx="0" cy="0" r="1" gradientTransform="matrix(10.3713 1.12118 -1.39417 6.78581 117.465 31.848)" gradientUnits="userSpaceOnUse">
<stop stop-color="#FFB17F"/>
<stop offset="1" stop-color="#FFB17F" stop-opacity="0"/>
</radialGradient>
<radialGradient id="paint20_radial_10833_34548" cx="0" cy="0" r="1" gradientTransform="matrix(6.05713 -5.05819 7.34936 5.96995 119.059 34.6162)" gradientUnits="userSpaceOnUse">
<stop offset="0.631949" stop-color="#351900" stop-opacity="0"/>
<stop offset="1" stop-color="#351900"/>
</radialGradient>
<linearGradient id="paint21_linear_10833_34548" x1="214.329" y1="143.265" x2="90.9892" y2="-14.1261" gradientUnits="userSpaceOnUse">
<stop stop-color="#362302"/>
<stop offset="1" stop-color="#FF834C"/>
</linearGradient>
<radialGradient id="paint22_radial_10833_34548" cx="0" cy="0" r="1" gradientTransform="matrix(51.8651 26.1378 -10.058 27.6738 181.482 24.0516)" gradientUnits="userSpaceOnUse">
<stop stop-color="#FFB17F"/>
<stop offset="1" stop-color="#FFB17F" stop-opacity="0"/>
</radialGradient>
<radialGradient id="paint23_radial_10833_34548" cx="0" cy="0" r="1" gradientTransform="matrix(22.4402 52.7855 -19.0186 11.0762 148.284 18.824)" gradientUnits="userSpaceOnUse">
<stop stop-color="#FFB17F"/>
<stop offset="1" stop-color="#FFB17F" stop-opacity="0"/>
</radialGradient>
<radialGradient id="paint24_radial_10833_34548" cx="0" cy="0" r="1" gradientTransform="matrix(40.1711 -8.67009 4.31788 27.7403 196.424 95.3248)" gradientUnits="userSpaceOnUse">
<stop stop-color="#351900"/>
<stop offset="1" stop-color="#351900" stop-opacity="0"/>
</radialGradient>
<radialGradient id="paint25_radial_10833_34548" cx="0" cy="0" r="1" gradientUnits="userSpaceOnUse" gradientTransform="translate(134.386 54.5244) rotate(79.9275) scale(19.6836 19.6836)">
<stop offset="0.234255" stop-color="#351900"/>
<stop offset="1" stop-color="#351900" stop-opacity="0"/>
</radialGradient>
<radialGradient id="paint26_radial_10833_34548" cx="0" cy="0" r="1" gradientUnits="userSpaceOnUse" gradientTransform="translate(231.67 87.6747) rotate(127.602) scale(39.9112 13.6999)">
<stop offset="0.385845" stop-color="#FFE270"/>
<stop offset="0.611816" stop-color="#FFB180"/>
<stop offset="1" stop-color="#66401D" stop-opacity="0"/>
</radialGradient>
<linearGradient id="paint27_linear_10833_34548" x1="192.904" y1="117.082" x2="75.1977" y2="-13.2526" gradientUnits="userSpaceOnUse">
<stop stop-color="#362302"/>
<stop offset="1" stop-color="#FF834C"/>
</linearGradient>
<radialGradient id="paint28_radial_10833_34548" cx="0" cy="0" r="1" gradientUnits="userSpaceOnUse" gradientTransform="translate(112.445 37.0535) rotate(-41.0493) scale(28.9468)">
<stop stop-color="#FFB17F"/>
<stop offset="1" stop-color="#FFB17F" stop-opacity="0"/>
</radialGradient>
<radialGradient id="paint29_radial_10833_34548" cx="0" cy="0" r="1" gradientUnits="userSpaceOnUse" gradientTransform="translate(123.969 74.1908) rotate(17.3831) scale(24.7091 15.2821)">
<stop stop-color="#351900"/>
<stop offset="1" stop-color="#351900" stop-opacity="0"/>
</radialGradient>
<radialGradient id="paint30_radial_10833_34548" cx="0" cy="0" r="1" gradientUnits="userSpaceOnUse" gradientTransform="translate(125.198 51.9323) rotate(174.896) scale(30.2747 26.5368)">
<stop offset="0.623329" stop-color="#A96E42" stop-opacity="0"/>
<stop offset="0.85" stop-color="#FFB180"/>
<stop offset="1" stop-color="#FFE270"/>
</radialGradient>
<radialGradient id="paint31_radial_10833_34548" cx="0" cy="0" r="1" gradientTransform="matrix(-4.39928 -29.618 19.6564 -3.31514 176.143 74.9704)" gradientUnits="userSpaceOnUse">
<stop offset="0.07" stop-color="#180B00"/>
<stop offset="1" stop-color="#351900" stop-opacity="0"/>
</radialGradient>
<radialGradient id="paint32_radial_10833_34548" cx="0" cy="0" r="1" gradientUnits="userSpaceOnUse" gradientTransform="translate(185.777 57.2895) rotate(111.871) scale(39.0187 29.4177)">
<stop offset="0.623329" stop-color="#66401D" stop-opacity="0"/>
<stop offset="0.85" stop-color="#FFB180"/>
<stop offset="1" stop-color="#FFE270"/>
</radialGradient>
<linearGradient id="paint33_linear_10833_34548" x1="150.19" y1="50.4638" x2="124.177" y2="17.4703" gradientUnits="userSpaceOnUse">
<stop stop-color="#362302"/>
<stop offset="1" stop-color="#FF834C"/>
</linearGradient>
<radialGradient id="paint34_radial_10833_34548" cx="0" cy="0" r="1" gradientUnits="userSpaceOnUse" gradientTransform="translate(128.917 28.8573) rotate(8.65504) scale(11.2706 8.89873)">
<stop stop-color="#FFB17F"/>
<stop offset="1" stop-color="#FFB17F" stop-opacity="0"/>
</radialGradient>
<radialGradient id="paint35_radial_10833_34548" cx="0" cy="0" r="1" gradientUnits="userSpaceOnUse" gradientTransform="translate(131.839 33.8596) rotate(-56.1955) scale(9.39525 10.8569)">
<stop offset="0.631949" stop-color="#351900" stop-opacity="0"/>
<stop offset="1" stop-color="#351900"/>
</radialGradient>
<radialGradient id="paint36_radial_10833_34548" cx="0" cy="0" r="1" gradientUnits="userSpaceOnUse" gradientTransform="translate(136.595 36.4532) rotate(-89.7573) scale(9.11173 9.49045)">
<stop offset="0.476204" stop-color="#351900" stop-opacity="0"/>
<stop offset="1" stop-color="#351900"/>
</radialGradient>
<linearGradient id="paint37_linear_10833_34548" x1="160.763" y1="61.35" x2="99.0013" y2="37.3905" gradientUnits="userSpaceOnUse">
<stop stop-color="#3A31DD"/>
<stop offset="1" stop-color="#FFE270"/>
</linearGradient>
<radialGradient id="paint38_radial_10833_34548" cx="0" cy="0" r="1" gradientTransform="matrix(14.3056 -13.1249 11.2347 13.5237 111.37 57.1071)" gradientUnits="userSpaceOnUse">
<stop stop-color="#FFEB9A" stop-opacity="0.9"/>
<stop offset="0.487918" stop-color="#FFD59A" stop-opacity="0.5"/>
<stop offset="1" stop-color="#8FD1FF" stop-opacity="0"/>
</radialGradient>
<linearGradient id="paint39_linear_10833_34548" x1="102.367" y1="48.4305" x2="117.107" y2="63.0295" gradientUnits="userSpaceOnUse">
<stop stop-color="#8F6104"/>
<stop offset="1" stop-color="#170835"/>
</linearGradient>
<radialGradient id="paint40_radial_10833_34548" cx="0" cy="0" r="1" gradientTransform="matrix(4.07092 -1.63557 1.11639 2.89123 107.539 58.7761)" gradientUnits="userSpaceOnUse">
<stop stop-color="#FF9B5C" stop-opacity="0.7"/>
<stop offset="1" stop-color="#FF9B5C" stop-opacity="0"/>
</radialGradient>
<radialGradient id="paint41_radial_10833_34548" cx="0" cy="0" r="1" gradientTransform="matrix(3.05652 3.14434 -3.11007 3.04757 121.441 49.5448)" gradientUnits="userSpaceOnUse">
<stop offset="0.397326"/>
<stop offset="0.98" stop-color="#004586"/>
</radialGradient>
<radialGradient id="paint42_radial_10833_34548" cx="0" cy="0" r="1" gradientUnits="userSpaceOnUse" gradientTransform="translate(120.887 49.8149) rotate(60.5349) scale(2.25861 2.24037)">
<stop offset="0.261168" stop-color="#EDEDED"/>
<stop offset="0.635" stop-opacity="0"/>
</radialGradient>
<radialGradient id="paint43_radial_10833_34548" cx="0" cy="0" r="1" gradientTransform="matrix(1.96315 2.65108 -2.62645 1.95302 121.837 49.7446)" gradientUnits="userSpaceOnUse">
<stop offset="0.623373" stop-opacity="0"/>
<stop offset="1"/>
</radialGradient>
<radialGradient id="paint44_radial_10833_34548" cx="0" cy="0" r="1" gradientTransform="matrix(7.90508 -13.6426 9.8864 5.69133 193.802 75.8168)" gradientUnits="userSpaceOnUse">
<stop offset="0.28" stop-color="#180B00"/>
<stop offset="1" stop-color="#351900" stop-opacity="0"/>
</radialGradient>
<radialGradient id="paint45_radial_10833_34548" cx="0" cy="0" r="1" gradientUnits="userSpaceOnUse" gradientTransform="translate(164.095 69.8253) rotate(100.905) scale(42.4597 21.2948)">
<stop offset="0.623329" stop-color="#66401D" stop-opacity="0"/>
<stop offset="0.85" stop-color="#FFB180"/>
<stop offset="1" stop-color="#FFE270"/>
</radialGradient>
<linearGradient id="paint46_linear_10833_34548" x1="29.654" y1="54.1079" x2="56.815" y2="22.6496" gradientUnits="userSpaceOnUse">
<stop stop-color="#334B1D"/>
<stop offset="1" stop-color="#596125"/>
</linearGradient>
<radialGradient id="paint47_radial_10833_34548" cx="0" cy="0" r="1" gradientTransform="matrix(-56.6087 -28.661 17.5404 -43.4933 51.6081 31.7394)" gradientUnits="userSpaceOnUse">
<stop stop-color="#6CD491"/>
<stop offset="1" stop-color="#2E8D8D" stop-opacity="0"/>
</radialGradient>
<linearGradient id="paint48_linear_10833_34548" x1="60.0737" y1="28.9814" x2="60.0737" y2="59.3744" gradientUnits="userSpaceOnUse">
<stop stop-color="#D0F7FD"/>
<stop offset="1" stop-color="#87E1FA"/>
</linearGradient>
<radialGradient id="paint49_radial_10833_34548" cx="0" cy="0" r="1" gradientTransform="matrix(0.24044 30.0664 4.69664 -0.0554721 55.6987 34.3276)" gradientUnits="userSpaceOnUse">
<stop stop-color="#E7F8FF"/>
<stop offset="1" stop-color="#ABDEED" stop-opacity="0"/>
</radialGradient>
<radialGradient id="paint50_radial_10833_34548" cx="0" cy="0" r="1" gradientTransform="matrix(0.565807 -38.9195 -12.8884 -0.276734 56.4483 56.7614)" gradientUnits="userSpaceOnUse">
<stop offset="0.620192" stop-color="#ABDEED" stop-opacity="0"/>
<stop offset="0.947481" stop-color="#E7F8FF"/>
</radialGradient>
<radialGradient id="paint51_radial_10833_34548" cx="0" cy="0" r="1" gradientTransform="matrix(2.31981 31.0118 4.81399 -0.381585 61.2011 37.9893)" gradientUnits="userSpaceOnUse">
<stop offset="0.182692" stop-color="#E7F8FF"/>
<stop offset="1" stop-color="#ABDEED" stop-opacity="0"/>
</radialGradient>
<linearGradient id="paint52_linear_10833_34548" x1="36.94" y1="18.4932" x2="36.94" y2="46.2956" gradientUnits="userSpaceOnUse">
<stop stop-color="#D0F7FD"/>
<stop offset="1" stop-color="#87E1FA"/>
</linearGradient>
<radialGradient id="paint53_radial_10833_34548" cx="0" cy="0" r="1" gradientTransform="matrix(0.231374 27.5038 4.51954 -0.050744 32.7299 23.3836)" gradientUnits="userSpaceOnUse">
<stop stop-color="#E7F8FF"/>
<stop offset="1" stop-color="#ABDEED" stop-opacity="0"/>
</radialGradient>
<radialGradient id="paint54_radial_10833_34548" cx="0" cy="0" r="1" gradientTransform="matrix(0.544472 -35.6022 -12.4024 -0.253147 33.4513 43.9053)" gradientUnits="userSpaceOnUse">
<stop offset="0.620192" stop-color="#ABDEED" stop-opacity="0"/>
<stop offset="0.947481" stop-color="#E7F8FF"/>
</radialGradient>
<radialGradient id="paint55_radial_10833_34548" cx="0" cy="0" r="1" gradientTransform="matrix(2.23234 28.3685 4.63246 -0.349061 38.0249 26.7333)" gradientUnits="userSpaceOnUse">
<stop offset="0.182692" stop-color="#E7F8FF"/>
<stop offset="1" stop-color="#ABDEED" stop-opacity="0"/>
</radialGradient>
<radialGradient id="paint56_radial_10833_34548" cx="0" cy="0" r="1" gradientTransform="matrix(26.6508 0.748675 -0.466316 18.3234 51.5545 59.2975)" gradientUnits="userSpaceOnUse">
<stop stop-color="white"/>
<stop offset="1" stop-color="white" stop-opacity="0"/>
</radialGradient>
<radialGradient id="paint57_radial_10833_34548" cx="0" cy="0" r="1" gradientTransform="matrix(27.7895 6.45967 -4.39049 19.1167 70.4635 61.0522)" gradientUnits="userSpaceOnUse">
<stop stop-color="white"/>
<stop offset="1" stop-color="white" stop-opacity="0"/>
</radialGradient>
<radialGradient id="paint58_radial_10833_34548" cx="0" cy="0" r="1" gradientTransform="matrix(-23.9606 5.56962 3.78554 16.4827 36.4479 61.9424)" gradientUnits="userSpaceOnUse">
<stop stop-color="white"/>
<stop offset="1" stop-color="white" stop-opacity="0"/>
</radialGradient>
<radialGradient id="paint59_radial_10833_34548" cx="0" cy="0" r="1" gradientTransform="matrix(16.8821 8.11409 5.22894 -11.4068 44.841 56.8652)" gradientUnits="userSpaceOnUse">
<stop stop-color="white"/>
<stop offset="1" stop-color="white" stop-opacity="0"/>
</radialGradient>
<radialGradient id="paint60_radial_10833_34548" cx="0" cy="0" r="1" gradientTransform="matrix(6.67748 13.9226 63.132 -0.115806 79.7627 63.2254)" gradientUnits="userSpaceOnUse">
<stop stop-color="#C8F5B7"/>
<stop offset="0.5" stop-color="#A0CFF6"/>
<stop offset="1" stop-color="#D1D1FF"/>
</radialGradient>
<radialGradient id="paint61_radial_10833_34548" cx="0" cy="0" r="1" gradientTransform="matrix(20.9696 2.50341 2.81118 -25.9931 48.3465 60.9443)" gradientUnits="userSpaceOnUse">
<stop stop-color="white"/>
<stop offset="1" stop-color="white" stop-opacity="0"/>
</radialGradient>
<radialGradient id="paint62_radial_10833_34548" cx="0" cy="0" r="1" gradientTransform="matrix(-4.93489 10.2584 -46.6568 -0.0853271 24.0198 66.0821)" gradientUnits="userSpaceOnUse">
<stop stop-color="#C8F5B7"/>
<stop offset="0.5" stop-color="#A0CFF6"/>
<stop offset="1" stop-color="#D1D1FF"/>
</radialGradient>
<radialGradient id="paint63_radial_10833_34548" cx="0" cy="0" r="1" gradientTransform="matrix(13.8658 -6.71428 6.39063 14.568 33.1846 71.8633)" gradientUnits="userSpaceOnUse">
<stop stop-color="white"/>
<stop offset="1" stop-color="white" stop-opacity="0"/>
</radialGradient>
<radialGradient id="paint64_radial_10833_34548" cx="0" cy="0" r="1" gradientTransform="matrix(-4.85581 10.1244 -45.9091 -0.0842129 48.6978 66.1861)" gradientUnits="userSpaceOnUse">
<stop stop-color="#C8F5B7"/>
<stop offset="0.5" stop-color="#A0CFF6"/>
<stop offset="1" stop-color="#D1D1FF"/>
</radialGradient>
<radialGradient id="paint65_radial_10833_34548" cx="0" cy="0" r="1" gradientTransform="matrix(12.815 -11.8473 11.2762 13.464 57.7157 71.8918)" gradientUnits="userSpaceOnUse">
<stop stop-color="white"/>
<stop offset="1" stop-color="white" stop-opacity="0"/>
</radialGradient>
<linearGradient id="paint66_linear_10833_34548" x1="78.5903" y1="86.4605" x2="75.4113" y2="78.0212" gradientUnits="userSpaceOnUse">
<stop stop-color="#A62F03"/>
<stop offset="0.573921" stop-color="#F9824B"/>
<stop offset="1" stop-color="#F9A375"/>
</linearGradient>
<radialGradient id="paint67_radial_10833_34548" cx="0" cy="0" r="1" gradientUnits="userSpaceOnUse" gradientTransform="translate(78.7366 84.6025) rotate(152.277) scale(17.1549 7.1742)">
<stop offset="0.280686" stop-color="#AC3A0C"/>
<stop offset="1" stop-color="#C34D1D" stop-opacity="0"/>
</radialGradient>
<linearGradient id="paint68_linear_10833_34548" x1="67.7853" y1="97.1733" x2="70.0771" y2="102.768" gradientUnits="userSpaceOnUse">
<stop stop-color="#A62F03"/>
<stop offset="0.573921" stop-color="#F9824B"/>
<stop offset="1" stop-color="#F9A375"/>
</linearGradient>
<radialGradient id="paint69_radial_10833_34548" cx="0" cy="0" r="1" gradientUnits="userSpaceOnUse" gradientTransform="translate(68.7052 98.0188) rotate(164.806) scale(11.501 4.80973)">
<stop offset="0.280686" stop-color="#AC3A0C"/>
<stop offset="1" stop-color="#C34D1D" stop-opacity="0"/>
</radialGradient>
<linearGradient id="paint70_linear_10833_34548" x1="88.7918" y1="74.3525" x2="92.5422" y2="93.3277" gradientUnits="userSpaceOnUse">
<stop stop-color="#A62F03"/>
<stop offset="0.573921" stop-color="#F9824B"/>
<stop offset="1" stop-color="#F9A375"/>
</linearGradient>
<radialGradient id="paint71_radial_10833_34548" cx="0" cy="0" r="1" gradientUnits="userSpaceOnUse" gradientTransform="translate(84.2136 97.78) rotate(-15.3771) scale(41.1685 11.218)">
<stop offset="0.543269" stop-color="#FFBB9B"/>
<stop offset="0.758428" stop-color="#FFCA9B" stop-opacity="0.400033"/>
<stop offset="0.911441" stop-color="#FFCA9B" stop-opacity="0"/>
</radialGradient>
<radialGradient id="paint72_radial_10833_34548" cx="0" cy="0" r="1" gradientUnits="userSpaceOnUse" gradientTransform="translate(103.432 85.7711) rotate(159.41) scale(23.4405 7.33711)">
<stop stop-color="#FFCA9B"/>
<stop offset="0.911441" stop-color="#FFCA9B" stop-opacity="0"/>
</radialGradient>
<radialGradient id="paint73_radial_10833_34548" cx="0" cy="0" r="1" gradientTransform="matrix(-12.7726 -4.52734 -3.63934 10.278 62.0563 101.831)" gradientUnits="userSpaceOnUse">
<stop stop-color="#D45D2C"/>
<stop offset="1" stop-color="#D45D2C" stop-opacity="0"/>
</radialGradient>
<radialGradient id="paint74_radial_10833_34548" cx="0" cy="0" r="1" gradientTransform="matrix(14.0832 9.80323 9.80566 -14.0815 99.2534 83.2731)" gradientUnits="userSpaceOnUse">
<stop stop-color="#F8DABD"/>
<stop offset="1" stop-color="#F8DABD" stop-opacity="0"/>
</radialGradient>
<linearGradient id="paint75_linear_10833_34548" x1="105.839" y1="79.2313" x2="102.022" y2="84.6701" gradientUnits="userSpaceOnUse">
<stop offset="0.115154" stop-color="#A9F4F1"/>
<stop offset="1" stop-color="#9ACEFE"/>
</linearGradient>
<radialGradient id="paint76_radial_10833_34548" cx="0" cy="0" r="1" gradientTransform="matrix(-0.686707 2.29479 1.83355 0.486121 106.71 80.5562)" gradientUnits="userSpaceOnUse">
<stop stop-color="white"/>
<stop offset="1" stop-color="white" stop-opacity="0"/>
</radialGradient>
<linearGradient id="paint77_linear_10833_34548" x1="97.3633" y1="96.7415" x2="73.1296" y2="90.1602" gradientUnits="userSpaceOnUse">
<stop stop-color="#A62F03"/>
<stop offset="0.573921" stop-color="#F9824B"/>
<stop offset="1" stop-color="#F9A375"/>
</linearGradient>
<radialGradient id="paint78_radial_10833_34548" cx="0" cy="0" r="1" gradientUnits="userSpaceOnUse" gradientTransform="translate(89.5049 88.363) rotate(80.7821) scale(4.55317 25.664)">
<stop offset="0.177638" stop-color="#FCB180"/>
<stop offset="1" stop-color="#FCB180" stop-opacity="0"/>
</radialGradient>
</defs>
</svg>
