<svg viewBox="0 0 240 120" fill="none" xmlns="http://www.w3.org/2000/svg">
<path d="M119.29 53.0386L165.678 54.4103V111.979L121.061 106.176C120.048 106.044 119.29 105.181 119.29 104.16V53.0386Z" fill="#E23E3E"/>
<path d="M119.29 53.0386L165.678 54.4103V111.979L121.061 106.176C120.048 106.044 119.29 105.181 119.29 104.16V53.0386Z" fill="url(#paint0_linear_2673_8541)"/>
<path d="M119.29 53.0386L165.678 54.4103V111.979L121.061 106.176C120.048 106.044 119.29 105.181 119.29 104.16V53.0386Z" fill="url(#paint1_linear_2673_8541)"/>
<path d="M198.453 52.2781L165.679 54.4129V111.981L196.834 105.521C197.777 105.325 198.453 104.494 198.453 103.531V52.2781Z" fill="#C52626"/>
<path d="M198.453 52.2781L165.679 54.4129V111.981L196.834 105.521C197.777 105.325 198.453 104.494 198.453 103.531V52.2781Z" fill="url(#paint2_linear_2673_8541)"/>
<path d="M198.453 52.2781L165.679 54.4129V111.981L196.834 105.521C197.777 105.325 198.453 104.494 198.453 103.531V52.2781Z" fill="url(#paint3_linear_2673_8541)"/>
<path d="M151.884 40.1586C146.437 40.5371 132.165 46.2799 125.117 38.3279C123.025 35.9682 125.058 32.0346 126.632 26.5575C128.205 21.0805 128.904 10.9419 138.557 13.9632C148.211 16.9845 158.41 33.2119 158.41 33.2119L151.884 40.1586Z" fill="#FFAB9F"/>
<path d="M151.884 40.1586C146.437 40.5371 132.165 46.2799 125.117 38.3279C123.025 35.9682 125.058 32.0346 126.632 26.5575C128.205 21.0805 128.904 10.9419 138.557 13.9632C148.211 16.9845 158.41 33.2119 158.41 33.2119L151.884 40.1586Z" fill="url(#paint4_radial_2673_8541)"/>
<path d="M151.884 40.1586C146.437 40.5371 132.165 46.2799 125.117 38.3279C123.025 35.9682 125.058 32.0346 126.632 26.5575C128.205 21.0805 128.904 10.9419 138.557 13.9632C148.211 16.9845 158.41 33.2119 158.41 33.2119L151.884 40.1586Z" fill="url(#paint5_radial_2673_8541)"/>
<path d="M136.392 16.0239C143.981 15.7334 153.209 26.9838 157.396 32.8644L155.971 35.2164C132.796 28.2504 128.589 16.3227 136.392 16.0239Z" fill="#CB675C"/>
<path d="M136.392 16.0239C143.981 15.7334 153.209 26.9838 157.396 32.8644L155.971 35.2164C132.796 28.2504 128.589 16.3227 136.392 16.0239Z" fill="url(#paint6_radial_2673_8541)"/>
<path d="M164.738 40.0757C170.186 40.4542 187.88 46.2799 194.928 38.3279C197.019 35.9682 194.986 32.0346 193.413 26.5575C191.839 21.0805 191.14 10.9419 181.487 13.9632C171.834 16.9845 161.635 33.2119 161.635 33.2119L164.738 40.0757Z" fill="#FFAB9F"/>
<path d="M164.738 40.0757C170.186 40.4542 187.88 46.2799 194.928 38.3279C197.019 35.9682 194.986 32.0346 193.413 26.5575C191.839 21.0805 191.14 10.9419 181.487 13.9632C171.834 16.9845 161.635 33.2119 161.635 33.2119L164.738 40.0757Z" fill="url(#paint7_radial_2673_8541)"/>
<path d="M164.738 40.0757C170.186 40.4542 187.88 46.2799 194.928 38.3279C197.019 35.9682 194.986 32.0346 193.413 26.5575C191.839 21.0805 191.14 10.9419 181.487 13.9632C171.834 16.9845 161.635 33.2119 161.635 33.2119L164.738 40.0757Z" fill="url(#paint8_radial_2673_8541)"/>
<path d="M183.653 16.0239C176.065 15.7334 166.836 26.9838 162.649 32.8644L164.074 35.2164C187.249 28.2504 191.456 16.3227 183.653 16.0239Z" fill="#CB675C"/>
<path d="M183.653 16.0239C176.065 15.7334 166.836 26.9838 162.649 32.8644L164.074 35.2164C187.249 28.2504 191.456 16.3227 183.653 16.0239Z" fill="url(#paint9_radial_2673_8541)"/>
<path d="M153.313 31.2607C153.798 29.4959 155.402 28.2727 157.233 28.2727H161.868C164.008 28.2727 165.782 29.9318 165.924 32.067L166.401 39.2026C166.558 41.5492 164.697 43.5388 162.345 43.5388H155.272C152.588 43.5388 150.641 40.9841 151.352 38.3963L153.313 31.2607Z" fill="#FFAB9F"/>
<path d="M153.313 31.2607C153.798 29.4959 155.402 28.2727 157.233 28.2727H161.868C164.008 28.2727 165.782 29.9318 165.924 32.067L166.401 39.2026C166.558 41.5492 164.697 43.5388 162.345 43.5388H155.272C152.588 43.5388 150.641 40.9841 151.352 38.3963L153.313 31.2607Z" fill="url(#paint10_radial_2673_8541)"/>
<path d="M153.313 31.2607C153.798 29.4959 155.402 28.2727 157.233 28.2727H161.868C164.008 28.2727 165.782 29.9318 165.924 32.067L166.401 39.2026C166.558 41.5492 164.697 43.5388 162.345 43.5388H155.272C152.588 43.5388 150.641 40.9841 151.352 38.3963L153.313 31.2607Z" fill="url(#paint11_radial_2673_8541)"/>
<path d="M116.959 43.7706C116.959 42.6937 117.799 41.8037 118.874 41.7414L165.678 39.0278V58.7223L118.915 56.9592C117.823 56.918 116.959 56.0208 116.959 54.928V43.7706Z" fill="#E23E3E"/>
<path d="M116.959 43.7706C116.959 42.6937 117.799 41.8037 118.874 41.7414L165.678 39.0278V58.7223L118.915 56.9592C117.823 56.918 116.959 56.0208 116.959 54.928V43.7706Z" fill="url(#paint12_linear_2673_8541)"/>
<path d="M199.466 43.7222C199.466 42.6653 198.656 41.7847 197.603 41.6967L165.678 39.0278V58.7223L197.544 56.99C198.622 56.9314 199.466 56.0401 199.466 54.9603V43.7222Z" fill="#C52626"/>
<path d="M199.466 43.7222C199.466 42.6653 198.656 41.7847 197.603 41.6967L165.678 39.0278V58.7223L197.544 56.99C198.622 56.9314 199.466 56.0401 199.466 54.9603V43.7222Z" fill="url(#paint13_linear_2673_8541)"/>
<path d="M199.466 43.7222C199.466 42.6653 198.656 41.7847 197.603 41.6967L165.678 39.0278V58.7223L197.544 56.99C198.622 56.9314 199.466 56.0401 199.466 54.9603V43.7222Z" fill="url(#paint14_linear_2673_8541)"/>
<path fill-rule="evenodd" clip-rule="evenodd" d="M134.183 107.881V53.478L146.921 53.8547V109.538L134.183 107.881Z" fill="#FFAB9F"/>
<path fill-rule="evenodd" clip-rule="evenodd" d="M134.183 107.881V53.478L146.921 53.8547V109.538L134.183 107.881Z" fill="url(#paint15_linear_2673_8541)"/>
<path fill-rule="evenodd" clip-rule="evenodd" d="M134.183 107.881V53.478L146.921 53.8547V109.538L134.183 107.881Z" fill="url(#paint16_linear_2673_8541)"/>
<path fill-rule="evenodd" clip-rule="evenodd" d="M180.944 108.814V53.4171L189.335 52.8706V107.074L180.944 108.814Z" fill="#FFAB9F"/>
<path fill-rule="evenodd" clip-rule="evenodd" d="M180.944 108.814V53.4171L189.335 52.8706V107.074L180.944 108.814Z" fill="url(#paint17_linear_2673_8541)"/>
<path fill-rule="evenodd" clip-rule="evenodd" d="M180.944 108.814V53.4171L189.335 52.8706V107.074L180.944 108.814Z" fill="url(#paint18_linear_2673_8541)"/>
<path fill-rule="evenodd" clip-rule="evenodd" d="M134.183 57.5338V40.8528L146.921 40.1143V58.014L134.183 57.5338Z" fill="#E8BA61"/>
<path fill-rule="evenodd" clip-rule="evenodd" d="M134.183 57.5338V40.8528L146.921 40.1143V58.014L134.183 57.5338Z" fill="#FFAB9F"/>
<path fill-rule="evenodd" clip-rule="evenodd" d="M180.944 57.8335V40.3035L189.335 41.0049V57.3774L180.944 57.8335Z" fill="#E8BA61"/>
<path fill-rule="evenodd" clip-rule="evenodd" d="M180.944 57.8335V40.3035L189.335 41.0049V57.3774L180.944 57.8335Z" fill="#FFAB9F"/>
<path d="M129.195 43.1635C128.962 34.4234 140.033 33.0254 151.57 37.5703L151.104 40.0178C146.267 39.6673 139.625 41.2407 139.625 44.0375C140.557 65.0135 134.051 73.0748 129.195 74.1627C130.671 72.6866 130.827 66.0519 130.827 62.043C127.657 65.1196 122.164 65.1506 120.455 63.6745C128.496 63.4415 129.428 51.9037 129.195 43.1635Z" fill="#FFAB9F"/>
<path d="M129.195 43.1635C128.962 34.4234 140.033 33.0254 151.57 37.5703L151.104 40.0178C146.267 39.6673 139.625 41.2407 139.625 44.0375C140.557 65.0135 134.051 73.0748 129.195 74.1627C130.671 72.6866 130.827 66.0519 130.827 62.043C127.657 65.1196 122.164 65.1506 120.455 63.6745C128.496 63.4415 129.428 51.9037 129.195 43.1635Z" fill="url(#paint19_radial_2673_8541)"/>
<path d="M129.195 43.1635C128.962 34.4234 140.033 33.0254 151.57 37.5703L151.104 40.0178C146.267 39.6673 139.625 41.2407 139.625 44.0375C140.557 65.0135 134.051 73.0748 129.195 74.1627C130.671 72.6866 130.827 66.0519 130.827 62.043C127.657 65.1196 122.164 65.1506 120.455 63.6745C128.496 63.4415 129.428 51.9037 129.195 43.1635Z" fill="url(#paint20_radial_2673_8541)"/>
<path d="M129.195 43.1635C128.962 34.4234 140.033 33.0254 151.57 37.5703L151.104 40.0178C146.267 39.6673 139.625 41.2407 139.625 44.0375C140.557 65.0135 134.051 73.0748 129.195 74.1627C130.671 72.6866 130.827 66.0519 130.827 62.043C127.657 65.1196 122.164 65.1506 120.455 63.6745C128.496 63.4415 129.428 51.9037 129.195 43.1635Z" fill="url(#paint21_radial_2673_8541)"/>
<path d="M195.97 41.2022C195.97 33.9775 178.023 34.8319 166.253 36.5789V39.0266C174.877 40.3085 186.109 37.3815 185.715 46.2518C184.782 67.2277 191.114 71.1135 195.97 72.2014C194.494 70.7253 194.338 64.0906 194.338 60.0818C197.508 63.1583 203.001 63.1894 204.71 61.7133C196.669 61.4802 195.97 49.9455 195.97 41.2022Z" fill="#FFAB9F"/>
<path d="M195.97 41.2022C195.97 33.9775 178.023 34.8319 166.253 36.5789V39.0266C174.877 40.3085 186.109 37.3815 185.715 46.2518C184.782 67.2277 191.114 71.1135 195.97 72.2014C194.494 70.7253 194.338 64.0906 194.338 60.0818C197.508 63.1583 203.001 63.1894 204.71 61.7133C196.669 61.4802 195.97 49.9455 195.97 41.2022Z" fill="url(#paint22_radial_2673_8541)"/>
<path d="M195.97 41.2022C195.97 33.9775 178.023 34.8319 166.253 36.5789V39.0266C174.877 40.3085 186.109 37.3815 185.715 46.2518C184.782 67.2277 191.114 71.1135 195.97 72.2014C194.494 70.7253 194.338 64.0906 194.338 60.0818C197.508 63.1583 203.001 63.1894 204.71 61.7133C196.669 61.4802 195.97 49.9455 195.97 41.2022Z" fill="url(#paint23_radial_2673_8541)"/>
<path d="M195.97 41.2022C195.97 33.9775 178.023 34.8319 166.253 36.5789V39.0266C174.877 40.3085 186.109 37.3815 185.715 46.2518C184.782 67.2277 191.114 71.1135 195.97 72.2014C194.494 70.7253 194.338 64.0906 194.338 60.0818C197.508 63.1583 203.001 63.1894 204.71 61.7133C196.669 61.4802 195.97 49.9455 195.97 41.2022Z" fill="url(#paint24_radial_2673_8541)"/>
<path d="M195.97 41.2022C195.97 33.9775 178.023 34.8319 166.253 36.5789V39.0266C174.877 40.3085 186.109 37.3815 185.715 46.2518C184.782 67.2277 191.114 71.1135 195.97 72.2014C194.494 70.7253 194.338 64.0906 194.338 60.0818C197.508 63.1583 203.001 63.1894 204.71 61.7133C196.669 61.4802 195.97 49.9455 195.97 41.2022Z" fill="url(#paint25_radial_2673_8541)"/>
<path d="M195.97 41.2022C195.97 33.9775 178.023 34.8319 166.253 36.5789V39.0266C174.877 40.3085 186.109 37.3815 185.715 46.2518C184.782 67.2277 191.114 71.1135 195.97 72.2014C194.494 70.7253 194.338 64.0906 194.338 60.0818C197.508 63.1583 203.001 63.1894 204.71 61.7133C196.669 61.4802 195.97 49.9455 195.97 41.2022Z" fill="url(#paint26_radial_2673_8541)"/>
<path fill-rule="evenodd" clip-rule="evenodd" d="M93.5858 41.6099C91.7362 43.1091 89.3552 46.4803 88.9504 51.5411C88.5491 56.5559 90.0782 63.4488 96.4214 71.9676C98.2247 74.3894 94.4691 77.1859 92.6658 74.7641C85.8044 65.5494 83.7717 57.5562 84.2829 51.1677C84.7903 44.8251 87.7956 40.2758 90.6373 37.9724C92.983 36.0711 95.9314 39.7086 93.5858 41.6099Z" fill="url(#paint27_radial_2673_8541)"/>
<path fill-rule="evenodd" clip-rule="evenodd" d="M69.7408 78.8552C59.1868 74.8408 47.8121 72.9909 37.5779 76.315C34.7061 77.2478 33.2597 72.7944 36.1314 71.8617C47.8068 68.0694 60.3728 70.2822 71.4055 74.4787C82.4692 78.6871 92.2817 84.9987 98.6446 89.8251C101.05 91.6498 98.2205 95.3805 95.8148 93.5557C89.684 88.9054 80.2638 82.8579 69.7408 78.8552Z" fill="url(#paint28_radial_2673_8541)"/>
<path d="M103.646 75.8969C92.5843 80.0384 91.452 90.4741 92.2686 95.1743L94.8196 96.6213L103.702 92.6165L107.273 79.9268L103.646 75.8969Z" fill="url(#paint29_radial_2673_8541)"/>
<path d="M32.6756 87.2166C24.4857 90.176 18.0973 83.4742 28.4776 75.5345L38.1823 71.2177C39.4975 72.5663 42.1879 75.85 42.4282 78.1966C42.7286 81.1299 40.8655 84.2571 32.6756 87.2166Z" fill="url(#paint30_radial_2673_8541)"/>
<path d="M22.8263 64.993C25.249 61.7533 33.2555 61.6225 41.2641 70.0573L43.7332 71.0964C42.8288 73.0665 39.4497 76.9751 33.1682 76.8492C25.3163 76.6917 20.4036 68.2327 22.8263 64.993Z" fill="url(#paint31_radial_2673_8541)"/>
<path d="M41.5563 84.4333C41.8972 82.0877 43.9773 76.5196 45.8367 74.3098L43.9457 70.5146C40.533 69.2639 37.9384 66.4768 35.9042 62.907C35.3617 65.8521 36.594 69.3996 39.1546 71.5831C37.5951 71.8071 35.274 74.3056 34.3084 75.5268C35.9033 75.9707 39.0556 77.1065 40.9525 76.8692C40.007 78.5966 40.8204 82.6373 41.5563 84.4333Z" fill="url(#paint32_radial_2673_8541)"/>
<path fill-rule="evenodd" clip-rule="evenodd" d="M92.7169 55.5593C94.7599 63.5719 97.9182 70.8802 103.036 77.28C108.147 83.6723 115.3 89.2662 125.486 93.7305C128.251 94.9426 126.372 99.2312 123.606 98.0191C112.815 93.2894 105.021 87.2596 99.3789 80.2043C93.7431 73.1565 90.3411 65.1932 88.1797 56.7162C87.4337 53.7904 91.9709 52.6335 92.7169 55.5593Z" fill="url(#paint33_radial_2673_8541)"/>
<path fill-rule="evenodd" clip-rule="evenodd" d="M84.5151 60.3549C88.8316 65.8213 96.0379 74.3257 103.591 82.0306C107.367 85.8831 111.204 89.5087 114.79 92.4469C118.411 95.4132 121.638 97.5637 124.206 98.6007C127.006 99.7313 125.253 104.073 122.453 102.942C119.217 101.636 115.551 99.1235 111.823 96.0688C108.06 92.9858 104.093 89.232 100.247 85.3084C92.5545 77.4611 85.2382 68.8261 80.8403 63.2568C78.969 60.8871 82.6438 57.9852 84.5151 60.3549Z" fill="url(#paint34_radial_2673_8541)"/>
<path fill-rule="evenodd" clip-rule="evenodd" d="M76.4445 65.6692C83.505 69.3596 95.4093 79.0786 105.349 87.6621C110.366 91.9944 114.956 96.1028 118.291 99.1274C120.076 100.746 121.854 102.372 123.619 104.011C125.839 106.078 122.754 109.608 120.523 107.526C118.743 105.869 116.947 104.229 115.146 102.596C111.829 99.5884 107.269 95.5065 102.289 91.2061C92.2351 82.5242 80.7594 73.208 74.2755 69.8189C71.5995 68.4202 73.7685 64.2705 76.4445 65.6692Z" fill="url(#paint35_radial_2673_8541)"/>
<path fill-rule="evenodd" clip-rule="evenodd" d="M69.5117 73.3092C70.1034 72.1596 71.5151 71.7072 72.6648 72.2989C94.3264 83.4477 109.282 95.0468 117.222 104.825C118.037 105.828 117.884 107.303 116.881 108.118C115.877 108.933 114.402 108.78 113.587 107.776C106.214 98.6964 91.8838 87.4568 70.522 76.4623C69.3723 75.8706 68.92 74.4589 69.5117 73.3092Z" fill="url(#paint36_radial_2673_8541)"/>
<path fill-rule="evenodd" clip-rule="evenodd" d="M60.5303 78.1644C65.2954 77.9777 74.6702 79.976 84.5708 84.2591C94.5351 88.5698 105.419 95.3573 113.012 105.074C114.871 107.453 111.181 110.336 109.322 107.957C102.377 99.0694 92.2527 92.6841 82.7116 88.5566C73.1067 84.4014 64.4781 82.6957 60.7135 82.8432C57.6964 82.9614 57.5132 78.2826 60.5303 78.1644Z" fill="url(#paint37_radial_2673_8541)"/>
<path d="M80.5321 78.7629C86.9585 78.3644 88.8093 70.066 82.9435 67.0664L75.9188 57.0928L70.7374 61.8237C69.2088 63.4639 66.5124 67.7955 67.956 72.0006C69.7604 77.257 74.1057 79.1615 80.5321 78.7629Z" fill="url(#paint38_radial_2673_8541)"/>
<path d="M78.937 68.9535C72.3589 66.3562 79.3524 61.2405 72.9963 57.2401L74.2691 53.4396C81.4983 51.5353 89.8448 54.3361 90.211 61.57C90.5771 68.8038 85.515 71.5507 78.937 68.9535Z" fill="url(#paint39_radial_2673_8541)"/>
<path d="M55.7853 22.5837C52.9077 25.0737 51.3317 28.6696 57.1808 34.234L65.7261 45.3026L74.0929 45.6116L77.0712 40.7724C76.0231 35.5023 73.7233 24.4156 72.9094 22.2298C71.892 19.4976 66.6671 19.0295 64.5536 22.1398C61.925 19.4159 58.6628 20.0937 55.7853 22.5837Z" fill="url(#paint40_radial_2673_8541)"/>
<path d="M77.1376 53.6614C81.3036 49.1284 77.9915 40.139 70.8335 44.8967L63.4237 56.2599C61.6864 59.0828 60.1248 64.8953 67.7772 65.5629C77.3428 66.3973 72.9717 58.1944 77.1376 53.6614Z" fill="url(#paint41_radial_2673_8541)"/>
<path d="M82.294 20.9481C86.6911 23.8756 81.7565 32.037 81.8812 38.8436L76.5592 40.7977C70.3178 39.0625 66.2834 31.7214 67.423 25.2905C68.5626 18.8595 77.897 18.0207 82.294 20.9481Z" fill="url(#paint42_radial_2673_8541)"/>
<path d="M84.5877 37.3142C80.5014 34.7373 74.209 39.2314 73.84 44.9641C73.471 50.6968 77.0992 57.2526 83.9603 56.7588C90.8214 56.265 89.0706 49.1745 85.6058 47.2987C82.1411 45.4229 88.674 39.8911 84.5877 37.3142Z" fill="url(#paint43_radial_2673_8541)"/>
<path d="M96.2286 44.4174C94.7404 42.5148 89.891 40.7824 85.442 48.4065C79.7621 56.6055 81.0243 65.3328 90.9137 63.8799C100.803 62.4269 102.992 52.1335 99.1411 51.3029C95.2897 50.4722 97.7167 46.32 96.2286 44.4174Z" fill="url(#paint44_radial_2673_8541)"/>
<path d="M45.965 31.8725C48.7584 29.1673 54.171 26.1094 57.3471 33.8603L58.2202 39.5303L55.7672 43.1707C55.3877 41.9446 54.1632 39.5598 48.5019 40.0222C41.4253 40.6002 43.1717 34.5777 45.965 31.8725Z" fill="url(#paint45_radial_2673_8541)"/>
<path d="M34.9539 42.9606C38.1042 38.6256 43.6805 40.2479 46.7503 47.3449C48.3202 47.4852 52.1451 48.273 54.8851 50.3027C57.625 52.3324 55.4526 56.2078 54.0239 57.8917C51.3267 60.5678 44.5823 65.0066 39.1816 61.3535C32.4306 56.787 44.806 52.3513 39.6866 51.0721C34.5671 49.7928 31.8035 47.2957 34.9539 42.9606Z" fill="url(#paint46_radial_2673_8541)"/>
<path d="M49.4653 71.3982C39.5057 77.25 34.0451 67.7833 43.3943 61.4496C50.322 56.4838 57.9045 58.6639 64.7859 61.4656C71.6673 64.2673 68.9405 74.0752 65.485 75.2757C60.429 77.0322 65.8906 78.2764 55.5892 78.0475C48.5487 77.8911 52.8654 69.1016 49.4653 71.3982Z" fill="url(#paint47_radial_2673_8541)"/>
<path d="M46.1045 71.882C49.4507 69.9011 60.0697 69.556 61.3548 77.8332L61.2363 81.2546L58.0035 84.2243C57.9198 82.9435 57.2838 80.3392 51.6704 79.4715C44.6536 78.3868 42.7584 73.863 46.1045 71.882Z" fill="url(#paint48_radial_2673_8541)"/>
<path d="M40.4281 79.6549C43.8416 72.4555 61.7058 74.238 61.7181 81.9133C62.0546 86.8028 52.8166 94.7687 47.9083 92.4045C43.9816 90.5131 45.2528 87.7973 46.3793 86.6758C42.568 86.2626 38.3804 83.9737 40.4281 79.6549Z" fill="url(#paint49_radial_2673_8541)"/>
<path d="M64.3921 48.6678C64.0071 54.0761 57.5105 55.0496 53.4377 52.3928C49.3649 49.7359 46.9942 53.7483 43.5696 49.9084C40.1451 46.0685 41.9886 39.5494 46.0358 38.175C50.083 36.8006 53.2438 40.0978 54.4124 36.4128C55.5811 32.7278 56.7159 28.5266 63.502 29.8653C70.2881 31.204 69.718 38.8002 65.7158 40.3896C62.4525 41.6854 64.6189 45.4806 64.3921 48.6678Z" fill="url(#paint50_radial_2673_8541)"/>
<path d="M66.7704 54.2266C70.9038 53.2794 73.8695 40.9638 66.1536 42.0417C58.4378 43.1196 55.6408 41.7864 53.604 48.9317C51.5672 56.0771 49.8788 63.5755 57.5604 65.0231C67.1626 66.8327 68.9597 56.9853 66.7704 54.2266Z" fill="url(#paint51_radial_2673_8541)"/>
<path d="M91.197 19.9743C86.0049 20.8789 79.8665 26.5704 89.858 37.1954L92.9458 37.9538C102.147 37.4881 107.033 31.5992 106.369 27.516C105.705 23.4328 102.78 22.8947 99.2826 23.0717C95.4042 23.2681 94.9 19.3292 91.197 19.9743Z" fill="url(#paint52_radial_2673_8541)"/>
<path d="M106.393 29.4974C101.767 26.987 92.9937 29.8707 90.7479 38.218L91.5016 39.5521C93.2557 39.565 95.4558 39.3519 101.159 39.0632C106.862 38.7746 111.018 32.0078 106.393 29.4974Z" fill="url(#paint53_radial_2673_8541)"/>
<path d="M84.8004 32.835C86.2652 34.2748 89.0911 38.5808 89.683 41.0123L93.3041 41.6348C95.9263 39.8904 99.2033 39.5048 102.74 39.9118C100.96 38.024 97.8492 37.068 95.0115 37.739C95.6538 36.5344 95.0967 33.6324 94.7378 32.3319C93.6106 33.2192 91.202 34.8405 90.3962 36.2878C89.6733 34.742 86.4326 33.2407 84.8004 32.835Z" fill="url(#paint54_radial_2673_8541)"/>
<path d="M57.9381 89.752C58.8725 87.8434 62.1981 83.5968 64.419 82.1424L63.8019 78.5089C61.1673 76.6883 59.663 73.7505 58.8599 70.2756C57.587 72.6464 57.6973 75.9232 59.3358 78.3427C57.9158 78.1838 55.2141 79.7793 54.0407 80.5969C55.3102 81.3287 57.7491 82.994 59.4668 83.2169C58.1734 84.4673 57.7847 88.0679 57.9381 89.752Z" fill="url(#paint55_radial_2673_8541)"/>
<path d="M103.667 75.7246C105.705 82.3586 98.9928 93.5287 92.1791 95.1411L100.588 101.701C100.901 101.945 101.318 102.017 101.686 101.869C109.101 98.8765 113.54 89.0941 113.144 83.5573C113.122 83.2499 112.96 82.9736 112.717 82.784L103.667 75.7246Z" fill="url(#paint56_radial_2673_8541)"/>
<defs>
<linearGradient id="paint0_linear_2673_8541" x1="142.484" y1="50.6806" x2="142.484" y2="63.4994" gradientUnits="userSpaceOnUse">
<stop stop-color="#7D4F35"/>
<stop offset="1" stop-color="#7D4F35" stop-opacity="0"/>
</linearGradient>
<linearGradient id="paint1_linear_2673_8541" x1="133.041" y1="131.206" x2="137.353" y2="92.2836" gradientUnits="userSpaceOnUse">
<stop stop-color="#7D4F35"/>
<stop offset="1" stop-color="#7D4F35" stop-opacity="0"/>
</linearGradient>
<linearGradient id="paint2_linear_2673_8541" x1="182.067" y1="54.9928" x2="182.067" y2="62.8751" gradientUnits="userSpaceOnUse">
<stop stop-color="#613117"/>
<stop offset="1" stop-color="#7D4F35" stop-opacity="0"/>
</linearGradient>
<linearGradient id="paint3_linear_2673_8541" x1="136.77" y1="131.556" x2="182.067" y2="62.875" gradientUnits="userSpaceOnUse">
<stop stop-color="#7D4F35"/>
<stop offset="1" stop-color="#7D4F35" stop-opacity="0"/>
</linearGradient>
<radialGradient id="paint4_radial_2673_8541" cx="0" cy="0" r="1" gradientUnits="userSpaceOnUse" gradientTransform="translate(141.9 22.2477) rotate(89.3301) scale(29.9024 34.0671)">
<stop offset="0.497573" stop-color="#815118" stop-opacity="0"/>
<stop offset="1" stop-color="#815118"/>
</radialGradient>
<radialGradient id="paint5_radial_2673_8541" cx="0" cy="0" r="1" gradientUnits="userSpaceOnUse" gradientTransform="translate(143.065 23.6461) rotate(120.606) scale(9.61326 20.4507)">
<stop offset="0.587575" stop-color="#FFD0D0"/>
<stop offset="1" stop-color="#FFD0D0" stop-opacity="0"/>
</radialGradient>
<radialGradient id="paint6_radial_2673_8541" cx="0" cy="0" r="1" gradientUnits="userSpaceOnUse" gradientTransform="translate(142.306 30.1137) rotate(119.97) scale(9.21475 26.2076)">
<stop stop-color="#694213"/>
<stop offset="1" stop-color="#694213" stop-opacity="0"/>
</radialGradient>
<radialGradient id="paint7_radial_2673_8541" cx="0" cy="0" r="1" gradientUnits="userSpaceOnUse" gradientTransform="translate(178.144 22.2477) rotate(90.6699) scale(29.9024 34.0671)">
<stop offset="0.497573" stop-color="#815118" stop-opacity="0"/>
<stop offset="1" stop-color="#815118"/>
</radialGradient>
<radialGradient id="paint8_radial_2673_8541" cx="0" cy="0" r="1" gradientUnits="userSpaceOnUse" gradientTransform="translate(176.979 23.6461) rotate(59.3936) scale(9.61326 20.4507)">
<stop offset="0.587575" stop-color="#FFD0D0"/>
<stop offset="1" stop-color="#FFD0D0" stop-opacity="0"/>
</radialGradient>
<radialGradient id="paint9_radial_2673_8541" cx="0" cy="0" r="1" gradientUnits="userSpaceOnUse" gradientTransform="translate(177.739 30.1137) rotate(60.0304) scale(9.21475 26.2076)">
<stop stop-color="#694213"/>
<stop offset="1" stop-color="#694213" stop-opacity="0"/>
</radialGradient>
<radialGradient id="paint10_radial_2673_8541" cx="0" cy="0" r="1" gradientUnits="userSpaceOnUse" gradientTransform="translate(159.378 32.3833) rotate(90) scale(11.1555 12.486)">
<stop offset="0.511628" stop-color="#815118" stop-opacity="0"/>
<stop offset="1" stop-color="#815118"/>
</radialGradient>
<radialGradient id="paint11_radial_2673_8541" cx="0" cy="0" r="1" gradientUnits="userSpaceOnUse" gradientTransform="translate(157.575 28.8872) rotate(90) scale(5.82675 8.42522)">
<stop stop-color="#FFD0D0"/>
<stop offset="1" stop-color="#FFD0D0" stop-opacity="0"/>
</radialGradient>
<linearGradient id="paint12_linear_2673_8541" x1="141.319" y1="39.0278" x2="141.319" y2="44.738" gradientUnits="userSpaceOnUse">
<stop stop-color="#FFD0D0"/>
<stop offset="1" stop-color="#FFD0D0" stop-opacity="0"/>
</linearGradient>
<linearGradient id="paint13_linear_2673_8541" x1="142.131" y1="115.009" x2="182.572" y2="42.1716" gradientUnits="userSpaceOnUse">
<stop stop-color="#7D4F35"/>
<stop offset="1" stop-color="#7D4F35" stop-opacity="0"/>
</linearGradient>
<linearGradient id="paint14_linear_2673_8541" x1="182.572" y1="36.1145" x2="182.572" y2="44.8546" gradientUnits="userSpaceOnUse">
<stop stop-color="#FFD0D0"/>
<stop offset="1" stop-color="#FFD0D0" stop-opacity="0"/>
</linearGradient>
<linearGradient id="paint15_linear_2673_8541" x1="140.552" y1="51.2352" x2="140.552" y2="63.4277" gradientUnits="userSpaceOnUse">
<stop stop-color="#7D4F35"/>
<stop offset="1" stop-color="#7D4F35" stop-opacity="0"/>
</linearGradient>
<linearGradient id="paint16_linear_2673_8541" x1="137.959" y1="127.826" x2="151.008" y2="101.944" gradientUnits="userSpaceOnUse">
<stop stop-color="#7D4F35"/>
<stop offset="1" stop-color="#7D4F35" stop-opacity="0"/>
</linearGradient>
<linearGradient id="paint17_linear_2673_8541" x1="185.14" y1="50.6325" x2="185.14" y2="62.7996" gradientUnits="userSpaceOnUse">
<stop stop-color="#7D4F35"/>
<stop offset="1" stop-color="#7D4F35" stop-opacity="0"/>
</linearGradient>
<linearGradient id="paint18_linear_2673_8541" x1="196.736" y1="127.156" x2="182.569" y2="89.9515" gradientUnits="userSpaceOnUse">
<stop stop-color="#7D4F35"/>
<stop offset="1" stop-color="#7D4F35" stop-opacity="0"/>
</linearGradient>
<radialGradient id="paint19_radial_2673_8541" cx="0" cy="0" r="1" gradientUnits="userSpaceOnUse" gradientTransform="translate(147.724 60.3523) rotate(88.0999) scale(24.6024 16.621)">
<stop stop-color="#815118"/>
<stop offset="1" stop-color="#815118" stop-opacity="0"/>
</radialGradient>
<radialGradient id="paint20_radial_2673_8541" cx="0" cy="0" r="1" gradientUnits="userSpaceOnUse" gradientTransform="translate(126.631 45.2027) rotate(110.841) scale(21.9461 12.8217)">
<stop stop-color="#FFD0D0"/>
<stop offset="1" stop-color="#FFD0D0" stop-opacity="0"/>
</radialGradient>
<radialGradient id="paint21_radial_2673_8541" cx="0" cy="0" r="1" gradientUnits="userSpaceOnUse" gradientTransform="translate(142.946 34.2484) rotate(171.518) scale(13.4319 4.89444)">
<stop stop-color="#FFD0D0"/>
<stop offset="1" stop-color="#FFD0D0" stop-opacity="0"/>
</radialGradient>
<radialGradient id="paint22_radial_2673_8541" cx="0" cy="0" r="1" gradientUnits="userSpaceOnUse" gradientTransform="translate(168.118 42.7563) rotate(-4.2105) scale(19.0466 5.65859)">
<stop stop-color="#815118"/>
<stop offset="1" stop-color="#815118" stop-opacity="0"/>
</radialGradient>
<radialGradient id="paint23_radial_2673_8541" cx="0" cy="0" r="1" gradientUnits="userSpaceOnUse" gradientTransform="translate(182.918 57.3232) rotate(-81.3726) scale(17.091 5.07758)">
<stop stop-color="#815118"/>
<stop offset="1" stop-color="#815118" stop-opacity="0"/>
</radialGradient>
<radialGradient id="paint24_radial_2673_8541" cx="0" cy="0" r="1" gradientUnits="userSpaceOnUse" gradientTransform="translate(187.113 75.8523) rotate(-99.8458) scale(28.6231 8.50367)">
<stop stop-color="#815118"/>
<stop offset="1" stop-color="#815118" stop-opacity="0"/>
</radialGradient>
<radialGradient id="paint25_radial_2673_8541" cx="0" cy="0" r="1" gradientUnits="userSpaceOnUse" gradientTransform="translate(200.282 41.591) rotate(74.1733) scale(23.5486 15.6275)">
<stop stop-color="#FFD0D0"/>
<stop offset="0.850589" stop-color="#FFD0D0" stop-opacity="0"/>
</radialGradient>
<radialGradient id="paint26_radial_2673_8541" cx="0" cy="0" r="1" gradientUnits="userSpaceOnUse" gradientTransform="translate(177.22 34.6259) rotate(6.5523) scale(16.344 4.08143)">
<stop stop-color="#FFD0D0"/>
<stop offset="1" stop-color="#FFD0D0" stop-opacity="0"/>
</radialGradient>
<radialGradient id="paint27_radial_2673_8541" cx="0" cy="0" r="1" gradientUnits="userSpaceOnUse" gradientTransform="translate(94.8555 56.501) rotate(-14.1958) scale(13.6739 29.0562)">
<stop offset="0.265625" stop-color="#74CE3C"/>
<stop offset="0.828125" stop-color="#0A6D0E"/>
</radialGradient>
<radialGradient id="paint28_radial_2673_8541" cx="0" cy="0" r="1" gradientUnits="userSpaceOnUse" gradientTransform="translate(69.2229 87.1018) rotate(-68.9353) scale(11.6924 38.4927)">
<stop offset="0.735243" stop-color="#0A6D0E"/>
<stop offset="1" stop-color="#74CE3C"/>
</radialGradient>
<radialGradient id="paint29_radial_2673_8541" cx="0" cy="0" r="1" gradientUnits="userSpaceOnUse" gradientTransform="translate(98.436 84.3775) rotate(42.1292) scale(9.64773 7.93407)">
<stop offset="0.456979" stop-color="#F9E8BF"/>
<stop offset="1" stop-color="#9A803C"/>
</radialGradient>
<radialGradient id="paint30_radial_2673_8541" cx="0" cy="0" r="1" gradientUnits="userSpaceOnUse" gradientTransform="translate(35.7945 84.8419) rotate(-107.364) scale(12.64 11.143)">
<stop offset="0.0364583" stop-color="#FF7E35"/>
<stop offset="1" stop-color="#BD2200"/>
</radialGradient>
<radialGradient id="paint31_radial_2673_8541" cx="0" cy="0" r="1" gradientUnits="userSpaceOnUse" gradientTransform="translate(35.6266 75.0724) rotate(-98.7077) scale(12.8795 11.6154)">
<stop offset="0.0364583" stop-color="#FF7E35"/>
<stop offset="1" stop-color="#BD2200"/>
</radialGradient>
<radialGradient id="paint32_radial_2673_8541" cx="0" cy="0" r="1" gradientUnits="userSpaceOnUse" gradientTransform="translate(37.5094 74.6636) rotate(167.831) scale(11.0151 35.0473)">
<stop offset="0.157154" stop-color="#74CE3C"/>
<stop offset="1" stop-color="#0A6D0E"/>
</radialGradient>
<radialGradient id="paint33_radial_2673_8541" cx="0" cy="0" r="1" gradientUnits="userSpaceOnUse" gradientTransform="translate(108.859 74.752) rotate(-50.4945) scale(10.8395 42.6598)">
<stop offset="0.427" stop-color="#74CE3C"/>
<stop offset="0.924242" stop-color="#0A6D0E"/>
</radialGradient>
<radialGradient id="paint34_radial_2673_8541" cx="0" cy="0" r="1" gradientUnits="userSpaceOnUse" gradientTransform="translate(104.658 80.0315) rotate(-44.8449) scale(11.8472 54.6363)">
<stop offset="0.265625" stop-color="#74CE3C"/>
<stop offset="0.641658" stop-color="#0A6D0E"/>
</radialGradient>
<radialGradient id="paint35_radial_2673_8541" cx="0" cy="0" r="1" gradientUnits="userSpaceOnUse" gradientTransform="translate(91.7456 96.3219) rotate(-53.0922) scale(17.4228 48.1206)">
<stop offset="0.561892" stop-color="#0A6D0E"/>
<stop offset="0.909898" stop-color="#74CE3C"/>
</radialGradient>
<radialGradient id="paint36_radial_2673_8541" cx="0" cy="0" r="1" gradientUnits="userSpaceOnUse" gradientTransform="translate(88.9339 98.1385) rotate(-58.2818) scale(15.3149 45.6229)">
<stop offset="0.65644" stop-color="#0A6D0E"/>
<stop offset="1" stop-color="#74CE3C"/>
</radialGradient>
<radialGradient id="paint37_radial_2673_8541" cx="0" cy="0" r="1" gradientUnits="userSpaceOnUse" gradientTransform="translate(85.5315 99.3159) rotate(-64.597) scale(13.1748 45.8196)">
<stop offset="0.659049" stop-color="#0A6D0E"/>
<stop offset="1" stop-color="#74CE3C"/>
</radialGradient>
<radialGradient id="paint38_radial_2673_8541" cx="0" cy="0" r="1" gradientUnits="userSpaceOnUse" gradientTransform="translate(79.1437 76.3711) rotate(-94.8017) scale(19.4274 10.3614)">
<stop offset="0.0364583" stop-color="#FF7E35"/>
<stop offset="1" stop-color="#BD2200"/>
</radialGradient>
<radialGradient id="paint39_radial_2673_8541" cx="0" cy="0" r="1" gradientUnits="userSpaceOnUse" gradientTransform="translate(83.7194 67.9637) rotate(-95.0734) scale(15.3698 9.36495)">
<stop offset="0.0364583" stop-color="#FF7E35"/>
<stop offset="1" stop-color="#BD2200"/>
</radialGradient>
<radialGradient id="paint40_radial_2673_8541" cx="0" cy="0" r="1" gradientUnits="userSpaceOnUse" gradientTransform="translate(67.8868 43.0115) rotate(-94.8829) scale(22.98 12.7778)">
<stop offset="0.0364583" stop-color="#FF7E35"/>
<stop offset="1" stop-color="#BD2200"/>
</radialGradient>
<radialGradient id="paint41_radial_2673_8541" cx="0" cy="0" r="1" gradientUnits="userSpaceOnUse" gradientTransform="translate(72.6378 63.0017) rotate(-94.6865) scale(19.3454 9.69422)">
<stop offset="0.0364583" stop-color="#FF7E35"/>
<stop offset="1" stop-color="#BD2200"/>
</radialGradient>
<radialGradient id="paint42_radial_2673_8541" cx="0" cy="0" r="1" gradientUnits="userSpaceOnUse" gradientTransform="translate(77.9717 38.3088) rotate(-94.6575) scale(19.0598 9.39634)">
<stop offset="0.0364583" stop-color="#FF7E35"/>
<stop offset="1" stop-color="#BD2200"/>
</radialGradient>
<radialGradient id="paint43_radial_2673_8541" cx="0" cy="0" r="1" gradientUnits="userSpaceOnUse" gradientTransform="translate(82.9384 54.5296) rotate(-94.4846) scale(18.0003 8.00303)">
<stop offset="0.0364583" stop-color="#FF7E35"/>
<stop offset="1" stop-color="#BD2200"/>
</radialGradient>
<radialGradient id="paint44_radial_2673_8541" cx="0" cy="0" r="1" gradientUnits="userSpaceOnUse" gradientTransform="translate(93.6626 61.4406) rotate(-94.9034) scale(18.6977 10.5037)">
<stop offset="0.0364583" stop-color="#FF7E35"/>
<stop offset="1" stop-color="#BD2200"/>
</radialGradient>
<radialGradient id="paint45_radial_2673_8541" cx="0" cy="0" r="1" gradientUnits="userSpaceOnUse" gradientTransform="translate(52.4884 41.7124) rotate(-95.1355) scale(12.8102 8.02755)">
<stop offset="0.0364583" stop-color="#FF7E35"/>
<stop offset="1" stop-color="#BD2200"/>
</radialGradient>
<radialGradient id="paint46_radial_2673_8541" cx="0" cy="0" r="1" gradientUnits="userSpaceOnUse" gradientTransform="translate(47.6395 60.0304) rotate(-95.1001) scale(19.8825 12.2628)">
<stop offset="0.0364583" stop-color="#FF7E35"/>
<stop offset="1" stop-color="#BD2200"/>
</radialGradient>
<radialGradient id="paint47_radial_2673_8541" cx="0" cy="0" r="1" gradientUnits="userSpaceOnUse" gradientTransform="translate(57.2159 75.9215) rotate(-96.2925) scale(17.695 16.7997)">
<stop offset="0.0364583" stop-color="#FF7E35"/>
<stop offset="1" stop-color="#BD2200"/>
</radialGradient>
<radialGradient id="paint48_radial_2673_8541" cx="0" cy="0" r="1" gradientUnits="userSpaceOnUse" gradientTransform="translate(53.8467 82.036) rotate(-82.628) scale(10.981 9.78993)">
<stop offset="0.0364583" stop-color="#FF7E35"/>
<stop offset="1" stop-color="#BD2200"/>
</radialGradient>
<radialGradient id="paint49_radial_2673_8541" cx="0" cy="0" r="1" gradientUnits="userSpaceOnUse" gradientTransform="translate(42.6416 86.2273) rotate(-5.7401) scale(19.3483 9.77592)">
<stop offset="0.0364583" stop-color="#FF7E35"/>
<stop offset="1" stop-color="#BD2200"/>
</radialGradient>
<radialGradient id="paint50_radial_2673_8541" cx="0" cy="0" r="1" gradientUnits="userSpaceOnUse" gradientTransform="translate(51.0412 34.2516) rotate(75.4175) scale(20.8294 15.7575)">
<stop offset="0.0364583" stop-color="#FF7E35"/>
<stop offset="1" stop-color="#BD2200"/>
</radialGradient>
<radialGradient id="paint51_radial_2673_8541" cx="0" cy="0" r="1" gradientUnits="userSpaceOnUse" gradientTransform="translate(63.8789 62.4717) rotate(-94.8015) scale(20.3281 10.8404)">
<stop offset="0.0364583" stop-color="#FF7E35"/>
<stop offset="1" stop-color="#BD2200"/>
</radialGradient>
<radialGradient id="paint52_radial_2673_8541" cx="0" cy="0" r="1" gradientUnits="userSpaceOnUse" gradientTransform="translate(98.041 35.6595) rotate(-95.5759) scale(16.0654 12.0437)">
<stop offset="0.0364583" stop-color="#FF7E35"/>
<stop offset="1" stop-color="#BD2200"/>
</radialGradient>
<radialGradient id="paint53_radial_2673_8541" cx="0" cy="0" r="1" gradientUnits="userSpaceOnUse" gradientTransform="translate(101.467 37.9203) rotate(-96.7069) scale(9.26087 9.8596)">
<stop offset="0.0364583" stop-color="#FF7E35"/>
<stop offset="1" stop-color="#BD2200"/>
</radialGradient>
<radialGradient id="paint54_radial_2673_8541" cx="0" cy="0" r="1" gradientUnits="userSpaceOnUse" gradientTransform="translate(93.7014 35.0112) rotate(-65.9287) scale(9.54471 30.3689)">
<stop offset="0.157154" stop-color="#74CE3C"/>
<stop offset="1" stop-color="#0A6D0E"/>
</radialGradient>
<radialGradient id="paint55_radial_2673_8541" cx="0" cy="0" r="1" gradientUnits="userSpaceOnUse" gradientTransform="translate(57.0651 80.5816) rotate(-177.48) scale(10.0252 30.7345)">
<stop offset="0.157154" stop-color="#74CE3C"/>
<stop offset="1" stop-color="#0A6D0E"/>
</radialGradient>
<radialGradient id="paint56_radial_2673_8541" cx="0" cy="0" r="1" gradientUnits="userSpaceOnUse" gradientTransform="translate(100.991 86.4919) rotate(40.7543) scale(12.7936 10.5095)">
<stop offset="0.456979" stop-color="#F9E8BF"/>
<stop offset="1" stop-color="#CBB16E"/>
</radialGradient>
</defs>
</svg>
