<svg viewBox="0 0 240 120" fill="none" xmlns="http://www.w3.org/2000/svg">
<path d="M21.4971 32.5064C14.8538 28.8153 1.19599 44.6877 15.2224 55.392C77.6032 66.9577 206.425 85.7334 222.666 68.3111C242.968 46.5333 221.558 17.742 202.364 17.742C177.264 -8.09614 141.46 17.0038 108.239 6.66853C75.0189 -3.66673 34.0473 4.82282 21.4971 32.5064Z" fill="url(#paint0_linear_10569_2763)"/>
<path d="M21.4971 32.5064C14.8538 28.8153 1.19599 44.6877 15.2224 55.392C77.6032 66.9577 206.425 85.7334 222.666 68.3111C242.968 46.5333 221.558 17.742 202.364 17.742C177.264 -8.09614 141.46 17.0038 108.239 6.66853C75.0189 -3.66673 34.0473 4.82282 21.4971 32.5064Z" fill="url(#paint1_radial_10569_2763)"/>
<path d="M21.4971 32.5064C14.8538 28.8153 1.19599 44.6877 15.2224 55.392C77.6032 66.9577 206.425 85.7334 222.666 68.3111C242.968 46.5333 221.558 17.742 202.364 17.742C177.264 -8.09614 141.46 17.0038 108.239 6.66853C75.0189 -3.66673 34.0473 4.82282 21.4971 32.5064Z" fill="url(#paint2_linear_10569_2763)"/>
<path d="M64.6484 21.4167C64.9525 22.1161 66.181 23.6061 68.6623 23.971C68.6623 26.5253 75.0483 28.8972 79.6095 27.8025C80.3393 28.5323 82.474 29.773 85.1742 28.8972C85.904 29.3534 87.5096 30.2109 88.0934 29.9919C88.8232 29.7183 89.4618 28.806 88.0934 27.8025C88.6408 27.468 89.4071 26.5984 88.0934 25.7956C88.9145 25.1874 90.5565 23.7704 90.5565 22.9676C93.2933 19.5923 88.0934 16.6731 83.8059 17.9502C83.9883 16.4906 83.7694 13.5714 81.434 13.5714C82.0726 11.5644 78.1499 7.64187 74.5922 9.9224C74.0448 8.8277 65.5609 9.64873 63.9186 13.5714C59.8135 14.4836 60.6345 20.8694 64.6484 21.4167Z" fill="url(#paint3_linear_10569_2763)"/>
<path d="M64.6484 21.4167C64.9525 22.1161 66.181 23.6061 68.6623 23.971C68.6623 26.5253 75.0483 28.8972 79.6095 27.8025C80.3393 28.5323 82.474 29.773 85.1742 28.8972C85.904 29.3534 87.5096 30.2109 88.0934 29.9919C88.8232 29.7183 89.4618 28.806 88.0934 27.8025C88.6408 27.468 89.4071 26.5984 88.0934 25.7956C88.9145 25.1874 90.5565 23.7704 90.5565 22.9676C93.2933 19.5923 88.0934 16.6731 83.8059 17.9502C83.9883 16.4906 83.7694 13.5714 81.434 13.5714C82.0726 11.5644 78.1499 7.64187 74.5922 9.9224C74.0448 8.8277 65.5609 9.64873 63.9186 13.5714C59.8135 14.4836 60.6345 20.8694 64.6484 21.4167Z" fill="url(#paint4_radial_10569_2763)"/>
<path d="M64.6484 21.4167C64.9525 22.1161 66.181 23.6061 68.6623 23.971C68.6623 26.5253 75.0483 28.8972 79.6095 27.8025C80.3393 28.5323 82.474 29.773 85.1742 28.8972C85.904 29.3534 87.5096 30.2109 88.0934 29.9919C88.8232 29.7183 89.4618 28.806 88.0934 27.8025C88.6408 27.468 89.4071 26.5984 88.0934 25.7956C88.9145 25.1874 90.5565 23.7704 90.5565 22.9676C93.2933 19.5923 88.0934 16.6731 83.8059 17.9502C83.9883 16.4906 83.7694 13.5714 81.434 13.5714C82.0726 11.5644 78.1499 7.64187 74.5922 9.9224C74.0448 8.8277 65.5609 9.64873 63.9186 13.5714C59.8135 14.4836 60.6345 20.8694 64.6484 21.4167Z" fill="url(#paint5_radial_10569_2763)"/>
<path d="M64.6484 21.4167C64.9525 22.1161 66.181 23.6061 68.6623 23.971C68.6623 26.5253 75.0483 28.8972 79.6095 27.8025C80.3393 28.5323 82.474 29.773 85.1742 28.8972C85.904 29.3534 87.5096 30.2109 88.0934 29.9919C88.8232 29.7183 89.4618 28.806 88.0934 27.8025C88.6408 27.468 89.4071 26.5984 88.0934 25.7956C88.9145 25.1874 90.5565 23.7704 90.5565 22.9676C93.2933 19.5923 88.0934 16.6731 83.8059 17.9502C83.9883 16.4906 83.7694 13.5714 81.434 13.5714C82.0726 11.5644 78.1499 7.64187 74.5922 9.9224C74.0448 8.8277 65.5609 9.64873 63.9186 13.5714C59.8135 14.4836 60.6345 20.8694 64.6484 21.4167Z" fill="url(#paint6_radial_10569_2763)"/>
<path d="M64.6484 21.4167C64.9525 22.1161 66.181 23.6061 68.6623 23.971C68.6623 26.5253 75.0483 28.8972 79.6095 27.8025C80.3393 28.5323 82.474 29.773 85.1742 28.8972C85.904 29.3534 87.5096 30.2109 88.0934 29.9919C88.8232 29.7183 89.4618 28.806 88.0934 27.8025C88.6408 27.468 89.4071 26.5984 88.0934 25.7956C88.9145 25.1874 90.5565 23.7704 90.5565 22.9676C93.2933 19.5923 88.0934 16.6731 83.8059 17.9502C83.9883 16.4906 83.7694 13.5714 81.434 13.5714C82.0726 11.5644 78.1499 7.64187 74.5922 9.9224C74.0448 8.8277 65.5609 9.64873 63.9186 13.5714C59.8135 14.4836 60.6345 20.8694 64.6484 21.4167Z" fill="url(#paint7_radial_10569_2763)"/>
<path d="M81.386 27.3135C80.7882 28.6211 76.7012 26.9709 77.3544 24.8338C75.7681 25.8197 70.3981 23.8837 70.8267 20.5717C68.2375 18.6744 71.6586 16.2608 73.7068 17.9397C75.5463 17.3659 79.5542 18.5195 81.0394 20.9004C82.5847 20.3626 86.8189 21.9948 85.7972 24.5253C86.2021 25.773 84.3912 28.5269 81.386 27.3135Z" fill="url(#paint8_radial_10569_2763)"/>
<path d="M114.091 30.0602C113.146 32.8155 118.145 34.5473 121.412 33.0123C124.508 33.7864 131.102 34.8701 132.708 33.0123C134.716 33.4059 139.234 33.6972 141.249 31.7134C143.821 32.3038 149.484 33.1304 151.562 31.7134C152.546 32.7761 158.253 31.7921 158.45 30.6507C158.647 29.5092 156.206 28.171 154.553 29.155C154.593 28.0135 151.404 26.754 150.578 28.4858C150.25 27.9086 149.373 26.9114 148.492 27.5412C149.987 24.1168 144.398 24.1168 142.037 26.754C141.643 24.904 139.321 23.92 138.219 24.9434C138.271 24.0381 137.983 22.2905 136.408 22.5424C137.746 21.4403 135.975 17.9766 133.377 19.0393C133.889 18.1734 131.724 15.5363 129.52 16.5596C129.638 15.5756 126.844 14.749 125.82 15.8511C124.6 14.1586 118.657 16.3628 120.231 19.5904C118.381 20.3776 117.082 24.7072 119.719 26.2816C118.158 26.6228 114.846 27.8561 114.091 30.0602Z" fill="url(#paint9_linear_10569_2763)"/>
<path d="M114.091 30.0602C113.146 32.8155 118.145 34.5473 121.412 33.0123C124.508 33.7864 131.102 34.8701 132.708 33.0123C134.716 33.4059 139.234 33.6972 141.249 31.7134C143.821 32.3038 149.484 33.1304 151.562 31.7134C152.546 32.7761 158.253 31.7921 158.45 30.6507C158.647 29.5092 156.206 28.171 154.553 29.155C154.593 28.0135 151.404 26.754 150.578 28.4858C150.25 27.9086 149.373 26.9114 148.492 27.5412C149.987 24.1168 144.398 24.1168 142.037 26.754C141.643 24.904 139.321 23.92 138.219 24.9434C138.271 24.0381 137.983 22.2905 136.408 22.5424C137.746 21.4403 135.975 17.9766 133.377 19.0393C133.889 18.1734 131.724 15.5363 129.52 16.5596C129.638 15.5756 126.844 14.749 125.82 15.8511C124.6 14.1586 118.657 16.3628 120.231 19.5904C118.381 20.3776 117.082 24.7072 119.719 26.2816C118.158 26.6228 114.846 27.8561 114.091 30.0602Z" fill="url(#paint10_radial_10569_2763)"/>
<path d="M114.091 30.0602C113.146 32.8155 118.145 34.5473 121.412 33.0123C124.508 33.7864 131.102 34.8701 132.708 33.0123C134.716 33.4059 139.234 33.6972 141.249 31.7134C143.821 32.3038 149.484 33.1304 151.562 31.7134C152.546 32.7761 158.253 31.7921 158.45 30.6507C158.647 29.5092 156.206 28.171 154.553 29.155C154.593 28.0135 151.404 26.754 150.578 28.4858C150.25 27.9086 149.373 26.9114 148.492 27.5412C149.987 24.1168 144.398 24.1168 142.037 26.754C141.643 24.904 139.321 23.92 138.219 24.9434C138.271 24.0381 137.983 22.2905 136.408 22.5424C137.746 21.4403 135.975 17.9766 133.377 19.0393C133.889 18.1734 131.724 15.5363 129.52 16.5596C129.638 15.5756 126.844 14.749 125.82 15.8511C124.6 14.1586 118.657 16.3628 120.231 19.5904C118.381 20.3776 117.082 24.7072 119.719 26.2816C118.158 26.6228 114.846 27.8561 114.091 30.0602Z" fill="url(#paint11_radial_10569_2763)"/>
<path d="M114.091 30.0602C113.146 32.8155 118.145 34.5473 121.412 33.0123C124.508 33.7864 131.102 34.8701 132.708 33.0123C134.716 33.4059 139.234 33.6972 141.249 31.7134C143.821 32.3038 149.484 33.1304 151.562 31.7134C152.546 32.7761 158.253 31.7921 158.45 30.6507C158.647 29.5092 156.206 28.171 154.553 29.155C154.593 28.0135 151.404 26.754 150.578 28.4858C150.25 27.9086 149.373 26.9114 148.492 27.5412C149.987 24.1168 144.398 24.1168 142.037 26.754C141.643 24.904 139.321 23.92 138.219 24.9434C138.271 24.0381 137.983 22.2905 136.408 22.5424C137.746 21.4403 135.975 17.9766 133.377 19.0393C133.889 18.1734 131.724 15.5363 129.52 16.5596C129.638 15.5756 126.844 14.749 125.82 15.8511C124.6 14.1586 118.657 16.3628 120.231 19.5904C118.381 20.3776 117.082 24.7072 119.719 26.2816C118.158 26.6228 114.846 27.8561 114.091 30.0602Z" fill="url(#paint12_radial_10569_2763)"/>
<path d="M114.091 30.0602C113.146 32.8155 118.145 34.5473 121.412 33.0123C124.508 33.7864 131.102 34.8701 132.708 33.0123C134.716 33.4059 139.234 33.6972 141.249 31.7134C143.821 32.3038 149.484 33.1304 151.562 31.7134C152.546 32.7761 158.253 31.7921 158.45 30.6507C158.647 29.5092 156.206 28.171 154.553 29.155C154.593 28.0135 151.404 26.754 150.578 28.4858C150.25 27.9086 149.373 26.9114 148.492 27.5412C149.987 24.1168 144.398 24.1168 142.037 26.754C141.643 24.904 139.321 23.92 138.219 24.9434C138.271 24.0381 137.983 22.2905 136.408 22.5424C137.746 21.4403 135.975 17.9766 133.377 19.0393C133.889 18.1734 131.724 15.5363 129.52 16.5596C129.638 15.5756 126.844 14.749 125.82 15.8511C124.6 14.1586 118.657 16.3628 120.231 19.5904C118.381 20.3776 117.082 24.7072 119.719 26.2816C118.158 26.6228 114.846 27.8561 114.091 30.0602Z" fill="url(#paint13_radial_10569_2763)"/>
<path d="M125.065 23.7712C125.138 22.1667 130.062 22.1667 130.279 24.6537C131.51 22.9689 137.882 22.7283 138.823 26.3384C142.299 27.2208 139.765 31.1518 136.941 30.2694C135.275 31.6332 130.641 32.1145 128.107 30.2694C126.731 31.4727 121.662 31.5529 121.662 28.5044C120.721 27.3813 121.445 23.7712 125.065 23.7712Z" fill="url(#paint14_radial_10569_2763)"/>
<path d="M44.2272 28.4918C42.4711 28.3627 38.742 27.7946 37.8743 26.555C35.6276 26.0901 37.8743 24.3857 39.3463 25.1605C39.9145 24.4116 41.4691 23.2081 43.1425 24.3857C43.7107 23.611 45.0639 22.232 45.9316 22.9137C46.1124 21.7774 47.2177 19.5049 50.1926 19.5049C53.9114 19.5049 55.151 22.8363 53.524 24.3857C54.3504 24.8506 55.9412 26.1211 55.6933 27.4847C56.3905 27.3814 57.7851 27.5157 57.7851 28.8792C59.8769 29.2666 57.1653 32.2106 55.151 30.5836C51.9487 30.5836 45.2808 30.1653 44.2272 28.4918Z" fill="url(#paint15_linear_10569_2763)"/>
<path d="M44.2272 28.4918C42.4711 28.3627 38.742 27.7946 37.8743 26.555C35.6276 26.0901 37.8743 24.3857 39.3463 25.1605C39.9145 24.4116 41.4691 23.2081 43.1425 24.3857C43.7107 23.611 45.0639 22.232 45.9316 22.9137C46.1124 21.7774 47.2177 19.5049 50.1926 19.5049C53.9114 19.5049 55.151 22.8363 53.524 24.3857C54.3504 24.8506 55.9412 26.1211 55.6933 27.4847C56.3905 27.3814 57.7851 27.5157 57.7851 28.8792C59.8769 29.2666 57.1653 32.2106 55.151 30.5836C51.9487 30.5836 45.2808 30.1653 44.2272 28.4918Z" fill="url(#paint16_radial_10569_2763)"/>
<path d="M44.2272 28.4918C42.4711 28.3627 38.742 27.7946 37.8743 26.555C35.6276 26.0901 37.8743 24.3857 39.3463 25.1605C39.9145 24.4116 41.4691 23.2081 43.1425 24.3857C43.7107 23.611 45.0639 22.232 45.9316 22.9137C46.1124 21.7774 47.2177 19.5049 50.1926 19.5049C53.9114 19.5049 55.151 22.8363 53.524 24.3857C54.3504 24.8506 55.9412 26.1211 55.6933 27.4847C56.3905 27.3814 57.7851 27.5157 57.7851 28.8792C59.8769 29.2666 57.1653 32.2106 55.151 30.5836C51.9487 30.5836 45.2808 30.1653 44.2272 28.4918Z" fill="url(#paint17_radial_10569_2763)"/>
<path d="M44.2272 28.4918C42.4711 28.3627 38.742 27.7946 37.8743 26.555C35.6276 26.0901 37.8743 24.3857 39.3463 25.1605C39.9145 24.4116 41.4691 23.2081 43.1425 24.3857C43.7107 23.611 45.0639 22.232 45.9316 22.9137C46.1124 21.7774 47.2177 19.5049 50.1926 19.5049C53.9114 19.5049 55.151 22.8363 53.524 24.3857C54.3504 24.8506 55.9412 26.1211 55.6933 27.4847C56.3905 27.3814 57.7851 27.5157 57.7851 28.8792C59.8769 29.2666 57.1653 32.2106 55.151 30.5836C51.9487 30.5836 45.2808 30.1653 44.2272 28.4918Z" fill="url(#paint18_radial_10569_2763)"/>
<path d="M44.2272 28.4918C42.4711 28.3627 38.742 27.7946 37.8743 26.555C35.6276 26.0901 37.8743 24.3857 39.3463 25.1605C39.9145 24.4116 41.4691 23.2081 43.1425 24.3857C43.7107 23.611 45.0639 22.232 45.9316 22.9137C46.1124 21.7774 47.2177 19.5049 50.1926 19.5049C53.9114 19.5049 55.151 22.8363 53.524 24.3857C54.3504 24.8506 55.9412 26.1211 55.6933 27.4847C56.3905 27.3814 57.7851 27.5157 57.7851 28.8792C59.8769 29.2666 57.1653 32.2106 55.151 30.5836C51.9487 30.5836 45.2808 30.1653 44.2272 28.4918Z" fill="url(#paint19_radial_10569_2763)"/>
<path d="M44.4133 27.548C44.2019 28.5551 47.2568 29.3416 47.7889 27.8333C48.2833 29.0752 52.1985 30.2425 53.3593 28.153C55.6567 28.1607 54.7123 25.317 52.8192 25.4133C52.0038 24.3011 49.2055 23.2622 47.3383 24.0021C46.677 23.0357 43.5449 22.1762 43.0579 24.0677C42.2945 24.6141 42.167 26.9696 44.4133 27.548Z" fill="url(#paint20_radial_10569_2763)"/>
<path d="M95.0439 32.5373C94.0072 32.4077 92.0505 32.5567 92.517 34.1895H108.456C108.164 33.6387 107.435 32.2164 105.88 33.0717C105.88 32.0513 104.947 31.1184 103.548 32.0513C104.325 30.2047 102.469 28.3584 100.292 29.5246C100.389 27.8724 96.3072 27.4835 96.5988 30.1563C95.6755 29.5246 93.4888 30.8852 95.0439 32.5373Z" fill="url(#paint21_linear_10569_2763)"/>
<path d="M95.0439 32.5373C94.0072 32.4077 92.0505 32.5567 92.517 34.1895H108.456C108.164 33.6387 107.435 32.2164 105.88 33.0717C105.88 32.0513 104.947 31.1184 103.548 32.0513C104.325 30.2047 102.469 28.3584 100.292 29.5246C100.389 27.8724 96.3072 27.4835 96.5988 30.1563C95.6755 29.5246 93.4888 30.8852 95.0439 32.5373Z" fill="url(#paint22_radial_10569_2763)"/>
<path d="M95.0439 32.5373C94.0072 32.4077 92.0505 32.5567 92.517 34.1895H108.456C108.164 33.6387 107.435 32.2164 105.88 33.0717C105.88 32.0513 104.947 31.1184 103.548 32.0513C104.325 30.2047 102.469 28.3584 100.292 29.5246C100.389 27.8724 96.3072 27.4835 96.5988 30.1563C95.6755 29.5246 93.4888 30.8852 95.0439 32.5373Z" fill="url(#paint23_radial_10569_2763)"/>
<path d="M95.0439 32.5373C94.0072 32.4077 92.0505 32.5567 92.517 34.1895H108.456C108.164 33.6387 107.435 32.2164 105.88 33.0717C105.88 32.0513 104.947 31.1184 103.548 32.0513C104.325 30.2047 102.469 28.3584 100.292 29.5246C100.389 27.8724 96.3072 27.4835 96.5988 30.1563C95.6755 29.5246 93.4888 30.8852 95.0439 32.5373Z" fill="url(#paint24_radial_10569_2763)"/>
<path d="M95.0439 32.5373C94.0072 32.4077 92.0505 32.5567 92.517 34.1895H108.456C108.164 33.6387 107.435 32.2164 105.88 33.0717C105.88 32.0513 104.947 31.1184 103.548 32.0513C104.325 30.2047 102.469 28.3584 100.292 29.5246C100.389 27.8724 96.3072 27.4835 96.5988 30.1563C95.6755 29.5246 93.4888 30.8852 95.0439 32.5373Z" fill="url(#paint25_radial_10569_2763)"/>
<path d="M236.117 65.9763C236.403 54.8158 199.169 49.8257 183.072 49.3901C174.962 59.5149 25.297 52.3297 16.0811 90.8695C6.86529 129.409 188.657 120.793 211.695 105.385C234.732 89.9782 200.692 92.29 205.523 84.2057C210.353 76.1213 235.831 77.1368 236.117 65.9763Z" fill="url(#paint26_radial_10569_2763)"/>
<path d="M236.117 65.9763C236.403 54.8158 199.169 49.8257 183.072 49.3901C174.962 59.5149 25.297 52.3297 16.0811 90.8695C6.86529 129.409 188.657 120.793 211.695 105.385C234.732 89.9782 200.692 92.29 205.523 84.2057C210.353 76.1213 235.831 77.1368 236.117 65.9763Z" fill="url(#paint27_radial_10569_2763)"/>
<path d="M220.851 55.0264C229.68 57.6596 236.237 61.2682 236.117 65.9762C235.853 76.1713 215.775 81.2539 207.212 82.3052C200.44 83.1366 193.297 83.8738 186.407 84.7092C164.056 87.4191 139.668 102.427 138.558 117.651C126.055 118.304 113.019 118.563 100.31 118.325C88.7758 89.4892 124.109 75.9802 171.763 74.8575C214.998 73.8389 227.608 65.9122 220.851 55.0264Z" fill="url(#paint28_linear_10569_2763)"/>
<path d="M220.851 55.0264C229.68 57.6596 236.237 61.2682 236.117 65.9762C235.853 76.1713 215.775 81.2539 207.212 82.3052C200.44 83.1366 193.297 83.8738 186.407 84.7092C164.056 87.4191 139.668 102.427 138.558 117.651C126.055 118.304 113.019 118.563 100.31 118.325C88.7758 89.4892 124.109 75.9802 171.763 74.8575C214.998 73.8389 227.608 65.9122 220.851 55.0264Z" fill="url(#paint29_radial_10569_2763)"/>
<path d="M105.992 52.9927C120.018 51.3229 162.205 41.271 179.125 37.6084L179.125 51.6348C170.706 58.3201 130.842 56.0472 111.962 56.6662L105.992 52.9927Z" fill="#47332B"/>
<path d="M163.01 46.0375C167.449 44.252 170.746 58.4084 166.706 64.02H9.79064C9.79064 54.2231 6.77325 28.5657 21.2882 31.4984C22.0721 28.5651 32.1325 29.0753 33.5697 34.4318C34.2229 31.3709 41.6702 33.4115 42.5848 36.5999C43.63 35.3245 48.3335 36.7274 48.3335 39.1506C55.1275 36.3448 67.1477 41.5738 68.0623 44.8897C68.4542 43.7419 71.8512 44.8897 71.8512 46.0375C73.2884 44.8897 81.1276 44.8897 82.9568 48.8433C82.9568 47.1853 86.7457 46.0375 87.9216 49.481C88.7055 47.6955 95.6302 47.1853 97.0674 49.481C102.555 41.4462 114.314 46.0375 115.62 48.8433C116.273 45.7824 124.635 44.8897 126.203 48.2056C126.334 46.0375 133.258 44.8897 135.088 47.1853C135.218 45.1447 141.49 41.0636 144.887 44.8897C145.279 43.7419 149.852 42.594 150.766 46.0375C152.134 42.9374 161.306 40.1013 163.01 46.0375Z" fill="url(#paint30_linear_10569_2763)"/>
<path d="M163.01 46.0375C167.449 44.252 170.746 58.4084 166.706 64.02H9.79064C9.79064 54.2231 6.77325 28.5657 21.2882 31.4984C22.0721 28.5651 32.1325 29.0753 33.5697 34.4318C34.2229 31.3709 41.6702 33.4115 42.5848 36.5999C43.63 35.3245 48.3335 36.7274 48.3335 39.1506C55.1275 36.3448 67.1477 41.5738 68.0623 44.8897C68.4542 43.7419 71.8512 44.8897 71.8512 46.0375C73.2884 44.8897 81.1276 44.8897 82.9568 48.8433C82.9568 47.1853 86.7457 46.0375 87.9216 49.481C88.7055 47.6955 95.6302 47.1853 97.0674 49.481C102.555 41.4462 114.314 46.0375 115.62 48.8433C116.273 45.7824 124.635 44.8897 126.203 48.2056C126.334 46.0375 133.258 44.8897 135.088 47.1853C135.218 45.1447 141.49 41.0636 144.887 44.8897C145.279 43.7419 149.852 42.594 150.766 46.0375C152.134 42.9374 161.306 40.1013 163.01 46.0375Z" fill="url(#paint31_radial_10569_2763)"/>
<path d="M163.01 46.0375C167.449 44.252 170.746 58.4084 166.706 64.02H9.79064C9.79064 54.2231 6.77325 28.5657 21.2882 31.4984C22.0721 28.5651 32.1325 29.0753 33.5697 34.4318C34.2229 31.3709 41.6702 33.4115 42.5848 36.5999C43.63 35.3245 48.3335 36.7274 48.3335 39.1506C55.1275 36.3448 67.1477 41.5738 68.0623 44.8897C68.4542 43.7419 71.8512 44.8897 71.8512 46.0375C73.2884 44.8897 81.1276 44.8897 82.9568 48.8433C82.9568 47.1853 86.7457 46.0375 87.9216 49.481C88.7055 47.6955 95.6302 47.1853 97.0674 49.481C102.555 41.4462 114.314 46.0375 115.62 48.8433C116.273 45.7824 124.635 44.8897 126.203 48.2056C126.334 46.0375 133.258 44.8897 135.088 47.1853C135.218 45.1447 141.49 41.0636 144.887 44.8897C145.279 43.7419 149.852 42.594 150.766 46.0375C152.134 42.9374 161.306 40.1013 163.01 46.0375Z" fill="url(#paint32_radial_10569_2763)"/>
<path d="M185.664 54.5913H199.676V57.175H185.664V54.5913Z" fill="url(#paint33_linear_10569_2763)"/>
<path d="M184.805 58.8823H198.816V61.466H184.805V58.8823Z" fill="url(#paint34_linear_10569_2763)"/>
<path d="M180.368 63.1709H194.38V65.7546H180.368V63.1709Z" fill="url(#paint35_linear_10569_2763)"/>
<path d="M173.261 67.4595H187.272V70.0432H173.261V67.4595Z" fill="url(#paint36_linear_10569_2763)"/>
<path d="M177.967 18.7725H206.105V38.1773H177.967V18.7725Z" fill="url(#paint37_linear_10569_2763)"/>
<path d="M177.967 18.7725H206.105V38.1773H177.967V18.7725Z" fill="url(#paint38_linear_10569_2763)"/>
<path d="M177.967 18.7725H206.105V38.1773H177.967V18.7725Z" fill="url(#paint39_radial_10569_2763)"/>
<path d="M171.007 18.7725H174.508V38.1773H171.007V18.7725Z" fill="url(#paint40_linear_10569_2763)"/>
<path d="M171.007 18.7725H174.508V38.1773H171.007V18.7725Z" fill="url(#paint41_radial_10569_2763)"/>
<path d="M171.007 18.7725H174.508V38.1773H171.007V18.7725Z" fill="url(#paint42_linear_10569_2763)"/>
<path d="M171.007 18.7725H174.508V38.1773H171.007V18.7725Z" fill="url(#paint43_linear_10569_2763)"/>
<path d="M173.45 18.7725H181.799V38.1773H173.45V18.7725Z" fill="url(#paint44_linear_10569_2763)"/>
<path d="M173.45 18.7725H181.799V38.1773H173.45V18.7725Z" fill="url(#paint45_linear_10569_2763)"/>
<path d="M203.345 18.7725H206.847V38.1773H203.345V18.7725Z" fill="url(#paint46_linear_10569_2763)"/>
<path d="M203.345 18.7725H206.847V38.1773H203.345V18.7725Z" fill="url(#paint47_radial_10569_2763)"/>
<path d="M203.345 18.7725H206.847V38.1773H203.345V18.7725Z" fill="url(#paint48_linear_10569_2763)"/>
<path d="M180.808 18.7725H184.309V38.1773H180.808V18.7725Z" fill="url(#paint49_linear_10569_2763)"/>
<path d="M180.808 18.7725H184.309V38.1773H180.808V18.7725Z" fill="url(#paint50_radial_10569_2763)"/>
<path d="M180.808 18.7725H184.309V38.1773H180.808V18.7725Z" fill="url(#paint51_linear_10569_2763)"/>
<path d="M201.54 7.02686H177.275C177.275 7.02686 176.559 17.3571 163.344 17.3571V19.2199C163.344 22.0543 194.949 19.6801 194.949 19.6801C200.709 18.1366 201.54 7.02686 201.54 7.02686Z" fill="url(#paint52_linear_10569_2763)"/>
<path d="M201.54 7.02686H177.275C177.275 7.02686 176.559 17.3571 163.344 17.3571V19.2199C163.344 22.0543 194.949 19.6801 194.949 19.6801C200.709 18.1366 201.54 7.02686 201.54 7.02686Z" fill="url(#paint53_linear_10569_2763)"/>
<path d="M177.834 7.02686H202.235C202.235 7.02686 202.046 16.7165 217.03 14.6717V16.7165C217.03 22.1396 187.227 20.0558 187.227 20.0558C180.715 18.6365 177.834 7.02686 177.834 7.02686Z" fill="url(#paint54_linear_10569_2763)"/>
<path d="M177.834 7.02686H202.235C202.235 7.02686 202.046 16.7165 217.03 14.6717V16.7165C217.03 22.1396 187.227 20.0558 187.227 20.0558C180.715 18.6365 177.834 7.02686 177.834 7.02686Z" fill="url(#paint55_linear_10569_2763)"/>
<path d="M170.255 36.3369H208.871V44.6024H170.255V36.3369Z" fill="url(#paint56_linear_10569_2763)"/>
<path d="M170.238 41.7212H208.869L210.37 52.5853H168.858L170.238 41.7212Z" fill="url(#paint57_linear_10569_2763)"/>
<path d="M170.238 41.7212H208.869L210.37 52.5853H168.858L170.238 41.7212Z" fill="url(#paint58_radial_10569_2763)"/>
<path d="M97.3569 50.9416C134.601 53.5869 169.779 56.8205 185.664 44.7114V55.5891C185.664 67.9374 153.319 76.4674 106.162 76.4674C59.0058 76.4674 23.5836 91.0948 0.00341797 98.2781V47.6191C25.6107 41.5399 60.1132 48.2963 97.3569 50.9416Z" fill="url(#paint59_linear_10569_2763)"/>
<path d="M97.3569 50.9416C134.601 53.5869 169.779 56.8205 185.664 44.7114V55.5891C185.664 67.9374 153.319 76.4674 106.162 76.4674C59.0058 76.4674 23.5836 91.0948 0.00341797 98.2781V47.6191C25.6107 41.5399 60.1132 48.2963 97.3569 50.9416Z" fill="url(#paint60_radial_10569_2763)"/>
<path d="M97.3569 50.9416C134.601 53.5869 169.779 56.8205 185.664 44.7114V55.5891C185.664 67.9374 153.319 76.4674 106.162 76.4674C59.0058 76.4674 23.5836 91.0948 0.00341797 98.2781V47.6191C25.6107 41.5399 60.1132 48.2963 97.3569 50.9416Z" fill="url(#paint61_radial_10569_2763)"/>
<path d="M97.3569 50.9416C134.601 53.5869 169.779 56.8205 185.664 44.7114V55.5891C185.664 67.9374 153.319 76.4674 106.162 76.4674C59.0058 76.4674 23.5836 91.0948 0.00341797 98.2781V47.6191C25.6107 41.5399 60.1132 48.2963 97.3569 50.9416Z" fill="url(#paint62_radial_10569_2763)"/>
<path d="M97.3569 50.9416C134.601 53.5869 169.779 56.8205 185.664 44.7114V55.5891C185.664 67.9374 153.319 76.4674 106.162 76.4674C59.0058 76.4674 23.5836 91.0948 0.00341797 98.2781V47.6191C25.6107 41.5399 60.1132 48.2963 97.3569 50.9416Z" fill="url(#paint63_radial_10569_2763)"/>
<path d="M97.3569 50.9416C134.601 53.5869 169.779 56.8205 185.664 44.7114V55.5891C185.664 67.9374 153.319 76.4674 106.162 76.4674C59.0058 76.4674 23.5836 91.0948 0.00341797 98.2781V47.6191C25.6107 41.5399 60.1132 48.2963 97.3569 50.9416Z" fill="url(#paint64_radial_10569_2763)"/>
<path d="M97.3569 50.9416C134.601 53.5869 169.779 56.8205 185.664 44.7114V55.5891C185.664 67.9374 153.319 76.4674 106.162 76.4674C59.0058 76.4674 23.5836 91.0948 0.00341797 98.2781V47.6191C25.6107 41.5399 60.1132 48.2963 97.3569 50.9416Z" fill="url(#paint65_radial_10569_2763)"/>
<path d="M185.671 47.9839C179.755 60.2949 154.764 62.2492 106.966 62.2492C51.6448 62.2493 19.4092 65.7365 0.00109863 74.4367V53.3294H0.00560584V71.8992C19.5823 63.1998 52.0958 59.7162 107.895 59.7162C152.589 59.7162 177.516 58.0366 185.671 47.9839Z" fill="url(#paint66_linear_10569_2763)"/>
<path d="M24.7006 54.2918C27.3727 53.9756 30.1725 53.7051 33.1066 53.476V45.345C34.3467 45.3954 35.5967 45.4563 36.8566 45.5252V53.2101C39.5479 53.0395 42.3468 52.9041 45.258 52.7999V46.0841C46.5002 46.1818 47.7499 46.291 49.008 46.3996V52.6962C51.7145 52.6273 54.5137 52.5864 57.4095 52.57V47.1704C58.6532 47.2922 59.9029 47.4223 61.1595 47.549V52.552C63.8773 52.5572 66.6769 52.5806 69.5609 52.6286V48.4009C70.8054 48.5286 72.0561 48.6474 73.3109 48.7749V52.7143C76.0392 52.7753 78.8405 52.8518 81.7169 52.9486V49.6088C82.9627 49.7277 84.2127 49.8461 85.4669 49.9603V53.0839C88.201 53.188 91.0009 53.3055 93.8683 53.4399V50.668C95.0287 50.7583 96.1909 50.8601 97.3569 50.9429C97.444 50.9491 97.5312 50.9548 97.6183 50.961V53.6157C100.358 53.7538 103.158 53.9067 106.02 54.0709V51.5604C107.274 51.6504 108.524 51.7385 109.77 51.8263V54.2783C152.507 56.7178 176.726 56.3701 185.662 47.238V47.3867C184.856 48.687 183.814 49.8364 182.548 50.8663C178.793 53.5532 173.285 55.4518 165.912 56.7798C153.205 58.6219 134.716 58.2208 109.77 56.8158V59.714L106.02 59.723V56.6085C103.159 56.4419 100.358 56.2937 97.6183 56.1533V59.7591C96.3554 59.7697 95.1055 59.7939 93.8683 59.8086V55.9685C91.0008 55.8315 88.201 55.7054 85.4669 55.5989V59.9438C84.2026 59.9701 82.9527 59.9983 81.7169 60.0295V55.4682C78.8404 55.3688 76.0392 55.2883 73.3109 55.2248V60.2909C72.045 60.3373 70.7949 60.3783 69.5609 60.4306V55.1391C66.6769 55.0885 63.8773 55.0567 61.1595 55.049V60.8543C59.8912 60.9271 58.6415 61.0085 57.4095 61.0887V55.067C54.5135 55.0808 51.7145 55.1223 49.008 55.1887V61.7152C47.7372 61.8236 46.487 61.9308 45.258 62.0487V55.2879C42.3467 55.3895 39.5478 55.5208 36.8566 55.689V62.9637C35.5814 63.1224 34.332 63.2927 33.1066 63.464V55.9504C30.1721 56.1771 27.3727 56.452 24.7006 56.7663V64.8026C23.4197 65.0359 22.1705 65.282 20.9506 65.5328V57.244C17.9865 57.6584 15.1902 58.1369 12.5492 58.6728V67.525C11.2589 67.878 10.0105 68.2496 8.79918 68.6293V59.4976C5.63254 60.255 2.71093 61.1207 0.00561523 62.0803V59.6238C2.71159 58.664 5.63266 57.7951 8.79918 57.0367V46.0571C10.033 45.9022 11.2828 45.7637 12.5492 45.6514V56.2119C15.1904 55.6747 17.9868 55.1949 20.9506 54.7786V45.1962C22.188 45.1676 23.4382 45.1603 24.7006 45.1602V54.2918Z" fill="url(#paint67_radial_10569_2763)"/>
<defs>
<linearGradient id="paint0_linear_10569_2763" x1="123.661" y1="59.258" x2="132.022" y2="-1.19961" gradientUnits="userSpaceOnUse">
<stop offset="0.301444" stop-color="#FBB2A0"/>
<stop offset="1" stop-color="#A4AAD5"/>
</linearGradient>
<radialGradient id="paint1_radial_10569_2763" cx="0" cy="0" r="1" gradientUnits="userSpaceOnUse" gradientTransform="translate(122.308 39.2319) rotate(-1.27303) scale(103.872 51.4416)">
<stop offset="0.259257" stop-color="#FFDF97"/>
<stop offset="0.774038" stop-color="#FFAA90" stop-opacity="0"/>
</radialGradient>
<linearGradient id="paint2_linear_10569_2763" x1="57.6924" y1="4.61655" x2="78.4616" y2="64.6166" gradientUnits="userSpaceOnUse">
<stop stop-color="#6697E5"/>
<stop offset="1" stop-color="#8C5CD8" stop-opacity="0"/>
</linearGradient>
<linearGradient id="paint3_linear_10569_2763" x1="71.8653" y1="4.64651" x2="82.3429" y2="27.2037" gradientUnits="userSpaceOnUse">
<stop stop-color="#CB947B"/>
<stop offset="1" stop-color="#9FAFC0"/>
</linearGradient>
<radialGradient id="paint4_radial_10569_2763" cx="0" cy="0" r="1" gradientTransform="matrix(-18.4319 -13.6694 4.28378 -15.4791 79.6432 30.0271)" gradientUnits="userSpaceOnUse">
<stop offset="0.349608" stop-color="#FE8401" stop-opacity="0"/>
<stop offset="0.740952" stop-color="#FE8401" stop-opacity="0.421892"/>
<stop offset="1" stop-color="#FE8401"/>
</radialGradient>
<radialGradient id="paint5_radial_10569_2763" cx="0" cy="0" r="1" gradientTransform="matrix(-2.54189 11.386 -13.9144 -8.32427 80.7087 14.7628)" gradientUnits="userSpaceOnUse">
<stop offset="0.257741" stop-color="#FFE4BE"/>
<stop offset="1" stop-color="#FFE4BE" stop-opacity="0"/>
</radialGradient>
<radialGradient id="paint6_radial_10569_2763" cx="0" cy="0" r="1" gradientTransform="matrix(-19.6048 -15.3488 9.37621 -32.093 81.6677 33.2511)" gradientUnits="userSpaceOnUse">
<stop offset="0.729038" stop-color="#FFE4BE" stop-opacity="0"/>
<stop offset="1" stop-color="#FFE4BE"/>
</radialGradient>
<radialGradient id="paint7_radial_10569_2763" cx="0" cy="0" r="1" gradientTransform="matrix(20.1375 -2.09302 0.379882 9.7944 74.6355 31.1581)" gradientUnits="userSpaceOnUse">
<stop offset="0.132497" stop-color="#5D609C"/>
<stop offset="1" stop-color="#A17B5B" stop-opacity="0"/>
</radialGradient>
<radialGradient id="paint8_radial_10569_2763" cx="0" cy="0" r="1" gradientTransform="matrix(-15.6043 -6.14853 2.72316 -7.81864 80.6917 21.3033)" gradientUnits="userSpaceOnUse">
<stop offset="0.216346" stop-color="#EFAC75" stop-opacity="0"/>
<stop offset="0.581731" stop-color="#AA8884" stop-opacity="0.587451"/>
<stop offset="1" stop-color="#796E8E"/>
</radialGradient>
<linearGradient id="paint9_linear_10569_2763" x1="129.717" y1="11.1279" x2="136.218" y2="34.0381" gradientUnits="userSpaceOnUse">
<stop stop-color="#CB947B"/>
<stop offset="1" stop-color="#9FAFC0"/>
</linearGradient>
<radialGradient id="paint10_radial_10569_2763" cx="0" cy="0" r="1" gradientUnits="userSpaceOnUse" gradientTransform="translate(141.21 34.0381) rotate(-155.628) scale(29.9008 15.3394)">
<stop offset="0.349608" stop-color="#FE8401" stop-opacity="0"/>
<stop offset="0.740952" stop-color="#FE8401" stop-opacity="0.421892"/>
<stop offset="1" stop-color="#FE8401"/>
</radialGradient>
<radialGradient id="paint11_radial_10569_2763" cx="0" cy="0" r="1" gradientUnits="userSpaceOnUse" gradientTransform="translate(142.784 20.2595) rotate(110.075) scale(10.9426 21.8908)">
<stop offset="0.257741" stop-color="#FFE4BE"/>
<stop offset="1" stop-color="#FFE4BE" stop-opacity="0"/>
</radialGradient>
<radialGradient id="paint12_radial_10569_2763" cx="0" cy="0" r="1" gradientUnits="userSpaceOnUse" gradientTransform="translate(144.201 36.9483) rotate(-154.44) scale(32.1119 32.1119)">
<stop offset="0.729038" stop-color="#FFE4BE" stop-opacity="0"/>
<stop offset="1" stop-color="#FFE4BE"/>
</radialGradient>
<radialGradient id="paint13_radial_10569_2763" cx="0" cy="0" r="1" gradientUnits="userSpaceOnUse" gradientTransform="translate(133.81 35.059) rotate(-3.63295) scale(29.8164 8.85888)">
<stop offset="0.132497" stop-color="#5D609C"/>
<stop offset="1" stop-color="#A17B5B" stop-opacity="0"/>
</radialGradient>
<radialGradient id="paint14_radial_10569_2763" cx="0" cy="0" r="1" gradientTransform="matrix(18.7356 -0.157442 0.449311 9.23802 128.298 29.7066)" gradientUnits="userSpaceOnUse">
<stop stop-color="#EFAC75" stop-opacity="0"/>
<stop offset="0.437721" stop-color="#AA8884" stop-opacity="0.587451"/>
<stop offset="1" stop-color="#796E8E"/>
</radialGradient>
<linearGradient id="paint15_linear_10569_2763" x1="44.5726" y1="16.9554" x2="49.4306" y2="30.4586" gradientUnits="userSpaceOnUse">
<stop stop-color="#CB947B"/>
<stop offset="1" stop-color="#9FAFC0"/>
</linearGradient>
<radialGradient id="paint16_radial_10569_2763" cx="0" cy="0" r="1" gradientTransform="matrix(-13.2341 -7.60181 3.07574 -8.60819 50.1572 31.07)" gradientUnits="userSpaceOnUse">
<stop offset="0.349608" stop-color="#FE8401" stop-opacity="0"/>
<stop offset="0.740952" stop-color="#FE8401" stop-opacity="0.421892"/>
<stop offset="1" stop-color="#FE8401"/>
</radialGradient>
<radialGradient id="paint17_radial_10569_2763" cx="0" cy="0" r="1" gradientTransform="matrix(-1.82507 6.33196 -9.99051 -4.62928 50.9222 22.5812)" gradientUnits="userSpaceOnUse">
<stop offset="0.257741" stop-color="#FFE4BE"/>
<stop offset="1" stop-color="#FFE4BE" stop-opacity="0"/>
</radialGradient>
<radialGradient id="paint18_radial_10569_2763" cx="0" cy="0" r="1" gradientTransform="matrix(-14.0762 -8.53577 6.73209 -17.8475 51.6107 32.863)" gradientUnits="userSpaceOnUse">
<stop offset="0.729038" stop-color="#FFE4BE" stop-opacity="0"/>
<stop offset="1" stop-color="#FFE4BE"/>
</radialGradient>
<radialGradient id="paint19_radial_10569_2763" cx="0" cy="0" r="1" gradientTransform="matrix(14.4587 -1.16397 0.272754 5.44685 46.5616 31.699)" gradientUnits="userSpaceOnUse">
<stop offset="0.132497" stop-color="#5D609C"/>
<stop offset="1" stop-color="#A17B5B" stop-opacity="0"/>
</radialGradient>
<radialGradient id="paint20_radial_10569_2763" cx="0" cy="0" r="1" gradientTransform="matrix(11.5992 3.09069 1.75455 -5.65986 47.3673 24.3819)" gradientUnits="userSpaceOnUse">
<stop offset="0.216346" stop-color="#EFAC75" stop-opacity="0"/>
<stop offset="0.581731" stop-color="#AA8884" stop-opacity="0.587451"/>
<stop offset="1" stop-color="#796E8E"/>
</radialGradient>
<linearGradient id="paint21_linear_10569_2763" x1="98.1116" y1="26.9007" x2="99.9703" y2="34.3101" gradientUnits="userSpaceOnUse">
<stop stop-color="#CB947B"/>
<stop offset="1" stop-color="#9FAFC0"/>
</linearGradient>
<radialGradient id="paint22_radial_10569_2763" cx="0" cy="0" r="1" gradientTransform="matrix(-9.80134 -3.92555 2.27794 -4.44525 102.248 34.1895)" gradientUnits="userSpaceOnUse">
<stop offset="0.349608" stop-color="#FE8401" stop-opacity="0"/>
<stop offset="0.740952" stop-color="#FE8401" stop-opacity="0.421892"/>
<stop offset="1" stop-color="#FE8401"/>
</radialGradient>
<radialGradient id="paint23_radial_10569_2763" cx="0" cy="0" r="1" gradientTransform="matrix(-1.35167 3.26981 -7.39911 -2.39055 102.814 29.8059)" gradientUnits="userSpaceOnUse">
<stop offset="0.257741" stop-color="#FFE4BE"/>
<stop offset="1" stop-color="#FFE4BE" stop-opacity="0"/>
</radialGradient>
<radialGradient id="paint24_radial_10569_2763" cx="0" cy="0" r="1" gradientTransform="matrix(-10.425 -4.40785 4.98588 -9.2164 103.324 35.1154)" gradientUnits="userSpaceOnUse">
<stop offset="0.729038" stop-color="#FFE4BE" stop-opacity="0"/>
<stop offset="1" stop-color="#FFE4BE"/>
</radialGradient>
<radialGradient id="paint25_radial_10569_2763" cx="0" cy="0" r="1" gradientTransform="matrix(10.7083 -0.601069 0.202006 2.81274 99.5847 34.5143)" gradientUnits="userSpaceOnUse">
<stop offset="0.132497" stop-color="#5D609C"/>
<stop offset="1" stop-color="#A17B5B" stop-opacity="0"/>
</radialGradient>
<radialGradient id="paint26_radial_10569_2763" cx="0" cy="0" r="1" gradientTransform="matrix(12.9967 69.1335 -173.452 25.5972 112.934 56.8213)" gradientUnits="userSpaceOnUse">
<stop offset="0.32304" stop-color="#A5C0A9"/>
<stop offset="0.98083" stop-color="#1B5506"/>
</radialGradient>
<radialGradient id="paint27_radial_10569_2763" cx="0" cy="0" r="1" gradientTransform="matrix(-132.548 26.0688 -10.2055 -40.7337 113.511 65.3831)" gradientUnits="userSpaceOnUse">
<stop offset="0.234939" stop-color="#C8D347"/>
<stop offset="0.711589" stop-color="#C8D347" stop-opacity="0"/>
</radialGradient>
<linearGradient id="paint28_linear_10569_2763" x1="169.92" y1="48.9095" x2="193.508" y2="102.372" gradientUnits="userSpaceOnUse">
<stop stop-color="#24201F"/>
<stop offset="1" stop-color="#7D6863"/>
</linearGradient>
<radialGradient id="paint29_radial_10569_2763" cx="0" cy="0" r="1" gradientTransform="matrix(-83.0769 19.4238 -10.3448 -34.7322 197.02 105.762)" gradientUnits="userSpaceOnUse">
<stop offset="0.479892" stop-color="#58854F"/>
<stop offset="0.9867" stop-color="#58854F" stop-opacity="0"/>
</radialGradient>
<linearGradient id="paint30_linear_10569_2763" x1="90.8654" y1="29.7207" x2="89.0321" y2="55.9707" gradientUnits="userSpaceOnUse">
<stop stop-color="#4C9116"/>
<stop offset="1" stop-color="#0F3F20"/>
</linearGradient>
<radialGradient id="paint31_radial_10569_2763" cx="0" cy="0" r="1" gradientUnits="userSpaceOnUse" gradientTransform="translate(54.6348 33.8178) rotate(11.489) scale(43.153 13.7326)">
<stop offset="0.134583" stop-color="#C8D347" stop-opacity="0.5"/>
<stop offset="1" stop-color="#C8D347" stop-opacity="0"/>
</radialGradient>
<radialGradient id="paint32_radial_10569_2763" cx="0" cy="0" r="1" gradientUnits="userSpaceOnUse" gradientTransform="translate(136.457 42.7539) rotate(178.863) scale(42.2307 9.21918)">
<stop offset="0.0982653" stop-color="#C8D347" stop-opacity="0.5"/>
<stop offset="1" stop-color="#C8D347" stop-opacity="0"/>
</radialGradient>
<linearGradient id="paint33_linear_10569_2763" x1="191.107" y1="57.175" x2="191.107" y2="52.8582" gradientUnits="userSpaceOnUse">
<stop offset="0.129808" stop-color="#FFE5B5"/>
<stop offset="0.572115" stop-color="#70A267"/>
</linearGradient>
<linearGradient id="paint34_linear_10569_2763" x1="190.247" y1="61.466" x2="190.247" y2="57.1492" gradientUnits="userSpaceOnUse">
<stop offset="0.129808" stop-color="#FFE5B5"/>
<stop offset="0.572115" stop-color="#70A267"/>
</linearGradient>
<linearGradient id="paint35_linear_10569_2763" x1="185.811" y1="65.7546" x2="185.811" y2="61.4378" gradientUnits="userSpaceOnUse">
<stop offset="0.129808" stop-color="#FFE5B5"/>
<stop offset="0.572115" stop-color="#70A267"/>
</linearGradient>
<linearGradient id="paint36_linear_10569_2763" x1="178.703" y1="70.0432" x2="178.703" y2="65.7263" gradientUnits="userSpaceOnUse">
<stop offset="0.129808" stop-color="#FFE5B5"/>
<stop offset="0.572115" stop-color="#70A267"/>
</linearGradient>
<linearGradient id="paint37_linear_10569_2763" x1="186.558" y1="16.258" x2="216.53" y2="64.515" gradientUnits="userSpaceOnUse">
<stop stop-color="#6B5742"/>
<stop offset="1" stop-color="#F0D79F"/>
</linearGradient>
<linearGradient id="paint38_linear_10569_2763" x1="192.036" y1="19.4306" x2="192.036" y2="23.6051" gradientUnits="userSpaceOnUse">
<stop offset="0.222222" stop-color="#372B2C"/>
<stop offset="1" stop-color="#C58164" stop-opacity="0"/>
</linearGradient>
<radialGradient id="paint39_radial_10569_2763" cx="0" cy="0" r="1" gradientUnits="userSpaceOnUse" gradientTransform="translate(199.081 39.1341) rotate(-127.439) scale(20.1888 14.9588)">
<stop stop-color="#FFDEA2"/>
<stop offset="1" stop-color="#FFDD9E" stop-opacity="0"/>
</radialGradient>
<linearGradient id="paint40_linear_10569_2763" x1="175.427" y1="26.1098" x2="168.831" y2="26.1098" gradientUnits="userSpaceOnUse">
<stop stop-color="#CA522D"/>
<stop offset="0.495192" stop-color="#FF6826"/>
<stop offset="1" stop-color="#EF8446"/>
</linearGradient>
<radialGradient id="paint41_radial_10569_2763" cx="0" cy="0" r="1" gradientUnits="userSpaceOnUse" gradientTransform="translate(172.338 36.212) rotate(-90) scale(15.9465 1.67297)">
<stop stop-color="#FFDEA2" stop-opacity="0.7"/>
<stop offset="1" stop-color="#FFDD9E" stop-opacity="0"/>
</radialGradient>
<linearGradient id="paint42_linear_10569_2763" x1="174.508" y1="29.1154" x2="171.53" y2="29.1154" gradientUnits="userSpaceOnUse">
<stop stop-color="#3E1E12"/>
<stop offset="1" stop-color="#A44F31" stop-opacity="0"/>
</linearGradient>
<linearGradient id="paint43_linear_10569_2763" x1="172.758" y1="19.4306" x2="172.758" y2="23.6051" gradientUnits="userSpaceOnUse">
<stop offset="0.222222" stop-color="#372B2C"/>
<stop offset="1" stop-color="#C58164" stop-opacity="0"/>
</linearGradient>
<linearGradient id="paint44_linear_10569_2763" x1="173.45" y1="14.1351" x2="179.455" y2="43.3872" gradientUnits="userSpaceOnUse">
<stop stop-color="#6B5742"/>
<stop offset="1" stop-color="#F0D79F"/>
</linearGradient>
<linearGradient id="paint45_linear_10569_2763" x1="177.625" y1="18.7725" x2="177.625" y2="23.1386" gradientUnits="userSpaceOnUse">
<stop offset="0.222222" stop-color="#372B2C"/>
<stop offset="1" stop-color="#90563D" stop-opacity="0"/>
</linearGradient>
<linearGradient id="paint46_linear_10569_2763" x1="207.765" y1="26.1098" x2="201.169" y2="26.1098" gradientUnits="userSpaceOnUse">
<stop stop-color="#CA522D"/>
<stop offset="0.495192" stop-color="#FF6826"/>
<stop offset="1" stop-color="#EF8446"/>
</linearGradient>
<radialGradient id="paint47_radial_10569_2763" cx="0" cy="0" r="1" gradientUnits="userSpaceOnUse" gradientTransform="translate(204.676 36.212) rotate(-90) scale(15.9465 1.67297)">
<stop stop-color="#FFDEA2" stop-opacity="0.7"/>
<stop offset="1" stop-color="#FFDD9E" stop-opacity="0"/>
</radialGradient>
<linearGradient id="paint48_linear_10569_2763" x1="205.096" y1="19.4306" x2="205.096" y2="23.6051" gradientUnits="userSpaceOnUse">
<stop offset="0.222222" stop-color="#372B2C"/>
<stop offset="1" stop-color="#C58164" stop-opacity="0"/>
</linearGradient>
<linearGradient id="paint49_linear_10569_2763" x1="185.228" y1="26.1098" x2="178.632" y2="26.1098" gradientUnits="userSpaceOnUse">
<stop stop-color="#CA522D"/>
<stop offset="0.495192" stop-color="#FF6826"/>
<stop offset="1" stop-color="#EF8446"/>
</linearGradient>
<radialGradient id="paint50_radial_10569_2763" cx="0" cy="0" r="1" gradientUnits="userSpaceOnUse" gradientTransform="translate(182.138 36.212) rotate(-90) scale(15.9465 1.67297)">
<stop stop-color="#FFDEA2" stop-opacity="0.7"/>
<stop offset="1" stop-color="#FFDD9E" stop-opacity="0"/>
</radialGradient>
<linearGradient id="paint51_linear_10569_2763" x1="182.559" y1="19.4306" x2="182.559" y2="23.6051" gradientUnits="userSpaceOnUse">
<stop offset="0.222222" stop-color="#372B2C"/>
<stop offset="1" stop-color="#C58164" stop-opacity="0"/>
</linearGradient>
<linearGradient id="paint52_linear_10569_2763" x1="172.919" y1="7.02686" x2="172.919" y2="20.4797" gradientUnits="userSpaceOnUse">
<stop stop-color="#6A7E7F"/>
<stop offset="1" stop-color="#0A2D2B"/>
</linearGradient>
<linearGradient id="paint53_linear_10569_2763" x1="174.948" y1="22.4851" x2="175.121" y2="17.8433" gradientUnits="userSpaceOnUse">
<stop stop-color="#FFC964"/>
<stop offset="1" stop-color="#EC8436" stop-opacity="0"/>
</linearGradient>
<linearGradient id="paint54_linear_10569_2763" x1="208.108" y1="7.02686" x2="201.504" y2="20.4793" gradientUnits="userSpaceOnUse">
<stop stop-color="#6A7E7F"/>
<stop offset="1" stop-color="#0A2D2B"/>
</linearGradient>
<linearGradient id="paint55_linear_10569_2763" x1="205.762" y1="22.0178" x2="205.177" y2="15.5891" gradientUnits="userSpaceOnUse">
<stop stop-color="#FFC964"/>
<stop offset="1" stop-color="#EC8436" stop-opacity="0"/>
</linearGradient>
<linearGradient id="paint56_linear_10569_2763" x1="189.563" y1="36.3369" x2="191.617" y2="50.1845" gradientUnits="userSpaceOnUse">
<stop stop-color="#8C6456"/>
<stop offset="1" stop-color="#261B17"/>
</linearGradient>
<linearGradient id="paint57_linear_10569_2763" x1="199.53" y1="41.7212" x2="205.295" y2="58.3211" gradientUnits="userSpaceOnUse">
<stop stop-color="#8C6456"/>
<stop offset="1" stop-color="#261B17"/>
</linearGradient>
<radialGradient id="paint58_radial_10569_2763" cx="0" cy="0" r="1" gradientUnits="userSpaceOnUse" gradientTransform="translate(198.497 56.3319) rotate(-46.7141) scale(14.9531 14.3682)">
<stop stop-color="#ECAC36"/>
<stop offset="1" stop-color="#EC8436" stop-opacity="0"/>
</radialGradient>
<linearGradient id="paint59_linear_10569_2763" x1="92.8338" y1="44.7114" x2="110.468" y2="132.904" gradientUnits="userSpaceOnUse">
<stop stop-color="#AC8B7F"/>
<stop offset="1" stop-color="#261B17"/>
</linearGradient>
<radialGradient id="paint60_radial_10569_2763" cx="0" cy="0" r="1" gradientTransform="matrix(53.5478 7.39095 -4.23344 24.0769 132.117 64.1038)" gradientUnits="userSpaceOnUse">
<stop stop-color="#946F7C"/>
<stop offset="1" stop-color="#946F7C" stop-opacity="0"/>
</radialGradient>
<radialGradient id="paint61_radial_10569_2763" cx="0" cy="0" r="1" gradientTransform="matrix(5.48077 30.0302 -20.55 2.94416 48.1743 51.5805)" gradientUnits="userSpaceOnUse">
<stop stop-color="#ECAC36"/>
<stop offset="1" stop-color="#EC8436" stop-opacity="0"/>
</radialGradient>
<radialGradient id="paint62_radial_10569_2763" cx="0" cy="0" r="1" gradientTransform="matrix(1.73076 22.4907 -15.3906 0.92973 88.5589 51.1972)" gradientUnits="userSpaceOnUse">
<stop stop-color="#ECAC36"/>
<stop offset="1" stop-color="#EC8436" stop-opacity="0"/>
</radialGradient>
<radialGradient id="paint63_radial_10569_2763" cx="0" cy="0" r="1" gradientTransform="matrix(0.576923 21.4684 -11.7599 0.248078 126.059 51.9639)" gradientUnits="userSpaceOnUse">
<stop stop-color="#ECAC36"/>
<stop offset="1" stop-color="#EC8436" stop-opacity="0"/>
</radialGradient>
<radialGradient id="paint64_radial_10569_2763" cx="0" cy="0" r="1" gradientTransform="matrix(1.15386 19.9142 -10.1287 0.460691 157.934 51.5805)" gradientUnits="userSpaceOnUse">
<stop stop-color="#ECAC36"/>
<stop offset="1" stop-color="#EC8436" stop-opacity="0"/>
</radialGradient>
<radialGradient id="paint65_radial_10569_2763" cx="0" cy="0" r="1" gradientTransform="matrix(0.144233 15.5902 -5.91307 0.0429432 178.27 47.4913)" gradientUnits="userSpaceOnUse">
<stop stop-color="#ECAC36"/>
<stop offset="1" stop-color="#EC8436" stop-opacity="0"/>
</radialGradient>
<linearGradient id="paint66_linear_10569_2763" x1="95.627" y1="53.3607" x2="97.2054" y2="69.5119" gradientUnits="userSpaceOnUse">
<stop stop-color="#8C6456" stop-opacity="0"/>
<stop offset="0.949627" stop-color="#261B17"/>
</linearGradient>
<radialGradient id="paint67_radial_10569_2763" cx="0" cy="0" r="1" gradientTransform="matrix(103.125 -1.35176 0.340263 20.3772 51.78 56.8947)" gradientUnits="userSpaceOnUse">
<stop offset="0.238082" stop-color="#513930"/>
<stop offset="1" stop-color="#B7816C" stop-opacity="0"/>
</radialGradient>
</defs>
</svg>
