<svg viewBox="0 0 240 120" fill="none" xmlns="http://www.w3.org/2000/svg">
<path fill-rule="evenodd" clip-rule="evenodd" d="M240 83.1646V120H0C34.1895 102.263 117.096 83.0769 224.187 83.0769C229.495 83.0769 234.767 83.1064 240 83.1646Z" fill="url(#paint0_radial_1040_23460)"/>
<path fill-rule="evenodd" clip-rule="evenodd" d="M135.128 30.7646L138.363 30.2062C138.363 30.2062 142.768 39.219 141.043 47.6265C148.681 44.5855 158.471 45.409 166.849 46.1245C182.084 47.4173 188.801 43.2904 193.791 40.2248C195.015 39.4728 196.135 38.7846 197.252 38.256C197.252 38.256 187.396 52.7457 165.22 50.5991C127.275 47.3792 127.768 70.4553 168.177 87.2704C188.032 92.0755 194.013 105.705 198.943 116.94C199.398 117.976 199.843 118.991 200.29 119.977H194.35C194.05 119.234 193.748 118.44 193.434 117.614C191.567 112.711 189.275 106.69 184.5 103.5C176.044 105.693 173.477 110.394 170.396 116.039C169.706 117.302 168.99 118.613 168.177 119.954C168.169 119.962 168.16 119.97 168.152 119.977H165.082C164.946 119.914 164.826 119.846 164.728 119.775C166.51 111.005 171.138 102.716 178.772 98.1824C169.409 92.4581 162.535 92.9295 159.578 95.9705C157.442 100.643 155.034 110.616 156.286 119.977H150.532C147.814 110.444 148.453 101.465 150.683 90.1326C149.944 89.7748 147.493 88.6789 147 88.5001C139.372 93.0308 136.504 104.147 136.584 119.977H130.853C129.182 113.747 128.493 103.822 129.522 99.3431C121.144 98.8064 113.346 105.385 112.5 106.5C114.503 108.682 117.198 114.274 118.628 119.977H114.06C113.047 117.837 111.577 115.179 108 109.5C104.4 113.787 103.675 115.906 102.76 118.576C102.607 119.023 102.448 119.486 102.27 119.977H97.6143C99.2373 113.67 101.457 110.201 104.016 106.203L104.09 106.088C102.554 104.94 101.695 104.346 99.2307 103.809C94.5994 106.061 93.7163 112.503 93.0539 117.335C92.9224 118.295 92.7996 119.19 92.6579 119.977H88.936C88.9507 119.567 88.956 119.139 88.9618 118.672C88.9878 116.556 89.0236 113.641 89.9999 108C80.3651 107.251 74.969 113.725 70.996 118.492C70.5633 119.011 70.1475 119.51 69.7449 119.977H63.6969C70.3731 107.039 78.3493 101.307 92.0407 102.655C99.9254 90.4904 114.731 79.0455 130.5 73.5001C128.036 70.459 127.5 69.0001 126.536 65.9832C120.376 64.9099 112.984 62.7632 108.056 59.9011C89.9855 50.7983 81.8948 32.6486 81.8948 32.6486C84.2327 33.2144 86.6383 35.872 89.7704 39.3322C96.5413 46.8123 106.707 58.0431 126.923 60C127.732 58.1128 128.734 56.2607 129.766 54.3534C133.137 48.1253 136.826 41.3095 135.128 30.7646ZM102 99.0001C105.203 99.5367 108 102 107.7 102.238C112.489 97.5976 120.253 91.5247 131.834 92.598C132.551 91.5515 133.128 90.6154 133.673 89.7323C134.882 87.7697 135.931 86.0691 138 84.0001C137.441 83.4415 137.11 83.0579 136.812 82.7133C136.311 82.1324 135.904 81.6622 134.667 80.6517C116.434 84.5872 107.667 91.4869 102 99.0001Z" fill="url(#paint1_radial_1040_23460)"/>
<path fill-rule="evenodd" clip-rule="evenodd" d="M135.128 30.7646L138.363 30.2062C138.363 30.2062 142.768 39.219 141.043 47.6265C148.681 44.5855 158.471 45.409 166.849 46.1245C182.084 47.4173 188.801 43.2904 193.791 40.2248C195.015 39.4728 196.135 38.7846 197.252 38.256C197.252 38.256 187.396 52.7457 165.22 50.5991C127.275 47.3792 127.768 70.4553 168.177 87.2704C188.032 92.0755 194.013 105.705 198.943 116.94C199.398 117.976 199.843 118.991 200.29 119.977H194.35C194.05 119.234 193.748 118.44 193.434 117.614C191.567 112.711 189.275 106.69 184.5 103.5C176.044 105.693 173.477 110.394 170.396 116.039C169.706 117.302 168.99 118.613 168.177 119.954C168.169 119.962 168.16 119.97 168.152 119.977H165.082C164.946 119.914 164.826 119.846 164.728 119.775C166.51 111.005 171.138 102.716 178.772 98.1824C169.409 92.4581 162.535 92.9295 159.578 95.9705C157.442 100.643 155.034 110.616 156.286 119.977H150.532C147.814 110.444 148.453 101.465 150.683 90.1326C149.944 89.7748 147.493 88.6789 147 88.5001C139.372 93.0308 136.504 104.147 136.584 119.977H130.853C129.182 113.747 128.493 103.822 129.522 99.3431C121.144 98.8064 113.346 105.385 112.5 106.5C114.503 108.682 117.198 114.274 118.628 119.977H114.06C113.047 117.837 111.577 115.179 108 109.5C104.4 113.787 103.675 115.906 102.76 118.576C102.607 119.023 102.448 119.486 102.27 119.977H97.6143C99.2373 113.67 101.457 110.201 104.016 106.203L104.09 106.088C102.554 104.94 101.695 104.346 99.2307 103.809C94.5994 106.061 93.7163 112.503 93.0539 117.335C92.9224 118.295 92.7996 119.19 92.6579 119.977H88.936C88.9507 119.567 88.956 119.139 88.9618 118.672C88.9878 116.556 89.0236 113.641 89.9999 108C80.3651 107.251 74.969 113.725 70.996 118.492C70.5633 119.011 70.1475 119.51 69.7449 119.977H63.6969C70.3731 107.039 78.3493 101.307 92.0407 102.655C99.9254 90.4904 114.731 79.0455 130.5 73.5001C128.036 70.459 127.5 69.0001 126.536 65.9832C120.376 64.9099 112.984 62.7632 108.056 59.9011C89.9855 50.7983 81.8948 32.6486 81.8948 32.6486C84.2327 33.2144 86.6383 35.872 89.7704 39.3322C96.5413 46.8123 106.707 58.0431 126.923 60C127.732 58.1128 128.734 56.2607 129.766 54.3534C133.137 48.1253 136.826 41.3095 135.128 30.7646ZM102 99.0001C105.203 99.5367 108 102 107.7 102.238C112.489 97.5976 120.253 91.5247 131.834 92.598C132.551 91.5515 133.128 90.6154 133.673 89.7323C134.882 87.7697 135.931 86.0691 138 84.0001C137.441 83.4415 137.11 83.0579 136.812 82.7133C136.311 82.1324 135.904 81.6622 134.667 80.6517C116.434 84.5872 107.667 91.4869 102 99.0001Z" fill="url(#paint2_radial_1040_23460)"/>
<path fill-rule="evenodd" clip-rule="evenodd" d="M135.128 30.7646L138.363 30.2062C138.363 30.2062 142.768 39.219 141.043 47.6265C148.681 44.5855 158.471 45.409 166.849 46.1245C182.084 47.4173 188.801 43.2904 193.791 40.2248C195.015 39.4728 196.135 38.7846 197.252 38.256C197.252 38.256 187.396 52.7457 165.22 50.5991C127.275 47.3792 127.768 70.4553 168.177 87.2704C188.032 92.0755 194.013 105.705 198.943 116.94C199.398 117.976 199.843 118.991 200.29 119.977H194.35C194.05 119.234 193.748 118.44 193.434 117.614C191.567 112.711 189.275 106.69 184.5 103.5C176.044 105.693 173.477 110.394 170.396 116.039C169.706 117.302 168.99 118.613 168.177 119.954C168.169 119.962 168.16 119.97 168.152 119.977H165.082C164.946 119.914 164.826 119.846 164.728 119.775C166.51 111.005 171.138 102.716 178.772 98.1824C169.409 92.4581 162.535 92.9295 159.578 95.9705C157.442 100.643 155.034 110.616 156.286 119.977H150.532C147.814 110.444 148.453 101.465 150.683 90.1326C149.944 89.7748 147.493 88.6789 147 88.5001C139.372 93.0308 136.504 104.147 136.584 119.977H130.853C129.182 113.747 128.493 103.822 129.522 99.3431C121.144 98.8064 113.346 105.385 112.5 106.5C114.503 108.682 117.198 114.274 118.628 119.977H114.06C113.047 117.837 111.577 115.179 108 109.5C104.4 113.787 103.675 115.906 102.76 118.576C102.607 119.023 102.448 119.486 102.27 119.977H97.6143C99.2373 113.67 101.457 110.201 104.016 106.203L104.09 106.088C102.554 104.94 101.695 104.346 99.2307 103.809C94.5994 106.061 93.7163 112.503 93.0539 117.335C92.9224 118.295 92.7996 119.19 92.6579 119.977H88.936C88.9507 119.567 88.956 119.139 88.9618 118.672C88.9878 116.556 89.0236 113.641 89.9999 108C80.3651 107.251 74.969 113.725 70.996 118.492C70.5633 119.011 70.1475 119.51 69.7449 119.977H63.6969C70.3731 107.039 78.3493 101.307 92.0407 102.655C99.9254 90.4904 114.731 79.0455 130.5 73.5001C128.036 70.459 127.5 69.0001 126.536 65.9832C120.376 64.9099 112.984 62.7632 108.056 59.9011C89.9855 50.7983 81.8948 32.6486 81.8948 32.6486C84.2327 33.2144 86.6383 35.872 89.7704 39.3322C96.5413 46.8123 106.707 58.0431 126.923 60C127.732 58.1128 128.734 56.2607 129.766 54.3534C133.137 48.1253 136.826 41.3095 135.128 30.7646ZM102 99.0001C105.203 99.5367 108 102 107.7 102.238C112.489 97.5976 120.253 91.5247 131.834 92.598C132.551 91.5515 133.128 90.6154 133.673 89.7323C134.882 87.7697 135.931 86.0691 138 84.0001C137.441 83.4415 137.11 83.0579 136.812 82.7133C136.311 82.1324 135.904 81.6622 134.667 80.6517C116.434 84.5872 107.667 91.4869 102 99.0001Z" fill="url(#paint3_radial_1040_23460)"/>
<path fill-rule="evenodd" clip-rule="evenodd" d="M135.128 30.7646L138.363 30.2062C138.363 30.2062 142.768 39.219 141.043 47.6265C148.681 44.5855 158.471 45.409 166.849 46.1245C182.084 47.4173 188.801 43.2904 193.791 40.2248C195.015 39.4728 196.135 38.7846 197.252 38.256C197.252 38.256 187.396 52.7457 165.22 50.5991C127.275 47.3792 127.768 70.4553 168.177 87.2704C188.032 92.0755 194.013 105.705 198.943 116.94C199.398 117.976 199.843 118.991 200.29 119.977H194.35C194.05 119.234 193.748 118.44 193.434 117.614C191.567 112.711 189.275 106.69 184.5 103.5C176.044 105.693 173.477 110.394 170.396 116.039C169.706 117.302 168.99 118.613 168.177 119.954C168.169 119.962 168.16 119.97 168.152 119.977H165.082C164.946 119.914 164.826 119.846 164.728 119.775C166.51 111.005 171.138 102.716 178.772 98.1824C169.409 92.4581 162.535 92.9295 159.578 95.9705C157.442 100.643 155.034 110.616 156.286 119.977H150.532C147.814 110.444 148.453 101.465 150.683 90.1326C149.944 89.7748 147.493 88.6789 147 88.5001C139.372 93.0308 136.504 104.147 136.584 119.977H130.853C129.182 113.747 128.493 103.822 129.522 99.3431C121.144 98.8064 113.346 105.385 112.5 106.5C114.503 108.682 117.198 114.274 118.628 119.977H114.06C113.047 117.837 111.577 115.179 108 109.5C104.4 113.787 103.675 115.906 102.76 118.576C102.607 119.023 102.448 119.486 102.27 119.977H97.6143C99.2373 113.67 101.457 110.201 104.016 106.203L104.09 106.088C102.554 104.94 101.695 104.346 99.2307 103.809C94.5994 106.061 93.7163 112.503 93.0539 117.335C92.9224 118.295 92.7996 119.19 92.6579 119.977H88.936C88.9507 119.567 88.956 119.139 88.9618 118.672C88.9878 116.556 89.0236 113.641 89.9999 108C80.3651 107.251 74.969 113.725 70.996 118.492C70.5633 119.011 70.1475 119.51 69.7449 119.977H63.6969C70.3731 107.039 78.3493 101.307 92.0407 102.655C99.9254 90.4904 114.731 79.0455 130.5 73.5001C128.036 70.459 127.5 69.0001 126.536 65.9832C120.376 64.9099 112.984 62.7632 108.056 59.9011C89.9855 50.7983 81.8948 32.6486 81.8948 32.6486C84.2327 33.2144 86.6383 35.872 89.7704 39.3322C96.5413 46.8123 106.707 58.0431 126.923 60C127.732 58.1128 128.734 56.2607 129.766 54.3534C133.137 48.1253 136.826 41.3095 135.128 30.7646ZM102 99.0001C105.203 99.5367 108 102 107.7 102.238C112.489 97.5976 120.253 91.5247 131.834 92.598C132.551 91.5515 133.128 90.6154 133.673 89.7323C134.882 87.7697 135.931 86.0691 138 84.0001C137.441 83.4415 137.11 83.0579 136.812 82.7133C136.311 82.1324 135.904 81.6622 134.667 80.6517C116.434 84.5872 107.667 91.4869 102 99.0001Z" fill="url(#paint4_radial_1040_23460)"/>
<path fill-rule="evenodd" clip-rule="evenodd" d="M135.128 30.7646L138.363 30.2062C138.363 30.2062 142.768 39.219 141.043 47.6265C148.681 44.5855 158.471 45.409 166.849 46.1245C182.084 47.4173 188.801 43.2904 193.791 40.2248C195.015 39.4728 196.135 38.7846 197.252 38.256C197.252 38.256 187.396 52.7457 165.22 50.5991C127.275 47.3792 127.768 70.4553 168.177 87.2704C188.032 92.0755 194.013 105.705 198.943 116.94C199.398 117.976 199.843 118.991 200.29 119.977H194.35C194.05 119.234 193.748 118.44 193.434 117.614C191.567 112.711 189.275 106.69 184.5 103.5C176.044 105.693 173.477 110.394 170.396 116.039C169.706 117.302 168.99 118.613 168.177 119.954C168.169 119.962 168.16 119.97 168.152 119.977H165.082C164.946 119.914 164.826 119.846 164.728 119.775C166.51 111.005 171.138 102.716 178.772 98.1824C169.409 92.4581 162.535 92.9295 159.578 95.9705C157.442 100.643 155.034 110.616 156.286 119.977H150.532C147.814 110.444 148.453 101.465 150.683 90.1326C149.944 89.7748 147.493 88.6789 147 88.5001C139.372 93.0308 136.504 104.147 136.584 119.977H130.853C129.182 113.747 128.493 103.822 129.522 99.3431C121.144 98.8064 113.346 105.385 112.5 106.5C114.503 108.682 117.198 114.274 118.628 119.977H114.06C113.047 117.837 111.577 115.179 108 109.5C104.4 113.787 103.675 115.906 102.76 118.576C102.607 119.023 102.448 119.486 102.27 119.977H97.6143C99.2373 113.67 101.457 110.201 104.016 106.203L104.09 106.088C102.554 104.94 101.695 104.346 99.2307 103.809C94.5994 106.061 93.7163 112.503 93.0539 117.335C92.9224 118.295 92.7996 119.19 92.6579 119.977H88.936C88.9507 119.567 88.956 119.139 88.9618 118.672C88.9878 116.556 89.0236 113.641 89.9999 108C80.3651 107.251 74.969 113.725 70.996 118.492C70.5633 119.011 70.1475 119.51 69.7449 119.977H63.6969C70.3731 107.039 78.3493 101.307 92.0407 102.655C99.9254 90.4904 114.731 79.0455 130.5 73.5001C128.036 70.459 127.5 69.0001 126.536 65.9832C120.376 64.9099 112.984 62.7632 108.056 59.9011C89.9855 50.7983 81.8948 32.6486 81.8948 32.6486C84.2327 33.2144 86.6383 35.872 89.7704 39.3322C96.5413 46.8123 106.707 58.0431 126.923 60C127.732 58.1128 128.734 56.2607 129.766 54.3534C133.137 48.1253 136.826 41.3095 135.128 30.7646ZM102 99.0001C105.203 99.5367 108 102 107.7 102.238C112.489 97.5976 120.253 91.5247 131.834 92.598C132.551 91.5515 133.128 90.6154 133.673 89.7323C134.882 87.7697 135.931 86.0691 138 84.0001C137.441 83.4415 137.11 83.0579 136.812 82.7133C136.311 82.1324 135.904 81.6622 134.667 80.6517C116.434 84.5872 107.667 91.4869 102 99.0001Z" fill="url(#paint5_radial_1040_23460)"/>
<path fill-rule="evenodd" clip-rule="evenodd" d="M135.128 30.7646L138.363 30.2062C138.363 30.2062 142.768 39.219 141.043 47.6265C148.681 44.5855 158.471 45.409 166.849 46.1245C182.084 47.4173 188.801 43.2904 193.791 40.2248C195.015 39.4728 196.135 38.7846 197.252 38.256C197.252 38.256 187.396 52.7457 165.22 50.5991C127.275 47.3792 127.768 70.4553 168.177 87.2704C188.032 92.0755 194.013 105.705 198.943 116.94C199.398 117.976 199.843 118.991 200.29 119.977H194.35C194.05 119.234 193.748 118.44 193.434 117.614C191.567 112.711 189.275 106.69 184.5 103.5C176.044 105.693 173.477 110.394 170.396 116.039C169.706 117.302 168.99 118.613 168.177 119.954C168.169 119.962 168.16 119.97 168.152 119.977H165.082C164.946 119.914 164.826 119.846 164.728 119.775C166.51 111.005 171.138 102.716 178.772 98.1824C169.409 92.4581 162.535 92.9295 159.578 95.9705C157.442 100.643 155.034 110.616 156.286 119.977H150.532C147.814 110.444 148.453 101.465 150.683 90.1326C149.944 89.7748 147.493 88.6789 147 88.5001C139.372 93.0308 136.504 104.147 136.584 119.977H130.853C129.182 113.747 128.493 103.822 129.522 99.3431C121.144 98.8064 113.346 105.385 112.5 106.5C114.503 108.682 117.198 114.274 118.628 119.977H114.06C113.047 117.837 111.577 115.179 108 109.5C104.4 113.787 103.675 115.906 102.76 118.576C102.607 119.023 102.448 119.486 102.27 119.977H97.6143C99.2373 113.67 101.457 110.201 104.016 106.203L104.09 106.088C102.554 104.94 101.695 104.346 99.2307 103.809C94.5994 106.061 93.7163 112.503 93.0539 117.335C92.9224 118.295 92.7996 119.19 92.6579 119.977H88.936C88.9507 119.567 88.956 119.139 88.9618 118.672C88.9878 116.556 89.0236 113.641 89.9999 108C80.3651 107.251 74.969 113.725 70.996 118.492C70.5633 119.011 70.1475 119.51 69.7449 119.977H63.6969C70.3731 107.039 78.3493 101.307 92.0407 102.655C99.9254 90.4904 114.731 79.0455 130.5 73.5001C128.036 70.459 127.5 69.0001 126.536 65.9832C120.376 64.9099 112.984 62.7632 108.056 59.9011C89.9855 50.7983 81.8948 32.6486 81.8948 32.6486C84.2327 33.2144 86.6383 35.872 89.7704 39.3322C96.5413 46.8123 106.707 58.0431 126.923 60C127.732 58.1128 128.734 56.2607 129.766 54.3534C133.137 48.1253 136.826 41.3095 135.128 30.7646ZM102 99.0001C105.203 99.5367 108 102 107.7 102.238C112.489 97.5976 120.253 91.5247 131.834 92.598C132.551 91.5515 133.128 90.6154 133.673 89.7323C134.882 87.7697 135.931 86.0691 138 84.0001C137.441 83.4415 137.11 83.0579 136.812 82.7133C136.311 82.1324 135.904 81.6622 134.667 80.6517C116.434 84.5872 107.667 91.4869 102 99.0001Z" fill="url(#paint6_radial_1040_23460)"/>
<path fill-rule="evenodd" clip-rule="evenodd" d="M135.128 30.7646L138.363 30.2062C138.363 30.2062 142.768 39.219 141.043 47.6265C148.681 44.5855 158.471 45.409 166.849 46.1245C182.084 47.4173 188.801 43.2904 193.791 40.2248C195.015 39.4728 196.135 38.7846 197.252 38.256C197.252 38.256 187.396 52.7457 165.22 50.5991C127.275 47.3792 127.768 70.4553 168.177 87.2704C188.032 92.0755 194.013 105.705 198.943 116.94C199.398 117.976 199.843 118.991 200.29 119.977H194.35C194.05 119.234 193.748 118.44 193.434 117.614C191.567 112.711 189.275 106.69 184.5 103.5C176.044 105.693 173.477 110.394 170.396 116.039C169.706 117.302 168.99 118.613 168.177 119.954C168.169 119.962 168.16 119.97 168.152 119.977H165.082C164.946 119.914 164.826 119.846 164.728 119.775C166.51 111.005 171.138 102.716 178.772 98.1824C169.409 92.4581 162.535 92.9295 159.578 95.9705C157.442 100.643 155.034 110.616 156.286 119.977H150.532C147.814 110.444 148.453 101.465 150.683 90.1326C149.944 89.7748 147.493 88.6789 147 88.5001C139.372 93.0308 136.504 104.147 136.584 119.977H130.853C129.182 113.747 128.493 103.822 129.522 99.3431C121.144 98.8064 113.346 105.385 112.5 106.5C114.503 108.682 117.198 114.274 118.628 119.977H114.06C113.047 117.837 111.577 115.179 108 109.5C104.4 113.787 103.675 115.906 102.76 118.576C102.607 119.023 102.448 119.486 102.27 119.977H97.6143C99.2373 113.67 101.457 110.201 104.016 106.203L104.09 106.088C102.554 104.94 101.695 104.346 99.2307 103.809C94.5994 106.061 93.7163 112.503 93.0539 117.335C92.9224 118.295 92.7996 119.19 92.6579 119.977H88.936C88.9507 119.567 88.956 119.139 88.9618 118.672C88.9878 116.556 89.0236 113.641 89.9999 108C80.3651 107.251 74.969 113.725 70.996 118.492C70.5633 119.011 70.1475 119.51 69.7449 119.977H63.6969C70.3731 107.039 78.3493 101.307 92.0407 102.655C99.9254 90.4904 114.731 79.0455 130.5 73.5001C128.036 70.459 127.5 69.0001 126.536 65.9832C120.376 64.9099 112.984 62.7632 108.056 59.9011C89.9855 50.7983 81.8948 32.6486 81.8948 32.6486C84.2327 33.2144 86.6383 35.872 89.7704 39.3322C96.5413 46.8123 106.707 58.0431 126.923 60C127.732 58.1128 128.734 56.2607 129.766 54.3534C133.137 48.1253 136.826 41.3095 135.128 30.7646ZM102 99.0001C105.203 99.5367 108 102 107.7 102.238C112.489 97.5976 120.253 91.5247 131.834 92.598C132.551 91.5515 133.128 90.6154 133.673 89.7323C134.882 87.7697 135.931 86.0691 138 84.0001C137.441 83.4415 137.11 83.0579 136.812 82.7133C136.311 82.1324 135.904 81.6622 134.667 80.6517C116.434 84.5872 107.667 91.4869 102 99.0001Z" fill="url(#paint7_radial_1040_23460)"/>
<path fill-rule="evenodd" clip-rule="evenodd" d="M135.128 30.7646L138.363 30.2062C138.363 30.2062 142.768 39.219 141.043 47.6265C148.681 44.5855 158.471 45.409 166.849 46.1245C182.084 47.4173 188.801 43.2904 193.791 40.2248C195.015 39.4728 196.135 38.7846 197.252 38.256C197.252 38.256 187.396 52.7457 165.22 50.5991C127.275 47.3792 127.768 70.4553 168.177 87.2704C188.032 92.0755 194.013 105.705 198.943 116.94C199.398 117.976 199.843 118.991 200.29 119.977H194.35C194.05 119.234 193.748 118.44 193.434 117.614C191.567 112.711 189.275 106.69 184.5 103.5C176.044 105.693 173.477 110.394 170.396 116.039C169.706 117.302 168.99 118.613 168.177 119.954C168.169 119.962 168.16 119.97 168.152 119.977H165.082C164.946 119.914 164.826 119.846 164.728 119.775C166.51 111.005 171.138 102.716 178.772 98.1824C169.409 92.4581 162.535 92.9295 159.578 95.9705C157.442 100.643 155.034 110.616 156.286 119.977H150.532C147.814 110.444 148.453 101.465 150.683 90.1326C149.944 89.7748 147.493 88.6789 147 88.5001C139.372 93.0308 136.504 104.147 136.584 119.977H130.853C129.182 113.747 128.493 103.822 129.522 99.3431C121.144 98.8064 113.346 105.385 112.5 106.5C114.503 108.682 117.198 114.274 118.628 119.977H114.06C113.047 117.837 111.577 115.179 108 109.5C104.4 113.787 103.675 115.906 102.76 118.576C102.607 119.023 102.448 119.486 102.27 119.977H97.6143C99.2373 113.67 101.457 110.201 104.016 106.203L104.09 106.088C102.554 104.94 101.695 104.346 99.2307 103.809C94.5994 106.061 93.7163 112.503 93.0539 117.335C92.9224 118.295 92.7996 119.19 92.6579 119.977H88.936C88.9507 119.567 88.956 119.139 88.9618 118.672C88.9878 116.556 89.0236 113.641 89.9999 108C80.3651 107.251 74.969 113.725 70.996 118.492C70.5633 119.011 70.1475 119.51 69.7449 119.977H63.6969C70.3731 107.039 78.3493 101.307 92.0407 102.655C99.9254 90.4904 114.731 79.0455 130.5 73.5001C128.036 70.459 127.5 69.0001 126.536 65.9832C120.376 64.9099 112.984 62.7632 108.056 59.9011C89.9855 50.7983 81.8948 32.6486 81.8948 32.6486C84.2327 33.2144 86.6383 35.872 89.7704 39.3322C96.5413 46.8123 106.707 58.0431 126.923 60C127.732 58.1128 128.734 56.2607 129.766 54.3534C133.137 48.1253 136.826 41.3095 135.128 30.7646ZM102 99.0001C105.203 99.5367 108 102 107.7 102.238C112.489 97.5976 120.253 91.5247 131.834 92.598C132.551 91.5515 133.128 90.6154 133.673 89.7323C134.882 87.7697 135.931 86.0691 138 84.0001C137.441 83.4415 137.11 83.0579 136.812 82.7133C136.311 82.1324 135.904 81.6622 134.667 80.6517C116.434 84.5872 107.667 91.4869 102 99.0001Z" fill="url(#paint8_radial_1040_23460)"/>
<path fill-rule="evenodd" clip-rule="evenodd" d="M135.128 30.7646L138.363 30.2062C138.363 30.2062 142.768 39.219 141.043 47.6265C148.681 44.5855 158.471 45.409 166.849 46.1245C182.084 47.4173 188.801 43.2904 193.791 40.2248C195.015 39.4728 196.135 38.7846 197.252 38.256C197.252 38.256 187.396 52.7457 165.22 50.5991C127.275 47.3792 127.768 70.4553 168.177 87.2704C188.032 92.0755 194.013 105.705 198.943 116.94C199.398 117.976 199.843 118.991 200.29 119.977H194.35C194.05 119.234 193.748 118.44 193.434 117.614C191.567 112.711 189.275 106.69 184.5 103.5C176.044 105.693 173.477 110.394 170.396 116.039C169.706 117.302 168.99 118.613 168.177 119.954C168.169 119.962 168.16 119.97 168.152 119.977H165.082C164.946 119.914 164.826 119.846 164.728 119.775C166.51 111.005 171.138 102.716 178.772 98.1824C169.409 92.4581 162.535 92.9295 159.578 95.9705C157.442 100.643 155.034 110.616 156.286 119.977H150.532C147.814 110.444 148.453 101.465 150.683 90.1326C149.944 89.7748 147.493 88.6789 147 88.5001C139.372 93.0308 136.504 104.147 136.584 119.977H130.853C129.182 113.747 128.493 103.822 129.522 99.3431C121.144 98.8064 113.346 105.385 112.5 106.5C114.503 108.682 117.198 114.274 118.628 119.977H114.06C113.047 117.837 111.577 115.179 108 109.5C104.4 113.787 103.675 115.906 102.76 118.576C102.607 119.023 102.448 119.486 102.27 119.977H97.6143C99.2373 113.67 101.457 110.201 104.016 106.203L104.09 106.088C102.554 104.94 101.695 104.346 99.2307 103.809C94.5994 106.061 93.7163 112.503 93.0539 117.335C92.9224 118.295 92.7996 119.19 92.6579 119.977H88.936C88.9507 119.567 88.956 119.139 88.9618 118.672C88.9878 116.556 89.0236 113.641 89.9999 108C80.3651 107.251 74.969 113.725 70.996 118.492C70.5633 119.011 70.1475 119.51 69.7449 119.977H63.6969C70.3731 107.039 78.3493 101.307 92.0407 102.655C99.9254 90.4904 114.731 79.0455 130.5 73.5001C128.036 70.459 127.5 69.0001 126.536 65.9832C120.376 64.9099 112.984 62.7632 108.056 59.9011C89.9855 50.7983 81.8948 32.6486 81.8948 32.6486C84.2327 33.2144 86.6383 35.872 89.7704 39.3322C96.5413 46.8123 106.707 58.0431 126.923 60C127.732 58.1128 128.734 56.2607 129.766 54.3534C133.137 48.1253 136.826 41.3095 135.128 30.7646ZM102 99.0001C105.203 99.5367 108 102 107.7 102.238C112.489 97.5976 120.253 91.5247 131.834 92.598C132.551 91.5515 133.128 90.6154 133.673 89.7323C134.882 87.7697 135.931 86.0691 138 84.0001C137.441 83.4415 137.11 83.0579 136.812 82.7133C136.311 82.1324 135.904 81.6622 134.667 80.6517C116.434 84.5872 107.667 91.4869 102 99.0001Z" fill="url(#paint9_radial_1040_23460)"/>
<path fill-rule="evenodd" clip-rule="evenodd" d="M135.128 30.7646L138.363 30.2062C138.363 30.2062 142.768 39.219 141.043 47.6265C148.681 44.5855 158.471 45.409 166.849 46.1245C182.084 47.4173 188.801 43.2904 193.791 40.2248C195.015 39.4728 196.135 38.7846 197.252 38.256C197.252 38.256 187.396 52.7457 165.22 50.5991C127.275 47.3792 127.768 70.4553 168.177 87.2704C188.032 92.0755 194.013 105.705 198.943 116.94C199.398 117.976 199.843 118.991 200.29 119.977H194.35C194.05 119.234 193.748 118.44 193.434 117.614C191.567 112.711 189.275 106.69 184.5 103.5C176.044 105.693 173.477 110.394 170.396 116.039C169.706 117.302 168.99 118.613 168.177 119.954C168.169 119.962 168.16 119.97 168.152 119.977H165.082C164.946 119.914 164.826 119.846 164.728 119.775C166.51 111.005 171.138 102.716 178.772 98.1824C169.409 92.4581 162.535 92.9295 159.578 95.9705C157.442 100.643 155.034 110.616 156.286 119.977H150.532C147.814 110.444 148.453 101.465 150.683 90.1326C149.944 89.7748 147.493 88.6789 147 88.5001C139.372 93.0308 136.504 104.147 136.584 119.977H130.853C129.182 113.747 128.493 103.822 129.522 99.3431C121.144 98.8064 113.346 105.385 112.5 106.5C114.503 108.682 117.198 114.274 118.628 119.977H114.06C113.047 117.837 111.577 115.179 108 109.5C104.4 113.787 103.675 115.906 102.76 118.576C102.607 119.023 102.448 119.486 102.27 119.977H97.6143C99.2373 113.67 101.457 110.201 104.016 106.203L104.09 106.088C102.554 104.94 101.695 104.346 99.2307 103.809C94.5994 106.061 93.7163 112.503 93.0539 117.335C92.9224 118.295 92.7996 119.19 92.6579 119.977H88.936C88.9507 119.567 88.956 119.139 88.9618 118.672C88.9878 116.556 89.0236 113.641 89.9999 108C80.3651 107.251 74.969 113.725 70.996 118.492C70.5633 119.011 70.1475 119.51 69.7449 119.977H63.6969C70.3731 107.039 78.3493 101.307 92.0407 102.655C99.9254 90.4904 114.731 79.0455 130.5 73.5001C128.036 70.459 127.5 69.0001 126.536 65.9832C120.376 64.9099 112.984 62.7632 108.056 59.9011C89.9855 50.7983 81.8948 32.6486 81.8948 32.6486C84.2327 33.2144 86.6383 35.872 89.7704 39.3322C96.5413 46.8123 106.707 58.0431 126.923 60C127.732 58.1128 128.734 56.2607 129.766 54.3534C133.137 48.1253 136.826 41.3095 135.128 30.7646ZM102 99.0001C105.203 99.5367 108 102 107.7 102.238C112.489 97.5976 120.253 91.5247 131.834 92.598C132.551 91.5515 133.128 90.6154 133.673 89.7323C134.882 87.7697 135.931 86.0691 138 84.0001C137.441 83.4415 137.11 83.0579 136.812 82.7133C136.311 82.1324 135.904 81.6622 134.667 80.6517C116.434 84.5872 107.667 91.4869 102 99.0001Z" fill="url(#paint10_radial_1040_23460)"/>
<path fill-rule="evenodd" clip-rule="evenodd" d="M135.128 30.7646L138.363 30.2062C138.363 30.2062 142.768 39.219 141.043 47.6265C148.681 44.5855 158.471 45.409 166.849 46.1245C182.084 47.4173 188.801 43.2904 193.791 40.2248C195.015 39.4728 196.135 38.7846 197.252 38.256C197.252 38.256 187.396 52.7457 165.22 50.5991C127.275 47.3792 127.768 70.4553 168.177 87.2704C188.032 92.0755 194.013 105.705 198.943 116.94C199.398 117.976 199.843 118.991 200.29 119.977H194.35C194.05 119.234 193.748 118.44 193.434 117.614C191.567 112.711 189.275 106.69 184.5 103.5C176.044 105.693 173.477 110.394 170.396 116.039C169.706 117.302 168.99 118.613 168.177 119.954C168.169 119.962 168.16 119.97 168.152 119.977H165.082C164.946 119.914 164.826 119.846 164.728 119.775C166.51 111.005 171.138 102.716 178.772 98.1824C169.409 92.4581 162.535 92.9295 159.578 95.9705C157.442 100.643 155.034 110.616 156.286 119.977H150.532C147.814 110.444 148.453 101.465 150.683 90.1326C149.944 89.7748 147.493 88.6789 147 88.5001C139.372 93.0308 136.504 104.147 136.584 119.977H130.853C129.182 113.747 128.493 103.822 129.522 99.3431C121.144 98.8064 113.346 105.385 112.5 106.5C114.503 108.682 117.198 114.274 118.628 119.977H114.06C113.047 117.837 111.577 115.179 108 109.5C104.4 113.787 103.675 115.906 102.76 118.576C102.607 119.023 102.448 119.486 102.27 119.977H97.6143C99.2373 113.67 101.457 110.201 104.016 106.203L104.09 106.088C102.554 104.94 101.695 104.346 99.2307 103.809C94.5994 106.061 93.7163 112.503 93.0539 117.335C92.9224 118.295 92.7996 119.19 92.6579 119.977H88.936C88.9507 119.567 88.956 119.139 88.9618 118.672C88.9878 116.556 89.0236 113.641 89.9999 108C80.3651 107.251 74.969 113.725 70.996 118.492C70.5633 119.011 70.1475 119.51 69.7449 119.977H63.6969C70.3731 107.039 78.3493 101.307 92.0407 102.655C99.9254 90.4904 114.731 79.0455 130.5 73.5001C128.036 70.459 127.5 69.0001 126.536 65.9832C120.376 64.9099 112.984 62.7632 108.056 59.9011C89.9855 50.7983 81.8948 32.6486 81.8948 32.6486C84.2327 33.2144 86.6383 35.872 89.7704 39.3322C96.5413 46.8123 106.707 58.0431 126.923 60C127.732 58.1128 128.734 56.2607 129.766 54.3534C133.137 48.1253 136.826 41.3095 135.128 30.7646ZM102 99.0001C105.203 99.5367 108 102 107.7 102.238C112.489 97.5976 120.253 91.5247 131.834 92.598C132.551 91.5515 133.128 90.6154 133.673 89.7323C134.882 87.7697 135.931 86.0691 138 84.0001C137.441 83.4415 137.11 83.0579 136.812 82.7133C136.311 82.1324 135.904 81.6622 134.667 80.6517C116.434 84.5872 107.667 91.4869 102 99.0001Z" fill="url(#paint11_radial_1040_23460)"/>
<path fill-rule="evenodd" clip-rule="evenodd" d="M135.128 30.7646L138.363 30.2062C138.363 30.2062 142.768 39.219 141.043 47.6265C148.681 44.5855 158.471 45.409 166.849 46.1245C182.084 47.4173 188.801 43.2904 193.791 40.2248C195.015 39.4728 196.135 38.7846 197.252 38.256C197.252 38.256 187.396 52.7457 165.22 50.5991C127.275 47.3792 127.768 70.4553 168.177 87.2704C188.032 92.0755 194.013 105.705 198.943 116.94C199.398 117.976 199.843 118.991 200.29 119.977H194.35C194.05 119.234 193.748 118.44 193.434 117.614C191.567 112.711 189.275 106.69 184.5 103.5C176.044 105.693 173.477 110.394 170.396 116.039C169.706 117.302 168.99 118.613 168.177 119.954C168.169 119.962 168.16 119.97 168.152 119.977H165.082C164.946 119.914 164.826 119.846 164.728 119.775C166.51 111.005 171.138 102.716 178.772 98.1824C169.409 92.4581 162.535 92.9295 159.578 95.9705C157.442 100.643 155.034 110.616 156.286 119.977H150.532C147.814 110.444 148.453 101.465 150.683 90.1326C149.944 89.7748 147.493 88.6789 147 88.5001C139.372 93.0308 136.504 104.147 136.584 119.977H130.853C129.182 113.747 128.493 103.822 129.522 99.3431C121.144 98.8064 113.346 105.385 112.5 106.5C114.503 108.682 117.198 114.274 118.628 119.977H114.06C113.047 117.837 111.577 115.179 108 109.5C104.4 113.787 103.675 115.906 102.76 118.576C102.607 119.023 102.448 119.486 102.27 119.977H97.6143C99.2373 113.67 101.457 110.201 104.016 106.203L104.09 106.088C102.554 104.94 101.695 104.346 99.2307 103.809C94.5994 106.061 93.7163 112.503 93.0539 117.335C92.9224 118.295 92.7996 119.19 92.6579 119.977H88.936C88.9507 119.567 88.956 119.139 88.9618 118.672C88.9878 116.556 89.0236 113.641 89.9999 108C80.3651 107.251 74.969 113.725 70.996 118.492C70.5633 119.011 70.1475 119.51 69.7449 119.977H63.6969C70.3731 107.039 78.3493 101.307 92.0407 102.655C99.9254 90.4904 114.731 79.0455 130.5 73.5001C128.036 70.459 127.5 69.0001 126.536 65.9832C120.376 64.9099 112.984 62.7632 108.056 59.9011C89.9855 50.7983 81.8948 32.6486 81.8948 32.6486C84.2327 33.2144 86.6383 35.872 89.7704 39.3322C96.5413 46.8123 106.707 58.0431 126.923 60C127.732 58.1128 128.734 56.2607 129.766 54.3534C133.137 48.1253 136.826 41.3095 135.128 30.7646ZM102 99.0001C105.203 99.5367 108 102 107.7 102.238C112.489 97.5976 120.253 91.5247 131.834 92.598C132.551 91.5515 133.128 90.6154 133.673 89.7323C134.882 87.7697 135.931 86.0691 138 84.0001C137.441 83.4415 137.11 83.0579 136.812 82.7133C136.311 82.1324 135.904 81.6622 134.667 80.6517C116.434 84.5872 107.667 91.4869 102 99.0001Z" fill="url(#paint12_radial_1040_23460)"/>
<path fill-rule="evenodd" clip-rule="evenodd" d="M135.128 30.7646L138.363 30.2062C138.363 30.2062 142.768 39.219 141.043 47.6265C148.681 44.5855 158.471 45.409 166.849 46.1245C182.084 47.4173 188.801 43.2904 193.791 40.2248C195.015 39.4728 196.135 38.7846 197.252 38.256C197.252 38.256 187.396 52.7457 165.22 50.5991C127.275 47.3792 127.768 70.4553 168.177 87.2704C188.032 92.0755 194.013 105.705 198.943 116.94C199.398 117.976 199.843 118.991 200.29 119.977H194.35C194.05 119.234 193.748 118.44 193.434 117.614C191.567 112.711 189.275 106.69 184.5 103.5C176.044 105.693 173.477 110.394 170.396 116.039C169.706 117.302 168.99 118.613 168.177 119.954C168.169 119.962 168.16 119.97 168.152 119.977H165.082C164.946 119.914 164.826 119.846 164.728 119.775C166.51 111.005 171.138 102.716 178.772 98.1824C169.409 92.4581 162.535 92.9295 159.578 95.9705C157.442 100.643 155.034 110.616 156.286 119.977H150.532C147.814 110.444 148.453 101.465 150.683 90.1326C149.944 89.7748 147.493 88.6789 147 88.5001C139.372 93.0308 136.504 104.147 136.584 119.977H130.853C129.182 113.747 128.493 103.822 129.522 99.3431C121.144 98.8064 113.346 105.385 112.5 106.5C114.503 108.682 117.198 114.274 118.628 119.977H114.06C113.047 117.837 111.577 115.179 108 109.5C104.4 113.787 103.675 115.906 102.76 118.576C102.607 119.023 102.448 119.486 102.27 119.977H97.6143C99.2373 113.67 101.457 110.201 104.016 106.203L104.09 106.088C102.554 104.94 101.695 104.346 99.2307 103.809C94.5994 106.061 93.7163 112.503 93.0539 117.335C92.9224 118.295 92.7996 119.19 92.6579 119.977H88.936C88.9507 119.567 88.956 119.139 88.9618 118.672C88.9878 116.556 89.0236 113.641 89.9999 108C80.3651 107.251 74.969 113.725 70.996 118.492C70.5633 119.011 70.1475 119.51 69.7449 119.977H63.6969C70.3731 107.039 78.3493 101.307 92.0407 102.655C99.9254 90.4904 114.731 79.0455 130.5 73.5001C128.036 70.459 127.5 69.0001 126.536 65.9832C120.376 64.9099 112.984 62.7632 108.056 59.9011C89.9855 50.7983 81.8948 32.6486 81.8948 32.6486C84.2327 33.2144 86.6383 35.872 89.7704 39.3322C96.5413 46.8123 106.707 58.0431 126.923 60C127.732 58.1128 128.734 56.2607 129.766 54.3534C133.137 48.1253 136.826 41.3095 135.128 30.7646ZM102 99.0001C105.203 99.5367 108 102 107.7 102.238C112.489 97.5976 120.253 91.5247 131.834 92.598C132.551 91.5515 133.128 90.6154 133.673 89.7323C134.882 87.7697 135.931 86.0691 138 84.0001C137.441 83.4415 137.11 83.0579 136.812 82.7133C136.311 82.1324 135.904 81.6622 134.667 80.6517C116.434 84.5872 107.667 91.4869 102 99.0001Z" fill="url(#paint13_radial_1040_23460)"/>
<path fill-rule="evenodd" clip-rule="evenodd" d="M135.128 30.7646L138.363 30.2062C138.363 30.2062 142.768 39.219 141.043 47.6265C148.681 44.5855 158.471 45.409 166.849 46.1245C182.084 47.4173 188.801 43.2904 193.791 40.2248C195.015 39.4728 196.135 38.7846 197.252 38.256C197.252 38.256 187.396 52.7457 165.22 50.5991C127.275 47.3792 127.768 70.4553 168.177 87.2704C188.032 92.0755 194.013 105.705 198.943 116.94C199.398 117.976 199.843 118.991 200.29 119.977H194.35C194.05 119.234 193.748 118.44 193.434 117.614C191.567 112.711 189.275 106.69 184.5 103.5C176.044 105.693 173.477 110.394 170.396 116.039C169.706 117.302 168.99 118.613 168.177 119.954C168.169 119.962 168.16 119.97 168.152 119.977H165.082C164.946 119.914 164.826 119.846 164.728 119.775C166.51 111.005 171.138 102.716 178.772 98.1824C169.409 92.4581 162.535 92.9295 159.578 95.9705C157.442 100.643 155.034 110.616 156.286 119.977H150.532C147.814 110.444 148.453 101.465 150.683 90.1326C149.944 89.7748 147.493 88.6789 147 88.5001C139.372 93.0308 136.504 104.147 136.584 119.977H130.853C129.182 113.747 128.493 103.822 129.522 99.3431C121.144 98.8064 113.346 105.385 112.5 106.5C114.503 108.682 117.198 114.274 118.628 119.977H114.06C113.047 117.837 111.577 115.179 108 109.5C104.4 113.787 103.675 115.906 102.76 118.576C102.607 119.023 102.448 119.486 102.27 119.977H97.6143C99.2373 113.67 101.457 110.201 104.016 106.203L104.09 106.088C102.554 104.94 101.695 104.346 99.2307 103.809C94.5994 106.061 93.7163 112.503 93.0539 117.335C92.9224 118.295 92.7996 119.19 92.6579 119.977H88.936C88.9507 119.567 88.956 119.139 88.9618 118.672C88.9878 116.556 89.0236 113.641 89.9999 108C80.3651 107.251 74.969 113.725 70.996 118.492C70.5633 119.011 70.1475 119.51 69.7449 119.977H63.6969C70.3731 107.039 78.3493 101.307 92.0407 102.655C99.9254 90.4904 114.731 79.0455 130.5 73.5001C128.036 70.459 127.5 69.0001 126.536 65.9832C120.376 64.9099 112.984 62.7632 108.056 59.9011C89.9855 50.7983 81.8948 32.6486 81.8948 32.6486C84.2327 33.2144 86.6383 35.872 89.7704 39.3322C96.5413 46.8123 106.707 58.0431 126.923 60C127.732 58.1128 128.734 56.2607 129.766 54.3534C133.137 48.1253 136.826 41.3095 135.128 30.7646ZM102 99.0001C105.203 99.5367 108 102 107.7 102.238C112.489 97.5976 120.253 91.5247 131.834 92.598C132.551 91.5515 133.128 90.6154 133.673 89.7323C134.882 87.7697 135.931 86.0691 138 84.0001C137.441 83.4415 137.11 83.0579 136.812 82.7133C136.311 82.1324 135.904 81.6622 134.667 80.6517C116.434 84.5872 107.667 91.4869 102 99.0001Z" fill="url(#paint14_radial_1040_23460)"/>
<path d="M89.7252 18.6554C95.2931 16.1757 102.01 19.1116 104.727 25.213C104.94 25.6925 105.123 26.1774 105.275 26.6649C107.691 26.2668 110.336 26.73 112.689 28.1573C117.594 31.1339 119.369 37.176 116.653 41.6529C113.937 46.1297 107.758 47.3459 102.852 44.3694C101.342 43.4531 100.128 42.2463 99.2511 40.884C95.3072 42.4854 90.8431 41.4303 87.6483 38.5009C86.795 39.719 85.704 40.8212 84.3923 41.7327C80.9885 44.0979 76.8988 44.6225 73.4542 43.4839C72.3292 45.8775 69.6996 47.6698 66.5167 47.9131C62.0802 48.2523 58.2487 45.4535 57.9589 41.6619C57.6691 37.8703 61.0306 34.5217 65.4671 34.1826C65.7627 34.16 66.0556 34.1513 66.3449 34.156C66.1647 30.2415 68.1084 26.1697 71.797 23.6066C75.9894 20.6934 81.2225 20.5725 85.0091 22.9126C86.0875 21.0685 87.6884 19.5625 89.7252 18.6554Z" fill="url(#paint15_radial_1040_23460)"/>
<path d="M89.7252 18.6554C95.2931 16.1757 102.01 19.1116 104.727 25.213C104.94 25.6925 105.123 26.1774 105.275 26.6649C107.691 26.2668 110.336 26.73 112.689 28.1573C117.594 31.1339 119.369 37.176 116.653 41.6529C113.937 46.1297 107.758 47.3459 102.852 44.3694C101.342 43.4531 100.128 42.2463 99.2511 40.884C95.3072 42.4854 90.8431 41.4303 87.6483 38.5009C86.795 39.719 85.704 40.8212 84.3923 41.7327C80.9885 44.0979 76.8988 44.6225 73.4542 43.4839C72.3292 45.8775 69.6996 47.6698 66.5167 47.9131C62.0802 48.2523 58.2487 45.4535 57.9589 41.6619C57.6691 37.8703 61.0306 34.5217 65.4671 34.1826C65.7627 34.16 66.0556 34.1513 66.3449 34.156C66.1647 30.2415 68.1084 26.1697 71.797 23.6066C75.9894 20.6934 81.2225 20.5725 85.0091 22.9126C86.0875 21.0685 87.6884 19.5625 89.7252 18.6554Z" fill="url(#paint16_radial_1040_23460)"/>
<path d="M89.7252 18.6554C95.2931 16.1757 102.01 19.1116 104.727 25.213C104.94 25.6925 105.123 26.1774 105.275 26.6649C107.691 26.2668 110.336 26.73 112.689 28.1573C117.594 31.1339 119.369 37.176 116.653 41.6529C113.937 46.1297 107.758 47.3459 102.852 44.3694C101.342 43.4531 100.128 42.2463 99.2511 40.884C95.3072 42.4854 90.8431 41.4303 87.6483 38.5009C86.795 39.719 85.704 40.8212 84.3923 41.7327C80.9885 44.0979 76.8988 44.6225 73.4542 43.4839C72.3292 45.8775 69.6996 47.6698 66.5167 47.9131C62.0802 48.2523 58.2487 45.4535 57.9589 41.6619C57.6691 37.8703 61.0306 34.5217 65.4671 34.1826C65.7627 34.16 66.0556 34.1513 66.3449 34.156C66.1647 30.2415 68.1084 26.1697 71.797 23.6066C75.9894 20.6934 81.2225 20.5725 85.0091 22.9126C86.0875 21.0685 87.6884 19.5625 89.7252 18.6554Z" fill="url(#paint17_radial_1040_23460)"/>
<path d="M89.7252 18.6554C95.2931 16.1757 102.01 19.1116 104.727 25.213C104.94 25.6925 105.123 26.1774 105.275 26.6649C107.691 26.2668 110.336 26.73 112.689 28.1573C117.594 31.1339 119.369 37.176 116.653 41.6529C113.937 46.1297 107.758 47.3459 102.852 44.3694C101.342 43.4531 100.128 42.2463 99.2511 40.884C95.3072 42.4854 90.8431 41.4303 87.6483 38.5009C86.795 39.719 85.704 40.8212 84.3923 41.7327C80.9885 44.0979 76.8988 44.6225 73.4542 43.4839C72.3292 45.8775 69.6996 47.6698 66.5167 47.9131C62.0802 48.2523 58.2487 45.4535 57.9589 41.6619C57.6691 37.8703 61.0306 34.5217 65.4671 34.1826C65.7627 34.16 66.0556 34.1513 66.3449 34.156C66.1647 30.2415 68.1084 26.1697 71.797 23.6066C75.9894 20.6934 81.2225 20.5725 85.0091 22.9126C86.0875 21.0685 87.6884 19.5625 89.7252 18.6554Z" fill="url(#paint18_radial_1040_23460)"/>
<path d="M89.7252 18.6554C95.2931 16.1757 102.01 19.1116 104.727 25.213C104.94 25.6925 105.123 26.1774 105.275 26.6649C107.691 26.2668 110.336 26.73 112.689 28.1573C117.594 31.1339 119.369 37.176 116.653 41.6529C113.937 46.1297 107.758 47.3459 102.852 44.3694C101.342 43.4531 100.128 42.2463 99.2511 40.884C95.3072 42.4854 90.8431 41.4303 87.6483 38.5009C86.795 39.719 85.704 40.8212 84.3923 41.7327C80.9885 44.0979 76.8988 44.6225 73.4542 43.4839C72.3292 45.8775 69.6996 47.6698 66.5167 47.9131C62.0802 48.2523 58.2487 45.4535 57.9589 41.6619C57.6691 37.8703 61.0306 34.5217 65.4671 34.1826C65.7627 34.16 66.0556 34.1513 66.3449 34.156C66.1647 30.2415 68.1084 26.1697 71.797 23.6066C75.9894 20.6934 81.2225 20.5725 85.0091 22.9126C86.0875 21.0685 87.6884 19.5625 89.7252 18.6554Z" fill="url(#paint19_radial_1040_23460)"/>
<path d="M89.7252 18.6554C95.2931 16.1757 102.01 19.1116 104.727 25.213C104.94 25.6925 105.123 26.1774 105.275 26.6649C107.691 26.2668 110.336 26.73 112.689 28.1573C117.594 31.1339 119.369 37.176 116.653 41.6529C113.937 46.1297 107.758 47.3459 102.852 44.3694C101.342 43.4531 100.128 42.2463 99.2511 40.884C95.3072 42.4854 90.8431 41.4303 87.6483 38.5009C86.795 39.719 85.704 40.8212 84.3923 41.7327C80.9885 44.0979 76.8988 44.6225 73.4542 43.4839C72.3292 45.8775 69.6996 47.6698 66.5167 47.9131C62.0802 48.2523 58.2487 45.4535 57.9589 41.6619C57.6691 37.8703 61.0306 34.5217 65.4671 34.1826C65.7627 34.16 66.0556 34.1513 66.3449 34.156C66.1647 30.2415 68.1084 26.1697 71.797 23.6066C75.9894 20.6934 81.2225 20.5725 85.0091 22.9126C86.0875 21.0685 87.6884 19.5625 89.7252 18.6554Z" fill="url(#paint20_radial_1040_23460)"/>
<path d="M89.7252 18.6554C95.2931 16.1757 102.01 19.1116 104.727 25.213C104.94 25.6925 105.123 26.1774 105.275 26.6649C107.691 26.2668 110.336 26.73 112.689 28.1573C117.594 31.1339 119.369 37.176 116.653 41.6529C113.937 46.1297 107.758 47.3459 102.852 44.3694C101.342 43.4531 100.128 42.2463 99.2511 40.884C95.3072 42.4854 90.8431 41.4303 87.6483 38.5009C86.795 39.719 85.704 40.8212 84.3923 41.7327C80.9885 44.0979 76.8988 44.6225 73.4542 43.4839C72.3292 45.8775 69.6996 47.6698 66.5167 47.9131C62.0802 48.2523 58.2487 45.4535 57.9589 41.6619C57.6691 37.8703 61.0306 34.5217 65.4671 34.1826C65.7627 34.16 66.0556 34.1513 66.3449 34.156C66.1647 30.2415 68.1084 26.1697 71.797 23.6066C75.9894 20.6934 81.2225 20.5725 85.0091 22.9126C86.0875 21.0685 87.6884 19.5625 89.7252 18.6554Z" fill="url(#paint21_radial_1040_23460)"/>
<path d="M144.462 36.1184C140.994 40.0701 135.441 41.3351 131.079 38.8514C129.76 38.1003 128.681 37.0808 127.861 35.8855C126.448 36.8364 124.702 37.3977 122.812 37.396C118.117 37.3916 114.314 33.9147 114.318 29.6301C114.32 27.6013 115.175 25.7552 116.573 24.3741C114.71 21.0553 114.669 16.6606 116.829 12.8679C119.984 7.3275 126.64 5.16994 131.696 8.04881C131.922 7.45934 132.199 6.87932 132.522 6.31122C135.677 0.77086 142.333 -1.3867 147.389 1.49217C151.017 3.5582 152.835 7.65664 152.407 11.8541C152.984 11.8439 153.569 11.8646 154.159 11.918C159.732 12.4218 164.321 15.7009 166.418 20.1063C167.404 19.79 168.422 19.6219 169.439 19.6131C169.872 16.8755 171.766 14.3188 174.66 13.0129C179.041 11.0356 184.056 12.6742 185.86 16.6727C187.585 20.4939 185.753 25.0876 181.763 27.2131C182.977 27.1257 184.236 27.2203 185.498 27.5195C185.684 27.5635 185.868 27.6115 186.049 27.6633C188.068 23.1151 193.469 20.5693 198.939 21.8659C205.047 23.3141 208.928 29.0073 207.607 34.582C207.477 35.1273 207.303 35.6513 207.088 36.1515C209.844 38.0832 210.839 41.621 209.287 44.353C207.629 47.2722 203.692 48.1659 200.493 46.3492C198.864 45.424 197.741 43.9745 197.25 42.389C196.235 42.4083 195.195 42.3007 194.153 42.0536C193.967 42.0096 193.783 41.9616 193.602 41.9098C191.583 46.458 186.182 49.0038 180.712 47.7072C176.531 46.716 173.394 43.7362 172.254 40.1669C169.379 41.5048 166.066 41.5315 163.267 39.9378C162 39.2162 160.964 38.2342 160.181 37.0826C157.704 38.3273 154.794 38.9226 151.743 38.6468C149.023 38.4009 146.538 37.4943 144.462 36.1184Z" fill="url(#paint22_radial_1040_23460)"/>
<path d="M144.462 36.1184C140.994 40.0701 135.441 41.3351 131.079 38.8514C129.76 38.1003 128.681 37.0808 127.861 35.8855C126.448 36.8364 124.702 37.3977 122.812 37.396C118.117 37.3916 114.314 33.9147 114.318 29.6301C114.32 27.6013 115.175 25.7552 116.573 24.3741C114.71 21.0553 114.669 16.6606 116.829 12.8679C119.984 7.3275 126.64 5.16994 131.696 8.04881C131.922 7.45934 132.199 6.87932 132.522 6.31122C135.677 0.77086 142.333 -1.3867 147.389 1.49217C151.017 3.5582 152.835 7.65664 152.407 11.8541C152.984 11.8439 153.569 11.8646 154.159 11.918C159.732 12.4218 164.321 15.7009 166.418 20.1063C167.404 19.79 168.422 19.6219 169.439 19.6131C169.872 16.8755 171.766 14.3188 174.66 13.0129C179.041 11.0356 184.056 12.6742 185.86 16.6727C187.585 20.4939 185.753 25.0876 181.763 27.2131C182.977 27.1257 184.236 27.2203 185.498 27.5195C185.684 27.5635 185.868 27.6115 186.049 27.6633C188.068 23.1151 193.469 20.5693 198.939 21.8659C205.047 23.3141 208.928 29.0073 207.607 34.582C207.477 35.1273 207.303 35.6513 207.088 36.1515C209.844 38.0832 210.839 41.621 209.287 44.353C207.629 47.2722 203.692 48.1659 200.493 46.3492C198.864 45.424 197.741 43.9745 197.25 42.389C196.235 42.4083 195.195 42.3007 194.153 42.0536C193.967 42.0096 193.783 41.9616 193.602 41.9098C191.583 46.458 186.182 49.0038 180.712 47.7072C176.531 46.716 173.394 43.7362 172.254 40.1669C169.379 41.5048 166.066 41.5315 163.267 39.9378C162 39.2162 160.964 38.2342 160.181 37.0826C157.704 38.3273 154.794 38.9226 151.743 38.6468C149.023 38.4009 146.538 37.4943 144.462 36.1184Z" fill="url(#paint23_radial_1040_23460)"/>
<path d="M144.462 36.1184C140.994 40.0701 135.441 41.3351 131.079 38.8514C129.76 38.1003 128.681 37.0808 127.861 35.8855C126.448 36.8364 124.702 37.3977 122.812 37.396C118.117 37.3916 114.314 33.9147 114.318 29.6301C114.32 27.6013 115.175 25.7552 116.573 24.3741C114.71 21.0553 114.669 16.6606 116.829 12.8679C119.984 7.3275 126.64 5.16994 131.696 8.04881C131.922 7.45934 132.199 6.87932 132.522 6.31122C135.677 0.77086 142.333 -1.3867 147.389 1.49217C151.017 3.5582 152.835 7.65664 152.407 11.8541C152.984 11.8439 153.569 11.8646 154.159 11.918C159.732 12.4218 164.321 15.7009 166.418 20.1063C167.404 19.79 168.422 19.6219 169.439 19.6131C169.872 16.8755 171.766 14.3188 174.66 13.0129C179.041 11.0356 184.056 12.6742 185.86 16.6727C187.585 20.4939 185.753 25.0876 181.763 27.2131C182.977 27.1257 184.236 27.2203 185.498 27.5195C185.684 27.5635 185.868 27.6115 186.049 27.6633C188.068 23.1151 193.469 20.5693 198.939 21.8659C205.047 23.3141 208.928 29.0073 207.607 34.582C207.477 35.1273 207.303 35.6513 207.088 36.1515C209.844 38.0832 210.839 41.621 209.287 44.353C207.629 47.2722 203.692 48.1659 200.493 46.3492C198.864 45.424 197.741 43.9745 197.25 42.389C196.235 42.4083 195.195 42.3007 194.153 42.0536C193.967 42.0096 193.783 41.9616 193.602 41.9098C191.583 46.458 186.182 49.0038 180.712 47.7072C176.531 46.716 173.394 43.7362 172.254 40.1669C169.379 41.5048 166.066 41.5315 163.267 39.9378C162 39.2162 160.964 38.2342 160.181 37.0826C157.704 38.3273 154.794 38.9226 151.743 38.6468C149.023 38.4009 146.538 37.4943 144.462 36.1184Z" fill="url(#paint24_radial_1040_23460)"/>
<path d="M144.462 36.1184C140.994 40.0701 135.441 41.3351 131.079 38.8514C129.76 38.1003 128.681 37.0808 127.861 35.8855C126.448 36.8364 124.702 37.3977 122.812 37.396C118.117 37.3916 114.314 33.9147 114.318 29.6301C114.32 27.6013 115.175 25.7552 116.573 24.3741C114.71 21.0553 114.669 16.6606 116.829 12.8679C119.984 7.3275 126.64 5.16994 131.696 8.04881C131.922 7.45934 132.199 6.87932 132.522 6.31122C135.677 0.77086 142.333 -1.3867 147.389 1.49217C151.017 3.5582 152.835 7.65664 152.407 11.8541C152.984 11.8439 153.569 11.8646 154.159 11.918C159.732 12.4218 164.321 15.7009 166.418 20.1063C167.404 19.79 168.422 19.6219 169.439 19.6131C169.872 16.8755 171.766 14.3188 174.66 13.0129C179.041 11.0356 184.056 12.6742 185.86 16.6727C187.585 20.4939 185.753 25.0876 181.763 27.2131C182.977 27.1257 184.236 27.2203 185.498 27.5195C185.684 27.5635 185.868 27.6115 186.049 27.6633C188.068 23.1151 193.469 20.5693 198.939 21.8659C205.047 23.3141 208.928 29.0073 207.607 34.582C207.477 35.1273 207.303 35.6513 207.088 36.1515C209.844 38.0832 210.839 41.621 209.287 44.353C207.629 47.2722 203.692 48.1659 200.493 46.3492C198.864 45.424 197.741 43.9745 197.25 42.389C196.235 42.4083 195.195 42.3007 194.153 42.0536C193.967 42.0096 193.783 41.9616 193.602 41.9098C191.583 46.458 186.182 49.0038 180.712 47.7072C176.531 46.716 173.394 43.7362 172.254 40.1669C169.379 41.5048 166.066 41.5315 163.267 39.9378C162 39.2162 160.964 38.2342 160.181 37.0826C157.704 38.3273 154.794 38.9226 151.743 38.6468C149.023 38.4009 146.538 37.4943 144.462 36.1184Z" fill="url(#paint25_radial_1040_23460)"/>
<path d="M144.462 36.1184C140.994 40.0701 135.441 41.3351 131.079 38.8514C129.76 38.1003 128.681 37.0808 127.861 35.8855C126.448 36.8364 124.702 37.3977 122.812 37.396C118.117 37.3916 114.314 33.9147 114.318 29.6301C114.32 27.6013 115.175 25.7552 116.573 24.3741C114.71 21.0553 114.669 16.6606 116.829 12.8679C119.984 7.3275 126.64 5.16994 131.696 8.04881C131.922 7.45934 132.199 6.87932 132.522 6.31122C135.677 0.77086 142.333 -1.3867 147.389 1.49217C151.017 3.5582 152.835 7.65664 152.407 11.8541C152.984 11.8439 153.569 11.8646 154.159 11.918C159.732 12.4218 164.321 15.7009 166.418 20.1063C167.404 19.79 168.422 19.6219 169.439 19.6131C169.872 16.8755 171.766 14.3188 174.66 13.0129C179.041 11.0356 184.056 12.6742 185.86 16.6727C187.585 20.4939 185.753 25.0876 181.763 27.2131C182.977 27.1257 184.236 27.2203 185.498 27.5195C185.684 27.5635 185.868 27.6115 186.049 27.6633C188.068 23.1151 193.469 20.5693 198.939 21.8659C205.047 23.3141 208.928 29.0073 207.607 34.582C207.477 35.1273 207.303 35.6513 207.088 36.1515C209.844 38.0832 210.839 41.621 209.287 44.353C207.629 47.2722 203.692 48.1659 200.493 46.3492C198.864 45.424 197.741 43.9745 197.25 42.389C196.235 42.4083 195.195 42.3007 194.153 42.0536C193.967 42.0096 193.783 41.9616 193.602 41.9098C191.583 46.458 186.182 49.0038 180.712 47.7072C176.531 46.716 173.394 43.7362 172.254 40.1669C169.379 41.5048 166.066 41.5315 163.267 39.9378C162 39.2162 160.964 38.2342 160.181 37.0826C157.704 38.3273 154.794 38.9226 151.743 38.6468C149.023 38.4009 146.538 37.4943 144.462 36.1184Z" fill="url(#paint26_radial_1040_23460)"/>
<path d="M144.462 36.1184C140.994 40.0701 135.441 41.3351 131.079 38.8514C129.76 38.1003 128.681 37.0808 127.861 35.8855C126.448 36.8364 124.702 37.3977 122.812 37.396C118.117 37.3916 114.314 33.9147 114.318 29.6301C114.32 27.6013 115.175 25.7552 116.573 24.3741C114.71 21.0553 114.669 16.6606 116.829 12.8679C119.984 7.3275 126.64 5.16994 131.696 8.04881C131.922 7.45934 132.199 6.87932 132.522 6.31122C135.677 0.77086 142.333 -1.3867 147.389 1.49217C151.017 3.5582 152.835 7.65664 152.407 11.8541C152.984 11.8439 153.569 11.8646 154.159 11.918C159.732 12.4218 164.321 15.7009 166.418 20.1063C167.404 19.79 168.422 19.6219 169.439 19.6131C169.872 16.8755 171.766 14.3188 174.66 13.0129C179.041 11.0356 184.056 12.6742 185.86 16.6727C187.585 20.4939 185.753 25.0876 181.763 27.2131C182.977 27.1257 184.236 27.2203 185.498 27.5195C185.684 27.5635 185.868 27.6115 186.049 27.6633C188.068 23.1151 193.469 20.5693 198.939 21.8659C205.047 23.3141 208.928 29.0073 207.607 34.582C207.477 35.1273 207.303 35.6513 207.088 36.1515C209.844 38.0832 210.839 41.621 209.287 44.353C207.629 47.2722 203.692 48.1659 200.493 46.3492C198.864 45.424 197.741 43.9745 197.25 42.389C196.235 42.4083 195.195 42.3007 194.153 42.0536C193.967 42.0096 193.783 41.9616 193.602 41.9098C191.583 46.458 186.182 49.0038 180.712 47.7072C176.531 46.716 173.394 43.7362 172.254 40.1669C169.379 41.5048 166.066 41.5315 163.267 39.9378C162 39.2162 160.964 38.2342 160.181 37.0826C157.704 38.3273 154.794 38.9226 151.743 38.6468C149.023 38.4009 146.538 37.4943 144.462 36.1184Z" fill="url(#paint27_radial_1040_23460)"/>
<path d="M144.462 36.1184C140.994 40.0701 135.441 41.3351 131.079 38.8514C129.76 38.1003 128.681 37.0808 127.861 35.8855C126.448 36.8364 124.702 37.3977 122.812 37.396C118.117 37.3916 114.314 33.9147 114.318 29.6301C114.32 27.6013 115.175 25.7552 116.573 24.3741C114.71 21.0553 114.669 16.6606 116.829 12.8679C119.984 7.3275 126.64 5.16994 131.696 8.04881C131.922 7.45934 132.199 6.87932 132.522 6.31122C135.677 0.77086 142.333 -1.3867 147.389 1.49217C151.017 3.5582 152.835 7.65664 152.407 11.8541C152.984 11.8439 153.569 11.8646 154.159 11.918C159.732 12.4218 164.321 15.7009 166.418 20.1063C167.404 19.79 168.422 19.6219 169.439 19.6131C169.872 16.8755 171.766 14.3188 174.66 13.0129C179.041 11.0356 184.056 12.6742 185.86 16.6727C187.585 20.4939 185.753 25.0876 181.763 27.2131C182.977 27.1257 184.236 27.2203 185.498 27.5195C185.684 27.5635 185.868 27.6115 186.049 27.6633C188.068 23.1151 193.469 20.5693 198.939 21.8659C205.047 23.3141 208.928 29.0073 207.607 34.582C207.477 35.1273 207.303 35.6513 207.088 36.1515C209.844 38.0832 210.839 41.621 209.287 44.353C207.629 47.2722 203.692 48.1659 200.493 46.3492C198.864 45.424 197.741 43.9745 197.25 42.389C196.235 42.4083 195.195 42.3007 194.153 42.0536C193.967 42.0096 193.783 41.9616 193.602 41.9098C191.583 46.458 186.182 49.0038 180.712 47.7072C176.531 46.716 173.394 43.7362 172.254 40.1669C169.379 41.5048 166.066 41.5315 163.267 39.9378C162 39.2162 160.964 38.2342 160.181 37.0826C157.704 38.3273 154.794 38.9226 151.743 38.6468C149.023 38.4009 146.538 37.4943 144.462 36.1184Z" fill="url(#paint28_radial_1040_23460)"/>
<defs>
<radialGradient id="paint0_radial_1040_23460" cx="0" cy="0" r="1" gradientUnits="userSpaceOnUse" gradientTransform="translate(143.918 116.397) rotate(-68.0319) scale(78.9679 344.808)">
<stop stop-color="#C8F1EF"/>
<stop offset="0.0001" stop-color="#A9E9E6"/>
<stop offset="1" stop-color="#46B8DC"/>
</radialGradient>
<radialGradient id="paint1_radial_1040_23460" cx="0" cy="0" r="1" gradientUnits="userSpaceOnUse" gradientTransform="translate(136.19 70.4649) rotate(116.71) scale(65.3477 117.435)">
<stop stop-color="#D7B084"/>
<stop offset="1" stop-color="#78561F"/>
</radialGradient>
<radialGradient id="paint2_radial_1040_23460" cx="0" cy="0" r="1" gradientUnits="userSpaceOnUse" gradientTransform="translate(144 63.0001) rotate(71.5651) scale(18.9737 11.2382)">
<stop stop-color="#3E2A0A" stop-opacity="0.48"/>
<stop offset="1" stop-color="#3F2A0A" stop-opacity="0"/>
</radialGradient>
<radialGradient id="paint3_radial_1040_23460" cx="0" cy="0" r="1" gradientUnits="userSpaceOnUse" gradientTransform="translate(157.5 73.5001) rotate(32.9052) scale(30.3727 12.4611)">
<stop stop-color="#3E2A0A" stop-opacity="0.77"/>
<stop offset="1" stop-color="#3F2A0A" stop-opacity="0"/>
</radialGradient>
<radialGradient id="paint4_radial_1040_23460" cx="0" cy="0" r="1" gradientUnits="userSpaceOnUse" gradientTransform="translate(117 90.0001) rotate(149.744) scale(20.8387 5.6374)">
<stop stop-color="#3E2A0A" stop-opacity="0.69"/>
<stop offset="1" stop-color="#3F2A0A" stop-opacity="0"/>
</radialGradient>
<radialGradient id="paint5_radial_1040_23460" cx="0" cy="0" r="1" gradientUnits="userSpaceOnUse" gradientTransform="translate(141 103.5) rotate(105.945) scale(21.8403 7.48938)">
<stop stop-color="#3E2A0A" stop-opacity="0.75"/>
<stop offset="1" stop-color="#3F2A0A" stop-opacity="0"/>
</radialGradient>
<radialGradient id="paint6_radial_1040_23460" cx="0" cy="0" r="1" gradientUnits="userSpaceOnUse" gradientTransform="translate(159 112.5) rotate(93.8141) scale(22.5499 7.73272)">
<stop stop-color="#3E2A0A" stop-opacity="0.57"/>
<stop offset="1" stop-color="#3F2A0A" stop-opacity="0"/>
</radialGradient>
<radialGradient id="paint7_radial_1040_23460" cx="0" cy="0" r="1" gradientUnits="userSpaceOnUse" gradientTransform="translate(174 117) rotate(120.256) scale(20.8387 6.13761)">
<stop stop-color="#3E2A0A" stop-opacity="0.55"/>
<stop offset="1" stop-color="#3F2A0A" stop-opacity="0"/>
</radialGradient>
<radialGradient id="paint8_radial_1040_23460" cx="0" cy="0" r="1" gradientUnits="userSpaceOnUse" gradientTransform="translate(121.5 102) rotate(161.565) scale(9.48683 4.42925)">
<stop stop-color="#3E2A0A" stop-opacity="0.57"/>
<stop offset="1" stop-color="#3F2A0A" stop-opacity="0"/>
</radialGradient>
<radialGradient id="paint9_radial_1040_23460" cx="0" cy="0" r="1" gradientUnits="userSpaceOnUse" gradientTransform="translate(111 48.0001) rotate(31.6075) scale(22.8965 10.69)">
<stop stop-color="#3E2A0A" stop-opacity="0.6"/>
<stop offset="1" stop-color="#3F2A0A" stop-opacity="0"/>
</radialGradient>
<radialGradient id="paint10_radial_1040_23460" cx="0" cy="0" r="1" gradientUnits="userSpaceOnUse" gradientTransform="translate(94.5 117) rotate(105.255) scale(17.1026 5.63779)">
<stop stop-color="#3E2A0A" stop-opacity="0.59"/>
<stop offset="1" stop-color="#3F2A0A" stop-opacity="0"/>
</radialGradient>
<radialGradient id="paint11_radial_1040_23460" cx="0" cy="0" r="1" gradientUnits="userSpaceOnUse" gradientTransform="translate(103.5 118.5) rotate(110.556) scale(12.816 3.50065)">
<stop stop-color="#3E2A0A" stop-opacity="0.68"/>
<stop offset="1" stop-color="#3F2A0A" stop-opacity="0"/>
</radialGradient>
<radialGradient id="paint12_radial_1040_23460" cx="0" cy="0" r="1" gradientUnits="userSpaceOnUse" gradientTransform="translate(78 117) rotate(138.814) scale(15.9452 7.57531)">
<stop stop-color="#3E2A0A" stop-opacity="0.56"/>
<stop offset="1" stop-color="#3F2A0A" stop-opacity="0"/>
</radialGradient>
<radialGradient id="paint13_radial_1040_23460" cx="0" cy="0" r="1" gradientUnits="userSpaceOnUse" gradientTransform="translate(105.517 99.9815) rotate(22.9127) scale(3.90034 2.44565)">
<stop stop-color="#3E2A0A" stop-opacity="0.31"/>
<stop offset="1" stop-color="#3F2A0A" stop-opacity="0"/>
</radialGradient>
<radialGradient id="paint14_radial_1040_23460" cx="0" cy="0" r="1" gradientUnits="userSpaceOnUse" gradientTransform="translate(117.926 115.396) rotate(62.1027) scale(14.6937 4.15659)">
<stop stop-color="#3E2A0A" stop-opacity="0.6"/>
<stop offset="1" stop-color="#3F2A0A" stop-opacity="0"/>
</radialGradient>
<radialGradient id="paint15_radial_1040_23460" cx="0" cy="0" r="1" gradientUnits="userSpaceOnUse" gradientTransform="translate(78.3429 29.7827) rotate(39.1734) scale(29.8138 44.4293)">
<stop stop-color="#B6DE60"/>
<stop offset="1" stop-color="#3CC372"/>
</radialGradient>
<radialGradient id="paint16_radial_1040_23460" cx="0" cy="0" r="1" gradientUnits="userSpaceOnUse" gradientTransform="translate(68.6033 18.4748) rotate(16.9659) scale(21.986 11.7679)">
<stop stop-color="white"/>
<stop offset="1" stop-color="white" stop-opacity="0"/>
</radialGradient>
<radialGradient id="paint17_radial_1040_23460" cx="0" cy="0" r="1" gradientUnits="userSpaceOnUse" gradientTransform="translate(51.8645 33.7947) rotate(7.69549) scale(23.1197 14.881)">
<stop stop-color="white"/>
<stop offset="1" stop-color="white" stop-opacity="0"/>
</radialGradient>
<radialGradient id="paint18_radial_1040_23460" cx="0" cy="0" r="1" gradientUnits="userSpaceOnUse" gradientTransform="translate(113.533 38.7753) rotate(-167.14) scale(14.0655 7.27416)">
<stop stop-color="#17AD46"/>
<stop offset="1" stop-color="#17AD45" stop-opacity="0"/>
</radialGradient>
<radialGradient id="paint19_radial_1040_23460" cx="0" cy="0" r="1" gradientUnits="userSpaceOnUse" gradientTransform="translate(96.0307 11.8653) rotate(93.9981) scale(12.3814 16.7799)">
<stop stop-color="#17AD46"/>
<stop offset="1" stop-color="#17AD45" stop-opacity="0"/>
</radialGradient>
<radialGradient id="paint20_radial_1040_23460" cx="0" cy="0" r="1" gradientUnits="userSpaceOnUse" gradientTransform="translate(79.86 30.3175) rotate(10.8557) scale(43.467 25.4678)">
<stop offset="0.385116" stop-color="#17AD45" stop-opacity="0"/>
<stop offset="1" stop-color="#17AD46"/>
</radialGradient>
<radialGradient id="paint21_radial_1040_23460" cx="0" cy="0" r="1" gradientUnits="userSpaceOnUse" gradientTransform="translate(94.071 35.6664) rotate(26.1923) scale(27.5314 24.7862)">
<stop offset="0.767203" stop-color="#B6DE60" stop-opacity="0"/>
<stop offset="1" stop-color="#98D748" stop-opacity="0.8"/>
</radialGradient>
<radialGradient id="paint22_radial_1040_23460" cx="0" cy="0" r="1" gradientUnits="userSpaceOnUse" gradientTransform="translate(145.9 20.6891) rotate(40.6906) scale(51.7698 76.085)">
<stop stop-color="#AEDA4F"/>
<stop offset="1" stop-color="#37B369"/>
</radialGradient>
<radialGradient id="paint23_radial_1040_23460" cx="0" cy="0" r="1" gradientUnits="userSpaceOnUse" gradientTransform="translate(128.702 -0.00275116) rotate(16.7909) scale(35.1254 21.9034)">
<stop stop-color="#FFF8FF"/>
<stop offset="1" stop-color="#FFF8FF" stop-opacity="0"/>
</radialGradient>
<radialGradient id="paint24_radial_1040_23460" cx="0" cy="0" r="1" gradientUnits="userSpaceOnUse" gradientTransform="translate(105.913 31.1052) rotate(5.70662) scale(36.0583 28.3725)">
<stop stop-color="#FFF8FF"/>
<stop offset="1" stop-color="#FFF8FF" stop-opacity="0"/>
</radialGradient>
<radialGradient id="paint25_radial_1040_23460" cx="0" cy="0" r="1" gradientUnits="userSpaceOnUse" gradientTransform="translate(201.833 34.3249) rotate(-168.052) scale(22.2041 13.7024)">
<stop stop-color="#159B3F"/>
<stop offset="1" stop-color="#149B3E" stop-opacity="0"/>
</radialGradient>
<radialGradient id="paint26_radial_1040_23460" cx="0" cy="0" r="1" gradientUnits="userSpaceOnUse" gradientTransform="translate(169.645 -15.4994) rotate(87.4094) scale(23.8069 25.9506)">
<stop stop-color="#159B3F"/>
<stop offset="1" stop-color="#149B3E" stop-opacity="0"/>
</radialGradient>
<radialGradient id="paint27_radial_1040_23460" cx="0" cy="0" r="1" gradientUnits="userSpaceOnUse" gradientTransform="translate(148.34 21.5591) rotate(9.54398) scale(68.2675 48.22)">
<stop offset="0.385116" stop-color="#149B3E" stop-opacity="0"/>
<stop offset="1" stop-color="#159B3F"/>
</radialGradient>
<radialGradient id="paint28_radial_1040_23460" cx="0" cy="0" r="1" gradientUnits="userSpaceOnUse" gradientTransform="translate(171.262 30.3602) rotate(27.2101) scale(45.4314 44.6654)">
<stop offset="0.767203" stop-color="#AEDA4F" stop-opacity="0"/>
<stop offset="1" stop-color="#8FD438" stop-opacity="0.8"/>
</radialGradient>
</defs>
</svg>
