<svg viewBox="0 0 240 120" fill="none" xmlns="http://www.w3.org/2000/svg">
<path d="M173.852 15.6299C162.661 16.6869 153.53 18.801 140.739 28.7497C140.739 12.9875 72.3457 -3.34682 72.3457 31.9239C47.8016 12.7229 13.6383 34.3917 23.3225 57.7184C1.2684 68.7732 8.0414 93.6559 29.5818 97.3033L117.894 105.936L210.075 95.2569C228.303 95.2569 238.533 76.7905 220.372 68.7732C226.864 57.7184 220.372 39.557 198.132 39.557C200.652 26.7294 185.043 14.5729 173.852 15.6299Z" fill="url(#paint0_radial_10518_34374)"/>
<path d="M112.811 34.9437C112.217 39.1015 117.327 44.3482 123.151 42.6653C125.052 43.7212 130.02 45.8331 134.679 45.8331C139.338 45.8331 144.702 43.7212 146.802 42.6653C147.871 43.2592 151.033 44.7243 155.121 45.8331C159.209 46.9418 163.401 44.7771 164.986 43.5562C166.253 44.7111 170.286 47.0804 176.276 47.318C182.266 47.5556 186.616 44.9091 188.042 43.5562C189.904 43.8862 194.816 44.5263 199.57 44.4471C204.324 44.3679 207.811 42.3023 208.959 41.2793C210.465 42.2033 214.26 43.2394 217.398 39.9924C220.535 36.7453 216.09 34.2837 213.476 33.4587C214.268 32.6998 215.258 30.4493 212.881 27.519C210.504 24.5888 206.345 24.1862 204.562 24.3512C205.156 22.6353 204.99 18.2334 199.57 14.3532C194.151 10.473 186.061 11.8779 182.694 13.0654C181.624 11.0195 177.179 7.02669 167.957 7.42267C158.734 7.81865 155.557 13.066 155.121 15.6402C154.21 14.9142 151.532 13.6405 148.109 14.3532C144.686 15.066 142.721 17.1574 142.167 18.114C140.463 17.586 136.034 16.8469 131.946 18.114C127.857 19.3811 126.597 22.8001 126.479 24.3512C125.567 24.2852 123.389 24.4106 121.962 25.4402C120.536 26.4697 120.021 28.443 119.942 29.301C117.763 29.796 113.286 31.6175 112.811 34.9437Z" fill="url(#paint1_radial_10518_34374)"/>
<path d="M112.811 34.9437C112.217 39.1015 117.327 44.3482 123.151 42.6653C125.052 43.7212 130.02 45.8331 134.679 45.8331C139.338 45.8331 144.702 43.7212 146.802 42.6653C147.871 43.2592 151.033 44.7243 155.121 45.8331C159.209 46.9418 163.401 44.7771 164.986 43.5562C166.253 44.7111 170.286 47.0804 176.276 47.318C182.266 47.5556 186.616 44.9091 188.042 43.5562C189.904 43.8862 194.816 44.5263 199.57 44.4471C204.324 44.3679 207.811 42.3023 208.959 41.2793C210.465 42.2033 214.26 43.2394 217.398 39.9924C220.535 36.7453 216.09 34.2837 213.476 33.4587C214.268 32.6998 215.258 30.4493 212.881 27.519C210.504 24.5888 206.345 24.1862 204.562 24.3512C205.156 22.6353 204.99 18.2334 199.57 14.3532C194.151 10.473 186.061 11.8779 182.694 13.0654C181.624 11.0195 177.179 7.02669 167.957 7.42267C158.734 7.81865 155.557 13.066 155.121 15.6402C154.21 14.9142 151.532 13.6405 148.109 14.3532C144.686 15.066 142.721 17.1574 142.167 18.114C140.463 17.586 136.034 16.8469 131.946 18.114C127.857 19.3811 126.597 22.8001 126.479 24.3512C125.567 24.2852 123.389 24.4106 121.962 25.4402C120.536 26.4697 120.021 28.443 119.942 29.301C117.763 29.796 113.286 31.6175 112.811 34.9437Z" fill="url(#paint2_radial_10518_34374)"/>
<path d="M112.811 34.9437C112.217 39.1015 117.327 44.3482 123.151 42.6653C125.052 43.7212 130.02 45.8331 134.679 45.8331C139.338 45.8331 144.702 43.7212 146.802 42.6653C147.871 43.2592 151.033 44.7243 155.121 45.8331C159.209 46.9418 163.401 44.7771 164.986 43.5562C166.253 44.7111 170.286 47.0804 176.276 47.318C182.266 47.5556 186.616 44.9091 188.042 43.5562C189.904 43.8862 194.816 44.5263 199.57 44.4471C204.324 44.3679 207.811 42.3023 208.959 41.2793C210.465 42.2033 214.26 43.2394 217.398 39.9924C220.535 36.7453 216.09 34.2837 213.476 33.4587C214.268 32.6998 215.258 30.4493 212.881 27.519C210.504 24.5888 206.345 24.1862 204.562 24.3512C205.156 22.6353 204.99 18.2334 199.57 14.3532C194.151 10.473 186.061 11.8779 182.694 13.0654C181.624 11.0195 177.179 7.02669 167.957 7.42267C158.734 7.81865 155.557 13.066 155.121 15.6402C154.21 14.9142 151.532 13.6405 148.109 14.3532C144.686 15.066 142.721 17.1574 142.167 18.114C140.463 17.586 136.034 16.8469 131.946 18.114C127.857 19.3811 126.597 22.8001 126.479 24.3512C125.567 24.2852 123.389 24.4106 121.962 25.4402C120.536 26.4697 120.021 28.443 119.942 29.301C117.763 29.796 113.286 31.6175 112.811 34.9437Z" fill="url(#paint3_radial_10518_34374)"/>
<path d="M112.811 34.9437C112.217 39.1015 117.327 44.3482 123.151 42.6653C125.052 43.7212 130.02 45.8331 134.679 45.8331C139.338 45.8331 144.702 43.7212 146.802 42.6653C147.871 43.2592 151.033 44.7243 155.121 45.8331C159.209 46.9418 163.401 44.7771 164.986 43.5562C166.253 44.7111 170.286 47.0804 176.276 47.318C182.266 47.5556 186.616 44.9091 188.042 43.5562C189.904 43.8862 194.816 44.5263 199.57 44.4471C204.324 44.3679 207.811 42.3023 208.959 41.2793C210.465 42.2033 214.26 43.2394 217.398 39.9924C220.535 36.7453 216.09 34.2837 213.476 33.4587C214.268 32.6998 215.258 30.4493 212.881 27.519C210.504 24.5888 206.345 24.1862 204.562 24.3512C205.156 22.6353 204.99 18.2334 199.57 14.3532C194.151 10.473 186.061 11.8779 182.694 13.0654C181.624 11.0195 177.179 7.02669 167.957 7.42267C158.734 7.81865 155.557 13.066 155.121 15.6402C154.21 14.9142 151.532 13.6405 148.109 14.3532C144.686 15.066 142.721 17.1574 142.167 18.114C140.463 17.586 136.034 16.8469 131.946 18.114C127.857 19.3811 126.597 22.8001 126.479 24.3512C125.567 24.2852 123.389 24.4106 121.962 25.4402C120.536 26.4697 120.021 28.443 119.942 29.301C117.763 29.796 113.286 31.6175 112.811 34.9437Z" fill="url(#paint4_radial_10518_34374)"/>
<path d="M112.811 34.9437C112.217 39.1015 117.327 44.3482 123.151 42.6653C125.052 43.7212 130.02 45.8331 134.679 45.8331C139.338 45.8331 144.702 43.7212 146.802 42.6653C147.871 43.2592 151.033 44.7243 155.121 45.8331C159.209 46.9418 163.401 44.7771 164.986 43.5562C166.253 44.7111 170.286 47.0804 176.276 47.318C182.266 47.5556 186.616 44.9091 188.042 43.5562C189.904 43.8862 194.816 44.5263 199.57 44.4471C204.324 44.3679 207.811 42.3023 208.959 41.2793C210.465 42.2033 214.26 43.2394 217.398 39.9924C220.535 36.7453 216.09 34.2837 213.476 33.4587C214.268 32.6998 215.258 30.4493 212.881 27.519C210.504 24.5888 206.345 24.1862 204.562 24.3512C205.156 22.6353 204.99 18.2334 199.57 14.3532C194.151 10.473 186.061 11.8779 182.694 13.0654C181.624 11.0195 177.179 7.02669 167.957 7.42267C158.734 7.81865 155.557 13.066 155.121 15.6402C154.21 14.9142 151.532 13.6405 148.109 14.3532C144.686 15.066 142.721 17.1574 142.167 18.114C140.463 17.586 136.034 16.8469 131.946 18.114C127.857 19.3811 126.597 22.8001 126.479 24.3512C125.567 24.2852 123.389 24.4106 121.962 25.4402C120.536 26.4697 120.021 28.443 119.942 29.301C117.763 29.796 113.286 31.6175 112.811 34.9437Z" fill="url(#paint5_radial_10518_34374)"/>
<path d="M167.953 7.42145C177.174 7.02553 181.621 11.0172 182.692 13.0633C182.992 12.9572 183.332 12.8513 183.703 12.7456C185.588 15.9852 184.924 19.7897 181.268 22.8579C180.644 19.9468 173.17 19.277 169.894 22.8806C165.456 15.9647 150.978 18.6964 149.999 26.0859C145.047 24.3611 142.314 21.2677 142.245 17.9961C142.886 16.9943 144.82 15.0353 148.106 14.3511C151.528 13.6385 154.206 14.9129 155.118 15.6389C155.554 13.0648 158.731 7.81784 167.953 7.42145Z" fill="url(#paint6_radial_10518_34374)"/>
<path d="M167.953 7.42145C177.174 7.02553 181.621 11.0172 182.692 13.0633C182.992 12.9572 183.332 12.8513 183.703 12.7456C185.588 15.9852 184.924 19.7897 181.268 22.8579C180.644 19.9468 173.17 19.277 169.894 22.8806C165.456 15.9647 150.978 18.6964 149.999 26.0859C145.047 24.3611 142.314 21.2677 142.245 17.9961C142.886 16.9943 144.82 15.0353 148.106 14.3511C151.528 13.6385 154.206 14.9129 155.118 15.6389C155.554 13.0648 158.731 7.81784 167.953 7.42145Z" fill="url(#paint7_radial_10518_34374)"/>
<path d="M172.028 27.9222C164.159 20.9368 180.545 15.343 193.029 17.8185C203.932 19.9809 209.975 26.6447 209.198 30.4694C207.125 28.641 201.577 27.7714 199.339 29.7064C199.694 27.034 194.703 25.3522 192.089 28.4214C191.357 21.8866 176.541 22.8685 172.028 27.9222Z" fill="url(#paint8_radial_10518_34374)"/>
<path d="M145.615 30.8857C147.16 32.2058 151.818 34.8454 158.092 34.8455C164.367 34.8455 167.523 33.1308 168.315 32.2728C169.386 33.2962 172.69 35.3995 177.347 35.6369C182.004 35.8744 184.754 34.7475 185.547 34.1534C186.102 34.6485 188.091 35.6369 191.608 35.6369C195.124 35.6369 197.429 34.6487 198.143 34.1534C199.609 35.9023 203.184 39.5388 205.751 40.0931C207.054 40.3746 207.039 41.5155 206.507 42.8191C204.8 43.6393 202.413 44.3997 199.57 44.4472C194.816 44.5264 189.902 43.8865 188.04 43.5566C186.613 44.9096 182.263 47.5554 176.274 47.3178C170.285 47.0799 166.253 44.7114 164.985 43.5566C163.4 44.7775 159.208 46.943 155.119 45.8343C151.031 44.7256 147.87 43.2598 146.8 42.6659C144.7 43.7219 139.335 45.8343 134.677 45.8343C130.267 45.8339 125.584 43.9365 123.483 42.8389C123.577 40.9992 123.298 39.2135 122.08 38.7061C127.308 40.3886 133.251 35.3429 133.372 34.1534C134.561 34.6154 137.579 35.3995 140.146 34.8455C142.713 34.2912 144.862 31.9747 145.615 30.8857Z" fill="url(#paint9_radial_10518_34374)"/>
<path d="M138.026 22.3711C130.952 18.8714 124.1 24.4824 126.384 29.7263C128.553 33.8503 154.443 22.1972 154.437 18.8556C154.431 15.9655 146.556 16.653 145.815 20.054C144.8 18.0946 138.381 19.3996 138.026 22.3711Z" fill="url(#paint10_radial_10518_34374)"/>
<path d="M138.026 22.3711C130.952 18.8714 124.1 24.4824 126.384 29.7263C128.553 33.8503 154.443 22.1972 154.437 18.8556C154.431 15.9655 146.556 16.653 145.815 20.054C144.8 18.0946 138.381 19.3996 138.026 22.3711Z" fill="url(#paint11_radial_10518_34374)"/>
<path d="M130.633 30.6335C124.244 26.2508 114.848 34.9118 119.233 37.7292C122.365 39.7114 149.55 30.6335 149.926 28.86C150.302 27.0866 146.293 24.5817 143.287 27.0859C142.41 24.2685 131.511 24.2685 130.633 30.6335Z" fill="url(#paint12_radial_10518_34374)"/>
<path d="M130.633 30.6335C124.244 26.2508 114.848 34.9118 119.233 37.7292C122.365 39.7114 149.55 30.6335 149.926 28.86C150.302 27.0866 146.293 24.5817 143.287 27.0859C142.41 24.2685 131.511 24.2685 130.633 30.6335Z" fill="url(#paint13_radial_10518_34374)"/>
<path d="M144.191 16.0503C150.586 17.9062 154.697 21.4772 149.507 27.5298C148.425 26.1703 145.57 25.1855 143.289 27.0844C142.41 24.2676 131.511 24.2684 130.634 30.6329C125.509 27.1177 118.451 31.9957 118.123 35.5174C116.364 34.5584 115.223 33.3247 114.584 31.9377C116.21 30.484 118.544 29.6172 119.941 29.2998C120.021 28.4416 120.538 26.4686 121.964 25.4392C123.39 24.4102 125.569 24.284 126.48 24.35C126.599 22.7987 127.858 19.3796 131.945 18.1125C136.034 16.8453 140.465 17.5845 142.168 18.1125C142.458 17.6139 143.13 16.8089 144.191 16.0503Z" fill="url(#paint14_radial_10518_34374)"/>
<path d="M12.4422 34.9437C11.8479 39.1015 16.9584 44.3482 22.782 42.6653C24.6836 43.7212 29.6516 45.8331 34.3105 45.8331C38.9694 45.8331 44.3334 43.7212 46.433 42.6653C47.5027 43.2592 50.664 44.7243 54.7524 45.8331C58.8408 46.9418 63.0322 44.7771 64.6169 43.5562C65.8846 44.7111 69.9175 47.0804 75.9075 47.318C81.8974 47.5556 86.2473 44.9091 87.6735 43.5562C89.5354 43.8862 94.4478 44.5263 99.2018 44.4471C103.956 44.3679 107.442 42.3023 108.591 41.2793C110.096 42.2033 113.891 43.2394 117.029 39.9924C120.167 36.7453 115.722 34.2837 113.107 33.4587C113.899 32.6998 114.89 30.4493 112.513 27.519C110.136 24.5888 105.976 24.1862 104.193 24.3512C104.788 22.6353 104.621 18.2334 99.2018 14.3532C93.7823 10.473 85.6927 11.8779 82.3253 13.0654C81.2557 11.0195 76.8107 7.02669 67.5881 7.42267C58.3654 7.81865 55.1882 13.066 54.7524 15.6402C53.8413 14.9142 51.1632 13.6405 47.7404 14.3532C44.3175 15.066 42.3526 17.1574 41.798 18.114C40.0945 17.586 35.6654 16.8469 31.577 18.114C27.4886 19.3811 26.2288 22.8001 26.11 24.3512C25.1988 24.2852 23.0199 24.4106 21.5937 25.4402C20.1675 26.4697 19.6525 28.443 19.5733 29.301C17.3943 29.796 12.9176 31.6175 12.4422 34.9437Z" fill="url(#paint15_radial_10518_34374)"/>
<path d="M12.4422 34.9437C11.8479 39.1015 16.9584 44.3482 22.782 42.6653C24.6836 43.7212 29.6516 45.8331 34.3105 45.8331C38.9694 45.8331 44.3334 43.7212 46.433 42.6653C47.5027 43.2592 50.664 44.7243 54.7524 45.8331C58.8408 46.9418 63.0322 44.7771 64.6169 43.5562C65.8846 44.7111 69.9175 47.0804 75.9075 47.318C81.8974 47.5556 86.2473 44.9091 87.6735 43.5562C89.5354 43.8862 94.4478 44.5263 99.2018 44.4471C103.956 44.3679 107.442 42.3023 108.591 41.2793C110.096 42.2033 113.891 43.2394 117.029 39.9924C120.167 36.7453 115.722 34.2837 113.107 33.4587C113.899 32.6998 114.89 30.4493 112.513 27.519C110.136 24.5888 105.976 24.1862 104.193 24.3512C104.788 22.6353 104.621 18.2334 99.2018 14.3532C93.7823 10.473 85.6927 11.8779 82.3253 13.0654C81.2557 11.0195 76.8107 7.02669 67.5881 7.42267C58.3654 7.81865 55.1882 13.066 54.7524 15.6402C53.8413 14.9142 51.1632 13.6405 47.7404 14.3532C44.3175 15.066 42.3526 17.1574 41.798 18.114C40.0945 17.586 35.6654 16.8469 31.577 18.114C27.4886 19.3811 26.2288 22.8001 26.11 24.3512C25.1988 24.2852 23.0199 24.4106 21.5937 25.4402C20.1675 26.4697 19.6525 28.443 19.5733 29.301C17.3943 29.796 12.9176 31.6175 12.4422 34.9437Z" fill="url(#paint16_radial_10518_34374)"/>
<path d="M12.4422 34.9437C11.8479 39.1015 16.9584 44.3482 22.782 42.6653C24.6836 43.7212 29.6516 45.8331 34.3105 45.8331C38.9694 45.8331 44.3334 43.7212 46.433 42.6653C47.5027 43.2592 50.664 44.7243 54.7524 45.8331C58.8408 46.9418 63.0322 44.7771 64.6169 43.5562C65.8846 44.7111 69.9175 47.0804 75.9075 47.318C81.8974 47.5556 86.2473 44.9091 87.6735 43.5562C89.5354 43.8862 94.4478 44.5263 99.2018 44.4471C103.956 44.3679 107.442 42.3023 108.591 41.2793C110.096 42.2033 113.891 43.2394 117.029 39.9924C120.167 36.7453 115.722 34.2837 113.107 33.4587C113.899 32.6998 114.89 30.4493 112.513 27.519C110.136 24.5888 105.976 24.1862 104.193 24.3512C104.788 22.6353 104.621 18.2334 99.2018 14.3532C93.7823 10.473 85.6927 11.8779 82.3253 13.0654C81.2557 11.0195 76.8107 7.02669 67.5881 7.42267C58.3654 7.81865 55.1882 13.066 54.7524 15.6402C53.8413 14.9142 51.1632 13.6405 47.7404 14.3532C44.3175 15.066 42.3526 17.1574 41.798 18.114C40.0945 17.586 35.6654 16.8469 31.577 18.114C27.4886 19.3811 26.2288 22.8001 26.11 24.3512C25.1988 24.2852 23.0199 24.4106 21.5937 25.4402C20.1675 26.4697 19.6525 28.443 19.5733 29.301C17.3943 29.796 12.9176 31.6175 12.4422 34.9437Z" fill="url(#paint17_radial_10518_34374)"/>
<path d="M12.4422 34.9437C11.8479 39.1015 16.9584 44.3482 22.782 42.6653C24.6836 43.7212 29.6516 45.8331 34.3105 45.8331C38.9694 45.8331 44.3334 43.7212 46.433 42.6653C47.5027 43.2592 50.664 44.7243 54.7524 45.8331C58.8408 46.9418 63.0322 44.7771 64.6169 43.5562C65.8846 44.7111 69.9175 47.0804 75.9075 47.318C81.8974 47.5556 86.2473 44.9091 87.6735 43.5562C89.5354 43.8862 94.4478 44.5263 99.2018 44.4471C103.956 44.3679 107.442 42.3023 108.591 41.2793C110.096 42.2033 113.891 43.2394 117.029 39.9924C120.167 36.7453 115.722 34.2837 113.107 33.4587C113.899 32.6998 114.89 30.4493 112.513 27.519C110.136 24.5888 105.976 24.1862 104.193 24.3512C104.788 22.6353 104.621 18.2334 99.2018 14.3532C93.7823 10.473 85.6927 11.8779 82.3253 13.0654C81.2557 11.0195 76.8107 7.02669 67.5881 7.42267C58.3654 7.81865 55.1882 13.066 54.7524 15.6402C53.8413 14.9142 51.1632 13.6405 47.7404 14.3532C44.3175 15.066 42.3526 17.1574 41.798 18.114C40.0945 17.586 35.6654 16.8469 31.577 18.114C27.4886 19.3811 26.2288 22.8001 26.11 24.3512C25.1988 24.2852 23.0199 24.4106 21.5937 25.4402C20.1675 26.4697 19.6525 28.443 19.5733 29.301C17.3943 29.796 12.9176 31.6175 12.4422 34.9437Z" fill="url(#paint18_radial_10518_34374)"/>
<path d="M12.4422 34.9437C11.8479 39.1015 16.9584 44.3482 22.782 42.6653C24.6836 43.7212 29.6516 45.8331 34.3105 45.8331C38.9694 45.8331 44.3334 43.7212 46.433 42.6653C47.5027 43.2592 50.664 44.7243 54.7524 45.8331C58.8408 46.9418 63.0322 44.7771 64.6169 43.5562C65.8846 44.7111 69.9175 47.0804 75.9075 47.318C81.8974 47.5556 86.2473 44.9091 87.6735 43.5562C89.5354 43.8862 94.4478 44.5263 99.2018 44.4471C103.956 44.3679 107.442 42.3023 108.591 41.2793C110.096 42.2033 113.891 43.2394 117.029 39.9924C120.167 36.7453 115.722 34.2837 113.107 33.4587C113.899 32.6998 114.89 30.4493 112.513 27.519C110.136 24.5888 105.976 24.1862 104.193 24.3512C104.788 22.6353 104.621 18.2334 99.2018 14.3532C93.7823 10.473 85.6927 11.8779 82.3253 13.0654C81.2557 11.0195 76.8107 7.02669 67.5881 7.42267C58.3654 7.81865 55.1882 13.066 54.7524 15.6402C53.8413 14.9142 51.1632 13.6405 47.7404 14.3532C44.3175 15.066 42.3526 17.1574 41.798 18.114C40.0945 17.586 35.6654 16.8469 31.577 18.114C27.4886 19.3811 26.2288 22.8001 26.11 24.3512C25.1988 24.2852 23.0199 24.4106 21.5937 25.4402C20.1675 26.4697 19.6525 28.443 19.5733 29.301C17.3943 29.796 12.9176 31.6175 12.4422 34.9437Z" fill="url(#paint19_radial_10518_34374)"/>
<path d="M67.5842 7.42145C76.8056 7.02553 81.2525 11.0172 82.3229 13.0633C82.6238 12.9572 82.9633 12.8513 83.3343 12.7456C85.2198 15.9852 84.5554 19.7897 80.8994 22.8579C80.2757 19.9468 72.8016 19.277 69.5253 22.8806C65.0871 15.9647 50.6098 18.6964 49.6307 26.0859C44.6783 24.3611 41.9453 21.2677 41.8765 17.9961C42.5175 16.9943 44.4516 15.0353 47.7372 14.3511C51.1595 13.6385 53.8374 14.9129 54.749 15.6389C55.1849 13.0648 58.3626 7.81784 67.5842 7.42145Z" fill="url(#paint20_radial_10518_34374)"/>
<path d="M67.5842 7.42145C76.8056 7.02553 81.2525 11.0172 82.3229 13.0633C82.6238 12.9572 82.9633 12.8513 83.3343 12.7456C85.2198 15.9852 84.5554 19.7897 80.8994 22.8579C80.2757 19.9468 72.8016 19.277 69.5253 22.8806C65.0871 15.9647 50.6098 18.6964 49.6307 26.0859C44.6783 24.3611 41.9453 21.2677 41.8765 17.9961C42.5175 16.9943 44.4516 15.0353 47.7372 14.3511C51.1595 13.6385 53.8374 14.9129 54.749 15.6389C55.1849 13.0648 58.3626 7.81784 67.5842 7.42145Z" fill="url(#paint21_radial_10518_34374)"/>
<path d="M71.6584 27.9222C63.7897 20.9368 80.1755 15.343 92.6596 17.8185C103.563 19.9809 109.606 26.6447 108.829 30.4694C106.756 28.641 101.207 27.7714 98.9699 29.7064C99.3253 27.034 94.3341 25.3522 91.7197 28.4214C90.9875 21.8866 76.1723 22.8685 71.6584 27.9222Z" fill="url(#paint22_radial_10518_34374)"/>
<path d="M45.2462 30.8857C46.7918 32.2058 51.4495 34.8454 57.7237 34.8455C63.9987 34.8455 67.1543 33.1308 67.9467 32.2728C69.0178 33.2962 72.321 35.3995 76.9779 35.6369C81.6356 35.8744 84.3851 34.7475 85.1781 34.1534C85.7334 34.6485 87.7228 35.6369 91.2398 35.6369C94.7554 35.6369 97.0602 34.6487 97.7748 34.1534C99.2406 35.9023 102.815 39.5388 105.382 40.0931C106.685 40.3746 106.671 41.5155 106.138 42.8191C104.431 43.6393 102.044 44.3997 99.2016 44.4472C94.4477 44.5264 89.5329 43.8865 87.6709 43.5566C86.2444 44.9096 81.8947 47.5554 75.9052 47.3178C69.9159 47.0799 65.8839 44.7114 64.6162 43.5566C63.0316 44.7775 58.8391 46.943 54.7508 45.8343C50.6626 44.7256 47.5009 43.2598 46.4313 42.6659C44.3315 43.7219 38.9667 45.8343 34.3081 45.8343C29.8981 45.8339 25.215 43.9365 23.1145 42.8389C23.208 40.9992 22.9297 39.2135 21.7114 38.7061C26.9396 40.3886 32.8823 35.3429 33.0038 34.1534C34.1924 34.6154 37.2105 35.3995 39.7771 34.8455C42.3443 34.2912 44.4935 31.9747 45.2462 30.8857Z" fill="url(#paint23_radial_10518_34374)"/>
<path d="M43.8201 16.0503C50.2144 17.9062 54.3264 21.4772 49.1359 27.5298C48.0536 26.1703 45.1986 25.1855 42.9176 27.0844C42.0394 24.2676 31.1402 24.2684 30.2631 30.6329C25.1375 27.1177 18.0799 31.9957 17.7516 35.5174C15.9929 34.5584 14.8521 33.3247 14.2134 31.9377C15.8389 30.484 18.1734 29.6172 19.5701 29.2998C19.6494 28.4416 20.1669 26.4686 21.5929 25.4392C23.0191 24.4102 25.1975 24.284 26.1085 24.35C26.2276 22.7987 27.4865 19.3796 31.5742 18.1125C35.6626 16.8453 40.0937 17.5845 41.7972 18.1125C42.0866 17.6139 42.7591 16.8089 43.8201 16.0503Z" fill="url(#paint24_radial_10518_34374)"/>
<path d="M44.2302 34.6715C43.4824 39.9042 49.914 46.5073 57.2431 44.3893C59.6364 45.7182 65.8887 48.376 71.752 48.376C77.6153 48.376 84.366 45.7182 87.0085 44.3893C88.3547 45.1368 92.3333 46.9807 97.4786 48.376C102.624 49.7714 107.899 47.0471 109.893 45.5105C111.489 46.9641 116.564 49.9458 124.103 50.2449C131.641 50.5439 137.116 47.2132 138.91 45.5105C141.254 45.9258 147.436 46.7315 153.419 46.6318C159.402 46.5322 163.79 43.9324 165.235 42.645C167.13 43.8079 171.906 45.1119 175.855 41.0254C179.804 36.939 174.21 33.8409 170.919 32.8027C171.916 31.8475 173.163 29.0152 170.171 25.3274C167.18 21.6397 161.945 21.133 159.701 21.3407C160.449 19.1812 160.24 13.6413 153.419 8.75798C146.599 3.87466 136.418 5.64273 132.18 7.13718C130.834 4.56238 125.239 -0.462634 113.633 0.0357139C102.026 0.534062 98.0271 7.13796 97.4786 10.3776C96.3319 9.46397 92.9615 7.86095 88.6538 8.75798C84.3461 9.65501 81.8731 12.2871 81.1751 13.491C79.0312 12.8265 73.4571 11.8963 68.3118 13.491C63.1665 15.0857 61.581 19.3886 61.4314 21.3407C60.2847 21.2576 57.5425 21.4155 55.7476 22.7112C53.9528 24.0069 53.3046 26.4903 53.2049 27.5701C50.4626 28.193 44.8285 30.4854 44.2302 34.6715Z" fill="url(#paint25_radial_10518_34374)"/>
<path d="M44.2302 34.6715C43.4824 39.9042 49.914 46.5073 57.2431 44.3893C59.6364 45.7182 65.8887 48.376 71.752 48.376C77.6153 48.376 84.366 45.7182 87.0085 44.3893C88.3547 45.1368 92.3333 46.9807 97.4786 48.376C102.624 49.7714 107.899 47.0471 109.893 45.5105C111.489 46.9641 116.564 49.9458 124.103 50.2449C131.641 50.5439 137.116 47.2132 138.91 45.5105C141.254 45.9258 147.436 46.7315 153.419 46.6318C159.402 46.5322 163.79 43.9324 165.235 42.645C167.13 43.8079 171.906 45.1119 175.855 41.0254C179.804 36.939 174.21 33.8409 170.919 32.8027C171.916 31.8475 173.163 29.0152 170.171 25.3274C167.18 21.6397 161.945 21.133 159.701 21.3407C160.449 19.1812 160.24 13.6413 153.419 8.75798C146.599 3.87466 136.418 5.64273 132.18 7.13718C130.834 4.56238 125.239 -0.462634 113.633 0.0357139C102.026 0.534062 98.0271 7.13796 97.4786 10.3776C96.3319 9.46397 92.9615 7.86095 88.6538 8.75798C84.3461 9.65501 81.8731 12.2871 81.1751 13.491C79.0312 12.8265 73.4571 11.8963 68.3118 13.491C63.1665 15.0857 61.581 19.3886 61.4314 21.3407C60.2847 21.2576 57.5425 21.4155 55.7476 22.7112C53.9528 24.0069 53.3046 26.4903 53.2049 27.5701C50.4626 28.193 44.8285 30.4854 44.2302 34.6715Z" fill="url(#paint26_radial_10518_34374)"/>
<path d="M44.2302 34.6715C43.4824 39.9042 49.914 46.5073 57.2431 44.3893C59.6364 45.7182 65.8887 48.376 71.752 48.376C77.6153 48.376 84.366 45.7182 87.0085 44.3893C88.3547 45.1368 92.3333 46.9807 97.4786 48.376C102.624 49.7714 107.899 47.0471 109.893 45.5105C111.489 46.9641 116.564 49.9458 124.103 50.2449C131.641 50.5439 137.116 47.2132 138.91 45.5105C141.254 45.9258 147.436 46.7315 153.419 46.6318C159.402 46.5322 163.79 43.9324 165.235 42.645C167.13 43.8079 171.906 45.1119 175.855 41.0254C179.804 36.939 174.21 33.8409 170.919 32.8027C171.916 31.8475 173.163 29.0152 170.171 25.3274C167.18 21.6397 161.945 21.133 159.701 21.3407C160.449 19.1812 160.24 13.6413 153.419 8.75798C146.599 3.87466 136.418 5.64273 132.18 7.13718C130.834 4.56238 125.239 -0.462634 113.633 0.0357139C102.026 0.534062 98.0271 7.13796 97.4786 10.3776C96.3319 9.46397 92.9615 7.86095 88.6538 8.75798C84.3461 9.65501 81.8731 12.2871 81.1751 13.491C79.0312 12.8265 73.4571 11.8963 68.3118 13.491C63.1665 15.0857 61.581 19.3886 61.4314 21.3407C60.2847 21.2576 57.5425 21.4155 55.7476 22.7112C53.9528 24.0069 53.3046 26.4903 53.2049 27.5701C50.4626 28.193 44.8285 30.4854 44.2302 34.6715Z" fill="url(#paint27_radial_10518_34374)"/>
<path d="M44.2302 34.6715C43.4824 39.9042 49.914 46.5073 57.2431 44.3893C59.6364 45.7182 65.8887 48.376 71.752 48.376C77.6153 48.376 84.366 45.7182 87.0085 44.3893C88.3547 45.1368 92.3333 46.9807 97.4786 48.376C102.624 49.7714 107.899 47.0471 109.893 45.5105C111.489 46.9641 116.564 49.9458 124.103 50.2449C131.641 50.5439 137.116 47.2132 138.91 45.5105C141.254 45.9258 147.436 46.7315 153.419 46.6318C159.402 46.5322 163.79 43.9324 165.235 42.645C167.13 43.8079 171.906 45.1119 175.855 41.0254C179.804 36.939 174.21 33.8409 170.919 32.8027C171.916 31.8475 173.163 29.0152 170.171 25.3274C167.18 21.6397 161.945 21.133 159.701 21.3407C160.449 19.1812 160.24 13.6413 153.419 8.75798C146.599 3.87466 136.418 5.64273 132.18 7.13718C130.834 4.56238 125.239 -0.462634 113.633 0.0357139C102.026 0.534062 98.0271 7.13796 97.4786 10.3776C96.3319 9.46397 92.9615 7.86095 88.6538 8.75798C84.3461 9.65501 81.8731 12.2871 81.1751 13.491C79.0312 12.8265 73.4571 11.8963 68.3118 13.491C63.1665 15.0857 61.581 19.3886 61.4314 21.3407C60.2847 21.2576 57.5425 21.4155 55.7476 22.7112C53.9528 24.0069 53.3046 26.4903 53.2049 27.5701C50.4626 28.193 44.8285 30.4854 44.2302 34.6715Z" fill="url(#paint28_radial_10518_34374)"/>
<path d="M44.2302 34.6715C43.4824 39.9042 49.914 46.5073 57.2431 44.3893C59.6364 45.7182 65.8887 48.376 71.752 48.376C77.6153 48.376 84.366 45.7182 87.0085 44.3893C88.3547 45.1368 92.3333 46.9807 97.4786 48.376C102.624 49.7714 107.899 47.0471 109.893 45.5105C111.489 46.9641 116.564 49.9458 124.103 50.2449C131.641 50.5439 137.116 47.2132 138.91 45.5105C141.254 45.9258 147.436 46.7315 153.419 46.6318C159.402 46.5322 163.79 43.9324 165.235 42.645C167.13 43.8079 171.906 45.1119 175.855 41.0254C179.804 36.939 174.21 33.8409 170.919 32.8027C171.916 31.8475 173.163 29.0152 170.171 25.3274C167.18 21.6397 161.945 21.133 159.701 21.3407C160.449 19.1812 160.24 13.6413 153.419 8.75798C146.599 3.87466 136.418 5.64273 132.18 7.13718C130.834 4.56238 125.239 -0.462634 113.633 0.0357139C102.026 0.534062 98.0271 7.13796 97.4786 10.3776C96.3319 9.46397 92.9615 7.86095 88.6538 8.75798C84.3461 9.65501 81.8731 12.2871 81.1751 13.491C79.0312 12.8265 73.4571 11.8963 68.3118 13.491C63.1665 15.0857 61.581 19.3886 61.4314 21.3407C60.2847 21.2576 57.5425 21.4155 55.7476 22.7112C53.9528 24.0069 53.3046 26.4903 53.2049 27.5701C50.4626 28.193 44.8285 30.4854 44.2302 34.6715Z" fill="url(#paint29_radial_10518_34374)"/>
<path d="M113.63 0.0344931C125.235 -0.463787 130.832 4.55979 132.179 7.13491C132.558 7.00138 132.985 6.86804 133.452 6.73509C135.825 10.8121 134.989 15.6002 130.388 19.4616C129.603 15.798 120.196 14.955 116.073 19.4901C110.487 10.7863 92.2674 14.2243 91.0352 23.5241C84.8026 21.3535 81.363 17.4602 81.2764 13.3429C82.0831 12.0822 84.5173 9.61667 88.6523 8.75562C92.9592 7.85876 96.3294 9.4626 97.4768 10.3763C98.0254 7.13674 102.025 0.533362 113.63 0.0344931Z" fill="url(#paint30_radial_10518_34374)"/>
<path d="M113.63 0.0344931C125.235 -0.463787 130.832 4.55979 132.179 7.13491C132.558 7.00138 132.985 6.86804 133.452 6.73509C135.825 10.8121 134.989 15.6002 130.388 19.4616C129.603 15.798 120.196 14.955 116.073 19.4901C110.487 10.7863 92.2674 14.2243 91.0352 23.5241C84.8026 21.3535 81.363 17.4602 81.2764 13.3429C82.0831 12.0822 84.5173 9.61667 88.6523 8.75562C92.9592 7.85876 96.3294 9.4626 97.4768 10.3763C98.0254 7.13674 102.025 0.533362 113.63 0.0344931Z" fill="url(#paint31_radial_10518_34374)"/>
<path d="M118.756 25.8351C108.853 17.0439 129.475 10.0039 145.187 13.1193C158.909 15.8408 166.514 24.2274 165.536 29.0408C162.927 26.7397 155.944 25.6453 153.128 28.0806C153.576 24.7173 147.294 22.6007 144.004 26.4634C143.082 18.2392 124.437 19.4749 118.756 25.8351Z" fill="url(#paint32_radial_10518_34374)"/>
<path d="M85.5151 29.564C87.4602 31.2253 93.322 34.5473 101.218 34.5475C109.116 34.5475 113.087 32.3894 114.084 31.3096C115.432 32.5976 119.589 35.2446 125.45 35.5435C131.312 35.8423 134.772 34.4241 135.77 33.6764C136.469 34.2995 138.973 35.5435 143.399 35.5435C147.823 35.5434 150.724 34.2997 151.623 33.6764C153.468 35.8775 157.967 40.454 161.198 41.1517C162.837 41.5059 162.819 42.9417 162.149 44.5823C160.001 45.6147 156.997 46.5716 153.419 46.6314C147.436 46.7311 141.251 45.9257 138.907 45.5105C137.112 47.2133 131.638 50.5431 124.1 50.2441C116.562 49.9447 111.488 46.9639 109.893 45.5105C107.898 47.047 102.622 49.7724 97.4767 48.377C92.3317 46.9817 88.3526 45.137 87.0065 44.3895C84.3638 45.7185 77.6121 48.377 71.7491 48.377C66.199 48.3765 60.3053 45.9886 57.6617 44.6073C57.7794 42.292 57.4292 40.0446 55.896 39.406C62.4757 41.5235 69.9548 35.1733 70.1077 33.6764C71.6036 34.2578 75.4019 35.2446 78.6321 34.5475C81.8629 33.8498 84.5678 30.9344 85.5151 29.564Z" fill="url(#paint33_radial_10518_34374)"/>
<path d="M141.816 15.8997C140.999 9.25038 127.434 9.88437 128.15 14.3165C128.852 22.8148 149.921 28.6306 156.566 25.6338C158.277 24.6248 157.564 20.6216 153.441 20.6402C155.143 18.2002 147.631 12.0106 141.816 15.8997Z" fill="url(#paint34_radial_10518_34374)"/>
<path d="M141.816 15.8997C140.999 9.25038 127.434 9.88437 128.15 14.3165C128.852 22.8148 149.921 28.6306 156.566 25.6338C158.277 24.6248 157.564 20.6216 153.441 20.6402C155.143 18.2002 147.631 12.0106 141.816 15.8997Z" fill="url(#paint35_radial_10518_34374)"/>
<path d="M116.074 19.4931C110.316 10.5152 91.1213 14.4507 90.9736 24.4125C92.5978 31.9138 131.135 23.1835 130.396 19.4931C129.658 15.8028 120.208 14.9435 116.074 19.4931Z" fill="url(#paint36_radial_10518_34374)"/>
<path d="M116.074 19.4931C110.316 10.5152 91.1213 14.4507 90.9736 24.4125C92.5978 31.9138 131.135 23.1835 130.396 19.4931C129.658 15.8028 120.208 14.9435 116.074 19.4931Z" fill="url(#paint37_radial_10518_34374)"/>
<path d="M112.118 8.49472C116.102 2.28278 129.383 5.00582 129.485 11.8985C128.362 17.0888 100.587 16.5974 102.208 8.49472C102.719 5.94132 109.257 5.34675 112.118 8.49472Z" fill="url(#paint38_radial_10518_34374)"/>
<path d="M112.118 8.49472C116.102 2.28278 129.383 5.00582 129.485 11.8985C128.362 17.0888 100.587 16.5974 102.208 8.49472C102.719 5.94132 109.257 5.34675 112.118 8.49472Z" fill="url(#paint39_radial_10518_34374)"/>
<path d="M75.9631 18.8497C67.0609 14.4452 58.4365 21.5068 61.311 28.1064C64.0409 33.2965 96.6244 18.6309 96.6165 14.4253C96.6096 10.7881 86.698 11.6534 85.7654 15.9335C84.4887 13.4676 76.4103 15.11 75.9631 18.8497Z" fill="url(#paint40_radial_10518_34374)"/>
<path d="M75.9631 18.8497C67.0609 14.4452 58.4365 21.5068 61.311 28.1064C64.0409 33.2965 96.6244 18.6309 96.6165 14.4253C96.6096 10.7881 86.698 11.6534 85.7654 15.9335C84.4887 13.4676 76.4103 15.11 75.9631 18.8497Z" fill="url(#paint41_radial_10518_34374)"/>
<path d="M144.01 26.4622C142.963 17.1181 119.031 19.9836 117.236 28.7047C116.339 35.8071 163.006 36.6774 166.147 32.0677C168.864 28.0809 157.023 24.7171 153.134 28.0809C153.583 24.7171 147.301 22.5991 144.01 26.4622Z" fill="url(#paint42_radial_10518_34374)"/>
<path d="M144.01 26.4622C142.963 17.1181 119.031 19.9836 117.236 28.7047C116.339 35.8071 163.006 36.6774 166.147 32.0677C168.864 28.0809 157.023 24.7171 153.134 28.0809C153.583 24.7171 147.301 22.5991 144.01 26.4622Z" fill="url(#paint43_radial_10518_34374)"/>
<path d="M66.6623 29.2477C58.6214 23.7321 46.7966 34.6321 52.3149 38.1779C56.2561 40.6725 90.4698 29.2477 90.9428 27.0158C91.4158 24.7839 86.3706 21.6315 82.5867 24.7831C81.483 21.2373 67.7663 21.2373 66.6623 29.2477Z" fill="url(#paint44_radial_10518_34374)"/>
<path d="M66.6623 29.2477C58.6214 23.7321 46.7966 34.6321 52.3149 38.1779C56.2561 40.6725 90.4698 29.2477 90.9428 27.0158C91.4158 24.7839 86.3706 21.6315 82.5867 24.7831C81.483 21.2373 67.7663 21.2373 66.6623 29.2477Z" fill="url(#paint45_radial_10518_34374)"/>
<path d="M83.7231 10.894C91.7705 13.2297 96.9455 17.724 90.4132 25.3412C89.0511 23.6302 85.4579 22.3908 82.5873 24.7807C81.482 21.2357 67.7652 21.2367 66.6613 29.2466C60.2107 24.8226 51.3285 30.9617 50.9153 35.3939C48.7019 34.1869 47.2662 32.6342 46.4624 30.8887C48.5082 29.0592 51.4462 27.9683 53.2039 27.5688C53.3038 26.4888 53.9551 24.0058 55.7497 22.7102C57.5446 21.4152 60.2862 21.2564 61.4327 21.3394C61.5825 19.3871 63.1669 15.084 68.3114 13.4893C73.4567 11.8946 79.0334 12.8249 81.1773 13.4893C81.5414 12.8619 82.3878 11.8488 83.7231 10.894Z" fill="url(#paint46_radial_10518_34374)"/>
<path d="M35.1166 84.4246C33.2704 84.4246 26.2211 92.6487 16.6543 98.1874L59.7889 90.4668C58.9833 88.1842 55.6489 87.054 54.0824 86.7743C51.1284 87.5799 48.9353 86.4386 48.208 85.7673C47.3129 86.3827 44.9855 87.6471 42.8372 87.7813C40.1518 87.9492 36.9628 84.4246 35.1166 84.4246Z" fill="url(#paint47_linear_10518_34374)"/>
<path d="M35.1166 84.4246C33.2704 84.4246 26.2211 92.6487 16.6543 98.1874L59.7889 90.4668C58.9833 88.1842 55.6489 87.054 54.0824 86.7743C51.1284 87.5799 48.9353 86.4386 48.208 85.7673C47.3129 86.3827 44.9855 87.6471 42.8372 87.7813C40.1518 87.9492 36.9628 84.4246 35.1166 84.4246Z" fill="url(#paint48_radial_10518_34374)"/>
<path d="M74.5908 84.1778C73.369 84.1778 70.111 86.0105 61.7622 90.2867L107.375 101.437L139.225 92.5937C136.205 90.8968 121.374 80.5649 120.153 80.5649C118.625 80.5649 117.455 81.7866 115.622 82.1415C113.789 82.4964 113.026 80.9197 111.498 81.1743C109.971 81.4288 110.277 79.9016 108.8 80.0034C107.324 80.1052 101.673 86.4177 100.146 86.8759C98.619 87.334 95.0555 84.1778 93.2737 83.2106C91.492 82.2433 90.5247 83.6178 89.9648 83.6178C89.4048 83.6178 88.8448 82.1415 87.2158 82.1415C85.5868 82.1415 82.3287 86.0105 80.496 86.4177C78.6634 86.825 75.8126 84.1778 74.5908 84.1778Z" fill="url(#paint49_linear_10518_34374)"/>
<path d="M74.5908 84.1778C73.369 84.1778 70.111 86.0105 61.7622 90.2867L107.375 101.437L139.225 92.5937C136.205 90.8968 121.374 80.5649 120.153 80.5649C118.625 80.5649 117.455 81.7866 115.622 82.1415C113.789 82.4964 113.026 80.9197 111.498 81.1743C109.971 81.4288 110.277 79.9016 108.8 80.0034C107.324 80.1052 101.673 86.4177 100.146 86.8759C98.619 87.334 95.0555 84.1778 93.2737 83.2106C91.492 82.2433 90.5247 83.6178 89.9648 83.6178C89.4048 83.6178 88.8448 82.1415 87.2158 82.1415C85.5868 82.1415 82.3287 86.0105 80.496 86.4177C78.6634 86.825 75.8126 84.1778 74.5908 84.1778Z" fill="url(#paint50_radial_10518_34374)"/>
<path d="M74.5908 84.1778C73.369 84.1778 70.111 86.0105 61.7622 90.2867L107.375 101.437L139.225 92.5937C136.205 90.8968 121.374 80.5649 120.153 80.5649C118.625 80.5649 117.455 81.7866 115.622 82.1415C113.789 82.4964 113.026 80.9197 111.498 81.1743C109.971 81.4288 110.277 79.9016 108.8 80.0034C107.324 80.1052 101.673 86.4177 100.146 86.8759C98.619 87.334 95.0555 84.1778 93.2737 83.2106C91.492 82.2433 90.5247 83.6178 89.9648 83.6178C89.4048 83.6178 88.8448 82.1415 87.2158 82.1415C85.5868 82.1415 82.3287 86.0105 80.496 86.4177C78.6634 86.825 75.8126 84.1778 74.5908 84.1778Z" fill="url(#paint51_radial_10518_34374)"/>
<path d="M155.669 83.0557C154.636 83.1512 145.332 90.4642 139.226 94.3802L166.942 99.2938L211.733 92.684C210.575 90.9966 205.796 85.9033 204.142 85.8269C202.076 85.7314 200.854 82.484 199.821 83.0557C197.473 84.0094 193.339 79.8072 192.024 79.8072C190.709 79.8072 184.697 86.1134 183.1 86.4955C181.503 86.8775 179.06 83.0557 175.397 83.0557C171.733 83.0557 170.418 79.9027 168.351 79.8072C166.285 79.7117 165.815 77.8015 164.688 77.897C163.56 77.9925 159.803 83.0557 158.582 83.8197C157.36 84.5838 156.703 82.9602 155.669 83.0557Z" fill="url(#paint52_linear_10518_34374)"/>
<path d="M155.669 83.0557C154.636 83.1512 145.332 90.4642 139.226 94.3802L166.942 99.2938L211.733 92.684C210.575 90.9966 205.796 85.9033 204.142 85.8269C202.076 85.7314 200.854 82.484 199.821 83.0557C197.473 84.0094 193.339 79.8072 192.024 79.8072C190.709 79.8072 184.697 86.1134 183.1 86.4955C181.503 86.8775 179.06 83.0557 175.397 83.0557C171.733 83.0557 170.418 79.9027 168.351 79.8072C166.285 79.7117 165.815 77.8015 164.688 77.897C163.56 77.9925 159.803 83.0557 158.582 83.8197C157.36 84.5838 156.703 82.9602 155.669 83.0557Z" fill="url(#paint53_radial_10518_34374)"/>
<path d="M155.669 83.0557C154.636 83.1512 145.332 90.4642 139.226 94.3802L166.942 99.2938L211.733 92.684C210.575 90.9966 205.796 85.9033 204.142 85.8269C202.076 85.7314 200.854 82.484 199.821 83.0557C197.473 84.0094 193.339 79.8072 192.024 79.8072C190.709 79.8072 184.697 86.1134 183.1 86.4955C181.503 86.8775 179.06 83.0557 175.397 83.0557C171.733 83.0557 170.418 79.9027 168.351 79.8072C166.285 79.7117 165.815 77.8015 164.688 77.897C163.56 77.9925 159.803 83.0557 158.582 83.8197C157.36 84.5838 156.703 82.9602 155.669 83.0557Z" fill="url(#paint54_radial_10518_34374)"/>
<path d="M57.3429 88.7511C43.2927 88.3812 37.5612 96.685 15.8472 96.685C17.4438 103.179 49.7367 100.814 49.7879 104.123C49.8391 107.433 44.5705 104.843 45.2086 107.988C45.8467 111.132 81.9309 117.235 112.267 117.235C142.602 117.235 165.274 114.276 178.686 110.207C192.098 106.138 181.56 103.919 183.157 101.329C184.753 98.7398 218.282 102.809 222.114 97.629C220.517 97.629 208.383 88.7511 203.593 88.7511C198.803 88.7511 181.56 97.629 175.173 97.629C168.787 97.629 139.817 86.4827 133.112 85.7429C127.747 85.151 112.267 91.5199 99.1744 97.629C92.1493 97.629 71.3932 89.121 57.3429 88.7511Z" fill="url(#paint55_linear_10518_34374)"/>
<path d="M57.3429 88.7511C43.2927 88.3812 37.5612 96.685 15.8472 96.685C17.4438 103.179 49.7367 100.814 49.7879 104.123C49.8391 107.433 44.5705 104.843 45.2086 107.988C45.8467 111.132 81.9309 117.235 112.267 117.235C142.602 117.235 165.274 114.276 178.686 110.207C192.098 106.138 181.56 103.919 183.157 101.329C184.753 98.7398 218.282 102.809 222.114 97.629C220.517 97.629 208.383 88.7511 203.593 88.7511C198.803 88.7511 181.56 97.629 175.173 97.629C168.787 97.629 139.817 86.4827 133.112 85.7429C127.747 85.151 112.267 91.5199 99.1744 97.629C92.1493 97.629 71.3932 89.121 57.3429 88.7511Z" fill="url(#paint56_radial_10518_34374)"/>
<path d="M57.3429 88.7511C43.2927 88.3812 37.5612 96.685 15.8472 96.685C17.4438 103.179 49.7367 100.814 49.7879 104.123C49.8391 107.433 44.5705 104.843 45.2086 107.988C45.8467 111.132 81.9309 117.235 112.267 117.235C142.602 117.235 165.274 114.276 178.686 110.207C192.098 106.138 181.56 103.919 183.157 101.329C184.753 98.7398 218.282 102.809 222.114 97.629C220.517 97.629 208.383 88.7511 203.593 88.7511C198.803 88.7511 181.56 97.629 175.173 97.629C168.787 97.629 139.817 86.4827 133.112 85.7429C127.747 85.151 112.267 91.5199 99.1744 97.629C92.1493 97.629 71.3932 89.121 57.3429 88.7511Z" fill="url(#paint57_radial_10518_34374)"/>
<path d="M57.3429 88.7511C43.2927 88.3812 37.5612 96.685 15.8472 96.685C17.4438 103.179 49.7367 100.814 49.7879 104.123C49.8391 107.433 44.5705 104.843 45.2086 107.988C45.8467 111.132 81.9309 117.235 112.267 117.235C142.602 117.235 165.274 114.276 178.686 110.207C192.098 106.138 181.56 103.919 183.157 101.329C184.753 98.7398 218.282 102.809 222.114 97.629C220.517 97.629 208.383 88.7511 203.593 88.7511C198.803 88.7511 181.56 97.629 175.173 97.629C168.787 97.629 139.817 86.4827 133.112 85.7429C127.747 85.151 112.267 91.5199 99.1744 97.629C92.1493 97.629 71.3932 89.121 57.3429 88.7511Z" fill="url(#paint58_radial_10518_34374)"/>
<path d="M57.3429 88.7511C43.2927 88.3812 37.5612 96.685 15.8472 96.685C17.4438 103.179 49.7367 100.814 49.7879 104.123C49.8391 107.433 44.5705 104.843 45.2086 107.988C45.8467 111.132 81.9309 117.235 112.267 117.235C142.602 117.235 165.274 114.276 178.686 110.207C192.098 106.138 181.56 103.919 183.157 101.329C184.753 98.7398 218.282 102.809 222.114 97.629C220.517 97.629 208.383 88.7511 203.593 88.7511C198.803 88.7511 181.56 97.629 175.173 97.629C168.787 97.629 139.817 86.4827 133.112 85.7429C127.747 85.151 112.267 91.5199 99.1744 97.629C92.1493 97.629 71.3932 89.121 57.3429 88.7511Z" fill="url(#paint59_radial_10518_34374)"/>
<path d="M57.3429 88.7511C43.2927 88.3812 37.5612 96.685 15.8472 96.685C17.4438 103.179 49.7367 100.814 49.7879 104.123C49.8391 107.433 44.5705 104.843 45.2086 107.988C45.8467 111.132 81.9309 117.235 112.267 117.235C142.602 117.235 165.274 114.276 178.686 110.207C192.098 106.138 181.56 103.919 183.157 101.329C184.753 98.7398 218.282 102.809 222.114 97.629C220.517 97.629 208.383 88.7511 203.593 88.7511C198.803 88.7511 181.56 97.629 175.173 97.629C168.787 97.629 139.817 86.4827 133.112 85.7429C127.747 85.151 112.267 91.5199 99.1744 97.629C92.1493 97.629 71.3932 89.121 57.3429 88.7511Z" fill="url(#paint60_radial_10518_34374)"/>
<path d="M57.3429 88.7511C43.2927 88.3812 37.5612 96.685 15.8472 96.685C17.4438 103.179 49.7367 100.814 49.7879 104.123C49.8391 107.433 44.5705 104.843 45.2086 107.988C45.8467 111.132 81.9309 117.235 112.267 117.235C142.602 117.235 165.274 114.276 178.686 110.207C192.098 106.138 181.56 103.919 183.157 101.329C184.753 98.7398 218.282 102.809 222.114 97.629C220.517 97.629 208.383 88.7511 203.593 88.7511C198.803 88.7511 181.56 97.629 175.173 97.629C168.787 97.629 139.817 86.4827 133.112 85.7429C127.747 85.151 112.267 91.5199 99.1744 97.629C92.1493 97.629 71.3932 89.121 57.3429 88.7511Z" fill="url(#paint61_radial_10518_34374)"/>
<path d="M133.112 85.7427C135.9 86.0504 142.539 88.1592 149.802 90.5159C146.91 102.615 128.096 112.762 109.489 117.199C101.841 117.108 93.9128 116.657 86.3448 115.986C82.134 115.61 78.0349 115.168 74.1573 114.679C73.8109 114.635 73.4635 114.597 73.1207 114.553C72.4559 113.887 71.8944 113.155 71.4575 112.344C78.6193 106.293 87.1676 104.641 99.276 97.6283C99.3182 97.5938 99.3597 97.5549 99.4022 97.5201C112.444 91.4442 127.777 85.1557 133.112 85.7427Z" fill="url(#paint62_radial_10518_34374)"/>
<path d="M84.3934 52.0715L89.3233 30.4534L92.2927 32.8887L90.4486 47.9209L94.5766 58.2143L101.737 62.4394L102.649 72.9968L99.1242 64.7142L94.7649 62.278L92.2926 70.3259L101.019 79.7265L107.266 83.0205L108.405 92.6786L105.12 84.2015L99.23 82.5275L95.6827 78.6382L93.6314 86.027L97.0852 92.0604L97.2693 98.6731L101.309 104.153L94.7899 99.2198L95.0603 92.5069L90.4486 87.4614L92.2926 75.4987L88.7767 71.7631L89.3233 59.7387L86.9403 55.9827L79.8139 59.7387L77.1383 73.3849L79.8139 81.3687L84.3934 84.9441L86.9403 97.4117L81.3488 87.4614L77.1383 85.7002L75.4207 90.7504L77.6532 100.875L73.1257 91.2564L74.7561 84.5267L72.7118 78.4657L65.8463 86.4914L64.1065 95.9349L59.0161 100.455L57.0264 106.839L56.7686 99.2517L61.4841 94.956L61.9335 86.0801L71.0981 74.9994L73.4139 61.7483L67.9822 64.0785L64.9381 73.385L57.5251 77.0014L54.8881 84.9441L46.6787 89.4439L53.137 82.7821L55.3522 75.4987L62.2742 70.2918L65.7503 62.3057L84.3934 52.0715Z" fill="url(#paint63_radial_10518_34374)"/>
<defs>
<radialGradient id="paint0_radial_10518_34374" cx="0" cy="0" r="1" gradientTransform="matrix(-167.871 6.14296 -3.93029 -103.038 185.926 47.9557)" gradientUnits="userSpaceOnUse">
<stop stop-color="#C0F3F4"/>
<stop offset="0.447153" stop-color="#659BBC"/>
<stop offset="0.668094" stop-color="#425E84"/>
<stop offset="1" stop-color="#2A355E"/>
</radialGradient>
<radialGradient id="paint1_radial_10518_34374" cx="0" cy="0" r="1" gradientTransform="matrix(74.5925 3.23962 -6.92393 38.5651 148.168 9.73435)" gradientUnits="userSpaceOnUse">
<stop stop-color="white"/>
<stop offset="0.47" stop-color="#D7E1F9"/>
<stop offset="1" stop-color="#7FA9C5"/>
</radialGradient>
<radialGradient id="paint2_radial_10518_34374" cx="0" cy="0" r="1" gradientTransform="matrix(140.628 -21.5648 44.2954 69.8753 76.6546 24.4619)" gradientUnits="userSpaceOnUse">
<stop stop-color="#FFC25E"/>
<stop offset="1" stop-color="#AB83A8" stop-opacity="0"/>
</radialGradient>
<radialGradient id="paint3_radial_10518_34374" cx="0" cy="0" r="1" gradientUnits="userSpaceOnUse" gradientTransform="translate(146.054 19.4372) rotate(-8.82627) scale(78.4805 42.9218)">
<stop offset="0.398854" stop-color="#977AA3" stop-opacity="0"/>
<stop offset="1" stop-color="#473E6B"/>
</radialGradient>
<radialGradient id="paint4_radial_10518_34374" cx="0" cy="0" r="1" gradientTransform="matrix(86.6617 2.42572 -2.21974 19.1836 134.077 2.97699)" gradientUnits="userSpaceOnUse">
<stop stop-color="#558B91"/>
<stop offset="1" stop-color="#9FF0F9" stop-opacity="0"/>
</radialGradient>
<radialGradient id="paint5_radial_10518_34374" cx="0" cy="0" r="1" gradientTransform="matrix(26.4129 4.53621 -5.44596 22.0006 110.447 25.7477)" gradientUnits="userSpaceOnUse">
<stop stop-color="#558B91"/>
<stop offset="1" stop-color="#9FF0F9" stop-opacity="0"/>
</radialGradient>
<radialGradient id="paint6_radial_10518_34374" cx="0" cy="0" r="1" gradientTransform="matrix(14.0258 -0.708092 0.800054 10.9963 160.493 25.0497)" gradientUnits="userSpaceOnUse">
<stop offset="0.29421" stop-color="#0A1852" stop-opacity="0.7"/>
<stop offset="1" stop-color="#D4D2DB" stop-opacity="0"/>
</radialGradient>
<radialGradient id="paint7_radial_10518_34374" cx="0" cy="0" r="1" gradientUnits="userSpaceOnUse" gradientTransform="translate(174.715 23.9206) rotate(165.349) scale(14.1707 15.5783)">
<stop stop-color="#0A1852" stop-opacity="0.7"/>
<stop offset="1" stop-color="#0A1852" stop-opacity="0"/>
</radialGradient>
<radialGradient id="paint8_radial_10518_34374" cx="0" cy="0" r="1" gradientTransform="matrix(18.2208 1.84372 -1.08403 7.43098 191.044 28.6257)" gradientUnits="userSpaceOnUse">
<stop stop-color="#0A1852" stop-opacity="0.7"/>
<stop offset="1" stop-color="#0A1852" stop-opacity="0"/>
</radialGradient>
<radialGradient id="paint9_radial_10518_34374" cx="0" cy="0" r="1" gradientUnits="userSpaceOnUse" gradientTransform="translate(164.785 33.0511) scale(52.0144 12.2083)">
<stop stop-color="#0A1852"/>
<stop offset="1" stop-color="#0A1852" stop-opacity="0"/>
</radialGradient>
<radialGradient id="paint10_radial_10518_34374" cx="0" cy="0" r="1" gradientTransform="matrix(22.3986 -10.8438 6.12007 8.77071 141.324 28.6989)" gradientUnits="userSpaceOnUse">
<stop offset="0.565666" stop-color="#FFE4BE" stop-opacity="0"/>
<stop offset="1" stop-color="#FFE4BE"/>
</radialGradient>
<radialGradient id="paint11_radial_10518_34374" cx="0" cy="0" r="1" gradientTransform="matrix(18.9705 -4.67324 2.23158 6.28506 132.349 21.0716)" gradientUnits="userSpaceOnUse">
<stop stop-color="#FFE4BE"/>
<stop offset="0.474747" stop-color="#FFE4BE" stop-opacity="0.751163"/>
<stop offset="1" stop-color="#FFE4BE" stop-opacity="0"/>
</radialGradient>
<radialGradient id="paint12_radial_10518_34374" cx="0" cy="0" r="1" gradientTransform="matrix(21.099 -4.48708 2.4428 7.96935 127.946 28.0915)" gradientUnits="userSpaceOnUse">
<stop stop-color="#FFE4BE"/>
<stop offset="0.474747" stop-color="#FFE4BE" stop-opacity="0.751163"/>
<stop offset="1" stop-color="#FFE4BE" stop-opacity="0"/>
</radialGradient>
<radialGradient id="paint13_radial_10518_34374" cx="0" cy="0" r="1" gradientTransform="matrix(29.1795 -9.0988 6.77308 15.0701 134.979 38.686)" gradientUnits="userSpaceOnUse">
<stop offset="0.639221" stop-color="#FFE4BE" stop-opacity="0"/>
<stop offset="0.932424" stop-color="#FFE4BE"/>
</radialGradient>
<radialGradient id="paint14_radial_10518_34374" cx="0" cy="0" r="1" gradientTransform="matrix(17.4586 -2.92492 2.52102 10.4341 134.407 33.0766)" gradientUnits="userSpaceOnUse">
<stop stop-color="#0A1852" stop-opacity="0.7"/>
<stop offset="1" stop-color="#0A1852" stop-opacity="0"/>
</radialGradient>
<radialGradient id="paint15_radial_10518_34374" cx="0" cy="0" r="1" gradientTransform="matrix(74.5925 3.23962 -6.92393 38.5651 47.7995 9.73435)" gradientUnits="userSpaceOnUse">
<stop stop-color="white"/>
<stop offset="0.47" stop-color="#D7E1F9"/>
<stop offset="1" stop-color="#7FA9C5"/>
</radialGradient>
<radialGradient id="paint16_radial_10518_34374" cx="0" cy="0" r="1" gradientTransform="matrix(140.628 -21.5648 44.2954 69.8753 -23.714 24.4619)" gradientUnits="userSpaceOnUse">
<stop stop-color="#FFC25E"/>
<stop offset="1" stop-color="#AB83A8" stop-opacity="0"/>
</radialGradient>
<radialGradient id="paint17_radial_10518_34374" cx="0" cy="0" r="1" gradientTransform="matrix(66.1291 -27.3326 28.9111 23.4588 75.3778 27.3641)" gradientUnits="userSpaceOnUse">
<stop offset="0.133114" stop-color="#977AA3" stop-opacity="0"/>
<stop offset="1" stop-color="#473E6B"/>
</radialGradient>
<radialGradient id="paint18_radial_10518_34374" cx="0" cy="0" r="1" gradientTransform="matrix(86.6617 2.42572 -2.21974 19.1836 33.7082 2.97699)" gradientUnits="userSpaceOnUse">
<stop stop-color="#558B91"/>
<stop offset="1" stop-color="#9FF0F9" stop-opacity="0"/>
</radialGradient>
<radialGradient id="paint19_radial_10518_34374" cx="0" cy="0" r="1" gradientTransform="matrix(26.4129 4.53621 -5.44596 22.0006 10.0785 25.7477)" gradientUnits="userSpaceOnUse">
<stop stop-color="#558B91"/>
<stop offset="1" stop-color="#9FF0F9" stop-opacity="0"/>
</radialGradient>
<radialGradient id="paint20_radial_10518_34374" cx="0" cy="0" r="1" gradientTransform="matrix(14.0258 -0.708092 0.800054 10.9963 60.1239 25.0497)" gradientUnits="userSpaceOnUse">
<stop offset="0.29421" stop-color="#0A1852" stop-opacity="0.7"/>
<stop offset="1" stop-color="#D4D2DB" stop-opacity="0"/>
</radialGradient>
<radialGradient id="paint21_radial_10518_34374" cx="0" cy="0" r="1" gradientUnits="userSpaceOnUse" gradientTransform="translate(74.3462 23.9206) rotate(165.349) scale(14.1707 15.5783)">
<stop stop-color="#0A1852" stop-opacity="0.7"/>
<stop offset="1" stop-color="#0A1852" stop-opacity="0"/>
</radialGradient>
<radialGradient id="paint22_radial_10518_34374" cx="0" cy="0" r="1" gradientTransform="matrix(18.2208 1.84372 -1.08403 7.43098 90.6746 28.6257)" gradientUnits="userSpaceOnUse">
<stop stop-color="#0A1852" stop-opacity="0.7"/>
<stop offset="1" stop-color="#0A1852" stop-opacity="0"/>
</radialGradient>
<radialGradient id="paint23_radial_10518_34374" cx="0" cy="0" r="1" gradientUnits="userSpaceOnUse" gradientTransform="translate(64.4168 33.0511) scale(52.0144 12.2083)">
<stop stop-color="#0A1852"/>
<stop offset="1" stop-color="#0A1852" stop-opacity="0"/>
</radialGradient>
<radialGradient id="paint24_radial_10518_34374" cx="0" cy="0" r="1" gradientTransform="matrix(17.4586 -2.92492 2.52102 10.4341 34.0356 33.0766)" gradientUnits="userSpaceOnUse">
<stop stop-color="#0A1852" stop-opacity="0.7"/>
<stop offset="1" stop-color="#0A1852" stop-opacity="0"/>
</radialGradient>
<radialGradient id="paint25_radial_10518_34374" cx="0" cy="0" r="1" gradientTransform="matrix(93.8763 4.07713 -8.71392 48.5351 88.7282 2.94501)" gradientUnits="userSpaceOnUse">
<stop stop-color="white"/>
<stop offset="0.47" stop-color="#D7E1F9"/>
<stop offset="1" stop-color="#7FA9C5"/>
</radialGradient>
<radialGradient id="paint26_radial_10518_34374" cx="0" cy="0" r="1" gradientTransform="matrix(176.983 -27.1398 55.7467 87.9397 -1.27312 21.48)" gradientUnits="userSpaceOnUse">
<stop stop-color="#FFC25E"/>
<stop offset="1" stop-color="#AB83A8" stop-opacity="0"/>
</radialGradient>
<radialGradient id="paint27_radial_10518_34374" cx="0" cy="0" r="1" gradientTransform="matrix(120.593 -24.4226 41.0967 49.0883 86.0681 15.1563)" gradientUnits="userSpaceOnUse">
<stop offset="0.398854" stop-color="#977AA3" stop-opacity="0"/>
<stop offset="1" stop-color="#473E6B"/>
</radialGradient>
<radialGradient id="paint28_radial_10518_34374" cx="0" cy="0" r="1" gradientTransform="matrix(109.066 3.05282 -2.79359 24.1429 70.994 -5.55927)" gradientUnits="userSpaceOnUse">
<stop stop-color="#558B91"/>
<stop offset="1" stop-color="#9FF0F9" stop-opacity="0"/>
</radialGradient>
<radialGradient id="paint29_radial_10518_34374" cx="0" cy="0" r="1" gradientTransform="matrix(33.2412 5.70892 -6.85387 27.6883 41.2555 23.0982)" gradientUnits="userSpaceOnUse">
<stop stop-color="#558B91"/>
<stop offset="1" stop-color="#9FF0F9" stop-opacity="0"/>
</radialGradient>
<radialGradient id="paint30_radial_10518_34374" cx="0" cy="0" r="1" gradientTransform="matrix(17.6518 -0.89115 1.00689 13.8391 104.241 22.2201)" gradientUnits="userSpaceOnUse">
<stop offset="0.29421" stop-color="#0A1852" stop-opacity="0.7"/>
<stop offset="1" stop-color="#D4D2DB" stop-opacity="0"/>
</radialGradient>
<radialGradient id="paint31_radial_10518_34374" cx="0" cy="0" r="1" gradientTransform="matrix(-8.26239 2.72505 -3.32324 -6.99168 122.14 20.799)" gradientUnits="userSpaceOnUse">
<stop stop-color="#0A1852" stop-opacity="0.7"/>
<stop offset="1" stop-color="#0A1852" stop-opacity="0"/>
</radialGradient>
<radialGradient id="paint32_radial_10518_34374" cx="0" cy="0" r="1" gradientTransform="matrix(22.9313 2.32036 -1.36428 9.35206 142.689 26.7205)" gradientUnits="userSpaceOnUse">
<stop stop-color="#0A1852" stop-opacity="0.7"/>
<stop offset="1" stop-color="#0A1852" stop-opacity="0"/>
</radialGradient>
<radialGradient id="paint33_radial_10518_34374" cx="0" cy="0" r="1" gradientUnits="userSpaceOnUse" gradientTransform="translate(109.642 32.2891) scale(65.4613 15.3644)">
<stop stop-color="#0A1852"/>
<stop offset="1" stop-color="#0A1852" stop-opacity="0"/>
</radialGradient>
<radialGradient id="paint34_radial_10518_34374" cx="0" cy="0" r="1" gradientTransform="matrix(18.216 8.88931 -4.83941 6.88041 142.044 12.6215)" gradientUnits="userSpaceOnUse">
<stop stop-color="#FFE4BE"/>
<stop offset="0.474747" stop-color="#FFE4BE" stop-opacity="0.751163"/>
<stop offset="1" stop-color="#FFE4BE" stop-opacity="0"/>
</radialGradient>
<radialGradient id="paint35_radial_10518_34374" cx="0" cy="0" r="1" gradientTransform="matrix(27.5606 10.2995 -7.66683 14.234 138.22 23.9181)" gradientUnits="userSpaceOnUse">
<stop offset="0.639221" stop-color="#FFE4BE" stop-opacity="0"/>
<stop offset="0.932424" stop-color="#FFE4BE"/>
</radialGradient>
<radialGradient id="paint36_radial_10518_34374" cx="0" cy="0" r="1" gradientTransform="matrix(19.7166 -2.68395 1.42114 7.24319 110.69 17.1566)" gradientUnits="userSpaceOnUse">
<stop stop-color="#FFE4BE"/>
<stop offset="1" stop-color="#FFE4BE" stop-opacity="0"/>
</radialGradient>
<radialGradient id="paint37_radial_10518_34374" cx="0" cy="0" r="1" gradientTransform="matrix(34.3907 -2.64422 2.24081 20.2202 111.807 31.1122)" gradientUnits="userSpaceOnUse">
<stop offset="0.639221" stop-color="#FFE4BE" stop-opacity="0"/>
<stop offset="1" stop-color="#FFE4BE"/>
</radialGradient>
<radialGradient id="paint38_radial_10518_34374" cx="0" cy="0" r="1" gradientTransform="matrix(-13.6421 -1.85706 -0.983305 5.01165 115.843 6.87806)" gradientUnits="userSpaceOnUse">
<stop stop-color="#FFE4BE"/>
<stop offset="1" stop-color="#FFE4BE" stop-opacity="0"/>
</radialGradient>
<radialGradient id="paint39_radial_10518_34374" cx="0" cy="0" r="1" gradientTransform="matrix(-23.7953 -1.82957 -1.55045 13.9906 115.07 16.5341)" gradientUnits="userSpaceOnUse">
<stop offset="0.639221" stop-color="#FFE4BE" stop-opacity="0"/>
<stop offset="1" stop-color="#FFE4BE"/>
</radialGradient>
<radialGradient id="paint40_radial_10518_34374" cx="0" cy="0" r="1" gradientTransform="matrix(28.1891 -13.6471 7.70225 11.0381 80.1138 26.8134)" gradientUnits="userSpaceOnUse">
<stop offset="0.565666" stop-color="#FFE4BE" stop-opacity="0"/>
<stop offset="1" stop-color="#FFE4BE"/>
</radialGradient>
<radialGradient id="paint41_radial_10518_34374" cx="0" cy="0" r="1" gradientTransform="matrix(23.8747 -5.88137 2.80849 7.90989 68.818 17.2142)" gradientUnits="userSpaceOnUse">
<stop stop-color="#FFE4BE"/>
<stop offset="0.474747" stop-color="#FFE4BE" stop-opacity="0.751163"/>
<stop offset="1" stop-color="#FFE4BE" stop-opacity="0"/>
</radialGradient>
<radialGradient id="paint42_radial_10518_34374" cx="0" cy="0" r="1" gradientTransform="matrix(41.0917 -0.297628 0.167977 16.0904 138.795 37.0578)" gradientUnits="userSpaceOnUse">
<stop offset="0.565666" stop-color="#FFE4BE" stop-opacity="0"/>
<stop offset="1" stop-color="#FFE4BE"/>
</radialGradient>
<radialGradient id="paint43_radial_10518_34374" cx="0" cy="0" r="1" gradientTransform="matrix(30.5508 5.96501 -2.84843 10.1217 133.614 20.6758)" gradientUnits="userSpaceOnUse">
<stop stop-color="#FFE4BE"/>
<stop offset="0.474747" stop-color="#FFE4BE" stop-opacity="0.751163"/>
<stop offset="1" stop-color="#FFE4BE" stop-opacity="0"/>
</radialGradient>
<radialGradient id="paint44_radial_10518_34374" cx="0" cy="0" r="1" gradientTransform="matrix(26.5536 -5.64709 3.07432 10.0296 63.2803 26.0486)" gradientUnits="userSpaceOnUse">
<stop stop-color="#FFE4BE"/>
<stop offset="0.474747" stop-color="#FFE4BE" stop-opacity="0.751163"/>
<stop offset="1" stop-color="#FFE4BE" stop-opacity="0"/>
</radialGradient>
<radialGradient id="paint45_radial_10518_34374" cx="0" cy="0" r="1" gradientTransform="matrix(36.723 -11.451 8.52406 18.9661 72.1315 39.382)" gradientUnits="userSpaceOnUse">
<stop offset="0.639221" stop-color="#FFE4BE" stop-opacity="0"/>
<stop offset="0.932424" stop-color="#FFE4BE"/>
</radialGradient>
<radialGradient id="paint46_radial_10518_34374" cx="0" cy="0" r="1" gradientTransform="matrix(21.972 -3.68107 3.17275 13.1315 71.4091 32.322)" gradientUnits="userSpaceOnUse">
<stop stop-color="#0A1852" stop-opacity="0.7"/>
<stop offset="1" stop-color="#0A1852" stop-opacity="0"/>
</radialGradient>
<linearGradient id="paint47_linear_10518_34374" x1="49.1267" y1="143.247" x2="15.7432" y2="107.047" gradientUnits="userSpaceOnUse">
<stop stop-color="#67C3DC"/>
<stop offset="1" stop-color="#06063C"/>
</linearGradient>
<radialGradient id="paint48_radial_10518_34374" cx="0" cy="0" r="1" gradientUnits="userSpaceOnUse" gradientTransform="translate(41.3955 84.4246) rotate(7.13458) scale(21.7595 11.5215)">
<stop stop-color="#779CAC"/>
<stop offset="1" stop-color="#FFDAC2" stop-opacity="0"/>
</radialGradient>
<linearGradient id="paint49_linear_10518_34374" x1="120.078" y1="171.627" x2="69.1796" y2="107.996" gradientUnits="userSpaceOnUse">
<stop stop-color="#67C3DC"/>
<stop offset="1" stop-color="#06063C"/>
</linearGradient>
<radialGradient id="paint50_radial_10518_34374" cx="0" cy="0" r="1" gradientUnits="userSpaceOnUse" gradientTransform="translate(107.887 89.0783) rotate(-9.63754) scale(15.5073 8.19131)">
<stop stop-color="#628290" stop-opacity="0.7"/>
<stop offset="1" stop-color="#FFDAC2" stop-opacity="0"/>
</radialGradient>
<radialGradient id="paint51_radial_10518_34374" cx="0" cy="0" r="1" gradientUnits="userSpaceOnUse" gradientTransform="translate(80.6271 89.3668) rotate(2.1409) scale(15.4435 5.47364)">
<stop stop-color="#628290" stop-opacity="0.7"/>
<stop offset="1" stop-color="#FFDAC2" stop-opacity="0"/>
</radialGradient>
<linearGradient id="paint52_linear_10518_34374" x1="192.268" y1="169.359" x2="140.627" y2="110.533" gradientUnits="userSpaceOnUse">
<stop stop-color="#67C3DC"/>
<stop offset="1" stop-color="#06063C"/>
</linearGradient>
<radialGradient id="paint53_radial_10518_34374" cx="0" cy="0" r="1" gradientUnits="userSpaceOnUse" gradientTransform="translate(168.324 88.5937) scale(23.9376 9.1149)">
<stop stop-color="#628290"/>
<stop offset="1" stop-color="#FFDAC2" stop-opacity="0"/>
</radialGradient>
<radialGradient id="paint54_radial_10518_34374" cx="0" cy="0" r="1" gradientUnits="userSpaceOnUse" gradientTransform="translate(195.291 88.5937) rotate(-180) scale(9.375 5.28117)">
<stop stop-color="#628290" stop-opacity="0.7"/>
<stop offset="1" stop-color="#FFDAC2" stop-opacity="0"/>
</radialGradient>
<linearGradient id="paint55_linear_10518_34374" x1="152.613" y1="161.551" x2="103.182" y2="34.4218" gradientUnits="userSpaceOnUse">
<stop stop-color="#1F5402"/>
<stop offset="1" stop-color="#F8E390"/>
</linearGradient>
<radialGradient id="paint56_radial_10518_34374" cx="0" cy="0" r="1" gradientTransform="matrix(-143.293 18.6366 -5.78424 -59.6825 130.282 67.8565)" gradientUnits="userSpaceOnUse">
<stop offset="0.476755" stop-color="#044640" stop-opacity="0"/>
<stop offset="1" stop-color="#044640"/>
</radialGradient>
<radialGradient id="paint57_radial_10518_34374" cx="0" cy="0" r="1" gradientTransform="matrix(26.806 -7.27507 5.49923 27.1918 58.4362 83.0621)" gradientUnits="userSpaceOnUse">
<stop stop-color="#F5B87B"/>
<stop offset="1" stop-color="#F5B87B" stop-opacity="0"/>
</radialGradient>
<radialGradient id="paint58_radial_10518_34374" cx="0" cy="0" r="1" gradientTransform="matrix(-28.8291 15.2065 -11.4946 -29.244 202.076 81.3045)" gradientUnits="userSpaceOnUse">
<stop stop-color="#F5B87B"/>
<stop offset="1" stop-color="#F5B87B" stop-opacity="0"/>
</radialGradient>
<radialGradient id="paint59_radial_10518_34374" cx="0" cy="0" r="1" gradientTransform="matrix(23.2685 -30.493 26.3227 26.9549 128.23 79.5726)" gradientUnits="userSpaceOnUse">
<stop stop-color="#F5B87B"/>
<stop offset="1" stop-color="#F5B87B" stop-opacity="0"/>
</radialGradient>
<radialGradient id="paint60_radial_10518_34374" cx="0" cy="0" r="1" gradientTransform="matrix(-30.2275 8.26752 -3.18764 -15.64 43.9001 88.2433)" gradientUnits="userSpaceOnUse">
<stop offset="0.0329412" stop-color="#FFD8BE"/>
<stop offset="1" stop-color="#FFB6A3" stop-opacity="0"/>
</radialGradient>
<radialGradient id="paint61_radial_10518_34374" cx="0" cy="0" r="1" gradientTransform="matrix(-18.0741 9.7115 -6.25624 -15.6252 194.414 86.7993)" gradientUnits="userSpaceOnUse">
<stop offset="0.0329412" stop-color="#FFD8BE"/>
<stop offset="1" stop-color="#FFB6A3" stop-opacity="0"/>
</radialGradient>
<radialGradient id="paint62_radial_10518_34374" cx="0" cy="0" r="1" gradientTransform="matrix(-31.2278 42.9669 -21.7118 -21.1199 105.903 67.2016)" gradientUnits="userSpaceOnUse">
<stop offset="0.201508" stop-color="#FFE4BE"/>
<stop offset="1" stop-color="#FFC7A3" stop-opacity="0"/>
</radialGradient>
<radialGradient id="paint63_radial_10518_34374" cx="0" cy="0" r="1" gradientUnits="userSpaceOnUse" gradientTransform="translate(83.0729 69.7048) rotate(96.4474) scale(36.5038 34.6055)">
<stop offset="0.314864" stop-color="white"/>
<stop offset="1" stop-color="#FFF19F" stop-opacity="0.6"/>
</radialGradient>
</defs>
</svg>
