<svg viewBox="0 0 240 120" fill="none" xmlns="http://www.w3.org/2000/svg">
<path fill-rule="evenodd" clip-rule="evenodd" d="M204.203 74.6771C203.496 77.8001 200.227 83.1527 198.681 85.4387C199.653 86.536 201.148 85.8959 201.773 85.4387C201.148 88.3225 199.212 94.3012 196.473 95.1452C197.679 95.7349 199.2 95.9501 200.808 95.9319C199.849 98.684 198.349 101.672 196.473 102.251C200.271 104.108 207.184 102.251 210.166 101.09C208.863 99.6902 207.911 97.1831 207.293 94.9194C208.424 94.6104 209.419 94.2756 210.166 93.9847C208.046 91.7057 206.853 86.4938 206.522 84.1726C208.112 85.1855 209.614 83.8913 210.166 83.1176C208.73 81.3591 205.815 77.2093 205.638 74.6771H204.203Z" fill="url(#paint0_linear_2215_1473)"/>
<path d="M218.439 93.6933C217.325 91.9699 214.971 87.9345 214.462 85.5801H213.427C213.3 87.4891 211.2 90.6177 210.166 91.9434C210.564 92.5267 211.646 93.5024 212.791 92.7388C212.553 94.4887 211.693 98.4181 210.166 100.136C212.314 101.011 215.702 101.536 218.439 100.136C217.35 99.2612 216.662 95.8675 216.211 93.6933C216.662 94.038 217.739 94.5206 218.439 93.6933Z" fill="url(#paint1_linear_2215_1473)"/>
<path fill-rule="evenodd" clip-rule="evenodd" d="M225.445 67.5541C224.919 70.812 223.636 74.7611 220.758 78.7806C221.481 79.9253 223.746 77.9368 224.212 77.4599C224.051 78.4994 223.382 80.0889 222.594 81.965C221.099 85.5188 219.173 90.1011 219.442 93.9225C219.981 94.2915 220.709 94.4326 221.549 94.4107C220.343 97.4527 219.234 100.87 219.442 103.831C222.271 105.768 232.064 101.423 234.284 100.212C233.306 98.7406 231.554 94.8189 230.302 91.4702C231.246 90.9957 232.025 90.5727 232.517 90.304C230.939 87.9266 227.337 79.1562 227.09 76.7348C228.274 77.7914 230.379 79.0222 230.791 78.2151C228.899 75.5835 226.646 70.1956 226.514 67.5541H225.445Z" fill="url(#paint2_linear_2215_1473)"/>
<path d="M156.829 86.8417C150.75 86.4868 116.892 93.1175 101.971 94.1825L108.75 119.856H240V86.8417C230.789 90.8649 209.163 99.0533 196.342 99.6213C180.316 100.331 162.908 87.1967 156.829 86.8417Z" fill="url(#paint3_radial_2215_1473)"/>
<path d="M156.829 86.8417C150.75 86.4868 116.892 93.1175 101.971 94.1825L108.75 119.856H240V86.8417C230.789 90.8649 209.163 99.0533 196.342 99.6213C180.316 100.331 162.908 87.1967 156.829 86.8417Z" fill="url(#paint4_radial_2215_1473)"/>
<path fill-rule="evenodd" clip-rule="evenodd" d="M156.972 86.8804C151.429 87.7774 150.046 90.2402 152.147 91.2055C154.316 92.2026 155.195 94.3949 148.702 95.048C125.441 97.3876 134.134 108.462 149.711 115.673L173.654 110.769C147.836 108.461 147.851 101.587 152.885 99.2307C157.651 96.9992 163.032 94.2717 159.663 93.0288C154.206 91.015 153.528 87.8854 158.087 87.069L158.052 87.052C157.662 86.9653 157.301 86.907 156.972 86.8804Z" fill="url(#paint5_radial_2215_1473)"/>
<path d="M184.183 109.039C173.221 109.327 131.827 111.346 120 119.712H239.856V115.529C221.923 113.269 192.952 108.808 184.183 109.039Z" fill="url(#paint6_radial_2215_1473)"/>
<path d="M63.0284 13.2692C57.6918 13.4135 42.9803 7.5 44.8553 16.875C58.4131 36.9231 85.8462 77.2212 87.1154 78.0289C88.7019 79.0385 92.5962 75.5769 92.5962 73.4135C93.75 74.5673 98.2212 73.5577 98.2212 69.6635C101.683 70.6731 105.577 66.4904 103.846 62.3077C107.163 63.0289 108.894 59.8558 108.173 56.9712C110.769 56.8269 112.644 53.6539 111.635 51.2019C112.74 50.1442 114.49 47.3942 112.644 44.8558C112.298 45.8942 110.577 46.3462 109.76 46.4423C110.577 44.375 111.548 40.0673 108.894 39.375C108.462 41.8269 104.712 42.4039 103.846 40.2404C102.981 38.0769 106.154 34.0385 105.577 31.2981C105 28.5577 101.683 30 100.529 23.7981C99.375 17.5962 96.3462 11.827 91.4423 12.4039C91.1539 11.0577 89.3942 8.27895 84.6635 7.93279C78.75 7.5001 68.3649 13.125 63.0284 13.2692Z" fill="url(#paint7_radial_2215_1473)"/>
<path d="M63.0284 13.2692C57.6918 13.4135 42.9803 7.5 44.8553 16.875C58.4131 36.9231 85.8462 77.2212 87.1154 78.0289C88.7019 79.0385 92.5962 75.5769 92.5962 73.4135C93.75 74.5673 98.2212 73.5577 98.2212 69.6635C101.683 70.6731 105.577 66.4904 103.846 62.3077C107.163 63.0289 108.894 59.8558 108.173 56.9712C110.769 56.8269 112.644 53.6539 111.635 51.2019C112.74 50.1442 114.49 47.3942 112.644 44.8558C112.298 45.8942 110.577 46.3462 109.76 46.4423C110.577 44.375 111.548 40.0673 108.894 39.375C108.462 41.8269 104.712 42.4039 103.846 40.2404C102.981 38.0769 106.154 34.0385 105.577 31.2981C105 28.5577 101.683 30 100.529 23.7981C99.375 17.5962 96.3462 11.827 91.4423 12.4039C91.1539 11.0577 89.3942 8.27895 84.6635 7.93279C78.75 7.5001 68.3649 13.125 63.0284 13.2692Z" fill="url(#paint8_radial_2215_1473)"/>
<path fill-rule="evenodd" clip-rule="evenodd" d="M91.4221 12.3171C85.8449 13.6528 75.9185 17.2914 74.2786 27.4039C72.5478 38.077 81.4901 46.2981 99.0863 43.8462C101.489 43.5114 103.384 42.609 104.827 41.3094C104.397 41.0913 104.045 40.7385 103.846 40.2405C103.409 39.1472 104.003 37.575 104.623 35.9336C105.23 34.3268 105.862 32.6537 105.577 31.2982C105.348 30.2099 104.687 29.7813 103.9 29.2716C102.706 28.4978 101.225 27.5372 100.529 23.7982C99.375 17.5962 96.3462 11.827 91.4423 12.4039C91.4363 12.3756 91.4295 12.3466 91.4221 12.3171Z" fill="url(#paint9_radial_2215_1473)"/>
<path fill-rule="evenodd" clip-rule="evenodd" d="M55.2601 12.1383C49.2009 15.5336 45.4579 19.2583 51.5626 25.3125C56.0334 29.7464 65.6331 29.2109 74.2885 27.3433C75.9582 17.2769 85.856 13.6502 91.4221 12.3171C91.4295 12.3467 91.4362 12.3756 91.4423 12.404C91.7906 12.363 92.1295 12.354 92.4589 12.375L92.4589 12.3749C92.1295 12.3539 91.7906 12.3629 91.4423 12.4039C91.4362 12.3756 91.4295 12.3466 91.4221 12.3171C91.0785 10.942 89.2948 8.27167 84.6635 7.93279C81.429 7.69612 76.8567 9.27175 72.5044 10.7715C68.8997 12.0137 65.4459 13.2039 63.0283 13.2692C61.6336 13.3069 59.5984 12.9308 57.3863 12.522C56.6902 12.3934 55.9767 12.2615 55.2601 12.1383Z" fill="url(#paint10_radial_2215_1473)"/>
<path d="M44.2793 25.8171C41.8274 25.9613 38.51 32.1633 44.2793 35.4806L65.4808 25.8171C63.0289 26.6825 58.7027 24.2307 54.5201 18.8941C50.3374 13.5576 38.3662 13.7018 39.0874 20.6248H40.097C40.9624 19.0383 45.5778 21.346 44.2793 25.8171Z" fill="url(#paint11_radial_2215_1473)"/>
<path d="M42.1159 47.0192C40.3852 44.4231 43.8467 31.1538 48.4621 24.8077C52.2116 21.6346 55.3125 24.8077 58.7741 25.1683C62.2356 25.5288 64.976 22.9327 71.1058 22.9327C76.0096 22.9327 77.9568 26.7308 78.3173 28.6298C74.7116 36.8509 77.0193 42.8365 80.2644 46.5865C83.5096 50.3365 82.7164 53.798 83.7981 53.6538C84.8798 53.5096 84.8077 51.274 86.1058 50.9134C87.4039 50.5529 87.7644 52.6442 88.7019 52.6442C89.6394 52.6442 93.101 48.8221 93.101 51.274C94.1827 60.2884 92.0192 65.9134 88.0529 64.7596C87.4039 70.0961 88.8462 78.3894 88.4135 83.3653C83.8702 85.3846 73.7019 93.5336 70.3846 96.6346C67.0673 99.7355 65.8414 98.5096 64.1827 98.5096C58.6298 97.2836 55.4568 86.3221 51.6346 82.2115C50.7933 82.3077 48.7356 82.2259 47.2356 81.1298C45.3606 79.7596 46.0818 76.0096 45.4327 75.3605C43.9904 73.4855 42.1159 63.4615 42.1159 60.5769C42.1159 57.6923 43.8467 49.6154 42.1159 47.0192Z" fill="url(#paint12_radial_2215_1473)"/>
<path d="M42.1159 47.0192C40.3852 44.4231 43.8467 31.1538 48.4621 24.8077C52.2116 21.6346 55.3125 24.8077 58.7741 25.1683C62.2356 25.5288 64.976 22.9327 71.1058 22.9327C76.0096 22.9327 77.9568 26.7308 78.3173 28.6298C74.7116 36.8509 77.0193 42.8365 80.2644 46.5865C83.5096 50.3365 82.7164 53.798 83.7981 53.6538C84.8798 53.5096 84.8077 51.274 86.1058 50.9134C87.4039 50.5529 87.7644 52.6442 88.7019 52.6442C89.6394 52.6442 93.101 48.8221 93.101 51.274C94.1827 60.2884 92.0192 65.9134 88.0529 64.7596C87.4039 70.0961 88.8462 78.3894 88.4135 83.3653C83.8702 85.3846 73.7019 93.5336 70.3846 96.6346C67.0673 99.7355 65.8414 98.5096 64.1827 98.5096C58.6298 97.2836 55.4568 86.3221 51.6346 82.2115C50.7933 82.3077 48.7356 82.2259 47.2356 81.1298C45.3606 79.7596 46.0818 76.0096 45.4327 75.3605C43.9904 73.4855 42.1159 63.4615 42.1159 60.5769C42.1159 57.6923 43.8467 49.6154 42.1159 47.0192Z" fill="url(#paint13_radial_2215_1473)"/>
<path d="M42.1159 47.0192C40.3852 44.4231 43.8467 31.1538 48.4621 24.8077C52.2116 21.6346 55.3125 24.8077 58.7741 25.1683C62.2356 25.5288 64.976 22.9327 71.1058 22.9327C76.0096 22.9327 77.9568 26.7308 78.3173 28.6298C74.7116 36.8509 77.0193 42.8365 80.2644 46.5865C83.5096 50.3365 82.7164 53.798 83.7981 53.6538C84.8798 53.5096 84.8077 51.274 86.1058 50.9134C87.4039 50.5529 87.7644 52.6442 88.7019 52.6442C89.6394 52.6442 93.101 48.8221 93.101 51.274C94.1827 60.2884 92.0192 65.9134 88.0529 64.7596C87.4039 70.0961 88.8462 78.3894 88.4135 83.3653C83.8702 85.3846 73.7019 93.5336 70.3846 96.6346C67.0673 99.7355 65.8414 98.5096 64.1827 98.5096C58.6298 97.2836 55.4568 86.3221 51.6346 82.2115C50.7933 82.3077 48.7356 82.2259 47.2356 81.1298C45.3606 79.7596 46.0818 76.0096 45.4327 75.3605C43.9904 73.4855 42.1159 63.4615 42.1159 60.5769C42.1159 57.6923 43.8467 49.6154 42.1159 47.0192Z" fill="url(#paint14_radial_2215_1473)"/>
<path d="M49.111 50.338C49.3273 48.6072 50.7697 47.1649 51.4908 43.0543C52.0676 42.4053 54.6635 41.5688 54.6635 44.5688C54.6635 51.0217 60.3967 58.9198 57.6923 61.2275C56.7034 62.0714 51.4908 62.3091 48.3177 60.2899C45.1447 58.2707 48.8947 52.0687 49.111 50.338Z" fill="url(#paint15_radial_2215_1473)"/>
<path d="M49.111 50.338C49.3273 48.6072 50.7697 47.1649 51.4908 43.0543C52.0676 42.4053 54.6635 41.5688 54.6635 44.5688C54.6635 51.0217 60.3967 58.9198 57.6923 61.2275C56.7034 62.0714 51.4908 62.3091 48.3177 60.2899C45.1447 58.2707 48.8947 52.0687 49.111 50.338Z" fill="url(#paint16_radial_2215_1473)"/>
<path d="M53.2212 95.2088L55.9616 92.0192L62.0193 98.5434H69.0866L80.0481 96.5137L74.7116 119.856H45.8654L53.2212 95.2088Z" fill="url(#paint17_radial_2215_1473)"/>
<path fill-rule="evenodd" clip-rule="evenodd" d="M69.0232 97.7581C67.2863 98.9764 66.2345 98.7974 65.2289 98.6262C64.8835 98.5675 64.5436 98.5096 64.1833 98.5096C60.6465 97.7287 58.0751 92.9983 55.6865 88.6041C54.3462 86.1384 53.0635 83.7785 51.7 82.2819C53.0028 82.2494 54.9794 81.7654 56.5391 80.9855C57.5733 81.7612 58.7003 83.8811 60.0329 86.3879C62.271 90.598 65.0893 95.8995 69.0232 97.7581Z" fill="url(#paint18_radial_2215_1473)"/>
<path d="M86.2501 61.0096C85.4424 57.6635 88.6058 53.8462 90.2885 52.3558C93.0289 57.9808 90.4328 62.0192 86.2501 61.0096Z" fill="url(#paint19_radial_2215_1473)"/>
<path d="M48.7504 119.856C50.0481 112.933 51.9235 106.875 55.6735 95.625L52.1034 94.6154L45.2885 103.269L41.6827 119.856H48.7504Z" fill="url(#paint20_linear_2215_1473)"/>
<path d="M67.0673 119.856C68.5096 116.538 77.7404 101.971 90 90.5769V102.837L84.6903 119.856H67.0673Z" fill="url(#paint21_linear_2215_1473)"/>
<path d="M34.7596 99.2307C36.6058 99.1153 45.7212 94.9519 50.0481 92.8846L40.9616 119.856H20.4808C21.3462 115.769 23.7981 106.817 26.6827 103.702C28.2693 103.413 32.452 99.375 34.7596 99.2307Z" fill="url(#paint22_linear_2215_1473)"/>
<path d="M34.7596 99.2307C36.6058 99.1153 45.7212 94.9519 50.0481 92.8846L40.9616 119.856H20.4808C21.3462 115.769 23.7981 106.817 26.6827 103.702C28.2693 103.413 32.452 99.375 34.7596 99.2307Z" fill="url(#paint23_radial_2215_1473)"/>
<path d="M34.7596 99.2307C36.6058 99.1153 45.7212 94.9519 50.0481 92.8846L40.9616 119.856H20.4808C21.3462 115.769 23.7981 106.817 26.6827 103.702C28.2693 103.413 32.452 99.375 34.7596 99.2307Z" fill="url(#paint24_radial_2215_1473)"/>
<path d="M52.2119 90C53.0773 89.4231 54.5196 88.4135 55.5292 88.2692L56.5385 90C55.3846 99.5192 42.5485 112.067 42.5485 119.856H39.2312C39.1831 113.654 39.7792 100.904 42.5485 99.5192C46.01 97.7885 51.3465 90.5769 52.2119 90Z" fill="url(#paint25_linear_2215_1473)"/>
<path d="M52.2119 90C53.0773 89.4231 54.5196 88.4135 55.5292 88.2692L56.5385 90C55.3846 99.5192 42.5485 112.067 42.5485 119.856H39.2312C39.1831 113.654 39.7792 100.904 42.5485 99.5192C46.01 97.7885 51.3465 90.5769 52.2119 90Z" fill="url(#paint26_radial_2215_1473)"/>
<path d="M132.692 108.173C130.096 107.019 108.75 98.798 101.538 91.5865C98.5577 95.3846 92.4231 103.125 91.7308 103.702C91.0385 104.279 88.4616 114.711 87.2596 119.856H138.173C137.692 118.269 136.615 114.635 136.154 112.788C135.577 110.481 135.288 109.327 132.692 108.173Z" fill="url(#paint27_linear_2215_1473)"/>
<path d="M132.692 108.173C130.096 107.019 108.75 98.798 101.538 91.5865C98.5577 95.3846 92.4231 103.125 91.7308 103.702C91.0385 104.279 88.4616 114.711 87.2596 119.856H138.173C137.692 118.269 136.615 114.635 136.154 112.788C135.577 110.481 135.288 109.327 132.692 108.173Z" fill="url(#paint28_radial_2215_1473)"/>
<path d="M132.692 108.173C130.096 107.019 108.75 98.798 101.538 91.5865C98.5577 95.3846 92.4231 103.125 91.7308 103.702C91.0385 104.279 88.4616 114.711 87.2596 119.856H138.173C137.692 118.269 136.615 114.635 136.154 112.788C135.577 110.481 135.288 109.327 132.692 108.173Z" fill="url(#paint29_radial_2215_1473)"/>
<path d="M90.7212 89.279C92.488 84.8439 91.2298 80.3141 88.4894 80.0256V78.5833C95.2683 78.1506 95.1923 83.2213 96.9231 86.1059C98.6539 88.9905 102.115 90.0001 102.115 91.5867C102.115 93.1732 103.125 108.029 102.115 109.039C101.106 110.048 95.1923 108.173 95.1923 109.039C95.1923 109.904 103.125 116.827 103.125 117.548C103.125 118.125 102.452 119.327 102.115 119.856H75.1443C75.1443 113.654 87.4048 97.6036 90.7212 89.279Z" fill="url(#paint30_linear_2215_1473)"/>
<path d="M90.7212 89.279C92.488 84.8439 91.2298 80.3141 88.4894 80.0256V78.5833C95.2683 78.1506 95.1923 83.2213 96.9231 86.1059C98.6539 88.9905 102.115 90.0001 102.115 91.5867C102.115 93.1732 103.125 108.029 102.115 109.039C101.106 110.048 95.1923 108.173 95.1923 109.039C95.1923 109.904 103.125 116.827 103.125 117.548C103.125 118.125 102.452 119.327 102.115 119.856H75.1443C75.1443 113.654 87.4048 97.6036 90.7212 89.279Z" fill="url(#paint31_radial_2215_1473)"/>
<path d="M64.039 98.5096C60.9237 97.2404 57.7287 92.1394 56.4307 89.7836C52.6231 94.2836 56.2509 99.6634 56.2508 105.865C57.4046 103.413 60.5776 98.5096 64.039 98.5096Z" fill="url(#paint32_radial_2215_1473)"/>
<path d="M88.125 83.4374C81.0577 86.8989 68.9423 96.4903 67.6443 98.5095C72.2596 101.394 71.3943 107.74 76.0096 107.74C76.2981 105.288 88.5577 94.1826 91.1539 89.4229C92.1929 87.5181 91.4804 81.2955 90.7212 80.6249C89.9619 79.9544 88.4856 79.2548 88.4856 79.2548L88.125 83.4374Z" fill="url(#paint33_radial_2215_1473)"/>
<path d="M88.125 83.4374C81.0577 86.8989 68.9423 96.4903 67.6443 98.5095C72.2596 101.394 71.3943 107.74 76.0096 107.74C76.2981 105.288 88.5577 94.1826 91.1539 89.4229C92.1929 87.5181 91.4804 81.2955 90.7212 80.6249C89.9619 79.9544 88.4856 79.2548 88.4856 79.2548L88.125 83.4374Z" fill="url(#paint34_radial_2215_1473)"/>
<path d="M44.8556 75.7932C44.3268 73.9904 43.7594 69.7356 45.721 67.1394C46.8509 66.1057 50.0337 64.3413 53.726 65.5529C58.3414 67.0673 57.6202 74.1346 54.8798 75.0721C52.9327 73.4856 47.8123 72.1875 44.8556 75.7932Z" fill="url(#paint35_radial_2215_1473)"/>
<path d="M49.327 68.6538C48.0289 68.5817 46.7308 69.375 45.6491 67.0673L48.8943 66.0577C50.8654 66.3942 54.75 67.1827 54.5193 67.6442C54.2308 68.2211 50.625 68.7259 49.327 68.6538Z" fill="url(#paint36_radial_2215_1473)"/>
<path d="M47.3438 48.4614C46.3221 49.0503 44.3438 50.0407 42.8726 49.4349C42.8726 49.4349 42.0437 48.5695 42.4404 47.5599C42.837 46.5503 44.3149 45.9085 45.1803 45.7931C46.262 45.6489 47.488 47.4157 47.3438 48.4614Z" fill="white"/>
<path d="M37.6443 68.6538C36.2741 65.4086 40.0963 60.649 45.7212 60.649C48.5097 60.4327 54.3462 60.2163 55.3846 61.0817C55.9616 61.0096 59.2789 62.8846 59.2789 64.7596C63.75 68.0048 61.3702 72.6202 62.8125 74.6394C58.1971 76.298 57.2596 71.1779 54.8077 68.6538C52.3558 66.1298 46.2981 67.1394 44.7116 67.3557C43.125 67.5721 42.6923 68.6538 42.8366 70.3125C42.9808 71.9711 42.1875 73.8461 39.2308 74.6394C39.6635 74.0144 40.3846 72.4471 39.8077 71.1779C39.7596 71.5625 39.2597 72.548 37.6443 73.4134C38.1011 72.9086 38.7405 71.25 37.6443 68.6538Z" fill="url(#paint37_radial_2215_1473)"/>
<path d="M47.2353 49.6874C47.8122 48.3172 50.6247 44.6393 47.8122 40.8893C47.2349 34.4318 53.3654 38.3653 51.851 41.2499C50.3366 44.1345 53.726 53.5095 53.726 55.0239C55.6731 55.096 56.9712 60.4326 53.726 59.3508C53.7981 58.2691 49.9039 57.1874 48.3894 60.4326C47.7643 60.721 46.2112 61.1249 44.9997 60.4326C43.4853 59.5672 43.341 57.4758 44.4228 56.1778C45.5045 54.8797 46.6583 51.0576 47.2353 49.6874Z" fill="url(#paint38_radial_2215_1473)"/>
<path d="M47.2353 49.6874C47.8122 48.3172 50.6247 44.6393 47.8122 40.8893C47.2349 34.4318 53.3654 38.3653 51.851 41.2499C50.3366 44.1345 53.726 53.5095 53.726 55.0239C55.6731 55.096 56.9712 60.4326 53.726 59.3508C53.7981 58.2691 49.9039 57.1874 48.3894 60.4326C47.7643 60.721 46.2112 61.1249 44.9997 60.4326C43.4853 59.5672 43.341 57.4758 44.4228 56.1778C45.5045 54.8797 46.6583 51.0576 47.2353 49.6874Z" fill="url(#paint39_radial_2215_1473)"/>
<path d="M53.7263 59.3508C53.7984 58.269 49.9041 57.1873 48.3897 60.4325C44.7112 62.6682 47.2615 54.1354 53.7263 54.3749C55.6734 54.447 56.9716 60.4325 53.7263 59.3508Z" fill="url(#paint40_radial_2215_1473)"/>
<path d="M53.7263 59.3508C53.7984 58.269 49.9041 57.1873 48.3897 60.4325C44.7112 62.6682 47.2615 54.1354 53.7263 54.3749C55.6734 54.447 56.9716 60.4325 53.7263 59.3508Z" fill="url(#paint41_radial_2215_1473)"/>
<path d="M57.5484 48.714C57.1037 48.3414 56.3729 47.2789 57.0075 46.0097C57.5243 45.9375 58.8967 45.6419 60.2524 45.0361C61.9471 44.2789 67.6803 46.1899 66.1298 47.3799C64.5793 48.5698 59.1349 48.4976 57.5484 48.714Z" fill="white"/>
<path d="M98.0982 45.6467C91.3422 45.6307 94.0423 29.2588 82.6816 28.5155C98.6319 19.0129 99.0212 44.9325 103.864 40.194C104.194 42.0169 103.503 45.6594 98.0982 45.6467Z" fill="url(#paint42_radial_2215_1473)"/>
<path fill-rule="evenodd" clip-rule="evenodd" d="M45.589 49.2932C44.6977 49.61 43.7042 49.7775 42.8726 49.4351C42.8726 49.4351 42.0437 48.5697 42.4404 47.5601C42.7266 46.8314 43.5761 46.2944 44.352 46.0085C45.3246 46.1438 46.0733 46.9787 46.0733 47.9886C46.0733 48.4871 45.8908 48.943 45.589 49.2932Z" fill="url(#paint43_radial_2215_1473)"/>
<path fill-rule="evenodd" clip-rule="evenodd" d="M45.589 49.2932C44.6977 49.61 43.7042 49.7775 42.8726 49.4351C42.8726 49.4351 42.0437 48.5697 42.4404 47.5601C42.7266 46.8314 43.5761 46.2944 44.352 46.0085C45.3246 46.1438 46.0733 46.9787 46.0733 47.9886C46.0733 48.4871 45.8908 48.943 45.589 49.2932Z" fill="url(#paint44_radial_2215_1473)"/>
<path fill-rule="evenodd" clip-rule="evenodd" d="M57.0267 45.9308C56.3431 47.298 57.1302 48.4424 57.6093 48.8438C58.0433 48.7846 58.7454 48.7454 59.5787 48.699C59.8917 48.6815 60.2232 48.663 60.566 48.6421C60.8168 48.2657 60.963 47.8137 60.963 47.3275C60.963 46.4121 60.4447 45.6177 59.6856 45.2217C58.528 45.6481 57.4764 45.8681 57.0267 45.9308Z" fill="url(#paint45_radial_2215_1473)"/>
<path fill-rule="evenodd" clip-rule="evenodd" d="M57.0267 45.9308C56.3431 47.298 57.1302 48.4424 57.6093 48.8438C58.0433 48.7846 58.7454 48.7454 59.5787 48.699C59.8917 48.6815 60.2232 48.663 60.566 48.6421C60.8168 48.2657 60.963 47.8137 60.963 47.3275C60.963 46.4121 60.4447 45.6177 59.6856 45.2217C58.528 45.6481 57.4764 45.8681 57.0267 45.9308Z" fill="url(#paint46_radial_2215_1473)"/>
<path d="M90.7685 51.9584C83.4027 50.4158 90.0439 33.1669 77.8196 29.7914C97.3634 23.0269 91.9366 51.3877 98.2887 47.3123C98.2372 49.3752 96.6612 53.1924 90.7685 51.9584Z" fill="url(#paint47_radial_2215_1473)"/>
<path d="M42.2958 47.8847C43.1732 47.0434 45.4833 45.5842 47.7045 46.4785C49.6517 42.0794 42.2958 42.3319 41.5747 44.3511C40.9977 45.9665 41.815 47.3799 42.2958 47.8847Z" fill="url(#paint48_radial_2215_1473)"/>
<path d="M61.9834 45.9734C60.2166 45.5407 57.4042 46.6946 55.5292 45.9734C54.0118 45.3898 53.1984 44.0087 54.4475 42.8362C56.8134 40.6155 64.1829 41.6463 67.5723 42.4396C68.3415 44.1945 69.4616 47.7908 67.7886 48.1369C65.6973 48.5697 63.7502 46.4061 61.9834 45.9734Z" fill="url(#paint49_radial_2215_1473)"/>
<path d="M52.5719 39.2307C51.8748 40.6009 51.2161 43.6586 54.1584 44.9279C57.764 42.0432 67.9327 44.2788 69.2308 44.9279C70.5288 45.5769 71.3942 44.2788 69.9519 43.3413C68.5096 42.4038 68.2933 42.1875 68.2933 41.0336C67.1394 41.6827 65.3365 39.9519 64.3269 40.3846C63.5192 40.7307 63.9904 39.7596 64.3269 39.2307C64.0625 39.2307 63.1731 39.375 61.7308 39.9519C59.9279 40.673 57.7644 39.2307 56.6106 38.8702C55.4567 38.5096 54.1584 40.2404 53.5096 40.3846C52.9906 40.5 52.6682 39.6634 52.5719 39.2307Z" fill="url(#paint50_radial_2215_1473)"/>
<path d="M52.5719 39.2307C51.8748 40.6009 51.2161 43.6586 54.1584 44.9279C57.764 42.0432 67.9327 44.2788 69.2308 44.9279C70.5288 45.5769 71.3942 44.2788 69.9519 43.3413C68.5096 42.4038 68.2933 42.1875 68.2933 41.0336C67.1394 41.6827 65.3365 39.9519 64.3269 40.3846C63.5192 40.7307 63.9904 39.7596 64.3269 39.2307C64.0625 39.2307 63.1731 39.375 61.7308 39.9519C59.9279 40.673 57.7644 39.2307 56.6106 38.8702C55.4567 38.5096 54.1584 40.2404 53.5096 40.3846C52.9906 40.5 52.6682 39.6634 52.5719 39.2307Z" fill="url(#paint51_radial_2215_1473)"/>
<path d="M45.9015 40.3485C46.6346 40.1442 48.3101 40.4639 49.1466 43.3774C47.3798 45.3245 43.738 43.9543 41.6827 44.8918C41.3221 44.8197 40.363 44.8269 39.4111 45.4327C39.5553 44.423 42.2236 43.8461 40.0962 43.3774C40.8654 42.8245 42.75 41.8197 44.1346 42.2235C45.8654 42.7283 47.3798 41.3942 45.9015 40.3485Z" fill="url(#paint52_radial_2215_1473)"/>
<path d="M45.9015 40.3485C46.6346 40.1442 48.3101 40.4639 49.1466 43.3774C47.3798 45.3245 43.738 43.9543 41.6827 44.8918C41.3221 44.8197 40.363 44.8269 39.4111 45.4327C39.5553 44.423 42.2236 43.8461 40.0962 43.3774C40.8654 42.8245 42.75 41.8197 44.1346 42.2235C45.8654 42.7283 47.3798 41.3942 45.9015 40.3485Z" fill="url(#paint53_radial_2215_1473)"/>
<path d="M53.3654 120C55.9616 118.382 59.7116 97.7858 64.1827 98.08C64.9904 98.6685 67.1154 98.3252 68.077 98.08C71.1058 98.08 68.077 115.292 63.1731 120H53.3654Z" fill="url(#paint54_linear_2215_1473)"/>
<path d="M53.3654 120C55.9616 118.382 59.7116 97.7858 64.1827 98.08C64.9904 98.6685 67.1154 98.3252 68.077 98.08C71.1058 98.08 68.077 115.292 63.1731 120H53.3654Z" fill="url(#paint55_radial_2215_1473)"/>
<path d="M48.3173 60.2885C49.6154 57.8366 53.3221 56.0049 53.7259 59.0625C53.8033 59.6483 50.5529 60.2885 48.3173 60.2885Z" fill="url(#paint56_radial_2215_1473)"/>
<path d="M223.269 118.269C215.192 118.731 189.135 114.615 177.115 112.5L199.327 109.615C210.673 112.308 231.346 117.808 223.269 118.269Z" fill="url(#paint57_radial_2215_1473)"/>
<path d="M220.973 21.0165L191.956 53.5409V56.4106L220.973 23.0892V21.0165Z" fill="#AB9D9D"/>
<path d="M210.052 38.1554C209.334 46.446 202.558 56.7294 194.348 53.3016L195.703 51.8667C206.544 52.1855 208.617 38.8729 208.776 36.8003L210.052 35.5248C211.407 39.0323 218.82 36.6408 219.777 24.0456L220.574 23.3282C221.69 33.2927 213.798 42.8587 210.052 38.1554Z" fill="#AB9D9D"/>
<path fill-rule="evenodd" clip-rule="evenodd" d="M221.424 33.1723C222.607 29.6608 222.626 26.2865 220.244 23.0742L221.064 22.4665C223.705 26.0285 223.644 29.78 222.391 33.4982C221.293 36.7547 219.261 40.0463 217.294 43.2306C217.036 43.6484 216.779 44.0644 216.526 44.4782C214.314 48.089 212.37 51.5213 211.945 54.7238C211.735 56.3069 211.9 57.8198 212.586 59.2669C213.273 60.7176 214.502 62.1395 216.48 63.5079L215.9 64.3471C213.812 62.9035 212.445 61.3537 211.664 59.7038C210.88 58.0504 210.703 56.3339 210.934 54.5897C211.391 51.1377 213.463 47.5241 215.655 43.9452C215.911 43.5277 216.169 43.1105 216.426 42.6935C218.402 39.4928 220.367 36.3094 221.424 33.1723Z" fill="#AB9D9D"/>
<path d="M187.827 36.4714C186.311 37.0294 183.09 39.5804 180.059 39.5804C180.741 40.4733 182.301 41.3341 182.995 41.6529C183.248 41.9718 183.602 43.1994 182.995 45.559C182.238 48.5085 185.648 50.8203 186.88 50.1028C186.974 50.7406 187.107 52.59 186.88 54.8858C186.595 57.7556 178.164 65.9664 174.848 68.4376C171.532 70.9088 167.364 76.1701 168.785 76.8079C167.427 77.977 164.712 80.4908 164.712 81.1923C164.712 82.0691 165.659 82.6272 166.417 82.388C167.023 82.1967 169.574 79.1196 170.775 77.605H171.627C173.067 75.1179 180.311 69.1285 183.753 66.4447C183.905 68.6768 182.68 76.6219 182.048 80.3154H182.995C181.859 84.2693 177.469 100.617 175.417 108.296L176.459 108.854C173.332 110.528 168.501 109.013 167.364 107.818C166.228 106.622 165.375 105.825 165.659 107.818C165.943 109.81 169.828 111.644 171.627 111.644C173.427 111.644 174.375 113.079 177.122 112.521C177.728 112.074 178.448 110.475 178.733 109.731H179.585L184.89 94.5846C189.362 96.8167 192.311 104.655 193.227 108.296H194.269C194.174 109.332 189.343 111.644 187.922 110.926C186.501 110.209 185.364 110.926 186.69 111.644C190.196 113.557 192.753 111.564 195.406 111.644C197.528 111.708 199.385 110.714 200.048 110.209C199.593 109.189 198.911 108.508 198.627 108.296C198.438 107.499 197.528 104.756 195.406 100.165C192.753 94.4252 190.575 92.6714 190.29 90.5988C190.063 88.9407 192.153 82.0957 193.227 78.8805C194.364 78.8008 194.648 78.5616 195.406 78.4819C196.164 78.4022 193.89 61.5023 195.406 58.9514C195.406 56.9585 193.701 52.8929 192.374 50.8203C191.313 49.1622 192.311 47.4722 192.943 46.8345C193.101 47.3128 194.004 48.2694 196.353 48.2694C194.838 46.2765 195.406 41.2544 195.406 39.5804C195.406 37.9063 189.343 35.9134 187.827 36.4714Z" fill="url(#paint58_radial_2215_1473)"/>
<path fill-rule="evenodd" clip-rule="evenodd" d="M214.824 67.5442C215.287 66.5763 215.73 65.4608 215.73 63.6728H217.576C217.576 65.8308 217.023 67.2263 216.49 68.341C216.411 68.5061 216.335 68.6597 216.265 68.8041C215.846 69.6611 215.583 70.1981 215.583 70.927C215.583 71.8276 215.865 72.3099 216.115 72.5712C216.388 72.8573 216.692 72.9495 216.784 72.9627C216.906 72.9801 217.258 72.9833 217.574 72.7098C217.88 72.4451 218.361 71.741 218.361 69.8907H220.207C220.207 72.0261 219.651 73.3548 218.782 74.1065C217.922 74.8494 216.959 74.8526 216.523 74.7903C216.057 74.7238 215.364 74.4572 214.78 73.8466C214.173 73.211 213.737 72.2584 213.737 70.927C213.737 69.736 214.212 68.7803 214.631 67.9379C214.697 67.804 214.763 67.6729 214.824 67.5442Z" fill="#AB9D9D"/>
<defs>
<linearGradient id="paint0_linear_2215_1473" x1="203.319" y1="74.6771" x2="203.319" y2="103.039" gradientUnits="userSpaceOnUse">
<stop stop-color="#979D74"/>
<stop offset="1" stop-color="#53592F"/>
</linearGradient>
<linearGradient id="paint1_linear_2215_1473" x1="214.302" y1="85.5801" x2="214.302" y2="101" gradientUnits="userSpaceOnUse">
<stop stop-color="#979D74"/>
<stop offset="1" stop-color="#53592F"/>
</linearGradient>
<linearGradient id="paint2_linear_2215_1473" x1="226.85" y1="67.5541" x2="226.85" y2="104.321" gradientUnits="userSpaceOnUse">
<stop stop-color="#979D74"/>
<stop offset="1" stop-color="#53592F"/>
</linearGradient>
<radialGradient id="paint3_radial_2215_1473" cx="0" cy="0" r="1" gradientUnits="userSpaceOnUse" gradientTransform="translate(127.788 86.8267) rotate(-16.9109) scale(38.2903 17.5537)">
<stop stop-color="#EADC64"/>
<stop offset="1" stop-color="#858F48"/>
</radialGradient>
<radialGradient id="paint4_radial_2215_1473" cx="0" cy="0" r="1" gradientUnits="userSpaceOnUse" gradientTransform="translate(214.615 86.8267) rotate(159.607) scale(47.3934 21.3692)">
<stop stop-color="#E9DC65"/>
<stop offset="1" stop-color="#E9DC65" stop-opacity="0"/>
</radialGradient>
<radialGradient id="paint5_radial_2215_1473" cx="0" cy="0" r="1" gradientUnits="userSpaceOnUse" gradientTransform="translate(151.433 82.7476) rotate(85.7675) scale(46.9117 31.5987)">
<stop stop-color="#67EDFF"/>
<stop offset="1" stop-color="#4AB8FA"/>
</radialGradient>
<radialGradient id="paint6_radial_2215_1473" cx="0" cy="0" r="1" gradientUnits="userSpaceOnUse" gradientTransform="translate(159.519 106.01) rotate(-0.833334) scale(39.6676 13.2609)">
<stop stop-color="#A4BA20"/>
<stop offset="1" stop-color="#4E7B15"/>
</radialGradient>
<radialGradient id="paint7_radial_2215_1473" cx="0" cy="0" r="1" gradientUnits="userSpaceOnUse" gradientTransform="translate(67.7885 35.1923) rotate(75.3033) scale(44.4719 43.4974)">
<stop stop-color="#FDF1DE"/>
<stop offset="1" stop-color="#9D9CBD"/>
</radialGradient>
<radialGradient id="paint8_radial_2215_1473" cx="0" cy="0" r="1" gradientUnits="userSpaceOnUse" gradientTransform="translate(86.5385 70.6731) rotate(-114.368) scale(26.9171 20.1842)">
<stop offset="0.201614" stop-color="#464653" stop-opacity="0.58"/>
<stop offset="1" stop-color="#9292A9" stop-opacity="0"/>
</radialGradient>
<radialGradient id="paint9_radial_2215_1473" cx="0" cy="0" r="1" gradientUnits="userSpaceOnUse" gradientTransform="translate(85.3125 17.2356) rotate(144.804) scale(18.2674 10.6012)">
<stop stop-color="#FFF8EE"/>
<stop offset="1" stop-color="#FFF8EE" stop-opacity="0"/>
</radialGradient>
<radialGradient id="paint10_radial_2215_1473" cx="0" cy="0" r="1" gradientUnits="userSpaceOnUse" gradientTransform="translate(85.0769 20.4087) rotate(-36.2293) scale(16.4725 9.33667)">
<stop offset="0.267556" stop-color="#636383"/>
<stop offset="1" stop-color="#9292A9" stop-opacity="0"/>
</radialGradient>
<radialGradient id="paint11_radial_2215_1473" cx="0" cy="0" r="1" gradientUnits="userSpaceOnUse" gradientTransform="translate(54.8077 16.7306) rotate(46.0809) scale(10.8125 10.0221)">
<stop stop-color="#FFF7EC"/>
<stop offset="1" stop-color="#A6A5BC"/>
</radialGradient>
<radialGradient id="paint12_radial_2215_1473" cx="0" cy="0" r="1" gradientUnits="userSpaceOnUse" gradientTransform="translate(53.9423 49.9038) rotate(90.3201) scale(51.6354 35.1447)">
<stop offset="0.384807" stop-color="#F2C5A5"/>
<stop offset="0.725641" stop-color="#D9A47E"/>
<stop offset="0.989583" stop-color="#C58B56"/>
</radialGradient>
<radialGradient id="paint13_radial_2215_1473" cx="0" cy="0" r="1" gradientUnits="userSpaceOnUse" gradientTransform="translate(50.9135 76.7307) rotate(-3.9909) scale(6.217 4.23148)">
<stop stop-color="#FFE6D4" stop-opacity="0.7"/>
<stop offset="1" stop-color="#FFE6D4" stop-opacity="0"/>
</radialGradient>
<radialGradient id="paint14_radial_2215_1473" cx="0" cy="0" r="1" gradientUnits="userSpaceOnUse" gradientTransform="translate(90.5769 83.6538) rotate(-118.977) scale(41.3824 28.228)">
<stop stop-color="#A07C5E"/>
<stop offset="1" stop-color="#AA805E" stop-opacity="0"/>
</radialGradient>
<radialGradient id="paint15_radial_2215_1473" cx="0" cy="0" r="1" gradientUnits="userSpaceOnUse" gradientTransform="translate(52.0837 51.7502) rotate(90) scale(12.7209 6.92764)">
<stop stop-color="#E9B691"/>
<stop offset="1" stop-color="#E9B691" stop-opacity="0"/>
</radialGradient>
<radialGradient id="paint16_radial_2215_1473" cx="0" cy="0" r="1" gradientUnits="userSpaceOnUse" gradientTransform="translate(52.8606 58.0168) rotate(95.8225) scale(4.82054 4.82054)">
<stop offset="0.322581" stop-color="#A2754D"/>
<stop offset="1" stop-color="#C08F64" stop-opacity="0"/>
</radialGradient>
<radialGradient id="paint17_radial_2215_1473" cx="0" cy="0" r="1" gradientUnits="userSpaceOnUse" gradientTransform="translate(65.3366 102.893) rotate(146.005) scale(41.2293 22.2442)">
<stop stop-color="#FEF6E0"/>
<stop offset="1" stop-color="#C2C5E1"/>
</radialGradient>
<radialGradient id="paint18_radial_2215_1473" cx="0" cy="0" r="1" gradientUnits="userSpaceOnUse" gradientTransform="translate(61.6373 86.25) rotate(55.856) scale(17.9498 10.2147)">
<stop stop-color="#AD825A"/>
<stop offset="1" stop-color="#CC9A6C" stop-opacity="0"/>
</radialGradient>
<radialGradient id="paint19_radial_2215_1473" cx="0" cy="0" r="1" gradientUnits="userSpaceOnUse" gradientTransform="translate(84.8077 59.7115) rotate(-61.9475) scale(14.0551 8.18307)">
<stop offset="0.213715" stop-color="#7C5A3B"/>
<stop offset="1" stop-color="#CC9A6C" stop-opacity="0"/>
</radialGradient>
<linearGradient id="paint20_linear_2215_1473" x1="48.6781" y1="95.625" x2="48.6781" y2="119.856" gradientUnits="userSpaceOnUse">
<stop stop-color="#9FA9B9"/>
<stop offset="1" stop-color="#6F757D"/>
</linearGradient>
<linearGradient id="paint21_linear_2215_1473" x1="78.5337" y1="91.7481" x2="78.5337" y2="119.856" gradientUnits="userSpaceOnUse">
<stop stop-color="#9FA9B9"/>
<stop offset="1" stop-color="#6F757D"/>
</linearGradient>
<linearGradient id="paint22_linear_2215_1473" x1="35.2645" y1="92.8846" x2="35.2645" y2="119.856" gradientUnits="userSpaceOnUse">
<stop stop-color="#D1B0A2"/>
<stop offset="1" stop-color="#93776A"/>
</linearGradient>
<radialGradient id="paint23_radial_2215_1473" cx="0" cy="0" r="1" gradientUnits="userSpaceOnUse" gradientTransform="translate(33.0289 95.4807) rotate(133.561) scale(20.3017 13.5707)">
<stop stop-color="#FFD7BA"/>
<stop offset="1" stop-color="#FFD7BA" stop-opacity="0"/>
</radialGradient>
<radialGradient id="paint24_radial_2215_1473" cx="0" cy="0" r="1" gradientUnits="userSpaceOnUse" gradientTransform="translate(46.875 109.038) rotate(-63.773) scale(21.8665 12.5907)">
<stop offset="0.344922" stop-color="#4D3C35" stop-opacity="0.7"/>
<stop offset="1" stop-color="#4D3C35" stop-opacity="0"/>
</radialGradient>
<linearGradient id="paint25_linear_2215_1473" x1="47.8114" y1="88.2692" x2="47.8114" y2="119.856" gradientUnits="userSpaceOnUse">
<stop stop-color="#B29386"/>
<stop offset="1" stop-color="#7A6054"/>
</linearGradient>
<radialGradient id="paint26_radial_2215_1473" cx="0" cy="0" r="1" gradientUnits="userSpaceOnUse" gradientTransform="translate(49.4712 87.2596) rotate(132.274) scale(25.7297 9.55112)">
<stop stop-color="#FFD7BA"/>
<stop offset="1" stop-color="#FFD7BA" stop-opacity="0"/>
</radialGradient>
<linearGradient id="paint27_linear_2215_1473" x1="112.504" y1="91.5865" x2="112.504" y2="119.856" gradientUnits="userSpaceOnUse">
<stop stop-color="#D2B3A6"/>
<stop offset="1" stop-color="#9E8074"/>
</linearGradient>
<radialGradient id="paint28_radial_2215_1473" cx="0" cy="0" r="1" gradientUnits="userSpaceOnUse" gradientTransform="translate(128.077 99.0865) rotate(-176.024) scale(37.4459 13.3698)">
<stop stop-color="#FFD7BA"/>
<stop offset="1" stop-color="#FFD7BA" stop-opacity="0"/>
</radialGradient>
<radialGradient id="paint29_radial_2215_1473" cx="0" cy="0" r="1" gradientUnits="userSpaceOnUse" gradientTransform="translate(91.1539 107.452) rotate(-96.3662) scale(35.1204 22.2712)">
<stop offset="0.344922" stop-color="#4D3C35" stop-opacity="0.7"/>
<stop offset="1" stop-color="#4D3C35" stop-opacity="0"/>
</radialGradient>
<linearGradient id="paint30_linear_2215_1473" x1="89.1346" y1="82.2117" x2="93.0289" y2="125.914" gradientUnits="userSpaceOnUse">
<stop stop-color="#B29386"/>
<stop offset="1" stop-color="#7A6054"/>
</linearGradient>
<radialGradient id="paint31_radial_2215_1473" cx="0" cy="0" r="1" gradientUnits="userSpaceOnUse" gradientTransform="translate(75.1443 79.1828) rotate(97.5473) scale(46.1207 24.3256)">
<stop offset="0.399098" stop-color="#FFD7BA"/>
<stop offset="0.877903" stop-color="#FFD7BA" stop-opacity="0"/>
</radialGradient>
<radialGradient id="paint32_radial_2215_1473" cx="0" cy="0" r="1" gradientUnits="userSpaceOnUse" gradientTransform="translate(59.3645 90.5769) rotate(90) scale(12.9808 6.59566)">
<stop offset="0.31296" stop-color="#FEF6E0"/>
<stop offset="1" stop-color="#C2C5E1"/>
</radialGradient>
<radialGradient id="paint33_radial_2215_1473" cx="0" cy="0" r="1" gradientUnits="userSpaceOnUse" gradientTransform="translate(78.1731 88.2692) rotate(138.27) scale(21.4521 7.04153)">
<stop offset="0.31296" stop-color="#FEF6E0"/>
<stop offset="1" stop-color="#C2C5E1"/>
</radialGradient>
<radialGradient id="paint34_radial_2215_1473" cx="0" cy="0" r="1" gradientUnits="userSpaceOnUse" gradientTransform="translate(85.2404 82.6442) rotate(-24.7751) scale(5.16267 2.15584)">
<stop offset="0.726454" stop-color="#81849E"/>
<stop offset="1" stop-color="#81849E" stop-opacity="0"/>
</radialGradient>
<radialGradient id="paint35_radial_2215_1473" cx="0" cy="0" r="1" gradientUnits="userSpaceOnUse" gradientTransform="translate(53.3654 68.7981) rotate(106.555) scale(9.32901 8.64622)">
<stop stop-color="#B38255"/>
<stop offset="1" stop-color="#CC9A6C" stop-opacity="0"/>
</radialGradient>
<radialGradient id="paint36_radial_2215_1473" cx="0" cy="0" r="1" gradientUnits="userSpaceOnUse" gradientTransform="translate(50.0892 67.3934) rotate(180) scale(7.82959 3.51559)">
<stop offset="0.233164" stop-color="#1D1610"/>
<stop offset="1" stop-color="#1D1610" stop-opacity="0"/>
</radialGradient>
<radialGradient id="paint37_radial_2215_1473" cx="0" cy="0" r="1" gradientUnits="userSpaceOnUse" gradientTransform="translate(45.913 66.086) rotate(64.8095) scale(9.81054 15.06)">
<stop stop-color="#FDF1DE"/>
<stop offset="1" stop-color="#A6A5BC"/>
</radialGradient>
<radialGradient id="paint38_radial_2215_1473" cx="0" cy="0" r="1" gradientUnits="userSpaceOnUse" gradientTransform="translate(45 57.2596) rotate(-67.8726) scale(21.4431 4.33831)">
<stop stop-color="#FFEFE3" stop-opacity="0.7"/>
<stop offset="1" stop-color="#FFE0CA" stop-opacity="0"/>
</radialGradient>
<radialGradient id="paint39_radial_2215_1473" cx="0" cy="0" r="1" gradientUnits="userSpaceOnUse" gradientTransform="translate(46.6587 61.1178) scale(4.03846 2.06652)">
<stop stop-color="#BB8D66"/>
<stop offset="1" stop-color="#BB8D66" stop-opacity="0"/>
</radialGradient>
<radialGradient id="paint40_radial_2215_1473" cx="0" cy="0" r="1" gradientUnits="userSpaceOnUse" gradientTransform="translate(51.9225 59.0624) rotate(159.821) scale(4.49464 2.38608)">
<stop offset="0.402094" stop-color="#FFE6D5"/>
<stop offset="1" stop-color="#F3C8AA"/>
</radialGradient>
<radialGradient id="paint41_radial_2215_1473" cx="0" cy="0" r="1" gradientUnits="userSpaceOnUse" gradientTransform="translate(48.3168 60.8063) rotate(11.5741) scale(3.34935 1.76146)">
<stop stop-color="#BB8D66"/>
<stop offset="1" stop-color="#BB8D66" stop-opacity="0"/>
</radialGradient>
<radialGradient id="paint42_radial_2215_1473" cx="0" cy="0" r="1" gradientUnits="userSpaceOnUse" gradientTransform="translate(95.2494 29.6099) rotate(83.1625) scale(16.9404 12.6453)">
<stop stop-color="#FFF9F1"/>
<stop offset="1" stop-color="#FFF9F1" stop-opacity="0"/>
</radialGradient>
<radialGradient id="paint43_radial_2215_1473" cx="0" cy="0" r="1" gradientUnits="userSpaceOnUse" gradientTransform="translate(43.711 47.8165) rotate(74.7726) scale(1.87375)">
<stop offset="0.385417" stop-color="#0F1214"/>
<stop offset="0.838542" stop-color="#517A91"/>
</radialGradient>
<radialGradient id="paint44_radial_2215_1473" cx="0" cy="0" r="1" gradientUnits="userSpaceOnUse" gradientTransform="translate(44.7305 47.6664) rotate(121.961) scale(0.457017)">
<stop offset="0.890625" stop-color="white"/>
<stop offset="1" stop-color="white" stop-opacity="0"/>
</radialGradient>
<radialGradient id="paint45_radial_2215_1473" cx="0" cy="0" r="1" gradientUnits="userSpaceOnUse" gradientTransform="translate(58.3081 47.0327) rotate(73.0175) scale(1.8936)">
<stop offset="0.385417" stop-color="#0F1214"/>
<stop offset="0.838542" stop-color="#517A91"/>
</radialGradient>
<radialGradient id="paint46_radial_2215_1473" cx="0" cy="0" r="1" gradientUnits="userSpaceOnUse" gradientTransform="translate(59.4538 46.8824) rotate(124.992) scale(0.474096)">
<stop offset="0.890625" stop-color="white"/>
<stop offset="1" stop-color="white" stop-opacity="0"/>
</radialGradient>
<radialGradient id="paint47_radial_2215_1473" cx="0" cy="0" r="1" gradientUnits="userSpaceOnUse" gradientTransform="translate(91.2814 33.8224) rotate(94.8556) scale(18.8702 14.0857)">
<stop stop-color="#FFF9F1"/>
<stop offset="1" stop-color="#FFF9F1" stop-opacity="0"/>
</radialGradient>
<radialGradient id="paint48_radial_2215_1473" cx="0" cy="0" r="1" gradientUnits="userSpaceOnUse" gradientTransform="translate(45.8654 47.8847) rotate(-173.66) scale(6.53032 4.60271)">
<stop offset="0.448752" stop-color="#CC9A6C"/>
<stop offset="1" stop-color="#FED1B0"/>
</radialGradient>
<radialGradient id="paint49_radial_2215_1473" cx="0" cy="0" r="1" gradientUnits="userSpaceOnUse" gradientTransform="translate(60.1443 48.1938) rotate(-167.326) scale(7.98298 6.17285)">
<stop offset="0.448752" stop-color="#CC9A6C"/>
<stop offset="1" stop-color="#FED1B0"/>
</radialGradient>
<radialGradient id="paint50_radial_2215_1473" cx="0" cy="0" r="1" gradientUnits="userSpaceOnUse" gradientTransform="translate(57.3317 39.375) rotate(3.7038) scale(13.3964 3.96738)">
<stop stop-color="#FDF1DE"/>
<stop offset="1" stop-color="#B7B7CB"/>
</radialGradient>
<radialGradient id="paint51_radial_2215_1473" cx="0" cy="0" r="1" gradientUnits="userSpaceOnUse" gradientTransform="translate(60.5769 44.4952) rotate(3.43497) scale(10.1414 3.54027)">
<stop offset="0.172768" stop-color="#8D8B9C"/>
<stop offset="1" stop-color="#9B9AA5" stop-opacity="0"/>
</radialGradient>
<radialGradient id="paint52_radial_2215_1473" cx="0" cy="0" r="1" gradientUnits="userSpaceOnUse" gradientTransform="translate(42.9087 42.1875) rotate(-12.1148) scale(8.99848 4.36342)">
<stop stop-color="#FDF1DE"/>
<stop offset="1" stop-color="#B7B7CB"/>
</radialGradient>
<radialGradient id="paint53_radial_2215_1473" cx="0" cy="0" r="1" gradientUnits="userSpaceOnUse" gradientTransform="translate(43.9183 45.4327) rotate(-16.6992) scale(6.77616 2.39496)">
<stop offset="0.172768" stop-color="#8D8B9C"/>
<stop offset="1" stop-color="#9B9AA5" stop-opacity="0"/>
</radialGradient>
<linearGradient id="paint54_linear_2215_1473" x1="58.9904" y1="94.4711" x2="61.3269" y2="120" gradientUnits="userSpaceOnUse">
<stop stop-color="#A6BDEA"/>
<stop offset="1" stop-color="#6C83B0"/>
</linearGradient>
<radialGradient id="paint55_radial_2215_1473" cx="0" cy="0" r="1" gradientUnits="userSpaceOnUse" gradientTransform="translate(61.3268 103.558) rotate(113.16) scale(16.9423 7.40104)">
<stop stop-color="#B2D9FC"/>
<stop offset="1" stop-color="#B2D9FC" stop-opacity="0"/>
</radialGradient>
<radialGradient id="paint56_radial_2215_1473" cx="0" cy="0" r="1" gradientUnits="userSpaceOnUse" gradientTransform="translate(52.5 57.8005) rotate(156.534) scale(5.07082 2.42949)">
<stop offset="0.233164" stop-color="#1D1610"/>
<stop offset="1" stop-color="#C7976D"/>
</radialGradient>
<radialGradient id="paint57_radial_2215_1473" cx="0" cy="0" r="1" gradientUnits="userSpaceOnUse" gradientTransform="translate(183.462 110.481) rotate(8.80171) scale(45.2443 6.52706)">
<stop stop-color="#363A30"/>
<stop offset="1" stop-color="#435824" stop-opacity="0"/>
</radialGradient>
<radialGradient id="paint58_radial_2215_1473" cx="0" cy="0" r="1" gradientUnits="userSpaceOnUse" gradientTransform="translate(179.423 57.2188) rotate(86.9467) scale(55.5097 23.3937)">
<stop offset="0.0934757" stop-color="#DCCDCD"/>
<stop offset="0.694941" stop-color="#A69696"/>
</radialGradient>
</defs>
</svg>
