<svg viewBox="0 0 240 120" fill="none" xmlns="http://www.w3.org/2000/svg">
<path d="M132.656 3.43018C149.556 3.43018 164.128 13.3825 170.845 27.7421C176.866 23.514 184.199 21.0263 192.115 21.0263C212.581 21.0274 229.173 37.6184 229.173 58.0846C229.173 78.5503 212.581 95.1419 192.115 95.1429C178.674 95.1429 166.904 87.9858 160.407 77.2763C152.992 83.7724 143.288 87.7195 132.656 87.7195C117.15 87.7192 103.61 79.3412 96.2917 66.8692C90.2565 72.5249 82.1475 75.9963 73.2238 75.9963C70.292 75.9961 67.4488 75.6173 64.7367 74.9146C60.2595 84.3713 50.6361 90.9143 39.4783 90.9152C24.0473 90.9152 11.5381 78.406 11.5381 62.9749C11.5388 47.5445 24.0477 35.0347 39.4783 35.0347C39.7361 35.0348 39.9929 35.0458 40.249 35.0528C43.5454 19.8696 57.0535 8.49722 73.2238 8.49628C83.5017 8.49628 92.7019 13.0946 98.8924 20.3412C106.578 10.0738 118.843 3.43051 132.656 3.43018Z" fill="url(#paint0_linear_10287_34222)"/>
<path d="M89.5939 72.7822C50.3246 72.7824 18.4926 82.1093 18.4926 93.6146C18.4947 105.119 50.3259 114.447 89.5939 114.447C108.355 114.447 125.417 112.31 138.123 108.83C141.132 108.006 144.279 107.797 147.365 108.253C153.816 109.205 160.917 109.737 168.375 109.737C197.941 109.737 221.91 101.471 221.912 91.2753C221.912 81.0793 197.943 72.8138 168.375 72.8138C157.212 72.8138 146.848 73.9947 138.27 76.011C135.174 76.7389 131.956 76.8489 128.833 76.2422C117.587 74.0571 104.098 72.7822 89.5939 72.7822Z" fill="url(#paint1_linear_10287_34222)"/>
<path d="M89.5939 72.7822C50.3246 72.7824 18.4926 82.1093 18.4926 93.6146C18.4947 105.119 50.3259 114.447 89.5939 114.447C108.355 114.447 125.417 112.31 138.123 108.83C141.132 108.006 144.279 107.797 147.365 108.253C153.816 109.205 160.917 109.737 168.375 109.737C197.941 109.737 221.91 101.471 221.912 91.2753C221.912 81.0793 197.943 72.8138 168.375 72.8138C157.212 72.8138 146.848 73.9947 138.27 76.011C135.174 76.7389 131.956 76.8489 128.833 76.2422C117.587 74.0571 104.098 72.7822 89.5939 72.7822Z" fill="url(#paint2_linear_10287_34222)"/>
<path d="M105.929 92.3618C151.725 92.3619 188.852 97.6475 188.852 104.166C188.852 105.98 185.974 107.692 180.839 109.228C176.84 109.557 172.667 109.737 168.376 109.737C160.919 109.737 153.818 109.202 147.368 108.25C144.282 107.794 141.133 108.007 138.124 108.831C125.418 112.311 108.355 114.447 89.5947 114.447C60.4776 114.447 35.4554 109.309 24.4609 101.967C31.7266 96.5036 65.4352 92.3618 105.929 92.3618Z" fill="url(#paint3_radial_10287_34222)"/>
<path d="M105.929 92.3618C151.725 92.3619 188.852 97.6475 188.852 104.166C188.852 105.98 185.974 107.692 180.839 109.228C176.84 109.557 172.667 109.737 168.376 109.737C160.919 109.737 153.818 109.202 147.368 108.25C144.282 107.794 141.133 108.007 138.124 108.831C125.418 112.311 108.355 114.447 89.5947 114.447C60.4776 114.447 35.4554 109.309 24.4609 101.967C31.7266 96.5036 65.4352 92.3618 105.929 92.3618Z" fill="url(#paint4_radial_10287_34222)"/>
<path d="M186.513 83.8115C197.647 83.8115 208.349 84.1021 218.33 84.6318C220.641 86.695 221.913 88.9312 221.913 91.2755C221.909 101.47 197.941 109.737 168.376 109.737C160.919 109.737 153.818 109.202 147.368 108.25C144.282 107.794 141.133 108.007 138.124 108.831C134.702 109.768 130.962 110.597 126.959 111.324C103.306 108.526 88.0352 104.106 88.0352 99.127C88.0391 90.6678 132.128 83.8115 186.513 83.8115Z" fill="url(#paint5_radial_10287_34222)"/>
<path d="M186.513 83.8115C197.647 83.8115 208.349 84.1021 218.33 84.6318C220.641 86.695 221.913 88.9312 221.913 91.2755C221.909 101.47 197.941 109.737 168.376 109.737C160.919 109.737 153.818 109.202 147.368 108.25C144.282 107.794 141.133 108.007 138.124 108.831C134.702 109.768 130.962 110.597 126.959 111.324C103.306 108.526 88.0352 104.106 88.0352 99.127C88.0391 90.6678 132.128 83.8115 186.513 83.8115Z" fill="url(#paint6_radial_10287_34222)"/>
<path d="M118.728 31.0839C118.291 32.0043 119.203 32.9863 120.153 32.6193L146.385 22.4912L130.79 5.68321L118.728 31.0839Z" fill="url(#paint7_linear_10287_34222)"/>
<path d="M148.757 54.6551C148.002 55.3394 146.799 54.7507 146.875 53.7347L149.135 23.8613L170.955 34.5359L148.757 54.6551Z" fill="url(#paint8_linear_10287_34222)"/>
<path d="M213.242 67.3631C212.875 68.3136 211.535 68.3282 211.147 67.386L199.746 39.6816L224.036 39.4165L213.242 67.3631Z" fill="url(#paint9_linear_10287_34222)"/>
<path d="M182.195 64.5354C181.659 65.402 180.34 65.1694 180.132 64.1719L174.032 34.8408L197.955 39.0569L182.195 64.5354Z" fill="url(#paint10_linear_10287_34222)"/>
<path d="M203.665 95.8041C202.667 93.0616 201.271 86.5508 203.665 82.4482L172.144 90.2477C171.503 90.6395 170.029 92.6197 169.26 97.4065C168.49 102.193 170.435 104.601 171.503 105.206L203.665 95.8041Z" fill="url(#paint11_linear_10287_34222)"/>
<path d="M170.753 90.6744L203.982 82.2331L131.112 74.7544L107.605 80.8442L170.753 90.6744Z" fill="url(#paint12_linear_10287_34222)"/>
<path d="M170.753 90.6744L203.982 82.2331L131.112 74.7544L107.605 80.8442L170.753 90.6744Z" fill="url(#paint13_linear_10287_34222)"/>
<path d="M108.266 96.0576C103.962 95.5197 104.733 80.1112 108.266 80.6763L170.582 90.0023C168.055 90.6729 167.615 103.992 170.582 105.97C150.705 102.72 110.979 96.3967 108.266 96.0576Z" fill="url(#paint14_linear_10287_34222)"/>
<path d="M108.266 96.0576C103.962 95.5197 104.733 80.1112 108.266 80.6763L170.582 90.0023C168.055 90.6729 167.615 103.992 170.582 105.97C150.705 102.72 110.979 96.3967 108.266 96.0576Z" fill="url(#paint15_linear_10287_34222)"/>
<path d="M203.517 81.1562C204.135 80.9999 204.762 81.373 204.919 81.99C205.076 82.6078 204.703 83.2354 204.085 83.3918C194.86 85.7273 175.62 90.5941 172.517 91.356C172.375 91.3912 172.143 91.5176 171.854 91.8924C171.567 92.2648 171.283 92.8065 171.034 93.4969C170.537 94.8752 170.235 96.6714 170.187 98.4323C170.137 100.212 170.349 101.817 170.782 102.854C170.997 103.371 171.227 103.648 171.404 103.773C171.535 103.867 171.686 103.918 171.958 103.85C175.688 102.906 195.297 97.2893 204.658 94.5922C205.27 94.4164 205.91 94.769 206.087 95.381C206.262 95.9929 205.905 96.6334 205.293 96.8097C195.96 99.4988 176.303 105.129 172.526 106.086C171.626 106.313 170.776 106.154 170.069 105.653C169.409 105.184 168.961 104.48 168.654 103.746C168.042 102.281 167.825 100.302 167.879 98.3692C167.933 96.4188 168.268 94.3704 168.866 92.7127C169.165 91.8853 169.544 91.1093 170.024 90.4861C170.501 89.8672 171.141 89.3144 171.967 89.1114C175.059 88.3522 194.284 83.4937 203.517 81.1562Z" fill="#962D0F"/>
<path d="M207.534 79.2191C206.68 76.8715 205.485 71.2981 207.534 67.7861L180.551 74.4627C180.003 74.7981 178.74 76.4932 178.082 80.5908C177.423 84.6884 179.088 86.7494 180.003 87.2677L207.534 79.2191Z" fill="url(#paint16_linear_10287_34222)"/>
<path d="M179.36 74.8279L208.574 66.9377L152.357 61.6494L125.305 66.4126L179.36 74.8279Z" fill="url(#paint17_linear_10287_34222)"/>
<path d="M125.871 79.4357C122.186 78.9752 122.846 65.7851 125.87 66.2688L179.642 74.2884C177.478 74.8625 176.674 86.2274 179.215 87.9209C162.199 85.1389 128.193 79.726 125.871 79.4357Z" fill="#FFC343"/>
<path d="M125.871 79.4357C122.186 78.9752 122.846 65.7851 125.87 66.2688L179.642 74.2884C177.478 74.8625 176.674 86.2274 179.215 87.9209C162.199 85.1389 128.193 79.726 125.871 79.4357Z" fill="url(#paint18_linear_10287_34222)"/>
<path d="M207.424 66.7416C207.918 66.6166 208.422 66.919 208.547 67.4131C208.671 67.9065 208.373 68.4099 207.88 68.5354C199.982 70.5348 183.51 74.6982 180.854 75.3503C180.714 75.3852 180.503 75.5046 180.25 75.8326C179.999 76.1583 179.753 76.6265 179.538 77.2208C179.109 78.4091 178.85 79.9575 178.808 81.4711C178.766 82.9982 178.951 84.3803 179.326 85.2797C179.514 85.7284 179.716 85.9783 179.881 86.0955C180.009 86.1866 180.157 86.2311 180.408 86.1676C183.603 85.3589 200.385 80.5528 208.398 78.244C208.888 78.1029 209.401 78.3854 209.543 78.875C209.684 79.3648 209.401 79.8786 208.912 80.0198C200.924 82.3213 184.101 87.1371 180.863 87.957C180.111 88.1475 179.401 88.0183 178.813 87.6009C178.26 87.2088 177.883 86.6143 177.623 85.9919C177.104 84.7498 176.919 83.0707 176.965 81.4216C177.011 79.7569 177.293 78.0059 177.803 76.5943C178.057 75.8901 178.38 75.2321 178.786 74.7058C179.189 74.1827 179.729 73.7255 180.417 73.5565C183.07 72.9049 199.523 68.7419 207.424 66.7416Z" fill="#EFA22F"/>
<path d="M56.6426 30.0892C56.6426 27.9074 81.2367 27.7789 81.2367 30.0892C81.2367 32.3994 81.2367 102.987 81.2367 105.425C81.2367 107.864 56.6426 107.35 56.6426 105.425C56.6426 103.5 56.6426 32.271 56.6426 30.0892Z" fill="url(#paint19_linear_10287_34222)"/>
<path d="M56.6426 30.0892C56.6426 27.9074 81.2367 27.7789 81.2367 30.0892C81.2367 32.3994 81.2367 102.987 81.2367 105.425C81.2367 107.864 56.6426 107.35 56.6426 105.425C56.6426 103.5 56.6426 32.271 56.6426 30.0892Z" fill="url(#paint20_linear_10287_34222)"/>
<path d="M56.6426 30.0892C56.6426 27.9074 81.2367 27.7789 81.2367 30.0892C81.2367 32.3994 81.2367 102.987 81.2367 105.425C81.2367 107.864 56.6426 107.35 56.6426 105.425C56.6426 103.5 56.6426 32.271 56.6426 30.0892Z" fill="url(#paint21_linear_10287_34222)"/>
<path d="M56.6427 42.5394C57.4517 40.332 80.5574 40.9695 81.237 42.7527L81.2368 48.2406C80.4925 46.2671 57.8076 46.0548 56.6426 47.7278L56.6427 42.5394Z" fill="url(#paint22_linear_10287_34222)"/>
<path d="M56.6427 53.3568C57.4517 51.1494 80.5574 51.7869 81.237 53.5701L81.2368 59.058C80.4925 57.0845 57.8076 56.8722 56.6426 58.5452L56.6427 53.3568Z" fill="url(#paint23_linear_10287_34222)"/>
<path d="M38.0859 23.835C38.0859 21.7382 56.6396 21.6148 56.6396 23.835C56.6396 26.0553 56.6396 103.144 56.6396 105.487C56.6396 107.831 38.0859 107.337 38.0859 105.487C38.0859 103.637 38.0859 25.9318 38.0859 23.835Z" fill="url(#paint24_linear_10287_34222)"/>
<path d="M38.0859 23.835C38.0859 21.7382 56.6396 21.6148 56.6396 23.835C56.6396 26.0553 56.6396 103.144 56.6396 105.487C56.6396 107.831 38.0859 107.337 38.0859 105.487C38.0859 103.637 38.0859 25.9318 38.0859 23.835Z" fill="url(#paint25_linear_10287_34222)"/>
<path d="M38.0859 23.835C38.0859 21.7382 56.6396 21.6148 56.6396 23.835C56.6396 26.0553 56.6396 103.144 56.6396 105.487C56.6396 107.831 38.0859 107.337 38.0859 105.487C38.0859 103.637 38.0859 25.9318 38.0859 23.835Z" fill="url(#paint26_linear_10287_34222)"/>
<path d="M98.6895 22.0073C98.6895 19.8645 81.2322 19.7383 81.2322 22.0073C81.2322 24.2764 81.2322 103.059 81.2322 105.454C81.2322 107.849 98.6895 107.345 98.6895 105.454C98.6895 103.563 98.6895 24.1502 98.6895 22.0073Z" fill="url(#paint27_linear_10287_34222)"/>
<path d="M98.6895 22.0073C98.6895 19.8645 81.2322 19.7383 81.2322 22.0073C81.2322 24.2764 81.2322 103.059 81.2322 105.454C81.2322 107.849 98.6895 107.345 98.6895 105.454C98.6895 103.563 98.6895 24.1502 98.6895 22.0073Z" fill="url(#paint28_linear_10287_34222)"/>
<path d="M98.6895 22.0073C98.6895 19.8645 81.2322 19.7383 81.2322 22.0073C81.2322 24.2764 81.2322 103.059 81.2322 105.454C81.2322 107.849 98.6895 107.345 98.6895 105.454C98.6895 103.563 98.6895 24.1502 98.6895 22.0073Z" fill="url(#paint29_linear_10287_34222)"/>
<path d="M98.6895 22.0073C98.6895 19.8645 81.2322 19.7383 81.2322 22.0073C81.2322 24.2764 81.2322 103.059 81.2322 105.454C81.2322 107.849 98.6895 107.345 98.6895 105.454C98.6895 103.563 98.6895 24.1502 98.6895 22.0073Z" fill="url(#paint30_linear_10287_34222)"/>
<path d="M114.528 29.9055C114.528 27.9615 98.6917 27.8471 98.6917 29.9055C98.6917 31.9638 98.6917 103.432 98.6917 105.605C98.6917 107.778 114.528 107.32 114.528 105.605C114.528 103.89 114.528 31.8494 114.528 29.9055Z" fill="url(#paint31_linear_10287_34222)"/>
<path d="M114.528 29.9055C114.528 27.9615 98.6917 27.8471 98.6917 29.9055C98.6917 31.9638 98.6917 103.432 98.6917 105.605C98.6917 107.778 114.528 107.32 114.528 105.605C114.528 103.89 114.528 31.8494 114.528 29.9055Z" fill="url(#paint32_linear_10287_34222)"/>
<path d="M114.528 29.9055C114.528 27.9615 98.6917 27.8471 98.6917 29.9055C98.6917 31.9638 98.6917 103.432 98.6917 105.605C98.6917 107.778 114.528 107.32 114.528 105.605C114.528 103.89 114.528 31.8494 114.528 29.9055Z" fill="url(#paint33_linear_10287_34222)"/>
<path d="M56.6425 34.4776C56.0322 32.8124 38.6009 33.2933 38.0882 34.6386L38.0883 38.7787C38.6498 37.2899 55.7637 37.1297 56.6426 38.3919L56.6425 34.4776Z" fill="url(#paint34_linear_10287_34222)"/>
<path d="M56.6425 95.0189C56.0322 96.6842 38.6009 96.2033 38.0882 94.858L38.0883 90.7179C38.6498 92.2067 55.7637 92.3668 56.6426 91.1047L56.6425 95.0189Z" fill="url(#paint35_linear_10287_34222)"/>
<path d="M98.6894 26.8788C98.1151 25.3119 81.7145 25.7645 81.2321 27.0302L81.2322 30.9255C81.7605 29.5247 97.8625 29.3741 98.6895 30.5616L98.6894 26.8788Z" fill="url(#paint36_linear_10287_34222)"/>
<path d="M114.528 35.7465C114.007 34.3252 99.1292 34.7357 98.6916 35.8839L98.6917 39.4176C99.1709 38.1469 113.778 38.0102 114.528 39.0875L114.528 35.7465Z" fill="url(#paint37_linear_10287_34222)"/>
<path d="M114.528 42.0385C114.007 40.6171 99.1292 41.0277 98.6916 42.1759L98.6917 45.7096C99.1709 44.4389 113.778 44.3022 114.528 45.3795L114.528 42.0385Z" fill="url(#paint38_linear_10287_34222)"/>
<path d="M98.6894 101.051C98.1151 102.618 81.7145 102.166 81.2321 100.9L81.2322 97.0046C81.7605 98.4054 97.8625 98.5561 98.6895 97.3686L98.6894 101.051Z" fill="url(#paint39_linear_10287_34222)"/>
<path d="M130.898 0C138.534 19.8793 160.196 30.1313 183.299 34.6514C205.571 39.0085 228.571 37.9037 240 35.3771V38.4781C227.884 41.0086 204.906 41.9669 182.717 37.6262C158.998 32.9856 135.518 22.152 127.671 0H130.898Z" fill="#6A3F13"/>
<defs>
<linearGradient id="paint0_linear_10287_34222" x1="151.475" y1="-12.1755" x2="159.232" y2="122.309" gradientUnits="userSpaceOnUse">
<stop stop-color="#89D2E7"/>
<stop offset="0.350962" stop-color="#A1EBE2"/>
<stop offset="0.706731" stop-color="#FFC685"/>
<stop offset="1" stop-color="#FFBEAC"/>
</linearGradient>
<linearGradient id="paint1_linear_10287_34222" x1="273.288" y1="49.3312" x2="19.3076" y2="93.238" gradientUnits="userSpaceOnUse">
<stop stop-color="#EBCB9B"/>
<stop offset="1" stop-color="#B57C55"/>
</linearGradient>
<linearGradient id="paint2_linear_10287_34222" x1="273.288" y1="49.3312" x2="19.3076" y2="93.238" gradientUnits="userSpaceOnUse">
<stop stop-color="#ECE1C7"/>
<stop offset="1" stop-color="#D4AD7A"/>
</linearGradient>
<radialGradient id="paint3_radial_10287_34222" cx="0" cy="0" r="1" gradientTransform="matrix(73.8537 1.35469 -0.560409 9.56536 96.7148 105.453)" gradientUnits="userSpaceOnUse">
<stop stop-color="#81664E"/>
<stop offset="1" stop-color="#81664E" stop-opacity="0"/>
</radialGradient>
<radialGradient id="paint4_radial_10287_34222" cx="0" cy="0" r="1" gradientTransform="matrix(53.5409 -0.253416 0.0968328 6.93401 83.0748 105.794)" gradientUnits="userSpaceOnUse">
<stop stop-color="#432913"/>
<stop offset="0.610509" stop-color="#422913" stop-opacity="0.7"/>
<stop offset="1" stop-color="#B59882" stop-opacity="0"/>
</radialGradient>
<radialGradient id="paint5_radial_10287_34222" cx="0" cy="0" r="1" gradientTransform="matrix(87.7068 1.75804 -0.665528 12.4133 175.571 100.798)" gradientUnits="userSpaceOnUse">
<stop stop-color="#81664E"/>
<stop offset="1" stop-color="#81664E" stop-opacity="0"/>
</radialGradient>
<radialGradient id="paint6_radial_10287_34222" cx="0" cy="0" r="1" gradientTransform="matrix(67.5343 3.60001 -0.436795 9.56184 155.422 97.3115)" gradientUnits="userSpaceOnUse">
<stop stop-color="#432913"/>
<stop offset="0.610509" stop-color="#422913" stop-opacity="0.7"/>
<stop offset="1" stop-color="#B59882" stop-opacity="0"/>
</radialGradient>
<linearGradient id="paint7_linear_10287_34222" x1="121.009" y1="9.28915" x2="142.854" y2="32.8337" gradientUnits="userSpaceOnUse">
<stop stop-color="#E68826"/>
<stop offset="1" stop-color="#FFBA46"/>
</linearGradient>
<linearGradient id="paint8_linear_10287_34222" x1="162.843" y1="46.3832" x2="135.115" y2="32.8184" gradientUnits="userSpaceOnUse">
<stop stop-color="#CB3910"/>
<stop offset="1" stop-color="#E84D14"/>
</linearGradient>
<linearGradient id="paint9_linear_10287_34222" x1="198.618" y1="51.7659" x2="231.262" y2="51.4096" gradientUnits="userSpaceOnUse">
<stop offset="0.0512169" stop-color="#296825"/>
<stop offset="0.891667" stop-color="#5E991F"/>
</linearGradient>
<linearGradient id="paint10_linear_10287_34222" x1="218.656" y1="74.6854" x2="154.213" y2="60.6208" gradientUnits="userSpaceOnUse">
<stop stop-color="#8E4E10"/>
<stop offset="1" stop-color="#12073F"/>
</linearGradient>
<linearGradient id="paint11_linear_10287_34222" x1="182.821" y1="89.0806" x2="184.88" y2="98.1746" gradientUnits="userSpaceOnUse">
<stop offset="0.0384615" stop-color="#B98944"/>
<stop offset="0.408654" stop-color="#FCCB83"/>
<stop offset="0.880447" stop-color="#FFE3B8"/>
</linearGradient>
<linearGradient id="paint12_linear_10287_34222" x1="126.791" y1="8.79828" x2="162.184" y2="109.55" gradientUnits="userSpaceOnUse">
<stop stop-color="#EA8863"/>
<stop offset="1" stop-color="#CE4A19"/>
</linearGradient>
<linearGradient id="paint13_linear_10287_34222" x1="174.131" y1="94.0989" x2="176.55" y2="84.0868" gradientUnits="userSpaceOnUse">
<stop stop-color="#8E2C10" stop-opacity="0"/>
<stop offset="1" stop-color="#85260A"/>
</linearGradient>
<linearGradient id="paint14_linear_10287_34222" x1="146.152" y1="102.439" x2="147.79" y2="90.9689" gradientUnits="userSpaceOnUse">
<stop stop-color="#B23714"/>
<stop offset="1" stop-color="#CE4A19"/>
</linearGradient>
<linearGradient id="paint15_linear_10287_34222" x1="152.979" y1="98.2057" x2="152.296" y2="103.121" gradientUnits="userSpaceOnUse">
<stop stop-color="#8E2C10" stop-opacity="0"/>
<stop offset="1" stop-color="#85260A"/>
</linearGradient>
<linearGradient id="paint16_linear_10287_34222" x1="189.691" y1="73.4636" x2="191.453" y2="81.2483" gradientUnits="userSpaceOnUse">
<stop offset="0.0384615" stop-color="#B98944"/>
<stop offset="0.408654" stop-color="#FCCB83"/>
<stop offset="0.880447" stop-color="#FFE3B8"/>
</linearGradient>
<linearGradient id="paint17_linear_10287_34222" x1="111.646" y1="70.3009" x2="208.574" y2="68.2386" gradientUnits="userSpaceOnUse">
<stop stop-color="#EFA22F"/>
<stop offset="1" stop-color="#FFC343"/>
</linearGradient>
<linearGradient id="paint18_linear_10287_34222" x1="164.146" y1="81.2745" x2="163.561" y2="85.4824" gradientUnits="userSpaceOnUse">
<stop stop-color="#EFA22F" stop-opacity="0"/>
<stop offset="1" stop-color="#F6980C"/>
</linearGradient>
<linearGradient id="paint19_linear_10287_34222" x1="55.367" y1="59.5855" x2="88.4205" y2="59.5855" gradientUnits="userSpaceOnUse">
<stop offset="0.108333" stop-color="#57B01C"/>
<stop offset="0.948783" stop-color="#257C2A"/>
</linearGradient>
<linearGradient id="paint20_linear_10287_34222" x1="85.5373" y1="54.739" x2="51.086" y2="54.739" gradientUnits="userSpaceOnUse">
<stop stop-color="#EFA932"/>
<stop offset="1" stop-color="#FFD55A"/>
</linearGradient>
<linearGradient id="paint21_linear_10287_34222" x1="74.8484" y1="69.2666" x2="81.2367" y2="69.2666" gradientUnits="userSpaceOnUse">
<stop stop-color="#EEAA23" stop-opacity="0"/>
<stop offset="1" stop-color="#946400"/>
</linearGradient>
<linearGradient id="paint22_linear_10287_34222" x1="55.306" y1="45.4444" x2="85.6571" y2="45.4444" gradientUnits="userSpaceOnUse">
<stop stop-color="#FFF9EF"/>
<stop offset="1" stop-color="#F2AE6C" stop-opacity="0"/>
</linearGradient>
<linearGradient id="paint23_linear_10287_34222" x1="55.306" y1="56.2618" x2="85.6571" y2="56.2618" gradientUnits="userSpaceOnUse">
<stop stop-color="#FFF9EF"/>
<stop offset="1" stop-color="#F2AE6C" stop-opacity="0"/>
</linearGradient>
<linearGradient id="paint24_linear_10287_34222" x1="59.8839" y1="50.6216" x2="33.8941" y2="50.6216" gradientUnits="userSpaceOnUse">
<stop stop-color="#D77E21"/>
<stop offset="1" stop-color="#FFB331"/>
</linearGradient>
<linearGradient id="paint25_linear_10287_34222" x1="55.0507" y1="61.7989" x2="31.4737" y2="61.7989" gradientUnits="userSpaceOnUse">
<stop stop-color="#B23714"/>
<stop offset="1" stop-color="#CE4A19"/>
</linearGradient>
<linearGradient id="paint26_linear_10287_34222" x1="51.8203" y1="66.2917" x2="56.6396" y2="66.2917" gradientUnits="userSpaceOnUse">
<stop stop-color="#8E2C10" stop-opacity="0"/>
<stop offset="1" stop-color="#85260A"/>
</linearGradient>
<linearGradient id="paint27_linear_10287_34222" x1="82.7271" y1="60.8054" x2="104.911" y2="60.8054" gradientUnits="userSpaceOnUse">
<stop stop-color="#CE4A19"/>
<stop offset="1" stop-color="#B23714"/>
</linearGradient>
<linearGradient id="paint28_linear_10287_34222" x1="78.1795" y1="49.3825" x2="102.634" y2="49.3825" gradientUnits="userSpaceOnUse">
<stop stop-color="#FFB331"/>
<stop offset="1" stop-color="#D77E21"/>
</linearGradient>
<linearGradient id="paint29_linear_10287_34222" x1="63.8163" y1="102.441" x2="109.501" y2="102.441" gradientUnits="userSpaceOnUse">
<stop stop-color="#8E4E10"/>
<stop offset="1" stop-color="#12073F"/>
</linearGradient>
<linearGradient id="paint30_linear_10287_34222" x1="96.4374" y1="65.397" x2="98.6895" y2="65.397" gradientUnits="userSpaceOnUse">
<stop stop-color="#190A16" stop-opacity="0"/>
<stop offset="1" stop-color="#190A16"/>
</linearGradient>
<linearGradient id="paint31_linear_10287_34222" x1="93.1191" y1="102.872" x2="124.336" y2="102.872" gradientUnits="userSpaceOnUse">
<stop stop-color="#8E4E10"/>
<stop offset="1" stop-color="#12073F"/>
</linearGradient>
<linearGradient id="paint32_linear_10287_34222" x1="115.35" y1="59.5857" x2="94.066" y2="59.5857" gradientUnits="userSpaceOnUse">
<stop offset="0.0512169" stop-color="#265523"/>
<stop offset="0.891667" stop-color="#67A328"/>
</linearGradient>
<linearGradient id="paint33_linear_10287_34222" x1="110.854" y1="69.2669" x2="115.789" y2="69.2669" gradientUnits="userSpaceOnUse">
<stop stop-color="#1C4111" stop-opacity="0"/>
<stop offset="1" stop-color="#1C4111"/>
</linearGradient>
<linearGradient id="paint34_linear_10287_34222" x1="57.6509" y1="36.6692" x2="34.7536" y2="36.6692" gradientUnits="userSpaceOnUse">
<stop stop-color="#FFD993" stop-opacity="0"/>
<stop offset="1" stop-color="#EA7F18"/>
</linearGradient>
<linearGradient id="paint35_linear_10287_34222" x1="57.6509" y1="92.8274" x2="34.7536" y2="92.8274" gradientUnits="userSpaceOnUse">
<stop stop-color="#FFD993" stop-opacity="0"/>
<stop offset="1" stop-color="#EA7F18"/>
</linearGradient>
<linearGradient id="paint36_linear_10287_34222" x1="99.6382" y1="28.9408" x2="78.0946" y2="28.9408" gradientUnits="userSpaceOnUse">
<stop stop-color="#FFD993" stop-opacity="0"/>
<stop offset="1" stop-color="#EA7F18" stop-opacity="0.5"/>
</linearGradient>
<linearGradient id="paint37_linear_10287_34222" x1="115.389" y1="37.6171" x2="95.8454" y2="37.6171" gradientUnits="userSpaceOnUse">
<stop stop-color="#FFD993" stop-opacity="0"/>
<stop offset="1" stop-color="#BAB337"/>
</linearGradient>
<linearGradient id="paint38_linear_10287_34222" x1="115.389" y1="43.9091" x2="95.8454" y2="43.9091" gradientUnits="userSpaceOnUse">
<stop stop-color="#FFD993" stop-opacity="0"/>
<stop offset="1" stop-color="#BAB337"/>
</linearGradient>
<linearGradient id="paint39_linear_10287_34222" x1="99.6382" y1="98.9894" x2="78.0946" y2="98.9894" gradientUnits="userSpaceOnUse">
<stop stop-color="#FFD993" stop-opacity="0"/>
<stop offset="1" stop-color="#EA7F18" stop-opacity="0.5"/>
</linearGradient>
</defs>
</svg>
