<svg viewBox="0 0 240 120" fill="none" xmlns="http://www.w3.org/2000/svg">
<path d="M170.765 68.0366C170.765 64.2399 164.735 64.761 164.735 61.0387C166.745 59.4009 173.669 59.922 173.669 61.0387V72.3545C172.875 72.9253 171.287 76.1959 171.287 82.6281H167.266C169.798 76.8957 166.001 71.9078 167.266 71.9078C168.532 71.9078 170.765 71.8334 170.765 68.0366Z" fill="#6F575F"/>
<path d="M171.852 68.0366C171.852 64.2399 165.821 64.761 165.821 61.0387C167.831 59.4009 174.755 59.922 174.755 61.0387V72.3545C173.961 72.9253 172.373 76.1959 172.373 82.6281H168.353C170.884 76.8957 167.087 71.9078 168.353 71.9078C169.618 71.9078 171.852 71.8334 171.852 68.0366Z" fill="url(#paint0_radial_2691_299)"/>
<path d="M166.86 54.3014C168.763 55.2599 172.245 53.5197 173.523 51.398V60.9644C172.185 62.257 168.199 62.257 166.86 60.9644V54.3014Z" fill="url(#paint1_radial_2691_299)"/>
<path d="M165.136 53.7424C166.918 52.5738 168.041 49.2657 167.065 47.2656L173.493 50.9763C173.943 52.782 171.491 56.3995 169.305 55.5667L165.136 53.7424Z" fill="url(#paint2_radial_2691_299)"/>
<path d="M144.55 76.0029L179.838 84.0431L136.361 91.4877L110.156 81.5119L144.55 76.0029Z" fill="url(#paint3_linear_2691_299)"/>
<path d="M175.018 101.017C177.4 100.273 179.038 91.0226 175.018 89.3848L138.149 95.7313C134.948 96.848 136.362 106.898 139.489 107.27L175.018 101.017Z" fill="url(#paint4_linear_2691_299)"/>
<path d="M175.018 101.017C177.4 100.273 179.038 91.0226 175.018 89.3848L138.149 95.7313C134.948 96.848 136.362 106.898 139.489 107.27L175.018 101.017Z" fill="url(#paint5_radial_2691_299)"/>
<path d="M101.298 101.836C105.319 101.017 110.083 97.8153 114.848 97.8155L140.234 107.27C138.224 107.27 141.723 114.789 139.341 117.618L101.298 101.836Z" fill="#905D55"/>
<path d="M101.298 101.836C105.319 101.017 110.083 97.8153 114.848 97.8155L140.234 107.27C138.224 107.27 141.723 114.789 139.341 117.618L101.298 101.836Z" fill="url(#paint6_radial_2691_299)"/>
<path d="M113.88 97.8901C111.498 97.1456 109.86 88.5098 113.88 86.872L138.001 96.2522C136.512 96.6989 135.395 104.292 139.49 107.419L113.88 97.8901Z" fill="url(#paint7_linear_2691_299)"/>
<path d="M183.784 106.377C181.997 105.557 179.764 101.984 175.297 100.718L140.009 107.121C138.223 107.493 140.382 113.226 139.339 117.692L183.784 106.377Z" fill="#905D55"/>
<path d="M183.784 106.377C181.997 105.557 179.764 101.984 175.297 100.718L140.009 107.121C138.223 107.493 140.382 113.226 139.339 117.692L183.784 106.377Z" fill="url(#paint8_radial_2691_299)"/>
<path d="M143.509 88.2855C131.42 88.2855 121.621 85.519 121.621 82.1064C121.621 78.6938 131.42 75.9274 143.509 75.9274C155.597 75.9274 165.397 78.6938 165.397 82.1064C165.397 85.519 155.597 88.2855 143.509 88.2855Z" fill="url(#paint9_radial_2691_299)"/>
<path d="M143.509 85.0842C131.42 85.0842 121.621 82.3177 121.621 78.9051C121.621 75.4925 131.42 72.7261 143.509 72.7261C155.597 72.7261 165.397 75.4925 165.397 78.9051C165.397 82.3177 155.597 85.0842 143.509 85.0842Z" fill="#87776F"/>
<path d="M143.509 85.0842C131.42 85.0842 121.621 82.3177 121.621 78.9051C121.621 75.4925 131.42 72.7261 143.509 72.7261C155.597 72.7261 165.397 75.4925 165.397 78.9051C165.397 82.3177 155.597 85.0842 143.509 85.0842Z" fill="url(#paint10_radial_2691_299)"/>
<path d="M143.509 85.0842C131.42 85.0842 121.621 82.3177 121.621 78.9051C121.621 75.4925 131.42 72.7261 143.509 72.7261C155.597 72.7261 165.397 75.4925 165.397 78.9051C165.397 82.3177 155.597 85.0842 143.509 85.0842Z" fill="url(#paint11_radial_2691_299)"/>
<path d="M143.508 80.3197C136.517 80.3197 130.85 79.1031 130.85 77.6024C130.85 76.1016 136.517 74.8851 143.508 74.8851C150.499 74.8851 156.166 76.1016 156.166 77.6024C156.166 79.1031 150.499 80.3197 143.508 80.3197Z" fill="#CFAC69"/>
<path d="M143.509 77.603C141.498 77.603 139.868 77.353 139.868 77.0446C139.868 76.7362 141.498 76.4863 143.509 76.4863C145.52 76.4863 147.15 76.7362 147.15 77.0446C147.15 77.353 145.52 77.603 143.509 77.603Z" fill="url(#paint12_radial_2691_299)"/>
<path d="M166.107 46.5308C160.534 45.4054 148.767 38.956 143.594 27.8061L136.892 60.9963C141.712 53.7205 159.529 52.936 164.607 53.9614C167.084 54.4616 168.832 47.081 166.107 46.5308Z" fill="url(#paint13_radial_2691_299)"/>
<path d="M145.92 44.7006C141.95 64.3585 128.063 78.1397 114.901 75.4819C101.74 72.8241 94.2885 54.7336 98.2582 35.0758C102.228 15.4179 116.115 1.63664 129.277 4.29446C142.438 6.95228 149.89 25.0427 145.92 44.7006Z" fill="url(#paint14_radial_2691_299)"/>
<path d="M140.688 43.6447C137.209 60.8717 125.282 72.9977 114.047 70.729C102.812 68.4603 96.5249 52.6559 100.004 35.4289C103.482 18.202 115.41 6.07592 126.645 8.34465C137.88 10.6134 144.167 26.4177 140.688 43.6447Z" fill="url(#paint15_radial_2691_299)"/>
<path fill-rule="evenodd" clip-rule="evenodd" d="M123.351 69.4964C131.243 65.8855 138.173 56.0977 140.688 43.644C143.203 31.1896 140.614 19.4786 134.741 13.0885C133.874 12.6953 132.965 12.3986 132.017 12.2073C121.744 10.1328 110.837 21.2209 107.656 36.9732C104.475 52.7256 110.224 67.1771 120.498 69.2517C121.445 69.4431 122.399 69.5224 123.351 69.4964Z" fill="url(#paint16_radial_2691_299)"/>
<path d="M110.082 86.202C110.975 85.5319 112.092 83.4102 110.082 81.4746L136.734 91.4132L179.36 83.9999C179.42 83.9794 179.48 83.9686 179.54 83.9686L179.36 83.9999C178.306 84.3618 177.357 87.751 179.54 88.8076L136.734 96.3267L110.082 86.202Z" fill="#905D55"/>
<path d="M110.082 86.202C110.975 85.5319 112.092 83.4102 110.082 81.4746L136.734 91.4132L179.36 83.9999C179.42 83.9794 179.48 83.9686 179.54 83.9686L179.36 83.9999C178.306 84.3618 177.357 87.751 179.54 88.8076L136.734 96.3267L110.082 86.202Z" fill="url(#paint17_radial_2691_299)"/>
<path d="M110.082 86.202C110.975 85.5319 112.092 83.4102 110.082 81.4746L136.734 91.4132L179.36 83.9999C179.42 83.9794 179.48 83.9686 179.54 83.9686L179.36 83.9999C178.306 84.3618 177.357 87.751 179.54 88.8076L136.734 96.3267L110.082 86.202Z" fill="url(#paint18_linear_2691_299)"/>
<path d="M81.9227 58.6693L55.6627 63.8211V89.3888C51.3929 88.1953 44.7762 91.27 45.9656 96.4602C47.579 103.501 59.8692 101.079 59.8692 94.0205L59.8762 69.7165L77.7011 66.2196V85.3918C73.4313 84.1984 66.8146 87.2731 68.004 92.4633C69.6174 99.5038 81.9076 97 81.9076 90.0235L81.9227 58.6693Z" fill="#696A82"/>
<path d="M81.9227 58.6693L55.6627 63.8211V89.3888C51.3929 88.1953 44.7762 91.27 45.9656 96.4602C47.579 103.501 59.8692 101.079 59.8692 94.0205L59.8762 69.7165L77.7011 66.2196V85.3918C73.4313 84.1984 66.8146 87.2731 68.004 92.4633C69.6174 99.5038 81.9076 97 81.9076 90.0235L81.9227 58.6693Z" fill="url(#paint19_radial_2691_299)"/>
<path d="M81.9227 58.6693L55.6627 63.8211V89.3888C51.3929 88.1953 44.7762 91.27 45.9656 96.4602C47.579 103.501 59.8692 101.079 59.8692 94.0205L59.8762 69.7165L77.7011 66.2196V85.3918C73.4313 84.1984 66.8146 87.2731 68.004 92.4633C69.6174 99.5038 81.9076 97 81.9076 90.0235L81.9227 58.6693Z" fill="url(#paint20_radial_2691_299)"/>
<path d="M81.9227 58.6693L55.6627 63.8211V89.3888C51.3929 88.1953 44.7762 91.27 45.9656 96.4602C47.579 103.501 59.8692 101.079 59.8692 94.0205L59.8762 69.7165L77.7011 66.2196V85.3918C73.4313 84.1984 66.8146 87.2731 68.004 92.4633C69.6174 99.5038 81.9076 97 81.9076 90.0235L81.9227 58.6693Z" fill="url(#paint21_radial_2691_299)"/>
<path d="M81.9227 58.6693L55.6627 63.8211V89.3888C51.3929 88.1953 44.7762 91.27 45.9656 96.4602C47.579 103.501 59.8692 101.079 59.8692 94.0205L59.8762 69.7165L77.7011 66.2196V85.3918C73.4313 84.1984 66.8146 87.2731 68.004 92.4633C69.6174 99.5038 81.9076 97 81.9076 90.0235L81.9227 58.6693Z" fill="url(#paint22_linear_2691_299)"/>
<path d="M81.9227 58.6693L55.6627 63.8211V89.3888C51.3929 88.1953 44.7762 91.27 45.9656 96.4602C47.579 103.501 59.8692 101.079 59.8692 94.0205L59.8762 69.7165L77.7011 66.2196V85.3918C73.4313 84.1984 66.8146 87.2731 68.004 92.4633C69.6174 99.5038 81.9076 97 81.9076 90.0235L81.9227 58.6693Z" fill="url(#paint23_linear_2691_299)"/>
<path d="M81.9227 58.6693L55.6627 63.8211V89.3888C51.3929 88.1953 44.7762 91.27 45.9656 96.4602C47.579 103.501 59.8692 101.079 59.8692 94.0205L59.8762 69.7165L77.7011 66.2196V85.3918C73.4313 84.1984 66.8146 87.2731 68.004 92.4633C69.6174 99.5038 81.9076 97 81.9076 90.0235L81.9227 58.6693Z" fill="url(#paint24_linear_2691_299)"/>
<path d="M81.9227 58.6693L55.6627 63.8211V89.3888C51.3929 88.1953 44.7762 91.27 45.9656 96.4602C47.579 103.501 59.8692 101.079 59.8692 94.0205L59.8762 69.7165L77.7011 66.2196V85.3918C73.4313 84.1984 66.8146 87.2731 68.004 92.4633C69.6174 99.5038 81.9076 97 81.9076 90.0235L81.9227 58.6693Z" fill="url(#paint25_radial_2691_299)"/>
<path d="M36.9533 28.6005H41.1669C42.9935 40.0313 58.6864 37.7752 48.3077 52.515L46.3935 51.4029C51.9565 40.7241 41.1671 44.514 41.1671 38.3474L41.1598 58.7915C41.1598 65.7657 28.8696 68.2718 27.2562 61.2313C26.0668 56.0411 32.6835 52.9664 36.9533 54.1598V28.6005Z" fill="#696A82"/>
<path d="M36.9533 28.6005H41.1669C42.9935 40.0313 58.6864 37.7752 48.3077 52.515L46.3935 51.4029C51.9565 40.7241 41.1671 44.514 41.1671 38.3474L41.1598 58.7915C41.1598 65.7657 28.8696 68.2718 27.2562 61.2313C26.0668 56.0411 32.6835 52.9664 36.9533 54.1598V28.6005Z" fill="url(#paint26_radial_2691_299)"/>
<path d="M36.9533 28.6005H41.1669C42.9935 40.0313 58.6864 37.7752 48.3077 52.515L46.3935 51.4029C51.9565 40.7241 41.1671 44.514 41.1671 38.3474L41.1598 58.7915C41.1598 65.7657 28.8696 68.2718 27.2562 61.2313C26.0668 56.0411 32.6835 52.9664 36.9533 54.1598V28.6005Z" fill="url(#paint27_radial_2691_299)"/>
<path d="M36.9533 28.6005H41.1669C42.9935 40.0313 58.6864 37.7752 48.3077 52.515L46.3935 51.4029C51.9565 40.7241 41.1671 44.514 41.1671 38.3474L41.1598 58.7915C41.1598 65.7657 28.8696 68.2718 27.2562 61.2313C26.0668 56.0411 32.6835 52.9664 36.9533 54.1598V28.6005Z" fill="url(#paint28_radial_2691_299)"/>
<path d="M200.799 18.0751H205.013C206.84 29.5059 222.533 27.2498 212.154 41.9895L210.24 40.8774C215.803 30.1986 205.013 33.9886 205.013 27.822L205.006 48.2661C205.006 55.2403 192.716 57.7464 191.102 50.7058C189.913 45.5156 196.53 42.441 200.799 43.6344V18.0751Z" fill="#696A82"/>
<path d="M200.799 18.0751H205.013C206.84 29.5059 222.533 27.2498 212.154 41.9895L210.24 40.8774C215.803 30.1986 205.013 33.9886 205.013 27.822L205.006 48.2661C205.006 55.2403 192.716 57.7464 191.102 50.7058C189.913 45.5156 196.53 42.441 200.799 43.6344V18.0751Z" fill="url(#paint29_radial_2691_299)"/>
<path d="M200.799 18.0751H205.013C206.84 29.5059 222.533 27.2498 212.154 41.9895L210.24 40.8774C215.803 30.1986 205.013 33.9886 205.013 27.822L205.006 48.2661C205.006 55.2403 192.716 57.7464 191.102 50.7058C189.913 45.5156 196.53 42.441 200.799 43.6344V18.0751Z" fill="url(#paint30_radial_2691_299)"/>
<path d="M200.799 18.0751H205.013C206.84 29.5059 222.533 27.2498 212.154 41.9895L210.24 40.8774C215.803 30.1986 205.013 33.9886 205.013 27.822L205.006 48.2661C205.006 55.2403 192.716 57.7464 191.102 50.7058C189.913 45.5156 196.53 42.441 200.799 43.6344V18.0751Z" fill="url(#paint31_radial_2691_299)"/>
<defs>
<radialGradient id="paint0_radial_2691_299" cx="0" cy="0" r="1" gradientUnits="userSpaceOnUse" gradientTransform="translate(169.395 67.2924) rotate(85.6013) scale(17.4719 6.89687)">
<stop offset="0.355" stop-color="#C3B6C0"/>
<stop offset="1" stop-color="#4D2E2E"/>
</radialGradient>
<radialGradient id="paint1_radial_2691_299" cx="0" cy="0" r="1" gradientUnits="userSpaceOnUse" gradientTransform="translate(167.853 54.227) rotate(86.7559) scale(9.20888 4.05553)">
<stop stop-color="#FFEFD7"/>
<stop offset="0.555" stop-color="#CCA964"/>
<stop offset="1" stop-color="#97672F"/>
</radialGradient>
<radialGradient id="paint2_radial_2691_299" cx="0" cy="0" r="1" gradientUnits="userSpaceOnUse" gradientTransform="translate(166.029 49.5364) rotate(26.2351) scale(8.67308 4.09157)">
<stop stop-color="#FFEFD7"/>
<stop offset="0.555" stop-color="#CCA964"/>
<stop offset="1" stop-color="#97672F"/>
</radialGradient>
<linearGradient id="paint3_linear_2691_299" x1="144.997" y1="76.0029" x2="150.357" y2="91.4877" gradientUnits="userSpaceOnUse">
<stop stop-color="#905D55"/>
<stop offset="1" stop-color="#7A5955"/>
</linearGradient>
<linearGradient id="paint4_linear_2691_299" x1="154.974" y1="93.1257" x2="162.419" y2="102.059" gradientUnits="userSpaceOnUse">
<stop stop-color="#905D55"/>
<stop offset="1" stop-color="#78483B"/>
</linearGradient>
<radialGradient id="paint5_radial_2691_299" cx="0" cy="0" r="1" gradientUnits="userSpaceOnUse" gradientTransform="translate(154.527 96.5502) rotate(-10.7549) scale(27.1283 9.1896)">
<stop stop-color="#F8D3C3"/>
<stop offset="1" stop-color="#905D55" stop-opacity="0"/>
</radialGradient>
<radialGradient id="paint6_radial_2691_299" cx="0" cy="0" r="1" gradientUnits="userSpaceOnUse" gradientTransform="translate(118.049 102.506) rotate(17.1552) scale(35.8399 9.28213)">
<stop stop-color="#F8D3C3" stop-opacity="0.7"/>
<stop offset="1" stop-color="#905D55" stop-opacity="0"/>
</radialGradient>
<linearGradient id="paint7_linear_2691_299" x1="125.465" y1="86.872" x2="123.409" y2="103.399" gradientUnits="userSpaceOnUse">
<stop stop-color="#E4BBB5"/>
<stop offset="1" stop-color="#855549"/>
</linearGradient>
<radialGradient id="paint8_radial_2691_299" cx="0" cy="0" r="1" gradientUnits="userSpaceOnUse" gradientTransform="translate(147.528 109.205) rotate(-12.3983) scale(56.8631 14.3773)">
<stop stop-color="#F8D3C3"/>
<stop offset="1" stop-color="#905D55" stop-opacity="0"/>
</radialGradient>
<radialGradient id="paint9_radial_2691_299" cx="0" cy="0" r="1" gradientUnits="userSpaceOnUse" gradientTransform="translate(143.509 82.1064) rotate(180) scale(20.8444 15.3359)">
<stop stop-color="#E4C9BC"/>
<stop offset="1" stop-color="#875741"/>
</radialGradient>
<radialGradient id="paint10_radial_2691_299" cx="0" cy="0" r="1" gradientUnits="userSpaceOnUse" gradientTransform="translate(143.509 78.9051) rotate(-180) scale(21.8878 6.17905)">
<stop offset="0.745" stop-color="#392824" stop-opacity="0"/>
<stop offset="1" stop-color="#392824"/>
</radialGradient>
<radialGradient id="paint11_radial_2691_299" cx="0" cy="0" r="1" gradientUnits="userSpaceOnUse" gradientTransform="translate(150.582 71.2371) rotate(120.879) scale(8.6308 4.94198)">
<stop offset="0.214028" stop-color="white"/>
<stop offset="1" stop-color="white" stop-opacity="0"/>
</radialGradient>
<radialGradient id="paint12_radial_2691_299" cx="0" cy="0" r="1" gradientUnits="userSpaceOnUse" gradientTransform="translate(143.64 76.5979) rotate(-180) scale(4.9879 1.20398)">
<stop offset="0.395522"/>
<stop offset="1" stop-opacity="0"/>
</radialGradient>
<radialGradient id="paint13_radial_2691_299" cx="0" cy="0" r="1" gradientUnits="userSpaceOnUse" gradientTransform="translate(143.508 41.6083) rotate(19.7865) scale(25.9505 10.4224)">
<stop stop-color="#FFEFD7"/>
<stop offset="0.555" stop-color="#CCA964"/>
<stop offset="1" stop-color="#97672F"/>
</radialGradient>
<radialGradient id="paint14_radial_2691_299" cx="0" cy="0" r="1" gradientUnits="userSpaceOnUse" gradientTransform="translate(122.089 39.8878) rotate(101.417) scale(36.3122 24.312)">
<stop stop-color="#432607"/>
<stop offset="0.795" stop-color="#97672F"/>
<stop offset="0.94" stop-color="#CCA964"/>
<stop offset="1" stop-color="#FFEFD7"/>
</radialGradient>
<radialGradient id="paint15_radial_2691_299" cx="0" cy="0" r="1" gradientUnits="userSpaceOnUse" gradientTransform="translate(114.623 53.5196) rotate(-114.063) scale(25.927 15.0866)">
<stop stop-color="#FAE9CD"/>
<stop offset="1" stop-color="#FAE9CD" stop-opacity="0"/>
</radialGradient>
<radialGradient id="paint16_radial_2691_299" cx="0" cy="0" r="1" gradientUnits="userSpaceOnUse" gradientTransform="translate(140.531 42.9476) rotate(95.6673) scale(39.2015 31.0259)">
<stop offset="0.368418" stop-color="#432607"/>
<stop offset="1" stop-color="#432607" stop-opacity="0"/>
</radialGradient>
<radialGradient id="paint17_radial_2691_299" cx="0" cy="0" r="1" gradientUnits="userSpaceOnUse" gradientTransform="translate(170.011 86.4253) rotate(171.529) scale(42.4509 2.85537)">
<stop stop-color="#F8D3C3"/>
<stop offset="1" stop-color="#905D55" stop-opacity="0"/>
</radialGradient>
<linearGradient id="paint18_linear_2691_299" x1="111.05" y1="85.6808" x2="137.553" y2="85.6808" gradientUnits="userSpaceOnUse">
<stop offset="0.921348" stop-color="#6F443E"/>
<stop offset="1" stop-color="#2E1619" stop-opacity="0"/>
</linearGradient>
<radialGradient id="paint19_radial_2691_299" cx="0" cy="0" r="1" gradientUnits="userSpaceOnUse" gradientTransform="translate(50.4344 92.3624) rotate(-10.4915) scale(7.85914 5.41761)">
<stop stop-color="white"/>
<stop offset="1" stop-color="white" stop-opacity="0"/>
</radialGradient>
<radialGradient id="paint20_radial_2691_299" cx="0" cy="0" r="1" gradientUnits="userSpaceOnUse" gradientTransform="translate(54.2983 65.3153) rotate(86.8807) scale(26.299 3.44564)">
<stop stop-color="white"/>
<stop offset="1" stop-color="white" stop-opacity="0"/>
</radialGradient>
<radialGradient id="paint21_radial_2691_299" cx="0" cy="0" r="1" gradientUnits="userSpaceOnUse" gradientTransform="translate(77.3384 78.8031) rotate(89.1533) scale(14.5269 3.723)">
<stop stop-color="white" stop-opacity="0.6"/>
<stop offset="1" stop-color="white" stop-opacity="0"/>
</radialGradient>
<linearGradient id="paint22_linear_2691_299" x1="81.9227" y1="73.8301" x2="78.4832" y2="73.8301" gradientUnits="userSpaceOnUse">
<stop offset="0.771159" stop-color="#696A82"/>
<stop offset="1" stop-color="#696A82" stop-opacity="0"/>
</linearGradient>
<linearGradient id="paint23_linear_2691_299" x1="59.8794" y1="74.9034" x2="57.1604" y2="74.9034" gradientUnits="userSpaceOnUse">
<stop offset="0.25" stop-color="#696A82" stop-opacity="0"/>
<stop offset="0.325" stop-color="#696A82"/>
<stop offset="0.342106" stop-color="#696A82"/>
<stop offset="1" stop-color="#696A82" stop-opacity="0"/>
</linearGradient>
<linearGradient id="paint24_linear_2691_299" x1="68.2511" y1="60.5928" x2="68.8236" y2="63.8843" gradientUnits="userSpaceOnUse">
<stop stop-color="white"/>
<stop offset="1" stop-color="white" stop-opacity="0"/>
</linearGradient>
<radialGradient id="paint25_radial_2691_299" cx="0" cy="0" r="1" gradientUnits="userSpaceOnUse" gradientTransform="translate(72.2581 88.7132) rotate(-15.7388) scale(8.17744 5.63703)">
<stop stop-color="white"/>
<stop offset="1" stop-color="white" stop-opacity="0"/>
</radialGradient>
<radialGradient id="paint26_radial_2691_299" cx="0" cy="0" r="1" gradientUnits="userSpaceOnUse" gradientTransform="translate(32.369 57.0854) scale(7.51309 5.86737)">
<stop stop-color="white"/>
<stop offset="1" stop-color="white" stop-opacity="0"/>
</radialGradient>
<radialGradient id="paint27_radial_2691_299" cx="0" cy="0" r="1" gradientUnits="userSpaceOnUse" gradientTransform="translate(35.8751 30.6823) rotate(87.4552) scale(25.7846 3.137)">
<stop stop-color="white"/>
<stop offset="1" stop-color="white" stop-opacity="0"/>
</radialGradient>
<radialGradient id="paint28_radial_2691_299" cx="0" cy="0" r="1" gradientUnits="userSpaceOnUse" gradientTransform="translate(45.9641 32.3996) rotate(47.0454) scale(14.1758 6.53904)">
<stop stop-color="white"/>
<stop offset="1" stop-color="white" stop-opacity="0"/>
</radialGradient>
<radialGradient id="paint29_radial_2691_299" cx="0" cy="0" r="1" gradientUnits="userSpaceOnUse" gradientTransform="translate(196.215 46.56) scale(7.51309 5.86737)">
<stop stop-color="white"/>
<stop offset="1" stop-color="white" stop-opacity="0"/>
</radialGradient>
<radialGradient id="paint30_radial_2691_299" cx="0" cy="0" r="1" gradientUnits="userSpaceOnUse" gradientTransform="translate(199.721 20.1568) rotate(87.4552) scale(25.7846 3.137)">
<stop stop-color="white"/>
<stop offset="1" stop-color="white" stop-opacity="0"/>
</radialGradient>
<radialGradient id="paint31_radial_2691_299" cx="0" cy="0" r="1" gradientUnits="userSpaceOnUse" gradientTransform="translate(209.81 21.8741) rotate(47.0454) scale(14.1758 6.53904)">
<stop stop-color="white"/>
<stop offset="1" stop-color="white" stop-opacity="0"/>
</radialGradient>
</defs>
</svg>
