<svg viewBox="0 0 240 120" fill="none" xmlns="http://www.w3.org/2000/svg">
<path d="M57.5417 34.8051C61.4595 42.9335 57.8916 62.0153 56.7083 72.1046C52.8772 69.3615 45.3894 61.0515 44.7063 45.6831C43.8525 26.4725 53.4996 26.4192 57.5417 34.8051Z" fill="url(#paint0_linear_9375_280)"/>
<path d="M57.5417 34.8051C61.4595 42.9335 57.8916 62.0153 56.7083 72.1046C52.8772 69.3615 45.3894 61.0515 44.7063 45.6831C43.8525 26.4725 53.4996 26.4192 57.5417 34.8051Z" fill="url(#paint1_linear_9375_280)"/>
<path d="M55.3436 31.582C55.5841 31.8298 55.816 32.1002 56.0426 32.3873C55.0265 33.4805 53.9799 35.5019 53.3933 38.8897C52.5258 43.9014 52.6991 51.8018 55.4812 63.7108L54.5409 64.1514C52.4245 55.0915 51.7838 48.2402 51.9913 43.1449C50.663 41.8627 48.8562 39.8571 47.3658 37.5885C46.7697 36.681 46.2181 35.724 45.7654 34.7497C45.9303 34.2428 46.1185 33.7796 46.3127 33.3506C46.7746 34.4904 47.4091 35.6475 48.1344 36.7516C49.3844 38.6541 50.8738 40.3741 52.0852 41.608C52.1686 40.5633 52.2884 39.5991 52.4413 38.7159C53.043 35.242 54.145 32.9363 55.3436 31.582Z" fill="url(#paint2_linear_9375_280)"/>
<path d="M30.9195 39.8753C39.4658 42.5342 52.9974 59.3419 58.6949 67.4134L56.5592 70.2622C45.8761 68.6004 22.1833 62.523 12.8773 51.5078C1.24489 37.7388 20.2366 36.5518 30.9195 39.8753Z" fill="url(#paint3_linear_9375_280)"/>
<path d="M30.9195 39.8753C39.4658 42.5342 52.9974 59.3419 58.6949 67.4134L56.5592 70.2622C45.8761 68.6004 22.1833 62.523 12.8773 51.5078C1.24489 37.7388 20.2366 36.5518 30.9195 39.8753Z" fill="url(#paint4_radial_9375_280)"/>
<path d="M25.02 68.4742C35.8453 73.412 50.4462 71.9035 56.6185 70.5582L57.4494 69.0745C50.8816 66.6214 39.5237 57.3158 33.6654 56.4012C26.6916 55.3123 11.4883 62.3018 25.02 68.4742Z" fill="url(#paint5_linear_9375_280)"/>
<path d="M25.02 68.4742C35.8453 73.412 50.4462 71.9035 56.6185 70.5582L57.4494 69.0745C50.8816 66.6214 39.5237 57.3158 33.6654 56.4012C26.6916 55.3123 11.4883 62.3018 25.02 68.4742Z" fill="url(#paint6_linear_9375_280)"/>
<path d="M25.02 68.4742C35.8453 73.412 50.4462 71.9035 56.6185 70.5582L57.4494 69.0745C50.8816 66.6214 39.5237 57.3158 33.6654 56.4012C26.6916 55.3123 11.4883 62.3018 25.02 68.4742Z" fill="url(#paint7_linear_9375_280)"/>
<path d="M19.7279 62.2755C25.0049 60.496 30.2515 60.123 35.0622 60.5247C35.0697 60.5229 35.0805 60.5226 35.0882 60.521V60.5284C37.9291 60.7675 40.6209 61.2714 43.0744 61.9231C44.3378 62.2589 45.541 62.6341 46.6724 63.0285C50.0986 65.1843 53.4989 67.3318 56.261 68.5777L56.1572 68.6964L55.6453 69.2565C55.0419 68.7057 53.5136 67.6892 51.246 66.5746C48.9965 65.4691 46.0624 64.2904 42.6812 63.392C40.3656 62.777 37.8418 62.302 35.1883 62.0641C32.9305 62.6942 29.0817 64.9918 27.3765 69.4271C26.8947 69.2541 26.4186 69.0697 25.9484 68.8744C27.242 65.5103 29.6442 63.2411 31.8722 61.9009C27.9558 61.8728 23.8324 62.4345 19.7056 63.9002C19.5557 63.3438 19.5729 62.8017 19.7279 62.2755Z" fill="url(#paint8_linear_9375_280)"/>
<path d="M26.9215 39.1329C26.7221 39.7569 26.5619 40.4317 26.4356 41.1322C26.0844 43.0812 26.0298 45.0846 26.0906 46.418C26.5851 46.6125 27.0933 46.8221 27.6003 47.0486C30.8523 48.5018 34.4442 50.6276 37.9975 53.0911C45.1009 58.0163 52.1682 64.3605 56.2623 69.5382L55.5538 70.0909C55.2496 70.0396 54.9362 69.989 54.6153 69.9314C50.5801 65.0039 43.8936 59.031 37.1296 54.3411C36.4394 53.8626 35.7434 53.3984 35.0561 52.9501C33.0631 52.8546 29.7557 53.0772 26.2167 54.0555C23.8902 54.6992 21.4897 55.6787 19.2951 57.0823C18.8366 56.773 18.3925 56.4529 17.9561 56.1327C20.4501 54.4406 23.2027 53.3123 25.8124 52.5903C28.3153 51.8984 30.7159 51.5659 32.671 51.4553C30.6993 50.2696 28.7778 49.2404 26.9771 48.4359C24.2075 47.199 21.7967 46.5191 19.948 46.5107L19.1913 46.5478C15.8634 46.9176 13.5491 47.7631 12.0248 48.6362C11.693 48.8265 11.3994 49.0205 11.142 49.2074C10.8428 48.7563 10.577 48.3245 10.3519 47.9054C10.6314 47.7087 10.9368 47.5094 11.2681 47.3194C12.9998 46.3271 15.5188 45.4274 19.0206 45.0381L19.9331 44.9899C21.3137 44.9932 22.8842 45.3085 24.5587 45.8579C24.5341 44.4742 24.6144 42.6518 24.937 40.8614C25.0562 40.2003 25.2087 39.5253 25.4081 38.8695C25.9177 38.9467 26.424 39.0367 26.9215 39.1329Z" fill="url(#paint9_linear_9375_280)"/>
<path d="M89.2047 71.9662C81.5237 75.9828 80.6897 73.1779 78.2413 72.6078C70.6755 74.0019 72.4525 76.5244 76.8353 78.0515C81.2181 79.5785 85.2288 79.3438 92.1214 75.6112C99.014 71.8786 96.8857 67.9496 89.2047 71.9662Z" fill="black"/>
<path d="M42.6396 89.1709C39.7468 79.7007 45.6819 66.3352 59.0356 59.7276C73.2179 53.9611 79.7308 60.2673 81.2144 64.1413C88.9021 82.5484 73.4107 94.4966 65.9919 98.6526C58.5732 102.809 50.2933 103.854 50.2933 103.854C50.2933 103.854 45.5325 98.6411 42.6396 89.1709Z" fill="url(#paint10_radial_9375_280)"/>
<path d="M42.6396 89.1709C39.7468 79.7007 45.6819 66.3352 59.0356 59.7276C73.2179 53.9611 79.7308 60.2673 81.2144 64.1413C88.9021 82.5484 73.4107 94.4966 65.9919 98.6526C58.5732 102.809 50.2933 103.854 50.2933 103.854C50.2933 103.854 45.5325 98.6411 42.6396 89.1709Z" fill="url(#paint11_radial_9375_280)"/>
<path d="M42.6396 89.1709C39.7468 79.7007 45.6819 66.3352 59.0356 59.7276C73.2179 53.9611 79.7308 60.2673 81.2144 64.1413C88.9021 82.5484 73.4107 94.4966 65.9919 98.6526C58.5732 102.809 50.2933 103.854 50.2933 103.854C50.2933 103.854 45.5325 98.6411 42.6396 89.1709Z" fill="url(#paint12_linear_9375_280)"/>
<path d="M43.3498 91.2849C46.249 99.4119 50.2963 103.853 50.2963 103.853C50.4249 103.837 58.6329 102.775 65.9933 98.652C66.5539 98.3379 67.156 97.9723 67.7954 97.5698C55.3545 96.945 47.7162 94.204 43.3498 91.2849Z" fill="black" fill-opacity="0.66"/>
<path d="M43.2814 76.7293C42.4877 78.9513 42.0388 81.1861 41.9463 83.3449C44.5428 85.1152 47.4786 86.7337 50.6488 88.1009C57.29 90.965 65.2391 92.9074 73.7801 93.0478C75.6817 91.3219 77.5374 89.2961 79.1008 86.9837C69.6219 87.7371 60.6596 85.8745 53.4059 82.7461C49.3154 80.9818 45.9092 78.8779 43.2814 76.7293Z" fill="black" fill-opacity="0.66"/>
<path d="M49.0568 67.2215C47.6396 68.7896 46.4254 70.4489 45.4236 72.158C48.4676 74.5497 52.0581 76.7224 56.0483 78.4599C63.3032 81.6188 72.0505 83.4433 81.5004 82.6037C82.3066 80.7106 82.888 78.6758 83.1468 76.4989C74.1273 77.7284 65.737 76.1236 58.8248 73.1137C55.0165 71.4553 51.7274 69.3982 49.0568 67.2215Z" fill="black" fill-opacity="0.66"/>
<path d="M57.0303 60.8088C55.5539 61.6627 54.1814 62.6015 52.9135 63.6092C54.9582 65.4081 57.2782 67.0425 59.9126 68.3802C66.0603 71.5014 73.7242 72.9193 83.1436 71.3538C82.9767 69.9046 82.6651 68.4066 82.1899 66.8572C73.8831 68.2022 67.4139 66.8972 62.3525 64.3279C60.3972 63.3351 58.6312 62.1371 57.0303 60.8088Z" fill="black" fill-opacity="0.66"/>
<path d="M76.7039 30.9205C76.1944 30.9861 75.718 31.277 75.3209 31.6191C74.9098 31.9735 74.5094 32.4454 74.1463 32.9901C73.4198 34.0796 72.7954 35.5334 72.5328 37.1151C72.0239 40.1833 72.2702 42.4877 73.0345 45.2297L73.7661 45.0253L74.4978 44.8245C73.7826 42.2589 73.5638 40.1804 74.0303 37.3666C74.2557 36.0077 74.7979 34.7539 75.4111 33.834C75.7177 33.3743 76.0303 33.0138 76.3135 32.7698C76.6109 32.5136 76.8129 32.4384 76.8974 32.4274L76.7039 30.9205Z" fill="#564726"/>
<path d="M74.609 31.5581C74.6038 32.7381 75.5561 33.6989 76.736 33.7042C77.916 33.7094 78.8769 32.7571 78.8821 31.5771C78.8874 30.3972 77.9351 29.4363 76.7551 29.4311C75.5751 29.4258 74.6143 30.3781 74.609 31.5581Z" fill="url(#paint13_linear_9375_280)"/>
<path d="M56.0926 50.703C53.5936 58.7133 58.8199 64.4844 66.8302 66.9834C74.8405 69.4824 82.6016 67.7629 85.1006 59.7525C87.5996 51.7422 83.1317 43.2227 75.1214 40.7238C67.111 38.2248 58.5916 42.6927 56.0926 50.703Z" fill="url(#paint14_radial_9375_280)"/>
<path d="M81.3495 84.2815C73.7052 82.4675 74.8402 80.489 73.6714 78.5639C67.8974 74.9121 65.7894 76.6502 67.5345 80.4649C69.2797 84.2796 73.0791 86.7289 80.0267 88.2633C86.9742 89.7977 88.9937 86.0955 81.3495 84.2815Z" fill="black"/>
<path d="M67.0037 29.7139C65.6835 30.1412 63.0671 31.8431 63.1372 35.2836C63.1708 36.913 63.8399 39.1882 64.611 41.2926C65.2441 43.0204 65.6983 43.8647 66.1763 44.7908C66.3688 45.1638 66.8248 45.3187 67.2014 45.1333C67.5777 44.9481 67.7321 44.4932 67.5392 44.1208C67.0828 43.2399 66.6498 42.4378 66.0392 40.7718C65.2685 38.6684 64.6837 36.6067 64.6554 35.2554C64.6035 32.7348 66.5129 31.4697 67.4711 31.1594L67.0037 29.7139Z" fill="#564726"/>
<path d="M65.0472 30.836C65.259 31.9968 66.3718 32.7661 67.5326 32.5542C68.6934 32.3424 69.4627 31.2296 69.2509 30.0688C69.039 28.908 67.9263 28.1387 66.7654 28.3505C65.6046 28.5624 64.8353 29.6751 65.0472 30.836Z" fill="url(#paint15_linear_9375_280)"/>
<path d="M80.6421 57.9526C79.0577 58.293 76.5577 57.0496 76.6109 56.4142C76.6641 55.7787 79.2788 57.0768 80.2302 56.7789C81.5685 56.3599 82.0249 54.2546 82.5777 54.5245C83.1306 54.7944 82.2265 57.6122 80.6421 57.9526Z" fill="url(#paint16_radial_9375_280)"/>
<path d="M80.6421 57.9526C79.0577 58.293 76.5577 57.0496 76.6109 56.4142C76.6641 55.7787 79.2788 57.0768 80.2302 56.7789C81.5685 56.3599 82.0249 54.2546 82.5777 54.5245C83.1306 54.7944 82.2265 57.6122 80.6421 57.9526Z" fill="#51390F"/>
<path d="M81.0413 44.19C80.1831 44.9945 79.7352 46.2685 80.0262 47.863C80.4824 50.3614 81.7818 52.8435 84.491 52.3496C84.8544 52.2833 85.1725 52.1729 85.4509 52.0312C85.098 48.8986 84.5811 46.0669 81.0413 44.19Z" fill="#564929"/>
<path d="M81.0413 44.19C80.1831 44.9945 79.7352 46.2685 80.0262 47.863C80.4824 50.3614 81.7818 52.8435 84.491 52.3496C84.8544 52.2833 85.1725 52.1729 85.4509 52.0312C85.098 48.8986 84.5811 46.0669 81.0413 44.19Z" fill="url(#paint17_radial_9375_280)"/>
<path d="M81.0413 44.19C80.1831 44.9945 79.7352 46.2685 80.0262 47.863C80.4824 50.3614 81.7818 52.8435 84.491 52.3496C84.8544 52.2833 85.1725 52.1729 85.4509 52.0312C85.098 48.8986 84.5811 46.0669 81.0413 44.19Z" fill="url(#paint18_radial_9375_280)"/>
<path d="M82.6354 46.4819C80.669 47.1123 81.7423 49.1308 82.27 50.259C82.8306 51.4575 84.25 53.3548 85.2005 51.7753C85.6972 50.1769 84.6017 45.8516 82.6354 46.4819Z" fill="black"/>
<path d="M80.3479 47.1392C80.4661 47.7868 81.0869 48.216 81.7345 48.0978C82.3821 47.9796 82.8113 47.3588 82.6931 46.7112C82.5749 46.0636 81.9541 45.6344 81.3065 45.7526C80.6589 45.8708 80.2297 46.4916 80.3479 47.1392Z" fill="url(#paint19_linear_9375_280)"/>
<path d="M84.9198 48.2667C83.6891 48.8296 81.855 49.856 80.8115 51.3543C81.297 52.9969 83.7736 55.45 85.7908 55.0645C86.5759 53.6958 86.4734 50.4869 84.9198 48.2667Z" fill="url(#paint20_radial_9375_280)"/>
<path d="M84.9198 48.2667C83.6891 48.8296 81.855 49.856 80.8115 51.3543C81.297 52.9969 83.7736 55.45 85.7908 55.0645C86.5759 53.6958 86.4734 50.4869 84.9198 48.2667Z" fill="url(#paint21_linear_9375_280)"/>
<path d="M66.9042 51.3439C67.3602 53.8429 68.6581 56.3265 71.3684 55.8318C74.0788 55.3372 74.3062 52.5753 73.8502 50.0763C73.3941 47.5773 71.635 46.4321 69.7169 46.7822C67.7988 47.1322 66.4481 48.8449 66.9042 51.3439Z" fill="url(#paint22_radial_9375_280)"/>
<path d="M66.9042 51.3439C67.3602 53.8429 68.6581 56.3265 71.3684 55.8318C74.0788 55.3372 74.3062 52.5753 73.8502 50.0763C73.3941 47.5773 71.635 46.4321 69.7169 46.7822C67.7988 47.1322 66.4481 48.8449 66.9042 51.3439Z" fill="url(#paint23_radial_9375_280)"/>
<path d="M69.0985 52.8283C69.3925 54.4389 70.2289 56.0395 71.9757 55.7207C73.7224 55.4019 73.869 53.6219 73.5751 52.0114C73.2812 50.4008 72.1474 49.6628 70.9113 49.8884C69.6751 50.114 68.8046 51.2178 69.0985 52.8283Z" fill="black"/>
<path d="M67.8355 50.994C67.9537 51.6416 68.5745 52.0708 69.2221 51.9526C69.8697 51.8344 70.2989 51.2136 70.1807 50.566C70.0625 49.9184 69.4417 49.4892 68.7941 49.6074C68.1465 49.7256 67.7173 50.3464 67.8355 50.994Z" fill="url(#paint24_linear_9375_280)"/>
<path d="M67.3348 55.8448C69.3654 53.4231 72.0997 52.8637 74.707 53.5945C75.5645 55.2077 75.4523 59.069 73.389 59.9282C71.3257 60.7874 68.4931 57.564 67.3348 55.8448Z" fill="url(#paint25_radial_9375_280)"/>
<path d="M67.3348 55.8448C69.3654 53.4231 72.0997 52.8637 74.707 53.5945C75.5645 55.2077 75.4523 59.069 73.389 59.9282C71.3257 60.7874 68.4931 57.564 67.3348 55.8448Z" fill="url(#paint26_linear_9375_280)"/>
<path d="M158.937 82.1886C166.614 79.8214 165.322 77.8796 166.384 75.8366C172.028 71.7209 174.297 73.3517 172.774 77.3615C171.251 81.3713 167.54 84.1268 160.556 86.1616C153.571 88.1964 151.261 84.5557 158.937 82.1886Z" fill="black"/>
<path d="M217.864 32.8592C201.623 28.5499 179.431 60.0838 179.051 61.2619L182.798 62.6697C187.906 61.0983 197.149 60.0428 205.93 55.9208C216.641 50.8927 234.105 37.1686 217.864 32.8592Z" fill="url(#paint27_linear_9375_280)"/>
<path d="M217.864 32.8592C201.623 28.5499 179.431 60.0838 179.051 61.2619L182.798 62.6697C187.906 61.0983 197.149 60.0428 205.93 55.9208C216.641 50.8927 234.105 37.1686 217.864 32.8592Z" fill="url(#paint28_linear_9375_280)"/>
<path d="M208.403 50.3411C200.253 50.6752 187.888 58.7751 182.919 62.6835C188.593 65.0457 203.202 68.3858 214.693 63.6467C229.056 57.7228 218.591 49.9235 208.403 50.3411Z" fill="url(#paint29_linear_9375_280)"/>
<path d="M208.403 50.3411C200.253 50.6752 187.888 58.7751 182.919 62.6835C188.593 65.0457 203.202 68.3858 214.693 63.6467C229.056 57.7228 218.591 49.9235 208.403 50.3411Z" fill="url(#paint30_linear_9375_280)"/>
<path d="M221.984 34.5542C222.558 34.9255 223.023 35.3243 223.389 35.7464C218.092 37.3172 212.538 40.0921 207.276 43.2864C210.715 43.0936 215.81 43.2151 221.907 44.2344C221.533 44.6948 221.126 45.1546 220.69 45.6141C212.827 44.4028 206.845 44.7248 204.3 45.1587C202.206 46.5157 200.178 47.9159 198.254 49.3086C189.273 55.8076 182.792 61.9153 182.295 62.3103L181.328 61.092C181.328 61.092 181.338 61.0851 181.357 61.0687C181.378 61.0505 181.407 61.0253 181.442 60.9944C181.513 60.9317 181.609 60.8438 181.727 60.7371C181.963 60.5246 182.293 60.2288 182.702 59.8641C183.521 59.1332 184.67 58.1219 186.087 56.9164C188.922 54.5042 192.835 51.3148 197.344 48.0512C204.612 42.7918 213.511 37.2757 221.984 34.5542Z" fill="url(#paint31_linear_9375_280)"/>
<path d="M213.208 50.729C213.793 50.8474 214.364 50.9894 214.916 51.1542C212.935 53.3806 210.223 55.346 207.204 57.0368C208.049 57.3024 209.049 57.7135 210.169 58.3052C211.976 59.2593 214.128 60.7042 216.508 62.813C216.03 63.0521 215.517 63.291 214.964 63.5251C212.878 61.7374 211.007 60.5049 209.446 59.6805C207.306 58.5506 205.797 58.2078 205.135 58.1964L205.136 58.1201C203.971 58.705 202.784 59.2668 201.586 59.7776C196.711 61.856 191.647 63.3564 187.796 64.2671C186.815 64.0102 185.909 63.7443 185.093 63.4754L185.058 63.2843C188.93 62.5212 195.1 60.8549 200.979 58.3488C205.773 56.3052 210.268 53.742 213.208 50.729Z" fill="url(#paint32_linear_9375_280)"/>
<path d="M180.146 31.0057C176.91 37.5026 177.29 54.5097 177.052 63.4053C179.712 61.5577 185.196 55.3944 187.112 42.1859C189.508 25.6753 183.485 24.3028 180.146 31.0057Z" fill="url(#paint33_linear_9375_280)"/>
<path d="M180.146 31.0057C176.91 37.5026 177.29 54.5097 177.052 63.4053C179.712 61.5577 185.196 55.3944 187.112 42.1859C189.508 25.6753 183.485 24.3028 180.146 31.0057Z" fill="url(#paint34_linear_9375_280)"/>
<path d="M159.279 31.8035C159.79 31.6835 160.351 31.791 160.854 31.9761C161.375 32.1678 161.927 32.476 162.47 32.8672C163.557 33.6497 164.676 34.8175 165.495 36.2377C167.084 38.9926 167.675 41.2874 167.927 44.1869L167.153 44.2537L166.38 44.324C166.145 41.611 165.608 39.5424 164.152 37.0158C163.448 35.7957 162.479 34.7898 161.562 34.1291C161.104 33.7989 160.675 33.566 160.316 33.4339C159.94 33.2954 159.719 33.2958 159.634 33.3156L159.279 31.8035Z" fill="#564726"/>
<path d="M161.513 31.6618C161.942 32.7902 161.375 34.0524 160.246 34.4811C159.118 34.9097 157.856 34.3425 157.427 33.2141C156.999 32.0857 157.566 30.8235 158.694 30.3949C159.823 29.9662 161.085 30.5335 161.513 31.6618Z" fill="url(#paint35_linear_9375_280)"/>
<path d="M205.147 86.1271C205.858 75.7027 197.271 63.2327 183.052 59.4C168.222 56.6211 163.358 64.5893 162.78 68.9208C159.422 89.6449 176.848 98.5127 184.853 101.143C192.858 103.773 201.012 102.999 201.012 102.999C201.012 102.999 204.436 96.5516 205.147 86.1271Z" fill="url(#paint36_radial_9375_280)"/>
<path d="M205.147 86.1271C205.858 75.7027 197.271 63.2327 183.052 59.4C168.222 56.6211 163.358 64.5893 162.78 68.9208C159.422 89.6449 176.848 98.5127 184.853 101.143C192.858 103.773 201.012 102.999 201.012 102.999C201.012 102.999 204.436 96.5516 205.147 86.1271Z" fill="url(#paint37_radial_9375_280)"/>
<path d="M205.147 86.1271C205.858 75.7027 197.271 63.2327 183.052 59.4C168.222 56.6211 163.358 64.5893 162.78 68.9208C159.422 89.6449 176.848 98.5127 184.853 101.143C192.858 103.773 201.012 102.999 201.012 102.999C201.012 102.999 204.436 96.5516 205.147 86.1271Z" fill="url(#paint38_linear_9375_280)"/>
<path d="M183.463 49.8652C186.553 57.8688 181.611 64.1097 173.608 67.2004C165.604 70.2911 157.57 69.0611 154.479 61.0575C151.388 53.0539 155.371 44.0602 163.375 40.9695C171.378 37.8788 180.372 41.8616 183.463 49.8652Z" fill="url(#paint39_radial_9375_280)"/>
<path d="M204.928 88.4689C203.919 97.508 201.01 102.999 201.01 102.999C200.883 103.011 192.796 103.752 184.853 101.143C184.248 100.944 183.593 100.701 182.893 100.429C194.667 96.9993 201.383 92.4598 204.928 88.4689Z" fill="black" fill-opacity="0.66"/>
<path d="M155.841 71.756C163.453 76.2955 164.465 73.4798 166.997 73.0377C174.641 74.8934 172.683 77.367 168.121 78.6754C163.559 79.9837 159.478 79.5149 152.655 75.3104C145.832 71.1058 148.23 67.2165 155.841 71.756Z" fill="black"/>
<path d="M201.832 73.4267C203.074 75.543 203.99 77.7497 204.548 79.9577C202.447 82.3665 199.988 84.6945 197.251 86.8156C191.516 91.2589 184.328 95.0435 176.183 97.1001C173.987 95.7438 171.771 94.0678 169.771 92.0304C179.009 90.6866 187.184 86.7577 193.447 81.9044C196.98 79.1675 199.783 76.233 201.832 73.4267Z" fill="black" fill-opacity="0.66"/>
<path d="M194.236 64.9035C195.934 66.2053 197.457 67.6466 198.787 69.1868C196.393 72.3373 193.428 75.3839 189.986 78.0709C183.728 82.9559 175.751 86.7973 166.522 88.0456C165.339 86.2717 164.34 84.3011 163.619 82.1116C172.521 81.3622 180.204 77.8274 186.166 73.173C189.452 70.6084 192.153 67.7485 194.236 64.9035Z" fill="black" fill-opacity="0.66"/>
<path d="M185.21 60.0679C186.809 60.619 188.327 61.281 189.759 62.0375C188.193 64.3523 186.327 66.559 184.096 68.5296C178.89 73.1279 171.861 76.3071 162.504 76.7992C162.349 75.2656 162.322 73.6495 162.44 71.9434C170.684 71.4728 176.593 68.6776 180.88 64.8921C182.536 63.4296 183.966 61.7974 185.21 60.0679Z" fill="black" fill-opacity="0.66"/>
<path d="M174.145 28.0687C175.521 28.4156 178.305 29.9751 178.466 33.4899C178.542 35.1546 178.013 37.521 177.368 39.7202C176.839 41.5256 176.433 42.4177 176.008 43.3948C175.837 43.7884 175.382 43.9772 174.985 43.8135C174.589 43.65 174.4 43.1963 174.572 42.8034C174.978 41.8739 175.366 41.0263 175.876 39.2853C176.52 37.0873 176.978 34.9443 176.915 33.5637C176.798 30.9887 174.764 29.8269 173.766 29.5751L174.145 28.0687Z" fill="#564726"/>
<path d="M176.218 29.0824C176.08 30.2816 174.996 31.142 173.797 31.0042C172.598 30.8664 171.738 29.7826 171.875 28.5835C172.013 27.3843 173.097 26.5239 174.296 26.6617C175.495 26.7995 176.356 27.8833 176.218 29.0824Z" fill="url(#paint40_linear_9375_280)"/>
<path d="M157.57 44.9051C158.5 45.6683 159.043 46.9383 158.854 48.5855C158.557 51.1663 157.399 53.7876 154.6 53.4667C154.225 53.4236 153.892 53.3324 153.599 53.2065C153.747 49.9853 154.083 47.0601 157.57 44.9051Z" fill="#564929"/>
<path d="M157.57 44.9051C158.5 45.6683 159.043 46.9383 158.854 48.5855C158.557 51.1663 157.399 53.7876 154.6 53.4667C154.225 53.4236 153.892 53.3324 153.599 53.2065C153.747 49.9853 154.083 47.0601 157.57 44.9051Z" fill="url(#paint41_radial_9375_280)"/>
<path d="M157.57 44.9051C158.5 45.6683 159.043 46.9383 158.854 48.5855C158.557 51.1663 157.399 53.7876 154.6 53.4667C154.225 53.4236 153.892 53.3324 153.599 53.2065C153.747 49.9853 154.083 47.0601 157.57 44.9051Z" fill="url(#paint42_radial_9375_280)"/>
<path d="M157.57 44.9051C158.5 45.6683 159.043 46.9383 158.854 48.5855C158.557 51.1663 157.399 53.7876 154.6 53.4667C154.225 53.4236 153.892 53.3324 153.599 53.2065C153.747 49.9853 154.083 47.0601 157.57 44.9051Z" fill="url(#paint43_radial_9375_280)"/>
<path d="M156.099 47.3527C158.149 47.8632 157.19 49.996 156.728 51.1832C156.236 52.4444 154.916 54.4769 153.839 52.9289C153.224 51.331 154.05 46.8422 156.099 47.3527Z" fill="black"/>
<path d="M158.474 47.8682C158.397 48.5372 157.792 49.0172 157.123 48.9404C156.454 48.8635 155.974 48.2589 156.051 47.5899C156.128 46.9209 156.732 46.4409 157.401 46.5177C158.07 46.5946 158.55 47.1992 158.474 47.8682Z" fill="url(#paint44_linear_9375_280)"/>
<path d="M153.886 49.3267C155.18 49.8179 157.122 50.7416 158.288 52.2004C157.903 53.9098 155.541 56.581 153.456 56.3239C152.563 54.98 152.45 51.6977 153.886 49.3267Z" fill="url(#paint45_radial_9375_280)"/>
<path d="M153.886 49.3267C155.18 49.8179 157.122 50.7416 158.288 52.2004C157.903 53.9098 155.541 56.581 153.456 56.3239C152.563 54.98 152.45 51.6977 153.886 49.3267Z" fill="url(#paint46_linear_9375_280)"/>
<path d="M172.481 51.251C172.184 53.8325 171.027 56.4552 168.228 56.1335C165.428 55.8118 165.009 53.0081 165.306 50.4266C165.602 47.8451 167.32 46.5573 169.302 46.785C171.283 47.0126 172.778 48.6695 172.481 51.251Z" fill="url(#paint47_radial_9375_280)"/>
<path d="M172.481 51.251C172.184 53.8325 171.027 56.4552 168.228 56.1335C165.428 55.8118 165.009 53.0081 165.306 50.4266C165.602 47.8451 167.32 46.5573 169.302 46.785C171.283 47.0126 172.778 48.6695 172.481 51.251Z" fill="url(#paint48_radial_9375_280)"/>
<path d="M172.481 51.251C172.184 53.8325 171.027 56.4552 168.228 56.1335C165.428 55.8118 165.009 53.0081 165.306 50.4266C165.602 47.8451 167.32 46.5573 169.302 46.785C171.283 47.0126 172.778 48.6695 172.481 51.251Z" fill="url(#paint49_radial_9375_280)"/>
<path d="M170.341 52.9128C170.15 54.5766 169.404 56.2668 167.6 56.0595C165.796 55.8521 165.526 54.0452 165.717 52.3815C165.908 50.7178 167.015 49.8878 168.292 50.0345C169.569 50.1813 170.532 51.2491 170.341 52.9128Z" fill="black"/>
<path d="M171.506 50.9559C171.429 51.6249 170.825 52.1049 170.156 52.028C169.487 51.9511 169.007 51.3465 169.083 50.6775C169.16 50.0085 169.765 49.5285 170.434 49.6054C171.103 49.6822 171.583 50.2869 171.506 50.9559Z" fill="url(#paint50_linear_9375_280)"/>
<path d="M172.529 55.6229C170.293 53.2884 167.28 53.1507 164.668 54.0728C163.902 55.7773 164.812 60.2971 167.798 60.6402C171.387 61.0526 172.054 57.6513 172.529 55.6229Z" fill="url(#paint51_radial_9375_280)"/>
<path d="M172.529 55.6229C170.293 53.2884 167.28 53.1507 164.668 54.0728C163.902 55.7773 164.812 60.2971 167.798 60.6402C171.387 61.0526 172.054 57.6513 172.529 55.6229Z" fill="url(#paint52_linear_9375_280)"/>
<path d="M159.883 57.5129C161.259 58.1182 163.998 56.691 163.927 56.1868C163.856 55.6826 161.276 56.2776 160.388 56.0292C159.138 55.6798 158.856 54.4051 158.355 54.6117C157.854 54.8184 158.04 56.7016 159.883 57.5129Z" fill="url(#paint53_radial_9375_280)"/>
<path d="M159.883 57.5129C161.259 58.1182 163.998 56.691 163.927 56.1868C163.856 55.6826 161.276 56.2776 160.388 56.0292C159.138 55.6798 158.856 54.4051 158.355 54.6117C157.854 54.8184 158.04 56.7016 159.883 57.5129Z" fill="#51390F"/>
<path d="M141.785 17.3399C144.294 16.1428 147.111 15.9024 149.745 17.5204L150.815 18.2628C153.159 20.1116 154.428 22.7034 154.765 25.6375C155.142 28.9318 154.35 32.6364 152.706 36.3307C149.416 43.725 142.532 51.5284 133.357 56.8275L131.096 58.1294L129.117 38.6556C128.889 36.4091 129.525 33.6513 130.592 30.9785C131.675 28.2642 133.278 25.4473 135.178 23.0294C137.064 20.6292 139.33 18.5111 141.785 17.3399ZM133.918 52.504C141.391 47.6163 146.914 41.0365 149.621 34.953C151.107 31.6113 151.698 28.5311 151.41 26.0225C151.164 23.8776 150.284 22.1386 148.701 20.8983L147.976 20.3972C146.556 19.5256 144.993 19.5494 143.239 20.3866C141.428 21.2506 139.544 22.9373 137.833 25.114C136.136 27.273 134.697 29.8093 133.731 32.2291C132.749 34.6904 132.328 36.8544 132.476 38.3143L133.918 52.504Z" fill="#FFD340"/>
<path d="M141.785 17.3399C144.294 16.1428 147.111 15.9024 149.745 17.5204L150.815 18.2628C153.159 20.1116 154.428 22.7034 154.765 25.6375C155.142 28.9318 154.35 32.6364 152.706 36.3307C149.416 43.725 142.532 51.5284 133.357 56.8275L131.096 58.1294L129.117 38.6556C128.889 36.4091 129.525 33.6513 130.592 30.9785C131.675 28.2642 133.278 25.4473 135.178 23.0294C137.064 20.6292 139.33 18.5111 141.785 17.3399ZM133.918 52.504C141.391 47.6163 146.914 41.0365 149.621 34.953C151.107 31.6113 151.698 28.5311 151.41 26.0225C151.164 23.8776 150.284 22.1386 148.701 20.8983L147.976 20.3972C146.556 19.5256 144.993 19.5494 143.239 20.3866C141.428 21.2506 139.544 22.9373 137.833 25.114C136.136 27.273 134.697 29.8093 133.731 32.2291C132.749 34.6904 132.328 36.8544 132.476 38.3143L133.918 52.504Z" fill="url(#paint54_linear_9375_280)"/>
<path d="M141.785 17.3399C144.294 16.1428 147.111 15.9024 149.745 17.5204L150.815 18.2628C153.159 20.1116 154.428 22.7034 154.765 25.6375C155.142 28.9318 154.35 32.6364 152.706 36.3307C149.416 43.725 142.532 51.5284 133.357 56.8275L131.096 58.1294L129.117 38.6556C128.889 36.4091 129.525 33.6513 130.592 30.9785C131.675 28.2642 133.278 25.4473 135.178 23.0294C137.064 20.6292 139.33 18.5111 141.785 17.3399ZM133.918 52.504C141.391 47.6163 146.914 41.0365 149.621 34.953C151.107 31.6113 151.698 28.5311 151.41 26.0225C151.164 23.8776 150.284 22.1386 148.701 20.8983L147.976 20.3972C146.556 19.5256 144.993 19.5494 143.239 20.3866C141.428 21.2506 139.544 22.9373 137.833 25.114C136.136 27.273 134.697 29.8093 133.731 32.2291C132.749 34.6904 132.328 36.8544 132.476 38.3143L133.918 52.504Z" fill="url(#paint55_radial_9375_280)"/>
<path d="M141.785 17.3399C144.294 16.1428 147.111 15.9024 149.745 17.5204L150.815 18.2628C153.159 20.1116 154.428 22.7034 154.765 25.6375C155.142 28.9318 154.35 32.6364 152.706 36.3307C149.416 43.725 142.532 51.5284 133.357 56.8275L131.096 58.1294L129.117 38.6556C128.889 36.4091 129.525 33.6513 130.592 30.9785C131.675 28.2642 133.278 25.4473 135.178 23.0294C137.064 20.6292 139.33 18.5111 141.785 17.3399ZM133.918 52.504C141.391 47.6163 146.914 41.0365 149.621 34.953C151.107 31.6113 151.698 28.5311 151.41 26.0225C151.164 23.8776 150.284 22.1386 148.701 20.8983L147.976 20.3972C146.556 19.5256 144.993 19.5494 143.239 20.3866C141.428 21.2506 139.544 22.9373 137.833 25.114C136.136 27.273 134.697 29.8093 133.731 32.2291C132.749 34.6904 132.328 36.8544 132.476 38.3143L133.918 52.504Z" fill="url(#paint56_radial_9375_280)"/>
<path d="M141.785 17.3399C144.294 16.1428 147.111 15.9024 149.745 17.5204L150.815 18.2628C153.159 20.1116 154.428 22.7034 154.765 25.6375C155.142 28.9318 154.35 32.6364 152.706 36.3307C149.416 43.725 142.532 51.5284 133.357 56.8275L131.096 58.1294L129.117 38.6556C128.889 36.4091 129.525 33.6513 130.592 30.9785C131.675 28.2642 133.278 25.4473 135.178 23.0294C137.064 20.6292 139.33 18.5111 141.785 17.3399ZM133.918 52.504C141.391 47.6163 146.914 41.0365 149.621 34.953C151.107 31.6113 151.698 28.5311 151.41 26.0225C151.164 23.8776 150.284 22.1386 148.701 20.8983L147.976 20.3972C146.556 19.5256 144.993 19.5494 143.239 20.3866C141.428 21.2506 139.544 22.9373 137.833 25.114C136.136 27.273 134.697 29.8093 133.731 32.2291C132.749 34.6904 132.328 36.8544 132.476 38.3143L133.918 52.504Z" fill="url(#paint57_linear_9375_280)"/>
<path d="M95.6544 22.0271C92.9555 21.3591 90.1484 21.6901 87.8932 23.8049L86.9942 24.7474C85.0703 27.0298 84.3483 29.8239 84.609 32.7657C84.9017 36.0687 86.4229 39.5381 88.7758 42.8264C93.4858 49.4079 101.799 55.6672 111.853 59.0125L114.329 59.833L112.351 40.3592C112.122 38.1127 110.944 35.5392 109.362 33.1356C107.755 30.6948 105.618 28.2578 103.27 26.2715C100.94 24.2997 98.2944 22.6806 95.6544 22.0271ZM110.434 54.8901C102.13 51.6056 95.3959 46.271 91.5214 40.8563C89.3934 37.8817 88.1952 34.9834 87.9721 32.4682C87.7815 30.3176 88.2944 28.4371 89.5953 26.9038L90.2048 26.2671C91.4208 25.1276 92.9558 24.8368 94.8433 25.3039C96.7908 25.786 98.9757 27.0592 101.089 28.8474C103.185 30.621 105.105 32.816 106.538 34.9921C107.996 37.2054 108.843 39.2405 108.992 40.7005L110.434 54.8901Z" fill="#FFD340"/>
<path d="M95.6544 22.0271C92.9555 21.3591 90.1484 21.6901 87.8932 23.8049L86.9942 24.7474C85.0703 27.0298 84.3483 29.8239 84.609 32.7657C84.9017 36.0687 86.4229 39.5381 88.7758 42.8264C93.4858 49.4079 101.799 55.6672 111.853 59.0125L114.329 59.833L112.351 40.3592C112.122 38.1127 110.944 35.5392 109.362 33.1356C107.755 30.6948 105.618 28.2578 103.27 26.2715C100.94 24.2997 98.2944 22.6806 95.6544 22.0271ZM110.434 54.8901C102.13 51.6056 95.3959 46.271 91.5214 40.8563C89.3934 37.8817 88.1952 34.9834 87.9721 32.4682C87.7815 30.3176 88.2944 28.4371 89.5953 26.9038L90.2048 26.2671C91.4208 25.1276 92.9558 24.8368 94.8433 25.3039C96.7908 25.786 98.9757 27.0592 101.089 28.8474C103.185 30.621 105.105 32.816 106.538 34.9921C107.996 37.2054 108.843 39.2405 108.992 40.7005L110.434 54.8901Z" fill="url(#paint58_linear_9375_280)"/>
<path d="M95.6544 22.0271C92.9555 21.3591 90.1484 21.6901 87.8932 23.8049L86.9942 24.7474C85.0703 27.0298 84.3483 29.8239 84.609 32.7657C84.9017 36.0687 86.4229 39.5381 88.7758 42.8264C93.4858 49.4079 101.799 55.6672 111.853 59.0125L114.329 59.833L112.351 40.3592C112.122 38.1127 110.944 35.5392 109.362 33.1356C107.755 30.6948 105.618 28.2578 103.27 26.2715C100.94 24.2997 98.2944 22.6806 95.6544 22.0271ZM110.434 54.8901C102.13 51.6056 95.3959 46.271 91.5214 40.8563C89.3934 37.8817 88.1952 34.9834 87.9721 32.4682C87.7815 30.3176 88.2944 28.4371 89.5953 26.9038L90.2048 26.2671C91.4208 25.1276 92.9558 24.8368 94.8433 25.3039C96.7908 25.786 98.9757 27.0592 101.089 28.8474C103.185 30.621 105.105 32.816 106.538 34.9921C107.996 37.2054 108.843 39.2405 108.992 40.7005L110.434 54.8901Z" fill="url(#paint59_radial_9375_280)"/>
<path d="M95.6544 22.0271C92.9555 21.3591 90.1484 21.6901 87.8932 23.8049L86.9942 24.7474C85.0703 27.0298 84.3483 29.8239 84.609 32.7657C84.9017 36.0687 86.4229 39.5381 88.7758 42.8264C93.4858 49.4079 101.799 55.6672 111.853 59.0125L114.329 59.833L112.351 40.3592C112.122 38.1127 110.944 35.5392 109.362 33.1356C107.755 30.6948 105.618 28.2578 103.27 26.2715C100.94 24.2997 98.2944 22.6806 95.6544 22.0271ZM110.434 54.8901C102.13 51.6056 95.3959 46.271 91.5214 40.8563C89.3934 37.8817 88.1952 34.9834 87.9721 32.4682C87.7815 30.3176 88.2944 28.4371 89.5953 26.9038L90.2048 26.2671C91.4208 25.1276 92.9558 24.8368 94.8433 25.3039C96.7908 25.786 98.9757 27.0592 101.089 28.8474C103.185 30.621 105.105 32.816 106.538 34.9921C107.996 37.2054 108.843 39.2405 108.992 40.7005L110.434 54.8901Z" fill="url(#paint60_radial_9375_280)"/>
<path d="M95.6544 22.0271C92.9555 21.3591 90.1484 21.6901 87.8932 23.8049L86.9942 24.7474C85.0703 27.0298 84.3483 29.8239 84.609 32.7657C84.9017 36.0687 86.4229 39.5381 88.7758 42.8264C93.4858 49.4079 101.799 55.6672 111.853 59.0125L114.329 59.833L112.351 40.3592C112.122 38.1127 110.944 35.5392 109.362 33.1356C107.755 30.6948 105.618 28.2578 103.27 26.2715C100.94 24.2997 98.2944 22.6806 95.6544 22.0271ZM110.434 54.8901C102.13 51.6056 95.3959 46.271 91.5214 40.8563C89.3934 37.8817 88.1952 34.9834 87.9721 32.4682C87.7815 30.3176 88.2944 28.4371 89.5953 26.9038L90.2048 26.2671C91.4208 25.1276 92.9558 24.8368 94.8433 25.3039C96.7908 25.786 98.9757 27.0592 101.089 28.8474C103.185 30.621 105.105 32.816 106.538 34.9921C107.996 37.2054 108.843 39.2405 108.992 40.7005L110.434 54.8901Z" fill="url(#paint61_linear_9375_280)"/>
<path d="M135.623 15.1771C138.181 14.9176 140.464 16.7803 140.725 19.3382L142.159 33.4487C143.365 45.3228 138.581 56.9598 129.506 64.5526L130.905 78.3265L118.585 79.5783L117.186 65.8043C106.769 60.192 99.7422 49.7547 98.5351 37.8811L97.1013 23.7706C96.8427 21.213 98.7051 18.9294 101.262 18.6683L135.623 15.1771Z" fill="#EA873A"/>
<path d="M135.623 15.1771C138.181 14.9176 140.464 16.7803 140.725 19.3382L142.159 33.4487C143.365 45.3228 138.581 56.9598 129.506 64.5526L130.905 78.3265L118.585 79.5783L117.186 65.8043C106.769 60.192 99.7422 49.7547 98.5351 37.8811L97.1013 23.7706C96.8427 21.213 98.7051 18.9294 101.262 18.6683L135.623 15.1771Z" fill="url(#paint62_radial_9375_280)"/>
<path d="M135.623 15.1771C138.181 14.9176 140.464 16.7803 140.725 19.3382L142.159 33.4487C143.365 45.3228 138.581 56.9598 129.506 64.5526L130.905 78.3265L118.585 79.5783L117.186 65.8043C106.769 60.192 99.7422 49.7547 98.5351 37.8811L97.1013 23.7706C96.8427 21.213 98.7051 18.9294 101.262 18.6683L135.623 15.1771Z" fill="url(#paint63_radial_9375_280)"/>
<path d="M135.623 15.1771C138.181 14.9176 140.464 16.7803 140.725 19.3382L142.159 33.4487C143.365 45.3228 138.581 56.9598 129.506 64.5526L130.905 78.3265L118.585 79.5783L117.186 65.8043C106.769 60.192 99.7422 49.7547 98.5351 37.8811L97.1013 23.7706C96.8427 21.213 98.7051 18.9294 101.262 18.6683L135.623 15.1771Z" fill="url(#paint64_radial_9375_280)"/>
<path d="M135.623 15.1771C138.181 14.9176 140.464 16.7803 140.725 19.3382L142.159 33.4487C143.365 45.3228 138.581 56.9598 129.506 64.5526L130.905 78.3265L118.585 79.5783L117.186 65.8043C106.769 60.192 99.7422 49.7547 98.5351 37.8811L97.1013 23.7706C96.8427 21.213 98.7051 18.9294 101.262 18.6683L135.623 15.1771Z" fill="url(#paint65_radial_9375_280)"/>
<path d="M135.623 15.1771C138.181 14.9176 140.464 16.7803 140.725 19.3382L142.159 33.4487C143.365 45.3228 138.581 56.9598 129.506 64.5526L130.905 78.3265L118.585 79.5783L117.186 65.8043C106.769 60.192 99.7422 49.7547 98.5351 37.8811L97.1013 23.7706C96.8427 21.213 98.7051 18.9294 101.262 18.6683L135.623 15.1771Z" fill="url(#paint66_linear_9375_280)"/>
<path d="M135.623 15.1771C138.181 14.9176 140.464 16.7803 140.725 19.3382L142.159 33.4487C143.365 45.3228 138.581 56.9598 129.506 64.5526L130.905 78.3265L118.585 79.5783L117.186 65.8043C106.769 60.192 99.7422 49.7547 98.5351 37.8811L97.1013 23.7706C96.8427 21.213 98.7051 18.9294 101.262 18.6683L135.623 15.1771Z" fill="url(#paint67_radial_9375_280)"/>
<path d="M113.767 75.4478C114.213 74.6805 114.999 74.1733 115.882 74.0836L132.411 72.4042C133.294 72.3145 134.166 72.6531 134.758 73.315L138.764 77.8012C139.153 78.2371 139.394 78.7849 139.453 79.3663L139.764 82.4206C139.918 83.9427 138.81 85.3019 137.288 85.4566L113.731 87.8501C112.208 88.0048 110.849 86.8963 110.695 85.3742L110.384 82.3199C110.325 81.7385 110.451 81.1533 110.745 80.6481L113.767 75.4478Z" fill="#EA873A"/>
<path d="M113.767 75.4478C114.213 74.6805 114.999 74.1733 115.882 74.0836L132.411 72.4042C133.294 72.3145 134.166 72.6531 134.758 73.315L138.764 77.8012C139.153 78.2371 139.394 78.7849 139.453 79.3663L139.764 82.4206C139.918 83.9427 138.81 85.3019 137.288 85.4566L113.731 87.8501C112.208 88.0048 110.849 86.8963 110.695 85.3742L110.384 82.3199C110.325 81.7385 110.451 81.1533 110.745 80.6481L113.767 75.4478Z" fill="url(#paint68_linear_9375_280)"/>
<path d="M113.767 75.4478C114.213 74.6805 114.999 74.1733 115.882 74.0836L132.411 72.4042C133.294 72.3145 134.166 72.6531 134.758 73.315L138.764 77.8012C139.153 78.2371 139.394 78.7849 139.453 79.3663L139.764 82.4206C139.918 83.9427 138.81 85.3019 137.288 85.4566L113.731 87.8501C112.208 88.0048 110.849 86.8963 110.695 85.3742L110.384 82.3199C110.325 81.7385 110.451 81.1533 110.745 80.6481L113.767 75.4478Z" fill="url(#paint69_radial_9375_280)"/>
<path d="M113.767 75.4478C114.213 74.6805 114.999 74.1733 115.882 74.0836L132.411 72.4042C133.294 72.3145 134.166 72.6531 134.758 73.315L138.764 77.8012C139.153 78.2371 139.394 78.7849 139.453 79.3663L139.764 82.4206C139.918 83.9427 138.81 85.3019 137.288 85.4566L113.731 87.8501C112.208 88.0048 110.849 86.8963 110.695 85.3742L110.384 82.3199C110.325 81.7385 110.451 81.1533 110.745 80.6481L113.767 75.4478Z" fill="url(#paint70_linear_9375_280)"/>
<defs>
<linearGradient id="paint0_linear_9375_280" x1="54.936" y1="30.0486" x2="48.3087" y2="70.7364" gradientUnits="userSpaceOnUse">
<stop stop-color="#BBDDE3"/>
<stop offset="1" stop-color="#358D9A"/>
</linearGradient>
<linearGradient id="paint1_linear_9375_280" x1="58.4374" y1="40.8541" x2="41.4269" y2="49.1349" gradientUnits="userSpaceOnUse">
<stop stop-color="#A9F9F9"/>
<stop offset="0.716736" stop-color="#81D3D4"/>
</linearGradient>
<linearGradient id="paint2_linear_9375_280" x1="44.512" y1="19.5478" x2="71.7571" y2="80.2039" gradientUnits="userSpaceOnUse">
<stop stop-opacity="0"/>
<stop offset="1" stop-opacity="0.22"/>
</linearGradient>
<linearGradient id="paint3_linear_9375_280" x1="33.9634" y1="38.3186" x2="33.9634" y2="70.2622" gradientUnits="userSpaceOnUse">
<stop stop-color="#BBDDE3"/>
<stop offset="1" stop-color="#358D9A"/>
</linearGradient>
<radialGradient id="paint4_radial_9375_280" cx="0" cy="0" r="1" gradientUnits="userSpaceOnUse" gradientTransform="translate(25.77 60.3274) rotate(-65.3612) scale(19.6535 37.3135)">
<stop offset="0.511071" stop-color="#81D3D4"/>
<stop offset="0.867137" stop-color="#A9F9F9"/>
</radialGradient>
<linearGradient id="paint5_linear_9375_280" x1="38.5226" y1="56.2882" x2="38.5226" y2="71.8774" gradientUnits="userSpaceOnUse">
<stop stop-color="#BBDDE3"/>
<stop offset="1" stop-color="#358D9A"/>
</linearGradient>
<linearGradient id="paint6_linear_9375_280" x1="57.4494" y1="58.2643" x2="53.9349" y2="72.8326" gradientUnits="userSpaceOnUse">
<stop stop-color="#A9F9F9"/>
<stop offset="1" stop-color="#81D3D4"/>
</linearGradient>
<linearGradient id="paint7_linear_9375_280" x1="35.2064" y1="71.3063" x2="38.8861" y2="56.2882" gradientUnits="userSpaceOnUse">
<stop stop-color="#81D3D4"/>
<stop offset="1" stop-color="#A9F9F9"/>
</linearGradient>
<linearGradient id="paint8_linear_9375_280" x1="13.3072" y1="60.743" x2="14.4157" y2="71.6377" gradientUnits="userSpaceOnUse">
<stop stop-opacity="0"/>
<stop offset="1" stop-opacity="0.22"/>
</linearGradient>
<linearGradient id="paint9_linear_9375_280" x1="12.7593" y1="39.5474" x2="20.9842" y2="76.7409" gradientUnits="userSpaceOnUse">
<stop stop-opacity="0"/>
<stop offset="1" stop-opacity="0.22"/>
</linearGradient>
<radialGradient id="paint10_radial_9375_280" cx="0" cy="0" r="1" gradientUnits="userSpaceOnUse" gradientTransform="translate(68.3506 69.6979) rotate(94.6152) scale(40.6629 44.9557)">
<stop stop-color="#FFDE92"/>
<stop offset="1" stop-color="#F4AB00"/>
</radialGradient>
<radialGradient id="paint11_radial_9375_280" cx="0" cy="0" r="1" gradientUnits="userSpaceOnUse" gradientTransform="translate(68.3506 69.6979) rotate(100.005) scale(30.2827 33.2484)">
<stop stop-color="#FFDE92"/>
<stop offset="0.644231" stop-color="#F4AB00"/>
<stop offset="1" stop-color="#E38C01"/>
</radialGradient>
<linearGradient id="paint12_linear_9375_280" x1="61.0073" y1="74.1381" x2="61.2118" y2="61.5868" gradientUnits="userSpaceOnUse">
<stop stop-color="#E38C01" stop-opacity="0"/>
<stop offset="0.717607" stop-color="#E38C01"/>
</linearGradient>
<linearGradient id="paint13_linear_9375_280" x1="76.7549" y1="29.4311" x2="76.7358" y2="33.7042" gradientUnits="userSpaceOnUse">
<stop offset="0.221154" stop-color="#928A8A"/>
<stop offset="1" stop-color="#564929"/>
</linearGradient>
<radialGradient id="paint14_radial_9375_280" cx="0" cy="0" r="1" gradientUnits="userSpaceOnUse" gradientTransform="translate(73.6939 43.106) rotate(118.906) scale(23.4513 23.4513)">
<stop offset="0.519972" stop-color="#FFDE92"/>
<stop offset="0.944405" stop-color="#F4AB00"/>
</radialGradient>
<linearGradient id="paint15_linear_9375_280" x1="66.7653" y1="28.3508" x2="67.5325" y2="32.5546" gradientUnits="userSpaceOnUse">
<stop offset="0.221154" stop-color="#928A8A"/>
<stop offset="1" stop-color="#564929"/>
</linearGradient>
<radialGradient id="paint16_radial_9375_280" cx="0" cy="0" r="1" gradientUnits="userSpaceOnUse" gradientTransform="translate(80.5079 57.9774) rotate(-108.989) scale(2.98473 11.1132)">
<stop offset="0.418957" stop-color="#FF6A6A"/>
<stop offset="0.768605" stop-color="#E85225"/>
</radialGradient>
<radialGradient id="paint17_radial_9375_280" cx="0" cy="0" r="1" gradientUnits="userSpaceOnUse" gradientTransform="translate(83.6116 47.8346) rotate(79.6573) scale(4.59957 3.53035)">
<stop stop-color="#BCA05A"/>
<stop offset="1" stop-color="#564929"/>
</radialGradient>
<radialGradient id="paint18_radial_9375_280" cx="0" cy="0" r="1" gradientUnits="userSpaceOnUse" gradientTransform="translate(82.4825 48.3216) rotate(79.6573) scale(4.32322 2.33411)">
<stop offset="0.731553" stop-color="white"/>
<stop offset="1" stop-color="#9C9C9C"/>
</radialGradient>
<linearGradient id="paint19_linear_9375_280" x1="81.3065" y1="45.7526" x2="81.7345" y2="48.0978" gradientUnits="userSpaceOnUse">
<stop stop-color="white" stop-opacity="0.8"/>
<stop offset="1" stop-color="white" stop-opacity="0"/>
</linearGradient>
<radialGradient id="paint20_radial_9375_280" cx="0" cy="0" r="1" gradientUnits="userSpaceOnUse" gradientTransform="translate(82.7585 50.1392) rotate(69.389) scale(4.16175 3.19215)">
<stop stop-color="#FFE8B3"/>
<stop offset="1" stop-color="#FAC64C"/>
</radialGradient>
<linearGradient id="paint21_linear_9375_280" x1="84.3037" y1="50.4845" x2="83.5768" y2="55.2569" gradientUnits="userSpaceOnUse">
<stop stop-color="#FF8888"/>
<stop offset="1" stop-color="#FFC088" stop-opacity="0"/>
</linearGradient>
<radialGradient id="paint22_radial_9375_280" cx="0" cy="0" r="1" gradientUnits="userSpaceOnUse" gradientTransform="translate(70.4879 51.317) rotate(79.6573) scale(4.59957 3.53035)">
<stop stop-color="#BCA05A"/>
<stop offset="1" stop-color="#564929"/>
</radialGradient>
<radialGradient id="paint23_radial_9375_280" cx="0" cy="0" r="1" gradientUnits="userSpaceOnUse" gradientTransform="translate(70.4879 51.317) rotate(79.6573) scale(4.59957 3.53035)">
<stop offset="0.731553" stop-color="white"/>
<stop offset="1" stop-color="#9C9C9C"/>
</radialGradient>
<linearGradient id="paint24_linear_9375_280" x1="68.7941" y1="49.6074" x2="69.2221" y2="51.9526" gradientUnits="userSpaceOnUse">
<stop stop-color="white" stop-opacity="0.8"/>
<stop offset="1" stop-color="white" stop-opacity="0"/>
</linearGradient>
<radialGradient id="paint25_radial_9375_280" cx="0" cy="0" r="1" gradientUnits="userSpaceOnUse" gradientTransform="translate(71.8946 54.5654) rotate(83.9368) scale(4.37437 4.82982)">
<stop stop-color="#FFE8B3"/>
<stop offset="1" stop-color="#F8BD34"/>
</radialGradient>
<linearGradient id="paint26_linear_9375_280" x1="72.6723" y1="55.2674" x2="72.4457" y2="60.22" gradientUnits="userSpaceOnUse">
<stop stop-color="#FF8888"/>
<stop offset="1" stop-color="#FFC088" stop-opacity="0"/>
</linearGradient>
<linearGradient id="paint27_linear_9375_280" x1="203.939" y1="31.134" x2="200.088" y2="64.6562" gradientUnits="userSpaceOnUse">
<stop stop-color="#BBDDE3"/>
<stop offset="1" stop-color="#358D9A"/>
</linearGradient>
<linearGradient id="paint28_linear_9375_280" x1="200.733" y1="42.4819" x2="204.706" y2="53.3902" gradientUnits="userSpaceOnUse">
<stop stop-color="#A9F9F9"/>
<stop offset="1" stop-color="#81D3D4"/>
</linearGradient>
<linearGradient id="paint29_linear_9375_280" x1="203.525" y1="49.5425" x2="201.587" y2="66.4112" gradientUnits="userSpaceOnUse">
<stop stop-color="#BBDDE3"/>
<stop offset="1" stop-color="#358D9A"/>
</linearGradient>
<linearGradient id="paint30_linear_9375_280" x1="202.922" y1="54.7931" x2="202.01" y2="62.7282" gradientUnits="userSpaceOnUse">
<stop stop-color="#A9F9F9"/>
<stop offset="1" stop-color="#81D3D4"/>
</linearGradient>
<linearGradient id="paint31_linear_9375_280" x1="229.402" y1="30.3025" x2="181.345" y2="60.9415" gradientUnits="userSpaceOnUse">
<stop stop-opacity="0"/>
<stop offset="1" stop-opacity="0.33"/>
</linearGradient>
<linearGradient id="paint32_linear_9375_280" x1="222.394" y1="49.1851" x2="196.933" y2="75.0177" gradientUnits="userSpaceOnUse">
<stop stop-opacity="0.11"/>
<stop offset="1" stop-opacity="0.33"/>
</linearGradient>
<linearGradient id="paint33_linear_9375_280" x1="182.236" y1="27.2468" x2="182.433" y2="63.3759" gradientUnits="userSpaceOnUse">
<stop stop-color="#BBDDE3"/>
<stop offset="1" stop-color="#358D9A"/>
</linearGradient>
<linearGradient id="paint34_linear_9375_280" x1="175.894" y1="35.6381" x2="186.705" y2="36.1473" gradientUnits="userSpaceOnUse">
<stop offset="0.544692" stop-color="#A9F9F9"/>
<stop offset="1" stop-color="#81D3D4"/>
</linearGradient>
<linearGradient id="paint35_linear_9375_280" x1="158.694" y1="30.3952" x2="160.247" y2="34.4814" gradientUnits="userSpaceOnUse">
<stop offset="0.221154" stop-color="#928A8A"/>
<stop offset="1" stop-color="#564929"/>
</linearGradient>
<radialGradient id="paint36_radial_9375_280" cx="0" cy="0" r="1" gradientUnits="userSpaceOnUse" gradientTransform="translate(176.302 71.7781) rotate(73.8032) scale(42.8107 44.277)">
<stop stop-color="#FFDE92"/>
<stop offset="1" stop-color="#F4AB00"/>
</radialGradient>
<radialGradient id="paint37_radial_9375_280" cx="0" cy="0" r="1" gradientUnits="userSpaceOnUse" gradientTransform="translate(176.302 71.7781) rotate(68.7446) scale(31.7719 32.8601)">
<stop stop-color="#FFDE92"/>
<stop offset="0.644231" stop-color="#F4AB00"/>
<stop offset="1" stop-color="#E38C01"/>
</radialGradient>
<linearGradient id="paint38_linear_9375_280" x1="184.297" y1="74.7186" x2="181.059" y2="61.8858" gradientUnits="userSpaceOnUse">
<stop stop-color="#E38C01" stop-opacity="0"/>
<stop offset="0.717607" stop-color="#E38C01"/>
</linearGradient>
<radialGradient id="paint39_radial_9375_280" cx="0" cy="0" r="1" gradientUnits="userSpaceOnUse" gradientTransform="translate(164.992 43.3036) rotate(57.3057) scale(23.9782 23.9782)">
<stop offset="0.169442" stop-color="#FFDE92"/>
<stop offset="1" stop-color="#F4AB00"/>
</radialGradient>
<linearGradient id="paint40_linear_9375_280" x1="174.296" y1="26.6617" x2="173.797" y2="31.0042" gradientUnits="userSpaceOnUse">
<stop offset="0.221154" stop-color="#928A8A"/>
<stop offset="1" stop-color="#564929"/>
</linearGradient>
<radialGradient id="paint41_radial_9375_280" cx="0" cy="0" r="1" gradientUnits="userSpaceOnUse" gradientTransform="translate(155.192 48.7988) rotate(96.5543) scale(4.705 3.61127)">
<stop stop-color="#BCA05A"/>
<stop offset="1" stop-color="#564929"/>
</radialGradient>
<radialGradient id="paint42_radial_9375_280" cx="0" cy="0" r="1" gradientUnits="userSpaceOnUse" gradientTransform="translate(156.378 49.2195) rotate(96.5543) scale(4.42232 2.38761)">
<stop stop-color="white"/>
<stop offset="1" stop-color="#564929"/>
</radialGradient>
<radialGradient id="paint43_radial_9375_280" cx="0" cy="0" r="1" gradientUnits="userSpaceOnUse" gradientTransform="translate(156.378 49.2195) rotate(96.5543) scale(4.42232 2.38761)">
<stop offset="0.731553" stop-color="white"/>
<stop offset="1" stop-color="#9C9C9C"/>
</radialGradient>
<linearGradient id="paint44_linear_9375_280" x1="157.401" y1="46.5177" x2="157.123" y2="48.9404" gradientUnits="userSpaceOnUse">
<stop stop-color="white" stop-opacity="0.8"/>
<stop offset="1" stop-color="white" stop-opacity="0"/>
</linearGradient>
<radialGradient id="paint45_radial_9375_280" cx="0" cy="0" r="1" gradientUnits="userSpaceOnUse" gradientTransform="translate(156.016 50.4575) rotate(112.995) scale(3.86115 9.34551)">
<stop offset="0.17293" stop-color="#FFE8B3"/>
<stop offset="1" stop-color="#F8BD32"/>
</radialGradient>
<linearGradient id="paint46_linear_9375_280" x1="154.665" y1="51.5487" x2="155.729" y2="56.3707" gradientUnits="userSpaceOnUse">
<stop stop-color="#FF8888"/>
<stop offset="1" stop-color="#FFC088" stop-opacity="0"/>
</linearGradient>
<radialGradient id="paint47_radial_9375_280" cx="0" cy="0" r="1" gradientUnits="userSpaceOnUse" gradientTransform="translate(168.821 51.4657) rotate(96.5543) scale(4.705 3.61127)">
<stop stop-color="#BCA05A"/>
<stop offset="1" stop-color="#564929"/>
</radialGradient>
<radialGradient id="paint48_radial_9375_280" cx="0" cy="0" r="1" gradientUnits="userSpaceOnUse" gradientTransform="translate(168.821 51.4657) rotate(96.5543) scale(4.705 3.61127)">
<stop stop-color="white"/>
<stop offset="1" stop-color="#564929"/>
</radialGradient>
<radialGradient id="paint49_radial_9375_280" cx="0" cy="0" r="1" gradientUnits="userSpaceOnUse" gradientTransform="translate(168.821 51.4657) rotate(96.5543) scale(4.705 3.61127)">
<stop offset="0.731553" stop-color="white"/>
<stop offset="1" stop-color="#9C9C9C"/>
</radialGradient>
<linearGradient id="paint50_linear_9375_280" x1="170.434" y1="49.6054" x2="170.156" y2="52.028" gradientUnits="userSpaceOnUse">
<stop stop-color="white" stop-opacity="0.8"/>
<stop offset="1" stop-color="white" stop-opacity="0"/>
</linearGradient>
<radialGradient id="paint51_radial_9375_280" cx="0" cy="0" r="1" gradientUnits="userSpaceOnUse" gradientTransform="translate(167.424 53.7836) rotate(89.9724) scale(5.56123 6.5514)">
<stop offset="0.133055" stop-color="#FFE8B3"/>
<stop offset="1" stop-color="#F8BD34"/>
</radialGradient>
<linearGradient id="paint52_linear_9375_280" x1="166.95" y1="55.5725" x2="167.527" y2="60.6873" gradientUnits="userSpaceOnUse">
<stop stop-color="#FF8888"/>
<stop offset="1" stop-color="#FFC088" stop-opacity="0"/>
</linearGradient>
<radialGradient id="paint53_radial_9375_280" cx="0" cy="0" r="1" gradientUnits="userSpaceOnUse" gradientTransform="translate(160.381 57.374) rotate(-70.2309) scale(2.36283 10.2605)">
<stop offset="0.418957" stop-color="#FF6A6A"/>
<stop offset="0.768605" stop-color="#E85225"/>
</radialGradient>
<linearGradient id="paint54_linear_9375_280" x1="147.548" y1="46.6053" x2="153.386" y2="19.4104" gradientUnits="userSpaceOnUse">
<stop stop-color="#FEC551"/>
<stop offset="1" stop-color="#FEC551" stop-opacity="0"/>
</linearGradient>
<radialGradient id="paint55_radial_9375_280" cx="0" cy="0" r="1" gradientUnits="userSpaceOnUse" gradientTransform="translate(138.819 35.4209) rotate(-43.2158) scale(21.2194 24.0075)">
<stop offset="0.836143" stop-color="#FFEC6A" stop-opacity="0"/>
<stop offset="1" stop-color="#FFEC6A"/>
</radialGradient>
<radialGradient id="paint56_radial_9375_280" cx="0" cy="0" r="1" gradientUnits="userSpaceOnUse" gradientTransform="translate(141.953 32.2646) rotate(-58.0281) scale(15.204 10.3992)">
<stop offset="0.631465" stop-color="#D97355"/>
<stop offset="1" stop-color="#D97355" stop-opacity="0"/>
</radialGradient>
<linearGradient id="paint57_linear_9375_280" x1="130.97" y1="56.887" x2="136.691" y2="33.2987" gradientUnits="userSpaceOnUse">
<stop stop-color="#D67159"/>
<stop offset="1" stop-color="#D67159" stop-opacity="0"/>
</linearGradient>
<linearGradient id="paint58_linear_9375_280" x1="95.8954" y1="51.8535" x2="84.7065" y2="26.3887" gradientUnits="userSpaceOnUse">
<stop stop-color="#FEC551"/>
<stop offset="1" stop-color="#FEC551" stop-opacity="0"/>
</linearGradient>
<radialGradient id="paint59_radial_9375_280" cx="0" cy="0" r="1" gradientUnits="userSpaceOnUse" gradientTransform="translate(102.196 39.142) rotate(-148.388) scale(21.2194 24.0075)">
<stop offset="0.836143" stop-color="#FFEC6A" stop-opacity="0"/>
<stop offset="1" stop-color="#FFEC6A"/>
</radialGradient>
<radialGradient id="paint60_radial_9375_280" cx="0" cy="0" r="1" gradientUnits="userSpaceOnUse" gradientTransform="translate(98.4912 36.6806) rotate(-133.575) scale(15.204 10.3992)">
<stop offset="0.631465" stop-color="#D97355"/>
<stop offset="1" stop-color="#D97355" stop-opacity="0"/>
</radialGradient>
<linearGradient id="paint61_linear_9375_280" x1="114.203" y1="58.5906" x2="103.854" y2="36.6351" gradientUnits="userSpaceOnUse">
<stop stop-color="#D67159"/>
<stop offset="1" stop-color="#D67159" stop-opacity="0"/>
</linearGradient>
<radialGradient id="paint62_radial_9375_280" cx="0" cy="0" r="1" gradientUnits="userSpaceOnUse" gradientTransform="translate(131.085 50.5777) rotate(-150.722) scale(15.0822 27.0254)">
<stop stop-color="#C55D73" stop-opacity="0.55"/>
<stop offset="1" stop-color="#C55D73" stop-opacity="0"/>
</radialGradient>
<radialGradient id="paint63_radial_9375_280" cx="0" cy="0" r="1" gradientUnits="userSpaceOnUse" gradientTransform="translate(132.151 78.1999) rotate(-123.512) scale(10.7104 49.4466)">
<stop offset="0.224102" stop-color="#C55D73" stop-opacity="0.66"/>
<stop offset="1" stop-color="#C55D73" stop-opacity="0"/>
</radialGradient>
<radialGradient id="paint64_radial_9375_280" cx="0" cy="0" r="1" gradientUnits="userSpaceOnUse" gradientTransform="translate(114.089 26.8244) rotate(77.2098) scale(33.8144 17.5504)">
<stop offset="0.120527" stop-color="#FFFA73" stop-opacity="0.77"/>
<stop offset="1" stop-color="#FFFA73" stop-opacity="0"/>
</radialGradient>
<radialGradient id="paint65_radial_9375_280" cx="0" cy="0" r="1" gradientUnits="userSpaceOnUse" gradientTransform="translate(121.49 73.9558) rotate(-95.8017) scale(9.20281 4.74227)">
<stop offset="0.411765" stop-color="#FFF45B" stop-opacity="0.66"/>
<stop offset="1" stop-color="#FFF45B" stop-opacity="0"/>
</radialGradient>
<linearGradient id="paint66_linear_9375_280" x1="110.984" y1="17.6806" x2="111.661" y2="24.3504" gradientUnits="userSpaceOnUse">
<stop stop-color="#FFFA73" stop-opacity="0.77"/>
<stop offset="1" stop-color="#FFFA73" stop-opacity="0"/>
</linearGradient>
<radialGradient id="paint67_radial_9375_280" cx="0" cy="0" r="1" gradientUnits="userSpaceOnUse" gradientTransform="translate(130.379 68.2642) rotate(-137.55) scale(13.4958 27.1454)">
<stop offset="0.146158" stop-color="#C55D73"/>
<stop offset="0.649247" stop-color="#C55D73" stop-opacity="0"/>
</radialGradient>
<linearGradient id="paint68_linear_9375_280" x1="119.078" y1="72.7862" x2="119.494" y2="76.8794" gradientUnits="userSpaceOnUse">
<stop stop-color="#FFFA73" stop-opacity="0.77"/>
<stop offset="1" stop-color="#FFFA73" stop-opacity="0"/>
</linearGradient>
<radialGradient id="paint69_radial_9375_280" cx="0" cy="0" r="1" gradientUnits="userSpaceOnUse" gradientTransform="translate(117.525 78.2765) rotate(25.2275) scale(4.65929 8.68039)">
<stop stop-color="#FFF45B" stop-opacity="0.77"/>
<stop offset="1" stop-color="#FFF45B" stop-opacity="0"/>
</radialGradient>
<linearGradient id="paint70_linear_9375_280" x1="123.41" y1="86.8667" x2="122.728" y2="80.1619" gradientUnits="userSpaceOnUse">
<stop stop-color="#C55D73"/>
<stop offset="1" stop-color="#C55D73" stop-opacity="0"/>
</linearGradient>
</defs>
</svg>
